<svg xmlns="http://www.w3.org/2000/svg" width="18" height="18" viewBox="0 0 18 18"><defs><mask id="a"><path fill="#fff" d="M0 0h18v18H0z"/><path d="M.821 2.389h8.906a.32.32 0 0 1 .321.321v1.719H.5V2.71a.32.32 0 0 1 .321-.321"/><path d="M4.221 7.187h9.558v5.326a.32.32 0 0 1-.321.321H4.542a.32.32 0 0 1-.321-.321z"/><path d="M4.542 5.156h8.906a.32.32 0 0 1 .321.321v1.71H4.231v-1.71a.32.32 0 0 1 .311-.321"/><path d="M7.952 9.963H17.5v5.327a.32.32 0 0 1-.321.321H8.273a.32.32 0 0 1-.321-.321z"/><path d="M8.273 7.923h8.906a.32.32 0 0 1 .321.321v1.719H7.952V8.244a.32.32 0 0 1 .321-.321"/><path d="M1.784 3.003h6.979v.822H1.784z"/><path d="M5.506 5.77h6.979v.822H5.506z"/><path d="M9.236 8.537h6.979v.822H9.236z"/><circle cx="14.874" cy="12.438" r=".774"/><circle cx="12.759" cy="12.438" r=".774"/><circle cx="10.577" cy="12.438" r=".774"/></mask></defs><path fill="currentColor" d="M.5 4.429h9.548v5.327a.32.32 0 0 1-.321.321H.821A.32.32 0 0 1 .5 9.756z" mask="url(#a)"/></svg>