<svg xmlns="http://www.w3.org/2000/svg" width="18" height="18" viewBox="0 0 18 18">
  <defs>
    <mask id="ko">
      <rect width="18" height="18" fill="white"/>
      <path fill="black" d="M.821 2.389h8.906a.32.32 0 0 1 .321.321v1.719H.5V2.71a.32.32 0 0 1 .321-.321"/>
      <path fill="black" d="M4.221 7.187h9.558v5.326a.32.32 0 0 1-.321.321H4.542a.32.32 0 0 1-.321-.321z"/>
      <path fill="black" d="M4.542 5.156h8.906a.32.32 0 0 1 .321.321v1.71H4.231v-1.71a.32.32 0 0 1 .311-.321"/>
      <path fill="black" d="M7.952 9.963H17.5v5.327a.32.32 0 0 1-.321.321H8.273a.32.32 0 0 1-.321-.321z"/>
      <path fill="black" d="M8.273 7.923h8.906a.32.32 0 0 1 .321.321v1.719H7.952V8.244a.32.32 0 0 1 .321-.321"/>
      <rect fill="black" x="1.784" y="3.003" width="6.979" height=".822"/>
      <rect fill="black" x="5.506" y="5.77" width="6.979" height=".822"/>
      <rect fill="black" x="9.236" y="8.537" width="6.979" height=".822"/>
      <circle fill="black" cx="14.874" cy="12.438" r=".774"/>
      <circle fill="black" cx="12.759" cy="12.438" r=".774"/>
      <circle fill="black" cx="10.577" cy="12.438" r=".774"/>
    </mask>
  </defs>
  <g>
    <path fill="currentColor" mask="url(#ko)" d="M.5 4.429h9.548v5.327a.32.32 0 0 1-.321.321H.821A.32.32 0 0 1 .5 9.756z"/>
  </g>
</svg>