<svg height="48" viewBox="0 0 48 48" width="48" xmlns="http://www.w3.org/2000/svg"><path d="m33 25.999h2v-3.999h-2zm-19.999 0h2v-3.999h-2zm9 9h3.999v-2h-3.999zm0-19.999h3.999v-2h-3.999zm10.999 16.899h2v-3.9h-2zm-5 3.1h4v-2h-4zm-11.899 0h3.9v-2h-3.9zm-3.1-3h2v-4h-2zm14.999-16.999h4v-2h-4zm5 5h2v-4h-2zm-19.999 0h2v-4h-2zm3-5h4v-2h-4zm-7.001 24h30v-30h-30zm37-26v-2h-5v-3a1 1 0 0 0 -1-1h-3v-5h-2v5h-4v-5h-2v5h-4v-5h-2v5h-4v-5h-2v5h-4v-5h-2v5h-3a1 1 0 0 0 -1 1v3h-5v2h5v4h-5v2h5v4h-5v2h5v4h-5v2h5v4h-5v2h5v3a1 1 0 0 0 1 1h3v5h2v-5h4v5h2v-5h4v5h2v-5h4v5h2v-5h4v5h2v-5h3a1 1 0 0 0 1-1v-3h5v-2h-5v-4h5v-2h-5v-4h5v-2h-5v-4h5v-2h-5v-4z" fill="#ed7100" fill-rule="evenodd"/></svg>