<svg height="24" width="24" xmlns="http://www.w3.org/2000/svg"><path d="m8.36 7.8a4.4 4.4 0 0 0 -.54.52l-.23-.23-.88-.88.53-.53.88.88zm8.96 8.96-.53.53-1.09-1.1a4.3 4.3 0 0 0 .53-.52zm-10.74-5.16a2.6 2.6 0 0 0 0 .4 2 2 0 0 0 0 .35h-1.71v-.75zm12.55 0v.75h-1.66v-.75zm-11.34 4.05a4.4 4.4 0 0 0 .53.53l-1.11 1.11-.53-.53zm8.11-8.11.86-.86.53.53-1.09 1.09a4.4 4.4 0 0 0 -.53-.53zm-3.9 9.93h.38v1.67h-.75v-1.69zm.4-12.6v1.69a2 2 0 0 0 -.34 0 3 3 0 0 0 -.4 0v-1.69z" fill="#4285f4"/><g fill-rule="evenodd"><path d="m17.92 11.6a5.88 5.88 0 0 0 -1.49-3.53 5 5 0 0 0 -.54-.52 5.8 5.8 0 0 0 -3.49-1.45h-.77a5.84 5.84 0 0 0 -3.51 1.46 7 7 0 0 0 -.53.53 5.9 5.9 0 0 0 -1.47 3.51v.75a5.9 5.9 0 0 0 1.44 3.53 5 5 0 0 0 .53.53 5.9 5.9 0 0 0 3.56 1.49h.75a5.9 5.9 0 0 0 3.52-1.47 4.4 4.4 0 0 0 .53-.53 5.83 5.83 0 0 0 1.47-3.55v-.35c0-.12.01-.27 0-.4m-5.92 5.56a5.16 5.16 0 1 1 5.16-5.16 5.16 5.16 0 0 1 -5.16 5.16m0-9.09a3.93 3.93 0 1 0 4 3.93 3.94 3.94 0 0 0 -4-3.93" fill="#669df6"/><path d="m12 5a1.4 1.4 0 0 1 0-2.79v.79a.65.65 0 0 0 0 1.29z" fill="#aecbfa"/><path d="m12 5v-.71a.65.65 0 0 0 0-1.29v-.75a1.4 1.4 0 0 1 0 2.75" fill="#669df6"/><path d="m12 21.75a1.4 1.4 0 0 1 0-2.75v.75a.65.65 0 0 0 0 1.25z" fill="#aecbfa"/><path d="m12 21.75v-.75a.65.65 0 0 0 0-1.29v-.71a1.4 1.4 0 0 1 0 2.79z" fill="#669df6"/><path d="m6.09 7.48a1.39 1.39 0 1 1 0-2.78v.75a.64.64 0 0 0 -.64.64.64.64 0 0 0 .64.64z" fill="#aecbfa"/><path d="m6.09 7.48v-.75a.64.64 0 0 0 0-1.28v-.75a1.39 1.39 0 1 1 0 2.78" fill="#669df6"/><path d="m17.91 19.3a1.39 1.39 0 0 1 0-2.78v.75a.64.64 0 0 0 0 1.28z" fill="#aecbfa"/><path d="m17.91 19.3v-.75a.64.64 0 0 0 .64-.64.64.64 0 0 0 -.64-.64v-.75a1.39 1.39 0 0 1 0 2.78" fill="#669df6"/><path d="m3.64 13.39a1.39 1.39 0 0 1 0-2.78v.75a.64.64 0 1 0 0 1.28z" fill="#aecbfa"/><path d="m3.64 13.39v-.75a.64.64 0 1 0 0-1.28v-.75a1.39 1.39 0 1 1 0 2.78" fill="#669df6"/><path d="m20.36 13.39a1.38 1.38 0 0 1 -1-.4 1.43 1.43 0 0 1 -.36-.99 1.4 1.4 0 0 1 1.4-1.39v.75a.65.65 0 0 0 -.65.64.64.64 0 0 0 .19.45.6.6 0 0 0 .46.19z" fill="#aecbfa"/><path d="m20.36 13.39v-.75a.64.64 0 0 0 0-1.28v-.75a1.39 1.39 0 0 1 0 2.78" fill="#669df6"/><path d="m6.06 19.3a1.4 1.4 0 0 1 -1-.42 1.33 1.33 0 0 1 -.38-1 1.44 1.44 0 0 1 1.45-1.38v.75a.69.69 0 0 0 -.7.65.57.57 0 0 0 .17.44.67.67 0 0 0 .47.19z" fill="#aecbfa"/><path d="m6.06 19.3v-.75a.69.69 0 0 0 .7-.65.56.56 0 0 0 -.17-.44.67.67 0 0 0 -.47-.19v-.75a1.4 1.4 0 0 1 1 .42 1.32 1.32 0 0 1 .38 1 1.44 1.44 0 0 1 -1.44 1.36" fill="#669df6"/><path d="m17.91 7.48a1.39 1.39 0 0 1 0-2.78v.75a.64.64 0 1 0 0 1.28z" fill="#aecbfa"/><path d="m17.91 7.48v-.75a.64.64 0 0 0 .64-.64.64.64 0 0 0 -.64-.64v-.75a1.39 1.39 0 1 1 0 2.78" fill="#669df6"/><path d="m12 8.07v7.85a3.93 3.93 0 1 1 0-7.85" fill="#aecbfa"/><path d="m16 12a3.92 3.92 0 0 1 -4 3.92v-7.85a3.93 3.93 0 0 1 4 3.93" fill="#669df6"/></g><path d="m12.02 13.04h2.11v.75h-2.11zm0-1.37h2.11v.75h-2.11zm0-1.36h2.11v.75h-2.11z" fill="#aecbfa"/><path d="m9.91 13.04h2.11v.75h-2.11zm0-1.37h2.11v.75h-2.11zm0-1.36h2.11v.75h-2.11z" fill="#fff"/></svg>