<svg xmlns="http://www.w3.org/2000/svg" xml:space="preserve" id="Layer_1" x="0" y="0" viewBox="72.8 468.1 200 156.7"><path d="m-5677.7-20793.8-40.5 110h76.4l21.9-62.9-35.5 21 14.6-40.6-31.2-27.5zm76.1-21.5.8 2.2-2.1-1.2-2.1 1.2.8-2.2-1.7-1.5h2.2l.7-2 .7 2h2.2zm2.8 15.7-1.7-1.5h2.2l.7-2 .7 2h2.2l-1.7 1.5.8 2.2-2.1-1.2-2.1 1.2zm5.3-31.4.8 2.2-2.1-1.2-2.1 1.2.8-2.2-1.7-1.5h2.2l.7-2 .7 2h2.2zm2.8 15.7-1.7-1.5h2.2l.7-2 .7 2h2.2l-1.7 1.5.8 2.2-2.1-1.2-2.1 1.2zm5.3 15.7-1.7-1.5h2.3l.7-2 .7 2h2.2l-1.7 1.5.8 2.2-2.1-1.2-2.1 1.2zm5.3-31.4.8 2.2-2.1-1.2-2.1 1.2.8-2.2-1.7-1.5h2.3l.7-2 .7 2h2.2zm2.8 15.7-1.7-1.5h2.2l.7-2 .7 2h2.2l-1.7 1.5.8 2.2-2.1-1.2-2.1 1.2zm5.2 15.7-1.7-1.5h2.2l.7-2 .7 2h2.2l-1.7 1.5.8 2.2-2.1-1.2-2.1 1.2zm-33-32.9-1.7 1.5.8 2.2-2.1-1.2-2.1 1.2.8-2.2-1.7-1.5h2.2l.7-2 .7 2zm-19.7 0-1.7 1.5.8 2.2-2.1-1.2-2.1 1.2.8-2.2-1.7-1.5h2.2l.7-2 .7 2zm-7.5 15.7h2.3l-1.7 1.5.8 2.2-2.1-1.2-2.1 1.2.8-2.2-1.7-1.5h2.2l.7-2zm-5.3 15.8h2.2l-1.7 1.5.8 2.2-2-1.2-2.1 1.2.8-2.2-1.7-1.5h2.2l.7-2zm-.6-31.5-1.7 1.5.8 2.2-2.1-1.2-2.1 1.2.8-2.2-1.7-1.5h2.2l.7-2 .7 2zm-7.5 15.7h2.3l-1.7 1.5.8 2.2-2.1-1.2-2.1 1.2.8-2.2-1.7-1.5h2.2l.7-2zm-5.3 15.8h2.3l-1.7 1.5.8 2.2-2.1-1.2-2.1 1.2.8-2.2-1.7-1.5h2.2l.7-2zm-.6-31.5-1.7 1.5.8 2.2-2.1-1.2-2.1 1.2.8-2.2-1.7-1.5h2.2l.7-2 .7 2zm-7.5 15.7h2.2l-1.7 1.5.8 2.2-2.1-1.2-2.1 1.2.8-2.2-1.7-1.5h2.2l.7-2zm-5.2 15.8h2.3l-1.7 1.5.8 2.2-2.1-1.2-2.1 1.2.8-2.2-1.7-1.5h2.3l.7-2zm63 7.2h42.6l-17.2-46.8h-84.6l-17.2 46.7h46.7l13-36.2 13 36.2zm83.1 110-40.5-110h-5.1l-31.4 27.6 14.5 40.4-35.8-21.2 22 63.1z" transform="translate(5791 21308.662)" fill="#fff"/></svg>