<svg xmlns="http://www.w3.org/2000/svg" xml:space="preserve" id="Layer_1" x="0" y="0" viewBox="-491.4 490.7 725.8 100"><path d="m80 858.9-1-3.9c-.2-.9-.4-1.9-.5-2.9h-.3l-1.5 6.8zm-5.4 8.1H66l7.8-22.4h9l8 22.4h-8.6l-.7-2.8h-6.1z" transform="translate(-427.68 -319.987)" fill="#0756a3"/><path d="M94 844.6h8.4l3.1 11.7h.2q.15-1.5.6-3l2.5-8.8h8.3l3.7 22.4h-7.9l-1.1-12.2h-.2c-.1.8-.3 1.5-.5 2.2l-3.2 10h-4.7l-2.9-9.5c-.3-.9-.4-1.8-.5-2.8h-.3c-.1.9-.1 1.8-.2 2.7l-.9 9.5h-7.9zM121.5 844.6h15v6.1h-6.8v2.1h6.3v5.8h-6.3v2.2h7.1v6.1h-15.3zM146.9 854.5h.6c1.3 0 2.7-.2 2.7-1.9s-1.2-1.9-2.6-1.9h-.6zm-8-9.9h9.8c5 0 9.3 2.1 9.3 7.8 0 3.4-1.3 4.8-4.3 5.8v.2c.5.4 1 .8 1.4 1.3l4.9 7.3h-9.4l-3.6-7.2h-.1v7.2H139zM160.3 844.6h8.1V867h-8.1zM187.5 853.7c-1.3-1.3-3-2.1-4.8-2.3-2.4 0-4.4 1.9-4.4 4.3.1 2.5 2.1 4.4 4.5 4.4 1.8 0 3.5-.8 4.7-2.1l-.2 8.4c-1.9.6-3.8.9-5.8.9-6.2.1-11.3-4.9-11.4-11v-.3c-.1-6.4 5.1-11.7 11.5-11.7h.2c1.9 0 3.7.3 5.5.9zM202.4 858.9l-1-3.9c-.2-.9-.4-1.9-.5-2.9h-.3l-1.5 6.8zM197 867h-8.6l7.8-22.4h9l8 22.4h-8.6l-.7-2.8h-6.1z" transform="translate(-427.68 -319.987)" fill="#0756a3"/><path d="M212.3 844.6h7.8l7.3 12.4h.2c-.4-1.9-.6-3.8-.7-5.7v-6.7h7.8V867H227l-7.1-11.7h-.2c.3 1.5.5 3 .5 4.5v7.3h-7.8zM246.9 844.6h7.8L262 857h.2c-.4-1.9-.6-3.8-.7-5.7v-6.7h7.8V867h-7.8l-7.2-11.7h-.2c.3 1.5.5 3 .5 4.5v7.3h-7.8z" transform="translate(-427.68 -319.987)" fill="#0756a3"/><path d="m283.1 858.9-.9-3.9c-.2-.9-.4-1.9-.5-2.9h-.3l-1.5 6.8zm-5.4 8.1h-8.6l7.8-22.4h9l8 22.4h-8.6l-.7-2.8h-6.1zM290.5 844.6h17.1v7.3l-4.5-.2V867H295v-15.3l-4.5.2zM309.1 844.6h8.1V867h-8.1zM326.6 856c-.1 2.3 1.8 4.2 4.1 4.3s4.2-1.8 4.3-4.1v-.2c.1-2.3-1.7-4.3-4-4.4s-4.3 1.7-4.4 4zm16.6-.1c0 7.2-5.6 11.5-12.4 11.5s-12.4-4.3-12.4-11.5c0-7 5.6-11.6 12.4-11.6s12.4 4.5 12.4 11.6M344.7 844.6h7.8l7.3 12.4h.2c-.4-1.9-.6-3.8-.7-5.7v-6.7h7.8V867h-7.8l-7.2-11.7h-.1c.3 1.5.5 3 .5 4.5v7.3h-7.8z" transform="translate(-427.68 -319.987)" fill="#0756a3"/><path d="m380.9 858.9-.9-3.9c-.2-.9-.4-1.9-.5-2.9h-.3l-1.5 6.8zm-5.4 8.1h-8.6l7.8-22.4h9l8 22.4h-8.6l-.7-2.8h-6.1zM392.2 844.6h8.1v15.2h6.8v7.2h-14.9zM423.8 861.7h.9c1.3 0 3.3 0 3.3-1.9 0-1.8-2.1-1.8-3.4-1.8h-.8zm.7-8.5c1.2 0 2.5-.1 2.5-1.7 0-1.7-1.5-1.5-2.7-1.5h-.6v3.2zm-8.2-8.6h9.5c4.3 0 8.7 1 8.7 6.2.1 2-1.1 3.8-2.9 4.5v.2c2.4.7 4 2.8 4 5.3 0 4.6-4.3 6.2-8.2 6.2h-11.1zM448.9 858.9l-.9-3.9c-.2-.9-.4-1.9-.5-2.9h-.3l-1.5 6.8zm-5.4 8.1h-8.6l7.8-22.4h9l8 22.4h-8.6l-.7-2.8h-6.1zM460 844.6h7.8l7.3 12.4h.2c-.4-1.9-.6-3.8-.7-5.7v-6.7h7.8V867h-7.8l-7.2-11.7h-.2c.3 1.5.5 3 .5 4.5v7.3H460zM483.7 844.6h7.9l-.2 9.7h.2c.2-.9.6-1.7 1.1-2.5l3.9-7.2h8.9l-7 10.9 7.7 11.5h-9.4l-3.8-6.8c-.6-.8-1-1.7-1.4-2.6h-.2l.2 9.4h-7.9zM519.6 855.9c-.1 2.3 1.8 4.2 4.1 4.3s4.2-1.8 4.3-4.1v-.2c.1-2.3-1.7-4.3-4-4.4s-4.3 1.7-4.4 4zm16.6-.2c0 7.2-5.5 11.5-12.4 11.5s-12.4-4.3-12.4-11.5c0-7 5.6-11.6 12.4-11.6s12.4 4.6 12.4 11.6M537.2 844.5h15v6.4h-6.8v2.3h6v5.8h-6v7.8h-8.2zM561.1 844.5h17.1v7.3l-4.5-.2v15.3h-8.1v-15.3l-4.5.2zM580.2 844.5h15v6.1h-6.9v2.1h6.3v5.8h-6.3v2.2h7.1v6.1h-15.3zM620.2 844.5l-7 10.5 8 11.9h-9.3l-2.5-4.7c-.2-.4-.4-.9-.5-1.4h-.2c-.2.5-.4 1.1-.6 1.5l-2.5 4.6h-9.3l7.8-11.9-7-10.5h9.2l1.7 3.2c.3.6.5 1.2.7 1.8h.2c.2-.6.4-1.3.7-1.8l1.5-3.2z" transform="translate(-427.68 -319.987)" fill="#0756a3"/><path d="m633.7 858.8-.9-3.9c-.2-.9-.4-1.9-.5-2.9h-.3l-1.5 6.8zm-5.4 8.1h-8.6l7.8-22.4h9l8 22.4h-8.6l-.7-2.8H629z" transform="translate(-427.68 -319.987)" fill="#0756a3"/><path d="m646.3 858.8.4.3c1.4 1.2 3.2 1.9 5.1 2 .8 0 2.1-.3 2.1-1.3s-1.1-1.1-1.8-1.2l-1.6-.3c-3.2-.6-5.8-2.4-5.8-5.9 0-5.3 4.8-8.3 9.7-8.3 2.5 0 5 .7 7.1 2l-2.2 5.7c-1.4-1-3-1.6-4.7-1.7-.7 0-1.8.3-1.8 1.2 0 .8 1 .9 1.6 1.1l1.8.4c3.4.8 5.9 2.6 5.9 6.4 0 5.3-4.9 8-9.7 8-3 0-5.9-.7-8.6-2z" transform="translate(-427.68 -319.987)" fill="#0756a3"/><path d="m-70.4 330.4 14.4 41.3h48.7l-25.8-70.2H-109l-25.8 70.2h48.7l14.4-41.3z" transform="translate(-356.504 218.951)" fill="#ee3528"/><path d="M-44.1 271.7h-54l-11 29.8h75.9z" transform="translate(-356.504 218.951)" fill="#0756a3"/><path d="m-56.4 319.2 20-17.6h-26.3l-8.3-23.1-8.3 23.1h-26.2l19.9 17.6-9.3 25.9 23.8-14.1 23.8 14.1zM-93.5 277.8l1.1-1h-1.4l-.5-1.3-.5 1.3h-1.4l1.1 1-.5 1.4 1.3-.8 1.3.8zM-84.4 279.3l-.5-1.4 1.1-1h-1.4l-.5-1.3-.5 1.3h-1.4l1.1 1-.5 1.4 1.3-.8zM-76.4 277.8l1.1-1h-1.4l-.4-1.3-.5 1.3H-79l1.1 1-.5 1.4 1.3-.8 1.3.8zM-96.8 287.9l1.1-1h-1.4l-.5-1.3-.5 1.3h-1.4l1.1 1-.5 1.4 1.3-.8 1.3.8zM-87.8 289.3l-.5-1.4 1.1-1h-1.4l-.5-1.3-.5 1.3H-91l1.1 1-.5 1.4 1.3-.8z" transform="translate(-356.504 218.951)" fill="#fff"/><path d="m-79.8 287.9 1.1-1h-1.4l-.5-1.3-.4 1.3h-1.4l1.1 1-.5 1.4 1.3-.8 1.3.8zM-100.2 297.9l1.1-1h-1.4l-.5-1.3-.5 1.3h-1.4l1.1 1-.5 1.4 1.3-.8 1.3.8zM-91.2 299.3l-.5-1.4 1.1-1H-92l-.5-1.3-.5 1.3h-1.4l1.1 1-.5 1.4 1.3-.8zM-83.1 297.9l1.1-1h-1.4l-.5-1.3-.5 1.3h-1.4l1.1 1-.5 1.4 1.3-.8 1.3.8zM-48.4 277.8l-1.1-1h1.4l.5-1.3.5 1.3h1.4l-1.1 1 .5 1.4-1.3-.8-1.3.8zM-57.4 279.3l.5-1.4-1.1-1h1.4l.5-1.3.4 1.3h1.4l-1.1 1 .5 1.4-1.3-.8zM-65.4 277.8l-1.1-1h1.4l.5-1.3.5 1.3h1.4l-1.1 1 .5 1.4-1.3-.8-1.3.8zM-45 287.9l-1.1-1h1.4l.5-1.3.5 1.3h1.4l-1.1 1 .5 1.4-1.3-.8-1.3.8zM-54.1 289.3l.5-1.4-1.1-1h1.4l.5-1.3.5 1.3h1.4l-1.1 1 .5 1.4-1.3-.8zM-62.1 287.9l-1.1-1h1.4l.5-1.3.5 1.3h1.4l-1.1 1 .5 1.4-1.3-.8-1.3.8zM-41.7 297.9l-1.1-1h1.4l.5-1.3.5 1.3h1.4l-1.1 1 .5 1.4-1.3-.8-1.3.8zM-50.7 299.3l.5-1.4-1.1-1h1.4l.5-1.3.5 1.3h1.4l-1.1 1 .5 1.4-1.3-.8zM-58.7 297.9l-1.1-1h1.4l.5-1.3.5 1.3h1.4l-1.1 1 .5 1.4-1.3-.8-1.3.8z" transform="translate(-356.504 218.951)" fill="#fff"/></svg>