<svg viewBox="0 0 24 24" xmlns="http://www.w3.org/2000/svg"><path d="m6.79652 7.91376 2.52079 4.08625-2.52079 4.08623-4.27103-4.93862.00088 4.93805-2.52138.00057-.00499-.00704v-8.16544h2.52402l4.27103 4.93864.0003-4.93864m14.85075 2.89478c0-.55173-.27337-.86734-1.0366-.86734h-3.18808v2.31194h3.40456c.59222 0 .82012-.5576.82012-1.04216zm-.62975-2.89478c2.40287 0 2.98365 1.19381 2.98365 2.79329v.96034c0 1.2164-.53502 2.61319-2.3231 2.61319h-4.259l.00117 1.80509h-.00117l-2.5205-4.08567 2.52079-4.08625h3.59816m-6.74569.0001h-.4614l-1.70183 2.71646-1.70184-2.71645h-2.98719l2.52109 4.08596-2.52109 4.08623h2.9872l1.70184-2.71615 1.70183 2.71615h.4664l2.52019-.00029-2.5205-4.08594 2.5208-4.08596h-2.52549z"/></svg>