<svg height="64" viewBox="0 0 64 64" width="64" xmlns="http://www.w3.org/2000/svg"><g fill="none" fill-rule="evenodd"><path d="m0 0h64v64h-64z" fill="#ed7100"/><path d="m12.707 32.707-1.414-1.414-9.293 9.293v-4.586h-2v7a1 1 0 0 0 1 1h7v-2h-4.586zm30.293-32.707h-7v2h4.586l-8.793 8.793 1.414 1.414 8.793-8.793v4.586h2v-7a1 1 0 0 0 -1-1m-18 37h12v-12h-12zm14-13v14a1 1 0 0 1 -1 1h-14a1 1 0 0 1 -1-1v-14a1 1 0 0 1 1-1h14a1 1 0 0 1 1 1m-32-5h12v-12h-12zm14-13v14a1 1 0 0 1 -1 1h-14a1 1 0 0 1 -1-1v-14a1 1 0 0 1 1-1h14a1 1 0 0 1 1 1m-1 17h-14a1 1 0 0 0 -1 1v10.758l2-2v-7.758h12v12h-7.758l-2 2h10.758a1 1 0 0 0 1-1v-14a1 1 0 0 0 -1-1m17-11.758 2-2v10.758a1 1 0 0 1 -1 1h-14a1 1 0 0 1 -1-1v-14a1 1 0 0 1 1-1h10.758l-2 2h-7.758v12h12z" fill="#fff" transform="translate(10 10)"/></g></svg>