<svg viewBox="0 0 128 128" xmlns="http://www.w3.org/2000/svg"><path d="m36.5 56 2.5-10.8-8.5 16.8z" fill="#22a882"/><path d="m88.8 10-1.8 9.4-12 14.2-22.4 11.7z" fill="#99d5b5"/><path d="m86.3 0-7 19.2-26.7 26-15.7 19.5-.9 1-1.9.3 6.1-25.7z" fill="#c5e4d3"/><path d="m34.4 65.3 18.3-20.1 67.1-35.1-16.9 23.3-44.9 26.2-21.1 5.1z"/><path d="m58 59.6 44.8-26.2 1.6-2.2 12.9-7.6-11.1 15.7-4.9 3.8-25.1 18-15.3 5.1z" fill="#16a880"/><path d="m76.2 61.1 16.2-5.1 4.3-2.9 14.1-12.9-9.5 2.9z"/><path d="m36.9 64.7 21.1-5.1 2.9 6.5-12.4 8.1-12.5 3.8v-12.3z" fill="#76c39b"/><path d="m62.5 65.3-18.3 9.2 14.1-.9 24.2-6.9 20.2-13.9z" fill="#c5e4d3"/><path d="m84.5 65.4-2 1.3-24.2 6.9 16.2-1.2 4.5-.9 14.4-7.8z" fill="#99d5b5"/><path d="m88.8 88.1 6.3 5v3.2z"/><path d="m41.7 79 12-1.1 17.2 12.4 7.9 19.4-9.8 18.1 1.6-15.4-.4-.8-7.4-16.1-24.3-15.9z" fill="#c5e4d3"/><path d="m70.9 90.3 10.8 26.6v8.4l4.6-15.9v-11l-23.6-14.1z"/><path d="m62.5 118.6-3 7.7 12.6-17.2-7.7-16.9-1.8 2.8v23.6z" fill="#16a880"/><path d="m60.3 93.9-.9 13.9-6.5 6.2.3 4.8 5.6 2.2 3.7-7.1v-18.7z" fill="#76c39b"/><path d="m57.6 92.2 2 1.3-.9 4.7-3.3 7.1-9.3-3.7-.3-3.7.6-.2 2.9-2 1.8-4.3z" fill="#178d6d"/><path d="m38.5 79.6 19.1 12.5h-6.2l-11.5-9.6-10.6-2.9z"/><path d="m54.6 77.8 18.9-1.8 11-3.6h-10l-27.1 1.9-10.1.9-3 5.2 7.4-1.4z" fill="#178d6d"/><path d="m45.9 111.2v1.7l4-1.7.5.8-3.6 2-1.7 3.8 3.6-3.4.8.2-.8 9.6 4.4-5.5-.3-4.8.8-.6-2-4.8zm-1.5-19-5.7 2.7v1.7l3.9-1.8.6.8-3.7 2.1-1.5 3.7 3.5-3.3.8.1-.8 9.5 4.8-5.8-.4-4.4h.7z"/><path d="m33 69.9-7.8 3.3h7.8l-12.4 5-6.8 3.8-.5 1.4 11.1-3.8h10.3l1.3-2.3v-11.8l-12.5 3.1z" fill="#c5e4d3"/><path d="m13.9 82.1 6.8-3.8 12.4-5h-7.8l7.8-3.3-9.4-1.3-10.8 3.2-4.6 7.3z" fill="#1fa780"/><path d="m11.2 88-2.9-2.5v-6.4l5.6 3-1.3 3.5 1.4 2.4z"/><path d="m14.9 78.6-1.9-1.4-2.8 1.5" fill="none" stroke="#000" stroke-width=".3"/><path d="m62.6 74.4 21 13.7 7.4 10.2 2.6 9.3-7.2-9.1-33.8-20.2z" fill="#76c39b"/><path d="m78.1 78.3-5.2-2.4-6.8.7.8.6z" fill="#99d5b5"/><path d="m90 111.3-.1 8.2-2.4 1.6 1.3-6.6z" fill="#178d6d"/></svg>