<svg height="18" viewBox="0 0 18 18" width="18" xmlns="http://www.w3.org/2000/svg" xmlns:xlink="http://www.w3.org/1999/xlink"><radialGradient id="a" cx="3.117" cy="-116.12" gradientTransform="matrix(1.013 0 0 .789 5.844 100.656)" gradientUnits="userSpaceOnUse" r="9.022"><stop offset=".196" stop-color="#ffd70f"/><stop offset=".438" stop-color="#ffcb12"/><stop offset=".873" stop-color="#feac19"/><stop offset="1" stop-color="#fea11b"/></radialGradient><path d="m8.09 10.01h-4.626a.24.24 0 0 1 -.262-.2.2.2 0 0 1 .023-.085l5.55-9.605a.27.27 0 0 1 .239-.12h5.47a.24.24 0 0 1 .262.2.18.18 0 0 1 -.046.119l-6.514 7.515h6.35a.24.24 0 0 1 .262.2.19.19 0 0 1 -.067.137l-10.556 9.617c-.1.051-.8.562-.458-.214z" fill="url(#a)"/></svg>