<svg xmlns="http://www.w3.org/2000/svg" width="16" height="15" fill="none" viewBox="0 0 16 15">
  <defs>
    <mask id="ko">
      <rect width="16" height="15" fill="white"/>
      <path fill="black" d="M-.659-3.23C-.923-.908 1.08 1.228 3.814 1.538S8.978.217 9.242-2.107s-1.739-4.459-4.473-4.77S-.395-5.553-.659-3.23"/>
      <path fill="black" d="M9.882 4.366c.685 2.95 3.684 4.773 6.698 4.073s4.902-3.658 4.217-6.608S17.114-2.94 14.1-2.24 9.197 1.417 9.882 4.366"/>
      <path fill="black" d="M-8.053 6.345c.866 3.044 4.764 4.602 8.707 3.481s6.438-4.498 5.572-7.541-4.764-4.603-8.707-3.481S-8.918 3.3-8.053 6.345"/>
      <path fill="black" d="M-8.053 6.345c.866 3.044 4.764 4.602 8.707 3.481s6.438-4.498 5.572-7.541-4.764-4.603-8.707-3.481S-8.918 3.3-8.053 6.345"/>
      <path fill="black" d="M-4.924 8.867c2.17 2.217 5.907 2.077 8.347-.312S6.08 2.433 3.912.217s-5.907-2.076-8.347.312c-2.44 2.39-2.659 6.122-.489 8.338"/>
      <path fill="black" d="M6.428 17.226c.674 2.901 3.485 4.727 6.278 4.078 2.794-.649 4.512-3.526 3.838-6.427s-3.484-4.727-6.278-4.078-4.512 3.526-3.838 6.427"/>
      <path fill="black" d="M1.665-5.945C.255-2.803 1.798.952 5.113 2.44s7.146.146 8.557-2.996c1.41-3.143-.133-6.897-3.448-8.386s-7.146-.146-8.557 2.997"/>
      <path fill="black" d="M-2.114 24.39C-5.53 23.05.307 12.018 1.759 8.32 3.21 4.623 7.156 2.713 10.57 4.054c3.416 1.34 7.464 8.726 6.013 12.423S1.3 25.731-2.114 24.39"/>
      <path fill="black" d="M18.581 10.66c-.914 1.067-3.3.523-5.33-1.216-2.029-1.738-2.932-4.013-2.018-5.08s3.3-.523 5.33 1.215c2.029 1.739 2.933 4.013 2.018 5.08"/>
      <path fill="black" d="M11.755 5.227c3.761 2.544 8.092 2.711 9.674.373s-.186-6.295-3.947-8.84c-3.76-2.543-8.092-2.71-9.673-.373-1.582 2.338.185 6.296 3.946 8.84"/>
      <path fill="black" d="M-.592 1.089c-.932 2.248-.628 4.509.68 5.05 1.307.543 3.122-.84 4.053-3.088.932-2.247.628-4.509-.68-5.05C2.156-2.543.34-1.16-.591 1.088"/>
    </mask>
  </defs>
  <g>
    <path fill="currentColor" mask="url(#ko)" d="M14.078 13.984c.867.65 2.168.217.975-.976C11.476 9.54 12.235 0 7.79 0 3.346 0 4.105 9.54.527 13.008c-1.3 1.301.109 1.627.976.976 3.36-2.276 3.144-6.287 6.287-6.287 3.144 0 2.927 4.01 6.288 6.287"/>
  </g>
</svg>