<svg height="48" viewBox="0 0 48 48" width="48" xmlns="http://www.w3.org/2000/svg"><path d="m21.306 18.375c2.372.557 5.374.625 6.694.625s4.323-.068 6.695-.625l-5.695 11.389v3.236h-2v-3.236zm6.694-3.375c3.95 0 6.573.561 7.617 1-1.044.441-3.667 1-7.617 1-3.949 0-6.571-.559-7.616-1 1.045-.439 3.667-1 7.616-1m3 20v-4.764l6.642-13.284c.226-.278.358-.593.358-.952 0-2.783-7.654-3-10-3s-10 .217-10 3c0 .359.131.674.358.952l6.642 13.284v4.764zm-27-33h5v2h-3v40h3v2h-5zm12 40h24v-2h-24zm0-4h24v-2h-24zm0-26h24v-2h-24zm0-4h24v-2h-24zm-3 36h29v-40h-29zm-2 2h33v-44h-33z" fill="#8c4fff" fill-rule="evenodd"/></svg>