<svg xmlns="http://www.w3.org/2000/svg" width="18" height="18" viewBox="0 0 18 18"><defs><mask id="a"><path fill="#fff" d="M0 0h18v18H0z"/><path d="M7.185 9.142a3.04 3.04 0 0 1-1.631-.489l1.631 4.281 1.63-4.248a3.1 3.1 0 0 1-1.63.456" opacity=".8"/></mask></defs><g fill="currentColor" mask="url(#a)"><path d="M16.235 12.663a3.93 3.93 0 0 0-2.49-3.53 2.045 2.045 0 1 0-2.295-.017c-1.483.423-2.3 1.712-2.49 3.547a.66.66 0 0 0 .587.717l6.053.032a.644.644 0 0 0 .652-.635v-.008a.2.2 0 0 0-.017-.106"/><path d="M14.524 13.255C14.275 11.247 13.3 9.54 11.5 8.966a2.485 2.485 0 1 0-2.789-.021c-1.8.514-2.8 2.081-3.025 4.31a.8.8 0 0 0 .713.872l7.355.039a.78.78 0 0 0 .792-.772v-.01a.3.3 0 0 0-.022-.129"/><path d="M11.6 15.029a.97.97 0 0 0 .97-.97.5.5 0 0 0 0-.114c-.383-3.05-2.12-5.528-5.43-5.528s-5.121 2.1-5.479 5.5a.977.977 0 0 0 .872 1.068z"/></g><circle cx="7.16" cy="6.085" r="3.058" fill="currentColor"/><path fill="currentColor" d="M1.715 0h2.086v.604H1.715zm15.364.604h.339v.328H18V0h-.921zM.964 17.354H.667v-.339H0V18h.964zm16.454-.307v.307h-.339V18H18v-.953zM.667.911V.604h.297V0H0v.911zM4.839 0h2.086v.604H4.839zm3.113 0h2.086v.604H7.952zm3.123 0h2.086v.604h-2.086zm3.124 0h2.086v.604h-2.086zM1.736 17.354h2.086v.604H1.736zm3.113 0h2.086v.604H4.849zm3.124 0h2.086v.604H7.973zm3.123 0h2.086v.604h-2.086zm3.113 0h2.086v.604h-2.086zm3.187-15.713H18v2.086h-.604zm0 3.113H18V6.84h-.604zm0 3.124H18v2.086h-.604zm0 3.113H18v2.086h-.604zm0 3.123H18V16.2h-.604zM0 1.62h.604v2.086H0zm0 3.124h.604V6.83H0zm0 3.112h.604v2.086H0zm0 3.124h.604v2.086H0zm0 3.113h.604v2.086H0z"/></svg>