<svg height="18" viewBox="0 0 18 18" width="18" xmlns="http://www.w3.org/2000/svg" xmlns:xlink="http://www.w3.org/1999/xlink"><linearGradient id="a" gradientUnits="userSpaceOnUse" x1="9.282" x2="16.974" y1="12.079" y2="7.637"><stop offset=".384" stop-color="#005ba1"/><stop offset=".829" stop-color="#0078d4"/></linearGradient><linearGradient id="b" gradientUnits="userSpaceOnUse" x1="5.573" x2="14.846" y1="12.94" y2="7.422"><stop offset=".392" stop-color="#0078d4"/><stop offset=".961" stop-color="#5ea0ef"/></linearGradient><linearGradient id="c" gradientTransform="matrix(1 0 0 -1 0 791.516)" gradientUnits="userSpaceOnUse" x1="7.118" x2="7.118" y1="784.39" y2="775.34"><stop offset="0" stop-color="#83b9f9"/><stop offset="1" stop-color="#5ea0ef"/></linearGradient><linearGradient id="d" gradientTransform="matrix(1 0 0 -1 0 791.516)" gradientUnits="userSpaceOnUse" x1="6.919" x2="7.502" y1="788.428" y2="781.18"><stop offset="0" stop-color="#83b9f9"/><stop offset=".9" stop-color="#5ea0ef"/></linearGradient><path d="m16.235 12.663a3.93 3.93 0 0 0 -2.49-3.53 2.045 2.045 0 1 0 -2.295-.017c-1.483.423-2.3 1.712-2.49 3.547a.66.66 0 0 0 .587.717l6.053.032a.644.644 0 0 0 .652-.635v-.008a.2.2 0 0 0 -.017-.106" fill="url(#a)"/><path d="m14.524 13.255c-.249-2.008-1.224-3.715-3.024-4.289a2.485 2.485 0 1 0 -2.789-.021c-1.8.514-2.8 2.081-3.025 4.31a.8.8 0 0 0 .713.872l7.355.039a.78.78 0 0 0 .792-.772v-.01a.3.3 0 0 0 -.022-.129" fill="url(#b)"/><path d="m11.6 15.029a.97.97 0 0 0 .97-.97.5.5 0 0 0 0-.114c-.383-3.05-2.12-5.528-5.43-5.528s-5.121 2.1-5.479 5.5a.977.977 0 0 0 .872 1.068z" fill="url(#c)"/><path d="m7.185 9.142a3.04 3.04 0 0 1 -1.631-.489l1.631 4.281 1.63-4.248a3.1 3.1 0 0 1 -1.63.456" fill="#fff" opacity=".8"/><circle cx="7.16" cy="6.085" fill="url(#d)" r="3.058"/><path d="m1.715 0h2.086v.604h-2.086zm15.364.604h.339v.328h.582v-.932h-.921zm-16.115 16.75h-.297v-.339h-.667v.985h.964zm16.454-.307v.307h-.339v.646h.921v-.953zm-16.751-16.136v-.307h.297v-.604h-.964v.911zm4.172-.911h2.086v.604h-2.086zm3.113 0h2.086v.604h-2.086zm3.123 0h2.086v.604h-2.086zm3.124 0h2.086v.604h-2.086zm-12.463 17.354h2.086v.604h-2.086zm3.113 0h2.086v.604h-2.086zm3.124 0h2.086v.604h-2.086zm3.123 0h2.086v.604h-2.086zm3.113 0h2.086v.604h-2.086zm3.187-15.713h.604v2.086h-.604zm0 3.113h.604v2.086h-.604zm0 3.124h.604v2.086h-.604zm0 3.113h.604v2.086h-.604zm0 3.123h.604v2.086h-.604zm-17.396-12.494h.604v2.086h-.604zm0 3.124h.604v2.086h-.604zm0 3.112h.604v2.086h-.604zm0 3.124h.604v2.086h-.604zm0 3.113h.604v2.086h-.604z" fill="#0078d4"/></svg>