<svg viewBox="0 0 128 128" xmlns="http://www.w3.org/2000/svg" xmlns:xlink="http://www.w3.org/1999/xlink"><linearGradient id="a"><stop offset="0" stop-color="#fff"/><stop offset="1" stop-color="#439246"/></linearGradient><linearGradient id="b" gradientUnits="userSpaceOnUse" x1="96.923395" x2="69.902123" xlink:href="#a" y1="43.151275" y2="82.238569"/><linearGradient id="c" gradientUnits="userSpaceOnUse" x1="95.235571" x2="60.003743" xlink:href="#a" y1="57.463741" y2="120.926083"/><linearGradient id="d" gradientUnits="userSpaceOnUse" x1="18.629573" x2="49.473307" xlink:href="#a" y1="63.610209" y2="113.560059"/><linearGradient id="e" gradientUnits="userSpaceOnUse" x1="29.107201" x2="67.445681" xlink:href="#a" y1="86.646055" y2="160.177993"/><path clip-rule="evenodd" d="m62.72 1.58a2.94 2.94 0 0 1 2.56 0l48.958 23.67a2.96 2.96 0 0 1 1.596 2.008l12.092 53.184c.2.88-.01 1.801-.57 2.506l-33.88 42.65a2.95 2.95 0 0 1 -2.306 1.115h-54.34c-.898 0-1.746-.41-2.306-1.115l-33.88-42.65a2.97 2.97 0 0 1 -.57-2.506l12.092-53.184a2.96 2.96 0 0 1 1.596-2.009z" fill="#009f76" fill-rule="evenodd"/><path d="m45.023 37.91-40.957 24.975-3.992 17.558c-.2.88.01 1.802.57 2.506l33.88 42.649a2.95 2.95 0 0 0 2.306 1.115h11.941l44.405-39.318z" fill="#007155"/><g clip-rule="evenodd" fill-rule="evenodd"><path d="m81.62 36.192c.205.516.315 1.074.315 1.646v20.58a4.45 4.45 0 0 1 -2.001 3.716l-14.884 9.782a4.41 4.41 0 0 1 -4.847 0l-14.884-9.782a4.44 4.44 0 0 1 -1.938-2.972z" fill="url(#b)"/><path d="m81.822 62.13a4.4 4.4 0 0 1 -1.4 1.48l-14.882 9.782a4.41 4.41 0 0 1 -4.847 0l-14.885-9.782a4.45 4.45 0 0 1 -2-3.717v-20.579c0-.573.11-1.132.315-1.649z" fill="url(#c)"/><path d="m33.93 51.92a4.45 4.45 0 0 0 -.447 1.946v30.407c0 1.586.843 3.053 2.212 3.847l26.23 15.203a4.41 4.41 0 0 0 4.426 0l26.229-15.203a4.44 4.44 0 0 0 1.97-2.398z" fill="url(#d)"/><path d="m34.222 86.73a4.4 4.4 0 0 0 1.473 1.39l26.23 15.203a4.41 4.41 0 0 0 4.426 0l26.229-15.203a4.45 4.45 0 0 0 2.213-3.847v-30.408c0-.564-.107-1.114-.306-1.623z" fill="url(#e)"/></g></svg>