<svg xmlns="http://www.w3.org/2000/svg" xmlns:xlink="http://www.w3.org/1999/xlink" viewBox="0 0 128 128"><linearGradient id="a"><stop offset="0" stop-color="#fff"/><stop offset="1" stop-color="#439246"/></linearGradient><linearGradient xlink:href="#a" id="b" x1="96.923" x2="69.902" y1="43.151" y2="82.239" gradientUnits="userSpaceOnUse"/><linearGradient xlink:href="#a" id="c" x1="95.236" x2="60.004" y1="57.464" y2="120.926" gradientUnits="userSpaceOnUse"/><linearGradient xlink:href="#a" id="d" x1="18.63" x2="49.473" y1="63.61" y2="113.56" gradientUnits="userSpaceOnUse"/><linearGradient xlink:href="#a" id="e" x1="29.107" x2="67.446" y1="86.646" y2="160.178" gradientUnits="userSpaceOnUse"/><path fill="#009f76" fill-rule="evenodd" d="M62.72 1.58a2.94 2.94 0 0 1 2.56 0l48.958 23.67a2.96 2.96 0 0 1 1.596 2.008l12.092 53.184c.2.88-.01 1.801-.57 2.506l-33.88 42.65a2.95 2.95 0 0 1-2.306 1.115H36.83c-.898 0-1.746-.41-2.306-1.115L.644 82.948a2.97 2.97 0 0 1-.57-2.506l12.092-53.184a2.96 2.96 0 0 1 1.596-2.009z" clip-rule="evenodd"/><path fill="#007155" d="M45.023 37.91 4.066 62.885.074 80.443c-.2.88.01 1.802.57 2.506l33.88 42.649a2.95 2.95 0 0 0 2.306 1.115h11.941l44.405-39.318z"/><g fill-rule="evenodd" clip-rule="evenodd"><path fill="url(#b)" d="M81.62 36.192c.205.516.315 1.074.315 1.646v20.58a4.45 4.45 0 0 1-2.001 3.716L65.05 71.916a4.41 4.41 0 0 1-4.847 0l-14.884-9.782a4.44 4.44 0 0 1-1.938-2.972z"/><path fill="url(#c)" d="M81.822 62.13a4.4 4.4 0 0 1-1.4 1.48L65.54 73.392a4.41 4.41 0 0 1-4.847 0L45.808 63.61a4.45 4.45 0 0 1-2-3.717V39.314c0-.573.11-1.132.315-1.649z"/><path fill="url(#d)" d="M33.93 51.92a4.45 4.45 0 0 0-.447 1.946v30.407c0 1.586.843 3.053 2.212 3.847l26.23 15.203a4.41 4.41 0 0 0 4.426 0L92.58 88.12a4.44 4.44 0 0 0 1.97-2.398z"/><path fill="url(#e)" d="M34.222 86.73a4.4 4.4 0 0 0 1.473 1.39l26.23 15.203a4.41 4.41 0 0 0 4.426 0L92.58 88.12a4.45 4.45 0 0 0 2.213-3.847V53.865c0-.564-.107-1.114-.306-1.623z"/></g></svg>