<svg height="18" viewBox="0 0 18 18" width="18" xmlns="http://www.w3.org/2000/svg" xmlns:xlink="http://www.w3.org/1999/xlink"><linearGradient id="a"><stop offset="0" stop-color="#50e6ff"/><stop offset="1" stop-color="#32bedd"/></linearGradient><linearGradient id="b" gradientUnits="userSpaceOnUse" x1="9.024" x2="8.899" xlink:href="#a" y1="2.162" y2="19.749"/><linearGradient id="c" gradientTransform="matrix(1 0 0 -1 617.126 -205.758)" gradientUnits="userSpaceOnUse" x1="-607.938" x2="-607.938" y1="-219.555" y2="-208.054"><stop offset=".001" stop-color="#a33a85"/><stop offset="1" stop-color="#ce74b6"/></linearGradient><linearGradient id="d" gradientUnits="userSpaceOnUse" x1="2.017" x2="2.017" xlink:href="#a" y1=".148" y2="2.953"/><linearGradient id="e" gradientUnits="userSpaceOnUse" x1="1.402" x2="1.402" xlink:href="#a" y1="15.047" y2="17.852"/><linearGradient id="f" gradientUnits="userSpaceOnUse" x1="16.598" x2="16.598" xlink:href="#a" y1="14.597" y2="17.402"/><path d="m16.848 15.585-14.432-14.433-.797.796 6.771 6.772-7.384 7.33.793.799 7.388-7.333 6.865 6.865z" fill="url(#b)"/><path d="m17.291 10.195a3.64 3.64 0 0 0 -3.156-3.501 4.59 4.59 0 0 0 -4.729-4.396 4.71 4.71 0 0 0 -4.499 3.076 4.34 4.34 0 0 0 -3.822 4.178 4.41 4.41 0 0 0 4.573 4.236h7.801a.6.6 0 0 0 .195 0 3.685 3.685 0 0 0 3.639-3.593z" fill="url(#c)"/><path d="m1.568 2.878a1.403 1.403 0 0 0 .9-2.656 1.404 1.404 0 0 0 -.901 2.657z" fill="url(#d)"/><path d="m.953 17.778a1.403 1.403 0 0 0 .9-2.656 1.403 1.403 0 0 0 -.9 2.656" fill="url(#e)"/><path d="m16.148 17.328a1.403 1.403 0 0 0 .9-2.656 1.403 1.403 0 0 0 -.9 2.656" fill="url(#f)"/></svg>