<svg viewBox="0 0 24 24" xmlns="http://www.w3.org/2000/svg"><path d="m24 11.498h-1.008v3.01h1.008zm-3.024 0h2.016v-1.004h-2.016v-2.007h-1.008v7.025h3.024v-1.004h-2.016zm-2.986 3.01h-2.016v1.004h3.024v-5.017h-1.008zm-2.016-4.013h-1.008v4.014h1.008zm-2.985 1.003h-2.016v-3.01h-1.008v7.024h1.008v-3.01h2.016v3.01h1.008v-7.024h-1.008zm-11.981 0h-1.008v3.01h1.008zm2.016-1.003h-2.016v1.003h2.016v3.01h-2.016v1.004h3.024v-7.024h-1.008zm1.976 5.017h1.01v-7.024h-1.009zm2.986-7.024h-1.006v6.02h1.008v-3.01h1.008v-1.003h-1.009zm1.008 6.02h-1.007v1.004h1.008z"/></svg>