<svg height="48" viewBox="0 0 48 48" width="48" xmlns="http://www.w3.org/2000/svg"><path d="m32.228 25.465a2.49 2.49 0 0 0 -2.486-2.485 2.49 2.49 0 0 0 -2.486 2.485 2.49 2.49 0 0 0 2.486 2.484 2.487 2.487 0 0 0 2.485-2.484m2 0a4.49 4.49 0 0 1 -4.486 4.484 4.49 4.49 0 0 1 -4.486-4.484 4.49 4.49 0 0 1 4.486-4.485 4.49 4.49 0 0 1 4.485 4.485m-3.775-9.562-2.163-3.957-2.258 3.957zm2.564.52a.997.997 0 0 1 -.878 1.48h-7.827a1 1 0 0 1 -.863-.498 1 1 0 0 1 -.005-.997l3.998-7.008c.18-.315.532-.535.878-.505a1 1 0 0 1 .867.52zm-17.833 6.585h4.063v-4.063h-4.063zm5.063-6.063a1 1 0 0 1 1 1v6.064a1 1 0 0 1 -1 1h-6.065a1 1 0 0 1 -1-1v-6.064a1 1 0 0 1 1-1zm5.009 25.495v-12.214h-2v12.294l-3.244-3.244-1.415 1.414 4.912 4.91a1.003 1.003 0 0 0 1.413 0l4.921-4.921-1.413-1.414zm14.214-33.746v14.234c0 8.474-4.602 13.95-12.387 15.025v-1.98c6.787-.938 10.387-5.571 10.387-13.045v-14.234l-13.25-4.697-13.252 4.745.034 14.186c0 7.474 3.6 12.107 10.388 13.045v1.98c-7.788-1.075-12.389-6.551-12.389-15.025v-14.234c0-.824.521-1.561 1.297-1.835l13.284-4.745a1.94 1.94 0 0 1 1.312 0l13.281 4.746a1.95 1.95 0 0 1 1.294 1.834" fill="#7aa116" fill-rule="evenodd"/></svg>