<svg viewBox="0 0 24 24" xmlns="http://www.w3.org/2000/svg" fill="#5A17EE"><path d="m20.848 15.852-3.882-2.034h-15.996v-6.303h22.06v6.303h-2.182zm-20.848-9.307v8.243h16.727l5.091 2.667v-2.667h2.182v-8.243zm1.94 1.94h4.12v2.18l-1.33.517 1.362 1.666h-1.252l-1.06-1.296-.87.339v.957h-.97zm6.06 4.363h-.97v-4.363h4.364v4.363h-.97v-1.454h-2.424zm4.364-1.696v-2.667h4.363v.97h-3.394v.727h3.394v2.666h-4.363v-.97h3.394v-.726zm5.333-.243v-2.424h4.364v4.363h-.97v-1.454h-2.424v1.454h-.97v-1.938zm-14.788-.06 2.182-.848v-.546h-2.182v1.395zm5.091-1.393v.97h2.424v-.97zm13.09.97v-.97h-2.423v.97h2.424z"/></svg>