<svg height="18" viewBox="0 0 18 18" width="18" xmlns="http://www.w3.org/2000/svg" xmlns:xlink="http://www.w3.org/1999/xlink"><linearGradient id="a"><stop offset="0" stop-color="#773adc"/><stop offset="1" stop-color="#b77af4"/></linearGradient><linearGradient id="b" gradientUnits="userSpaceOnUse" x1="8.22" x2="8.22" xlink:href="#a" y1="8.09" y2="4.71"/><linearGradient id="c" gradientUnits="userSpaceOnUse" x1="2.36" x2="2.36" xlink:href="#a" y1="12.63" y2="9.25"/><linearGradient id="d" gradientUnits="userSpaceOnUse" x1="8.22" x2="8.22" xlink:href="#a" y1="17.5" y2="14.12"/><linearGradient id="e" gradientUnits="userSpaceOnUse" x1="14.08" x2="14.08" y1=".5" y2="11.54"><stop offset="0" stop-color="#b77af4"/><stop offset=".62" stop-color="#8c4fe4"/><stop offset="1" stop-color="#773adc"/></linearGradient><circle cx="14.08" cy="10.94" fill="#9cebff" r="1.34"/><path d="m14.08 8.56a2.36 2.36 0 0 0 -1.41.44l-4.45-3.13-7.14 5.07 7.14 5.42 4.53-3.44a2.4 2.4 0 0 0 1.33.4 2.38 2.38 0 1 0 0-4.76m-5.86 6.5-5.39-4.06 5.39-3.86 3.78 2.68a2.3 2.3 0 0 0 -.28 1.12 2.4 2.4 0 0 0 .28 1.22zm5.86-2.75a1.35 1.35 0 1 1 0-2.69 1.35 1.35 0 0 1 0 2.69" fill="#50e6ff"/><circle cx="8.22" cy="6.4" fill="url(#b)" r="1.69"/><circle cx="2.36" cy="10.94" fill="url(#c)" r="1.69"/><circle cx="8.22" cy="15.81" fill="url(#d)" r="1.69"/><path d="m14.08.5a3.35 3.35 0 0 0 -3.25 3.5c0 1.53 1.94 5.11 2.82 7.25a.46.46 0 0 0 .85 0c.89-2.16 2.83-5.77 2.83-7.25a3.4 3.4 0 0 0 -3.25-3.5m0 4.74a1.45 1.45 0 1 1 1.44-1.44 1.44 1.44 0 0 1 -1.44 1.44" fill="url(#e)"/></svg>