<svg xmlns="http://www.w3.org/2000/svg" width="18" height="18" viewBox="0 0 18 18"><defs><mask id="a"><path fill="#fff" d="M0 0h18v18H0z"/><path d="M11.89 9 9.06 6.12a.15.15 0 0 0-.21 0L6 9a.14.14 0 0 0 .11.24h1.67a.15.15 0 0 1 .15.15V12a.15.15 0 0 0 .14.15h1.76A.15.15 0 0 0 10 12V9.35a.15.15 0 0 1 .14-.15h1.67a.14.14 0 0 0 .08-.2"/><path d="m8.1 16.3-1.41-1.41 1.38-1.38a.1.1 0 0 0 0-.14l-.22-.22a.12.12 0 0 0-.14 0l-1.6 1.6a.22.22 0 0 0 0 .22.2.2 0 0 0 0 .07l1.62 1.62a.1.1 0 0 0 .14 0l.22-.22a.1.1 0 0 0 .01-.14m3.9-1.55-1.59-1.6a.12.12 0 0 0-.14 0l-.22.22a.1.1 0 0 0 0 .14l1.37 1.38L10 16.3a.1.1 0 0 0 0 .14l.22.22a.1.1 0 0 0 .14 0L12 15a.2.2 0 0 0 0-.25"/></mask></defs><g fill="currentColor" mask="url(#a)"><path d="M15.43 3.76v7.48L9 15V7.51z"/><path d="M15.43 3.76 9 7.52 2.57 3.76 9 0z"/><path d="M9 7.52V15l-6.43-3.76V3.76z"/><rect width="7.02" height="6.19" x="5.41" y="11.81" rx=".37"/></g></svg>