<svg height="18" viewBox="0 0 18 18" width="18" xmlns="http://www.w3.org/2000/svg" xmlns:xlink="http://www.w3.org/1999/xlink"><linearGradient id="a" gradientUnits="userSpaceOnUse" x1="9" x2="9" y1="19.85" y2="-1.02"><stop offset="0" stop-color="#5e9624"/><stop offset=".02" stop-color="#5f9724"/><stop offset="1" stop-color="#76bc2d"/></linearGradient><path d="m.18 8.57 8.39-8.39a.6.6 0 0 1 .86 0l8.39 8.39a.6.6 0 0 1 0 .86l-8.4 8.4a.6.6 0 0 1 -.84 0l-8.4-8.4a.6.6 0 0 1 0-.86" fill="url(#a)"/><path d="m11.2 4-2.12-2.11a.12.12 0 0 0 -.16 0l-2.12 2.11a.1.1 0 0 0 .08.18h1.24a.11.11 0 0 1 .11.11v2a.11.11 0 0 0 .11.11h1.32a.11.11 0 0 0 .11-.11v-2a.11.11 0 0 1 .11-.11h1.24a.1.1 0 0 0 .08-.18m-7.2 2.61-2.1 2.13a.11.11 0 0 0 0 .15l2.1 2.11a.11.11 0 0 0 .19-.08v-1.23a.11.11 0 0 1 .11-.11h2a.1.1 0 0 0 .1-.11v-1.32a.1.1 0 0 0 -.07-.15h-2a.1.1 0 0 1 -.11-.1v-1.21a.11.11 0 0 0 -.22-.08m10.08 4.39 2.13-2.12a.11.11 0 0 0 0-.15l-2.13-2.12a.11.11 0 0 0 -.18.08v1.25a.1.1 0 0 1 -.11.1h-2a.1.1 0 0 0 -.1.11v1.32a.1.1 0 0 0 .1.11h2a.11.11 0 0 1 .11.11v1.24a.11.11 0 0 0 .18.07" fill="#b4ec36"/><path d="m11.79 9a2.79 2.79 0 1 0 -3.54 2.67v.95a1.71 1.71 0 1 0 1.57 0v-1a2.77 2.77 0 0 0 1.97-2.62" fill="#fff"/><circle cx="9.01" cy="8.99" fill="#5ea0ef" r="1.62"/></svg>