<svg height="64" viewBox="0 0 64 64" width="64" xmlns="http://www.w3.org/2000/svg"><g fill="none" fill-rule="evenodd"><path d="m0 0h64v64h-64z" fill="#ed7100"/><path d="m29.998 34.026h1v-1h-1zm-1 2h3a1 1 0 0 0 1-1v-3a1 1 0 0 0 -1-1h-3a1 1 0 0 0 -1 1v3a1 1 0 0 0 1 1m8-2h1v-1h-1zm-1 2h3a1 1 0 0 0 1-1v-3a1 1 0 0 0 -1-1h-3a1 1 0 0 0 -1 1v3a1 1 0 0 0 1 1m-6-10h1v-1h-1zm-1 2h3a1 1 0 0 0 1-1v-3a1 1 0 0 0 -1-1h-3a1 1 0 0 0 -1 1v3a1 1 0 0 0 1 1m8-2h1v-1h-1zm-1 2h3a1 1 0 0 0 1-1v-3a1 1 0 0 0 -1-1h-3a1 1 0 0 0 -1 1v3a1 1 0 0 0 1 1m-10 14h16v-21h-16zm-6.998-.197-17-10.39v-19.883l14-8.75v6.64l-7.53 4.708a1 1 0 0 0 -.47.846v13c0 .35.185.676.485.857l10 6c.305.182.683.19.994.02l4.519-2.464v6.36zm11.485-27.702-8.485-4.715v-6.663l15 8.823v7.454h-6v-4.026a1 1 0 0 0 -.515-.874m12.513 4.899h-3.998v-8.025a1 1 0 0 0 -.493-.862l-17-10a.999.999 0 0 0 -1.507.862v9a1 1 0 0 0 .515.874l8.485 4.715v3.437h-4.002a1 1 0 0 0 -1 1v6.778l-4.347-5.462 5.058-6.342h-2.246l-4.463 5.24v-5.24h-2v13h2v-6l4.752 6.02h1.246v2.115l-4.974 2.713-9.024-5.414v-11.88l7.53-4.705c.292-.183.47-.504.47-.848v-9.001a1 1 0 0 0 -1.53-.848l-16 10a1 1 0 0 0 -.47.848v21c0 .348.182.67.479.853l18 11a1 1 0 0 0 1.043 0l4.476-2.735v1.907a1 1 0 0 0 1 1h18a1 1 0 0 0 1-1v-23a1 1 0 0 0 -1-1" fill="#fff" transform="translate(10 10)"/></g></svg>