<svg xmlns="http://www.w3.org/2000/svg" width="64" height="64" viewBox="0 0 64 64"><title>Icon-Architecture/48/Arch_Amazon-EKS-Anywhere_48</title><g id="Icon-Architecture/48/Arch_Amazon-EKS-Anywhere_48" fill="none" fill-rule="evenodd" stroke="none" stroke-width="1"><g id="Icon-Architecture-BG/48/Containers" fill="#ed7100"><path id="Rectangle" d="M0 0h64v64H0z"/></g><g id="Icon-Service/48/Amazon-EKS-Anywhere_48" fill="#fff" transform="translate(10 10)"><path id="Fill-3" d="M29.998 34.026h1v-1h-1zm-1 2h3a1 1 0 0 0 1-1v-3a1 1 0 0 0-1-1h-3a1 1 0 0 0-1 1v3a1 1 0 0 0 1 1m8-2h1v-1h-1zm-1 2h3a1 1 0 0 0 1-1v-3a1 1 0 0 0-1-1h-3a1 1 0 0 0-1 1v3a1 1 0 0 0 1 1m-6-10h1v-1h-1zm-1 2h3a1 1 0 0 0 1-1v-3a1 1 0 0 0-1-1h-3a1 1 0 0 0-1 1v3a1 1 0 0 0 1 1m8-2h1v-1h-1zm-1 2h3a1 1 0 0 0 1-1v-3a1 1 0 0 0-1-1h-3a1 1 0 0 0-1 1v3a1 1 0 0 0 1 1m-10 14h16v-21h-16zM19 41.829 2 31.439V11.556l14-8.75v6.64l-7.53 4.708A1 1 0 0 0 8 15v13c0 .35.185.676.485.857l10 6c.305.182.683.19.994.02l4.519-2.464v6.36zm11.485-27.702L22 9.412V2.749l15 8.823v7.454h-6V15a1 1 0 0 0-.515-.874m12.513 4.899H39V11a1 1 0 0 0-.493-.862l-17-10A.999.999 0 0 0 20 1v9a1 1 0 0 0 .515.874L29 15.589v3.437h-4.002a1 1 0 0 0-1 1v6.778l-4.347-5.462L24.709 15h-2.246L18 20.24v-5.24h-2v13h2v-6l4.752 6.02h1.246v2.115l-4.974 2.713L10 27.434v-11.88l7.53-4.705c.292-.183.47-.504.47-.848V1a1 1 0 0 0-1.53-.848l-16 10A1 1 0 0 0 0 11v21c0 .348.182.67.479.853l18 11a1 1 0 0 0 1.043 0l4.476-2.735v1.907a1 1 0 0 0 1 1h18a1 1 0 0 0 1-1v-23a1 1 0 0 0-1-1"/></g></g></svg>