<svg height="18" viewBox="0 0 18 18" width="18" xmlns="http://www.w3.org/2000/svg"><path d="m16.41 4.004v7.967l-6.885 4.003v-7.979z" fill="#32bedd"/><path d="m16.41 4.004-6.884 4.002-6.886-4.003 6.886-4.003z" fill="#9cebff"/><path d="m9.525 8.006v7.968l-6.885-4.003v-7.968z" fill="#50e6ff"/><path d="m2.64 11.971 6.885-3.976v7.979z" fill="#9cebff"/><path d="m16.41 11.971-6.885-3.976v7.979z" fill="#50e6ff"/><path d="m13.087 14.679-3.334 3.273a.168.168 0 0 1 -.286-.122l.017-1.82v-.11c-3.975-.037-7.931-2.2-7.895-6.023.56.857 3.378 3.152 7.921 3.2v-.033l.017-1.819a.168.168 0 0 1 .288-.117l3.272 3.335a.167.167 0 0 1 0 .236" fill="#773adc"/>​</svg>