<svg viewBox="0 0 24 24" xmlns="http://www.w3.org/2000/svg"><path d="m4.421.01a2.947 2.947 0 0 0 -2.828 1.52 2.967 2.967 0 0 0 1.094 4.076l10.6 6.064 4.79-2.672a3.546 3.546 0 0 1 1.811-.443l-14.187-8.131a2.947 2.947 0 0 0 -1.281-.414zm-3.257 4.758v14.484a3.474 3.474 0 0 1 2.972-1.687 3.47 3.47 0 0 1 2.961 1.672l.004-10.53-4.661-2.667a3.433 3.433 0 0 1 -1.275-1.271zm18.42 4.289a3.08 3.08 0 0 0 -1.264.379l-10.72 5.978c.003 1.873-.011 3.745.003 5.617 0 .4-.072.988-.396 1.606l12.548-7.227 1.487-.83a2.978 2.978 0 0 0 1.463-3.511 3.08 3.08 0 0 0 -3.121-2.012zm-15.448 9.008a2.967 2.967 0 1 0 -.002 5.935 2.967 2.967 0 0 0 .002-5.935z"/></svg>