<svg height="40" viewBox="0 0 40 40" width="40" xmlns="http://www.w3.org/2000/svg"><g fill="none" fill-rule="evenodd"><path d="m0 0h40v40h-40z" fill="#e7157b"/><path d="m24.5 22c1.93 0 3.5 1.57 3.5 3.5s-1.57 3.5-3.5 3.5-3.5-1.57-3.5-3.5 1.57-3.5 3.5-3.5m0 8c2.481 0 4.5-2.019 4.5-4.5s-2.019-4.5-4.5-4.5a4.505 4.505 0 0 0 -4.5 4.5c0 2.481 2.019 4.5 4.5 4.5m1.523-19.12 3.061 6.12h-6.121zm-3.869 7.12h7.739a.502.502 0 0 0 .447-.724l-3.869-7.738c-.17-.338-.725-.338-.895 0l-3.869 7.738a.503.503 0 0 0 .447.724m-11.154 5h7v-7h-7zm-.5 1h8a.5.5 0 0 0 .5-.5v-8a.5.5 0 0 0 -.5-.5h-8a.5.5 0 0 0 -.5.5v8a.5.5 0 0 0 .5.5m-2.5 8h24v-24h-24zm24.5-25h-25a.5.5 0 0 0 -.5.5v25a.5.5 0 0 0 .5.5h25a.5.5 0 0 0 .5-.5v-25a.5.5 0 0 0 -.5-.5" fill="#fff"/></g></svg>