<svg xmlns="http://www.w3.org/2000/svg" fill="none" viewBox="0 0 54 96"><path fill="currentColor" d="M6.727 2.164C3.402 1.094 0 3.574 0 7.067v18.07a10.3 10.3 0 0 0 7.367 9.874l45.686 13.567V24.574a10.3 10.3 0 0 0-7.146-9.805z"/><path fill="currentColor" d="M7.34 39.159A10.3 10.3 0 0 0 0 49.024V75.18l46.155-16.154a10.3 10.3 0 0 0 6.898-9.721v-23.86z" opacity=".75"/><path fill="currentColor" d="M0 48.58v25.668a10.3 10.3 0 0 0 7.709 9.968l38.898 10.11c3.262.847 6.446-1.615 6.446-4.985V72.333a10.3 10.3 0 0 0-7.306-9.855z"/></svg>