<svg fill="none" viewBox="0 0 54 96" xmlns="http://www.w3.org/2000/svg" xmlns:xlink="http://www.w3.org/1999/xlink"><linearGradient id="a" gradientUnits="userSpaceOnUse" x1="53.052" x2=".162" y1="31.637" y2="15.414"><stop offset="0" stop-color="#7b65e8"/><stop offset="1" stop-color="#5e44dd"/></linearGradient><linearGradient id="b" gradientUnits="userSpaceOnUse" x1="53.053" x2="-.923" y1="42.068" y2="45.42"><stop offset="0" stop-color="#6b4fe8"/><stop offset=".339" stop-color="#8e31f1"/><stop offset=".54" stop-color="#a02af9"/><stop offset=".754" stop-color="#ab26fe"/><stop offset="1" stop-color="#ae25ff"/></linearGradient><linearGradient id="c" gradientUnits="userSpaceOnUse" x1="0" x2="52.68" y1="64.369" y2="82.804"><stop offset="0" stop-color="#9a2df6"/><stop offset="1" stop-color="#7b4fd9"/></linearGradient><path d="m6.727 2.164c-3.325-1.07-6.727 1.41-6.727 4.903v18.07a10.3 10.3 0 0 0 7.367 9.874l45.686 13.567v-24.004a10.3 10.3 0 0 0 -7.146-9.805z" fill="url(#a)"/><path d="m7.34 39.159a10.3 10.3 0 0 0 -7.34 9.865v26.156l46.155-16.154a10.3 10.3 0 0 0 6.898-9.721v-23.86z" fill="url(#b)" opacity=".75"/><path d="m0 48.58v25.668a10.3 10.3 0 0 0 7.709 9.968l38.898 10.11c3.262.847 6.446-1.615 6.446-4.985v-17.008a10.3 10.3 0 0 0 -7.306-9.855z" fill="url(#c)"/></svg>