<svg viewBox="0 0 128 128" xmlns="http://www.w3.org/2000/svg"><path d="m105.085 59.84a3.54 3.54 0 0 0 -3.54 3.54v1.34a3.54 3.54 0 0 0 3.54 3.54h19.38a3.54 3.54 0 0 0 3.54-3.54v-1.34a3.54 3.54 0 0 0 -3.54-3.54zm-101.55-18.04a3.54 3.54 0 0 0 -3.54 3.54v1.35a3.54 3.54 0 0 0 3.54 3.54h19.38a3.54 3.54 0 0 0 3.54-3.54v-1.35a3.54 3.54 0 0 0 -3.54-3.54zm0 36.07a3.54 3.54 0 0 0 -3.54 3.54v1.34a3.54 3.54 0 0 0 3.54 3.54h19.38a3.54 3.54 0 0 0 3.54-3.54v-1.34a3.54 3.54 0 0 0 -3.54-3.54z" fill="#bec7cc" opacity=".998"/><path d="m29.755 22.46c-4.42-.09-8.06 2.99-8.06 6.82v69.43c0 5.25 6.56 8.53 11.81 5.91l69.49-34.72c5.25-2.62 5.25-9.18 0-11.8l-69.49-34.72a8.856 8.856 0 0 0 -3.75-.91z" fill="#ffd500" opacity=".998"/><path d="m64.535 67.07h-11.95v11.99h-6.15v-11.98h-11.95v-6.08h11.95v-11.98h6.15v11.99h11.95z" fill="#727b84" opacity=".998"/></svg>