<svg height="64" viewBox="0 0 64 64" width="64" xmlns="http://www.w3.org/2000/svg"><g fill="none" fill-rule="evenodd"><path d="m0 0h64v64h-64z" fill="#7aa116"/><path d="m32.67 42.724a9.1 9.1 0 0 1 -5.461-1.811c-2.391-1.782-3.665-4.17-3.685-6.906l2-.014c.015 2.115.985 3.903 2.88 5.316 3.165 2.358 7.658 1.702 10.015-1.46 2.357-3.164 1.702-7.657-1.461-10.015-2.882-2.146-7.135-1.578-9.657 1.163l1.698-.002.002 2-4 .005h-.001a1 1 0 0 1 -1-1v-4h2v1.475c3.22-3.321 8.522-3.952 12.153-1.244 4.048 3.017 4.886 8.764 1.87 12.813a9.15 9.15 0 0 1 -7.353 3.68m10.33 9.276c-1.327 0-2-.673-2-2 0-1.383.617-2 2-2 1.327 0 2 .673 2 2s-.673 2-2 2m-3.897-3h-14.201c-.177-.947-.625-1.687-1.289-2.199l2.094-2.094-1.414-1.414-2.749 2.749c-.179-.017-.353-.042-.544-.042-.218 0-.417.026-.619.048l-4.599-15.369c.445-.178.835-.42 1.154-.737l3.589 1.938.95-1.76-3.616-1.951a5.2 5.2 0 0 0 .141-1.169c0-.719-.144-1.347-.39-1.892l11.529-7.903c.496.45 1.123.764 1.861.91v3.885h2v-3.885c.738-.146 1.365-.46 1.861-.91l11.529 7.903a4.6 4.6 0 0 0 -.39 1.892c0 .401.049.765.12 1.11l-3.608 2.017.976 1.746 3.521-1.968c.427.444.991.747 1.665.921l-5.782 15.183c-.151.003-.291.02-.435.034l-2.75-2.75-1.414 1.414 2.107 2.107c-.664.515-1.115 1.253-1.297 2.186m-18.103 3c-1.364 0-2-.636-2-2 0-1.383.617-2 2-2 1.402 0 2 .598 2 2 0 1.383-.617 2-2 2m-9-25c0-1.383.617-2 2-2s2 .617 2 2c0 1.402-.598 2-2 2-1.421 0-2-.58-2-2m20-15c1.401 0 2.111.71 2.111 2.111 0 1.398-.71 2.107-2.111 2.107-1.381 0-2.111-.729-2.111-2.107 0-1.401.71-2.111 2.111-2.111m20 15c0 1.383-.617 2-2 2-1.421 0-2-.58-2-2 0-1.364.636-2 2-2 1.383 0 2 .617 2 2m2 0c0-2.467-1.532-4-4-4-.899 0-1.671.208-2.293.587l-11.803-8.092a4.9 4.9 0 0 0 .207-1.384c0-2.497-1.614-4.111-4.111-4.111s-4.111 1.614-4.111 4.111c0 .503.082.959.207 1.384l-11.803 8.092c-.622-.379-1.394-.587-2.293-.587-2.468 0-4 1.533-4 4 0 2.43 1.415 3.896 3.785 3.983l4.709 15.733c-.955.674-1.494 1.795-1.494 3.284 0 2.467 1.532 4 4 4 2.149 0 3.547-1.107 3.902-3h14.205c.379 1.848 1.818 3 3.893 3 2.43 0 4-1.57 4-4 0-1.719-.797-2.993-2.117-3.6l5.888-15.462c2.008-.293 3.229-1.741 3.229-3.938" fill="#fff"/></g></svg>