<svg height="18" viewBox="0 0 18 18" width="18" xmlns="http://www.w3.org/2000/svg" xmlns:xlink="http://www.w3.org/1999/xlink"><linearGradient id="a" gradientUnits="userSpaceOnUse" x1="9" x2="9" y1="13.333" y2="1.244"><stop offset="0" stop-color="#0078d4"/><stop offset=".156" stop-color="#1380da"/><stop offset=".528" stop-color="#3c91e5"/><stop offset=".822" stop-color="#559cec"/><stop offset="1" stop-color="#5ea0ef"/></linearGradient><path d="m17.5 13.333h-17l1.183-10.921a1.31 1.31 0 0 1 1.3-1.168h12.033a1.31 1.31 0 0 1 1.3 1.168z" fill="url(#a)"/><path d="m.5 13.333h17v2.114a1.31 1.31 0 0 1 -1.309 1.309h-14.382a1.31 1.31 0 0 1 -1.309-1.309z" fill="#5ea0ef"/><path d="m15.028 11.835h-12.056a.33.33 0 0 1 -.326-.363l.914-8.438a.327.327 0 0 1 .325-.292h10.23a.327.327 0 0 1 .325.292l.914 8.438a.33.33 0 0 1 -.326.363m-1.337 3.459v-.794a.294.294 0 0 0 -.294-.294h-.035a.294.294 0 0 0 -.294.294v.753h-3.847v-.753a.294.294 0 0 0 -.294-.294h-.035a.294.294 0 0 0 -.292.294v.753h-4.058v-.743a.294.294 0 0 0 -.294-.294h-.035a.294.294 0 0 0 -.294.294v.79a.59.59 0 0 0 .588.588h.035l8.562-.01a.587.587 0 0 0 .587-.584" fill="#f2f2f2"/><path d="m8.579 7.584h-2.138c-.067 0-.121-.033-.121-.074a.05.05 0 0 1 .011-.03l2.569-3.495a.14.14 0 0 1 .11-.043h2.529c.067 0 .121.033.121.074a.06.06 0 0 1 -.021.042l-3.015 2.735h2.935c.067 0 .121.033.121.074a.06.06 0 0 1 -.031.05l-4.88 3.5c-.045.019-.371.205-.211-.078z" fill="#5ea0ef"/></svg>