<svg viewBox="0 0 128 128" xmlns="http://www.w3.org/2000/svg" xmlns:xlink="http://www.w3.org/1999/xlink"><linearGradient id="a"><stop offset="0" stop-color="#0052cc"/><stop offset=".918" stop-color="#2380fb"/><stop offset="1" stop-color="#2684ff"/></linearGradient><linearGradient id="b" gradientUnits="userSpaceOnUse" x1="121.550708" x2="41.556392" xlink:href="#a" y1="133.157336" y2="87.22687"/><linearGradient id="c" gradientUnits="userSpaceOnUse" x1="6.447212" x2="86.441528" xlink:href="#a" y1="-5.210059" y2="40.72574"/><path d="m4.655 96.303a332.061 332.061 0 0 0 -4.062 6.577c-1.156 1.933-.578 4.448 1.354 5.61l26.484 16.25c1.934 1.16 4.443.577 5.604-1.355a185.798 185.798 0 0 1 3.866-6.579c10.442-17.213 21.071-15.28 40.014-6.186l26.293 12.374c2.124.97 4.447 0 5.41-1.933l12.569-28.43c.963-1.938 0-4.448-1.939-5.418-5.604-2.516-16.618-7.74-26.285-12.573-35.76-17.219-66.114-16.057-89.306 21.663zm0 0" fill="url(#b)"/><path d="m123.343 31.697a332.061 332.061 0 0 0 4.063-6.577c1.16-1.933.577-4.448-1.355-5.61l-26.484-16.25c-1.933-1.16-4.443-.577-5.604 1.355a178.066 178.066 0 0 1 -3.865 6.579c-10.443 17.213-21.072 15.28-40.015 6.186l-26.293-12.374c-2.124-.97-4.441 0-5.41 1.933l-12.564 28.43c-.968 1.938 0 4.454 1.933 5.418 5.604 2.516 16.624 7.74 26.285 12.573 35.767 17.027 66.115 16.056 89.307-21.663zm0 0" fill="url(#c)"/></svg>