<svg height="18" viewBox="0 0 100 100" width="18" xmlns="http://www.w3.org/2000/svg" xmlns:xlink="http://www.w3.org/1999/xlink"><linearGradient id="a" gradientTransform="matrix(1 0 0 -1 0 102)" gradientUnits="userSpaceOnUse" x1="4.969" x2="79.875" y1="45.222" y2="45.222"><stop offset="0" stop-color="#005ba1"/><stop offset=".07" stop-color="#0060a9"/><stop offset=".36" stop-color="#0071c8"/><stop offset=".52" stop-color="#0078d4"/><stop offset=".64" stop-color="#0074cd"/><stop offset=".82" stop-color="#006abb"/><stop offset="1" stop-color="#005ba1"/></linearGradient><path d="m42.425 27.445c-20.686 0-37.456-5.843-37.456-13.557v72.224c0 7.421 16.478 13.439 36.93 13.556h.526c20.681 0 37.45-5.843 37.45-13.556v-72.224c0 7.538-16.769 13.557-37.45 13.557" fill="url(#a)"/><path d="m79.875 13.888c0 7.538-16.769 13.557-37.45 13.557s-37.46-5.845-37.46-13.557 16.77-13.556 37.46-13.556 37.45 5.843 37.45 13.556" fill="#e8e8e8"/><path d="m71.17 12.777c0 4.793-12.914 8.649-28.749 8.649s-28.749-3.856-28.749-8.649 12.914-8.589 28.749-8.589 28.749 3.857 28.749 8.589" fill="#50e6ff"/><path d="m42.425 14.752a73.5 73.5 0 0 0 -22.725 3.331c4.985 1.839 15.164 3.645 22.866 3.376a65.3 65.3 0 0 0 22.734-3.451 76.6 76.6 0 0 0 -22.875-3.256" fill="#198ab3"/><path d="m72.89 96.218a19.635 19.635 0 1 0 -19.635-19.635 19.635 19.635 0 0 0 19.635 19.635" fill="#fff"/><path d="m72.421 59.928a16.65 16.65 0 1 1 -6.374 1.272 16.7 16.7 0 0 1 6.374-1.272m0-5.96a22.64 22.64 0 1 0 15.979 6.632 22.6 22.6 0 0 0 -15.979-6.632" fill="#003067"/><path d="m61.953 81.844a2.69 2.69 0 0 0 2.682 2.669h.018l8.991-.078v-5.653h-5.8v-10.413l-3.3.02a2.68 2.68 0 0 0 -2.473 1.676 2.7 2.7 0 0 0 -.2 1.031l.027 3.97h-3.564v2.662h3.583zm21.56-10.89a2.69 2.69 0 0 0 -2.682-2.669h-.018l-8.813.074v6.272h5.8v9.8l3.121-.02a2.683 2.683 0 0 0 2.669-2.7l-.027-3.974h3.571v-2.671h-3.588z" fill="#76bc2d"/>​</svg>