<svg xmlns="http://www.w3.org/2000/svg" preserveAspectRatio="xMidYMid" viewBox="0 0 256 540"><mask id="a" fill="currentColor"><path d="M.137 122.022c-.18 4.155-.172 8.316.027 12.47C.11 135.557 0 136.61 0 137.69v210.042c0 40.169 32.785 73.036 72.858 73.036h109.65c40.058 0 72.857-32.867 72.857-73.036V137.691c0-1.23-.136-2.407-.191-3.61.199-4.017.204-8.041.014-12.059C252.098 54.1 196.179 0 127.669 0 59.145 0 3.227 54.1.137 122.009z"/></mask><mask id="b" fill="currentColor"><path d="M.137 122.022c-.18 4.155-.172 8.316.027 12.47C.11 135.557 0 136.61 0 137.69v210.042c0 40.169 32.785 73.036 72.858 73.036h109.65c40.058 0 72.857-32.867 72.857-73.036V137.691c0-1.23-.136-2.407-.191-3.61.199-4.017.204-8.041.014-12.059C252.098 54.1 196.179 0 127.669 0 59.145 0 3.227 54.1.137 122.009z"/></mask><mask id="c" fill="currentColor"><path d="M.137 122.022c-.18 4.155-.172 8.316.027 12.47C.11 135.557 0 136.61 0 137.69v210.042c0 40.169 32.785 73.036 72.858 73.036h109.65c40.058 0 72.857-32.867 72.857-73.036V137.691c0-1.23-.136-2.407-.191-3.61.199-4.017.204-8.041.014-12.059C252.098 54.1 196.179 0 127.669 0 59.145 0 3.227 54.1.137 122.009z"/></mask><path fill="currentColor" d="M126.759 173.662c-17.689.03-32.008 14.386-31.993 32.074v301.878a32.034 32.034 0 0 0 31.993 32.074c17.678 0 32.006-14.356 32.006-32.074V205.736c.015-17.688-14.304-32.044-31.993-32.074"/><path fill="currentColor" d="M331.874 126.028 15.19 443.465l-93.79-94.023L238.07 32.006z" mask="url(#a)" transform="translate(.635 .014)"/><path fill="currentColor" d="m237.783 31.705-316.67 317.437-116.704-116.992L121.052-85.286z" mask="url(#b)" transform="translate(.635 .014)"/><path fill="currentColor" d="m425.964 220.351-316.67 317.423-93.79-94.022 316.671-317.423z" mask="url(#c)" transform="translate(.635 .014)"/><path fill="currentColor" d="m103.448 421.138 55.508 55.645v-56.11z"/></svg>