<svg height="48" viewBox="0 0 48 48" width="48" xmlns="http://www.w3.org/2000/svg"><path d="m38.189 13.07c-4.084 0-6.189-1.199-6.189-1.71v-3.088c1.601.798 3.943 1.178 6.189 1.178 2.428 0 4.436-.407 5.811-1.108v3.018c0 .613-1.942 1.71-5.811 1.71m0 5.259c-4.084 0-6.189-1.155-6.189-1.649v-2.755c1.578.779 3.889 1.145 6.189 1.145 2.45 0 4.447-.391 5.811-1.077v2.687c0 .576-1.997 1.649-5.811 1.649m0 11.185c3.814 0 5.811 1.123 5.811 1.725s-1.997 1.725-5.811 1.725c-4.084 0-6.189-1.209-6.189-1.725s2.105-1.725 6.189-1.725m0 9.07c-4.084 0-6.189-1.199-6.189-1.711v-3.087c1.601.798 3.943 1.178 6.189 1.178 2.428 0 4.436-.407 5.811-1.108v3.017c0 .614-1.942 1.711-5.811 1.711m0 5.259c-4.084 0-6.189-1.155-6.189-1.648v-2.756c1.578.779 3.889 1.145 6.189 1.145 2.45 0 4.447-.391 5.811-1.077v2.688c0 .575-1.997 1.648-5.811 1.648m-25.946-13.633c-5.033 0-8.243-1.447-8.243-2.443v-4.153c1.993 1.136 5.188 1.672 8.243 1.672 3.339 0 6.047-.589 7.757-1.591v4.072c0 1.024-2.696 2.443-7.757 2.443m0 6.722c-5.412 0-8.243-1.566-8.243-2.405v-3.982c1.993 1.131 5.188 1.665 8.243 1.665 3.339 0 6.047-.587 7.757-1.585v3.902c0 1.008-2.696 2.405-7.757 2.405m-8.243-20.736c1.993 1.136 5.188 1.672 8.243 1.672 3.339 0 6.047-.589 7.757-1.591v4.547c0 1.033-2.696 2.462-7.757 2.462-5.033 0-8.243-1.458-8.243-2.462zm8.243-5.251c4.994 0 7.757 1.455 7.757 2.461 0 1.007-2.763 2.462-7.757 2.462-5.412 0-8.243-1.602-8.243-2.462 0-.859 2.831-2.461 8.243-2.461m25.946-6.945c3.814 0 5.811 1.123 5.811 1.725s-1.997 1.725-5.811 1.725c-4.084 0-6.189-1.209-6.189-1.725s2.105-1.725 6.189-1.725m7.811 1.725c0-2.228-3.139-3.725-7.811-3.725-3.944 0-8.189 1.166-8.189 3.725 0 .068.014.131.02.197h-.02v10.586l-8 5.6v-8.186h-.053q.051-.252.053-.516c0-2.669-3.921-4.461-9.757-4.461-4.665 0-9.658 1.25-10.19 3.977h-.053v21.605c0 3.027 5.309 4.405 10.243 4.405 5.926 0 9.757-1.729 9.757-4.405v-8.577l8 5.6v10.645c0 2.52 4.113 3.648 8.189 3.648 4.745 0 7.811-1.432 7.811-3.648v-11.273h-.029c-.286-2.051-3.337-3.408-7.782-3.408-2.975 0-6.118.664-7.485 2.087l-7.961-5.572 8.052-5.636c1.388 1.324 4.398 1.936 7.394 1.936 4.745 0 7.811-1.432 7.811-3.649v-10.758h-.018c.006-.066.018-.13.018-.197" fill="#c925d1" fill-rule="evenodd"/></svg>