<svg viewBox="0 0 24 24" xmlns="http://www.w3.org/2000/svg"><path d="m0 18.858h24v-10.677h-13.283v-3.039h-10.717zm2.021-11.587h6.657v1.994c-1.74 2.09-2.84 4.502-2.948 7.404h-2.253c.09-2.501.353-4.954 2.283-6.994l.033-.033h-3.772zm8.45 1.253h13.215v10.143h-13.216zm6.01 1.213v6.871h1.482v-6.87zm2.755.043v6.912h1.616v-2.42h1.029c.43-.001.754-.29.969-.716.427-.848.429-2.257-.024-3.092-.227-.419-.571-.697-1.033-.684zm-7.924.002v1.596h2.217l-2.304 3.736v1.54h4.287v-1.554h-2.698l2.786-3.909v-1.41zm9.452 1.512h.595c.164-.006.287.081.371.217.17.273.172.736.004.99a.36.36 0 0 1 -.373.176l-.55.047z"/></svg>