<svg xmlns="http://www.w3.org/2000/svg" id="uuid-57b7969a-0a93-4e83-b7cf-2fee2e5906f6" width="18" height="18" viewBox="0 0 18 18"><defs><linearGradient id="uuid-f0edc360-1d2d-4214-9187-ff13318aa2f1" x1="8.994" x2="8.994" y1="18" y2="0" gradientUnits="userSpaceOnUse"><stop offset="0" stop-color="#119fc5"/><stop offset=".873" stop-color="#36dff1"/></linearGradient><linearGradient id="uuid-df37a9af-d439-4771-9129-fa63f0f9e0b5" x1="63.781" x2="63.781" y1="638.899" y2="636.46" gradientTransform="matrix(1 0 0 -1 -56 645.516)" gradientUnits="userSpaceOnUse"><stop offset="0" stop-color="#9cebff"/><stop offset="1" stop-color="#50e6ff"/></linearGradient><linearGradient id="uuid-9fcfbda3-9dec-4ebc-9178-6f91e05a7c0b" x1="7.781" x2="7.781" y1="14.804" y2="11.436" gradientUnits="userSpaceOnUse"><stop offset="0" stop-color="#86d633"/><stop offset=".999" stop-color="#b4ec36"/></linearGradient></defs><path fill="url(#uuid-f0edc360-1d2d-4214-9187-ff13318aa2f1)" d="M16.429 14.999h-.881V3.711c0-.703-.57-1.273-1.273-1.273H3.001V1.274a.281.281 0 0 0-.562 0v1.164H1.261c-.704 0-1.274.57-1.274 1.273v13.016C-.013 17.43.557 18 1.26 18h13.016c.703 0 1.273-.57 1.273-1.273v-1.165h.881a.281.281 0 0 0 0-.562ZM16.808.003h-.018l-.053-.002h-1.51a.281.281 0 0 0 0 .562h1.543a.29.29 0 0 0 .288-.274.274.274 0 0 0-.25-.287Zm-9.081.56h1.5a.281.281 0 0 0 0-.563h-1.5a.281.281 0 0 0 0 .562Zm3.75 0h1.5a.281.281 0 0 0 0-.563h-1.5a.281.281 0 0 0 0 .562Zm-7.5 0h1.5a.281.281 0 0 0 0-.563h-1.5a.281.281 0 0 0 0 .562Zm14.022 13.773-.562-.021zm-.28-13.031a.28.28 0 0 0-.281.281v1.5a.281.281 0 0 0 .562 0v-1.5a.28.28 0 0 0-.281-.281m0 3.75a.28.28 0 0 0-.281.281v1.5a.281.281 0 0 0 .562 0v-1.5a.28.28 0 0 0-.281-.281m0 7.5a.28.28 0 0 0-.281.281v1.453H18v-1.453a.28.28 0 0 0-.281-.281m0-3.75a.28.28 0 0 0-.281.281v1.5a.281.281 0 0 0 .562 0v-1.5a.28.28 0 0 0-.281-.281"/><path fill="#fff" d="M14.276 3.001a.71.71 0 0 1 .71.71v13.016a.71.71 0 0 1-.71.71H1.26a.71.71 0 0 1-.71-.71V3.711a.71.71 0 0 1 .71-.71z"/><g id="uuid-dcf7367b-41c0-4802-8763-d0ade53fcd23"><path fill="#0078d4" d="M10.367 10.483H8.815a.81.81 0 0 1-.809-.809V7.969h-.449v1.706a.81.81 0 0 1-.809.809H5.196a.64.64 0 0 0-.64.64v1.246h.448v-1.248c0-.105.085-.189.189-.189h1.554c.353 0 .689-.147.927-.407a.147.147 0 0 1 .209-.008l.008.008c.238.259.573.407.925.407h1.552c.104 0 .189.084.189.188v1.247h.448v-1.246a.64.64 0 0 0-.64-.638Z"/><rect width="3.597" height="3.597" x="5.982" y="5.649" fill="url(#uuid-df37a9af-d439-4771-9129-fa63f0f9e0b5)" rx=".322" ry=".322"/><path fill="url(#uuid-9fcfbda3-9dec-4ebc-9178-6f91e05a7c0b)" d="M6.258 11.669H3.305a.32.32 0 0 0-.322.322v2.953c0 .178.144.322.322.322h2.953a.32.32 0 0 0 .322-.322v-2.953a.32.32 0 0 0-.322-.322m5.999 0H9.304a.32.32 0 0 0-.322.322v2.953c0 .178.144.322.322.322h2.953a.32.32 0 0 0 .322-.322v-2.953a.32.32 0 0 0-.322-.322"/></g></svg>