<svg viewBox="0 0 24 24" xmlns="http://www.w3.org/2000/svg" fill="#3050FF"><path d="m13.716 17.261 6.873 6.582 3.411-3.561-6.824-6.536a9.11 9.11 0 0 0 1.143-4.43c0-5.055-4.105-9.159-9.16-9.159s-9.159 4.104-9.159 9.159 4.104 9.159 9.159 9.159a9.11 9.11 0 0 0 4.557-1.214zm-4.557-14.488a6.546 6.546 0 0 1 6.543 6.543 6.545 6.545 0 0 1 -6.543 6.542 6.545 6.545 0 0 1 -6.542-6.542 6.545 6.545 0 0 1 6.542-6.543zm-1.899 2.94a4.065 4.065 0 0 1 4.744.747 4.064 4.064 0 0 1 .707 4.749l1.157.611a5.376 5.376 0 0 0 -.935-6.282 5.377 5.377 0 0 0 -6.274-.987z"/></svg>