<svg xmlns="http://www.w3.org/2000/svg" width="18" height="18" viewBox="0 0 18 18"><defs><mask id="a"><path fill="#fff" d="M0 0h18v18H0z"/><path d="m15.81 11.63-6.14 3.93c-.42.27-.96.27-1.38 0l-6.18-4.04c-.18-.12-.32-.27-.41-.44v1.29c.03.36.22.71.56.93l6.05 3.95c.41.27.94.27 1.35 0l6-3.85c.38-.25.58-.65.57-1.06s0-1.18 0-1.18c-.1.18-.24.33-.43.45z"/><path d="M17.35 7.21 9.85 12c-.52.33-1.18.33-1.69 0L.63 7.05c-.22-.14-.39-.33-.51-.54v1.58c.04.44.26.86.68 1.14l7.37 4.83c.5.33 1.15.33 1.65 0l7.33-4.69c.47-.3.7-.79.7-1.29V6.64c-.12.22-.29.41-.52.55z"/></mask></defs><g fill="currentColor" mask="url(#a)"><path d="m.65 7.64 7.5-4.79c.52-.33 1.18-.33 1.69 0l7.54 4.94c.22.14.39.33.51.54V6.75c-.04-.44-.26-.86-.68-1.14L9.81.79c-.5-.33-1.15-.33-1.65 0L.83 5.47c-.47.3-.7.79-.7 1.29V8.2c.12-.22.29-.41.52-.55z"/><path d="m15.81 11.63-6.14 3.93c-.42.27-.96.27-1.38 0l-6.18-4.04c-.18-.12-.32-.27-.41-.44v1.29c.03.36.22.71.56.93l6.05 3.95c.41.27.94.27 1.35 0l6-3.85c.38-.25.58-.65.57-1.06s0-1.18 0-1.18c-.1.18-.24.33-.43.45z"/></g><path fill="currentColor" d="M17.35 7.21 15.3 8.52l-1.4.9-.07.05-1.3.83-.58.37-1.2.77-.89.57c-.52.33-1.18.33-1.69 0l-.91-.6-1.2-.79-.61-.4-1.3-.85-.04-.02-1.4-.92L.63 7.07c-.22-.14-.39-.33-.51-.54v1.58c.04.44.26.86.68 1.14l.5.33 1.22.8 1.94 1.27 1.2.79 2.52 1.65c.5.33 1.15.33 1.65 0l2.5-1.6 1.2-.77 1.96-1.25 1.21-.77.47-.3c.47-.3.7-.79.7-1.29V6.67c-.12.22-.29.41-.52.55z"/><path fill="currentColor" d="M13.36 7.95c-.03-.97-.76-1.77-1.72-1.9a2.493 2.493 0 0 0-2.57-2.38 2.55 2.55 0 0 0-2.44 1.67 2.35 2.35 0 0 0-2.07 2.27 2.39 2.39 0 0 0 2.48 2.3h4.23s.07 0 .11-.02c1.07 0 1.95-.86 1.98-1.93z"/></svg>