<svg height="18" viewBox="0 0 18 18" width="18" xmlns="http://www.w3.org/2000/svg" xmlns:xlink="http://www.w3.org/1999/xlink"><linearGradient id="a" gradientTransform="matrix(-1 0 0 -1 -1860.8 4106.66)" gradientUnits="userSpaceOnUse" x1="-1882.19" x2="-1860.63" y1="4102.22" y2="4102.22"><stop offset=".43" stop-color="#119fc5"/><stop offset=".63" stop-color="#0583cf"/><stop offset=".75" stop-color="#0078d4"/></linearGradient><linearGradient id="b" gradientTransform="matrix(.99999877 -.0015708 .0015708 .99999877 -2.76 -2.220001)" gradientUnits="userSpaceOnUse" x1="-1.24" x2="18.21" y1="16.5" y2="16.5"><stop offset=".23" stop-color="#119fc5"/><stop offset=".71" stop-color="#0583cf"/><stop offset="1" stop-color="#0078d4"/></linearGradient><linearGradient id="c" gradientUnits="userSpaceOnUse" x1="-7.94" x2="18.92" y1="10.41" y2="10.41"><stop offset=".54" stop-color="#119fc5"/><stop offset=".72" stop-color="#0583cf"/><stop offset=".83" stop-color="#0078d4"/></linearGradient><linearGradient id="d" gradientTransform="matrix(1 0 0 -1 0 791.52)" gradientUnits="userSpaceOnUse" x1="8.96" x2="8.96" y1="781.41" y2="787.65"><stop offset="0" stop-color="#119fc5"/><stop offset="1" stop-color="#36dff1"/></linearGradient><path d="m.65 7.64 7.5-4.79c.52-.33 1.18-.33 1.69 0l7.54 4.94c.22.14.39.33.51.54v-1.58c-.04-.44-.26-.86-.68-1.14l-7.4-4.82c-.5-.33-1.15-.33-1.65 0l-7.33 4.68c-.47.3-.7.79-.7 1.29v1.44c.12-.22.29-.41.52-.55z" fill="url(#a)"/><path d="m15.81 11.63-6.14 3.93c-.42.27-.96.27-1.38 0l-6.18-4.04c-.18-.12-.32-.27-.41-.44v1.29c.03.36.22.71.56.93l6.05 3.95c.41.27.94.27 1.35 0l6-3.85c.38-.25.58-.65.57-1.06s0-1.18 0-1.18c-.1.18-.24.33-.43.45z" fill="#fff"/><path d="m15.81 11.63-6.14 3.93c-.42.27-.96.27-1.38 0l-6.18-4.04c-.18-.12-.32-.27-.41-.44v1.29c.03.36.22.71.56.93l6.05 3.95c.41.27.94.27 1.35 0l6-3.85c.38-.25.58-.65.57-1.06s0-1.18 0-1.18c-.1.18-.24.33-.43.45z" fill="url(#b)"/><path d="m17.35 7.21-7.5 4.79c-.52.33-1.18.33-1.69 0l-7.53-4.95c-.22-.14-.39-.33-.51-.54v1.58c.04.44.26.86.68 1.14l7.37 4.83c.5.33 1.15.33 1.65 0l7.33-4.69c.47-.3.7-.79.7-1.29v-1.44c-.12.22-.29.41-.52.55z" fill="#fff"/><path d="m17.35 7.21-2.05 1.31-1.4.9-.07.05-1.3.83-.58.37-1.2.77-.89.57c-.52.33-1.18.33-1.69 0l-.91-.6-1.2-.79-.61-.4-1.3-.85-.04-.02-1.4-.92-2.08-1.36c-.22-.14-.39-.33-.51-.54v1.58c.04.44.26.86.68 1.14l.5.33 1.22.8 1.94 1.27 1.2.79 2.52 1.65c.5.33 1.15.33 1.65 0l2.5-1.6 1.2-.77 1.96-1.25 1.21-.77.47-.3c.47-.3.7-.79.7-1.29v-1.44c-.12.22-.29.41-.52.55z" fill="url(#c)"/><path d="m13.36 7.95c-.03-.97-.76-1.77-1.72-1.9a2.493 2.493 0 0 0 -2.57-2.38 2.55 2.55 0 0 0 -2.44 1.67 2.35 2.35 0 0 0 -2.07 2.27 2.39 2.39 0 0 0 2.48 2.3h4.23s.07 0 .11-.02c1.07 0 1.95-.86 1.98-1.93z" fill="url(#d)"/></svg>