<svg xmlns="http://www.w3.org/2000/svg" width="18" height="18" viewBox="0 0 18 18"><circle cx="9" cy="9" r="9" fill="currentColor"/><g fill="currentColor" stroke-width="0"><path d="M15.655 9.667 9.882 3.155a1.195 1.195 0 0 0-1.766 0L2.343 9.667c-.446.503-.329 1.263.249 1.625l5.773 3.609c.385.241.884.241 1.269 0l5.773-3.609a1.066 1.066 0 0 0 .249-1.625z"/><path d="m5.64 9.845.04.025L9 11.945l3.359-2.1h.001-.001L9 6.055z"/><path d="M9.883 3.154a1.195 1.195 0 0 0-1.766 0L2.344 9.666c-.446.503-.329 1.263.249 1.625l2.406 1.504c.299.186.795.393 1.32.393.478 0 .921-.139 1.29-.375h.002L9 11.945l-3.359-2.1L9.085 5.96a2.35 2.35 0 0 1 1.772-.79c.363 0 .706.082 1.012.225L9.884 3.156v-.002z"/><path fill-opacity=".5" d="M9 15.081c.221 0 .442-.06.634-.18l5.773-3.609a1.066 1.066 0 0 0 .249-1.625L9.883 3.155A1.18 1.18 0 0 0 9 2.765v12.317z" opacity=".5"/></g></svg>