<svg xmlns="http://www.w3.org/2000/svg" id="uuid-26c86e8c-6afd-469c-8eba-c099edd8fa6b" width="18" height="18" viewBox="0 0 18 18"><defs><linearGradient id="uuid-a95f546c-1bab-45e3-a992-32e1ccdf3207" x1="-85" x2="-85" y1="777.516" y2="795.516" gradientTransform="matrix(1 0 0 -1 94 795.516)" gradientUnits="userSpaceOnUse"><stop offset="0" stop-color="#773adc"/><stop offset=".82" stop-color="#a67af4"/></linearGradient><linearGradient id="uuid-d4ff18b4-5d19-4aff-aed3-936108a6fc93" x1="7.996" x2="12.911" y1="779.969" y2="785.714" gradientTransform="matrix(1 0 0 -1 0 791.516)" gradientUnits="userSpaceOnUse"><stop offset="0" stop-color="#225086"/><stop offset="1" stop-color="#0055c5"/></linearGradient><linearGradient id="uuid-fd3c4ed0-a5ff-43c4-b07e-a43aa771cccb" x1="9" x2="9" y1="777.497" y2="792.036" gradientTransform="matrix(1 0 0 -1 0 791.516)" gradientUnits="userSpaceOnUse"><stop offset="0" stop-color="#44dbf9"/><stop offset="1" stop-color="#cbf8ff"/></linearGradient><linearGradient id="uuid-1b86b618-fe52-4a1e-ba50-a1aad60142c3" x1="6.97" x2="6.97" y1="779.196" y2="791.703" gradientTransform="matrix(1 0 0 -1 0 791.516)" gradientUnits="userSpaceOnUse"><stop offset="0" stop-color="#6df"/><stop offset="1" stop-color="#0294e4"/></linearGradient><linearGradient id="uuid-b51ef80d-2cfc-478a-a38f-46c743bfb91d" x1="12.463" x2="12.463" y1="776.546" y2="788.909" gradientTransform="matrix(1 0 0 -1 0 791.516)" gradientUnits="userSpaceOnUse"><stop offset="0" stop-color="#041642"/><stop offset="1" stop-color="#041642" stop-opacity=".25"/></linearGradient></defs><circle cx="9" cy="9" r="9" fill="url(#uuid-a95f546c-1bab-45e3-a992-32e1ccdf3207)" stroke-width="0"/><g stroke-width="0"><path fill="url(#uuid-d4ff18b4-5d19-4aff-aed3-936108a6fc93)" d="M15.655 9.667 9.882 3.155a1.195 1.195 0 0 0-1.766 0L2.343 9.667c-.446.503-.329 1.263.249 1.625l5.773 3.609c.385.241.884.241 1.269 0l5.773-3.609a1.066 1.066 0 0 0 .249-1.625Z"/><path fill="url(#uuid-fd3c4ed0-a5ff-43c4-b07e-a43aa771cccb)" d="m5.64 9.845.04.025L9 11.945l3.359-2.1h.001-.001L9 6.055z"/><path fill="url(#uuid-1b86b618-fe52-4a1e-ba50-a1aad60142c3)" d="M9.883 3.154a1.195 1.195 0 0 0-1.766 0L2.344 9.666c-.446.503-.329 1.263.249 1.625l2.406 1.504c.299.186.795.393 1.32.393.478 0 .921-.139 1.29-.375h.002L9 11.945l-3.359-2.1L9.085 5.96a2.35 2.35 0 0 1 1.772-.79c.363 0 .706.082 1.012.225L9.884 3.156v-.002Z"/><path fill="url(#uuid-b51ef80d-2cfc-478a-a38f-46c743bfb91d)" fill-opacity=".5" d="M9 15.081c.221 0 .442-.06.634-.18l5.773-3.609a1.066 1.066 0 0 0 .249-1.625L9.883 3.155A1.18 1.18 0 0 0 9 2.765v12.317Z" opacity=".5"/></g></svg>