<svg height="18" viewBox="0 0 18 18" width="18" xmlns="http://www.w3.org/2000/svg" xmlns:xlink="http://www.w3.org/1999/xlink"><linearGradient id="a" gradientUnits="userSpaceOnUse" x1="9" x2="9" y1="13.245" y2="1.245"><stop offset="0" stop-color="#0078d4"/><stop offset=".817" stop-color="#5ea0ef"/></linearGradient><linearGradient id="b" gradientUnits="userSpaceOnUse" x1="9.003" x2="9.003" y1="17.88" y2="13.245"><stop offset=".149" stop-color="#ccc"/><stop offset="1" stop-color="#707070"/></linearGradient><rect fill="url(#a)" height="12" rx=".601" width="18" y="1.245"/><path d="m12.61 16.875c-1.78-.279-1.85-1.563-1.845-3.63h-3.53c0 2.067-.065 3.351-1.845 3.63a1.046 1.046 0 0 0 -.887 1h9a1.05 1.05 0 0 0 -.893-1" fill="url(#b)"/><path d="m5.354 11.505h-3.572a.3.3 0 0 1 -.3-.3v-7.921a.3.3 0 0 1 .3-.3h3.572a.3.3 0 0 1 .3.3v7.921a.3.3 0 0 1 -.3.3m5.732-.3v-7.921a.3.3 0 0 0 -.3-.3h-3.572a.3.3 0 0 0 -.3.3v7.921a.3.3 0 0 0 .3.3h3.572a.3.3 0 0 0 .3-.3" fill="#fff" opacity=".3"/><rect fill="#faa21d" height="8.521" rx=".3" width="4.173" x="12.346" y="2.984"/><path d="m14.8 8.5h-.73a.165.165 0 0 1 -.171-.152l-.078-3.326a.163.163 0 0 1 .171-.159h.887a.164.164 0 0 1 .171.159l-.079 3.326a.165.165 0 0 1 -.171.152m-.365.411a.583.583 0 1 0 .583.583.583.583 0 0 0 -.586-.579zm-4.065-2.511a.094.094 0 0 0 -.133 0l-1.7 1.7-.647-.646a.094.094 0 0 0 -.133 0l-.15.15a.094.094 0 0 0 0 .133l.86.86a.1.1 0 0 0 .134 0l1.919-1.919a.094.094 0 0 0 0-.133zm-5.5 0a.094.094 0 0 0 -.133 0l-1.7 1.7-.637-.655a.1.1 0 0 0 -.134 0l-.15.15a.1.1 0 0 0 0 .133l.86.86h.005a.094.094 0 0 0 .133 0l1.908-1.91a.094.094 0 0 0 0-.133zm11.346 5.3h-3.57a.49.49 0 0 1 -.488-.488v-7.928a.49.49 0 0 1 .488-.488h3.572a.49.49 0 0 1 .488.488v7.921a.49.49 0 0 1 -.488.488zm-3.57-8.529a.114.114 0 0 0 -.113.113v7.921a.114.114 0 0 0 .113.113h3.572a.114.114 0 0 0 .113-.113v-7.921a.114.114 0 0 0 -.113-.113z" fill="#fff"/></svg>