<svg xmlns="http://www.w3.org/2000/svg" width="18" height="18" viewBox="0 0 18 18"><defs><mask id="a"><path fill="#fff" d="M0 0h18v18H0z"/><path d="M.544 5.316h16.912v9.918a.565.565 0 0 1-.565.565H1.109a.565.565 0 0 1-.565-.565z"/><path d="M2.625 6.435h3.683v7.933H2.625z"/><path d="M7.158 6.435h3.683v7.933H7.158z"/><path d="M11.692 6.435h3.683v7.933h-3.683z"/></mask></defs><path fill="currentColor" d="M1.112 2.2h15.776a.565.565 0 0 1 .565.565v2.55H.547V2.766a.565.565 0 0 1 .565-.566" mask="url(#a)"/></svg>