<svg height="18" viewBox="0 0 18 18" width="18" xmlns="http://www.w3.org/2000/svg" xmlns:xlink="http://www.w3.org/1999/xlink"><linearGradient id="a" gradientUnits="userSpaceOnUse" x1="9" x2="9" y1="15.799" y2="5.316"><stop offset="0" stop-color="#a67af4"/><stop offset=".775" stop-color="#b796f9"/></linearGradient><path d="m.544 5.316h16.912v9.918a.565.565 0 0 1 -.565.565h-15.782a.565.565 0 0 1 -.565-.565z" fill="url(#a)"/><path d="m1.112 2.2h15.776a.565.565 0 0 1 .565.565v2.55h-16.906v-2.549a.565.565 0 0 1 .565-.566" fill="#773adc"/><g fill="#fff"><rect height="7.933" rx=".274" width="3.683" x="2.625" y="6.435"/><rect height="7.933" opacity=".75" rx=".274" width="3.683" x="7.158" y="6.435"/><rect height="7.933" opacity=".5" rx=".274" width="3.683" x="11.692" y="6.435"/></g></svg>