<svg xmlns="http://www.w3.org/2000/svg" width="18" height="18" viewBox="0 0 18 18"><defs><mask id="a"><path fill="#fff" d="M0 0h18v18H0z"/><ellipse cx="12.938" cy="12.94" rx="3.47" ry="3.453"/></mask></defs><g fill="currentColor" mask="url(#a)"><path d="M8.916 15.048a4.5 4.5 0 0 1-.524-2.108c0-2.289 1.712-4.187 3.929-4.495V2.786a.486.486 0 0 0-.487-.485H.862a.486.486 0 0 0-.487.485V14.56c0 .268.218.485.487.485H2.93v.003z"/><path d="M8.392 12.94c0-2.038 1.356-3.766 3.218-4.338V3.563q-.001-.024-.005-.046l-.005-.049q-.005-.023-.014-.046l-.014-.046q-.01-.022-.022-.042l-.022-.041q-.014-.019-.029-.036-.014-.019-.03-.036-.017-.016-.035-.029-.018-.016-.037-.03-.02-.013-.04-.022l-.042-.023q-.022-.008-.045-.014-.022-.009-.046-.014-.024-.004-.049-.005-.023-.004-.047-.005H1.602q-.024.001-.047.005l-.049.005q-.024.006-.046.014-.023.006-.045.014-.022.01-.042.023l-.04.022-.037.03-.035.029q-.016.017-.03.036-.016.017-.029.036-.012.02-.022.041-.012.02-.022.042l-.014.046q-.008.022-.014.046l-.005.049-.005.046V13.78c0 .268.218.485.487.485h6.984a4.5 4.5 0 0 1-.199-1.326z"/><path d="M7.279 1.421a.94.94 0 0 0-.828-1.04.94.94 0 0 0-1.045.824l-.004.048a1 1 0 0 0 0 .169H3.58a.404.404 0 0 0-.405.401v1.705h6.346V1.824a.403.403 0 0 0-.403-.403H7.28zM6.211.968a.47.47 0 0 1 .599.45h-.012a.465.465 0 1 1-.912-.138.46.46 0 0 1 .324-.313z"/><ellipse cx="12.954" cy="12.94" rx="3.985" ry="3.965"/></g><rect width=".535" height="3.04" x="12.648" y="10.018" fill="currentColor" rx=".243" transform="matrix(-1 0 0 -1 25.83 23.076)"/><path fill="currentColor" d="m11.506 14.341.033.033a.243.243 0 0 0 .344 0l1.008-1.003a.24.24 0 0 0 0-.343l-.033-.033a.243.243 0 0 0-.344 0l-1.008 1.003a.24.24 0 0 0 0 .343"/><circle cx="12.936" cy="12.933" r=".564" fill="currentColor"/><path fill="currentColor" d="M13.742 9.045c2.168.437 3.57 2.54 3.131 4.697a3.98 3.98 0 0 1-1.838 2.61l-.132-.349a.08.08 0 0 0-.1-.045.1.1 0 0 0-.033.023l-1.039 1.254a.078.078 0 0 0 .048.126l1.614.263a.077.077 0 0 0 .089-.065.1.1 0 0 0-.004-.039l-.193-.516a4.67 4.67 0 0 0 2.176-2.766A4.065 4.065 0 0 0 14.674 9.2a4 4 0 0 0-.933-.156z"/></svg>