<svg height="18" viewBox="0 0 18 18" width="18" xmlns="http://www.w3.org/2000/svg" xmlns:xlink="http://www.w3.org/1999/xlink"><linearGradient id="a" gradientUnits="userSpaceOnUse" x1="6.348" x2="6.348" y1="2.3" y2="15.048"><stop offset="0" stop-color="#0078d4"/><stop offset="1" stop-color="#005ba1"/></linearGradient><path d="m0 0h18v18h-18z" fill="none"/><path d="m8.916 15.048a4.5 4.5 0 0 1 -.524-2.108c0-2.289 1.712-4.187 3.929-4.495v-5.659a.486.486 0 0 0 -.487-.485h-10.972a.486.486 0 0 0 -.487.485v11.774c0 .268.218.485.487.485h2.068v.003z" fill="url(#a)"/><path d="m8.392 12.94c0-2.038 1.356-3.766 3.218-4.338v-5.039q-.001-.024-.005-.046-.002-.025-.005-.049-.005-.023-.014-.046-.006-.023-.014-.046-.01-.022-.022-.042l-.022-.041q-.014-.019-.029-.036-.014-.019-.03-.036-.017-.016-.035-.029-.018-.016-.037-.03-.02-.013-.04-.022-.02-.012-.042-.023-.022-.008-.045-.014-.022-.009-.046-.014-.024-.004-.049-.005-.023-.004-.047-.005h-9.526q-.024.001-.047.005-.024.002-.049.005-.024.006-.046.014-.023.006-.045.014-.022.01-.042.023-.02.01-.04.022-.018.014-.037.03l-.035.029q-.016.017-.03.036-.016.017-.029.036-.012.02-.022.041-.012.02-.022.042l-.014.046q-.008.022-.014.046-.003.024-.005.049-.003.022-.005.046v10.217c0 .268.218.485.487.485h6.984a4.5 4.5 0 0 1 -.199-1.326z" fill="#0078d4"/><path d="m7.279 1.421a.94.94 0 0 0 -.828-1.04.94.94 0 0 0 -1.045.824l-.004.048a1 1 0 0 0 0 .169h-1.822a.404.404 0 0 0 -.405.401v1.705h6.346v-1.704a.403.403 0 0 0 -.403-.403h-1.838zm-1.068-.453a.47.47 0 0 1 .599.45h-.012a.465.465 0 1 1 -.912-.138.46.46 0 0 1 .324-.313z" fill="#5ea0ef"/><g fill="#fff"><g><rect height="1.251" opacity=".8" rx=".283" width="1.565" x="2.319" y="6.146"/><rect height="1.251" rx=".274" width="5.388" x="4.95" y="6.146"/></g><rect height="1.251" opacity=".8" rx=".283" width="1.565" x="2.359" y="8.834"/><path d="m10.336 9.225v-.118l-.002-.018.002-.001q-.001-.015-.005-.029 0-.005-.002-.01-.005-.022-.013-.043l-.003-.007q-.01-.023-.024-.043l-.001-.002a.27.27 0 0 0 -.226-.12h-4.799a.274.274 0 0 0 -.275.274v.703c0 .151.123.274.275.274h4.146a4.6 4.6 0 0 1 .925-.859z"/></g><ellipse cx="12.954" cy="12.94" fill="#0078d4" rx="3.985" ry="3.965"/><ellipse cx="12.938" cy="12.94" fill="#fff" rx="3.47" ry="3.453"/><rect fill="#7a7a7a" height="3.04" rx=".243" transform="matrix(-1 0 0 -1 25.83 23.076)" width=".535" x="12.648" y="10.018"/><path d="m11.506 14.341.033.033a.243.243 0 0 0 .344 0l1.008-1.003a.24.24 0 0 0 0-.343l-.033-.033a.243.243 0 0 0 -.344 0l-1.008 1.003a.24.24 0 0 0 0 .343" fill="#7a7a7a"/><circle cx="12.936" cy="12.933" fill="#5e5f60" r=".564"/><path d="m13.742 9.045c2.168.437 3.57 2.54 3.131 4.697a3.98 3.98 0 0 1 -1.838 2.61l-.132-.349a.08.08 0 0 0 -.1-.045.1.1 0 0 0 -.033.023l-1.039 1.254a.078.078 0 0 0 .048.126l1.614.263a.077.077 0 0 0 .089-.065.1.1 0 0 0 -.004-.039l-.193-.516a4.67 4.67 0 0 0 2.176-2.766 4.065 4.065 0 0 0 -2.787-5.038 4 4 0 0 0 -.933-.156z" fill="#86d633"/></svg>