<svg height="24" width="24" xmlns="http://www.w3.org/2000/svg"><path d="m11.85 7a5.1 5.1 0 1 0 5.1 5.1 5.1 5.1 0 0 0 -5.1-5.1m0 9.08a4 4 0 1 1 4-4 4 4 0 0 1 -4 4.01z" fill="#4285f4"/><path d="m13.77 12.71a2 2 0 0 0 -.28-.22 3.11 3.11 0 0 0 -2.61-.28 2.3 2.3 0 0 0 -.89.47.86.86 0 0 0 -.37.65v1h4.47v-.82a1 1 0 0 0 -.32-.8m-1.92-1.18a1.16 1.16 0 1 0 -1.17-1.15 1.17 1.17 0 0 0 1.17 1.15" fill="#669df6"/><path d="m20.78 10.72h-1.04l.77.77h-2.21v.9h2.21l-.77.78h1.04l1.22-1.23z" fill="#aecbfa"/><path d="m17.54 8.5.64.64.98-.97v1.09l.73-.74v-1.73h-1.73l-.73.74h1.09zm1.62 7.33-.98-.97-.64.63.98.98h-1.09l.73.73h1.73v-1.73l-.73-.73zm-15.81-5.18a1.35 1.35 0 1 0 1.36 1.35 1.35 1.35 0 0 0 -1.36-1.35m0 2.1a.76.76 0 1 1 .76-.75.76.76 0 0 1 -.76.75" fill="#669df6"/></svg>