<svg height="64" viewBox="0 0 64 64" width="64" xmlns="http://www.w3.org/2000/svg"><g fill="none" fill-rule="evenodd"><path d="m0 0h64v64h-64z" fill="#ed7100"/><path d="m11 24.997h2v-2h-2zm31-3c0-.551-.448-1-1-1h-32c-.552 0-1 .449-1 1v4c0 .55.448 1 1 1h32c.552 0 1-.45 1-1zm2 0v4c0 1.654-1.346 3-3 3h-32c-1.654 0-3-1.346-3-3v-4c0-1.654 1.346-3 3-3h32c1.654 0 3 1.346 3 3m-29 3h6v-2h-6zm8 0h16v-2h-16zm-16.885-15.511a1 1 0 0 1 -.746 1.088c-1.258.32-3.369 1.31-3.369 4.336q0 .15.008.295c.066 1.385.561 3.754 3.126 4.1l-.268 1.983c-2.879-.389-4.694-2.625-4.856-5.982a7 7 0 0 1 -.01-.396c0-2.862 1.504-5.06 4.068-6.024l-.003-.232c0-3.281 2.201-6.686 5.118-7.922 3.409-1.445 7.021-.726 9.66 1.92a9.6 9.6 0 0 1 1.76 2.463 3.99 3.99 0 0 1 3.27-.47c1.69.495 2.847 1.976 3.181 4.024 1.789.431 4.946 1.826 4.946 7.811h-2c0-5.294-2.73-5.763-4.042-5.99a1 1 0 0 1 -.827-1.078c-.126-1.488-.802-2.55-1.819-2.846-.828-.241-1.72.085-2.271.832a1.001 1.001 0 0 1 -1.747-.26c-.437-1.233-1.065-2.267-1.868-3.073-.98-.984-3.672-3.096-7.464-1.49-2.149.91-3.897 3.637-3.897 6.08q.001.423.05.83" fill="#fff" transform="translate(10 18)"/></g></svg>