<svg viewBox="0 0 24 24" xmlns="http://www.w3.org/2000/svg"><path d="m0 0v7.32h7.32v-7.32zm8.34 0v7.32h7.32v-7.32zm8.34 0v7.32h7.32v-7.32zm-15.075 1.266h4.106v1.064h-1.4v3.725h-1.256v-3.725h-1.45v-1.065zm9.77 0h1.256v4.784h-1.256zm6.814 0h1.692l1.455 3.289v-3.29h1.158v4.79h-1.674l-1.47-3.26v3.255h-1.16v-4.784zm-18.189 7.074v7.32h7.32v-7.32zm8.34 0v7.32h7.32v-7.32zm8.34 0v7.32h7.32v-7.32zm-6.32 1.265h3.19v.965h-1.935v.92h1.885v.92h-1.885v1.065h2.03v.916h-3.286v-4.786zm8.16 0h1.906c1.075 0 1.719.495 1.719 1.315 0 .535-.284.935-.8 1.135.22.14.35.37.485.705l.645 1.625h-1.35l-.006.006-.433-1.221c-.2-.535-.287-.664-.702-.664h-.254v1.885h-1.21zm-16.924.005h1.26v1.756l1.444-1.756h1.51l-2.022 2.25 2.182 2.536h-1.58l-1.541-1.94v1.94h-1.253v-4.787zm18.134.916v1.065h.334c.375 0 .827-.095.827-.57 0-.36-.226-.495-.801-.495zm-19.73 6.154v7.32h7.32v-7.32zm8.34 0v7.32h7.32v-7.32zm8.34 0v7.32h7.32v-7.32zm-12.42 1.2c.375 0 .815.066 1.17.17l.09.024-.055 1.022-.16-.067a2.415 2.415 0 0 0 -.89-.174c-.876 0-1.466.555-1.466 1.485s.54 1.484 1.446 1.484c.35 0 .66-.06.925-.18l-.006-.003.16-.07.055.993-.08.032c-.33.13-.753.199-1.193.199-.765 0-1.411-.22-1.871-.635-.475-.43-.73-1.06-.73-1.82 0-1.425 1.095-2.46 2.605-2.46zm6.996.07h1.484l1.824 4.784h-1.304l-.4-1.16h-1.76l-.41 1.16h-1.255l1.82-4.785zm6.965 0h1.718c1.625 0 2.522.825 2.522 2.325v.004c0 1.535-.992 2.455-2.647 2.455h-1.593zm1.26.915v2.95h.195c.975 0 1.488-.55 1.488-1.54 0-.895-.49-1.41-1.375-1.41h-.309zm-7.5.19-.596 1.6h1.17l-.575-1.6z"/></svg>