<svg viewBox="0 0 24 24" xmlns="http://www.w3.org/2000/svg" fill="#87E64B"><path d="m16.156 0a2.7 2.7 0 0 0 -1.886.8l-10.27 10.453c-.382.42-.558.978-.453 1.57.176.945 1.116 1.571 2.06 1.399l5.54-1.13c.12-.025.183.136.082.204l-6.141 3.934c-.769.487-1.119 1.36-.875 2.234.244 1.151 1.398 1.814 2.516 1.537l9.183-2.26a.11.11 0 0 1 .113.176l-1.433 1.77c-.383.487.244 1.15.77.767l4.716-3.877c.84-.697.281-2.062-.803-1.957l-.011-.004-6.047.65a.111.111 0 0 1 -.08-.199l5.918-4.609c.382-.315.628-.801.523-1.326-.105-.803-.767-1.328-1.607-1.223l-6.43.942c-.112.015-.174-.128-.084-.2l6.375-4.867c1.256-.978 1.36-2.898.209-4.015a2.6 2.6 0 0 0 -1.885-.769m-3.056 21.855a1.07 1.07 0 0 0 -1.073 1.073 1.07 1.07 0 0 0 1.073 1.072 1.07 1.07 0 0 0 1.072-1.072 1.07 1.07 0 0 0 -1.072-1.073"/></svg>