<svg height="48" viewBox="0 0 48 48" width="48" xmlns="http://www.w3.org/2000/svg"><path d="m38 26c-1.103 0-2-.897-2-2s.897-2 2-2 2 .897 2 2-.897 2-2 2m0-6c-2.206 0-4 1.794-4 4s1.794 4 4 4 4-1.794 4-4-1.794-4-4-4m-9 9h-10v-10h10zm2-6v-6h-6v-3h-2v3h-6v6h-3v2h3v6h6v3h2v-3h6v-6h3v-2zm-21 3c-1.103 0-2-.897-2-2s.897-2 2-2 2 .897 2 2-.897 2-2 2m0-6c-2.206 0-4 1.794-4 4s1.794 4 4 4 4-1.794 4-4-1.794-4-4-4m14 16c1.103 0 2 .897 2 2s-.897 2-2 2-2-.897-2-2 .897-2 2-2m-4 2c0 2.206 1.794 4 4 4s4-1.794 4-4-1.794-4-4-4-4 1.794-4 4m4-26c-1.103 0-2-.897-2-2s.897-2 2-2 2 .897 2 2-.897 2-2 2m4-2c0-2.206-1.794-4-4-4s-4 1.794-4 4 1.794 4 4 4 4-1.794 4-4m-4 33.5c-10.752 0-19.5-8.748-19.5-19.5s8.748-19.5 19.5-19.5 19.5 8.748 19.5 19.5-8.748 19.5-19.5 19.5m0-41c-11.855 0-21.5 9.645-21.5 21.5s9.645 21.5 21.5 21.5 21.5-9.645 21.5-21.5-9.645-21.5-21.5-21.5" fill="#7aa116" fill-rule="evenodd"/></svg>