<svg height="56" viewBox="0 0 161 56" width="161" xmlns="http://www.w3.org/2000/svg"><path clip-rule="evenodd" d="m143.1 40.2c3.1 0 5.7 2.5 5.7 5.6v8.9c0 .9-.7 1.3-1.3 1.3-.7 0-1.3-.4-1.3-1.3v-8.9c0-1.7-1.3-3-3-3s-3 1.3-3 3v8.9c0 .9-.7 1.3-1.3 1.3-.7 0-1.3-.4-1.3-1.3v-8.9c-.2-3.1 2.3-5.6 5.5-5.6m12.9 0c1.6 0 3.4.9 4.2 2.3.1.2.2.5.2.7 0 .7-.6 1.3-1.3 1.3-.4 0-.7-.2-1-.6-.5-.7-1.2-1.1-2.1-1.1-1.3 0-2 .8-2 1.7 0 2.6 7 1.7 7 7 0 2.9-2.5 4.6-5.1 4.6-1.5 0-3.4-.7-4.2-2-.2-.3-.2-.5-.2-.8 0-.7.6-1.3 1.3-1.3.3 0 .7.2 1 .6.6.7 1.4.9 2.2.9 1.8 0 2.6-1.1 2.6-2 0-3.2-7-2-7-7-.1-2.9 2.3-4.3 4.4-4.3m-93.6 0c1.6 0 3.4.9 4.2 2.3.1.2.2.5.2.7 0 .7-.6 1.3-1.3 1.3-.4 0-.7-.2-1-.6-.5-.7-1.2-1.1-2.1-1.1-1.4 0-2.1.8-2.1 1.7 0 2.6 7 1.7 7 7 0 2.9-2.5 4.6-5.1 4.6-1.5 0-3.4-.7-4.2-2-.2-.3-.2-.5-.2-.8 0-.7.7-1.3 1.3-1.3.3 0 .7.2 1 .6.5.7 1.4.9 2.2.9 1.8 0 2.6-1.1 2.6-2 0-3.2-7-2-7-7-.1-2.9 2.3-4.3 4.5-4.3m13.3 0c3.1 0 5.7 2.5 5.7 5.5v4.7c0 3-2.5 5.5-5.7 5.5-3.1 0-5.7-2.5-5.7-5.5v-4.7c0-3 2.5-5.5 5.7-5.5m9.6-5.2c.6 0 1.3.4 1.3 1.3v15c0 .8.2 1.8 1 2.3.6.2.8.7.8 1.1 0 .7-.5 1.3-1.2 1.3-.2 0-.3-.1-.5-.1 0 0-.2-.1-.5-.3-1.5-.9-2.1-2.7-2.1-4.4v-15c-.1-.8.5-1.2 1.2-1.2m14.9 5.2c.7 0 1.3.4 1.3 1.3v8.9c0 3.1-2.5 5.6-5.7 5.6s-5.7-2.5-5.7-5.6v-8.9c0-.9.7-1.3 1.3-1.3.7 0 1.3.4 1.3 1.3v8.9c0 1.7 1.3 3 3 3s3-1.3 3-3v-8.9c.2-.8.8-1.3 1.5-1.3m28 0c3.1 0 5.7 2.5 5.7 5.5v4.7c0 3-2.5 5.5-5.7 5.5-3.1 0-5.7-2.5-5.7-5.5v-4.7c0-3 2.5-5.5 5.7-5.5m-20.5-3.5c.6 0 1.3.4 1.3 1.3v2.7h4.1c.9 0 1.3.6 1.3 1.3 0 .6-.4 1.3-1.3 1.3h-4.1v8.7c0 .8.6 1.5 1.9 1.5 1.2 0 1.7-.9 2.5-.9.9 0 1.3.7 1.3 1.4 0 .5-.4.8-.7 1.1-.9.6-2 1-3.1 1-2.5 0-4.4-1.7-4.4-4.1v-8.7h-1.8c-.9 0-1.3-.6-1.3-1.3 0-.6.4-1.3 1.3-1.3h1.8v-2.7c-.1-.8.5-1.3 1.2-1.3m10.4 4.1c.7 0 1.3.4 1.3 1.3v12.7c0 .8-.7 1.3-1.3 1.3s-1.3-.4-1.3-1.3v-12.8c0-.8.7-1.2 1.3-1.2m-95.8-39.1c1-2.3 4.3-2.3 5.3 0l22 50.2c.8 1.9-.6 4.1-2.7 4.1-1.2 0-2.2-.7-2.7-1.8l-16.6-38.9c-1-2.4-4.4-2.3-5.4 0l-11.3 27.2c-1 2.4 1.3 4.7 3.7 3.8l8.8-3.9c1.1-.4 2.3-.2 3.1.7l.1.1c1.5 1.5.9 4-1.1 4.7l-20.8 7.8c-.8.3-2 .2-2 .2-2.1 0-3.5-2.1-2.7-4.1zm105.9 41.1c-1.7 0-3 1.3-3 2.9v4.7c0 1.6 1.3 2.9 3 2.9s3-1.3 3-2.9v-4.7c0-1.6-1.3-2.9-3-2.9m-52.5 0c-1.7 0-3 1.3-3 2.9v4.7c0 1.6 1.3 2.9 3 2.9s3-1.3 3-2.9v-4.7c0-1.6-1.3-2.9-3-2.9m42.4-7.8c1 0 1.8.8 1.8 1.7s-.8 1.7-1.8 1.7-1.8-.8-1.8-1.7c.1-.9.9-1.7 1.8-1.7m-55.9-18.4c3.2 0 5.2 2 5.2 4.9v5.9c0 3-2.5 4.9-5.2 4.9s-5.3-1.6-5.3-4.6c0-2.8 2.4-4.2 4.9-4.7l3-.6v-.8c0-1.4-.8-2.4-2.6-2.4-1.9 0-2.1 1.6-3.4 1.6-.7 0-1.3-.5-1.3-1.3 0-.4.2-.8.5-1.1 1-1.2 2.6-1.8 4.2-1.8m18.7 0c.7 0 1.3.5 1.3 1.3 0 .2 0 .3-.1.5l-4.8 12.9c-.3.7-.7 1-1.2 1s-.9-.3-1.2-1l-4.8-12.9c-.1-.2-.1-.4-.1-.5 0-.8.7-1.3 1.3-1.3.5 0 .9.2 1.1.8l3.7 10 3.6-10c.3-.5.8-.8 1.2-.8m20.2 0c.7 0 1.3.5 1.3 1.3 0 .2 0 .3-.1.5l-4.8 12.9c-.3.7-.7 1-1.2 1s-.9-.3-1.2-1l-4.8-12.9c-.1-.2-.1-.4-.1-.5 0-.8.7-1.3 1.3-1.3.5 0 .9.2 1.1.8l3.7 10 3.6-10c.2-.5.7-.8 1.2-.8m8.3 0c3.2 0 5.2 2 5.2 4.9v5.9c0 3-2.5 4.9-5.2 4.9s-5.3-1.6-5.3-4.6c0-2.8 2.4-4.2 4.9-4.7l3-.6v-.8c0-1.4-.8-2.4-2.6-2.4-1.9 0-2.1 1.6-3.4 1.6-.7 0-1.3-.5-1.3-1.3 0-.4.2-.8.5-1.1 1.1-1.2 2.7-1.8 4.2-1.8m-23.7-.3c.7 0 1.3.4 1.3 1.3v12.7c0 .8-.7 1.3-1.3 1.3-.7 0-1.3-.4-1.3-1.3v-12.8c0-.8.7-1.2 1.3-1.2m-20.9 8.5-2.8.7c-1.7.4-2.6 1.3-2.6 2.3 0 1.2.9 2.1 2.6 2.1 1.6 0 2.7-1 2.7-2.4v-2.7zm47.2 0-2.7.6c-1.7.4-2.6 1.3-2.6 2.3 0 1.2.9 2.1 2.6 2.1 1.6 0 2.7-1 2.7-2.4zm-26.3-14.3c1 0 1.8.8 1.8 1.7s-.8 1.7-1.8 1.7-1.7-.8-1.7-1.7.8-1.7 1.7-1.7" fill="#1672f3" fill-rule="evenodd"/></svg>