<svg viewBox="0 0 24 24" xmlns="http://www.w3.org/2000/svg" fill="#1769AA"><path d="m2.8571 19.4286v-9.7863c.232-.06.4583-.1577.6703-.2949l1.6156-1.0451v9.9834h4.5714v2.2857h-5.7144c-.6309 0-1.1429-.512-1.1429-1.1428zm7.4286-8.5714c0-.9463.768-1.7143 1.7143-1.7143s1.7143.768 1.7143 1.7143c0 .9511-.7751 1.7142-1.7143 1.7142s-1.7143-.7631-1.7143-1.7142zm-5.1428-8v-1.7143c0-.6309.512-1.1429 1.1428-1.1429.6309 0 1.1429.512 1.1429 1.1429v.2354zm9.1428 15.4285h4.5715v-9.9834l1.6154 1.0451c.212.1372.4383.2349.6703.2949v9.7863c0 .6308-.512 1.1429-1.1429 1.1429h-5.7143zm-.0034-17.0274 8.0531 5.2109c.5292.3428.6812 1.0508.3383 1.5805-.3428.5292-1.0508.6812-1.5805.3383l-8.0412-5.2034.1897-.1229c.64-.4143 1.004-1.0954 1.0406-1.8034zm-2.9034-1.0749c.5297-.3428 1.2377-.1908 1.5805.3383.3429.5297.1909 1.2377-.3383 1.5806l-9.7141 6.2857c-.5298.3429-1.2378.1909-1.5806-.3383-.3429-.5297-.1909-1.2377.3383-1.5805zm2.6005 22.1023h8.0206c.4732 0 .8572.384.8572.8572a.8575.8575 0 0 1 -.8572.8571h-20a.8575.8575 0 0 1 -.8571-.8571c0-.4732.384-.8572.8571-.8572h8.0206c.3954.6829 1.1343 1.1429 1.9794 1.1429s1.584-.46 1.9794-1.1429zm-.8365-8.8097v7.6669c0 .6308-.512 1.1428-1.1429 1.1428s-1.1429-.512-1.1429-1.1428v-7.6669a2.8453 2.8453 0 0 0 1.143.2383c.4062 0 .7925-.0851 1.1428-.2383z"/></svg>