<svg height="66.143" viewBox="0 0 18.035 17.5" width="68.165" xmlns="http://www.w3.org/2000/svg"><g transform="translate(-.993 -1.174)"><g transform="matrix(1.01489 0 0 1.01489 16.902 -2.699)"><path d="m-6.85 4.272a1.12 1.11 0 0 0 -.428.109l-5.852 2.796a1.12 1.11 0 0 0 -.606.753l-1.444 6.282a1.12 1.11 0 0 0 .152.85 1.12 1.11 0 0 0 .064.089l4.05 5.037a1.12 1.11 0 0 0 .876.417l6.496-.001a1.12 1.11 0 0 0 .875-.417l4.049-5.038a1.12 1.11 0 0 0 .216-.939l-1.446-6.28a1.12 1.11 0 0 0 -.605-.753l-5.854-2.797a1.12 1.11 0 0 0 -.542-.109" fill="#326ce5"/><path d="m-6.852 3.818a1.181 1.172 0 0 0 -.452.115l-6.18 2.951a1.181 1.172 0 0 0 -.638.795l-1.524 6.63a1.181 1.172 0 0 0 .16.9 1.181 1.172 0 0 0 .067.093l4.276 5.317a1.181 1.172 0 0 0 .924.44h6.858a1.181 1.172 0 0 0 .923-.44l4.275-5.319a1.181 1.172 0 0 0 .228-.99l-1.525-6.633a1.181 1.172 0 0 0 -.64-.795l-6.178-2.95a1.181 1.172 0 0 0 -.573-.115m.003.455a1.12 1.11 0 0 1 .542.108l5.853 2.795a1.12 1.11 0 0 1 .606.753l1.446 6.281a1.12 1.11 0 0 1 -.216.94l-4.05 5.037a1.12 1.11 0 0 1 -.875.417l-6.496.001a1.12 1.11 0 0 1 -.875-.417l-4.05-5.037a1.12 1.11 0 0 1 -.064-.088 1.12 1.11 0 0 1 -.152-.851l1.444-6.281a1.12 1.11 0 0 1 .605-.753l5.853-2.797a1.12 1.11 0 0 1 .429-.108" fill="#fff"/></g><path d="m9.49 5.352a4.193 4.193 0 0 0 -4.192 4.19 4.193 4.193 0 0 0 4.191 4.192 4.2 4.2 0 0 0 1.473-.271v-.988c0-.336.275-.9.61-.9v-.916c0-.46.685-1.237 1.528-1.237.206 0 .401.042.58.116a4.193 4.193 0 0 0 -4.19-4.186m.837 1.466 1.467 1.467h-1.047v1.677h-.839v-1.677h-1.047zm-2.095 2.305h.838v1.677h1.048l-1.468 1.467-1.466-1.467h1.048zm4.974 1.04c-.599 0-1.084.486-1.084 1.084v.65a.434.434 0 0 0 -.433.433v1.734c0 .239.194.433.433.433h2.167a.434.434 0 0 0 .433-.433v-1.734a.434.434 0 0 0 -.433-.433v-.65c0-.598-.485-1.084-1.083-1.084m0 .433c.36 0 .65.291.65.65v.65h-1.3v-.65c0-.359.29-.65.65-.65" fill="#fff" stroke-width=".4191"/></g></svg>