<svg height="64" viewBox="0 0 64 64" width="64" xmlns="http://www.w3.org/2000/svg"><g fill="none" fill-rule="evenodd"><path d="m0 0h64v64h-64z" fill="#01a88d"/><path d="m50.58 47.23-9.73-9.466a16.8 16.8 0 0 1 -3.081 3.082l9.495 9.716c.807.805 2.032.318 2.827-.475.83-.832 1.266-2.08.488-2.856m-22.927-4.951c8.067 0 14.629-6.563 14.629-14.628s-6.562-14.628-14.63-14.628c-8.066 0-14.63 6.562-14.63 14.628s6.564 14.628 14.63 14.628m23.868 9.237c-.982.982-2.148 1.484-3.252 1.484a3.4 3.4 0 0 1 -2.443-1.016l-9.76-9.989a16.53 16.53 0 0 1 -8.413 2.306c-9.181-.001-16.651-7.471-16.651-16.651s7.47-16.651 16.653-16.651c9.181 0 16.652 7.47 16.652 16.65 0 3.07-.85 5.939-2.304 8.41l9.998 9.73c1.501 1.5 1.291 3.958-.478 5.726m-13.677-23.865c0-5.715-4.477-10.191-10.191-10.191s-10.193 4.476-10.193 10.19c0 5.715 4.477 10.191 10.192 10.191s10.19-4.476 10.19-10.19m2.023 0c0 6.849-5.365 12.213-12.214 12.213s-12.213-5.364-12.213-12.214 5.366-12.214 12.215-12.214 12.214 5.365 12.214 12.214m-15.614 2.508h-2.022v4.046h4.045v-2.023h-2.023zm-2.022-5.056h2.022v-2.022h2.023v-2.023h-4.045zm7.08-2.022h2.022v2.022h2.023v-4.045h-4.045zm2.022 7.078h2.023v4.046h-4.045v-2.023h2.022z" fill="#fff"/></g></svg>