<svg xmlns="http://www.w3.org/2000/svg" width="24" height="24"><path fill="currentColor" d="M14.462.391a8.33 8.33 0 0 0-8.91 2.586l3.945 3.316z"/><path fill="currentColor" d="M5.552 2.977a8.3 8.3 0 0 0-1.947 5.356 9.4 9.4 0 0 0 .824 3.976l5.068-6.016z"/><path fill="currentColor" d="M11.938 5.15a3.183 3.183 0 0 1 3.193 3.183 3.15 3.15 0 0 1-.762 2.06l4.964-5.902A8.36 8.36 0 0 0 14.461.37L9.497 6.293a3.16 3.16 0 0 1 2.441-1.143"/><path fill="currentColor" d="M11.938 11.526a3.193 3.193 0 0 1-3.193-3.193 3.16 3.16 0 0 1 .752-2.06l-5.068 6.035a29.6 29.6 0 0 0 3.78 5.408l6.18-7.323a3.16 3.16 0 0 1-2.451 1.133"/><path fill="currentColor" d="M14.256 19.714c2.78-4.346 6.015-6.324 6.015-11.33a8.34 8.34 0 0 0-.938-3.842L8.21 17.716c.474.618.948 1.277 1.411 1.998 1.7 2.616 1.226 4.182 2.318 4.182s.618-1.566 2.317-4.182"/></svg>