<svg height="24" width="24" xmlns="http://www.w3.org/2000/svg"><g transform="matrix(1.03 0 0 1.03 -.422 -.412)"><path d="m14.45.78a8.09 8.09 0 0 0 -8.65 2.51l3.83 3.22z" fill="#1a73e8"/><path d="m5.8 3.29a8.07 8.07 0 0 0 -1.89 5.2 9.1 9.1 0 0 0 .8 3.86l4.92-5.84z" fill="#ea4335"/><path d="m12 5.4a3.09 3.09 0 0 1 3.1 3.09 3.06 3.06 0 0 1 -.74 2l4.82-5.73a8.12 8.12 0 0 0 -4.73-4l-4.82 5.75a3.07 3.07 0 0 1 2.37-1.11" fill="#4285f4"/><path d="m12 11.59a3.1 3.1 0 0 1 -3.1-3.1 3.07 3.07 0 0 1 .73-2l-4.92 5.86a28.7 28.7 0 0 0 3.67 5.25l6-7.11a3.07 3.07 0 0 1 -2.38 1.1" fill="#fbbc04"/><path d="m14.25 19.54c2.7-4.22 5.84-6.14 5.84-11a8.1 8.1 0 0 0 -.91-3.73l-10.8 12.79c.46.6.92 1.24 1.37 1.94 1.65 2.54 1.19 4.06 2.25 4.06s.6-1.52 2.25-4.06" fill="#34a853"/></g></svg>