<svg viewBox="0 0 24 24" xmlns="http://www.w3.org/2000/svg"><path d="m24 22.665h-21.006c-.519 0-.838-.293-.835-.723.001.042.002-.148.003-.463.142-.083.283-.165.427-.247l.078-.045.07-.058.015-.013.127-.078 1.294-.804h1.134c3.35 0 11.817 0 16.548.007.159 0 .631 0 1.002-.371.371-.372.37-.853.37-1.011-.008-2.057-.001-4.109.005-6.16.008-2.39.016-4.86 0-7.298v-.063l.61-.007c.169-.003.143.197.143.296.014 5.68-.02 11.36.015 17.038zm-9.674-13.683c.006-.281.006-.56.006-.859-.009-.5-.395-1.055-.916-1.055-.435 0-.919.006-1.432.006v3.01h1.432c.52 0 .9-.584.91-1.102zm-10.439 10.252-.034-17.871.007-.025.026-.003h17.313c.51.232.943.56 1.033 1.16.023 1.052 0 1.896 0 2.854.001.023-.002.036 0 .059.03 4.489-.022 8.963-.005 13.453 0 .285-.072.38-.37.38-5.99-.008-17.97-.007-17.97-.007zm5.624-3.971h2.395l.057-.051v-3.5c.316.001.57-.005.787-.005.075 0 .348.075.449.286.36.757.692 1.531 1.125 2.25.583.967 1.704 1.204 2.469 1.204.528 0 .528-.024.528-.245 0-.423-.006-.935-.006-1.374-.403-.039-.734-.163-.929-.541-.362-.705-.74-1.401-1.119-2.114.248-.072.218-.057.302-.092.859-.357 1.139-.951 1.213-1.71.05-.503.059-1.144.025-1.395-.112-.833-.378-1.454-1.036-1.932-.773-.562-1.678-.657-2.582-.687a62.395 62.395 0 0 0 -3.678.012zm-5.658-13.9c-2.222 1.277-2.873 1.724-3.63 2.15-.198.109-.223.382-.223.587l.02 17.45c.575-.357 3.293-1.96 3.867-2.316l-.034-17.871z"/></svg>