<svg height="64" viewBox="0 0 64 64" width="64" xmlns="http://www.w3.org/2000/svg"><g fill="none" fill-rule="evenodd"><path d="m0 0h64v64h-64z" fill="#ed7100"/><path d="m30.726 29.922c-.447.26-.726.745-.726 1.263v20.35l-15-8.677v-19.848l17.172-9.933 14.916 7.38zm18.978-9.502c0-.518-.278-1-.783-1.288l-16.042-7.936a1.45 1.45 0 0 0 -1.451-.002l-17.699 10.24c-.449.259-.729.743-.729 1.263v20.476c0 .518.279 1.001.728 1.262l16.088 9.306a1.45 1.45 0 0 0 1.456.001c.449-.259.728-.743.728-1.263v-20.98l16.978-9.821c.448-.259.726-.74.726-1.258m.296 22.521-12.996 8.592v-7.123l6.599-4.994c.25-.19.397-.486.397-.8v-8.136l6-3.474zm1.273-18.142a1.45 1.45 0 0 0 -1.456 0l-6.938 4.014c-.24.13-.879.475-.879 1.217v8.087l-6.337 4.796a1.47 1.47 0 0 0 -.659 1.221v8.412c0 .52.28 1.004.729 1.264.218.125.462.19.712.19.264 0 .537-.072.794-.222l14.036-9.28c.447-.26.725-.744.725-1.262v-17.173c0-.52-.279-1.004-.727-1.264" fill="#fff"/></g></svg>