<svg height="18" viewBox="0 0 18 18" width="18" xmlns="http://www.w3.org/2000/svg" xmlns:xlink="http://www.w3.org/1999/xlink"><linearGradient id="a" gradientUnits="userSpaceOnUse" x1="10.275" x2="10.275" y1="11.03" y2="7.773"><stop offset="0" stop-color="#0078d4"/><stop offset="1" stop-color="#5ea0ef"/></linearGradient><g fill="#a3a3a3"><path d="m.613.993h1.363v3.782a.306.306 0 0 1 -.306.306h-1.363a.306.306 0 0 1 -.307-.306v-3.169a.6.6 0 0 1 .592-.613z"/><path d="m.613.993h1.363v3.782a.306.306 0 0 1 -.306.306h-1.363a.306.306 0 0 1 -.307-.306v-3.169a.6.6 0 0 1 .592-.613z" opacity=".5"/><path d="m16.025.993h1.362a.6.6 0 0 1 .6.6v3.18a.306.306 0 0 1 -.306.306h-1.35a.306.306 0 0 1 -.306-.306z"/><path d="m16.025.993h1.362a.6.6 0 0 1 .6.6v3.18a.306.306 0 0 1 -.306.306h-1.35a.306.306 0 0 1 -.306-.306z" opacity=".5"/></g><path d="m17.989 1.585v1.32h-17.957v-1.32a.6.6 0 0 1 .6-.6h16.755a.6.6 0 0 1 .602.6" fill="#949494"/><path d="m.307 12.9h1.363a.306.306 0 0 1 .306.306v3.813h-1.363a.6.6 0 0 1 -.613-.593v-3.201a.306.306 0 0 1 .285-.325z" fill="#a3a3a3"/><path d="m.307 12.9h1.363a.306.306 0 0 1 .306.306v3.813h-1.363a.6.6 0 0 1 -.613-.593v-3.201a.306.306 0 0 1 .285-.325z" fill="#a3a3a3" opacity=".5"/><path d="m16.331 12.9h1.363a.306.306 0 0 1 .306.3v3.169a.6.6 0 0 1 -.6.6h-1.375v-3.75a.306.306 0 0 1 .284-.327z" fill="#a3a3a3"/><path d="m16.331 12.9h1.363a.306.306 0 0 1 .306.3v3.169a.6.6 0 0 1 -.6.6h-1.375v-3.75a.306.306 0 0 1 .284-.327z" fill="#a3a3a3" opacity=".5"/><path d="m0 16.415v-1.315h17.958v1.32a.6.6 0 0 1 -.6.6h-16.758a.6.6 0 0 1 -.6-.605" fill="#949494"/><path d="m12.919 11.292a.1.1 0 0 0 .082-.04l2.14-2.128a.234.234 0 0 0 0-.318l-2.14-2.163a.1.1 0 0 0 -.148-.02.11.11 0 0 0 -.04.1v1.331a.106.106 0 0 1 -.093.117h-4.984a1.24 1.24 0 0 0 -.976-.482c-.042 0-.083-.006-.124-.006a1.294 1.294 0 0 0 -.122 2.582h.246a1.27 1.27 0 0 0 .988-.494h4.963a.106.106 0 0 1 .105.094v1.318a.107.107 0 0 0 .103.109" fill="url(#a)"/><path d="m8.886 10.57a2.747 2.747 0 1 1 -.01-3.2h1.49a4.04 4.04 0 1 0 .006 3.2z" fill="#773adc"/>​</svg>