<svg height="48" viewBox="0 0 48 48" width="48" xmlns="http://www.w3.org/2000/svg"><path d="m44 37.5c0 .827-.673 1.5-1.5 1.5s-1.5-.673-1.5-1.5.673-1.5 1.5-1.5 1.5.673 1.5 1.5m-1.5-21.499c.827 0 1.5.673 1.5 1.5s-.673 1.5-1.5 1.5-1.5-.673-1.5-1.5.673-1.5 1.5-1.5m-32.5 25.999h22v-30h-22zm-2-31v25h-4v-30h22v4h-17a1 1 0 0 0 -1 1m34.5 15.001c.827 0 1.5.673 1.5 1.5s-.673 1.5-1.5 1.5-1.5-.673-1.5-1.5.673-1.5 1.5-1.5m0 5c1.93 0 3.5-1.57 3.5-3.5s-1.57-3.5-3.5-3.5a3.5 3.5 0 0 0 -3.149 2h-3.147l4.719-5.393a3.45 3.45 0 0 0 1.577.393c1.93 0 3.5-1.57 3.5-3.5s-1.57-3.5-3.5-3.5-3.5 1.57-3.5 3.5c0 .63.181 1.214.474 1.725l-5.474 6.256v-14.482a1 1 0 0 0 -1-1h-5v-5a1 1 0 0 0 -1-1h-24a1 1 0 0 0 -1 1v32a1 1 0 0 0 1 1h5v5a1 1 0 0 0 1 1h24a1 1 0 0 0 1-1v-14.372l5.508 7.083a3.47 3.47 0 0 0 -.508 1.789c0 1.93 1.57 3.5 3.5 3.5s3.5-1.57 3.5-3.5-1.57-3.5-3.5-3.5c-.543 0-1.052.135-1.511.357l-4.944-6.356h3.006c.245 1.692 1.691 3 3.449 3m-22.5 5.999h10v-2h-10zm0-9h10v-2h-10zm0-9h10v-2h-10zm-6 18h2v-2h-2zm-1 2h4a1 1 0 0 0 1-1v-4a1 1 0 0 0 -1-1h-4a1 1 0 0 0 -1 1v4a1 1 0 0 0 1 1m1-11h2v-2h-2zm-1 2h4a1 1 0 0 0 1-1v-4a1 1 0 0 0 -1-1h-4a1 1 0 0 0 -1 1v4a1 1 0 0 0 1 1m1-11h2v-2h-2zm-1 2h4a1 1 0 0 0 1-1v-4a1 1 0 0 0 -1-1h-4a1 1 0 0 0 -1 1v4a1 1 0 0 0 1 1" fill="#ed7100" fill-rule="evenodd"/></svg>