<svg height="48" viewBox="0 0 48 48" width="48" xmlns="http://www.w3.org/2000/svg"><path d="m17 29h4v-2h-4zm10 0h6v-2h-6zm0-3h6v-2h-6zm-7 0h3v-2h-3zm-5 0h3v-2h-3zm18-6v-3h1.632c.199 0 .368.168.368.368v2.632zm2 10.632c0 .2-.169.368-.368.368h-21.264a.373.373 0 0 1 -.368-.368v-8.632h22zm-21.632-13.632h1.632v3h-2v-2.632c0-.2.169-.368.368-.368m3.632 3h2v-3h-2zm4 0h2v-3h-2zm4 0h2v-3h-2zm4 0h2v-3h-2zm5.632-5h-21.264a2.37 2.37 0 0 0 -2.368 2.368v13.264a2.37 2.37 0 0 0 2.368 2.368h21.264a2.37 2.37 0 0 0 2.368-2.368v-13.264a2.37 2.37 0 0 0 -2.368-2.368m4.368 22.865c0 .626-.509 1.135-1.135 1.135h-27.73a1.136 1.136 0 0 1 -1.135-1.135v-27.73c0-.626.509-1.135 1.135-1.135h27.73c.626 0 1.135.509 1.135 1.135zm7-22.865v-2h-5v-2.865a3.14 3.14 0 0 0 -3.135-3.135h-2.865v-5h-2v5h-3v-5h-2v5h-3v-5h-2v5h-3v-5h-2v5h-3v-5h-2v5h-2.865a3.14 3.14 0 0 0 -3.135 3.135v2.865h-5v2h5v3h-5v2h5v3h-5v2h5v3h-5v2h5v3h-5v2h5v2.865a3.14 3.14 0 0 0 3.135 3.135h2.865v5h2v-5h3v5h2v-5h3v5h2v-5h3v5h2v-5h3v5h2v-5h2.865a3.14 3.14 0 0 0 3.135-3.135v-2.865h5v-2h-5v-3h5v-2h-5v-3h5v-2h-5v-3h5v-2h-5v-3z" fill="#7aa116" fill-rule="evenodd"/></svg>