<svg height="18" viewBox="0 0 18 18" width="18" xmlns="http://www.w3.org/2000/svg"><path d="m9.082 14.677h3.345a1.2 1.2 0 0 0 1.2-1.2v-6.406" fill="none" stroke="#a3a3a3" stroke-miterlimit="10" stroke-width="1.2"/><path d="m4.973 13.084 3.681-2.126a1.5 1.5 0 0 0 -.332-.26l-2.601-1.502a1.5 1.5 0 0 0 -.499-.177c-.339-.057-.693 0-1.001.177l-2.6 1.502a1.496 1.496 0 0 0 -.75 1.298c0-.392.154-.762.42-1.038z" fill="#66c0ff"/><path d="m9.05 11.744q-.006-.039-.016-.078-.015-.058-.034-.115a1.4 1.4 0 0 0 -.103-.246q-.022-.047-.049-.093-.021-.034-.044-.066a1.5 1.5 0 0 0 -.15-.188h-.002l-3.681 2.126v4.905h.081c.091-.005.183-.013.272-.034l.067-.018q.173-.046.332-.135l2.6-1.502a1.5 1.5 0 0 0 .75-1.299v-3.003q-.002-.129-.024-.252z" fill="#4894fe"/><path d="m4.973 13.084-3.682-2.126c-.266.276-.42.646-.42 1.039v3.002a1.5 1.5 0 0 0 .75 1.299l2.6 1.502q.01.005.019.009c.081.045.167.075.253.103a1.5 1.5 0 0 0 .394.075q.043.002.087 0v-4.903z" fill="#58aafe"/><path d="m13.102 4.086 3.615-2.126c.115.122.199.267.268.42-.018-.039-.028-.082-.049-.12l-.015-.026a2 2 0 0 0 -.092-.14l-.008-.011a2 2 0 0 0 -.105-.125h-.002a1.5 1.5 0 0 0 -.326-.259l-2.552-1.501a1.5 1.5 0 0 0 -.49-.177c-.333-.058-.681 0-.983.177l-2.552 1.501a1.5 1.5 0 0 0 -.324.259l3.615 2.126z" fill="#36dff1"/><path d="m13.102 4.086v-.002l-3.615-2.126a1.5 1.5 0 0 0 -.412 1.039v3.003c0 .536.28 1.031.736 1.298l2.552 1.501c.088.052.182.084.277.115a1.5 1.5 0 0 0 .388.073h.073v-4.902z" fill="#16bbda"/><path d="m16.985 2.38a1.5 1.5 0 0 0 -.268-.42l-3.615 2.126v4.902q.046.002.092 0a1.4 1.4 0 0 0 .331-.055 1.4 1.4 0 0 0 .297-.123l.019-.009 2.552-1.501c.455-.268.736-.763.736-1.298v-3.001a1.5 1.5 0 0 0 -.144-.619z" fill="#26cfe8"/></svg>