<svg height="24" width="24" xmlns="http://www.w3.org/2000/svg"><path d="m10.83 15.84h2.33v2.64h-2.33z" fill="#669df6"/><path d="m18.48 13.87a.56.56 0 0 1 -.4-.17l-4.08-4.23-2.74 2.89a.57.57 0 0 1 -.76.05l-2.08-1.68-2.2 2.92a.56.56 0 0 1 -.45.22h-3.77v1.71a.75.75 0 0 0 .74.75h18.52a.75.75 0 0 0 .74-.75v-1.71z" fill="#4285f4"/><path d="m5.5 12.76 2.38-3.16a.55.55 0 0 1 .37-.22.63.63 0 0 1 .42.12l2.12 1.72 2.8-2.94a.54.54 0 0 1 .4-.17.54.54 0 0 1 .4.17l4.33 4.48h3.28v-6.76a.74.74 0 0 0 -.74-.74h-18.52a.74.74 0 0 0 -.74.74v6.81z" fill="#669df6"/><rect fill="#4285f4" height=".61" rx=".3" width="6.67" x="8.67" y="18.18"/></svg>