<svg xmlns="http://www.w3.org/2000/svg" width="18" height="18" viewBox="0 0 18 18">
  <defs>
    <mask id="ko">
      <rect width="18" height="18" fill="white"/>
      <path fill="black" d="M6.47 5.3c-3.3 0-6-1-6-2.16v11.49c0 1.18 2.63 2.15 5.88 2.16h.09c3.29 0 6-1 6-2.16V3.14C12.43 4.33 9.76 5.3 6.47 5.3"/>
      <path fill="black" d="M11 3c0 .76-2 1.37-4.57 1.37S1.89 3.72 1.89 3s2.05-1.41 4.58-1.41S11 2.2 11 3"/>
      <path fill="black" d="M6.47 3.28a11 11 0 0 0-3.63.52 10.9 10.9 0 0 0 3.63.53 10.9 10.9 0 0 0 3.62-.53 11 11 0 0 0-3.62-.52"/>
      <path fill="black" d="M16.75 12.74a2.9 2.9 0 0 0-1.49-.74 3.24 3.24 0 0 0-3.34-3.1 3.35 3.35 0 0 0-3.2 2.17A3.06 3.06 0 0 0 6 14a3.12 3.12 0 0 0 3.22 3h5.65a2.61 2.61 0 0 0 2.59-2.51 2.46 2.46 0 0 0-.75-1.74"/>
      <path fill="black" d="M14.3 15.8h-.94v-3.43c0 .25-.1.44-.13.56l-1 2.87h-.78l-1-2.85a5 5 0 0 1-.13-.58v3.43h-.84v-4.23h1.4l.86 2.51a3.3 3.3 0 0 1 .15.6c.05-.23.11-.44.16-.61l.87-2.5h1.38z"/>
    </mask>
  </defs>
  <g>
    <path fill="currentColor" mask="url(#ko)" d="M12.43 3.14c0 1.19-2.67 2.16-6 2.16s-6-1-6-2.16S3.17 1 6.47 1s6 1 6 2.17"/>
  </g>
</svg>