<svg height="48" viewBox="0 0 48 48" width="48" xmlns="http://www.w3.org/2000/svg"><path d="m21.53 28.04-11.857-10.78-1.346 1.48 10.142 9.22-10.102 8.267 1.266 1.548zm-2.53 8.96h16v-2h-16zm19-19c0-.362-.198-.697-.515-.873l-8.485-4.714v-6.751l15 7.94v17.595l-6-3.75zm7.484 15.875a1 1 0 0 0 .516-.875v-20a1 1 0 0 0 -.533-.884l-17-9a.999.999 0 0 0 -1.467.884v9a1 1 0 0 0 .514.874l8.486 4.715v9.411a1 1 0 0 0 .469.848l8 5a1 1 0 0 0 1.015.026m-31.461-27.874h8.977v-2h-8.977zm29.977 38h-40c-1.088-.01-2-.925-2-2v-36c0-1.084.916-2 2-2h6v2h-6v36h40v-4h2v4c0 1.084-.916 2-2 2" fill="#ed7100" fill-rule="evenodd"/></svg>