<svg viewBox="0 0 24 24" xmlns="http://www.w3.org/2000/svg"><path d="m12 0a12 12 0 0 0 -12 12 12 12 0 0 0 12 12 12 12 0 0 0 12-12 12 12 0 0 0 -12-12zm0 1.688a10.312 10.312 0 0 1 10.312 10.312 10.312 10.312 0 0 1 -10.312 10.312 10.312 10.312 0 0 1 -10.312-10.312 10.312 10.312 0 0 1 10.312-10.312zm-4.742 5.232a.659.772 0 0 0 -.659.772v8.643a.603.603 0 0 0 .603.603h1.733a.603.603 0 0 0 .603-.603v-8.643a.659.772 0 0 0 -.658-.772zm6.94.001c-.975.005-1.93.005-2.867.002-.28 0-.474.254-.534.499a1.7 1.7 0 0 0 -.043.405c.004 2.854.007 5.677.007 8.47 0 .397.21.643.589.641 1.002-.004 1.967-.003 2.895 0 .058 0 .129.022.176.02.824-.018 1.552-.251 2.182-.698 2.02-1.43 2.554-4.264 1.662-6.47-.574-1.417-1.743-2.573-3.27-2.82a5.027 5.027 0 0 0 -.797-.049z"/></svg>