<svg viewBox="0 0 24 24" xmlns="http://www.w3.org/2000/svg"><path d="m11.9906 4.1957c-4.2998 0-7.7981 3.501-7.7981 7.8043s3.4983 7.8043 7.7981 7.8043c4.2999 0 7.7982-3.501 7.7982-7.8043s-3.4983-7.8043-7.7982-7.8043m0 11.843c-2.229 0-4.0356-1.8079-4.0356-4.0387s1.8065-4.0387 4.0356-4.0387 4.0356 1.8079 4.0356 4.0387-1.8065 4.0388-4.0356 4.0388m.6534-13.1249v-2.9139c6.3286.3386 11.356 5.5822 11.356 12s-5.0274 11.66-11.356 12v-2.9139c4.7167-.3372 8.4516-4.2814 8.4516-9.0861s-3.735-8.749-8.4516-9.0861m-7.531 15.0447c-1.2502-1.4446-2.0562-3.2845-2.2-5.3046h-2.913c.151 2.8266 1.2808 5.3917 3.051 7.3668l2.0606-2.0622zm6.2242 6.0414v-2.9139c-2.02-.1439-3.8584-.949-5.3019-2.2018l-2.0606 2.0623c1.975 1.773 4.538 2.9022 7.361 3.0534z"/></svg>