<svg xmlns="http://www.w3.org/2000/svg" width="655" height="264" fill="none" viewBox="0 0 655 264"><path fill="#000" d="M88.04 181q-15.06 0-24.546-4.795T48.672 164.05q-5.217-7.359-7.47-15.277-2.253-8.028-2.728-14.608-.474-6.579-.474-9.589V57h32.727v56.871q0 4.125.475 10.593.474 6.356 2.964 12.824t8.063 10.816q5.692 4.35 16.008 4.349 4.15 0 8.893-1.226 4.743-1.227 8.894-4.684 4.15-3.569 6.759-10.37 2.727-6.914 2.727-18.065l18.498 8.252q0 14.273-6.166 26.762t-18.617 20.184Q106.893 181 88.04 181"/><path fill="#000" d="M129.541 180v-42.489h-4.031V57H158v123zM392.04 181q-15.06 0-24.546-4.795t-14.822-12.155q-5.217-7.359-7.47-15.277-2.253-8.028-2.728-14.608-.474-6.579-.474-9.589V57h32.727v56.871q0 4.125.475 10.593.474 6.356 2.964 12.824t8.063 10.816q5.693 4.35 16.008 4.349 4.15 0 8.893-1.226 4.743-1.227 8.894-4.684 4.15-3.569 6.759-10.37 2.727-6.914 2.727-18.065l18.498 8.252q0 14.273-6.166 26.762t-18.617 20.184Q410.894 181 392.04 181m41.501-1v-42.489h-4.031V57H462v123z"/><path fill="#fe4200" d="M216.104 56.999h-39.986l51.664 61.441-51.634 61.546h40.006l51.679-61.531zM271.653 122.998l31.704 37.704.04-.057 16.248 19.292h-40.154l-27.874-33.15zM271.667 113.895l-20.075-23.836L308.618 22h39.986z"/><path fill="#000" d="M581.468 56.96H617L540.432 242h-36.533zM544.317 130.941 513.408 56.96h-36.032l49.066 116.286z"/></svg>