<svg height="48" viewBox="0 0 48 48" width="48" xmlns="http://www.w3.org/2000/svg"><path d="m44 38.5h2v-2h-2zm2-5.5v1.5h-2v-.5h-.5v-2h1.5a1 1 0 0 1 1 1m-32.5 1h3v-2h-3zm24 0h3v-2h-3zm-18 0h3v-2h-3zm-12 0h3v-2h-3zm24 0h3v-2h-3zm-6 0h3v-2h-3zm-22.5-2h1.5v2h-.5v.5h-2v-1.5a1 1 0 0 1 1-1m-1 6.5h2v-2h-2zm2 2.5h.5v2h-1.5a1 1 0 0 1 -1-1v-1.5h2zm15.5 2h3v-2h-3zm12 0h3v-2h-3zm6 0h3v-2h-3zm-30 0h3v-2h-3zm18 0h3v-2h-3zm-12 0h3v-2h-3zm30.5-2.5h2v1.5a1 1 0 0 1 -1 1h-1.5v-2h.5zm0-15h2v-2h-2zm2-5.5v1.5h-2v-.5h-.5v-2h1.5a1 1 0 0 1 1 1m-14.5 1h3v-2h-3zm-24 0h3v-2h-3zm30 0h3v-2h-3zm-24 0h3v-2h-3zm6 0h3v-2h-3zm6 0h3v-2h-3zm-22.5-2h1.5v2h-.5v.5h-2v-1.5a1 1 0 0 1 1-1m-1 6.5h2v-2h-2zm2 2.5h.5v2h-1.5a1 1 0 0 1 -1-1v-1.5h2zm15.5 2h3v-2h-3zm12 0h3v-2h-3zm-24 0h3v-2h-3zm6 0h3v-2h-3zm24 0h3v-2h-3zm-12 0h3v-2h-3zm18.5-2.5h2v1.5a1 1 0 0 1 -1 1h-1.5v-2h.5zm-40-12.5h40v-8h-40zm41-10h-42a1 1 0 0 0 -1 1v10a1 1 0 0 0 1 1h42a1 1 0 0 0 1-1v-10a1 1 0 0 0 -1-1" fill="#e7157b" fill-rule="evenodd"/></svg>