<svg xmlns="http://www.w3.org/2000/svg" preserveAspectRatio="xMidYMid" viewBox="0 0 256 256">
  <defs>
    <mask id="wko">
      <rect width="256" height="256" fill="white"/>
      <path fill="black" d="M69 177.8h60v10H69zM99 79V68H69.2v11h8.4v37.7h-8.4v11H99v-11h-8.3V79zm28.5 49.4.2.1c-4.1.2-8.1-.8-11.8-2.6a27 27 0 0 1-7.7-6.3l8.2-9.2c1.5 1.7 3.2 3.1 5.2 4.3 1.7 1.1 3.7 1.7 5.7 1.6 2.2.2 4.3-.7 5.8-2.3a11 11 0 0 0 2.2-7.5V68h13.3v39a27 27 0 0 1-1.5 9.4c-1.7 5-5.7 9-10.8 10.6-2.8 1-5.8 1.5-8.8 1.4"/>
    </mask>
  </defs>
  <g fill="currentColor" mask="url(#wko)">
    <path fill="currentColor" d="M40.5 180.6 2.9 150.8l22.1-41 33.3 11.1z"/>
    <path fill="currentColor" d="m256 68.2-4.6 148.3-98.6 39.5-53.7-34.7z"/>
    <path fill="currentColor" d="m256 68.2-48.8 47.6L144.5 39l31-34.8z"/>
    <path fill="currentColor" d="m99.1 221.3-78.5 28.4 16.5-57.5 21.2-71.3L0 101.4 37.1 0l83.8 9.9 86.3 105.9z"/>
  </g>
</svg>