<svg fill="none" height="18" viewBox="0 0 18 18" width="18" xmlns="http://www.w3.org/2000/svg" xmlns:xlink="http://www.w3.org/1999/xlink"><linearGradient id="a" gradientUnits="userSpaceOnUse" x1="4.225" x2="10.389" y1=".603" y2="19.116"><stop offset="0" stop-color="#0fafff"/><stop offset="1" stop-color="#2764e7"/></linearGradient><linearGradient id="b" gradientUnits="userSpaceOnUse" x1="3.688" x2="10.546" y1="-.341" y2="20.253"><stop offset="0" stop-color="#0094f0"/><stop offset="1" stop-color="#2052cb"/></linearGradient><linearGradient id="c" gradientUnits="userSpaceOnUse" x1="8.996" x2="8.996" y1="4.368" y2="19.797"><stop offset="0" stop-color="#d8f7ff"/><stop offset="1" stop-color="#d8f7ff" stop-opacity=".5"/></linearGradient><path d="m1.152 14.787v-11.574a2.06 2.06 0 0 1 2.061-2.061h11.574a2.06 2.06 0 0 1 2.06 2.061v11.574a2.06 2.06 0 0 1 -2.06 2.061h-11.574a2.06 2.06 0 0 1 -2.061-2.061" fill="#f00"/><path d="m1.152 14.787v-11.574a2.06 2.06 0 0 1 2.061-2.061h11.574a2.06 2.06 0 0 1 2.06 2.061v11.574a2.06 2.06 0 0 1 -2.06 2.061h-11.574a2.06 2.06 0 0 1 -2.061-2.061" fill="url(#a)"/><path d="m.56 14.787v-11.574a2.653 2.653 0 0 1 2.653-2.653h11.574a2.653 2.653 0 0 1 2.652 2.653v11.574a2.653 2.653 0 0 1 -2.652 2.653h-11.574a2.653 2.653 0 0 1 -2.653-2.653m.032-11.574v11.574a2.62 2.62 0 0 0 2.621 2.621h11.574a2.62 2.62 0 0 0 2.621-2.621v-11.574a2.62 2.62 0 0 0 -2.621-2.621h-11.574a2.62 2.62 0 0 0 -2.621 2.621" stroke="url(#b)" stroke-linecap="round" stroke-linejoin="round" stroke-width="1.121"/><path clip-rule="evenodd" d="m8.983 2.894a6.124 6.124 0 1 1 0 12.247 6.124 6.124 0 0 1 0-12.247m0 11.226c.25 0 .752-.23 1.252-1.229a7 7 0 0 0 .524-1.492h-3.552c.135.569.314 1.073.524 1.492.5 1 1.001 1.23 1.252 1.23m-1.958-3.742a11 11 0 0 1 -.083-1.36q.001-.713.083-1.362h3.916q.082.649.083 1.361-.002.713-.083 1.361zm4.78 1.02c-.193.913-.493 1.712-.869 2.335a5.12 5.12 0 0 0 2.561-2.334zm2.098-1.02h-1.934a12 12 0 0 0 0-2.722h1.934a5.1 5.1 0 0 1 0 2.722m-7.906 0h-1.934a5.1 5.1 0 0 1 0-2.722h1.934a12 12 0 0 0 0 2.722m-1.529 1.02h1.693c.193.913.493 1.712.868 2.335a5.12 5.12 0 0 1 -2.559-2.334m2.739-4.762h3.552a7 7 0 0 0 -.524-1.492c-.5-1-1.002-1.23-1.252-1.23s-.753.23-1.252 1.23c-.21.418-.39.923-.524 1.492m4.598 0h1.692a5.12 5.12 0 0 0 -2.56-2.335c.375.624.675 1.423.868 2.335m-4.778-2.338c-.375.624-.675 1.423-.868 2.335h-1.693a5.12 5.12 0 0 1 2.562-2.335" fill="url(#c)" fill-rule="evenodd"/></svg>