<svg height="48" viewBox="0 0 48 48" width="48" xmlns="http://www.w3.org/2000/svg"><path d="m2 2v44h44v-44zm2 14.001h40.001v-12.001h-40.001zm0 13.999h40.001v-12h-40.001zm0 14.001h40.001v-12.001h-40.001zm31.151-32.993-2.573-1.824-1.156 1.632 3.949 2.801 5.336-5.337-1.414-1.414zm0 14-2.573-1.824-1.156 1.632 3.949 2.801 5.336-5.336-1.414-1.414zm.849 11.638-2.353-2.353-1.414 1.414 2.353 2.353-2.353 2.354 1.414 1.415 2.353-2.354 2.354 2.354 1.414-1.415-2.354-2.354 2.354-2.353-1.414-1.414z" fill="#dd344c" fill-rule="evenodd"/></svg>