<svg viewBox="0 0 24 24" xmlns="http://www.w3.org/2000/svg"><path d="m12 0c-6.612 0-12 5.388-12 12s5.388 12 12 12 12-5.388 12-12-5.371-12-12-12zm0 21.314c-5.133 0-9.297-4.164-9.297-9.297s4.164-9.297 9.297-9.297 9.297 4.164 9.297 9.297-4.164 9.297-9.297 9.297zm-1.972-9.314 1.48 1.479-1.922 1.92-1.478-1.478-1.428 1.444-1.92-1.92 1.443-1.445-1.377-1.377 1.92-1.904 1.36 1.377 1.411-1.41 1.921 1.903-1.408 1.411zm9.162-1.462-1.411 1.411 1.479 1.479-1.92 1.904-1.48-1.48-1.444 1.446-1.904-1.921 1.445-1.428-1.377-1.377 1.904-1.92 1.376 1.376 1.411-1.41 1.92 1.92z"/></svg>