<svg height="18" viewBox="0 0 18 18" width="18" xmlns="http://www.w3.org/2000/svg" xmlns:xlink="http://www.w3.org/1999/xlink"><linearGradient id="a" gradientUnits="userSpaceOnUse" x1="8.886" x2="8.886" y1="12.654" y2="6.632"><stop offset="0" stop-color="#1988d9"/><stop offset=".218" stop-color="#218ddc"/><stop offset=".559" stop-color="#379ce5"/><stop offset=".9" stop-color="#54aef0"/></linearGradient><path d="m8.886 12.654c3.062-2.194 3.165-3.474 3.179-3.875.019-.56-.059-2.026-1.537-2.141a1.6 1.6 0 0 0 -1.642 1.069 1.6 1.6 0 0 0 -1.642-1.069c-1.478.115-1.556 1.581-1.537 2.141.013.4.116 1.681 3.179 3.875" fill="url(#a)"/><path d="m12.065 8.779c.019-.56-.059-2.026-1.537-2.141a1.6 1.6 0 0 0 -1.642 1.069 1.6 1.6 0 0 0 -1.642-1.069c-1.478.115-1.556 1.581-1.537 2.141.013.4.09 1.662 3.152 3.856" fill="none"/><path d="m12.688 5.311a21.7 21.7 0 0 0 -3.006-2.517q-.341.204-.682.431a20.7 20.7 0 0 1 3.165 2.609 20.5 20.5 0 0 1 2.598 3.166q.231-.35.437-.7a22 22 0 0 0 -2.512-2.989m-6.853 6.853a20.6 20.6 0 0 1 -2.599-3.164q-.23.349-.436.7a22 22 0 0 0 2.512 2.992 22 22 0 0 0 2.988 2.508q.348-.207.7-.438a20.5 20.5 0 0 1 -3.165-2.598m9.826-3.164q-.219.345-.461.7c1.613 2.712 2.069 5.247.906 6.41s-3.7.707-6.41-.905q-.348.242-.7.459a10.45 10.45 0 0 0 5.23 1.84 3.28 3.28 0 0 0 2.4-.871c1.49-1.493 1.012-4.481-.965-7.633m-12.861-.7c-1.613-2.709-2.069-5.244-.906-6.407a2.57 2.57 0 0 1 1.874-.648 6.9 6.9 0 0 1 2.319.469 13.3 13.3 0 0 1 2.231 1.08q.341-.234.682-.448a14.4 14.4 0 0 0 -2.66-1.326c-2.181-.8-3.946-.673-4.969.35-1.487 1.488-1.009 4.476.968 7.63q.219-.347.461-.7" fill="#b3b3b3"/><path d="m3.77 17.5a3.28 3.28 0 0 1 -2.4-.871c-2.07-2.069-.335-7.04 3.942-11.318a18.3 18.3 0 0 1 6.348-4.291c2.181-.8 3.946-.672 4.969.35 2.068 2.068.336 7.039-3.941 11.317-3.056 3.055-6.466 4.813-8.918 4.813m10.462-16.255a6.9 6.9 0 0 0 -2.319.469 17.6 17.6 0 0 0 -6.078 4.12c-3.852 3.852-5.657 8.555-3.941 10.271s6.419-.089 10.271-3.941 5.657-8.556 3.941-10.271a2.57 2.57 0 0 0 -1.874-.648" fill="#5ea0ef"/><path d="m2.8 8.303.692 1.072-.554.517-.842-1.293zm12.4 1.392-.734-1.133.606-.472.771 1.206z" fill="#b3b3b3"/></svg>