<svg viewBox="0 0 24 24" xmlns="http://www.w3.org/2000/svg"><path d="m19.46 1.492 1.54 1.544v7.464l-1.54 1.51-1.539-1.51v-7.464zm-7.469 0 1.557 1.544v7.464l-1.557 1.51-1.54-1.51v-7.464zm-7.451 10.518-1.54-1.511v-7.463l1.54-1.544 1.539 1.544v7.464l-1.54 1.51zm-1.54 1.509 1.54-1.51 1.539 1.51v8.971l-1.54 1.51-1.539-1.51v-8.972zm16.46 10.481-1.539-1.51v-8.972l1.54-1.51 1.539 1.511v8.972zm-13.38-24h4.373l1.54 1.492-1.54 1.544h-4.374l-1.54-1.544zm7.47 0h4.372l1.54 1.492-1.54 1.544h-4.373l-1.557-1.544 1.556-1.492z" fill="#ff5c00"/></svg>