<svg height="48" viewBox="0 0 48 48" width="48" xmlns="http://www.w3.org/2000/svg"><path d="m4.131 22.96h5.855v2h-5.855a2.133 2.133 0 0 1 -2.131-2.131v-18.698c0-1.175.956-2.131 2.131-2.131h18.698c1.175 0 2.131.956 2.131 2.131v6.729h-2v-6.729a.13.13 0 0 0 -.131-.131h-18.698a.13.13 0 0 0 -.131.131v18.698c0 .072.059.131.131.131m9.606 10.48h7.542v2h-7.542a2.133 2.133 0 0 1 -2.13-2.13v-18.7c0-1.174.956-2.13 2.13-2.13h18.699c1.174 0 2.131.956 2.131 2.13v6.73h-2v-6.73a.13.13 0 0 0 -.131-.13h-18.699a.13.13 0 0 0 -.13.13v18.7c0 .072.058.13.13.13m30.113 10.48-18.89-.07v-18.759c0-.072.059-.131.131-.131h18.698c.072 0 .131.059.131.131zm-.061-20.96h-18.698a2.133 2.133 0 0 0 -2.131 2.131v18.759c0 1.141.929 2.07 2.07 2.07h18.82c1.141 0 2.07-.929 2.07-2.07v-18.759a2.133 2.133 0 0 0 -2.131-2.131" fill="#ed7100" fill-rule="evenodd"/></svg>