<svg xmlns="http://www.w3.org/2000/svg" viewBox="0 0 128 128">
  <defs>
    <mask id="wko">
      <rect width="128" height="128" fill="white"/>
      <path fill="black" d="M73.261 50.84a10.736 10.217 0 0 1-10.736 10.218A10.736 10.217 0 0 1 51.788 50.84a10.736 10.217 0 0 1 10.737-10.217A10.736 10.217 0 0 1 73.26 50.84Z"/>
      <path fill="black" d="M40.698 79a6.868 6.52 0 0 0-6.846 6.317h13.682A6.868 6.52 0 0 0 40.698 79"/>
      <path fill="black" d="M93.157 90.41a7.343 6.97 0 0 1-7.342 6.97 7.343 6.97 0 0 1-7.343-6.97 7.343 6.97 0 0 1 7.343-6.97 7.343 6.97 0 0 1 7.342 6.97"/>
      <path fill="black" d="M43.77 37.973a2.543 2.644 0 0 0-2.545 2.64 2.543 2.644 0 0 0 2.545 2.65 2.543 2.644 0 0 0 2.545-2.65 2.543 2.644 0 0 0-2.545-2.64m33.453 0a2.543 2.644 0 0 0-2.545 2.64 2.543 2.644 0 0 0 2.545 2.65 2.543 2.644 0 0 0 2.543-2.65 2.543 2.644 0 0 0-2.543-2.64M28.7 77.303a1.626 1.687 0 0 0-1.625 1.687 1.626 1.687 0 0 0 1.627 1.688 1.626 1.687 0 0 0 1.627-1.688 1.626 1.687 0 0 0-1.627-1.687zm21.62.242a1.626 1.687 0 0 0-1.626 1.688 1.626 1.687 0 0 0 1.627 1.687 1.626 1.687 0 0 0 1.629-1.687 1.626 1.687 0 0 0-1.63-1.688m22.67 4.086a1.739 1.804 0 0 0-1.74 1.799 1.739 1.804 0 0 0 1.74 1.808 1.739 1.804 0 0 0 1.74-1.808 1.739 1.804 0 0 0-1.74-1.799m23.247.232a1.739 1.804 0 0 0-1.74 1.81 1.739 1.804 0 0 0 1.74 1.8 1.739 1.804 0 0 0 1.74-1.8 1.739 1.804 0 0 0-1.74-1.81"/>
    </mask>
  </defs>
  <g fill="currentColor" mask="url(#wko)">
    <path fill="currentColor" d="M93.188 59.803c.148.927.3 1.854.482 2.76h8.955v-2.76zm1.484 6.896c.185.634.381 1.265.598 1.893q.781.388 1.517.87h11.352v-2.763zm-18.431 1.282c-.426.155-.843.336-1.252.533v.004c.41-.198.825-.382 1.252-.537m-41.248 34.57v2.76H68.15v-2.76zm19.31 6.896v2.752H81.6v-2.752z"/>
    <path fill="currentColor" d="M61.114 16.26c-4.91 0-9.721.567-12.586 1.707-7.89 2.888-13.95 10.775-15.746 20.33-2.365 11.186-2.224 19.941-4.572 28.178a13.6 13.6 0 0 1 3.529-1.94c1.834-.726 4.909-1.09 8.049-1.09s6.35.365 8.431 1.09c4.571 1.67 8.177 5.96 9.67 11.284h9.719c1.991-3.681 5.03-6.523 8.633-7.838 3.919-1.554 13.165-1.55 17.617 0 .483.176.952.39 1.414.619-3.062-8.866-2.673-18.151-5.242-30.303-1.795-9.555-7.857-17.442-15.746-20.33-3.254-1.136-8.261-1.706-13.17-1.707"/>
    <path fill="currentColor" d="M45.275 49.787a3.344 3.523 0 0 0-3.34 3.523 3.344 3.523 0 0 0 3.34 3.523 3.344 3.523 0 0 0 3.341-3.523 3.344 3.523 0 0 0-3.34-3.523zm33.79 0a3.344 3.523 0 0 0-3.34 3.523 3.344 3.523 0 0 0 3.34 3.523 3.344 3.523 0 0 0 3.35-3.523 3.344 3.523 0 0 0-3.35-3.523"/>
    <path fill="currentColor" d="m50.905 50.705-12.428 3.332.356 1.332 12.43-3.332zm23.52 0-.358 1.332 12.427 3.332.358-1.332zm-22.276 2.008L39.65 59.932l.69 1.193 12.497-7.218zm21.039 0-.69 1.194 12.498 7.218.69-1.193zm-20.125 2.395-8.607 8.619q.878.113 1.677.271l7.905-7.916zm19.21 0-.974.974 10.809 10.826q.92-.06 1.87-.08zm-18.792 3.138-3.957 6.86q.617.304 1.205.672l3.947-6.844zm18.375 0-1.195.688 5.287 9.168c.098-.039.193-.085.293-.121.31-.123.665-.233 1.037-.336z"/>
    <path fill="currentColor" d="M67.107 48.998c-.36-.933-.36-2.799-1.44-2.799s-2.08-.7-3.142-.7c-1.063 0-2.06.7-3.142.7-1.08 0-1.08 1.866-1.44 2.8-.36.932 4.582 3.964 4.582 3.964s4.942-3.032 4.582-3.965"/>
    <path fill="currentColor" d="M57.399 74.29c.33.886.59 1.81.793 2.761h8.799c.443-.973.958-1.897 1.535-2.762zm44.177.001a20 20 0 0 1 1.532 2.76h11.072v-2.76z"/>
    <path fill="currentColor" d="M39.789 63.445c-3.14 0-6.216.364-8.05 1.09-5.046 1.844-8.917 6.878-10.065 12.975-.6 2.826-.945 5.391-1.238 7.807h39.086c-.293-2.416-.63-4.98-1.23-7.807-1.147-6.097-5.027-11.13-10.074-12.974-2.082-.725-5.29-1.09-8.43-1.09Z"/>
    <path fill="currentColor" d="M29.663 84.84a2.14 2.248 0 0 0-1.255.477h2.56a2.14 2.248 0 0 0-1.305-.476zm21.62 0a2.14 2.248 0 0 0-1.256.477h2.562a2.14 2.248 0 0 0-1.307-.476z"/>
    <path fill="currentColor" d="m33.202 85.187-.484.13h.52zm15.172 0-.035.13h.52z"/>
    <path fill="currentColor" d="M40.698 82.106c-.68 0-1.317.45-2.008.45s-.696 1.188-.926 1.783c-.08.208.268.583.735.978h4.396c.468-.395.808-.77.727-.978-.23-.595-.226-1.783-.917-1.783-.69 0-1.327-.45-2.007-.45"/>
    <path fill="currentColor" d="m91.736 1.467-55.738.164a1.38 1.38 0 0 0-1.073.52L.295 45.883a1.38 1.38 0 0 0-.26 1.16l12.56 54.363a1.38 1.38 0 0 0 .753.935l50.285 24.061a1.38 1.38 0 0 0 1.195-.01l50.148-24.355a1.38 1.38 0 0 0 .744-.943l12.247-54.432a1.38 1.38 0 0 0-.268-1.16L92.82 1.977a1.38 1.38 0 0 0-1.083-.51Zm-.657 2.76 34.05 42.48-11.954 53.142-48.945 23.776-49.091-23.482L2.875 47.07 36.673 4.383Z"/>
    <path fill="currentColor" d="M106.644 95.737c-.606-4.124-.9-8.61-2.019-13.887-1.228-6.518-5.373-11.9-10.768-13.87-4.452-1.55-13.697-1.554-17.616 0-5.395 1.97-9.54 7.352-10.768 13.87-1.118 5.278-1.413 9.763-2.019 13.887"/>
    <path fill="currentColor" d="M74.02 89.688a2.287 2.404 0 0 0-2.286 2.406A2.287 2.404 0 0 0 74.02 94.5a2.287 2.404 0 0 0 2.285-2.406 2.287 2.404 0 0 0-2.285-2.406m23.11 0a2.287 2.404 0 0 0-2.286 2.406A2.287 2.404 0 0 0 97.13 94.5a2.287 2.404 0 0 0 2.285-2.406 2.287 2.404 0 0 0-2.285-2.406"/>
    <path fill="currentColor" d="m77.814 90.104-8.5 2.277.358 1.332 8.498-2.277zm16.196 0-.358 1.332 8.5 2.277.358-1.332zm-15.4 1.392-8.544 4.926.688 1.193 8.543-4.924zm14.605 0-.69 1.195 8.543 4.924.69-1.193z"/>
    <path fill="currentColor" d="M88.948 89.152c-.246-.636-.246-1.91-.985-1.91-.738 0-1.42-.476-2.148-.476-.727 0-1.41.477-2.149.477-.738 0-.738 1.273-.985 1.91-.246.636 3.134 2.704 3.134 2.704s3.38-2.068 3.133-2.705"/>
    <path fill="currentColor" d="M62.526 39.592c-6.461 0-11.77 5.022-11.77 11.252s5.309 11.252 11.77 11.252c6.462 0 11.771-5.022 11.771-11.252s-5.311-11.252-11.771-11.252m0 2.069c5.398 0 9.703 4.128 9.703 9.183 0 5.056-4.305 9.182-9.703 9.182s-9.703-4.126-9.703-9.182c0-5.055 4.306-9.183 9.703-9.183m-21.828 36.3c-4.254 0-7.78 3.26-7.895 7.356h2.069c.112-2.92 2.637-5.288 5.826-5.288 3.19 0 5.712 2.368 5.824 5.288h2.068c-.113-4.095-3.64-7.356-7.892-7.356m45.119 4.447c-4.585 0-8.38 3.56-8.38 7.998 0 4.44 3.795 8.006 8.38 8.006s8.379-3.567 8.379-8.006c0-4.438-3.793-7.998-8.38-7.998zm0 2.069c3.525 0 6.31 2.667 6.31 5.93 0 3.26-2.785 5.937-6.31 5.937s-6.31-2.677-6.31-5.938 2.786-5.93 6.31-5.93z"/>
    <path fill="currentColor" d="M15.962 85.317v2.76h48.462q.178-1.345.406-2.76zM40.516 95.66v2.752h71.664V95.66h-5.545l.01.076H63.453l.01-.076z"/>
    <path fill="currentColor" d="M45.491 35.775a6.08 6.08 0 0 0-4.382 1.866 6.36 6.36 0 0 0-1.535 2.595 6.4 6.4 0 0 0-.27 2.198 6.4 6.4 0 0 0 2.721 4.923 6.2 6.2 0 0 0 1.335.701 6.06 6.06 0 0 0 4.55-.11 6.1 6.1 0 0 0 1.531-.954 6.3 6.3 0 0 0 1.36-1.607 6.4 6.4 0 0 0 .826-4.236 6.4 6.4 0 0 0-.827-2.317 6.4 6.4 0 0 0-1.837-1.973 6.2 6.2 0 0 0-1.336-.7 6 6 0 0 0-2.134-.386zm33.47 0a6.1 6.1 0 0 0-2.132.389 6 6 0 0 0-1.577.878 6.3 6.3 0 0 0-1.43 1.538 6.4 6.4 0 0 0-.932 4.8 6.4 6.4 0 0 0 1.688 3.2 6.3 6.3 0 0 0 1.428 1.096 6.1 6.1 0 0 0 1.705.64 6 6 0 0 0 1.885.097 6.06 6.06 0 0 0 3.31-1.422 6.3 6.3 0 0 0 1.506-1.872 6.4 6.4 0 0 0 .715-3.652 6.4 6.4 0 0 0-.864-2.63 6.4 6.4 0 0 0-2.086-2.138 6.2 6.2 0 0 0-1.665-.722 6 6 0 0 0-1.55-.202zm-33.47 2.06h.002a4 4 0 0 1 .63.048 4 4 0 0 1 1.343.462 4.1 4.1 0 0 1 .956.732 4.2 4.2 0 0 1 .89 1.358 4.3 4.3 0 0 1 .321 1.453 4.6 4.6 0 0 1-.182 1.504 4.3 4.3 0 0 1-.761 1.45 4.2 4.2 0 0 1-1.224 1.035 4.07 4.07 0 0 1-2.603.46 4.06 4.06 0 0 1-2.562-1.497 4.3 4.3 0 0 1-.76-1.45 4.4 4.4 0 0 1-.186-1.28 4.5 4.5 0 0 1 .187-1.28 4.3 4.3 0 0 1 .76-1.449 4.2 4.2 0 0 1 1.22-1.034 4.1 4.1 0 0 1 1.757-.506q.105-.005.212-.005zm33.47 0a4.1 4.1 0 0 1 1.23.191 4 4 0 0 1 1.4.779 4.2 4.2 0 0 1 1.008 1.258 4.3 4.3 0 0 1 .479 1.607 4.47 4.47 0 0 1-.48 2.489 4.3 4.3 0 0 1-1.007 1.258 4.2 4.2 0 0 1-1.02.636 4.03 4.03 0 0 1-3.218 0 4.1 4.1 0 0 1-1.315-.911 4.2 4.2 0 0 1-.888-1.358 4.3 4.3 0 0 1-.32-1.452 4.5 4.5 0 0 1 .079-1.09 4.4 4.4 0 0 1 .623-1.532 4.3 4.3 0 0 1 1.118-1.15 4.1 4.1 0 0 1 1.279-.591 4 4 0 0 1 1.032-.134M29.688 75.527a1 1 0 0 0-.112.001c-2.295.12-4.111 2.074-4.111 4.414 0 2.416 1.937 4.423 4.336 4.423s4.344-2.007 4.344-4.423-1.945-4.414-4.344-4.414zm21.413 0a1 1 0 0 0-.113.001c-2.295.12-4.12 2.074-4.12 4.414 0 2.416 1.946 4.423 4.345 4.423s4.336-2.007 4.336-4.423-1.937-4.414-4.336-4.414zm-21.3 2.07c1.254 0 2.275 1.021 2.275 2.345s-1.021 2.354-2.275 2.354-2.269-1.03-2.269-2.354 1.015-2.345 2.269-2.345m21.412 0c1.254 0 2.268 1.021 2.268 2.345s-1.014 2.354-2.268 2.354-2.276-1.03-2.276-2.354 1.022-2.345 2.276-2.345m22.953 2.198c-2.525 0-4.57 2.111-4.57 4.656 0 2.546 2.045 4.657 4.57 4.657s4.57-2.11 4.57-4.657c0-2.545-2.044-4.656-4.57-4.656m22.893 0c-2.525 0-4.57 2.111-4.57 4.656 0 2.546 2.045 4.657 4.57 4.657s4.57-2.11 4.57-4.657c0-2.545-2.044-4.656-4.57-4.656m-22.957 2.068.065.001c1.38 0 2.5 1.134 2.5 2.587s-1.12 2.588-2.5 2.588-2.502-1.134-2.502-2.588c0-1.408 1.05-2.52 2.372-2.587zm22.892 0 .066.001c1.38 0 2.5 1.134 2.5 2.587s-1.12 2.588-2.5 2.588-2.502-1.134-2.502-2.588c0-1.408 1.05-2.52 2.372-2.587z"/>
  </g>
</svg>