<svg fill="none" height="443" viewBox="0 0 443 443" width="443" xmlns="http://www.w3.org/2000/svg" xmlns:xlink="http://www.w3.org/1999/xlink"><radialGradient id="a" cx="0" cy="0" gradientTransform="matrix(0 171.5 -171.5 0 221.878 271.5)" gradientUnits="userSpaceOnUse" r="1"><stop offset="0" stop-color="#d06b57"/><stop offset="1" stop-color="#d06b57" stop-opacity="0"/></radialGradient><path d="m281.777 255.5c0 67.103-60.5 121.5-60.5 121.5s-60.5-54.397-60.5-121.5 60.5-121.5 60.5-121.5 60.5 54.397 60.5 121.5" fill="#d06b57"/><g fill="#000"><path d="m347.08 168.186c43.132 51.403 31.753 131.963 31.753 131.963s-81.312-2.782-124.445-54.186-31.753-131.963-31.753-131.963 81.312 2.782 124.445 54.186"/><path d="m188.167 245.963c-43.133 51.404-124.444 54.186-124.444 54.186s-11.38-80.56 31.753-131.963c43.132-51.404 124.444-54.186 124.444-54.186s11.38 80.559-31.753 131.963m-23.289-245.963a47.5 47.5 0 0 1 47.501 47.501 4 4 0 0 1 -8 0 39.5 39.5 0 0 0 -30.041-38.35c.023.28.039.563.039.849 0 5.523-4.477 10-10 10s-10-4.477-10-10 4.477-10 10-10q.136 0 .27.006.115-.006.231-.006m113.501 0c5.523 0 10 4.477 10 10s-4.477 10-10 10-10-4.477-10-10q.001-.429.038-.849a39.5 39.5 0 0 0 -18.471 10.418 39.5 39.5 0 0 0 -11.569 27.932 4 4 0 0 1 -8 0 47.504 47.504 0 0 1 47.501-47.501q.115 0 .229.006.136-.005.272-.006"/><path d="m261.377 65c0 22.091-17.909 70-40 70s-40-47.909-40-70 17.909-40 40-40 40 17.909 40 40"/></g><circle cx="221.877" cy="271.5" fill="url(#a)" opacity=".6" r="171.5"/><path d="m146.211 216.259c-56.906 35.559-135.098 13.078-135.098 13.078s14.072-80.133 70.978-115.692 135.098-13.078 135.098-13.078-14.071 80.133-70.978 115.692m214.585-102.616c56.906 35.559 70.978 115.692 70.978 115.692s-78.192 22.481-135.098-13.078-70.978-115.693-70.978-115.693 78.192-22.48 135.098 13.079" fill="#000"/></svg>