<svg height="64" viewBox="0 0 64 64" width="64" xmlns="http://www.w3.org/2000/svg"><g fill="none" fill-rule="evenodd"><path d="m0 0h64v64h-64z" fill="#e7157b"/><path d="m37 32v3h-10v-3c0-3.458 1.542-5 5-5s5 1.542 5 5m3.381-20.347-.762 1.849a19.95 19.95 0 0 1 12.381 18.498c0 11.028-8.972 20-20 20s-20-8.972-20-20c0-10.693 8.435-19.453 19-19.975v13.045c-3.915.344-6 2.705-6 6.93v4a1 1 0 0 0 1 1h2v5h2v-5h4v5h2v-5h2a1 1 0 0 0 1-1v-4c0-4.225-2.085-6.586-6-6.93v-14.07a1 1 0 0 0 -1-1c-12.131 0-22 9.869-22 22s9.869 22 22 22 22-9.869 22-22a21.94 21.94 0 0 0 -13.619-20.347" fill="#fff"/></g></svg>