<svg height="175" viewBox="0 0 618 175" width="618" xmlns="http://www.w3.org/2000/svg" xmlns:xlink="http://www.w3.org/1999/xlink"><clipPath id="a"><path d="m0 288h576v-288h-576z"/></clipPath><g fill-rule="evenodd"><path d="m0 0-59.573.004v-13.959l21.713-.005v-45.803h16.115l-.005 45.808 21.75-.003z" fill="#656262" transform="matrix(1.25 0 0 -1.25 77.4925 2.9175)"/><g clip-path="url(#a)" transform="matrix(1.25 0 0 -1.25 -50 271.6675)"><g fill="#e51635"><path d="m0 0c0 5.228-4.257 9.43-9.486 9.43h-20.964c-1.832 0-2.748-.917-3.719-2.372-.054-.052-6.251-9-6.251-9h20.209a4.455 4.455 0 0 0 4.258-4.472v-27.972h15.953z" transform="translate(264.028 113.707)"/><path d="m207.656 139.089h15.952v-59.768h-15.952z"/><path d="m0 0h-45.323v-43.815h16.059v32.443h18.215c2.481 0 4.53-1.993 4.53-4.472v-27.971h16.006v34.385c0 5.228-4.259 9.43-9.487 9.43" transform="translate(346.268 123.137)"/><path d="m0 0h-76.635v-59.768h15.898v45.81h17.03c1.617 0 2.911-1.348 2.911-2.965v-42.845h15.952v42.845a2.955 2.955 0 0 0 2.964 2.965h12.557c2.425 0 4.419-1.94 4.419-4.366v-41.444h15.899v48.775a10.97 10.97 0 0 1 -10.995 10.993" transform="translate(119.056 139.089)"/><path d="m0 0v-29.588h15.953v43.329s-7.385-4.58-12.612-7.867c-1.995-1.292-3.341-3.449-3.341-5.874" transform="translate(274.538 108.91)"/><path d="m0 0h15.953v-11.046l-15.953-10.562z" transform="translate(274.538 139.142)"/><path d="m0 0c-3.99 0-6.576-3.072-6.576-6.36v-37.455h16.059v27.918c0 2.478 1.779 4.581 4.313 4.581h11.91c1.723.105 3.181 1.13 4.096 2.478.053.054 6.25 8.838 6.25 8.838z" transform="translate(441.067 123.137)"/><path d="m0 0v-48.828h-23.121c-1.616 0-2.749 1.403-2.749 2.588v14.444h.055a4.46 4.46 0 0 0 4.473 4.472h11.693c1.725 0 3.504 1.024 4.258 2.209l5.391 9.163h-32.442c-5.177 0-9.433-4.202-9.433-9.43v-26.517c0-5.066 4.041-7.869 7.759-7.869h50.122v59.768z" transform="translate(407.977 139.089)"/><path d="m0 0h-36.864c-1.832 0-3.5-.861-4.525-2.265l-6.198-9.107h37.132c2.317-.107 4.203-2.102 4.203-4.472l-.055-17.407h-27.807v5.012c0 .968.807 1.779 1.778 1.779h19.457v6.465c0 1.563-.971 2.427-2.319 2.427h-26.948c-3.34 0-5.98-2.64-5.98-5.929v-15.899c0-.107 0-.163.054-.271.377-2.368 2.426-4.148 4.904-4.148h52.6v34.385a9.406 9.406 0 0 1 -9.432 9.43" transform="translate(523.953 123.137)"/><path d="m0 0h-36.863c-1.778 0-3.502-.861-4.472-2.265l-6.253-9.107h37.133c2.318-.107 4.204-2.102 4.204-4.472v-17.407h-27.863v5.012c0 .968.808 1.779 1.778 1.779h19.455v6.465c0 1.563-.969 2.427-2.317 2.427h-26.947c-3.341 0-5.98-2.64-5.98-5.929v-15.899c0-.107 0-.163.053-.271a4.94 4.94 0 0 1 4.904-4.148h52.6v34.385a9.406 9.406 0 0 1 -9.432 9.43" transform="translate(188.308 123.137)"/></g><path d="m0 0c0 5.227-4.259 9.431-9.486 9.431h-21.514c-1.834 0-2.75-.916-3.72-2.37-.053-.054-6.252-9.001-6.252-9.001h20.76a4.457 4.457 0 0 0 4.258-4.473v-27.971h15.954zm-56.924 25.383h15.952v-59.767h-15.952z" fill="#656262" transform="translate(290.49 188.874)"/><path d="m0 0h.054a4.473 4.473 0 0 1 4.496-4.473l29.805.002v-11.373h-40.964c-5.199 0-9.478 4.204-9.478 9.431v32.427-6.727c0 5.227 4.279 9.432 9.478 9.432h40.868l-2.515-6.251c-.532-1.318-.808-2.438-2.018-3.289-.864-.609-1.595-1.033-2.707-1.033h-22.469a4.474 4.474 0 0 1 -4.496-4.474h-.054z" fill="#656262" transform="translate(189.293 170.334)"/><path d="m0 0h34.129c1.778 0 3.502.863 4.473 2.263l6.252 9.109h-34.399c-2.316.107-4.204 2.102-4.204 4.473v17.407h25.129v-5.012c0-.97-.808-1.778-1.779-1.778h-16.719v-6.468c0-1.562.97-2.424 2.317-2.424h24.211c3.341 0 5.982 2.639 5.982 5.927v15.9c0 .107 0 .16-.054.268a4.935 4.935 0 0 1 -4.903 4.15h-49.866v-34.383a9.41 9.41 0 0 1 9.431-9.432" fill="#656262" transform="translate(117.714 155.039)"/></g></g></svg>