<svg fill="none" height="33" viewBox="0 0 249 33" width="249" xmlns="http://www.w3.org/2000/svg"><g fill="#002a46"><path d="m147.052 13.54h-7.259v2.34h7.259z"/><path d="m77.092 9.479c-3.627 0-6.191 2.637-6.191 6.47s2.564 6.497 6.191 6.497c3.628 0 6.192-2.666 6.192-6.497s-2.564-6.47-6.192-6.47m.002 10.632c-1.931 0-3.25-1.548-3.25-4.162s1.32-4.135 3.25-4.135 3.25 1.521 3.25 4.135-1.32 4.162-3.25 4.162"/><path d="m99.075 11.767c-.548-1.268-1.82-2.288-3.896-2.288-3.003 0-5.55 2.592-5.55 6.304 0 4.096 2.3 6.345 5.575 6.345 1.612 0 2.867-.626 3.734-1.8v1.79c0 2.54-1.394 3.55-3.127 3.55-2.272 0-2.933-1.296-3.133-2.546l-3.022.696c.444 2.578 2.91 4.046 5.913 4.046 4.229 0 6.304-2.238 6.304-6.353v-11.713h-2.802l.005 1.97zm-3.315 7.983c-1.803 0-3.199-1.354-3.199-3.967 0-2.478 1.459-3.959 3.2-3.959 1.976 0 3.175 1.354 3.175 3.959 0 2.41-1.072 3.967-3.176 3.967"/><path d="m122.461 19.97c-1.059 0-1.598-.53-1.598-1.573v-6.447h4.157v-2.152h-4.157v-4.055h-2.042c0 2.525-1.08 4.154-3.16 4.295v1.912h2.29v6.888c.045 2.403 1.344 3.608 3.951 3.608 1.212 0 2.5-.398 3.367-1.15l-.684-2.225c-.44.437-1.146.899-2.122.899z"/><path d="m62.512 19.68c-2.942 0-4.988-2.248-4.988-5.928s2.146-5.905 4.988-5.905c2.36 0 3.991 1.535 4.756 3.975l2.569-1.64c-1.017-3.147-3.797-5.102-7.327-5.102-4.695 0-8.185 3.62-8.185 8.672s3.592 8.696 8.212 8.696c3.528 0 6.309-1.928 7.35-5.024l-2.51-1.603c-.547 2.354-2.431 3.858-4.865 3.858z"/><path d="m87.901 5.4h-2.892v16.727h2.891z"/><path d="m114.974 20.366c-.482 0-.622-.279-.622-.89l.027-5.278c.05-3.02-2.022-4.719-4.993-4.719-2.64 0-4.62 1.344-5.279 3.476l2.202 1.4c.395-1.555 1.556-2.568 3.026-2.568s2.199.89 2.199 2.336v.353c-6.485.681-7.873 2.19-7.873 4.699 0 2.003 1.531 3.272 3.714 3.272s3.611-1.119 4.235-2.937c-.166 1.91.784 2.937 2.276 2.937.764 0 1.585-.29 2.11-.793l-.459-1.49a.9.9 0 0 1 -.563.202m-3.44-3.681c-.079 2.183-1.575 3.604-3.25 3.604-1.115 0-1.699-.703-1.699-1.539 0-1.394 1.34-1.896 4.949-2.441z"/><path d="m217.589 5.4h-2.892v16.727h2.892z"/><path d="m178.356 5.4h-2.893v16.727h2.893z"/><path d="m234.051 9.796-3.249 8.752-3.171-8.752h-3.197l4.974 12.331h2.688l5.001-12.331z"/><path d="m206.78 9.479c-3.628 0-6.192 2.637-6.192 6.47s2.564 6.497 6.192 6.497c3.627 0 6.191-2.666 6.191-6.497s-2.564-6.47-6.191-6.47m.001 10.632c-1.931 0-3.249-1.548-3.249-4.162s1.319-4.135 3.249-4.135 3.249 1.521 3.249 4.135-1.319 4.162-3.249 4.162"/><path d="m173.225 20.366c-.482 0-.621-.279-.621-.89l.027-5.278c.05-3.02-2.023-4.719-4.993-4.719-2.64 0-4.62 1.344-5.279 3.476l2.202 1.4c.394-1.555 1.556-2.568 3.025-2.568 1.47 0 2.199.89 2.199 2.336v.353c-6.484.681-7.872 2.19-7.872 4.699 0 2.003 1.53 3.272 3.714 3.272 2.183 0 3.61-1.119 4.235-2.937-.166 1.91.784 2.937 2.276 2.937.763 0 1.585-.29 2.109-.793l-.458-1.49a.9.9 0 0 1 -.564.202m-3.44-3.68c-.078 2.183-1.574 3.605-3.249 3.605-1.116 0-1.7-.703-1.7-1.539 0-1.394 1.34-1.897 4.949-2.441z"/><path d="m131.84 9.48c-3.476 0-6.09 2.46-6.09 6.47s2.515 6.494 6.168 6.494c2.59 0 4.593-1.242 5.457-3.197l-2.108-1.39c-.58 1.534-1.85 2.279-3.322 2.279-1.929 0-3.171-1.32-3.375-3.526h9.189c.324-5.236-2.77-7.131-5.918-7.131zm-3.168 5.125c.38-1.803 1.598-2.844 3.171-2.844s2.809.914 2.944 2.844h-6.117z"/><path d="m242.982 9.48c-3.476 0-6.09 2.46-6.09 6.47s2.515 6.494 6.168 6.494c2.59 0 4.593-1.242 5.457-3.197l-2.108-1.39c-.58 1.534-1.85 2.279-3.322 2.279-1.929 0-3.171-1.32-3.375-3.526h9.189c.324-5.236-2.77-7.131-5.918-7.131zm-3.166 5.125c.38-1.803 1.597-2.844 3.17-2.844s2.81.914 2.944 2.844h-6.116z"/><path d="m221.644 5.08c-1.014 0-1.826.736-1.826 1.827 0 1.014.811 1.826 1.826 1.826 1.093 0 1.827-.81 1.827-1.826 0-1.093-.736-1.827-1.827-1.827"/><path d="m223.091 9.796h-2.892v12.33h2.892z"/><path d="m156.14 5.4h-7.157v16.727h3.072v-5.896h4.085c3.378 0 5.585-2.238 5.585-5.429.025-3.168-2.212-5.403-5.585-5.403m-.252 8.14h-3.833v-5.453h3.833c1.623 0 2.689 1.017 2.689 2.714 0 1.696-1.066 2.738-2.689 2.738"/><path d="m195.204 9.478c-1.853 0-3.299 1.04-3.935 2.919-.432-1.826-1.826-2.919-3.604-2.919s-3.148.977-3.808 2.702v-2.384h-2.892v12.33h2.892v-7.158c0-1.7.787-3.16 2.437-3.16 1.394 0 2.207.863 2.207 2.614v7.702h2.92v-7.166c0-1.702.787-3.148 2.437-3.148 1.394 0 2.207.862 2.207 2.614v7.7h2.892v-8.332c0-2.666-1.47-4.315-3.755-4.315z"/></g><g fill="#0068ff"><path d="m7.038 11.369 1.238-1.612c4.093 3.13 9.134 4.687 14.147 4.944l2.897-14.701h-11.37c-7.626 0-13.922 6.124-13.95 13.75-.027 7.646 6.162 13.85 13.8 13.85h6.083l1.673-8.5c-4.874-.589-9.87-3.018-14.518-7.732z"/><path d="m33.91.003h-6.587l-2.902 14.735c5.342-.089 10.792-1.638 15.162-4.98l1.238 1.612c-5.583 5.688-11.737 7.996-17.285 7.87l-2.71 13.761h10.294l1.062-5.4h1.881c7.638 0 13.827-6.203 13.8-13.847-.028-7.627-6.324-13.751-13.951-13.751z"/></g></svg>