<svg height="18" viewBox="0 0 18 18" width="18" xmlns="http://www.w3.org/2000/svg" xmlns:xlink="http://www.w3.org/1999/xlink"><linearGradient id="a" gradientTransform="matrix(1 0 0 .99 0 -14.32)" gradientUnits="userSpaceOnUse" x1="11.08" x2="11.08" y1="31.2" y2="15.71"><stop offset="0" stop-color="#949494"/><stop offset=".33" stop-color="#9b9b9b"/><stop offset=".82" stop-color="#aeafb0"/><stop offset="1" stop-color="#b6b8b9"/></linearGradient><path d="m18 9.69v-1.79l-.1-.09-1.84-.62-.47-1.19.91-1.88.1-.21-.6-.61-.7-.69-.24.12-1.8.91-1.21-.34-.78-2h-1.79l-.09.09-.62 1.83-1.26.47-2.08-1-1.28 1.25.12.24.96 1.82a6 6 0 0 1 3.2-.86 6.26 6.26 0 0 1 3.57 1.14 3 3 0 0 1 .36.26 3.25 3.25 0 0 1 .93 1.35 3 3 0 0 1 .21 1.11 3.23 3.23 0 0 1 -3.25 3.23 3.27 3.27 0 0 1 -1.87-.59 6.3 6.3 0 0 1 -4 1.75l-.19.39 1.28 1.29.26-.07 1.8-1 1.24.51.79 2.16h1.8l.07-.25.64-1.91 1.22-.51 2.11 1 1.27-1.26-.12-.24-.93-1.79.38-1.25z" fill="url(#a)"/><path d="m4 10.65a3.6 3.6 0 0 1 -2.56-1.05.46.46 0 1 1 .65-.6 2.65 2.65 0 0 0 1.91.73 2.62 2.62 0 0 0 1.88-.73 3.55 3.55 0 0 1 2.55-1 3.64 3.64 0 0 1 2.57 1 .46.46 0 1 1 -.65.65 2.7 2.7 0 0 0 -1.89-.78 2.6 2.6 0 0 0 -1.88.78 3.6 3.6 0 0 1 -2.58 1" fill="#50e6ff"/><path d="m4 8.82a1.8 1.8 0 0 1 -1.26-.52.46.46 0 0 1 .65-.65.84.84 0 0 0 .61.25 1.1 1.1 0 0 0 .6-.25 5.46 5.46 0 0 1 7.67 0 .46.46 0 0 1 -.65.65 4.55 4.55 0 0 0 -6.41 0 1.94 1.94 0 0 1 -1.21.52" fill="#50e6ff"/><path d="m4 12.48a5.4 5.4 0 0 1 -3.87-1.59.47.47 0 0 1 0-.64.47.47 0 0 1 .66 0 4.47 4.47 0 0 0 3.21 1.32 4.5 4.5 0 0 0 3.2-1.33 1.94 1.94 0 0 1 1.21-.49 1.83 1.83 0 0 1 1.25.52.46.46 0 0 1 0 .65.47.47 0 0 1 -.66 0 .83.83 0 0 0 -.59-.25 1 1 0 0 0 -.6.26 5.4 5.4 0 0 1 -3.81 1.55" fill="#32bedd"/></svg>