<svg height="64" viewBox="0 0 64 64" width="64" xmlns="http://www.w3.org/2000/svg"><g fill="none" fill-rule="evenodd"><path d="m0 0h64v64h-64z" fill="#8c4fff"/><path d="m26.025 48.292-.666 1.886a19.02 19.02 0 0 1 -11.285-10.803l1.853-.749a17.02 17.02 0 0 0 10.098 9.666m22.307-9.666 1.853.749a19.02 19.02 0 0 1 -11.286 10.803l-.666-1.886a17.02 17.02 0 0 0 10.099-9.666m-32.405-12.482-1.853-.749a19.02 19.02 0 0 1 11.285-10.803l.666 1.886a17.02 17.02 0 0 0 -10.098 9.666m22.306-9.666.666-1.886a19.02 19.02 0 0 1 11.286 10.803l-1.853.749a17.02 17.02 0 0 0 -10.1-9.666m-6.232-4.478c1.102 0 2 .897 2 2 0 1.104-.898 2-2 2-1.103 0-2-.896-2-2 0-1.103.897-2 2-2m0 6c2.206 0 4-1.794 4-4s-1.794-4-4-4-4 1.795-4 4 1.794 4 4 4m1.279 33.538a2 2 0 0 1 -1.462.454 2 2 0 0 1 -1.355-.712 2.004 2.004 0 0 1 .258-2.817 2 2 0 0 1 1.462-.454 2 2 0 0 1 1.355.712c.705.848.59 2.112-.258 2.817m-.914-5.521a3.97 3.97 0 0 0 -2.924.909 3.98 3.98 0 0 0 -1.425 2.71 3.98 3.98 0 0 0 .909 2.923 3.98 3.98 0 0 0 3.081 1.441c.934 0 1.829-.322 2.553-.925a3.98 3.98 0 0 0 1.425-2.71 3.98 3.98 0 0 0 -.91-2.923 3.98 3.98 0 0 0 -2.708-1.425m17.634-12.017c-1.103 0-2-.896-2-2 0-1.103.897-2 2-2s2 .897 2 2c0 1.104-.898 2-2 2m0-6c-2.206 0-4 1.795-4 4s1.794 4 4 4 4-1.794 4-4-1.794-4-4-4m-34.72 5.538a2 2 0 0 1 -1.462.454 2 2 0 0 1 -1.355-.712 2.004 2.004 0 0 1 .258-2.817 2 2 0 0 1 1.462-.454 2 2 0 0 1 1.355.712c.705.848.59 2.112-.258 2.817m2.704-1.173a3.98 3.98 0 0 0 -.91-2.923 3.98 3.98 0 0 0 -2.708-1.425 3.98 3.98 0 0 0 -2.924.909 3.98 3.98 0 0 0 -1.425 2.71 3.98 3.98 0 0 0 .909 2.923 3.98 3.98 0 0 0 3.08 1.441c.934 0 1.829-.322 2.553-.925a3.98 3.98 0 0 0 1.425-2.71m12.45 5.967-3.538-3.33 1.37-1.456 2.258 2.123 5.403-4.441 1.27 1.545zm-.03-15.332h3.192c1.326 0 2.405.834 2.405 1.858v2.142h-8v-2.142c-.001-1.024 1.078-1.858 2.404-1.858m-6.403 18h16v-12h-16.002zm2-14h-2.446c-.857 0-1.554.698-1.554 1.555v12.891c0 .857.697 1.554 1.554 1.554h16.89c.858 0 1.556-.697 1.556-1.554v-12.891c0-.857-.698-1.555-1.555-1.555h-2.447v-2.142c0-2.127-1.975-3.858-4.404-3.858h-3.191c-2.43 0-4.405 1.731-4.405 3.858z" fill="#fff"/></g></svg>