<svg viewBox="0 0 24 24" xmlns="http://www.w3.org/2000/svg"><path d="m20.325 3.8958-5.4337-3.1266a5.7283 5.7283 0 0 0 -5.7342 0l-5.4588 3.1266c-1.7528 1.0255-2.8546 2.9265-2.8546 4.9526v6.2783c0 2.051 1.1018 3.927 2.8546 4.9526l5.4337 3.1515a5.7283 5.7283 0 0 0 5.7343 0l5.4338-3.1515c1.7778-1.0256 2.8545-2.9015 2.8545-4.9526v-6.2783c.0501-2.026-1.0517-3.927-2.8296-4.9526zm-8.3133 13.6821c-3.08 0-5.584-2.5013-5.584-5.5778 0-3.0767 2.504-5.578 5.584-5.578s5.609 2.5013 5.609 5.578c0 3.0765-2.504 5.5778-5.609 5.5778z"/></svg>