<svg height="18" viewBox="0 0 18 18" width="18" xmlns="http://www.w3.org/2000/svg" xmlns:xlink="http://www.w3.org/1999/xlink"><clipPath id="a"><path d="m0 0h18v18h-18z"/></clipPath><g clip-path="url(#a)"><path d="m7.167 7.943a1.06 1.06 0 0 1 -.917.528h-3.974a.52.52 0 0 1 -.453-.261l-1.23-2.121a.53.53 0 0 1 0-.529l1.228-2.118a.53.53 0 0 1 .46-.265h2.437c.189 0 .364.101.46.265l.614 1.059 1.376 2.381c.19.329.19.734 0 1.062h-.001z" fill="#86d633"/><path d="m11.902 2.91-.605 1.061-1.376 2.38a1.064 1.064 0 0 1 -1.844 0l-1.376-2.38-.604-1.059a.54.54 0 0 1 0-.531l1.215-2.109a.54.54 0 0 1 .47-.272h2.444a.53.53 0 0 1 .458.265l1.218 2.118a.53.53 0 0 1 0 .527" fill="#ffd400"/><path d="m7.167 10.057c.19.328.191.733 0 1.062l-1.376 2.381-.614 1.059a.53.53 0 0 1 -.46.265h-2.437a.53.53 0 0 1 -.46-.265l-1.228-2.118a.53.53 0 0 1 0-.529l1.23-2.121a.52.52 0 0 1 .453-.261h3.974c.378 0 .727.201.917.528z" fill="#5ea0ef"/><path d="m17.407 6.088-1.228 2.118a.53.53 0 0 1 -.46.265h-3.97a1.06 1.06 0 0 1 -.917-1.59l1.376-2.381.614-1.059a.53.53 0 0 1 .46-.265h2.437c.189 0 .365.101.46.265l1.228 2.118a.53.53 0 0 1 0 .529" fill="#faa21d"/><path d="m17.407 12.441-1.23 2.121a.52.52 0 0 1 -.453.261h-2.446a.52.52 0 0 1 -.453-.261l-.616-1.062-1.376-2.381a1.06 1.06 0 0 1 .917-1.59h3.97c.189 0 .365.101.46.265l1.228 2.118a.53.53 0 0 1 0 .529z" fill="#f04049"/><path d="m11.901 15.618-1.218 2.118a.53.53 0 0 1 -.458.265h-2.444a.54.54 0 0 1 -.47-.272l-1.213-2.11a.53.53 0 0 1 0-.528l.605-1.061 1.376-2.38a1.064 1.064 0 0 1 1.844 0l1.376 2.38.605 1.061a.53.53 0 0 1 0 .528h-.003z" fill="#a67af4"/><path d="m6.251 9.529h-1.486v1.426c0 .303.161.582.423.733l1.238.715.743-1.284a1.06 1.06 0 0 0 -.918-1.59" fill="#b7d2f9"/><path d="m9 11.118c-.38 0-.731.203-.922.532l-.741 1.281 1.239.715a.85.85 0 0 0 .847 0l1.239-.715-.741-1.281a1.06 1.06 0 0 0 -.922-.532z" fill="#d2bff9"/><path d="m11.749 8.471h1.486v-1.427a.85.85 0 0 0 -.424-.733l-1.237-.714-.743 1.285a1.06 1.06 0 0 0 .917 1.59z" fill="#f7cc88"/><path d="m13.235 9.529h-1.486a1.06 1.06 0 0 0 -.917 1.59l.743 1.285 1.237-.714a.85.85 0 0 0 .424-.734z" fill="#f6a9af"/><path d="m8.576 4.354-1.239.715.741 1.281a1.064 1.064 0 0 0 1.844 0l.741-1.281-1.239-.715a.85.85 0 0 0 -.848 0" fill="#fbe981"/><path d="m6.425 5.596-1.237.714a.85.85 0 0 0 -.424.734v1.427h1.486a1.06 1.06 0 0 0 .917-1.59l-.743-1.285z" fill="#c4ea8b"/></g></svg>