<svg fill="#ff000f" viewBox="0 0 24 24" xmlns="http://www.w3.org/2000/svg"><path d="m13.086 16.594v-4.427h3.035c.25.418.362.947.362 1.476 0 1.559-1.17 2.867-2.84 2.951zm-.279-4.455v4.455h-2.784v-4.455zm3.147-.278h-2.868v-4.455h.668c1.086 0 1.949.863 1.949 1.949 0 .64-.334 1.225-.835 1.587.417.223.807.529 1.086.919m-3.147-4.455v4.455h-2.784v-4.455zm7.796 9.188v-4.427h3.035c.251.418.362.947.362 1.476 0 1.559-1.169 2.867-2.84 2.951zm-.278-4.455v4.455h-2.784v-4.455zm3.146-.278h-2.868v-4.455h.668c1.086 0 1.949.863 1.949 1.949 0 .64-.334 1.225-.835 1.587.418.223.808.529 1.086.919m-3.146-4.455v4.455h-2.784v-4.455zm-18.738 4.733h2.868v2.506h-1.476l-.668 1.949h-2.311zm2.868-4.733v4.455h-2.784l1.587-4.455zm.278 7.239v-2.506h2.868l1.587 4.455h-2.311l-.668-1.949zm2.784-2.784h-2.784v-4.455h1.197z"/></svg>