<svg xmlns="http://www.w3.org/2000/svg" width="18" height="18" viewBox="0 0 18 18">
  <defs>
    <mask id="wko">
      <rect width="18" height="18" fill="white"/>
      <path fill="black" d="m2.91 2.1.74-.84A.5.5 0 0 1 4 1.08h10.89a.52.52 0 0 1 .52.52v13.78a.52.52 0 0 1-.17.39l-1.16 1.05z"/>
      <rect width="6.58" height="2.38" x="4.72" y="6.2" fill="black" rx=".28"/>
    </mask>
  </defs>
  <g fill="currentColor" mask="url(#wko)">
    <path fill="currentColor" d="M1.93 2.11 3.14.7a.6.6 0 0 1 .45-.2H15.2a.81.81 0 0 1 .89.83v14.5a.57.57 0 0 1-.2.43l-1.3 1.19H2.72l-.81-.33z"/>
    <path fill="currentColor" d="M14 2.09H2a.06.06 0 0 0-.06.06v15a.39.39 0 0 0 .39.38H14a.38.38 0 0 0 .38-.38V2.48a.39.39 0 0 0-.38-.39"/>
  </g>
</svg>