<svg xmlns="http://www.w3.org/2000/svg" width="64" height="64" viewBox="0 0 64 64"><title>Icon-Architecture/48/Arch_AWS-IoT-TwinMaker_48</title><g id="Icon-Architecture/48/Arch_AWS-IoT-TwinMaker_48" fill="none" fill-rule="evenodd" stroke="none" stroke-width="1"><g id="Icon-Architecture-BG/48/Internet-of-Things" fill="#7aa116"><path id="Rectangle" d="M0 0h64v64H0z"/></g><g id="Icon-Service/48/AWS-IoT-TwinMaker_48" fill="#fff" transform="translate(10 10)"><path id="Fill-4" d="M34.96 22.993v-2h-2v-2h3a1 1 0 0 1 1 1v3zm0 11h2v3a1 1 0 0 1-1 1h-3v-2h2zm-16-15h3v2h-2v2h-2v-3a1 1 0 0 1 1-1m6 2h5v-2h-5zm-15 6h15v15h-15zM44 21.13c0-5.142-3.421-7.809-6.875-8.683-.379-2.979-1.947-5.118-4.277-5.784-1.592-.453-3.252-.099-4.557.905-.675-1.49-1.541-2.784-2.584-3.863-3.579-3.698-8.478-4.7-13.106-2.68-3.939 1.718-6.909 6.453-6.909 11.014q0 .326.017.65C3.526 13.47 0 15.58 0 21.063q.001.535.046 1.03c.367 4.026 3.82 7.356 7.914 7.835v13.065a1 1 0 0 0 1 1h17a1 1 0 0 0 1-1v-5h3v-2h-3v-10a1 1 0 0 0-1-1h-17a1 1 0 0 0-1 1v1.917c-3.083-.46-5.646-2.973-5.922-6A9 9 0 0 1 2 21.063c0-4.61 3.069-6.157 4.954-6.672l.035-.007c.5-.112.835-.583.776-1.093a11 11 0 0 1-.073-1.252c0-3.752 2.508-7.785 5.709-9.182 5.523-2.41 9.441.762 10.869 2.24 1.169 1.208 2.083 2.755 2.714 4.597a1.001 1.001 0 0 0 1.759.258c.874-1.218 2.235-1.743 3.556-1.366 1.629.466 2.704 2.165 2.888 4.556a1 1 0 0 0 .817 1.11C37.807 14.57 42 15.88 42 21.13c0 4.72-3.338 6.213-5.04 6.67v-1.807h-2v3l-.001 1h.001v1h2v-1.137C39.8 29.283 44 26.968 44 21.13"/></g></g></svg>