<svg xmlns="http://www.w3.org/2000/svg" width="18" height="18" viewBox="0 0 18 18"><defs><mask id="a"><path fill="#fff" d="M0 0h18v18H0z"/><rect width="3.86" height=".77" x="2.05" y="2.82" rx=".16"/></mask></defs><g fill="currentColor" mask="url(#a)"><path d="M17.1 3.6H9.69a.34.34 0 0 1-.22-.07L7.35 2.12a.43.43 0 0 0-.22-.06H.9a.4.4 0 0 0-.4.39v13.1a.4.4 0 0 0 .4.39h16.2a.4.4 0 0 0 .4-.39V4a.4.4 0 0 0-.4-.4"/></g><rect width=".77" height=".77" x="2.05" y="2.82" fill="currentColor" rx=".11"/><path fill="currentColor" d="M17.1 3.58H9a.36.36 0 0 0-.28.12L7.37 5a.43.43 0 0 1-.28.11H.9a.4.4 0 0 0-.4.4v10a.4.4 0 0 0 .4.39h16.2a.4.4 0 0 0 .4-.39V4a.4.4 0 0 0-.4-.42"/><path fill="currentColor" d="M12.84 8.03v4.18l-3.59 2.1v-4.19z"/><path fill="currentColor" d="m12.84 8.03-3.59 2.1-3.6-2.1 3.6-2.11z"/><path fill="currentColor" d="M9.25 10.13v4.18l-3.6-2.1V8.03z"/></svg>