<svg height="18" viewBox="0 0 18 18" width="18" xmlns="http://www.w3.org/2000/svg" xmlns:xlink="http://www.w3.org/1999/xlink"><linearGradient id="a" gradientUnits="userSpaceOnUse" x1="9" x2="9" y1="15.92" y2="3.58"><stop offset="0" stop-color="#e27908"/><stop offset=".3" stop-color="#e57e0a"/><stop offset=".64" stop-color="#ed8b11"/><stop offset="1" stop-color="#faa21d"/></linearGradient><path d="m17.1 3.6h-7.41a.34.34 0 0 1 -.22-.07l-2.12-1.41a.43.43 0 0 0 -.22-.06h-6.23a.4.4 0 0 0 -.4.39v13.1a.4.4 0 0 0 .4.39h16.2a.4.4 0 0 0 .4-.39v-11.55a.4.4 0 0 0 -.4-.4" fill="#ef7100"/><rect fill="#fff" height=".77" rx=".16" width="3.86" x="2.05" y="2.82"/><rect fill="#d15900" height=".77" rx=".11" width=".77" x="2.05" y="2.82"/><path d="m17.1 3.58h-8.1a.36.36 0 0 0 -.28.12l-1.35 1.3a.43.43 0 0 1 -.28.11h-6.19a.4.4 0 0 0 -.4.4v10a.4.4 0 0 0 .4.39h16.2a.4.4 0 0 0 .4-.39v-11.51a.4.4 0 0 0 -.4-.42" fill="url(#a)"/><path d="m12.84 8.03v4.18l-3.59 2.1v-4.19z" fill="#ffca00"/><path d="m12.84 8.03-3.59 2.1-3.6-2.1 3.6-2.11z" fill="#ffe452"/><path d="m9.25 10.13v4.18l-3.6-2.1v-4.18z" fill="#ffd400"/></svg>