<svg height="48" viewBox="0 0 48 48" width="48" xmlns="http://www.w3.org/2000/svg"><path d="m7.917 7-5.917 7.836 28.607-.137-5.132-7.699zm.995 2.001h15.493l2.478 3.715-20.851.101zm20.258.735v2h3.973l2.055 2.72-3.602-.015-.007 2 7.638.032-5.088-6.737zm9.105 2.779v2h2.947l1.236 1.636-2.312-.01-.007 2 6.348.025v-.001l-4.268-5.65zm-35.896 28.586h27.902v-25.501h-27.902zm2.001-2h23.901v-21.501h-23.901zm27.266-21.888v2h5.272v17.496h-5.272v2.001h7.272v-21.497zm8.589 1.735v2.001h3.962v13.426h-3.962v2h5.962v-17.427z" fill="#7aa116" fill-rule="evenodd"/></svg>