<svg xmlns="http://www.w3.org/2000/svg" width="192" height="192" fill="none" viewBox="0 0 192 192"><defs><mask id="a"><path fill="#fff" d="M0 0h192v192H0z"/><rect width="30" height="26" x="132" y="122" fill="#000" rx="13"/></mask></defs><g fill="currentColor" mask="url(#a)"><path d="M12 64.48c0-11.627 0-17.44 1.826-22.051a26 26 0 0 1 14.603-14.603C33.04 26 38.853 26 50.48 26h91.04c11.627 0 17.44 0 22.051 1.826a26 26 0 0 1 14.603 14.603C180 47.04 180 52.853 180 64.48v63.04c0 11.627 0 17.44-1.826 22.051a26 26 0 0 1-14.603 14.603C158.96 166 153.147 166 141.52 166H50.48c-11.626 0-17.44 0-22.051-1.826a26 26 0 0 1-14.603-14.603C12 144.96 12 139.147 12 127.52z"/><path d="M12 26h168v140H12z"/></g><path fill="currentColor" d="M62 70H12v71c0 13.807 11.193 25 25 25s25-11.193 25-25z"/><path fill="currentColor" d="M12 26h168v44H12z"/><path fill="currentColor" d="M12 64.48c0-11.627 0-17.44 1.826-22.051a26 26 0 0 1 14.603-14.603C33.04 26 38.853 26 50.48 26h89.04c11.627 0 17.44 0 22.051 1.826a26 26 0 0 1 14.603 14.603C178 47.04 178 52.853 178 64.48V70H12z"/><path fill="currentColor" d="M4 26h58v140H4z"/></svg>