<svg viewBox="0 0 24 24" xmlns="http://www.w3.org/2000/svg" fill="#1E384B"><path d="m19.066 19.071-.001-.001c-1.809 1.81-4.31 2.93-7.071 2.93s-5.262-1.12-7.07-2.93v.001c-.181-.181-.432-.292-.707-.292-.261 0-.495.1-.674.262-.2.182-.326.444-.326.738 0 .27.108.516.282.696l.011.01.011.011c2.171 2.165 5.165 3.504 8.473 3.504 3.306 0 6.301-1.338 8.472-3.502l.014-.014.011-.012c.174-.179.281-.424.281-.693 0-.294-.127-.556-.327-.738-.178-.162-.414-.262-.672-.262-.277 0-.526.111-.707.292zm-3.672-5.071h-3.999c-1.105 0-2-.895-2-2 0-1.104.895-1.999 2-1.999h3.999l1.4-2.001h-5.399c-2.21 0-4.001 1.791-4.001 4s1.791 4 4.001 4h5.399zm-.4-3-.031.001v-.001h-2.969c-.553 0-.999.448-.999 1 0 .553.446 1 .999 1h2.969v-.002l.031.002c.552 0 1-.447 1-1 0-.552-.448-1-1-1zm-3.017-11c-3.297.003-6.287 1.339-8.454 3.497-.181.18-.295.429-.295.705-.001.294.125.556.325.739.177.162.413.263.672.264.276.001.526-.111.708-.29v-.001l.001-.001c1.814-1.806 4.316-2.919 7.077-2.913 2.761.007 5.259 1.13 7.064 2.945v-.001c.181.181.43.295.706.296.26 0 .496-.1.674-.262.201-.182.328-.443.328-.736.001-.277-.11-.526-.29-.706l-.001-.002-.001-.001c-2.166-2.176-5.163-3.526-8.476-3.533z"/></svg>