<svg viewBox="0 0 24 24" xmlns="http://www.w3.org/2000/svg" fill="#FFD54D"><path d="m7.578 0 .405.253v7.038a8.416 8.416 0 0 1 4.742-1.418c2.498 0 4.569.872 6.211 2.616 1.621 1.745 2.431 3.894 2.431 6.448 0 2.565-.816 4.714-2.448 6.447-1.642 1.744-3.707 2.616-6.194 2.616-2.171 0-4.028-.776-5.569-2.329v1.907h-4.523v-23.021zm4.287 10.447c-1.193 0-2.189.405-2.988 1.215-.799.833-1.198 1.925-1.198 3.275s.399 2.436 1.198 3.257c.788.822 1.784 1.232 2.988 1.232 1.271 0 2.301-.427 3.088-1.282.777-.844 1.165-1.913 1.165-3.207s-.394-2.369-1.182-3.224c-.787-.844-1.811-1.266-3.071-1.266z"/></svg>