<svg xmlns="http://www.w3.org/2000/svg" width="18" height="18" viewBox="0 0 18 18"><defs><mask id="a"><path fill="#fff" d="M0 0h18v18H0z"/><path d="M15.16 3.24a1 1 0 0 0-1 1 1 1 0 0 0 .22.62l-1.67 2.99h-.13a1 1 0 0 0-.53.16l-1.29-1.32a1 1 0 0 0 .08-.39 1 1 0 1 0-2.05 0 1 1 0 0 0 .13.48L7.75 8.32a1.3 1.3 0 0 0-.28 0 1 1 0 1 0 1 1 1 1 0 0 0-.13-.47L9.57 7.3a1 1 0 0 0 .25 0 1 1 0 0 0 .36-.08l1.41 1.48a1 1 0 0 0 0 .18 1 1 0 0 0 2 0 1.1 1.1 0 0 0-.2-.6l1.67-3h.1a1 1 0 0 0 1-1 1 1 0 0 0-1-1.04"/></mask></defs><g fill="currentColor" mask="url(#a)"><path d="M5.59 13.13h4.32V17a.5.5 0 0 1-.5.5H5.59zm-4.44 4.32h3.72v-4.32H.55v3.72a.6.6 0 0 0 .6.6m-.6-5h4.32V8.09H1.05a.5.5 0 0 0-.5.5z"/><path fill-rule="evenodd" d="M11.5.55a5.89 5.89 0 0 1 5.95 6 5.89 5.89 0 0 1-5.95 5.95H5.55v-6A5.89 5.89 0 0 1 11.5.55"/></g></svg>