<svg height="18" viewBox="0 0 18 18" width="18" xmlns="http://www.w3.org/2000/svg" xmlns:xlink="http://www.w3.org/1999/xlink"><linearGradient id="a" gradientTransform="matrix(.5 0 0 -.5 3476.4 -1033.45)" gradientUnits="userSpaceOnUse" x1="-6941.93" x2="-6941.93" y1="-2082.96" y2="-2101.68"><stop offset="0" stop-color="#5ea0ef"/><stop offset=".18" stop-color="#589eed"/><stop offset=".41" stop-color="#4897e9"/><stop offset=".66" stop-color="#2e8ce1"/><stop offset=".94" stop-color="#0a7cd7"/><stop offset="1" stop-color="#0078d4"/></linearGradient><linearGradient id="b" gradientUnits="userSpaceOnUse" x1="11.5" x2="11.5" y1="12.45" y2=".55"><stop offset="0" stop-color="#198ab3"/><stop offset=".24" stop-color="#22a5cb"/><stop offset=".53" stop-color="#2bbfe2"/><stop offset=".79" stop-color="#30cff0"/><stop offset="1" stop-color="#32d4f5"/></linearGradient><path d="m5.59 13.13h4.32v3.87a.5.5 0 0 1 -.5.5h-3.82zm-4.44 4.32h3.72v-4.32h-4.32v3.72a.6.6 0 0 0 .6.6m-.6-5h4.32v-4.36h-3.82a.5.5 0 0 0 -.5.5z" fill="url(#a)"/><path d="m11.5.55a5.89 5.89 0 0 1 5.95 6 5.89 5.89 0 0 1 -5.95 5.95h-5.95v-6a5.89 5.89 0 0 1 5.95-5.95" fill="url(#b)" fill-rule="evenodd"/><path d="m15.16 3.24a1 1 0 0 0 -1 1 1 1 0 0 0 .22.62l-1.67 2.99h-.13a1 1 0 0 0 -.53.16l-1.29-1.32a1 1 0 0 0 .08-.39 1 1 0 1 0 -2.05 0 1 1 0 0 0 .13.48l-1.17 1.54a1.3 1.3 0 0 0 -.28 0 1 1 0 1 0 1 1 1 1 0 0 0 -.13-.47l1.23-1.55a1 1 0 0 0 .25 0 1 1 0 0 0 .36-.08l1.41 1.48a1 1 0 0 0 0 .18 1 1 0 0 0 2 0 1.1 1.1 0 0 0 -.2-.6l1.67-3h.1a1 1 0 0 0 1-1 1 1 0 0 0 -1-1.04" fill="#fff"/></svg>