<svg viewBox="0 0 77.8 46.9" xmlns="http://www.w3.org/2000/svg"><g transform="matrix(3.69565 0 0 3.69565 0 1.2922488)"><path d="m2.6 12.3c-.9 0-1.8-.5-2.3-1.3s-.4-1.8.1-2.6l4.7-7.4c.5-.8 1.4-1.3 2.3-1.3s1.8.6 2.3 1.4c.4.8.4 1.8-.1 2.6l-4.7 7.4c-.5.7-1.4 1.2-2.3 1.2" fill="#f62b54"/><path d="m10.7 12.3c-1 0-1.8-.5-2.3-1.3-.4-.9-.4-1.9.1-2.7l4.7-7.4c.5-.8 1.4-1.3 2.3-1.3 1 0 1.8.6 2.3 1.4.4.8.4 1.8-.2 2.6l-4.7 7.4c-.5.8-1.3 1.3-2.2 1.3" fill="#fc0"/><circle cx="18.6" cy="10" fill="#00ca72" r="2.4"/></g></svg>