<svg xmlns="http://www.w3.org/2000/svg" width="128" height="129" fill="none" viewBox="0 0 128 129"><defs><mask id="a"><path fill="#fff" d="M0 0h128v129H0z"/><path fill="#000" fill-rule="evenodd" d="M64.217 121.97V64.879l-24.79-14.273-24.79-14.273v57.091z" clip-rule="evenodd"/></mask></defs><g fill="currentColor" mask="url(#a)"><path fill-rule="evenodd" d="m64.217.878 55.58 32v64l-55.58 32-55.58-32v-64zm49.58 35.455L64.217 7.787l-49.58 28.546v57.09l49.58 28.546 49.58-28.545z" clip-rule="evenodd"/></g><path fill="currentColor" d="m89.007 107.697 24.79-14.273-24.79-14.273-24.79 14.273v28.546z"/><path fill="currentColor" d="M64.217 64.879v28.545l24.79-14.273z"/><path fill="currentColor" d="m89.007 50.606-24.79 14.273 24.79 14.272 24.79-14.272z"/><path fill="currentColor" d="M89.007 22.06 64.217 7.788 39.427 22.06l-24.79 14.273 24.79 14.273 24.79-14.273 24.79 14.273 24.79-14.273z"/><path fill="currentColor" d="m64.217 64.879 24.79-14.273-24.79-14.273-24.79 14.273z"/></svg>