<svg height="48" viewBox="0 0 48 48" width="48" xmlns="http://www.w3.org/2000/svg"><path d="m15 16h3.92v-2h-3v-3h-1.92v4a1 1 0 0 0 1 1m-9.707 8.293 1.414 1.414 3-3-1.414-1.414zm3.414-16-3-3-1.414 1.414 3 3zm7.213-2.293h.08v-4h-2v4zm9.787.707-1.414-1.414-3 3 1.414 1.414zm-16.787 8.293c0 3.309 2.691 6 6 6s6-2.691 6-6-2.691-6-6-6-6 2.691-6 6m-2 0c0-4.411 3.589-8 8-8s8 3.589 8 8-3.589 8-8 8-8-3.589-8-8m11.08 23h4v-2h-4zm0-5h4v-2h-4zm0-5h4v-2h-4zm18 10h4v-2h-4zm0-5h4v-2h-4zm0-5h4v-2h-4zm-9 10h4v-2h-4zm0-5h4v-2h-4zm0-5h4v-2h-4zm18-16h-3v-2h-2v2h-4.08v-2h-1.92v2h-4.08v-2h-1.92v2h-3v2h3v2h1.92v-2h4.08v2h1.92v-2h4.08v2h1.92v-2h2.08v4h-19v2h19v23h-30v-17h-2v18a1 1 0 0 0 1 1h32a1 1 0 0 0 1-1v-31a1 1 0 0 0 -1-1m-43 5h3.976v-2h-3.976z" fill="#e7157b" fill-rule="evenodd"/></svg>