<svg viewBox="0 0 24 24" xmlns="http://www.w3.org/2000/svg"><path d="m12 0-11.216 3.984 1.711 14.772 9.505 5.244 9.506-5.244 1.71-14.772zm-3.646 4.212h1.674l-.838 1.912-2.51-.24zm2.032 0h1.315v6.812h-.717l-5.141-1.912-.717-2.988 4.308.35zm1.794 0h1.314l.953 2.261 4.427-.349-.717 2.988-5.14 1.912h-.837zm1.673 0h1.674l1.673 1.673-2.51.239zm-7.89 5.378 1.315.478 1.315 1.315 1.076-.24-.837 1.196v3.704l-2.87-2.39zm11.955 0v4.063l-2.87 2.39v-3.704l-.837-1.195 1.077.239 1.314-1.315zm-7.786 1.536.596.36h2.384l.597-.36.953 1.437v5.388l-.715 1.078-.835.838h-2.384l-.834-.838-.715-1.078v-5.388zm-2.854 4.08 1.554 1.315v1.793l-1.554-1.554zm9.324 0v1.554l-1.553 1.554v-1.794z"/></svg>