<svg viewBox="0 0 24 24" xmlns="http://www.w3.org/2000/svg"><path d="m11.963 0a.77.77 0 0 0 -.512.227l-8.515 8.516a.774.774 0 0 0 0 1.095l8.515 8.516a.774.774 0 0 0 1.096 0l8.515-8.516a.774.774 0 0 0 0-1.095l-8.515-8.516a.77.77 0 0 0 -.584-.226zm.035 1.87 7.424 7.422-7.424 7.421-7.42-7.423zm-8.515 12.064-.774.002v.773a.77.77 0 0 0 .227.547l8.517 8.518a.774.774 0 0 0 1.094 0l8.517-8.518a.77.77 0 0 0 .227-.547v-.773h-.775a.77.77 0 0 0 -.547.226l-7.97 7.97-7.97-7.971a.77.77 0 0 0 -.546-.223z"/></svg>