<svg xmlns="http://www.w3.org/2000/svg" width="18" height="18" viewBox="0 0 18 18">
  <defs>
    <mask id="wko">
      <rect width="18" height="18" fill="white"/>
      <rect width="16" height="10" x="1" y="1.68" fill="black" rx=".33"/>
    </mask>
  </defs>
  <g fill="currentColor" mask="url(#wko)">
    <rect width="18" height="12" y=".68" fill="currentColor" rx=".6"/>
  </g>
  <path fill="currentColor" d="M12.61 16.31c-1.78-.28-1.85-1.56-1.84-3.63H7.23c0 2.07-.06 3.35-1.84 3.63a1.05 1.05 0 0 0-.89 1h9a1.05 1.05 0 0 0-.89-1"/>
  <path fill="currentColor" d="m8.583 9.068-.672.672a.29.29 0 0 1-.41 0L4.843 7.082a.29.29 0 0 1 0-.41l.466-.467a.29.29 0 0 1 .41 0l2.829 2.828z"/>
  <path fill="currentColor" d="m7.51 9.732-.67-.672 6.102-6.102a.29.29 0 0 1 .41 0l.46.46a.29.29 0 0 1 0 .41L7.914 9.724a.29.29 0 0 1-.41 0z"/>
</svg>