<svg height="18" viewBox="0 0 18 18" width="18" xmlns="http://www.w3.org/2000/svg" xmlns:xlink="http://www.w3.org/1999/xlink"><linearGradient id="a" gradientUnits="userSpaceOnUse" x1="9" x2="9" y1="12.68" y2=".68"><stop offset="0" stop-color="#0078d4"/><stop offset=".82" stop-color="#5ea0ef"/></linearGradient><linearGradient id="b" gradientUnits="userSpaceOnUse" x1="9" x2="9" y1="17.32" y2="12.68"><stop offset="0" stop-color="#1490df"/><stop offset=".98" stop-color="#1f56a3"/></linearGradient><rect fill="url(#a)" height="12" rx=".6" width="18" y=".68"/><rect fill="#fff" height="10" rx=".33" width="16" x="1" y="1.68"/><path d="m12.61 16.31c-1.78-.28-1.85-1.56-1.84-3.63h-3.54c0 2.07-.06 3.35-1.84 3.63a1.05 1.05 0 0 0 -.89 1h9a1.05 1.05 0 0 0 -.89-1" fill="url(#b)"/><path d="m8.583 9.068-.672.672a.29.29 0 0 1 -.41 0l-2.658-2.658a.29.29 0 0 1 0-.41l.466-.467a.29.29 0 0 1 .41 0l2.829 2.828z" fill="#86d633"/><path d="m7.51 9.732-.67-.672 6.102-6.102a.29.29 0 0 1 .41 0l.46.46a.29.29 0 0 1 0 .41l-5.898 5.896a.29.29 0 0 1 -.41 0z" fill="#5e9624"/></svg>