<svg viewBox="0 0 24 24" xmlns="http://www.w3.org/2000/svg"><path d="m18 2h-12c-2.21 0-4 1.79-4 4v12c0 2.21 1.79 4 4 4h12c2.21 0 4-1.79 4-4v-12c0-2.21-1.79-4-4-4zm-6 16c-3.31 0-6-2.69-6-6s2.69-6 6-6 6 2.69 6 6-2.69 6-6 6zm0-6a2.5 2.5 0 0 0 5 0 2.5 2.5 0 0 0 -5 0zm6-12h-12c-3.31 0-6 2.69-6 6v12c0 3.31 2.69 6 6 6h12c3.31 0 6-2.69 6-6v-12c0-3.31-2.69-6-6-6zm5 18c0 2.76-2.24 5-5 5h-12c-2.76 0-5-2.24-5-5v-12c0-2.76 2.24-5 5-5h12c2.76 0 5 2.24 5 5zm-5-16h-12c-2.21 0-4 1.79-4 4v12c0 2.21 1.79 4 4 4h12c2.21 0 4-1.79 4-4v-12c0-2.21-1.79-4-4-4zm-6 16c-3.31 0-6-2.69-6-6s2.69-6 6-6 6 2.69 6 6-2.69 6-6 6zm0-6a2.5 2.5 0 0 0 5 0 2.5 2.5 0 0 0 -5 0zm2.5-2.5a2.5 2.5 0 0 0 0 5 2.5 2.5 0 0 0 0-5zm3.5-7.5h-12c-2.21 0-4 1.79-4 4v12c0 2.21 1.79 4 4 4h12c2.21 0 4-1.79 4-4v-12c0-2.21-1.79-4-4-4zm-6 16c-3.31 0-6-2.69-6-6s2.69-6 6-6 6 2.69 6 6-2.69 6-6 6zm0-6a2.5 2.5 0 0 0 5 0 2.5 2.5 0 0 0 -5 0zm2.5-2.5a2.5 2.5 0 0 0 0 5 2.5 2.5 0 0 0 0-5z"/></svg>