<svg xmlns="http://www.w3.org/2000/svg" width="18" height="18" viewBox="0 0 18 18"><rect width="1.18" height="5.26" x="3.7" y="5.49" fill="currentColor" rx=".52" transform="rotate(-90 4.29 8.12)"/><rect width="1.18" height="5.26" x="2.04" y="7.88" fill="currentColor" rx=".52" transform="rotate(-90 2.63 10.51)"/><rect width="1.18" height="5.26" x="3.7" y="10.26" fill="currentColor" rx=".52" transform="rotate(-90 4.295 12.895)"/><path fill="currentColor" d="M18 11a3.28 3.28 0 0 0-2.81-3.18 4.13 4.13 0 0 0-4.21-4 4.23 4.23 0 0 0-4 2.8 3.89 3.89 0 0 0-3.38 3.8 4 4 0 0 0 4.06 3.86h7.11A3.32 3.32 0 0 0 18 11"/></svg>