<svg height="18" viewBox="0 0 18 18" width="18" xmlns="http://www.w3.org/2000/svg" xmlns:xlink="http://www.w3.org/1999/xlink"><linearGradient id="a" gradientUnits="userSpaceOnUse" x1="10.79" x2="10.79" y1="2.17" y2="16.56"><stop offset=".18" stop-color="#5ea0ef"/><stop offset="1" stop-color="#0078d4"/></linearGradient><rect fill="#b3b3b3" height="5.26" rx=".52" transform="matrix(0 -1 1 0 -3.83 12.41)" width="1.18" x="3.7" y="5.49"/><rect fill="#a3a3a3" height="5.26" rx=".52" transform="matrix(0 -1 1 0 -7.88 13.14)" width="1.18" x="2.04" y="7.88"/><rect fill="#7a7a7a" height="5.26" rx=".52" transform="matrix(0 -1 1 0 -8.6 17.19)" width="1.18" x="3.7" y="10.26"/><path d="m18 11a3.28 3.28 0 0 0 -2.81-3.18 4.13 4.13 0 0 0 -4.21-4 4.23 4.23 0 0 0 -4 2.8 3.89 3.89 0 0 0 -3.38 3.8 4 4 0 0 0 4.06 3.86h7.11a3.32 3.32 0 0 0 3.23-3.28" fill="url(#a)"/></svg>