<svg height="64" viewBox="0 0 64 64" width="64" xmlns="http://www.w3.org/2000/svg"><g fill="none" fill-rule="evenodd"><path d="m0 0h64v64h-64z" fill="#01a88d"/><path d="m6 7.5c0-.827.673-1.5 1.5-1.5s1.5.673 1.5 1.5-.673 1.5-1.5 1.5-1.5-.673-1.5-1.5m5 0c0-1.93-1.57-3.5-3.5-3.5s-3.5 1.57-3.5 3.5 1.57 3.5 3.5 3.5 3.5-1.57 3.5-3.5m26.5 31.5c-1.93 0-3.5-1.57-3.5-3.5s1.57-3.5 3.5-3.5 3.5 1.57 3.5 3.5-1.57 3.5-3.5 3.5m-14.5-19c1.103 0 2 .897 2 2s-.897 2-2 2-2-.897-2-2 .897-2 2-2m-3.444.002a3.94 3.94 0 0 0 -.556 1.998c0 2.206 1.794 4 4 4s4-1.794 4-4-1.794-4-4-4c-.747 0-1.438.219-2.037.577l-3.094-2.707a7.97 7.97 0 0 1 5.131-1.87c4.411 0 8 3.589 8 8s-3.589 8-8 8-8-3.589-8-8c0-1.74.564-3.347 1.512-4.662zm-15.556 1.998c0-2.531.508-4.976 1.47-7.287a7.4 7.4 0 0 0 2.03.287 7.45 7.45 0 0 0 4.559-1.558l2.945 2.578a9.94 9.94 0 0 0 -2.004 5.98c0 5.514 4.486 10 10 10s10-4.486 10-10-4.486-10-10-10a9.95 9.95 0 0 0 -6.643 2.546l-2.886-2.525a7.46 7.46 0 0 0 1.529-4.521c0-.884-.162-1.729-.443-2.517 5.142-2.548 11.511-2.58 16.685-.096a5.506 5.506 0 0 0 5.258 7.113c.826 0 1.606-.188 2.311-.516a18.85 18.85 0 0 1 3.189 10.516c0 2.988-.713 5.935-2.053 8.582a5.45 5.45 0 0 0 -2.447-.582 5.506 5.506 0 0 0 -5.5 5.5c0 1.019.283 1.971.769 2.79a18.9 18.9 0 0 1 -9.769 2.71c-10.477 0-19-8.523-19-19m-2-14.5c0-3.033 2.468-5.5 5.5-5.5s5.5 2.467 5.5 5.5-2.468 5.5-5.5 5.5a5.506 5.506 0 0 1 -5.5-5.5m34.5-4.5c1.93 0 3.5 1.57 3.5 3.5s-1.57 3.5-3.5 3.5-3.5-1.57-3.5-3.5 1.57-3.5 3.5-3.5m7.5 19c0-4.201-1.237-8.213-3.56-11.671a5.48 5.48 0 0 0 1.56-3.829c0-3.033-2.468-5.5-5.5-5.5a5.5 5.5 0 0 0 -4.327 2.116c-5.741-2.78-12.82-2.751-18.532.09a7.5 7.5 0 0 0 -6.141-3.206c-4.136 0-7.5 3.364-7.5 7.5 0 2.716 1.456 5.092 3.623 6.408a20.9 20.9 0 0 0 -1.623 8.092c0 11.58 9.421 21 21 21 3.956 0 7.77-1.107 11.099-3.187a5.46 5.46 0 0 0 3.401 1.187c3.032 0 5.5-2.467 5.5-5.5a5.47 5.47 0 0 0 -1.437-3.694 21 21 0 0 0 2.437-9.806" fill="#fff" transform="translate(10 10)"/></g></svg>