<svg fill="none" viewBox="0 0 32 32" xmlns="http://www.w3.org/2000/svg" xmlns:xlink="http://www.w3.org/1999/xlink"><clipPath id="a"><path d="m0 0h32v31.2h-32z"/></clipPath><g clip-path="url(#a)"><path d="m30.667 1.333h-29.334v28.534h29.334z" fill="#002623"/><g clip-rule="evenodd" fill="#00e6d2" fill-rule="evenodd"><path d="m0 0v31.2h32v-31.2zm1.333 1.333h29.334v28.534h-29.334z"/><path d="m8.667 21.707c0 .106-.04.093-.147.093h-1.947c-.133 0-.173-.04-.173-.173v-14c0-.107.04-.2.133-.2 1.054-.04 2-.067 3.587-.067 3.067 0 4.92 1.467 4.92 4.12 0 2.187-1.467 3.413-2.68 3.867.627 1.08 2.733 4.96 3.413 6.253.067.107.067.2-.08.2h-2.24c-.146 0-.213.027-.253-.04-.493-.853-2.04-3.893-3.027-5.693h-1.506zm1.306-7.774c1.574 0 2.694-.626 2.694-2.226 0-1.574-1.014-2.267-2.6-2.267-.56 0-1.094.027-1.4.04v4.453zm10.027 7.72c0 .107-.04.147-.133.147h-2.12c-.107 0-.147-.067-.147-.147v-14.12c0-.093.027-.133.147-.133h2.12c.093 0 .133.04.133.133v4.294c.667-.52 1.493-.84 2.52-.84 1.4 0 3.08.706 3.08 3.84v6.8c0 .133-.04.173-.147.173h-2.093c-.107 0-.147-.067-.147-.173v-6.574c0-1.293-.506-2-1.533-2-.667 0-1.2.214-1.667.64v7.96z"/></g></g></svg>