<svg xmlns="http://www.w3.org/2000/svg" width="18" height="18" viewBox="0 0 18 18">
  <defs>
    <mask id="wko">
      <rect width="18" height="18" fill="white"/>
      <ellipse cx="9" cy="9" fill="black" rx="7.4" ry="7.37"/>
    </mask>
  </defs>
  <g fill="currentColor" mask="url(#wko)">
    <ellipse cx="9" cy="9" fill="currentColor" rx="8.5" ry="8.47"/>
  </g>
  <path fill="currentColor" d="M2.72 9.44a6.24 6.24 0 0 0 1.82 4l2-2a3.53 3.53 0 0 1-1-2z"/>
  <path fill="currentColor" d="M13.13 4.27a6.25 6.25 0 0 0-3.69-1.53v2.79a3.4 3.4 0 0 1 1.71.7zm-8.26 0 2 2a3.4 3.4 0 0 1 1.71-.7V2.74a6.25 6.25 0 0 0-3.71 1.53m6.91 2.58a3.6 3.6 0 0 1 .71 1.71h2.79a6.16 6.16 0 0 0-1.53-3.67z"/>
  <path fill="currentColor" d="m6.22 6.85-2-2a6.16 6.16 0 0 0-1.5 3.71h2.79a3.6 3.6 0 0 1 .71-1.71"/>
  <path fill="currentColor" d="M14.14 7a.45.45 0 0 0-.57-.25L9.45 8.41l.32.81 4.12-1.63a.44.44 0 0 0 .25-.59"/>
  <circle cx="9" cy="9" r="1.2" fill="currentColor"/>
</svg>