<svg xmlns="http://www.w3.org/2000/svg" fill="currentColor" viewBox="0 0 24 24"><path fill="currentColor" d="M22.224 5.831 12.23.061a.46.46 0 0 0-.462 0l-9.992 5.77a.46.46 0 0 0-.231.4v11.538c0 .165.088.318.23.4l9.993 5.77a.46.46 0 0 0 .462 0l9.993-5.77a.46.46 0 0 0 .23-.4V6.231a.46.46 0 0 0-.23-.4m-.63 11.708L12 23.077l-9.593-5.539V6.461L12 .923l9.593 5.539zM11.295 8.185q.581-.416 1.213-.659c.632-.243.843-.243 1.263-.243q.39 0 .727.113c.337.113.42.185.584.328s.294.32.39.532.142.454.142.727q0 .494-.195.98c-.195.486-.304.625-.522.902s-.47.52-.756.727-.582.357-.89.448l-.136-.227a2 2 0 0 0 .5-.35 2.3 2.3 0 0 0 .39-.484q.161-.27.25-.571a2.2 2.2 0 0 0 .087-.614q0-.357-.104-.675c-.104-.318-.17-.397-.305-.555s-.3-.282-.496-.373-.423-.136-.679-.136q-.467 0-.856.182-.39.18-.701.49c-.311.31-.389.44-.542.707a5 5 0 0 0-.383.837 5.6 5.6 0 0 0-.23.886q-.078.448-.078.844 0 .402.084.83c.084.429.139.568.247.845q.162.415.402.785c.24.37.345.463.555.649a2.6 2.6 0 0 0 .7.445q.388.165.841.165.312 0 .607-.084a3 3 0 0 0 .568-.228 3 3 0 0 0 .516-.337 4 4 0 0 0 .451-.422l.215.208q-.285.376-.679.723a5.5 5.5 0 0 1-.847.617 4.6 4.6 0 0 1-.95.428 3.2 3.2 0 0 1-.984.16q-.474 0-.892-.166c-.418-.166-.536-.26-.77-.448s-.442-.409-.626-.662-.34-.522-.467-.808-.225-.58-.292-.883-.101-.599-.101-.889q0-.63.21-1.295c.21-.665.335-.874.582-1.291s.537-.813.873-1.185a6.7 6.7 0 0 1 1.084-.973"/></svg>