<svg height="48" viewBox="0 0 48 48" width="48" xmlns="http://www.w3.org/2000/svg"><path d="m3.675 24.96h-1.675v-2h1.675a20.1 20.1 0 0 1 3.806-10.899l1.619 1.171a18.15 18.15 0 0 0 -3.425 9.728h1.596v2h-1.596a18.15 18.15 0 0 0 3.426 9.729l-1.621 1.171a20.13 20.13 0 0 1 -3.805-10.9m32.186 15.48c-3.204 2.321-6.955 3.617-10.901 3.806v1.616h-2v-1.616c-3.944-.189-7.695-1.485-10.899-3.806l1.172-1.619a18.14 18.14 0 0 0 9.727 3.425v-1.597h2v1.597a18.14 18.14 0 0 0 9.729-3.425zm-23.8-32.959c3.204-2.321 6.955-3.617 10.899-3.807v-1.674h2v1.674c3.946.19 7.697 1.486 10.901 3.807l-1.172 1.619a18.15 18.15 0 0 0 -9.729-3.426v1.597h-2v-1.597a18.14 18.14 0 0 0 -9.727 3.426zm33.859 17.479h-1.673c-.19 3.944-1.486 7.696-3.805 10.9l-1.621-1.171a18.15 18.15 0 0 0 3.426-9.729h-1.597v-2h1.597a18.14 18.14 0 0 0 -3.426-9.728l1.62-1.171c2.32 3.203 3.616 6.955 3.806 10.899h1.673zm-10.369-14.004 6.148-6.149 1.414 1.414-6.148 6.149zm-23.181 26.009-6.149 6.148-1.414-1.414 6.149-6.148zm19.325-6.685 11.418 11.419-1.414 1.414-11.419-11.419zm-15.469-12.64-11.419-11.419 1.414-1.414 11.419 11.419zm17.275 5.32v-8.541h-8.541v2.485h-2v-3.077a1.41 1.41 0 0 1 1.408-1.408h9.725a1.41 1.41 0 0 1 1.408 1.408v9.725a1.41 1.41 0 0 1 -1.408 1.408h-3.106v-2zm-19.081 2v8.541h8.54v-2.514h2v3.106a1.41 1.41 0 0 1 -1.408 1.408h-9.724a1.41 1.41 0 0 1 -1.408-1.408v-9.725a1.41 1.41 0 0 1 1.408-1.408h3.105v2zm5.27 3.271h8.541v-8.541h-8.541zm10.541.348v-9.238c0-.91-.742-1.652-1.652-1.652h-9.238c-.91 0-1.651.742-1.651 1.652v9.238c0 .91.741 1.652 1.651 1.652h9.238c.91 0 1.652-.742 1.652-1.652" fill="#ed7100" fill-rule="evenodd"/></svg>