<svg xmlns="http://www.w3.org/2000/svg" xmlns:xlink="http://www.w3.org/1999/xlink" viewBox="0 0 128 128">
  <defs>
    <mask id="wko">
      <rect width="128" height="128" fill="white"/>
      <path fill="black" d="m54.593 86.576-2.855 12.035-8.534-.443-6.432 3.879c-3.45-.853-6.186-2.848-8.906-4.869l-.04-6.313 3.147-4.493 2.177-10.43-1.01-1.405c.23-1.735 1.182-3.125 4.671-3.305z"/>
      <path fill="black" d="m59.453 73.884 9.223 9.757 4.027-9.744.587.448 1.358-2.45-6.284-4.072-2.043 4.03-.392.225-4.604-3.051-2.673 4.002z"/>
      <path fill="black" d="M51.643 61.535c-2.663.193-2.555 3.175-2.521 5.68l.556 3.382c1.844-.075 3.184-.073 5.315.635.412-3.182.817-8.024-2.032-9.6a5 5 0 0 0-1.318-.097m-8.973 1.068c-2.33.815-2.566 2.414-2.672 4.69.312 2.647 1.257 4.832 2.45 6.705 1.4-1.837 3.325-2.565 4.255-2.86.039-1.95-.375-4.035-.744-5.708-1.06-2.557-2.075-2.762-3.289-2.827m13.883 15.414-1.21.862c.51.048 1.006.646 1.105 1.65l.14-.418c.144-.877.003-1.31-.035-2.094m-11.95 2.352c.21.506.597 2.002 1.314 2.428-.194-.543-.623-1.516.097-2.016z"/>
      <path fill="black" d="m80.018 45.02-3.434 8.89c1.53-.077 3.367-.553 4.88-1.593 2.183-3.022 1.19-5.67-1.446-7.297m-29.393 2.154c-.658 1.317-.677 2.825.133 4.678 1.512 1.568 3.032 2.01 3.869 2.201z"/>
      <path fill="black" d="M58.656 45.178a.53.53 0 0 0-.283.145c-.332.322-.15 1.261.22 1.558s1.021.245 1.272-.101-.003-.97-.307-1.254c-.228-.213-.593-.403-.902-.348m21.803.418c-.258-.04-.516.015-.713.201-.393.373-.263 1.404.12 1.813s1.121.603 1.525.205.167-1.46-.221-1.848a1.32 1.32 0 0 0-.711-.371m-27.725 5.627a.66.66 0 0 0-.6.234c-.168.22-.14.621.069.832s.72.336.949.084.06-.888-.203-1.068a.5.5 0 0 0-.215-.082m22.037.144a.48.48 0 0 0-.416.126c-.223.222-.12.827.102 1.05s.608.307.832.084.118-.827-.104-1.05a.74.74 0 0 0-.414-.21" filter="url(#K)"/>
    </mask>
  </defs>
  <g fill="currentColor" mask="url(#wko)">
    <path fill="currentColor" d="M99.964 22.789c-6.517-5.069-10.209-4.706-14.98-6.418C73.531 3.827 63.902 2.683 54.189 1.013 41.487 7.336 35.805 15.999 33.826 25.896c-3.805 3.16-7.691 6.278-10.63 9.87 2.723 1.344 6.644 2.088 10.846 2.692l59.73-10.232c2.53-1.48 4.388-3.44 6.193-5.437z"/>
    <path fill="currentColor" d="M89.703 97.754c.007-.397.161-.527.352-.591 1.339-.508 3.853-1.011 4.883-.717.538.208 2.64 1.235 2.771 3.503l-1.94 2.553z"/>
    <path fill="currentColor" d="m87.816 96.008 2.561 1.288-.154.895-3.597-.028z"/>
    <path fill="currentColor" d="M91.959 96.61c-.255.143-.394.295-.453.481-.06.186.012.281.366.409 1.077.393 2.118 1.314 3.143 2.453.515.39.686.456.778-.278l-1.33-2.24c1.062.9 1.953 2.312 3.246 2.514l-.852 2.469-7.144-4.199c-.073-.676.043-.958.329-1.07z" filter="url(#b)"/>
    <path fill="currentColor" d="m42.166 34.404 3.807 29.444 14.548 2.06.09 4.433 6.186 2.324 1.176-3.868.02-2.464c1.86-.307 4.147-1.214 6.363-2.019l11.26-3.77 5.621-32.22-23.987-3.958z"/>
    <path fill="currentColor" d="m42.166 34.404 3.807 29.444 14.548 2.06.09 4.433 6.186 2.324 1.176-3.868.02-2.464c1.86-.307 4.147-1.214 6.363-2.019l11.26-3.77 5.621-32.22-23.987-3.958z"/>
    <path fill="currentColor" d="M59.453 73.884c-7.134 3.337-6.249 7.424-7.055 14.745l-.603 2.272c.139 1.865-.924 2.426-2.1 4.437-.437.717.328.909.683 1.03-.272.784-.198 1.154-.123 1.957.742 1.742.694 3.748.945 5.38-1.532.846-.454 1.985.882 2.198l14.378 10.81c1.738.396 3.342-.326 5.056-.742l10.535-3.225c2.473-1.237 5.395-2.044 4.79-4.882l3.526-2.393-10.135-22.366c1.325-7.562-.012-8.668-5.579-13.179z"/>
    <path fill="currentColor" d="M41.819 78.258c-.516.1-.84.523-1.217.86-1.446 1.574-1.905 3.756-1.544 5.404 1.11 2.561 3.031 3.072 5.67 3.216.973-.287 1.708-.544 2.702-.544.113-.802.256-1.173.95-1.514 1.939-.255 2.687.106 4.987-.723.675-.128 1.204-.311 1.88-.247.312.096.412.286.584.544 1.983.556 3.712.811 5.057 0 2.208-2.353 2.772-4.43.99-7.085a9.3 9.3 0 0 0-1.317-1.237l-2.307-1.306-.26.38c-1.49 2.366-3.143 3.207-5.577 4.34-3.616.855-6.128.806-9.163-.505-.728-.542-1.003-.845-1.435-1.583"/>
    <path fill="currentColor" d="M40.012 83.793c.045-.039.094-.07.208 0 .477.293 1.074.768 1.665 1.163 1.45 1.07 3.358.634 4.765.25 3.066-.85 6.713-2.91 8.41-6.057-2.552 1.458-4.68 1.721-7.522 1.781-2.505-.319-4.26-.472-5.66-2.494l-.194-.172c-3.29 2.208-3.655 6.47-.588 8.762 2.242.9 3.855.948 5.982.068-1.888.248-7.259.852-7.066-3.301"/>
    <path fill="currentColor" d="m45.512 48.757-1.331-14.129 8.956-5.262c-2.224 6.615-6.02 13.44-7.625 19.391"/>
    <path fill="currentColor" d="M46.865 56.586c1.2 1.499 2.468 2.761 3.88 3.523l-3.167 1.662z"/>
    <path fill="currentColor" d="m33.703 32.178-.125.93c-1.123 9.11-1.623 18.358-3.836 27.226.512-.618.908-1.7 1.29-2.837-.12 1.67.008 3.488-.594 4.869l4.236.04c.396-.764.791-2.33 1.187-3.563.391 1.098.477 2.064.594 3.72.342-.279.634-.762.87-1.464.074.58.107 1.161.278 1.742l1.236.283c.867-1.615 1.878-2.111 2.291-2.298 2.064-.457 3.766.366 5.615.269.384-.034.755-.174 1.126-.366-2.407-11.294-2.286-17.487-1.407-21.851 1.327-2.16 3.155-4.084 4.658-5.649-1.641 3.623-2.721 7.054-3.127 10.676.447-.571.715-1.322 1.028-2.027.157 1.416.115 3.102.756 3.862 1.899-6.107 5.991-10.963 8.662-14.54-1.708 4.205-3.98 9.015-3.675 12.105 2.15-4.796 5.324-8.448 8.727-11.956-2.13 3.43-3.853 9.486-3.615 10.552 1.322-3.963 3.986-8.713 6.05-11.835-1.204 3.906-3.665 7.996-3.507 11.717.226-.904.62-1.525 1.069-2.058.01 2.07-.32 4.476.277 6.808.938-3.064 2.21-5.347 3.443-7.6.197-.375.378-.76.65-1.086-.122 1.456-.346 3.134-.252 4.227.594-2.233 1.228-4.505 2.178-6.382-.665 4.845-1.526 9.609 1.04 13.603.965-.43 3.034-3.714 3.272-6.265.38.588.55 1.016.475 2.455 1.812-2.307 2.852-8.683 2.296-13.874 1.278 4.371 2.103 8.518 2.703 13.146.613.128 1.176.43 1.657.916 1.531-4.266 1.63-8.923 1.538-13.587 1.393 5.28 1.502 11.04 1.243 16.188.675-.505 1.368-1.856 1.693-3.233.03 1.325.142 2.055.504 3.242-1.509 3.836-3.113 7.666-4.632 11.498-.096.215-.328.55-.487.672-2.238 1.504-4.278 2.823-6.55 3.832l1.34.208c2.864-1.15 5.343-1.312 8.15-.823l.002-.003q-.007-.004 0 0c1.866-1.64 2.782-3.455 3.833-5.901-.272 2.361-.38 4.04-.807 6.452.688-.653 1.288-1.155 2.048-2.383-.207.755-.41 1.511-.252 2.267.976-.778 2.55-3.687 2.504-6.564.424 1.44.65 4.685.475 6.966 2.351-3.41 2.508-5.831 3.59-10.314.133 3.154-.025 1.816.434 4.199.723-9.843 1.064-26.727-5.259-36.675-18.146-2.093-38.932 2.707-56.893 10.465zm24.556-.709v-.003c-.4.43-.405.436 0 .003"/>
    <path fill="currentColor" d="m73.906 70.118-.304.836 1.046.941-1.358 2.45-.588-.449-.447 1.036c3.336 1.643 6.182 4.021 6.857 9.656-1.014 1.098-1.997 8.313-2.58 4.456l-3.536 1.058c-.15-.772.04-1.446-.573-2.35-.407-1.151-.668-.968-1.038-.608-.257 2.909-.47 6.012-.586 8.78a15.4 15.4 0 0 1-2.127 1.819c-.145-4.124-.534-8.247-.812-12.371-.055 4.496-.057 9.283-.252 13.015-2.95 1.976-6.386 3.673-13.447 5.144-.955.348-1.712.292-.473-.27.541-.316.52-.16.375-.732-.415-1.75-.638-3.579-.8-5.43-.067-.753-.08-.842-.885-.58-.5.094-.823-.038-.5-.607.336-.803.862-1.542 1.393-2.28.611-.85.455-.704-.358-.04-.893.718-1.771 1.418-2.45 1.89-.644.446-.42.033-.404-.678l-.587 1.092.906.472-.22 1.347.265.658.406 2.155.37 3.177-.692.49-.14.825 1.714.882c27.058 3.17 35.072-28.105 21.824-35.784zM55.769 88.675l-1.026 2.4c-.485 1.133-.343 1.28.593 2.204l.208 6.256c.025.772-.118 1.012.727.826l6.309-.748.91-.198-7.243-.08c.319-1.914.158-3.84.014-5.78-.041-.552-.292-.775.39-.808 3.071-.401 6.143-.599 9.214-.794.032-.402.162-.682.606-1.04-2.474-.035-7.303.307-10.344.209-.503-.018-.775.07-.6-.585z" filter="url(#g)"/>
    <path fill="currentColor" d="m82.49 103.59-.297.257c.951.38 2.326.964 2.434 1.683.154-.39.146-.826-2.137-1.94m-.752.732-.792.91.673 4.157zm.53.413c-.13.002-.141.156-.12.592l-.095 6.158c-.003.68.082.614-.51.95-.67.366-1.392.483-2.125.543-.44.036-.961.13-.255-.256l.595-.406c.778-.532.595-.41-.128-.109-1.435.597-2.911 1.1-4.501 1.348-.603.093-1.118.263-.798-.544.458-1.696 1.5-3.218 2.43-4.772l-11.028 8.033 1.875.671 14.442-4.198 3.387-1.637 1.287-1.4.112-1.091c-.385 1.14-1.719 2.039-3.108 2.754-.487.25-1.26.69-.423-.076l.92-1c.766-.831-.162-.19-.733-.041.063-1.308.335-1.642.545-2.267l.15.865c.15.567.307.467.854.127.558-.36 1.064-.859 1.571-1.356l-.098-.259-2.085 1.323-.206-3.146-1.398-.595c-.285-.122-.458-.213-.559-.211z" filter="url(#h)"/>
    <path fill="currentColor" d="M47.796 97.099c.305-.259 1.272-1.358 1.702-1.346.356.344.428.474.88.615l-.247 1.78-2.569 1.633z"/>
    <path fill="currentColor" d="M51.615 59.238c-1.687.332-2.94 1.204-4.434 1.94-1.802.043-3.48-.075-5.283-.317-1.883.434-2.914 2.34-3.623 4.295l-.553 3.879c-.643 1.304-1.262 2.512-1.535 3.98l.086.075c-.155.446-.343.879-.07 1.302.477.7 1.396 1.258 2.096 1.705.008-.028 2.905 1.716 3.5 1.903v.002c.228.793.68 1.404 1.683 1.978 2.876 1.284 8.13 1.222 9.4.178.003-.019-.002-.033-.001-.05.128-.043.274-.08.377-.128 1.526-.763 2.545-1.244 3.76-2.513l.693-1.05 1.78-2.77c.76-1.246 1.477-2.277 1.86-3.702-1.214-2.478-4.91-5.276-6.193-7.7-1.086-1.243-1.927-2.458-3.543-3.007m3.518 25.428c-.872.047-1.64.294-2.504.51-1.037.41-1.723.335-2.814.355-.346.007-.56.026-.739.069.01-.014.015-.025.026-.04-1.35.27-1.536.448-1.588 1.739.643 1.708 2.549 1.743 4.101 1.469l1.407-.358c.002-.011-.013-.018-.014-.03.484-.16.948-.366 1.412-.577.722-.42 1.065-.945 1.426-1.649.15-.809-.034-1.192-.713-1.488"/>
    <path fill="currentColor" d="M38.36 70.734c-.659.477-1.706 1.447-2.013 2.124-.152.532-.465 1.036-.145 1.534.477.7 1.399 1.258 2.098 1.706.008-.028 2.905 1.716 3.5 1.902-.24-1.339-.067-2.318.27-3.388-1.279-1.107-1.607-2.304-2.213-3.587-.132.83.786 2.919 1.157 3.473-1.743-.312-2.419-2.086-2.662-3.697-.004-.01.019-.068.008-.067"/>
    <path fill="currentColor" d="M47.701 70.887c-.054-.258-.117-1.825.312-1.872.43-.047.827 1.179.957 1.672a13 13 0 0 0-1.269.2"/>
    <path fill="currentColor" d="M52.439 74.461q-.142.005-.293.053c-.804.256-.762 1.162-.762 1.162.794-.54 1.234-.654 2.205-.69 0 0-.49-.557-1.15-.525m-6.012 1.033q-.14.007-.29.055c-.804.256-.764 1.162-.764 1.162.793-.54 1.234-.654 2.205-.69 0 0-.49-.559-1.15-.527"/>
    <path fill="currentColor" d="M41.799 78.001c-.177-.14-.215-2.156.004-2.323.779 7.124 11.324 2.553 11.08 4.48-1.272 1.044-6.526 1.106-9.402-.178-1.003-.574-1.454-1.186-1.682-1.979" filter="url(#n)"/>
    <path fill="currentColor" d="M49.102 85.561c-2.396 3.193 4.052 2.158 3.919 2.85l-1.406.356c-1.552.275-3.46.239-4.102-1.469.052-1.29.24-1.467 1.589-1.737" filter="url(#p)"/>
    <path fill="currentColor" d="M48.172 96.733c.421.405 1.122.956 2.058.742.12.73.19.936.396 1.583.073.722.278 1.216.307 2.138-1.95-.103-4.222-1.588-5.106-3.058 1.151.013 1.619-.7 2.345-1.405"/>
    <path fill="currentColor" d="M63.985 61c.463.892 4.315.748 4.75-.06.582-1.304.553-1.568.633-2.018-2.257-.652-4.455-.245-5.917 0-.163.624.18 1.35.534 2.078"/>
    <path fill="currentColor" d="M68.042 67.076c-1.66 2.87-4.704 3.807-7.593 1.135l-.096-2.243a79 79 0 0 0 7.788.376z"/>
    <path fill="currentColor" d="m68.398 69.767-2.037 2.28c2.607-.06 4.117.63 6.15 2.032zm-7.164 1.21-1.425 1.838 6.12-.738zm4.845 2.055a21 21 0 0 0-2.55.14c1.894.564 2.88 1.034 4.671-.04a26 26 0 0 0-2.121-.1m4.892 4.928c-2.641 4.583-2.46 3.706-5.858 1.86 1.456 1.797 2.948 3.118 3.469 3.547z"/>
    <path fill="currentColor" d="m54.799.762-.611.25c-8.275 4.686-16.938 8.52-19.69 25.275-4.66 2.904-8.103 6.156-11.302 9.478 1.26 1.175 4.942 1.534 9.697 2.297l.803-5.96 3.472-2.036c.485-1.488.896-2.976 1.668-4.465.424-.813.886-1.353 1.84-1.681 8.238-4.013 14.334-4.933 21.111-6.836-5.17.638-10.364 1.477-19.248 4.56-1.274.443-1.584.82-1.098-.906.8-4.135 2.654-7.943 4.858-11.184-1.27 2.516-1.896 5.105-2.285 7.72 2.658-5.356 5.475-10.61 9.937-14.806.492-.607.89-.566 1.549-.414 4.445 1.031 10.417 4.893 15.016 10.85-1.83-2.907-4.619-7.88-12.061-10.688L54.799.76zm15.717 12.143c.462.734.865 1.338 1.264 1.74a36 36 0 0 0-1.264-1.74m20.146 8.814c1.652 2.302 2.352 4.258 3.223 6.276 2.443-1.41 4.297-3.28 6.078-5.205-3.942-.723-7.075-1.094-9.301-1.07" filter="url(#y)"/>
    <path fill="currentColor" d="M51.82 61.51c-4.016.018-2.63 5.748-2.138 9.087.353-3.99.158-6.626 3.28-8.963a5.7 5.7 0 0 0-1.142-.124m-9.14 1.266c-4.097.061-2.877 7.595-.233 11.222-1.168-5.017-1.71-7.988 1.678-10.99-.542-.165-1.022-.239-1.446-.232z" filter="url(#z)"/>
    <path fill="currentColor" d="M88.971 97.781c-.559.014-1.104.05-1.658.096l-.28.412-1.925 2.299c1.069.186 2.227.581 2.877 1.144.108.37.196.766.275 1.168.047.326.102.67.168 1.069l.012.01c.085.624.142 1.236.168 1.763-.688.558-1.471 1.141-2.094 1.623.084.435.21.627.576.62 1.117-.076 2.23-.035 3.346.019 2.347.323 4.148 1.787 5.373 3.246l.008-.025c.061.083.131.161.191.246-1.893 4.965-7.43 4.485-11.678 2.968-4.82-1.746-9.176-1.05-12.814 1.534-.912 1.06-1.47 1.804-1.977 2.964-.02.02-.11.102-.11.102l-.136.488c-.021.057-.043.098-.064.157l.023-.004c-.512 1.93-1.208 5.615 2.22 6.552-3.64-4.876.702-6.844 5.3-6.666a55 55 0 0 1 2.727.41c4.23 1.425 9.95 3.801 14.516 2.948l.033.006.062-.024c.844-.166 1.65-.433 2.393-.853-.093.005-.195-.006-.29-.004 3.853-1.722 7.173-4.316 8.483-8.975-.003-3.882-.12-6.045-4.773-11.004l-2.317-1.896c-.918-.099-1.687-.819-2.162-1.301.295.561.54 1.271.51 1.965-.242.17-.44.077-.719-.047-.892-.614-1.655-1.468-2.367-2.158-.848-.688-1.368-.718-2.162-.819a20 20 0 0 0-1.734-.033z"/>
    <path fill="currentColor" d="M88.971 97.781c-.559.014-1.104.05-1.658.096l-.28.412-1.925 2.299c1.069.186 2.227.581 2.877 1.144.108.37.196.766.275 1.168.047.326.102.67.168 1.069l.012.01c.085.624.142 1.236.168 1.763-.688.558-1.471 1.141-2.094 1.623.084.435.21.627.576.62 1.117-.076 2.23-.035 3.346.019 2.347.323 4.148 1.787 5.373 3.246l.008-.025c.061.083.131.161.191.246-1.893 4.965-7.43 4.485-11.678 2.968-4.82-1.746-9.176-1.05-12.814 1.534-.912 1.06-1.47 1.804-1.977 2.964-.02.02-.11.102-.11.102l-.136.488c-.021.057-.043.098-.064.157l.023-.004c-.512 1.93-1.208 5.615 2.22 6.552-3.64-4.876.702-6.844 5.3-6.666a55 55 0 0 1 2.727.41c4.23 1.425 9.95 3.801 14.516 2.948l.033.006.062-.024c.844-.166 1.65-.433 2.393-.853-.093.005-.195-.006-.29-.004 3.853-1.722 7.173-4.316 8.483-8.975-.003-3.882-.12-6.045-4.773-11.004l-2.317-1.896c-.918-.099-1.687-.819-2.162-1.301.295.561.49 1.15.46 1.843-.242.17-.534.083-.669.075-.892-.614-1.655-1.468-2.367-2.158-.848-.688-1.368-.718-2.162-.819a20 20 0 0 0-1.734-.033z"/>
    <path fill="currentColor" d="M95.443 98.873c.295.561.49 1.15.46 1.844-1.657.943-2.56-.354-3.929-1.44-.598-.431-1.025-.101-1.025-.101-1.494 1.122-2.598 2.658-2.451 3.886.078.628.178.462.797.604 1.618.346 5.678 1.333 6.613 2.715 1.16 1.714-.062 4.77-.092 4.844.062.083.131.161.191.246-1.893 4.965-7.43 4.485-11.678 2.968-4.82-1.746-9.175-1.05-12.814 1.534-.912 1.06-1.468 1.804-1.976 2.964.283-.281 2.413-2.305 5.709-2.584 3.486-.294 14.198 5.843 20.967 5.696 3.852-1.722 7.17-4.316 8.48-8.975-.003-3.882-.119-6.045-4.773-11.004l-2.316-1.896c-.918-.099-1.687-.819-2.163-1.301m-7.184 4.027c.047.326.102.67.168 1.069l.012.01a19 19 0 0 0-.18-1.078zm-18.967 16.627c-.02.057-.043.098-.064.157l.023-.004zm24.816 3.38q-.047.007-.095.017l.033.006z" filter="url(#C)"/>
    <path fill="currentColor" d="M80.696 21.103c-17.484-.039-33.147 5.325-47.001 10.999a364 364 0 0 0-.752 6.666q.94-.62 1.876-1.25c-1.092 7.17-2.401 13.69-3.787 19.979l-.118-3.669-1.465 7.191 1.267-1.78-.574 3.443 4.63-.08 1.09-2.968.415 2.573.119.594.772-.871.277 1.069 1.484.475c1.209-2.243 2.259-2.85 4.75-2.554.844.011 3.832.813 4.271-.113-2.615-6.94-3.05-15.167-3.489-23.269-.845 6.543-1.466 13.22-1.567 20.208-1.15-4.797-1.91-9.926-2.016-15.618-.452 2.868-.912 5.651-1.511 7.054-.254-4.161-.636-9.09-1.024-14.053C50.814 26.675 64 18.457 90.218 24.408c.719.161 1.469.342 2.083.495.271-.405-1.122-2.262-1.705-3.19a83 83 0 0 0-9.9-.61m4.91 4.289c1.244 2.98 2.726 6.039 3.286 9.494.017-.221.03-.44.05-.664q.132.304.272.654c1.061 2.82 1.05 5.88.995 8.846.64.208.957-1.017 1.004-1.443 1.049-6.933-.9-12.527-5.607-16.888zM56.72 26.86c-1.54 1.902-3.032 3.828-4.156 5.937.033-.497.195-.544.04-1.702a20 20 0 0 0-4.354 3.563c.59-1.39.731-2.782.8-4.172-.955 3.075-2.067 5.707-2.425 8.293a42.6 42.6 0 0 1 4.497-5.55c-.095.563-.46 1.042-.7 1.511-1.114 2.974-1.931 5.534-2.31 8.223q-.064.452-.118.942c.468-.625.74-1.373 1.028-2.028.106 1.911-.069 2.88.756 3.863.067-.313.138-.58.216-.856.177-6.593 4.217-12.54 6.727-18.024zm34.146.659c.93 2.264 1.416 3.856 1.681 5.113l-.001-.02c.864 2.172.964 4.039 1.343 6.107.318-1.741.452-3.876.088-4.971-.688-2.038-1.425-4.08-3.11-6.23m-23.679.392c-2.779 4.28-5.392 7.361-6.516 11.897 1.621-3.658 3.293-6.774 5.257-9.742-1.441 4.28-3.322 7.72-3.508 11.717.326-.504.44-1.234.784-1.69.633-3.752 2.474-8.04 3.984-12.182zm-6.558.704c-.784.722-1.516 1.619-2.194 2.6-.058.085-.119.165-.176.25l-.112.49-.799 1.929c-1.22 2.983-2.835 6.289-2.583 9.42.464-.703.894-1.626 1.143-2.269.726-4.569 2.457-8.34 4.721-12.42M71.5 29.87c-5.626 7.786-5.992 10.569-6.58 13.564-.072.368-.147.738-.236 1.122.923-2.27 1.776-4.32 2.824-6.185.107-.189.224-.369.353-.524-.252 1.475-.366 2.876-.252 4.226.194-.328 1.293-4.663 2.178-6.381q-.152.954-.275 1.814c-.95 5.317-.43 9.018 1.316 11.789 1.145-.038 3.55-5.434 3.217-5.864-.753 1.42-2 3.49-2.822 3.835-1.166-5.778-.585-11.472.276-17.396zm10.971.224.31 3.347c0-.425-.005-.951-.013-1.356.25 2.037.864 4.088 1.08 5.956l.133.42-.089-.008c.034 1.29.206 2.559.237 3.796.053 2.08-.228 4.208-.118 6.024.887-.497 1.514-2.208 1.693-3.233.015.395.019.78.07 1.148.11.649.212 1.38.437 1.611.78-1.613 1.452-3.275 1.637-4.713-.465 1.42-.933 2.814-1.458 3.69.361-1.815.72-3.632.644-5.738-.539.802-.795 1.033-1.008 1.763-.035-.53-.032-.986-.156-1.695q-.03-.096-.063-.19l.02-.06c-.59-3.94-1.798-7.467-3.356-10.762m-6.101.448c.444.948.487 3.065.62 5.308.309-1.254.185-2.859-.12-4.24 1.103 4.149 2.267 8.827 2.703 13.146.643.135 1.114.57 1.657.916.99-2.396 1.093-4.394 1.292-6.496-.425 2.4-.89 4.517-1.506 5.584-.406-4.815-1.069-10.923-4.646-14.218M37.637 35.61c-.724 7.911-2.234 14.25-3.699 20.682.593-5.773 1.172-11.57.899-18.785q1.4-.944 2.8-1.897m50.514 6.632c-.314 1.41-.765 2.785-1.173 4.17l-2.687 6.577c-.939 2.323-1.934 4.622-2.928 6.922-1.91 2.045-4.895 3.32-7.006 4.404l.88.317.763.089c2.582-1.373 5.395-1.569 8.114-.89 1.43-1.46 2.521-3.362 3.368-4.866.098 1.984-.232 3.734-.63 5.653.67-.457 1.17-1.082 1.708-1.679a7.2 7.2 0 0 0 .14 1.568c1.573-1.961 2.381-3.663 2.77-5.836.268 1.529.29 2.717.265 4.223 3.003-7.273-.069-12.396-1.09-16.639.53 3.347 1.047 8.272.475 9.975-.469-4.68-1.924-9.756-2.97-13.988z"/>
    <path fill="currentColor" d="m49.191 95.924-.386.205-2.021 1.964-3.373.028-6.465 3.779c-3.597-.41-6.95-3.113-8.915-4.493-.155-2.569-.389-5.05.168-7.557a188 188 0 0 1 2.967-3.946l2.071-9.46c-2.358-2.824-.077-4.936 2.1-5.094l2.113-2.59.294.49-1.176 2.463s-2.35.616-2.351 1.456c-.002.84 1.931 1.203 1.931 1.203.532.935 1.543 1.35 2.435 1.931l-2.716.835c-1.095.196-.783.568-.61 1.544l1.14 6.41c.48 1.808.372 1.886-1.172 2.716l-4.06 2.181c-1.235.635-1.298.575.04.944l1.812.499c2.177.26 2.034 1.67 2.601 3.587l1.38 4.66c.169.622.444.624.928.28l4.436-2.748 2.211-3.33.532-1.372.252-3.135-.139-1.59c.896 2.162 2.135 4.468 2.182 6.74 1.481-.409 3.003-1.465 4.52-2.449l-2.423 3.678z" filter="url(#E)"/>
    <path fill="currentColor" d="M78.336 44.928c-3.507.148-4.206 2.7-4.54 4.565-.365 3.316.762 4.365 2.849 4.372 2.79-.042 4.142-3.13 4.47-5.019.251-2.442.437-2.92-1.097-3.826a9.4 9.4 0 0 0-1.682-.092"/>
    <path fill="currentColor" d="M56.205 44.242c-1.34-.014-2.477.36-3.223.639-1.204.705-3.602 2.547-1.795 6.28 1.16 2.566 4.126 3.518 6.541 2.331 3.445-1.809 2.742-5.47 2.92-7.565-1.559-1.27-3.103-1.671-4.443-1.685"/>
    <path fill="currentColor" d="M59.625 49.496c-.076.04-.213.211-.44.545-2.517 3.176-4.498 2.861-6.61 1.412-.552-.403-.975-.803-.64.166.524 1.373 2.297 2.153 4.24 1.947 1.845-.194 3.1-1.86 3.468-3.316.069-.518.11-.82-.018-.754m20.725.416c-.032-.004-.132.147-.3.393-2.58 3.586-4.705 2.541-5.51.78-.199-.581-.33-1.075-.471-.12-.074.896.344 2.231 2.203 2.426 2.08.217 3.467-1.584 3.974-2.942.101-.374.136-.533.104-.537" filter="url(#I)"/>
    <path fill="currentColor" d="M55.424 44.055c-3.182.069-6.37 2.651-4.236 7.107-.212-3.289.414-6.44 7.218-6.314-.862-.56-1.921-.816-2.982-.793m23.01.729c-4.099-.11-5.345 4.713-4.39 7.736.208-4.763 1.614-5.98 4.786-6.742.807-.055.889.277 1.247.6.528.642.834 1.543 1.039 2.468.139-.956.175-1.985.19-2.727-.45-.771-1.26-.963-2.015-1.246a6 6 0 0 0-.857-.09" filter="url(#J)"/>
  </g>
  <path fill="currentColor" d="M58.232 76.947q-.394.001-.766.074c-.124.219-.569.687-.906 1.055.061.504.137 1.108.096 1.644l1.619-1.445a.873.873 0 0 1 1.234.068.874.874 0 0 1-.07 1.237l-2.43 2.17a.87.87 0 0 1-1.234-.07.87.87 0 0 1 .068-1.235l.483-.432c-.086-.476-.306-.858-.82-1.107-.216.162-.814.522-1.055.674a4.032 4.032 0 0 0 3.781 5.43 4.03 4.03 0 0 0 4.03-4.032 4.03 4.03 0 0 0-4.03-4.031m1.92 1.184h.135l.109.162.11-.162h.134l-.166.246.172.256h-.133l-.117-.172-.117.172h-.135l.174-.256zm1.23 1.814h.155l.185.5h-.13l-.032-.09h-.201l-.031.09h-.131zm.079.117-.07.2h.138zm-1.303.242a.875.875 0 0 1 .576 1.53l-2.43 2.17a.874.874 0 0 1-1.236-.07.874.874 0 0 1 .07-1.237l2.43-2.17a.87.87 0 0 1 .59-.223m-5.276 1.35h.141l.113.178.114-.178h.142l-.191.29v.21h-.13v-.21zm1.448 1.973h.193q.105 0 .152.031.047.032.047.102a.1.1 0 0 1-.066.1.1.1 0 0 1 .062.044.13.13 0 0 1 .024.078q0 .074-.049.11-.05.035-.148.035h-.215zm.129.088v.105h.072q.03 0 .047-.014.015-.012.015-.039 0-.026-.015-.039-.016-.013-.047-.013zm0 .193v.13h.076q.039 0 .058-.015.02-.016.02-.05 0-.033-.02-.05-.018-.015-.058-.015z"/>
  <path fill="currentColor" d="M58.874 78.146a.76.76 0 0 0-.54.226.75.75 0 0 0-.22.648c.051.348.33.617.678.656a.78.78 0 0 0 .56-.164.77.77 0 0 0 .265-.794.77.77 0 0 0-.743-.572m-2.482 2.2-.042.002a.77.77 0 0 0-.664.516.6.6 0 0 0-.037.247c0 .113.004.144.033.235.09.286.343.492.647.53a.767.767 0 0 0 .208-1.519c-.003 0-.036.066-.074.148q-.015.031-.017.024l-.018-.068-.025-.088zm3.775.053a.765.765 0 0 0-.09 1.528.76.76 0 0 0 .634-.22.76.76 0 0 0 .098-.963.75.75 0 0 0-.303-.266.7.7 0 0 0-.339-.078zm-2.438 2.2a.768.768 0 0 0-.636 1.228.8.8 0 0 0 .552.305.77.77 0 0 0 .699-1.192.77.77 0 0 0-.615-.341"/>
  <path fill="currentColor" d="M44.232 80.676c-.03-.015-.082-.009-.596.064-.366.053-.572.085-.592.096-.035.021-.066.07-.066.106 0 .014.042.326.094.693s.094.668.092.67-.305.047-.672.1a12 12 0 0 0-.705.113c-.044.02-.069.063-.069.12 0 .024.035.282.076.575.054.37.084.541.096.56.01.016.035.037.057.048.038.018.054.016.719-.079.374-.053.685-.092.689-.087s.048.295.098.644.095.658.101.688c.016.069.064.107.133.107.027 0 .285-.034.576-.076.573-.083.57-.082.608-.156.018-.038.017-.052-.078-.721-.064-.45-.094-.685-.086-.688.006-.002.297-.044.646-.093s.654-.095.678-.1c.05-.01.104-.057.113-.1a18 18 0 0 0-.164-1.158.14.14 0 0 0-.11-.072c-.07.004-.127.01-.199.016a8 8 0 0 0 .178.773c-.22-.123-.478-.481-.613-.711l-.727.102c-.003-.004-.05-.312-.103-.684-.106-.727-.103-.715-.174-.75m8.336 1.492a.3.3 0 0 0-.133.03.3.3 0 0 0-.137.136c-.025.052-.368.988-.375 1.024a.307.307 0 0 0 .244.348.3.3 0 0 0 .313-.143 1 1 0 0 0 .047-.11c.252-.683.327-.889.334-.912a.34.34 0 0 0 0-.148.305.305 0 0 0-.293-.225m-2.52.625a.3.3 0 0 0-.261.153c-.014.024-.354.943-.371 1.003a.3.3 0 0 0 .08.3c.05.048.107.073.185.083a.33.33 0 0 0 .184-.045.34.34 0 0 0 .113-.129c.017-.037.358-.968.365-.998a.31.31 0 0 0-.084-.287.3.3 0 0 0-.21-.08"/>
  <path fill="currentColor" d="m72.297 70.287 1.022.74c1.296.256 1.871.338 2.898 1.274 2.04 2.48 3.166 4.715 3.463 8.213-.403 3.103-1.486 5.526-3.147 8.53-2.829 4.415-5.189 7.43-9.322 11.302-2.373 2.268-5.534 3.948-9.162 4.75-2.117.333-5.589.553-6.393.83-3.544 1.652-6.39 4.013-5.74 8.332 2.377 6.712 12.698 5.749 20.266 2.178 3.517-2.06 6.322-3.636 9.461-6.215 4.413-3.932 7.601-7.358 10.914-11.297 4.222-5.047 6.8-11.525 6.83-17.326-1.187-6.81-3.432-15.311-9.937-17.885-4.817-.975-10.84 1.485-11.152 6.574z"/>
  <path fill="currentColor" d="M80.625 69.875c1.502 3.388 2.638 13.047-.625 18.25s-9.955 15.274-15.985 17.539c-5.037 1.892-11.582 1.317-13.515 3.336s-.872 5.485 4.75 6.75 13.422-1.819 25.696-10.517C91.654 93.48 101.25 81.037 84.273 63.77c-2.469-.33-4.862-.33-7.123.238 0 0 1.972 2.48 3.475 5.867" filter="url(#N)"/>
  <path fill="currentColor" d="M59.003 111.46c5.162.084 12.811-1.57 23.19-7.613 10.416-10.411 14.631-29.585 3.884-36.96-5.347-3.34-3.239-.858-2.115 2.624 2.463 7.714 3.425 20.516-8.462 30.613-7.182 6.1-15.374 8.013-17.464 8.538-8.319 1.987-3.057 2.706.967 2.798" filter="url(#O)"/>
</svg>