<svg viewBox="0 0 128 128" xmlns="http://www.w3.org/2000/svg"><path d="m54.797.76172c-.50513-.0016845-.95922.11551-1.457.36328-13.129 6.5408-18.129 16.323-19.514 24.771-3.9491 2.7998-7.1857 5.6856-10.395 9.0879-.55729.64304-.60631 1.1148-.19727 1.4141 1.0373.75056 6.1118 1.5512 9.4199 1.8223-.64551 8.3674-2.1173 16.459-3.7988 24.383l1.4648-1.8613-.47461 2.2168 4.9863-.07813c.45382-.86908.81198-1.7188.94922-2.6934.27409 1.0013.43824 1.9487.51562 2.8516l.75195-.55469.35547.71289 1.1719.46094c-.49766 1.1125-.91501 2.659-1.0938 4.8125l-2.3027 2.7559c-1.0843.05237-2.1871.48507-3.375 2.6094-.11002.22096.07392.86628.17969 1.0371.39747.48249.78871.95705.75 1.3066-.30448 3.0849-1.2994 6.6885-1.9785 10.055-1.3234 1.4017-2.6669 2.787-3.168 4.9082v5.4258c-.12229.80494.23496 1.0548.80078 1.4648 2.624 1.8996 6.0877 3.884 8.0664 4.2715.87098.0415 3.8812-1.939 6.9277-3.8398l2.375.03906c1.3905 1.6736 3.104 2.7602 4.9922 2.8457.11638 1.1479.18716 2.2252.29102 2.3984l.0059.004c-.3753.16747-.74775.45269-.83789.88867-.0996.48172.42393.85886.84766 1.0898-1.1567.4572-2.3237 1.233-3.3047 2.2207-1.2397 1.2482-2.1852 2.8409-2.3711 4.5723-.00016.00096 0 .003 0 .004-.12776 1.3552.46336 2.8859 1.252 3.9219l.002.002c1.9105 2.4696 5.3466 3.3216 9.0586 3.1602 3.4811-.1514 7.2313-1.1934 10.312-2.709.80431.42034 2.4408.16234 4.6602-.47461-.82728 1.0492-1.811 2.6145-2.0312 5.5488-.21625 2.561 1.4984 4.4432 2.8906 5.1856.88211.30591.78744-.36212.04492-1.2324-.89345-1.0306-1.3587-1.945-1.3691-2.8281-.0213-1.7997 2.0382-3.2105 5.6641-3.3867 4.4495-.25653 11.154 4.2209 16.863 3.7617.75015-.0618 1.4589-.26106 2.207-.57812 5.5536-2.1055 9.7163-5.302 10.094-11.188.15788-4.8818-3.5278-8.5303-7.2129-12.18-.00003-.0691-.0074-.14676-.02148-.23438-.50069-1.5674-1.5041-2.3824-2.6328-3.0078-.69522-.2108-1.0471-.24542-1.584-.17969-1.2832.16622-3.0083.6248-3.75.7207-.29777-.28156-.58977-.53919-.90039-.69531 2.5967-3.889 4.3951-8.0187 4.6641-12.369.28494-3.015-.66129-8.3487-2.8457-12.867-1.0927-2.2603-2.4975-4.3141-4.2383-5.748-.75591-.56875-1.479-1.0516-2.2344-1.3809 1.089-.98052 1.8797-2.13 3.1797-4.4258-.13901 2.0161-.3746 3.855-.80664 5.5781.58878-.4168 1.2598-.83434 1.7031-1.5195-.0271.64565.08266 1.1076.2793 1.4551 2-2.3226 2.7372-4.2585 2.8555-5.7285.17034 2.4729.16101 4.6933-.16797 6.2051 2.0653-2.0228 2.5421-3.8686 3.918-9.8555l.27734 6.9668c.36956-1.3396.49618-2.0815.73242-3.6426 1.0339-14.777-.23447-24.338-2.2168-30.379 2.2143-1.6252 3.7323-2.8278 6.0742-5.3027.21745-.21395.26136-.45891.10742-.6582-2.4246-2.0312-7.3547-4.4958-14.633-6.0312-7.1237-6.9658-13.178-13.428-29.791-15.541-.36064-.083049-.68332-.12752-.98633-.12891zm.26758.75586c.24468.002.49232.019545.74609.046875 8.785.94964 18.602 3.665 29.225 15.295 5.1384 1.4864 10.682 2.1929 14.576 5.8906-17.272-3.8129-37.86-2.7926-65.863 9.0254.006-.04166.01013-.08335.01563-.125l-.01758.125c-2.7911 1.1779-5.6552 2.461-8.5977 3.8594 2.8478-1.1507 5.6862-2.3135 8.543-3.4531l-.79883 5.8809c-3.2611-.58168-9.0897-1.617-8.9453-2.4551-.01288-.91285 4.0121-4.7222 10.549-9.3203 1.7704-12.787 11.071-21.398 19.33-24.609.42797-.12234.83044-.16379 1.2383-.16016zm2.0215.8125c6.8435 2.0531 11.739 8.911 15.152 12.854-3.669-5.142-6.6175-10.472-15.152-12.854zm-3.6895.3457c-8.3883 6.2647-8.9819 12.522-10.529 18.129 2.1859-7.0723 4.8453-13.438 10.529-18.129zm19.365 13.436c-11.754.02024-23.81 2.7728-36.305 9.4492 11.68-5.6842 24.734-10.416 47.021-8.7344-3.5448-.4714-7.1169-.72086-10.715-.71484zm8.9199 5.2402h.002c2.1378-.0013 4.3292.06219 6.5781.19727 5.2293 7.1948 6.3733 11.438 5.6289 17.17-.15892-1.862-.32007-4.4358-1.3438-6.1055.18363 1.67-.03142 3.1204-.12305 4.6562.12191-.92359.30179-2.6389.35742-3.5625.89966 2.1032.84491 5.3429.4375 9.877 1.5872-7.5776 2.5614-12.761-4.9473-22.035.76774.04623 1.5427.10091 2.3242.16406 6.3232 9.9476 5.9828 26.831 5.2598 36.674-.14239-2.5018-.42659-4.5431-.18555-8.291-.83124 5.2645-1.4887 10.996-3.8398 14.406.17541-2.2811-.05014-5.5237-.47461-6.9648.0452 2.8773-1.5273 5.7868-2.5039 6.5645-.15771-.7557.04499-1.5119.25195-2.2676-.75994 1.2281-1.3608 1.7297-2.0488 2.3828.62445-2.3326.77367-3.9732.80859-6.4531-1.051 2.4459-2.3229 4.3812-3.832 5.9023 0 .000652-.0029.0014-.0039.002-1.2428-.21874-2.5549-.39671-3.7207-.27344-1.234.10588-2.2754.31937-3.1562.61328l-.02344-1.002c1.2967-.70783 2.6027-1.5224 3.9609-2.4746.15828-.12246.47121-.53719.56641-.75195l4.1992-10.596-4.5078 10.436c-.13017.29002-.42362.77649-.70703.95508-3.561 2.5284-7.1395 4.3204-12.029 5.6309-2.6866.34448-9.16-.3966-10.998-.875-.68478-.65594-1.1456-1.6075-1.6191-2.3496-1.5627-2.1443-2.3004-3.137-3.7285-3.6445-.34815-.10229-.64574-.23708-.96289-.22656-1.2573.14902-2.2359.94685-3.1855 1.4863-2.2814-11.11-2.4226-16.645-1.5352-21.387 1.3186-2.2529 2.72-3.9726 4.1797-5.3086-.14417.40867-.22511.56452-.33594.83984.26701-.52491.70063-1.1546.69922-1.5117-1.5173 1.5827-3.0615 3.0741-4.3984 5.2578.43171-2.0385 1.0485-3.9746 1.7578-6.2012-1.8392 5.3586-4.4645 10.369-.61133 28.443-.37136.19167-.7406.33166-1.125.36523-1.8495.09741-3.5519-.72475-5.6152-.26758-.41367.18653-1.4244.68256-2.291 2.2969l-1.2363-.2832c-.1708-.58054-.20437-1.1597-.27734-1.7402-.23681.70205-.52874 1.183-.87109 1.4629-.11748-1.6574-.20253-2.623-.59375-3.7207-.39583 1.2336-.79168 2.7992-1.1875 3.5625l-4.2344-.03906c.60151-1.3807.4737-3.1995.59375-4.8691-.38236 1.1364-.77904 2.22-1.291 2.8379 2.2884-9.1686 2.7453-18.744 3.9531-28.152 14.295-5.7023 29.07-10.815 47.986-10.83zm10.742 15.918c-.4493 2.8214-.68676 4.8494-2.2148 6.4531.44913-5.3964-.57391-7.8727-1.2676-9.5-.34821 4.0656-.17731 7.7067-2.7305 13.576-.0697-.02171-.11439-.33986-.1582-.67188-.0465.4905-.10658.9844 0 1.4238 1.7941-3.0243 2.5156-7.2158 3.127-13.457 1.2089 3.3369 1.0563 6.946.59375 10.172 1.5392-1.9564 2.4204-4.5288 2.6504-7.9961zm-1.7617-15.551c2.8825.23459 5.8601.58476 8.9434 1.0664-1.5845 2.2094-3.9582 3.8907-5.7207 5.209-.97578-2.8427-2.1095-4.8705-3.2227-6.2754zm-24.734 8.3477c-1.7614 4.8291-4.4962 9.6575-3.7051 14.486.20871-1.2465.0384-2.2713 1.0703-3.998-.17795 4.1993.14761 5.1035.51367 7.0078.69529-3.0154 1.888-5.8375 3.4043-8.6289-1.233 2.253-2.5051 4.5361-3.4434 7.5996-.596-2.3324-.26732-4.7384-.27734-6.8086-.44811.53299-.84269 1.1548-1.0684 2.0586.16765-3.9056 2.301-7.811 3.5059-11.717zm0 0c-1.8796 2.8408-2.9313 4.4179-4.248 7.3516-.20146-.20942-.40457-.40765-.61133-.59375.72215-2.0433 1.6013-3.6462 2.4258-5.4746-1.067 1.7865-1.9393 3.5663-2.5801 5.3398-.42511-.36774-.8621-.68279-1.3145-.9375 1.1884-1.5004 2.4775-2.9234 3.8945-4.4023-1.4491 1.4923-2.7623 2.8707-3.9805 4.3535-.82036-.44585-1.6898-.69168-2.627-.68164.15114-.37584.30501-.75324.46289-1.1367-.16282.35971-.338.74008-.51562 1.1387-.44906.0092-.91283.07708-1.3945.20898.10995-.15207.21938-.3055.33008-.45703-.11376.15279-.22641.30609-.33984.45898-1.9516.53778-4.1862 2.1316-6.8301 5.168.49092-2.0158 1.1407-3.5967 1.8223-5.6621-.95976 2.2736-1.5275 4.1159-1.9141 5.7676-.2535.29329-.51038.5979-.77148.91797.25387-.28418.50292-.55471.74805-.81641-.33463 1.4509-.5311 2.7572-.73047 4.082.42933-.77389.88904-1.5073 1.2129-2.4219-.0338 1.533.13918 2.9622.70117 4.1973 1.0452-4.1371 3.129-7.5381 5.4414-10.777.5387-.16971 1.0567-.26189 1.5566-.2832-.95284 2.1803-1.9675 4.934-2.1367 8.4121-2.3092.3127-4.5326 1.9936-5.3477 6.582l1.5762 1.4512c-.02991-.10521-.04267-.20336-.06836-.30664-.0706-.68719-.0698-1.3053-.0293-1.8809.10179.46288.2662.95842.52734 1.498.69827 1.7744 2.5882 3.049 4.5527 2.8906 1.9724-.15913 5.0871-.89673 4.9258-7.082l-.01758-1.043.33398.15625c-.6388-.94675-3.5113-2.5823-6.3008-2.2773 1.4158-3.0835 2.9562-5.5407 4.7188-7.8008.4869.23409.96632.53106 1.4453.88086-.77957 2.2165-1.1972 4.4208-1.1855 6.6133.45886-2.0239 1.2016-4.0132 2.0742-5.9062.17545.15024.35261.30646.5293.46875-.1623-.18962-.32682-.37349-.49219-.54883 1.2788-2.7592 2.8258-5.3078 4.1562-7.4473zm-8.5781 3.8184c.323-.71365.60704-1.3574.79883-1.9297-.26966.651-.53753 1.295-.79883 1.9297zm.79883-1.9297.29297-.75586-.54492.6582.36328-.39258zm9.0625 6.9785c.13887-.16985.27168-.37121.43555-.41602-.20962 1.9402-.34451 4.2767-.17773 6.3555.36398-1.8833.48666-4.9067 2.0703-8.1172-.45021 3.1312-.96319 6.1862-.20312 9.2383.28436 1.1418.74845 2.5992 1.459 3.7441 1.9618-1.7664 2.969-4.2251 3.3711-6.123.29948.55097.23957 1.6118.35547 2.377 1.6565-2.6668 2.6522-6.7354 2.7422-12.162.48487 1.4546.90442 3.0948 1.2461 4.7285-.34917.2334-.69698.47212-1.0469.69141.35181-.21552.70301-.44285 1.0547-.66016.44399 2.129.74408 4.2211.89062 5.8984-2.412-.5545-4.2231.85085-6.0859 3.5449.38772-.31764.7072-.56634 1.0762-.86523-.74069 1.5684-.97345 3.9272-.58008 5.0469.20046.43613.49092.78548.83203 1.0566.0732.061.15309.1135.23438.16406.12312.07945.25034.14881.38281.20898.5007.22745 1.0559.32549 1.6016.27344 2.2003-.19739 3.8661-2.2189 4.2461-5.0723.03767-.36641.06069-.61436.08984-.90039-.4164.20826-1.0105.01629-1.3398-.33594-.38204-.40862-.51235-1.4397-.11914-1.8125.14948-.14174.33766-.1877.53125-.19336 1.4241.82709 2.2793 2.6496 1.9707 4.9512-.09038.67413-.494.99307-.78516 1.7617l1.584-1.3809c.15864-2.7957-.61119-4.531-1.5703-5.4824.66396-2.2469 1.038-4.9298 1.3262-7.7402.29084.13293.58501.31815.88477.56445.39409 3.2261.52611 7.713-.04102 11.018.86012-.8694 1.5094-2.0839 1.959-3.625.056.26316.11199.34853.16797.51758-.0507-.35512-.05751-.75344-.07031-1.1465-.32518 1.3773-1.0184 2.7283-1.6934 3.2324.16354-3.1625.23717-6.3544-.11914-9.8203.84737.76978 1.7344 2.0367 2.6758 4.002-.94616-2.244-1.8476-3.6261-2.7188-4.4141-.2117-1.8889-.55497-3.862-1.082-5.957.0349 1.6198.0097 3.4272-.09766 5.2246-1.3925-.49175-2.7192.29666-4.041 1.1758-.45012-2.2538-1.0419-4.6786-1.7578-6.873.55654 5.1916-.48528 11.569-2.2969 13.875.0742-1.4381-.09363-1.8679-.47461-2.4551-.23836 2.5509-2.3067 5.8359-3.2715 6.2656-.518-.77819-.95265-2.1972-1.2363-3.0508-.81335-2.4472-.6159-5.4666.19726-10.555-.9506 1.8763-1.5853 4.1503-2.1797 6.3828-.0935-1.093.13052-2.771.25195-4.2266-.27184.32498-.45211.71067-.64844 1.0859zm15.854-3.9395c.21055.65167.40832 1.6555.57031 2.8652-.2685-.21471-.53364-.37376-.79688-.48633.0789-.78768.15325-1.5829.22656-2.3789zm-26.137.4082c.82794.0052 1.612.20257 2.377.55664-1.6524 2.0467-3.1316 4.3111-4.5391 7.3457-.15202-2.1022.75665-4.8558 1.9668-7.9004.065-.002.13084-.002.19531-.002zm-1.8398.29492c-2.334 3.1661-4.514 6.382-5.3086 10.043-.64075-.75976-.59894-2.4469-.75586-3.8633-.31289.70568-.5819 1.4562-1.0293 2.0273.14359-1.3072.34244-2.4008.57812-3.3887 2.5734-2.7309 4.6734-4.2314 6.5156-4.8184zm5.918 1.3066c.21067.159.42153.32954.63281.50781-.52138 1.1681-1.0858 2.5513-1.7598 4.3105.26656-1.9239.66211-3.469 1.127-4.8184zm20.506.42969v.002c.0318-.000359.0637-.000359.0957 0 .34101.0059.68752.07001 1.0391.20898-.18941 2.8756-.5965 5.693-1.2988 7.6855-.52847-.4728-1.1535-.71941-1.8047-.81836-.13804-1.5172-.43967-3.642-.9082-5.9941.9425-.57585 1.8903-1.0702 2.877-1.084zm-22.855 7.7441c.13966-.02468.29084.006.43555.06055.06591.03577.13036.07264.19531.10938.09602.05652.19768.10884.27148.17774.30384.2837.55728.90737.30664 1.2539s-.90073.3985-1.2715.10156-.55294-1.236-.2207-1.5586c.08306-.08065.18014-.12631.2832-.14453zm.96875 4.3184c.12715-.06514.0866.23588.01758.75391-.36688 1.457-1.6223 3.1216-3.4668 3.3164-1.5058.15903-2.9018-.27822-3.7012-1.1191-.10701-.04028-.20574-.09196-.27148-.1582-.12113-.12205-.17318-.30531-.16992-.48242-.03096-.06343-.07239-.12127-.09766-.1875-.28828-.83146-.007-.64778.42383-.32617.1164-.05607.24564-.08971.375-.07031.07551.01132.14893.03707.21484.08203.14253.09722.25002.32732.28906.55859 1.8714 1.0589 3.6948 1.0189 5.9473-1.8223.22626-.33396.36316-.50584.43945-.54492zm20.725.41602c.03248.004-.0026.16248-.10352.53711-.50716 1.3583-1.8943 3.1588-3.9746 2.9414-.75891-.0793-1.2682-.35298-1.6113-.70508-.07524-.03632-.14465-.0838-.20312-.14258-.09364-.09413-.15762-.25914-.19336-.43164-.17458-.38745-.22378-.79904-.19531-1.1465.14122-.95433.27267-.46111.4707.12109.04645.10144.11293.18921.16797.28516.02188.000639.04246-.007.06445-.0039.15193.02104.30295.09729.41406.20898.13471.13542.21537.40669.2168.65234 1.0599.84739 2.7272.74573 4.6465-1.9238.16832-.24565.2683-.39658.30078-.39258zm-13.924 8.4844c-.92542.0052-1.8518.10434-2.8066.27148-.23988.05524-.3323.078-.35547.32422-.0504.69434.45429 1.4594.72266 2.0078l-.05859-.13867c-.25388-.65821-.46295-1.1726-.45703-1.5605.0125-.31238.13172-.30591.32227-.33789 1.4453-.2164 2.8844-.50919 5.1973-.03516.10403.03197.17235.09394.17969.24024.0318.6526-.19662 1.1898-.43359 1.7734.28725-.56884.61902-1.2064.71875-1.8535h.002c.02231-.07755.17356-.26988.27148-.3418-1.2079-.27252-2.1916-.31039-3.3027-.34961zm-15.076 1.0156c.51178-.0066 1.0095.24287 1.3965.51758 1.1828.85869 2.574 2.6168 3.9707 4.793.35621.63587.77762 1.2937 1.2285 1.7363 1.0703 1.044 2.5947 2.0552 3.0273 3.1699.36056.94288-1.6683 4.395-2.959 6.3203.32373-.99227.16711-2.0572-.75391-3.127-.53501-.69172-1.3222-1.2187-2.2656-1.5898-1.1686-.44036-2.5965-.64517-3.6836-.67969-.53526-.01464-1.0803.0013-1.627.04492-1.4114-7.9731.43974-9.0588 2.459-9.0508 1.1388.13496 2.2192 1.0384 2.7344 2.9004.51834 1.8735.30933 3.1728.11719 6.7852.30884-2.1597.78627-4.5024.0059-7.1152-.81596-2.3239-1.9918-2.7852-3.0957-2.7852-.30908.000021-.6121.03643-.90039.07813-1.8054.344-2.799 2.9476-1.3242 9.1875-.57081.04564-1.1417.12148-1.7051.22852-.44145.08387-.86494.18901-1.2676.3125.0744-6.2377-1.8652-8.7549-3.6992-8.6152-1.322.16003-2.8586.50652-3.1445 3.9844-.0716 2.7294 1.4273 5.7868 2.4922 7.3613-1.929-3.2851-2.2629-5.3046-2.252-7.25.0109-1.9319.77775-3.2383 1.8418-3.666 1.9485-.53553 4.3972-.28092 4.7598 8.1855-.4123.12656-.80288.27339-1.1719.4375.28885-.26035.32278-.84423.19727-1.2812-.0913.20896-.29736.34362-.52539.34375-.31698 0-.57422-.25724-.57422-.57422s.25724-.57422.57422-.57422c-.23124-.22068-.49665-.25356-.71875-.16016-.4891.22646-.47915 1.0443-.30273 1.5156.16792.44868.5944.93498 1.0703.85938-.94747.45873-1.737 1.0399-2.3418 1.7031-.6341.69531-1.0654 1.4816-1.2676 2.3164-.25395.84691-.26207 1.5728-.08398 2.1914-1.999-1.2929-5.0819-2.586-5.2695-3.8789-.17508-1.1801.79116-2.7656 1.4629-4.1953.22674-.38071.21148-.6278.22266-1.0234.11212-3.8862 1.6061-6.8539 3.2129-7.6289.78535-.28914 2.8493-.03022 4.2344.16016 2.5452.4573 3.561-1.1224 5.4121-1.8379.16976-.06749.34307-.09748.51367-.09961zm25.432 3.7812-.0625.9707c-.29673.12412-.55708.24111-.83984.32813l-1.3379-.20703c.74959-.33183 1.494-.69501 2.2402-1.0918zm3.7578.36133c1.1748-.009 2.446.2907 3.4922.75.74014.32988 1.4426.76344 2.0996 1.3047 1.6465 1.3563 3.015 3.3397 4.082 5.5469 2.134 4.4145 3.0568 9.7367 2.7891 12.559v.0098c-.25907 4.212-2.0228 8.252-4.584 12.084-.30486.5743-.7083 1.2864-1.0371 1.8594-3.1584 4.2699-7.193 8.2509-11.076 11.9-2.4291 2.122-5.2146 3.9905-7.7734 5.4609-.90145.47439-1.9143.91082-2.748 1.3223-3.0131 1.4868-6.7198 2.5184-10.113 2.666-3.6048.15678-6.8236-.68278-8.5625-2.9297-.69896-.9189-1.239-2.3708-1.1328-3.5039.1676-1.5554 1.0341-3.0397 2.2012-4.2148 1.0479-1.0551 2.3374-1.8548 3.5312-2.2402.89747-.24605 2.471-.48338 3.582-.58399 2.0629-.18933 4.2107-.41709 8.6113-2.6348h.002c1.4298-.76426 4.2083-3.1134 6.4961-5.6094s4.5501-5.3729 5.8672-7.6641c1.71-2.9749 3.1037-5.6844 3.416-8.8145.12629-.876-.13422-2.5463-.81059-4.3223-.61383-1.6118-1.5728-3.305-2.9121-4.5332-.22693-.22245-.44073-.38144-.71484-.50586-.55346-.24976-1.1088-.38178-1.6387-.50586l-1.0918-.69141c.41843-1.5383.85716-2.9982 1.6797-3.9629.43211-.49091.98215-.95013 1.6953-1.3418.74148-.35234 1.5664-.92164 3.8574-1.3477.25683-.03695.52188-.05454.79297-.05664zm-6.0371.95898.62891.20898c-.55358.35764-1.0089.75863-1.3848 1.1855-1.1437 1.2993-1.5354 2.8138-1.7695 4.0137l-3.4121-2.166c-.11935-.06929-.18596-.09888-.23047-.0957-.0445.0032-.06732.03936-.10156.10156l-.052734.11328c-.009-.46517.04444-.92319.14062-1.2949 2.195-.43382 4.1513-1.1922 6.1758-2.0566zm-16.277 1.375 2.0508.23633c.15873.56164.08714 1.0386.05664 1.5293-.8693-.55031-1.5964-1.154-2.1074-1.7656zm2.4219.13867c2.7132.27318 5.1363.42172 7.209.375-.0925.76421.01846 1.3932.03906 2.082l-1.5723 3.3691 1.8945-3.5996c.0668-.17687.11975-.08928.25586-.0059l5.7109 3.5215c.16244.08016.12637.09971.05078.24805l-.99805 1.959c-.0535.1148-.04689.11976-.13672.03516l-4.5293-4.2656c-.18008-.15193-.21127-.18422-.29883-.07422l-1.9082 2.375c-.0768.0708-.06836.12582-.06836.22461v.64453l.04492-.60156c-.006-.10022.02068-.13555.08398-.20508l1.7695-1.9453c.17661-.20947.13504-.16705.32031.01367l4 3.9023-3.9297 9.2871-9.1289-9.4844 9.0234 9.7344-.51758 1.2207c-.16744.32241-.15126.60254-.14648.95312l.1875 13.748c-1.4554 1.4072-3.2572 2.7394-4.1758 3.2305-4.3849 2.2095-6.5014 2.4289-8.5527 2.6172-1.1455.0212-2.2969.27581-3.2637.32812-.62286-.16857-1.3225-.49127-1.4609-.9375-.14763-.47586.34397-1.0182 1.1074-1.207-.0723.0106-.15414.0291-.24219.0527-.45932-.55911-.21889-3.9552-.95898-5.3809-.0554-.106-.11837-.24789-.14648-.36719-.0987-.6274.02175-1.0355.14648-1.4395.0268-.09979-.04809-.20366-.16016-.25-.16513-.04708-.31348-.07972-.43945-.21484-.0497-.05728-.22906-.14949-.0918-.37305.87736-1.2857 1.5438-2.6324 2.6816-3.8438l-.46484.05469c-.38496-.41273.27897-2.2058.41992-3.1797.5612-.1648 1.1017-.36859 1.584-.57422.82915-.36382 1.5571-.91327 1.9121-1.998.0633-.24752.06378-.47025.01758-.66406.0611.0069 1.0133.11578 1.6152.32812 1.0334.35095 1.9059.32486 2.8652-.10547 1.5114-.68209 2.337-2.4716 2.6484-3.8633.21622-1.6596-.52414-3.4319-2.4805-4.8203 2.0973 1.7126 2.5176 3.4436 2.2207 4.8789-.28657 1.3272-1.1022 2.9441-2.6426 3.5977-.6468.28132-1.3857.4053-2.0488.18555-.78837-.22946-2.2246-.55032-2.3496-.57812-.20501-.27746-.54024-.4216-.89063-.37695-1.6095.23716-2.7666.67168-3.5176.83203-.65569.08613-2.2837-.075-3.2793.28516-.31128.09306-.51816.30498-.59961.58789-.0466.20574-.06549.41052-.05859.60742-.3497-.0059-.86444.21752-1.4023.375-.96268.28115-1.9245.36176-2.9883.17188-.51316-.10588-1.1437-.31793-1.6465-.62695-1.3963-.85974-2.1928-2.0768-2.2422-3.7383-.15166-2.1328 1.4942-4.2695 2.5898-4.8203.48913 1.0842 1.6002 1.7939 2.9258 2.2305.18879.50114.33152 1.0023.60352 1.4648l-.72656.10156c-.0033-.0033-.04957-.31131-.10352-.68359-.10539-.72728-.10309-.71501-.17383-.75-.02933-.01451-.08228-.0086-.5957.06445-.3658.05205-.57266.08439-.5918.0957-.03544.02093-.06638.06993-.06641.10547 0 .01425.04188.32644.09375.69336.05188.36692.0939.66782.0918.66992s-.30463.04715-.67187.09961c-.37152.05307-.68483.10398-.70508.11328-.04386.02023-.06836.06356-.06836.12109 0 .02341.03422.28117.07617.57422.05308.37078.08305.54124.0957.56055.01.01526.03513.03661.05664.04687.03819.01821.05444.01663.71875-.07812.37407-.05335.68505-.09279.68945-.08789s.04816.29512.09766.64453c.04951.34941.09496.65845.10156.6875.01576.06945.06335.10783.13281.10742.02677-.00016.28514-.03433.57617-.07617.57287-.08236.57009-.08135.60742-.15625.01852-.03715.01687-.05178-.07813-.7207-.06387-.4498-.09374-.6852-.08594-.6875.0065-.0019.29708-.04413.64648-.09375s.65427-.09461.67773-.09961c.05064-.0109.10398-.05715.11328-.09961.008-.0366-.14547-1.1202-.16406-1.1582-.0191-.03907-.06802-.07179-.10938-.07227-.07078.0044-.12804.01006-.19922.01562-.0207-.13402-.03064-.26556-.02344-.39062.0197-.28721.11559-.50918.27539-.67969 1.7388.33656 3.609.30766 4.8633.09375 1.0474-.17861 2.4016-.67273 3.6641-1.3867-.16073.4351-.24998.90559-.25 1.3965-.000018 2.226 1.8052 4.0312 4.0312 4.0312 2.2259-.000027 4.0293-1.8052 4.0293-4.0312-.000019-2.2259-1.8034-4.0312-4.0293-4.0312-.26193-.000006-.51762.02648-.76562.07422l.002-.002c.22617-.32687.40493-.6652.52539-1.0137.0754-.10906.14743-.21352.2207-.32031.0122.0059.94702.45073 1.7578.90039-.74984-.42923-1.6889-.94559-1.7168-.96094 1.0262-1.4977 1.8685-2.8081 2.9805-4.6484l4.6953 1.1016-4.582-1.2988c.19709-.41009.22939-1.0394.12891-1.4766l4.4531 2.7754c-1.5897-1.3621-3.7756-2.3415-5.2812-3.8867.0157-.81108.03852-1.5445-.0039-2.1641zm-9.3906 2.0098c-.70202.08152-.7839 1.0041-.73828 1.416.0657.49897.40044 1.1036.92383 1.0801.49238-.02209.73764-.72392.70898-1.2695-.13599.18305-.36763.26801-.58984.2168-.30885-.0714-.50112-.37865-.42969-.6875.0714-.30882.37867-.50107.6875-.42969-.1189-.14586-.32814-.31982-.5625-.32617zm-13.812 1.0117c-.26694.77224-.69723 1.5521-.9668 2.2109-.32655-.01412-.85832-.03787-.94336-.03906zm13.438 1.5195c.14129-.000653.28448.000233.43164.0039 1.8721.10339 3.822.44643 5.2324 1.5547 4.389 4.2117-2.4793 7.9535-5.875 8.5254-3.3528.5647-10.966.23912-8.5352-6.0527.18039-.47439.48598-.84111.79492-1.1797 1.4732-1.4639 3.1131-2.1937 5.0488-2.5742 1.0451-.15744 1.9134-.27061 2.9023-.27734zm23.139.64844c.36402.09237.73111.20286 1.0957.36133.30385.10846.54831.3305.76367.5293 1.3001 1.2033 2.2402 2.8647 2.8438 4.4492.66932 1.7575.92068 3.4267.80274 4.2422v.0039c-.12902 1.2966-.44588 2.5217-.89648 3.7266l-.10156-.22461c-.0286-.0876-.07624-.05464-.13477-.0332l-6.957 2.5215c-.22749.05584-.20348.10262-.20117.32031l.0957 8.9082c-.34641.3974-.69594.78902-1.0469 1.1719-.71274.7776-1.4296 1.5181-2.1191 2.1914l-.03711-13.521c-.007-.28495-.02408-.60182.07422-.83984l4.4512-10.811.50976.49805c.1315.14661.1249.11538.20898-.04492l1.3887-2.6484c.12316-.24242.09006-.27149-.02734-.34766zm-37.557.08398c-.26073.64728-.4803 1.3131-.60352 2.0215-.0913.60742-.19474.87303.16992 1.3438.93889 1.2005 3.5507 2.2011 5.541 3.2754.0331.11118.07235.21797.11719.32227-.68222.16937-2.6227 2.0251-2.9316 4.8418-.0554 1.6806.73477 2.997 2.2637 3.9941.93719.6094 2.0093.6624 3.25.77734.35822-.0032.65553-.02895.95117-.0918.0138 1.3667.09201 3.447-.30859 4.9492-.18155.76503-1.6908 2.9838-2.5469 4.4766.95658-1.4741 2.2781-2.9478 2.7715-4.4219.1929-.57317.27658-1.3461.28906-2.1543.002-.16267.05393-.58781.11719-.7793l.13672.17188c.20894.29186.34676.63496.44336.9375.53031 1.6622.9326 3.2164.69336 3.1855-.1695-.0187-.35379-.2792-.56055-.52148.18016.42125.47401.83864.64453.89648.8633.12333-1.3339-5.54-1.6777-6.7402.30139-.06415.60012-.16654.95898-.32031.29924-.08538.67975-.204 1.2559-.16602.10717.5291.41796.97798.9043 1.2344.4926.26893 1.0426.40156 1.5938.44336.79081.04629 1.643-.10758 2.4512-.34375-.32705 1.2003-.90069 2.4355-.75586 3.5684-.96669 1.215-1.6833 2.4719-2.4355 3.7227.25494.1628.53042.34923.89844.4668.0741.02229.10858.12275.08984.22461-.12263.59515-.12674 1.0429-.10742 1.5.023.27645.15076.45544.23242.66602.19627.51329.32183 1.4157.41797 2.3125-1.8461-.15463-4.1294-1.6773-4.5898-2.8887l.8125-.01758 1.8594-2.0586-2.0586 1.7031-3.4434.07813c-2.0365 1.355-5.5781 3.7438-6.9258 3.6816-2.7395-.56233-5.6014-2.7482-7.5605-4.0293-.58925-.29265-.67553-.52661-.68359-1.1055-.02333-1.6767-.04503-3.3221-.06836-5.2754.5284-1.8255 1.8493-3.3539 3.2051-4.8691.7307-3.358 2.0383-7.4827 2.1777-10.053.0209-.43183-.2085-.81613-.90625-1.5898-.28859-.31016-.16406-.75391-.16406-.75391.91762-2.2041 1.9823-2.4087 4.082-2.6152zm29.99 1.8613c-.065-.0026-.13913.01193-.22266.05273-.38185.18626-.19606 1.0963.06836 1.5898.26438.49356.89563 1.23 1.0547 2.3594.15905 1.1294-.01193 1.8852.13672 2.0781.22253.30969.47883.74652.84961 1.9043.0406-.66814-.47034-1.5187-.70898-1.9922-.1698-.27873.04986-.74244-.08594-1.916-.13588-1.1736-1.3117-2.6273-1.3223-3.2637-.0105-.63639.57812-.58203.57812-.58203s-.11552-.22214-.34766-.23047zm-13.939 1.2578c-.59492.01386-1.1812.40833-1.125 1.2559-.0498-1.1175 1.3408-1.6938 2.2051-.68945-.19338-.37792-.63912-.57669-1.0801-.56641zm-6.0117 1.0352c-.59488.01386-1.1811.40845-1.125 1.2559-.0496-1.1174 1.3409-1.6938 2.2051-.68945-.19338-.37793-.63912-.57669-1.0801-.56641zm27.035 1.8223c-.34718-.0189-.61213.68432-.28711.86133l4.0391 2.0195-3.9395-2.1973c-.2116-.11169.02272-.54025.25781-.43555l4.2754 2.3945-4.2363-2.6113c-.0371-.01883-.0734-.02929-.10938-.03125zm-14.672.77344c.23778.002.47295.10083.64453.29297.32302.3617.2914.91335-.07031 1.2363l-2.4297 2.1699c-.36169.32302-.91138.29138-1.2344-.07031-.32303-.3617-.29336-.9114.06836-1.2344.16116-.14347.32164-.28778.48242-.43164.04152.15822.07992.32881.12109.51367-.000221-.000186-.0018.0024-.002.002-.0018-.0039-.0094-.03498-.01758-.06836-.0083-.03335-.01966-.07256-.02539-.08789l-.0098-.02734-.04297.002c-.29942.02302-.56605.23148-.66406.51758-.03114.09095-.03711.13126-.03711.24609 0 .11349.0042.14332.0332.23438.09079.28586.34284.49251.64648.5293.0562.0068.16308.002.22461-.0098.27432-.05329.4968-.24726.58398-.50976.04136-.12455.05068-.24463.0293-.37109-.0512-.30304-.28222-.54865-.58398-.61914-.02254-.0052-.04273-.0098-.04492-.0098-.0036 0-.0368.06637-.07422.14844-.005.01092-.0066.0095-.0098.01367.03444-.06498.06482-.1342.08984-.20703.07105-.17233.09522-.33014.11328-.58984l1.6191-1.4453c.16953-.1514.38009-.22638.58984-.22461zm-2.3516.05469c.18792 1.16.146 1.8489-.05664 2.3516-.0632-.46005-.17372-.81337-.32812-1.0703-.15389-.2561-.35189-.41667-.58398-.49805.34459-.24557.67084-.50737.96875-.7832zm3.6387.02539h.13476l.10938.16211.10938-.16211h.13477l-.16602.24609.17188.25586h-.13281l-.11719-.17187-.11719.17187h-.13477l.17383-.25586zm-1.2793.01563c-.03963.000013-.07822.0013-.10547.0059-.17109.02636-.31211.09764-.43359.21875-.12114.12077-.19211.26132-.21875.43359-.0084.05401-.0084.15739 0 .21484.05079.34726.32932.61711.67774.65625.0488.0052.15875.0027.20703-.0059.13191-.02322.25228-.07744.35352-.1582.16261-.12971.26473-.31975.28516-.5293.0079-.08002-.0015-.18926-.02148-.26367-.08345-.30274-.32665-.5194-.63672-.56641-.02755-.0039-.0678-.0059-.10742-.0059zm-2.9785 1.0293c.01656.01612.03151.03406.04687.05078-.01604-.01675-.02966-.03462-.04687-.05078zm5.4883.76953h.1543l.18555.5h-.13086l-.03125-.08984h-.20117l-.03125.08984h-.13086zm.07813.11719-.07031.19922h.13867zm-1.3027.24219c.23776.002.47487.10082.64648.29297.32303.3617.2914.91335-.07031 1.2363l-2.4297 2.1699c-.36169.32302-.91331.29139-1.2363-.07031-.32302-.3617-.2914-.91335.07031-1.2363l2.4297-2.1699c.16955-.15142.38005-.22445.58984-.22266zm-3.7656.03711c-.0014.000041-.0025.0019-.0039.002.0015-.000039.0021.000032.0039 0zm3.7754.05859c-.12374.000117-.22339.02323-.33594.07813-.37986.18528-.53946.64442-.35352 1.0234.04163.08484.09202.15155.16211.21875.11835.11349.27036.186.43555.20703.04985.0066.1648.0039.21094-.0039.1661-.02844.30488-.09789.42188-.21484.12647-.12642.20221-.28286.22266-.46094.0067-.05833.0035-.16365-.0078-.22266-.01886-.09895-.06065-.19908-.11523-.28125-.07817-.11771-.17722-.20392-.30274-.26562-.1122-.05511-.21151-.07824-.33789-.07813zm-15.494.1582c.38782.12565.79355.22702 1.207.30859-.15674.17492-.25385.4004-.27344.68555-.0205.2991.04416.66508.19727 1.1035-.41289-.35842-.76681-.9599-1.1309-2.0977zm10.209 1.0957h.14063l.11328.17773.11328-.17773h.14258l-.19141.28906v.21094h-.12891v-.21094zm-2.3145.51367c-.04998-.00027-.08788.0075-.13281.0293-.06276.03041-.10726.07621-.13672.13672-.02534.05204-.3682.98756-.375 1.0234-.01161.06111.00025.1312.03125.18945.04374.08219.11945.13932.21289.1582.11851.02395.24922-.03606.3125-.14258.0088-.01478.02994-.06339.04687-.10938.25176-.68322.32758-.88919.33398-.91211.01081-.03863.01106-.10713 0-.14844-.03551-.13263-.15654-.22388-.29297-.22461zm5.1602.42969v.002c-.01628-.000536-.03237-.000517-.04883 0-.24947.0089-.47526.13427-.61524.34375-.04358.06525-.08893.17034-.10742.25-.01834.07908-.02359.18968-.01367.26367.01819.13716.06802.25804.15039.36914.03286.04433.10655.11979.15039.15234.11814.08767.2469.13627.40039.15234.02805.0026.13814-.000559.17188-.0059.35087-.05473.61357-.32857.65234-.67969.0061-.05544.0017-.15913-.0078-.21094-.02042-.10997-.05719-.20477-.11719-.29492-.1373-.2063-.36974-.33445-.61523-.3418zm-7.6797.19531c-.11016 0-.20901.05706-.26172.15234-.01338.02419-.35322.94379-.37109 1.0039-.03121.10502-.0013.22022.08008.29883.05068.04896.10705.07368.18555.08398.05032.0066.13414-.01367.18359-.04492.04432-.02801.09246-.08283.11328-.12891.01691-.03743.35773-.96882.36523-.99805.0251-.09787-.0091-.21733-.08398-.28711-.05903-.055-.12917-.08008-.21094-.08008zm6.2812.83398h.19336c.06947 0 .12128.01025.15234.03125.03127.02099.04687.05534.04687.10156 0 .02432-.0061.04335-.01758.06055-.01145.017-.02717.03082-.04883.03906.02769.0081.04732.02328.0625.04492.0152.02165.02344.04667.02344.07813 0 .04826-.01625.08571-.04883.10938-.03262.02367-.0819.03516-.14844.03516h-.21484zm.12891.08789v.10547h.07227c.02032 0 .03637-.0049.04687-.01367.01055-.0089.01563-.02167.01563-.03906 0-.01719-.005-.03018-.01563-.03906-.01055-.0091-.02656-.01367-.04687-.01367zm0 .19336v.13086h.07617c.02591 0 .04565-.0044.05859-.01562.01324-.01098.01953-.02868.01953-.05078 0-.02164-.0066-.03811-.01953-.04883-.01288-.01092-.03247-.01563-.05859-.01563zm21.879.64453c.039.000359.06373.0301.08203.07813l.08984.20508c-.52183 1.3261-1.2005 2.6335-1.9629 3.9883l-3.3945 1.2285c-.16771-1.6702-.46564-2.4953-.83008-2.4883-.0521.0013-.10554.01977-.16016.05469.47185.23702.74731 1.306.6875 2.5234-.006.13809.02833.20236.19336.14062l3.25-1.0117c-.0543.0952-.10902.19135-.16406.28711-.67193 1.169-1.5952 2.4968-2.6445 3.8496-.0443-.99386-.19039-1.6846-.33203-2.2461.0779.92137.21894 1.9135.07227 2.5781-.60117.76248-1.2391 1.5299-1.8906 2.2773l.13281-8.7148c-.0161-.16984.02535-.16651.17383-.22266l6.6543-2.5176c.0166-.0069.02997-.0098.04297-.0098zm-23.332.15625c.56835-.008.99686.58826.82617 1.25-.10802.40704-.29898.78182-.58398 1.1133-.50772.59045-1.3173 1.0465-2.5078 1.3184-1.1528.2977-2.2514.47007-3.1406.375-1.2105-.24619-2.1589-.93548-2.0039-2.1562.0527-.37507.26677-.67923.70898-.83984.83445-.31534 2.2679-.02524 3.3027-.28125.875-.21644 1.7432-.53079 2.6543-.68945.26364-.03897.50296-.08581.74414-.08984zm4.9316 3.3125c-1.8282.0084-3.3801.08474-4.2168.33594-.10231.01569-.1329.06832-.17383.14844-.4867.95361-.63621 1.7378-.50195 2.8613.0147.18234.01566.18281.18164.17969 4.3927-.0826 7.5134-.21617 11.266-.47852.17689-.0076.19579.008.21484-.1582.0956-.8369.01086-1.7233-.57617-2.7422-.0248-.04453-.08901-.07368-.12891-.07422-1.7427-.01432-3.6309-.06573-5.3418-.07227-.24441-.000654-.48649-.0014-.72266 0zm2.0625.18946c2.0876.000534 3.9168.06874 4.0273.14062.2764.62504.6344 1.1336.50976 2.3379-.004.11764-.01771.1358-.12305.14062-3.6428.16828-5.9027.53828-10.957.42383-.19726.0092-.19846-.01715-.22852-.19336-.16508-.97675.31046-1.826.54492-2.3848.43233-.35456 3.5425-.46565 6.2266-.46484zm3.8691 3.3457c-.19508 1.5008-.32991 4.2789.11719 5.7031.13114.41773.20117.81032.11914 1.2441-.30339.73244-5.9313.79456-9.7793.63867-.10751-.003-.12131.02374-.1582-.06836-.25577-.73459.18651-4.3823-.19531-6.0332.18678 2.204-.287 5.8705-.0332 6.4102.0313.0704.086.06446.14844.06836 3.2718.20319 6.5514.38309 10.215-.53906.1015-.0395.16794-.11198.17383-.20898.0347-.8264-.36651-1.6718-.43359-2.2852-.22686-2.0739-.08432-3.2222-.17383-4.9297zm-6.1504 1.4277c-.0905 1.9388-.12223 3.6486-.13867 5.291.19422-1.5666.38204-3.141.13867-5.291zm2.3789.22461c-.13563 1.6994-.22178 3.4151.08398 5.2617.19406-1.754.09202-3.5077-.08398-5.2617zm31.717 3.1934c.37325-.0039.68396.03685.89062.13672 1.1838.72726 2.3486 1.483 2.9062 2.8887.074.21597-.01487.60899-.24609.61915-.19229.005-.35009-.0342-.5332-.12696-1.0424-.52826-1.3081-1.4968-2.3652-2.4844.77762 1.214 1.3139 1.6435 1.3945 3.2422 0 .0657-.05627.0962-.125.10157-1.2071.007-2.4776-2.4921-4.0938-2.8438-.42337-.10645-.96891-.15857-1.5625-.17578-.12256-.003-.24726-.0039-.37305-.0059.0398-.35574.11406-.42901.26758-.50586 1.046-.42101 2.7201-.83396 3.8398-.8457zm-5.3086.31445c.0187-.00036.03909-.00036.05859 0 .43786.0068.89681.15233 1.377.43359-.022.0092-.04511.01812-.06641.02734-.12604.07962-.19256.36743-.17188.57617-.10552-.00065-.21144-.001-.31836 0-.65907.007-1.3324.04419-1.9316.08789.24078-.32404.47665-.64912.70703-.97656.10043-.1217.21418-.14597.3457-.14844zm.9375 1.0762c.0982-.00066.19603-.00066.29297 0 .11577.00065.22887.0029.3418.0059.8422.0244 1.5906.12124 2.0117.33789.006.003.01178.0048.01758.0078.0191.0102.03699.02045.05469.03125 1.0589.61552 2.0092 1.997 3.0801 2.6602.52423.23291.76976.0713.73047-.34571-.0773-.7951-.14223-1.0474-.44922-1.5391.5512.52688.96623 1.0341 1.6875 1.1816 4.2784 3.58 7.3275 7.4454 7.1973 11.686-.32201 5.7875-5.8324 9.734-10.932 10.949-6.3432 1.0295-13.774-4.5231-18.199-3.4395-1.4004.27569-5.114 1.0831-5.4316 3.5586-.11397.90548.40301 1.8956.63867 2.3066.23561.411.93801 1.0359.23828.63476-.96268-.50525-1.5023-1.3337-1.7656-2.3867-.32951-2.7189 1.2113-6.611 3.8379-8.1934.95162-.51717 4.2498-2.1476 8.0762-1.5449 2.9703.70468 6.0824 1.8812 8.9062 2.0977 1.9552.2338 6.1515-1.6612 6.332-4.1152.0813-1.4968-3.3447-3.849-6.6094-3.8789-.99184.0433-2.2698.0324-2.6562.0566-.0584-.14587-.12682-.28875-.20508-.42773l1.9395-1.502c.1493-.11018.21203-.19551.16797-.47265-.24039-1.5151-.3984-3.5424-.81445-3.9121-.71936-.64236-1.6628-.7538-2.6074-1.0274.73029-.86591 1.4333-1.7465 2.0977-2.6387.62404-.046 1.3342-.08484 2.0215-.08984zm-4.2227 2.8535c.36805.075 1.7445.44898 2.0957.66797.67721.35644.62527.58191.70703.82227.18536.73879.39158 2.3609.54102 3.2344.0242.17298-.02089.24609-.10547.31641l-3.7051 2.8984c-.22245.15461-.233.11842-.24023-.0117-.047-1.0544-.08062-2.2086-.22461-2.8633-.009-.0647-.0304-.12015-.0625-.16992-.23713-.31681-1.22-.58469-1.7246-.77149l.05664.13867c.49231.23823 1.4121.44174 1.5391.83985.20825.70161.19856 1.783.20312 2.8105.005.35398.15584.42662.33594.29688l1.8242-1.4062c.25232.8494.4599 1.796-.08789 2.5547-1.0239 1.1297-3.7006 2.4116-6.1484 3.207-2.8064-.0528-5.8289.59872-8.1426 2.3066-2.0485.63521-3.873 1.1762-4.9102 1.0781-.91805-.17254.29492-.78701.55078-.92773 2.7989-1.5402 5.962-3.5995 8.6875-5.9805l.002-.002h.002c2.9988-2.8184 6.0932-5.8382 8.8066-9.0391zm-2.8262 5.6562c-.16826 1.5994-.07988 2.9764-.08008 4.4316.0401-1.453.15813-2.7658.08008-4.4316zm6.8496 1.6992c2.1551-.0244 6.6248 2.1891 6.4707 3.8418-.18248 1.3795-2.8813 3.4962-5.8594 3.5625-1.6712.075-5.9118-1.2998-8.8047-2.0957 2.0517-.73645 4.1701-1.5864 5.5996-2.9902.48958-.42412.56508-1.3516.27148-2.2422.79903-.0455 1.6002-.0621 2.3223-.0762z"/></svg>