<svg viewBox="0 0 128 128" xmlns="http://www.w3.org/2000/svg" xmlns:xlink="http://www.w3.org/1999/xlink"><linearGradient id="a" gradientUnits="userSpaceOnUse" x1="97.988" x2="84.177" y1="119.56" y2="116.33"><stop offset="0" stop-color="#fde859"/><stop offset="1" stop-color="#fde859" stop-opacity="0"/></linearGradient><filter id="b" color-interpolation-filters="sRGB"><feGaussianBlur result="blur" stdDeviation=".23"/><feComposite in="SourceGraphic" in2="blur" operator="atop" result="composite1"/><feComposite in2="composite1" operator="in" result="composite2"/><feComposite in2="composite2" operator="in" result="composite3"/></filter><linearGradient id="c" gradientUnits="userSpaceOnUse" x1="48.706" x2="59.061" y1="81.451" y2="78.814"><stop offset="0" stop-color="#d9b862"/><stop offset="1" stop-color="#d9b862" stop-opacity="0"/></linearGradient><linearGradient id="d" gradientUnits="userSpaceOnUse" x1="49.354" x2="49.426" y1="75.243" y2="76.417"><stop offset="0" stop-color="#e8ca63"/><stop offset="1" stop-color="#e8ca63" stop-opacity="0"/></linearGradient><linearGradient id="e" gradientUnits="userSpaceOnUse" x1="38.639" x2="37.754" y1="75.171" y2="69.842"><stop offset="0" stop-color="#d3aa6d"/><stop offset="1" stop-color="#d3aa6d" stop-opacity="0"/></linearGradient><filter id="f" color-interpolation-filters="sRGB"><feGaussianBlur result="blur" stdDeviation=".31"/><feComposite in="SourceGraphic" in2="blur" operator="atop" result="composite1"/><feComposite in2="composite1" operator="in" result="composite2"/><feComposite in2="composite2" operator="in" result="composite3"/></filter><filter id="g" color-interpolation-filters="sRGB"><feGaussianBlur result="blur" stdDeviation=".21"/><feComposite in="SourceGraphic" in2="blur" operator="atop" result="composite1"/><feComposite in2="composite1" operator="in" result="composite2"/><feComposite in2="composite2" operator="in" result="composite3"/></filter><linearGradient id="h" gradientUnits="userSpaceOnUse" x1="63.864" x2="64.746" y1="67.797" y2="69.831"><stop offset="0" stop-color="#ecb8a9"/><stop offset="1" stop-color="#ecb8a9" stop-opacity="0"/></linearGradient><linearGradient id="i" gradientUnits="userSpaceOnUse" x1="48.407" x2="49.492" y1="59.797" y2="58.712"><stop offset="0" stop-color="#e9ac9c"/><stop offset="1" stop-color="#e9ac9c" stop-opacity="0"/></linearGradient><linearGradient id="j" gradientUnits="userSpaceOnUse" x1="48.136" x2="47.988" y1="70.034" y2="68.899"><stop offset="0" stop-color="#e3c959"/><stop offset="1" stop-color="#e3c959" stop-opacity="0"/></linearGradient><linearGradient id="k" gradientUnits="userSpaceOnUse" x1="48.983" x2="49.186" y1="97.661" y2="97.22"><stop offset="0" stop-color="#dcb668"/><stop offset="1" stop-color="#dcb668" stop-opacity="0"/></linearGradient><linearGradient id="l" gradientUnits="userSpaceOnUse" x1="66.313" x2="66.397" y1="59.868" y2="62.354"><stop offset="0" stop-color="#fffdfd"/><stop offset="1" stop-color="#fffdfd" stop-opacity="0"/></linearGradient><filter id="m" color-interpolation-filters="sRGB"><feGaussianBlur result="blur" stdDeviation=".11"/><feComposite in="SourceGraphic" in2="blur" operator="atop" result="composite1"/><feComposite in2="composite1" operator="in" result="composite2"/><feComposite in2="composite2" operator="in" result="composite3"/></filter><filter id="n" color-interpolation-filters="sRGB"><feGaussianBlur result="blur" stdDeviation=".11"/><feComposite in="SourceGraphic" in2="blur" operator="atop" result="composite1"/><feComposite in2="composite1" operator="in" result="composite2"/><feComposite in2="composite2" operator="in" result="composite3"/></filter><filter id="o" color-interpolation-filters="sRGB"><feGaussianBlur result="blur" stdDeviation=".11"/><feComposite in="SourceGraphic" in2="blur" operator="atop" result="composite1"/><feComposite in2="composite1" operator="in" result="composite2"/><feComposite in2="composite2" operator="in" result="composite3"/></filter><linearGradient id="p" gradientUnits="userSpaceOnUse" x1="47.186" x2="50.305" y1="37.017" y2="38.508"><stop offset="0" stop-color="#eec1b2"/><stop offset="1" stop-color="#eec1b2" stop-opacity="0"/></linearGradient><linearGradient id="q" gradientUnits="userSpaceOnUse" x1="45.831" x2="48.407" y1="83.119" y2="89.22"><stop offset="0" stop-color="#9f9f9f"/><stop offset="1" stop-color="#9f9f9f" stop-opacity="0"/></linearGradient><filter id="r" color-interpolation-filters="sRGB"><feGaussianBlur result="blur" stdDeviation=".11"/><feComposite in="SourceGraphic" in2="blur" operator="atop" result="composite1"/><feComposite in2="composite1" operator="in" result="composite2"/><feComposite in2="composite2" operator="in" result="composite3"/></filter><filter id="s" color-interpolation-filters="sRGB"><feGaussianBlur result="blur" stdDeviation=".1"/><feComposite in="SourceGraphic" in2="blur" operator="atop" result="composite1"/><feComposite in2="composite1" operator="in" result="composite2"/><feComposite in2="composite2" operator="in" result="composite3"/></filter><filter id="t" color-interpolation-filters="sRGB" height="1.1175" width="1.0302" x="-.015079" y="-.058762"><feGaussianBlur stdDeviation=".18582515"/></filter><filter id="u" color-interpolation-filters="sRGB" height="1.0557" width="1.0153" x="-.007649" y="-.027835"><feGaussianBlur stdDeviation=".09819044"/></filter><filter id="v" color-interpolation-filters="sRGB" height="1.1906" width="1.0275" x="-.013728" y="-.09531"><feGaussianBlur stdDeviation=".16328456"/></filter><linearGradient id="w"><stop offset="0" stop-color="#212848"/><stop offset="1" stop-color="#2c3665"/></linearGradient><radialGradient id="x" cx="55.64" cy="50.886" gradientTransform="matrix(1.0136 -.1997 .16353 .83005 -8.9189 19.595)" gradientUnits="userSpaceOnUse" r="5.0563" xlink:href="#w"/><radialGradient id="y" cx="76.881" cy="50.965" gradientTransform="matrix(1.2128 .28116 -.26736 1.1532 -2.7318 -29.137)" gradientUnits="userSpaceOnUse" r="3.7777" xlink:href="#w"/><radialGradient id="z" cx="46.738" cy="46.196" gradientTransform="matrix(-.035642 .52836 -1.2339 -.083239 126.37 13.065)" gradientUnits="userSpaceOnUse" r="24.536"><stop offset="0" stop-color="#eec0b2"/><stop offset="1" stop-color="#eec0b2" stop-opacity="0"/></radialGradient><radialGradient id="A" cx="94.478" cy="30.526" gradientTransform="matrix(.10003 -.24267 .32605 .1344 52.096 48.694)" gradientUnits="userSpaceOnUse" r="32.374"><stop offset="0" stop-color="#ff7f7f"/><stop offset="1" stop-color="#a66067"/></radialGradient><radialGradient id="B" cx="80.344" cy="98.345" gradientTransform="matrix(1.3342 .45378 -.51484 1.5137 21.296 -85.17)" gradientUnits="userSpaceOnUse" r="23.782"><stop offset="0" stop-color="#fde859"/><stop offset="1" stop-color="#d3aa6d"/></radialGradient><filter id="C" color-interpolation-filters="sRGB" height="1.0992" width="1.1185" x="-.059266" y="-.049593"><feGaussianBlur result="blur" stdDeviation="1.0843571"/><feComposite in="SourceGraphic" in2="blur" operator="atop" result="composite1"/><feComposite in2="composite1" operator="in" result="composite2"/><feComposite in2="composite2" operator="in" result="composite3"/></filter><radialGradient id="D" cx="79.278" cy="95.485" gradientTransform="matrix(.88807 .43199 -.53935 1.1088 60.345 -43.368)" gradientUnits="userSpaceOnUse" r="26.347"><stop offset="0" stop-color="#fde859"/><stop offset="1" stop-color="#eacd61"/></radialGradient><filter id="E" color-interpolation-filters="sRGB" height="1.0441" width="1.0526" x="-.026299" y="-.022071"><feGaussianBlur result="fbSourceGraphic" stdDeviation=".42443608"/><feColorMatrix in="fbSourceGraphic" result="fbSourceGraphicAlpha" values="0 0 0 -1 0 0 0 0 -1 0 0 0 0 -1 0 0 0 0 1 0"/><feGaussianBlur in="fbSourceGraphic" result="blur" stdDeviation=".81"/><feComposite in="fbSourceGraphic" in2="blur" operator="atop" result="composite1"/><feComposite in2="composite1" operator="in" result="composite2"/><feComposite in2="composite2" operator="in" result="composite3"/></filter><filter id="F" color-interpolation-filters="sRGB"><feGaussianBlur result="blur" stdDeviation=".21"/><feComposite in="SourceGraphic" in2="blur" operator="atop" result="composite1"/><feComposite in2="composite1" operator="in" result="composite2"/><feComposite in2="composite2" operator="in" result="composite3"/></filter><path d="m99.964 22.789c-6.5168-5.069-10.209-4.7065-14.98-6.4182-11.453-12.544-21.082-13.688-30.795-15.358-12.702 6.3228-18.384 14.986-20.363 24.883-3.8048 3.1595-7.691 6.2783-10.63 9.8705 2.7227 1.3434 6.6438 2.0877 10.846 2.6916l59.73-10.232c2.5305-1.4793 4.3884-3.439 6.1928-5.4368z" fill="#eadbcc"/><path d="m89.703 97.754c.0067-.39683.16096-.52726.35244-.5911 1.3386-.50829 3.8522-1.0111 4.883-.71667.5378.20814 2.6397 1.2347 2.7708 3.5031l-1.9395 2.5531z" fill="#faeee3"/><path d="m87.816 96.008 2.561 1.2875-.15394.89565-3.5966-.02798z" fill="#c8c6c0"/><path d="m91.959 96.61c-.25486.14313-.39355.29544-.45301.48131-.05947.18588.01199.28077.36598.40874 1.0771.39267 2.1177 1.314 3.1433 2.4527.51497.3912.68614.45632.77823-.27795l-1.3298-2.2391c1.0617.89842 1.9519 2.3115 3.2458 2.5135l-.85241 2.4686-7.1442-4.1984c-.07297-.67684.04348-.95839.3289-1.0706z" fill="#ddb1a3" filter="url(#r)"/><path d="m42.166 34.404 3.8065 29.444 14.549 2.0594.08954 4.4341 6.1856 2.3231 1.1763-3.8676.01979-2.464c1.8594-.30676 4.1477-1.2139 6.3629-2.0187l11.261-3.7702 5.6207-32.22-23.987-3.9582z" fill="#fbefe3"/><path d="m42.166 34.404 3.8065 29.444 14.549 2.0594.08954 4.4341 6.1856 2.3231 1.1763-3.8676.01979-2.464c1.8594-.30676 4.1477-1.2139 6.3629-2.0187l11.261-3.7702 5.6207-32.22-23.987-3.9582z" fill="url(#z)"/><path d="m54.593 86.576-2.8549 12.035-8.5343-.44326-6.4321 3.8791c-3.4501-.8527-6.186-2.8479-8.9061-4.8686l-.03957-6.3134 3.1468-4.4926 2.177-10.43-1.0094-1.4052c.22896-1.7355 1.1818-3.1255 4.6707-3.3051z" fill="#fff"/><path d="m59.453 73.884c-7.1343 3.3371-6.2486 7.4244-7.0547 14.745l-.60358 2.2716c.13925 1.8657-.92332 2.4261-2.0988 4.4376-.43832.71714.32742.90852.68204 1.0302-.27155.78383-.19755 1.1538-.12264 1.9564.74175 1.7421.69358 3.7477.94463 5.3809-1.5318.84558-.45407 1.9838.88166 2.1971l14.378 10.81c1.738.39571 3.3422-.32587 5.0567-.74217l10.535-3.2245c2.4729-1.2373 5.3951-2.0438 4.789-4.8819l3.527-2.3929-10.135-22.366c1.3251-7.5625-.0127-8.6683-5.5789-13.179z" fill="#b5a396"/><path d="m59.453 73.884 9.2227 9.7571 4.0268-9.7443.58778.44782 1.3575-2.449-6.2836-4.0724-2.0432 4.0305-.39189.22389-4.6042-3.0508-2.673 4.0024z" fill="#fff"/><path d="m41.819 78.258c-.51564.09929-.83923.52348-1.2172.86092-1.4461 1.5726-1.9049 3.7552-1.5437 5.403 1.1098 2.5615 3.0312 3.0724 5.6702 3.2161.97262-.28732 1.7073-.54426 2.7015-.54426.11295-.80163.2559-1.1729.95-1.514 1.9392-.25476 2.6875.10595 4.9874-.72238.67464-.12799 1.204-.31179 1.8802-.24739.31137.09561.41155.28583.58383.54426 1.9824.55603 3.712.81109 5.0567 0 2.2076-2.3531 2.7723-4.4308.98956-7.0853-.40396-.45085-.75943-.80399-1.3161-1.2369l-2.3072-1.3057-.261.3802c-1.4884 2.3651-3.1423 3.2064-5.5759 4.3395-3.6162.8551-6.1282.80557-9.1634-.50468-.72744-.54205-1.0025-.84506-1.4349-1.5833z" fill="#c8c8c8"/><path d="m40.012 83.793c.04546-.03871.09425-.06954.20776.000176.47707.29306 1.0744.7682 1.6657 1.1633 1.4502 1.0691 3.3571.63349 4.7649.24985 3.0653-.85121 6.7129-2.911 8.4087-6.0575-2.5512 1.4584-4.6784 1.7212-7.5207 1.7812-2.5052-.31901-4.2607-.47186-5.6603-2.4937l-.1945-.17225c-3.2887 2.2083-3.6545 6.4707-.58725 8.7616 2.2415.90063 3.8542.94786 5.9819.06824-1.8887.24795-7.2589.85168-7.0663-3.301z" fill="url(#q)"/><path d="m45.512 48.757-1.3311-14.129 8.9565-5.2619c-2.2242 6.6147-6.0206 13.44-7.6254 19.391z" fill="url(#p)"/><path d="m46.865 56.586c1.2004 1.4985 2.4682 2.761 3.8791 3.5228l-3.1666 1.6625z" fill="url(#i)"/><path d="m33.703 32.178-.12462.93034c-1.1231 9.1098-1.623 18.358-3.8363 27.226.51199-.61789.90779-1.7006 1.2901-2.837-.12005 1.6696.0078 3.4879-.59374 4.8686l4.2353.03958c.39582-.76333.79165-2.3288 1.1875-3.5624.39122 1.0977.47626 2.0634.59374 3.7208.34235-.27986.63401-.7625.87082-1.4646.07297.58054.10627 1.1611.27708 1.7416l1.2366.28264c.86661-1.6143 1.8771-2.1107 2.2908-2.2973 2.0634-.45717 3.7654.36574 5.6148.26834.38441-.03357.75473-.17409 1.1261-.36575-2.4076-11.294-2.2861-17.487-1.4074-21.851 1.3275-2.1596 3.155-4.0835 4.6586-5.6488-1.6418 3.6226-2.7215 7.0538-3.1275 10.676.44739-.57118.71539-1.3218 1.0283-2.0275.1569 1.4164.11494 3.1028.7557 3.8625 1.8988-6.1067 5.9911-10.963 8.6626-14.54-1.7085 4.2049-3.9803 9.0149-3.6758 12.105 2.1506-4.7962 5.324-8.4479 8.7278-11.956-2.1309 3.4303-3.8538 9.4862-3.6154 10.552 1.3217-3.9631 3.9857-8.7132 6.0504-11.835-1.2048 3.9056-3.6658 7.9959-3.5075 11.717.22564-.90377.62062-1.5253 1.0687-2.0583.01001 2.0702-.31891 4.4758.27708 6.8082.93828-3.0635 2.2107-5.3469 3.4437-7.5998.19633-.37531.37741-.76076.64924-1.0857-.12142 1.4556-.34537 3.1334-.25187 4.2264.59435-2.2326 1.2278-4.5052 2.1784-6.3815-.66482 4.8446-1.5262 9.6083 1.0404 13.603.96473-.42968 3.0329-3.714 3.2713-6.2649.38096.58721.54919 1.016.47499 2.4541 1.8116-2.3064 2.8523-8.6821 2.2958-13.874 1.278 4.3715 2.1033 8.5181 2.7035 13.146.61311.12854 1.1758.43084 1.6569.91597 1.531-4.2654 1.6306-8.9229 1.5374-13.587 1.3936 5.2806 1.5028 11.041 1.243 16.188.675-.50412 1.3682-1.8554 1.6934-3.2327.03038 1.3256.14251 2.055.50383 3.2422-1.5086 3.8361-3.113 7.6657-4.6321 11.498-.09521.21476-.32808.54944-.48635.6719-2.238 1.5045-4.2782 2.823-6.55 3.8324l1.339.20781c2.8647-1.1501 5.3432-1.312 8.1501-.82311.00087-.000883.0017-.0017.0026-.0026-.0049-.0025-.0049-.003.000831-.000851 1.8654-1.6399 2.7814-3.4549 3.8324-5.9008-.27241 2.3612-.38118 4.041-.80773 6.4527.68807-.65311 1.2881-1.1557 2.048-2.3838-.20696.7557-.40958 1.5114-.25188 2.2671.97666-.77763 2.5495-3.6869 2.5043-6.5642.42446 1.4411.65037 4.6855.47499 6.9665 2.3511-3.4106 2.5083-5.8311 3.5895-10.314.13397 3.1541-.02413 1.8158.43492 4.1989.72301-9.8428 1.0639-26.727-5.2593-36.675-18.146-2.0934-38.932 2.7069-56.893 10.465zm24.556-.70893.000752-.0035c-.40061.43126-.40579.43663-.000752.0035z" fill="#ff7f7f"/><path d="m73.906 70.118-.30414.83649 1.0458.94086-1.3574 2.449-.58779-.44785-.44786 1.0356c3.3362 1.6432 6.1826 4.021 6.8574 9.6562-1.0143 1.0975-1.9973 8.3127-2.5792 4.4555l-3.5365 1.0584c-.14951-.77177.04032-1.4465-.57378-2.3511-.40659-1.1501-.66768-.96692-1.0379-.60726-.25686 2.9092-.47006 6.0123-.58548 8.78-.70905.72564-1.4181 1.3173-2.1272 1.8192-.14533-4.1237-.53398-8.2474-.81168-12.371-.05523 4.4963-.05774 9.2825-.25187 13.015-2.9495 1.9755-6.3862 3.6727-13.447 5.1442-.95541.34744-1.7124.29212-.47328-.27081.54102-.3156.51959-.1594.37464-.73127-.41486-1.751-.63734-3.579-.8007-5.4307-.06621-.75198-.07818-.84147-.88365-.57882-.50056.09368-.8239-.03884-.5012-.60796.33727-.8024.86325-1.5419 1.394-2.2799.61115-.8497.45453-.70385-.35818-.0391-.89345.71748-1.7714 1.4174-2.4496 1.8888-.64394.44685-.42087.03401-.40418-.67716l-.58771 1.0916.90631.47166-.22057 1.3476.26586.65775.4058 2.1552.37085 3.1768-.6927.48975-.13993.82566 1.7143.88173c27.058 3.1697 35.072-28.105 21.824-35.784zm-18.137 18.557-1.0264 2.3991c-.48496 1.1335-.34305 1.2809.59372 2.2053l.20735 6.2554c.0256.7719-.11796 1.012.72764.82629l6.3086-.74851.91041-.19791-7.2436-.07917c.31913-1.9148.15799-3.8412.01412-5.7801-.04096-.55261-.29223-.77548.38963-.8082 3.0716-.40123 6.1432-.5989 9.2148-.79382.03187-.4027.16214-.68197.60591-1.0399-2.4743-.03505-7.3033.30699-10.344.20806-.50307-.01739-.77531.07048-.60045-.58454z" fill="#887c74" filter="url(#m)"/><path d="m82.49 103.59-.29688.2573c.95093.37985 2.3258.96328 2.4343 1.6823.15309-.38869.1452-.82534-2.1374-1.9396zm-.75208.73228-.79164.91041.6729 4.1562zm.52934.41261c-.12964.002-.14051.15597-.11953.59187l-.09454 6.1585c-.0027.67967.08163.61396-.5094.95047-.67152.36563-1.3929.48197-2.1255.5424-.44044.036-.96173.13047-.2555-.25575l.59528-.4068c.77808-.5317.59485-.41052-.12857-.10862-1.4348.59662-2.9107 1.1008-4.501 1.3478-.60288.0929-1.1179.2635-.79728-.54357.45827-1.6963 1.4996-3.2177 2.4296-4.7725l-11.028 8.0329 1.8753.67174 14.442-4.1984 3.3866-1.6374 1.2875-1.3994.11195-1.0916c-.38536 1.141-1.7187 2.039-3.1086 2.7546-.48628.2498-1.2593.69012-.42235-.0765l.91914-.99969c.76683-.83114-.16127-.19004-.73281-.041.06365-1.3076.33572-1.6424.54571-2.2671l.15007.86486c.14908.56718.3062.46751.85318.12764.55861-.35965 1.0648-.85923 1.5718-1.3564l-.09796-.25891-2.0852 1.3225-.20626-3.1456-1.3974-.59535c-.2855-.12165-.4582-.21222-.55902-.21075z" fill="#887c74" filter="url(#n)"/><path d="m47.796 97.099c.30529-.25854 1.2716-1.3578 1.7021-1.3458.35604.3439.42815.47358.87994.61455l-.24663 1.7802-2.5693 1.6326z" fill="#e7c763"/><path d="m51.615 59.238c-1.6868.3319-2.9395 1.2035-4.4336 1.9395-1.8023.04396-3.4807-.0746-5.2832-.31641-1.8829.4336-2.9143 2.3405-3.623 4.2949l-.55274 3.8789c-.64347 1.304-1.2622 2.5124-1.5352 3.9805.02866.02498.05729.04924.08594.07422-.15505.44672-.34291.87897-.07031 1.3027.47695.69992 1.3966 1.258 2.0957 1.7051.0086-.02792 2.9057 1.716 3.5 1.9023.000217.000179-.000217.0018 0 .002.2281.793.68049 1.4042 1.6836 1.9785 2.8759 1.2834 8.1293 1.2218 9.4004.17773.0024-.01886-.0023-.03315-.002-.05078.12797-.04196.27408-.07887.37695-.12695 1.5268-.7634 2.5452-1.2445 3.7598-2.5137l.69336-1.0488 1.7812-2.7715c.7589-1.245 1.4766-2.2766 1.8594-3.7012-1.2141-2.4777-4.9108-5.2757-6.1934-7.6992-1.0856-1.2439-1.9268-2.4585-3.543-3.0078z" fill="#fde759"/><path d="m55.133 84.666c-.87162.04662-1.6393.29362-2.5039.50976-1.0375.40988-1.7228.33501-2.8145.35547-.34532.0072-.55954.02553-.73828.06836.01034-.01408.0147-.02481.02539-.03906-1.3495.2699-1.5361.44778-1.5879 1.7383.6427 1.7078 2.549 1.7431 4.1016 1.4688l1.4062-.35742c.0023-.01166-.01225-.01859-.01367-.0293.48456-.16014.94803-.36659 1.4121-.57812.72207-.42032 1.0651-.94457 1.4258-1.6484.14968-.80922-.03385-1.192-.71289-1.4883z" fill="#fde759"/><path d="m38.36 70.734c-.65904.4769-1.7062 1.447-2.0132 2.1236-.15184.5328-.46458 1.0369-.14436 1.5347.47695.69992 1.3982 1.2582 2.0973 1.7053.0086-.02792 2.9052 1.7166 3.4995 1.9029-.23955-1.3392-.06634-2.3181.27048-3.3881-1.2786-1.1072-1.6065-2.3048-2.2128-3.5877-.13225.83062.78599 2.9189 1.1571 3.4735-1.7426-.31247-2.419-2.0862-2.6616-3.6967-.0049-.01086.0186-.06855.0075-.06754z" fill="url(#e)"/><path d="m47.701 70.887c-.0536-.25793-.11748-1.8248.31207-1.872.42954-.04721.82726 1.179.95697 1.6719-.41412.04845-.82222.10181-1.269.20011z" fill="url(#j)"/><path d="m52.439 74.461c-.09437.0046-.19251.02074-.29297.05273-.80367.25595-.76172 1.1621-.76172 1.1621.79354-.54005 1.2339-.65387 2.2051-.68945 0 0-.48979-.55727-1.1504-.52539zm-6.0117 1.0332c-.09437.0046-.19056.02269-.29102.05469-.80365.25594-.76367 1.1621-.76367 1.1621.79354-.54005 1.2339-.65388 2.2051-.68945 0 0-.48979-.55922-1.1504-.52734z" fill="url(#d)"/><path d="m41.799 78.001c-.17697-.13998-.21497-2.1564.0043-2.3235.77823 7.1249 11.324 2.5532 11.079 4.4807-1.2711 1.0441-6.5249 1.1053-9.4008-.17812-1.0031-.5743-1.4541-1.1861-1.6822-1.9791z" fill="url(#c)" filter="url(#b)"/><path d="m49.102 85.561c-2.3961 3.193 4.0523 2.1584 3.9187 2.8499l-1.4052.35624c-1.5526.27438-3.4596.23867-4.1023-1.4691.05177-1.2905.23933-1.4672 1.5888-1.7371z" fill="#e3c265" filter="url(#s)"/><path d="m48.172 96.733c.42135.40478 1.1216.95576 2.0583.74218.12016.72888.18883.9354.39582 1.5833.07298.72144.27752 1.2158.30677 2.1374-1.9499-.10311-4.2219-1.5875-5.1062-3.0577 1.1514.01288 1.6189-.70097 2.3453-1.4052z" fill="url(#k)"/><path d="m51.643 61.535c-2.6633.19323-2.5553 3.1748-2.5215 5.6797l.55664 3.3828c1.8438-.07503 3.1836-.07374 5.3145.63477.4119-3.1827.81719-8.0246-2.0312-9.5996-.50195-.09567-.93789-.12526-1.3184-.09766zm-8.9727 1.0684c-2.3304.8146-2.5667 2.4133-2.6719 4.6895.31166 2.647 1.2563 4.8323 2.4492 6.7051 1.3998-1.8369 3.325-2.5653 4.2559-2.8594.03835-1.9504-.37574-4.0356-.74414-5.709-1.0607-2.5565-2.0752-2.7616-3.2891-2.8262zm13.883 15.414-1.2109.86133c.50983.04825 1.0069.64635 1.1055 1.6504l.14062-.41797c.14343-.87765.0029-1.3109-.03516-2.0938zm-11.951 2.3516c.21032.50561.59733 2.0016 1.3145 2.4277-.19343-.54283-.62233-1.5157.09766-2.0156z" fill="#fff"/><path d="m63.985 61c.46321.89201 4.3145.7484 4.7499-.05937.58247-1.3042.5531-1.5683.63331-2.0187-2.2574-.6523-4.4552-.24468-5.9176 0-.16293.62448.18134 1.3504.53437 2.0781z" fill="url(#l)"/><path d="m68.042 67.076c-1.6606 2.8705-4.7036 3.8065-7.5926 1.1351l-.09633-2.2434c2.8148.27902 5.457.37633 7.7879.37603z" fill="url(#h)"/><path d="m68.398 69.767-2.0368 2.2803c2.607-.05971 4.117.62983 6.1497 2.032zm-7.1643 1.2101-1.4251 1.8377 6.1199-.73777zm4.845 2.0548c-.8832-.0039-1.733.04264-2.5493.13916 1.8935.56523 2.8788 1.0351 4.6707-.03955-.7273-.06343-1.4344-.09666-2.1214-.09958zm4.8922 4.9286c-2.6412 4.5824-2.4592 3.7059-5.8582 1.8604 1.4564 1.7957 2.9478 3.1174 3.4689 3.546z" fill="#dfd9c9"/><path d="m54.799.76172-.61133.25c-8.2744 4.6867-16.938 8.5207-19.689 25.275-4.6612 2.9042-8.1036 6.1566-11.303 9.4785 1.2595 1.1743 4.9425 1.5337 9.6973 2.2969l.80273-5.9609 3.4727-2.0352c.48416-1.4883.89552-2.9765 1.668-4.4648.4241-.81361.88523-1.3529 1.8398-1.6816 8.2378-4.0129 14.334-4.9323 21.111-6.8359-5.1703.63798-10.364 1.4773-19.248 4.5605-1.2745.44263-1.5843.81999-1.0977-.90625.79912-4.1353 2.6534-7.9425 4.8574-11.184-1.2701 2.5156-1.8958 5.105-2.2852 7.7207 2.6582-5.3562 5.4752-10.61 9.9375-14.807.49197-.6066.88911-.56615 1.5488-.41406 4.4453 1.0314 10.417 4.8929 15.016 10.85-1.8295-2.9069-4.6187-7.8801-12.061-10.688l-3.6562-1.4551zm15.717 12.143c.46183.73381.86495 1.3381 1.2637 1.7402-.40681-.59849-.82998-1.1784-1.2637-1.7402zm20.146 8.8145c1.6519 2.3018 2.3521 4.2577 3.2227 6.2754 2.4433-1.4104 4.2968-3.2798 6.0781-5.2051-3.9423-.72297-7.075-1.0937-9.3008-1.0703z" fill="#bcad9d" filter="url(#o)"/><path d="m51.82 61.51c-4.0156.01759-2.6291 5.7481-2.1384 9.0871.35309-3.9907.15798-6.6266 3.2795-8.9636-.42173-.0855-.80079-.12503-1.1411-.12354zm-9.1407 1.2659c-4.0958.06153-2.8767 7.5952-.23232 11.222-1.1679-5.0164-1.7092-7.9875 1.6783-10.989-.54178-.16616-1.0223-.23976-1.446-.23339z" fill="#e5dfd1" filter="url(#f)"/><path d="m88.971 97.781c-.55851.01362-1.1043.04942-1.6582.0957l-.2793.41211c-.64172.76613-1.2849 1.532-1.9258 2.2988 1.0689.18685 2.2277.58152 2.877 1.1445.10829.36978.1964.76589.27539 1.168.04681.32566.10155.67037.16797 1.0684.0034.004.0083.006.01172.01.08483.6247.14232 1.2366.16797 1.7637-.68753.55742-1.4708 1.1411-2.0938 1.623.08449.43527.20916.6267.57617.61915 1.1173-.0753 2.2298-.0344 3.3457.0195 2.3468.32357 4.1479 1.7873 5.373 3.2461 0 0 .0074-.0245.0078-.0254.06181.0833.1314.1616.19141.24609-1.8933 4.9656-7.4301 4.4858-11.678 2.9688-4.8209-1.7469-9.1756-1.0508-12.814 1.5332-.91237 1.0608-1.4691 1.8043-1.9766 2.9648-.02049.0204-.11133.10156-.11133.10156-.03789.13457-.08762.31574-.13476.48828-.02132.0566-.04312.0975-.06445.15625.0076-.002.01585-.002.02344-.004-.51235 1.9298-1.2079 5.6157 2.2188 6.5527-3.6392-4.8765.703-6.8442 5.3008-6.666.89203.10481 1.8086.25487 2.7266.41015 4.2301 1.4242 9.9501 3.8008 14.516 2.9473.01064.002.02257.004.0332.006.02099-.008.04152-.0159.0625-.0234.84328-.16673 1.6502-.4335 2.3926-.85352-.0929.005-.19459-.006-.28906-.004 3.8523-1.7219 7.1725-4.3153 8.4824-8.9746-.003-3.8822-.11923-6.0448-4.7734-11.004l-2.3164-1.8965c-.9179-.0985-1.687-.81862-2.1621-1.3008.29512.5613.54012 1.2716.50977 1.9648-.24214.16946-.44009.0772-.71875-.0469-.89252-.61416-1.6557-1.4674-2.3672-2.1582-.84828-.68759-1.3685-.7175-2.1621-.81836-.6057-.03781-1.1759-.04682-1.7344-.0332z" fill="#e6c764"/><path d="m88.971 97.781c-.55851.01362-1.1043.04942-1.6582.0957l-.2793.41211c-.64172.76613-1.2849 1.532-1.9258 2.2988 1.0689.18685 2.2277.58152 2.877 1.1445.10829.36978.1964.76589.27539 1.168.04681.32566.10155.67037.16797 1.0684.0034.004.0083.006.01172.01.08483.6247.14232 1.2366.16797 1.7637-.68753.55742-1.4708 1.1411-2.0938 1.623.08449.43527.20916.6267.57617.61915 1.1173-.0753 2.2298-.0344 3.3457.0195 2.3468.32357 4.1479 1.7873 5.373 3.2461 0 0 .0074-.0245.0078-.0254.06181.0833.1314.1616.19141.24609-1.8933 4.9656-7.4301 4.4858-11.678 2.9688-4.8209-1.7469-9.1756-1.0508-12.814 1.5332-.91237 1.0608-1.4691 1.8043-1.9766 2.9648-.02049.0204-.11133.10156-.11133.10156-.03789.13457-.08762.31574-.13476.48828-.02132.0566-.04312.0975-.06445.15625.0076-.002.01585-.002.02344-.004-.51235 1.9298-1.2079 5.6157 2.2188 6.5527-3.6392-4.8765.703-6.8442 5.3008-6.666.89203.10481 1.8086.25487 2.7266.41015 4.2301 1.4242 9.9501 3.8008 14.516 2.9473.01064.002.02257.004.0332.006.02099-.008.04152-.0159.0625-.0234.84328-.16673 1.6502-.4335 2.3926-.85352-.0929.005-.19459-.006-.28906-.004 3.8523-1.7219 7.1725-4.3153 8.4824-8.9746-.003-3.8822-.11923-6.0448-4.7734-11.004l-2.3164-1.8965c-.9179-.0985-1.687-.81862-2.1621-1.3008.29512.5613.4904 1.1501.46005 1.8433-.24214.16946-.534.0827-.66903.0746-.89252-.61416-1.6557-1.4674-2.3672-2.1582-.84828-.68759-1.3685-.7175-2.1621-.81836-.6057-.03781-1.1759-.04682-1.7344-.0332z" fill="url(#a)"/><path d="m95.443 98.873c.29512.5613.49039 1.1502.46004 1.8435-1.6569.94367-2.5599-.35326-3.9288-1.4392-.598-.43148-1.0254-.10156-1.0254-.10156-1.4936 1.1221-2.5983 2.6585-2.4512 3.8867.07858.62794.17842.4618.79688.60352 1.6186.3457 5.6789 1.3335 6.6133 2.7148 1.1597 1.7144-.06191 4.7695-.0918 4.8438.06181.0833.1314.1616.19141.24609-1.8933 4.9656-7.4301 4.4858-11.678 2.9688-4.8209-1.7469-9.1756-1.0508-12.814 1.5332-.91237 1.0608-1.4688 1.8043-1.9766 2.9648.28335-.28143 2.413-2.3052 5.709-2.584 3.4861-.29487 14.198 5.8429 20.967 5.6953 3.8517-1.7218 7.1708-4.316 8.4805-8.9746-.003-3.8822-.11923-6.0448-4.7734-11.004l-2.3164-1.8965c-.9179-.0985-1.687-.81861-2.1621-1.3008zm-7.1836 4.0273c.04681.32566.10155.67037.16797 1.0684.0034.004.0083.006.01172.01-.04883-.35962-.10912-.71892-.17969-1.0781zm-18.967 16.627c-.02132.0566-.04312.0975-.06445.15625.0076-.002.01585-.002.02344-.004.01511-.0569.02633-.0986.04102-.15235zm24.816 3.3789c-.03181.006-.06378.0116-.0957.0176.01064.002.02257.004.0332.006.02099-.008.04152-.0159.0625-.0234z" fill="#fde859" filter="url(#F)"/><path d="m80.696 21.103c-17.484-.03861-33.147 5.3252-47.001 10.999-.28485 2.2944-.52692 4.5324-.75214 6.6656.62746-.41239 1.2522-.82944 1.8758-1.249-1.0919 7.1702-2.4007 13.69-3.7864 19.978l-.1179-3.6682-1.4654 7.191 1.2666-1.7812-.57395 3.4437 4.6312-.07916 1.0885-2.9687.41562 2.5729.11875.59374.77186-.87082.27708 1.0687 1.4843.47499c1.209-2.2422 2.2586-2.8499 4.7499-2.5531.84452.01059 3.8323.81283 4.2716-.1131-2.6158-6.941-3.0506-15.167-3.4894-23.269-.84482 6.5426-1.4661 13.219-1.5674 20.208-1.1488-4.797-1.9097-9.9265-2.0152-15.618-.45219 2.8672-.91274 5.6507-1.5114 7.0532-.25398-4.1607-.63588-9.0887-1.0238-14.053 12.471-8.4534 25.657-16.672 51.875-10.721.71853.16182 1.4688.3424 2.0827.49509.2711-.40444-1.1218-2.2619-1.7047-3.1905-3.3626-.41003-6.6628-.60244-9.9006-.60959zm4.9095 4.2887c1.245 2.9798 2.7266 6.0388 3.287 9.4941.01653-.22119.03035-.44016.04948-.66347.08671.20341.17852.42006.27198.65404 1.061 2.82 1.0502 5.8797.99466 8.8458.64074.20762.95762-1.0174 1.0042-1.4428 1.0491-6.9331-.89888-12.527-5.6073-16.888zm-28.884 1.4683c-1.54 1.9018-3.0324 3.8275-4.1562 5.9374.03314-.49753.19496-.54469.03958-1.702-1.6059.98145-3.0648 2.1588-4.3541 3.5624.5905-1.3906.73123-2.7813.80062-4.1719-.95546 3.0753-2.0677 5.7072-2.4255 8.2933 1.4-2.0689 2.9955-3.9907 4.4967-5.5504-.09447.56358-.45947 1.0427-.69973 1.5114-1.1139 2.9738-1.9312 5.5343-2.3102 8.2226-.04237.30182-.08162.6153-.11751.94209.46783-.62526.73912-1.373 1.0283-2.0275.10535 1.9111-.06912 2.8792.7557 3.8625.06661-.31247.13789-.57929.21585-.85628.17692-6.5923 4.2165-12.54 6.7265-18.024zm34.146.65891c.92937 2.2644 1.4156 3.8565 1.6809 5.1135-.000712-.0066-.00091-.01288-.0016-.01948.86394 2.1713.96459 4.038 1.3435 6.1056.31726-1.7409.45161-3.8753.08728-4.9709-.68747-2.0374-1.4245-4.0804-3.1101-6.2287zm-23.679.39188c-2.7795 4.2798-5.3925 7.3614-6.5164 11.897 1.6214-3.6582 3.2926-6.7734 5.2569-9.7422-1.4411 4.2798-3.3216 7.72-3.5075 11.717.32548-.5032.44-1.2331.78392-1.69.63271-3.7517 2.4731-8.0402 3.9831-12.182zm-6.5582.70452c-.78459.72146-1.5167 1.6186-2.1946 2.6003-.05806.08409-.11842.16444-.17565.24978l-.11194.48983c-.26966.65099-.53738 1.2941-.79868 1.9288-1.2207 2.9827-2.8351 6.2887-2.5832 9.4207.46336-.70354.89365-1.6269 1.1431-2.2695.72547-4.5691 2.4564-8.34 4.721-12.42zm10.869 1.2547c-5.6249 7.7857-5.9912 10.569-6.5791 13.564-.07215.36752-.14727.7379-.23634 1.1215.923-2.2695 1.7761-4.3194 2.824-6.1845.10717-.18885.22389-.36898.35292-.524-.2514 1.4751-.3653 2.8755-.25187 4.2264.19426-.32819 1.2927-4.6636 2.1784-6.3815-.10165.63598-.19363 1.2396-.27522 1.8138-.95017 5.3173-.43056 9.0181 1.3156 11.789 1.145-.03805 3.5507-5.4339 3.2173-5.8642-.75345 1.421-2.0005 3.4914-2.8215 3.8354-1.1666-5.7784-.58539-11.472.27592-17.396zm10.972.22389.30986 3.3467c-.000752-.42501-.0047-.95076-.01345-1.3557.25092 2.0369.86439 4.0881 1.0809 5.9563.04417.14502.08821.28378.13205.41894-.02904-.0033-.05842-.0057-.08829-.007.03402 1.2899.20604 2.5588.23711 3.7962.05264 2.0788-.22866 4.2073-.11875 6.0235.8871-.49712 1.5138-2.208 1.6934-3.2327.01438.39461.01848.78021.06997 1.1475.11083.64925.21144 1.3798.43734 1.6115.77892-1.6135 1.4511-3.2751 1.637-4.7136-.46494 1.4214-.93303 2.8141-1.4586 3.6899.3614-1.8147.71968-3.6315.64368-5.7378-.53854.80266-.79444 1.033-1.0076 1.7634-.03478-.53037-.03225-.98614-.15624-1.6949-.02054-.06432-.04145-.1274-.06231-.19057.0067-.01927.01343-.0382.01964-.05922-.58998-3.9398-1.798-7.4677-3.3557-10.762zm-6.1016.44785c.44387.94783.48689 3.0654.62056 5.3078.30861-1.2539.18519-2.8582-.12037-4.2397 1.1034 4.1491 2.2667 8.8276 2.7035 13.146.6425.1348 1.1141.56969 1.6569.91597.98959-2.3955 1.0925-4.3934 1.2913-6.496-.42491 2.4005-.89029 4.5176-1.5058 5.5842-.40543-4.8146-1.0688-10.923-4.6461-14.218zm-38.733 5.0682c-.72398 7.9114-2.2339 14.251-3.6982 20.682.59274-5.7728 1.1717-11.569.89849-18.785.93382-.62834 1.8657-1.2626 2.7997-1.8972zm50.514 6.632c-.31333 1.41-.76449 2.7849-1.1725 4.1695l-2.6869 6.5775c-.93934 2.3231-1.9345 4.6222-2.9281 6.9224-1.9102 2.0449-4.8952 3.3189-7.0061 4.4036l.88071.31666.76196.08906c2.5823-1.3731 5.3957-1.5684 8.1144-.89061 1.4298-1.4582 2.5211-3.3611 3.3678-4.8654.09768 1.9841-.23225 3.7344-.62976 5.6538.66907-.45729 1.1705-1.082 1.7074-1.6794-.007.53277.03311 1.0486.13993 1.5675 1.5733-1.9607 2.3816-3.6625 2.7709-5.8358.26781 1.5292.28874 2.7177.26486 4.2237 3.0032-7.273-.06895-12.396-1.0901-16.639.53025 3.3466 1.0466 8.2719.47499 9.9748-.46892-4.6807-1.9237-9.7566-2.9696-13.988z" fill="url(#A)"/><path d="m49.191 95.924-.3864.20518-2.0206 1.964-3.3727.02798-6.4655 3.7785c-3.597-.40926-6.9495-3.1128-8.9145-4.4923-.15533-2.5691-.38894-5.0512.16792-7.557.97389-1.3271 1.9586-2.6454 2.9669-3.9465l2.0712-9.4603c-2.3582-2.8237-.07781-4.9355 2.0992-5.094l2.1132-2.589.29389.48981-1.1755 2.463s-2.3498.61532-2.3511 1.4554c-.0018.84011 1.9312 1.2035 1.9312 1.2035.53178.93495 1.5432 1.349 2.4351 1.9312l-2.7166.83424c-1.0952.19661-.78268.56844-.6092 1.544l1.1401 6.4108c.48002 1.8079.37098 1.8853-1.1727 2.715l-4.0591 2.1818c-1.2356.63484-1.299.57473.0387.9432l1.8128.49934c2.1762.26015 2.0333 1.6697 2.601 3.5875l1.3797 4.6603c.16871.62101.44368.62347.92769.28014l4.4362-2.7485 2.2111-3.3307.53179-1.3715.25189-3.1348-.13844-1.5905c.89536 2.1627 2.1347 4.4684 2.1816 6.7405 1.4813-.40895 3.003-1.4652 4.5202-2.449l-2.4226 3.6777z" fill="#dfd9c9" filter="url(#g)"/><path d="m80.018 45.02-3.4336 8.8906c1.5288-.07742 3.367-.55351 4.8789-1.5938 2.1836-3.0215 1.1913-5.669-1.4453-7.2969zm-29.393 2.1543c-.65793 1.3166-.67686 2.8243.13281 4.6777 1.5117 1.5683 3.0325 2.0096 3.8691 2.2012z" fill="#fff"/><path d="m78.336 44.928c-3.5075.14771-4.2059 2.7005-4.5391 4.5645-.36631 3.3162.76089 4.3651 2.8477 4.373 2.7911-.04225 4.1425-3.1301 4.4707-5.0195.25104-2.4418.43714-2.9192-1.0977-3.8262-.62287-.08607-1.1806-.1129-1.6816-.0918z" fill="url(#y)"/><path d="m56.205 44.242c-1.3401-.01403-2.4768.35929-3.2227.63867-1.2043.7055-3.6018 2.5475-1.7949 6.2812 1.1595 2.5648 4.1254 3.5174 6.541 2.3301 3.4447-1.8086 2.7421-5.4697 2.9199-7.5645-1.5592-1.2696-3.1033-1.6715-4.4434-1.6855z" fill="url(#x)"/><path d="m59.625 49.496c-.07629.03908-.2132.21096-.43945.54492-2.518 3.1761-4.499 2.8612-6.6113 1.4121-.55098-.40341-.97466-.80301-.63867.16602.52371 1.3728 2.2963 2.1526 4.2402 1.9473 1.8445-.1948 3.0999-1.8594 3.4668-3.3164.06902-.51802.10957-.81905-.01758-.75391zm20.725.41602c-.03248-.004-.13246.14693-.30078.39258-2.5786 3.5866-4.7038 2.5415-5.5098.78125-.19804-.5822-.32948-1.0754-.4707-.12109-.07341.896.34395 2.2315 2.2031 2.4258 2.0803.21737 3.4675-1.5831 3.9746-2.9414.10089-.37463.136-.53309.10352-.53711z" fill="#a6aed6" filter="url(#v)"/><path d="m55.424 44.055c-3.1822.06878-6.37 2.6512-4.2363 7.1074-.21124-3.2892.41452-6.4403 7.2188-6.3145-.86225-.55936-1.9217-.8159-2.9824-.79297zm23.01.72852c-4.0989-.10926-5.3452 4.7131-4.3906 7.7363.20814-4.7625 1.6147-5.9801 4.7871-6.7422.80683-.05453.88804.2777 1.2461.59961.52814.64299.83454 1.5439 1.0391 2.4688.13914-.95573.17516-1.9853.18945-2.7266-.44869-.77142-1.2595-.96343-2.0137-1.2461-.2988-.05311-.58416-.08256-.85742-.08984z" fill="#212848" filter="url(#u)"/><path d="m58.656 45.178c-.10306.01822-.20014.06388-.2832.14453-.33224.32261-.15005 1.2617.2207 1.5586s1.0208.24497 1.2715-.10156-.0028-.97021-.30664-1.2539c-.22795-.21277-.59317-.40231-.90234-.34766zm21.803.41797c-.25825-.04045-.51629.01475-.71289.20117-.39321.37284-.2629 1.4039.11914 1.8125s1.122.60293 1.5254.20508.16758-1.4595-.2207-1.8477c-.19414-.1941-.45269-.33064-.71094-.37109zm-27.725 5.627c-.22652-.03396-.47363.06934-.59961.23438-.16798.22005-.14134.62073.06836.83203s.72102.33601.94922.08398.0605-.88853-.20312-1.0684c-.06591-.04496-.13934-.07071-.21484-.08203zm22.037.14453c-.15192-.02104-.30432.01389-.41602.125-.22339.22222-.12066.82739.10156 1.0508s.60864.30621.83203.08398c.22339-.22222.11871-.82739-.10352-1.0508-.11111-.11169-.26214-.18794-.41406-.20898z" fill="#fff" filter="url(#t)"/><path d="m58.232 76.947c-.26193-.000006-.51762.02648-.76562.07422-.12445.2185-.56901.68717-.90625 1.0547.06097.50358.13721 1.1082.0957 1.6445l1.6191-1.4453c.16953-.1514.38009-.22638.58984-.22461.23778.002.47295.10083.64453.29297.32302.3617.29141.91335-.07031 1.2363l-2.4297 2.1699c-.36169.32302-.91138.29139-1.2344-.07031-.32303-.3617-.29336-.9114.06836-1.2344.16116-.14347.32164-.28778.48242-.43164-.08613-.47636-.30558-.85835-.82031-1.1074-.21552.16234-.81289.52229-1.0547.67383-.16114.43559-.24998.90689-.25 1.3984-.000018 2.226 1.8052 4.0312 4.0312 4.0312 2.2259-.000027 4.0293-1.8052 4.0293-4.0312-.000019-2.2259-1.8034-4.0312-4.0293-4.0312zm1.9199 1.1836h.13476l.10938.16211.10938-.16211h.13477l-.16602.24609.17188.25586h-.13281l-.11719-.17187-.11719.17187h-.13477l.17383-.25586zm1.2305 1.8145h.1543l.18555.5h-.13086l-.03125-.08984h-.20117l-.03125.08984h-.13086zm.07813.11719-.07031.19922h.13867zm-1.3027.24219c.23776.002.47488.10082.64648.29297.32303.3617.29141.91335-.07031 1.2363l-2.4297 2.1699c-.36169.32302-.91331.29139-1.2363-.07031-.32302-.3617-.29141-.91335.07031-1.2363l2.4297-2.1699c.16955-.15142.38005-.22445.58984-.22266zm-5.2754 1.3496h.14063l.11328.17774.11328-.17773h.14258l-.19141.28906v.21094h-.12891v-.21094zm1.4473 1.9727h.19336c.06947 0 .12128.01025.15234.03125.03127.02099.04687.05534.04687.10156 0 .02432-.0061.04335-.01758.06055-.01145.017-.02717.03082-.04883.03906.02769.0081.04732.02328.0625.04492.0152.02165.02344.04667.02344.07813 0 .04826-.01625.08571-.04883.10938-.03262.02367-.0819.03516-.14844.03516h-.21484zm.12891.08789v.10547h.07227c.02032 0 .03637-.0049.04687-.01367.01055-.0089.01563-.02167.01563-.03906 0-.01719-.005-.03018-.01563-.03906-.01055-.0091-.02656-.01367-.04687-.01367zm0 .19336v.13086h.07617c.02591 0 .04565-.0044.05859-.01562.01324-.01098.01953-.02868.01953-.05078 0-.02164-.0066-.03811-.01953-.04883-.01288-.01092-.03247-.01563-.05859-.01563z" fill="#475f66"/><path d="m58.874 78.146c-.03963.000013-.07921.002-.10646.0066-.17109.02636-.31284.09783-.43432.21894-.12114.12077-.19223.26175-.21887.43402-.0084.05401-.0084.15739 0 .21484.05079.34726.32944.61691.67786.65605.0488.0052.15953.002.20781-.0066.13191-.02322.25144-.07657.35268-.15733.16261-.12971.26577-.32087.2862-.53042.0079-.08002-.0018-.18976-.02181-.26417-.08345-.30274-.32627-.51858-.63634-.56559-.02755-.0039-.06721-.0066-.10683-.0066zm-2.482 2.1991-.04244.0032c-.29942.02302-.56539.22987-.6634.51597-.03114.09095-.0374.13171-.0374.24654 0 .11349.0041.14397.03309.23502.09079.28586.34343.49255.64707.52934.0562.0068.1629.002.22443-.0098.27432-.05329.49689-.24767.58408-.51017.04136-.12455.0509-.24408.02952-.37054-.0512-.30304-.28294-.5483-.58471-.61879-.02254-.0052-.04281-.0096-.045-.0096-.0036 0-.03671.06636-.07413.14843-.0091.02008-.01575.02936-.01736.02472-.0018-.0039-.0095-.03464-.01771-.06802-.0083-.03335-.01978-.07319-.02551-.08852zm3.775.05434c-.12374.000117-.22329.02327-.33584.07816-.37986.18528-.53784.64488-.3519 1.0239.04163.08484.09148.15274.16157.21994.11835.11349.27008.18547.43527.2065.04985.0066.16545.0046.21159-.0032.1661-.02844.30496-.09975.42196-.2167.12647-.12642.20159-.28207.22204-.46015.0067-.05833.0027-.16279-.0086-.2218-.01886-.09895-.05968-.19962-.11426-.28179-.07817-.11771-.17692-.20463-.30244-.26633-.1122-.05511-.213-.07843-.33938-.07831zm-2.438 2.1993c-.01628-.000536-.03279-.00036-.04925.000157-.24947.0089-.4758.13586-.61578.34534-.04358.06525-.08797.16874-.10646.2484-.01834.07908-.02458.19018-.01466.26417.01819.13716.06761.25921.14998.37031.03286.04433.10737.11898.15121.15153.11814.08767.24713.13693.40062.153.02805.0026.13735-.0013.17109-.0066.35087-.05473.61419-.32898.65296-.6801.0061-.05544.0027-.1587-.0068-.21051-.02042-.10997-.05844-.20463-.11844-.29478-.1373-.2063-.36881-.33374-.6143-.34109z" fill="#b42320"/><path d="m44.232 80.676c-.02933-.01451-.08228-.0086-.5957.06445-.3658.05205-.57266.08439-.5918.0957-.03544.02093-.06638.06993-.06641.10547 0 .01425.04188.32644.09375.69336.05188.36692.0939.66782.0918.66992s-.30463.04715-.67187.09961c-.37152.05307-.68483.10398-.70508.11328-.04386.02023-.06836.06356-.06836.12109 0 .02341.03422.28117.07617.57422.05308.37078.08305.54124.0957.56055.01.01526.03513.03661.05664.04687.03819.01821.05444.01663.71875-.07812.37407-.05335.68505-.09279.68945-.08789s.04816.29512.09766.64453c.04951.34941.09496.65845.10156.6875.01576.06945.06335.10783.13281.10742.02677-.00016.28514-.03433.57617-.07617.57287-.08236.57009-.08135.60742-.15625.01852-.03715.01687-.05178-.07813-.7207-.06387-.4498-.09374-.6852-.08594-.6875.0065-.0019.29708-.04413.64648-.09375s.65427-.09461.67773-.09961c.05064-.0109.10398-.05715.11328-.09961.008-.0366-.14547-1.1202-.16406-1.1582-.0191-.03907-.06802-.07179-.10938-.07227-.07078.0044-.12804.01005-.19922.01562.03421.26333.17773.77344.17773.77344-.2193-.12247-.4779-.48129-.61328-.71094l-.72656.10156c-.0033-.0033-.04957-.31131-.10352-.68359-.10539-.72728-.10309-.71501-.17383-.75zm8.3359 1.4922c-.04998-.00027-.08788.0075-.13281.0293-.06276.03041-.10726.07621-.13672.13672-.02534.05204-.3682.98756-.375 1.0234-.01161.06111.00025.1312.03125.18945.04374.08219.11945.13932.21289.1582.11851.02395.24922-.03606.3125-.14258.0088-.01478.02994-.06339.04687-.10938.25176-.68322.32758-.88919.33398-.91211.01081-.03863.01106-.10713 0-.14844-.03551-.13263-.15654-.22388-.29297-.22461zm-2.5195.625c-.11016 0-.20901.05706-.26172.15234-.01338.02419-.35322.94379-.37109 1.0039-.03121.10502-.0013.22022.08008.29883.05068.04896.10705.07368.18555.08398.05032.0066.13414-.01367.18359-.04492.04432-.02801.09246-.08283.11328-.12891.01691-.03743.35773-.96882.36523-.99805.0251-.09787-.0091-.21733-.08398-.28711-.05903-.055-.12917-.08008-.21094-.08008z" fill="#2f2f2f"/><path d="m72.297 70.287 1.0215.74024c1.2963.2561 1.8719.33767 2.8984 1.2734 2.0399 2.4799 3.1659 4.7157 3.4629 8.2129-.4029 3.1034-1.486 5.5264-3.1465 8.5312-2.8288 4.4145-5.1893 7.4287-9.3223 11.301-2.3726 2.268-5.5336 3.9478-9.1621 4.75-2.1168.33297-5.5885.55338-6.3926.83008-3.5447 1.6522-6.3908 4.0129-5.7402 8.332 2.377 6.7117 12.698 5.749 20.266 2.1777 3.5169-2.0586 6.3219-3.6354 9.4609-6.2148 4.4131-3.9318 7.6012-7.3579 10.914-11.297 4.2225-5.0472 6.7993-11.525 6.8301-17.326-1.1866-6.8105-3.4324-15.311-9.9375-17.885-4.8167-.97441-10.84 1.4854-11.152 6.5742z" fill="url(#B)"/><path d="m80.625 69.875c1.5022 3.3883 2.6375 13.047-.625 18.25s-9.9555 15.274-15.985 17.539c-5.0375 1.8917-11.582 1.3167-13.515 3.3362s-.87241 5.4852 4.75 6.75 13.422-1.8191 25.696-10.517c10.708-11.754 20.304-24.196 3.3272-41.463-2.4692-.3298-4.862-.33009-7.1231.23808 0 0 1.9723 2.4789 3.4746 5.8671z" fill="url(#D)" filter="url(#C)"/><path d="m59.003 111.46c5.162.0838 12.811-1.5708 23.19-7.6131 10.416-10.411 14.631-29.585 3.884-36.96-5.3475-3.3399-3.2387-.85775-2.1146 2.6244 2.4629 7.7142 3.4249 20.516-8.4625 30.613-7.1822 6.1002-15.374 8.0132-17.464 8.5373-8.3189 1.9877-3.0568 2.7069.96677 2.798z" fill="#fde759" filter="url(#E)"/><path d="m54.797.76172c-.50513-.0016845-.95922.11551-1.457.36328-13.129 6.5408-18.129 16.323-19.514 24.771-3.9491 2.7998-7.1857 5.6856-10.395 9.0879-.55729.64304-.60631 1.1148-.19727 1.4141 1.0373.75056 6.1118 1.5512 9.4199 1.8223-.64551 8.3674-2.1173 16.459-3.7988 24.383l1.4648-1.8613-.47461 2.2168 4.9863-.07813c.45382-.86908.81198-1.7188.94922-2.6934.27409 1.0013.43824 1.9487.51562 2.8516l.75195-.55469.35547.71289 1.1719.46094c-.49766 1.1125-.91501 2.659-1.0938 4.8125l-2.3027 2.7559c-1.0843.05237-2.1871.48507-3.375 2.6094-.11002.22096.07392.86628.17969 1.0371.39747.48249.78871.95705.75 1.3066-.30448 3.0849-1.2994 6.6885-1.9785 10.055-1.3234 1.4017-2.6669 2.787-3.168 4.9082v5.4258c-.12229.80494.23496 1.0548.80078 1.4648 2.624 1.8996 6.0877 3.884 8.0664 4.2715.87098.0415 3.8812-1.939 6.9277-3.8398l2.375.03906c1.3905 1.6736 3.104 2.7602 4.9922 2.8457.11638 1.1479.18716 2.2252.29102 2.3984l.0059.004c-.3753.16747-.74775.45267-.83789.88867-.0996.48172.42393.85886.84766 1.0898-1.1567.4572-2.3237 1.233-3.3047 2.2207-1.2397 1.2482-2.1852 2.8409-2.3711 4.5723-.00016.00096 0 .003 0 .004-.12776 1.3552.46336 2.8859 1.252 3.9219l.002.002c1.9105 2.4696 5.3466 3.3216 9.0586 3.1602 3.4811-.1514 7.2313-1.1934 10.312-2.709.80431.42034 2.4408.16234 4.6602-.47461-.82728 1.0492-1.811 2.6145-2.0312 5.5488-.21625 2.561 1.4984 4.4432 2.8906 5.1856.88211.30591.78744-.36212.04492-1.2324-.89345-1.0306-1.3587-1.945-1.3691-2.8281-.0213-1.7997 2.0382-3.2105 5.6641-3.3867 4.4495-.25653 11.154 4.2209 16.863 3.7617.75015-.0618 1.4589-.26106 2.207-.57812 5.5536-2.1055 9.7163-5.302 10.094-11.188.15788-4.8818-3.5278-8.5303-7.2129-12.18-.00003-.0691-.0074-.14676-.02148-.23438-.50069-1.5674-1.5041-2.3824-2.6328-3.0078-.69522-.2108-1.0471-.24542-1.584-.17969-1.2832.16622-3.0083.6248-3.75.7207-.29777-.28156-.58977-.53919-.90039-.69531 2.5967-3.889 4.3951-8.0187 4.6641-12.369.28494-3.015-.66129-8.3487-2.8457-12.867-1.0927-2.2603-2.4975-4.3141-4.2383-5.748-.75591-.56875-1.479-1.0516-2.2344-1.3809 1.089-.98052 1.8797-2.13 3.1797-4.4258-.13901 2.0161-.3746 3.855-.80664 5.5781.58878-.4168 1.2598-.83434 1.7031-1.5195-.0271.64565.08266 1.1076.2793 1.4551 2-2.3226 2.7372-4.2585 2.8555-5.7285.17034 2.4729.16101 4.6933-.16797 6.2051 2.0653-2.0228 2.5421-3.8686 3.918-9.8555l.27734 6.9668c.36956-1.3396.49618-2.0815.73242-3.6426 1.0339-14.777-.23447-24.338-2.2168-30.379 2.2143-1.6252 3.7323-2.8278 6.0742-5.3027.21745-.21395.26136-.45891.10742-.6582-2.4246-2.0312-7.3547-4.4958-14.633-6.0312-7.1236-6.9656-13.178-13.428-29.791-15.541-.36064-.083049-.68332-.12752-.98633-.12891zm.26758.75586c.24468.002.49232.019545.74609.046875 8.785.94964 18.602 3.665 29.225 15.295 5.1384 1.4864 10.682 2.1929 14.576 5.8906-17.272-3.8129-37.86-2.7926-65.863 9.0254.006-.04166.01013-.08335.01563-.125l-.01758.125c-2.7911 1.1779-5.6552 2.461-8.5977 3.8594 2.8478-1.1507 5.6862-2.3135 8.543-3.4531l-.79883 5.8809c-3.2611-.58168-9.0897-1.617-8.9453-2.4551-.01288-.91285 4.0121-4.7222 10.549-9.3203 1.7704-12.787 11.071-21.398 19.33-24.609.42797-.12234.83044-.16379 1.2383-.16016zm2.0215.8125c6.8435 2.0531 11.739 8.911 15.152 12.854-3.669-5.142-6.6175-10.472-15.152-12.854zm-3.6895.3457c-8.3883 6.2647-8.9819 12.522-10.529 18.129 2.1859-7.0723 4.8453-13.438 10.529-18.129zm19.365 13.436c-11.754.02024-23.81 2.7728-36.305 9.4492 11.68-5.6842 24.734-10.416 47.021-8.7344-3.5448-.4714-7.1169-.72086-10.715-.71484zm8.9199 5.2402h.002c2.1378-.0013 4.3292.06219 6.5781.19727 5.2293 7.1948 6.3733 11.438 5.6289 17.17-.15892-1.862-.32007-4.4358-1.3438-6.1055.18363 1.67-.03142 3.1204-.12305 4.6562.12191-.92359.30179-2.6389.35742-3.5625.89966 2.1032.84491 5.3429.4375 9.877 1.5872-7.5776 2.5614-12.761-4.9473-22.035.76774.04623 1.5427.10091 2.3242.16406 6.3232 9.9476 5.9828 26.831 5.2598 36.674-.14239-2.5018-.42659-4.5431-.18555-8.291-.83124 5.2645-1.4887 10.996-3.8398 14.406.17541-2.2811-.05014-5.5237-.47461-6.9648.0452 2.8773-1.5273 5.7868-2.5039 6.5645-.15771-.7557.04499-1.5119.25195-2.2676-.75994 1.2281-1.3608 1.7297-2.0488 2.3828.62445-2.3326.77367-3.9732.80859-6.4531-1.051 2.4459-2.3229 4.3812-3.832 5.9023 0 .000652-.0029.0014-.0039.002-1.2428-.21874-2.5549-.39671-3.7207-.27344-1.234.10588-2.2754.31937-3.1562.61328l-.02344-1.002c1.2967-.70783 2.6027-1.5224 3.9609-2.4746.15828-.12246.47121-.53719.56641-.75195l4.1992-10.596-4.5078 10.436c-.13017.29002-.42362.77649-.70703.95508-3.561 2.5284-7.1395 4.3204-12.029 5.6309-2.6866.34448-9.16-.3966-10.998-.875-.68478-.65594-1.1456-1.6075-1.6191-2.3496-1.5627-2.1443-2.3004-3.137-3.7285-3.6445-.34815-.10229-.64574-.23708-.96289-.22656-1.2573.14902-2.2359.94685-3.1855 1.4863-2.2814-11.11-2.4226-16.645-1.5352-21.387 1.3186-2.2529 2.72-3.9726 4.1797-5.3086-.14417.40867-.22511.56452-.33594.83984.26701-.52491.70063-1.1546.69922-1.5117-1.5173 1.5827-3.0615 3.0741-4.3984 5.2578.43171-2.0385 1.0485-3.9746 1.7578-6.2012-1.8392 5.3586-4.4645 10.369-.61133 28.443-.37136.19167-.7406.33166-1.125.36523-1.8495.09741-3.5519-.72475-5.6152-.26758-.41367.18653-1.4244.68256-2.291 2.2969l-1.2363-.2832c-.1708-.58054-.20437-1.1597-.27734-1.7402-.23681.70205-.52874 1.183-.87109 1.4629-.11748-1.6574-.20253-2.623-.59375-3.7207-.39583 1.2336-.79168 2.7992-1.1875 3.5625l-4.2344-.03906c.60151-1.3807.4737-3.1995.59375-4.8691-.38236 1.1364-.77904 2.22-1.291 2.8379 2.2884-9.1686 2.7453-18.744 3.9531-28.152 14.295-5.7023 29.07-10.815 47.986-10.83zm10.742 15.918c-.4493 2.8214-.68676 4.8494-2.2148 6.4531.44913-5.3964-.57391-7.8727-1.2676-9.5-.34821 4.0656-.1773 7.7067-2.7305 13.576-.0697-.02171-.11439-.33986-.1582-.67188-.0465.4905-.10658.9844 0 1.4238 1.7941-3.0243 2.5156-7.2158 3.127-13.457 1.2089 3.3369 1.0563 6.946.59375 10.172 1.5392-1.9564 2.4204-4.5288 2.6504-7.9961zm-1.7617-15.551c2.8825.23459 5.8601.58476 8.9434 1.0664-1.5845 2.2094-3.9582 3.8907-5.7207 5.209-.97578-2.8427-2.1095-4.8705-3.2227-6.2754zm-24.734 8.3477c-1.7614 4.8291-4.4962 9.6575-3.7051 14.486.20871-1.2465.0384-2.2713 1.0703-3.998-.17795 4.1993.14761 5.1035.51367 7.0078.69529-3.0154 1.888-5.8375 3.4043-8.6289-1.233 2.253-2.5051 4.5361-3.4434 7.5996-.596-2.3324-.26732-4.7384-.27734-6.8086-.44811.53299-.84269 1.1548-1.0684 2.0586.16765-3.9056 2.301-7.811 3.5059-11.717zm0 0c-1.8796 2.8408-2.9313 4.4179-4.248 7.3516-.20146-.20942-.40457-.40765-.61133-.59375.72215-2.0433 1.6013-3.6462 2.4258-5.4746-1.067 1.7865-1.9393 3.5663-2.5801 5.3398-.42511-.36774-.8621-.68279-1.3145-.9375 1.1884-1.5004 2.4775-2.9234 3.8945-4.4023-1.4491 1.4923-2.7623 2.8707-3.9805 4.3535-.82036-.44585-1.6898-.69168-2.627-.68164.15114-.37584.30501-.75324.46289-1.1367-.16282.35971-.338.74008-.51562 1.1387-.44906.0092-.91283.07708-1.3945.20898.10995-.15207.21938-.3055.33008-.45703-.11376.15279-.22641.30609-.33984.45898-1.9516.53778-4.1862 2.1316-6.8301 5.168.49092-2.0158 1.1407-3.5967 1.8223-5.6621-.95976 2.2736-1.5275 4.1159-1.9141 5.7676-.2535.29329-.51038.5979-.77148.91797.25387-.28418.50292-.55471.74805-.81641-.33463 1.4509-.5311 2.7572-.73047 4.082.42933-.77389.88904-1.5073 1.2129-2.4219-.0338 1.533.13918 2.9622.70117 4.1973 1.0452-4.1371 3.129-7.5381 5.4414-10.777.5387-.16971 1.0567-.26189 1.5566-.2832-.95284 2.1803-1.9675 4.934-2.1367 8.4121-2.3092.3127-4.5326 1.9936-5.3477 6.582l1.5762 1.4512c-.02991-.10521-.04267-.20336-.06836-.30664-.66797-6.502 3.9319-7.8883 8.2227-6.4082.52586.27424 1.0232.58131 1.4863.90625-.03134 1.7768.10852 3.1591-.875 5.3301-.61139 1.5101-2.3795 2.2939-3.8105 2.4004-2.1429.13494-4.0668-1.4486-4.5254-2.6113.69827 1.7744 2.5882 3.049 4.5527 2.8906 1.9724-.15913 5.0871-.89673 4.9258-7.082l-.01758-1.043.33398.15625c-.6388-.94675-3.5113-2.5823-6.3008-2.2773 1.4158-3.0835 2.9562-5.5407 4.7188-7.8008.4869.23409.96632.53106 1.4453.88086-.77957 2.2165-1.1972 4.4208-1.1855 6.6133.45886-2.0239 1.2016-4.0132 2.0742-5.9062.17545.15024.35261.30646.5293.46875-.1623-.18962-.32682-.37349-.49219-.54883 1.2788-2.7592 2.8258-5.3078 4.1562-7.4473zm-8.5781 3.8184c.323-.71365.60704-1.3574.79883-1.9297-.26966.651-.53753 1.295-.79883 1.9297zm.79883-1.9297.29297-.75586-.54492.6582.36328-.39258zm9.0625 6.9785c.13887-.16985.27168-.37121.43555-.41602-.20962 1.9402-.34451 4.2767-.17773 6.3555.36398-1.8833.48666-4.9067 2.0703-8.1172-.45021 3.1312-.96319 6.1862-.20312 9.2383.28436 1.1418.74845 2.5992 1.459 3.7441 1.9618-1.7664 2.969-4.2251 3.3711-6.123.29948.55097.23957 1.6118.35547 2.377 1.6565-2.6668 2.6522-6.7354 2.7422-12.162.48487 1.4546.90442 3.0948 1.2461 4.7285-.34917.2334-.69698.47212-1.0469.69141.35181-.21552.70301-.44285 1.0547-.66016.44399 2.129.74408 4.2211.89062 5.8984-2.412-.5545-4.2231.85085-6.0859 3.5449.38772-.31764.7072-.56634 1.0762-.86523-.74069 1.5684-.97345 3.9272-.58008 5.0469.56948 1.239 1.841 1.8185 3.0508 1.7031 2.2003-.19739 3.8661-2.2189 4.2461-5.0723-.52266 2.0108-1.7533 4.9144-4.9414 4.8438-.37129-.02369-.80431-.14915-1.2031-.38476-1.6776-1.1772-1.2659-3.7271-.69726-5.502.13616-.35166.2816-.64531.46484-.9082.4804-.38735.9961-.8118 1.4277-1.1504 3.481-1.8802 6.6325.70487 6.082 4.8105-.09038.67413-.494.99307-.78516 1.7617l1.584-1.3809c.15864-2.7957-.61119-4.531-1.5703-5.4824.66396-2.2469 1.038-4.9298 1.3262-7.7402.29084.13293.58501.31815.88477.56445.39409 3.2261.5261 7.713-.04102 11.018.86012-.8694 1.5094-2.0839 1.959-3.625.056.26316.11199.34853.16797.51758-.0507-.35512-.05751-.75344-.07031-1.1465-.32518 1.3773-1.0184 2.7283-1.6934 3.2324.16354-3.1625.23717-6.3544-.11914-9.8203.84737.76978 1.7344 2.0367 2.6758 4.002-.94616-2.244-1.8476-3.6261-2.7188-4.4141-.2117-1.8889-.55497-3.862-1.082-5.957.0349 1.6198.0097 3.4272-.09766 5.2246-1.3925-.49175-2.7192.29666-4.041 1.1758-.45012-2.2538-1.0419-4.6786-1.7578-6.873.55654 5.1916-.48528 11.569-2.2969 13.875.0742-1.4381-.09363-1.8679-.47461-2.4551-.23836 2.5509-2.3067 5.8359-3.2715 6.2656-.518-.77819-.95265-2.1972-1.2363-3.0508-.81335-2.4472-.6159-5.4666.19726-10.555-.9506 1.8763-1.5853 4.1503-2.1797 6.3828-.0935-1.093.13052-2.771.25195-4.2266-.27184.32498-.45211.71067-.64844 1.0859zm15.854-3.9395c.21055.65167.40832 1.6555.57031 2.8652-.2685-.21471-.53364-.37376-.79688-.48633.0789-.78768.15325-1.5829.22656-2.3789zm-26.137.4082c.82794.0052 1.612.20257 2.377.55664-1.6524 2.0467-3.1316 4.3111-4.5391 7.3457-.15202-2.1022.75665-4.8558 1.9668-7.9004.065-.002.13084-.002.19531-.002zm-1.8398.29492c-2.334 3.1661-4.514 6.382-5.3086 10.043-.64075-.75976-.59894-2.4469-.75586-3.8633-.31289.70568-.5819 1.4562-1.0293 2.0273.14359-1.3072.34244-2.4008.57812-3.3887 2.5734-2.7309 4.6734-4.2314 6.5156-4.8184zm5.918 1.3066c.21067.159.42153.32954.63281.50781-.52138 1.1681-1.0858 2.5513-1.7598 4.3105.26656-1.9239.66211-3.469 1.127-4.8184zm20.506.42969v.002c.0318-.000359.0637-.000359.0957 0 .34101.0059.68752.07001 1.0391.20898-.18941 2.8756-.5965 5.693-1.2988 7.6855-.52847-.4728-1.1535-.71941-1.8047-.81836-.13804-1.5172-.43967-3.642-.9082-5.9941.9425-.57585 1.8903-1.0702 2.877-1.084zm-15.086 20.963c-.92542.0052-1.8518.10434-2.8066.27148-.23988.05524-.3323.078-.35547.32422-.0504.69434.45429 1.4594.72266 2.0078l-.05859-.13867c-.25388-.65821-.46295-1.1726-.45703-1.5605.0125-.31238.13172-.30591.32227-.33789 1.4453-.2164 2.8844-.50919 5.1973-.03516.10403.03197.17235.09394.17969.24024.0318.6526-.19662 1.1898-.43359 1.7734.28725-.56884.61902-1.2064.71875-1.8535h.002c.02231-.07755.17356-.26988.27148-.3418-1.2079-.27252-2.1916-.31039-3.3027-.34961zm-15.076 1.0156c.51178-.0066 1.0095.24287 1.3965.51758 1.1828.85869 2.574 2.6168 3.9707 4.793.35621.63587.77762 1.2937 1.2285 1.7363 1.0703 1.044 2.5947 2.0552 3.0273 3.1699.36056.94288-1.6683 4.395-2.959 6.3203.32373-.99227.16711-2.0572-.75391-3.127-.53501-.69172-1.3222-1.2187-2.2656-1.5898-1.1686-.44036-2.5965-.64517-3.6836-.67969-.53526-.01464-1.0803.0013-1.627.04492-1.4114-7.9731.43974-9.0588 2.459-9.0508 1.1388.13496 2.2192 1.0384 2.7344 2.9004.51834 1.8735.30933 3.1728.11719 6.7852.30884-2.1597.78631-4.5024.0059-7.1152-.81596-2.3239-1.9918-2.7852-3.0957-2.7852-.30908.000021-.6121.03643-.90039.07813-1.8054.344-2.799 2.9476-1.3242 9.1875-.57081.04564-1.1417.12148-1.7051.22852-.44145.08387-.86494.18901-1.2676.3125.0744-6.2377-1.8652-8.7549-3.6992-8.6152-1.322.16003-2.8586.50652-3.1445 3.9844-.0716 2.7294 1.4273 5.7868 2.4922 7.3613-1.929-3.2851-2.2629-5.3046-2.252-7.25.0109-1.9319.77775-3.2383 1.8418-3.666 1.9485-.53553 4.3972-.28092 4.7598 8.1855-.4123.12656-.80288.27339-1.1719.4375.28885-.26035.32278-.84423.19727-1.2812-.0913.20896-.29736.34362-.52539.34375-.31698 0-.57422-.25724-.57422-.57422s.25724-.57422.57422-.57422c-.23124-.22068-.49665-.25356-.71875-.16016-.4891.22646-.47915 1.0443-.30273 1.5156.16792.44868.5944.93498 1.0703.85938-.94747.45873-1.737 1.0399-2.3418 1.7031-.6341.69531-1.0654 1.4816-1.2676 2.3164-.25395.84691-.26206 1.5728-.08398 2.1914-1.999-1.2929-5.0819-2.586-5.2695-3.8789-.17508-1.1801.79116-2.7656 1.4629-4.1953.22674-.38071.21148-.6278.22266-1.0234.11212-3.8862 1.6061-6.8539 3.2129-7.6289.78535-.28914 2.8493-.03022 4.2344.16016 2.5452.4573 3.561-1.1224 5.4121-1.8379.16976-.06749.34307-.09748.51367-.09961zm25.432 3.7812-.0625.9707c-.29673.12412-.55708.24111-.83984.32813l-1.3379-.20703c.74959-.33183 1.494-.69501 2.2402-1.0918zm3.7578.36133c1.1748-.009 2.446.2907 3.4922.75.74014.32988 1.4426.76344 2.0996 1.3047 1.6465 1.3563 3.015 3.3397 4.082 5.5469 2.134 4.4145 3.0568 9.7367 2.7891 12.559v.0098c-.25907 4.212-2.0228 8.252-4.584 12.084-.30486.5743-.7083 1.2864-1.0371 1.8594-3.1584 4.2699-7.193 8.2509-11.076 11.9-2.4291 2.122-5.2146 3.9905-7.7734 5.4609-.90145.47439-1.9143.91082-2.748 1.3223-3.0131 1.4868-6.7198 2.5184-10.113 2.666-3.6048.15678-6.8236-.68277-8.5625-2.9297-.69896-.9189-1.239-2.3708-1.1328-3.5039.1676-1.5554 1.0341-3.0397 2.2012-4.2148 1.0479-1.0551 2.3374-1.8548 3.5312-2.2402.89747-.24605 2.471-.48338 3.582-.58399 2.0629-.18933 4.2107-.41709 8.6113-2.6348h.002c1.4298-.76426 4.2083-3.1134 6.4961-5.6094s4.5501-5.3729 5.8672-7.6641c1.71-2.9749 3.1037-5.6844 3.416-8.8145.12634-.87597-.13422-2.5463-.81059-4.3223-.61383-1.6118-1.5728-3.305-2.9121-4.5332-.22693-.22245-.44073-.38144-.71484-.50586-.55346-.24976-1.1088-.38178-1.6387-.50586l-1.0918-.69141c.41843-1.5383.85716-2.9982 1.6797-3.9629.43211-.49091.98215-.95013 1.6953-1.3418.74148-.35234 1.5664-.92164 3.8574-1.3477.25683-.03695.52188-.05454.79297-.05664zm-6.0371.95898.62891.20898c-.55358.35764-1.0089.75863-1.3848 1.1855-1.1437 1.2993-1.5354 2.8138-1.7695 4.0137l-3.4121-2.166c-.11935-.06929-.18596-.09888-.23047-.0957-.0445.0032-.06732.03936-.10156.10156l-.052734.11328c-.009-.46517.04444-.92319.14062-1.2949 2.195-.43382 4.1513-1.1922 6.1758-2.0566zm-16.277 1.375 2.0508.23633c.15873.56164.08714 1.0386.05664 1.5293-.8693-.55031-1.5964-1.154-2.1074-1.7656zm2.4219.13867c2.7132.27318 5.1363.42172 7.209.375-.0925.76421.01846 1.3932.03906 2.082l-1.5723 3.3691 1.8945-3.5996c.0668-.17687.11975-.08932.25586-.0059l5.7109 3.5215c.16244.08016.12637.09971.05078.24805l-.99805 1.959c-.0535.1148-.04689.11976-.13672.03516l-4.5293-4.2656c-.18008-.15193-.21127-.18422-.29883-.07422l-1.9082 2.375c-.0768.0708-.06836.12582-.06836.22461v.64453l.04492-.60156c-.006-.10022.02068-.13555.08398-.20508l1.7695-1.9453c.17661-.20947.13504-.16705.32031.01367l4 3.9023-3.9297 9.2871-9.1289-9.4844 9.0234 9.7344-.51758 1.2207c-.16744.32241-.15126.60254-.14648.95312l.1875 13.748c-1.4554 1.4072-3.2572 2.7394-4.1758 3.2305-4.3849 2.2095-6.5014 2.4289-8.5527 2.6172-1.1455.0212-2.2969.27581-3.2637.32812-.62286-.16857-1.3225-.49127-1.4609-.9375-.14763-.47586.34397-1.0182 1.1074-1.207-.0723.0106-.15414.0291-.24219.0527-.45932-.55911-.21889-3.9552-.95898-5.3809-.0554-.106-.11837-.24789-.14648-.36719-.0987-.6274.02175-1.0355.14648-1.4395.0268-.09979-.04809-.20366-.16016-.25-.16513-.04708-.31348-.07972-.43945-.21484-.0497-.05728-.22906-.14949-.0918-.37305.87736-1.2857 1.5438-2.6324 2.6816-3.8438l-.46484.05469c-.38496-.41273.27897-2.2058.41992-3.1797.5612-.1648 1.1017-.36859 1.584-.57422.82915-.36382 1.5571-.91327 1.9121-1.998.0633-.24752.06378-.47025.01758-.66406.0611.0069 1.0133.11578 1.6152.32812 1.0334.35095 1.9059.32486 2.8652-.10547 1.5114-.68209 2.337-2.4716 2.6484-3.8633.21622-1.6596-.52414-3.4319-2.4805-4.8203 2.0973 1.7126 2.5176 3.4436 2.2207 4.8789-.28657 1.3272-1.1022 2.9441-2.6426 3.5977-.6468.28132-1.3857.4053-2.0488.18555-.78837-.22946-2.2246-.55032-2.3496-.57812-.20501-.27746-.54024-.4216-.89063-.37695-1.6095.23716-2.7666.67168-3.5176.83203-.65569.08613-2.2837-.075-3.2793.28516-.31128.09306-.51816.30498-.59961.58789-.0466.20574-.06549.41052-.05859.60742-.3497-.0059-.86444.21752-1.4023.375-.96268.28115-1.9245.36176-2.9883.17188-.51316-.10588-1.1437-.31793-1.6465-.62695-1.3963-.85974-2.1928-2.0768-2.2422-3.7383-.15166-2.1328 1.4942-4.2695 2.5898-4.8203.48913 1.0842 1.6002 1.7939 2.9258 2.2305.18879.50114.33152 1.0023.60352 1.4648.13538.22965.39398.58847.61328.71094 0 0-.14352-.51011-.17773-.77344-.0207-.13402-.03064-.26556-.02344-.39062.0197-.28721.11559-.50918.27539-.67969 1.7388.33656 3.609.30766 4.8633.09375 1.0474-.17861 2.4016-.67273 3.6641-1.3867v-.002h.002c.24242-.15189.8375-.5117 1.0527-.67383.68135.3297.77154.86281.94141 1.625.03742-.06853.06903-.14308.0957-.2207.07105-.17233.09522-.33014.11328-.58984.04151-.5363-.03473-1.141-.0957-1.6445.33724-.36752.7818-.83619.90625-1.0547l.002-.002c.22617-.32687.40493-.6652.52539-1.0137.0754-.10906.14743-.21352.2207-.32031.0122.0059.94702.45073 1.7578.90039-.74984-.42923-1.6889-.94559-1.7168-.96094 1.0262-1.4977 1.8685-2.8081 2.9805-4.6484l4.6953 1.1016-4.582-1.2988c.19709-.41009.22939-1.0394.12891-1.4766l4.4531 2.7754c-1.5897-1.3621-3.7756-2.3415-5.2812-3.8867.0157-.81108.03853-1.5445-.0039-2.1641zm-9.3906 2.0098c-.70202.08152-.7839 1.0041-.73828 1.416.0657.49897.40044 1.1036.92383 1.0801.49238-.02209.73764-.72392.70898-1.2695-.13599.18305-.36763.26801-.58984.2168-.30885-.0714-.50112-.37865-.42969-.6875.0714-.30882.37867-.50107.6875-.42969-.1189-.14586-.32814-.31982-.5625-.32617zm-13.812 1.0117c-.26694.77224-.69723 1.5521-.9668 2.2109-.32655-.01412-.85832-.03787-.94336-.03906zm13.438 1.5195c.14129-.000653.28448.000226.43164.0039 1.8721.10339 3.822.44643 5.2324 1.5547 4.389 4.2117-2.4793 7.9535-5.875 8.5254-3.3528.5647-10.966.23912-8.5352-6.0527.18039-.47439.48598-.84111.79492-1.1797 1.4732-1.4639 3.1131-2.1937 5.0488-2.5742 1.0451-.15744 1.9134-.27061 2.9023-.27734zm23.139.64844c.36402.09237.73111.20286 1.0957.36133.30385.10846.54831.3305.76367.5293 1.3001 1.2033 2.2402 2.8647 2.8438 4.4492.66932 1.7575.92068 3.4267.80274 4.2422v.0039c-.12902 1.2966-.44588 2.5217-.89648 3.7266l-.10156-.22461c-.0286-.0876-.07624-.05464-.13477-.0332l-6.957 2.5215c-.22749.05584-.20348.10262-.20117.32031l.0957 8.9082c-.34641.3974-.69594.78902-1.0469 1.1719-.71274.7776-1.4296 1.5181-2.1191 2.1914l-.03711-13.521c-.007-.28495-.02408-.60182.07422-.83984l4.4512-10.811.50976.49805c.1315.14661.1249.11538.20898-.04492l1.3887-2.6484c.12316-.24242.09006-.27149-.02734-.34766zm-37.557.08398c-.26073.64728-.4803 1.3131-.60352 2.0215-.0913.60742-.19474.87303.16992 1.3438.93889 1.2005 3.5507 2.2011 5.541 3.2754.0331.11118.07235.21797.11719.32227-.68222.16937-2.6227 2.0251-2.9316 4.8418-.0554 1.6806.73477 2.997 2.2637 3.9941.93719.6094 2.0093.6624 3.25.77734.35822-.0032.65553-.02895.95117-.0918.0138 1.3667.09201 3.447-.30859 4.9492-.18155.76503-1.6908 2.9838-2.5469 4.4766.95658-1.4741 2.2781-2.9478 2.7715-4.4219.1929-.57317.27658-1.3461.28906-2.1543.002-.16267.05393-.58781.11719-.7793l.13672.17188c.20894.29186.34676.63496.44336.9375.53031 1.6622.9326 3.2164.69336 3.1855-.1695-.0187-.35379-.2792-.56055-.52148.18016.42125.47401.83864.64453.89648.8633.12333-1.3339-5.54-1.6777-6.7402.30139-.06415.60012-.16654.95898-.32031.29924-.08538.67975-.204 1.2559-.16602.10717.5291.41796.97798.9043 1.2344.4926.26893 1.0426.40156 1.5938.44336.79081.04629 1.643-.10758 2.4512-.34375-.32705 1.2003-.90069 2.4355-.75586 3.5684-.96669 1.215-1.6833 2.4719-2.4355 3.7227.25494.1628.53042.34923.89844.4668.0741.02229.10857.12275.08984.22461-.12263.59515-.12674 1.0429-.10742 1.5.023.27645.15076.45544.23242.66602.19627.51329.32183 1.4157.41797 2.3125-1.8461-.15463-4.1294-1.6773-4.5898-2.8887l.8125-.01758 1.8594-2.0586-2.0586 1.7031-3.4434.07813c-2.0365 1.355-5.5781 3.7438-6.9258 3.6816-2.7395-.56233-5.6014-2.7482-7.5605-4.0293-.58925-.29265-.67553-.52661-.68359-1.1055-.02333-1.6767-.04503-3.3221-.06836-5.2754.5284-1.8255 1.8493-3.3539 3.2051-4.8691.7307-3.358 2.0383-7.4827 2.1777-10.053.0209-.43183-.2085-.81613-.90625-1.5898-.28859-.31016-.16406-.75391-.16406-.75391.91762-2.2041 1.9823-2.4087 4.082-2.6152zm29.99 1.8613c-.065-.0026-.13913.01193-.22266.05273-.38185.18626-.19606 1.0963.06836 1.5898.26438.49356.89563 1.23 1.0547 2.3594.15905 1.1294-.01193 1.8852.13672 2.0781.22253.30969.47883.74652.84961 1.9043.0406-.66814-.47034-1.5187-.70898-1.9922-.1698-.27873.04986-.74244-.08594-1.916-.13588-1.1736-1.3117-2.6273-1.3223-3.2637-.0105-.63639.57812-.58203.57812-.58203s-.11552-.22214-.34766-.23047zm-13.939 1.2578c-.59492.01386-1.1812.40833-1.125 1.2559-.0498-1.1175 1.3408-1.6938 2.2051-.68945-.19338-.37792-.63912-.57669-1.0801-.56641zm-6.0117 1.0352c-.59488.01386-1.1811.40845-1.125 1.2559-.0496-1.1174 1.3409-1.6938 2.2051-.68945-.19338-.37793-.63912-.57669-1.0801-.56641zm27.035 1.8223c-.34718-.0189-.61213.68432-.28711.86133l4.0391 2.0195-3.9395-2.1973c-.2116-.11169.02272-.54025.25781-.43555l4.2754 2.3945-4.2363-2.6113c-.0371-.01883-.0734-.02929-.10938-.03125zm-17.023.82812c.18792 1.16.146 1.8489-.05664 2.3516-.0632-.46005-.17372-.81337-.32812-1.0703-.15389-.2561-.35189-.41667-.58398-.49805.34459-.24557.67084-.50737.96875-.7832zm-.12109 2.2363c-.0014.000041-.0025.0019-.0039.002.0015-.000039.0021.000032.0039 0zm-11.719.2168c.38782.12565.79355.22702 1.207.30859-.15674.17492-.25385.4004-.27344.68555-.0205.2991.04416.66508.19727 1.1035-.41289-.35842-.76681-.9599-1.1309-2.0977zm33.664 3.9941c.039.000359.06373.0301.08203.07813l.08984.20508c-.52183 1.3261-1.2005 2.6335-1.9629 3.9883l-3.3945 1.2285c-.16771-1.6702-.46564-2.4953-.83008-2.4883-.0521.0013-.10554.01977-.16016.05469.47185.23702.74731 1.306.6875 2.5234-.006.13809.02833.20236.19336.14062l3.25-1.0117c-.0543.0952-.10902.19135-.16406.28711-.67193 1.169-1.5952 2.4968-2.6445 3.8496-.0443-.99386-.19039-1.6846-.33203-2.2461.0779.92137.21895 1.9135.07227 2.5781-.60117.76248-1.2391 1.5299-1.8906 2.2773l.13281-8.7148c-.0161-.16984.02535-.16651.17383-.22266l6.6543-2.5176c.0166-.0069.02997-.0098.04297-.0098zm-23.332.15625c.56835-.008.99686.58826.82617 1.25-.10802.40704-.29898.78182-.58398 1.1133-.50772.59045-1.3173 1.0465-2.5078 1.3184-1.1528.2977-2.2514.47007-3.1406.375-1.2105-.24619-2.1589-.93548-2.0039-2.1562.0527-.37507.26677-.67923.70898-.83984.83445-.31534 2.2679-.02524 3.3027-.28125.875-.21644 1.7432-.53079 2.6543-.68945.26364-.03897.50296-.08581.74414-.08984zm4.9316 3.3125c-1.8282.0084-3.3801.08474-4.2168.33594-.10231.01569-.1329.06832-.17383.14844-.4867.95361-.63621 1.7378-.50195 2.8613.0147.18234.01566.18281.18164.17969 4.3927-.0826 7.5134-.21617 11.266-.47852.17689-.0076.19579.008.21484-.1582.0956-.8369.01086-1.7233-.57617-2.7422-.0248-.04453-.08901-.07368-.12891-.07422-1.7427-.01432-3.6309-.06573-5.3418-.07227-.24441-.000654-.48649-.0014-.72266 0zm2.0625.18946c2.0876.000534 3.9168.06874 4.0273.14062.2764.62504.6344 1.1336.50976 2.3379-.004.11764-.01771.1358-.12305.14062-3.6428.16828-5.9027.53828-10.957.42383-.19726.0092-.19846-.01715-.22852-.19336-.16508-.97675.31046-1.826.54492-2.3848.43233-.35456 3.5425-.46565 6.2266-.46484zm3.8691 3.3457c-.19508 1.5008-.32991 4.2789.11719 5.7031.13114.41773.20117.81032.11914 1.2441-.30339.73244-5.9313.79456-9.7793.63867-.10751-.003-.12131.02374-.1582-.06836-.25577-.73459.18651-4.3823-.19531-6.0332.18678 2.204-.287 5.8705-.0332 6.4102.0313.0704.086.06446.14844.06836 3.2718.20319 6.5514.38309 10.215-.53906.1015-.0395.16793-.11198.17383-.20898.0347-.8264-.36651-1.6718-.43359-2.2852-.22686-2.0739-.08432-3.2222-.17383-4.9297zm-6.1504 1.4277c-.0905 1.9388-.12223 3.6486-.13867 5.291.19422-1.5666.38204-3.141.13867-5.291zm2.3789.22461c-.13563 1.6994-.22179 3.4151.08398 5.2617.19406-1.754.09202-3.5077-.08398-5.2617zm31.717 3.1934c.37325-.0039.68396.03685.89062.13672 1.1838.72726 2.3486 1.483 2.9062 2.8887.074.21597-.01487.60899-.24609.61915-.19229.005-.35009-.0342-.5332-.12696-1.0424-.52826-1.3081-1.4968-2.3652-2.4844.77762 1.214 1.314 1.6427 1.3946 3.2414 0 .0657-.05627.0962-.125.10156-1.2071.007-2.4777-2.4913-4.0938-2.843-.42337-.10645-.96891-.15857-1.5625-.17578-.12256-.003-.24726-.0039-.37305-.0059.0398-.35574.11406-.42901.26758-.50586 1.046-.42101 2.7201-.83396 3.8398-.8457zm-5.3086.31445c.0187-.00036.03909-.00036.05859 0 .43786.0068.89681.15233 1.377.43359-.022.0092-.04511.01812-.06641.02734-.12604.07962-.19256.36743-.17188.57617-.10552-.00065-.21144-.001-.31836 0-.65907.007-1.3324.04419-1.9316.08789.24078-.32404.47665-.64912.70703-.97656.10043-.1217.21418-.14597.3457-.14844zm.9375 1.0762c.0982-.00066.19603-.00066.29297 0 .11577.00065.22887.0029.3418.0059.8422.0244 1.5906.12124 2.0117.33789.006.003.01178.0048.01758.0078.0191.0102.03699.02045.05469.03125 1.0589.61552 2.0092 1.997 3.0801 2.6602.52423.23291.76982.0704.73052-.34656-.0773-.7951-.14229-1.0466-.44928-1.5383.5512.52688.96623 1.0341 1.6875 1.1816 4.2785 3.58 7.3275 7.4454 7.1973 11.686-.32201 5.7875-5.8324 9.734-10.932 10.949-6.3432 1.0295-13.774-4.5232-18.199-3.4395-1.4004.27569-5.114 1.0831-5.4316 3.5586-.11397.90548.40301 1.8956.63867 2.3066.23561.411.93801 1.0359.23828.63476-.96268-.50525-1.5023-1.3337-1.7656-2.3867-.32951-2.7189 1.2113-6.611 3.8379-8.1934.95162-.51717 4.2498-2.1476 8.0762-1.5449 2.9703.70468 6.0824 1.8812 8.9062 2.0977 1.9552.2338 6.1515-1.6612 6.332-4.1152.0813-1.4968-3.3447-3.849-6.6094-3.8789-.99184.0433-2.2698.0324-2.6562.0566-.0584-.14587-.12682-.28875-.20508-.42773l1.9395-1.502c.1493-.11018.21203-.19551.16797-.47265-.24039-1.5151-.3984-3.5424-.81445-3.9121-.71936-.64236-1.6628-.7538-2.6074-1.0274.73029-.86592 1.4333-1.7465 2.0977-2.6387.62404-.046 1.3342-.08484 2.0215-.08984zm-4.2227 2.8535c.36805.075 1.7445.44898 2.0957.66797.67721.35644.62528.58191.70703.82227.18536.73879.39158 2.3609.54102 3.2344.0242.17298-.02089.24609-.10547.31641l-3.7051 2.8984c-.22245.15461-.233.11844-.24023-.0117-.047-1.0544-.08062-2.2086-.22461-2.8633-.009-.0647-.0304-.12015-.0625-.16992-.23713-.31681-1.22-.58469-1.7246-.77149l.05664.13867c.49231.23823 1.4121.44174 1.5391.83985.20825.70161.19856 1.783.20312 2.8105.005.35398.15584.42662.33594.29688l1.8242-1.4062c.25232.8494.4599 1.796-.08789 2.5547-1.0239 1.1297-3.7006 2.4116-6.1484 3.207-2.8064-.0528-5.8289.59872-8.1426 2.3066-2.0485.63521-3.873 1.1762-4.9102 1.0781-.91805-.17254.29492-.78701.55078-.92773 2.7989-1.5402 5.962-3.5995 8.6875-5.9805l.002-.002h.002c2.9988-2.8184 6.0932-5.8382 8.8066-9.0391zm-2.8262 5.6562c-.16826 1.5994-.07988 2.9764-.08008 4.4316.0401-1.453.15813-2.7658.08008-4.4316zm6.8496 1.6992c2.1551-.0244 6.6248 2.1891 6.4707 3.8418-.18248 1.3795-2.8813 3.4962-5.8594 3.5625-1.6712.075-5.9118-1.2998-8.8047-2.0957 2.0517-.73645 4.1701-1.5864 5.5996-2.9902.48958-.42412.56508-1.3516.27148-2.2422.79903-.0455 1.6002-.0621 2.3223-.0762z"/></svg>