<svg xmlns="http://www.w3.org/2000/svg" width="292" height="18.394" viewBox="0 0 77.258 4.867"><path fill="currentColor" fill-rule="evenodd" d="M13.949 3.777H3.295c-.954 0-1.378-.43-1.378-1.35V.37H.264v2.056c0 1.331 1.154 2.065 2.255 2.065h11.43zM31.145.37v3.407h-9.74c-.953 0-1.377-.43-1.377-1.35V.37h-1.653v2.056c0 1.331 1.153 2.065 2.255 2.065h12.168V.37zm20.361 3.407H40.275c-.954 0-1.378-.43-1.378-1.35 0-.93.424-1.344 1.378-1.344h11.231V.37H39.499c-1.101 0-2.255.73-2.255 2.056 0 1.331 1.153 2.065 2.255 2.065h12.007zM74.739.37c1.1 0 2.254.73 2.254 2.056 0 1.331-1.153 2.065-2.254 2.065H62.406V.37zm.602 2.056c0-.928-.425-1.343-1.378-1.343h-9.904v2.694h9.904c.953 0 1.378-.43 1.378-1.35m-19.19 2.177h1.609V.266h-1.61z"/></svg>