<svg xmlns="http://www.w3.org/2000/svg" id="svg3725" width="292" height="18.394" viewBox="0 0 77.258 4.867"><g id="layer1" transform="translate(105.644 -162.766)"><path id="path3695" d="M-91.695 166.543h-10.654c-.954 0-1.378-.43-1.378-1.35v-2.057h-1.653v2.056c0 1.331 1.154 2.065 2.255 2.065h11.43zm17.196-3.407v3.407h-9.74c-.953 0-1.377-.43-1.377-1.35v-2.057h-1.653v2.056c0 1.331 1.153 2.065 2.255 2.065h12.168v-4.121zm20.361 3.407h-11.231c-.954 0-1.378-.43-1.378-1.35 0-.93.424-1.344 1.378-1.344h11.231v-.713h-12.007c-1.101 0-2.255.73-2.255 2.056 0 1.331 1.153 2.065 2.255 2.065h12.007zm23.233-3.407c1.1 0 2.254.73 2.254 2.056 0 1.331-1.153 2.065-2.254 2.065h-12.333v-4.121zm.602 2.056c0-.928-.425-1.343-1.378-1.343h-9.904v2.694h9.904c.953 0 1.378-.43 1.378-1.35m-19.19 2.177h1.609v-4.338h-1.61z" fill-rule="evenodd" stroke-width=".26458332"/></g></svg>