<svg height="64" viewBox="0 0 64 64" width="64" xmlns="http://www.w3.org/2000/svg"><g fill="none" fill-rule="evenodd"><path d="m0 0h64v64h-64z" fill="#8c4fff"/><path d="m38.001 31.5a1.5 1.5 0 1 0 -.001-3.001 1.5 1.5 0 0 0 0 3.001m-17 .5h2v-1h1v-2h-1v-1h-2v1h-1v2h1zm21.001 7.813v-5.354a5.97 5.97 0 0 1 -6.238 1.104l.009.019c1.06 2.556 2.664 6.418 4.386 6.418.546 0 .953-.145 1.245-.441.508-.518.604-1.436.598-1.746m-17.773-4.229.008-.021a6 6 0 0 1 -2.236.437 5.97 5.97 0 0 1 -3.999-1.54v5.328c-.006.335.09 1.253.598 1.771.291.297.698.441 1.244.441 1.722 0 3.325-3.861 4.385-6.416m-6.228-5.584c0 2.205 1.794 4 4 4s4-1.795 4-4-1.794-4-4-4-4 1.794-4 4m14 0c0-1.094.299-2.116.812-3h-5.624a5.96 5.96 0 0 1 0 6h5.624a5.96 5.96 0 0 1 -.812-3m2 0c0 2.205 1.794 4 4 4s4-1.795 4-4-1.794-4-4-4-4 1.794-4 4m8.845 12.945c-.669.69-1.599 1.055-2.687 1.055-3.057 0-4.818-4.242-6.233-7.651-.199-.478-.389-.935-.57-1.349h-6.71c-.182.415-.371.871-.57 1.35-1.414 3.409-3.175 7.65-6.232 7.65-1.088 0-2.018-.365-2.687-1.055-1.18-1.218-1.161-2.99-1.155-3.188l-.001-9.757c0-3.309 2.691-6 6-6 1.223 0 2.36.369 3.31 1h9.38c.95-.631 2.087-1 3.31-1 3.309 0 6 2.691 6 6l.001 9.788c.006.167.024 1.939-1.156 3.157m-20.845-30.945c5.514 0 10 4.486 10 10h2c0-6.617-5.383-12-12-12s-12 5.383-12 12c0 3.336 1.337 6.435 3.764 8.727l1.373-1.454a9.9 9.9 0 0 1 -3.137-7.273c0-5.514 4.486-10 10-10m-10.324 24.534 1.492 1.331-2.319 2.601a1 1 0 0 1 -.718.334l-.028.001a1 1 0 0 1 -.707-.293l-5.903-5.903a1 1 0 0 1 .041-1.453l1.983-1.768a18.7 18.7 0 0 1 -1.805-4.364l-2.655.152a1 1 0 0 1 -1.057-.998v-8.348a1 1 0 0 1 1.057-.998l2.663.152a18.7 18.7 0 0 1 1.807-4.353l-1.993-1.779a1 1 0 0 1 -.041-1.453l5.903-5.903a.998.998 0 0 1 1.453.042l1.777 1.992a18.8 18.8 0 0 1 4.354-1.802l-.151-2.668a1 1 0 0 1 .998-1.056h8.347c.275 0 .538.113.726.313.19.2.288.469.272.744l-.151 2.669a18.8 18.8 0 0 1 4.35 1.804l1.781-1.996a1 1 0 0 1 .718-.334.97.97 0 0 1 .735.292l5.903 5.903a1 1 0 0 1 -.041 1.453l-1.99 1.775a18.8 18.8 0 0 1 1.806 4.357l2.66-.152a1 1 0 0 1 1.057.998l.001 5.175h-2l-.001-4.116-2.43.139c-.467.016-.924-.302-1.032-.778a16.8 16.8 0 0 0 -2.19-5.283 1 1 0 0 1 .179-1.281l1.818-1.622-4.406-4.405-1.626 1.824c-.326.365-.87.44-1.28.18a16.8 16.8 0 0 0 -5.279-2.188 1 1 0 0 1 -.777-1.033l.138-2.438h-6.229l.137 2.437a1 1 0 0 1 -.777 1.032 16.8 16.8 0 0 0 -5.282 2.186 1 1 0 0 1 -1.279-.18l-1.623-1.82-4.407 4.406 1.822 1.625a1 1 0 0 1 .179 1.28 16.8 16.8 0 0 0 -2.192 5.28c-.109.477-.586.794-1.032.778l-2.432-.139v6.23l2.425-.139c.453-.027.924.301 1.032.779a16.8 16.8 0 0 0 2.189 5.29c.26.414.184.955-.18 1.28l-1.81 1.615 4.405 4.405z" fill="#fff" transform="translate(10 10)"/></g></svg>