<svg height="64" viewBox="0 0 64 64" width="64" xmlns="http://www.w3.org/2000/svg"><g fill="none" fill-rule="evenodd"><path d="m0 0h64v64h-64z" fill="#ed7100"/><path d="m26 33h2v-2h-2zm-5 0h2v-2h-2zm-5 0h2v-2h-2zm-5 0h2v-2h-2zm36.987 4.921 1.569-.523-1.569-.523-.523-1.568-.523 1.568-1.568.523 1.568.523.523 1.568zm-18.37 2.739-.522 1.569-1.569.522 1.569.523.522 1.569.524-1.569 1.568-.523-1.568-.522zm0-20.226-.522 1.569-1.569.522 1.569.523.522 1.569.524-1.569 1.568-.523-1.568-.522zm3.329 11.511c2.821 1.969 4.827 5.602 5.72 10.372 1.65-2.237 4.018-6.177 4.018-10.372 0-4.205-2.121-7.929-4.009-10.412-.89 4.79-2.9 8.438-5.729 10.412m-2.437.919a1.001 1.001 0 0 1 0-1.838c3.488-1.496 5.858-5.858 6.504-11.968a1 1 0 0 1 1.736-.565c2.216 2.453 5.935 7.463 5.935 13.452 0 6.362-4.543 11.899-5.935 13.445a1 1 0 0 1 -1.052.282 1 1 0 0 1 -.685-.846c-.647-6.107-3.017-10.467-6.503-11.962m23.491-.864c0 10.477-8.523 19-19 19-9.318 0-17.198-6.659-18.737-15.834l1.972-.332c1.376 8.208 8.427 14.166 16.765 14.166 9.374 0 17-7.626 17-17s-7.626-17-17-17c-8.338 0-15.389 5.958-16.765 14.166l-1.972-.332c1.539-9.175 9.419-15.834 18.737-15.834 10.477 0 19 8.523 19 19" fill="#fff"/></g></svg>