<svg viewBox="0 0 24 24" xmlns="http://www.w3.org/2000/svg"><path d="m16.9246 18.9776h3.1342l-3.1342-3.7778zm-8.507-9.4221v6.6221h5.5072zm3.6266-9.5555c-6.6265 0-12.0442 5.3333-12.0442 11.9555 0 1.4666.2687 2.8888.7612 4.1777l4.6565-5.5555 2.6863-3.2444 6.537 7.8221 1.8805-2.2666 4.9252 5.8666h.403c1.388-1.9555 2.1491-4.311 2.1491-6.8444.0897-6.5777-5.328-11.911-11.9546-11.911zm-3.9849 6.2666c-.9402 0-1.6566-.7555-1.6566-1.6444s.7612-1.6444 1.6566-1.6444c.9403 0 1.6567.7555 1.6567 1.6444s-.7164 1.6444-1.6567 1.6444zm8.731 5.3777c-1.8358 0-3.3133-1.4666-3.3133-3.2888s1.4775-3.2889 3.3133-3.2889c1.8357 0 3.3133 1.4667 3.3133 3.2889.0447 1.8222-1.4776 3.2888-3.3133 3.2888zm-3.985 5.7334h-11.6411c.2686.5333.582 1.0222.8955 1.511h9.4473zm-8.3277 4.0443h14.9993c.4925-.4 1.0298-.8889 1.3432-1.2444h-17.6858c.4477.4444.8954.8889 1.3432 1.2444zm7.5668 2.5777c1.97 0 3.8506-.4444 5.5072-1.2889h-11.0145c1.6566.8446 3.4924 1.2892 5.5072 1.2892z"/></svg>