<svg xmlns="http://www.w3.org/2000/svg" fill="#ff2d55" viewBox="0 0 24 24"><path d="M16.925 18.978h3.134L16.925 15.2zM8.418 9.555v6.623h5.507zM12.044 0C5.418 0 0 5.333 0 11.955c0 1.467.269 2.89.761 4.178l4.657-5.555 2.686-3.245 6.537 7.822 1.88-2.266 4.926 5.866h.403c1.388-1.955 2.149-4.31 2.149-6.844C24.089 5.333 18.67 0 12.044 0M8.06 6.267c-.94 0-1.656-.756-1.656-1.645s.76-1.644 1.656-1.644c.94 0 1.657.755 1.657 1.644S9 6.267 8.059 6.267m8.731 5.377c-1.835 0-3.313-1.466-3.313-3.289s1.478-3.288 3.313-3.288a3.294 3.294 0 0 1 3.314 3.288c.044 1.823-1.478 3.29-3.314 3.29m-3.985 5.734H1.165c.268.533.581 1.022.895 1.51h9.447zm-8.327 4.044h14.999c.492-.4 1.03-.889 1.343-1.244H3.134c.448.444.896.888 1.343 1.244zM12.044 24c1.97 0 3.851-.445 5.508-1.29H6.537c1.657.845 3.493 1.29 5.507 1.29"/></svg>