<svg xmlns="http://www.w3.org/2000/svg" width="18" height="18" viewBox="0 0 18 18"><path fill="currentColor" d="M14.68 4.13v6.57l-5.64 3.29V7.42z"/><path fill="currentColor" d="m14.68 4.13-5.64 3.3-5.64-3.3L9.04.83z"/><path fill="currentColor" d="M9.04 7.43v6.56L3.4 10.7V4.13z"/><path fill="currentColor" d="m18 14.35-2.59-2.6a.14.14 0 0 0-.21 0v2H3.36a2 2 0 1 1 0-4h2.39a.68.68 0 0 0 .67-.68.67.67 0 0 0-.67-.67H3.36a3.36 3.36 0 0 0 0 6.72h11.8v2a.14.14 0 0 0 .21 0L18 14.53a.13.13 0 0 0 0-.18"/></svg>