<svg height="18" viewBox="0 0 18 18" width="18" xmlns="http://www.w3.org/2000/svg"><path d="m14.68 4.13v6.57l-5.64 3.29v-6.57z" fill="#773adc"/><path d="m14.68 4.13-5.64 3.3-5.64-3.3 5.64-3.3z" fill="#b796f9"/><path d="m9.04 7.43v6.56l-5.64-3.29v-6.57z" fill="#a67af4"/><path d="m6.06 7.52c-.74-.42-1.34-.08-1.34.77a2.93 2.93 0 0 0 1.34 2.31c.73.43 1.34.09 1.34-.76a3 3 0 0 0 -1.34-2.32" fill="#773adc"/><path d="m18 14.35-2.59-2.6a.14.14 0 0 0 -.21 0v2h-11.84a2 2 0 1 1 0-4h2.39a.68.68 0 0 0 .67-.68.67.67 0 0 0 -.67-.67h-2.39a3.36 3.36 0 0 0 0 6.72h11.8v2a.14.14 0 0 0 .21 0l2.63-2.59a.13.13 0 0 0 0-.18" fill="#32bedd"/></svg>