<svg xmlns="http://www.w3.org/2000/svg" width="778.336" height="1000" viewBox="0 0 205.935 264.583"><path fill="currentColor" d="M30.034 223.768v-19.091l-6.535 13.859-6.289-13.86v19.092h-5.18v-29.265h5.706l5.763 13.329 6.005-13.329h5.745v29.265m4.709 0h5.226v-29.264h-5.226zm19.054-24.826v24.826h-5.215v-24.826h-6.261v-4.44H65.3v4.44m9.669 25.624c-6.798 0-9.14-4.46-9.41-9.964h4.974c0 2.647 1.312 5.23 4.436 5.23 2.607 0 4.18-1.295 4.18-3.37 0-1.86-1.296-2.635-6.792-5.752-3.923-2.368-6.527-4.71-6.527-8.893 0-4.45 2.881-7.566 8.89-7.566 6.516 0 8.875 4.166 9.134 9.125h-5.208c0-2.348-1.298-4.714-3.927-4.714-2.362 0-3.66 1.074-3.66 2.889 0 2.084 1.562 3.127 5.73 5.236 4.71 2.632 7.581 4.692 7.581 9.426 0 5.468-4.422 8.353-9.401 8.353m21.772-.293c-4.685 0-10.18-1.825-10.18-9.672v-20.095h5.229V214.6c0 3.141 1.568 4.987 4.951 4.987 2.892 0 4.486-1.846 4.486-4.987v-20.095h5.2V214.6c0 7.595-5.2 9.672-9.686 9.672m22.226-13.309h-2.081v-4.696h2.081c2.618 0 4.17-1.042 4.17-3.65s-1.822-3.674-4.17-3.674h-3.913v20.393h4.17c2.867 0 4.702-1.309 4.702-4.446 0-2.885-1.835-3.927-4.959-3.927m1.562 12.806h-10.69v-29.262h9.665c5.468 0 8.854 2.604 8.854 7.31 0 3.906-2.842 6.275-4.169 6.524a7.405 7.405 0 0 1 5.219 7.325c0 4.688-3.643 8.103-8.88 8.103m57.988-.001v-12.806h-10.659v12.806h-5.506v-29.265h5.506V206h10.413v-11.497h5.489v29.265m-51.469 0h5.228v-29.264h-5.228zm56.434 0h5.226v-29.264h-5.226zm-38.403.244c-6.805 0-9.145-4.18-9.409-9.925h4.956c0 2.618 1.305 5.5 4.453 5.5 2.625 0 4.201-1.31 4.201-3.377 0-1.867-1.302-2.927-6.794-6.047-3.927-2.074-6.552-4.443-6.552-8.612 0-4.443 2.87-7.556 8.893-7.556 6.53 0 8.882 4.159 9.149 9.1h-4.96c-.283-2.586-1.592-4.682-4.19-4.682-2.084 0-3.663 1.032-3.663 2.868 0 1.814 1.579 2.888 5.762 5.253 4.692 2.576 7.57 4.426 7.57 9.423 0 5.184-4.446 8.055-9.416 8.055m-75.122 14.845c-3.92 0-6.312 4.435-6.312 10.51 0 6.036 2.392 10.227 6.312 10.227 3.95 0 6.332-4.19 6.332-10.227 0-6.075-2.381-10.51-6.332-10.51m0 25.726c-8.122 0-11.812-7.056-11.812-15.216 0-8.164 3.69-15.223 11.812-15.223 8.156 0 11.825 7.06 11.825 15.223 0 8.16-3.669 15.216-11.825 15.216m67.848-.777-8.661-15.741h1.56c1.844 0 5.005-.533 5.005-4.77 0-3.665-3.16-4.438-5.263-4.438h-3.15v24.95h-5.264V234.39h9.74c5.761 0 9.695 2.882 9.695 8.396 0 5.278-3.13 7.345-4.978 8.157l7.624 12.862m8.985.259c-6.833 0-9.193-4.173-9.475-9.983h5.002c0 2.635 1.316 5.514 4.474 5.514 2.628 0 4.233-1.31 4.233-3.38 0-1.86-1.354-2.921-6.854-6.082-3.941-2.068-6.573-4.417-6.573-8.65 0-4.456 2.882-7.603 8.926-7.603 6.58 0 8.957 4.18 9.193 9.194h-5.246c0-2.657-1.305-4.72-3.947-4.72-2.1 0-3.687 1.03-3.687 2.85 0 1.87 1.588 2.9 5.79 5.274 4.73 2.614 7.637 4.466 7.637 9.48 0 5.214-4.463 8.106-9.472 8.106m-44.881-25.207c-3.941 0-6.312 4.435-6.312 10.51 0 6.036 2.37 10.227 6.311 10.227 3.951 0 6.294-4.19 6.294-10.227 0-6.075-2.343-10.51-6.294-10.51m0 25.726c-8.132 0-11.793-7.056-11.793-15.216 0-8.164 3.661-15.223 11.793-15.223 8.153 0 11.801 7.06 11.801 15.223 0 8.16-3.648 15.216-11.8 15.216"/><path fill="currentColor" d="M96.822 238.857v24.946h-5.26v-24.946h-6.294v-4.466h17.869v4.466m-46.83 24.949v-19.191l-6.583 13.967-6.311-13.967v19.191h-5.268v-29.415h5.793l5.786 13.399 6.04-13.4h5.814v29.416"/><path fill="currentColor" d="M102.838 118.975 68.565 59.612 102.838-.001l34.523 59.613m.001 118.713-34.527-59.35h68.81l34.29 59.35m-137.374 0H.001l34.273-59.35h68.56"/></svg>