<svg height="1000" viewBox="0 0 205.935 264.583" width="778.336" xmlns="http://www.w3.org/2000/svg"><g transform="matrix(1.24013 0 0 1.24013 -23.096 -2.497)"><path d="m0 0v5.44l-1.862-3.949-1.792 3.949v-5.44h-1.476v8.339h1.626l1.642-3.798 1.711 3.798h1.637v-8.339" transform="matrix(2.82992 0 0 -2.82992 42.842 182.453)"/><path d="m50.845 182.453h4.214v-23.598h-4.214z"/><path d="m0 0v-7.074h-1.486v7.074h-1.784v1.265h5.062v-1.265" transform="matrix(2.82992 0 0 -2.82992 66.209 162.434)"/><path d="m0 0c-1.937 0-2.604 1.271-2.681 2.839h1.417c0-.754.374-1.49 1.264-1.49.743 0 1.191.369 1.191.96 0 .53-.369.751-1.935 1.639-1.118.675-1.86 1.342-1.86 2.534 0 1.268.821 2.156 2.533 2.156 1.857 0 2.529-1.187 2.603-2.6h-1.484c0 .669-.37 1.343-1.119 1.343-.673 0-1.043-.306-1.043-.823 0-.594.445-.891 1.633-1.492 1.342-.75 2.16-1.337 2.16-2.686-0-1.558-1.26-2.38-2.679-2.38" transform="matrix(2.82992 0 0 -2.82992 79.076 183.096)"/><path d="m0 0c-1.335 0-2.901.52-2.901 2.756v5.726h1.49v-5.726c0-.895.447-1.421 1.411-1.421.824 0 1.278.526 1.278 1.421v5.726h1.482v-5.726c0-2.164-1.482-2.756-2.76-2.756" transform="matrix(2.82992 0 0 -2.82992 96.633 182.86)"/><path d="m0 0h-.593v1.338h.593c.746 0 1.188.297 1.188 1.04s-.519 1.047-1.188 1.047h-1.115v-5.811h1.188c.817 0 1.34.373 1.34 1.267 0 .822-.523 1.119-1.413 1.119m.445-3.649h-3.046v8.338h2.754c1.558 0 2.523-.742 2.523-2.083 0-1.113-.81-1.788-1.188-1.859a2.11 2.11 0 0 0 1.487-2.087c0-1.336-1.038-2.309-2.53-2.309" transform="matrix(2.82992 0 0 -2.82992 114.555 172.127)"/><path d="m0 0v3.649h-3.037v-3.649h-1.569v8.339h1.569v-3.276h2.967v3.276h1.564v-8.339" transform="matrix(2.82992 0 0 -2.82992 162.573 182.453)"/><path d="m125.298 182.453h4.216v-23.598h-4.216z"/><path d="m170.805 182.453h4.214v-23.598h-4.214z"/><path d="m0 0c-1.939 0-2.606 1.191-2.681 2.828h1.412c0-.746.372-1.567 1.269-1.567.748 0 1.197.373 1.197.962 0 .532-.371.834-1.936 1.723-1.119.591-1.867 1.266-1.867 2.454 0 1.266.818 2.153 2.534 2.153 1.861 0 2.531-1.185 2.607-2.593h-1.413c-.081.737-.454 1.334-1.194 1.334-.594 0-1.044-.294-1.044-.817 0-.517.45-.823 1.642-1.497 1.337-.734 2.157-1.261 2.157-2.685 0-1.477-1.267-2.295-2.683-2.295" transform="matrix(2.82992 0 0 -2.82992 139.838 182.649)"/></g><path d="m0 0c-1.111 0-1.789-1.257-1.789-2.979 0-1.711.678-2.899 1.789-2.899 1.12 0 1.795 1.188 1.795 2.899 0 1.722-.675 2.979-1.795 2.979m0-7.292c-2.302 0-3.348 2-3.348 4.313 0 2.314 1.046 4.315 3.348 4.315 2.312 0 3.352-2.001 3.352-4.315 0-2.313-1.04-4.313-3.352-4.313" transform="matrix(3.5278914688 0 0 -3.5278914688 75.19861888 238.85741696)"/><path d="m0 0-2.455 4.462h.442c.523 0 1.419.151 1.419 1.352 0 1.039-.896 1.258-1.492 1.258h-.893v-7.072h-1.492v8.338h2.761c1.633 0 2.748-.817 2.748-2.38 0-1.496-.887-2.082-1.411-2.312l2.161-3.646" transform="matrix(3.5278914688 0 0 -3.5278914688 143.04700088 263.80642328)"/><path d="m0 0c-1.937 0-2.606 1.183-2.686 2.83h1.418c0-.747.373-1.563 1.268-1.563.745 0 1.2.371 1.2.958 0 .527-.384.828-1.943 1.724-1.117.586-1.863 1.252-1.863 2.452 0 1.263.817 2.155 2.53 2.155 1.865 0 2.539-1.185 2.606-2.606h-1.487c0 .753-.37 1.338-1.119 1.338-.595 0-1.045-.292-1.045-.808 0-.53.45-.822 1.641-1.495 1.341-.741 2.165-1.266 2.165-2.687 0-1.478-1.265-2.298-2.685-2.298" transform="matrix(3.5278914688 0 0 -3.5278914688 158.3407804 264.06447776)"/><path d="m0 0c-1.117 0-1.789-1.257-1.789-2.979 0-1.711.672-2.899 1.789-2.899 1.12 0 1.784 1.188 1.784 2.899 0 1.722-.664 2.979-1.784 2.979m0-7.292c-2.305 0-3.343 2-3.343 4.313 0 2.314 1.038 4.315 3.343 4.315 2.311 0 3.345-2.001 3.345-4.315 0-2.313-1.034-4.313-3.345-4.313" transform="matrix(3.5278914688 0 0 -3.5278914688 113.45924712 238.85741696)"/><path d="m0 0v-7.071h-1.491v7.071h-1.784v1.266h5.065v-1.266" transform="matrix(3.5278914688 0 0 -3.5278914688 96.82158968 238.85741696)"/><path d="m0 0v5.44l-1.866-3.959-1.789 3.959v-5.44h-1.493v8.338h1.642l1.64-3.798 1.712 3.798h1.648v-8.338" transform="matrix(3.5278914688 0 0 -3.5278914688 56.30703632 263.80642328)"/><g fill="#ee1d23"><path d="m0 0-7.703 13.342 7.703 13.398 7.759-13.398" transform="matrix(4.4493700192 0 0 -4.4493700192 102.838056 118.9753573)"/><path d="m0 0-7.76 13.339h15.465l7.707-13.339" transform="matrix(4.4493700192 0 0 -4.4493700192 137.36174108 178.32502778)"/><path d="m0 0h-15.409l7.703 13.339h15.409" transform="matrix(4.4493700192 0 0 -4.4493700192 68.56121574 178.32502778)"/></g></svg>