<svg height="48" viewBox="0 0 48 48" width="48" xmlns="http://www.w3.org/2000/svg"><path d="m35.201 29.64h2v7.99h-6.242v-2h4.242zm1 13.854c-4.267 0-7.737-3.471-7.737-7.738 0-4.266 3.47-7.737 7.737-7.737s7.737 3.47 7.737 7.737-3.47 7.738-7.737 7.738m0-17.475c-5.369 0-9.737 4.368-9.737 9.737s4.368 9.738 9.737 9.738 9.737-4.37 9.737-9.738c0-5.37-4.368-9.737-9.737-9.737m-32.201 12.231h20.843v2h-21.843a1 1 0 0 1 -1-1v-4.37h2zm35.319-28.631a1.46 1.46 0 0 1 1.459 1.459 1.46 1.46 0 1 1 -1.459-1.459m0 4.917a3.46 3.46 0 0 0 3.459-3.458 3.463 3.463 0 0 0 -3.459-3.46 3.46 3.46 0 0 0 -3.458 3.46 3.46 3.46 0 0 0 3.458 3.458m-24.825-4.917h14.676a1 1 0 0 0 .953-.698 7.04 7.04 0 0 1 6.738-4.921c3.902 0 7.077 3.175 7.077 7.078 0 3.902-3.175 7.077-7.077 7.077a7.04 7.04 0 0 1 -6.738-4.92 1 1 0 0 0 -.953-.7h-2.493a1 1 0 0 0 -.707.294l-1.401 1.4-1.399-1.4a1 1 0 0 0 -.707-.293h-1.406c-.265 0-.519.106-.707.293l-1.4 1.4-1.399-1.4a1 1 0 0 0 -.707-.293h-1.732l-1.782-1.56zm-.416 4.67c.182.16.416.247.658.247h1.694l1.813 1.814a1 1 0 0 0 1.414 0l1.815-1.814h.577l1.813 1.814a1 1 0 0 0 1.414 0l1.815-1.814h1.379a9.03 9.03 0 0 0 8.391 5.619c5.005 0 9.077-4.073 9.077-9.077 0-5.005-4.072-9.078-9.077-9.078a9.03 9.03 0 0 0 -8.391 5.619h-14.436c-.292 0-.569.128-.759.349l-2.107 2.458a1 1 0 0 0 .1 1.404zm-12.078 12.066c0-5.003 4.07-9.073 9.073-9.073 3.729 0 7.016 2.228 8.399 5.618h1.375l1.812-1.814a1.03 1.03 0 0 1 1.414 0l1.813 1.814h.579l1.812-1.814a1 1 0 0 1 1.413-.001l1.822 1.815h1.692a1 1 0 0 1 .656.245l.814.707-1.313 1.51-.531-.462h-1.732c-.264 0-.518-.105-.706-.292l-1.406-1.402-1.4 1.4a1 1 0 0 1 -.707.294h-1.407c-.266 0-.52-.106-.708-.293l-1.398-1.4-1.398 1.4a1 1 0 0 1 -.707.293h-2.491a1 1 0 0 1 -.953-.698c-.931-2.943-3.641-4.92-6.744-4.92a7.08 7.08 0 0 0 -7.073 7.073c0 3.905 3.173 7.082 7.073 7.082a7.04 7.04 0 0 0 6.744-4.92 1 1 0 0 1 .953-.698h8.441v2h-7.739c-1.383 3.389-4.67 5.618-8.399 5.618-5.003 0-9.073-4.074-9.073-9.082m6.618 1.462a1.46 1.46 0 0 1 -1.458-1.458 1.46 1.46 0 0 1 2.917 0 1.46 1.46 0 0 1 -1.459 1.458m0-4.916a3.46 3.46 0 0 0 -3.458 3.458 3.46 3.46 0 0 0 3.458 3.458 3.46 3.46 0 0 0 3.459-3.458 3.46 3.46 0 0 0 -3.459-3.459" fill="#dd344c" fill-rule="evenodd"/></svg>