<svg height="18" viewBox="0 0 18 18" width="18" xmlns="http://www.w3.org/2000/svg" xmlns:xlink="http://www.w3.org/1999/xlink"><linearGradient id="a" gradientUnits="userSpaceOnUse" x1="6.06" x2="6.06" y1="18.655" y2="13.078"><stop offset="0" stop-color="#76bc2d"/><stop offset=".192" stop-color="#7fcb30"/><stop offset=".42" stop-color="#84d332"/><stop offset=".775" stop-color="#86d633"/></linearGradient><linearGradient id="b" gradientUnits="userSpaceOnUse" x1="8.267" x2="8.267" y1="14.714" y2="1.379"><stop offset="0" stop-color="#1988d9"/><stop offset=".9" stop-color="#54aef0"/></linearGradient><path d="m2.881 1.393 1.049-1.218a.51.51 0 0 1 .384-.175h10.052a.7.7 0 0 1 .768.719v12.546a.5.5 0 0 1 -.166.377l-1.132 1.031h-10.275l-.695-.292z" fill="#005ba1"/><path d="m3.725 1.387.642-.732a.45.45 0 0 1 .34-.155h9.393a.45.45 0 0 1 .451.452v11.93a.45.45 0 0 1 -.147.334l-1 .914z" fill="#fff"/><path d="m7.654 12.9h-3.19a.17.17 0 0 0 -.171.172v4.828a.086.086 0 0 0 .139.067l1.574-1.234a.1.1 0 0 1 .036-.015h-.006l1.79-1.4v-2.248a.17.17 0 0 0 -.172-.17" fill="url(#a)"/><path d="m6.036 16.712 1.79-1.4v2.6a.086.086 0 0 1 -.138.068z" fill="#76bc2d"/><path d="m13.334 1.379h-10.42a.05.05 0 0 0 -.048.048v12.954a.333.333 0 0 0 .333.333h10.135a.334.334 0 0 0 .334-.333v-12.669a.334.334 0 0 0 -.334-.333" fill="url(#b)"/><path d="m6.059 6.142v3.544h-.759v-2.686a1 1 0 0 1 -.149.1 2 2 0 0 1 -.182.089 2 2 0 0 1 -.2.068 1.4 1.4 0 0 1 -.206.04v-.635a3 3 0 0 0 .561-.223 3 3 0 0 0 .477-.3zm2.241 3.605q-1.239 0-1.238-1.739a2.36 2.36 0 0 1 .338-1.374 1.12 1.12 0 0 1 .97-.473q1.209 0 1.209 1.768a2.33 2.33 0 0 1 -.33 1.349 1.09 1.09 0 0 1 -.949.469m.034-3q-.5 0-.5 1.245 0 1.173.486 1.173t.48-1.212q0-1.209-.465-1.209zm3.422-.605v3.544h-.762v-2.686a1 1 0 0 1 -.149.1 2 2 0 0 1 -.182.089 2 2 0 0 1 -.2.068 1.4 1.4 0 0 1 -.205.04v-.635a3 3 0 0 0 .561-.223 3 3 0 0 0 .476-.3z" fill="#fff"/></svg>