<svg xmlns="http://www.w3.org/2000/svg" viewBox="0 0 128 128"><defs><mask id="a"><path fill="#fff" d="M0 0h128v128H0z"/><path d="M36.547 86.746h27.43v4.574h-27.43zM64.063 36.5h6.093v22.418h12.008V64H64.062zM34.597 50.434v-.075a14.06 14.06 0 0 1 4.156-10.234 14.06 14.06 0 0 1 10.266-4.078 14.28 14.28 0 0 1 10.898 4.266l-3.84 4.476a10.22 10.22 0 0 0-7.086-3.121c-4.656 0-8.008 3.863-8.008 8.605v.086c0 4.743 3.278 8.692 8.008 8.692 3.172 0 5.098-1.219 7.317-3.242l3.8 3.925a14.14 14.14 0 0 1-11.347 4.875 13.94 13.94 0 0 1-10.082-4.09 13.94 13.94 0 0 1-4.082-10.085"/></mask></defs><g fill="currentColor" mask="url(#a)"><path d="M47.555 51.25 50.09 5.484l26.613 14.75zm0 0"/><path d="M47.555 51.25 50.09 5.484 16.297 26.781 5.484 91.527zm0 0"/><path d="m120.188 40.559-15.06-30.61-28.425 10.285L47.555 51.25 5.485 91.527l37.949 27.621 47.703-43.02zm0 0"/><path d="M100.57 72.582v27.988H54.613l20.2 15.63 29.257 6.316 18.446-41.754zm0 0"/></g></svg>