<svg viewBox="0 0 128 128" xmlns="http://www.w3.org/2000/svg" xmlns:xlink="http://www.w3.org/1999/xlink"><linearGradient id="a" gradientTransform="matrix(1.21904799 .00221275 -.00221275 1.21904799 0 0)" gradientUnits="userSpaceOnUse" x1="39.01" x2="66.51" y1="23.27" y2="23.27"><stop offset="0" stop-color="#ff318c"/><stop offset=".15" stop-color="#fb348c"/><stop offset=".28" stop-color="#f03c8c"/><stop offset=".42" stop-color="#de4a8c"/><stop offset=".54" stop-color="#c45d8b"/><stop offset=".67" stop-color="#a2778b"/><stop offset=".79" stop-color="#79958a"/><stop offset=".91" stop-color="#49b98a"/><stop offset="1" stop-color="#21d789"/></linearGradient><linearGradient id="b"><stop offset=".09" stop-color="#21d789"/><stop offset=".9" stop-color="#009ae5"/></linearGradient><linearGradient id="c" gradientTransform="matrix(1.21904799 .00221275 -.00221275 1.21904799 0 0)" gradientUnits="userSpaceOnUse" x1="27.99" x2="13.87" xlink:href="#b" y1="16.68" y2="111.42"/><linearGradient id="d" gradientTransform="matrix(1.21904799 .00221275 -.00221275 1.21904799 0 0)" gradientUnits="userSpaceOnUse" x1="92.05" x2="-4.53" xlink:href="#b" y1="13.4" y2="115.4"/><linearGradient id="e" gradientTransform="matrix(1.21904799 .00221275 -.00221275 1.21904799 0 0)" gradientUnits="userSpaceOnUse" x1="62.84" x2="95.87" xlink:href="#b" y1="77.02" y2="81.72"/><path d="m47.555 51.25 2.535-45.766 26.613 14.75zm0 0" fill="url(#a)"/><path d="m47.555 51.25 2.535-45.766-33.793 21.297-10.813 64.746zm0 0" fill="url(#c)"/><path d="m120.188 40.559-15.06-30.61-28.425 10.285-29.148 31.016-42.07 40.277 37.949 27.621 47.703-43.02zm0 0" fill="url(#d)"/><path d="m100.57 72.582v27.988h-45.957l20.2 15.63 29.257 6.316 18.446-41.754zm0 0" fill="url(#e)"/><path d="m27.43 27.43h73.14v73.14h-73.14zm0 0"/><path d="m36.547 86.746h27.43v4.574h-27.43zm27.516-50.246h6.093v22.418h12.008v5.082h-18.102zm-29.466 13.934v-.075a14.06 14.06 0 0 1 4.156-10.234 14.06 14.06 0 0 1 10.266-4.078 14.282 14.282 0 0 1 10.898 4.266l-3.84 4.476a10.222 10.222 0 0 0 -7.086-3.121c-4.656 0-8.008 3.863-8.008 8.605v.086c0 4.743 3.278 8.692 8.008 8.692 3.172 0 5.098-1.219 7.317-3.242l3.8 3.925a14.138 14.138 0 0 1 -11.347 4.875 13.94 13.94 0 0 1 -10.082-4.09 13.94 13.94 0 0 1 -4.082-10.085" fill="#fff"/></svg>