<svg viewBox="0 0 128 128" xmlns="http://www.w3.org/2000/svg"><path d="m50.09 5.484-33.793 21.297-10.813 64.746 37.95 27.621 16.25-14.654 15.129 11.706 29.257 6.317 18.446-41.754-21.446-7.994v28.302h-74.14v-74.141h74.14v37.037l19.118-23.408-15.06-30.61-28.425 10.285zm-22.16 22.446v72.14h72.14v-72.14zm21.09 8.117a14.282 14.282 0 0 1 10.898 4.266l-3.842 4.476a10.222 10.222 0 0 0 -7.086-3.121c-4.656 0-8.008 3.863-8.008 8.605v.086c0 4.743 3.278 8.692 8.008 8.692 3.172 0 5.1-1.22 7.319-3.242l3.798 3.925a14.138 14.138 0 0 1 -11.345 4.875 13.94 13.94 0 0 1 -10.082-4.09 13.94 13.94 0 0 1 -4.082-10.085v-.075a14.06 14.06 0 0 1 4.156-10.234 14.06 14.06 0 0 1 10.266-4.078zm15.042.453h6.094v22.418h12.008v5.082h-18.102zm-27.515 50.246h27.43v4.574h-27.43z" fill="#21d789"/></svg>