<svg height="18" viewBox="0 0 18 18" width="18" xmlns="http://www.w3.org/2000/svg" xmlns:xlink="http://www.w3.org/1999/xlink"><linearGradient id="a" gradientUnits="userSpaceOnUse" x1="9.09" x2="9.09" y1="17.5" y2="1.36"><stop offset="0" stop-color="#ef7100"/><stop offset=".13" stop-color="#f27d07"/><stop offset=".43" stop-color="#f69113"/><stop offset=".72" stop-color="#f99e1b"/><stop offset="1" stop-color="#faa21d"/></linearGradient><path d="m13.47 1.38a4.26 4.26 0 0 0 -4.38 2.85 4.28 4.28 0 0 0 -4.39-2.85c-3.95.31-4.16 4.22-4.1 5.72.03 1.07.24 4.44 8.4 10.3v.1l.07-.05.07.05v-.1c8.2-5.86 8.41-9.29 8.44-10.4.06-1.46-.16-5.31-4.11-5.62" fill="url(#a)"/><path d="m17 3.8a6.37 6.37 0 0 1 -.31 4c-.88 2-2.8 3.6-5.59 4.78a1.34 1.34 0 0 0 -1-.43 1.37 1.37 0 1 0 1.36 1.41 13.7 13.7 0 0 0 5.54-4.22 6.2 6.2 0 0 0 .54-3.26 7 7 0 0 0 -.54-2.28m-10.13 8.14-.39.4c-2.75-2.71-3.62-4.86-2.48-5.98s3.27-.25 6 2.47l-.39.4a.52.52 0 0 0 0 .74.51.51 0 0 0 .74 0l.74-.74a.53.53 0 0 0 0-.74l-.37-.37c-1.85-1.86-5-4.11-7-2.78a3.24 3.24 0 0 1 -1-2 2.28 2.28 0 0 1 .46-1.63 4 4 0 0 0 -1.48 1.13 3.52 3.52 0 0 0 1.3 3.24c-1.3 2 .94 5.14 2.79 7l.37.38a.53.53 0 0 0 .74 0l.75-.75a.53.53 0 0 0 0-.74.52.52 0 0 0 -.78-.03" fill="#ffe452"/></svg>