<svg xmlns="http://www.w3.org/2000/svg" xmlns:xlink="http://www.w3.org/1999/xlink" viewBox="0 0 128 128"><linearGradient id="a"><stop offset=".176" stop-color="#0052cc"/><stop offset="1" stop-color="#2684ff"/></linearGradient><linearGradient xlink:href="#a" id="b" x1="88.136" x2="68.472" y1="39.092" y2="59.368" gradientUnits="userSpaceOnUse"/><linearGradient xlink:href="#a" id="c" x1="66.564" x2="43.828" y1="62.256" y2="84.376" gradientUnits="userSpaceOnUse"/><path fill="#2684ff" d="M108.023 16H61.805c0 11.52 9.324 20.848 20.847 20.848h8.5v8.226c0 11.52 9.328 20.848 20.848 20.848V19.977A3.98 3.98 0 0 0 108.023 16m0 0"/><path fill="url(#b)" d="M85.121 39.04H38.902c0 11.519 9.325 20.847 20.844 20.847h8.504v8.226c0 11.52 9.328 20.848 20.848 20.848V43.016a3.983 3.983 0 0 0-3.977-3.977zm0 0"/><path fill="url(#c)" d="M62.219 62.078H16c0 11.524 9.324 20.848 20.848 20.848h8.5v8.23c0 11.52 9.328 20.844 20.847 20.844V66.059a3.984 3.984 0 0 0-3.976-3.98zm0 0"/></svg>