<svg fill="none" height="1811" viewBox="0 0 1452 1811" width="1452" xmlns="http://www.w3.org/2000/svg"><g fill="#ededed"><path d="m.674.604c291.711 195.267 483.776 527.796 483.776 905.189 0 377.347-192.125 709.677-483.775 904.957v-313.94c149.034-152.47 240.943-360.97 240.943-591.017 0-230.11-91.839-438.777-240.943-591.254z"/><path d="m484.449.604c291.711 195.267 483.775 527.796 483.775 905.189 0 377.347-192.125 709.677-483.775 904.957v-313.94c149.034-152.47 240.943-360.97 240.943-591.017 0-230.11-91.839-438.777-240.943-591.254z"/><path d="m968.224.604c291.716 195.267 483.776 527.796 483.776 905.189 0 377.347-192.13 709.677-483.776 904.957v-313.94c149.036-152.47 240.946-360.97 240.946-591.017 0-230.11-91.84-438.777-240.946-591.254z"/></g></svg>