<svg viewBox="0 0 128 128" xmlns="http://www.w3.org/2000/svg"><path d="m12.061 28.416a.13889.13889 0 0 0 -.125.13867v2.7441c0 .14744.009694.33326.027344.56055.0075.09593.014024.14948.021484.22852-.10936-.12435-.20793-.25674-.34375-.36133-.21961-.17329-.48012-.31005-.77734-.41016-.30238-.10184-.64843-.15039-1.041-.15039-.93303 0-1.703.32041-2.2715.95312-.57313.63368-.84961 1.5611-.84961 2.7617 0 1.1879.27 2.1049.83008 2.7305.5605.62095 1.3307.93359 2.2715.93359.40109 0 .75192-.048421 1.0547-.15039a.13889.13889 0 0 0 .001953 0c.30145-.10434.5635-.24608.7832-.42383.15299-.12138.26419-.26631.38086-.4082l.125.74219a.13889.13889 0 0 0 .13672.11523h.87891a.13889.13889 0 0 0 .13867-.13867v-9.7266a.13889.13889 0 0 0 -.13867-.13867h-1.0898a.13889.13889 0 0 0 -.013672 0zm4.1289.3125c-.21589 0-.41205.068155-.56445.20312-.15962.14108-.23242.35949-.23242.61719 0 .25398.073223.47092.23047.61523.15243.13508.35043.20508.56641.20508.20801 0 .39969-.069768.55078-.20312.16622-.14284.24414-.36176.24414-.61719 0-.25872-.078127-.47964-.24609-.61914-.1509-.13266-.34138-.20117-.54883-.20117zm21.768 2.2969c-.59268 0-1.1036.093646-1.5332.28711-.42877.19308-.76477.47956-.99414.85352-.2301.37098-.34179.81813-.3418 1.3301 0 .4858.1215.92134.36914 1.2949a.13889.13889 0 0 0 .001953.001953c.2028.29669.47237.50814.77539.66797-.2149.14386-.40085.29414-.52734.45703-.16273.21121-.24609.46539-.24609.74219 0 .24472.077108.47048.22656.66016a.13889.13889 0 0 0 .001953.001954c.07898.097.16905.17976.26562.25195-.38353.1191-.72273.28787-.96875.54688-.30688.32804-.46484.73536-.46484 1.1953 0 .6432.28814 1.1672.83203 1.5215v.001953c.54504.35884 1.3018.52734 2.2637.52734 1.2413 0 2.2033-.20187 2.8848-.62695.68114-.42491 1.0371-1.0633 1.0371-1.8613 0-.63231-.23135-1.1425-.68555-1.4805h-.001954c-.44943-.3375-1.0809-.49609-1.8828-.49609h-1.2676c-.22012 0-.40548-.016325-.55469-.046875-.14441-.03366-.2447-.085383-.30859-.14258-.05428-.05211-.080079-.11295-.080079-.2168 0-.1504.042375-.27257.13281-.38672.09282-.11184.2384-.21916.42383-.32031.19554.02818.38898.046876.57812.046876.87126 0 1.5751-.20751 2.0918-.63281.5156-.42886.7793-1.0219.7793-1.7383 0-.29372-.046335-.5657-.14062-.8125-.06238-.16329-.15306-.29021-.23828-.42383l1.123-.13281a.13889.13889 0 0 0 .12305-.13672v-.66992a.13889.13889 0 0 0 -.13867-.13867h-2.457c-.08928-.02418-.18662-.044627-.29883-.060547-.1231-.02161-.2537-.036332-.38867-.044922-.12977-.01262-.25869-.019531-.38867-.019531h-.001953zm-15.918.02539c-.47536 0-.92867.058006-1.3613.17383-.42747.11443-.80895.25295-1.1426.41602a.13889.13889 0 0 0 -.066406.17773l.33398.78906a.13889.13889 0 0 0 .1875.070312c.30045-.1389.61733-.25889.95312-.36133.32789-.10003.67334-.15039 1.0371-.15039.46341 0 .80128.11057 1.0371.32031.22429.19948.35352.56972.35352 1.1406v.28516l-1.1074.044922c-1.1777.03389-2.0663.23416-2.6699.62305-.60223.38802-.91797.96936-.91797 1.6914 0 .47388.10209.87801.3125 1.2012a.13889.13889 0 0 0 0 .001953c.21148.31758.50182.55735.86133.71289a.13889.13889 0 0 0 .001953 0c.36127.1543.76941.23047 1.2227.23047.42523 0 .78771-.042375 1.0898-.13086a.13889.13889 0 0 0 .001954 0c.30308-.09179.57163-.22684.80469-.4043a.13889.13889 0 0 0 .001953-.001953c.17647-.13774.34025-.31905.50391-.50391l.16797.80469a.13889.13889 0 0 0 .13477.11133h.79492a.13889.13889 0 0 0 .13867-.13867v-4.6582c0-.82827-.21618-1.4613-.66992-1.8613-.45151-.39809-1.1259-.58398-2.0039-.58398zm8.375.11524c-.33637 0-.65825.045312-.96484.13672-.30676.08729-.5867.21886-.83594.39453-.18132.12485-.33303.28-.46875.44922l-.12305-.73828a.13889.13889 0 0 0 -.13672-.11719h-.88086a.13889.13889 0 0 0 -.13867.13867v6.8516a.13889.13889 0 0 0 .13867.13867h1.0918a.13889.13889 0 0 0 .13867-.13867v-3.5879c0-.79851.15855-1.3897.45703-1.7852.29105-.38558.79837-.58984 1.5703-.58984.5416 0 .9161.13415 1.1543.38281a.13889.13889 0 0 0 .001953 0c.24335.25001.37305.63697.37305 1.1855v4.3945a.13889.13889 0 0 0 .14062.13867h1.0762a.13889.13889 0 0 0 .13867-.13867v-4.4629c0-.90204-.22574-1.5854-.70117-2.0156-.47104-.43024-1.1559-.63672-2.0312-.63672zm15.529.013672c-.70623 0-1.3248.14305-1.8477.43555-.51843.2883-.92102.71433-1.1992 1.2656-.2791.54887-.41602 1.2081-.41602 1.9746 0 .57556.080225 1.0953.24414 1.5547.16765.45715.40386.8488.70703 1.168.30657.31793.67042.56292 1.0859.73242a.13889.13889 0 0 0 .001953 0c.42039.16527.88009.24805 1.377.24805.53086 0 1.0118-.082489 1.4375-.24805.42884-.16935.79649-.41331 1.0996-.73242.30364-.31966.53643-.71192.69531-1.1699.15924-.45904.23633-.97752.23633-1.5527 0-.7631-.14124-1.4216-.42969-1.9707-.2825-.55023-.68565-.97741-1.2031-1.2695-.51348-.29233-1.1127-.43555-1.7891-.43555zm-30.326.11133a.13889.13889 0 0 0 -.125.13867v7.959c0 .39633-.090226.63677-.22852.75586-.15579.13416-.35772.20508-.63086.20508-.16857 0-.31899-.011916-.44922-.035156a.13889.13889 0 0 0 -.003906-.001953c-.13329-.01982-.26351-.048261-.39258-.087891a.13889.13889 0 0 0 -.17969.13281v.84375a.13889.13889 0 0 0 .09375.13086c.13091.0445.28209.081269.45312.11133.17782.03548.37995.052735.60938.052735.46302 0 .85449-.081043 1.1699-.25391.3129-.17147.55147-.42551.70312-.75v-.001954c.15084-.31864.22266-.69472.22266-1.127v-7.9336a.13889.13889 0 0 0 -.13867-.13867h-1.0898a.13889.13889 0 0 0 -.013671 0zm22.301.78125c.49807 0 .85123.1206 1.0859.34766a.13889.13889 0 0 0 .001953.001953c.23334.2221.35742.56033.35742 1.0488 0 .45389-.12095.77464-.35156.99414-.22952.21846-.58125.33594-1.0801.33594-.48054 0-.82836-.11682-1.0684-.33789-.23979-.22087-.36328-.53279-.36328-.97266 0-.48413.12425-.82746.35938-1.0586.24112-.2369.58418-.35938 1.0586-.35938zm-27.945.23438c.77432 0 1.2674.21696 1.5391.63672.28475.43364.4375 1.0769.4375 1.9316v.1875c0 .80301-.15836 1.3897-.45117 1.7715-.28682.37396-.77978.57031-1.5254.57031-.64244 0-1.0919-.2071-1.3984-.62891-.3046-.4257-.4668-1.0458-.4668-1.8691 0-.82782.16488-1.4652.47656-1.9219a.13889.13889 0 0 0 0-.001953c.30853-.45595.75271-.67578 1.3887-.67578zm35.943.02539c.48817 0 .87272.10325 1.1641.30078.2953.20021.51349.48157.6582.85938a.13889.13889 0 0 0 0 .001953c.14551.37592.2207.82839.2207 1.3613 0 .5372-.076807.99807-.22266 1.3828-.14473.38178-.36226.66864-.66211.87305a.13889.13889 0 0 0 -.001953 0c-.29181.20165-.66974.30664-1.1484.30664-.48325 0-.86471-.10517-1.1562-.30664-.29558-.20426-.51332-.49087-.6582-.87305-.14583-.38469-.2207-.84556-.2207-1.3828 0-.81383.16783-1.4337.49023-1.873l.001953-.001953c.32204-.43241.81596-.64844 1.5352-.64844zm-22.557 2.5898v.48633c0 .64723-.18835 1.1036-.56055 1.4121-.37972.31478-.86758.47461-1.4824.47461-.39053 0-.68799-.086476-.9082-.25195-.21244-.15963-.31836-.39554-.31836-.75781 0-.41227.15499-.70556.49023-.92969.3268-.21848.9405-.36163 1.8262-.39453l.95312-.039063zm13.988 3.2266h1.248c.36148 0 .66276.024705.9043.072265a.13889.13889 0 0 0 .003906 0c.23377.0422.39421.12397.5.23438.10044.10887.16016.27694.16016.5293 0 .26513-.082682.47905-.25781.66797a.13889.13889 0 0 0 -.001953.003906c-.16934.19048-.43922.34347-.81641.45117a.13889.13889 0 0 0 0 .001953c-.37108.11112-.85304.16797-1.4395.16797-.59369 0-1.038-.096875-1.334-.27344a.13889.13889 0 0 0 0-.001953c-.29471-.17205-.42383-.39272-.42383-.72266 0-.25778.057328-.46214.16602-.62305.1148-.16343.27463-.28567.49414-.37305.22094-.08794.48656-.13477.79688-.13476zm27 3.4707v4.291h-2.7969v-.34766h-21.365v.34766h-18.363c-1.1957-.22248-2.4598-.34703-3.7734-.37695h-.003906-11.795v5.4121h.029297v12.707h-.029297v1.2832h-5.75v.41602h5.75v3.3516h.029297v15.855h6.127v-.41992h13.127v8.5391h.41797v-8.5391h2.4355c.80694.9364 1.8621 1.9978 3.2598 2.8789l.20312.12695 4.8613-2.5625 3.8945-.023437h5.291 15.652v-.41992h2.7988v3.0449h.41602v-3.0449h6.5938c2.3286.50836 4.7511.70901 6.3945.64648 1.1803-.000619 2.9816-.15308 4.9062-.64648h1.4824v.068359h.10938l.099609.097657.097657-.097657h.10938v-.068359h18.674v4.1543h.41797v-4.1543h2.1035v.41992h6.127v-.41992h10.617a.069444.069444 0 0 0 .07032-.070313v-18.717h4.9336v-.41602h-4.9336v-14.045h.32226v-5.3027h-11.01v-.023438h-6.127v.023438h-21.166c-1.1756-.28384-2.3581-.46611-3.5195-.47656-.09946-.000889-.19857.000395-.29688.001953-1.2668.020032-3.7434.028668-6.2207.79688h-9.7852v-4.291h-.41602zm-41.875 4.4297h3.0605v1.0098c-.94039-.43772-1.9698-.76632-3.0605-1.0098zm3.4785 0h14.234v4.4844l-6.0156 6.0059h-1.8594v-1.5508h-.13867v3.2383h.13867v-1.5488h1.7207l-2.9355 2.9316c.16011-.69419.25391-1.4285.25391-2.2109v-.76367c0-3.8875-1.4808-6.6751-3.8984-8.4531-.46475-.3418-.97321-.63572-1.5-.90625v-1.2266zm35.6 0h2.7969v5.4629c-.28843.04288-.56737.17089-.78906.39258-.52992.52992-.54646 1.3787-.054688 1.9316l-6.5781 3.7383-6.8848-6.6621h11.51v-4.8633zm3.2129 0h9.3457c-.33833.11795-.67721.24792-1.0098.39844-2.9076 1.316-5.4629 4.042-5.4629 9.2461 0 1.8779.53871 3.537 1.4121 4.9961l-.75977.73438h-3.5254v-7.1523c.28751-.042882.56789-.15382.78906-.375.54971-.54971.54971-1.4425 0-1.9922-.22158-.22158-.50086-.34963-.78906-.39258v-5.4629zm13.77 0h3.9688c.46707.057916.94018.15412 1.4141.25586l-3.3984 3.2871c-1.2824-.049151-3.0054.13157-4.5234.93164-1.6427.86579-2.9961 2.5104-2.9961 5.1699v.013672l.001953.011719c.019916.32994.08311.65938.16602.98633l-3.5234 3.4102c-.74073-1.3028-1.1738-2.7664-1.1738-4.4219 0-4.9391 2.2822-7.2697 4.9746-8.4883 1.7102-.77406 3.5527-1.0421 5.0898-1.1562zm5.5469.28711c.020262.004541.040278.007106.060547.011718v3.8613c-1.1495-.29333-2.315-.54241-3.2969-.61328-.039613-.002859-.090146.000428-.13086-.001953l3.3672-3.2578zm-76.898.03125h10.85c2.8656.065268 5.4442.58669 7.502 1.6309v7.1328c-.4531-1.96-1.7538-3.2215-3.1543-3.9473-1.7325-.89779-3.5769-1.0723-4.3379-1.0723h-6.4688v.41602.24023l-4.3906-4.4004zm33.836.027343h3.3125l-3.3125 3.3066zm3.5098 0h.10742v18.166l-.66016.375h-2.957v-2.6777h.001953v-12.178h-.001953v-.18164l3.5098-3.5039zm.52539 0h.12109l3.8086 3.6855h-3.5039v12.178h3.207l-3.6328 2.0645v-17.928zm.31836 0h15.346v3.6855h-11.537l-3.8086-3.6855zm61.215.001953h4.459v.023438h10.914l-3.6309 3.6387h-7.2832v7.2988l-4.459 4.4688v-11.768h-2.9375v-3.6387h2.9375v-.023438zm-22.029.023438h.13281l4.0762 4.0684-.36328 1.0664c-.88749-.35206-2.3302-.83693-3.8457-1.2441v-3.8906zm.33008 0h18.344v3.6387h-14.318l-.095703.2832-3.9297-3.9219zm-77.805.044922 4.4902 4.5v13.521h5.0566c2.1262 0 4.3619-.31244 6.1133-1.3672.19723-.11878.38554-.25152.56836-.39062l2.2031 2.207h-18.432v-.44922h.03125v-14.375h-.03125v-3.6465zm114.97.054687v3.5391h-3.5312zm-96.105 1.6934c.35119.1977.69051.40675 1.0059.63867 2.2183 1.6314 3.5605 4.1031 3.5605 7.7832v.76367c0 1.3155-.26673 2.4743-.71875 3.5039l-3.8477 3.8438v-16.533zm53.914 2.2012c.33034-.011725.64349-.008092.91797.011719.9419.067986 2.1564.33934 3.3574.6543v12.502c-.67877-.32205-1.355-.6187-2.0078-.87305h-.001953c-.62636-.24154-1.6987-.67321-2.8574-1.2422v-3.4434c1.3819-.037191 2.4922-1.1678 2.4922-2.5586s-1.1103-2.5214-2.4922-2.5586v-.003906h-.13867v.003906c-1.3819.03719-2.4922 1.1678-2.4922 2.5586s1.1103 2.5214 2.4922 2.5586v3.373c-.26536-.13214-.52984-.26374-.79883-.41016-1.4944-.81348-2.9726-1.853-3.7109-2.9434-.36162-.58708-.60921-1.227-.72461-1.8555l5.9648-5.7734zm-.21289.015626-5.7754 5.5879c-.016213-.11247-.037893-.22494-.044922-.33594.0044-2.3794 1.1146-3.663 2.5508-4.4199 1.0304-.54306 2.2349-.7724 3.2695-.83203zm-39.467.30078v.18164h.001953v10.512h-.001953v3.5117h-12.467c.40432-.33581.78898-.69754 1.1445-1.0898.99502-1.0979 1.7629-2.4251 2.168-3.9746l3.1973-3.1934h4.6465v1.5488h.13867v-3.2383h-.13867v1.5508h-4.5078l5.8184-5.8086zm49.324.16016h13.721v13.844l-13.758-13.736.03711-.10742zm14.139 0h2.1035v11.771l-2.1035 2.1074v-13.879zm8.2305 0h5.6191l-2.9141 2.9199v-1.6152h1.5488v-.13867h-3.2383v.13867h1.5508v1.7539l-2.5664 2.5723v-5.6309zm5.8164 0h4.7324v14.045h-7.8438v-10.928l3.1113-3.1172zm-71.383.021484h3.5293l6.959 6.7344-6.6465 3.7773h-3.8418v-10.512zm-33.906.033203h5.6348c.62035 0 2.4038.17465 3.9551.97852s2.8867 2.158 2.8867 4.7109v.76367c0 2.2839-.80329 3.7102-2.0508 4.6523l-.88672-.88867c1.1853-.86496 1.9649-2.2549 1.9648-3.834.000048-2.6017-2.0948-4.71-4.6875-4.748v-.009766l-.068359.001954h-.003906c-.0235.001-.046833.002606-.070313.003906l-.064453.003906v4.1133l.076172-.007812c.02056-.0022.04183-.003706.0625-.003906.35722.000139.64454.28922.64453.64648.000007.35726-.28731.64439-.64453.64453-.02094-.000044-.04166.000147-.0625-.001953l-.076172-.007812v.26367l-6.6094-6.623v-.6582zm77.018.20117 13.807 13.785v.003906h-16.67c-.64975-.43724-1.3247-.80515-2.0039-1.1445v-12.604c1.6528.45354 3.2191.98623 3.9375 1.293l.41406.17578.51562-1.5098zm-25.076.52344v2.4609c-.25151-.04223-.49509-.13766-.68945-.33203-.49664-.49664-.49664-1.3002 0-1.7969.19442-.19442.43783-.28985.68945-.33203zm.41602.001953c.25103.042391.4954.13603.68945.33008.49664.49664.49664 1.3002 0 1.7969-.19409.19409-.43833.28964-.68945.33203v-2.459zm-52.357.12891 6.6094 6.623v3.6543l.066406.001953c.02348.000972.046823.001353.070313.001953h.001953c.99608.000019 1.9194-.3062 2.6836-.83008l.87695.87891c-.13145.09422-.26201.18892-.40234.27344-1.5415.92832-3.6415 1.248-5.6836 1.248h-4.2227v-11.852zm6.748.91016c2.5499.000556 4.6172 2.0671 4.6172 4.6172.000029 1.542-.76289 2.898-1.9238 3.7363l-2.6934-2.6992v-.25391c.43241.00001.78516-.3508.78516-.7832.000008-.43241-.35275-.78517-.78516-.78516v-3.832zm59.98.33398v4.8398c-1.3067-.03704-2.3535-1.1042-2.3535-2.4199 0-1.3158 1.0468-2.3829 2.3535-2.4199zm.13867 0c1.3067.03704 2.3535 1.1042 2.3535 2.4199 0 1.3158-1.0468 2.3829-2.3535 2.4199zm-15.662.90039c.21164.19155.47109.28194.73633.32227v7.1562h-3.4434l-2.1074-2.0391 4.8145-5.4395zm-.35352.18945-4.5605 5.1543-1.668-1.6152zm51.187.013672v10.787h-2.5664v-8.2168l2.5664-2.5703zm-41.238 2.709c.15977.56495.39703 1.1188.71484 1.6328l.003906.00586.003907.007812c.88251 1.3074 2.4564 2.3704 4.0078 3.2148.40554.22075.80645.42353 1.1973.61133v2.6055h-14.273l2.7676-2.6777h3.5762l-.55859-.68164c-.3487-.42478-.66178-.86888-.93555-1.334l3.4961-3.3848zm37.838.69727v7.3809h-4.459v-2.9121zm-54.141.19141 1.7012 1.6465-1.7969 2.0312h-6.375zm-37.75.81641 2.5859 2.5918c-.73738.49914-1.6281.78897-2.5859.78906v-3.3809zm6.3789.5625v5.6328l-2.1113-2.1152c1.0252-.81794 1.785-1.9772 2.1113-3.5176zm33.172.36523 1.998 1.9336h-3.709l1.7109-1.9336zm10.414 1.3242c.1279.20753.26331.41004.4043.60938h-1.0332l.62891-.60938zm-39.488.45508c-.36951.74111-.83735 1.4136-1.3848 2.0176-.56752.62619-1.2304 1.1629-1.9316 1.6484h-.35547l3.6719-3.666zm19.336.98828h7.1035l-2.3691 2.6777h-8.6484v-.45312l3.9141-2.2246zm7.2891 0h5.3086l2.7676 2.6777h-10.445l2.3691-2.6777zm5.5098 0h2.582v2.498zm2.998 0h2.6641l-2.6641 2.5781zm14.51.13477c1.0467.4962 1.9879.87441 2.5566 1.0938.7579.2953 1.5379.64473 2.3105 1.0293v.41992h-4.8672v-2.543zm26.479.4668v2.0762h-2.0723zm-61.117 1.8613v.21484h-.37891zm39.922.003906c.13833.072844.27902.13436.41602.21094h-.41602zm-77.475.62695h18.262l-.45117.45117c-.57786.30414-1.1673.5822-1.7656.80859l-.48047.18164c.16421.25337.32616.50826.49024.76172l-2.6504 2.6484-1.4551-2.3672-7.459.021484v11.244l-4.459 4.4512v-15.682h-.03125v-2.5195zm20.074 0h13.029v1.4238h.001953v.3125l-7.8672 4.4727-5.7578-5.7695c.20556-.13498.39557-.29295.59375-.43945zm13.861 0h2.2246l-2.2227 1.2637v-.67383h-.001953v-.58984zm2.5059 0h1.1113v9.8301l-3.6152 4.0859v-12.492l2.5039-1.4238zm1.5293 0h8.2793l-.52148.58984h-7.332v8.2871l-.42578.48047v-9.3574zm8.4648 0h10.713l-.60938.58984h-10.625l.52148-.58984zm11.445 0h14.172v1.6641c-.80184-.33467-1.6098-.66221-2.3145-.98438-.031599-.01445-.069455-.031401-.11133-.050781l-.082031-.039063h-11.055l-.60938-.58984zm14.311 0h4.8672v4.4629c-.40637-.36485-.85572-.69419-1.3281-.99219-1.1059-.69763-2.3313-1.2417-3.5391-1.748v-1.7227zm5.2832 0h1.1211c.76692.47916 1.4966 1.025 2.1484 1.6602 1.7066 1.6629 2.9023 3.9051 2.9023 7.1914 0 2.085-.57212 3.7167-1.4902 5.0059l-1.8848 1.8887c-.54925.41011-1.1337.77357-1.75 1.082-.34258.17146-.69325.32703-1.0469.46875v-4.3359c.9811-.93051 1.6426-2.2648 1.6426-4.1094 0-1.6539-.65864-2.942-1.6426-3.9727v-4.8789zm2.5898 0h15.922l-8.3809 8.3984h-2.0312v-1.5488h-.13867v3.2383h.13867v-1.5508h1.8926l-3.4824 3.4883c.31434-.94299.49414-1.9959.49414-3.1738 0-3.492-1.3133-5.9952-3.1523-7.7871-.398-.38781-.82412-.73738-1.2617-1.0645zm16.502 0h.0039l2.0996 2.0957v16.553h-2.1055l.00196-10.111h1.0293v1.5508h.14063v-3.2383h-.14063v1.5488h-1.0293v-8.3984zm.19922 0h1.9043v1.9004zm2.7383 0h4.459v7.1855l-4.459-4.4512v-2.7344zm5.293 0h2.5664v10.58l-2.5664-2.5625v-8.0176zm2.7051 0h7.8438v18.549l-7.8438-7.8301v-10.719zm-49.82.001954.60742.58789h-.60742zm-39.23.005859v.083984c-.063796.037856-.129.072544-.19336.10938l.19336-.19336zm77.697.025391v8.3652h-8.3477zm-38.883.046875v.50976h-.52734zm-37.906.43164 5.7539 5.7676-2.5195 1.4316.03711.060547c1.2699 2.1448 2.71 4.1825 4.3418 6.0977l-2.4023.011719-5.7012-8.8574v-4.2266c.1632-.095899.33057-.18263.49023-.28516zm-.9082.5293v3.332l-1.6348-2.5391c.55402-.22846 1.0984-.50048 1.6348-.79297zm20.779.38281h5.7598l-5.7598 6.5098zm5.9453 0h10.502l-4.0039 3.875v-2.8184h1.5488v-.13867h-3.2383v.13867h1.5508v2.9512l-8.4883 8.2148h-3.8164v-5.5039l5.9453-6.7188zm10.701 0h1.3887v17.225h-2.7988v-5.002h-11.221l8.2891-8.0215v6.9238h-1.5508v.13867h3.2383v-.13867h-1.5488v-7.0566l4.2031-4.0684zm1.8047 0h1.4688l13.047 12.623c-.52867.04442-1.0495.072265-1.5371.072265h-.001954c-3.087.01916-6.7176-1.2928-9.8184-2.3281l-.54883-.18359v5.8828l.24414.11133c.94641.43146 2.0383.77284 3.166 1.0469h-6.0195v-17.225zm1.6699 0h10.008c.01106.0052.01937.008222.03125.013671.83188.38035 1.7515.74935 2.6621 1.1348v3.6953c-.002-.000006-.00386 0-.00586 0-1.4143-.000003-2.5625 1.1482-2.5625 2.5625-.000001 1.4143 1.1482 2.5605 2.5625 2.5605s2.5625-1.1463 2.5625-2.5605c0-1.3653-1.0714-2.481-2.418-2.5566v-3.6426c1.0849.46205 2.159.95404 3.0957 1.5449.68596.43271 1.2874.90846 1.7715 1.4531v6.6035c-.38164.38636-.82957.70111-1.334.95312-.99262.49593-2.1858.73065-3.3477.8418l-13.025-12.604zm-26.246.47266v11.982l-.21484-.001953-7.5508-7.5664 7.7656-4.4141zm-16.973.42578c.77542 1.1981 1.5453 2.4 2.3184 3.5996v7.1426l-4.9727-8.0918zm83.371.60742 4.459 4.4512v10.992h-4.459v-15.443zm-88.02.38867 1.3125 2.1367-7.4727 7.4629v-9.582l6.1602-.017578zm1.3887 2.2598 5.5781 9.0762v3.9941h-13.127v-5.5332l7.5488-7.5371zm64.602.58008c.50987.7468.80859 1.6216.80859 2.6934 0 1.2489-.30415 2.1761-.80859 2.8887v-5.582zm-52.26.22266 7.4785 7.4961-3.168-.019532-2.3691.011719c-1.6431-1.9168-3.0917-3.9573-4.3691-6.1074l2.4277-1.3809zm46.832.02539c.002 0 .00386.000001.00586 0v4.8457c-.002.000005-.00386 0-.00586 0-1.3392 0-2.4238-1.0827-2.4238-2.4219s1.0846-2.4238 2.4238-2.4238zm.14453.007813c1.2713.07521 2.2793 1.1257 2.2793 2.416s-1.008 2.3408-2.2793 2.416zm-53.322.15625c1.749 2.7156 3.4998 5.4304 5.248 8.1465l3.5859-.017578c.9335 1.0375 1.921 2.0399 2.9824 2.9961l.050781.046875.046875-.052734 2.6328-2.9766h.11328l3.6504 3.6602h-3.6602l-4.0996.025391-.47461.25h-6.6484c-.73702-.79877-1.2943-1.5457-1.668-2.041l-1.7598-2.8633v-7.1738zm85.928 1.6445 2.5664 2.5625v6.9766h-1.5508v.13867h3.2383v-.13867h-1.5488v-6.8379l7.7441 7.7324h-10.449v-10.434zm-17.135.32227h8.4863v10.111h-18.576l.86914-.87109c.1509-.069105.30396-.12847.45312-.20312 2.1232-1.0626 4.0394-2.7424 4.9766-5.2383l3.791-3.7988zm-49.266.54883v5.3926h3.791l-4.0254 3.8945h-.19141v-8.8066l.42578-.48047zm-.84375.95312v8.334h-.17578l-3.6504-3.6582.21094.001953v-.5918l3.6152-4.0859zm23.57 2.7266c2.9689 1.0013 6.4075 2.205 9.541 2.1855.71726-.000059 1.5104-.045181 2.3125-.14844l3.0801 2.9805c-2.0972.62316-4.1508.81641-5.3965.81641h-.007813-.007813c-2.3569.09074-6.6811-.44042-9.5215-1.6582v-4.1758zm15.936.55273v4.1289c-.2825.10381-.56426.20395-.84766.29102l-3.0547-2.9551c1.0074-.14324 2.0255-.39396 2.9414-.85156.34058-.17016.65865-.38039.96094-.61328zm-72.568.63086v4.4238h-4.4316zm37.896.5293h11.246v3.8945h-14.818-.45117l4.0234-3.8945zm-12.863.21289 3.709.021484-2.5039 2.8301c-1.0059-.90938-1.9457-1.8607-2.8359-2.8438l1.6309-.007812zm-10.654.64258 1.0723 1.7441.011718.015624c.27886.3693.71276.93755 1.2344 1.5547h-2.3184v-3.3145zm59.217 2.6016-.61133.61328v-.36524c.20506-.077672.40771-.16108.61133-.24805zm-1.0273.39844v.22461l-.16992-.16406c.056628-.019097.11329-.04079.16992-.060547zm-.31641.11328.20898.20117h-.88476c.22503-.064091.44935-.12703.67578-.20117zm-54.305.33984h6.2441l-3.8672 2.0391c-.94993-.62672-1.7236-1.3469-2.377-2.0391zm25.947 5.373c-.50654 0-.94523.086754-1.3105.26953-.36779.18401-.65255.47738-.84375.86328-.19266.38491-.2832.87161-.2832 1.4609v.35156l-1.1719.31641a.13889.13889 0 0 0 -.10156.13281v.5a.13889.13889 0 0 0 .13867.13867h1.1348v5.9004a.13889.13889 0 0 0 .13867.13867h1.0898a.13889.13889 0 0 0 .13867-.13867v-5.9004h1.6543a.13889.13889 0 0 0 .13867-.13867v-.8125a.13889.13889 0 0 0 -.13867-.13867h-1.6543v-.36133c0-.52908.10019-.89909.26758-1.1152.17288-.22158.42936-.33398.81641-.33398.18266 0 .3595.019224.5332.058594a.13889.13889 0 0 0 .003906.001953c.18445.03674.34879.076938.49219.12109a.13889.13889 0 0 0 .17188-.087891l.2832-.81836a.13889.13889 0 0 0 -.087891-.17773c-.182-.060631-.39062-.11345-.62695-.16016-.23837-.04799-.49969-.070312-.7832-.070312zm61.094.068359a.13889.13889 0 0 0 -.125.13867v9.7266a.13889.13889 0 0 0 .13867.13867h1.084a.13889.13889 0 0 0 .13868-.13867v-2.418l.71484-.625 2.4512 3.1289a.13889.13889 0 0 0 .10938.052734h1.3144a.13889.13889 0 0 0 .10937-.22461l-3.0312-3.8301 2.8106-2.8379a.13889.13889 0 0 0 -.09961-.23633h-1.2812a.13889.13889 0 0 0 -.09765.041016l-2.3906 2.4258a.13889.13889 0 0 0 -.00195.001953c-.12549.13224-.27836.30568-.45899.51953a.13889.13889 0 0 0 -.00195 0c-.0797.09676-.11925.14374-.18164.21875.005-.09255.00757-.16878.01367-.27148a.13889.13889 0 0 0 0-.001953c.0132-.24341.02148-.44874.02149-.61914v-5.0508a.13889.13889 0 0 0 -.13868-.13867h-1.084a.13889.13889 0 0 0 -.01367 0zm-29.904 2.6211c-.66463 0-1.2529.15276-1.7539.45898-.49581.30587-.88353.74618-1.1562 1.3086-.26907.55994-.40039 1.2188-.40039 1.9727 0 .7718.14523 1.4348.44336 1.9805.29656.54282.71652.96101 1.252 1.2441a.13889.13889 0 0 0 .001953 0c.53914.27833 1.1673.41602 1.877.41602.49264 0 .92049-.036159 1.2871-.10938.36912-.07284.73984-.18808 1.1113-.3457a.13889.13889 0 0 0 .083985-.12891v-.91211a.13889.13889 0 0 0 -.19141-.12891c-.37029.15163-.72654.26648-1.0684.34375-.33767.07633-.73041.11524-1.1777.11524-.71364 0-1.2431-.19912-1.6211-.58984-.3527-.36458-.54539-.89569-.58008-1.6016h4.8223a.13889.13889 0 0 0 .13867-.13867v-.64453c0-.63826-.12004-1.2026-.36328-1.6875-.24302-.48881-.59848-.873-1.0586-1.1445-.46229-.2728-1.014-.40625-1.6465-.40625v-.001953zm18.799 0c-.70623 0-1.3248.145-1.8477.4375-.51846.28828-.92098.71426-1.1992 1.2656-.27911.54889-.41601 1.2081-.41601 1.9746 0 .57561.08223 1.0954.24609 1.5547.16765.45715.40191.84685.70508 1.166a.13889.13889 0 0 0 .00195.001953c.3066.31796.66852.56294 1.084.73242a.13889.13889 0 0 0 .00195 0c.42037.16527.88205.24805 1.3789.24805.53085 0 1.0098-.082479 1.4355-.24805.42877-.16933.7984-.4152 1.1016-.73438.30367-.31969.53449-.71002.69335-1.168.15923-.45899.23829-.97748.23829-1.5527 0-.76313-.14126-1.4216-.42969-1.9707-.28248-.5502-.68759-.9774-1.2051-1.2695-.51351-.29231-1.1127-.43555-1.7891-.43555v-.001953zm-39.098.013672c-.47536 0-.92865.058005-1.3613.17383-.42747.11443-.80895.25295-1.1426.41602a.13889.13889 0 0 0 -.066407.17773l.33594.78906a.13889.13889 0 0 0 .18555.070313c.30048-.13891.61734-.25889.95312-.36133.32787-.10002.67333-.15039 1.0371-.15039.46341 0 .80128.11057 1.0371.32031.22429.19948.35547.56972.35547 1.1406v.28516l-1.1094.044922c-1.1776.033914-2.0664.2342-2.6699.62305-.60223.38802-.91797.96936-.91797 1.6914 0 .47393.10212.87806.3125 1.2012a.13889.13889 0 0 0 0 .001953c.21145.31754.5018.55734.86133.71289a.13889.13889 0 0 0 .001953 0c.36127.15429.7694.23047 1.2227.23047.42523 0 .78771-.042371 1.0898-.13086a.13889.13889 0 0 0 .001953 0c.30308-.09179.57164-.22684.80469-.4043a.13889.13889 0 0 0 .001954-.001953c.17658-.13782.34016-.31891.50391-.50391l.16797.80469a.13889.13889 0 0 0 .13476.11133h.79492a.13889.13889 0 0 0 .13867-.13867v-4.6582c0-.82828-.21618-1.4613-.66992-1.8613-.45149-.39807-1.1259-.58398-2.0039-.58398zm-5.1621.11523c-.35845 0-.68887.065628-.98828.19922-.29022.13154-.5478.31118-.76953.53516-.14654.14535-.25899.31741-.37695.48438l-.089844-.9668a.13889.13889 0 0 0 -.13867-.12695h-.90625a.13889.13889 0 0 0 -.13867.13867v6.8516a.13889.13889 0 0 0 .13867.13867h1.0957a.13889.13889 0 0 0 .13867-.13867v-3.6758c0-.3399.05351-.64222.15625-.91211a.13889.13889 0 0 0 0-.001953c.10379-.27662.24482-.50752.42383-.69727a.13889.13889 0 0 0 .001954-.001953c.18018-.19489.38504-.34069.62109-.44141a.13889.13889 0 0 0 .001953 0c.24096-.10496.49468-.15625.76562-.15625.12086 0 .2507.007297.39062.023437.13965.01611.26556.038917.37695.066407a.13889.13889 0 0 0 .16992-.11524l.13867-.96289a.13889.13889 0 0 0 -.10938-.15625c-.12934-.02638-.27578-.045733-.4375-.058593-.16076-.01687-.31636-.025391-.46484-.025391zm13.273 0c-.31907 0-.62267.043182-.9082.13086-.28562.087689-.54544.21846-.77734.39062-.16471.12229-.3026.27146-.42773.43359l-.12109-.71484a.13889.13889 0 0 0 -.13672-.11523h-.88086a.13889.13889 0 0 0 -.13867.13867v6.8516a.13889.13889 0 0 0 .13867.13867h1.0898a.13889.13889 0 0 0 .13867-.13867v-3.625c0-.52632.063651-.96374.18359-1.3105v-.001954c.12312-.34718.31246-.59575.57422-.76562.25969-.16853.61511-.25977 1.0742-.25977.32002 0 .57342.06015.76562.16992a.13889.13889 0 0 0 .001953.001953c.19697.1066.34081.26279.43945.48438a.13889.13889 0 0 0 0 .001953c.10267.22175.1582.51051.1582.86719v4.4375a.13889.13889 0 0 0 .13867.13867h1.084a.13889.13889 0 0 0 .13867-.13867v-3.832c0-.72645.15422-1.2562.44141-1.6055.28338-.34465.73943-.52539 1.4102-.52539.46867 0 .79252.12781 1.0117.37305a.13889.13889 0 0 0 .001953.001953c.22243.24091.3457.61733.3457 1.1504v4.4375a.13889.13889 0 0 0 .13867.13867h1.0762a.13889.13889 0 0 0 .13867-.13867v-4.4883c0-.89208-.2052-1.5665-.64453-1.9941h-.001953c-.43529-.42765-1.0732-.63281-1.8887-.63281-.50846 0-.98149.10191-1.4121.30664h-.001953c-.38647.18024-.6908.46388-.93164.81445-.1809-.34724-.43425-.63267-.7832-.8125-.39277-.20879-.87236-.30859-1.4355-.30859zm39.352 0c-.35845 0-.69081.065628-.99023.19922-.29022.13154-.54779.31118-.76953.53516-.14644.14524-.257.3175-.375.48438l-.0918-.9668a.13889.13889 0 0 0 -.13867-.12695h-.90625a.13889.13889 0 0 0 -.13867.13867v6.8516a.13889.13889 0 0 0 .13867.13867h1.0976a.13889.13889 0 0 0 .13868-.13867v-3.6758c0-.3399.05157-.64222.15429-.91211a.13889.13889 0 0 0 0-.001953c.10382-.27669.24682-.50757.42578-.69727a.13889.13889 0 0 0 0-.001953c.18014-.19484.38696-.34068.62305-.44141.24096-.10496.49469-.15625.76563-.15625.12087 0 .25068.007297.39062.023437.13968.01611.26561.038927.37695.066407a.13889.13889 0 0 0 .17188-.11524l.13867-.96289a.13889.13889 0 0 0 -.11133-.15625c-.12934-.02638-.27382-.045733-.43554-.058593h-.00196c-.16075-.01687-.31441-.025391-.46289-.025391zm-22.947.125a.13889.13889 0 0 0 -.13281.17773l1.9844 6.8516a.13889.13889 0 0 0 .13281.099609h1.2285a.13889.13889 0 0 0 .13086-.09375l1.3398-3.9668v-.001954c.06215-.17329.1171-.34437.16602-.51367.0481-.17064.093324-.33386.13281-.48828v-.003906c.02952-.10408.052452-.19385.076172-.28711.02464.093.047438.18232.074218.28711a.13889.13889 0 0 0 .001953.005859c.04377.14999.090562.30809.13867.47461a.13889.13889 0 0 0 0 .003906c.05266.16291.10896.33067.16602.50195l1.2793 3.9863a.13889.13889 0 0 0 .13281.095703h1.2676a.13889.13889 0 0 0 .13281-.099609l1.9902-6.8516a.13889.13889 0 0 0 -.13281-.17773h-1.1113a.13889.13889 0 0 0 -.13281.10156l-1.0508 3.7832c-.07014.2587-.1393.51321-.20508.76367a.13889.13889 0 0 0 0 .001953c-.05947.24259-.11102.46428-.1582.66797-.05247-.20356-.11249-.4135-.17774-.62891v-.001953c-.06148-.21724-.12543-.42597-.19141-.62695v-.001953l-1.2812-3.9629a.13889.13889 0 0 0 -.13086-.095703h-1.1758a.13889.13889 0 0 0 -.13281.095703l-1.3262 3.9688c-.04877.14769-.097876.30638-.14648.47461-.04847.16362-.094578.33018-.13867.49805a.13889.13889 0 0 0 0 .001953c-.02731.11264-.052985.21574-.078125.32031-.0031-.01378-.004613-.023109-.007813-.037109-.04421-.21845-.098319-.44925-.16406-.69141v-.001954c-.06138-.2461-.12717-.49392-.19727-.74414l-1.0391-3.7832a.13889.13889 0 0 0 -.13281-.10156h-1.1309zm-4.2305.875c.3919 0 .70068.083751.93555.24023.23887.15536.41549.37041.5332.66016a.13889.13889 0 0 0 0 .003906c.10722.25173.16248.54917.17969.88086h-3.4844c.07975-.54457.25419-.98041.54492-1.2852.31904-.33441.73746-.5 1.291-.5zm18.787.025391c.48817 0 .87074.10323 1.1621.30078.2953.20021.51349.48157.6582.85938a.13889.13889 0 0 0 0 .001953c.14551.37591.2207.82839.2207 1.3613 0 .53721-.07484.99806-.2207 1.3828-.14473.38178-.36422.66669-.66406.87109a.13889.13889 0 0 0 -.00196.001954c-.29185.20168-.66978.30664-1.1484.30664-.4832 0-.86464-.10512-1.1562-.30664-.29561-.20428-.51334-.49092-.65821-.87305-.14584-.38471-.2207-.84556-.2207-1.3828 0-.81383.16978-1.4337.49219-1.873v-.001953c.32201-.43239.81792-.64844 1.5371-.64844zm-37.752 2.7305v.48633c0 .64723-.18835 1.1036-.56055 1.4121-.37972.31478-.86758.47461-1.4824.47461-.39053 0-.686-.086447-.90625-.25195-.21248-.15966-.32031-.3956-.32031-.75781 0-.41227.15499-.70556.49024-.92969.3268-.21848.9405-.36163 1.8262-.39453l.95312-.039062z"/></svg>