<svg viewBox="0 0 128 128" xmlns="http://www.w3.org/2000/svg"><path d="m64.347 41.62v4.2915h-19.475l-.02875-.02794-.02794.02794h-38.119a.069444.069444 0 0 0 -.069437.06944v18.955h-6.127v.41662h6.127v18.717a.069444.069444 0 0 0 .069437.06944h18.837v8.5399h.41662v-8.5399h18.685v.06971h.11039l.0971.09737.10063-.09737h.1085v-.06971h19.295v3.0463h.41662v-3.0463h19.377v.06971h.1085l.10063.09737.0971-.09737h.11039v-.06971h18.674v4.1551h.41662v-4.1551h18.849a.069444.069444 0 0 0 .0694-.06944v-18.717h4.9341v-.41662h-4.9341v-18.955a.069444.069444 0 0 0 -.0694-.06944h-18.849v-.01302h-.41662v.01302h-18.853l-.02794-.02794-.02875.02794h-19.557v-4.2915zm-57.484 4.4304h18.67v18.709zm19.087 0h18.685v.04042l-18.685 18.656zm19.102 0h19.295v18.706l-19.295-18.671zm19.712 0h19.377v.03553l-19.377 18.75zm19.793 0h18.674v18.685l-18.674-18.645zm19.09 0h18.682l-18.682 18.721zm-96.882.09846 18.747 18.787h-18.747zm115.66 0v18.787h-18.747zm-77.375.13019 19.28 18.657h-19.28zm39.088 0v18.657h-19.28zm-39.505.0081v18.648h-18.677zm39.922 0 18.674 18.645v.0035h-18.674zm-77.791 19.065h18.578l-18.578 18.55zm19.359 0h18.51v18.549zm18.927 0h19.178l-19.178 18.558zm19.911 0h19.178v18.558zm19.595 0h18.51l-18.51 18.549zm19.09 0h.004l18.676 18.648h-18.681zm.20099 0h18.578v18.55zm-39.085.0011 19.27 18.647h-19.27zm-39.23.0062v18.64h-18.669zm.41662.01383 18.588 18.626h-18.588zm77.281.01139v18.615h-18.576zm-38.884.04774v18.567h-19.188z" fill="#cecece"/><path d="m64.556 51.493c-.36077 0-.72168.13743-.99653.41228-.52992.52992-.54737 1.3783-.0556 1.9312l-33.827 19.228.03608.06076c2.157 3.643 4.7912 6.9835 8.055 9.9235l.05208.04692.04638-.05235 25.746-29.097c.55266.50018 1.4076.48539 1.9404-.04747.54971-.54971.54971-1.4431 0-1.9928-.27485-.27486-.63549-.41228-.99626-.41228zm0 .13806c.32494 0 .64975.12409.89807.37241.49664.49664.49664 1.2998 0 1.7964-.49664.49664-1.2998.49664-1.7964 0-.49664-.49664-.49664-1.2998 0-1.7964.24832-.24832.5734-.37241.89834-.37241zm48.339.42639v.13887h1.5501v30.911h-1.5501v.13887h3.2389v-.13887h-1.5498v-30.911h1.5498v-.13887zm-93.671.51291-.06944.003h-.003c-.0235.001-.04704.0022-.07052.0035l-.06537.0038v4.1144l.07676-.0081c.02056-.0022.04144-.0036.06211-.0038h.000277c.35722.000166.64528.28829.64528.64555.000007.35726-.28805.64541-.64528.64555-.02094-.000044-.04209-.0012-.06293-.0033l-.07622-.0076v4.1152l.06645.003c.02348.000973.04703.0018.07052.0024h.0019c2.6255.00005 4.7554-2.1298 4.7554-4.7553.000048-2.6017-2.0932-4.7102-4.6859-4.7483zm-.06835.14186c2.5499.000553 4.6154 2.0664 4.6154 4.6165.000047 2.5503-2.0657 4.6162-4.6159 4.6165-.000166-.000004-.000443.000006-.000553 0v-3.8321c.43241.000011.78443-.35202.78442-.78442.000007-.43241-.35202-.78443-.78442-.78442v-3.8318c.000442-.000017.000691-.000277.0011-.000277zm59.98.19149v.0035c-1.3819.03719-2.493 1.1678-2.493 2.5586s1.1111 2.5214 2.493 2.5586v13.596c-.002-.000006-.004-.000276-.006-.000276-1.4143-.000003-2.5621 1.1479-2.5621 2.5621 0 1.4143 1.1479 2.5624 2.5621 2.5624 1.4143 0 2.5624-1.1481 2.5624-2.5624 0-1.3653-1.071-2.4792-2.4175-2.5548v-13.603c1.3819-.03719 2.4927-1.1678 2.4927-2.5586s-1.1108-2.5214-2.4927-2.5586v-.0035zm0 .1424v4.8394c-1.3067-.03704-2.3541-1.104-2.3541-2.4197 0-1.3158 1.0473-2.3827 2.3541-2.4197zm.13887 0c1.3067.03704 2.3538 1.104 2.3538 2.4197 0 1.3158-1.0471 2.3827-2.3538 2.4197zm-16.016 1.0896-25.448 28.76c-3.21-2.902-5.8079-6.1934-7.9402-9.7825zm-31.086.85332v3.2389h.13887v-1.5499h6.5648v1.5499h.13887v-3.2389h-.13887v1.5501h-6.5648v-1.5501zm24.894 12.705v.13887h1.5501v10.069h-1.5501v.13887h3.2389v-.13887h-1.5499v-10.069h1.5499v-.13887zm22.063 4.0645c.002-.000001.004.000276.006.000276v4.8462c-.002.000005-.004.000276-.006.000276-1.3392 0-2.4232-1.0843-2.4232-2.4235s1.084-2.4232 2.4232-2.4232zm.14484.0073c1.2713.07521 2.2787 1.1256 2.2787 2.4159s-1.0074 2.341-2.2787 2.4162zm13.243.43561v3.2389h.13887v-1.5501h12.023v1.5501h.13887v-3.2389h-.13887v1.5499h-12.023v-1.5499z" fill="#6c6c6c"/><path d="m81.067 45.113c-.09946-.000891-.19843-.000443-.29674.0011-1.5153.02396-4.7619.01795-7.6695 1.334-2.9076 1.316-5.4641 4.0435-5.4641 9.2476 0 2.1998.73464 4.101 1.8867 5.7299h-23.211v-10.511h15.238v-5.3507h-21.365v5.3507h.0016v10.511h-.0016v5.351h.0016v12.456l-3.5798-.02143-4.9539.02278-7.755-12.048c1.8177-.74956 3.5966-1.8279 4.9658-3.3387 1.4892-1.6432 2.4864-3.7902 2.4864-6.4468v-.76408c0-3.8875-1.4825-6.6762-3.9001-8.4542s-5.7247-2.5638-9.4006-2.6476h-11.8v5.4112h.030159v12.708h-.030108v5.0513h.030108v15.854h6.1256v-15.87l6.1604-.01736 8.4575 13.759.01193.016c.71617.94845 2.2048 3.0543 4.6105 4.5709l.2037.12857 4.8617-2.564 3.8936-.02333h20.944v-5.5609h-15.237v-12.222h30.129c.01106.0052.01931.0092.03119.01465 1.8665.85339 4.132 1.6256 5.8956 2.7382 1.7636 1.1125 2.9969 2.4888 2.9969 4.6753 0 2.3534-1.0619 3.5857-2.5589 4.3336s-3.4534.93306-5.064.93306h-.0028c-3.087.01916-6.7181-1.2924-9.8188-2.3278l-.54844-.18309v5.8834l.24384.11121c3.0434 1.3874 7.5514 1.9289 10.135 1.8306 1.8531-.000974 5.2375-.36382 8.225-1.8591 2.9915-1.4972 5.5845-4.2095 5.5845-8.7219 0-3.492-1.3144-5.9958-3.1534-7.7878-1.839-1.7919-4.1825-2.8912-6.2751-3.7065l-.000829-.000277-.000554-.000276c-.7937-.30608-2.299-.9071-3.7957-1.7218-1.4944-.81348-2.9719-1.8536-3.7103-2.944-.4595-.74598-.74286-1.5768-.79256-2.3617.0044-2.3794 1.1134-3.6626 2.5496-4.4196 1.4391-.75844 3.2316-.91934 4.4019-.83487 2.3554.17001 6.4131 1.4988 7.711 2.053l.4131.1763.60079-1.7649h16.244v33.667h6.1256v-33.667h11.011v-5.3038h-11.011v-.0236h-6.1256v.0236h-21.167c-1.1756-.28384-2.3573-.46504-3.5188-.47548zm-.0076.83324c1.0998.0099 2.2408.18255 3.3897.46355l.04882.01194h22.089v-.0236h4.4592v.0236h11.011v3.6373h-11.011v33.667h-4.4592v-33.667h-17.674l-.50938 1.497c-1.6373-.6495-5.1548-1.7857-7.5586-1.9592-1.3007-.09389-3.2078.06293-4.8506.92872-1.6427.86579-2.9953 2.5105-2.9953 5.1701v.01248l.00083.01275c.05757.9537.39266 1.914.92221 2.7704l.0043.0071.0046.0068c.88251 1.3074 2.4554 2.3702 4.0067 3.2147 1.5514.84447 3.0889 1.4569 3.8939 1.7674 2.0511.79916 4.2887 1.8638 5.9949 3.5264 1.7066 1.6629 2.9017 3.9047 2.9017 7.1911 0 4.1997-2.3126 6.5696-5.1242 7.9768-2.8117 1.4072-6.1217 1.7715-7.8608 1.7715h-.0081l-.0079.000276c-2.3569.09074-6.6803-.44192-9.5207-1.6597v-4.1757c2.9689 1.0013 6.4059 2.2062 9.5395 2.1867 1.6703-.00011 3.7322-.17082 5.4337-1.0209 1.7024-.85056 3.0197-2.4597 3.0197-5.0789 0-2.5097-1.4992-4.1903-3.3856-5.3803s-4.1886-1.9658-5.9936-2.791c-.0316-.01445-.06825-.03215-.11012-.05153l-.08327-.03852h-31.147v13.888h15.237v3.8944h-20.114l-4.0998.02441-4.6062 2.4292c-2.1169-1.3966-3.4676-3.2698-4.1844-4.2199l-8.681-14.122-7.4585.02061v15.868h-4.4592v-15.854h-.030108v-3.3848h.030108v-14.375h-.030108v-3.7447h10.948c3.5677.08126 6.7076.85422 8.9259 2.4856 2.2183 1.6314 3.5605 4.1028 3.5605 7.7829v.76408c0 2.4505-.89759 4.3723-2.2705 5.8872-1.3729 1.5149-3.2316 2.6104-5.1196 3.3248l-.4798.18161c2.8628 4.4171 5.7035 8.8487 8.5524 13.275l5.4069-.02495 4.4136.02631v-14.127h-.0016v-3.6845h.0016v-12.178h-.0016v-3.6842h19.699v3.6842h-15.238v12.178h25.726l-.55902-.68108c-1.3488-1.6431-2.1767-3.5777-2.1767-5.8821 0-4.9391 2.2818-7.2701 4.9742-8.4887s5.8075-1.2354 7.3392-1.2596c.09212-.0015.18424-.0019.27612-.0011zm-69.487 4.1665v14.375h5.0564c2.1262 0 4.3615-.31202 6.1129-1.3668 1.7514-1.0547 2.9736-2.9004 2.9736-5.7199v-.76408c0-2.8548-1.6037-4.5536-3.3362-5.4513-1.7325-.89779-3.5777-1.0725-4.3387-1.0725zm.83324.83324h5.6347c.62035 0 2.4042.17503 3.9555.9789s2.8862 2.1587 2.8862 4.7117v.76408c0 2.5883-1.0288 4.0777-2.5703 5.006s-3.6409 1.2474-5.683 1.2474h-4.2232z" fill="#7f2d2d"/><path d="m12.074 28.066c-.26581.000038-.48878.22311-.48882.48892v2.7219c-.18878-.11449-.3884-.21625-.60961-.29076-.34695-.11686-.73259-.16932-1.1544-.16932-1.0126 0-1.8959.3625-2.53 1.0677-.6495.71812-.94057 1.7423-.94057 2.9968 0 1.0693.16307 2.0039.6755 2.6524.16061.20326.27193.37454.66967.7031.55865.46149 1.2996.65897 2.1059.65897.42966 0 .81907-.05213 1.1674-.16942l-.02658.0043c.01023-.0013.0204-.003.03047-.0052.30516-.10563.5769-.25255.81707-.43382l.01221.07218c.03924.23299.24586.40765.48212.40767h.88028c.26581-.000038.48878-.223.48882-.48881v-9.7274c-.000031-.26581-.223-.48878-.48882-.48881l-1.0904-.000553zm4.1147.31291c-.29004 0-.57647.09673-.79643.2914-.25482.22522-.34911.5566-.34911.87877 0 .31961.09552.64585.34187.87228.0022.0021.0044.0041.0066.0062.22001.19497.50668.29206.79708.29206.28529 0 .56443-.09996.77979-.28903.25786-.22241.36607-.55445.36607-.88147 0-.3283-.10678-.66372-.37029-.88449-.21476-.18685-.49203-.28573-.77559-.28572zm-3.9035.38735h.66818v9.3052h-.49044l-.09541-.56607c-.04988-.29606-.41836-.39051-.61556-.16413-.25396.29155-.4439.4509-.56884.52002-.43023.23804-.91782.33213-1.3815.33433-.86332 0-1.5178-.27187-2.0107-.81794h-.0003299c-.48328-.54058-.74003-1.3625-.74003-2.4965 0-1.1468.26283-1.9779.75959-2.5272.0002766-.000553.0005753-.000608.000863-.000885.5027-.55959 1.157-.83652 2.01-.83652.36328 0 .67314.04597.93095.13279.2645.08908.48702.20738.67142.35289.0011.000885.0022.0017.0032.0026.08812.06786.17364.17689.29498.31486.22408.25457.643.07358.61124-.26408-.0081-.08626-.01518-.13494-.02204-.22258-.01722-.22181-.02572-.40083-.02572-.53366zm3.9035.31259c.12939 0 .23177.03898.31821.11496.0025.0022.0049.0043.0075.0064.07014.05824.12015.16105.12015.34889 0 .18328-.04965.28864-.12328.35192-.0012.000996-.0024.002-.0036.003-.08648.07634-.18925.1155-.31896.1155-.14038 0-.24602-.04041-.33052-.11443-.06733-.0623-.11496-.16866-.11496-.35602 0-.19323.04816-.29735.11259-.35429h.000221c.0848-.0751.19107-.11572.33268-.11572zm-.81653 1.3302c.0019.0019.0037.0038.0056.0056.0016.0015.0032.003.0049.0045zm22.585.26623v.000774h-.000443c-.62943 0-1.1921.09971-1.6778.31842-.48428.21808-.88053.55357-1.1478.98887-.26924.43438-.3948.95052-.39481 1.5135 0 .54508.14187 1.0555.42928 1.489.00057.000885.0012.0018.0017.0027.000697.0011.0015.002.0022.003.13453.19682.2954.35879.46937.49724-.07221.06704-.14449.1339-.20529.21134h-.00011c-.00093.0012-.0022.002-.0031.0033h-.00011c-.000443.000553-.000941.0011-.0014.0016-.21029.27294-.31821.60841-.31821.95494 0 .27969.08528.5497.23846.7813-.22677.11205-.4383.25105-.61631.43847-.000907.00094-.0018.0019-.0027.0028-.36476.3899-.55872.89428-.55872 1.4341 0 .74578.35937 1.4029.98617 1.8131.000332.000222.000554.000554.000863.000758l.000111.000111.000553.000332.000111.000111c.000332.000221.000111-.000009.000442.000221.0493.03237.06764.03497.06289.03306-.000332-.000111-.0033-.0015-.0039-.0017.61993.38761 1.4231.55581 2.3973.55581 1.2793 0 2.3051-.20316 3.0698-.68017.76838-.47933 1.2019-1.2569 1.2019-2.159 0-.71195-.27912-1.3454-.81437-1.7504-.0038-.0035-.0077-.0069-.01167-.01016-.000165 0-.000442.000011-.000647-.000553-.53303-.40001-1.2442-.56618-2.0922-.56618h-1.2679c-.2006 0-.36211-.01571-.47931-.03933-.0731-.01788-.09299-.03268-.11205-.0443.003-.05618.01401-.0891.05186-.13744.03956-.04686.12805-.11472.24095-.18455.16173.01962.32387.03944.48925.03944.92661 0 1.7197-.22282 2.3137-.71183.0026-.0022.0051-.0045.0076-.0068.58863-.49261.89984-1.2028.89984-2.0024 0-.33043-.05232-.646-.16359-.93722-.0019-.0049-.0044-.0079-.0063-.01275l.60508-.07131h.000111c.24312-.02871.4313-.24022.43155-.48504v-.66938c-.000042-.26581-.22301-.48878-.48882-.48881h-2.4253c-.08602-.02129-.17457-.04151-.27574-.05608-.13413-.02333-.27265-.03917-.41534-.04841h-.000111c-.0016 0-.0031-.000553-.0048-.000553-.0069-.000554-.01382-.000719-.02075-.000775-.000498-.000044-.001.00005-.0015 0h-.000553c-.12923-.01161-.25899-.01923-.38952-.01923zm-2.7386 10.487c-.01659-.01038-.0364-.01696-.05273-.02766.0069.0042.02066.0127.02777.01632.01556.0079.0214.01.02496.01135zm-.05273-.02766c-.0016-.000951-.006-.0035-.0063-.0037.000553.000332.000974.000835.0015.0012.0015.000968.0033.0015.0048.0025zm.26775-5.4349.02626-.02971c-.000653.000664-.0013.0013-.0019.0019-.0086.0088-.01667.01812-.02431.02777zm-13.394-4.9998v.000553c-.000276 0-.000498.000553-.000758.000553-.50356.000034-.98885.06142-1.4524.18552-.4454.11923-.84708.26455-1.2049.43944h-.000221c-.23014.11276-.33508.39426-.2349.63014l.33463.78747h.000111c.10606.24973.40851.36655.65489.25284h.00011c.28521-.13185.58821-.24697.90956-.345.29364-.08958.60294-.13506.93452-.13506.40732 0 .64732.09242.80497.23263.10957.09743.22479.34769.23339.82809l-.76499.03099c-.000724.000022-.0013 0-.0021 0h-.0019c-1.21.03522-2.1573.23378-2.8458.67747-.68946.44422-1.078 1.1626-1.078 1.9866 0 .52351.11284.99982.36802 1.3918h.00011c.000924.0014.0019.0029.0028.0043.2485.37317.59763.66 1.0144.8403.01602.0045.03234.0079.04884.01016l-.04678-.0095c.41112.17557.86886.25791 1.361.25791.44826 0 .84231-.04326 1.1882-.14457.0062-.0022.01224-.0046.01826-.0071.0059-.0022.0118-.0045.01761-.0069.0073-.0026.01443-.0054.0215-.0084.000276 0 .000575-.000553.000863-.000553.31674-.10222.6086-.2457.86234-.4389.0011-.000886.0022-.0017.0032-.0026.000786-.000608.0016-.0012.0024-.0018.02818-.02202.05117-.04803.07812-.0711l.03479.16737c.04665.2247.24885.38935.47833.38952h.79504c.26581-.000038.48878-.22311.48882-.48892v-4.6574c0-.88941-.23988-1.6388-.7893-2.1233-.54031-.47639-1.3071-.6725-2.2348-.6725zm8.3736.11637c-.36729 0-.72307.05031-1.0626.15127-.34008.09698-.65514.24462-.93668.44257h-.000111c-.000885.000609-.0019.000996-.0028.0016-.000686.000775-.0014.0016-.0021.0024-.01013.007-.01771.01574-.02766.0229l-.01437-.08654c-.03884-.23339-.24563-.4086-.48222-.40865h-.88028c-.26581.000039-.48878.22301-.48882.48882v6.8514c.000043.26581.22301.48878.48882.48882h1.0905c.2658-.000039.48877-.22301.48882-.48882v-3.5884c0-.75194.15368-1.2652.38714-1.5745h.00011c.20882-.27665.58056-.4497 1.2911-.4497.48408 0 .74659.11276.90135.27433.000929.000941.0019.0019.0028.0028.16157.16599.27542.44788.27542.94068v4.3949c.000043.26581.22301.48878.48882.48881h1.0771c.26581-.000038.48877-.223.48882-.48881v-4.4635c0-.95936-.24546-1.756-.81491-2.2729-.000443-.000553-.000863-.0011-.0013-.0016-.55464-.5066-1.3368-.72793-2.267-.72793zm15.51.02074h-.000553c-.72589 0-1.3897.15663-1.9617.48233l-.0012.0012c-.57522.32524-1.0298.80734-1.3401 1.4112-.31967.60922-.46915 1.3267-.46915 2.1324 0 .60689.08227 1.1644.25662 1.667.17316.49912.43035.93675.77104 1.2954.33898.35688.75311.63155 1.2256.81815.01607.0043.03243.0075.04895.0094l-.04668-.0088c.44678.17376.94037.26022 1.4721.26915v.002c.01756-.000006.03471-.000774.05219-.000996.01243 0 .02459.000775.03706.000775v-.0015c.5317-.0089 1.0253-.09529 1.4721-.26904l-.04668.0088c.01652-.0019.03288-.0051.04895-.0094.4725-.1866.88663-.46127 1.2256-.81815.34069-.35866.59789-.79629.77104-1.2954.17435-.50259.25662-1.0601.25662-1.667 0-.80562-.14948-1.5231-.46915-2.1324-.31038-.6039-.76491-1.086-1.3401-1.4112l-.0013-.0013c-.56027-.31897-1.2088-.47473-1.9171-.48115-.01496 0-.02961-.0011-.04463-.0011zm-30.293.10459c-.2658.000039-.48877.22301-.48882.48881v7.9578c0 .34376-.08883.47738-.106.49216-.08733.07521-.19007.11918-.40356.11918-.15163 0-.28113-.01102-.38617-.02971-.000984-.000166-.0019-.000442-.0029-.000647-.0039-.000719-.0079-.0014-.01188-.0019-.11633-.0173-.23034-.04295-.34241-.07736l-.000222-.000111c-.30482-.09335-.63163.1482-.63198.46699v.84497c.000277.20772.13465.39517.33128.46213h.00011c.15187.05162.31888.0917.50221.12404.20567.04062.42881.05846.67347.05846.50425 0 .95663-.08861 1.3383-.29778.37462-.2053.66917-.5198.85067-.9074.000221-.000442.000553-.000846.000757-.0013.000111-.000443.000222-.000935.000332-.0014.17708-.37528.25608-.80482.25608-1.2752v-7.9329c-.000042-.26581-.22301-.48878-.48882-.48881h-.000111zm22.328.43403c.11767.000039.23574.006.35451.0175.01088.0011.02181.0016.03274.0016l-.02064-.000663c.12362.0079.24024.0214.34911.04052.0038.000664.0076.0012.01134.0017.09857.01399.18169.03164.25716.05208.0298.0081.06054.0122.09141.01221h2.2455v.2698l-.93592.11043c-.25638.03024-.39293.31814-.25413.53581.0911.14285.16176.24579.20573.36089.07731.20237.11745.4304.11745.68741 0 .63046-.21431 1.1044-.65294 1.4693h-.000111c-.43916.36119-1.0525.55159-1.868.55159-.16603 0-.34305-.01667-.52804-.04333-.07487-.01078-.15122.003-.21761.03922-.20949.11428-.38854.23906-.52588.40454-.0017.002-.0034.0041-.0051.0062-.13297.16783-.20886.38804-.20886.60475 0 .1641.07799.3628.18876.46915.0029.0028.0059.0056.009.0083.12376.1108.27818.17833.46288.22139.0031.000719.0062.0014.0093.002.18094.03704.38738.05403.62485.05403h1.2679c.75578 0 1.3067.15159 1.6725.42626.000608.000553.0012.000885.0018.0014.3646.27125.54457.65236.54457 1.1992 0 .694-.2786 1.1946-.8725 1.5651v.000111c-.59815.37314-1.496.57396-2.6993.57396-.91977 0-1.6058-.16568-2.069-.47012l-.000442-.000221c-.000013-.000009-.000719-.000387-.000758-.000443-.000055-.000042-.000166-.000052-.000221-.00011l-.000554-.000332c-.000575-.000388-.0012-.000797-.0017-.0012-.45861-.29884-.67185-.69017-.67185-1.2293 0-.37954.12072-.68892.36899-.95483h.00011c.1879-.19776.46712-.34403.81718-.45273.27298-.08482.3347-.44338.10578-.61458-.07604-.05685-.14313-.11978-.20194-.19179-.10109-.12893-.15084-.27233-.15084-.44268 0-.2068.05755-.37782.17245-.52717h.000111c.08874-.11422.24545-.2465.44441-.37969.22024-.14749.20299-.47675-.03144-.60043-.26503-.13979-.48232-.31365-.64754-.55472-.20748-.31337-.31226-.67524-.31226-1.1013.000009-.46068.09931-.83766.29-1.1451.000332-.000554.000653-.000996.000974-.0015.19147-.31216.4662-.54952.83911-.71745.37331-.16812.83538-.25662 1.391-.25662h.000973zm-15.918.02463c.828 0 1.4087.17796 1.7714.49768.35806.31573.55224.83103.55224 1.5982v4.4462h-.41178l-.13247-.63695c-.05871-.28188-.41368-.37627-.60464-.16078-.16185.1828-.31553.34946-.45683.45997-.49808.3736-1.1215.4605-1.6838.46267-.70762-.01379-1.3994-.20782-1.7936-.78509h-.000111c-.16547-.25421-.25456-.58568-.25456-1.0097 0-.62018.2421-1.0663.7571-1.3982.51767-.33358 1.3475-.53339 2.4909-.56629.0013.000006.0027.000006.004 0l1.108-.04473c.18764-.0076.33582-.16196.33582-.34976v-.28536c0-.62391-.13653-1.1041-.47131-1.4018-.31403-.2793-.75062-.40962-1.2701-.40962-.39602 0-.7767.05506-1.1388.16553-.27798.0848-.54193.18544-.79816.29487l-.16985-.4c.26754-.1174.55975-.22484.894-.31431.40157-.10751.82485-.16164 1.2718-.16164.000276 0 .000575-.000553.000863-.000553zm8.3729.11594h.000332c.64417 0 1.1436.11914 1.5173.33951.19857.1171.34358.26268.43852.3772.28549.34439.42739.86904.42739 1.5857v4.2524h-.6549v-4.1838c0-.60409-.14861-1.0943-.47336-1.4283-.3216-.3353-.80744-.48947-1.4062-.48947-.83341 0-1.4765.23341-1.8498.72793-.36349.48152-.52858 1.1511-.52858 1.9962v3.3773h-.66807v-6.4292h.49l.09357.56337c.04958.29854.41542.38612.61837.16164.28733-.31783.46511-.53433 1.1263-.72674.0014-.000553.0028-.00083.0042-.0013.27291-.0814.56034-.12262.86483-.12264zm15.508.02161.000442.000554c.62668 0 1.1612.13172 1.6159.3906.000553.000553.000963.000774.0014.0012.4583.25868.81031.62905 1.0645 1.1241.000553.000996.001.002.0015.003.25671.48868.38952 1.0884.38952 1.8083 0 .54354-.07392 1.022-.21804 1.4375-.1446.4168-.35059.76213-.61718 1.0428-.61487.61818-1.4175.85662-2.2287.87066-.86082-.01735-1.6651-.27039-2.2453-.87099-.26659-.28066-.47258-.62598-.61718-1.0428-.14413-.41548-.21804-.89395-.21804-1.4375 0-.71992.1328-1.3196.38952-1.8083.000553-.000996.000957-.002.0015-.003.25419-.49509.6062-.86547 1.0645-1.1241.000553-.000554.000852-.000775.0014-.0012.45432-.25865.98829-.39037 1.6143-.3906zm-30.08.10384h.66807v7.7218c0 .3029-.03689.5656-.11392.78862-.05624.16284-.20161.40647-.28236.50848-.09043.11424-.21198.1999-.34786.27437h-.000111c-.24914.13654-.58005.21156-1.0018.21156-.21227 0-.39292-.01583-.54154-.04549-.0026-.000553-.0053-.001-.0079-.0015-.10123-.01779-.17617-.04114-.2577-.0631v-.41534c.05678.0118.11242.0298.16975.03836.15431.02727.32213.0403.50589.0403.33277 0 .63604-.09559.86029-.28871.25941-.2234.34922-.57369.34922-1.0226zm22.077.08082c-.53502 0-.98773.14983-1.3039.46051-.31442.30914-.46375.7633-.46375 1.3072 0 .50488.15814.93853.4752 1.2306.31863.2935.76814.43079 1.3056.43079.55422 0 1.0081-.13546 1.3211-.43338.30956-.29464.45964-.73102.45964-1.2468 0-.54754-.14882-1.0007-.4658-1.3028-.31578-.30502-.77347-.44624-1.328-.44624zm-27.946.23415c-.71657 0-1.3118.28834-1.6784.82972-.0000553 0-.000166 0-.0002213.000553-.0000553 0-.000166-.000011-.0002213.000554-.36484.53494-.53539 1.2455-.53539 2.119 0 .86791.16707 1.5616.5302 2.0703.0004426.000664.0007192.0015.00119.0022.0006804.0011.00136.0022.00205.0033.36998.50901.96303.77342 1.6808.77342.80712 0 1.4345-.227 1.8031-.70762.36135-.47115.52274-1.1361.52274-1.985v-.18746c0-.89594-.15385-1.6038-.49389-2.1221-.000111 0-.000221-.000553-.000332-.000553-.34643-.5345-.99137-.79482-1.8294-.79535-.0007579 0-.00151-.000554-.00227-.000554zm35.976.03328c-.00094 0-.002.000553-.0029.000553-.0098.000005-.01903.000774-.02874.000885-.0059-.000033-.01149-.000553-.0174-.000553-.00094 0-.0021-.000553-.003-.000553-.0062 0-.01226.000553-.01848.000553v.0016c-.50706.0099-.94315.12448-1.2896.35937-.35547.24101-.62187.5914-.78768 1.024v.000553c-.16496.42642-.24387.92266-.24387 1.4882 0 .56987.07923 1.0725.24376 1.5065.16561.43684.43386.79159.79319 1.0368.34683.23962.78192.35728 1.2842.36661v.0014c.0085.000056.01663.000775.02518.000775.0085 0 .0166-.000719.02507-.000775.0046.000023.0091.000554.01372.000554.0085 0 .01667-.00072.02517-.000775v-.000885c.50223-.0093.93735-.127 1.2842-.36661.35933-.24525.62758-.6.79319-1.0368.16452-.43401.24376-.93666.24376-1.5065 0-.56551-.0789-1.0617-.24387-1.4882v-.000553c-.1658-.43259-.43221-.78297-.78768-1.024-.34643-.23489-.78252-.34951-1.2896-.35937v-.0023c-.0062 0-.01224-.000553-.01848-.000553zm-8.03.43263c.44115 0 .68853.10154.84214.25014.000969.000941.0019.0019.0029.0028.14939.14219.24873.3669.24873.79611 0 .39201-.09059.59549-.24225.73981-.14603.139-.39503.24042-.83846.24042-.42365 0-.66997-.09707-.83133-.24571-.16252-.14969-.24949-.34088-.24949-.71572 0-.42434.09874-.65489.25456-.8081.16602-.16305.39955-.25975.81318-.25975zm-27.946.23371v.000554h.000332c.70898 0 1.048.17287 1.2447.47682.000608.000996.0012.0019.0018.0029.000166 0 .000277.000553.000443.000775.22883.34902.37904.92504.37904 1.7376v.18747c0 .75718-.15399 1.2665-.37828 1.5589-.20502.26731-.56366.43371-1.2476.43371-.56623 0-.87042-.15019-1.1134-.48374-.0000553 0-.0001106.000011-.0002213-.000553-.24509-.34253-.40054-.88759-.40054-1.6651 0-.7818.1557-1.3466.41394-1.725.0003872-.000553.0007192-.0012.00108-.0017.25037-.36999.54403-.52244 1.0988-.52253zm35.944.03469c.42778.0028.73065.09342.94727.2403.23498.15932.40344.37284.52706.69562 0 .000553.000554.0011.000648.0016.12592.3253.19697.73603.19697 1.2361 0 .50454-.07121.92299-.19838 1.2584-.12371.32634-.29396.54363-.53387.70718-.000885.000609-.0017.0011-.0026.0017-.21744.15026-.51132.24014-.92512.24376-.42019-.0019-.71734-.09236-.9369-.24408-.000885-.000609-.0017-.0011-.0026-.0017-.23992-.16355-.41016-.38084-.53387-.70718-.12717-.33546-.19838-.75392-.19838-1.2585.000006-.50006.07106-.91079.19698-1.2361 0-.000553.000647-.0011.000647-.0016.12363-.32278.29209-.5363.52706-.69562.2145-.14544.51389-.23548.93506-.23998zm-22.572 1.8818-.94565.03792h.0068c-.0043 0-.0086.000553-.01297.000553-.91758.03408-1.5716.1628-2.0076.45424-.41063.27451-.6456.71952-.6456 1.2194 0 .4309.1586.81245.45867 1.0379.29373.22072.67561.32361 1.1186.32361.67545 0 1.2564-.18354 1.7044-.55494h.000111c.45799-.37974.68719-.9664.68719-1.6816v-.48719c-.000055-.19876-.16542-.35759-.36402-.34965zm-.33592.71399v.12285c0 .57927-.14764.90517-.43404 1.1426-.31142.25814-.70339.39384-1.2577.39384-.33803 0-.5514-.0729-.69811-.18315-.12481-.09378-.17925-.18457-.17925-.47822 0-.32462.07487-.46376.33474-.63749.21765-.14551.79061-.30497 1.6444-.33669h-.01178c.0044 0 .0088-.000553.01318-.000553zm17.223.16348-.01361.01254c.004-.0034.0079-.007.01167-.01059.000653-.000664.0013-.0013.0019-.0019zm-31.97 1.4811.0002212.000553.000332.000554c.00495.009.010279.01774.015992.02625zm27.69.15915c.000713.00083.0015.0015.0022.0024l.0031.0039c-.0017-.0021-.0035-.0042-.0053-.0063zm-13.194.51508c-.0012.000885-.0023.0018-.0035.0027.000708-.000554.0013-.0012.0021-.0017zm-4.0704.04689c.000968.0016.0019.0033.0029.0049.0012.0019.0024.0038.0037.0057zm18.66.14576v.000553c-.34494 0-.65433.05089-.92555.15883-.27051.10767-.49664.27752-.65197.49865-.0012.0017-.0024.0034-.0036.0052-.15316.22676-.22604.50796-.22604.81761 0 .42062.2273.80941.596 1.0253l.000111.000111c.37951.22616.88139.32361 1.5132.32361.60871 0 1.1183-.05861 1.5365-.18358.000166-.000043.000276-.000053.000442-.000111.4188-.11979.7493-.29858.97785-.55527.22605-.24504.34954-.56687.34954-.90405 0-.30671-.07584-.57591-.25197-.76682-.0015-.0016-.003-.0032-.0045-.0048-.16923-.17662-.40716-.28379-.68882-.33517-.000055-.000011-.000166.000017-.000221 0-.0011 0-.0019-.000774-.003-.000995-.0038-.000554-.0076-.00083-.01145-.0011-.2701-.05196-.58712-.07725-.95862-.07725h-1.2466c-.000442 0-.000863-.000554-.0013-.000554zm1.8391 2.6459c.000387-.000111.000885-.000221.0013-.000332.0022-.000664.0043-.0013.0065-.0021zm-3.0501-.13992c.000387.000222.000675.000625.0011.000863.0049.0028.0099.0055.01502.008zm3.364-2.4327c.0075.000554.01501.0011.02248.0019l-.01913-.0019c-.0011-.000011-.0022-.000011-.0034 0zm-2.1534.62692h1.2483c.34526 0 .62804.02476.83814.06613.007.00094.01396.0017.02096.0022l-.0134-.0012c.1815.03277.26551.08632.30783.12945.02487.02772.06515.09472.06515.28946 0 .19201-.04205.29807-.16488.43058-.0024.0025-.0048.0051-.0071.0077-.10984.12355-.3146.25295-.64905.34846-.004.0012-.008.0024-.01199.0038l.0061-.0021c-.3237.09693-.77408.15462-1.3373.15462-.5552 0-.94285-.09847-1.1553-.22518-.0013-.00073-.0026-.0014-.0039-.0022-.21992-.12839-.25013-.18298-.25013-.42172 0-.20434.04142-.32832.10481-.42312.07397-.10424.16866-.18153.3356-.24797.17056-.06789.39076-.10908.66623-.10913zm2.8168 1.3911-.0082.0089c.0023-.0023.0046-.0047.0068-.007.000553-.00057.000879-.0013.0014-.0018zm-26.046.76845c.0018.000388.0036.000736.0054.0011.000791.000166.0018.00005.0026.000221zm21.043.47369c.000222.000166.000443.000387.000648.000553.000221.000111.000442.000166.000647.000332zm20.306 48.029c-.54703.00004-1.0412.09525-1.4663.30794-.3546.17741-.65314.44288-.86107.78274-.14817.24218-.18644.31401-.27795.58668-.12522.37311-.18199.79588-.18199 1.2682v.08212l-.91237.24614c-.2119.05714-.36186.25301-.36164.4725v.49962c.000038.26581.22301.48878.48882.48882h.7852v5.5501c.000038.26581.22301.48878.48882.48882h1.0905c.26581-.000039.48878-.22301.48882-.48882v-5.5501h1.3039c.26581-.000032.48878-.223.48881-.48882v-.81275c-.000038-.26581-.223-.48878-.48881-.48882h-1.3039v-.01135c0-.48479.10256-.78359.19233-.90005.1048-.13432.22096-.19892.54046-.19892.15776 0 .30894.01675.45672.05024.0013.000293.0025.000579.0038.000865.0029.000648.0058.0013.0086.0018.1746.03478.32754.07311.45716.11302.24837.07668.52136-.06183.60627-.30751v-.000216l.28233-.81912v-.000432c.08685-.25285-.05394-.53775-.30751-.62247l-.000553-.00011c-.19958-.066447-.4223-.12304-.6699-.17197v-.000111c-.26482-.05321-.54813-.07799-.85024-.07801h-.000111zm61.107.06861c-.26576.000105-.48867.22305-.48871.48882v9.7272c.00004.2658.22301.48877.48882.48882h1.0838c.26581-.000032.48888-.223.48892-.48882v-2.2597l.31767-.27747 2.2236 2.8387v.000216c.0925.11795.23485.18718.38476.18714h1.3134c.38546.000149.62285-.49006.38358-.79233v-.00011l-2.8378-3.5861 2.5917-2.6179v-.000216c.14224-.14392.17247-.36641.1034-.53193-.0691-.16552-.24855-.30047-.45088-.30059h-1.2808c-.1308.000025-.25648.05268-.34825.14587l-2.3875 2.4221-.003.0032c-.002.0022-.004.0044-.007.0066-.001.0011-.003.0029-.004.004v-4.9687c-.00004-.26581-.22301-.48878-.48882-.48882l-1.0835-.000111zm-61.107.63133.000222.00011c.2643 0 .50222.02183.71366.0644.000553.000072.000774.000144.0012.000216.14514.02868.25711.0633.3772.09649l-.145.42064c-.10579-.02766-.20578-.05686-.32588-.08082-.19849-.04471-.40155-.06688-.60789-.06688-.45435 0-.85095.15933-1.0919.46785-.000111.00016-.000332.000271-.000443.000431-.000387.000432-.000719.000864-.0011.0013-.24491.31631-.33938.75673-.33938 1.3293v.36132c.000033.19327.1567.34994.34997.34997h1.4429v.39038h-1.4429c-.19327.000034-.34994.1567-.34997.34997v5.6889h-.66806v-5.6889c-.000034-.19331-.15677-.35-.35008-.34997h-.92393v-.12717l1.0151-.27391c.15272-.04119.25885-.17969.25889-.33787v-.35019c0-.34938.05634-.64638.10056-.90605.04488-.26356.16218-.50932.32972-.69452s.30377-.3109.5038-.41098c.30541-.1528.68751-.23401 1.1533-.23404zm61.318.06872.66127.000111v4.8398c0 .16095-.007.36176-.0196.60108v.0013c-.006.10465-.009.18322-.014.27196-.018.3364.4031.50151.61859.24257.0613-.07366.10212-.12164.18304-.21988 0-.000326.00055-.000648.00077-.000973.17543-.2076.32265-.3739.43998-.49768v-.000111l2.3286-2.3625h.68632l-2.4536 2.4784c-.12448.12577-.13552.32466-.0257.46342l2.7596 3.4873h-.77471l-2.3879-3.0483c-.12372-.15797-.35463-.17982-.50578-.04787l-.71562.62496c-.0761.06648-.11973.1626-.11971.26364v2.2074h-.66159zm-60.696.43252.0052.0011c-.000995-.000255-.002-.000509-.003-.000757-.00072-.00016-.0014-.000166-.0022-.000326zm49.334 1.4567c-.72589.000055-1.3897.15664-1.9618.48233-.00055.000442-.00061.000743-.001.0013-.57523.32524-1.0298.80734-1.3401 1.4112-.31967.60921-.46915 1.3267-.46915 2.1324 0 .60689.0823 1.1644.25662 1.667.17315.49912.43035.93675.77104 1.2954.33897.35688.7531.63155 1.2256.81815.0161.0043.0324.0075.0489.0094l-.0467-.0088c.44677.17376.94037.26022 1.4721.26915v.0021c.0176-.000006.0347-.000909.0522-.0011.0124.000111.0246.000751.0371.000757v-.0015c.5317-.0089 1.0253-.09529 1.4721-.26904l-.0467.0088c.0165-.0019.0329-.0051.049-.0094.4725-.1866.88663-.46127 1.2256-.81815.34069-.35866.59789-.79629.77104-1.2954.17435-.50259.25662-1.0601.25662-1.667 0-.80562-.14948-1.5231-.46915-2.1324-.31039-.6039-.76491-1.086-1.3401-1.4112-.00055-.000553-.00077-.000854-.001-.0013-.56027-.31897-1.2089-.47472-1.9172-.48114-.015-.00011-.0295-.0012-.0445-.0012l.00055-.000326zm-18.767.03328c-.71741 0-1.3743.16637-1.9351.5088-.000553.000238-.000775.000415-.0012.000648v.000111c-.000553.000321-.0012.000647-.0017.000973-.5541.34183-.98844.83814-1.2867 1.453-.0087.02462-.01453.05014-.01751.07607l.01697-.07466c-.2961.6162-.43598 1.3297-.43598 2.1246 0 .8159.15466 1.5393.48687 2.1474.327.59855.80138 1.0714 1.3958 1.3857.0014.000729.0028.0014.0042.0022.59585.30761 1.2822.45456 2.0369.45456.50918 0 .9594-.03627 1.3559-.1154.39452-.07785.78807-.20101 1.1799-.36726.1799-.07635.29812-.25524.29789-.45068v-.91205c-.000017-.33532-.36366-.57941-.67401-.4524-.35446.14515-.69246.2532-1.013.32566-.30572.06911-.6735.10664-1.1005.10664-.64877 0-1.0637-.1666-1.3693-.48255-.22169-.22917-.3717-.55845-.44139-1.0091h4.4311c.2658-.000042.48878-.22301.48881-.48882v-.64398c0-.68191-.12828-1.3035-.39978-1.8446-.000553-.000216-.000608-.000431-.000885-.000648-.27097-.54388-.67657-.98406-1.1926-1.2886-.52351-.30894-1.1414-.45502-1.8226-.45532-.000664-.000111-.0014-.000222-.002-.000327zm-1.9351.5088.02539-.01405c-.000663.00032-.0013.000646-.0019.000972-.008.0041-.0158.0084-.02344.01307zm-18.363-.49627c-.50361.000027-.98928.0613-1.4529.18541-.44526.11919-.84683.26425-1.2047.43922v.00011c-.2306.11279-.33557.39491-.2348.63101l.33474.78725v.000324c.10635.24955.40879.36595.655.25208.28531-.1319.58785-.247.90913-.345.29356-.08955.60324-.13506.93473-.13506.40718 0 .64722.09265.80497.23296.10958.09745.22478.34766.23339.82798l-.76326.0309-.000553-.000216c-.002.000058-.0037.000373-.0057.000432-1.2101.03521-2.1573.23387-2.8458.67747-.68939.44418-1.078 1.1622-1.078 1.9862 0 .52307.11307.99875.36748 1.3903v.000111c0 .000326 0 .000757.000554.0011 0 .000144.000553.000288.000553.000432v.00011c.00094.0015.0019.003.0028.0044.24839.37302.59722.65996 1.014.8403.000663.000327.0014.000651.002.000973.41098.17552.86882.25813 1.3611.25813.4482 0 .84206-.04362 1.1877-.14479.0015-.000421.0031-.000854.0046-.0013.33805-.10238.64623-.25529.91453-.45921l.0066-.0045c.02857-.0223.05191-.04859.0792-.07196l.03469.16715c.04663.22472.24884.38935.47834.38952h.7947c.2658-.000043.48878-.22301.48882-.48882v-4.6574c0-.88942-.23988-1.6388-.7893-2.1233-.54023-.47631-1.3068-.67224-2.2342-.67228zm-3.3464 6.9613-.0078-.01253c.00094.0016.0019.0032.0029.0049.0016.0026.0032.0051.0049.0077zm-1.8158-6.8458c-.40136.000027-.7836.07481-1.1315.23004-.00083.00036-.0017.000717-.0025.0011 0 .000111-.000554.000327-.000664.000432-.26969.12232-.50978.29081-.72901.48525l-.01394-.14846v-.000326c-.0234-.24812-.23776-.44298-.48698-.4429h-.90599c-.2658.000043-.48878.22301-.48882.48882v6.8515c.000039.2658.22302.48877.48882.48882h1.0966c.26581-.000043.48878-.22301.48882-.48882v-3.6758c0-.21506.01996-.40885.06757-.58229.06068-.22102.05744-.20499.12561-.35247.07972-.17246.17676-.31532.29109-.4365.0012-.0012.0024-.0024.0034-.0037.14906-.16123.31115-.27555.50254-.35721.0011-.000426.0023-.000858.0034-.0013.19753-.08604.40009-.12826.62593-.12826.10541 0 .2229.007.35127.02183.12725.01468.23836.03453.33268.05781v-.000107c.27549.06818.56121-.12442.6014-.40529v-.000216l.13809-.96207v-.000216c.03641-.25306-.13613-.49794-.38671-.54878-.14507-.02957-.30235-.05001-.47283-.06375-.0019-.000155-.0034-.000601-.0054-.000756-.0092-.000728-.0185-.0011-.02777-.0011h-.000996c-.15873-.01551-.31411-.02528-.46385-.02528zm13.271 0c-.35048.000072-.68898.04789-1.0098.14641-.31642.09714-.60864.24359-.87012.43544l-.0084-.0496v-.000431c-.03965-.23259-.24609-.40681-.48201-.40681h-.87996c-.26581.000032-.48878.22311-.48881.48892v6.8515c.000038.26581.223.48878.48881.48882h1.0901c.2658-.000043.48878-.22301.48882-.48882v-3.6259c0-.41217.0417-.75698.11408-1.0317.04032-.1585.10787-.33204.19392-.4649.07977-.1217.1749-.21275.29015-.28755.18544-.12034.46979-.20238.88309-.20238.27665 0 .46738.05206.5919.12318.0032.0018.0063.0036.0095.0053v.000217c.13309.07209.21251.15602.28493.31864v.000107c.000553.000679.000553.0014.000885.0021.000664.0015.0013.003.002.0045.07424.16034.12577.39943.12577.71983v4.4386c.000038.2658.22301.48877.48881.48882h1.0836c.26581-.000032.48888-.223.48892-.48882v-3.8323c0-.67704.14556-1.1211.36132-1.3835.20427-.24844.53154-.39654 1.1398-.39654.40536 0 .60718.09372.75192.25564.0018.002.0037.0039.0055.0058.1425.15442.25121.43259.25121.91226v4.4386c.000038.26581.223.48878.48881.48882h1.077c.2658-.000043.48878-.22301.48881-.48882v-4.4886c0-.94523-.21972-1.725-.7504-2.2426v-.000649c-.000553-.000326-.000774-.000542-.0011-.000864-.5174-.50769-1.2604-.73279-2.1342-.73279-.45953 0-.89906.0786-1.3088.23486-.3008.13401-.32104.11349-.62.32261-.14028.09873-.2687.21071-.38646.33275-.17642-.21643-.38875-.40556-.65046-.54079-.45556-.24166-.99453-.3494-1.5985-.34943zm39.353 0c-.40143 0-.78385.07479-1.1318.23004-.00083.00036-.002.000717-.002.0011 0 .000111-.00055.000327-.00066.000432-.2695.12223-.50945.29056-.72858.48482l-.0138-.14803v-.000326c-.0234-.24809-.23768-.44294-.48687-.4429h-.90642c-.26583.000022-.48889.223-.48893.48882v6.8515c.00004.26582.2231.48879.48893.48882h1.0969c.26582-.000022.48878-.223.48882-.48882v-3.6758c0-.30372.0467-.56319.13258-.78876.003-.01275.005-.02566.007-.03868l-.007.03663c.0897-.23904.20626-.4272.35083-.58044.001-.0012.002-.0024.003-.0037v-.000216c.14885-.16093.31126-.27534.50265-.357.001-.000426.002-.000859.003-.0013.19753-.08604.40009-.12826.62594-.12826.10541 0 .2226.007.35105.02183.12731.01468.23878.03458.33289.05781v-.000107c.27565.06823.56157-.12459.60152-.40573v.000431l.13798-.96229v-.000216c.0364-.25306-.13613-.49795-.38671-.54878-.14505-.02956-.30239-.05001-.47283-.06375-.002-.000155-.003-.000604-.005-.000756-.009-.000728-.0185-.0011-.0278-.0011h-.001c-.15877-.01551-.31429-.02528-.46407-.02528zm-22.946.12534c-.31607-.00001-.55731.32073-.46969.62442v.000326l1.9837 6.8514c.06005.20757.25349.35308.46958.35311h1.2282c.2083-.00003.39626-.13494.463-.33225v-.000216l1.3391-3.9671c0-.000863.000553-.0017.000553-.0026.01802-.05038.03157-.09963.04852-.14976.01439.04358.02764.08496.04235.12912l1.2793 3.9836v.000326c.06463.20054.25424.33878.46494.33895h1.2678c.21596.000143.40947-.14499.4698-.35235v-.00011l1.9901-6.8514v-.000111c.0883-.30392-.15319-.62547-.4697-.62528h-1.1102c-.21784.00016-.41235.14819-.47066.35808-.33548 1.2257-.81795 2.9179-1.1029 3.9774-.0034-.01028-.0064-.02164-.0097-.03187 0-.000793-.000553-.0016-.000553-.0024l-1.2805-3.9628v-.000327c-.06496-.20018-.25447-.33795-.46494-.33798h-1.1753c-.20904-.000011-.39769.13578-.46385.33409l-1.3265 3.9694c-.0037.01565-.0063.03154-.0078.04754l.0074-.04603c-.0035.01068-.007.02337-.01048.03414-.33495-1.0613-.71633-2.6166-1.0903-3.9798v-.000431c-.05802-.21053-.25306-.35898-.47142-.35894zm-30.816.10751c-.0024.0011-.0048.0022-.0071.0033-.000663.000321-.0013.000755-.0019.0011zm52.624 0c-.002.0011-.005.0022-.007.0033-.00066.000321-.001.000755-.002.0011zm-7.2602.30621.00055.000327c.62668 0 1.1612.13172 1.6159.3906.00055.000387.00094.000807.001.0012.4583.25868.81031.62905 1.0645 1.1241.00055.000996.001.0021.001.0031.25672.48868.38952 1.0884.38952 1.8083 0 .54354-.0739 1.022-.21804 1.4375-.1446.4168-.3506.76213-.61718 1.0428-.61487.61818-1.4174.85662-2.2286.87066-.86083-.01735-1.6651-.27039-2.2453-.87099-.26659-.28065-.47258-.62598-.61718-1.0428-.14413-.41548-.21804-.89396-.21804-1.4375 0-.71992.1328-1.3196.38952-1.8083.00055-.000996.00083-.0021.001-.0031.25419-.49509.6062-.86547 1.0645-1.1241.00056-.000388.00083-.000801.001-.0012.45428-.25863.98822-.39035 1.6141-.3906zm-18.766.03296h.000554v.000111c.58304 0 1.0683.12195 1.4688.35829.40327.23797.708.5672.92306.99978 0 .000216.000553.000432.000774.000648.215.42849.32556.93602.32556 1.5306v.43274h-4.61c-.20004-.000019-.35943.16734-.34965.36715.03738.76069.25116 1.3876.6779 1.8287.45035.46551 1.094.69573 1.8725.69573.46763 0 .88527-.04027 1.2549-.12382.2705-.06115.5495-.15072.83274-.25413v.46386c-.30717.12188-.61195.21798-.91345.27747 0 .000072-.000553.000144-.000774.000216-.33654.06721-.74375.10189-1.2196.10189-.66391 0-1.2324-.12728-1.7145-.3759-.4761-.25195-.84217-.61526-1.1082-1.1021-.26407-.48334-.40119-1.0841-.40119-1.8118 0-.71293.1249-1.3177.36694-1.8214v-.000432c.2471-.50894.58611-.89135 1.0229-1.161v-.000111c.4407-.26936.95971-.40656 1.5708-.40659zm-20.298.01243v.000111c.82836 0 1.4089.17748 1.7716.49724.35806.31573.55224.83113.55224 1.5983v4.4462h-.41167l-.13215-.63706c-.05859-.28204-.41376-.37652-.60475-.16089-.16168.18266-.31516.34917-.45619.45964v.000111c-.19702.14998-.42718.26581-.6939.34673-.25835.07557-.58893.11648-.9906.11648-.41381 0-.77364-.06867-1.0849-.2014v-.000111c-.30157-.13048-.53388-.32303-.70827-.58422-.000045-.000067 0-.00015 0-.000216-.16552-.25428-.25489-.58588-.25489-1.0098 0-.62015.24215-1.0659.75721-1.3977.51814-.33382 1.3483-.53386 2.4925-.56661v-.0012c.000885.000438.0017.000868.0026.0013l1.1083-.04473c.18747-.0078.33545-.16202.33549-.34965v-.28536c0-.62392-.13664-1.1041-.47142-1.4018-.31392-.27919-.75049-.40994-1.2701-.40994-.39595 0-.77677.05505-1.1389.16553-.27802.08481-.54191.18544-.79805.29487l-.17007-.39989c.26748-.11732.55972-.22459.89411-.3141.40153-.10748.82503-.16173 1.272-.16175zm-5.1623.11561c.13529.000008.27793.0077.42734.02334.01116.0011.02238.0017.0336.0017l-.02399-.000972c.0754.006.13158.01754.19741.02636l-.07715.53744c-.06429-.01086-.12225-.02561-.19157-.0336-.15148-.01747-.29516-.02636-.43144-.02636-.3153 0-.61969.06243-.90351.18574l.01826-.0071c-.0062.0022-.01239.0045-.01848.007 0 .000082-.000553.000215-.000553.000326 0 .000061-.000553.000048-.000553.000111v.00011c-.28004.11966-.52933.29674-.74024.52469-.20264.21498-.36265.47348-.47923.76865-.04836.12679-.09368.27369-.12063.39029-.04978.21782-.07449.44879-.07449.69184v3.4647h-.67433v-6.4293h.50286l.07261.77655c.03036.32353.44682.43468.63436.16931.12344-.17471.22514-.32739.33658-.43792l-.0017.000972c.000885-.001.004-.0047.0058-.0069l-.0013.0031c.1917-.19365.41235-.34677.66483-.46126.25055-.11163.53039-.16885.84538-.16888zm13.272 0h.000553c.52149 0 .94269.09336 1.2722.2685.0013.000693.0027.0014.004.0021.27696.14273.47816.36383.63328.66159.12198.23415.44262.2493.59892.03652.39288-.53485 1.3803-.962 2.0564-.96866.60722-.006 1.0717.1175 1.414.34582.21659.15612.21948.16634.37677.35512.25538.34624.39508.86281.39508 1.5759v4.2774h-.65478v-4.2274c0-.58533-.13449-1.0579-.43566-1.3853-.29367-.32805-.74148-.48849-1.273-.48849-.73326 0-1.318.21111-1.6805.65197-.35861.43604-.52069 1.0522-.52069 1.8281v3.6212h-.66137v-4.2274c0-.39234-.05928-.72965-.18995-1.0125-.12445-.27875-.32937-.50598-.58833-.64689-.25953-.14769-.57458-.21437-.93712-.21437-.505 0-.93024.09836-1.2642.31507-.23122.15005-.42361.35429-.56109.60668-.10321.18949-.15315.27527-.25723.71094-.07419.31051-.09925.66284-.09925 1.0537v3.4148h-.66787v-6.4293h.49054l.09109.53863c.05089.30099.43578.39716.62226.15548.11287-.14624.22936-.2706.35926-.36704.19913-.14783.42205-.25991.67174-.33657.25-.07677.51769-.1155.80507-.1155zm39.352 0c.13533.000004.278.0077.42744.02334.0112.0011.0224.0017.0336.0017l-.024-.000972c.0754.006.13158.01754.19741.02636l-.077.53744c-.0644-.01087-.12252-.0256-.1919-.0336-.15144-.01747-.29492-.02636-.43123-.02636-.3156 0-.62022.06241-.90426.18595 0 .000077-.00056.000041-.00056.00011v.000222c-.27978.11958-.52904.29654-.73992.52436-.18003.19094-.32606.41626-.43811.67095-.053.11952-.10097.25731-.13415.37787-.0683.24968-.10208.51766-.10208.80217v3.4647h-.67468v-6.4293h.50319l.0726.77623c.0303.32346.4466.43473.63425.16953.0789-.11157.14017-.22188.21831-.3026.17983-.18575.17462-.18474.35458-.34343.12431-.10963.27544-.18536.43089-.25585.25061-.11165.53057-.16887.84559-.16888zm-.96985.71388.0203-.0078c-.007.0023-.0133.0048-.0199.0075 0 .000072-.00055.000226-.00055.000326zm-21.695-.58865.68773.000111c.48303 2.0461 1.0135 3.3779 1.3526 5.0414.000554.0026.000941.0053.0015.0079-.0012-.0051-.000553.0035.007.03641.08142.36144.59511.36518.68179.005.42714-1.7077 1.0156-3.243 1.6331-5.0906h.8699c.5441 1.8367 1.1623 3.3796 1.5957 5.0552.09141.35469.59725.3485.67995-.0083.37997-1.6268.89352-3.341 1.3675-5.0469h.66828l-1.8669 6.4292h-.95504c-.48919-1.6866-1.1783-3.4751-1.6089-5.0962-.09253-.34892-.58861-.34638-.67758.0035-.46883 1.7068-1.1041 3.4524-1.6571 5.0926h-.91797zm14.294.16606c-.00094 0-.002.000649-.003.000649-.01.000007-.019.000781-.0287.000864-.006-.000032-.0115-.000648-.0174-.000648-.00094 0-.002-.000542-.003-.000542v.00011c-.006 0-.0123.000377-.0185.000432v.0016c-.50706.0099-.94315.12448-1.2896.35937-.35547.24101-.62187.59139-.78768 1.024v.000648c-.16496.42642-.24387.92266-.24387 1.4882 0 .56987.0792 1.0725.24376 1.5065.16561.43685.43386.79159.79319 1.0368.34683.23962.78192.35728 1.2842.36661v.0014c.009.000055.0166.000756.0252.000756.008 0 .0166-.000695.0251-.000756.005.000018.009.000431.0137.000431.009 0 .0167-.0007.0252-.000756v-.000756c.50223-.0093.93735-.12699 1.2842-.36661.35933-.24525.62758-.6.79319-1.0368.16452-.43401.24376-.93667.24376-1.5065 0-.56551-.0789-1.0617-.24387-1.4882v-.000648c-.1658-.43259-.43221-.78298-.78768-1.024-.34643-.23489-.78252-.34951-1.2896-.35937v-.0023c-.006-.000055-.0122-.000431-.0185-.000431v-.000111zm-18.806.0084-.000553.000111c-.6235.000072-1.1601.20585-1.5448.60908-.35766.37491-.55043.88536-.63685 1.4754-.03094.21124.1328.40073.3463.40076h3.4834c.20042-.000013.3599-.16798.34954-.36812-.01863-.35892-.07734-.69627-.20649-.99989-.14036-.34425-.36674-.62642-.66288-.81945 0-.000072.000011-.000144-.000554-.000216-.30445-.20255-.68644-.29761-1.1272-.29768zm1.1168.29076.01091.0069c-.000553-.000226-.000608-.000531-.000995-.000756-.0033-.0021-.0066-.0042-.0099-.0062zm-12.553.07261.0066.0036c-.000553-.000249-.00083-.000615-.0013-.000865-.0018-.000915-.0035-.0018-.0053-.0027zm4.9138.27002.0072.0078c-.000553-.000382-.000553-.000917-.000885-.0013-.0021-.0022-.0042-.0044-.0064-.0065zm25.296.05921c.42778.0028.73065.09342.94727.2403.23498.15932.40344.37285.52706.69562 0 .000553.00055.0011.00067.0016.12591.3253.19696.73603.19697 1.2361 0 .50453-.0712.923-.19838 1.2585-.12371.32634-.29396.54363-.53387.70718-.00089.000608-.002.0012-.003.0018-.21744.15026-.51133.24014-.92512.24376-.42019-.0019-.71735-.09236-.9369-.24408-.00088-.000608-.002-.0012-.003-.0018-.23992-.16355-.41016-.38085-.53387-.70718-.12717-.33546-.19838-.75392-.19838-1.2585.00001-.50006.0711-.91079.19698-1.2361 0-.000553.00066-.0011.00066-.0016.12363-.32278.29209-.5363.52706-.69562.2145-.14544.5139-.23548.93507-.23998zm-18.773.0075c.34247 0 .57532.07081.74036.18077.0016.0011.0032.0021.0049.0031.1801.1172.30329.26566.39816.49919.000996.0025.002.0051.0032.0076.04781.11226.08197.24739.10805.3947h-2.6567c.08448-.29555.20555-.52736.36359-.69303.25331-.26552.55514-.39233 1.0386-.39233zm1.7914.41848.003.0076c-.00083-.0022-.0017-.0043-.0025-.0065 0-.00038-.000554-.000702-.000554-.0011zm30.215 1.0742-.002.0023c-.001.000972-.002.0019-.003.0028.002-.0017.003-.0034.005-.0051zm-.41944.4725c-.00056.000713-.001.0015-.002.0022l-.005.0058c.002-.0026.004-.0053.006-.008zm-50.566.09141-.71017.02828c-.27183.01018-.5666.02331-.80973.04686-.62677.06156-1.0994.18968-1.4394.41703-.41072.27458-.6457.71974-.6457 1.2197 0 .43099.15913.81238.45899 1.0377.29364.22066.67542.3235 1.1184.3235.67545 0 1.2564-.18354 1.7044-.55494.45799-.37974.68731-.96641.68731-1.6816v-.48687c0-.19876-.16542-.35759-.36402-.34965zm-.33603.71399v.12253c0 .57924-.14769.90517-.43403 1.1426-.31142.25816-.70328.39395-1.2576.39395-.33805 0-.55103-.07279-.69789-.18314-.12509-.094-.17947-.18469-.17947-.47812 0-.32461.07488-.46406.33463-.63771.21754-.14544.79064-.30475 1.6445-.33647.01311-.0025.02606-.0058.03879-.0098l-.03727.0096zm.1637 2.8808-.02367.0161c.0017-.000968.0033-.002.0049-.003.0064-.0042.01268-.0085.0188-.01307z"/></svg>