<svg xmlns="http://www.w3.org/2000/svg" width="1653.744" height="730.879" fill="none" viewBox="0 0 3307.488 1461.757"><path fill="#00004b" d="M1653.746 349.778c-147.098 0-280.553 65.677-361.958 162.787l25.823 31.815c73.927-91.8 199.694-154.92 336.134-154.92 136.456 0 262.216 63.12 336.143 154.92l25.823-31.815c-81.413-97.11-214.86-162.788-361.966-162.788m-344.078 20.617c-9.675 7.853-20.925 11.685-30.855 10.508-12.585-1.44-20.228-6.586-32.753-22.013l-72.135-88.492-38.895 31.544 78.563 96.45c16.695 20.423 35.73 31.358 58.162 33.413a94 94 0 0 0 7.875.405c21.75.188 41.948-7.462 61.523-23.265 21.802-17.775 33.772-38.407 36.577-63.082 2.55-22.358-4.282-43.185-20.932-63.66l-78.547-96.42-38.895 31.544 72.105 88.538v.015c12.57 15.368 16.042 23.895 14.88 36.503-.87 9.922-6.945 20.137-16.673 28.012m266.025-278.79-126 25.522c-5.753 1.163-10.305 4.035-13.133 8.325-2.857 4.283-3.735 9.57-2.572 15.308l25.11 123.457c4.087 20.078 13.11 34.538 26.82 42.983 9.067 5.58 19.942 8.37 32.475 8.363 6.382-.007 13.2-.743 20.415-2.205l78.75-15.945-9.473-46.605-76.612 15.525c-15.683 3.165-20.775 1.432-24.353-16.133l-2.692-13.245 88.612-17.947-9.367-46.073-88.62 17.94-6.728-33.052 96.848-19.62zm245.01 67.365 75.502 19.515 11.933-45.945-77.64-20.07c-42.555-11.003-71.7 4.897-82.05 44.76l-31.703 122.085c-1.462 5.67-.87 10.987 1.733 15.412 2.602 4.418 6.975 7.523 12.652 8.993l28.823 7.447 20.43-78.96 87.382 22.59 11.805-45.412-87.412-22.605 3.397-13.05c4.493-17.31 9.668-18.765 25.148-14.76m391.777 111.502 26.655-32.842c-13.237-13.215-27.015-26.04-41.37-38.4C2048.614 70.748 1855.405 0 1653.746 0c-201.652 0-394.852 70.748-544.02 199.23a769 769 0 0 0-41.37 38.393l26.656 32.842a735 735 0 0 1 42.225-39.435c141.524-121.89 324.952-189.015 516.51-189.015 191.557 0 374.984 67.125 516.502 189.015 14.708 12.668 28.77 25.845 42.233 39.443m-203.475 162.99 8.648-29.767-37.2-27.735 29.955-21.412 17.347 13.004 19.703-66.292-114.33 73.77-46.867-26.46 179.332-115.808c6.915-4.47 16.372-8.407 28.343.78l7.664 5.895c12.083 9.285 10.358 19.92 7.996 27.113l-59.528 204.42zm-843.975 968.1h-132.255v-101.347h78.818l32.265 27.458h1.08V1224.21h-1.08l-32.265 27.458h-78.818v-88.163h127.5l37.035 39.6h1.05l-4.23-87.645H922.195v1.073l24.893 30.082v272.378l-24.893 30.075v1.057h283.575l6.878-100.815h-1.072zm49.965-673.62 93.653 238.598h52.372l86.768-241.222 14.797 210.06-32.805 30.082v1.08h142.305v-1.08l-27.487-30.082L1524.468 663l21.705-30.082v-1.043h-118.492l-80.423 223.26-86.767-223.26h-120.083v1.043L1164.753 663l-14.302 272.378-29.07 30.082v1.08h116.887v-1.08l-29.077-30.082zm-393.78 673.088H706.429v-254.415l31.226-30.082v-1.073H595.852v1.073l24.89 30.082v272.378l-24.89 29.542v1.59h266.1l12.712-105.022h-1.08l-52.372 55.927zM564.942 965.46v1.08h134.917v-1.08l-24.89-30.082V663l24.89-30.082v-1.043H564.941v1.043L589.282 663v101.355H469.2V663l24.342-30.082v-1.043h-134.91v1.043L383.503 663v272.378l-24.871 30.082v1.08h134.91v-1.08L469.2 935.378V817.673h120.083v117.705zm2107.05 436.103h-132.263v-101.348h78.81l32.273 27.458h1.072V1224.21h-1.072l-32.273 27.458h-78.81v-88.163h127.508l37.02 39.6h1.05l-4.215-87.645h-271.935v1.073l24.885 30.082v272.378l-24.885 30.075v1.057h283.567l6.885-100.815h-1.08zm-1214.1-84.99-39.66-132.99-46.568 132.99zm118.5 102.42 27.51 30.075v1.057h-143.348v-1.057l27.51-30.075-15.337-52.253h-118.5l-18.008 52.253 25.928 30.075v1.057h-112.148v-1.057l26.46-30.075 103.155-272.378-19.582-30.082v-1.073h113.737zm-1374.3-496.8c-68.789 0-112.695-69.69-112.695-129.878 0-73.89 40.2-121.912 97.867-121.912 15.339 0 30.167 1.582 43.397 5.25l51.834 63.892h1.068l-3.707-105.577c-14.828-5.798-47.077-13.733-86.768-13.733C70.374 620.235 0 703.65 0 799.717 0 894.743 67.71 978.12 184.095 978.12c31.217 0 77.243-10.537 108.983-34.29l4.757-55.425h-1.05c-26.972 21.105-65.62 33.788-94.695 33.788zm1926.375 43.267-24.338-30.082V663l24.338-30.082v-1.043h-134.91v1.043l24.87 30.082v272.378l-24.87 30.082v1.08h134.91zm-295.936 327.893 33.315 30.112v62.813c-10.59 12.127-29.1 22.147-53.947 22.147-59.257 0-90.472-72.307-90.472-133.012 0-65.986 33.344-121.403 102.104-121.403 19.043 0 39.15 1.59 55.538 7.373l52.912 57h1.05l-3.18-91.83c-30.675-15.84-67.71-22.673-105.27-22.673-112.672 0-192.562 69.143-192.562 183.15 0 95.52 61.372 174.728 157.117 174.728 41.805 0 79.883-9.518 115.328-35.363l41.775 35.363h1.08v-138.293l26.437-30.112v-1.05H1832.53zm-87.562-489.398c10.59 3.165 22.74 4.74 35.445 4.74 46.568 0 66.668-25.335 66.668-62.82 0-44.347-25.928-65.445-74.085-65.445h-28.028zm-85.687 131.423V663l-24.885-30.082v-1.043h158.722c96.285 0 140.19 43.778 140.19 110.333 0 69.135-52.372 111.885-123.787 111.885-23.273 0-47.085-1.59-64.553-5.798v87.083l34.913 30.082v1.08h-145.485v-1.08zm799.275-111.908c0-58.05-21.683-150.435-95.768-150.435-59.25 0-76.177 59.115-76.177 99.225 0 58.605 24.345 153.09 95.775 153.09 51.292 0 76.17-48.577 76.17-101.88m-88.883 154.65c-104.745 0-172.455-86.04-172.455-183.66 0-100.837 77.76-174.225 175.11-174.225 107.378 0 176.16 83.948 176.16 180.015 0 109.793-83.055 177.87-178.815 177.87m-111.877 138.413 27.517 30.082v190.575c0 54.885-26.978 68.61-70.89 68.61-44.445 0-71.415-12.682-71.415-68.61v-190.575l27.51-30.082v-1.073h-138.09v1.073l24.878 30.082v190.575c0 91.29 46.552 124.568 145.994 124.568 90.473 0 136.5-31.155 136.5-121.943v-193.2l24.315-30.082v-1.073h-106.32zm638.932 41.122c0-23.79-18.083-41.775-40.898-41.775-23.062 0-41.115 17.985-41.115 41.775 0 24.278 18.053 42.143 41.115 42.143 22.815 0 40.898-17.866 40.898-42.143m10.147 0c0 29.205-23.572 50.505-51.045 50.505-27.712 0-51.247-21.3-51.247-50.505 0-28.852 23.535-50.182 51.247-50.182 27.473 0 51.045 21.33 51.045 50.182m-51.12-3.48c7.44 0 14.138-.405 14.138-9.367 0-7.223-6.54-8.528-12.743-8.528h-12.022v17.895zm8.265 7.103 16.425 25.574h-9.795l-15.292-25.162h-10.23v25.163h-8.752v-58.05h22.154c13.756 0 20.528 5.062 20.528 16.492 0 10.395-6.54 14.88-15.037 15.983m-21.99-528.36L2874.31 663v177.36l-135.974-208.485H2616.13v1.042L2641.008 663v272.378l-24.877 30.082v1.08h111.622v-1.08l-32.783-30.082V713.67l169.793 252.87h63.495V663l24.855-30.082v-1.043h-111.082zm341.13 127.754c-60.84-16.89-79.35-24.285-79.35-52.252 0-32.198 41.806-38.55 68.25-38.55 22.223 0 42.856 2.625 61.373 8.445l50.783 54.907h1.05l-4.223-94.507c-31.762-12.12-65.077-18.48-103.155-18.48-79.89 0-156.6 27.457-156.6 106.657 0 51.188 35.445 81.803 112.155 102.93 59.258 16.358 88.358 26.903 88.358 57 0 34.83-44.445 42.21-74.085 42.21-24.855 0-47.078-3.682-66.135-9.495L3030.29 856.2h-1.072l3.704 100.283c34.935 15.84 77.25 21.637 116.91 21.637 85.703 0 157.658-35.872 157.658-108.187 0-68.1-47.078-87.623-124.328-109.26M860.56 832.98h86.228l-39.66-133.028zm-9.51 133.56H738.897v-1.08l26.47-30.082L868.521 663l-19.582-30.082v-1.043h113.73l102.63 303.503 27.51 30.082v1.08H949.452v-1.08l27.518-30.082-15.345-52.253h-118.5l-18 52.253 25.928 30.082v1.08z"/></svg>