<svg viewBox="0 0 24 24" xmlns="http://www.w3.org/2000/svg"><path d="m8.607 4.008h-1.75v1.749h-3.318v5.85h3.318v2.534h1.75v-2.533h3.317v-5.851h-3.317zm-1.75 3.498h-1.568v2.354h1.568zm1.75 2.353v-2.353h1.568v2.354zm12.065 10.133-3.68-9.229h-1.75l-3.68 9.23h1.87l.954-2.474h3.462l.954 2.473zm-3.499-4.222-1.056-2.738-1.056 2.738zm-9.471 4.222h2.594v-1.749h-2.594a1.57 1.57 0 0 1 -1.569-1.568v-1.75h-1.75v1.75a3.32 3.32 0 0 0 3.319 3.317m5.851-15.14v1.75h2.594c.867 0 1.569.702 1.569 1.568v1.81h1.75v-1.81a3.32 3.32 0 0 0 -3.319-3.318zm-13.553-1.102a3.75 3.75 0 0 1 3.75-3.75h16.5a3.75 3.75 0 0 1 3.75 3.75v16.5a3.75 3.75 0 0 1 -3.75 3.75h-16.5a3.75 3.75 0 0 1 -3.75-3.75z"/></svg>