<svg viewBox="0 0 24 24" xmlns="http://www.w3.org/2000/svg" fill="#66DEB1"><path d="m10.176 20.058.858-1.28 6.513-9.838c.57-.86.026-2.014-1.005-2.131l-16.164-1.859 8.373 15.055a.84.84 0 0 0 1.424.052h.001zm13.41-12.918-9.662 14.61c-1.036 1.567-3.38 1.478-4.293-.162l-.093-.168c.3-.01.594-.086.855-.235a1.85 1.85 0 0 0 .612-.57l.86-1.28 6.516-9.844c.46-.694.525-1.56.173-2.314a2.375 2.375 0 0 0 -1.899-1.364l-16.162-1.857-.476-.054c-.18-1.51 1.084-2.952 2.767-2.759l18.991 2.16c1.856.21 2.835 2.289 1.812 3.838z"/></svg>