<svg viewBox="0 0 24 24" xmlns="http://www.w3.org/2000/svg"><path d="m23.422 21.736a2.262 2.262 0 1 1 -4.524 0 2.262 2.262 0 0 1 4.524 0m-18.318 0a2.263 2.263 0 1 1 -4.527.001 2.263 2.263 0 0 1 4.527 0m9.19-2.262a2.294 2.294 0 1 1 -4.588.001 2.294 2.294 0 0 1 4.589 0m5.023-15.29c.436.802.455 1.666.455 1.666v12.475a3.67 3.67 0 0 1 2.776 0v-12.477c0-.15-.02-1.49-.724-2.863-.987-1.927-2.845-2.987-5.234-2.987-1.94 0-3.532.709-4.592 2.018-1.061-1.308-2.652-2.017-4.592-2.017-2.388-.001-4.247 1.059-5.234 2.986a6.8 6.8 0 0 0 -.723 2.863v12.475a3.67 3.67 0 0 1 2.777 0v-12.465c0-.008.017-.871.454-1.675.514-.947 1.406-1.407 2.725-1.407s2.223.476 2.743 1.458c.444.838.461 1.736.461 1.736v10.092a3.67 3.67 0 0 1 2.776 0v-10.086c0-.032.023-.916.462-1.743.52-.98 1.416-1.458 2.742-1.458s2.212.46 2.725 1.407z"/></svg>