<svg height="24" width="24" xmlns="http://www.w3.org/2000/svg"><path d="m12.77 12.72a1.07 1.07 0 0 1 -1.52 0l-1.49-1.49.76-.76 1.48 1.46 4.2-4.2.81.79z" fill="#4285f4"/><path d="m16 11.59a.91.91 0 0 0 -.81.81 3.21 3.21 0 0 1 -2.86 2.76 3.25 3.25 0 0 1 -1.84-.36 3.19 3.19 0 0 1 1.2-6 3.1 3.1 0 0 1 1.21.13.9.9 0 0 0 1-.28.91.91 0 0 0 -.4-1.45 5 5 0 0 0 -6.5 5.29 5 5 0 0 0 5.48 4.51 5 5 0 0 0 4.52-4.37.91.91 0 0 0 -1-1z" fill="#669df6"/><path d="m12 18a2 2 0 1 1 -2 2 2 2 0 0 1 2-2" fill="#aecbfa"/><path d="m12 2a2 2 0 1 1 -2 2 2 2 0 0 1 2-2" fill="#aecbfa"/><path d="m0 0h24v24h-24z" fill="none"/><path d="m18 20a1 1 0 0 1 -.71-1.7l2.71-2.71v-7.18l-2.69-2.71a1 1 0 0 1 0-1.41 1 1 0 0 1 1.42 0l3 3a1 1 0 0 1 .27.71v8a1 1 0 0 1 -.29.7l-3 3a1 1 0 0 1 -.71.3" fill="#4285f4"/><path d="m6 20a1 1 0 0 1 -.71-.3l-3-3a1 1 0 0 1 -.29-.7v-8a1 1 0 0 1 .29-.71l3-3a1 1 0 0 1 1.42 0 1 1 0 0 1 0 1.41l-2.71 2.71v7.18l2.69 2.71a1 1 0 0 1 0 1.42 1 1 0 0 1 -.69.28" fill="#669df6"/></svg>