<svg xmlns="http://www.w3.org/2000/svg" width="1000" height="598.8" viewBox="0 0 1000 598.8"><path fill="currentColor" fill-rule="evenodd" d="M746.684 259.587c1.709.042 3.694 0 5.635.422 6.481 1.435 9.415 5.51 8.423 12.095-1.16 7.515-4.37 14.08-9.245 19.843-6.903 8.106-15.558 13.552-25.374 17.331-8.908 3.42-18.216 5.171-27.695 6.1-.591.043-1.245.043-1.836.064-4.16.042-4.687-.506-3.652-4.413 1.435-5.487 3.357-10.828 5.91-15.895 4.538-9.012 10.555-16.907 18.09-23.662 8.444-7.558 19.063-11.863 29.744-11.885m-544.506-75.511a95 95 0 0 1 22.016 2.28c4.729 1.076 9.225 2.66 13.405 5.192 7.578 4.539 11.463 11.336 11.948 20.075.232 4.328 0 8.634-.845 12.898-2.153 10.512-4.875 20.877-9.267 30.735-6.248 13.953-15.367 25.183-29.721 31.516-6.481 2.85-13.279 4.517-20.244 5.7-8.17 1.392-16.443 1.392-24.677 1.984a13 13 0 0 1-2.216-.107c-1.288-.231-1.942-1.033-1.647-2.385a44 44 0 0 1 .845-3.61 76688 76688 0 0 1 26.935-99.571c1.203-4.475 1.478-4.644 6.079-4.707 2.45-.022 4.94 0 7.388 0m681.345 84.643c-.36-2.005.295-3.356.696-4.771 2.195-7.705 4.412-15.387 6.586-23.092.929-3.294.506-3.927-2.66-3.927-15.05-.065-30.08-.065-45.131 0-3.209 0-3.694.443-4.623 3.652-.972 3.335-1.795 6.67-2.702 10.027-13.341 49.5-26.725 99-40.108 148.523-.103.486-.295.95-.358 1.435-.338 2.006-.022 2.45 1.92 2.66.632.085 1.245.04 1.857.04 15.05 0 30.1 0 45.131-.02 4.454 0 4.58-.147 5.784-4.517 4.813-17.731 9.563-35.462 14.438-53.175 3.25-11.883 6.058-23.915 10.977-35.272 4.813-10.998 10.216-21.658 17.838-31.009 4.475-5.51 9.54-10.322 16.19-13.172 4.2-1.794 8.507-2.554 12.982-1.31 2.85.803 4.77 2.576 5.509 5.447.381 1.668.909 3.356.972 5.066.718 12.772 18.703 21.342 29.911 15.833 4.518-2.218 8.338-5.15 11.25-9.288 4.455-6.333 5.553-13.405 4.603-20.815-1.394-10.976-6.902-19.356-17.182-23.662-10.323-4.328-21.067-4.898-31.727-.781-4.391 1.667-8.55 3.82-12.497 6.375-9.815 6.353-18.344 14.12-26.133 22.776-.95 1.056-1.751 2.385-3.525 2.976M546.662 403.309v-.02c21.7 0 43.42.02 65.12 0 4.328-.021 4.54-.19 5.658-4.222a4269 4269 0 0 0 6.354-23.579c1.394-5.192 1.394-5.212-3.862-5.212H546.64c-1.223 0-2.448.02-3.672-.022-3.103-.191-3.568-.909-2.026-3.631 2.28-3.969 4.96-7.684 7.788-11.25 9.479-11.906 20.519-22.312 31.538-32.763 13.784-13.066 27.842-25.837 40.507-40.043 8.275-9.351 15.875-19.209 21.849-30.208 2.175-4.031 4.095-8.147 5.53-12.517.676-2.132.211-2.702-1.941-2.913-1.373-.126-2.723-.065-4.095-.065H520.74c-1.223 0-2.448-.02-3.672 0-3.483.126-3.948.401-4.898 3.8-1.605 5.594-3.04 11.209-4.56 16.803-1.583 5.911-1.518 5.995 4.624 5.995 21.341 0 42.704-.02 64.024.042 1.625 0 3.905-.887 4.665 1.075.591 1.521-1.225 2.788-2.195 3.99-6.185 7.579-13.32 14.228-20.35 20.963-15.663 15.071-31.558 29.847-46.038 46.059-8.55 9.583-16.571 19.59-23.137 30.672-5.741 9.71-10.448 19.863-11.8 31.284-.675 5.656-.675 5.762 5.257 5.762zm159.205 5.256c9.393.233 18.427-.887 27.357-3.04 20.475-4.96 37.869-15.218 52.371-30.396 2.638-2.787 2.638-3.082.422-6.291-3.568-5.045-7.093-10.09-10.703-15.112-2.152-3.02-2.68-3.083-5.509-.72-3.947 3.315-7.831 6.776-11.862 10.007-5.913 4.686-12.308 8.696-19.316 11.568-10.428 4.285-21.003 5.297-31.684.886-11.04-4.538-19.084-15.388-18.83-27.251.062-2.724-.021-5.447.062-8.17.125-4.2.572-4.687 4.75-4.77 5.91-.148 11.822-.275 17.753-.675 15.852-1.078 31.262-4.18 46.207-9.48 11.484-4.094 21.469-10.574 29.617-19.63 7.367-8.128 12.623-17.415 14.522-28.288 1.605-9.202 1.034-18.195-4.77-26.175-5.825-8.084-13.932-12.75-23.262-15.473-11.843-3.462-23.895-3.503-35.928-1.582-41.647 6.755-72.34 28.792-91.106 66.684-8.338 16.887-11.906 35.062-9.204 53.934 3.44 24.106 16.845 40.528 39.559 49.247 9.584 3.672 19.546 5.107 29.552 4.727m-602.178-5.256c7.387 0 14.797.021 22.165 0 4.728-.02 4.833-.125 6.078-4.665a88160 88160 0 0 1 13.025-48.212c2.112-7.853 4.222-15.705 6.418-23.558.907-3.294 1.287-3.462 4.601-3.652 2.829-.146 5.658-.423 8.486-.464 13.594-.085 27.083-1.267 40.529-3.187 15.199-2.133 30.038-5.658 44.181-11.76 18.513-8.02 33.037-20.453 42.345-38.566 5.953-11.567 10.028-23.895 12.392-36.687 2.828-15.156-.443-29.173-9.52-41.69-6.313-8.718-14.82-14.755-24.403-19.315-16.232-7.725-33.562-10.85-51.274-11.463-24.065-.865-48.107-.252-72.15-.295-3.927 0-4.35.423-5.405 4.117-.165.486-.275.95-.4 1.435-11.02 40.698-22.017 81.418-33.037 122.116a64139 64139 0 0 0-29.551 109.281 49 49 0 0 0-1.034 4.306c-.296 1.352.337 2.113 1.75 2.175a46 46 0 0 0 2.956.085zM563.274 0h59.231c1.52.55 3.145.507 4.729.55 3.23.083 6.416.062 9.604.294 19.21 1.309 38.356 2.913 57.417 5.531 40.424 5.55 80.067 14.397 118.549 28.054 34.575 12.285 67.4 28.013 97.334 49.416 24.824 17.732 46.419 38.588 62.967 64.425 12.582 19.653 21.088 40.888 25.12 63.918.782 4.518.908 9.077 1.775 13.553v28.856c-.867 2.765-.487 5.656-.867 8.422-2.808 20.729-8.993 40.424-17.816 59.317-13.214 28.307-31.347 53.278-52.434 76.182-17.985 19.568-37.806 37.151-58.959 53.238-37.679 28.623-78.399 52.117-121.419 71.727-61.09 27.928-124.881 47.433-190.783 59.993-22.313 4.22-44.73 7.64-67.295 10.068a1086 1086 0 0 1-34.98 3.083c-11.292.801-22.65 1.435-33.963 1.646-1.097.043-2.195.338-3.272.528h-34.788c-1.309-.507-2.66-.528-4.031-.57-12.793-.38-25.606-1.12-38.398-2.112-17.457-1.371-34.83-3.482-52.14-6.1-.737-.106-1.455-.296-2.195-.465-1.5-.275-2.026-1.225-1.71-2.701.255-1.182.572-2.385.888-3.589 2.786-10.47 5.615-20.982 8.422-31.452 24.17-89.672 48.34-179.343 72.51-269.035 1.374-5.109 2.745-10.238 4.18-15.368 1.013-3.525 1.435-3.82 5.171-3.925.508-.021.993-.021 1.479-.021h43.295c.993 0 1.985.02 2.975.105 1.5.125 2.238.95 1.921 2.47-.231 1.35-.591 2.637-.948 3.969a228895 228895 0 0 0-34.113 127.245 140 140 0 0 0-.801 3.208c-.381 1.668.251 2.638 2.005 2.765.737.042 1.479.085 2.195.085h44.435c4.221-.02 4.432-.17 5.572-4.327 2.449-9.078 4.834-18.133 7.24-27.188 11.525-43 23.052-86.02 34.578-129.02 1.584-5.91 1.645-5.91-4.496-5.91h-94.38c-1.224 0-2.47.02-3.693-.04-3.23-.17-3.652-.698-2.912-3.885 1.16-4.812 2.383-9.583 3.587-14.375 4.834-19.78 9.563-39.58 16.233-58.83 2.85-8.17 5.932-16.256 10.196-23.79 5.171-9.163 11.715-17.1 21.13-22.27 6.396-3.485 13.277-5.447 20.602-4.582 7.05.845 10.639 5.277 10.618 12.327-.02 3.23-1.163 6.06-2.49 8.845-1.456 3.125-2.998 6.185-4.286 9.437-4.517 11.44 2.745 27.716 15.367 31.937 19.823 6.65 40.573-4.137 45.891-24.381 1.013-3.82 1.625-7.705 1.119-11.715-1.056-8.508-4.665-15.833-10.681-21.869-7.515-7.515-16.338-13.067-26.681-15.959-14.672-4.075-29.575-5.066-44.73-3.757-24.382 2.111-44.542 12.665-61.387 30.08-12.517 12.961-21.362 28.287-28.602 44.625-7.176 16.296-12.243 33.331-16.929 50.471-10.301 37.85-20.497 75.719-30.692 113.609a579068 579068 0 0 0-50.557 187.575 25436 25436 0 0 1-14.545 53.955c-1.033 3.843-1.413 3.969-5.15 3.083-.612-.128-1.203-.318-1.775-.465-9.54-2.554-19.018-5.34-28.37-8.444-38.525-12.708-75.042-29.595-108.036-53.448-25.035-18.09-46.671-39.495-63.052-65.839-14.207-22.756-23.115-47.368-25.964-74.093-.186-1.752-.549-3.399-1.288-4.982v-28.137c.865-1.669 1.138-3.484 1.35-5.32.337-3.083.697-6.144 1.203-9.183 5.214-31.43 17.562-60.012 34.704-86.632 20.56-31.937 46.376-59.125 75.358-83.422 30.863-25.88 64.468-47.623 100.037-66.43 46.735-24.698 95.708-43.844 146.538-58.262C424.755 14.124 491.523 3.083 559.642.55c1.225-.062 2.45-.105 3.63-.547"/></svg>