<svg height="598.8" viewBox="0 0 1000 598.8" width="1000" xmlns="http://www.w3.org/2000/svg" xmlns:xlink="http://www.w3.org/1999/xlink"><linearGradient id="a" gradientUnits="userSpaceOnUse" x1="779.3557715" x2="1578.98394625" y1="222.148944" y2="222.148944"><stop offset="0" stop-color="#00adec"/><stop offset=".2" stop-color="#00abeb"/><stop offset=".4" stop-color="#009fe3"/><stop offset=".6" stop-color="#0095da"/><stop offset=".8" stop-color="#0082ca"/><stop offset="1" stop-color="#006fb9"/></linearGradient><path d="m1376.928 299.425c1.367-.034 2.955 0 4.508-.338 5.185-1.148 7.532-4.408 6.738-9.676-.928-6.012-3.495-11.264-7.396-15.874-5.522-6.485-12.446-10.842-20.299-13.865-7.126-2.736-14.573-4.137-22.156-4.88-.473-.034-.996-.034-1.469-.051-3.327-.034-3.749.405-2.921 3.53 1.148 4.39 2.685 8.663 4.728 12.716 3.63 7.21 8.444 13.526 14.472 18.93 6.755 6.046 15.25 9.49 23.795 9.508m-435.605 60.409a76 76 0 0 0 17.613-1.824c3.783-.861 7.38-2.128 10.724-4.154 6.062-3.631 9.17-9.069 9.558-16.06.186-3.462 0-6.907-.676-10.318-1.722-8.41-3.9-16.702-7.413-24.588-4.999-11.163-12.294-20.147-23.777-25.213-5.185-2.28-10.623-3.614-16.195-4.56-6.536-1.114-13.155-1.114-19.742-1.587a10.4 10.4 0 0 0 -1.773.085c-1.03.185-1.553.827-1.317 1.908.186.963.405 1.925.676 2.888 7.16 26.563 14.354 53.11 21.548 79.657.962 3.58 1.182 3.715 4.863 3.766 1.96.017 3.952 0 5.91 0m545.076-67.715c-.288 1.604.236 2.685.557 3.817 1.756 6.164 3.53 12.31 5.269 18.474.743 2.635.405 3.141-2.128 3.141-12.04.052-24.064.052-36.105 0-2.567 0-2.955-.354-3.698-2.921-.778-2.668-1.436-5.336-2.162-8.022-10.673-39.6-21.38-79.2-32.086-118.818-.083-.389-.236-.76-.287-1.148-.27-1.605-.017-1.96 1.536-2.128.506-.068.996-.033 1.486-.033 12.04 0 24.08 0 36.105.016 3.563 0 3.664.118 4.627 3.614 3.85 14.185 7.65 28.37 11.55 42.54 2.601 9.507 4.847 19.132 8.782 28.218 3.85 8.798 8.173 17.326 14.27 24.807 3.58 4.408 7.633 8.258 12.952 10.538 3.36 1.435 6.806 2.043 10.386 1.047 2.28-.642 3.816-2.06 4.407-4.357.305-1.334.727-2.685.778-4.053.574-10.217 14.962-17.073 23.929-12.666 3.614 1.774 6.67 4.12 9 7.43 3.564 5.067 4.442 10.724 3.682 16.652-1.115 8.781-5.522 15.485-13.746 18.93-8.258 3.462-16.853 3.918-25.381.625-3.513-1.334-6.84-3.056-9.998-5.1-7.852-5.083-14.675-11.297-20.906-18.221-.76-.845-1.401-1.908-2.82-2.381m-269.487-107.673v.016c17.36 0 34.737-.016 52.097 0 3.462.017 3.631.152 4.526 3.378 1.706 6.282 3.411 12.564 5.083 18.863 1.115 4.154 1.115 4.17-3.09 4.17h-58.633c-.979 0-1.959-.016-2.938.017-2.482.153-2.854.727-1.621 2.905 1.824 3.175 3.968 6.147 6.231 9 7.583 9.525 16.415 17.85 25.23 26.21 11.027 10.453 22.274 20.67 32.406 32.035 6.62 7.481 12.7 15.367 17.479 24.166 1.74 3.225 3.276 6.518 4.424 10.014.541 1.705.169 2.161-1.553 2.33-1.098.101-2.178.052-3.276.052h-97.102c-.979 0-1.959.016-2.938 0-2.786-.101-3.158-.321-3.918-3.04-1.284-4.475-2.432-8.967-3.648-13.442-1.267-4.729-1.215-4.796 3.699-4.796 17.073 0 34.163.016 51.219-.034 1.3 0 3.124.71 3.732-.86.473-1.217-.98-2.23-1.756-3.192-4.948-6.063-10.656-11.382-16.28-16.77-12.53-12.057-25.246-23.878-36.83-36.847-6.84-7.667-13.257-15.672-18.51-24.538-4.593-7.768-8.358-15.89-9.44-25.027-.54-4.525-.54-4.61 4.206-4.61zm127.364-4.205c7.515-.186 14.742.71 21.886 2.432 16.38 3.968 30.295 12.175 41.897 24.317 2.11 2.23 2.11 2.466.337 5.033-2.854 4.036-5.674 8.072-8.562 12.09-1.722 2.416-2.144 2.466-4.407.575-3.158-2.651-6.265-5.42-9.49-8.005-4.73-3.749-9.846-6.957-15.453-9.254-8.342-3.428-16.802-4.238-25.347-.709-8.832 3.63-15.267 12.31-15.064 21.801.05 2.179-.017 4.357.05 6.536.1 3.36.457 3.749 3.8 3.816 4.728.118 9.457.22 14.202.54 12.682.862 25.01 3.344 36.966 7.583 9.187 3.276 17.175 8.46 23.693 15.705 5.894 6.502 10.099 13.932 11.618 22.63 1.284 7.362.827 14.556-3.816 20.94-4.66 6.467-11.146 10.2-18.61 12.378-9.474 2.77-19.116 2.803-28.742 1.266-33.318-5.404-57.872-23.034-72.885-53.347-6.67-13.51-9.525-28.05-7.363-43.147 2.752-19.285 13.476-32.423 31.647-39.398 7.667-2.938 15.637-4.086 23.642-3.782m-481.743 4.205c5.91 0 11.838-.017 17.732 0 3.783.016 3.867.1 4.863 3.732 3.462 12.834 6.941 25.702 10.42 38.57 1.689 6.282 3.377 12.564 5.134 18.846.726 2.635 1.03 2.77 3.681 2.922 2.263.117 4.526.338 6.789.371 10.875.068 21.666 1.014 32.423 2.55 12.159 1.706 24.03 4.526 35.345 9.407 14.81 6.417 26.429 16.363 33.876 30.853 4.762 9.254 8.022 19.116 9.913 29.35 2.263 12.125-.354 23.338-7.616 33.352-5.05 6.974-11.855 11.804-19.522 15.452-12.986 6.18-26.85 8.68-41.019 9.17-19.252.692-38.486.202-57.72.236-3.142 0-3.48-.338-4.324-3.293-.132-.389-.22-.76-.32-1.148-8.816-32.559-17.614-65.135-26.43-97.693a51311 51311 0 0 1 -23.641-87.425 39 39 0 0 1 -.827-3.445c-.237-1.081.27-1.69 1.4-1.74a37 37 0 0 1 2.365-.068zm367.67 322.647h47.385c1.216-.439 2.516-.405 3.783-.439 2.584-.067 5.133-.05 7.683-.236 15.368-1.047 30.685-2.33 45.934-4.425 32.339-4.44 64.053-11.517 94.839-22.443 27.66-9.828 53.92-22.41 77.867-39.533 19.859-14.185 37.135-30.87 50.374-51.54 10.065-15.722 16.87-32.71 20.096-51.134.625-3.614.726-7.262 1.42-10.842v-23.085c-.694-2.212-.39-4.525-.694-6.738-2.246-16.583-7.194-32.339-14.253-47.453-10.571-22.646-25.077-42.623-41.947-60.946-14.388-15.654-30.245-29.721-47.167-42.59-30.143-22.899-62.719-41.694-97.135-57.382-48.872-22.342-99.905-37.946-152.627-47.994-17.85-3.377-35.784-6.113-53.836-8.055-9.322-.98-18.66-1.79-27.983-2.466-9.034-.641-18.12-1.148-27.171-1.317-.878-.034-1.756-.27-2.618-.422h-27.83c-1.047.405-2.128.422-3.225.456-10.234.304-20.485.895-30.718 1.689-13.966 1.097-27.864 2.786-41.712 4.88-.59.085-1.164.237-1.756.372-1.2.22-1.621.98-1.368 2.161.204.946.457 1.908.71 2.871 2.229 8.376 4.492 16.786 6.738 25.162 19.335 71.737 38.671 143.474 58.007 215.228 1.099 4.087 2.196 8.19 3.344 12.294.81 2.82 1.148 3.056 4.137 3.14.406.017.794.017 1.183.017h34.636c.794 0 1.588-.016 2.38-.084 1.2-.1 1.79-.76 1.537-1.976-.185-1.08-.473-2.11-.759-3.175-9.102-33.926-18.204-67.852-27.29-101.796-.22-.844-.438-1.705-.641-2.567-.305-1.334.201-2.11 1.604-2.212.59-.033 1.183-.068 1.756-.068h35.548c3.377.017 3.546.136 4.458 3.462 1.959 7.262 3.867 14.506 5.792 21.75 9.22 34.4 18.441 68.816 27.662 103.216 1.267 4.728 1.316 4.728-3.597 4.728h-75.503c-.98 0-1.976-.016-2.955.033-2.584.136-2.922.558-2.33 3.107.929 3.85 1.907 7.667 2.87 11.5 3.867 15.824 7.65 31.664 12.986 47.065 2.28 6.536 4.746 13.004 8.157 19.032 4.137 7.33 9.372 13.68 16.904 17.816 5.117 2.787 10.622 4.357 16.482 3.665 5.64-.676 8.511-4.222 8.494-9.862-.016-2.584-.93-4.847-1.992-7.076-1.165-2.5-2.398-4.948-3.429-7.549-3.613-9.152 2.196-22.173 12.294-25.55 15.858-5.32 32.458 3.31 36.713 19.505.81 3.056 1.3 6.164.895 9.372-.845 6.806-3.732 12.666-8.545 17.495-6.012 6.012-13.07 10.454-21.345 12.767-11.737 3.26-23.66 4.053-35.784 3.006-19.505-1.689-35.633-10.132-49.109-24.064-10.014-10.369-17.09-22.63-22.882-35.7-5.741-13.037-9.794-26.665-13.543-40.377-8.241-30.28-16.398-60.575-24.554-90.887-13.493-50.02-26.97-100.04-40.445-150.06a20349 20349 0 0 0 -11.636-43.164c-.827-3.074-1.131-3.175-4.12-2.466-.49.102-.963.254-1.42.372-7.632 2.043-15.215 4.272-22.696 6.755-30.82 10.166-60.034 23.676-86.429 42.758-20.028 14.472-37.337 31.596-50.442 52.671-11.365 18.205-18.492 37.895-20.771 59.275-.149 1.401-.439 2.719-1.03 3.985v22.51c.692 1.335.91 2.787 1.08 4.256.269 2.466.557 4.915.962 7.346 4.171 25.145 14.05 48.01 27.763 69.306 16.448 25.55 37.101 47.3 60.287 66.738 24.69 20.704 51.574 38.098 80.029 53.144 37.388 19.758 76.567 35.075 117.231 46.609 52.452 14.86 105.866 23.693 160.361 25.72.98.05 1.96.084 2.905.438" fill="url(#a)" fill-rule="evenodd" transform="matrix(1.25 0 0 -1.25 -974.476 633.868)"/></svg>