<svg height="18" viewBox="0 0 18 18" width="18" xmlns="http://www.w3.org/2000/svg" xmlns:xlink="http://www.w3.org/1999/xlink"><linearGradient id="a" gradientUnits="userSpaceOnUse" x1="7.37" x2="7.37" y1=".5" y2="13.23"><stop offset="0" stop-color="#b3b2b3"/><stop offset=".38" stop-color="#afaeaf"/><stop offset=".76" stop-color="#a2a2a2"/><stop offset="1" stop-color="#979797"/></linearGradient><linearGradient id="b" gradientUnits="userSpaceOnUse" x1="8.96" x2="17.32" y1="13.29" y2="13.29"><stop offset="0" stop-color="#005ba1"/><stop offset=".07" stop-color="#0060a9"/><stop offset=".36" stop-color="#0071c8"/><stop offset=".52" stop-color="#0078d4"/><stop offset=".64" stop-color="#0074cd"/><stop offset=".82" stop-color="#006abb"/><stop offset="1" stop-color="#005ba1"/></linearGradient><path d="m7.37.5-6.69 3.88v.96h1.23v7.28h1.21v-7.28h8.5v7.89h1.21v-7.89h1.23v-.96z" fill="url(#a)"/><path d="m4.33 12.62h2.43v-2.42h-2.43zm3.64 0h2.43v-2.42h-2.4zm-3.64-3.62h2.43v-2.45h-2.43zm3.67-2.45v2.45h2.4v-2.45z" fill="#50e6ff"/><path d="m13.14 10.41c-2.31 0-4.14-.6-4.14-1.33v7.09c0 .73 1.84 1.32 4.12 1.33h.06c2.31 0 4.18-.6 4.18-1.33v-7.09c-.04.73-1.91 1.33-4.22 1.33" fill="url(#b)"/><path d="m17.32 9.08c0 .73-1.87 1.33-4.18 1.33s-4.14-.6-4.14-1.33 1.87-1.33 4.18-1.33 4.18.59 4.18 1.33" fill="#e8e8e8"/><path d="m16.35 9c0 .47-1.44.85-3.21.85s-3.2-.41-3.2-.85 1.43-.85 3.2-.85 3.21.38 3.21.85" fill="#50e6ff"/><path d="m13.14 9.17a8.6 8.6 0 0 0 -2.54.32 8.5 8.5 0 0 0 2.54.33 8.5 8.5 0 0 0 2.54-.33 8.6 8.6 0 0 0 -2.54-.32" fill="#32bedd"/></svg>