<svg xmlns="http://www.w3.org/2000/svg" width="18" height="18" viewBox="0 0 18 18"><defs><mask id="a"><path fill="#fff" d="M0 0h18v18H0z"/><path d="M7.59 5.65h1.36v4.08H7.59zm2.72 1.36h1.36v2.72h-1.36zm2.72-2.72h1.36v5.44h-1.36z"/></mask></defs><g fill="currentColor" mask="url(#a)"><path d="M5.59 13.13h4.32v4.32H5.59zm-4.44 4.32h3.72v-4.32H.55v3.72a.6.6 0 0 0 .6.6m-.6-5h4.32V8.09H.55z"/><path fill-rule="evenodd" d="M11.5.55a5.89 5.89 0 0 1 5.95 6 5.89 5.89 0 0 1-5.95 5.95H5.55v-6A5.89 5.89 0 0 1 11.5.55"/></g></svg>