<svg fill="none" height="41" viewBox="0 0 178 41" width="178" xmlns="http://www.w3.org/2000/svg" xmlns:xlink="http://www.w3.org/1999/xlink"><linearGradient id="a"><stop offset=".02" stop-color="#1d1c1c" stop-opacity="0"/><stop offset=".39" stop-color="#1d1c1c" stop-opacity=".66"/><stop offset=".68" stop-color="#1d1c1c"/></linearGradient><linearGradient id="b" gradientUnits="userSpaceOnUse" x1="92.744" x2="74.754" xlink:href="#a" y1="18.026" y2="40.31"/><linearGradient id="c" gradientUnits="userSpaceOnUse" x1="61.27" x2="79.754" xlink:href="#a" y1="23.018" y2="4.534"/><clipPath id="d"><path d="m0 0h177.91v41h-177.91z"/></clipPath><g clip-path="url(#d)"><path d="m135.783 20.52c0-10.712 7.716-20.48 21.037-20.48s21.09 9.768 21.09 20.48-7.714 20.48-21.09 20.48-21.035-9.768-21.035-20.48zm30.416 0c0-5.163-3.442-9.935-9.379-9.935-5.938 0-9.38 4.774-9.38 9.935 0 5.16 3.498 9.935 9.38 9.935s9.379-4.775 9.379-9.935m-38.607 7.603c4.441-2.498 7.104-7.27 7.104-12.544 0-7.825-5.718-14.487-14.598-14.487h-18.648v38.853h11.545v-9.935h2.165l6.603 9.935h13.599zm-9.823-7.048h-4.774v-10.99h4.829c3.109 0 5.107 2.498 5.107 5.496s-2.054 5.496-5.162 5.496zm-69.019-20.023-6.926 23.158-6.758-23.158h-9.196l-6.813 23.158-6.87-23.157h-12.187l13.96 38.78h10.026l6.481-21.107 6.428 21.107h10.08l13.962-38.78zm29.655 29.305h-.028c-4.318 0-7.346-2.576-8.646-5.988h29.339c.236-1.284.358-2.598.358-3.928 0-10.684-7.69-20.427-21.023-20.441v10.527c4.344.012 7.342 2.584 8.628 5.989h-29.297a22 22 0 0 0 -.354 3.927c0 10.692 7.7 20.444 20.995 20.444h.028z" fill="#1d1c1c"/><path d="m78.377 40.884c.451 0 .895-.014 1.335-.034 2.702-.137 5.153-.68 7.34-1.557a19.5 19.5 0 0 0 5.738-3.54 19.3 19.3 0 0 0 4.027-5.044c.95-1.71 1.645-3.56 2.08-5.491h-12.226a10 10 0 0 1 -.874 1.468c-.456.63-.99 1.201-1.596 1.694a8.6 8.6 0 0 1 -2.036 1.23 9.1 9.1 0 0 1 -2.45.662c-.43.055-.874.088-1.334.088-2.75 0-4.978-1.048-6.567-2.688l-7.947 7.948c3.536 3.229 8.442 5.264 14.516 5.264z" fill="url(#b)"/><path d="m78.378 0c-11.276 0-18.528 7.013-20.47 15.67h12.189c1.457-2.983 4.328-5.143 8.28-5.143 3.151 0 5.596 1.346 7.194 3.382l8.02-8.02c-3.583-3.587-8.734-5.887-15.216-5.887z" fill="url(#c)"/></g></svg>