<svg viewBox="0 0 24 24" xmlns="http://www.w3.org/2000/svg"><path d="m6.957 1.3379a2.0133 2.0133 0 0 0 -.957.2695c-.967.5583-1.2985 1.7947-.7402 2.7617l3.2382 5.6094h-6.4765c-1.1166 0-2.0215.905-2.0215 2.0215 0 1.1166.905 2.0215 2.0215 2.0215h6.4765l-3.2382 5.6094c-.5583.967-.2268 2.2034.7402 2.7617.967.5582 2.2034.2267 2.7617-.7403l3.2383-5.6073 3.2383 5.6074c.5583.967 1.7947 1.2985 2.7617.7403.967-.5583 1.2985-1.7947.7402-2.7617l-3.2382-5.6094h6.4765c1.1166-.0001 2.0215-.9051 2.0215-2.0216 0-1.1166-.905-2.0215-2.0215-2.0215h-6.4765l3.2382-5.6094c.5583-.967.2268-2.2034-.7402-2.7617-.967-.5582-2.2034-.2267-2.7617.7403l-3.2383 5.6073-3.2383-5.6073c-.3837-.6648-1.0877-1.0284-1.8047-1.0098zm9.959 1.0058c.1932-.0127.3928.0317.5781.1387.4944.2854.6565.8866.3711 1.3809l-4.1132 7.125h8.2265c.5709 0 1.0117.4408 1.0117 1.0117s-.4408 1.0117-1.0117 1.0117h-7.0585l-1.168-2.0234-1.168-2.0235 3.5294-6.1113c.1783-.3089.4808-.4885.8027-.5098zm-9.9336.004c.3587-.0093.7081.166.9043.5058l3.5293 6.1113-1.168 2.0235-1.168 2.0234h-7.0584c-.5709 0-1.0117-.4408-1.0117-1.0117s.4408-1.0117 1.0117-1.0117h8.2265l-4.1132-7.125c-.2854-.4943-.1233-1.0955.371-1.3809a.9891.9891 0 0 1 .4766-.1347zm2.6836 11.6738h4.668l3.5312 6.1152c.2854.4943.1233 1.0955-.371 1.3809-.4942.2852-1.0956.1231-1.381-.3711l-4.1132-7.1211-4.1133 7.121c-.2853.4943-.8867.6564-1.3808.3712-.4944-.2854-.6565-.8866-.3711-1.3809z"/></svg>