<svg xmlns="http://www.w3.org/2000/svg" width="512" height="512" fill="none" viewBox="0 0 512 512"><rect id="«r3b»" width="512" height="512" x="0" y="0" fill="url(#«r3c»)" stroke="#fff" stroke-opacity="100%" stroke-width="0" paint-order="stroke" rx="128"/><defs><radialGradient id="«r3c»" cx="50%" cy="50%" r="100%" fx="50%" fy="0%" gradientUnits="objectBoundingBox"><stop stop-color="#232323"/><stop offset="1"/></radialGradient></defs><path fill="snow" d="M312.25 126.625h-112.5a73.21 73.21 0 0 0-73.125 73.125v112.5a73.21 73.21 0 0 0 73.125 73.125h67.5a5.4 5.4 0 0 0 1.772-.295c35.803-11.925 104.133-80.255 116.058-116.058a5.4 5.4 0 0 0 .295-1.772v-67.5a73.21 73.21 0 0 0-73.125-73.125M137.875 312.25v-112.5a61.945 61.945 0 0 1 61.875-61.875h112.5a61.945 61.945 0 0 1 61.875 61.875v61.875H334.75a73.21 73.21 0 0 0-73.125 73.125v39.375H199.75a61.945 61.945 0 0 1-61.875-61.875m135 59.063V334.75a61.945 61.945 0 0 1 61.875-61.875h36.563c-15.61 31.26-67.177 82.828-98.438 98.438"/></svg>