<svg height="48" viewBox="0 0 48 48" width="48" xmlns="http://www.w3.org/2000/svg"><path d="m18.033 37h8v2h-8c-4.411 0-8-3.589-8-8s3.589-8 8-8h12c3.309 0 6-2.691 6-6s-2.691-6-6-6h-8v-2h8c4.411 0 8 3.589 8 8s-3.589 8-8 8h-12c-3.309 0-6 2.691-6 6s2.691 6 6 6m22.387 7h-6.84l-3.429-6 3.429-6h6.84l3.428 6zm5.448-6.496-4-7a1 1 0 0 0 -.868-.504h-8a1 1 0 0 0 -.868.504l-4 7a1 1 0 0 0 0 .992l4 7a1 1 0 0 0 .868.504h8a1 1 0 0 0 .868-.504l4-7a1 1 0 0 0 0-.992m-38.288-21.504-3.429-6 3.429-6h6.84l3.428 6-3.428 6zm8.288 1.496 4-7a1 1 0 0 0 0-.992l-4-7a1 1 0 0 0 -.868-.504h-8a1 1 0 0 0 -.868.504l-4 7a1 1 0 0 0 0 .992l4 7a1 1 0 0 0 .868.504h8a1 1 0 0 0 .868-.504" fill="#e7157b" fill-rule="evenodd"/></svg>