<svg viewBox="0 0 24 24" xmlns="http://www.w3.org/2000/svg"><path d="m14.201.028a.505.505 0 0 1 .643.313c.04.11.043.23.006.341l-2.258 6.356a.512.512 0 0 1 -.319.302l-11.273 3.828 2.665-7.33a.513.513 0 0 1 .319-.302l10.216-3.508zm-13.201 11.729 2.776 4.05a.55.55 0 0 0 .622.227l5.12-1.892a.483.483 0 0 0 .29-.653l-.03-.063-2.366-3.806-6.412 2.136zm8.799 12.215a.505.505 0 0 1 -.643-.312.517.517 0 0 1 -.006-.342l2.235-6.365a.513.513 0 0 1 .319-.3l11.296-3.821-2.665 7.33a.51.51 0 0 1 -.318.3l-10.218 3.51v-.001zm10.638-15.893a.55.55 0 0 0 -.622-.226l-5.12 1.893a.483.483 0 0 0 -.29.65l.03.064 2.336 3.85 6.215-2.12-2.55-4.11h.001z"/></svg>