<svg xmlns="http://www.w3.org/2000/svg" width="18" height="18" viewBox="0 0 18 18"><path fill="currentColor" d="M5.67 10.61H10v4.32H5.67zm-5-5.76H5V.53H1.23a.6.6 0 0 0-.6.6zm.6 10.08H5v-4.32H.63v3.72a.6.6 0 0 0 .6.6zm-.6-5H5V5.57H.63zm10.08 5h3.72a.6.6 0 0 0 .6-.6v-3.72h-4.36zm-5-5H10V5.57H5.67zm5 0H15V5.57h-4.29zm0-9.36v4.28H15V1.13a.6.6 0 0 0-.6-.6zm-5 4.32H10V.53H5.67z"/><path fill="currentColor" d="M17.37 10.7v4.51l-3.87 2.26v-4.51z"/><path fill="currentColor" d="m17.37 10.7-3.87 2.27-3.87-2.27 3.87-2.26z"/><path fill="currentColor" d="M13.5 12.97v4.5l-3.87-2.26V10.7z"/><path fill="currentColor" d="m9.63 15.21 3.87-2.25v4.51z"/><path fill="currentColor" d="m17.37 15.21-3.87-2.25v4.51z"/></svg>