<svg height="18" viewBox="0 0 18 18" width="18" xmlns="http://www.w3.org/2000/svg" xmlns:xlink="http://www.w3.org/1999/xlink"><linearGradient id="a" gradientTransform="matrix(.5 0 0 -.5 3267.42 559.99)" gradientUnits="userSpaceOnUse" x1="-6518.78" x2="-6518.78" y1="1118.86" y2="1090.06"><stop offset="0" stop-color="#5ea0ef"/><stop offset=".18" stop-color="#589eed"/><stop offset=".41" stop-color="#4897e9"/><stop offset=".66" stop-color="#2e8ce1"/><stop offset=".94" stop-color="#0a7cd7"/><stop offset="1" stop-color="#0078d4"/></linearGradient><path d="m5.67 10.61h4.33v4.32h-4.33zm-5-5.76h4.33v-4.32h-3.77a.6.6 0 0 0 -.6.6zm.6 10.08h3.73v-4.32h-4.37v3.72a.6.6 0 0 0 .6.6zm-.6-5h4.33v-4.36h-4.37zm10.08 5h3.72a.6.6 0 0 0 .6-.6v-3.72h-4.36zm-5-5h4.25v-4.36h-4.33zm5 0h4.25v-4.36h-4.29zm0-9.36v4.28h4.25v-3.72a.6.6 0 0 0 -.6-.6zm-5 4.32h4.25v-4.36h-4.33z" fill="url(#a)"/><path d="m17.37 10.7v4.51l-3.87 2.26v-4.51z" fill="#32bedd"/><path d="m17.37 10.7-3.87 2.27-3.87-2.27 3.87-2.26z" fill="#9cebff"/><path d="m13.5 12.97v4.5l-3.87-2.26v-4.51z" fill="#50e6ff"/><path d="m9.63 15.21 3.87-2.25v4.51z" fill="#9cebff"/><path d="m17.37 15.21-3.87-2.25v4.51z" fill="#50e6ff"/></svg>