<svg viewBox="0 0 24 24" xmlns="http://www.w3.org/2000/svg"><path d="m22.724 3.088c-1.197-.712-2.814-1.088-4.68-1.088-2.854 0-6 .877-8.826 2.403l-.02-.007-.004.021a21 21 0 0 0 -2.462 1.558c-4.585 3.401-5.869 7.437-4.785 9.595-1.187 1.972-1.917 4.013-1.947 6.43 2.28-4.233 3.648-7.663 11.076-13.438-2.122.443-5.79 2.545-8.258 5.735-.233-1.866 1.28-4.879 4.65-7.379a20 20 0 0 1 1.324-.893c-.354 1.071-.24.805-.975 2.307 1.086-1.001 1.8-1.62 2.873-3.335a19 19 0 0 1 4.276-1.465c-.238.767-.69 2.067-1.302 3.095 0 0 1.553-.324 2.837-.25-.701.753-1.333 1.569-1.973 2.403-.876 1.142-1.782 2.322-2.943 3.421-.14.133-.273.253-.408.377-1.784-.167-2.961.483-4.065 1.63.87-.395 2.04-.72 2.772-.524-1.35 1.073-3.477 2.487-5.224 2.37-.332.492-.353.507-.717 1.1 2.835.688 6.395-2.118 8.49-4.103 1.229-1.164 2.165-2.383 3.07-3.56 1.862-2.427 3.471-4.523 7.04-5.32l1.457-.325z" fill="#ffe184"/></svg>