<svg viewBox="0 0 128 128" xmlns="http://www.w3.org/2000/svg" xmlns:xlink="http://www.w3.org/1999/xlink"><linearGradient id="a" gradientUnits="userSpaceOnUse" x1="66.66675" x2="66.66675" y1=".002015" y2="128.002175"><stop offset="0" stop-color="#1abc9c"/><stop offset="1" stop-color="#2980b9"/></linearGradient><linearGradient id="b"><stop offset="0"/><stop offset="1" stop-opacity="0"/></linearGradient><linearGradient id="c" gradientTransform="matrix(2.32929459 2.32929459 -2.32929459 2.32929459 2403.452103 -2387.262663)" gradientUnits="userSpaceOnUse" x1="24" x2="49" xlink:href="#b" y1="1028.362" y2="1028.362"/><linearGradient id="d" gradientTransform="matrix(2.32929459 2.32929459 -6.55110391 6.55110391 6745.00505 -6728.82267)" gradientUnits="userSpaceOnUse" x1="24" x2="49" xlink:href="#b" y1="1028.362" y2="1028.362"/><linearGradient id="e" gradientTransform="matrix(2.32929459 2.32929459 -9.89941715 9.89941715 10188.287342 -10172.109477)" gradientUnits="userSpaceOnUse" x1="24" x2="49" xlink:href="#b" y1="1028.362" y2="1028.362"/><clipPath id="f"><path d="m0 0h128v128h-128z"/></clipPath><clipPath id="g"><path d="m0 0h128v128h-128z"/></clipPath><clipPath id="h"><path d="m0 0h128v128h-128z"/></clipPath><path d="m128 64c0 35.348-28.652 64-64 64s-64-28.652-64-64 28.652-64 64-64 64 28.652 64 64zm0 0" fill="url(#a)" fill-rule="evenodd"/><g clip-path="url(#f)" opacity=".2"><path d="m73.316 54.684-18.632 18.632 44.27 44.266a63.975 63.975 0 0 0 18.609-18.656zm0 0" fill="url(#c)" fill-rule="evenodd"/></g><g clip-path="url(#g)" opacity=".2"><path d="m90.203 37.797-1.176 1.176a35.422 35.422 0 0 1 10.383 25.027c0 19.559-15.851 35.41-35.41 35.41a35.422 35.422 0 0 1 -25.027-10.383l-1.176 1.176 36.887 36.89c26.832-4.573 47.84-25.62 52.359-52.464zm0 0" fill="url(#d)" fill-rule="evenodd"/></g><g clip-path="url(#h)" opacity=".2"><path d="m103.598 24.39v.012l-3.078 3.078a51.647 51.647 0 0 1 15.156 36.52c0 28.54-23.137 51.676-51.676 51.676a51.667 51.667 0 0 1 -36.52-15.16l-3.078 3.082 21.832 21.836a64.06 64.06 0 0 0 17.766 2.566c35.348 0 64-28.652 64-64a64.071 64.071 0 0 0 -2.543-17.75zm0 0" fill="url(#e)" fill-rule="evenodd"/></g><path d="m64 8a4.61 4.61 0 0 0 -4.496 3.605 52.7 52.7 0 0 0 -29.387 12.2 4.616 4.616 0 0 0 -2.351-.653 4.615 4.615 0 0 0 -4.614 4.614c.004.828.227 1.636.649 2.347a52.72 52.72 0 0 0 -12.219 29.399 4.612 4.612 0 0 0 -3.582 4.488 4.61 4.61 0 0 0 3.605 4.496 52.7 52.7 0 0 0 12.2 29.387 4.616 4.616 0 0 0 -.653 2.351 4.615 4.615 0 0 0 4.614 4.614 4.643 4.643 0 0 0 2.34-.645 52.743 52.743 0 0 0 29.406 12.219 4.613 4.613 0 0 0 4.488 3.578c2.16 0 4.027-1.5 4.496-3.61a52.723 52.723 0 0 0 29.426-12.171c.7.41 1.5.625 2.312.629a4.615 4.615 0 0 0 4.614-4.614 4.647 4.647 0 0 0 -.649-2.347 52.712 52.712 0 0 0 12.266-29.407 4.62 4.62 0 0 0 3.535-4.48c0-2.16-1.5-4.027-3.61-4.496a52.705 52.705 0 0 0 -12.175-29.422 4.608 4.608 0 0 0 .633-2.316 4.615 4.615 0 0 0 -4.614-4.614 4.647 4.647 0 0 0 -2.347.649 52.712 52.712 0 0 0 -29.407-12.266 4.613 4.613 0 0 0 -4.48-3.535zm0 1.977a2.636 2.636 0 1 1 -2.637 2.636 2.636 2.636 0 0 1 2.637-2.636zm-4.336 4.187a4.604 4.604 0 0 0 8.648.063 50.065 50.065 0 0 1 27.786 11.511 4.608 4.608 0 0 0 6.172 6.16 50.057 50.057 0 0 1 11.523 27.778 4.606 4.606 0 0 0 -.023 8.637 50.033 50.033 0 0 1 -11.508 27.785 4.608 4.608 0 0 0 -6.164 6.168 50.078 50.078 0 0 1 -27.774 11.527 4.61 4.61 0 0 0 -4.324-3.016 4.608 4.608 0 0 0 -4.313 2.993 50.1 50.1 0 0 1 -27.804-11.465 4.608 4.608 0 0 0 -6.148-6.207 50.078 50.078 0 0 1 -11.57-27.762 4.604 4.604 0 0 0 .066-8.648 50.077 50.077 0 0 1 11.468-27.805 4.608 4.608 0 0 0 6.203-6.152 50.045 50.045 0 0 1 27.762-11.567zm4.336 9.649a4.606 4.606 0 0 0 -4.504 3.64c-18.469 2.27-32.355 17.942-32.39 36.547.027 18.613 13.917 34.293 32.394 36.563a4.606 4.606 0 0 0 9.004-.016c18.469-2.27 32.355-17.942 32.39-36.547-.027-18.613-13.917-34.293-32.394-36.563a4.609 4.609 0 0 0 -4.5-3.625zm-36.234 1.316a2.635 2.635 0 1 1 -.004 5.27 2.635 2.635 0 0 1 .004-5.27zm72.468 0a2.636 2.636 0 1 1 .002 5.271 2.636 2.636 0 0 1 -.002-5.271zm-36.234.66a2.635 2.635 0 1 1 0 5.27 2.636 2.636 0 1 1 0-5.27zm-4.309 4.277a4.616 4.616 0 0 0 4.309 2.97 4.617 4.617 0 0 0 4.3-2.962c17.099 2.164 29.928 16.692 29.959 33.926-.028 17.234-12.852 31.766-29.95 33.934a4.616 4.616 0 0 0 -4.309-2.97 4.617 4.617 0 0 0 -4.3 2.962c-17.099-2.164-29.928-16.692-29.959-33.926.028-17.234 12.852-31.766 29.95-33.934zm4.309 20.758c-7.277 0-13.176 5.899-13.176 13.176s5.899 13.176 13.176 13.176 13.176-5.899 13.176-13.176-5.899-13.176-13.176-13.176zm-51.387 10.54a2.635 2.635 0 0 1 2.633 2.636 2.635 2.635 0 1 1 -5.27 0 2.636 2.636 0 0 1 2.637-2.637zm102.774 0a2.636 2.636 0 0 1 2.636 2.636 2.636 2.636 0 1 1 -2.636-2.637zm-51.387 35.576a2.636 2.636 0 1 1 -2.637 2.637 2.636 2.636 0 0 1 2.637-2.636zm-36.234.66a2.634 2.634 0 1 1 -.003 5.269 2.634 2.634 0 0 1 .003-5.268zm72.468 0a2.635 2.635 0 1 1 .004 5.27 2.635 2.635 0 0 1 -.004-5.27zm-36.234 15.155a2.635 2.635 0 1 1 0 5.27 2.636 2.636 0 1 1 0-5.27zm0 0" fill="#fcfcfc"/></svg>