<svg height="64" viewBox="0 0 64 64" width="64" xmlns="http://www.w3.org/2000/svg"><g fill="none" fill-rule="evenodd"><path d="m0 0h64v64h-64z" fill="#ed7100"/><path d="m32.981 46.202a1.696 1.696 0 1 1 0 3.391 1.696 1.696 0 0 1 0-3.391m-14.302-13.202a1.696 1.696 0 1 1 -3.391 0 1.696 1.696 0 0 1 3.391 0m30.287 18c-1.774 0-2.966-1.206-2.966-3 0-1.783 1.192-2.981 2.966-2.981 1.815 0 3.034 1.198 3.034 2.981 0 1.794-1.219 3-3.034 3m-2.966-18c0-1.795 1.206-3 3-3 1.793 0 3 1.205 3 3s-1.207 3-3 3c-1.794 0-3-1.206-3-3m-13.019 3c-1.783 0-2.981-1.206-2.981-3s1.198-3 2.981-3c1.806 0 3.019 1.205 3.019 3s-1.213 3-3.019 3m4.019 12c0 2.467-1.54 4-4.019 4-2.419 0-3.981-1.57-3.981-4s1.57-4 4-4 4 1.57 4 4m-9-31c0-3.436 2.582-5 4.981-5 2.498 0 5.019 1.546 5.019 5s-2.521 5-5.019 5c-2.399 0-4.981-1.565-4.981-5m-11 20c-2.43 0-4-1.57-4-4s1.562-4 3.979-4c2.48 0 4.021 1.533 4.021 4 0 2.43-1.571 4-4 4m3 11c0 1.794-1.217 3-3.029 3-1.777 0-2.971-1.206-2.971-3 0-1.799 1.194-3.007 2.971-3.007 1.783 0 3.029 1.236 3.029 3.007m30-4.887v-5.205c2.368-.426 4-2.357 4-4.908 0-2.897-2.103-5-5-5-2.552 0-4.483 1.632-4.909 4h-6.183c-.37-2.048-1.871-3.542-3.927-3.909v-4.164c3.131-.415 6.019-2.772 6.019-6.927 0-4.596-3.532-7-7.019-7-3.47 0-6.981 2.404-6.981 7 0 4.153 2.868 6.509 5.981 6.926v4.166c-2.037.369-3.523 1.862-3.89 3.908h-5.168c-.423-2.988-2.746-5-5.944-5-3.52 0-5.979 2.467-5.979 6 0 3.187 2.012 5.501 5 5.924v4.158c-2.367.419-4 2.355-4 4.918 0 2.897 2.09 5 4.971 5 2.914 0 5.029-2.103 5.029-5 0-2.547-1.631-4.479-4-4.914v-4.162c2.664-.377 4.546-2.26 4.923-4.924h5.168c.368 2.051 1.862 3.546 3.909 3.91v4.166c-2.988.423-5 2.736-5 5.924 0 3.533 2.46 6 5.981 6 3.544 0 6.019-2.467 6.019-6 0-3.188-2.013-5.501-5-5.924v-4.169c2.046-.373 3.539-1.865 3.908-3.907h6.183c.369 2.046 1.862 3.54 3.909 3.908v5.2c-2.366.415-4 2.341-4 4.892 0 2.897 2.088 5 4.966 5 2.916-0 5.034-2.103 5.034-5 0-2.532-1.631-4.454-4-4.887" fill="#fff"/></g></svg>