<svg xmlns="http://www.w3.org/2000/svg" xmlns:xlink="http://www.w3.org/1999/xlink" viewBox="0 0 24 24"><linearGradient id="a"><stop offset="0" stop-color="#06f"/><stop offset=".2" stop-color="#1677ff"/><stop offset="1" stop-color="#04a6ff"/></linearGradient><linearGradient xlink:href="#a" id="b" x1="31.373%" x2="61.365%" y1="95.551%" y2="-.348%"/><linearGradient xlink:href="#a" id="c" x1="4.366%" x2="94.359%" y1="65.982%" y2="32.918%"/><linearGradient xlink:href="#a" id="d" x1="56.255%" x2="45.986%" y1="99.257%" y2="1.384%"/><path fill="currentColor" d="M9.797 6.282a.45.45 0 0 1-.336-.315 1 1 0 0 1 0-.505c.156-.86.3-1.725.501-2.577.14-.7.42-1.367.823-1.96.305-.431.75-.746 1.262-.89.877-.217 1.24.629.937 1.348-.259.593-.877.914-1.334 1.348-.835.795-1.096 2.14-1.336 3.212a.43.43 0 0 1-.186.277.44.44 0 0 1-.331.062" transform="translate(3)"/><path fill="currentColor" d="M6.334 4.672c.33-.121.682.146.946.297.278.145.587.219.901.214.231.01.466 0 .688.018 4.098.176 7.484 3.22 8.05 7.237.565 4.016-1.852 7.859-5.745 9.134-3.894 1.276-8.153-.38-10.126-3.935A8.34 8.34 0 0 1 3.133 7.081q.523-.417 1.102-.755a8.4 8.4 0 0 0 1.318-.79c.28-.243.45-.742.781-.864m4.406 2.15c-2.841.003-4.898 2.533-4.628 5.642s2.781 5.641 5.613 5.665 4.932-2.512 4.658-5.644c-.273-3.133-2.802-5.666-5.643-5.663m.357.57a4.7 4.7 0 0 1 3.304 1.446 5.7 5.7 0 0 1 1.643 3.49 4.84 4.84 0 0 1-1.141 3.705v.015a3.92 3.92 0 0 1-2.808 1.303 4.66 4.66 0 0 1-3.367-1.387 5.68 5.68 0 0 1-1.71-3.518 4.83 4.83 0 0 1 1.14-3.753 3.92 3.92 0 0 1 2.813-1.3z" transform="translate(3)"/><path fill="currentColor" d="M2.346 2.054a1.26 1.26 0 0 1 .384-.594.84.84 0 0 1 1.165.11c.694.82.169 2.078.142 3.02.013.805.208 1.597.57 2.318q.127.202.186.43a.54.54 0 0 1-.3.577c-.345.17-.568-.19-.709-.446q-.486-.9-.877-1.846a8.7 8.7 0 0 1-.618-1.987 8 8 0 0 1-.051-.37 4 4 0 0 1-.024-.34 2.5 2.5 0 0 1 .132-.872" transform="translate(3)"/></svg>