<svg xmlns="http://www.w3.org/2000/svg" fill="currentColor" fill-rule="evenodd" viewBox="0 0 24 24"><path d="M15.984 1.383c-.259.593-.877.914-1.334 1.348-.702.669-.998 1.726-1.218 2.682 3.37.775 5.995 3.532 6.486 7.025.566 4.016-1.85 7.859-5.744 9.134s-8.153-.38-10.126-3.935A8.34 8.34 0 0 1 6.457 6.833a19 19 0 0 1-.376-.802l-.174-.408a8.7 8.7 0 0 1-.618-1.987 8 8 0 0 1-.051-.37 4 4 0 0 1-.024-.34 2.5 2.5 0 0 1 .132-.872 1.26 1.26 0 0 1 .384-.594.84.84 0 0 1 1.165.11c.694.82.169 2.078.142 3.02.009.575.111 1.144.301 1.684l-.103.052a8.4 8.4 0 0 0 1.318-.79c.28-.243.45-.742.781-.864.33-.121.682.146.946.297.278.145.587.219.901.214l.462.007q.114.002.226.011.318.014.63.05l.196-1.08q.06-.323.126-.645l.141-.641c.14-.7.42-1.367.823-1.96.305-.431.75-.746 1.262-.89.877-.217 1.24.629.937 1.348m-2.244 5.44c-2.841.002-4.898 2.532-4.628 5.64.27 3.11 2.781 5.642 5.613 5.666s4.932-2.512 4.658-5.644c-.273-3.133-2.802-5.666-5.643-5.663zm.357.57a4.7 4.7 0 0 1 3.304 1.445 5.7 5.7 0 0 1 1.643 3.49 4.84 4.84 0 0 1-1.141 3.705v.015a3.92 3.92 0 0 1-2.808 1.303 4.66 4.66 0 0 1-3.367-1.387 5.68 5.68 0 0 1-1.71-3.518 4.83 4.83 0 0 1 1.14-3.753 3.92 3.92 0 0 1 2.813-1.3z"/></svg>