<svg xmlns="http://www.w3.org/2000/svg" id="svg13826" width="68.165" height="66.143" viewBox="0 0 18.035 17.5"><g id="layer1" transform="translate(-.993 -1.174)"><g id="g70" transform="translate(16.902 -2.699)scale(1.01489)"><path id="path3055" d="M-6.85 4.272a1.12 1.11 0 0 0-.428.109l-5.852 2.796a1.12 1.11 0 0 0-.606.753l-1.444 6.282a1.12 1.11 0 0 0 .152.85 1.12 1.11 0 0 0 .064.089l4.05 5.037a1.12 1.11 0 0 0 .876.417l6.496-.001a1.12 1.11 0 0 0 .875-.417l4.049-5.038a1.12 1.11 0 0 0 .216-.939L.152 7.93a1.12 1.11 0 0 0-.605-.753L-6.307 4.38a1.12 1.11 0 0 0-.542-.109" fill="#326ce5" fill-opacity="1" stroke="none" stroke-width="0" stroke-miterlimit="4" stroke-dasharray="none" stroke-opacity="1"/><path id="path3054-2-9" d="M-6.852 3.818a1.181 1.172 0 0 0-.452.115l-6.18 2.951a1.181 1.172 0 0 0-.638.795l-1.524 6.63a1.181 1.172 0 0 0 .16.9 1.181 1.172 0 0 0 .067.093l4.276 5.317a1.181 1.172 0 0 0 .924.44h6.858a1.181 1.172 0 0 0 .923-.44L1.837 15.3a1.181 1.172 0 0 0 .228-.99L.54 7.677a1.181 1.172 0 0 0-.64-.795l-6.178-2.95a1.181 1.172 0 0 0-.573-.115m.003.455a1.12 1.11 0 0 1 .542.108l5.853 2.795a1.12 1.11 0 0 1 .606.753l1.446 6.281a1.12 1.11 0 0 1-.216.94l-4.05 5.037a1.12 1.11 0 0 1-.875.417l-6.496.001a1.12 1.11 0 0 1-.875-.417l-4.05-5.037a1.12 1.11 0 0 1-.064-.088 1.12 1.11 0 0 1-.152-.851l1.444-6.281a1.12 1.11 0 0 1 .605-.753l5.853-2.797a1.12 1.11 0 0 1 .429-.108" style="line-height:normal;-inkscape-font-specification:Sans;text-indent:0;text-align:start;text-decoration-line:none;text-transform:none;marker:none" color="#000" font-style="normal" font-variant="normal" font-weight="400" font-stretch="normal" font-size="medium" font-family="Sans" text-decoration="none" letter-spacing="normal" word-spacing="normal" writing-mode="lr-tb" direction="ltr" baseline-shift="baseline" text-anchor="start" display="inline" overflow="visible" visibility="visible" fill="#fff" fill-opacity="1" fill-rule="nonzero" stroke="none" stroke-width="0" stroke-miterlimit="4" stroke-dasharray="none"/></g><g id="g3350" transform="translate(.092 .634)"><path id="path1991" d="M4.495 11.296h2.908v2.042H4.495z" fill="#fff" fill-rule="evenodd" stroke="none" stroke-width=".26458332" stroke-linecap="square" stroke-miterlimit="10"/><path id="path1993" d="M8.464 11.296h2.908v2.042H8.464z" fill="#fff" fill-rule="evenodd" stroke="none" stroke-width=".26458332" stroke-linecap="square" stroke-miterlimit="10"/><path id="path2002" d="M12.432 11.296h2.909v2.042h-2.909z" fill="#fff" fill-rule="evenodd" stroke="none" stroke-width=".26458332" stroke-linecap="square" stroke-miterlimit="10"/><path id="path2005" d="M7.614 5.244h4.608v2.041H7.614z" fill="#fff" fill-rule="evenodd" stroke="none" stroke-width=".26458332" stroke-linecap="square" stroke-miterlimit="10"/><g id="g2062" transform="rotate(45.017 -226.81 242.718)"><rect id="rect2056" width=".652" height="2.909" x="-226.886" y="-89.589" ry="0" opacity="1" fill="#fff" fill-opacity="1" fill-rule="nonzero" stroke="none" stroke-width=".36763045" stroke-linecap="butt" stroke-linejoin="round" stroke-miterlimit="10" stroke-dasharray="none" stroke-dashoffset="13.00157547" stroke-opacity="1"/><path id="path2058" d="m-224.426-89.87-1.522-1.222-1.522-1.221 1.818-.708 1.82-.707-.297 1.929z" transform="rotate(21.009 -67.447 -360.546)scale(.5235)" opacity="1" fill="#fff" fill-opacity="1" fill-rule="nonzero" stroke="none" stroke-width=".57499999" stroke-linecap="butt" stroke-linejoin="round" stroke-miterlimit="10" stroke-dasharray="none" stroke-dashoffset="13.00157547" stroke-opacity="1"/></g><g id="g2068" transform="rotate(134.983 -90.879 98.005)scale(1 -1)"><rect id="rect2064" width=".652" height="2.909" x="-226.886" y="-89.589" ry="0" opacity="1" fill="#fff" fill-opacity="1" fill-rule="nonzero" stroke="none" stroke-width=".36763045" stroke-linecap="butt" stroke-linejoin="round" stroke-miterlimit="10" stroke-dasharray="none" stroke-dashoffset="13.00157547" stroke-opacity="1"/><path id="path2066" d="m-224.426-89.87-1.522-1.222-1.522-1.221 1.818-.708 1.82-.707-.297 1.929z" transform="rotate(21.009 -67.447 -360.546)scale(.5235)" opacity="1" fill="#fff" fill-opacity="1" fill-rule="nonzero" stroke="none" stroke-width=".57499999" stroke-linecap="butt" stroke-linejoin="round" stroke-miterlimit="10" stroke-dasharray="none" stroke-dashoffset="13.00157547" stroke-opacity="1"/></g><rect id="rect2070" width=".652" height="2.249" x="-10.223" y="7.883" ry="0" transform="rotate(.46)scale(-1 1)skewY(.185)" opacity="1" fill="#fff" fill-opacity="1" fill-rule="nonzero" stroke="none" stroke-width=".32321024" stroke-linecap="butt" stroke-linejoin="round" stroke-miterlimit="10" stroke-dasharray="none" stroke-dashoffset="13.00157547" stroke-opacity="1"/><path id="path2073" d="m-224.426-89.87-1.522-1.222-1.522-1.221 1.818-.708 1.82-.707-.297 1.929z" transform="rotate(159.347 -50.562 40.636)scale(.5235 -.5235)" opacity="1" fill="#fff" fill-opacity="1" fill-rule="nonzero" stroke="none" stroke-width=".57499999" stroke-linecap="butt" stroke-linejoin="round" stroke-miterlimit="10" stroke-dasharray="none" stroke-dashoffset="13.00157547" stroke-opacity="1"/></g></g></svg>