<svg xmlns="http://www.w3.org/2000/svg" width="74" height="74" viewBox="0 0 74 74"><title>Icon-Architecture-Category/48/Games_48</title><g id="Icon-Architecture-Category/48/Games_48" fill="none" fill-rule="evenodd" stroke="none" stroke-width="1"><path id="Rectangle" fill="#8c4fff" d="M5 5h64v64H5z"/><path id="#879196-Border-Copy-12" stroke="#879196" stroke-width="2" d="M1 1h72v72H1z"/><g id="Icon-Category/48/Games_48" fill="#fff" transform="translate(15 22)"><path id="Fill-3" d="M36.521 11.5a1.5 1.5 0 1 1-3.001-.001 1.5 1.5 0 0 1 3.001.001m-3-5a1.5 1.5 0 1 1 3.001.001 1.5 1.5 0 0 1-3.001-.001m3.999 1a1.5 1.5 0 1 1 0 3 1.5 1.5 0 0 1 0-3M31.021 9a1.5 1.5 0 1 1 3.001.001A1.5 1.5 0 0 1 31.021 9m-23 1h-2V8h2V6h2v2h2v2h-2v2h-2zm34 14.037c-.007.406-.165 3.963-3.6 3.963-2.982 0-5.728-6.59-7.562-11.028A8.94 8.94 0 0 0 35.021 18a8.98 8.98 0 0 0 7-3.356zM5.599 28C2.166 28 2.007 24.443 2 24.05v-9.406A8.98 8.98 0 0 0 9 18a8.94 8.94 0 0 0 4.162-1.028C11.328 21.411 8.581 28 5.599 28M9 2c3.86 0 7 3.14 7 7s-3.14 7-7 7-7-3.14-7-7 3.141-7 7-7m18.542 11.999H16.479A8.94 8.94 0 0 0 18 9c0-1.849-.561-3.57-1.522-5.001h11.065A8.95 8.95 0 0 0 26.021 9a8.95 8.95 0 0 0 1.521 4.999M35.021 2c3.859 0 7 3.14 7 7s-3.141 7-7 7-7-3.14-7-7 3.141-7 7-7m0-2a8.95 8.95 0 0 0-5.643 1.999H14.644A8.95 8.95 0 0 0 9 0C4.038 0 0 4.038 0 9v15.059C.019 26.114 1.213 30 5.599 30c4.346 0 7.182-6.866 9.461-12.382.232-.562.457-1.107.674-1.619h12.553c.218.512.443 1.057.675 1.619C31.241 23.135 34.077 30 38.421 30c4.387 0 5.581-3.886 5.6-5.95V9c0-4.962-4.037-9-9-9"/></g></g></svg>