<svg viewBox="0 0 24 24" xmlns="http://www.w3.org/2000/svg"><path d="m6.001 1.61c-5.739 3.313-7.705 10.65-4.391 16.389s10.65 7.705 16.389 4.392 7.705-10.651 4.391-16.391-10.65-7.704-16.39-4.39m.706 1.222c5.064-2.923 11.539-1.188 14.462 3.875s1.189 11.538-3.874 14.461-11.538 1.189-14.462-3.874-1.188-11.538 3.875-14.462m3.914 14.315a3.768 3.768 0 1 1 -3.768-6.526l1.884 3.263zm5.725-11.395-1.176 1.495c.665.511 1.28 1.156 1.725 1.927s.696 1.626.807 2.458l1.882-.272a8.404 8.404 0 0 0 -3.238-5.608m-2.272 3.011-1.176 1.495c.274.216.548.48.734.8s.276.69.325 1.036l1.883-.272a4.6 4.6 0 0 0 -.577-1.706 4.6 4.6 0 0 0 -1.189-1.353zm-3.832 3.708a.942.942 0 1 0 1.884 0 .942.942 0 1 0 -1.884 0"/></svg>