<svg viewBox="0 0 450 500" xmlns="http://www.w3.org/2000/svg" xmlns:xlink="http://www.w3.org/1999/xlink"><radialGradient id="a" cx="-777.14" cy="770.84" gradientTransform="matrix(-98.02204398 -236.87998753 -426.55553437 175.97801918 252868.128273 -319393.725116)" gradientUnits="userSpaceOnUse" r=".9"><stop offset=".29" stop-color="#003b5d"/><stop offset=".61" stop-color="#004a6c" stop-opacity=".69"/><stop offset=".97" stop-color="#006f94" stop-opacity="0"/></radialGradient><radialGradient id="b" cx="-785.23" cy="766.9" gradientTransform="matrix(-81.36865344 -200.48720442 -360.58285994 145.89590151 212855.72997 -269057.381949)" gradientUnits="userSpaceOnUse" r=".9"><stop offset=".26" stop-color="#002a42"/><stop offset=".61" stop-color="#004261" stop-opacity=".69"/><stop offset=".97" stop-color="#006f94" stop-opacity="0"/></radialGradient><linearGradient id="c"><stop offset="0" stop-color="#78edff"/><stop offset="1" stop-color="#2ccfca" stop-opacity="0"/></linearGradient><radialGradient id="d" cx="-739.84" cy="872.71" gradientTransform="matrix(-102.53313 149.24243 149.46801 102.38138 -206024.5 21094.22)" gradientUnits="userSpaceOnUse" r=".9" xlink:href="#c"/><radialGradient id="e" cx="-746.38" cy="743.75" gradientTransform="matrix(56.60728812 -162.28034949 -292.83982107 -101.83187506 260296.261321 -45019.252058)" gradientUnits="userSpaceOnUse" r=".9"><stop offset="0" stop-color="#003b5d"/><stop offset=".49" stop-color="#004c6c" stop-opacity=".72"/><stop offset=".97" stop-color="#007a86" stop-opacity="0"/></radialGradient><radialGradient id="f" cx="-741.46" cy="888.91" gradientTransform="matrix(-85.44333 124.36732 124.55255 85.31498 -173675.69 16546.9)" gradientUnits="userSpaceOnUse" r=".9" xlink:href="#c"/><radialGradient id="g" cx="-686.6" cy="804.18" gradientTransform="matrix(222.88700668 222.57601477 222.92612515 -222.53738481 -26208.168765 332025.538191)" gradientUnits="userSpaceOnUse" r=".9"><stop offset=".06" stop-color="#00b6bd"/><stop offset=".89" stop-color="#00495c"/></radialGradient><radialGradient id="h" cx="-686.07" cy="864.41" gradientTransform="matrix(0 155.79 177.62 0 -153439.14 107241.64)" gradientUnits="userSpaceOnUse" r=".9"><stop offset=".57" stop-color="#1e8581" stop-opacity="0"/><stop offset=".97" stop-color="#1ecbe6"/></radialGradient><linearGradient id="i" gradientTransform="matrix(1 0 0 -1 0 502)" gradientUnits="userSpaceOnUse" x1="92.18" x2="292.29" y1="477.48" y2="214.84"><stop offset="0" stop-color="#00e3df"/><stop offset=".41" stop-color="#0097a8"/><stop offset="1" stop-color="#007791"/></linearGradient><linearGradient id="j" gradientTransform="matrix(1 0 0 -1 0 502)" gradientUnits="userSpaceOnUse" x1="245.14" x2="411.9" y1="331.57" y2="112.7"><stop offset="0" stop-color="#00e3df"/><stop offset=".48" stop-color="#00a2b8"/><stop offset=".95" stop-color="#00637c"/></linearGradient><linearGradient id="k" gradientTransform="matrix(1 0 0 -1 0 502)" gradientUnits="userSpaceOnUse" x1="153.42" x2="259.71" y1="214.53" y2="1.97"><stop offset=".05" stop-color="#75fff6"/><stop offset=".51" stop-color="#00c7d1"/><stop offset=".96" stop-color="#0096ad"/></linearGradient><linearGradient id="l" gradientTransform="matrix(1 0 0 -1 0 502)" gradientUnits="userSpaceOnUse" x1="292.44" x2="235.63" y1="-12.27" y2="67.45"><stop offset=".26" stop-color="#0e5a5d"/><stop offset=".54" stop-color="#126c6b" stop-opacity=".69"/><stop offset=".97" stop-color="#1c948a" stop-opacity="0"/></linearGradient><path d="m187.79 300c82.97 0 150.23-67.16 150.23-150s-67.27-150-150.23-150-150.23 67.16-150.23 150 67.26 150 150.23 150" fill="url(#i)"/><path d="m187.79 300c82.97 0 150.23-67.16 150.23-150s-67.27-150-150.23-150-150.23 67.16-150.23 150 67.26 150 150.23 150" fill="url(#a)" fill-opacity=".2"/><path d="m187.79 300c82.97 0 150.23-67.16 150.23-150s-67.27-150-150.23-150-150.23 67.16-150.23 150 67.26 150 150.23 150" fill="url(#b)" fill-opacity=".31"/><path d="m187.79 300c82.97 0 150.23-67.16 150.23-150s-67.27-150-150.23-150-150.23 67.16-150.23 150 67.26 150 150.23 150" fill="url(#d)" fill-opacity=".7"/><path d="m324.81 400c69.14 0 125.19-55.96 125.19-125s-56.05-125-125.19-125-125.19 55.96-125.19 125 56.05 125 125.19 125" fill="url(#j)"/><path d="m324.81 400c69.14 0 125.19-55.96 125.19-125s-56.05-125-125.19-125-125.19 55.96-125.19 125 56.05 125 125.19 125" fill="url(#e)" fill-opacity=".5"/><path d="m324.81 400c69.14 0 125.19-55.96 125.19-125s-56.05-125-125.19-125-125.19 55.96-125.19 125 56.05 125 125.19 125" fill="url(#f)" fill-opacity=".7"/><path d="m206.56 500c58.77 0 106.41-47.57 106.41-106.25s-47.64-106.25-106.41-106.25-106.41 47.57-106.41 106.25 47.64 106.25 106.41 106.25" fill="url(#k)"/><path d="m206.56 500c58.77 0 106.41-47.57 106.41-106.25s-47.64-106.25-106.41-106.25-106.41 47.57-106.41 106.25 47.64 106.25 106.41 106.25" fill="url(#l)" fill-opacity=".32"/><rect fill="url(#g)" height="200" rx="40.66" width="200.3" y="237.5"/><rect fill="url(#h)" fill-opacity=".6" height="200" rx="40.66" width="200.3" y="237.5"/><path d="m57 372.15 21.72-11.32c2.45 4.94 5.64 8.58 9.58 10.92 3.99 2.34 8.36 3.51 13.09 3.51 5.27 0 9.29-1.06 12.05-3.19 2.77-2.18 4.15-5.45 4.15-9.8q0-5.1-3.99-8.61c-2.66-2.39-7.37-4.2-14.13-5.42-12.88-2.34-22.25-6.43-28.1-12.28q-8.7-8.775-8.7-21.84c0-10.84 3.83-19.5 11.5-25.99 7.66-6.48 17.78-9.72 30.34-9.72 8.46 0 15.91 1.73 22.35 5.18s11.55 8.4 15.33 14.83l-21.23 10.92c-2.34-3.61-4.87-6.22-7.58-7.81-2.72-1.65-6.12-2.47-10.22-2.47-4.9 0-8.62 1.06-11.18 3.19-2.5 2.13-3.75 4.89-3.75 8.29 0 2.92 1.2 5.5 3.59 7.73 2.45 2.18 7.34 3.96 14.69 5.34 12.35 2.34 21.56 6.59 27.62 12.76 6.12 6.11 9.18 13.84 9.18 23.2 0 11.37-3.65 20.38-10.94 27.02s-17.7 9.96-31.21 9.96c-9.79 0-18.63-2.13-26.5-6.38-7.82-4.3-13.7-10.31-17.64-18.02z" fill="#fff"/></svg>