<svg xmlns="http://www.w3.org/2000/svg" width="18" height="18" viewBox="0 0 18 18">
  <defs>
    <mask id="wko">
      <rect width="18" height="18" fill="white"/>
      <path fill="black" d="M6.9 7.39H8v1.35H6.9zm1.62 0H9.6v1.35H8.52zm1.62 0h1.08v1.35h-1.08zM6.9 9.55H8v1.35H6.9zm1.62 0H9.6v1.35H8.52zm1.62 0h1.08v1.35h-1.08zM6.9 11.71H8v1.35H6.9zm1.62 0H9.6v1.35H8.52zm0 2.16H9.6v1.62H8.52zm1.62-2.16h1.08v1.35h-1.08z"/>
    </mask>
  </defs>
  <g fill="currentColor" mask="url(#wko)">
    <path fill="currentColor" d="M17.5 10.26a3.82 3.82 0 0 0-3.32-3.67A4.8 4.8 0 0 0 9.23 2a4.94 4.94 0 0 0-4.72 3.2 4.56 4.56 0 0 0-4 4.39A4.62 4.62 0 0 0 5.29 14h8.17a1 1 0 0 0 .2 0 3.87 3.87 0 0 0 3.84-3.74"/>
    <path fill="currentColor" d="M11.88 15.53a.48.48 0 0 1-.49.48H6.72a.48.48 0 0 1-.49-.48V6.87a.48.48 0 0 1 .49-.48h4.67a.48.48 0 0 1 .49.48z"/>
  </g>
</svg>