<svg height="18" viewBox="0 0 18 18" width="18" xmlns="http://www.w3.org/2000/svg" xmlns:xlink="http://www.w3.org/1999/xlink"><linearGradient id="a" gradientUnits="userSpaceOnUse" x1="9" x2="9" y1="1.99" y2="14.03"><stop offset="0" stop-color="#5ea0ef"/><stop offset=".18" stop-color="#559cec"/><stop offset=".47" stop-color="#3c91e5"/><stop offset=".84" stop-color="#1380da"/><stop offset="1" stop-color="#0078d4"/></linearGradient><linearGradient id="b" gradientUnits="userSpaceOnUse" x1="9.06" x2="9.06" y1="6.39" y2="16.01"><stop offset="0" stop-color="#b3b3b3"/><stop offset=".12" stop-color="#adadad"/><stop offset=".64" stop-color="#9b9b9b"/><stop offset="1" stop-color="#949494"/></linearGradient><path d="m17.5 10.26a3.82 3.82 0 0 0 -3.32-3.67 4.8 4.8 0 0 0 -4.95-4.59 4.94 4.94 0 0 0 -4.72 3.2 4.56 4.56 0 0 0 -4 4.39 4.62 4.62 0 0 0 4.78 4.41h8.17a1 1 0 0 0 .2 0 3.87 3.87 0 0 0 3.84-3.74" fill="url(#a)"/><path d="m11.88 15.53a.48.48 0 0 1 -.49.48h-4.67a.48.48 0 0 1 -.49-.48v-8.66a.48.48 0 0 1 .49-.48h4.67a.48.48 0 0 1 .49.48z" fill="url(#b)"/><path d="m6.9 7.39h1.1v1.35h-1.1zm1.62 0h1.08v1.35h-1.08zm1.62 0h1.08v1.35h-1.08zm-3.24 2.16h1.1v1.35h-1.1zm1.62 0h1.08v1.35h-1.08zm1.62 0h1.08v1.35h-1.08zm-3.24 2.16h1.1v1.35h-1.1zm1.62 0h1.08v1.35h-1.08zm0 2.16h1.08v1.62h-1.08zm1.62-2.16h1.08v1.35h-1.08z" fill="#fff"/></svg>