<svg height="18" viewBox="0 0 18 18" width="18" xmlns="http://www.w3.org/2000/svg" xmlns:xlink="http://www.w3.org/1999/xlink"><linearGradient id="a" gradientUnits="userSpaceOnUse" x1="9" x2="9" y1="3.72" y2="15.02"><stop offset=".18" stop-color="#5ea0ef"/><stop offset="1" stop-color="#0078d4"/></linearGradient><path d="m8.57 8.69h-7.57v-6.51a1.1 1.1 0 0 1 1.09-1.1h6.48zm-6.63-.94h5.69v-5.75h-5.54a.15.15 0 0 0 -.15.15zm15.06.94h-7.57v-7.61h6.48a1.1 1.1 0 0 1 1.09 1.1zm-6.63-.94h5.69v-5.57a.15.15 0 0 0 -.15-.18h-5.54zm-1.8 9.33h-6.48a1.09 1.09 0 0 1 -1.09-1.08v-6.52h7.57zm-6.63-6.66v5.58a.15.15 0 0 0 .15.15h5.54v-5.73zm13.97 6.66h-6.48v-7.6h7.57v6.52a1.09 1.09 0 0 1 -1.09 1.08m-5.54-.94h5.54a.15.15 0 0 0 .15-.15v-5.57h-5.69z" fill="#949494"/><path d="m14.67 10.62a2.59 2.59 0 0 0 -2.21-2.5 3.24 3.24 0 0 0 -3.31-3.12 3.32 3.32 0 0 0 -3.15 2.17 3.08 3.08 0 0 0 -2.66 3 3.11 3.11 0 0 0 3.19 3h5.61a2.61 2.61 0 0 0 2.53-2.55" fill="url(#a)"/></svg>