<svg height="48" viewBox="0 0 48 48" width="48" xmlns="http://www.w3.org/2000/svg"><path d="m9 39h30v-30h-30zm32-26v4h5v2h-5v4h5v2h-5v4h5v2h-5v4h5v2h-5v3a1 1 0 0 1 -1 1h-3v5h-2v-5h-4v5h-2v-5h-4v5h-2v-5h-4v5h-2v-5h-4v5h-2v-5h-3a1 1 0 0 1 -1-1v-3h-5v-2h5v-4h-5v-2h5v-4h-5v-2h5v-4h-5v-2h5v-4h-5v-2h5v-3a1 1 0 0 1 1-1h3v-5h2v5h4v-5h2v5h4v-5h2v5h4v-5h2v5h4v-5h2v5h3a1 1 0 0 1 1 1v3h5v2zm-19.155 12h-11.845v-2h11.324l-2.962-2.962 1.414-1.414 4.077 4.076 4.075-4.076 1.414 1.414-2.962 2.962h10.62v2h-11.031l3.485 3.485-1.414 1.414-4.133-4.133-4.134 4.133-1.414-1.414z" fill="#ed7100" fill-rule="evenodd"/></svg>