<svg xmlns="http://www.w3.org/2000/svg" width="228" height="228" fill="none" viewBox="0 0 228 228"><g clip-path="url(#clip0_21146_2718)"><path fill="#dd1600" d="M114.446 30c38.022 0 68.964 30.774 69.447 68.747 0 .267 0 .587.107.906 0 19.627-8.151 37.387-21.236 50.027l-3.701 3.733-15.138-15.168 4.038-3.391c9.277-8.854 15.069-21.387 15.069-35.2 0-26.774-21.772-48.588-48.532-48.588s-48.532 21.76-48.532 48.587c0 12.16 4.505 23.307 11.905 31.84.643.747 1.287 1.493 1.984 2.187l1.126 1.12 5.685 5.707 27.778 27.84.859.853 13.942 13.974L114.446 198l-14.8-14.826-27.779-27.841-6.167-6.187v-.052c-4.344-4.267-8.098-9.121-11.208-14.401A69.47 69.47 0 0 1 45 99.6v-.853C45.429 60.774 76.425 30 114.446 30m0 31.52c20.915 0 37.968 17.12 37.968 38.08 0 10.933-4.612 20.8-12.013 27.733a38.1 38.1 0 0 1-13.996 8.373l10.296 10.347 13.354 13.334 1.501 1.493-14.801 14.826-7.99-8-6.811-6.826-27.778-27.84-6.543-6.561c-6.918-6.879-11.154-16.373-11.154-26.88 0-21.013 17.053-38.08 37.967-38.08m0 21.013c-9.384 0-17.052 7.68-17.052 17.067 0 9.386 7.668 17.066 17.052 17.066 9.439 0 17.054-7.68 17.054-17.066 0-9.387-7.669-17.067-17.054-17.067"/></g><defs><clipPath id="clip0_21146_2718"><path fill="#fff" d="M45 30h139v168H45z"/></clipPath></defs></svg>