<svg viewBox="0 0 24 24" xmlns="http://www.w3.org/2000/svg"><path d="m4.204 18.089v-5.429q0-2.477 1.156-3.947t3.108-1.47q.494 0 1.03.092.54.088.953.245v-1.604q-.279-.122-.754-.195-.478-.073-1.007-.073-1.76 0-2.902.88-1.144.881-1.458 2.497h-.157v-3.075h-4.173v1.186h2.737v10.894zm-3.959 0h7.795v-1.187h-7.795zm18.855-10.98q1.604 0 2.507 1.095.904 1.091.904 3.02h-6.911q0-1.94.93-3.027t2.569-1.088zm4.846 7.998h-1.458q-.28.884-1.133 1.378-.854.494-2.087.494-1.68 0-2.676-1.114-.991-1.118-.991-3.013v-.414h8.399v-.953q0-1.807-.578-3.074-.574-1.267-1.67-1.933-1.094-.67-2.652-.67-1.493 0-2.615.658-1.118.655-1.738 1.838-.617 1.183-.617 2.775v1.761q0 2.58 1.352 4.016 1.351 1.436 3.786 1.436 1.221 0 2.205-.394.98-.39 1.627-1.11.643-.717.846-1.681"/></svg>