<svg clip-rule="evenodd" stroke-linecap="round" stroke-linejoin="round" stroke-miterlimit="10" viewBox="0 0 1024 1024" xmlns="http://www.w3.org/2000/svg"><path d="m536.359 484.569c-25.15-60.396 142.849-333.837 227.229-362.525 44.196-15.027 93.145 56.185 106.992 114.053 13.909 58.129 7.806 118.903-30.581 165.845-43.264 52.904-280.757 137.58-303.64 82.627" fill="#63c862"/><path d="m474.634 497.831c-36.492 18.111-128.758-5.131-225.151-42.057-84.908-32.525-188.163-118.791-189.541-145.625-2.09-40.708 57.502-77.667 126.354-90.298 69.161-12.689 150.336-15.261 196.02 23.096 77.447 65.025 160.404 221.093 92.318 254.884" fill="#ffca3d"/><path d="m535.511 552.81c64.871 33.983 142.066 358.05 109.633 394.921-29.259 33.262-109.374 13.305-165.203-22.387-56.08-35.852-81.135-97.144-77.303-152.334 6.495-93.565 68.002-254.183 132.873-220.2" fill="#4ebffe"/></svg>