<svg height="48" viewBox="0 0 48 48" width="48" xmlns="http://www.w3.org/2000/svg"><path d="m38.122 39.521c-.08.147-.122.312-.122.479v4h-3v-4c0-.167-.042-.332-.122-.479l-5.194-9.521h13.631zm7.738-11.031a1 1 0 0 0 -.86-.49h-17a1 1 0 0 0 -.878 1.479l5.878 10.776v4.745a1 1 0 0 0 1 1h5a1 1 0 0 0 1-1v-4.745l5.878-10.776a1 1 0 0 0 -.018-.989m-26.444-24.49c8.811 0 15.277 2.751 15.416 4.227l-.023.179c-.503 1.473-6.659 3.57-15.393 3.57s-14.891-2.098-15.39-3.571l-.024-.179c.141-1.476 6.605-4.226 15.414-4.226m17.711 18.16c.03.086.036.157-.022.272-.011.024-.075.067-.186.104-.45.149-1.139.133-1.994-.006l.263-1.95c.824.443 1.751 1.038 1.939 1.58m-10.002 15.579c-2.231.515-4.968.8-7.709.8-7.309 0-11.564-1.838-11.69-2.585a1 1 0 0 0 -.009-.133l-3.304-24.539c3.239 1.773 9.259 2.694 15.003 2.694 5.745 0 11.766-.921 15.005-2.694l-1.454 10.8c-3.249-.903-7.618-2.742-10.994-4.353a2 2 0 0 0 -1.973-1.729c-1.103 0-2 .897-2 2s.897 2 2 2c.456 0 .872-.159 1.209-.417 2.702 1.291 7.559 3.471 11.491 4.484l-.226 1.679 1.982.267.207-1.536c.546.083 1.068.14 1.529.14.519 0 .978-.057 1.358-.184.784-.261 1.164-.745 1.344-1.106a2.3 2.3 0 0 0 .122-1.825c-.493-1.414-2.268-2.407-3.545-3.026l1.31-9.73-.001-.001.001-.004.044-.338a1 1 0 0 0 .009-.129c0-3.753-9.006-6.274-17.418-6.274s-17.416 2.521-17.416 6.274q0 .066.009.132l.045.338v.002l3.673 27.286c.125 3.304 8.228 4.507 13.689 4.507 2.888 0 5.786-.303 8.159-.851.958-.221 1.818-.48 2.556-.772l-.735-1.86c-.645.255-1.409.484-2.271.683m-16.401-13.739 2.276-3.984 2.276 3.984zm7.141 1.502a1 1 0 0 0 .003-.998l-4-7c-.355-.623-1.381-.623-1.736 0l-4 7a1 1 0 0 0 .868 1.496h8c.356 0 .685-.19.865-.498m5.329 2.695a2.493 2.493 0 0 0 2.49 2.49v2a4.496 4.496 0 0 1 -4.49-4.49 4.495 4.495 0 0 1 4.49-4.49c1.281 0 2.504.549 3.357 1.508l-1.494 1.329a2.493 2.493 0 0 0 -4.353 1.653m-10.194 5.803h4v-4h-4zm-1 2h6a1 1 0 0 0 1-1v-6a1 1 0 0 0 -1-1h-6a1 1 0 0 0 -1 1v6a1 1 0 0 0 1 1" fill="#7aa116" fill-rule="evenodd"/></svg>