<svg height="64" viewBox="0 0 64 64" width="64" xmlns="http://www.w3.org/2000/svg"><g fill="none" fill-rule="evenodd"><path d="m0 0h64v64h-64z" fill="#ed7100"/><path d="m37.968 42.005-4.968 2.843-4.968-2.843v-5.67l4.968-2.843 4.968 2.843zm2-6.25c0-.358-.192-.69-.503-.868l-5.968-3.415a1 1 0 0 0 -.994 0l-5.968 3.415c-.31.178-.503.51-.503.868v2.245h-14.032v2h14.032v2.585c0 .358.193.69.503.868l5.465 3.128v5.419h2v-5.419l5.465-3.128c.311-.178.503-.51.503-.868v-2.585h12.032v-2h-12.032zm-24.968-14.755h5v-2h-5zm22 0h12v-2h-12zm-25 5h40v-12h-40zm41-14h-42a1 1 0 0 0 -1 1v14a1 1 0 0 0 1 1h42a1 1 0 0 0 1-1v-14a1 1 0 0 0 -1-1" fill="#fff"/></g></svg>