<svg height="18" viewBox="0 0 18 18" width="18" xmlns="http://www.w3.org/2000/svg" xmlns:xlink="http://www.w3.org/1999/xlink"><linearGradient id="a" gradientUnits="userSpaceOnUse" x1="9.24" x2="8.85" y1=".96" y2="16.52"><stop offset="0" stop-color="#32d4f5"/><stop offset=".23" stop-color="#31d0f1"/><stop offset=".46" stop-color="#2cc3e6"/><stop offset=".7" stop-color="#25afd4"/><stop offset=".94" stop-color="#1c92ba"/><stop offset="1" stop-color="#198ab3"/></linearGradient><path d="m17.1 3.6h-7.41a.34.34 0 0 1 -.22-.07l-2.12-1.41a.43.43 0 0 0 -.22-.06h-6.23a.4.4 0 0 0 -.4.39v13.1a.4.4 0 0 0 .4.39h16.2a.4.4 0 0 0 .4-.39v-11.55a.4.4 0 0 0 -.4-.4" fill="#005ba1"/><rect fill="#fff" height=".77" rx=".16" width="3.86" x="2.05" y="2.82"/><rect fill="#1ac3f2" height=".77" rx=".11" width=".77" x="2.05" y="2.82"/><path d="m17.1 3.58h-8.1a.36.36 0 0 0 -.28.12l-1.35 1.3a.43.43 0 0 1 -.28.11h-6.19a.4.4 0 0 0 -.4.4v10a.4.4 0 0 0 .4.39h16.2a.4.4 0 0 0 .4-.39v-11.51a.4.4 0 0 0 -.4-.42" fill="url(#a)"/><path d="m10.18 5.7a.15.15 0 0 0 -.08 0s-.09 0-.13.07l-3.16 4.59a.16.16 0 0 0 0 .16.19.19 0 0 0 .15.1h1.87l-.83 2.78a.13.13 0 0 0 .07.18.1.1 0 0 0 .07 0c.06 0 .09 0 .13-.07l3.26-4.66v-.1a.17.17 0 0 0 -.17-.16h-2l.81-2.73a.13.13 0 0 0 .01-.16" fill="#fff"/></svg>