<svg fill="none" height="36" viewBox="0 0 36 36" width="36" xmlns="http://www.w3.org/2000/svg" xmlns:xlink="http://www.w3.org/1999/xlink"><linearGradient id="a" gradientUnits="userSpaceOnUse" x1="18" x2="18" y1="2" y2="38"><stop offset="0" stop-color="#5ea0ef"/><stop offset="1" stop-color="#0078d4"/></linearGradient><clipPath id="b"><path d="m0 36v-36h36v36z"/></clipPath><g clip-path="url(#b)"><path d="m6.136 16.304c0 6.034 4.908 10.944 10.944 10.944 4.952 0 8.98-4.028 8.98-8.98 0-.368.282-.676.648-.71a.715.715 0 0 1 .766.582 8.7 8.7 0 0 1 .14 1.556c0 6.146-5 11.148-11.148 11.148-7.838 0-14.216-6.378-14.216-14.216a1.124 1.124 0 1 0 -2.248 0c-.002 9.078 7.386 16.466 16.464 16.466 7.388 0 13.398-6.01 13.398-13.398 0-6.036-4.908-10.944-10.944-10.944-4.952 0-8.98 4.028-8.98 8.98a.715.715 0 0 1 -.648.71.715.715 0 0 1 -.766-.582 8.7 8.7 0 0 1 -.14-1.556c0-6.146 5-11.146 11.148-11.146 7.838 0 14.216 6.376 14.216 14.216a1.124 1.124 0 1 0 2.248 0c0-9.078-7.388-16.466-16.466-16.466-7.388 0-13.398 6.01-13.398 13.396z" fill="url(#a)"/><path d="m30 31.5v3a1.5 1.5 0 0 0 1.5 1.5h3a1.5 1.5 0 0 0 1.5-1.5v-3a1.5 1.5 0 0 0 -1.5-1.5h-3a1.5 1.5 0 0 0 -1.5 1.5m-28-26.5v2a1 1 0 0 0 1 1h2a1 1 0 0 0 1-1v-2a1 1 0 0 0 -1-1h-2a1 1 0 0 0 -1 1m30-4v2a1 1 0 0 0 1 1h2a1 1 0 0 0 1-1v-2a1 1 0 0 0 -1-1h-2a1 1 0 0 0 -1 1" fill="#32bedd"/><path d="m14 21v2a1 1 0 0 0 1 1h2a1 1 0 0 0 1-1v-2a1 1 0 0 0 -1-1h-2a1 1 0 0 0 -1 1m4-8v2a1 1 0 0 0 1 1h2a1 1 0 0 0 1-1v-2a1 1 0 0 0 -1-1h-2a1 1 0 0 0 -1 1" fill="#50e6ff"/></g></svg>