<svg xmlns="http://www.w3.org/2000/svg" width="210" height="43.08" viewBox="0 0 210 43.08"><g fill="currentColor"><path fill-rule="evenodd" d="M16.827 42.598V26.779c0-1.52.263-3.078.829-4.3 3.476-8.782 17.375-8.534 20.659.02a11.8 11.8 0 0 1 .813 4.28v15.819h-9.39v-14.23c0-1.444.033-3.11-1.86-3.11-1.127 0-1.655.925-1.655 2.647v14.693zm24.605-31.22h9.923v5.328h5.86v6.453h-5.86v7.644c0 1.95 1.093 3.042 3.247 3.042h2.613v8.742h-5.662c-2.023 0-3.67-.301-4.895-.767-1.224-.461-2.318-1.395-3.243-2.45-.599-.925-1.224-1.985-1.524-3.21-.299-1.228-.459-2.315-.459-3.205zm46.176-5.002h9.925v36.216h-9.925zm72.524 18.397a4.11 4.11 0 0 1 4.113 4.109 4.11 4.11 0 0 1-4.113 4.114 4.11 4.11 0 0 1-4.117-4.114 4.11 4.11 0 0 1 4.117-4.109m.046-9.185c7.482 0 13.603 5.787 13.603 13.298l-.037 13.672-9.795-.039v-3.737l-1.852 3.737c-8.002.896-15.182-5.56-15.182-13.633 0-7.48 6.081-13.298 13.263-13.298m-31.644 27.01h9.365v-14.66c0-2.943 2.947-4.866 5.036-2.517l5.528-5.383a11.03 11.03 0 0 0-7.684-4.398c-2.309-.265-4.576.221-6.287 1.138-2.325 1.238-4.189 3.238-5.201 5.701-1.138 2.45-.757 6.515-.757 9.557zm47.206-.14V33.36c13.634.297-1.781-18.727 24.26-17.972v9.402c-15.949-.962-1.326 19.722-24.26 17.667m-62.604-17.203a4.112 4.112 0 1 1 0 8.222 4.11 4.11 0 0 1-4.114-4.108 4.11 4.11 0 0 1 4.114-4.114m-3.71-4.023 1.853-5.33c5.653-1.174 12.1 1.96 14.302 7.412.593 1.65.894 3.51.894 5.33 0 2.15-.301 4.137-1.064 5.984-.763 1.692-1.683 3.045-2.905 4.27-1.225 1.22-2.585 2.153-4.268 2.744-3.868 1.566-8.766 1.21-12.28-1.057-2.155-1.392-3.676-3.21-4.729-5.66-1.096-2.448-1.694-5.19-1.694-8.272V6.372h9.927zm-23.958 8.413-18.498.036c.38 3.102 3.339 5.135 6.375 4.09.448-.153.844-.409 1.284-.715.203-.135.406-.27.514-.434l8.048 3.823c-.79 1.345-2.22 2.816-3.99 3.948a14 14 0 0 1-4.69 1.918c-1.012.207-2.082.373-3.1.277-7.313-.128-13.46-6.297-13.368-14.097.011-1.976.515-3.795 1.297-5.442 2.19-4.613 6.938-7.725 12.07-7.923 7.66.043 13.686 5.728 14.103 13.365 0 .33-.012.73-.045 1.154m-18.32-3.277c.04-.112.074-.216.115-.325.569-1.906 2.242-3.281 4.22-3.281 1.452 0 2.759.745 3.561 1.899l.019.035.015.018c.382.54.636 1.123.743 1.654zM4.602 16h9.924v26.604H4.602zM9.564 4.835a4.947 4.947 0 0 1 4.947 4.944 4.946 4.946 0 0 1-4.947 4.947A4.947 4.947 0 0 1 4.62 9.779a4.95 4.95 0 0 1 4.943-4.944"/><path d="m-100.186 35.939.79.713c-1.721 2.064-3.404 3.561-5.077 4.519q-3.316 1.91-6.88 1.912c-1.59 0-3.005-.346-4.237-1.026q-1.85-1.015-2.725-2.869c-.58-1.235-.872-2.491-.872-3.786 0-2.904.785-5.764 2.362-8.564q2.373-4.214 6.238-6.673c2.596-1.63 5.14-2.457 7.629-2.457q3.006-.003 4.522 1.332c1.013.88 1.513 1.985 1.513 3.294q.002 1.775-1.15 3.026c-.756.837-1.596 1.255-2.547 1.255-.815 0-1.478-.273-2.032-.801q-.81-.799-.81-1.886c0-.963.477-1.791 1.45-2.497q.968-.743.969-1.301a.9.9 0 0 0-.395-.772c-.353-.28-.82-.429-1.38-.429q-2.23-.002-4.202 1.81-2.606 2.395-3.982 6.05-1.386 3.68-1.383 6.974c0 1.73.469 3.12 1.399 4.154.95 1.031 2.064 1.56 3.355 1.56 1.145 0 2.365-.305 3.68-.887 1.325-.582 2.577-1.466 3.765-2.651m21.6-18.231a8.4 8.4 0 0 1 3.951.974c1.222.642 2.155 1.545 2.778 2.687.634 1.15.943 2.432.943 3.833 0 2.872-.804 5.737-2.399 8.609-1.61 2.876-3.714 5.124-6.338 6.785q-3.934 2.487-7.92 2.487c-2.405 0-4.27-.722-5.584-2.153-1.325-1.429-1.994-3.19-1.994-5.255 0-2.473.5-4.774 1.483-6.928.972-2.156 2.233-4.034 3.742-5.63a19 19 0 0 1 5.22-3.901c1.972-1.01 4.004-1.508 6.118-1.508m-1.084 1.408c-.947 0-1.728.281-2.341.82-1.246 1.119-2.642 3.732-4.198 7.829-1.562 4.1-2.342 7.802-2.342 11.091 0 .815.239 1.491.741 2.026.496.526 1.078.797 1.747.797.701 0 1.31-.217 1.844-.648.781-.638 1.735-2.063 2.869-4.295q1.699-3.328 2.788-7.343 1.092-4.035 1.093-7.384c0-.921-.225-1.627-.676-2.136-.435-.51-.946-.757-1.525-.757m24.865-1.408-3.404 11.423c2.289-3.507 3.946-5.867 4.996-7.086 1.532-1.798 2.81-2.956 3.812-3.51s2.002-.827 3.007-.827c1.155 0 1.988.341 2.506 1.034.51.69.775 1.462.775 2.283 0 .87-.251 2.156-.716 3.829l-1.2 4.277q3.447-5.31 4.973-7.065c1.556-1.812 2.906-3.026 4.062-3.67a5.05 5.05 0 0 1 2.549-.688c.941 0 1.72.313 2.347.94q.949.956.947 2.46c0 1.133-.27 2.605-.798 4.406l-2.954 9.913q-.656 2.209-.658 2.847.002.212.166.402c.124.115.247.18.39.18a.77.77 0 0 0 .503-.18c.642-.52 1.315-1.265 2.02-2.257.17-.226.4-.541.718-.992l.91.594c-1.228 2.285-2.568 3.95-4.033 5.01-1.457 1.074-2.81 1.598-4.045 1.598-1.082 0-1.96-.288-2.608-.889-.66-.583-.98-1.285-.98-2.082 0-.77.215-1.917.659-3.465l3.002-10.347q.613-2.162.61-2.684c0-.136-.06-.254-.183-.37-.123-.109-.253-.172-.367-.172-.237 0-.47.059-.693.164-.34.176-.854.639-1.558 1.38-.7.743-1.706 2.082-3.014 4-1.311 1.925-2.218 3.413-2.73 4.51q-.75 1.619-1.49 4.19l-1.624 5.477h-6.72l4.963-17.349c.262-.947.399-1.59.399-1.938 0-.138-.058-.239-.167-.348-.126-.112-.24-.161-.363-.161q-.974-.001-3.116 2.576c-2.156 2.664-4.121 5.853-5.89 9.592l-2.159 7.628h-6.767l4.99-17.087c.5-1.68.743-2.876.743-3.583 0-.29-.064-.526-.211-.734-.14-.198-.374-.363-.69-.482-.315-.105-.932-.177-1.832-.177l.27-1.004 9.06-1.566zM-202.824 6.309l2.652 24.765L-183.04 6.31h12.629l-.322.991c-1.737 0-3.055.365-3.965 1.114-.905.74-1.668 2.206-2.313 4.405l-6.634 23.062q-.638 2.181-.64 3.244c0 .656.265 1.186.796 1.581.533.403 1.573.62 3.132.657l-.23.98h-18l.32-.98c1.93 0 3.367-.374 4.282-1.107.93-.739 1.706-2.2 2.342-4.375l6.773-23.352-20.618 29.813h-1.093l-3.239-30.408-6.882 23.947c-.285.983-.429 1.788-.429 2.449 0 .879.312 1.594.919 2.132q.921.818 3.127.9l-.27.98h-11.902l.233-.98c1.436-.056 2.541-.354 3.307-.906 1.338-.99 2.316-2.51 2.926-4.575l7.773-26.62c-.74-.815-1.416-1.347-2.007-1.596-.583-.246-1.584-.365-2.985-.365l.322-.991zm53.85 11.776-5.153 17.655-.533 2.168a4 4 0 0 0-.079.58c0 .212.079.397.22.56.16.15.314.234.466.234.373 0 .894-.283 1.543-.85.273-.225.905-1.044 1.917-2.44l.937.483c-1.266 2.287-2.607 3.973-4.03 5.026-1.424 1.058-2.971 1.582-4.614 1.582q-1.521-.002-2.306-.78c-.543-.525-.8-1.193-.8-1.987 0-.685.28-1.973.85-3.84l.634-2.162c-2.055 3.53-4.027 6.017-5.925 7.492q-1.644 1.277-3.5 1.277c-1.63 0-2.813-.672-3.54-2.007-.73-1.336-1.09-2.85-1.09-4.53 0-2.495.764-5.356 2.29-8.592 1.525-3.24 3.524-5.831 6-7.798q3.061-2.448 5.738-2.448c.99 0 1.792.292 2.398.862.598.584 1.045 1.634 1.327 3.157l.955-3.28zm-8.5 5.043c0-1.432-.222-2.473-.671-3.111-.31-.439-.75-.658-1.294-.658q-.823-.002-1.71.797c-1.178 1.1-2.462 3.321-3.83 6.682-1.375 3.357-2.064 6.25-2.064 8.697 0 .953.16 1.619.467 2.035.307.413.652.62 1.025.62.8 0 1.602-.457 2.418-1.368 1.166-1.324 2.228-2.93 3.154-4.817 1.675-3.334 2.506-6.29 2.506-8.877m12.105-3.82 9.286-1.6c1.673 2.643 2.865 5.556 3.562 8.719 1.733-2.571 3.044-4.364 3.927-5.4q1.786-2.07 2.936-2.691a5.14 5.14 0 0 1 2.458-.628c.972 0 1.724.266 2.237.799.532.533.791 1.253.791 2.148 0 .85-.26 1.55-.79 2.088-.514.542-1.167.817-1.943.817-.564 0-1.22-.115-1.951-.306-.738-.199-1.242-.314-1.533-.314-.742 0-1.455.275-2.126.797-.922.723-2.055 2.28-3.4 4.652q2.26 7.968 3.61 9.727c.532.683 1.073 1.03 1.625 1.03.464 0 .866-.104 1.197-.347q.77-.549 2.364-2.778l.958.55c-1.568 2.521-3.085 4.292-4.572 5.319-1.144.797-2.254 1.193-3.348 1.193-1.133 0-2.08-.255-2.827-.752-.758-.51-1.427-1.332-2.01-2.477-.588-1.137-1.273-2.972-2.074-5.487q-3.108 3.96-4.87 5.783c-1.183 1.213-2.155 1.998-2.941 2.379a5.7 5.7 0 0 1-2.493.554q-1.393.002-2.195-.795c-.54-.534-.802-1.226-.802-2.075 0-.907.281-1.645.868-2.23.586-.584 1.334-.88 2.226-.88.484 0 1.028.138 1.622.43.891.421 1.525.632 1.912.632.525 0 .974-.108 1.383-.316q.805-.396 2.026-1.73c.5-.545 1.4-1.71 2.74-3.497-1.714-6.31-3.033-10.091-3.995-11.327q-.9-1.189-2.281-1.19c-.476 0-1.068.07-1.75.208zm-113.414 23.237V6.242l31.431 18.164zm247.178 0h-2.388v-47.12h2.388z"/></g></svg>