<svg xmlns="http://www.w3.org/2000/svg" width="210" height="43.08" viewBox="0 0 210 43.08"><g transform="matrix(1.09071 0 0 -1.09071 -30.917 711.049)" fill="#33af2e" fill-opacity="1"><g id="g3063" clip-path="url(#clipPath3065)" fill="#33af2e" fill-opacity="1"><g fill="#33af2e" fill-opacity="1"><path d="M0 0v14.503c0 1.394.241 2.822.76 3.942 3.187 8.052 15.93 7.825 18.941-.018a10.8 10.8 0 0 0 .746-3.924V0h-8.61v13.047c0 1.323.031 2.85-1.704 2.85-1.034 0-1.518-.848-1.518-2.426V0z" transform="translate(43.773 612.859)" fill="#33af2e" fill-opacity="1" fill-rule="evenodd" stroke="none"/></g><g fill="#33af2e" fill-opacity="1"><path d="M0 0h9.098v-4.885h5.372v-5.916H9.098v-7.008c0-1.789 1.002-2.789 2.977-2.789h2.395v-8.015H9.279c-1.854 0-3.364.276-4.488.703-1.122.423-2.125 1.279-2.973 2.246-.549.848-1.122 1.82-1.397 2.944C.147-21.595 0-20.598 0-19.782z" transform="translate(66.332 641.482)" fill="#33af2e" fill-opacity="1" fill-rule="evenodd" stroke="none"/></g><path d="M108.668 646.068h9.099v-33.204h-9.099z" fill="#33af2e" fill-opacity="1" fill-rule="evenodd" stroke="none"/><g fill="#33af2e" fill-opacity="1"><path d="M0 0a3.77 3.77 0 0 0 3.771-3.767A3.77 3.77 0 0 0 0-7.539a3.77 3.77 0 0 0-3.774 3.772A3.77 3.77 0 0 0 0 0m.042 8.421c6.86 0 12.472-5.305 12.472-12.192l-.034-12.535-8.98.036v3.426L1.802-16.27c-7.337-.821-13.92 5.098-13.92 12.499 0 6.858 5.576 12.192 12.16 12.192" transform="translate(175.16 629.201)" fill="#33af2e" fill-opacity="1" fill-rule="evenodd" stroke="none"/></g><g fill="#33af2e" fill-opacity="1"><path d="M0 0h8.586v13.44c0 2.699 2.702 4.462 4.617 2.308l5.069 4.935a10.11 10.11 0 0 1-7.045 4.033c-2.117.243-4.196-.203-5.764-1.044-2.132-1.135-3.841-2.968-4.769-5.227C-.349 16.2 0 12.472 0 9.683z" transform="translate(146.19 612.859)" fill="#33af2e" fill-opacity="1" fill-rule="evenodd" stroke="none"/></g><g fill="#33af2e" fill-opacity="1"><path d="M0 0v8.34c12.5-.272-1.633 17.17 22.242 16.478v-8.62C7.62 17.08 21.027-1.884 0 0" transform="translate(189.47 612.987)" fill="#33af2e" fill-opacity="1" fill-rule="evenodd" stroke="none"/></g><g fill="#33af2e" fill-opacity="1"><path d="M0 0a3.77 3.77 0 1 0 0-7.538 3.77 3.77 0 0 0-3.772 3.766A3.77 3.77 0 0 0 0 0m-3.402 3.689 1.699 4.886C3.48 9.652 9.39 6.779 11.41 1.78c.543-1.513.819-3.219.819-4.887 0-1.972-.276-3.793-.975-5.486-.7-1.552-1.543-2.792-2.664-3.916-1.123-1.117-2.37-1.973-3.913-2.515-3.546-1.436-8.037-1.11-11.258.969-1.976 1.276-3.371 2.943-4.336 5.189-1.005 2.245-1.553 4.758-1.553 7.584v18.593h9.101z" transform="translate(132.073 628.76)" fill="#33af2e" fill-opacity="1" fill-rule="evenodd" stroke="none"/></g><g fill="#33af2e" fill-opacity="1"><path d="m0 0-16.96-.033c.349-2.844 3.061-4.708 5.845-3.75.411.141.774.375 1.177.656.186.124.372.247.471.398l7.379-3.505c-.724-1.233-2.036-2.582-3.658-3.62a12.8 12.8 0 0 0-4.3-1.758c-.928-.19-1.909-.342-2.843-.254-6.704.117-12.34 5.773-12.255 12.924.01 1.812.472 3.48 1.189 4.99 2.008 4.229 6.361 7.082 11.066 7.264C-5.866 13.272-.341 8.06.041 1.058.041.755.03.389 0 0m-16.797 3.005c.037.102.068.198.106.298.521 1.747 2.055 3.008 3.869 3.008 1.331 0 2.529-.683 3.265-1.741l.017-.032.014-.017c.35-.495.583-1.029.681-1.516h-7.952" transform="translate(106.706 624.735)" fill="#33af2e" fill-opacity="1" fill-rule="evenodd" stroke="none"/></g><path d="M32.565 637.244h9.099v-24.391h-9.099z" fill="#33af2e" fill-opacity="1" fill-rule="evenodd" stroke="none"/><g fill="#33af2e" fill-opacity="1"><path d="M0 0a4.536 4.536 0 0 0 4.536-4.533A4.535 4.535 0 0 0 0-9.068a4.536 4.536 0 0 0-4.532 4.535A4.537 4.537 0 0 0 0 0" transform="translate(37.114 647.481)" fill="#33af2e" fill-opacity="1" fill-rule="evenodd" stroke="none"/></g><g fill="#33af2e" fill-opacity="1"><path d="m0 0 .724-.654C-.854-2.546-2.397-3.919-3.931-4.797q-3.04-1.752-6.308-1.753c-1.458 0-2.755.317-3.884.941q-1.697.93-2.498 2.63c-.532 1.132-.8 2.284-.8 3.471 0 2.663.72 5.285 2.166 7.852q2.175 3.863 5.719 6.118c2.38 1.495 4.712 2.253 6.994 2.253q2.756.002 4.146-1.222c.929-.807 1.387-1.82 1.387-3.02q.002-1.627-1.054-2.774C1.244 8.932.474 8.548-.398 8.548c-.747 0-1.355.251-1.863.735q-.743.732-.742 1.729c0 .883.437 1.642 1.328 2.289q.888.681.889 1.193a.83.83 0 0 1-.362.708c-.324.256-.752.393-1.266.393q-2.044.002-3.852-1.659-2.389-2.196-3.651-5.547-1.27-3.374-1.268-6.394c0-1.586.43-2.86 1.283-3.809.871-.945 1.892-1.43 3.076-1.43 1.05 0 2.168.28 3.374.813C-2.237-1.897-1.089-1.087 0 0m19.803 16.715a7.7 7.7 0 0 0 3.623-.893c1.12-.589 1.976-1.417 2.547-2.464.581-1.054.864-2.23.864-3.514 0-2.633-.737-5.26-2.199-7.893-1.476-2.637-3.405-4.698-5.811-6.221q-3.607-2.28-7.261-2.28c-2.205 0-3.915.662-5.12 1.974C5.231-3.266 4.618-1.652 4.618.242c0 2.267.459 4.377 1.36 6.352.891 1.976 2.047 3.698 3.43 5.162a17.4 17.4 0 0 0 4.786 3.576c1.808.926 3.671 1.383 5.609 1.383m-.993-1.291c-.869 0-1.585-.258-2.147-.752-1.142-1.026-2.422-3.422-3.849-7.178-1.432-3.759-2.147-7.153-2.147-10.169 0-.747.219-1.367.68-1.857.454-.482.988-.731 1.601-.731.643 0 1.201.199 1.691.594.716.585 1.591 1.892 2.63 3.938q1.558 3.051 2.556 6.732c.667 2.468 1.003 4.722 1.003 6.77 0 .845-.207 1.492-.62 1.959-.399.467-.868.694-1.398.694m22.797 1.291L38.486 6.242c2.098 3.215 3.618 5.379 4.58 6.496 1.405 1.649 2.577 2.71 3.495 3.219s1.836.758 2.757.758c1.059 0 1.823-.313 2.298-.948.467-.633.71-1.341.71-2.094 0-.798-.23-1.976-.656-3.51l-1.1-3.921q3.16 4.868 4.559 6.477c1.427 1.661 2.664 2.774 3.724 3.364a4.63 4.63 0 0 0 2.337.632c.863 0 1.577-.287 2.152-.862q.87-.877.868-2.256c0-1.038-.248-2.388-.731-4.039L60.77.469c-.399-1.349-.603-2.22-.603-2.61q.002-.194.152-.369c.114-.105.227-.165.358-.165.179 0 .334.06.461.165.589.477 1.206 1.16 1.852 2.07.155.207.367.496.658.909l.834-.544c-1.125-2.095-2.354-3.622-3.697-4.594-1.336-.984-2.576-1.465-3.709-1.465-.992 0-1.796.264-2.391.815-.604.535-.899 1.178-.899 1.909 0 .706.198 1.758.605 3.177l2.752 9.486q.562 1.983.56 2.461c0 .125-.055.233-.168.34-.113.099-.232.157-.337.157-.217 0-.43-.054-.635-.15-.312-.162-.783-.586-1.428-1.266-.642-.681-1.565-1.908-2.764-3.666-1.202-1.766-2.033-3.13-2.503-4.135q-.687-1.485-1.366-3.842L47.013-5.87h-6.161l4.55 15.906c.241.869.366 1.458.366 1.777 0 .127-.053.219-.153.319-.115.103-.22.148-.333.148q-.893.001-2.857-2.362c-1.976-2.442-3.778-5.366-5.4-8.794L35.046-5.87h-6.204l4.575 15.666c.458 1.54.681 2.637.681 3.285 0 .266-.059.482-.194.673-.128.182-.343.333-.632.442-.289.096-.855.162-1.68.162l.247.921 8.307 1.436z" transform="translate(-63.508 618.964)" fill="#33af2e" fill-opacity="1" fill-rule="nonzero" stroke="none"/></g><g fill="#33af2e" fill-opacity="1"><path d="m0 0 2.431-22.706L18.139 0h11.579l-.295-.909c-1.593 0-2.801-.335-3.635-1.021-.83-.679-1.53-2.023-2.121-4.039l-6.082-21.144q-.585-2-.587-2.974c0-.602.243-1.088.73-1.45.488-.369 1.442-.569 2.871-.602l-.211-.898H3.885l.294.898c1.769 0 3.087.343 3.926 1.015.852.677 1.564 2.016 2.147 4.011l6.21 21.41-18.904-27.334h-1.002L-6.413-5.158l-6.31-21.955c-.261-.901-.393-1.639-.393-2.245 0-.806.286-1.462.842-1.955q.845-.75 2.867-.826l-.247-.898h-10.913l.214.898c1.317.052 2.33.325 3.032.831 1.227.908 2.123 2.301 2.683 4.195l7.126 24.406c-.679.747-1.298 1.235-1.84 1.463-.534.226-1.452.335-2.737.335l.296.909zm49.371-10.797-4.724-16.187-.489-1.987a3.4 3.4 0 0 1-.072-.532c0-.195.072-.364.202-.514.146-.137.287-.214.427-.214.342 0 .819.259 1.414.779.251.206.83.957 1.758 2.237l.859-.443c-1.161-2.096-2.39-3.642-3.694-4.608-1.306-.97-2.725-1.45-4.231-1.45q-1.395.002-2.114.715c-.498.481-.734 1.094-.734 1.822 0 .628.257 1.809.779 3.521l.582 1.982c-1.884-3.236-3.692-5.517-5.432-6.869q-1.508-1.171-3.21-1.171c-1.493 0-2.578.616-3.245 1.84-.669 1.225-1 2.613-1 4.153 0 2.288.701 4.911 2.1 7.878 1.398 2.97 3.231 5.346 5.502 7.149q2.806 2.245 5.26 2.245c.908 0 1.643-.268 2.199-.791.548-.535.958-1.498 1.216-2.894l.876 3.007zm-7.792-4.624c0 1.313-.204 2.268-.616 2.853-.285.402-.687.603-1.186.603q-.755.002-1.568-.731c-1.08-1.009-2.257-3.045-3.511-6.126-1.261-3.078-1.893-5.731-1.893-7.974 0-.874.147-1.484.428-1.866.282-.378.598-.568.94-.568.733 0 1.469.419 2.217 1.254 1.069 1.214 2.043 2.686 2.892 4.417 1.535 3.056 2.297 5.767 2.297 8.138m11.098 3.503 8.514 1.467c1.534-2.424 2.627-5.094 3.266-7.994 1.589 2.357 2.791 4.001 3.6 4.951q1.638 1.898 2.692 2.467c.712.38 1.459.576 2.254.576.891 0 1.58-.244 2.051-.733.487-.489.725-1.149.725-1.969 0-.78-.238-1.422-.725-1.915-.471-.497-1.069-.749-1.781-.749-.517 0-1.119.106-1.789.281-.676.182-1.138.288-1.405.288-.68 0-1.334-.252-1.949-.731-.846-.663-1.884-2.091-3.117-4.265q2.072-7.305 3.309-8.918c.488-.626.984-.945 1.49-.945.426 0 .794.096 1.098.319q.705.503 2.167 2.547l.878-.505c-1.437-2.311-2.828-3.935-4.191-4.876-1.049-.731-2.067-1.094-3.07-1.094-1.039 0-1.907.234-2.592.689-.695.468-1.308 1.222-1.842 2.271-.54 1.043-1.168 2.725-1.902 5.031q-2.85-3.631-4.465-5.302c-1.085-1.112-1.976-1.832-2.697-2.181a5.2 5.2 0 0 0-2.285-.508q-1.277-.002-2.013.729c-.494.489-.735 1.124-.735 1.902 0 .832.258 1.508.796 2.045.537.535 1.223.807 2.041.807.443 0 .942-.127 1.487-.395.817-.386 1.398-.579 1.753-.579.481 0 .893.099 1.268.29q.738.363 1.857 1.586c.458.499 1.283 1.568 2.513 3.206-1.572 5.786-2.781 9.252-3.663 10.385q-.826 1.09-2.092 1.091c-.436 0-.979-.064-1.604-.191z" transform="translate(-157.61 646.13)" fill="#33af2e" fill-opacity="1" fill-rule="nonzero" stroke="none"/></g><g fill="#33af2e" fill-opacity="1"><path d="M0 0v33.284l28.817-16.653z" transform="translate(-208.914 612.907)" fill="#33af2e" fill-opacity="1" fill-rule="nonzero" stroke="none"/></g><path d="M17.707 612.907h-2.19v43.201h2.19z" fill="#33af2e" fill-opacity="1" fill-rule="nonzero" stroke="none"/></g></g></svg>