<svg xmlns="http://www.w3.org/2000/svg" width="18" height="18" viewBox="0 0 18 18"><defs><mask id="a"><path fill="#fff" d="M0 0h18v18H0z"/><circle cx="7.208" cy="7.607" r="6.121"/></mask></defs><g fill="currentColor" mask="url(#a)"><circle cx="7.18" cy="7.607" r="7.03"/></g><path fill="currentColor" d="M7.038 11.73h.338v1.05h-.338zm-3.7-7.75.24-.24.742.742-.24.24zm.052 7.2.742-.742.24.24-.742.742zM1.945 7.43h1.05v.338h-1.05zm7.8 2.054L7.957 7.706a.43.43 0 0 0-.291-.123.4.4 0 0 0 .054-.2V2.858a.43.43 0 0 0-.43-.43h-.082a.43.43 0 0 0-.431.43v4.53a.43.43 0 0 0 .431.43h.048a.43.43 0 0 0 .035.555l1.78 1.777a.43.43 0 0 0 .608 0l.058-.058a.43.43 0 0 0 0-.608z"/><circle cx="7.212" cy="7.596" r=".996" fill="currentColor"/><path fill="currentColor" d="m8.855 16.582 5.535-6.324a2.9 2.9 0 0 0 2.763-.875 2.69 2.69 0 0 0 .558-2.661l-1.465 1.645-1.567-.29-.52-1.487 1.466-1.62a2.87 2.87 0 0 0-2.643.885 2.65 2.65 0 0 0-.54 2.651l-5.9 6.745a1.309 1.309 0 0 0 1.97 1.724z"/></svg>