<svg height="64" viewBox="0 0 64 64" width="64" xmlns="http://www.w3.org/2000/svg"><g fill="none" fill-rule="evenodd"><path d="m0 0h64v64h-64z" fill="#ed7100"/><path d="m6.961 12.035-1.859-.737c2.679-6.758 9.47-11.298 16.898-11.298s14.219 4.54 16.898 11.298l-1.859.737c-2.38-6.002-8.424-10.035-15.039-10.035s-12.659 4.033-15.039 10.035m30.075 11.714 1.865.724c-2.678 6.895-9.47 11.527-16.901 11.527s-14.223-4.632-16.901-11.527l1.865-.724c2.382 6.131 8.424 10.251 15.036 10.251s12.654-4.12 15.036-10.251m4.964-2.907a.16.16 0 0 1 -.158.158h-5.684a.16.16 0 0 1 -.158-.158v-5.684c0-.084.074-.158.158-.158h5.684c.084 0 .158.074.158.158zm-.158-7.842h-5.684a2.16 2.16 0 0 0 -2.158 2.158v5.684a2.16 2.16 0 0 0 2.158 2.158h5.684a2.16 2.16 0 0 0 2.158-2.158v-5.684a2.16 2.16 0 0 0 -2.158-2.158m-39.842 7.842v-5.684c0-.084.074-.158.158-.158h5.684c.084 0 .158.074.158.158v5.684a.16.16 0 0 1 -.158.158h-5.684a.16.16 0 0 1 -.158-.158m8 0v-5.684a2.16 2.16 0 0 0 -2.158-2.158h-5.684a2.16 2.16 0 0 0 -2.158 2.158v5.684a2.16 2.16 0 0 0 2.158 2.158h5.684a2.16 2.16 0 0 0 2.158-2.158m13-1.842h4v-3h-4zm-6 0h4v-3h-4zm-2 2h14v-7h-14zm6 1v2h-7v-2h-1v-9h18v9h-3v2h-2v-2zm9 4v-2h3v-13h-22v13h1v2h11v-2h1v2z" fill="#fff" transform="translate(10 14)"/></g></svg>