<svg xmlns="http://www.w3.org/2000/svg" width="64" height="64" viewBox="0 0 64 64"><title>Icon-Architecture/48/Arch_Elastic-Fabric-Adapter_48</title><g id="Icon-Architecture/48/Arch_Elastic-Fabric-Adapter_48" fill="none" fill-rule="evenodd" stroke="none" stroke-width="1"><g id="Icon-Architecture-BG/48/Compute" fill="#ed7100"><path id="Rectangle" d="M0 0h64v64H0z"/></g><g id="Icon-Service/48/Elastic-Fabric-Adapter_48" fill="#fff" transform="translate(10 14)"><path id="Fill-4" d="m6.961 12.035-1.859-.737C7.781 4.54 14.572 0 22 0s14.219 4.54 16.898 11.298l-1.859.737C34.659 6.033 28.615 2 22 2S9.341 6.033 6.961 12.035m30.075 11.714 1.865.724C36.223 31.368 29.431 36 22 36S7.777 31.368 5.099 24.473l1.865-.724C9.346 29.88 15.388 34 22 34s12.654-4.12 15.036-10.251M42 20.842a.16.16 0 0 1-.158.158h-5.684a.16.16 0 0 1-.158-.158v-5.684c0-.084.074-.158.158-.158h5.684c.084 0 .158.074.158.158zM41.842 13h-5.684A2.16 2.16 0 0 0 34 15.158v5.684A2.16 2.16 0 0 0 36.158 23h5.684A2.16 2.16 0 0 0 44 20.842v-5.684A2.16 2.16 0 0 0 41.842 13M2 20.842v-5.684c0-.084.074-.158.158-.158h5.684c.084 0 .158.074.158.158v5.684a.16.16 0 0 1-.158.158H2.158A.16.16 0 0 1 2 20.842m8 0v-5.684A2.16 2.16 0 0 0 7.842 13H2.158A2.16 2.16 0 0 0 0 15.158v5.684A2.16 2.16 0 0 0 2.158 23h5.684A2.16 2.16 0 0 0 10 20.842M23 19h4v-3h-4zm-6 0h4v-3h-4zm-2 2h14v-7H15zm6 1v2h-7v-2h-1v-9h18v9h-3v2h-2v-2zm9 4v-2h3V11H11v13h1v2h11v-2h1v2z"/></g></g></svg>