<svg height="18" viewBox="0 0 18 18" width="18" xmlns="http://www.w3.org/2000/svg" xmlns:xlink="http://www.w3.org/1999/xlink"><linearGradient id="a" gradientUnits="userSpaceOnUse" x1="9" x2="9" y1="17.99" y2="-1.42"><stop offset="0" stop-color="#0078d4"/><stop offset=".14" stop-color="#077bd6"/><stop offset=".34" stop-color="#1a83db"/><stop offset=".59" stop-color="#3990e4"/><stop offset=".82" stop-color="#5ea0ef"/></linearGradient><linearGradient id="b" gradientUnits="userSpaceOnUse" x1="7.97" x2="7.97" y1="16.51" y2="4.84"><stop offset="0" stop-color="#949494"/><stop offset=".31" stop-color="#b9b9b9"/><stop offset=".77" stop-color="#ececec"/><stop offset="1" stop-color="#fff"/></linearGradient><path d="m18 10.25a4.06 4.06 0 0 0 -3.51-3.89 5.1 5.1 0 0 0 -5.25-4.87 5.25 5.25 0 0 0 -5 3.41 4.8 4.8 0 0 0 -4.24 4.64 4.9 4.9 0 0 0 5.07 4.71h8.65a1.5 1.5 0 0 0 .22 0 4.1 4.1 0 0 0 4.06-4" fill="url(#a)"/><path d="m12.13 6.2h-6.57a.09.09 0 0 1 -.1-.1v-1.16a.11.11 0 0 0 -.18-.07l-2 2a.1.1 0 0 0 0 .14l2 2a.11.11 0 0 0 .18-.08v-1.2a.1.1 0 0 1 .1-.1h1v8.37a.52.52 0 0 0 .52.52h5a.52.52 0 0 0 .52-.52v-9.28a.52.52 0 0 0 -.47-.52" fill="url(#b)"/><path d="m7.49 9.82a.65.65 0 0 1 .66-.66h3a.66.66 0 0 1 .66.66.66.66 0 0 1 -.66.65h-3a.65.65 0 0 1 -.66-.65m0-1.96a.66.66 0 0 1 .66-.66h3a.67.67 0 0 1 .66.66.67.67 0 0 1 -.66.66h-3a.66.66 0 0 1 -.66-.66" fill="#003067"/><circle cx="8.17" cy="7.86" fill="#50e6ff" r=".44"/><circle cx="8.17" cy="9.82" fill="#50e6ff" r=".44"/><path d="m9.88 13.59-2 2a.11.11 0 0 1 -.18-.08v-1.18a.1.1 0 0 0 -.1-.1h-1.04v-1.43h1.07a.09.09 0 0 0 .1-.1v-1.16a.11.11 0 0 1 .18-.07l2 2a.1.1 0 0 1 -.03.12" fill="#0078d4"/></svg>