<svg height="24" width="24" xmlns="http://www.w3.org/2000/svg"><path d="m8.203 17.333a2.076 2.076 0 0 0 -2.062 2.07c0 .083.008.165.015.248a2.067 2.067 0 0 0 4.103 0c.007-.083.015-.165.015-.248a2.08 2.08 0 0 0 -2.071-2.07m0 3.382a1.315 1.315 0 1 1 .008-2.632 1.315 1.315 0 0 1 1.312 1.32c0 .725-.588 1.313-1.312 1.313zm9.64-16.365a2.067 2.067 0 0 0 -4.118.247 2.066 2.066 0 0 0 4.132 0c.002-.082-.007-.165-.014-.247m-2.046 1.568a1.316 1.316 0 1 1 1.312-1.32 1.32 1.32 0 0 1 -1.312 1.32m-3.047 4.16a2.062 2.062 0 1 0 -1.5 3.843 2.062 2.062 0 1 0 1.5-3.843m-.75 3.234a1.312 1.312 0 1 1 0-2.624 1.312 1.312 0 0 1 0 2.624" fill="#aecbfa"/><path d="m11.25 13.922v1.688a3.03 3.03 0 0 1 -1.395 2.55c.273.358.421.795.422 1.245 0 .083-.008.165-.015.247a4.52 4.52 0 0 0 2.488-4.042v-1.688c-.482.19-1.018.19-1.5 0m-4.766-6.071a2.065 2.065 0 1 0 -2.066 2.065 2.07 2.07 0 0 0 2.066-2.065m-1.316 7.758v-3.347a.75.75 0 0 0 -1.5 0v3.347c0 1.71.963 3.273 2.49 4.042a2.06 2.06 0 0 1 .407-1.492 3.03 3.03 0 0 1 -1.397-2.55m14.414-1.525a2.065 2.065 0 1 0 2.065 2.066v-.001a2.07 2.07 0 0 0 -2.065-2.065m-.749-5.693v3.347a.75.75 0 0 0 1.5 0v-3.347a4.53 4.53 0 0 0 -2.49-4.041c.007.082.015.165.015.247a2.06 2.06 0 0 1 -.422 1.245 3.04 3.04 0 0 1 1.397 2.549m-5.093-4.041a4.52 4.52 0 0 0 -2.49 4.041v1.688a2.05 2.05 0 0 1 1.5 0v-1.688a3.03 3.03 0 0 1 1.395-2.55 2.06 2.06 0 0 1 -.422-1.245c.002-.081.011-.164.017-.246" fill="#4285f4"/></svg>