<svg xmlns="http://www.w3.org/2000/svg" id="svg11531" width="68.165" height="66.143" viewBox="0 0 18.035 17.5"><g id="layer1" transform="translate(-.993 -1.174)"><g id="g70" transform="translate(16.902 -2.699)scale(1.01489)"><path id="path3055" d="M-6.85 4.272a1.12 1.11 0 0 0-.428.109l-5.852 2.796a1.12 1.11 0 0 0-.606.753l-1.444 6.282a1.12 1.11 0 0 0 .152.85 1.12 1.11 0 0 0 .064.089l4.05 5.037a1.12 1.11 0 0 0 .876.417l6.496-.001a1.12 1.11 0 0 0 .875-.417l4.049-5.038a1.12 1.11 0 0 0 .216-.939L.152 7.93a1.12 1.11 0 0 0-.605-.753L-6.307 4.38a1.12 1.11 0 0 0-.542-.109" fill="#326ce5" fill-opacity="1" stroke="none" stroke-width="0" stroke-miterlimit="4" stroke-dasharray="none" stroke-opacity="1"/><path id="path3054-2-9" d="M-6.852 3.818a1.181 1.172 0 0 0-.452.115l-6.18 2.951a1.181 1.172 0 0 0-.638.795l-1.524 6.63a1.181 1.172 0 0 0 .16.9 1.181 1.172 0 0 0 .067.093l4.276 5.317a1.181 1.172 0 0 0 .924.44h6.858a1.181 1.172 0 0 0 .923-.44L1.837 15.3a1.181 1.172 0 0 0 .228-.99L.54 7.677a1.181 1.172 0 0 0-.64-.795l-6.178-2.95a1.181 1.172 0 0 0-.573-.115m.003.455a1.12 1.11 0 0 1 .542.108l5.853 2.795a1.12 1.11 0 0 1 .606.753l1.446 6.281a1.12 1.11 0 0 1-.216.94l-4.05 5.037a1.12 1.11 0 0 1-.875.417l-6.496.001a1.12 1.11 0 0 1-.875-.417l-4.05-5.037a1.12 1.11 0 0 1-.064-.088 1.12 1.11 0 0 1-.152-.851l1.444-6.281a1.12 1.11 0 0 1 .605-.753l5.853-2.797a1.12 1.11 0 0 1 .429-.108" style="line-height:normal;-inkscape-font-specification:Sans;text-indent:0;text-align:start;text-decoration-line:none;text-transform:none;marker:none" text-anchor="start" color="#000" font-style="normal" font-variant="normal" font-weight="400" font-stretch="normal" font-size="medium" font-family="Sans" text-decoration="none" letter-spacing="normal" word-spacing="normal" writing-mode="lr-tb" direction="ltr" baseline-shift="baseline" display="inline" overflow="visible" visibility="visible" fill="#fff" fill-opacity="1" fill-rule="nonzero" stroke="none" stroke-width="0" stroke-miterlimit="4" stroke-dasharray="none"/></g><text xml:space="preserve" id="text2066" x="10.056" y="16.812" style="line-height:6.61458349px" font-style="normal" font-weight="400" font-size="10.58333302px" font-family="Sans" letter-spacing="0" word-spacing="0" fill="#fff" fill-opacity="1" stroke="none" stroke-width=".26458332px" stroke-linecap="butt" stroke-linejoin="miter" stroke-opacity="1"><tspan id="tspan2064" x="10.056" y="16.812" style="-inkscape-font-specification:&quot;Arial, Normal&quot;;text-align:center" text-anchor="middle" font-style="normal" font-variant="normal" font-weight="400" font-stretch="normal" font-size="2.82222223px" font-family="Arial" writing-mode="lr-tb" fill="#fff" fill-opacity="1" stroke-width=".26458332px">api</tspan></text><path id="path1984" d="M9.992 4.447c-.138-.004-3.995 1.892-4.045 1.989-.122.234-1 4.281-.948 4.369.03.05.662.852 1.405 1.78l1.35 1.688 2.221.001 2.222.001 1.413-1.765 1.413-1.766-.494-2.168c-.272-1.193-.516-2.189-.54-2.213-.07-.067-3.922-1.913-3.997-1.916Zm.236 1.983c.187.008.206.291.606.321.521.04.465-.446.864-.108.4.338-.089.362.035.87.124.509.569.306.37.79s-.372.027-.817.302-.114.635-.636.596-.14-.346-.54-.684c-.398-.338-.64.087-.764-.42-.124-.509.286-.242.485-.726.198-.484-.282-.58.163-.856a.7.7 0 0 1 .142-.07.3.3 0 0 1 .092-.015zm.522.572a.758.758 0 0 0-.73.976.757.757 0 1 0 .73-.976ZM7.757 8.304q.06 0 .149.027c.48.147-.008.4.334.767s.628-.101.741.388c.112.49-.35.193-.497.673s.401.494.034.836-.342-.206-.831-.094c-.49.113-.227.595-.707.448s.008-.4-.334-.767-.629.1-.741-.389c-.113-.489.35-.193.497-.672S6 9.027 6.367 8.685c.368-.342.342.206.832.094.428-.099.28-.48.558-.475zm3.567.524q.068 0 .17.04c.554.214-.175.545.254.955.43.41.728-.332.967.21.24.544-.51.263-.497.856.013.594.75.28.535.832-.215.554-.546-.175-.956.254-.41.43.332.727-.211.967-.543.239-.261-.51-.855-.497-.593.013-.279.749-.832.534-.554-.214.175-.546-.254-.956s-.727.333-.966-.21c-.24-.543.51-.262.496-.855-.013-.594-.75-.28-.535-.833s.547.176.957-.253-.333-.728.21-.967c.543-.24.262.51.855.497.52-.012.344-.577.662-.574zm-3.88.255a.757.757 0 1 0-.002 1.514.757.757 0 0 0 .001-1.514Zm3.253.725a1.115 1.115 0 1 0 0 2.231 1.115 1.115 0 0 0 0-2.23z" opacity="1" fill="#fff" fill-opacity="1" stroke="#eee" stroke-width="0" stroke-miterlimit="10" stroke-dasharray="none" stroke-dashoffset="11.23642349" stroke-opacity="1"/></g></svg>