<svg xmlns="http://www.w3.org/2000/svg" width="64" height="64" viewBox="0 0 64 64">
  <defs>
    <mask id="ko">
      <rect width="64" height="64" fill="white"/>
      <path fill="black" d="m40.051 46.321-7-3.792v-3.963l3.956-2.373 3.044 1.783zm-16 0v-8.404l2.994-1.755 4.006 2.404v3.963zM16.111 32l7.227-4.016 2.713 1.589v4.853l-2.713 1.59zm7.94-14.301 7 3.889v3.845l-4.006 2.404-2.994-1.754zm8 19.135-4-2.401v-4.867l4-2.4 4 2.4v4.867zm8-19.135v8.324l-3.044 1.784-3.956-2.374v-3.845zM47.991 32l-7.28 4.045-2.66-1.559v-4.973l2.66-1.558zm2.673 5.705-4.149 1.741-3.8-2.227 7.821-4.345a1 1 0 0 0 0-1.748l-7.821-4.346 3.8-2.227 4.149 1.742.774-1.844-2.767-1.161 2.589-1.517-1.012-1.725-2.588 1.516.339-2.98-1.986-.227-.509 4.471-3.453 2.023V16a1 1 0 0 0-1.485-.874L33.051 19.3v-3.801l3.6-2.699-1.2-1.6-2.4 1.8v-3h-2v3l-2.4-1.8-1.2 1.6 3.6 2.699V19.3l-7.515-4.174a.998.998 0 0 0-1.485.874v8.91l-3.554-2.082-.509-4.471-1.987.227.34 2.981-2.589-1.517-1.012 1.725 2.589 1.517-2.766 1.16.773 1.845 4.151-1.741 3.847 2.255-7.768 4.317a.998.998 0 0 0 0 1.748l7.768 4.316-3.847 2.256-4.151-1.742-.773 1.845 2.766 1.16-2.589 1.517 1.012 1.726 2.589-1.517-.34 2.981 1.987.226.509-4.471 3.554-2.082V48a1.003 1.003 0 0 0 1.477.879l7.523-4.076V48.5l-3.6 2.7 1.2 1.6 2.4-1.8v3h2v-3l2.4 1.8 1.2-1.6-3.6-2.7v-3.697l7.523 4.076A1 1 0 0 0 42.051 48v-8.852l3.453 2.024.509 4.47 1.986-.226-.339-2.981 2.588 1.517 1.012-1.726-2.589-1.517 2.767-1.16z"/>
    </mask>
  </defs>
  <g>
    <path fill="currentColor" mask="url(#ko)" d="M0 0h64v64H0z"/>
  </g>
</svg>