<svg height="18" viewBox="0 0 18 18" width="18" xmlns="http://www.w3.org/2000/svg" xmlns:xlink="http://www.w3.org/1999/xlink"><linearGradient id="a" gradientUnits="userSpaceOnUse" x1="11.499" x2="11.499" y1="2.355" y2="12.575"><stop offset="0" stop-color="#42e8ca"/><stop offset="1" stop-color="#37c2b1"/></linearGradient><path d="m7.846 9.132 3.342-6.582a.357.357 0 0 1 .633-.006l3.334 6.291a2.24 2.24 0 0 1 .333 1.285c0 1.356-1.786 2.455-3.989 2.455s-3.989-1.099-3.989-2.455a1.7 1.7 0 0 1 .336-.988" fill="url(#a)"/><path d="m10.548 8.127v4.741l-4.098 2.382v-4.748z" fill="#50e6ff"/><path d="m6.45 10.508v4.742l-4.098-2.382v-4.742z" fill="#9cebff"/><path d="m10.548 8.127-4.097 2.381-4.099-2.382 4.099-2.382z" fill="#c3f1ff"/><path d="m10.688 8.207.139-.08-.139-.081v-.164l-.14.082-4.098-2.383-4.1 2.382-.14-.082v.164l-.14.081.14.081v4.742l4.1 2.382v.169l.141-.082.14.082v-.164l4.1-2.382zm-4.238-2.301 3.817 2.22-3.822 2.216-.945-.551-2.868-1.665zm-3.957 6.881v-4.416l3.816 2.218v4.416zm4.1 2.218v-4.416l3.817-2.218v4.416z" fill="#32bedd"/><path d="m.6 4.908a.574.574 0 0 1 -.575-.574v-3.76a.574.574 0 0 1 .575-.574h3.52a.575.575 0 0 1 0 1.149h-2.944v3.185a.574.574 0 0 1 -.576.574m16.8 0a.574.574 0 0 1 -.574-.574v-3.185h-2.948a.575.575 0 0 1 0-1.149h3.522a.574.574 0 0 1 .575.574v3.76a.574.574 0 0 1 -.575.574m-13.278 13.092h-3.522a.574.574 0 0 1 -.575-.574v-3.76a.575.575 0 0 1 1.149 0v3.185h2.948a.575.575 0 0 1 0 1.149m13.278 0h-3.52a.575.575 0 0 1 0-1.149h2.946v-3.185a.575.575 0 0 1 1.149 0v3.76a.574.574 0 0 1 -.575.574" fill="#50e6ff"/><path d="m2.855 8.152a.467.467 0 1 1 -.466-.466.467.467 0 0 1 .466.466m3.595-2.852a.466.466 0 1 0 .466.466.465.465 0 0 0 -.466-.466m4.091 2.386a.467.467 0 1 0 .466.466.466.466 0 0 0 -.466-.466m-4.091 2.356a.467.467 0 1 0 .466.466.466.466 0 0 0 -.466-.466m-4.061 2.411a.467.467 0 1 0 .466.467.467.467 0 0 0 -.466-.467m4.061 2.331a.466.466 0 1 0 .466.466.466.466 0 0 0 -.466-.466m4.091-2.331a.467.467 0 1 0 .466.467.467.467 0 0 0 -.466-.467" fill="#198ab3"/></svg>