<svg xmlns="http://www.w3.org/2000/svg" width="18" height="18" viewBox="0 0 18 18"><circle cx="9.056" cy="9" r="3.49" fill="currentColor"/><path fill="currentColor" d="m6.198 12.877 1.404 1.403-.001-3.868H3.733l1.404 1.404-3.719 3.719-1.404-1.403L.016 18h3.868L2.48 16.596z"/><path fill="currentColor" d="M18 17.984v-3.868l-1.404 1.404-3.719-3.718 1.403-1.404-3.868.001v3.868l1.404-1.404 3.719 3.719-1.403 1.404z"/><path fill="currentColor" d="m16.582 2.465 1.404 1.403L17.984 0h-3.868l1.404 1.404-3.718 3.719-1.404-1.403.001 3.868h3.868l-1.404-1.404z"/><path fill="currentColor" d="M7.588 7.601V3.733L6.184 5.137 2.465 1.418 3.868.014 0 .016v3.868L1.404 2.48l3.719 3.718L3.72 7.602z"/></svg>