<svg viewBox="0 0 24 24" xmlns="http://www.w3.org/2000/svg"><path d="m12.597 13.693v2.156h6.205v-2.156zm-7.414-7.144v2.363l3.591 1.901.023.01-.023.009-3.591 1.901v2.35l.386-.211 5.456-2.969v-2.174zm-1.524-4.512c-1.744 0-3.239 1.373-3.239 3.117v.002l.018 13.574-.438 3.233 5.956-1.583h14.806c1.744 0 3.238-1.374 3.238-3.118v-12.108c0-1.744-1.493-3.116-3.237-3.117h-.001zm0 2.2h17.104c.613.001 1.037.447 1.037.917v12.108c0 .47-.424.916-1.038.916h-15.129l-3.026.915.031-.179-.017-13.76c0-.47.424-.917 1.038-.917z"/></svg>