<svg viewBox="0 0 24 24" xmlns="http://www.w3.org/2000/svg"><path d="m17.029.0014a1.8382 1.8382 0 0 0 -.1875.0176l-12.757 1.8144c-1.0066.1433-1.7078 1.0862-1.5665 2.1056l2.5604 18.457c.1415 1.0193 1.0735 1.7292 2.08 1.586l12.757-1.8165c1.0066-.1433 1.7078-1.0861 1.5664-2.1054l-2.5603-18.4552c-.1326-.9556-.9605-1.6399-1.8925-1.6035zm.127.9316c.4271.027.7915.3549.8534.8008l2.5604 18.457c.0707.5097-.28.9812-.7831 1.0528l-12.7571 1.8144c-.5033.0717-.9683-.2833-1.039-.793l-2.5604-18.455c-.0707-.5097.2799-.9811.7832-1.0528l12.757-1.8164a.9066.9066 0 0 1 .1856-.0078zm-3.6443 5.3541-3.5449 1.2344a.1364.1364 0 0 0 -.0898.1406l.3183 3.8692c.0075.0911.0994.1497.1836.1171l.9824-.3789c.092-.0355.1894.0373.1836.1368l-.0898 1.539c-.006.1036.1005.1763.1933.1328l.5997-.2812c.093-.0435.1976.031.1914.1347l-.1465 2.418c-.0092.1513.195.2037.2578.0664l.041-.0918 2.123-6.4238c.0355-.1076-.0658-.2104-.1718-.1738l-1.0176.3515c-.0955.033-.1917-.0491-.1777-.1504l.3437-2.4902a.1368.1368 0 0 0 -.1426-.1562c-.016-.001-.0422.0084-.037.0058zm2.8223.7988a.2717.2717 0 0 0 -.0801.0137l-2.2539.75-.0762.5606.4551-.1563c.5074-.1627.973.2955.8106.8027l-2.131 6.4493-.0526.1171c-.1268.2776-.4416.4304-.7383.3516-.2904-.077-.4911-.353-.4727-.6562l.1094-1.8086c-.5057.2578-.9731-.1473-.9473-.5938l.0567-.9765-.4532.1757c-.4144.1536-.8298-.1366-.8632-.543l-.2443-2.9725-3.0625-.123c-.2294-.0093-.3635.2552-.2226.4394l6.291 8.2305c.1293.169.391.1302.4668-.0684l3.668-9.6191c.072-.1889-.0765-.377-.2598-.373z"/></svg>