<svg height="48" viewBox="0 0 48 48" width="48" xmlns="http://www.w3.org/2000/svg"><path d="m29.956 29.83a.883.883 0 0 1 -.881.882.883.883 0 0 1 -.882-.882c0-.485.396-.881.882-.881.485 0 .88.396.88.88m2.882-17.935a.883.883 0 1 1 .001-1.765.883.883 0 0 1 -.001 1.765m-3.42 8.796a.883.883 0 0 1 -1.763 0c0-.486.396-.882.882-.882s.882.396.882.882m4.688 15.59a.883.883 0 0 1 1.764 0 .883.883 0 0 1 -1.764 0m4.424-4.978a1 1 0 0 0 -.51.87v6.192l-7.14 4.222v-5.036h1.534a2.88 2.88 0 0 0 2.574 1.612 2.885 2.885 0 0 0 2.882-2.881 2.885 2.885 0 0 0 -2.882-2.882 2.88 2.88 0 0 0 -2.776 2.15h-2.332a1 1 0 0 0 -1 1v7.219l-.405.24-3.508-2.033v-25.93h2.838v1.869a2.88 2.88 0 0 0 -2.151 2.776 2.885 2.885 0 0 0 2.882 2.88 2.885 2.885 0 0 0 2.882-2.88 2.88 2.88 0 0 0 -1.613-2.574v-2.071h3.3a1 1 0 0 0 1-1v-1.458a2.88 2.88 0 0 0 1.614-2.574 2.885 2.885 0 0 0 -2.882-2.882 2.885 2.885 0 0 0 -2.882 2.882c0 1.335.917 2.45 2.15 2.776v.256h-7.138v-7.241l4.398-2.634 9.192 5.604v6.164a1 1 0 0 0 .507.87l4.869 2.76v3.079h-9.213a1 1 0 0 0 -1 1v4.914h-2.071a2.87 2.87 0 0 0 -2.574-1.612 2.885 2.885 0 0 0 -2.882 2.88 2.885 2.885 0 0 0 2.882 2.883 2.88 2.88 0 0 0 2.776-2.151h2.869a1 1 0 0 0 1-1v-4.914h8.215v3.613zm-21.283-2.892c.486 0 .882.396.882.882a.883.883 0 0 1 -.882.882.883.883 0 0 1 -.882-.882c0-.486.396-.882.882-.882m-1.42-15.784a.883.883 0 1 1 .882.882.883.883 0 0 1 -.881-.882m-3.612 8.064a.883.883 0 0 1 -1.763 0c0-.486.396-.882.88-.882.487 0 .883.396.883.882m5.225 17.203a.883.883 0 1 1 1.765.003.883.883 0 0 1 -1.765-.003m1.472 6.109-9.536-5.64v-6.19a1 1 0 0 0 -.517-.876l-.36-.196h2.639v7.063a1 1 0 0 0 1 1h3.608a2.88 2.88 0 0 0 2.574 1.613 2.885 2.885 0 0 0 2.882-2.882 2.885 2.885 0 0 0 -2.882-2.881 2.88 2.88 0 0 0 -2.776 2.15h-2.405v-7.063a1 1 0 0 0 -1-1h-7.276l-.864-.475v-9.057l4.869-2.761a1 1 0 0 0 .507-.871v-2.58h1.226v4.559a2.88 2.88 0 0 0 -2.15 2.776 2.884 2.884 0 0 0 2.88 2.88 2.885 2.885 0 0 0 2.883-2.88 2.88 2.88 0 0 0 -1.613-2.574v-4.76h1.332a2.88 2.88 0 0 0 2.776 2.152 2.885 2.885 0 0 0 2.88-2.882 2.885 2.885 0 0 0 -2.88-2.882 2.88 2.88 0 0 0 -2.574 1.612h-4.76v-1.585l9.192-5.603 4.4 2.634v11.544h-5.99a1 1 0 0 0 -1 1v7.372a2.87 2.87 0 0 0 -1.613 2.574 2.885 2.885 0 0 0 2.882 2.882 2.885 2.885 0 0 0 2.882-2.882c0-1.335-.917-2.45-2.151-2.776v-6.17h4.99v21.243zm27.022-25.016c0-.36-.194-.692-.507-.87l-4.868-2.761-.001-6.143a1 1 0 0 0 -.48-.854l-10.187-6.21a1 1 0 0 0 -1.035-.005l-4.888 2.927-4.892-2.927a1 1 0 0 0 -1.034.004l-10.187 6.21a1 1 0 0 0 -.48.854v6.143l-4.87 2.762a1 1 0 0 0 -.506.87v10.23a1 1 0 0 0 .518.876l4.859 2.672-.001 6.17c0 .353.186.68.49.86l10.539 6.232a1 1 0 0 0 1.02-.001l4.215-2.507 4.339 2.514a1 1 0 0 0 1.01-.005l10.54-6.231a1 1 0 0 0 .49-.861v-6.176l5.406-3.043a1 1 0 0 0 .51-.871z" fill="#01a88d" fill-rule="evenodd"/></svg>