<svg xmlns="http://www.w3.org/2000/svg" width="18" height="18" viewBox="0 0 18 18"><path fill="currentColor" d="M9 0 1.15 4.49v3L4.2 9.34v-1.8l-1.6-.92V5.38L9 1.68l6.4 3.71v7.18L9 16.27l-7.85-4.49v1.68L9 18l7.85-4.49v-9z"/><path fill="currentColor" d="M9 0 1.15 4.49l1.45.89L9 1.68l6.4 3.7 1.45-.89z"/><path fill="currentColor" d="M13.25 6.54v4.92L9 13.93V9.01z"/><path fill="currentColor" d="M13.25 6.54 9 9.01 4.75 6.54 9 4.07z"/><path fill="currentColor" d="M9 9.01v4.92l-4.25-2.47V6.54z"/><path fill="currentColor" d="M4.75 11.46 9 9.01v4.92z"/><path fill="currentColor" d="M13.25 11.46 9 9.01v4.92z"/></svg>