<svg height="18" viewBox="0 0 18 18" width="18" xmlns="http://www.w3.org/2000/svg"><path d="m9 0-7.85 4.49v3l3.05 1.85v-1.8l-1.6-.92v-1.24l6.4-3.7 6.4 3.71v7.18l-6.4 3.7-7.85-4.49v1.68l7.85 4.54 7.85-4.49v-9z" fill="#a3a3a3"/><path d="m9 0-7.85 4.49 1.45.89 6.4-3.7 6.4 3.7 1.45-.89z" fill="#949494"/><path d="m13.25 6.54v4.92l-4.25 2.47v-4.92z" fill="#32bedd"/><path d="m13.25 6.54-4.25 2.47-4.25-2.47 4.25-2.47z" fill="#9cebff"/><path d="m9 9.01v4.92l-4.25-2.47v-4.92z" fill="#50e6ff"/><path d="m4.75 11.46 4.25-2.45v4.92z" fill="#9cebff"/><path d="m13.25 11.46-4.25-2.45v4.92z" fill="#50e6ff"/></svg>