<svg height="24" width="24" xmlns="http://www.w3.org/2000/svg"><path d="m20 13.89a.77.77 0 0 0 -1-.16l-7 5.14v.22a.72.72 0 1 1 0 1.43.74.74 0 0 0 .45-.15l7.41-5.47a.76.76 0 0 0 .14-1.01" fill="#669df6"/><path d="m12 20.52a.72.72 0 0 1 0-1.43v-.22l-7-5.14a.76.76 0 0 0 -1 .16.74.74 0 0 0 .16 1l7.41 5.47a.73.73 0 0 0 .44.15z" fill="#aecbfa"/><path d="m12 18.34a1.47 1.47 0 1 0 1.47 1.47 1.47 1.47 0 0 0 -1.47-1.47m0 2.18a.72.72 0 1 1 .72-.71.71.71 0 0 1 -.72.71" fill="#4285f4"/><path d="m6 6.11a.76.76 0 0 1 -.75-.75v-1.88a.76.76 0 1 1 1.51 0v1.88a.76.76 0 0 1 -.76.75" fill="#aecbfa"/><circle cx="5.98" cy="12" fill="#aecbfa" r=".76"/><circle cx="5.98" cy="9.79" fill="#aecbfa" r=".76"/><circle cx="5.98" cy="7.57" fill="#aecbfa" r=".76"/><path d="m18 8.31a.76.76 0 0 1 -.75-.76v-1.88a.75.75 0 1 1 1.5 0v1.88a.75.75 0 0 1 -.75.76" fill="#4285f4"/><circle cx="18.02" cy="12.01" fill="#4285f4" r=".76"/><circle cx="18.02" cy="9.76" fill="#4285f4" r=".76"/><circle cx="18.02" cy="3.48" fill="#4285f4" r=".76"/><g fill="#669df6"><path d="m12 15a.76.76 0 0 1 -.75-.75v-1.91a.76.76 0 0 1 1.51 0v1.89a.76.76 0 0 1 -.76.77"/><circle cx="12" cy="16.45" r=".76"/><circle cx="12" cy="10.14" r=".76"/><circle cx="12" cy="7.92" r=".76"/></g><path d="m15 10.54a.76.76 0 0 1 -.75-.75v-1.88a.76.76 0 1 1 1.51 0v1.88a.76.76 0 0 1 -.76.75" fill="#4285f4"/><circle cx="15.01" cy="5.69" fill="#4285f4" r=".76"/><circle cx="15.01" cy="14.19" fill="#4285f4" r=".76"/><circle cx="15.01" cy="11.97" fill="#4285f4" r=".76"/><circle cx="8.99" cy="14.19" fill="#aecbfa" r=".76"/><circle cx="8.99" cy="7.92" fill="#aecbfa" r=".76"/><circle cx="8.99" cy="5.69" fill="#aecbfa" r=".76"/><path d="m9 12.73a.76.76 0 0 1 -.76-.73v-1.9a.75.75 0 1 1 1.5 0v1.9a.75.75 0 0 1 -.74.73" fill="#aecbfa"/></svg>