<svg height="64" viewBox="0 0 64 64" width="64" xmlns="http://www.w3.org/2000/svg"><g fill="none" fill-rule="evenodd"><path d="m0 0h64v64h-64z" fill="#01a88d"/><path d="m49 42.412-17 9.444-17-9.444v-20.823l17-9.445 17 9.445zm1.485-22.286-18-10a1 1 0 0 0 -.97 0l-18 10a1 1 0 0 0 -.515.874v22c0 .364.197.698.515.874l18 10a1 1 0 0 0 .97 0l18-10a1 1 0 0 0 .515-.874v-22a1 1 0 0 0 -.515-.874m-16.985.374a1.501 1.501 0 0 1 -3 0c0-.827.673-1.5 1.5-1.5s1.5.673 1.5 1.5m10.5 9a1.501 1.501 0 0 1 -3 0c0-.827.673-1.5 1.5-1.5s1.5.673 1.5 1.5m-5.5 13.5a1.501 1.501 0 0 1 0-3 1.501 1.501 0 0 1 0 3m-3.406-7.07 1.508 2.638a3.5 3.5 0 0 0 -.413.324l-2.523-1.892zm-7.283 2.962a3.5 3.5 0 0 0 -.413-.324l1.508-2.638 1.428 1.07zm-2.311 4.108a1.501 1.501 0 0 1 0-3 1.501 1.501 0 0 1 0 3m-5.5-13.5c0-.827.673-1.5 1.5-1.5s1.5.673 1.5 1.5a1.501 1.501 0 0 1 -3 0m5.415 8.509a3.4 3.4 0 0 0 -.638.069l-1.582-5.535q.334-.185.616-.435l3.483 2.613zm5.585-11.846c-1.44.434-2.5 1.757-2.5 3.337 0 .75.242 1.441.645 2.012l-.013-.008-.838 1.467-3.427-2.569a3.5 3.5 0 0 0 .133-.902c0-.816-.293-1.558-.763-2.154l5.675-4.054c.324.244.691.426 1.088.545zm-.277 6.588c.396.157.826.249 1.277.249s.881-.092 1.277-.249l.817 1.429-2.094 1.571-2.094-1.571zm1.277-4.751a1.501 1.501 0 1 1 -1.5 1.5c0-.827.673-1.5 1.5-1.5m6.585 10.009-1.879-3.288 3.483-2.613q.282.25.616.435l-1.582 5.535a3.4 3.4 0 0 0 -.638-.069m-4.497-14.717 5.675 4.054a3.47 3.47 0 0 0 -.763 2.154c0 .314.055.612.133.902l-3.427 2.569-.838-1.467-.013.008a3.48 3.48 0 0 0 .645-2.012c0-1.58-1.06-2.903-2.5-3.337v-2.326a3.4 3.4 0 0 0 1.088-.545m-5.588-2.792c0 .418.086.813.221 1.185l-6.255 4.468a3.4 3.4 0 0 0 -.966-.153c-1.93 0-3.5 1.571-3.5 3.5 0 1.84 1.432 3.337 3.237 3.474l1.745 6.106a3.48 3.48 0 0 0 -.982 2.42c0 1.93 1.57 3.5 3.5 3.5s3.5-1.57 3.5-3.5c0-.313-.055-.611-.133-.901l3.133-2.349 3.133 2.349c-.078.29-.133.588-.133.901 0 1.93 1.57 3.5 3.5 3.5s3.5-1.57 3.5-3.5c0-.94-.377-1.791-.982-2.42l1.745-6.106c1.805-.137 3.237-1.634 3.237-3.474 0-1.929-1.57-3.5-3.5-3.5-.337 0-.657.063-.966.153l-6.255-4.468c.135-.372.221-.767.221-1.185 0-1.929-1.57-3.5-3.5-3.5s-3.5 1.571-3.5 3.5" fill="#fff"/></g></svg>