<svg viewBox="0 0 24 24" xmlns="http://www.w3.org/2000/svg"><path d="m8.224 14.352a4.447 4.447 0 0 1 -3.775 2.092c-2.457 0-4.449-1.99-4.449-4.444s1.992-4.444 4.45-4.444c1.592 0 2.988.836 3.774 2.092-.427.682-.673 1.488-.673 2.352s.246 1.67.673 2.352zm6.877-2.352c0-.864.247-1.67.674-2.352-.786-1.256-2.183-2.092-3.775-2.092s-2.989.836-3.775 2.092c.427.682.674 1.488.674 2.352s-.247 1.67-.674 2.352c.786 1.256 2.183 2.092 3.775 2.092s2.989-.836 3.775-2.092a4.42 4.42 0 0 1 -.675-2.352zm4.45-4.444a4.447 4.447 0 0 0 -3.775 2.092c.427.682.673 1.488.673 2.352s-.246 1.67-.673 2.352a4.447 4.447 0 0 0 3.775 2.092c2.457 0 4.449-1.99 4.449-4.444s-1.992-4.444-4.45-4.444z"/></svg>