<svg height="24" width="24" xmlns="http://www.w3.org/2000/svg"><path d="m14.73 11.28h4.18v1.38h-4.18z" fill="#669df6"/><path d="m17.95 6.12h1.38v11.71h-1.38z" fill="#669df6"/><rect fill="#4285f4" height="4.68" rx=".28" width="4.68" x="16.3" y="17.32"/><rect fill="#4285f4" height="4.68" rx=".28" width="4.68" x="16.3" y="2"/><path d="m6.98 11.28h4.28v1.38h-4.28z" fill="#669df6"/><g fill="#4285f4"><rect height="4.68" rx=".28" width="4.68" x="3.03" y="9.63"/><path d="m13 14.17a2.2 2.2 0 1 1 2.2-2.2 2.19 2.19 0 0 1 -2.2 2.2m0-3.57a1.38 1.38 0 1 0 1.33 1.4 1.37 1.37 0 0 0 -1.33-1.4"/></g></svg>