<svg height="48" viewBox="0 0 48 48" width="48" xmlns="http://www.w3.org/2000/svg"><path d="m40 17h4v-4h-4zm-13.931.883 4.3-7.883h2.631a1 1 0 0 0 .373-.075l4.627 3.476v1.301zm10.757 10.152h-.024c0 1.876-5.258 3.965-12.802 3.965-7.071 0-12.054-1.76-12.93-3.476.197-2.068 4.989-4.304 11.93-4.504v4.98h2v-4.98c6.411.184 10.99 2.095 11.826 4.015m-12.826 15.965c-7.985 0-12.928-2.206-12.928-4.25v-.002l-.016-8.482c2.823 1.869 8.015 2.734 12.944 2.734 5.147 0 10.33-1.007 12.983-2.952l.017 8.702c0 2.044-4.971 4.25-13 4.25m-14-30.699 4.708-3.36c.094.029.188.059.292.059h2.781l4.3 7.883-12.081-3.221zm-6 3.699h4v-4h-4zm12-13h4v4h-1.031l-.016-.029-.053.029h-2.9zm6 5v-2h4v2a1 1 0 0 0 1 1h1.091l-4.016 7.362-4.015-7.362h.94a1 1 0 0 0 1-1m6-5h4v4h-2.75l-.053-.029-.015.029h-1.182zm17 7h-6a.98.98 0 0 0 -.586.211l-4.414-3.316v-4.895a1 1 0 0 0 -1-1h-6a1 1 0 0 0 -1 1v2h-4v-2a1 1 0 0 0 -1-1h-6a1 1 0 0 0 -1 1v4.989l-4.466 3.187a.97.97 0 0 0 -.534-.176h-6a1 1 0 0 0 -1 1v6a1 1 0 0 0 1 1h6a1 1 0 0 0 1-1v-1.268l13 3.467v1.822c-8.018.215-13.949 2.991-13.949 6.636v.159l-.014.004q.008.018.014.035l.021 10.897c.002 3.737 6.001 6.248 14.928 6.248 7.466 0 15-1.933 15-6.252l-.021-11.093c0-3.643-5.945-6.419-13.979-6.634v-1.782l13-3.467v1.228a1 1 0 0 0 1 1h6a1 1 0 0 0 1-1v-6a1 1 0 0 0 -1-1m-15.873 30.836q-.702 0-1.341-.342v-.702q.756.315 1.296.315.522 0 .801-.31t.279-.878q0-.54-.266-.828-.264-.288-.778-.288-.27 0-.648.045v-.576l1.485-2.07h-2.097v-.72h2.952v.666l-1.431 1.989q.747.01 1.192.491.446.481.446 1.291 0 .891-.504 1.404t-1.386.513m-5.805-2.466h1.549l-.774-3.051zm2.152 2.349-.432-1.683h-1.882l-.423 1.683h-.89l1.799-6.237h.946l1.8 6.237zm-7.786-3.213h.892q.442 0 .679-.306.239-.306.239-.873 0-.558-.234-.855t-.658-.297h-.918zm-.836 3.213v-6.237h1.844q.756 0 1.216.495t.459 1.341q0 .613-.279 1.058-.28.445-.792.661l1.377 2.682h-.936l-1.251-2.52h-.802v2.52z" fill="#8c4fff" fill-rule="evenodd"/></svg>