<svg height="18" viewBox="0 0 18 18" width="18" xmlns="http://www.w3.org/2000/svg" xmlns:xlink="http://www.w3.org/1999/xlink"><linearGradient id="a" gradientUnits="userSpaceOnUse" x1="8.05" x2="8.05" y1="11.32" y2="1.26"><stop offset="0" stop-color="#0078d4"/><stop offset=".82" stop-color="#5ea0ef"/></linearGradient><linearGradient id="b" gradientUnits="userSpaceOnUse" x1="8.05" x2="8.05" y1="15.21" y2="11.32"><stop offset="0" stop-color="#1490df"/><stop offset=".98" stop-color="#1f56a3"/></linearGradient><linearGradient id="c" gradientUnits="userSpaceOnUse" x1="8.05" x2="8.05" y1="7.87" y2="4.94"><stop offset="0" stop-color="#d2ebff"/><stop offset="1" stop-color="#f0fffd"/></linearGradient><rect fill="url(#a)" height="10.06" rx=".5" width="15.1" x=".5" y="1.26"/><rect fill="#fff" height="8.39" rx=".28" width="13.42" x="1.34" y="2.1"/><path d="m11.08 14.37c-1.5-.23-1.56-1.31-1.55-3h-3c0 1.74-.06 2.82-1.55 3a.87.87 0 0 0 -.74.84h7.54a.88.88 0 0 0 -.7-.84" fill="url(#b)"/><path d="m17.17 5.91h-6.88a2.31 2.31 0 1 0 0 .92h.71v9.58a.33.33 0 0 0 .33.33h5.83a.33.33 0 0 0 .33-.33v-10.17a.33.33 0 0 0 -.32-.33" fill="#32bedd"/><rect fill="#fff" height="8.7" rx=".12" width="5.27" x="11.62" y="6.82"/><circle cx="8.05" cy="6.41" fill="url(#c)" opacity=".9" r="1.46"/><path d="m14.88 10.82-1.12-1.12a.06.06 0 0 0 -.1.05v.68a.06.06 0 0 1 -.06.06h-2.6v.83h2.6a.06.06 0 0 1 .06.06v.69a.06.06 0 0 0 .1 0l1.12-1.07a.12.12 0 0 0 0-.18" fill="#0078d4"/></svg>