<svg height="48" viewBox="0 0 48 48" width="48" xmlns="http://www.w3.org/2000/svg"><path d="m31.13 28.509 1.415 1.414-7.865 7.864a1 1 0 0 1 -.707.293 1 1 0 0 1 -.707-.293l-7.864-7.864 1.414-1.414 6.157 6.157v-25.55h2v25.55zm-7.157 15.436c-11.013 0-19.973-8.96-19.973-19.972s8.96-19.973 19.973-19.973 19.972 8.96 19.972 19.973-8.96 19.972-19.972 19.972m0-41.945c-12.116 0-21.973 9.857-21.973 21.973s9.857 21.972 21.973 21.972 21.972-9.857 21.972-21.972-9.856-21.973-21.972-21.973" fill="#8c4fff" fill-rule="evenodd"/></svg>