<svg height="64" viewBox="0 0 64 64" width="64" xmlns="http://www.w3.org/2000/svg"><g fill="none" fill-rule="evenodd"><path d="m0 0h64v64h-64z" fill="#ed7100"/><path d="m38 32.395-17 8.947v-8.002l8.466-4.456a1 1 0 0 0 .282-.234l2.606 1.636 1.063-1.695-3.417-2.145v-8.55l8-4.236zm-27 3.947v-8.506l5.045-2.67v1.832a.998.998 0 0 0 1.518.855l1.437-.87v5.15zm-9-6.005v-18.735l17-8.947v8.477l-8.465 4.455-3.263-1.846-.984 1.741 2.712 1.534v9.615zm20.518-5.483a1 1 0 0 0 .482-.854v-2.398l5-2.647v8.441l-7 3.684v-5.307zm-4.518-3.379 3-1.732v3.692l-3 1.79zm-1.461-1.436c-.306.18-.539.507-.539.862v2.001l-5 2.671v-7.97l8-4.21v5.204zm11.461-11.384v8.035l-5 2.648v-1.34a1 1 0 0 0 -1.506-.863l-.494.29v-5.085zm11.516 2.487a1 1 0 0 0 -.36-.123l-3.987-2.326-1.008 1.727 2.703 1.578-6.864 3.634v-8.632a1 1 0 0 0 -1.466-.885l-7.534 3.965v-7.349l2.292 1.323 1-1.732-3.792-2.19-.001.003a1 1 0 0 0 -.965-.02l-19 10a1 1 0 0 0 -.534.884v21a1 1 0 0 0 .484.856c.009.006.019.007.028.012l-.002.003 4.336 2.442.98-1.743-2.74-1.543 5.914-3.13v9.103a1 1 0 0 0 1.466.884l8.534-4.49v6.863l-2.494-1.458-1.01 1.727 3.999 2.337.001-.002a1 1 0 0 0 .97.023l19-10a1 1 0 0 0 .534-.883v-21c0-.35-.184-.676-.484-.857" fill="#fff" transform="translate(12 10)"/></g></svg>