<svg xmlns="http://www.w3.org/2000/svg" width="64" height="64" viewBox="0 0 64 64"><title>Icon-Architecture/48/Arch_AWS-Thinkbox-Deadline_48</title><g id="Icon-Architecture/48/Arch_AWS-Thinkbox-Deadline_48" fill="none" fill-rule="evenodd" stroke="none" stroke-width="1"><g id="Icon-Architecture-BG/48/Compute" fill="#ed7100"><path id="Rectangle" d="M0 0h64v64H0z"/></g><g id="Icon-Service/48/AWS-ThinkBox-Deadline_48" fill="#fff" transform="translate(12 10)"><path id="AWS-ThinkBox-Deadline_48_Squid" d="m38 32.395-17 8.947V33.34l8.466-4.456a1 1 0 0 0 .282-.234l2.606 1.636 1.063-1.695L30 26.446v-8.55l8-4.236zm-27 3.947v-8.506l5.045-2.67v1.832a.998.998 0 0 0 1.518.855l1.437-.87v5.15zm-9-6.005V11.602l17-8.947v8.477l-8.465 4.455-3.263-1.846-.984 1.741L9 17.016v9.615zm20.518-5.483A1 1 0 0 0 23 24v-2.398l5-2.647v8.441l-7 3.684v-5.307zM18 21.475l3-1.732v3.692l-3 1.79zm-1.461-1.436c-.306.18-.539.507-.539.862v2.001l-5 2.671v-7.97l8-4.21v5.204zM28 8.655v8.035l-5 2.648v-1.34a1 1 0 0 0-1.506-.863l-.494.29V12.34zm11.516 2.487a1 1 0 0 0-.36-.123l-3.987-2.326-1.008 1.727 2.703 1.578L30 15.632V7a1 1 0 0 0-1.466-.885L21 10.08V2.731l2.292 1.323 1-1.732L20.5.132l-.001.003a1 1 0 0 0-.965-.02l-19 10a1 1 0 0 0-.534.884v21a1 1 0 0 0 .484.856c.009.006.019.007.028.012l-.002.003 4.336 2.442.98-1.743-2.74-1.543L9 28.896v9.103a1 1 0 0 0 1.466.884L19 34.393v6.863l-2.494-1.458-1.01 1.727 3.999 2.337.001-.002a1 1 0 0 0 .97.023l19-10A1 1 0 0 0 40 33V12c0-.35-.184-.676-.484-.857"/></g></g></svg>