<svg viewBox="0 0 24 24" xmlns="http://www.w3.org/2000/svg"><path d="m4.543 0a4.543 4.543 0 0 0 -4.543 4.543v14.914a4.543 4.543 0 0 0 4.543 4.543h14.914a4.543 4.543 0 0 0 4.543-4.543v-14.914a4.543 4.543 0 0 0 -4.543-4.543zm10.715 2.572h3.086a3.326 3.326 0 0 1 .656.065 3.28 3.28 0 0 1 .898.326c.093.05.181.106.268.164s.172.12.252.186a3.264 3.264 0 0 1 .789.96c.05.093.098.188.139.286a3.21 3.21 0 0 1 .187.61 3.276 3.276 0 0 1 .067.66v12.343a3.276 3.276 0 0 1 -.146.97 3.21 3.21 0 0 1 -.108.3 3.259 3.259 0 0 1 -.301.552 3.28 3.28 0 0 1 -.627.694c-.08.066-.165.127-.252.185a3.242 3.242 0 0 1 -.553.3 3.222 3.222 0 0 1 -1.27.255h-3.085a3.326 3.326 0 0 1 -.658-.065 3.242 3.242 0 0 1 -2.344-1.922 3.222 3.222 0 0 1 -.256-1.27v-12.342a3.324 3.324 0 0 1 .393-1.555 3.221 3.221 0 0 1 1.04-1.146 3.241 3.241 0 0 1 .553-.3 3.26 3.26 0 0 1 1.272-.255z"/></svg>