<svg viewBox="0 0 24 24" xmlns="http://www.w3.org/2000/svg"><path d="m2.7391 13.2065c0 .7564.6132 1.3696 1.3696 1.3696h2.7391c.7564 0 1.3696-.6132 1.3696-1.3696v-5.4782c0-.7564.6132-1.3696 1.3696-1.3696s1.3695.6132 1.3695 1.3696v5.4782c0 .7564.6132 1.3696 1.3696 1.3696h2.7391c.7564 0 1.3696-.6132 1.3696-1.3696v-5.4782c0-.7564.6131-1.3696 1.3695-1.3696s1.3696.6132 1.3696 1.3696v8.2174c0 .7564-.6132 1.3695-1.3696 1.3695h-16.4347c-.7564 0-1.3696-.6131-1.3696-1.3695v-8.2174c0-.7564.6132-1.3696 1.3696-1.3696s1.3695.6132 1.3695 1.3696zm19.4348 4.4348c1.0085 0 1.8261-.8176 1.8261-1.826 0-1.0086-.8176-1.8262-1.826-1.8262-1.0086 0-1.8262.8176-1.8262 1.8261s.8176 1.826 1.8261 1.826z"/></svg>