<svg height="18" viewBox="0 0 18 18" width="18" xmlns="http://www.w3.org/2000/svg" xmlns:xlink="http://www.w3.org/1999/xlink"><linearGradient id="a" gradientUnits="userSpaceOnUse" x1="9" x2="9" y1="17.052" y2="10.292"><stop offset="0" stop-color="#0078d4"/><stop offset="1" stop-color="#5ea0ef"/></linearGradient><linearGradient id="b" gradientUnits="userSpaceOnUse" x1="8.82" x2="8.82" y1="15.612" y2=".528"><stop offset="0" stop-color="#fea11b"/><stop offset=".734" stop-color="#ffd70f"/></linearGradient><path d="m17.4 10.292h-7.155v5.17a.676.676 0 0 1 -.675.675h-1.5a.676.676 0 0 1 -.675-.675v-.762h-1.125a.676.676 0 0 1 -.675-.675v-1.5a.676.676 0 0 1 .675-.675h1.13v-1.558h-6.8a.6.6 0 0 0 -.6.6v5.56a.6.6 0 0 0 .6.6h16.8a.6.6 0 0 0 .6-.6v-5.56a.6.6 0 0 0 -.6-.6" fill="url(#a)"/><path d="m15.63 11.652h.78a.15.15 0 0 1 .15.15v.78a.15.15 0 0 1 -.15.15h-.78a.15.15 0 0 1 -.15-.15v-.782a.15.15 0 0 1 .15-.148m-2.16 0h.78a.15.15 0 0 1 .15.15v.78a.15.15 0 0 1 -.15.15h-.78a.15.15 0 0 1 -.15-.15v-.782a.15.15 0 0 1 .15-.148m-2.16 0h.78a.15.15 0 0 1 .15.15v.78a.15.15 0 0 1 -.15.15h-.78a.15.15 0 0 1 -.15-.15v-.782a.15.15 0 0 1 .15-.148" fill="#c3f1ff"/><path d="m12.564 4.272a3.744 3.744 0 1 0 -4.644 3.628v4.319a.15.15 0 0 1 -.15.15h-1.5a.15.15 0 0 0 -.15.15v1.5a.15.15 0 0 0 .15.15h1.5a.15.15 0 0 1 .15.15v1.14a.15.15 0 0 0 .15.15h1.5a.15.15 0 0 0 .15-.15v-7.559a3.74 3.74 0 0 0 2.844-3.628m-3.488 1.945a1.962 1.962 0 1 1 1.689-1.689 1.96 1.96 0 0 1 -1.689 1.689" fill="url(#b)"/></svg>