<svg xmlns="http://www.w3.org/2000/svg" width="320" height="71.697" viewBox="0 0 300 67.216"><defs><mask id="a"><path fill="#fff" d="M0 0h300v67.216H0z"/><path d="M126.467 17.984h-7.965v11.11h7.965v8.982h-7.965v11.278h7.965v8.848h-16.772V13.62l-7.07 44.582-10.347.028s-5.277-31.572-5.285-31.639v.003c.853 5.1-2.354 10.43-5.19 12.532l5.599 19.076h-.024l.005.01h-8.698l-4.27-16.278-2.057.302v15.966h-.026v.01h-.009l-16.819-.01-1.033-7.566h-6.897l-1.038 7.566H29.41V34.494l-3.985 23.708h-4.722L16.66 34.494v23.708H7.773V9.016h11.283l3.961 25.412 4.066-25.412H38.36V54.25l6.784-45.24 11.784.006 6.561 43.665.035-43.665s8.953-.005 9.006 0c8.109 0 11.79 5.948 12.83 7.997l-1.007-7.997h8.996l4.06 29.956 4.106-29.956h24.953z"/><path d="M144.365 58.19h-16.362V9.006h8.811v40.338h7.551z"/></mask></defs><g fill="currentColor" mask="url(#a)"><path d="M.001 67.216h149.225V0H.001z"/><path d="M72.4 17.768h-.042v15.818c.695 0 1.404-.165 2.088-.493 2.072-1.01 3.836-3.522 3.836-7.502 0-7.618-5.187-7.83-5.881-7.823M48.62 42.802h4.97l-2.531-21.03z"/></g></svg>