<svg xmlns="http://www.w3.org/2000/svg" id="svg8054" width="320" height="71.697" viewBox="0 0 300 67.216"><g id="layer1" transform="translate(887.143 284.103)"><g id="g7995" transform="translate(-1454.26 -379.792)scale(1.7147)"><path id="path4936" d="M422.674 57.269h83.022V55.81h-83.022z" fill="#000" fill-opacity="1" fill-rule="nonzero" stroke="none"/><path id="path4938" d="M422.674 94.99h83.022v-1.458h-83.022z" fill="#000" fill-opacity="1" fill-rule="nonzero" stroke="none"/><g id="g4948" transform="matrix(1.25 0 0 -1.25 434.202 80.495)" fill="#000"><path id="path4950" d="M0 0v-3.344c0-2.852-1.41-4.262-4.262-4.262h-.721c-2.82 0-4.197 1.41-4.197 4.197v3.196h2.557v-3.295c0-1.18.558-1.737 1.738-1.737h.524c1.181 0 1.738.557 1.738 1.737v3.443c0 1.147-.393 1.639-1.148 2.196l-3.212 2.328C-8.688 5.672-9.18 6.852-9.18 8.721v2.753c0 2.852 1.41 4.262 4.262 4.262h.656c2.819 0 4.196-1.41 4.196-4.196V9.573h-2.557v2.065c0 1.181-.557 1.738-1.738 1.738h-.459c-1.18 0-1.737-.557-1.737-1.738V8.753c0-1.147.426-1.639 1.18-2.196l3.181-2.295C-.525 3.049 0 1.967 0 0" fill="#000" fill-opacity="1" fill-rule="nonzero" stroke="none"/></g><g id="g4952" transform="matrix(1.25 0 0 -1.25 439.233 89.756)" fill="#000"><path id="path4954" d="M0 0v20.523h-3.442v2.426h9.507v-2.426H2.623V0z" fill="#000" fill-opacity="1" fill-rule="nonzero" stroke="none"/></g><g id="g4956" transform="matrix(1.25 0 0 -1.25 459.745 84.674)" fill="#000"><path id="path4958" d="M0 0c0-2.852-1.41-4.262-4.262-4.262h-.82c-2.852 0-4.262 1.41-4.262 4.262v18.884h2.623V-.131c0-1.181.557-1.738 1.738-1.738h.623c1.18 0 1.737.557 1.737 1.738v19.015H0z" fill="#000" fill-opacity="1" fill-rule="nonzero" stroke="none"/></g><g id="g4960" transform="matrix(1.25 0 0 -1.25 465.114 86.764)" fill="#000"><path id="path4962" d="M0 0h1.574c1.77 0 2.59.885 2.59 2.655v12.852c0 1.77-.82 2.655-2.59 2.655H0zm-2.623 20.555h4.328c3.442 0 5.081-1.639 5.081-5.081V2.688c0-3.442-1.639-5.081-5.081-5.081h-4.328z" fill="#000" fill-opacity="1" fill-rule="nonzero" stroke="none"/></g><path id="path4964" d="M478.849 89.756h-3.28V61.07h3.28z" fill="#000" fill-opacity="1" fill-rule="nonzero" stroke="none"/><g id="g4966" transform="matrix(1.25 0 0 -1.25 487.255 63.815)" fill="#000"><path id="path4968" d="M0 0h-.787c-1.18 0-1.737-.558-1.737-1.738v-15.08c0-1.181.557-1.738 1.737-1.738H0c1.18 0 1.737.557 1.737 1.738v15.08C1.737-.558 1.18 0 0 0m.098-20.949h-.983c-2.852 0-4.262 1.409-4.262 4.262v14.818c0 2.852 1.41 4.262 4.262 4.262h.983c2.853 0 4.262-1.41 4.262-4.262v-14.818c0-2.853-1.409-4.262-4.262-4.262" fill="#000" fill-opacity="1" fill-rule="nonzero" stroke="none"/></g><g id="g4970" transform="matrix(1.25 0 0 -1.25 505.625 80.495)" fill="#000"><path id="path4972" d="M0 0v-3.344c0-2.852-1.41-4.262-4.262-4.262h-.721c-2.82 0-4.197 1.41-4.197 4.197v3.196h2.557v-3.295c0-1.18.558-1.737 1.738-1.737h.524c1.181 0 1.738.557 1.738 1.737v3.443c0 1.147-.393 1.639-1.148 2.196l-3.212 2.328C-8.688 5.672-9.18 6.852-9.18 8.721v2.753c0 2.852 1.41 4.262 4.262 4.262h.656c2.819 0 4.197-1.41 4.197-4.196V9.573h-2.558v2.065c0 1.181-.557 1.738-1.738 1.738h-.459c-1.18 0-1.737-.557-1.737-1.738V8.753c0-1.147.426-1.639 1.18-2.196l3.181-2.295C-.525 3.049 0 1.967 0 0" fill="#000" fill-opacity="1" fill-rule="nonzero" stroke="none"/></g><path id="path4974" d="M330.739 95.005h87.027v-39.2h-87.027z" fill="#e50b14" fill-opacity="1" fill-rule="nonzero" stroke="none"/><g id="g4976" transform="matrix(1.25 0 0 -1.25 404.493 66.293)"><path id="path4978" d="M0 0h-3.716v-5.184H0v-4.19h-3.716v-5.262H0v-4.128h-7.825v20.8l-3.299-20.8-4.827-.013s-2.462 14.73-2.466 14.761v-.001c.398-2.38-1.098-4.866-2.421-5.847l2.612-8.9h-.011l.002-.005h-4.058l-1.992 7.595-.96-.141v-7.449h-.012v-.005h-.004l-7.847.005-.482 3.53h-3.218l-.484-3.53h-7.991v11.061l-1.859-11.061h-2.203l-1.886 11.061v-11.061h-4.146V4.184h5.264l1.848-11.856 1.897 11.856h5.261V-16.92l3.165 21.107 5.498-.003 3.061-20.372.016 20.372s4.177.002 4.202 0c3.783 0 5.501-2.775 5.986-3.731l-.47 3.731h4.197l1.894-13.976 1.916 13.976H0z" fill="#fff" fill-opacity="1" fill-rule="nonzero" stroke="none"/></g><g id="g4980" transform="matrix(1.25 0 0 -1.25 372.962 66.167)" fill="#e50b14" fill-opacity="1"><path id="path4982" d="M0 0h-.02v-7.38c.324 0 .655.077.974.23.967.471 1.79 1.643 1.79 3.5C2.744-.096.324.003 0 0" fill="#e50b14" fill-opacity="1" fill-rule="nonzero" stroke="none"/></g><g id="g4984" transform="matrix(1.25 0 0 -1.25 359.093 80.767)" fill="#e50b14" fill-opacity="1"><path id="path4986" d="M0 0h2.319L1.138 9.812z" fill="#e50b14" fill-opacity="1" fill-rule="nonzero" stroke="none"/></g><g id="g4988" transform="matrix(1.25 0 0 -1.25 414.931 89.741)"><path id="path4990" d="M0 0h-7.634v22.947h4.111V4.127H0z" fill="#fff" fill-opacity="1" fill-rule="nonzero" stroke="none"/></g></g></g></svg>