<svg xmlns="http://www.w3.org/2000/svg" width="320" height="71.697" viewBox="0 0 300 67.216"><path d="M157.642 2.51H300V.008H157.642zm0 64.68H300v-2.5H157.642zm19.768-24.854v7.167c0 6.113-3.023 9.135-9.136 9.135h-1.545c-6.045 0-8.996-3.022-8.996-8.995v-6.85h5.48v7.062c0 2.529 1.197 3.723 3.726 3.723h1.123c2.531 0 3.725-1.194 3.725-3.723v-7.38c0-2.458-.842-3.513-2.46-4.707l-6.885-4.99c-3.654-2.6-4.709-5.129-4.709-9.135v-5.9c0-6.113 3.022-9.135 9.135-9.135h1.406c6.042 0 8.994 3.022 8.994 8.993v4.216h-5.48v-4.426c0-2.531-1.195-3.725-3.726-3.725h-.984c-2.53 0-3.723 1.194-3.723 3.725v6.184c0 2.458.913 3.513 2.53 4.707l6.817 4.919c3.582 2.6 4.707 4.919 4.707 9.135m8.627 15.88V14.227h-7.378v-5.2h20.377v5.2h-7.377v43.989zm35.172-8.714c0 6.112-3.022 9.135-9.135 9.135h-1.758c-6.113 0-9.135-3.023-9.135-9.135V9.026h5.622v40.756c0 2.532 1.194 3.725 3.725 3.725h1.336c2.529 0 3.723-1.193 3.723-3.725V9.026h5.622zm9.206 3.583h3.374c3.793 0 5.551-1.897 5.551-5.69V19.848c0-3.794-1.758-5.69-5.551-5.69h-3.374zm-5.622-44.057h9.276c7.378 0 10.89 3.513 10.89 10.89v27.406c0 7.377-3.512 10.89-10.89 10.89h-9.276zm29.173 49.188h-5.624V9.028h5.624zm14.415-44.481h-1.688c-2.529 0-3.723 1.196-3.723 3.725v32.322c0 2.531 1.194 3.725 3.723 3.725h1.687c2.53 0 3.723-1.194 3.723-3.725V17.46c0-2.53-1.194-3.725-3.723-3.725m.21 44.901h-2.107c-6.113 0-9.135-3.02-9.135-9.135v-31.76c0-6.113 3.022-9.136 9.135-9.136h2.107c6.115 0 9.135 3.023 9.135 9.136V49.5c0 6.115-3.02 9.135-9.135 9.135m31.289-16.299v7.167c0 6.113-3.022 9.135-9.135 9.135h-1.545c-6.045 0-8.996-3.022-8.996-8.995v-6.85h5.48v7.062c0 2.529 1.197 3.723 3.726 3.723h1.123c2.531 0 3.725-1.194 3.725-3.723v-7.38c0-2.458-.842-3.513-2.46-4.707l-6.885-4.99c-3.654-2.6-4.709-5.129-4.709-9.135v-5.9c0-6.113 3.022-9.135 9.135-9.135h1.406c6.042 0 8.996 3.022 8.996 8.993v4.216h-5.483v-4.426c0-2.531-1.194-3.725-3.725-3.725h-.984c-2.53 0-3.723 1.194-3.723 3.725v6.184c0 2.458.913 3.513 2.53 4.707l6.817 4.919c3.582 2.6 4.707 4.919 4.707 9.135"/><path fill="#e50b14" d="M.001 67.216h149.225V0H.001z"/><path fill="#fff" d="M126.467 17.984h-7.965v11.11h7.965v8.982h-7.965v11.278h7.965v8.848h-16.772V13.62l-7.07 44.582-10.347.028s-5.277-31.572-5.285-31.639v.003c.853 5.1-2.354 10.43-5.19 12.532l5.599 19.076h-.024l.005.01h-8.698l-4.27-16.278-2.057.302v15.966h-.026v.01h-.009l-16.819-.01-1.033-7.566h-6.897l-1.038 7.566H29.41V34.494l-3.985 23.708h-4.722L16.66 34.494v23.708H7.773V9.016h11.283l3.961 25.412 4.066-25.412H38.36V54.25l6.784-45.24 11.784.006 6.561 43.665.035-43.665s8.953-.005 9.006 0c8.109 0 11.79 5.948 12.83 7.997l-1.007-7.997h8.996l4.06 29.956 4.106-29.956h24.953z"/><path fill="#e50b14" d="M72.4 17.768h-.042v15.818c.695 0 1.404-.165 2.088-.493 2.072-1.01 3.836-3.522 3.836-7.502 0-7.618-5.187-7.83-5.881-7.823M48.62 42.802h4.97l-2.531-21.03z"/><path fill="#fff" d="M144.365 58.19h-16.362V9.006h8.811v40.338h7.551z"/></svg>