<svg height="71.697" viewBox="0 0 300 67.216" width="320" xmlns="http://www.w3.org/2000/svg"><g transform="matrix(1.7147 0 0 1.7147 -567.117 -95.689)"><path d="m422.674 57.269h83.022v-1.459h-83.022z"/><path d="m422.674 94.99h83.022v-1.458h-83.022z"/><path d="m0 0v-3.344c0-2.852-1.41-4.262-4.262-4.262h-.721c-2.82 0-4.197 1.41-4.197 4.197v3.196h2.557v-3.295c0-1.18.558-1.737 1.738-1.737h.524c1.181 0 1.738.557 1.738 1.737v3.443c0 1.147-.393 1.639-1.148 2.196l-3.212 2.328c-1.705 1.213-2.197 2.393-2.197 4.262v2.753c0 2.852 1.41 4.262 4.262 4.262h.656c2.819 0 4.196-1.41 4.196-4.196v-1.967h-2.557v2.065c0 1.181-.557 1.738-1.738 1.738h-.459c-1.18 0-1.737-.557-1.737-1.738v-2.885c0-1.147.426-1.639 1.18-2.196l3.181-2.295c1.671-1.213 2.196-2.295 2.196-4.262" transform="matrix(1.25 0 0 -1.25 434.202 80.495)"/><path d="m0 0v20.523h-3.442v2.426h9.507v-2.426h-3.442v-20.523z" transform="matrix(1.25 0 0 -1.25 439.233 89.756)"/><path d="m0 0c0-2.852-1.41-4.262-4.262-4.262h-.82c-2.852 0-4.262 1.41-4.262 4.262v18.884h2.623v-19.015c0-1.181.557-1.738 1.738-1.738h.623c1.18 0 1.737.557 1.737 1.738v19.015h2.623z" transform="matrix(1.25 0 0 -1.25 459.745 84.674)"/><path d="m0 0h1.574c1.77 0 2.59.885 2.59 2.655v12.852c0 1.77-.82 2.655-2.59 2.655h-1.574zm-2.623 20.555h4.328c3.442 0 5.081-1.639 5.081-5.081v-12.786c0-3.442-1.639-5.081-5.081-5.081h-4.328z" transform="matrix(1.25 0 0 -1.25 465.114 86.764)"/><path d="m478.849 89.756h-3.28v-28.686h3.28z"/><path d="m0 0h-.787c-1.18 0-1.737-.558-1.737-1.738v-15.08c0-1.181.557-1.738 1.737-1.738h.787c1.18 0 1.737.557 1.737 1.738v15.08c0 1.18-.557 1.738-1.737 1.738m.098-20.949h-.983c-2.852 0-4.262 1.409-4.262 4.262v14.818c0 2.852 1.41 4.262 4.262 4.262h.983c2.853 0 4.262-1.41 4.262-4.262v-14.818c0-2.853-1.409-4.262-4.262-4.262" transform="matrix(1.25 0 0 -1.25 487.255 63.815)"/><path d="m0 0v-3.344c0-2.852-1.41-4.262-4.262-4.262h-.721c-2.82 0-4.197 1.41-4.197 4.197v3.196h2.557v-3.295c0-1.18.558-1.737 1.738-1.737h.524c1.181 0 1.738.557 1.738 1.737v3.443c0 1.147-.393 1.639-1.148 2.196l-3.212 2.328c-1.705 1.213-2.197 2.393-2.197 4.262v2.753c0 2.852 1.41 4.262 4.262 4.262h.656c2.819 0 4.197-1.41 4.197-4.196v-1.967h-2.558v2.065c0 1.181-.557 1.738-1.738 1.738h-.459c-1.18 0-1.737-.557-1.737-1.738v-2.885c0-1.147.426-1.639 1.18-2.196l3.181-2.295c1.671-1.213 2.196-2.295 2.196-4.262" transform="matrix(1.25 0 0 -1.25 505.625 80.495)"/><path d="m330.739 95.005h87.027v-39.2h-87.027z" fill="#e50b14"/><path d="m0 0h-3.716v-5.184h3.716v-4.19h-3.716v-5.262h3.716v-4.128h-7.825v20.8l-3.299-20.8-4.827-.013s-2.462 14.73-2.466 14.761v-.001c.398-2.38-1.098-4.866-2.421-5.847l2.612-8.9h-.011l.002-.005h-4.058l-1.992 7.595-.96-.141v-7.449h-.012v-.005h-.004l-7.847.005-.482 3.53h-3.218l-.484-3.53h-7.991v11.061l-1.859-11.061h-2.203l-1.886 11.061v-11.061h-4.146v22.948h5.264l1.848-11.856 1.897 11.856h5.261v-21.104l3.165 21.107 5.498-.003 3.061-20.372.016 20.372s4.177.002 4.202 0c3.783 0 5.501-2.775 5.986-3.731l-.47 3.731h4.197l1.894-13.976 1.916 13.976h11.642z" fill="#fff" transform="matrix(1.25 0 0 -1.25 404.493 66.293)"/><path d="m0 0h-.02v-7.38c.324 0 .655.077.974.23.967.471 1.79 1.643 1.79 3.5 0 3.554-2.42 3.653-2.744 3.65" fill="#e50b14" transform="matrix(1.25 0 0 -1.25 372.962 66.167)"/><path d="m0 0h2.319l-1.181 9.812z" fill="#e50b14" transform="matrix(1.25 0 0 -1.25 359.093 80.767)"/><path d="m0 0h-7.634v22.947h4.111v-18.82h3.523z" fill="#fff" transform="matrix(1.25 0 0 -1.25 414.931 89.741)"/></g></svg>