<svg xmlns="http://www.w3.org/2000/svg" width="18" height="18" viewBox="0 0 18 18"><defs><radialGradient id="f571c5d6-de99-4bbc-a7d0-4fe2bcaab048" cx="16.858" cy="14.328" r="8.737" gradientTransform="translate(-6.212 -5.281)scale(.944)" gradientUnits="userSpaceOnUse"><stop offset=".183" stop-color="#5ea0ef"/><stop offset=".555" stop-color="#5c9fee"/><stop offset=".689" stop-color="#559ced"/><stop offset=".785" stop-color="#4a97e9"/><stop offset=".862" stop-color="#3990e4"/><stop offset=".928" stop-color="#2387de"/><stop offset=".985" stop-color="#087bd6"/><stop offset="1" stop-color="#0078d4"/></radialGradient><radialGradient id="ff6ac4d5-bc3b-4adc-96b4-da47ceed5d8a" cx="17.97" cy="15.337" r="1.223" gradientTransform="translate(-7.203 -6.199)scale(.943)" gradientUnits="userSpaceOnUse"><stop offset="0" stop-color="#7f7f7f"/><stop offset="1" stop-color="#5e5e5e"/></radialGradient></defs><title>MsPortalFx.base.images-55</title><g id="bf8d6c30-e204-4d69-aa93-0327d1ed40ea"><circle cx="9.71" cy="8.252" r="8.252" fill="url(#f571c5d6-de99-4bbc-a7d0-4fe2bcaab048)"/><circle cx="9.742" cy="8.252" r="7.185" fill="#fff"/><path id="a1e94b4f-fc64-477e-9999-492f9f751b22" fill="#7a7a7a" d="M13.04 4.13h1.231v.397H13.04z" transform="rotate(-45 13.656 4.329)"/><path id="ad20dc92-0a86-4689-95f8-9ceccd536110" fill="#7a7a7a" d="M14.61 8.045h1.231v.397H14.61z"/><path id="f9d98cb7-61e1-4075-967a-f8f3f5881df6" fill="#7a7a7a" d="M13.4 11.486h.397v1.231H13.4z" transform="rotate(-45 13.599 12.101)"/><path id="faa47355-63bb-4aaf-ba9c-236acad2e22d" fill="#7a7a7a" d="M9.543 13.093h.397v1.231h-.397z"/><path id="a968e841-f0cc-4609-b322-a2f83d5260fa" fill="#7a7a7a" d="M5.588 3.674h.397v1.231h-.397z" transform="rotate(-45 5.787 4.29)"/><path id="bc5dee4f-3cab-4e15-9110-4099c8602ab1" fill="#7a7a7a" d="M5.231 11.939h1.231v.397H5.231z" transform="rotate(-45 5.846 12.137)"/><path id="ba3377d0-1219-4aa8-a9b3-123b1a014012" fill="#7a7a7a" d="M3.565 8.045h1.231v.397H3.565z"/><rect width="1.107" height="6.326" x="9.237" y="2.172" fill="#7a7a7a" rx=".505"/><rect width="1.105" height="3.961" x="10.722" y="7.822" fill="#7a7a7a" rx=".504" transform="rotate(135 11.274 9.802)"/><circle cx="9.747" cy="8.238" r="1.169" fill="url(#ff6ac4d5-bc3b-4adc-96b4-da47ceed5d8a)"/><path fill="#86d633" d="M8.078.146A8.294 8.294 0 0 0 5.4 15.353l.274-.726a.161.161 0 0 1 .275-.046l2.151 2.61a.161.161 0 0 1-.1.262L4.657 18a.162.162 0 0 1-.177-.216l.4-1.074a9.72 9.72 0 0 1-4.507-5.757A8.462 8.462 0 0 1 8.078.146"/></g></svg>