<svg height="18" viewBox="0 0 18 18" width="18" xmlns="http://www.w3.org/2000/svg" xmlns:xlink="http://www.w3.org/1999/xlink"><radialGradient id="a" cx="9.701952" cy="8.244632" gradientUnits="userSpaceOnUse" r="8.247728"><stop offset=".183" stop-color="#5ea0ef"/><stop offset=".555" stop-color="#5c9fee"/><stop offset=".689" stop-color="#559ced"/><stop offset=".785" stop-color="#4a97e9"/><stop offset=".862" stop-color="#3990e4"/><stop offset=".928" stop-color="#2387de"/><stop offset=".985" stop-color="#087bd6"/><stop offset="1" stop-color="#0078d4"/></radialGradient><radialGradient id="b" cx="9.74271" cy="8.263791" gradientUnits="userSpaceOnUse" r="1.153289"><stop offset="0" stop-color="#7f7f7f"/><stop offset="1" stop-color="#5e5e5e"/></radialGradient><circle cx="9.71" cy="8.252" fill="url(#a)" r="8.252"/><circle cx="9.742" cy="8.252" fill="#fff" r="7.185"/><g fill="#7a7a7a"><path d="m13.04 4.13h1.231v.397h-1.231z" transform="matrix(.70710678 -.70710678 .70710678 .70710678 .938685 10.924185)"/><path d="m14.61 8.045h1.231v.397h-1.231z"/><path d="m13.4 11.486h.397v1.231h-.397z" transform="matrix(.70710678 -.70710678 .70710678 .70710678 -4.573644 13.160246)"/><path d="m9.543 13.093h.397v1.231h-.397z"/><path d="m5.588 3.674h.397v1.231h-.397z" transform="matrix(.70710678 -.70710678 .70710678 .70710678 -1.338515 5.348539)"/><path d="m5.231 11.939h1.231v.397h-1.231z" transform="matrix(.70710678 -.70710678 .70710678 .70710678 -6.869901 7.688591)"/><path d="m3.565 8.045h1.231v.397h-1.231z"/><rect height="6.326" rx=".505" width="1.107" x="9.237" y="2.172"/><rect height="3.961" rx=".504" transform="matrix(-.70710678 .70710678 -.70710678 -.70710678 26.176983 8.761139)" width="1.105" x="10.722" y="7.822"/></g><circle cx="9.747" cy="8.238" fill="url(#b)" r="1.169"/><path d="m8.078.146a8.294 8.294 0 0 0 -2.678 15.207l.274-.726a.161.161 0 0 1 .275-.046l2.151 2.61a.161.161 0 0 1 -.1.262l-3.343.547a.162.162 0 0 1 -.177-.216l.4-1.074a9.72 9.72 0 0 1 -4.507-5.757 8.462 8.462 0 0 1 7.705-10.807" fill="#86d633"/></svg>