<svg xmlns="http://www.w3.org/2000/svg" width="18" height="18" viewBox="0 0 18 18"><radialGradient id="a" cx="9.702" cy="8.245" r="8.248" gradientUnits="userSpaceOnUse"><stop offset=".183" stop-color="#5ea0ef"/><stop offset=".555" stop-color="#5c9fee"/><stop offset=".689" stop-color="#559ced"/><stop offset=".785" stop-color="#4a97e9"/><stop offset=".862" stop-color="#3990e4"/><stop offset=".928" stop-color="#2387de"/><stop offset=".985" stop-color="#087bd6"/><stop offset="1" stop-color="#0078d4"/></radialGradient><radialGradient id="b" cx="9.743" cy="8.264" r="1.153" gradientUnits="userSpaceOnUse"><stop offset="0" stop-color="#7f7f7f"/><stop offset="1" stop-color="#5e5e5e"/></radialGradient><circle cx="9.71" cy="8.252" r="8.252" fill="url(#a)"/><circle cx="9.742" cy="8.252" r="7.185" fill="#fff"/><g fill="#7a7a7a"><path d="m13.08 4.624.87-.87.28.28-.87.87zm1.53 3.421h1.231v.397H14.61zm-1.587 3.762.281-.28.87.87-.28.28zm-3.48 1.286h.397v1.231h-.397zM5.21 3.995l.281-.28.87.87-.28.28zm.061 8.437.87-.87.281.28-.87.87zM3.565 8.045h1.231v.397H3.565z"/><rect width="1.107" height="6.326" x="9.237" y="2.172" rx=".505"/><rect width="1.105" height="3.961" x="10.722" y="7.822" rx=".504" transform="rotate(135 11.274 9.802)"/></g><circle cx="9.747" cy="8.238" r="1.169" fill="url(#b)"/><path fill="#86d633" d="M8.078.146A8.294 8.294 0 0 0 5.4 15.353l.274-.726a.161.161 0 0 1 .275-.046l2.151 2.61a.161.161 0 0 1-.1.262L4.657 18a.162.162 0 0 1-.177-.216l.4-1.074a9.72 9.72 0 0 1-4.507-5.757A8.462 8.462 0 0 1 8.078.146"/></svg>