<svg xmlns="http://www.w3.org/2000/svg" width="512" height="512" viewBox="0 0 512 512"><path fill="none" d="M0 0h512v512H0z"/><path fill="currentColor" d="M149.729 92.301c-66.706 0-119.121 54.673-121.874 126.408l-2.551 95.471C21.337 392.833 97.265 419.7 152.24 419.7z"/><path fill="currentColor" d="M155.036 92.312h227.278c54.53-.8 95.624 40.1 98.381 93.335l6.144 135.76c.732 67.368-48.116 94.95-104.525 95.335l-227.278 2.934c-58.555.426-93.679-43.711-92.594-98.269l3.8-135.76c3.588-59.805 29.478-92.252 88.794-93.335"/><path fill="currentColor" d="M167.821 102.746h213.114c51.132-.746 89.665 37.307 92.25 86.824l5.761 126.29c.686 62.669-45.117 88.326-98.011 88.685l-213.114 2.729c-54.906.396-87.844-40.662-86.824-91.414l3.56-126.289c3.368-55.634 27.642-85.818 83.264-86.825"/><g fill="currentColor"><path d="M392.774 205.357a27.626 27.626 0 1 1-27.626 27.626 27.626 27.626 0 0 1 27.626-27.626"/><path d="M179.66 205.357a27.626 27.626 0 1 1-27.626 27.626 27.626 27.626 0 0 1 27.626-27.626"/></g></svg>