<svg height="512" viewBox="0 0 512 512" width="512" xmlns="http://www.w3.org/2000/svg" xmlns:xlink="http://www.w3.org/1999/xlink"><linearGradient id="a" gradientUnits="objectBoundingBox" x1=".414" x2="0" y1=".255" y2=".932"><stop offset="0" stop-color="#eab308"/><stop offset="1" stop-color="#ca8a04"/></linearGradient><linearGradient id="b" gradientUnits="objectBoundingBox" x1=".338" x2=".664" y1=".02" y2=".966"><stop offset="0" stop-color="#fde68a"/><stop offset="1" stop-color="#fbbf24"/></linearGradient><linearGradient id="c" gradientUnits="objectBoundingBox" x2="1" y1=".5" y2=".5"><stop offset="0" stop-color="#7dd3fc"/><stop offset="1" stop-color="#0ea5e9"/></linearGradient><path d="m0 0h512v512h-512z" fill="none"/><path d="m742.271 987.024c-66.706 0-119.121 54.673-121.874 126.408l-2.551 95.471c-3.967 78.653 71.961 105.52 126.936 105.52z" fill="url(#a)" transform="translate(-592.542 -894.723)"/><path d="m92.616.01h227.278c54.53-.8 95.624 40.1 98.381 93.335l6.144 135.76c.732 67.368-48.116 94.95-104.525 95.335l-227.278 2.934c-58.555.426-93.679-43.711-92.594-98.269l3.8-135.76c3.588-59.805 29.478-92.252 88.794-93.335z" fill="url(#b)" transform="translate(62.42 92.302)"/><path d="m86.844.009h213.114c51.132-.746 89.665 37.307 92.25 86.824l5.761 126.29c.686 62.669-45.117 88.326-98.011 88.685l-213.114 2.729c-54.906.396-87.844-40.662-86.824-91.414l3.56-126.289c3.368-55.634 27.642-85.818 83.264-86.825z" fill="#111827" transform="translate(80.977 102.737)"/><g fill="url(#c)"><path d="m27.626 0a27.626 27.626 0 1 1 -27.626 27.626 27.626 27.626 0 0 1 27.626-27.626z" transform="translate(365.148 205.357)"/><path d="m27.626 0a27.626 27.626 0 1 1 -27.626 27.626 27.626 27.626 0 0 1 27.626-27.626z" transform="translate(152.034 205.357)"/></g></svg>