<svg xmlns="http://www.w3.org/2000/svg" width="18" height="18" viewBox="0 0 18 18"><path fill="currentColor" d="M14.113 6.871a3.16 3.16 0 0 0-2.749-3.047 4 4 0 0 0-1.273-2.757A4 4 0 0 0 7.247.002a4.1 4.1 0 0 0-3.92 2.664A3.784 3.784 0 0 0 0 6.307a3.837 3.837 0 0 0 3.973 3.69l.351-.014h6.439q.087-.001.17-.026a3.207 3.207 0 0 0 3.18-3.085z"/><path fill="currentColor" d="M17.431 5.959H5.429A.43.43 0 0 0 5 6.388v7.716c0 .237.192.429.429.429h12.003a.43.43 0 0 0 .429-.429V6.387a.43.43 0 0 0-.429-.429z"/><path fill="currentColor" d="M14.009 17.125c-1.272-.2-1.322-1.115-1.322-2.593h-2.522c0 1.479-.043 2.393-1.315 2.593a.714.714 0 0 0-.636.714h6.43a.71.71 0 0 0-.636-.714z"/><path fill="currentColor" d="m8.056 10.157.232-.231 1.824 1.829a.104.104 0 0 1 0 .148l-.232.231a.104.104 0 0 1-.148 0l-1.676-1.681a.21.21 0 0 1 .001-.296z"/><path fill="currentColor" d="m8.284 10.685-.231-.232a.21.21 0 0 1 .001-.296l1.71-1.705a.104.104 0 0 1 .148 0l.231.232a.104.104 0 0 1 0 .148z"/><path fill="currentColor" d="m12.981 12.136-.232-.231a.1.1 0 0 1-.023-.034.1.1 0 0 1-.008-.04.1.1 0 0 1 .008-.04.1.1 0 0 1 .023-.034l1.826-1.831.232.231c.039.039.061.093.062.148s-.022.109-.061.148l-1.678 1.683a.104.104 0 0 1-.148 0z"/><path fill="currentColor" d="m12.714 8.685.231-.232a.104.104 0 0 1 .148 0l1.71 1.705a.21.21 0 0 1 .001.296l-.231.232-1.857-1.852a.1.1 0 0 1-.024-.034.1.1 0 0 1-.009-.04q0-.021.008-.041a.1.1 0 0 1 .023-.035zm-.289-.808-.37-.118a.075.075 0 0 0-.094.048l-1.509 4.712a.074.074 0 0 0 .048.094l.37.118a.074.074 0 0 0 .094-.049l1.509-4.712a.075.075 0 0 0-.048-.094z"/><path fill="none" d="M0 0h18v18H0z"/></svg>