<svg viewBox="0 0 24 24" xmlns="http://www.w3.org/2000/svg" fill="#263238"><path d="m6.43 0-2.555 2.564 3.833.367 1.28-2.931zm3.104 0-1.453 3.465-6.581-.534 1.094 4.58 7.853 2.931h1.095v-10.442zm2.74 0v10.442h1.278l7.853-2.93 1.095-4.58-6.756.547-1.461-3.479zm2.556 0 1.28 2.931 3.834-.367-2.557-2.564zm-12.052 8.244v6.229l4.383 3.663v-5.68l1.278-1.83-1.643.366-2.009-2.016zm18.261 0-2.009.732-2.009 2.016-1.643-.367 1.278 1.832v5.68l4.383-3.664zm-11.869 2.381-1.462 2.199v8.243l1.097 1.65 1.278 1.283h3.652l1.278-1.284 1.096-1.649v-8.243l-1.46-2.199-.914.55h-3.652zm-4.383 6.23v2.38l2.374 2.382v-2.747zm14.243 0-2.374 2.015v2.747l2.374-2.381z"/></svg>