<svg fill="#121212" viewBox="0 0 24 24" xmlns="http://www.w3.org/2000/svg"><path d="m0 5.358a.854.854 0 0 1 1.235-.767l4.899 2.459v5.768c0 .81.456 1.553 1.179 1.915l4.42 2.218v1.692a.853.853 0 0 1 -1.235.766l-9.318-4.677a2.14 2.14 0 0 1 -1.18-1.915zm6.134 0a.853.853 0 0 1 1.235-.766l4.898 2.458v5.768c0 .81.457 1.552 1.18 1.915l4.42 2.218v1.692a.853.853 0 0 1 -1.235.765l-4.899-2.457v-5.769a2.14 2.14 0 0 0 -1.179-1.914l-4.42-2.218zm6.133 0a.853.853 0 0 1 1.235-.766l9.319 4.676a2.14 2.14 0 0 1 1.179 1.914v7.46a.853.853 0 0 1 -1.235.766l-4.899-2.457v-5.769a2.14 2.14 0 0 0 -1.179-1.914l-4.42-2.218z"/></svg>