<svg xmlns="http://www.w3.org/2000/svg" width="18" height="18" viewBox="0 0 18 18">
  <defs>
    <mask id="ko">
      <rect width="18" height="18" fill="white"/>
      <path fill="black" d="M1.313 1.746h1.236V5.2a.274.274 0 0 1-.274.274H1.039A.274.274 0 0 1 .765 5.2V2.294a.55.55 0 0 1 .548-.548"/>
      <path fill="black" d="M1.313 1.746h1.236V5.2a.274.274 0 0 1-.274.274H1.039A.274.274 0 0 1 .765 5.2V2.294a.55.55 0 0 1 .548-.548"/>
      <path fill="black" d="M15.271 1.746h1.236a.55.55 0 0 1 .548.548V5.2a.274.274 0 0 1-.274.274h-1.236a.274.274 0 0 1-.274-.274z"/>
      <path fill="black" d="M15.271 1.746h1.236a.55.55 0 0 1 .548.548V5.2a.274.274 0 0 1-.274.274h-1.236a.274.274 0 0 1-.274-.274z"/>
      <path fill="black" d="M1.039 12.526h1.237a.274.274 0 0 1 .274.274v3.454H1.313a.55.55 0 0 1-.548-.548V12.8a.274.274 0 0 1 .274-.274"/>
      <path fill="black" d="M1.039 12.526h1.237a.274.274 0 0 1 .274.274v3.454H1.313a.55.55 0 0 1-.548-.548V12.8a.274.274 0 0 1 .274-.274"/>
      <path fill="black" d="M15.545 12.526h1.236a.274.274 0 0 1 .274.274v2.907a.55.55 0 0 1-.548.548h-1.236V12.8a.274.274 0 0 1 .274-.274"/>
      <path fill="black" d="M15.545 12.526h1.236a.274.274 0 0 1 .274.274v2.907a.55.55 0 0 1-.548.548h-1.236V12.8a.274.274 0 0 1 .274-.274"/>
      <path fill="black" d="M.765 15.711v-1.2h16.29v1.2a.543.543 0 0 1-.543.543H1.308a.543.543 0 0 1-.543-.543"/>
      <path fill="black" d="m4.989 5.484 3.125 3.125a.37.37 0 0 1 0 .527l-3.125 3.125a.166.166 0 0 1-.284-.118v-1.921a.166.166 0 0 0-.166-.167H.633A.13.13 0 0 1 .5 9.922v-2.1a.13.13 0 0 1 .133-.132h3.906a.166.166 0 0 0 .166-.167V5.6a.166.166 0 0 1 .284-.116"/>
      <path fill="black" d="m14.266 5.484 3.125 3.125a.374.374 0 0 1 0 .527l-3.125 3.125a.166.166 0 0 1-.284-.118v-1.921a.167.167 0 0 0-.167-.167H9.909a.13.13 0 0 1-.132-.133v-2.1a.13.13 0 0 1 .132-.133h3.906a.167.167 0 0 0 .167-.167V5.6a.166.166 0 0 1 .284-.116"/>
    </mask>
  </defs>
  <g>
    <path fill="currentColor" mask="url(#ko)" d="M17.055 2.289v1.2H.765v-1.2a.543.543 0 0 1 .543-.543h15.2a.543.543 0 0 1 .547.543"/>
  </g>
</svg>