<svg height="18" viewBox="0 0 18 18" width="18" xmlns="http://www.w3.org/2000/svg" xmlns:xlink="http://www.w3.org/1999/xlink"><linearGradient id="a" gradientTransform="matrix(0 1 -1 0 -319.458 1815.906)" gradientUnits="userSpaceOnUse" x1="-1803.596" x2="-1810.471" y1="-323.82" y2="-323.82"><stop offset="0" stop-color="#773adc"/><stop offset="1" stop-color="#a67af4"/></linearGradient><linearGradient id="b" gradientTransform="matrix(0 1 -1 0 -319.458 1815.906)" gradientUnits="userSpaceOnUse" x1="-1803.596" x2="-1810.471" y1="-333.097" y2="-333.097"><stop offset="0" stop-color="#1b93eb"/><stop offset="1" stop-color="#6bb9f2"/></linearGradient><g fill="#999"><path d="m1.313 1.746h1.236v3.454a.274.274 0 0 1 -.274.274h-1.236a.274.274 0 0 1 -.274-.274v-2.906a.55.55 0 0 1 .548-.548"/><path d="m1.313 1.746h1.236v3.454a.274.274 0 0 1 -.274.274h-1.236a.274.274 0 0 1 -.274-.274v-2.906a.55.55 0 0 1 .548-.548" opacity=".5"/></g><g fill="#999"><path d="m15.271 1.746h1.236a.55.55 0 0 1 .548.548v2.906a.274.274 0 0 1 -.274.274h-1.236a.274.274 0 0 1 -.274-.274z"/><path d="m15.271 1.746h1.236a.55.55 0 0 1 .548.548v2.906a.274.274 0 0 1 -.274.274h-1.236a.274.274 0 0 1 -.274-.274z" opacity=".5"/></g><path d="m17.055 2.289v1.2h-16.29v-1.2a.543.543 0 0 1 .543-.543h15.2a.543.543 0 0 1 .547.543" fill="#949494"/><g fill="#999"><path d="m1.039 12.526h1.237a.274.274 0 0 1 .274.274v3.454h-1.237a.55.55 0 0 1 -.548-.548v-2.906a.274.274 0 0 1 .274-.274"/><path d="m1.039 12.526h1.237a.274.274 0 0 1 .274.274v3.454h-1.237a.55.55 0 0 1 -.548-.548v-2.906a.274.274 0 0 1 .274-.274" opacity=".5"/></g><g fill="#999"><path d="m15.545 12.526h1.236a.274.274 0 0 1 .274.274v2.907a.55.55 0 0 1 -.548.548h-1.236v-3.455a.274.274 0 0 1 .274-.274"/><path d="m15.545 12.526h1.236a.274.274 0 0 1 .274.274v2.907a.55.55 0 0 1 -.548.548h-1.236v-3.455a.274.274 0 0 1 .274-.274" opacity=".5"/></g><path d="m.765 15.711v-1.2h16.29v1.2a.543.543 0 0 1 -.543.543h-15.204a.543.543 0 0 1 -.543-.543" fill="#949494"/><path d="m4.989 5.484 3.125 3.125a.37.37 0 0 1 0 .527l-3.125 3.125a.166.166 0 0 1 -.284-.118v-1.921a.166.166 0 0 0 -.166-.167h-3.906a.13.13 0 0 1 -.133-.133v-2.1a.13.13 0 0 1 .133-.132h3.906a.166.166 0 0 0 .166-.167v-1.923a.166.166 0 0 1 .284-.116" fill="url(#a)"/><path d="m14.266 5.484 3.125 3.125a.374.374 0 0 1 0 .527l-3.125 3.125a.166.166 0 0 1 -.284-.118v-1.921a.167.167 0 0 0 -.167-.167h-3.906a.13.13 0 0 1 -.132-.133v-2.1a.13.13 0 0 1 .132-.133h3.906a.167.167 0 0 0 .167-.167v-1.922a.166.166 0 0 1 .284-.116" fill="url(#b)"/></svg>