<svg viewBox="-203 444 193 193" xmlns="http://www.w3.org/2000/svg"><path d="m-59.2 637h-94.7c-27.2 0-49.2-22-49.2-49.2v-94.7c0-27.2 22-49.2 49.2-49.2h94.7c27.2.1 49.2 22.1 49.2 49.3v94.7c0 27.1-22 49.1-49.2 49.1" fill="#1ec677"/><path d="m-100.1 597.5c19.5 0 33.4-7.4 41.6-13.6v-26.9c-12.1 9.6-26.4 15.1-39 15.1-20.2 0-34.4-13.9-34.4-33.9 0-19 12.9-32.2 31.3-32.2 6 0 11.2 1.5 16.7 3.1 5.7 1.6 11.6 3.4 18.7 3.4 2.2 0 4.4-.2 6.6-.5v-25.6c-1.9.2-3.6.3-5.5.3-6.4 0-12.1-1.2-18.2-2.5-6.4-1.4-12.9-2.7-20.6-2.7-15.4 0-29.6 5.4-40.1 15.4-11.1 10.6-17.1 25.4-17.1 42.6.1 34.2 24.7 58 60 58" fill="#fff"/></svg>