<svg xmlns="http://www.w3.org/2000/svg" width="18" height="18" viewBox="0 0 18 18"><defs><mask id="a"><path fill="#fff" d="M0 0h18v18H0z"/><path d="M.285 5.707h17.43v10.08a.22.22 0 0 1-.22.22H.505a.22.22 0 0 1-.22-.22z"/><path d="M2.63 3.102h12.739v1.496H2.63z"/><circle cx="12.917" cy="10.218" r="1.416"/><circle cx="9.058" cy="10.218" r="1.416"/><circle cx="5.083" cy="10.218" r="1.416"/></mask></defs><path fill="currentColor" d="M.509 1.993h16.982a.22.22 0 0 1 .22.22v3.494H.289V2.213a.22.22 0 0 1 .22-.22" mask="url(#a)"/></svg>