<svg xmlns="http://www.w3.org/2000/svg" width="256" height="279" preserveAspectRatio="xMidYMid" viewBox="0 0 256 279"><path fill="currentColor" d="M133.784 48.922C133.784 21.945 111.84 0 84.863 0c-28.43 0-45.428 21.316-45.428 41.933h27.956c0-5.8 5.423-13.978 17.472-13.978 11.56 0 20.966 9.407 20.966 20.967s-8.438 20.966-29.715 20.966H0v27.955h76.114c35.911 0 57.67-21.944 57.67-48.921m0 0C133.784 21.945 111.84 0 84.863 0c-28.43 0-45.428 21.316-45.428 41.933h27.956c0-5.8 5.423-13.978 17.472-13.978 11.56 0 20.966 9.407 20.966 20.967s-8.438 20.966-29.715 20.966H0v27.955h76.114c35.911 0 57.67-21.944 57.67-48.921"/><path fill="currentColor" d="M195.803 229.339c0 26.978-21.945 48.922-48.922 48.922-28.43 0-45.427-21.315-45.427-41.933h27.955c0 5.8 5.423 13.979 17.472 13.979 11.56 0 20.967-9.408 20.967-20.968s-10.63-20.966-29.716-20.966H53.671v-27.956h84.461c35.912 0 57.671 21.945 57.671 48.922m0 0c0 26.978-21.945 48.922-48.922 48.922-28.43 0-45.427-21.315-45.427-41.933h27.955c0 5.8 5.423 13.979 17.472 13.979 11.56 0 20.967-9.408 20.967-20.968s-10.63-20.966-29.716-20.966H53.671v-27.956h84.461c35.912 0 57.671 21.945 57.671 48.922"/><path fill="currentColor" d="M203.13 43.13c-30.834 0-52.585 23.45-52.585 54.284h24.76c0-15.327 11.13-26.457 27.825-26.457 16.696 0 25.044 11.13 25.044 26.457s-10.842 27.955-40.348 27.955H0v27.956h192c43.695 0 64-28.085 64-55.911 0-30.835-20.87-54.284-52.87-54.284"/><path fill="currentColor" d="M36.647 180.417H0v28.19h36.647z"/></svg>