<svg height="64" viewBox="0 0 64 64" width="64" xmlns="http://www.w3.org/2000/svg"><g fill="none" fill-rule="evenodd"><path d="m0 0h64v64h-64z" fill="#dd344c"/><path d="m53 14h-1v38h-4v2h5a1 1 0 0 0 1-1v-38a1 1 0 0 0 -1-1m-39 39a1 1 0 0 0 1 1h27v-2h-28zm14.5-20.5a1 1 0 0 0 .707-.293l6-6-1.414-1.414-5.293 5.293-2.293-2.293-1.414 1.414 3 3a1 1 0 0 0 .707.293m-7-4c0 4.687 3.813 8.5 8.5 8.5s8.5-3.813 8.5-8.5-3.813-8.5-8.5-8.5-8.5 3.813-8.5 8.5m-2 0c0-5.79 4.71-10.5 10.5-10.5s10.5 4.71 10.5 10.5-4.71 10.5-10.5 10.5-10.5-4.71-10.5-10.5m-7.5-14.5h36v-2h-36zm36 34v-32h-36v32h26v2h-27a1 1 0 0 1 -1-1v-38a1 1 0 0 1 1-1h38a1 1 0 0 1 1 1v38a1 1 0 0 1 -1 1h-5v-2zm-26-3v-6h2v4.483l5.606-2.402a1 1 0 0 1 .788 0l5.606 2.402v-4.483h2v6a1 1 0 0 1 -1.394.919l-6.606-2.831-6.606 2.831a.998.998 0 0 1 -1.394-.919" fill="#fff"/></g></svg>