<svg xmlns="http://www.w3.org/2000/svg" width="64" height="64" viewBox="0 0 64 64"><title>Icon-Architecture/48/Arch_AWS-Site-to-Site-VPN_48</title><g id="Icon-Architecture/48/Arch_AWS-Site-to-Site-VPN_48" fill="none" fill-rule="evenodd" stroke="none" stroke-width="1"><g id="Icon-Architecture-BG/48/Networking-Content-Delivery" fill="#8c4fff"><path id="Rectangle" d="M0 0h64v64H0z"/></g><g id="Icon-Service/48/AWS-Site-to-Site-VPN_48" fill="#fff" transform="translate(10.6 10)"><path id="AWS-Site-to-Site-VPN_48_Squid" d="M21.414 28c1.103 0 2 .897 2 2s-.897 2-2 2-2-.897-2-2 .897-2 2-2m-1 5.858V38h2v-4.142c1.721-.447 3-2 3-3.858 0-2.206-1.794-4-4-4s-4 1.794-4 4c0 1.858 1.279 3.411 3 3.858M42.828 14l-4.707 4.707-1.414-1.414L39 15H3.828l2.293 2.293-1.414 1.414L0 14l4.707-4.707 1.414 1.414L3.828 13H39l-2.293-2.293 1.414-1.414zm-29.414-3h-2v-1c0-5.514 4.486-10 10-10s10 4.486 10 10v1h-2v-1c0-4.411-3.589-8-8-8s-8 3.589-8 8zm-5 31h26V22h-26zm23-25h-2v3h-16v-3h-2v3h-5v24h30V20h-5z"/></g></g></svg>