<svg height="64" viewBox="0 0 64 64" width="64" xmlns="http://www.w3.org/2000/svg"><g fill="none" fill-rule="evenodd"><path d="m0 0h64v64h-64z" fill="#8c4fff"/><path d="m21.414 28c1.103 0 2 .897 2 2s-.897 2-2 2-2-.897-2-2 .897-2 2-2m-1 5.858v4.142h2v-4.142c1.721-.447 3-2 3-3.858 0-2.206-1.794-4-4-4s-4 1.794-4 4c0 1.858 1.279 3.411 3 3.858m22.414-19.858-4.707 4.707-1.414-1.414 2.293-2.293h-35.172l2.293 2.293-1.414 1.414-4.707-4.707 4.707-4.707 1.414 1.414-2.293 2.293h35.172l-2.293-2.293 1.414-1.414zm-29.414-3h-2v-1c0-5.514 4.486-10 10-10s10 4.486 10 10v1h-2v-1c0-4.411-3.589-8-8-8s-8 3.589-8 8zm-5 31h26v-20h-26zm23-25h-2v3h-16v-3h-2v3h-5v24h30v-24h-5z" fill="#fff" transform="translate(10.6 10)"/></g></svg>