<svg xmlns="http://www.w3.org/2000/svg" viewBox="60 78.75 581.25 562.5"><defs><mask id="a"><path fill="#fff" d="M0 0h581.25v562.5H0z"/><path d="M168.293 488.906v44.664h-30.875V396.426h47.7q25.616 0 39 11.191 13.48 11.187 13.48 33.184 0 22.668-15.106 35.387-15.008 12.719-40.34 12.718zm0-68.761v45.043h12.906c7.645 0 13.543-2.004 17.684-6.024 4.14-4.016 6.215-9.785 6.215-17.309 0-6.949-2.043-12.304-6.121-16.07q-6.023-5.641-17.301-5.64zm0 0"/></mask></defs><g fill="currentColor" mask="url(#a)"><path d="M641.2 360c0-155.332-125.907-281.25-281.223-281.25S78.75 204.668 78.75 360s125.91 281.25 281.227 281.25S641.199 515.332 641.199 360zm0 0"/><path d="M641.2 360c0-155.332-125.907-281.25-281.223-281.25S78.75 204.668 78.75 360s125.91 281.25 281.227 281.25S641.199 515.332 641.199 360zm0 0"/><path d="M641.2 360c0-155.332-125.907-281.25-281.223-281.25S78.75 204.668 78.75 360s125.91 281.25 281.227 281.25S641.199 515.332 641.199 360zm0 0"/><path d="M360.016 78.75c155.312.004 281.218 125.922 281.218 281.25 0 51.672-13.96 100.07-38.273 141.68l4.57-10.121c27.832-61.797-17.406-131.727-85.183-131.676l-111.93.086c-27.824.023-50.402-22.535-50.402-50.36V197.477c-.004-67.805-70.012-112.993-131.793-85.067l-8.996 4.074c41.406-23.992 89.492-37.734 140.789-37.734m0 0"/><path d="M360.016 78.75c155.312.004 281.218 125.922 281.218 281.25 0 51.672-13.96 100.07-38.273 141.68l4.57-10.121c27.832-61.797-17.406-131.727-85.183-131.676l-111.93.086c-27.824.023-50.402-22.535-50.402-50.36V197.477c-.004-67.805-70.012-112.993-131.793-85.067l-8.996 4.074c41.406-23.992 89.492-37.734 140.789-37.734m0 0"/><path d="M360.016 78.75c155.312.004 281.218 125.922 281.218 281.25 0 51.672-13.96 100.07-38.273 141.68l4.57-10.121c27.832-61.797-17.406-131.727-85.183-131.676l-111.93.086c-27.824.023-50.402-22.535-50.402-50.36V197.477c-.004-67.805-70.012-112.993-131.793-85.067l-8.996 4.074c41.406-23.992 89.492-37.734 140.789-37.734m0 0"/><path d="M360.016 78.75c155.312.004 281.218 125.922 281.218 281.25 0 51.672-13.96 100.07-38.273 141.68l4.57-10.121c27.832-61.797-17.406-131.727-85.183-131.676l-111.93.086c-27.824.023-50.402-22.535-50.402-50.36V197.477c-.004-67.805-70.012-112.993-131.793-85.067l-8.996 4.074c41.406-23.992 89.492-37.734 140.789-37.734m0 0"/><path d="M360.016 78.75c155.312.004 281.218 125.922 281.218 281.25 0 51.672-13.96 100.07-38.273 141.68l4.57-10.121c27.832-61.797-17.406-131.727-85.183-131.676l-111.93.086c-27.824.023-50.402-22.535-50.402-50.36V197.477c-.004-67.805-70.012-112.993-131.793-85.067l-8.996 4.074c41.406-23.992 89.492-37.734 140.789-37.734m0 0"/><path d="M108.75 345h142.5c26.926 0 48.75 21.824 48.75 48.75v142.5c0 26.926-21.824 48.75-48.75 48.75h-142.5C81.824 585 60 563.176 60 536.25v-142.5C60 366.824 81.824 345 108.75 345m0 0"/><path d="M108.75 345h142.5c26.926 0 48.75 21.824 48.75 48.75v142.5c0 26.926-21.824 48.75-48.75 48.75h-142.5C81.824 585 60 563.176 60 536.25v-142.5C60 366.824 81.824 345 108.75 345m0 0"/></g></svg>