<svg viewBox="60 78.75 581.25 562.5" xmlns="http://www.w3.org/2000/svg" xmlns:xlink="http://www.w3.org/1999/xlink"><radialGradient id="a" cx="0" cy="0" gradientTransform="matrix(-399.28872486 399.28872486 -672.05654456 -672.05654456 471.141453 241.96082)" gradientUnits="userSpaceOnUse" r="1"><stop offset=".152" stop-color="#aa1d2d"/><stop offset=".381" stop-color="#d12b18" stop-opacity=".439216"/><stop offset=".602" stop-color="#ff3c00" stop-opacity="0"/></radialGradient><radialGradient id="b" cx="0" cy="0" gradientTransform="matrix(484.01286305 -228.61615876 414.17141882 876.85969051 -19.411256 588.613535)" gradientUnits="userSpaceOnUse" r="1"><stop offset=".407" stop-color="#ff66fb" stop-opacity=".501961"/><stop offset="1" stop-color="#ea3d01" stop-opacity="0"/></radialGradient><radialGradient id="c" cx="0" cy="0" gradientTransform="matrix(355.8574726 74.56939657 -71.09028706 339.25458761 312.758293 393.634599)" gradientUnits="userSpaceOnUse" r="1"><stop offset=".786" stop-color="#ffa05c" stop-opacity="0"/><stop offset=".905" stop-color="#ffce84"/></radialGradient><radialGradient id="d" cx="0" cy="0" gradientTransform="matrix(307.21039133 -201.01753161 192.23535978 293.78880356 369.799222 355.781911)" gradientUnits="userSpaceOnUse" r="1"><stop offset=".295" stop-color="#ff99e9" stop-opacity=".8"/><stop offset=".728" stop-color="#ff99e9" stop-opacity="0"/></radialGradient><radialGradient id="e" cx="0" cy="0" gradientTransform="matrix(257.14314761 -294.39511692 268.86446231 234.84307363 328.566905 398.71774)" gradientUnits="userSpaceOnUse" r="1"><stop offset="0" stop-color="#fd6ef9"/><stop offset=".637" stop-color="#f94"/><stop offset=".852" stop-color="#fcc479"/></radialGradient><radialGradient id="f" cx="0" cy="0" gradientTransform="matrix(-29.04618901 196.81925542 -444.81472254 -65.64486018 302.985231 115.921093)" gradientUnits="userSpaceOnUse" r="1"><stop offset=".144" stop-color="#ff8d13"/><stop offset=".537" stop-color="#ff7f29" stop-opacity="0"/></radialGradient><radialGradient id="g" cx="0" cy="0" gradientTransform="matrix(239.99981264 239.99981264 -239.99981264 239.99981264 59.970816 344.999643)" gradientUnits="userSpaceOnUse" r="1"><stop offset="0" stop-color="#f8193e"/><stop offset=".939" stop-color="#920616"/></radialGradient><radialGradient id="h" cx="0" cy="0" gradientTransform="matrix(0 168 -191.25 0 179.97 489)" gradientUnits="userSpaceOnUse" r="1"><stop offset=".576" stop-color="#ffb055" stop-opacity="0"/><stop offset=".974" stop-color="#fff2be" stop-opacity=".301961"/></radialGradient><linearGradient id="i" gradientUnits="userSpaceOnUse" x1="331.44" x2="-13.14" y1="60.84" y2="390.495"><stop offset=".058" stop-color="#ff7f48"/><stop offset="1" stop-color="#e5495b"/></linearGradient><linearGradient id="j" gradientUnits="userSpaceOnUse" x1="413.235" x2="715.935" y1="422.58" y2="198.24"><stop offset=".311" stop-color="#ff6e30"/><stop offset=".635" stop-color="#ffa05c"/></linearGradient><path d="m641.2 360c0-155.332-125.907-281.25-281.223-281.25s-281.227 125.918-281.227 281.25 125.91 281.25 281.227 281.25 281.222-125.918 281.222-281.25zm0 0" fill="url(#i)"/><path d="m641.2 360c0-155.332-125.907-281.25-281.223-281.25s-281.227 125.918-281.227 281.25 125.91 281.25 281.227 281.25 281.222-125.918 281.222-281.25zm0 0" fill="url(#a)"/><path d="m641.2 360c0-155.332-125.907-281.25-281.223-281.25s-281.227 125.918-281.227 281.25 125.91 281.25 281.227 281.25 281.222-125.918 281.222-281.25zm0 0" fill="url(#b)"/><path d="m360.016 78.75c155.312.004 281.218 125.922 281.218 281.25 0 51.672-13.96 100.07-38.273 141.68l4.57-10.121c27.832-61.797-17.406-131.727-85.183-131.676l-111.93.086c-27.824.023-50.402-22.535-50.402-50.36v-112.132c-.004-67.805-70.012-112.993-131.793-85.067l-8.996 4.074c41.406-23.992 89.492-37.734 140.789-37.734m0 0" fill="url(#j)"/><path d="m360.016 78.75c155.312.004 281.218 125.922 281.218 281.25 0 51.672-13.96 100.07-38.273 141.68l4.57-10.121c27.832-61.797-17.406-131.727-85.183-131.676l-111.93.086c-27.824.023-50.402-22.535-50.402-50.36v-112.132c-.004-67.805-70.012-112.993-131.793-85.067l-8.996 4.074c41.406-23.992 89.492-37.734 140.789-37.734m0 0" fill="url(#c)"/><path d="m360.016 78.75c155.312.004 281.218 125.922 281.218 281.25 0 51.672-13.96 100.07-38.273 141.68l4.57-10.121c27.832-61.797-17.406-131.727-85.183-131.676l-111.93.086c-27.824.023-50.402-22.535-50.402-50.36v-112.132c-.004-67.805-70.012-112.993-131.793-85.067l-8.996 4.074c41.406-23.992 89.492-37.734 140.789-37.734m0 0" fill="url(#d)"/><path d="m360.016 78.75c155.312.004 281.218 125.922 281.218 281.25 0 51.672-13.96 100.07-38.273 141.68l4.57-10.121c27.832-61.797-17.406-131.727-85.183-131.676l-111.93.086c-27.824.023-50.402-22.535-50.402-50.36v-112.132c-.004-67.805-70.012-112.993-131.793-85.067l-8.996 4.074c41.406-23.992 89.492-37.734 140.789-37.734m0 0" fill="url(#e)"/><path d="m360.016 78.75c155.312.004 281.218 125.922 281.218 281.25 0 51.672-13.96 100.07-38.273 141.68l4.57-10.121c27.832-61.797-17.406-131.727-85.183-131.676l-111.93.086c-27.824.023-50.402-22.535-50.402-50.36v-112.132c-.004-67.805-70.012-112.993-131.793-85.067l-8.996 4.074c41.406-23.992 89.492-37.734 140.789-37.734m0 0" fill="url(#f)"/><path d="m108.75 345h142.5c26.926 0 48.75 21.824 48.75 48.75v142.5c0 26.926-21.824 48.75-48.75 48.75h-142.5c-26.926 0-48.75-21.824-48.75-48.75v-142.5c0-26.926 21.824-48.75 48.75-48.75m0 0" fill="url(#g)"/><path d="m108.75 345h142.5c26.926 0 48.75 21.824 48.75 48.75v142.5c0 26.926-21.824 48.75-48.75 48.75h-142.5c-26.926 0-48.75-21.824-48.75-48.75v-142.5c0-26.926 21.824-48.75 48.75-48.75m0 0" fill="url(#h)"/><path d="m168.293 488.906v44.664h-30.875v-137.144h47.7q25.616 0 39 11.191 13.48 11.187 13.48 33.184 0 22.668-15.106 35.387-15.008 12.719-40.34 12.718zm0-68.761v45.043h12.906c7.645 0 13.543-2.004 17.684-6.024 4.14-4.016 6.215-9.785 6.215-17.309 0-6.949-2.043-12.304-6.121-16.07q-6.023-5.641-17.301-5.64zm0 0" fill="#fff"/></svg>