<svg viewBox="0 0 24 24" xmlns="http://www.w3.org/2000/svg"><path d="m23.327 15.205-.893-1.555-4.321 2.632 4.799-6.11.726-.426-.179-.27.33-.421-1.515-1.261-.693.883-13.992 8.186 5.173-6.221 9.636-5.282-.915-1.769-5.248 2.876 2.584-3.106-1.481-1.305-5.816 6.994-5.777 3.168 4.423-5.847 2.771-1.442-.88-1.789-8.075 4.203 2.202-2.913-1.538-1.232-4.648 6.151.072.058.868 1.768 5.153-2.683-4.696 6.207.77.617.458.885 5.425-2.974-5.974 7.185 1.481 1.304.297-.358 14.411-8.459-4.785 6.094.078.065-.007.005.992 1.726 6.364-3.877-2.451 3.954 1.642 1.077 3.902-6.295z"/></svg>