<svg viewBox="0 0 128 128" xmlns="http://www.w3.org/2000/svg"><path d="m0 0h128v128h-128z" fill="#f03e2f"/><path d="m39.4229 33.1629c0 10.9985 6.9133 17.5426 20.7538 20.9934l14.6662 3.3408c13.0988 2.9559 21.0756 10.2974 21.0756 22.2583.1019 5.2108-1.6225 10.2976-4.884 14.408 0-11.9334-6.2835-18.3812-21.4395-22.2582l-14.4003-3.2171c-11.5314-2.5846-20.4319-8.6201-20.4319-21.6121-.0607-5.0171 1.5787-9.9116 4.6601-13.9131z" fill="#fff"/><g fill="#f9b1ab"><path d="m82.0221 76.827c6.2555 3.932 8.9984 9.4313 8.9984 17.3227-5.1779 6.5163-14.2743 10.1733-24.966 10.1733-17.9969 0-30.5919-8.7023-33.3908-23.8252h17.2831c2.2252 6.9428 8.1168 10.1599 15.9817 10.1599 9.6002 0 15.9817-5.0319 16.1076-13.8582"/><path d="m48.4074 49.4682c-2.8565-1.6678-5.2001-4.0642-6.7819-6.935s-2.343-6.1088-2.2025-9.3703c4.996-6.4616 13.6865-10.4073 24.2803-10.4073 18.3328 0 28.9406 9.5137 31.5575 22.9044h-16.6254c-1.8333-5.2793-6.4234-9.39-14.7921-9.39-8.9425 0-15.0441 5.1143-15.3939 13.1982"/></g></svg>