<svg viewBox="0 0 128 128" xmlns="http://www.w3.org/2000/svg"><path d="m0 0v128h128v-128zm63.703125 22.755859c18.3328 0 28.941694 9.513597 31.558594 22.904297h-16.626953c-1.8333-5.2793-6.422316-9.390625-14.791016-9.390625-8.9425 0-15.044731 5.115319-15.394531 13.199219h-.015625c3.112445 1.956185 7.012205 3.508191 11.742187 4.6875l14.667969 3.341797c13.0988 2.9559 21.074219 10.296912 21.074219 22.257812.1019 5.2108-1.621313 10.297804-4.882813 14.408203 0-.416135-.025624-.809971-.041015-1.21289.0147.394415.02539.792189.02539 1.199219-5.1779 6.516299-14.273144 10.171879-24.964843 10.171879-17.996901 0-30.591726-8.701323-33.390626-23.824223h17.283204c2.2252 6.9428 8.115568 10.160156 15.980468 10.160156 9.577212 0 15.948047-5.009846 16.103516-13.796875-3.199987-2.019806-7.295725-3.642232-12.435547-4.957031l-14.400391-3.216797c-11.531399-2.5846-20.43164-8.619328-20.43164-21.611328-.0607-5.0171 1.578756-9.912563 4.660156-13.914063 4.996-6.4616 13.685497-10.40625 24.279297-10.40625z" fill="#f03e2f"/></svg>