<svg height="48" viewBox="0 0 48 48" width="48" xmlns="http://www.w3.org/2000/svg"><path d="m24 32.978a1.001 1.001 0 0 1 0-2 1.001 1.001 0 0 1 0 2m1-3.817v-11.161h-2v11.162a3 3 0 0 0 -2 2.816c0 1.654 1.346 3 3 3s3-1.346 3-3a3 3 0 0 0 -2-2.817m1.522 5.92c-.953.776-2.158 1.061-3.39.806-1.544-.32-2.776-1.589-3.063-3.156-.279-1.526.294-2.997 1.534-3.934l.397-.3v-14.497c0-1.104.897-2 2-2s2 .896 2 2v14.499l.397.299c1.019.77 1.603 1.929 1.603 3.18 0 1.209-.538 2.34-1.478 3.103m1.478-7.553v-13.528c0-2.206-1.794-4-4-4s-4 1.794-4 4v13.53a5.99 5.99 0 0 0 -1.897 5.563c.432 2.358 2.29 4.268 4.623 4.752q.633.133 1.265.132a6 6 0 0 0 3.794-1.344 5.98 5.98 0 0 0 2.215-4.656 5.93 5.93 0 0 0 -2-4.448m2-.529h4v-2h-4zm0-4h5v-2h-5zm0-4h4v-2h-4zm0-4h5v-2h-5zm9 22.865c0 .625-.509 1.135-1.135 1.135h-27.73a1.136 1.136 0 0 1 -1.135-1.134v-27.73c0-.626.509-1.136 1.135-1.136h27.73c.626 0 1.135.51 1.135 1.135zm7-22.865v-2h-5v-2.865a3.14 3.14 0 0 0 -3.135-3.135h-2.865v-5h-2v5h-3v-5h-2v5h-3v-5h-2v5h-3v-5h-2v5h-3v-5h-2v5h-2.865a3.14 3.14 0 0 0 -3.135 3.134v2.866h-5v2h5v3h-5v2h5v3h-5v2h5v3h-5v2h5v3h-5v2h5v2.866a3.14 3.14 0 0 0 3.135 3.134h2.865v5h2v-5h3v5h2v-5h3v5h2v-5h3v5h2v-5h3v5h2v-5h2.865a3.14 3.14 0 0 0 3.135-3.134v-2.866h5v-2h-5v-3h5v-2h-5v-3h5v-2h-5v-3h5v-2h-5v-3z" fill="#7aa116" fill-rule="evenodd"/></svg>