<svg xmlns="http://www.w3.org/2000/svg" fill="none" viewBox="0 0 1195 1207"><path fill="currentColor" d="M930 694c-40-18-40 43-40 43s24 22 72 9 50-59 50-59-42 24-82 7"/><path fill="currentColor" d="M895 687c13 25 28-34 28-34s-45 1-56 16c-11 16 15-6 28 18"/><path fill="currentColor" d="M867 682c-12 0-23 10-23 23 0 12 6 16 13 20-17 25-55 93-103 128-41 31-125 89-271 73-73-8-81-62-81-62s-66 92-41 261c0 0 36-48 102-71s133-27 236-87a329 329 0 0 0 132-126s24-48 35-114h1a23 23 0 1 0 0-45"/><path fill="currentColor" d="M538 432c-32 5-47 17-50 40-4 21 2 42 16 55a63 63 0 0 0 57 18c25-5 40-20 47-46 3-11 2-30-1-40-3-7-11-16-18-20-12-6-34-9-51-7m77 10c-2 1-4 5-2 7s6 4 11 5c2 0 5 0 8-2 5-1 5-2 5-5s0-4-4-5c-3-1-14-2-18 0m-312 1c-3 2-2 8 1 11 3 2 9 2 13-1 3-2 3-5 0-8-2-3-3-3-7-3s-6 1-7 2z"/><path fill="currentColor" d="m406 835-15 21c0 1-18 26-31 71a515 515 0 0 0-12 200l5 31 18-25s9-12 25-26c11-9 27-21 47-31v10c0 17 0 24 2 31 2 12 5 21 7 22 2 2 5-1 16-14a307 307 0 0 1 105-74c1 3-15 22-32 38l-10 10c0 1 10 0 18-3a299 299 0 0 0 113-71l17-14c3 3-10 25-21 38-6 7-20 19-30 26-11 8-6 9 16 3 17-4 39-14 53-25a228 228 0 0 0 69-85c2 0 0 17-5 29-3 10-10 24-17 33l-5 8c1 1 4 0 7-1 19-7 34-19 49-42 16-23 23-44 27-72 1-9 4-5 7 10 2 9 3 35 2 46-1 4-1 5 1 5 4 1 8-5 14-16 6-12 10-23 13-37a183 183 0 0 0-1-58l12 15c5 9 11 26 13 40 0 5 2 8 2 9 2 0 5-4 7-10 3-10 4-21 4-40-1-29-5-45-17-64l-5-9c3-2 24 18 29 26 3 5 4 5 5 3 1-3-3-23-7-34a226 226 0 0 0-27-53l3-14 4 4c2 2 19 17 53 17 33 0 21-1 32-4 29-8 44-27 51-41 7-16 8-29 8-30v-23l-20 11s-20 11-43 11c-24 0-19-2-27-5l-6-2v-2l7-22 4-16h-16c-1 0-13 0-26 3-21 3-35 9-41 19-2 2-4 6-5 11l-2 1-2-10c-1-13-3-19-5-29l-2-8 4 1c5 2 20 6 26 6s6-3 0-6c-4-2-14-12-19-19-10-13-23-38-22-39l8 2 9 4c4 1 8 0 8-2s-2-5-6-8c-8-10-17-23-15-25h6c4 0 6-1 7-4 2-5 2-19 0-23l-1-4 7-1c6-1 8-3 6-5l-12-9-12-9 6-1c7 1 34-3 36-4l-8-6-8-5 9-3c11-2 19-6 24-11 6-4 4-5-7-4-14 2-28 0-36-5-3-1-2-2 2-3 10-1 25-6 33-11s16-15 20-22c3-7 4-9 2-11-1-1-3 0-8 4-7 6-17 11-26 13-7 2-21 2-24 1-2-1-2-3 1-3s22-10 29-15c9-7 18-18 23-28 8-14 6-24-2-14a75 75 0 0 1-39 27c-13 3-16 2-8-2 8-6 20-16 25-23 10-12 18-35 14-37-2-1-3-1-10 9-8 9-16 16-25 21-12 6-14 6-6-3 13-13 19-23 29-48 8-18 13-27 27-48 13-19 19-31 21-40s1-10-7-10l-13 2c-4 0-20 6-36 11-22 8-39 13-65 19l-46 12a129 129 0 0 0-59 38c-2 0 2-16 6-25l3-7c0-4-11 3-20 12-7 7-16 21-18 29-2 6-3 9-4 8-2-2-5-14-6-21s-2-9-3-9c-2 0-3 3-5 9-5 14-6 20-6 36 0 10-4 14-11 13h-45c-23 0-34-4-33-13 0-17-1-25-7-37-4-8-7-11-8-10v8c2 9 1 22-1 27-2 3-2 4-3 2l-2-9c-2-9-11-26-18-34-6-6-17-14-20-14-4 0-2 3 0 6 7 8 15 22 15 29 0 6-1 2-8-5-9-8-19-15-33-22-15-8-21-9-70-19a453 453 0 0 1-85-25c-7-2-21-2-22-1-1 2 0 9 3 14s11 16 24 30c14 17 19 24 29 45a247 247 0 0 0 30 47c-1 1-8-2-16-6l-16-12-10-9c-3 0 0 12 6 21 8 13 16 20 29 27 4 3 7 5 6 6s-16-1-24-4c-11-4-16-7-22-13l-7-6c-1 0 0 7 3 13 8 16 27 27 45 27s8 2-1 5c-6 3-8 3-21 2l-15 1c0 1 5 5 11 7l5 4c0 1-6 2-13 2-35 4-54 9-61 19-3 4-3 4-4 17 0 9 3 17 8 22q9 7.5 9 15a152 152 0 0 0 8 34c0 1-7 4-20 8l-22 8c-15 6-24 18-25 30-1 11 1 16 5 21 3 4 4 4 4 10-1 17 8 44 20 58 18 22 40 29 64 21 6-2 12-2 19 0l11 4c3 1 0 2-14 7-19 6-28 11-35 18-8 8-10 12-10 22 0 9 1 12 6 17 2 2 2 3 1 7-2 5-2 12 1 17 8 13 27 24 52 28 9 2 34 2 41 1 3-1 3-1 3 1 0 4-11 21-19 29-6 6-8 8-7 9 2 1 17 0 27-2m516-183s-3 13-8 25c-5 0-12 2-19 7-6-10-17-16-29-16 11-16 56-16 56-16M696 332c5-23 22-46 42-58 14-8 33-15 63-22 22-5 52-13 76-21l26-9v1c0 2-5 5-18 11-12 6-29 12-48 17-46 13-59 17-81 27a98 98 0 0 0-49 48c-6 12-8 23-8 37 0 15 0 10-1 10-3 2-5-29-2-41m128-25-18 14a333 333 0 0 0-62 60c-10 15-13 18-15 16-2-1 13-31 21-41 13-17 33-31 63-48 15-7 18-8 11-1m-2 34-19 17c-17 14-22 19-33 31-7 8-12 12-16 12-5 0-2-1 3-11 8-12 15-21 22-26 11-9 40-27 45-27 2 0 1 0-2 4m-78 76a435 435 0 0 0 86-28 127 127 0 0 1-61 31c-10 2-26 2-31 1-4-1-2-3 6-4m-18 51 24 9c15 6 65 31 72 36l8 8c4 6 2 13-3 9l-9-8c-12-10-40-22-101-44l-25-10-25-9c-3 0-3-1-3-6 1-8 2-8 4-7a1733 1733 0 0 0 58 22m-65-159c1-3 2-1 5 10 6 17 8 19 10 8 4-19 8-31 12-37 1-2 2 0 2 6 1 8 0 11-1 16a168 168 0 0 0-9 53l-15-28c-2-8-5-24-4-28m-95 36c8-1 62 0 71 1 9 2 15 4 16 6v2l-10 1c-28 2-39 5-57 14-13 6-14 7-26 19-8 7-15 14-16 17-3 4-4 4-12 5-23 4-37 9-48 20-5 4-9 6-12 5l-6-3c-6 0-6-1-3-11 7-21 26-43 49-59 17-12 23-14 54-17m83 105-2 9-6 2c-6 3-12 7-14 11-2 2-3 7-4 14-3 20-6 28-15 40a70 70 0 0 1-67 29c-7-1-21-6-29-10-17-9-30-28-34-49-1-8-1-29 1-35 2-10 13-23 24-29 9-5 27-9 41-10l13-1 21 1c21 2 53 8 63 13 8 4 9 6 8 15M396 322c1-1 0-2 12 4s18 10 24 16c8 8 13 18 10 18-4 0-5-3-9-7l-17-14c-15-11-21-16-20-17m-4-28c0-2 1-1 15 5 18 9 36 24 46 38 3 5 4 9 3 9-2 0-5-3-9-7a334 334 0 0 0-55-46zm67 30-8-7a241 241 0 0 0-32-30c-1-2 3 0 14 6l15 10c7 7 14 21 11 21M299 463c-4-2-6-7-6-13 0-15 0-15 47-22l21-3c8-1 24 0 32 2 15 3 24 8 31 20l7 8 5-4c3-3 5-4 9-5 14-3 28 2 28 10s0 4-9 1c-7-2-15-2-23 1-5 2-5 2-6 0-2-2-2-2-2 15 0 12-2 14-7 16-7 2-7 2-6-5 4-25-5-40-26-47-8-3-32-3-42-1-28 6-39 32-30 71 1 4 2 8 1 9-1 3-4 1-6-3-4-6-5-10-6-25-2-15-4-19-12-25m-43 113c-1 8-5 4-5-4 0-9 7-18 15-21 5-1 14-1 29 2 16 3 22 6 28 12 5 4 8 13 6 17-2 5-3 5-4-1-1-7-2-9-9-13s-16-5-36-5c-12 0-19 2-21 5zm43 21c7 13 26 13 38 1 5-6 7-6 4 0-4 10-14 15-26 15-7 0-9 0-13-3-6-3-10-10-11-17-1-6 1-15 4-18s6-4 6-2-1 3-3 5c-3 5-3 13 1 19m-34 8c5 0 7-3 8-9 1-7 0-14-4-20-4-4-4-5-2-5s3 1 5 3c7 7 9 28 2 35-2 3-9 3-12 0-2-3-1-4 3-4m48 60c-1 4-19-3-28-10-7-6-21-29-19-31l11 2c6 1 10 4 13 10 6 12 10 18 17 23zm5 73c-7-10-2-21 13-29 9-4 30-12 33-12 2 1 3 1-11 13-9 8-16 20-13 22 1 1 6-3 12-8 11-9 31-22 41-27 13-6 23-8 29-4 3 2 6 2 15 3 18 0 20 2 10 5l-12 5-24 18c-2 2-4 1-6-2-10-14-21-11-26 7-3 10-6 12-14 15-16 6-41 3-47-6m208-39c10-3 12-3 12-2l-3 5c-8 6-25 14-57 25-31 11-65 20-66 19l-1-4c1-2 3-4 7-5 6-3 25-9 40-12 15-4 19-7 24-18 4-8 7-9 13-2 3 4 7 4 12 2zm-1-11c4 0 8-4 12-11 3-6 6-7 21-11l14-4c3-2 5-2 5 0 0 3-16 15-34 25-6 4-7 4-15 4s-11-1-4-3zm-128 63-8 1c-4 0-4 0-4-2l4-19 2-4c2-2 5 0 6 3l2 11c0 9 0 9-2 10m50 151-5-14c-3-12-1-33 4-45l2-8c-4-4-17 16-20 31l-2 6c-2 0-4-9-3-19 1-11 4-21 9-32 7-12 5-13-8-6-9 5-16 8-17 7l4-6 9-13c2-6 8-10 17-11l16-4s38-14 72-23a220 220 0 0 1 111-3h3l-8-5c-14-12-23-14-47-14-21 0-38 3-58 10s-78 22-102 26c-22 4-28 5-46 4-19 0-26-2-38-7-8-4-16-12-16-16 0-3 1-2 6 0 14 5 42 7 63 4 26-4 78-19 115-33 31-12 52-25 70-41 12-10 15-14 22-24 10-15 8-14 12-10 4 3 4 4 3 8l-1 8c-1 4 2 3 6-2 6-6 7-8 7-15 0-11-11-20-26-22a20 20 0 0 0-17 5 814 814 0 0 0-56 18c-26 8-47 13-68 16-13 2-17 2-42 2-30-1-35-1-53-6-24-7-45-16-53-24-6-5-12-14-11-17l6-1c13 2 31-4 39-14 10-10 14-28 11-44-2-7-8-16-15-19-6-4-18-7-32-9-6 0-10-1-10-2l75-19c52-14 71-21 77-32l10-11c2 0 2 2 2 3l1 10a79 79 0 0 0 54 74l14 7c19 15 35 21 65 27 23 4 34 7 48 14 18 9 32 21 42 37 12 18 23 46 25 63v37c-1 3-1 3 1 3 4-1 14-29 15-46 1-15-4-53-4-54-4-8 3-4 10 6 6 10 10 19 13 32 3 11 4 40 5 40 2 0 13-22 15-38 2-22-3-31-15-53l-5-11c4-3 22 23 28 40 4 9 8 27 9 35 2 13 9 1 11-18 2-17-3-37-15-56l-8-14c0-2 2-1 8 5 19 19 39 54 43 76 4 16 3 46-1 57l-2 3-1-2-1-9c-2-14-8-33-11-33-4 0-4 5-4 18 1 14-1 28-8 51l-5 17-2 2-1-20c1-18 1-28-1-31-1-2-2-2-4 1-2 2-2 3-4 16-2 22-9 45-16 57l-8 10-8 6 3-8 5-18c1-10 2-28 0-30s-5 1-7 7a150 150 0 0 1-49 81 245 245 0 0 1-10 5l7-12c8-12 13-26 16-40 2-9 2-11 0-11s-5 7-14 24c-3 6-9 13-12 17-9 12-34 35-47 45a329 329 0 0 1-30 9c-3 0-4 0-1-3l4-4c9-8 22-26 26-38 2-7 5-21 4-23s-4-1-5 2l-15 27c-7 11-23 27-36 36l-14 9a370 370 0 0 1-108-4v-39c0-7-3-6-7 1-3 6-6 17-6 27l-1 5zl1 1m174 2h-1zm-5 1v1zm247-166-5 23-2 6-1 5-2 5-1 5v-1s-49 79-131 119c-30 14 58-6 119-84v1l-1 2-1 2v1l-1 1v1l-2 4-1 2-1 1v2l-1 1-1 2v1l-1 1v1l-1 1-3 5v1l-4 6-2 3-5 7-2 3a381 381 0 0 1-22 27l-4 3-2 3-4 4-3 2-7 7a401 401 0 0 1-94 65l-7 4-17 8-5 3-16 7-9 4a444 444 0 0 1-53 19l-48 13-3 1-10 2-9 3-10 3-15 4-6 2-7 2-17 7-4 2-2 1-5 3-13 7-5 2-9 6-4 3-8 6-5 5-5 4-7 7-3 3-3 2-4 5h-1l-6 8h-1l-1-8v-2l-1-5v-8l-1-4v-7l-1-4v-11l-1-4v-41l1-3v-13l1-3v-9l1-4v-2l1-4v-5l1-3v-3l1-2v-3l1-3v-3l1-2v-3l1-2v-4l1-1 1-4v-1l1-4v-1l1-5 1-1 1-5 1-5 1-1 1-4v-1c12 30 33 48 56 58 69 30 161-8 128-4-64 8-105-1-131-15a83 83 0 0 1-42-67v-1l1-3v-1l1-1v-1l2-3 1-2 2-5 1-1 2-4v-1l2-3 2-3v-1l1-2h1v-2h1v-1l1 4 1 5 2 4 1 1 1 2v2l3 5 2 3 2 2 2 3 3 3 3 2a58 58 0 0 0 7 7l3 2 3 2 4 2 2 1 8 4 4 2a335 335 0 0 0 23 6h6l7 1h2l5 1h9l3 1h44l6-1h7l3-1h8l3-1h5l2-1h5l5-1h1l4-1h2l3-1h2l2-1 2-1h3l2-1h3l2-1h2l2-1 3-1h2l4-1 1-1 3-1h2l2-1 2-1h2l2-1 2-1 2-1h2l2-1 2-1h2l3-2h2l3-1 1-1 2-1 2-1 2-1h2l1-1 2-1 2-1 2-1 1-1h2l2-1 1-1 3-2h2l2-1 1-1 2-1 1-1 2-1 1-1h2l1-1 2-1 1-1 2-1 1-1 2-1 2-1 2-1 1-1 1-1h2l1-1 1-1 2-1 1-1 1-1h1l2-1 1-1 1-1 1-1 2-1 1-1 2-1v-1h2l1-1 1-1 1-1h1l1-1 1-1 1-1h1l1-1 2-1 3-3h1l3-3 4-4 4-3 3-3 4-4 3-3 1-1 3-3v-1l3-3h1l3-4 3-4h1l3-4 3-4 3-4 3-4 3-4h1l2-4h1l2-4 1-1 2-3v-1a100 100 0 0 1 3-3l3-4v-1l2-3h1l2-4 2-4h1l2-3v-1l2-3 1-1 1-2 1-1 2-3v-1l2-2 4-7 2-2v-1c4 3 9 4 14 5zm3-13h-1v2l-1-2-8-2a23 23 0 0 1-11-13l-1-1v-11l1-2v-2l1-2 1-2 1-2h1l1-1v-1l1-1h1l1-1h1l1-1a23 23 0 1 1 11 42m95 19c-11 3-20 4-29 4-29 0-43-13-43-13v-5c7-7 12-16 12-26 9 0 16-6 20-15l8 3c10 4 21 6 31 6 28 0 50-13 50-13s-1 46-49 59"/></svg>