<svg xmlns="http://www.w3.org/2000/svg" width="18" height="18" viewBox="0 0 18 18"><path fill="currentColor" d="m1.47 1.47 15.06 15.06a.57.57 0 0 0 1-.4V1.07a.57.57 0 0 0-.6-.57H1.87a.57.57 0 0 0-.4.97"/><rect width="9.37" height="1.7" x="-.38" y="12.85" fill="currentColor" rx=".27" transform="rotate(-45 4.307 13.706)"/><rect width="5.99" height="1.7" x=".12" y="9.23" fill="currentColor" rx=".27" transform="rotate(-45 3.107 10.083)"/><rect width="5.99" height="1.7" x="4.89" y="14.04" fill="currentColor" rx=".27" transform="rotate(-45 7.877 14.887)"/><g fill="currentColor"><rect width="1.7" height="1.7" x="9.19" y="4.75" rx=".38" transform="rotate(-45 10.04 5.601)"/><rect width="1.7" height="1.7" x="11.59" y="2.35" rx=".38" transform="rotate(-45 12.435 3.2)"/><rect width="1.7" height="1.7" x="11.59" y="7.15" rx=".38" transform="rotate(-45 12.442 7.996)"/><path d="m13.91 5.33.66-.66a.38.38 0 0 1 .54 0l.66.66a.38.38 0 0 1 0 .54l-.66.66a.38.38 0 0 1-.54 0l-.66-.66a.38.38 0 0 1 0-.54"/></g></svg>