<svg xmlns="http://www.w3.org/2000/svg" id="b6c98345-0c39-4f6f-b933-5283deff5690" width="18" height="18" viewBox="0 0 18 18"><defs><linearGradient id="ea6f59fb-306a-4655-8ef5-c9678451765c" x1="1.3" x2="17.5" y1="8.6" y2="8.6" gradientUnits="userSpaceOnUse"><stop offset=".1" stop-color="#54aef0"/><stop offset="1" stop-color="#1988d9"/></linearGradient><linearGradient id="a331b263-1cab-4091-811f-6e285c35c115" x1=".5" x2="8.11" y1="13.7" y2="13.7" gradientTransform="rotate(45 4.304 13.703)" gradientUnits="userSpaceOnUse"><stop offset="0" stop-color="#b3b2b3"/><stop offset="1" stop-color="#979797"/></linearGradient><linearGradient id="ef7d2642-0773-456f-ac58-3a1abd750919" x1=".5" x2="5.72" y1="10.08" y2="10.08" gradientTransform="rotate(45 3.115 10.08)" gradientUnits="userSpaceOnUse"><stop offset="0" stop-color="#b3b2b3"/><stop offset="1" stop-color="#979797"/></linearGradient><linearGradient id="a156353f-4d63-4962-9d1c-839eceb7590b" x1="5.28" x2="10.49" y1="14.89" y2="14.89" gradientTransform="rotate(45 7.88 14.894)" gradientUnits="userSpaceOnUse"><stop offset="0" stop-color="#b3b2b3"/><stop offset="1" stop-color="#979797"/></linearGradient></defs><title>Icon-analytics-145</title><path fill="url(#ea6f59fb-306a-4655-8ef5-c9678451765c)" d="m1.47 1.47 15.06 15.06a.57.57 0 0 0 1-.4V1.07a.57.57 0 0 0-.6-.57H1.87a.57.57 0 0 0-.4.97"/><path id="f582129e-1fd7-440c-a5c4-799b0a032e7c" fill="#50e6ff" d="m5.53 5.53 6.94 6.94 5-5v-6.4a.57.57 0 0 0-.54-.57h-6.37Z"/><rect id="b55df55b-2ac6-4f92-ba84-9d8becd854da" width="9.37" height="1.7" x="-.38" y="12.85" fill="url(#a331b263-1cab-4091-811f-6e285c35c115)" rx=".27" transform="rotate(-45 4.307 13.706)"/><rect id="a1d88672-156d-4d85-8ddb-d3d546338b0e" width="5.99" height="1.7" x=".12" y="9.23" fill="url(#ef7d2642-0773-456f-ac58-3a1abd750919)" rx=".27" transform="rotate(-45 3.107 10.083)"/><rect id="a50d2abb-ca8f-44bb-a92d-5a79f17e98d0" width="5.99" height="1.7" x="4.89" y="14.04" fill="url(#a156353f-4d63-4962-9d1c-839eceb7590b)" rx=".27" transform="rotate(-45 7.877 14.887)"/><rect id="abef2dbd-e94f-4bb4-9503-d2b3cf2041a9" width="1.7" height="1.7" x="9.19" y="4.75" fill="#fff" rx=".38" transform="rotate(-45 10.04 5.601)"/><rect id="a157044f-57ca-43a1-b77d-760bafa34854" width="1.7" height="1.7" x="11.59" y="2.35" fill="#fff" rx=".38" transform="rotate(-45 12.435 3.2)"/><rect id="b637d7ff-a1d5-4533-b34f-12a87620ff68" width="1.7" height="1.7" x="11.59" y="7.15" fill="#fff" rx=".38" transform="rotate(-45 12.442 7.996)"/><path id="f613147f-9647-4c5d-a52a-663abb19234f" fill="#fff" d="m13.91 5.33.66-.66a.38.38 0 0 1 .54 0l.66.66a.38.38 0 0 1 0 .54l-.66.66a.38.38 0 0 1-.54 0l-.66-.66a.38.38 0 0 1 0-.54"/></svg>