<svg height="18" viewBox="0 0 18 18" width="18" xmlns="http://www.w3.org/2000/svg" xmlns:xlink="http://www.w3.org/1999/xlink"><linearGradient id="a" gradientUnits="userSpaceOnUse" x1="1.3" x2="17.5" y1="8.6" y2="8.6"><stop offset=".1" stop-color="#54aef0"/><stop offset="1" stop-color="#1988d9"/></linearGradient><linearGradient id="b"><stop offset="0" stop-color="#b3b2b3"/><stop offset="1" stop-color="#979797"/></linearGradient><linearGradient id="c" gradientTransform="matrix(.70710678 .70710678 -.70710678 .70710678 10.950097 .970128)" gradientUnits="userSpaceOnUse" x1=".5" x2="8.11" xlink:href="#b" y1="13.7" y2="13.7"/><linearGradient id="d" gradientTransform="matrix(.70710678 .70710678 -.70710678 .70710678 8.039999 .749726)" gradientUnits="userSpaceOnUse" x1=".5" x2="5.72" xlink:href="#b" y1="10.08" y2="10.08"/><linearGradient id="e" gradientTransform="matrix(.70710678 .70710678 -.70710678 .70710678 12.839647 -1.20965)" gradientUnits="userSpaceOnUse" x1="5.28" x2="10.49" xlink:href="#b" y1="14.89" y2="14.89"/><path d="m1.47 1.47 15.06 15.06a.57.57 0 0 0 1-.4v-15.06a.57.57 0 0 0 -.6-.57h-15.06a.57.57 0 0 0 -.4.97" fill="url(#a)"/><path d="m5.53 5.53 6.94 6.94 5-5v-6.4a.57.57 0 0 0 -.54-.57h-6.37z" fill="#50e6ff"/><rect fill="url(#c)" height="1.7" rx=".27" transform="matrix(.70710678 -.70710678 .70710678 .70710678 -8.430114 7.059903)" width="9.37" x="-.38" y="12.85"/><rect fill="url(#d)" height="1.7" rx=".27" transform="matrix(.70710678 -.70710678 .70710678 .70710678 -6.219738 5.150223)" width="5.99" x=".12" y="9.23"/><rect fill="url(#e)" height="1.7" rx=".27" transform="matrix(.70710678 -.70710678 .70710678 .70710678 -8.219579 9.930181)" width="5.99" x="4.89" y="14.04"/><g fill="#fff"><rect height="1.7" rx=".38" transform="matrix(.70710678 -.70710678 .70710678 .70710678 -1.019857 8.739847)" width="1.7" x="9.19" y="4.75"/><rect height="1.7" rx=".38" transform="matrix(.70710678 -.70710678 .70710678 .70710678 1.379385 9.730131)" width="1.7" x="11.59" y="2.35"/><rect height="1.7" rx=".38" transform="matrix(.70710678 -.70710678 .70710678 .70710678 -2.009848 11.139797)" width="1.7" x="11.59" y="7.15"/><path d="m13.91 5.33.66-.66a.38.38 0 0 1 .54 0l.66.66a.38.38 0 0 1 0 .54l-.66.66a.38.38 0 0 1 -.54 0l-.66-.66a.38.38 0 0 1 0-.54"/></g></svg>