<svg height="64" viewBox="0 0 64 64" width="64" xmlns="http://www.w3.org/2000/svg"><g fill="none" fill-rule="evenodd"><path d="m0 0h64v64h-64z" fill="#ed7100"/><path d="m39.86 47.468a1 1 0 0 1 -.241 1.393l-7.035 4.95a1 1 0 0 1 -.582.189h-.006a1 1 0 0 1 -.582-.189l-7.033-4.95a1 1 0 1 1 1.15-1.636l5.469 3.848v-7.073a1 1 0 1 1 2 0v7.073l5.469-3.848a1 1 0 0 1 1.393.243m-16.862-6.035-4 2.401-4-2.4v-4.868l4-2.4 4 2.4zm2 .567v-6c0-.35-.185-.677-.486-.858l-5-3a1 1 0 0 0 -1.029 0l-5 3a1 1 0 0 0 -.485.858v6a1 1 0 0 0 .485.857l5 3a1 1 0 0 0 1.03 0l5-3a1 1 0 0 0 .485-.857m-12-13v-7.983a1 1 0 0 1 .123-.497l.017-.03v-.002h.001a1 1 0 0 1 .38-.366l7.028-3.992a1.001 1.001 0 0 1 .99 1.74l-5.519 3.133 5.476 3.13a1 1 0 0 1 -.992 1.735l-5.504-3.145v6.277a1 1 0 0 1 -2 0m36 12.433-4 2.401-4-2.4v-4.868l4-2.4 4 2.4zm1.514-6.29-5-3a1 1 0 0 0 -1.03 0l-5 3a1 1 0 0 0 -.484.857v6a1 1 0 0 0 .485.857l5 3a1 1 0 0 0 1.029 0l5-3a1 1 0 0 0 .486-.857v-6c0-.35-.185-.677-.486-.858m-21.514-7.459 8.033 4.382-8.033 5.113zm-1.511-2.544a1 1 0 0 0 -.489.861v13a1 1 0 0 0 1.537.843l11-7a.998.998 0 0 0 -.06-1.72l-10.999-6a1 1 0 0 0 -.989.017m23.51-4.123v7.983a1 1 0 0 1 -2 0v-6.277l-5.503 3.145a1 1 0 0 1 -1.364-.372 1 1 0 0 1 .372-1.364l5.48-3.132-5.48-3.132a1 1 0 0 1 -.372-1.364 1 1 0 0 1 1.364-.372l6.985 3.991a1 1 0 0 1 .38.37l.013.021v.001a1 1 0 0 1 .126.502m-23-6.45 4-2.4 4 2.4v4.857l-4 2.32-4-2.32zm-1.502 6.298 5 2.9a1 1 0 0 0 1.004 0l5-2.9c.308-.179.498-.509.498-.865v-6c0-.35-.185-.677-.486-.858l-5-3a1 1 0 0 0 -1.029 0l-5 3a1 1 0 0 0 -.485.858v6a1 1 0 0 0 .498.865" fill="#fff"/></g></svg>