<svg viewBox="0 0 24 24" xmlns="http://www.w3.org/2000/svg"><path d="m0 3.393v12.949h3.662v-3.44h2c1.8-.002 4.084-.395 5.276-2.183q.703-1.073.703-2.535 0-1.479-.704-2.551-.703-1.092-1.998-1.666c-.85-.382-1.836-.574-3.02-.574zm3.662 2.886h2.035q1.147 0 1.701.5.574.498.575 1.405-.001.888-.575 1.388-.554.5-1.7.5h-2.037v-3.792zm8.906 4.301 3.764 5.012-3.764 5.015h3.92l1.795-2.388 1.795 2.388h3.922l-7.512-10.027zm7.51 0-1.369 1.834 1.969 2.61 3.322-4.444zm-10.982 2.332s-1.496.628-3.467.604l2.115 2.826h3.92z"/></svg>