<svg xmlns="http://www.w3.org/2000/svg" viewBox="0 0 486 500"><defs><mask id="a"><path fill="#fff" d="M0 0h486v500H0z"/><path d="M169.48 410.71h-34.25l-21.5-40.47c-.77-1.42-1.36-2.54-1.77-3.37-.35-.88-.74-1.89-1.15-3.01h-.35q-.795 2.13-1.5 3.45c-.47.89-1.03 1.98-1.68 3.28l-22.3 40.11h-32.3l38.76-63.58-36.1-63.4h33.8l19.11 36.13q1.155 2.22 1.95 3.9.885 1.59 1.77 3.81h.35l1.95-4.07c.53-1 1.24-2.33 2.12-3.98l19.82-35.77h32.21l-36.63 62.43 37.7 64.55z"/></mask></defs><g fill="currentColor" mask="url(#a)"><path d="M69.43 159.72c0-34.52 27.98-62.5 62.49-62.5h354.09v361.11c0 23.01-18.65 41.67-41.66 41.67H152.74c-46.01 0-83.31-37.31-83.31-83.33z"/><path fill-opacity=".7" d="M69.43 159.72c0-34.52 27.98-62.5 62.49-62.5h354.09v361.11c0 23.01-18.65 41.67-41.66 41.67H152.74c-46.01 0-83.31-37.31-83.31-83.33z"/><path d="M69.43 229.17c0-34.52 27.98-62.5 62.49-62.5h187.46c-23.01 0-41.66 18.66-41.66 41.67v83.33c0 23.01-18.65 41.67-41.66 41.67h-83.31c-46.01 0-83.31 37.31-83.31 83.33v-187.5z"/><path fill-opacity=".3" d="M69.43 229.17c0-34.52 27.98-62.5 62.49-62.5h187.46c-23.01 0-41.66 18.66-41.66 41.67v83.33c0 23.01-18.65 41.67-41.66 41.67h-83.31c-46.01 0-83.31 37.31-83.31 83.33v-187.5z"/><path d="M69.43 83.33C69.43 37.31 106.73 0 152.74 0h166.63v166.67H152.74c-46.01 0-83.31 37.31-83.31 83.33z"/><path d="M69.43 83.33C69.43 37.31 106.73 0 152.74 0h166.63v166.67H152.74c-46.01 0-83.31 37.31-83.31 83.33z"/><path d="M69.43 83.33C69.43 37.31 106.73 0 152.74 0h166.63v166.67H152.74c-46.01 0-83.31 37.31-83.31 83.33z"/><rect width="208.29" height="166.67" x="277.71" rx="41.66"/><rect width="222.17" height="222.22" y="236.11" rx="45.13"/><rect width="222.17" height="222.22" y="236.11" fill-opacity=".3" rx="45.13"/></g></svg>