<svg viewBox="0 0 486 500" xmlns="http://www.w3.org/2000/svg" xmlns:xlink="http://www.w3.org/1999/xlink"><radialGradient id="a" cx="-746.66" cy="781.44" gradientTransform="matrix(-28.3259567 -29.80762615 -23.11916305 21.9798624 -2596.390663 -38900.31002)" gradientUnits="userSpaceOnUse" r="13.89"><stop offset=".06" stop-color="#379539"/><stop offset=".42" stop-color="#297c2d"/><stop offset=".7" stop-color="#15561c"/></radialGradient><radialGradient id="b" cx="-773.19" cy="771.25" gradientTransform="matrix(-11.97612 -11.58137 -8.95853 9.26806 -2155.12 -15858.88)" gradientUnits="userSpaceOnUse" r="13.89"><stop offset="0" stop-color="#073b10"/><stop offset=".99" stop-color="#084a13" stop-opacity="0"/></radialGradient><radialGradient id="c" cx="-824.11" cy="810.99" gradientTransform="matrix(-9.02 0 0 19.09 -7120.4 -15378.69)" gradientUnits="userSpaceOnUse" r="13.89"><stop offset=".29" stop-color="#4eb43b"/><stop offset="1" stop-color="#72cc61" stop-opacity="0"/></radialGradient><radialGradient id="d" cx="-769.14" cy="808.9" gradientTransform="matrix(-16.90770839 -13.6818095 13.64113148 -16.8634407 -23523.36808 3309.702499)" gradientUnits="userSpaceOnUse" r="13.89"><stop offset=".44" stop-color="#79e96d"/><stop offset="1" stop-color="#d0eb76"/></radialGradient><radialGradient id="e" cx="-675.64" cy="793.28" gradientTransform="matrix(15.99196 15.99755 45.54153 -45.54797 -25315.85 47178.18)" gradientUnits="userSpaceOnUse" r="13.89"><stop offset="0" stop-color="#20a85e"/><stop offset=".94" stop-color="#09442a"/></radialGradient><radialGradient id="f" cx="-657.62" cy="853.99" gradientTransform="matrix(0 11.2 12.9 0 -10902.85 7734.8)" gradientUnits="userSpaceOnUse" r="13.89"><stop offset=".58" stop-color="#33a662" stop-opacity="0"/><stop offset=".97" stop-color="#98f0b0"/></radialGradient><linearGradient id="g" gradientTransform="matrix(1 0 0 -1 0 502)" gradientUnits="userSpaceOnUse" x1="69.43" x2="260.84" y1="210.33" y2="210.33"><stop offset="0" stop-color="#52d17c"/><stop offset=".33" stop-color="#4aa647"/></linearGradient><linearGradient id="h" gradientTransform="matrix(1 0 0 -1 0 502)" gradientUnits="userSpaceOnUse" x1="194.4" x2="194.4" y1="335.33" y2="161.68"><stop offset="0" stop-color="#29852f"/><stop offset=".5" stop-color="#4aa647" stop-opacity="0"/></linearGradient><linearGradient id="i" gradientTransform="matrix(1 0 0 -1 0 502)" gradientUnits="userSpaceOnUse" x1="80.49" x2="311.45" y1="297.22" y2="497.54"><stop offset="0" stop-color="#66d052"/><stop offset="1" stop-color="#85e972"/></linearGradient><linearGradient id="j" gradientTransform="matrix(1 0 0 -1 0 502)" gradientUnits="userSpaceOnUse" x1="182.11" x2="69.43" y1="377" y2="377"><stop offset=".18" stop-color="#c0e075" stop-opacity="0"/><stop offset="1" stop-color="#d1eb95"/></linearGradient><path d="m69.43 159.72c0-34.52 27.98-62.5 62.49-62.5h354.09v361.11c0 23.01-18.65 41.67-41.66 41.67h-291.61c-46.01 0-83.31-37.31-83.31-83.33z" fill="url(#a)"/><path d="m69.43 159.72c0-34.52 27.98-62.5 62.49-62.5h354.09v361.11c0 23.01-18.65 41.67-41.66 41.67h-291.61c-46.01 0-83.31-37.31-83.31-83.33z" fill="url(#b)" fill-opacity=".7"/><path d="m69.43 229.17c0-34.52 27.98-62.5 62.49-62.5h187.46c-23.01 0-41.66 18.66-41.66 41.67v83.33c0 23.01-18.65 41.67-41.66 41.67h-83.31c-46.01 0-83.31 37.31-83.31 83.33v-187.5z" fill="url(#g)"/><path d="m69.43 229.17c0-34.52 27.98-62.5 62.49-62.5h187.46c-23.01 0-41.66 18.66-41.66 41.67v83.33c0 23.01-18.65 41.67-41.66 41.67h-83.31c-46.01 0-83.31 37.31-83.31 83.33v-187.5z" fill="url(#h)" fill-opacity=".3"/><path d="m69.43 83.33c0-46.02 37.3-83.33 83.31-83.33h166.63v166.67h-166.63c-46.01 0-83.31 37.31-83.31 83.33z" fill="url(#i)"/><path d="m69.43 83.33c0-46.02 37.3-83.33 83.31-83.33h166.63v166.67h-166.63c-46.01 0-83.31 37.31-83.31 83.33z" fill="url(#c)"/><path d="m69.43 83.33c0-46.02 37.3-83.33 83.31-83.33h166.63v166.67h-166.63c-46.01 0-83.31 37.31-83.31 83.33z" fill="url(#j)"/><rect fill="url(#d)" height="166.67" rx="41.66" width="208.29" x="277.71"/><rect fill="url(#e)" height="222.22" rx="45.13" width="222.17" y="236.11"/><rect fill="url(#f)" fill-opacity=".3" height="222.22" rx="45.13" width="222.17" y="236.11"/><path d="m169.48 410.71h-34.25l-21.5-40.47c-.77-1.42-1.36-2.54-1.77-3.37-.35-.88-.74-1.89-1.15-3.01h-.35q-.795 2.13-1.5 3.45c-.47.89-1.03 1.98-1.68 3.28l-22.3 40.11h-32.3l38.76-63.58-36.1-63.4h33.8l19.11 36.13q1.155 2.22 1.95 3.9.885 1.59 1.77 3.81h.35l1.95-4.07c.53-1 1.24-2.33 2.12-3.98l19.82-35.77h32.21l-36.63 62.43 37.7 64.55z" fill="#fff"/></svg>