<svg xmlns="http://www.w3.org/2000/svg" width="24" height="24">
  <defs>
    <mask id="ko">
      <rect width="24" height="24" fill="white"/>
      <path fill="black" d="M21 4h-9v2h8v12h-8v2h9a1 1 0 0 0 1-1V5a1 1 0 0 0-1-1M9 12v-2l3-1V7L7 9v3c0 2.38 3 5 5 5v-2c-.89 0-3-1.38-3-3"/>
      <path fill="black" d="M15 12c0 1.62-2.1 3-3 3v2c2 0 5-2.62 5-5V9l-5-2v2l3 1z"/>
      <path fill="black" d="M12.59 12.8a.86.86 0 0 1-1.19 0l-1-1.22.6-.58 1 1.09 3-3 .6.59z"/>
    </mask>
  </defs>
  <g>
    <path fill="currentColor" mask="url(#ko)" d="M4 18V6h8V4H3a1 1 0 0 0-1 1v14a1 1 0 0 0 1 1h9v-2z"/>
  </g>
</svg>