<svg height="24" width="24" xmlns="http://www.w3.org/2000/svg"><path d="m0 0h24v24h-24z" fill="none"/><path d="m0 0h24v24h-24z" fill="none"/><path d="m4 18v-12h8v-2h-9a1 1 0 0 0 -1 1v14a1 1 0 0 0 1 1h9v-2z" fill="#4285f4"/><path d="m21 4h-9v2h8v12h-8v2h9a1 1 0 0 0 1-1v-14a1 1 0 0 0 -1-1" fill="#669df6"/><path d="m9 12v-2l3-1v-2l-5 2v3c0 2.38 3 5 5 5v-2c-.89 0-3-1.38-3-3" fill="#669df6"/><path d="m15 12c0 1.62-2.1 3-3 3v2c2 0 5-2.62 5-5v-3l-5-2v2l3 1z" fill="#aecbfa"/><path d="m12.59 12.8a.86.86 0 0 1 -1.19 0l-1-1.22.6-.58 1 1.09 3-3 .6.59z" fill="#4285f4"/></svg>