<svg viewBox="0 0 128 128" xmlns="http://www.w3.org/2000/svg" xmlns:xlink="http://www.w3.org/1999/xlink"><linearGradient id="a" gradientUnits="userSpaceOnUse" x1="-.000028" x2="-.000028" y1=".000362" y2="127.014203"><stop offset="0" stop-color="#a56de2"/><stop offset="1" stop-color="#7239b3"/></linearGradient><linearGradient id="b" gradientUnits="userSpaceOnUse" x1="-13.699" x2="-13.699" y1="-7.4863" y2="156.3"><stop offset="0" stop-color="#8b58c9"/><stop offset="1" stop-color="#743fb3"/></linearGradient><linearGradient id="c" gradientUnits="userSpaceOnUse" x1="-13.699" x2="-13.699" y1="-7.4863" y2="151.61"><stop offset="0" stop-color="#7548b2"/><stop offset="1" stop-color="#6639a4"/></linearGradient><path d="m0 0h128v128h-128z" fill="url(#a)"/><path d="m-25.893-7.8867c-35.819 9.2093-66.614 18.75-71.867 53.304-.85257 5.8569-.58397 11.676 1.4138 17.254 2.2505 5.7634 7.281 9.1527 15.094 10.168 3.0652.41474 14.252 2.4867 13.982-2.4668-.28711-1.6671-1.3096-3.5167-2.125-5.4414-1.2985-2.8396-1.1971-5.9027-1.1875-8.7598.44691-10.028 3.0823-18.524 7.9199-25.479 3.8097-5.4089 8.6706-9.8002 14.572-13.184l3.1403 133.11c0 1.953 1.2883 2.9908 3.8278 2.9908h29.879c2.1547 0 2.9957-.74962 3.7059-2.6541 19.178-51.179 38.064-102.47 57.312-153.62.25494-2.5923-2.4151-3.5708-4.312-4.2288l-14.037.0000069c-2.4692-.084152-3.9208 1.3454-4.4238 2.8262l-34.529 100.46-2.172-95.891v-6.1875l-4-1.8125h-4c-2.6649-.26756-5.3951-.40039-8.1934-.40039z" fill="url(#b)" transform="matrix(.44444 0 0 .44444 72.688 35.556)"/><path d="m-40.88 149.61-3.2977-139.81q-14.391 5.3964-22.485 16.889-7.9946 11.492-7.9946 28.581 0 8.2943 2.2984 12.492.49996.7996.49996 1.3992-16.389 0-20.487-10.493-1.3992-3.7976-1.3992-9.3937 0-10.293 6.3958-19.787 6.4958-9.5939 16.689-16.989 23.285-16.389 48.767-16.389 4.1974 0 8.1947.40135l1.799 125.92 43.072-125.32h14.291l-56.865 152.5z" fill="url(#c)" transform="matrix(.44444 0 0 .44444 72.688 35.556)"/><path d="m54.52 100.27-1.4656-62.137q-6.3959 2.3984-9.9935 7.5062-3.5531 5.1078-3.5531 12.703 0 3.6864 1.0215 5.5519.2222.35538.2222.62184-7.2842 0-9.1053-4.6636-.62184-1.6878-.62184-4.175 0-4.5749 2.8426-8.7943 2.887-4.2639 7.4174-7.5506 10.349-7.2842 21.674-7.2842 1.8655 0 3.6421.17838l.79954 55.964 19.143-55.697h6.3514l-25.273 67.777z" fill="#fff"/></svg>