<svg xmlns="http://www.w3.org/2000/svg" width="24" height="24"><path fill="none" d="M0 0h24v24H0z"/><path fill="currentColor" d="M18 12h2v4h-2zm-7 0h2v4h-2zm-7 0h2v4H4z"/><path fill="currentColor" d="M13 11h-2V7h2z"/><path fill="currentColor" d="M6 2h12v5H6z"/><path fill="currentColor" d="M12 2h6v5h-6z"/><path fill="currentColor" d="M16 16h6v6h-6zM2 16h6v6H2z"/><path fill="currentColor" d="M5 16h3v6H5z"/><path fill="currentColor" d="M9 16h6v6H9z"/><path fill="currentColor" d="M12 16h3v6h-3zm7 0h3v6h-3z"/></svg>