<svg height="24" width="24" xmlns="http://www.w3.org/2000/svg"><path d="m0 0h24v24h-24z" fill="none"/><path d="m18 12h2v4h-2zm-7 0h2v4h-2zm-7 0h2v4h-2z" fill="#669df6"/><path d="m13 11h-2v-4h2z" fill="#4285f4"/><path d="m4 11h16v2h-16z" fill="#669df6"/><path d="m6 2h12v5h-12z" fill="#aecbfa"/><path d="m12 2h6v5h-6z" fill="#669df6"/><path d="m16 16h6v6h-6zm-14 0h6v6h-6z" fill="#aecbfa"/><path d="m5 16h3v6h-3z" fill="#669df6"/><path d="m9 16h6v6h-6z" fill="#aecbfa"/><path d="m12 16h3v6h-3zm7 0h3v6h-3z" fill="#669df6"/></svg>