<svg xmlns="http://www.w3.org/2000/svg" width="24" height="24"><g data-name="Product Icons"><g data-name="colored-32/load-balancing"><path d="M0 0h24v24H0z" fill="none"/><path d="M18 12h2v4h-2zm-7 0h2v4h-2zm-7 0h2v4H4z" fill="#669df6"/><path id="Fill-2" d="M13 11h-2V7h2z" fill="#4285f4"/><path d="M4 11h16v2H4z" fill="#669df6"/><path d="M6 2h12v5H6z" fill="#aecbfa"/><path d="M12 2h6v5h-6z" fill="#669df6"/><path d="M16 16h6v6h-6zM2 16h6v6H2z" fill="#aecbfa"/><path d="M5 16h3v6H5z" fill="#669df6"/><path d="M9 16h6v6H9z" fill="#aecbfa"/><path d="M12 16h3v6h-3zm7 0h3v6h-3z" fill="#669df6"/></g></g></svg>