<svg height="18" viewBox="0 0 18 18" width="18" xmlns="http://www.w3.org/2000/svg" xmlns:xlink="http://www.w3.org/1999/xlink"><linearGradient id="a" gradientUnits="userSpaceOnUse" x1="8.992" x2="8.992" y1="16.975" y2=".242"><stop offset="0" stop-color="#b3b2b3"/><stop offset=".31" stop-color="#9e9e9e"/><stop offset=".54" stop-color="#949494"/></linearGradient><g fill="#fff"><circle cx="10.1" cy="8.05" r="1.43"/><circle cx="12.5" cy="12.31" r="1.12"/><circle cx="8.04" cy="11.54" r=".97"/><circle cx="7.35" cy="4.18" r="1.2"/><circle cx="4.13" cy="8.59" r=".97"/></g><path d="m12.76 12.08-2.42-4.23-.24.13.2-.14-2.74-3.9-.5.36 2.43 3.45-5.38.45.05.62 5.33-.45-1.77 2.94.53.32 1.82-3.02 2.16 3.77.54-.3z" fill="#989898"/><g fill="#32bedd"><circle cx="10.09" cy="8.06" r="1.42"/><circle cx="7.35" cy="4.18" r="1.2"/><circle cx="4.13" cy="8.59" r=".97"/><circle cx="8.04" cy="11.54" r=".97"/><circle cx="12.5" cy="12.31" r="1.12"/></g><g fill="#198ab3"><circle cx="15.05" cy="3.85" r="1.42"/><circle cx="3.17" cy="3.85" r="1.42"/><circle cx="9.01" cy="16.33" r="1.42"/></g><path d="m4.94 3.12a6.88 6.88 0 0 1 8.29.12 1.92 1.92 0 0 1 1-1.15 8.43 8.43 0 0 0 -10.42-.09 1.94 1.94 0 0 1 1.13 1.12m11.66 1.88a1.9 1.9 0 0 1 -1.34.76 6.84 6.84 0 0 1 .67 3 6.92 6.92 0 0 1 -5.22 6.7 1.9 1.9 0 0 1 .24.91 1.8 1.8 0 0 1 -.13.65 8.45 8.45 0 0 0 5.77-12.02zm-9.5 11.32a1.95 1.95 0 0 1 .23-.9 6.91 6.91 0 0 1 -4.56-9.69 2 2 0 0 1 -1-.53 1.7 1.7 0 0 1 -.3-.4 8.47 8.47 0 0 0 5.74 12.2 1.9 1.9 0 0 1 -.12-.68z" fill="url(#a)"/></svg>