<svg height="30" viewBox="0 0 141 30" width="141" xmlns="http://www.w3.org/2000/svg"><g fill="none" fill-rule="evenodd"><path d="m9.95 2.364h-1.485q-.833 0-1.628.309a3.7 3.7 0 0 0 -1.411.981q-.615.674-.995 1.782-.38 1.11-.38 2.746 0 1.564.344 2.619.344 1.054.94 1.709.598.654 1.411.927a5.4 5.4 0 0 0 1.719.273h1.483zm-2.317 13.673-4.413 9.964h-3.22l4.848-10.655q-1.7-.873-2.75-2.563t-1.048-4.601q0-2.035.597-3.582.597-1.545 1.628-2.563a6.7 6.7 0 0 1 2.405-1.528 8.3 8.3 0 0 1 2.894-.509h4.161v26h-2.785v-9.963z" fill="#f00"/><g fill="#000"><path d="m73.118 26.256q-2.931 0-4.595-2.346-1.665-2.345-1.664-7.073 0-2.145.416-3.891.415-1.745 1.23-2.964a5.8 5.8 0 0 1 2.026-1.89q1.212-.673 2.804-.673 1.23 0 1.99.272.76.274 1.375.673l-.398 2.69a6.1 6.1 0 0 0 -1.357-.89 3.7 3.7 0 0 0 -1.646-.382q-1.52 0-2.496 1.71-.977 1.708-.977 5.2 0 3.455.814 5.327.814 1.873 2.55 1.873 1.05 0 1.81-.346.758-.345 1.266-.781l.651 2.108a6.2 6.2 0 0 1 -1.628 1q-.905.383-2.17.383m-14.509-9.383v9.128h-2.822v-18.328h2.822v8.473l4.378-8.473h2.858l-4.522 8.618 5.173 9.71h-3.075zm-10.745-7.127q-1.302 0-1.845 1.473t-.688 3.945h4.668q0-1.163-.108-2.164a8.7 8.7 0 0 0 -.343-1.727q-.237-.727-.652-1.127a1.43 1.43 0 0 0 -1.031-.4m5.065 15.018a6.9 6.9 0 0 1 -1.99 1.092q-1.122.4-2.496.4-2.822 0-4.45-2.2t-1.629-6.456q0-2.219.307-4.073t.977-3.219 1.718-2.127q1.05-.763 2.497-.763 1.121 0 2.062.454t1.592 1.473 1.013 2.636q.362 1.62.362 3.946v1.564h-7.598q0 3.127.85 4.727t2.55 1.6q1.196 0 2.117-.419.924-.417 1.466-.817zm-16.498-14.8h-3.147v.327q0 1.455-.054 3.182a51 51 0 0 1 -.236 3.51 42 42 0 0 1 -.506 3.508 17 17 0 0 1 -.905 3.182h4.848zm4.234 19.637h-2.533v-3.6h-7.815v3.6h-2.532v-5.928h1.121q.614-1.453.977-3.218.362-1.763.56-3.636.2-1.873.254-3.819a134 134 0 0 0 .054-3.763v-1.564h8.467v16h1.447zm-14.509-21.928v18.328h-2.786v-8.218h-4.197v8.217h-2.822v-18.327h2.822v7.782h4.197v-7.782z"/><path d="m89.507 1.491v24.51h-1.809v-24.51h-5.101v-1.491h12.047v1.49z"/><path d="m98.226 24.983q1.266 0 2.153-1.055.886-1.054 1.393-2.545v-5.055h-1.954q-2.28 0-3.365 1.091t-1.085 3.49q0 1.965.778 3.019t2.08 1.055m4.052 1.017q-.108-.363-.235-.927-.126-.564-.2-1.546-.65 1.31-1.627 2.073-.976.764-2.352.764-1.844 0-3.003-1.4-1.157-1.4-1.157-3.91 0-2.945 1.556-4.454 1.555-1.51 4.522-1.51h1.99v-2.29q0-2.109-.76-3.055-.76-.945-2.28-.946a4.64 4.64 0 0 0 -2.17.527 4.5 4.5 0 0 0 -1.664 1.473l-.47-1.636q.542-.727 1.646-1.291 1.102-.564 2.659-.563 2.28 0 3.491 1.29t1.212 4.019v10q0 .945.109 1.909.108.964.289 1.473z"/><path d="m109.044 26h-1.701v-18.326h1.7v8.619l6.115-8.619h1.664l-6.006 8.51 6.44 9.818h-1.881l-6.331-9.491z"/><path d="m124.058 24.874q.867 0 1.538-.291a4.5 4.5 0 0 0 1.14-.691 4 4 0 0 0 .94-.982l.542 1.418a4 4 0 0 1 -1.012 1.018q-.507.402-1.32.71-.816.308-1.864.309-2.75 0-4.251-2.492-1.502-2.49-1.502-7 0-4.545 1.484-7.054t4.305-2.51q1.41 0 2.388.49.976.492 1.592 1.22l-.47 1.818a6.6 6.6 0 0 0 -1.484-1.455q-.868-.618-2.026-.618-2.1 0-3.093 2.11-.996 2.108-.995 6 0 3.781.977 5.89.976 2.11 3.11 2.11"/><path d="m139.325 13.237q0-.727.036-1.327t.109-1.183h-.109a9 9 0 0 1 -.434 1.183q-.254.564-.543 1.181l-5.933 12.91h-1.447v-18.328h1.592v12.728q0 .727-.036 1.345-.037.62-.109 1.237h.109q.18-.618.433-1.219.254-.6.543-1.218l5.934-12.873h1.483v18.328h-1.628z"/></g></g></svg>