<svg viewBox="0 0 24 24" xmlns="http://www.w3.org/2000/svg" fill="#82BEA0"><path d="m8.17 11.335a.106.106 0 0 0 -.173.022l-6.243 12.109a.105.105 0 0 0 .032.133c.04.029.101.027.138-.012l8.89-9.11a.107.107 0 0 0 .005-.144l-2.649-3zm9.76-3.519-17.784-7.426c-.105-.044-.193.088-.118.17l12.034 12.874a.11.11 0 0 0 .075.034.102.102 0 0 0 .075-.03l5.748-5.448a.106.106 0 0 0 -.032-.174zm6.047.547-2.188-4.405a.21.21 0 0 0 -.189-.117h-8.77a.212.212 0 0 0 -.08.408l10.96 4.405a.211.211 0 0 0 .268-.29z"/></svg>