<svg viewBox="0 0 24 24" xmlns="http://www.w3.org/2000/svg"><path clip-rule="evenodd" d="m8.128 14.099c.592 0 1.77-.033 3.398-.703 1.897-.781 5.672-2.2 8.395-3.656 1.905-1.018 2.74-2.366 2.74-4.18a4.56 4.56 0 0 0 -4.561-4.56h-10.551a6.55 6.55 0 0 0 -6.549 6.55c0 3.617 2.745 6.549 7.128 6.549" fill="#39594d" fill-rule="evenodd"/><path clip-rule="evenodd" d="m9.912 18.61a4.39 4.39 0 0 1 2.705-4.052l3.323-1.38c3.361-1.394 7.06 1.076 7.06 4.715a5.104 5.104 0 0 1 -5.105 5.104l-3.597-.001a4.386 4.386 0 0 1 -4.386-4.387z" fill="#d18ee2" fill-rule="evenodd"/><path d="m4.776 14.962a3.775 3.775 0 0 0 -3.776 3.776v.489a3.776 3.776 0 0 0 7.551 0v-.49a3.775 3.775 0 0 0 -3.775-3.775" fill="#ff7759"/></svg>