<svg height="48" viewBox="0 0 48 48" width="48" xmlns="http://www.w3.org/2000/svg"><path d="m15 25.001h4v-2h-4zm-11 2h7v-7h-7zm8 2h-9a1 1 0 0 1 -1-1v-9a1 1 0 0 1 1-1h9a1 1 0 0 1 1 1v9a1 1 0 0 1 -1 1m31.2-2-3.2-5.11-3.2 5.11zm2.67 1.48a1 1 0 0 1 -.87.52h-10a1 1 0 0 1 -.851-1.53l5-8a1 1 0 0 1 1.702 0l5 8c.187.308.195.694.019 1.01m-2.87 12.52a3 3 0 1 0 -6 0 3 3 0 0 0 6 0m2 0a5 5 0 0 1 -9.899 1h-28.101a1 1 0 0 1 -1-1v-10h2v9h27.101a5 5 0 0 1 5.894-3.905 5 5 0 0 1 4.005 4.905m-23-16h4v-2h-4zm15-18a3 3 0 1 0 6 0 3 3 0 0 0 -6 0m-29 9h-2v-9a1 1 0 0 1 1-1h28.101a4.999 4.999 0 1 1 9.796 2 5 5 0 0 1 -9.796 0h-27.101zm21 9h4v-2h-4z" fill="#dd344c" fill-rule="evenodd"/></svg>