<svg fill="#eae7d6" viewBox="0 0 24 24" xmlns="http://www.w3.org/2000/svg"><path d="m21.379 18.017-.296 5.983h-18.259a.566.566 0 0 1 -.565-.565v-.035c0-.313.081-.62.233-.895l10.498-18.715c.841-1.5.897-2.713-1.712-2.713s-5.386.909-6.442 5.077a.565.565 0 0 1 -1.112-.17l.295-5.984h16.894c-1.74.798-3.273 1.813-4.565 3.038-1.578 1.497-2.699 3.125-4.876 6.451a82 82 0 0 0 -3.462 5.799 81 81 0 0 0 -2.743 5.566c.764-1.08 2.02-2.507 3.96-3.425.958-.453 1.703-.602 2.083-.7a6.4 6.4 0 0 0 1.366-.534l-2.251 4.015c-.842 1.5.3 2.713 2.91 2.713 2.612 0 5.875-.909 6.93-5.077a.565.565 0 0 1 1.112.17zm-13.757-.482c.694-.67 1.83-1.239 3.377-1.693l.07-.021c3.007-.9 6.723-5.328 7.952-9.478l.12-.417c.328-1.172.824-2.941 2.265-4.796q.163-.209.335-.41c-1.749.814-3.294 1.852-4.609 3.097-1.047.992-1.997 2.293-3.72 4.657-1.352 1.855-2.385 3.437-3.22 4.713-.395.602-1.126 1.744-1.998 3.148-.265.427-.627 1.02-.97 1.594.124-.124.257-.258.398-.394"/></svg>