<svg viewBox="0 0 128 128" xmlns="http://www.w3.org/2000/svg" xmlns:xlink="http://www.w3.org/1999/xlink"><linearGradient id="a"><stop offset="0" stop-color="#f40a0b"/><stop offset="1" stop-color="#f5e710"/></linearGradient><linearGradient id="b" gradientUnits="userSpaceOnUse" x1="29.728908" x2="29.728908" xlink:href="#a" y1="124.032647" y2=".851362"/><linearGradient id="c" gradientUnits="userSpaceOnUse" x1="78.036492" x2="78.036492" xlink:href="#a" y1="128.138702" y2=".909445"/><g clip-rule="evenodd" fill-rule="evenodd"><path d="m27.62 99.429c1.207 9.57 6.408 16.781 14.37 23.858l-2.869-1.447c-22.625-9.731-38.441-32.223-38.441-58.387 0-33.241 25.654-60.88 58.842-63.346-33.188 2.467-58.843 30.105-58.843 63.346.001-33.241 25.655-60.88 58.843-63.346-38.013 7.506-74.445 51.417-31.902 99.323" fill="#111"/><path d="m114.397 43.214c-2.869-20.562-18.658-34.957-47.423-43.214 33.938 1.501 60.719 29.488 60.719 63.453 0 35.091-26.432 62.22-60.772 63.775-3.244.161-6.488-.402-9.651-1.394v-71.576q1.568-2.372 0-4.745v-15.226h3.512c-1.368-.912-2.52-1.609-3.512-2.038v-4.396c18.417 7.023 26.968 7.828 25.681 2.332 1.609 4.53.215 6.595-4.182 6.14-5.066-.778-8.203-.43-9.436 1.071q13.632 6.756 14.557 13.11c.857 7.13-2.52 14.985-10.134 23.59-4.798 5.978-2.305 12.331 5.442 13.35 24.047-1.18 35.788-15.95 35.199-44.232m-57.127 82.62c-7.345-2.278-13.94-6.863-17.157-10.053-5.683-5.897-9.543-15.334-10.964-28.952 0-.08-.027-.16-.027-.241v-4.61c.885-10.938 8.176-18.632 21.929-23.055 3.11-1.528 5.2-3.083 6.219-4.665zm0-76.32c-.43-.698-1.1-1.395-1.93-2.118-.75-.751-2.36-1.502-4.799-2.225-5.576-.161-8.605 1.233-9.088 4.208-9.463-4.208-9.73-9.007-.83-14.368 1.742-.67 4.289-.912 7.666-.778-1.394-6.166.965-8.551 7.104-7.104.644.241 1.26.483 1.877.724v4.396c-2.815-1.313-3.914-.643-3.324 2.038h3.324z" fill="#111"/><path d="m27.248 100.173c1.207 9.57 6.407 16.782 14.37 23.86l-2.87-1.449c-22.624-9.73-38.44-32.222-38.44-58.386 0-33.241 25.655-60.88 58.842-63.346-33.188 2.466-58.843 30.105-58.843 63.346 0-33.241 25.655-60.88 58.842-63.346-38.013 7.506-74.444 51.417-31.9 99.321" fill="url(#b)"/><path d="m114.024 43.958c-2.868-20.561-18.658-34.957-47.422-43.213 33.938 1.5 60.719 29.488 60.719 63.453 0 35.09-26.432 62.22-60.773 63.775-3.244.16-6.487-.402-9.65-1.394v-71.576q1.568-2.373 0-4.745v-15.227h3.511c-1.367-.911-2.52-1.608-3.511-2.037v-4.396c18.416 7.023 26.968 7.827 25.681 2.332 1.608 4.53.215 6.594-4.182 6.139-5.067-.778-8.203-.43-9.436 1.072q13.631 6.756 14.556 13.109c.858 7.13-2.52 14.985-10.133 23.59-4.798 5.978-2.305 12.332 5.442 13.35 24.046-1.179 35.788-15.95 35.198-44.232m-57.126 82.62c-7.346-2.278-13.94-6.862-17.157-10.052-5.683-5.898-9.544-15.334-10.964-28.952 0-.08-.027-.16-.027-.241v-4.611c.884-10.938 8.176-18.631 21.928-23.055 3.11-1.528 5.2-3.082 6.22-4.664zm0-76.32c-.43-.697-1.1-1.394-1.93-2.118-.751-.75-2.36-1.501-4.8-2.225-5.575-.16-8.604 1.233-9.087 4.209-9.463-4.209-9.731-9.007-.83-14.369 1.742-.67 4.288-.911 7.666-.777-1.394-6.166.965-8.552 7.104-7.104.643.241 1.26.482 1.877.724v4.396c-2.815-1.314-3.914-.643-3.325 2.037h3.325z" fill="url(#c)"/></g></svg>