<svg fill="none" viewBox="0 0 32 32" xmlns="http://www.w3.org/2000/svg" xmlns:xlink="http://www.w3.org/1999/xlink"><clipPath id="a"><path d="m0 0h32v31.2h-32z"/></clipPath><g clip-path="url(#a)"><path d="m32 0h-32v31.2h32z" fill="#28092e"/><g clip-rule="evenodd" fill-rule="evenodd"><path d="m12.175 6.35c-.363 0-.713.188-.875.488l-7.263 12.237a.87.87 0 0 0 -.087.725c.062.25.225.45.45.587l12.45 6.95c.15.076.325.125.475.125.363 0 .688-.187.875-.487l7.262-12.237a.95.95 0 0 0 .113-.738.96.96 0 0 0 -.45-.588l-12.462-6.937a.95.95 0 0 0 -.488-.125m5.15 21.638c-.262 0-.525-.063-.75-.188l-12.45-6.95c-.363-.2-.6-.525-.713-.913a1.4 1.4 0 0 1 .163-1.137l7.263-12.237c.275-.463.787-.75 1.337-.75.262 0 .525.062.75.187l12.45 6.95c.363.2.6.525.712.913.113.387.05.787-.162 1.137l-7.25 12.238a1.64 1.64 0 0 1 -1.35.75" fill="#f9d9ff"/><path d="m14.725 12.2a4.61 4.61 0 0 0 -4.612 4.613 4.61 4.61 0 0 0 4.612 4.612 4.61 4.61 0 0 0 4.612-4.613 4.617 4.617 0 0 0 -4.612-4.612m2.5 4.925-4.063 2.188c-.262.162-.475.024-.487-.275v-4.388c0-.312.212-.437.487-.275l4.063 2.2c.287.15.287.4 0 .55" fill="#e873ff"/></g></g></svg>