<svg viewBox="0 0 24 24" xmlns="http://www.w3.org/2000/svg"><path d="m10.45 14.57a1.383 1.383 0 0 0 1.383-1.384v-2.378a.833.833 0 0 1 .834-.833h2.684a.037.037 0 0 0 .036-.038v-.476a.036.036 0 0 0 -.036-.036h-3.234a1.383 1.383 0 0 0 -1.384 1.383v2.38a.834.834 0 0 1 -.833.834h-2.647a.036.036 0 0 0 -.036.037v.476a.036.036 0 0 0 .036.036zm6.045-3.213v-1.896a.036.036 0 0 1 .036-.036h7.308a.037.037 0 0 1 .037.036v.476a.04.04 0 0 1 -.037.038h-6.21a.036.036 0 0 0 -.036.036v1.236a.395.395 0 0 0 .397.397h4.622a1.465 1.465 0 0 1 0 2.925h-6.08a.036.036 0 0 1 -.037-.036v-.474a.036.036 0 0 1 .036-.037h5.53a.916.916 0 1 0 -.007-1.83h-4.726a.833.833 0 0 1 -.833-.835m-10.846.287a.835.835 0 0 0 0-1.67h-5.612a.037.037 0 0 1 -.037-.036v-.476a.036.036 0 0 1 .037-.036h6.152a1.384 1.384 0 0 1 0 2.767h-4.256a.833.833 0 0 0 -.833.834v1.513a.036.036 0 0 1 -.037.036h-1.026a.036.036 0 0 1 -.037-.04v-1.513a1.383 1.383 0 0 1 1.384-1.378z"/></svg>