<svg height="74" viewBox="0 0 74 74" width="74" xmlns="http://www.w3.org/2000/svg"><g fill="none" fill-rule="evenodd"><path d="m5 5h64v64h-64z" fill="#7aa116"/><path d="m1 1h72v72h-72z" stroke="#879196" stroke-width="2"/><path d="m15 40h5v-2h-5zm-9 0h5v-2h-5zm9-5h5v-2h-5zm-9 0h5v-2h-5zm9-6h5v-2h-5zm-9 0h5v-2h-5zm20 9h3v-9h-3zm4-11h-5a1 1 0 0 0 -1 1v11a1 1 0 0 0 1 1h5a1 1 0 0 0 1-1v-11a1 1 0 0 0 -1-1m-23-4h22v-5h-22zm-1-7a1 1 0 0 0 -1 1v7a1 1 0 0 0 1 1h24a1 1 0 0 0 1-1v-7a1 1 0 0 0 -1-1zm28 26h-32v-30h8v1a1 1 0 0 0 1 1h14a1 1 0 0 0 1-1v-1h8zm-22.618-40h8.618c1.85 0 4 1.311 4 3v7h-12v-7c0-1.313-.245-2.284-.618-3m-5.132 4.094v-1.125c0-1.24.666-2.969 1.75-2.969.495 0 2 0 2 3v1.094zm28.75 3.906h-9v-5c0-2.947-3.162-5-6-5h-12c-2.316 0-3.75 2.579-3.75 4.969v2.125a1 1 0 0 0 1 1h4.75v1.906h-9a1 1 0 0 0 -1 1v32a1 1 0 0 0 1 1h34a1 1 0 0 0 1-1v-32a1 1 0 0 0 -1-1" fill="#fff" transform="translate(19 15)"/></g></svg>