<svg xmlns="http://www.w3.org/2000/svg" width="74" height="74" viewBox="0 0 74 74"><title>Icon-Architecture-Category/48/Cloud-Financial-Management_48</title><g id="Icon-Architecture-Category/48/Cloud-Financial-Management_48" fill="none" fill-rule="evenodd" stroke="none" stroke-width="1"><path id="Rectangle" fill="#7aa116" d="M5 5h64v64H5z"/><path id="#879196-Border-Copy-3" stroke="#879196" stroke-width="2" d="M1 1h72v72H1z"/><g id="Icon-Category/48/Cloud-Financial-Management_48" fill="#fff" transform="translate(19 15)"><path id="Fill-1" d="M15 40h5v-2h-5zm-9 0h5v-2H6zm9-5h5v-2h-5zm-9 0h5v-2H6zm9-6h5v-2h-5zm-9 0h5v-2H6zm20 9h3v-9h-3zm4-11h-5a1 1 0 0 0-1 1v11a1 1 0 0 0 1 1h5a1 1 0 0 0 1-1V28a1 1 0 0 0-1-1M7 23h22v-5H7zm-1-7a1 1 0 0 0-1 1v7a1 1 0 0 0 1 1h24a1 1 0 0 0 1-1v-7a1 1 0 0 0-1-1zm28 26H2V12h8v1a1 1 0 0 0 1 1h14a1 1 0 0 0 1-1v-1h8zM11.382 2H20c1.85 0 4 1.311 4 3v7H12V5c0-1.313-.245-2.284-.618-3M6.25 6.094V4.969C6.25 3.729 6.916 2 8 2c.495 0 2 0 2 3v1.094zM35 10h-9V5c0-2.947-3.162-5-6-5H8C5.684 0 4.25 2.579 4.25 4.969v2.125a1 1 0 0 0 1 1H10V10H1a1 1 0 0 0-1 1v32a1 1 0 0 0 1 1h34a1 1 0 0 0 1-1V11a1 1 0 0 0-1-1"/></g></g></svg>