<svg height="18" viewBox="0 0 18 18" width="18" xmlns="http://www.w3.org/2000/svg" xmlns:xlink="http://www.w3.org/1999/xlink"><linearGradient id="a" gradientUnits="userSpaceOnUse" x1="7.699" x2="7.699" y1="9.22" y2="13.711"><stop offset=".23" stop-color="#5ea0ef"/><stop offset=".32" stop-color="#5b9fee"/><stop offset=".48" stop-color="#509aeb"/><stop offset=".57" stop-color="#3f92e6"/><stop offset=".75" stop-color="#2688df"/><stop offset=".93" stop-color="#127fd9"/></linearGradient><linearGradient id="b" gradientUnits="userSpaceOnUse" x1="9.927" x2="9.927" y1="11.091" y2="15.582"><stop offset=".02" stop-color="#5ea0ef"/><stop offset=".14" stop-color="#5b9fee"/><stop offset=".23" stop-color="#5b9fee"/><stop offset=".34" stop-color="#509aeb"/><stop offset=".44" stop-color="#3f92e6"/><stop offset=".63" stop-color="#2688df"/><stop offset=".93" stop-color="#127fd9"/></linearGradient><path d="m8.252 2.521h1.122v7.073h-1.122z" fill="#7a7a7a"/><path d="m10.459 2.3a1.647 1.647 0 1 1 -1.646-1.65 1.646 1.646 0 0 1 1.646 1.65" fill="#1490df"/><path d="m8.588 9.22h-1.8a2.246 2.246 0 0 0 -.348 4.461 2.4 2.4 0 0 1 .022-.835 1.418 1.418 0 0 1 .326-2.8h1.8a1.422 1.422 0 0 1 0 2.844h-.494a1.1 1.1 0 0 0 -.1.45 1 1 0 0 0 .071.374h.527a2.246 2.246 0 1 0 0-4.491z" fill="url(#a)"/><path d="m11.182 11.121a3 3 0 0 1 .026.344 2.3 2.3 0 0 1 -.049.491 1.418 1.418 0 0 1 -.325 2.8h-1.8a1.423 1.423 0 0 1 0-2.845h.494a1.04 1.04 0 0 0 .1-.449 1 1 0 0 0 -.071-.374h-.52a2.246 2.246 0 0 0 0 4.491h1.8a2.246 2.246 0 0 0 .348-4.461z" fill="url(#b)"/><path d="m5.58 16.525-.412.415a.28.28 0 0 1 -.4 0l-4.607-4.6a.566.566 0 0 1 0-.8l.416-.412 5 4.992a.276.276 0 0 1 0 .391z" fill="#50e6ff"/><path d="m5.082 7.02.46.46a.28.28 0 0 1 0 .4l-4.917 4.929-.461-.457a.566.566 0 0 1 0-.8l4.521-4.532a.28.28 0 0 1 .397 0" fill="#1490df"/><path d="m12.417 16.851a.28.28 0 0 1 -.006-.392h.006l5-4.989.416.416a.566.566 0 0 1 0 .8l-4.611 4.588a.277.277 0 0 1 -.391.006l-.006-.005z" fill="#50e6ff"/><path d="m13.311 7.349 4.525 4.536a.563.563 0 0 1 0 .793l-.461.46-4.921-4.932a.29.29 0 0 1 0-.4l.46-.456a.28.28 0 0 1 .397-.001" fill="#1490df"/></svg>