<svg height="18" viewBox="0 0 18 18" width="18" xmlns="http://www.w3.org/2000/svg" xmlns:xlink="http://www.w3.org/1999/xlink"><linearGradient id="a" gradientUnits="userSpaceOnUse" x1="5.681" x2="5.681" y1="-.862" y2="15.008"><stop offset="0" stop-color="#5ea0ef"/><stop offset="1" stop-color="#0078d4"/></linearGradient><path d="m7.3 7.019h10.041a.66.66 0 0 1 .659.658v7.981a.66.66 0 0 1 -.659.658h-4.11a.1.1 0 0 0 -.067.023l-2.108 1.615a.219.219 0 0 1 -.353-.174v-1.354a.11.11 0 0 0 -.109-.11h-3.294a.66.66 0 0 1 -.658-.658v-7.981a.66.66 0 0 1 .658-.658" fill="#50e6ff"/><path d="m11.361.659v7.98a.66.66 0 0 1 -.661.661h-3.3a.11.11 0 0 0 -.109.11v1.355a.22.22 0 0 1 -.353.174l-2.102-1.619a.1.1 0 0 0 -.067-.02h-4.11a.66.66 0 0 1 -.659-.661v-7.98a.66.66 0 0 1 .659-.659h10.041a.66.66 0 0 1 .661.659" fill="url(#a)"/><path d="m8.1 4.26a3.5 3.5 0 0 1 -.07.7 3.7 3.7 0 0 1 -.2.667 3.3 3.3 0 0 1 -.329.615 4 4 0 0 1 -.336.426.156.156 0 0 1 -.226 0l-.031-.03a.16.16 0 0 1 0-.22 3 3 0 0 0 .3-.378 3.2 3.2 0 0 0 .477-1.153 3.2 3.2 0 0 0 0-1.262 3 3 0 0 0 -.181-.6 3.3 3.3 0 0 0 -.3-.553 3 3 0 0 0 -.3-.38.16.16 0 0 1 0-.22l.032-.031a.156.156 0 0 1 .225 0 3.6 3.6 0 0 1 .336.428 3.5 3.5 0 0 1 .326.615 4 4 0 0 1 .2.667 3.3 3.3 0 0 1 .077.709m-1.176-.96a2.5 2.5 0 0 0 -.431-.693.155.155 0 0 0 -.226 0l-.031.031a.154.154 0 0 0 -.01.211 2.14 2.14 0 0 1 0 2.825.155.155 0 0 0 .01.212l.031.031a.155.155 0 0 0 .226 0 2.6 2.6 0 0 0 .431-.693 2.5 2.5 0 0 0 0-1.916zm-1.238.3a1.1 1.1 0 0 1 .143.248 1.1 1.1 0 0 1 0 .824 1 1 0 0 1 -.142.245.156.156 0 0 0 .014.205l.03.03a.16.16 0 0 0 .235-.012 1.4 1.4 0 0 0 .2-.334 1.4 1.4 0 0 0 .106-.547 1.5 1.5 0 0 0 -.109-.547 1.4 1.4 0 0 0 -.193-.332.16.16 0 0 0 -.236-.013l-.034.033a.153.153 0 0 0 -.014.2m-2-.413h-.372a.314.314 0 0 0 -.314.313v1.518a.315.315 0 0 0 .314.314h.374a.31.31 0 0 1 .222.092l.937.935a.16.16 0 0 0 .111.046.187.187 0 0 0 .187-.187v-3.918a.19.19 0 0 0 -.189-.189.16.16 0 0 0 -.112.046l-.934.943a.32.32 0 0 1 -.222.088zm11.525 7.745a.831.831 0 1 1 -.83.83.83.83 0 0 1 .83-.83m-3.48.837a.831.831 0 1 0 .831-.83.83.83 0 0 0 -.831.83m-2.649 0a.831.831 0 1 0 .831-.83.83.83 0 0 0 -.831.83" fill="#fff"/></svg>