<svg height="64" viewBox="0 0 64 64" width="64" xmlns="http://www.w3.org/2000/svg"><g fill="none" fill-rule="evenodd"><path d="m0 0h64v64h-64z" fill="#dd344c"/><path d="m28.722 30.981a1 1 0 0 1 .261.877l-.589 3.14 3.092-1.855a.99.99 0 0 1 1.029 0l3.093 1.855-.59-3.146a1 1 0 0 1 .261-.876l2.661-2.779-3.585-.532a1 1 0 0 1 -.736-.518l-1.627-3.043-1.667 3.054c-.15.274-.419.463-.729.51l-3.539.536zm-2.704 5.834.904-4.82-3.643-3.798a.999.999 0 0 1 .572-1.681l4.955-.752 2.316-4.243c.176-.321.513-.521.878-.521h.004c.367.002.704.205.878.528l2.264 4.232 5.001.743a1 1 0 0 1 .575 1.681l-3.645 3.804.906 4.828a.999.999 0 0 1 -1.497 1.041l-4.486-2.691-4.485 2.691a.99.99 0 0 1 -1.086-.036 1 1 0 0 1 -.411-1.006m-14.018-19.798h39.997v-4.017h-39.997zm42 34.983a.997.997 0 0 1 -1 1h-5v-2h4l-.002-31.983h-39.998v31.983h29v2h-30a1 1 0 0 1 -1-1v-40a1 1 0 0 1 1-1h41.997a1 1 0 0 1 1 1zm-35-5h5v-2h-5zm8 0h11v-2h-11zm-8-4.003h5v-2h-5zm8 .003h18v-2h-18z" fill="#fff"/></g></svg>