<svg xmlns="http://www.w3.org/2000/svg" id="svg13826" width="68.165" height="66.143" viewBox="0 0 18.035 17.5"><g id="layer1" transform="translate(-.993 -1.174)"><g id="g70" transform="translate(16.902 -2.699)scale(1.01489)"><path id="path3055" d="M-6.85 4.272a1.12 1.11 0 0 0-.428.109l-5.852 2.796a1.12 1.11 0 0 0-.606.753l-1.444 6.282a1.12 1.11 0 0 0 .152.85 1.12 1.11 0 0 0 .064.089l4.05 5.037a1.12 1.11 0 0 0 .876.417l6.496-.001a1.12 1.11 0 0 0 .875-.417l4.049-5.038a1.12 1.11 0 0 0 .216-.939L.152 7.93a1.12 1.11 0 0 0-.605-.753L-6.307 4.38a1.12 1.11 0 0 0-.542-.109" fill="#326ce5" fill-opacity="1" stroke="none" stroke-width="0" stroke-miterlimit="4" stroke-dasharray="none" stroke-opacity="1"/><path id="path3054-2-9" d="M-6.852 3.818a1.181 1.172 0 0 0-.452.115l-6.18 2.951a1.181 1.172 0 0 0-.638.795l-1.524 6.63a1.181 1.172 0 0 0 .16.9 1.181 1.172 0 0 0 .067.093l4.276 5.317a1.181 1.172 0 0 0 .924.44h6.858a1.181 1.172 0 0 0 .923-.44L1.837 15.3a1.181 1.172 0 0 0 .228-.99L.54 7.677a1.181 1.172 0 0 0-.64-.795l-6.178-2.95a1.181 1.172 0 0 0-.573-.115m.003.455a1.12 1.11 0 0 1 .542.108l5.853 2.795a1.12 1.11 0 0 1 .606.753l1.446 6.281a1.12 1.11 0 0 1-.216.94l-4.05 5.037a1.12 1.11 0 0 1-.875.417l-6.496.001a1.12 1.11 0 0 1-.875-.417l-4.05-5.037a1.12 1.11 0 0 1-.064-.088 1.12 1.11 0 0 1-.152-.851l1.444-6.281a1.12 1.11 0 0 1 .605-.753l5.853-2.797a1.12 1.11 0 0 1 .429-.108" style="line-height:normal;-inkscape-font-specification:Sans;text-indent:0;text-align:start;text-decoration-line:none;text-transform:none;marker:none" color="#000" font-style="normal" font-variant="normal" font-weight="400" font-stretch="normal" font-size="medium" font-family="Sans" text-decoration="none" letter-spacing="normal" word-spacing="normal" writing-mode="lr-tb" direction="ltr" baseline-shift="baseline" text-anchor="start" display="inline" overflow="visible" visibility="visible" fill="#fff" fill-opacity="1" fill-rule="nonzero" stroke="none" stroke-width="0" stroke-miterlimit="4" stroke-dasharray="none"/></g><path id="path6473" d="M5.42 10.527c0 .376 2.103.682 4.698.682s4.698-.306 4.698-.682v1.845c0 .376-2.103.682-4.698.682s-4.698-.306-4.698-.682z" fill="#326ce5" fill-opacity="1" fill-rule="evenodd" stroke="none" stroke-width=".20757428" stroke-linecap="square" stroke-miterlimit="10"/><path id="path6475" d="M5.42 10.527c0-.377 2.103-.682 4.698-.682s4.698.305 4.698.682c0 .376-2.103.682-4.698.682s-4.698-.306-4.698-.682" fill="#326ce5" fill-opacity="1" fill-rule="evenodd" stroke="none" stroke-width=".20757428" stroke-linecap="square" stroke-miterlimit="10"/><path id="path6479" d="M5.42 8.609h0c0 .377 2.103.682 4.698.682s4.698-.305 4.698-.682v1.845c0 .377-2.103.682-4.698.682s-4.698-.305-4.698-.682z" fill="#fff" fill-opacity="1" fill-rule="evenodd" stroke="#eee" stroke-width=".20757429" stroke-linecap="square" stroke-miterlimit="10" stroke-opacity="1"/><path id="path6481" d="M5.42 8.217c0-.377 2.103-.682 4.698-.682s4.698.305 4.698.682-2.103.682-4.698.682-4.698-.305-4.698-.682" fill="#326ce5" fill-opacity="1" fill-rule="evenodd" stroke="none" stroke-width=".20757428" stroke-linecap="square" stroke-miterlimit="10"/><path id="path6487" d="M5.42 5.662c0-.377 2.103-.682 4.698-.682s4.698.305 4.698.682c0 .376-2.103.682-4.698.682S5.42 6.038 5.42 5.662" fill="#326ce5" fill-opacity="1" fill-rule="evenodd" stroke="none" stroke-width=".20757428" stroke-linecap="square" stroke-miterlimit="10"/><g id="g3347" transform="translate(-.108 .73)"><path id="path6485" d="M5.42 5.662c0 .376 2.103.682 4.698.682s4.698-.306 4.698-.682v1.845c0 .376-2.103.682-4.698.682S5.42 7.883 5.42 7.507z" fill="#326ce5" fill-opacity="1" fill-rule="evenodd" stroke="none" stroke-width=".20757428" stroke-linecap="square" stroke-miterlimit="10"/><g id="g3348"><path id="path6477" d="M14.816 10.881c0 .377-2.103.682-4.698.682s-4.698-.305-4.698-.682 2.103-.682 4.698-.682 4.698.305 4.698.682v1.845c0 .377-2.103.682-4.698.682s-4.698-.305-4.698-.682v-1.845" fill="none" fill-rule="evenodd" stroke="#fff" stroke-width=".41499999" stroke-linecap="butt" stroke-linejoin="round" stroke-miterlimit="10" stroke-dasharray="1.66000002,.415" stroke-dashoffset="0" stroke-opacity="1"/><path id="path6483" d="M14.816 7.864c0 .377-2.103.682-4.698.682S5.42 8.241 5.42 7.864s2.103-.682 4.698-.682 4.698.305 4.698.682v1.845c0 .377-2.103.682-4.698.682S5.42 10.086 5.42 9.71V7.864" fill="none" fill-rule="evenodd" stroke="#fff" stroke-width=".41499999" stroke-linecap="butt" stroke-linejoin="round" stroke-miterlimit="10" stroke-dasharray="none" stroke-opacity="1"/><path id="path6489" d="M14.816 5.662c0 .376-2.103.682-4.698.682S5.42 6.038 5.42 5.662s2.103-.682 4.698-.682 4.698.305 4.698.682v1.845c0 .376-2.103.682-4.698.682S5.42 7.883 5.42 7.507V5.662" fill="none" fill-rule="evenodd" stroke="#fff" stroke-width=".41514859" stroke-linecap="butt" stroke-linejoin="round" stroke-miterlimit="10" stroke-dasharray="1.66059433,.41514858" stroke-dashoffset="0" stroke-opacity="1"/></g></g></g></svg>