<svg height="64" viewBox="0 0 64 64" width="64" xmlns="http://www.w3.org/2000/svg"><g fill="none" fill-rule="evenodd"><path d="m0 0h64v64h-64z" fill="#ed7100"/><path d="m15 29h-2v-7c0-.363.197-.698.515-.874l9-5 .97 1.748-8.485 4.714zm36 0h-2v-6.412l-8.486-4.724.972-1.747 9 5.009a1 1 0 0 1 .514.874zm-24.496 21.868-13-7.435a1 1 0 0 1 -.504-.868v-7.565h2v6.985l12.496 7.147zm10.992 0-.992-1.736 12.496-7.147v-6.985h2v7.565c0 .359-.192.69-.504.868zm-9.496-29.545 4 1.6 4-1.6v-5.646l-4-1.6-4 1.6zm-6.83 6.71 10.831 5.83 10.829-5.83-8.098-4.05-1.732.694v3.323h-2v-3.323l-1.732-.693zm-.282 8.848 11.111 5.983 11.113-5.984-5.371-3.836-4.741 2.554.001 2.402h-2l-.001-2.403-4.741-2.553zm10.113 16.119-.001-8.402-12.475-6.718a.998.998 0 0 1 -.106-1.694l5.878-4.198-5.771-3.108a.998.998 0 0 1 .027-1.775l8.23-4.115-.154-.061a1 1 0 0 1 -.629-.93v-7c0-.408.249-.775.629-.928l5-2c.238-.095.504-.095.742 0l5 2c.38.153.629.52.629.929v7c0 .409-.249.776-.629.929l-.154.06 8.23 4.116a1.001 1.001 0 0 1 .028 1.775l-5.772 3.108 5.878 4.198a1 1 0 0 1 -.107 1.694l-12.474 6.717.001 8.403z" fill="#fff"/></g></svg>