<svg xmlns="http://www.w3.org/2000/svg" width="18" height="18" viewBox="0 0 18 18"><path fill="currentColor" d="M.5 5.788h17v9.478a.57.57 0 0 1-.568.568H1.068a.57.57 0 0 1-.568-.568z"/><path fill="currentColor" d="m3.848 10.283.347-.346 2.731 2.739a.157.157 0 0 1 0 .222l-.347.346a.157.157 0 0 1-.222 0l-2.51-2.518a.314.314 0 0 1 0-.444z"/><path fill="currentColor" d="m4.19 11.074-.347-.347a.314.314 0 0 1 0-.444l2.562-2.554a.157.157 0 0 1 .222 0l.346.347a.157.157 0 0 1 0 .222z"/><path fill="currentColor" d="m11.224 13.247-.347-.346a.157.157 0 0 1 0-.222l2.734-2.743.347.346a.314.314 0 0 1 0 .444l-2.513 2.521a.157.157 0 0 1-.222 0z"/><g fill="currentColor"><path d="m10.824 8.078.346-.347a.157.157 0 0 1 .222 0l2.56 2.553a.314.314 0 0 1 .002.444l-.346.347-2.782-2.773a.157.157 0 0 1-.002-.224"/><rect width=".806" height="7.634" x="8.547" y="6.598" rx=".112" transform="rotate(17.752 8.95 10.416)"/></g></svg>