<svg height="18" viewBox="0 0 18 18" width="18" xmlns="http://www.w3.org/2000/svg" xmlns:xlink="http://www.w3.org/1999/xlink"><linearGradient id="a" gradientUnits="userSpaceOnUse" x1="9" x2="9" y1="15.834" y2="5.788"><stop offset="0" stop-color="#0078d4"/><stop offset=".502" stop-color="#4093e6"/><stop offset=".775" stop-color="#5ea0ef"/></linearGradient><linearGradient id="b" gradientTransform="matrix(.70810572 .70610643 -.70610643 .70810572 9.78011 -.364561)" gradientUnits="userSpaceOnUse" x1="3.754" x2="6.975" y1="11.614" y2="11.614"><stop offset="0" stop-color="#5ea0ef"/><stop offset=".372" stop-color="#9fc6f5"/><stop offset=".8" stop-color="#e4effc"/><stop offset="1" stop-color="#fff"/></linearGradient><linearGradient id="c" gradientTransform="matrix(-.70810572 .70610643 -.70610643 -.70810572 29.528518 11.085334)" gradientUnits="userSpaceOnUse" x1="10.83" x2="14.05" y1="11.614" y2="11.614"><stop offset="0" stop-color="#fff"/><stop offset=".2" stop-color="#e4effc"/><stop offset=".628" stop-color="#9fc6f5"/><stop offset="1" stop-color="#5ea0ef"/></linearGradient><path d="m.5 5.788h17v9.478a.57.57 0 0 1 -.568.568h-15.864a.57.57 0 0 1 -.568-.568z" fill="url(#a)"/><path d="m1.071 2.166h15.858a.57.57 0 0 1 .568.568v3.054h-16.997v-3.054a.57.57 0 0 1 .571-.568" fill="#0078d4"/><path d="m5.244 9.632h.49v3.868a.157.157 0 0 1 -.157.157h-.49a.157.157 0 0 1 -.157-.157v-3.555a.314.314 0 0 1 .314-.314z" fill="url(#b)" transform="matrix(.70810572 -.70610643 .70610643 .70810572 -6.666643 7.165066)"/><path d="m4.19 11.074-.347-.347a.314.314 0 0 1 0-.444l2.562-2.554a.157.157 0 0 1 .222 0l.346.347a.157.157 0 0 1 0 .222z" fill="#f2f2f2"/><path d="m12.228 9.632h.49a.157.157 0 0 1 .157.157v3.873h-.49a.314.314 0 0 1 -.314-.314v-3.56a.157.157 0 0 1 .157-.157z" fill="url(#c)" transform="matrix(-.70810572 -.70610643 .70610643 -.70810572 13.081181 28.701573)"/><g fill="#f2f2f2"><path d="m10.824 8.078.346-.347a.157.157 0 0 1 .222 0l2.56 2.553a.314.314 0 0 1 .002.444l-.346.347-2.782-2.773a.157.157 0 0 1 -.002-.224"/><rect height="7.634" rx=".112" transform="matrix(.95238516 .30489754 -.30489754 .95238516 3.601966 -2.232877)" width=".806" x="8.547" y="6.598"/></g></svg>