<svg height="64" viewBox="0 0 64 64" width="64" xmlns="http://www.w3.org/2000/svg"><g fill="none" fill-rule="evenodd"><path d="m0 0h64v64h-64z" fill="#01a88d"/><path d="m43 54h6v-1.931h-6zm-28-11.948h12v-2.002h-12zm13-5.008h6v-2.003h-6zm-13 0h11v-2.003h-11zm0-15.024h10v-2.004h-10zm34.114 22.317c-.434.303-.788.59-1.052 1.301q-.062.168-.062.349v3.005h-1v-6.01h2v-1.931h-6v1.931h2v6.01h-1v-3.005q0-.181-.062-.349c-.264-.71-.618-.998-1.053-1.3-2.144-1.49-3.215-4.038-2.794-6.653.466-2.903 2.923-5.241 5.85-5.577h.118c2.927.336 5.384 2.674 5.85 5.577.42 2.615-.65 5.164-2.795 6.652m4.77-6.97c-.61-3.796-3.833-6.848-7.665-7.256a1 1 0 0 0 -.106-.006h-.226a1 1 0 0 0 -.106.006c-3.832.408-7.055 3.46-7.665 7.256-.544 3.383.847 6.685 3.629 8.617.158.11.217.15.255.208v3.801a1 1 0 0 0 1 1.002h6a1 1 0 0 0 1-1.002v-3.8c.038-.059.097-.1.254-.21 2.783-1.931 4.174-5.233 3.63-8.616m-38.884-5.33h19v-2.004h-19zm7-5.01h12v-2.002h-12zm-7 0h5v-2.002h-5zm14-13.777 6.395 5.765h-6.395zm9 36.816h-26v-38.059l15-.004v8.013a1 1 0 0 0 1 1.002h9v10.016h2v-11.018h-.008a1 1 0 0 0 -.323-.744l-10-9.015a1 1 0 0 0 -.67-.247v-.01l-16.999.004a1 1 0 0 0 -1 1.002v40.061a1 1 0 0 0 1 1.002h28a1 1 0 0 0 1-1.002v-4.006h-2z" fill="#fff"/></g></svg>