<svg viewBox="0 0 128 128" xmlns="http://www.w3.org/2000/svg"><path d="m0 53.334v21.332h5.973v-21.332zm9.813 0v5.12h5.974v-5.12h-5.975zm9.814 0v21.332h10.217c3.308 0 5.996-2.961 5.996-6.613s-2.688-6.613-5.996-6.613h-4.235v-8.106zm24.758 0c-3.301 0-5.985 2.961-5.985 6.613v8.106c0 3.652 2.684 6.613 5.985 6.613h14.912c3.3 0 5.982-2.961 5.982-6.613s-2.681-6.613-5.982-6.613h-8.104v4.693h6.41c.937 0 1.694.769 1.694 1.707a1.69 1.69 0 0 1 -1.693 1.693h-11.528a1.69 1.69 0 0 1 -1.691-1.64v-7.813a1.69 1.69 0 0 1 1.691-1.613h5.117v.013h13.221v-5.146h-20.03zm23.883 0v5.143h19.255c.904 0 1.639.713 1.68 1.613v7.808a1.682 1.682 0 0 1 -1.68 1.64h-13.328v-8.089h-5.927v13.217h20.935c3.278 0 5.943-2.96 5.943-6.61 0-.054.002-.103 0-.158v-7.943c0-3.65-2.665-6.61-5.943-6.61h-6.404v-.011zm26.877 0 10.667 10.666-10.666 10.666h8.293l8.135-8.133 8.133 8.133h8.293l-10.666-10.666 10.666-10.666h-8.293l-8.133 8.133-8.135-8.133h-8.295zm-85.333 8.105v13.227h5.975v-13.226h-5.975zm15.797 4.694h2.54c.938 0 1.695.769 1.695 1.707a1.69 1.69 0 0 1 -1.696 1.693h-2.538v-3.4z" fill="#e74a45"/></svg>