<svg xmlns="http://www.w3.org/2000/svg" width="18" height="18" viewBox="0 0 18 18"><defs><linearGradient id="a" x1="2.447" x2="15.27" y1="9.339" y2="9.339" gradientTransform="matrix(1 0 0 -1 .143 19.5)" gradientUnits="userSpaceOnUse"><stop offset="0" stop-color="#005ba1"/><stop offset=".07" stop-color="#0060a9"/><stop offset=".36" stop-color="#0071c8"/><stop offset=".52" stop-color="#0078d4"/><stop offset=".64" stop-color="#0074cd"/><stop offset=".82" stop-color="#006abb"/><stop offset="1" stop-color="#005ba1"/></linearGradient></defs><path fill="currentColor" d="M9 5.14c-3.54 0-6.41-1-6.41-2.32v12.36c0 1.27 2.82 2.3 6.32 2.32H9c3.54 0 6.41-1 6.41-2.32V2.82c0 1.28-2.87 2.32-6.41 2.32"/><path fill="currentColor" d="M13.91 2.63c0 .82-2.2 1.48-4.91 1.48s-4.92-.66-4.92-1.47S6.28 1.16 9 1.16s4.91.66 4.91 1.47"/><path fill="currentColor" d="M9 3a11.7 11.7 0 0 0-3.9.57 11.5 11.5 0 0 0 3.9.54 11.5 11.5 0 0 0 3.89-.58A12 12 0 0 0 9 3"/><ellipse cx="14.592" cy="14.873" fill="currentColor" rx="3.089" ry="2.241" transform="rotate(-40.17 14.583 14.87)"/></svg>