<svg viewBox="0 0 24 24" xmlns="http://www.w3.org/2000/svg" fill="#D70008"><path d="m1.6956 9.46v12.794c0 .945.8847 1.709 1.7157 1.709h17.1573c.878 0 1.7157-.6098 1.7157-1.709v-12.7874c-2.3323.3753-4.6177.6233-6.863.7708v5.1471h3.4315l-6.8629 6.863-6.8628-6.863h3.4314v-5.0868c-2.339-.1207-4.6244-.3887-6.8428-.831h-.02v-.0068zm13.7258-9.4232v8.4177c2.2452-.1474 4.5306-.1675 6.8629-.5428.9383-.1474 1.7157-.8109 1.7157-1.8229v-3.8c0-1.012-.7841-1.6622-1.7157-1.8297-2.339-.429-4.6177-.2949-6.863-.4222zm-6.8629.0135c-2.3189.1407-4.5976.0267-6.8428.4087-.9383.1609-1.7157.8177-1.7157 1.8297v3.8001c0 1.012.7841 1.642 1.7157 1.823 2.2184.4423 4.5038.4758 6.8428.6031z"/></svg>