<svg xmlns="http://www.w3.org/2000/svg" xmlns:xlink="http://www.w3.org/1999/xlink" width="18" height="18" viewBox="0 0 18 18">
  <defs>
    <mask id="ko">
      <rect width="18" height="18" fill="white"/>
      <path fill="black" d="M10.551 3.862H7.41a.347.347 0 0 0-.347.347V7.35a.347.347 0 0 0 .347.35h3.141a.347.347 0 0 0 .349-.35V4.209a.347.347 0 0 0-.349-.347"/>
      <path fill="black" d="M10.551 3.862H7.41a.347.347 0 0 0-.347.347V7.35a.347.347 0 0 0 .347.35h3.141a.347.347 0 0 0 .349-.35V4.209a.347.347 0 0 0-.349-.347m-.3 2.96a.23.23 0 0 1-.23.23H7.938a.23.23 0 0 1-.23-.23V4.737a.23.23 0 0 1 .23-.23h2.085a.23.23 0 0 1 .23.23z"/>
      <path fill="black" d="M6.715 13.185V11a.28.28 0 0 0-.279-.279H4.251a.28.28 0 0 0-.279.279v2.186a.28.28 0 0 0 .279.279h2.185a.28.28 0 0 0 .279-.28"/>
      <path fill="black" d="M14.018 13.185V11a.28.28 0 0 0-.279-.279h-2.186a.28.28 0 0 0-.279.279v2.186a.28.28 0 0 0 .279.279h2.186a.28.28 0 0 0 .279-.28"/>
      <circle fill="black" cx="9" cy="9" r="8.863"/>
      <circle fill="black" cx="9" cy="9" r="7.386"/>
    </mask>
  </defs>
  <g>
    <path fill="currentColor" mask="url(#ko)" d="M9.432 8.665v-1.19h-.838v1.19a.17.17 0 0 1-.168.168H5.272a.335.335 0 0 0-.335.335v1.545h.838v-.856a.167.167 0 0 1 .167-.167h6.105a.167.167 0 0 1 .167.167v.874h.838V9.168a.335.335 0 0 0-.335-.335H9.6a.17.17 0 0 1-.168-.168"/>
  </g>
</svg>