<svg xmlns="http://www.w3.org/2000/svg" width="18" height="18" viewBox="0 0 18 18"><defs><linearGradient id="a305fb35-e815-4445-a184-35cb29dae4a9" x1="5.344" x2="5.344" y1="10.72" y2="13.464" gradientUnits="userSpaceOnUse"><stop offset=".001" stop-color="#76bc2d"/><stop offset="1" stop-color="#5e9624"/></linearGradient><linearGradient id="a936de98-dcd2-4eeb-b313-9efe1853d9b9" x1="12.646" x2="12.646" y1="10.72" y2="13.464" gradientUnits="userSpaceOnUse"><stop offset=".001" stop-color="#76bc2d"/><stop offset="1" stop-color="#5e9624"/></linearGradient><radialGradient id="f25af711-9b7f-4e33-92dc-aac4716591f3" cx="9.044" cy="8.913" r="10.514" gradientUnits="userSpaceOnUse"><stop offset=".183" stop-color="#5ea0ef"/><stop offset="1" stop-color="#0078d4"/></radialGradient></defs><title>Icon-555Artboard 1</title><g id="b2cb9dea-a960-4191-9d13-86e5f131cf43"><circle cx="9" cy="9" r="8.863" fill="url(#f25af711-9b7f-4e33-92dc-aac4716591f3)"/><circle cx="9" cy="9" r="7.386" fill="#fff"/><path fill="#0078d4" d="M9.432 8.665v-1.19h-.838v1.19a.17.17 0 0 1-.168.168H5.272a.335.335 0 0 0-.335.335v1.545h.838v-.856a.167.167 0 0 1 .167-.167h6.105a.167.167 0 0 1 .167.167v.874h.838V9.168a.335.335 0 0 0-.335-.335H9.6a.17.17 0 0 1-.168-.168"/><path fill="#fff" d="M10.551 3.862H7.41a.347.347 0 0 0-.347.347V7.35a.347.347 0 0 0 .347.35h3.141a.347.347 0 0 0 .349-.35V4.209a.347.347 0 0 0-.349-.347"/><path fill="#a67af4" d="M10.551 3.862H7.41a.347.347 0 0 0-.347.347V7.35a.347.347 0 0 0 .347.35h3.141a.347.347 0 0 0 .349-.35V4.209a.347.347 0 0 0-.349-.347m-.3 2.96a.23.23 0 0 1-.23.23H7.938a.23.23 0 0 1-.23-.23V4.737a.23.23 0 0 1 .23-.23h2.085a.23.23 0 0 1 .23.23Z"/><path id="bdc94428-22ed-41e6-a140-3d9647e53950" fill="url(#a305fb35-e815-4445-a184-35cb29dae4a9)" d="M6.715 13.185V11a.28.28 0 0 0-.279-.279H4.251a.28.28 0 0 0-.279.279v2.186a.28.28 0 0 0 .279.279h2.185a.28.28 0 0 0 .279-.28"/><path id="a551ca4d-bd02-42d4-b100-f5246ebf0f81" fill="url(#a936de98-dcd2-4eeb-b313-9efe1853d9b9)" d="M14.018 13.185V11a.28.28 0 0 0-.279-.279h-2.186a.28.28 0 0 0-.279.279v2.186a.28.28 0 0 0 .279.279h2.186a.28.28 0 0 0 .279-.28"/></g></svg>