<svg height="18" viewBox="0 0 18 18" width="18" xmlns="http://www.w3.org/2000/svg" xmlns:xlink="http://www.w3.org/1999/xlink"><linearGradient id="a"><stop offset=".001" stop-color="#76bc2d"/><stop offset="1" stop-color="#5e9624"/></linearGradient><linearGradient id="b" gradientUnits="userSpaceOnUse" x1="5.344" x2="5.344" xlink:href="#a" y1="10.72" y2="13.464"/><linearGradient id="c" gradientUnits="userSpaceOnUse" x1="12.646" x2="12.646" xlink:href="#a" y1="10.72" y2="13.464"/><radialGradient id="d" cx="9.044" cy="8.913" gradientUnits="userSpaceOnUse" r="10.514"><stop offset=".183" stop-color="#5ea0ef"/><stop offset="1" stop-color="#0078d4"/></radialGradient><circle cx="9" cy="9" fill="url(#d)" r="8.863"/><circle cx="9" cy="9" fill="#fff" r="7.386"/><path d="m9.432 8.665v-1.19h-.838v1.19a.17.17 0 0 1 -.168.168h-3.154a.335.335 0 0 0 -.335.335v1.545h.838v-.856a.167.167 0 0 1 .167-.167h6.105a.167.167 0 0 1 .167.167v.874h.838v-1.563a.335.335 0 0 0 -.335-.335h-3.117a.17.17 0 0 1 -.168-.168" fill="#0078d4"/><path d="m10.551 3.862h-3.141a.347.347 0 0 0 -.347.347v3.141a.347.347 0 0 0 .347.35h3.141a.347.347 0 0 0 .349-.35v-3.141a.347.347 0 0 0 -.349-.347" fill="#fff"/><path d="m10.551 3.862h-3.141a.347.347 0 0 0 -.347.347v3.141a.347.347 0 0 0 .347.35h3.141a.347.347 0 0 0 .349-.35v-3.141a.347.347 0 0 0 -.349-.347m-.3 2.96a.23.23 0 0 1 -.23.23h-2.083a.23.23 0 0 1 -.23-.23v-2.085a.23.23 0 0 1 .23-.23h2.085a.23.23 0 0 1 .23.23z" fill="#a67af4"/><path d="m6.715 13.185v-2.185a.28.28 0 0 0 -.279-.279h-2.185a.28.28 0 0 0 -.279.279v2.186a.28.28 0 0 0 .279.279h2.185a.28.28 0 0 0 .279-.28" fill="url(#b)"/><path d="m14.018 13.185v-2.185a.28.28 0 0 0 -.279-.279h-2.186a.28.28 0 0 0 -.279.279v2.186a.28.28 0 0 0 .279.279h2.186a.28.28 0 0 0 .279-.28" fill="url(#c)"/></svg>