<svg fill="none" height="50" viewBox="0 0 50 50" width="50" xmlns="http://www.w3.org/2000/svg"><path clip-rule="evenodd" d="m25 0c-20.5875 0-25 4.4125-25 25s4.4125 25 25 25 25-4.4125 25-25-4.4125-25-25-25zm-2.7744 18.483c.2999.1602.5017.4952.5017.8352 0 1.2552 1.0175 2.2727 2.2727 2.2727s2.2727-1.0175 2.2727-2.2727c0-.34.2018-.675.5016-.8352.7159-.3827 1.203-1.1373 1.203-2.0057 0-1.2552-1.0176-2.2728-2.2728-2.2728-.2192 0-.4312.0311-.6317.089-.6568.1897-1.4888.1897-2.1456 0-.2005-.0579-.4125-.089-.6318-.089-1.2551 0-2.2727 1.0176-2.2727 2.2728 0 .8684.4871 1.623 1.2029 2.0057zm.8525 2.9274c-.0914.0643-.164.1556-.205.2651l-.5728 1.5274c-.0914.2437-.0963.5114-.014.7583l.9243 2.7729c.0558.1674.1492.3212.2974.417.2595.168.7569.4057 1.492.4057.735 0 1.2324-.2377 1.492-.4057.1481-.0958.2415-.2496.2973-.417l.9243-2.7729c.0824-.2469.0774-.5146-.014-.7583l-.5728-1.5274c-.041-.1095-.1135-.2008-.205-.2651-.5058.4649-1.1807.7487-1.9218.7487-.7412 0-1.4161-.2838-1.9219-.7487zm.7855 12.6805-.5562-6.3964c.3487.2029.9149.4305 1.6926.4305.7775 0 1.3437-.2275 1.6926-.4305l-.5562 6.3964s-.2841.2841-1.1364.2841-1.1364-.2841-1.1364-.2841zm.2841 4.5455-.2778-3.8887c.0103.0043.0207.0085.0313.0128.2519.1008.6086.1827 1.0988.1827s.8469-.0819 1.0988-.1827l.0312-.0128-.2778 3.8887s-.142.5681-.8522.5681c-.7103 0-.8523-.5681-.8523-.5681zm-13.6364-15.9091h11.3069c-.4291.7151-.2371 1.2134-.0476 1.7051h.0001v.0001c.0363.0942.0725.1882.1043.2834l-10.6153 3.04c-.6779.191-1.40331-.0546-1.82584-.6179l-.66805-.8908c-.38738-.5165-.44969-1.2075-.16095-1.785l.39637-.7927c.2864-.5728.8697-.9368 1.51007-.9422zm-1.42041-.8715 12.92611.3033s.2042-.5107.2841-.8523c.0274-.1171.0563-.234.0808-.3311.0345-.1364-.0298-.2764-.1589-.3323-1.5058-.6508-10.2661-4.4361-11.7262-5.0376-.56717-.2425-1.22115-.1596-1.70995.2167l-1.3039 1.0039c-.42779.3293-.66622.834-.66479 1.3554.00045.1655.02507.3327.07546.4965l.63199 2.0412c.21238.6902.84374 1.1063 1.56528 1.1363zm30.39771.8715h-11.3068c.4291.7151.237 1.2134.0475 1.7051-.0363.0943-.0725.1883-.1043.2835l10.6153 3.04c.6778.191 1.4033-.0546 1.8258-.6179l.668-.8908c.3874-.5165.4497-1.2075.161-1.785l-.3964-.7927c-.2864-.5728-.8697-.9368-1.5101-.9422zm1.4205-.8715-12.9261.3033s-.2042-.5107-.2841-.8523c-.0274-.117-.0563-.234-.0809-.3311-.0345-.1364.0298-.2764.159-.3323 1.5057-.6508 10.266-4.4361 11.7261-5.0376.5672-.2425 1.2212-.1596 1.71.2167l1.3039 1.0039c.4278.3293.6662.834.6648 1.3554-.0005.1655-.0251.3327-.0755.4965l-.632 2.0412c-.2123.6902-.8437 1.1063-1.5652 1.1363z" fill="#fff" fill-rule="evenodd"/></svg>