<svg xmlns="http://www.w3.org/2000/svg" width="50" height="50" fill="none" viewBox="0 0 50 50"><path fill="currentColor" fill-rule="evenodd" d="M25 0C4.413 0 0 4.413 0 25s4.413 25 25 25 25-4.412 25-25S45.588 0 25 0m-2.774 18.483c.3.16.501.495.501.835a2.273 2.273 0 1 0 4.546 0 .97.97 0 0 1 .501-.835 2.272 2.272 0 0 0-1.701-4.19c-.657.19-1.489.19-2.146 0a2.274 2.274 0 0 0-1.701 4.19m.852 2.927a.57.57 0 0 0-.205.265l-.573 1.528a1.14 1.14 0 0 0-.014.758l.925 2.773a.77.77 0 0 0 .297.417c.26.168.757.406 1.492.406s1.232-.238 1.492-.406a.77.77 0 0 0 .297-.417l.925-2.773a1.14 1.14 0 0 0-.014-.758l-.573-1.527a.57.57 0 0 0-.205-.266 2.83 2.83 0 0 1-1.922.75 2.83 2.83 0 0 1-1.922-.75m.786 12.68-.557-6.396c.35.203.915.431 1.693.431.777 0 1.344-.228 1.693-.43l-.557 6.396s-.284.284-1.136.284-1.136-.284-1.136-.284m.284 4.546-.278-3.888.031.012c.252.101.609.183 1.099.183s.847-.082 1.099-.183l.031-.012-.278 3.888s-.142.568-.852.568-.852-.568-.852-.568M10.51 22.727h11.307c-.429.715-.237 1.214-.047 1.705q.055.142.104.284l-10.615 3.04a1.705 1.705 0 0 1-1.826-.618l-.668-.89a1.7 1.7 0 0 1-.161-1.786L9 23.67c.287-.572.87-.936 1.51-.942m-1.42-.871 12.926.303s.204-.51.284-.852c.027-.117.056-.234.08-.331a.28.28 0 0 0-.158-.333c-1.506-.65-10.266-4.436-11.726-5.037a1.7 1.7 0 0 0-1.71.216l-1.304 1.004a1.705 1.705 0 0 0-.59 1.852l.633 2.041c.212.69.843 1.107 1.565 1.137m30.398.871H28.182c.429.715.237 1.214.047 1.705q-.055.142-.104.284l10.615 3.04a1.705 1.705 0 0 0 1.826-.618l.668-.89c.387-.517.45-1.208.161-1.786L41 23.67a1.7 1.7 0 0 0-1.51-.942m1.42-.871-12.926.303s-.204-.51-.284-.852l-.081-.331a.28.28 0 0 1 .159-.333c1.506-.65 10.266-4.436 11.726-5.037a1.7 1.7 0 0 1 1.71.216l1.304 1.004a1.705 1.705 0 0 1 .59 1.852l-.633 2.041c-.212.69-.843 1.107-1.565 1.137" clip-rule="evenodd"/></svg>