<svg xmlns="http://www.w3.org/2000/svg" id="aa9b6cd1-47ec-44db-bbf1-958203b5601f" width="18" height="18" viewBox="0 0 18 18"><defs><linearGradient id="faaeb69b-3035-4577-9cb1-ddd3fba791e3" x1="9.13" x2="8.85" y1="18.81" y2="-8.1" gradientUnits="userSpaceOnUse"><stop offset="0" stop-color="#198ab3"/><stop offset="0" stop-color="#198ab3"/><stop offset=".09" stop-color="#22a5cb"/><stop offset=".19" stop-color="#29bade"/><stop offset=".29" stop-color="#2ec9eb"/><stop offset=".42" stop-color="#31d1f3"/><stop offset=".62" stop-color="#32d4f5"/></linearGradient></defs><circle id="fa3a22e9-e4e8-46a1-bc09-f9532747c739" cx="11.4" cy="8.44" r="1.97" fill="#fff"/><circle id="eb214416-6791-4934-ac0c-35afaa829f6e" cx="14.7" cy="14.3" r="1.55" fill="#fff"/><circle id="a4424413-b91f-48da-aedd-39e3a978b430" cx="8.57" cy="13.24" r="1.33" fill="#fff"/><circle id="f7ecfc1a-3268-471b-9464-57023bfc9cc4" cx="7.61" cy="3.11" r="1.65" fill="#fff"/><circle id="b4388938-ad80-41b4-b729-5c21e3eab320" cx="3.19" cy="9.19" r="1.33" fill="#fff"/><path fill="#949494" d="m15.06 13.99-3.33-5.83-.33.19.27-.2L7.9 2.79l-.69.5 3.34 4.75-7.4.61.07.86 7.33-.61-2.43 4.04.73.44 2.5-4.16 2.97 5.19z"/><g fill="#949494"><path d="M17.53 1.23A.73.73 0 0 0 16.8.5H13a.36.36 0 0 0-.36.36v1.41a.36.36 0 0 0 .36.36h2.35v2.3a.38.38 0 0 0 .37.37h1.4a.38.38 0 0 0 .37-.37v-3.7ZM5 15.37H2.61v-2.3a.38.38 0 0 0-.37-.37H.84a.38.38 0 0 0-.37.37v3.7a.73.73 0 0 0 .73.72H5a.36.36 0 0 0 .36-.36v-1.4a.36.36 0 0 0-.36-.36"/></g><path fill="url(#faaeb69b-3035-4577-9cb1-ddd3fba791e3)" d="M11.4 6.49a2 2 0 1 1-2 1.95 2 2 0 0 1 2-1.95M6 3.11a1.66 1.66 0 1 0 1.62-1.65A1.65 1.65 0 0 0 6 3.11M1.86 9.18a1.33 1.33 0 1 0 1.33-1.33 1.33 1.33 0 0 0-1.33 1.33m5.38 4.05a1.34 1.34 0 1 0 1.34-1.33 1.33 1.33 0 0 0-1.34 1.33m5.92 1.07a1.55 1.55 0 1 0 1.55-1.54 1.53 1.53 0 0 0-1.55 1.54"/></svg>