<svg height="18" viewBox="0 0 18 18" width="18" xmlns="http://www.w3.org/2000/svg" xmlns:xlink="http://www.w3.org/1999/xlink"><linearGradient id="a" gradientUnits="userSpaceOnUse" x1="9.13" x2="8.85" y1="18.81" y2="-8.1"><stop offset="0" stop-color="#198ab3"/><stop offset=".09" stop-color="#22a5cb"/><stop offset=".19" stop-color="#29bade"/><stop offset=".29" stop-color="#2ec9eb"/><stop offset=".42" stop-color="#31d1f3"/><stop offset=".62" stop-color="#32d4f5"/></linearGradient><g fill="#fff"><circle cx="11.4" cy="8.44" r="1.97"/><circle cx="14.7" cy="14.3" r="1.55"/><circle cx="8.57" cy="13.24" r="1.33"/><circle cx="7.61" cy="3.11" r="1.65"/><circle cx="3.19" cy="9.19" r="1.33"/></g><path d="m15.06 13.99-3.33-5.83-.33.19.27-.2-3.77-5.36-.69.5 3.34 4.75-7.4.61.07.86 7.33-.61-2.43 4.04.73.44 2.5-4.16 2.97 5.19z" fill="#949494"/><path d="m17.53 1.23a.73.73 0 0 0 -.73-.73h-3.8a.36.36 0 0 0 -.36.36v1.41a.36.36 0 0 0 .36.36h2.35v2.3a.38.38 0 0 0 .37.37h1.4a.38.38 0 0 0 .37-.37v-3.7zm-12.53 14.14h-2.39v-2.3a.38.38 0 0 0 -.37-.37h-1.4a.38.38 0 0 0 -.37.37v3.7a.73.73 0 0 0 .73.72h3.8a.36.36 0 0 0 .36-.36v-1.4a.36.36 0 0 0 -.36-.36" fill="#949494"/><path d="m11.4 6.49a2 2 0 1 1 -2 1.95 2 2 0 0 1 2-1.95m-5.4-3.38a1.66 1.66 0 1 0 1.62-1.65 1.65 1.65 0 0 0 -1.62 1.65m-4.14 6.07a1.33 1.33 0 1 0 1.33-1.33 1.33 1.33 0 0 0 -1.33 1.33m5.38 4.05a1.34 1.34 0 1 0 1.34-1.33 1.33 1.33 0 0 0 -1.34 1.33m5.92 1.07a1.55 1.55 0 1 0 1.55-1.54 1.53 1.53 0 0 0 -1.55 1.54" fill="url(#a)"/></svg>