<svg viewBox="0 0 24 24" xmlns="http://www.w3.org/2000/svg" xmlns:xlink="http://www.w3.org/1999/xlink"><linearGradient id="a" gradientUnits="userSpaceOnUse" x1=".478" x2="22.985" y1="3.451" y2="19.698"><stop offset="0" stop-color="#6f11f4"/><stop offset="1" stop-color="#aa66f1"/></linearGradient><linearGradient id="b" gradientUnits="userSpaceOnUse" x1="21.676" x2="2.034" y1=".006" y2="23.987"><stop offset="0" stop-color="#f52c77"/><stop offset="1" stop-color="#e9a45f" stop-opacity=".996"/></linearGradient><path d="m5.223 9.692c.652 1.795 1.925 3.376 3.396 4.573 1.482 1.229 3.254 2.17 5.122 2.653a10 10 0 0 0 2.033.302c1.302.05 2.713-.206 3.758-1.04 1.297-1.036 1.651-2.625 1.318-4.21-.209-.993-.641-1.93-1.205-2.787a10 10 0 0 0 -.366-.525.01.01 0 0 1 .005-.007h.004q.003 0 .006.002l.394.405a17.2 17.2 0 0 1 2.484 3.262c.579.993 1.023 2.046 1.255 3.144.369 1.747.07 3.546-1.306 4.777-.724.648-1.655 1.041-2.59 1.235-1.297.267-2.649.228-3.965.007a17 17 0 0 1 -1.937-.443c-2.576-.756-5.012-2.051-7.143-3.677a21 21 0 0 1 -3.484-3.296c-1.053-1.254-1.956-2.671-2.515-4.214-.367-1.008-.574-2.128-.452-3.19.267-2.306 1.98-3.654 4.174-4.06 1.265-.234 2.594-.186 3.879.037a17.7 17.7 0 0 1 3.978 1.192v.004l-.004.004h-.004a8.9 8.9 0 0 0 -2.869-.29c-.807.048-1.666.263-2.357.656q-1.551.882-1.907 2.625a4.6 4.6 0 0 0 -.069 1.1c.025.58.163 1.198.367 1.761" fill="url(#a)"/><g fill="url(#b)"><path d="m18.02 7.235a.05.05 0 0 1 -.007.03q-.692 1.374-1.386 2.747-.636 1.255-.965 1.8a17.9 17.9 0 0 1 -2.98 3.707.03.03 0 0 1 -.03.005 12.7 12.7 0 0 1 -4.205-2.777q-.21-.21-.42-.447a.02.02 0 0 1 -.005-.013q0-.008.003-.014a18 18 0 0 1 1.68-2.379 18.3 18.3 0 0 1 2.7-2.606q.611-.48 2.95-2.323l6.297-4.963a.01.01 0 0 1 .01 0l.004.005v.006l-3.648 7.222z"/><path d="m2.027 24q.003 0 .005-.002l5.843-4.58a.02.02 0 0 0 .008-.017.02.02 0 0 0 -.01-.016 27 27 0 0 1 -2.584-1.842h-.006l-.005.002-.004.005-3.254 6.437v.006q0 .003.002.005z"/></g></svg>