<svg height="64" viewBox="0 0 64 64" width="64" xmlns="http://www.w3.org/2000/svg"><g fill="none" fill-rule="evenodd"><path d="m0 0h64v64h-64z" fill="#01a88d"/><path d="m33.989 28.541c0 1.092-.892 1.98-1.989 1.98-1.153 0-1.989-.768-1.989-1.826 0-1.137.93-2.133 1.989-2.133 1.097 0 1.989.888 1.989 1.98m2.842 7.895h-9.66c.326-1.454 1.38-3.936 4.784-3.936 3.488 0 4.552 2.466 4.876 3.936m-8.809-7.741c0 .94.353 1.78.925 2.436-2.894 1.306-3.848 4.418-3.907 6.263a.99.99 0 0 0 .993 1.021h11.934a.989.989 0 0 0 .993-1.021c-.06-1.849-1.027-4.968-3.97-6.27a3.9 3.9 0 0 0 .988-2.583c0-2.183-1.784-3.959-3.978-3.959-2.156 0-3.978 1.884-3.978 4.113m22.806 4.468-.04-.024a1 1 0 0 1 -.808.418 1 1 0 0 1 -.703-.29l-2.895-2.881 1.406-1.4.994.99c-.936-5.91-5.017-11.028-10.737-13.188l.705-1.852c6.353 2.399 10.89 8.063 11.972 14.613l.582-.946 1.696 1.035zm-24.816 15.183-.704 1.85c-6.336-2.393-10.864-8.039-11.96-14.569l-.652 1.06-1.696-1.036 2.172-3.524.024.014a.98.98 0 0 1 .506-.49 1 1 0 0 1 1.083.215l2.896 2.88-1.406 1.401-.994-.989c.936 5.908 5.013 11.026 10.731 13.187m21.875-9.792 1.86.703c-2.498 6.546-8.517 11.147-15.397 12.005l1.374 1.304-1.373 1.434-3.006-2.853.007-.008a1 1 0 0 1 -.24-.33.99.99 0 0 1 .216-1.079l2.895-2.88 1.406 1.399-.994.989c5.937-.932 11.08-4.991 13.252-10.683m-31.713-11.975-1.858-.703c2.509-6.58 8.577-11.193 15.5-12.018l-1.504-1.427 1.373-1.432 3.006 2.853-.063.069a1 1 0 0 1 .322.404.99.99 0 0 1 -.216 1.08l-2.895 2.88-1.406-1.4.993-.988c-5.938.931-11.08 4.99-13.252 10.683m26.766 5.919c0 6.002-4.908 10.887-10.939 10.887s-10.941-4.885-10.941-10.887 4.91-10.887 10.94-10.887 10.94 4.885 10.94 10.887m-23.867 0c0 7.094 5.8 12.866 12.928 12.866s12.927-5.772 12.927-12.866-5.8-12.866-12.928-12.866-12.928 5.772-12.928 12.866" fill="#fff"/></g></svg>