<svg xmlns="http://www.w3.org/2000/svg" viewBox="0 -33.5 100 100"><defs><mask id="a"><path fill="#fff" d="M0 0h100v100H0z"/><path d="M53.22 19.57c.43 4.51 4.68 4.06 7.7 2.47q.48-.25.78.2l1.48 2.31q.31.48-.2.76c-4.74 2.56-12.31 2.36-13.88-3.89-3.82-15.13 16.91-17.23 14.5-2.93q-.09.51-.6.51h-9.25q-.58 0-.53.57m.49-3.53 5.54-.1a.3.3 0 0 0 .29-.3v-.2a3.01 3-1 0 0-3.06-2.95h-.12a3.01 3-1 0 0-2.96 3.05l.01.2a.3.3 0 0 0 .3.3m24.94-5.73q1.32.6.3 1.62l-2.04 2.03q-.45.46-.94.05c-6.03-4.97-6.28 4.61-5.05 7.68q.21.5.68.76 2.49 1.39 4.52-.72.33-.34.68-.02l2.2 2.07q.45.42.01.86c-4.59 4.53-12.4 2.23-13.5-3.86C63.91 12 69.8 6.3 78.65 10.31"/><path d="M84.51 20.12q2.5 5.18 7.75 1.91.52-.32.84.2l1.39 2.26q.39.65-.28.98c-15.45 7.54-18.98-14.17-8-16.37 6.22-1.24 10.2 3.19 8.81 9.47q-.09.43-.54.43h-9.27a.78.78 0 0 0-.7 1.12m.71-4.08 5.28-.11a.35.35 0 0 0 .34-.35l-.01-.24a2.91 2.82 88.8 0 0-2.88-2.85h-.34a2.91 2.82 88.8 0 0-2.76 2.97l.01.24a.35.35 0 0 0 .36.34m-56.56 9.2c-2.74 2.06-6.77 2.31-8.63-.58C18.17 21.78 19 13.74 19 10.02q0-.48.48-.5l3.42-.08q.54-.01.55.54.13 5.16.1 10.26c-.02 4.53 5.71 3.88 5.7-.25q-.01-4.99.01-9.98 0-.47.47-.49l3.39-.07q.63-.02.63.61v15.5q0 .46-.41.65-2.63 1.28-4.02-.85-.27-.41-.66-.12"/></mask></defs><g fill="currentColor" mask="url(#a)"><path d="M46.71 10.25q.66-2.04.16-3.78-.2-.7.53-.7l2.47-.03q.63 0 .63.63v1.9q0 .55-.52.76c-.99.4-3.32-.28-3.27 1.22"/><path d="m43.04 9 3.42.25.25 1-.01 1.85q0 .65-.66.65h-2.27q-.49 0-.56-.48l-.46-2.98z"/></g></svg>