<svg height="48" viewBox="0 0 48 48" width="48" xmlns="http://www.w3.org/2000/svg"><path d="m14.437 20.378c-.788 0-1.43-.642-1.43-1.43 0-.632.834-2.217 1.43-3.289.597 1.073 1.43 2.657 1.43 3.289 0 .788-.642 1.43-1.43 1.43m.895-7.224a1.002 1.002 0 0 0 -1.79.001c-.105.21-.283.521-.492.892-1.078 1.897-2.043 3.7-2.043 4.901a3.434 3.434 0 0 0 3.43 3.43 3.434 3.434 0 0 0 3.43-3.43c0-1.203-.968-3.007-2.046-4.906-.208-.369-.386-.678-.49-.888m14.669 13.846h4v-2h-4zm0-4h5v-2h-5zm0-4h4v-2h-4zm0-4h5v-2h-5zm-6 17.977c-.552 0-1-.449-1-1s.448-1 1-1a1.001 1.001 0 0 1 0 2m1-3.816v-11.161h-2v11.161a3 3 0 0 0 -2 2.816c0 1.654 1.346 3 3 3s3-1.346 3-3a3 3 0 0 0 -2-2.816m1.523 5.92c-.953.776-2.158 1.061-3.392.806-1.544-.321-2.774-1.589-3.061-3.155a3.96 3.96 0 0 1 1.532-3.935l.398-.3v-14.497c0-1.103.898-2 2-2s2 .897 2 2v14.498l.398.299c1.018.77 1.602 1.929 1.602 3.18 0 1.209-.538 2.34-1.477 3.104m1.477-7.553v-13.528c0-2.206-1.794-4-4-4s-4 1.794-4 4v13.529a5.988 5.988 0 0 0 2.726 10.316 6.2 6.2 0 0 0 1.265.131 6 6 0 0 0 3.794-1.344 5.98 5.98 0 0 0 2.215-4.655 5.93 5.93 0 0 0 -2-4.449m11 10.337c0 .625-.509 1.135-1.135 1.135h-27.73c-.626 0-1.136-.51-1.136-1.135v-27.731c.001-.625.511-1.134 1.136-1.134h27.731c.627 0 1.134.509 1.134 1.134zm7-22.865v-2h-5v-2.866a3.14 3.14 0 0 0 -3.135-3.134h-2.865v-5h-2v5h-3v-5h-2v5h-3v-5h-2v5h-3v-5h-2v5h-3v-5h-2v5h-2.865a3.14 3.14 0 0 0 -3.135 3.134v2.866h-5v2h5v3h-5v2h5v3h-5v2h5v3h-5v2h5v3h-5v2h5v2.865a3.14 3.14 0 0 0 3.134 3.135h2.866v5h2v-5h3v5h2v-5h3v5h2v-5h3v5h2v-5h3v5h2v-5h2.866a3.14 3.14 0 0 0 3.134-3.135v-2.865h5v-2h-5v-3h5v-2h-5v-3h5v-2h-5v-3h5v-2h-5v-3z" fill="#7aa116" fill-rule="evenodd"/></svg>