<svg height="18" viewBox="0 0 18 18" width="18" xmlns="http://www.w3.org/2000/svg" xmlns:xlink="http://www.w3.org/1999/xlink"><linearGradient id="a"><stop offset="0" stop-color="#0078d4"/><stop offset=".82" stop-color="#5ea0ef"/></linearGradient><linearGradient id="b" gradientTransform="matrix(.99999903 -.00139626 .00139626 .99999903 2.03 -1.15)" gradientUnits="userSpaceOnUse" x1="10.7" x2="10.7" xlink:href="#a" y1="11.32" y2="9"/><linearGradient id="c" gradientUnits="userSpaceOnUse" x1="6.99" x2="7" xlink:href="#a" y1="11.32" y2="9"/><linearGradient id="d" gradientUnits="userSpaceOnUse" x1="3.29" x2="3.3" xlink:href="#a" y1="11.32" y2="9"/><circle cx="12.74" cy="8.99" fill="url(#b)" r="1.16"/><circle cx="9.04" cy="9" fill="url(#c)" r="1.16"/><circle cx="5.34" cy="9" fill="url(#d)" r="1.16"/><path d="m6.182 13.638-.664.665a.3.3 0 0 1 -.424 0l-4.914-4.899a.6.6 0 0 1 -.001-.848l.663-.666 5.34 5.324a.3.3 0 0 1 0 .425" fill="#50e6ff"/><path d="m5.418 3.708.666.664a.3.3 0 0 1 0 .424l-5.246 5.261-.666-.663a.6.6 0 0 1 -.001-.849l4.823-4.835a.3.3 0 0 1 .424 0" fill="#1490df"/><path d="m17.157 7.88.663.666a.6.6 0 0 1 0 .848l-4.915 4.9a.3.3 0 0 1 -.424 0l-.664-.666a.3.3 0 0 1 0-.424z" fill="#50e6ff"/><path d="m17.818 9.387-.665.664-5.247-5.261a.3.3 0 0 1 0-.425l.674-.67a.3.3 0 0 1 .424 0l4.823 4.836a.6.6 0 0 1 -.002.849z" fill="#1490df"/></svg>