<svg height="24" width="24" xmlns="http://www.w3.org/2000/svg"><path d="m2 3.94h3.33v2.58h-3.33zm0 4.51h3.33v2.58h-3.33zm0 4.52h3.33v2.58h-3.33zm0 4.51h3.33v2.58h-3.33zm16.67-13.54h3.33v2.58h-3.33zm0 4.51h3.33v2.58h-3.33zm0 4.52h3.33v2.58h-3.33zm0 4.51h3.33v2.58h-3.33z" fill="#669df6"/><g fill-rule="evenodd"><path d="m21.33 6.52h-2.66v-2.58zm0 4.51h-2.66v-2.58zm0 4.52h-2.66v-2.58zm0 4.52h-2.66v-2.59z" fill="#4285f4"/><path d="m5.33 22h13.34v-20h-13.34zm6-9h-3.33l4.67-7.74v5.74h3.33l-4.67 7.74z" fill="#aecbfa"/><path d="m11.33 22v-3.23l4.67-7.74h-3.33v-9.03h6v20z" fill="#669df6"/></g></svg>