<svg height="48" viewBox="0 0 48 48" width="48" xmlns="http://www.w3.org/2000/svg"><path d="m41.958 26.206 1.98.283c-1.432 10.014-10.212 17.859-19.99 17.859-8.602 0-16.428-6.075-19.161-14.356l-.891 2.672-1.896-.633 2-6a.998.998 0 0 1 1.573-.464l5 4-1.25 1.561-2.768-2.215c2.324 7.716 9.49 13.435 17.393 13.435 8.805 0 16.716-7.091 18.01-16.142m-36.02-3.717-1.98-.283c1.461-10.209 10.241-18.206 19.99-18.206 8.595 0 16.43 6.219 19.167 14.686l.885-2.655 1.896.633-2 6a.997.997 0 0 1 -1.573.464l-5-4 1.25-1.561 2.78 2.224c-2.323-7.916-9.505-13.791-17.405-13.791-8.776 0-16.687 7.243-18.01 16.489m23.01 9.511h2v-2h-2zm0-4h2v-2h-2zm-4 4h2v-2h-2zm0-4h2v-2h-2zm-4 4h2v-2h-2zm0-4h2v-2h-2zm-4 4h2v-2h-2zm0-4h2v-2h-2zm0-4h2v-2h-2zm12 0h2v-2h-2zm-4 0h2v-2h-2zm-4 0h2v-2h-2zm0-9v1h2v-1h2v1h2v-1h2v1h2v-1h2v3h-18v-3h2v1h2v-1zm-6 19h18v-14h-18zm2-22v1h-3a1 1 0 0 0 -1 1v21a1 1 0 0 0 1 1h20a1 1 0 0 0 1-1v-21a1 1 0 0 0 -1-1h-3v-1h-2v1h-2v-1h-2v1h-2v-1h-2v1h-2v-1z" fill="#e7157b" fill-rule="evenodd"/></svg>