<svg viewBox="0 0 24 24" xmlns="http://www.w3.org/2000/svg"><path d="m15.081 21.857v.602c0 1.177-1.269 1.919-2.296 1.341l-9.242-5.198c-.485-.273-.785-.786-.785-1.342v-10.518c0-.557.3-1.07.785-1.343l9.242-5.198c1.027-.579 2.297.164 2.296 1.343v.601l1.097-.331c.989-.297 1.985.444 1.984 1.476v.625l1.349-.169c.92-.114 1.732.602 1.731 1.529v13.451c.001.926-.811 1.644-1.731 1.528l-1.349-.169v.625c.001 1.033-.995 1.774-1.984 1.476zm0-1.608 1.54.461v-17.42l-1.54.463zm3.081-14.782v13.067l1.54.192v-13.451zm-15.404 11.334v-9.601zm1.54-10.059v10.518l9.242 5.199v-20.915zm1.54 1.023 1.541-.77v10.01l-1.541-.77z"/></svg>