<svg height="24" width="24" xmlns="http://www.w3.org/2000/svg"><path d="m0 0h24v24h-24z" fill="none"/><g fill-rule="evenodd"><path d="m3 6.1c-1.1 0-2.3 1.1-2.3 2.2v9.7h2.3v-4.5h2.2v4.5h2.2v-9.7c0-1.1-1.1-2.2-2.3-2.2zm0 5.1v-3h2.2v3zm8.3-5.2c-1.2 0-2.3 1.1-2.3 2.2v9.8h2.2v-4.5h2.2c1.1 0 2.3-1.1 2.3-2.2v-3c0-1.1-1.1-2.2-2.3-2.2h-2.1zm-.1 5.2v-3h2.2v3zm8.3-2.9v7.5h-2.3v2.2h6.8v-2.2h-2.2v-7.5h2.2v-2.2h-6.8v2.2z" fill="#5c85de"/><path d="m3 13.5v-2.3h1.5zm8.2 0v-2.3h1.3zm8.3-3.7v-1.5h2.3z" fill="#3367d6"/></g></svg>