<svg height="48" viewBox="0 0 48 48" width="48" xmlns="http://www.w3.org/2000/svg"><path d="m12.625 40.5a2.065 2.065 0 0 1 -2.063-2.063c0-1.137.925-2.062 2.063-2.062s2.063.925 2.063 2.062a2.065 2.065 0 0 1 -2.063 2.063m0-6.125a4.066 4.066 0 0 0 -4.062 4.062 4.067 4.067 0 0 0 4.062 4.063 4.067 4.067 0 0 0 4.062-4.063 4.066 4.066 0 0 0 -4.062-4.062m0-8.75a2.065 2.065 0 0 1 -2.063-2.062c0-1.138.925-2.063 2.063-2.063s2.063.925 2.063 2.063a2.065 2.065 0 0 1 -2.063 2.062m0-6.125a4.067 4.067 0 0 0 -4.062 4.063 4.066 4.066 0 0 0 4.062 4.062 4.066 4.066 0 0 0 4.062-4.062 4.067 4.067 0 0 0 -4.062-4.063m0-8.75a2.065 2.065 0 0 1 -2.063-2.062c0-1.138.925-2.063 2.063-2.063s2.063.925 2.063 2.063a2.065 2.065 0 0 1 -2.063 2.062m0-6.125a4.067 4.067 0 0 0 -4.062 4.063 4.066 4.066 0 0 0 4.062 4.062 4.066 4.066 0 0 0 4.062-4.062 4.067 4.067 0 0 0 -4.062-4.063m14.125 38.5h17.25v-9.375h-17.25zm-2 2h21.25v-13.375h-21.25zm2-16.875h17.25v-9.375h-17.25zm-2 2h21.25v-13.375h-21.25zm2-16.875h17.25v-9.375h-17.25zm-2 2h21.25v-13.375h-21.25zm-20.75 27.75h17.25v-9.375h-17.25zm-2 2h21.25v-13.375h-21.25zm2-16.875h17.25v-9.375h-17.25zm-2 2h21.25v-13.375h-21.25zm2-16.875h17.25v-9.375h-17.25zm-2 2h21.25v-13.375h-21.25z" fill="#c925d1" fill-rule="evenodd"/></svg>