<svg xmlns="http://www.w3.org/2000/svg" width="18" height="18" viewBox="0 0 18 18"><defs><mask id="a"><path fill="#fff" d="M0 0h18v18H0z"/><path d="M2.772 15.329 7.01 9.153a1.56 1.56 0 0 0 .271-.876V5.789a.493.493 0 0 1 .493-.489h2.4a.49.49 0 0 1 .492.492v2.654a1.04 1.04 0 0 0 .183.589l4.327 6.294a.37.37 0 0 1-.3.579H3.077a.37.37 0 0 1-.305-.579"/></mask></defs><g fill="currentColor" mask="url(#a)"><path d="M17.091 17.5H.909c-.515 0-.819-.824-.527-1.248l5.576-8.129a.64.64 0 0 0 .112-.362V2.389a.32.32 0 0 0-.32-.32h-.3a.64.64 0 0 1-.64-.64V1.14A.64.64 0 0 1 5.451.5h7.1a.64.64 0 0 1 .64.64v.289a.64.64 0 0 1-.64.64h-.3a.32.32 0 0 0-.32.32v5.385a.64.64 0 0 0 .112.363l5.578 8.114c.289.425-.015 1.249-.53 1.249"/></g><path fill="currentColor" d="M4.54 12.752a5.07 5.07 0 0 1 5.236-.211 4.7 4.7 0 0 0 1.363.431c.727.1 1.657.075 1.988-.629l2.162 3.057a.323.323 0 0 1-.264.509h-12.1a.323.323 0 0 1-.263-.509z"/><circle cx="9.958" cy="10.602" r="1.18" fill="currentColor"/><circle cx="8.598" cy="8.373" r=".699" fill="currentColor"/></svg>