<svg xmlns="http://www.w3.org/2000/svg" width="64" height="64" viewBox="0 0 64 64"><defs><mask id="a"><path fill="#fff" d="M0 0h64v64H0z"/><path d="M53.834 32.121c0 8.527-5.106 15.871-12.414 19.175v-2.217c6.171-3.156 10.414-9.564 10.414-16.958 0-9.03-6.322-16.597-14.77-18.547l-.944-2.212c10.024 1.607 17.714 10.29 17.714 20.759M23.42 49.082V51.3C16.109 47.996 11 40.651 11 32.121c0-10.466 7.687-19.148 17.706-20.758l-.944 2.213C19.318 15.529 13 23.093 13 32.121c0 7.396 4.246 13.806 10.42 16.961m2 4.918h2V39h-2zm12 0h2V39h-2zm-6-3h2V34h-2zm1.102-37.575 7.724 18.069-7.113-5.425a1.025 1.025 0 0 0-1.229.009l-7.105 5.417zM21.773 35.379a1 1 0 0 0 1.221.007l9.53-7.266 9.527 7.265a1 1 0 0 0 1.526-1.188l-10.083-23.59a1 1 0 0 0-.92-.607h-.102c-.401 0-.762.239-.92.607l-10.084 23.59a1 1 0 0 0 .305 1.182"/></mask></defs><path fill="currentColor" d="M0 0h64v64H0z" mask="url(#a)"/></svg>