<svg xmlns="http://www.w3.org/2000/svg" width="64" height="64" viewBox="0 0 64 64"><title>Icon-Architecture/48/Arch_AWS-Activate_48</title><g id="Icon-Architecture/48/Arch_AWS-Activate_48" fill="none" fill-rule="evenodd" stroke="none" stroke-width="1"><g id="Icon-Architecture-BG/48/Customer-Enablement" fill="#c925d1"><path id="Rectangle" d="M0 0h64v64H0z"/></g><g id="Icon-Service/48/AWS-Activate_48" fill="#fff" transform="translate(11 10)"><path id="AWS-Activate_48_Squid" d="M42.834 22.121c0 8.527-5.106 15.871-12.414 19.175v-2.217c6.171-3.156 10.414-9.564 10.414-16.958 0-9.03-6.322-16.597-14.77-18.547l-.944-2.212c10.024 1.607 17.714 10.29 17.714 20.759M12.42 39.082V41.3C5.109 37.996 0 30.651 0 22.121 0 11.655 7.687 2.973 17.706 1.363l-.944 2.213C8.318 5.529 2 13.093 2 22.121c0 7.396 4.246 13.806 10.42 16.961m2 4.918h2V29h-2zm12 0h2V29h-2zm-6-3h2V24h-2zm1.102-37.575 7.724 18.069-7.113-5.425a1.025 1.025 0 0 0-1.229.009l-7.105 5.417zM10.773 25.379a1 1 0 0 0 1.221.007l9.53-7.266 9.527 7.265a1 1 0 0 0 1.526-1.188L22.494.607a1 1 0 0 0-.92-.607h-.102c-.401 0-.762.239-.92.607l-10.084 23.59a1 1 0 0 0 .305 1.182"/></g></g></svg>