<svg height="64" viewBox="0 0 64 64" width="64" xmlns="http://www.w3.org/2000/svg"><g fill="none" fill-rule="evenodd"><path d="m0 0h64v64h-64z" fill="#c925d1"/><path d="m42.834 22.121c0 8.527-5.106 15.871-12.414 19.175v-2.217c6.171-3.156 10.414-9.564 10.414-16.958 0-9.03-6.322-16.597-14.77-18.547l-.944-2.212c10.024 1.607 17.714 10.29 17.714 20.759m-30.414 16.961v2.218c-7.311-3.304-12.42-10.649-12.42-19.179 0-10.466 7.687-19.148 17.706-20.758l-.944 2.213c-8.444 1.953-14.762 9.517-14.762 18.545 0 7.396 4.246 13.806 10.42 16.961m2 4.918h2v-15h-2zm12 0h2v-15h-2zm-6-3h2v-17h-2zm1.102-37.575 7.724 18.069-7.113-5.425a1.025 1.025 0 0 0 -1.229.009l-7.105 5.417zm-10.749 21.954a1 1 0 0 0 1.221.007l9.53-7.266 9.527 7.265a1 1 0 0 0 1.526-1.188l-10.083-23.59a1 1 0 0 0 -.92-.607h-.102c-.401 0-.762.239-.92.607l-10.084 23.59a1 1 0 0 0 .305 1.182" fill="#fff" transform="translate(11 10)"/></g></svg>