<svg height="48" viewBox="0 0 48 48" width="48" xmlns="http://www.w3.org/2000/svg"><path d="m29.227 30.45v-12.45h3.99a6.23 6.23 0 0 1 6.226 6.225 6.23 6.23 0 0 1 -6.225 6.224zm16.773-7.227h-4.625c-.496-4.063-3.962-7.223-8.157-7.223h-4.991a1 1 0 0 0 -1 1v14.45a1 1 0 0 0 1 1h4.99c4.197 0 7.663-3.162 8.159-7.226h4.624zm-27.226 7.227h-3.992a6.23 6.23 0 0 1 -6.225-6.225 6.23 6.23 0 0 1 6.225-6.225h3.992zm2-13.449a1 1 0 0 0 -1-1h-4.992c-4.196 0-7.662 3.16-8.158 7.224h-4.624v2h4.624c.496 4.065 3.962 7.225 8.158 7.225h4.992a1 1 0 0 0 1-1v-3.836h4.082v-2h-4.082v-2.776h4.082v-2h-4.082z" fill="#7aa116" fill-rule="evenodd"/></svg>