<svg height="24" width="24" xmlns="http://www.w3.org/2000/svg"><path d="m12 6.4a5.6 5.6 0 0 1 4 1.6l1-1a7.07 7.07 0 0 0 -10 0l1 1a5.6 5.6 0 0 1 4-1.6m0 11.2a5.6 5.6 0 0 1 -4-1.6l-1 1a7.07 7.07 0 0 0 10 0l-1-1a5.6 5.6 0 0 1 -4 1.6" fill="#4285f4"/><path d="m12 15.07a3.06 3.06 0 0 1 -3-2.34h-3.89v2.38l-3.11-3.11 3.11-3.1v2.38h3.89a3.06 3.06 0 0 1 3-2.34 3.06 3.06 0 0 1 3 2.34h3.91v-2.39l3.09 3.11-3.11 3.12v-2.39h-3.89a3.06 3.06 0 0 1 -3 2.34m0-4.68a1.61 1.61 0 1 0 1.61 1.61 1.61 1.61 0 0 0 -1.61-1.61" fill="#669df6"/></svg>