<svg height="64" viewBox="0 0 64 64" width="64" xmlns="http://www.w3.org/2000/svg"><g fill="none" fill-rule="evenodd"><path d="m0 0h64v64h-64z" fill="#01a88d"/><path d="m22 10c6.28 0 11.439 4.851 11.95 11h-4.188l-3.467-8.481a1.02 1.02 0 0 0 -.946-.622 1 1 0 0 0 -.92.66l-5.489 15.159-2.911-6.144a1 1 0 0 0 -.904-.572h-5.074c.511-6.149 5.67-11 11.949-11m0 24c-6.279 0-11.438-4.85-11.949-11h4.442l3.667 7.74a1.001 1.001 0 0 0 1.843-.088l5.423-14.974 2.738 6.701a1 1 0 0 0 .926.621h4.86c-.511 6.15-5.67 11-11.95 11m-13.949-11c.516 7.253 6.568 13 13.949 13s13.434-5.747 13.95-13h7.05a1 1 0 0 0 1-1v-4.124c0-1.034-.84-1.876-1.875-1.876h-2.71a17.3 17.3 0 0 0 -1.187-2.859l1.918-1.918a1.88 1.88 0 0 0 0-2.652l-4.717-4.718a1.88 1.88 0 0 0 -2.651.001l-1.918 1.919q-1.382-.725-2.86-1.188v-2.709c0-1.034-.84-1.876-1.875-1.876h-8.25a1.88 1.88 0 0 0 -1.875 1.876v2.709c-.983.308-1.939.706-2.859 1.188l-1.918-1.919a1.88 1.88 0 0 0 -2.652 0l-4.716 4.717a1.876 1.876 0 0 0 0 2.652l1.918 1.918a17.3 17.3 0 0 0 -1.188 2.859h-2.71a1.88 1.88 0 0 0 -1.875 1.876v1.124h2v-1h3.337a1 1 0 0 0 .967-.744c.35-1.321.879-2.596 1.572-3.787a1 1 0 0 0 -.157-1.21l-2.362-2.362 4.54-4.541 2.362 2.362a1 1 0 0 0 1.21.158 15.3 15.3 0 0 1 3.787-1.572 1 1 0 0 0 .744-.967v-3.337h8v3.337a1 1 0 0 0 .745.967c1.319.349 2.593.877 3.787 1.572a1 1 0 0 0 1.21-.158l2.362-2.362 4.54 4.541-2.362 2.362a1 1 0 0 0 -.158 1.21 15.3 15.3 0 0 1 1.573 3.787 1 1 0 0 0 .967.744h3.336v3h-6.05c-.516-7.253-6.568-13-13.95-13s-13.433 5.747-13.949 13h-7.051a1 1 0 0 0 -1 1v4.125c0 1.034.841 1.875 1.875 1.875h2.922c.327.981.749 1.935 1.259 2.851l-2.012 1.884a1.88 1.88 0 0 0 -.593 1.369c.001.517.216 1.015.593 1.368l5.083 4.756a1.88 1.88 0 0 0 2.564 0l2.165-2.026a19 19 0 0 0 3.144 1.227v2.696c0 1.034.841 1.875 1.875 1.875h7.25a1.876 1.876 0 0 0 1.875-1.875v-2.696a19 19 0 0 0 3.145-1.227l2.166 2.027a1.88 1.88 0 0 0 2.571-.01l4.847-4.651c.378-.354.595-.853.595-1.371 0-.517-.217-1.016-.549-1.323l-1.856-1.977c.522-.93.952-1.9 1.285-2.897h1.921a1.876 1.876 0 0 0 1.875-1.875v-1.125h-2v1h-2.535a1 1 0 0 0 -.962.728 14.8 14.8 0 0 1 -1.676 3.778 1 1 0 0 0 .121 1.213l2.324 2.475-4.682 4.493-2.594-2.428a1 1 0 0 0 -1.162-.148 17.2 17.2 0 0 1 -4.074 1.582 1 1 0 0 0 -.76.97v3.337h-7v-3.337c0-.46-.313-.86-.759-.97a17.2 17.2 0 0 1 -4.075-1.582 1 1 0 0 0 -1.161.148l-2.596 2.429-4.901-4.585 2.5-2.339a1 1 0 0 0 .166-1.258 14.8 14.8 0 0 1 -1.676-3.778 1 1 0 0 0 -.962-.728h-3.536v-3z" fill="#fff" transform="translate(10 10)"/></g></svg>