<svg xmlns="http://www.w3.org/2000/svg" width="64" height="64" viewBox="0 0 64 64"><title>Icon-Architecture/48/Arch_Amazon-Monitron_48</title><g id="Icon-Architecture/48/Arch_Amazon-Monitron_48" fill="none" fill-rule="evenodd" stroke="none" stroke-width="1"><g id="Icon-Architecture-BG/48/Machine-Learning" fill="#01a88d"><path id="Rectangle" d="M0 0h64v64H0z"/></g><g id="Icon-Service/48/Amazon-Monitron_48" fill="#fff" transform="translate(10 10)"><path id="Fill-3" d="M22 10c6.28 0 11.439 4.851 11.95 11h-4.188l-3.467-8.481a1.02 1.02 0 0 0-.946-.622 1 1 0 0 0-.92.66L18.94 27.716l-2.911-6.144a1 1 0 0 0-.904-.572h-5.074c.511-6.149 5.67-11 11.949-11m0 24c-6.279 0-11.438-4.85-11.949-11h4.442l3.667 7.74a1.001 1.001 0 0 0 1.843-.088l5.423-14.974 2.738 6.701a1 1 0 0 0 .926.621h4.86c-.511 6.15-5.67 11-11.95 11M8.051 23C8.567 30.253 14.619 36 22 36s13.434-5.747 13.95-13H43a1 1 0 0 0 1-1v-4.124C44 16.842 43.16 16 42.125 16h-2.71a17.3 17.3 0 0 0-1.187-2.859l1.918-1.918a1.88 1.88 0 0 0 0-2.652l-4.717-4.718a1.88 1.88 0 0 0-2.651.001L30.86 5.773Q29.478 5.048 28 4.585V1.876C28 .842 27.16 0 26.125 0h-8.25A1.88 1.88 0 0 0 16 1.876v2.709c-.983.308-1.939.706-2.859 1.188l-1.918-1.919a1.88 1.88 0 0 0-2.652 0L3.855 8.571a1.876 1.876 0 0 0 0 2.652l1.918 1.918A17.3 17.3 0 0 0 4.585 16h-2.71A1.88 1.88 0 0 0 0 17.876V19h2v-1h3.337a1 1 0 0 0 .967-.744c.35-1.321.879-2.596 1.572-3.787a1 1 0 0 0-.157-1.21L5.357 9.897l4.54-4.541 2.362 2.362a1 1 0 0 0 1.21.158 15.3 15.3 0 0 1 3.787-1.572A1 1 0 0 0 18 5.337V2h8v3.337a1 1 0 0 0 .745.967c1.319.349 2.593.877 3.787 1.572a1 1 0 0 0 1.21-.158l2.362-2.362 4.54 4.541-2.362 2.362a1 1 0 0 0-.158 1.21 15.3 15.3 0 0 1 1.573 3.787 1 1 0 0 0 .967.744H42v3h-6.05C35.434 13.747 29.382 8 22 8S8.567 13.747 8.051 21H1a1 1 0 0 0-1 1v4.125C0 27.159.841 28 1.875 28h2.922c.327.981.749 1.935 1.259 2.851l-2.012 1.884a1.88 1.88 0 0 0-.593 1.369c.001.517.216 1.015.593 1.368l5.083 4.756a1.88 1.88 0 0 0 2.564 0l2.165-2.026A19 19 0 0 0 17 39.429v2.696c0 1.034.841 1.875 1.875 1.875h7.25A1.876 1.876 0 0 0 28 42.125v-2.696a19 19 0 0 0 3.145-1.227l2.166 2.027a1.88 1.88 0 0 0 2.571-.01l4.847-4.651c.378-.354.595-.853.595-1.371 0-.517-.217-1.016-.549-1.323l-1.856-1.977c.522-.93.952-1.9 1.285-2.897h1.921A1.876 1.876 0 0 0 44 26.125V25h-2v1h-2.535a1 1 0 0 0-.962.728 14.8 14.8 0 0 1-1.676 3.778 1 1 0 0 0 .121 1.213l2.324 2.475-4.682 4.493-2.594-2.428a1 1 0 0 0-1.162-.148 17.2 17.2 0 0 1-4.074 1.582 1 1 0 0 0-.76.97V42h-7v-3.337c0-.46-.313-.86-.759-.97a17.2 17.2 0 0 1-4.075-1.582 1 1 0 0 0-1.161.148l-2.596 2.429-4.901-4.585 2.5-2.339a1 1 0 0 0 .166-1.258 14.8 14.8 0 0 1-1.676-3.778A1 1 0 0 0 5.536 26H2v-3z"/></g></g></svg>