<svg xmlns="http://www.w3.org/2000/svg" width="18" height="18" viewBox="0 0 18 18"><rect width="10.11" height="6.75" x=".79" y=".89" fill="currentColor" rx=".34"/><path fill="currentColor" d="M7.53 3.28v1.97l-1.68.98V4.27z"/><path fill="currentColor" d="m7.53 3.28-1.68.99-1.69-.99 1.69-.99z"/><path fill="currentColor" d="M5.85 4.27v1.96l-1.69-.98V3.28z"/><rect width="10.11" height="6.75" x="4.76" y="4.76" fill="currentColor" rx=".34"/><path fill="currentColor" d="M11.5 7.16v1.96l-1.68.99V8.14z"/><path fill="currentColor" d="m11.5 7.16-1.68.98-1.69-.98 1.69-.99z"/><path fill="currentColor" d="M9.82 8.14v1.97l-1.69-.99V7.16z"/><rect width="10.11" height="6.75" x="7.68" y="8.52" fill="currentColor" rx=".34"/><path fill="currentColor" d="M14.42 10.92v1.96l-1.68.99V11.9z"/><path fill="currentColor" d="m14.42 10.92-1.68.99-1.69-.99 1.69-.99z"/><path fill="currentColor" d="M12.74 11.91v1.96l-1.69-.99v-1.96z"/><path fill="currentColor" d="m11.05 12.88 1.69-.98v1.97z"/><path fill="currentColor" d="m14.42 12.88-1.68-.98v1.97z"/><path fill="currentColor" d="M14.76 17.32c-1-.16-1-.88-1-2h-2c0 1.16 0 1.88-1 2a.59.59 0 0 0-.5.57h5a.59.59 0 0 0-.5-.57"/></svg>