<svg viewBox="0 0 128 128" xmlns="http://www.w3.org/2000/svg" xmlns:xlink="http://www.w3.org/1999/xlink"><clipPath id="a"><path d="m35 98h29v26h-29zm0 0"/></clipPath><clipPath id="b"><path d="m62.203 109.762-25.343-11.164-1.41 15.945 27.867 8.852zm0 0"/></clipPath><clipPath id="c"><path d="m36 31h26v53h-26zm0 0"/></clipPath><clipPath id="d"><path d="m41.82 48.07h14.23v12.14h-3.374v-5.183a3.742 3.742 0 0 0 -5.625-3.285 3.738 3.738 0 0 0 -1.852 3.285v5.184h-3.379zm-2.843 26.59 21.113 9.305-1.453-17.805h2.761v-5.95h-2.05v-12.14h2.05v-3.488l-11.386-11.145v-.785a1.076 1.076 0 0 0 -2.149 0v.785l-11.39 11.145v3.488h2.05v12.14h-2.05v5.95h3.257zm0 0"/></clipPath><clipPath id="e"><path d="m37 84h25v16h-25zm0 0"/></clipPath><clipPath id="f"><path d="m37.742 88.637 23.582 10.39-.355-4.328-22.871-10.078zm0 0"/></clipPath><clipPath id="g"><path d="m37 91h25v16h-25zm0 0"/></clipPath><clipPath id="h"><path d="m37.125 95.621 24.813 10.938-.352-4.329-24.106-10.62zm0 0"/></clipPath><clipPath id="i"><path d="m38 77h23v15h-23zm0 0"/></clipPath><clipPath id="j"><path d="m38.715 77.633-.356 4.015 22.348 9.848-.352-4.328zm0 0"/></clipPath><clipPath id="k"><path d="m61 11h54v41h-54zm0 0"/></clipPath><clipPath id="l"><path d="m113.406 23.047a64.766 64.766 0 0 0 -10.98-10.387 80.398 80.398 0 0 0 -1.766-1.262l-8.328 8.66-30.394 31.61 41.851-21.66 10.73-5.551c-.37-.469-.73-.953-1.113-1.41zm0 0"/></clipPath><clipPath id="m"><path d="m61 56h67v24h-67zm0 0"/></clipPath><clipPath id="n"><path d="m128.344 63.656c-.008-.734-.051-1.46-.082-2.187l-11.89-.852-54.434-3.906 53.402 18.523 11.222 3.895c.036-.133.075-.262.106-.399a64.14 64.14 0 0 0 1.687-14.566c0-.172-.011-.34-.011-.508zm0 0"/></clipPath><clipPath id="o"><path d="m62 35h66v20h-66zm0 0"/></clipPath><clipPath id="p"><path d="m126.59 49.262a63.623 63.623 0 0 0 -5.106-13.918l-11.418 3.672-47.304 15.199 52.41-1.785 11.996-.407c-.18-.925-.36-1.851-.578-2.761zm0 0"/></clipPath><linearGradient id="q"><stop offset="0" stop-color="#60b932"/><stop offset=".282" stop-color="#60b932"/><stop offset="1" stop-color="#367c34"/></linearGradient><linearGradient id="r" gradientTransform="matrix(22.51369 0 0 -22.51369 -665.587 10862.375)" gradientUnits="userSpaceOnUse" x1="31.138" x2="32.376" xlink:href="#q" y1="477.548" y2="477.548"/><linearGradient id="s" gradientTransform="matrix(20.1358 0 0 -20.1358 -583.91 9661.344)" gradientUnits="userSpaceOnUse" x1="30.81" x2="32.048" xlink:href="#q" y1="476.94" y2="476.94"/><linearGradient id="t" gradientTransform="matrix(19.05163 0 0 -19.05163 -546.026 9160.86)" gradientUnits="userSpaceOnUse" x1="30.641" x2="31.879" xlink:href="#q" y1="476.024" y2="476.024"/><linearGradient id="u" gradientTransform="matrix(20.0487 0 0 -20.0487 -580.425 9652.296)" gradientUnits="userSpaceOnUse" x1="30.802" x2="32.04" xlink:href="#q" y1="476.5" y2="476.5"/><linearGradient id="v" gradientTransform="matrix(18.05456 0 0 -18.05456 -511.625 8669.424)" gradientUnits="userSpaceOnUse" x1="30.462" x2="31.7" xlink:href="#q" y1="475.495" y2="475.495"/><linearGradient id="w" gradientTransform="matrix(39.2961175 -29.10201627 -29.10201627 -39.2961175 12958.138469 19976.698032)" gradientUnits="userSpaceOnUse" x1="30.575" x2="31.813" y1="484.412" y2="484.412"><stop offset="0" stop-color="#4596d8"/><stop offset=".2" stop-color="#4596d8"/><stop offset="1" stop-color="#fff"/></linearGradient><linearGradient id="x" gradientTransform="matrix(56.39558379 11.50969175 11.50969175 -56.39558379 -7401.564469 26928.694527)" gradientUnits="userSpaceOnUse" x1="33.693" x2="34.931" y1="483.348" y2="483.348"><stop offset="0" stop-color="#4194d7"/><stop offset=".2" stop-color="#4194d7"/><stop offset="1" stop-color="#fff"/></linearGradient><linearGradient id="y" gradientTransform="matrix(51.95635552 -9.37182989 -9.37182989 -51.95635552 2919.671465 25474.043027)" gradientUnits="userSpaceOnUse" x1="32.218" x2="33.456" y1="483.434" y2="483.434"><stop offset="0" stop-color="#4194d7"/><stop offset=".333" stop-color="#4496d8"/><stop offset="1" stop-color="#fff"/></linearGradient><path d="m9.227 64.164c0-30.348 24.601-54.95 54.949-54.95 30.347 0 54.953 24.602 54.953 54.95s-24.602 54.95-54.95 54.95c-30.35 0-54.952-24.602-54.952-54.95" fill="#fff"/><g clip-path="url(#a)"><g clip-path="url(#b)"><path d="m62.203 109.762-25.343-11.164-1.41 15.945 27.867 8.852-1.113-13.633" fill="url(#r)"/></g></g><g clip-path="url(#c)"><g clip-path="url(#d)"><path d="m41.82 48.07h14.23v12.14h-3.374v-5.183a3.742 3.742 0 0 0 -5.625-3.285 3.738 3.738 0 0 0 -1.852 3.285v5.184h-3.379zm-2.843 26.59 21.113 9.305-1.453-17.805h2.761v-5.95h-2.05v-12.14h2.05v-3.488l-11.386-11.145v-.785a1.076 1.076 0 0 0 -2.149 0v.785l-11.39 11.145v3.488h2.05v12.14h-2.05v5.95h3.257z" fill="url(#s)"/></g></g><g clip-path="url(#e)"><g clip-path="url(#f)"><path d="m37.742 88.637 23.582 10.39-.355-4.328-22.875-10.078-.356 4.016" fill="url(#t)"/></g></g><g clip-path="url(#g)"><g clip-path="url(#h)"><path d="m37.125 95.621 24.813 10.938-.352-4.329-24.106-10.62z" fill="url(#u)"/></g></g><g clip-path="url(#i)"><g clip-path="url(#j)"><path d="m38.715 77.633-.356 4.015 22.348 9.848-.352-4.328z" fill="url(#v)"/></g></g><path d="m110.066 39.016 11.418-3.672c-.043-.078-.074-.164-.117-.242a64.245 64.245 0 0 0 -6.847-10.645l-10.73 5.55a52.673 52.673 0 0 1 6.175 8.813c.035.063.066.13.101.196m6.305 21.601 11.89.852a63.947 63.947 0 0 0 -1.093-9.446l-11.996.407a52.117 52.117 0 0 1 1.2 8.187" fill="#696566"/><path d="m64.18 116.512c-22.305.023-42.172-14.09-49.496-35.157-7.325-21.07-.496-44.464 17.007-58.28 17.509-13.822 41.849-15.033 60.641-3.017l8.324-8.66c-23.133-15.997-53.988-15.06-76.113 2.308s-30.355 47.122-20.309 73.391c10.047 26.274 36.036 42.938 64.102 41.11s51.672-21.723 58.227-49.078l-11.227-3.895c-5.238 24.07-26.527 41.246-51.16 41.278" fill="#696566"/><g clip-path="url(#k)"><g clip-path="url(#l)"><path d="m113.406 23.047a64.766 64.766 0 0 0 -10.98-10.387 80.398 80.398 0 0 0 -1.766-1.262l-8.328 8.66-30.394 31.61 41.851-21.66 10.73-5.551c-.37-.469-.73-.953-1.113-1.41" fill="url(#w)"/></g></g><g clip-path="url(#m)"><g clip-path="url(#n)"><path d="m128.344 63.656c-.008-.734-.051-1.46-.082-2.187l-11.89-.852-54.434-3.906 53.402 18.523 11.222 3.895c.036-.133.075-.262.106-.399a64.14 64.14 0 0 0 1.687-14.566c0-.172-.011-.34-.011-.508" fill="url(#x)"/></g></g><g clip-path="url(#o)"><g clip-path="url(#p)"><path d="m126.59 49.262a63.623 63.623 0 0 0 -5.106-13.918l-11.418 3.672-47.304 15.199 52.41-1.785 11.996-.407c-.18-.925-.36-1.851-.578-2.761" fill="url(#y)"/></g></g></svg>