<svg xmlns="http://www.w3.org/2000/svg" viewBox="0 0 128 128"><path fill="#666" d="M61.868.039C53.614.317 45.74 2.104 38.31 5.386 18.051 14.34 3.768 33.081.661 54.796-.687 64.215.03 73.704 2.776 82.733a64 64 0 0 0 4.64 11.193c10.663 19.97 30.793 32.832 53.217 33.995 7.918.41 16.327-.792 24.069-3.44 18.264-6.247 32.83-20.523 39.465-38.681 5.324-14.575 5.093-31.042-.639-45.381-2.476-6.195-6.028-12.2-10.15-17.157C100.536 7.821 81.788-.632 61.868.04m.045 1.318c19.52-.657 37.861 7.611 50.45 22.748 4.026 4.84 7.515 10.74 9.938 16.803 5.607 14.027 5.836 30.176.625 44.437-6.497 17.784-20.765 31.768-38.65 37.885-7.58 2.593-15.836 3.772-23.572 3.371-21.963-1.139-41.675-13.728-52.123-33.297A63 63 0 0 1 4.038 82.35C1.349 73.506.647 64.214 1.968 54.984c3.041-21.26 17.03-39.62 36.876-48.39C46.12 3.377 53.821 1.63 61.913 1.356m-.223 10.406-.324.014-.008.022c-4.103.207-8.186.873-12.11 2.03a49.4 49.4 0 0 0-8.456 3.329c-5.344 2.665-9.468 5.643-13.77 9.943-3.307 3.305-5.631 6.273-7.98 10.186-3.982 6.632-6.348 13.903-7.166 21.994-.228 2.246-.228 7.23-.002 9.488.264 2.64.735 5.42 1.31 7.74 2.8 11.288 9.254 21.283 18.445 28.563a66 66 0 0 0 2.99 2.205c.118.08.213.144.298.195.034.021.072.045.123.07l.004.003q.002 0 .003.002a1 1 0 0 0 .122.048l.005.002.004.002c-.012-.003.09.023.162.026.05.002.082-.002.082-.002l.057-.008h.004l.004-.002.01-.002.008-.002h.009l.022-.006.068-.027h.092l.146-.149.057-.068.01-.014.01-.014.004-.006h-.002l.033-.05s.018-.036.015-.032l.01-.021.008-.02.01-.025.012-.041.002-.006.011-.05.002-.007.006-.043v-.002l.012-.086.027-.273c.024-.231.057-.562.096-.969.077-.813.178-1.929.287-3.152.109-1.222.211-2.336.287-3.145l.041-.428.25.108c.68.295 1.65.72 2.815 1.23 2.33 1.021 5.436 2.387 8.543 3.756 3.107 1.37 6.215 2.74 8.552 3.776a952 952 0 0 1 2.83 1.26q.497.221.77.345c.02.157.042.347.068.6.06.58.131 1.38.201 2.25a251 251 0 0 0 .264 3.013l.026.221c.002.016.003.036.01.078v.004c-.003-.016.014.087.033.14l.002.003s-.027-.014.056.125a.65.65 0 0 0 .184.203l.002.002c.08.058.169.088.154.082l.002.002c.05.02.113.038.166.049.085.016.165.023.254.03q.272.024.686.032c.552.013 1.287.01 2.08-.002 1.585-.025 3.376-.092 4.357-.197a63 63 0 0 0 5.525-.858c12.34-2.557 23.398-9.579 31.096-19.738 3.291-4.343 5.98-9.392 7.727-14.516.355-1.041.74-2.304 1.039-3.367.15-.531.277-1.012.369-1.396.09-.378.16-.626.16-.9l-.027-.159v-.004l-.006-.013-.012-.036-.012-.037-.004-.011-.002-.002-.076-.143-.037-.045-.012-.012c-.01-.01.004-.004-.06-.056-.048-.039-.122-.078-.092-.06a1 1 0 0 0-.074-.038l-.002-.002-.114-.049q-.127-.052-.355-.136-.464-.173-1.355-.49a905 905 0 0 0-5.229-1.85 5959 5959 0 0 0-19.639-6.844c-7.332-2.544-13.994-4.857-18.822-6.537-1.34-.466-2.143-.748-3.176-1.108.97.069 1.681.118 2.907.206 4.812.342 11.446.818 18.742 1.343s13.959 1.001 18.816 1.348c2.429.173 4.406.315 5.785.412.69.049 1.23.086 1.604.111l.43.03.119.007c.012.001.032.006.08.006.07.001.154.002.254-.013a.77.77 0 0 0 .478-.256.8.8 0 0 0 .186-.479v-.002c.005-.102-.004-.18-.01-.248v-.002a64 64 0 0 0-.567-4.68 67 67 0 0 0-.388-2.128 19 19 0 0 0-.159-.717c-.02-.087-.037-.164-.06-.238l-.002-.006a1 1 0 0 0-.04-.114h-.001v-.002c.003.007-.016-.025-.016-.023v-.096l-.166-.148-.336-.162h-.002l-.002-.002h-.006l-.056-.006c-.017-.002-.019-.004-.038-.004h-.044l-.112.002-.4.01c-.349.009-.858.025-1.514.045-1.312.04-3.204.1-5.539.175-4.67.153-11.108.369-18.183.61a16633 16633 0 0 1-18.176.61l-2.965.097 2.416-.781c4.204-1.357 10.009-3.226 16.396-5.278s12.198-3.92 16.414-5.277c2.109-.679 3.818-1.231 5.002-1.613l1.366-.442.359-.117.098-.031c.032-.011.038-.015.029-.012l-.055.012.069-.018.008-.002.017-.006.059-.029.015-.008.02-.012.02-.011.035-.022.03-.025.177-.23.004-.008.002-.008.02-.055.001-.006.002-.01.006-.021c.004-.017.01-.013.02-.092a.8.8 0 0 0-.004-.193c-.013-.076-.041-.148-.037-.137q-.03-.079-.061-.144a6 6 0 0 0-.166-.313 60 60 0 0 0-1.955-3.184 57 57 0 0 0-3.178-4.308l-1.201-1.481-1.102.556c-.242.122-2.642 1.361-6.232 3.217A50674 50674 0 0 0 64.122 49.31l2.312-2.41c2.733-2.847 6.448-6.715 10.487-10.912a12266 12266 0 0 0 13.543-14.1l.863-.906c.098-.103.173-.18.228-.24l.065-.068.002-.002.02-.022.003-.004c.019-.021.027-.034.022-.027l.013-.018.004-.006.004-.004.088-.166v-.002l.035-.199v-.043c0-.016.005-.021-.008-.092a.7.7 0 0 0-.162-.337 1 1 0 0 0-.123-.12 3 3 0 0 0-.226-.166q-.26-.175-.684-.43a58 58 0 0 0-2.135-1.206c-4.21-2.273-9.35-4.116-14.232-5.104a52 52 0 0 0-12.55-.963m46.904 28.051.004-.002zm4.948 12.012s.014 0-.045-.006h-.006zM61.747 13.082h.002c4.11-.181 8.238.129 12.23.937 4.745.96 9.79 2.77 13.867 4.97.795.43 1.543.857 2.082 1.18.096.058.14.09.221.14l-.639.67c-.747.781-1.829 1.907-3.162 3.296-2.665 2.778-6.338 6.601-10.377 10.799a13460 13460 0 0 0-10.49 10.912L62.2 49.41l-.932.976c-.221.233-.33.342-.398.42l-.664.758.709.902 1.633-.855c.872-.457 10.545-5.464 20.076-10.395l13.088-6.77c3.59-1.855 6.09-3.146 6.22-3.212l.153-.076.533.658a56 56 0 0 1 3.105 4.207c.41.616.952 1.485 1.377 2.195.14.233.234.401.34.584l-1.101.358-5.002 1.613C97.12 42.13 91.31 43.997 84.923 46.05s-12.193 3.92-16.399 5.277a2606 2606 0 0 0-6.338 2.056l-.355.118-.098.033h-.002l-.04.016a.2.2 0 0 0-.04.015c-.092.042-.057.03-.064.035l-.008.006h-.002l-.002.002s-.23.36-.23.363v.01l-.005.03-.01.087-.01.088-.003.04.142.41h.002s.138.097.147.101l.035.016.033.015.012.006.002.002h.002l.002.002.154.043s-.086-.005.035.004l.006.002h.008c.034.002.054 0 .031 0h.041l.108-.002.398-.012 1.51-.044a17233 17233 0 0 0 23.717-.791 12696 12696 0 0 1 23.717-.786c.655-.02 1.165-.033 1.51-.043h.01c.03.137.06.262.097.45.113.56.252 1.31.381 2.084.188 1.124.362 2.634.5 4.109l-.078-.006-1.6-.113-5.785-.41a38475 38475 0 0 1-18.814-1.35c-7.296-.525-13.931-1-18.744-1.342-2.407-.171-4.359-.311-5.71-.406l-1.556-.107-.408-.028-.11-.006c.001 0 0-.002-.029-.004h-.065s-.077.009-.091.012l-.03.008-.025.008-.025.008-.006.002h-.084l-.137.11s-.173.505-.166.573l.01.094.004.033.002.01.261.387s.079.035.036.015l.007.004.008.004.022.01h.004l.037.015.107.04.408.142 1.555.545a23405 23405 0 0 0 24.547 8.533c8.406 2.916 15.07 5.238 19.633 6.84 2.281.801 4.037 1.421 5.22 1.846.566.202.981.354 1.278.465-.015.073-.011.082-.035.181a38 38 0 0 1-.358 1.348 68 68 0 0 1-1.015 3.295c-1.699 4.982-4.327 9.92-7.53 14.146-7.507 9.908-18.29 16.753-30.312 19.244a62 62 0 0 1-5.371.832l-.026.004h-.002c-.868.093-2.674.169-4.236.194a55 55 0 0 1-2.031 0c-.137-.003-.208-.01-.313-.014l-.045-.484c-.054-.595-.122-1.402-.193-2.274a110 110 0 0 0-.207-2.277c-.03-.297-.057-.544-.08-.725a5 5 0 0 0-.033-.228q-.006-.036-.022-.104v-.002c-.012-.048-.022-.067-.025-.076l-.004-.008-.012-.03v-.08l-.156-.146-.006-.004-.04-.033-.01-.01c-.01-.006.005-.002-.054-.037l-.002-.002-.011-.006-.002-.002-.045-.023c-.031-.017-.054-.027-.08-.04h-.002l-.221-.101a1028 1028 0 0 0-3.64-1.621 4850 4850 0 0 0-17.1-7.537 953 953 0 0 0-2.82-1.23q-.516-.225-.795-.343c-.09-.038-.16-.069-.22-.093l-.07-.028h.004l-.048-.017h-.004c-.06-.019-.059-.015-.053-.014h-.002l-.082-.014h-.047l-.049.004c-.022.003-.033.006-.043.008l-.045.01-.066.02-.057.015-.017.006-.008.002-.203.123-.118.156-.003.008-.004.01-.022.045-.002.01-.002.004-.006.013-.015.057-.002.006-.002.006v.002c0-.003-.002-.002-.01.046l-.008.043.002-.002-.01.086-.029.272c-.023.23-.056.559-.094.965a707 707 0 0 0-.287 3.152c-.109 1.222-.21 2.336-.287 3.145l-.023.232c-.117-.083-.199-.138-.329-.232a66 66 0 0 1-2.05-1.54C23.48 96.936 17.19 87.197 14.46 76.192c-.556-2.244-1.017-4.978-1.275-7.555-.206-2.055-.204-7.183.002-9.223.8-7.916 3.105-14.984 6.986-21.449 2.304-3.837 4.535-6.684 7.782-9.93 4.22-4.218 8.187-7.085 13.423-9.697a48 48 0 0 1 8.243-3.244 51 51 0 0 1 12.125-2.012zM48.08 31.242l.113.012-.057-.012zm0 0c-.499 0-.99.194-1.301.59-.303.385-.408.877-.408 1.404v.188l-5.393 5.265-5.789 5.65-.004 2.047-.006 2.432h2.012v10.656h-2.01v7.178h3.113c-.017.217-.04.485-.07.826-.064.756-.149 1.766-.246 2.852a133 133 0 0 0-.266 3.207 8 8 0 0 0-.02.691c.004.085.009.17.028.262.001.006.099.339.317.478h.002c.045.03.145.076.09.05.04.018.05.02.054.023l.172.08.623.28 2.246.995c1.883.834 4.462 1.974 7.287 3.219l.004.002.03.012c4.07 1.793 6.641 2.92 8.189 3.578.777.33 1.297.545 1.643.676.171.065.298.109.414.14.052.014.132.032.218.037.012 0 .16.003.266-.033.006-.002.055-.017.12-.053.074-.042.078-.051.093-.064.013-.01.029-.026.035-.031l.006-.006.02-.02.011-.013.02-.024.004-.006.021-.03q.007-.01.008-.013l.008-.011.008-.016.02-.035.017-.035.01-.016q0-.004.005-.012l.006-.013.01-.022.002-.008.004-.01.01-.027.004-.017.007-.034.008-.06v-.014l.002-.033v-.041l-.002-.059v-.002l-.008-.154v-.002q-.012-.195-.037-.535c-.033-.456-.083-1.101-.144-1.893a1588 1588 0 0 0-.488-6.107l-.485-5.922c-.099-1.212-.138-1.71-.164-2.03a29 29 0 0 1 .643-.007h2.015v-7.178h-2.011V48.818h2.011v-4.422l-5.793-5.676-5.396-5.289v-.144c0-.548-.118-1.056-.44-1.45-.328-.4-.835-.595-1.355-.595m0 1.316c.232 0 .27.034.336.116.057.069.138.257.138.613v.699l5.795 5.678 5.395 5.287V47.5h-2.01v13.295h2.01v4.537h-.696c-.378 0-.72.005-.976.013h-.002a8 8 0 0 0-.318.016 2 2 0 0 0-.133.016 1 1 0 0 0-.12.027c.022-.007-.014.003-.062.023h-.002c-.05.022-.047.022-.057.028l-.037.021-.164.15h-.002v.003l-.09.156-.002.004-.002.006-.046.242c0 .024.318 3.96.705 8.682.193 2.36.365 4.522.488 6.103.053.68.091 1.19.123 1.623-.304-.122-.57-.227-1.101-.453a829 829 0 0 1-8.202-3.582l-.005-.002-.018-.008-.004-.002a4469 4469 0 0 1-9.504-4.203l-.498-.223c.002-.104.001-.176.012-.357.035-.582.117-1.573.26-3.168a637 637 0 0 0 .326-3.781c.018-.228.03-.34.03-.452v-.882H36.5v-4.537h2.01V47.5h-2.008l.002-1.11.003-1.492 5.393-5.266 5.79-5.652v-.744c0-.345.08-.533.124-.59.056-.07.059-.088.266-.088M40.426 47.5v13.295h4.623l.036-3.647c.013-1.35.025-2.108.05-2.543.026-.438.039-.467.092-.594.527-1.25 1.423-1.92 2.645-2.023a3.034 3.034 0 0 1 3.228 2.53c-.002-.014.016.141.026.33.01.187.02.435.027.714.015.56.025 1.265.025 1.975l.002 3.271 2.307-.033 2.285-.035.026-6.611.025-6.63h-7.7zm1.319 1.318h12.754l-.02 5.305-.021 5.318-.99.014-.971.013v-1.931c0-.722-.01-1.437-.026-2.012-.015-.573-.027-.958-.07-1.223-.364-2.224-2.396-3.815-4.639-3.627-1.683.142-3.065 1.199-3.75 2.823-.102.242-.164.533-.193 1.031-.029.495-.041 1.253-.055 2.605l-.021 2.34h-1.998v-5.326zm-2.899 27.637-.42.328-.021-.043-.262-.02-.027-.002-.059-.002h-.004l-.006.002h-.031l-.002.002h-.006l-.037.004-.154.05-.012.005-.031.016-.033.015-.01.006-.004.002-.12.084-.009.008s.006-.025-.07.082a.4.4 0 0 0-.037.059c-.028.049-.048.102-.037.078h-.002c-.018.04-.027.082-.028.084l-.021.09v.002q-.016.082-.03.166l-.017.148-.152.12.132.052-.017.142a79 79 0 0 0-.237 2.672q-.019.28-.027.463a3 3 0 0 0-.002.164v.002c0 .005-.001.04.006.1a1 1 0 0 0 .02.1v.001c0 .003.012.052.033.1.021.05.024.05.029.059l.023.037.088.11h.002v.001l.118.092.002.002.007.004.004.004.006.002.024.013.002.002.003.002.036.018.048.021.176.08q.23.105.653.294l2.369 1.052a3846 3846 0 0 0 15.49 6.822 649 649 0 0 0 3.016 1.31l.18.073c.016.007.032.015.062.026q.055.02.045.013h.002v.002c-.076-.023.01.007.066.018h.002c.1.02.075.01.08.01h.031l.186-.03.014-.005.011-.004h.106l.14-.127.106-.121.004-.004.002-.006.025-.043c.005-.009.008-.008.028-.05v-.003c.02-.049.038-.11.037-.107a1 1 0 0 0 .017-.1 1 1 0 0 0 .008-.096q.001-.076-.002-.166v-.002a18 18 0 0 0-.025-.47 82 82 0 0 0-.225-2.78c-.02-.199-.04-.37-.057-.5v-.002q-.01-.093-.023-.173c-.003-.016-.016-.117-.053-.211V86.6c-.05-.125-.21-.287-.181-.262-.05-.046-.092-.07-.1-.076a2 2 0 0 0-.16-.1 9 9 0 0 0-.46-.236 78 78 0 0 0-1.83-.852c-1.677-.762-4.33-1.94-8.277-3.68a1645 1645 0 0 0-7.496-3.283c-.964-.419-1.748-.759-2.295-.992-.172-.073-.275-.115-.398-.166zm-.24 1.857.053.022c.541.23 1.324.566 2.287.984 1.926.837 4.577 2 7.488 3.283 3.946 1.74 6.6 2.917 8.266 3.674.833.379 1.422.651 1.795.834.122.06.183.093.258.133a80 80 0 0 1 .232 2.686q-.831-.361-2.266-.989a4734 4734 0 0 1-15.484-6.818 1054 1054 0 0 1-2.846-1.266l.008-.162a63 63 0 0 1 .106-1.307 72 72 0 0 1 .103-1.074m-1.723 5.06.059.419-.045.047-.025.039c-.005.008-.004.004-.026.048-.015.031-.034.08-.035.082v.002l-.023.084-.014.075-.02.148a117 117 0 0 0-.316 3.635l-.006.152v.076c.003.074.009.084.008.079a1 1 0 0 0 .023.097l.018.053.006.014.004.007.004.008.006.016.127.18.105.083.002.002.016.012.007.004.012.008.012.006.014.008.003.002.004.002.032.015.048.022.184.082c.155.07.386.174.684.306.592.264 1.448.642 2.5 1.108 2.104.93 5 2.208 8.183 3.611a1096 1096 0 0 0 9.24 4.043c.878.375 1.469.622 1.856.772.195.075.337.125.455.16.043.012.111.036.209.047v-.002c.009 0 .146.01.248-.014h.002a1 1 0 0 0 .117-.041h.002c.083-.037.085-.047.102-.059l.047-.035.002-.002.15-.174v-.002h.002l.082-.232c.013-.082.01-.171.01-.186l-.006-.16a26 26 0 0 0-.027-.48 90 90 0 0 0-.11-1.44 29 29 0 0 0-.164-1.64 2.5 2.5 0 0 0-.094-.438.9.9 0 0 0-.353-.476c-.043-.028-.115-.06-.092-.05l-.062-.029-.207-.095q-.266-.12-.735-.328l-2.562-1.139a5363 5363 0 0 0-17.881-7.879l-.713-.309c-.079-.033-.138-.06-.193-.084l-.059-.023-.002-.002-.035-.012h-.002c.131.047.034.007-.043-.015zm1.11 1.8.146.064c.61.266 1.478.645 2.522 1.104a5468 5468 0 0 1 15.352 6.77c1.053.466 1.934.86 2.558 1.138l.73.326.032.014c.006.03.007.026.013.066.04.268.089.761.155 1.555.034.418.06.771.084 1.105a66 66 0 0 1-1.393-.58c-1.744-.746-4.637-2.013-9.225-4.035-3.182-1.403-6.08-2.685-8.183-3.615-1.052-.466-1.905-.843-2.496-1.106l-.514-.228.012-.162a117 117 0 0 1 .207-2.416m-1.612 5.162-.005.306-.123.153-.024.045-.012.023v.004l-.002.004-.023.062-1.188.127 1.108.469-.016.15a154 154 0 0 0-.273 3.168c-.004.055-.008.099-.01.145v.07c0-.056-.003.003.004.067.01.103.014.081.017.093l.006.02.002.01.002.01.002.003.02.057.154.22.112.085.011.008.008.005.027.016.008.004.002.002h.002l.018.008.004.002.004.002.052.023.19.084c.164.074.409.182.72.32l2.627 1.163c2.215.978 5.266 2.326 8.62 3.804a1167 1167 0 0 0 9.734 4.258c.925.396 1.547.655 1.953.813.203.078.35.132.473.17.045.013.112.032.199.044a1 1 0 0 0 .252-.006c.096-.02.11-.035.103-.033l.006-.002.006-.002c.075-.03.078-.039.094-.049l.066-.043.002-.002.162-.189c.009-.021.084-.224.084-.225l.002-.002v-.002c.025-.155.011-.264.006-.386a19 19 0 0 0-.03-.516 67 67 0 0 0-.118-1.4 62 62 0 0 0-.139-1.362q-.034-.287-.062-.472c-.009-.057-.014-.108-.028-.17a1 1 0 0 0-.025-.098v-.002c-.011-.036-.026-.066-.033-.082l-.002-.004v-.004c.008.018-.01-.023-.041-.074-.062-.099-.06-.082-.073-.096l-.027-.027-.004-.004-.004-.004-.113-.088-.006-.004-.004-.002q-.079-.047-.04-.023l-.012-.006-.012-.006-.063-.03-.213-.097q-.271-.124-.763-.344a900 900 0 0 0-2.696-1.201c-2.224-.987-5.18-2.292-8.136-3.596s-5.91-2.604-8.127-3.576a991 991 0 0 0-2.684-1.174l-.756-.326q-.13-.057-.207-.088h-.002l-.066-.028-.04-.013h-.003l-.004-.002c.072.023-.001-.003-.055-.016zm1.004 1.738.202.088c.646.28 1.571.686 2.68 1.172a4469 4469 0 0 1 16.255 7.172c1.112.493 2.042.905 2.693 1.197l.72.322c.01.082.022.15.034.26a71 71 0 0 1 .232 2.46c-.38-.152-.792-.319-1.525-.632-1.838-.787-4.886-2.124-9.718-4.254-3.354-1.478-6.403-2.825-8.618-3.803l-2.628-1.16-.553-.246.012-.156c.029-.366.07-.854.113-1.342q.053-.587.101-1.078m22.28 2.516.002.003-.032.124-.01-.004zM60.8 109.57l.01.004c-.066-.025-.085-.034-.008-.002z"/></svg>