<svg viewBox="0 0 24 24" xmlns="http://www.w3.org/2000/svg"><path d="m7.006 15.751 4.256 1.876.066.805-4.388-1.934zm.304-3.435h-.605v-1.106h.381v-2.26h-.381v-.649l2.118-2.073v-.146c0-.11.09-.2.2-.2s.2.09.2.2v.146l2.12 2.073v.65h-.382v2.259h.381v1.106h-.514l.27 3.313-3.928-1.729.14-1.583zm.39-1.106h.628v-.965c0-.383.313-.696.695-.696s.696.313.696.696v.965h.628v-2.26h-2.647zm-.81 5.84-.066.747 4.618 2.035-.066-.805zm.23-2.6-.066.747 4.158 1.832-.065-.805-4.026-1.774zm16.88-2.45c0 6.617-5.383 12-12 12s-12-5.383-12-12 5.383-12 12-12 12 5.383 12 12zm-2.43-.715a9.682 9.682 0 0 0 -.223-1.523l-9.751.332 8.801-2.828-.019-.037a9.802 9.802 0 0 0 -1.148-1.639l-7.786 4.03 5.712-5.941a9.675 9.675 0 0 0 -5.14-1.474c-5.371 0-9.74 4.369-9.74 9.74 0 3.38 1.73 6.362 4.35 8.11l.151-1.704 4.715 2.078.102 1.246c.14.006.28.01.422.01 4.646 0 8.54-3.27 9.507-7.63l-10.08-3.497 10.128.727"/></svg>