<svg xmlns="http://www.w3.org/2000/svg" xmlns:xlink="http://www.w3.org/1999/xlink" viewBox="0 0 128 128"><clipPath id="b"><path d="M35 98h29v26H35zm0 0"/></clipPath><clipPath id="c"><path d="M62.203 109.762 36.86 98.598l-1.41 15.945 27.867 8.852zm0 0"/></clipPath><clipPath id="e"><path d="M36 31h26v53H36zm0 0"/></clipPath><clipPath id="f"><path d="M41.82 48.07h14.23v12.14h-3.374v-5.183a3.742 3.742 0 0 0-5.625-3.285 3.74 3.74 0 0 0-1.852 3.285v5.184H41.82zm-2.843 26.59 21.113 9.305-1.453-17.805h2.761v-5.95h-2.05V48.07h2.05v-3.488L50.012 33.437v-.785a1.076 1.076 0 0 0-2.149 0v.785l-11.39 11.145v3.488h2.05v12.14h-2.05v5.95h3.257zm0 0"/></clipPath><clipPath id="h"><path d="M37 84h25v16H37zm0 0"/></clipPath><clipPath id="i"><path d="m37.742 88.637 23.582 10.39-.355-4.328-22.871-10.078zm0 0"/></clipPath><clipPath id="k"><path d="M37 91h25v16H37zm0 0"/></clipPath><clipPath id="l"><path d="m37.125 95.621 24.813 10.938-.352-4.329L37.48 91.61zm0 0"/></clipPath><clipPath id="n"><path d="M38 77h23v15H38zm0 0"/></clipPath><clipPath id="o"><path d="m38.715 77.633-.356 4.015 22.348 9.848-.352-4.328zm0 0"/></clipPath><clipPath id="q"><path d="M61 11h54v41H61zm0 0"/></clipPath><clipPath id="r"><path d="M113.406 23.047a64.8 64.8 0 0 0-10.98-10.387 80 80 0 0 0-1.766-1.262l-8.328 8.66-30.394 31.61 41.851-21.66 10.73-5.551c-.37-.469-.73-.953-1.113-1.41m0 0"/></clipPath><clipPath id="t"><path d="M61 56h67v24H61zm0 0"/></clipPath><clipPath id="u"><path d="M128.344 63.656c-.008-.734-.051-1.46-.082-2.187l-11.89-.852-54.434-3.906 53.402 18.523 11.222 3.895c.036-.133.075-.262.106-.399a64 64 0 0 0 1.687-14.566c0-.172-.011-.34-.011-.508m0 0"/></clipPath><clipPath id="w"><path d="M62 35h66v20H62zm0 0"/></clipPath><clipPath id="x"><path d="M126.59 49.262a63.6 63.6 0 0 0-5.106-13.918l-11.418 3.672-47.304 15.199 52.41-1.785 11.996-.407c-.18-.925-.36-1.851-.578-2.761m0 0"/></clipPath><linearGradient id="a"><stop offset="0" stop-color="#60b932"/><stop offset=".282" stop-color="#60b932"/><stop offset="1" stop-color="#367c34"/></linearGradient><linearGradient xlink:href="#a" id="d" x1="31.138" x2="32.376" y1="477.548" y2="477.548" gradientTransform="matrix(22.51369 0 0 -22.51369 -665.587 10862.375)" gradientUnits="userSpaceOnUse"/><linearGradient xlink:href="#a" id="g" x1="30.81" x2="32.048" y1="476.94" y2="476.94" gradientTransform="matrix(20.1358 0 0 -20.1358 -583.91 9661.344)" gradientUnits="userSpaceOnUse"/><linearGradient xlink:href="#a" id="j" x1="30.641" x2="31.879" y1="476.024" y2="476.024" gradientTransform="matrix(19.05163 0 0 -19.05163 -546.026 9160.86)" gradientUnits="userSpaceOnUse"/><linearGradient xlink:href="#a" id="m" x1="30.802" x2="32.04" y1="476.5" y2="476.5" gradientTransform="matrix(20.0487 0 0 -20.0487 -580.425 9652.296)" gradientUnits="userSpaceOnUse"/><linearGradient xlink:href="#a" id="p" x1="30.462" x2="31.7" y1="475.495" y2="475.495" gradientTransform="matrix(18.05456 0 0 -18.05456 -511.625 8669.424)" gradientUnits="userSpaceOnUse"/><linearGradient id="s" x1="30.575" x2="31.813" y1="484.412" y2="484.412" gradientTransform="rotate(143.477 3183.183 12126.268)scale(-48.899 48.899)" gradientUnits="userSpaceOnUse"><stop offset="0" stop-color="#4596d8"/><stop offset=".2" stop-color="#4596d8"/><stop offset="1" stop-color="#fff"/></linearGradient><linearGradient id="v" x1="33.693" x2="34.931" y1="483.348" y2="483.348" gradientTransform="rotate(191.535 -2340.84 13838.138)scale(-57.5581 57.5581)" gradientUnits="userSpaceOnUse"><stop offset="0" stop-color="#4194d7"/><stop offset=".2" stop-color="#4194d7"/><stop offset="1" stop-color="#fff"/></linearGradient><linearGradient id="y" x1="32.218" x2="33.456" y1="483.434" y2="483.434" gradientTransform="rotate(169.775 320.286 12867.63)scale(-52.79483 52.79483)" gradientUnits="userSpaceOnUse"><stop offset="0" stop-color="#4194d7"/><stop offset=".333" stop-color="#4496d8"/><stop offset="1" stop-color="#fff"/></linearGradient><path fill="#fff" d="M9.227 64.164c0-30.348 24.601-54.95 54.949-54.95s54.953 24.602 54.953 54.95-24.602 54.95-54.95 54.95c-30.35 0-54.952-24.602-54.952-54.95"/><g clip-path="url(#b)"><g clip-path="url(#c)"><path fill="url(#d)" d="M62.203 109.762 36.86 98.598l-1.41 15.945 27.867 8.852-1.113-13.633"/></g></g><g clip-path="url(#e)"><g clip-path="url(#f)"><path fill="url(#g)" d="M41.82 48.07h14.23v12.14h-3.374v-5.183a3.742 3.742 0 0 0-5.625-3.285 3.74 3.74 0 0 0-1.852 3.285v5.184H41.82zm-2.843 26.59 21.113 9.305-1.453-17.805h2.761v-5.95h-2.05V48.07h2.05v-3.488L50.012 33.437v-.785a1.076 1.076 0 0 0-2.149 0v.785l-11.39 11.145v3.488h2.05v12.14h-2.05v5.95h3.257z"/></g></g><g clip-path="url(#h)"><g clip-path="url(#i)"><path fill="url(#j)" d="m37.742 88.637 23.582 10.39-.355-4.328-22.875-10.078-.356 4.016"/></g></g><g clip-path="url(#k)"><g clip-path="url(#l)"><path fill="url(#m)" d="m37.125 95.621 24.813 10.938-.352-4.329L37.48 91.61z"/></g></g><g clip-path="url(#n)"><g clip-path="url(#o)"><path fill="url(#p)" d="m38.715 77.633-.356 4.015 22.348 9.848-.352-4.328z"/></g></g><path fill="#696566" d="m110.066 39.016 11.418-3.672c-.043-.078-.074-.164-.117-.242a64.3 64.3 0 0 0-6.847-10.645l-10.73 5.55a52.7 52.7 0 0 1 6.175 8.813zm6.305 21.601 11.89.852a64 64 0 0 0-1.093-9.446l-11.996.407a52 52 0 0 1 1.2 8.187"/><path fill="#696566" d="M64.18 116.512c-22.305.023-42.172-14.09-49.496-35.157-7.325-21.07-.496-44.464 17.007-58.28C49.2 9.253 73.54 8.042 92.332 20.058l8.324-8.66C77.523-4.599 46.668-3.662 24.543 13.706S-5.812 60.828 4.234 87.097c10.047 26.274 36.036 42.938 64.102 41.11s51.672-21.723 58.227-49.078l-11.227-3.895c-5.238 24.07-26.527 41.246-51.16 41.278"/><g clip-path="url(#q)"><g clip-path="url(#r)"><path fill="url(#s)" d="M113.406 23.047a64.8 64.8 0 0 0-10.98-10.387 80 80 0 0 0-1.766-1.262l-8.328 8.66-30.394 31.61 41.851-21.66 10.73-5.551c-.37-.469-.73-.953-1.113-1.41"/></g></g><g clip-path="url(#t)"><g clip-path="url(#u)"><path fill="url(#v)" d="M128.344 63.656c-.008-.734-.051-1.46-.082-2.187l-11.89-.852-54.434-3.906 53.402 18.523 11.222 3.895c.036-.133.075-.262.106-.399a64 64 0 0 0 1.687-14.566c0-.172-.011-.34-.011-.508"/></g></g><g clip-path="url(#w)"><g clip-path="url(#x)"><path fill="url(#y)" d="M126.59 49.262a63.6 63.6 0 0 0-5.106-13.918l-11.418 3.672-47.304 15.199 52.41-1.785 11.996-.407c-.18-.925-.36-1.851-.578-2.761"/></g></g></svg>