<svg viewBox="0 0 24 24" xmlns="http://www.w3.org/2000/svg" fill="#0096FA"><path d="m4.94 0a4.953 4.953 0 0 0 -4.94 4.94v14.12a4.953 4.953 0 0 0 4.94 4.94h14.12a4.953 4.953 0 0 0 4.94-4.94c-.014 1.355 0-14.12 0-14.12a4.953 4.953 0 0 0 -4.94-4.94zm1.783 5.465h.904a.37.37 0 0 1 .31.17l.752 1.17a6.172 6.172 0 0 1 10.01 4.834 6.172 6.172 0 0 1 -9.394 5.265v2.016a.37.37 0 0 1 -.37.367h-2.211a.37.37 0 0 1 -.37-.367v-13.086a.37.37 0 0 1 .37-.37m5.804 2.951a3.222 3.222 0 1 0 -.002 6.443 3.222 3.222 0 0 0 .002-6.443"/></svg>