<svg height="64" viewBox="0 0 64 64" width="64" xmlns="http://www.w3.org/2000/svg"><g fill="none" fill-rule="evenodd"><path d="m0 0h64v64h-64z" fill="#dd344c"/><path d="m32 10c-12.131 0-22 9.869-22 22 0 9.802 6.888 18.424 16.75 20.968l.5-1.936c-8.979-2.317-15.25-10.143-15.25-19.032 0-11.028 8.972-20 20-20s20 8.972 20 20c0 9.777-4.953 16.891-13.25 19.032l.5 1.936c9.098-2.347 14.75-10.382 14.75-20.968 0-12.131-9.869-22-22-22m-6 14h7v-2h-7zm0 12h9v-2h-9zm0-4h5v-2h-5zm0-4h14v-2h-14zm11-4a1 1 0 0 1 -1-1v-5.042h-12v22.042h18v-16zm1-2h2.586l-2.586-2.586zm-1-6.042c.26.001.516.144.707.335l6 6a1 1 0 0 1 .284.707h.009v18a1 1 0 0 1 -1 1h-20a1 1 0 0 1 -1-1v-24.042a1 1 0 0 1 1-1zm1.707 32.749-5 5a.997.997 0 0 1 -1.414 0l-5-5a1 1 0 0 1 .707-1.707h2v-3h2v4a1 1 0 0 1 -1 1h-.586l2.586 2.586 2.586-2.586h-.586a1 1 0 0 1 -1-1v-4h2v3h2a1 1 0 0 1 .707 1.707" fill="#fff"/></g></svg>