<svg height="18" viewBox="0 0 18 18" width="18" xmlns="http://www.w3.org/2000/svg" xmlns:xlink="http://www.w3.org/1999/xlink"><linearGradient id="a" gradientUnits="userSpaceOnUse" x1="13.689" x2="13.689" y1="9.249" y2="17.97"><stop offset=".131" stop-color="#b796f9"/><stop offset="1" stop-color="#773adc"/></linearGradient><linearGradient id="b" gradientUnits="userSpaceOnUse" x1="9.949" x2="9.949" y1=".702" y2="15.185"><stop offset="0" stop-color="#999"/><stop offset=".999" stop-color="#767676"/></linearGradient><linearGradient id="c" gradientUnits="userSpaceOnUse" x1="9.949" x2="9.949" y1="4.513" y2="11.352"><stop offset=".001" stop-color="#b3b3b3"/><stop offset="1" stop-color="#999"/></linearGradient><linearGradient id="d" gradientUnits="userSpaceOnUse" x1="5.139" x2="5.139" y1="-.223" y2="16.194"><stop offset="0" stop-color="#0078d4"/><stop offset="1" stop-color="#005ba1"/></linearGradient><rect fill="url(#a)" height="8.621" rx="4.311" width="8.621" x="9.379" y="9.379"/><path d="m15.9 16.209h-4.419l.01-.026.9-2.054q.64-1.458 1.278-2.918a.06.06 0 0 1 .063-.041c.082 0 .082 0 .112.075l1.474 3.561.57 1.379zm-.87-.31-1.47-3.614-1.591 3.615z" fill="#fff"/><path d="m16.952 7.912a7 7 0 0 1 -.2 1.681.28.28 0 0 1 -.427.167 4.733 4.733 0 0 0 -7.368 3.925 4.8 4.8 0 0 0 .152 1.192 7.01 7.01 0 0 1 -5.816-4.786 7 7 0 0 1 -.345-2.178 7 7 0 0 1 .1-1.19 7 7 0 0 1 .231-.953 7.01 7.01 0 0 1 6.67-4.87q.167-.002.329.007a7.01 7.01 0 0 1 6.674 7.005" fill="url(#b)"/><path d="m13.251 7.912a3.2 3.2 0 0 1 -.183 1.088 4.75 4.75 0 0 0 -3.408 2.207 3.3 3.3 0 0 1 -2.353-1.307 3.3 3.3 0 0 1 -.518-1.025 3.3 3.3 0 0 1 0-1.919 3.3 3.3 0 0 1 3.16-2.35 3 3 0 0 1 .329.017 3.3 3.3 0 0 1 2.973 3.289" fill="url(#c)"/><path d="m10.278.5v9.91a4.73 4.73 0 0 0 -1.323 3.275 4.8 4.8 0 0 0 .152 1.192 5 5 0 0 0 .2.587.28.28 0 0 1 -.262.382h-8.545a.5.5 0 0 1 -.5-.5v-14.846a.5.5 0 0 1 .5-.5h9.283a.5.5 0 0 1 .495.5" fill="url(#d)"/><path d="m7.909 6.286.019 3.24-2.765 1.644-.02-3.247z" fill="#50e6ff"/><path d="m7.909 6.286-2.766 1.644-2.793-1.61 2.773-1.644z" fill="#c3f1ff"/><path d="m5.143 7.93.02 3.24-2.793-1.61-.02-3.24z" fill="#9cebff"/><path d="m2.37 9.56 2.773-1.637.02 3.247z" fill="#c3f1ff"/><path d="m7.928 9.526-2.785-1.603.02 3.247z" fill="#9cebff"/></svg>