<svg height="18" viewBox="0 0 18 18" width="18" xmlns="http://www.w3.org/2000/svg" xmlns:xlink="http://www.w3.org/1999/xlink"><linearGradient id="a" gradientUnits="userSpaceOnUse" x1="7.997" x2="7.997" y1="14.863" y2="2.057"><stop offset="0" stop-color="#0078d4"/><stop offset=".82" stop-color="#5ea0ef"/></linearGradient><linearGradient id="b" gradientTransform="matrix(1 0 0 -1 564 1025.516)" gradientUnits="userSpaceOnUse" x1="-558.124" x2="-558.124" y1="1021.188" y2="1019.083"><stop offset="0" stop-color="#fff" stop-opacity=".7"/><stop offset="1" stop-color="#fff" stop-opacity=".6"/></linearGradient><path d="m.362 3.138a.36.36 0 0 1 -.362-.361v-2.416c0-.199.162-.361.362-.361h2.266a.362.362 0 1 1 0 .722h-1.904v2.053a.36.36 0 0 1 -.361.362zm17.638-.361v-2.416a.36.36 0 0 0 -.362-.361h-2.266a.362.362 0 1 0 0 .722h1.904v2.053a.362.362 0 0 0 .724 0zm-15.01 14.862a.36.36 0 0 0 -.362-.361h-1.904v-2.053a.362.362 0 0 0 -.724 0v2.415c0 .199.163.36.362.36h2.266c.2 0 .362-.162.362-.361m15.01.001v-2.415a.362.362 0 0 0 -.724 0v2.053h-1.904a.362.362 0 1 0 0 .723h2.266a.36.36 0 0 0 .362-.36z" fill="#76bc2d"/><path d="m13.864 8.047c0 3.822-4.627 6.907-5.632 7.544a.4.4 0 0 1 -.386 0c-1.073-.687-5.716-3.772-5.716-7.544v-4.661a.37.37 0 0 1 .352-.369c3.604-.101 2.783-1.676 5.482-1.676s1.861 1.576 5.465 1.676a.37.37 0 0 1 .352.369l.084 4.66z" fill="#0078d4"/><path d="m8.04 14.863c-4.683-3.064-5.194-5.781-5.194-6.816v-4.328c1.873-.106 2.625-.637 3.236-1.068.489-.345.843-.594 1.881-.594s1.387.249 1.872.593c.607.431 1.355.962 3.235 1.069l.078 4.34c0 .817-.372 3.733-5.109 6.804z" fill="url(#a)"/><g fill="#fff"><rect height=".691" opacity=".7" rx=".141" width="3.721" x="8.155" y="4.328"/><rect height=".691" opacity=".6" rx=".141" width="3.721" x="8.155" y="5.742"/><rect height=".691" opacity=".3" rx=".141" width="4.472" x="4.117" y="9.983"/><rect height=".691" opacity=".4" rx=".141" width="7.76" x="4.117" y="8.57"/><rect height=".691" opacity=".5" rx=".14" width="7.076" x="4.117" y="7.156"/></g><path d="m4.235 4.328h3.282c.065 0 .118.046.118.102v1.901c0 .057-.053.102-.118.102h-3.282c-.065 0-.118-.046-.118-.102v-1.901c0-.057.053-.102.118-.102" fill="url(#b)"/><circle cx="12.449" cy="13.203" fill="#76bc2d" r="3.442"/><path d="m12.096 14.356-.316.316a.14.14 0 0 1 -.195 0l-1.256-1.256a.14.14 0 0 1 0-.195l.219-.219a.14.14 0 0 1 .195 0z" fill="#fff"/><path d="m11.591 14.676-.316-.316 2.888-2.888a.14.14 0 0 1 .195 0l.219.219a.14.14 0 0 1 0 .195l-2.791 2.791a.14.14 0 0 1 -.195 0z" fill="#f0f0f0"/></svg>