<svg height="18" viewBox="0 0 18 18" width="18" xmlns="http://www.w3.org/2000/svg" xmlns:xlink="http://www.w3.org/1999/xlink"><linearGradient id="a" gradientUnits="userSpaceOnUse" x1="8.765" x2="8.765" y1="15.265" y2="2.901"><stop offset="0" stop-color="#5ea0ef"/><stop offset="1" stop-color="#0078d4"/></linearGradient><path d="m.59 4.891a.563.563 0 0 1 -.563-.563v-3.765a.563.563 0 0 1 .563-.563h3.525a.563.563 0 0 1 0 1.126h-2.962v3.2a.563.563 0 0 1 -.563.565m17.383-.563v-3.765a.564.564 0 0 0 -.563-.563h-3.525a.563.563 0 1 0 0 1.126h2.962v3.2a.563.563 0 0 0 1.126 0zm-13.295 13.109a.563.563 0 0 0 -.563-.563h-2.962v-3.2a.563.563 0 0 0 -1.126 0v3.765a.563.563 0 0 0 .563.561h3.525a.563.563 0 0 0 .563-.563m13.295 0v-3.765a.563.563 0 0 0 -1.126 0v3.2h-2.962a.563.563 0 0 0 0 1.126h3.525a.564.564 0 0 0 .563-.561" fill="#50e6ff"/><circle cx="8.765" cy="8.946" fill="#0078d4" r="7.154"/><circle cx="8.765" cy="9.083" fill="url(#a)" r="6.182"/><circle cx="8.765" cy="8.98" fill="#5ea0ef" r="5.047"/><circle cx="8.765" cy="9.014" fill="#005ba1" r="3.355"/><g fill="#fff"><circle cx="7.661" cy="7.778" r="1.008"/><circle cx="8.765" cy="9.048" r=".447"/></g></svg>