<svg height="74" viewBox="0 0 74 74" width="74" xmlns="http://www.w3.org/2000/svg"><g fill="none" fill-rule="evenodd"><path d="m5 5h64v64h-64z" fill="#dd344c"/><path d="m1 1h72v72h-72z" stroke="#879196" stroke-width="2"/><path d="m30 25.107c0 .637-.159 15.607-14 15.607-13.812 0-13.999-15.999-14-16.679v-16.569l14-5.395 14 5.395zm1.359-19.26-15-5.781a1 1 0 0 0 -.718 0l-15 5.781a1 1 0 0 0 -.641.933v17.255c0 .187.183 18.679 16 18.679s16-17.431 16-17.607v-18.327a1 1 0 0 0 -.641-.933m-5.359 19.251c-.011 1.146-.361 10.873-9 11.572v-29.927l9 3.468zm-20-1.077v-13.81l9-3.468v29.924c-8.656-.764-8.991-11.399-9-12.646m9.641-19.668-11 4.239a1 1 0 0 0 -.641.933v14.503c.011 1.503.437 14.686 12 14.686 4.789 0 8.374-2.211 10.367-6.396 1.521-3.191 1.627-6.559 1.633-7.211v-15.582a1 1 0 0 0 -.641-.933l-11-4.239a1 1 0 0 0 -.718 0" fill="#fff" transform="translate(21 16)"/></g></svg>