<svg xmlns="http://www.w3.org/2000/svg" width="74" height="74" viewBox="0 0 74 74"><title>Icon-Architecture-Category/48/Security-Identity-Compliance_48</title><g id="Icon-Architecture-Category/48/Security-Identity-Compliance_48" fill="none" fill-rule="evenodd" stroke="none" stroke-width="1"><path id="Rectangle" fill="#dd344c" d="M5 5h64v64H5z"/><path id="#879196-Border-Copy-23" stroke="#879196" stroke-width="2" d="M1 1h72v72H1z"/><g id="Icon-Category/48/Security-Identity-Compliance_48" fill="#fff" transform="translate(21 16)"><path id="Security-Identity-Compliance_Category-Icon_48_Squid" d="M30 25.107c0 .637-.159 15.607-14 15.607-13.812 0-13.999-15.999-14-16.679V7.466l14-5.395 14 5.395zm1.359-19.26-15-5.781a1 1 0 0 0-.718 0l-15 5.781A1 1 0 0 0 0 6.78v17.255c0 .187.183 18.679 16 18.679s16-17.431 16-17.607V6.78a1 1 0 0 0-.641-.933M26 25.098c-.011 1.146-.361 10.873-9 11.572V6.743l9 3.468zM6 24.021v-13.81l9-3.468v29.924c-8.656-.764-8.991-11.399-9-12.646m9.641-19.668-11 4.239A1 1 0 0 0 4 9.525v14.503c.011 1.503.437 14.686 12 14.686 4.789 0 8.374-2.211 10.367-6.396 1.521-3.191 1.627-6.559 1.633-7.211V9.525a1 1 0 0 0-.641-.933l-11-4.239a1 1 0 0 0-.718 0"/></g></g></svg>