<svg xmlns="http://www.w3.org/2000/svg" width="18" height="18" viewBox="0 0 18 18"><path fill="currentColor" d="M14.489 5.021a8.1 8.1 0 0 0-2.832.014A12.15 12.15 0 0 0 6.883.66 5.2 5.2 0 0 1 9.24.146a5.1 5.1 0 0 1 5.249 4.875"/><path fill="currentColor" d="M18 13.373a4.5 4.5 0 0 1-4.5 4.484 4.4 4.4 0 0 1-.61-.042 12.2 12.2 0 0 0 1.149-4.964 11.7 11.7 0 0 0-.582-3.961 15.7 15.7 0 0 0-1.8-3.856 8.1 8.1 0 0 1 2.832-.014A4.045 4.045 0 0 1 18 8.908a4.06 4.06 0 0 1-.674 2.107A4.43 4.43 0 0 1 18 13.373"/><path fill="currentColor" d="M14.039 12.851a12.2 12.2 0 0 1-1.149 4.964 4 4 0 0 1-.387-.069A4.5 4.5 0 0 1 9 13.373a4 4 0 0 1 .027-.484H8.59a17.6 17.6 0 0 0-1.482-5.265A13 13 0 0 1 8.59 6.335a7.2 7.2 0 0 1 3.067-1.3 15.7 15.7 0 0 1 1.8 3.856 11.7 11.7 0 0 1 .582 3.96"/><path fill="currentColor" d="M11.657 5.035a7.2 7.2 0 0 0-3.067 1.3 13 13 0 0 0-1.482 1.29 18 18 0 0 0-.19-.4 12 12 0 0 0-2.674-3.671A5.23 5.23 0 0 1 6.883.66a12.15 12.15 0 0 1 4.774 4.375"/><path fill="currentColor" d="M7.108 7.625a17.3 17.3 0 0 0-3.372 5.145A4.9 4.9 0 0 1 0 8.2a4.825 4.825 0 0 1 4.244-4.646 12 12 0 0 1 2.674 3.674q.097.195.19.397"/><path fill="currentColor" d="m8.59 12.891-3.52.014a5 5 0 0 1-1.334-.135 17.3 17.3 0 0 1 3.372-5.145 17.6 17.6 0 0 1 1.482 5.266"/><ellipse cx="13.5" cy="13.373" fill="currentColor" rx="3.917" ry="3.901"/><path fill="currentColor" d="M10.176 13.606a3.3 3.3 0 0 0 .963 2.118l1.061-1.059a1.87 1.87 0 0 1-.529-1.059zm5.511-2.737a3.3 3.3 0 0 0-1.954-.81v1.477a1.8 1.8 0 0 1 .906.371zm-4.373 0 1.059 1.059a1.8 1.8 0 0 1 .905-.37v-1.5a3.3 3.3 0 0 0-1.964.811m3.658 1.366a1.9 1.9 0 0 1 .376.905h1.477a3.26 3.26 0 0 0-.81-1.942zm-2.943 0-1.059-1.059a3.26 3.26 0 0 0-.794 1.964h1.477a1.9 1.9 0 0 1 .376-.905"/><path fill="currentColor" d="M16.221 12.315a.24.24 0 0 0-.3-.133l-2.181.879.169.429 2.181-.863a.233.233 0 0 0 .138-.3z"/><circle cx="13.5" cy="13.373" r=".635" fill="currentColor"/></svg>