<svg height="18" viewBox="0 0 18 18" width="18" xmlns="http://www.w3.org/2000/svg" xmlns:xlink="http://www.w3.org/1999/xlink"><linearGradient id="a" gradientUnits="userSpaceOnUse" x1="10.686" x2="10.686" y1=".143" y2="5.035"><stop offset="0" stop-color="#83b9f9"/><stop offset="1" stop-color="#5ea0ef"/></linearGradient><linearGradient id="b" gradientUnits="userSpaceOnUse" x1="14.828" x2="14.828" y1="4.906" y2="17.857"><stop offset=".154" stop-color="#83b9f9"/><stop offset="1" stop-color="#5ea0ef"/></linearGradient><linearGradient id="c" gradientUnits="userSpaceOnUse" x1="10.579" x2="10.579" y1="5.034" y2="17.815"><stop offset=".192" stop-color="#5ea0ef"/><stop offset="1" stop-color="#0078d4"/></linearGradient><linearGradient id="d" gradientUnits="userSpaceOnUse" x1="7.95" x2="7.95" y1=".66" y2="7.625"><stop offset=".441" stop-color="#5ea0ef"/><stop offset="1" stop-color="#0078d4"/></linearGradient><linearGradient id="e"><stop offset="0" stop-color="#0078d4"/><stop offset="1" stop-color="#005ba1"/></linearGradient><linearGradient id="f" gradientUnits="userSpaceOnUse" x1="3.554" x2="3.554" xlink:href="#e" y1="3.554" y2="12.77"/><linearGradient id="g" gradientUnits="userSpaceOnUse" x1="6.163" x2="6.163" xlink:href="#e" y1="8.759" y2="13.256"/><linearGradient id="h" gradientUnits="userSpaceOnUse" x1="13.5" x2="13.5" y1="9.366" y2="17.428"><stop offset=".152" stop-color="#fff"/><stop offset="1" stop-color="#f2f2f2"/></linearGradient><path d="m14.489 5.021a8.1 8.1 0 0 0 -2.832.014 12.15 12.15 0 0 0 -4.774-4.375 5.2 5.2 0 0 1 2.357-.514 5.1 5.1 0 0 1 5.249 4.875" fill="url(#a)"/><path d="m18 13.373a4.5 4.5 0 0 1 -4.5 4.484 4.4 4.4 0 0 1 -.61-.042 12.2 12.2 0 0 0 1.149-4.964 11.7 11.7 0 0 0 -.582-3.961 15.7 15.7 0 0 0 -1.8-3.856 8.1 8.1 0 0 1 2.832-.014 4.045 4.045 0 0 1 3.511 3.888 4.06 4.06 0 0 1 -.674 2.107 4.43 4.43 0 0 1 .674 2.358" fill="url(#b)"/><path d="m14.039 12.851a12.2 12.2 0 0 1 -1.149 4.964 4 4 0 0 1 -.387-.069 4.5 4.5 0 0 1 -3.503-4.373 4 4 0 0 1 .027-.484h-.437a17.6 17.6 0 0 0 -1.482-5.265 13 13 0 0 1 1.482-1.289 7.2 7.2 0 0 1 3.067-1.3 15.7 15.7 0 0 1 1.8 3.856 11.7 11.7 0 0 1 .582 3.96" fill="url(#c)"/><path d="m11.657 5.035a7.2 7.2 0 0 0 -3.067 1.3 13 13 0 0 0 -1.482 1.29 18 18 0 0 0 -.19-.4 12 12 0 0 0 -2.674-3.671 5.23 5.23 0 0 1 2.639-2.894 12.15 12.15 0 0 1 4.774 4.375" fill="url(#d)"/><path d="m7.108 7.625a17.3 17.3 0 0 0 -3.372 5.145 4.9 4.9 0 0 1 -3.736-4.57 4.825 4.825 0 0 1 4.244-4.646 12 12 0 0 1 2.674 3.674q.097.195.19.397" fill="url(#f)"/><path d="m8.59 12.891-3.52.014a4.9 4.9 0 0 1 -1.334-.135 17.3 17.3 0 0 1 3.372-5.145 17.6 17.6 0 0 1 1.482 5.266" fill="url(#g)"/><ellipse cx="13.5" cy="13.373" fill="url(#h)" rx="3.917" ry="3.901"/><path d="m10.176 13.606a3.3 3.3 0 0 0 .963 2.118l1.061-1.059a1.87 1.87 0 0 1 -.529-1.059zm5.511-2.737a3.3 3.3 0 0 0 -1.954-.81v1.477a1.8 1.8 0 0 1 .906.371zm-4.373 0 1.059 1.059a1.8 1.8 0 0 1 .905-.37v-1.5a3.3 3.3 0 0 0 -1.964.811m3.658 1.366a1.9 1.9 0 0 1 .376.905h1.477a3.26 3.26 0 0 0 -.81-1.942zm-2.943 0-1.059-1.059a3.26 3.26 0 0 0 -.794 1.964h1.477a1.9 1.9 0 0 1 .376-.905" fill="#83b9f9"/><path d="m16.221 12.315a.24.24 0 0 0 -.3-.133l-2.181.879.169.429 2.181-.863a.233.233 0 0 0 .138-.3z" fill="#f04049"/><circle cx="13.5" cy="13.373" fill="#4f4f4f" r=".635"/></svg>