<svg xmlns="http://www.w3.org/2000/svg" width="68.165" height="66.143" viewBox="0 0 18.035 17.5"><path fill="#326ce5" d="M8.957.463a1.137 1.127 0 0 0-.434.11l-5.94 2.838a1.137 1.127 0 0 0-.615.764L.503 10.551a1.137 1.127 0 0 0 .154.862 1.137 1.127 0 0 0 .065.09l4.11 5.113a1.137 1.127 0 0 0 .89.423l6.592-.001a1.137 1.127 0 0 0 .888-.423l4.11-5.113a1.137 1.127 0 0 0 .219-.953l-1.468-6.374a1.137 1.127 0 0 0-.614-.764L9.51.572a1.137 1.127 0 0 0-.551-.11"/><path fill="#fff" d="M8.955.002a1.199 1.19 0 0 0-.459.117L2.224 3.114a1.199 1.19 0 0 0-.647.806L.03 10.65a1.199 1.19 0 0 0 .162.912 1.199 1.19 0 0 0 .068.095l4.34 5.396a1.199 1.19 0 0 0 .938.447h6.96a1.199 1.19 0 0 0 .937-.447l4.338-5.398a1.199 1.19 0 0 0 .232-1.005l-1.548-6.732a1.199 1.19 0 0 0-.65-.807L9.538.118A1.199 1.19 0 0 0 8.957 0m.003.462a1.137 1.127 0 0 1 .55.11l5.94 2.836a1.137 1.127 0 0 1 .615.764l1.468 6.375a1.137 1.127 0 0 1-.22.954l-4.11 5.112a1.137 1.127 0 0 1-.888.423H5.722a1.137 1.127 0 0 1-.888-.422l-4.11-5.112a1.137 1.127 0 0 1-.066-.09 1.137 1.127 0 0 1-.154-.863l1.465-6.375a1.137 1.127 0 0 1 .614-.764L8.523.572a1.137 1.127 0 0 1 .436-.11"/><g fill="#fff"><path fill-rule="evenodd" d="M7.92 3.738 4.133 4.836l3.789 1.1 1.125-.327a2.86 2.86 0 0 1 1.95-.773q.273.002.533.053l.18-.053zM4.132 5.257v4.031l3.153 1.747V9.797c0-.375.153-.683.386-.933l.008-2.552zm4.429.936-.4.12.004.903a2.9 2.9 0 0 1 .396-1.023m2.435 1.067a.44.44 0 0 0-.454.455v.453h.908v-.453a.44.44 0 0 0-.454-.455"/><path d="M10.995 5.44c-1.15 0-2.083.933-2.083 2.082V8.77a.836.836 0 0 0-.833.834v3.331c0 .46.374.83.833.83h4.165a.83.83 0 0 0 .832-.83V9.604a.836.836 0 0 0-.832-.834V7.522a2.084 2.084 0 0 0-2.082-2.083m0 .834c.691 0 1.248.557 1.248 1.249V8.77H9.746V7.522c0-.692.557-1.25 1.249-1.25"/></g></svg>