<svg height="18" viewBox="0 0 18 18" width="18" xmlns="http://www.w3.org/2000/svg"><path d="m12.1 15.144c-3.158 0-5.716-.589-5.771-1.329v2.705c0 .748 2.586 1.356 5.777 1.356 3.124 0 5.666-.581 5.771-1.307v-2.778c-.002.748-2.587 1.356-5.777 1.356z" fill="#0078d4"/><path d="m14.435 12.582a2.3 2.3 0 0 1 -1.258 1.1 2.47 2.47 0 0 1 -2.967-1.075h-.663c-1.908.221-3.223.681-3.223 1.215 0 .748 2.586 1.355 5.777 1.355s5.777-.606 5.777-1.355c0-.553-1.416-1.029-3.442-1.239z" fill="#83b9f9"/><path d="m11.602 9.057c-2.844.057-5.095.597-5.261 1.27h3.827a2.44 2.44 0 0 1 1.434-1.27m1.828.032a2.2 2.2 0 0 1 1.217 1.454c.097.358.12.721.084 1.069 1.866-.225 3.146-.679 3.146-1.205 0-.641-1.899-1.177-4.447-1.318" fill="#83b9f9"/><path d="m14.735 11.58c-.084.932-.625 1.763-1.559 2.101a2.47 2.47 0 0 1 -2.967-1.075h-3.881v.499c0 .748 2.586 1.356 5.777 1.356 3.124 0 5.666-.581 5.771-1.307v-2.778c-.001.525-1.278.98-3.141 1.205z" fill="#0078d4"/><path d="m6.323 6.9c0 .748 2.586 1.355 5.777 1.355s5.777-.606 5.777-1.355-2.586-1.356-5.777-1.356-5.777.606-5.777 1.356" fill="#83b9f9"/><path d="m12.1 8.224c-3.158 0-5.716-.59-5.771-1.33v2.705c0 .269.337.518.912.729h2.927a2.45 2.45 0 0 1 2.299-1.412l.576.017c.926.226 1.414.912 1.604 1.61.024.087.033.174.048.261 1.826-.217 3.108-.649 3.182-1.157v-2.778c-.002.748-2.587 1.356-5.777 1.356z" fill="#0078d4"/><path d="m14.088 10.745a1.86 1.86 0 0 0 -1.64-1.219v-.019a1.864 1.864 0 0 0 -1.864 1.412h-5.987a3.7 3.7 0 0 1 -.69-.093 3.42 3.42 0 0 1 -2.637-4.057 3.43 3.43 0 0 1 3.01-2.686h.317l.112-.316a3.73 3.73 0 0 1 3.728-2.526 3.88 3.88 0 0 1 3.385 1.845c.256.47.277 1.436.277 1.436h1.082c0-.974-.251-1.535-.251-1.535a4.96 4.96 0 0 0 -4.567-2.862 4.9 4.9 0 0 0 -4.548 2.954 4.497 4.497 0 0 0 -3.612 5.241 4.5 4.5 0 0 0 3.221 3.509c.35.134.724.198 1.1.186h6.061a1.866 1.866 0 0 0 2.389 1.111 1.857 1.857 0 0 0 1.115-2.381z" fill="#50e6ff"/></svg>