<svg xmlns="http://www.w3.org/2000/svg" width="64" height="64" viewBox="0 0 64 64"><title>Icon-Architecture/48/Arch_AWS-Distro-for-OpenTelemetry_48</title><g id="Icon-Architecture/48/Arch_AWS-Distro-for-OpenTelemetry_48" fill="none" fill-rule="evenodd" stroke="none" stroke-width="1"><g id="Icon-Architecture-BG/48/Application-Integration" fill="#e7157b"><path id="Rectangle" d="M0 0h64v64H0z"/></g><g id="Icon-Service/48/AWS-Distro-for-OpenTelemetry_48" fill="#fff" transform="translate(10 13)"><path id="Fill-3" d="M42 2h-2c-1.825 0-1.992 1.469-2 1.919 0 .029-.015.053-.018.081H38v7h-2V4.911h-5V16h6c.553 0 1 .569 1 1.121.008.434.176 1.879 2 1.879h2zM2 12h10V9H2zM44 1v19a1 1 0 0 1-1 1h-3c-2.349 0-3.5-1.607-3.866-3H30c-.553 0-1-.327-1-.879V17h-2v-2h2V6H15c-.247 0-.572.03-.716.176-.301.303-.293 1.368-.287 2.307L14 12l-.003.517c-.006.939-.014 2.004.287 2.307.144.146.469.176.716.176h4v2h-4c-.912 0-1.63-.258-2.135-.767-.574-.578-.77-1.359-.837-2.233H2v3H0V4h2v3h10.028c.067-.874.263-1.655.837-2.233C13.37 4.258 14.088 4 15 4h14v-.089c0-.552.447-.911 1-.911h6.132c.363-1.407 1.514-3 3.868-3h3a1 1 0 0 1 1 1M34 28h7v2h-6.279l-2.773 8.316A1 1 0 0 1 31 39h-.017a1 1 0 0 1-.942-.716l-7.042-23.768-5.792 19.497a1 1 0 0 1-.897.713.99.99 0 0 1-.978-.598L12.07 26.66l-2.133 5.691c-.147.39-.52.649-.937.649H1v-2h7.307l2.756-7.351c.144-.381.503-.638.911-.649.403-.027.779.227.942.6l3.153 7.219 5.972-20.104a1.001 1.001 0 0 1 1.918.001l7.097 23.953 1.996-5.985A1 1 0 0 1 34 28"/></g></g></svg>