<svg height="64" viewBox="0 0 64 64" width="64" xmlns="http://www.w3.org/2000/svg"><g fill="none" fill-rule="evenodd"><path d="m0 0h64v64h-64z" fill="#e7157b"/><path d="m42 2h-2c-1.825 0-1.992 1.469-2 1.919 0 .029-.015.053-.018.081h.018v7h-2v-6.089h-5v11.089h6c.553 0 1 .569 1 1.121.008.434.176 1.879 2 1.879h2zm-40 10h10v-3h-10zm42-11v19a1 1 0 0 1 -1 1h-3c-2.349 0-3.5-1.607-3.866-3h-6.134c-.553 0-1-.327-1-.879v-.121h-2v-2h2v-9h-14c-.247 0-.572.03-.716.176-.301.303-.293 1.368-.287 2.307l.003 3.517-.003.517c-.006.939-.014 2.004.287 2.307.144.146.469.176.716.176h4v2h-4c-.912 0-1.63-.258-2.135-.767-.574-.578-.77-1.359-.837-2.233h-10.028v3h-2v-13h2v3h10.028c.067-.874.263-1.655.837-2.233.505-.509 1.223-.767 2.135-.767h14v-.089c0-.552.447-.911 1-.911h6.132c.363-1.407 1.514-3 3.868-3h3a1 1 0 0 1 1 1m-10 27h7v2h-6.279l-2.773 8.316a1 1 0 0 1 -.948.684h-.017a1 1 0 0 1 -.942-.716l-7.042-23.768-5.792 19.497a1 1 0 0 1 -.897.713.99.99 0 0 1 -.978-.598l-3.262-7.468-2.133 5.691c-.147.39-.52.649-.937.649h-8v-2h7.307l2.756-7.351c.144-.381.503-.638.911-.649.403-.027.779.227.942.6l3.153 7.219 5.972-20.104a1.001 1.001 0 0 1 1.918.001l7.097 23.953 1.996-5.985a1 1 0 0 1 .948-.684" fill="#fff" transform="translate(10 13)"/></g></svg>