<svg viewBox="0 0 24 24" xmlns="http://www.w3.org/2000/svg"><path d="m18.483 1.123a1.09 1.09 0 0 0 -.752.362 1.09 1.09 0 0 0 .088 1.54 11.956 11.956 0 0 1 4 8.946 7.62 7.62 0 0 1 -7.637 7.636 7.62 7.62 0 0 1 -7.637-7.636 3.255 3.255 0 0 1 3.273-3.273c1.82 0 3.273 1.45 3.273 3.273a1.09 1.09 0 0 0 1.09 1.09 1.09 1.09 0 0 0 1.092-1.09c0-3-2.455-5.455-5.455-5.455s-5.454 2.455-5.454 5.455c0 5.408 4.408 9.818 9.818 9.818s9.818-4.41 9.818-9.818a14.16 14.16 0 0 0 -4.728-10.571 1.09 1.09 0 0 0 -.789-.277zm-8.665 1.027c-5.41.001-9.818 4.411-9.818 9.82a14.16 14.16 0 0 0 4.8 10.637 1.09 1.09 0 0 0 1.54-.096 1.09 1.09 0 0 0 -.095-1.54 11.957 11.957 0 0 1 -4.063-9 7.62 7.62 0 0 1 7.636-7.637 7.62 7.62 0 0 1 7.637 7.636 3.256 3.256 0 0 1 -3.273 3.273 3.256 3.256 0 0 1 -3.273-3.273 1.09 1.09 0 0 0 -1.09-1.09 1.09 1.09 0 0 0 -1.092 1.09c0 3 2.455 5.455 5.455 5.455s5.454-2.455 5.454-5.455c0-5.408-4.408-9.818-9.818-9.818z"/></svg>