<svg height="18" viewBox="0 0 18 18" width="18" xmlns="http://www.w3.org/2000/svg" xmlns:xlink="http://www.w3.org/1999/xlink"><linearGradient id="a"><stop offset=".1" stop-color="#54aef0"/><stop offset="1" stop-color="#1988d9"/></linearGradient><linearGradient id="b" gradientUnits="userSpaceOnUse" x1="6.49" x2="6.49" xlink:href="#a" y1="6.29" y2="18.38"/><linearGradient id="c" gradientUnits="userSpaceOnUse" x1="7.13" x2="8.01" xlink:href="#a" y1="-.19" y2="10.79"/><linearGradient id="d" gradientUnits="userSpaceOnUse" x1="13.76" x2="13.76" y1="18.05" y2="10.25"><stop offset="0" stop-color="#76bc2d"/><stop offset=".6" stop-color="#81ce31"/><stop offset=".82" stop-color="#86d633"/></linearGradient><path d="m9.35 10.31a.51.51 0 0 1 .51-.51h2.93a6.53 6.53 0 0 0 -5.31-2.43c-4.48-0-6.83 2.81-7.28 7.4a1.29 1.29 0 0 0 1.16 1.42h8z" fill="url(#b)"/><path d="m7.48 8.34a4.1 4.1 0 0 1 -2.21-.65l2.19 5.71 2.17-5.68a4 4 0 0 1 -2.15.62" fill="#fff" opacity=".8"/><circle cx="7.48" cy="4.25" fill="url(#c)" r="4.08"/><path d="m12.59 15.71h2.34v2.34h-2.34zm-2.73-3.12h2.34v-2.34h-2a.33.33 0 0 0 -.33.33zm.33 5.46h2v-2.34h-2.33v2a.33.33 0 0 0 .33.34m-.33-2.73h2.34v-2.32h-2.34zm5.45 2.73h2a.32.32 0 0 0 .32-.33v-2h-2.32zm-2.72-2.73h2.34v-2.32h-2.34zm2.72 0h2.34v-2.32h-2.34zm0-5.07v2.34h2.34v-2a.32.32 0 0 0 -.32-.33zm-2.72 2.34h2.34v-2.34h-2.34z" fill="url(#d)"/></svg>