<svg viewBox="0 0 128 128" xmlns="http://www.w3.org/2000/svg"><path d="m45.196.007c-1.597.094-2.704 1.107-3.24 3.102l-32.052 119.627c-.712 2.666.33 4.315 2.992 5.03 2.669.714 4.397-.193 5.106-2.859l32.056-119.627c.717-2.665-.437-4.347-3.105-5.062-.639-.171-1.225-.242-1.757-.21zm68.051.003c-1.598.09-2.704 1.1-3.242 3.1l-32.055 119.625c-.714 2.666.333 4.312 2.995 5.024 2.666.72 4.392-.187 5.107-2.853l32.054-119.626c.717-2.663-.437-4.342-3.1-5.056-.639-.172-1.226-.244-1.759-.214zm-38.27 14.526c-1.818-.067-3.069.94-3.652 3.103l-14.108 52.659c-.715 2.668.327 4.314 2.992 5.028 2.663.717 4.392-.19 5.106-2.855l14.112-52.661c.714-2.663-.435-4.342-3.103-5.057a6.072 6.072 0 0 0 -1.348-.217z" fill="#013755"/></svg>