<svg xmlns="http://www.w3.org/2000/svg" viewBox="0 0 128 128"><path fill="#013755" d="m45.84 0-.525.031c-.89.052-1.69.377-2.313.967s-1.068 1.424-1.35 2.476L9.853 122.155c-.375 1.406-.303 2.635.283 3.604s1.637 1.617 3.034 1.992h.002c1.4.375 2.637.342 3.63-.205s1.668-1.576 2.042-2.98v-.002L50.648 5.887c.38-1.412.273-2.658-.341-3.632-.615-.973-1.691-1.624-3.091-2-.488-.13-.93-.14-1.376-.16zm66.989.035c-.89.05-1.691.37-2.316.96s-1.069 1.427-1.352 2.481L77.36 122.153c-.376 1.406-.302 2.636.285 3.604.587.969 1.64 1.615 3.036 1.988 1.4.378 2.635.347 3.627-.2s1.672-1.576 2.048-2.981L118.157 5.887h-.002c.38-1.411.275-2.656-.339-3.628-.613-.971-1.688-1.623-3.084-1.997h-.002c-.674-.181-1.308-.26-1.901-.227m-67.461.988h.007c.462-.028.991.033 1.585.192 1.247.334 2.066.872 2.508 1.571.441.7.552 1.61.22 2.843l-31.8 118.679v.002c-.33 1.24-.862 1.98-1.564 2.368s-1.647.45-2.895.116c-1.244-.334-2.028-.86-2.443-1.546s-.506-1.597-.175-2.837l31.8-118.68c.248-.926.618-1.582 1.073-2.012.453-.429.992-.654 1.684-.696m67.517.002c.464-.026.995.036 1.589.196 1.244.333 2.062.87 2.503 1.57.441.698.553 1.607.221 2.838l-31.8 118.679c-.333 1.24-.866 1.981-1.568 2.368s-1.643.447-2.89.11h-.001c-1.244-.332-2.03-.856-2.445-1.542s-.507-1.594-.175-2.833L110.12 3.734c.25-.93.621-1.588 1.075-2.017.455-.43.995-.653 1.69-.692zm-37.976 13.42-.02.002c-.989-.032-1.886.233-2.588.822-.707.593-1.206 1.481-1.513 2.621L56.792 70.131c-.377 1.407-.305 2.637.28 3.606.586.97 1.64 1.616 3.037 1.99 1.398.377 2.635.345 3.627-.201.993-.546 1.672-1.577 2.048-2.982l14-52.243c.378-1.41.273-2.655-.34-3.627-.614-.971-1.687-1.62-3.084-1.996a6.5 6.5 0 0 0-1.447-.233l-.023.99zm-.039.99h.002a5.5 5.5 0 0 1 1.22.198h.003l.004.002c1.247.334 2.064.871 2.505 1.57.441.698.551 1.607.221 2.838l-14 52.245c-.332 1.239-.864 1.981-1.567 2.368s-1.645.45-2.89.114h-.001c-1.246-.334-2.03-.86-2.446-1.546-.414-.686-.504-1.594-.172-2.835l13.998-52.24v-.003c.27-1.004.683-1.69 1.191-2.116.509-.426 1.127-.624 1.932-.595"/></svg>