<svg height="18" viewBox="0 0 18 18" width="18" xmlns="http://www.w3.org/2000/svg" xmlns:xlink="http://www.w3.org/1999/xlink"><linearGradient id="a" gradientUnits="userSpaceOnUse" x1="9" x2="9" y1="1.48" y2="17.07"><stop offset="0" stop-color="#76bc2d"/><stop offset=".32" stop-color="#73b82c"/><stop offset=".65" stop-color="#6cab29"/><stop offset=".99" stop-color="#5e9724"/><stop offset="1" stop-color="#5e9624"/></linearGradient><linearGradient id="b" gradientUnits="userSpaceOnUse" x1="6.13" x2="11.87" y1="9.28" y2="9.28"><stop offset="0" stop-color="#fff"/><stop offset="1" stop-color="#fff"/></linearGradient><path d="m12.35 1.48h-6.7a2 2 0 0 0 -1.73 1l-3.34 5.8a2 2 0 0 0 0 2l3.34 5.79a2 2 0 0 0 1.73 1h6.7a2 2 0 0 0 1.73-1l3.34-5.79a2 2 0 0 0 0-2l-3.34-5.8a2 2 0 0 0 -1.73-1" fill="url(#a)"/><path d="m9.07 4.81a.82.82 0 0 1 -.82-.81.82.82 0 0 1 1.64 0 .82.82 0 0 1 -.82.81m-.82 9.75a.82.82 0 1 0 1.64 0 .82.82 0 0 0 -1.64 0m.84-2.7a1.5 1.5 0 0 1 -1.51-.86l-1.45.28a2.68 2.68 0 0 0 2.87 1.72c1.69 0 2.91-.89 2.91-2.13a2.07 2.07 0 0 0 -1.12-2 13 13 0 0 0 -1.79-.54c-.67-.16-1.1-.53-1.1-1a1 1 0 0 1 1.1-.87 1.4 1.4 0 0 1 1.29.69l1.25-.4a2.56 2.56 0 0 0 -2.54-1.3c-1.18 0-2.55.52-2.55 2 0 1.81 1.11 2.17 2.69 2.48.37.07 1.23.32 1.23 1-.04.38-.37.93-1.28.93" fill="url(#b)" opacity=".9"/></svg>