<svg xmlns="http://www.w3.org/2000/svg" fill="currentColor" fill-rule="evenodd" viewBox="0 0 24 24"><title>AG-UI</title><path d="M7.675.281A.61.61 0 0 1 8.32.014l10.047 2.222 2.511.555.628.139.157.034.04.01.01.001.002.001.06.016a.61.61 0 0 1 .408.688l-3.63 19.82a.61.61 0 0 1-.989.358L1.718 10.605a.61.61 0 0 1-.123-.794zM3.34 10.374l13.118 10.971-5.76-13.394zm8.519-2.805 5.874 13.659L20.77 4.635l-8.912 2.934zm-8.32 1.457 6.675-2.197-2.123-4.937zm7.836-2.58 8.195-2.698-1.466-.324-8.872-1.962z" clip-rule="evenodd"/></svg>