<svg xmlns="http://www.w3.org/2000/svg" viewBox="208.5 290.5 201 72"><g fill="currentColor"><path d="m281.647 339 .466 7.369h.118c.241-.753.509-1.539.885-2.276l2.54-5.093h4.127l.624 7.369h.118c.215-.721.457-1.475.787-2.178l2.48-5.191h5.601l-7.574 12.347h-4.697l-.414-6.714h-.177c-.18.64-.338 1.261-.63 1.867l-2.415 4.847h-4.58L276.065 339z"/><path d="M299 339h5.188l-.79 4.159h3.301l.791-4.159h5.188l-2.346 12.347h-5.188l.815-4.29h-3.302l-.815 4.29h-5.188z"/><path d="M327.873 345.206c-.753 3.963-4.88 6.337-9.398 6.337-4.521 0-7.746-2.375-6.992-6.337.737-3.881 4.912-6.403 9.412-6.403s7.714 2.522 6.978 6.403m-10.978.065c-.269 1.408.688 2.375 2.319 2.375s2.955-.967 3.224-2.375c.248-1.311-.604-2.407-2.314-2.407-1.712.001-2.981 1.097-3.229 2.407M329.053 339h5.385l-1.594 8.384h4.521l-.754 3.962h-9.905zm21.051 7.925.24.181c.844.622 1.907 1.13 3.146 1.13.531 0 1.41-.181 1.516-.737s-.592-.605-1.066-.688l-1.051-.163c-2.045-.312-3.615-1.344-3.25-3.275.559-2.931 4.072-4.569 7.295-4.569 1.69 0 3.179.345 4.492 1.081l-2.055 3.161c-.824-.524-1.788-.934-2.948-.934-.471 0-1.188.146-1.282.654-.088.458.567.524.965.606l1.176.229c2.197.427 3.656 1.441 3.259 3.537-.562 2.948-4.062 4.405-7.265 4.405-1.866 0-3.948-.426-5.484-1.13z"/><path d="m368.604 346.876-.215-2.178c-.058-.524-.054-1.064-.051-1.589h-.197l-1.697 3.767zm-4.688 4.471h-5.699L365.713 339h5.954l2.94 12.347h-5.699l-.198-1.539h-4.067z"/><path d="M376.504 339h5.385l-1.594 8.384h4.521l-.754 3.962h-9.904zm10.905 0h9.965l-.642 3.374h-4.541l-.224 1.179h4.146l-.609 3.21h-4.147l-.229 1.211h4.698l-.643 3.373h-10.121z"/></g><g fill="currentColor"><path d="m314.348 316.81 6.799-.255-5.705 18.799h12.199l5.703-18.799 6.646.255 2.708-8.926h-25.644zm-25.259 4.881c-1.706 8.815-11.052 14.099-21.292 14.099-10.239 0-17.542-5.283-15.836-14.099 1.67-8.635 11.125-14.244 21.32-14.244s17.478 5.61 15.808 14.244m-24.87.146c-.605 3.133 1.562 5.283 5.255 5.283 3.695 0 6.693-2.149 7.299-5.283.564-2.914-1.368-5.354-5.241-5.354-3.873-.002-6.749 2.44-7.313 5.354"/><path d="M285.298 333.276c3.481 1.565 8.195 2.514 12.424 2.514 7.257 0 15.185-3.242 16.453-9.8.902-4.663-2.399-6.922-7.381-7.869l-2.662-.51c-.9-.183-2.385-.328-2.188-1.349.218-1.129 1.84-1.458 2.909-1.458 2.625 0 4.81.911 6.676 2.077l4.654-7.031c-2.978-1.639-6.346-2.403-10.175-2.403-7.301 0-15.263 3.643-16.524 10.164-.832 4.299 2.731 6.594 7.36 7.287l2.378.363c1.078.184 2.66.292 2.42 1.53s-2.231 1.639-3.434 1.639c-2.805 0-5.213-1.129-7.126-2.513l-.545-.401zm81.145-24.7c-2.44-.729-5.213-1.129-7.974-1.129-9.838 0-18.78 6.412-20.331 14.427-1.516 7.833 4.787 13.917 14.359 13.917 2.18 0 6.784-.328 8.893-1.093l2.344-10.273c-2.264 1.566-4.678 2.55-7.483 2.55-3.649 0-6.36-2.332-5.774-5.354.578-2.988 4.02-5.355 7.67-5.355 2.76 0 4.961 1.275 6.633 2.77zm19.532-1.129c-10.194 0-19.649 5.609-21.32 14.244-1.705 8.815 5.598 14.099 15.838 14.099 10.238 0 19.586-5.283 21.291-14.099 1.668-8.634-5.616-14.244-15.809-14.244m-1.748 9.034c3.873 0 5.806 2.44 5.24 5.354-.605 3.133-3.604 5.283-7.299 5.283s-5.861-2.149-5.255-5.283c.564-2.912 3.441-5.354 7.314-5.354m-129.121-14.07c-3.045-.881-6.501-1.365-9.944-1.365-12.271 0-23.424 7.75-25.357 17.438-1.889 9.468 5.971 16.821 17.908 16.821 2.721 0 8.464-.396 11.091-1.32l2.923-12.419c-2.821 1.894-5.834 3.083-9.333 3.083-4.553 0-7.932-2.819-7.203-6.475.721-3.61 5.013-6.474 9.565-6.474 3.442 0 6.188 1.542 8.271 3.347z"/><path d="M394.277 334.018c.183-.959 1.252-1.732 2.416-1.732 1.155 0 1.938.773 1.756 1.732-.185.965-1.259 1.738-2.416 1.738-1.163 0-1.938-.774-1.756-1.738m3.628 0c.146-.772-.408-1.279-1.3-1.279-.906 0-1.638.507-1.783 1.279-.147.773.391 1.285 1.298 1.285.891 0 1.638-.511 1.785-1.285m-.743.907h-.539l-.339-.769h-.353l-.146.769h-.458l.345-1.816h1.057c.466 0 .718.129.638.556-.061.311-.304.471-.585.493zm-.668-1.116c.229 0 .426 0 .464-.194.03-.16-.168-.16-.397-.16h-.496l-.065.354z"/></g><path fill="currentColor" d="M220.658 351.367h57.093l-.004-.02h-.047l-.722-3.14h-56.32zm0-4.488h56.014l-.728-3.159h-55.286zm0-4.507h54.958l-.247-1.151-.505-2.197h-54.206zM339.959 339h9.964l-.641 3.374h-4.54l-.225 1.179h4.146l-.609 3.21h-4.146l-.23 1.211h4.697l-.641 3.373h-10.123z"/></svg>