<svg xmlns="http://www.w3.org/2000/svg" width="24" height="24"><defs><mask id="a"><path fill="#fff" d="M0 0h24v24H0z"/><path d="M2 11.19h2.7v1.62H2z"/><path d="M11.19 6.86h1.62v10.27h-1.62zm8.11 4.33H22v1.62h-2.7zM6.59 17.14v1.33a.29.29 0 0 0 .29.29h10.24a.29.29 0 0 0 .29-.29v-1.33zm10.53-11.9H6.88a.29.29 0 0 0-.29.29v1.33h10.82V5.53a.29.29 0 0 0-.29-.29"/><path d="M4.43 8.76h4.86v6.49H4.43z"/><path d="M14.7 8.76h4.86v6.49H14.7z"/></mask></defs><path fill="currentColor" d="M11.19 6.86h1.62v10.27h-1.62z" mask="url(#a)"/></svg>