<svg height="24" width="24" xmlns="http://www.w3.org/2000/svg"><path d="m11.19 6.86h1.62v10.27h-1.62z" fill="#4285f4"/><path d="m2 11.19h2.7v1.62h-2.7z" fill="#669df6"/><rect fill="#4285f4" height="6.49" rx=".24" width="4.86" x="4.43" y="8.76"/><path d="m11.19 6.86h1.62v10.27h-1.62zm8.11 4.33h2.7v1.62h-2.7zm-12.71 5.95v1.33a.29.29 0 0 0 .29.29h10.24a.29.29 0 0 0 .29-.29v-1.33zm10.53-11.9h-10.24a.29.29 0 0 0 -.29.29v1.33h10.82v-1.33a.29.29 0 0 0 -.29-.29" fill="#669df6"/><rect fill="#4285f4" height="6.49" rx=".24" width="4.86" x="14.7" y="8.76"/></svg>