<svg xmlns="http://www.w3.org/2000/svg" fill="#541bae" viewBox="0 0 24 24"><path d="M20.382 9.405c-.065-.648-.13-1.362-.26-2.01-.13-.65-.259-1.298-.518-1.946-.13-.325-.26-.649-.39-.908-.13-.325-.324-.584-.454-.909-.194-.259-.389-.583-.583-.843a3.7 3.7 0 0 0-.714-.713A9.5 9.5 0 0 0 15.906.973a6.6 6.6 0 0 0-1.88-.713C13.375.065 12.727 0 12.013 0s-1.362.065-2.01.26C9.355.39 8.77.649 8.187.973c-.648.324-1.167.714-1.686 1.168-.26.194-.454.454-.714.713l-.583.778c-.13.325-.325.584-.454.909l-.39.973c-.194.648-.389 1.297-.519 1.946-.13.648-.194 1.297-.259 2.01-.065.714 0 1.298 0 1.946 0 .649.065 1.297.195 2.011l.194.973c.065.324.195.649.325.973.454 1.232 1.167 2.4 1.88 3.503.39.584.779 1.102 1.168 1.621.39.52.779 1.103 1.233 1.557.194.26.454.454.713.714.26.194.52.389.843.583.26.195.584.325.908.454.13.065.325.13.455.13.194 0 .324.065.519.065.194 0 .324 0 .518-.065.195 0 .325-.065.454-.13.325-.13.649-.26.909-.454.259-.194.583-.389.843-.583.26-.195.519-.454.713-.714.454-.519.844-1.038 1.233-1.557s.778-1.102 1.167-1.621c.714-1.103 1.427-2.27 1.881-3.503.13-.324.26-.649.325-.973s.194-.649.194-.973c.13-.649.195-1.297.195-2.01 0-.65 0-1.363-.065-2.012m-15.568 2.66s3.698.843 6.098 5.838c-.065 0-6.422-.13-6.098-5.838m8.368 5.838c2.335-4.995 6.097-5.838 6.097-5.838.325 5.708-6.097 5.838-6.097 5.838"/></svg>