<svg xmlns="http://www.w3.org/2000/svg" width="18" height="18" viewBox="0 0 18 18"><defs><mask id="a"><path fill="#fff" d="M0 0h18v18H0z"/><path d="M17.982 10.118c0-.818-1.193-1.087-1.652-1.717-.632-.867-.7-1.977-1.855-2.166a5.09 5.09 0 0 0-5.244-4.87 5.225 5.225 0 0 0-4.993 3.4A4.82 4.82 0 0 0 0 9.408a4.893 4.893 0 0 0 5.063 4.7q.227 0 .446-.019h8.2a.8.8 0 0 0 .216-.032 4.09 4.09 0 0 0 4.057-3.939"/><path d="M6.507 14.093H18v1.02H6.507z"/><path d="M8.57 12.512h7.367v3.823a.3.3 0 0 1-.3.3H8.869a.3.3 0 0 1-.3-.3v-3.823z"/><path d="M7.664 6.553h9.178v3.679H7.664z"/><path d="M8.57 4.246h7.367v5.55H8.57z"/><path d="M7.997 12.305h8.509v1.192H7.997z"/><circle cx="16.045" cy="10.082" r=".285"/></mask></defs><path fill="currentColor" d="M7.106 8.18H17.4a.6.6 0 0 1 .6.6v6.1H6.507v-6.1a.6.6 0 0 1 .599-.6" mask="url(#a)"/></svg>