<svg height="18" viewBox="0 0 18 18" width="18" xmlns="http://www.w3.org/2000/svg" xmlns:xlink="http://www.w3.org/1999/xlink"><linearGradient id="a" gradientUnits="userSpaceOnUse" x1="8.991" x2="8.991" y1="14.11" y2="1.365"><stop offset="0" stop-color="#773adc"/><stop offset=".817" stop-color="#a67af4"/></linearGradient><linearGradient id="b"><stop offset="0" stop-color="#c3f1ff"/><stop offset=".999" stop-color="#9cebff"/></linearGradient><linearGradient id="c" gradientUnits="userSpaceOnUse" x1="12.253" x2="12.253" xlink:href="#b" y1="4.246" y2="9.797"/><linearGradient id="d" gradientUnits="userSpaceOnUse" x1="12.253" x2="12.253" xlink:href="#b" y1="16.635" y2="12.512"/><path d="m17.982 10.118c0-.818-1.193-1.087-1.652-1.717-.632-.867-.7-1.977-1.855-2.166a5.09 5.09 0 0 0 -5.244-4.87 5.225 5.225 0 0 0 -4.993 3.4 4.82 4.82 0 0 0 -4.238 4.643 4.893 4.893 0 0 0 5.063 4.7q.227 0 .446-.019h8.2a.8.8 0 0 0 .216-.032 4.09 4.09 0 0 0 4.057-3.939" fill="url(#a)"/><rect fill="#005ba1" height="3.679" rx=".3" width="9.178" x="7.664" y="6.553"/><rect fill="url(#c)" height="5.55" rx=".3" width="7.367" x="8.57" y="4.246"/><path d="m7.106 8.18h10.294a.6.6 0 0 1 .6.6v6.1h-11.493v-6.1a.6.6 0 0 1 .599-.6" fill="#5ea0ef"/><path d="m6.507 14.093h11.493v1.02h-11.493z" fill="#0078d4"/><rect fill="#83b9f9" height="1.192" rx=".3" width="8.509" x="7.997" y="12.305"/><circle cx="16.045" cy="10.082" fill="#c3f1ff" r=".285"/><path d="m8.57 12.512h7.367v3.823a.3.3 0 0 1 -.3.3h-6.768a.3.3 0 0 1 -.3-.3v-3.823z" fill="url(#d)"/></svg>