<svg viewBox="0 0 24 24" xmlns="http://www.w3.org/2000/svg" fill="#F97316"><path d="m12 1.527a1.532 1.532 0 0 0 -.76.203l-10.4705 6.002a1.532 1.532 0 0 0 -.7695 1.289v.088a1.532 1.532 0 0 0 .7695 1.291l2.8005 1.6-2.8005 1.61c-.5135.29-.7695.81-.7695 1.33 0 .51.256 1.03.7695 1.32l10.4705 6.01c.47.27 1.05.27 1.52 0l10.47-6.01c.5-.28.76-.78.77-1.29v-.07c-.01-.5-.27-1.01-.77-1.29l-2.81-1.61 2.81-1.6a1.532 1.532 0 0 0 .77-1.177v-.313a1.532 1.532 0 0 0 -.77-1.178l-10.47-6.002a1.532 1.532 0 0 0 -.76-.203zm0 3.299 7.39 4.235-2.05 1.179-4.58-2.638c-.23-.132-.49-.204-.76-.204s-.53.071-.76.204l-4.588 2.638-2.039-1.179zm0 5.874 2.27 1.3-2.27 1.3-2.266-1.3zm-5.348 3.07 4.588 2.62a1.532 1.532 0 0 0 1.52 0l4.58-2.62 2.05 1.17-7.39 4.23-7.387-4.23z"/></svg>