<svg height="18" viewBox="0 0 18 18" width="18" xmlns="http://www.w3.org/2000/svg" xmlns:xlink="http://www.w3.org/1999/xlink"><linearGradient id="a" gradientUnits="userSpaceOnUse" x1="10.603" x2="10.603" y1="2.24" y2="17.216"><stop offset=".268" stop-color="#32bedd"/><stop offset="1" stop-color="#198ab3"/></linearGradient><g stroke-width="0"><path d="m2.334 10.817v-5.411c0-.379.202-.73.531-.92l4.687-2.705a1.06 1.06 0 0 1 1.062 0l.431.249-2.563-1.558a1.06 1.06 0 0 0 -1.057 0l-4.897 2.693a1.06 1.06 0 0 0 -.528.915v5.385c0 .378.201.727.528.915l2.271 1.311a1.06 1.06 0 0 1 -.465-.876z" fill="#198ab3"/><path d="m2.865 11.737 1.751 1.011-.003-.007-1.814-1.048q.032.024.066.044m7.466-8.965-1.287-.743 1.241.754zm-5.808 4.07c0-.496.267-.959.697-1.207l4.686-2.706a1.4 1.4 0 0 1 .379-.146l-1.241-.754-.431-.249a1.06 1.06 0 0 0 -1.062 0l-4.686 2.706c-.329.19-.531.54-.531.92v5.411c0 .353.177.679.465.876l1.814 1.048a1.4 1.4 0 0 1 -.091-.487v-5.411z" fill="#32bedd"/></g><path d="m15.986 5.635-4.686-2.706a1.4 1.4 0 0 0 -.968-.157 1.4 1.4 0 0 0 -.425.157l-4.686 2.706c-.43.248-.697.711-.697 1.207v5.411a1.409 1.409 0 0 0 .703 1.211l4.914 2.702c.214.124.454.186.695.186.243 0 .486-.063.705-.189l4.446-2.702c.43-.248.697-.711.697-1.207v-5.411c0-.496-.267-.959-.697-1.207zm-10.434.575 4.686-2.706a.73.73 0 0 1 .73 0l2.827 1.632 1.859 1.073c.007.004.01.013.017.017l-5.034 2.87-5.315-2.658a.7.7 0 0 1 .229-.229zm2.94 8.292-2.94-1.617a.73.73 0 0 1 -.365-.632v-4.992l5.065 2.533v5.675l-1.76-.968zm7.527-2.249c0 .26-.14.502-.371.636l-4.446 2.702c-.047.027-.102.025-.154.041v-5.852l4.971-2.834z" fill="#9cebff"/><path d="m10.603 8.145a1.365 1.365 0 1 0 0 2.73 1.365 1.365 0 0 0 0-2.73m0-3.668a1.25 1.25 0 1 0 0-2.502 1.25 1.25 0 0 0 0 2.502m-5.748 7.217a1.25 1.25 0 1 0 0 2.502 1.25 1.25 0 0 0 0-2.502m11.496-4.145a1.25 1.25 0 1 0 0-2.502 1.25 1.25 0 0 0 0 2.502m0 4.055a1.25 1.25 0 1 0 0 2.502 1.25 1.25 0 0 0 0-2.502m-5.748 3.166a1.25 1.25 0 1 0 0 2.502 1.25 1.25 0 0 0 0-2.502m-5.748-9.482a1.25 1.25 0 1 0 0 2.502 1.25 1.25 0 0 0 0-2.502" fill="url(#a)"/><path d="m10.603 1.577c-.909 0-1.649.74-1.649 1.649s.74 1.649 1.649 1.649 1.649-.74 1.649-1.649-.74-1.649-1.649-1.649m0 2.9a1.25 1.25 0 1 1 0-2.502 1.25 1.25 0 0 1 0 2.502m-5.748 6.818c-.909 0-1.649.74-1.649 1.649s.74 1.649 1.649 1.649 1.649-.74 1.649-1.649-.74-1.649-1.649-1.649m0 2.9a1.25 1.25 0 1 1 0-2.502 1.25 1.25 0 0 1 0 2.502m11.496-2.991c-.909 0-1.649.74-1.649 1.649s.74 1.649 1.649 1.649 1.649-.74 1.649-1.649-.74-1.649-1.649-1.649m0 2.9a1.25 1.25 0 1 1 0-2.502 1.25 1.25 0 0 1 0 2.502m-11.496-9.214c-.909 0-1.649.74-1.649 1.649s.74 1.649 1.649 1.649 1.649-.74 1.649-1.649-.74-1.649-1.649-1.649m0 2.9a1.25 1.25 0 1 1 0-2.502 1.25 1.25 0 0 1 0 2.502m5.748 6.581c-.909 0-1.649.74-1.649 1.649s.74 1.649 1.649 1.649 1.649-.74 1.649-1.649-.74-1.649-1.649-1.649m0 2.9a1.25 1.25 0 1 1 0-2.502 1.25 1.25 0 0 1 0 2.502m5.748-9.324c.909 0 1.649-.74 1.649-1.649s-.74-1.649-1.649-1.649-1.649.74-1.649 1.649.74 1.649 1.649 1.649m0-2.9a1.25 1.25 0 1 1 0 2.502 1.25 1.25 0 0 1 0-2.502" fill="#fff"/></svg>