<svg xmlns="http://www.w3.org/2000/svg" width="200pt" height="200pt" viewBox="0 0 200 200"><path fill="#55acee" d="M51.77 23.78c.52-2.56 2.17-5.22 5.11-5.14 11.71-.18 23.43 0 35.15-.08L92 23.87c-13.41-.15-26.82.02-40.23-.09m45.37-5.21c8.28.08 16.56-.14 24.83.09 2.83.01 4.1 2.92 5.02 5.12-10.01.07-20.01.01-30.02.04.06-1.75.12-3.5.17-5.25M52.23 29.34c5.65-.01 11.3.02 16.95-.03-1.73 8.65-8.89 14.85-16.11 19.19-.33-6.38-.6-12.77-.84-19.16m22.04-.02c5.86.04 11.72.02 17.58.01-1.75 49.24-3.16 98.5-4.92 147.74-.16 2.41-2.45 4.33-4.84 4.3-6.36.13-12.73.05-19.09.04-3.04.32-5.67-2.42-5.52-5.4-1.56-40.57-2.69-81.15-4.47-121.7 9.81-5.18 19.46-13.45 21.26-24.99m22.7 0c7.28.02 14.56.06 21.85-.03 3.03 8.47 9.17 15.6 17.04 19.95 3.79 10.81 7.69 21.58 11.44 32.4 1.61 4.25.51 9.56-3.43 12.14-16.8 12.77-33.56 25.61-50.43 38.32.75-11.65.48-23.34 1.31-34.98 5.02-5.88 11.54-10.48 16.96-16.06-5.2-7.35-10.43-14.69-15.7-21.99-.07-9.92.6-19.84.96-29.75m27.34.05c1.48-.03 2.96-.06 4.44-.08 1.51 4.01 2.89 8.06 4.29 12.11-3.73-3.33-6.76-7.42-8.73-12.03"/></svg>