<svg viewBox="0 0 128 128" xmlns="http://www.w3.org/2000/svg" xmlns:xlink="http://www.w3.org/1999/xlink"><linearGradient id="a"><stop offset="0" stop-color="#087cfa"/><stop offset=".02" stop-color="#0d7bfa"/><stop offset=".37" stop-color="#5566f9"/><stop offset=".66" stop-color="#8a57f8"/><stop offset=".88" stop-color="#ab4ef7"/><stop offset="1" stop-color="#b74af7"/></linearGradient><linearGradient id="b" gradientTransform="matrix(1.21904799 .00221275 -.00221275 1.21904799 0 0)" gradientUnits="userSpaceOnUse" x1="99.03" x2="61.54" xlink:href="#a" y1="59.18" y2="90.91"/><linearGradient id="c" gradientTransform="matrix(1.21904799 .00221275 -.00221275 1.21904799 0 0)" gradientUnits="userSpaceOnUse" x1="37.54" x2="60.33" xlink:href="#a" y1="34.26" y2="8.33"/><linearGradient id="d" gradientTransform="matrix(1.21904799 .00221275 -.00221275 1.21904799 0 0)" gradientUnits="userSpaceOnUse" x1="17.84" x2="87.09" y1="88.36" y2="43.86"><stop offset="0" stop-color="#087cfa"/><stop offset=".1" stop-color="#1598d3"/><stop offset=".22" stop-color="#23b6aa"/><stop offset=".35" stop-color="#2dcc8b"/><stop offset=".46" stop-color="#35dd74"/><stop offset=".57" stop-color="#39e767"/><stop offset=".67" stop-color="#3bea62"/></linearGradient><path d="m108.57 50.75 13.946 30.926-23.871 40.84-14.7-35.696zm0 0" fill="url(#b)"/><path d="m83.945 86.82 14.7 35.696-36.985-12.716zm0 0" fill="#b74af7"/><path d="m87.93 38.535-7.582-33.05h-42.048l-32.816 50.202 9.496 23.063-9.496 21.055 67.965-57.82zm0 0" fill="url(#c)"/><path d="m122.516 30.328-49.067 11.656-67.965 57.82 43.84 22.712 34.621-35.696zm0 0" fill="url(#d)"/><path d="m27.43 27.43h73.14v73.14h-73.14zm0 0"/><path d="m34.293 86.855h27.426v4.575h-27.426zm-2.063-34.668v-.085a15.496 15.496 0 0 1 4.633-11.098 15.503 15.503 0 0 1 11.18-4.434 16.615 16.615 0 0 1 11.86 4.133l-4.18 5.047a11.13 11.13 0 0 0 -7.887-3.082c-4.875 0-8.668 4.266-8.668 9.387v.082c0 5.523 3.793 9.57 9.145 9.57 2.218.066 4.402-.57 6.238-1.816v-4.34h-6.68v-5.727h13.082v13.09a19.589 19.589 0 0 1 -12.887 4.793c-9.375 0-15.836-6.598-15.836-15.52zm31.528 0v-.085a15.581 15.581 0 0 1 4.758-11.16 15.604 15.604 0 0 1 11.32-4.372c9.3 0 15.98 6.938 15.98 15.508v.086a15.584 15.584 0 0 1 -16.066 15.602c-9.313-.059-15.992-6.996-15.992-15.579zm25.12 0v-.085a9.142 9.142 0 0 0 -2.57-6.645 9.148 9.148 0 0 0 -6.558-2.789 9.038 9.038 0 0 0 -6.516 2.746 9.022 9.022 0 0 0 -2.53 6.602v.086a9.175 9.175 0 0 0 2.562 6.68 9.155 9.155 0 0 0 6.582 2.804 9.027 9.027 0 0 0 6.523-2.77 9.001 9.001 0 0 0 2.508-6.629zm0 0" fill="#fff"/></svg>