<svg height="48" viewBox="0 0 48 48" width="48" xmlns="http://www.w3.org/2000/svg"><path d="m34.522 40.526h6.756v-20.766h-6.756zm-1-22.766a1 1 0 0 0 -1 1v22.766a1 1 0 0 0 1 1h8.756a1 1 0 0 0 1-1v-22.766a1 1 0 0 0 -1-1zm-.752-13.343c0-.23.188-.417.418-.417h9.424c.23 0 .417.187.417.417v9.424c0 .23-.187.417-.417.417h-9.424a.42.42 0 0 1 -.418-.417zm.418 11.841h9.424a2.42 2.42 0 0 0 2.417-2.417v-9.424a2.42 2.42 0 0 0 -2.417-2.417h-9.424a2.42 2.42 0 0 0 -2.418 2.417v9.424a2.42 2.42 0 0 0 2.418 2.417m-31.188 29.771h43.78v-2h-43.78zm18.512-5.503h6.756v-12.885h-6.756zm-1 2h8.756a1 1 0 0 0 1-1v-14.885a1 1 0 0 0 -1-1h-8.756a1 1 0 0 0 -1 1v14.885a1 1 0 0 0 1 1m-13.009-2h6.756v-17.263h-6.756zm-1 2h8.756a1 1 0 0 0 1-1v-19.263a1 1 0 0 0 -1-1h-8.756a1 1 0 0 0 -1 1v19.263a1 1 0 0 0 1 1" fill="#e7157b" fill-rule="evenodd"/></svg>