<svg xmlns="http://www.w3.org/2000/svg" width="18" height="18" viewBox="0 0 18 18"><defs><mask id="a"><path fill="#fff" d="M0 0h18v18H0z"/><path d="M18 13.5A4.5 4.5 0 1 1 13.5 9a4.5 4.5 0 0 1 4.5 4.5"/></mask></defs><g fill="currentColor" mask="url(#a)"><path d="M15.888 7.947a8 8 0 0 1-.041.81.282.282 0 0 1-.4.226 4.921 4.921 0 0 0-6.471 6.468.283.283 0 0 1-.225.4 8 8 0 0 1-.809.041 7.945 7.945 0 1 1 7.943-7.943z"/><path d="M14.443.528v8.143a4.921 4.921 0 0 0-5.464 6.78.283.283 0 0 1-.225.4 8 8 0 0 1-.809.041 7.93 7.93 0 0 1-6.5-3.373V.527A.53.53 0 0 1 1.976 0h11.938a.53.53 0 0 1 .529.528"/></g><path fill="currentColor" d="M18 13.5A4.5 4.5 0 1 1 13.5 9a4.5 4.5 0 0 1 4.5 4.5"/></svg>