<svg height="18" viewBox="0 0 18 18" width="18" xmlns="http://www.w3.org/2000/svg" xmlns:xlink="http://www.w3.org/1999/xlink"><linearGradient id="a" gradientUnits="userSpaceOnUse" x1="7.944" x2="7.944" y1=".233" y2="15.56"><stop offset=".134" stop-color="#005ba1"/><stop offset="1" stop-color="#003067"/></linearGradient><linearGradient id="b" gradientUnits="userSpaceOnUse" x1="7.945" x2="7.945" y1="-.041" y2="15.754"><stop offset="0" stop-color="#5ea0ef"/><stop offset="1" stop-color="#0078d4"/></linearGradient><path d="m15.888 7.947a8 8 0 0 1 -.041.81.282.282 0 0 1 -.4.226 4.921 4.921 0 0 0 -6.471 6.468.283.283 0 0 1 -.225.4 8 8 0 0 1 -.809.041 7.945 7.945 0 1 1 7.943-7.943z" fill="url(#a)"/><path d="m14.443.528v8.143a4.921 4.921 0 0 0 -5.464 6.78.283.283 0 0 1 -.225.4 8 8 0 0 1 -.809.041 7.93 7.93 0 0 1 -6.5-3.373v-11.992a.53.53 0 0 1 .531-.527h11.938a.53.53 0 0 1 .529.528" fill="url(#b)"/><path d="m18 13.5a4.5 4.5 0 1 1 -4.5-4.5 4.5 4.5 0 0 1 4.5 4.5" fill="#fff"/><path d="m18 13.5a4.5 4.5 0 1 1 -4.5-4.5 4.5 4.5 0 0 1 4.5 4.5" fill="#57a300"/><g fill="#fff"><path d="m6.768 4.524h4.973a.283.283 0 0 1 .282.283v.726a.283.283 0 0 1 -.282.283h-4.973a.283.283 0 0 1 -.283-.283v-.726a.283.283 0 0 1 .283-.283m-.242 3.059v.727a.283.283 0 0 0 .283.283h4.972a.283.283 0 0 0 .283-.283v-.727a.283.283 0 0 0 -.283-.282h-4.972a.28.28 0 0 0 -.283.282m.27 2.494a.283.283 0 0 0 -.282.283v.726a.283.283 0 0 0 .282.283h2.267a4.9 4.9 0 0 1 .9-1.292zm6.055 5.579a.28.28 0 0 0 .427-.018l2.739-3.507a.225.225 0 0 0 -.045-.312l-.51-.393a.227.227 0 0 0 -.318.041l-2.144 2.743-1.2-1.29a.227.227 0 0 0 -.32-.012l-.47.434a.23.23 0 0 0 -.073.16.23.23 0 0 0 .06.164z"/><path d="m4.073 4.524h1.027a.29.29 0 0 1 .291.292v.708a.29.29 0 0 1 -.291.292h-1.027a.29.29 0 0 1 -.291-.292v-.708a.29.29 0 0 1 .291-.292m-.251 3.068v.708a.29.29 0 0 0 .292.292h1.025a.29.29 0 0 0 .292-.292v-.708a.29.29 0 0 0 -.292-.292h-1.025a.29.29 0 0 0 -.292.292m-.012 2.777v.708a.29.29 0 0 0 .291.292h1.026a.29.29 0 0 0 .291-.292v-.708a.29.29 0 0 0 -.291-.292h-1.027a.29.29 0 0 0 -.29.292" opacity=".8"/></g></svg>