<svg xmlns="http://www.w3.org/2000/svg" id="b8a38613-92d9-40bd-9920-20dea78733ab" width="18" height="18" viewBox="0 0 18 18"><defs><linearGradient id="bb278f11-acc5-4f81-a956-3c7e2103f9e0" x1="9" x2="9" y1="18.17" y2="1.506" gradientTransform="rotate(45 9 9)" gradientUnits="userSpaceOnUse"><stop offset="0" stop-color="#238ab0"/><stop offset=".109" stop-color="#2da4c8"/><stop offset=".775" stop-color="#3ed3f2"/></linearGradient></defs><rect width="12.893" height="12.893" x="2.553" y="2.553" fill="url(#bb278f11-acc5-4f81-a956-3c7e2103f9e0)" rx=".591" transform="rotate(-45 9 9)"/><path fill="#9cebff" d="m14.092 10.067-.358-.358V8.33h-2.857v1.52h1.281L8.94 13.069 5.721 9.85h1.302V8.33H3.885v1.52h.119l-.216.217 4.498 4.498.654-.653.653.653z"/><ellipse id="e7444779-97d4-41c0-b615-8f20dff7b430" cx="3.977" cy="9.09" fill="#fff" rx="1.577" ry="1.585" transform="rotate(-45.121 3.977 9.09)"/><ellipse id="f49a3027-2a70-4956-8377-b9fde0692268" cx="3.977" cy="9.09" fill="#86d633" rx=".896" ry=".905" transform="rotate(-45.061 3.976 9.09)"/><ellipse id="a1afee39-6bd9-4799-a876-a587d30d68e2" cx="14.014" cy="9.09" fill="#fff" rx="1.577" ry="1.585" transform="rotate(-45.121 14.015 9.09)"/><ellipse id="e3be4992-7cb5-4729-a727-b6df3846a260" cx="14.014" cy="9.09" fill="#86d633" rx=".896" ry=".905" transform="rotate(-45.061 14.015 9.09)"/><path fill="#fff" d="m11.04 4.806-2-2a.15.15 0 0 0-.213 0l-2 2a.15.15 0 0 0 .106.257h1.135a.107.107 0 0 1 .107.107v10.263H9.7V5.17a.107.107 0 0 1 .1-.107h1.131a.15.15 0 0 0 .109-.257"/><ellipse id="b39a4da1-83b2-4022-9206-dc01785cf428" cx="8.935" cy="14.139" fill="#fff" rx="1.577" ry="1.585" transform="rotate(-45.121 8.936 14.139)"/><ellipse id="fc8023b8-202d-4292-8ba0-f1db060a36ef" cx="8.935" cy="14.139" fill="#86d633" rx=".896" ry=".905" transform="rotate(-45.061 8.936 14.138)"/></svg>