<svg viewBox="0 0 24 24" xmlns="http://www.w3.org/2000/svg"><path d="m16.524 17.985 1.413-.46v-3.885zm6.485-5.632.991-3.048-6.786-4.93zm-4.346-4.515 2.414 7.422 1.489-2.052zm.136 3.2 1.59 4.898-1.59 1.156zm-9.067 9.152 3.688-1.198h-4.557zm2.268 1.84 4.159-3.023-5.747 1.87zm3.266 1.225 3.894-5.363-6.305 4.581zm4.149.158h-3.2l5.788-7.967zm-9.657-1.947-6.305-4.581v2.532zm-5.175 1.947h8.377l-9.365-3.045zm-.365-9.346-.607 1.87 4.16 3.021zm2.722 2.284-2.278-3.14.87-1.197zm-6.94-7.046 2.592 7.98v-9.863zm5.865-3.091-2.41.784v6.635zm.952-.14-1.593 4.898 3.561-4.897zm2.915.159 1.413.46-3.696 2.685zm4.863-3.761-2.597-1.885-6.792 4.933zm-5.649 2.741h7.81l-1.489-2.053zm3.083.862 5.765 1.872-.61-1.872zm5.908 2.823v1.488l-3.702-2.688z"/></svg>