<svg height="48" viewBox="0 0 48 48" width="48" xmlns="http://www.w3.org/2000/svg"><path d="m33.69 34.375h2.345v-2.375h-2.345zm-6.939 0h2.375v-2.375h-2.375zm-7.875 0h2.375v-2.375h-2.375zm-6.91 0h2.285v-2.375h-2.285zm6.035-17.5h12v-5.875h-12zm19.034 13.125h-1.534v-3.375a1 1 0 0 0 -1-1h-2.5v-3.375a1 1 0 0 0 -1-1h-6v-2.375h6a1 1 0 0 0 1-1v-7.875a1 1 0 0 0 -1-1h-14a1 1 0 0 0 -1 1v7.875a1 1 0 0 0 1 1h6v2.375h-6a1 1 0 0 0 -1 1v3.375h-2.5a1 1 0 0 0 -1 1v3.375h-1.536a1 1 0 0 0 -1 1v4.375a1 1 0 0 0 1 1h4.286a1 1 0 0 0 1-1v-4.375a1 1 0 0 0 -1-1h-.75v-2.375h4.125v2.375h-.75a1 1 0 0 0 -1 1v4.375a1 1 0 0 0 1 1h4.375a1 1 0 0 0 1-1v-4.375a1 1 0 0 0 -1-1h-1.625v-3.375a1 1 0 0 0 -1-1h-1.625v-2.375h12v2.375h-1.625a1 1 0 0 0 -1 1v3.375h-1.625a1 1 0 0 0 -1 1v4.375a1 1 0 0 0 1 1h4.375a1 1 0 0 0 1-1v-4.375a1 1 0 0 0 -1-1h-.75v-2.375h4.125v2.375h-.811a1 1 0 0 0 -1 1v4.375a1 1 0 0 0 1 1h4.345a1 1 0 0 0 1-1v-4.375a1 1 0 0 0 -1-1m-13.034 14c-11.029 0-20.001-8.972-20.001-20s8.972-20 20.001-20c11.028 0 20 8.972 20 20s-8.972 20-20 20m0-42c-12.132 0-22.001 9.869-22.001 22s9.869 22 22.001 22c12.13 0 22-9.869 22-22s-9.87-22-22-22" fill="#8c4fff" fill-rule="evenodd"/></svg>