<svg viewBox="0 0 24 24" xmlns="http://www.w3.org/2000/svg"><path d="m8.784 8.39c-.203.001-.402.068-.564.192l-8.102 6.19c-.158.125-.158.366 0 .49l.339.253c.153.12.368.12.523 0l4.018-3.061c.222-.168.528-.168.75 0l2.659 2.033c.221.168.527.168.749 0l3.515-2.683c.231-.168.231-.513 0-.682l-3.322-2.54c-.162-.124-.361-.192-.565-.192zm9.298 0c-.204 0-.402.068-.563.192l-8.102 6.196c-.162.123-.162.366 0 .489l.335.255c.156.116.372.116.527 0l4.635-3.533c.222-.166.528-.166.748 0l4.527 3.452c.221.169.529.169.75 0l2.889-2.213c.229-.172.229-.516 0-.688l-5.181-3.958c-.162-.124-.361-.192-.565-.192z"/></svg>