<svg height="18" viewBox="0 0 18 18" width="18" xmlns="http://www.w3.org/2000/svg" xmlns:xlink="http://www.w3.org/1999/xlink"><linearGradient id="a" gradientUnits="userSpaceOnUse" x1="8.98" x2="8.98" y1="15.81" y2="2.19"><stop offset="0" stop-color="#1988d9"/><stop offset=".9" stop-color="#54aef0"/></linearGradient><path d="m11.08 17.37-9.71-4.37a1.48 1.48 0 0 1 -.74-1.95l4.37-9.68a1.48 1.48 0 0 1 2-.74l9.63 4.37a1.48 1.48 0 0 1 .74 2l-4.37 9.63a1.48 1.48 0 0 1 -1.92.74" fill="#50e6ff"/><path d="m14.3 15.81h-10.65a1.49 1.49 0 0 1 -1.48-1.48v-10.66a1.49 1.49 0 0 1 1.48-1.48h10.65a1.48 1.48 0 0 1 1.48 1.48v10.66a1.48 1.48 0 0 1 -1.48 1.48" fill="url(#a)"/><path d="m8.73 9.9h-1.61a.09.09 0 0 1 -.12-.1l2-4.31a.11.11 0 0 1 .09 0h1.89a.09.09 0 0 1 .09.09l-2.31 3.35h2.24a.09.09 0 0 1 .09.09.14.14 0 0 1 0 .06l-3.72 4.28s-.28.25-.16-.1z" fill="#f2f2f2"/></svg>