<svg fill="none" height="512" viewBox="0 0 512 512" width="512" xmlns="http://www.w3.org/2000/svg"><path clip-rule="evenodd" d="m424.404 470.816c53.685-46.927 87.596-115.911 87.596-192.816 0-141.385-114.615-256-256-256s-256 114.615-256 256c0 74.658 31.9583 141.851 82.9409 188.646l.2358-1.646 335.9673-110z" fill="#333" fill-rule="evenodd"/><path d="m189.915 52.7412-45.415-6.7412 6.803-2.0931c4.099-1.2614 7.945-3.235 11.359-5.8304l1.068-.8111c4.115-3.1279 7.39-7.229 9.529-11.935 1.155-2.5421 1.965-5.2277 2.406-7.985l.508-3.1756c.547-3.4225.519-6.91239-.083-10.32564-.256-1.44987 1.189-2.61177 2.55-2.0512l1.858.76519c2.331.95983 4.586 2.09619 6.744 3.39917l7.723 4.66318c10.264 6.1969 19.261 14.2818 26.515 23.8272l5.136 6.7574c1.913 2.5177 4.167 4.7574 6.697 6.6548 2.775 2.0812 5.851 3.7275 9.122 4.8819l3.565 1.2582-18.726.749c-12.489.4996-24.996-.1726-37.359-2.0078z" fill="#ccc"/><path d="m178.321 93.006 13.469-24.6216c.132-.2414.14-.5316.022-.7802l-4.592-9.6681c-2.883-6.0688-9.001-9.9361-15.72-9.9361l-1.27-.0438c-8.793-.3032-17.526-1.5733-26.042-3.7872l-1.684-.438c-6.983-1.8157-13.758-4.3578-20.211-7.5847l-2.847-1.4233c-4.287-2.1433-8.347-4.711-12.121-7.6646l-3.775-2.9541c-1.122-.8778-2.747-.6537-3.5894.4949-2.5955 3.5392-4.2227 7.6943-4.7211 12.0549l-.686 6.003c-.3681 3.2203-.4089 6.4696-.1219 9.6981l1.6715 18.8043c1.2436 13.9906 6.0719 27.4245 14.0199 39.0055l1.702 2.48c2.442 3.558 5.288 6.821 8.481 9.724.45.409 1.023.661 1.63.715 23.093 2.072 45.258-9.736 56.385-30.078z" fill="#ccc"/><path d="m127.378 123.538 15.998-6.925c7.062-3.056 9.212-12.036 4.3-17.9597-3.993-4.8155-11.096-5.573-16.015-1.708l-3.794 2.9803c-.909.7144-1.74 1.5224-2.48 2.4104l-9.124 10.948c-1.281 1.538-1.179 3.8.237 5.216l2.818 3.221c.452.516.978.964 1.56 1.328 1.955 1.222 4.385 1.404 6.5.489z" fill="#ededed"/><path d="m147.988 44.8437-.488.1563 1.462.4651c6.332 2.0147 12.899 3.1949 19.536 3.511.332.0158.665-.0227.985-.1142l3.017-.8619 1.5-.5-9.581-2.0828c-1.261-.2741-2.437-.8485-3.428-1.6746-.773-.6445-.768-1.8342.011-2.4718l1.421-1.1624c1.697-1.3887 3.07-3.1324 4.021-5.1084-5.51 4.3642-11.762 7.6988-18.456 9.8437z" fill="#b2b2b2"/><path d="m202.776 219.428-130.4855 233.265c-.6475 1.158-2.2218 1.376-3.1597.438l-2.6308-2.631-11-12.5-7.0112-9.073c-6.6481-8.604-12.5836-17.735-17.7474-27.303l-.998-1.849c-5.4853-10.164-10.0799-20.784-13.7322-31.741l-3.5112-10.534c-5.27481-19.121-6.48553-39.135-3.55417-58.753l.12378-.828c1.28439-8.596 3.33379-17.059 6.12389-25.29l5.8065-17.129 4.3334-9.115c6.7203-14.136 15.9859-26.913 27.3335-37.694l5.505-5.229c11.381-10.812 25.2218-18.693 40.3281-22.962-3.533.998-7.1392 1.716-10.7851 2.147l-7.2149.853-5.5.5-6 1-6 .561-4 .439-2.8814.18c-.9259.058-1.361-1.123-.6188-1.68h.0004l4.0271-1.93c12.9793-6.219 23.6493-16.398 30.4727-29.07l4.4475-6.938c5.3036-8.274 12.3595-15.282 20.6685-20.53l1.717-1.084c3.102-1.959 6.413-3.564 9.872-4.785l15.741-5.556c2.902-1.024 5.244-3.217 6.457-6.046l.24-.561c.562-1.313.789-2.745.66-4.167-.195-2.144-1.187-4.1364-2.78-5.5845l-2.767-2.5157c-.17-.1549-.326-.3255-.464-.5096l-17.792-23.7232-14.197-19.5685c-2.809-3.8723-4.444-8.4716-4.709-13.2483-.043-.7569.742-1.2817 1.426-.9537l15.361 7.3733c13.293 6.3806 28.449 7.7222 42.656 3.7758 3.303-.9174 6.677-1.5544 10.087-1.9041l7.051-.7232c17.731-1.8185 35.645-.3459 52.841 4.344l1.484.4047 16.798 6.0472c21.071 7.5857 37.769 24.0099 45.702 44.9528l3.522 13.734c.982 3.833 2.37 7.551 4.14 11.09 4.159 8.318 10.333 15.465 17.959 20.789l8.963 6.257c3.939 2.75 8.073 5.208 12.369 7.357l19.836 9.918c.889.444 1.155 1.587.554 2.378-5.471 7.198-12.695 12.872-20.984 16.482l-11.488 5.003c-4.574 1.992-9.29 3.642-14.109 4.937l-8.44 2.267c-11.83 3.178-24.026 4.788-36.276 4.788h-20.213c-4.185 0-8.332-.787-12.225-2.321-15.527-6.117-33.185.184-41.332 14.749z" fill="#fff"/><path d="m271.185 135.316 8.802.102c1.195.014 1.465-1.67.325-2.03-1.871-.591-3.689-1.34-5.433-2.238l-6.871-3.54c-4.658-2.399-9.039-5.302-13.064-8.657l-1.352-1.126c-3.052-2.544-5.822-5.409-8.262-8.545l-1.562-2.009c-.534-.687-1.634-.268-1.576.6 1.02 15.313 13.647 27.265 28.993 27.443z" fill="#666"/><path d="m82.2231 456.395 149.0899-132.995c14.054-12.537 26.267-26.997 36.277-42.95l.91-1.45c4.904-9.808 6.997-20.783 6.047-31.707l-1.307-15.035c-.804-9.249-4.622-17.978-10.867-24.848-.242-.266-.563-.449-.916-.521l-23.957-4.889c-17.383-5.248-35.812-6.005-53.567-2.2l-.933.2-13.94 3.259c-40.655 9.504-76.4858 33.426-100.8484 67.333l-.6146.855c-6.7124 9.342-12.4148 19.37-17.0114 29.915l-.8206 1.883c-11.6106 26.636-15.5241 55.993-11.2966 84.74l1.3827 9.402c1.424 9.683 4.342 19.087 8.65 27.875 3.9787 8.117 9.1003 15.621 15.2084 22.285l7.6082 8.3c2.8734 3.134 7.7321 3.378 10.9054.548z" fill="#ccc"/><path d="m212.749 278.858-.482.275c-12.581 7.189-19.349 20.759-18.687 35.234.188 4.117 4.313 7.888 8.278 6.765l7.305-2.07c9.444-2.676 18.19-7.381 25.626-13.788l21.211-18.274 6.292-4.657c36.579-27.074 82.541-38.23 127.462-30.938 1.386.225 1.43 2.202.056 2.489l-5.31 1.106-2.407.842c-4.943 1.73-9.237 4.934-12.303 9.18-.576.797.192 1.868 1.132 1.579l1.741-.536c9.804-3.016 20.088-4.161 30.315-3.374l4.022.309c21.843.95 42.114 11.626 55.254 29.1l4.925 6.55c14.597 19.413 20.774 43.88 17.14 67.895l-1.898 12.542c-2.584 17.076-8.803 33.399-18.237 47.865l-.684 1.048-10.5 14-11.5 13-10.535 10.114c-9.619 9.234-20.138 17.483-31.398 24.624l-3.567 2.262-6.825 3.25c-1.758.837-3.225-1.572-1.675-2.75l9.5-9 1.953-2.051c5.279-5.543 9.074-12.329 11.033-19.728l.903-3.412c.406-1.533.611-3.135.611-4.721 0-8.679-6.146-16.29-14.664-17.957-5.282-1.034-10.751.331-14.929 3.725l-9.407 7.644-16.606 13.587c-10.899 8.917-22.709 16.658-35.234 23.095l-17.16 8.818-29 11-6.088 1.66c-10.59 2.889-21.4 4.9-32.32 6.014l-8.092.826h-26l-34.5-3.75-18.668-4.04c-9.847-2.131-19.376-5.528-28.35-10.107-7.301-3.725-14.189-8.209-20.551-13.378l-14.431-11.725c-17.495-13.36-28.4551-33.552-30.1251-55.502l-.8749-11.498 1.0295-16.178c1.6045-25.214 11.2616-49.246 27.5497-68.559 6.586-7.809 14.1584-14.729 22.5268-20.588l3.071-2.149c12.781-8.947 27.043-15.565 42.128-19.55l10.142-2.679c13.188-3.484 27.005-3.852 40.36-1.077l10.58 2.198c2.655.552 3.216 4.095.862 5.44z" fill="#5e5e5e"/></svg>