<svg viewBox="0 0 24 24" xmlns="http://www.w3.org/2000/svg" xmlns:xlink="http://www.w3.org/1999/xlink"><linearGradient id="a"><stop offset="0" stop-color="#6595f1"/><stop offset="1" stop-color="#336bd7"/></linearGradient><linearGradient id="b" x1="34.383%" x2="57.623%" xlink:href="#a" y1="37.415%" y2="59.204%"/><linearGradient id="c" x1="50%" x2="50%" xlink:href="#a" y1="0%" y2="100%"/><path d="m2.169 8.748.1-.695c.244-1.653.921-3.113 1.993-4.403a9.76 9.76 0 0 1 3.383-2.646c1.167-.55 2.395-.902 3.705-.982 1.136-.07 2.241.029 3.333.324a8.5 8.5 0 0 1 1.665.644c.695.358.793.911.229 1.438a22.6 22.6 0 0 1 -4.309 3.188 23.4 23.4 0 0 1 -3.986 1.786 28 28 0 0 1 -3.64.957q-.674.132-2.474.39z" fill="url(#b)"/><path d="m4.148 9.181c1.759.41 3.544.66 5.343.789 1.572.113 3.15.11 4.727.036 1.571-.073 3.118-.286 4.658-.569.536-.098 1.055-.262 1.613-.247 1.145.029 1.934.635 2.208 1.715.395 1.551.415 3.105-.007 4.646a9.54 9.54 0 0 1 -2.305 4.101 11.1 11.1 0 0 1 -4.22 2.786c-1.715.64-3.493.846-5.32.68a8.6 8.6 0 0 1 -1.4-.224.36.36 0 0 0 -.292.053c-1.223.722-2.553 1.063-3.977 1.053a7.6 7.6 0 0 1 -1.198-.114c-.77-.126-1.044-.823-.568-1.43.26-.33.496-.67.642-1.064q.102-.27.184-.546a.7.7 0 0 0 -.197-.75c-.886-.861-1.628-1.83-2.143-2.946-1.078-2.334-1.19-4.717-.302-7.136a10 10 0 0 1 .584-1.275l.072.011q1.382.31 1.898.431" fill="url(#c)"/></svg>