<svg xmlns="http://www.w3.org/2000/svg" id="Layer_1" data-name="Layer 1" viewBox="0 0 85.57 88.6"><path d="M260.8 290.72q-.15.57-.33 1.23l-.38 1.34q-.2.68-.4 1.32c-.14.43-.27.82-.4 1.16-.14-.35-.28-.74-.43-1.16s-.3-.87-.45-1.32-.28-.9-.41-1.34-.25-.85-.34-1.23h-2.3a41 41 0 0 0 1.4 4.07q.74 1.81 1.49 3.27a2.5 2.5 0 0 1-.53.87 1.2 1.2 0 0 1-.9.31 3.4 3.4 0 0 1-.55 0 3.6 3.6 0 0 1-.6-.16l-.38 1.73a4 4 0 0 0 .71.21 4.4 4.4 0 0 0 .94.1 3.7 3.7 0 0 0 1.07-.14 2.4 2.4 0 0 0 .82-.44 3.4 3.4 0 0 0 .67-.76 8.4 8.4 0 0 0 .61-1.11q.85-1.82 1.56-3.76t1.37-4.15Zm-6.38.26-.66-.17-.78-.14-.82-.09h-.81a4.7 4.7 0 0 0-1.64.27 3.4 3.4 0 0 0-1.23.76 3.3 3.3 0 0 0-.77 1.19 4.3 4.3 0 0 0-.26 1.54 3.8 3.8 0 0 0 .84 2.63 3.1 3.1 0 0 0 2.43.94 4 4 0 0 0 .81-.08 3.4 3.4 0 0 0 .72-.24v.28a1.46 1.46 0 0 1-.39 1 1.76 1.76 0 0 1-1.32.41 6 6 0 0 1-2.34-.44l-.38 1.82a9 9 0 0 0 1.3.33 8 8 0 0 0 1.4.12 4.14 4.14 0 0 0 2.95-.91 3.7 3.7 0 0 0 1-2.79Zm-4.76 3.32a2.36 2.36 0 0 1 .42-1.44 1.5 1.5 0 0 1 1.28-.57h.51l.38.05v3.46a2.4 2.4 0 0 1-.5.2 2.2 2.2 0 0 1-.62.09q-1.47 0-1.47-1.82m-2.44-3.45a2.3 2.3 0 0 0-.42-.12l-.5-.09-.49-.06h-.42a8 8 0 0 0-1.77.18 14 14 0 0 0-1.38.39v7.25h2.17v-5.85a3 3 0 0 1 .43-.08 4 4 0 0 1 .49 0 4.2 4.2 0 0 1 .84.08l.68.15Zm-13.69 3.76a5 5 0 0 0 .24 1.57 3.34 3.34 0 0 0 .74 1.26 3.5 3.5 0 0 0 1.27.84 4.8 4.8 0 0 0 1.8.31 8 8 0 0 0 .82 0l.76-.11a6 6 0 0 0 .65-.15 3 3 0 0 0 .47-.17l-.29-1.76a4.4 4.4 0 0 1-.94.27 6.3 6.3 0 0 1-1.17.11 2.5 2.5 0 0 1-1.49-.39 1.44 1.44 0 0 1-.63-1.06h4.92v-.82a4.1 4.1 0 0 0-.95-2.93 3.38 3.38 0 0 0-2.58-1 3.7 3.7 0 0 0-1.36.26 3.4 3.4 0 0 0-1.17.77 3.8 3.8 0 0 0-.82 1.27 4.6 4.6 0 0 0-.31 1.78m2.23-.83a3 3 0 0 1 .14-.55 1.5 1.5 0 0 1 .27-.47 1.3 1.3 0 0 1 .44-.33 1.5 1.5 0 0 1 .63-.12 1.4 1.4 0 0 1 .63.13 1.3 1.3 0 0 1 .42.34 1.4 1.4 0 0 1 .25.46 2.2 2.2 0 0 1 .09.54Zm-10.15 4.6h2.17v-5.91l.47-.05h.5a1.13 1.13 0 0 1 1 .44 2.9 2.9 0 0 1 .28 1.49v4.06h2.17V294a6 6 0 0 0-.16-1.43 2.8 2.8 0 0 0-.54-1.11 2.44 2.44 0 0 0-1-.72 4.5 4.5 0 0 0-1.62-.25 12.5 12.5 0 0 0-3.26.44Zm-8.54 0v-10.12h6.81v1.91h-4.54v2h4V294h-4v2.43h4.88v1.91Z" transform="translate(-177.47 -212.51)" fill="#42b288"/><path d="m215.7 292.64-.68-.15a4 4 0 0 0-1.33 0 3 3 0 0 0-.43.08v5.85h-2.17v-7.25a14 14 0 0 1 1.38-.39 8 8 0 0 1 1.77-.18h.42l.49.06.5.09a2.3 2.3 0 0 1 .42.12Zm-9.61-2.13a5 5 0 0 1 1.6.22 2.5 2.5 0 0 1 1 .63 2.3 2.3 0 0 1 .55 1 4.9 4.9 0 0 1 .16 1.3v4.51q-.46.1-1.29.24a12.5 12.5 0 0 1-2 .14 6.3 6.3 0 0 1-1.35-.13 2.9 2.9 0 0 1-1-.43 2 2 0 0 1-.67-.78 2.7 2.7 0 0 1-.23-1.18 2.23 2.23 0 0 1 .27-1.14 2.1 2.1 0 0 1 .72-.74 3.3 3.3 0 0 1 1-.4 5.8 5.8 0 0 1 1.21-.12 7 7 0 0 1 .75 0 3.3 3.3 0 0 1 .53.09v-.2a1.2 1.2 0 0 0-.34-.89 1.62 1.62 0 0 0-1.16-.33 7.6 7.6 0 0 0-1.09.08 4.7 4.7 0 0 0-.93.23l-.28-1.75.47-.12.62-.12.71-.09h.75m.18 6.35h1.08v-1.65l-.39-.06h-.48a4 4 0 0 0-.57 0 1.5 1.5 0 0 0-.47.14.8.8 0 0 0-.32.28.77.77 0 0 0-.12.44.74.74 0 0 0 .34.71 1.9 1.9 0 0 0 .94.2m-9.48-8 2.17-.35v2.26h2.61v1.8H199v2.69a2.14 2.14 0 0 0 .24 1.09 1 1 0 0 0 1 .41 4 4 0 0 0 .72-.07 3.6 3.6 0 0 0 .68-.18l.3 1.69a6 6 0 0 1-.87.28 5 5 0 0 1-1.18.12 3.9 3.9 0 0 1-1.47-.24 2.3 2.3 0 0 1-.93-.67 2.5 2.5 0 0 1-.49-1 6.2 6.2 0 0 1-.14-1.35Zm-4.92 1.7a5 5 0 0 1 1.6.22 2.5 2.5 0 0 1 1 .63 2.3 2.3 0 0 1 .55 1 5 5 0 0 1 .16 1.3v4.51q-.47.1-1.3.24a12.5 12.5 0 0 1-2 .14 6.3 6.3 0 0 1-1.35-.13 2.9 2.9 0 0 1-1-.43 2 2 0 0 1-.67-.78 2.7 2.7 0 0 1-.23-1.18 2.23 2.23 0 0 1 .27-1.14 2.1 2.1 0 0 1 .72-.74 3.3 3.3 0 0 1 1-.4 6 6 0 0 1 1.21-.12 7 7 0 0 1 .75 0 3.3 3.3 0 0 1 .53.09v-.2a1.2 1.2 0 0 0-.33-.89 1.62 1.62 0 0 0-1.17-.33 7.6 7.6 0 0 0-1.09.08 4.7 4.7 0 0 0-.93.23l-.28-1.75.47-.12.62-.12.71-.09h.75m.17 6.35h1.08v-1.65l-.39-.06h-.48a4 4 0 0 0-.58 0 1.5 1.5 0 0 0-.47.14.8.8 0 0 0-.32.28.77.77 0 0 0-.12.44.74.74 0 0 0 .34.71 1.9 1.9 0 0 0 .94.2m-4.52-3.54a6.5 6.5 0 0 1-.26 1.91 5 5 0 0 1-.73 1.49 4.3 4.3 0 0 1-1.13 1.06 4.6 4.6 0 0 1-1.44.61.82.82 0 0 0 .32.47 2.1 2.1 0 0 0 .63.3 5 5 0 0 0 .88.17l1.09.1-.47 1.66a11 11 0 0 1-1.94-.23 5 5 0 0 1-1.37-.5 2.7 2.7 0 0 1-.89-.79 3.6 3.6 0 0 1-.5-1.08 5.2 5.2 0 0 1-1.71-.7 4.3 4.3 0 0 1-1.34-1 4.8 4.8 0 0 1-.89-1.57 6.3 6.3 0 0 1-.32-2.08 5.9 5.9 0 0 1 .41-2.28 4.9 4.9 0 0 1 1.1-1.65 4.55 4.55 0 0 1 1.6-1 5.5 5.5 0 0 1 1.92-.33 5.7 5.7 0 0 1 2 .33 4.5 4.5 0 0 1 1.6 1 4.7 4.7 0 0 1 1.08 1.65 6.1 6.1 0 0 1 .39 2.28m-7.7 0a4.6 4.6 0 0 0 .18 1.34 3 3 0 0 0 .52 1 2.3 2.3 0 0 0 .84.66 2.85 2.85 0 0 0 2.26 0 2.3 2.3 0 0 0 .84-.66 3.1 3.1 0 0 0 .53-1 4.6 4.6 0 0 0 .18-1.34 4.7 4.7 0 0 0-.2-1.35 3 3 0 0 0-.53-1 2.3 2.3 0 0 0-.84-.66 2.65 2.65 0 0 0-1.13-.23 2.55 2.55 0 0 0-1.14.24 2.4 2.4 0 0 0-.84.67 3 3 0 0 0-.52 1 4.6 4.6 0 0 0-.18 1.33" transform="translate(-177.47 -212.51)" fill="#13509a"/><path d="M224.84 274.73v10.09h-4.43a2.6 2.6 0 0 1-1.1-.22 1.7 1.7 0 0 1-.77-.79 1.67 1.67 0 0 1-.83.79 3 3 0 0 1-1.15.22h-17v-9.05c0-.59.63-.61.64-.61h1.6v7.75h2.73v-7.57c0-.59.64-.61.64-.61h1.6v4.56a3.7 3.7 0 0 1 .5-.69 4 4 0 0 1 .83-.68 4.2 4.2 0 0 1 1.05-.46 4.6 4.6 0 0 1 1.26-.16 5.5 5.5 0 0 1 1.6.23 3.5 3.5 0 0 1 1.38.79 4 4 0 0 1 1 1.45 6 6 0 0 1 .37 2.23v.9h1.4a1.6 1.6 0 0 0 .65-.11.8.8 0 0 0 .37-.33 1.4 1.4 0 0 0 .17-.54 7 7 0 0 0 0-.76v-5.83c0-.59.65-.61.66-.61h1.58v6.44a7 7 0 0 0 0 .76 1.4 1.4 0 0 0 .17.54.8.8 0 0 0 .37.33 1.6 1.6 0 0 0 .66.11h1.8v-7.57c0-.59.64-.61.65-.61Zm-12.36 7.39a3.25 3.25 0 0 0-.58-2.08 2.28 2.28 0 0 0-1.87-.72 3.1 3.1 0 0 0-1.35.29 3.3 3.3 0 0 0-1 .79 3.6 3.6 0 0 0-.68 1.16 4 4 0 0 0-.24 1.34h5.76Zm-16.72-5.47a1 1 0 0 0 .74-.32 1.11 1.11 0 0 0 0-1.5 1 1 0 0 0-.74-.32 1 1 0 0 0-.73.32 1.07 1.07 0 0 0 0 1.5 1 1 0 0 0 .73.31m1.09 1.54a3.4 3.4 0 0 1 .83 1.31 5.9 5.9 0 0 1 .3 2v3.29h-16.7a4.7 4.7 0 0 1-2-.34 3.1 3.1 0 0 1-1.16-.87 2.9 2.9 0 0 1-.55-1.13 5 5 0 0 1-.14-1.1 3.38 3.38 0 0 1 1.26-2.83 6 6 0 0 1 3.68-1h2.42v5.34h6.51l-.14-.14a3 3 0 0 1-.34-.45 3 3 0 0 1-.3-.66 2.7 2.7 0 0 1-.13-.84 3.3 3.3 0 0 1 .29-1.36 3.6 3.6 0 0 1 .8-1.12 3.8 3.8 0 0 1 1.19-.76 3.9 3.9 0 0 1 1.47-.27 5.2 5.2 0 0 1 1.43.2 3 3 0 0 1 1.21.69m-14.2 1.26H182a3.2 3.2 0 0 0-1.14.18 1.9 1.9 0 0 0-.71.45 1.5 1.5 0 0 0-.36.61 2.4 2.4 0 0 0-.1.68 1.42 1.42 0 0 0 .48 1.18 2 2 0 0 0 1.26.38h1.21Zm13.11 1.6a2.43 2.43 0 0 0-.37-1.45 1.51 1.51 0 0 0-2.28 0 2.3 2.3 0 0 0-.43 1.47 2.2 2.2 0 0 0 .12.75 1.8 1.8 0 0 0 .34.58 1.5 1.5 0 0 0 .5.38 1.5 1.5 0 0 0 .64.14h1.49Zm-2.89-4.4a1 1 0 0 0 .74-.31 1.06 1.06 0 0 0 0-1.5 1 1 0 0 0-.74-.31 1 1 0 0 0-.74.32 1.11 1.11 0 0 0 0 1.5 1 1 0 0 0 .74.32m-9.54 0a1 1 0 0 0 .74-.32 1.11 1.11 0 0 0 0-1.5 1 1 0 0 0-.74-.32 1 1 0 0 0-.73.32 1.07 1.07 0 0 0 0 1.5 1 1 0 0 0 .73.31m-2.9 0a1 1 0 0 1-.74-.32 1.11 1.11 0 0 1 0-1.5 1 1 0 0 1 .74-.32 1 1 0 0 1 .74.31 1.06 1.06 0 0 1 0 1.5 1 1 0 0 1-.74.31" transform="translate(-177.47 -212.51)" fill="#42b288"/><path d="M257.93 276.64a1 1 0 0 0 .74-.31 1.06 1.06 0 0 0 0-1.5 1 1 0 0 0-.74-.31 1 1 0 0 0-.74.32 1.11 1.11 0 0 0 0 1.5 1 1 0 0 0 .74.32m4.81 2.84a5.9 5.9 0 0 1 .3 2v3.29h-31.59v.49a4 4 0 0 1-.25 1.53 2.66 2.66 0 0 1-.67 1 2.4 2.4 0 0 1-1 .52 4.5 4.5 0 0 1-1.17.15 5 5 0 0 1-.72-.05c-.23 0-.43-.08-.61-.13a4 4 0 0 1-.44-.14l-.21-.09.54-1.52.39.12a2.4 2.4 0 0 0 .67.09 1.37 1.37 0 0 0 .89-.26 1.17 1.17 0 0 0 .32-.94v-7.2c0-.59.64-.61.65-.61h1.59v5.14h2.75v-7.57c0-.59.65-.61.65-.61h1.59v4.56a3.7 3.7 0 0 1 .5-.69 3.9 3.9 0 0 1 .82-.68 4.2 4.2 0 0 1 1.05-.46 4.6 4.6 0 0 1 1.26-.16 5.6 5.6 0 0 1 1.6.24 3.5 3.5 0 0 1 1.39.79 4 4 0 0 1 1 1.45 5.9 5.9 0 0 1 .37 2.23v.9h12l-.14-.14a2.8 2.8 0 0 1-.34-.45 3 3 0 0 1-.3-.66 2.7 2.7 0 0 1-.12-.85 3.3 3.3 0 0 1 .29-1.36 3.6 3.6 0 0 1 .8-1.12 3.8 3.8 0 0 1 1.19-.76 3.9 3.9 0 0 1 1.47-.27 5.2 5.2 0 0 1 1.43.2 2.9 2.9 0 0 1 1.21.69 3.4 3.4 0 0 1 .83 1.31m-20.57 2.63a3.25 3.25 0 0 0-.58-2.08 2.27 2.27 0 0 0-1.87-.72 3.1 3.1 0 0 0-1.34.29 3.3 3.3 0 0 0-1 .79 3.7 3.7 0 0 0-.68 1.16 4 4 0 0 0-.24 1.34h5.76Zm18.65-1.11a2.42 2.42 0 0 0-.37-1.45 1.51 1.51 0 0 0-2.28 0 2.3 2.3 0 0 0-.43 1.47 2.2 2.2 0 0 0 .12.75 1.8 1.8 0 0 0 .34.58 1.55 1.55 0 0 0 .5.38 1.5 1.5 0 0 0 .64.14h1.49Zm0-4.4a1 1 0 0 1-.73-.31 1.07 1.07 0 0 1 0-1.5 1 1 0 0 1 .73-.32 1 1 0 0 1 .74.32 1.11 1.11 0 0 1 0 1.5 1 1 0 0 1-.74.32M224.3 260.55a1.5 1.5 0 0 0-.85.27l-.09.07-.25.19-.16.09a1.63 1.63 0 0 1-2.26-.55h-.18a12.43 12.43 0 0 1-10.63-18.54v-.09c.18-.3.37-.61.58-.91l.14-.2.09-.13.09-.14.08-.13 9.64-14.3.13-.18.11-.14a1.4 1.4 0 0 1 .36-.29 1.68 1.68 0 0 1 1.87.13l.16.11a1.5 1.5 0 1 0-.13-2.4l-.28.26c-.26.28-1.13 1.05-1.83.06a1 1 0 0 1-.16-.34.77.77 0 0 1 .45-1h.09a1.5 1.5 0 0 0 .8-.44l.16-.16a1.93 1.93 0 0 1 2.34 0l.13.09a1 1 0 1 0 .2-1.66h-.09l-.17.11a1.77 1.77 0 0 1-2.29-.13l-.19-.22a1.5 1.5 0 0 0-.78-.51 1 1 0 0 1-.74-1v-.79a1 1 0 0 1 .4-.92l.16-.08a1.5 1.5 0 0 0 .22-2.63h-.07a1.85 1.85 0 0 1-.73-1.48l-3 4.39-13.11 19.46-.13.2-.14.2c-.33.47-.65 1-.93 1.46l-.06.11a20 20 0 0 0 17 29.81h.28a1.48 1.48 0 0 0 .76-2.77h-.06l-.27-.17-.09-.07a1 1 0 0 1-.36-.74 1.7 1.7 0 0 1 .06-.52l.15-.33.16-.2.27-.23a1.68 1.68 0 0 1 2 .12l.1.07a1.5 1.5 0 1 0 .89-2.71" transform="translate(-177.47 -212.51)" fill="#13509a"/><path d="M223.14 218.89a1 1 0 1 0-1-1 1 1 0 0 0 1 1m3.83 7.89a1.5 1.5 0 0 0-.91.31l-.17.16-.22.2a1.31 1.31 0 0 1-1.53.27l-.15-.1a.93.93 0 0 0-.55-.18 1 1 0 1 0 .61 1.68l.28-.23.19-.07a1.55 1.55 0 0 1 1.17.35l.21.17.11.1a1.5 1.5 0 1 0 .89-2.7m7.38 34.08a.9.9 0 0 0-.42.1 1.4 1.4 0 0 0-.25.19l-.21.17-.19.09a1.23 1.23 0 0 1-1.14-.18l-.08-.05-.16-.15-.13-.12a1.5 1.5 0 1 0 0 2.31l.16-.15.3-.36.1-.09.27-.18a1 1 0 0 1 .86-.07h.09l.2.15a.94.94 0 0 0 .6.22 1 1 0 1 0 0-1.91m1.58-4a1.55 1.55 0 0 0-1.12.5c-1 .95-1.66.54-1.84.41a.94.94 0 0 0-.58-.2 1 1 0 1 0 .61 1.68l.15-.13a1.13 1.13 0 0 1 1.62.17l.11.13a1.5 1.5 0 1 0 1.12-2.49m2.22-2.87a1 1 0 0 0-.53.16l-.3.18a1.3 1.3 0 0 1-.39.1 1.56 1.56 0 0 1-.8-.14l-.19-.11-.15-.1a.94.94 0 0 0-.42-.1 1 1 0 1 0 0 1.91.9.9 0 0 0 .35-.07h.08l.17-.12.19-.14a1.07 1.07 0 0 1 1.25 0l.15.13a1 1 0 1 0 .6-1.7m-7.16-13.2a.94.94 0 0 0 .46-.12l.22-.17a.9.9 0 0 1 .26-.2 1.23 1.23 0 0 1 1.36.19l.18.17.1.09.12.09a1.5 1.5 0 1 0-.12-2.4l-.21.22-.19.24-.18.17a1 1 0 0 1-1.11.21l-.17-.1-.14-.1a1 1 0 1 0-.57 1.72m1.64-6.37-.16-.13a1.5 1.5 0 1 0 0 2.44l.1-.07a1.59 1.59 0 0 1 1.73-.45l.2.12h.07a1 1 0 1 0 .47-1.78.94.94 0 0 0-.44.11l-.19.12a1.32 1.32 0 0 1-1.52-.13Zm2.74 13.92.07-.06c1.13-.89 1.93-.63 2.27-.43l.18.13a.94.94 0 0 0 .54.17 1 1 0 0 0 1-1 1 1 0 0 0-1-1 .94.94 0 0 0-.42.1h-.09l-.23.12a2.06 2.06 0 0 1-1.8-.12l-.31-.21-.16-.14a1.5 1.5 0 0 0-.83-.36h-.36a1.5 1.5 0 0 0 .16 3 1.5 1.5 0 0 0 .62-.14Zm-5.75-15.71a.9.9 0 0 0 .4-.09h.06l.3-.22h.06a1.06 1.06 0 0 1 1.17 0l.2.16a1 1 0 1 0 .13-1.58l-.11.07-.17.11-.14.06a1.46 1.46 0 0 1-1.06 0l-.3-.16-.13-.08a1 1 0 1 0-.42 1.81m2.37 23.76a1.5 1.5 0 1 0-1.5-1.5 1.5 1.5 0 0 0 1.5 1.5m2.92-5.4a1 1 0 1 0-1 1 1 1 0 0 0 1-1m-5.62 8.64a1 1 0 1 0-1-1 1 1 0 0 0 1 1m3.82-16.19a1 1 0 1 0 1-1 1 1 0 0 0-1 1M227.56 263a1 1 0 1 0-1-1 1 1 0 0 0 1 1m-.22-27.45a1 1 0 1 0 1-1 1 1 0 0 0-1 1m-1-2.32a1.5 1.5 0 1 0-1.5-1.5 1.5 1.5 0 0 0 1.5 1.5m1.11 30.61a1.5 1.5 0 1 0 1.5 1.5 1.5 1.5 0 0 0-1.5-1.5M238.06 245a1.5 1.5 0 1 0-1.5-1.5 1.5 1.5 0 0 0 1.5 1.5m.2 4.4a1.5 1.5 0 1 0 1.5 1.5 1.5 1.5 0 0 0-1.5-1.5m-.74-9.11a1 1 0 1 0-1-1 1 1 0 0 0 1 1m-13.45 24.37a1 1 0 1 0 1 1 1 1 0 0 0-1-1m6.09-35.35a1 1 0 1 0-1-1 1 1 0 0 0 1 1m-2.64-3.81a1 1 0 1 1 1-1 1 1 0 0 1-1 1" transform="translate(-177.47 -212.51)" fill="#42b288"/></svg>