<svg xmlns="http://www.w3.org/2000/svg" fill="none" viewBox="0 0 32 32">
  <defs>
    <clipPath id="a"><path fill="#fff" d="M0 0h32v31.2H0z"/></clipPath>
    <mask id="ko">
      <rect width="32" height="32" fill="white"/>
      <path fill="black" d="M24.882 23.46h-3.8a.83.83 0 0 1-.78-.503l-4.126-9.647a.182.182 0 0 0-.349-.005l-2.571 6.126a.218.218 0 0 0 .2.302h2.827a.44.44 0 0 1 .402.266l1.237 2.754a.508.508 0 0 1-.467.707H7.165a.47.47 0 0 1-.429-.654L13.281 7.22a.885.885 0 0 1 .831-.552h3.775a.88.88 0 0 1 .832.552l6.59 15.587a.47.47 0 0 1-.427.654"/>
    </mask>
  </defs>
  <g clip-path="url(#a)">
    <path fill="currentColor" mask="url(#ko)" d="M26.333 0H5.667A5.667 5.667 0 0 0 0 5.667v19.866A5.667 5.667 0 0 0 5.667 31.2h20.666A5.667 5.667 0 0 0 32 25.533V5.667A5.667 5.667 0 0 0 26.333 0"/>
  </g>
</svg>