<svg viewBox="0 0 24 24" xmlns="http://www.w3.org/2000/svg" fill="#D50000"><path d="m20.324 22.992c-.905-.454-12.625-5.27-12.625-5.27a1.275 1.275 0 0 0 -.389-.122c-.39-.056-.78.091-1.061.444 0 0-2.672 4.354-3.066 4.948-.401.588.017 1.008.543 1.008h16.38c.644 0 .898-.67.218-1.008zm-.636-22.992h-7.743c-.868 0-1.49.28-2.042 1.043l-5.853 9.454c-.333.457-.14.985.336 1.185.974.412 2.766.977 3.68 1.388.718.326 1.157.204 1.552-.382l4.092-6.507.49-.005v7.405c0 .924.37 1.279.946 1.54.577.246 4.144 1.773 4.689 1.973.644.246 1.143-.05 1.143-.731v-15.074c0-.706-.585-1.289-1.29-1.289z"/></svg>