<svg viewBox="0 0 24 24" xmlns="http://www.w3.org/2000/svg"><path d="m12.32 12.38c0 1.174.974 2.033 2.211 2.033s2.212-.859 2.212-2.033v-2.7h-1.198v2.56c0 .633-.44 1.06-1.017 1.06s-1.017-.424-1.017-1.06v-2.56h-1.198l.008 2.699zm7.624-1.619h1.429v3.563h1.198v-3.564h1.429v-1.08h-4.056v1.082zm-.774-1.081h-1.198v4.645h1.198v-4.646zm-11.688 1.081h1.43v3.563h1.197v-3.564h1.428v-1.08h-4.055v1.082zm-6.284-1.081h-1.198v4.645h1.198v-4.646zm5.653 1.94c0-1.174-.974-2.032-2.212-2.032s-2.212.858-2.212 2.032v2.705h1.198v-2.56c0-.633.44-1.06 1.017-1.06s1.018.425 1.018 1.06v2.56h1.197l-.007-2.705z"/></svg>