<svg height="18" viewBox="0 0 18 18" width="18" xmlns="http://www.w3.org/2000/svg" xmlns:xlink="http://www.w3.org/1999/xlink"><linearGradient id="a"><stop offset="0" stop-color="#a67af4"/><stop offset="1" stop-color="#552f99"/></linearGradient><linearGradient id="b" gradientUnits="userSpaceOnUse" x1="9" x2="9" xlink:href="#a" y1="7.11" y2="14.2"/><linearGradient id="c" gradientUnits="userSpaceOnUse" x1="8.8" x2="9.32" xlink:href="#a" y1="3.31" y2="9.75"/><path d="m2.15 11.75a7.34 7.34 0 0 1 1-7.2 1.94 1.94 0 0 1 -.7-.83 8.48 8.48 0 0 0 -1.17 8.6 3.1 3.1 0 0 1 .87-.57m3.79-10.61a3.1 3.1 0 0 1 .62.9 7.5 7.5 0 0 1 2.44-.43 7.33 7.33 0 0 1 4.33 1.39 2.15 2.15 0 0 1 .55-.69l.12-.09a8.44 8.44 0 0 0 -8.06-1.08m9.91 5.12a7.32 7.32 0 0 1 -1 7.19 2 2 0 0 1 .43.4 2 2 0 0 1 .27.43 8.48 8.48 0 0 0 1.17-8.6 3.1 3.1 0 0 1 -.87.58m-4.41 9.74a7.3 7.3 0 0 1 -2.44.39 7.32 7.32 0 0 1 -4.33-1.39 2.05 2.05 0 0 1 -.55.69l-.12.09a8.48 8.48 0 0 0 8.09 1.09 3.1 3.1 0 0 1 -.65-.87" fill="#0078d4"/><path d="m5.18 1.87a2.09 2.09 0 1 1 -3 0 2.09 2.09 0 0 1 3 0" fill="#32bedd"/><path d="m4.42 4.07a1 1 0 0 0 0-1.45 1 1 0 0 0 -1.42 0 1 1 0 0 0 0 1.45 1 1 0 0 0 1.44 0" fill="#fff"/><path d="m13.18 1.87a2.09 2.09 0 1 1 0 3 2.09 2.09 0 0 1 0-2.95z" fill="#32bedd"/><path d="m15.38 2.62a1 1 0 1 0 0 1.45 1 1 0 0 0 0-1.45" fill="#fff"/><path d="m12.82 16.13a2.09 2.09 0 1 1 3 0 2.09 2.09 0 0 1 -3 0" fill="#32bedd"/><path d="m13.58 13.93a1 1 0 0 0 0 1.45 1 1 0 0 0 1.44 0 1 1 0 0 0 0-1.45 1 1 0 0 0 -1.44 0" fill="#fff"/><path d="m4.82 16.13a2.09 2.09 0 1 1 0-2.95 2.09 2.09 0 0 1 0 2.95" fill="#32bedd"/><path d="m2.62 15.38a1 1 0 1 0 0-1.45 1 1 0 0 0 0 1.45" fill="#fff"/><path d="m12.51 12.92a.76.76 0 0 0 .76-.76v-.09c-.27-2.38-1.66-4.33-4.27-4.33s-4 1.65-4.26 4.34a.76.76 0 0 0 .68.84z" fill="url(#b)"/><path d="m9 8.31a2.4 2.4 0 0 1 -1.3-.38l1.3 3.35 1.27-3.28a2.37 2.37 0 0 1 -1.27.31" fill="#fff" opacity=".8"/><circle cx="9.01" cy="5.92" fill="url(#c)" r="2.39"/></svg>