<svg xmlns="http://www.w3.org/2000/svg" width="18" height="18" viewBox="0 0 18 18"><defs><mask id="a"><path fill="#fff" d="M0 0h18v18H0z"/><path d="M4.675 7.5a.45.45 0 0 1 .451-.451h1.851a.45.45 0 0 1 .451.451v1.861a.45.45 0 0 1-.451.451H5.126a.45.45 0 0 1-.451-.451zm0 3.508a.45.45 0 0 1 .451-.451h1.851a.45.45 0 0 1 .451.451v1.851a.45.45 0 0 1-.451.451H5.126a.45.45 0 0 1-.451-.451zm3.452-.045a.45.45 0 0 1 .452-.451h1.85a.45.45 0 0 1 .452.451v1.851a.45.45 0 0 1-.452.451h-1.85a.45.45 0 0 1-.452-.451z"/></mask></defs><g fill="currentColor" mask="url(#a)"><circle cx="9" cy="9" r="8.5"/><path fill-rule="evenodd" d="M8.88 4.69a.753.753 0 0 0-.753.752v3.694a.753.753 0 0 0 .753.752h3.693a.75.75 0 0 0 .752-.752V5.442a.75.75 0 0 0-.752-.752zm.677.978a.45.45 0 0 0-.452.451v2.339a.45.45 0 0 0 .452.452H11.9a.45.45 0 0 0 .451-.452V6.119a.45.45 0 0 0-.451-.451z"/></g></svg>