<svg xmlns="http://www.w3.org/2000/svg" width="18" height="18" viewBox="0 0 18 18"><defs><linearGradient id="f9a99d0c-9195-42e6-b829-35824fadf772" x1="9" x2="9" y1="17.5" y2=".5" gradientUnits="userSpaceOnUse"><stop offset="0" stop-color="#005ba1"/><stop offset=".168" stop-color="#0063ae"/><stop offset=".577" stop-color="#0072ca"/><stop offset=".815" stop-color="#0078d4"/></linearGradient></defs><g id="aa161d90-a772-48f8-88d2-386c4212772e"><circle cx="9" cy="9" r="8.5" fill="url(#f9a99d0c-9195-42e6-b829-35824fadf772)"/><g id="aafa2bfe-ea20-47c7-8905-6b4ccbb2adf9"><path id="ec95c643-c1c0-4fcc-9757-65779fba8574" fill="#7de2fb" fill-rule="evenodd" d="M8.88 4.69a.753.753 0 0 0-.753.752v3.694a.753.753 0 0 0 .753.752h3.693a.75.75 0 0 0 .752-.752V5.442a.75.75 0 0 0-.752-.752Zm.677.978a.45.45 0 0 0-.452.451v2.339a.45.45 0 0 0 .452.452H11.9a.45.45 0 0 0 .451-.452V6.119a.45.45 0 0 0-.451-.451Z"/></g><g id="acd833af-d85e-493c-aa00-f4907676de93" fill="#fff"><path d="M4.675 7.5a.45.45 0 0 1 .451-.451h1.851a.45.45 0 0 1 .451.451v1.861a.45.45 0 0 1-.451.451H5.126a.45.45 0 0 1-.451-.451ZM4.675 11.008a.45.45 0 0 1 .451-.451h1.851a.45.45 0 0 1 .451.451v1.851a.45.45 0 0 1-.451.451H5.126a.45.45 0 0 1-.451-.451ZM8.127 10.963a.45.45 0 0 1 .452-.451h1.85a.45.45 0 0 1 .452.451v1.851a.45.45 0 0 1-.452.451h-1.85a.45.45 0 0 1-.452-.451Z"/></g></g></svg>