<svg height="18" viewBox="0 0 18 18" width="18" xmlns="http://www.w3.org/2000/svg" xmlns:xlink="http://www.w3.org/1999/xlink"><linearGradient id="a" gradientUnits="userSpaceOnUse" x1="9" x2="9" y1="17.5" y2=".5"><stop offset="0" stop-color="#005ba1"/><stop offset=".168" stop-color="#0063ae"/><stop offset=".577" stop-color="#0072ca"/><stop offset=".815" stop-color="#0078d4"/></linearGradient><circle cx="9" cy="9" fill="url(#a)" r="8.5"/><path d="m8.88 4.69a.753.753 0 0 0 -.753.752v3.694a.753.753 0 0 0 .753.752h3.693a.75.75 0 0 0 .752-.752v-3.694a.75.75 0 0 0 -.752-.752zm.677.978a.45.45 0 0 0 -.452.451v2.339a.45.45 0 0 0 .452.452h2.343a.45.45 0 0 0 .451-.452v-2.339a.45.45 0 0 0 -.451-.451z" fill="#7de2fb" fill-rule="evenodd"/><path d="m4.675 7.5a.45.45 0 0 1 .451-.451h1.851a.45.45 0 0 1 .451.451v1.861a.45.45 0 0 1 -.451.451h-1.851a.45.45 0 0 1 -.451-.451zm0 3.508a.45.45 0 0 1 .451-.451h1.851a.45.45 0 0 1 .451.451v1.851a.45.45 0 0 1 -.451.451h-1.851a.45.45 0 0 1 -.451-.451zm3.452-.045a.45.45 0 0 1 .452-.451h1.85a.45.45 0 0 1 .452.451v1.851a.45.45 0 0 1 -.452.451h-1.85a.45.45 0 0 1 -.452-.451z" fill="#fff"/></svg>