<svg height="48" viewBox="0 0 48 48" width="48" xmlns="http://www.w3.org/2000/svg"><path d="m23.853 36.592.784 6.188-1.985.252-.783-6.188zm-8.558-1.155 1.84.786-2.456 5.755-1.839-.785zm14.574-1.844 3.811 4.963-1.585 1.218-3.812-4.962zm-19.55-2.616 1.2 1.599-5.035 3.781-1.2-1.599zm15.401-15.209a1 1 0 0 1 .866.5l1.51 2.616-1.733 1-1.22-2.116h-7.69l-3.845 6.659 3.845 6.659h7.69l1.998-3.463 1.733 1-2.288 3.963c-.179.309-.509.5-.866.5h-8.844a1 1 0 0 1 -.866-.5l-4.422-7.659a1 1 0 0 1 0-1l4.422-7.659c.178-.31.508-.5.866-.5zm13.886 1.507 5.934 5.934a1 1 0 0 1 0 1.414l-5.934 5.934-1.414-1.414 4.227-4.227h-21.707v-2h21.708l-4.227-4.227zm-31.34 7.376.251 1.985-6.266.793-.251-1.985zm-4.39-8.908 5.817 2.408-.765 1.848-5.818-2.408zm32.145-4.068 1.201 1.599-5.035 3.782-1.2-1.6zm-25.608-3.417 3.811 4.963-1.586 1.218-3.81-4.962zm17.414-2.204 1.84.785-2.455 5.756-1.84-.785zm-7.972-1.054.783 6.188-1.984.252-.783-6.188z" fill="#e7157b" fill-rule="evenodd"/></svg>