<svg xmlns="http://www.w3.org/2000/svg" width="44" height="44" fill="none" viewBox="0 0 44 44"><g fill="currentColor" fill-rule="evenodd" clip-rule="evenodd"><path d="M18 12a7 7 0 1 1 7 7v-4a3 3 0 1 0-3-3z"/><path d="M32 12a7 7 0 0 1-7 7h-3v-4h3a3 3 0 0 0 3-3z"/><path d="M25 5a7 7 0 0 1 7 7h-4a3 3 0 0 0-3-3z"/><path d="M25 9a3 3 0 0 0-3 3h-4a7 7 0 0 1 7-7z"/><path d="M8 22a7 7 0 0 1 7-7h3v4h-3a3 3 0 0 0-3 3z"/><path d="M18 32a7 7 0 1 0 14 0h-4a3 3 0 1 1-6 0z"/><path d="M22 12v20h-4V12z"/><path d="M32 32a7 7 0 0 0-7-7h-5v4h5a3 3 0 0 1 3 3z"/><path d="M8 22a7 7 0 0 0 7 7h5v-4h-5a3 3 0 0 1-3-3z"/></g></svg>