<svg height="18" viewBox="0 0 18 18" width="18" xmlns="http://www.w3.org/2000/svg" xmlns:xlink="http://www.w3.org/1999/xlink"><linearGradient id="a" gradientUnits="userSpaceOnUse" x1="10.467" x2="10.467" y1="9.987" y2="7.506"><stop offset="0" stop-color="#773adc"/><stop offset="1" stop-color="#a67af4"/></linearGradient><linearGradient id="b"><stop offset="0" stop-color="#5e9624"/><stop offset="1" stop-color="#76bc2d"/></linearGradient><linearGradient id="c" gradientUnits="userSpaceOnUse" x1="4.288" x2="4.58" xlink:href="#b" y1="13.077" y2="5.029"/><linearGradient id="d" gradientUnits="userSpaceOnUse" x1="8.711" x2="9.003" xlink:href="#b" y1="13.237" y2="5.189"/><linearGradient id="e" gradientUnits="userSpaceOnUse" x1="8.915" x2="9.207" xlink:href="#b" y1="13.245" y2="5.197"/><linearGradient id="f" gradientUnits="userSpaceOnUse" x1="4.471" x2="4.763" xlink:href="#b" y1="13.083" y2="5.035"/><g fill="#a3a3a3"><path d="m.613.993h1.363v3.782a.306.306 0 0 1 -.306.306h-1.363a.306.306 0 0 1 -.307-.306v-3.169a.6.6 0 0 1 .592-.613z"/><path d="m.613.993h1.363v3.782a.306.306 0 0 1 -.306.306h-1.363a.306.306 0 0 1 -.307-.306v-3.169a.6.6 0 0 1 .592-.613z" opacity=".5"/><path d="m16.025.993h1.362a.6.6 0 0 1 .6.6v3.18a.306.306 0 0 1 -.306.306h-1.35a.306.306 0 0 1 -.306-.306z"/><path d="m16.025.993h1.362a.6.6 0 0 1 .6.6v3.18a.306.306 0 0 1 -.306.306h-1.35a.306.306 0 0 1 -.306-.306z" opacity=".5"/></g><path d="m17.989 1.585v1.32h-17.957v-1.32a.6.6 0 0 1 .6-.6h16.755a.6.6 0 0 1 .602.6" fill="#949494"/><path d="m.307 12.9h1.363a.306.306 0 0 1 .306.306v3.813h-1.363a.6.6 0 0 1 -.613-.593v-3.201a.306.306 0 0 1 .285-.325z" fill="#a3a3a3"/><path d="m.307 12.9h1.363a.306.306 0 0 1 .306.306v3.813h-1.363a.6.6 0 0 1 -.613-.593v-3.201a.306.306 0 0 1 .285-.325z" fill="#a3a3a3" opacity=".5"/><path d="m16.331 12.9h1.363a.306.306 0 0 1 .306.3v3.169a.6.6 0 0 1 -.6.6h-1.375v-3.75a.306.306 0 0 1 .284-.327z" fill="#a3a3a3"/><path d="m16.331 12.9h1.363a.306.306 0 0 1 .306.3v3.169a.6.6 0 0 1 -.6.6h-1.375v-3.75a.306.306 0 0 1 .284-.327z" fill="#a3a3a3" opacity=".5"/><path d="m0 16.415v-1.315h17.958v1.32a.6.6 0 0 1 -.6.6h-16.758a.6.6 0 0 1 -.6-.605" fill="#949494"/><path d="m15.436 8.828-2.136-2.164a.106.106 0 0 0 -.148-.019.1.1 0 0 0 -.04.1v1.33a.1.1 0 0 1 -.092.117h-5.19a1.24 1.24 0 0 0 -.976-.482c-.042 0-.084-.006-.125-.006a1.294 1.294 0 0 0 -.122 2.582q.061.006.123.006.062.001.124-.006a1.27 1.27 0 0 0 .987-.494h5.159a.106.106 0 0 1 .1.094v1.314a.107.107 0 0 0 .1.11.1.1 0 0 0 .082-.039l2.141-2.129a.235.235 0 0 0 .013-.314" fill="url(#a)"/><path d="m2.746 5.448v3.083h1.954a2.07 2.07 0 0 1 1.63-1.588v-2h-3.084a.5.5 0 0 0 -.5.505" fill="url(#c)"/><path d="m10.259 4.947h-3.084v2a2.06 2.06 0 0 1 .99.451h2.594v-1.951a.5.5 0 0 0 -.5-.5" fill="url(#d)"/><path d="m7.175 11.053v1.979h3.084a.5.5 0 0 0 .5-.5v-1.94h-2.58a2.05 2.05 0 0 1 -1.004.461" fill="url(#e)"/><path d="m4.7 9.448h-1.954v3.084a.5.5 0 0 0 .5.5h3.084v-1.989a2.04 2.04 0 0 1 -1.63-1.595" fill="url(#f)"/>​</svg>