<svg height="64" viewBox="0 0 64 64" width="64" xmlns="http://www.w3.org/2000/svg"><g fill="none" fill-rule="evenodd"><path d="m0 0h64v64h-64z" fill="#ed7100"/><path d="m29.195 22.688-3.202 1.86 6.583 4.635c.265.187.424.492.424.817v4.234l3-1.8v-4.917zm-9.646 3.928 11.451 7.53v-3.626l-7.435-5.235a.997.997 0 0 1 .074-1.682l11.394-6.616-3.106-1.863-25.401 15.726a1 1 0 0 1 -1.041.007l-3.485-2.09v3.667l3.975 2.385 12.475-8.203a1 1 0 0 1 1.099 0m-10.475-6.084 2.93-1.914-6.504-3.752a1 1 0 0 1 -.5-.866v-4.233l-3 1.8v4.857zm9.424-4.119-11.498-6.676v3.685l7.413 4.277a1 1 0 0 1 .047 1.703l-11.577 7.562 3.109 1.865 25.439-15.75a1 1 0 0 1 1.262.171l3.307 1.984v-3.668l-4.009-2.405-12.489 7.252a1 1 0 0 1 -1.004 0m19.004 1.452-6.406 3.72 6.483 4.6c.263.187.421.491.421.815v6a1 1 0 0 1 -.486.857l-5 3a.99.99 0 0 1 -1.064-.022l-12.45-8.187-12.451 8.187a1 1 0 0 1 -1.064.022l-5-3a1 1 0 0 1 -.485-.857v-6c0-.338.17-.652.453-.837l6.746-4.407-6.701-3.89a1 1 0 0 1 -.498-.866v-6c0-.35.184-.677.485-.857l5-3a1 1 0 0 1 1.017-.008l12.498 7.257 12.498-7.257a1 1 0 0 1 1.016.008l5 3a1 1 0 0 1 .486.857v6c0 .356-.19.686-.498.865m-22.502-13.3 3.982-2.399 3.071 1.835-3.568 2.142a1 1 0 0 0 -.485.857v4h2v-3.434l3-1.8v2.234h2v-4a1 1 0 0 0 -.488-.858l-5.019-3a.99.99 0 0 0 -1.028.002l-4.981 3a1 1 0 0 0 -.484.856v4h2zm8 31.435h2v4a1 1 0 0 1 -.485.856l-4.98 3a.99.99 0 0 1 -1.028.002l-5.02-3a1 1 0 0 1 -.487-.858v-4h2v2.234l3-1.8v-3.434h2v4a1 1 0 0 1 -.486.857l-3.568 2.143 3.071 1.835 3.983-2.4z" fill="#fff" transform="translate(13 10)"/></g></svg>