<svg xmlns="http://www.w3.org/2000/svg" width="64" height="64" viewBox="0 0 64 64"><title>Icon-Architecture/48/Arch_AWS-Thinkbox-XMesh_48</title><g id="Icon-Architecture/48/Arch_AWS-Thinkbox-XMesh_48" fill="none" fill-rule="evenodd" stroke="none" stroke-width="1"><g id="Icon-Architecture-BG/48/Compute" fill="#ed7100"><path id="Rectangle" d="M0 0h64v64H0z"/></g><g id="Icon-Service/48/AWS-ThinkBox-XMesh_48" fill="#fff" transform="translate(13 10)"><path id="AWS-ThinkBox-Mesh_48_Squid" d="m29.195 22.688-3.202 1.86 6.583 4.635c.265.187.424.492.424.817v4.234l3-1.8v-4.917zm-9.646 3.928L31 34.146V30.52l-7.435-5.235a.997.997 0 0 1 .074-1.682l11.394-6.616-3.106-1.863L6.526 30.85a1 1 0 0 1-1.041.007L2 28.767v3.667l3.975 2.385 12.475-8.203a1 1 0 0 1 1.099 0M9.074 20.532l2.93-1.914L5.5 14.866A1 1 0 0 1 5 14V9.767l-3 1.8v4.857zm9.424-4.119L7 9.737v3.685l7.413 4.277a1 1 0 0 1 .047 1.703L2.883 26.964l3.109 1.865 25.439-15.75a1 1 0 0 1 1.262.171L36 15.234v-3.668l-4.009-2.405-12.489 7.252a1 1 0 0 1-1.004 0m19.004 1.452-6.406 3.72 6.483 4.6c.263.187.421.491.421.815v6a1 1 0 0 1-.486.857l-5 3a.99.99 0 0 1-1.064-.022L19 28.648 6.549 36.835a1 1 0 0 1-1.064.022l-5-3A1 1 0 0 1 0 33v-6c0-.338.17-.652.453-.837l6.746-4.407-6.701-3.89A1 1 0 0 1 0 17v-6c0-.35.184-.677.485-.857l5-3a1 1 0 0 1 1.017-.008L19 14.392l12.498-7.257a1 1 0 0 1 1.016.008l5 3A1 1 0 0 1 38 11v6c0 .356-.19.686-.498.865M15 4.565l3.982-2.399 3.071 1.835-3.568 2.142A1 1 0 0 0 18 7v4h2V7.566l3-1.8V8h2V4a1 1 0 0 0-.488-.858l-5.019-3a.99.99 0 0 0-1.028.002l-4.981 3A1 1 0 0 0 13 4v4h2zM23 36h2v4a1 1 0 0 1-.485.856l-4.98 3a.99.99 0 0 1-1.028.002l-5.02-3A1 1 0 0 1 13 40v-4h2v2.234l3-1.8V33h2v4a1 1 0 0 1-.486.857L15.946 40l3.071 1.835L23 39.435z"/></g></g></svg>