<svg xmlns="http://www.w3.org/2000/svg" viewBox="0 0 25 25"><defs><mask id="a"><path fill="#fff" d="M0 0h25v25H0z"/><path d="M19.779 5.834a.03.03 0 0 1 .036-.01.03.03 0 0 1 .018.024q.008.06.01.12.018.915.01 1.832a4.44 4.44 0 0 1-.547 2.138 4.16 4.16 0 0 1-2.277 1.882 3.6 3.6 0 0 1-1.053.205q-5.088.006-10.177 0c-.071-.004-.149-.04-.159-.11l-.001-.014q-.045-1.6 1.042-2.764a3.86 3.86 0 0 1 2.43-1.208q3.024-.024 6.05-.026a9 9 0 0 0 1.437-.195 5.9 5.9 0 0 0 1.737-.632q.313-.165.6-.368.308-.233.566-.524.14-.174.278-.35m-.058 6.264c.025-.033.075-.026.081.015q.016.846.016 1.69.008.653-.132 1.29a4.07 4.07 0 0 1-1.76 2.498q-.748.48-1.628.627a7 7 0 0 1-.326.031q-5.126.006-10.25 0a.12.12 0 0 1-.114-.076.4.4 0 0 1-.021-.11 4 4 0 0 1 .605-2.117 4.1 4.1 0 0 1 1.535-1.398 4 4 0 0 1 .76-.293c.224-.06.457-.076.688-.078l5.907-.05a7.5 7.5 0 0 0 3.343-.89q.614-.36 1.098-.887a5 5 0 0 0 .198-.252"/></mask></defs><path fill="currentColor" d="M20.297.7H5.289A4.496 4.496 0 0 0 .793 5.195v15.007a4.496 4.496 0 0 0 4.496 4.496h15.008a4.496 4.496 0 0 0 4.496-4.496V5.196A4.497 4.497 0 0 0 20.297.699z" mask="url(#a)"/></svg>