<svg xmlns="http://www.w3.org/2000/svg" fill="currentColor" fill-rule="evenodd" viewBox="0 0 25 25"><path d="M20.297.7H5.289A4.496 4.496 0 0 0 .793 5.195v15.007a4.496 4.496 0 0 0 4.496 4.496h15.008a4.496 4.496 0 0 0 4.496-4.496V5.196A4.497 4.497 0 0 0 20.297.699zm-.518 5.134a.03.03 0 0 1 .036-.01.03.03 0 0 1 .018.024q.008.06.01.12.018.915.01 1.832a4.44 4.44 0 0 1-.547 2.138 4.16 4.16 0 0 1-2.277 1.882 3.6 3.6 0 0 1-1.053.205q-5.088.006-10.177 0c-.071-.004-.149-.04-.159-.11l-.001-.014q-.045-1.6 1.042-2.764a3.86 3.86 0 0 1 2.43-1.208q3.024-.024 6.05-.026a9 9 0 0 0 1.437-.195 5.9 5.9 0 0 0 1.737-.632q.313-.165.6-.368.308-.233.566-.524.14-.174.278-.35m.023 6.28c-.006-.042-.056-.05-.08-.016a5 5 0 0 1-.199.252 4.8 4.8 0 0 1-1.098.887 7.5 7.5 0 0 1-3.343.89l-5.907.05a2.7 2.7 0 0 0-.687.078 4 4 0 0 0-.76.293 4.1 4.1 0 0 0-1.536 1.398 4 4 0 0 0-.605 2.117q.004.056.021.11.033.072.113.076 5.126.006 10.25 0a7 7 0 0 0 .327-.031 4.3 4.3 0 0 0 1.627-.627 4.07 4.07 0 0 0 1.761-2.498q.14-.638.132-1.29 0-.845-.016-1.69z" clip-rule="evenodd"/></svg>