<svg height="64" viewBox="0 0 64 64" width="64" xmlns="http://www.w3.org/2000/svg"><g fill="none" fill-rule="evenodd"><path d="m0 0h64v64h-64z" fill="#c925d1"/><path d="m34.769 44h12.863l-.7-.707 1.281-1.293h-3.958l-1.074-1.086-2.203 2.226-6.208-5.842zm-19.79-26.5c0 2.124 5.29 4.5 12.369 4.5s12.368-2.376 12.368-4.5-5.29-4.5-12.368-4.5c-7.08 0-12.369 2.376-12.369 4.5m34.053 26.5h2.558v2h-9.895v1c0 3.729-6.703 7-14.347 7s-14.348-3.271-14.348-7v-29.5c0-3.706 6.168-6.5 14.348-6.5s14.347 2.794 14.347 6.5v9.5h-1.979v-6.123c-2.449 1.898-6.962 3.123-12.368 3.123s-9.92-1.225-12.369-3.123v7.23c.732 1.899 5.703 3.893 12.148 3.893h3.684v2h-3.684c-5.161 0-9.656-1.172-12.148-2.986v7.316c.598 1.818 5.243 3.67 12.148 3.67h3.684v2h-3.684c-4.617 0-9.48-.866-12.148-2.736v5.736c0 2.013 5.194 5 12.369 5s12.368-2.987 12.368-5v-1h-5.936a.995.995 0 0 1 -.99-1v-18h1.98v1h5.11l1.074 1.086 1.074-1.086h2.414l1.755 1.164-1.087 1.672-1.259-.836h-1.004l-1.894 1.914-1.893-1.914h-4.29v4.564l6.16 5.796 2.25-2.274 1.895 1.914h3.138l-1.28-1.293 1.4-1.414 3.667 3.707zm-.582-16h-1.807v-2h4.947v5h-1.979v-1.297l-2.23 2.63 3.92 3.96-1.4 1.414-3.811-3.852-.971 1.145h-4.413l-1.188 1.6-1.583-1.2 1.781-2.4h4.493z" fill="#fff"/></g></svg>