<svg viewBox="0 0 24 24" xmlns="http://www.w3.org/2000/svg"><path d="m24 0h-24v24h24zm-20.994 19.476h9v1.5h-9zm9.824-9.392h-.98v-1.652h1.264l.324-1.908h-1.136v-1.652h1.416l.324-1.864h1.704l-.332 1.864h1.88l.324-1.864h1.7l-.304 1.864h.98v1.652h-1.28l-.324 1.908h1.136v1.652h-1.42l-.336 1.936h-1.7l.332-1.936h-1.868l-.32 1.936h-1.72zm-9.816-7.076h4.136c1.144 0 2.021.304 2.632.912.529.553.808 1.3.772 2.064v.028a2.802 2.802 0 0 1 -.536 1.784 3.065 3.065 0 0 1 -1.404.992l2.204 3.224h-2.32l-1.868-2.772h-1.616v2.772h-2zm13.672 5.424.328-1.908h-1.876l-.32 1.908zm-9.672-1.024c.415.014.821-.129 1.136-.4a1.2 1.2 0 0 0 .4-.928v-.028a1.156 1.156 0 0 0 -.4-.968 1.836 1.836 0 0 0 -1.148-.32h-1.988v2.592z"/></svg>