<svg viewBox="0 0 24 24" xmlns="http://www.w3.org/2000/svg"><path d="m22.582.054h-21.164c-.783 0-1.418.636-1.418 1.418v21.056c0 .783.635 1.418 1.418 1.418h21.164c.783 0 1.418-.635 1.418-1.418v-21.056c0-.782-.635-1.418-1.418-1.418m-12.095 20.383a.37.37 0 0 1 -.37.37h-6.525a.37.37 0 0 1 -.37-.37v-16.952a.37.37 0 0 1 .37-.37h6.422a.37.37 0 0 1 .37.37v6.452s-.035 2.776.103 4.955zm10.188 0a.371.371 0 0 1 -.575.31l-2.975-1.945a.37.37 0 0 0 -.42.01l-2.608 1.887a.36.36 0 0 1 -.345.042.37.37 0 0 1 -.159-.302v-13.165c.353-.07.746-.106 1.2-.106 2.229 0 5.882 1.257 5.882 4.81z"/></svg>