<svg height="64" viewBox="0 0 64 64" width="64" xmlns="http://www.w3.org/2000/svg"><g fill="none" fill-rule="evenodd"><path d="m0 0h64v64h-64z" fill="#dd344c"/><path d="m30 30c-1.732 0-3.038-1.29-3.038-3s1.306-3 3.038-3c1.71 0 3 1.29 3 3s-1.29 3-3 3m12-4h-7.098c-.451-2.309-2.442-4-4.902-4-2.825 0-5.038 2.196-5.038 5s2.213 5 5.038 5c2.46 0 4.451-1.691 4.902-4h7.098zm-20 1c0 4.411 3.589 8 8 8 3.883 0 6.188-2.747 7.052-5.318l1.896.636c-1.363 4.059-4.876 6.682-8.948 6.682-5.514 0-10-4.486-10-10s4.486-10 10-10c4.072 0 7.585 2.623 8.948 6.682l-1.896.636c-.864-2.571-3.169-5.318-7.052-5.318-4.411 0-8 3.589-8 8m-10 8h2v-3h-2zm0-13h2v-3h-2zm4 14v-24h28v21h2v-21c0-1.551-.432-2-1.925-2h-28.075c-1.552 0-2 .449-2 2v5h-3a1 1 0 0 0 -1 1v5a1 1 0 0 0 1 1h3v6h-3a1 1 0 0 0 -1 1v5a1 1 0 0 0 1 1h3v5c0 1.309.691 2 2 2h16v-2h-16zm36 16h-1.586l-.707-.707a1 1 0 0 0 -.707-.293h-1v-1a1 1 0 0 0 -.293-.707l-1-1a1 1 0 0 0 -.707-.293h-1v-1.038a1 1 0 0 0 -.31-.723l-1.211-1.157a1.001 1.001 0 0 0 -1.151-.234 4.298 4.298 0 0 1 -6.066-3.912 4.3 4.3 0 0 1 4.294-4.294 4.3 4.3 0 0 1 4.294 4.294c0 .77-.104 1.389-.308 1.84a1 1 0 0 0 .241 1.155l7.217 6.513zm1.67-2.742-7.054-6.367q.233-.857.234-1.955a6.3 6.3 0 0 0 -6.294-6.294 6.3 6.3 0 0 0 -6.294 6.294 6.3 6.3 0 0 0 8.247 5.985l.491.469v1.61a1 1 0 0 0 1 1h1.586l.414.414v1.586a1 1 0 0 0 1 1h1.586l.707.707a1 1 0 0 0 .707.293h3a1 1 0 0 0 1-1v-3a1 1 0 0 0 -.33-.742m-13.179-7.734a.52.52 0 1 1 0-1.04.52.52 0 0 1 0 1.04m0-3.041a2.524 2.524 0 0 0 -2.52 2.521c0 1.39 1.131 2.52 2.52 2.52s2.521-1.13 2.521-2.52a2.524 2.524 0 0 0 -2.521-2.521" fill="#fff"/></g></svg>