<svg fill="none" viewBox="0 0 256 256" xmlns="http://www.w3.org/2000/svg" xmlns:xlink="http://www.w3.org/1999/xlink"><linearGradient id="a" gradientUnits="userSpaceOnUse" x1="0" x2="256.998" y1="0" y2="255.998"><stop offset="0" stop-color="#ff6363"/><stop offset="1" stop-color="#d72a2a"/></linearGradient><linearGradient id="b" gradientUnits="userSpaceOnUse" x1="164.673" x2="76.023" y1="132.081" y2="132.081"><stop offset="0"/><stop offset=".483" stop-opacity=".8"/><stop offset="1"/></linearGradient><linearGradient id="c"><stop offset="0"/><stop offset="1" stop-opacity=".5"/></linearGradient><linearGradient id="d" gradientUnits="userSpaceOnUse" x1="120.348" x2="175.754" xlink:href="#c" y1="220.731" y2="110.095"/><linearGradient id="e" gradientUnits="userSpaceOnUse" x1="120.348" x2="64.941" y1="220.731" y2="110.095"><stop offset="0" stop-color="#787878" stop-opacity="0"/><stop offset=".745" stop-color="#787878" stop-opacity=".5"/></linearGradient><linearGradient id="f" gradientUnits="userSpaceOnUse" x1="120.348" x2="64.941" xlink:href="#c" y1="43.431" y2="154.067"/><linearGradient id="g" gradientUnits="userSpaceOnUse" x1="120.348" x2="175.754" y1="43.431" y2="154.067"><stop offset="0" stop-color="#787878" stop-opacity="0"/><stop offset=".75" stop-color="#787878" stop-opacity=".5"/></linearGradient><clipPath id="h"><path d="m0 0h256v256h-256z"/></clipPath><mask id="i" height="257" maskUnits="userSpaceOnUse" width="256" x="0" y="0"><rect fill="url(#a)" height="257" rx="64" width="256"/></mask><g clip-path="url(#h)"><g mask="url(#i)"><rect fill="#fff" height="256" rx="20" width="256"/><path d="m76.023 132.081s13.407-22.163 44.325-22.163c28.825 0 44.325 22.163 44.325 22.163s-13.552 22.163-44.325 22.162c-28.645 0-44.325-22.162-44.325-22.162" fill="url(#b)"/><path d="m175.754 165.325c0 26.776-20.771 55.406-55.406 55.406v-66.487s27.811 1.377 44.325-22.163c8.421 11.265 11.081 23.025 11.081 33.244" fill="url(#d)"/><path d="m64.941 165.325c0 26.776 20.771 55.406 55.407 55.406v-66.487s-25.934 1.45-44.325-22.163c-8.423 11.265-11.083 23.025-11.083 33.244" fill="url(#e)"/><path d="m64.941 98.837c0-26.776 20.771-55.406 55.407-55.406v66.488s-27.812-1.378-44.325 22.162c-8.423-11.265-11.083-23.025-11.083-33.244" fill="url(#f)"/><path d="m175.754 98.837c0-26.776-20.771-55.406-55.406-55.406v66.488s26.157-1.352 44.325 22.162c8.421-11.265 11.081-23.025 11.081-33.244" fill="url(#g)"/></g></g></svg>