<svg height="18" viewBox="0 0 18 18" width="18" xmlns="http://www.w3.org/2000/svg" xmlns:xlink="http://www.w3.org/1999/xlink"><linearGradient id="a" gradientUnits="userSpaceOnUse" x1=".5" x2="11.43" y1="9.99" y2="9.99"><stop offset="0" stop-color="#005ba1"/><stop offset=".07" stop-color="#0060a9"/><stop offset=".36" stop-color="#0071c8"/><stop offset=".52" stop-color="#0078d4"/><stop offset=".64" stop-color="#0074cd"/><stop offset=".82" stop-color="#006abb"/><stop offset="1" stop-color="#005ba1"/></linearGradient><path d="m16 4.79-.73-.36-2.21 4.54h-1.89v.8h1.91l2.19 4.5.73-.36-2.22-4.56z" fill="#949494"/><path d="m15.63 6.14a1.45 1.45 0 0 1 -.81-.24 1.47 1.47 0 0 1 -.68-1 1.53 1.53 0 0 1 1.49-1.87 1.5 1.5 0 0 1 .82.24 1.54 1.54 0 0 1 .67 1 1.53 1.53 0 0 1 -1.49 1.86z" fill="#fff"/><path d="m15.63 3.42a1.2 1.2 0 0 1 .64.19 1.17 1.17 0 0 1 .52.74 1.2 1.2 0 0 1 -.15.9 1.21 1.21 0 0 1 -1 .55 1.2 1.2 0 0 1 -.64-.18 1.2 1.2 0 0 1 -.53-.75 1.2 1.2 0 0 1 1.16-1.45m0-.68a1.87 1.87 0 1 0 1 .29 1.85 1.85 0 0 0 -1-.29" fill="#32bedd"/><path d="m15.63 15.62a1.45 1.45 0 0 1 -.81-.24 1.51 1.51 0 0 1 -.48-2.1 1.52 1.52 0 0 1 2.11-.48 1.53 1.53 0 0 1 -.82 2.82" fill="#fff"/><path d="m15.63 12.9a1.2 1.2 0 0 1 .64.19 1.17 1.17 0 0 1 .52.74 1.2 1.2 0 0 1 -.15.9 1.21 1.21 0 0 1 -1 .55 1.2 1.2 0 0 1 -.64-.18 1.2 1.2 0 0 1 -.53-.75 1.2 1.2 0 0 1 1.16-1.45m0-.68a1.87 1.87 0 1 0 1 .29 1.85 1.85 0 0 0 -1-.29" fill="#32bedd"/><path d="m6 5.72c-3 0-5.5-.89-5.5-1.98v10.52c0 1.09 2.41 2 5.39 2h.11c3 0 5.47-.88 5.47-2v-10.52c-.04 1.09-2.47 1.98-5.47 1.98" fill="url(#a)"/><path d="m11.43 3.74c0 1.09-2.45 2-5.47 2s-5.46-.91-5.46-2 2.5-1.98 5.5-1.98 5.47.88 5.47 2" fill="#e8e8e8"/><path d="m10.15 3.58c0 .69-1.87 1.25-4.19 1.25s-4.19-.56-4.19-1.25 1.88-1.26 4.23-1.26 4.19.56 4.19 1.26" fill="#50e6ff"/><path d="m6 3.87a10.1 10.1 0 0 0 -3.31.47 9.7 9.7 0 0 0 3.31.49 9.8 9.8 0 0 0 3.32-.49 10.1 10.1 0 0 0 -3.32-.47" fill="#198ab3"/></svg>