<svg viewBox="0 0 24 24" xmlns="http://www.w3.org/2000/svg" fill="#FF6363"><path d="m6.004 15.492v2.504l-6.004-6.004 1.258-1.249zm2.504 2.504h-2.504l6.004 6.004 1.253-1.253zm14.24-4.747 1.252-1.252-11.997-11.997-1.253 1.251 4.741 4.749h-2.865l-3.309-3.308-1.252 1.252 2.06 2.06h-1.434v9.31h9.309v-1.432l2.06 2.06 1.252-1.252-3.312-3.32v-2.864zm-16.118-7.877-1.25 1.253 1.342 1.343 1.251-1.253zm10.655 10.655-1.247 1.251 1.342 1.343 1.253-1.251zm-13.341-7.968-1.252 1.251 3.312 3.314v-2.506zm9.936 9.937h-2.504l3.314 3.312 1.25-1.252z"/></svg>