<svg xmlns="http://www.w3.org/2000/svg" width="107.537" height="56.801" viewBox="0 0 28.453 15.028"><path fill="#e31837" d="M2.633 9.892c-.473-.221-.861-.4-.861-.76 0-.277.22-.477.657-.477.16 0 .292.019.428.043a1.3 1.3 0 0 0 .208.023c.382 0 .597-.227.74-.659l.06-.176c-.062-.024-.685-.298-1.496-.298-1.292 0-1.974.828-1.974 1.688 0 .433.136.748.349.995.274.318.664.526 1.029.705.532.26 1.012.454 1.012.84 0 .344-.354.54-.829.54-.65 0-1.218-.372-1.29-.416l-.534 1c.095.054.782.49 1.914.49 1.205 0 2.118-.692 2.118-1.756 0-1.058-.846-1.45-1.531-1.782m4.715.494 2.186-2.681H7.977l-1.745 2.314h-.026V7.705H4.922v5.679h.077c.555 0 1.216-.258 1.216-1.185v-1.304h.026l1.778 2.418h1.634zm2.259-8.765c-.452.085-1.122.496-1.12 1.221.002.66.54 1.059.542 1.922.003.65-.355 1.088-.743 1.33q.235-.022.517-.023a4 4 0 0 1 .649.04l2.028-2.49a8.4 8.4 0 0 0-1.873-2m1.704 6.722c.256-.398.288-1.031.31-1.676.024-.602.15-1.055.954-1.058.179 0 .349.024.656.023 1.18-.005 1.95-.411 2.43-.678-.98-.624-2.408-1.262-4.18-1.333-.116.326-1.014 2.823-1.082 3.025.01.012.167.188.364.532.29.473.445.873.548 1.165"/><path fill="#f58025" d="M7.026 6.303c-.102 0-.153-.068-.167-.186L6.263.656c-.01-.103-.036-.291-.036-.358 0-.108.07-.165.153-.165.24-.001 1.55.306 2.94 1.28-.4.113-1.125.53-1.122 1.392.003.764.55 1.184.553 1.95.004 1.246-1.428 1.547-1.724 1.548m4.401 2.371a1 1 0 0 0 .063.14q.047.08.125.08a.3.3 0 0 0 .115-.032l4.982-2.316c.092-.044.268-.123.326-.157.06-.034.087-.083.087-.134a.16.16 0 0 0-.024-.084c-.08-.129-.49-.564-1.175-1.039-.544.3-1.394.763-2.657.768-.31 0-.38-.02-.591-.02-.617.002-.771.266-.794.807-.003.103-.005.24-.011.39-.02.484-.077 1.15-.446 1.597m6.618 4.787c-.47 1.272-1.077 1.436-1.596 1.436-.367 0-.637-.131-.666-.146l.197-.595c.015.008.214.115.435.115.412 0 .671-.229.9-.947l-1.42-3.092c.026-.008.194-.06.386-.06.454 0 .554.284.67.567.1.238.746 1.797.746 1.797h.022l.749-2.304h.777zm10.274-.152-1.086-1.578 1.063-1.544h-.916l-.74 1.132-.446-.7c-.148-.227-.281-.457-.62-.45a1 1 0 0 0-.143.015 1.4 1.4 0 0 0-.367.128c.012.019.52.74 1.007 1.441l-1.07 1.556h.916l.744-1.136.743 1.136zm-8.444-2.063v2.068h.777v-2.15c.042-.039.318-.302.624-.302.4 0 .607.29.607.666v1.786h.775v-1.98c0-.94-.723-1.148-1.127-1.148-.485 0-.83.305-.933.407-.033-.126-.181-.339-.52-.339-.12 0-.276.035-.29.04.023.116.087.393.087.952m4.515-1.95a.47.47 0 0 1-.479.465.47.47 0 0 1-.478-.465c0-.257.213-.466.478-.466s.479.209.479.466m-.095 4.013h-.77v-3.08h.77zm-10.878-2.724c.055-.045.45-.413 1.001-.413.603 0 1.047.315 1.047 1.08v2.062h-.804v-1.84c0-.34-.187-.603-.54-.603-.337 0-.623.266-.704.333v2.11h-.798V8.612h.169c.383 0 .63.279.63.65z"/></svg>