<svg xmlns="http://www.w3.org/2000/svg" width="64" height="64" viewBox="0 0 64 64"><title>Icon-Architecture/48/Arch_Amazon-ECS-Anywhere_48</title><g id="Icon-Architecture/48/Arch_Amazon-ECS-Anywhere_48" fill="none" fill-rule="evenodd" stroke="none" stroke-width="1"><g id="Icon-Architecture-BG/48/Containers" fill="#ed7100"><path id="Rectangle" d="M0 0h64v64H0z"/></g><g id="Icon-Service/48/Amazon-ECS-Anywhere_48" fill="#fff" transform="translate(12 10)"><path id="Fill-3" d="m38 28.695-5.481-3.219c.305-1.108.481-2.27.481-3.475A13.09 13.09 0 0 0 24.022 9.57q-.011-.014-.022-.024V2.793l14 8.547zM19.247 41.839 2 31.821V11.295L16 2.79v6.773C10.784 11.264 7 16.192 7 22c0 7.211 5.832 13.078 13 13.078 3.275 0 6.262-1.234 8.551-3.252l4.296 2.486zm5.782-20.844H21v-10.01c.629.057 1.239.174 1.832.334 1.283 1.942 2.063 5.717 2.197 9.676m1.968 0c-.084-3.121-.555-6.166-1.406-8.509a11.07 11.07 0 0 1 5.358 8.509zM21 23.007h4.043c-.084 3.805-.786 7.516-2.233 9.68-.587.157-1.189.273-1.81.329zm-3.817 9.678c-1.401-2.021-2.12-5.752-2.18-9.678H19v10.009a11 11 0 0 1-1.817-.331m-4.176-9.678c.05 3.111.498 6.138 1.35 8.476a11.08 11.08 0 0 1-5.306-8.476zm.022-2.012H9.051a11.08 11.08 0 0 1 5.514-8.604c-.901 2.422-1.415 5.49-1.536 8.604m5.971 0h-3.97c.157-3.793.918-7.482 2.266-9.709A11 11 0 0 1 19 10.984zm6.572 10.53c.869-2.362 1.34-5.407 1.424-8.518h3.953a11.08 11.08 0 0 1-5.377 8.519M39.519 9.915l-16-9.768A1 1 0 0 0 22.51.129c-.316.179-.51.514-.51.877v8.087a13 13 0 0 0-2-.171c-.682 0-1.346.068-2 .17V1.007c0-.363-.194-.697-.509-.876a1 1 0 0 0-1.008.015l-16 9.72a1.01 1.01 0 0 0-.483.862v21.675c0 .36.19.691.5.871l18.235 10.593a.996.996 0 0 0 .983.01l15.65-8.662a1.01 1.01 0 0 0 .017-1.754l-5.384-3.115a13.1 13.1 0 0 0 1.825-2.945l6.67 3.916a.99.99 0 0 0 1.002.003c.311-.18.502-.512.502-.873V10.774c0-.352-.183-.678-.481-.86"/></g></g></svg>