<svg xmlns="http://www.w3.org/2000/svg" width="192" height="192" fill="none" viewBox="0 0 192 192">
  <defs>
    <mask id="wko">
      <rect width="192" height="192" fill="white"/>
      <path fill="black" d="M78 127c0-7.18 5.82-13 13-13h10c7.18 0 13 5.82 13 13s-5.82 13-13 13H91c-7.18 0-13-5.82-13-13"/>
    </mask>
  </defs>
  <g fill="currentColor" mask="url(#wko)">
    <path fill="currentColor" d="M166 78c0 27.13-15.434 50.381-38 62-9.591 4.938-20.47 8-32 8s-22.41-3.062-32-8c-22.566-11.619-38-34.87-38-62C26 39.34 57.34 8 96 8s70 31.34 70 70"/>
    <path fill="currentColor" d="M56 140h80v46H56z"/>
    <circle cx="96" cy="78" r="70" fill="currentColor"/>
    <path fill="currentColor" d="M52 124c0-38.137 14.81-60 44-60s44 21.863 44 60c0 33.137-19.699 60-44 60s-44-26.863-44-60"/>
    <path fill="currentColor" d="M64 102c0-17.673 14.327-32 32-32s32 14.327 32 32v52c0 17.673-14.327 32-32 32s-32-14.327-32-32z"/>
  </g>
  <path fill="currentColor" d="M96 56c-18.4 0-32 14.4-32 33.6v62.8c0 19.2 13.6 33.6 32 33.6s32-14.4 32-33.6V89.6C128 70.4 114.4 56 96 56"/>
</svg>