<svg fill="none" height="192" viewBox="0 0 192 192" width="192" xmlns="http://www.w3.org/2000/svg" xmlns:xlink="http://www.w3.org/1999/xlink"><linearGradient id="a" gradientUnits="userSpaceOnUse" x1="71.83" x2="156.83" y1="148" y2="8"><stop offset=".1" stop-color="#ffe921"/><stop offset=".48" stop-color="#fdd313"/><stop offset=".86" stop-color="#ffbe00"/></linearGradient><linearGradient id="b" gradientUnits="userSpaceOnUse" x1="96" x2="96" y1="140.04" y2="8"><stop offset=".16" stop-color="#ffe921"/><stop offset=".64" stop-color="#fec700"/><stop offset=".96" stop-color="#ffbe00"/></linearGradient><linearGradient id="c" gradientUnits="userSpaceOnUse" x1="96" x2="96" y1="51.19" y2="142.89"><stop offset=".11" stop-color="#ffb8dd" stop-opacity="0"/><stop offset=".68" stop-color="#ffb5e8"/></linearGradient><filter id="d" color-interpolation-filters="sRGB" filterUnits="userSpaceOnUse" height="235.2" width="203.2" x="-5.6" y="6.4"><feFlood flood-opacity="0" result="BackgroundImageFix"/><feBlend in="SourceGraphic" in2="BackgroundImageFix" result="shape"/><feGaussianBlur result="effect1_foregroundBlur_37487_16896" stdDeviation="28.8"/></filter><filter id="e" color-interpolation-filters="sRGB" filterUnits="userSpaceOnUse" height="140" width="88" x="52" y="58"><feFlood flood-opacity="0" result="BackgroundImageFix"/><feBlend in="SourceGraphic" in2="BackgroundImageFix" result="shape"/><feGaussianBlur result="effect1_foregroundBlur_37487_16896" stdDeviation="6"/></filter><mask id="f" height="140" maskUnits="userSpaceOnUse" width="140" x="26" y="8"><path d="m166 78c0 27.13-15.434 50.381-38 62-9.591 4.938-20.47 8-32 8s-22.41-3.062-32-8c-22.566-11.619-38-34.87-38-62 0-38.66 31.34-70 70-70s70 31.34 70 70" fill="url(#a)"/></mask><mask id="g" height="46" maskUnits="userSpaceOnUse" width="80" x="56" y="140"><path d="m56 140h80v46h-80z" fill="#ffbe00"/></mask><g mask="url(#f)"><circle cx="96" cy="78" fill="url(#b)" r="70"/><g filter="url(#d)"><path d="m52 124c0-38.137 14.81-60 44-60s44 21.863 44 60c0 33.137-19.699 60-44 60s-44-26.863-44-60" fill="#fdfd6d"/></g><g filter="url(#e)"><path d="m64 102c0-17.673 14.327-32 32-32s32 14.327 32 32v52c0 17.673-14.327 32-32 32s-32-14.327-32-32z" fill="url(#c)"/></g><path d="m78 127c0-7.18 5.82-13 13-13h10c7.18 0 13 5.82 13 13s-5.82 13-13 13h-10c-7.18 0-13-5.82-13-13" fill="#fff"/></g><g mask="url(#g)"><path d="m96 56c-18.4 0-32 14.4-32 33.6v62.8c0 19.2 13.6 33.6 32 33.6s32-14.4 32-33.6v-62.8c0-19.2-13.6-33.6-32-33.6" fill="#f6a100"/></g></svg>