<svg viewBox="0 0 24 24" xmlns="http://www.w3.org/2000/svg"><path d="m12 3.9c-2.54 0-4.88-.92-6.76-2.44-.18-.14-.44-.12-.56.08l-3.7 4.88c-.12.16-.1.4.06.54 3 2.64 6.82 4.24 10.96 4.24s7.96-1.58 10.96-4.24c.16-.14.18-.38.06-.54l-3.68-4.9c-.14-.18-.4-.22-.56-.08-1.88 1.54-4.22 2.44-6.76 2.44zm0 16.2c-2.54 0-4.88.92-6.76 2.44-.18.14-.44.12-.56-.08l-3.68-4.9c-.12-.16-.1-.4.06-.54 3-2.64 6.82-4.24 10.96-4.24s7.96 1.58 10.96 4.24c.16.14.18.38.06.54l-3.68 4.9c-.14.18-.4.22-.56.08-1.88-1.54-4.22-2.44-6.76-2.44z" fill="#1d70ff"/></svg>