<svg viewBox="0 0 24 24" xmlns="http://www.w3.org/2000/svg"><path d="m5.988 1.622a8.54 8.54 0 0 0 -2.538 6.824c.349 4.408 4.506 7.995 8.276 7.995 3.507 0 4.88-3.061 4.541-5.14a4.3 4.3 0 0 0 -.95-2.073c.632.34 1.244.776 1.809 1.3 1.52 1.415 2.44 3.229 2.587 5.1.327 4.135-2.733 8.372-7.85 8.372-1.695 0-3.48-.432-4.98-1.143-4.067-1.92-6.883-6.06-6.883-10.855 0-4.431 2.405-8.302 5.988-10.38m6.148-1.622c1.696 0 3.481.432 4.98 1.143a12 12 0 0 1 6.884 10.855c0 4.431-2.405 8.303-5.988 10.38a8.54 8.54 0 0 0 2.538-6.824c-.349-4.408-4.506-7.995-8.276-7.995-3.507 0-4.88 3.061-4.541 5.14a4.3 4.3 0 0 0 .953 2.073 8.7 8.7 0 0 1 -1.81-1.3c-1.52-1.415-2.44-3.227-2.589-5.1-.327-4.135 2.733-8.372 7.85-8.372z" fill="#4285f4" fill-rule="evenodd"/></svg>