<svg height="800" viewBox="0 -1 64 64" width="800" xmlns="http://www.w3.org/2000/svg"><path d="m55 35h-46l-7 19h60z" fill="currentColor" opacity=".3"/><g fill="none"><path fill="currentColor" d="m3 51h58m-52.875-13h47.75" opacity=".5" stroke="currentColor" stroke-miterlimit="10" stroke-width="2"/><g stroke="currentColor" stroke-linecap="round" stroke-linejoin="round"><path fill="currentColor" d="m9 6h46v29h-46zm0 48v6h46v-6m0-19h-46l-7 19h60z" stroke-width="4"/><path fill="currentColor" d="m9 12h46m-40 20v6m34-6v6" stroke-width="2"/><path fill="currentColor" d="m15 2v4m34-4v4" stroke-width="4"/><path fill="currentColor" d="m20.5 19h5m4 0h5m4 0h5m-23 6h5m4 0h5m4 0h5" stroke-width="2"/></g></g></svg>