<svg height="800" viewBox="0 -1 64 64" width="800" xmlns="http://www.w3.org/2000/svg"><path d="m55 35h-46l-7 19h60z" fill="#1b8cff" opacity=".3"/><g fill="none"><path d="m3 51h58" opacity=".5" stroke="#fff" stroke-miterlimit="10" stroke-width="2"/><path d="m8.125 38h47.75" opacity=".5" stroke="#fff" stroke-miterlimit="10" stroke-width="2"/><path d="m9 6h46v29h-46z" stroke="#1b8cff" stroke-linecap="round" stroke-linejoin="round" stroke-width="4"/><path d="m9 54v6h46v-6" stroke="#1b8cff" stroke-linecap="round" stroke-linejoin="round" stroke-width="4"/><path d="m55 35h-46l-7 19h60z" stroke="#1b8cff" stroke-linecap="round" stroke-linejoin="round" stroke-width="4"/><path d="m9 12h46" stroke="#1b8cff" stroke-linecap="round" stroke-linejoin="round" stroke-width="2"/><path d="m15 32v6" stroke="#1b8cff" stroke-linecap="round" stroke-linejoin="round" stroke-width="2"/><path d="m49 32v6" stroke="#1b8cff" stroke-linecap="round" stroke-linejoin="round" stroke-width="2"/><path d="m15 2v4" stroke="#1b8cff" stroke-linecap="round" stroke-linejoin="round" stroke-width="4"/><path d="m49 2v4" stroke="#1b8cff" stroke-linecap="round" stroke-linejoin="round" stroke-width="4"/><g stroke="#1b8cff" stroke-linecap="round" stroke-linejoin="round" stroke-width="2"><path d="m20.5 19h5"/><path d="m29.5 19h5"/><path d="m38.5 19h5"/></g><g stroke="#1b8cff" stroke-linecap="round" stroke-linejoin="round" stroke-width="2"><path d="m20.5 25h5"/><path d="m29.5 25h5"/><path d="m38.5 25h5"/></g></g></svg>