<svg xmlns="http://www.w3.org/2000/svg" width="800" height="800" viewBox="0 -1 64 64"><path fill="#1b8cff" d="M55 35H9L2 54h60z" opacity=".3"/><g fill="none"><path stroke="#fff" stroke-miterlimit="10" stroke-width="2" d="M3 51h58M8.125 38h47.75" opacity=".5"/><g stroke="#1b8cff" stroke-linecap="round" stroke-linejoin="round"><path stroke-width="4" d="M9 6h46v29H9zm0 48v6h46v-6m0-19H9L2 54h60z"/><path stroke-width="2" d="M9 12h46M15 32v6m34-6v6"/><path stroke-width="4" d="M15 2v4m34-4v4"/><path stroke-width="2" d="M20.5 19h5m4 0h5m4 0h5m-23 6h5m4 0h5m4 0h5"/></g></g></svg>