<svg height="18" viewBox="0 0 18 18" width="18" xmlns="http://www.w3.org/2000/svg" xmlns:xlink="http://www.w3.org/1999/xlink"><linearGradient id="a" gradientUnits="userSpaceOnUse" x1="7.673" x2="7.673" y1=".689" y2="16.067"><stop offset="0" stop-color="#5ea0ef"/><stop offset="1" stop-color="#0078d4"/></linearGradient><linearGradient id="b" gradientUnits="userSpaceOnUse" x1="12.837" x2="12.837" y1="13.342" y2="11.165"><stop offset="0" stop-color="#0078d4"/><stop offset="1" stop-color="#5ea0ef"/></linearGradient><path d="m15.345 5.27h-4.538v-4.57l3.9-.043a.64.64 0 0 1 .64.641zm-5.339.043v-4.656h-4.624l.086 4.656zm-9.963 5.387h4.624v-4.661h-4.667zm-.043 4.694a.64.64 0 0 0 .641.64h4.026v-4.613h-4.667zm0-14.094.043 3.97h4.624v-4.613h-4.026a.64.64 0 0 0 -.641.643" fill="url(#a)"/><g fill="#a3a3a3"><path d="m6.38 6.634h.911v2.527a.205.205 0 0 1 -.205.205h-.911a.2.2 0 0 1 -.2-.205v-2.118a.4.4 0 0 1 .395-.409z"/><path d="m6.38 6.634h.911v2.527a.205.205 0 0 1 -.205.205h-.911a.2.2 0 0 1 -.2-.205v-2.118a.4.4 0 0 1 .395-.409z" opacity=".5"/><path d="m16.68 6.634h.911a.4.4 0 0 1 .4.4v2.127a.205.205 0 0 1 -.2.205h-.9a.205.205 0 0 1 -.205-.205v-2.527z"/><path d="m16.68 6.634h.911a.4.4 0 0 1 .4.4v2.127a.205.205 0 0 1 -.2.205h-.9a.205.205 0 0 1 -.205-.205v-2.527z" opacity=".5"/></g><path d="m17.993 7.029v.882h-12v-.882a.4.4 0 0 1 .4-.4h11.2a.4.4 0 0 1 .4.4" fill="#949494"/><path d="m6.175 14.59h.911a.2.2 0 0 1 .205.2v2.549h-.911a.4.4 0 0 1 -.41-.395v-2.135a.2.2 0 0 1 .19-.219z" fill="#a3a3a3"/><path d="m6.175 14.59h.911a.2.2 0 0 1 .205.2v2.549h-.911a.4.4 0 0 1 -.41-.395v-2.135a.2.2 0 0 1 .19-.219z" fill="#a3a3a3" opacity=".5"/><path d="m16.885 14.59h.91a.2.2 0 0 1 .2.2v2.118a.4.4 0 0 1 -.4.4h-.915v-2.499a.2.2 0 0 1 .19-.219z" fill="#a3a3a3"/><path d="m16.885 14.59h.91a.2.2 0 0 1 .2.2v2.118a.4.4 0 0 1 -.4.4h-.915v-2.499a.2.2 0 0 1 .19-.219z" fill="#a3a3a3" opacity=".5"/><path d="m5.971 16.941v-.883h12v.883a.4.4 0 0 1 -.4.4h-11.198a.4.4 0 0 1 -.402-.4" fill="#949494"/><path d="m14.6 13.516a.07.07 0 0 0 .055-.026l1.43-1.422a.16.16 0 0 0 0-.213l-1.43-1.446a.07.07 0 0 0 -.056-.027.1.1 0 0 0 -.044.014.07.07 0 0 0 -.026.068v.888a.07.07 0 0 1 -.062.079h-3.326a.82.82 0 0 0 -.653-.322 1 1 0 0 0 -.083 0 .864.864 0 0 0 -.081 1.725 1 1 0 0 0 .082 0 1 1 0 0 0 .082 0 .85.85 0 0 0 .66-.33h3.317a.07.07 0 0 1 .071.063v.881a.07.07 0 0 0 .064.068" fill="url(#b)"/><path d="m11.909 13.035a1.836 1.836 0 1 1 -.009-2.135h1a2.7 2.7 0 1 0 0 2.139z" fill="#773adc"/>​</svg>