<svg fill="none" height="18" viewBox="0 0 18 18" width="18" xmlns="http://www.w3.org/2000/svg" xmlns:xlink="http://www.w3.org/1999/xlink"><linearGradient id="a" gradientUnits="userSpaceOnUse" x1="9" x2="9" y1="18" y2="0"><stop offset="0" stop-color="#0078d4"/><stop offset=".156" stop-color="#1380da"/><stop offset=".528" stop-color="#3c91e5"/><stop offset=".822" stop-color="#559cec"/><stop offset="1" stop-color="#5ea0ef"/></linearGradient><linearGradient id="b" gradientUnits="userSpaceOnUse" x1="9.17" x2="9.17" y1="3.575" y2="10.887"><stop offset="0" stop-color="#fff"/><stop offset="1" stop-color="#fff" stop-opacity=".7"/></linearGradient><clipPath id="c"><path d="m0 0h18v18h-18z"/></clipPath><g clip-path="url(#c)"><path d="m.707 8.293 7.586-7.586a1 1 0 0 1 1.414 0l7.586 7.586a1 1 0 0 1 0 1.414l-7.586 7.586a1 1 0 0 1 -1.414 0l-7.586-7.586a1 1 0 0 1 0-1.414" fill="url(#a)"/><path d="m9.176 14.763a1.828 1.828 0 1 1 0-3.655 1.828 1.828 0 0 1 0 3.655m0-2.882a1.055 1.055 0 1 0 .013 2.11 1.055 1.055 0 0 0 -.013-2.11" fill="#fff" opacity=".9"/><path d="m13.437 6.454h-2.293a.08.08 0 0 0 -.08.096.1.1 0 0 0 .023.041l.655.655a.093.093 0 0 1 0 .132l-1.776 1.776c-.08.079-.137.171-.21.254v-4.74a.08.08 0 0 1 .08-.08h.957a.082.082 0 0 0 .058-.139l-1.626-1.619a.08.08 0 0 0 -.113 0l-1.617 1.62a.082.082 0 0 0 .057.139h.948a.09.09 0 0 1 .081.08v4.737c-.072-.082-.129-.173-.207-.25l-1.774-1.779a.09.09 0 0 1 0-.132l.654-.655a.08.08 0 0 0 0-.112.08.08 0 0 0 -.057-.023h-2.293a.08.08 0 0 0 -.08.08v2.29a.08.08 0 0 0 .08.08q.034 0 .057-.022l.686-.686a.09.09 0 0 1 .132 0l1.775 1.775c.371.374.65.83.817 1.33a1.76 1.76 0 0 1 1.597-.007c.168-.498.447-.95.817-1.323l1.775-1.775a.093.093 0 0 1 .133 0l.687.686a.1.1 0 0 0 .055.023.08.08 0 0 0 .082-.08v-2.292a.08.08 0 0 0 -.08-.08" fill="url(#b)"/></g></svg>