<svg xmlns="http://www.w3.org/2000/svg" width="18" height="18" viewBox="0 0 18 18"><defs><mask id="a"><path fill="#fff" d="M0 0h18v18H0z"/><path d="M1.152 14.787V3.213a2.06 2.06 0 0 1 2.061-2.061h11.574a2.065 2.065 0 0 1 2.061 2.061v11.574a2.06 2.06 0 0 1-2.061 2.062H3.213a2.06 2.06 0 0 1-2.061-2.062"/><path d="M3.669 5.123H14.33v7.754H3.669z"/><path d="M2.7 12.586c0-.642.521-1.163 1.163-1.163h10.274c.642 0 1.163.521 1.163 1.163v1.551c0 .642-.521 1.163-1.163 1.163H3.863A1.163 1.163 0 0 1 2.7 14.137zm0-4.361c0-.642.521-1.163 1.163-1.163h10.274c.642 0 1.163.521 1.163 1.163v1.551c0 .642-.521 1.163-1.163 1.163H3.863A1.163 1.163 0 0 1 2.7 9.776zm0-4.362c0-.642.521-1.163 1.163-1.163h10.274c.642 0 1.163.521 1.163 1.163v1.551c0 .642-.521 1.163-1.163 1.163H3.863A1.163 1.163 0 0 1 2.7 5.414z"/><path d="M7.304 13.24a.606.606 0 1 1-1.211 0 .606.606 0 0 1 1.211 0"/><path d="M8.758 12.635a.606.606 0 1 0 0 1.212h4.362a.606.606 0 1 0 0-1.212z"/><path d="M5.365 9.121a.606.606 0 1 1-1.211 0 .606.606 0 0 1 1.211 0"/><path d="M8.758 8.515a.606.606 0 1 0 0 1.212h4.362a.606.606 0 1 0 0-1.212z"/><path d="M7.304 4.76a.606.606 0 1 1-1.211 0 .606.606 0 0 1 1.211 0"/><path d="M8.758 4.154a.606.606 0 1 0 0 1.212h4.362a.606.606 0 1 0 0-1.212z"/><path d="M5.365 13.24a.606.606 0 1 1-1.212 0 .606.606 0 0 1 1.212 0m1.939-4.119a.606.606 0 1 1-1.211 0 .606.606 0 0 1 1.211 0M5.365 4.76a.606.606 0 1 1-1.211 0 .606.606 0 0 1 1.211 0"/></mask></defs><path fill="currentColor" d="M0 3.213v11.574A3.215 3.215 0 0 0 3.213 18h11.574A3.21 3.21 0 0 0 18 14.787V3.213A3.216 3.216 0 0 0 14.787 0H3.213A3.216 3.216 0 0 0 0 3.213" mask="url(#a)"/></svg>