<svg xmlns="http://www.w3.org/2000/svg" id="uuid-c515e2cc-cce2-4313-bc78-8a65359f6e55" width="18" height="18" viewBox="0 0 18 18"><defs><linearGradient id="uuid-43e1572f-f45f-4661-9142-2ce70d277f4b" x1="4.352" x2="13.503" y1="6.757" y2="6.762" gradientTransform="matrix(1 0 0 -1 0 20)" gradientUnits="userSpaceOnUse"><stop offset=".253" stop-color="#d8f7ff"/><stop offset="1" stop-color="#0094f0"/></linearGradient><linearGradient id="uuid-704a48b3-d08c-4b2a-b43a-a87721ee5307" x1="4.352" x2="13.503" y1="6.755" y2="6.76" gradientTransform="matrix(1 0 0 -1 0 20)" gradientUnits="userSpaceOnUse"><stop offset=".253" stop-color="#d8f7ff"/><stop offset="1" stop-color="#0094f0"/></linearGradient><linearGradient id="uuid-cdf275c0-e340-40dd-91f0-140720ddf1e0" x1="4.347" x2="13.498" y1="10.875" y2="10.865" gradientTransform="matrix(1 0 0 -1 0 20)" gradientUnits="userSpaceOnUse"><stop offset=".253" stop-color="#d8f7ff"/><stop offset="1" stop-color="#0094f0"/></linearGradient><linearGradient id="uuid-feda771d-0706-4854-bc7e-de1952fc7294" x1="4.347" x2="13.498" y1="10.881" y2="10.872" gradientTransform="matrix(1 0 0 -1 0 20)" gradientUnits="userSpaceOnUse"><stop offset=".253" stop-color="#d8f7ff"/><stop offset="1" stop-color="#0094f0"/></linearGradient><linearGradient id="uuid-6f5cc3b6-3f84-46f6-a8f4-e4f9343c3e65" x1="4.351" x2="13.501" y1="15.225" y2="15.286" gradientTransform="matrix(1 0 0 -1 0 20)" gradientUnits="userSpaceOnUse"><stop offset=".253" stop-color="#d8f7ff"/><stop offset="1" stop-color="#0094f0"/></linearGradient><linearGradient id="uuid-9f565386-030a-45e1-bf1d-4ddb23044ada" x1="4.351" x2="13.502" y1="15.196" y2="15.257" gradientTransform="matrix(1 0 0 -1 0 20)" gradientUnits="userSpaceOnUse"><stop offset=".253" stop-color="#d8f7ff"/><stop offset="1" stop-color="#0094f0"/></linearGradient></defs><path fill="#1072dd" fill-rule="evenodd" d="M0 3.213v11.574A3.215 3.215 0 0 0 3.213 18h11.574A3.21 3.21 0 0 0 18 14.787V3.213A3.216 3.216 0 0 0 14.787 0H3.213A3.216 3.216 0 0 0 0 3.213"/><path fill="#d0f1fd" d="M1.152 14.787V3.213a2.06 2.06 0 0 1 2.061-2.061h11.574a2.065 2.065 0 0 1 2.061 2.061v11.574a2.06 2.06 0 0 1-2.061 2.062H3.213a2.061 2.061 0 0 1-2.061-2.062"/><path fill="#1072dd" d="M3.669 5.123H14.33v7.754H3.669z"/><path fill="#0094f0" d="M2.7 12.586c0-.642.521-1.163 1.163-1.163h10.274c.642 0 1.163.521 1.163 1.163v1.551c0 .642-.521 1.163-1.163 1.163H3.863A1.163 1.163 0 0 1 2.7 14.137zM2.7 8.225c0-.642.521-1.163 1.163-1.163h10.274c.642 0 1.163.521 1.163 1.163v1.551c0 .642-.521 1.163-1.163 1.163H3.863A1.163 1.163 0 0 1 2.7 9.776zM2.7 3.863c0-.642.521-1.163 1.163-1.163h10.274c.642 0 1.163.521 1.163 1.163v1.551c0 .642-.521 1.163-1.163 1.163H3.863A1.163 1.163 0 0 1 2.7 5.414z"/><path fill="url(#uuid-43e1572f-f45f-4661-9142-2ce70d277f4b)" d="M7.304 13.24a.606.606 0 1 1-1.211 0 .606.606 0 0 1 1.211 0"/><path fill="url(#uuid-704a48b3-d08c-4b2a-b43a-a87721ee5307)" d="M8.758 12.635a.606.606 0 1 0 0 1.212h4.362a.606.606 0 1 0 0-1.212z"/><path fill="url(#uuid-cdf275c0-e340-40dd-91f0-140720ddf1e0)" d="M5.365 9.121a.606.606 0 1 1-1.211 0 .606.606 0 0 1 1.211 0"/><path fill="url(#uuid-feda771d-0706-4854-bc7e-de1952fc7294)" d="M8.758 8.515a.606.606 0 1 0 0 1.212h4.362a.606.606 0 1 0 0-1.212z"/><path fill="url(#uuid-6f5cc3b6-3f84-46f6-a8f4-e4f9343c3e65)" d="M7.304 4.76a.606.606 0 1 1-1.211 0 .606.606 0 0 1 1.211 0"/><path fill="url(#uuid-9f565386-030a-45e1-bf1d-4ddb23044ada)" d="M8.758 4.154a.606.606 0 1 0 0 1.212h4.362a.606.606 0 1 0 0-1.212z"/><path fill="#98f0b0" d="M5.365 13.24a.606.606 0 1 1-1.212 0 .606.606 0 0 1 1.212 0M7.304 9.121a.606.606 0 1 1-1.211 0 .606.606 0 0 1 1.211 0M5.365 4.76a.606.606 0 1 1-1.211 0 .606.606 0 0 1 1.211 0"/></svg>