<svg height="18" viewBox="0 0 18 18" width="18" xmlns="http://www.w3.org/2000/svg" xmlns:xlink="http://www.w3.org/1999/xlink"><linearGradient id="a"><stop offset=".253" stop-color="#d8f7ff"/><stop offset="1" stop-color="#0094f0"/></linearGradient><linearGradient id="b" gradientTransform="matrix(1 0 0 -1 0 20)" gradientUnits="userSpaceOnUse" x1="4.352" x2="13.503" xlink:href="#a" y1="6.757" y2="6.762"/><linearGradient id="c" gradientTransform="matrix(1 0 0 -1 0 20)" gradientUnits="userSpaceOnUse" x1="4.352" x2="13.503" xlink:href="#a" y1="6.755" y2="6.76"/><linearGradient id="d" gradientTransform="matrix(1 0 0 -1 0 20)" gradientUnits="userSpaceOnUse" x1="4.347" x2="13.498" xlink:href="#a" y1="10.875" y2="10.865"/><linearGradient id="e" gradientTransform="matrix(1 0 0 -1 0 20)" gradientUnits="userSpaceOnUse" x1="4.347" x2="13.498" xlink:href="#a" y1="10.881" y2="10.872"/><linearGradient id="f" gradientTransform="matrix(1 0 0 -1 0 20)" gradientUnits="userSpaceOnUse" x1="4.351" x2="13.501" xlink:href="#a" y1="15.225" y2="15.286"/><linearGradient id="g" gradientTransform="matrix(1 0 0 -1 0 20)" gradientUnits="userSpaceOnUse" x1="4.351" x2="13.502" xlink:href="#a" y1="15.196" y2="15.257"/><path d="m0 3.213v11.574a3.215 3.215 0 0 0 3.213 3.213h11.574a3.21 3.21 0 0 0 3.213-3.213v-11.574a3.216 3.216 0 0 0 -3.213-3.213h-11.574a3.216 3.216 0 0 0 -3.213 3.213" fill="#1072dd" fill-rule="evenodd"/><path d="m1.152 14.787v-11.574a2.06 2.06 0 0 1 2.061-2.061h11.574a2.065 2.065 0 0 1 2.061 2.061v11.574a2.06 2.06 0 0 1 -2.061 2.062h-11.574a2.061 2.061 0 0 1 -2.061-2.062" fill="#d0f1fd"/><path d="m3.669 5.123h10.661v7.754h-10.661z" fill="#1072dd"/><path d="m2.7 12.586c0-.642.521-1.163 1.163-1.163h10.274c.642 0 1.163.521 1.163 1.163v1.551c0 .642-.521 1.163-1.163 1.163h-10.274a1.163 1.163 0 0 1 -1.163-1.163zm0-4.361c0-.642.521-1.163 1.163-1.163h10.274c.642 0 1.163.521 1.163 1.163v1.551c0 .642-.521 1.163-1.163 1.163h-10.274a1.163 1.163 0 0 1 -1.163-1.163zm0-4.362c0-.642.521-1.163 1.163-1.163h10.274c.642 0 1.163.521 1.163 1.163v1.551c0 .642-.521 1.163-1.163 1.163h-10.274a1.163 1.163 0 0 1 -1.163-1.163z" fill="#0094f0"/><path d="m7.304 13.24a.606.606 0 1 1 -1.211 0 .606.606 0 0 1 1.211 0" fill="url(#b)"/><path d="m8.758 12.635a.606.606 0 1 0 0 1.212h4.362a.606.606 0 1 0 0-1.212z" fill="url(#c)"/><path d="m5.365 9.121a.606.606 0 1 1 -1.211 0 .606.606 0 0 1 1.211 0" fill="url(#d)"/><path d="m8.758 8.515a.606.606 0 1 0 0 1.212h4.362a.606.606 0 1 0 0-1.212z" fill="url(#e)"/><path d="m7.304 4.76a.606.606 0 1 1 -1.211 0 .606.606 0 0 1 1.211 0" fill="url(#f)"/><path d="m8.758 4.154a.606.606 0 1 0 0 1.212h4.362a.606.606 0 1 0 0-1.212z" fill="url(#g)"/><path d="m5.365 13.24a.606.606 0 1 1 -1.212 0 .606.606 0 0 1 1.212 0m1.939-4.119a.606.606 0 1 1 -1.211 0 .606.606 0 0 1 1.211 0m-1.939-4.361a.606.606 0 1 1 -1.211 0 .606.606 0 0 1 1.211 0" fill="#98f0b0"/></svg>