<svg viewBox="0 0 128 128" xmlns="http://www.w3.org/2000/svg"><path d="m26.092 59.077c0 7.205-5.84 13.046-13.046 13.046-7.205 0-13.046-5.84-13.046-13.046s5.841-13.046 13.046-13.046 13.046 5.84 13.046 13.046zm29.671 42.153c0 11.012-8.927 19.939-19.939 19.939s-19.939-8.927-19.939-19.939 8.927-19.939 19.94-19.939c11.011 0 19.938 8.927 19.938 19.94zm64.094-4.998c22.963-38.181-4.85-100.106-55.707-93.814-45.948 5.68-46.688 54.044-6.193 65.532 35.042 9.952 7.239 32.18 8.05 46.982.818 14.8 30.467 20.168 53.849-18.7" fill="#999"/></svg>