<svg height="24" width="24" xmlns="http://www.w3.org/2000/svg"><g fill="none" fill-rule="evenodd"><path d="m0 0h24v24h-24z"/><g fill-rule="nonzero"><g fill="#185abc"><circle cx="3.713" cy="4.463" r="1.65"/><circle cx="3.713" cy="11.943" r="1.65"/><circle cx="3.713" cy="19.423" r="1.65"/><circle cx="19.757" cy="11.944" r="2.063"/></g><path d="m6.953 12.933h3.487q.207-.358.447-.692l.21-.302a8 8 0 0 1 -.637-1.004h-3.507q.114.39.14.793v.422a3.4 3.4 0 0 1 -.14.783" fill="#669df6"/><path d="m13.501 8.907-.229-.411-.278-.462-.437-.874c-1.252-2.51-2.544-3.664-5.148-3.664h-.456c.094.326.141.664.14 1.004.001.34-.046.678-.14 1.004h.457c1.61 0 2.316.512 3.29 2.289l.238.432.239.481c1.44 2.912 2.484 4.016 4.899 4.257a4.3 4.3 0 0 1 -.12-1.004q.003-.512.14-1.004h.06c-1.173-.11-1.849-.622-2.654-2.048z" fill="#185abc"/><path d="m11.673 14.299-.239.451-.378.764-.238.451-.229.412c-.914 1.616-1.63 2.088-3.18 2.088h-.456q.117.388.14.793v.372a3.5 3.5 0 0 1 -.14.793h.716c2.395-.07 3.687-1.235 4.968-3.654l.537-1.075.209-.391.179-.332a7 7 0 0 1 .477-.722 5.7 5.7 0 0 1 -1.69-1.004 8 8 0 0 0 -.675 1.054z" fill="#669df6"/></g></g></svg>