<svg height="48" viewBox="0 0 48 48" width="48" xmlns="http://www.w3.org/2000/svg"><path d="m18 31c0-1.654-1.346-3-3-3v-2c2.757 0 5 2.243 5 5s-2.243 5-5 5h-2c-2.757 0-5-2.243-5-5h2c0 1.654 1.346 3 3 3h2c1.654 0 3-1.346 3-3m-14 0c0 1.654 1.346 3 3 3v2c-2.757 0-5-2.243-5-5s2.243-5 5-5h2c2.757 0 5 2.243 5 5h-2c0-1.654-1.346-3-3-3h-2c-1.654 0-3 1.346-3 3m28-8h2v-2h-2zm6 0h2v-2h-2zm-18-14h2v-2h-2zm-6 0h2v-2h-2zm-1 7h28v-2h-28zm-3-4h34v-8h-34zm24 32h7v-2h-7zm-21 0h7v-2h-7zm31.082-30a1.92 1.92 0 0 0 1.918-1.917v-8.166a1.92 1.92 0 0 0 -1.918-1.917h-34.082c-1.103 0-2 .897-2 2v8.083a1.92 1.92 0 0 0 1.918 1.917h1.082v2h-1.082a1.92 1.92 0 0 0 -1.918 1.917v6.083h2v-6h34v8h-22v2h19v2h-19v2h22v8h-34v-2h-2v2c0 1.103.897 2 2 2h1v3a1 1 0 0 0 1 1h9a1 1 0 0 0 1-1v-3h10v3a1 1 0 0 0 1 1h9a1 1 0 0 0 1-1v-3h1c1.103 0 2-.897 2-2v-8c0-1.103-.897-2-2-2h-1v-2h1.082a1.92 1.92 0 0 0 1.918-1.917v-8.083c0-1.103-.897-2-2-2h-1v-2z" fill="#7aa116" fill-rule="evenodd"/></svg>