<svg viewBox="0 0 24 24" xmlns="http://www.w3.org/2000/svg" fill="#7408FF"><path d="m16.696 15.272v-.752c.4.548 1.107.917 1.934.917 1.475 0 2.28-.956 2.28-2.865 0-1.714-.893-2.858-2.235-2.858-.851 0-1.55.347-1.979.908v-2.06h-2.674v6.71zm1.57-2.614c0 .827-.337 1.275-.827 1.275-.486 0-.837-.452-.837-1.275s.342-1.28.837-1.28.828.452.828 1.28zm-11.326-2.67v3.6c0 1.236.754 1.841 1.955 1.841.959 0 1.625-.396 2.028-1.064v.91h2.597v-5.286h-2.675v3.14c0 .493-.346.693-.666.693-.321 0-.568-.192-.568-.655v-3.178zm14.39 0h2.67v5.276h-2.67zm-14.777 1.148c0 .781-.635 1.415-1.42 1.415-.783 0-1.419-.634-1.419-1.415 0-.782.636-1.415 1.42-1.415s1.42.633 1.42 1.415zm-3.063-1.434v2.668c.005.653.327.924.976.924.225 0 .526-.053.672-.166v1.931c-.49.243-.869.378-1.535.378 0 0-.069 0-.18-.006l-.003.006c-1.614 0-2.51-1.035-2.482-2.686v-.47h-.938v-2.291h.92v-1.427h2.569z"/></svg>