<svg xmlns="http://www.w3.org/2000/svg" viewBox="0 0 128 128">
  <defs>
    <mask id="wko">
      <rect width="128" height="128" fill="white"/>
      <path fill="black" d="M106.814 33.434c-.353.009-.776.162-1.289.49-2.808 2.73-2.82 2.835-4.304 11.709l-.002.002c-1.636 4.613-4.874 8.258-11.108 7.607l-.1.074c1.522-1.49 2.163-3.282-1.298-4.681-4.407-.9-6.273 4.137-8.606 11.709-1.386 6.679-4.083 14.802-8.806 12.012-8.314-2.798-4.941-1.903-8.907-2.102-7.424.5-13.444 6.23-23.119 1-7.168-5.252-9.578-6.579-18.132-8.707-.026-.007-.064-.01-.092-.016l.113-.787-15.111-5.303s-8.807-3.501-3.604 2.202c0 0 7.207 5.903 15.813 11.007l-.498-1.35a22 22 0 0 0 2.086 1.98q-.316.025-.643.07l.006.002c-.59.589-4.063 3.718-5.957 7.207-1.922 3.542-2.345 7.222-.1 12.109 1.76 4.621 6.793 5.15 12.713 6.906 2.517-.42 4.356 1.15 6.606-1.4 1.833-2.034 3.178-1.425 1.5-5.205-3.524-5.623-4.31-9.26-1.12-12.412-.068-.177-.142-.336-.214-.5.68.563 1.374 1.05 2.134 1.4 4.922 1.22 8.051 3.802 13.71 4.004a17 17 0 0 1 .92-.4c-2.556 2.624-2.885 6.54-2.335 9.316h.002c.36 3.744 5.3 5.739 13.01 7.006 5.818-.396 10.812 2.292 14.613-3.402.686-4.244-.291-10.507-3.505-13.112-.047-.04-.1-.08-.149-.119q.784.194 1.56.41c3.35.073 5.402-1.667 7.868-6.084-.994 2.315-2.021 4.534-3.672 4.979l.103.004c-.62 5.03 1.558 12.587 7.405 12.609q.47.047.916.08c3.241.795 5.103.403 6.99-.687 1.638-.607 2.759-1.523 3.662-2.561.159-.116.295-.219.461-.338a4.8 4.8 0 0 0 1.12-1.805l.062-.093q.075-.282.13-.565c.728-3.2-.945-7.593-3.95-10.443-1.65-2-3.548-3.814-5.19-5.307-.71-.632-1.172-.998-1.62-1.217 7.221 1.46 9.483-1.698 11.632-3.378 2.22-2.084 2.967-5.373 8.007-5.807 7.77-.118 10.056-.75 11.008-3.504 4.554-1.555 5.905 1.038 9.307-4.703.902-1.347.38-2.69-3.002-5.703-1.338-1.58-5.44-1.084-6.104-2.203-12.487 7.918-6.754-12.107-10.92-12M84.84 65.008c-.294 1.57-.652 3.195-1.233 4.846.665.218 1.292.4 1.893.556-.332-.025-.712-.04-1.195-.062-.617.222-1.145.696-1.618 1.328.24-.509.467-.974.721-1.526.573-1.768 1.022-3.494 1.432-5.142"/>
    </mask>
  </defs>
  <g fill="currentColor" mask="url(#wko)">
    <path fill="currentColor" d="M30.87 44.532c4.903-5.005 11.512-8.007 21.519-9.108 9.508.1 13.911-.4 24.82 5.904 2.903 2.202 9.41 4.804 7.509 9.31-3.003 5.904-3.104 5.504-4.606 10.906-1.501 5.406-.3 4.903-2.1 7.406-3.204 3.402-.9 3.203-5.006 5.005-6.304-2.602-5.104-2.101-8.605-2.602-6.004-.5-6.004-.702-13.512 2.901-5.005.801-1.101 1.202-6.205.6-12.225-6.006-9.024-7.91-15.233-9.411-6.205-1.501-7.405-.198-8.007-3.002.202-5.604 5.207-13.511 9.409-17.915z"/>
    <path fill="currentColor" fill-opacity=".807" d="M38.88 80.26c-1.553 2.054-1.4 2.321-1 5.104 1.101 2.608.706 3.654 5.203 4.202 5.198-1.578 5.255-4.705 5.303-7.006-5.77-.2-8.51-2.783-9.508-2.302z"/>
  </g>
  <path fill="currentColor" d="M119.75 29.32a5.405 8.605 0 0 0-3.62 2.24 5.405 8.605 0 0 0-2.685-1.138 5.405 8.605 0 0 0-5.404 8.605 5.405 8.605 0 0 0 5.404 8.606 5.405 8.605 0 0 0 3.631-2.233 5.405 8.605 0 0 0 2.674 1.131 5.405 8.605 0 0 0 5.406-8.605 5.405 8.605 0 0 0-5.406-8.606"/>
</svg>