<svg viewBox="0 0 24 24" xmlns="http://www.w3.org/2000/svg"><path d="m5.033 14.649h-4.29a.74.74 0 0 1 -.686-.458.74.74 0 0 1 .16-.808l2.973-2.973h-2.13a1.06 1.06 0 0 1 -1.06-1.06h3.957c.301 0 .57.18.686.458a.74.74 0 0 1 -.161.808l-2.972 2.974h2.464c.585 0 1.06.475 1.06 1.06zm18.967-3.311c0-1.14-.927-2.066-2.066-2.066-.61 0-1.158.265-1.537.686a2.061 2.061 0 0 0 -1.536-.686c-1.14 0-2.066.926-2.066 2.066v3.311a1.06 1.06 0 0 0 1.06-1.06v-2.251a1.004 1.004 0 0 1 2.013 0v2.251c0 .586.474 1.06 1.06 1.06v-3.311a1.004 1.004 0 0 1 2.012 0v2.251c0 .586.475 1.06 1.06 1.06zm-7.735.662a2.728 2.728 0 1 1 -5.457 0 2.728 2.728 0 0 1 5.457 0zm-1.06 0a1.669 1.669 0 1 0 -3.338 0 1.669 1.669 0 0 0 3.338 0zm-4.82 0a2.728 2.728 0 1 1 -5.458 0 2.728 2.728 0 0 1 5.457 0zm-1.06 0a1.669 1.669 0 1 0 -3.338 0 1.669 1.669 0 0 0 3.338 0z"/></svg>