<svg viewBox="0 0 24 24" xmlns="http://www.w3.org/2000/svg" fill="#FF4B4B"><path d="m20.53 8.118h3.47v13.258h-3.47zm-15.033-2.024a2.03 2.03 0 0 1 2.027 2.026h3.47a5.503 5.503 0 0 0 -5.497-5.497 5.503 5.503 0 0 0 -5.497 5.498h3.47a2.03 2.03 0 0 1 2.027-2.027zm2.027 15.285 3.47-.002v-13.257h-3.47v13.258zm8.952-.005v-3.468h-3.47l-2.013.001v3.47zm0-13.256a2.03 2.03 0 0 1 2.027-2.027v-3.471a5.503 5.503 0 0 0 -5.497 5.497v9.788h3.47zm4.055 0h3.469a5.503 5.503 0 0 0 -5.497-5.497v3.47a2.03 2.03 0 0 1 2.027 2.027zm-20.531 13.26h3.47v-13.256h-3.47v13.258z"/></svg>