<svg viewBox="0 0 24 24" xmlns="http://www.w3.org/2000/svg"><g fill="#ee7624"><path d="m23 23h-1.223v-14.972c0-3.118-2.568-5.806-5.744-5.806h-8.006c-3.176 0-5.744 2.565-5.744 5.686 0 3.119 2.568 5.684 5.744 5.684h.794c1.346 0 2.445 1.1 2.445 2.444 0 1.346-1.1 2.446-2.445 2.446h-7.821v-1.223h7.761c.671 0 1.223-.551 1.223-1.16 0-.67-.552-1.16-1.223-1.16h-.794c-3.79-.067-6.967-3.183-6.967-7.03 0-3.851 3.176-6.909 7.027-6.909h8.066c3.787 0 6.907 3.239 6.907 7.028z"/><path d="m8.884 12.672c1.71.06 3.361 1.588 3.361 3.422 0 1.833-1.528 3.421-3.421 3.421h-7.824v1.223h7.761c2.568 0 4.705-2.077 4.705-4.644 0-.672-.123-1.283-.43-1.894-.245-.551-.67-1.1-1.099-1.528-.489-.429-1.039-.734-1.65-.977-.525-.175-1.048-.193-1.594-.212-.218-.008-.441-.016-.669-.034-.428 0-1.406-.245-1.956-.61a3.37 3.37 0 0 1 -1.223-1.406c-.183-.489-.305-.977-.305-1.528a3.417 3.417 0 0 1 3.42-3.423h8.066c1.895 0 3.422 1.65 3.422 3.483v15.032h1.223v-14.97c0-2.568-2.077-4.768-4.645-4.768h-8c-2.568 0-4.705 2.077-4.705 4.646 0 .67.123 1.282.43 1.894a4.45 4.45 0 0 0 1.099 1.528c.429.428 1.039.734 1.588.976.306.123.611.183.976.246.857.06 1.406.123 1.466.123h.003z"/><path d="m1 23h7.761v-.003c3.85 0 7.03-3.116 7.09-7.026 0-3.79-3.117-6.906-6.967-6.906h-.794c-.672 0-1.222-.552-1.222-1.16s.487-1.16 1.159-1.16h8.069c.608 0 1.159.611 1.159 1.283v14.97h1.223v-14.974c0-1.345-1.1-2.505-2.445-2.505h-8.066a2.45 2.45 0 0 0 -2.445 2.445 2.45 2.45 0 0 0 2.445 2.445h.794c3.176 0 5.744 2.568 5.744 5.684s-2.568 5.684-5.744 5.684h-7.761z"/></g></svg>