<svg height="64" viewBox="0 0 64 64" width="64" xmlns="http://www.w3.org/2000/svg"><g fill="none" fill-rule="evenodd"><path d="m0 0h64v64h-64z" fill="#7aa116"/><path d="m19.5 16c1.379 0 2.5 1.122 2.5 2.5s-1.121 2.5-2.5 2.5a2.503 2.503 0 0 1 -2.5-2.5c0-1.378 1.121-2.5 2.5-2.5m0 7c.829 0 1.598-.241 2.266-.634l17.887 18.634h-1.653v2h4a1 1 0 0 0 1-1v-4h-2v1.514l-17.766-18.506c.483-.717.766-1.58.766-2.508 0-2.481-2.019-4.5-4.5-4.5a4.505 4.505 0 0 0 -4.5 4.5c0 2.481 2.019 4.5 4.5 4.5m21.5 12h2v-4h-2zm0-6h2v-4h-2zm-10 14h4v-2h-4zm-6 0h4v-2h-4zm-12-1.5c0-1.378 1.121-2.5 2.5-2.5s2.5 1.122 2.5 2.5-1.121 2.5-2.5 2.5a2.503 2.503 0 0 1 -2.5-2.5m28.5-23.5a2.503 2.503 0 0 1 -2.5-2.5c0-1.378 1.121-2.5 2.5-2.5s2.5 1.122 2.5 2.5-1.121 2.5-2.5 2.5m4.293-1.225c.122-.407.207-.829.207-1.275 0-2.481-2.019-4.5-4.5-4.5a4.505 4.505 0 0 0 -4.5 4.5c0 2.31 1.756 4.197 4 4.449v2.051h2v-2.276a4.5 4.5 0 0 0 1.789-1.175c3.907 3.496 6.211 8.619 6.211 13.938 0 10.208-8.362 18.513-18.642 18.513-5.313 0-10.281-2.25-13.809-6.211a4.5 4.5 0 0 0 1.175-1.789h2.276v-2h-2.051c-.252-2.244-2.138-4-4.449-4a4.505 4.505 0 0 0 -4.5 4.5c0 2.481 2.019 4.5 4.5 4.5.446 0 .869-.085 1.275-.207 3.923 4.588 9.55 7.207 15.583 7.207 11.382 0 20.642-9.202 20.642-20.513 0-6.031-2.682-11.836-7.207-15.712" fill="#fff"/></g></svg>