<svg xmlns="http://www.w3.org/2000/svg" xmlns:xlink="http://www.w3.org/1999/xlink" width="18" height="18" viewBox="0 0 18 18">
  <defs>
    <mask id="wko">
      <rect width="18" height="18" fill="white"/>
      <path fill="black" d="M2.94 8.67H15.1a.7.7 0 0 1 .45.17l-13.06 9a.7.7 0 0 1-.25-.52v-8a.72.72 0 0 1 .7-.65" opacity=".2"/>
    </mask>
  </defs>
  <g fill="currentColor" mask="url(#wko)">
    <path fill="currentColor" d="M15.06 8.67h-1V5.59a5.8 5.8 0 0 0-1.49-3.92A4.79 4.79 0 0 0 8.91 0a4.79 4.79 0 0 0-3.7 1.67 5.73 5.73 0 0 0-1.49 3.92v3.08h-.81a.7.7 0 0 0-.69.69v8a.7.7 0 0 0 .69.69h12.15a.71.71 0 0 0 .7-.69v-8a.71.71 0 0 0-.7-.69m-3.37 0H6.13V5.54A3.18 3.18 0 0 1 7 3.39a2.5 2.5 0 0 1 1.88-.86 2.54 2.54 0 0 1 1.89.86 3 3 0 0 1 .32.43 3 3 0 0 1 .61 1.71z"/>
    <path fill="currentColor" d="M15.09 8.67H2.92a.66.66 0 0 0-.44.17l13.05 9a.67.67 0 0 0 .25-.52v-8a.71.71 0 0 0-.69-.65"/>
  </g>
  <path fill="currentColor" d="M11.42 16.4 5.2 13.3l6.22-3.07.28.58-5.05 2.49 5.05 2.53z"/>
  <circle cx="5.94" cy="13.32" r="1.25" fill="currentColor"/>
  <circle cx="11.51" cy="10.64" r="1.25" fill="currentColor"/>
  <circle cx="11.51" cy="16.11" r="1.25" fill="currentColor"/>
</svg>