<svg height="18" viewBox="0 0 18 18" width="18" xmlns="http://www.w3.org/2000/svg" xmlns:xlink="http://www.w3.org/1999/xlink"><linearGradient id="a" gradientUnits="userSpaceOnUse" x1="8.59" x2="9.12" y1="-7.79" y2="20.05"><stop offset=".22" stop-color="#32d4f5"/><stop offset="1" stop-color="#198ab3"/></linearGradient><linearGradient id="b"><stop offset="0" stop-color="#ccc"/><stop offset="1" stop-color="#fcfcfc"/></linearGradient><linearGradient id="c" gradientUnits="userSpaceOnUse" x1="6.16" x2="5.73" xlink:href="#b" y1="14.55" y2="12.09"/><linearGradient id="d" gradientUnits="userSpaceOnUse" x1="11.73" x2="11.3" xlink:href="#b" y1="11.87" y2="9.41"/><linearGradient id="e" gradientUnits="userSpaceOnUse" x1="11.73" x2="11.3" xlink:href="#b" y1="17.34" y2="14.88"/><path d="m15.06 8.67h-1v-3.08a5.8 5.8 0 0 0 -1.49-3.92 4.79 4.79 0 0 0 -3.66-1.67 4.79 4.79 0 0 0 -3.7 1.67 5.73 5.73 0 0 0 -1.49 3.92v3.08h-.81a.7.7 0 0 0 -.69.69v8a.7.7 0 0 0 .69.69h12.15a.71.71 0 0 0 .7-.69v-8a.71.71 0 0 0 -.7-.69m-3.37 0h-5.56v-3.13a3.18 3.18 0 0 1 .87-2.15 2.5 2.5 0 0 1 1.88-.86 2.54 2.54 0 0 1 1.89.86 3 3 0 0 1 .32.43 3 3 0 0 1 .61 1.71z" fill="url(#a)"/><path d="m15.09 8.67h-12.17a.66.66 0 0 0 -.44.17l13.05 9a.67.67 0 0 0 .25-.52v-8a.71.71 0 0 0 -.69-.65" fill="#50e6ff"/><path d="m2.94 8.67h12.16a.7.7 0 0 1 .45.17l-13.06 9a.7.7 0 0 1 -.25-.52v-8a.72.72 0 0 1 .7-.65" fill="#fff" opacity=".2"/><path d="m11.42 16.4-6.22-3.1 6.22-3.07.28.58-5.05 2.49 5.05 2.53z" fill="#198ab3"/><circle cx="5.94" cy="13.32" fill="url(#c)" r="1.25"/><circle cx="11.51" cy="10.64" fill="url(#d)" r="1.25"/><circle cx="11.51" cy="16.11" fill="url(#e)" r="1.25"/></svg>