<svg xmlns="http://www.w3.org/2000/svg" fill="currentColor" fill-rule="evenodd" viewBox="0 0 24 24"><title>Firefly (Adobe)</title><path d="M20.098 22.227c.216 0 .39.173.39.387a.39.39 0 0 1-.39.386.39.39 0 0 1-.39-.386c0-.214.175-.387.39-.387M5.367 9.53a.66.66 0 0 1 .497.226.63.63 0 0 1 .71.226.56.56 0 0 1 .73.334.504.504 0 0 1 .749.352.46.46 0 0 1 .511.302.42.42 0 0 1 .416-.363c.23 0 .418.185.418.414a.416.416 0 0 1-.418.414.42.42 0 0 1-.393-.271.46.46 0 0 1-.458.41.46.46 0 0 1-.447-.348.51.51 0 0 1-.584-.279.56.56 0 0 1-.72-.064.63.63 0 0 1-.762-.104.66.66 0 0 1-.444.02.7.7 0 0 1 .164.125.63.63 0 0 1 .72.196.56.56 0 0 1 .717.262.518.518 0 0 1 .815.243.46.46 0 0 1 .559.221.42.42 0 0 1 .414-.356c.231 0 .419.186.419.414a.42.42 0 0 1-.784.202.45.45 0 0 1-.166.303.42.42 0 0 1 .587.379.4.4 0 0 1-.085.25.364.364 0 0 1 .56.302.36.36 0 0 1-.363.359.36.36 0 0 1-.363-.36q.001-.118.069-.21a.42.42 0 0 1-.655-.341c0-.128.058-.241.15-.317a.463.463 0 0 1-.612-.23.52.52 0 0 1-.668-.205.56.56 0 0 1-.757-.004.63.63 0 0 1-.743-.06.67.67 0 0 1-.415.06 1 1 0 0 1 .085.073.6.6 0 0 1 .706.126.56.56 0 0 1 .788.133.517.517 0 0 1 .795.24.463.463 0 0 1 .643.418.45.45 0 0 1-.08.257.416.416 0 0 1 .509.58.364.364 0 0 1 .548.309.36.36 0 0 1-.363.359.36.36 0 0 1-.33-.509.42.42 0 0 1-.647-.347q.002-.124.066-.223a.463.463 0 0 1-.579-.23.52.52 0 0 1-.656-.124.56.56 0 0 1-.74-.009.6.6 0 0 1-.53.129q.079.054.14.13a.6.6 0 0 1 .815.034.518.518 0 0 1 .766.201.462.462 0 0 1 .663.41.5.5 0 0 1-.021.136.444.444 0 0 1 .53.565.364.364 0 0 1 .55.306.36.36 0 0 1-.362.359.36.36 0 0 1-.353-.442.447.447 0 0 1-.689-.484.46.46 0 0 1-.509-.203.52.52 0 0 1-.575-.014.6.6 0 0 1-.122.095c.18.008.337.11.422.256a.461.461 0 0 1 .717.501.416.416 0 0 1 .52.46.364.364 0 0 1 .561.3.36.36 0 0 1-.363.359.36.36 0 0 1-.361-.387.42.42 0 0 1-.658-.435.46.46 0 0 1-.513-.17.517.517 0 0 1-.728-.026 1 1 0 0 1-.053.075.62.62 0 0 1 .386.326.503.503 0 0 1 .867.332v.014a.43.43 0 0 1 .502.422.43.43 0 0 1-.432.429.43.43 0 0 1-.43-.38.51.51 0 0 1-.563-.206.62.62 0 0 1-.464.253h-.006q.047.045.084.097a.503.503 0 0 1 .863.346.503.503 0 0 1-.863.346.6.6 0 0 1-.333.237.603.603 0 0 1-.063.977.57.57 0 0 1 .683.695.574.574 0 0 1 .854.472v.01l.004-.01a.57.57 0 0 1 .52-.38.5.5 0 0 1-.105-.304.5.5 0 0 1 .503-.497.5.5 0 0 1 .502.497.5.5 0 0 1-.451.494.56.56 0 0 1 .005.745.6.6 0 0 1 .08.728.74.74 0 0 1 .248.263.7.7 0 0 1 .07-.106.563.563 0 0 1-.058-.86.53.53 0 0 1-.173-.395c0-.28.216-.51.493-.536a.492.492 0 0 1 .076-.735.43.43 0 0 1-.318-.413.43.43 0 0 1 .432-.427.43.43 0 0 1 .433.427c0 .131-.06.249-.154.327a.5.5 0 0 1 .405.488.5.5 0 0 1-.435.492.533.533 0 0 1 .009.745.56.56 0 0 1 .126.717.66.66 0 0 1 .352.66l.007.004a.59.59 0 0 1 .152-.463.54.54 0 0 1-.379-.513c0-.142.056-.271.147-.367a.508.508 0 0 1 .3-.916.453.453 0 0 1 0-.746H9.19a.43.43 0 0 1-.433-.428.43.43 0 0 1 .433-.427.426.426 0 0 1 .255.774l.024-.002a.456.456 0 0 1 .03.91.51.51 0 0 1 .112.76.536.536 0 0 1 .116.777.595.595 0 0 1 .45.646.69.69 0 0 1 .422.634c0 .381-.312.69-.698.69a.7.7 0 0 1-.641-.42.77.77 0 0 1-.712.475.77.77 0 0 1-.6-.286.8.8 0 0 1-.655.341.8.8 0 0 1-.663-.35.83.83 0 0 1-.677.35.83.83 0 0 1-.655-.322.83.83 0 0 1-.656.322.82.82 0 0 1-.75-.477.84.84 0 0 1-.547.201.833.833 0 0 1-.836-.78.833.833 0 0 1-.95-.82c0-.163.048-.315.13-.443A.72.72 0 0 1 1 19.936c0-.298.183-.553.444-.662a.717.717 0 0 1 .388-1.351.69.69 0 0 1-.246-.527.694.694 0 0 1 .749-.688.69.69 0 0 1-.247-.526.694.694 0 0 1 .745-.689.69.69 0 0 1-.215-.498.694.694 0 0 1 .86-.671.66.66 0 0 1 .413-1.23.67.67 0 0 1-.24-.514.68.68 0 0 1 .804-.666.66.66 0 0 1-.274-.535.666.666 0 0 1 .87-.633.647.647 0 0 1 .316-1.217zm13.63 12.588c.207 0 .376.167.376.372a.375.375 0 0 1-.377.373.375.375 0 0 1-.376-.373c0-.205.168-.372.376-.372zm-8.483-3.644c.247 0 .447.198.447.442a.44.44 0 0 1-.38.436.468.468 0 0 1 .077.72.51.51 0 0 1 .264.78.526.526 0 0 1 .428.691c.3.04.531.295.531.602a.61.61 0 0 1-.613.608.61.61 0 0 1-.553-.873.526.526 0 0 1-.294-.817.51.51 0 0 1-.437-.505c0-.148.064-.282.167-.375a.47.47 0 0 1-.306-.44.47.47 0 0 1 .414-.465.44.44 0 0 1 .255-.804m10.645 3.506c.184 0 .334.148.334.33 0 .184-.15.332-.334.332a.333.333 0 0 1-.335-.331c0-.183.15-.331.335-.331M15.732 2.71c.308 0 .558.248.558.552a.555.555 0 0 1-.681.54.54.54 0 0 1-.681.628.541.541 0 0 1-.6.755.53.53 0 0 1 .092.3.54.54 0 0 1-.657.526.504.504 0 0 1-.003.607.55.55 0 0 1 .335-.067.527.527 0 0 1 .59-.738.527.527 0 0 1 .573-.748.527.527 0 0 1 .635-.63.51.51 0 0 1 .508-.593c.285 0 .517.229.517.51a.513.513 0 0 1-.623.5.527.527 0 0 1-.62.61.527.527 0 0 1-.627.632.5.5 0 0 1 .056.232.527.527 0 0 1-.586.522.5.5 0 0 1 .056.227.545.545 0 0 1 .554-.244.54.54 0 0 1 .591-.693.513.513 0 0 1 1.212-1.054c.286 0 .517.229.517.511a.513.513 0 0 1-.698.478v.019a.513.513 0 0 1-.563.508.537.537 0 0 1-.539.61 1 1 0 0 1-.094-.008.54.54 0 0 1-.51.698h-.005l.003.016a.5.5 0 0 1 .005.114.55.55 0 0 1 .509-.208.536.536 0 0 1 .538-.612q.066 0 .126.014a.513.513 0 0 1 .699-.478.514.514 0 0 1 .515-.475c.285 0 .516.229.516.51a.513.513 0 0 1-.699.479.514.514 0 0 1-.613.465v.023a.54.54 0 0 1-.618.533.54.54 0 0 1-.302.559.6.6 0 0 1 .253-.025.556.556 0 0 1 .78-.455.514.514 0 0 1 .705-.452.49.49 0 0 1 .48-.395c.27 0 .488.217.488.483a.486.486 0 0 1-.646.458.514.514 0 0 1-.693.407v.005a.555.555 0 0 1-.615.55.56.56 0 0 1-.246.426.56.56 0 0 1 .278.016.528.528 0 0 1 .756-.416.487.487 0 0 1 .753-.33.49.49 0 0 1 .483-.412c.27 0 .488.217.488.483a.49.49 0 0 1-.759.402.487.487 0 0 1-.666.377.528.528 0 0 1-.669.459.556.556 0 0 1-.64.51.6.6 0 0 1-.157.392h.003a.6.6 0 0 1 .132.016.542.542 0 0 1 .752-.415.5.5 0 0 1 .763-.354.5.5 0 0 1 .791-.278.47.47 0 0 1 .45-.322c.262 0 .475.21.475.47a.476.476 0 0 1-.745.386.502.502 0 0 1-.749.284.5.5 0 0 1-.656.35.542.542 0 0 1-.675.482.53.53 0 0 1-.146.293.6.6 0 0 1 .204.052.516.516 0 0 1 .764-.281.49.49 0 0 1 .795-.295.474.474 0 0 1 .805-.18.474.474 0 0 1 .458-.346c.262 0 .475.21.475.469a.475.475 0 0 1-.825.316.474.474 0 0 1-.756.243.488.488 0 0 1-.71.29.514.514 0 0 1-.678.422.58.58 0 0 1-.195.33h.01a.56.56 0 0 1 .32.1.487.487 0 0 1 .75-.292.49.49 0 0 1 .845-.223.46.46 0 0 1 .854-.078.445.445 0 0 1 .44-.363c.247 0 .447.198.447.442s-.2.442-.447.442a.45.45 0 0 1-.397-.24.461.461 0 0 1-.79.234.487.487 0 0 1-.747.28.487.487 0 0 1-.721.325.556.556 0 0 1-.553.477q.038.05.064.109a.517.517 0 0 1 .712-.132.488.488 0 0 1 .783-.22.46.46 0 0 1 .848-.057.445.445 0 0 1 .439-.362c.193 0 .358.121.42.292a.445.445 0 0 1 .445-.403c.246 0 .446.198.446.442s-.2.442-.446.442a.45.45 0 0 1-.42-.293.447.447 0 0 1-.842.163.46.46 0 0 1-.74.28.488.488 0 0 1-.723.275.516.516 0 0 1-.603.364.58.58 0 0 1-.312.61.5.5 0 0 1 .326.018.472.472 0 0 1 .44-.644c.149 0 .282.067.369.174a.447.447 0 0 1 .836-.13.445.445 0 0 1 .441-.376c.196 0 .363.125.423.3a.445.445 0 0 1 .442-.383c.244 0 .442.193.446.433v.006-.007a.416.416 0 0 1 .419-.404c.231 0 .418.185.418.414a.416.416 0 0 1-.418.414.417.417 0 0 1-.418-.397v-.016.009a.444.444 0 0 1-.447.432.45.45 0 0 1-.423-.3.447.447 0 0 1-.838.145.447.447 0 0 1-.78.22.473.473 0 0 1-.647.37.48.48 0 0 1-.208.605.48.48 0 0 1 .374.045.444.444 0 0 1 .43-.561c.17 0 .317.094.392.232a.445.445 0 0 1 .444-.397c.193 0 .358.12.42.29l.003.009.002-.009a.42.42 0 0 1 .412-.346c.232 0 .419.186.419.414a.416.416 0 0 1-.419.414.42.42 0 0 1-.394-.274.447.447 0 0 1-.836.153.445.445 0 0 1-.66.342.472.472 0 0 1-.453.607.48.48 0 0 1-.394-.208.5.5 0 0 1-.142.21.474.474 0 0 1 .49.338.43.43 0 0 1 .704-.237.43.43 0 0 1 .416-.545c.187 0 .345.118.406.281a.43.43 0 0 1 .431-.39.43.43 0 0 1 .432.427.43.43 0 0 1-.432.428.43.43 0 0 1-.406-.28.434.434 0 0 1-.712.288.43.43 0 0 1-.416.545.43.43 0 0 1-.413-.3.47.47 0 0 1-.164.274.46.46 0 0 1 .507.453.461.461 0 0 1-.758.347.5.5 0 0 1-.057.177.55.55 0 0 1 .289.17.43.43 0 0 1 .4-.266.43.43 0 0 1 .433.428.434.434 0 0 1-.714.325.5.5 0 0 1-.061.144.5.5 0 0 1 .275.3.39.39 0 0 1 .388-.341c.216 0 .39.173.39.386a.39.39 0 0 1-.39.387.39.39 0 0 1-.364-.246.5.5 0 0 1-.087.251.486.486 0 0 1 .529.655.42.42 0 0 1 .564.388.416.416 0 0 1-.419.415.416.416 0 0 1-.399-.54.49.49 0 0 1-.689-.44q.002-.152.083-.27a.5.5 0 0 1-.53-.715.54.54 0 0 1-.301-.754.54.54 0 0 1-.354-.788.58.58 0 0 1-.383-.708.58.58 0 0 1-.265-.844.54.54 0 0 1-.39-.785.54.54 0 0 1-.33-.78.54.54 0 0 1-.308-.773.54.54 0 0 1-.307-.773.54.54 0 0 1-.31-.768.54.54 0 0 1-.248-.75.54.54 0 0 1-.25-.856.54.54 0 0 1-.27-.83.416.416 0 0 1-.385-.413.42.42 0 0 1 .777-.214.54.54 0 0 1 .152-.192l.01-.008a.47.47 0 0 1-.439-.316l-.003-.009v.006a.39.39 0 0 1-.385.319.39.39 0 0 1-.39-.387.39.39 0 0 1 .756-.136.46.46 0 0 1 .092-.229 1 1 0 0 1-.011-.08.47.47 0 0 1-.42-.466.47.47 0 0 1 .146-.338.448.448 0 0 1-.62-.407c0-.244.2-.442.447-.442.246 0 .446.198.446.442a.44.44 0 0 1-.133.315.48.48 0 0 1 .291-.028.53.53 0 0 1 .06-.538.513.513 0 0 1-.529-.701.475.475 0 0 1-.847-.29c0-.26.213-.47.475-.47a.472.472 0 0 1 .44.642.52.52 0 0 1 .665-.133.54.54 0 0 1 .108-.27.518.518 0 0 1-.767-.445.513.513 0 0 1 .614-.502.53.53 0 0 1-.112-.326.54.54 0 0 1 .65-.528.53.53 0 0 1-.092-.3.54.54 0 0 1 .693-.519.541.541 0 0 1 .605-.754.555.555 0 0 1 .544-.674M11.63 19.936a.472.472 0 0 1 .403.718h.016c.25 0 .455.191.473.434a.54.54 0 0 1 .462.532.54.54 0 0 1-.545.538.54.54 0 0 1-.541-.59.47.47 0 0 1-.251-.694h-.017a.47.47 0 0 1-.474-.469c0-.259.212-.469.474-.469m7.66 1.463c.184 0 .334.148.334.331s-.15.331-.335.331a.333.333 0 0 1-.335-.33c0-.184.15-.332.335-.332zm1.506-.11c.185 0 .335.148.335.33 0 .184-.15.332-.335.332a.333.333 0 0 1-.335-.331c0-.183.15-.331.335-.331m1.27-.249c.192 0 .348.155.348.345s-.156.345-.349.345a.347.347 0 0 1-.348-.345c0-.19.156-.345.348-.345zm-2.024.028c.185 0 .335.148.335.331s-.15.331-.335.331a.333.333 0 0 1-.334-.331c0-.183.15-.331.334-.331m-1.506-.166c.216 0 .39.173.39.387a.39.39 0 0 1-.39.386.39.39 0 0 1-.39-.386c0-.214.174-.387.39-.387m2.943-.359c.193 0 .35.155.35.345s-.157.345-.35.345a.347.347 0 0 1-.348-.345c0-.19.156-.345.348-.345m-15.133.17a.6.6 0 0 1-.08.204.8.8 0 0 1 .175.192 1 1 0 0 1 .076-.1.6.6 0 0 1-.171-.296m12.748-.39c.216 0 .39.172.39.386a.39.39 0 0 1-.39.386.39.39 0 0 1-.39-.386c0-.214.174-.387.39-.387zm-6.64-1.243c.207 0 .376.167.376.373a.37.37 0 0 1-.14.29.39.39 0 0 1 .374.5.434.434 0 0 1 .673.355.43.43 0 0 1-.433.428.43.43 0 0 1-.408-.568.392.392 0 0 1-.596-.329c0-.123.058-.233.149-.303a.375.375 0 0 1-.372-.373c0-.206.168-.373.376-.373zm-7.321 1.456-.002.002a.7.7 0 0 1-.183.188c.13.064.236.168.302.296l.026-.03a.6.6 0 0 1-.143-.456m15.593-.241c.193 0 .349.154.349.345s-.156.345-.349.345a.347.347 0 0 1-.349-.345c0-.19.156-.345.35-.345zm-.767-.138c.216 0 .39.173.39.386a.39.39 0 0 1-.39.387.39.39 0 0 1-.39-.387c0-.213.174-.386.39-.386m1.98-.58a.36.36 0 0 1 .361.399.391.391 0 0 1 .7.236.39.39 0 0 1-.39.386.39.39 0 0 1-.388-.437.363.363 0 0 1-.645-.225.36.36 0 0 1 .363-.359zm-15.554.216a.57.57 0 0 1-.27.322.6.6 0 0 1 .225.341.6.6 0 0 1 .171-.317.56.56 0 0 1-.126-.329zm12.15-.299c.217 0 .391.173.391.387a.39.39 0 0 1-.39.386.39.39 0 0 1-.39-.386c0-.214.174-.387.39-.387zM4.544 19.32v.001a.7.7 0 0 1-.017.175h.031a.68.68 0 0 1 .678.762.6.6 0 0 1 .239-.204.56.56 0 0 1-.187-.578.574.574 0 0 1-.744-.156m16.56.01c.215 0 .39.173.39.386a.39.39 0 0 1-.39.387.39.39 0 0 1-.39-.387c0-.213.174-.386.39-.386m-.893-.11c.216 0 .39.172.39.386a.39.39 0 0 1-.39.386.39.39 0 0 1-.39-.386c0-.214.174-.387.39-.387zm-.92-.056c.215 0 .39.173.39.387a.39.39 0 0 1-.39.386.39.39 0 0 1-.391-.386c0-.214.174-.387.39-.387zm-7.827-.11c.246 0 .446.197.446.441s-.2.442-.446.442a.444.444 0 0 1-.447-.442c0-.244.2-.441.447-.441m2.148.055a.32.32 0 0 1 .321.317.32.32 0 0 1-.32.318.32.32 0 0 1-.322-.318.32.32 0 0 1 .321-.317m5.274-.883c.223 0 .404.179.404.4a.405.405 0 0 1-.708.265.43.43 0 0 1-.422.522.43.43 0 0 1-.432-.428.433.433 0 0 1 .762-.277.402.402 0 0 1 .396-.482m3.683.303c.208 0 .376.167.376.373a.375.375 0 0 1-.376.373.375.375 0 0 1-.377-.373c0-.206.169-.373.377-.373m-16.24-.359a.5.5 0 0 1 .502.497.5.5 0 0 1-.502.497.5.5 0 0 1-.502-.497.5.5 0 0 1 .502-.497m6.543.332a.32.32 0 0 1 .32.317.32.32 0 0 1-.32.318.32.32 0 0 1-.321-.318.32.32 0 0 1 .32-.317zm8.747-.166c.208 0 .377.167.377.373a.375.375 0 0 1-.377.372.375.375 0 0 1-.377-.372c0-.206.169-.373.377-.373m-9.793-.11c.215 0 .39.173.39.386a.39.39 0 0 1-.39.386.39.39 0 0 1-.391-.386c0-.213.175-.386.39-.386zm-7.61.21a.7.7 0 0 1-.181.254.68.68 0 0 1 .397.283.56.56 0 0 1 .257-.461.62.62 0 0 1-.473-.077zm16.454-.21c.208 0 .377.166.377.372a.375.375 0 0 1-.377.373.375.375 0 0 1-.376-.373c0-.206.168-.372.376-.372m-.92-.056c.223 0 .404.18.404.4 0 .222-.181.4-.404.4a.4.4 0 0 1-.405-.4c0-.22.181-.4.405-.4m-3.046.392-.001.006a.6.6 0 0 1-.074.164q.109.043.188.124a.45.45 0 0 1 .152-.247.5.5 0 0 1-.265-.047m-3.218-.364c.17 0 .307.136.307.304a.305.305 0 0 1-.307.303.305.305 0 0 1-.307-.303c0-.168.137-.304.307-.304m-3.32-.497c.223 0 .404.18.404.4s-.181.4-.404.4a.4.4 0 0 1-.405-.4c0-.22.181-.4.405-.4m.99.028c.216 0 .39.173.39.386a.39.39 0 0 1-.39.387.39.39 0 0 1-.39-.387c0-.213.174-.386.39-.386m1.283-.055c.2 0 .363.16.363.358a.36.36 0 0 1-.363.36.36.36 0 0 1-.362-.36.36.36 0 0 1 .362-.358m-5.175-.138a.43.43 0 0 1 .432.427.43.43 0 0 1-.432.428.43.43 0 0 1-.433-.428.43.43 0 0 1 .433-.427m-1.577-.139a.5.5 0 0 1 .503.497.5.5 0 0 1-.503.497.5.5 0 0 1-.502-.497.5.5 0 0 1 .502-.497m16.406-.11c.224 0 .405.18.405.4s-.181.4-.405.4a.4.4 0 0 1-.404-.4c0-.22.18-.4.404-.4m-8.97.193c.154 0 .279.124.279.276a.28.28 0 0 1-.279.276.28.28 0 0 1-.279-.276c0-.152.125-.276.279-.276m8.022-.276c.223 0 .404.18.404.4 0 .222-.181.4-.404.4a.4.4 0 0 1-.405-.4c0-.22.181-.4.405-.4m-4.761.588a1 1 0 0 1-.018.093.6.6 0 0 1 .118.067.5.5 0 0 1 .1-.144.5.5 0 0 1-.2-.016m3.84-.67c.223 0 .404.179.404.4 0 .22-.18.4-.404.4a.4.4 0 0 1-.405-.4c0-.221.181-.4.405-.4m-8.343 0c.2 0 .363.16.363.358a.36.36 0 0 1-.363.36.36.36 0 0 1-.362-.36.36.36 0 0 1 .362-.359zm-5.259-.277a.43.43 0 0 1 .433.428.43.43 0 0 1-.433.428.43.43 0 0 1-.432-.428.43.43 0 0 1 .432-.428m4.394.083c.2 0 .363.16.363.36a.36.36 0 0 1-.363.358.36.36 0 0 1-.362-.359.36.36 0 0 1 .362-.359m-.948-.027c.2 0 .363.16.363.358a.36.36 0 0 1-.363.36.36.36 0 0 1-.363-.36.36.36 0 0 1 .363-.358m-.893 0c.2 0 .363.16.363.358a.36.36 0 0 1-.363.36.36.36 0 0 1-.363-.36.36.36 0 0 1 .363-.358m-.92-.028c.2 0 .362.16.362.359a.36.36 0 0 1-.363.359.36.36 0 0 1-.362-.36.36.36 0 0 1 .362-.358zm4.31-.028c.154 0 .279.124.279.276a.28.28 0 0 1-.279.276.28.28 0 0 1-.279-.276c0-.152.125-.276.279-.276m-4.98-.524c.2 0 .362.16.362.359a.36.36 0 0 1-.362.359.36.36 0 0 1-.363-.36.36.36 0 0 1 .363-.358m9.126.368-.003.005a.5.5 0 0 1-.062.082.53.53 0 0 1 .337.244.47.47 0 0 1 .2-.222.49.49 0 0 1-.472-.109m-4.871-.285c.154 0 .279.123.279.276a.28.28 0 0 1-.28.276.28.28 0 0 1-.278-.276c0-.153.124-.276.279-.276m9.737-.331c.231 0 .419.185.419.414a.416.416 0 0 1-.419.414.416.416 0 0 1-.418-.414c0-.23.187-.414.418-.414m-.92-.056c.23 0 .418.186.418.414a.416.416 0 0 1-.419.414.416.416 0 0 1-.418-.414c0-.228.187-.414.418-.414zm-11.329.166c.155 0 .28.124.28.276a.28.28 0 0 1-.28.276.28.28 0 0 1-.279-.276c0-.152.125-.276.28-.276zm1.675 0c.154 0 .279.124.279.276a.28.28 0 0 1-.28.276.28.28 0 0 1-.278-.276c0-.152.124-.276.279-.276m-.837 0c.154 0 .279.124.279.276a.28.28 0 0 1-.28.276.28.28 0 0 1-.279-.276c0-.152.125-.276.28-.276m-1.59-.304c.153 0 .278.124.278.276a.28.28 0 0 1-.279.276.28.28 0 0 1-.279-.276c0-.152.125-.276.28-.276m7.833.01v.003a1 1 0 0 1-.022.08q.136.029.235.119a.5.5 0 0 1 .192-.183.6.6 0 0 1-.405-.02zm-7.778-.81c.154 0 .279.123.279.276a.28.28 0 0 1-.28.276.28.28 0 0 1-.278-.276c0-.153.125-.276.279-.276m.335-.773c.154 0 .279.123.279.276a.28.28 0 0 1-.28.276.28.28 0 0 1-.278-.276c0-.153.125-.276.279-.276m-3.903-.083-.05.05c.137.036.255.12.336.23a.5.5 0 0 1 .126-.114.6.6 0 0 1-.412-.166m4.238-.69c.154 0 .279.124.279.276a.28.28 0 0 1-.28.276.28.28 0 0 1-.278-.276c0-.152.124-.276.279-.276m.348-.773c.162 0 .293.13.293.29s-.13.29-.293.29a.29.29 0 0 1-.293-.29c0-.16.132-.29.293-.29m-.558-.58c.2 0 .363.161.363.36a.36.36 0 0 1-.363.358.36.36 0 0 1-.362-.359.36.36 0 0 1 .362-.359m.935-.193c.17 0 .307.136.307.304a.305.305 0 0 1-.307.303.305.305 0 0 1-.307-.303c0-.168.137-.304.307-.304m-.572-.635c.2 0 .363.161.363.36a.36.36 0 0 1-.363.358.36.36 0 0 1-.363-.359.36.36 0 0 1 .363-.359m.893-.138a.32.32 0 0 1 .32.318.32.32 0 0 1-.32.317.32.32 0 0 1-.321-.317.32.32 0 0 1 .32-.318zm-.544-.69c.208 0 .376.167.376.373a.375.375 0 0 1-.376.373.375.375 0 0 1-.377-.373c0-.206.169-.373.377-.373m.879-.083a.32.32 0 0 1 .32.318.32.32 0 0 1-.32.317.32.32 0 0 1-.321-.317.32.32 0 0 1 .32-.318zM5.84 8.343c.217 0 .408.108.52.274a.605.605 0 0 1 .72.313.56.56 0 0 1 .72.326.506.506 0 0 1 .676.444.46.46 0 0 1 .488.258.419.419 0 0 1 .796.179.419.419 0 0 1-.79.191.46.46 0 0 1-.424.278.46.46 0 0 1-.457-.4.51.51 0 0 1-.566-.264.56.56 0 0 1-.73-.22.6.6 0 0 1-.732-.177.624.624 0 0 1-.849-.581c0-.343.281-.621.628-.621m4.352 1.352c.208 0 .377.167.377.373a.375.375 0 0 1-.377.372.375.375 0 0 1-.376-.372c0-.206.168-.373.376-.373m5.82.237-.008.002a.6.6 0 0 1-.157.007.6.6 0 0 1-.255.391.6.6 0 0 1 .182.011.55.55 0 0 1 .237-.41zm-4.983-.264c.185 0 .335.148.335.33 0 .184-.15.332-.335.332a.333.333 0 0 1-.334-.331c0-.183.15-.331.334-.331M6.4 7.1a.63.63 0 0 1 .557.334.6.6 0 0 1 .624.397.53.53 0 0 1 .636.406.505.505 0 0 1 .68.464.4.4 0 0 1-.004.061.46.46 0 0 1 .504.288.42.42 0 0 1 .783.203.419.419 0 0 1-.803.164.46.46 0 0 1-.87-.231.5.5 0 0 1-.6-.362.533.533 0 0 1-.682-.243.604.604 0 0 1-.723-.247.624.624 0 0 1-.73-.613c0-.343.281-.62.628-.62zm4.185 1.767c.208 0 .377.167.377.373a.375.375 0 0 1-.377.372.375.375 0 0 1-.377-.372c0-.206.169-.373.377-.373m.851.028c.193 0 .349.154.349.345s-.156.345-.349.345a.347.347 0 0 1-.349-.345c0-.19.156-.345.349-.345m.781-.056c.193 0 .349.155.349.345a.347.347 0 0 1-.349.345.347.347 0 0 1-.349-.345c0-.19.157-.345.35-.345zm3.435.029-.005.001a.6.6 0 0 1-.153.025.6.6 0 0 1-.017.103.6.6 0 0 1 .175-.13zm-4.676-.83c.208 0 .376.168.376.374a.375.375 0 0 1-.376.372.375.375 0 0 1-.377-.372c0-.206.169-.373.377-.373zM6.873 5.914a.6.6 0 0 1 .556.37.6.6 0 0 1 .701.46.53.53 0 0 1 .566.453.5.5 0 0 1 .61.573h.008a.46.46 0 0 1 .503.293.42.42 0 0 1 .725.28.419.419 0 0 1-.802.165.461.461 0 0 1-.813-.343.5.5 0 0 1-.609-.394.535.535 0 0 1-.646-.325.6.6 0 0 1-.685-.356.597.597 0 0 1-.714-.583c0-.327.269-.593.6-.593m4.883 1.74c.208 0 .377.166.377.372a.375.375 0 0 1-.377.373.375.375 0 0 1-.377-.373c0-.206.169-.373.377-.373zM7.403 4.725a.6.6 0 0 1 .573.416.57.57 0 0 1 .613.557.53.53 0 0 1 .611.464l.03-.001a.5.5 0 0 1 .472.668.458.458 0 0 1 .528.513.419.419 0 0 1 .786.199.416.416 0 0 1-.418.414.416.416 0 0 1-.415-.464.46.46 0 0 1-.848-.347.507.507 0 0 1-.6-.407.53.53 0 0 1-.59-.48.58.58 0 0 1-.662-.35.597.597 0 0 1-.68-.588c0-.328.269-.594.6-.594m7.13 2.647-.007.006a1 1 0 0 1-.078.06l.061.034h.04a.4.4 0 0 1-.017-.1zm-3.112-.797a.43.43 0 0 1 .433.428.43.43 0 0 1-.433.428.43.43 0 0 1-.432-.428.43.43 0 0 1 .432-.428M7.933 3.54a.6.6 0 0 1 .588.471.57.57 0 0 1 .622.638.513.513 0 0 1 .585.582.5.5 0 0 1 .592.489.5.5 0 0 1-.095.29.462.462 0 0 1 .652.414.46.46 0 0 1-.46.456.46.46 0 0 1-.46-.456.45.45 0 0 1 .08-.257.504.504 0 0 1-.718-.512.513.513 0 0 1-.617-.528.577.577 0 0 1-.68-.407.597.597 0 0 1-.689-.587c0-.328.27-.593.6-.593m3.39 1.932c.262 0 .475.21.475.469 0 .26-.213.47-.475.47a.47.47 0 0 1-.474-.47c0-.26.212-.47.474-.47zm1.033-.083a.5.5 0 0 1 .502.497.5.5 0 0 1-.502.497.5.5 0 0 1-.502-.497.5.5 0 0 1 .502-.497m-3.67-2.954a.597.597 0 0 1 .599.64.57.57 0 0 1 .607.762.527.527 0 0 1 .679.504.5.5 0 0 1-.09.29.504.504 0 0 1 .759.427.5.5 0 0 1-.503.497.5.5 0 0 1-.502-.497c0-.1.03-.192.08-.27a.532.532 0 0 1-.805-.448q0-.087.027-.167a.57.57 0 0 1-.752-.559.597.597 0 0 1-.698-.586c0-.327.268-.593.6-.593zm6.07-.607c.307 0 .557.247.557.552a.555.555 0 0 1-.815.49.53.53 0 0 1 .09.297.54.54 0 0 1-.711.512.53.53 0 0 1 .125.344.54.54 0 0 1-.707.513c.109.099.177.24.177.398a.54.54 0 0 1-.544.538.54.54 0 0 1-.544-.538.54.54 0 0 1 .707-.514.53.53 0 0 1-.177-.397.54.54 0 0 1 .71-.513.53.53 0 0 1-.124-.343.54.54 0 0 1 .792-.48.55.55 0 0 1-.095-.307c0-.305.25-.552.558-.552zm-2.944 2.457c.285 0 .516.228.516.51a.513.513 0 0 1-.516.511.513.513 0 0 1-.517-.51c0-.283.232-.511.517-.511m-2.065-2.65a.57.57 0 0 1 .51.823.57.57 0 0 1 .732.543.56.56 0 0 1-.122.348.546.546 0 0 1 .791.48.54.54 0 0 1-.544.539.54.54 0 0 1-.544-.539c0-.122.042-.236.112-.326A.574.574 0 0 1 9.845 3q.001-.14.062-.257a.57.57 0 0 1-.732-.543c0-.313.256-.566.572-.566zm2.567 1.546c.3 0 .544.24.544.538a.54.54 0 0 1-.544.538.54.54 0 0 1-.544-.538.54.54 0 0 1 .544-.538m.572-1.022c.308 0 .558.248.558.552s-.25.552-.558.552a.555.555 0 0 1-.558-.552c0-.304.25-.552.558-.552m-1.256-.055c.308 0 .558.247.558.552s-.25.552-.558.552a.555.555 0 0 1-.558-.552c0-.305.25-.552.558-.552m1.925-.883c.309 0 .559.247.559.552s-.25.552-.559.552a.555.555 0 0 1-.558-.552c0-.305.25-.552.558-.552m-2.608-.083c.316 0 .572.253.572.566a.57.57 0 0 1-.572.566.57.57 0 0 1-.572-.566c0-.313.256-.566.572-.566M12.272 1c.308 0 .558.247.558.552s-.25.552-.558.552a.555.555 0 0 1-.558-.552c0-.305.25-.552.558-.552"/></svg>