<svg xmlns="http://www.w3.org/2000/svg" width="18" height="18" viewBox="0 0 18 18"><path fill="currentColor" d="M7.132 4.469 3.567 6.542 0 4.468l3.567-2.073z"/><path fill="currentColor" d="m7.132 13.794-3.566-2.059v4.132z"/><path fill="currentColor" d="m3.567 6.542-.001-.001zL0 4.468v9.333l3.566 2.073 3.566-2.073v-.007l-3.566 2.073v-4.132l3.566 2.059V4.469z"/><path fill="currentColor" d="m10.868 4.469 3.565 2.073L18 4.468l-3.567-2.073z"/><path fill="currentColor" d="m10.868 13.794 3.566-2.059v4.132z"/><path fill="currentColor" d="M14.433 6.535v5.193l-3.566 2.066V4.462z"/><path fill="currentColor" d="m10.868 4.469 3.565 2.073L18 4.468l-3.567-2.073z"/><path fill="currentColor" d="m14.433 6.542-3.565-2.073v9.325l3.566-2.059v4.132l-3.566-2.073v.007l3.566 2.073L18 13.801V4.468z"/><path fill="currentColor" d="m10.868 13.794 3.566-2.059v4.132z"/><path fill="currentColor" d="M14.433 6.535v5.193l-3.566 2.066V4.462z"/><path fill="currentColor" d="M3.567 6.541v5.193l3.566 2.067V4.469z"/><path fill="currentColor" d="M14.423 10.126c-.624 1.556-3.066 2.584-5.348 2.584h-.161c-2.282 0-4.724-1.028-5.348-2.584 0 0-.025-1.561 0-1.713.454 1.737 2.834 3.022 5.293 3.022h.271c2.455 0 4.839-1.285 5.293-3.022.025.152 0 1.713 0 1.713M13.4 5.942a6.65 6.65 0 0 1-4.27 1.474h-.271a6.66 6.66 0 0 1-4.267-1.47l-.856.5C4.553 7.809 6.8 8.69 8.914 8.69h.161c2.115 0 4.366-.883 5.181-2.251z"/></svg>