<svg viewBox="0 0 24 24" xmlns="http://www.w3.org/2000/svg" fill="#6851FF"><path d="m12 0a29.658 29.658 0 0 1 -3.611 3.53 27.326 27.326 0 0 1 1.34 8.47c0 2.948-.47 5.792-1.34 8.47a29.658 29.658 0 0 1 3.611 3.53 29.658 29.658 0 0 1 3.611-3.53 27.326 27.326 0 0 1 -1.34-8.47c0-2.948.47-5.792 1.34-8.47a29.658 29.658 0 0 1 -3.611-3.53zm6.109 5.381a27.362 27.362 0 0 0 -.809 6.619c0 2.278.28 4.494.809 6.619a30.696 30.696 0 0 1 4.391-2.424 13.662 13.662 0 0 1 -.657-4.195c0-1.46.23-2.868.657-4.195a30.698 30.698 0 0 1 -4.391-2.424zm-12.218 0a30.7 30.7 0 0 1 -4.391 2.424c.427 1.327.657 2.736.657 4.195 0 1.46-.23 2.868-.657 4.195a30.696 30.696 0 0 1 4.391 2.424c.529-2.125.809-4.341.809-6.619s-.28-4.494-.809-6.619z"/></svg>