<svg viewBox="0 0 24 24" xmlns="http://www.w3.org/2000/svg"><path d="m23.968 15.033c-.185-.811-1.527-3.15-4.27-5.224a27 27 0 0 0 -1.33-.95c.548-2.346-2.303-5.177-5.084-3.844-1.997-1.879-4.224-2.645-6.272-2.614-5.422.076-9.605 5.725-5.106 11.117l.01.009q.103.123.211.247c.292.35.486.66.65 1.206l1.343 4.397h-.475a.794.794 0 0 0 -.794.794h1.801l3.028 1.429a.79.79 0 0 0 -.377-1.054l-.793-.374h2.28a.794.794 0 0 0 -.793-.794h-2.068a.82.82 0 0 1 -.786-.581l-1.063-3.492c-.266-.918.343-1.517.915-1.589.522-.064.785.272 1.03 1.088l.945 3.098h-.475a.794.794 0 0 0 -.793.793h1.8l3.027 1.431a.79.79 0 0 0 -.376-1.054l-.794-.375h1.674a4 4 0 0 0 6.278.805 4 4 0 0 0 0-5.654 4 4 0 0 0 -6.632 4.056h-1.895a.82.82 0 0 1 -.787-.582l-1.569-5.157.268-.142c3.724-1.563 7.707 1.228 10.479-1.454l.018-.017c.343-.312.686-.631 1.7.004 1.092.684 3.501 2.47 4.593 5.522.002 0 .665-.236.482-1.045m-7.662-6.764a.769.769 0 1 0 -1.275.595 1.2 1.2 0 1 1 1.275-.595"/></svg>