<svg height="64" viewBox="0 0 64 64" width="64" xmlns="http://www.w3.org/2000/svg"><g fill="none" fill-rule="evenodd"><path d="m0 0h64v64h-64z" fill="#7aa116"/><path d="m35.5 34a1.5 1.5 0 1 1 -3.001-.001 1.5 1.5 0 0 1 3.001.001m4.5 6.919-1.126-1.126a.998.998 0 0 0 -1.655.391l-.607 1.816h-5.224l-.607-1.816a1 1 0 0 0 -1.655-.391l-1.126 1.126-.443-2.661 2.243-2.991c.13-.174.2-.384.2-.6 0-5.162 2.719-8.807 4.002-10.24 1.286 1.428 3.998 5.056 3.998 10.24 0 .216.07.426.2.6l2.243 2.991zm-.003-6.59c-.147-7.454-5.124-11.893-5.339-12.081a.996.996 0 0 0 -1.316 0c-.215.188-5.192 4.627-5.339 12.081l-2.303 3.071a1 1 0 0 0 -.186.765l.833 5a.998.998 0 0 0 1.693.542l1.356-1.356.323.965a1 1 0 0 0 .948.684h6.666a1 1 0 0 0 .948-.684l.323-.965 1.356 1.356a1.001 1.001 0 0 0 1.693-.542l.833-5a1 1 0 0 0 -.186-.765zm-2.997 17.671h2v-4h-2zm-8 0h2v-4h-2zm4 2h2v-8h-2zm15-37h-33a1 1 0 0 0 -1 1v25a1.001 1.001 0 0 1 -2 0v-31h9.586l2.707 2.707a1 1 0 0 0 .707.293h23zm5 0h-3v-3a1 1 0 0 0 -1-1h-23.586l-2.707-2.707a1 1 0 0 0 -.707-.293h-11a1 1 0 0 0 -1 1v32c0 1.654 1.346 3 3 3h10v-2h-7.184c.112-.314.184-.648.184-1v-24h36v25h-7v2h8a1 1 0 0 0 1-1v-27a1 1 0 0 0 -1-1" fill="#fff"/></g></svg>