<svg height="18" viewBox="0 0 18 18" width="18" xmlns="http://www.w3.org/2000/svg" xmlns:xlink="http://www.w3.org/1999/xlink"><linearGradient id="a" gradientUnits="userSpaceOnUse" x1="7.822" x2="7.822" y1="17.653"><stop offset="0" stop-color="#0078d4"/><stop offset=".817" stop-color="#5ea0ef"/></linearGradient><path d="m8.824.132h-7.513a.594.594 0 0 0 -.593.594v16.2a.594.594 0 0 0 .593.594h13.021a.594.594 0 0 0 .593-.594v-10.721a.594.594 0 0 0 -.593-.594h-4.322a.594.594 0 0 1 -.593-.594v-4.291a.593.593 0 0 0 -.593-.594" fill="#83b9f9"/><path d="m8.55.89v4.07a1.494 1.494 0 0 0 1.491 1.493h4.1v10.31h-12.641v-15.873zm.287-.89h-7.622a.6.6 0 0 0 -.6.6v16.45a.6.6 0 0 0 .6.6h13.213a.6.6 0 0 0 .6-.6v-10.885a.6.6 0 0 0 -.6-.6h-4.387a.6.6 0 0 1 -.6-.6v-4.365a.6.6 0 0 0 -.6-.6z" fill="url(#a)"/><path d="m14.8 5.683-5.568-5.551v4.523a1.02 1.02 0 0 0 1.015 1.028z" fill="#0078d4"/><g fill="#fff"><rect height="1.36" rx=".567" width="9.713" x="2.686" y="8.329"/><rect height="1.36" opacity=".8" rx=".567" width="9.713" x="2.686" y="11.083"/><rect height="1.36" opacity=".6" rx=".567" width="9.713" x="2.686" y="13.838"/></g><g fill="#50e6ff"><path d="m12.71 17.787c-2.076 0-3.783-1.6-4.685-4.4a46 46 0 0 0 -1.973-4.269c1.32.014 5.935.063 6.818.063 2.112 0 3.749 2.524 3.749 4.7a3.914 3.914 0 0 1 -3.909 3.906"/><path d="m6.4 9.335c1.644.017 5.656.059 6.469.059 1.992 0 3.536 2.41 3.536 4.483a3.7 3.7 0 0 1 -3.7 3.7c-1.977 0-3.611-1.55-4.483-4.253a41 41 0 0 0 -1.822-3.989m-.7-.435s1.739 3.366 2.121 4.55c.879 2.724 2.612 4.55 4.889 4.55a4.123 4.123 0 0 0 4.123-4.123c0-2.277-1.685-4.91-3.963-4.91-1.033 0-7.17-.067-7.17-.067"/></g><circle cx="12.87" cy="13.484" fill="#fff" r="4.516"/><path d="m12.87 9.446a4.038 4.038 0 1 1 -4.037 4.038 4.04 4.04 0 0 1 4.037-4.038m0-.479a4.517 4.517 0 1 0 4.517 4.517 4.516 4.516 0 0 0 -4.517-4.517" fill="#50e6ff"/><path d="m12.324 12.9h-1.458v-1.46h1.458zm2.551-1.458h-1.458v1.458h1.458zm-2.551 2.558h-1.458v1.458h1.458zm2.551 0h-1.458v1.458h1.458z" fill="#50e6ff"/></svg>