<svg height="48" viewBox="0 0 48 48" width="48" xmlns="http://www.w3.org/2000/svg"><path d="m12 34c4.411 0 8-3.589 8-8s-3.589-8-8-8-8 3.589-8 8 3.589 8 8 8m8.338-2.491a10.1 10.1 0 0 1 -2.829 2.828l5.077 5.077c.756.755 2.072.755 2.828 0 .378-.378.586-.88.586-1.414s-.208-1.037-.586-1.415zm-8.338 4.491c-5.514 0-10-4.486-10-10s4.486-10 10-10 10 4.486 10 10a9.9 9.9 0 0 1 -.698 3.645l5.526 5.526a3.98 3.98 0 0 1 1.172 2.829 3.97 3.97 0 0 1 -1.172 2.828 3.98 3.98 0 0 1 -2.828 1.172 3.98 3.98 0 0 1 -2.828-1.172l-5.526-5.526a9.9 9.9 0 0 1 -3.646.698m17-10h7v-2h-7zm-5-5h12v-2h-12zm6 15h6v-2h-6zm-3-5h9v-2h-9zm7-17h3.586l-3.586-3.586zm6.707.293a1 1 0 0 1 .293.707v30a1 1 0 0 1 -1 1h-28a1 1 0 0 1 -1-1v-7h2v6h26v-28h-6a1 1 0 0 1 -1-1v-6h-19v5h-2v-6a1 1 0 0 1 1-1h21c.266 0 .52.105.707.293zm5.293-2.293v28a1 1 0 0 1 -1 1h-2v-2h1v-26.586l-8.414-8.414h-17.586v1h-2v-2a1 1 0 0 1 1-1h19c.266 0 .52.105.707.293l9 9a1 1 0 0 1 .293.707" fill="#01a88d" fill-rule="evenodd"/></svg>