<svg xmlns="http://www.w3.org/2000/svg" width="247.021" height="144.279" viewBox="0 0 65.358 38.174"><clipPath id="a"><path fill="currentColor" d="M60.648 232H247v250H60.648zm0 0"/></clipPath><g clip-path="url(#a)" transform="translate(-8.24 -28.214)scale(.13774)"><path fill="currentColor" d="M149.05 232.176h7.688c7.64.637 15.29 2.765 21.684 7.12 7.676 5.048 13.137 13.142 15.422 22.017 2.855 11.05 1.656 22.933-2.375 33.53-1.313 3.747-2.676 7.481-4.008 11.22 6.203-1.625 12.27-4.481 16.691-9.239 4.785-4.883 7.22-11.484 8.782-18.02 11.27-.058 22.535-.011 33.8-.027-5.824 15.477-10.117 31.825-9.82 48.48.106 19.223 7.117 37.47 9.027 56.473 1.414 12.856 1.008 26.079-2.68 38.547-3.378 11.653-9.55 22.516-17.988 31.23-8.457 8.848-19.023 15.532-30.39 19.942-14.578 5.688-30.36 7.844-45.938 7.524-18.578-.387-37.418-4.614-53.379-14.41-13.785-8.352-25.16-21.07-30.82-36.286-5.7-15.105-5.305-32.535 1.559-47.191 5.32-11.465 14.875-20.734 26.195-26.207 13.977-6.742 29.95-8.441 45.254-6.863 2.137-5.555 4.234-11.13 6.414-16.668-12.883-5.516-24.606-14.657-31.348-27.16-10.32-18.774-7.984-44.188 6.82-59.934 7.52-8.29 18.32-13.246 29.41-14.078m-8.448 39.37c-2.563 5.684-2.848 12.497-.079 18.157 3 6.258 7.758 12.074 14.196 14.926 1.308-2.988 2.39-6.078 3.578-9.113 1.808-4.844 4.02-9.63 4.625-14.817.625-4.304-.035-9.054-2.852-12.508-2.93-3.492-8.058-4.867-12.355-3.425-3.254 1.035-5.723 3.742-7.113 6.78m35.222 65.856c-2.531 7.004-5.277 13.934-7.734 20.973 7.765 3.652 15.805 7.426 21.906 13.656-3.832 9.754-7.656 19.508-11.637 29.203-6.023-5.957-13.043-11.02-20.964-14.097-4.297 11.394-8.504 22.812-12.73 34.234-11.036.027-22.071.016-33.106.008 4.93-13.195 9.832-26.406 14.738-39.617-10.836-.328-21.715 5.168-27.574 14.367-2.493 3.844-4.004 8.488-3.375 13.102.601 9.75 5.64 18.925 13.152 25.07 10.262 8.496 23.723 11.965 36.766 12.941 10.78.739 21.828.098 32.129-3.386 9.277-3 17.859-8.532 23.89-16.278 7.895-9.98 10.98-23.175 10.078-35.73-.879-9.625-3.195-19.043-4.945-28.531-2.035-10.684-3.727-21.512-3.727-32.422a105.2 105.2 0 0 1-26.867 6.508"/></g><path fill="currentColor" d="M29.656 13.564v-.019c0-1.866 1.454-3.396 3.443-3.396 1.181 0 1.894.32 2.578.901l-.909 1.098c-.507-.422-.957-.667-1.716-.667-1.05 0-1.885.93-1.885 2.045v.02c0 1.2.825 2.081 1.988 2.081.525 0 .994-.13 1.36-.393v-.938H33.06v-1.248h2.851V15.9a4.26 4.26 0 0 1-2.804 1.041c-2.045 0-3.452-1.435-3.452-3.377m7.252.779v-.02c0-1.435 1.023-2.616 2.485-2.616 1.68 0 2.45 1.304 2.45 2.73 0 .112-.01.244-.02.375h-3.5c.141.647.592.985 1.23.985.479 0 .825-.15 1.22-.517l.815.723c-.469.582-1.145.938-2.053.938-1.511 0-2.627-1.06-2.627-2.598m3.545-.423c-.084-.637-.46-1.069-1.06-1.069-.59 0-.975.422-1.088 1.07zM42.9 11.8h1.426v.713c.328-.422.75-.806 1.473-.806 1.078 0 1.707.713 1.707 1.866v3.256H46.08v-2.805c0-.676-.318-1.023-.863-1.023s-.89.347-.89 1.023v2.805H42.9zm5.6 2.543v-.02c0-1.435 1.023-2.616 2.486-2.616 1.679 0 2.448 1.304 2.448 2.73 0 .112-.01.244-.02.375h-3.498c.14.647.591.985 1.23.985.478 0 .825-.15 1.219-.517l.816.723c-.469.582-1.144.938-2.054.938-1.51 0-2.627-1.06-2.627-2.598m3.545-.423c-.083-.637-.459-1.069-1.06-1.069-.59 0-.975.422-1.087 1.07zm2.449-2.12h1.426v1.014c.29-.695.76-1.145 1.603-1.107v1.491h-.074c-.948 0-1.53.573-1.53 1.773v1.858h-1.425zm3.386 3.584v-.019c0-1.098.835-1.605 2.026-1.605.507 0 .873.085 1.23.207v-.084c0-.591-.367-.92-1.08-.92-.544 0-.929.104-1.388.273l-.357-1.088c.554-.244 1.098-.404 1.951-.404.78 0 1.342.207 1.699.563.375.375.543.929.543 1.604v2.918h-1.378v-.544c-.347.384-.826.637-1.52.637-.947 0-1.726-.544-1.726-1.538m3.274-.328v-.254a2.2 2.2 0 0 0-.91-.187c-.61 0-.985.244-.985.693v.02c0 .384.319.61.779.61.666 0 1.116-.366 1.116-.883m2.645 1.774h1.426V9.98h-1.426zm-33.852 2.485h1.556l1.727 2.776 1.725-2.776h1.558v6.566h-1.435v-4.287l-1.848 2.805h-.038l-1.829-2.776v4.258h-1.416zm8.02-.281h1.5v1.266h-1.5zm.037 1.82h1.425v5.027h-1.425zm2.833 5.027h1.426v-6.847h-1.426zm2.833 0h1.425v-6.847H43.67zm2.373-.666.609-.938c.544.394 1.116.6 1.585.6.413 0 .6-.15.6-.375v-.018c0-.31-.487-.413-1.04-.582-.704-.206-1.502-.535-1.502-1.51v-.02c0-1.022.826-1.594 1.84-1.594a3.5 3.5 0 0 1 1.875.582l-.544.985c-.497-.29-.994-.469-1.36-.469-.347 0-.525.15-.525.347v.018c0 .282.478.413 1.022.6.703.235 1.52.573 1.52 1.492v.019c0 1.117-.835 1.623-1.923 1.623a3.52 3.52 0 0 1-2.157-.76"/></svg>