<svg height="144.279" viewBox="0 0 65.358 38.174" width="247.021" xmlns="http://www.w3.org/2000/svg" xmlns:xlink="http://www.w3.org/1999/xlink"><clipPath id="a"><path d="m60.648 232h186.352v250h-186.352zm0 0"/></clipPath><g transform="matrix(.39045 0 0 .39045 -25.747 -32.237)"><g clip-path="url(#a)" transform="matrix(.35278 0 0 .35278 44.838 10.304)"><path d="m149.05 232.176h7.688c7.64.637 15.29 2.765 21.684 7.12 7.676 5.048 13.137 13.142 15.422 22.017 2.855 11.05 1.656 22.933-2.375 33.53-1.313 3.747-2.676 7.481-4.008 11.22 6.203-1.625 12.27-4.481 16.691-9.239 4.785-4.883 7.22-11.484 8.782-18.02 11.27-.058 22.535-.011 33.8-.027-5.824 15.477-10.117 31.825-9.82 48.48.106 19.223 7.117 37.47 9.027 56.473 1.414 12.856 1.008 26.079-2.68 38.547-3.378 11.653-9.55 22.516-17.988 31.23-8.457 8.848-19.023 15.532-30.39 19.942-14.578 5.688-30.36 7.844-45.938 7.524-18.578-.387-37.418-4.614-53.379-14.41-13.785-8.352-25.16-21.07-30.82-36.286-5.7-15.105-5.305-32.535 1.559-47.191 5.32-11.465 14.875-20.734 26.195-26.207 13.977-6.742 29.95-8.441 45.254-6.863 2.137-5.555 4.234-11.13 6.414-16.668-12.883-5.516-24.606-14.657-31.348-27.16-10.32-18.774-7.984-44.188 6.82-59.934 7.52-8.29 18.32-13.246 29.41-14.078m-8.448 39.37c-2.563 5.684-2.848 12.497-.079 18.157 3 6.258 7.758 12.074 14.196 14.926 1.308-2.988 2.39-6.078 3.578-9.113 1.808-4.844 4.02-9.63 4.625-14.817.625-4.304-.035-9.054-2.852-12.508-2.93-3.492-8.058-4.867-12.355-3.425-3.254 1.035-5.723 3.742-7.113 6.78m35.222 65.856c-2.531 7.004-5.277 13.934-7.734 20.973 7.765 3.652 15.805 7.426 21.906 13.656-3.832 9.754-7.656 19.508-11.637 29.203-6.023-5.957-13.043-11.02-20.964-14.097-4.297 11.394-8.504 22.812-12.73 34.234-11.036.027-22.071.016-33.106.008 4.93-13.195 9.832-26.406 14.738-39.617-10.836-.328-21.715 5.168-27.574 14.367-2.493 3.844-4.004 8.488-3.375 13.102.601 9.75 5.64 18.925 13.152 25.07 10.262 8.496 23.723 11.965 36.766 12.941 10.78.739 21.828.098 32.129-3.386 9.277-3 17.859-8.532 23.89-16.278 7.895-9.98 10.98-23.175 10.078-35.73-.879-9.625-3.195-19.043-4.945-28.531-2.035-10.684-3.727-21.512-3.727-32.422a105.2 105.2 0 0 1 -26.867 6.508" fill="#234291"/></g><path d="m125.925 104.324c6.006-4.564 9.053-7.111 10.996-10.486 2.734-4.746 1.077-8.772-2.387-10.345-3.248-1.477-7.104-.09-8.609 3.094-1.506-3.185-5.361-4.571-8.61-3.094-3.464 1.573-5.12 5.6-2.385 10.345 1.943 3.375 4.989 5.922 10.995 10.486" fill="#e32123"/><g fill="#234291"><path d="m141.894 117.303v-.048c0-4.78 3.725-8.697 8.818-8.697 3.026 0 4.852.816 6.605 2.307l-2.329 2.811c-1.298-1.081-2.45-1.707-4.396-1.707-2.69 0-4.828 2.38-4.828 5.238v.048c0 3.076 2.114 5.333 5.092 5.333 1.345 0 2.546-.336 3.483-1.007v-2.404h-3.723v-3.195h7.302v7.303c-1.728 1.465-4.108 2.667-7.182 2.667-5.237 0-8.842-3.675-8.842-8.649"/><path d="m160.465 119.297v-.048c0-3.676 2.62-6.703 6.366-6.703 4.301 0 6.272 3.34 6.272 6.991 0 .288-.025.626-.049.962h-8.962c.36 1.658 1.514 2.522 3.147 2.522 1.227 0 2.115-.383 3.124-1.322l2.09 1.851c-1.201 1.49-2.932 2.402-5.26 2.402-3.869 0-6.728-2.715-6.728-6.655m9.08-1.081c-.215-1.633-1.176-2.739-2.714-2.739-1.513 0-2.498 1.082-2.788 2.739z"/><path d="m175.816 112.786h3.652v1.826c.84-1.082 1.922-2.066 3.771-2.066 2.763 0 4.373 1.826 4.373 4.78v8.338h-3.652v-7.184c0-1.73-.816-2.618-2.21-2.618-1.393 0-2.282.889-2.282 2.618v7.184h-3.652z"/><path d="m190.157 119.297v-.048c0-3.676 2.62-6.703 6.367-6.703 4.3 0 6.271 3.34 6.271 6.991 0 .288-.025.626-.05.962h-8.96c.36 1.658 1.514 2.522 3.148 2.522 1.225 0 2.114-.383 3.123-1.322l2.09 1.851c-1.201 1.49-2.93 2.402-5.261 2.402-3.868 0-6.728-2.715-6.728-6.655m9.081-1.081c-.214-1.633-1.176-2.739-2.714-2.739-1.513 0-2.499 1.082-2.787 2.739z"/><path d="m205.509 112.786h3.651v2.595c.746-1.778 1.946-2.931 4.108-2.835v3.82h-.191c-2.427 0-3.917 1.467-3.917 4.54v4.758h-3.651z"/><path d="m214.182 121.964v-.048c0-2.812 2.137-4.11 5.188-4.11 1.298 0 2.235.218 3.15.53v-.217c0-1.513-.94-2.354-2.765-2.354-1.393 0-2.379.265-3.556.698l-.913-2.787c1.418-.625 2.811-1.033 4.997-1.033 1.995 0 3.436.528 4.35 1.441.96.96 1.392 2.379 1.392 4.108v7.472h-3.53v-1.393c-.89.984-2.115 1.633-3.894 1.633-2.426 0-4.42-1.393-4.42-3.94m8.385-.84v-.65c-.626-.288-1.441-.48-2.33-.48-1.562 0-2.524.625-2.524 1.777v.05c0 .984.818 1.56 1.995 1.56 1.706 0 2.859-.936 2.859-2.258"/><path d="m229.34 125.664h3.652v-17.538h-3.652zm0 0"/><path d="m142.64 132.03h3.986l4.423 7.11 4.419-7.11h3.988v16.817h-3.675v-10.98l-4.732 7.183h-.097l-4.685-7.11v10.907h-3.627z"/><path d="m163.18 131.31h3.844v3.242h-3.845zm.096 4.659h3.65v12.878h-3.65zm0 0"/><path d="m170.531 148.848h3.652v-17.538h-3.652zm0 0"/><path d="m177.787 148.848h3.651v-17.538h-3.651zm0 0"/><path d="m183.864 147.14 1.56-2.401c1.394 1.008 2.86 1.538 4.06 1.538 1.058 0 1.539-.386 1.539-.962v-.048c0-.793-1.249-1.057-2.667-1.49-1.802-.528-3.845-1.369-3.845-3.867v-.05c0-2.618 2.114-4.083 4.71-4.083 1.632 0 3.411.553 4.804 1.49l-1.393 2.523c-1.273-.745-2.546-1.201-3.483-1.201-.89 0-1.345.384-1.345.888v.047c0 .722 1.223 1.057 2.618 1.538 1.8.601 3.893 1.466 3.893 3.82v.048c0 2.86-2.139 4.156-4.927 4.156-1.8 0-3.82-.6-5.524-1.945"/></g></g></svg>