<svg xmlns="http://www.w3.org/2000/svg" width="18" height="18" viewBox="0 0 18 18"><path fill="currentColor" d="M11 9.57a6.7 6.7 0 0 0-2.23.32 6.6 6.6 0 0 0 2.23.33 6.6 6.6 0 0 0 2.23-.33A6.6 6.6 0 0 0 11 9.57"/><path fill="currentColor" d="M11.47 16.81a.57.57 0 0 1-.58.57h-8.8a.56.56 0 0 1-.57-.57V1a.57.57 0 0 1 .57-.56h8.8a.58.58 0 0 1 .58.57z"/><path fill="currentColor" d="M3 6.38A1.08 1.08 0 0 1 4.06 5.3H9a1.08 1.08 0 0 1 1.08 1.08A1.08 1.08 0 0 1 9 7.47H4.06A1.08 1.08 0 0 1 3 6.38m0-3.21a1.08 1.08 0 0 1 1.06-1.08H9a1.08 1.08 0 0 1 1.08 1.08A1.08 1.08 0 0 1 9 4.25H4.06A1.08 1.08 0 0 1 3 3.17"/><circle cx="4.11" cy="3.17" r=".73" fill="currentColor"/><circle cx="4.11" cy="6.38" r=".73" fill="currentColor"/><path fill="currentColor" d="M13.27 11.38c-1.77 0-3.21-.53-3.21-1.17v6.19c0 .63 1.42 1.15 3.17 1.16 1.78 0 3.21-.52 3.21-1.16v-6.19c.04.64-1.39 1.17-3.17 1.17"/><path fill="currentColor" d="M16.48 10.21c0 .64-1.43 1.17-3.21 1.17s-3.21-.53-3.21-1.17 1.44-1.16 3.21-1.16 3.21.52 3.21 1.16"/><path fill="currentColor" d="M15.73 10.12c0 .41-1.1.74-2.46.74s-2.46-.33-2.46-.74 1.1-.74 2.46-.74 2.46.33 2.46.74m-2.05-1.46 2.13-2.13a.11.11 0 0 0-.08-.19h-1.24c0-2.57-1.37-5.13-3.84-5.13a6.68 6.68 0 0 1 2 5.13h-1.18a.11.11 0 0 0-.08.19l2.13 2.13a.12.12 0 0 0 .16 0"/></svg>