<svg xmlns="http://www.w3.org/2000/svg" viewBox="0 0 128 128">
  <defs>
    <mask id="wko">
      <rect width="128" height="128" fill="white"/>
      <path fill="black" d="m84.969 9.457-3.245 1.288-4.96 6.136-5.287 12.002 2.036 2.443 5.694 1.626 6.511-2.642 9.953-2.515-1.219-1.398-1.41-1.175-13.226 2.239-.813-2.443 1.017-2.642 4.881-7.527 5.088 2.235 5.759 1.961.45-.793-3.905-2.614-3.73-5.47zm26.379 11.9-3.46.816s-2.845 1.423-2.031 1.423c.813 0 4.678 1.219 4.678 1.219l1.629 1.224.407 1.828-2.24 4.475-1.016 1.02-4.678-3.052-1.426-1.02-1.423-.204-2.24.204 2.331 2.984 1.471.044 5.44 6.044 1.35 1.643 2.43-1.56 2.846-6.306 1.58-5.013.217-4.2-1.304-1.57zM94.87 38.853l-1.829.204-3.255 2.848 1.22 1.626 1.63-.61 2.844-3.052zM91.465 52.55c-.762-.042-2.49 1.296-2.52 2.143-.035 1.042 2.535 3.071 2.735 2.158.197-.908.341-3.072.126-4.028-.04-.18-.164-.263-.34-.273zm5.282.317c-.946.006-2.299.209-2.299.209s-.546 1.87.251 1.87c.8 0 3.006-1.397 2.948-1.87v-.002c-.022-.16-.406-.21-.9-.207m-11.639.024-1.833 1.016-.813 1.422 3.052 1.833.61-1.63z"/>
    </mask>
  </defs>
  <g fill="currentColor" mask="url(#wko)">
    <path fill="currentColor" d="m82.04 11.032-4.805 7.352q11.392 13.22 22.785 26.446c1.07-4.376 1.852.394 2.723 2.248 2.344 5.29 2.708 11.188 3.437 16.851 1.382 10.718.928 16.99-.056 22.84-3.184 18.95-14.488 30.013-25.279 36.38-3.693 2.179-7.248 3.702-12.46 4.415-5.372.733-10.635.441-16.026-.61-4.45-.864-8.926-2.327-13.038-4.212-6.555-3.004-11.965-8.205-16.202-13.91-4.096-5.515-6.681-12.102-8.647-18.7-3.57-12.002-5.076-24.785-2.23-37.134 1.776-7.694 4.335-15.316 7.836-22.345 3.714-7.456 8.933-14.21 15.255-19.812 3.796-3.364 7.92-6.464 12.567-8.332C51.307 1.134 54.913.828 58.638 1.07c3.683.243 7.197.657 10.703 1.905 4.774 1.697 9.268 4.351 12.7 8.057Zm0 0"/>
    <path fill="currentColor" d="m75.951 18.715-2.849.609-3.865 2.033-5.897-.813-10.58 13.02-5.693.814-2.85 1.423 2.647 6.714L62.73 29.497l8.747-1.02zm5.495 1.016-2.239 3.662.406 3.255 4.678.406 6.308-3.458-4.678-1.423z"/>
    <path fill="currentColor" d="m84.901 15.255 4.682 5.898 1.22 2.036-8.95-3.052 1.016-2.85zm0 0"/>
    <path fill="currentColor" d="m47.067 42.921 3.252 5.288-3.252 8.344 7.73 1.422 1.626 1.626 4.88 7.526 15.462-8.136 4.6 1.271 4.963-1.474-3.458-3.662.61-1.016 1.628-1.016.813 2.642 1.423 3.254 3.865 4.68 1.016-.61.204-3.049 3.594-.632 1.267-.986 3.175-.386.814-4-2.34-9.664v-4.068l3.663-.61 3.254 2.443 4.679 1.219 1.833-.406-5.495-6.916-3.375-3.456-1.912-1.224-3.663-2.442-7.528.408-5.9 1.425-5.084 2.443-3.053-.411-3.866-1.83-1.218-1.832-7.933-.203zm0 0"/>
  </g>
  <path fill="currentColor" d="M85.252 53.046s-.45.482-.969.845c-.513.362-1.167.606-1.167.606s2.43 3.144 2.785 2.737c.359-.406.1-1.108-.051-2.024-.155-.924-.598-2.163-.598-2.163zm0 0"/>
</svg>