<svg viewBox="0 0 128 128" xmlns="http://www.w3.org/2000/svg"><path d="m88.105 97.048h32.763l-1.792 3.9504c-6.2341 12.691-15.571 22.645-27.493 25.855l-3.4777.66235zm-42.177 0h36.588v30.881l-.50861.00067c-3.3524-.11987-6.8632-.74091-10.524-1.9274-7.9766-2.5857-8.0146-2.6298-15.521-.0217-2.9982 1.0423-5.9002 1.6687-8.7 1.9227l-1.3355.063zm-38.602 0h33.014v30.688l-1.1608-.14968c-13.213-2.2986-23.599-13.222-30.349-27.181zm80.78-42.828h39.508l.28715 3.3165c.48085 9.7849-.7917 20.234-3.6443 30.006l-1.259 3.9159h-34.892zm-42.177 0h36.588v37.238h-36.588zm-45.539 0h39.95v37.238h-35.197l-1.3825-4.285c-3.2021-10.886-4.4346-22.462-3.4046-32.708zm25.326-30.534c3.441-.07145 7.2514.48884 11.446 1.7804l3.1777 1.0933v22.07h-39.087l.8979-3.8911c3.4278-12.178 11.052-20.793 23.565-21.052zm56.801-4.5231v29.467h-36.588v-19.617l1.3267.63634c2.39 1.2223 4.8782 2.6461 7.4674 4.2838 8.7934-6.3076 16.723-10.682 23.824-13.423zm14.896-2.2777c16.268.66668 25.617 13.045 29.058 29.315l.40635 2.4297h-38.772v-30.929l.47949-.11534c3.1431-.59158 6.0837-.81236 8.828-.69987zm-62.857-16.852h18.58c1.3457 0 2.195.52006 2.5485 1.5602.26006.76482-.58379 9.6671-2.5322 26.707-13.232-17.07-19.963-25.942-20.191-26.615-.17676-.52006-.072466-.93305.31289-1.239.33456-.27537.76191-.41299 1.282-.41299z" fill="#24a148"/><path d="m20.439 66.046-3.3043 8.555h6.9585zm41.545-2.5282v7.8947h3.2264c.05147.02574.11039.0386.17473.0386h.13613c.8811 0 1.6457-.07788 2.2938-.23297.64745-.15577 1.192-.37587 1.6328-.66167.44021-.31086.77748-.71924 1.0105-1.2245.23297-.50591.35014-1.0958.35014-1.7697 0-.72601-.11716-1.3416-.35014-1.8469-.23297-.5059-.57024-.91429-1.0105-1.2251-.44089-.28512-1.0436-.5059-1.8083-.661-.76394-.15577-1.6904-.23365-2.7794-.23365zm31.914-3.3443h14.967v3.2278h-2.3324c-.38874.05215-.71856.11649-.99082.19437-.27225.07788-.48626.1815-.64135.31086-.15577.13003-.27226.31154-.35014.54451-.0779.23365-.11649.51877-.11649.85604v17.461h5.3645c1.3735.05147 2.4686-.11649 3.2847-.50591.81676-.38874 1.3802-.97185 1.6911-1.75.28512-.77748.50591-1.6464.661-2.6054.15577-.95899.24652-1.9965.27225-3.1113l3.693-.07721v11.394h-25.502v-3.1892h2.0216c.05215.02641.10362.03928.15577.03928h.11649c.31086 0 .58311-.03251.81609-.09752.23365-.06434.41515-.16186.54451-.29122.15509-.13003.27225-.31154.35014-.54451.07721-.23365.11649-.51877.11649-.85604v-15.944c0-.28512-.03928-.54451-.11649-.77816-.07788-.23297-.19505-.41448-.35014-.54451-.15577-.12936-.3691-.23297-.64136-.31086-.27225-.07788-.60275-.11649-.99149-.11649l-2.0216-.07788zm-42.449 0h17.105c1.4778.05215 2.7733.23975 3.8874.56415 1.1148.32373 2.048.79712 2.7991 1.4188.75175.62239 1.322 1.3877 1.7107 2.2945.38874.90752.58311 1.9708.58311 3.1892 0 1.1926-.20114 2.2424-.60275 3.1499-.40161.90752-1.0044 1.6593-1.8076 2.2552-.80322.59666-1.8204 1.0436-3.0517 1.3423-1.2312.29799-2.6629.44698-4.2958.44698l-5.7918-.07788v6.3391c0 .36301.0386.66709.11649.91361.07788.24652.19437.43412.34946.56415.15577.12936.36978.22688.64203.29122.27158.06502.60208.09752.99082.09752l2.4496-.07788v3.2278h-15.084v-3.1892h2.0216c.05147.02641.10362.03928.15577.03928h.11649c.31086 0 .58311-.03251.81609-.09752.23365-.06434.41448-.16186.54451-.29122.15509-.13003.27226-.31154.34946-.54451.07788-.23365.11716-.51877.11716-.85604v-15.944c0-.28512-.03928-.54451-.11716-.77816-.07721-.23297-.19437-.41448-.34946-.54451-.15577-.12936-.36978-.23297-.64136-.31086-.27225-.07788-.60275-.11649-.99149-.11649l-2.0216-.07788zm-32.642 0h5.9089l8.0856 18.628c.05215.12936.09075.23975.11716.3305.02573.09075.06434.17473.11649.25261.02573.10362.05824.19437.09685.27225.03928.07788.07179.15577.09752.23365.05147.07721.09075.15509.11649.23297s.06502.15577.11649.23365c.02574.07788.05824.149.09752.21333.0386.06502.07111.12326.09685.17541.20724.38874.43412.72601.68064 1.0111.24584.28512.49846.50523.75784.661.28512.1815.64136.31086 1.0694.38874.42734.07788.95221.11649 1.5739.11649v3.1892h-14.383v-3.2664h1.3606c.05181.02573.09068.0386.11662.0386h.11662.09718.09718c.28506 0 .53124-.01964.73861-.05824.20731-.03928.38874-.08398.54424-.13613.18144-.07788.3175-.1815.40818-.31086.09068-.13003.13606-.2858.13606-.4673 0-.12936-.01294-.26548-.03887-.4077-.02594-.1429-.06481-.30476-.11662-.48627-.05181-.15577-.11012-.31763-.17493-.48626-.06481-.16864-.12312-.34337-.17493-.52487-.02594-.05215-.05181-.10362-.07775-.15577-.02594-.05147-.05181-.10362-.07775-.15509-.02594-.05215-.05181-.1043-.07775-.15577-.02594-.05215-.05181-.11649-.07775-.19437-.05181-.13003-.10369-.25329-.1555-.36978s-.10369-.22688-.1555-.3305c-.05181-.12935-.09718-.23975-.13606-.3305-.03887-.09075-.08425-.1876-.13606-.29189v-.07721h-9.6797c-.02594.07721-.05188.14222-.07782.19437-.02587.05147-.03887.10362-.03887.15509-.02587.07788-.05181.1429-.07775.19437-.02587.05215-.05181.1043-.07768.15577-.02594.10362-.05831.20724-.09725.31086-.03887.1043-.08418.20792-.13606.31154-.02587.07788-.05824.15577-.09718.23297-.03887.07788-.07125.15577-.09718.23365-.02587.02574-.04531.05824-.05831.09685-.01293.03928-.01944.07179-.01944.09752-.02587.05215-.04531.09075-.05831.11649-.01294.02641-.01944.06502-.01944.11716-.07775.15509-.13606.31086-.17493.46662-.03887.15509-.08418.31086-.13606.46662-.02587.15509-.05181.31086-.07775.46662-.02594.15509-.03888.29799-.03888.42734 0 .1815.03244.34404.09719.48626.06481.1429.17493.23975.33043.2919.12963.05147.34343.09075.64149.11649.29799.02573.66729.0386 1.1079.0386l1.1274-.07721v3.2664h-11.546v-3.2664c.025939.02573.058311.0386.097185.0386h.097185.097185.097185c.41468 0 .79692-.02574 1.1468-.07788.34987-.05147.65443-.12936.91361-.23297.28505-.13003.55717-.35014.81636-.66167.25912-.31086.50536-.71247.73861-1.2055.05181-.12935.10362-.25261.1555-.3691.05181-.11649.10362-.22688.1555-.3305.02587-.05215.05181-.10362.07775-.15577.02587-.05147.05181-.11649.07775-.19437.02587-.05147.05181-.10362.07775-.15577.02594-.05147.05181-.10362.07775-.15509v-.05824c0-.01354.01293-.03251.03887-.05892 0 0 .0064-.0061.01944-.01896.01293-.01287.01944-.03251.01944-.05824 0-.02641.0065-.05215.01944-.07788.01293-.02641.03237-.05215.05831-.07788.05181-.07788.09068-.14899.11662-.21401s.06474-.13613.11662-.21401c.02594-.05147.05831-.11649.09718-.19437s.07125-.15577.09719-.23297c.07775-.13003.149-.27225.21381-.42802.06475-.15577.12306-.31086.17493-.46662z" fill="#defbe6"/></svg>