<svg viewBox="0 0 128 128" xmlns="http://www.w3.org/2000/svg"><path d="m34.557.033203c-.52013 0-.94864.13869-1.2832.41406-.38536.30591-.48926.71822-.3125 1.2383.22823.67305 6.9593 9.5449 20.191 26.615 1.9484-17.04 2.7913-25.942 2.5312-26.707-.35352-1.0401-1.2031-1.5605-2.5488-1.5605h-18.578zm60.762 16.832c-2.1321.042369-4.377.27702-6.7344.7207l-.47852.11523v30.93h38.771l-.40625-2.4297c-3.4411-16.269-12.79-28.648-29.059-29.314-.68605-.028123-1.383-.035607-2.0938-.021485zm-12.801 2.2988-3.9707 1.3457c-7.1016 2.741-15.031 7.1162-23.824 13.424-2.5891-1.6377-5.0768-3.0629-7.4668-4.2852l-1.3281-.63477v19.617h36.59v-29.467zm-56.803 4.5234c-12.514.25979-20.137 8.8727-23.564 21.051l-.89844 3.8926h39.088v-22.07l-3.1777-1.0938c-4.1949-1.2915-8.0063-1.8507-11.447-1.7793zm-25.324 30.533-.035156.24414c-1.03 10.245.20219 21.823 3.4043 32.709l1.3828 4.2852h35.197v-37.238h-39.949zm45.537 0v37.238h36.59v-37.238zm42.178 0v37.238h34.893l1.2578-3.916c2.8526-9.772 4.1254-20.221 3.6445-30.006l-.28711-3.3164h-39.508zm-69.299 5.9531h5.9082l8.0859 18.627c.05215.12936.090774.23933.11719.33008.02573.09075.06504.17602.11719.25391.02573.10362.057093.1936.095703.27148.03928.07788.071927.15649.097657.23438.05147.07721.09145.15454.11719.23242s.063767.15649.11524.23438c.025739.07788.058376.14855.097656.21289.0386.065021.071916.12363.097656.17578.20724.38874.43317.72464.67969 1.0098.24584.28512.49842.50634.75781.66211.28512.1815.64229.31079 1.0703.38867.42735.07788.9525.11719 1.5742.11719v3.1875h-14.385v-3.2656h1.3613c.05181.02573.091245.039063.11719.039063h.11524.097656.097656c.28506 0 .53091-.019994.73828-.058594.20731-.03928.38942-.084572.54492-.13672.18144-.07788.31752-.18119.4082-.31055.09068-.13003.13477-.28529.13477-.4668 0-.12936-.011179-.26598-.037109-.4082-.02594-.1429-.065375-.30482-.11719-.48633-.05181-.15577-.11097-.31769-.17578-.48633s-.12202-.34389-.17383-.52539c-.02594-.05215-.052185-.10215-.078125-.1543-.02594-.051469-.052185-.10478-.078125-.15625-.02594-.052149-.052185-.10282-.078125-.1543-.02594-.05215-.052185-.11743-.078125-.19531-.05181-.13003-.10249-.25265-.1543-.36914s-.10444-.22646-.15625-.33008c-.05181-.12935-.095886-.24128-.13477-.33203-.03887-.09075-.08491-.18672-.13672-.29102v-.078126h-9.6797c-.02594.07721-.052185.14316-.078125.19531-.02587.05147-.039062.10283-.039062.1543-.02587.07788-.052186.14384-.078126.19531-.025869.05215-.050301.10478-.076171.15625-.02594.10362-.058717.20693-.097657.31055-.03887.1043-.084838.20693-.13672.31055-.02587.07788-.058717.15522-.097657.23242-.03887.07788-.069773.15649-.095703.23438-.02587.02574-.045594.059046-.058594.097656-.01293.03928-.019531.071926-.019531.097657-.02587.052149-.045594.089497-.058593.11523-.012941.02641-.019532.065043-.019532.11719-.07775.15509-.13691.31103-.17578.4668-.03887.15509-.082887.31103-.13477.4668-.02587.15509-.052185.31103-.078125.4668-.02594.15509-.039062.29838-.039062.42773 0 .1815.032906.34411.097656.48633.06481.1429.17458.23887.33008.29102.12963.05147.34257.091451.64062.11719.29799.02573.66876.039062 1.1094.039062l1.127-.078125v3.2656h-11.547v-3.2656c.025939.02573.058782.039063.097656.039063h.097656.097656.097656c.41468 0 .79662-.025985 1.1465-.078125.34987-.05147.65293-.1288.91211-.23242.28505-.13003.55722-.35058.81641-.66211.25912-.31086.50699-.71204.74023-1.2051.05181-.12935.10242-.25265.1543-.36914.05181-.11649.10437-.22841.15625-.33203.02587-.05215.052185-.10215.078125-.1543.02587-.051469.050231-.11743.076172-.19531.025869-.05147.052185-.1041.078124-.15625.025941-.05147.052185-.10283.078126-.1543v-.058594c0-.01354.013122-.032183.039062-.058593 0 0 .006491-.006672.019531-.019532.01293-.01287.019531-.03091.019531-.05664 0-.02641.006592-.052395.019532-.078125.01293-.02641.032654-.052395.058594-.078125.051809-.07788.089291-.14983.11523-.21484.02594-.06502.065305-.13501.11719-.21289.02594-.05147.058787-.11743.097657-.19531s.071716-.15522.097656-.23242c.07775-.13003.14808-.27197.21289-.42773.064751-.15577.1239-.31103.17578-.4668l6.8418-17.072zm32.641 0h17.105c1.4778.05215 2.7726.24005 3.8867.56445 1.1148.32373 2.0478.79625 2.7988 1.418.75175.62239 1.3222 1.3881 1.7109 2.2949.38874.90752.58398 1.9711.58398 3.1895 0 1.1926-.20191 2.2429-.60352 3.1504-.40161.90752-1.0034 1.6579-1.8066 2.2539-.80322.59666-1.8215 1.0431-3.0527 1.3418-1.2312.29799-2.6621.44726-4.2949.44726l-5.793-.078125v6.3398c0 .36301.0393.66754.11719.91406.07788.24652.19452.43442.34961.56445.15577.12936.37032.22668.64258.29102.27158.06502.60149.097657.99023.097657l2.4492-.078125v3.2266h-15.084v-3.1875h2.0215c.05147.02641.1041.039063.15625.039063h.11719c.31086 0 .58343-.032647.81641-.097657.23365-.06434.41294-.16166.54297-.29102.15509-.13003.2724-.31195.34961-.54492.07788-.23365.11719-.5182.11719-.85547v-15.945c0-.28512-.039302-.54369-.11719-.77734-.07721-.23297-.19452-.41489-.34961-.54492-.15577-.12936-.36905-.23266-.64062-.31055-.27225-.07788-.60345-.11719-.99219-.11719l-2.0215-.078125v-3.2266zm42.449 0h14.967v3.2266h-2.332c-.38874.05215-.71797.11743-.99023.19531-.27225.07788-.48749.18119-.64258.31055-.15577.13003-.27173.31195-.34961.54492-.0779.23365-.11719.5182-.11719.85547v17.461h5.3652c1.3734.05147 2.4691-.11644 3.2852-.50586.81676-.38874 1.3806-.97184 1.6914-1.75.28512-.77748.50506-1.6465.66015-2.6055.15577-.95899.24771-1.9966.27344-3.1113l3.6914-.076172v11.393h-25.502v-3.1875h2.0215c.05215.02641.1041.039063.15625.039063h.11719c.31086 0 .58343-.032647.81641-.097657.23365-.06434.41361-.16166.54297-.29102.15509-.13003.27368-.31195.35156-.54492.07721-.23365.11523-.5182.11523-.85547v-15.945c0-.28512-.038027-.54369-.11523-.77734-.07788-.23297-.19647-.41489-.35156-.54492-.15577-.12936-.36837-.23266-.64062-.31055-.27225-.07788-.60344-.11719-.99219-.11719l-2.0215-.078125v-3.2266zm-31.914 3.3438v7.8945h3.2266c.05147.02574.11144.039063.17578.039063h.13672c.8811 0 1.6448-.077328 2.293-.23242.64745-.15577 1.1919-.37631 1.6328-.66211.44021-.31086.77679-.71938 1.0098-1.2246.23297-.50591.35156-1.0957.35156-1.7695 0-.72601-.11859-1.3424-.35156-1.8477-.23297-.5059-.56955-.91375-1.0098-1.2246-.44089-.28512-1.044-.50506-1.8086-.66016-.76394-.15577-1.6903-.23438-2.7793-.23438l-2.877-.078125zm-41.543 2.5293-3.3047 8.5547h6.959zm-13.113 31.002 1.5039 3.3574c6.7492 13.959 17.136 24.883 30.35 27.182l1.1602.14844v-30.688h-33.014zm38.602 0v30.918l1.3359-.06446c2.7998-.25397 5.701-.87958 8.6992-1.9219 7.506-2.6081 7.5448-2.5643 15.521.02148 3.6605 1.1865 7.1711 1.8079 10.523 1.9277h.50977v-30.881h-36.59zm42.178 0v30.467l3.4785-.6621c11.922-3.2102 21.258-13.164 27.492-25.855l1.791-3.9492h-32.762z"/></svg>