<svg viewBox="0 0 24 24" xmlns="http://www.w3.org/2000/svg" fill="#6F53F3"><path d="m19.514 7.342c.197.52.3 1.071.302 1.627 0 3.525-3.818 5.728-6.87 3.965-1.417-.818-2.289-2.329-2.289-3.965 0-3.323 3.428-5.538 6.458-4.176-1.855-1.42-4.125-2.186-6.46-2.181-5.883.002-10.65 4.769-10.655 10.653.002 5.883 4.772 10.653 10.655 10.655 5.883-.004 10.651-4.773 10.655-10.655.002-2.11-.623-4.17-1.796-5.923zm-4.673-2.676c0 3.525 3.816 5.729 6.868 3.966 1.418-.818 2.291-2.33 2.291-3.966 0-3.526-3.816-5.727-6.87-3.967-1.416.82-2.289 2.331-2.289 3.967"/></svg>