<svg xmlns="http://www.w3.org/2000/svg" xmlns:xlink="http://www.w3.org/1999/xlink" width="18" height="18" viewBox="0 0 18 18">
  <defs>
    <mask id="ko">
      <rect width="18" height="18" fill="white"/>
      <path fill="black" d="M9.559.675h-7.1a.546.546 0 0 0-.548.546v15.323a.547.547 0 0 0 .547.547h12.331a.546.546 0 0 0 .548-.546V6.414a.56.56 0 0 0-.56-.512h-4.1a.56.56 0 0 1-.561-.556V1.235a.56.56 0 0 0-.56-.56z"/>
      <path fill="black" d="m4.12 13.24 3.092-5.355 1.116.644-3.092 5.355zm4.213-4.611 1.117-.644 3.091 5.354-1.116.645zm-3.145 5.35h6.183v1.289H5.188z"/>
      <path fill="black" d="m13.6 12.488 1.819 1.818a.217.217 0 0 1 0 .307L13.6 16.432a.1.1 0 0 1-.137 0 .1.1 0 0 1-.028-.069v-1.118a.1.1 0 0 0-.1-.1h-2.271a.08.08 0 0 1-.079-.079v-1.22a.08.08 0 0 1 .079-.078h2.273a.1.1 0 0 0 .1-.1v-1.112a.1.1 0 0 1 .165-.068z"/>
      <circle fill="black" cx="8.396" cy="7.094" r="1.569"/>
      <circle fill="black" cx="4.062" cy="14.721" r="1.569"/>
      <circle fill="black" cx="13.233" cy="14.46" r="3.215"/>
    </mask>
  </defs>
  <g>
    <path fill="currentColor" mask="url(#ko)" d="M15.14 6.034 9.932.812v4.2a.965.965 0 0 0 .966.966z"/>
  </g>
</svg>