<svg height="18" viewBox="0 0 18 18" width="18" xmlns="http://www.w3.org/2000/svg" xmlns:xlink="http://www.w3.org/1999/xlink"><linearGradient id="a" gradientTransform="matrix(1 0 0 -1 0 791.516)" gradientUnits="userSpaceOnUse" x1="8.622" x2="8.622" y1="791.9" y2="773.541"><stop offset="0" stop-color="#a67af4"/><stop offset=".999" stop-color="#773adc"/></linearGradient><linearGradient id="b"><stop offset=".001" stop-color="#76bc2d"/><stop offset="1" stop-color="#86d633"/></linearGradient><linearGradient id="c" gradientTransform="matrix(.99999945 -.0010472 -.0010472 -.99999945 3.153641 789.996349)" gradientUnits="userSpaceOnUse" x1="6.352" x2="6.356" xlink:href="#b" y1="781.325" y2="784.462"/><linearGradient id="d" gradientTransform="matrix(1 0 0 -1 0 791.516)" gradientUnits="userSpaceOnUse" x1="4.062" x2="4.062" xlink:href="#b" y1="774.917" y2="778.046"/><linearGradient id="e" gradientUnits="userSpaceOnUse" x1="13.233" x2="13.233" xlink:href="#b" y1="17.675" y2="11.245"/><path d="m9.559.675h-7.1a.546.546 0 0 0 -.548.546v15.323a.547.547 0 0 0 .547.547h12.331a.546.546 0 0 0 .548-.546v-10.131a.56.56 0 0 0 -.56-.512h-4.1a.56.56 0 0 1 -.561-.556v-4.111a.56.56 0 0 0 -.56-.56z" fill="url(#a)"/><path d="m15.14 6.034-5.208-5.222v4.2a.965.965 0 0 0 .966.966z" fill="#773adc"/><path d="m4.12 13.24 3.092-5.355 1.116.644-3.092 5.355zm4.213-4.611 1.117-.644 3.091 5.354-1.116.645zm-3.145 5.35h6.183v1.289h-6.183z" fill="#6536c1"/><circle cx="8.396" cy="7.094" fill="url(#c)" r="1.569"/><circle cx="4.062" cy="14.721" fill="url(#d)" r="1.569"/><circle cx="13.233" cy="14.46" fill="url(#e)" r="3.215"/><path d="m13.6 12.488 1.819 1.818a.217.217 0 0 1 0 .307l-1.819 1.819a.1.1 0 0 1 -.137 0 .1.1 0 0 1 -.028-.069v-1.118a.1.1 0 0 0 -.1-.1h-2.271a.08.08 0 0 1 -.079-.079v-1.22a.08.08 0 0 1 .079-.078h2.273a.1.1 0 0 0 .1-.1v-1.112a.1.1 0 0 1 .165-.068z" fill="#fff"/></svg>