<svg height="18" viewBox="0 0 18 18" width="18" xmlns="http://www.w3.org/2000/svg" xmlns:xlink="http://www.w3.org/1999/xlink"><linearGradient id="a" gradientUnits="userSpaceOnUse" x1="9" x2="9" y1="22.81" y2="-2.491"><stop offset="0" stop-color="#0078d4"/><stop offset=".165" stop-color="#1c84dc"/><stop offset=".378" stop-color="#3990e4"/><stop offset=".59" stop-color="#4d99ea"/><stop offset=".799" stop-color="#5a9eee"/><stop offset="1" stop-color="#5ea0ef"/></linearGradient><linearGradient id="b" gradientUnits="userSpaceOnUse" x1="9" x2="9" y1="15.982" y2="1.522"><stop offset="0" stop-color="#d2ebff"/><stop offset=".997" stop-color="#f0fffd"/></linearGradient><rect fill="url(#a)" height="18" rx=".419" width="10.777" x="3.612"/><rect fill="#f2f2f2" height=".333" rx=".154" width="2.483" x="7.758" y=".604"/><rect fill="url(#b)" height="14.461" opacity=".9" rx=".201" width="8.754" x="4.623" y="1.522"/><rect fill="#f2f2f2" height="1.028" rx=".286" width="1.204" x="8.398" y="16.58"/><path d="m11.4 2.892v3.584a.19.19 0 0 1 -.193.192h-1.5a.047.047 0 0 0 -.047.047v.578a.094.094 0 0 1 -.151.074l-.9-.689a.05.05 0 0 0 -.029-.01h-2.606a.19.19 0 0 1 -.193-.192v-3.584a.19.19 0 0 1 .193-.192h5.236a.19.19 0 0 1 .19.192" fill="#5ea0ef"/><rect fill="#5ea0ef" height="4.782" rx=".293" width="1.683" x="5.768" y="9.88"/><rect fill="#0078d4" height="5.855" rx=".293" width="1.683" x="8.265" y="8.806"/><rect fill="#005ba1" height="6.734" rx=".293" width="1.683" x="10.761" y="7.927"/></svg>