<svg fill="#e40046" viewBox="0 0 24 24" xmlns="http://www.w3.org/2000/svg"><path d="m18.069 0h-12.137a5.934 5.934 0 0 0 -5.932 5.932v12.136a5.935 5.935 0 0 0 5.932 5.932h12.136a5.934 5.934 0 0 0 5.932-5.932v-12.136a5.934 5.934 0 0 0 -5.931-5.932m-7.361 15.404h-1.898l-.005.013-1.605 3.865a.506.506 0 1 1 -.934-.388l1.45-3.49h-2.848a.506.506 0 1 1 0-1.012h5.84a.506.506 0 1 1 0 1.012m7.919 4.165a.506.506 0 0 1 -.655-.29l-5.351-13.047-2.395 5.76h1.55a.506.506 0 1 1 0 1.012h-5.84a.506.506 0 1 1 0-1.011h3.195l.004-.012 3.022-7.269a.51.51 0 0 1 .457-.311.51.51 0 0 1 .478.314l5.816 14.182a.506.506 0 0 1 -.281.673"/></svg>