<svg viewBox="0 0 24 24" xmlns="http://www.w3.org/2000/svg"><path d="m12 0a11.999 11.999 0 0 0 -10.393 18c.001 0 .143.279.545.861.456.661.725.939.725.939l11.317-19.6s-.468-.09-1.17-.158c-.464-.044-1.024-.042-1.024-.042m4.184.755-11.834 20.493a12 12 0 0 0 1.652 1.144c5.734 3.312 13.078 1.342 16.39-4.394 3.31-5.735 1.342-13.08-4.394-16.39 0 0-.42-.236-.926-.479-.403-.193-.891-.373-.891-.373m-5.38 1.317-7.995 13.853a9.98 9.98 0 0 1 .534-8.926 9.99 9.99 0 0 1 7.463-4.928m6.197 1.268c4.78 2.759 6.42 8.88 3.66 13.66-2.758 4.779-8.881 6.42-13.66 3.66z"/></svg>