<svg xmlns="http://www.w3.org/2000/svg" width="64" height="64" viewBox="0 0 64 64"><title>Icon-Architecture/48/Arch_Amazon-Lookout-for-Equipment_48</title><g id="Icon-Architecture/48/Arch_Amazon-Lookout-for-Equipment_48" fill="none" fill-rule="evenodd" stroke="none" stroke-width="1"><g id="Icon-Architecture-BG/48/Machine-Learning" fill="#01a88d"><path id="Rectangle" d="M0 0h64v64H0z"/></g><g id="Icon-Service/48/Amazon-Lookout-for-Equipment_48" fill="#fff" transform="translate(10 10)"><path id="Fill-1" d="M32 12.497c0-3.584-2.916-6.5-6.5-6.5a6.508 6.508 0 0 0-6.214 8.412l-1.912.588a8.5 8.5 0 0 1-.374-2.5c0-4.687 3.813-8.5 8.5-8.5s8.5 3.813 8.5 8.5a8.497 8.497 0 0 1-7.501 8.442l-.232-1.986A6.497 6.497 0 0 0 32 12.497M6 39h3v-2H6zm4-4H5a1 1 0 0 0-1 1v4a1 1 0 0 0 1 1h5a1 1 0 0 0 1-1v-4a1 1 0 0 0-1-1m5 4h3v-2h-3zm4-4h-5a1 1 0 0 0-1 1v4a1 1 0 0 0 1 1h5a1 1 0 0 0 1-1v-4a1 1 0 0 0-1-1m19 7H2V8h5v24h2V21.304l7 6.542V32h2V21.304l7 6.542V33a1 1 0 0 0 1 1h12zM2 6h5V3H2zm37 26H27v-4.588a1 1 0 0 0-.317-.73l-9-8.412A1 1 0 0 0 16 19v6.109l-7-6.542V2a1 1 0 0 0-1-1H1a1 1 0 0 0-1 1v41a1 1 0 0 0 1 1h38a1 1 0 0 0 1-1V33a1 1 0 0 0-1-1m2.502-3.617c-.453.517-1.163.881-1.648.456l-6.965-6.253a12.4 12.4 0 0 0 1.966-1.797l6.889 5.878c.469.411.233 1.174-.242 1.716m1.551-3.229-6.994-5.968A12.5 12.5 0 0 0 38 12.5C38 5.608 32.393 0 25.5 0S13 5.608 13 12.5c0 1.246.183 2.476.544 3.657l1.912-.585A10.5 10.5 0 0 1 15 12.5C15 6.711 19.71 2 25.5 2S36 6.711 36 12.5c0 5.111-3.647 9.46-8.673 10.342l.346 1.97a12.4 12.4 0 0 0 3.431-1.14l7.423 6.664a2.73 2.73 0 0 0 1.812.679c.933 0 1.91-.451 2.667-1.313 1.296-1.48 1.32-3.431.047-4.548"/></g></g></svg>