<svg height="64" viewBox="0 0 64 64" width="64" xmlns="http://www.w3.org/2000/svg"><g fill="none" fill-rule="evenodd"><path d="m0 0h64v64h-64z" fill="#01a88d"/><path d="m32 12.497c0-3.584-2.916-6.5-6.5-6.5a6.508 6.508 0 0 0 -6.214 8.412l-1.912.588a8.5 8.5 0 0 1 -.374-2.5c0-4.687 3.813-8.5 8.5-8.5s8.5 3.813 8.5 8.5a8.497 8.497 0 0 1 -7.501 8.442l-.232-1.986a6.497 6.497 0 0 0 5.733-6.456m-26 26.503h3v-2h-3zm4-4h-5a1 1 0 0 0 -1 1v4a1 1 0 0 0 1 1h5a1 1 0 0 0 1-1v-4a1 1 0 0 0 -1-1m5 4h3v-2h-3zm4-4h-5a1 1 0 0 0 -1 1v4a1 1 0 0 0 1 1h5a1 1 0 0 0 1-1v-4a1 1 0 0 0 -1-1m19 7h-36v-34h5v24h2v-10.696l7 6.542v4.154h2v-10.696l7 6.542v5.154a1 1 0 0 0 1 1h12zm-36-36h5v-3h-5zm37 26h-12v-4.588a1 1 0 0 0 -.317-.73l-9-8.412a1 1 0 0 0 -1.683.73v6.109l-7-6.542v-16.567a1 1 0 0 0 -1-1h-7a1 1 0 0 0 -1 1v41a1 1 0 0 0 1 1h38a1 1 0 0 0 1-1v-10a1 1 0 0 0 -1-1m2.502-3.617c-.453.517-1.163.881-1.648.456l-6.965-6.253a12.4 12.4 0 0 0 1.966-1.797l6.889 5.878c.469.411.233 1.174-.242 1.716m1.551-3.229-6.994-5.968a12.5 12.5 0 0 0 1.941-6.686c0-6.892-5.607-12.5-12.5-12.5s-12.5 5.608-12.5 12.5c0 1.246.183 2.476.544 3.657l1.912-.585a10.5 10.5 0 0 1 -.456-3.072c0-5.789 4.71-10.5 10.5-10.5s10.5 4.711 10.5 10.5c0 5.111-3.647 9.46-8.673 10.342l.346 1.97a12.4 12.4 0 0 0 3.431-1.14l7.423 6.664a2.73 2.73 0 0 0 1.812.679c.933 0 1.91-.451 2.667-1.313 1.296-1.48 1.32-3.431.047-4.548" fill="#fff" transform="translate(10 10)"/></g></svg>