<svg xmlns="http://www.w3.org/2000/svg" width="18" height="18" viewBox="0 0 18 18"><path fill="currentColor" fill-rule="evenodd" d="M12.061.012c.534 0 1.008.401 1.178.984s1.166 4.19 1.166 4.19v7.166h-3.607L10.871 0h1.19z"/><path fill="currentColor" d="M17.356 5.611a.45.45 0 0 0-.449-.449h-2.126a2.71 2.71 0 0 0-2.709 2.709v4.494h2.575a2.71 2.71 0 0 0 2.709-2.709z"/><path fill="currentColor" fill-rule="evenodd" d="M12.061.012a.736.736 0 0 0-.741.741l-.073 13.64A3.607 3.607 0 0 1 7.64 18H1.093a.447.447 0 0 1-.425-.595L5.915 2.429A3.61 3.61 0 0 1 9.316.012h2.757z"/></svg>