<svg xmlns="http://www.w3.org/2000/svg" width="256" height="256" fill="none" viewBox="0 0 256 256"><g fill-rule="evenodd" clip-rule="evenodd"><path fill="#01933f" d="M56.484 183.994c-7.219.018-13.347-2.018-18.351-4.527-12.265-6.149-18.351-16.96-18.351-32.234q0-22.905 18.35-32.229 7.556-3.668 18.351-4.529h16.398q5.397 0 8.42 4.529 3.02 4.525 3.02 10.563c0 6.038-1.007 7.547-3.02 10.565q-3.024 4.526-8.42 4.527H56.483q-6.479.001-6.477 6.574c0 4.386 2.158 6.591 6.477 6.579l58.254-.274c3.598-.009 6.406 1.512 8.42 4.529 2.011 3.017 3.022 6.538 3.022 10.563s-1.008 7.547-3.022 10.565-4.824 4.519-8.42 4.527zm150.446-11.646v-51.601c0-3.593 1.512-6.359 4.533-8.37q4.536-3.022 10.579-3.02c6.043.002 7.555 1.004 10.58 3.02 3.021 2.011 4.533 4.777 4.533 8.37v51.601c0 3.593-1.512 6.361-4.533 8.373q-4.537 3.017-10.58 3.018c-6.043.001-7.555-1.007-10.579-3.018-3.021-2.012-4.533-4.78-4.533-8.373"/><path fill="#83c21f" d="M222.042 101.164q-6.26 0-10.686-4.42-4.425-4.42-4.426-10.672c-.001-6.252 1.476-7.726 4.426-10.673q4.426-4.418 10.686-4.417 6.261-.001 10.686 4.417 4.427 4.42 4.427 10.673c0 6.253-1.476 7.725-4.427 10.672q-4.425 4.42-10.686 4.42"/><path fill="#01933f" d="M163.754 172.312v-25.871q0-6.468-6.477-6.469h-22.23q-22.883 0-32.167-18.326-3.67-7.545-4.535-18.325v-17.25q.001-5.389 4.535-8.408 4.534-3.017 10.579-3.017 6.042 0 10.578 3.017 4.533 3.019 4.534 8.409v17.249q-.001 6.468 6.476 6.468h22.23q10.795.86 18.351 4.528 18.351 9.27 18.351 32.124v25.871q0 5.391-4.533 8.408-4.536 3.019-10.579 3.019-6.046 0-10.58-3.019-4.532-3.017-4.533-8.408"/></g></svg>