<svg xmlns="http://www.w3.org/2000/svg" fill="currentColor" fill-rule="evenodd" viewBox="0 0 24 24"><title>Search1API</title><path d="M12 0C5.373 0 0 5.372 0 12s5.373 12 12 12 12-5.373 12-12c0-6.628-5.373-12-12-12m3.581 17.071q-1.23 1.051-3.473 1.051-2.292 0-3.606-1.035-1.313-1.037-1.313-2.847h2.315q.112.795.442 1.19.602.716 2.066.716.876 0 1.423-.19 1.037-.362 1.037-1.346 0-.574-.508-.89-.508-.307-1.611-.542l-1.257-.276q-1.852-.41-2.545-.89Q7.377 11.21 7.378 9.5q0-1.559 1.147-2.59c1.147-1.031 1.89-1.032 3.372-1.032q1.858 0 3.169.973t1.375 2.823H14.11q-.064-1.047-.936-1.488-.582-.291-1.445-.292-.961 0-1.534.378t-.573 1.055q0 .623.565.929.363.206 1.542.48l2.037.48q1.339.316 2.007.843 1.038.819 1.038 2.37 0 1.59-1.23 2.642" clip-rule="evenodd"/></svg>