<svg height="64" viewBox="0 0 64 64" width="64" xmlns="http://www.w3.org/2000/svg"><g fill="none" fill-rule="evenodd"><path d="m0 0h64v64h-64z" fill="#ed7100"/><path d="m25.793 26.293-6.207 6.207 6.207 6.207 1.414-1.414-4.793-4.793 4.793-4.793zm-13.793 23.707h19v-36h-19zm-2 2h23v-40h-23zm4-20c0 8.822 7.178 16 16 16v-2c-7.72 0-14-6.28-14-14s6.28-14 14-14v-2c-8.822 0-16 7.178-16 16m20.448 7.705v2c5.352 0 9.706-4.353 9.706-9.705s-4.354-9.705-9.706-9.705v2c4.249 0 7.706 3.456 7.706 7.705s-3.457 7.705-7.706 7.705m19.552-10.871v6.333c0 .988-.804 1.792-1.792 1.792h-2.534a16.4 16.4 0 0 1 -1.087 2.616l1.794 1.794c.339.338.525.788.525 1.267s-.186.929-.525 1.267l-4.478 4.478a1.796 1.796 0 0 1 -2.534.001l-1.794-1.795a16.3 16.3 0 0 1 -2.617 1.086v2.536c0 .987-.804 1.791-1.791 1.791h-3.167v-2h2.958v-3.847l.744-.197a14.3 14.3 0 0 0 3.546-1.472l.666-.387 2.722 2.723 4.183-4.184-2.722-2.722.387-.666a14.3 14.3 0 0 0 1.472-3.545l.196-.744h3.848v-5.917h-3.848l-.196-.745a14.3 14.3 0 0 0 -1.472-3.545l-.387-.666 2.722-2.722-4.182-4.184-2.723 2.723-.666-.387a14.3 14.3 0 0 0 -3.546-1.472l-.744-.197v-3.847h-2.894v-2h3.103c.987 0 1.791.804 1.791 1.792v2.535a16.3 16.3 0 0 1 2.617 1.086l1.794-1.794a1.794 1.794 0 0 1 2.534-.001l4.478 4.479c.339.338.525.788.525 1.267s-.186.929-.525 1.267l-1.794 1.794q.659 1.267 1.087 2.617h2.534c.988 0 1.792.803 1.792 1.792" fill="#fff"/></g></svg>