<svg viewBox="0 0 24 24" xmlns="http://www.w3.org/2000/svg"><path d="m11.657 13.999a6.01 6.01 0 0 1 -5.656 4.001c-3.31 0-6.001-2.69-6.001-6s2.693-6 6.001-6a6.01 6.01 0 0 1 5.657 4.005h-3.801a2.7 2.7 0 0 0 -1.856-.732 2.73 2.73 0 0 0 -2.728 2.727 2.73 2.73 0 0 0 2.728 2.727 2.7 2.7 0 0 0 1.852-.729zm.489-3.634h4.948v3.274h-4.948a6.3 6.3 0 0 0 0-3.273m-.373 3.274h-3.591v-.008c.732-.985.717-2.3 0-3.258v-.007h3.59a5.97 5.97 0 0 1 0 3.273m12.227.36v2.912h-2.181v-1.092a1.092 1.092 0 1 0 -2.183 0v1.091h-2.182v-2.911zm-6.546-3.634h6.547v3.274h-6.546z"/></svg>