<svg viewBox="0 0 24 24" xmlns="http://www.w3.org/2000/svg"><path d="m18.087 6.146c-.3 0-.607.017-.907.069-2.532.367-4.23 2.239-5.18 3.674-.95-1.435-2.648-3.307-5.18-3.674a6.49 6.49 0 0 0 -.907-.069c-3.265 0-5.913 2.624-5.913 5.854s2.656 5.854 5.913 5.854c.3 0 .607-.017.916-.069 2.531-.376 4.23-2.247 5.18-3.683.949 1.436 2.647 3.307 5.18 3.683.299.043.607.069.915.069 3.24 0 5.896-2.624 5.896-5.854s-2.656-5.854-5.913-5.854zm-11.557 9.588a3.837 3.837 0 0 1 -.625.043c-2.148 0-3.889-1.7-3.889-3.777 0-2.085 1.749-3.777 3.898-3.777.208 0 .416.017.624.043 2.39.35 3.847 2.768 4.347 3.734-.508.974-1.974 3.384-4.355 3.734zm11.558.043c-.208 0-.416-.017-.624-.043-2.39-.35-3.856-2.768-4.347-3.734.491-.966 1.957-3.384 4.347-3.734.208-.026.416-.043.624-.043 2.149 0 3.89 1.7 3.89 3.777 0 2.085-1.75 3.777-3.89 3.777zm1.65-4.404v1.134h-1.205v1.182h-1.156v-1.182h-1.207v-1.134h1.206v-1.183h1.156v1.183zm-15.492 1.125h3.574v-1.125h-3.575v1.125z"/></svg>