<svg viewBox="0 0 128 128" xmlns="http://www.w3.org/2000/svg" xmlns:xlink="http://www.w3.org/1999/xlink"><linearGradient id="a" gradientTransform="matrix(1 0 0 -1 0 128)" gradientUnits="userSpaceOnUse" x1="96.306" x2="25.454" y1="35.144" y2="98.431"><stop offset="0" stop-color="#a9c8ff"/><stop offset="1" stop-color="#c7e6ff"/></linearGradient><linearGradient id="b" gradientTransform="matrix(1 0 0 -1 0 128)" gradientUnits="userSpaceOnUse" x1="25.336" x2="94.569" y1="98.33" y2="36.847"><stop offset="0" stop-color="#2d4664"/><stop offset=".169" stop-color="#29405b"/><stop offset=".445" stop-color="#1e2f43"/><stop offset=".79" stop-color="#0c131b"/><stop offset="1"/></linearGradient><g clip-rule="evenodd" fill-rule="evenodd"><path d="m7.2 110.5c-1.7 0-3.1-.7-4.1-1.9s-1.3-2.9-.9-4.6l18.6-80.5c.8-3.4 4-6 7.4-6h92.6c1.7 0 3.1.7 4.1 1.9s1.3 2.9.9 4.6l-18.6 80.5c-.8 3.4-4 6-7.4 6z" fill="url(#a)" opacity=".8"/><path d="m120.3 18.5h-91.8c-2.9 0-5.7 2.3-6.4 5.2l-18.4 80.6c-.7 2.9 1.1 5.2 4 5.2h91.8c2.9 0 5.7-2.3 6.4-5.2l18.4-80.5c.7-2.9-1.1-5.3-4-5.3z" fill="url(#b)"/><path d="m64.2 88.3h22.3c2.6 0 4.7 2.2 4.7 4.9s-2.1 4.9-4.7 4.9h-22.3c-2.6 0-4.7-2.2-4.7-4.9s2.1-4.9 4.7-4.9zm14.5-21.8c-.4.8-1.2 1.6-2.6 2.6l-41.5 29.8c-2.3 1.6-5.5 1-7.3-1.4-1.7-2.4-1.3-5.7.9-7.3l37.4-27.1v-.6l-23.5-25c-1.9-2-1.7-5.3.4-7.4 2.2-2 5.5-2 7.4 0l28.2 30c1.7 1.9 1.8 4.5.6 6.4z" fill="#2c5591"/><path d="m77.6 65.5c-.4.8-1.2 1.6-2.6 2.6l-41.4 29.8c-2.3 1.6-5.5 1-7.3-1.4-1.7-2.4-1.3-5.7.9-7.3l37.4-27.1v-.6l-23.5-25c-1.9-2-1.7-5.3.4-7.4 2.2-2 5.5-2 7.4 0l28.2 30c1.7 1.8 1.8 4.4.5 6.4zm-14.1 22.3h22.3c2.6 0 4.7 2.1 4.7 4.6 0 2.6-2.1 4.6-4.7 4.6h-22.3c-2.6 0-4.7-2.1-4.7-4.6 0-2.6 2.1-4.6 4.7-4.6z" fill="#fff"/></g></svg>