<svg height="48" viewBox="0 0 48 48" width="48" xmlns="http://www.w3.org/2000/svg"><path d="m9.5 21c1.379 0 2.5 1.122 2.5 2.5s-1.121 2.5-2.5 2.5a2.503 2.503 0 0 1 -2.5-2.5c0-1.378 1.121-2.5 2.5-2.5m14-9c1.379 0 2.5 1.122 2.5 2.5s-1.121 2.5-2.5 2.5a2.503 2.503 0 0 1 -2.5-2.5c0-1.378 1.121-2.5 2.5-2.5m16-8c1.379 0 2.5 1.122 2.5 2.5s-1.121 2.5-2.5 2.5a2.503 2.503 0 0 1 -2.5-2.5c0-1.378 1.121-2.5 2.5-2.5m-30 24c2.481 0 4.5-2.019 4.5-4.5a4.5 4.5 0 0 0 -.346-1.722l6.842-3.91-.045-.079a4.47 4.47 0 0 0 3.049 1.211c2.481 0 4.5-2.019 4.5-4.5 0-.447-.086-.87-.207-1.278l8.105-4.053a4.48 4.48 0 0 0 3.602 1.831c2.481 0 4.5-2.019 4.5-4.5s-2.019-4.5-4.5-4.5a4.505 4.505 0 0 0 -4.5 4.5c0 .287.033.567.085.839l-8.275 4.138a4.47 4.47 0 0 0 -3.31-1.477 4.505 4.505 0 0 0 -4.5 4.5c0 .61.125 1.191.346 1.722l-6.842 3.91.045.079a4.47 4.47 0 0 0 -3.049-1.211 4.505 4.505 0 0 0 -4.5 4.5c0 2.481 2.019 4.5 4.5 4.5m32.5 13c0 1.654-1.346 3-3 3s-3-1.346-3-3v-26h6zm4-28h-14v2h2v26c0 2.757 2.243 5 5 5s5-2.243 5-5v-26h2zm-19 28c0 1.654-1.346 3-3 3s-3-1.346-3-3v-18h6zm-10-18h2v18c0 2.757 2.243 5 5 5s5-2.243 5-5v-18h2v-2h-14zm-5 18c0 1.654-1.346 3-3 3s-3-1.346-3-3v-10h6zm-10-10h2v10c0 2.757 2.243 5 5 5s5-2.243 5-5v-10h2v-2h-14z" fill="#e7157b" fill-rule="evenodd"/></svg>