<svg height="64" viewBox="0 0 64 64" width="64" xmlns="http://www.w3.org/2000/svg"><g fill="none" fill-rule="evenodd"><path d="m0 0h64v64h-64z" fill="#e7157b"/><path d="m45.703 18h6v-6h-6zm-2 2h10v-10h-10zm-3 16h-2v2h-2v2h2v2h2v-2h2v-2h-2zm5-5h6v-6h-6zm-2 2h10v-10h-10zm-6.957-3.998 2.532-2.531-1.376-1.377-2.532 2.532zm-1.414 1.415-1.376-1.376-21.128 21.127 1.376 1.377zm6.774-3.946-27.902 27.902-4.204-4.205 27.902-27.902zm7.597 19.529h-2v3h-3v2h3v3h2v-3h3v-2h-3zm-17 5h8v-2h-8zm0-33h6v-6h-6zm-2 2h10v-10h-10zm-12-4h5v-2h-5zm2 14h2v-2h2v-2h-2v-2h-2v2h-2v2h2zm-10-14h6v-2h-6z" fill="#fff"/></g></svg>