<svg xmlns="http://www.w3.org/2000/svg" width="995.346" height="176.654" viewBox="0 0 263.352 46.74"><path fill="currentColor" d="M29.807 46.578c.191-.076.42-.067.507.021s-.068.15-.347.139c-.308-.013-.37-.075-.16-.16m-5.631-.56c-.102-.102-.68-.198-1.287-.214-1.535-.04-5.019-.649-5.322-.93-.138-.127-.525-.232-.859-.232s-1.352-.24-2.262-.534c-4.603-1.486-5.286-1.729-5.407-1.925-.072-.117-.3-.073-.505.098-.238.198-.373.836-.373 1.771v1.462l-2.183-.17c-1.2-.093-2.748-.17-3.44-.171l-1.256-.002V28.238h6.282l.183 1.39c.261 1.987 1.117 3.51 2.858 5.086 2.742 2.481 6.83 4.03 13.034 4.94 2.27.333 11.082.158 11.563-.23.189-.152.745-.363 1.235-.468 1.32-.282 3.817-1.63 4.671-2.522.411-.43.893-1.203 1.07-1.719.56-1.628-.582-3.286-3.06-4.443-.822-.383-2.578-.707-5.954-1.1-2.867-.332-6.22-.68-7.408-.77-3.513-.264-5.689-.52-5.689-.667 0-.09-.565-.178-1.256-.198-1.554-.043-4.606-.5-6.02-.9-5.004-1.416-7.54-2.677-9.545-4.743-1.33-1.37-2.493-3.234-2.493-3.993 0-.232-.09-.512-.199-.621-.207-.208-.245-.468-.491-3.426-.117-1.404-.078-1.77.175-1.614.244.15.281.017.145-.524-.1-.4-.074-.864.057-1.032.132-.168.323-.65.424-1.072.234-.978 2.205-3.549 3.444-4.494 2.2-1.679 7.07-3.867 8.602-3.867.282 0 .593-.132.692-.292.101-.164.507-.225.931-.14.413.082.812.052.885-.067.438-.708 15.395-.805 17.35-.112.218.078.753.175 1.19.217 1.234.118 3.675.682 3.969.916.145.116.77.295 1.389.397.618.102 1.124.3 1.124.438 0 .14.15.222.331.184s1.008.254 1.836.65c.827.395 1.572.719 1.653.719.082 0 .15-.595.15-1.323V1.515h6.349v7.342l-.001 7.342H47.98c-2.682 0-2.777-.02-2.777-.58 0-.318-.114-.65-.253-.735-.14-.086-.186-.331-.104-.545s.017-.388-.144-.388-.293-.176-.293-.392c0-.509-2.804-3.313-3.313-3.313-.215 0-.391-.11-.391-.246s-.268-.33-.595-.433c-.328-.102-.655-.27-.728-.372-.183-.26-4.13-1.594-4.712-1.594-.26 0-.587-.11-.725-.243-.485-.466-4.788-.914-8.85-.92-3.826-.007-7.095.344-8.335.894-.29.13-.827.317-1.19.418-.967.267-2.719 1.332-3.42 2.078-1.48 1.575-.93 3.768 1.121 4.472q2.839.973 5.036.973c.774 0 1.497.09 1.607.199s.815.21 1.566.225c.75.014 2.854.228 4.673.473 1.819.246 4.557.605 6.085.798s2.838.385 2.91.428.43.106.794.143c1.501.15 4.402.687 4.895.907.291.13.942.318 1.447.418.504.1 1.1.272 1.323.384s1.303.626 2.4 1.144c1.098.518 2.288 1.195 2.646 1.506s.772.644.92.74c.663.434 2.594 2.913 3.216 4.129.548 1.073.71 1.837.812 3.852.114 2.227.02 3.014-.597 5.027-.913 2.979-5.336 7.13-8.529 8.004-.618.17-1.124.403-1.124.518s-.215.21-.477.21c-.261 0-.589.11-.727.245-.266.26-3.464.97-5.996 1.331-1.86.265-11.72.317-11.975.063m63.228-.055a39.7 39.7 0 0 1-6.615-1.35C69.45 41.26 62.872 33.543 62.88 23.604c.007-7.645 3.59-14.179 10.104-18.425 1.73-1.128 5.172-2.746 6.4-3.008.482-.104.995-.28 1.14-.392.146-.112.801-.29 1.456-.397.655-.106 1.371-.287 1.591-.403.221-.115 2.417-.415 4.88-.665 12.999-1.322 23.824 1.557 30.322 8.062 4.107 4.112 6.07 8.894 6.07 14.792 0 2.756-.729 7.1-1.316 7.848-.114.146-.295.562-.403.926-.107.364-.833 1.629-1.614 2.81-4.087 6.191-11.387 9.99-21.538 11.21-2.287.276-10.227.276-12.568 0m9.656-6.099c1.228-.154 2.356-.378 2.506-.498s.642-.298 1.094-.394c1.504-.321 4.715-2.433 6.338-4.169 5.827-6.229 6.045-16.197.496-22.697-4.06-4.756-10.9-7.013-17.255-5.693-5.754 1.195-10.108 4.505-12.44 9.458-3.323 7.056-1.326 15.997 4.578 20.493 1.63 1.24 4.443 2.721 5.172 2.722.226 0 .527.117.67.26.638.638 5.577.927 8.84.518m33.868 1.603V38.82h3.32c3.17 0 3.347-.029 3.968-.649l.65-.65V23.397c0-13.623-.02-14.148-.516-14.721-.692-.798-2.05-1.085-4.909-1.037l-2.38.04-.076-2.685-.076-2.684h20.605l3.664 3.382c7.398 6.83 23.878 21.753 24.021 21.753.278 0 .159-18.005-.123-18.532-.483-.903-1.39-1.143-4.889-1.295l-3.44-.149-.075-2.58-.076-2.58h24.89v5.557h-6.578l-.548.769c-.54.758-.547 1.002-.547 18.124v17.355h-8.659l-4.864-4.401a2749 2749 0 0 0-7.114-6.416 350 350 0 0 1-3.837-3.491 337 337 0 0 0-4.365-3.945 989 989 0 0 1-9.996-9.044c-.769-.703-1.512-1.278-1.652-1.278-.16 0-.23 4.137-.19 11.128l.064 11.128.661.508c.572.439 1.12.508 4.035.514l3.373.005v5.292h-24.341zm86.76 2.448c-.013-.11-.035-1.314-.049-2.676l-.025-2.477 3.29.042c4.617.058 4.327.426 4.435-5.626l.086-4.893-.895-1.015c-.493-.56-4.179-4.767-8.19-9.35-4.012-4.585-7.674-8.692-8.137-9.129-.834-.785-.882-.795-4.465-.926l-3.622-.132-.047-2.712-.047-2.712h14.224c7.824 0 14.275.049 14.335.109s.073 1.305.027 2.767l-.084 2.659-2.03.076c-1.554.06-2.048.17-2.106.475-.066.344 1.821 2.82 4.133 5.423.388.437 1.818 2.133 3.179 3.77s2.55 2.969 2.643 2.958 1.087-1.112 2.209-2.447a408 408 0 0 1 5.832-6.827c2.655-3.05 2.436-3.671-1.29-3.671h-1.422V2.308h23.68v5.555h-3.52c-4.07.001-4.487.142-6.018 2.035-.566.7-1.973 2.345-3.128 3.655a544 544 0 0 0-2.786 3.18c-.378.44-1.768 2.048-3.088 3.573s-2.69 3.12-3.043 3.544c-.353.425-1.334 1.546-2.18 2.492l-1.536 1.718.082 5.005c.075 4.597.123 5.036.595 5.38.38.278 1.396.375 3.903.375h3.389v5.294h-14.156c-7.785 0-14.165-.09-14.178-.198"/></svg>