<svg viewBox="0 0 24 24" xmlns="http://www.w3.org/2000/svg"><path d="m12 0a12 12 0 1 1 0 24 12 12 0 0 1 0-24m7.167 19.18a10.08 10.08 0 0 0 2.971-7.169v-.548l-.499.002h-6.68v1.12h6.038l-.002.034a9.04 9.04 0 0 1 -8.993 8.41 8.96 8.96 0 0 1 -6.375-2.642 8.96 8.96 0 0 1 -2.64-6.376c0-2.406.939-4.67 2.64-6.373a8.96 8.96 0 0 1 6.373-2.64l.572.007v-1.123l-.57-.006a10.15 10.15 0 0 0 -10.138 10.134c0 2.708 1.055 5.253 2.97 7.17a10.08 10.08 0 0 0 7.166 2.97 10.08 10.08 0 0 0 7.171-2.97m-6.6-2.942v-9.581h-1.14v10.705h3.529v-1.123h-2.39zm-2.867-8.055a1.533 1.533 0 1 0 -3.067-.01 1.533 1.533 0 0 0 3.067.01" fill="#c00c3f"/></svg>