<svg height="18" viewBox="0 0 18 18" width="18" xmlns="http://www.w3.org/2000/svg" xmlns:xlink="http://www.w3.org/1999/xlink"><linearGradient id="a" gradientUnits="userSpaceOnUse" x1="9" x2="9" y1="16.795" y2="1.205"><stop offset="0" stop-color="#5e9624"/><stop offset=".321" stop-color="#639d26"/><stop offset=".794" stop-color="#6fb12a"/><stop offset=".999" stop-color="#76bc2d"/></linearGradient><path d="m16.083 8.438c0 4.571-5.626 8.25-6.85 9a.45.45 0 0 1 -.466 0c-1.224-.747-6.85-4.426-6.85-9v-5.5a.44.44 0 0 1 .434-.438c4.377-.114 3.369-2 6.649-2s2.272 1.886 6.649 2a.44.44 0 0 1 .434.435z" fill="#76bc2d"/><path d="m15.5 8.485c0 4.191-5.16 7.566-6.282 8.25a.41.41 0 0 1 -.428 0c-1.126-.684-6.29-4.059-6.29-8.25v-5.044a.4.4 0 0 1 .4-.4c4.016-.106 3.092-1.836 6.1-1.836s2.084 1.73 6.1 1.837a.4.4 0 0 1 .4.4z" fill="url(#a)"/><path d="m11.853 7.66h-.408v-1.417a2.65 2.65 0 0 0 -.7-1.809 2.36 2.36 0 0 0 -3.483 0 2.6 2.6 0 0 0 -.7 1.808v1.418h-.415a.33.33 0 0 0 -.326.32v3.682a.33.33 0 0 0 .326.32h5.706a.33.33 0 0 0 .326-.32v-3.682a.33.33 0 0 0 -.326-.32m-1.549 0h-2.604v-1.441a1.43 1.43 0 0 1 .41-.99 1.2 1.2 0 0 1 1.788 0 1.4 1.4 0 0 1 .153.2 1.45 1.45 0 0 1 .258.791z" fill="#fff"/><path d="m6.148 7.658h5.705a.33.33 0 0 1 .21.08l-6.125 4.162a.31.31 0 0 1 -.116-.241v-3.68a.33.33 0 0 1 .326-.321" fill="#b3b3b3" opacity=".15"/><path d="m11.853 7.658h-5.706a.33.33 0 0 0 -.209.08l6.124 4.162a.31.31 0 0 0 .117-.241v-3.68a.33.33 0 0 0 -.326-.321" fill="#a3a3a3" opacity=".09"/></svg>