<svg xmlns="http://www.w3.org/2000/svg" width="300" height="38.978" viewBox="0 0 300 38.978"><path d="m133.62 35.58 1.046-2.03h.056l1.046 2.03zm13.528-4.198h-8.082c-.033.523-.104 1.15-.181 1.91h.704c.223-.592.433-.864.635-1.038.258-.189.704-.307 1.827-.307h.293v4.651c0 1.123-.147 1.234-1.395 1.283-.781-.05-1.08-.119-1.597-1.039-.655-1.08-1.353-2.329-2.085-3.598l-1.13-2.022-1.157.16-3.348 5.502c-.53.879-.788.928-1.59.998-1.15-.07-1.178-.12-1.227-1.284l-.174-3.556c-.033-1.123.022-1.158 1.29-1.227v-.433h-4.058l-2.546 4.226-2.929-4.226h-3.905v.433c1.304.07 1.43.174 1.318 1.52l-.188 2.155c-.077.969-.182 1.548-.251 1.855-.12.397-.433.509-1.242.537v.44h4.136v-.44c-1.081-.05-1.45-.14-1.507-.537-.076-.307-.09-.823-.055-1.765l.132-2.357h.017l3.068 4.986h.9l3.228-5.362h.07l.063 3.751c0 1.193-.045 1.235-1.304 1.284v.44h9.003v-.44l-.496-.017c-.76-.056-.76-.16-.537-.628l.502-1.025h2.74l.6 1.095c.216.397.196.502-.446.544l-.502.028v.44h10.97v-.44c-1.41-.05-1.542-.119-1.542-1.283v-4.652h.405c.802 0 1.36.063 1.638.273.258.167.433.44.67 1.074l.76-.028c-.084-.663-.126-1.395-.181-1.883h-1.311zM91.144 35.58l1.04-2.03h.039l1.06 2.03h-2.141zm5.712 1.262a168 168 0 0 1-2.064-3.598l-1.158-2.022-1.15.16-3.327 5.502c-.558.886-.802.949-1.646.998v.44h3.891v-.44l-.494-.017c-.767-.056-.788-.16-.544-.628l.502-1.025h2.733l.6 1.095c.237.397.202.502-.44.544l-.488.028v.44h5.237v-.44c-.822-.05-1.108-.112-1.652-1.04m64.274 1.06c-1.639 0-2.747-1.38-2.747-3.326 0-1.855 1.053-2.789 2.343-2.789 1.436 0 2.636 1.172 2.636 3.32 0 1.931-.788 2.796-2.232 2.796m-.09-6.68c-3.99 0-5.782 2-5.782 3.723 0 1.96 2.197 3.536 5.572 3.536 3.201 0 5.628-1.43 5.628-3.717 0-2.106-2.35-3.543-5.419-3.543m-55.062.593c1.109.022 1.555.16 1.653.53.05.341.111.92.111 2.03v1.429h-.039l-5.544-4.421h-3.689v.432c.593.022 1.018.104 1.27.328.327.286.362.432.362 1.213v1.967c0 1.123-.07 1.715-.119 2.022-.104.377-.53.523-1.248.537v.44h4.142v-.44c-1.095-.016-1.555-.16-1.639-.537-.05-.307-.132-.9-.132-2.022v-1.967h.04l6.17 5.014h1.451v-3.996c0-1.108.04-1.687.105-2.029.09-.37.522-.51 1.36-.53 1.136.056 1.262.132 1.262 1.276v3.508c0 1.165-.126 1.234-1.263 1.283v.44h5.405v-.44c-1.158-.05-1.297-.119-1.297-1.283v-3.508c0-1.143.14-1.22 1.297-1.276v-.432h-9.658zM.001 35.41h87.35v-.683H.001zm174.302-3.598c1.095.022 1.548.16 1.639.53.076.341.132.92.132 2.03v1.429h-.028l-5.572-4.421h-3.675v.432c.593.022 1.025.104 1.262.328.314.286.363.432.363 1.213v1.967c0 1.123-.07 1.715-.133 2.022-.083.377-.53.523-1.255.537v.44h4.163v-.44c-1.116-.016-1.562-.16-1.646-.537-.063-.307-.14-.9-.14-2.022v-1.967h.051l6.158 5.014h1.45v-3.996c0-1.108.056-1.687.133-2.029.098-.37.516-.51 1.353-.53v-.432h-4.254v.432zm37.998 3.598h87.364v-.683h-87.364zM17.525 4.322c0-.997.045-1.938.39-2.008.461-.16 1.312-.279 2.853-.279 5.614 0 12.817 2.399 12.817 11.011 0 7.071-5.753 10.879-11.436 10.879-3.166 0-4.624-.69-4.624-4.24zm36.234 5.035c0-1.192.14-1.297 2.106-1.297 1.793 0 4.638.963 4.638 3.864 0 1.45-.69 2.866-2.615 3.807-.879.432-2.016.523-3.487.523h-.642zm47.141 3.25h.132l2.93 5.74H98.02zM209.163 7.67c4.017 0 7.364 3.326 7.364 9.344 0 5.426-2.196 7.922-6.185 7.922-4.575 0-7.727-3.96-7.727-9.386 0-5.244 2.964-7.88 6.548-7.88m23.459 1.666c0-1.206.133-1.276 2.1-1.276 1.784 0 4.643.963 4.643 3.843 0 1.471-.704 2.873-2.629 3.828-.864.412-1.987.51-3.465.51h-.649zm-186.84 2.455c0-1.367-.44-2.699-1.137-3.863 1.437.257 1.66.983 1.66 3.438v9.888c0 3.229-.37 3.431-3.682 3.626v1.172h14.7V24.88c-3.187-.195-3.564-.397-3.564-3.626V17.67h.593c.893 0 1.52.439 1.967 1.074 1.157 1.68 2.454 3.535 3.87 4.804 1.834 1.737 3.368 2.643 9.986 2.748l1.994.011.034-.258h20.732v-.044h5.795v-1.15l-1.374-.099c-2.14-.167-2.14-.46-1.534-1.743l1.402-2.887h7.629l1.673 3.075c.6 1.053.516 1.374-1.206 1.514l-1.416.14v1.15h8.57v.044h11.5v-1.171c-3.027-.16-4.052-.433-4.226-1.527-.189-.949-.223-2.378-.098-4.959l.328-6.638h.077l8.55 13.96h2.517l8.968-15.013h.167l.174 10.53c.028 3.347-.112 3.424-3.591 3.647v1.171h14.574v-1.171c-3.368-.223-3.459-.3-3.584-3.647l-.474-10.014c-.133-2.643 0-3.16 2.099-3.39l9.84 18.501h5.11l8.864-16.269h.126l9.735 16.248h5.09a355 355 0 0 1 6.249-12.468c-.35.913-.53 1.813-.53 2.726 0 5.516 6.101 9.917 15.502 9.917 8.849 0 15.592-3.954 15.725-10.23v4.979c0 3.221-.37 3.452-3.675 3.647v1.15h14.693v-1.15c-3.194-.195-3.564-.425-3.564-3.647v-3.585h.586c.9 0 1.541.447 1.96 1.067 1.171 1.68 2.468 3.543 3.863 4.833 1.862 1.736 3.403 2.629 10.02 2.72l1.988.039.045-.28h12.636v-1.15c-3.292-.202-3.661-.425-3.661-3.647v-4.791h.084c3.41 3.27 7.81 7.67 9.574 9.589h10.704v-.705c.593.174 1.486.37 2.727.649 1.248.258 3.18.488 5.042.488 7.21 0 11.813-2.685 11.813-6.36 0-3.521-3.675-5.042-7.964-6.31l-1.011-.287c-2.992-.878-4.805-1.736-4.805-3.235 0-1.437 1.68-2.601 4.059-2.601 3.689 0 5.307 2.12 6.318 4.1l2.05-.195c-.502-2.043-.837-3.515-1.018-4.68-.593-.139-1.339-.25-2.42-.418a24.6 24.6 0 0 0-4.268-.384c-7.308.012-11.13 2.769-11.13 6.137 0 3.222 4.324 4.784 8.132 5.92l.697.196c2.852.865 4.651 1.855 4.651 3.619 0 1.946-1.855 2.95-4.295 2.95-4.547 0-7.28-3.334-8.264-5.056l-2.036.397c.495 1.806 1.018 3.278 1.409 4.56-1.674-.16-2.588-.557-4.924-2.558-2.936-2.51-6.01-5.265-8.912-8.124 1.98-1.458 4.303-2.992 6.806-4.554 2.42-1.52 3.87-1.674 6.527-1.848V6.555h-12.489v1.172l1.764.097c1.256.098.767.719.105 1.249-2.713 2.287-5.537 4.484-8.926 6.945V11.36c0-3.236.37-3.459 3.431-3.633V6.555H248.97v1.172c3.264.174 3.64.397 3.64 3.633v9.868c0 3.012-.376 3.403-2.83 3.584a8.5 8.5 0 0 1-1.402-.816c-.719-.614-1.758-1.618-3.34-3.208a66 66 0 0 1-3.718-4.275c3.438-.871 6.005-2.433 6.005-5.076 0-1.765-1.41-3.117-3.25-3.87-1.827-.733-4.24-1.012-7.887-1.012h-14.533v1.172c3.145.174 3.515.397 3.515 3.633v4.512c-.133-5.83-6.646-9.77-15.09-9.77-7.762 0-12.56 2.755-14.757 6.06 2.064-3.842 3.445-6.36 3.627-6.625 2.245-3.528 2.845-3.654 6.562-3.975V0h-15.83v1.562l2.496.168c2.852.209 3.055.6 2.204 2.88-.935 2.357-3.382 8.012-5.711 12.698h-.112L178.489.251h-4.65l-8.641 17.057h-.14l-6.29-13.451c-.795-1.632-.592-1.918 1.862-2.127l2.12-.168V0h-20.641v1.562c3.026.251 4.212.419 5.99 3.717l.697 1.29h-9.17l-7.113 11.855-8.159-11.855h-10.927v1.172c3.66.202 4.058.53 3.724 4.282l-.51 6.066c-.243 2.727-.543 4.31-.76 5.258-.055.265-.16.481-.34.663-.496-.397-.998-1.06-1.605-2.1a721 721 0 0 1-5.76-10.16l-3.166-5.662-3.214.419-9.073 15.097c-.865.92-1.855 1.555-2.475 1.96-1.032.732-3.076.885-4.938.885-1.443 0-2.503 0-3.263-.244-.83-.265-.928-1.004-.928-2.573v-4.875h2.336c3.996 0 4.122.174 4.617 2.818h2.036v-7.086h-2.036c-.496 2.295-.62 2.455-4.617 2.455h-2.336V9.17c0-1.046.098-1.046 1.87-1.046h.801c2.448 0 3.982.167 4.735.69.746.482 1.248 1.318 1.723 2.79l2.036-.091a727 727 0 0 0-.509-4.944h-22.05V7.74c3.103.161 3.473.384 3.473 3.62v9.867c.022 2.713-.244 3.291-2.455 3.529a8 8 0 0 1-1.227-.76c-.726-.6-1.737-1.618-3.348-3.208a68 68 0 0 1-3.71-4.275c3.438-.872 6.005-2.42 6.005-5.056 0-1.785-1.395-3.117-3.264-3.87-1.806-.753-4.233-1.018-7.873-1.018H43.693c-1.011-1.193-2.239-2.19-3.598-2.999C35.666.99 28.881.02 20.771.02H1.434v1.57c4.31.223 4.846.516 4.846 4.825V19.63c0 4.31-.536 4.61-5.37 4.847v1.569h17.079c15.272 0 27.796-4.282 27.796-14.261m103.396 20.02c1.15.057 1.29.133 1.29 1.277v3.508c0 1.164-.14 1.234-1.29 1.283v.44h5.39v-.44c-1.13-.05-1.283-.12-1.283-1.283v-3.508c0-1.144.153-1.22 1.283-1.276v-.433h-5.39zm37.524 2.156-.335-.12c-1.004-.3-1.597-.606-1.597-1.15 0-.509.558-.913 1.332-.913 1.255 0 1.8.746 2.148 1.457l.683-.077a38 38 0 0 1-.355-1.653c-.202-.055-.453-.097-.823-.167a9 9 0 0 0-1.402-.126c-2.434 0-3.745.998-3.745 2.183 0 1.158 1.45 1.716 2.74 2.12l.238.056c.97.3 1.562.655 1.562 1.29 0 .704-.628 1.08-1.45 1.08-1.528 0-2.434-1.213-2.776-1.812l-.683.14c.181.697.404 1.268.522 1.77.202.056.516.161.984.273.425.083 1.039.16 1.694.16 2.385 0 3.94-.949 3.94-2.267 0-1.248-1.234-1.799-2.678-2.245m9.45.104c.62-.522 1.429-1.053 2.252-1.61.823-.544 1.31-.593 2.183-.677v-.404h-4.184v.404l.592.05c.426.05.259.258.034.453a40 40 0 0 1-2.97 2.455v-1.653c0-1.143.11-1.22 1.157-1.304v-.404h-4.868v.404c1.088.084 1.207.16 1.207 1.304v3.529c0 1.15-.12 1.213-1.123 1.283v.432h4.853v-.432c-1.115-.07-1.262-.132-1.227-1.283v-1.702h.022c1.137 1.165 2.615 2.727 3.215 3.417h3.584v-.432c-.648-.034-.927-.14-1.764-.928-.983-.892-2.022-1.869-2.964-2.9m9.673 1.373c1.638.077 1.687.16 1.687.879v1.018c0 .488-.23.607-.627.607-2.155 0-3.18-1.576-3.18-3.222 0-1.82 1.353-2.943 3.005-2.943 1.018 0 2.309.28 2.797 1.695l.67-.034c-.12-1.018-.21-1.576-.245-1.931-.544-.12-1.765-.293-2.97-.293-3.313 0-6.158 1.262-6.158 3.71 0 2.175 2.231 3.549 5.934 3.549 1.304 0 2.566-.237 3.529-.411-.091-.258-.091-.586-.091-.983v-.76c0-.768.05-.775.85-.88v-.48h-5.202z"/></svg>