<svg xmlns="http://www.w3.org/2000/svg" viewBox="0 0 24 24"><defs><mask id="a"><path fill="#fff" d="M0 0h24v24H0z"/><path d="M18.69 12.005A5.82 5.82 0 0 0 12 10.904l7.188 7.188a.562.562 0 0 0 .933-.22 5.82 5.82 0 0 0-1.431-5.867"/><path d="M5.31 12.005A5.82 5.82 0 0 1 12 10.904l-7.188 7.188a.562.562 0 0 1-.933-.22 5.82 5.82 0 0 1 1.431-5.867"/><path d="M18.157 6.426c-2.86 0-5.288 1.875-6.157 4.478h11.367a.63.63 0 0 0 .565-.908c-1.08-2.12-3.26-3.57-5.775-3.57"/><path d="M13.188 3.384c-2.023 2.024-2.414 5.064-1.188 7.52l8.038-8.039a.63.63 0 0 0-.242-1.042c-2.264-.735-4.83-.217-6.608 1.561"/><path d="M10.812 3.384c2.023 2.024 2.414 5.064 1.188 7.52L3.962 2.865a.63.63 0 0 1 .242-1.042c2.264-.735 4.83-.217 6.608 1.561"/><path d="M5.843 6.426c2.86 0 5.288 1.875 6.157 4.478H.633a.63.63 0 0 1-.565-.908c1.08-2.12 3.26-3.57 5.775-3.57"/></mask></defs><path fill="currentColor" d="M12 22.926c.928 0 1.679-.752 1.679-1.68V6.696h-3.358v14.552c0 .927.751 1.679 1.679 1.679z" mask="url(#a)"/></svg>