<svg viewBox="0 0 24 24" xmlns="http://www.w3.org/2000/svg"><path d="m12 22.926c.928 0 1.679-.752 1.679-1.68v-14.55h-3.358v14.552c0 .927.751 1.679 1.679 1.679z" fill="#f9ab00"/><path d="m18.69 12.005a5.82 5.82 0 0 0 -6.69-1.101l7.188 7.188a.562.562 0 0 0 .933-.22 5.82 5.82 0 0 0 -1.431-5.867" fill="#5bb974"/><path d="m5.31 12.005a5.82 5.82 0 0 1 6.69-1.101l-7.188 7.188a.562.562 0 0 1 -.933-.22 5.82 5.82 0 0 1 1.431-5.867" fill="#129eaf"/><path d="m18.157 6.426c-2.86 0-5.288 1.875-6.157 4.478h11.367a.63.63 0 0 0 .565-.908c-1.08-2.12-3.26-3.57-5.775-3.57" fill="#af5cf7"/><path d="m13.188 3.384c-2.023 2.024-2.414 5.064-1.188 7.52l8.038-8.039a.63.63 0 0 0 -.242-1.042c-2.264-.735-4.83-.217-6.608 1.561" fill="#ff8bcb"/><path d="m10.812 3.384c2.023 2.024 2.414 5.064 1.188 7.52l-8.038-8.039a.63.63 0 0 1 .242-1.042c2.264-.735 4.83-.217 6.608 1.561" fill="#fa7b17"/><path d="m5.843 6.426c2.86 0 5.288 1.875 6.157 4.478h-11.367a.63.63 0 0 1 -.565-.908c1.08-2.12 3.26-3.57 5.775-3.57" fill="#4285f4"/></svg>