<svg height="48" viewBox="0 0 48 48" width="48" xmlns="http://www.w3.org/2000/svg"><path d="m42.208 24.707-4.375 4.375-1.414-1.414 2.668-2.668h-14.087v14.086l2.668-2.668 1.414 1.414-4.375 4.375a.997.997 0 0 1 -1.414 0l-4.375-4.375 1.414-1.414 2.668 2.668v-14.086h-14.085l2.668 2.668-1.414 1.414-4.375-4.375a1 1 0 0 1 0-1.414l4.375-4.376 1.414 1.414-2.668 2.669h14.085v-14.087l-2.668 2.668-1.414-1.414 4.375-4.375a1 1 0 0 1 1.414 0l4.375 4.375-1.414 1.414-2.668-2.668v14.087h14.087l-2.668-2.669 1.414-1.414 4.375 4.376a1 1 0 0 1 0 1.414m-18.208 19.293c-11.028 0-20-8.972-20-20s8.972-20 20-20 20 8.972 20 20-8.972 20-20 20m0-42c-12.13 0-22 9.869-22 22s9.87 22 22 22 22-9.869 22-22-9.869-22-22-22" fill="#8c4fff" fill-rule="evenodd"/></svg>