<svg viewBox="0 0 24 24" xmlns="http://www.w3.org/2000/svg"><path d="m.011 0v8.406h8.599v-8.406zm15.39 0v8.406h8.599v-8.406zm-6.429.658.012 7.869 2.54 2.43.007-5.564zm6.066 0-2.555 4.735.004 5.564 2.54-2.43zm-14.706 8.11 5.52 2.677 5.655-.006-2.773-2.67zm14.944 0-2.746 2.722 5.655-.09 5.498-2.631zm-9.323 3.855-5.635 2.609h8.405l2.748-2.722zm6.565-.113 2.747 2.722h8.402l-5.586-2.609zm-1.006.533-2.54 2.43-.011 7.873 2.555-4.74zm.964 0-.008 5.564 2.559 4.74-.011-7.874zm-12.476 2.555v8.402h8.598v-8.402zm15.39 0v8.402h8.598v-8.402z"/></svg>