<svg xmlns="http://www.w3.org/2000/svg" width="18" height="18" viewBox="0 0 18 18"><path fill="currentColor" d="M14.087 5.605H.442a.427.427 0 0 0-.442.41v9.464a.43.43 0 0 0 .443.4h13.644a.42.42 0 0 0 .435-.4V6a.42.42 0 0 0-.435-.395"/><path fill="currentColor" d="M15.826 3.866H2.182a.43.43 0 0 0-.443.411v9.463a.426.426 0 0 0 .443.394h13.644a.42.42 0 0 0 .435-.394V4.26a.42.42 0 0 0-.435-.394"/><path fill="currentColor" d="M17.556 2.149H3.933a.426.426 0 0 0-.441.411v9.448a.426.426 0 0 0 .442.394h13.622a.42.42 0 0 0 .434-.394V2.543a.417.417 0 0 0-.434-.394"/><g fill="currentColor"><rect width="1.234" height="7.53" x="13.527" y="3.414" opacity=".9" rx=".119"/><rect width="6.904" height="1.56" x="4.803" y="9.392" opacity=".6" rx=".128"/><rect width="1.234" height="4.45" x="15.419" y="6.494" opacity=".9" rx=".091"/><path d="M10.835 3.869 9.119 6.922 7.305 5.073 5.434 7.498l.439.344 1.483-1.913L9.24 7.851l2.081-3.702z"/><ellipse cx="7.326" cy="5.499" rx=".705" ry=".709"/><ellipse cx="9.24" cy="7.258" rx=".705" ry=".709"/><ellipse cx="11.016" cy="4.097" rx=".705" ry=".709"/><ellipse cx="5.727" cy="7.567" rx=".705" ry=".709"/></g>​</svg>