<svg xmlns="http://www.w3.org/2000/svg" width="74" height="74" viewBox="0 0 74 74"><title>Icon-Architecture-Category/48/Contact-Center_48</title><g id="Icon-Architecture-Category/48/Contact-Center_48" fill="none" fill-rule="evenodd" stroke="none" stroke-width="1"><path id="Rectangle" fill="#dd344c" d="M5 5h64v64H5z"/><path id="#879196-Border-Copy-6" stroke="#879196" stroke-width="2" d="M1 1h72v72H1z"/><g id="Icon-Category/48/Contact-Center_48" fill="#fff" transform="translate(16.65 14.9)"><path id="Fill-4" d="M2.662 42.032c3.972-6.97 10.434-11.125 17.554-11.201 3.88-.081 7.702 1.176 11.05 3.522 2.635 1.846 4.966 4.502 6.803 7.738zm6.972-24.289c0-5.867 4.773-10.641 10.64-10.641s10.641 4.774 10.641 10.641a10.64 10.64 0 0 1-1.675 5.713 2.97 2.97 0 0 0-1.518-.427h-3.044c-1.655 0-3 1.346-3 3 0 .816.33 1.554.86 2.095-.743.161-1.5.26-2.264.26-5.867 0-10.64-4.773-10.64-10.641m-2.267 4.286h-.589c-1.329 0-2.41-1.056-2.41-2.354v-2.292c0-1.298 1.081-2.354 2.41-2.354h.59zM20.333 2c6.748 0 12.57 4.727 13.893 11.056-.09-.006-.177-.027-.27-.027h-1.589a1 1 0 0 0-.347.07c-1.856-4.677-6.416-7.997-11.746-7.997-5.316 0-9.868 3.304-11.732 7.962-.059-.01-.113-.035-.175-.035H6.778c-.113 0-.22.025-.332.033C7.806 6.711 13.642 2 20.333 2m16.034 15.383v2.292c0 1.298-1.082 2.354-2.41 2.354h-.59v-7h.59c1.328 0 2.41 1.056 2.41 2.354m-4.666 8.646h-.979c0-.329-.067-.64-.165-.936.36-.503.672-1.034.952-1.58a.99.99 0 0 0 .858.516h1.59c.177 0 .346-.031.52-.052-.479 1.121-1.359 2.052-2.776 2.052m-3.979 1h-3.044a1.001 1.001 0 0 1 0-2h3.044c.551 0 1 .449 1 1s-.449 1-1 1m12.908 15.62c-2.083-4.193-4.925-7.628-8.216-9.934-2.26-1.583-4.72-2.7-7.275-3.318q.401-.17.792-.368h1.791a2.98 2.98 0 0 0 2.22-1h1.76c3.036 0 4.737-2.504 5.131-5.081.932-.799 1.534-1.963 1.534-3.273v-2.292c0-1.517-.792-2.852-1.988-3.632l-.006-.085C35.255 5.875 28.36 0 20.333 0 12.425 0 5.543 5.78 4.346 13.352l-.129.5c-1.116.791-1.85 2.075-1.85 3.531v2.292c0 2.4 1.98 4.354 4.411 4.354h1.59a.99.99 0 0 0 .75-.357 12.7 12.7 0 0 0 6.365 5.763C9.064 31.026 3.507 35.701.103 42.586a1 1 0 0 0 .895 1.443l38.734.065h.002a1 1 0 0 0 .896-1.445"/></g></g></svg>