<svg height="24" width="24" xmlns="http://www.w3.org/2000/svg"><g fill-rule="evenodd"><path d="m16.64 15.13.74-1.25h3.53l1.09-1.88-2.18-3.75h-3.07l-1.06-1.86h-1.19v-1.26h1.94l1.06 1.87h1.59l-2.19-3.75h-4.27v5h1.73l.73 1.25h-2.46v2.5h2.26l1.05-1.87h2.81l.72 1.25h-2.8l-1.05 1.87h-2.99v4.38h3.4l-.72 1.25h-2.68v1.87h4.27l3.28-5.62h-2.09l-.73 1.25h-2.86v-1.25z" fill="#4285f4"/><path d="m7.36 15.13-.74-1.25h-3.53l-1.09-1.88 2.18-3.75h3.07l1.06-1.86h1.19v-1.26h-1.94l-1.06 1.87h-1.59l2.19-3.75h4.28v5h-1.74l-.73 1.25h2.47v2.5h-2.27l-1.05-1.87h-2.81l-.72 1.25h2.8l1.05 1.87h3v4.38h-3.41l.72 1.25h2.69v1.87h-4.28l-3.28-5.62h2.09l.73 1.25h2.86v-1.25z" fill="#669df6"/></g></svg>