<svg height="18" viewBox="0 0 18 18" width="18" xmlns="http://www.w3.org/2000/svg" xmlns:xlink="http://www.w3.org/1999/xlink"><linearGradient id="a" gradientUnits="userSpaceOnUse" x1="9" x2="9" y1="12.513" y2="1.065"><stop offset="0" stop-color="#0078d4"/><stop offset=".817" stop-color="#5ea0ef"/></linearGradient><linearGradient id="b" gradientUnits="userSpaceOnUse" x1="9.003" x2="9.003" y1="16.935" y2="12.512"><stop offset=".149" stop-color="#ccc"/><stop offset="1" stop-color="#707070"/></linearGradient><linearGradient id="c" gradientUnits="userSpaceOnUse" x1="9.029" x2="9.029" y1=".189" y2="10.695"><stop offset="0" stop-color="#0078d4"/><stop offset="1" stop-color="#005ba1"/></linearGradient><rect fill="url(#a)" height="11.447" rx=".548" width="17.171" x=".415" y="1.065"/><path d="m12.443 15.975c-1.7-.265-1.764-1.49-1.759-3.463h-3.368c0 1.973-.062 3.2-1.76 3.463a1 1 0 0 0 -.846.96h8.59a1 1 0 0 0 -.857-.96" fill="url(#b)"/><circle cx="9.029" cy="6.685" fill="url(#c)" r="4.045"/><path d="m11.41 5.367v2.759l-2.385 1.387v-2.764z" fill="#50e6ff"/><path d="m11.41 5.367-2.384 1.386-2.385-1.386 2.385-1.387z" fill="#c3f1ff"/><path d="m9.031 6.763-.024 2.76-2.372-1.407.024-2.76z" fill="#9cebff"/><path d="m12.23 3.582a.324.324 0 0 0 -.459 0 .336.336 0 0 0 0 .471 3.865 3.865 0 1 1 -2.9-1.133l-.047.253a.125.125 0 0 0 .166.139l1.247-.474a.164.164 0 0 0 .043-.283l-1.04-.823a.124.124 0 0 0 -.2.08l-.064.445a4.519 4.519 0 1 0 3.254 1.325" fill="#fff"/></svg>