<svg xmlns="http://www.w3.org/2000/svg" width="18" height="18" viewBox="0 0 18 18">
  <defs>
    <mask id="ko">
      <rect width="18" height="18" fill="white"/>
      <path fill="black" d="M9.7 1.357v3.919a1.44 1.44 0 0 0 1.436 1.438h3.947v9.929H2.915V1.357zM9.978.5h-7.34a.58.58 0 0 0-.58.581v15.838a.58.58 0 0 0 .58.581h12.724a.58.58 0 0 0 .58-.581V6.437a.58.58 0 0 0-.58-.58h-4.224a.58.58 0 0 1-.58-.581V1.081A.58.58 0 0 0 9.978.5"/>
      <path fill="black" d="M15.72 5.972 10.358.627v4.355a.984.984 0 0 0 .978.99z"/>
      <path fill="black" d="M4.639 5.231v3.544a.285.285 0 0 0 .426.247l3.1-1.772a.284.284 0 0 0 0-.494l-3.1-1.772a.285.285 0 0 0-.426.247"/>
      <rect fill="black" x="4.588" y="10.418" width="7.37" height=".989"/>
      <rect fill="black" x="4.588" y="12.189" width="7.37" height=".989"/>
      <rect fill="black" x="4.588" y="13.961" width="4.645" height=".989"/>
    </mask>
  </defs>
  <g>
    <path fill="currentColor" mask="url(#ko)" d="M9.966.627H2.731a.57.57 0 0 0-.571.573v15.6a.57.57 0 0 0 .571.572h12.538a.57.57 0 0 0 .571-.572V6.475a.57.57 0 0 0-.571-.572h-4.161a.57.57 0 0 1-.571-.571V1.2a.57.57 0 0 0-.571-.573"/>
  </g>
</svg>