<svg height="18" viewBox="0 0 18 18" width="18" xmlns="http://www.w3.org/2000/svg" xmlns:xlink="http://www.w3.org/1999/xlink"><linearGradient id="a" gradientUnits="userSpaceOnUse" x1="9" x2="9" y1="17.5" y2=".5"><stop offset="0" stop-color="#0078d4"/><stop offset=".817" stop-color="#5ea0ef"/></linearGradient><path d="m9.966.627h-7.235a.57.57 0 0 0 -.571.573v15.6a.57.57 0 0 0 .571.572h12.538a.57.57 0 0 0 .571-.572v-10.325a.57.57 0 0 0 -.571-.572h-4.161a.57.57 0 0 1 -.571-.571v-4.132a.57.57 0 0 0 -.571-.573" fill="#fff"/><path d="m9.7 1.357v3.919a1.44 1.44 0 0 0 1.436 1.438h3.947v9.929h-12.168v-15.286zm.278-.857h-7.34a.58.58 0 0 0 -.58.581v15.838a.58.58 0 0 0 .58.581h12.724a.58.58 0 0 0 .58-.581v-10.482a.58.58 0 0 0 -.58-.58h-4.224a.58.58 0 0 1 -.58-.581v-4.195a.58.58 0 0 0 -.58-.581" fill="url(#a)"/><path d="m15.72 5.972-5.362-5.345v4.355a.984.984 0 0 0 .978.99z" fill="#0078d4"/><path d="m4.639 5.231v3.544a.285.285 0 0 0 .426.247l3.1-1.772a.284.284 0 0 0 0-.494l-3.1-1.772a.285.285 0 0 0 -.426.247" fill="#32bedd"/><g fill="#5ea0ef"><rect height=".989" rx=".444" width="7.37" x="4.588" y="10.418"/><rect height=".989" rx=".444" width="7.37" x="4.588" y="12.189"/><rect height=".989" rx=".444" width="4.645" x="4.588" y="13.961"/></g></svg>