<svg viewBox="0 0 24 24" xmlns="http://www.w3.org/2000/svg"><path d="m12 0a12 12 0 0 0 -12 12 12 12 0 0 0 12 12 12 12 0 0 0 12-12 12 12 0 0 0 -12-12zm0 .742a11.257 11.257 0 0 1 11.258 11.258 11.257 11.257 0 0 1 -11.258 11.258 11.257 11.257 0 0 1 -11.258-11.258 11.257 11.257 0 0 1 11.258-11.258zm-.66 4.375a.776.776 0 0 0 -.777.778.776.776 0 0 0 .777.775.776.776 0 0 0 .775-.775.776.776 0 0 0 -.775-.778zm.035 2.266-.523 1.853-2.75 9.291h-.713v.373h1.974v-.373h-.875l2.606-8.806 4.6 9.174h1.429z"/></svg>