<svg height="18" viewBox="0 0 18 18" width="18" xmlns="http://www.w3.org/2000/svg" xmlns:xlink="http://www.w3.org/1999/xlink"><linearGradient id="a" gradientTransform="matrix(1 .003 .003 -1 .784 789.488)" gradientUnits="userSpaceOnUse" x1="-2.376" x2="8.922" y1="780.183" y2="780.183"><stop offset="0" stop-color="#005ba1"/><stop offset="1" stop-color="#0078d4"/></linearGradient><linearGradient id="b" gradientUnits="userSpaceOnUse" x1="11.418" x2="11.418" y1="17.247" y2="10.771"><stop offset="0" stop-color="#32bedd"/><stop offset=".302" stop-color="#36c3e1"/><stop offset=".66" stop-color="#41d1ee"/><stop offset="1" stop-color="#50e6ff"/></linearGradient><path d="m6.07 4.869c-3.12-.008-5.646-.936-5.643-2.069l-.027 10.944c0 1.127 2.481 2.049 5.567 2.072h.077c3.12.008 5.651-.907 5.654-2.043l.028-10.948c-.005 1.138-2.536 2.052-5.656 2.044" fill="url(#a)"/><path d="m11.724 2.826c0 1.136-2.534 2.051-5.654 2.043s-5.646-.936-5.643-2.069 2.533-2.055 5.654-2.047 5.646.936 5.643 2.073" fill="#e6e6e6"/><path d="m10.4 2.656c0 .723-1.942 1.3-4.333 1.3s-4.327-.6-4.325-1.319 1.942-1.3 4.334-1.3 4.328.6 4.327 1.32" fill="#50e6ff"/><path d="m6.074 2.946a10.4 10.4 0 0 0 -3.43.488 10 10 0 0 0 3.429.519 10 10 0 0 0 3.431-.5 10.4 10.4 0 0 0 -3.43-.507" fill="#198ab3"/><path d="m5.652 17.247h5.953a.42.42 0 0 0 .3-.124l5.578-5.639a.419.419 0 0 0 -.3-.713h-11.531a.42.42 0 0 0 -.418.419v5.639a.42.42 0 0 0 .418.418" fill="url(#b)"/><g fill="#fff"><path d="m11.724 12.689v2.405l-2.078 1.208v-2.407z" opacity=".6"/><path d="m11.724 12.689-2.078 1.208-2.08-1.21 2.08-1.208z" opacity=".9"/><path d="m9.646 13.897v2.405l-2.08-1.208v-2.407z" opacity=".75"/></g></svg>