<svg xmlns="http://www.w3.org/2000/svg" width="18" height="18" viewBox="0 0 18 18">
  <defs>
    <mask id="wko">
      <rect width="18" height="18" fill="white"/>
      <path fill="black" d="M16.518 11.7h-1.951a.06.06 0 0 0-.048.025l-.443.763a.06.06 0 0 1-.081.018l-.018-.018-.634-1.2a.113.113 0 0 0-.151-.053.12.12 0 0 0-.054.053L12.53 13.1a.06.06 0 0 1-.077.029.06.06 0 0 1-.028-.028l-.517-1.208a.114.114 0 0 0-.154-.048.1.1 0 0 0-.048.048l-.713 1.281a.06.06 0 0 1-.048.029H9.7v.447h1.51a.05.05 0 0 0 .048-.029l.444-.817a.06.06 0 0 1 .079-.023.05.05 0 0 1 .023.023l.608 1.414a.113.113 0 0 0 .145.067.11.11 0 0 0 .067-.067l.642-1.9a.054.054 0 0 1 .069-.031.05.05 0 0 1 .031.031l.535 1.015a.11.11 0 0 0 .149.046.1.1 0 0 0 .045-.046l.682-1.147a.06.06 0 0 1 .047-.029h1.691z"/>
    </mask>
  </defs>
  <g fill="currentColor" mask="url(#wko)">
    <rect width=".667" height="3.487" x="16.935" y="8.059" fill="currentColor" rx=".229"/>
    <rect width=".667" height="1.254" x="16.935" y="12.204" fill="currentColor" rx=".229"/>
    <path fill="currentColor" d="M10.506 5.668h5.161a.16.16 0 0 1 .162.162v1.2h-5.485v-1.2a.16.16 0 0 1 .162-.162m-.162 9.687h5.486v1.166a.16.16 0 0 1-.16.16H10.5a.16.16 0 0 1-.16-.16v-1.166z"/>
    <rect width="8.151" height="8.712" x="9.016" y="6.643" fill="currentColor" rx=".371"/>
    <rect width="6.797" height="7.271" x="9.732" y="7.363" fill="currentColor" rx=".31"/>
    <path fill="currentColor" d="M13.947 7.822a.8.8 0 0 0-.819.536.8.8 0 0 0-.824-.531c-.74.061-.777.794-.764 1.074.007.2.048.831 1.581 1.925l.013.009.013-.01c1.533-1.1 1.57-1.746 1.575-1.954.009-.271-.034-.994-.775-1.049"/>
  </g>
  <path fill="currentColor" d="M8.613 7.063a.775.775 0 0 1 .774-.774h.554v-.41a.566.566 0 0 1 .565-.566h3.073a4.647 4.647 0 0 0-4.732-3.992 4.78 4.78 0 0 0-4.572 3.118A4.41 4.41 0 0 0 .4 8.682a4.48 4.48 0 0 0 4.636 4.307h3.577z"/>
</svg>