<svg viewBox="0 0 24 24" xmlns="http://www.w3.org/2000/svg"><path d="m11.999.311c-.384 0-.769.146-1.06.437l-9.878 9.88c-.583.582-1.061 1.736-1.061 2.561v9c0 .825.675 1.5 1.5 1.5h5.899v-14.934a.6.6 0 0 1 .6-.6h8a.6.6 0 0 1 .6.6v2.4a.6.6 0 0 1 -.6.6h-5v1.2h5a.6.6 0 0 1 .6.6v2.4a.6.6 0 0 1 -.6.6h-5v1.2h5a.6.6 0 0 1 .6.6v2.4a.6.6 0 0 1 -.6.6h-5.6a.6.6 0 1 1 0-1.2h5v-1.2h-5a.6.6 0 0 1 -.6-.6v-2.4a.6.6 0 0 1 .6-.6h5v-1.2h-5a.6.6 0 0 1 -.6-.6v-2.4a.6.6 0 0 1 .6-.6h5v-1.2h-6.799v14.334h13.9c.825 0 1.5-.675 1.5-1.5v-9c0-.825-.478-1.978-1.061-2.561l-9.88-9.88a1.5 1.5 0 0 0 -1.059-.437"/></svg>