<svg height="18" viewBox="0 0 18 18" width="18" xmlns="http://www.w3.org/2000/svg" xmlns:xlink="http://www.w3.org/1999/xlink"><linearGradient id="a"><stop offset="0" stop-color="#773adc"/><stop offset="1" stop-color="#b77af4"/></linearGradient><linearGradient id="b" gradientUnits="userSpaceOnUse" x1="6.57" x2="6.57" xlink:href="#a" y1="7.06" y2="3.76"/><linearGradient id="c" gradientUnits="userSpaceOnUse" x1="11.02" x2="11.02" xlink:href="#a" y1="11.15" y2="7.86"/><linearGradient id="d" gradientUnits="userSpaceOnUse" x1="15.15" x2="15.15" xlink:href="#a" y1="3.79" y2=".5"/><linearGradient id="e" gradientUnits="userSpaceOnUse" x1="2.85" x2="2.85" xlink:href="#a" y1="11.86" y2="8.57"/><path d="m14.73 1.62-3.99 7.1-4.22-4.3-4.35 5.64 1.02.8 3.45-4.45 4.38 4.47 4.84-8.61z" fill="#b796f9"/><ellipse cx="6.57" cy="5.41" fill="url(#b)" rx="1.64" ry="1.65"/><ellipse cx="11.02" cy="9.5" fill="url(#c)" rx="1.64" ry="1.65"/><ellipse cx="15.15" cy="2.15" fill="url(#d)" rx="1.64" ry="1.65"/><ellipse cx="2.85" cy="10.22" fill="url(#e)" rx="1.64" ry="1.65"/><rect fill="#0078d4" height="7.58" rx=".28" width="2.58" x="5.67" y="9.92"/><rect fill="#005ba1" height="4.96" rx=".28" width="2.58" x="9.78" y="12.54"/><rect fill="#005ba1" height="10.12" rx=".28" width="2.58" x="13.89" y="7.38"/><rect fill="#5ea0ef" height="4.96" rx=".28" width="2.58" x="1.56" y="12.54"/></svg>