<svg xmlns="http://www.w3.org/2000/svg" width="18" height="18" viewBox="0 0 18 18"><defs><mask id="a"><path fill="#fff" d="M0 0h18v18H0z"/><rect width=".665" height=".665" x="16.616" y=".426" rx=".149"/><rect width=".665" height=".665" x="16.616" y="1.343" opacity=".6" rx=".149"/><rect width=".665" height=".665" x="16.616" y="3.31" rx=".149"/><rect width=".665" height=".665" x="16.616" y="4.227" opacity=".6" rx=".149"/><rect width=".665" height=".665" x="16.616" y="6.194" rx=".149"/><rect width=".665" height=".665" x="16.616" y="7.111" opacity=".6" rx=".149"/><rect width=".665" height=".665" x="7.501" y="10.224" rx=".149"/><rect width=".665" height=".665" x="7.501" y="11.141" opacity=".6" rx=".149"/><rect width=".665" height=".665" x="7.501" y="13.108" rx=".149"/><rect width=".665" height=".665" x="7.501" y="14.025" opacity=".6" rx=".149"/><rect width=".665" height=".665" x="7.501" y="15.992" rx=".149"/><rect width=".665" height=".665" x="7.501" y="16.909" opacity=".6" rx=".149"/></mask></defs><g fill="currentColor" mask="url(#a)"><rect width="8.902" height="2.434" x="9.098" rx=".298"/><rect width="8.902" height="2.434" x="9.098" y="2.885" rx=".298"/><rect width="8.902" height="2.434" x="9.098" y="5.769" rx=".298"/><rect width="8.9" height="2.434" x="-.016" y="9.798" rx=".298"/><rect width="8.9" height="2.434" x="-.016" y="12.683" rx=".298"/><rect width="8.9" height="2.434" x="-.016" y="15.566" rx=".298"/></g><path fill="currentColor" d="M10.854 4.101H7.013a.33.33 0 0 0-.233.099L4.071 6.909a.33.33 0 0 0-.099.233v3.841c0 .088.036.172.099.233l2.709 2.709a.33.33 0 0 0 .233.099h3.841a.33.33 0 0 0 .233-.099l2.709-2.709a.33.33 0 0 0 .099-.233V7.142a.33.33 0 0 0-.099-.233L11.087 4.2a.33.33 0 0 0-.233-.099"/><path fill="currentColor" d="m13.125 7.259-2.387-2.388a.16.16 0 0 0-.117-.047H7.247a.16.16 0 0 0-.117.047L4.742 7.259a.16.16 0 0 0-.047.117v3.374c0 .043.017.085.047.117l2.388 2.388a.16.16 0 0 0 .117.047h3.374a.16.16 0 0 0 .117-.047l2.387-2.388a.18.18 0 0 0 .047-.117V7.376a.16.16 0 0 0-.047-.117m-.21 3.181-1.839-1.839.444-.449a.093.093 0 0 0 .008-.132l-.008-.008a.1.1 0 0 0-.064 0l-1.582-.041a.1.1 0 0 0-.099.093l.041 1.582c0 .052.042.093.093.094h.006a.08.08 0 0 0 .07 0l.496-.49 1.956 1.926-1.483 1.483-2.02-2.014.467-.414a.093.093 0 0 0 .008-.132l-.008-.008a.1.1 0 0 0-.064-.029l-1.57-.07a.1.1 0 0 0-.099.093l.041 1.582c0 .052.042.094.093.094h.006a.1.1 0 0 0 .07-.029l.473-.484 1.798 1.798H7.283l-2.335-2.335V7.413l.736-.73 1.5 1.471c.03.033.03.083 0 .117l-.041.041-.584.584a.081.081 0 0 0 .059.134h2.218a.08.08 0 0 0 .082-.082V6.759a.1.1 0 0 0-.082-.111.1.1 0 0 0-.111.082l-.584.584-.041.041a.09.09 0 0 1-.117 0l-1.5-1.477.8-.8h3.304l2.335 2.335-.006 3.03z"/></svg>