<svg height="18" viewBox="0 0 18 18" width="18" xmlns="http://www.w3.org/2000/svg" xmlns:xlink="http://www.w3.org/1999/xlink"><linearGradient id="a" gradientTransform="matrix(1 0 0 -1 564 1025.516)" gradientUnits="userSpaceOnUse" x1="-555.066" x2="-555.066" y1="1011.491" y2="1021.414"><stop offset=".16" stop-color="#6f4bb2"/><stop offset=".32" stop-color="#7450b5"/><stop offset=".51" stop-color="#825dbf"/><stop offset=".72" stop-color="#9a72ce"/><stop offset=".94" stop-color="#bb90e4"/><stop offset="1" stop-color="#c69aeb"/></linearGradient><rect fill="#9cebff" height="2.434" rx=".298" width="8.902" x="9.098"/><rect fill="#fff" height=".665" rx=".149" width=".665" x="16.616" y=".426"/><rect fill="#fff" height=".665" opacity=".6" rx=".149" width=".665" x="16.616" y="1.343"/><rect fill="#41d2ee" height="2.434" rx=".298" width="8.902" x="9.098" y="2.885"/><rect fill="#fff" height=".665" rx=".149" width=".665" x="16.616" y="3.31"/><rect fill="#fff" height=".665" opacity=".6" rx=".149" width=".665" x="16.616" y="4.227"/><rect fill="#198ab3" height="2.434" rx=".298" width="8.902" x="9.098" y="5.769"/><rect fill="#fff" height=".665" rx=".149" width=".665" x="16.616" y="6.194"/><rect fill="#fff" height=".665" opacity=".6" rx=".149" width=".665" x="16.616" y="7.111"/><rect fill="#83b9f9" height="2.434" rx=".298" width="8.9" x="-.016" y="9.798"/><rect fill="#fff" height=".665" rx=".149" width=".665" x="7.501" y="10.224"/><rect fill="#fff" height=".665" opacity=".6" rx=".149" width=".665" x="7.501" y="11.141"/><rect fill="#2e8ce1" height="2.434" rx=".298" width="8.9" x="-.016" y="12.683"/><rect fill="#fff" height=".665" rx=".149" width=".665" x="7.501" y="13.108"/><rect fill="#fff" height=".665" opacity=".6" rx=".149" width=".665" x="7.501" y="14.025"/><rect fill="#005ba1" height="2.434" rx=".298" width="8.9" x="-.016" y="15.566"/><rect fill="#fff" height=".665" rx=".149" width=".665" x="7.501" y="15.992"/><rect fill="#fff" height=".665" opacity=".6" rx=".149" width=".665" x="7.501" y="16.909"/><path d="m10.854 4.101h-3.841a.33.33 0 0 0 -.233.099l-2.709 2.709a.33.33 0 0 0 -.099.233v3.841c0 .088.036.172.099.233l2.709 2.709a.33.33 0 0 0 .233.099h3.841a.33.33 0 0 0 .233-.099l2.709-2.709a.33.33 0 0 0 .099-.233v-3.841a.33.33 0 0 0 -.099-.233l-2.709-2.709a.33.33 0 0 0 -.233-.099" fill="url(#a)"/><path d="m13.125 7.259-2.387-2.388a.16.16 0 0 0 -.117-.047h-3.374a.16.16 0 0 0 -.117.047l-2.388 2.388a.16.16 0 0 0 -.047.117v3.374c0 .043.017.085.047.117l2.388 2.388a.16.16 0 0 0 .117.047h3.374a.16.16 0 0 0 .117-.047l2.387-2.388a.18.18 0 0 0 .047-.117v-3.374a.16.16 0 0 0 -.047-.117m-.21 3.181-1.839-1.839.444-.449a.093.093 0 0 0 .008-.132l-.008-.008a.1.1 0 0 0 -.064 0l-1.582-.041a.1.1 0 0 0 -.099.093l.041 1.582c0 .052.042.093.093.094h.006a.08.08 0 0 0 .07 0l.496-.49 1.956 1.926-1.483 1.483-2.02-2.014.467-.414a.093.093 0 0 0 .008-.132l-.008-.008a.1.1 0 0 0 -.064-.029l-1.57-.07a.1.1 0 0 0 -.099.093l.041 1.582c0 .052.042.094.093.094h.006a.1.1 0 0 0 .07-.029l.473-.484 1.798 1.798h-2.866l-2.335-2.335v-3.298l.736-.73 1.5 1.471c.03.033.03.083 0 .117l-.041.041-.584.584a.081.081 0 0 0 .059.134h2.218a.08.08 0 0 0 .082-.082v-2.189a.1.1 0 0 0 -.082-.111.1.1 0 0 0 -.111.082l-.584.584-.041.041a.09.09 0 0 1 -.117 0l-1.5-1.477.8-.8h3.304l2.335 2.335-.006 3.03z" fill="#f2f2f2"/></svg>