<svg xmlns="http://www.w3.org/2000/svg" preserveAspectRatio="xMidYMid" viewBox="0 0 256 233">
  <defs>
    <mask id="ko">
      <rect width="256" height="233" fill="white"/>
      <path fill="black" d="M186.182 0h46.545v46.545h-46.545z"/>
      <path fill="black" d="M0 0h46.545v46.545H0zm0 46.545h46.545v46.546H0zm0 46.546h46.545v46.545H0zm0 46.545h46.545v46.546H0zm0 46.546h46.545v46.545H0z"/>
      <path fill="black" d="M23.273 0h46.545v46.545H23.273z"/>
      <path fill="black" d="M209.455 46.545H256v46.546h-46.545zm-186.182 0h46.545v46.546H23.273z"/>
      <path fill="black" d="M139.636 46.545h46.546v46.546h-46.546z"/>
      <path fill="black" d="M162.91 46.545h46.545v46.546h-46.546zm-93.092 0h46.546v46.546H69.818z"/>
      <path fill="black" d="M116.364 93.09h46.545v46.546h-46.545zm46.545 0h46.546v46.546h-46.546zm-93.09 0h46.545v46.546H69.818z"/>
      <path fill="black" d="M93.09 139.636h46.546v46.546H93.091z"/>
      <path fill="black" d="M116.364 139.636h46.545v46.546h-46.545z"/>
      <path fill="black" d="M209.455 93.09H256v46.546h-46.545zm-186.182 0h46.545v46.546H23.273z"/>
      <path fill="black" d="M186.182 139.636h46.545v46.546h-46.545z"/>
      <path fill="black" d="M209.455 139.636H256v46.546h-46.545z"/>
      <path fill="black" d="M186.182 186.182h46.545v46.545h-46.545z"/>
      <path fill="black" d="M23.273 139.636h46.545v46.546H23.273z"/>
      <path fill="black" d="M209.455 186.182H256v46.545h-46.545zm-186.182 0h46.545v46.545H23.273z"/>
    </mask>
  </defs>
  <g>
    <path fill="currentColor" mask="url(#ko)" d="M209.455 0H256v46.545h-46.545z"/>
  </g>
</svg>