<svg xmlns="http://www.w3.org/2000/svg" xml:space="preserve" fill-rule="evenodd" stroke-linejoin="round" stroke-miterlimit="2" clip-rule="evenodd" viewBox="0 0 1024 1024"><path fill="currentColor" d="m466.15 949-257.8-446.348L75.01 733.508V909c0 22.077 17.92 40 40 40zm187.99 0H505.5S312.95 615.513 248.44 503.943c-12.63-21.85-12.64-48.87-.01-70.724 23.33-40.368 53.92-93.31 53.92-93.31zm187.99 0H693.49L324.2 302.072l72.14-124.89zm106.88-140.422V909c0 22.077-17.92 40-40 40h-27.53L416.01 143.121 455.36 75h69.95zM909.01 75H564.65l384.36 665.456V115c0-22.077-17.92-40-40-40"/></svg>