<svg xmlns="http://www.w3.org/2000/svg" width="64" height="64" viewBox="0 0 64 64"><title>Icon-Architecture/48/Arch_Amazon-Kinesis-Data-Firehose_48</title><g id="Icon-Architecture/48/Arch_Amazon-Kinesis-Data-Firehose_48" fill="none" fill-rule="evenodd" stroke="none" stroke-width="1"><g id="Icon-Architecture-BG/48/Analytics" fill="#8c4fff"><path id="Rectangle" d="M0 0h64v64H0z"/></g><g id="Icon-Service/48/Amazon-Kinesis-Data-Firehose" fill="#fff" transform="translate(11 12)"><path id="Amazon-Kinesis-Data-Firehose_Icon_48_Squid" d="M32.064 22c3.266 0 7.025.755 10.315 2.072l-.742 1.856C38.574 24.703 35.085 24 32.064 24zm9.361.812c-1.18-.847-6.167-1.812-9.36-1.812v-2c3.362 0 8.218-1.048 9.387-1.831l1.113 1.662c-.628.42-1.742.817-3.06 1.155 1.316.334 2.443.74 3.086 1.202zm.941-6.878C40.35 16.706 36.33 18 32.064 18v-2c2.881 0 6.375-.705 9.587-1.934zm-14.358 6.264-7 1.555v-7.506l7 1.555zm-9 3.802h-2V14h2v12m10.217-9.976-8.217-1.826V13a1 1 0 0 0-1-1h-4a.993.993 0 0 0-.986.935C3.518 12.065 2.008 7.724 2.008 4V0h-2v4c0 8.674 8.3 10.468 15 10.938v.997C8.92 15.574 4.32 13.699 1.495 12.126l-.973 1.748c3.027 1.685 7.965 3.698 14.486 4.064v1.017c-4.769-.188-9.818-.886-13.745-1.922l-.51 1.934c1.492.393 3.147.736 4.877 1.027a57 57 0 0 0-4.877 1.039l.51 1.934c4.068-1.073 9.021-1.761 13.745-1.931v1.026c-6.47.364-11.427 2.376-14.483 4.063l.967 1.75c2.852-1.574 7.475-3.45 13.516-3.81v1.003C1.991 26.09.008 32.94.008 37l-.002.304c-.012 2.425-.005 2.685.008 2.803l1.991-.181c-.007-.148-.006-1.027.001-2.611L2.008 37c0-7.225 6.845-9.417 13.015-9.928a.99.99 0 0 0 .985.928h4a1 1 0 0 0 1-1v-1.198l8.217-1.826a1 1 0 0 0 .783-.976v-6a1 1 0 0 0-.783-.976"/></g></g></svg>