<svg xmlns="http://www.w3.org/2000/svg" width="18" height="18" viewBox="0 0 18 18"><path fill="currentColor" d="M2.729 14.651q.186.206.384.399c1.521 1.481 3.599 2.442 5.889 2.394 3.185-.066 4.954-1.471 6.204-2.718 4.083-4.589-5.125-4.6-12.477-.075"/><path fill="currentColor" d="m17.444 9-.002-.124c-2.064-2.064-9.245-1.902-15.375 4.94l.035.051a8 8 0 0 0 .627.785c1.046-.521 3.293-1.554 4.601-1.917 4.073-1.129 10.93-2.154 7.876 1.992 1.907-2.262 2.238-4.214 2.238-5.726Z"/><path fill="currentColor" d="M17.443 8.876a8.43 8.43 0 0 0-3.882-6.984C12.867 3.224-.066 10.635 1.34 5.518c-.143.394-.539 1.268-.707 2.343a6 6 0 0 0-.074 1.14c.064 1.789.558 3.45 1.508 4.816l.035.051c.038.053.102.141.178.243l.082.104c5.793-5.248 11.915-6.009 15.072-4.791q.009-.216.009-.422l-.002-.124Z"/><path fill="currentColor" d="M17.443 8.876a8.44 8.44 0 0 0-3.882-6.985C12.859 3.239-.366 10.807 1.392 5.339 1.362 5.628.495 7.187.559 9c.064 1.789.558 3.45 1.508 4.816 6.131-6.842 13.311-7.003 15.375-4.94Z"/><path fill="currentColor" d="M13.56 1.892A8.4 8.4 0 0 0 9.001.556c-4.365 0-6.809 3.042-7.609 4.783-.263.483-.405.894-.446 1.242C.731 7.236.527 8.085.559 9q.012.341.045.677c2.801.363 7.555-1.141 9.977-3.042 2.076-1.629 3.39-2.825 4.253-3.737a8.5 8.5 0 0 0-1.274-1.005Z"/><circle cx="8.999" cy="8.999" r="8.445" fill="none"/><path fill="currentColor" d="M13.56 1.892A8.4 8.4 0 0 0 9.001.556c-4.365 0-6.809 3.042-7.609 4.783-2.39 4.382 5.197 2.921 8.077.66 2.999-2.354 3.732-3.418 4.091-4.108Z"/></svg>