<svg xmlns="http://www.w3.org/2000/svg" viewBox="0 0 105 105"><defs><mask id="a"><path fill="#fff" d="M0 0h105v105H0z"/><path d="M29.98 71.16h22.5v3.75h-22.5zm22.23-41.19h5.35l5.93 9.54 5.93-9.54h5.35v22.55h-4.93V37.8l-6.35 9.63h-.13l-6.28-9.53v14.62h-4.87zM30 30h10.3q4.28 0 6.56 2.28a7 7 0 0 1 1.93 5.15v.07a7 7 0 0 1-1.34 4.45 7.74 7.74 0 0 1-3.49 2.53l5.51 8h-5.8L39 45.57h-4.09v6.92H30zm10 10.91a4.12 4.12 0 0 0 2.77-.91 3 3 0 0 0 1-2.32v-.06a2.85 2.85 0 0 0-1-2.41 4.53 4.53 0 0 0-2.86-.81h-4.98v6.47z"/></mask></defs><g fill="currentColor" mask="url(#a)"><path d="m83.34 4.5-27.47 9.84L34.22 4.5l-7.13 17.96h-4.61v53.02l66.67.58 10.35-52.8z"/><path d="m82.52 38.95-43.87-26 43.87 51.42z"/><path d="m43.46 98 35.88-4.78-5.57-10.71h8.75V64.37l-43.88-51.5L3.5 21.5l.04 50.4 20.2 28.6 19.61-2.49.09-.01z"/></g></svg>