<svg viewBox="0 0 24 24" xmlns="http://www.w3.org/2000/svg"><path d="m7.27 23.896-2.77-2.772a.352.352 0 0 1 0-.5l2.772-2.77a.352.352 0 0 1 .5 0l2.772 2.772a.352.352 0 0 1 0 .5l-2.772 2.77a.352.352 0 0 1 -.5 0zm4.48-4.48-2.772-2.772a.352.352 0 0 1 0-.498l2.772-2.772a.352.352 0 0 1 .5 0l2.77 2.772a.352.352 0 0 1 0 .5l-2.77 2.77a.352.352 0 0 1 -.499 0zm4.48-4.48-2.77-2.772a.352.352 0 0 1 0-.498l2.771-2.772a.352.352 0 0 1 .5 0l2.77 2.772a.352.352 0 0 1 0 .498l-2.772 2.772a.352.352 0 0 1 -.5 0h.002zm-8.876.084-2.772-2.77a.352.352 0 0 1 0-.499l2.772-2.773a.352.352 0 0 1 .5 0l2.772 2.772a.352.352 0 0 1 0 .498l-2.772 2.774a.352.352 0 0 1 -.5 0zm4.48-4.48-2.772-2.77a.352.352 0 0 1 0-.5l2.772-2.772a.352.352 0 0 1 .5 0l2.77 2.772a.352.352 0 0 1 0 .498l-2.77 2.772a.352.352 0 0 1 -.499 0v-.002.001zm-4.394-4.39-2.774-2.78a.352.352 0 0 1 0-.5l2.774-2.766a.352.352 0 0 1 .5 0l2.772 2.772a.352.352 0 0 1 0 .5l-2.774 2.766a.352.352 0 0 1 -.5 0l.002.006v.001z"/></svg>