<svg height="18" viewBox="0 0 18 18" width="18" xmlns="http://www.w3.org/2000/svg" xmlns:xlink="http://www.w3.org/1999/xlink"><linearGradient id="a" gradientUnits="userSpaceOnUse" x1="8.45" x2="8.45" y1="11.47" y2="6.24"><stop offset="0" stop-color="#198ab3"/><stop offset=".16" stop-color="#1f9ac2"/><stop offset=".5" stop-color="#29bade"/><stop offset=".8" stop-color="#30cdef"/><stop offset="1" stop-color="#32d4f5"/></linearGradient><ellipse cx="8.45" cy="8.85" fill="url(#a)" rx="2.6" ry="2.61"/><g fill="#32bedd"><ellipse cx="15.73" cy="4.77" rx="1.27" ry="1.28"/><ellipse cx="15.73" cy="8.95" rx="1.27" ry="1.28"/><ellipse cx="15.73" cy="13.12" rx="1.27" ry="1.28"/></g><ellipse cx="12.83" cy="6.91" fill="#50e6ff" rx="1.27" ry="1.28"/><ellipse cx="12.83" cy="11.09" fill="#50e6ff" rx="1.27" ry="1.28"/><path d="m2.41 5.58a.24.24 0 0 1 .09-.08l5.82-3.39c.08 0 5 2.78 5 2.78a.24.24 0 0 0 .36-.21v-1.09a.24.24 0 0 0 -.12-.21s-5.16-2.92-5.23-2.88l-7.22 4.14-.11.08zm10.89 7.56-4.74 2.73a.4.4 0 0 1 -.11 0v1.6a.2.2 0 0 0 .11 0l5-2.86a.24.24 0 0 0 .12-.2v-1.06a.24.24 0 0 0 -.38-.21" fill="#949494"/><path d="m8.45 15.9a.3.3 0 0 1 -.13 0l-5.82-3.43a.22.22 0 0 1 -.12-.2v-6.57a.3.3 0 0 1 0-.12l-1.38-.86a.3.3 0 0 0 0 .13v8.27a.24.24 0 0 0 .11.21l7.22 4.14a.24.24 0 0 0 .12 0z" fill="#b3b3b3"/></svg>