<svg height="64" viewBox="0 0 64 64" width="64" xmlns="http://www.w3.org/2000/svg"><g fill="none" fill-rule="evenodd"><path d="m0 0h64v64h-64z" fill="#01a88d"/><path d="m38 12h-4v-2h4c2.99 0 5 2.009 5 5v4.149l2.219-2.774 1.562 1.25-4 5a1 1 0 0 1 -1.562 0l-4-5 1.562-1.25 2.219 2.774v-4.149c0-1.878-1.121-3-3-3m-12 40h3v2h-3c-2.99 0-5-2.009-5-5v-4.149l-2.219 2.774-1.562-1.25 4-5c.381-.474 1.181-.474 1.562 0l4 5-1.562 1.25-2.219-2.774v4.149c0 1.878 1.121 3 3 3m17.232-12.999c-.556 1.442-1.289 2.645-2.227 3.658-.969-1.023-1.744-2.25-2.312-3.658zm-1.443-2.831a.54.54 0 0 0 .24-.382.384.384 0 0 0 -.359-.442l-1.09-.074a.4.4 0 0 0 -.291.104.4.4 0 0 0 -.123.284v1.755h-4.743a.39.39 0 0 0 -.389.389v.808c0 .215.174.389.389.389h1.531c.692 1.876 1.634 3.479 2.808 4.774-1.22.929-2.715 1.639-4.556 2.167a.387.387 0 0 0 -.195.619c.146.181.355.492.419.649a.39.39 0 0 0 .474.225c2.043-.625 3.7-1.453 5.049-2.523 1.433 1.19 3.113 2.022 5.126 2.54a.39.39 0 0 0 .442-.196c.124-.237.362-.57.518-.727a.387.387 0 0 0 -.188-.654c-1.774-.403-3.333-1.116-4.643-2.12 1.134-1.222 2.013-2.699 2.675-4.497a.57.57 0 0 0 .345-.257h1.389a.39.39 0 0 0 .389-.389v-.808a.39.39 0 0 0 -.389-.389h-4.828zm-21.352-7.734 2.028-5.947 2.047 5.947zm1.102-7.556-4.478 12.12h1.836l1.085-3.218h4.985l1.118 3.218h1.854l-4.476-12.12zm-7.539 17.12h15v2h-16a1 1 0 0 1 -1-1v-6h2zm36 14h-17v-26h10v6a1 1 0 0 0 1 1h6zm-5-24.592 3.588 3.592h-3.588zm6.708 3.885-7-7.008a1 1 0 0 0 -.708-.284v-.001h-12a1 1 0 0 0 -1 1v28a1 1 0 0 0 1 1h19a1 1 0 0 0 1-1v-21c0-.26-.102-.516-.292-.707m-24.708-17.59 2.826 3.297h-2.826zm-13-1.7 11-.003v6a1 1 0 0 0 1 1h5v3h2v-4.004a1 1 0 0 0 -.241-.647l-6-7a1 1 0 0 0 -.759-.349l-13 .003a1 1 0 0 0 -1 1v18.997h2z" fill="#fff"/></g></svg>