<svg fill="#f60" viewBox="0 0 24 24" xmlns="http://www.w3.org/2000/svg"><path d="m6.74 6.772a7.436 7.436 0 0 1 10.519 0 7.432 7.432 0 0 1 0 10.515 7.436 7.436 0 0 1 -10.52 0c-2.904-2.905-2.904-7.64 0-10.515m5.261 13.565c-4.59 0-8.338-3.747-8.338-8.337s3.748-8.308 8.338-8.308c4.591 0 8.31 3.748 8.31 8.308 0 4.619-3.719 8.337-8.31 8.337zm12-8.366-2.73-2.471 1.103-3.514-3.603-.784-.784-3.602-3.515 1.133-2.501-2.729-2.47 2.73-3.514-1.104-.786 3.601-3.602.785 1.133 3.515-2.731 2.499 2.732 2.47-1.105 3.514 3.603.784.784 3.603 3.516-1.134 2.5 2.731 2.468-2.73 3.516 1.103.785-3.602 3.603-.813-1.134-3.515 2.732-2.471z"/></svg>