<svg viewBox="0 0 24 24" xmlns="http://www.w3.org/2000/svg"><path d="m17 13h-1v-1h1zm0 1h-1v1h1zm0 2h-1v1h1zm-.6-16h-1.4l7 7v-7zm-3.4 0 9 9v12c0 1.662-1.338 3-3 3h-14c-1.662 0-3-1.338-3-3v-18c0-1.662 1.338-3 3-3zm-7 11c0 .552 1.343 1 3 1s3-.448 3-1v-1c0-.552-1.343-1-3-1s-3 .448-3 1zm0 2c0 .552 1.343 1 3 1s3-.448 3-1v-1c0 .552-1.343 1-3 1s-3-.448-3-1zm0 2c0 .552 1.343 1 3 1s3-.448 3-1v-1c0 .552-1.343 1-3 1s-3-.448-3-1zm0 2c0 .552 1.343 1 3 1s3-.448 3-1v-1c0 .552-1.343 1-3 1s-3-.448-3-1zm12-6h-5v7h5zm-3 1h-1v1h1zm0 4h-1v1h1zm0-2h-1v1h1z"/></svg>