<svg height="18" viewBox="0 0 18 18" width="18" xmlns="http://www.w3.org/2000/svg" xmlns:xlink="http://www.w3.org/1999/xlink"><linearGradient id="a" gradientUnits="userSpaceOnUse" x1="11.003" x2="11.003" y1="10.663" y2=".658"><stop offset="0" stop-color="#773adc"/><stop offset="1" stop-color="#a67af4"/></linearGradient><path d="m18 7.5a3.15 3.15 0 0 0 -2.73-3.056 3.96 3.96 0 0 0 -4.07-3.784 4.07 4.07 0 0 0 -3.894 2.678 3.75 3.75 0 0 0 -3.3 3.616 3.81 3.81 0 0 0 3.907 3.708h6.93a3.19 3.19 0 0 0 3.157-3.162" fill="url(#a)"/><path d="m14.323 4.774-1.864-1.813c-.2-.2-.376-.132-.376.184v.814a.224.224 0 0 1 -.224.225h-.011c-1.2 0-4.552.316-4.674 4.9a.234.234 0 0 0 .234.235h1.192a.235.235 0 0 0 .236-.234v-.021a2.813 2.813 0 0 1 3.053-3.394.235.235 0 0 1 .234.235v.753c0 .377.123.438.377.184l1.823-1.681a.234.234 0 0 0 .062-.325.3.3 0 0 0 -.062-.062" fill="#fff"/><circle cx="5.502" cy="10.498" fill="#0078d4" r="5.379"/><path d="m11 10.316h-.009a5.5 5.5 0 1 0 0 .363h.009zm-2.282 0a6.3 6.3 0 0 0 -.442-2.29h1.7a5.1 5.1 0 0 1 .644 2.29zm-8.34.363h1.978a6.3 6.3 0 0 0 .454 2.292h-1.785a5.1 5.1 0 0 1 -.644-2.292zm7.335-3.015h-2.03v-2.057a5.8 5.8 0 0 1 2.03 2.057m-2.393 0h-1.9a6.1 6.1 0 0 1 1.9-1.912zm0 .362v2.29h-2.6a5.5 5.5 0 0 1 .519-2.29zm-2.965 2.29h-1.974a5.1 5.1 0 0 1 .643-2.29h1.815a5.9 5.9 0 0 0 -.484 2.29m.363.363h2.6v2.292h-2.1a5.8 5.8 0 0 1 -.5-2.292m2.6 2.654v2.032a5.94 5.94 0 0 1 -1.927-2.032zm.363 0h2a6 6 0 0 1 -2 2.081zm0-.362v-2.292h2.678a5.8 5.8 0 0 1 -.5 2.292zm0-2.655v-2.29h2.2a5.9 5.9 0 0 1 .474 2.29zm4.1-2.652h-1.675a5.96 5.96 0 0 0 -2.066-2.251 5.12 5.12 0 0 1 3.742 2.251zm-4.566-2.277a6.45 6.45 0 0 0 -2.194 2.277h-1.8a5.13 5.13 0 0 1 3.994-2.277m-3.993 7.946h1.764a6.14 6.14 0 0 0 2.014 2.254 5.13 5.13 0 0 1 -3.778-2.254m4.863 2.245a6.1 6.1 0 0 0 2.006-2.245h1.691a5.13 5.13 0 0 1 -3.697 2.245m3.893-2.607h-1.711a6.3 6.3 0 0 0 .454-2.292h1.9a5.1 5.1 0 0 1 -.643 2.292" fill="#83b9f9"/></svg>