<svg height="66.143" viewBox="0 0 18.035 17.5" width="68.165" xmlns="http://www.w3.org/2000/svg"><g transform="matrix(1.01489 0 0 1.01489 15.909 -3.873)"><path d="m-6.85 4.272a1.12 1.11 0 0 0 -.428.109l-5.852 2.796a1.12 1.11 0 0 0 -.606.753l-1.444 6.282a1.12 1.11 0 0 0 .152.85 1.12 1.11 0 0 0 .064.089l4.05 5.037a1.12 1.11 0 0 0 .876.417l6.496-.001a1.12 1.11 0 0 0 .875-.417l4.049-5.038a1.12 1.11 0 0 0 .216-.939l-1.446-6.28a1.12 1.11 0 0 0 -.605-.753l-5.854-2.797a1.12 1.11 0 0 0 -.542-.109" fill="#326ce5"/><path d="m-6.852 3.818a1.181 1.172 0 0 0 -.452.115l-6.18 2.951a1.181 1.172 0 0 0 -.638.795l-1.524 6.63a1.181 1.172 0 0 0 .16.9 1.181 1.172 0 0 0 .067.093l4.276 5.317a1.181 1.172 0 0 0 .924.44h6.858a1.181 1.172 0 0 0 .923-.44l4.275-5.319a1.181 1.172 0 0 0 .228-.99l-1.525-6.633a1.181 1.172 0 0 0 -.64-.795l-6.178-2.95a1.181 1.172 0 0 0 -.573-.115m.003.455a1.12 1.11 0 0 1 .542.108l5.853 2.795a1.12 1.11 0 0 1 .606.753l1.446 6.281a1.12 1.11 0 0 1 -.216.94l-4.05 5.037a1.12 1.11 0 0 1 -.875.417l-6.496.001a1.12 1.11 0 0 1 -.875-.417l-4.05-5.037a1.12 1.11 0 0 1 -.064-.088 1.12 1.11 0 0 1 -.152-.851l1.444-6.281a1.12 1.11 0 0 1 .605-.753l5.853-2.797a1.12 1.11 0 0 1 .429-.108" fill="#fff"/></g><g fill-rule="evenodd" transform="matrix(.91709 0 0 .88661 -.143 .513)"><path d="m2.33 9.29 2.255-2.255v1.128h.83v-3.384h9.146v3.384h.83v-1.128l2.256 2.256-2.255 2.255v-1.128h-.83v3.384h-9.147v-3.384h-.83v1.128z" fill="#fff"/><g fill="#326ce5"><path d="m6.484 6.835 3.504-1.015 3.505 1.016-3.505 1.017z"/><path d="m6.484 7.224v3.73l3.265 1.808.016-4.562z"/><path d="m13.493 7.224v3.73l-3.265 1.808-.016-4.562z"/></g></g></svg>