<svg xmlns="http://www.w3.org/2000/svg" width="120" height="120" fill="none" viewBox="0 0 120 120"><defs><mask id="a"><path fill="#fff" d="M0 0h120v120H0z"/><path fill="#000" d="M7.893 19.893c0-6.627 5.373-12 12-12H99.68c6.628 0 12 5.373 12 12V99.68c0 6.628-5.372 12-12 12H19.893c-6.627 0-12-5.372-12-12z"/><path fill="#000" d="M7.893 19.893c0-6.627 5.373-12 12-12H99.68c6.628 0 12 5.373 12 12V99.68c0 6.628-5.372 12-12 12H19.893c-6.627 0-12-5.372-12-12z"/><path fill="#000" d="M19.893 8.393H99.68c6.351 0 11.5 5.15 11.5 11.5V99.68c0 6.351-5.149 11.5-11.5 11.5H19.893c-6.35 0-11.5-5.149-11.5-11.5V19.893c0-6.35 5.15-11.5 11.5-11.5"/><path fill="#000" d="M19.893 8.393H99.68c6.351 0 11.5 5.15 11.5 11.5V99.68c0 6.351-5.149 11.5-11.5 11.5H19.893c-6.35 0-11.5-5.149-11.5-11.5V19.893c0-6.35 5.15-11.5 11.5-11.5"/><path fill="#000" d="M52.548 51.548a1 1 0 0 0-1 1v13.904a1 1 0 0 0 1 1h13.904a1 1 0 0 0 1-1V52.548a1 1 0 0 0-1-1zM45.916 45a.916.916 0 0 0-.916.916v27.168c0 .506.41.916.916.916h27.168c.506 0 .916-.41.916-.916V45.916a.916.916 0 0 0-.916-.916z"/><path fill="#000" d="M36 77V60h7v14q0 .226.048.437l-5.98 5.98A5.97 5.97 0 0 1 36 77m2.465 4.849A5.97 5.97 0 0 0 42 83h17v-7H45a2 2 0 0 1-.596-.09zM61 76v7h16a6 6 0 0 0 6-6V42a6 6 0 0 0-6-6H60v7h14a2 2 0 0 1 2 2v29a2 2 0 0 1-2 2z"/></mask></defs><path fill="currentColor" d="M7.893 19.893c0-6.627 5.373-12 12-12H99.68c6.628 0 12 5.373 12 12V99.68c0 6.628-5.372 12-12 12H19.893c-6.627 0-12-5.372-12-12z" mask="url(#a)"/></svg>