<svg xmlns="http://www.w3.org/2000/svg" width="120" height="120" fill="none" viewBox="0 0 120 120"><linearGradient id="a" x1="7.893" x2="111.68" y1="7.893" y2="111.68" gradientUnits="userSpaceOnUse"><stop offset="0" stop-color="#3286f1"/><stop offset="1" stop-color="#c43ac4"/></linearGradient><radialGradient id="b" cx="0" cy="0" r="1" gradientTransform="rotate(45 -5.581 13.475)scale(188.713)" gradientUnits="userSpaceOnUse"><stop offset="0" stop-color="#fff"/><stop offset="1" stop-color="#fff"/></radialGradient><linearGradient id="c" x1="-44" x2="20.867" y1="59.787" y2="79.247" gradientUnits="userSpaceOnUse"><stop offset="0" stop-color="#fff"/><stop offset="1" stop-color="#fff" stop-opacity="0"/></linearGradient><linearGradient id="d" x1="61.811" x2="38.679" y1="39.305" y2="62.28" gradientUnits="userSpaceOnUse"><stop offset="0" stop-color="#0096ff"/><stop offset="1" stop-color="#ff1e56"/></linearGradient><path fill="#000" fill-opacity=".64" d="M7.893 19.893c0-6.627 5.373-12 12-12H99.68c6.628 0 12 5.373 12 12V99.68c0 6.628-5.372 12-12 12H19.893c-6.627 0-12-5.372-12-12z"/><path fill="url(#a)" fill-opacity=".15" d="M7.893 19.893c0-6.627 5.373-12 12-12H99.68c6.628 0 12 5.373 12 12V99.68c0 6.628-5.372 12-12 12H19.893c-6.627 0-12-5.372-12-12z"/><path fill="#000" fill-opacity=".5" d="M7.893 19.893c0-6.627 5.373-12 12-12H99.68c6.628 0 12 5.373 12 12V99.68c0 6.628-5.372 12-12 12H19.893c-6.627 0-12-5.372-12-12z"/><path stroke="url(#b)" stroke-opacity=".15" d="M19.893 8.393H99.68c6.351 0 11.5 5.15 11.5 11.5V99.68c0 6.351-5.149 11.5-11.5 11.5H19.893c-6.35 0-11.5-5.149-11.5-11.5V19.893c0-6.35 5.15-11.5 11.5-11.5z"/><path stroke="url(#c)" stroke-opacity=".5" d="M19.893 8.393H99.68c6.351 0 11.5 5.15 11.5 11.5V99.68c0 6.351-5.149 11.5-11.5 11.5H19.893c-6.35 0-11.5-5.149-11.5-11.5V19.893c0-6.35 5.15-11.5 11.5-11.5z"/><g fill-rule="evenodd" clip-rule="evenodd"><path fill="#fff" d="M52.548 51.548a1 1 0 0 0-1 1v13.904a1 1 0 0 0 1 1h13.904a1 1 0 0 0 1-1V52.548a1 1 0 0 0-1-1zM45.916 45a.916.916 0 0 0-.916.916v27.168c0 .506.41.916.916.916h27.168c.506 0 .916-.41.916-.916V45.916a.916.916 0 0 0-.916-.916z"/><path fill="url(#d)" d="M36 77V60h7v14q0 .226.048.437l-5.98 5.98A5.97 5.97 0 0 1 36 77m2.465 4.849A5.97 5.97 0 0 0 42 83h17v-7H45a2 2 0 0 1-.596-.09zM61 76v7h16a6 6 0 0 0 6-6V42a6 6 0 0 0-6-6H60v7h14a2 2 0 0 1 2 2v29a2 2 0 0 1-2 2z"/></g></svg>