<svg fill="none" height="120" viewBox="0 0 120 120" width="120" xmlns="http://www.w3.org/2000/svg" xmlns:xlink="http://www.w3.org/1999/xlink"><linearGradient id="a" gradientUnits="userSpaceOnUse" x1="7.8934" x2="111.68" y1="7.8934" y2="111.68"><stop offset="0" stop-color="#3286f1"/><stop offset="1" stop-color="#c43ac4"/></linearGradient><radialGradient id="b" cx="0" cy="0" gradientTransform="matrix(133.440242 133.440242 -133.440242 133.440242 7.89339 7.89341)" gradientUnits="userSpaceOnUse" r="1"><stop offset="0" stop-color="#fff"/><stop offset="1" stop-color="#fff"/></radialGradient><linearGradient id="c" gradientUnits="userSpaceOnUse" x1="-44" x2="20.8667" y1="59.7868" y2="79.2468"><stop offset="0" stop-color="#fff"/><stop offset="1" stop-color="#fff" stop-opacity="0"/></linearGradient><linearGradient id="d" gradientUnits="userSpaceOnUse" x1="61.8108" x2="38.6787" y1="39.3047" y2="62.28"><stop offset="0" stop-color="#0096ff"/><stop offset="1" stop-color="#ff1e56"/></linearGradient><path d="m7.8934 19.8934c0-6.6274 5.3726-12 12-12h79.7868c6.6278 0 11.9998 5.3726 11.9998 12v79.7868c0 6.6278-5.372 11.9998-11.9998 11.9998h-79.7868c-6.6274 0-12-5.372-12-11.9998z" fill="#000" fill-opacity=".64"/><path d="m7.8934 19.8934c0-6.6274 5.3726-12 12-12h79.7868c6.6278 0 11.9998 5.3726 11.9998 12v79.7868c0 6.6278-5.372 11.9998-11.9998 11.9998h-79.7868c-6.6274 0-12-5.372-12-11.9998z" fill="url(#a)" fill-opacity=".15"/><path d="m7.8934 19.8934c0-6.6274 5.3726-12 12-12h79.7868c6.6278 0 11.9998 5.3726 11.9998 12v79.7868c0 6.6278-5.372 11.9998-11.9998 11.9998h-79.7868c-6.6274 0-12-5.372-12-11.9998z" fill="#000" fill-opacity=".5"/><path d="m19.8934 8.3934 79.7868.00001c6.3508-.00001 11.4998 5.14869 11.4998 11.49999v79.7868c0 6.3508-5.149 11.4998-11.4998 11.4998h-79.7868c-6.3513 0-11.5-5.149-11.5-11.4998v-79.7868c0-6.3513 5.1487-11.5 11.5-11.5z" stroke="url(#b)" stroke-opacity=".15"/><path d="m19.8934 8.3934 79.7868.00001c6.3508-.00001 11.4998 5.14869 11.4998 11.49999v79.7868c0 6.3508-5.149 11.4998-11.4998 11.4998h-79.7868c-6.3513 0-11.5-5.149-11.5-11.4998v-79.7868c0-6.3513 5.1487-11.5 11.5-11.5z" stroke="url(#c)" stroke-opacity=".5"/><g clip-rule="evenodd" fill-rule="evenodd"><path d="m52.5484 51.5484c-.5523 0-1 .4477-1 1v13.9032c0 .5523.4477 1 1 1h13.9032c.5523 0 1-.4477 1-1v-13.9032c0-.5523-.4477-1-1-1zm-6.6324-6.5484c-.5059 0-.916.4101-.916.916v27.168c0 .5059.4101.916.916.916h27.168c.5059 0 .916-.4101.916-.916v-27.168c0-.5059-.4101-.916-.916-.916z" fill="#fff"/><path d="m36 77v-17h7v14c0 .1502.0166.2966.048.4373l-5.9802 5.9802c-.6732-.9697-1.0678-2.1475-1.0678-3.4175zm2.4651 4.8486c.9914.7241 2.2132 1.1514 3.5349 1.1514h17v-7h-14c-.2076 0-.4077-.0316-.596-.0903zm22.5349-5.8486v7h16c3.3137 0 6-2.6863 6-6v-35c0-3.3137-2.6863-6-6-6h-17v7h14c1.1046 0 2 .8954 2 2v29c0 1.1046-.8954 2-2 2z" fill="url(#d)"/></g></svg>