<svg xmlns="http://www.w3.org/2000/svg" width="280" height="280" fill="none" viewBox="0 0 280 280"><g fill="currentColor" fill-rule="evenodd" clip-rule="evenodd"><path d="m215.591 212.899 45.872-141.475c3.599-11.092-2.472-23.03-13.541-26.631s-22.981 2.477-26.575 13.57l-45.872 141.469c-3.599 11.092 2.472 23.03 13.541 26.631 11.069 3.606 22.982-2.472 26.575-13.564"/><path d="m215.591 212.899 45.872-141.475c3.599-11.092-2.472-23.03-13.541-26.631s-22.981 2.477-26.575 13.57l-45.872 141.469c-3.599 11.092 2.472 23.03 13.541 26.631 11.069 3.606 22.982-2.472 26.575-13.564"/><path fill-opacity=".8" d="m215.591 212.899 45.872-141.475c3.599-11.092-2.472-23.03-13.541-26.631s-22.981 2.477-26.575 13.57l-45.872 141.469c-3.599 11.092 2.472 23.03 13.541 26.631 11.069 3.606 22.982-2.472 26.575-13.564"/><path d="m215.591 212.899 45.872-141.475c3.599-11.092-2.472-23.03-13.541-26.631s-22.981 2.477-26.575 13.57l-45.872 141.469c-3.599 11.092 2.472 23.03 13.541 26.631 11.069 3.606 22.982-2.472 26.575-13.564"/><path d="m215.591 212.899 45.872-141.475c3.599-11.092-2.472-23.03-13.541-26.631s-22.981 2.477-26.575 13.57l-45.872 141.469c-3.599 11.092 2.472 23.03 13.541 26.631 11.069 3.606 22.982-2.472 26.575-13.564"/><path d="m215.591 212.899 45.872-141.475c3.599-11.092-2.472-23.03-13.541-26.631s-22.981 2.477-26.575 13.57l-45.872 141.469c-3.599 11.092 2.472 23.03 13.541 26.631 11.069 3.606 22.982-2.472 26.575-13.564"/><path d="M139.994 129.046c5.206 0 9.045 3.055 12.318 6.886 3.637 4.265 6.541 9.552 9.008 15.165 11.091 25.196 13.168 56.718 13.168 56.718.795 11.638 10.871 20.435 22.485 19.637s20.391-10.899 19.596-22.532c0 0-2.787-39.371-16.654-70.882-11.892-27.021-32.027-47.263-59.916-47.263s-48.024 20.242-59.915 47.263C66.212 165.549 63.43 204.92 63.43 204.92c-.796 11.638 7.983 21.735 19.596 22.532 11.614.798 21.69-7.999 22.485-19.637 0 0 2.077-31.516 13.167-56.718 2.467-5.608 5.372-10.9 9.008-15.165 3.268-3.831 7.107-6.886 12.308-6.886"/><path d="M139.994 129.046c5.206 0 9.045 3.055 12.318 6.886 3.637 4.265 6.541 9.552 9.008 15.165 11.091 25.196 13.168 56.718 13.168 56.718.795 11.638 10.871 20.435 22.485 19.637s20.391-10.899 19.596-22.532c0 0-2.787-39.371-16.654-70.882-11.892-27.021-32.027-47.263-59.916-47.263s-48.024 20.242-59.915 47.263C66.212 165.549 63.43 204.92 63.43 204.92c-.796 11.638 7.983 21.735 19.596 22.532 11.614.798 21.69-7.999 22.485-19.637 0 0 2.077-31.516 13.167-56.718 2.467-5.608 5.372-10.9 9.008-15.165 3.268-3.831 7.107-6.886 12.308-6.886"/><path d="M139.994 129.046c5.206 0 9.045 3.055 12.318 6.886 3.637 4.265 6.541 9.552 9.008 15.165 11.091 25.196 13.168 56.718 13.168 56.718.795 11.638 10.871 20.435 22.485 19.637s20.391-10.899 19.596-22.532c0 0-2.787-39.371-16.654-70.882-11.892-27.021-32.027-47.263-59.916-47.263s-48.024 20.242-59.915 47.263C66.212 165.549 63.43 204.92 63.43 204.92c-.796 11.638 7.983 21.735 19.596 22.532 11.614.798 21.69-7.999 22.485-19.637 0 0 2.077-31.516 13.167-56.718 2.467-5.608 5.372-10.9 9.008-15.165 3.268-3.831 7.107-6.886 12.308-6.886"/><path d="M139.994 129.046c5.206 0 9.045 3.055 12.318 6.886 3.637 4.265 6.541 9.552 9.008 15.165 11.091 25.196 13.168 56.718 13.168 56.718.795 11.638 10.871 20.435 22.485 19.637s20.391-10.899 19.596-22.532c0 0-2.787-39.371-16.654-70.882-11.892-27.021-32.027-47.263-59.916-47.263s-48.024 20.242-59.915 47.263C66.212 165.549 63.43 204.92 63.43 204.92c-.796 11.638 7.983 21.735 19.596 22.532 11.614.798 21.69-7.999 22.485-19.637 0 0 2.077-31.516 13.167-56.718 2.467-5.608 5.372-10.9 9.008-15.165 3.268-3.831 7.107-6.886 12.308-6.886"/><path d="M139.994 129.046c5.206 0 9.045 3.055 12.318 6.886 3.637 4.265 6.541 9.552 9.008 15.165 11.091 25.196 13.168 56.718 13.168 56.718.795 11.638 10.871 20.435 22.485 19.637s20.391-10.899 19.596-22.532c0 0-2.787-39.371-16.654-70.882-11.892-27.021-32.027-47.263-59.916-47.263s-48.024 20.242-59.915 47.263C66.212 165.549 63.43 204.92 63.43 204.92c-.796 11.638 7.983 21.735 19.596 22.532 11.614.798 21.69-7.999 22.485-19.637 0 0 2.077-31.516 13.167-56.718 2.467-5.608 5.372-10.9 9.008-15.165 3.268-3.831 7.107-6.886 12.308-6.886"/><path d="M139.994 129.046c5.206 0 9.045 3.055 12.318 6.886 3.637 4.265 6.541 9.552 9.008 15.165 11.091 25.196 13.168 56.718 13.168 56.718.795 11.638 10.871 20.435 22.485 19.637s20.391-10.899 19.596-22.532c0 0-2.787-39.371-16.654-70.882-11.892-27.021-32.027-47.263-59.916-47.263s-48.024 20.242-59.915 47.263C66.212 165.549 63.43 204.92 63.43 204.92c-.796 11.638 7.983 21.735 19.596 22.532 11.614.798 21.69-7.999 22.485-19.637 0 0 2.077-31.516 13.167-56.718 2.467-5.608 5.372-10.9 9.008-15.165 3.268-3.831 7.107-6.886 12.308-6.886"/><path d="M139.994 129.046c5.206 0 9.045 3.055 12.318 6.886 3.637 4.265 6.541 9.552 9.008 15.165 11.091 25.196 13.168 56.718 13.168 56.718.795 11.638 10.871 20.435 22.485 19.637s20.391-10.899 19.596-22.532c0 0-2.787-39.371-16.654-70.882-11.892-27.021-32.027-47.263-59.916-47.263s-48.024 20.242-59.915 47.263C66.212 165.549 63.43 204.92 63.43 204.92c-.796 11.638 7.983 21.735 19.596 22.532 11.614.798 21.69-7.999 22.485-19.637 0 0 2.077-31.516 13.167-56.718 2.467-5.608 5.372-10.9 9.008-15.165 3.268-3.831 7.107-6.886 12.308-6.886"/><path d="M139.994 129.046c5.206 0 9.045 3.055 12.318 6.886 3.637 4.265 6.541 9.552 9.008 15.165 11.091 25.196 13.168 56.718 13.168 56.718.795 11.638 10.871 20.435 22.485 19.637s20.391-10.899 19.596-22.532c0 0-2.787-39.371-16.654-70.882-11.892-27.021-32.027-47.263-59.916-47.263s-48.024 20.242-59.915 47.263C66.212 165.549 63.43 204.92 63.43 204.92c-.796 11.638 7.983 21.735 19.596 22.532 11.614.798 21.69-7.999 22.485-19.637 0 0 2.077-31.516 13.167-56.718 2.467-5.608 5.372-10.9 9.008-15.165 3.268-3.831 7.107-6.886 12.308-6.886"/><path d="M139.994 129.046c5.206 0 9.045 3.055 12.318 6.886 3.637 4.265 6.541 9.552 9.008 15.165 11.091 25.196 13.168 56.718 13.168 56.718.795 11.638 10.871 20.435 22.485 19.637s20.391-10.899 19.596-22.532c0 0-2.787-39.371-16.654-70.882-11.892-27.021-32.027-47.263-59.916-47.263s-48.024 20.242-59.915 47.263C66.212 165.549 63.43 204.92 63.43 204.92c-.796 11.638 7.983 21.735 19.596 22.532 11.614.798 21.69-7.999 22.485-19.637 0 0 2.077-31.516 13.167-56.718 2.467-5.608 5.372-10.9 9.008-15.165 3.268-3.831 7.107-6.886 12.308-6.886"/><path d="M104.525 199.832 58.653 58.357c-3.593-11.092-15.5-17.176-26.575-13.57-11.069 3.607-17.14 15.54-13.541 26.631l45.872 141.475c3.599 11.092 15.506 17.176 26.575 13.57 11.069-3.607 17.14-15.539 13.541-26.631"/><path d="M104.525 199.832 58.653 58.357c-3.593-11.092-15.5-17.176-26.575-13.57-11.069 3.607-17.14 15.54-13.541 26.631l45.872 141.475c3.599 11.092 15.506 17.176 26.575 13.57 11.069-3.607 17.14-15.539 13.541-26.631"/><path d="M104.525 199.832 58.653 58.357c-3.593-11.092-15.5-17.176-26.575-13.57-11.069 3.607-17.14 15.54-13.541 26.631l45.872 141.475c3.599 11.092 15.506 17.176 26.575 13.57 11.069-3.607 17.14-15.539 13.541-26.631"/><path d="M104.525 199.832 58.653 58.357c-3.593-11.092-15.5-17.176-26.575-13.57-11.069 3.607-17.14 15.54-13.541 26.631l45.872 141.475c3.599 11.092 15.506 17.176 26.575 13.57 11.069-3.607 17.14-15.539 13.541-26.631"/><path d="M104.525 199.832 58.653 58.357c-3.593-11.092-15.5-17.176-26.575-13.57-11.069 3.607-17.14 15.54-13.541 26.631l45.872 141.475c3.599 11.092 15.506 17.176 26.575 13.57 11.069-3.607 17.14-15.539 13.541-26.631"/></g></svg>