<svg fill="none" height="280" viewBox="0 0 280 280" width="280" xmlns="http://www.w3.org/2000/svg" xmlns:xlink="http://www.w3.org/1999/xlink"><radialGradient id="a" cx="0" cy="0" gradientTransform="matrix(55.55946174 -114.75132351 114.75042346 55.55902596 196.586785 158.506924)" gradientUnits="userSpaceOnUse" r="1"><stop offset=".832" stop-color="#4a4efa" stop-opacity="0"/><stop offset="1" stop-color="#4a4efa" stop-opacity=".75"/></radialGradient><radialGradient id="b" cx="0" cy="0" gradientTransform="matrix(28.4242 0 0 60.7891 194.115 150.092)" gradientUnits="userSpaceOnUse" r="1"><stop offset=".169" stop-color="#11417a"/><stop offset=".926" stop-color="#4069d4" stop-opacity="0"/></radialGradient><radialGradient id="c" cx="0" cy="0" gradientTransform="matrix(0 -94.017 45.0586 0 227.016 227.502)" gradientUnits="userSpaceOnUse" r="1"><stop offset=".349" stop-color="#e63cfe"/><stop offset="1" stop-color="#e63cfe" stop-opacity="0"/></radialGradient><radialGradient id="d" cx="0" cy="0" gradientTransform="matrix(7.14987196 -96.60096429 85.77417914 6.34853288 132.849414 160.977584)" gradientUnits="userSpaceOnUse" r="1"><stop offset="0" stop-color="#39fbbb" stop-opacity=".5"/><stop offset=".689" stop-color="#39fbbb"/><stop offset="1" stop-color="#39fbbb" stop-opacity="0"/></radialGradient><radialGradient id="e" cx="0" cy="0" gradientTransform="matrix(-125.21289428 -195.5717872 47.57935718 -30.46221086 270.860132 215.514509)" gradientUnits="userSpaceOnUse" r="1"><stop offset="0" stop-color="#e63cfe"/><stop offset="1" stop-color="#e63cfe" stop-opacity="0"/></radialGradient><radialGradient id="f" cx="0" cy="0" gradientTransform="matrix(9.07100195 -104.1005377 89.54698465 7.80284992 136.699453 190.875012)" gradientUnits="userSpaceOnUse" r="1"><stop offset=".557" stop-color="#4a4efa"/><stop offset=".935" stop-color="#4a4efa" stop-opacity="0"/></radialGradient><radialGradient id="g" cx="0" cy="0" gradientTransform="matrix(39.7519237 -101.62808882 60.64866626 23.72278355 108.364332 222.502041)" gradientUnits="userSpaceOnUse" r="1"><stop offset=".613" stop-color="#e63cfe"/><stop offset="1" stop-color="#e63cfe" stop-opacity="0"/></radialGradient><radialGradient id="h" cx="0" cy="0" gradientTransform="matrix(-135.20026383 8.90178131 -22.50394597 -341.78995497 213.950736 148.600204)" gradientUnits="userSpaceOnUse" r="1"><stop offset=".814" stop-color="#4a98d0" stop-opacity="0"/><stop offset=".973" stop-color="#11417a"/></radialGradient><radialGradient id="i" cx="0" cy="0" gradientTransform="matrix(0 -97.1075 80.5718 0 100.227 227.502)" gradientUnits="userSpaceOnUse" r="1"><stop offset=".458" stop-color="#ffae3c"/><stop offset="1" stop-color="#ffae3c" stop-opacity="0"/></radialGradient><radialGradient id="j" cx="0" cy="0" gradientTransform="matrix(0 -87.529 87.528 0 217.978 227.502)" gradientUnits="userSpaceOnUse" r="1"><stop offset=".192" stop-color="#e63cfe"/><stop offset="1" stop-color="#e63cfe" stop-opacity="0"/></radialGradient><radialGradient id="k" cx="0" cy="0" gradientTransform="matrix(0 -65.8652 31.287 0 166.628 227.502)" gradientUnits="userSpaceOnUse" r="1"><stop offset=".174" stop-color="#ffae3c"/><stop offset="1" stop-color="#ffae3c" stop-opacity="0"/></radialGradient><radialGradient id="l" cx="0" cy="0" gradientTransform="matrix(-27.9468349 9.59995777 -46.87750831 -136.46705702 58.777583 99.910151)" gradientUnits="userSpaceOnUse" r="1"><stop offset=".12" stop-color="#4a4efa"/><stop offset="1" stop-color="#4a4efa" stop-opacity="0"/></radialGradient><radialGradient id="m" cx="0" cy="0" gradientTransform="matrix(0 -94.9397 103.714 0 105.562 227.502)" gradientUnits="userSpaceOnUse" r="1"><stop offset=".465" stop-color="#ffae3c"/><stop offset=".926" stop-color="#ffae3c" stop-opacity="0"/></radialGradient><radialGradient id="n" cx="0" cy="0" gradientTransform="matrix(0 -207.732 207.73 0 105.562 227.502)" gradientUnits="userSpaceOnUse" r="1"><stop offset=".844" stop-color="#e63cfe" stop-opacity="0"/><stop offset="1" stop-color="#e63cfe"/></radialGradient><linearGradient id="o" gradientUnits="userSpaceOnUse" x1="285.998" x2="217.306" y1="-2.595" y2="219.523"><stop offset="0" stop-color="#4a4efa"/><stop offset=".549" stop-color="#e63cfe"/></linearGradient><linearGradient id="p" gradientUnits="userSpaceOnUse" x1="199.725" x2="238.638" y1="125.449" y2="138.045"><stop offset=".16" stop-color="#4a4efa"/><stop offset=".946" stop-color="#4a4efa" stop-opacity="0"/></linearGradient><linearGradient id="q" gradientUnits="userSpaceOnUse" x1="205.622" x2="230.072" y1="106.773" y2="114.593"><stop offset="0" stop-color="#39fbbb"/><stop offset="1" stop-color="#39fbbb" stop-opacity="0"/></linearGradient><linearGradient id="r" gradientUnits="userSpaceOnUse" x1="10.293" x2="69.52" y1="52.578" y2="236.841"><stop offset=".17" stop-color="#e63cfe"/><stop offset=".709" stop-color="#ffae3c"/></linearGradient><linearGradient id="s" gradientUnits="userSpaceOnUse" x1="84.766" x2="76.471" y1="138.7" y2="141.415"><stop offset="0" stop-color="#e63cfe" stop-opacity=".33"/><stop offset="1" stop-color="#e63cfe" stop-opacity="0"/></linearGradient><g clip-rule="evenodd" fill-rule="evenodd"><path d="m215.591 212.899 45.872-141.475c3.599-11.092-2.472-23.03-13.541-26.631s-22.981 2.477-26.575 13.57l-45.872 141.469c-3.599 11.092 2.472 23.03 13.541 26.631 11.069 3.606 22.982-2.472 26.575-13.564" fill="url(#o)"/><path d="m215.591 212.899 45.872-141.475c3.599-11.092-2.472-23.03-13.541-26.631s-22.981 2.477-26.575 13.57l-45.872 141.469c-3.599 11.092 2.472 23.03 13.541 26.631 11.069 3.606 22.982-2.472 26.575-13.564" fill="url(#p)"/><path d="m215.591 212.899 45.872-141.475c3.599-11.092-2.472-23.03-13.541-26.631s-22.981 2.477-26.575 13.57l-45.872 141.469c-3.599 11.092 2.472 23.03 13.541 26.631 11.069 3.606 22.982-2.472 26.575-13.564" fill="url(#q)" fill-opacity=".8"/><path d="m215.591 212.899 45.872-141.475c3.599-11.092-2.472-23.03-13.541-26.631s-22.981 2.477-26.575 13.57l-45.872 141.469c-3.599 11.092 2.472 23.03 13.541 26.631 11.069 3.606 22.982-2.472 26.575-13.564" fill="url(#a)"/><path d="m215.591 212.899 45.872-141.475c3.599-11.092-2.472-23.03-13.541-26.631s-22.981 2.477-26.575 13.57l-45.872 141.469c-3.599 11.092 2.472 23.03 13.541 26.631 11.069 3.606 22.982-2.472 26.575-13.564" fill="url(#b)"/><path d="m215.591 212.899 45.872-141.475c3.599-11.092-2.472-23.03-13.541-26.631s-22.981 2.477-26.575 13.57l-45.872 141.469c-3.599 11.092 2.472 23.03 13.541 26.631 11.069 3.606 22.982-2.472 26.575-13.564" fill="url(#c)"/><path d="m139.994 129.046c5.206 0 9.045 3.055 12.318 6.886 3.637 4.265 6.541 9.552 9.008 15.165 11.091 25.196 13.168 56.718 13.168 56.718.795 11.638 10.871 20.435 22.485 19.637s20.391-10.899 19.596-22.532c0 0-2.787-39.371-16.654-70.882-11.892-27.021-32.027-47.263-59.916-47.263s-48.024 20.242-59.915 47.263c-13.872 31.511-16.654 70.882-16.654 70.882-.796 11.638 7.983 21.735 19.596 22.532 11.614.798 21.69-7.999 22.485-19.637 0 0 2.077-31.516 13.167-56.718 2.467-5.608 5.372-10.9 9.008-15.165 3.268-3.831 7.107-6.886 12.308-6.886" fill="#e63cfe"/><path d="m139.994 129.046c5.206 0 9.045 3.055 12.318 6.886 3.637 4.265 6.541 9.552 9.008 15.165 11.091 25.196 13.168 56.718 13.168 56.718.795 11.638 10.871 20.435 22.485 19.637s20.391-10.899 19.596-22.532c0 0-2.787-39.371-16.654-70.882-11.892-27.021-32.027-47.263-59.916-47.263s-48.024 20.242-59.915 47.263c-13.872 31.511-16.654 70.882-16.654 70.882-.796 11.638 7.983 21.735 19.596 22.532 11.614.798 21.69-7.999 22.485-19.637 0 0 2.077-31.516 13.167-56.718 2.467-5.608 5.372-10.9 9.008-15.165 3.268-3.831 7.107-6.886 12.308-6.886" fill="url(#d)"/><path d="m139.994 129.046c5.206 0 9.045 3.055 12.318 6.886 3.637 4.265 6.541 9.552 9.008 15.165 11.091 25.196 13.168 56.718 13.168 56.718.795 11.638 10.871 20.435 22.485 19.637s20.391-10.899 19.596-22.532c0 0-2.787-39.371-16.654-70.882-11.892-27.021-32.027-47.263-59.916-47.263s-48.024 20.242-59.915 47.263c-13.872 31.511-16.654 70.882-16.654 70.882-.796 11.638 7.983 21.735 19.596 22.532 11.614.798 21.69-7.999 22.485-19.637 0 0 2.077-31.516 13.167-56.718 2.467-5.608 5.372-10.9 9.008-15.165 3.268-3.831 7.107-6.886 12.308-6.886" fill="url(#e)"/><path d="m139.994 129.046c5.206 0 9.045 3.055 12.318 6.886 3.637 4.265 6.541 9.552 9.008 15.165 11.091 25.196 13.168 56.718 13.168 56.718.795 11.638 10.871 20.435 22.485 19.637s20.391-10.899 19.596-22.532c0 0-2.787-39.371-16.654-70.882-11.892-27.021-32.027-47.263-59.916-47.263s-48.024 20.242-59.915 47.263c-13.872 31.511-16.654 70.882-16.654 70.882-.796 11.638 7.983 21.735 19.596 22.532 11.614.798 21.69-7.999 22.485-19.637 0 0 2.077-31.516 13.167-56.718 2.467-5.608 5.372-10.9 9.008-15.165 3.268-3.831 7.107-6.886 12.308-6.886" fill="url(#f)"/><path d="m139.994 129.046c5.206 0 9.045 3.055 12.318 6.886 3.637 4.265 6.541 9.552 9.008 15.165 11.091 25.196 13.168 56.718 13.168 56.718.795 11.638 10.871 20.435 22.485 19.637s20.391-10.899 19.596-22.532c0 0-2.787-39.371-16.654-70.882-11.892-27.021-32.027-47.263-59.916-47.263s-48.024 20.242-59.915 47.263c-13.872 31.511-16.654 70.882-16.654 70.882-.796 11.638 7.983 21.735 19.596 22.532 11.614.798 21.69-7.999 22.485-19.637 0 0 2.077-31.516 13.167-56.718 2.467-5.608 5.372-10.9 9.008-15.165 3.268-3.831 7.107-6.886 12.308-6.886" fill="url(#g)"/><path d="m139.994 129.046c5.206 0 9.045 3.055 12.318 6.886 3.637 4.265 6.541 9.552 9.008 15.165 11.091 25.196 13.168 56.718 13.168 56.718.795 11.638 10.871 20.435 22.485 19.637s20.391-10.899 19.596-22.532c0 0-2.787-39.371-16.654-70.882-11.892-27.021-32.027-47.263-59.916-47.263s-48.024 20.242-59.915 47.263c-13.872 31.511-16.654 70.882-16.654 70.882-.796 11.638 7.983 21.735 19.596 22.532 11.614.798 21.69-7.999 22.485-19.637 0 0 2.077-31.516 13.167-56.718 2.467-5.608 5.372-10.9 9.008-15.165 3.268-3.831 7.107-6.886 12.308-6.886" fill="url(#h)"/><path d="m139.994 129.046c5.206 0 9.045 3.055 12.318 6.886 3.637 4.265 6.541 9.552 9.008 15.165 11.091 25.196 13.168 56.718 13.168 56.718.795 11.638 10.871 20.435 22.485 19.637s20.391-10.899 19.596-22.532c0 0-2.787-39.371-16.654-70.882-11.892-27.021-32.027-47.263-59.916-47.263s-48.024 20.242-59.915 47.263c-13.872 31.511-16.654 70.882-16.654 70.882-.796 11.638 7.983 21.735 19.596 22.532 11.614.798 21.69-7.999 22.485-19.637 0 0 2.077-31.516 13.167-56.718 2.467-5.608 5.372-10.9 9.008-15.165 3.268-3.831 7.107-6.886 12.308-6.886" fill="url(#i)"/><path d="m139.994 129.046c5.206 0 9.045 3.055 12.318 6.886 3.637 4.265 6.541 9.552 9.008 15.165 11.091 25.196 13.168 56.718 13.168 56.718.795 11.638 10.871 20.435 22.485 19.637s20.391-10.899 19.596-22.532c0 0-2.787-39.371-16.654-70.882-11.892-27.021-32.027-47.263-59.916-47.263s-48.024 20.242-59.915 47.263c-13.872 31.511-16.654 70.882-16.654 70.882-.796 11.638 7.983 21.735 19.596 22.532 11.614.798 21.69-7.999 22.485-19.637 0 0 2.077-31.516 13.167-56.718 2.467-5.608 5.372-10.9 9.008-15.165 3.268-3.831 7.107-6.886 12.308-6.886" fill="url(#j)"/><path d="m139.994 129.046c5.206 0 9.045 3.055 12.318 6.886 3.637 4.265 6.541 9.552 9.008 15.165 11.091 25.196 13.168 56.718 13.168 56.718.795 11.638 10.871 20.435 22.485 19.637s20.391-10.899 19.596-22.532c0 0-2.787-39.371-16.654-70.882-11.892-27.021-32.027-47.263-59.916-47.263s-48.024 20.242-59.915 47.263c-13.872 31.511-16.654 70.882-16.654 70.882-.796 11.638 7.983 21.735 19.596 22.532 11.614.798 21.69-7.999 22.485-19.637 0 0 2.077-31.516 13.167-56.718 2.467-5.608 5.372-10.9 9.008-15.165 3.268-3.831 7.107-6.886 12.308-6.886" fill="url(#k)"/><path d="m104.525 199.832-45.872-141.475c-3.593-11.092-15.5-17.176-26.575-13.57-11.069 3.607-17.14 15.54-13.541 26.631l45.872 141.475c3.599 11.092 15.506 17.176 26.575 13.57 11.069-3.607 17.14-15.539 13.541-26.631" fill="url(#r)"/><path d="m104.525 199.832-45.872-141.475c-3.593-11.092-15.5-17.176-26.575-13.57-11.069 3.607-17.14 15.54-13.541 26.631l45.872 141.475c3.599 11.092 15.506 17.176 26.575 13.57 11.069-3.607 17.14-15.539 13.541-26.631" fill="url(#l)"/><path d="m104.525 199.832-45.872-141.475c-3.593-11.092-15.5-17.176-26.575-13.57-11.069 3.607-17.14 15.54-13.541 26.631l45.872 141.475c3.599 11.092 15.506 17.176 26.575 13.57 11.069-3.607 17.14-15.539 13.541-26.631" fill="url(#s)"/><path d="m104.525 199.832-45.872-141.475c-3.593-11.092-15.5-17.176-26.575-13.57-11.069 3.607-17.14 15.54-13.541 26.631l45.872 141.475c3.599 11.092 15.506 17.176 26.575 13.57 11.069-3.607 17.14-15.539 13.541-26.631" fill="url(#m)"/><path d="m104.525 199.832-45.872-141.475c-3.593-11.092-15.5-17.176-26.575-13.57-11.069 3.607-17.14 15.54-13.541 26.631l45.872 141.475c3.599 11.092 15.506 17.176 26.575 13.57 11.069-3.607 17.14-15.539 13.541-26.631" fill="url(#n)"/></g></svg>