<svg height="24" width="24" xmlns="http://www.w3.org/2000/svg"><path d="m8.999 7.013h2v4h-2zm4 0h2v4h-2z" fill="#aecbfa"/><path d="m8 18.93a7.993 7.993 0 0 1 4-14.917v-2a10 10 0 0 0 -4 19.159z" fill="#aecbfa"/><path d="m10.999 17.012h2v5h-2z" fill="#4285f4"/><path d="m16.99 10.013h-9.99v2.937a5 5 0 1 0 10.008 0z" fill="#4285f4"/><path d="m12 18.012a5.04 5.04 0 0 1 -5-5.062v-2.937h5" fill="#669df6"/><path d="m12 2.012a10 10 0 0 1 4 19.163v-2.244a7.994 7.994 0 0 0 -4-14.919z" fill="#4285f4"/></svg>