<svg height="48" viewBox="0 0 48 48" width="48" xmlns="http://www.w3.org/2000/svg"><path d="m9 24c0-1.103-.897-2-2-2s-2 .897-2 2 .897 2 2 2 2-.897 2-2m33-2c-1.103 0-2 .897-2 2s.897 2 2 2 2-.897 2-2-.897-2-2-2m-17.548 20c-1.102 0-2 .897-2 2s.898 2 2 2c1.103 0 2-.897 2-2s-.897-2-2-2m0-36c1.103 0 2-.897 2-2s-.897-2-2-2-2 .897-2 2 .898 2 2 2m2.125 10.693-6.104 13.637 1.826.817 6.104-13.637zm3.612 11.111 4.632-3.38c.235-.172.384-.437.408-.727a1 1 0 0 0 -.286-.783l-4.068-4.127-1.424 1.404 3.254 3.301-3.695 2.697zm-11.501-9.143-4.688 3.422a.997.997 0 0 0 -.121 1.51l4.082 4.127 1.422-1.406-3.265-3.301 3.749-2.737zm22.312 1.339h2v-5.834a1 1 0 0 0 -.498-.866l-14.463-8.384-1.004 1.73 13.965 8.096zm0 13.621-13.935 7.99.995 1.736 14.437-8.279a1 1 0 0 0 .503-.868v-6.2h-2zm-33.001-5.621h-2v6.009c0 .353.187.681.491.861l14.208 8.396 1.018-1.722-13.717-8.106zm0-8h-2v-6.026c0-.358.191-.689.502-.867l14.246-8.191.996 1.733-13.744 7.903z" fill="#7aa116" fill-rule="evenodd"/></svg>