<svg viewBox="0 0 24 24" xmlns="http://www.w3.org/2000/svg"><path d="m19.066.131c-.064-.106-.212-.17-.34-.106l-2.39 1.333c-1.206.678-1.968 1.397-2.434 2.772a4.68 4.68 0 0 0 .339 3.746c.063.106.212.17.338.106l2.392-1.333c1.206-.678 1.968-1.397 2.433-2.772a4.68 4.68 0 0 0 -.338-3.747zm-17.14 5.29a.325.325 0 0 0 -.318.318c0 1.714.74 3.258 1.905 4.316 1.354 1.228 2.623 1.545 4.359 1.545h3.428a.325.325 0 0 0 .317-.317c0-1.714-.74-3.26-1.904-4.317-1.355-1.227-2.624-1.546-4.36-1.546h-3.426zm21.9 5.121a.325.325 0 0 0 -.317-.317v.02h-3.47c-1.757 0-3.047.34-4.423 1.567-1.185 1.036-1.946 2.623-1.946 4.359 0 .169.148.317.317.317h3.47c1.757 0 3.047-.339 4.423-1.566a5.9 5.9 0 0 0 1.947-4.38zm-23.826 5.248c0-.233.19-.445.444-.445h4.804c2.433 0 4.21.466 6.115 2.18 1.63 1.46 2.645 3.64 2.666 6.03 0 .233-.19.445-.444.445h-4.803c-2.434 0-4.211-.444-6.116-2.158-1.63-1.482-2.645-3.662-2.666-6.052" fill="#416fdc"/></svg>