<svg xmlns="http://www.w3.org/2000/svg" width="18" height="18" viewBox="0 0 18 18"><defs><mask id="a"><path fill="#fff" d="M0 0h18v18H0z"/><path d="M5.927 14.472H3.721a.12.12 0 0 0-.119.119v3.338a.06.06 0 0 0 .06.06.06.06 0 0 0 .037-.013l1.089-.853.024-.011 1.238-.965v-1.556a.12.12 0 0 0-.123-.119"/><path d="M1.871 1.632 3.092.21A.6.6 0 0 1 3.545 0h11.708a.817.817 0 0 1 .894.732 1 1 0 0 1 0 .1v13.456a.57.57 0 0 1-.2.433l-1.311 1.2H2.668l-.817-.332z"/><path d="m2.859 1.627.746-.853a.5.5 0 0 1 .353-.181h10.983a.525.525 0 0 1 .524.524v12.72a.52.52 0 0 1-.171.394l-1.17 1.059z"/><path d="M14.043 1.611H1.939a.06.06 0 0 0-.061.061v13.952a.394.394 0 0 0 .394.382h11.771a.38.38 0 0 0 .382-.382V2.008a.4.4 0 0 0-.382-.397"/><path d="M8.156 14.123A1.625 1.625 0 1 1 9.781 12.5a1.626 1.626 0 0 1-1.625 1.623m0-2.562a.938.938 0 1 0 .944.939.94.94 0 0 0-.944-.939"/><path d="M11.944 6.737H9.906a.071.071 0 0 0-.051.122l.582.582a.083.083 0 0 1 0 .117L8.859 9.137c-.071.07-.122.152-.187.226V5.15a.07.07 0 0 1 .072-.072h.85a.073.073 0 0 0 .051-.123L8.2 3.515a.07.07 0 0 0-.1 0l-1.438 1.44a.073.073 0 0 0 .051.123h.843a.08.08 0 0 1 .072.072v4.21c-.064-.073-.115-.154-.184-.223L5.866 7.558a.08.08 0 0 1 0-.117l.581-.582a.07.07 0 0 0 0-.1.07.07 0 0 0-.05-.02H4.359a.07.07 0 0 0-.071.071v2.036a.07.07 0 0 0 .072.071.1.1 0 0 0 .05-.02l.61-.61a.08.08 0 0 1 .117 0l1.578 1.578a3.04 3.04 0 0 1 .726 1.182 1.56 1.56 0 0 1 1.42-.006 3.05 3.05 0 0 1 .726-1.176l1.578-1.578a.083.083 0 0 1 .118 0l.61.61a.07.07 0 0 0 .049.02.073.073 0 0 0 .073-.071V6.808a.07.07 0 0 0-.071-.071"/></mask></defs><path fill="currentColor" d="m4.808 17.109 1.238-.965v1.8a.06.06 0 0 1-.059.056.06.06 0 0 1-.037-.012z" mask="url(#a)"/></svg>