<svg height="18" viewBox="0 0 18 18" width="18" xmlns="http://www.w3.org/2000/svg" xmlns:xlink="http://www.w3.org/1999/xlink"><linearGradient id="a" gradientTransform="matrix(1 0 0 -1 564 1025.516)" gradientUnits="userSpaceOnUse" x1="-559.176" x2="-559.176" y1="1007.063" y2="1010.919"><stop offset="0" stop-color="#76bc2d"/><stop offset=".4" stop-color="#84d332"/><stop offset=".75" stop-color="#86d633"/></linearGradient><linearGradient id="b" gradientUnits="userSpaceOnUse" x1="8.151" x2="8.151" y1="19.101" y2="1.42"><stop offset="0" stop-color="#0078d4"/><stop offset="1" stop-color="#83b9f9"/></linearGradient><linearGradient id="c" gradientUnits="userSpaceOnUse" x1="8.151" x2="8.151" y1="4.178" y2="10.677"><stop offset="0" stop-color="#fff"/><stop offset="1" stop-color="#fff" stop-opacity=".7"/></linearGradient><path d="m5.927 14.472h-2.206a.12.12 0 0 0 -.119.119v3.338a.06.06 0 0 0 .06.06.06.06 0 0 0 .037-.013l1.089-.853a.1.1 0 0 1 .024-.011l1.238-.965v-1.556a.12.12 0 0 0 -.123-.119" fill="url(#a)"/><path d="m4.808 17.109 1.238-.965v1.8a.06.06 0 0 1 -.059.056.06.06 0 0 1 -.037-.012z" fill="#76bc2d"/><path d="m1.871 1.632 1.221-1.422a.6.6 0 0 1 .453-.21h11.708a.817.817 0 0 1 .894.732 1 1 0 0 1 0 .1v13.456a.57.57 0 0 1 -.2.433l-1.311 1.2h-11.968l-.817-.332z" fill="#0078d4"/><path d="m2.859 1.627.746-.853a.5.5 0 0 1 .353-.181h10.983a.525.525 0 0 1 .524.524v12.72a.52.52 0 0 1 -.171.394l-1.17 1.059z" fill="#fff"/><path d="m14.043 1.611h-12.104a.06.06 0 0 0 -.061.061v13.952a.394.394 0 0 0 .394.382h11.771a.38.38 0 0 0 .382-.382v-13.616a.4.4 0 0 0 -.382-.397" fill="url(#b)"/><path d="m8.156 14.123a1.625 1.625 0 1 1 1.625-1.623 1.626 1.626 0 0 1 -1.625 1.623m0-2.562a.938.938 0 1 0 .944.939.94.94 0 0 0 -.944-.939" fill="#fff" opacity=".9"/><path d="m11.944 6.737h-2.038a.071.071 0 0 0 -.051.122l.582.582a.083.083 0 0 1 0 .117l-1.578 1.579c-.071.07-.122.152-.187.226v-4.213a.07.07 0 0 1 .072-.072h.85a.073.073 0 0 0 .051-.123l-1.445-1.44a.07.07 0 0 0 -.1 0l-1.438 1.44a.073.073 0 0 0 .051.123h.843a.08.08 0 0 1 .072.072v4.21c-.064-.073-.115-.154-.184-.223l-1.578-1.579a.08.08 0 0 1 0-.117l.581-.582a.07.07 0 0 0 0-.1.07.07 0 0 0 -.05-.02h-2.038a.07.07 0 0 0 -.071.071v2.036a.07.07 0 0 0 .072.071.08.08 0 0 0 .05-.02l.61-.61a.08.08 0 0 1 .117 0l1.578 1.578a3.04 3.04 0 0 1 .726 1.182 1.56 1.56 0 0 1 1.42-.006 3.05 3.05 0 0 1 .726-1.176l1.578-1.578a.083.083 0 0 1 .118 0l.61.61a.07.07 0 0 0 .049.02.073.073 0 0 0 .073-.071v-2.038a.07.07 0 0 0 -.071-.071" fill="url(#c)"/></svg>