<svg height="48" viewBox="0 0 48 48" width="48" xmlns="http://www.w3.org/2000/svg"><path d="m4 23.981c0-11.018 8.962-19.981 19.98-19.981s19.98 8.963 19.98 19.981c0 11.017-8.962 19.98-19.98 19.98s-19.98-8.963-19.98-19.98m-2 0c0 12.12 9.86 21.98 21.98 21.98s21.98-9.86 21.98-21.98-9.86-21.981-21.98-21.981-21.98 9.86-21.98 21.981m15.218 11.238h-5.348l6.337-13.276 2.678 5.527zm1.881-16.019a1 1 0 0 0 -.899-.563h-.003a1 1 0 0 0 -.9.569l-7.915 16.582a.998.998 0 0 0 .903 1.431h7.566a1 1 0 0 0 .904-.572l4.143-8.754a1 1 0 0 0 -.005-.865zm16.994 16.019h-5.445l-9.902-21.277a1 1 0 0 0 -.907-.578h-3.599l.004-4.119h7.211l9.855 21.275c.164.353.518.58.907.58h1.876zm-1.237-6.119-9.855-21.275a1 1 0 0 0 -.908-.58h-8.848a1 1 0 0 0 -1 .999l-.006 6.119a1 1 0 0 0 1 1.001h3.963l9.902 21.277a1 1 0 0 0 .906.578h7.083a1 1 0 0 0 1-1v-6.119a1 1 0 0 0 -1-1z" fill="#7aa116" fill-rule="evenodd"/></svg>