<svg viewBox="0 0 24 24" xmlns="http://www.w3.org/2000/svg"><path d="m16.7773 0c1.6018 0 2.9004 1.2986 2.9004 2.9005s-1.2986 2.9004-2.9004 2.9004c-1.0854 0-2.0315-.596-2.5288-1.4787h-1.3385c-2.3322 0-4.2272 1.8718-4.2649 4.195l-.0007 2.1175a7.0759 7.0759 0 0 1 4.148-1.4205l.1176-.001 1.3385.0002c.4973-.8827 1.4434-1.4788 2.5288-1.4788 1.6018 0 2.9004 1.2986 2.9004 2.9005s-1.2986 2.9004-2.9004 2.9004c-1.0854 0-2.0315-.596-2.5288-1.4787h-1.3385c-2.3322 0-4.2272 1.8718-4.2649 4.195l-.0007 2.319c.8827.4973 1.4788 1.4434 1.4788 2.5287 0 1.602-1.2986 2.9005-2.9005 2.9005-1.6018 0-2.9004-1.2986-2.9004-2.9005 0-1.0853.596-2.0314 1.4788-2.5287l-.0002-9.9831c0-3.887 3.1195-7.0453 6.9915-7.108l.1176-.001h1.3385c.4973-.8825 1.4435-1.4787 2.5288-1.4787zm-9.5546 19.9052c-.6596 0-1.1943.5347-1.1943 1.1943s.5347 1.1943 1.1943 1.1943 1.1944-.5347 1.1944-1.1943-.5348-1.1943-1.1944-1.1943zm9.5546-10.4644c-.6596 0-1.1944.5347-1.1944 1.1943s.5348 1.1943 1.1944 1.1943 1.1943-.5347 1.1943-1.1943-.5347-1.1943-1.1943-1.1943zm0-7.7346c-.6596 0-1.1944.5347-1.1944 1.1943s.5348 1.1943 1.1944 1.1943 1.1943-.5347 1.1943-1.1943-.5347-1.1943-1.1943-1.1943z"/></svg>