<svg fill="none" height="18" viewBox="0 0 18 18" width="18" xmlns="http://www.w3.org/2000/svg" xmlns:xlink="http://www.w3.org/1999/xlink"><linearGradient id="a" gradientUnits="userSpaceOnUse" x1="6.075" x2=".738" y1="1.385" y2="17.151"><stop offset="0" stop-color="#114a8b"/><stop offset="1" stop-color="#0669bc"/></linearGradient><linearGradient id="b" gradientUnits="userSpaceOnUse" x1="10.34" x2="9.107" y1="11.456" y2="11.873"><stop offset="0" stop-opacity=".3"/><stop offset=".071" stop-opacity=".2"/><stop offset=".321" stop-opacity=".1"/><stop offset=".623" stop-opacity=".05"/><stop offset="1" stop-opacity="0"/></linearGradient><linearGradient id="c" gradientUnits="userSpaceOnUse" x1="9.459" x2="15.317" y1="1.385" y2="16.993"><stop offset="0" stop-color="#3ccbf4"/><stop offset="1" stop-color="#2892df"/></linearGradient><path d="m5.335 1.375a.82.82 0 0 1 .775-.557h5.14l-5.335 15.808a.82.82 0 0 1 -.775.556h-4a.818.818 0 0 1 -.776-1.08z" fill="url(#a)"/><path d="m13.552 11.455h-8.1a.375.375 0 0 0 -.257.649l5.205 4.858c.152.141.351.22.559.22h4.586z" fill="#0078d4"/><path d="m6.11.818a.82.82 0 0 0 -.775.557l-4.97 14.727a.818.818 0 0 0 .775 1.08h4a.82.82 0 0 0 .775-.556l.988-2.928 3.497 3.264c.152.141.351.22.559.22h4.586l-1.993-5.727h-5.892l3.59-10.638z" fill="url(#b)"/><path d="m12.665 1.375a.82.82 0 0 0 -.775-.557h-5.754.027c.35 0 .663.224.775.557l4.97 14.727a.818.818 0 0 1 -.775 1.08h-.088 5.815c.56 0 .954-.55.776-1.08z" fill="url(#c)"/></svg>