<svg xmlns="http://www.w3.org/2000/svg" id="svg8831" width="278.63" height="94.75" viewBox="0 0 73.721 25.069"><g id="layer1" transform="translate(31.304 56.734)"><g id="g9081" transform="translate(.265 -.265)"><path id="path5014" d="m38.543-42.625-3.618-1.496-1.504 3.624-1.5-3.624-3.621 1.496 1.503-3.619-3.626-1.502 3.626-1.502-1.503-3.62 3.62 1.497 1.501-3.62 1.504 3.62-.019.01 3.637-1.506-1.497 3.62 3.623 1.5-3.624 1.503zm-5.122-13.58a8.467 8.467 0 1 0 .002 16.935 8.467 8.467 0 0 0-.002-16.935" fill="#0b3865" fill-opacity="1" fill-rule="nonzero" stroke="none" stroke-width=".35277778"/><path id="path5018" d="m37.778-52.102-7.436 3.08 3.08 1.276 1.275 3.077z" fill="#0b3865" fill-opacity="1" fill-rule="nonzero" stroke="none" stroke-width=".35277778"/><path id="path5030" d="M40.62-39.676c.148 0 .35.026.35-.158 0-.133-.116-.15-.25-.15h-.271v.308zm.493.6h-.179l-.302-.472h-.183v.472h-.156V-40.1h.459c.088 0 .177.005.257.049.078.044.117.135.117.22 0 .203-.145.278-.333.284zm-1.236-.517c0 .418.34.742.766.742.42 0 .76-.324.76-.742 0-.404-.34-.731-.76-.731-.425 0-.766.327-.766.731m-.179 0c0-.5.423-.91.945-.91.52 0 .94.41.94.91 0 .512-.42.922-.94.922a.93.93 0 0 1-.945-.922" fill="#0b3865" fill-opacity="1" fill-rule="nonzero" stroke="none" stroke-width=".35277778"/><path id="path5034" d="M11.213-45.822c0 .38-.336.694-.737.694-.391 0-.739-.313-.739-.694s.348-.704.74-.704c.4 0 .736.324.736.704m.67 6.538v.21h-2.76v-.21l.749-.181v-4.099l-.749-.19v-.202l2.022-.145v4.636z" fill="#0b3865" fill-opacity="1" fill-rule="nonzero" stroke="none" stroke-width=".35277778"/><path id="path5038" d="M19.794-43.732c-.592 0-.987.631-1.062 1.474h2.001c-.029-.798-.268-1.474-.94-1.474m.55 4.225c.823 0 1.4-.42 1.557-.526l.185.301c-.192.171-.935.77-2.137.77-1.55 0-2.622-1.016-2.622-2.57 0-1.34 1.008-2.57 2.468-2.57 1.468 0 2.184.886 2.19 2.236H18.7c-.077 1.209.314 2.359 1.643 2.359" fill="#0b3865" fill-opacity="1" fill-rule="nonzero" stroke="none" stroke-width=".35277778"/><path id="path5042" d="M-12.772-43.732c-.592 0-.988.63-1.062 1.472l2.001.003c-.03-.798-.268-1.475-.939-1.475m.548 4.225c.824 0 1.401-.42 1.557-.526l.185.301c-.192.171-.934.77-2.136.77-1.551 0-2.623-1.016-2.623-2.57 0-1.34 1.009-2.57 2.47-2.57 1.468 0 2.182.886 2.189 2.236h-3.285c-.077 1.209.313 2.359 1.643 2.359" fill="#0b3865" fill-opacity="1" fill-rule="nonzero" stroke="none" stroke-width=".35277778"/><path id="path5046" d="m-27.29-41.778-1.008-3.117h-.02l-1.129 3.117zm-4.014 2.503.45-.178 2.31-5.968c-.102-.333-.581-.379-1-.435v-.263h2.124l2.23 6.654.447.18v.212h-2.77v-.211l.904-.204-.547-1.875h-2.435l-.626 1.875 1.173.192v.223h-2.26z" fill="#0b3865" fill-opacity="1" fill-rule="nonzero" stroke="none" stroke-width=".35277778"/><path id="path5050" d="M-17.701-44.1c.826 0 1.207.468 1.207 1.34v3.295l.625.18v.212h-2.491v-.212l.602-.167v-3.114c0-.458-.062-.85-.542-.85-.372 0-.829.345-1.033.504v3.447l.615.18v.212h-2.48v-.212l.604-.167v-3.114c0-.48-.076-.85-.544-.85-.41 0-.852.344-1.044.491v3.46l.648.18v.212h-2.67v-.212l.749-.18v-4.145l-.75-.189v-.2l1.98-.104.02.747c.27-.223.849-.745 1.677-.745.726 0 1.047.37 1.154.783.301-.28.89-.783 1.673-.783" fill="#0b3865" fill-opacity="1" fill-rule="nonzero" stroke="none" stroke-width=".35277778"/><path id="path5054" d="M1.03-39.554c.68 0 1.316-.672 1.316-2.056 0-1.324-.56-1.855-1.265-1.855-.566 0-.974.275-1.17.393v3.195c.248.127.63.323 1.119.323m.144 2.783v.269h-3.308v-.215l.76-.211v-6.648l-.75-.19v-.201l2.001-.137.021.584c.331-.206.922-.58 1.7-.58 1.34 0 2.145.883 2.145 2.468 0 1.855-1.095 2.67-2.234 2.67a2.84 2.84 0 0 1-1.598-.48v2.47z" fill="#0b3865" fill-opacity="1" fill-rule="nonzero" stroke="none" stroke-width=".35277778"/><path id="path5058" d="M7.793-44.1c.427 0 .713.228.834.308l-.35.953c-.148-.084-.368-.222-.736-.222-.47 0-.754.327-1.043.601v2.962l1.084.179v.246H4.475v-.212l.75-.18v-4.11l-.75-.19v-.202l1.933-.134.022 1.176h.026c.232-.41.568-1.176 1.337-1.176" fill="#0b3865" fill-opacity="1" fill-rule="nonzero" stroke="none" stroke-width=".35277778"/><path id="path5062" d="M-3.222-45.822c0 .38-.335.694-.738.694-.39 0-.737-.313-.737-.694s.347-.704.737-.704c.403 0 .738.324.738.704m.67 6.538v.21h-2.76v-.21l.75-.181v-4.099l-.75-.19v-.202l2.024-.145v4.636z" fill="#0b3865" fill-opacity="1" fill-rule="nonzero" stroke="none" stroke-width=".35277778"/><path id="path5066" d="M-6.642-44.1c.427 0 .715.228.834.308l-.35.953c-.147-.084-.368-.222-.735-.222-.47 0-.755.327-1.043.601v2.962l1.083.179v.246H-9.96v-.212l.75-.18v-4.11l-.75-.19v-.202l1.933-.134.021 1.176h.027c.231-.41.569-1.176 1.336-1.176" fill="#0b3865" fill-opacity="1" fill-rule="nonzero" stroke="none" stroke-width=".35277778"/><path id="path5070" d="m16.07-43.866-.118 1.237h-.33l-.138-.866a2 2 0 0 0-.904-.238c-.499 0-.88.268-.88.648-.002.5.58.693 1.174.95.57.233 1.518.599 1.515 1.581-.002.994-.923 1.591-2.057 1.591-.85 0-1.386-.163-1.537-.212l-.116-1.408h.373l.298 1.048c.05.024.437.205.896.205.669 0 1.157-.322 1.157-.803 0-.53-.81-.811-1.363-1.05-.518-.223-1.315-.559-1.315-1.562 0-.807.746-1.357 1.83-1.357.78 0 1.407.203 1.516.236" fill="#0b3865" fill-opacity="1" fill-rule="nonzero" stroke="none" stroke-width=".35277778"/><path id="path5074" d="m5.224-36.49-.023.141.477.122-.598 4.234-.507.114-.019.145H6.63l.021-.144-.749-.121.285-2.054h.857l.052.655h.227l.22-1.567h-.228l-.22.656h-.873l.272-1.926H7.83l.043.74h.27l.144-.995z" fill="#0b3865" fill-opacity="1" fill-rule="nonzero" stroke="none" stroke-width=".35277778"/><path id="path5086" d="M22.936-34.654c-.509 0-.921.593-.921 1.695 0 .576.255.947.706.947.407 0 .712-.316.861-.452l.129.15c-.164.194-.526.65-1.284.65-.698 0-1.186-.47-1.186-1.36 0-.976.65-1.848 1.706-1.848.463 0 .811.074.893.091l-.164.842h-.25l-.019-.564a.8.8 0 0 0-.471-.151" fill="#0b3865" fill-opacity="1" fill-rule="nonzero" stroke="none" stroke-width=".35277778"/><path id="path5090" d="M9.733-36.098c-.031.204-.188.385-.432.385-.22 0-.347-.188-.314-.385.038-.22.227-.392.431-.392.212 0 .338.188.315.392m-.91 1.518-.497-.129.014-.1 1.232-.063-.406 2.901.475.123-.015.113H8.438Z" fill="#0b3865" fill-opacity="1" fill-rule="nonzero" stroke="none" stroke-width=".35277778"/><path id="path5094" d="M25.709-36.098c-.032.204-.188.385-.433.385-.22 0-.346-.188-.314-.385.039-.22.227-.392.432-.392.212 0 .339.188.315.392M24.8-34.58l-.498-.129.014-.1 1.232-.063-.407 2.901.476.123-.014.113h-1.191z" fill="#0b3865" fill-opacity="1" fill-rule="nonzero" stroke="none" stroke-width=".35277778"/><path id="path5098" d="m30.109-36.676-.014.106.456.123-.652 4.723H31.1l.015-.116-.489-.12.678-4.807z" fill="#0b3865" fill-opacity="1" fill-rule="nonzero" stroke="none" stroke-width=".35277778"/><path id="path5110" d="M12.487-33.818c.065-.429.06-.582-.1-.582-.49 0-.964 1.113-1.141 1.51l-.165 1.156h-.7l.399-2.846-.506-.13.014-.099 1.235-.063-.177 1.26c.323-.597.721-1.26 1.389-1.26.67 0 .507.64.472.911l-.278 1.991.482.122-.015.114h-1.197z" fill="#0b3865" fill-opacity="1" fill-rule="nonzero" stroke="none" stroke-width=".35277778"/><path id="path5114" d="M19.78-33.818c.065-.429.06-.582-.1-.582-.488 0-.964 1.113-1.14 1.51l-.166 1.156h-.7l.399-2.846-.506-.13.015-.099 1.235-.063-.177 1.26c.322-.597.722-1.26 1.389-1.26.67 0 .507.64.47.911l-.278 1.991.484.122-.016.114h-1.196z" fill="#0b3865" fill-opacity="1" fill-rule="nonzero" stroke="none" stroke-width=".35277778"/><path id="path5118" d="M15.73-34.652c-.553 0-1.01 1.074-1.01 1.969 0 .353.143.494.334.494.46 0 .854-1.095.97-1.386l.119-.964c-.033-.017-.191-.113-.413-.113m1.16-.099-.398 2.78.516.122-.008.115h-1.233l.14-1.02c-.194.401-.569 1.09-1.219 1.09-.589 0-.739-.46-.739-.997 0-1.082.797-2.211 1.983-2.211.446 0 .824.091.957.121" fill="#0b3865" fill-opacity="1" fill-rule="nonzero" stroke="none" stroke-width=".35277778"/><path id="path5122" d="M27.94-34.652c-.553 0-1.01 1.074-1.01 1.969 0 .353.14.494.335.494.458 0 .854-1.095.968-1.386l.12-.964c-.034-.017-.193-.113-.413-.113m1.159-.099-.398 2.78.516.122-.007.115h-1.233l.14-1.02c-.196.401-.569 1.09-1.22 1.09-.588 0-.738-.46-.738-.997 0-1.082.798-2.211 1.981-2.211.448 0 .825.091.959.121" fill="#0b3865" fill-opacity="1" fill-rule="nonzero" stroke="none" stroke-width=".35277778"/></g></g></svg>