<svg height="64" viewBox="0 0 64 64" width="64" xmlns="http://www.w3.org/2000/svg"><g fill="none" fill-rule="evenodd"><path d="m0 0h64v64h-64z" fill="#01a88d"/><path d="m51.924 21.383a1 1 0 0 1 -.924.617h-4v6h2a1 1 0 0 1 1 1v23a1 1 0 0 1 -1 1h-34c-1.654 0-3-1.346-3-3v-28a1 1 0 0 1 1-1h11.076c.31 0 .603.143.792.389l2.016 2.61h4.116v2h-4.607a1 1 0 0 1 -.792-.387l-2.016-2.612h-9.585v27a1.001 1.001 0 0 0 2 0v-21a1 1 0 0 1 1-1h14v2h-13v20c0 .352-.072.685-.184 1h30.184v-21h-5v-2h2v-7a1 1 0 0 1 1-1h2.586l-5.586-5.586-5.586 5.586h2.586a1 1 0 0 1 1 1v11h4a1 1 0 0 1 .707 1.706l-8 8a1 1 0 0 1 -.707.294 1 1 0 0 1 -.707-.293l-8-8a1 1 0 0 1 .707-1.707h4v-6h2v7a1 1 0 0 1 -1 1h-2.586l5.586 5.587 5.586-5.587h-2.586a1 1 0 0 1 -1-1v-11h-4a1 1 0 0 1 -.707-1.706l8-8a1 1 0 0 1 1.414 0l8 8a1 1 0 0 1 .217 1.09" fill="#fff"/></g></svg>