<svg viewBox="0 0 128 128" xmlns="http://www.w3.org/2000/svg"><path d="m78.157 29.987v1.8266c4.1529 0 5.5117.15618 7.1818 2.5039l14.586 21.423-13.154 19.216c-3.2453 4.6992-8.1583 4.7817-9.6035 4.7817v1.8264c1.1903-.0991 2.9161-.12788 4.4738-.13747-1.5036 9.5974-3.2903 14.783-15.554 14.783h-10.495c-3.0203 0-3.1629-.38121-3.1629-2.9827v-21.136h7.1333c7.1332 0 7.8133 2.6139 7.8133 8.9958h1.215v-19.671h-1.215c0 6.2744-.68131 8.8397-7.8133 8.8397h-7.1345v-18.739c0-2.5528.14386-2.9341 3.1629-2.9341h10.338c11.701 0 13.063 4.6504 14.123 14.648h1.3624l-1.8139-16.724h-32.943l-1.2194-16.412h-43.663l-1.2765 16.723h1.359c.9776-12.525 2.0513-14.718 13.777-14.718h4.1742c1.4439.22627 1.444 1.1451 1.444 2.8853v41.162c0 2.7328-.22893 3.5668-6.5983 3.5668h-2.1464v1.8264c3.6278-.07 7.4082-.14381 11.117-.14381 3.6979 0 7.4895.0738 11.115.14381v-1.8264h-2.1101c-6.2744 0-6.5006-.83399-6.5006-3.5668v-41.16c0-1.6702-.00013-2.5765 1.3612-2.8853h4.1493c11.471 0 12.682 2.1492 13.654 14.405h-3.9804v2.0764c5.3555 0 6.2132.00012 6.2132 3.3992v40.806c0 3.3991-.84647 3.399-6.2132 3.399v1.8264h39.349l2.3596-16.592c.18342-.00011.39496-.00075.56207-.00075 2.0402 0 5.5943-.00025 7.4783.14357v-1.8263c-2.339-.22628-3.0166-1.7402-3.0166-2.959 0-.9776.37001-1.5139.75129-2.0515l12.095-17.652 13.154 19.334c.59506.83633.59503 1.0624.59503 1.2887 0 .59506-.67752 1.8964-3.3253 2.0515v1.8266c2.4215-.14376 6.1192-.14381 8.6107-.14381 1.9577 0 5.7368.00005 7.572.14381v-1.8266c-4.843 0-5.6055-.36995-7.1081-2.5039l-16.625-24.322 11.187-16.174c1.1201-1.5877 3.3991-4.8555 9.6035-4.938v-1.8254c-1.7314.14377-4.6042.14382-6.4181.14382-2.4915 0-5.5943-.00005-7.4783-.14382v1.8266c2.4215.22627 3.0164 1.7402 3.0164 2.959 0 .90384-.37003 1.5138-.90633 2.2651l-9.9822 14.479-11.187-16.375c-.52505-.82383-.59869-1.0627-.59869-1.289 0-.68132.82372-1.9687 3.3277-2.04v-1.8254c-2.4215.14377-6.1192.14382-8.6107.14382-1.9577 0-5.7368-.00005-7.5632-.14382z"/></svg>