<svg fill="#1c4980" viewBox="0 0 24 24" xmlns="http://www.w3.org/2000/svg"><path d="m12 0c-6.606 0-12 5.394-12 12s5.394 12 12 12 12-5.394 12-12-5.394-12-12-12m-1.2 16.86h-2.497v-1.127c-.715 1.091-1.588 1.552-2.897 1.552-2.085 0-3.248-1.2-3.248-3.333v-6.704h2.509v6.182c0 1.164.533 1.722 1.6 1.722 1.224 0 2.012-.752 2.012-1.891v-6.025h2.509v9.625zm8.533 0v-5.939c0-1.14-.533-1.721-1.6-1.721-1.224 0-2.012.752-2.012 1.89v5.77h-2.509v-9.623h2.497v1.393c.715-1.09 1.588-1.551 2.897-1.551 2.085 0 3.249 1.2 3.249 3.333v6.449z"/></svg>