<svg viewBox="0 0 128 128" xmlns="http://www.w3.org/2000/svg" xmlns:xlink="http://www.w3.org/1999/xlink"><linearGradient id="a"><stop offset=".28" stop-color="#07c3f2"/><stop offset=".94" stop-color="#087cfa"/></linearGradient><linearGradient id="b" gradientTransform="matrix(1.21904799 .00221275 -.00221275 1.21904799 0 0)" gradientUnits="userSpaceOnUse" x1="38.88" x2="63.72" xlink:href="#a" y1="6.5" y2="95.94"/><linearGradient id="c" gradientTransform="matrix(1.21904799 .00221275 -.00221275 1.21904799 0 0)" gradientUnits="userSpaceOnUse" x1="46.63" x2="88.66" y1="17.85" y2="79.48"><stop offset=".14" stop-color="#fcf84a"/><stop offset=".37" stop-color="#07c3f2"/></linearGradient><linearGradient id="d" gradientTransform="matrix(1.21904799 .00221275 -.00221275 1.21904799 0 0)" gradientUnits="userSpaceOnUse" x1="88.27" x2="93.79" xlink:href="#a" y1="25.47" y2="45.02"/><path d="m21.262 111.25-15.778-93.5 29.172-12.105 18.63 11.07 17.066-9.207 35.558 13.656-19.94 101.352zm0 0" fill="url(#b)"/><path d="m122.516 45.117-15.106-37.304-27.402-2.33-42.301 40.647 11.383 52.382 21.262 14.91 52.164-30.953-12.801-24.004zm0 0" fill="url(#c)"/><path d="m99.07 39.559 10.645 18.906 12.8-13.348-9.398-23.234zm0 0" fill="url(#d)"/><path d="m27.43 27.43h73.14v73.14h-73.14zm0 0"/><path d="m36.547 86.746h27.43v4.574h-27.43zm25.965-50.21-4.082 16.002-4.668-16.004h-4.645l-4.683 16.006-4.07-16.004h-6.404l7.84 27.442h5.144l4.486-15.888 4.437 15.887h5.207l7.828-27.442zm7.535 23.526 3.57-4.277a12.625 12.625 0 0 0 8.219 3.34c2.437 0 3.973-.977 3.973-2.598v-.074c0-1.535-.95-2.316-5.547-3.496-5.547-1.414-9.117-2.953-9.117-8.414v-.086c0-4.984 4.007-8.289 9.628-8.289a15.85 15.85 0 0 1 10.215 3.5l-3.144 4.559a12.877 12.877 0 0 0 -7.156-2.707c-2.317 0-3.536 1.062-3.536 2.437v.086c0 1.805 1.22 2.437 5.938 3.66 5.582 1.461 8.73 3.461 8.73 8.262v.074c0 5.461-4.172 8.535-10.11 8.535a17.48 17.48 0 0 1 -11.663-4.402" fill="#fff"/></svg>