<svg viewBox="0 0 128 128" xmlns="http://www.w3.org/2000/svg"><path d="m80.008 5.482-4.264 4.096-5.392-2.07-17.067 9.207-18.629-11.07-29.172 12.105 15.778 93.5 64.709 11.266 4.09-20.79 1.105-.656h-64.236v-74.14h74.14v68.263l21.446-12.724-12.801-24.004 12.8-13.348-9.398-23.234-.006.008-5.7-14.078-27.403-2.33zm-52.078 22.448v72.14h72.14v-72.14zm52.843 8.238a15.85 15.85 0 0 1 10.215 3.5l-3.144 4.559a12.877 12.877 0 0 0 -7.156-2.707c-2.317 0-3.536 1.062-3.536 2.437v.086c0 1.805 1.22 2.437 5.938 3.66 5.582 1.461 8.73 3.46 8.73 8.262v.074c0 5.461-4.171 8.535-10.11 8.535a17.48 17.48 0 0 1 -11.663-4.402v-.11l3.57-4.277a12.625 12.625 0 0 0 8.219 3.34c2.437 0 3.973-.977 3.973-2.598v-.074c0-1.535-.95-2.316-5.547-3.496-5.547-1.414-9.117-2.953-9.117-8.414v-.086c0-4.984 4.007-8.289 9.628-8.289zm-31.656.365h4.645l4.668 16.004 4.082-16.002h6.39l-7.828 27.442h-5.207l-4.437-15.887-4.487 15.889h-5.142l-7.84-27.444h6.402l4.07 16.004zm-12.57 50.213h27.43v4.574h-27.43z" fill="#07c3f2"/></svg>