<svg preserveAspectRatio="xMidYMid" viewBox="0 0 256 182" xmlns="http://www.w3.org/2000/svg" xmlns:xlink="http://www.w3.org/1999/xlink"><linearGradient id="a"><stop offset="0" stop-color="#845ce7"/><stop offset="1" stop-color="#af73d8"/></linearGradient><radialGradient id="b" cx="50%" cy="49.999%" gradientTransform="matrix(1 16331239353195370 0 1 0 -380193.475)" r="32.306%" xlink:href="#a"/><radialGradient id="c" cx="50.061%" cy="104.167%" gradientTransform="matrix(1 16331239353195370 0 1 0 -35820434.112)" r="67.301%" xlink:href="#a"/><radialGradient id="d" cx="99.122%" cy="34.222%" gradientTransform="matrix(1 16331239353195370 0 1 0 -56809933.375)" r="42.521%" xlink:href="#a"/><radialGradient id="e" cx=".878%" cy="34.21%" gradientTransform="matrix(1 16331239353195370 0 1 0 -5447320.88)" r="42.506%" xlink:href="#a"/><path d="m64.995 153.355c11.777-16.858 35.745-28.399 63.396-28.399 27.65 0 51.62 11.54 63.397 28.4-11.778 16.856-35.746 28.397-63.397 28.397s-51.619-11.54-63.396-28.398" fill="url(#b)"/><path d="m64.567 28.097c11.77-16.679 35.722-28.097 63.356-28.097 27.633 0 51.586 11.418 63.356 28.097-11.77 16.679-35.723 28.097-63.356 28.097s-51.586-11.418-63.356-28.097" fill="url(#c)"/><path d="m129.133 91.209c-17.124 16.54-40.349 25.831-64.566 25.831s-47.443-9.292-64.567-25.831l64.567-63.112z" fill="url(#d)"/><path d="m256 91.24c-17.124 16.54-40.35 25.831-64.567 25.831s-47.443-9.292-64.567-25.831l64.567-63.143z" fill="url(#e)"/></svg>