<svg xmlns="http://www.w3.org/2000/svg" xmlns:xlink="http://www.w3.org/1999/xlink" preserveAspectRatio="xMidYMid" viewBox="0 0 256 182"><linearGradient id="a"><stop offset="0" stop-color="#845ce7"/><stop offset="1" stop-color="#af73d8"/></linearGradient><radialGradient xlink:href="#a" id="b" cx="50%" cy="49.999%" r="32.306%" gradientTransform="translate(0 -380193.475)skewY(90)"/><radialGradient xlink:href="#a" id="c" cx="50.061%" cy="104.167%" r="67.301%" gradientTransform="translate(0 -35820434.112)skewY(90)"/><radialGradient xlink:href="#a" id="d" cx="99.122%" cy="34.222%" r="42.521%" gradientTransform="translate(0 -56809933.375)skewY(90)"/><radialGradient xlink:href="#a" id="e" cx=".878%" cy="34.21%" r="42.506%" gradientTransform="translate(0 -5447320.88)skewY(90)"/><path fill="url(#b)" d="M64.995 153.355c11.777-16.858 35.745-28.399 63.396-28.399 27.65 0 51.62 11.54 63.397 28.4-11.778 16.856-35.746 28.397-63.397 28.397s-51.619-11.54-63.396-28.398"/><path fill="url(#c)" d="M64.567 28.097C76.337 11.418 100.289 0 127.923 0c27.633 0 51.586 11.418 63.356 28.097-11.77 16.679-35.723 28.097-63.356 28.097S76.337 44.776 64.567 28.097"/><path fill="url(#d)" d="M129.133 91.209c-17.124 16.54-40.349 25.831-64.566 25.831S17.124 107.748 0 91.209l64.567-63.112z"/><path fill="url(#e)" d="M256 91.24c-17.124 16.54-40.35 25.831-64.567 25.831s-47.443-9.292-64.567-25.831l64.567-63.143z"/></svg>