<svg xmlns="http://www.w3.org/2000/svg" viewBox="0 0 225 225"><rect id="Background" width="225" height="225" fill="#f6881f" rx="20" ry="20"/><g id="Clock" fill="#fff"><path d="M112.5 12.5c-55.2 0-100 44.8-100 100s44.8 100 100 100 100-44.8 100-100-44.8-100-100-100m0 184.6c-46.7 0-84.6-37.9-84.6-84.6s37.9-84.6 84.6-84.6 84.6 37.9 84.6 84.6-37.9 84.6-84.6 84.6"/><path d="m109.5 126.5-41 41a70.4 70.4 0 1 1 114-62.7h-58Z" opacity=".3"/><path d="M112.5 104.8h70v15.4h-70z"/><path d="m117.945 117.945-49.498 49.497-10.89-10.89 49.498-49.497z"/><circle cx="112.5" cy="112.5" r="12"/></g></svg>