<svg xmlns="http://www.w3.org/2000/svg" width="64" height="64" viewBox="0 0 64 64"><title>Icon-Architecture/48/Arch_Bottlerocket_48</title><g id="Icon-Architecture/48/Arch_Bottlerocket_48" fill="none" fill-rule="evenodd" stroke="none" stroke-width="1"><g id="Icon-Architecture-BG/48/Compute" fill="#ed7100"><path id="Rectangle" d="M0 0h64v64H0z"/></g><g id="Icon-Service/48/Bottlerocket" fill="#fff" transform="translate(18 10)"><path id="Bottlerocket_Icon_48_Squid" d="M15 25.771v-2.888l2-1v2.733zm-4-3.888 2 1v2.888l-2-1.155zm3-2.5 1.764.882-1.764.882-1.764-.882zm.447-2.012a1 1 0 0 0-.894 0l-4 2a1 1 0 0 0-.553.894v4.928a1 1 0 0 0 .5.866l4 2.31a1 1 0 0 0 1 0l4-2.31a1 1 0 0 0 .5-.866v-4.928a1 1 0 0 0-.553-.894zm-.448-15.309 6.721 7.893c-1.815-.529-4.155-1.002-6.72-1.002-2.522 0-4.901.495-6.75 1.037zM4 13.265c.149 0 .3-.033.44-.102.045-.022 4.562-2.21 9.56-2.21 5.185 0 9.5 2.18 9.543 2.202a1.002 1.002 0 0 0 1.219-1.538L15.426.653c-.692-.88-2.185-.85-2.827-.03L3.238 11.617A1.001 1.001 0 0 0 4 13.265m8 29h4v-1h-4zm-4-1h2v2a1 1 0 0 0 1 1h6a1 1 0 0 0 1-1v-2h2v-2H8zm14.928-12.48c.07-.953.072-1.959.072-2.957v-5.622l3 3.9v7.822zm-.42 2.431 3.777 3.866a1 1 0 0 0 1.715-.7V23.765a1 1 0 0 0-.207-.609L23 16.926v-2.66h-2v11.562c0 5.583-.676 6.425-3 6.425a1 1 0 0 0-1 1v5.012h2V34.19c2.012-.276 3.011-1.418 3.508-2.973M2 31.928v-7.823l3-3.899v5.622c0 .998.002 2.004.072 2.957zm7 2.261v4.076h2v-5.012a1 1 0 0 0-1-1c-2.324 0-3-.842-3-6.425V14.265H5v2.66L.207 23.156a1 1 0 0 0-.207.61v10.616a.999.999 0 0 0 1.715.7l3.777-3.866C5.989 32.771 6.988 33.913 9 34.19"/></g></g></svg>