<svg viewBox="0 0 128 128" xmlns="http://www.w3.org/2000/svg"><path d="m64 6.52-35.984 3.775-.178.105-27.838 37.06.012.024v.313l63.788 73.683.383-.012.015.012.01-.012h.002l63.79-73.683v-.324l-27.816-37.06-.178-.106-.049-.006-.004-.004zm.67.595 35.031 3.672.09 1.68 1.816 34.392-3.455-3.715zm-1.34.002-36.937 39.746 1.033-19.558.902-16.518zm.664.088 37.36 40.152h-74.698l9.81-10.556 27.529-29.596zm36.274 4.195 26.992 35.957h-25.06zm-72.53.032-1.937 35.924h-25.059l4.948-6.59zm-26.955 36.448h25.11l36.869 71.592-15.239-17.598-46.74-53.993zm25.695 0h75.044l-37.522 72.856-37.522-72.855zm75.64 0h25.099l-46.74 53.994-15.239 17.598z" fill="#fdad00"/></svg>