<svg viewBox="0 0 128 128" xmlns="http://www.w3.org/2000/svg"><path d="m80.1135 89.2596h13.815l-22.0535-57.235h-15.2745l-22.0535 57.2349h13.816l3.604-9.695h20.8375l-3.772-10.728h-13.72l8.925-24.627zm45.556-42.3754c-.491-1.768-2.317-2.8064-4.0925-2.3134-1.7685.491-2.805 2.323-2.314 4.0915a57.3228 57.3228 0 0 1 2.089 15.338c0 31.624-25.728 57.351-57.352 57.351s-57.3515-25.727-57.3515-57.351c0-31.6247 25.7275-57.3521 57.3515-57.3521 13.3965 0 26.359 4.759 36.5895 13.228a7.9689 7.9689 0 0 0 -.619 3.0864c0 4.4175 3.581 7.9985 7.9985 7.9985s7.9985-3.581 7.9985-7.9985-3.581-7.9985-7.9985-7.9985c-.8505 0-1.669.1355-2.438.3815-11.52-9.8174-26.2745-15.3453-41.531-15.3453-35.2895 0-64 28.71-64 64 0 35.2895 28.7105 63.9995 64 63.9995s64-28.71 64-63.9995a63.975 63.975 0 0 0 -2.3305-17.116z" fill="#112b49"/></svg>