<svg xmlns="http://www.w3.org/2000/svg" viewBox="0 0 128 128"><path fill="#112b49" d="M64 0C28.713 0 0 28.714 0 64s28.713 64 64 64 64-28.712 64-64c0-5.785-.784-11.544-2.33-17.115a3.561 3.561 0 0 0-6.862 1.903A56.9 56.9 0 0 1 120.88 64c0 31.366-25.513 56.879-56.879 56.879S7.12 95.366 7.12 64C7.12 32.634 32.635 7.12 64 7.12c13.231 0 26.033 4.686 36.16 13.021a8.2 8.2 0 0 0-.578 2.981 8.22 8.22 0 0 0 8.216 8.216c4.535 0 8.217-3.681 8.217-8.216a8.22 8.22 0 0 0-8.217-8.217c-.823 0-1.608.143-2.357.369C93.934 5.504 79.219 0 64 0M64 .5c15.137 0 29.778 5.485 41.208 15.226l.105.09.133-.042a7.7 7.7 0 0 1 2.352-.369 7.715 7.715 0 0 1 7.719 7.719 7.715 7.715 0 0 1-7.72 7.718 7.714 7.714 0 0 1-7.717-7.718 7.7 7.7 0 0 1 .597-2.979l.071-.17-.142-.118C90.371 11.384 77.403 6.623 64 6.623c-31.636 0-57.377 25.741-57.377 57.378 0 31.635 25.741 57.376 57.377 57.376S121.377 95.637 121.377 64a57.4 57.4 0 0 0-2.09-15.346 3.06 3.06 0 0 1 2.132-3.768c1.64-.455 3.317.499 3.77 2.131a63.5 63.5 0 0 1 2.313 16.983c0 35.017-28.485 63.5-63.502 63.5S.498 99.018.498 64.002C.498 28.983 28.983.498 64 .498M56.458 31.9l-22.16 57.511h14.3l3.589-9.658h20.935L69.19 68.57H55.702l8.532-23.542 15.64 44.384h14.301l-22.16-57.51Zm.343.498h14.872L93.45 88.913H80.228L64.24 43.547l-9.249 25.52h13.846l3.581 10.188H51.84l-3.589 9.658H35.024Z"/></svg>