<svg fill="#ea2328" viewBox="0 0 128 128" xmlns="http://www.w3.org/2000/svg"><path d="m107.257812 75.222656c.171876 3.945313-2.660156 7.394532-6.585937 8.015625-7.582031 1.300781-23.386719 2.121094-36.667969 2.121094-13.277344 0-29.085937-.800781-36.675781-2.121094-4.339844-.746093-6.585937-4.199219-6.585937-8.015625v-25c.046874-3.871094 2.777343-7.199218 6.585937-8.023437 3.8125-.511719 7.652344-.761719 11.5-.75 1.570313.042969 2.816406 1.335937 2.789063 2.898437v17.613282c7.800781 0 14.542968-.457032 22.402343-.457032 7.863281 0 14.546875.457032 22.378907.457032v-17.46875c-.113282-1.5625 1.066406-2.921876 2.636718-3.035157h.144532c3.84375-.011719 7.6875.238281 11.496093.746094 3.804688.828125 6.535157 4.152344 6.582031 8.019531zm-43.253906-75.222656c-35.347656 0-64.003906 28.660156-64.003906 64 0 35.347656 28.65625 64 64 64 35.347656 0 64-28.652344 64-64 0-35.339844-28.65625-64-64-64zm0 0"/></svg>