<svg viewBox="0 0 24 24" xmlns="http://www.w3.org/2000/svg"><path d="m16.771 0c-.68-.016-1.342.507-1.342 1.304v5.966c0 .719.582 1.301 1.3 1.301h5.967c1.16 0 1.74-1.401.92-2.22l-5.966-5.968a1.275 1.275 0 0 0 -.879-.383zm-10.198.106c-.672-.017-1.326.5-1.326 1.287v5.892c0 .71.575 1.285 1.285 1.285h5.892c1.145 0 1.718-1.384.908-2.194l-5.892-5.892a1.259 1.259 0 0 0 -.867-.379zm-5.287 10.181c-.71 0-1.286.576-1.286 1.286v11.142c0 .71.576 1.285 1.286 1.285h11.143c.71 0 1.285-.575 1.285-1.285v-11.142c0-.71-.575-1.286-1.285-1.286zm15.485 0c-.68-.017-1.342.507-1.342 1.304v5.966c0 .718.582 1.3 1.3 1.3h5.967c1.16 0 1.74-1.4.92-2.22l-5.966-5.967a1.275 1.275 0 0 0 -.879-.384zm-13.341 6.857a1.714 1.714 0 1 1 0 3.428 1.714 1.714 0 0 1 0-3.428zm4.285 0a1.714 1.714 0 1 1 0 3.428 1.714 1.714 0 0 1 0-3.428z"/></svg>