<svg xmlns="http://www.w3.org/2000/svg" fill-rule="evenodd" stroke-linejoin="round" stroke-miterlimit="2" clip-rule="evenodd" viewBox="0 0 512 512"><defs><mask id="a"><path fill="#fff" d="M0 0h512v512H0z"/><path d="M89.05 290.616a167.35 167.35 0 0 0 31.783 98.434l80.131-130.713 28.885 49.582-7.936-36.887 34.082-57.808 55.107 94.695-7.862-36.523 7.75-13.124 80.177 130.778a167.35 167.35 0 0 0 31.783-98.434c0-92.601-74.746-167.665-166.955-167.665-92.198-.019-166.945 75.055-166.945 167.665"/></mask></defs><path fill="currentColor" d="M506 116v280c0 60.71-49.29 110-110 110H116C55.29 506 6 456.71 6 396V116C6 55.289 55.29 6 116 6h280c60.71 0 110 49.289 110 110" mask="url(#a)"/></svg>