<svg height="18" viewBox="0 0 18 18" width="18" xmlns="http://www.w3.org/2000/svg" xmlns:xlink="http://www.w3.org/1999/xlink"><linearGradient id="a" gradientUnits="userSpaceOnUse" x1="10.75" x2="10.75" y1="13.54" y2="2.92"><stop offset="0" stop-color="#0078d4"/><stop offset=".16" stop-color="#1380da"/><stop offset=".53" stop-color="#3c91e5"/><stop offset=".82" stop-color="#559cec"/><stop offset="1" stop-color="#5ea0ef"/></linearGradient><linearGradient id="b" gradientUnits="userSpaceOnUse" x1="7.45" x2="7.45" y1="17.24" y2="1.19"><stop offset="0" stop-color="#198ab3"/><stop offset=".11" stop-color="#22a5cb"/><stop offset=".23" stop-color="#29bade"/><stop offset=".37" stop-color="#2ec9eb"/><stop offset=".53" stop-color="#31d1f3"/><stop offset=".78" stop-color="#32d4f5"/></linearGradient><path d="m18 10.53a3.26 3.26 0 0 0 -2.83-3.13 4.11 4.11 0 0 0 -4.23-3.93 4.22 4.22 0 0 0 -4 2.75 3.89 3.89 0 0 0 -3.44 3.78 4 4 0 0 0 4.08 3.79h7.18a3.29 3.29 0 0 0 3.24-3.26" fill="url(#a)"/><path d="m14.9 11.22a3.35 3.35 0 0 0 -2.9-3.22 4.21 4.21 0 0 0 -4.35-4 4.33 4.33 0 0 0 -4.14 2.79 4 4 0 0 0 -3.51 3.84 4.06 4.06 0 0 0 4.2 3.9h7.34a3.38 3.38 0 0 0 3.36-3.31" fill="url(#b)"/><path d="m4.82 9.37h.85a.23.23 0 0 1 .17.07l2 2a.24.24 0 0 1 0 .35l-2.72 2.67a.24.24 0 0 1 -.17.07h-.81a.25.25 0 0 1 -.14-.42l2.31-2.34a.23.23 0 0 0 0-.34l-1.66-1.65a.24.24 0 0 1 .17-.41m3.43-3.37h.87a.25.25 0 0 1 .17.08l1.53 1.55a.24.24 0 0 1 0 .34l-2 1.91a.24.24 0 0 1 -.17.07h-.73a.25.25 0 0 1 -.18-.41l1.53-1.54a.25.25 0 0 0 0-.34l-1.19-1.2a.24.24 0 0 1 .17-.46m1.79 4h.85a.28.28 0 0 1 .17.07l1.25 1.25a.25.25 0 0 1 0 .34l-1.81 1.83a.23.23 0 0 1 -.17.07h-.82a.24.24 0 0 1 -.17-.41l1.42-1.44a.25.25 0 0 0 0-.34l-.89-.91a.24.24 0 0 1 .13-.41z" fill="#fff"/></svg>