<svg height="66.143" viewBox="0 0 18.035 17.5" width="68.165" xmlns="http://www.w3.org/2000/svg"><g transform="matrix(1.01489 0 0 1.01489 15.944 -3.873)"><path d="m-6.85 4.272a1.12 1.11 0 0 0 -.428.109l-5.852 2.796a1.12 1.11 0 0 0 -.606.753l-1.444 6.282a1.12 1.11 0 0 0 .152.85 1.12 1.11 0 0 0 .064.089l4.05 5.037a1.12 1.11 0 0 0 .876.417l6.496-.001a1.12 1.11 0 0 0 .875-.417l4.049-5.038a1.12 1.11 0 0 0 .216-.939l-1.446-6.28a1.12 1.11 0 0 0 -.605-.753l-5.854-2.797a1.12 1.11 0 0 0 -.542-.109" fill="#326ce5"/><path d="m-6.852 3.818a1.181 1.172 0 0 0 -.452.115l-6.18 2.951a1.181 1.172 0 0 0 -.638.795l-1.524 6.63a1.181 1.172 0 0 0 .16.9 1.181 1.172 0 0 0 .067.093l4.276 5.317a1.181 1.172 0 0 0 .924.44h6.858a1.181 1.172 0 0 0 .923-.44l4.275-5.319a1.181 1.172 0 0 0 .228-.99l-1.525-6.633a1.181 1.172 0 0 0 -.64-.795l-6.178-2.95a1.181 1.172 0 0 0 -.573-.115m.003.455a1.12 1.11 0 0 1 .542.108l5.853 2.795a1.12 1.11 0 0 1 .606.753l1.446 6.281a1.12 1.11 0 0 1 -.216.94l-4.05 5.037a1.12 1.11 0 0 1 -.875.417l-6.496.001a1.12 1.11 0 0 1 -.875-.417l-4.05-5.037a1.12 1.11 0 0 1 -.064-.088 1.12 1.11 0 0 1 -.152-.851l1.444-6.281a1.12 1.11 0 0 1 .605-.753l5.853-2.797a1.12 1.11 0 0 1 .429-.108" fill="#fff"/></g><g transform="translate(-.724 -.082)"><path d="m8.053 5.13h6.525v4.582h-6.525z" style="fill:none;stroke:#fff;stroke-width:.529146;stroke-linecap:square;stroke-linejoin:round;stroke-miterlimit:10;stroke-dasharray:1.587438 1.587438;stroke-dashoffset:3.666981"/><path d="m6.514 6.54h6.525v4.584h-6.525z" style="fill:#326ce5;fill-rule:evenodd;stroke:#fff;stroke-width:.529146;stroke-linecap:square;stroke-linejoin:round;stroke-miterlimit:10;stroke-dasharray:1.587438 1.587438;stroke-dashoffset:3.878639"/><path d="m4.976 7.952h6.524v4.583h-6.524z" fill="#fff" fill-rule="evenodd"/><path d="m4.976 7.952h6.524v4.583h-6.524z" fill="none" stroke="#fff" stroke-linejoin="round" stroke-miterlimit="10" stroke-width=".529167"/><path d="m5.509 9.226c0-.43 1.222-.777 2.729-.777s2.73.348 2.73.777-1.223.778-2.73.778-2.73-.349-2.73-.778" fill="#fff" fill-rule="evenodd"/><g fill="none"><path d="m10.967 9.226c0 .43-1.222.778-2.73.778-1.506 0-2.728-.349-2.728-.778s1.222-.777 2.729-.777 2.73.348 2.73.777v2.103c0 .43-1.223.778-2.73.778s-2.73-.348-2.73-.778v-2.103"/><path d="m10.967 9.226c0 .43-1.222.778-2.73.778-1.506 0-2.728-.349-2.728-.778s1.222-.777 2.729-.777 2.73.348 2.73.777v2.103c0 .43-1.223.778-2.73.778s-2.73-.348-2.73-.778v-2.103" stroke="#326ce5" stroke-linejoin="round" stroke-miterlimit="10" stroke-width=".529167"/></g></g></svg>