<svg xmlns="http://www.w3.org/2000/svg" width="68.165" height="66.143" viewBox="0 0 18.035 17.5"><path fill="#326ce5" d="M8.992.463a1.137 1.127 0 0 0-.434.11l-5.94 2.838a1.137 1.127 0 0 0-.615.764L.538 10.551a1.137 1.127 0 0 0 .154.862 1.137 1.127 0 0 0 .065.09l4.11 5.113a1.137 1.127 0 0 0 .89.423l6.592-.001a1.137 1.127 0 0 0 .888-.423l4.11-5.113a1.137 1.127 0 0 0 .219-.953l-1.468-6.374a1.137 1.127 0 0 0-.614-.764L9.544.572a1.137 1.127 0 0 0-.551-.11"/><path fill="#fff" d="M8.99.002a1.199 1.19 0 0 0-.459.117L2.26 3.114a1.199 1.19 0 0 0-.647.806L.065 10.65a1.199 1.19 0 0 0 .162.912 1.199 1.19 0 0 0 .068.095l4.34 5.396a1.199 1.19 0 0 0 .938.447h6.96a1.199 1.19 0 0 0 .937-.447l4.338-5.398a1.199 1.19 0 0 0 .232-1.005l-1.548-6.732a1.199 1.19 0 0 0-.65-.807L9.573.118A1.199 1.19 0 0 0 8.992 0m.003.462a1.137 1.127 0 0 1 .55.11l5.94 2.836a1.137 1.127 0 0 1 .615.764l1.468 6.375a1.137 1.127 0 0 1-.22.954l-4.11 5.112a1.137 1.127 0 0 1-.888.423H5.757a1.137 1.127 0 0 1-.888-.422l-4.11-5.112a1.137 1.127 0 0 1-.066-.09 1.137 1.127 0 0 1-.154-.863l1.465-6.375a1.137 1.127 0 0 1 .614-.764L8.558.572a1.137 1.127 0 0 1 .436-.11"/><path fill="none" stroke="#fff" stroke-dasharray="1.587438 1.587438" stroke-dashoffset="3.667" stroke-linecap="square" stroke-linejoin="round" stroke-miterlimit="10" stroke-width=".529" d="M7.329 5.048h6.525V9.63H7.329z"/><path fill="#326ce5" fill-rule="evenodd" stroke="#fff" stroke-dasharray="1.587438 1.587438" stroke-dashoffset="3.879" stroke-linecap="square" stroke-linejoin="round" stroke-miterlimit="10" stroke-width=".529" d="M5.79 6.458h6.525v4.584H5.79z"/><path fill="#fff" fill-rule="evenodd" d="M4.252 7.87h6.524v4.583H4.252z"/><path fill="none" stroke="#fff" stroke-linejoin="round" stroke-miterlimit="10" stroke-width=".529" d="M4.252 7.87h6.524v4.583H4.252z"/><path fill="#fff" fill-rule="evenodd" d="M4.785 9.144c0-.43 1.222-.777 2.729-.777s2.73.348 2.73.777-1.223.778-2.73.778-2.73-.349-2.73-.778"/><g fill="none"><path d="M10.243 9.144c0 .43-1.222.778-2.73.778-1.506 0-2.728-.349-2.728-.778s1.222-.777 2.729-.777 2.73.348 2.73.777v2.103c0 .43-1.223.778-2.73.778s-2.73-.348-2.73-.778V9.144"/><path stroke="#326ce5" stroke-linejoin="round" stroke-miterlimit="10" stroke-width=".529" d="M10.243 9.144c0 .43-1.222.778-2.73.778-1.506 0-2.728-.349-2.728-.778s1.222-.777 2.729-.777 2.73.348 2.73.777v2.103c0 .43-1.223.778-2.73.778s-2.73-.348-2.73-.778V9.144"/></g></svg>