<svg viewBox="0 0 24 24" xmlns="http://www.w3.org/2000/svg"><path d="m15.215 10.794 3.78 2.416h-2.663l-3.78-2.416zm-9.559-2.276-.438 1.626-.175.65-.652 2.416-.175.65-.437 1.622h1.869l.437-1.622.175-.65.651-2.416.175-.65.438-1.626zm6.06 5.342-.437 1.622h4.947l2.543-1.622zm3.556-5.342-2.548 1.626h7.086l.438-1.626zm6.86 0-.438 1.626-.175.65-.651 2.416-.175.65-.437 1.622h1.869l.437-1.622.175-.65.651-2.416.175-.65.437-1.626zm-20.255 0-.438 1.626-.175.65-.651 2.416-.175.65-.438 1.622h1.869l.437-1.622.175-.65.651-2.416.175-.65.438-1.626zm7.536 0-.438 1.626-.175.65-.651 2.416-.175.65-.437 1.622h1.869l.437-1.622.175-.65.651-2.416.175-.65.438-1.626z"/></svg>