<svg height="59" viewBox="0 0 59 59" width="59" xmlns="http://www.w3.org/2000/svg"><g fill="none" fill-rule="evenodd"><path d="m25.445 15.856c-1.072-2.842-1.746-7.386-1.746-8.97a5.48 5.48 0 0 1 10.959 0c0 1.577-.669 6.09-1.736 8.934 9.47.511 22.632 2.937 23.237 6.165.679 3.637.938 12.781.938 21.754 0 7.782-13.865 12.864-27.597 12.864-13.739 0-27.597-5.082-27.597-12.864 0-8.973.253-18.117.938-21.754.589-3.158 13.191-5.55 22.604-6.13z" fill="#fff"/><g fill="#0d1419" fill-rule="nonzero"><path d="m21.73 41.017c0 1.05-.856 1.9-1.906 1.9s-1.906-.85-1.906-1.9.856-1.906 1.906-1.906 1.906.856 1.906 1.906m14.962 8.584a1.53 1.53 0 0 1 -.614 2.065c-.112.053-2.672 1.416-6.596 1.416-3.93 0-6.46-1.363-6.566-1.422a1.525 1.525 0 0 1 -.602-2.07 1.52 1.52 0 0 1 2.059-.602c.053.023 2.03 1.05 5.11 1.05 3.109 0 5.12-1.044 5.144-1.05a1.52 1.52 0 0 1 2.065.613m8.189-8.584a1.904 1.904 0 0 1 -3.806 0c0-1.05.856-1.906 1.906-1.906s1.9.856 1.9 1.906"/><path d="m41.076 44.822a5.72 5.72 0 0 1 -5.711-5.71 5.72 5.72 0 0 1 5.71-5.712c3.151 0 5.712 2.56 5.712 5.711 0 3.15-2.56 5.711-5.711 5.711m0-14.278a8.566 8.566 0 0 0 -8.567 8.567 8.566 8.566 0 0 0 8.567 8.567 8.566 8.566 0 0 0 8.567-8.567 8.566 8.566 0 0 0 -8.567-8.567"/><path d="m3.869 43.184c0-8.334.235-16.827.871-20.205.589-3.155 14.084-5.485 22.918-5.785v-6.05a3.795 3.795 0 0 1 1.518-7.275 3.8 3.8 0 0 1 3.802 3.796c0 1.56-.941 2.895-2.283 3.478v6.033c8.804.206 22.959 2.572 23.565 5.803.63 3.378.871 11.871.871 20.205 0 7.227-12.877 11.947-25.631 11.947-12.76 0-25.631-4.72-25.631-11.947zm41.82-28.139c-3.45-.708-7.475-1.245-11.18-1.522v-.472a7.628 7.628 0 0 0 2.283-5.44c0-4.195-3.416-7.611-7.617-7.611-4.194 0-7.61 3.416-7.61 7.611 0 2.083.85 4.03 2.283 5.44v.525c-3.528.289-7.287.802-10.538 1.469-8.035 1.646-11.74 3.806-12.378 7.216-.814 4.354-.932 14.997-.932 20.957 0 10.247 15.198 15.782 29.5 15.782s29.5-5.534 29.5-15.782c0-5.96-.124-16.603-.938-20.957-.638-3.41-4.337-5.57-12.372-7.216z"/><path d="m17.918 44.822a5.714 5.714 0 0 1 -5.705-5.71c0-3.151 2.56-5.712 5.705-5.712 3.15 0 5.712 2.56 5.712 5.711 0 3.15-2.561 5.711-5.712 5.711m0-14.278c-4.726 0-8.56 3.835-8.56 8.567s3.834 8.567 8.56 8.567a8.566 8.566 0 0 0 8.567-8.567 8.566 8.566 0 0 0 -8.567-8.567"/></g></g></svg>