<svg height="18" viewBox="0 0 18 18" width="18" xmlns="http://www.w3.org/2000/svg" xmlns:xlink="http://www.w3.org/1999/xlink"><radialGradient id="a" cx="11.2534" cy="6.5322" gradientUnits="userSpaceOnUse" r="6.016"><stop offset="0" stop-color="#5ea0ef"/><stop offset=".28" stop-color="#5b9fee"/><stop offset=".47" stop-color="#529bec"/><stop offset=".64" stop-color="#4394e7"/><stop offset=".79" stop-color="#2d8be1"/><stop offset=".93" stop-color="#117fd9"/><stop offset="1" stop-color="#0078d4"/></radialGradient><rect fill="#198ab3" height="1.34" rx=".63" transform="matrix(.70710678 -.70710678 .70710678 .70710678 -9.930215 6.43034)" width="5.89" x="-.15" y="14.53"/><path d="m17 4.35a6.4 6.4 0 0 0 -.75-1.35 6.24 6.24 0 0 0 -8.74-1.24l-.06.05a6.18 6.18 0 0 0 -2.21 3.33c0 .22-.1.44-.13.66a6.25 6.25 0 0 0 1.89 5.46 2 2 0 0 0 .22.2l.22.18a5.8 5.8 0 0 0 .94.6l.1.06.17.07.14.07.15.06.16.06.14.05.2.06h.11l.29.08.32.07h.08a2 2 0 0 0 .25 0h1.52a5 5 0 0 0 .76-.15 6.2 6.2 0 0 0 2.21-1.1 6.4 6.4 0 0 0 1.13-1.13 6.28 6.28 0 0 0 .89-6.09m-1.45-.93h-1.22a5.9 5.9 0 0 0 -.88-1.66 5.34 5.34 0 0 1 2.13 1.66zm-3.91-2a3.27 3.27 0 0 1 1.8 2h-1.8zm0 2.84h2.07a9.2 9.2 0 0 1 .33 2.11h-2.4zm0 2.91h2.4a9.2 9.2 0 0 1 -.33 2.12h-2.04v-2.16zm-3.12-1.43a8.7 8.7 0 0 1 .28-1.52h2.07v2.11h-2.39c.01-.2.02-.4.04-.59m2.35-4.36v2h-1.79a3.23 3.23 0 0 1 1.79-2m-2.93 1.06a6 6 0 0 1 1.1-.64 6.1 6.1 0 0 0 -.88 1.67h-1.16a5.7 5.7 0 0 1 .94-1.03m-1.49 1.78h1.55a9 9 0 0 0 -.24 1.34c0 .25-.05.51-.05.77h-1.86a7 7 0 0 1 .15-.75 6 6 0 0 1 .45-1.36m-.6 2.91h1.83a9.4 9.4 0 0 0 .32 2.12h-1.55a5.4 5.4 0 0 1 -.6-2.12m1.15 2.94h1.21a5.9 5.9 0 0 0 .88 1.66 5.3 5.3 0 0 1 -2.09-1.66m3.89 2a3.23 3.23 0 0 1 -1.79-2h1.79zm0-2.84h-2.09a9.2 9.2 0 0 1 -.32-2.12h2.39v2.14zm1.53 2.42a2 2 0 0 1 -.73.42v-2h1.8a4.4 4.4 0 0 1 -1.09 1.6zm2.18-.65a5.2 5.2 0 0 1 -1.15.68 5.9 5.9 0 0 0 .88-1.66h1.25a5.4 5.4 0 0 1 -.98.98m1.48-1.78h-1.5a10.6 10.6 0 0 0 .29-2.12h1.81a5.3 5.3 0 0 1 -.6 2.15zm-1.21-2.89a10.6 10.6 0 0 0 -.29-2.11h1.51a5.5 5.5 0 0 1 .6 2.11z" fill="url(#a)"/><circle cx="6.36" cy="10.94" fill="#50e6ff" r="4.04"/><circle cx="6.35" cy="10.87" fill="#fff" r="3.17"/><path d="m4.72 10.94.8 1.86.81-2.39.67 1.36.83-1.4h1.29a4 4 0 0 0 -.12-.47h-1.39l-.54.91-.83-1.58-.77 2.27-.7-1.61-.86 1.57h-.46a2.6 2.6 0 0 0 .15.47h.58z" fill="#76bc2d"/></svg>