<svg height="18" viewBox="0 0 18 18" width="18" xmlns="http://www.w3.org/2000/svg"><path d="m1.165 2.268v5.169a9.75 9.75 0 0 0 4.064 7.929l3.524 2.537c.115.123.308.13.432.015l.015-.015 3.524-2.537a9.75 9.75 0 0 0 4.111-7.929v-5.169h-.446a7.14 7.14 0 0 1 -3.97-1.175 6.04 6.04 0 0 0 -3.419-1.092 6.03 6.03 0 0 0 -3.418 1.057 7.14 7.14 0 0 1 -3.97 1.175z" fill="#ba141a"/><g fill="#fff"><path d="m12.418 1.058a6.05 6.05 0 0 0 -6.836 0 7.14 7.14 0 0 1 -3.97 1.175h-.446v5.204a9.76 9.76 0 0 0 3.641 7.612z" opacity=".15"/><path d="m7.097 4.171 1.938-1.95 1.927 1.95h-1.363v3.101h-1.163v-3.101zm3.865 8.939-1.927 1.95-1.938-1.95h1.374v-3.112h1.163v3.112zm1.421-2.619-1.926-1.95 1.926-1.962v1.386h3.066v1.187h-3.066zm-6.766-3.912 1.926 1.962-1.926 1.95v-1.374h-3.066v-1.187h3.066z"/></g></svg>