<svg viewBox="0 0 24 24" xmlns="http://www.w3.org/2000/svg"><path d="m23.457 8.42h-2.311a9.79 9.79 0 0 1 .676 3.58c0 5.425-4.397 9.822-9.822 9.822a9.767 9.767 0 0 1 -4.98-1.357 9.12 9.12 0 0 0 5.625-6.457l.817-3.529a6.918 6.918 0 0 1 2.488-3.903 6.221 6.221 0 0 1 1.52-.87 7.616 7.616 0 0 1 2.765-.51l1.642-.003c-2.166-3.13-5.783-5.193-9.877-5.193-6.628 0-12 5.373-12 12 0 1.247.19 2.448.543 3.579h2.31a9.79 9.79 0 0 1 -.674-3.579c0-5.424 4.398-9.822 9.822-9.822 1.819 0 3.52.495 4.98 1.357a9.118 9.118 0 0 0 -5.625 6.457l-.816 3.53a6.917 6.917 0 0 1 -2.488 3.903 6.22 6.22 0 0 1 -1.52.869c-.737.295-1.655.51-2.887.51l-1.522.002c2.165 3.13 5.783 5.194 9.877 5.194 6.628 0 12-5.373 12-12a12 12 0 0 0 -.543-3.58z"/></svg>