<svg xmlns="http://www.w3.org/2000/svg" width="18" height="18" viewBox="0 0 18 18">
  <defs>
    <mask id="wko">
      <rect width="18" height="18" fill="white"/>
      <path fill="black" d="m2.905 2.1.742-.846a.52.52 0 0 1 .394-.179h10.845a.52.52 0 0 1 .522.522v13.786a.52.52 0 0 1-.171.386l-1.158 1.055z"/>
    </mask>
  </defs>
  <g fill="currentColor" mask="url(#wko)">
    <path fill="currentColor" d="M1.931 2.109 3.142.7a.6.6 0 0 1 .444-.2H15.2a.813.813 0 0 1 .888.831v14.5a.6.6 0 0 1-.192.435l-1.308 1.191H2.716l-.8-.337z"/>
  </g>
  <path fill="currentColor" d="M14.008 2.093H1.969a.056.056 0 0 0-.056.056v14.966a.385.385 0 0 0 .387.385h11.71a.385.385 0 0 0 .385-.385V2.478a.386.386 0 0 0-.387-.385"/>
</svg>