<svg height="18" viewBox="0 0 18 18" width="18" xmlns="http://www.w3.org/2000/svg"><path d="m13.067 2.794v4.791l-4.141 2.408v-4.799z" fill="#76bc2d"/><path d="m13.067 2.794-4.141 2.407-4.141-2.408 4.141-2.407z" fill="#b4ec36"/><path d="m8.926 5.201v4.792l-4.141-2.408v-4.792z" fill="#86d633"/><path d="m8.782 10.416v4.791l-4.141 2.407v-4.798z" fill="#76bc2d"/><path d="m8.782 10.416-4.141 2.406-4.141-2.407 4.141-2.408z" fill="#b4ec36"/><path d="m4.641 12.822v4.792l-4.141-2.407v-4.792z" fill="#86d633"/><path d="m17.5 10.416v4.791l-4.141 2.407v-4.798z" fill="#76bc2d"/><path d="m17.5 10.416-4.14 2.406-4.142-2.407 4.142-2.408z" fill="#b4ec36"/><path d="m13.359 12.822v4.792l-4.141-2.407v-4.792z" fill="#86d633"/></svg>