<svg viewBox="0 0 128 128" xmlns="http://www.w3.org/2000/svg"><path clip-rule="evenodd" d="m41.4933 98.5888c-2.9355 8.2372-7.2159 21.7072-9.0933 28.0062-.1491.5-.2831.955-.4 1.359.4161-.105.9053-.439 1.28-.81.2805-.278.4969-.578.5706-.818 2.848-9.269 7.6267-24.153 13.7645-40.6227 5.4247-14.5559 11.9284-30.3479 19.114-44.6067.0278-.0552.0556-.1103.0834-.1655.0373-.0739.0747-.1479.1121-.2218 4.4121-8.7232 9.0308-16.8902 13.8718-23.7994.0256-.0365.0513-.073.0769-.1095 2.4966-3.5561 4.9993-6.7714 7.648-9.57034-2.5211 2.78114-4.8554 6.10934-7.2654 9.81894-.0272.0418-.0544.0838-.0816.1257-4.5359 6.9964-9.1276 15.2923-13.363 23.9831-.034.0698-.068.1396-.102.2095-.028.0575-.0559.1151-.0839.1726-7.6105 15.6714-14.292 32.5031-18.9358 45.1877-1.3572 3.7072-2.5549 7.0872-3.5371 9.9549-.1577.4604-.3098.9076-.4562 1.3408-.0694.2055-.1375.4078-.2043.6069.5835.2128 1.2525.8319 1.8855 1.6108.6375.784 1.2386 1.729 1.679 2.584-.0496-1.084-.3226-2.147-.8359-3.1319-.1952-.3745-.4252-.7375-.6908-1.0858-.2117-.2775-.446-.5456-.7035-.8028-.0758-.0757-.1536-.1504-.2334-.2242.102.0042.2039.008.3058.0114.3715.0124.7422.0192 1.1114.02 5.3898.0116 10.4798-1.2623 13.6745-5.3223.5933-.7539 1.1212-1.604 1.5736-2.5597-.7375.884-1.4709 1.4268-2.2217 1.7597-.532.2359-1.0728.3664-1.63.4384-.6964.0899-1.4183.0883-2.1805.0866-.1045-.0002-.2098-.0004-.3159-.0004l.0781-.0361c.679-.3131 1.3894-.6407 2.1188-1.0213 1.2309-.6422 2.5161-1.4352 3.7967-2.564 1.3915-1.2265 2.463-2.56 3.4401-4.1503.4756-.7739.9288-1.6086 1.3857-2.5214-.6942.6675-1.4035 1.2847-2.1413 1.8396-2.5288 1.9018-5.3926 3.0713-9.1306 3.0268-.9654-.0115-1.9892-.104-3.0805-.2858.685-.1144 1.697-.3221 2.9354-.7168 3.4218-1.0902 8.5725-3.6067 13.3327-9.5203 4.1481-5.1532 6.8397-11.8209 8.6998-17.4255.148-.446.2907-.8853.4286-1.3165-.3256.185-.7128.3609-1.1376.5236-.0313.012-.0627.0239-.0943.0357-1.1539.4312-2.5664.766-3.7776.9291 1.2891-.5044 2.4128-1.1403 3.3936-1.8531 2.1137-1.5361 3.5634-3.4288 4.5735-5.1295.3619-.6091.6673-1.1936.9267-1.7283-.5709.367-1.1031.6933-1.6487.9823-.0228.012-.0455.024-.0683.0359-1.2211.6386-2.5202 1.0925-4.478 1.4021 1.3819-.5124 2.7377-1.298 3.933-2.2458.9525-.7552 1.8031-1.6135 2.484-2.5188 1.3358-1.7761 3.0822-5.6194 3.9037-8.4972.1428-.5002.2577-.9713.3376-1.3973-.2773.2314-.69.4697-1.1838.7009-.4094.1917-.8745.3785-1.3644.5524-1.3109.4656-2.7992.8393-3.8715.9686.0818-.0365.1668-.074.2548-.1128.8259-.3645 1.921-.8477 3.1469-1.7507 1.192-.8779 2.5078-2.1527 3.8205-4.101 4.3427-6.4454 7.5993-13.7492 8.5456-18.8307.9001-4.8331.2164-8.40158-1.0342-10.86214-1.011-1.98937-3.5046-4.42566-5.9138-4.42566-1.8783 0-3.7067 1.60813-6.1466 4.07519-2.44 2.46706-3.9469 4.2954-5.2503 5.93601-4.4218 5.5654-9.769 12.9468-14.968 21.2845-8.2888 13.2929-16.1916 29.1983-19.3378 44.954-.5435 2.7215-.9518 5.4278-1.1904 8.1237-.0444.5017-.0829 1.0031-.1154 1.5042-.2499-.3781-.5536-.7662-.9172-1.1637-.6115-.6682-1.3925-1.3629-2.3731-2.0804-.642-.4698-1.3695-.9494-2.1908-1.4379.2891.3764.8239 1.1357 1.4468 2.1336 1.6358 2.6206 3.8795 6.8865 3.8795 10.1831-.6023.1206-1.9463.0835-3.4828-.243-.8138-.173-1.6817-.4271-2.5218-.7821.6767.6346 1.3779 1.2194 2.1176 1.7173.4002.2693.8116.5132 1.2365.7258.5567.2786 1.1365.5034 1.7445.6613-.6076.0599-1.2111.2021-1.8147.4127-.7511.2622-1.5025.6304-2.2621 1.0781-.9912.5842-1.9966 1.3036-3.0342 2.0993 1.1785-.4644 2.3244-.8712 3.4288-1.1701 1.4255-.3857 2.782-.5916 4.0505-.509.3449.0224.6834.0662 1.015.1335-.1118.3089-.2259.6267-.342.9527zm-.6305-2.0853c.3959.0247.7866.0745 1.1714.1526.1747.0354.3346.1165.4651.2323 1.3093-3.7164 2.7049-7.5797 4.1787-11.5344 5.4813-14.7076 12.0684-30.6914 19.3542-45.096 4.4235-8.7456 9.0664-16.9588 13.9453-23.9219 2.5382-3.6225 5.0961-6.91774 7.8175-9.79339.3767-.3981 1.0037-.41875 1.4058-.0463s.4295.99919.0614 1.40527c-2.4659 2.72022-4.7652 5.99402-7.1677 9.69212-4.5717 7.0369-9.2107 15.4201-13.4859 24.2109-7.6252 15.6791-14.3258 32.5538-18.98 45.2667-1.2918 3.5284-2.4382 6.7584-3.391 9.5298 4.9319.1232 9.4479-.7838 12.552-3.7189-.8614.1375-1.7311.1349-2.5534.1323-.1096-.0003-.2183-.0006-.3261-.0006-.4696 0-.876-.3269-.9767-.7856-.1007-.4588.1314-.9258.5578-1.1225l.0487-.0224c1.8345-.8462 3.7733-1.7405 5.7026-3.4411.6811-.6003 1.2825-1.2291 1.8354-1.9107-.671.3684-1.3722.6905-2.1101.9585-2.4921.9049-5.3351 1.1673-8.755.5977-.4821-.0803-.8356-.4973-.8357-.9861s.3532-.9061.8353-.9866c2.4219-.4045 9.3716-2.0735 15.6538-9.8779 3.8552-4.7894 6.4417-10.9628 8.2772-16.3619-1.071.3385-2.2368.5906-3.2459.7264-.5016.0676-.9746-.2504-1.1014-.7403-.1269-.49.1323-.9976.6037-1.182 3.101-1.2133 5.1855-3.2453 6.6121-5.242-.9457.3655-2.0211.6535-3.3928.8705-.5077.0802-.9935-.2374-1.1237-.7346-.1301-.4972.1379-1.0121.6198-1.1908 2.3038-.8543 4.5455-2.54 5.9655-4.4281.7128-.9477 1.6011-2.6168 2.3868-4.4443.4226-.9828.8024-1.9811 1.102-2.9018-.3376.1342-.6846.2596-1.0276.3746-1.2639.4236-2.6565.7645-3.7206.8929-.491.0592-.9516-.2494-1.0835-.7261-.1319-.4766.1044-.9781.5559-1.1798.0833-.0372.1697-.0753.2589-.1146 1.5714-.6929 4.0389-1.7809 6.5418-5.4956 4.2958-6.3758 7.4786-13.5516 8.3918-18.4551.8664-4.652.1932-7.9913-.9425-10.22596-.4395-.86469-1.2251-1.86317-2.1735-2.63721-.9607-.78412-1.9675-1.24153-2.8489-1.24153-.6432 0-1.3655.27347-2.2823.92681-.9192.65504-1.9326 1.61731-3.1533 2.85157-2.4065 2.43313-3.8889 4.23183-5.1784 5.85482-4.3998 5.538-9.7249 12.8885-14.9023 21.1916-8.26 13.2467-16.0934 29.0341-19.2058 44.6207-.6374 3.1921-1.0851 6.3545-1.2885 9.4967-.0277.4286-.326.7916-.741.9019-.4151.1103-.8542-.0567-1.0911-.415-.2407-.3641-.5438-.747-.9199-1.1469.0734.1385.1464.2786.219.4201 1.2126 2.363 2.3803 5.2815 2.3803 7.81 0 .4766-.3363.8869-.8036.9805-.274.0549-.6251.0823-1.0278.0826.0587.0169.1176.033.1767.0483.4692.1219.7834.5626.7456 1.0458-.029.3723-.2607.6873-.5861.834z" fill-rule="evenodd"/></svg>