<svg viewBox="0 0 128 128" xmlns="http://www.w3.org/2000/svg"><path clip-rule="evenodd" d="m32 127.954c.7275-.183 1.6784-1.067 1.8506-1.628 2.848-9.269 7.6267-24.153 13.7645-40.6227 5.4738-14.6878 12.0464-30.6343 19.3095-44.994 4.4121-8.7232 9.0308-16.8902 13.8718-23.7994 2.5222-3.5995 5.049-6.8522 7.7249-9.67984-2.5211 2.78114-4.8554 6.10934-7.2654 9.81894-4.5988 7.0787-9.2576 15.4992-13.5466 24.3183-7.6453 15.7204-14.3589 32.6292-19.0197 45.3603-1.6785 4.5846-3.1128 8.6688-4.1976 11.9026 1.1711.4272 2.6868 2.4908 3.5645 4.1948-.088-1.921-.8777-3.7791-2.4636-5.2447 6.9124.2858 13.5646-1.2991 16.6653-7.8506-2.003 2.4013-3.9765 2.2843-6.3481 2.2843 1.8443-.8508 3.925-1.798 5.9936-3.6214 2.0687-1.8234 3.4301-3.8834 4.8258-6.6717-3.6879 3.5466-7.8026 5.6714-14.3524 4.5806 2.5775-.4304 9.7849-2.1831 16.2681-10.2371 4.4782-5.5633 7.2589-12.8917 9.1284-18.742-1.2226.6948-3.3134 1.2601-5.0095 1.4884 5.0625-1.9807 7.5743-5.9909 8.8938-8.7109-1.8696 1.2019-3.3239 1.9663-6.195 2.4203 2.483-.9208 4.8816-2.7231 6.417-4.7646 1.568-2.0849 3.7017-7.0181 4.2413-9.8945-1.1224.9366-4.4633 1.986-6.4197 2.2219 1.5946-.7122 4.4156-1.7989 7.2222-5.9645 4.3427-6.4454 7.5993-13.7492 8.5456-18.8307.9001-4.8331.2164-8.40158-1.0342-10.86214-1.011-1.98937-3.5046-4.42566-5.9138-4.42566-1.8783 0-3.7067 1.60813-6.1466 4.07519-2.44 2.46706-3.9469 4.2954-5.2503 5.93601-4.4218 5.5654-9.769 12.9468-14.968 21.2845-8.2888 13.2929-16.1916 29.1983-19.3378 44.954-.6446 3.228-1.0991 6.4347-1.3058 9.6279-.9454-1.43-2.6589-3.0035-5.4811-4.682 1.0485 1.3649 5.3263 7.7648 5.3263 12.3167-.9213.1845-3.5783 0-6.0046-1.0251 1.5224 1.4277 3.1688 2.6032 5.0986 3.1044-2.3502.2316-4.6391 1.6946-7.111 3.5901 3.1134-1.2267 5.9989-2.0521 8.4943-1.5456-3.1592 8.7329-8.1882 24.6319-9.8353 30.3179z" fill-rule="evenodd"/></svg>