<svg viewBox="0 0 24 24" xmlns="http://www.w3.org/2000/svg" fill="#0075C9"><path d="m11.992 0-10.389 6v12l10.397 6 10.397-5.992v-12.008zm-1.022 1.534-2.512 4.344h-5.015l7.526-4.344m-2.923 5.061-1.176 2.039-3.527-2.039zm-.916 3.008 4.145 2.397-4.145 2.397-1.382-2.397zm-.611-.351-1.176 2.038-2.358-4.076zm-4.1-1.595 2.513 4.343-2.512 4.343v-8.686m2.916 5.06 1.175 2.039-3.526 2.038 2.35-4.076m1.535 2.648 1.176 2.039h-4.703zm-3.427 2.756h5.015l2.511 4.344zm8.197 4.078-2.35-4.078h2.351v4.078m0-4.794h-2.77l-1.383-2.397 4.145-2.397v4.794zm0-6.023-4.145-2.398 1.382-2.397h2.763v4.794m0-5.504h-2.351l2.351-4.076zm5.832 3.374 3.527-2.038-2.351 4.076zm.764 2.748-1.382 2.397-4.145-2.397 4.145-2.397 1.381 2.397m-1.122-3.366-1.174-2.039h4.702l-3.527 2.039m3.428-2.756h-5.015l-2.504-4.344zm-8.19-4.076 2.35 4.076h-2.351v-4.076m0 4.793h2.763l1.382 2.397-4.145 2.397zm0 6.023 4.145 2.397-1.382 2.39h-2.763zm0 5.504h2.351l-2.351 4.076zm.672 4.344 2.504-4.344h5.015l-7.52 4.344m2.917-5.061 1.175-2.039 3.527 2.039zm1.534-2.657 1.176-2.038 2.35 4.076zm4.1 1.595-2.514-4.343 2.511-4.343v8.687"/></svg>