<svg xmlns="http://www.w3.org/2000/svg" viewBox="0 0 24 24"><path d="M12 0C5.373 0 0 5.373 0 12s5.373 12 12 12 12-5.373 12-12S18.627 0 12 0m4.884 17.908a4.3 4.3 0 0 1-1.092 1.488 4.8 4.8 0 0 1-1.644.936q-.948.324-2.028.324c-1.08 0-1.368-.1-1.944-.3s-1.088-.464-1.536-.792-.832-.704-1.152-1.128a6.6 6.6 0 0 1-.768-1.284l1.68-1.008q.216.504.564.972c.348.468.5.588.804.828a3.7 3.7 0 0 0 2.328.792q.6 0 1.164-.168c.564-.168.708-.28.996-.504s.52-.5.696-.828.264-.716.264-1.164q0-.648-.252-1.116a3 3 0 0 0-.684-.84 5 5 0 0 0-1.032-.672q-.6-.3-1.296-.636a45 45 0 0 1-1.644-.816 7.6 7.6 0 0 1-1.488-1.008 4.8 4.8 0 0 1-1.068-1.332q-.408-.756-.408-1.764 0-.84.312-1.668a4.5 4.5 0 0 1 .912-1.476q.6-.648 1.5-1.056c.9-.408 1.3-.408 2.1-.408q.888 0 1.644.228a6 6 0 0 1 2.412 1.38q.456.432.744.84l-1.512 1.224a4.2 4.2 0 0 0-1.284-1.188 4.2 4.2 0 0 0-.924-.408 3.6 3.6 0 0 0-1.08-.156q-.696 0-1.212.216a2.7 2.7 0 0 0-.876.576q-.36.36-.54.828c-.18.468-.18.628-.18.948q0 .6.264 1.044c.264.444.424.572.744.828s.712.504 1.176.744.984.488 1.56.744q.96.432 1.74.9c.78.468.96.652 1.32 1.02s.636.784.828 1.248.288 1.008.288 1.632q0 1.104-.396 1.98"/></svg>