<svg xmlns="http://www.w3.org/2000/svg" width="40" height="40" viewBox="0 0 40 40">
  <defs>
    <mask id="ko">
      <rect width="40" height="40" fill="white"/>
      <path fill="black" d="M10 29h19V10H10zm23-17v-1h-3V9.5a.5.5 0 0 0-.5-.5H28V6h-1v3h-3V6h-1v3h-3V6h-1v3h-3V6h-1v3h-3V6h-1v3H9.5a.5.5 0 0 0-.5.5V11H6v1h3v3H6v1h3v3H6v1h3v3H6v1h3v3H6v1h3v1.5a.5.5 0 0 0 .5.5H11v3h1v-3h3v3h1v-3h3v3h1v-3h3v3h1v-3h3v3h1v-3h1.5a.5.5 0 0 0 .5-.5V28h3v-1h-3v-3h3v-1h-3v-3h3v-1h-3v-3h3v-1h-3v-3z"/>
    </mask>
  </defs>
  <g>
    <path fill="currentColor" mask="url(#ko)" d="M0 0h40v40H0z"/>
  </g>
</svg>