<svg height="40" viewBox="0 0 40 40" width="40" xmlns="http://www.w3.org/2000/svg"><g fill="none" fill-rule="evenodd"><path d="m0 0h40v40h-40z" fill="#ed7100"/><path d="m10 29h19v-19h-19zm23-17v-1h-3v-1.5a.5.5 0 0 0 -.5-.5h-1.5v-3h-1v3h-3v-3h-1v3h-3v-3h-1v3h-3v-3h-1v3h-3v-3h-1v3h-1.5a.5.5 0 0 0 -.5.5v1.5h-3v1h3v3h-3v1h3v3h-3v1h3v3h-3v1h3v3h-3v1h3v1.5a.5.5 0 0 0 .5.5h1.5v3h1v-3h3v3h1v-3h3v3h1v-3h3v3h1v-3h3v3h1v-3h1.5a.5.5 0 0 0 .5-.5v-1.5h3v-1h-3v-3h3v-1h-3v-3h3v-1h-3v-3h3v-1h-3v-3z" fill="#fff"/></g></svg>