<svg height="18" viewBox="0 0 18 18" width="18" xmlns="http://www.w3.org/2000/svg" xmlns:xlink="http://www.w3.org/1999/xlink"><linearGradient id="a" gradientUnits="userSpaceOnUse" x1="11.841" x2="11.841" y1="2.17" y2="13.446"><stop offset=".001" stop-color="#ffb34d"/><stop offset="1" stop-color="#faa21d"/></linearGradient><linearGradient id="b" gradientTransform="matrix(-1 0 0 -1 -2013.007 1025.516)" gradientUnits="userSpaceOnUse" x1="-2018.213" x2="-2018.213" y1="1017.927" y2="1009.817"><stop offset="0" stop-color="#50e6ff"/><stop offset="1" stop-color="#32bedd"/></linearGradient><path d="m.362 3.138a.36.36 0 0 1 -.362-.361v-2.416a.36.36 0 0 1 .362-.361h2.266a.361.361 0 0 1 0 .722h-1.904v2.053a.363.363 0 0 1 -.361.363zm17.638-.361v-2.416a.36.36 0 0 0 -.362-.361h-2.266a.361.361 0 1 0 0 .722h1.9v2.053a.362.362 0 0 0 .724 0zm-15.01 14.862a.36.36 0 0 0 -.362-.361h-1.904v-2.053a.362.362 0 0 0 -.724 0v2.415a.36.36 0 0 0 .362.36h2.266a.36.36 0 0 0 .362-.361m15.01 0v-2.414a.362.362 0 0 0 -.724 0v2.053h-1.9a.361.361 0 1 0 0 .722h2.266a.36.36 0 0 0 .358-.36z" fill="#faa21d"/><path d="m16.684 2.666v10.463a.32.32 0 0 1 -.3.329h-5.756a.28.28 0 0 1 -.281-.281v-4.911a.945.945 0 0 0 -.932-.866h-2.136a.28.28 0 0 1 -.279-.28v-4.454a.316.316 0 0 1 .3-.33h9.08a.32.32 0 0 1 .304.33" fill="url(#a)"/><path d="m15.118 6.405h-1.79a.327.327 0 0 1 -.285-.356.33.33 0 0 1 .285-.357h1.79a.33.33 0 0 1 .286.357.327.327 0 0 1 -.286.356" fill="#f78d1e"/><path d="m9.414 7.823h-8.414a.53.53 0 0 0 -.511.477v5.687a.524.524 0 0 0 .511.476h2.784a.08.08 0 0 1 .081.079v.958a.19.19 0 0 0 .208.164.2.2 0 0 0 .086-.035l.278-.181.77-.51.7-.466a.1.1 0 0 1 .052-.017h3.455a.51.51 0 0 0 .511-.468v-5.687a.523.523 0 0 0 -.511-.477" fill="url(#b)"/><path d="m3.3 12.412h-1.371c-.158 0-.285-.17-.285-.38s.127-.379.285-.379h1.371c.158 0 .286.17.286.379s-.125.38-.286.38" fill="#9cebff"/><path d="m12.12 6.405h-3.557a.357.357 0 1 1 0-.713h3.557a.357.357 0 1 1 0 .713m3.355 1.55a.357.357 0 0 0 -.357-.356h-3.4a.357.357 0 1 0 0 .713h3.4a.357.357 0 0 0 .357-.357m-9.632 2.194a.356.356 0 0 0 -.357-.356h-3.557a.356.356 0 1 0 0 .712h3.557a.356.356 0 0 0 .357-.356m3 1.906a.357.357 0 0 0 -.357-.356h-3.974a.357.357 0 1 0 0 .713h3.973a.357.357 0 0 0 .357-.357z" fill="#f2f2f2"/></svg>