<svg height="48" viewBox="0 0 48 48" width="48" xmlns="http://www.w3.org/2000/svg"><path d="m42.828 23v2h-13.517l2.638 2.638-1.414 1.414-4.345-4.345a1 1 0 0 1 0-1.414l4.345-4.345 1.414 1.414-2.638 2.638zm-21.018 1.707-4.344 4.345-1.414-1.414 2.638-2.638h-13.517v-2h13.517l-2.637-2.638 1.414-1.414 4.344 4.345a1 1 0 0 1 0 1.414m5.828 11.621 1.414 1.414-4.345 4.345a.997.997 0 0 1 -1.414 0l-4.345-4.345 1.414-1.414 2.637 2.638v-29.641l-2.585 3.016-1.52-1.301 4.345-5.069c.381-.444 1.14-.444 1.52 0l4.344 5.069-1.519 1.301-2.585-3.016v29.641zm-3.639 7.672c-11.028 0-20-8.972-20-20s8.972-20 20-20 20 8.972 20 20-8.972 20-20 20m0-42c-12.13 0-22 9.869-22 22s9.87 22 22 22 22-9.869 22-22-9.869-22-22-22" fill="#8c4fff" fill-rule="evenodd"/></svg>