<svg viewBox="0 0 24 24" xmlns="http://www.w3.org/2000/svg"><path d="m7.15 8.685c.03.02.05.06.05.1v6.44c0 .04-.02.08-.05.1-.029.03-.068.047-.11.05h-6.88c-.042-.003-.081-.02-.11-.05-.03-.025-.048-.061-.05-.1v-6.44c0-.04.02-.08.05-.1.029-.03.068-.047.11-.05h6.88c.04 0 .08.02.11.05zm-2.35 2.35c-.002-.039-.02-.075-.05-.1-.029-.03-.068-.048-.11-.05h-2.08c-.04 0-.079.014-.11.04-.03.025-.048.061-.05.1v1.95c0 .04.02.08.05.1.03.04.07.05.11.05h2.08c.04 0 .08-.01.11-.04.03-.025.048-.061.05-.1zm16.8 0v1.94c0 .09-.07.15-.16.15h-2.08c-.09 0-.16-.06-.16-.15v-1.94c0-.08.07-.15.16-.15h2.08c.09 0 .16.06.16.15zm-2.4-2.25v1.95c0 .08-.07.15-.16.15h-2.08c-.09 0-.16-.07-.16-.15v-1.95c0-.08.07-.15.16-.15h2.08c.09 0 .16.07.16.15zm4.8 0v1.95c0 .08-.07.15-.16.15h-2.08c-.09 0-.16-.07-.16-.15v-1.95c0-.08.07-.15.16-.15h2.08c.09 0 .16.07.16.15zm-4.8 4.5v1.94c0 .08-.07.15-.16.15h-2.08c-.09 0-.16-.07-.16-.15v-1.95c0-.08.07-.15.16-.15h2.08c.09 0 .16.07.16.15zm4.8 0v1.94c0 .08-.07.15-.16.15h-2.08c-.09 0-.16-.07-.16-.15v-1.95c0-.08.07-.15.16-.15h2.08c.09 0 .16.07.16.15zm-8.4-4.5v1.95c0 .08-.07.15-.16.15h-2.08c-.09 0-.16-.07-.16-.15v-1.95c0-.08.07-.15.16-.15h2.08c.09 0 .16.07.16.15zm0 4.5v1.94c0 .08-.07.15-.16.15h-2.08c-.09 0-.16-.07-.16-.15v-1.95c0-.08.07-.15.16-.15h2.08c.09 0 .16.07.16.15zm-2.4-.3c-.005.084-.075.15-.16.15h-2.24v2.08c0 .04-.02.08-.05.11-.031.026-.07.04-.11.04h-2.08c-.044.003-.087-.012-.12-.04-.026-.027-.041-.063-.04-.1v-6.45c0-.04.01-.08.04-.1.032-.032.075-.05.12-.05h2.08c.04 0 .08.02.11.05.03.02.05.06.05.1v2.1h2.24c.04 0 .08.01.11.04s.05.07.05.1v1.95z"/></svg>