<svg height="48" viewBox="0 0 48 48" width="48" xmlns="http://www.w3.org/2000/svg"><path d="m24 36.586-3.293-3.293-1.414 1.414 4 4a.997.997 0 0 0 1.414 0l8-8-1.414-1.414zm19.587 3.847-12.425-17.863a1 1 0 0 1 -.179-.571v-14.999a1 1 0 0 1 1-1h.017a1.001 1.001 0 0 0 0-2h-10a1.001 1.001 0 0 0 0 2 1 1 0 0 1 1 1v15a1 1 0 0 1 -.179.57l-12.425 17.864a2.23 2.23 0 0 0 -.149 2.348 2.24 2.24 0 0 0 2.013 1.218h29.464c.861 0 1.613-.456 2.012-1.22a2.23 2.23 0 0 0 -.149-2.347m-35.312-.223a4.3 4.3 0 0 1 .478-.92l5.247-7.54v-22.751a1 1 0 0 1 1-1 1.001 1.001 0 0 0 0-2h-10a1.001 1.001 0 0 0 0 2 1 1 0 0 1 1 1v28.204c0 1.399.948 2.625 2.275 3.007m37.234 3.497a4.26 4.26 0 0 1 -3.785 2.293h-29.464a4.26 4.26 0 0 1 -3.785-2.292 4.3 4.3 0 0 1 -.451-1.49 5.16 5.16 0 0 1 -4.024-5.014v-27.375a3.01 3.01 0 0 1 -2-2.83c0-1.653 1.346-3 3-3h10c1.654 0 3 1.347 3 3a3.01 3.01 0 0 1 -2 2.83v19.045l5-7.187v-13.858a3.01 3.01 0 0 1 -2-2.83c0-1.653 1.346-3 3-3h10c1.654 0 3 1.347 3 3 0 1.31-.844 2.427-2.017 2.836v13.852l12.246 17.603a4.26 4.26 0 0 1 .28 4.416m-38.5-21.116 1.584-1.584-1.584-1.585 1.414-1.414 1.584 1.585 1.584-1.585 1.414 1.414-1.584 1.585 1.584 1.584-1.414 1.414-1.584-1.584-1.584 1.584z" fill="#01a88d" fill-rule="evenodd"/></svg>