<svg height="18" viewBox="0 0 18 18" width="18" xmlns="http://www.w3.org/2000/svg"><path d="m17.841 14.881c-.165.729-1.071 1.438-2.706 1.994a22.34 22.34 0 0 1 -12.544.018c-1.508-.534-2.322-1.209-2.449-1.906-.022-.123 0-2.034 0-2.034l17.733-.164s-.013 2.002-.034 2.092" fill="#5ea0ef"/><path d="m9.028 15.982c4.9-.049 8.859-1.462 8.842-3.156s-4.003-3.027-8.903-2.978-8.859 1.462-8.842 3.156 4.003 3.027 8.903 2.978" fill="#50e6ff"/><path d="m15.679.217h-13.351a.48.48 0 0 0 -.479.479v2.955a.48.48 0 0 0 .479.479h13.352a.48.48 0 0 0 .479-.479v-2.956a.48.48 0 0 0 -.479-.479z" fill="#b596f5"/><path d="m14.764.901h-.592a.24.24 0 0 0 -.239.239v.592c0 .132.107.239.239.239h.592a.24.24 0 0 0 .239-.239v-.592a.24.24 0 0 0 -.239-.239m0 1.475h-.592a.24.24 0 0 0 -.239.239v.592c0 .132.107.239.239.239h.592a.24.24 0 0 0 .239-.239v-.592a.24.24 0 0 0 -.239-.239" fill="#f2f2f2"/><path d="m15.679 4.854h-13.351a.48.48 0 0 0 -.479.479v2.955a.48.48 0 0 0 .479.479h13.352a.48.48 0 0 0 .479-.479v-2.955a.48.48 0 0 0 -.479-.479z" fill="#9266e6"/><path d="m14.764 5.538h-.592a.24.24 0 0 0 -.239.239v.592c0 .132.107.239.239.239h.592a.24.24 0 0 0 .239-.239v-.592a.24.24 0 0 0 -.239-.239m0 1.474h-.592a.24.24 0 0 0 -.239.239v.592c0 .132.107.239.239.239h.592a.24.24 0 0 0 .239-.239v-.592a.24.24 0 0 0 -.239-.239" fill="#f2f2f2"/><path d="m15.679 9.49h-13.351a.48.48 0 0 0 -.479.479v2.955a.48.48 0 0 0 .479.479h13.352a.48.48 0 0 0 .479-.479v-2.955a.48.48 0 0 0 -.479-.479z" fill="#552f99"/><path d="m14.764 10.174h-.592a.24.24 0 0 0 -.239.239v.592c0 .132.107.239.239.239h.592a.24.24 0 0 0 .239-.239v-.592a.24.24 0 0 0 -.239-.239m0 1.474h-.592a.24.24 0 0 0 -.239.239v.592c0 .132.107.239.239.239h.592a.24.24 0 0 0 .239-.239v-.592a.24.24 0 0 0 -.239-.239" fill="#f2f2f2"/></svg>