<svg fill="#333" viewBox="0 0 24 24" xmlns="http://www.w3.org/2000/svg"><path d="m12.8602 18.3991c0-3.0761 2.4938-5.5699 5.5699-5.5699s5.5699 2.4938 5.5699 5.5699c0 3.0762-2.4938 5.5699-5.5699 5.5699s-5.5699-2.4937-5.5699-5.5699zm0-12.7982c0-3.0762 2.4938-5.57 5.5699-5.57s5.5699 2.4939 5.5699 5.5701v5.0129a.557.557 0 0 1 -.557.5569h-10.0258a.557.557 0 0 1 -.557-.5569zm-1.7204 12.7982c0 3.0762-2.4937 5.5699-5.5699 5.5699s-5.5699-2.4937-5.5699-5.5699v-5.0129a.557.557 0 0 1 .557-.557h10.0258a.557.557 0 0 1 .557.557z"/></svg>