<svg viewBox="0 0 128 128" xmlns="http://www.w3.org/2000/svg"><path d="m81.98 26.121-17.98 10.383 17.98 10.379zm0 0" fill="#4695eb"/><path d="m46.02 26.121v20.766l17.98-10.383zm0 0" fill="#ff004a"/><path d="m81.98 46.887-17.98-10.383-17.98 10.379 17.98 10.387zm0 0" fill="#091313"/><path d="m27.059 58.965 17.98 10.379v-20.762zm0 0" fill="#4695eb"/><path d="m45.04 90.11 17.983-10.383-17.983-10.383zm0 0" fill="#ff004a"/><path d="m45.04 48.582v20.762l17.983 10.383v-20.762zm0 0" fill="#091313"/><path d="m82.96 90.11v-20.767l-17.982 10.384zm0 0" fill="#4695eb"/><path d="m100.941 58.965-17.98-10.383v20.762zm0 0" fill="#ff004a"/><path d="m64.977 79.727 17.983-10.383v-20.762l-17.983 10.383zm0 0" fill="#091313"/><path d="m103.023 5.602h-78.046c-10.66 0-19.375 8.714-19.375 19.375v78.046c0 10.66 8.714 19.375 19.375 19.375h53.449l-14.426-35.043-10.469 22.13h-28.554c-3.5 0-6.461-2.962-6.461-6.462v-78.046c0-3.5 2.96-6.461 6.46-6.461h78.051c3.5 0 6.461 2.96 6.461 6.46v78.047c0 3.5-2.96 6.461-6.46 6.461h-16.938l5.316 12.914h11.617c10.66 0 19.375-8.714 19.375-19.375v-78.046c0-10.66-8.714-19.375-19.375-19.375zm0 0" fill="#4695eb"/></svg>