<svg xmlns="http://www.w3.org/2000/svg" width="18" height="18" viewBox="0 0 18 18">
  <defs>
    <mask id="wko">
      <rect width="18" height="18" fill="white"/>
      <path fill="black" d="m3.633 2.1.742-.846a.52.52 0 0 1 .393-.179h10.846a.52.52 0 0 1 .522.522v13.786a.52.52 0 0 1-.171.386l-1.158 1.055z"/>
      <rect width="6.005" height="2.382" x="6.028" y="6.2" fill="black" rx=".27"/>
    </mask>
  </defs>
  <g fill="currentColor" mask="url(#wko)">
    <path fill="currentColor" d="M2.659 2.109 3.87.7a.6.6 0 0 1 .444-.2h11.613a.813.813 0 0 1 .888.831v14.5a.6.6 0 0 1-.192.435l-1.308 1.191H3.444l-.8-.337z"/>
    <path fill="currentColor" d="M14.736 2.093H2.7a.056.056 0 0 0-.056.056v14.966a.385.385 0 0 0 .385.385h11.71a.385.385 0 0 0 .385-.385V2.478a.386.386 0 0 0-.388-.385"/>
  </g>
</svg>