<svg height="18" viewBox="0 0 18 18" width="18" xmlns="http://www.w3.org/2000/svg" xmlns:xlink="http://www.w3.org/1999/xlink"><linearGradient id="a" gradientUnits="userSpaceOnUse" x1="8.881" x2="8.881" y1="17.5" y2="2.093"><stop offset="0" stop-color="#0078d4"/><stop offset=".817" stop-color="#5ea0ef"/></linearGradient><path d="m2.659 2.109 1.211-1.409a.6.6 0 0 1 .444-.2h11.613a.813.813 0 0 1 .888.831v14.5a.6.6 0 0 1 -.192.435l-1.308 1.191h-11.871l-.8-.337z" fill="#005ba1"/><path d="m3.633 2.1.742-.846a.52.52 0 0 1 .393-.179h10.846a.52.52 0 0 1 .522.522v13.786a.52.52 0 0 1 -.171.386l-1.158 1.055z" fill="#fff"/><path d="m14.736 2.093h-12.036a.056.056 0 0 0 -.056.056v14.966a.385.385 0 0 0 .385.385h11.71a.385.385 0 0 0 .385-.385v-14.637a.386.386 0 0 0 -.388-.385" fill="url(#a)"/><rect fill="#fff" height="2.382" rx=".27" width="6.005" x="6.028" y="6.2"/><g fill="#005ba1"><rect height="1.441" rx=".59" width="2.448" x="1.185" y="3.608"/><rect height="1.441" rx=".59" width="2.448" x="1.185" y="6.346"/><rect height="1.441" rx=".59" width="2.448" x="1.185" y="9.084"/><rect height="1.441" rx=".59" width="2.448" x="1.185" y="11.821"/><rect height="1.441" rx=".59" width="2.448" x="1.185" y="14.559"/></g></svg>