<svg height="48" viewBox="0 0 48 48" width="48" xmlns="http://www.w3.org/2000/svg"><path d="m2.042 2v12.473l11.018.024 2.665 2.633 30.242-.051-.016-12.472h-29.414l-2.649-2.607zm11.84 10.499-9.839-.022v-8.477h9.027l2.649 2.607h28.234l.012 8.475-27.419.045zm24.058-3.045-1.892-1.898-1.417 1.412 1.895 1.9-1.902 1.902 1.414 1.414 1.9-1.899 1.9 1.907 1.416-1.412-1.902-1.909 1.901-1.902-1.414-1.414zm-35.94 6.514v12.5h11.061l2.649 2.622 30.25-.014-.015-12.459-29.417-.01-2.58-2.639zm2 2h9.106l2.581 2.639 28.26.01.012 8.459-27.426.014-2.65-2.622h-9.883zm31.419 7.308-1.12-1.118-1.414 1.414 2.412 2.413 5.932-4.962-1.283-1.533zm-33.419 4.674v12.501l11.084-.013 2.657 2.584 30.21.052.009-12.488-29.428.001-2.713-2.637zm2 2h9.007l2.712 2.638 28.24-.003-.006 8.485-27.398-.046-2.66-2.586-9.895.011zm31.179 7.261-1.119-1.118-1.414 1.414 2.412 2.413 5.932-4.962-1.284-1.534z" fill="#e7157b" fill-rule="evenodd"/></svg>