<svg height="48" viewBox="0 0 48 48" width="48" xmlns="http://www.w3.org/2000/svg"><path d="m4 33.439 17.017 10.399 5.983-3.418v-3.42c-1.227 0-2.577-.257-3.566-1.132l.013.027-2 1a1 1 0 0 1 -.962-.038l-10-6a1 1 0 0 1 -.485-.857v-13a1 1 0 0 1 .47-.848l7.53-4.706v-6.642l-14 8.75zm20-1.44c0 1.559.363 3 3 3v-3a1 1 0 0 1 1-1h12a1 1 0 0 1 1 1v3c2.131 0 3-.58 3-2 0-2.822-2.504-2.993-3.006-3a1.004 1.004 0 0 1 -.994-.999 2.56 2.56 0 0 0 -1.447-2.104c-1.318-.661-2.833.8-2.849.815a1 1 0 0 1 -1.089.21 1 1 0 0 1 -.615-.921c0-1.654-1.346-3-3-3s-3 1.346-3 3v1a1 1 0 0 1 -.758.97c-.029.008-3.242.854-3.242 3.03m9-15v5.433a5.02 5.02 0 0 1 2.697 2.854c.867-.457 2.05-.802 3.303-.364v-11.35l-15-8.824v6.663l8.485 4.714a1 1 0 0 1 .515.874m6 16h-10v11h4v-2h2v2h4zm-37 1v-21a1 1 0 0 1 .47-.847l16-10a1 1 0 0 1 1.014-.026c.319.176.516.51.516.874v9a1 1 0 0 1 -.47.848l-7.53 4.705v11.88l9.044 5.426 1.301-.65c-.216-.607-.345-1.331-.345-2.21 0-1.181.459-2.104 1.088-2.82l-4.088-5.18v6h-2v-13h2v5.24l4.463-5.24h2.245l-5.058 6.34 3.877 4.652a9 9 0 0 1 1.473-.717v-.275c0-2.757 2.243-5 5-5v-4.412l-8.485-4.714a1 1 0 0 1 -.515-.874v-9a.999.999 0 0 1 1.507-.862l17 10c.305.18.493.508.493.862v13.35c.479.6.736 1.23.863 1.727 1.772.3 4.137 1.56 4.137 4.923 0 1.494-.649 4-5 4v8a1 1 0 0 1 -1 1h-12a1 1 0 0 1 -1-1v-2.277l-5.504 3.145a1 1 0 0 1 -1.017-.014l-18-11a1 1 0 0 1 -.479-.854m33 7h2v-2h-2zm-4 0h2v-2h-2zm0-4h2v-2h-2zm4 0h2v-2h-2z" fill="#ed7100" fill-rule="evenodd"/></svg>