<svg height="18" viewBox="0 0 18 18" width="18" xmlns="http://www.w3.org/2000/svg" xmlns:xlink="http://www.w3.org/1999/xlink"><linearGradient id="a" gradientTransform="matrix(1 0 0 -1 0 791.516)" gradientUnits="userSpaceOnUse" x1="13.184" x2="13.295" y1="785.911" y2="775.606"><stop offset="0" stop-color="#a67af4"/><stop offset="1" stop-color="#773adc"/></linearGradient><linearGradient id="b" gradientTransform="matrix(1 0 0 -1 0 791.516)" gradientUnits="userSpaceOnUse" x1="5.96" x2="6.138" y1="786.83" y2="770.358"><stop offset="0" stop-color="#32d4f5"/><stop offset="1" stop-color="#198ab3"/></linearGradient><linearGradient id="c" gradientUnits="userSpaceOnUse" x1="6.083" x2="6.203" y1="14.789" y2="3.648"><stop offset="0" stop-color="#0078d4"/><stop offset="1" stop-color="#5ea0ef"/></linearGradient><path d="m17.659 15.318h-8.742c-.281 0-.444-.444-.29-.68l3.011-4.389a.3.3 0 0 0 .063-.2v-2.9a.18.18 0 0 0 -.172-.173h-.163a.345.345 0 0 1 -.345-.344v-.156a.345.345 0 0 1 .345-.344h3.834a.344.344 0 0 1 .344.344v.155a.344.344 0 0 1 -.344.344h-.163a.17.17 0 0 0 -.173.173v2.91a.33.33 0 0 0 .064.2l3.01 4.38c.162.227-.007.68-.279.68" fill="url(#a)"/><path d="m9.924 14.139 2.285-3.339a.86.86 0 0 0 .182-.471v-1.341a.263.263 0 0 1 .263-.263h1.3a.263.263 0 0 1 .263.263v1.433a.56.56 0 0 0 .1.318l2.34 3.4a.21.21 0 0 1 -.163.318h-6.343a.2.2 0 0 1 -.227-.318" fill="#552f99"/><path d="m11.723 16.484h-11.272c-.363 0-.573-.573-.374-.877l3.882-5.659a.4.4 0 0 0 .082-.258v-3.741a.234.234 0 0 0 -.223-.223h-.21a.444.444 0 0 1 -.444-.444v-.2a.444.444 0 0 1 .444-.444h4.946a.444.444 0 0 1 .446.445v.2a.444.444 0 0 1 -.445.444h-.21a.22.22 0 0 0 -.222.223v3.75a.42.42 0 0 0 .081.257l3.883 5.648c.197.295-.013.879-.364.879" fill="url(#b)"/><path d="m1.749 14.964 2.946-4.3a1.1 1.1 0 0 0 .234-.608v-1.734a.34.34 0 0 1 .339-.339h1.684a.34.34 0 0 1 .339.339v1.848a.7.7 0 0 0 .129.409l3.017 4.385a.27.27 0 0 1 -.088.37.3.3 0 0 1 -.123.039h-8.185a.257.257 0 0 1 -.292-.409" fill="url(#c)"/><g fill="#0078d4"><circle cx="5.429" cy="4.313" r=".856"/><circle cx="7.197" cy="2.106" r=".59"/><circle cx="6.756" cy="6.487" r=".59"/></g>​</svg>