<svg viewBox="0 0 24 24" xmlns="http://www.w3.org/2000/svg"><path d="m8.32 0c-3.922 0-5.882 0-7.1 1.219-1.22 1.219-1.22 3.18-1.22 7.101v7.36c0 3.922 0 5.882 1.219 7.101s3.18 1.219 7.101 1.219h7.36c3.922 0 5.882 0 7.101-1.219s1.219-3.18 1.219-7.101v-7.36c0-3.922 0-5.882-1.219-7.101s-3.18-1.219-7.101-1.219zm.41 7.28h7.83a.16.16 0 0 1 .16.16v7.83h-3.87v-3.71a.41.41 0 0 0 -.313-.398l-.086-.012h-3.72v-3.87zm-.5.25v3.87h-3.677a.08.08 0 0 1 -.057-.136l3.734-3.735zm.25 4.12h3.87v3.87h-3.71a.16.16 0 0 1 -.16-.16zm4.12 4.12h3.87l-3.734 3.734a.08.08 0 0 1 -.136-.057z"/></svg>