<svg height="48" viewBox="0 0 48 48" width="48" xmlns="http://www.w3.org/2000/svg"><path d="m42.083 24.04-8.615.376-3.51-11.701a1.01 1.01 0 0 0 -1.087-.705l-7.25.946.336-7.03 21.939-1.83zm-20.558-9.055 6.76-.882 3.122 10.402-10.356.45zm12.324 17.658-14.12 11.295-15.627-2.758 2.802-24.288 12.607-1.645-.511 10.708a1 1 0 0 0 1 1.047l.043-.001 11.957-.521zm11.86-30.346a.98.98 0 0 0 -.792-.292l-24 2c-.5.042-.892.448-.916.95l-.394 8.264-13.736 1.79a1 1 0 0 0 -.864.878l-3 26a1 1 0 0 0 .819 1.1l17 3q.087.015.174.015a1 1 0 0 0 .625-.22l15-12c.318-.254.45-.677.333-1.067l-1.897-6.323 8.982-.392a1 1 0 0 0 .953-.91l2-22a1 1 0 0 0 -.286-.794" fill="#dd344c" fill-rule="evenodd"/></svg>