<svg fill="#343434" viewBox="0 0 24 24" xmlns="http://www.w3.org/2000/svg"><path d="m8.963 12a2.854 2.854 0 0 1 2.855-2.855 2.863 2.863 0 0 1 2.856 2.855 2.863 2.863 0 0 1 -2.856 2.856 2.863 2.863 0 0 1 -2.855-2.856m2.855-12c-5.603 0-10.296 3.84-11.628 9.025-.01.036-.01.07-.01.12 0 .313.252.576.575.576h4.835c.23 0 .433-.13.517-.333.997-2.16 3.18-3.672 5.712-3.672a6.293 6.293 0 0 1 6.286 6.287c0 3.47-2.82 6.29-6.29 6.29a6.28 6.28 0 0 1 -5.71-3.673.59.59 0 0 0 -.517-.336h-4.833a.576.576 0 0 0 -.575.576c0 .037.014.072.014.12 1.32 5.18 6.02 9.02 11.624 9.02 6.624 0 12-5.375 12-12 0-6.623-5.376-12-12-12"/></svg>