<svg xmlns="http://www.w3.org/2000/svg" width="64" height="64" viewBox="0 0 64 64"><title>Icon-Architecture/48/Arch_Amazon-Interactive-Video-Service_48</title><g id="Icon-Architecture/48/Arch_Amazon-Interactive-Video-Service_48" fill="none" fill-rule="evenodd" stroke="none" stroke-width="1"><g id="Icon-Architecture-BG/48/Media-Services" fill="#ed7100"><path id="Rectangle" d="M0 0h64v64H0z"/></g><g id="Icon-Service/48/Amazon-Interactive-Video-Service_48" fill="#fff" transform="translate(10 10)"><path id="Amazon-Interactive-Video-Service_Icon_48_Squid" d="M2 26.493v-8.637l7.479 4.318zm10.479-4.319a1 1 0 0 0-.5-.866L1.5 15.258a.998.998 0 0 0-1.5.866v12.101a1 1 0 0 0 1.5.866l10.479-6.05c.31-.179.5-.509.5-.867M28 41.618V32.98l7.479 4.32zm9.979-5.186L27.5 30.382a.998.998 0 0 0-1.5.866V43.35a1 1 0 0 0 1.5.867l10.479-6.05a1 1 0 0 0 0-1.734M42 26.493l-7.479-4.318L42 17.856zm-24 3.022v-14.68l12.714 7.34zm-2-18.147L8.521 7.05 16 2.732zm0 30.252-7.479-4.318L16 32.984zm27.5-26.362a1 1 0 0 0-1 0l-9.883 5.706L18 12.525V1a.998.998 0 0 0-1.5-.866L6.021 6.184a1 1 0 0 0 0 1.732L16 13.678v16.997l-9.979 5.761a1 1 0 0 0 0 1.732L16.5 44.22a1 1 0 0 0 1 0 1 1 0 0 0 .5-.867V31.825l14.617-8.439 9.883 5.705a.998.998 0 0 0 1.5-.866v-12.1a1 1 0 0 0-.5-.867M28 2.732l7.479 4.318L28 11.368zm-1.5 11.235a1 1 0 0 0 1 0l10.479-6.05a1 1 0 0 0 0-1.732L27.5.134A.998.998 0 0 0 26 1v12.1a1 1 0 0 0 .5.867"/></g></g></svg>