<svg xmlns="http://www.w3.org/2000/svg" id="svg3643" width="97" height="152" viewBox="0 0 97 152"><defs id="defs3647"><clipPath id="clipPath3003-1" clipPathUnits="userSpaceOnUse"><path id="path3005-6" d="M0 0h595.276v841.89H0z"/></clipPath></defs><g id="g2999" transform="matrix(1.25 0 0 -1.25 -606.563 1019.8)"><g id="g3001" clip-path="url(#clipPath3003-1)"><g id="g3007" transform="translate(539.611 725.488)"><path id="path3009" d="M0 0h-10.023l.015.158c.006.057.63 5.691 8.693 5.966.402.011.722-.105.951-.345.399-.414.367-1.048.364-1.101zm9.749 7.866s-.009.091-.009.172c0 .065.007.12.026.123L9.5 8.014s-.756-.419-.76-.42l-.745-.337c-.095-.046-.216-.101-.235-.665l-.006-.143v-6.54H2.053l.001 5.875c0 .897-.214 1.535-.655 1.949q-.67.63-2.054.546c-.051.003-5.068.164-9.028-3.111l-.744-.847-.257-.333-.147.392c-.146.384-.385.763-.77 1.223l-.25.272-.206.177c.03-.274.09-.927.09-1.807V.003L-15.179 0v14.62c0 .236-.021.315.014.318l-.273-.15-.759-.422-.745-.338c-.1-.045-.237-.107-.237-.786L-17.18.112c-.023-.738.006-1.086.387-1.581.201-.263.578-.752 1.662-.752h3.075l-.002-.223c-.013-1.091-.585-2.949-.597-2.986l-.044-.123c.183.112.457.309.777.597.882 1.047 1.302 1.985 1.498 2.587l.048.148H2.929l4.562.003c.01-.002.898-.054 1.456.359.603.449.805.802.805 2.003 0 0-.005 4.211-.005 5.414z" fill="#807f83" fill-opacity="1" fill-rule="nonzero" stroke="none"/></g><g id="g3011" transform="translate(509.458 732.203)"><path id="path3013" d="m0 0 .003-.001-.004.002zm-2.102-6.661v4.699c0 .678.137.741.237.787l.745.338.992.549a1 1 0 0 0 .024-.283l.002-6.554c0-.468-.243-.997-.619-1.347-.542-.502-1.138-.501-1.531-.498l-11.039-.003a3.52 3.52 0 0 0-2.872 1.778c-.433.745-.65 1.598-.65 2.55q-.001 1.004.322 2.149c.171.568.328.809.437.923.008-.063.015-.121.029-.215.002-.016.287-2.223.794-3.151.882-2.005 3.456-1.867 3.481-1.863-.024-.002 9.504-.004 9.504-.004h.144z" fill="#807f83" fill-opacity="1" fill-rule="nonzero" stroke="none"/></g><g id="g3015" transform="translate(519.223 740.299)"><path id="path3017" d="M0 0v.001zm-2.101-2.038-.001.075c0 .68.131.739.237.787l.745.338c.004.001.922.51.984.545a.8.8 0 0 0 .033-.284v-7.585c0-6.82-3.16-8.77-3.411-8.915h-3.009c1.037.699 1.929 1.48 2.603 2.355l.052.068-.002.121-3.58 7.963c-.009.018-.497 1.111-.497 2.362 0 .862.253 1.789 1.031 2.504l.014-.181c.071-.749.26-2.097.784-3.149.023-.044 2.202-4.219 3.063-6.317l.261-.792.142-.431.135.422.068.219c.292.93.341 1.635.347 1.964h.001l.003.091v.144l-.003.001z" fill="#807f83" fill-opacity="1" fill-rule="nonzero" stroke="none"/></g><g id="g3019" transform="translate(498.448 711.564)"><path id="path3021" d="M0 0c.529.061.922.158 1.112.35.192.191.171.583.045.881-.403.943-1.489 1.63-2.876 1.63-2.123 0-3.621-1.367-3.621-3.459zm1.211-1.488-6.558-.672c.259-2.07 1.804-2.845 3.45-2.849h4.203c.599 0 .996-.403.996-.979l-.001-.84h-5.24c-2.923 0-5.378 1.901-5.378 5.796 0 3.32 2.322 5.577 5.62 5.577 2.369 0 4.293-1.447 4.816-3.629.316-1.326-.4-2.234-1.908-2.404" fill="#807f83" fill-opacity="1" fill-rule="nonzero" stroke="none"/></g><g id="g3023" transform="translate(522.545 716.103)"><path id="path3025" d="M0 0c.623 0 1.07-.289 1.07-.912 0-.625-.447-.914-1.07-.914h-4.569c-.958-.073-1.079-1.035-1.001-1.629a.73.73 0 0 1 .251-.469c.299-.253.816-.343 1.353-.436l3.475-.611c1.827-.334 2.517-1.261 2.517-2.91 0-2.563-1.58-3.511-4.054-3.511H-7.8l.001.914c0 .622.424.912 1.071.912h4.566c1.783 0 2.242.548 2.24 1.529-.002.889-.247 1.215-1.438 1.416l-3.52.58c-1.782.289-2.556 1.226-2.652 2.421C-7.673-1.867-6.947 0-4.545 0z" fill="#807f83" fill-opacity="1" fill-rule="nonzero" stroke="none"/></g><g id="g3027" transform="translate(533.156 708.8)"><path id="path3029" d="M0 0c0-1.938-1.091-2.63-2.943-2.63-1.67 0-2.627.601-2.627 1.939 0 .994.845 1.637 1.855 1.815 1.009.179 2.547.247 3.715.515zm1.959 3.297c0 1.983-.535 4.011-3.474 4.011h-4.123c-.647 0-1.07-.29-1.07-.913 0-.625.423-.915 1.07-.915h3.833C-.446 5.48 0 5.167 0 4.211V3.92c-.079-.584-.739-.722-1.07-.8-2.753-.647-6.461.063-6.461-3.901 0-2.115 1.803-3.364 4.278-3.364.028 0 2.484-.121 3.389 1.119 0 0 0-.038.006-.107.061-.625.358-.954.997-.954h.814z" fill="#807f83" fill-opacity="1" fill-rule="nonzero" stroke="none"/></g><g id="g3031" transform="translate(548.044 708.8)"><path id="path3033" d="M0 0c0-1.938-1.092-2.63-2.943-2.63-1.67 0-2.628.601-2.628 1.939 0 .994.846 1.637 1.855 1.815 1.009.179 2.547.247 3.716.515zm1.96 3.297c0 1.983-.536 4.011-3.476 4.011h-4.123c-.646 0-1.069-.29-1.069-.913 0-.625.423-.915 1.069-.915h3.834C-.446 5.48 0 5.167 0 4.211V3.92c-.08-.584-.738-.722-1.07-.8-2.754-.647-6.461.063-6.461-3.901 0-2.115 1.803-3.364 4.278-3.364.028 0 2.484-.121 3.388 1.119 0 0 0-.038.007-.107.06-.625.357-.954.996-.954h.816z" fill="#807f83" fill-opacity="1" fill-rule="nonzero" stroke="none"/></g><g id="g3035" transform="translate(538.998 719.194)"><path id="path3037" d="M0 0h-1.097c-.952 0-.864-.863-.864-.863v-10.581l-.005-3.032L0-14.481z" fill="#807f83" fill-opacity="1" fill-rule="nonzero" stroke="none"/></g><g id="g3039" transform="translate(508.142 706.419)"><path id="path3041" d="M0 0c-1.492 0-2.047.067-2.047 1.156v6.706h1.735c.623 0 1.069.289 1.069.912 0 .622-.446.911-1.069.911h-1.735v3.024l-.837.002a4 4 0 0 1-.408-.024c-.794-.085-.715-.856-.715-.856V9.685h-.534c-.621 0-1.07-.289-1.07-.911s.449-.912 1.07-.912h.534V.735c0-2.403 1.671-2.434 4.007-2.434.386 0 1.157.003 1.157.003l-.001.783C1.156-.357.712 0 0 0" fill="#807f83" fill-opacity="1" fill-rule="nonzero" stroke="none"/></g><g id="g3043" transform="translate(556.664 706.419)"><path id="path3045" d="M0 0c-1.492 0-2.046.067-2.046 1.156v6.706h1.734c.624 0 1.069.289 1.069.912 0 .622-.445.911-1.069.911h-1.734v3.024l-.837.002a4 4 0 0 1-.409-.024c-.793-.085-.714-.856-.714-.856V9.685h-.535c-.62 0-1.068-.289-1.068-.911s.448-.912 1.068-.912h.535V.735c0-2.403 1.67-2.434 4.006-2.434l1.158.003-.001.783C1.157-.357.712 0 0 0" fill="#807f83" fill-opacity="1" fill-rule="nonzero" stroke="none"/></g><g id="g3047" transform="translate(512.952 704.715)"><path id="path3049" d="m0 0-.004 11.382-1.097.006c-.738-.011-.864-.474-.864-.873V0z" fill="#807f83" fill-opacity="1" fill-rule="nonzero" stroke="none"/></g><g id="g3051" transform="translate(511.753 716.964)"><path id="path3053" d="M0 0c.477 0 .726-.014.99.232.208.192.209.534.209.926l-.004 1.001H.094c-.74-.01-.861-.468-.861-.867L-.77-.001z" fill="#807f83" fill-opacity="1" fill-rule="nonzero" stroke="none"/></g><g id="g3055" transform="translate(491.326 799.3)"><path id="path3057" d="M0 0c-2.891-3.764-2.962-9.958-1.041-17.63 2.696-10.811 7.356-21.733 9.527-29.028 2.501-7.459 2.517-11.287 3.487-11.787a.74.74 0 0 1 .345-.071c1.274 0 4.487 1.995 11.284 4.051 7.201 2.453 18.806 4.982 29.185 9.035 7.306 2.86 12.299 6.472 13.74 10.964-2.321-3.139-6.566-5.776-12.174-7.969-10.381-4.054-21.982-6.584-29.187-9.034-6.794-2.059-10.002-4.055-11.28-4.055a.76.76 0 0 0-.35.075c-.969.5-.985 4.321-3.489 11.788C7.875-36.372 3.221-25.447.521-14.635-.952-8.742-1.253-3.719 0 0m20.396-5.662c-1.669 0-3.178-.209-4.476-.643-5.058-1.555-7.06-6.276-6.669-12.843.395-6.558 2.426-13.365 3.935-18.314 1.662-5.024 2.797-8.193 4.86-9.254.621-.32 1.346-.462 2.198-.462 1.977 0 4.625.768 8.163 1.855 4.907 1.634 11.635 3.921 17.213 7.401 5.579 3.476 8.275 7.845 6.616 12.869-1.518 4.945-7.381 10.559-15.409 14.701-5.91 3.052-11.784 4.69-16.431 4.69m1.425-39.9c-1.157 0-2.145.186-2.9.578-3.657 1.891-6.555 11.02-6.504 20.404.024 6.126 3.905 9.501 9.721 9.501 3.105 0 6.766-.965 10.683-2.988 11.251-5.808 14.146-14.939 6.508-20.406-6.057-4.346-13.05-7.089-17.508-7.089" fill="#c2cd23" fill-opacity="1" fill-rule="nonzero" stroke="none"/></g><g id="g3059" transform="translate(503.69 806.457)"><path id="path3061" d="M0 0c-2.198 0-4.143-.269-5.765-.821-3.427-1.039-5.555-3.235-6.599-6.337 1.185 1.541 2.844 2.676 5.032 3.337 1.629.556 3.578.824 5.783.824 7.547 0 18.08-3.155 28.954-8.769 14.055-7.257 24.43-16.431 26.597-23.721.743-2.209.763-4.251.161-6.137 1.972 2.669 2.554 5.7 1.404 9.131-2.166 7.288-12.545 16.46-26.597 23.717C18.089-3.154 7.546 0 0 0" fill="#78a22f" fill-opacity="1" fill-rule="nonzero" stroke="none"/></g><g id="g3063" transform="translate(503.69 806.457)"><path id="path3065" d="M0 0c-2.198 0-4.143-.269-5.765-.821-3.427-1.039-5.555-3.235-6.599-6.337 1.185 1.541 2.844 2.676 5.032 3.337 1.629.556 3.578.824 5.783.824 7.547 0 18.08-3.155 28.954-8.769 14.055-7.257 24.43-16.431 26.597-23.721.743-2.209.763-4.251.161-6.137 1.972 2.669 2.554 5.7 1.404 9.131-2.166 7.288-12.545 16.46-26.597 23.717C18.089-3.154 7.546 0 0 0" fill="#b3c98b" fill-opacity="1" fill-rule="nonzero" stroke="none"/></g><g id="g3067" transform="translate(502.141 803.46)"><path id="path3069" d="M0 0c-2.205 0-4.154-.268-5.783-.825-2.188-.66-3.848-1.795-5.032-3.336-1.253-3.719-.952-8.742.52-14.635C-7.594-29.608-2.94-40.533-.768-47.821c2.504-7.468 2.52-11.289 3.489-11.789a.75.75 0 0 1 .349-.075c1.278 0 4.486 1.997 11.281 4.055 7.204 2.45 18.805 4.98 29.187 9.035 5.608 2.192 9.853 4.83 12.174 7.968.601 1.886.582 3.928-.161 6.136C53.384-25.2 43.008-16.026 28.954-8.769 18.08-3.155 7.547 0 0 0m9.429-51.339c-.852 0-1.578.143-2.198.463-2.064 1.061-3.198 4.23-4.86 9.254C.862-36.674-1.17-29.867-1.564-23.308c-.391 6.567 1.61 11.287 6.669 12.842 1.298.434 2.807.643 4.475.643 4.647 0 10.522-1.638 16.432-4.69 8.028-4.142 13.89-9.756 15.409-14.7 1.659-5.025-1.037-9.393-6.617-12.87-5.577-3.48-12.306-5.767-17.213-7.4-3.537-1.088-6.186-1.856-8.162-1.856" fill="#78a22f" fill-opacity="1" fill-rule="nonzero" stroke="none"/></g><g id="g3071" transform="translate(552.786 727.632)"><path id="path3073" d="m0 0-.002 10.769c.004.681.133.74.237.788l.746.337 1.034.574c-.016-.002-.02-.019-.02-.059 0-.048.005-.125.005-.246V5.527l.002-.002v-9.898H0z" fill="#807f83" fill-opacity="1" fill-rule="nonzero" stroke="none"/></g><g id="g3075" transform="translate(499.654 731.956)"><path id="path3077" d="M0 0c.481 0 .731-.013.997.234.208.193.209.538.209.934l-.001 1.004H.094c-.743-.01-.865-.468-.865-.871L-.77 0z" fill="#807f83" fill-opacity="1" fill-rule="nonzero" stroke="none"/></g><g id="g3079" transform="translate(502.248 731.956)"><path id="path3081" d="M0 0c.48 0 .73-.013.996.234.209.193.209.538.209.934v1.004H.093c-.743-.01-.864-.468-.864-.871V0z" fill="#807f83" fill-opacity="1" fill-rule="nonzero" stroke="none"/></g><g id="g3083" transform="translate(545.62 735.488)"><path id="path3085" d="M0 0c.48 0 .73-.014.996.233.209.195.21.538.21.934l-.001 1.005H.093c-.742-.01-.866-.469-.866-.871l.001-1.302z" fill="#807f83" fill-opacity="1" fill-rule="nonzero" stroke="none"/></g><g id="g3087" transform="translate(548.21 735.488)"><path id="path3089" d="M0 0c.482 0 .733-.014.998.233.209.195.21.538.21.934l-.001 1.005H.095c-.741-.01-.865-.469-.865-.871l.001-1.302z" fill="#807f83" fill-opacity="1" fill-rule="nonzero" stroke="none"/></g></g></g></svg>