<svg xmlns="http://www.w3.org/2000/svg" width="1510" height="1515" viewBox="0 0 1510 1515"><path fill="currentColor" d="M52 708c821-230 1355-5 1458 47l-230-229-63-62q-112-29-232-28C534 436 54 705 52 708"/><path fill="currentColor" d="M169 592c538-286 849-257 938-242L977 221l-10-8q-27-3-53-3c-318 0-745 382-745 382"/><path fill="currentColor" d="M0 758s874-76 1135 377l215-214c-44-55-231-253-714-253-173 0-381 24-636 90"/><path fill="currentColor" d="M101 812c2 0 531 87 656 702l252-253c-27-49-261-450-835-450z"/><path fill="currentColor" d="m408 350-32 32s343-258 536-225L757 1z"/></svg>