<svg height="1515" viewBox="0 0 1510 1515" width="1510" xmlns="http://www.w3.org/2000/svg" xmlns:xlink="http://www.w3.org/1999/xlink"><linearGradient id="a"><stop offset="0" stop-color="#fff"/><stop offset=".5" stop-color="#e7d1a2"/><stop offset=".6" stop-color="#d8b273"/><stop offset="1" stop-color="#4d3d21"/></linearGradient><linearGradient id="b" gradientTransform="matrix(1385.06580597 -294.4048254 93.71889749 440.91274695 60.799472 748.468336)" gradientUnits="userSpaceOnUse" x2="1" xlink:href="#a"/><linearGradient id="c" gradientTransform="matrix(937.185 0 0 382.541 169 400)" gradientUnits="userSpaceOnUse" x2="1" xlink:href="#a"/><linearGradient id="d" gradientTransform="matrix(1348.662 0 0 465.997 1 901)" gradientUnits="userSpaceOnUse" x2="1" xlink:href="#a"/><linearGradient id="e" gradientTransform="matrix(907.401 0 0 703.752 101 1162)" gradientUnits="userSpaceOnUse" x2="1" xlink:href="#a"/><linearGradient id="f" gradientTransform="matrix(536.189 0 0 381.551 377 192)" gradientUnits="userSpaceOnUse" x2="1" xlink:href="#a"/><path d="m52 708c821-230 1355-5 1458 47l-230-229-63-62q-112-29-232-28c-451 0-931 269-933 272" fill="url(#b)"/><path d="m169 592c538-286 849-257 938-242l-130-129-10-8q-27-3-53-3c-318 0-745 382-745 382" fill="url(#c)"/><path d="m0 758s874-76 1135 377l215-214c-44-55-231-253-714-253-173 0-381 24-636 90" fill="url(#d)"/><path d="m101 812c2 0 531 87 656 702l252-253c-27-49-261-450-835-450z" fill="url(#e)"/><path d="m408 350-32 32s343-258 536-225l-155-156z" fill="url(#f)"/></svg>