<svg fill="none" height="18" viewBox="0 0 19 18" width="19" xmlns="http://www.w3.org/2000/svg" xmlns:xlink="http://www.w3.org/1999/xlink"><linearGradient id="a"><stop offset="0" stop-color="#5ea0ef"/><stop offset="1" stop-color="#83b9f9"/></linearGradient><linearGradient id="b" gradientUnits="userSpaceOnUse" x1="7.403" x2="11.071" xlink:href="#a" y1="10.302" y2="10.302"/><linearGradient id="c" gradientUnits="userSpaceOnUse" x1="4.871" x2="13.592" xlink:href="#a" y1="4.402" y2="4.402"/><linearGradient id="d" gradientUnits="userSpaceOnUse" x1="9.102" x2="9.102" y1="16.684" y2="11.512"><stop offset="0" stop-color="#198ab3"/><stop offset=".101" stop-color="#1c93bb"/><stop offset=".701" stop-color="#2cc2e5"/><stop offset="1" stop-color="#32d4f5"/></linearGradient><path d="m9.237 12.136a1.834 1.834 0 1 1 0-3.668 1.834 1.834 0 0 1 0 3.668m0-2.891a1.059 1.059 0 1 0 .013 2.117 1.059 1.059 0 0 0 -.013-2.117" fill="url(#b)" opacity=".9"/><path d="m13.512 3.8h-2.3a.08.08 0 0 0 -.08.096.1.1 0 0 0 .022.042l.657.657a.093.093 0 0 1 0 .132l-1.78 1.782c-.081.079-.139.171-.212.255v-4.755a.08.08 0 0 1 .081-.081h.96a.082.082 0 0 0 .078-.098.1.1 0 0 0 -.02-.041l-1.633-1.625a.08.08 0 0 0 -.112 0l-1.623 1.625a.082.082 0 0 0 .057.139h.952a.09.09 0 0 1 .08.08v4.752c-.071-.082-.129-.173-.207-.251l-1.78-1.782a.093.093 0 0 1 0-.132l.655-.657a.08.08 0 0 0 0-.113.08.08 0 0 0 -.056-.023h-2.3a.08.08 0 0 0 -.08.08v2.298a.08.08 0 0 0 .08.08q.032 0 .057-.022l.688-.689a.093.093 0 0 1 .132 0l1.782 1.781c.373.376.653.832.82 1.334a1.76 1.76 0 0 1 1.602-.006c.168-.5.449-.954.82-1.328l1.78-1.78a.09.09 0 0 1 .103-.021.1.1 0 0 1 .03.02l.69.689a.1.1 0 0 0 .055.022.08.08 0 0 0 .082-.08v-2.3a.08.08 0 0 0 -.08-.08" fill="url(#c)"/><path d="m18.026 14.25v.357a.49.49 0 0 1 -.159.356.57.57 0 0 1 -.384.148h-2.032v-1.364h2.032c.144 0 .282.053.384.148a.49.49 0 0 1 .16.355m-15.452-.503v1.364h-2.032a.57.57 0 0 1 -.384-.148.49.49 0 0 1 -.159-.355v-.358c0-.133.057-.261.159-.355a.57.57 0 0 1 .384-.148z" fill="#32bedd"/><path d="m15.674 11.512h-13.144a.57.57 0 0 0 -.41.18.64.64 0 0 0 -.17.436v3.94c0 .164.06.32.17.436.108.115.256.18.41.18h13.144a.55.55 0 0 0 .41-.18.62.62 0 0 0 .17-.435v-3.941a.64.64 0 0 0 -.17-.435.57.57 0 0 0 -.41-.181" fill="url(#d)"/><path d="m14.702 12.22h-.916a.18.18 0 0 0 -.176.187v.97c0 .103.079.186.176.186h.916a.18.18 0 0 0 .176-.187v-.969a.18.18 0 0 0 -.176-.187m0 2.313h-.916a.18.18 0 0 0 -.176.186v.97c0 .103.079.186.176.186h.916a.18.18 0 0 0 .176-.186v-.97a.18.18 0 0 0 -.176-.186" fill="#b4ec36"/><path d="m6.567 10.172h5.073c.084 0 .164.035.224.098s.093.148.093.237v1.007h-5.708v-1.008a.35.35 0 0 1 .093-.237.32.32 0 0 1 .225-.098" fill="#198ab3"/></svg>