<svg xmlns="http://www.w3.org/2000/svg" xml:space="preserve" id="Layer_1" x="0" y="0" viewBox="0 0 116.5 62.2"><path d="M0 0h116.5v62.2H0z" fill="#e21a1a"/><path d="M71.1 20v1h8.6c.7-.1 1.4.1 2 .6.4.6.6 1.3.6 2V32c.1.7-.1 1.4-.6 2-.6.4-1.3.6-2 .6h-4.1c-.7 0-1.7 0-2-.8-.2-.7 0-1.5.6-2l5.6-7.4h-8.6L67.6 29c-.6.6-.9 1.4-1.1 2.2.1.8.4 1.7 1.1 2.2l.9 1.1c.7 1.1 1.7 2.1 2.8 2.8 1.4.5 2.8.7 4.3.6h3.7c2.1 0 5.4 0 7.5-2.1s2.1-5.2 2.1-6.4V26c0-1.1 0-4.2-2.1-6.4-2.2-2.1-5.4-2.1-7.5-2.1h-5.9c-.7-.1-1.3.1-1.9.6-.3.5-.5 1.2-.4 1.9m-10.3 4.3h8.6L59.1 37.9h-8.5zm-32.7.7c-.4.5-.7 1.1-.6 1.8v1H31v16.9h6.8V27.8h6.7c.7 0 1.7 0 2 .8.2.7 0 1.5-.6 2L40.3 38h8.6l3.5-4.6c.6-.6.9-1.4 1.1-2.2-.1-.8-.4-1.7-1.1-2.2l-.9-1.1c-.7-1.1-1.7-2.1-2.8-2.8-1.4-.5-2.8-.7-4.3-.6H30c-.7-.2-1.4 0-1.9.5" fill="#fff"/></svg>