<svg height="18" viewBox="0 0 18 18" width="18" xmlns="http://www.w3.org/2000/svg" xmlns:xlink="http://www.w3.org/1999/xlink"><linearGradient id="a" gradientUnits="userSpaceOnUse" x1="9" x2="9" y1="15.834" y2="5.788"><stop offset="0" stop-color="#32bedd"/><stop offset=".175" stop-color="#32caea"/><stop offset=".41" stop-color="#32d2f2"/><stop offset=".775" stop-color="#32d4f5"/></linearGradient><path d="m.5 5.788h17v9.478a.57.57 0 0 1 -.568.568h-15.864a.57.57 0 0 1 -.568-.568z" fill="url(#a)"/><path d="m1.071 2.166h15.858a.57.57 0 0 1 .568.568v3.054h-16.997v-3.054a.57.57 0 0 1 .571-.568" fill="#0078d4"/><path d="m2.825 7.979.369-.37a.167.167 0 0 1 .236-.001l2.732 2.724a.335.335 0 0 1 0 .474l-.368.37-2.968-2.96a.167.167 0 0 1 -.001-.237" fill="#f2f2f2"/><path d="m3.249 13.504-.37-.37a.167.167 0 0 1 0-.236l2.916-2.925.37.368a.335.335 0 0 1 0 .474l-2.683 2.691a.167.167 0 0 1 -.233-.002" fill="#e6e6e6"/><rect fill="#f2f2f2" height="1.011" rx=".291" width="4.771" x="7.221" y="12.64"/></svg>