<svg xmlns="http://www.w3.org/2000/svg" width="18" height="18" viewBox="0 0 18 18"><path fill="currentColor" d="m5.8 1.22-2.86.53v3.9l2.86.61 2.87-1.15V2.2z"/><path fill="none" d="m5.91 6.2 2.62-1.06A.2.2 0 0 0 8.65 5V2.36a.21.21 0 0 0-.13-.18l-2.65-.9h-.12l-2.6.48a.2.2 0 0 0-.15.18v3.53a.19.19 0 0 0 .15.19l2.63.55a.3.3 0 0 0 .13-.01"/><path fill="currentColor" d="M2.94 1.75v3.9l2.89.61v-5zm1.22 3.6-.81-.16v-3l.81-.13zm1.26.23-.93-.15V2l.93-.16z"/><path fill="currentColor" d="m11.99 1.27-2.86.53v3.9l2.86.61 2.86-1.16v-2.9z"/><path fill="currentColor" d="M9.13 1.8v3.9l2.87.61v-5zm1.21 3.6-.81-.16v-3l.81-.13zm1.26.23-.93-.15V2.05l.93-.17z"/><path fill="currentColor" d="m2.87 6.6-2.86.53v3.9l2.86.61 2.87-1.15V7.58z"/><path fill="currentColor" d="M0 7.13V11l2.89.61v-5zm1.21 3.61-.81-.17v-3l.81-.14zm1.27.26-.93-.15V7.38l.93-.16z"/><path fill="currentColor" d="m9.04 6.56-2.86.53v3.9l2.86.62 2.86-1.16V7.54z"/><path fill="currentColor" d="M6.18 7.09V11l2.88.61v-5zm1.21 3.61-.81-.17v-3l.81-.14zm1.26.22-.93-.15V7.34l.93-.16z"/><path fill="currentColor" d="m15.21 6.61-2.86.53v3.9l2.86.61 2.87-1.15V7.59z"/><path fill="currentColor" d="M12.35 7.14V11l2.89.61v-5zm1.22 3.61-.81-.17v-3l.81-.14zm1.26.22-.93-.15V7.39l.93-.16z"/><path fill="currentColor" d="m5.73 12.04-2.86.52v3.9l2.86.62 2.87-1.16v-2.9z"/><path fill="none" d="m5.84 17 2.61-1a.18.18 0 0 0 .12-.18v-2.6a.2.2 0 0 0-.13-.22l-2.64-.9a.17.17 0 0 0-.12 0l-2.6.47a.19.19 0 0 0-.16.19v3.54a.19.19 0 0 0 .15.19L5.7 17a.23.23 0 0 0 .14 0"/><path fill="currentColor" d="M2.87 12.56v3.9l2.89.62V12zm1.22 3.61L3.28 16v-3l.81-.14zm1.26.23-.93-.15v-3.44l.93-.16z"/><path fill="currentColor" d="m11.91 12.08-2.86.53v3.9l2.86.61 2.87-1.15v-2.91z"/><path fill="currentColor" d="M9.05 12.61v3.9l2.89.61v-5zm1.22 3.61-.81-.17v-3l.81-.14zm1.26.22-.93-.15v-3.43l.93-.16z"/></svg>