<svg height="18" viewBox="0 0 18 18" width="18" xmlns="http://www.w3.org/2000/svg" xmlns:xlink="http://www.w3.org/1999/xlink"><linearGradient id="a" gradientUnits="userSpaceOnUse" x1="9" x2="9" y1="3.12" y2="14.88"><stop offset="0" stop-color="#32d4f5"/><stop offset=".228" stop-color="#31d0f1"/><stop offset=".463" stop-color="#2cc3e6"/><stop offset=".703" stop-color="#25afd4"/><stop offset=".944" stop-color="#1c92ba"/><stop offset="1" stop-color="#198ab3"/></linearGradient><rect fill="url(#a)" height="11.76" rx=".572" width="17" x=".5" y="3.12"/><path d="m17.463 9.912-1.228-1.112a1.374 1.374 0 0 0 -1.785 0l-6.622 6.08h9.1a.57.57 0 0 0 .572-.572v-4.4z" fill="#86d633"/><path d="m15.69 14.88-5.208-4.731a1.06 1.06 0 0 0 -1.376 0l-5.206 4.731z" fill="#b4ec36"/><path d="m9 7.852a1.555 1.555 0 0 0 -1.351-1.5 1.96 1.96 0 0 0 -2.021-1.873 2.03 2.03 0 0 0 -1.928 1.313 1.85 1.85 0 0 0 -1.628 1.786 1.885 1.885 0 0 0 1.951 1.812q.087.002.172-.008h3.159a.3.3 0 0 0 .083-.012 1.575 1.575 0 0 0 1.563-1.518" fill="#fff"/></svg>