<svg viewBox="0 0 24 24" xmlns="http://www.w3.org/2000/svg"><path d="m6.357 0a6.35 6.35 0 0 0 -6.357 6.357c.008 3.508 2.872 6.372 6.38 6.38l1.578.004h-.003l3.295.007.01 4.872c.009 3.508 2.872 6.372 6.38 6.38a6.35 6.35 0 0 0 6.36-6.357c-.009-3.508-2.872-6.372-6.38-6.38l-1.49-.004-3.381-.007-.011-4.871c-.009-3.509-2.872-6.372-6.38-6.381zm-.004 1.5q.31.002.61.041v5.404h-5.423a4.822 4.822 0 0 1 4.814-5.444zm2.111.482a4.89 4.89 0 0 1 2.773 4.402l.011 4.864-4.863-.011a4.89 4.89 0 0 1 -4.41-2.791h6.49zm4.288 10.77 4.864.01a4.89 4.89 0 0 1 4.44 2.857h-6.463v6.424a4.89 4.89 0 0 1 -2.83-4.428zm4.341 4.367h5.376a4.822 4.822 0 0 1 -5.376 5.346z"/></svg>