<svg height="64" viewBox="0 0 64 64" width="64" xmlns="http://www.w3.org/2000/svg"><g fill="none" fill-rule="evenodd"><path d="m0 0h64v64h-64z" fill="#dd344c"/><path d="m25 31.61v-15.323l7 2.5v8.823h2v-9.527a1 1 0 0 0 -.664-.942l-9-3.215a1 1 0 0 0 -.672 0l-9 3.215a1 1 0 0 0 -.664.942v14.143c0 2.326 2.37 8.714 10 8.714v-2c-6.609 0-8-5.61-8-6.714v-13.439l7-2.5v15.323zm25.542 16.354h-2a3.544 3.544 0 0 1 -3.54 3.541 3.545 3.545 0 0 1 -3.541-3.54h-2a3.545 3.545 0 0 1 -3.541 3.54 3.544 3.544 0 0 1 -3.54-3.54h-2a3.545 3.545 0 0 1 -3.541 3.54v2a5.54 5.54 0 0 0 4.541-2.369 5.536 5.536 0 0 0 9.081 0 5.537 5.537 0 0 0 9.081 0 5.54 5.54 0 0 0 4.541 2.37v-2a3.545 3.545 0 0 1 -3.541-3.542m0-8.396h-2a3.545 3.545 0 0 1 -3.54 3.541 3.546 3.546 0 0 1 -3.541-3.54h-2a3.546 3.546 0 0 1 -3.541 3.54 3.545 3.545 0 0 1 -3.54-3.54h-2a3.546 3.546 0 0 1 -3.541 3.54v2a5.54 5.54 0 0 0 4.541-2.369 5.54 5.54 0 0 0 4.54 2.37 5.54 5.54 0 0 0 4.541-2.37 5.54 5.54 0 0 0 4.541 2.37 5.54 5.54 0 0 0 4.54-2.37 5.54 5.54 0 0 0 4.541 2.37v-2a3.546 3.546 0 0 1 -3.541-3.542m0-8.869h-2a3.544 3.544 0 0 1 -3.54 3.54 3.545 3.545 0 0 1 -3.541-3.54h-2a3.545 3.545 0 0 1 -3.541 3.54 3.544 3.544 0 0 1 -3.54-3.54h-2a3.545 3.545 0 0 1 -3.541 3.54v2a5.54 5.54 0 0 0 4.541-2.368 5.538 5.538 0 0 0 9.081 0 5.538 5.538 0 0 0 9.081 0 5.54 5.54 0 0 0 4.541 2.368v-2a3.545 3.545 0 0 1 -3.541-3.54m-26.542 12.111v2c-11.074 0-14-9.158-14-14v-14.858a1 1 0 0 1 .644-.935l13-4.952c.23-.087.482-.087.712 0l13 4.952a1 1 0 0 1 .644.935v11.658h-2v-10.969l-12-4.571-12 4.572v14.168c0 .49.137 12 12 12" fill="#fff"/></g></svg>