<svg viewBox="0 0 128 128" xmlns="http://www.w3.org/2000/svg"><path d="m124.755 51.382-.177-.452-17.108-44.648a4.459 4.459 0 0 0 -1.761-2.121 4.581 4.581 0 0 0 -5.236.281 4.578 4.578 0 0 0 -1.518 2.304l-11.551 35.342h-46.775l-11.552-35.342a4.492 4.492 0 0 0 -1.518-2.31 4.581 4.581 0 0 0 -5.236-.281 4.502 4.502 0 0 0 -1.761 2.121l-17.14 44.628-.17.452c-5.059 13.219-.763 28.192 10.537 36.716l.059.046.157.111 26.061 19.516 12.893 9.758 7.854 5.93a5.283 5.283 0 0 0 6.388 0l7.854-5.93 12.893-9.758 26.218-19.634.065-.052c11.273-8.526 15.562-23.472 10.524-36.677z" fill="#e24329"/><path d="m124.755 51.382-.177-.452a57.79 57.79 0 0 0 -23.005 10.341l-37.573 28.411c12.795 9.68 23.934 18.09 23.934 18.09l26.218-19.634.065-.052c11.291-8.527 15.586-23.488 10.538-36.704z" fill="#fc6d26"/><path d="m40.066 107.771 12.893 9.758 7.854 5.93a5.283 5.283 0 0 0 6.388 0l7.854-5.93 12.893-9.758s-11.152-8.436-23.947-18.09a18379.202 18379.202 0 0 0 -23.935 18.09z" fill="#fca326"/><path d="m26.42 61.271a57.73 57.73 0 0 0 -22.998-10.367l-.17.452c-5.059 13.219-.763 28.192 10.537 36.716l.059.046.157.111 26.061 19.516 23.934-18.09z" fill="#fc6d26"/></svg>