<svg viewBox="0 0 128 128" xmlns="http://www.w3.org/2000/svg"><path d="m124.758 51.396-.177-.452-17.107-44.648a4.459 4.459 0 0 0 -1.761-2.121 4.581 4.581 0 0 0 -5.236.281 4.578 4.578 0 0 0 -1.518 2.304l-11.552 35.342h-46.775l-11.551-35.341a4.492 4.492 0 0 0 -1.518-2.31 4.581 4.581 0 0 0 -5.236-.281 4.502 4.502 0 0 0 -1.761 2.121l-17.141 44.627-.17.452c-5.059 13.219-.763 28.192 10.537 36.716l.059.046.157.111 26.061 19.516 12.893 9.758 7.854 5.93a5.283 5.283 0 0 0 6.388 0l7.854-5.93 12.893-9.758 26.218-19.634.065-.052c11.274-8.526 15.562-23.472 10.524-36.677z" fill="#e24329"/></svg>