<svg viewBox="0 0 128 128" xmlns="http://www.w3.org/2000/svg" xmlns:xlink="http://www.w3.org/1999/xlink"><linearGradient id="a" gradientTransform="matrix(1 0 0 -1 0 130)" gradientUnits="userSpaceOnUse" x1="14.704" x2="110.985" y1="46.27" y2="92.024"><stop offset="0" stop-color="#e40035"/><stop offset=".24" stop-color="#f60a48"/><stop offset=".352" stop-color="#f20755"/><stop offset=".494" stop-color="#dc087d"/><stop offset=".745" stop-color="#9717e7"/><stop offset="1" stop-color="#6c00f5"/></linearGradient><linearGradient id="b" gradientTransform="matrix(1 0 0 -1 0 130)" gradientUnits="userSpaceOnUse" x1="28.733" x2="91.742" y1="117.071" y2="45.195"><stop offset="0" stop-color="#ff31d9"/><stop offset="1" stop-color="#ff5be1" stop-opacity="0"/></linearGradient><path d="m124.5 21.3-4.4 68.6-41.8-89.9zm-29 88.7-31.5 18-31.5-18 6.4-15.5h50.3zm-31.5-75.9 16.5 40.2h-33zm-56.1 55.8-4.4-68.6 46.2-21.3z" fill="url(#a)"/><path d="m124.5 21.3-4.4 68.6-41.8-89.9zm-29 88.7-31.5 18-31.5-18 6.4-15.5h50.3zm-31.5-75.9 16.5 40.2h-33zm-56.1 55.8-4.4-68.6 46.2-21.3z" fill="url(#b)"/></svg>