<svg xmlns="http://www.w3.org/2000/svg" id="svg7975" width="300" height="82.674" viewBox="0 0 300 82.674"><defs id="defs7977"><clipPath id="clipPath7593"><path id="path7595" d="M47.99 748.766v-32.215h116.734v32.215"/></clipPath><clipPath id="clipPath7599"><path id="path7601" d="M48 748.74h116.7v-32.16H48z" clip-rule="evenodd"/></clipPath><clipPath id="clipPath7605"><path id="path7607" d="M0 792.03h612V.03H0z"/></clipPath></defs><g id="layer1" transform="translate(-225 -491.025)"><g id="g7589" transform="matrix(2.5707 0 0 -2.5707 101.607 2415.807)"><g id="g7591" clip-path="url(#clipPath7593)"><g id="g7597" clip-path="url(#clipPath7599)"><g id="g7603" clip-path="url(#clipPath7605)"><g id="g7609" transform="translate(103.736 723.308)"><path id="path7611" d="M0 0c-5.319 0-10.092 3.021-10.092 7.245 0 4.226 4.773 7.25 10.13 7.25 2.329 0 4.504-.588 6.869-1.907L5.24 10.446a12 12 0 0 1-5.202 1.172c-2.252 0-4.852-1.261-4.852-4.373 0-3.11 2.562-4.37 4.852-4.37 1.901 0 3.725.381 5.277 1.057l1.67-2.26C5.006.614 2.599 0 0 0" fill="#104076" fill-opacity="1" fill-rule="nonzero" stroke="none"/></g><g id="g7613" transform="translate(134.119 723.363)"><path id="path7615" d="M0 0c5.355 0 10.13 3.022 10.13 7.245 0 4.226-4.775 7.25-10.13 7.25-5.357 0-10.132-3.024-10.132-7.25C-10.132 3.022-5.357 0 0 0m4.852 7.245c0-3.11-2.6-4.37-4.852-4.37s-4.852 1.26-4.852 4.37c0 3.113 2.599 4.373 4.852 4.373 2.252 0 4.852-1.26 4.852-4.373" fill="#104076" fill-opacity="1" fill-rule="nonzero" stroke="none"/></g><g id="g7617" transform="translate(146.405 723.713)"><path id="path7619" d="M0 0h5.003v8.628c0 1.165.905 2.536 2.524 2.545 1.131-.009 2.216-.783 2.216-1.765L9.733 0h5.016v9.675c0 2.548-2.732 4.675-5.991 4.675q-.048-.002-.095-.005-.048.003-.094.005A6.9 6.9 0 0 1 4.9 13.299c-.009.037-.29.962-4.9.962z" fill="#104076" fill-opacity="1" fill-rule="nonzero" stroke="none"/></g><path id="path7621" d="M86.338 723.713h4.9v13.791h-4.9z" fill="#104076" fill-opacity="1" fill-rule="nonzero" stroke="none"/><g id="g7623" transform="translate(113.058 723.713)"><path id="path7625" d="M0 0h4.903v8.363c0 1.321 1.551 2.378 3.221 2.378.816 0 1.584-.163 2.229-.449v3.627c-.578.088-1.202.136-1.753.136a7.4 7.4 0 0 1-3.711-1.021c-.08.163-.681.934-4.889.934z" fill="#104076" fill-opacity="1" fill-rule="nonzero" stroke="none"/></g><g id="g7627" transform="translate(76.988 729.21)"><path id="path7629" d="m0 0-.001-5.498h5.019V4.54A54 54 0 0 0 0 0" fill="#104076" fill-opacity="1" fill-rule="nonzero" stroke="none"/></g><g id="g7631" transform="translate(82.006 733.75)"><path id="path7633" d="M0 0c5.527 5.702 7.816 11.002 6.034 13.553-1.86 2.664-7.639 1.585-15.13-2.373a7 7 0 0 1-.851-.489c-.362-.251-.151-.434.116-.337.274.099.586.219.938.392 5.615 2.663 9.995 3.141 11.707 1.282C5.423 9.197.08-.081-9.172-6.944c-1.235-.916-3.141-2.257-4.382-3.002q-.126-.077-.248-.155c-.328-.215-.62-.415-.85-.595-.224-.174-.181-.451.223-.277.246.105.545.264.863.459.072.044.143.084.218.13 1.395.847 3.466 2.277 4.881 3.265A66 66 0 0 1-5.018-4.54 54.5 54.5 0 0 1 0 0" fill="#104076" fill-opacity="1" fill-rule="nonzero" stroke="none"/></g><g id="g7635" transform="translate(57.369 716.551)"><path id="path7637" d="M0 0h5.019v5.201c1.372.811 2.761 1.7 4.126 2.631.307.211.579.421.776.601.325.297.09.45-.161.318-.258-.136-.563-.32-.893-.53C1.114 3.262-4.12 1.749-6.053 4.373-7.732 6.651-4.98 11.055 0 16.029V4.484c1.413.48 3.083 1.245 5.018 2.321l-.001 10.711 1.104-2.349c1.21-2.594 3.406-4.145 6.198-4.145 2.791 0 4.987 1.551 6.197 4.145l1.104 2.349-.001-2.733c1.796 1.742 3.329 3.481 4.492 5.163.145.208.132.383.053.575a4.8 4.8 0 0 1-4.335 2.728 4.83 4.83 0 0 1-4.325-2.686l-2.1-4.455a1.18 1.18 0 0 0-1.085-.675c-.467 0-.869.241-1.086.675l-2.1 4.455a4.85 4.85 0 0 1-1.785 1.961c1.536 1.219 3.029 2.308 4.499 3.2.334.203.608.406.839.583.227.173.185.45-.22.28a7 7 0 0 1-.884-.454c-1.502-.91-3.037-1.841-4.505-2.844q-.267-.182-.53-.365c-.54.21-1.126.325-1.739.325A4.803 4.803 0 0 1 0 18.44v-.662C-7.09 11.456-10.812 5.196-8.867 2.409-7.439.365-4.053.837 0 2.598z" fill="#104076" fill-opacity="1" fill-rule="nonzero" stroke="none"/></g><g id="g7639" transform="translate(163.071 736.302)"><path id="path7641" d="M0 0h.182c.207 0 .382.075.382.269 0 .138-.1.276-.382.276C.1.545.044.539 0 .533zm0-.871h-.251V.702c.132.018.257.037.446.037.238 0 .394-.05.488-.119Q.826.518.827.295C.827.088.689-.037.52-.088V-.1c.138-.025.232-.151.263-.382.038-.244.075-.339.1-.389H.62c-.037.05-.075.194-.106.401-.037.201-.138.276-.339.276H0zM.263 1.14c-.62 0-1.127-.532-1.127-1.19 0-.67.507-1.196 1.133-1.196.627-.007 1.128.526 1.128 1.19S.896 1.14.269 1.14zm.006.22c.771 0 1.385-.627 1.385-1.41 0-.796-.614-1.416-1.391-1.416-.77 0-1.396.62-1.396 1.416 0 .783.626 1.41 1.396 1.41z" fill="#104076" fill-opacity="1" fill-rule="nonzero" stroke="none"/></g></g></g></g></g></g></svg>