<svg xmlns="http://www.w3.org/2000/svg" width="64" height="64" viewBox="0 0 64 64"><title>Icon-Architecture/48/Arch_Amazon-Q_48</title><g id="Icon-Architecture/48/Arch_Amazon-Q_48" fill="none" fill-rule="evenodd" stroke="none" stroke-width="1"><g id="Icon-Architecture-BG/48/Machine-Learning" fill="#01a88d"><path id="Rectangle" d="M0 0h64v64H0z"/></g><g id="Icon-Service/48/Amazon-Q_48" fill="#fff" transform="translate(13 10.5)"><path id="Fill-3" d="M20.935 20.855v2.338l-1.967 1.112L17 23.193v-2.338l1.968-1.197zm-.963 19.948a1.99 1.99 0 0 1-1.943 0L3.03 32.47A2 2 0 0 1 2 30.722V13.17c0-.69.368-1.346.957-1.706l15-9.167A2 2 0 0 1 19 2.001a2 2 0 0 1 1.043.295l15 9.166c.59.361.957 1.016.957 1.707v17.552l-13.065-7.84v-2.588a1 1 0 0 0-.48-.854l-2.967-1.806a1 1 0 0 0-1.039 0l-2.968 1.806a1 1 0 0 0-.481.854v3.483c0 .361.195.694.508.871l2.968 1.677a1 1 0 0 0 .984 0l2.742-1.55 12.795 7.677q-.012.01-.025.02zM36.086 9.756l-15-9.166a3.98 3.98 0 0 0-4.172 0l-15 9.166A4.03 4.03 0 0 0 0 13.17v17.553c0 1.451.789 2.791 2.058 3.496l15 8.333a4 4 0 0 0 1.942.507c.667 0 1.334-.169 1.943-.507l15.001-8.333A4 4 0 0 0 38 30.722V13.17a4.03 4.03 0 0 0-1.914-3.413"/></g></g></svg>