<svg viewBox="0 0 24 24" xmlns="http://www.w3.org/2000/svg" fill="#81B64C"><path d="m12 0a3.85 3.85 0 0 0 -3.875 3.846 3.84 3.84 0 0 0 1.605 3.123l-2.79 1.85c0 .622.144 1.114.434 1.649h2.456c-.014.245-.014.549-.014.925 0 .025.003.048.006.071-.064 1.353-.507 3.472-3.62 5.842-.816.625-1.423 1.495-1.806 2.533a.33.33 0 0 0 -.045.084 8.124 8.124 0 0 0 -.39 2.516c0 .1.216 1.561 8.038 1.561s8.038-1.46 8.038-1.561c0-2.227-.824-4.048-2.24-5.133-4.034-3.08-3.586-5.74-3.644-6.838h2.458c.29-.535.434-1.027.434-1.649l-2.79-1.836a3.86 3.86 0 0 0 1.604-3.123 3.873 3.873 0 0 0 -2.414-3.585c-.004-.002-.01.004-.015.004a3.76 3.76 0 0 0 -1.43-.279z"/></svg>