<svg height="18" viewBox="0 0 18 18" width="18" xmlns="http://www.w3.org/2000/svg" xmlns:xlink="http://www.w3.org/1999/xlink"><linearGradient id="a" gradientUnits="userSpaceOnUse" x1="8.006" x2="8.006" y1="1.867" y2="12.695"><stop offset="0" stop-color="#5ea0ef"/><stop offset="1" stop-color="#0078d4"/></linearGradient><linearGradient id="b" gradientUnits="userSpaceOnUse" x1="14.119" x2="14.119" y1="8.901" y2="16.873"><stop offset="0" stop-color="#faa21d"/><stop offset=".4" stop-color="#f79415"/><stop offset="1" stop-color="#ef7100"/></linearGradient><path d="m9.637 12.782a4.487 4.487 0 0 1 4.482-4.482 4.4 4.4 0 0 1 1.891.434 3.67 3.67 0 0 0 -3.065-2.934 4.59 4.59 0 0 0 -4.69-4.467 4.7 4.7 0 0 0 -4.467 3.1 4.35 4.35 0 0 0 -3.788 4.292 4.413 4.413 0 0 0 4.529 4.289h5.132c-.004-.079-.024-.152-.024-.232" fill="url(#a)"/><circle cx="4.314" cy="8.63" fill="#e3e3e3" r=".657"/><path d="m6.627 8.88v-.527h-.074l-.565-.185-.148-.361.287-.607-.37-.37h-.074l-.527.27-.356-.145-.232-.638h-.532v.074l-.185.564-.389.145-.6-.287-.37.37v.074l.268.527-.148.361-.648.231v.574h.074l.565.185.147.365-.287.611.37.37h.074l.528-.269.36.148.232.64h.527v-.074l.185-.565.361-.148.611.287.37-.37v-.074l-.269-.527.148-.361zm-2.313.768a1.008 1.008 0 1 1 .018 0z" fill="#fff"/><circle cx="8.718" cy="5.799" fill="#e3e3e3" r=".777"/><path d="m11.494 6.1v-.634h-.084l-.684-.213-.158-.472.343-.74-.444-.441h-.084l-.638.324-.426-.176-.277-.768h-.657v.092l-.222.676-.435.176-.722-.343-.444.444.046.084.259.684-.148.463-.777.25v.675h.093l.675.219.157.417-.342.74.463.472.092-.046.629-.324.435.175.278.768h.629v-.092l.222-.676.435-.175.731.341.444-.444-.046-.083-.269-.667.176-.434zm-2.776.92a1.221 1.221 0 1 1 1.221-1.22 1.21 1.21 0 0 1 -1.2 1.221z" fill="#fff"/><path d="m14.121 8.9a3.882 3.882 0 1 0 3.879 3.882 3.88 3.88 0 0 0 -3.881-3.882z" fill="url(#b)"/><path d="m16.1 10.615-2.288.014a.135.135 0 0 0 -.1.232l.823.807-1.535 1.539-.806-.822a.136.136 0 0 0 -.233.094l-.014 2.288a.183.183 0 0 0 .183.183l2.288-.014a.135.135 0 0 0 .135-.136.14.14 0 0 0 -.04-.1l-.823-.807 1.539-1.539.807.822a.137.137 0 0 0 .233-.094l.014-2.288a.183.183 0 0 0 -.183-.179" fill="#fff"/>​</svg>