<svg xmlns="http://www.w3.org/2000/svg" width="18" height="18" viewBox="0 0 18 18"><path fill="currentColor" d="M18 9.5a4.06 4.06 0 0 0-3.51-3.89A5.1 5.1 0 0 0 9.24.74a5.23 5.23 0 0 0-5 3.41A4.82 4.82 0 0 0 0 8.79a4.9 4.9 0 0 0 5.07 4.71h8.65a1.5 1.5 0 0 0 .22 0 4.1 4.1 0 0 0 4.06-4"/><rect width="4.25" height=".9" x="9.23" y="16.36" fill="currentColor" rx=".3"/><rect width="4.25" height=".9" x="9.23" y="14.45" fill="currentColor" rx=".3"/><rect width="4.25" height=".9" x="9.23" y="12.55" fill="currentColor" rx=".3"/><g fill="currentColor"><rect width="4.25" height=".9" x="4.95" y="7.8" rx=".3"/><rect width="4.25" height=".9" x="4.95" y="9.55" rx=".3"/><rect width="4.25" height=".9" x="4.95" y="11.31" rx=".3"/></g></svg>