<svg height="18" viewBox="0 0 18 18" width="18" xmlns="http://www.w3.org/2000/svg" xmlns:xlink="http://www.w3.org/1999/xlink"><linearGradient id="a" gradientUnits="userSpaceOnUse" x1="9" x2="9" y1="13.5" y2=".74"><stop offset="0" stop-color="#0078d4"/><stop offset=".16" stop-color="#1380da"/><stop offset=".53" stop-color="#3c91e5"/><stop offset=".82" stop-color="#559cec"/><stop offset="1" stop-color="#5ea0ef"/></linearGradient><path d="m18 9.5a4.06 4.06 0 0 0 -3.51-3.89 5.1 5.1 0 0 0 -5.25-4.87 5.23 5.23 0 0 0 -5 3.41 4.82 4.82 0 0 0 -4.24 4.64 4.9 4.9 0 0 0 5.07 4.71h8.65a1.5 1.5 0 0 0 .22 0 4.1 4.1 0 0 0 4.06-4" fill="url(#a)"/><rect fill="#198ab3" height=".9" rx=".3" width="4.25" x="9.23" y="16.36"/><rect fill="#32bedd" height=".9" rx=".3" width="4.25" x="9.23" y="14.45"/><rect fill="#50e6ff" height=".9" rx=".3" width="4.25" x="9.23" y="12.55"/><g fill="#f2f2f2"><rect height=".9" rx=".3" width="4.25" x="4.95" y="7.8"/><rect height=".9" rx=".3" width="4.25" x="4.95" y="9.55"/><rect height=".9" rx=".3" width="4.25" x="4.95" y="11.31"/></g></svg>