<svg height="48" viewBox="0 0 48 48" width="48" xmlns="http://www.w3.org/2000/svg"><path d="m30.007 10h11v-2h-11zm-14 0h7v-2h-7zm15 6h15v-2h-15zm-19-5c0 3.86 3.141 7 7 7s7-3.14 7-7-3.141-7-7-7-7 3.14-7 7m.769 6.479-9.062 9.062-1.414-1.415 9.19-9.19a8.94 8.94 0 0 1 -1.483-4.936c0-4.962 4.037-9 9-9s9 4.038 9 9-4.037 9-9 9a8.96 8.96 0 0 1 -6.231-2.521m1.231 22.521h23v-2h-23zm-6-6h20v-2h-20zm6-6h23v-2h-23zm13-6h19v-2h-19zm10.767 9.463 7.727 6.037-10.881 8.5h-19.89l-10.88-8.5 3.369-2.633 1.232 1.576-1.353 1.057 8.321 6.5h18.512l8.322-6.5-5.71-4.46z" fill="#01a88d" fill-rule="evenodd"/></svg>