<svg xmlns="http://www.w3.org/2000/svg" width="18" height="18" viewBox="0 0 18 18">
  <defs>
    <mask id="ko">
      <rect width="18" height="18" fill="white"/>
      <path fill="black" d="M1 5.977h16V14.9a.535.535 0 0 1-.535.535H1.535A.535.535 0 0 1 1 14.9z"/>
      <path fill="black" d="m6.611 13.469 2.055-5.546a.27.27 0 0 0-.253-.363H7.136a.27.27 0 0 0-.252.176l-2.055 5.546a.27.27 0 0 0 .252.362h1.277a.27.27 0 0 0 .253-.175m4.505 0 2.055-5.546a.27.27 0 0 0-.252-.363h-1.277a.27.27 0 0 0-.253.176l-2.055 5.546a.27.27 0 0 0 .253.362h1.277a.27.27 0 0 0 .252-.175"/>
      <rect fill="black" x="3.252" y="3.58" width="11.499" height="1.35"/>
    </mask>
  </defs>
  <g>
    <path fill="currentColor" mask="url(#ko)" d="M1.539 2.568h14.924A.535.535 0 0 1 17 3.1v2.877H1V3.1a.535.535 0 0 1 .539-.532"/>
  </g>
</svg>