<svg xmlns="http://www.w3.org/2000/svg" width="18" height="18" viewBox="0 0 18 18"><defs><mask id="a"><path fill="#fff" d="M0 0h18v18H0z"/><path d="M1 5.977h16V14.9a.535.535 0 0 1-.535.535H1.535A.535.535 0 0 1 1 14.9z"/><path d="m6.611 13.469 2.055-5.546a.27.27 0 0 0-.253-.363H7.136a.27.27 0 0 0-.252.176l-2.055 5.546a.27.27 0 0 0 .252.362h1.277a.27.27 0 0 0 .253-.175m4.505 0 2.055-5.546a.27.27 0 0 0-.252-.363h-1.277a.27.27 0 0 0-.253.176l-2.055 5.546a.27.27 0 0 0 .253.362h1.277a.27.27 0 0 0 .252-.175"/><path d="M3.252 3.58h11.499v1.35H3.252z"/></mask></defs><path fill="currentColor" d="M1.539 2.568h14.924A.535.535 0 0 1 17 3.1v2.877H1V3.1a.535.535 0 0 1 .539-.532" mask="url(#a)"/></svg>