<svg height="18" viewBox="0 0 18 18" width="18" xmlns="http://www.w3.org/2000/svg" xmlns:xlink="http://www.w3.org/1999/xlink"><linearGradient id="a" gradientUnits="userSpaceOnUse" x1="9" x2="9" y1="15.432" y2="5.977"><stop offset="0" stop-color="#32bedd"/><stop offset=".175" stop-color="#32caea"/><stop offset=".41" stop-color="#32d2f2"/><stop offset=".775" stop-color="#32d4f5"/></linearGradient><path d="m1 5.977h16v8.923a.535.535 0 0 1 -.535.535h-14.93a.535.535 0 0 1 -.535-.535z" fill="url(#a)"/><path d="m1.539 2.568h14.924a.535.535 0 0 1 .537.532v2.877h-16v-2.877a.535.535 0 0 1 .539-.532" fill="#0078d4"/><g fill="#f2f2f2"><rect height="1.35" rx=".263" width="11.499" x="3.252" y="3.58"/><path d="m6.611 13.469 2.055-5.546a.27.27 0 0 0 -.253-.363h-1.277a.27.27 0 0 0 -.252.176l-2.055 5.546a.27.27 0 0 0 .252.362h1.277a.27.27 0 0 0 .253-.175m4.505 0 2.055-5.546a.27.27 0 0 0 -.252-.363h-1.277a.27.27 0 0 0 -.253.176l-2.055 5.546a.27.27 0 0 0 .253.362h1.277a.27.27 0 0 0 .252-.175"/></g></svg>