<svg height="74" viewBox="0 0 74 74" width="74" xmlns="http://www.w3.org/2000/svg"><g fill="none" fill-rule="evenodd"><path d="m5 5h64v64h-64z" fill="#01a88d"/><path d="m1 1h72v72h-72z" stroke="#879196" stroke-width="2"/><path d="m32 40h5v-2h-5zm-27-36.737c0-.696.687-1.263 1.529-1.263h32.941c.843 0 1.53.567 1.53 1.263v3.737h2v-3.737c0-1.799-1.583-3.263-3.53-3.263h-32.94c-1.946 0-3.53 1.464-3.53 3.263v24.737h-2a.999.999 0 0 0 -.78 1.625l4 5a1 1 0 0 0 .78.375h17v-2h-16.52l-2.398-3h18.918v-2h-17zm38 30.737v-23h-17v23zm-17 8h17v-6h-17zm19-31v31c0 1.103-.897 2-2 2h-17c-1.103 0-2-.897-2-2v-31c0-1.103.897-2 2-2h17c1.103 0 2 .897 2 2m-10.058 10.075-.001-.029-.003-.213c0-1.101-.551-2.13-1.514-2.824-1.408-1.016-3.463-1.181-5.635-.458l.633 1.898c1.532-.511 2.965-.442 3.832.182.44.319.684.745.684 1.202l.004.249c.004.258.014.658.007.773a1 1 0 0 0 .989 1.145c.147 0 3.592.029 3.667 2.53.019.613-.223 1.211-.683 1.684-.484.5-1.147.786-1.817.786h-7.105v2h7.105a4.57 4.57 0 0 0 3.252-1.393c.839-.865 1.283-1.979 1.248-3.137-.09-2.983-2.7-4.115-4.663-4.395m-11.942-9.186v1.111h-2v-1.111c0-1.882-1.805-3.596-3.787-3.596-1.935 0-3.51 1.551-3.51 3.457 0 .377.074.759.225 1.167a.998.998 0 0 1 -1.199 1.311 3.5 3.5 0 0 0 -.926-.141c-1.936 0-3.51 1.551-3.51 3.456s1.574 3.457 3.51 3.457h10.197v2h-10.197c-3.038 0-5.51-2.448-5.51-5.457 0-2.98 2.425-5.409 5.423-5.456a5 5 0 0 1 -.012-.337c0-3.009 2.472-5.457 5.509-5.457 3.083 0 5.787 2.615 5.787 5.596" fill="#fff" transform="translate(15 15)"/></g></svg>