<svg viewBox="0 0 128 128" xmlns="http://www.w3.org/2000/svg" xmlns:xlink="http://www.w3.org/1999/xlink"><radialGradient id="a" cx="0" cy="0" gradientTransform="matrix(61.90096408 -56.26632481 56.26632481 61.90096408 36.532649 46.154646)" gradientUnits="userSpaceOnUse" r="1"><stop offset="0" stop-color="#fff"/><stop offset=".181" stop-color="#fbfbfb"/><stop offset=".365" stop-color="#efeff0"/><stop offset=".552" stop-color="#dadbdc"/><stop offset=".738" stop-color="#bebfc2"/><stop offset=".824" stop-color="#aeb0b3"/></radialGradient><radialGradient id="b" cx="0" cy="0" gradientTransform="matrix(74.84512 0 0 82.49782 15.977 49.017)" gradientUnits="userSpaceOnUse" r="1"><stop offset="0" stop-color="#fafdff"/><stop offset=".079" stop-color="#eef5fa"/><stop offset=".22" stop-color="#cfdfec"/><stop offset=".407" stop-color="#9dbbd5"/><stop offset=".631" stop-color="#588ab5"/><stop offset=".745" stop-color="#326fa4"/><stop offset=".799" stop-color="#2b6698"/><stop offset=".897" stop-color="#174e78"/><stop offset=".994" stop-color="#003152"/></radialGradient><radialGradient id="c" cx="0" cy="0" gradientTransform="matrix(74.24721 0 0 80.12208 42.546 46.237)" gradientUnits="userSpaceOnUse" r="1"><stop offset="0" stop-color="#ffd540"/><stop offset=".667" stop-color="#ec1c24"/><stop offset=".994" stop-color="#760000"/></radialGradient><linearGradient id="d"><stop offset="0" stop-color="#dddfe0"/><stop offset=".174" stop-color="#d9dbdc"/><stop offset=".351" stop-color="#cdcfd0"/><stop offset=".531" stop-color="#b8babb"/><stop offset=".711" stop-color="#9c9e9f"/><stop offset=".891" stop-color="#78797b"/><stop offset="1" stop-color="#5e5f61"/></linearGradient><radialGradient id="e" cx="0" cy="0" gradientTransform="matrix(9.83645 0 0 9.26717 48.17 110.492)" gradientUnits="userSpaceOnUse" r="1" xlink:href="#d"/><radialGradient id="f" cx="0" cy="0" gradientTransform="matrix(9.83645 0 0 9.26717 77.318 110.492)" gradientUnits="userSpaceOnUse" r="1" xlink:href="#d"/><radialGradient id="g" cx="0" cy="0" gradientTransform="matrix(11.8928 0 0 11.9598 62.043 67.22)" gradientUnits="userSpaceOnUse" r="1" xlink:href="#d"/><path d="m107.044 111.363c26.157-23.773 28.09-64.249 4.318-90.406-23.772-26.158-64.248-28.092-90.405-4.32-26.158 23.773-28.092 64.249-4.32 90.407 23.772 26.157 64.249 28.09 90.407 4.319z" fill="url(#a)"/><path d="m81.797 20.16c-8.126-7.023-18.499-10.806-29.177-10.64-21.878 0-43.38 16.968-45.036 49.997-1.795 35.481 21.323 58.507 53.866 58.507 48.178 0 74.836-44.489 45.008-92.742 20.967 48.218-2.365 78.6-32.48 78.6-24.424 0-43.137-16.608-43.137-47.058-.018-43.942 32.485-46.99 50.956-36.664z" fill="url(#b)"/><path d="m93.818 38.484c-1.311-4.274-2.886-12.675 2.837-17.55a16.437 16.437 0 0 0 -9.64.84 16.735 16.735 0 0 0 -7.56 6.134 40.455 40.455 0 0 0 -16.761-3.612 40.457 40.457 0 0 0 -16.752 3.663 16.738 16.738 0 0 0 -7.558-6.168 16.437 16.437 0 0 0 -9.659-.856c5.858 5.001 4.071 13.662 2.747 17.835-7.732 8.816-11.981 20.226-11.929 32.035 0 9.884 6.265 21.119 7.495 36.167l7.91-6.965a51.857 51.857 0 0 0 27.796 6.515 51.857 51.857 0 0 0 27.794-6.515l7.915 6.965c1.253-15.048 7.495-26.283 7.495-36.167.07-11.934-4.257-23.464-12.13-32.322z" fill="url(#c)"/><path d="m40.783 118.232a6.835 6.835 0 0 1 .503-2.836 7.17 7.17 0 0 1 1.64-2.426 7.68 7.68 0 0 1 2.516-1.63 8.056 8.056 0 0 1 2.992-.573c1.028 0 2.044.195 2.99.574a7.682 7.682 0 0 1 2.517 1.63 7.168 7.168 0 0 1 1.64 2.425 6.84 6.84 0 0 1 .502 2.836v.236a9.691 9.691 0 0 0 2.54-5.191 9.427 9.427 0 0 0 -.915-5.65c-.886-1.759-2.3-3.234-4.067-4.242a11.055 11.055 0 0 0 -5.875-1.428c-2.064.075-4.06.72-5.738 1.855s-2.967 2.71-3.705 4.528a9.397 9.397 0 0 0 -.445 5.7c.447 1.9 1.477 3.636 2.962 4.989a4.983 4.983 0 0 1 -.056-.797z" fill="url(#e)"/><path d="m84.709 118.232a6.835 6.835 0 0 0 -.504-2.836 7.166 7.166 0 0 0 -1.64-2.426 7.68 7.68 0 0 0 -2.515-1.63 8.056 8.056 0 0 0 -2.992-.573 8.055 8.055 0 0 0 -2.991.574 7.682 7.682 0 0 0 -2.516 1.63 7.168 7.168 0 0 0 -1.64 2.425 6.827 6.827 0 0 0 -.502 2.836v.236a9.691 9.691 0 0 1 -2.54-5.191 9.427 9.427 0 0 1 .915-5.65c.886-1.759 2.3-3.234 4.067-4.242a11.055 11.055 0 0 1 5.875-1.428c2.064.075 4.06.72 5.738 1.855s2.967 2.71 3.704 4.528a9.397 9.397 0 0 1 .446 5.7 9.803 9.803 0 0 1 -2.962 4.989 6.84 6.84 0 0 0 .056-.797z" fill="url(#f)"/><path d="m29.454 74.684c-.6 3.033-4.415 3.988-4.415 3.988a6.179 6.179 0 0 1 -2.574-5.353 13.317 13.317 0 0 0 2.014 8.154 13.308 13.308 0 0 0 4.974-6.79zm7.557 1.532c-.6 3.033-4.419 3.989-4.419 3.989a6.183 6.183 0 0 1 -2.574-5.375 13.318 13.318 0 0 0 2.02 8.152 13.305 13.305 0 0 0 4.973-6.766zm-5.344 6.875c-.6 3.032-4.415 3.988-4.415 3.988a6.179 6.179 0 0 1 -2.555-5.375 13.318 13.318 0 0 0 2.015 8.153 13.3 13.3 0 0 0 4.955-6.766zm7.58 1.518c-.6 3.034-4.414 3.99-4.414 3.99a6.183 6.183 0 0 1 -2.573-5.376 13.317 13.317 0 0 0 1.986 8.158 13.308 13.308 0 0 0 5.002-6.772zm-5.327 6.993c-.6 3.034-4.42 3.989-4.42 3.989a6.184 6.184 0 0 1 -2.57-5.375 13.317 13.317 0 0 0 2.015 8.153 13.304 13.304 0 0 0 4.975-6.766zm10.62-13.872c-.6 3.033-4.42 3.989-4.42 3.989a6.18 6.18 0 0 1 -2.568-5.375 13.322 13.322 0 0 0 2.013 8.152 13.308 13.308 0 0 0 4.974-6.766zm52.258-3.046c.6 3.033 4.414 3.988 4.414 3.988a6.183 6.183 0 0 0 1.978-2.357 6.173 6.173 0 0 0 .595-3.018 13.326 13.326 0 0 1 -2.013 8.153 13.307 13.307 0 0 1 -4.974-6.766zm-7.556 1.532c.599 3.033 4.419 3.989 4.419 3.989a6.184 6.184 0 0 0 2.569-5.375 13.328 13.328 0 0 1 -2.02 8.152 13.304 13.304 0 0 1 -4.969-6.766zm5.337 6.875c.6 3.032 4.415 3.988 4.415 3.988a6.186 6.186 0 0 0 1.977-2.357 6.183 6.183 0 0 0 .596-3.017 13.316 13.316 0 0 1 -2.013 8.152 13.304 13.304 0 0 1 -4.975-6.766zm-7.553 1.518c.6 3.034 4.415 3.99 4.415 3.99a6.179 6.179 0 0 0 2.569-5.376 13.312 13.312 0 0 1 -2.015 8.153 13.31 13.31 0 0 1 -4.97-6.767zm5.306 6.993c.6 3.034 4.42 3.989 4.42 3.989a6.183 6.183 0 0 0 2.568-5.375 13.312 13.312 0 0 1 -2.019 8.153 13.308 13.308 0 0 1 -4.97-6.766zm-10.626-13.87c.6 3.032 4.42 3.988 4.42 3.988a6.179 6.179 0 0 0 2.569-5.375 13.312 13.312 0 0 1 -2.015 8.152 13.312 13.312 0 0 1 -4.973-6.766z" fill="#231f20" opacity=".53"/><path d="m43.154 71.807c9.71 0 17.582-7.647 17.582-17.08s-7.871-17.08-17.582-17.08c-9.71 0-17.583 7.647-17.583 17.08s7.872 17.08 17.583 17.08z" fill="#fff"/><path d="m47.675 64.774c4.994 0 9.043-3.599 9.043-8.037 0-4.44-4.05-8.038-9.043-8.038s-9.042 3.599-9.042 8.038c0 4.438 4.049 8.037 9.042 8.037z" fill="#bdbfc1"/><path d="m47.675 62.765c2.774 0 5.024-2.474 5.024-5.526s-2.25-5.526-5.024-5.526-5.023 2.474-5.023 5.526 2.25 5.526 5.023 5.526z" fill="#231f20"/><path d="m45.163 56.737c.832 0 1.507-.9 1.507-2.01s-.675-2.01-1.507-2.01c-.831 0-1.507.9-1.507 2.01s.676 2.01 1.507 2.01zm37.175 15.07c9.71 0 17.582-7.647 17.582-17.08s-7.872-17.08-17.582-17.08-17.583 7.647-17.583 17.08 7.872 17.08 17.583 17.08z" fill="#fff"/><path d="m86.357 64.774c4.716 0 8.54-3.599 8.54-8.037 0-4.44-3.824-8.038-8.54-8.038s-8.54 3.599-8.54 8.038c0 4.438 3.824 8.037 8.54 8.037z" fill="#bdbfc1"/><path d="m86.859 62.765c3.33 0 6.028-2.474 6.028-5.526s-2.698-5.526-6.028-5.526-6.028 2.474-6.028 5.526 2.698 5.526 6.028 5.526z" fill="#231f20"/><path d="m83.343 56.737c.831 0 1.507-.9 1.507-2.01s-.676-2.01-1.507-2.01c-.832 0-1.508.9-1.508 2.01s.676 2.01 1.508 2.01z" fill="#fff"/><path d="m63.246 88.887c0-6.284 9.547-15.19 9.547-21.752a9.626 9.626 0 0 0 -2.867-6.654 9.512 9.512 0 0 0 -6.678-2.74 9.518 9.518 0 0 0 -6.677 2.74 9.626 9.626 0 0 0 -2.868 6.654c0 6.561 9.543 15.468 9.543 21.752z" fill="url(#g)"/></svg>