<svg viewBox="0 0 24 24" xmlns="http://www.w3.org/2000/svg"><path d="m23.14 3.895c-.326-1.307-1.96-2.001-3.103-2.45-2.735-1.062-6.655-1.635-9.636-1.389-2.94.245-6.738 1.062-8.575 2.45-.531.409-.899.776-1.021 1.715-.245 2.001.694 4.982 1.265 6.779.163-.082.367-.327.857-.572.98-.49 2.164-.817 3.267-1.02 3.96-.817 9.473-.9 13.597-.9.49 0 .98 0 1.43.042.449 0 .98.04 1.429.04l.245-1.102c.204-1.02.49-2.573.245-3.593zm-17.19 1.633c-.531 1.674-2.083 1.43-3.634 1.43l.734-3.268c.326-.04.898 0 1.265 0 .45 0 .776 0 1.144.123.612.245.735.98.49 1.715zm1.837 1.51c-.898.042-1.715-.162-1.551-1.142.04-.245.449-2.124.49-2.206h1.306c-.04.368-.204.94-.286 1.307-.04.245-.081.408-.122.654-.04.204-.123.571.204.49.204-.041.245-.286.286-.49.122-.572.327-1.47.408-1.96h1.308c-.04.326-.163.816-.245 1.143-.204 1.062-.204 2.123-1.797 2.205zm3.308 0c-1.103 0-1.511-.693-1.266-1.755.367-1.756 2.205-1.92 2.94-1.51.408.244.49.53.408 1.102h-1.225c0-.164.041-.327-.081-.409-.123-.081-.327 0-.409.082-.204.204-.53 1.43-.286 1.593.286.204.49-.205.531-.409h1.225c-.081.817-.816 1.348-1.837 1.307zm4.165-.08v-.49h-.94l-.244.53h-1.266c.04-.122.735-1.43.857-1.633l.899-1.634h1.715l.367 3.267c-.286-.04-1.225 0-1.388-.04zm3.757-2.41c-.082.163-.245.98-.286 1.184-.082.327-.164.858-.286 1.184h-1.307c-.04-.204.49-2.123.49-2.409h-.816l.204-.898h2.98c0 .122-.163.816-.204.898zm1.837 2.41h-1.347l.693-3.268h1.306l-.653 3.267zm-2.327 2.94c-1.266.122-2.45.244-3.635.408-2.245.326-4.573.898-6.451 1.674-1.593.694-3.88 2.082-3.88 4.165 0 .326.041.326.286.694.368.53.858 1.266 1.225 1.756 1.184 1.51 3.308 4.124 4.982 5.063.49.286.898.49 1.51.204.45-.204.9-.53 1.226-.776 2.164-1.755 4.982-5.349 6.288-7.758.899-1.674 1.715-3.716 2.287-5.676-.368-.04-3.47.204-3.838.245zm-3.308-4.288v-1.185c-.082.082-.49 1.021-.53 1.185zm-11.025-1.185-.408 1.797c.571.041.735-.327.816-.776.123-.49.286-1.061-.408-1.02z"/></svg>