<svg height="18" viewBox="0 0 18 18" width="18" xmlns="http://www.w3.org/2000/svg" xmlns:xlink="http://www.w3.org/1999/xlink"><linearGradient id="a" gradientUnits="userSpaceOnUse" x1="9" x2="9" y1="3.474" y2="18.601"><stop offset=".215" stop-color="#5ea0ef"/><stop offset="1" stop-color="#0078d4"/></linearGradient><linearGradient id="b" gradientUnits="userSpaceOnUse" x1="8.974" x2="8.974" y1="-.698" y2="9.083"><stop offset=".225" stop-color="#a67af4"/><stop offset=".999" stop-color="#773adc"/></linearGradient><path d="m9.851 12.53a.88.88 0 0 0 -.627.261l-.007.007a.36.36 0 0 1 -.505-.006.35.35 0 0 1 -.1-.262l-.012-2.984a.28.28 0 0 0 -.14-.246l-2.032-1.178a1.6 1.6 0 0 1 -.186.5 1.6 1.6 0 0 1 -2.19.586 1.61 1.61 0 0 1 -.588-2.194 1.6 1.6 0 0 1 .336-.414l-2.367-1.373a.285.285 0 0 0 -.427.247l.008 5.089v2.87a.57.57 0 0 0 .284.492l6.885 3.989a.285.285 0 0 0 .428-.247v-3.371a.361.361 0 0 1 .617-.26.881.881 0 0 0 1.51-.618.89.89 0 0 0 -.887-.888m3.708-5.594a.359.359 0 0 1 -.527-.405.88.88 0 0 0 -.087-.678.882.882 0 1 0 -.984 1.3.36.36 0 0 1 .268.335.37.37 0 0 1 -.2.334l-2.563 1.478a.28.28 0 0 0 -.143.247v2.35a1.6 1.6 0 0 1 .525-.087 1.61 1.61 0 0 1 1.605 1.607 1.6 1.6 0 0 1 -1.6 1.6 1.6 1.6 0 0 1 -.525-.087v2.781a.285.285 0 0 0 .427.246l6.947-4.01a.57.57 0 0 0 .285-.5v-2.452l-.009-5.551a.285.285 0 0 0 -.427-.246z" fill="url(#a)"/><path d="m13.755 5.992a1.7 1.7 0 0 0 -.187-.5 1.6 1.6 0 1 0 -2.435 2.014l-2.027 1.17a.28.28 0 0 1 -.285 0l-2.579-1.495a.37.37 0 0 0 -.289-.042.36.36 0 0 0 -.249.444.882.882 0 1 1 -1.077-.625.34.34 0 0 0 .248-.215.37.37 0 0 0 -.173-.45l-2.949-1.714a.285.285 0 0 1 0-.493l6.947-4.01a.57.57 0 0 1 .57 0l6.93 4.015a.285.285 0 0 1 0 .493z" fill="url(#b)"/></svg>