<svg viewBox="0 0 24 24" xmlns="http://www.w3.org/2000/svg"><path d="m10.024 0h-8.783c-.681 0-1.241.56-1.241 1.243v21.514c0 .683.56 1.243 1.241 1.243h21.518a1.24 1.24 0 0 0 1.241-1.243v-21.514c0-.683-.56-1.243-1.241-1.243h-11.084v15.592c-.04.775-.29 1.397-.761 1.865-.92.927-2.521 1.049-3.921 1.049-1.891 0-4.432-.244-4.862-2.273l-.06-.508c-.02-.101-.02-.387-.02-1.131v-10.629c0-.488.16-.907.51-1.254a1.7 1.7 0 0 1 1.251-.511l4.611.02.161.041v1.562h-4.622c-.12 0-.18.061-.18.142v3.484h3.491v1.599h-3.491v6.566c.04 1.15 1.74 1.375 3.181 1.375.64-.021 1.991-.021 2.601-.632.16-.165.32-.471.46-.928z"/></svg>