<svg viewBox="0 0 24 24" xmlns="http://www.w3.org/2000/svg" fill="#F7FF14"><path d="m12.291 4.57a7.46 7.46 0 0 0 -7.338 5.006h.568a6.926 6.926 0 0 1 6.483-4.494 6.922 6.922 0 0 1 6.922 6.924c0 .116 0 .234-.01.351l.533.059c0-.134.01-.273.01-.4a7.46 7.46 0 0 0 -7.168-7.446zm-11.422 5.543-.869.453 13.25 1.44 3.63-1.893h-16.01zm3.682 1.483v.41a7.46 7.46 0 0 0 14.498 2.441h-.57a6.924 6.924 0 0 1 -6.475 4.487 6.928 6.928 0 0 1 -6.92-6.928v-.352zm6.193.414-3.63 1.898h16.011l.873-.453v-.006l-13.254-1.44zm13.254 1.44h.002l-.002-.007v.006z"/></svg>