<svg xmlns="http://www.w3.org/2000/svg" width="18" height="18" viewBox="0 0 18 18"><g fill="currentColor" stroke-width="0"><path d="m4.636 9.985.052.032L9 12.713h.001V5.062L9 5.061z" opacity=".9"/><path d="M10.146 1.294A1.52 1.52 0 0 0 9.001.787a1.52 1.52 0 0 0-1.147.506h-.001l-7.5 8.46c-.579.654-.428 1.642.323 2.111l3.126 1.954c.388.242 1.033.511 1.715.511.621 0 1.198-.18 1.676-.487h.002L9 12.714 4.636 9.986l4.365-4.924.109-.123a3.05 3.05 0 0 1 2.302-1.026c.472 0 .916.107 1.313.291l-2.579-2.909z"/><path d="M13.365 9.985 9.001 5.062v7.65z"/><path d="m17.647 9.753-4.921-5.551a3.1 3.1 0 0 0-1.313-.291c-.925 0-1.752.399-2.302 1.026l-.109.123 4.364 4.924L9.1 12.65l-.099.062v.003L9 12.713l-1.805 1.128h-.002a3.1 3.1 0 0 1-1.676.487c-.682 0-1.327-.269-1.715-.511l4.374 2.734c.25.156.538.234.824.234h.001c.287 0 .573-.078.823-.234l1.73-1.081 5.77-3.607c.751-.468.902-1.456.323-2.11"/></g><path fill="currentColor" d="M17.717 12.741c0 2.081-2.515 3.751-3.065 4.088a.19.19 0 0 1-.205 0c-.551-.337-3.065-2.007-3.065-4.088v-2.478a.203.203 0 0 1 .195-.238c1.959-.035 1.511-.887 2.973-.887s1.014.852 2.973.887c.107.003.192.09.195.198v2.517z"/></svg>