<svg height="18" viewBox="0 0 18 18" width="18" xmlns="http://www.w3.org/2000/svg" xmlns:xlink="http://www.w3.org/1999/xlink"><linearGradient id="a" gradientUnits="userSpaceOnUse" x1="10.901" x2="10.901" y1="4.385" y2="18.783"><stop offset=".085" stop-color="#ef7100"/><stop offset=".999" stop-color="#f78d1e"/></linearGradient><linearGradient id="b" gradientTransform="matrix(1 0 0 -1 94 795.516)" gradientUnits="userSpaceOnUse" x1="-79.452" x2="-79.452" y1="778.657" y2="786.378"><stop offset="0" stop-color="#0078d4"/><stop offset=".06" stop-color="#0a7cd7"/><stop offset=".34" stop-color="#2e8ce1"/><stop offset=".59" stop-color="#4897e9"/><stop offset=".82" stop-color="#589eed"/><stop offset="1" stop-color="#5ea0ef"/></linearGradient><g stroke-width="0"><path d="m4.636 9.985.052.032 4.312 2.696h.001v-7.651l-.001-.001z" fill="#ffb34d" opacity=".9"/><path d="m10.146 1.294a1.52 1.52 0 0 0 -1.145-.507 1.52 1.52 0 0 0 -1.147.506h-.001l-7.5 8.46c-.579.654-.428 1.642.323 2.111l3.126 1.954c.388.242 1.033.511 1.715.511.621 0 1.198-.18 1.676-.487h.002l1.805-1.128-4.364-2.728 4.365-4.924.109-.123a3.05 3.05 0 0 1 2.302-1.026c.472 0 .916.107 1.313.291l-2.579-2.909z" fill="#faa21d"/><path d="m13.365 9.985-4.364-4.923v7.65z" fill="#f78d1e"/><path d="m17.647 9.753-4.921-5.551a3.1 3.1 0 0 0 -1.313-.291c-.925 0-1.752.399-2.302 1.026l-.109.123 4.364 4.924-4.266 2.666-.099.062v.003l-.001-.002-1.805 1.128h-.002a3.1 3.1 0 0 1 -1.676.487c-.682 0-1.327-.269-1.715-.511l4.374 2.734c.25.156.538.234.824.234h.001c.287 0 .573-.078.823-.234l1.73-1.081 5.77-3.607c.751-.468.902-1.456.323-2.11" fill="url(#a)"/></g><path d="m18 12.721c0 2.265-2.739 4.088-3.338 4.46a.21.21 0 0 1 -.224 0c-.599-.367-3.338-2.19-3.338-4.46v-2.725c0-.119.093-.215.21-.218 2.134-.055 1.642-.991 3.241-.991s1.106.937 3.241.991c.117.003.21.1.21.218v2.725z" fill="#0078d4"/><path d="m17.717 12.741c0 2.081-2.515 3.751-3.065 4.088a.19.19 0 0 1 -.205 0c-.551-.337-3.065-2.007-3.065-4.088v-2.478a.203.203 0 0 1 .195-.238c1.959-.035 1.511-.887 2.973-.887s1.014.852 2.973.887c.107.003.192.09.195.198v2.517z" fill="url(#b)"/></svg>