<svg height="48" viewBox="0 0 48 48" width="48" xmlns="http://www.w3.org/2000/svg"><path d="m43.62 24.058v-.264l.122.132zm-32.694 6.794a6.933 6.933 0 0 1 -6.926-6.926 6.933 6.933 0 0 1 6.926-6.926 6.933 6.933 0 0 1 6.925 6.926 6.93 6.93 0 0 1 -6.925 6.926m34.913-7.606-6.441-6.936-1.465 1.361 4.88 5.255h-23.021c-.499-4.452-4.282-7.926-8.866-7.926-4.922 0-8.926 4.004-8.926 8.926s4.004 8.926 8.926 8.926c4.584 0 8.367-3.474 8.866-7.926h23.021l-4.88 5.255 1.465 1.361 6.441-6.935a1 1 0 0 0 0-1.361" fill="#ed7100" fill-rule="evenodd"/></svg>