<svg height="18" viewBox="0 0 18 18" width="18" xmlns="http://www.w3.org/2000/svg" xmlns:xlink="http://www.w3.org/1999/xlink"><linearGradient id="a" gradientUnits="userSpaceOnUse" x1="9" x2="15.8" y1="9" y2="9"><stop offset="0" stop-color="#ccc"/><stop offset=".32" stop-color="#dfdfdf"/><stop offset=".67" stop-color="#ececec"/><stop offset="1" stop-color="#f0f0f0"/></linearGradient><path d="m16.79 3.42h-15.58a.68.68 0 0 0 -.71.65v11.72a.68.68 0 0 0 .71.65h15.58a.68.68 0 0 0 .71-.65v-11.72a.68.68 0 0 0 -.71-.65" fill="#0078d4"/><path d="m16.85 3.42h-7.85v13h7.88a.65.65 0 0 0 .65-.65v-11.7a.65.65 0 0 0 -.68-.65" fill="#005ba1"/><path d="m7.64 1.56h-5.1a.35.35 0 0 0 -.34.34v13a.35.35 0 0 0 .34.35h5.1a1.24 1.24 0 0 1 1.36 1.18v-13.5a1.37 1.37 0 0 0 -1.36-1.37" fill="#f2f2f2"/><path d="m10.36 1.56h5.1a.35.35 0 0 1 .34.34v13a.35.35 0 0 1 -.34.35h-5.1a1.24 1.24 0 0 0 -1.36 1.18v-13.5a1.37 1.37 0 0 1 1.36-1.37" fill="url(#a)"/><path d="m7.49 5h-3.77a.16.16 0 0 0 -.16.15v.38a.16.16 0 0 0 .16.15h3.77a.15.15 0 0 0 .15-.15v-.4a.15.15 0 0 0 -.15-.13m0 2h-3.77a.16.16 0 0 0 -.16.15v.38a.16.16 0 0 0 .16.15h3.77a.15.15 0 0 0 .15-.15v-.35a.15.15 0 0 0 -.15-.18m0-4.07h-3.77a.16.16 0 0 0 -.16.15v.38a.16.16 0 0 0 .16.15h3.77a.15.15 0 0 0 .15-.15v-.38a.15.15 0 0 0 -.15-.15m0 6.15h-3.77a.16.16 0 0 0 -.16.15v.38a.16.16 0 0 0 .16.15h3.77a.15.15 0 0 0 .15-.15v-.38a.15.15 0 0 0 -.15-.15m0 2.05h-3.77a.16.16 0 0 0 -.16.15v.38a.16.16 0 0 0 .16.15h3.77a.15.15 0 0 0 .15-.15v-.38a.15.15 0 0 0 -.15-.15m-2.04 2.05h-1.73a.16.16 0 0 0 -.16.15v.38a.16.16 0 0 0 .16.15h1.73a.15.15 0 0 0 .15-.15v-.38a.15.15 0 0 0 -.15-.15" fill="#b3b3b3"/></svg>