<svg viewBox="0 0 128 128" xmlns="http://www.w3.org/2000/svg"><path d="m64.633 5.723-12.62 12.863h8.444v33.818l4.176 4.258 4.13-4.207v-33.644h8.71zm-42.263 15.632.002 22.903 9.266-9.246 21.995 21.958h4.105v-3.418l-21.92-22.358 9.66-9.84h-23.106zm26.938 0-9.65 9.838 18.08 18.44v-28.278zm22.177.215-.002 28.108 18.127-18.483-9.43-9.625zm13.395.883 8.566 8.742-21.96 22.399v3.597h3.933l21.855-22.29 9.438 9.62v-22.068zm12.394 16.361-18.02 18.377h27.459v-8.761l-9.438-9.616zm-65.632.069-9.272 9.256v8.832h27.39l-18.117-18.088zm-11.988 11.963-13.374 13.35 13.374 13.354v-9.328h33.326l4.03-4.028-4.49-4.472h-32.865v-8.877zm89.778.357-.004 8.746h-32.878l-4.25 4.328 3.86 3.942h33.038v9.373l13.057-13.315-12.824-13.074zm-87.055 19.774.002 9.287 9.264 9.256 18.572-18.543zm31.713 0-22.451 22.406-9.262-9.248v22.677h22.21l-9.544-9.527 22.695-22.65v-3.658zm17.256 0v4.175l21.214 21.164.964.973-8.61 8.596h21.562v-21.61l-8.24 8.414-.962.967-22.242-22.68h-3.687zm7.517 0 18.412 18.767 9.202-9.379v-9.388zm-14.576.998-3.822 3.814v33.787h-9.233l13.055 13.028 13.057-13.028h-8.717v-33.266l-4.34-4.334zm-6.547 6.533-18.816 18.78 9.547 9.526h9.27v-28.306zm13.606.512v27.8h8.756l9.55-9.533z"/></svg>