<svg viewBox="0 0 24 24" xmlns="http://www.w3.org/2000/svg"><path d="m.693 10.024c.381 0 .693-1.256.693-2.807 0-1.55-.312-2.807-.693-2.807s-.693 1.256-.693 2.807.312 2.808.693 2.808zm20.345-8.464c-.364 0-.684.805-.91 2.096-.363-2.21-.944-3.656-1.602-3.656-.78 0-1.464 2.036-1.784 5-.312-2.158-.788-3.536-1.325-3.536-.745 0-1.386 2.704-1.62 6.472-.442-1.932-1.083-3.145-1.793-3.145s-1.35 1.213-1.793 3.145c-.242-3.76-.874-6.463-1.628-6.463-.537 0-1.013 1.378-1.325 3.535-.32-2.972-.996-5.008-1.784-5.008-.658 0-1.247 1.447-1.602 3.665-.217-1.291-.546-2.105-.91-2.105-.675 0-1.221 2.807-1.221 6.272 0 3.466.546 6.273 1.221 6.273.277 0 .537-.476.736-1.273.32 2.928.996 4.938 1.776 4.938.606 0 1.143-1.204 1.507-3.11.251 3.622.875 6.195 1.602 6.195.46 0 .875-1.023 1.187-2.677.372 3.422 1.23 5.822 2.234 5.822 1.005 0 1.863-2.4 2.235-5.822.312 1.654.727 2.677 1.186 2.677.728 0 1.352-2.573 1.603-6.195.364 1.906.9 3.11 1.507 3.11.78 0 1.455-2.01 1.775-4.938.208.797.46 1.273.737 1.273.675 0 1.22-2.807 1.22-6.273-.008-3.457-.553-6.272-1.23-6.272zm2.269 8.464c.381 0 .693-1.256.693-2.807 0-1.55-.312-2.807-.693-2.807s-.693 1.256-.693 2.807.312 2.808.693 2.808z"/></svg>