<svg xmlns="http://www.w3.org/2000/svg" width="18" height="18" viewBox="0 0 18 18">
  <defs>
    <mask id="ko">
      <rect width="18" height="18" fill="white"/>
      <path fill="black" d="M17.449.585v9.468a.28.28 0 0 1-.472.2 4.728 4.728 0 0 0-7.515 1.371H.618a.587.587 0 0 1-.586-.587V.586A.586.586 0 0 1 .618 0h16.246a.585.585 0 0 1 .585.585"/>
      <path fill="black" d="M9.165 16.056H4.478a1.02 1.02 0 0 1 .86-.983c1.724-.206 1.724-1.446 1.724-3.444h2.4a4.73 4.73 0 0 0-.041 4.032.28.28 0 0 1-.256.395"/>
      <path fill="black" d="M10.533 6.249v1.678a.19.19 0 0 1-.193.192H6.511a.193.193 0 0 1-.193-.192V4.312a.193.193 0 0 1 .193-.193h1.92a.1.1 0 0 0 .1-.1v-.4a.1.1 0 0 0-.1-.1H5.9a.19.19 0 0 0-.193.191v4.831a.19.19 0 0 0 .193.192h5.056a.193.193 0 0 0 .193-.192V6.249a.1.1 0 0 0-.105-.1h-.4a.1.1 0 0 0-.106.1z"/>
      <path fill="black" d="M15.866 16.209h-4.417l.01-.026.9-2.054 1.278-2.918a.06.06 0 0 1 .063-.041c.082 0 .082 0 .112.074l1.474 3.562.57 1.379zM15 15.9l-1.47-3.614-1.593 3.614z"/>
      <rect fill="black" x="7.025" y="4.814" width="2.697" height="2.697"/>
      <rect fill="black" x="9.347" y="9.379" width="8.621" height="8.621"/>
    </mask>
  </defs>
  <g>
    <path fill="currentColor" mask="url(#ko)" d="M11.427 2.912H8.879a.1.1 0 0 0-.105.1v.463a.1.1 0 0 0 .105.1h1.874a.21.21 0 0 1 .212.211V5.7a.1.1 0 0 0 .1.1h.465a.1.1 0 0 0 .1-.1V3.123a.21.21 0 0 0-.211-.211z"/>
  </g>
</svg>