<svg height="18" viewBox="0 0 18 18" width="18" xmlns="http://www.w3.org/2000/svg" xmlns:xlink="http://www.w3.org/1999/xlink"><linearGradient id="a" gradientUnits="userSpaceOnUse" x1="8.741" x2="8.741" y1="-.017" y2="11.629"><stop offset=".18" stop-color="#5ea0ef"/><stop offset="1" stop-color="#0078d4"/></linearGradient><linearGradient id="b" gradientUnits="userSpaceOnUse" x1="6.97" x2="6.97" y1="11.629" y2="16.125"><stop offset=".202" stop-color="#1f56a3"/><stop offset="1" stop-color="#1490df"/></linearGradient><linearGradient id="c" gradientUnits="userSpaceOnUse" x1="13.657" x2="13.657" y1="9.249" y2="17.97"><stop offset=".131" stop-color="#b796f9"/><stop offset="1" stop-color="#773adc"/></linearGradient><path d="m17.449.585v9.468a.28.28 0 0 1 -.472.2 4.728 4.728 0 0 0 -7.515 1.371h-8.844a.587.587 0 0 1 -.586-.587v-10.451a.586.586 0 0 1 .586-.586h16.246a.585.585 0 0 1 .585.585" fill="url(#a)"/><path d="m9.165 16.056h-4.687a1.02 1.02 0 0 1 .86-.983c1.724-.206 1.724-1.446 1.724-3.444h2.4a4.73 4.73 0 0 0 -.041 4.032.28.28 0 0 1 -.256.395" fill="url(#b)"/><rect fill="#9cebff" height="2.697" rx=".106" width="2.697" x="7.025" y="4.814"/><path d="m11.427 2.912h-2.548a.1.1 0 0 0 -.105.1v.463a.1.1 0 0 0 .105.1h1.874a.21.21 0 0 1 .212.211v1.914a.1.1 0 0 0 .1.1h.465a.1.1 0 0 0 .1-.1v-2.577a.21.21 0 0 0 -.211-.211z" fill="#773adc"/><path d="m10.533 6.249v1.678a.19.19 0 0 1 -.193.192h-3.829a.193.193 0 0 1 -.193-.192v-3.615a.193.193 0 0 1 .193-.193h1.92a.1.1 0 0 0 .1-.1v-.4a.1.1 0 0 0 -.1-.1h-2.531a.19.19 0 0 0 -.193.191v4.831a.19.19 0 0 0 .193.192h5.056a.193.193 0 0 0 .193-.192v-2.292a.1.1 0 0 0 -.105-.1h-.4a.1.1 0 0 0 -.106.1z" fill="#fff"/><rect fill="url(#c)" height="8.621" rx="4.311" width="8.621" x="9.347" y="9.379"/><path d="m15.866 16.209h-4.417l.01-.026.9-2.054 1.278-2.918a.06.06 0 0 1 .063-.041c.082 0 .082 0 .112.074l1.474 3.562.57 1.379zm-.866-.309-1.47-3.614-1.593 3.614z" fill="#fff"/></svg>