<svg height="18" viewBox="0 0 18 18" width="18" xmlns="http://www.w3.org/2000/svg" xmlns:xlink="http://www.w3.org/1999/xlink"><linearGradient id="a"><stop offset="0" stop-color="#b31b1b"/><stop offset=".82" stop-color="#e62323"/></linearGradient><linearGradient id="b" gradientUnits="userSpaceOnUse" x1="9" x2="9" xlink:href="#a" y1="16.573" y2="1.427"/><linearGradient id="c" gradientUnits="userSpaceOnUse" x1="9" x2="9" xlink:href="#a" y1="16.525" y2="1.427"/><path d="m9 16.573c7.7-5.518 7.96-8.737 8-9.745.048-1.409-.149-5.1-3.866-5.386a4.02 4.02 0 0 0 -4.134 2.69 4.02 4.02 0 0 0 -4.129-2.69c-3.717.291-3.914 3.977-3.871 5.386.035 1.008.294 4.227 8 9.745" fill="url(#b)"/><path d="m17 6.828c.048-1.409-.149-5.1-3.866-5.386a4.02 4.02 0 0 0 -4.134 2.69 4.02 4.02 0 0 0 -4.129-2.69c-3.717.291-3.914 3.977-3.871 5.386.035 1.008.227 4.179 7.928 9.7" fill="url(#c)"/></svg>