<svg xmlns="http://www.w3.org/2000/svg" width="18" height="18" viewBox="0 0 18 18"><path fill="currentColor" d="M17.026 8.314A3.61 3.61 0 0 0 13.9 4.845 4.55 4.55 0 0 0 9.214.5a4.665 4.665 0 0 0-4.459 3.043A4.3 4.3 0 0 0 .974 7.681a4.37 4.37 0 0 0 4.521 4.2h7.714a.7.7 0 0 0 .2 0 3.647 3.647 0 0 0 3.617-3.567"/><path fill="currentColor" d="M12.3 10.954a1.6 1.6 0 0 0 1.6-1.6V5.478A1.57 1.57 0 0 0 12.335 3.9H8.429a1.6 1.6 0 0 0-1.587 1.6v3.22a.46.46 0 0 1-.134.28L3.7 12.042a.54.54 0 0 0-.161.384v1.462a.357.357 0 0 0 .348.366h2.286a.205.205 0 0 0 .205-.205v-.589a.23.23 0 0 1 .232-.232h.606a.205.205 0 0 0 .206-.205v-.633a.22.22 0 0 1 .222-.223h.607a.205.205 0 0 0 .214-.2v-.847l.152-.161zm.339-5.8a.911.911 0 1 1-.024-.023z"/><path fill="currentColor" d="M15.171 14.2a1.587 1.587 0 0 0 1.588-1.587v-3.88a1.59 1.59 0 0 0-1.588-1.587H11.3a1.6 1.6 0 0 0-1.6 1.6v3.229a.42.42 0 0 1-.134.312l-3.001 3.001a.54.54 0 0 0-.151.384v1.471a.356.356 0 0 0 .356.357h2.275a.205.205 0 0 0 .205-.2v-.607a.223.223 0 0 1 .223-.223h.606a.2.2 0 0 0 .205-.2v-.615a.223.223 0 0 1 .223-.223h.607a.205.205 0 0 0 .205-.205v-.865l.16-.152zm.33-5.788a.9.9 0 1 1-1.275 0 .9.9 0 0 1 1.274 0z"/><g fill="currentColor"><path d="M7.083 15.734a.2.2 0 0 0 .205.187.2.2 0 0 0 .134-.062l2.47-2.4a.22.22 0 0 0 .062-.187.2.2 0 0 0-.33-.089l-2.479 2.4a.25.25 0 0 0-.062.151"/><rect width=".535" height="4.521" x="13.048" y="8.334" rx=".241" transform="rotate(-45 13.316 10.594)"/><rect width=".535" height="4.521" x="12.436" y="8.948" rx=".241" transform="rotate(-45 12.703 11.208)"/></g>​</svg>