<svg height="18" viewBox="0 0 18 18" width="18" xmlns="http://www.w3.org/2000/svg" xmlns:xlink="http://www.w3.org/1999/xlink"><linearGradient id="a" gradientTransform="matrix(1 0 0 -1 0 20)" gradientUnits="userSpaceOnUse" x1="9" x2="9" y1="8.112" y2="19.5"><stop offset=".251" stop-color="#32bedd"/><stop offset=".83" stop-color="#50e6ff"/></linearGradient><linearGradient id="b" gradientTransform="matrix(.70710678 .70710678 .70710678 -.70710678 -815.394481 1004.270547)" gradientUnits="userSpaceOnUse" x1="-120.971" x2="-120.971" y1="1279.27" y2="1293.115"><stop offset="0" stop-color="#0078d4"/><stop offset=".142" stop-color="#077bd6"/><stop offset=".345" stop-color="#1a83db"/><stop offset=".584" stop-color="#3990e4"/><stop offset=".82" stop-color="#5ea0ef"/></linearGradient><path d="m17.026 8.314a3.61 3.61 0 0 0 -3.126-3.469 4.55 4.55 0 0 0 -4.686-4.345 4.665 4.665 0 0 0 -4.459 3.043 4.3 4.3 0 0 0 -3.781 4.138 4.37 4.37 0 0 0 4.521 4.2h7.714a.7.7 0 0 0 .2 0 3.647 3.647 0 0 0 3.617-3.567" fill="url(#a)"/><path d="m12.3 10.954a1.6 1.6 0 0 0 1.6-1.6v-3.876a1.57 1.57 0 0 0 -1.565-1.578h-3.906a1.6 1.6 0 0 0 -1.587 1.6v3.22a.46.46 0 0 1 -.134.28l-3.008 3.042a.54.54 0 0 0 -.161.384v1.462a.357.357 0 0 0 .348.366h2.286a.205.205 0 0 0 .205-.205v-.589a.23.23 0 0 1 .232-.232h.606a.205.205 0 0 0 .206-.205v-.633a.22.22 0 0 1 .222-.223h.607a.205.205 0 0 0 .214-.2v-.847l.152-.161zm.339-5.8a.911.911 0 1 1 -.024-.023z" fill="url(#b)"/><path d="m15.171 14.2a1.587 1.587 0 0 0 1.588-1.587v-3.88a1.59 1.59 0 0 0 -1.588-1.587h-3.871a1.6 1.6 0 0 0 -1.6 1.6v3.229a.42.42 0 0 1 -.134.312l-3.001 3.001a.54.54 0 0 0 -.151.384v1.471a.356.356 0 0 0 .356.357h2.275a.205.205 0 0 0 .205-.2v-.607a.223.223 0 0 1 .223-.223h.606a.2.2 0 0 0 .205-.2v-.615a.223.223 0 0 1 .223-.223h.607a.205.205 0 0 0 .205-.205v-.865l.16-.152zm.33-5.788a.9.9 0 1 1 -1.275 0 .9.9 0 0 1 1.274 0z" fill="#50e6ff"/><g fill="#fff"><path d="m7.083 15.734a.2.2 0 0 0 .205.187.2.2 0 0 0 .134-.062l2.47-2.4a.22.22 0 0 0 .062-.187.2.2 0 0 0 -.33-.089l-2.479 2.4a.25.25 0 0 0 -.062.151"/><rect height="4.521" rx=".241" transform="matrix(.70710678 -.70710678 .70710678 .70710678 -3.590923 12.518745)" width=".535" x="13.048" y="8.334"/><rect height="4.521" rx=".241" transform="matrix(.70710678 -.70710678 .70710678 .70710678 -4.20463 12.265125)" width=".535" x="12.436" y="8.948"/></g>​</svg>