<svg viewBox="0 0 128 128" xmlns="http://www.w3.org/2000/svg"><path d="m30.743 116.257a15.5 15.5 0 0 1 -3.42-4.107l-23.255-40.398a15.563 15.563 0 0 1 0-15.503l23.255-40.399a15.512 15.512 0 0 1 3.417-4.084l15.601 28.166-11.266 20.282a7.75 7.75 0 0 0 0 7.543l11.277 20.349zm69.922-100.407 23.255 40.398a15.485 15.485 0 0 1 0 15.503l-23.255 40.398a15.504 15.504 0 0 1 -13.416 7.752h-18.255l28.92-52.145a7.75 7.75 0 0 0 0-7.513l-28.92-52.144h18.255a15.502 15.502 0 0 1 13.416 7.751zm-64.546-6.711a15.505 15.505 0 0 1 5.562-1.041h21.255l28.92 52.145a7.75 7.75 0 0 1 0 7.513l-28.92 52.145h-21.254c-2.062 0-4.124-.423-5.993-1.193l27.717-51.418c.894-1.61 1.002-4.738.107-6.348z"/></svg>