<svg height="24" width="24" xmlns="http://www.w3.org/2000/svg"><path d="m0 0h24v24h-24z" fill="none"/><g fill-rule="evenodd"><path d="m9.8 21.8h4.4v-1.6h-4.4z" fill="#5c85de"/><path d="m12 21.8h2.2v-1.6h-2.2z" fill="#3367d6"/><path d="m19.7 23.2 2.9-8.1-3.9-2.2-2.4 7.4 1.4 2.9z" fill="#5c85de"/><path d="m18.7 12.9-2.4 7.4 1.4 2.9z" fill="#3367d6"/><path d="m4.3 23.2-2.9-8.1 3.9-2.2 2.4 7.4-1.4 2.9z" fill="#85a4e6"/><path d="m5.3 12.9 2.4 7.4-1.4 2.9z" fill="#5c85de"/><path d="m12 11.5c-1.4 0-2.5-1.1-2.5-2.5s1.1-2.5 2.5-2.5 2.5 1.1 2.5 2.5-1.1 2.5-2.5 2.5m0-10.7-5.2 5.2v5.5l2.3 8h5.8l2.3-8v-5.5z" fill="#85a4e6"/><path d="m12 .8v5.8c1.4 0 2.5 1.1 2.5 2.5s-1.1 2.5-2.5 2.5v8h2.9l2.3-8v-5.6z" fill="#5c85de"/></g></svg>