<svg height="48" viewBox="0 0 48 48" width="48" xmlns="http://www.w3.org/2000/svg"><path d="m11 37h15v2h-16a1 1 0 0 1 -1-1v-23a1 1 0 0 1 1-1h20a1 1 0 0 1 1 1v6h-2v-5h-18zm2.502-31h3.682a3 3 0 0 0 2.816 2 3 3 0 0 0 2.816-2h3.799l1.125 4h-15.363zm6.498-2a1.001 1.001 0 0 1 0 2 1.001 1.001 0 0 1 0-2m-8.943 8h18.004a1 1 0 0 0 .796-.396 1 1 0 0 0 .166-.875l-1.687-6a1 1 0 0 0 -.963-.729h-4.557a3 3 0 0 0 -2.816-2 3 3 0 0 0 -2.816 2h-4.44a1 1 0 0 0 -.963.729l-1.687 6a1 1 0 0 0 .166.875c.188.25.483.396.797.396m21.296-4h-1.353v-2h1.353c1.459 0 2.647 1.275 2.647 2.842v11.158h-2v-11.158c0-.456-.297-.842-.647-.842m-24.706 33h17.353v2h-17.353c-1.46 0-2.647-1.275-2.647-2.842v-31.316c0-1.567 1.187-2.842 2.647-2.842h1.353v2h-1.353c-.35 0-.647.386-.647.842v31.316c0 .456.297.842.647.842m31.824-9.904a1 1 0 0 0 -.185.691l.14 1.345-1.237.551a1 1 0 0 0 -.507.507l-.549 1.236-1.346-.14a1 1 0 0 0 -.69.185l-1.097.794-1.097-.794a1 1 0 0 0 -.69-.185l-1.346.14-.55-1.237a1 1 0 0 0 -.507-.506l-1.236-.551.14-1.345a1 1 0 0 0 -.185-.691l-.794-1.096.794-1.096a1 1 0 0 0 .185-.691l-.14-1.345 1.237-.551a1 1 0 0 0 .507-.507l.549-1.236 1.346.14c.242.023.49-.04.69-.185l1.097-.794 1.097.794c.2.145.445.208.69.185l1.346-.14.55 1.237c.1.225.281.406.507.506l1.236.551-.14 1.345a1 1 0 0 0 .185.691l.794 1.096zm-1.155 10.955a1 1 0 0 0 -1.023.242l-.846.846-1.623-5.002 1.136-.823 1.525.16 1.843 4.915zm-6.091.759-.518-.517a1 1 0 0 0 -1.023-.242l-1.272.424 1.254-5.017 1.374-.144.819.594-.119-.012zm10.085-13.397-.996-1.373.176-1.687a1 1 0 0 0 -.588-1.018l-1.548-.689-.689-1.549a1.01 1.01 0 0 0 -1.018-.588l-1.687.177-1.373-.996a1 1 0 0 0 -1.174 0l-1.373.996-1.687-.177a1.01 1.01 0 0 0 -1.018.589l-.689 1.548-1.548.689a1 1 0 0 0 -.588 1.018l.176 1.687-.996 1.373c-.253.35-.253.824 0 1.174l.996 1.373-.176 1.687a1 1 0 0 0 .588 1.018l1.548.689.31.698-1.926 7.705a1.002 1.002 0 0 0 1.286 1.192l2.413-.805 1.564 1.563a1 1 0 0 0 1.041.235 1 1 0 0 0 .66-.838l.242-2.301.813 2.506a1 1 0 0 0 .951.691 1 1 0 0 0 .707-.293l1.564-1.563 2.413.805a1 1 0 0 0 1.253-1.3l-2.87-7.652.287-.643 1.548-.689a1 1 0 0 0 .588-1.018l-.176-1.687.996-1.373c.253-.35.253-.824 0-1.174" fill="#e7157b" fill-rule="evenodd"/></svg>