<svg height="18" viewBox="0 0 18 18" width="18" xmlns="http://www.w3.org/2000/svg" xmlns:xlink="http://www.w3.org/1999/xlink"><linearGradient id="a"><stop offset=".22" stop-color="#32d4f5"/><stop offset="1" stop-color="#198ab3"/></linearGradient><linearGradient id="b" gradientUnits="userSpaceOnUse" x1="6.7" x2="6.7" xlink:href="#a" y1="7.26" y2="18.36"/><linearGradient id="c" gradientUnits="userSpaceOnUse" x1="6.42" x2="7.23" xlink:href="#a" y1="1.32" y2="11.39"/><path d="m17.22 13.92a.79.79 0 0 0 .8-.79.3.3 0 0 0 -.02-.13c-.31-2.5-1.74-4.54-4.46-4.54s-4.19 1.76-4.47 4.54a.81.81 0 0 0 .72.88h7.43z" fill="#0078d4"/><path d="m13.55 9.09a2.44 2.44 0 0 1 -1.36-.4l1.35 3.52 1.33-3.49a2.54 2.54 0 0 1 -1.32.37" fill="#fff" opacity=".8"/><circle cx="13.55" cy="6.58" fill="#0078d4" r="2.51"/><path d="m12.19 16.36a1.19 1.19 0 0 0 1.19-1.19.7.7 0 0 0 0-.14c-.47-3.74-2.6-6.78-6.66-6.78s-6.28 2.58-6.72 6.75a1.2 1.2 0 0 0 1.07 1.31h11.1z" fill="url(#b)"/><path d="m6.77 9.14a3.7 3.7 0 0 1 -2-.6l2 5.25 2-5.21a3.8 3.8 0 0 1 -2 .56" fill="#fff" opacity=".8"/><circle cx="6.74" cy="5.39" fill="url(#c)" r="3.75"/></svg>