<svg fill="none" height="135" viewBox="0 0 134 135" width="134" xmlns="http://www.w3.org/2000/svg"><path clip-rule="evenodd" d="m123.722 75.9603c10.692 18.6447 8.133 42.7947-7.691 58.7987l-.238.241-25.6332-25.568zm-62.2128 6.2611c-2.1021 7.5602-6.0458 14.7153-11.84 20.7586l-.8004.797-34.456-34.3794c-19.13209-19.0832-19.21776-49.9746-.2506-69.159822l.2404-.237778 35.4067 35.3124c12.2682 12.9001 16.1676 30.8183 11.6999 46.909zm-51.2325-6.2611c-10.694066 18.6447-8.12673 42.7947 7.6937 58.7987l.2413.241 25.632-25.568zm62.2167 6.2611c2.0957 7.5602 6.0476 14.7153 11.8409 20.7586l.8006.797 34.4511-34.3794c19.136-19.0832 19.217-49.9746.251-69.159822l-.239-.237778-35.4083 35.3124c-12.2637 12.9001-16.1687 30.8183-11.6963 46.909z" fill="#8468f6" fill-rule="evenodd"/></svg>