<svg xmlns="http://www.w3.org/2000/svg" width="18" height="18" viewBox="0 0 18 18">
  <defs>
    <mask id="wko">
      <rect width="18" height="18" fill="white"/>
      <path fill="black" d="m9.638 10.382-.053-.053a1.7 1.7 0 0 1-.022-2.338l-.7-1.011a.8.8 0 0 1-.137-.442V4.551a.37.37 0 0 0-.368-.368h-1.8a.37.37 0 0 0-.369.368v1.861a1.16 1.16 0 0 1-.2.656l-3.169 4.62a.276.276 0 0 0 .227.432h8.337z"/>
    </mask>
  </defs>
  <g fill="currentColor" mask="url(#wko)">
    <path fill="currentColor" d="m11.579 12.4-1.987-1.975-.053-.052a1.78 1.78 0 0 1 .052-2.511l.73-.732-.565-.822a.5.5 0 0 1-.084-.272V2.008a.24.24 0 0 1 .239-.239h.224a.48.48 0 0 0 .479-.479v-.216A.48.48 0 0 0 10.135.6H4.827a.48.48 0 0 0-.479.479v.211a.48.48 0 0 0 .479.479h.224a.24.24 0 0 1 .24.239v4.018a.5.5 0 0 1-.084.271l-4.172 6.08c-.218.318.01.934.4.934h10.144z"/>
    <path fill="currentColor" d="M16.631 10.123a1.356 1.356 0 0 0 .042-1.917l-.042-.042-2.413-2.386a1.355 1.355 0 0 0-1.918-.035l-.035.035-2.378 2.386a1.354 1.354 0 0 0-.042 1.916l.042.043 2 1.986a.37.37 0 0 1 .113.271v3.694a.47.47 0 0 0 .135.332l.9.9a.305.305 0 0 0 .431.017l.016-.017.874-.874.516-.515a.19.19 0 0 0 0-.258l-.373-.373a.2.2 0 0 1 0-.277l.373-.373a.19.19 0 0 0 0-.258l-.373-.373a.2.2 0 0 1 0-.277l.373-.373a.184.184 0 0 0 0-.251l-.516-.522v-.19zm-3.389-2.2a.787.787 0 0 1-.014-1.573h.014a.787.787 0 0 1 0 1.573"/>
  </g>
</svg>