<svg height="18" viewBox="0 0 18 18" width="18" xmlns="http://www.w3.org/2000/svg" xmlns:xlink="http://www.w3.org/1999/xlink"><linearGradient id="a" gradientUnits="userSpaceOnUse" x1="9.261" x2="6.218" y1="-.364" y2="20.052"><stop offset="0" stop-color="#32bedd"/><stop offset="1" stop-color="#198ab3"/></linearGradient><linearGradient id="b" gradientUnits="userSpaceOnUse" x1="10.798" x2="14.441" y1="7.388" y2="19.066"><stop offset="0" stop-color="#50e6ff"/><stop offset=".997" stop-color="#32bedd"/></linearGradient><linearGradient id="c" gradientUnits="userSpaceOnUse" x1="-.168" x2="12.572" y1="4.114" y2="10.895"><stop offset="0" stop-color="#fff"/><stop offset="1" stop-color="#9cebff"/></linearGradient><path d="m14.428 3.35-5.195-3a2.62 2.62 0 0 0 -2.622 0l-5.195 3a2.63 2.63 0 0 0 -1.311 2.271v6a2.63 2.63 0 0 0 1.311 2.272l5.2 3a2.62 2.62 0 0 0 2.622 0l5.2-3a2.63 2.63 0 0 0 1.311-2.272v-6a2.63 2.63 0 0 0 -1.321-2.271" fill="url(#a)"/><path d="m16.842 7.743-3.653-2.109a2.11 2.11 0 0 0 -2.107 0l-3.652 2.109a2.1 2.1 0 0 0 -1.053 1.824v4.218a2.1 2.1 0 0 0 1.053 1.824l3.652 2.109a2.11 2.11 0 0 0 2.107 0l3.653-2.109a2.11 2.11 0 0 0 1.058-1.824v-4.218a2.11 2.11 0 0 0 -1.058-1.824" fill="url(#b)"/><path d="m7.578 2.963 1.052-.582 4.51 9.347-.366.4h-9.939l.112-1.197h8.381z" fill="url(#c)"/><g fill="#fff"><circle cx="2.732" cy="11.585" r="1.5"/><circle cx="12.136" cy="11.676" r="2.344"/><circle cx="8.041" cy="2.558" r="1.5"/></g>​</svg>