<svg viewBox="0 0 24 24" xmlns="http://www.w3.org/2000/svg"><path d="m11.057 18.221-3.218 3.249h-3.187l3.219-3.249zm-4.299 0-3.217 3.249h-3.187l3.219-3.249zm8.227 0 3.219 3.249h-3.187l-3.22-3.249zm4.3 0 3.217 3.249h-3.187l-3.218-3.249zm-8.82-15.691c3.765-.003 6.88 2.74 6.865 6.676.553-1.502.937-3.789 1.016-5.39l5.654 1.404c-.452 6.621-5.43 12.42-12.815 12.416-8.353-.001-11.582-7.247-11.146-12.737l2.453-.779c-.399 3.125.57 5.378 1.238 6.41-.795-4.42 2.549-7.998 6.735-8m.011 2.301a4.519 4.519 0 0 0 -4.524 4.514 4.519 4.519 0 0 0 4.524 4.514 4.518 4.518 0 0 0 4.525-4.514 4.518 4.518 0 0 0 -4.525-4.514"/></svg>