<svg height="64" viewBox="0 0 64 64" width="64" xmlns="http://www.w3.org/2000/svg"><g fill="none" fill-rule="evenodd"><path d="m0 0h64v64h-64z" fill="#ed7100"/><path d="m32 28.12-3 1.5v4.765l3 1.5 3-1.5v-4.765zm.447-2.013 3.481 1.741 2.517-1.678 1.11 1.664-2.555 1.703v5.466a1 1 0 0 1 -.553.894l-3.447 1.723v3.266h-2v-3.266l-3.447-1.724a1 1 0 0 1 -.553-.894v-5.466l-2.555-1.703 1.11-1.664 2.517 1.678 3.481-1.741c.281-.14.613-.14.894 0m9.553-.51-10-5.456-10 5.456v12.813l10 5.456 10-5.456zm10-4.596v6h-2v-4.38l-6 3v13.384c0 .366-.2.702-.521.878l-10.479 5.716v5.702l4.168-2.319.973 1.749-5.655 3.144a1 1 0 0 1 -.972 0l-5.655-3.144.973-1.749 4.168 2.319v-5.702l-10.479-5.717a1 1 0 0 1 -.521-.878v-13.383l-6-3v4.382h-2v-6c0-.38.214-.726.553-.896l6-3 .894 1.789-4.211 2.106 5.743 2.873 10.542-5.751a1 1 0 0 1 .958 0l10.542 5.75 5.743-2.872-4.211-2.106.894-1.79 6 3.001c.339.17.553.516.553.895m-2 21.385-5.447 2.723.894 1.79 6-3.001a1 1 0 0 0 .553-.894v-6h-2zm-18-30.268 5.553 2.777.894-1.79-6-3a1 1 0 0 0 -.894 0l-6 3 .894 1.79zm-18 30.268 5.447 2.723-.894 1.79-6-3.001a1 1 0 0 1 -.553-.894v-6h2z" fill="#fff"/></g></svg>