<svg xmlns="http://www.w3.org/2000/svg" viewBox="0 0 128 128"><path fill="#005a9c" d="M.496 23.517a.497.497 0 0 0-.43.744l46.174 79.973a.497.497 0 0 0 .86 0l22.656-39.242 22.656 39.242a.497.497 0 0 0 .861 0l23.086-39.986.002-.008 11.573-19.985a.5.5 0 0 0 .058-.162v-.002a.5.5 0 0 0 0-.17.5.5 0 0 0-.058-.164l-11.577-19.992a.5.5 0 0 0-.43-.248.5.5 0 0 0-.43.248l-11.112 19.244-11.112-19.244a.5.5 0 0 0-.09-.09 1 1 0 0 0-.052-.053.5.5 0 0 0-.29-.105h-.001zm.863.994h90.62L46.67 102.994Zm114.569.494L126.64 43.51h-21.395zm-23.086.002 11.111 19.244v.004l11.111 19.246-44.449.002zm12.404 19.496h21.395L115.93 63.005Zm-34.63 19.993h44.452l-22.226 38.496Z"/></svg>