<svg xmlns="http://www.w3.org/2000/svg" width="18" height="18" viewBox="0 0 18 18"><path fill="currentColor" d="M17.9 10V8l-.3-.1-2.2-.7-.6-1.4L16 3.4 14.5 2l-.3.1-2 1-1.4-.6L10 .1H8l-.2.3-.7 2.2-1.4.5L3.4 2 2 3.5l.1.3 1 2-.5 1.4L.1 8v2l.3.1 2.2.7.6 1.4L2 14.6 3.5 16l.3-.1 2-1 1.4.6.8 2.4h2l.1-.3.7-2.2 1.4-.6 2.3 1.1 1.4-1.4-.1-.3-1-2 .6-1.4zM9 12.9A3.84 3.84 0 0 1 5.1 9 3.84 3.84 0 0 1 9 5.1 3.84 3.84 0 0 1 12.9 9 3.84 3.84 0 0 1 9 12.9"/><path fill="currentColor" d="M8.5 10.5H4.9a.215.215 0 0 1-.2-.2v-.1L9 1.7c0-.1.1-.1.2-.1h4.2a.215.215 0 0 1 .2.2v.1L8.5 8.6h4.9a.215.215 0 0 1 .2.2.1.1 0 0 1-.1.1l-8.2 8.5c-.1 0-.6.5-.4-.2z"/></svg>