<svg height="18" viewBox="0 0 18 18" width="18" xmlns="http://www.w3.org/2000/svg" xmlns:xlink="http://www.w3.org/1999/xlink"><linearGradient id="a" gradientUnits="userSpaceOnUse" x1="9" x2="9" y1="17.9" y2=".1"><stop offset="0" stop-color="#0078d4"/><stop offset=".064" stop-color="#0a7cd7"/><stop offset=".338" stop-color="#2e8ce1"/><stop offset=".594" stop-color="#4897e9"/><stop offset=".822" stop-color="#589eed"/><stop offset="1" stop-color="#5ea0ef"/></linearGradient><linearGradient id="b" gradientTransform="matrix(1.156 0 0 1.029 39.425 321.61)" gradientUnits="userSpaceOnUse" x1="-26.189" x2="-26.189" y1="-295.6" y2="-311.105"><stop offset="0" stop-color="#fea11b"/><stop offset=".284" stop-color="#fea51a"/><stop offset=".547" stop-color="#feb018"/><stop offset=".8" stop-color="#ffc314"/><stop offset="1" stop-color="#ffd70f"/></linearGradient><path d="m17.9 10v-2l-.3-.1-2.2-.7-.6-1.4 1.2-2.4-1.5-1.4-.3.1-2 1-1.4-.6-.8-2.4h-2l-.2.3-.7 2.2-1.4.5-2.3-1.1-1.4 1.5.1.3 1 2-.5 1.4-2.5.8v2l.3.1 2.2.7.6 1.4-1.2 2.4 1.5 1.4.3-.1 2-1 1.4.6.8 2.4h2l.1-.3.7-2.2 1.4-.6 2.3 1.1 1.4-1.4-.1-.3-1-2 .6-1.4zm-8.9 2.9a3.84 3.84 0 0 1 -3.9-3.9 3.84 3.84 0 0 1 3.9-3.9 3.84 3.84 0 0 1 3.9 3.9 3.84 3.84 0 0 1 -3.9 3.9" fill="url(#a)"/><path d="m8.5 10.5h-3.6a.215.215 0 0 1 -.2-.2v-.1l4.3-8.5c0-.1.1-.1.2-.1h4.2a.215.215 0 0 1 .2.2v.1l-5.1 6.7h4.9a.215.215 0 0 1 .2.2.1.1 0 0 1 -.1.1l-8.2 8.5c-.1 0-.6.5-.4-.2z" fill="url(#b)"/></svg>