<svg height="48" viewBox="0 0 48 48" width="48" xmlns="http://www.w3.org/2000/svg"><path d="m32.546 23.274a1 1 0 0 1 0 1.367l-13.098 13.971-1.459-1.367 12.456-13.287-12.455-13.288 1.46-1.368zm-28.546.684c0-11.005 8.953-19.958 19.958-19.958s19.957 8.953 19.957 19.958-8.953 19.957-19.957 19.957-19.958-8.953-19.958-19.957m-2 0c0 12.107 9.851 21.957 21.958 21.957 12.108 0 21.957-9.85 21.957-21.957s-9.849-21.958-21.957-21.958c-12.107 0-21.958 9.85-21.958 21.958" fill="#7aa116" fill-rule="evenodd"/></svg>