<svg height="18" viewBox="0 0 18 18" width="18" xmlns="http://www.w3.org/2000/svg" xmlns:xlink="http://www.w3.org/1999/xlink"><linearGradient id="a" gradientUnits="userSpaceOnUse" x1="6.267" x2="6.267" y1="13.967"><stop offset="0" stop-color="#949494"/><stop offset="1" stop-color="#b3b3b3"/></linearGradient><linearGradient id="b" gradientUnits="userSpaceOnUse" x1="10.135" x2="10.135" y1="14.02" y2="5.219"><stop offset="0" stop-color="#0078d4"/><stop offset="1" stop-color="#5ea0ef"/></linearGradient><path d="m17.549 15.146c-.16.7-1.035 1.391-2.617 1.929a21.6 21.6 0 0 1 -12.125.017c-1.457-.514-2.243-1.17-2.366-1.842-.022-.118 0-1.966 0-1.966l17.136-.16s-.008 1.937-.028 2.022" fill="#5ea0ef"/><ellipse cx="9.001" cy="13.246" fill="#50e6ff" rx="8.576" ry="2.965" transform="matrix(.99994964 -.01003547 .01003547 .99994964 -.132998 .090999)"/><path d="m10.368 13.491a.484.484 0 0 1 -.476.476h-7.251a.476.476 0 0 1 -.476-.476v-13.015a.47.47 0 0 1 .459-.476h7.268a.476.476 0 0 1 .476.476z" fill="url(#a)"/><path d="m3.368 4.895a.893.893 0 0 1 .886-.885h4.093a.893.893 0 0 1 .918.868v.017a.9.9 0 0 1 -.894.9h-4.117a.893.893 0 0 1 -.886-.9m.886-1.754h4.11a.893.893 0 0 0 .9-.885v-.026a.893.893 0 0 0 -.918-.868h-4.092a.89.89 0 0 0 0 1.779" fill="#003067"/><path d="m4.3 1.654a.6.6 0 1 1 -.6.6.6.6 0 0 1 .6-.6m-.6 3.241a.6.6 0 1 0 .6-.6.6.6 0 0 0 -.6.6" fill="#50e6ff"/><path d="m16.366 11.252a2.806 2.806 0 0 0 -2.431-2.689 3.524 3.524 0 0 0 -3.635-3.342 3.61 3.61 0 0 0 -3.457 2.322 3.34 3.34 0 0 0 -2.943 3.217 3.39 3.39 0 0 0 3.508 3.257h6.174a2.83 2.83 0 0 0 2.784-2.765" fill="url(#b)"/><path d="m13.117 11.562v-2.807h-.777v3.445h2.047v-.634zm-5.931-1.379a1.9 1.9 0 0 1 -.426-.259.37.37 0 0 1 -.1-.267.29.29 0 0 1 .126-.251.56.56 0 0 1 .351-.1 1.4 1.4 0 0 1 .835.242v-.718a2.4 2.4 0 0 0 -.835-.125 1.4 1.4 0 0 0 -.911.275.92.92 0 0 0 -.342.744 1.12 1.12 0 0 0 .785 1 2 2 0 0 1 .509.3.35.35 0 0 1 .126.267.29.29 0 0 1 -.126.251.63.63 0 0 1 -.376.1 1.36 1.36 0 0 1 -.9-.351v.769a1.9 1.9 0 0 0 .861.192 1.6 1.6 0 0 0 .96-.234.9.9 0 0 0 .36-.76.84.84 0 0 0 -.209-.585 2 2 0 0 0 -.688-.49m4.314 1.317a2 2 0 0 0 .276-1.053 1.9 1.9 0 0 0 -.209-.935 1.47 1.47 0 0 0 -.576-.618 1.6 1.6 0 0 0 -.891-.214 1.84 1.84 0 0 0 -.835.242 1.56 1.56 0 0 0 -.61.643 2.1 2.1 0 0 0 -.226.952 1.9 1.9 0 0 0 .2.877 1.57 1.57 0 0 0 .568.619 1.7 1.7 0 0 0 .835.242l.71.835h1l-.994-.919a1.5 1.5 0 0 0 .752-.671m-.777-.209a.818.818 0 0 1 -1.261-.008 1.25 1.25 0 0 1 -.234-.836 1.22 1.22 0 0 1 .242-.835.77.77 0 0 1 .643-.309.72.72 0 0 1 .619.309 1.3 1.3 0 0 1 .234.835 1.23 1.23 0 0 1 -.247.847z" fill="#f2f2f2"/></svg>