<svg xmlns="http://www.w3.org/2000/svg" width="18" height="18" viewBox="0 0 18 18"><g fill="currentColor"><rect width="2.494" height="18" x="7.753" y="5.476" rx=".596" transform="rotate(-90 9 14.476)"/><rect width="2.494" height="18" x="7.753" y=".059" rx=".596" transform="rotate(-90 9 9.059)"/><rect width="2.494" height="18" x="7.753" y="-5.444" rx=".596" transform="rotate(-90 9 3.556)"/></g><rect width="2.494" height="11.838" x="10.834" y="8.557" fill="currentColor" rx=".596" transform="rotate(-90 12.081 14.476)"/><rect width="2.494" height="3.744" x="14.881" y="7.187" fill="currentColor" rx=".596" transform="rotate(-90 16.128 9.06)"/><rect width="2.494" height="11.838" x="10.834" y="-2.363" fill="currentColor" rx=".596" transform="rotate(-90 12.081 3.556)"/><rect width="3.766" height="1.178" x="4.74" y="13.855" fill="currentColor" rx=".589" transform="rotate(-90 6.623 14.444)"/><rect width="3.766" height="1.178" x="12.671" y="8.419" fill="currentColor" rx=".589" transform="rotate(-90 14.554 9.008)"/><rect width="3.766" height="1.178" x="4.74" y="2.967" fill="currentColor" rx=".589" transform="rotate(-90 6.623 3.556)"/></svg>