<svg height="18" viewBox="0 0 18 18" width="18" xmlns="http://www.w3.org/2000/svg" xmlns:xlink="http://www.w3.org/1999/xlink"><linearGradient id="a"><stop offset="0" stop-color="#76bc2d"/><stop offset=".312" stop-color="#72b62c"/><stop offset="1" stop-color="#5e9624"/></linearGradient><linearGradient id="b" gradientUnits="userSpaceOnUse" x1="12.081" x2="12.081" xlink:href="#a" y1="8.557" y2="20.395"/><linearGradient id="c" gradientUnits="userSpaceOnUse" x1="16.128" x2="16.128" xlink:href="#a" y1="7.187" y2="10.931"/><linearGradient id="d" gradientUnits="userSpaceOnUse" x1="12.081" x2="12.081" xlink:href="#a" y1="-2.364" y2="9.474"/><g fill="#5e9624"><rect height="18" rx=".596" transform="matrix(0 -1 1 0 -5.476 23.476)" width="2.494" x="7.753" y="5.476"/><rect height="18" rx=".596" transform="matrix(0 -1 1 0 -.059 18.059)" width="2.494" x="7.753" y=".059"/><rect height="18" rx=".596" transform="matrix(0 -1 1 0 5.444 12.556)" width="2.494" x="7.753" y="-5.444"/></g><rect fill="url(#b)" height="11.838" rx=".596" transform="matrix(0 -1 1 0 -2.395 26.557)" width="2.494" x="10.834" y="8.557"/><rect fill="url(#c)" height="3.744" rx=".596" transform="matrix(0 -1 1 0 7.068 25.188)" width="2.494" x="14.881" y="7.187"/><rect fill="url(#d)" height="11.838" rx=".596" transform="matrix(0 -1 1 0 8.525 15.637)" width="2.494" x="10.834" y="-2.363"/><rect fill="#e6e6e6" height="1.178" rx=".589" transform="matrix(0 -1 1 0 -7.821 21.067)" width="3.766" x="4.74" y="13.855"/><rect fill="#e6e6e6" height="1.178" rx=".589" transform="matrix(0 -1 1 0 5.546 23.562)" width="3.766" x="12.671" y="8.419"/><rect fill="#e6e6e6" height="1.178" rx=".589" transform="matrix(0 -1 1 0 3.067 10.179)" width="3.766" x="4.74" y="2.967"/></svg>