<svg viewBox="0 0 24 24" xmlns="http://www.w3.org/2000/svg" fill="#4A90D9"><path d="m12 0c-.556 0-1.111.144-1.61.432l-7.603 4.39a3.217 3.217 0 0 0 -1.61 2.788v8.78c0 1.151.612 2.212 1.61 2.788l7.603 4.39a3.217 3.217 0 0 0 3.22 0l7.603-4.39a3.217 3.217 0 0 0 1.61-2.788v-8.78a3.217 3.217 0 0 0 -1.61-2.788l-7.603-4.39a3.218 3.218 0 0 0 -1.61-.432zm0 2.358c.15 0 .299.039.431.115l7.604 4.39c.132.077.24.187.315.316l-8.35 4.821v9.642a.863.863 0 0 1 -.431-.116l-7.604-4.39a.866.866 0 0 1 -.431-.746v-8.78c0-.153.041-.302.116-.43l8.35 4.82z"/></svg>