<svg xmlns="http://www.w3.org/2000/svg" width="18" height="18" viewBox="0 0 18 18"><defs><mask id="a"><path fill="#fff" d="M0 0h18v18H0z"/><path d="M8 8.83a4.16 4.16 0 0 1-2.26-.66L7.92 14l2.22-5.79A4.2 4.2 0 0 1 8 8.83"/></mask></defs><g fill="currentColor" mask="url(#a)"><path d="M14 16.85a1.3 1.3 0 0 0 1.32-1.31 1 1 0 0 0 0-.16c-.52-4.15-2.88-7.53-7.4-7.53S1 10.71.51 15.39a1.34 1.34 0 0 0 1.19 1.46z"/></g><circle cx="7.95" cy="4.67" r="4.17" fill="currentColor"/><path fill="currentColor" d="M17.49 11.13v4.24l-3.64 2.13v-4.24z"/><path fill="currentColor" d="m17.49 11.13-3.64 2.13-3.64-2.13L13.85 9z"/><path fill="currentColor" d="M13.85 13.26v4.24l-3.64-2.13v-4.24z"/><path fill="currentColor" d="m10.21 15.37 3.64-2.11v4.24z"/><path fill="currentColor" d="m17.49 15.37-3.64-2.11v4.24z"/></svg>