<svg height="18" viewBox="0 0 18 18" width="18" xmlns="http://www.w3.org/2000/svg" xmlns:xlink="http://www.w3.org/1999/xlink"><linearGradient id="a"><stop offset="0" stop-color="#5e9624"/><stop offset="1" stop-color="#b4ec36"/></linearGradient><linearGradient id="b" gradientUnits="userSpaceOnUse" x1="7.93" x2="7.93" xlink:href="#a" y1="17.95" y2="5.62"/><linearGradient id="c" gradientUnits="userSpaceOnUse" x1="7.95" x2="7.95" xlink:href="#a" y1="9.21" y2="-2.02"/><path d="m14 16.85a1.3 1.3 0 0 0 1.32-1.31 1 1 0 0 0 0-.16c-.52-4.15-2.88-7.53-7.4-7.53s-6.92 2.86-7.41 7.54a1.34 1.34 0 0 0 1.19 1.46z" fill="url(#b)"/><path d="m8 8.83a4.16 4.16 0 0 1 -2.26-.66l2.18 5.83 2.22-5.79a4.2 4.2 0 0 1 -2.14.62" fill="#fff"/><circle cx="7.95" cy="4.67" fill="url(#c)" r="4.17"/><path d="m17.49 11.13v4.24l-3.64 2.13v-4.24z" fill="#32bedd"/><path d="m17.49 11.13-3.64 2.13-3.64-2.13 3.64-2.13z" fill="#9cebff"/><path d="m13.85 13.26v4.24l-3.64-2.13v-4.24z" fill="#50e6ff"/><path d="m10.21 15.37 3.64-2.11v4.24z" fill="#9cebff"/><path d="m17.49 15.37-3.64-2.11v4.24z" fill="#50e6ff"/></svg>