<svg viewBox="0 0 24 24" xmlns="http://www.w3.org/2000/svg"><path d="m12 0c-1.5673 0-2.9376.8395-3.6855 2.0938l7.369.0019c-.7478-1.2555-2.1159-2.0957-3.6835-2.0957zm0 2.7676c-2.3692 0-4.291 1.9188-4.291 4.287h8.5781c0-2.3682-1.9191-4.287-4.2871-4.287zm-4.9531.209c-2.2507 0-4.0762 1.8241-4.0762 4.0742h4.0762zm9.9043.002v4.0722l4.0722.002c0-2.2501-1.8234-4.0743-4.0722-4.0743zm-9.9043 4.7304c-2.3698 0-4.289 1.9224-4.289 4.291 0 2.368 1.9189 4.2871 4.289 4.2871zm9.9043 0v8.5781c2.3682 0 4.291-1.9191 4.291-4.2871 0-2.3686-1.9228-4.291-4.291-4.291zm-4.9551.002c-2.3683 0-4.2871 1.9206-4.2871 4.289 0 2.3686 1.9188 4.2871 4.287 4.2871 2.3684 0 4.2892-1.9185 4.2892-4.2871 0-2.3683-1.9208-4.289-4.2891-4.289zm-9.9004.6035c-1.2558.7475-2.0957 2.1182-2.0957 3.6855 0 1.5666.8398 2.9364 2.0938 3.6855zm19.8086 0 .002 7.371c1.2532-.7491 2.0937-2.1189 2.0937-3.6855 0-1.5673-.8402-2.9379-2.0957-3.6855zm-14.8574 8.6347-4.0742.002c0 2.2491 1.8222 4.0703 4.0742 4.0703zm9.9043 0v4.0703c2.2485 0 4.0722-1.8189 4.0722-4.0683zm-9.2422.002c0 2.3692 1.9218 4.289 4.291 4.289 2.368 0 4.2871-1.9198 4.2871-4.289zm.5488 4.9531c.7483 1.2549 2.1177 2.0957 3.6856 2.0957 1.5672 0 2.9366-.8408 3.6855-2.0957h-7.3709z"/></svg>