<svg xmlns="http://www.w3.org/2000/svg" width="142.177" height="157.909" viewBox="0 0 37.618 41.78"><clipPath id="c"><path fill="currentColor" d="M1016 321.24h171.36v139.32H1016z"/></clipPath><clipPath id="b"><path fill="currentColor" d="M1036.814 332.31h105.132v116.93h-105.132z"/></clipPath><clipPath id="a"><path fill="currentColor" d="M1016 321.24h171.36v139.32H1016z"/></clipPath><g clip-path="url(#a)" transform="matrix(.35278 0 0 -.35278 -365.5 158.747)"><path fill="currentColor" d="M1044.226 403.476c0-24.738 20.326-44.865 45.31-44.865 24.986 0 45.31 20.127 45.31 44.865 0 24.737-20.324 44.863-45.31 44.863-24.984 0-45.31-20.126-45.31-44.863m15.65 0c0 16.194 13.306 29.367 29.66 29.367 16.356 0 29.662-13.173 29.662-29.367s-13.306-29.369-29.662-29.369c-16.354 0-29.66 13.174-29.66 29.37"/><g fill="currentColor"><path fill="currentColor" d="M1089.536 449.258c-6.241 0-12.296-1.21-17.998-3.599a46.083 45.629 0 0 1-7.854-4.222 46.45 45.991 0 0 1-12.487-12.362 46.25 45.794 0 0 1-4.264-7.78 45.1 45.1 0 0 1-3.635-17.82 45.1 45.1 0 0 1 3.635-17.822 46.35 45.892 0 0 1 4.264-7.777 46.715 46.255 0 0 1 5.644-6.773 46.482 46.024 0 0 1 6.843-5.59 46.25 45.794 0 0 1 7.854-4.222 46.4 46.4 0 0 1 17.998-3.6 46.4 46.4 0 0 1 17.999 3.6 46.35 45.892 0 0 1 7.855 4.222 46.516 46.057 0 0 1 6.841 5.59 46.45 45.991 0 0 1 5.646 6.773 46.25 45.794 0 0 1 4.263 7.777 45.1 45.1 0 0 1 3.635 17.822 45.1 45.1 0 0 1-3.635 17.82 46.15 45.695 0 0 1-4.263 7.78 46.45 45.991 0 0 1-5.646 6.773 46.482 46.024 0 0 1-6.84 5.59 46.25 45.794 0 0 1-7.855 4.221 46.4 46.4 0 0 1-18 3.6m-44.382-45.784c0 24.27 19.871 43.945 44.382 43.945 24.513 0 44.382-19.675 44.382-43.945 0-24.272-19.869-43.944-44.382-43.944-24.51 0-44.382 19.672-44.382 43.944m44.382 30.288c-16.893 0-30.587-13.559-30.587-30.288 0-16.726 13.694-30.286 30.587-30.286 16.895 0 30.589 13.56 30.589 30.286 0 16.73-13.694 30.288-30.589 30.288m0-58.739c-3.88 0-7.641.753-11.184 2.238a28.6 28.6 0 0 0-9.132 6.097 28.4 28.4 0 0 0-6.16 9.042c-1.498 3.508-2.256 7.233-2.256 11.074s.758 7.568 2.257 11.074a28.3 28.3 0 0 0 6.159 9.043 28.6 28.6 0 0 0 9.132 6.098c3.543 1.484 7.304 2.236 11.184 2.236s7.644-.752 11.184-2.236a28.7 28.7 0 0 0 9.136-6.098 28.4 28.4 0 0 0 6.158-9.043 28.1 28.1 0 0 0 2.257-11.074c0-3.841-.76-7.566-2.257-11.074a28.4 28.4 0 0 0-6.158-9.042 28.7 28.7 0 0 0-9.136-6.097 28.8 28.8 0 0 0-11.184-2.238"/><path fill="currentColor" d="m1056.87 409.503-1.282.427.243.717c.136.396-.004.64-.407.773l-4.824 1.605c-.402.133-.652.018-.785-.378l-.243-.718-1.283.428 1.931 5.692 1.282-.426-.295-.871c-.135-.397-.006-.637.396-.77l4.825-1.606c.545-.18.635-.1.856.55l.262.773c.299.884-.022 1.726-1.305 2.152l-.768.257.499 1.466 3.878-1.289zm.123 18.123c-.67-.885-.374-1.54 1.678-3.064 2.058-1.53 2.815-1.656 3.484-.77.67.884.33 1.56-1.73 3.088-2.05 1.524-2.761 1.63-3.432.746m6.339-4.708c-1.863-2.457-4.526-2.792-6.765-1.13-2.23 1.655-2.622 4.26-.758 6.718 1.86 2.459 4.498 2.813 6.726 1.159 2.238-1.662 2.659-4.289.797-6.747m6.789 16.186c-.346-.241-.32-.621-.076-.964l1.826-2.571c1.672-2.35.954-4.03-1.083-5.452-2.26-1.574-4.1-1.96-5.81.45l-1.99 2.796c-.243.343-.5.42-.886.152l-.287-.2-.778 1.095 4.374 3.047.778-1.093-.5-.35c-.347-.24-.38-.535-.137-.876l2.186-3.076c.705-.99 1.594-.91 2.586-.22.93.652 1.08 1.551.472 2.41l-2.104 2.957c-.243.344-.59.488-.946.24l-.443-.31-.776 1.096 3.258 2.272.779-1.094zm5.584-5.923-.456 1.26.818.29c.4.14.445.256.3.66l-1.713 4.747c-.144.395-.424.617-.823.477l-.72-.254-.453 1.259 5.501 1.947.455-1.26-.73-.259c-.398-.14-.397-.35-.255-.746l1.712-4.744c.142-.395.39-.528.79-.388l.619.219.456-1.26zm11.98 2.715c-1.455-.099-2.353.297-2.846.263-.235-.015-.337-.244-.327-.373l-1.28-.085-.234 3.415 1.443.096.016-.255c.086-1.255 1.155-1.717 2.446-1.632 1.184.08 1.76.445 1.721 1.003-.034.498-.32.712-1.628.905l-1.952.278c-1.225.172-2.211.97-2.297 2.376-.126 1.997 1.643 3.026 3.695 3.165 1.324.09 1.812-.32 2.2-.295.352.024.425.169.423.355l1.36.093.216-3.136-1.513-.103-.02.291c-.072 1.033-.95 1.475-2.075 1.4-.963-.066-1.586-.236-1.549-.781.027-.396.255-.624 1.315-.786l2.025-.32c1.299-.204 2.378-.829 2.472-2.363.156-2.44-1.724-3.383-3.61-3.51m4.916.14.242 1.319.856-.156c.417-.074.516.002.593.425l.915 4.959c.075.411-.054.743-.47.818l-.753.136.244 1.317 5.747-1.04-.244-1.316-.761.137c-.418.075-.523-.105-.599-.519l-.915-4.956c-.076-.414.07-.653.488-.728l.647-.118-.242-1.315zm15.075 2.434-2.434-2.062 2-1.06zm-2.822-6.161.638 1.18.85-.45c.343-.181.588-.021.634.31l.095.624-2.902 1.537-.43-.38c-.355-.313-.29-.56.115-.774l.663-.352-.638-1.178-3.701 1.96.638 1.179.218-.116c.32-.17.729-.254 1.047.014l5.91 4.947 2.686-1.422-.885-7.437c-.041-.427.054-.768.437-.97l.29-.154-.638-1.181zm18.938-6.67c-.274.318-.556.342-.878.07l-5.392-4.538-1.926 2.243 1.717 6.824-2.883-2.427c-.323-.272-.355-.559-.08-.878l.51-.593-1.03-.868-2.924 3.405 1.03.867.495-.577c.274-.319.564-.334.887-.063l3.797 3.198c.322.271.427.617.152.936l-.494.577 1.03.867 2.869-3.344-1.686-6.642 2.786 2.342c.323.273.354.542.08.862l-.502.585 1.028.867 2.924-3.404-1.03-.868zm2.829-8.053-3.204.066.779-2.111zm-6.25-2.735 1.27.46.332-.897c.132-.36.424-.405.68-.186l.49.4-1.13 3.061-.576.002c-.475.001-.59-.228-.434-.653l.258-.699-1.27-.46-1.441 3.902 1.27.46.086-.23c.124-.338.37-.669.788-.682l7.738-.209 1.046-2.83-5.664-4.965c-.32-.29-.479-.605-.328-1.01l.113-.306-1.27-.46zm-65.811-34.152 1.13.735.29-.439c.17-.253.4-.368.587-.248.127.084.235.239.323.448l.755 1.894-1.486.4-.769-.499c-.353-.229-.478-.381-.246-.73l.308-.467-1.13-.734-3.035 4.585 1.13.733.419-.632c.234-.351.512-.391.867-.16l4.256 2.76c.355.232.42.496.186.845l-.419.632 1.131.734 3.197-4.826-1.13-.734-.471.71c-.232.35-.432.29-.785.061l-1.996-1.296 3.24-.86c.225-.063.368-.068.545.047.137.09.163.287.066.431l-.29.439 1.13.734 2.726-4.118-1.132-.733-.495.75c-.201.3-.567.494-1.008.61l-2.09.565-1.732-4.451c-.18-.45-.195-.599-.04-.831l.335-.508-1.132-.734zm5.612-6.901.876 1.018.663-.558c.322-.272.446-.253.728.075l3.3 3.837c.276.317.33.668.009.939l-.583.491.876 1.019 4.448-3.75-.876-1.02-.592.497c-.32.273-.505.168-.778-.152l-3.301-3.836c-.276-.319-.269-.6.053-.87l.501-.424-.876-1.018zm17.701-4.993.452 1.022c.381.864.243 1.534-.628 1.914l-.39.167-2.269-5.127a.72.72 0 0 1 .377-.977l.926-.402-.542-1.226-6.117 2.655.542 1.225.938-.405c.388-.17.795-.002.969.393l2.27 5.127-.386.167c-.872.378-1.467.028-1.849-.838l-.452-1.02-1.399.605 1.58 3.572 8.957-3.889-1.581-3.571zm8.124-6.783c-3.043.274-4.638 2.324-4.386 5.07.27 2.934 2.381 4.46 5.203 4.208 1.006-.09 1.67-.443 1.92-.56.215-.101.26 0 .444.347l1.463-.131-.328-3.582-1.604.144.03.337c.098 1.053-.319 1.78-1.43 1.882-1.337.12-1.956-.865-2.146-2.906-.215-2.342.242-3.293 1.682-3.424 1.229-.108 1.682.573 1.866 1.82l.064.438 1.569-.14-.04-.43c-.161-1.774-1.355-3.338-4.307-3.073m14.879 1.549-.358 1.29.487.133c.408.11.533.36.422.766l-.509 1.83-2.608-.71.508-1.83c.113-.404.35-.556.76-.446l.486.135.358-1.292-5.441-1.48-.358 1.29.738.2c.407.112.532.362.42.766l-1.349 4.862c-.111.403-.346.543-.753.434l-.738-.201-.359 1.29 5.443 1.481.356-1.292-.486-.13c-.408-.111-.537-.353-.424-.756l.464-1.672 2.606.709-.464 1.672c-.11.403-.346.545-.755.434l-.486-.133-.358 1.292 5.429 1.477.358-1.293-.737-.198c-.407-.112-.526-.348-.412-.753l1.348-4.86c.113-.403.339-.56.747-.448l.736.201.358-1.291zm9.526 3.652-.8 1.08.616.446c.34.25.438.435.18.782l-3.146 4.24c-.25.337-.45.292-.792.045l-.615-.449-.802 1.08 7.6 5.527 2.17-2.928-1.221-.89-.357.479c-.696.939-1.517 1.005-2.285.447l-.985-.718c-.342-.248-.453-.43-.203-.767l1.142-1.539.53.386c.304.22.287.497.058.808l-.446.599 1.1.799 2.532-3.416-1.098-.797-.572.768c-.222.3-.506.369-.809.149l-.501-.365 1.21-1.632c.258-.348.428-.34.768-.092l.908.66c.92.67 1.242 1.396.368 2.578l-.342.458 1.222.89 2.255-3.04zm10.627 22.192c-.228-.354-.17-.626.187-.853l5.945-3.8-1.612-2.474-7.093-.343 3.179-2.031c.356-.23.642-.176.871.175l.427.656 1.138-.726-2.448-3.755-1.136.726.413.635c.232.351.16.632-.196.86l-4.187 2.676c-.356.227-.72.224-.95-.127l-.414-.636-1.136.725 2.403 3.687 6.911.323-3.072 1.962c-.353.228-.627.177-.854-.174l-.422-.645-1.135.723 2.447 3.757 1.136-.726z"/></g><path fill="currentColor" d="m1093.656 396.09-.132-.091.892-2.423c4.014 1.717 11.849 5.803 13.521 12.077-4.305-6.28-14.281-9.563-14.281-9.563m-5.992 16.569-.061-.025.975-2.651c2.173.404 5.122.3 6.25-2.793.114-.321.181-.63.212-.923 1.228 1.056 2.076 2.505 1.405 4.362-1.868 5.137-8.781 2.03-8.781 2.03m-11.334-3.993-3.568-1.286-3.268 8.887-1.54-.555-1.006-.358 4.195-11.413 3.567 1.286 10.023-27.269 11.075 3.993-.928 2.52-8.529-3.072z"/><path fill="currentColor" d="M1091.689 405.973s7.299 2.102 5.672 6.599c-1.87 5.14-8.782 2.03-8.782 2.03l-.062-.027 3.159-8.592zm2.753-8.03 3.899-10.61-11.073-3.99-10.023 27.266-3.57-1.287-4.193 11.413 1.006.359 3.42 1.235c10.34 3.661 30.622 10.126 36.233-5.324 4.476-12.379-15.57-18.972-15.57-18.972zm-41.974-3.855c-.016 0-.04.055-.045.069-.078.177-.134.29-.26.416-.085.085-.16.171-.24.26-.372.422-.482.969-.348 1.512q.064.243.139.481c.065.224.127.443.158.672q.02.154.017.315c0 .059-.16.05-.174-.013a7 7 0 0 0-.075-.302 3 3 0 0 0-.261-.672 1.73 1.713 0 0 0-.38-.467c-.306-.266-.75-.39-1.126-.185a.763.763 0 0 0-.07 1.324.3.297 0 0 0 .132.04q-.003-.02-.002-.04c-.003-.169.022-.348.18-.448a.532.527 0 0 1 .634.05c.103.094.193.253.25.398.054.136.083.259.07.311-.013.077-.288.007-.416.097a.27.267 0 0 0-.107.263.3.297 0 0 0 .046.111c.125.195.45.061.478.167.014.043-.017.208-.104.394-.119.253-.343.537-.72.585a.68.68 0 0 1-.522-.137.57.57 0 0 1-.235-.448 1 1 0 0 1 .022-.225c-.113-.07-.522.038-.784.232-.009.007.01-.008 0 0a1.44 1.44 0 0 0-.47.664 1.231 1.219 0 0 0-.048.234c-.068.587.229 1.176.772 1.425.293.134.606.195.937.134.35-.065.637-.231.892-.467.374-.346.554-.808.735-1.27l.021-.056c.076-.214.12-.455.15-.671.02-.145.033-.281.045-.391.005-.047.157-.034.158.017a3.327 3.295 0 0 1-.018.374 3.993 3.953 0 0 1-.138.671c-.154.523-.394 1.027-.607 1.534-.14.327-.23.674-.227 1.03.005.317.126.604.278.883.198.365.542.57.804.892.233.292.327.63.409.995.005.02.035.038.05.038.017 0 .047-.017.05-.038.082-.365.176-.703.41-.995.262-.322.606-.527.804-.892.153-.279.273-.566.277-.883a2.6 2.6 0 0 0-.225-1.03c-.215-.507-.455-1.01-.608-1.534a4.226 4.184 0 0 1-.139-.671 4 4 0 0 1-.018-.374c.002-.05.154-.064.158-.017.013.11.028.246.046.39.029.217.075.458.151.672a.466.461 0 0 0 .021.056c.18.462.36.924.733 1.27.255.236.542.402.893.467.33.061.643 0 .937-.134.542-.25.84-.838.774-1.425q-.015-.12-.049-.234a1.46 1.46 0 0 0-.472-.664c-.26-.194-.67-.303-.783-.232a.832.824 0 0 1 .024.225.56.56 0 0 1-.237.448.67.67 0 0 1-.52.137c-.377-.048-.605-.332-.723-.585-.087-.186-.117-.351-.103-.394.028-.106.353.028.479-.167a.4.4 0 0 0 .046-.111.273.27 0 0 0-.108-.263c-.129-.09-.404-.02-.417-.097-.01-.052.016-.175.07-.311a1.2 1.2 0 0 1 .25-.398.532.527 0 0 1 .634-.05c.158.1.184.279.18.448l-.001.04a.283.28 0 0 0 .132-.04.762.762 0 0 0-.071-1.324c-.375-.204-.82-.08-1.125.185a1.73 1.713 0 0 0-.38.467 2.8 2.8 0 0 0-.26.672 10.98 10.872 0 0 0-.077.302c-.013.063-.174.072-.174.013a2.4 2.4 0 0 1 .018-.315c.03-.229.093-.448.158-.672.048-.159.098-.319.138-.481.134-.543.024-1.09-.347-1.512-.08-.089-.156-.175-.24-.26-.127-.126-.182-.24-.259-.416-.005-.014-.03-.07-.047-.07m74.41.001c-.018 0-.04.055-.048.069-.075.177-.131.29-.258.416a6.322 6.26 0 0 0-.24.26c-.373.422-.483.969-.348 1.512q.065.243.138.481c.067.224.129.443.158.672q.02.154.018.315c0 .059-.16.05-.174-.013q-.034-.15-.075-.302a3 3 0 0 0-.26-.672 1.797 1.779 0 0 0-.379-.467c-.31-.266-.753-.39-1.127-.185a.762.762 0 0 0-.07 1.324.28.277 0 0 0 .132.04q-.003-.02-.002-.04c-.004-.169.021-.348.178-.448a.532.527 0 0 1 .634.05c.105.094.192.253.25.398.054.136.083.259.073.311-.016.077-.29.007-.418.097a.266.264 0 0 0-.108.263.4.4 0 0 0 .045.111c.128.195.452.061.48.167.012.043-.017.208-.103.394-.12.253-.348.537-.723.585a.67.67 0 0 1-.52-.137.56.56 0 0 1-.236-.448 1 1 0 0 1 .022-.225c-.112-.07-.522.038-.783.232-.01.007.01-.008 0 0-.211.17-.39.41-.47.664a1.497 1.483 0 0 0-.05.234c-.065.587.232 1.176.775 1.425.291.134.604.195.936.134.35-.065.635-.231.89-.467.376-.346.555-.808.735-1.27l.023-.056c.076-.214.12-.455.15-.671.019-.145.032-.281.043-.391.006-.047.16-.034.16.017a2.995 2.965 0 0 1-.02.374 3.993 3.953 0 0 1-.135.671c-.157.523-.395 1.027-.607 1.534a2.6 2.6 0 0 0-.229 1.03c.005.317.125.604.28.883.197.365.541.57.802.892.234.292.327.63.408.995.005.02.035.038.053.038.015 0 .046-.017.05-.038.08-.365.175-.703.41-.995.26-.322.604-.527.804-.892.151-.279.273-.566.275-.883a2.55 2.55 0 0 0-.225-1.03c-.213-.507-.453-1.01-.606-1.534a3.993 3.953 0 0 1-.139-.671 2.995 2.965 0 0 1-.019-.374c0-.05.153-.064.16-.017.01.11.025.246.043.39.032.217.074.458.152.672q.008.03.02.056c.181.462.362.924.735 1.27.255.236.54.402.89.467.333.061.646 0 .938-.134.544-.25.841-.838.773-1.425a1.165 1.153 0 0 0-.049-.234 1.44 1.44 0 0 0-.47-.664c-.26-.194-.672-.303-.783-.232q.026.12.024.225a.57.57 0 0 1-.238.448.68.68 0 0 1-.522.137c-.374-.048-.603-.332-.722-.585-.084-.186-.116-.351-.104-.394.03-.106.354.028.48-.167a.28.277 0 0 0 .046-.111.266.264 0 0 0-.108-.263c-.127-.09-.403-.02-.418-.097-.009-.052.02-.175.075-.311.057-.145.144-.304.25-.398a.532.527 0 0 1 .633-.05c.156.1.182.279.179.448v.04a.3.297 0 0 0 .13-.04.763.763 0 0 0-.071-1.324c-.375-.204-.818-.08-1.126.185a1.763 1.746 0 0 0-.38.467 3 3 0 0 0-.26.672l-.076.302c-.011.063-.172.072-.173.013a1.996 1.977 0 0 1 .019-.315c.03-.229.092-.448.158-.672.047-.159.096-.319.137-.481.136-.543.025-1.09-.347-1.512a5 5 0 0 0-.242-.26c-.124-.126-.18-.24-.257-.416-.006-.014-.029-.07-.046-.07m-11.448-43.185c0-4.298-2.27-7.953-5.435-9.285l.003-.04v-6.856h-5.265v6.835l-.01.047c-3.177 1.324-5.463 4.987-5.463 9.3v2.152h5.41v-3.902c0-1.774 1.183-3.211 2.642-3.211 1.46 0 2.644 1.437 2.644 3.21v3.923h5.475z"/></g><g fill="currentColor" clip-path="url(#b)" transform="matrix(.35278 0 0 -.35278 -365.5 158.747)"><path fill="currentColor" d="M1060.22 340.329c1.716 0 3.09 1.596 3.09 3.54.01 1.953-1.395 3.523-3.099 3.525-1.721-.002-3.093-1.598-3.09-3.543.002-1.95 1.389-3.525 3.099-3.522m-6.386 4.738c-.01 4.954 3.286 8.983 7.348 8.998 4.061.005 7.374-4.005 7.393-8.963.01-4.947-3.278-8.975-7.347-8.982-4.07-.017-7.383 4-7.394 8.947m75.632-6.483c.972-.785 3.104-2.33 5.219-2.68 2.888-.461 6.74 1.024 7.168 3.64 1.038 6.256-6.658 5.87-6.087 9.274 0 0 .22 1.806 2.314 1.458 1.652-.26 3.838-2.011 3.838-2.011l.02 4.438c-.593.34-1.676.79-3.53 1.095-3.33.535-7.851-.276-8.397-3.62-.774-4.694 5.765-4.86 5.289-7.74 0 0-.26-1.754-2.507-1.39-1.496.243-3.291 1.539-3.291 1.539z"/></g><g clip-path="url(#c)" transform="matrix(.35278 0 0 -.35278 -365.5 158.747)"><path fill="currentColor" d="M1043.767 343.47s3.342-.22 3.354 1.886c.008 2.41-3.33 2.155-3.33 2.155l-.03-.002v-4.033zm-.084-3.734v-4.981h-5.193v12.792h-1.676v5.355l.47-.003 1.608.001c4.841-.026 14.227-.376 14.198-7.614-.031-5.795-9.339-5.534-9.339-5.534zm32.245 3.734s3.343-.22 3.354 1.886c.01 2.41-3.328 2.155-3.328 2.155l-.029-.002v-4.033zm-.082-3.734v-4.981h-5.196v12.792h-1.672v5.355l.47-.003 1.606.001c4.84-.026 14.227-.376 14.198-7.614-.03-5.795-9.339-5.534-9.339-5.534zm23.337-3.689c-1.378-1.99-3.825-3.72-6.13-3.72-4.15 0-7.512 4.094-7.512 9.142 0 5.05 3.366 9.32 7.511 9.144 5.512-.237 7.282-4.09 6.973-10.446l-9.68-.01s.28-6.049 7.51-2.137zm-2.479 7.488s-.405 3.066-3.297 3.007c-2.414-.047-2.816-3.013-2.816-3.013zm31.18-7.488c-1.379-1.99-3.827-3.72-6.132-3.72-4.149 0-7.512 4.094-7.512 9.142 0 5.05 3.367 9.32 7.512 9.144 5.511-.237 7.282-4.09 6.973-10.446l-9.681-.01s.283-6.049 7.511-2.137zm-2.478 7.488s-.406 3.066-3.3 3.007c-2.414-.047-2.816-3.013-2.816-3.013zm15.432-9.478a1.011 1.002 0 1 0 0 2.003 1.011 1.002 0 1 0 0-2.003m0 1.87a.875.867 0 1 1 0-1.734.875.867 0 1 1 0 1.733m.267-1.44-.29.475h-.173v-.475h-.186v1.11h.426c.28 0 .407-.102.407-.323 0-.179-.088-.27-.293-.298l.315-.489zm-.242.955h-.221v-.326h.204c.19 0 .26.045.26.171 0 .106-.07.155-.243.155"/><path fill="currentColor" d="M1111.57 360.055a1.01 1 0 0 0-1.012 1.002 1.01 1 0 0 0 1.011 1.001 1.011 1.002 0 0 0 1.012-1 1.011 1.002 0 0 0-1.012-1.003m0 1.87a.878.87 0 0 1-.878-.868.88.872 0 0 1 .878-.87.878.87 0 0 1 0 1.738m.266-1.44-.289.473h-.172v-.473h-.188v1.107h.425c.282 0 .41-.1.41-.323 0-.179-.088-.27-.292-.298l.314-.486zm-.242.953h-.22v-.325h.205c.19 0 .26.043.26.17 0 .106-.072.155-.245.155"/></g></svg>