<svg xmlns="http://www.w3.org/2000/svg" id="svg8241" width="142.177" height="157.909" viewBox="0 0 37.618 41.78"><defs id="defs8235"><clipPath id="clipPath7274" clipPathUnits="userSpaceOnUse"><path id="path7272" d="M1016 321.24h171.36v139.32H1016Z"/></clipPath><clipPath id="clipPath7254" clipPathUnits="userSpaceOnUse"><path id="path7252" d="M1036.814 332.31h105.132v116.93h-105.132z"/></clipPath><clipPath id="clipPath7090" clipPathUnits="userSpaceOnUse"><path id="path7088" d="M1016 321.24h171.36v139.32H1016Z"/></clipPath></defs><g id="layer1" transform="translate(32.907 -151.113)"><g id="g8892" transform="matrix(.35278 0 0 -.35278 -398.407 309.86)"><g id="g7084"><g id="g7086" clip-path="url(#clipPath7090)"><g id="g7092" transform="matrix(.33273 0 0 -.32945 980 2720.28)"><g id="g7094" transform="translate(328.176 7133.778)"><path id="path7096" d="M0 0c55.443 0 100.388-44.947 100.388-100.384 0-55.442-44.945-100.389-100.388-100.389-55.441 0-100.385 44.947-100.385 100.389C-100.385-44.947-55.441 0 0 0" fill="#fff" fill-opacity="1" fill-rule="nonzero" stroke="none"/></g></g><g id="g7098" transform="matrix(.33273 0 0 -.32945 980 2720.28)"><g id="g7100" transform="translate(193.028 7032.338)"><path id="path7102" d="M0 0c0 75.089 61.087 136.181 136.176 136.181 75.094 0 136.178-61.092 136.178-136.181 0-75.086-61.084-136.174-136.178-136.174C61.087-136.174 0-75.086 0 0m47.035 0c0-49.155 39.989-89.138 89.141-89.138 49.158 0 89.146 39.983 89.146 89.138 0 49.157-39.988 89.145-89.146 89.145-49.152 0-89.141-39.988-89.141-89.145" fill="#c41230" fill-opacity="1" fill-rule="nonzero" stroke="none"/></g></g><g id="g7104" transform="matrix(.33273 0 0 -.32945 980 2720.28)"><g id="g7106" transform="translate(329.204 6893.373)"><path id="path7108" d="M0 0c-18.758 0-36.956 3.676-54.091 10.924a138.5 138.5 0 0 0-23.605 12.815 139.6 139.6 0 0 0-37.531 37.525 139 139 0 0 0-12.814 23.613c-7.25 17.134-10.926 35.333-10.926 54.091 0 18.751 3.676 36.959 10.926 54.097a139.3 139.3 0 0 0 12.814 23.606 140.4 140.4 0 0 0 16.964 20.558 139.7 139.7 0 0 0 20.567 16.969 139 139 0 0 0 23.605 12.813c17.135 7.244 35.333 10.926 54.091 10.926 18.76 0 36.958-3.682 54.094-10.926a139.3 139.3 0 0 0 23.609-12.813 139.8 139.8 0 0 0 20.56-16.969 139.6 139.6 0 0 0 16.967-20.558 139 139 0 0 0 12.814-23.606c7.247-17.138 10.925-35.346 10.925-54.097 0-18.758-3.678-36.957-10.925-54.091a138.7 138.7 0 0 0-12.814-23.613 139.6 139.6 0 0 0-16.967-20.56 139.7 139.7 0 0 0-20.56-16.965 139 139 0 0 0-23.605-12.815C36.958 3.676 18.76 0 0 0m-133.387 138.968C-133.387 65.302-73.665 5.579 0 5.579c73.673 0 133.388 59.723 133.388 133.389 0 73.674-59.715 133.386-133.388 133.386-73.665 0-133.387-59.712-133.387-133.386M0 47.035c-50.771 0-91.927 41.155-91.927 91.933 0 50.771 41.156 91.931 91.927 91.931 50.777 0 91.933-41.16 91.933-91.931C91.933 88.19 50.777 47.035 0 47.035m0 178.292c-11.66 0-22.966-2.285-33.612-6.791-10.285-4.346-19.519-10.574-27.448-18.508-7.935-7.933-14.159-17.168-18.51-27.447-4.504-10.647-6.782-21.952-6.782-33.613s2.278-22.972 6.782-33.614c4.351-10.284 10.575-19.518 18.51-27.448 7.929-7.934 17.163-14.163 27.448-18.509C-22.966 54.893-11.66 52.61 0 52.61s22.972 2.283 33.614 6.787c10.284 4.346 19.519 10.575 27.456 18.509 7.927 7.93 14.154 17.164 18.507 27.448 4.498 10.642 6.784 21.954 6.784 33.614 0 11.661-2.286 22.966-6.784 33.613-4.353 10.279-10.58 19.514-18.507 27.447-7.937 7.934-17.172 14.162-27.456 18.508-10.642 4.506-21.953 6.791-33.614 6.791" fill="#fff" fill-opacity="1" fill-rule="nonzero" stroke="none"/></g></g><g id="g7110" transform="matrix(.33273 0 0 -.32945 980 2720.28)"><g id="g7112" transform="translate(231.028 7014.044)"><path id="path7114" d="m0 0-3.852-1.295.731-2.177c.407-1.203-.014-1.944-1.224-2.345l-14.499-4.874c-1.207-.402-1.958-.054-2.36 1.148l-.731 2.18-3.854-1.298 5.803-17.279 3.854 1.294-.889 2.644c-.405 1.205-.016 1.932 1.193 2.335l14.499 4.876c1.639.548 1.91.303 2.574-1.671l.788-2.345c.897-2.682-.067-5.24-3.922-6.533l-2.308-.779 1.498-4.451 11.655 3.913z" fill="#fff" fill-opacity="1" fill-rule="nonzero" stroke="none"/></g></g><g id="g7116" transform="matrix(.33273 0 0 -.32945 980 2720.28)"><g id="g7118" transform="translate(231.397 6959.034)"><path id="path7120" d="M0 0c-2.015 2.687-1.122 4.675 5.043 9.3 6.187 4.646 8.462 5.028 10.473 2.341 2.015-2.685.988-4.738-5.199-9.375C4.157-2.36 2.016-2.684 0 0m19.052 14.291c-5.599 7.458-13.603 8.476-20.331 3.433-6.7-5.027-7.88-12.933-2.28-20.394 5.594-7.464 13.519-8.539 20.215-3.517 6.726 5.044 7.991 13.016 2.396 20.478" fill="#fff" fill-opacity="1" fill-rule="nonzero" stroke="none"/></g></g><g id="g7122" transform="matrix(.33273 0 0 -.32945 980 2720.28)"><g id="g7124" transform="translate(270.854 6924.196)"><path id="path7126" d="M0 0c-1.042.731-.96 1.885-.229 2.925l5.488 7.804c5.024 7.131 2.868 12.233-3.254 16.548-6.792 4.777-12.321 5.948-17.464-1.365l-5.979-8.488c-.731-1.041-1.505-1.274-2.662-.461l-.863.61-2.34-3.327 13.148-9.248 2.338 3.318-1.506 1.062c-1.041.731-1.142 1.623-.411 2.66l6.572 9.337c2.117 3.005 4.791 2.762 7.771.665 2.796-1.976 3.249-4.707 1.42-7.311L-4.295 5.75c-.731-1.042-1.772-1.479-2.843-.728l-1.331.94-2.334-3.326 9.793-6.895L1.33-.938z" fill="#fff" fill-opacity="1" fill-rule="nonzero" stroke="none"/></g></g><g id="g7128" transform="matrix(.33273 0 0 -.32945 980 2720.28)"><g id="g7130" transform="translate(287.635 6942.173)"><path id="path7132" d="m0 0-1.371-3.827 2.461-.877c1.2-.427 1.336-.778.9-2.006l-5.148-14.406c-.432-1.2-1.275-1.875-2.473-1.448l-2.163.771-1.363-3.822 16.534-5.91 1.365 3.822-2.193.788c-1.197.427-1.193 1.061-.766 2.264l5.146 14.402c.426 1.199 1.174 1.603 2.372 1.177l1.861-.664 1.371 3.826z" fill="#fff" fill-opacity="1" fill-rule="nonzero" stroke="none"/></g></g><g id="g7134" transform="matrix(.33273 0 0 -.32945 980 2720.28)"><g id="g7136" transform="translate(323.642 6933.932)"><path id="path7138" d="M0 0c-4.373.3-7.072-.9-8.555-.798-.706.046-1.012.741-.983 1.132l-3.845.258-.704-10.366 4.335-.292.05.775c.257 3.808 3.472 5.213 7.351 4.955 3.558-.242 5.291-1.351 5.172-3.047-.101-1.511-.96-2.161-4.893-2.746l-5.868-.843c-3.681-.522-6.645-2.944-6.901-7.214-.379-6.059 4.936-9.183 11.103-9.604 3.981-.275 5.448.969 6.611.894 1.061-.072 1.279-.513 1.274-1.078l4.088-.283.649 9.52-4.548.314-.063-.886c-.213-3.135-2.852-4.476-6.234-4.248-2.893.199-4.767.717-4.655 2.372.082 1.199.765 1.892 3.951 2.385l6.086.969c3.904.62 7.148 2.518 7.431 7.174C11.321-3.25 5.669-.387 0 0" fill="#fff" fill-opacity="1" fill-rule="nonzero" stroke="none"/></g></g><g id="g7140" transform="matrix(.33273 0 0 -.32945 980 2720.28)"><g id="g7142" transform="translate(338.42 6933.503)"><path id="path7144" d="m0 0 .726-4.001 2.573.471c1.254.227 1.549-.005 1.782-1.29l2.751-15.051c.224-1.249-.165-2.255-1.415-2.483l-2.261-.412.732-3.999 17.273 3.156-.733 3.996-2.289-.416c-1.256-.228-1.571.32-1.798 1.574L14.59-3.409c-.229 1.254.213 1.981 1.467 2.209L18-.843l-.725 3.993Z" fill="#fff" fill-opacity="1" fill-rule="nonzero" stroke="none"/></g></g><g id="g7146" transform="matrix(.33273 0 0 -.32945 980 2720.28)"><g id="g7148" transform="translate(383.727 6926.115)"><path id="path7150" d="m0 0-7.316 6.26 6.011 3.219zm-8.484 18.703 1.919-3.584 2.553 1.365c1.031.553 1.767.067 1.908-.939l.285-1.894-8.722-4.665-1.293 1.153c-1.068.949-.869 1.7.345 2.35l1.994 1.068-1.919 3.577-11.123-5.949 1.919-3.58.654.352c.965.516 2.19.772 3.148-.042L.948-7.102l8.071 4.316-2.66 22.575c-.125 1.295.16 2.33 1.311 2.944l.874.469-1.919 3.584z" fill="#fff" fill-opacity="1" fill-rule="nonzero" stroke="none"/></g></g><g id="g7152" transform="matrix(.33273 0 0 -.32945 980 2720.28)"><g id="g7154" transform="translate(432.162 6965.063)"><path id="path7156" d="M0 0c-.823-.964-1.672-1.038-2.64-.213l-16.204 13.775-5.788-6.809 5.158-20.714-8.665 7.367c-.97.828-1.066 1.697-.238 2.665l1.531 1.802-3.096 2.635-8.787-10.337 3.096-2.632 1.488 1.751c.823.968 1.694 1.015 2.664.192l11.412-9.707c.97-.823 1.284-1.873.459-2.842l-1.487-1.75 3.096-2.631 8.623 10.149-5.067 20.162 8.374-7.111c.969-.828 1.062-1.644.238-2.615l-1.506-1.776 3.09-2.63L4.538-.939 1.442 1.696z" fill="#fff" fill-opacity="1" fill-rule="nonzero" stroke="none"/></g></g><g id="g7158" transform="matrix(.33273 0 0 -.32945 980 2720.28)"><g id="g7160" transform="translate(440.663 6989.508)"><path id="path7162" d="m0 0-9.63-.202 2.341 6.408zm-18.782 8.299 3.816-1.395.997 2.722c.398 1.096 1.274 1.23 2.044.567l1.473-1.216-3.395-9.292-1.734-.004c-1.425-.005-1.773.69-1.303 1.981l.776 2.121-3.818 1.396-4.331-11.844 3.818-1.395.257.698c.373 1.026 1.114 2.03 2.369 2.069l23.256.634 3.143 8.594-17.022 15.067c-.96.879-1.438 1.837-.985 3.066l.34.929-3.816 1.398z" fill="#fff" fill-opacity="1" fill-rule="nonzero" stroke="none"/></g></g><g id="g7164" transform="matrix(.33273 0 0 -.32945 980 2720.28)"><g id="g7166" transform="translate(224.09 7101.472)"><path id="path7168" d="m0 0 3.396-2.231.873 1.332c.508.77 1.199 1.117 1.762.752.382-.254.706-.723.969-1.357l2.271-5.75-4.467-1.215-2.31 1.514c-1.061.695-1.438 1.158-.741 2.218l.927 1.416-3.397 2.229-9.122-13.918 3.397-2.225 1.259 1.918c.702 1.067 1.539 1.188 2.605.487l12.793-8.381c1.066-.701 1.26-1.502.558-2.563l-1.259-1.918 3.4-2.228 9.606 14.648-3.396 2.229-1.415-2.157c-.697-1.06-1.297-.88-2.358-.183L9.353-11.45l9.736 2.612c.675.191 1.106.207 1.639-.143.411-.275.488-.871.198-1.31l-.872-1.33 3.396-2.229 8.193 12.5L28.241.873l-1.488-2.274c-.604-.914-1.705-1.5-3.03-1.853l-6.279-1.715-5.208 13.512c-.543 1.365-.586 1.816-.117 2.521l1.004 1.541-3.401 2.229z" fill="#fff" fill-opacity="1" fill-rule="nonzero" stroke="none"/></g></g><g id="g7170" transform="matrix(.33273 0 0 -.32945 980 2720.28)"><g id="g7172" transform="translate(240.956 7122.42)"><path id="path7174" d="m0 0 2.633-3.09 1.99 1.693c.97.825 1.341.768 2.189-.228l9.92-11.645c.828-.965.989-2.029.025-2.851l-1.753-1.492 2.635-3.092L31.007-9.32l-2.635 3.093-1.777-1.509c-.964-.829-1.518-.508-2.34.462l-9.92 11.643c-.828.969-.808 1.82.158 2.643l1.508 1.285-2.635 3.092z" fill="#fff" fill-opacity="1" fill-rule="nonzero" stroke="none"/></g></g><g id="g7176" transform="matrix(.33273 0 0 -.32945 980 2720.28)"><g id="g7178" transform="translate(294.154 7137.575)"><path id="path7180" d="m0 0 1.358-3.103c1.147-2.621.731-4.657-1.886-5.809l-1.17-.508-6.821 15.563c-.523 1.193-.03 2.453 1.132 2.967l2.782 1.218-1.629 3.721-18.383-8.057 1.628-3.718 2.819 1.23c1.167.512 2.389.006 2.913-1.193l6.824-15.563-1.163-.508c-2.62-1.148-4.407-.084-5.555 2.543l-1.358 3.1-4.205-1.84 4.748-10.842L8.954-8.994 4.202 1.846z" fill="#fff" fill-opacity="1" fill-rule="nonzero" stroke="none"/></g></g><g id="g7182" transform="matrix(.33273 0 0 -.32945 980 2720.28)"><g id="g7184" transform="translate(318.572 7158.163)"><path id="path7186" d="M0 0c-9.148-.832-13.941-7.053-13.184-15.389.813-8.904 7.158-13.539 15.637-12.773 3.026.275 5.019 1.346 5.772 1.699.645.309.781 0 1.334-1.053l4.398.399-.987 10.871-4.822-.436.093-1.023c.294-3.197-.96-5.404-4.301-5.711-4.016-.363-5.878 2.625-6.448 8.82-.645 7.108.726 9.996 5.056 10.393 3.692.328 5.053-1.74 5.606-5.524l.193-1.33 4.715.426-.117 1.305C12.459-3.943 8.87.805 0 0" fill="#fff" fill-opacity="1" fill-rule="nonzero" stroke="none"/></g></g><g id="g7188" transform="matrix(.33273 0 0 -.32945 980 2720.28)"><g id="g7190" transform="translate(363.29 7153.462)"><path id="path7192" d="m0 0-1.076-3.918 1.461-.4c1.228-.336 1.604-1.096 1.27-2.327L.126-12.197l-7.838 2.152 1.526 5.553c.338 1.228 1.051 1.689 2.281 1.355l1.462-.408 1.078 3.92-16.354 4.494-1.076-3.918 2.219-.605c1.224-.34 1.599-1.1 1.264-2.325l-4.055-14.757c-.335-1.223-1.042-1.649-2.266-1.317l-2.218.61-1.077-3.918 16.359-4.495 1.069 3.922-1.462.395c-1.226.338-1.613 1.07-1.274 2.295l1.395 5.076 7.833-2.152-1.394-5.077c-.334-1.222-1.042-1.654-2.27-1.316l-1.461.402-1.076-3.92 16.316-4.484 1.076 3.924-2.214.601c-1.222.34-1.58 1.057-1.237 2.286l4.05 14.752c.341 1.224 1.019 1.699 2.244 1.361l2.213-.611 1.077 3.919z" fill="#fff" fill-opacity="1" fill-rule="nonzero" stroke="none"/></g></g><g id="g7194" transform="matrix(.33273 0 0 -.32945 980 2720.28)"><g id="g7196" transform="translate(391.918 7142.378)"><path id="path7198" d="m0 0-2.405-3.279 1.852-1.354C.47-5.391.763-5.955-.01-7.006l-9.458-12.869c-.749-1.024-1.354-.887-2.379-.137l-1.849 1.361-2.41-3.275L6.733-38.705l6.524 8.887-3.67 2.699-1.072-1.451c-2.093-2.85-4.558-3.051-6.868-1.356l-2.96 2.178c-1.027.752-1.361 1.305-.61 2.33l3.432 4.67 1.595-1.172c.912-.67.862-1.508.171-2.451L1.936-26.19l3.305-2.425 7.61 10.367-3.299 2.42-1.719-2.33c-.669-.914-1.522-1.121-2.431-.453l-1.507 1.107 3.636 4.955c.776 1.057 1.286 1.029 2.308.279l2.731-2.006c2.762-2.029 3.732-4.234 1.105-7.822l-1.027-1.392 3.671-2.7 6.777 9.225z" fill="#fff" fill-opacity="1" fill-rule="nonzero" stroke="none"/></g></g><g id="g7200" transform="matrix(.33273 0 0 -.32945 980 2720.28)"><g id="g7202" transform="translate(423.86 7075.017)"><path id="path7204" d="M0 0c-.688 1.072-.513 1.898.559 2.589l17.869 11.534-4.846 7.509-21.318 1.041 9.554 6.166c1.069.698 1.93.534 2.619-.531l1.284-1.992 3.419 2.203-7.357 11.399-3.416-2.204 1.242-1.929c.697-1.065.483-1.918-.588-2.61l-12.585-8.121c-1.07-.689-2.163-.681-2.852.385l-1.247 1.93-3.414-2.2 7.223-11.193 20.77-.98-9.232-5.955c-1.063-.692-1.884-.538-2.567.529l-1.269 1.957-3.411-2.195 7.355-11.403 3.413 2.203z" fill="#fff" fill-opacity="1" fill-rule="nonzero" stroke="none"/></g></g><g id="g7206" transform="matrix(.33273 0 0 -.32945 980 2720.28)"><g id="g7208" transform="translate(341.586 7054.758)"><path id="path7210" d="m0 0-.396.276L2.285 7.63C14.347 2.419 37.896-9.983 42.922-29.026 29.984-9.964 0 0 0 0" fill="#c41230" fill-opacity="1" fill-rule="nonzero" stroke="none"/></g></g><g id="g7212" transform="matrix(.33273 0 0 -.32945 980 2720.28)"><g id="g7214" transform="translate(323.577 7004.466)"><path id="path7216" d="m0 0-.183.074 2.93 8.049c6.532-1.229 15.396-.914 18.782 8.477.344.974.548 1.91.639 2.801 3.692-3.206 6.24-7.604 4.224-13.239C20.778-9.432 0 0 0 0" fill="#c41230" fill-opacity="1" fill-rule="nonzero" stroke="none"/></g></g><g id="g7218" transform="matrix(.33273 0 0 -.32945 980 2720.28)"><g id="g7220" transform="translate(289.514 7016.585)"><path id="path7222" d="m0 0-10.722 3.904-9.823-26.977-4.631 1.686-3.021 1.086 12.607 34.643 10.721-3.903 30.125 82.77L58.539 81.09l-2.788-7.651-25.632 9.327z" fill="#c41230" fill-opacity="1" fill-rule="nonzero" stroke="none"/></g></g><g id="g7224" transform="matrix(.33273 0 0 -.32945 980 2720.28)"><g id="g7226" transform="translate(335.674 7024.76)"><path id="path7228" d="M0 0s21.936-6.381 17.048-20.031c-5.62-15.599-26.394-6.163-26.394-6.163l-.187.083L-.039-.03zm8.274 24.374 11.718 32.205-33.278 12.113-30.125-82.764-10.727 3.905-12.604-34.643 3.023-1.087 10.279-3.75C-22.363-60.76 38.594-80.383 55.457-33.488 68.909 4.088 8.661 24.1 8.661 24.1Z" fill="#f58427" fill-opacity="1" fill-rule="nonzero" stroke="none"/></g></g><g id="g7230" transform="matrix(.33273 0 0 -.32945 980 2720.28)"><g id="g7232" transform="translate(217.799 7060.835)"><path id="path7234" d="M0 0c-.05 0-.122-.166-.137-.209-.232-.537-.401-.881-.782-1.264-.254-.258-.482-.519-.72-.79-1.117-1.28-1.447-2.94-1.045-4.587.125-.494.271-.979.416-1.462.196-.68.384-1.344.476-2.039.039-.31.062-.63.051-.956 0-.178-.478-.151-.522.038-.067.303-.144.612-.226.918-.195.716-.436 1.412-.786 2.039a5.2 5.2 0 0 1-1.138 1.419c-.922.806-2.257 1.181-3.386.561-1.816-.993-1.492-3.249-.213-4.019a.9.9 0 0 1 .397-.123c-.006.045-.006.082-.006.123-.009.513.068 1.056.543 1.359a1.6 1.6 0 0 0 1.905-.15c.31-.285.58-.769.751-1.209.163-.413.25-.786.213-.945-.04-.234-.868-.021-1.254-.293a.81.81 0 0 1-.321-.798.9.9 0 0 1 .139-.339c.375-.591 1.354-.184 1.436-.504.042-.132-.05-.634-.311-1.197-.358-.768-1.033-1.631-2.166-1.777-.57-.073-1.113.049-1.569.416-.451.359-.691.806-.706 1.361-.01.213.015.441.067.684-.34.213-1.57-.117-2.355-.707-.027-.019.029.027 0 0-.635-.516-1.173-1.241-1.413-2.014a3.7 3.7 0 0 1-.146-.71c-.204-1.782.689-3.569 2.32-4.325.882-.407 1.822-.594 2.816-.407 1.056.198 1.916.701 2.682 1.417 1.125 1.05 1.666 2.453 2.208 3.854q.029.081.065.171c.228.651.362 1.38.449 2.037.059.441.101.853.136 1.187.015.142.471.102.476-.052a10 10 0 0 0-.055-1.135 12 12 0 0 0-.416-2.037c-.461-1.589-1.182-3.116-1.822-4.655-.421-.995-.692-2.047-.682-3.127.015-.964.377-1.835.833-2.682.595-1.106 1.631-1.73 2.417-2.708.702-.885.984-1.91 1.23-3.019.014-.063.106-.115.151-.115.049 0 .141.052.151.115.245 1.109.528 2.134 1.23 3.019.788.978 1.822 1.602 2.416 2.708.461.847.823 1.718.833 2.682.01 1.08-.26 2.132-.677 3.127-.644 1.539-1.365 3.066-1.827 4.655a12.7 12.7 0 0 0-.416 2.037c-.035.375-.059.756-.054 1.135.004.154.461.194.475.052.038-.334.082-.746.137-1.187.087-.657.226-1.386.454-2.037a1.4 1.4 0 0 1 .064-.171c.538-1.401 1.083-2.804 2.203-3.854.766-.716 1.627-1.219 2.683-1.417.994-.187 1.933 0 2.816.407 1.63.756 2.523 2.543 2.325 4.325q-.044.366-.146.71c-.246.773-.784 1.498-1.418 2.014-.03.027.032-.019 0 0-.781.59-2.016.92-2.355.707a2.5 2.5 0 0 0 .072-.684c-.015-.555-.255-1.002-.712-1.361-.456-.367-.993-.489-1.564-.416-1.13.146-1.816 1.009-2.171 1.777-.261.563-.352 1.065-.31 1.197.086.32 1.061-.087 1.44.504.067.105.111.222.139.339a.82.82 0 0 1-.325.798c-.387.272-1.214.059-1.254.293-.03.159.049.532.213.945.179.44.441.924.751 1.209a1.6 1.6 0 0 0 1.904.15c.476-.303.553-.846.543-1.359 0-.041 0-.078-.005-.123a.85.85 0 0 1 .396.123c1.279.77 1.609 3.026-.213 4.019-1.128.62-2.464.245-3.38-.561a5.2 5.2 0 0 1-1.144-1.419c-.354-.627-.59-1.323-.78-2.039a33 33 0 0 1-.231-.918c-.039-.189-.523-.216-.523-.038-.005.326.017.646.052.956.092.695.28 1.359.476 2.039.144.483.295.968.416 1.462.402 1.647.072 3.307-1.043 4.587-.241.271-.469.532-.722.79C.538-1.09.372-.746.141-.209.126-.166.049 0 0 0" fill="#f58427" fill-opacity="1" fill-rule="nonzero" stroke="none"/></g></g><g id="g7236" transform="matrix(.33273 0 0 -.32945 980 2720.28)"><g id="g7238" transform="translate(441.433 7060.835)"><path id="path7240" d="M0 0c-.053 0-.12-.166-.144-.209-.227-.537-.394-.881-.776-1.264a19 19 0 0 1-.721-.79c-1.121-1.28-1.452-2.94-1.046-4.587q.195-.74.416-1.462c.199-.68.386-1.344.473-2.039q.062-.466.055-.956c0-.178-.481-.151-.522.038-.07.303-.141.612-.228.918-.194.716-.432 1.412-.782 2.039a5.4 5.4 0 0 1-1.137 1.419c-.931.806-2.264 1.181-3.387.561-1.821-.993-1.492-3.249-.212-4.019a.84.84 0 0 1 .397-.123c-.006.045-.006.082-.006.123-.01.513.065 1.056.537 1.359a1.6 1.6 0 0 0 1.904-.15c.316-.285.578-.769.751-1.209.163-.413.249-.786.22-.945-.049-.234-.869-.021-1.256-.293a.8.8 0 0 1-.324-.798c.024-.117.072-.234.135-.339.383-.591 1.358-.184 1.445-.504.034-.132-.053-.634-.311-1.197-.36-.768-1.047-1.631-2.175-1.777-.567-.073-1.109.049-1.561.416-.459.359-.695.806-.711 1.361-.01.213.016.441.067.684-.338.213-1.568-.117-2.353-.707-.029-.019.027.027 0 0-.635-.516-1.172-1.241-1.414-2.014a4.5 4.5 0 0 1-.147-.71c-.198-1.782.694-3.569 2.326-4.325.877-.407 1.816-.594 2.815-.407 1.051.198 1.908.701 2.674 1.417 1.129 1.05 1.667 2.453 2.21 3.854q.033.081.067.171c.228.651.359 1.38.45 2.037.058.441.097.853.131 1.187.019.142.479.102.479-.052a9 9 0 0 0-.057-1.135 12 12 0 0 0-.408-2.037c-.47-1.589-1.187-3.116-1.824-4.655-.418-.995-.69-2.047-.686-3.127.015-.964.375-1.835.838-2.682.593-1.106 1.628-1.73 2.412-2.708.703-.885.984-1.91 1.228-3.019.014-.063.105-.115.158-.115.045 0 .138.052.151.115.242 1.109.524 2.134 1.23 3.019.781.978 1.816 1.602 2.417 2.708.456.847.82 1.718.826 2.682.016 1.08-.258 2.132-.676 3.127-.64 1.539-1.359 3.066-1.821 4.655a12 12 0 0 0-.417 2.037 9 9 0 0 0-.057 1.135c0 .154.459.194.48.052.033-.334.075-.746.13-1.187.097-.657.223-1.386.456-2.037q.026-.09.062-.171c.543-1.401 1.086-2.804 2.209-3.854.766-.716 1.623-1.219 2.674-1.417 1.002-.187 1.94 0 2.818.407 1.635.756 2.529 2.543 2.325 4.325a3.5 3.5 0 0 1-.148.71c-.237.773-.78 1.498-1.415 2.014-.024.027.03-.019 0 0-.781.59-2.016.92-2.351.707.05-.243.078-.471.071-.684-.021-.555-.258-1.002-.714-1.361-.454-.367-.997-.489-1.569-.416-1.124.146-1.813 1.009-2.169 1.777-.254.563-.349 1.065-.312 1.197.087.32 1.062-.087 1.444.504a.84.84 0 0 1 .136.339.8.8 0 0 1-.324.798c-.384.272-1.212.059-1.256.293-.028.159.058.532.223.945.171.44.434.924.75 1.209a1.6 1.6 0 0 0 1.905.15c.469-.303.547-.846.537-1.359v-.123a.9.9 0 0 1 .394.123c1.274.77 1.606 3.026-.217 4.019-1.127.62-2.457.245-3.383-.561a5.3 5.3 0 0 1-1.14-1.419c-.347-.627-.589-1.323-.783-2.039-.083-.306-.15-.615-.229-.918-.034-.189-.517-.216-.521-.038a6 6 0 0 0 .057.956c.091.695.277 1.359.475 2.039.141.483.29.968.412 1.462.411 1.647.077 3.307-1.042 4.587-.237.271-.466.532-.726.79C.538-1.09.369-.746.138-.209.121-.166.051 0 0 0" fill="#f58427" fill-opacity="1" fill-rule="nonzero" stroke="none"/></g></g><g id="g7242" transform="matrix(.33273 0 0 -.32945 980 2720.28)"><g id="g7244" transform="translate(407.029 7191.919)"><path id="path7246" d="M0 0c0 13.047-6.824 24.141-16.337 28.183l.01.125v20.809h-15.824V28.369l-.031-.141C-41.73 24.207-48.599 13.09-48.599 0v-6.533h16.261V5.31c0 5.385 3.552 9.747 7.939 9.747 4.386 0 7.944-4.362 7.944-9.747V-6.594H0Z" fill="#f58427" fill-opacity="1" fill-rule="nonzero" stroke="none"/></g></g></g></g><g id="g7248"><g id="g7250" clip-path="url(#clipPath7254)"><g id="g7256" transform="matrix(.33273 0 0 -.32945 980 2720.28)"><g id="g7258" transform="translate(241.095 7224.013)"><path id="path7260" d="M0 0c5.158 0 9.29-4.844 9.29-10.744.03-5.928-4.193-10.694-9.315-10.7-5.173.006-9.295 4.848-9.29 10.752C-9.305-4.772-5.139.009 0 0m-19.191-14.381c-.03-15.037 9.876-27.268 22.084-27.313 12.206-.015 22.161 12.158 22.219 27.205.032 15.016-9.853 27.243-22.08 27.266-12.236.051-22.191-12.143-22.223-27.158" fill="#f58427" fill-opacity="1" fill-rule="nonzero" stroke="none"/></g></g><g id="g7262" transform="matrix(.33273 0 0 -.32945 980 2720.28)"><g id="g7264" transform="translate(449.21 7229.308)"><path id="path7266" d="M0 0c2.923 2.384 9.331 7.076 15.686 8.136 8.681 1.401 20.255-3.107 21.542-11.047 3.12-18.99-20.009-17.818-18.292-28.15 0 0 .66-5.482 6.953-4.426 4.966.789 11.535 6.104 11.535 6.104l.061-13.473c-1.782-1.031-5.036-2.396-10.609-3.322-10.007-1.623-23.596.838-25.237 10.986-2.326 14.25 17.327 14.752 15.895 23.498 0 0-.782 5.322-7.535 4.215-4.495-.736-9.891-4.67-9.891-4.67z" fill="#f58427" fill-opacity="1" fill-rule="nonzero" stroke="none"/></g></g></g></g><g id="g7268"><g id="g7270" clip-path="url(#clipPath7274)"><g id="g7276" transform="matrix(.33273 0 0 -.32945 980 2720.28)"><g id="g7278" transform="translate(191.647 7214.479)"><path id="path7280" d="M0 0s10.046.665 10.081-5.726C10.106-13.041.074-12.265.074-12.265l-.091.006v12.24zm-.251 11.334v15.12H-15.86v-38.831h-5.037V-28.63l1.416.009 4.829-.004c14.551.079 42.759 1.141 42.672 23.112C27.926 12.077-.047 11.286-.047 11.286z" fill="#f58427" fill-opacity="1" fill-rule="nonzero" stroke="none"/></g></g><g id="g7282" transform="matrix(.33273 0 0 -.32945 980 2720.28)"><g id="g7284" transform="translate(288.306 7214.479)"><path id="path7286" d="M0 0s10.047.665 10.081-5.726C10.109-13.041.077-12.265.077-12.265l-.086.006v12.24zm-.247 11.334v15.12h-15.617v-38.831h-5.025V-28.63l1.415.009 4.824-.004c14.549.079 42.76 1.141 42.673 23.112C27.932 12.077-.044 11.286-.044 11.286z" fill="#f58427" fill-opacity="1" fill-rule="nonzero" stroke="none"/></g></g><g id="g7288" transform="matrix(.33273 0 0 -.32945 980 2720.28)"><g id="g7290" transform="translate(358.198 7237.009)"><path id="path7292" d="M0 0c-4.141 6.041-11.496 11.291-18.426 11.291-12.469 0-22.575-12.424-22.575-27.748 0-15.326 10.117-28.287 22.575-27.754 16.565.717 21.884 12.414 20.955 31.707l-29.093.031s.843 18.359 22.572 6.486zm-7.45-22.729s-1.219-9.304-9.911-9.127c-7.253.143-8.462 9.147-8.462 9.147z" fill="#f58427" fill-opacity="1" fill-rule="nonzero" stroke="none"/></g></g><g id="g7294" transform="matrix(.33273 0 0 -.32945 980 2720.28)"><g id="g7296" transform="translate(444.455 7237.009)"><path id="path7298" d="M0 0c-4.143 6.041-11.5 11.291-18.428 11.291-12.468 0-22.578-12.424-22.578-27.748 0-15.326 10.12-28.287 22.578-27.754 16.564.717 21.886 12.414 20.956 31.707l-29.095.031s.85 18.359 22.575 6.486zm-7.447-22.729s-1.219-9.304-9.916-9.127c-7.255.143-8.463 9.147-8.463 9.147z" fill="#f58427" fill-opacity="1" fill-rule="nonzero" stroke="none"/></g></g><g id="g7300" transform="matrix(.33273 0 0 -.32945 980 2720.28)"><g id="g7302" transform="translate(483.389 7243.05)"><path id="path7304" d="M0 0a3.04 3.04 0 1 1 0-6.08A3.04 3.04 0 1 1 0 0m0-5.674A2.63 2.63 0 1 0 0-.412a2.63 2.63 0 1 0 0-5.262m.801 4.371L-.07-2.742h-.519v1.439h-.56v-3.365H.132c.842 0 1.222.308 1.222.978 0 .543-.263.819-.878.905l.945 1.482zM.074-4.199h-.663v.988h.613c.573 0 .783-.137.783-.52 0-.32-.214-.468-.733-.468" fill="#f58427" fill-opacity="1" fill-rule="nonzero" stroke="none"/></g></g><g id="g7306" transform="matrix(.33273 0 0 -.32945 980 2720.28)"><g id="g7308" transform="translate(395.424 7164.138)"><path id="path7310" d="M0 0a3.036 3.036 0 0 1-3.039-3.043A3.037 3.037 0 0 1 0-6.082a3.04 3.04 0 0 1 3.041 3.039A3.04 3.04 0 0 1 0 0m0-5.676a2.64 2.64 0 0 0-2.64 2.633A2.647 2.647 0 0 0 0-.399a2.638 2.638 0 0 0 0-5.277m.798 4.371-.867-1.438h-.519v1.438h-.564v-3.361H.126c.847 0 1.229.304 1.229.98 0 .543-.263.817-.876.904l.944 1.477zM.071-4.198h-.659v.985h.614c.57 0 .781-.131.781-.514 0-.324-.217-.471-.736-.471" fill="#c41230" fill-opacity="1" fill-rule="nonzero" stroke="none"/></g></g></g></g></g></g></svg>