<svg xmlns="http://www.w3.org/2000/svg" fill="currentColor" fill-rule="evenodd" viewBox="0 0 24 24"><path d="M76.566 12.547c7.118-.274 21.525.667 33.05 11.016 9.455 8.49 12.712 24.227 10.509 36.43-2.02 11.187-6.779 20.34-4.915 28.814s6.608 12.653 10.644 14.408c3.898 1.694 7.666 1.186 6.949 4.406s-5.593 4.407-9.153 4.407c-1.952 0-7.855-.509-10.474-2.204-3.095-2.003-3.785-3.798-4.963-5.241-.2-.245-.553-.074-.506.238.537 3.55 2.017 9.573 4.418 13.309 1.943 3.022 2.746 5.226 7.197 8.955s6.531 7.118 2.203 9.519c-3.845 2.132-12.203-2.231-17.118-7.627-4.424-4.857-7.504-10.848-8.722-14.746-.651-2.084-1.304-5.669-1.955-8.601-.086-.386-.614-.324-.625.071-.217 7.463-1.39 14.59-3.105 22.231-1.235 5.501-4.237 12.203-6.95 16.271-3.306 4.96-8.215 6.508-11.863 5.152-2.919-1.085-.848-4.773 0-7.966.847-3.192 2.542-9.87 3.684-17.186 1.034-6.622 1.307-13.177.847-19.388-.029-.379-.61-.437-.729-.076-.95 2.913-2.743 7.742-4.051 10.679-2.728 6.125-4.747 8.813-10.34 15.254-5.03 5.792-19.498 13.983-21.356 5.932-.508-2.203 2.156-3.168 4.613-5.085 3.693-2.881 6.779-7.994 9.705-14.237 2.627-5.606 3.962-11.029 4.167-14.491.019-.334-.4-.46-.588-.184-1.217 1.784-3.007 4.198-4.98 6.2-3.295 3.345-6.95 6.788-11.187 8.475-6.814 2.712-13.763.847-13.255-4.067.425-4.106 5.008-3.256 10.714-9.481 5.593-6.102 7.457-10.848 7.796-16.102.27-4.204-3.842-14.18-5.932-18.644-3.333-7.119-5.797-27.322 4.237-40.339 12.542-16.27 27.626-15.933 32.034-16.102M57 41c-4.666 0-7 3.581-7 8 0 4.418 2.593 8 7 8s7-3.582 7-8-2.333-8-7-8m38 0c-4.666 0-7 3.581-7 8 0 4.418 2.593 8 7 8s7-3.582 7-8-2.333-8-7-8" clip-rule="evenodd"/></svg>