<svg xmlns="http://www.w3.org/2000/svg" xmlns:xlink="http://www.w3.org/1999/xlink" viewBox="0 0 128 128"><linearGradient id="a"><stop offset="0" stop-color="#fff" stop-opacity=".365"/><stop offset="1" stop-color="#fff" stop-opacity="0"/></linearGradient><linearGradient xlink:href="#a" id="b" x1="97.849" x2="113.346" y1="108.736" y2="101.178" gradientUnits="userSpaceOnUse"/><linearGradient id="c"><stop offset="0" stop-opacity=".102"/><stop offset="1" stop-opacity=".306"/></linearGradient><linearGradient xlink:href="#c" id="d" x1="71.77" x2="1.574" y1="86.422" y2="127.997" gradientUnits="userSpaceOnUse"/><linearGradient xlink:href="#c" id="e" x1="57.728" x2="102.563" y1="39.065" y2="79.068" gradientUnits="userSpaceOnUse"/><linearGradient xlink:href="#c" id="f" x1="97.85" x2="126.43" y1="108.733" y2="127.996" gradientUnits="userSpaceOnUse"/><linearGradient xlink:href="#a" id="g" x1="71.772" x2="30.047" y1="86.423" y2="68.745" gradientUnits="userSpaceOnUse"/><linearGradient xlink:href="#a" id="h" x1="70.513" x2="63.044" y1="62.847" y2="59.204" gradientTransform="matrix(-2.73936 0 0 2.73936 250.886 -133.095)" gradientUnits="userSpaceOnUse"/><path fill="#10a0cc" d="m64.002 0-22.01 45.13 60.572 33.936zM35.341 58.764 1.573 127.999l100.2-41.397zm73.842 33.876-31.602 18.142 48.846 17.217zm0 0"/><path fill="url(#b)" d="m97.849 108.735 11.334-16.098L126.427 128zm0 0"/><path fill="url(#d)" d="m1.573 127.999 70.2-41.578 30 .18zm0 0"/><path fill="url(#e)" d="M102.564 79.067 41.99 45.125l15.737-6.059zm0 0"/><path fill="url(#f)" d="m126.427 127.999-48.846-17.217 20.268-2.048zm0 0"/><path fill="url(#g)" d="m1.573 127.999 70.2-41.578L35.34 58.764zm0 0"/><path fill="url(#h)" d="m102.564 79.067-44.836-40L64.002 0zm0 0"/></svg>