<svg viewBox="0 0 128 128" xmlns="http://www.w3.org/2000/svg" xmlns:xlink="http://www.w3.org/1999/xlink"><linearGradient id="a"><stop offset="0" stop-color="#fff" stop-opacity=".365"/><stop offset="1" stop-color="#fff" stop-opacity="0"/></linearGradient><linearGradient id="b" gradientUnits="userSpaceOnUse" x1="97.849472" x2="113.346032" xlink:href="#a" y1="108.736209" y2="101.178315"/><linearGradient id="c"><stop offset="0" stop-opacity=".102"/><stop offset="1" stop-opacity=".306"/></linearGradient><linearGradient id="d" gradientUnits="userSpaceOnUse" x1="71.770426" x2="1.574326" xlink:href="#c" y1="86.422133" y2="127.9974"/><linearGradient id="e" gradientUnits="userSpaceOnUse" x1="57.728236" x2="102.563341" xlink:href="#c" y1="39.065213" y2="79.068087"/><linearGradient id="f" gradientUnits="userSpaceOnUse" x1="97.850236" x2="126.429979" xlink:href="#c" y1="108.733213" y2="127.996393"/><linearGradient id="g" gradientUnits="userSpaceOnUse" x1="71.772492" x2="30.04656" xlink:href="#a" y1="86.422558" y2="68.745468"/><linearGradient id="h" gradientTransform="matrix(-2.73936 0 0 2.73936 250.886 -133.095)" gradientUnits="userSpaceOnUse" x1="70.513" x2="63.044" xlink:href="#a" y1="62.847" y2="59.204"/><path d="m64.002 0-22.01 45.13 60.572 33.936zm-28.661 58.764-33.768 69.235 100.2-41.397zm73.842 33.876-31.602 18.142 48.846 17.217zm0 0" fill="#10a0cc"/><path d="m97.849 108.735 11.334-16.098 17.244 35.363zm0 0" fill="url(#b)"/><path d="m1.573 127.999 70.2-41.578 30 .18zm0 0" fill="url(#d)"/><path d="m102.564 79.067-60.574-33.942 15.737-6.059zm0 0" fill="url(#e)"/><path d="m126.427 127.999-48.846-17.217 20.268-2.048zm0 0" fill="url(#f)"/><path d="m1.573 127.999 70.2-41.578-36.433-27.657zm0 0" fill="url(#g)"/><path d="m102.564 79.067-44.836-40 6.274-39.067zm0 0" fill="url(#h)"/></svg>