<svg xmlns="http://www.w3.org/2000/svg" width="18" height="18" viewBox="0 0 18 18">
  <defs>
    <mask id="wko">
      <rect width="18" height="18" fill="white"/>
      <path fill="black" d="M11.554 7.876a2.533 2.533 0 1 0-3.769 2.2v3.279h2.431V10.1a2.53 2.53 0 0 0 1.338-2.224M9.466 12.6h-.931v-2.24a2.6 2.6 0 0 0 .486.049 2.5 2.5 0 0 0 .445-.045zm0-3.006a1.8 1.8 0 0 1-.445.063 1.7 1.7 0 0 1-.486-.076zm.75-.4-2.431-.037a1.785 1.785 0 1 1 2.431.034z"/>
      <rect width=".912" height=".912" x="13.269" y="13.186" fill="black" rx=".204"/>
      <rect width=".912" height=".912" x="13.269" y="14.444" fill="black" opacity=".6" rx=".204"/>
    </mask>
  </defs>
  <g fill="currentColor" mask="url(#wko)">
    <path fill="currentColor" d="M17.956 10.352a4.045 4.045 0 0 0-3.51-3.888A5.1 5.1 0 0 0 9.2 1.59 5.23 5.23 0 0 0 4.2 5 4.83 4.83 0 0 0-.044 9.641a4.9 4.9 0 0 0 5.068 4.706q.226 0 .447-.019h8.207a.8.8 0 0 0 .222-.028 4.09 4.09 0 0 0 4.056-3.948"/>
    <rect width="12.211" height="3.338" x="2.908" y="12.602" fill="currentColor" rx=".408"/>
  </g>
  <path fill="currentColor" d="M10.8 7.876a1.783 1.783 0 1 0-2.265 1.707V12.6h.931v-3A1.78 1.78 0 0 0 10.8 7.876"/>
</svg>