<svg height="18" viewBox="0 0 18 18" width="18" xmlns="http://www.w3.org/2000/svg" xmlns:xlink="http://www.w3.org/1999/xlink"><linearGradient id="a" gradientUnits="userSpaceOnUse" x1="8.956" x2="8.956" y1="14.347" y2="1.59"><stop offset="0" stop-color="#0078d4"/><stop offset="1" stop-color="#5ea0ef"/></linearGradient><linearGradient id="b" gradientUnits="userSpaceOnUse" x1="9.014" x2="9.014" y1="15.941" y2="12.602"><stop offset="0" stop-color="#76bc2d"/><stop offset=".817" stop-color="#86d633"/></linearGradient><path d="m17.956 10.352a4.045 4.045 0 0 0 -3.51-3.888 5.1 5.1 0 0 0 -5.246-4.874 5.23 5.23 0 0 0 -5 3.41 4.83 4.83 0 0 0 -4.244 4.641 4.9 4.9 0 0 0 5.068 4.706q.226 0 .447-.019h8.207a.8.8 0 0 0 .222-.028 4.09 4.09 0 0 0 4.056-3.948" fill="url(#a)"/><path d="m11.554 7.876a2.533 2.533 0 1 0 -3.769 2.2v3.279h2.431v-3.255a2.53 2.53 0 0 0 1.338-2.224m-2.088 4.724h-.931v-2.24a2.6 2.6 0 0 0 .486.049 2.5 2.5 0 0 0 .445-.045zm0-3.006a1.8 1.8 0 0 1 -.445.063 1.7 1.7 0 0 1 -.486-.076zm.75-.4-2.431-.037a1.785 1.785 0 1 1 2.431.034z" fill="#fff"/><rect fill="url(#b)" height="3.338" rx=".408" width="12.211" x="2.908" y="12.602"/><rect fill="#fff" height=".912" rx=".204" width=".912" x="13.269" y="13.186"/><rect fill="#fff" height=".912" opacity=".6" rx=".204" width=".912" x="13.269" y="14.444"/><path d="m10.8 7.876a1.783 1.783 0 1 0 -2.265 1.707v3.017h.931v-3a1.78 1.78 0 0 0 1.334-1.724" fill="#76bc2d"/></svg>