<svg xmlns="http://www.w3.org/2000/svg" width="18" height="18" viewBox="0 0 18 18"><path fill="currentColor" d="M11.13 17.1a.6.6 0 0 1-.59.59H1.48a.59.59 0 0 1-.59-.59V.85a.58.58 0 0 1 .59-.59h9.06a.59.59 0 0 1 .59.59z"/><path fill="currentColor" d="M2.39 6.37a1.12 1.12 0 0 1 1.12-1.11H8.6a1.11 1.11 0 0 1 1.11 1.11A1.11 1.11 0 0 1 8.6 7.49H3.51a1.12 1.12 0 0 1-1.12-1.12m0-3.3A1.11 1.11 0 0 1 3.51 2H8.6a1.1 1.1 0 0 1 1.11 1.07A1.11 1.11 0 0 1 8.6 4.18H3.51a1.12 1.12 0 0 1-1.12-1.11"/><circle cx="3.55" cy="3.07" r=".75" fill="currentColor"/><circle cx="3.55" cy="6.37" r=".75" fill="currentColor"/><ellipse cx="12.62" cy="14.91" fill="currentColor" rx="4.49" ry="1.84"/><ellipse cx="12.73" cy="14.89" fill="currentColor" rx="1.49" ry=".41"/><ellipse cx="12.62" cy="10.82" fill="currentColor" rx="4.49" ry="1.84"/><ellipse cx="12.73" cy="10.8" fill="currentColor" rx="1.49" ry=".41"/><path fill="currentColor" d="M12.62 12.62c2.48 0 4.49-.82 4.49-1.84v1.09c-.09 1-2.06 1.78-4.49 1.78s-4.49-.83-4.49-1.85v-1c0 1 2.01 1.82 4.49 1.82"/></svg>