<svg xmlns="http://www.w3.org/2000/svg" width="18" height="18" viewBox="0 0 18 18"><rect width="18" height="12" x="-.12" y=".21" fill="currentColor" rx=".6"/><path fill="currentColor" d="M11.88 4.46v3.49l-3 1.76v-3.5z"/><path fill="currentColor" d="m11.88 4.46-3 1.76-3-1.76 3-1.75z"/><path fill="currentColor" d="M8.88 6.22v3.49l-3-1.76V4.46z"/><path fill="currentColor" d="m5.88 7.95 3-1.74v3.5z"/><path fill="currentColor" d="m11.88 7.95-3-1.74v3.5z"/><path fill="currentColor" d="M12.49 15.84c-1.78-.28-1.85-1.56-1.85-3.63H7.11c0 2.07-.06 3.35-1.84 3.63a1 1 0 0 0-.89 1h9a1 1 0 0 0-.89-1"/></svg>