<svg xmlns="http://www.w3.org/2000/svg" width="18" height="18" viewBox="0 0 18 18"><linearGradient id="a" x1="9" x2="9" y1="19.848" y2="-1.014" gradientTransform="rotate(45 9 9)" gradientUnits="userSpaceOnUse"><stop offset="0" stop-color="#5e9624"/><stop offset=".546" stop-color="#6dad2a"/><stop offset=".999" stop-color="#76bc2d"/></linearGradient><rect width="13.079" height="13.079" x="2.46" y="2.46" fill="currentColor" rx=".6" transform="rotate(-45 9 9)"/><g fill="currentColor"><path fill="currentColor" d="m8.269 12.21-.39-.005-.542-.005-.794-.012a1.04 1.04 0 0 1 .03-2.068l1.725.025a.95.95 0 0 1 .879.753l.542.007a1.51 1.51 0 0 0-1.412-1.352l-1.726-.025A1.55 1.55 0 0 0 5.1 11.13a1.55 1.55 0 0 0 1.432 1.644l.793.011.543.008.389.006a1.51 1.51 0 0 0 1.45-1.308l-.542-.008a.95.95 0 0 1-.896.727"/><circle fill="currentColor" cx="8.979" cy="6.196" r=".85"/></g></svg>