<svg height="18" viewBox="0 0 18 18" width="18" xmlns="http://www.w3.org/2000/svg" xmlns:xlink="http://www.w3.org/1999/xlink"><linearGradient id="a" gradientTransform="matrix(.70710678 .70710678 -.70710678 .70710678 9 -3.727922)" gradientUnits="userSpaceOnUse" x1="9" x2="9" y1="19.848" y2="-1.014"><stop offset="0" stop-color="#5e9624"/><stop offset=".546" stop-color="#6dad2a"/><stop offset=".999" stop-color="#76bc2d"/></linearGradient><rect fill="url(#a)" height="13.079" rx=".6" transform="matrix(.70710678 -.70710678 .70710678 .70710678 -3.727922 9)" width="13.079" x="2.46" y="2.46"/><path d="m11.839 6.505v-.652l-.091-.034-.7-.229-.183-.446.355-.755-.458-.458-.092.046-.652.332-.446-.183-.286-.79h-.65l-.036.092-.229.7-.446.183-.744-.355-.458.458.046.091.332.652-.181.443-.8.286v.652l.092.035.7.229.184.446-.359.752.457.457.092-.045.652-.332.446.183.286.789h.652l.035-.091.229-.7.446-.183.755.355.457-.458-.044-.086-.332-.652.183-.446zm-2.86.947a1.256 1.256 0 1 1 1.255-1.252 1.255 1.255 0 0 1 -1.255 1.252m1.533 3.462-.793-.014h-.542l-.39-.006a1.51 1.51 0 0 0 -1.45 1.306l.542.008a.95.95 0 0 1 .9-.728l.39.006.542.008.794.011a1.041 1.041 0 0 1 -.03 2.069l-1.725-.025a.95.95 0 0 1 -.878-.753l-.543-.008a1.51 1.51 0 0 0 1.411 1.346l1.726.025a1.547 1.547 0 0 0 1.478-1.6 1.547 1.547 0 0 0 -1.432-1.645" fill="#fff"/><g fill="#b4ec36"><path d="m8.269 12.21-.39-.005-.542-.005-.794-.012a1.04 1.04 0 0 1 .03-2.068l1.725.025a.95.95 0 0 1 .879.753l.542.007a1.51 1.51 0 0 0 -1.412-1.352l-1.726-.025a1.55 1.55 0 0 0 -1.481 1.602 1.55 1.55 0 0 0 1.432 1.644l.793.011.543.008.389.006a1.51 1.51 0 0 0 1.45-1.308l-.542-.008a.95.95 0 0 1 -.896.727"/><circle cx="8.979" cy="6.196" r=".85"/></g></svg>