<svg xmlns="http://www.w3.org/2000/svg" width="18" height="18" viewBox="0 0 18 18">
  <defs>
    <mask id="wko">
      <rect width="18" height="18" fill="white"/>
      <rect width="16" height="10" x=".86" y="2.02" fill="black" rx=".33"/>
    </mask>
  </defs>
  <g fill="currentColor" mask="url(#wko)">
    <rect width="18" height="12" x="-.14" y="1.02" fill="currentColor" rx=".6"/>
  </g>
  <path fill="currentColor" d="M11.86 5.27v3.49l-3 1.76v-3.5z"/>
  <path fill="currentColor" d="m11.86 5.27-3 1.76-3-1.76 3-1.75z"/>
  <path fill="currentColor" d="M8.86 7.03v3.49l-3-1.76V5.27z"/>
  <path fill="currentColor" d="m5.86 8.76 3-1.74v3.5z" opacity=".2"/>
  <path fill="currentColor" d="m11.86 8.76-3-1.74v3.5z" opacity=".2"/>
  <path fill="currentColor" d="M12.46 16.65c-1.77-.28-1.84-1.57-1.84-3.63H7.09c0 2.06-.07 3.35-1.84 3.63a1 1 0 0 0-.89 1h9a1 1 0 0 0-.9-1"/>
</svg>