<svg height="18" viewBox="0 0 18 18" width="18" xmlns="http://www.w3.org/2000/svg" xmlns:xlink="http://www.w3.org/1999/xlink"><linearGradient id="a" gradientUnits="userSpaceOnUse" x1="8.86" x2="8.86" y1="13.02" y2="1.02"><stop offset="0" stop-color="#0078d4"/><stop offset=".82" stop-color="#5ea0ef"/></linearGradient><linearGradient id="b" gradientUnits="userSpaceOnUse" x1="8.86" x2="8.86" y1="17.65" y2="13.02"><stop offset="0" stop-color="#1490df"/><stop offset=".98" stop-color="#1f56a3"/></linearGradient><rect fill="url(#a)" height="12" rx=".6" width="18" x="-.14" y="1.02"/><rect fill="#fff" height="10" rx=".33" width="16" x=".86" y="2.02"/><path d="m11.86 5.27v3.49l-3 1.76v-3.5z" fill="#0078d4"/><path d="m11.86 5.27-3 1.76-3-1.76 3-1.75z" fill="#83b9f9"/><path d="m8.86 7.03v3.49l-3-1.76v-3.49z" fill="#5ea0ef"/><path d="m5.86 8.76 3-1.74v3.5z" fill="#83b9f9" opacity=".2"/><path d="m11.86 8.76-3-1.74v3.5z" fill="#5ea0ef" opacity=".2"/><path d="m12.46 16.65c-1.77-.28-1.84-1.57-1.84-3.63h-3.53c0 2.06-.07 3.35-1.84 3.63a1 1 0 0 0 -.89 1h9a1 1 0 0 0 -.9-1" fill="url(#b)"/></svg>