<svg xmlns="http://www.w3.org/2000/svg" width="18" height="18" viewBox="0 0 18 18">
  <defs>
    <mask id="ko">
      <rect width="18" height="18" fill="white"/>
      <path fill="black" d="M3.34 9.11A.39.39 0 0 1 3 8.69c.17-4.49 3.26-7.38 6.83-7.38s6.66 2.89 6.88 7.38a.47.47 0 0 1-.11.3.44.44 0 0 1-.29.12z"/>
      <path fill="black" d="M13.55 3.79a5.62 5.62 0 0 0-3.33-1.42V5a3.07 3.07 0 0 1 1.55.66z"/>
      <path fill="black" d="m6.11 3.79 1.78 1.83A3 3 0 0 1 9.43 5V2.37a5.57 5.57 0 0 0-3.32 1.42"/>
      <path fill="black" d="M12.33 6.2A3.3 3.3 0 0 1 13 7.78h2.52a5.9 5.9 0 0 0-1.38-3.41z"/>
      <path fill="black" d="M7.33 6.2 5.55 4.37a5.84 5.84 0 0 0-1.38 3.41h2.51a3.4 3.4 0 0 1 .65-1.58m7.13-.57a.42.42 0 0 0-.52-.23l-3.71 1.48.29.74 3.71-1.48a.41.41 0 0 0 .23-.51"/>
      <path fill="black" d="M10.73 17.43H.89c-.31 0-.5-.5-.32-.76L4 11.73a.4.4 0 0 0 0-.22V8.24A.2.2 0 0 0 3.84 8h-.19a.39.39 0 0 1-.39-.39v-.13a.39.39 0 0 1 .39-.39H8a.38.38 0 0 1 .39.39v.17A.38.38 0 0 1 8 8h-.21a.2.2 0 0 0-.2.2v3.27a.4.4 0 0 0 .07.22l3.4 4.94c.17.3-.01.8-.33.8"/>
      <path fill="black" d="m2.19 16 2.46-3.6a.86.86 0 0 0 .16-.51v-1.46a.29.29 0 0 1 .29-.29h1.4a.28.28 0 0 1 .28.29V12a.6.6 0 0 0 .11.34L9.41 16a.21.21 0 0 1-.18.33H2.36a.21.21 0 0 1-.17-.33"/>
      <circle fill="black" cx="9.83" cy="7.42" r="1.08"/>
    </mask>
  </defs>
  <g>
    <path fill="currentColor" mask="url(#ko)" d="M9.83.52c4.62 0 7.44 3.48 7.67 8.13a1.19 1.19 0 0 1-1.19 1.25h-13a1.18 1.18 0 0 1-1.15-1.25C2.39 4 5.21.52 9.83.52"/>
  </g>
</svg>