<svg xmlns="http://www.w3.org/2000/svg" width="64" height="64" viewBox="0 0 64 64"><title>Icon-Architecture/48/Arch_AWS-Glue-DataBrew_48</title><g id="Icon-Architecture/48/Arch_AWS-Glue-DataBrew_48" fill="none" fill-rule="evenodd" stroke="none" stroke-width="1"><g id="Icon-Architecture-BG/48/Analytics" fill="#8c4fff"><path id="Rectangle" d="M0 0h64v64H0z"/></g><g id="Icon-Service/48/AWS-Glue-DataBrew_48" fill="#fff" transform="translate(10 10)"><path id="Fill-5" d="M4 22a1.001 1.001 0 0 1-2 0 1.001 1.001 0 0 1 2 0m-4 0c0 1.654 1.346 3 3 3s3-1.346 3-3-1.346-3-3-3-3 1.346-3 3M44 3.291v37.418A3.294 3.294 0 0 1 40.71 44H3.29A3.294 3.294 0 0 1 0 40.709V27h2v13.709C2 41.421 2.579 42 3.29 42h37.42c.711 0 1.29-.579 1.29-1.291V3.291C42 2.579 41.421 2 40.71 2H3.29C2.579 2 2 2.579 2 3.291V17H0V3.291A3.294 3.294 0 0 1 3.29 0h37.42A3.294 3.294 0 0 1 44 3.291M4 34h3.524c4.367 0 9.375-2.865 11.403-6.523l1.75.97C18.289 32.753 12.636 36 7.524 36H4zM34.545 7h1.862l-1.293-1.293 1.414-1.414 3.214 3.213a1 1 0 0 1 0 1.414l-3.214 3.213-1.414-1.414L36.834 9h-2.289c-3.853 0-8.866 2.109-11.382 6.82l-1.764-.943C23.915 10.166 29.198 7 34.545 7m-12.51 14.667C22.124 28.467 27.733 34 34.538 34h2.007l-1.431-1.43 1.414-1.414 3.214 3.213a1 1 0 0 1 0 1.414l-3.214 3.213-1.414-1.414L36.697 36h-2.159c-7.893 0-14.399-6.418-14.503-14.307C19.942 14.575 14.447 9 7.524 9H4V7h3.524c8.031 0 14.405 6.442 14.511 14.667M10 16a1.001 1.001 0 0 1 0-2 1.001 1.001 0 0 1 0 2m0-4c-1.654 0-3 1.346-3 3s1.346 3 3 3 3-1.346 3-3-1.346-3-3-3m2.305 12.356 1.857.845-.845 1.858-1.857-.845zm-3.493 2.852 5.498 2.5 2.501-5.5-5.5-2.5zM35.999 16h3.025l-.021 9h-3.014zm-2.012 11h7.01l.033-13h-7.029zm-6.988-9h3.025l-.021 7h-3.014zm-2.012 9h7.01l.033-11h-7.029z"/></g></g></svg>