<svg height="64" viewBox="0 0 64 64" width="64" xmlns="http://www.w3.org/2000/svg"><g fill="none" fill-rule="evenodd"><path d="m0 0h64v64h-64z" fill="#8c4fff"/><path d="m4 22a1.001 1.001 0 0 1 -2 0 1.001 1.001 0 0 1 2 0m-4 0c0 1.654 1.346 3 3 3s3-1.346 3-3-1.346-3-3-3-3 1.346-3 3m44-18.709v37.418a3.294 3.294 0 0 1 -3.29 3.291h-37.42a3.294 3.294 0 0 1 -3.29-3.291v-13.709h2v13.709c0 .712.579 1.291 1.29 1.291h37.42c.711 0 1.29-.579 1.29-1.291v-37.418c0-.712-.579-1.291-1.29-1.291h-37.42c-.711 0-1.29.579-1.29 1.291v13.709h-2v-13.709a3.294 3.294 0 0 1 3.29-3.291h37.42a3.294 3.294 0 0 1 3.29 3.291m-40 30.709h3.524c4.367 0 9.375-2.865 11.403-6.523l1.75.97c-2.388 4.306-8.041 7.553-13.153 7.553h-3.524zm30.545-27h1.862l-1.293-1.293 1.414-1.414 3.214 3.213a1 1 0 0 1 0 1.414l-3.214 3.213-1.414-1.414 1.72-1.719h-2.289c-3.853 0-8.866 2.109-11.382 6.82l-1.764-.943c2.516-4.711 7.799-7.877 13.146-7.877m-12.51 14.667c.089 6.8 5.698 12.333 12.503 12.333h2.007l-1.431-1.43 1.414-1.414 3.214 3.213a1 1 0 0 1 0 1.414l-3.214 3.213-1.414-1.414 1.583-1.582h-2.159c-7.893 0-14.399-6.418-14.503-14.307-.093-7.118-5.588-12.693-12.511-12.693h-3.524v-2h3.524c8.031 0 14.405 6.442 14.511 14.667m-12.035-5.667a1.001 1.001 0 0 1 0-2 1.001 1.001 0 0 1 0 2m0-4c-1.654 0-3 1.346-3 3s1.346 3 3 3 3-1.346 3-3-1.346-3-3-3m2.305 12.356 1.857.845-.845 1.858-1.857-.845zm-3.493 2.852 5.498 2.5 2.501-5.5-5.5-2.5zm27.187-11.208h3.025l-.021 9h-3.014zm-2.012 11h7.01l.033-13h-7.029zm-6.988-9h3.025l-.021 7h-3.014zm-2.012 9h7.01l.033-11h-7.029z" fill="#fff" transform="translate(10 10)"/></g></svg>