<svg xmlns="http://www.w3.org/2000/svg" width="18" height="18" viewBox="0 0 18 18"><g fill="currentColor" stroke-width="0"><path d="m17.647 9.967-7.5-8.461a1.55 1.55 0 0 0-2.294 0l-7.5 8.461c-.579.654-.428 1.641.323 2.111l7.499 4.688c.5.313 1.148.313 1.648 0l7.499-4.688c.751-.469.902-1.457.323-2.111z"/><path d="M10.148 1.506a1.55 1.55 0 0 0-2.294 0l-7.5 8.461c-.579.654-.428 1.641.323 2.111l3.126 1.954c.388.242 1.033.511 1.715.511.621 0 1.197-.18 1.676-.487l.002-.001L9 12.927l-4.364-2.728L9.11 5.152a3.05 3.05 0 0 1 2.302-1.026c.472 0 .917.107 1.314.292l-2.579-2.909v-.002z"/><path d="m4.636 10.199.052.032 4.313 2.696 4.364-2.728h.001-.001L9.001 5.274z"/><path fill-opacity=".5" d="M9.001 17c.287 0 .574-.078.824-.234l7.499-4.688c.751-.469.902-1.457.323-2.111l-7.499-8.461A1.53 1.53 0 0 0 9.001.999z" opacity=".5"/><path d="M12.925 8.752 8.37 15.131l4.555 1.854 4.555-1.854z"/><path d="M12.925 8.752 8.37 15.131l4.555 1.854z" opacity=".5"/></g></svg>