<svg height="18" viewBox="0 0 18 18" width="18" xmlns="http://www.w3.org/2000/svg" xmlns:xlink="http://www.w3.org/1999/xlink"><linearGradient id="a" gradientTransform="matrix(1 0 0 -1 0 791.516)" gradientUnits="userSpaceOnUse" x1="7.697" x2="14.082" y1="779.107" y2="786.57"><stop offset="0" stop-color="#225086"/><stop offset="1" stop-color="#0055c5"/></linearGradient><linearGradient id="b" gradientTransform="matrix(1 0 0 -1 0 791.516)" gradientUnits="userSpaceOnUse" x1="6.364" x2="6.364" y1="778.103" y2="794.351"><stop offset="0" stop-color="#6df"/><stop offset="1" stop-color="#0294e4"/></linearGradient><linearGradient id="c" gradientTransform="matrix(1 0 0 -1 0 791.516)" gradientUnits="userSpaceOnUse" x1="9.001" x2="9.001" y1="775.895" y2="794.784"><stop offset="0" stop-color="#44dbf9"/><stop offset="1" stop-color="#cbf8ff"/></linearGradient><linearGradient id="d" gradientTransform="matrix(1 0 0 -1 0 791.516)" gradientUnits="userSpaceOnUse" x1="13.5" x2="13.5" y1="774.66" y2="790.721"><stop offset="0" stop-color="#041642"/><stop offset="1" stop-color="#041642" stop-opacity=".25"/></linearGradient><g stroke-width="0"><g><path d="m17.647 9.967-7.5-8.461a1.55 1.55 0 0 0 -2.294 0l-7.5 8.461c-.579.654-.428 1.641.323 2.111l7.499 4.688c.5.313 1.148.313 1.648 0l7.499-4.688c.751-.469.902-1.457.323-2.111z" fill="url(#a)"/><path d="m10.148 1.506a1.55 1.55 0 0 0 -2.294 0l-7.5 8.461c-.579.654-.428 1.641.323 2.111l3.126 1.954c.388.242 1.033.511 1.715.511.621 0 1.197-.18 1.676-.487l.002-.001 1.804-1.128-4.364-2.728 4.474-5.047a3.05 3.05 0 0 1 2.302-1.026c.472 0 .917.107 1.314.292l-2.579-2.909v-.002z" fill="url(#b)"/><path d="m4.636 10.199.052.032 4.313 2.696 4.364-2.728h.001-.001l-4.364-4.925z" fill="url(#c)"/><path d="m9.001 17c.287 0 .574-.078.824-.234l7.499-4.688c.751-.469.902-1.457.323-2.111l-7.499-8.461a1.53 1.53 0 0 0 -1.147-.507z" fill="url(#d)" fill-opacity=".5" opacity=".5"/></g><g><path d="m12.925 8.752-4.555 6.379 4.555 1.854 4.555-1.854z" fill="#773adc"/><path d="m12.925 8.752-4.555 6.379 4.555 1.854z" fill="#f9f9f9" opacity=".5"/></g></g></svg>