<svg enable-background="new 0 0 128 128" viewBox="0 0 128 128" xmlns="http://www.w3.org/2000/svg"><path d="m127 1v126h-126v-126zm-79.1 55.2v-27.3c0-.4-.2-.7-.4-1l-2.2-2.3c-.3-.3-.7-.5-1.1-.5h-7.6c-.4 0-.8.2-1.1.5l-2.2 2.4c-.2.3-.4.7-.4 1v70.4c0 .3.2.7.4.9l2.2 2.2c.3.3.7.4 1 .4h7.5c.4 0 .8-.2 1-.4l2.2-2.2c.3-.3.4-.7.4-1v-23.6l8.6-8.2 23.5 34.8c.2.4.7.6 1.1.6h10.6c.5 0 1-.3 1.2-.7l1.9-3.7c.2-.4.2-1-.1-1.4l-27.5-40.2 25.4-25.3c.3-.3.4-.7.4-1v-.5c0-.2-.1-.5-.2-.7l-1.5-3.4c-.2-.5-.7-.8-1.2-.8h-10.4c-.4 0-.8.2-1 .4zm80.1-56.2h-128v128h128zm-81.1 58.6 32.2-32.3c.1-.1.2-.1.3-.1h10.5c.1 0 .2.1.2.2l1.5 3.4c0 .1.1.2.1.3v.5c0 .1-.1.2-.1.3l-25.9 25.7c-.1.1-.1.2 0 .3l28.2 40.8c.1.1.1.2 0 .3l-1.9 3.7c0 .1-.2.2-.3.2h-10.6c-.1 0-.2-.1-.3-.1l-24.1-35.7-.1-.1h-.1l-9.5 9.2c-.1.1-.1.2-.1.3v23.8c0 .1-.1.2-.1.3l-2.2 2.2c-.1.1-.2.1-.3.1h-7.5c-.1 0-.2-.1-.3-.1l-2.2-2.2c-.1-.1-.1-.2-.1-.3v-70.4c0-.1.1-.2.1-.3l2.2-2.4c.1-.1.2-.1.3-.1h7.6c.1 0 .2.1.3.1l2.2 2.3c.1.1.1.2.1.3z"/></svg>