<svg enable-background="new 0 0 128 128" viewBox="0 0 128 128" xmlns="http://www.w3.org/2000/svg"><path d="m128 128h-128v-128h128z" fill="#d00000"/><path d="m34.1 99.3c0 .1.1.2.1.3l2.2 2.2c.1.1.2.1.3.1h7.5c.1 0 .2-.1.3-.1l2.2-2.2c.1-.1.1-.2.1-.3v-23.8c0-.1.1-.2.1-.3l9.5-9.1c.1-.1.2-.1.2 0l24.1 35.6c.1.1.2.1.3.1h10.6c.1 0 .2-.1.3-.2l1.9-3.7v-.3l-28.1-40.7c-.1-.1 0-.2 0-.3l25.9-25.8c.1-.1.1-.2.1-.3v-.5c0-.1 0-.2-.1-.3l-1.5-3.4c0-.1-.1-.2-.2-.2h-10.5c-.1 0-.2.1-.3.1l-32.1 32.3c-.1.1-.1 0-.1-.1v-29.5c0-.1-.1-.2-.1-.3l-2.2-2.3c-.1-.1-.2-.1-.3-.1h-7.6c-.1 0-.2.1-.3.1l-2.2 2.4c-.1.1-.1.2-.1.3z" fill="#fff"/></svg>