<svg viewBox="0 0 128 128" xmlns="http://www.w3.org/2000/svg"><path d="m128 0h-128v128h128zm-34.1 98-1.9 3.7c0 .1-.2.2-.3.2h-10.6c-.1 0-.2-.1-.3-.1l-24.1-35.7c-.1-.1-.2-.1-.2 0l-9.5 9.1c-.1.1-.1.2-.1.3v23.8c0 .1-.1.2-.1.3l-2.2 2.2c-.1.1-.2.1-.3.1h-7.5c-.1 0-.2-.1-.3-.1l-2.2-2.2c-.1-.1-.1-.2-.1-.3v-70.4c0-.1.1-.2.1-.3l2.2-2.4c.1-.1.2-.1.3-.1h7.6c.1 0 .2.1.3.1l2.2 2.3c.1.1.1.2.1.3v29.6c0 .1.1.1.1.1l32.2-32.3c.1-.1.2-.1.3-.1h10.5c.1 0 .2.1.2.2l1.5 3.4c0 .1.1.2.1.3v.5c0 .1-.1.2-.1.3l-26.1 25.8c-.1.1-.1.2 0 .3l28.2 40.8z"/></svg>