<svg xmlns="http://www.w3.org/2000/svg" width="18" height="18" viewBox="0 0 18 18"><linearGradient id="a" x1="8.929" x2="8.929" y1="7.745" y2=".5" gradientUnits="userSpaceOnUse"><stop offset="0" stop-color="#37c2b1"/><stop offset=".565" stop-color="#3fddc3"/><stop offset=".908" stop-color="#42e8ca"/></linearGradient><path fill="currentColor" d="M15.335 11.969h1.124a.18.18 0 0 1 .179.179v3.86h-1.482v-3.86a.18.18 0 0 1 .179-.179m-13.793.097h1.172a.18.18 0 0 1 .18.18v3.763H1.362v-3.764a.18.18 0 0 1 .18-.179"/><rect width="2.879" height="7.754" x="3.708" y="7.275" fill="currentColor" rx=".375"/><rect width="2.879" height="7.754" x="7.55" y="7.275" fill="currentColor" rx=".375"/><rect width="2.879" height="7.754" x="11.391" y="7.275" fill="currentColor" rx=".375"/><path fill="currentColor" d="M14.1 3.52 11.129.545a.152.152 0 0 0-.259.107v1.734c-3.581 0-7.162 1.913-7.162 5.359.512-.768 3.07-2.811 7.162-2.811V6.6a.152.152 0 0 0 .259.107L14.1 3.734a.15.15 0 0 0 0-.214"/></svg>