<svg height="18" viewBox="0 0 18 18" width="18" xmlns="http://www.w3.org/2000/svg" xmlns:xlink="http://www.w3.org/1999/xlink"><linearGradient id="a" gradientUnits="userSpaceOnUse" x1="8.929" x2="8.929" y1="7.745" y2=".5"><stop offset="0" stop-color="#37c2b1"/><stop offset=".565" stop-color="#3fddc3"/><stop offset=".908" stop-color="#42e8ca"/></linearGradient><path d="m15.335 11.969h1.124a.18.18 0 0 1 .179.179v3.86h-1.482v-3.86a.18.18 0 0 1 .179-.179m-13.793.097h1.172a.18.18 0 0 1 .18.18v3.763h-1.532v-3.764a.18.18 0 0 1 .18-.179" fill="#767676"/><path d="m1.362 17.013v-1h15.276v1a.487.487 0 0 1 -.487.487h-14.305a.487.487 0 0 1 -.484-.487" fill="#949494"/><rect fill="#0078d4" height="7.754" rx=".375" width="2.879" x="3.708" y="7.275"/><rect fill="#0078d4" height="7.754" rx=".375" width="2.879" x="7.55" y="7.275"/><rect fill="#37c2b1" height="7.754" rx=".375" width="2.879" x="11.391" y="7.275"/><path d="m14.1 3.52-2.971-2.975a.152.152 0 0 0 -.259.107v1.734c-3.581 0-7.162 1.913-7.162 5.359.512-.768 3.07-2.811 7.162-2.811v1.666a.152.152 0 0 0 .259.107l2.971-2.973a.15.15 0 0 0 0-.214" fill="url(#a)"/></svg>