<svg xmlns="http://www.w3.org/2000/svg" width="140.625" height="140.625" viewBox="0 0 140.625 140.625"><path fill="currentColor" fill-opacity=".5" d="M67.946 13.681V0C33.524 5.059 6.167 31.82.253 65.957h13.769c5.594-26.651 26.983-47.489 53.924-52.276"/><path fill="currentColor" fill-opacity=".3" d="M67.946 26.106V13.681c-26.941 4.786-48.33 25.625-53.924 52.276h12.512C31.709 46.05 47.75 30.53 67.946 26.106"/><path fill="currentColor" d="m106.786 60.393-10.207 10.23c.299.581.641 1.122.89 1.746.94 2.352 1.411 4.925 1.411 7.702v.183q-.001 4.263-1.411 7.703c-.935 2.303-2.235 4.291-3.894 5.982-1.664 1.696-3.674 2.99-6.024 3.894q-3.541 1.36-7.8 1.362h-10.78v-.902l-13.469 13.502h24.249c4.955 0 9.499-.818 13.642-2.447 4.137-1.635 7.704-3.864 10.691-6.714 2.995-2.836 5.303-6.184 6.935-10.058q2.448-5.797 2.448-12.506v-.176q0-6.707-2.448-12.467a30 30 0 0 0-4.234-7.035z"/><path fill="currentColor" fill-opacity=".7" d="M68.972 60.951h10.78q4.256-.001 7.8 1.405 3.526 1.407 6.024 3.94c1.217 1.242 2.175 2.728 3.004 4.328l10.207-10.23c-.836-1.04-1.717-2.046-2.701-2.979-2.987-2.835-6.554-5.054-10.691-6.661-4.142-1.599-8.686-2.4-13.642-2.4h-24.74v63.444h.491l13.469-13.502V60.953z"/><path fill="currentColor" fill-opacity=".3" d="M94.163 14.194V26.74c11.174 3.022 20.915 9.491 28.067 18.173l8.652-8.674c-9.346-10.95-22.146-18.865-36.719-22.045"/><path fill="currentColor" d="M94.163.412v13.781c14.573 3.18 27.372 11.095 36.719 22.045l9.557-9.581C128.651 13.219 112.494 3.708 94.163.411zM13.717 92.171H0c2.951 19.244 12.723 36.219 26.743 48.454l9.551-9.575c-11.525-9.792-19.707-23.402-22.577-38.879"/><path fill="currentColor" fill-opacity=".3" d="M26.169 92.171H13.717c2.871 15.477 11.053 29.087 22.577 38.879l8.658-8.678c-9.259-7.593-16.015-18.128-18.783-30.201"/></svg>