<svg height="18" viewBox="0 0 18 18" width="18" xmlns="http://www.w3.org/2000/svg" xmlns:xlink="http://www.w3.org/1999/xlink"><linearGradient id="a" gradientTransform="matrix(1 0 0 -1 0 791.516)" gradientUnits="userSpaceOnUse" x1="7.697" x2="14.082" y1="779.168" y2="786.631"><stop offset="0" stop-color="#225086"/><stop offset="1" stop-color="#0055c5"/></linearGradient><linearGradient id="b" gradientTransform="matrix(1 0 0 -1 0 791.516)" gradientUnits="userSpaceOnUse" x1="6.364" x2="6.364" y1="778.164" y2="794.412"><stop offset="0" stop-color="#6df"/><stop offset="1" stop-color="#0294e4"/></linearGradient><linearGradient id="c" gradientTransform="matrix(1 0 0 -1 0 791.516)" gradientUnits="userSpaceOnUse" x1="9.001" x2="9.001" y1="775.956" y2="794.845"><stop offset="0" stop-color="#44dbf9"/><stop offset="1" stop-color="#cbf8ff"/></linearGradient><linearGradient id="d" gradientTransform="matrix(1 0 0 -1 0 791.516)" gradientUnits="userSpaceOnUse" x1="13.5" x2="13.5" y1="774.721" y2="790.782"><stop offset="0" stop-color="#041642"/><stop offset="1" stop-color="#041642" stop-opacity=".25"/></linearGradient><g stroke-width="0"><g><path d="m17.647 9.906-7.5-8.461a1.55 1.55 0 0 0 -2.294 0l-7.5 8.461c-.579.654-.428 1.641.323 2.111l7.499 4.688c.5.313 1.148.313 1.648 0l7.499-4.688c.751-.469.902-1.457.323-2.111z" fill="url(#a)"/><path d="m10.148 1.445a1.55 1.55 0 0 0 -2.294 0l-7.5 8.461c-.579.654-.428 1.641.323 2.111l3.126 1.954c.388.242 1.033.511 1.715.511.621 0 1.197-.18 1.676-.487l.002-.001 1.804-1.128-4.364-2.728 4.474-5.047a3.05 3.05 0 0 1 2.302-1.026c.472 0 .917.107 1.314.292l-2.579-2.909v-.002z" fill="url(#b)"/><path d="m4.636 10.138.052.032 4.313 2.696 4.364-2.728h.001-.001l-4.364-4.924z" fill="url(#c)"/><path d="m9.001 16.939c.287 0 .574-.078.824-.234l7.499-4.688c.751-.469.902-1.457.323-2.111l-7.499-8.461a1.53 1.53 0 0 0 -1.147-.507z" fill="url(#d)" fill-opacity=".5" opacity=".5"/></g><g><path d="m16.512 10.831a1.18 1.18 0 0 0 .01-1.67l-.01-.01-2.035-2.035a1.18 1.18 0 0 0 -1.669 0l-2.035 2.035a1.2 1.2 0 0 0 0 1.679l1.7 1.7a.33.33 0 0 1 .092.234v3.155a.37.37 0 0 0 .122.285l.773.773a.253.253 0 0 0 .376 0l.743-.743.448-.448a.153.153 0 0 0 0-.214l-.316-.315a.163.163 0 0 1 -.014-.23l.014-.014.316-.316a.164.164 0 0 0 0-.224l-.316-.316a.152.152 0 0 1 0-.234l.316-.326a.153.153 0 0 0 0-.214l-.448-.448v-.163l1.934-1.944zm-2.87-3.226a.672.672 0 1 1 -.672.672c0-.371.301-.672.672-.672" fill="#ffca00"/><g fill="#ff9300"><path d="m13.133 16.042a.14.14 0 0 0 .201.003.14.14 0 0 0 .043-.115v-2.605a.16.16 0 0 0 -.061-.132.144.144 0 0 0 -.199.034.14.14 0 0 0 -.025.098v2.555a.15.15 0 0 0 .041.163z" opacity=".75"/><rect height=".397" opacity=".75" rx=".183" width="3.348" x="12.014" y="9.834"/><rect height=".397" opacity=".75" rx=".183" width="3.348" x="12.014" y="10.475"/></g></g></g></svg>