<svg xmlns="http://www.w3.org/2000/svg" width="74" height="74" viewBox="0 0 74 74"><title>Icon-Architecture-Category/48/Analytics_48</title><g id="Icon-Architecture-Category/48/Analytics_48" fill="none" fill-rule="evenodd" stroke="none" stroke-width="1"><path id="Rectangle" fill="#8c4fff" d="M5 5h64v64H5z"/><path id="#879196-Border" stroke="#879196" stroke-width="2" d="M1 1h72v72H1z"/><g id="Icon-Category/48/Analytics_48" fill="#fff" transform="translate(15 20)"><path id="Analytics_Category-Icon_48_Squid-" d="M34 8v6h-2v-3.413l-8.26 9.086c-.356.39-.953.437-1.365.108l-4.3-3.441-7.368 7.367-1.414-1.414 8-8a1 1 0 0 1 1.332-.074l4.267 3.414L30.74 9H27V7h6a1 1 0 0 1 1 1m5.434 24H4.566l-1.799-3h38.466zM6 3.21C6 2.543 6.543 2 7.211 2H35.79C36.762 2 38 2.82 38 3.21V27H6zm37.87 24.297A1 1 0 0 0 43 27h-3V3.21C40 1.28 37.466 0 35.79 0H7.21a3.214 3.214 0 0 0-3.21 3.21V27H1a1.001 1.001 0 0 0-.858 1.515l3 5c.18.301.505.485.857.485h36a1 1 0 0 0 .857-.485l3-5a1 1 0 0 0 .013-1.008"/></g></g></svg>