<svg height="74" viewBox="0 0 74 74" width="74" xmlns="http://www.w3.org/2000/svg"><g fill="none" fill-rule="evenodd"><path d="m5 5h64v64h-64z" fill="#8c4fff"/><path d="m1 1h72v72h-72z" stroke="#879196" stroke-width="2"/><path d="m34 8v6h-2v-3.413l-8.26 9.086c-.356.39-.953.437-1.365.108l-4.3-3.441-7.368 7.367-1.414-1.414 8-8a1 1 0 0 1 1.332-.074l4.267 3.414 7.848-8.633h-3.74v-2h6a1 1 0 0 1 1 1m5.434 24h-34.868l-1.799-3h38.466zm-33.434-28.79c0-.667.543-1.21 1.211-1.21h28.579c.972 0 2.21.82 2.21 1.21v23.79h-32zm37.87 24.297a1 1 0 0 0 -.87-.507h-3v-23.79c0-1.93-2.534-3.21-4.21-3.21h-28.58a3.214 3.214 0 0 0 -3.21 3.21v23.79h-3a1.001 1.001 0 0 0 -.858 1.515l3 5c.18.301.505.485.857.485h36a1 1 0 0 0 .857-.485l3-5a1 1 0 0 0 .013-1.008" fill="#fff" transform="translate(15 20)"/></g></svg>