<svg xmlns="http://www.w3.org/2000/svg" width="18" height="18" viewBox="0 0 18 18"><path fill="currentColor" d="m6.437 1.856-.292-.292a.5.5 0 0 0-.707 0L2.606 4.392 1.441 3.229a.5.5 0 0 0-.707 0l-.293.293a.5.5 0 0 0 0 .707l1.812 1.815a.5.5 0 0 0 .354.146.5.5 0 0 0 .353-.146l3.477-3.481a.5.5 0 0 0 0-.707"/><g fill="currentColor"><rect width="10.366" height="1.895" x="7.339" y="2.949" rx=".923"/><rect width="10.366" height="1.895" x="7.339" y="8.073" rx=".923"/><rect width="10.366" height="1.895" x="7.339" y="13.196" rx=".923"/></g><path fill="currentColor" d="m6.437 7.053-.292-.293a.5.5 0 0 0-.707 0L2.606 9.588 1.441 8.425a.5.5 0 0 0-.707 0l-.293.293a.5.5 0 0 0 0 .707l1.812 1.815a.5.5 0 0 0 .354.147.5.5 0 0 0 .353-.147l3.477-3.48a.5.5 0 0 0 0-.707"/><path fill="currentColor" d="m6.437 12.249-.292-.293a.5.5 0 0 0-.354-.146.5.5 0 0 0-.353.146l-2.832 2.828-1.165-1.163a.5.5 0 0 0-.707 0l-.293.292a.5.5 0 0 0 0 .707l1.812 1.815a.5.5 0 0 0 .707 0l3.477-3.48a.5.5 0 0 0 0-.706"/></svg>