<svg height="18" viewBox="0 0 18 18" width="18" xmlns="http://www.w3.org/2000/svg" xmlns:xlink="http://www.w3.org/1999/xlink"><linearGradient id="a"><stop offset=".2" stop-color="#0078d4"/><stop offset=".287" stop-color="#1380da"/><stop offset=".759" stop-color="#5ea0ef"/></linearGradient><linearGradient id="b" gradientUnits="userSpaceOnUse" x1="3.439" x2="3.439" xlink:href="#a" y1="6.801" y2="1.432"/><linearGradient id="c" gradientUnits="userSpaceOnUse" x1="3.439" x2="3.439" xlink:href="#a" y1="11.998" y2="6.628"/><linearGradient id="d" gradientUnits="userSpaceOnUse" x1="3.439" x2="3.439" xlink:href="#a" y1="17.194" y2="11.824"/><path d="m6.437 1.856-.292-.292a.5.5 0 0 0 -.707 0l-2.832 2.828-1.165-1.163a.5.5 0 0 0 -.707 0l-.293.293a.5.5 0 0 0 0 .707l1.812 1.815a.5.5 0 0 0 .354.146.5.5 0 0 0 .353-.146l3.477-3.481a.5.5 0 0 0 0-.707" fill="url(#b)"/><g fill="#a3a3a3"><rect height="1.895" rx=".923" width="10.366" x="7.339" y="2.949"/><rect height="1.895" rx=".923" width="10.366" x="7.339" y="8.073"/><rect height="1.895" rx=".923" width="10.366" x="7.339" y="13.196"/></g><path d="m6.437 7.053-.292-.293a.5.5 0 0 0 -.707 0l-2.832 2.828-1.165-1.163a.5.5 0 0 0 -.707 0l-.293.293a.5.5 0 0 0 0 .707l1.812 1.815a.5.5 0 0 0 .354.147.5.5 0 0 0 .353-.147l3.477-3.48a.5.5 0 0 0 0-.707" fill="url(#c)"/><path d="m6.437 12.249-.292-.293a.5.5 0 0 0 -.354-.146.5.5 0 0 0 -.353.146l-2.832 2.828-1.165-1.163a.5.5 0 0 0 -.707 0l-.293.292a.5.5 0 0 0 0 .707l1.812 1.815a.5.5 0 0 0 .707 0l3.477-3.48a.5.5 0 0 0 0-.706" fill="url(#d)"/></svg>