<svg height="64" viewBox="0 0 64 64" width="64" xmlns="http://www.w3.org/2000/svg"><g fill="none" fill-rule="evenodd"><path d="m0 0h64v64h-64z" fill="#7aa116"/><path d="m0 .429h9.458v1.336h-8.023v6.682h6.783v1.336h-6.783v8.119h-1.435zm20.399 10.325q.804 1.022.803 2.559 0 2.245-1.593 3.631-1.592 1.387-4.194 1.387-2.698 0-4.813-1.059v-1.286q2.552.958 4.692.958 2.018 0 3.222-.983 1.202-.984 1.203-2.673 0-1.033-.657-1.765-.655-.73-2.115-1.311l-2.82-1.135q-1.873-.756-2.748-1.802t-.875-2.585q0-2.092 1.447-3.391t3.805-1.299q1.07 0 2.249.265t2.224.744v1.286q-2.48-.908-4.401-.908-1.872 0-2.868.845-.997.844-.997 2.408-.001.882.304 1.424.303.543.997.984.693.441 1.981.945l2.602 1.034q1.75.707 2.552 1.727m5.954 1.005.881 1.291-3.265 4.946h-1.958zm2.775-1.334 1.872 2.762v3.032l-3.811-5.662.988-1.42 3.694-5.468h1.93zm-2.799-1.08-3.884-5.676h2.038l2.874 4.255zm8.671 7.655h7.001v-1h-7.001zm1-3h5v-3h-5zm7 0v-4a1 1 0 0 0 -1-1h-7a1 1 0 0 0 -1 1v4a1 1 0 0 0 -1 1v2c0 1.103.897 2 2 2h7c1.103 0 2-.897 2-2v-2a1 1 0 0 0 -1-1" fill="#fff" transform="translate(9.854 23)"/></g></svg>