<svg xmlns="http://www.w3.org/2000/svg" fill-rule="evenodd" stroke-linejoin="round" stroke-miterlimit="2" clip-rule="evenodd" viewBox="0 0 1024 1024"><path fill="currentColor" d="M949 909.311C948.83 931.245 930.97 949 909 949H505.31L332.76 650.124H949zM75 909V733.513L455.19 75h148.58L282.58 631.33 465.98 949H115c-22.08 0-40-17.923-40-40m487.17-292.956H411.95c-16.77 0-32.27-8.8-40.65-23.327-8.38-14.502-8.38-32.433 0-46.935l75.15-130.17zM909 75c21.97 0 39.83 17.755 40 39.689v501.355H601.52L466.11 381.549 643.1 75z"/></svg>