<svg fill="none" viewBox="0 0 120 120" xmlns="http://www.w3.org/2000/svg" xmlns:xlink="http://www.w3.org/1999/xlink"><linearGradient id="a" x1="0%" x2="100%" y1="0%" y2="100%"><stop offset="0" stop-color="#ff4d4d"/><stop offset="1" stop-color="#991b1b"/></linearGradient><g fill="url(#a)"><path d="m60 10c-30 0-45 25-45 45s15 40 30 45v10h10v-10s5 2 10 0v10h10v-10c15-5 30-25 30-45s-15-45-45-45"/><path d="m20 45c-15-5-20 5-15 15s15 5 20-5c3-7 0-10-5-10"/><path d="m100 45c15-5 20 5 15 15s-15 5-20-5c-3-7 0-10 5-10"/></g><path d="m45 15q-10-10-15-7m45 7q10-10 15-7" stroke="#ff4d4d" stroke-linecap="round" stroke-width="3"/><circle cx="45" cy="35" fill="#050810" r="6"/><circle cx="75" cy="35" fill="#050810" r="6"/><circle cx="46" cy="34" fill="#00e5cc" r="2.5"/><circle cx="76" cy="34" fill="#00e5cc" r="2.5"/></svg>