<svg xmlns="http://www.w3.org/2000/svg" xml:space="preserve" id="Layer_1" x="0" y="0" viewBox="0 0 556.6 79.4"><symbol id="MQ_LOGO_DARK" viewBox="-752.1 -107.3 1504.3 214.6"><path id="path-1_1_" d="M-220.1 80.4v-110l-31.2 70.4h-18.1l-31.2-70.1V80.4h-27.5V-80.4h31.5L-260-1.1l36.2-79.3h31.2V80.4zM-83.3-44.1l-21.9 63.5h43.5zm43.5 124.5-11.9-34.1h-61.4L-125 80.4h-30.3l56.5-160.8h33L-9.5 80.4zM107.9-43s0-1.6-.3-1.9c-1.6-3-5.8-8.4-8.4-8.6H51.6v43.1h46.3c2.4 0 7.6-5.4 9.7-9.2.2-.3.3-.7.3-1.1zm5.2 123.4L77.9 16.5H52.6v63.8H25V-80.4h73.8c6.8.1 13.3 2.1 18.9 5.9 3.7 2.7 11.6 11.3 13.9 14.8 3.1 4.9 4.7 10.6 4.7 16.4v23.2c.1 5.8-1.6 11.5-4.7 16.4-2.4 3.5-10.2 11.6-13.9 14.3-2.9 2-6.2 3.3-9.7 4l37.6 65.7zm94.3-38.7s0 .8.3 1.1c3.2 4.8 8.8 10.7 11.7 12.3.4.2.9.3 1.3.3h6.1l-4-9.4 25.5-8.6 7.7 18h3.5c.5 0 .9-.1 1.3-.3 2.9-1.6 8-7.5 11.1-12.3.2-.3.3-.7.3-1.1v-82.8s0-.8-.3-1.1c-3.2-4.8-8.2-9.6-11.2-11.2-.4-.2-.9-.3-1.3-.3h-38.7s-1.1 0-1.3.3c-4.6 2.9-8.6 6.8-11.7 11.2-.2.3-.3.7-.3 1.1zm58.7 40.5 10.4 23.3H247l-9.8-23.3h-17.5c-5.8-.1-11.5-1.8-16.5-4.8-5.6-3.2-16.2-14.7-19.4-19.3-2.9-4.6-4.4-9.9-4.2-15.3V-41c-.1-5.4 1.4-10.7 4.2-15.2 3.2-4.5 13.8-16.1 19.4-19.3 5-3 10.7-4.7 16.5-4.8H260c5.8.2 11.5 1.8 16.5 4.8 5.6 3.2 15.9 14.7 19.4 19.3 2.9 4.6 4.4 9.9 4.2 15.3V43c.1 5.4-1.3 10.7-4.2 15.3-3.4 4.6-13.8 16.1-19.4 19.3-4 2.1-6.6 3.8-10.6 4.3zm81.1-1.8V-80.4h101.5v26.9h-74.8v40.6h70.8V14h-70.8v39.5h74.8v26.9zM559-53.5V80.4h-28.3V-53.5H487v-26.9h115.6v26.9zm120.4 9.4-21.9 63.4H701zm42.5 124.5L710 46.2h-61.4l-11.9 34.1h-30.3l56.5-160.8h33l56.2 160.8h-30.2z" fill="#2b2869"/><path d="M-752.1-107.3h122.7L-556.5 0l-54.6 80.5h40.6L-515.6 0l-72.9-107.3H-466L-392.9 0-466 107.3h-40.7L-433.8 0l-54.6-80.5h-40.9L-474.7 0l-72.9 107.3h-122.7L-597.4 0l-54.9-80.5h-40.9L-638.1 0l-73.1 107.3h-40.9L-679 0z" fill="#2b2869"/></symbol><g id="Layer_2_1_"><use id="Layer_1-2" width="1504.3" height="214.6" x="-752.1" y="-107.3" href="#MQ_LOGO_DARK" transform="matrix(.37 0 0 .37 278.296 39.696)" overflow="visible"/></g></svg>