<svg height="18" viewBox="0 0 18 18" width="18" xmlns="http://www.w3.org/2000/svg" xmlns:xlink="http://www.w3.org/1999/xlink"><linearGradient id="a" gradientTransform="matrix(-1 0 0 -1 -2138.383 1025.516)" gradientUnits="userSpaceOnUse" x1="-2149.665" x2="-2149.665" y1="1022.157" y2="1011.114"><stop offset="0" stop-color="#b796f9"/><stop offset=".314" stop-color="#b593f8"/><stop offset=".503" stop-color="#af8bf5"/><stop offset=".658" stop-color="#a57cf1"/><stop offset=".796" stop-color="#9768ea"/><stop offset=".921" stop-color="#854ee2"/><stop offset=".999" stop-color="#773adc"/></linearGradient><path d="m17.165 3.976h-.897a4 4 0 0 0 -.542 0 .67.67 0 0 1 -.661-.68c.002-.107.079-.305.079-.305l.641-1.342-.453-.227-1.223 2.229a.69.69 0 0 1 -.592.345h-.818a.66.66 0 0 0 -.316.079l-1.548.985a.25.25 0 0 1 -.158 0h-5.355a.285.285 0 0 0 -.266.315v4.748l-1.726.532.128.552 1.597-.236v2.857c0 .158.128.286.286.286h9.24l1.134 1.468.483-.305-.671-1.162h1.657a.287.287 0 0 0 .296-.276v-9.567a.296.296 0 0 0 -.295-.296z" fill="#773adc"/><g fill="#b796f9"><circle cx="15.784" cy="1.199" r="1.074"/><circle cx="16.475" cy="16.476" r="1.4"/><circle cx="1.87" cy="11.403" r="1.744"/></g><path d="m15.084 4.814-6.814-.985h-.138a.986.986 0 0 0 -.986.857l-.256 1.665h9.013v-.404a.986.986 0 0 0 -.813-1.132h-.006z" fill="#a67af4"/><path d="m15.015 5.237-6.804-.985h-.089a.57.57 0 0 0 -.562.493l-.237 1.606h8.106l.069-.463a.57.57 0 0 0 -.481-.65z" fill="#fff"/><path d="m5.312 5.06h5.966a.32.32 0 0 1 .207.089l.986.985a.28.28 0 0 0 .207.089h4.536c.16 0 .291.126.296.286v7.319a.296.296 0 0 1 -.296.286h-11.833a.286.286 0 0 1 -.326-.286v-8.453a.295.295 0 0 1 .256-.315z" fill="url(#a)"/></svg>