<svg xmlns="http://www.w3.org/2000/svg" width="79.181" height="90.282" viewBox="-1.663 -1.663 15.98 18.229"><path fill="#d70025" d="M6.282 2.203 7.298 5.33h3.285L7.926 7.26l1.014 3.124-2.658-1.931-2.659 1.93L4.638 7.26 1.982 5.33h3.285zm3.907-.006c-2.385-2.382-3.907-3.86-3.907-3.86S4.759-.185 2.377 2.197c-1.26 1.259-4.09 4.379-4.09 7.478a3.744 3.744 0 0 0 6.946 1.942.4.4 0 0 1 .294-.147c.19 0 .368.138.346.306-.144 1.114-.771 3.864-3.246 4.79h7.309c-2.475-.926-3.104-3.676-3.247-4.79-.02-.168.155-.306.347-.306a.4.4 0 0 1 .293.147 3.743 3.743 0 0 0 6.945-1.942c0-3.1-2.827-6.22-4.086-7.478"/></svg>