<svg xmlns="http://www.w3.org/2000/svg" width="18" height="18" viewBox="0 0 18 18">
  <defs>
    <mask id="wko">
      <rect width="18" height="18" fill="white"/>
      <path fill="black" d="M6.832 11.664 8.337 9.47a.55.55 0 0 0 .1-.311v-.884a.175.175 0 0 1 .171-.175h.854a.176.176 0 0 1 .175.175v.944a.36.36 0 0 0 .065.209l1.536 2.236a.131.131 0 0 1-.108.205H6.94a.131.131 0 0 1-.108-.205"/>
      <path fill="black" d="M13.633 13.887h-.437V7.935h.437a.2.2 0 0 1 .2.2v5.553a.2.2 0 0 1-.2.199"/>
      <path fill="black" d="M4.367 7.935H4.8v5.952h-.433a.2.2 0 0 1-.2-.2V8.134a.2.2 0 0 1 .2-.199"/>
    </mask>
  </defs>
  <g fill="currentColor" mask="url(#wko)">
    <path fill="currentColor" d="M17.684 11.3A3.9 3.9 0 0 0 14.3 7.548a4.92 4.92 0 0 0-5.066-4.7 5.05 5.05 0 0 0-4.825 3.285 4.656 4.656 0 0 0-4.093 4.481 4.725 4.725 0 0 0 4.89 4.541q.218 0 .431-.018h7.92a.8.8 0 0 0 .209-.032 3.95 3.95 0 0 0 3.918-3.805"/>
    <path fill="currentColor" d="M12.076 12.466H6.012c-.193 0-.307-.309-.2-.468L7.9 8.952a.24.24 0 0 0 .042-.136V6.8a.12.12 0 0 0-.12-.12h-.108a.24.24 0 0 1-.24-.239v-.106a.24.24 0 0 1 .24-.24h2.659a.24.24 0 0 1 .24.24v.109a.24.24 0 0 1-.24.239h-.112a.12.12 0 0 0-.12.12v2.018a.24.24 0 0 0 .042.136L12.274 12c.109.157-.005.466-.198.466"/>
  </g>
</svg>