<svg height="18" viewBox="0 0 18 18" width="18" xmlns="http://www.w3.org/2000/svg" xmlns:xlink="http://www.w3.org/1999/xlink"><linearGradient id="a" gradientUnits="userSpaceOnUse" x1="9" x2="9" y1="15.155" y2="2.845"><stop offset="0" stop-color="#0078d4"/><stop offset=".817" stop-color="#5ea0ef"/></linearGradient><linearGradient id="b" gradientUnits="userSpaceOnUse" x1="9.044" x2="9.044" y1="12.424" y2="6.079"><stop offset="0" stop-color="#50e6ff"/><stop offset="1" stop-color="#9cebff"/></linearGradient><path d="m17.684 11.3a3.9 3.9 0 0 0 -3.384-3.752 4.92 4.92 0 0 0 -5.066-4.7 5.05 5.05 0 0 0 -4.825 3.285 4.656 4.656 0 0 0 -4.093 4.481 4.725 4.725 0 0 0 4.89 4.541q.218 0 .431-.018h7.92a.8.8 0 0 0 .209-.032 3.95 3.95 0 0 0 3.918-3.805" fill="url(#a)"/><path d="m12.076 12.466h-6.064c-.193 0-.307-.309-.2-.468l2.088-3.046a.24.24 0 0 0 .042-.136v-2.016a.12.12 0 0 0 -.12-.12h-.108a.24.24 0 0 1 -.24-.239v-.106a.24.24 0 0 1 .24-.24h2.659a.24.24 0 0 1 .24.24v.109a.24.24 0 0 1 -.24.239h-.112a.12.12 0 0 0 -.12.12v2.018a.24.24 0 0 0 .042.136l2.091 3.043c.109.157-.005.466-.198.466" fill="url(#b)"/><path d="m6.832 11.664 1.505-2.194a.55.55 0 0 0 .1-.311v-.884a.175.175 0 0 1 .171-.175h.854a.176.176 0 0 1 .175.175v.944a.36.36 0 0 0 .065.209l1.536 2.236a.131.131 0 0 1 -.108.205h-4.19a.131.131 0 0 1 -.108-.205" fill="#fff"/><g fill="#e6e6e6"><path d="m13.832 8.136v.452h-1.262a.1.1 0 0 1 -.1-.1v-.452a.1.1 0 0 1 .1-.1h1.062a.2.2 0 0 1 .2.2"/><path d="m13.832 8.136v.452h-1.262a.1.1 0 0 1 -.1-.1v-.452a.1.1 0 0 1 .1-.1h1.062a.2.2 0 0 1 .2.2" opacity=".5"/></g><g fill="#e6e6e6"><path d="m13.831 13.235v.452a.2.2 0 0 1 -.2.2h-1.062a.1.1 0 0 1 -.1-.1v-.452a.1.1 0 0 1 .1-.1z"/><path d="m13.831 13.235v.452a.2.2 0 0 1 -.2.2h-1.062a.1.1 0 0 1 -.1-.1v-.452a.1.1 0 0 1 .1-.1z" opacity=".5"/></g><path d="m13.633 13.887h-.437v-5.952h.437a.2.2 0 0 1 .2.2v5.553a.2.2 0 0 1 -.2.199" fill="#fff"/><g fill="#e6e6e6"><path d="m5.531 8.036v.452a.1.1 0 0 1 -.1.1h-1.262v-.452a.2.2 0 0 1 .2-.2h1.062a.1.1 0 0 1 .1.1"/><path d="m5.531 8.036v.452a.1.1 0 0 1 -.1.1h-1.262v-.452a.2.2 0 0 1 .2-.2h1.062a.1.1 0 0 1 .1.1" opacity=".5"/></g><g fill="#e6e6e6"><path d="m5.531 13.335v.452a.1.1 0 0 1 -.1.1h-1.062a.2.2 0 0 1 -.2-.2v-.452h1.262a.1.1 0 0 1 .1.1"/><path d="m5.531 13.335v.452a.1.1 0 0 1 -.1.1h-1.062a.2.2 0 0 1 -.2-.2v-.452h1.262a.1.1 0 0 1 .1.1" opacity=".5"/></g><path d="m4.367 7.935h.433v5.952h-.433a.2.2 0 0 1 -.2-.2v-5.553a.2.2 0 0 1 .2-.199" fill="#fff"/></svg>