<svg height="18" viewBox="0 0 18 18" width="18" xmlns="http://www.w3.org/2000/svg" xmlns:xlink="http://www.w3.org/1999/xlink"><linearGradient id="a" gradientUnits="userSpaceOnUse" x1="12.051" x2="4.134" y1="1.477" y2="16.083"><stop offset="0" stop-color="#0fafff"/><stop offset="1" stop-color="#2764e7"/></linearGradient><linearGradient id="b" gradientUnits="userSpaceOnUse" x1="12.051" x2="4.134" y1="1.477" y2="16.083"><stop offset="0" stop-color="#0094f0"/><stop offset="1" stop-color="#2052cb"/></linearGradient><linearGradient id="c" gradientTransform="matrix(1 0 0 -1 0 20)" gradientUnits="userSpaceOnUse" x1="9" x2="9" y1="5.653" y2="16.215"><stop offset="0" stop-color="#6ab2ff"/><stop offset="1" stop-color="#d8f7ff"/></linearGradient><path d="m9 17.873a1.75 1.75 0 0 1 -.712-.151l-1.411-.627a13.3 13.3 0 0 1 -3.856-2.603 7.3 7.3 0 0 1 -2.212-5.221v-5.98c0-.411.334-.745.745-.745h.943a7.44 7.44 0 0 0 3.788-1.036l2.022-1.195c.268-.158.64-.228.894-.174.349.071.441.13.932.435l1.582.934a7.45 7.45 0 0 0 3.789 1.036h.943c.41 0 .744.334.744.745v5.981c0 1.957-.806 3.86-2.212 5.221a13.3 13.3 0 0 1 -3.856 2.603l-1.411.627q-.342.15-.712.151z" fill="url(#a)"/><path d="m9 17.873a1.75 1.75 0 0 1 -.712-.151l-1.411-.627a13.3 13.3 0 0 1 -3.856-2.603 7.3 7.3 0 0 1 -2.212-5.221v-5.98c0-.411.334-.745.745-.745h.943a7.44 7.44 0 0 0 3.788-1.036l2.022-1.195c.268-.158.64-.228.894-.174.349.071.441.13.932.435l1.582.934a7.45 7.45 0 0 0 3.789 1.036h.943c.41 0 .744.334.744.745v5.981c0 1.957-.806 3.86-2.212 5.221a13.3 13.3 0 0 1 -3.856 2.603l-1.411.627q-.342.15-.712.151zm-7.167-14.303v5.702c0 1.681.693 3.316 1.901 4.485a12.3 12.3 0 0 0 3.56 2.402l1.41.627a.74.74 0 0 0 .594 0l1.41-.627a12.3 12.3 0 0 0 3.56-2.402 6.28 6.28 0 0 0 1.9-4.485v-5.702h-.662a8.47 8.47 0 0 1 -4.31-1.178l-2.021-1.194h-.001a.34.34 0 0 0 -.343 0l-2.023 1.195a8.5 8.5 0 0 1 -4.309 1.178h-.666z" fill="url(#b)"/><path d="m9.592 11.219v-3.994h6.575v-1.183h-2.138v-2.618a8.4 8.4 0 0 1 -1.183-.301v2.919h-7.69v-2.919q-.58.193-1.183.301v2.618h-2.14v1.183h6.576v3.994h-6.257q.205.62.532 1.183h1.288v1.566q.564.518 1.183.96v-2.526h7.69v2.526q.62-.442 1.183-.96v-1.567h1.288q.327-.564.532-1.183z" fill="url(#c)"/></svg>