<svg xmlns="http://www.w3.org/2000/svg" width="256" height="256" preserveAspectRatio="xMidYMid" viewBox="0 0 256 256"><path fill="currentColor" d="M46.36 255.991c91.075-7.978 170.982-63.92 209.64-146.768C208.12 40.799 129.873.033 46.36 0Q35.2 0 23.936.99c-38.612 82.903-30.064 180.109 22.424 255Z"/><path fill="currentColor" d="M24.209 1.024a301.4 301.4 0 0 1 134.685 108.199H256C208.263 40.76 130.062-.03 46.6 0Q35.438 0 24.209 1.024"/><path fill="currentColor" d="M158.894 109.223C147.187 186.6 46.258 255.99 46.258 255.99c91.781-8.67 172.23-63.622 209.742-146.768z"/></svg>