<svg height="52.434" viewBox="0 0 52.497 52.434" width="52.497" xmlns="http://www.w3.org/2000/svg" xmlns:xlink="http://www.w3.org/1999/xlink"><linearGradient id="a"><stop offset="0" stop-color="#225086"/><stop offset="1" stop-color="#0055c5"/></linearGradient><linearGradient id="b" gradientUnits="userSpaceOnUse" x1="21.61" x2="39.592" xlink:href="#a" y1="32.173" y2="11.158"/><linearGradient id="c" gradientUnits="userSpaceOnUse" x1="17.85" x2="17.85" y1="35.065" y2="-10.83"><stop offset="0" stop-color="#6df"/><stop offset="1" stop-color="#0294e4"/></linearGradient><linearGradient id="d" gradientUnits="userSpaceOnUse" x1="25.247" x2="25.247" y1="41.303" y2="-12.053"><stop offset="0" stop-color="#44dbf9"/><stop offset="1" stop-color="#cbf8ff"/></linearGradient><linearGradient id="e" gradientUnits="userSpaceOnUse" x1="37.87" x2="37.87" y1="41.745" y2="-.538"><stop offset="0" stop-color="#041642"/><stop offset="1" stop-color="#041642" stop-opacity=".25"/></linearGradient><linearGradient id="f" gradientUnits="userSpaceOnUse" x1="43.035" x2="43.035" xlink:href="#a" y1="47.95" y2="36.451"/><linearGradient id="g" gradientUnits="userSpaceOnUse" x1="43.092" x2="43.092" xlink:href="#a" y1="37.715" y2="27.093"/><linearGradient id="h"><stop offset="0" stop-color="#0294e4"/><stop offset="1" stop-color="#6df"/></linearGradient><linearGradient id="i" gradientUnits="userSpaceOnUse" x1="31.034" x2="31.034" xlink:href="#h" y1="52.434" y2="40.936"/><linearGradient id="j" gradientUnits="userSpaceOnUse" x1="32.279" x2="32.279" xlink:href="#h" y1="42.199" y2="31.577"/><g stroke-width="0"><path d="m23.216 44.685c.941-1.692 2.241-2.989 3.866-3.831a6.53 6.53 0 0 1 -1.339-3.966c0-3.606 2.932-6.54 6.535-6.54 1.641 0 3.143.609 4.292 1.612.228-3.4 3.066-6.097 6.521-6.097 2.995 0 5.52 2.029 6.289 4.784 1.395-1.453 1.514-3.732.119-5.318l-21.037-23.897c-1.681-1.91-4.753-1.91-6.434 0l-21.037 23.898c-1.625 1.846-1.201 4.637.906 5.963l21.037 13.241c.091.057.188.101.282.15z" fill="url(#b)"/><path d="m28.464 1.432c-1.681-1.91-4.753-1.91-6.434 0l-21.038 23.898c-1.625 1.846-1.201 4.637.906 5.963l8.768 5.519c1.088.685 2.899 1.445 4.81 1.445a8.63 8.63 0 0 0 4.701-1.376l.005-.003 5.062-3.186-12.241-7.707 12.551-14.258c1.544-1.771 3.863-2.899 6.458-2.899 1.324 0 2.571.301 3.685.824z" fill="url(#c)"/><path d="m25.247 33.691 2.746-1.728a6.5 6.5 0 0 1 1.75-1.102l7.746-4.875-12.243-13.908-12.242 13.908.145.091 12.097 7.614z" fill="url(#d)"/><path d="m27.082 40.855a6.53 6.53 0 0 1 -1.339-3.966c0-3.606 2.932-6.54 6.535-6.54 1.641 0 3.143.609 4.292 1.612.228-3.4 3.066-6.097 6.521-6.097 2.996 0 5.522 2.031 6.29 4.787 1.397-1.453 1.518-3.734.121-5.32l-21.036-23.899a4.27 4.27 0 0 0 -3.218-1.432v42.123a9 9 0 0 1 1.834-1.269z" fill="url(#e)" fill-opacity=".5" opacity=".5"/><path d="m35.665 47.833 3.266-3.277c.22-.221.514-.343.826-.343s.603.121.824.341c.219.218.344.521.343.827v1.191h.028l6.873-.008v-1.189a1.17 1.17 0 0 1 1.164-1.171h.003c.312 0 .605.122.825.342l2.499 2.498c.108-.217.176-.459.18-.718v-.258c-.67-5.285-3.684-9.616-9.454-9.616s-8.887 3.661-9.454 9.642a1.675 1.675 0 0 0 1.494 1.856h.49c.031-.039.058-.08.094-.117z" fill="url(#f)"/><path d="m43.118 37.715a5.14 5.14 0 0 1 -2.859-.851l2.834 7.554 2.834-7.399a5.15 5.15 0 0 1 -2.808.696z" fill="#fff" opacity=".8"/><ellipse cx="43.092" cy="32.404" fill="url(#g)" rx="5.306" ry="5.311"/><path d="m35.663 49.783a1.39 1.39 0 0 1 .002-1.95l3.266-3.277a1.2 1.2 0 0 1 .375-.253c-1.575-2.055-3.908-3.368-7.079-3.368-5.77 0-8.887 3.661-9.454 9.642a1.675 1.675 0 0 0 1.494 1.856h14.041l-2.646-2.651z" fill="url(#i)"/><path d="m32.305 42.199a5.14 5.14 0 0 1 -2.859-.851l2.834 7.554 2.834-7.399a5.15 5.15 0 0 1 -2.808.696z" fill="#fff" opacity=".8"/><ellipse cx="32.279" cy="36.888" fill="url(#j)" rx="5.306" ry="5.311"/><path d="m52.384 48.517-3.27-3.269a.175.175 0 0 0 -.298.124v2.009a.174.174 0 0 1 -.174.174l-7.69.009q-.01.001-.021.004h-.826a.174.174 0 0 1 -.174-.174v-2.013a.174.174 0 0 0 -.298-.124l-3.266 3.277a.39.39 0 0 0 0 .549l3.266 3.273a.17.17 0 0 0 .131.056.175.175 0 0 0 .171-.178v-2.019c0-.096.078-.174.174-.174h.815q.014.005.027.006l7.69-.009c.096 0 .174.078.174.174v2.004a.174.174 0 0 0 .298.124l3.27-3.273a.39.39 0 0 0 0-.549z" fill="#6df"/></g></svg>