<svg viewBox="0 0 24 24" xmlns="http://www.w3.org/2000/svg"><path d="m20.6081 5.6014-1.9708 1.9588c-.347.3111-.515.8114-.3203 1.2342 1.3127 2.7471.8142 6.0223-1.3403 8.175-2.1554 2.1516-5.4343 2.6492-8.1842 1.3375-.4052-.1819-.8806-.0277-1.1926.288l-2.0031 2.0003a1.0652 1.0652 0 0 0 .192 1.6708 12.0048 12.0048 0 0 0 14.6864-1.765 11.9725 11.9725 0 0 0 1.8056-14.665 1.0652 1.0652 0 0 0 -1.6727-.2345zm-17.0467-2.1277a11.9716 11.9716 0 0 0 -1.8647 14.6633 1.0652 1.0652 0 0 0 1.6727.2345l1.9606-1.9477c.3554-.3102.528-.816.3314-1.2444-1.3136-2.747-.816-6.0222 1.3394-8.1749 2.1545-2.1525 5.4343-2.6502 8.1842-1.3385.4006.1791.8695.0305 1.1824-.2769l2.0142-2.0123a1.0634 1.0634 0 0 0 -.192-1.6708 12.0085 12.0085 0 0 0 -14.6706 1.8212z"/></svg>