<svg xmlns="http://www.w3.org/2000/svg" width="18" height="18" viewBox="0 0 18 18"><defs><mask id="a"><path fill="#fff" d="M0 0h18v18H0z"/><path d="M9.59 8.41V.12H8.41V8.4H.12v1.18H8.4v8.28h1.18V9.58h8.28V8.4H9.58z"/><path d="M3.68 14.33V3.68h1.18v10.65z"/><path d="m4.14 4.98.84-.84 8.88 8.88-.84.84z"/><path d="M14.33 4.86H4.86V3.68h9.47z"/><circle cx="4.27" cy="4.27" r="2.96"/><circle cx="13.73" cy="4.27" r="1.77"/><circle cx="4.27" cy="13.73" r="1.77"/><circle cx="13.73" cy="13.73" r="1.77"/></mask></defs><path fill="currentColor" d="M.12 1.31C.12.65.65.12 1.31.12h15.38c.65 0 1.18.53 1.18 1.18v15.38c0 .65-.53 1.18-1.18 1.18H1.31c-.65 0-1.18-.53-1.18-1.18V1.31z" mask="url(#a)"/></svg>