<svg xmlns="http://www.w3.org/2000/svg" xmlns:xlink="http://www.w3.org/1999/xlink" width="18" height="18" viewBox="0 0 18 18"><linearGradient id="a"><stop offset="0" stop-color="#ccc"/><stop offset=".12" stop-color="#d7d7d7"/><stop offset=".42" stop-color="#ebebeb"/><stop offset=".72" stop-color="#f8f8f8"/><stop offset="1" stop-color="#fcfcfc"/></linearGradient><linearGradient xlink:href="#a" id="b" x1="4.24" x2="4.24" y1="7.12" y2="2.8" gradientUnits="userSpaceOnUse"/><linearGradient xlink:href="#a" id="c" x1="13.6" x2="13.6" y1="6.04" y2="3.52" gradientUnits="userSpaceOnUse"/><linearGradient xlink:href="#a" id="d" x1="4.24" x2="4.24" y1="15.4" y2="12.88" gradientUnits="userSpaceOnUse"/><linearGradient xlink:href="#a" id="e" x1="13.6" x2="13.6" y1="15.4" y2="12.88" gradientUnits="userSpaceOnUse"/><path fill="#0078d7" d="M.12 1.31C.12.65.65.12 1.31.12h15.38c.65 0 1.18.53 1.18 1.18v15.38c0 .65-.53 1.18-1.18 1.18H1.31c-.65 0-1.18-.53-1.18-1.18V1.31z"/><g fill="#fff"><path d="M9.59 8.41V.12H8.41V8.4H.12v1.18H8.4v8.28h1.18V9.58h8.28V8.4H9.58z" opacity=".8"/><path d="M3.68 14.33V3.68h1.18v10.65z"/><path d="m4.14 4.98.84-.84 8.88 8.88-.84.84z"/><path d="M14.33 4.86H4.86V3.68h9.47z"/></g><circle cx="4.27" cy="4.27" r="2.96" fill="url(#b)"/><circle cx="13.73" cy="4.27" r="1.77" fill="url(#c)"/><circle cx="4.27" cy="13.73" r="1.77" fill="url(#d)"/><circle cx="13.73" cy="13.73" r="1.77" fill="url(#e)"/></svg>