<svg height="18" viewBox="0 0 18 18" width="18" xmlns="http://www.w3.org/2000/svg" xmlns:xlink="http://www.w3.org/1999/xlink"><linearGradient id="a"><stop offset="0" stop-color="#ccc"/><stop offset=".12" stop-color="#d7d7d7"/><stop offset=".42" stop-color="#ebebeb"/><stop offset=".72" stop-color="#f8f8f8"/><stop offset="1" stop-color="#fcfcfc"/></linearGradient><linearGradient id="b" gradientUnits="userSpaceOnUse" x1="4.24" x2="4.24" xlink:href="#a" y1="7.12" y2="2.8"/><linearGradient id="c" gradientUnits="userSpaceOnUse" x1="13.6" x2="13.6" xlink:href="#a" y1="6.04" y2="3.52"/><linearGradient id="d" gradientUnits="userSpaceOnUse" x1="4.24" x2="4.24" xlink:href="#a" y1="15.4" y2="12.88"/><linearGradient id="e" gradientUnits="userSpaceOnUse" x1="13.6" x2="13.6" xlink:href="#a" y1="15.4" y2="12.88"/><path d="m.12 1.31c0-.66.53-1.19 1.19-1.19h15.38c.65 0 1.18.53 1.18 1.18v15.38c0 .65-.53 1.18-1.18 1.18h-15.38c-.65 0-1.18-.53-1.18-1.18v-15.37z" fill="#0078d7"/><g fill="#fff"><path d="m9.59 8.41v-8.29h-1.18v8.28h-8.29v1.18h8.28v8.28h1.18v-8.28h8.28v-1.18h-8.28z" opacity=".8"/><path d="m3.68 14.33v-10.65h1.18v10.65z"/><path d="m4.14 4.98.84-.84 8.88 8.88-.84.84z"/><path d="m14.33 4.86h-9.47v-1.18h9.47z"/></g><circle cx="4.27" cy="4.27" fill="url(#b)" r="2.96"/><circle cx="13.73" cy="4.27" fill="url(#c)" r="1.77"/><circle cx="4.27" cy="13.73" fill="url(#d)" r="1.77"/><circle cx="13.73" cy="13.73" fill="url(#e)" r="1.77"/></svg>