<svg xmlns="http://www.w3.org/2000/svg" width="24" height="24"><path fill="#669df6" d="M19.5 16.17h-7.26a2.53 2.53 0 0 0-2.74 2.5 2.5 2.5 0 0 0 2.74 2.5h7.26z"/><circle cx="19.5" cy="18.67" r="2.5" fill="#4285f4"/><path fill="#669df6" d="M12 9.5H4.74A2.53 2.53 0 0 0 2 12a2.5 2.5 0 0 0 2.74 2.5H12z"/><circle cx="12" cy="12" r="2.5" fill="#4285f4"/><path fill="#669df6" d="M19.5 2.83h-7.26a2.54 2.54 0 0 0-2.74 2.5 2.5 2.5 0 0 0 2.74 2.5h7.26z"/><circle cx="19.5" cy="5.33" r="2.5" fill="#4285f4"/></svg>