<svg xmlns="http://www.w3.org/2000/svg" width="1154.268" height="188.847" viewBox="0 0 305.4 49.966"><defs><mask id="a"><path fill="#fff" d="M0 0h305.4v49.966H0z"/><path d="M28.83 5.64c1.387.582 6.963 3.602 7.652 4.554-2.971.401-8.6 2.086-11.439 3.603 3.262-.723 7.83-1.1 10.974-1.268-1.228 1.803-1.92 2.72-3.905 4.875 3.41-2.041 4.371-2.197 7.507-4.04 1.198 1.757 1.477 5.804 1.514 9.008 1.027-2.028 2.272-9.687 1.751-11.079 1.88-1.246 1.9-1.731 2.388-2.569-1.915.171-2.985.187-4.014.508-2.617-1.6-8.013-3.25-12.428-3.592M16.658 40.837c-1.802-.668-3.1-1.446-4.529-2.782.428-1.18.916-2.103 1.712-3.286a94 94 0 0 0-3.807.623c-1.027-1.797-1.493-3.533-2.017-5.948-.28 2.56-.385 4.387-.025 6.425-1.157.321-1.978.603-2.932 1.032 1.336.817 2.415 1.447 3.906 2.142.802 1.72 1.63 2.881 2.975 4.206-.315-1.129-.399-2.026-.27-3.21 1.667.485 3.094.74 4.987.798m4.691-25.47c-.562.73-1.213 2.088-1.389 2.719 4.645.63 8.372 3.014 8.372 3.014-4.062-.72-6.202-.63-7.717-.494-1.505.142-1.815.319-1.815.319-1.096 2.4-1.753 6.522-1.753 6.522-.738-1.781-1.806-5.349-1.806-5.349-2.05 1.096-6.762 5.53-6.762 5.53 2.59-5.19 5.22-7.552 5.22-7.552-.904-.916-3.277-1.374-5.013-1.45.9-.368 3.213-.798 4.988-.88 1.778-.051 2.854.05 2.854.05 1.585-1.252 3.992-2.306 4.82-2.429m4.927 22.252a38 38 0 0 1-2.434 3.003c-1.563.438-2.81.6-4.333.6.935.484 1.84.773 2.817.977-.976.883-1.8 1.512-2.748 2.115 1.588-.376 3.675-1.05 5.23-1.97.812.032 1.571-.02 2.128-.13a12 12 0 0 1-.353-1.436c1.464-1.132 2.526-2.159 3.745-3.392-1.296.905-2.415 1.58-3.916 2.288a40 40 0 0 1-.136-2.055"/></mask></defs><g fill="currentColor" mask="url(#a)"><path d="M0 49.965h50.811V0H.001z"/></g></svg>