<svg xmlns="http://www.w3.org/2000/svg" width="1154.268" height="188.847" viewBox="0 0 305.4 49.966"><path d="M133.309 18.276c3.351.027 4.58.708 4.58 2.533a1.93 1.93 0 0 1-.452 1.292c-.641.77-1.89 1.168-3.487 1.069h-.081l-.937 2.44h.937c1.849-.055 3.46.526 4.285 1.535a2.47 2.47 0 0 1 .575 1.578c0 1.906-1.683 2.891-4.996 2.891-.56 0-1.47 0-2.032-.018a250 250 0 0 1-.136-7.026c0-1.201.078-3.878.136-6.164.382-.078 1.017-.13 1.608-.13m-6.213-1.752c.105 1.807.21 6.378.21 8.046 0 1.536-.002 6.677-.27 8.893l-.018.175h8.046c3.951 0 8.131-1.229 8.131-4.734 0-2.196-1.59-3.819-4.565-4.707 2.207-.59 3.677-2.096 3.677-3.822 0-2.864-3.292-3.939-6.384-4.014h-8.872zm34.664-.151h-3.915l.16 4.357c.075 2.153.147 4.367.301 6.517-.253-.671-.488-1.02-1.677-2.75-.003-.06-4.072-6.308-5.484-8.085l-.042-.04h-4.542v.163c.145 1.807.205 6.379.205 8.047 0 1.536 0 6.676-.217 8.896l-.039.171h4.045v-.171c-.23-4.22-.23-8.474-.23-12.603.142.503.323.93.958 1.873.055.114 7.023 10.25 7.36 10.83l.036.071h3.24l-.002-.171c-.247-2.22-.268-7.36-.268-8.896 0-1.668.111-6.24.217-8.047l.05-.162zm10.61 2.074c2.256-.04 3.831.413 4.578 1.361a2.4 2.4 0 0 1 .533 1.557c0 2.5-2.818 3.042-5.17 3.042l-.955-.054-.395-.04c-.015-.575-.015-1.337-.015-2.192 0-1.087 0-2.379.052-3.575.33-.042.83-.099 1.373-.099m-5.936-1.924c.16 1.81.22 6.381.22 8.05 0 1.535 0 6.676-.238 8.892v.175h4.816l-.022-.175c-.165-1.596-.25-4.637-.265-6.962l.91.048.68.012c6.334 0 9.414-1.674 9.414-5.198 0-4.008-4.321-4.927-7.926-5.005h-7.589zm30.631 1.924c2.262-.04 3.834.413 4.59 1.361a2.35 2.35 0 0 1 .524 1.557c0 2.5-2.813 3.042-5.138 3.042l-.951-.054s-.253-.022-.4-.04c-.028-.575-.028-1.343-.028-2.192 0-1.1 0-2.379.045-3.575a10 10 0 0 1 1.358-.099m-5.926-1.924c.153 1.81.24 6.381.24 8.05 0 1.535-.014 6.676-.267 8.892v.175h4.821l-.03-.175c-.154-1.596-.24-4.637-.24-6.962l.866.048.696.012c6.333 0 9.44-1.674 9.44-5.198 0-4.008-4.345-4.927-7.958-5.005h-7.568zm23.136 4.937c.382.823 1.376 3.12 2.496 5.86-.172.01-.391.01-.391.01l-2.105.03s-2.18-.03-2.542-.04c.906-2.192 1.807-4.17 2.542-5.86m-1.172-5.089h-.063l-.033.087c-.898 2.46-6.67 15.046-7.586 16.976l-.075.214h4.098l.036-.094c.362-1.183.847-2.52 1.374-3.948l3.42-.048 2.831.021s.458.027.594.027c.731 1.858 1.292 3.259 1.532 3.97l.049.072h4.752l-7.676-17.277h-.097zm12.866.164c.139 1.81.205 6.381.205 8.047 0 1.535 0 6.676-.262 8.895v.175h4.846l-.021-.175c-.256-2.234-.275-7.36-.275-8.895 0-1.202.037-3.88.157-6.041.37-.028.928-.082 1.307-.082 2.24-.039 3.825.422 4.565 1.361a2.32 2.32 0 0 1 .515 1.557c0 1.997-1.86 3.006-3.601 3.096-.582.024-1.015-.051-1.015-.051l-.337-.057.186.316a108 108 0 0 1 5.352 8.896l.03.075h5.173l-.126-.235c-.211-.289-3.58-5.246-5.014-7.363 0 0-.063-.06-.124-.126 2.653-.798 3.933-2.28 3.933-4.55 0-3.982-4.321-4.927-7.968-5.006h-7.54zm23.672-.162h-4.614l.027.162c.118 1.807.211 6.379.211 8.047 0 1.527-.021 6.661-.238 8.896l-.018.171h4.782l-.024-.171c-.184-2.235-.24-7.37-.24-8.896 0-1.668.114-6.24.24-8.047v-.162zm10.713 1.903c3.379.027 4.607.708 4.607 2.533a1.9 1.9 0 0 1-.46 1.292c-.612.77-1.913 1.168-3.494 1.069h-.081l-.93 2.44h.93c1.858-.055 3.451.526 4.28 1.535a2.4 2.4 0 0 1 .592 1.578c0 1.906-1.686 2.891-5.02 2.891-.536 0-1.436 0-2.002-.018-.139-2.545-.139-5.987-.139-7.026 0-1.201.045-3.878.139-6.164.364-.078.996-.13 1.578-.13m-6.207-1.752c.136 1.807.223 6.378.223 8.046 0 1.536 0 6.677-.244 8.893l-.04.175h8.056c3.94 0 8.131-1.229 8.131-4.734 0-2.196-1.593-3.819-4.595-4.707 2.21-.59 3.701-2.096 3.701-3.822 0-2.864-3.298-3.939-6.366-4.014h-8.887zm25.985 4.928a145 145 0 0 1 2.494 5.851c-.169 0-.38.018-.38.018l-2.114.03s-2.204-.048-2.532-.048a161 161 0 0 1 2.532-5.851m1.99-5.08h-3.24l-.02.078c-.964 2.617-7.065 15.867-7.58 16.966l-.088.235h4.123l.024-.102c.343-1.184.822-2.515 1.358-3.97l3.41-.05 2.836.045.602.006c.744 1.858 1.295 3.27 1.54 3.969l.041.102h4.77l-7.673-17.28zm9.125 4.465c0 3.036 3.044 4.258 5.74 5.373 2.095.837 4.29 1.716 4.29 3.162 0 .44-.084.804-.327 1.066-.506.593-1.53.843-3.15.753-1.609-.064-3.415-.57-5.457-1.51l-.795-.382v3.765l.542.138.316.054c1.006.247 2.951.705 4.879.705 5.08 0 8.112-2.024 8.112-5.37 0-3.14-3.128-4.363-5.893-5.462-2.039-.825-4.147-1.644-4.147-2.99 0-.389 0-1.524 2.63-1.524 1.939 0 3.827.789 4.896 1.201l.976.404-.006-.648v-3.128l-.97-.175c-.988-.202-2.635-.527-4.33-.527-4.38 0-7.306 2.069-7.306 5.095M69.397 18.242c-.569 0-1.213.051-1.539.1a124 124 0 0 0-.147 6.215c0 3.141 0 4.454.123 7.005.572.027 1.488.027 2.009.027q5.014 0 5.008-2.897c0-2.28-2.75-3.096-4.833-3.096h-.967l.967-2.451h.596c1.412 0 3.42-.645 3.42-2.376 0-1.834-1.24-2.527-4.637-2.527m2.677-1.93c3.1 0 6.37 1.138 6.37 4.011 0 1.732-1.461 3.268-3.668 3.837 3 .915 4.562 2.526 4.562 4.728 0 3.517-4.165 4.755-8.13 4.755H63.15c.223-2.277.275-5.547.275-9.086 0-2.379-.028-5.968-.25-8.245zm26.509 8.964a205 205 0 0 0-.223 7.279c-1.686.915-3.894 1.385-6.667 1.385-6.297 0-10.24-3.909-10.24-8.887 0-5.249 4.166-9.037 11.056-9.037 1.587 0 3.147.25 4.686.62l-1.09 2.897c-.943-.572-2.109-1.042-3.671-1.042-4.509 0-6.096 3.566-6.096 6.613 0 5.075 2.9 6.56 6.123 6.56.569 0 1.114-.1 1.61-.223-.023-2.054-.15-4.68-.222-6.165zm8.161 6.146 3.8-5.411c1.394.015 2.647.054 3.867.081v-2.213a211 211 0 0 1-2.412.057l4.303-6.131V16.32h-13.817v2.5c1.756-.196 3.542-.248 5.322-.248 1.117 0 2.156.052 3.294.1l-3.722 5.29c-1.114-.011-2.31-.035-3.674-.083v2.213q1.12-.042 2.216-.06l-4.228 6.008v1.61h14.732v-2.499c-3.195.196-6.414.223-9.681.271"/><path fill="#00935c" d="M0 49.965h50.811V0H.001z"/><path fill="#fff" d="M28.83 5.64c1.387.582 6.963 3.602 7.652 4.554-2.971.401-8.6 2.086-11.439 3.603 3.262-.723 7.83-1.1 10.974-1.268-1.228 1.803-1.92 2.72-3.905 4.875 3.41-2.041 4.371-2.197 7.507-4.04 1.198 1.757 1.477 5.804 1.514 9.008 1.027-2.028 2.272-9.687 1.751-11.079 1.88-1.246 1.9-1.731 2.388-2.569-1.915.171-2.985.187-4.014.508-2.617-1.6-8.013-3.25-12.428-3.592M16.658 40.837c-1.802-.668-3.1-1.446-4.529-2.782.428-1.18.916-2.103 1.712-3.286a94 94 0 0 0-3.807.623c-1.027-1.797-1.493-3.533-2.017-5.948-.28 2.56-.385 4.387-.025 6.425-1.157.321-1.978.603-2.932 1.032 1.336.817 2.415 1.447 3.906 2.142.802 1.72 1.63 2.881 2.975 4.206-.315-1.129-.399-2.026-.27-3.21 1.667.485 3.094.74 4.987.798m4.691-25.47c-.562.73-1.213 2.088-1.389 2.719 4.645.63 8.372 3.014 8.372 3.014-4.062-.72-6.202-.63-7.717-.494-1.505.142-1.815.319-1.815.319-1.096 2.4-1.753 6.522-1.753 6.522-.738-1.781-1.806-5.349-1.806-5.349-2.05 1.096-6.762 5.53-6.762 5.53 2.59-5.19 5.22-7.552 5.22-7.552-.904-.916-3.277-1.374-5.013-1.45.9-.368 3.213-.798 4.988-.88 1.778-.051 2.854.05 2.854.05 1.585-1.252 3.992-2.306 4.82-2.429m4.927 22.252a38 38 0 0 1-2.434 3.003c-1.563.438-2.81.6-4.333.6.935.484 1.84.773 2.817.977-.976.883-1.8 1.512-2.748 2.115 1.588-.376 3.675-1.05 5.23-1.97.812.032 1.571-.02 2.128-.13a12 12 0 0 1-.353-1.436c1.464-1.132 2.526-2.159 3.745-3.392-1.296.905-2.415 1.58-3.916 2.288a40 40 0 0 1-.136-2.055"/></svg>