<svg xmlns="http://www.w3.org/2000/svg" viewBox="0 0 128 128"><radialGradient id="a" cx="97.716" cy="141.653" r="121.585"><stop offset="0" stop-color="#6877ec"/><stop offset=".6" stop-color="#5362cf"/><stop offset="1" stop-color="#4352b9"/></radialGradient><radialGradient id="b" cx="18.216" cy="1.875" r="159.242"><stop offset="0" stop-color="#00d5ff"/><stop offset=".38" stop-color="#00b8eb"/><stop offset="1" stop-color="#0080c5"/></radialGradient><radialGradient id="c" cx="59.611" cy="-2.072" r="92.024"><stop offset="0" stop-color="#fff"/><stop offset="1"/></radialGradient><linearGradient id="d" x1="20.164" x2="63.354" y1="19.69" y2="114.712" gradientUnits="userSpaceOnUse"><stop offset="0" stop-color="#294ca7"/><stop offset=".48" stop-color="#96a7d4"/><stop offset=".84" stop-color="#e1e6f3"/><stop offset="1" stop-color="#fff"/></linearGradient><linearGradient id="e" x1="-44.584" x2="100.425" y1="-25.448" y2="144.401" gradientUnits="userSpaceOnUse"><stop offset="0" stop-color="#6877ec"/><stop offset=".29" stop-color="#97a1f2"/><stop offset=".77" stop-color="#e2e4fb"/><stop offset="1" stop-color="#fff"/></linearGradient><linearGradient id="f" x1="-28.047" x2="100.229" y1="-55.658" y2="97.199" gradientUnits="userSpaceOnUse"><stop offset="0" stop-color="#8397cc"/><stop offset=".15" stop-color="#97a8d4"/><stop offset=".73" stop-color="#e2e6f3"/><stop offset="1" stop-color="#fff"/></linearGradient><path fill="url(#a)" d="M40.07 124.8a121.7 121.7 0 0 0 62.242-33.366L16.216 5.332v95.61zm0 0"/><path fill="url(#b)" d="M16.215 100.941c52.805 0 95.61-42.804 95.61-95.609h-95.61zm0 0"/><path fill="url(#d)" d="m16.215 100.941 3.68 3.68c25.933-.95 49.363-11.875 66.558-29.062l-2.621-2.618a95.3 95.3 0 0 1-67.617 28m0 0"/><path fill="url(#e)" d="M40.07 124.8a121.7 121.7 0 0 0 62.242-33.366L16.216 5.332v95.61zm0 0"/><path fill="url(#f)" d="M102.313 91.434 16.215 5.332l78.27 93.254a122 122 0 0 0 7.828-7.152m0 0"/><path fill="url(#c)" d="m16.215 5.332 67.605 67.61a99 99 0 0 0 1.782-1.837zm0 0"/></svg>