<svg viewBox="0 0 128 128" xmlns="http://www.w3.org/2000/svg" xmlns:xlink="http://www.w3.org/1999/xlink"><radialGradient id="a" cx="97.715539" cy="141.653003" r="121.5853"><stop offset="0" stop-color="#6877ec"/><stop offset=".6" stop-color="#5362cf"/><stop offset="1" stop-color="#4352b9"/></radialGradient><radialGradient id="b" cx="18.215981" cy="1.874921" r="159.242312"><stop offset="0" stop-color="#00d5ff"/><stop offset=".38" stop-color="#00b8eb"/><stop offset="1" stop-color="#0080c5"/></radialGradient><radialGradient id="c" cx="59.610534" cy="-2.071684" r="92.024162"><stop offset="0" stop-color="#fff"/><stop offset="1"/></radialGradient><linearGradient id="d" gradientUnits="userSpaceOnUse" x1="20.163684" x2="63.354476" y1="19.690109" y2="114.711558"><stop offset="0" stop-color="#294ca7"/><stop offset=".48" stop-color="#96a7d4"/><stop offset=".84" stop-color="#e1e6f3"/><stop offset="1" stop-color="#fff"/></linearGradient><linearGradient id="e" gradientUnits="userSpaceOnUse" x1="-44.584104" x2="100.42483" y1="-25.448386" y2="144.400694"><stop offset="0" stop-color="#6877ec"/><stop offset=".29" stop-color="#97a1f2"/><stop offset=".77" stop-color="#e2e4fb"/><stop offset="1" stop-color="#fff"/></linearGradient><linearGradient id="f" gradientUnits="userSpaceOnUse" x1="-28.046763" x2="100.228566" y1="-55.658047" y2="97.199298"><stop offset="0" stop-color="#8397cc"/><stop offset=".15" stop-color="#97a8d4"/><stop offset=".73" stop-color="#e2e6f3"/><stop offset="1" stop-color="#fff"/></linearGradient><path d="m40.07 124.8a121.72 121.72 0 0 0 62.242-33.366l-86.096-86.102v95.61zm0 0" fill="url(#a)"/><path d="m16.215 100.941c52.805 0 95.61-42.804 95.61-95.609h-95.61zm0 0" fill="url(#b)"/><path d="m16.215 100.941 3.68 3.68c25.933-.95 49.363-11.875 66.558-29.062l-2.621-2.618a95.294 95.294 0 0 1 -67.617 28zm0 0" fill="url(#d)"/><path d="m40.07 124.8a121.72 121.72 0 0 0 62.242-33.366l-86.096-86.102v95.61zm0 0" fill="url(#e)"/><path d="m102.313 91.434-86.098-86.102 78.27 93.254a122.174 122.174 0 0 0 7.828-7.152zm0 0" fill="url(#f)"/><path d="m16.215 5.332 67.605 67.61a98.72 98.72 0 0 0 1.782-1.837zm0 0" fill="url(#c)"/></svg>