<svg xmlns="http://www.w3.org/2000/svg" width="18" height="18" viewBox="0 0 18 18"><path fill="currentColor" d="M6.22 11.83H.67v-5.1a.57.57 0 0 1 .57-.56h5zm5.56 0H6.22v5.67h5a.57.57 0 0 0 .57-.57z"/><path fill="currentColor" d="M11.78 11.83H6.22V6.17h5.56zm-5.56 0H.67v5.1a.57.57 0 0 0 .57.57h5z"/><path fill="currentColor" d="M11.78 6.17H6.22v-5.1A.57.57 0 0 1 6.79.5h5zm5.55 0h-5.55v5.66h5.09a.46.46 0 0 0 .46-.45z"/><path fill="currentColor" d="M17.33 6.17h-5.55V.5h5.09a.46.46 0 0 1 .46.45zm-5.55 0H6.22v5.1a.57.57 0 0 0 .57.56h5z"/></svg>