<svg height="18" viewBox="0 0 18 18" width="18" xmlns="http://www.w3.org/2000/svg" xmlns:xlink="http://www.w3.org/1999/xlink"><linearGradient id="a" gradientUnits="userSpaceOnUse" x1="11.78" x2="11.78" y1=".5" y2="11.83"><stop offset="0" stop-color="#32d4f5"/><stop offset=".23" stop-color="#31d0f1"/><stop offset=".46" stop-color="#2cc3e6"/><stop offset=".7" stop-color="#25afd4"/><stop offset=".94" stop-color="#1c92ba"/><stop offset="1" stop-color="#198ab3"/></linearGradient><path d="m6.22 11.83h-5.55v-5.1a.57.57 0 0 1 .57-.56h5zm5.56 0h-5.56v5.67h5a.57.57 0 0 0 .57-.57z" fill="#005ba1"/><path d="m11.78 11.83h-5.56v-5.66h5.56zm-5.56 0h-5.55v5.1a.57.57 0 0 0 .57.57h5z" fill="#0078d4"/><path d="m11.78 6.17h-5.56v-5.1a.57.57 0 0 1 .57-.57h5zm5.55 0h-5.55v5.66h5.09a.46.46 0 0 0 .46-.45z" fill="#0078d4"/><path d="m17.33 6.17h-5.55v-5.67h5.09a.46.46 0 0 1 .46.45zm-5.55 0h-5.56v5.1a.57.57 0 0 0 .57.56h5z" fill="url(#a)"/></svg>