<svg height="64" viewBox="0 0 64 64" width="64" xmlns="http://www.w3.org/2000/svg"><g fill="none" fill-rule="evenodd"><path d="m0 0h64v64h-64z" fill="#ed7100"/><path d="m22 41h19v-18h-19zm21-18h3v2h-3v2h3v2h-3v2h3v2h-3v3h3v2h-3v2h3v2h-3.137c-.255.587-.84 1-1.519 1h-.344v3h-2v-3h-2v3h-2v-3h-2v3h-2v-3h-2v3h-2v-3h-3v3h-2v-3h-.344a1.66 1.66 0 0 1 -1.519-1h-2.137v-2h2v-2h-2v-2h2v-3h-2v-2h2v-2h-2v-2h2v-2h-2v-2h2v-.344c0-.913.743-1.656 1.656-1.656h.344v-3h2v3h3v-3h2v3h2v-3h2v3h2v-3h2v3h2v-3h2v3h.344c.913 0 1.656.743 1.656 1.656zm-11 29h-20v-20h4v-2h-4.157a1.845 1.845 0 0 0 -1.843 1.843v20.314c0 1.016.826 1.843 1.843 1.843h20.314a1.845 1.845 0 0 0 1.843-1.843v-4.157h-2zm22-40.157v20.314a1.845 1.845 0 0 1 -1.843 1.843h-4.157v-2h4v-20h-20v4h-2v-4.157c0-1.016.826-1.843 1.843-1.843h20.314c1.017 0 1.843.827 1.843 1.843" fill="#fff"/></g></svg>