<svg xmlns="http://www.w3.org/2000/svg" width="64" height="64" viewBox="0 0 64 64"><title>Icon-Architecture/48/Arch_AWS-Parallel-Cluster_48</title><g id="Icon-Architecture/48/Arch_AWS-Parallel-Cluster_48" fill="none" fill-rule="evenodd" stroke="none" stroke-width="1"><g id="Icon-Architecture-BG/48/Compute" fill="#ed7100"><path id="Rectangle" d="M0 0h64v64H0z"/></g><g id="Icon-Service/48/AWS-ParallelClusters_48" fill="#fff" transform="translate(10 13)"><path id="AWS-ParallelCluster_Icon_48_Squid" d="M28.298 36h6v-6h-6zm8-7v8a1 1 0 0 1-1 1h-8a1 1 0 0 1-1-1v-8a1 1 0 0 1 1-1h8a1 1 0 0 1 1 1m4-6h-8a1 1 0 0 0-1 1v2a1 1 0 1 0 2 0v-1h6v6h-1a1 1 0 1 0 0 2h2a1 1 0 0 0 1-1v-8a1 1 0 0 0-1-1m-32-15h6V2h-6zm-2 1V1a1 1 0 0 1 1-1h8a1 1 0 0 1 1 1v8a1 1 0 0 1-1 1h-8a1 1 0 0 1-1-1m-4 6h8a1 1 0 0 0 1-1v-2a1 1 0 0 0-2 0v1h-6V7h1a1 1 0 0 0 0-2h-2a1 1 0 0 0-1 1v8a1 1 0 0 0 1 1m40.64 7.252a1 1 0 0 1-1.924-.545c.611-2.152.217-4.512-1.027-6.158-1.159-1.532-2.935-2.342-5.14-2.342-5.692 0-8.856 3.15-11.954 6.73 1.94 2.207 3.987 4.356 6.514 5.57a1.001 1.001 0 0 1-.865 1.803c-2.788-1.339-4.946-3.557-6.963-5.842-3.08 3.588-6.37 7.114-12.036 7.114-3.214 0-5.96-1.308-7.733-3.682C.118 22.633-.43 19.719.345 17.105a1 1 0 1 1 1.917.568c-.587 1.983-.146 4.293 1.151 6.031 1.386 1.856 3.562 2.878 6.13 2.878 4.88 0 7.747-3.179 10.706-6.636-2.23-2.564-4.377-4.943-7.166-6.065a.999.999 0 1 1 .746-1.855c3.133 1.26 5.494 3.817 7.737 6.389 3.137-3.595 6.87-7.208 13.281-7.208 2.815 0 5.207 1.113 6.735 3.136 1.614 2.136 2.135 5.166 1.356 7.909"/></g></g></svg>