<svg height="64" viewBox="0 0 64 64" width="64" xmlns="http://www.w3.org/2000/svg"><g fill="none" fill-rule="evenodd"><path d="m0 0h64v64h-64z" fill="#dd344c"/><path d="m23 36c-.827 0-1.5-.673-1.5-1.5s.673-1.5 1.5-1.5 1.5.673 1.5 1.5-.673 1.5-1.5 1.5m-6.5-1.5c0 .827-.673 1.5-1.5 1.5s-1.5-.673-1.5-1.5.673-1.5 1.5-1.5 1.5.673 1.5 1.5m-8 0c0 .827-.673 1.5-1.5 1.5s-1.5-.673-1.5-1.5.673-1.5 1.5-1.5 1.5.673 1.5 1.5m3.5-15.5c0-1.654 1.346-3 3-3s3 1.346 3 3-1.346 3-3 3-3-1.346-3-3m12 12.163v-4.163a1 1 0 0 0 -1-1h-7v-2.101a5.01 5.01 0 0 0 4-4.899c0-2.757-2.243-5-5-5s-5 2.243-5 5a5.01 5.01 0 0 0 4 4.899v2.101h-7a1 1 0 0 0 -1 1v4.163c-1.44.434-2.5 1.757-2.5 3.337 0 1.93 1.57 3.5 3.5 3.5s3.5-1.57 3.5-3.5c0-1.58-1.06-2.903-2.5-3.337v-3.163h6v3.163c-1.44.434-2.5 1.757-2.5 3.337 0 1.93 1.57 3.5 3.5 3.5s3.5-1.57 3.5-3.5c0-1.58-1.06-2.903-2.5-3.337v-3.163h6v3.163c-1.44.434-2.5 1.757-2.5 3.337 0 1.93 1.57 3.5 3.5 3.5s3.5-1.57 3.5-3.5c0-1.58-1.06-2.903-2.5-3.337m-9 10.071c-8.138 0-13-1.864-13-3.666v-28.461c2.768 1.895 7.991 2.893 13 2.893s10.232-.998 13-2.893v28.461c0 1.802-4.862 3.666-13 3.666m0-39.234c7.936 0 13 2.369 13 4s-5.064 4-13 4-13-2.369-13-4 5.064-4 13-4m0-2c-7.271 0-15 2.103-15 6v31.568c0 4.178 7.749 5.666 15 5.666s15-1.488 15-5.666v-31.568c0-3.897-7.729-6-15-6" fill="#fff" transform="translate(17 10)"/></g></svg>