<svg xmlns="http://www.w3.org/2000/svg" width="64" height="64" viewBox="0 0 64 64"><title>Icon-Architecture/48/Arch_Amazon-Cloud-Directory_48</title><g id="Icon-Architecture/48/Arch_Amazon-Cloud-Directory_48" fill="none" fill-rule="evenodd" stroke="none" stroke-width="1"><g id="Icon-Architecture-BG/48/Security-Identity-Compliance" fill="#dd344c"><path id="Rectangle" d="M0 0h64v64H0z"/></g><g id="Icon-Service/48/Amazon-Cloud-Directory_48" fill="#fff" transform="translate(17 10)"><path id="Amazon-Cloud-Directory_Icon_48_Squid" d="M23 36c-.827 0-1.5-.673-1.5-1.5S22.173 33 23 33s1.5.673 1.5 1.5S23.827 36 23 36m-6.5-1.5c0 .827-.673 1.5-1.5 1.5s-1.5-.673-1.5-1.5.673-1.5 1.5-1.5 1.5.673 1.5 1.5m-8 0c0 .827-.673 1.5-1.5 1.5s-1.5-.673-1.5-1.5S6.173 33 7 33s1.5.673 1.5 1.5M12 19c0-1.654 1.346-3 3-3s3 1.346 3 3-1.346 3-3 3-3-1.346-3-3m12 12.163V27a1 1 0 0 0-1-1h-7v-2.101A5.01 5.01 0 0 0 20 19c0-2.757-2.243-5-5-5s-5 2.243-5 5a5.01 5.01 0 0 0 4 4.899V26H7a1 1 0 0 0-1 1v4.163c-1.44.434-2.5 1.757-2.5 3.337C3.5 36.43 5.07 38 7 38s3.5-1.57 3.5-3.5c0-1.58-1.06-2.903-2.5-3.337V28h6v3.163c-1.44.434-2.5 1.757-2.5 3.337 0 1.93 1.57 3.5 3.5 3.5s3.5-1.57 3.5-3.5c0-1.58-1.06-2.903-2.5-3.337V28h6v3.163c-1.44.434-2.5 1.757-2.5 3.337 0 1.93 1.57 3.5 3.5 3.5s3.5-1.57 3.5-3.5c0-1.58-1.06-2.903-2.5-3.337m-9 10.071c-8.138 0-13-1.864-13-3.666V9.107C4.768 11.002 9.991 12 15 12s10.232-.998 13-2.893v28.461c0 1.802-4.862 3.666-13 3.666M15 2c7.936 0 13 2.369 13 4s-5.064 4-13 4S2 7.631 2 6s5.064-4 13-4m0-2C7.729 0 0 2.103 0 6v31.568c0 4.178 7.749 5.666 15 5.666s15-1.488 15-5.666V6c0-3.897-7.729-6-15-6"/></g></g></svg>