<svg height="18" viewBox="0 0 18 18" width="18" xmlns="http://www.w3.org/2000/svg"><path d="m6 10.58v-1.95h10.35v-5.52a.64.64 0 0 0 -.64-.64h-15.07a.64.64 0 0 0 -.64.64v7.75a.64.64 0 0 0 .64.64h8.36v-.92zm1.85-2.58h-4.43v-2h4.43zm5.15 0h-4.47v-2h4.47zm2.59 0h-1.88v-2h1.84zm-4.47-4.63h4.43v2h-4.43zm-5.12 0h4.43v2h-4.43zm-5.1 0h4.44v2h-4.44zm-0 2.63h1.85v2h-1.85zm4.44 4.58h-4.44v-1.95h4.44z" fill="#821010"/><path d="m.9 3.37h4.43v1.96h-4.43z" fill="#e62323"/><path d="m6.01 3.37h4.43v1.96h-4.43z" fill="#ff7381"/><path d="m11.12 3.37h4.43v1.96h-4.43zm-10.22 2.63h1.84v1.96h-1.84z" fill="#e62323"/><path d="m13.71 6h1.84v1.96h-1.84zm-10.29 0h4.43v1.96h-4.43z" fill="#ff7381"/><path d="m8.53 6h4.43v1.96h-4.43zm-7.63 2.63h4.43v1.96h-4.43z" fill="#e62323"/><path d="m9 8.87a.25.25 0 0 1 .26-.24h-3.26v1.95h3v-1.7z" fill="#ff7381"/><path d="m18 8.88v.95h-9v5.44a.27.27 0 0 0 .28.26h8.41a.28.28 0 0 0 .29-.26v-6.39zm-8.28 2.33a.37.37 0 1 1 .37.37.38.38 0 0 1 -.37-.37m.37 3.36a.37.37 0 1 1 .37-.37.38.38 0 0 1 -.37.37m0-1.58a.38.38 0 0 1 -.37-.37.37.37 0 0 1 .74 0 .38.38 0 0 1 -.37.38zm6.91 1.36c0 .07-.1.13-.22.13h-5.55c-.12 0-.22-.06-.22-.13v-.35c0-.06.1-.12.22-.12h5.55c.12 0 .22.06.22.12zm0-1.58c0 .07-.1.13-.22.13h-5.55c-.12 0-.22-.06-.22-.13v-.31c0-.07.1-.12.22-.12h5.55c.12 0 .22.05.22.12zm0-1.41c0 .07-.1.13-.22.13h-5.55c-.12 0-.22-.06-.22-.13v-.31c0-.06.1-.12.22-.12h5.55c.12 0 .22.06.22.12z" fill="#e6e6e6"/><g fill="#666"><path d="m9.29 8.62a.25.25 0 0 0 -.29.25v.95h9v-.94a.26.26 0 0 0 -.27-.24h-8.44zm7.49 3.72h-5.55c-.12 0-.22.05-.22.12v.31c0 .07.1.13.22.13h5.55c.12 0 .22-.06.22-.13v-.31c0-.07-.1-.12-.22-.12m0-1.41h-5.55c-.12 0-.22.06-.22.12v.31c0 .07.1.13.22.13h5.55c.12 0 .22-.06.22-.13v-.31c0-.05-.1-.12-.22-.12m0 2.99h-5.55c-.12 0-.22.06-.22.12v.31c0 .07.1.13.22.13h5.55c.12 0 .22-.06.22-.13v-.35s-.1-.08-.22-.08"/><circle cx="10.09" cy="11.21" r=".37"/><circle cx="10.09" cy="12.62" r=".37"/><circle cx="10.09" cy="14.2" r=".37"/></g></svg>