<svg xmlns="http://www.w3.org/2000/svg" width="18" height="18" viewBox="0 0 18 18"><path fill="currentColor" d="M13.971 8.059a.3.3 0 0 1-.3-.3 3.433 3.433 0 0 0-3.429-3.429.3.3 0 0 1-.3-.3.3.3 0 0 1 .3-.3A3.43 3.43 0 0 0 13.67.3a.3.3 0 0 1 .3-.3.3.3 0 0 1 .3.3 3.433 3.433 0 0 0 3.43 3.429.3.3 0 0 1 0 .6 3.43 3.43 0 0 0-3.428 3.428.3.3 0 0 1-.3.3z"/><rect width="8.059" height="8.059" fill="currentColor" rx=".6"/><rect width="8.059" height="8.059" y="9.941" fill="currentColor" rx=".6"/><rect width="8.059" height="8.059" x="9.941" y="9.941" fill="currentColor" rx=".6"/><path fill="currentColor" d="M6.516 7.118H1.543a.6.6 0 0 1-.6-.6V1.54a.6.6 0 0 1 .6-.6h4.973a.6.6 0 0 1 .6.6v4.976a.6.6 0 0 1-.6.6zm.6 9.339v-4.973a.6.6 0 0 0-.6-.6H1.54a.6.6 0 0 0-.6.6v4.975a.6.6 0 0 0 .6.6h4.976a.6.6 0 0 0 .6-.6zm9.942 0v-4.973a.6.6 0 0 0-.6-.6h-4.976a.6.6 0 0 0-.6.6v4.975a.6.6 0 0 0 .6.6h4.973a.6.6 0 0 0 .605-.6v-.007z"/></svg>