<svg height="18" viewBox="0 0 18 18" width="18" xmlns="http://www.w3.org/2000/svg" xmlns:xlink="http://www.w3.org/1999/xlink"><linearGradient id="a"><stop offset="0" stop-color="#86d633"/><stop offset="1" stop-color="#76bc2d"/></linearGradient><linearGradient id="b" gradientTransform="matrix(1 0 0 -1 0 20)" gradientUnits="userSpaceOnUse" x1="4.03" x2="4.03" xlink:href="#a" y1="20" y2="11.941"/><linearGradient id="c" gradientUnits="userSpaceOnUse" x1="4.03" x2="4.03" xlink:href="#a" y1="10.059" y2="2"/><linearGradient id="d" gradientUnits="userSpaceOnUse" x1="13.97" x2="13.97" xlink:href="#a" y1="10.059" y2="2"/><path d="m13.971 8.059a.3.3 0 0 1 -.3-.3 3.433 3.433 0 0 0 -3.429-3.429.3.3 0 0 1 -.3-.3.3.3 0 0 1 .3-.3 3.43 3.43 0 0 0 3.428-3.43.3.3 0 0 1 .3-.3.3.3 0 0 1 .3.3 3.433 3.433 0 0 0 3.43 3.429.3.3 0 0 1 0 .6 3.43 3.43 0 0 0 -3.428 3.428.3.3 0 0 1 -.3.3z" fill="#5e9624"/><rect fill="url(#b)" height="8.059" rx=".6" width="8.059"/><rect fill="url(#c)" height="8.059" rx=".6" width="8.059" y="9.941"/><rect fill="url(#d)" height="8.059" rx=".6" width="8.059" x="9.941" y="9.941"/><path d="m6.516 7.118h-4.973a.6.6 0 0 1 -.6-.6v-4.978a.6.6 0 0 1 .6-.6h4.973a.6.6 0 0 1 .6.6v4.976a.6.6 0 0 1 -.6.6zm.6 9.339v-4.973a.6.6 0 0 0 -.6-.6h-4.976a.6.6 0 0 0 -.6.6v4.975a.6.6 0 0 0 .6.6h4.976a.6.6 0 0 0 .6-.6zm9.942 0v-4.973a.6.6 0 0 0 -.6-.6h-4.976a.6.6 0 0 0 -.6.6v4.975a.6.6 0 0 0 .6.6h4.973a.6.6 0 0 0 .605-.6v-.007z" fill="#86d633"/></svg>