<svg xmlns="http://www.w3.org/2000/svg" width="18" height="18" viewBox="0 0 18 18"><path fill="currentColor" d="M15.89 2.91h1.27a.34.34 0 0 1 .34.34v3.5a.34.34 0 0 1-.34.34h-1.27zm0 6.09h1.27a.34.34 0 0 1 .34.34v5.86a.34.34 0 0 1-.34.34h-1.27z"/><rect width="13.76" height="15" x="2.13" y="1.5" fill="currentColor" rx=".69"/><path fill="currentColor" d="M6 13.92H4.4a.2.2 0 0 1-.19-.21L4.08 3.38a.2.2 0 0 1 .06-.15.16.16 0 0 1 .13-.06h2.85v.41H4.47l.12 9.92H6zm6-.92h-1.59a.2.2 0 0 1-.14-.07.18.18 0 0 1-.06-.14V7.9a.19.19 0 0 1 .19-.2h.91V5.45h.38v2.44a.2.2 0 0 1-.18.21h-.91v4.42H12z"/><g fill="currentColor"><rect width="6.14" height="3.11" x="7.07" y="2.29" rx=".26"/><rect width="4.9" height="1.09" x="5.86" y="12.69" rx=".26" transform="rotate(90 8.305 13.235)"/><rect width="4.9" height="1.09" x="3.99" y="12.71" rx=".26" transform="rotate(90 6.44 13.26)"/></g><rect width="4.9" height="1.09" x="9.98" y="12.71" fill="currentColor" rx=".26" transform="rotate(90 12.425 13.255)"/><ellipse cx="8.11" cy="8.06" fill="currentColor" rx="1.04" ry="1.12"/><path fill="currentColor" d="M2.11 12.25H.84a.34.34 0 0 1-.34-.3V6.09a.34.34 0 0 1 .34-.34h1.27z"/></svg>