<svg height="18" viewBox="0 0 18 18" width="18" xmlns="http://www.w3.org/2000/svg" xmlns:xlink="http://www.w3.org/1999/xlink"><linearGradient id="a" gradientUnits="userSpaceOnUse" x1="9" x2="9" y1="17.86" y2="4.06"><stop offset="0" stop-color="#0078d4"/><stop offset=".16" stop-color="#1380da"/><stop offset=".53" stop-color="#3c91e5"/><stop offset=".82" stop-color="#559cec"/><stop offset="1" stop-color="#5ea0ef"/></linearGradient><path d="m16.65 17.08-3.59-9.32a.28.28 0 0 0 -.26-.18h-2.56v-2.22a1.3 1.3 0 1 0 -2.59 0v2.22h-2.31a.29.29 0 0 0 -.27.18l-3.72 9.32a.55.55 0 0 0 .45.78h14.4a.55.55 0 0 0 .45-.78" fill="url(#a)"/><path d="m3.37 12 8.63-4.42h.75a.28.28 0 0 1 .27.19l.83 2.15-12.05 6.08zm6.17 5.84 6-3.6 1.09 2.84a.56.56 0 0 1 -.46.78z" fill="#83b9f9"/><path d="m8.87.16-4.12 2.39a.16.16 0 0 0 -.08.14v.37a.16.16 0 0 0 .16.16h.62v4.36h.78v-4.36h5.44v4.36h.77v-4.36h.63a.16.16 0 0 0 .16-.16v-.37a.16.16 0 0 0 -.08-.14l-4.15-2.39a.22.22 0 0 0 -.13 0" fill="#0078d4"/></svg>