<svg xmlns="http://www.w3.org/2000/svg" viewBox="1.5 1.5 21 21"><path fill="#fff" stroke="#1f2937" stroke-linecap="round" stroke-linejoin="round" stroke-width="1.6" d="M9 4.5H8c-1.1 0-2 .9-2 2V10c0 1.1-.9 2-2 2 1.1 0 2 .9 2 2v3.5c0 1.1.9 2 2 2h1m6 0h1c1.1 0 2-.9 2-2V14c0-1.1.9-2 2-2-1.1 0-2-.9-2-2V6.5c0-1.1-.9-2-2-2h-1"/><circle cx="12" cy="10.5" r="1.6" fill="#facc15" stroke="#1f2937"/><path fill="none" stroke="#facc15" stroke-linecap="round" stroke-width="2.2" d="M11.2 14.2c0 1.6 1.4 2.4 1.4 3.6 0 .8-.5 1.4-1.4 1.8"/></svg>