<svg xmlns="http://www.w3.org/2000/svg" width="18" height="18" viewBox="0 0 18 18"><path fill="currentColor" d="M4.07 10.44a5.66 5.66 0 0 0-3-1.14.28.28 0 0 1-.27-.41 5.35 5.35 0 0 1 1.51-1.71 4.87 4.87 0 0 1 4.4-.85 1.7 1.7 0 0 1 .62.27zm3.63 3.62 3.84-3.26a1.8 1.8 0 0 1 .27.63 4.91 4.91 0 0 1-.86 4.4 5.2 5.2 0 0 1-1.71 1.48.28.28 0 0 1-.41-.31 5.73 5.73 0 0 0-1.13-2.94"/><path fill="currentColor" d="M17.38.27A24.27 24.27 0 0 0 4 10.31L7.69 14A24.27 24.27 0 0 0 17.73.62a.29.29 0 0 0-.35-.35"/><path fill="currentColor" d="M17.38.27A24.27 24.27 0 0 0 4 10.31L7.69 14A24.27 24.27 0 0 0 17.73.62a.29.29 0 0 0-.35-.35"/><path fill="currentColor" d="M17.38.27a22 22 0 0 0-4.45 1.83l3 3a22 22 0 0 0 1.8-4.48.29.29 0 0 0-.35-.35"/><path fill="currentColor" d="M.26 17.44A10.32 10.32 0 0 1 4 10.31L7.69 14a10.32 10.32 0 0 1-7.13 3.74.28.28 0 0 1-.3-.3"/><circle cx="11.42" cy="6.58" r="1.91" fill="currentColor"/><circle cx="11.42" cy="6.58" r="1.43" fill="currentColor"/><path fill="currentColor" d="M5.16 13.59a3 3 0 0 1-1.33.59 3.3 3.3 0 0 1 .58-1.34L8 9.24l.75.75z"/></svg>