<svg height="18" viewBox="0 0 18 18" width="18" xmlns="http://www.w3.org/2000/svg" xmlns:xlink="http://www.w3.org/1999/xlink"><linearGradient id="a" gradientUnits="userSpaceOnUse" x1="8.47" x2="14.96" y1="2.89" y2="9.62"><stop offset="0" stop-color="#dfa500"/><stop offset=".28" stop-color="#efb700"/><stop offset=".51" stop-color="#ffca00"/><stop offset="1" stop-color="#e1a800"/></linearGradient><linearGradient id="b" gradientUnits="userSpaceOnUse" x1="6.86" x2="-.99" y1="11.19" y2="18.81"><stop offset="0" stop-color="#faa21d"/><stop offset=".24" stop-color="#f99d1a"/><stop offset=".51" stop-color="#f69012"/><stop offset=".8" stop-color="#f17905"/><stop offset=".88" stop-color="#ef7100"/></linearGradient><path d="m4.07 10.44a5.66 5.66 0 0 0 -3-1.14.28.28 0 0 1 -.27-.41 5.35 5.35 0 0 1 1.51-1.71 4.87 4.87 0 0 1 4.4-.85 1.7 1.7 0 0 1 .62.27zm3.63 3.62 3.84-3.26a1.8 1.8 0 0 1 .27.63 4.91 4.91 0 0 1 -.86 4.4 5.2 5.2 0 0 1 -1.71 1.48.28.28 0 0 1 -.41-.31 5.73 5.73 0 0 0 -1.13-2.94" fill="#f78d1e"/><path d="m17.38.27a24.27 24.27 0 0 0 -13.38 10.04l3.69 3.69a24.27 24.27 0 0 0 10.04-13.38.29.29 0 0 0 -.35-.35" fill="#fcd116"/><path d="m17.38.27a24.27 24.27 0 0 0 -13.38 10.04l3.69 3.69a24.27 24.27 0 0 0 10.04-13.38.29.29 0 0 0 -.35-.35" fill="url(#a)"/><path d="m17.38.27a22 22 0 0 0 -4.45 1.83l3 3a22 22 0 0 0 1.8-4.48.29.29 0 0 0 -.35-.35" fill="#0078d4"/><path d="m.26 17.44a10.32 10.32 0 0 1 3.74-7.13l3.69 3.69a10.32 10.32 0 0 1 -7.13 3.74.28.28 0 0 1 -.3-.3" fill="url(#b)"/><circle cx="11.42" cy="6.58" fill="#dfa500" r="1.91"/><circle cx="11.42" cy="6.58" fill="#f2f2f2" r="1.43"/><path d="m5.16 13.59a3 3 0 0 1 -1.33.59 3.3 3.3 0 0 1 .58-1.34l3.59-3.6.75.75z" fill="#d15900"/></svg>