<svg xmlns="http://www.w3.org/2000/svg" width="328" height="319" viewBox="0 0 328 319"><g fill="currentColor"><path d="M110.46 24.54c41.98 0 78.62 22.9 98.1 56.88l-37.49 21.65C157.68 84 135.53 71.54 110.46 71.54c-12.02 0-23.36 2.87-33.4 7.95L54.04 39.62c16.6-9.59 35.87-15.08 56.42-15.08m108.1 268.53c-41.98 0-78.61-22.89-98.1-56.88l37.5-21.65c13.39 19.07 35.54 31.53 60.6 31.53 12.02 0 23.37-2.87 33.41-7.95l23.02 39.87c-16.61 9.59-35.88 15.08-56.43 15.08"/><path d="M21.21 138.48c20.99-36.35 59.14-56.63 98.31-56.51v43.29c-23.2 2.06-45.07 15.02-57.6 36.72-6.01 10.41-9.21 21.67-9.82 32.91H6.06c-.01-19.18 4.88-38.61 15.15-56.41m286.6 40.65c-20.99 36.36-59.13 56.63-98.3 56.52l-.01-43.3c23.21-2.06 45.08-15.02 57.61-36.72 6.01-10.41 9.2-21.67 9.82-32.9h46.04c0 19.17-4.88 38.6-15.16 56.4"/><path d="M75.26 272.75c-20.99-36.36-19.48-79.53.21-113.4l37.5 21.65c-9.82 21.12-9.54 46.54 3 68.25 6.01 10.4 14.16 18.8 23.58 24.95l-23.02 39.87c-16.6-9.58-30.99-23.53-41.27-41.32m178.5-227.88c20.99 36.35 19.48 79.53-.2 113.39l-37.5-21.65c9.82-21.12 9.53-46.54-3-68.24-6.01-10.41-14.17-18.81-23.59-24.96L212.5 3.54c16.6 9.58 30.99 23.53 41.26 41.33"/></g></svg>