<svg height="74" viewBox="0 0 74 74" width="74" xmlns="http://www.w3.org/2000/svg"><g fill="none" fill-rule="evenodd"><path d="m5 5h64v64h-64z" fill="#c925d1"/><path d="m1 1h72v72h-72z" stroke="#879196" stroke-width="2"/><path d="m15 21.764c-7.44 0-13-2.345-13-4.441v-7.546c2.768 2.034 7.991 3.105 13 3.105s10.232-1.071 13-3.105v7.546c0 2.096-5.56 4.441-13 4.441m0 10.691c-7.44 0-13-2.345-13-4.441v-7.355c2.768 2.034 7.991 3.105 13 3.105s10.232-1.071 13-3.105v7.355c0 2.096-5.56 4.441-13 4.441m0 9.545c-7.44 0-13-2.344-13-4.441v-6.209c2.768 2.034 7.991 3.105 13 3.105s10.232-1.071 13-3.105v6.209c0 2.097-5.56 4.441-13 4.441m0-40c7.44 0 13 2.345 13 4.441s-5.56 4.441-13 4.441-13-2.345-13-4.441 5.56-4.441 13-4.441m0-2c-7.271 0-15 2.258-15 6.441v31.118c0 4.184 7.729 6.441 15 6.441s15-2.257 15-6.441v-31.118c0-4.183-7.729-6.441-15-6.441" fill="#fff" transform="translate(22 15)"/></g></svg>