<svg height="18" viewBox="0 0 18 18" width="18" xmlns="http://www.w3.org/2000/svg" xmlns:xlink="http://www.w3.org/1999/xlink"><linearGradient id="a" gradientUnits="userSpaceOnUse" x1="8.15" x2="8.15" y1="17.49" y2="2.09"><stop offset="0" stop-color="#5e9624"/><stop offset=".31" stop-color="#69a828"/><stop offset=".93" stop-color="#86d633"/></linearGradient><path d="m15.2.5h-11.61a.57.57 0 0 0 -.44.2l-1.22 1.41 13.38 13.56-2 1.83h1a.7.7 0 0 0 .46-.17l1.17-1.07a.6.6 0 0 0 .19-.43v-14.5a.81.81 0 0 0 -.93-.83" fill="#5e9624"/><path d="m2.91 2.1.74-.84a.5.5 0 0 1 .35-.18h10.88a.52.52 0 0 1 .52.52v13.78a.52.52 0 0 1 -.17.38l-1.15 1.06" fill="#fff"/><path d="m14 2.09h-12a.06.06 0 0 0 -.05.06v15a.38.38 0 0 0 .38.38h11.67a.38.38 0 0 0 .38-.38v-14.67a.38.38 0 0 0 -.38-.39" fill="url(#a)"/><path d="m12.5 7.82a.37.37 0 0 0 -.37-.39h-1.85a.16.16 0 0 0 -.15.09l-.77 1.38-1.26-2.55-1.17 3.65-1-2.6-1.32 2.44a.18.18 0 0 1 -.15.1h-.6a.37.37 0 0 0 -.37.33.37.37 0 0 0 .37.41h1a.18.18 0 0 0 .16-.1l.78-1.47 1.21 3 1.23-3.86 1.08 2.19 1.21-2.17a.16.16 0 0 1 .15-.09h1.45a.37.37 0 0 0 .37-.36" fill="#fff"/></svg>