<svg xmlns="http://www.w3.org/2000/svg" viewBox="0 0 511.985 511.985"><defs><mask id="a"><path fill="#fff" d="M0 0h511.985v511.985H0z"/><path d="M383.99 255.994c0 70.69-57.306 127.997-127.997 127.997-70.69 0-127.998-57.307-127.998-127.997s57.308-127.997 127.998-127.997 127.998 57.307 127.998 127.997"/></mask></defs><g fill="currentColor" mask="url(#a)"><path d="m255.993 255.994 110.85 63.997-110.85 191.994c141.38 0 255.992-114.61 255.992-255.99 0-46.642-12.536-90.332-34.331-127.998H255.99z"/><path d="M255.99 0C161.24 0 78.578 51.513 34.313 128.027L145.14 319.991l110.85-63.997V127.997h221.664C433.382 51.502 350.729 0 255.99 0"/><path d="M.002 255.994c0 141.38 114.607 255.99 255.991 255.99l110.85-191.993-110.85-63.997-110.85 63.997L34.315 128.027C12.53 165.682 0 209.357 0 255.991"/></g><path fill="currentColor" d="M359.992 255.994c0 57.436-46.563 103.998-103.999 103.998S151.995 313.43 151.995 255.994c0-57.435 46.562-103.998 103.998-103.998s103.999 46.563 103.999 103.998"/></svg>