<svg height="64" viewBox="0 0 64 64" width="64" xmlns="http://www.w3.org/2000/svg"><g fill="none" fill-rule="evenodd"><path d="m0 0h64v64h-64z" fill="#7aa116"/><path d="m37 24v-2.586l-4.293 4.293a1 1 0 0 1 -1.332.074l-2.634-2.108-4.034 4.034-1.414-1.414 4.667-4.667a1 1 0 0 1 1.332-.073l2.634 2.107 3.66-3.66h-2.586v-2h5a1 1 0 0 1 1 1v5zm-15 10h-2v-23a1 1 0 0 1 1-1h22a1 1 0 0 1 1 1v23h-2v-22h-20zm-9 16.443v-16.369l9.179 6.425zm19-3.318c.226 0 .451-.068.646-.203l7.522-5.266 9.549 10.344h-35.434l9.549-10.344 7.522 5.266c.195.135.42.203.646.203m9.821-6.626 9.179-6.425v16.369zm10.82-9.267-6-5-1.282 1.536 4.896 4.08-18.255 12.779-18.255-12.779 4.896-4.08-1.282-1.536-6 5c-.227.19-.359.471-.359.768v21a1 1 0 0 0 1 1h40a1 1 0 0 0 1-1v-21c0-.297-.132-.578-.359-.768" fill="#fff"/></g></svg>