<svg viewBox="0 0 128 128" xmlns="http://www.w3.org/2000/svg"><path d="m126.79 70.959-15.632-7.5516 14.809-6.926c1.1485-.53876 1.8226-1.9596 1.0284-3.2841l-1.5389-1.7815c-.99319-1.086-2.0717-1.8782-3.3819-1.3628l-11.002 4.1473c-.24011.09029-.50354.1017-.7506.03175l-4.259-1.2065c-.31601-.0893-.65534-.0055-.89346.22027l-4.5556 4.3245c-1.021-5.8534-3.4002-11.24-6.8168-15.811l6.6601-.05209c.28674-.0025.55016-.15925.68857-.41077l2.3574-4.2758c.12253-.22275.31651-.39787.55016-.49709l10.898-4.6469c.66923-.28525 1.081-1.6758.9525-2.5777l-.35471-3.2544c-.28972-.93464-1.6019-1.7572-2.2294-1.5255l-16.393 5.714 5.5741-15.369c.4311-1.1931-.0967-2.6739-1.595-3.0495l-2.348-.17115c-1.4704-.06548-2.793.13643-3.3551 1.4278l-4.8473 10.712c-.10567.23366-.28377.42763-.508.55314l-3.8646 2.1585c-.28674.16024-.46732.45938-.47625.7873l-.16371 6.2815c-4.6623-3.2762-10.107-5.5096-16.004-6.3584l4.6757-4.7496c.20142-.20489.27682-.50205.19695-.77738l-1.3568-4.6906c-.07044-.24408-.05755-.50502.03721-.74067l4.4207-10.992c.27186-.67469-.42019-1.9497-1.1495-2.4963l-2.5514-2.0504c-.86618-.45541-2.3758-.10964-2.6556.49758l-7.5516 15.633-6.926-14.809c-.53876-1.149-1.9591-1.8227-3.2841-1.0289l-1.7815 1.5394c-1.0859.99318-1.8782 2.0712-1.3623 3.3819l4.1469 11.002c.09078.2406.1017.50354.03175.75059l-1.206 4.2595c-.08979.31552-.006.65484.22027.89297l4.324 4.5556c-5.8534 1.0215-11.24 3.4002-15.811 6.8168l-.05259-6.6596c-.002-.28724-.15925-.55017-.41027-.68908l-4.2763-2.3574c-.22225-.12254-.39737-.31601-.49709-.54967l-4.6464-10.899c-.28525-.66923-1.6758-1.081-2.5782-.952l-3.2544.35421c-.93415.29022-1.7572 1.6024-1.5255 2.2294l5.7145 16.394-15.369-5.5741c-1.1936-.4316-2.6744.09674-3.05 1.5949l-.17115 2.348c-.06548 1.4699.13643 2.793 1.4278 3.3546l10.712 4.8473c.23416.10616.42813.28426.55314.5085l2.159 3.8646c.15974.28625.45938.46732.7873.47575l6.2811.16371c-3.2757 4.6623-5.5096 10.107-6.3579 16.004l-4.7501-4.6757c-.20439-.20141-.50155-.27632-.77738-.19695l-4.6906 1.3568c-.24408.07094-.50453.05755-.74017-.03721l-10.992-4.4207c-.67518-.27136-1.9497.42069-2.4963 1.1495l-2.0509 2.5519c-.45542.86568-.10914 2.3753.49808 2.6551l15.632 7.5516-14.809 6.926c-1.149.53876-1.8227 1.9596-1.0289 3.2842l1.5394 1.7815c.99318 1.086 2.0717 1.8782 3.3819 1.3628l11.002-4.1474c.24011-.0903.50304-.1017.75059-.0317l4.259 1.2065c.31552.0893.65534.005.89347-.22027l4.5556-4.3244c1.021 5.8534 3.4002 11.24 6.8168 15.811l-6.6601.0521c-.28674.002-.55017.15925-.68858.41077l-2.3574 4.2758c-.12303.22275-.31651.39737-.55017.49758l-10.898 4.6464c-.66923.28526-1.0815 1.6758-.9525 2.5777l.35421 3.2544c.29022.93464 1.6024 1.7572 2.2299 1.5255l16.393-5.714-5.5741 15.369c-.43111 1.1931.09674 2.674 1.5949 3.0495l2.348.17116c1.4699.0655 2.793-.13643 3.3546-1.4278l4.8473-10.712c.10616-.23366.28426-.42764.5085-.55315l3.8646-2.1585c.28625-.16024.46732-.45939.47575-.78731l.16421-6.2815c4.6623 3.2762 10.107 5.5096 16.004 6.3584l-4.6762 4.7496c-.20092.20488-.27632.50204-.19645.77738l1.3568 4.6906c.07045.24408.05706.50502-.0377.74067l-4.4207 10.992c-.27136.67469.42068 1.9497 1.1499 2.4964l2.5514 2.0504c.86569.45542 2.3753.10964 2.6556-.49758l7.551-15.633 6.9265 14.809c.53876 1.149 1.9591 1.8227 3.2841 1.0289l1.781-1.5394c1.086-.99318 1.8787-2.0717 1.3628-3.3819l-4.1469-11.002c-.09079-.24061-.1017-.50354-.03175-.75059l1.206-4.2595c.0893-.31551.0055-.65484-.22026-.89297l-4.324-4.5561c5.8529-1.021 11.24-3.3997 15.811-6.8168l.05259 6.6606c.002.28674.15925.55017.41027.68858l4.2763 2.3574c.22225.12254.39737.31601.49709.54967l4.6464 10.899c.28525.66923 1.6758 1.081 2.5782.95201l3.2539-.35421c.93464-.29022 1.7572-1.6024 1.526-2.2294l-5.7145-16.394 15.369 5.5741c1.1936.4316 2.6744-.0967 3.05-1.595l.17115-2.348c.0655-1.4699-.13692-2.793-1.4278-3.3546l-10.712-4.8473c-.23416-.10617-.42813-.28426-.55364-.5085l-2.1585-3.8646c-.16024-.28625-.45938-.46733-.7873-.47576l-6.2816-.16371c3.2762-4.6623 5.5096-10.107 6.3584-16.004l4.7501 4.6757c.20439.20141.50155.27632.77688.19695l4.6911-1.3568c.24359-.0709.50453-.0576.74018.0372l10.992 4.4207c.67518.27137 1.9496-.42068 2.4963-1.1494l2.0504-2.5519c.45591-.86568.10964-2.3753-.49758-2.6551zm-36.136-11.106h-7.9053c-.57497-2.6129-1.6813-5.0249-3.2013-7.1195l5.5409-5.5409c2.863 3.5878 4.8339 7.9182 5.5657 12.66zm-16.331-12.044c-2.1734-1.3896-4.6429-2.3555-7.2961-2.7761v-7.8348c4.7848.53479 9.1897 2.3202 12.883 5.0239zm-.96242 16.19c0 5.1713-4.192 9.3638-9.3638 9.3638-5.1713 0-9.3638-4.1925-9.3638-9.3638s4.1925-9.3638 9.3638-9.3638c5.1718 0 9.3638 4.1925 9.3638 9.3638zm-13.51-26.658v7.9053c-2.6129.57547-5.0249 1.6818-7.119 3.2013l-5.5414-5.5409c3.5882-2.863 7.9182-4.8339 12.66-5.5657zm-12.044 16.331c-1.3891 2.1739-2.3555 4.6434-2.7756 7.2961h-7.8353c.53529-4.7848 2.3207-9.1897 5.0239-12.883zm-10.467 14.473h7.9053c.57497 2.6129 1.6813 5.0249 3.2013 7.1194l-5.5414 5.5409c-2.8625-3.5878-4.8334-7.9182-5.5652-12.66zm16.331 12.044c2.1739 1.3896 4.6434 2.3554 7.2961 2.7761v7.8348c-4.7843-.53479-9.1897-2.3202-12.883-5.024zm14.473 10.468v-7.9053c2.6124-.57547 5.0249-1.6818 7.119-3.2013l5.5409 5.5409c-3.5878 2.863-7.9182 4.8339-12.66 5.5657zm12.044-16.331c1.3891-2.1739 2.355-4.6434 2.7756-7.2961h7.8353c-.53529 4.7848-2.3207 9.1896-5.0239 12.883z" fill="#e16426"/></svg>