<svg xmlns="http://www.w3.org/2000/svg" width="24" height="24"><path fill="currentColor" fill-rule="evenodd" d="M18.18 17.24a9 9 0 0 1-1.51 1.32l2.94 2.94a1 1 0 0 0 1.41 0 1 1 0 0 0 0-1.41z"/><path fill="currentColor" d="M14 15.5H9.19l4-8H10v-1h4.81l-4 8H14z"/><circle cx="14" cy="15" r="1.25" fill="currentColor"/><circle cx="10" cy="15" r="1.25" fill="currentColor"/><g fill="currentColor"><path fill="currentColor" fill-rule="evenodd" d="M12 4a7 7 0 1 1-7 7 7 7 0 0 1 7-7m0-2a9 9 0 1 0 9 9 9 9 0 0 0-9-9"/><circle fill="currentColor" cx="12" cy="11" r="1.25"/><circle fill="currentColor" cx="8" cy="11" r="1.25"/><circle fill="currentColor" cx="16" cy="11" r="1.25"/><circle fill="currentColor" cx="14" cy="7" r="1.25"/><circle fill="currentColor" cx="10" cy="7" r="1.25"/></g></svg>