<svg xmlns="http://www.w3.org/2000/svg" id="Product_Icons" width="24" height="24" data-name="Product Icons"><path d="M18.18 17.24a9 9 0 0 1-1.51 1.32l2.94 2.94a1 1 0 0 0 1.41 0 1 1 0 0 0 0-1.41Z" fill-rule="evenodd" fill="#4285f4"/><path d="M14 15.5H9.19l4-8H10v-1h4.81l-4 8H14z" fill="#4285f4"/><circle cx="14" cy="15" r="1.25" fill="#669df6"/><circle cx="10" cy="15" r="1.25" fill="#669df6"/><path d="M8 10.5h8v1H8z" fill="#4285f4"/><path d="M12 4a7 7 0 1 1-7 7 7 7 0 0 1 7-7m0-2a9 9 0 1 0 9 9 9 9 0 0 0-9-9" fill="#669df6" fill-rule="evenodd"/><circle cx="12" cy="11" r="1.25" fill="#669df6"/><circle cx="8" cy="11" r="1.25" fill="#669df6"/><circle cx="16" cy="11" r="1.25" fill="#669df6"/><circle cx="14" cy="7" r="1.25" fill="#669df6"/><circle cx="10" cy="7" r="1.25" fill="#669df6"/></svg>