<svg height="24" width="24" xmlns="http://www.w3.org/2000/svg"><path d="m18.18 17.24a9 9 0 0 1 -1.51 1.32l2.94 2.94a1 1 0 0 0 1.41 0 1 1 0 0 0 0-1.41z" fill="#4285f4" fill-rule="evenodd"/><path d="m14 15.5h-4.81l4-8h-3.19v-1h4.81l-4 8h3.19z" fill="#4285f4"/><circle cx="14" cy="15" fill="#669df6" r="1.25"/><circle cx="10" cy="15" fill="#669df6" r="1.25"/><path d="m8 10.5h8v1h-8z" fill="#4285f4"/><g fill="#669df6"><path d="m12 4a7 7 0 1 1 -7 7 7 7 0 0 1 7-7m0-2a9 9 0 1 0 9 9 9 9 0 0 0 -9-9" fill-rule="evenodd"/><circle cx="12" cy="11" r="1.25"/><circle cx="8" cy="11" r="1.25"/><circle cx="16" cy="11" r="1.25"/><circle cx="14" cy="7" r="1.25"/><circle cx="10" cy="7" r="1.25"/></g></svg>