<svg viewBox="0 0 24 24" xmlns="http://www.w3.org/2000/svg"><path d="m2.28 20.494-2.28-1.629c.67-.938 1.36-1.66 2.088-2.171.805-.568 1.667-.869 2.555-.869.824 0 1.539.198 2.178.582.261.16.504.344.734.549.16.14.281.255.53.504.383.384.537.524.728.633.205.127.422.185.735.185s.53-.058.734-.185c.192-.109.351-.25.734-.633.25-.249.37-.364.537-.51a4.69 4.69 0 0 1 .728-.543c.639-.384 1.348-.582 2.171-.582.824 0 1.533.198 2.172.582.255.153.491.332.728.542.166.147.287.262.536.511.383.384.543.524.735.633.204.127.421.185.734.185.281 0 .588-.109.945-.358.44-.306.92-.81 1.418-1.507l2.28 1.629c-.67.938-1.36 1.666-2.088 2.17-.805.57-1.667.87-2.555.87-.824 0-1.539-.199-2.178-.582a5.072 5.072 0 0 1 -.734-.543c-.166-.146-.281-.261-.537-.51v-.007c-.376-.377-.536-.517-.728-.626-.204-.127-.415-.185-.728-.185s-.523.058-.728.185c-.191.109-.35.25-.728.626v.007c-.255.249-.37.364-.536.51-.243.211-.48.39-.735.543-.638.383-1.354.581-2.177.581-.824 0-1.54-.198-2.178-.58a5.593 5.593 0 0 1 -.735-.544 11.126 11.126 0 0 1 -.53-.51c-.383-.384-.536-.524-.728-.633-.204-.127-.421-.185-.734-.185-.281 0-.588.109-.945.358-.44.313-.92.81-1.418 1.507zm1.137-17.575h2.33c.965 0 1.75.779 1.75 1.75v6.795h4.554v2.452h-5.256c-.964 0-1.75-.786-1.75-1.75v-6.795h-1.628zm17.818 1.75v1.82h-2.453v-1.119h-1.928v8.545h-2.454v-8.545h-1.928v1.118h-2.452v-1.82c0-.971.786-1.75 1.75-1.75h7.708c.971 0 1.757.779 1.757 1.75zm0 0"/></svg>