<svg fill="none" height="851" viewBox="0 0 1024 851" width="1024" xmlns="http://www.w3.org/2000/svg"><path d="m877.552 1.135-580.115-1.135-12.488 10.212-1.135 14.75h-59.034l-6.811 3.405-6.812 11.346v10.212l-14.758-1.134-7.947 4.538-4.541 22.694h-15.893l-7.947 4.538-3.406 6.808v15.886h-14.758l-9.082 5.673-3.406 6.808v15.885l-15.894-1.134-7.946 4.538-3.406 6.808 1.135 15.886-17.029 1.134-10.217 11.347v38.579l-12.488 2.269-10.217 9.077-1.135 40.848-13.623 1.135-10.219 10.212-2.27 43.117-18.164 3.404-7.946 12.482 1.135 270.05 11.353 10.212 14.758 1.135 1.135 40.848 7.947 7.943 12.488 1.134 1.135 11.347 6.812 10.212 9.082 4.539h12.488l1.135 17.02 10.217 9.077 12.488 1.135 1.135 13.616 6.812 9.077 12.488 4.539h34.057l1.135 65.81 6.812 6.808 19.299 2.27v14.75l9.082 14.751 6.812 3.404h10.217l7.947-5.673h616.443l6.812 4.538 13.623-1.134 13.623-18.155 1.135-32.905-3.405-27.232 91.955-1.135 10.217-11.347 1.136-14.75 11.352-1.135 9.082-7.943 5.677-10.212v-7.942l18.161-2.27 6.81-6.808 2.27-65.81-2.27-63.542 3.41-7.942v-10.212l-4.54-7.943-6.81-3.404h-19.302l2.271-15.885-2.271-113.467 3.406-18.155-7.947-10.212-19.299-1.134v-192.894l-7.947-10.212-19.299-1.134v-119.14l-2.271-9.078-6.811-6.808-17.029-1.134-1.135-15.886-4.542-7.942-18.164-3.404-4.541-13.616z" fill="#e9eeeb"/><path d="m977.455 566.199-1.136 1.134v128.218l-1.135 1.134h-26.111v26.098h27.246v-24.963h26.111l1.14-1.135v-130.486zm-592.604-472.022v239.415l22.706 1.135v158.853h490.43l1.135-1.135v-137.294h-26.111v-203.106h-24.976v-56.733l-1.135-1.135z" fill="#0c1019"/><path d="m412.098 331.323 22.705 2.269h1.135l1.135 128.217h431.397v-49.925l-22.705-1.135-1.135-205.374-21.57-1.135-1.135-1.135v-79.426h-409.827z" fill="#becfcb"/><path d="m712.94 351.747-1.135 1.134v30.636h27.246v-31.77zm-148.718 0v31.77l26.111 1.135v27.232l1.135 1.135h120.337v-29.502h-120.337v-31.77zm79.468-111.198v94.178h28.381l1.135-1.135v-93.043zm59.033-55.598v95.312h30.652v-95.312zm-171.424 0v1.134l1.136 94.178h29.516v-95.312z" fill="#0c1019"/><path d="m303.113 43.117v-24.962h569.898v24.962l26.111 1.135v24.963h26.111v113.465l1.135 19.29 21.57 1.134h2.27l1.136 205.375h24.975v157.719h-27.246l-1.135-157.719h-22.705l-1.135-1.135v-204.24h-26.111v-132.755h-27.246v-23.828l-540.382 2.27v20.424l-22.705 1.134-2.27-1.134-1.136 1.134v81.696l26.111 1.135v256.435l1.135 1.134h27.247v287.071h-27.247v24.963h617.579v27.232h-99.902l-1.136 77.157v1.135h-644.824v-1.135l-1.136-27.232h-26.11l-1.136-77.157h-51.086l-1.135-24.963h-23.841l-1.135-27.232h-26.112l-1.135-24.963h-26.11v-52.194h-26.11l-1.136-1.135v-257.569h27.245v-53.33l1.136-1.134h24.976l1.135-38.579v-14.751h26.11v-49.925l1.136-1.135 23.841-2.269v-20.424l1.135-1.135h24.975v-31.77h26.111v-24.963l1.136-1.135h23.84l2.27-1.134v-22.694l26.111-1.134 1.135-1.135v-23.828h2.271z" fill="#0c1019"/><path d="m331.494 751.149v1.135l1.136 48.791h487.024l2.271-1.135v-48.791z" fill="#e9eeeb"/><path d="m412 589h25v67h-25zm85 0h25v67h-25zm-60-23h60v23h-60zm0 90h60v23h-60zm405-67h25v67h-25zm85 0h25v67h-25zm-60-23h60v23h-60zm0 90h60v23h-60z" fill="#0c1019"/></svg>