<svg height="48" viewBox="0 0 48 48" width="48" xmlns="http://www.w3.org/2000/svg"><path d="m24 4.113 13.621 6.65-13.621 5.977-13.621-5.975zm-16 21.287c.283 0 .554-.121.743-.331l4.5-5-1.486-1.338-2.757 3.064v-9.451l14 6.14v10.364l-2.757-3.064-1.486 1.338 4.5 5a1 1 0 0 0 1.486 0l4.5-5-1.486-1.338-2.757 3.064v-10.363l14-6.141v9.45l-2.757-3.062-1.486 1.338 4.5 5a1 1 0 0 0 1.486 0l4.5-5-1.486-1.338-2.757 3.063v-10.982a1 1 0 0 0 -.562-.898l-16-7.813a.99.99 0 0 0 -.876 0l-16 7.813a1 1 0 0 0 -.562.898v10.982l-2.757-3.063-1.486 1.338 4.5 5c.189.21.46.33.743.33m32 11.535c-2.206 0-4-1.794-4-4s1.794-4 4-4 4 1.795 4 4-1.794 4-4 4m-16 7.017c-2.206 0-4-1.794-4-4s1.794-4 4-4 4 1.795 4 4-1.794 4-4 4m-16-7.016c-2.206 0-4-1.794-4-4s1.794-4 4-4 4 1.795 4 4-1.794 4-4 4m32-10c-3.309 0-6 2.692-6 6 0 .504.069.99.187 1.458l-5.175 2.27a6 6 0 0 0 -5.012-2.711 6 6 0 0 0 -5.012 2.71l-5.175-2.27c.118-.466.187-.953.187-1.457 0-3.308-2.691-6-6-6s-6 2.692-6 6c0 3.309 2.691 6 6 6a6 6 0 0 0 5.012-2.71l5.174 2.27a6 6 0 0 0 -.186 1.458c0 3.309 2.691 6 6 6s6-2.691 6-6a6 6 0 0 0 -.186-1.457l5.174-2.27a6 6 0 0 0 5.012 2.709c3.309 0 6-2.691 6-6 0-3.308-2.691-6-6-6" fill="#ed7100" fill-rule="evenodd"/></svg>