<svg height="48" viewBox="0 0 48 48" width="48" xmlns="http://www.w3.org/2000/svg"><path d="m20.114 31.103h14.862v-2h-14.862zm0-6.12h18.359v-2h-18.359zm0-6.121h7.869v-2h-7.869zm-12.114 18.109h.748v2h-1.748a1 1 0 0 1 -1-1v-34.971a1 1 0 0 1 1-1h16.611v2h-15.611zm5.245 3.497h1.623v2h-2.623a1 1 0 0 1 -1-1v-34.971a1 1 0 0 1 1-1h15.738v2h-14.738zm5.246 3.497v-32.971h12.863v7.742a1 1 0 0 0 1 1h7.742v24.229zm14.863-31.557 5.328 5.328h-5.328zm8.449 5.621-8.742-8.742a1 1 0 0 0 -.707-.293h-14.863a1 1 0 0 0 -1 1v34.971a1 1 0 0 0 1 1h23.605a1 1 0 0 0 1-1v-26.229c0-.265-.106-.519-.293-.707" fill="#e7157b" fill-rule="evenodd"/></svg>