<svg viewBox="0 0 24 24" xmlns="http://www.w3.org/2000/svg" fill="#2A3FFB"><path d="m1.524 17.138v-2.093h3.111v2.358c0 1.306.102 2.226.306 2.76.204.523.587.786 1.149.786.564 0 .934-.217 1.115-.654.187-.435.281-1.146.281-2.131 0-.987-.165-1.845-.49-2.573-.326-.736-.845-1.506-1.554-2.305l-1.59-1.786a10.829 10.829 0 0 1 -1.74-2.625c-.407-.905-.612-1.955-.612-3.145 0-1.937.342-3.375 1.028-4.317.684-.942 1.863-1.413 3.536-1.413s2.802.55 3.39 1.653c.595 1.092.893 2.691.893 4.797v1.452h-3.023v-1.68c0-1.136-.09-1.95-.268-2.438-.18-.498-.525-.745-1.041-.745-.505 0-.871.186-1.101.56-.22.371-.33.932-.33 1.678 0 .747.114 1.341.342 1.785.23.445.64 1.014 1.236 1.707l1.775 2.091c.889 1.05 1.56 2.11 2.007 3.186.457 1.074.685 2.247.685 3.518 0 2.194-.338 3.815-1.016 4.864-.675 1.047-1.863 1.572-3.56 1.572-1.69 0-2.868-.582-3.537-1.746-.66-1.173-.99-2.878-.99-5.117zm15.849-4.426-1.053-.052v11.073h-3.28v-23.453h5.422c1.125 0 1.965.248 2.52.746.555.489.918 1.177 1.09 2.066.18.878.269 2.034.269 3.464 0 1.422-.138 2.505-.416 3.252a2.405 2.405 0 0 1 -1.542 1.505c.741.143 1.26.69 1.554 1.64.293.95.44 2.932.44 5.943 0 3.003.042 4.615.123 4.837h-3.28c-.082-.177-.122-2.98-.122-8.407 0-1.04-.114-1.728-.344-2.066-.228-.346-.69-.53-1.381-.547zm-1.041-2.824h1.31c.415 0 .721-.102.918-.306.204-.206.342-.555.415-1.053.083-.498.123-1.257.123-2.28v-.144c0-1.27-.097-2.1-.294-2.492-.195-.391-.648-.586-1.357-.586h-1.115z"/></svg>