<svg viewBox="0 0 24 24" xmlns="http://www.w3.org/2000/svg"><path d="m6.923 0c-2.408 0-3.28.25-4.16.721a4.906 4.907 0 0 0 -2.041 2.042c-.472.88-.722 1.753-.722 4.16v10.154c0 2.407.25 3.28.72 4.16a4.905 4.906 0 0 0 2.042 2.042c.88.47 1.752.721 4.16.721h10.156c2.407 0 3.28-.25 4.16-.721a4.906 4.907 0 0 0 2.04-2.042c.471-.88.722-1.753.722-4.16v-10.154c0-2.407-.25-3.28-.722-4.16a4.906 4.907 0 0 0 -2.04-2.043c-.881-.469-1.754-.72-4.161-.72zm-2.753 7.51h1.084c.04.24.07.488.11.737h3.47c.05-.25.08-.497.1-.736h1.105a9.849 9.85 0 0 1 -.09.736h1.562v.866h-3.891v.696h3.642v.855h-3.64v.667h3.64v.854h-3.64v.816h3.89v.865h-3.632c.775.935 2.218 1.532 3.78 1.651l-.538.936c-1.442-.17-3.103-.846-4.028-2.04-.856 1.194-2.487 1.92-4.525 2.07l.318-1.005c1.382-.02 2.814-.736 3.431-1.612h-3.62v-.865h3.86v-.816h-3.64v-.854h3.64v-.667h-3.64v-.855h3.64v-.697h-3.858v-.866h1.56zm8.603.182h7.976c.358 0 .567.198.567.547v8.146h-7.986c-.358 0-.557-.199-.557-.547zm1.044.885v6.923h6.455v-6.923zm3.999.476h1.024v.756h.975v.835h-.975v2.356c0 .806-.1 1.402-.318 2.02h-1.113c.338-.717.408-1.224.408-1.99v-2.387h-.935c-.14 1.541-.736 3.451-1.363 4.376h-1.134c.607-.855 1.303-2.526 1.472-4.376h-1.512v-.835h3.472z"/></svg>