<svg height="24" width="24" xmlns="http://www.w3.org/2000/svg"><g fill-rule="evenodd"><path d="m6.68 16.3-2.41-4.26 2.41-4.25h-2.26l-2.42 4.25 2.42 4.26z" fill="#669df6"/><path d="m4.57 12.56-.3-.52h-2.27l1.11 1.97z" fill="#4285f4"/><path d="m15 6.37h-5.88l-3.31 5.63 3.31 5.59h5.88l3.29-5.59zm-2.93 8.36a2.64 2.64 0 1 1 2.66-2.64 2.65 2.65 0 0 1 -2.66 2.64m-7.8-2.67 2.41-4.27h-2.26l-2.42 4.27 1.11 1.97z" fill="#aecbfa"/><path d="m15 6.45-1.7 3.33a2.66 2.66 0 0 1 -1.25 5 2.6 2.6 0 0 1 -1.18-.27l-1.75 3.12h5.88l3.29-5.63z" fill="#669df6"/><path d="m17.32 7.79 2.41 4.25-2.41 4.26h2.27l2.41-4.26-2.41-4.25z" fill="#669df6"/><path d="m19.43 11.53.3.51h2.27l-1.11-1.97z" fill="#4285f4"/><path d="m19.73 12.02-2.41 4.28h2.27l2.41-4.28-1.11-1.97z" fill="#aecbfa"/></g></svg>