<svg viewBox="0 0 18 18" xmlns="http://www.w3.org/2000/svg" xmlns:xlink="http://www.w3.org/1999/xlink"><linearGradient id="a" gradientUnits="userSpaceOnUse" x1="9.04" x2="9.04" y1="9.54" y2="1.5"><stop offset="0" stop-color="#5e9624"/><stop offset=".26" stop-color="#70a828"/><stop offset=".79" stop-color="#9fd732"/><stop offset="1" stop-color="#b4ec36"/></linearGradient><g fill="#0078d4"><rect height="7.32" rx=".24" width="2.17" x="6.19" y="9.18"/><rect height="5.12" rx=".24" width="2.17" x="9.64" y="11.38"/><rect height="9.45" rx=".24" width="2.17" x="13.09" y="7.05"/><rect height="5.12" rx=".24" width="2.17" x="2.74" y="11.38"/></g><path d="m15 5.58-1-1.06-.5-.5-3.5 3.51a.16.16 0 0 1 -.24 0l-2.12-2.08-4 4a.16.16 0 0 1 -.24 0l-.53-.45a.18.18 0 0 1 0-.25l4.65-4.64a.16.16 0 0 1 .24 0l2.08 2.07 2.89-2.89-.5-.5-1.05-1a.14.14 0 0 1 .09-.24h3.85a.14.14 0 0 1 .14.14v3.79a.14.14 0 0 1 -.26.1" fill="url(#a)"/></svg>