<svg height="48" viewBox="0 0 48 48" width="48" xmlns="http://www.w3.org/2000/svg"><path d="m13.626 35.92v-2.837l1.774 1.419zm-.375-5.7a1.001 1.001 0 0 0 -1.625.781v7a1.001 1.001 0 0 0 1.625.782l4.374-3.5a1 1 0 0 0 0-1.562zm24-3.383v-3.922l1.962 1.96zm4.083-2.668-4.376-4.375a1 1 0 0 0 -1.706.707v3.375h-7.627v-9.5a1 1 0 0 0 -1-1h-7.693v2h6.694v8.5h-6.876v2h6.875v8.5h-6.693v2h7.694a1 1 0 0 0 1-1v-9.5h7.625v3.376a1 1 0 0 0 1.708.707l4.374-4.376a1 1 0 0 0 0-1.414m-27.708 2.127v-2.84l1.774 1.42zm-.375-5.701a1 1 0 0 0 -1.625.78v7.002a1.001 1.001 0 0 0 1.625.78l4.374-3.5a1 1 0 0 0 0-1.562zm.375-4.8v-2.838l1.774 1.419zm-.375-5.7a1.001 1.001 0 0 0 -1.625.781v7a1.001 1.001 0 0 0 1.625.78l4.374-3.5a1 1 0 0 0 0-1.561zm10.75 33.908c-11.029 0-20-8.973-20-20.003s8.973-20 20-20c11.03 0 20.002 8.973 20.002 20 0 11.03-8.973 20.003-20.002 20.003m0-42.003c-12.132 0-22 9.869-22 22 0 12.133 9.869 22.003 22 22.003 12.133 0 22.002-9.87 22.002-22.002s-9.869-22.001-22.002-22.001" fill="#8c4fff" fill-rule="evenodd"/></svg>