<svg viewBox="0 0 24 24" xmlns="http://www.w3.org/2000/svg"><path d="m12 0q.778 0 1.528.096a6.188 6.188 0 0 1 -1.408 12.184l-.12.001c-2.99 0-5.242 2.179-5.554 5.11-.223 2.086.353 4.412 2.242 6.146-5.016-1.437-8.688-6.058-8.688-11.537 0-6.627 5.373-12 12-12" fill="#a8dff5"/><path d="m5.286 5a2.44 2.44 0 0 1 .682 3.38c-3.962 5.966-3.215 10.743 2.648 15.136-4.98-1.46-8.616-6.064-8.616-11.516 0-1.787.39-3.482 1.09-5.006q.38-.652.817-1.311a2.44 2.44 0 0 1 3.379-.683" fill="#0055e9"/><path d="m12.98.04q.409.032.81.093c.583.106 1.117.254 1.538.44 6.638 2.927 8.07 10.052 1.748 15.642a4.125 4.125 0 0 1 -5.822-.358c-1.51-1.706-1.3-4.184.357-5.822.858-.848 3.108-1.223 4.045-2.441 1.257-1.634 2.122-6.009-2.523-7.506l-.153-.049z" fill="#00bcff"/><path d="m13.528.096a6.187 6.187 0 0 1 -1.528 12.185 5.8 5.8 0 0 0 -1.71.255c.147-.905.595-1.784 1.321-2.501.858-.848 3.108-1.223 4.045-2.441 1.27-1.651 2.14-6.104-2.676-7.554q.276.021.548.056" fill="#ececee"/><circle cx="12" cy="12" fill="#0055e9" r="12"/></svg>