<svg xmlns="http://www.w3.org/2000/svg" xmlns:xlink="http://www.w3.org/1999/xlink" width="18" height="18" viewBox="0 0 18 18">
  <defs>
    <mask id="wko">
      <rect width="18" height="18" fill="white"/>
      <path fill="black" d="M8.023 8.644A4.26 4.26 0 0 1 5.7 7.961l2.3 6L10.281 8a4.26 4.26 0 0 1-2.258.644" opacity=".8"/>
    </mask>
  </defs>
  <g fill="currentColor" mask="url(#wko)">
    <path fill="currentColor" d="M14.29 16.9a1.36 1.36 0 0 0 1.364-1.354 2 2 0 0 0-.009-.164c-.534-4.272-2.972-7.751-7.622-7.751-4.731 0-7.172 2.946-7.647 7.762a1.366 1.366 0 0 0 1.219 1.5c.045 0 .091.007.137.007z"/>
  </g>
  <circle cx="8.023" cy="4.358" r="4.287" fill="currentColor"/>
  <path fill="currentColor" d="M16.178 13.063a2.7 2.7 0 0 1-3.609 0l-.224 4.48a.356.356 0 0 0 .609.268l1.4-.887 1.389.9a.356.356 0 0 0 .61-.264z"/>
  <ellipse cx="14.41" cy="10.767" fill="currentColor" rx="3.221" ry="3.232"/>
  <ellipse cx="14.41" cy="10.767" fill="currentColor" rx="2.444" ry="2.452"/>
</svg>