<svg height="18" viewBox="0 0 18 18" width="18" xmlns="http://www.w3.org/2000/svg" xmlns:xlink="http://www.w3.org/1999/xlink"><linearGradient id="a"><stop offset=".225" stop-color="#32d4f5"/><stop offset=".473" stop-color="#31d1f3"/><stop offset=".633" stop-color="#2ec9eb"/><stop offset=".999" stop-color="#198ab3"/><stop offset="1" stop-color="#198ab3"/></linearGradient><linearGradient id="b" gradientUnits="userSpaceOnUse" x1="8.011" x2="8.011" xlink:href="#a" y1="6.499" y2="19.191"/><linearGradient id="c" gradientUnits="userSpaceOnUse" x1="7.649" x2="8.575" xlink:href="#a" y1="-.304" y2="11.219"/><linearGradient id="d" gradientUnits="userSpaceOnUse" x1="14.349" x2="14.349" y1="17.929" y2="13.063"><stop offset="0" stop-color="#a67af4"/><stop offset=".999" stop-color="#773adc"/></linearGradient><path d="m14.29 16.9a1.36 1.36 0 0 0 1.364-1.354 2 2 0 0 0 -.009-.164c-.534-4.272-2.972-7.751-7.622-7.751-4.731 0-7.172 2.946-7.647 7.762a1.366 1.366 0 0 0 1.219 1.5c.045 0 .091.007.137.007z" fill="url(#b)"/><path d="m8.023 8.644a4.26 4.26 0 0 1 -2.323-.683l2.3 6 2.281-5.961a4.26 4.26 0 0 1 -2.258.644" fill="#fff" opacity=".8"/><circle cx="8.023" cy="4.358" fill="url(#c)" r="4.287"/><path d="m16.178 13.063a2.7 2.7 0 0 1 -3.609 0l-.224 4.48a.356.356 0 0 0 .609.268l1.4-.887 1.389.9a.356.356 0 0 0 .61-.264z" fill="url(#d)"/><ellipse cx="14.41" cy="10.767" fill="#a67af4" rx="3.221" ry="3.232"/><ellipse cx="14.41" cy="10.767" fill="#ffe452" rx="2.444" ry="2.452"/></svg>