<svg height="64" viewBox="0 0 64 64" width="64" xmlns="http://www.w3.org/2000/svg"><g fill="none" fill-rule="evenodd"><path d="m0 0h64v64h-64z" fill="#8c4fff"/><path d="m52 32c0-1.654-1.346-3-3-3s-3 1.346-3 3 1.346 3 3 3 3-1.346 3-3m-10.918 7.821a15 15 0 0 0 -2.714-1.021c-.482 1.705-1.145 3.176-1.938 4.342a12.04 12.04 0 0 0 4.652-3.321m-9.082 6.179c-1.654 0-3 1.346-3 3s1.346 3 3 3 3-1.346 3-3-1.346-3-3-3m-4.43-2.858c-.793-1.167-1.456-2.637-1.938-4.343-.998.275-1.907.62-2.715 1.02a12.04 12.04 0 0 0 4.653 3.323m-9.57-11.142c0-1.654-1.346-3-3-3s-3 1.346-3 3 1.346 3 3 3 3-1.346 3-3m5.124-8.048c.782.37 1.656.685 2.604.942.472-1.574 1.098-2.941 1.842-4.036a12.04 12.04 0 0 0 -4.446 3.094m8.876-5.952c1.654 0 3-1.346 3-3s-1.346-3-3-3-3 1.346-3 3 1.346 3 3 3m4.43 2.858c.744 1.095 1.37 2.462 1.842 4.036a15.7 15.7 0 0 0 2.604-.941 12 12 0 0 0 -4.446-3.095m2.382 15.997c1.278.347 2.443.792 3.456 1.324a11.9 11.9 0 0 0 1.681-5.179h-4.72a26 26 0 0 1 -.417 3.855m-18.761-3.855c.156 1.884.752 3.64 1.681 5.178 1.012-.532 2.178-.977 3.456-1.323a26 26 0 0 1 -.417-3.855zm5.195-6.171c-1.236-.332-2.367-.755-3.36-1.261a11.9 11.9 0 0 0 -1.835 5.432h4.72c.052-1.47.215-2.87.475-4.171m18.703 4.171a11.9 11.9 0 0 0 -1.835-5.432c-.993.505-2.124.929-3.36 1.261.26 1.301.423 2.701.475 4.171zm-16.753-3.739a24 24 0 0 0 -.425 3.739h10.458a24 24 0 0 0 -.425-3.74 27.55 27.55 0 0 1 -9.608.001m.491-1.94a26 26 0 0 0 4.313.361 26 26 0 0 0 4.313-.361c-1.023-3.301-2.724-5.321-4.313-5.321s-3.29 2.02-4.313 5.321m9.173 11.099c.195-1.059.324-2.202.369-3.42h-10.458c.045 1.218.174 2.36.369 3.419a27.5 27.5 0 0 1 9.72.001m-.455 1.946a25.6 25.6 0 0 0 -4.407-.379c-1.529 0-3.013.135-4.403.378 1.01 3.485 2.767 5.635 4.405 5.635s3.394-2.15 4.405-5.634m17.595-6.366c0 2.757-2.243 5-5 5a4.98 4.98 0 0 1 -3.481-1.422 14.03 14.03 0 0 1 -9.941 9.941 4.98 4.98 0 0 1 1.422 3.481c0 2.757-2.243 5-5 5s-5-2.243-5-5c0-1.354.545-2.579 1.422-3.481a14.03 14.03 0 0 1 -9.941-9.941 4.98 4.98 0 0 1 -3.481 1.422c-2.757 0-5-2.243-5-5s2.243-5 5-5c1.354 0 2.579.545 3.481 1.422a14.03 14.03 0 0 1 9.941-9.941 4.98 4.98 0 0 1 -1.422-3.481c0-2.757 2.243-5 5-5s5 2.243 5 5a4.98 4.98 0 0 1 -1.422 3.481 14.03 14.03 0 0 1 9.941 9.941 4.98 4.98 0 0 1 3.481-1.422c2.757 0 5 2.243 5 5m-6.655 7.31a17.13 17.13 0 0 1 -8.035 8.035c.121.533.19 1.086.19 1.655 0 .154-.014.305-.023.457a19.13 19.13 0 0 0 9.98-9.98c-.152.009-.303.023-.457.023a7.5 7.5 0 0 1 -1.655-.19m-22.655 8.035a17.13 17.13 0 0 1 -8.035-8.035 7.5 7.5 0 0 1 -1.655.19c-.154 0-.305-.014-.457-.023a19.13 19.13 0 0 0 9.98 9.979c-.009-.151-.023-.302-.023-.456 0-.569.069-1.122.19-1.655m-8.035-22.655a17.13 17.13 0 0 1 8.035-8.035 7.5 7.5 0 0 1 -.19-1.655c0-.154.014-.305.023-.456a19.13 19.13 0 0 0 -9.98 9.979c.152-.009.303-.023.457-.023.569 0 1.122.069 1.655.19m22.845-9.69c0-.154-.014-.305-.023-.457a19.13 19.13 0 0 1 9.98 9.98c-.152-.009-.303-.023-.457-.023-.569 0-1.122.069-1.655.19a17.13 17.13 0 0 0 -8.035-8.035c.121-.533.19-1.086.19-1.655" fill="#fff"/></g></svg>