<svg xmlns="http://www.w3.org/2000/svg" width="607.814" height="135.361" viewBox="0 0 160.817 35.814"><defs><mask id="a"><path fill="#fff" d="M0 0h160.817v35.814H0z"/><path d="M4.3 4.723v26.239h4.783V18.427l2.104 12.535h2.622l2.103-12.535v12.535h9.225l.552-4.056h3.67l.606 4.056h9.064v-8.495l1.093-.14 2.288 8.635h4.67l-3.053-10.15c1.676-1.134 2.798-3.34 3.002-6.08l2.67 16.23h5.597L59.1 7.202v23.76h9.015v-4.745h-4.292V20.22h4.292v-4.8h-4.292V9.495h4.292V4.722H54.693l-2.244 16.219-2.154-16.22h-4.86l.598 4.35s-1.87-4.35-6.478-4.35h-5.276v24.065L30.721 4.722h-6.356l-3.63 24.064V4.722h-6.069l-2.204 13.54-2.116-13.54zm34.715 4.632c4.36.055 4.202 8.234 0 8.515zm-11.458 2.302 1.34 11.108h-2.655zm41.4-6.934v26.239h8.784v-4.745h-4.04V4.722z"/></mask></defs><g fill="currentColor" mask="url(#a)"><path d="M0 0h80.263v35.808H0z"/></g></svg>