<svg xmlns="http://www.w3.org/2000/svg" width="607.814" height="135.361" viewBox="0 0 160.817 35.814"><path fill="#ea2922" d="M0 0h80.263v35.808H0z"/><path fill="#fff" d="M4.3 4.723v26.239h4.783V18.427l2.104 12.535h2.622l2.103-12.535v12.535h9.225l.552-4.056h3.67l.606 4.056h9.064v-8.495l1.093-.14 2.288 8.635h4.67l-3.053-10.15c1.676-1.134 2.798-3.34 3.002-6.08l2.67 16.23h5.597L59.1 7.202v23.76h9.015v-4.745h-4.292V20.22h4.292v-4.8h-4.292V9.495h4.292V4.722H54.693l-2.244 16.219-2.154-16.22h-4.86l.598 4.35s-1.87-4.35-6.478-4.35h-5.276v24.065L30.721 4.722h-6.356l-3.63 24.064V4.722h-6.069l-2.204 13.54-2.116-13.54zm34.715 4.632c4.36.055 4.202 8.234 0 8.515zm-11.458 2.302 1.34 11.108h-2.655zm41.4-6.934v26.239h8.784v-4.745h-4.04V4.722z"/><path d="M84.813 33.984h76.005v1.83H84.813zm0-33.866h76.005v1.83H84.813zm11.643 14.351v-7c0-1.87-1.202-3.258-3.642-3.258h-5.027c-1.713 0-2.91 1.398-2.91 3.258v20.786c0 2.214.991 3.572 2.91 3.572h5.027c2.57 0 3.642-1.544 3.642-3.572v-6.631l-5.072-.017v5.473a.756.756 0 0 1-1.508 0V9.084c0-1.348 1.508-1.34 1.508 0v5.385zm50.985 0v-7c0-1.87-1.203-3.258-3.642-3.258h-5.027c-1.714 0-2.91 1.398-2.91 3.258v20.786c0 2.214.99 3.572 2.91 3.572h5.027c2.57 0 3.642-1.544 3.642-3.572v-6.631l-5.072-.017v5.473a.756.756 0 0 1-1.509 0V9.084c0-1.348 1.509-1.34 1.509 0v5.385zM101.182 4.211a2.97 2.97 0 0 0-2.977 2.977V28.85a2.97 2.97 0 0 0 2.977 2.977h5.457a2.97 2.97 0 0 0 2.976-2.977V7.188a2.97 2.97 0 0 0-2.976-2.977zm2.752 3.854c.404 0 .73.325.73.73v18.402c0 .405-.326.73-.73.73a.73.73 0 0 1-.73-.73V8.795c0-.405.325-.73.73-.73m25.087-3.84h5.027v27.602h-5.027zm-17.573 27.602V4.211h6.704c.813 5.67.912 11.425.99 17.182h.381c.161-5.789.227-11.605 1.109-17.182h6.714v27.616h-4.607c-.109-6.33.146-12.662.38-18.992h-.55c-.121 6.449-.668 12.792-1.787 18.992h-2.857c-.927-6.3-1.81-12.605-1.7-18.992h-.603c.27 6.338.539 12.675.443 18.992zm37.723-10.223h5.092v5.616c0 .981 1.41.858 1.41 0v-3.713c0-2.91-.446-3.66-2.93-4.71-2.402-1.017-3.573-3.274-3.573-5.722V8.312c0-3.449 1.478-4.101 3.688-4.101h4.15c1.745 0 3.78.27 3.78 4.101v4.213h-5.116V8.941c0-1.195-1.409-1.18-1.409 0v2.778c0 2.414 2.88 2.188 4.693 4.21 1.62 1.805 1.831 4.205 1.831 6.571v5.634c.023 1.972-.773 3.693-3.778 3.693h-4.15c-1.753 0-3.689-.657-3.689-3.693z"/></svg>