<svg height="64" viewBox="0 0 64 64" width="64" xmlns="http://www.w3.org/2000/svg"><g fill="none" fill-rule="evenodd"><path d="m0 0h64v64h-64z" fill="#ed7100"/><path d="m14.729 4.621-1-1.732 4.771-2.755a1 1 0 0 1 1 0l4.773 2.755-1 1.732-4.273-2.466zm8.271 30.753-4 2.31-4-2.31v-4.619l4-2.309 4 2.31zm2-5.196a1 1 0 0 0 -.5-.866l-5-2.887a1 1 0 0 0 -1 0l-5 2.887c-.309.18-.5.51-.5.866v1.322h-13v2h13v2.452c0 .357.191.687.5.866l4.5 2.598v4.084h2v-4.084l4.5-2.598a1 1 0 0 0 .5-.866v-2.452h13v-2h-13zm4-10.678h5v-2h-5zm0-5h5v-2h-5zm-24-1h13v-2h-13zm-3 9h35v-13h-35zm36-15h-37a1 1 0 0 0 -1 1v15a1 1 0 0 0 1 1h37a1 1 0 0 0 1-1v-15a1 1 0 0 0 -1-1" fill="#fff" transform="translate(13 10)"/></g></svg>