<svg xmlns="http://www.w3.org/2000/svg" width="64" height="64" viewBox="0 0 64 64"><title>Icon-Architecture/48/Arch_AWS-Elemental-Link_48</title><g id="Icon-Architecture/48/Arch_AWS-Elemental-Link_48" fill="none" fill-rule="evenodd" stroke="none" stroke-width="1"><g id="Icon-Architecture-BG/48/Media-Services" fill="#ed7100"><path id="Rectangle" d="M0 0h64v64H0z"/></g><g id="Icon-Service/48/AWS-Elemental-Link_48" fill="#fff" transform="translate(13 10)"><path id="AWS-Elemental-Link_Icon_48_Squid" d="m14.729 4.621-1-1.732L18.5.134a1 1 0 0 1 1 0l4.773 2.755-1 1.732L19 2.155zM23 35.374l-4 2.31-4-2.31v-4.619l4-2.309 4 2.31zm2-5.196a1 1 0 0 0-.5-.866l-5-2.887a1 1 0 0 0-1 0l-5 2.887c-.309.18-.5.51-.5.866V31.5H0v2h13v2.452c0 .357.191.687.5.866l4.5 2.598V43.5h2v-4.084l4.5-2.598a1 1 0 0 0 .5-.866V33.5h13v-2H25zM29 19.5h5v-2h-5zm0-5h5v-2h-5zm-24-1h13v-2H5zm-3 9h35v-13H2zm36-15H1a1 1 0 0 0-1 1v15a1 1 0 0 0 1 1h37a1 1 0 0 0 1-1v-15a1 1 0 0 0-1-1"/></g></g></svg>