<svg xmlns="http://www.w3.org/2000/svg" width="18" height="18" viewBox="0 0 18 18">
  <defs>
    <mask id="wko">
      <rect width="18" height="18" fill="white"/>
      <path fill="black" d="M2.61 3.19h8.87a.19.19 0 0 1 .19.18v.93a.19.19 0 0 1-.19.17H2.61a.18.18 0 0 1-.19-.17v-.93a.18.18 0 0 1 .19-.18m0 1.81h8.88a.17.17 0 0 1 .18.17v.93a.18.18 0 0 1-.18.18H2.61a.18.18 0 0 1-.18-.18v-.89A.17.17 0 0 1 2.61 5m0 1.89h8.88a.18.18 0 0 1 .18.18V8a.18.18 0 0 1-.18.17H2.61A.18.18 0 0 1 2.43 8v-.93a.18.18 0 0 1 .18-.18"/>
      <path fill="black" d="M9.73 11.59h5.64a.12.12 0 0 1 .12.11v.59a.12.12 0 0 1-.12.11H9.73a.11.11 0 0 1-.12-.11v-.59a.11.11 0 0 1 .12-.11m0 1.17h5.64a.11.11 0 0 1 .12.11v.59a.11.11 0 0 1-.12.11H9.73a.12.12 0 0 1-.12-.11v-.59a.12.12 0 0 1 .12-.11m0 1.18h5.64a.11.11 0 0 1 .12.11v.59a.11.11 0 0 1-.12.11H9.73a.12.12 0 0 1-.12-.11v-.59a.12.12 0 0 1 .12-.11"/>
    </mask>
  </defs>
  <g fill="currentColor" mask="url(#wko)">
    <path fill="currentColor" d="M15.78 8.89 17.65 7c.15-.16.1-.29-.13-.29h-.93a.23.23 0 0 1-.23-.24c0-1.18-.3-4.47-4.8-4.58a.23.23 0 0 0-.24.23v1.14a.23.23 0 0 0 .25.23 2.75 2.75 0 0 1 3.33 3 .23.23 0 0 1-.23.24h-.87c-.23 0-.28.13-.13.3l1.74 1.9a.24.24 0 0 0 .37-.04"/>
    <rect width="12.46" height="8.64" x=".82" y=".34" fill="currentColor" rx=".57"/>
    <path fill="currentColor" d="M1.38.34h11.49a.41.41 0 0 1 .41.41V2.4H.82V.91a.57.57 0 0 1 .56-.57"/>
    <path fill="currentColor" d="M.82 2.4h12.46v1.38H.82z"/>
    <rect width="7.92" height="5.49" x="9.9" y="10.95" fill="currentColor" rx=".36"/>
    <rect width="7.92" height="5.49" x="8.59" y="9.77" fill="currentColor" rx=".36"/>
    <path fill="currentColor" d="M9 9.77h7.3a.26.26 0 0 1 .26.26v1H8.59v-.95A.36.36 0 0 1 9 9.77"/>
  </g>
</svg>