<svg height="18" viewBox="0 0 18 18" width="18" xmlns="http://www.w3.org/2000/svg" xmlns:xlink="http://www.w3.org/1999/xlink"><linearGradient id="a" gradientUnits="userSpaceOnUse" x1="7.05" x2="7.05" y1="8.98" y2=".34"><stop offset="0" stop-color="#0078d4"/><stop offset="1" stop-color="#5ea0ef"/></linearGradient><linearGradient id="b" gradientUnits="userSpaceOnUse" x1="7.05" x2="7.05" y1="3.78" y2="2.4"><stop offset="0" stop-color="#194f9b" stop-opacity="0"/><stop offset=".26" stop-color="#194f9c" stop-opacity=".01"/><stop offset=".41" stop-color="#18519e" stop-opacity=".05"/><stop offset=".52" stop-color="#1654a2" stop-opacity=".11"/><stop offset=".62" stop-color="#1457a7" stop-opacity=".21"/><stop offset=".71" stop-color="#115cae" stop-opacity=".33"/><stop offset=".8" stop-color="#0d62b6" stop-opacity=".47"/><stop offset=".88" stop-color="#096ac0" stop-opacity=".65"/><stop offset=".95" stop-color="#0472cb" stop-opacity=".85"/><stop offset="1" stop-color="#0078d4"/></linearGradient><path d="m15.78 8.89 1.87-1.89c.15-.16.1-.29-.13-.29h-.93a.23.23 0 0 1 -.23-.24c0-1.18-.3-4.47-4.8-4.58a.23.23 0 0 0 -.24.23v1.14a.23.23 0 0 0 .25.23 2.75 2.75 0 0 1 3.33 3 .23.23 0 0 1 -.23.24h-.87c-.23 0-.28.13-.13.3l1.74 1.9a.24.24 0 0 0 .37-.04" fill="#949494"/><rect fill="url(#a)" height="8.64" rx=".57" width="12.46" x=".82" y=".34"/><path d="m1.38.34h11.49a.41.41 0 0 1 .41.41v1.65h-12.46v-1.49a.57.57 0 0 1 .56-.57" fill="#83b9f9"/><path d="m.82 2.4h12.46v1.38h-12.46z" fill="url(#b)"/><rect fill="#005ba1" height="5.49" rx=".36" width="7.92" x="9.9" y="10.95"/><path d="m2.61 3.19h8.87a.19.19 0 0 1 .19.18v.93a.19.19 0 0 1 -.19.17h-8.87a.18.18 0 0 1 -.19-.17v-.93a.18.18 0 0 1 .19-.18m0 1.81h8.88a.17.17 0 0 1 .18.17v.93a.18.18 0 0 1 -.18.18h-8.88a.18.18 0 0 1 -.18-.18v-.89a.17.17 0 0 1 .18-.21m0 1.89h8.88a.18.18 0 0 1 .18.18v.93a.18.18 0 0 1 -.18.17h-8.88a.18.18 0 0 1 -.18-.17v-.93a.18.18 0 0 1 .18-.18" fill="#fff"/><rect fill="#0078d4" height="5.49" rx=".36" width="7.92" x="8.59" y="9.77"/><path d="m9 9.77h7.3a.26.26 0 0 1 .26.26v1h-7.97v-.95a.36.36 0 0 1 .41-.31" fill="#83b9f9"/><path d="m9.73 11.59h5.64a.12.12 0 0 1 .12.11v.59a.12.12 0 0 1 -.12.11h-5.64a.11.11 0 0 1 -.12-.11v-.59a.11.11 0 0 1 .12-.11m0 1.17h5.64a.11.11 0 0 1 .12.11v.59a.11.11 0 0 1 -.12.11h-5.64a.12.12 0 0 1 -.12-.11v-.59a.12.12 0 0 1 .12-.11m0 1.18h5.64a.11.11 0 0 1 .12.11v.59a.11.11 0 0 1 -.12.11h-5.64a.12.12 0 0 1 -.12-.11v-.59a.12.12 0 0 1 .12-.11" fill="#fff"/></svg>