<svg xmlns="http://www.w3.org/2000/svg" width="18" height="18" viewBox="0 0 18 18">
  <defs>
    <mask id="ko">
      <rect width="18" height="18" fill="white"/>
      <path fill="black" d="M.5 7.594h17v1.311H.5z"/>
      <path fill="black" d="M6.617 8.905H11.5v1.531a.28.28 0 0 1-.281.281H6.9a.28.28 0 0 1-.281-.281V8.905z"/>
      <path fill="black" d="M.5 10.894v2.995l4.644 1.489.871-2.716z"/>
      <path fill="black" d="M17.5 10.745a2.718 2.718 0 1 0 0 4.837z"/>
      <rect fill="black" x=".5" y="4.559" width="17" height="11.872"/>
    </mask>
  </defs>
  <g>
    <path fill="currentColor" mask="url(#ko)" d="M13.135 4.659h-.85V2.422H5.819v2.237h-.85v-2.28a.846.846 0 0 1 .876-.81h6.414a.846.846 0 0 1 .876.81z"/>
  </g>
</svg>