<svg xmlns="http://www.w3.org/2000/svg" width="18" height="18" viewBox="0 0 18 18"><defs><mask id="a"><path fill="#fff" d="M0 0h18v18H0z"/><path d="M.5 7.594h17v1.311H.5z"/><path d="M6.617 8.905H11.5v1.531a.28.28 0 0 1-.281.281H6.9a.28.28 0 0 1-.281-.281V8.905z"/><path d="M.5 10.894v2.995l4.644 1.489.871-2.716z"/><path d="M17.5 10.745a2.718 2.718 0 1 0 0 4.837z"/><path d="M.5 4.559h17v11.872H.5z"/></mask></defs><path fill="currentColor" d="M13.135 4.659h-.85V2.422H5.819v2.237h-.85v-2.28a.846.846 0 0 1 .876-.81h6.414a.846.846 0 0 1 .876.81z" mask="url(#a)"/></svg>