<svg height="18" viewBox="0 0 18 18" width="18" xmlns="http://www.w3.org/2000/svg" xmlns:xlink="http://www.w3.org/1999/xlink"><linearGradient id="a" gradientUnits="userSpaceOnUse" x1="9" x2="9" y1="16.431" y2="4.559"><stop offset="0" stop-color="#0078d4"/><stop offset=".156" stop-color="#1380da"/><stop offset=".528" stop-color="#3c91e5"/><stop offset=".822" stop-color="#559cec"/><stop offset="1" stop-color="#5ea0ef"/></linearGradient><path d="m13.135 4.659h-.85v-2.237h-6.466v2.237h-.85v-2.28a.846.846 0 0 1 .876-.81h6.414a.846.846 0 0 1 .876.81z" fill="#a3a3a3"/><rect fill="url(#a)" height="11.872" rx=".567" width="17" x=".5" y="4.559"/><path d="m.5 7.594h17v1.311h-17z" fill="#9cebff"/><path d="m6.617 8.905h4.883v1.531a.28.28 0 0 1 -.281.281h-4.319a.28.28 0 0 1 -.281-.281v-1.531z" fill="#005ba1"/><path d="m.5 10.894v2.995l4.644 1.489.871-2.716z" fill="#83b9f9"/><path d="m17.5 10.745a2.718 2.718 0 1 0 0 4.837z" fill="#5ea0ef"/></svg>