<svg height="64" viewBox="0 0 64 64" width="64" xmlns="http://www.w3.org/2000/svg"><g fill="none" fill-rule="evenodd"><path d="m0 0h64v64h-64z" fill="#ed7100"/><path d="m38.992 38.005a2 2 0 0 0 -1.998-1.999 2 2 0 0 0 0 3.998 2 2 0 0 0 1.998-1.999m-7.99-8.996a2 2 0 0 0 0-3.998 2 2 0 0 0 0 3.998m-6.992 8.996a2 2 0 0 0 0-3.998 2 2 0 0 0 0 3.998m16.98 0c0 1.858-1.278 3.41-2.997 3.857v4.14c0 .552-.447 1-.999 1h-4.994v3.998h-1.998v-7.997h-5.992a1 1 0 0 1 -1-1v-2.14c-1.718-.447-2.996-2-2.996-3.857a4 4 0 0 1 3.996-3.998 4 4 0 0 1 3.995 3.998c0 1.857-1.278 3.41-2.997 3.857v1.141h4.994v-10.138c-1.719-.447-2.996-1.999-2.996-3.856a4 4 0 0 1 3.994-4 4 4 0 0 1 3.995 3.999c0 1.857-1.277 3.41-2.996 3.856v14.136h3.995v-3.14c-1.719-.447-2.996-2-2.996-3.857a4 4 0 0 1 3.995-3.998 4 4 0 0 1 3.995 3.998m12.012-5.006c0 5.903-4.39 8.006-8.499 8.006v-2c1.955 0 6.501-.584 6.501-6.006 0-3.255-1.916-5.29-5.698-6.051a.996.996 0 0 1 -.799-.92c-.187-3.142-1.992-4.256-3.48-4.256-1.002 0-1.942.48-2.58 1.316a.997.997 0 0 1 -1.73-.262c-.604-1.636-1.467-3.005-2.568-4.07-1.357-1.318-5.08-4.146-10.335-1.988-3.024 1.231-5.39 4.792-5.39 8.108 0 .365.023.733.068 1.094a1 1 0 0 1 -.751 1.094c-1.77.439-4.741 1.786-4.741 5.877q.002.223.013.423c.178 3.173 2.973 5.642 6.363 5.642h.64v2h-.64c-4.45 0-8.12-3.299-8.356-7.508a10 10 0 0 1 -.018-.557c0-4.938 3.336-6.857 5.436-7.576a12 12 0 0 1 -.011-.49c0-4.137 2.851-8.418 6.632-9.958 4.4-1.806 9.069-.909 12.48 2.402.99.957 1.814 2.11 2.463 3.437a5.14 5.14 0 0 1 3.025-.983c2.387 0 4.894 1.671 5.4 5.38 4.248 1.087 6.575 3.85 6.575 7.847" fill="#fff"/></g></svg>