<svg height="48" viewBox="0 0 48 48" width="48" xmlns="http://www.w3.org/2000/svg"><path d="m30.18 12.6a5.115 5.115 0 0 1 5.11-5.109 5.115 5.115 0 0 1 5.109 5.108 5.115 5.115 0 0 1 -5.11 5.11 5.115 5.115 0 0 1 -5.108-5.11m-2 0a7.117 7.117 0 0 0 7.11 7.108 7.117 7.117 0 0 0 7.109-7.109c0-3.92-3.19-7.108-7.11-7.108s-7.108 3.19-7.108 7.11m-24.182 31.29h17.2v-17.2h-17.2zm-2 2h21.2v-21.2h-21.2zm24.69-2h17.2v-17.2h-17.2zm-2 2h21.2v-21.2h-21.2zm-20.69-24.693h17.199v-17.197h-17.2zm-2 2.003h21.199v-21.2h-21.2zm24.69-2h17.2v-17.2h-17.2zm-2 2h21.2v-21.2h-21.2z" fill="#c925d1" fill-rule="evenodd"/></svg>