<svg viewBox="0 0 24 24" xmlns="http://www.w3.org/2000/svg"><path d="m21.246 4.86-7.719-4.449a3.074 3.074 0 0 0 -3.071 0l-2.34 1.344v6.209l3.104-1.793a1.515 1.515 0 0 1 1.544 0l3.884 2.241c.482.282.764.78.764 1.328v4.482a1.54 1.54 0 0 1 -.764 1.328l-3.884 2.241v6.209l8.482-4.897a3.082 3.082 0 0 0 1.544-2.656v-8.915a3.054 3.054 0 0 0 -1.544-2.672zm-14.658 9.362v-11.57l-3.834 2.224a3.082 3.082 0 0 0 -1.544 2.656v8.915c0 1.095.581 2.108 1.544 2.656l8.482 4.897v-6.209l-3.884-2.241a1.525 1.525 0 0 1 -.764-1.328z"/></svg>