<svg xmlns="http://www.w3.org/2000/svg" width="500" height="500" viewBox="0 0 375 375"><path fill="#fff" fill-rule="evenodd" d="M53.102 187.5c36.074-36.074 72.148-72.148 108.296-108.3V26.101L0 187.5l161.398 161.398v-53.097C125.324 259.727 89.176 223.574 53.102 187.5m215.699 0-26.551-26.55c-18.227 18.226-36.45 36.448-54.75 54.75l-28.2-28.2c27.075-27.074 54.223-54.227 81.302-81.3 27.074 27.073 54.222 54.152 81.296 81.3-35.921 35.926-71.921 71.926-107.847 107.852L187.5 268.8zM187.5 268.8V375L375 187.5 187.5 0v106.2c-27.074 27.073-54.227 54.152-81.3 81.3 27.527 27.523 54.152 54.074 81.3 81.3m0 0"/><path fill-rule="evenodd" d="M53.102 187.5c36.074-36.074 72.148-72.148 108.296-108.3V26.101L0 187.5l161.398 161.398v-53.097C125.324 259.727 89.176 223.574 53.102 187.5m215.699 0-26.551-26.55c-18.227 18.226-36.45 36.448-54.75 54.75l-28.2-28.2c27.075-27.074 54.223-54.227 81.302-81.3 27.074 27.073 54.222 54.152 81.296 81.3-35.921 35.926-71.921 71.926-107.847 107.852L187.5 268.8zM187.5 268.8V375L375 187.5 187.5 0v106.2c-27.074 27.073-54.227 54.152-81.3 81.3 27.527 27.523 54.152 54.074 81.3 81.3m0 0"/></svg>