<svg height="18" viewBox="0 0 18 18" width="18" xmlns="http://www.w3.org/2000/svg" xmlns:xlink="http://www.w3.org/1999/xlink"><linearGradient id="a" gradientUnits="userSpaceOnUse" x1="9.03" x2="9.03" y1="13.38" y2="4.63"><stop offset="0" stop-color="#198ab3"/><stop offset=".4" stop-color="#25aed3"/><stop offset=".78" stop-color="#2fcaec"/><stop offset="1" stop-color="#32d4f5"/></linearGradient><rect fill="url(#a)" height="8.75" rx=".41" width="8.75" x="4.65" y="4.63"/><path d="m11.78 12.18 4.38-3.07a.13.13 0 0 0 0-.22l-4.38-3.06a.13.13 0 0 0 -.21.11v1.76h-6.92v2.6h6.92v1.77a.14.14 0 0 0 .21.11" fill="#c3f1ff"/><path d="m17 17.6h-16a.52.52 0 0 1 -.52-.52v-16.16a.52.52 0 0 1 .52-.52h16a.52.52 0 0 1 .52.52v5.08a.26.26 0 0 1 -.41.22l-1-.7a.27.27 0 0 1 -.11-.22v-3.3h-13.94v14h13.88v-3.2a.26.26 0 0 1 .11-.21l1-.73a.26.26 0 0 1 .41.22v5a.52.52 0 0 1 -.46.52" fill="#949494"/><path d="m15.94 2v3.25a.27.27 0 0 0 .11.22l1 .7a.26.26 0 0 0 .45-.17v-4zm0 14v-3.25a.25.25 0 0 1 .11-.21l1-.71a.27.27 0 0 1 .41.22v4z" fill="#767676"/></svg>