<svg xmlns="http://www.w3.org/2000/svg" viewBox="0 0 38.3 36.7"><path fill="currentColor" d="m.8 3.2 5.3-3 5.2 3-5.4 3zm6.4 3.7 5.3-3.1 5.3 3.1-5.4 2.9z"/><path fill="currentColor" d="M20.7 6.8 26 3.7l5.2 3.1-5.4 3zm6.6-3.7L32.6 0l5.2 3.1L32.4 6z"/><path fill="currentColor" d="M0 4.2v6.6l5.3 3V7.3zm6.6 3.7v6.6l5.4 2.9V11zm6.5 3.5V18l5.3 2.9v-6.4z"/><path fill="currentColor" d="M38.3 4.3v6.6l-5.4 3V7.4zM31.6 8v6.6l-5.3 2.9v-6.4zm-6.5 3.5v6.6L19.8 21v-6.4z"/><path fill="currentColor" d="M0 12.1v6.6l5.3 2.9v-6.4zm6.6 3.6v6.6l5.4 3v-6.4zm6.5 3.5v6.6l5.3 2.9v-6.4z"/><path fill="currentColor" d="M38.3 12.2v6.6l-5.4 2.9v-6.4zm-6.7 3.7v6.6l-5.3 2.9V19zm-6.5 3.4v6.6l-5.3 2.9v-6.4z"/><path fill="currentColor" d="M0 19.9v6.6l5.3 3V23zm6.6 3.7v6.6l5.4 2.9v-6.4zm6.5 3.5v6.6l5.3 2.9v-6.4z"/><path fill="currentColor" d="M38.3 20v6.6l-5.4 3v-6.4zm-6.7 3.7v6.6l-5.3 2.9v-6.4zm-6.5 3.5v6.6l-5.3 2.9v-6.4z"/><path fill="currentColor" d="m19.2 7.4-5.3 3.1 5.2 2.9z"/><path fill="currentColor" d="m19.2 7.4-.1 6 5.3-2.9z"/></svg>