<svg xmlns="http://www.w3.org/2000/svg" viewBox="0 0 38.3 36.7"><path fill="#828282" d="m.8 3.2 5.3-3 5.2 3-5.4 3zM7.2 6.9l5.3-3.1 5.3 3.1-5.4 2.9z"/><path fill="#c6c6c6" d="M20.7 6.8 26 3.7l5.2 3.1-5.4 3zM27.3 3.1 32.6 0l5.2 3.1L32.4 6z"/><g fill="#00afd1"><path d="M0 4.2v6.6l5.3 3V7.3zM6.6 7.9v6.6l5.4 2.9V11zM13.1 11.4V18l5.3 2.9v-6.4z"/></g><path fill="#4ae1ff" d="M38.3 4.3v6.6l-5.4 3V7.4zM31.6 8v6.6l-5.3 2.9v-6.4zM25.1 11.5v6.6L19.8 21v-6.4z"/><path fill="#00afd1" d="M0 12.1v6.6l5.3 2.9v-6.4zM6.6 15.7v6.6l5.4 3v-6.4zM13.1 19.2v6.6l5.3 2.9v-6.4z"/><path fill="#4ae1ff" d="M38.3 12.2v6.6l-5.4 2.9v-6.4zM31.6 15.9v6.6l-5.3 2.9V19zM25.1 19.3v6.6l-5.3 2.9v-6.4z"/><path fill="#00afd1" d="M0 19.9v6.6l5.3 3V23zM6.6 23.6v6.6l5.4 2.9v-6.4zM13.1 27.1v6.6l5.3 2.9v-6.4z"/><path fill="#4ae1ff" d="M38.3 20v6.6l-5.4 3v-6.4zM31.6 23.7v6.6l-5.3 2.9v-6.4zM25.1 27.2v6.6l-5.3 2.9v-6.4z"/><path fill="#828282" d="m19.2 7.4-5.3 3.1 5.2 2.9z"/><path fill="#c6c6c6" d="m19.2 7.4-.1 6 5.3-2.9z"/></svg>