<svg viewBox="0 0 38.3 36.7" xmlns="http://www.w3.org/2000/svg"><path d="m.8 3.2 5.3-3 5.2 3-5.4 3z" fill="#828282"/><path d="m7.2 6.9 5.3-3.1 5.3 3.1-5.4 2.9z" fill="#828282"/><path d="m20.7 6.8 5.3-3.1 5.2 3.1-5.4 3z" fill="#c6c6c6"/><path d="m27.3 3.1 5.3-3.1 5.2 3.1-5.4 2.9z" fill="#c6c6c6"/><g fill="#00afd1"><path d="m0 4.2v6.6l5.3 3v-6.5z"/><path d="m6.6 7.9v6.6l5.4 2.9v-6.4z"/><path d="m13.1 11.4v6.6l5.3 2.9v-6.4z"/></g><path d="m38.3 4.3v6.6l-5.4 3v-6.5z" fill="#4ae1ff"/><path d="m31.6 8v6.6l-5.3 2.9v-6.4z" fill="#4ae1ff"/><path d="m25.1 11.5v6.6l-5.3 2.9v-6.4z" fill="#4ae1ff"/><path d="m0 12.1v6.6l5.3 2.9v-6.4z" fill="#00afd1"/><path d="m6.6 15.7v6.6l5.4 3v-6.4z" fill="#00afd1"/><path d="m13.1 19.2v6.6l5.3 2.9v-6.4z" fill="#00afd1"/><path d="m38.3 12.2v6.6l-5.4 2.9v-6.4z" fill="#4ae1ff"/><path d="m31.6 15.9v6.6l-5.3 2.9v-6.4z" fill="#4ae1ff"/><path d="m25.1 19.3v6.6l-5.3 2.9v-6.4z" fill="#4ae1ff"/><path d="m0 19.9v6.6l5.3 3v-6.5z" fill="#00afd1"/><path d="m6.6 23.6v6.6l5.4 2.9v-6.4z" fill="#00afd1"/><path d="m13.1 27.1v6.6l5.3 2.9v-6.4z" fill="#00afd1"/><path d="m38.3 20v6.6l-5.4 3v-6.4z" fill="#4ae1ff"/><path d="m31.6 23.7v6.6l-5.3 2.9v-6.4z" fill="#4ae1ff"/><path d="m25.1 27.2v6.6l-5.3 2.9v-6.4z" fill="#4ae1ff"/><path d="m19.2 7.4-5.3 3.1 5.2 2.9z" fill="#828282"/><path d="m19.2 7.4-.1 6 5.3-2.9z" fill="#c6c6c6"/></svg>