<svg xmlns="http://www.w3.org/2000/svg" viewBox="0 0 128 128">
  <defs>
    <mask id="wko">
      <rect width="128" height="128" fill="white"/>
      <path fill="black" d="m67.501 96.99.059 20.355 42.73-26.534-.06-20.43L67.5 96.989"/>
    </mask>
  </defs>
  <g fill="currentColor" mask="url(#wko)">
    <path fill="currentColor" d="m60.493 68.22 1.61 1a3.6 3.6 0 0 0 1.892.539c.658 0 1.315-.18 1.894-.542l1.614-1.005 16.37 10.139-21.857 13.61a3.58 3.58 0 0 0-1.69 3.051l.065 22.308L20.904 92.8ZM17.565 41.564 53.697 64 17.565 86.436Zm99.814 22.365a3.583 3.583 0 0 0-5.48-3.032L90.662 74.12l-16.37-10.136 41.483-25.83a3.59 3.59 0 0 0 1.69-3.048 3.59 3.59 0 0 0-1.697-3.042L65.882 1.175a3.58 3.58 0 0 0-3.778.003L12.218 32.154a3.58 3.58 0 0 0-1.693 3.045V92.8a3.59 3.59 0 0 0 1.693 3.046l49.886 30.976q.037.018.075.039l.077.05c.058.031.117.054.175.082q.088.047.177.083.14.06.283.102.083.031.168.056c.107.03.215.05.324.068.047.006.093.02.14.026q.235.033.471.034h.001c.326 0 .653-.045.97-.137h.004a3 3 0 0 0 .36-.13c.036-.013.074-.023.11-.038.098-.043.192-.098.288-.152.052-.03.106-.053.158-.083l.002-.002.002-.002.095-.06 49.787-30.912a3.59 3.59 0 0 0 1.693-3.057z"/>
  </g>
  <path fill="currentColor" d="m20.904 35.199 43.09 26.755 43.091-26.833L63.998 8.44z"/>
</svg>