<svg height="64" viewBox="0 0 64 64" width="64" xmlns="http://www.w3.org/2000/svg"><g fill="none" fill-rule="evenodd"><path d="m0 0h64v64h-64z" fill="#8c4fff"/><path d="m33 39.001h1v-1h-1zm3-2v3a1 1 0 0 1 -1 1h-3a1 1 0 0 1 -1-1v-3a1 1 0 0 1 1-1h3a1 1 0 0 1 1 1m-5-3h3v-2h-3zm6-3h1v-1h-1zm4 3.5a7.44 7.44 0 0 0 -1-3.726v1.226a1 1 0 0 1 -1 1h-3a1 1 0 0 1 -1-1v-3a1 1 0 0 1 1-1h1.226a7.446 7.446 0 0 0 -7.451 0h4.225v2h-6.486a7.5 7.5 0 0 0 -1.076 2h3.562v2h-3.974c-.011.166-.026.331-.026.5q.002.772.152 1.5h2.848v2h-2.128c.187.352.404.684.642 1h1.486v1.486a7.45 7.45 0 0 0 4.5 1.514 7.45 7.45 0 0 0 3.726-1h-.226v-2h2.487c.238-.316.455-.648.641-1h-3.128v-2h3.849a7.5 7.5 0 0 0 .151-1.5m2 0c0 5.238-4.261 9.5-9.5 9.5s-9.5-4.262-9.5-9.5 4.262-9.5 9.5-9.5 9.5 4.262 9.5 9.5m-16.354-8.9c-17.951 1.561-21.646 6.087-21.646 12.399h2c0-4.2 1.412-8.421 17.467-10.175a11.3 11.3 0 0 1 2.179-2.224m-16.646 18.275v.124h2v-.124c-.001-4.285.006-8.707 10.402-11.134q.18-1.13.571-2.173c-12.967 2.715-12.974 8.577-12.973 13.307m-8-30.876h-2c0 3.614 2.747 7.285 19.012 9-16.265 1.715-19.012 5.386-19.012 9h2c0-5.383 13.412-8 41-8v-2c-27.588 0-41-2.617-41-8m5-7h-2c0 8.233 6.218 13 38 13v-2c-33.22 0-36-5.434-36-11m36 7v2c-14.449 0-23.791-1.557-28.559-4.759-4.443-2.984-4.442-6.939-4.441-10.117v-.124h2v.124c-.001 3.12-.001 6.067 3.556 8.456 4.429 2.974 13.405 4.42 27.444 4.42" fill="#fff" transform="translate(11 10)"/></g></svg>