<svg height="18" viewBox="0 0 18 18" width="18" xmlns="http://www.w3.org/2000/svg" xmlns:xlink="http://www.w3.org/1999/xlink"><linearGradient id="a" gradientTransform="matrix(1 0 0 -1 0 -3108)" gradientUnits="userSpaceOnUse" x1="8.999" x2="8.999" y1="-3108.081" y2="-3125.919"><stop offset="0" stop-color="#b3b2b3"/><stop offset=".216" stop-color="#afaeaf"/><stop offset=".44" stop-color="#a2a2a2"/><stop offset=".577" stop-color="#979797"/></linearGradient><path d="m.407 6.621a8.914 8.914 0 0 1 17.183 0h-1.7a7.293 7.293 0 0 0 -13.789 0zm15.451 4.863a7.295 7.295 0 0 1 -13.718 0h-1.703a8.914 8.914 0 0 0 17.123 0z" fill="url(#a)"/><path d="m9.64 13.141-2.14-4.811-.9 1.555h-5.507a.811.811 0 0 1 0-1.622h4.573l2.025-3.5 2.332 5.246 1.377-1.763 5.51.012a.811.811 0 0 1 0 1.622l-4.716-.011z" fill="#50e6ff"/></svg>