<svg height="18" viewBox="0 0 18 18" width="18" xmlns="http://www.w3.org/2000/svg" xmlns:xlink="http://www.w3.org/1999/xlink"><linearGradient id="a" gradientTransform="matrix(1 0 0 -1 0 791.516)" gradientUnits="userSpaceOnUse" x1="9" x2="9" y1="790.787" y2="774.125"><stop offset="0" stop-color="#6cc6b9"/><stop offset=".46" stop-color="#6ac4b7"/><stop offset=".64" stop-color="#62bdb0"/><stop offset=".77" stop-color="#56b1a4"/><stop offset="1" stop-color="#258277"/></linearGradient><path d="m.549 2.636h16.912a.52.52 0 0 1 .539.489v11.75a.52.52 0 0 1 -.539.489h-16.912a.53.53 0 0 1 -.549-.489v-11.73a.53.53 0 0 1 .548-.509z" fill="url(#a)"/><g fill="#fff"><rect height="9.349" opacity=".9" rx=".147" width="1.532" x="12.459" y="4.206"/><rect height="1.937" opacity=".6" rx=".159" width="8.572" x="1.628" y="11.629"/><rect height="5.524" opacity=".9" rx=".113" width="1.532" x="14.808" y="8.031"/><path d="m9.117 4.772-2.13 3.79-2.253-2.295-2.322 3.011.544.427 1.842-2.376 2.338 2.386 2.584-4.596z"/><ellipse cx="4.761" cy="6.795" rx=".876" ry=".881"/><ellipse cx="7.136" cy="8.979" rx=".876" ry=".881"/><ellipse cx="9.341" cy="5.055" rx=".876" ry=".881"/><ellipse cx="2.775" cy="9.363" rx=".876" ry=".881"/></g>​</svg>