<svg xmlns="http://www.w3.org/2000/svg" fill="none" viewBox="0 0 105 105"><defs><mask id="a"><path fill="#fff" d="M0 0h105v105H0z"/><path fill="#000" d="M53 71.75H30.5v3.75H53zm-2.856-21.73 2.935-3.513c2.03 1.675 4.16 2.74 6.735 2.74 2.034 0 3.258-.806 3.258-2.13v-.064c0-1.256-.774-1.902-4.546-2.867-4.547-1.16-7.482-2.421-7.483-6.899v-.069c0-4.09 3.29-6.803 7.9-6.803a13.06 13.06 0 0 1 8.383 2.872l-2.58 3.74c-1.998-1.388-3.964-2.225-5.866-2.225s-2.904.87-2.904 1.966v.064c0 1.483.97 1.97 4.87 2.967 4.578 1.192 7.159 2.84 7.159 6.772v.063c0 4.483-3.417 6.995-8.286 6.995a14.37 14.37 0 0 1-9.575-3.609M30.568 30.758h9.181c5.36 0 8.603 3.178 8.603 7.768v.064c0 5.2-4.045 7.897-9.085 7.897h-3.756v6.74h-4.943zm8.86 11.33c2.472 0 3.916-1.475 3.916-3.402v-.064c0-2.215-1.54-3.402-4.013-3.402h-3.82v6.869z"/></mask></defs><g fill="currentColor" mask="url(#a)"><path d="m57.993 21.877-3.202-9.678-14.86 7.183-19.67 1.735 2.7 33.75L50.858 50.2z"/><path d="M31.48 30.491 5 23.532l9.152 54.958 49.308-.48z"/><path d="m67.896 53.903-11.38-19.478L68.86 23.239l19.647-8.04L101 46.245l-17.992 17.87z"/><path d="m83.017 45.832-6.25-12.757-49.008 9.846 5.034 46.795L65.147 101 101 79.54z"/><path d="M57.674 48.118 27.76 42.92 64.274 10.7l24.233 4.5-15.019 14.983 3.472 3.086z"/><path d="M54.791 12.2 21.376 5 5 23.533l26.527 7.052z"/><path d="M83 23H23v60h60z"/></g></svg>