<svg fill="none" viewBox="0 0 105 105" xmlns="http://www.w3.org/2000/svg" xmlns:xlink="http://www.w3.org/1999/xlink"><linearGradient id="a"><stop offset="0" stop-color="#af1df5"/><stop offset=".212" stop-color="#bc20e4"/><stop offset=".628" stop-color="#dd29b8"/><stop offset="1" stop-color="#ff318c"/></linearGradient><linearGradient id="b" gradientUnits="userSpaceOnUse" x1="22.7" x2="49.807" xlink:href="#a" y1="60.354" y2="8.295"/><linearGradient id="c" gradientUnits="userSpaceOnUse" x1="14.919" x2="47.777" y1="76.279" y2="32.877"><stop offset=".016" stop-color="#6b57ff"/><stop offset=".424" stop-color="#b74af7"/><stop offset=".746" stop-color="#ff318c"/></linearGradient><linearGradient id="d" gradientUnits="userSpaceOnUse" x1="89.261" x2="71.054" y1="64.564" y2="21.351"><stop offset="0" stop-color="#293896"/><stop offset=".075" stop-color="#3b3aa2"/><stop offset=".287" stop-color="#6740c0"/><stop offset=".491" stop-color="#8a44d8"/><stop offset=".683" stop-color="#a347e9"/><stop offset=".858" stop-color="#b249f3"/><stop offset="1" stop-color="#b74af7"/></linearGradient><linearGradient id="e" gradientUnits="userSpaceOnUse" x1="74.34" x2="44.071" y1="90.066" y2="45.698"><stop offset=".016" stop-color="#6b57ff"/><stop offset=".783" stop-color="#b74af7"/></linearGradient><linearGradient id="f" gradientUnits="userSpaceOnUse" x1="65.166" x2="55.137" y1="66.25" y2="13.215"><stop offset=".016" stop-color="#6b57ff"/><stop offset=".637" stop-color="#b74af7"/></linearGradient><linearGradient id="g" gradientUnits="userSpaceOnUse" x1="15.922" x2="31.544" xlink:href="#a" y1="43.224" y2="14.874"/><path d="m57.993 21.877-3.202-9.678-14.86 7.183-19.67 1.735 2.7 33.75 27.897-4.667z" fill="url(#b)"/><path d="m31.48 30.491-26.48-6.959 9.152 54.958 49.308-.48z" fill="url(#c)"/><path d="m67.896 53.903-11.38-19.478 12.344-11.186 19.647-8.04 12.493 31.046-17.992 17.87z" fill="url(#d)"/><path d="m83.017 45.832-6.25-12.757-49.008 9.846 5.034 46.795 32.354 11.284 35.853-21.46z" fill="url(#e)"/><path d="m57.674 48.118-29.914-5.198 36.514-32.22 24.233 4.5-15.019 14.983 3.472 3.086z" fill="url(#f)"/><path d="m54.791 12.2-33.415-7.2-16.376 18.533 26.527 7.052z" fill="url(#g)"/><path d="m83 23h-60v60h60z" fill="#000"/><path d="m53 71.75h-22.5v3.75h22.5zm-2.856-21.73 2.935-3.513c2.03 1.675 4.16 2.74 6.735 2.74 2.034 0 3.258-.806 3.258-2.13v-.064c0-1.256-.774-1.902-4.546-2.867-4.547-1.16-7.482-2.421-7.483-6.899v-.069c0-4.09 3.29-6.803 7.9-6.803a13.06 13.06 0 0 1 8.383 2.872l-2.58 3.74c-1.998-1.388-3.964-2.225-5.866-2.225s-2.904.87-2.904 1.966v.064c0 1.483.97 1.97 4.87 2.967 4.578 1.192 7.159 2.84 7.159 6.772v.063c0 4.483-3.417 6.995-8.286 6.995a14.37 14.37 0 0 1 -9.575-3.609m-19.576-19.262h9.181c5.36 0 8.603 3.178 8.603 7.768v.064c0 5.2-4.045 7.897-9.085 7.897h-3.756v6.74h-4.943zm8.86 11.33c2.472 0 3.916-1.475 3.916-3.402v-.064c0-2.215-1.54-3.402-4.013-3.402h-3.82v6.869z" fill="#fff"/></svg>