<svg viewBox="0 0 24 24" xmlns="http://www.w3.org/2000/svg"><path d="m1.89 9.262c-1.226 0-1.89.538-1.89 1.603v2.268c0 1.066.664 1.604 1.891 1.604h3.583v-2.353h-.293c-.13 1.365-.731 1.941-1.914 1.941h-.74c-.576 0-.856-.287-.856-.854v-2.944c0-.567.28-.854.856-.854h.74c1.2 0 1.791.544 1.914 1.867h.293v-2.278zm7.522 0v.275c1.274.127 1.856.668 1.856 2.102v1.716l-3.363-4.093h-1.676v5.475h2.321v-.275c-1.307-.143-1.886-.678-1.886-2.121v-1.963l3.582 4.359h1.457v-5.475zm3.06 0v5.475h5.475v-2.352h-.293c-.13 1.369-.731 1.947-1.914 1.947h-1.647v-2.233h.558c.933 0 1.328.415 1.421 1.316h.298v-3.009h-.298c-.094.896-.49 1.314-1.421 1.314h-.558v-2.053h1.646c1.201 0 1.791.545 1.915 1.873h.293v-2.278zm6.053 0v2.278h.294c.126-1.253.65-1.835 1.633-1.941v3.85c0 .669-.236.937-1.099.993v.295h3.82v-.295c-.864-.056-1.1-.324-1.1-.993v-3.85c.983.106 1.507.688 1.634 1.941h.293v-2.278z"/></svg>