<svg xmlns="http://www.w3.org/2000/svg" width="18" height="18" viewBox="0 0 18 18">
  <defs>
    <mask id="ko">
      <rect width="18" height="18" fill="white"/>
      <path fill="black" d="M1.15 14.79V3.21c0-.55.22-1.07.6-1.46.39-.39.91-.6 1.46-.6h11.57c.55 0 1.07.22 1.46.6.39.39.6.91.6 1.46v11.57c0 .55-.22 1.07-.6 1.46-.39.39-.91.6-1.46.6H3.21c-.55 0-1.07-.22-1.46-.6-.39-.39-.6-.91-.6-1.46z"/>
      <path fill="black" d="M14.79 18H3.21c-.86 0-1.67-.33-2.27-.94-.61-.61-.94-1.41-.94-2.27V3.21C0 2.35.33 1.54.94.94 1.55.33 2.35 0 3.21 0h11.57c.86 0 1.67.33 2.27.94.61.61.94 1.41.94 2.27v11.57c0 .86-.33 1.67-.94 2.27-.61.61-1.41.94-2.27.94zM3.21 1.15a2.05 2.05 0 0 0-2.06 2.06v11.57a2.05 2.05 0 0 0 2.06 2.06h11.57c.54 0 1.07-.22 1.46-.6.39-.39.6-.91.6-1.46V3.21a2.05 2.05 0 0 0-2.06-2.06z"/>
      <path fill="black" d="m9.69 9.38 2.43-1.4 2.43 1.4v2.81l-2.43 1.4-2.43-1.4v-2.8z"/>
      <path fill="black" d="m9.71 9.39 2.42 1.39v2.8l-2.43-1.4V9.39z"/>
      <path fill="black" d="m12.13 13.57 2.42-1.39v-2.8l-2.43 1.4v2.79z"/>
      <path fill="black" d="m6.6 3.98 2.43-1.4 2.43 1.4v2.81l-2.43 1.4-2.43-1.4v-2.8z"/>
      <path fill="black" d="m6.62 3.98 2.42 1.39v2.8l-2.43-1.4V3.98z"/>
      <path fill="black" d="m9.03 8.17 2.42-1.39v-2.8l-2.43 1.4v2.79z"/>
      <path fill="black" d="m9.69 5.71 2.43-1.4 2.43 1.4v2.81l-2.43 1.4-2.43-1.4v-2.8z"/>
      <path fill="black" d="m9.71 5.72 2.42 1.39v2.8L9.7 8.51V5.72z"/>
      <path fill="black" d="m12.13 9.9 2.42-1.39v-2.8l-2.43 1.4V9.9z"/>
      <path fill="black" d="m3.5 9.35 2.43-1.4 2.43 1.4v2.81l-2.43 1.4-2.43-1.4v-2.8z"/>
      <path fill="black" d="m3.52 9.36 2.42 1.39v2.8l-2.43-1.4V9.36z"/>
      <path fill="black" d="m5.94 13.54 2.42-1.39v-2.8l-2.43 1.4v2.79z"/>
      <path fill="black" d="m6.6 11.09 2.43-1.4 2.43 1.4v2.81l-2.43 1.4-2.43-1.4v-2.8z"/>
      <path fill="black" d="m6.6 11.1 2.42 1.39v2.8l-2.43-1.4V11.1z"/>
      <path fill="black" d="m9.04 15.28 2.42-1.39v-2.8l-2.43 1.4v2.79z"/>
      <path fill="black" d="m3.5 5.81 2.43-1.4 2.43 1.4v2.81l-2.43 1.4-2.43-1.4v-2.8z"/>
      <path fill="black" d="m3.52 5.82 2.42 1.39v2.8l-2.43-1.4V5.82z"/>
      <path fill="black" d="m5.94 10 2.42-1.39v-2.8l-2.43 1.4V10z"/>
      <path fill="black" d="m6.6 7.55 2.43-1.4 2.43 1.4v2.81l-2.43 1.4-2.43-1.4v-2.8z"/>
      <path fill="black" d="m6.62 7.56 2.42 1.39v2.8l-2.43-1.4V7.56z"/>
      <path fill="black" d="m9.04 11.74 2.42-1.39v-2.8l-2.43 1.4v2.79z"/>
    </mask>
  </defs>
  <g>
    <path fill="currentColor" mask="url(#ko)" d="M1.15 14.79V3.21c0-.55.22-1.07.6-1.46.39-.39.91-.6 1.46-.6h11.57c.55 0 1.07.22 1.46.6.39.39.6.91.6 1.46v11.57c0 .55-.22 1.07-.6 1.46-.39.39-.91.6-1.46.6H3.21c-.55 0-1.07-.22-1.46-.6-.39-.39-.6-.91-.6-1.46z"/>
  </g>
</svg>