<svg xmlns="http://www.w3.org/2000/svg" width="18" height="18" viewBox="0 0 18 18"><defs><mask id="a"><path fill="#fff" d="M0 0h18v18H0z"/><path d="m10.777 9.965.019.431.428.057a2.54 2.54 0 0 1 2.2 2.43 2.58 2.58 0 0 1-2.546 2.5h-.044l-.032.006-.035-.007h-6.6a3.2 3.2 0 0 1-1.238-.168 3.4 3.4 0 0 1-1.106-.643 3.3 3.3 0 0 1-.741-1.035 3.04 3.04 0 0 1 .559-3.21A3.15 3.15 0 0 1 3.6 9.36l.313-.037.109-.295a3.5 3.5 0 0 1 1.29-1.662 3.43 3.43 0 0 1 2-.6h.025a3.34 3.34 0 0 1 3.439 3.2z"/></mask></defs><g fill="currentColor" mask="url(#a)"><path d="M17.7 7.405a2.93 2.93 0 0 0-2.544-2.818 3.7 3.7 0 0 0-3.806-3.535 3.79 3.79 0 0 0-3.623 2.471A3.5 3.5 0 0 0 4.651 6.89a3.55 3.55 0 0 0 3.675 3.41 3 3 0 0 0 .324-.014h5.95a.6.6 0 0 0 .157-.024A2.966 2.966 0 0 0 17.7 7.405"/></g><path fill="currentColor" d="m10.791 15.9-.085-.019H4.167a3.7 3.7 0 0 1-1.4-.194 3.9 3.9 0 0 1-1.274-.741 3.8 3.8 0 0 1-.867-1.2 3.56 3.56 0 0 1 .644-3.755 3.65 3.65 0 0 1 2.279-1.128v-.008a3.96 3.96 0 0 1 1.475-1.9 3.8 3.8 0 0 1 2.293-.689 3.85 3.85 0 0 1 3.954 3.677l.014.014a3.03 3.03 0 0 1 2.635 2.909 3.08 3.08 0 0 1-3.04 3.017zM7.3 7.266A2.94 2.94 0 0 0 4.491 9.2l-.215.583-.617.072A2.65 2.65 0 0 0 2 10.67a2.55 2.55 0 0 0-.46 2.675 2.8 2.8 0 0 0 .623.863 2.8 2.8 0 0 0 .927.533 2.7 2.7 0 0 0 1.043.142h6.697a2.083 2.083 0 0 0 2.09-2.016 2.03 2.03 0 0 0-1.767-1.919l-.843-.111-.037-.852a2.84 2.84 0 0 0-2.92-2.719z"/></svg>