<svg xmlns="http://www.w3.org/2000/svg" width="18" height="18" viewBox="0 0 18 18"><defs><mask id="a"><path fill="#fff" d="M0 0h18v18H0z"/><path d="M.544 5.316h16.912v9.918a.565.565 0 0 1-.565.565H1.109a.565.565 0 0 1-.565-.565z"/><path d="M13.528 7.347H9.384a.23.23 0 0 1-.124-.037l-1.183-.787a.2.2 0 0 0-.123-.038H4.472a.22.22 0 0 0-.222.222v7.315a.22.22 0 0 0 .222.222h9.056a.22.22 0 0 0 .222-.222V7.569a.22.22 0 0 0-.222-.222"/><path d="M13.528 7.337H8.977a.22.22 0 0 0-.157.063l-.732.731a.22.22 0 0 1-.157.066H4.472a.22.22 0 0 0-.222.221v5.591a.22.22 0 0 0 .222.222h9.056a.22.22 0 0 0 .222-.222V7.558a.22.22 0 0 0-.222-.221"/><path d="M5.114 6.91h2.159v.432H5.114z"/><path d="M5.114 6.91h.432v.432h-.432z"/></mask></defs><path fill="currentColor" d="M1.112 2.2h15.776a.565.565 0 0 1 .565.565v2.55H.547V2.766a.565.565 0 0 1 .565-.566" mask="url(#a)"/></svg>