<svg height="18" viewBox="0 0 18 18" width="18" xmlns="http://www.w3.org/2000/svg" xmlns:xlink="http://www.w3.org/1999/xlink"><linearGradient id="a" gradientUnits="userSpaceOnUse" x1="9" x2="9" y1="15.799" y2="5.316"><stop offset="0" stop-color="#32bedd"/><stop offset=".775" stop-color="#32d4f5"/></linearGradient><path d="m.544 5.316h16.912v9.918a.565.565 0 0 1 -.565.565h-15.782a.565.565 0 0 1 -.565-.565z" fill="url(#a)"/><path d="m1.112 2.2h15.776a.565.565 0 0 1 .565.565v2.55h-16.906v-2.549a.565.565 0 0 1 .565-.566" fill="#0078d4"/><path d="m13.528 7.347h-4.144a.23.23 0 0 1 -.124-.037l-1.183-.787a.2.2 0 0 0 -.123-.038h-3.482a.22.22 0 0 0 -.222.222v7.315a.22.22 0 0 0 .222.222h9.056a.22.22 0 0 0 .222-.222v-6.453a.22.22 0 0 0 -.222-.222" fill="#f78d1e"/><rect fill="#fff" height=".432" rx=".091" width="2.159" x="5.114" y="6.91"/><rect fill="#d15900" height=".432" rx=".062" width=".432" x="5.114" y="6.91"/><path d="m13.528 7.337h-4.551a.22.22 0 0 0 -.157.063l-.732.731a.22.22 0 0 1 -.157.066h-3.459a.22.22 0 0 0 -.222.221v5.591a.22.22 0 0 0 .222.222h9.056a.22.22 0 0 0 .222-.222v-6.451a.22.22 0 0 0 -.222-.221" fill="#fff"/></svg>