<svg height="18" viewBox="0 0 18 18" width="18" xmlns="http://www.w3.org/2000/svg" xmlns:xlink="http://www.w3.org/1999/xlink"><linearGradient id="a"><stop offset="0" stop-color="#5ea0ef"/><stop offset=".2" stop-color="#83b9f9"/><stop offset=".5" stop-color="#83b9f9"/><stop offset=".75" stop-color="#83b9f9"/><stop offset=".9" stop-color="#6facf4"/><stop offset="1" stop-color="#5ea0ef"/></linearGradient><linearGradient id="b" gradientUnits="userSpaceOnUse" x1="5.368" x2="9.681" xlink:href="#a" y1="2.599" y2="7.232"/><linearGradient id="c" gradientUnits="userSpaceOnUse" x1="8.32" x2="12.637" xlink:href="#a" y1="6.332" y2="10.969"/><path d="m6.218 10.879a1.62 1.62 0 0 1 -.7-1.265v-.727a1.3 1.3 0 0 1 -.018-.249c0-.927.88-1.591 2.108-1.979h-.113c-2.42 0-4.381.806-4.381 1.8a.8.8 0 0 0 .023.187v.789c0 .767 1.205 1.419 2.846 1.677a2 2 0 0 1 .235-.233" fill="#0078d4"/><path d="m10.386 6.254c.919-.33 1.51-.809 1.51-1.349 0-.994-1.961-1.8-4.381-1.8s-4.382.805-4.382 1.8 1.937 1.787 4.335 1.795a9.5 9.5 0 0 1 2.918-.446" fill="url(#b)"/><ellipse cx="7.626" cy="4.882" fill="#005ba1" rx="1.455" ry=".397"/><path d="m10.467 6.253a11 11 0 0 1 1.29.085.85.85 0 0 0 .137-.407v-1.063c0 .564-.619 1.058-1.61 1.388zm-2.867.408h-.061c-2.442 0-4.4-.806-4.381-1.8v1.02c0 .764 1.194 1.413 2.824 1.674a3.94 3.94 0 0 1 1.618-.894" fill="#5ea0ef"/><path d="m14.828 12.187c0-.994-1.962-1.8-4.382-1.8s-4.381.806-4.381 1.8a.8.8 0 0 0 .023.186v.789c0 .993 2.01 1.8 4.382 1.8s4.3-.789 4.381-1.753l-.023-.748z" fill="#0078d4"/><ellipse cx="10.557" cy="12.163" fill="#005ba1" rx="1.455" ry=".397"/><ellipse cx="10.467" cy="8.638" fill="url(#c)" rx="4.382" ry="1.799"/><ellipse cx="10.578" cy="8.615" fill="#005ba1" rx="1.455" ry=".397"/><path d="m10.465 10.431c2.425 0 4.382-.806 4.382-1.8v1.069c-.082.964-2.01 1.753-4.382 1.753s-4.381-.807-4.381-1.8v-1.021c-.024.993 1.939 1.799 4.381 1.799" fill="#5ea0ef"/><path d="m0 15.587a.17.17 0 0 0 .086.15l1.221.708 2.075 1.2a.17.17 0 0 0 .232-.061l.7-1.215a.175.175 0 0 0 -.063-.236l-2.428-1.4a.17.17 0 0 1 -.086-.149v-11.162a.17.17 0 0 1 .086-.149l2.428-1.409a.175.175 0 0 0 .063-.235l-.698-1.215a.17.17 0 0 0 -.233-.065l-2.034 1.181-1.263.733a.17.17 0 0 0 -.086.149z" fill="#949494"/><path d="m4.314 1.629-.698-1.215a.17.17 0 0 0 -.174-.084.16.16 0 0 0 -.086.021l-2.032 1.179-1.263.733a.2.2 0 0 0 -.061.06l.02.012a.2.2 0 0 0 -.02.077l1.739 1.01a.17.17 0 0 1 .086-.149l2.426-1.409a.175.175 0 0 0 .063-.235m0 14.743-.7 1.215a.17.17 0 0 1 -.174.084.16.16 0 0 1 -.086-.021l-2.032-1.18-1.261-.732a.2.2 0 0 1 -.061-.061l.02-.011a.2.2 0 0 1 -.02-.078l1.739-1.009a.17.17 0 0 0 .086.149l2.426 1.408a.175.175 0 0 1 .063.236" fill="#a3a3a3"/><path d="m18 2.413a.17.17 0 0 0 -.086-.15l-1.221-.708-2.077-1.204a.17.17 0 0 0 -.232.061l-.7 1.215a.175.175 0 0 0 .063.236l2.426 1.408a.17.17 0 0 1 .086.149v11.158a.17.17 0 0 1 -.086.149l-2.426 1.409a.175.175 0 0 0 -.063.235l.7 1.215a.17.17 0 0 0 .233.065l2.033-1.18 1.263-.733a.17.17 0 0 0 .087-.15z" fill="#949494"/><path d="m13.684 16.371.7 1.215a.17.17 0 0 0 .174.084.16.16 0 0 0 .086-.021l2.032-1.179 1.263-.733a.2.2 0 0 0 .061-.06l-.02-.012a.2.2 0 0 0 .02-.077l-1.739-1.01a.17.17 0 0 1 -.086.149l-2.426 1.409a.174.174 0 0 0 -.065.235m-0-14.743.7-1.215a.17.17 0 0 1 .174-.084.16.16 0 0 1 .086.021l2.032 1.18 1.263.732a.2.2 0 0 1 .061.061l-.02.011a.2.2 0 0 1 .02.078l-1.741 1.009a.17.17 0 0 0 -.086-.149l-2.426-1.408a.175.175 0 0 1 -.063-.236" fill="#a3a3a3"/></svg>