<svg xmlns="http://www.w3.org/2000/svg" id="svg28" width="1674.45" height="414.354" viewBox="0 0 1255.838 310.766"><g id="g29" transform="scale(4)"><g id="b"><g id="c"><path id="polygon8" d="m297.137 16.318 8.695 9.577h8.128L302.24 13.45 313.96.693h-7.655l-9.168 10.238V.693h-6.426l.031 25.202h6.395z"/><path id="path9" d="m280.347 11.057-5.86-.661c-3.433-.378-4.284-1.229-4.284-2.395 0-1.291 1.764-2.457 5.198-2.457 3.308 0 5.04 1.229 5.355 3.088h6.3C286.743 3.307 282.269 0 275.749 0c-7.75 0-11.656 3.087-11.656 8.537 0 4.442 2.583 6.521 7.938 7.088l5.954.63c2.268.252 3.308 1.134 3.308 2.268 0 1.292-1.512 2.457-5.166 2.457-4.222 0-5.923-1.07-6.206-3.213h-6.175c.284 5.796 4.064 8.758 12.16 8.758 7.403 0 11.53-3.245 11.53-8.128 0-4.253-2.457-6.804-7.088-7.34"/><path id="polygon9" d="M247.05 10.396V6.143h13.86V.693h-20.287v25.202h20.287v-5.45h-13.86v-4.568h11.15v-5.481z"/><path id="path10" d="M225.502.693H213.72v25.202h11.782c9.04 0 11.53-3.37 11.53-12.79 0-8.852-2.395-12.412-11.53-12.412zm-.252 19.752h-5.104V6.143h5.104c4.032 0 5.229 1.103 5.229 6.962 0 5.355-1.355 7.34-5.23 7.34"/><path id="path11" d="M196.268 0c-9.168 0-13.924 5.639-13.924 13.23 0 7.624 4.756 13.295 13.924 13.295 9.198 0 13.955-5.67 13.955-13.294C210.223 5.639 205.466 0 196.268 0m0 20.854c-4.757 0-7.372-2.898-7.372-7.623 0-4.63 2.615-7.56 7.372-7.56 4.788 0 7.371 2.93 7.371 7.56 0 4.725-2.583 7.623-7.371 7.623"/><path id="polygon11" d="M158.654.693v5.45h8.128v19.752h6.426V6.143h8.096V.693Z"/><path id="path12" d="M149.298 16.255c0 3.276-2.016 4.6-5.45 4.6-3.34 0-5.513-1.387-5.513-4.6V.693h-6.426V16.98c0 7.277 6.49 9.545 11.939 9.545 5.418 0 11.876-2.268 11.876-9.545V.693h-6.426z"/><path id="path13" d="m113.102.693-9.671 25.202h6.647l1.688-4.725h10.796l1.66 4.725h6.868L121.293.693zm.577 15.121 3.53-9.88 3.471 9.88z"/></g></g><g id="d"><g id="g28" clip-path="#e"><g id="g22" clip-path="#f"><path id="path21" fill="#705a01" d="m13.63.726.02-.034 64.13 14.171h6.662v62.828H11.988a4.55 4.55 0 0 1-4.55-4.55v-6.156z" fill-opacity="1"/><path id="path22" fill="#dbae03" d="M78.229 63.69H13.63V.727l.02-.038h60.028a4.55 4.55 0 0 1 4.55 4.55z" fill-opacity="1"/><path id="polygon22" d="M0 8.913v63.003l13.65-8.225V.688Z" fill="#eacd5d" fill-opacity="1"/></g></g></g></g><path id="path16" fill="#fff" d="M200.474 81.768v93.763h18.793v26.312h-73.923v-26.312h18.586V81.768h-18.586V55.664h73.923v26.104z" stroke-width="4.18649"/><g id="g1" transform="translate(-1931.413 -436.176)scale(4.10389)"><path id="path1" d="M579.275 146.742v18.213h3.24v3.492H571.5v-3.492h3.24v-18.213h-3.24v-3.492h11.015v3.492z" stroke-width="1"/><path id="path2" d="M602.475 155.2v13.247h-4.463v-12.886c0-2.412-1.152-3.384-2.988-3.384a4.99 4.99 0 0 0-4.14 2.412v13.858h-4.462v-19.149h3.815l.288 1.98a6.96 6.96 0 0 1 5.688-2.484c3.563 0 6.262 2.268 6.262 6.406" stroke-width="1"/><path id="path3-8" d="M616.256 168.447h-5.506l-6.228-19.149h4.644l4.427 15.586 4.427-15.586h4.464z" stroke-width="1"/><path id="path4-8" d="M640.34 160.276h-12.347c.072 3.671 1.764 5.291 5.075 5.291a10 10 0 0 0 5.112-1.584l1.584 2.664a12.05 12.05 0 0 1-6.983 2.268c-5.832 0-9.143-3.852-9.143-9.035v-1.98c0-5.184 3.24-9.107 8.567-9.107 5.219 0 8.279 3.24 8.279 9.323a18 18 0 0 1-.145 2.16m-3.852-3.095c0-3.312-1.476-5.112-4.247-5.112-2.736 0-4.176 1.8-4.248 5.291h8.495z" stroke-width="1"/><path id="path5-2" d="M659.996 155.2v13.247h-4.464v-12.886c0-2.412-1.152-3.384-2.987-3.384a4.99 4.99 0 0 0-4.14 2.412v13.858h-4.463v-19.149h3.815l.288 1.98a6.96 6.96 0 0 1 5.688-2.484c3.563 0 6.263 2.268 6.263 6.406" stroke-width="1"/><path id="path6-4" d="M674.73 168.447a13 13 0 0 1-3.347.468c-3.671 0-5.795-1.62-5.795-5.22v-11.086h-2.916v-3.311h3.024l.36-4.716h3.995v4.716h4.14v3.312h-4.14v10.834c0 1.404.756 2.051 2.34 2.051a10 10 0 0 0 1.871-.18z" stroke-width="1"/><path id="path7-5" d="M694.241 157.864v1.944c0 5.364-3.167 9.107-9.07 9.107-5.868 0-8.963-3.743-8.963-9.107v-1.944c0-5.255 3.095-9.07 8.963-9.07 5.903 0 9.07 3.815 9.07 9.07m-13.57-.072v2.016c0 3.78 1.548 5.76 4.5 5.76 2.988 0 4.608-1.98 4.608-5.76v-2.016c0-3.67-1.62-5.615-4.608-5.615-2.952 0-4.5 1.944-4.5 5.615z" stroke-width="1"/><path id="path8-5" d="m709.286 149.226-.792 4.14a6 6 0 0 0-1.152-.109c-2.16 0-3.96.936-5.04 3.816v11.375h-4.463v-19.15h3.24l.72 3.024a5.53 5.53 0 0 1 5.183-3.457 7 7 0 0 1 2.304.36" stroke-width="1"/></g></svg>