<svg xmlns="http://www.w3.org/2000/svg" width="1674.45" height="414.354" viewBox="0 0 1255.838 310.766"><path d="m1188.548 65.272 34.78 38.308h32.512l-46.88-49.78 46.88-51.028h-30.62l-36.672 40.952V2.772h-25.704l.124 100.808h25.58zm-67.16-21.044-23.44-2.644c-13.732-1.512-17.136-4.916-17.136-9.58 0-5.164 7.056-9.828 20.792-9.828 13.232 0 20.16 4.916 21.42 12.352h25.2C1146.972 13.228 1129.076 0 1102.996 0c-31 0-46.624 12.348-46.624 34.148 0 17.768 10.332 26.084 31.752 28.352l23.816 2.52c9.072 1.008 13.232 4.536 13.232 9.072 0 5.168-6.048 9.828-20.664 9.828-16.888 0-23.692-4.28-24.824-12.852h-24.7c1.136 23.184 16.256 35.032 48.64 35.032 29.612 0 46.12-12.98 46.12-32.512 0-17.012-9.828-27.216-28.352-29.36M988.2 41.584V24.572h55.44v-21.8h-81.148V103.58h81.148v-21.8H988.2V63.508h44.6V41.584zM902.008 2.772H854.88V103.58h47.128c36.16 0 46.12-13.48 46.12-51.16 0-35.408-9.58-49.648-46.12-49.648M901 81.78h-20.416V24.572H901c16.128 0 20.916 4.412 20.916 27.848 0 21.42-5.42 29.36-20.92 29.36M785.072 0c-36.672 0-55.696 22.556-55.696 52.92 0 30.496 19.024 53.18 55.696 53.18 36.792 0 55.82-22.68 55.82-53.176C840.892 22.556 821.864 0 785.072 0m0 83.416c-19.028 0-29.488-11.592-29.488-30.492 0-18.52 10.46-30.24 29.488-30.24 19.152 0 29.484 11.72 29.484 30.24 0 18.9-10.332 30.492-29.484 30.492M634.616 2.772v21.8h32.512v79.008h25.704V24.572h32.384v-21.8ZM597.192 65.02c0 13.104-8.064 18.4-21.8 18.4-13.36 0-22.052-5.548-22.052-18.4V2.772h-25.704V67.92c0 29.108 25.96 38.18 47.756 38.18 21.672 0 47.504-9.072 47.504-38.18V2.772h-25.704zM452.408 2.772 413.724 103.58h26.588l6.752-18.9h43.184l6.64 18.9h27.472L485.172 2.772zm2.308 60.484 14.12-39.52 13.884 39.52z"/><g clip-path="#e"><g clip-path="#f"><path fill="#705a01" d="m54.52 2.904.08-.136 256.52 56.684h26.648v251.312H47.952a18.2 18.2 0 0 1-18.2-18.2V267.94z"/><path fill="#dbae03" d="M312.916 254.76H54.52V2.908l.08-.152h240.112a18.2 18.2 0 0 1 18.2 18.2z"/><path fill="#eacd5d" d="M0 35.652v252.012l54.6-32.9V2.752Z"/></g></g><path fill="#fff" d="M200.474 81.768v93.763h18.793v26.312h-73.923v-26.312h18.586V81.768h-18.586V55.664h73.923v26.104z"/><path d="M445.868 166.037v74.744h13.296v14.331H413.96v-14.33h13.297v-74.745H413.96v-14.33h45.204v14.33zm95.21 34.711v54.364h-18.316v-52.883c0-9.898-4.727-13.887-12.262-13.887a20.48 20.48 0 0 0-16.99 9.898v56.872h-18.312v-78.585h15.657l1.182 8.125a28.56 28.56 0 0 1 23.343-10.194c14.622 0 25.698 9.308 25.698 26.29m56.556 54.364h-22.596l-25.56-78.585h19.06l18.167 63.963 18.168-63.963h18.32zm98.838-33.532h-50.67c.295 15.064 7.238 21.713 20.826 21.713a41.04 41.04 0 0 0 20.98-6.5l6.5 10.932a49.45 49.45 0 0 1-28.657 9.308c-23.934 0-37.522-15.809-37.522-37.08v-8.125c0-21.274 13.296-37.374 35.158-37.374 21.418 0 33.976 13.297 33.976 38.26a74 74 0 0 1-.595 8.865m-15.808-12.701c0-13.593-6.058-20.98-17.43-20.98-11.228 0-17.137 7.387-17.433 21.714h34.863zm96.478-8.13v54.364h-18.32v-52.883c0-9.898-4.727-13.887-12.258-13.887a20.48 20.48 0 0 0-16.99 9.898v56.872h-18.316v-78.585h15.656l1.182 8.125a28.56 28.56 0 0 1 23.343-10.194c14.622 0 25.703 9.308 25.703 26.29m60.467 54.364a53.4 53.4 0 0 1-13.736 1.92c-15.065 0-23.782-6.648-23.782-21.422v-45.495H788.12v-13.588h12.41l1.478-19.354h16.395v19.354h16.99v13.592h-16.99v44.461c0 5.762 3.102 8.417 9.603 8.417a41 41 0 0 0 7.678-.738zm80.071-43.432v7.978c0 22.014-12.997 37.375-37.223 37.375-24.081 0-36.783-15.361-36.783-37.375v-7.978c0-21.565 12.702-37.222 36.783-37.222 24.226 0 37.223 15.657 37.223 37.222m-55.69-.295v8.273c0 15.513 6.353 23.639 18.467 23.639 12.263 0 18.911-8.126 18.911-23.639v-8.273c0-15.061-6.648-23.043-18.91-23.043-12.115 0-18.468 7.978-18.468 23.043m117.433-35.154-3.25 16.99a24.6 24.6 0 0 0-4.728-.447c-8.865 0-16.252 3.841-20.684 15.66v46.682h-18.316v-78.59h13.297l2.955 12.41a22.695 22.695 0 0 1 21.27-14.186 28.7 28.7 0 0 1 9.456 1.477"/></svg>