<svg height="217.4" viewBox="0 0 335.72 217.4" width="335.72" xmlns="http://www.w3.org/2000/svg"><path d="m1230.16 511.25c5.03 313.84 226.57 643.67 339.01 643.67 33.23 0 40.28-21.59 40.28-44.52 0-107.42-159.44-394.392-379.29-599.15m1114.71 1119.3c-104.69.58-205.72-62.79-271.15-157.9 309.09-202.13-69.62-1208.49-628.16-1208.49-66.94 0-123.74 19.481-161.74 59.289 302.36 272.371 520.79 642.758 520.79 861.191 0 111.68-54.55 182.52-182.42 182.52-370.98 0-762.112-608.664-689.549-1047.769-233.922-83.09-350.153 20.839-350.153 229.597 0 435.879 455.452 887.962 429.002 1023.982-471.92-145.89-841.252 193.07-1011.49-358.59 229.398 124.82 441.129-74.7 702.82 71.17-224.742-259.24-451.57-626.304-448.511-936.288 2.011-202.903 111.601-349.262 348.98-349.262 134.813 0 274.711 47.21 409.351 124.211 57.71-72.133 150.68-124.211 292.77-124.211 579.34 0 1212.5 814.02 1212.5 1394.87 0 154.1-61.14 235.06-173.04 235.68" fill="#e62324" transform="matrix(.133333 0 0 -.133333 0 217.4)"/></svg>