<svg xmlns="http://www.w3.org/2000/svg" width="335.72" height="217.4" viewBox="0 0 335.72 217.4"><path fill="#e62324" d="M164.02 149.234c.672-41.846 30.21-85.823 45.202-85.823 4.43 0 5.37 2.879 5.37 5.936 0 14.323-21.258 52.586-50.571 79.887M312.649-.006c-13.96-.077-27.43 8.372-36.154 21.053 41.212 26.95-9.282 161.132-83.754 161.132-8.925 0-16.499-2.598-21.565-7.905 40.314-36.316 69.438-85.701 69.438-114.826 0-14.89-7.273-24.336-24.323-24.336-49.463 0-101.614 81.155-91.94 139.703-31.189 11.078-46.686-2.779-46.686-30.613 0-58.117 60.727-118.395 57.2-136.53C71.942 27.122 22.698-18.072 0 55.482c30.586-16.643 58.817 9.96 93.71-9.49-29.967 34.568-60.21 83.51-59.803 124.841.268 27.054 14.88 46.568 46.53 46.568 17.975 0 36.628-6.295 54.58-16.561 7.695 9.617 20.09 16.561 39.036 16.561 77.245 0 161.666-108.536 161.666-185.982 0-20.547-8.151-31.341-23.071-31.424"/></svg>