<svg viewBox="0 0 24 24" xmlns="http://www.w3.org/2000/svg"><path d="m13.48 13.248h-.593l-1.028-2.213-1.004 2.213h-.514l1.543-3.422 1.595 3.422m-10.675-2.058s-.18-.103-.283-.155c-.206-.077-.489-.18-.798-.18-.617 0-1.183.283-1.183 1.004 0 .72.54 1.003 1.21 1.003.334 0 .668-.103.848-.257.103-.078.257-.232.257-.232l.283.437-.231.155c-.232.154-.54.36-1.21.36-.847 0-1.697-.438-1.697-1.466 0-.927.797-1.467 1.775-1.467.437 0 .772.103 1.003.232.129 0 .309.128.309.128zm7.537 2.546h3.138v.438h-3.138zm12.116-2.135h.746v.54h-.746zm-1.107-.051v-1.106h2.65v.437h-2.11v.669zm.54.566v.694h2.11v.438h-2.65v-1.132zm-17.104-.516h.668c.283 0 .515-.103.515-.36s-.232-.386-.515-.386h-1.184v2.367h-.54v-2.778h1.775c.669 0 1.029.36 1.029.797s-.283.772-.772.798l.746 1.029c.026.077.103.18.103.18h-.695l-1.131-1.647m10.186 1.647h-.54v-2.367h-1.106v-.437h2.804v.437h-1.106zm2.238 0h-.54v-2.804h.54zm3.138-2.804-.952 2.11-.951-2.11h-.618l1.312 2.804h.54l1.287-2.83h-.618m-11.961 1.133h.746v.54h-.746zm-1.106 0v-1.106h2.65v.437h-2.11v.669zm.566.566v.694h2.109v.438h-2.675v-1.132z"/></svg>