<svg xmlns="http://www.w3.org/2000/svg" width="24" height="24"><path fill="currentColor" d="M16.49 12 12 16.49 7.51 12 12 7.51ZM12 14.91 14.91 12 12 9.09 9.09 12Z"/><path fill="currentColor" d="M16.33 15.02h2.65L22 12h-2.65z"/><path fill="currentColor" d="M16.33 8.98 19.35 12H22l-3.02-3.02zm-8.66 0H5.02L2 12h2.65z"/><path fill="currentColor" d="m2 12 3.02 3.02h2.65L4.65 12z"/><path fill="currentColor" d="M8.98 5.02v2.65L12 4.65V2z"/><path fill="currentColor" d="M12 2v2.65l3.02 3.02V5.02z"/><path fill="currentColor" d="M8.98 16.33v2.65L12 22v-2.65z"/><path fill="currentColor" d="M12 19.35V22l3.02-3.02v-2.65z"/></svg>