<svg xmlns="http://www.w3.org/2000/svg" width="18" height="18" viewBox="0 0 18 18"><defs><mask id="a"><path fill="#fff" d="M0 0h18v18H0z"/><path d="M17.947 11.369a4.02 4.02 0 0 0-3.489-3.864 5.07 5.07 0 0 0-5.22-4.847A5.2 5.2 0 0 0 4.27 6.046a4.8 4.8 0 0 0-4.217 4.616 4.87 4.87 0 0 0 5.038 4.68q.227-.001.444-.02H13.7a.8.8 0 0 0 .215-.032 4.07 4.07 0 0 0 4.032-3.921"/><path d="m1.325 11.747 1.782 1.473a.169.169 0 0 0 .277-.13v-.641h4.253v-1h-6.2a.168.168 0 0 0-.112.298"/><path d="M7.96 10.255 6.14 8.778a.169.169 0 0 0-.276.13v.646H2.01v1h5.843a.168.168 0 0 0 .107-.299"/></mask></defs><path fill="currentColor" d="M9.468 10.545a4.708 4.708 0 1 0-4.707 4.8H9.47v-4.8z" mask="url(#a)"/></svg>