<svg height="18" viewBox="0 0 18 18" width="18" xmlns="http://www.w3.org/2000/svg" xmlns:xlink="http://www.w3.org/1999/xlink"><linearGradient id="a" gradientUnits="userSpaceOnUse" x1="9" x2="9" y1="15.342" y2="2.658"><stop offset="0" stop-color="#0078d4"/><stop offset=".817" stop-color="#5ea0ef"/></linearGradient><path d="m17.947 11.369a4.02 4.02 0 0 0 -3.489-3.864 5.07 5.07 0 0 0 -5.22-4.847 5.2 5.2 0 0 0 -4.968 3.388 4.8 4.8 0 0 0 -4.217 4.616 4.87 4.87 0 0 0 5.038 4.68q.227-.001.444-.02h8.165a.8.8 0 0 0 .215-.032 4.07 4.07 0 0 0 4.032-3.921" fill="url(#a)"/><path d="m9.468 10.545a4.708 4.708 0 1 0 -4.707 4.8h4.709v-4.8z" fill="#50e6ff"/><g fill="#fff"><path d="m1.325 11.747 1.782 1.473a.169.169 0 0 0 .277-.13v-.641h4.253v-1h-6.2a.168.168 0 0 0 -.112.298" opacity=".75"/><path d="m7.96 10.255-1.82-1.477a.169.169 0 0 0 -.276.13v.646h-3.854v1h5.843a.168.168 0 0 0 .107-.299"/></g></svg>