<svg viewBox="0 0 24 24" xmlns="http://www.w3.org/2000/svg"><path d="m0 0v24h24v-24zm11.717 5.792c1.564 0 2.671 1.04 2.671 2.468 0 1.044-.428 1.819-1.746 2.915l1.952 2.648c.163-.147.303-1.046.274-1.777-.003-.087-.022-.341-.04-.62h1.814c0 .244.024.595.024.683 0 1.426-.224 2.327-.909 3.198l1.443 1.913h-2.232l-.503-.678c-.823.659-1.546.905-2.713.898-2.284-.013-3.857-1.173-4.005-3.239-.089-1.235.737-2.506 2.32-3.42-1.018-1.304-1.227-1.756-1.227-2.574 0-1.392 1.191-2.415 2.878-2.415zm-9.424.134h4.064v11.296h-2.257v-9.487h-1.807zm14.45 0h4.065v11.296h-2.258v-9.487h-1.807zm-5.036 1.49c-.545 0-.931.358-.931.845 0 .47.14.726.79 1.562.772-.557 1.058-1.075 1.058-1.58 0-.504-.354-.828-.917-.828zm-.517 4.811c-1.002.663-1.404 1.31-1.386 1.919.03.928.806 1.522 1.948 1.522.703 0 1.174-.257 1.579-.594z"/></svg>