<svg viewBox="0 0 24 24" xmlns="http://www.w3.org/2000/svg"><path d="m8.0957 1.334v1.3457h-1.3496v1.3457h-1.3477v1.3456h-1.3496v1.3457h-1.3496v6.6816h-1.3496v1.3477h-1.3496v2.4512h1.3496v1.3457h1.3496v1.3457h2.457v-7.836h-1.3495v-4.2303h1.3497v-1.3457h1.3496v-1.3457h1.3496v-1.3457h8.289v1.3457h1.3496v1.3457h1.3496v1.3457h1.3497v4.2304h-1.3497v7.836h2.457v-1.3457h1.3497v-1.3457h1.3495v-2.4513h-1.3496v-1.3477h-1.3496v-6.6815h-1.3496v-1.3457h-1.3496v-1.3457h-1.3477v-1.3457h-1.3496v-1.3457zm1.3711 8v1.3515h-1.3555v3.8165h2.4688v-4.0567h2.9512v4.3477h-1.3555v1.3515h-1.3535v2.4649h2.4668v-2.7051h2.7109v-5.2188h-1.3555v-1.3515zm1.3555 10.8691v2.463h2.4668v-2.463z"/></svg>