<svg fill="#1e79e9" viewBox="0 0 24 24" xmlns="http://www.w3.org/2000/svg"><path d="m14.055 4.154c-1.323 0-2.395 1.16-2.395 2.593v10.506c0 1.432 1.072 2.593 2.395 2.593h7.55c1.323 0 2.395-1.161 2.395-2.593v-10.506c0-1.432-1.072-2.593-2.395-2.593zm3.604 3.004c1.34 0 2.296.256 2.938.77.628.485 1.027 1.283 1.027 2.225 0 .941-.3 1.754-.884 2.282-.742.685-1.84 1.013-3.124 1.013-.285 0-.542-.015-.741-.057v3.451h-2.155v-9.485c.67-.114 1.612-.2 2.938-.2zm-17.045.035-.614 9.614h2.011l.186-3.652c.057-1.198.114-2.681.156-3.979h.029c.243 1.255.557 2.624.87 3.765l1.028 3.709h1.697l1.17-3.751a61 61 0 0 0 1.083-3.723h.029c0 1.398.042 2.796.085 3.95l.157 3.68h2.11l-.511-9.612h-2.854l-1.013 3.195a53 53 0 0 0 -.913 3.452h-.057a41 41 0 0 0 -.813-3.438l-.94-3.21zm17.145 1.62c-.428 0-.727.028-.884.07v2.839c.185.043.399.057.727.057 1.155 0 1.868-.585 1.868-1.555 0-.884-.613-1.412-1.711-1.412z"/></svg>