<svg xmlns="http://www.w3.org/2000/svg" width="18" height="18" viewBox="0 0 18 18"><circle cx="9.026" cy="9.028" r="1.991" fill="currentColor"/><g fill="currentColor"><rect width="1.634" height="4.658" x="8.209" y=".013" rx=".817"/><rect width="1.634" height="4.658" x="8.209" y="13.329" rx=".817"/><rect width="1.634" height="4.658" x="14.597" y="6.699" rx=".817" transform="rotate(90 15.414 9.028)"/><rect width="1.634" height="4.658" x="1.769" y="6.699" rx=".817" transform="rotate(90 2.586 9.028)"/></g><path fill="currentColor" d="M9.026 14.515a5.487 5.487 0 1 1 5.487-5.487 5.493 5.493 0 0 1-5.487 5.487m0-9.553a4.066 4.066 0 1 0 4.066 4.066 4.07 4.07 0 0 0-4.066-4.066"/></svg>