<svg height="18" viewBox="0 0 18 18" width="18" xmlns="http://www.w3.org/2000/svg" xmlns:xlink="http://www.w3.org/1999/xlink"><linearGradient id="a" gradientTransform="matrix(.8660254 -.5 .5 .8660254 -120.371952 -317.220239)" gradientUnits="userSpaceOnUse" x1="-51.062" x2="-51.062" y1="349.229" y2="345.247"><stop offset="0" stop-color="#eeaa45"/><stop offset="1" stop-color="#f4cf97"/></linearGradient><linearGradient id="b" gradientUnits="userSpaceOnUse" x1="9.026" x2="9.026" y1="14.515" y2="3.541"><stop offset="0" stop-color="#0078d4"/><stop offset="1" stop-color="#5ea0f0"/></linearGradient><circle cx="9.026" cy="9.028" fill="url(#a)" r="1.991"/><g fill="#82bbff"><rect height="4.658" rx=".817" width="1.634" x="8.209" y=".013"/><rect height="4.658" rx=".817" width="1.634" x="8.209" y="13.329"/><g><rect height="4.658" rx=".817" transform="matrix(0 1 -1 0 24.442 -6.386)" width="1.634" x="14.597" y="6.699"/><rect height="4.658" rx=".817" transform="matrix(0 1 -1 0 11.614 6.442)" width="1.634" x="1.769" y="6.699"/></g></g><path d="m9.026 14.515a5.487 5.487 0 1 1 5.487-5.487 5.493 5.493 0 0 1 -5.487 5.487m0-9.553a4.066 4.066 0 1 0 4.066 4.066 4.07 4.07 0 0 0 -4.066-4.066" fill="url(#b)"/></svg>