<svg xmlns="http://www.w3.org/2000/svg" width="126" height="48" viewBox="0 0 126 48"><mask id="a" fill="#fff"/><g fill="#111" fill-rule="evenodd"><path d="M66.248 16.268q-1.585-1.333-5.413-1.333h-5.756v17.788h4.304v-5.575h1.928q3.51 0 5.148-1.546c1.23-1.155 1.849-2.693 1.849-4.613q0-2.987-2.06-4.721m-5.044 6.855h-1.821V18.96h1.636q2.985 0 2.985 2.094 0 2.068-2.8 2.068m14.469-8.188h-4.488v17.788h9.69v-4.026h-5.202zm13.995 0-7.05 17.788h4.832l.924-2.586H94.5l.845 2.586h4.886l-7-17.788zm-.053 11.601 1.849-6.08 1.82 6.08z"/><path d="M102.473 32.722h4.489V14.934h-4.489zm21.917-14.454a7.4 7.4 0 0 0-2.14-2.053q-2.033-1.28-5.545-1.28h-5.914v17.787h6.918q3.75 0 6.02-2.453t2.27-6.508q0-3.225-1.61-5.493m-7.182 10.427h-1.927v-9.734h1.954q2.059 0 3.168 1.287 1.11 1.286 1.11 3.647 0 4.8-4.305 4.8M18.637 0 4.09 3.81.081 18.439l5.014 5.148L0 28.65l3.773 14.693 14.484 4.047 5.096-5.064 5.014 5.147 14.547-3.81 4.008-14.63-5.013-5.146 5.095-5.063L43.231 4.13 28.745.083l-5.094 5.063zM9.71 6.624l7.663-2.008 3.351 3.44-4.887 4.856zm16.822 1.478 3.405-3.383 7.63 2.132-6.227 6.187zm-21.86 9.136 2.111-7.705 6.125 6.288-4.886 4.856-3.35-3.44zm29.547-1.243 6.227-6.189 1.986 7.74-3.404 3.384zm-15.502-.127 4.887-4.856 4.807 4.936-4.886 4.856zm-7.814 7.765 4.886-4.856 4.81 4.936-4.888 4.856zm15.503.127 4.886-4.856L36.1 23.84l-4.887 4.856zM4.57 29.927l3.406-3.385 4.807 4.937-6.225 6.186zm14.021 1.598 4.887-4.856 4.808 4.936-4.886 4.856zm15.502.128 4.887-4.856 3.351 3.439-2.11 7.705zm-24.656 8.97 6.226-6.189 4.81 4.936-3.406 3.385-7.63-2.133zm16.843-1.206 4.886-4.856 6.126 6.289-7.662 2.007z" mask="url(#a)"/></g></svg>