<svg height="18" viewBox="0 0 18 18" width="18" xmlns="http://www.w3.org/2000/svg" xmlns:xlink="http://www.w3.org/1999/xlink"><linearGradient id="a" gradientUnits="userSpaceOnUse" x1="9" x2="9" y1="1.796" y2="6.371"><stop offset="0" stop-color="#9cebff"/><stop offset="1" stop-color="#50e6ff"/></linearGradient><linearGradient id="b"><stop offset=".001" stop-color="#b4ec36"/><stop offset="1" stop-color="#86d633"/></linearGradient><linearGradient id="c" gradientUnits="userSpaceOnUse" x1="3.374" x2="3.374" xlink:href="#b" y1="12.14" y2="18.457"/><linearGradient id="d" gradientTransform="matrix(0 -1 1 0 -.019 29.273)" gradientUnits="userSpaceOnUse" x1="14.626" x2="14.626" xlink:href="#b" y1="12.14" y2="18.457"/><path d="m13.851 9.047h-2.912a1.52 1.52 0 0 1 -1.518-1.518v-3.199h-.842v3.2a1.52 1.52 0 0 1 -1.518 1.517h-2.912a1.2 1.2 0 0 0 -1.2 1.2v2.338h.841v-2.341a.355.355 0 0 1 .356-.355h2.915a2.35 2.35 0 0 0 1.739-.764.28.28 0 0 1 .408 0 2.35 2.35 0 0 0 1.735.764h2.912a.354.354 0 0 1 .355.355v2.338h.841v-2.338a1.2 1.2 0 0 0 -1.2-1.197" fill="#0078d4"/><rect fill="url(#a)" height="6.747" rx=".604" width="6.747" x="5.626" y="-.02"/><rect fill="url(#c)" height="6.747" rx=".604" width="6.747" y="11.273"/><rect fill="url(#d)" height="6.747" rx=".604" transform="matrix(0 1 -1 0 29.274 .02)" width="6.747" x="11.253" y="11.273"/></svg>