<svg xmlns="http://www.w3.org/2000/svg" width="18" height="18" viewBox="0 0 18 18">
  <defs>
    <mask id="ko">
      <rect width="18" height="18" fill="white"/>
      <path fill="black" d="M.5 5.788h17v9.478a.57.57 0 0 1-.568.568H1.068a.57.57 0 0 1-.568-.568z"/>
      <rect fill="black" x="2.304" y="7.121" width="3.65" height="1.85"/>
      <rect fill="black" x="7.2" y="7.095" width="3.65" height="1.85"/>
      <rect fill="black" x="12.096" y="7.095" width="3.65" height="1.85"/>
      <rect fill="black" x="2.358" y="9.767" width="3.65" height="1.85"/>
      <rect fill="black" x="7.254" y="9.741" width="3.65" height="1.85"/>
      <rect fill="black" x="12.15" y="9.741" width="3.65" height="1.85"/>
      <rect fill="black" x="2.358" y="12.439" width="3.65" height="1.85"/>
      <rect fill="black" x="7.254" y="12.413" width="3.65" height="1.85"/>
      <rect fill="black" x="12.15" y="12.413" width="3.65" height="1.85"/>
    </mask>
  </defs>
  <g>
    <path fill="currentColor" mask="url(#ko)" d="M1.071 2.166h15.858a.57.57 0 0 1 .568.568v3.054H.5V2.734a.57.57 0 0 1 .571-.568"/>
  </g>
</svg>