<svg xmlns="http://www.w3.org/2000/svg" width="18" height="18" viewBox="0 0 18 18"><defs><mask id="a"><path fill="#fff" d="M0 0h18v18H0z"/><path d="M.5 5.788h17v9.478a.57.57 0 0 1-.568.568H1.068a.57.57 0 0 1-.568-.568z"/><path d="M2.304 7.121h3.65v1.85h-3.65z"/><path d="M7.2 7.095h3.65v1.85H7.2z"/><path d="M12.096 7.095h3.65v1.85h-3.65z"/><path d="M2.358 9.767h3.65v1.85h-3.65z"/><path d="M7.254 9.741h3.65v1.85h-3.65z"/><path d="M12.15 9.741h3.65v1.85h-3.65z"/><path d="M2.358 12.439h3.65v1.85h-3.65z"/><path d="M7.254 12.413h3.65v1.85h-3.65z"/><path d="M12.15 12.413h3.65v1.85h-3.65z"/></mask></defs><path fill="currentColor" d="M1.071 2.166h15.858a.57.57 0 0 1 .568.568v3.054H.5V2.734a.57.57 0 0 1 .571-.568" mask="url(#a)"/></svg>