<svg height="18" viewBox="0 0 18 18" width="18" xmlns="http://www.w3.org/2000/svg" xmlns:xlink="http://www.w3.org/1999/xlink"><linearGradient id="a" gradientUnits="userSpaceOnUse" x1="9" x2="9" y1="15.834" y2="5.788"><stop offset="0" stop-color="#0078d4"/><stop offset=".502" stop-color="#4093e6"/><stop offset=".775" stop-color="#5ea0ef"/></linearGradient><path d="m.5 5.788h17v9.478a.57.57 0 0 1 -.568.568h-15.864a.57.57 0 0 1 -.568-.568z" fill="url(#a)"/><path d="m1.071 2.166h15.858a.57.57 0 0 1 .568.568v3.054h-16.997v-3.054a.57.57 0 0 1 .571-.568" fill="#0078d4"/><rect fill="#fff" height="1.85" opacity=".9" rx=".283" width="3.65" x="2.304" y="7.121"/><rect fill="#fff" height="1.85" opacity=".9" rx=".283" width="3.65" x="7.2" y="7.095"/><rect fill="#fff" height="1.85" opacity=".9" rx=".283" width="3.65" x="12.096" y="7.095"/><rect fill="#fff" height="1.85" opacity=".9" rx=".283" width="3.65" x="2.358" y="9.767"/><g fill="#ffd400"><rect height="1.85" rx=".283" width="3.65" x="7.254" y="9.741"/><rect height="1.85" rx=".283" width="3.65" x="12.15" y="9.741"/><rect height="1.85" rx=".283" width="3.65" x="2.358" y="12.439"/><rect height="1.85" rx=".283" width="3.65" x="7.254" y="12.413"/><rect height="1.85" rx=".283" width="3.65" x="12.15" y="12.413"/></g></svg>