<svg height="48" viewBox="0 0 48 48" width="48" xmlns="http://www.w3.org/2000/svg"><path d="m19 27.25v-5.774l5-2.887 5 2.887v5.774l-5 2.886zm5 5.041a1 1 0 0 0 .5-.134l6-3.464c.31-.178.5-.508.5-.866v-6.928a1 1 0 0 0 -.5-.866l-6-3.465a1 1 0 0 0 -1 0l-6 3.465a1 1 0 0 0 -.5.866v6.928c0 .358.19.688.5.866l6 3.464a1 1 0 0 0 .5.134m8.707-14.584-1.414-1.414 6-6 1.414 1.414zm-17.414 13.586 1.414 1.414-6 6-1.414-1.414zm1-13.586-6-6 1.414-1.414 6 6zm16.414 13.586 6 6-1.414 1.414-6-6zm1.293-5.293h6v-2h-6zm-26 0h6v-2h-6zm15-13h2v-6h-2zm0 28h2v-5h-2zm-19 3h40v-40h-40zm42-41a1 1 0 0 0 -1-1h-42a1 1 0 0 0 -1 1v42a1 1 0 0 0 1 1h42a1 1 0 0 0 1-1z" fill="#e7157b" fill-rule="evenodd"/></svg>