<svg viewBox="0 0 24 24" xmlns="http://www.w3.org/2000/svg"><path d="m12 9.06-4.056-2.196v-4.476l2.436-1.464v3.66l1.62.744 1.62-.744v-3.66l2.436 1.464v4.476zm-8.124 4.752-3.876 2.244v2.988l3.228-1.86 1.404.912.096 1.632-3.24 1.872 2.616 1.476 3.828-2.268-.132-4.596zm9.732-.9v-4.154l-1.37.742-.238.129-.238-.13-1.37-.741v4.154l-3.613 2.09 1.282.783.231.142.008.27.046 1.612 3.654-2.113 3.595 2.079.045-1.59.008-.27.231-.142 1.301-.795zm7.164 4.272 3.228 1.86v-2.988l-3.936-2.256-3.924 2.4-.132 4.596 3.888 2.244 2.616-1.44-3.24-1.836.096-1.668z"/></svg>