<svg height="48" viewBox="0 0 48 48" width="48" xmlns="http://www.w3.org/2000/svg"><path d="m25 30h2v-8h-2zm-4 0h2v-8h-2zm13-4c0 5.514-4.486 10-10 10s-10-4.486-10-10h2c0 4.411 3.589 8 8 8s8-3.589 8-8-3.589-8-8-8c-1.963 0-3.822.74-5.262 2h1.262v2h-2.926q-.011.016-.021.031l-.055-.031h-.998a1 1 0 0 1 -1-1v-4h2v1.87a10.03 10.03 0 0 1 7-2.87c5.514 0 10 4.486 10 10m8-5c-1.103 0-2-.897-2-2s.897-2 2-2 2 .897 2 2-.897 2-2 2m-6.834 17.017c-.056-.003-.109-.017-.166-.017-1.859 0-3.411 1.28-3.858 3h-14.284c-.447-1.72-1.999-3-3.858-3-.057 0-.11.014-.166.017l-4.754-15.617a3.99 3.99 0 0 0 1.92-3.4c0-.513-.106-1-.282-1.451l11.745-8.483a3.96 3.96 0 0 0 2.537.934c.968 0 1.845-.359 2.537-.934l11.745 8.483a4 4 0 0 0 -.282 1.451c0 1.441.773 2.696 1.92 3.4zm-.166 5.983c-1.103 0-2-.897-2-2s.897-2 2-2 2 .897 2 2-.897 2-2 2m-22 0c-1.103 0-2-.897-2-2s.897-2 2-2 2 .897 2 2-.897 2-2 2m-9-25c0-1.103.897-2 2-2s2 .897 2 2-.897 2-2 2-2-.897-2-2m20-15c1.103 0 2 .897 2 2s-.897 2-2 2-2-.897-2-2 .897-2 2-2m18 11a3.96 3.96 0 0 0 -2.538.934l-11.744-8.483a4 4 0 0 0 .282-1.451c0-2.206-1.794-4-4-4s-4 1.794-4 4c0 .513.106 1 .282 1.451l-11.744 8.483a3.96 3.96 0 0 0 -2.538-.934c-2.206 0-4 1.794-4 4s1.794 4 4 4c.057 0 .11-.014.166-.017l4.754 15.617a3.99 3.99 0 0 0 -1.92 3.4c0 2.206 1.794 4 4 4 1.859 0 3.411-1.28 3.858-3h14.284c.447 1.72 1.999 3 3.858 3 2.206 0 4-1.794 4-4a3.99 3.99 0 0 0 -1.92-3.4l4.753-15.617c.057.003.11.017.167.017 2.206 0 4-1.794 4-4s-1.794-4-4-4" fill="#7aa116" fill-rule="evenodd"/></svg>