<svg viewBox="0 0 24 24" xmlns="http://www.w3.org/2000/svg" fill="#004C97"><path d="m16.506 11.982a6.026 6.026 0 0 0 -3.866-5.618v11.236a6.025 6.025 0 0 0 3.866-5.618zm-8.176 5.616v-11.233a6.03 6.03 0 0 0 -3.863 5.617 6.028 6.028 0 0 0 3.863 5.616zm2.156-15.113a9.497 9.497 0 0 0 -9.496 9.497 9.495 9.495 0 0 0 9.495 9.494c5.245 0 9.495-4.25 9.496-9.494a9.499 9.499 0 0 0 -9.496-9.497zm-.023 19.888c-5.74.027-10.463-4.623-10.463-10.283 0-6.185 4.723-10.464 10.463-10.463h2.69c5.669 0 10.847 4.276 10.847 10.463 0 5.658-5.176 10.283-10.848 10.283"/></svg>