<svg height="18" viewBox="0 0 18 18" width="18" xmlns="http://www.w3.org/2000/svg" xmlns:xlink="http://www.w3.org/1999/xlink"><linearGradient id="a" gradientUnits="userSpaceOnUse" x1="9.01" x2="9.01" y1=".75" y2="17.25"><stop offset="0" stop-color="#5ea0ef"/><stop offset=".18" stop-color="#559cec"/><stop offset=".47" stop-color="#3c91e5"/><stop offset=".84" stop-color="#1380da"/><stop offset="1" stop-color="#0078d4"/></linearGradient><path d="m16.36 8.4c0 4.84-5.85 8.74-7.12 9.53a.46.46 0 0 1 -.48 0c-1.27-.79-7.12-4.69-7.12-9.53v-5.82a.46.46 0 0 1 .45-.46c4.55-.12 3.5-2.12 6.91-2.12s2.36 2 6.91 2.12a.46.46 0 0 1 .45.46z" fill="#0078d4"/><path d="m15.75 8.45c0 4.44-5.36 8-6.53 8.74a.43.43 0 0 1 -.44 0c-1.17-.72-6.53-4.3-6.53-8.74v-5.34a.42.42 0 0 1 .41-.42c4.17-.11 3.21-1.94 6.34-1.94s2.17 1.83 6.34 1.94a.42.42 0 0 1 .41.42z" fill="#6bb9f2"/><path d="m9 9v-8.25c3.13 0 2.17 1.83 6.34 1.94a.43.43 0 0 1 .41.43v5.34a5 5 0 0 1 0 .54zm0 0h-6.72c.4 4.18 5.38 7.5 6.5 8.19a.4.4 0 0 0 .18.06h.04z" fill="url(#a)"/><path d="m2.66 2.69c4.17-.11 3.21-1.94 6.34-1.94v8.25h-6.72a5 5 0 0 1 0-.54v-5.34a.43.43 0 0 1 .38-.43m13.06 6.31h-6.72v8.25a.4.4 0 0 0 .18-.06c1.16-.69 6.14-4.01 6.54-8.19" fill="#50e6ff"/></svg>