<svg height="18" viewBox="0 0 18 18" width="18" xmlns="http://www.w3.org/2000/svg" xmlns:xlink="http://www.w3.org/1999/xlink"><linearGradient id="a" gradientUnits="userSpaceOnUse" x1="8.141" x2="8.141" y1="1.048" y2="13.741"><stop offset="0" stop-color="#5ea0ef"/><stop offset="1" stop-color="#0078d4"/></linearGradient><rect fill="url(#a)" height="13.678" rx=".761" width="16.282" y=".609"/><g fill="#fff"><ellipse cx="6.524" cy="5.329" rx="1.131" ry="1.137"/><ellipse cx="9.659" cy="7.46" rx="1.131" ry="1.137"/><ellipse cx="12.695" cy="3.422" rx="1.131" ry="1.137"/><ellipse cx="3.587" cy="9.511" rx="1.131" ry="1.137"/><path d="m3.996 9.798-.819-.574 3.221-4.584 3.148 2.138 2.75-3.656.799.601-3.322 4.418-3.123-2.121zm2.935 7.294a1.17 1.17 0 0 1 -1.168-1.167c.2-3.889 2.539-6.362 5.974-6.362s5.79 2.473 5.974 6.3a1.17 1.17 0 0 1 -1.111 1.227h-9.67z"/></g><path d="m11.737 9.85c3.427 0 5.52 2.549 5.687 6.029a.88.88 0 0 1 -.836.924h-9.657a.88.88 0 0 1 -.881-.88v-.046c.177-3.477 2.266-6.027 5.687-6.027m0-.575c-3.6 0-6.058 2.581-6.26 6.574v.076a1.46 1.46 0 0 0 1.456 1.454h9.685a1.457 1.457 0 0 0 1.382-1.529c-.189-3.932-2.705-6.575-6.261-6.575z" fill="#0078d4"/><path d="m14.368 12.272a4 4 0 0 0 -2.382-1.014v1.851a2.2 2.2 0 0 1 1.106.472zm-5.324 0 1.276 1.309a2.2 2.2 0 0 1 1.106-.472v-1.851a4 4 0 0 0 -2.382 1.014" fill="#50e6ff"/><path d="m13.5 13.993a2.35 2.35 0 0 1 .462 1.136h1.8a4.23 4.23 0 0 0 -.987-2.445z" fill="#32bedd"/><path d="m9.917 13.993-1.276-1.309a4.22 4.22 0 0 0 -.986 2.445h1.8a2.35 2.35 0 0 1 .462-1.136" fill="#50e6ff"/><path d="m14.773 13.526a.4.4 0 0 0 -.363-.233.4.4 0 0 0 -.167.038l-2.772 1.3.334.726 2.775-1.3a.4.4 0 0 0 .193-.531" fill="#e62323"/><circle cx="11.737" cy="14.963" fill="#4f4f4f" r=".954"/></svg>