<svg height="18" viewBox="0 0 18 18" width="18" xmlns="http://www.w3.org/2000/svg" xmlns:xlink="http://www.w3.org/1999/xlink"><linearGradient id="a" gradientTransform="matrix(1 0 0 -1 427.126 -205.758)" gradientUnits="userSpaceOnUse" x1="-418.126" x2="-418.126" y1="-223.397" y2="-206.119"><stop offset="0" stop-color="#0078d4"/><stop offset=".817" stop-color="#5ea0ef"/></linearGradient><linearGradient id="b"><stop offset="0" stop-color="#9cebff"/><stop offset="1" stop-color="#50e6ff"/></linearGradient><linearGradient id="c" gradientTransform="matrix(1 0 0 -1 427.126 -205.758)" gradientUnits="userSpaceOnUse" x1="-424.341" x2="-424.341" xlink:href="#b" y1="-209.246" y2="-220.269"/><linearGradient id="d" gradientUnits="userSpaceOnUse" x1="-418.631" x2="-418.631" xlink:href="#b" y1="-209.246" y2="-220.269"/><path d="m1.379.862a.5.5 0 0 1 .748-.434l14.242 8.138a.5.5 0 0 1 0 .868l-14.242 8.138a.5.5 0 0 1 -.748-.434zm2.812 3.985v8.306l7.269-4.153z" fill="url(#a)" fill-rule="evenodd"/><path d="m1.379 11v-4h2.812v4z" fill="url(#c)"/><g fill="url(#d)"><path d="m10.9 12.558-3.416 1.953-1.4-2.442 3.419-1.953z"/><path d="m7.484 3.489 3.416 1.953-1.393 2.442-3.419-1.953z"/></g></svg>