<svg xmlns="http://www.w3.org/2000/svg" xmlns:xlink="http://www.w3.org/1999/xlink" width="18" height="18" viewBox="0 0 18 18"><linearGradient id="b" x1="-418.126" x2="-418.126" y1="-223.397" y2="-206.119" gradientTransform="matrix(1 0 0 -1 427.126 -205.758)" gradientUnits="userSpaceOnUse"><stop offset="0" stop-color="#0078d4"/><stop offset=".817" stop-color="#5ea0ef"/></linearGradient><linearGradient id="a"><stop offset="0" stop-color="#9cebff"/><stop offset="1" stop-color="#50e6ff"/></linearGradient><linearGradient xlink:href="#a" id="c" x1="-424.341" x2="-424.341" y1="-209.246" y2="-220.269" gradientTransform="matrix(1 0 0 -1 427.126 -205.758)" gradientUnits="userSpaceOnUse"/><linearGradient xlink:href="#a" id="d" x1="-418.631" x2="-418.631" y1="-209.246" y2="-220.269" gradientUnits="userSpaceOnUse"/><path fill="url(#b)" fill-rule="evenodd" d="M1.379.862a.5.5 0 0 1 .748-.434l14.242 8.138a.5.5 0 0 1 0 .868L2.127 17.572a.5.5 0 0 1-.748-.434zm2.812 3.985v8.306L11.46 9z"/><path fill="url(#c)" d="M1.379 11V7h2.812v4z"/><g fill="url(#d)"><path d="m10.9 12.558-3.416 1.953-1.4-2.442 3.419-1.953z"/><path d="M7.484 3.489 10.9 5.442 9.507 7.884 6.088 5.931z"/></g></svg>