<svg enable-background="new 0 0 404.5 45" viewBox="0 0 404.5 45" xmlns="http://www.w3.org/2000/svg" xmlns:xlink="http://www.w3.org/1999/xlink"><filter id="a" filterUnits="userSpaceOnUse" height="18.8" width="120.8" x="98.1" y="24.8"><feColorMatrix values="1 0 0 0 0 0 1 0 0 0 0 0 1 0 0 0 0 0 1 0"/></filter><mask id="b" height="18.8" maskUnits="userSpaceOnUse" width="120.8" x="98.1" y="24.8"><path d="m404.5 1.4h-306.4v42.2h306.3v-42.2z" fill="#fff" filter="url(#a)"/></mask><filter id="c" filterUnits="userSpaceOnUse" height="18.2" width="92.2" x="98.1" y="1.4"><feColorMatrix values="1 0 0 0 0 0 1 0 0 0 0 0 1 0 0 0 0 0 1 0"/></filter><mask id="d" height="18.2" maskUnits="userSpaceOnUse" width="92.2" x="98.1" y="1.4"><path d="m404.5 1.4h-306.4v42.2h306.3v-42.2z" fill="#fff" filter="url(#c)"/></mask><path d="m53.2 45 7.3-7.7-29.6-27.9c-5.7-5.4-10.2-9.4-17.2-9.4-9.6 0-13.7 7.5-13.7 16.7v26.5h11.3v-27c0-3.3.8-5.8 3.4-5.8 1.8 0 3 1.2 5.3 3.3zm11.6-1.8h11.2v-41.8h-11.2zm98.6-13.9h11.4v13.7h5.3v-13.7h11.4v-4.5h-28.1z" fill="#161819"/><g mask="url(#b)"><path d="m216.1 34.6q1.35-.6 2.1-1.8c.5-.8.8-1.7.8-2.8 0-1.7-.5-2.9-1.6-3.8s-2.5-1.4-4.3-1.4h-19.4v18.2h5.2v-3.3l20.2 3.8v-4.4l-21.9-4h16c.9.1 2-.1 2.9-.5m-17.4-3v-2.6h13.3c.4 0 .8.1 1 .3.3.2.4.5.4.9s-.1.7-.4.9-.6.3-1 .3zm-100.6 11.5h5.3v-18.3h-5.3z" fill="#161819"/></g><path d="m161.7 34.1c-1.1-.8-2.9-1.4-5.6-1.8l-11.6-1.6c-.5-.1-.8-.1-1.1-.2s-.5-.2-.6-.2c-.1-.1-.2-.2-.2-.4 0-.3.2-.5.6-.7s1-.4 1.9-.5 2-.2 3.4-.2c2.7 0 5 .2 7 .7s4.1 1.2 6.1 2.2v-4.8c-1.3-.7-3-1.2-5-1.7-2-.4-4.2-.7-6.9-.7-2.6 0-4.7.2-6.6.7s-3.3 1.1-4.4 2.1q-1.5 1.35-1.5 3.3c0 1.3.6 2.3 1.7 3.1s3 1.3 5.5 1.7l10.7 1.4c.7.1 1.2.2 1.6.2.4.1.6.2.8.3s.3.3.3.5c0 .3-.3.6-.8.9s-1.3.5-2.3.6-2.2.2-3.6.2c-2.4 0-4.6-.2-6.7-.8q-3.15-.75-6.3-2.7v5c1.6.9 3.4 1.5 5.3 2s4.2.7 6.8.7c2.9 0 5.3-.3 7.2-.8 1.9-.6 3.4-1.3 4.3-2.3s1.4-2.1 1.4-3.3c.2-1.1-.3-2.1-1.4-2.9m-31.7 8-13.9-17.2h-9.6v18.2h5.3v-14.3h.7l11.5 14.3h11.2v-18.3h-5.2zm219.5-12.8h11.4v13.7h5.3v-13.7h11.4v-4.5h-28.1zm-7.3 12.8-13.9-17.2h-9.6v18.2h5.3v-14.3h.7l11.5 14.3h11.2v-18.3h-5.3v17.3zm-51.5 1h25.6v-4.4h-20.4v-2.8h18.2v-4.1h-18.2v-2.4h20.4v-4.4h-25.6zm112.2-9c-1.1-.8-2.9-1.4-5.6-1.8l-11.6-1.6c-.5-.1-.8-.1-1.1-.2s-.5-.2-.6-.2c-.1-.1-.2-.2-.2-.4 0-.3.2-.5.6-.7s1-.4 1.9-.5 2-.2 3.4-.2c2.7 0 5 .2 7 .7s4.1 1.2 6.1 2.2v-4.8c-1.3-.7-3-1.2-5-1.7-2-.4-4.2-.7-6.9-.7-2.6 0-4.7.2-6.6.7s-3.3 1.1-4.4 2.1q-1.5 1.35-1.5 3.3c0 1.3.6 2.3 1.7 3.1s3 1.3 5.5 1.7l10.7 1.4c.7.1 1.2.2 1.6.2.4.1.6.2.8.3s.3.3.3.5c0 .3-.2.6-.8.9-.5.3-1.3.5-2.3.6s-2.2.2-3.6.2c-2.4 0-4.6-.2-6.7-.8q-3.15-.75-6.3-2.7v5c1.6.9 3.4 1.5 5.3 2s4.2.7 6.8.7c2.9 0 5.3-.3 7.2-.8 1.9-.6 3.4-1.3 4.3-2.3s1.4-2.1 1.4-3.3c.2-1.1-.4-2.1-1.4-2.9m-133.2 8-7.8-17.2h-10.1v18.2h5.3v-14.2h.7l6.6 14.2h10.5l6.6-14.2h.7v14.2h5.3v-18.3h-10.1zm-26.2-8.2c0 1-.3 1.9-1 2.6-.6.8-1.6 1.4-2.9 1.9s-2.8.7-4.6.7-3.3-.2-4.6-.7-2.2-1.1-2.9-1.9c-.6-.8-1-1.7-1-2.6v-9.1h-5.3v9.2c0 2 .6 3.7 1.7 5.2q1.65 2.1 4.8 3.3c2.1.8 4.5 1.1 7.2 1.1s5.1-.4 7.2-1.1q3.15-1.2 4.8-3.3c1.1-1.4 1.7-3.2 1.7-5.2v-9.2h-5.3zm-77.2-14.3h5.3v-13.7h11.4v-4.5h-28.1v4.5h11.4zm-28.9-4.3h13.7l2.8 4.3h6.3l-12.3-18.2h-7.2l-12.3 18.2h6.3zm6.5-9.9h.8l3.9 6h-8.6z" fill="#161819"/><g mask="url(#d)"><path d="m190.3 1.4h-5.3v18.2h5.3zm-63.4 18.2v-18.2h-5.3v17.2l-13.9-17.2h-9.6v18.2h5.3v-14.2h.7l11.5 14.3h11.3z" fill="#161819"/></g><path d="m223.2 19.6h25.6v-4.4h-20.4v-2.8h18.2v-4.2h-18.2v-2.4h20.4v-4.4h-25.6zm-11 0 9.3-18.2h-6l-8.8 17.2-8.7-17.2h-6l9.3 18.2z" fill="#161819"/></svg>