<svg viewBox="0 0 24 24" xmlns="http://www.w3.org/2000/svg"><path d="m22.939 10.627-9.878-9.878a1.505 1.505 0 0 0 -2.121 0l-9.879 9.878c-.583.583-1.061 1.736-1.061 2.56v9c0 .826.675 1.5 1.5 1.5h9.227l-4.063-4.062a2.034 2.034 0 0 1 -.664.113c-1.13 0-2.05-.92-2.05-2.05s.92-2.05 2.05-2.05 2.05.92 2.05 2.05c0 .233-.041.456-.113.665l3.163 3.163v-11.588a2.05 2.05 0 0 1 -1.15-1.84c0-1.13.92-2.05 2.05-2.05s2.05.92 2.05 2.05a2.05 2.05 0 0 1 -1.15 1.84v8.127l3.146-3.146a2.051 2.051 0 0 1 1.954-2.67c1.13 0 2.05.92 2.05 2.05s-.92 2.05-2.05 2.05c-.25 0-.488-.047-.709-.13l-4.391 4.393v3.088h9.6c.825 0 1.5-.675 1.5-1.5v-9c0-.825-.477-1.977-1.061-2.561z"/></svg>