<svg height="48" viewBox="0 0 48 48" width="48" xmlns="http://www.w3.org/2000/svg"><path d="m24 44c-11.028 0-20-8.972-20-20s8.972-20 20-20 20 8.972 20 20-8.972 20-20 20m0-42c-12.131 0-22 9.869-22 22s9.869 22 22 22 22-9.869 22-22-9.869-22-22-22m12 25c-1.654 0-3-1.346-3-3s1.346-3 3-3 3 1.346 3 3-1.346 3-3 3m-24 0c-1.654 0-3-1.346-3-3s1.346-3 3-3 3 1.346 3 3-1.346 3-3 3m24-8a5.01 5.01 0 0 0 -4.899 4h-14.202a5.01 5.01 0 0 0 -4.899-4c-2.757 0-5 2.243-5 5s2.243 5 5 5a5.01 5.01 0 0 0 4.899-4h14.202a5.01 5.01 0 0 0 4.899 4c2.757 0 5-2.243 5-5s-2.243-5-5-5" fill="#8c4fff" fill-rule="evenodd"/></svg>