<svg viewBox="0 0 24 24" xmlns="http://www.w3.org/2000/svg"><path d="m23.365 13.556-1.442-2.895v-1.667c0-2.764-2.218-5.002-4.954-5.002h-2.464c.178-.367.276-.779.276-1.213a2.77 2.77 0 0 0 -2.763-2.779 2.77 2.77 0 0 0 -2.763 2.779c0 .434.098.846.276 1.213h-2.464c-2.736 0-4.954 2.238-4.954 5.002v1.667l-1.473 2.888c-.149.29-.149.636 0 .927l1.472 2.855v1.667c.001 2.764 2.218 5.002 4.955 5.002h9.902c2.736 0 4.954-2.238 4.954-5.002v-1.668l1.44-2.865c.143-.286.143-.622.002-.91m-12.854 2.36a2.27 2.27 0 0 1 -2.261 2.273 2.27 2.27 0 0 1 -2.261-2.273v-4.042a2.27 2.27 0 0 1 2.26-2.273 2.267 2.267 0 0 1 2.262 2.274zm7.285 0a2.27 2.27 0 0 1 -2.26 2.273 2.27 2.27 0 0 1 -2.262-2.273v-4.042a2.267 2.267 0 0 1 2.261-2.273 2.267 2.267 0 0 1 2.261 2.274z"/></svg>