<svg xmlns="http://www.w3.org/2000/svg" id="uuid-2ef9df66-6ea3-4ece-9de9-7976ed33ba20" width="18" height="18" viewBox="0 0 18 18"><defs><linearGradient id="uuid-715a95c6-dbaa-4220-8878-769f414e4d1c" x1="7.669" x2="14.031" y1="779.631" y2="787.067" gradientTransform="matrix(1 0 0 -1 0 791.516)" gradientUnits="userSpaceOnUse"><stop offset="0" stop-color="#225086"/><stop offset="1" stop-color="#0055c5"/></linearGradient><linearGradient id="uuid-8bed8a34-40e3-45ff-96f5-3f4e39a2709b" x1="6.341" x2="6.341" y1="778.631" y2="794.82" gradientTransform="matrix(1 0 0 -1 0 791.516)" gradientUnits="userSpaceOnUse"><stop offset="0" stop-color="#6df"/><stop offset="1" stop-color="#0294e4"/></linearGradient><linearGradient id="uuid-7670c307-67cb-4bb8-aa08-22886e397611" x1="8.968" x2="8.968" y1="776.431" y2="795.251" gradientTransform="matrix(1 0 0 -1 0 791.516)" gradientUnits="userSpaceOnUse"><stop offset="0" stop-color="#44dbf9"/><stop offset="1" stop-color="#cbf8ff"/></linearGradient><linearGradient id="uuid-5ebc116c-2b44-4077-8e82-3744bdc1ef1c" x1="13.451" x2="13.451" y1="775.2" y2="791.203" gradientTransform="matrix(1 0 0 -1 0 791.516)" gradientUnits="userSpaceOnUse"><stop offset="0" stop-color="#041642"/><stop offset="1" stop-color="#041642" stop-opacity=".25"/></linearGradient><linearGradient id="uuid-ea0a50d3-a0ed-4236-88d2-db9ecc2f6a18" x1="-550.516" x2="-550.516" y1="1008.032" y2="1017.064" gradientTransform="matrix(1 0 0 -1 564 1025.516)" gradientUnits="userSpaceOnUse"><stop offset=".001" stop-color="#773adc"/><stop offset=".342" stop-color="#8b55e6"/><stop offset=".756" stop-color="#9f70f0"/><stop offset="1" stop-color="#a67af4"/></linearGradient></defs><g stroke-width="0"><path fill="url(#uuid-715a95c6-dbaa-4220-8878-769f414e4d1c)" d="M17.583 9.451 10.11 1.022a1.545 1.545 0 0 0-2.286 0L.352 9.451c-.577.652-.426 1.635.322 2.103l7.472 4.671a1.56 1.56 0 0 0 1.642 0l7.472-4.671c.748-.467.899-1.452.322-2.103Z"/><path fill="url(#uuid-8bed8a34-40e3-45ff-96f5-3f4e39a2709b)" d="M10.111 1.022a1.545 1.545 0 0 0-2.286 0L.353 9.451c-.577.652-.426 1.635.322 2.103l3.115 1.947c.387.241 1.029.509 1.709.509.619 0 1.193-.179 1.67-.485h.002l1.798-1.124-4.348-2.718 4.458-5.029a3.04 3.04 0 0 1 2.294-1.022c.47 0 .914.107 1.309.291l-2.57-2.899z"/><path fill="url(#uuid-7670c307-67cb-4bb8-aa08-22886e397611)" d="m4.619 9.683.052.031 4.297 2.687 4.348-2.718h.001-.001L8.968 4.776z"/><path fill="url(#uuid-5ebc116c-2b44-4077-8e82-3744bdc1ef1c)" fill-opacity=".5" d="M8.968 16.459c.286 0 .572-.078.821-.233l7.472-4.671c.748-.467.899-1.452.322-2.103l-7.472-8.43A1.52 1.52 0 0 0 8.968.517V16.46Z" opacity=".5"/></g><circle cx="13.484" cy="12.968" r="4.516" fill="url(#uuid-ea0a50d3-a0ed-4236-88d2-db9ecc2f6a18)" stroke-width="0"/><path fill="#fff" stroke-width="0" d="M15.257 12.36h-.689a.407.407 0 0 0 0 .813h1.49a.407.407 0 0 0 .406-.407v-1.761a.407.407 0 0 0-.813-.013v.419a2.7 2.7 0 0 0-2.168-1.084 2.67 2.67 0 0 0-2.074.96.407.407 0 0 0 .625.52c.358-.429.89-.674 1.449-.666.787 0 1.492.485 1.773 1.219ZM11.317 15.07v-.406a2.716 2.716 0 0 0 4.239.129.407.407 0 0 0-.619-.527 1.903 1.903 0 0 1-3.166-.415h.63a.407.407 0 0 0 .013-.813H10.91a.406.406 0 0 0-.406.406v1.626a.407.407 0 0 0 .813.013z"/></svg>