<svg height="64" viewBox="0 0 64 64" width="64" xmlns="http://www.w3.org/2000/svg"><g fill="none" fill-rule="evenodd"><path d="m0 0h64v64h-64z" fill="#01a88d"/><path d="m40.682 46.897h4.149v-23.641h-4.15zm-1.998 2h8.144v-27.641h-8.144zm-9.27-2h4.148v-17.487h-4.149zm-1.999 2h8.145v-21.487h-8.145zm-10.295-1.999h4.149v-10.308h-4.15zm-1.998 1.999h8.144v-14.308h-8.144zm32.756-37.897v2h3.223l-4.164 4.154h-8.544a1 1 0 0 0 -.872.512l-3.153 5.642h-8.444a1 1 0 0 0 -.933.645l-2.479 6.534h-7.415v2h8.105a1 1 0 0 0 .933-.645l2.48-6.534h8.339a1 1 0 0 0 .871-.512l3.154-5.642h8.372a1 1 0 0 0 .705-.292l3.946-3.937v2.203h1.998v-6.128zm2.075 10.231h1.997v31.769h-41.95v-39.949h33.78v2h-31.782v35.949h37.955z" fill="#fff"/></g></svg>