<svg height="24" width="24" xmlns="http://www.w3.org/2000/svg"><g fill="#4285f4"><path d="m6.48 9.62a.37.37 0 1 1 -.05-.74l2.3-.32a.37.37 0 0 1 .42.32.38.38 0 0 1 -.32.43l-2.3.31zm2.82-.327.232-.713 4.145 1.352-.232.713z"/><path d="m9.18 9.16h-.11a.37.37 0 0 1 -.24-.46l.83-2.84a.37.37 0 0 1 .46-.24.36.36 0 0 1 .26.45l-.84 2.81a.38.38 0 0 1 -.36.28"/><path d="m14.31 10.56a.36.36 0 0 1 -.31-.17.36.36 0 0 1 0-.39l1.67-4.23a.38.38 0 0 1 .47-.18.38.38 0 0 1 .23.45l-1.68 4.24a.39.39 0 0 1 -.38.28"/><path d="m5.35 14.95h5.03v.75h-5.03z" transform="matrix(.78141157 -.62401599 .62401599 .78141157 -7.839634 8.259781)"/><path d="m14.12 10.71.29-.69 3.64 1.59-.3.68z"/><path d="m13.99 14.59.52-.55 3.23 3.05-.52.54z"/><path d="m9.18 9h.75v4.06h-.75z" transform="matrix(.97999424 -.19902586 .19902586 .97999424 -1.999922 2.119925)"/><path d="m9.96 13.6 4.1-3.6.5.56-4.1 3.6z"/><path d="m13.75 14.22.24-3.97.75.05-.25 3.97z"/><circle cx="10.01" cy="13.82" r="1.36"/><circle cx="14.37" cy="10.36" r="1.61"/><circle cx="14.36" cy="14.54" r=".84"/><circle cx="9.04" cy="8.67" r=".99"/></g><path d="m13 3h-2v4h2zm4 0h-2v4h2zm-8 0h-2v4h2zm4 14h-2v4h2zm4 0h-2v4h2zm-8 0h-2v4h2zm-2-6h-4v2h4zm0-4h-4v2h4zm0 8h-4v2h4zm14-4h-4v2h4zm0-4h-4v2h4zm0 8h-4v2h4z" fill="#669df6"/><path d="m18 5h-12a1 1 0 0 0 -1 1v12a1 1 0 0 0 1 1h12a1 1 0 0 0 1-1v-12a1 1 0 0 0 -1-1m-1 11.47a.53.53 0 0 1 -.53.53h-8.94a.53.53 0 0 1 -.53-.53v-8.94a.53.53 0 0 1 .53-.53h8.94a.53.53 0 0 1 .53.53z" fill="#669df6"/></svg>