<svg xmlns="http://www.w3.org/2000/svg" width="24" height="24"><g fill="#4285f4"><path d="M6.48 9.62a.37.37 0 1 1-.05-.74l2.3-.32a.37.37 0 0 1 .42.32.38.38 0 0 1-.32.43l-2.3.31zm2.82-.327.232-.713 4.145 1.352-.232.713z"/><path d="M9.18 9.16h-.11a.37.37 0 0 1-.24-.46l.83-2.84a.37.37 0 0 1 .46-.24.36.36 0 0 1 .26.45l-.84 2.81a.38.38 0 0 1-.36.28m5.13 1.4a.36.36 0 0 1-.31-.17.36.36 0 0 1 0-.39l1.67-4.23a.38.38 0 0 1 .47-.18.38.38 0 0 1 .23.45l-1.68 4.24a.39.39 0 0 1-.38.28m-8.64 6.043 3.93-3.138.468.586-3.93 3.138z"/><path d="m14.12 10.71.29-.69 3.64 1.59-.3.68zm-.13 3.88.52-.55 3.23 3.05-.52.54zM8.788 9.113l.735-.15.808 3.98-.735.149z"/><path d="m9.96 13.6 4.1-3.6.5.56-4.1 3.6z"/><path d="m13.75 14.22.24-3.97.75.05-.25 3.97z"/><circle cx="10.01" cy="13.82" r="1.36"/><circle cx="14.37" cy="10.36" r="1.61"/><circle cx="14.36" cy="14.54" r=".84"/><circle cx="9.04" cy="8.67" r=".99"/></g><path fill="#669df6" d="M13 3h-2v4h2zm4 0h-2v4h2zM9 3H7v4h2zm4 14h-2v4h2zm4 0h-2v4h2zm-8 0H7v4h2zm-2-6H3v2h4zm0-4H3v2h4zm0 8H3v2h4zm14-4h-4v2h4zm0-4h-4v2h4zm0 8h-4v2h4z"/><path fill="#669df6" d="M18 5H6a1 1 0 0 0-1 1v12a1 1 0 0 0 1 1h12a1 1 0 0 0 1-1V6a1 1 0 0 0-1-1m-1 11.47a.53.53 0 0 1-.53.53H7.53a.53.53 0 0 1-.53-.53V7.53A.53.53 0 0 1 7.53 7h8.94a.53.53 0 0 1 .53.53z"/></svg>