<svg height="18" viewBox="0 0 18 18" width="18" xmlns="http://www.w3.org/2000/svg" xmlns:xlink="http://www.w3.org/1999/xlink"><linearGradient id="a" gradientUnits="userSpaceOnUse" x1="9" x2="9" y1="13.83" y2="1.07"><stop offset="0" stop-color="#0078d4"/><stop offset=".82" stop-color="#5ea0ef"/></linearGradient><path d="m18 9.83a4 4 0 0 0 -3.51-3.83 5.1 5.1 0 0 0 -5.25-4.93 5.23 5.23 0 0 0 -5 3.41 4.83 4.83 0 0 0 -4.24 4.64 4.9 4.9 0 0 0 5.07 4.71h8.65a.8.8 0 0 0 .22 0 4.09 4.09 0 0 0 4.06-4" fill="url(#a)"/><path d="m6.63 6.82h5.06v7h-5.06z" fill="#f2f2f2"/><path d="m12.61 6.37-3.49-2a.25.25 0 0 0 -.31.15s0 .06 0 .08v12.08a.25.25 0 0 0 .24.25h.08l3.49-2.06a.25.25 0 0 0 .17-.23v-8a.26.26 0 0 0 -.18-.27" fill="#50e6ff"/></svg>