<svg viewBox="0 0 24 24" xmlns="http://www.w3.org/2000/svg"><path d="m21.46 2.172h-18.92a2.55 2.55 0 0 0 -2.54 2.54v14.575a2.55 2.55 0 0 0 2.54 2.54h18.92a2.55 2.55 0 0 0 2.54-2.54v-14.574a2.55 2.55 0 0 0 -2.54-2.54m.427 5.138-.31 2.1a1.24 1.24 0 0 1 -.98 1.032l-5.024 1.003-.002.015-.787 4.306a2.474 2.474 0 0 1 -2.467 2.34h-.634a2.474 2.474 0 0 1 -2.468-2.355l-.697-4.288-5.115-1.021a1.24 1.24 0 0 1 -.98-1.032l-.31-2.1a1.235 1.235 0 0 1 2.445-.36l.182 1.239 7.26 1.449 7.26-1.45.182-1.24a1.235 1.235 0 0 1 2.445.36m-9.887 4.825a1.2 1.2 0 0 1 -.242-.024l-.653-.13.562 3.457a1 1 0 0 1 .016.198h.634a1.2 1.2 0 0 1 .02-.222l.63-3.448-.725.145a1.2 1.2 0 0 1 -.242.024"/></svg>