<svg height="64" viewBox="0 0 64 64" width="64" xmlns="http://www.w3.org/2000/svg"><g fill="none" fill-rule="evenodd"><path d="m0 0h64v64h-64z" fill="#8c4fff"/><path d="m33.522 32.737c.953 1.059 1.478 2.393 1.478 3.758 0 3.203-2.244 5.526-5.333 5.526h-6.223c-3.104 0-5.444-2.375-5.444-5.526 0-3.137 2.29-5.415 5.444-5.415h3.111v1.99h-3.111c-2.028 0-3.444 1.408-3.444 3.425 0 2.049 1.448 3.537 3.444 3.537h6.223c1.962 0 3.333-1.454 3.333-3.537 0-.874-.344-1.738-.968-2.43zm11.478 2.323c0 3.736-3.051 5.968-6 5.968h-3.112v-1.99h3.112c1.965 0 4-1.488 4-3.978s-2.035-3.979-4-3.979h-6.223c-2.013 0-3.777 1.807-3.777 3.868 0 .53.364 1.153.684 1.704l.07.12-1.732.994-.067-.116c-.426-.73-.955-1.637-.955-2.702 0-3.12 2.699-5.857 5.777-5.857h6.223c2.949 0 6 2.232 6 5.968m.439 8.952h-26.878c-3.544-.003-6.359-2.508-6.549-5.826a8 8 0 0 1 -.012-.468c0-4.249 3.059-5.683 4.938-6.162l.055-.011a.993.993 0 0 0 .77-1.094 9 9 0 0 1 -.071-1.153c0-3.47 2.498-7.207 5.687-8.505 5.548-2.259 9.48.71 10.913 2.09 1.163 1.121 2.071 2.556 2.699 4.264a1.004 1.004 0 0 0 1.734.263c.899-1.17 2.35-1.661 3.704-1.251 1.612.489 2.614 2.072 2.751 4.343.028.45.356.827.801.915 3.993.801 6.019 2.941 6.019 6.363 0 5.421-4.111 6.23-6.561 6.23m1.663-14.381c-.376-2.718-1.869-4.7-4.089-5.374a5.33 5.33 0 0 0 -4.732.82c-.679-1.397-1.549-2.612-2.597-3.622-3.571-3.445-8.454-4.38-13.062-2.503-3.951 1.609-6.93 6.057-6.93 10.346q0 .276.013.549c-2.188.735-5.705 2.721-5.705 7.872q0 .299.016.58c.249 4.387 3.922 7.699 8.544 7.703h26.879c2.008 0 8.561-.593 8.561-8.22 0-4.155-2.442-7.026-6.898-8.15" fill="#fff"/></g></svg>