<svg viewBox="0 0 24 24" xmlns="http://www.w3.org/2000/svg"><path d="m13.072.412s1.913 3.881 1.563 5.5c0 0 4.987 1.612 5.54 4.272 0 0 2.73-3.594-7.103-9.772m-5.164 3.655s1.678 2.625 1.417 4.35l2.818 1.067a17.6 17.6 0 0 0 -.991-3.248zm3.784.691a14.16 14.16 0 0 1 .163 13.794 17.7 17.7 0 0 0 .594-6.585c-.017-.186-.031-.368-.053-.55l-5.488-3.658a14.1 14.1 0 0 1 1.133 4.465 14 14 0 0 1 -1.305 7.347 17.8 17.8 0 0 0 .442-5.988 1 1 0 0 1 -.022-.243l-5.133-2.726a11.6 11.6 0 0 1 1.075 3.93 11.79 11.79 0 0 1 -3.098 9.043c21.91-9.29 22.795-3.173 22.795-3.173s1.656-2.164 1.085-4.51c-.752-3.114-12.188-11.145-12.188-11.145zm-8.652 2.487s1.629 2.09 1.363 3.815l2.567.637a20 20 0 0 0 -.863-2.788z"/></svg>