<svg viewBox="0 0 128 128" xmlns="http://www.w3.org/2000/svg"><path d="m106.23 15.595c-.016-.015-.034-.025-.05-.04-20.114-17.267-48.532-20.331-72.049-8.322-23.501 12.002-36.88 38.767-33.655 64.707 2.252 18.127 12.359 34.022 26.796 44.235 0 0 39.797-35.537 50.365-48.148 9.912-11.837 31.554-49.638 31.554-49.638a62.743 62.743 0 0 0 -2.962-2.793z" fill="#e74a99"/><path d="m27.273 116.174a64.99 64.99 0 0 0 22.37 10.161c25.488 6.103 52.97-4.98 67.55-26.586 17.185-25.473 13.406-59.878-8.001-81.36l-40.748 48.641a569939.128 569939.128 0 0 0 -41.171 49.143z" fill="#27aae1"/><path d="m66.05 47.945s-6.1-13.346-18.796-10.309c-12.695 3.039-39.209 28.968 16.805 61.227h-.045c56.013-32.26 29.502-58.187 16.806-61.227-12.697-3.036-18.796 10.309-18.796 10.309z" fill="#fff"/></svg>