<svg xmlns="http://www.w3.org/2000/svg" width="512" height="512" viewBox="0 0 512 512"><g fill="currentColor" stroke-width=".472"><path d="M511.969 253.253C510.97 113.81 394.426 1.033 255.988.188V0C116.74.751-.564 115.312.054 255.6H.006C-.99 396.173 116.361 511.297 255.988 512v-.188c140.433-.657 258.213-117.283 255.98-258.559"/><path d="M452.556 256.023v.047c0 32.631-2.802 65.215-7.883 97.846-4.274 27.232-8.786 34.979-37.424 40.613-36.806 7.277-100.92 13.569-151.261 13.1v.187c-50.342.47-114.456-5.822-151.262-13.1-28.59-5.634-33.102-13.427-37.424-40.612-5.176-32.725-7.836-65.45-7.93-98.174h.047c0-32.678 2.802-65.31 7.883-97.94 4.275-27.232 8.786-34.978 37.424-40.613 36.806-7.277 100.92-13.568 151.262-13.099v.188c50.341-.47 114.455 5.822 151.261 13.1 28.59 5.633 33.102 13.427 37.424 40.612 5.081 32.584 7.883 65.215 7.883 97.846q0-.07 0 0"/><ellipse cx="255.988" cy="256.07" rx="115.405" ry="114.091"/></g></svg>