<svg height="512" viewBox="0 0 512 512" width="512" xmlns="http://www.w3.org/2000/svg" xmlns:xlink="http://www.w3.org/1999/xlink"><radialGradient id="a" cx="207.847" cy="162.458" gradientTransform="matrix(.8927 .0117 .02038 -1.5542 -127.293 366.1)" gradientUnits="userSpaceOnUse" r="119.25"><stop offset=".328" stop-color="#d4dfe7"/><stop offset=".661" stop-color="#b5c6da"/><stop offset=".708" stop-color="#91afda"/><stop offset=".863" stop-color="#356fb8"/><stop offset=".9" stop-color="#2b63ad"/><stop offset="1" stop-color="#3061b0"/></radialGradient><radialGradient id="b" cx="84.784" cy="530.944" fx="84.784" fy="530.944" gradientTransform="matrix(1.10304 0 0 1.10304 -249.158 -345.432)" gradientUnits="userSpaceOnUse" r="539.039" xlink:href="#a"/><radialGradient id="c" cx="271.705" cy="548.727" fx="271.705" fy="548.727" gradientTransform="matrix(1.20392 0 0 1.1902 -267.55 -393.069)" gradientUnits="userSpaceOnUse" r="243" xlink:href="#a"/><radialGradient id="d" cx="937.371" cy="540.902" fx="966.778" fy="543.711" gradientTransform="matrix(1.37947 0 0 1.21794 -677.848 -408.158)" gradientUnits="userSpaceOnUse" r="413.95" xlink:href="#a"/><g stroke-width=".472206"><path d="m511.969 253.253c-.999-139.443-117.543-252.22-255.981-253.065v-.188c-139.248.751-256.552 115.312-255.934 255.6h-.048c-.996 140.573 116.355 255.697 255.982 256.4v-.188c140.433-.657 258.213-117.283 255.98-258.559" fill="url(#b)"/><path d="m452.556 256.023v.047c0 32.631-2.802 65.215-7.883 97.846-4.274 27.232-8.786 34.979-37.424 40.613-36.806 7.277-100.92 13.569-151.261 13.1v.187c-50.342.47-114.456-5.822-151.262-13.1-28.59-5.634-33.102-13.427-37.424-40.612-5.176-32.725-7.836-65.45-7.93-98.174h.047c0-32.678 2.802-65.31 7.883-97.94 4.275-27.232 8.786-34.978 37.424-40.613 36.806-7.277 100.92-13.568 151.262-13.099v.188c50.341-.47 114.455 5.822 151.261 13.1 28.59 5.633 33.102 13.427 37.424 40.612 5.081 32.584 7.883 65.215 7.883 97.846q0-.07 0 0" fill="url(#d)"/><ellipse cx="255.988" cy="256.07" fill="url(#c)" rx="115.405" ry="114.091"/></g></svg>