<svg xmlns="http://www.w3.org/2000/svg" viewBox="0 0 105 105">
  <defs>
    <mask id="wko">
      <rect width="105" height="105" fill="white"/>
      <path fill="black" d="M29.98 71.16h22.5v3.75h-22.5zM30 30h9.2c5.36 0 8.61 3.18 8.61 7.77v.06c0 5.2-4.05 7.9-9.09 7.9H35v6.74h-5zm8.86 11.33c2.47 0 3.92-1.47 3.92-3.4v-.06c0-2.22-1.54-3.41-4-3.41H35v6.87zm11.63-.02v-.06A11.41 11.41 0 0 1 62.2 29.63a11.6 11.6 0 0 1 8.86 3.46l-3.14 3.63a8.33 8.33 0 0 0-5.75-2.54c-3.79 0-6.52 3.15-6.52 7v.07c0 3.85 2.67 7.06 6.52 7.06 2.57 0 4.14-1 5.91-2.63l3.14 3.17a11.46 11.46 0 0 1-9.21 4 11.35 11.35 0 0 1-11.52-11.54"/>
    </mask>
  </defs>
  <g fill="currentColor" mask="url(#wko)">
    <path fill="currentColor" d="m71.81 19.65 28.05 23.33-10.1 20.55-16.91-4.69H58.22z"/>
    <path fill="currentColor" d="m43.55 34.8-5.43 28.73-.52 9.76-13.69 5.93L4.5 81.31l5.89-62.07L45.56 4.5l21.67 14.21z"/>
    <path fill="currentColor" d="m43.55 34.8 2.64 55.36-8.77 10.34L4.5 81.31l27.03-40.28z"/>
    <path fill="currentColor" d="M79.77 30.76H46.51L75.9 4.5z"/>
    <path fill="currentColor" d="m100.5 90.38-29.28 9.94-38.99-10.98L43.55 34.8l4.52-4.04 23.74-2.23-2.15 23.84 18.88-7.32z"/>
  </g>
</svg>