<svg fill="none" height="48" viewBox="0 0 48 48" width="48" xmlns="http://www.w3.org/2000/svg" xmlns:xlink="http://www.w3.org/1999/xlink"><linearGradient id="a"><stop offset="0" stop-color="#1724c9"/><stop offset="1" stop-color="#1c64f2"/></linearGradient><linearGradient id="b" gradientUnits="userSpaceOnUse" x1="30.09" x2="34.811" xlink:href="#a" y1="35.655" y2="19.21"/><linearGradient id="c"><stop offset="0" stop-color="#1c64f2"/><stop offset="1" stop-color="#0092ff"/></linearGradient><linearGradient id="d" gradientUnits="userSpaceOnUse" x1="40.964" x2="28.545" xlink:href="#c" y1="15.601" y2="3.225"/><linearGradient id="e"><stop offset="0" stop-color="#0092ff"/><stop offset="1" stop-color="#45b2ff"/></linearGradient><linearGradient id="f" gradientUnits="userSpaceOnUse" x1="24.247" x2="5.511" xlink:href="#e" y1="7.532" y2="8.716"/><linearGradient id="g" gradientUnits="userSpaceOnUse" x1="22.98" x2="39.805" xlink:href="#c" y1="42.994" y2="38.454"/><linearGradient id="h" gradientUnits="userSpaceOnUse" x1="10.903" x2="22.849" xlink:href="#a" y1="23.524" y2="35.902"/><linearGradient id="i" gradientUnits="userSpaceOnUse" x1="38.176" x2="46.51" xlink:href="#e" y1="32.453" y2="15.652"/><linearGradient id="j" gradientUnits="userSpaceOnUse" x1="8.046" x2="3.586" xlink:href="#c" y1="13.696" y2="30.46"/><linearGradient id="k" gradientUnits="userSpaceOnUse" x1="30.815" x2="14.517" xlink:href="#a" y1="12.899" y2="16.957"/><linearGradient id="l" gradientUnits="userSpaceOnUse" x1="9.61" x2="19.999" xlink:href="#e" y1="32.035" y2="47.662"/><path d="m36.78 19.414c-.112.766-.617 1.806-1.196 2.71a5.05 5.05 0 0 1 -3.218 2.218l-5.846 1.223a4.5 4.5 0 0 0 -2.432 1.403l-3.833 4.285c-.72.806-1.224.613-1.224-.467-.009.04-1.903 4.925 3.116 7.82 1.929 1.112 4.705.712 6.633-.4l10.218-5.894a15.46 15.46 0 0 0 7.416-10.249q.05-.256.092-.513l-9.727-2.136z" fill="url(#b)"/><path d="m34.13 13.527c1.928 1.112 2.716 2.768 2.716 4.993q-.001.453-.067.894l4.117 1.769 5.61.367c.719-4.158-.69-8.437-3.213-11.838a23.9 23.9 0 0 0 -7.28-6.476 24.2 24.2 0 0 0 -7.359-2.78l-2.8 3.625-.884 4.163z" fill="url(#d)"/><path d="m1.175 16.578q0 .005.003 0c.216-.647.487-1.37.825-2.143 1.767-4.034 5.171-6.724 9.36-8.096a15.51 15.51 0 0 1 12.577 1.311l1.03.595 3.684-7.79c-11.718-2.34-23.694 4.545-27.464 16.078z" fill="url(#f)"/><path d="m28.38 38.206a6.24 6.24 0 0 1 -6.975-.505l-3.392 2.332-2.923 4.724c3.245 2.7 7.458 3.568 11.668 3.085a23.9 23.9 0 0 0 9.254-3.062 24.1 24.1 0 0 0 6.09-4.976l-1.742-4.234-2.82-2.647z" fill="url(#g)"/><path d="m21.405 37.701a6.22 6.22 0 0 1 -2.374-4.888v-16.203c0-.906.266-1.06 1.051-.607-1.209-.697-4.002-3.091-7.45-1.102-1.929 1.112-3.517 3.567-3.517 5.792v11.787c0 4.409 2.284 9.007 5.577 11.94.13.117.265.226.398.338z" fill="url(#h)"/><path d="m41.866 7.969q-.005-.003-.003.002c.454.51.945 1.106 1.446 1.785a15.45 15.45 0 0 1 2.685 12.346 15.49 15.49 0 0 1 -7.425 10.227l-1.03.593 4.563 6.882c7.888-8.968 7.908-22.77-.205-31.8z" fill="url(#i)"/><path d="m9.515 20.692a6.23 6.23 0 0 1 3.925-5.782l-.325-4.1-2.287-4.692a15.47 15.47 0 0 0 -8.855 8.353 23.9 23.9 0 0 0 -1.973 9.537c0 2.754.454 5.353 1.268 7.758l4.543.609 3.704-1.117z" fill="url(#j)"/><path d="m13.44 14.91a6.24 6.24 0 0 1 5.425.39l.166.095 13.343 7.697c.936.54.85 1.07-.207 1.292l.77-.161a5.05 5.05 0 0 0 2.645-1.484 6.13 6.13 0 0 0 1.664-4.22 6.23 6.23 0 0 0 -3.117-5.392l-10.217-5.893a15.5 15.5 0 0 0 -12.593-1.292c-.166.054-.328.116-.491.176z" fill="url(#k)"/><path d="m28.983 47.479q.005-.003 0-.003c-.67.137-1.432.264-2.27.357a15.477 15.477 0 0 1 -17.198-15.387v-1.188l-8.248.507c3.83 11.309 15.785 18.228 27.669 15.723.005 0 .025-.005.046-.01z" fill="url(#l)"/></svg>