<svg height="199" viewBox="-1.182 -1.182 214.574 41.77" width="1024" xmlns="http://www.w3.org/2000/svg"><path d="m56.526 7.741h10.333v30.899h-10.333z" fill="#9acd66"/><path d="m181.963 7.741h9.306v4.19h.134c1.292-2.41 4.455-4.955 9.168-4.955 9.828 0 11.639 6.356 11.639 14.628v17.035h-9.696v-15.132c0-3.555-.065-8.135-5.036-8.135-5.045 0-5.821 3.877-5.821 7.88v15.387h-9.694zm-37.648 15.446c0 9.855 7.755 16.22 17.455 16.22 9.69 0 17.445-6.365 17.445-16.22s-7.755-16.212-17.445-16.212c-9.7 0-17.455 6.358-17.455 16.212m9.691 0c0-4.637 2.913-7.814 7.764-7.814 4.836 0 7.752 3.177 7.752 7.814 0 4.646-2.916 7.826-7.752 7.826-4.85 0-7.764-3.18-7.764-7.826m-30.754-15.446h9.694v4.959h.128c2.071-3.746 4.778-5.723 9.051-5.723 1.095 0 2.323.065 3.224.319v8.716c-1.359-.384-2.708-.639-4.13-.639-7.374 0-8.273 4.203-8.273 10.365v12.902h-9.694zm-3.407 7.631h-8.533v10.29c0 3.314.39 5.729 4.588 5.729 1.036 0 3.104-.126 3.945-.883v7.941c-2.128.759-4.524.956-6.787.956-6.46 0-11.446-2.605-11.446-9.346v-14.687h-6.198v-7.63h6.198v-7.742h9.7v7.741h8.533zm-30.915 1.462c-1.42-1.717-3.295-2.608-5.618-2.608-1.614 0-3.557.704-3.557 2.541 0 4.583 16.347.702 16.347 12.462 0 7.886-7.751 10.177-14.472 10.177-4.396 0-9.243-1.087-12.344-4.2l5.882-6.42c1.807 2.159 3.944 3.368 6.846 3.368 2.202 0 4.397-.567 4.397-2.221 0-4.967-16.35-.766-16.35-12.528 0-7.252 6.591-10.43 13.186-10.43 4.139 0 8.727 1.023 11.636 4.067zm-32.404-16.834h10.333v7.741h-10.333zm-56.526 7.741h10.333l6.403 19.395h.127l5.37-19.395h10.594l5.816 19.395h.13l5.887-19.395h9.817l-11.177 30.899h-9.567l-6.526-20.531h-.13l-5.821 20.53h-9.753z" fill="#016c8c"/></svg>