<svg viewBox="0 0 24 24" xmlns="http://www.w3.org/2000/svg"><path d="m20.18 13.902a1.902 1.902 0 1 1 0-3.804 1.902 1.902 0 0 1 0 3.804m0-5.722a3.82 3.82 0 0 0 -3.82 3.82v3.82h3.82a3.82 3.82 0 1 0 0-7.64m-8.656 5.722a1.907 1.907 0 0 1 -1.913-1.902c0-1.05.857-1.902 1.913-1.902s1.913.852 1.913 1.902-.857 1.902-1.913 1.902m-7.683 0a1.907 1.907 0 0 1 -1.913-1.902c0-1.05.857-1.902 1.913-1.902 1.057 0 1.913.852 1.913 1.902s-.856 1.902-1.913 1.902m11.514-2.107-.002-.032a3.76 3.76 0 0 0 -.04-.37l-.004-.019a3.693 3.693 0 0 0 -.081-.373v-.001a3.836 3.836 0 0 0 -3.704-2.82h-7.684a3.833 3.833 0 0 0 -3.794 3.254l-.001.008c-.018.118-.03.236-.036.357l-.002.02v.016c-.001.055-.007.11-.007.165 0 .07.007.137.01.206l.002.032c.008.124.021.248.041.37l.003.018a3.833 3.833 0 0 0 3.786 3.194h11.523v-3.82c0-.07-.006-.137-.01-.205"/></svg>