<svg xmlns="http://www.w3.org/2000/svg" width="64" height="64" viewBox="0 0 64 64"><title>Icon-Architecture/48/Arch_Amazon-FinSpace_48</title><g id="Icon-Architecture/48/Arch_Amazon-FinSpace_48" fill="none" fill-rule="evenodd" stroke="none" stroke-width="1"><g id="Icon-Architecture-BG/48/Analytics" fill="#8c4fff"><path id="Rectangle" d="M0 0h64v64H0z"/></g><g id="Icon-Service/48/Amazon-FinSpace_48" fill="#fff" transform="translate(10 10)"><path id="Fill-4" d="M10 34h3V14.014l-3 1.942zm8-23.221-3 1.941V34h3zm2-1.294V34h4V9.485l-2-1.294zm9 3.235-3-1.941V34h3zm5 3.236-3-1.942V34h3zM40 36H4v-2h4V17.25l-2.457 1.589-1.086-1.678 17-11a1 1 0 0 1 1.086 0l17 11-1.086 1.678L36 17.25V34h4zM2 40h8v-2H2zm11 0h18v-2H13zm21 0h8v-2h-8zM0 44h20v-2H0zm24 0h20v-2H24zM1.555 15.832l-1.11-1.664 21-14a1 1 0 0 1 1.11 0l21 14-1.11 1.664L22 2.202z"/></g></g></svg>