<svg height="64" viewBox="0 0 64 64" width="64" xmlns="http://www.w3.org/2000/svg"><g fill="none" fill-rule="evenodd"><path d="m0 0h64v64h-64z" fill="#7aa116"/><path d="m29 17h6v-2h-6zm14 14v-6h-21v9h12v2h-13a1 1 0 0 1 -1-1v-11a1 1 0 0 1 1-1h23a1 1 0 0 1 1 1v7zm11-14.95v17.736h-2v-17.736c0-1.681-1.271-3.05-2.832-3.05h-34.336c-1.561 0-2.832 1.369-2.832 3.05v24.901c0 1.681 1.271 3.049 2.832 3.049h17.147v2h-17.147c-2.664 0-4.832-2.265-4.832-5.049v-24.901c0-2.784 2.168-5.05 4.832-5.05h34.336c2.664 0 4.832 2.266 4.832 5.05m-37.155 23.95h15.155v2h-15.155c-1.569 0-2.845-1.291-2.845-2.879v-21.241c0-1.588 1.276-2.88 2.845-2.88h8.155c.431 0 .813.276.948.684l.773 2.316h10.558l.773-2.316a1 1 0 0 1 .948-.684h8.155c1.569 0 2.845 1.292 2.845 2.88v14.03h-2v-14.03c0-.477-.387-.88-.845-.88h-7.434l-.773 2.317a1 1 0 0 1 -.948.683h-12a1 1 0 0 1 -.948-.683l-.773-2.317h-7.434c-.458 0-.845.403-.845.88v21.241c0 .477.387.879.845.879m26.655 5.055a2.557 2.557 0 0 1 -2.554-2.555 2.557 2.557 0 0 1 2.554-2.554 2.557 2.557 0 0 1 2.554 2.554 2.557 2.557 0 0 1 -2.554 2.555m0-7.109a4.56 4.56 0 0 0 -4.554 4.554 4.56 4.56 0 0 0 4.554 4.555 4.56 4.56 0 0 0 4.554-4.555 4.56 4.56 0 0 0 -4.554-4.554m7.886 5.262-.417-.024a.996.996 0 0 0 -1.033.778 6.6 6.6 0 0 1 -.852 2.057 1 1 0 0 0 .18 1.279l.311.279-1 1-.275-.309a1 1 0 0 0 -1.28-.18 6.5 6.5 0 0 1 -2.058.852 1 1 0 0 0 -.778 1.033l.023.413h-1.414l.023-.414a1 1 0 0 0 -.777-1.033 6.5 6.5 0 0 1 -2.058-.853 1 1 0 0 0 -1.28.18l-.277.31-1-.999.31-.277a1 1 0 0 0 .18-1.28 6.6 6.6 0 0 1 -.851-2.058 1.015 1.015 0 0 0 -1.033-.778l-.416.024v-1.415l.42.024c.451.02.924-.301 1.032-.778a6.5 6.5 0 0 1 .853-2.053 1 1 0 0 0 -.18-1.28l-.315-.281 1.001-1.001.28.315a1 1 0 0 0 1.279.179 6.5 6.5 0 0 1 2.054-.849 1 1 0 0 0 .778-1.032l-.023-.422h1.414l-.023.423c-.029.487.3.924.777 1.032.728.164 1.419.45 2.054.85a1 1 0 0 0 1.279-.18l.282-.315 1 1-.313.28a1 1 0 0 0 -.18 1.279c.399.634.687 1.325.852 2.056.108.477.544.797 1.033.777l.418-.024zm.942-3.472-.673.038a8.4 8.4 0 0 0 -.461-1.112l.503-.45a1 1 0 0 0 .041-1.453l-2.497-2.497a1 1 0 0 0 -1.453.041l-.451.506a8.5 8.5 0 0 0 -1.111-.46l.038-.678a1 1 0 0 0 -.998-1.056h-3.532a.998.998 0 0 0 -.998 1.056l.038.676q-.572.19-1.112.461l-.45-.505a1 1 0 0 0 -1.453-.041l-2.497 2.497a1 1 0 0 0 .041 1.453l.505.451a8 8 0 0 0 -.462 1.111l-.675-.038a1.001 1.001 0 0 0 -1.057.998v3.533a1 1 0 0 0 1.058.998l.67-.038q.19.573.462 1.115l-.501.447a1 1 0 0 0 -.041 1.453l2.497 2.497c.194.195.485.302.735.293a1 1 0 0 0 .718-.334l.446-.5q.543.27 1.116.463l-.038.668a1 1 0 0 0 .272.743c.188.2.451.314.726.314h3.532a1 1 0 0 0 .726-.314 1 1 0 0 0 .272-.743l-.038-.667a9 9 0 0 0 1.117-.463l.445.499a1 1 0 0 0 1.453.041l2.497-2.497a.996.996 0 0 0 -.041-1.453l-.502-.448q.27-.542.462-1.114l.671.038a1.001 1.001 0 0 0 1.058-.998v-3.533a1 1 0 0 0 -1.058-.998" fill="#fff"/><path d="m0 0h64v64h-64z" fill="#7aa116"/><path d="m29 17h6v-2h-6zm14 14v-6h-21v9h12v2h-13a1 1 0 0 1 -1-1v-11a1 1 0 0 1 1-1h23a1 1 0 0 1 1 1v7zm11-14.95v17.736h-2v-17.736c0-1.681-1.271-3.05-2.832-3.05h-34.336c-1.561 0-2.832 1.369-2.832 3.05v24.901c0 1.681 1.271 3.049 2.832 3.049h17.147v2h-17.147c-2.664 0-4.832-2.265-4.832-5.049v-24.901c0-2.784 2.168-5.05 4.832-5.05h34.336c2.664 0 4.832 2.266 4.832 5.05m-37.155 23.95h15.155v2h-15.155c-1.569 0-2.845-1.291-2.845-2.879v-21.241c0-1.588 1.276-2.88 2.845-2.88h8.155c.431 0 .813.276.948.684l.773 2.316h10.558l.773-2.316a1 1 0 0 1 .948-.684h8.155c1.569 0 2.845 1.292 2.845 2.88v14.03h-2v-14.03c0-.477-.387-.88-.845-.88h-7.434l-.773 2.317a1 1 0 0 1 -.948.683h-12a1 1 0 0 1 -.948-.683l-.773-2.317h-7.434c-.458 0-.845.403-.845.88v21.241c0 .477.387.879.845.879m26.655 5.055a2.557 2.557 0 0 1 -2.554-2.555 2.557 2.557 0 0 1 2.554-2.554 2.557 2.557 0 0 1 2.554 2.554 2.557 2.557 0 0 1 -2.554 2.555m0-7.109a4.56 4.56 0 0 0 -4.554 4.554 4.56 4.56 0 0 0 4.554 4.555 4.56 4.56 0 0 0 4.554-4.555 4.56 4.56 0 0 0 -4.554-4.554m7.886 5.262-.417-.024a.996.996 0 0 0 -1.033.778 6.6 6.6 0 0 1 -.852 2.057 1 1 0 0 0 .18 1.279l.311.279-1 1-.275-.309a1 1 0 0 0 -1.28-.18 6.5 6.5 0 0 1 -2.058.852 1 1 0 0 0 -.778 1.033l.023.413h-1.414l.023-.414a1 1 0 0 0 -.777-1.033 6.5 6.5 0 0 1 -2.058-.853 1 1 0 0 0 -1.28.18l-.277.31-1-.999.31-.277a1 1 0 0 0 .18-1.28 6.6 6.6 0 0 1 -.851-2.058 1.015 1.015 0 0 0 -1.033-.778l-.416.024v-1.415l.42.024c.451.02.924-.301 1.032-.778a6.5 6.5 0 0 1 .853-2.053 1 1 0 0 0 -.18-1.28l-.315-.281 1.001-1.001.28.315a1 1 0 0 0 1.279.179 6.5 6.5 0 0 1 2.054-.849 1 1 0 0 0 .778-1.032l-.023-.422h1.414l-.023.423c-.029.487.3.924.777 1.032.728.164 1.419.45 2.054.85a1 1 0 0 0 1.279-.18l.282-.315 1 1-.313.28a1 1 0 0 0 -.18 1.279c.399.634.687 1.325.852 2.056.108.477.544.797 1.033.777l.418-.024zm.942-3.472-.673.038a8.4 8.4 0 0 0 -.461-1.112l.503-.45a1 1 0 0 0 .041-1.453l-2.497-2.497a1 1 0 0 0 -1.453.041l-.451.506a8.5 8.5 0 0 0 -1.111-.46l.038-.678a1 1 0 0 0 -.998-1.056h-3.532a.998.998 0 0 0 -.998 1.056l.038.676q-.572.19-1.112.461l-.45-.505a1 1 0 0 0 -1.453-.041l-2.497 2.497a1 1 0 0 0 .041 1.453l.505.451a8 8 0 0 0 -.462 1.111l-.675-.038a1.001 1.001 0 0 0 -1.057.998v3.533a1 1 0 0 0 1.058.998l.67-.038q.19.573.462 1.115l-.501.447a1 1 0 0 0 -.041 1.453l2.497 2.497c.194.195.485.302.735.293a1 1 0 0 0 .718-.334l.446-.5q.543.27 1.116.463l-.038.668a1 1 0 0 0 .272.743c.188.2.451.314.726.314h3.532a1 1 0 0 0 .726-.314 1 1 0 0 0 .272-.743l-.038-.667a9 9 0 0 0 1.117-.463l.445.499a1 1 0 0 0 1.453.041l2.497-2.497a.996.996 0 0 0 -.041-1.453l-.502-.448q.27-.542.462-1.114l.671.038a1.001 1.001 0 0 0 1.058-.998v-3.533a1 1 0 0 0 -1.058-.998" fill="#fff"/></g></svg>