<svg fill="none" height="18" viewBox="0 0 18 18" width="18" xmlns="http://www.w3.org/2000/svg" xmlns:xlink="http://www.w3.org/1999/xlink"><linearGradient id="a" gradientUnits="userSpaceOnUse" x1="9" x2="9" y1="17.951" y2=".049"><stop offset=".09" stop-color="#32bedd"/><stop offset="1" stop-color="#50e6ff"/></linearGradient><path clip-rule="evenodd" d="m.797 2.235 3.723 6.371.043.074v5.567h-2.067a.327.327 0 0 0 -.331.323v1.233c0 .08.067.145.149.145h14.956c.038 0 .069-.03.069-.066v-1.312a.327.327 0 0 0 -.331-.322h-10.226v-5.568l.043-.074 3.724-6.37c-.568-.583-2.156-1.593-4.876-1.593s-4.308 1.011-4.876 1.592m4.726-.657c-1.814 0-2.891.736-3.234 1.18l-.14.183.13.19 1.08 1.577.143.21.243-.085c.285-.099.54-.177.778-.235.939-.228 1.636-.157 2.78.236l.242.083.143-.209 1.08-1.577.13-.19-.141-.182c-.343-.445-1.42-1.181-3.234-1.181" fill="url(#a)" fill-rule="evenodd"/><path clip-rule="evenodd" d="m.797 2.235 3.723 6.371.043.074v5.567h-2.067a.327.327 0 0 0 -.331.323v1.233c0 .08.067.145.149.145h14.956c.038 0 .069-.03.069-.066v-1.312a.327.327 0 0 0 -.331-.322h-10.226v-5.568l.043-.074 3.724-6.37c-.568-.583-2.156-1.593-4.876-1.593s-4.308 1.011-4.876 1.592m-.667-.23c.552-.719 2.385-2.005 5.543-2.005s4.991 1.286 5.543 2.006l.13.169-.107.183-3.796 6.493v4.752h1.258v-.44a.98.98 0 0 1 .992-.967h5.875a.98.98 0 0 1 .992.966v.441h.448a.98.98 0 0 1 .992.967v1.312a.71.71 0 0 1 -.4.634v.46a.98.98 0 0 1 -.992.967h-1.653a.98.98 0 0 1 -.993-.967v-.383h-11.317l-.662-.069a.79.79 0 0 1 -.48-.72v-1.234a.98.98 0 0 1 .993-.967h1.407v-4.752l-3.796-6.493-.107-.183zm14.494 14.588v.383c0 .178.148.322.33.322h1.654c.183 0 .331-.144.331-.322v-.383zm1.275-2.99v-.44a.327.327 0 0 0 -.33-.323h-5.877a.327.327 0 0 0 -.33.322v.441zm-12.924-10.617.792 1.158.204-.064-.364-.723.593-.284.425.842c.903-.177 1.653-.092 2.653.23l.793-1.159c-.354-.302-1.182-.764-2.548-.764s-2.194.462-2.548.764m-.685-.226c.343-.445 1.42-1.181 3.234-1.181s2.891.736 3.234 1.18l.14.183-.13.19-1.08 1.577-.142.209-.243-.083c-1.143-.393-1.84-.464-2.779-.236a9 9 0 0 0 -.778.235l-.243.085-.144-.21-1.08-1.577-.13-.19z" fill="url(#a)" fill-rule="evenodd"/><g fill="#1e87dd"><path d="m2.645 16.593v.44c0 .178.148.322.33.322h2.036c.183 0 .331-.144.331-.322v-.44zm11.979 0v.383c0 .178.148.322.33.322h1.654c.183 0 .331-.144.331-.322v-.383zm1.275-2.99v-.44a.327.327 0 0 0 -.33-.323h-5.877a.327.327 0 0 0 -.33.322v.441z"/><path clip-rule="evenodd" d="m2.975 2.986.792 1.158.204-.064-.364-.723.593-.284.425.842c.903-.177 1.653-.092 2.653.23l.793-1.159c-.354-.302-1.182-.764-2.548-.764s-2.194.462-2.548.764m-.685-.226c.343-.445 1.42-1.181 3.234-1.181s2.891.736 3.234 1.18l.14.183-.13.19-1.08 1.577-.142.209-.243-.083c-1.143-.393-1.84-.464-2.779-.236a9 9 0 0 0 -.778.235l-.243.085-.144-.21-1.08-1.577-.13-.19z" fill-rule="evenodd"/><path d="m1.983 16.524v.51a.98.98 0 0 0 .993.966h2.034a.98.98 0 0 0 .993-.967v-.44h-.662v.44a.327.327 0 0 1 -.33.322h-2.036a.327.327 0 0 1 -.331-.322v-.44zm11.979.069v.383a.98.98 0 0 0 .993.967h1.653a.98.98 0 0 0 .993-.967v-.383h-.662v.383a.327.327 0 0 1 -.33.322h-1.654a.327.327 0 0 1 -.331-.322v-.383zm2.598-2.99v-.44a.98.98 0 0 0 -.992-.967h-5.875a.98.98 0 0 0 -.992.966v.441h.662v-.44c0-.178.148-.323.33-.323h5.875c.183 0 .33.145.33.322v.441z"/></g></svg>