<svg viewBox="0 0 899.99 898.06" xmlns="http://www.w3.org/2000/svg"><path d="m315.87 430.81-4.44 75.17 46.76-12.53-41.44-62.88z" fill="#ff0028"/><path d="m844 476 56-33.47-20.87-11.61-100.78 27-46.23-172.43 30.77-8.24 38.75 144.63 41.36-11.08 49.75-42.21-61.42-22 42.22-49.75-64.21-11.63 33.41-56.05-65.24-.83 23.65-60.8-64.48 10 13.32-63.93-62 20.4 2.67-65.19-57.79 30.3-8-64.75-52 39.36-18.67-62.54-44.82 47.42-28.7-58.6-36.33 54.19-38-53-26.94 59.39-46.13-46.15-16.91 63-53.07-37.93-6.26 64.94-58.63-28.62 4.6 65.09-62.56-18.55 15.25 63.44-64.75-8 25.44 60.09-65.2 2.69 34.94 55.1-63.87 13.32 43.54 48.61-60.81 23.73 51 40.72-56 33.47 57 31.72-49.73 42.22 61.42 22-42.21 49.77 64.2 11.63-33.41 56 65.25.82-23.66 60.86 64.48-10-13.34 63.91 62-20.46-2.67 65.19 57.78-30.19 8 64.75 52-39.36 18.59 62.54 44.82-47.42 28.7 58.6 36.33-54.2 38 53 26.94-59.43 46.13 46.15 16.91-63 53.08 37.95 6.25-64.95 58.63 28.63-4.49-65.11 62.56 18.55-15.25-63.45 64.75 8-25.44-60.09 65.2-2.69-34.94-55.1 63.84-13.37-43.53-48.6 60.81-23.68zm-609.64 127.68-35.57-132.74-3.88 143.31-26.69 7.15-75-122.17 35.56 132.77-30.78 8.22-46.2-172.44 46.67-12.5 70.12 114.12 3.66-133.89 46.67-12.51 46.21 172.44zm167-44.74-26.36-39.94-65.36 17.52-2.82 47.79-30.82 8.22 13.54-188.44 36.69-9.84 106 156.43zm141.52-192.73 38.7 144.44-30.77 8.24-38.7-144.44-63 16.88 38.7 144.44-30.76 8.23-38.7-144.43-49.35 13.24-7.5-28 223.27-59.81 7.51 28zm103.55 127.06-46.21-172.44 110.59-29.63 7.5 28-79.82 21.39 11 41.07 73.32-19.66 7.45 27.81-73.26 19.66 12.69 47.53 81.31-21.77 7.5 28z" fill="#ff0028"/><path d="m584.77 324.97-223.32 59.84 7.5 28 49.4-13.24 38.7 144.44 30.77-8.24-38.7-144.44 62.99-16.88 38.7 144.44 30.77-8.25-38.7-144.43 49.4-13.24zm-412.52 110.54-3.66 133.89-70.12-114.12-46.67 12.5 46.2 172.44 30.78-8.25-35.57-132.74 75.01 122.17 26.69-7.15 3.88-143.31 35.57 132.74 30.77-8.24-46.2-172.44zm578.79-.28-81.35 21.79-12.74-47.55 73.31-19.64-7.45-27.81-73.31 19.65-11-41.08 79.81-21.39-7.5-28-110.59 29.63 46.21 172.44 112.11-30.04zm-424.83-40.98-36.69 9.84-13.52 188.44 30.83-8.26 2.82-47.79 65.35-17.48 26.34 40 30.83-8.26zm-14.78 111.75 4.44-75.17.88-.24 41.44 62.88zm490.21-84.12-38.75-144.63-30.77 8.24 46.21 172.44 100.79-27.01-36.15-20.11v-.01z" fill="#fff"/><g fill="#ff0028"><path d="m790.53 763.52h-2.95v-17.93h6.8a8.23 8.23 0 0 1 4.89 1.21 4.57 4.57 0 0 1 1.65 3.94 4.39 4.39 0 0 1 -1.34 3.55 6.16 6.16 0 0 1 -3.34 1.35l5 7.88h-3.34l-4.63-7.67h-2.77zm3.29-10.18c.55 0 1.07 0 1.58-.06a3.6 3.6 0 0 0 1.32-.37 2.4 2.4 0 0 0 .91-.85 2.84 2.84 0 0 0 .34-1.53 2.1 2.1 0 0 0 -.36-1.3 2.6 2.6 0 0 0 -.93-.74 3.9 3.9 0 0 0 -1.26-.32 12 12 0 0 0 -1.34-.07h-3.55v5.24z"/><path d="m793.77 770.88a16.33 16.33 0 1 1 16.33-16.33 16.35 16.35 0 0 1 -16.33 16.33m0-29.8a13.48 13.48 0 1 0 13.48 13.47 13.48 13.48 0 0 0 -13.48-13.47"/></g></svg>