<svg height="48" viewBox="0 0 48 48" width="48" xmlns="http://www.w3.org/2000/svg"><path d="m2 15.353h43.92v-13.353h-43.92zm2-1.999h39.92v-9.354h-39.92zm20.706 16.847h21.214v-13.354h-21.214zm2-2.001h17.214v-9.353h-17.214zm-24.706 2.001h21.213v-13.354h-21.213zm2-2.001h17.213v-9.353h-17.213zm28.567 16.847h13.353v-13.353h-13.353zm1.999-2h9.354v-9.354h-9.354zm-17.719 2h14.226v-13.353h-14.226zm2-2h10.227v-9.354h-10.227zm-16.847 2h13.352v-13.353h-13.352zm2-2h9.353v-9.354h-9.353z" fill="#e7157b" fill-rule="evenodd"/></svg>