<svg height="48" viewBox="0 0 48 48" width="48" xmlns="http://www.w3.org/2000/svg"><path d="m30.449 30.285-3.282 1.77-.949-1.761 2.04-1.1-.512-3.313 1.452-1.881-1.452-1.881.512-3.313-2.04-1.1.949-1.76 3.282 1.77-.596 3.86 1.872 2.424-1.872 2.424zm6.909-6.285-3.055 3.323.957 5.196-5.264 3.327-1.068-1.691 4.121-2.604-.892-4.847 2.484-2.704-2.484-2.703.892-4.847-4.121-2.604 1.068-1.691 5.264 3.327-.957 5.196zm-17.616 5.194 2.04 1.1-.949 1.76-3.282-1.77.595-3.86-1.872-2.424 1.872-2.423-.595-3.861 3.282-1.77.949 1.76-2.04 1.1.512 3.313-1.452 1.88 1.452 1.882zm-4.791 2.357 4.121 2.604-1.068 1.69-5.264-3.326.956-5.196-3.055-3.323 3.055-3.322-.956-5.196 5.264-3.327 1.068 1.69-4.121 2.605.892 4.847-2.485 2.703 2.485 2.704zm9.049-6.551a1 1 0 1 1 0-2.001 1 1 0 0 1 0 2m0-4c-1.655 0-3 1.346-3 3 0 1.655 1.345 3 3 3 1.654 0 3-1.345 3-3 0-1.654-1.346-3-3-3m15 16.866c0 .625-.509 1.135-1.135 1.135h-27.73a1.136 1.136 0 0 1 -1.135-1.134v-27.731c0-.625.509-1.135 1.135-1.135h27.73c.626 0 1.135.51 1.135 1.135zm7-22.865v-2h-5v-2.865a3.14 3.14 0 0 0 -3.135-3.135h-2.865v-5h-2v5h-3v-5h-2v5h-3v-5h-2v5h-3v-5h-2v5h-3v-5h-2v5h-2.865a3.14 3.14 0 0 0 -3.135 3.135v2.865h-5v2h5v3h-5v2h5v3h-5v2h5v3h-5v2h5v3h-5v2h5v2.866a3.14 3.14 0 0 0 3.135 3.134h2.865v5h2v-5h3v5h2v-5h3v5h2v-5h3v5h2v-5h3v5h2v-5h2.865a3.14 3.14 0 0 0 3.135-3.134v-2.866h5v-2h-5v-3h5v-2h-5v-3h5v-2h-5v-3h5v-2h-5v-3z" fill="#7aa116" fill-rule="evenodd"/></svg>