<svg height="64" viewBox="0 0 64 64" width="64" xmlns="http://www.w3.org/2000/svg"><g fill="none" fill-rule="evenodd"><path d="m0 0h64v64h-64z" fill="#e7157b"/><path d="m38 35.412v-5.699l-5 2.86v5.698zm-12-.935 5 3.573v-5.479l-5-2.858zm1.016-6.488 4.985 2.85 4.983-2.85-4.984-2.849zm12.984 0v8.004c0 .359-.192.69-.504.868l-7 4.002a.996.996 0 0 1 -1.077-.054l-7-5.002a1 1 0 0 1 -.419-.815v-7.002a1 1 0 0 1 .504-.868l7-4.002a1 1 0 0 1 .992 0l7 4.002a1 1 0 0 1 .504.868m14 3.002h-7.586l3.293-3.295-1.414-1.414-5 5.002a1 1 0 0 0 0 1.414l5 5.002 1.414-1.414-3.293-3.295h7.586zm-38.231-5.643-1.538 1.28 3.634 4.363h-7.865v2h7.586l-3.293 3.295 1.414 1.414 5-5.002a1 1 0 0 0 .062-1.347zm17.231 24.886.001-7.24h-2l-.001 7.242-3.231-3.88-1.538 1.28 4.999 6.003a1.003 1.003 0 0 0 1.538 0l5.001-6.003-1.538-1.28zm-5.231-32.61-1.538-1.28 4.999-6.003c.381-.456 1.157-.456 1.538 0l5.001 6.003-1.538 1.28-3.231-3.878.001 7.24h-2l-.001-7.243z" fill="#fff"/></g></svg>