<svg xmlns="http://www.w3.org/2000/svg" width="18" height="18" viewBox="0 0 18 18">
  <defs>
    <mask id="ko">
      <rect width="18" height="18" fill="white"/>
      <path fill="black" d="M.5 5.788h17v9.478a.57.57 0 0 1-.568.568H1.068a.57.57 0 0 1-.568-.568z"/>
      <path fill="black" d="m2.825 7.979.369-.37a.167.167 0 0 1 .236-.001l2.732 2.724a.335.335 0 0 1 0 .474l-.368.37-2.968-2.96a.167.167 0 0 1 0-.237z"/>
      <path fill="black" d="m3.249 13.504-.37-.37a.167.167 0 0 1 0-.236l2.916-2.925.37.368a.335.335 0 0 1 0 .474l-2.683 2.691a.167.167 0 0 1-.236 0z"/>
      <rect fill="black" x="7.221" y="12.64" width="4.771" height="1.011"/>
    </mask>
  </defs>
  <g>
    <path fill="currentColor" mask="url(#ko)" d="M1.071 2.166h15.858a.57.57 0 0 1 .568.568v3.054H.5V2.734a.57.57 0 0 1 .571-.568"/>
  </g>
</svg>