<svg viewBox="0 0 24 24" xmlns="http://www.w3.org/2000/svg"><path d="m9.83 7.59c.817.005 1.437.238 1.842.692.383.431.567 1.054.547 1.85l-.014.061c-.008.018-.02.036-.035.05-.03.029-.071.045-.113.045h-1.659c-.108 0-.199-.088-.199-.195 0-.424-.128-.658-.39-.71l-.12-.011c-.342 0-.564.211-.57.579-.007.41.225.783.885 1.423.868.816 1.217 1.539 1.2 2.493-.027 1.544-1.077 2.543-2.673 2.543-.815 0-1.438-.219-1.853-.649-.42-.437-.612-1.078-.572-1.906.002-.042.019-.083.049-.112s.071-.045.112-.045h1.716c.024.001.047.007.069.017.021.011.04.026.055.045.013.015.022.033.028.053.005.019.006.04.002.06-.019.298.034.521.151.645.075.08.181.121.311.121.317 0 .503-.225.51-.615.006-.337-.102-.634-.682-1.232-.751-.734-1.424-1.492-1.403-2.684.013-.692.287-1.324.774-1.781.514-.482 1.216-.737 2.032-.737zm-5.783.028c.747-.006 1.334.224 1.742.685.432.487.651 1.221.652 2.182-.001.042-.019.082-.049.112-.03.029-.07.046-.112.046h-1.801c-.031-.001-.062-.014-.084-.036-.022-.023-.034-.054-.035-.085-.014-.623-.188-.946-.532-.984l-.071-.004c-.69.001-1.097.938-1.313 1.458-.302.727-.456 1.515-.426 2.301.015.366.074.88.42 1.093.308.189.747.064 1.013-.146.265-.209.479-.571.569-.901.013-.046.013-.081.001-.098-.006-.008-.018-.012-.032-.015l-.504-.004c-.024 0-.049-.006-.071-.016s-.042-.025-.058-.044c-.012-.014-.021-.032-.025-.05-.004-.019-.004-.038 0-.056l.316-1.374c.016-.071.079-.124.157-.134v-.003h3.035c.007 0 .015 0 .021.001.079.01.135.084.134.164v.004l-.316 1.371c-.017.078-.095.135-.184.135h-.381c-.013 0-.027.005-.038.013s-.019.02-.023.033c-.352 1.194-.829 2.016-1.458 2.509-.536.42-1.195.616-2.077.616-.792 0-1.326-.255-1.779-.758-.598-.666-.845-1.754-.695-3.067.27-2.463 1.546-4.948 4.004-4.948zm16.969.132c2.01 0 3.014.912 2.983 2.711-.037 2.108-1.321 3.658-3.254 4.016-.275.05-.554.07-.833.068l-.934-.004c-.015 0-.03.006-.041.017-.011.01-.017.025-.017.04 0 .01.002.02.008.029.005.009.013.016.022.021l.794.414c.065.034.091.091.076.164-.005.023-.202.913-.207.933-.017.078-.08.123-.171.123h-1.703c-.024 0-.049-.005-.071-.015s-.042-.026-.058-.044c-.012-.015-.021-.032-.025-.05-.005-.018-.004-.038 0-.057l1.896-8.241c.019-.086.1-.124.172-.124zm-3.743.012c.019.008.037.019.051.033.014.015.027.033.034.052.008.019.011.039.011.059l-.011 8.213c.003.019.002.039-.003.058s-.015.036-.027.051c-.015.017-.033.031-.054.04-.02.009-.042.014-.064.013h-1.813c-.02.001-.041-.004-.06-.011-.019-.008-.037-.02-.051-.034-.014-.015-.026-.032-.033-.051-.008-.019-.012-.039-.012-.06l.039-.797c.002-.087 0-.111-.051-.117l-.068-.002h-1.714c-.124 0-.133.011-.177.125l-.356.857c-.032.061-.096.09-.192.09h-1.795c-.109 0-.187-.108-.146-.209l3.718-8.199c.025-.049.063-.123.149-.123h2.566c.02 0 .04.004.059.012zm-1.773 2.223c-.008-.032-.034-.029-.055.013-.015.03-.029.062-.04.093l-1.284 3.183c-.007.02-.012.036-.016.048-.001.006-.002.013-.001.019s.004.012.007.017c.004.005.009.009.015.012.005.003.011.006.017.006l1.072.014c.119-.01.125-.016.137-.137.002-.043.154-3.231.148-3.268zm4.612-.403c-.015 0-.029.006-.04.017-.011.01-.017.025-.018.04 0 .01.003.02.008.029.006.009.013.017.022.022.013.007.785.414.842.445.042.023.043.063.029.132-.007.031-.54 2.375-.539 2.377.003.003.019.011.099.011h.036c.895-.036 1.383-1.094 1.401-2.121.009-.555-.18-.896-.523-.946l-.071-.006z"/></svg>