<svg viewBox="0 0 24 24" xmlns="http://www.w3.org/2000/svg"><path d="m11.47 0c-3.655.2-5.17 2.293-5.598 3.43-1.615 4.866-3.127 14.325-3.33 15.662-.201 1.31-.228 2.119-.228 2.119 0 .328.026.705.102 1.059.454 1.286 1.792 2.37 4.768 1.287a192.353 192.353 0 0 0 9.533-4.44c1.387-.807 3.227-2.32 4.236-4.312.404-.807.682-1.716.733-2.65v-.452c-.026-2.295-.052-4.692-.204-7.013 0 0-.125-1.488-.2-2.017-.076-.53-.177-.733-.177-.733-.479-1.034-1.412-1.56-2.395-1.814-.48-.1-1.01-.102-1.615-.126zm4.692 4.44h.252c.277 0 .48.2.48.452v1.638c0 .252-.203.455-.48.455h-.252c-1.589 0-2.875 1.26-2.875 2.8v2.498c0 2.976-2.472 5.37-5.498 5.37h-.254c-.277 0-.478-.2-.478-.452v-1.64c0-.253.226-.454.478-.454h.254c1.589 0 2.875-1.262 2.875-2.8v-2.497c0-2.977 2.472-5.373 5.498-5.373z"/></svg>