<svg height="64" viewBox="0 0 64 64" width="64" xmlns="http://www.w3.org/2000/svg"><g fill="none" fill-rule="evenodd"><path d="m0 0h64v64h-64z" fill="#c925d1"/><path d="m17.991 32.118c0-2.757 2.243-5 5-5s5 2.243 5 5-2.243 5-5 5-5-2.243-5-5m33.009-10.928h-38a1 1 0 0 0 -1 1v21.557a1 1 0 0 0 .5.866l16.5 9.527a1.01 1.01 0 0 0 1.006-.004l10.519-6.173-1.991-1.15-2.717 1.594a13.4 13.4 0 0 0 -1.481-4.413l-1.731 1a11.4 11.4 0 0 1 1.324 4.521l-4.433 2.601-15.215-8.784a11.24 11.24 0 0 1 8.719-4.142c1.906 0 3.7.502 5.264 1.38l1.961-1.132a12.8 12.8 0 0 0 -3.147-1.57 6.99 6.99 0 0 0 2.922-5.678c0-4.32-3.935-7.738-8.407-6.862-2.738.537-4.937 2.751-5.461 5.491a6.99 6.99 0 0 0 2.774 7.037 13.2 13.2 0 0 0 -4.906 2.859v-17.527h36v3.656l2 1.156v-5.81a1 1 0 0 0 -1-1m.5 8.767-8.5-4.907a1 1 0 0 0 -1 0l-8.5 4.907a1 1 0 0 0 -.5.867v6.944l2-1.154v-5.214l7.5-4.329 7.5 4.329v8.677l-7.512 4.338-4.513-2.606-1.999 1.155 6.012 3.471a1 1 0 0 0 1 0l8.512-4.914c.309-.179.5-.509.5-.866v-9.832c0-.358-.191-.688-.5-.867m-34.049-10.85 12.04-6.95 12.04 6.95h4l-15.54-8.972a1 1 0 0 0 -1 0l-15.54 8.972zm8.853 27.138-1-1.732 15.068-8.7 1 1.732z" fill="#fff"/></g></svg>