<svg xmlns="http://www.w3.org/2000/svg" width="18" height="18" viewBox="0 0 18 18"><defs><mask id="a"><path fill="#fff" d="M0 0h18v18H0z"/><path d="M9.743.908v4.149a1.524 1.524 0 0 0 1.52 1.523h4.18v10.512H2.557V.908zM10.036 0H2.264a.614.614 0 0 0-.614.615v16.77a.614.614 0 0 0 .614.615h13.472a.614.614 0 0 0 .614-.615V6.286a.614.614 0 0 0-.614-.614h-4.473a.614.614 0 0 1-.613-.615V.615A.614.614 0 0 0 10.036 0"/><path d="M16.116 5.794 10.438.134v4.612a1.04 1.04 0 0 0 1.035 1.048z"/><path d="M4 8.196h9.999v1.341H4z"/><path d="M4 10.599h9.999v1.341H4z"/><path d="M4 13.002h6.302v1.341H4z"/></mask></defs><path fill="currentColor" d="M10.023.134H2.362a.605.605 0 0 0-.605.606v16.52a.605.605 0 0 0 .605.606h13.276a.605.605 0 0 0 .6-.606V6.327a.605.605 0 0 0-.6-.606h-4.406a.605.605 0 0 1-.6-.605V.74a.6.6 0 0 0-.609-.606" mask="url(#a)"/></svg>