<svg height="18" viewBox="0 0 18 18" width="18" xmlns="http://www.w3.org/2000/svg" xmlns:xlink="http://www.w3.org/1999/xlink"><linearGradient id="a" gradientUnits="userSpaceOnUse" x1="9" x2="9" y1="18"><stop offset="0" stop-color="#0078d4"/><stop offset=".817" stop-color="#5ea0ef"/></linearGradient><path d="m10.023.134h-7.661a.605.605 0 0 0 -.605.606v16.52a.605.605 0 0 0 .605.606h13.276a.605.605 0 0 0 .6-.606v-10.933a.605.605 0 0 0 -.6-.606h-4.406a.605.605 0 0 1 -.6-.605v-4.376a.6.6 0 0 0 -.609-.606" fill="#fff"/><path d="m9.743.908v4.149a1.524 1.524 0 0 0 1.52 1.523h4.18v10.512h-12.886v-16.184zm.293-.908h-7.772a.614.614 0 0 0 -.614.615v16.77a.614.614 0 0 0 .614.615h13.472a.614.614 0 0 0 .614-.615v-11.099a.614.614 0 0 0 -.614-.614h-4.473a.614.614 0 0 1 -.613-.615v-4.442a.614.614 0 0 0 -.614-.615" fill="url(#a)"/><path d="m16.116 5.794-5.678-5.66v4.612a1.04 1.04 0 0 0 1.035 1.048z" fill="#0078d4"/><g fill="#5ea0ef"><rect height="1.341" rx=".603" width="9.999" x="4" y="8.196"/><rect height="1.341" rx=".603" width="9.999" x="4" y="10.599"/><rect height="1.341" rx=".603" width="6.302" x="4" y="13.002"/></g></svg>