<svg viewBox="0 0 128 128" xmlns="http://www.w3.org/2000/svg"><path d="m1.832 1c-.3341-.0017461-.54316.18202-.64453.43164s-.078609.52613.16211.75781l36.109 35.225c.64603-.50946 1.4641-.78763 2.3887-.80664 2.9262-.060152 6.9282 2.1162 11.312 6.582 3.9071 3.9797 8.0751 9.9039 11.895 17.75.3033-.095249.61914-.16211.95312-.16211.28875 0 .56342.051087.83008.12305 5.7189-12.542 8.0179-22.096 8.0098-29.227-.008667-7.6278-2.5009-12.587-5.9082-15.949l-.087891-.085937c-6.3492-6.1989-16.625-9.805-28.314-11.871-11.687-2.0658-24.77-2.6037-36.705-2.7676zm124.55.14844c-.19443-.025496-.39428.030834-.56836.21094l-35.211 36.096c.86709 1.0926 1.0144 2.6846.50195 4.4961-.56366 1.9924-1.9002 4.3136-4.0391 6.8184-3.882 4.5463-10.534 9.6666-19.998 14.277.094186.30158.16016.61544.16016.94727 0 .29157-.05159.56889-.125.83789 12.55 5.7241 22.109 8.0242 29.242 8.0156 7.5959-.009106 12.542-2.4838 15.904-5.8691l.11523-.11719c6.1989-6.3492 9.8065-16.626 11.873-28.314 2.0662-11.687 2.6037-24.77 2.7676-36.705.00093-.33394-.18172-.54119-.43164-.64258-.06249-.025346-.12661-.042281-.19141-.050781zm-55.359 18.557c1.6907 3.1253 2.8205 6.9796 2.8262 11.969.008329 7.3297-2.3473 17.01-8.0977 29.625.34388.22306.64176.50825.87891.8418 9.3588-4.562 15.914-9.6139 19.676-14.02 2.0735-2.4283 3.3325-4.6568 3.8379-6.4434.44051-1.5571.31792-2.7246-.24023-3.5059l-.10352.10547-.33398-.55664c-.02359-.039322-.052428-.076172-.085938-.10742l-.003906-.003906-18.354-17.904zm-31.154 17.902c-.69983.014385-1.2533.19002-1.6934.50391l.087891.085938-.54688.33594c-.02806.01721-.051992.04013-.076172.0625l-17.953 18.402c3.1276-1.6947 6.9843-2.8284 11.98-2.834 7.3322-.008239 17.017 2.3488 29.639 8.1035.22359-.34856.50897-.65075.8457-.89062-3.7785-7.7593-7.8897-13.602-11.703-17.486-4.2808-4.3604-8.1946-6.3322-10.58-6.2832zm-8.1992 17.557c-7.6863.008643-12.668 2.5368-16.031 5.9844-6.1983 6.3493-9.8066 16.624-11.873 28.312-2.0663 11.688-2.6037 24.772-2.7676 36.707-.0023016.33445.17996.54288.42969.64453.24972.10165.52784.07887.75977-.16211l35.213-36.096c-.86479-1.0928-1.01-2.6843-.49805-4.4941.56366-1.9925 1.9002-4.3157 4.0391-6.8203 3.8846-4.549 10.541-9.6722 20.016-14.285-.096802-.30565-.16406-.62413-.16406-.96094 0-.28312.04987-.55257.11914-.81445-12.55-5.7242-22.109-8.0236-29.242-8.0156zm32.34 6.6133c-1.231 0-2.2168.98578-2.2168 2.2168 0 1.231.98578 2.2188 2.2168 2.2188 1.231 0 2.2188-.98773 2.2188-2.2188 0-1.231-.98773-2.2168-2.2188-2.2168zm2.6953 3.9648c-.22153.33978-.50625.63382-.83594.86914 4.5642 9.3684 9.6196 15.928 14.027 19.691 2.4279 2.0732 4.655 3.3327 6.4414 3.8379 1.5519.43889 2.7181.31906 3.5-.23438l-.097657-.095703.54688-.33594c.037846-.02318.073476-.051344.10352-.083984l.003906-.005859 17.912-18.363c-3.1241 1.6888-6.9754 2.8202-11.961 2.8262-7.3329.008792-17.018-2.3497-29.641-8.1055zm-5.3066.11523c-9.3712 4.565-15.932 9.6242-19.697 14.033-2.0735 2.4281-3.3325 4.6548-3.8379 6.4414-.43985 1.5549-.31779 2.7221.23828 3.5039l.095703-.097657.33594.54688c.02286.037193.050081.071833.082031.10156l.00586.003906 18.365 17.914c-1.6909-3.1252-2.8221-6.9797-2.8281-11.969-.008793-7.3338 2.3498-17.02 8.1074-29.645-.3395-.22084-.63178-.50508-.86719-.83398zm3.5645 1.1934c-.30341.09537-.61914.16211-.95313.16211-.29026 0-.56616-.05223-.83398-.125-5.7267 12.553-8.0262 22.114-8.0176 29.248.009162 7.6414 2.5109 12.606 5.9277 15.969l.058594.05664c6.3492 6.1989 16.625 9.805 28.314 11.871 11.686 2.0656 24.769 2.6036 36.703 2.7676.33101.00003.53742-.18189.63867-.42969.10125-.24779.08202-.52212-.1543-.7539l-36.09-35.211c-1.0927.8627-2.6824 1.0093-4.4902.49805-1.9924-.56347-4.3139-1.9024-6.8184-4.041-4.5483-3.8839-9.6723-10.538-14.285-20.012z"/></svg>