<svg xmlns="http://www.w3.org/2000/svg" width="24" height="24"><path fill="#4285f4" d="M5.87 20.49a1.51 1.51 0 0 1-3 0v-4.28a1.51 1.51 0 1 1 3 0zm5.13 0a1.51 1.51 0 0 1-3 0v-4.28a1.51 1.51 0 0 1 3 0zm5.06 0a1.51 1.51 0 0 1-3 0v-4.28a1.51 1.51 0 0 1 3 0zm5.09 0a1.51 1.51 0 0 1-3 0v-4.28a1.51 1.51 0 1 1 3 0z"/><circle cx="9.45" cy="11.97" r="1.51" fill="#aecbfa"/><circle cx="14.55" cy="11.97" r="1.51" fill="#669df6"/><circle cx="14.55" cy="7.74" r="1.51" fill="#aecbfa"/><circle cx="19.64" cy="11.97" r="1.51" fill="#669df6"/><circle cx="19.64" cy="7.74" r="1.51" fill="#669df6"/><circle cx="19.64" cy="3.51" r="1.51" fill="#aecbfa"/></svg>