<svg height="24" width="24" xmlns="http://www.w3.org/2000/svg"><path d="m5.87 20.49a1.51 1.51 0 0 1 -3 0v-4.28a1.51 1.51 0 1 1 3 0zm5.13 0a1.51 1.51 0 0 1 -3 0v-4.28a1.51 1.51 0 0 1 3 0zm5.06 0a1.51 1.51 0 0 1 -3 0v-4.28a1.51 1.51 0 0 1 3 0zm5.09 0a1.51 1.51 0 0 1 -3 0v-4.28a1.51 1.51 0 1 1 3 0z" fill="#4285f4"/><circle cx="9.45" cy="11.97" fill="#aecbfa" r="1.51"/><circle cx="14.55" cy="11.97" fill="#669df6" r="1.51"/><circle cx="14.55" cy="7.74" fill="#aecbfa" r="1.51"/><circle cx="19.64" cy="11.97" fill="#669df6" r="1.51"/><circle cx="19.64" cy="7.74" fill="#669df6" r="1.51"/><circle cx="19.64" cy="3.51" fill="#aecbfa" r="1.51"/></svg>