<svg xmlns="http://www.w3.org/2000/svg" width="18" height="18" viewBox="0 0 18 18">
  <defs>
    <mask id="ko">
      <rect width="18" height="18" fill="white"/>
      <path fill="black" d="M12.565 5.22 9.279 8.505a.39.39 0 0 1-.554 0L5.44 5.22a.175.175 0 0 1 .124-.3h2.02a.175.175 0 0 0 .175-.175V.64A.14.14 0 0 1 7.9.5h2.207a.14.14 0 0 1 .139.14v4.106a.176.176 0 0 0 .176.175h2.02a.175.175 0 0 1 .123.299"/>
      <path fill="black" d="M4.388 8.869h.724a.16.16 0 0 1 .16.16v2.024h-.723a.32.32 0 0 1-.321-.321V9.03a.16.16 0 0 1 .16-.161"/>
      <path fill="black" d="M4.388 8.869h.724a.16.16 0 0 1 .16.16v2.024h-.723a.32.32 0 0 1-.321-.321V9.03a.16.16 0 0 1 .16-.161"/>
      <path fill="black" d="M12.887 8.869h.724a.16.16 0 0 1 .16.16v1.7a.32.32 0 0 1-.321.321h-.724V9.03a.16.16 0 0 1 .161-.161"/>
      <path fill="black" d="M12.887 8.869h.724a.16.16 0 0 1 .16.16v1.7a.32.32 0 0 1-.321.321h-.724V9.03a.16.16 0 0 1 .161-.161"/>
      <path fill="black" d="M4.228 10.735v-.7h9.544v.7a.32.32 0 0 1-.316.318h-8.91a.32.32 0 0 1-.318-.318"/>
      <rect fill="black" x=".83" y="1.665" width="16.34" height="11.571"/>
      <rect fill="black" x="1.77" y="2.561" width="14.435" height="9.601"/>
    </mask>
  </defs>
  <g>
    <path fill="currentColor" mask="url(#ko)" d="M12.649 16.631c-1.9-.255-1.866-1.475-1.857-3.452H7.237c.009 1.977.041 3.2-1.856 3.452a.97.97 0 0 0-.894.869h9.061a.97.97 0 0 0-.899-.869"/>
  </g>
</svg>