<svg height="18" viewBox="0 0 18 18" width="18" xmlns="http://www.w3.org/2000/svg" xmlns:xlink="http://www.w3.org/1999/xlink"><linearGradient id="a" gradientTransform="matrix(-1 0 0 -1 -4005.223 -119.364)" gradientUnits="userSpaceOnUse" x1="-4014.225" x2="-4014.225" y1="-119.864" y2="-127.984"><stop offset="0" stop-color="#6bb9f2"/><stop offset="1" stop-color="#1b93eb"/></linearGradient><path d="m12.649 16.631c-1.9-.255-1.866-1.475-1.857-3.452h-3.555c.009 1.977.041 3.2-1.856 3.452a.97.97 0 0 0 -.894.869h9.061a.97.97 0 0 0 -.899-.869" fill="#1f56a3"/><rect fill="#1490df" height="11.571" rx=".554" width="16.34" x=".83" y="1.665"/><rect fill="#fff" height="9.601" rx=".277" width="14.435" x="1.77" y="2.561"/><path d="m12.565 5.22-3.286 3.285a.39.39 0 0 1 -.554 0l-3.285-3.285a.175.175 0 0 1 .124-.3h2.02a.175.175 0 0 0 .175-.175v-4.105a.14.14 0 0 1 .141-.14h2.207a.14.14 0 0 1 .139.14v4.106a.176.176 0 0 0 .176.175h2.02a.175.175 0 0 1 .123.299" fill="url(#a)"/><g fill="#999"><path d="m4.388 8.869h.724a.16.16 0 0 1 .16.16v2.024h-.723a.32.32 0 0 1 -.321-.321v-1.702a.16.16 0 0 1 .16-.161"/><path d="m4.388 8.869h.724a.16.16 0 0 1 .16.16v2.024h-.723a.32.32 0 0 1 -.321-.321v-1.702a.16.16 0 0 1 .16-.161" opacity=".5"/></g><g fill="#999"><path d="m12.887 8.869h.724a.16.16 0 0 1 .16.16v1.7a.32.32 0 0 1 -.321.321h-.724v-2.02a.16.16 0 0 1 .161-.161"/><path d="m12.887 8.869h.724a.16.16 0 0 1 .16.16v1.7a.32.32 0 0 1 -.321.321h-.724v-2.02a.16.16 0 0 1 .161-.161" opacity=".5"/></g><path d="m4.228 10.735v-.7h9.544v.7a.32.32 0 0 1 -.316.318h-8.91a.32.32 0 0 1 -.318-.318" fill="#949494"/></svg>