<svg height="18" viewBox="0 0 18 18" width="18" xmlns="http://www.w3.org/2000/svg" xmlns:xlink="http://www.w3.org/1999/xlink"><linearGradient id="a" gradientUnits="userSpaceOnUse" x1="12.764" x2="12.764" y1="-.269" y2="16.422"><stop offset="0" stop-color="#5ea0ef"/><stop offset=".2" stop-color="#328de2"/><stop offset=".4" stop-color="#0078d4"/><stop offset=".7" stop-color="#006abb"/><stop offset="1" stop-color="#005ba1"/></linearGradient><linearGradient id="b" gradientUnits="userSpaceOnUse" x1="9.367" x2="9.367" y1="20.932" y2="9.35"><stop offset="0" stop-color="#198ab3"/><stop offset=".4" stop-color="#29b8dc"/><stop offset=".7" stop-color="#38d5f6"/><stop offset="1" stop-color="#9cebff"/></linearGradient><path d="m17.407.055h-9.275a.6.6 0 0 0 -.6.593v13.269h.179a1.75 1.75 0 0 1 1.574-1.059h.013a1.74 1.74 0 1 1 -.789 3.3 1.72 1.72 0 0 1 -.773-.746h-.2v.737a.6.6 0 0 0 .6.593h9.275a.59.59 0 0 0 .589-.59v-15.504a.59.59 0 0 0 -.593-.593" fill="url(#a)"/><path d="m8.915 1.908h1.705a.15.15 0 0 1 .148.148v2.2a.15.15 0 0 1 -.148.148h-1.7a.15.15 0 0 1 -.148-.148v-2.2a.15.15 0 0 1 .148-.148zm3 0h1.705a.15.15 0 0 1 .148.148v2.2a.15.15 0 0 1 -.148.148h-1.7a.15.15 0 0 1 -.148-.148v-2.2a.15.15 0 0 1 .148-.148zm3.007 0h1.7a.15.15 0 0 1 .148.148v2.2a.15.15 0 0 1 -.148.148h-1.7a.15.15 0 0 1 -.148-.148v-2.2a.15.15 0 0 1 .148-.148m-6 3.981h1.698a.15.15 0 0 1 .148.148v2.223a.15.15 0 0 1 -.148.149h-1.7a.15.15 0 0 1 -.148-.149v-2.2a.15.15 0 0 1 .126-.168zm3 0h1.705a.15.15 0 0 1 .148.148v2.223a.15.15 0 0 1 -.148.149h-1.7a.15.15 0 0 1 -.148-.149v-2.2a.15.15 0 0 1 .125-.168zm3.007 0h1.7a.15.15 0 0 1 .148.148v2.223a.15.15 0 0 1 -.148.149h-1.7a.15.15 0 0 1 -.148-.149v-2.2a.15.15 0 0 1 .119-.17zm-6 3.469h1.691a.15.15 0 0 1 .148.148v2.224a.15.15 0 0 1 -.148.148h-1.7a.15.15 0 0 1 -.148-.148v-2.2a.15.15 0 0 1 .126-.167zm3 0h1.705a.15.15 0 0 1 .148.148v2.224a.15.15 0 0 1 -.148.148h-1.7a.15.15 0 0 1 -.148-.148v-2.2a.146.146 0 0 1 .125-.167zm3.007 0h1.7a.15.15 0 0 1 .148.148v2.224a.15.15 0 0 1 -.148.148h-1.7a.15.15 0 0 1 -.148-.148v-2.2a.146.146 0 0 1 .112-.17z" fill="#f2f2f2" opacity=".4"/><path d="m15.181 11h-11.628a.587.587 0 0 0 -.588.587v2.327h4.742a1.75 1.75 0 0 1 1.574-1.059h.013a1.74 1.74 0 1 1 -.789 3.3 1.72 1.72 0 0 1 -.773-.746h-4.767v1.943a.587.587 0 0 0 .588.587h11.628a.59.59 0 0 0 .588-.587v-5.762a.59.59 0 0 0 -.588-.59" fill="url(#b)"/><rect fill="#fff" height="5.166" opacity=".8" rx=".238" width="1.866" x="12.07" y="11.892"/><path d="m6.6 13.917v-1.787a.24.24 0 0 0 -.238-.238h-1.389a.237.237 0 0 0 -.238.238v1.787zm-1.865 1.498v1.405a.237.237 0 0 0 .238.237h1.39a.24.24 0 0 0 .237-.237v-1.405zm4.546-2.557h.013a1.74 1.74 0 0 1 .975.323v-1.051a.24.24 0 0 0 -.238-.238h-1.391a.24.24 0 0 0 -.238.238v.995a1.75 1.75 0 0 1 .879-.267m.552 3.384a1.74 1.74 0 0 1 -1.328-.081 1 1 0 0 1 -.1-.055v.714a.24.24 0 0 0 .238.237h1.391a.24.24 0 0 0 .238-.237v-.811a1.8 1.8 0 0 1 -.439.233" fill="#fff" opacity=".8"/><path d="m10.571 14.211a1.352 1.352 0 0 0 -2.616.095h-4.773a2.3 2.3 0 0 1 -.5-.063 2.4 2.4 0 0 1 .265-4.752h.233l.074-.212a2.72 2.72 0 0 1 2.61-1.814 2.8 2.8 0 0 1 1.656.527v-.876a3.5 3.5 0 0 0 -1.624-.4 3.48 3.48 0 0 0 -3.276 2.064 3.12 3.12 0 0 0 -.244 6.11 2.1 2.1 0 0 0 .774.127h4.805a1.369 1.369 0 0 0 2.616-.806" fill="#32bedd"/>​</svg>