<svg xmlns="http://www.w3.org/2000/svg" width="64" height="64" viewBox="0 0 64 64"><title>Icon-Architecture/48/Arch_TorchServe_48</title><g id="Icon-Architecture/48/Arch_TorchServe_48" fill="none" fill-rule="evenodd" stroke="none" stroke-width="1"><g id="Icon-Architecture-BG/48/Machine-Learning" fill="#01a88d"><path id="Rectangle" d="M0 0h64v64H0z"/></g><g id="Icon-Service/48/TorchServe_48" fill="#fff" transform="translate(13 10)"><path id="TorchServe-Icon_48_Squid" d="M23.954 7.237a1.59 1.59 0 0 0 1.588 1.588 1.59 1.59 0 0 0 1.588-1.588 1.59 1.59 0 0 0-1.588-1.588 1.59 1.59 0 0 0-1.588 1.588m-2 0a3.59 3.59 0 0 1 3.588-3.588 3.59 3.59 0 0 1 3.588 3.588 3.59 3.59 0 0 1-3.588 3.588 3.59 3.59 0 0 1-3.588-3.588m15.118 17.715c0 10.221-8.315 18.536-18.536 18.536S0 35.173 0 24.952c0-5.075 2.011-9.812 5.663-13.337L17.8 0l1.383 1.445L7.049 13.057A16.4 16.4 0 0 0 2 24.952c0 9.118 7.418 16.536 16.536 16.536s16.536-7.418 16.536-16.536c0-4.574-1.825-8.83-5.14-11.983l1.378-1.449c3.716 3.534 5.762 8.304 5.762 13.432"/></g></g></svg>