<svg height="64" viewBox="0 0 64 64" width="64" xmlns="http://www.w3.org/2000/svg"><g fill="none" fill-rule="evenodd"><path d="m0 0h64v64h-64z" fill="#01a88d"/><path d="m23.954 7.237a1.59 1.59 0 0 0 1.588 1.588 1.59 1.59 0 0 0 1.588-1.588 1.59 1.59 0 0 0 -1.588-1.588 1.59 1.59 0 0 0 -1.588 1.588m-2 0a3.59 3.59 0 0 1 3.588-3.588 3.59 3.59 0 0 1 3.588 3.588 3.59 3.59 0 0 1 -3.588 3.588 3.59 3.59 0 0 1 -3.588-3.588m15.118 17.715c0 10.221-8.315 18.536-18.536 18.536s-18.536-8.315-18.536-18.536c0-5.075 2.011-9.812 5.663-13.337l12.137-11.615 1.383 1.445-12.134 11.612a16.4 16.4 0 0 0 -5.049 11.895c0 9.118 7.418 16.536 16.536 16.536s16.536-7.418 16.536-16.536c0-4.574-1.825-8.83-5.14-11.983l1.378-1.449c3.716 3.534 5.762 8.304 5.762 13.432" fill="#fff" transform="translate(13 10)"/></g></svg>