<svg xmlns="http://www.w3.org/2000/svg" width="64" height="64" viewBox="0 0 64 64"><title>Icon-Architecture/48/Arch_Amazon-Managed-Service-for-Prometheus_48</title><g id="Icon-Architecture/48/Arch_Amazon-Managed-Service-for-Prometheus_48" fill="none" fill-rule="evenodd" stroke="none" stroke-width="1"><g id="Icon-Architecture-BG/48/Management-Governance" fill="#e7157b"><path id="Rectangle" d="M0 0h64v64H0z"/></g><g id="Icon-Service/48/Amazon-Managed-Service-for-Prometheus_48" fill="#fff" transform="translate(16 10)"><path id="Fill-1" d="M26 14c-1.103 0-2-.897-2-2s.897-2 2-2 2 .897 2 2-.897 2-2 2M16 4c0-1.103.897-2 2-2s2 .897 2 2-.897 2-2 2-2-.897-2-2m-4 16c-1.103 0-2-.897-2-2s.897-2 2-2 2 .897 2 2-.897 2-2 2M2 11c0-1.103.897-2 2-2s2 .897 2 2-.897 2-2 2-2-.897-2-2m24-3c-.739 0-1.424.215-2.02.567l-2.546-2.548C21.784 5.424 22 4.74 22 4c0-2.206-1.794-4-4-4s-4 1.794-4 4c0 1.365.689 2.57 1.736 3.292l-3.373 6.745C12.242 14.025 12.125 14 12 14c-.997 0-1.899.38-2.601.985l-1.965-1.966C7.784 12.424 8 11.74 8 11c0-2.206-1.794-4-4-4s-4 1.794-4 4 1.794 4 4 4c.739 0 1.424-.215 2.02-.567l2.227 2.228A4 4 0 0 0 8 18c0 2.206 1.794 4 4 4s4-1.794 4-4c0-1.365-.689-2.57-1.736-3.292l3.373-6.745c.121.012.238.037.363.037.739 0 1.424-.215 2.02-.567l2.546 2.548A3.97 3.97 0 0 0 22 12c0 2.206 1.794 4 4 4s4-1.794 4-4-1.794-4-4-4m-5.469 22H10.469l-3.334-4h16.73zm-3.312 12h-3.438L11.28 32h8.44zM26 24H5a1 1 0 0 0-.769 1.64l4.854 5.824 2.945 11.779c.112.444.511.757.97.757h5c.459 0 .858-.313.97-.757l2.945-11.779 4.854-5.824A1 1 0 0 0 26 24"/></g></g></svg>