<svg height="64" viewBox="0 0 64 64" width="64" xmlns="http://www.w3.org/2000/svg"><g fill="none" fill-rule="evenodd"><path d="m0 0h64v64h-64z" fill="#e7157b"/><path d="m26 14c-1.103 0-2-.897-2-2s.897-2 2-2 2 .897 2 2-.897 2-2 2m-10-10c0-1.103.897-2 2-2s2 .897 2 2-.897 2-2 2-2-.897-2-2m-4 16c-1.103 0-2-.897-2-2s.897-2 2-2 2 .897 2 2-.897 2-2 2m-10-9c0-1.103.897-2 2-2s2 .897 2 2-.897 2-2 2-2-.897-2-2m24-3c-.739 0-1.424.215-2.02.567l-2.546-2.548c.35-.595.566-1.279.566-2.019 0-2.206-1.794-4-4-4s-4 1.794-4 4c0 1.365.689 2.57 1.736 3.292l-3.373 6.745c-.121-.012-.238-.037-.363-.037-.997 0-1.899.38-2.601.985l-1.965-1.966c.35-.595.566-1.279.566-2.019 0-2.206-1.794-4-4-4s-4 1.794-4 4 1.794 4 4 4c.739 0 1.424-.215 2.02-.567l2.227 2.228a4 4 0 0 0 -.247 1.339c0 2.206 1.794 4 4 4s4-1.794 4-4c0-1.365-.689-2.57-1.736-3.292l3.373-6.745c.121.012.238.037.363.037.739 0 1.424-.215 2.02-.567l2.546 2.548a3.97 3.97 0 0 0 -.566 2.019c0 2.206 1.794 4 4 4s4-1.794 4-4-1.794-4-4-4m-5.469 22h-10.062l-3.334-4h16.73zm-3.312 12h-3.438l-2.501-10h8.44zm8.781-18h-21a1 1 0 0 0 -.769 1.64l4.854 5.824 2.945 11.779c.112.444.511.757.97.757h5c.459 0 .858-.313.97-.757l2.945-11.779 4.854-5.824a1 1 0 0 0 -.769-1.64" fill="#fff" transform="translate(16 10)"/></g></svg>