<svg viewBox="0 0 24 24" xmlns="http://www.w3.org/2000/svg" fill="#AC75D7"><path d="m10.44.418a3.12 3.12 0 0 1 3.12 0l7.69 4.44a3.12 3.12 0 0 1 1.56 2.702v8.88a3.12 3.12 0 0 1 -1.56 2.702l-7.69 4.44a3.12 3.12 0 0 1 -3.12 0l-7.69-4.44a3.12 3.12 0 0 1 -1.56-2.702v-8.88a3.12 3.12 0 0 1 1.56-2.702zm3.87 3.315-1.999-1.153a.624.624 0 0 0 -.624 0l-7.69 4.44a.624.624 0 0 0 -.312.54v3.774l10.623-6.133zm2.496 13.643 1.255.725 1.941-1.12a.624.624 0 0 0 .312-.541v-8.88a.624.624 0 0 0 -.312-.54l-3.196-1.845zm-2.497-1.441v-7.852l-6.8 3.926zm-10.623-1.718v2.223c0 .223.119.429.312.54l7.69 4.44a.624.624 0 0 0 .624 0l3.252-1.878-10.55-6.091z"/></svg>