<svg height="18" viewBox="0 0 18 18" width="18" xmlns="http://www.w3.org/2000/svg" xmlns:xlink="http://www.w3.org/1999/xlink"><linearGradient id="a"><stop offset="0" stop-color="#6f4bb2"/><stop offset="1" stop-color="#c69aeb"/></linearGradient><linearGradient id="b" gradientUnits="userSpaceOnUse" x1="6.11" x2="6.11" xlink:href="#a" y1="12.5" y2="9.42"/><linearGradient id="c" gradientUnits="userSpaceOnUse" x1="12.06" x2="12.06" xlink:href="#a" y1="12.5" y2="9.42"/><path d="m12.38 10.79-2.98-4.78-.27.17-.26-.17-2.99 4.78.61.37 2.64-4.23 2.65 4.24z" fill="#949494"/><circle cx="9.08" cy="6.21" fill="#86d633" r="1.54"/><circle cx="6.11" cy="10.96" fill="url(#b)" r="1.54"/><circle cx="12.06" cy="10.96" fill="url(#c)" r="1.54"/><g fill="#999"><path d="m1.15 1.27h1.29v3.6a.29.29 0 0 1 -.29.29h-1.28a.29.29 0 0 1 -.29-.29v-3a.57.57 0 0 1 .57-.6"/><path d="m1.15 1.27h1.29v3.6a.29.29 0 0 1 -.29.29h-1.28a.29.29 0 0 1 -.29-.29v-3a.57.57 0 0 1 .57-.6" opacity=".5"/></g><g fill="#999"><path d="m15.72 1.27h1.28a.57.57 0 0 1 .57.57v3a.29.29 0 0 1 -.29.29h-1.28a.29.29 0 0 1 -.29-.29v-3.57z"/><path d="m15.72 1.27h1.28a.57.57 0 0 1 .57.57v3a.29.29 0 0 1 -.29.29h-1.28a.29.29 0 0 1 -.29-.29v-3.57z" opacity=".5"/></g><path d="m17.58 1.84v1.26h-17v-1.26a.57.57 0 0 1 .57-.57h15.86a.57.57 0 0 1 .57.57" fill="#949494"/><g fill="#999"><path d="m.87 12.52h1.29a.29.29 0 0 1 .29.29v3.6h-1.3a.57.57 0 0 1 -.57-.57v-3a.29.29 0 0 1 .29-.32"/><path d="m.87 12.52h1.29a.29.29 0 0 1 .29.29v3.6h-1.3a.57.57 0 0 1 -.57-.57v-3a.29.29 0 0 1 .29-.32" opacity=".5"/></g><g fill="#999"><path d="m16 12.52h1.3a.29.29 0 0 1 .29.29v3a.57.57 0 0 1 -.57.57h-1.3v-3.6a.29.29 0 0 1 .28-.26"/><path d="m16 12.52h1.3a.29.29 0 0 1 .29.29v3a.57.57 0 0 1 -.57.57h-1.3v-3.6a.29.29 0 0 1 .28-.26" opacity=".5"/></g><path d="m.58 15.85v-1.26h17v1.26a.57.57 0 0 1 -.57.57h-15.86a.57.57 0 0 1 -.57-.57" fill="#949494"/></svg>