<svg height="48" viewBox="0 0 48 48" width="48" xmlns="http://www.w3.org/2000/svg"><path d="m33.431 35.178h-1.498v-17.676a1 1 0 0 0 -.589-.911l-.092-.042c-2.009-.907-4.088-1.846-7.076-1.846-3.123 0-5.415 1.009-7.68 2.134a1 1 0 0 0 -.556.896v17.445h-1.463v-18.866c2.434-1.98 5.943-3.107 9.71-3.107 3.5 0 6.838.997 9.244 2.748zm-9.245-23.973c-4.425 0-8.569 1.419-11.37 3.895a1 1 0 0 0 -.339.749v20.329a1 1 0 0 0 1 1h3.463a1 1 0 0 0 1-1v-17.822c1.92-.927 3.78-1.653 6.236-1.653 2.335 0 4.033.675 5.757 1.446v18.029a1 1 0 0 0 1 1h3.498a1 1 0 0 0 1-1v-20.72c0-.304-.139-.592-.378-.783-2.774-2.205-6.735-3.47-10.867-3.47m-.232 32.704c-11.002-0-19.954-8.952-19.954-19.955s8.952-19.954 19.954-19.954c11.003 0 19.956 8.95 19.956 19.954 0 11.003-8.952 19.955-19.955 19.955m0-41.91c-12.107.001-21.955 9.851-21.955 21.956 0 12.107 9.85 21.955 21.955 21.955 12.106 0 21.955-9.848 21.955-21.955 0-12.106-9.85-21.955-21.956-21.955" fill="#8c4fff" fill-rule="evenodd"/></svg>