<svg viewBox="0 0 128 128" xmlns="http://www.w3.org/2000/svg"><g clip-rule="evenodd" fill-rule="evenodd"><path d="m50.732 43.771-30.207 52.657-7.052-12.033 8.14-14.103-16.167-.042-3.446-6.013 3.519-6.15 23.013.073 8.27-14.352zm2.318 42.094 60.409.003-6.827 12.164-16.205-.045 8.047 14.115-3.45 6.01-7.05.008-11.445-20.097-16.483-.034zm35.16-23.074-30.202-52.66 13.88-.131 8.063 14.148 8.12-14.072 6.897.002 3.532 6.143-11.57 20.024 8.213 14.386z" fill="#7ebae4"/><path d="m39.831 65.463 30.202 52.66-13.88.131-8.063-14.148-8.12 14.072-6.897-.002-3.532-6.143 11.57-20.024-8.213-14.386zm35.08-23.207-60.409-.003 6.828-12.163 16.204.045-8.047-14.115 3.45-6.01 7.051-.01 11.444 20.097 16.484.034 6.996 12.124zm2.357 42.216 30.207-52.658 7.052 12.034-8.141 14.102 16.168.043 3.446 6.013-3.519 6.15-23.013-.073-8.27 14.352z" fill="#5277c3"/></g></svg>