<svg height="18" viewBox="0 0 18 18" width="18" xmlns="http://www.w3.org/2000/svg" xmlns:xlink="http://www.w3.org/1999/xlink"><linearGradient id="a" gradientTransform="matrix(.70710678 .70710678 -.70710678 .70710678 9.000172 -3.730336)" gradientUnits="userSpaceOnUse" x1="9" x2="9" y1="19.25" y2="-.46"><stop offset="0" stop-color="#5e9624"/><stop offset=".55" stop-color="#6dad2a"/><stop offset="1" stop-color="#76bc2d"/></linearGradient><linearGradient id="b" gradientUnits="userSpaceOnUse" x1="7.54" x2="7.53" y1="6.44" y2="5.18"><stop offset="0" stop-color="#ccc"/><stop offset=".12" stop-color="#d7d7d7"/><stop offset=".42" stop-color="#ebebeb"/><stop offset=".72" stop-color="#f8f8f8"/><stop offset="1" stop-color="#fcfcfc"/></linearGradient><rect fill="url(#a)" height="12.35" rx=".57" transform="matrix(.70710678 -.70710678 .70710678 .70710678 -3.730336 9.000172)" width="12.35" x="2.82" y="2.82"/><g fill="#fff"><path d="m10.89 10.51h2.84a.11.11 0 0 0 .1-.11v-2.83a.1.1 0 0 0 -.18-.07l-.78.78v.05a.1.1 0 0 1 -.14 0l-3.47-3.42a.1.1 0 0 0 -.14 0l-.88.88a.11.11 0 0 0 0 .15l3.41 3.41a.11.11 0 0 1 0 .15l-.05.05-.78.78a.11.11 0 0 0 .07.18"/><path d="m6.92 10.51h-2.84a.11.11 0 0 1 -.08-.11v-2.83a.1.1 0 0 1 .17-.07l.79.78v.05a.1.1 0 0 0 .14 0l3.45-3.42a.1.1 0 0 1 .14 0l.88.88a.11.11 0 0 1 0 .15l-3.41 3.41a.11.11 0 0 0 0 .15v.05l.78.78a.11.11 0 0 1 -.02.18"/><path d="m6.82 13.07 2 2a.1.1 0 0 0 .14 0l2-2a.1.1 0 0 0 -.07-.17h-1.17a.11.11 0 0 1 -.1-.1v-4.8a.1.1 0 0 0 -.1-.11h-1.24a.11.11 0 0 0 -.11.11v4.8a.1.1 0 0 1 -.1.1h-1.18a.1.1 0 0 0 -.07.17"/></g><path d="m10.65 7.78a2.71 2.71 0 0 1 -3.32-4.28 2.71 2.71 0 0 1 3.29 4.3" fill="#0078d4"/><circle cx="7.53" cy="5.55" fill="url(#b)" r=".87"/><path d="m6.67 7 .19.3.14.2a6 6 0 0 1 .34-1.1.85.85 0 0 1 -.45-.23 7 7 0 0 0 -.22.83m.57-2.27a4 4 0 0 1 -.24-.93 2.5 2.5 0 0 0 -.34.46 3.5 3.5 0 0 0 .2.74 1 1 0 0 1 .38-.27m.93 1.41a.87.87 0 0 1 -.48.26 5 5 0 0 0 .46.41 4 4 0 0 0 .65.39v-.07a.53.53 0 0 1 .2-.4 3.6 3.6 0 0 1 -.83-.59m2.62 1.06a4 4 0 0 1 -.87-.1.55.55 0 0 1 -.16.39 3.8 3.8 0 0 0 1.08.08 3 3 0 0 0 .37-.42z" fill="#f2f2f2" opacity=".55"/><circle cx="9.36" cy="7.13" fill="none" r=".56"/><g fill="#f2f2f2"><circle cx="10.64" cy="5.74" r=".6"/><path d="m9.21 4.42a4.3 4.3 0 0 1 1.88-.42 2.2 2.2 0 0 0 -.47-.45 4.5 4.5 0 0 0 -1.49.35c-.1 0-.19.11-.29.16a6 6 0 0 1 -.63-.93l-.34.13a5.4 5.4 0 0 0 .65 1 4 4 0 0 0 -.67.55.87.87 0 0 1 .43.35 3.3 3.3 0 0 1 .61-.48 9 9 0 0 0 1.17 1 .57.57 0 0 1 .2-.32 8.4 8.4 0 0 1 -1.05-.94m2.34 1.67h-.18l-.1-.06a.6.6 0 0 1 -.2.3l.12.07.11.06.28.14a4 4 0 0 0 .09-.35z" opacity=".55"/><circle cx="7.53" cy="5.55" r=".87"/><circle cx="9.36" cy="7.13" r=".56"/></g></svg>