<svg height="18" viewBox="0 0 18 18" width="18" xmlns="http://www.w3.org/2000/svg"><path d="m9.405 0h8.298c.164 0 .297.133.297.297v1.836a.297.297 0 0 1 -.297.297h-8.298a.297.297 0 0 1 -.297-.297v-1.835a.297.297 0 0 1 .297-.298" fill="#9cebff"/><path d="m9.405 2.882h8.298c.164 0 .297.133.297.297v1.836a.3.3 0 0 1 -.298.298h-8.298a.297.297 0 0 1 -.297-.297v-1.836c0-.164.133-.297.297-.297z" fill="#41d2ee"/><rect fill="#198ab3" height="2.431" rx=".297" width="8.893" x="9.107" y="5.763"/><rect fill="#fff" height=".665" rx=".148" width=".665" x="16.617" y=".426"/><rect fill="#e2f2f2" height=".665" rx=".148" width=".665" x="16.617" y="1.342"/><rect fill="#fff" height=".665" rx=".148" width=".665" x="16.617" y="3.307"/><rect fill="#bdedef" height=".665" rx=".148" width=".665" x="16.617" y="4.223"/><rect fill="#fff" height=".665" rx=".148" width=".665" x="16.617" y="6.188"/><rect fill="#bdedef" height=".665" rx=".148" width=".665" x="16.617" y="7.104"/><rect fill="#83b9f9" height="2.431" rx=".297" width="8.891" y="9.807"/><rect fill="#2e8ce1" height="2.431" rx=".297" width="8.891" y="12.688"/><rect fill="#005ba1" height="2.431" rx=".297" width="8.891" y="15.569"/><rect fill="#68abdd" height=".664" rx=".148" width=".664" x="7.617" y="14.029"/><rect fill="#fff" height=".664" rx=".148" width=".664" x="7.617" y="15.994"/><rect fill="#97bddd" height=".664" rx=".148" width=".664" x="7.617" y="16.91"/><path d="m12.055 12.969a4.968 4.968 0 0 1 -6.088-7.85l.053-.035a4.966 4.966 0 0 1 6.035 7.886" fill="#0078d4"/><path d="m9.011 4.552a4.493 4.493 0 1 0 0 8.985 4.493 4.493 0 0 0 0-8.985m3.009 1.513c-.392.22-.816.378-1.256.467a5.2 5.2 0 0 0 -.73-1.577c.752.18 1.439.564 1.986 1.11m-3.009-1.262q.32 0 .637.053a4.4 4.4 0 0 1 .894 1.752 8.8 8.8 0 0 1 -3.184 0c.16-.632.462-1.219.882-1.717q.382-.078.771-.088m-1.168.152a5.1 5.1 0 0 0 -.742 1.565 3.3 3.3 0 0 1 -1.11-.45 4.3 4.3 0 0 1 1.852-1.116zm-1.916 7.009a3.1 3.1 0 0 1 1.04-.444c.145.58.414 1.122.789 1.589a4.24 4.24 0 0 1 -1.829-1.145m3.085 1.32q-.426 0-.841-.088a3.5 3.5 0 0 1 -.976-1.752 8.6 8.6 0 0 1 3.435 0c-.151.668-.491 1.325-.984 1.8 0 0-.413.046-.634.04m1.893-1.764a3.9 3.9 0 0 1 1.168.485 4.16 4.16 0 0 1 -1.975 1.127s.662-1.014.806-1.612zm.058-.245q.072-.314.117-.654l-.269.064a7 7 0 0 1 -.099.532 8.9 8.9 0 0 0 -3.558 0c-.041-.158-.105-.436-.099-.555l-.269-.076c-.013.168.064.526.099.695-.417.092-.813.26-1.168.496a4.23 4.23 0 0 1 .064-5.491 3.7 3.7 0 0 0 1.215.502c-.041.14-.135.509-.114.651l.237-.055s.07-.397.111-.537a8.7 8.7 0 0 0 1.782.14c.545 0 1.089-.051 1.624-.152.041.158.082.327.117.496l.269.064a9 9 0 0 0 -.14-.584 4.5 4.5 0 0 0 1.344-.532 4.22 4.22 0 0 1 .035 5.543 4.3 4.3 0 0 0 -1.297-.567v.018z" fill="#5ea0ef"/><path d="m6.587 7.829a5 5 0 0 0 -.678.047l-.006 2.395q.291.03.584.029c.395.027.785-.101 1.087-.356.246-.257.375-.603.356-.958a1.17 1.17 0 0 0 -.345-.853 1.43 1.43 0 0 0 -.999-.304zm1.012 1.392a.947.947 0 0 1 -1.047.834 3 3 0 0 1 -.321 0v-2.003q.184-.018.368 0a.877.877 0 0 1 1 .946q.014.111.001.224zm2.289-.387c0 .386.006.683.035 1.011a7 7 0 0 0 -.444-.8l-.789-1.227h-.345v2.459l.28.018v-2.068c.129.234.292.543.462.818l.771 1.232h.321v-2.459h-.292v1.016zm1.601.047c-.339-.128-.491-.304-.491-.473s.129-.368.467-.368a.95.95 0 0 1 .467.117l.094-.263a1.2 1.2 0 0 0 -.543-.117l-.048-.004a.713.713 0 0 0 -.753.67c0 .35.321.578.654.701s.462.234.462.485-.187.421-.514.421c-.205 0-.407-.055-.584-.158l-.07.263c.191.106.407.16.625.158.584 0 .865-.345.865-.707s-.292-.596-.631-.724z" fill="#fff"/></svg>