<svg viewBox="0 0 24 24" xmlns="http://www.w3.org/2000/svg"><path d="m21.715 5.61-3.983 2.31a.9.9 0 0 1 -.896 0l-4.396-2.536a.9.9 0 0 0 -.897 0l-4.387 2.536a.9.9 0 0 1 -.896 0l-3.984-2.303 9.726-5.617z" fill="#5bca87"/><path d="m18.641 9.467a.89.89 0 0 0 -.438.77v5.072a.9.9 0 0 1 -.445.77l-4.428 2.51a.88.88 0 0 0 -.445.777v4.607l4.429-2.536 5.31-3.047v-11.233z" fill="#ec5d3e"/><path d="m10.98 18.941a.94.94 0 0 0 -.305-.352l-4.429-2.516a.9.9 0 0 1 -.431-.764v-5.078a.89.89 0 0 0 -.452-.757l-.451-.26-3.532-2.056v11.232l5.311 3.047 4.435 2.563v-4.608a.9.9 0 0 0 -.146-.45z" fill="#2464f5"/></svg>