<svg xmlns="http://www.w3.org/2000/svg" xml:space="preserve" viewBox="0 0 128 128"><defs><mask id="a"><path fill="#fff" d="M0 0h128v128H0z"/><path d="M95.262 48.85v27.744h3.173c3.352 0 7.105-1.586 9.012-3.492 7.641-7.641 4.644-17.549-.17-20.997-1.46-1.046-4.394-3.255-9.17-3.255zm-8.178-4.049c0-2.42 1.725-4.147 3.982-4.144l7.771.011c11.552.017 20.257 9.394 21.245 19.031 1.45 14.138-8.85 25.072-21.817 25.072l-7.023-.001c-2.394-.002-4.162-1.768-4.162-4.168zm-22.286-4.033c-1.802 0-3.31 1.011-3.933 2.673-4.455 11.866-8.91 23.732-13.354 35.603-.678 1.81.055 3.716.84 4.523 2.044 2.104 5.693 1.326 6.74-1.433.892-2.353 1.935-5.051 2.815-7.409H71.69c.88 2.358 1.923 5.056 2.815 7.409 1.046 2.759 4.696 3.537 6.74 1.433.785-.807 1.517-2.712.84-4.523-4.444-11.87-8.899-23.737-13.354-35.603-.624-1.662-2.131-2.673-3.934-2.673zm-.02 15.438 3.917 10.396h-7.833zm-45.396-7.378V60.03l6.87-.01c3.532-.005 6.108-3.509 5.369-6.708-.612-2.645-2.91-4.484-5.485-4.484zm18.967 19.714 4.448 10.553a4.107 4.107 0 0 1-2.109 5.371 4.05 4.05 0 0 1-5.39-2.13c-1.38-3.254-2.829-6.48-4.13-9.766-1.386-3.497-4.626-4.372-6.758-4.372h-5.043v12.455c0 2.31-1.845 4.12-4.167 4.12-2.588 0-4.005-2.082-4.006-4.327L11.19 44.77c0-2.569 1.91-4.083 4.215-4.106 3.579-.036 7.158-.049 10.737-.004 4.002.05 7.413 1.52 10.153 4.467 5.253 5.647 4.675 14.144-.704 19.363 1.151 1.202 2.069 2.414 2.76 4.052z"/></mask></defs><g fill="currentColor" mask="url(#a)"><path d="M128 64a64 64 0 0 1-64 64A64 64 0 0 1 0 64 64 64 0 0 1 64 0a64 64 0 0 1 64 64"/><path d="M33.973 7.485C42.944 2.708 53.188 0 64.063 0a64.07 64.07 0 0 1 51.948 26.556c-8.241 24.683-32.096 36.8-46.653 37.706 4.8 1.928-47.645-44.075-35.385-56.777"/><path d="M30.136 31.585c-10.359 0-18.028.182-26.374 10.808A63.94 63.94 0 0 0 .32 70.398c30.682-15.225 54.3-20.526 65.485-8.36a2 2 0 0 1 .306.216 620 620 0 0 0 4.231 3.725c-2.299-18.833-19.776-34.394-40.207-34.394z"/><path d="M11.487 100.578C10.365 88.525 18 75.826 27.757 68.707c13.392-9.77 29.539-11.61 38.852-6.008-9.736-17.905-19.925-20.613-27.86-20.586C18.8 42.18 4.056 54.503.152 67.766c.709 12.153 4.77 23.411 11.335 32.811z"/><path d="M64.064 128c-21.768 0-41-10.845-52.577-27.422C10.365 88.525 18 75.826 27.757 68.707c13.392-9.77 29.539-11.61 38.852-6.008z"/><path d="M88.048 78.75c-6.183-2.557-14.78-10.14-21.935-16.496-1.534-1.362-6.995-.832-7.708 1.104l-5.96 16.189z"/><path d="M46.902 120.68c-4.86-5.575-7.714-16.124-3.713-24.935 3.187-7.017 9.962-11.617 15.036-14.71 9.91-6.04 20.81-5.672 30.734-1.742 15.106 5.982 29.336 1.258 39.041-11.257C125.867 101.748 97.876 128 64.064 128a64 64 0 0 1-10.49-.864c-3.09-1.68-4.692-4.184-6.672-6.456"/><path d="M64.064 128a64.1 64.1 0 0 1-36.79-11.605 33 33 0 0 1-.082-2.326c0-16.716 13.793-30.267 30.807-30.267 17.015 0 30.808 13.551 30.808 30.267 0 3.213-.516 6.533-1.537 9.585A64.1 64.1 0 0 1 64.064 128"/><path d="M64.064 0a64.1 64.1 0 0 1 34.018 9.769c4.26 13.97-5.908 25.246-13.736 30.573-14.424 9.815-26.825 3.456-37.54-2.518-10.303-5.745-24.632-10.623-39.695-3.13C18.096 13.39 40.074 0 64.064 0"/><path d="M82.121 22.547c1.107 14.3-4.892 23.458-16.724 22.753-6.713-.9-12.886-4.295-18.591-7.476-10.303-5.745-24.632-10.623-39.695-3.13C18.096 13.39 40.074 0 64.064 0q.451 0 .902.006c4.096 1.57 16.049 8.241 17.155 22.541"/></g></svg>