<svg height="48" viewBox="0 0 48 48" width="48" xmlns="http://www.w3.org/2000/svg"><path d="m12.6 17.709a5.115 5.115 0 0 1 -5.108-5.11 5.115 5.115 0 0 1 5.108-5.107 5.115 5.115 0 0 1 5.109 5.109 5.115 5.115 0 0 1 -5.11 5.109m0-12.218c-3.92 0-7.108 3.189-7.108 7.109s3.188 7.109 7.108 7.109a7.117 7.117 0 0 0 7.109-7.11 7.117 7.117 0 0 0 -7.11-7.108m14.09 38.398h17.2v-17.2h-17.2zm-2 2h21.2v-21.198h-21.2zm-20.688-2h17.199v-17.2h-17.2zm-2 2h21.199v-21.198h-21.2zm24.69-24.69h17.2v-17.2h-17.2zm-2 2h21.2v-21.2h-21.2zm-20.69-2h17.199v-17.2h-17.2zm-2 2h21.199v-21.2h-21.2z" fill="#c925d1" fill-rule="evenodd"/></svg>