<svg xmlns="http://www.w3.org/2000/svg" width="500" height="209.52" viewBox="0 0 500 209.52"><g fill="currentColor" stroke-width=".891"><path d="M332.831 35.048h-73.42c-9.648 0-19.604-7.833-19.604-17.468 0-9.648 9.956-17.482 19.604-17.482h220.998C490.059.098 500 7.946 500 17.58s-9.942 17.468-19.59 17.468h-69.943v152.801c0 11.841-9.774 21.644-21.615 21.644h-34.406c-11.914-.084-21.547-9.73-21.615-21.644z"/><path d="M21.615 209.521C9.71 209.429.084 199.797 0 187.891V21.616C0 9.789 9.788 0 21.615 0l152.382.014c70.487 0 78.056 70.278 38.833 94.058 60.265 21.503 47.07 115.449-58.451 115.449zM155.218 83.472c50.617 0 52.949-50.63 6.213-50.63H79.522v50.63zM79.522 116.44v58.004h66.117c66.968 0 66.48-57.962 18.557-58.004z"/></g></svg>