<svg xmlns="http://www.w3.org/2000/svg" xml:space="preserve" id="Layer_1" width="500" height="209.52" x="0" y="0" viewBox="0 0 500 209.52"><g id="g5" fill="#1068a2" transform="translate(-30.692 -334.048)"><path id="path4" d="M363.523 369.096h-73.42c-9.648 0-19.604-7.833-19.604-17.468 0-9.648 9.956-17.482 19.604-17.482h220.998c9.65 0 19.591 7.848 19.591 17.482s-9.942 17.468-19.59 17.468h-69.943v152.801c0 11.841-9.774 21.644-21.615 21.644h-34.406c-11.914-.084-21.547-9.73-21.615-21.644z" stroke-width=".890656"/><path id="path5" d="M52.307 543.569c-11.905-.092-21.531-9.724-21.615-21.63V355.664c0-11.827 9.788-21.616 21.615-21.616l152.382.014c70.487 0 78.056 70.278 38.833 94.058 60.265 21.503 47.07 115.449-58.451 115.449zM185.91 417.52c50.617 0 52.949-50.63 6.213-50.63h-81.909v50.63zm-75.696 32.968v58.004h66.117c66.968 0 66.48-57.962 18.557-58.004z" stroke-width=".890656"/></g></svg>