<svg height="18" viewBox="0 0 18 18" width="18" xmlns="http://www.w3.org/2000/svg" xmlns:xlink="http://www.w3.org/1999/xlink"><linearGradient id="a" gradientTransform="matrix(-1 0 0 1 -1256.13 0)" gradientUnits="userSpaceOnUse" x1="-1267.23" x2="-1267.52" y1="3.07" y2="14.64"><stop offset="0" stop-color="#32d4f5"/><stop offset=".23" stop-color="#31d0f1"/><stop offset=".46" stop-color="#2cc3e6"/><stop offset=".7" stop-color="#25afd4"/><stop offset=".94" stop-color="#1c92ba"/><stop offset="1" stop-color="#198ab3"/></linearGradient><path d="m17.28 3.9h-.91a4 4 0 0 0 -.55 0 .68.68 0 0 1 -.59-1l.39-.7a1.8 1.8 0 0 0 -.51-.29l-.93 1.66a.7.7 0 0 1 -.6.35h-.83a.66.66 0 0 0 -.32.08l-1.57 1a.25.25 0 0 1 -.16 0h-5.43a.29.29 0 0 0 -.27.32v4.82l-1.75.54.13.56 1.62-.24v2.9a.29.29 0 0 0 .29.29h9.37l1.15 1.49.49-.31-.68-1.18h1.68a.29.29 0 0 0 .3-.29v-9.7a.3.3 0 0 0 -.32-.3" fill="#005ba1"/><g fill="#50e5ff"><circle cx="15.88" cy="1.08" r="1.09"/><circle cx="16.58" cy="16.59" r="1.42"/><circle cx="1.77" cy="11.44" r="1.77"/></g><path d="m15.17 4.75-6.91-1h-.14a1 1 0 0 0 -1 .87l-.26 1.69h9.14v-.41a1 1 0 0 0 -.83-1.15" fill="#0078d4"/><path d="m15.1 5.18-6.9-1h-.09a.58.58 0 0 0 -.57.5l-.24 1.63h8.22l.07-.47a.58.58 0 0 0 -.49-.66" fill="#fff"/><path d="m5.26 5h6.05a.33.33 0 0 1 .21.09l1 1a.3.3 0 0 0 .21.09h4.6a.3.3 0 0 1 .3.29v7.43a.3.3 0 0 1 -.3.29h-12a.29.29 0 0 1 -.33-.29v-8.58a.3.3 0 0 1 .26-.32" fill="url(#a)"/></svg>