<svg xmlns="http://www.w3.org/2000/svg" xmlns:xlink="http://www.w3.org/1999/xlink" viewBox="0 0 633 633"><defs><linearGradient id="c" x1="50%" x2="50%" y1="0%" y2="71.65%"><stop offset="0" stop-color="#6bdaff"/><stop offset=".319" stop-color="#f9ffb5"/><stop offset=".706" stop-color="#ffa770"/><stop offset="1" stop-color="#ff7373"/></linearGradient><linearGradient id="e" x1="43.996%" x2="53.441%" y1="8.54%" y2="93.872%"><stop offset="0" stop-color="#673800"/><stop offset="1" stop-color="#b65e00"/></linearGradient><linearGradient id="f" x1="50%" x2="50%" y1="0%" y2="100%"><stop offset="0" stop-color="#2f8a00"/><stop offset="1" stop-color="#90ff57"/></linearGradient><linearGradient id="g" x1="92.9%" x2="8.641%" y1="45.768%" y2="54.892%"><stop offset="0" stop-color="#ee2700"/><stop offset="1" stop-color="#ff008e"/></linearGradient><linearGradient id="i" x1="61.109%" x2="43.717%" y1="3.633%" y2="43.072%"><stop offset="0" stop-color="#fff400"/><stop offset="1" stop-color="#3c8700"/></linearGradient><linearGradient id="j" x1="50%" x2="50%" y1="0%" y2="100%"><stop offset="0" stop-color="#ffdf00"/><stop offset="1" stop-color="#ff9d00"/></linearGradient><linearGradient id="a"><stop offset="0" stop-color="#ffa400"/><stop offset="1" stop-color="#ff5e00"/></linearGradient><linearGradient xlink:href="#a" id="k" x1="127.279%" x2="0%" y1="49.778%" y2="50.222%"/><linearGradient xlink:href="#a" id="l" x1="127.279%" x2="0%" y1="47.531%" y2="52.469%"/><linearGradient xlink:href="#a" id="m" x1="127.279%" x2="0%" y1="46.195%" y2="53.805%"/><linearGradient xlink:href="#a" id="n" x1="127.279%" x2="0%" y1="35.33%" y2="64.67%"/><linearGradient xlink:href="#a" id="o" x1="127.279%" x2="0%" y1="4.875%" y2="95.125%"/><linearGradient xlink:href="#a" id="p" x1="78.334%" x2="31.668%" y1="0%" y2="100%"/><linearGradient xlink:href="#a" id="q" x1="57.913%" x2="44.88%" y1="0%" y2="100%"/><linearGradient xlink:href="#a" id="t" x1="50.495%" x2="49.68%" y1="0%" y2="100%"/><circle id="b" cx="308.5" cy="308.5" r="308.5"/><mask id="d" fill="currentColor"><use xlink:href="#b" fill-rule="evenodd"/></mask></defs><g fill="none" fill-rule="evenodd" transform="translate(9 8)"><use xlink:href="#b" fill="currentColor"/><g fill="currentColor" stroke-width="25"><ellipse fill="currentColor" cx="81.5" cy="602.5" stroke="currentColor" mask="url(#d)" rx="214.5" ry="185.968"/><ellipse fill="currentColor" cx="535.5" cy="602.5" stroke="currentColor" mask="url(#d)" rx="214.5" ry="185.968"/><ellipse fill="currentColor" cx="81.5" cy="640.5" stroke="currentColor" mask="url(#d)" rx="214.5" ry="185.968"/><ellipse fill="currentColor" cx="535.5" cy="640.5" stroke="currentColor" mask="url(#d)" rx="214.5" ry="185.968"/><ellipse fill="currentColor" cx="81.5" cy="676.5" stroke="currentColor" mask="url(#d)" rx="214.5" ry="185.968"/><ellipse fill="currentColor" cx="535.5" cy="676.5" stroke="currentColor" mask="url(#d)" rx="214.5" ry="185.968"/></g><g mask="url(#d)"><path fill="currentColor" stroke="currentColor" stroke-width="6.088" d="M98.318 88.007q11.537 55.656 26.856 106.013t46.07 106.088l-51.903 11.67q-15.085-90.015-21.525-117.487T77.727 94.934z" transform="rotate(155 122.6 66.59)scale(1 -1)"/><g stroke="currentColor"><g fill="currentColor" stroke-width="9.343"><path fill="currentColor" d="M209.873 175.116s-13.166-21.538-36.927-28.434q-23.758-6.897-54.282 12.947 24.226 20.42 40.925 23.353c16.7 2.931 50.285-7.864 50.285-7.864z"/><path fill="currentColor" d="M209.862 175.716s-47.075-6.82-81.412 18.518q-34.34 25.336-27.712 99.826 43.389-43.079 62.139-63.77c18.75-20.693 46.985-54.574 46.985-54.574z"/><path fill="currentColor" d="M209.873 175.116q-2.371-32.603 18.671-48.622 21.042-16.02 44.24-16.828-7.86 32.158-23.295 43.961-15.435 11.804-39.617 21.489z"/><path fill="currentColor" d="M209.862 175.716q45.575-46.442 94.246-32.23t55.804 56.81q-52.243-6.398-75.076-9.37t-74.974-15.21z"/><path fill="currentColor" d="M209.862 175.716q52.54-13.157 88.592 18.719t44.401 78.358q-59.231-12.396-85.652-39.125a395 395 0 0 1-47.34-57.952z"/><path fill="currentColor" d="M209.862 175.716q-48.904 22.343-56.977 67.314t11.977 98.686q38.389-61.467 43.658-89.1 5.27-27.634 1.342-76.9z"/></g><path fill="currentColor" stroke-linecap="round" stroke-width="5.91" d="M211.284 173.477q-20.776 32.987-28.32 60.093t-9.436 45.216"/><path fill="currentColor" stroke-linecap="round" stroke-width="5.91" d="M209.814 176.884q-35.973 3.847-56.428 23.714-20.458 19.867-29.536 38.674m95.195-71.973q43.542-11.584 65.831-7.352 22.289 4.233 35.842 14.51m-109.408-1.839q30.436 13.66 54.186 29.837 23.75 16.178 35.643 30.617"/></g><path fill="currentColor" stroke="currentColor" stroke-linecap="round" stroke-linejoin="bevel" stroke-width="6.937" d="m409.379 398.157-23.176 18.556m-58.163-41.197-22.313 28.398m7.177-50.216 53.18 59.816"/><path fill="currentColor" d="M67.585 27.463H5.68Q0 28.49 0 34.16t5.68 7.293h67.17l41.751-30.356q3.731-3.97.92-8.006c-2.811-4.036-4.6-3.626-8.177-2.803l-39.76 27.174z" transform="rotate(-171 224.84 164.654)scale(1 -1)"/><path fill="currentColor" stroke="currentColor" stroke-linecap="round" stroke-linejoin="bevel" stroke-width="4.414" d="m402.861 391.51.471-4.088m-21.122 1.33.472-4.087m-21.136.739.485-3.845m-24.441-9.676 2.56-2.498m-15.874-9.818 2.56-2.497"/></g><ellipse cx="308.5" cy="720.5" fill="currentColor" mask="url(#d)" rx="266" ry="316.5"/><ellipse fill="currentColor" cx="308.5" cy="720.5" stroke="currentColor" stroke-opacity=".502" stroke-width="26" mask="url(#d)" rx="253" ry="303.5"/><g mask="url(#d)"><g transform="translate(389 -32)"><circle cx="168.5" cy="113.5" r="113.5" fill="currentColor"/><circle fill="currentColor" cx="168.5" cy="113.5" r="106" stroke="currentColor" stroke-opacity=".529" stroke-width="15"/><g stroke-linecap="round" stroke-linejoin="bevel" stroke-width="12"><path fill="currentColor" stroke="currentColor" d="M30 113H0"/><path fill="currentColor" stroke="currentColor" d="M33.5 79.5 7 74"/><path fill="currentColor" stroke="currentColor" d="m34 146-29 8"/><path fill="currentColor" stroke="currentColor" d="m45 177-24 13"/><path fill="currentColor" stroke="currentColor" d="m67 204-20 19"/><path fill="currentColor" stroke="currentColor" d="m94.373 227-13.834 22.847"/><path fill="currentColor" stroke="currentColor" d="M127.5 243.5 120 268"/><path fill="currentColor" stroke="currentColor" d="m167.5 252.5.5 24.5"/></g></g></g><circle fill="currentColor" cx="307.5" cy="308.5" r="304" stroke="currentColor" stroke-width="25"/></g></svg>