<svg xmlns="http://www.w3.org/2000/svg" xmlns:xlink="http://www.w3.org/1999/xlink" viewBox="0 0 633 633"><defs><circle id="a" cx="308.5" cy="308.5" r="308.5"/><mask id="b" fill="currentColor"><use xlink:href="#a" fill-rule="evenodd"/></mask></defs><g fill="none" fill-rule="evenodd" transform="translate(9 8)"><use xlink:href="#a" fill="currentColor"/><g fill="currentColor" stroke="currentColor" stroke-width="25"><ellipse cx="81.5" cy="602.5" mask="url(#b)" rx="214.5" ry="185.968"/><ellipse cx="535.5" cy="602.5" mask="url(#b)" rx="214.5" ry="185.968"/><ellipse cx="81.5" cy="640.5" mask="url(#b)" rx="214.5" ry="185.968"/><ellipse cx="535.5" cy="640.5" mask="url(#b)" rx="214.5" ry="185.968"/><ellipse cx="81.5" cy="676.5" mask="url(#b)" rx="214.5" ry="185.968"/><ellipse cx="535.5" cy="676.5" mask="url(#b)" rx="214.5" ry="185.968"/></g><g fill="currentColor" mask="url(#b)"><path stroke="currentColor" stroke-width="6.088" d="M209.942 196.44q13.066 55.318 20.464 107.43t3.08 115.62l51.973-11.36q-24.37-87.956-30.144-115.576t-23.783-98.538z"/><g stroke="currentColor"><g stroke-width="9.343"><path d="M209.873 175.116s-13.166-21.538-36.927-28.434q-23.758-6.897-54.282 12.947 24.226 20.42 40.925 23.353c16.7 2.931 50.285-7.864 50.285-7.864z"/><path d="M209.862 175.716s-47.075-6.82-81.412 18.518q-34.34 25.336-27.712 99.826 43.389-43.079 62.139-63.77c18.75-20.693 46.985-54.574 46.985-54.574z"/><path d="M209.873 175.116q-2.371-32.603 18.671-48.622 21.042-16.02 44.24-16.828-7.86 32.158-23.295 43.961-15.435 11.804-39.617 21.489z"/><path d="M209.862 175.716q45.575-46.442 94.246-32.23t55.804 56.81q-52.243-6.398-75.076-9.37t-74.974-15.21z"/><path d="M209.862 175.716q52.54-13.157 88.592 18.719t44.401 78.358q-59.231-12.396-85.652-39.125a395 395 0 0 1-47.34-57.952z"/><path d="M209.862 175.716q-48.904 22.343-56.977 67.314t11.977 98.686q38.389-61.467 43.658-89.1 5.27-27.634 1.342-76.9z"/></g><path stroke-linecap="round" stroke-width="5.91" d="M211.284 173.477q-20.776 32.987-28.32 60.093t-9.436 45.216"/><path stroke-linecap="round" stroke-width="5.91" d="M209.814 176.884q-35.973 3.847-56.428 23.714-20.458 19.867-29.536 38.674m95.195-71.973q43.542-11.584 65.831-7.352 22.289 4.233 35.842 14.51m-109.408-1.839q30.436 13.66 54.186 29.837 23.75 16.178 35.643 30.617"/></g><path stroke="currentColor" stroke-linecap="round" stroke-linejoin="bevel" stroke-width="6.937" d="m409.379 398.157-23.176 18.556m-58.163-41.197-22.313 28.398m7.177-50.216 53.18 59.816"/><path d="m350.105 379.006 61.143 9.684q5.45 1.903 4.562 7.503t-6.75 6.315L342.717 392l-36.489-36.514q-3.064-4.504.344-8.051c3.408-3.547 5.11-2.862 8.515-1.49l35.02 33.06z"/><path stroke="currentColor" stroke-linecap="round" stroke-linejoin="bevel" stroke-width="4.414" d="m402.861 391.51.471-4.088m-21.122 1.33.472-4.087m-21.136.739.485-3.845m-24.441-9.676 2.56-2.498m-15.874-9.818 2.56-2.497"/></g><ellipse cx="308.5" cy="720.5" fill="currentColor" mask="url(#b)" rx="266" ry="316.5"/><ellipse cx="308.5" cy="720.5" fill="currentColor" stroke="currentColor" stroke-opacity=".502" stroke-width="26" mask="url(#b)" rx="253" ry="303.5"/><g mask="url(#b)"><g fill="currentColor" transform="translate(389 -32)"><circle cx="168.5" cy="113.5" r="113.5"/><circle cx="168.5" cy="113.5" r="106" stroke="currentColor" stroke-opacity=".529" stroke-width="15"/><g stroke="currentColor" stroke-linecap="round" stroke-linejoin="bevel" stroke-width="12"><path d="M30 113H0"/><path d="M33.5 79.5 7 74"/><path d="m34 146-29 8"/><path d="m45 177-24 13"/><path d="m67 204-20 19"/><path d="m94.373 227-13.834 22.847"/><path d="M127.5 243.5 120 268"/><path d="m167.5 252.5.5 24.5"/></g></g></g><circle cx="307.5" cy="308.5" r="304" fill="currentColor" stroke="currentColor" stroke-width="25"/></g></svg>