<svg viewBox="0 0 633 633" xmlns="http://www.w3.org/2000/svg" xmlns:xlink="http://www.w3.org/1999/xlink"><defs><linearGradient id="a" x1="50%" x2="50%" y1="0%" y2="71.65%"><stop offset="0" stop-color="#6bdaff"/><stop offset=".31922" stop-color="#f9ffb5"/><stop offset=".70627" stop-color="#ffa770"/><stop offset="1" stop-color="#ff7373"/></linearGradient><linearGradient id="b" x1="43.996%" x2="53.441%" y1="8.54%" y2="93.872%"><stop offset="0" stop-color="#673800"/><stop offset="1" stop-color="#b65e00"/></linearGradient><linearGradient id="c" x1="50%" x2="50%" y1="0%" y2="100%"><stop offset="0" stop-color="#2f8a00"/><stop offset="1" stop-color="#90ff57"/></linearGradient><linearGradient id="d" x1="92.9%" x2="8.641%" y1="45.768%" y2="54.892%"><stop offset="0" stop-color="#ee2700"/><stop offset="1" stop-color="#ff008e"/></linearGradient><linearGradient id="e" x1="61.109%" x2="43.717%" y1="3.633%" y2="43.072%"><stop offset="0" stop-color="#fff400"/><stop offset="1" stop-color="#3c8700"/></linearGradient><linearGradient id="f" x1="50%" x2="50%" y1="0%" y2="100%"><stop offset="0" stop-color="#ffdf00"/><stop offset="1" stop-color="#ff9d00"/></linearGradient><linearGradient id="g"><stop offset="0" stop-color="#ffa400"/><stop offset="1" stop-color="#ff5e00"/></linearGradient><linearGradient id="h" x1="127.279%" x2="0%" xlink:href="#g" y1="49.778%" y2="50.222%"/><linearGradient id="i" x1="127.279%" x2="0%" xlink:href="#g" y1="47.531%" y2="52.469%"/><linearGradient id="j" x1="127.279%" x2="0%" xlink:href="#g" y1="46.195%" y2="53.805%"/><linearGradient id="k" x1="127.279%" x2="0%" xlink:href="#g" y1="35.33%" y2="64.67%"/><linearGradient id="l" x1="127.279%" x2="0%" xlink:href="#g" y1="4.875%" y2="95.125%"/><linearGradient id="m" x1="78.334%" x2="31.668%" xlink:href="#g" y1="0%" y2="100%"/><linearGradient id="n" x1="57.913%" x2="44.88%" xlink:href="#g" y1="0%" y2="100%"/><linearGradient id="o" x1="50.495%" x2="49.68%" xlink:href="#g" y1="0%" y2="100%"/><circle id="p" cx="308.5" cy="308.5" r="308.5"/><mask id="q" fill="#fff"><use fill="#fff" fill-rule="evenodd" xlink:href="#p"/></mask></defs><g fill="none" fill-rule="evenodd" transform="translate(9 8)"><use fill="url(#a)" xlink:href="#p"/><g fill="#015064"><ellipse cx="81.5" cy="602.5" mask="url(#q)" rx="214.5" ry="185.968" stroke="#00cfe2" stroke-width="25"/><ellipse cx="535.5" cy="602.5" mask="url(#q)" rx="214.5" ry="185.968" stroke="#00cfe2" stroke-width="25"/><ellipse cx="81.5" cy="640.5" mask="url(#q)" rx="214.5" ry="185.968" stroke="#00a8b8" stroke-width="25"/><ellipse cx="535.5" cy="640.5" mask="url(#q)" rx="214.5" ry="185.968" stroke="#00a8b8" stroke-width="25"/><ellipse cx="81.5" cy="676.5" mask="url(#q)" rx="214.5" ry="185.968" stroke="#007782" stroke-width="25"/><ellipse cx="535.5" cy="676.5" mask="url(#q)" rx="214.5" ry="185.968" stroke="#007782" stroke-width="25"/></g><g mask="url(#q)"><path d="m98.318 88.007q11.537 55.656 26.856 106.013t46.07 106.088l-51.903 11.67q-15.085-90.015-21.525-117.487t-20.089-99.357z" fill="url(#b)" stroke="#6e3a00" stroke-width="6.088" transform="matrix(-.90630779 .42261826 .42261826 .90630779 261.855485 75.128037)"/><g stroke="#2f8a00"><g fill="url(#c)" stroke-width="9.343"><path d="m108.544 66.538s-13.54-21.305-37.417-27.785q-23.875-6.481-54.048 13.892 24.578 19.995 41.326 22.635c16.749 2.64 50.14-8.74 50.14-8.74z" transform="matrix(.9998477 .01745241 -.01745241 .9998477 102.506664 106.693714)"/><path d="m108.544 67.138s-47.187-5.997-81.077 19.936q-33.891 25.932-25.965 100.295 42.63-43.83 61.016-64.846c18.387-21.016 46.026-55.385 46.026-55.385z" transform="matrix(.9998477 .01745241 -.01745241 .9998477 102.506664 106.693714)"/><path d="m108.544 66.538q-2.94-32.557 17.82-48.94 20.759-16.386 43.939-17.598-7.298 32.29-22.524 44.361-15.227 12.072-39.236 22.177z" transform="matrix(.9998477 .01745241 -.01745241 .9998477 102.506664 106.693714)"/><path d="m108.544 67.138q44.757-47.23 93.669-33.869 48.91 13.36 56.787 55.827-52.347-5.486-75.228-8.058-22.881-2.574-75.228-13.9z" transform="matrix(.9998477 .01745241 -.01745241 .9998477 102.506664 106.693714)"/><path d="m108.544 67.138q52.302-14.072 88.905 17.17t45.762 77.571q-59.439-11.36-86.322-37.624a395 395 0 0 1 -48.345-57.117z" transform="matrix(.9998477 .01745241 -.01745241 .9998477 102.506664 106.693714)"/><path d="m108.544 67.138q-48.507 23.193-55.794 68.298t13.698 98.462q37.31-62.127 42.096-89.849 4.787-27.721 0-76.91z" transform="matrix(.9998477 .01745241 -.01745241 .9998477 102.506664 106.693714)"/></g><path d="m211.284 173.477q-20.776 32.987-28.32 60.093t-9.436 45.216" stroke-linecap="round" stroke-width="5.91"/><path d="m209.814 176.884q-35.973 3.847-56.428 23.714-20.458 19.867-29.536 38.674m95.195-71.973q43.542-11.584 65.831-7.352 22.289 4.233 35.842 14.51m-109.408-1.839q30.436 13.66 54.186 29.837 23.75 16.178 35.643 30.617" stroke-linecap="round" stroke-width="5.91"/></g><path d="m409.379 398.157-23.176 18.556m-58.163-41.197-22.313 28.398m7.177-50.216 53.18 59.816" stroke="#830305" stroke-linecap="round" stroke-linejoin="bevel" stroke-width="6.937"/><path d="m67.585 27.463h-61.905q-5.68 1.027-5.68 6.697t5.68 7.293h67.17l41.751-30.356q3.731-3.97.92-8.006c-2.811-4.036-4.6-3.626-8.177-2.803l-39.76 27.174z" fill="url(#d)" transform="matrix(-.98768834 -.15643447 -.15643447 .98768834 421.154286 362.453561)"/><path d="m402.861 391.51.471-4.088m-21.122 1.33.472-4.087m-21.136.739.485-3.845m-24.441-9.676 2.56-2.498m-15.874-9.818 2.56-2.497" fill="#d8d8d8" stroke="#fff" stroke-linecap="round" stroke-linejoin="bevel" stroke-width="4.414"/></g><ellipse cx="308.5" cy="720.5" fill="url(#e)" mask="url(#q)" rx="266" ry="316.5"/><ellipse cx="308.5" cy="720.5" mask="url(#q)" rx="253" ry="303.5" stroke="#6da300" stroke-opacity=".502" stroke-width="26"/><g mask="url(#q)"><g transform="translate(389 -32)"><circle cx="168.5" cy="113.5" fill="url(#f)" r="113.5"/><circle cx="168.5" cy="113.5" r="106" stroke="#ffc900" stroke-opacity=".529" stroke-width="15"/><g stroke-linecap="round" stroke-linejoin="bevel" stroke-width="12"><path d="m30 113h-30" stroke="url(#h)"/><path d="m33.5 79.5-26.5-5.5" stroke="url(#i)"/><path d="m34 146-29 8" stroke="url(#j)"/><path d="m45 177-24 13" stroke="url(#k)"/><path d="m67 204-20 19" stroke="url(#l)"/><path d="m94.373 227-13.834 22.847" stroke="url(#m)"/><path d="m127.5 243.5-7.5 24.5" stroke="url(#n)"/><path d="m167.5 252.5.5 24.5" stroke="url(#o)"/></g></g></g><circle cx="307.5" cy="308.5" r="304" stroke="#000" stroke-width="25"/></g></svg>