<svg height="24" width="24" xmlns="http://www.w3.org/2000/svg"><path d="m2 2h20v20h-20z" fill="none"/><g fill-rule="evenodd"><path d="m12 2v2.41l3.13 3.22v-2.42z" fill="#669df6"/><path d="m19.5 12-3.12 3.13h2.5l3.12-3.13z" fill="#669df6"/><path d="m4.5 12 3.13 3.13h-2.5l-3.13-3.13z" fill="#669df6"/><path d="m12 22v-2.41l3.13-3.21v2.41z" fill="#669df6"/><path d="m12 2-3.12 3.21v2.42l3.12-3.22z" fill="#aecbfa"/><path d="m18.88 8.88h-2.5l3.12 3.12h2.5z" fill="#aecbfa"/><path d="m5.13 8.88h2.5l-3.13 3.12h-2.5z" fill="#aecbfa"/><path d="m12 22-3.12-3.21v-2.41l3.12 3.21z" fill="#aecbfa"/><path d="m15.13 15.13h-6.25v-6.25h6.25z" fill="#aecbfa"/><path d="m15.13 8.88v6.25h-6.25z" fill="#669df6"/><path d="m15.13 8.88v6.25l-3.13-3.13z" fill="#4285f4"/></g></svg>