<svg height="48" viewBox="0 0 48 48" width="48" xmlns="http://www.w3.org/2000/svg"><path d="m39 10.135c0-.625-.509-1.135-1.135-1.135h-27.73c-.626 0-1.135.51-1.135 1.135v27.73c0 .625.509 1.135 1.135 1.135h27.73c.626 0 1.135-.51 1.135-1.135zm2 4.865v3h5v2h-5v3h5v2h-5v3h5v2h-5v3h5v2h-5v2.865a3.14 3.14 0 0 1 -3.135 3.135h-2.865v5h-2v-5h-3v5h-2v-5h-3v5h-2v-5h-3v5h-2v-5h-3v5h-2v-5h-2.865a3.14 3.14 0 0 1 -3.135-3.135v-2.865h-5v-2h5v-3h-5v-2h5v-3h-5v-2h5v-3h-5v-2h5v-3h-5v-2h5v-2.865a3.14 3.14 0 0 1 3.135-3.135h2.865v-5h2v5h3v-5h2v5h3v-5h2v5h3v-5h2v5h3v-5h2v5h2.865a3.14 3.14 0 0 1 3.135 3.135v2.865h5v2zm-13 20h4v-22h-4zm-6 0h4v-22h-4zm-6 0h4v-22h-4zm18-23v24a1 1 0 0 1 -1 1h-18a1 1 0 0 1 -1-1v-24a1 1 0 0 1 1-1h18a1 1 0 0 1 1 1m-5 4h2v-2h-2zm-6 0h2v-2h-2zm-6 0h2v-2h-2z" fill="#7aa116" fill-rule="evenodd"/></svg>