<svg viewBox="0 0 128 128" xmlns="http://www.w3.org/2000/svg"><path d="m43.9 105.9h-36.7l9.5-22.5h25.7l28.6-66.3h-30.7l-22.5 52.4h13.8c1 1.6 2.7 2.7 4.7 2.7 3 0 5.5-2.5 5.5-5.5s-2.5-5.5-5.5-5.5c-2.2 0-4.1 1.3-5 3.2h-6.6l18.7-42.3h20.1l-24.1 56.2-25.4.2-14 32.4h47.2l6.2-13.5h20.5l6.8 13.5h47.3l-42.7-93.8zm12.1-13.8 7.4-16.1 8 16.1zm27.8 14.4-4.7-9.4h14.6c1 1.8 2.8 3 4.9 3 3 0 5.5-2.5 5.5-5.5s-2.5-5.5-5.5-5.5c-2.2 0-4.2 1.4-5.1 3.3h-16.6l-11.1-21.8 8.2-18 9.2 18.8h4.3c.9 1.8 2.8 3.2 5 3.2 3 0 5.5-2.5 5.5-5.5s-2.5-5.5-5.5-5.5c-2.3 0-4.3 1.4-5.1 3.5h-1.6l-9.5-19.4 9.1-19.9 35.6 78.7z"/></svg>