<svg viewBox="0 0 24 24" xmlns="http://www.w3.org/2000/svg"><path d="m10.7754 17.3477h-4.9689a.2815.2815 0 1 0 0 .563h4.9689a.2815.2815 0 1 0 0-.563zm7.3195 0h-4.9688a.2815.2815 0 1 0 0 .563h4.9688a.2815.2815 0 0 0 0-.563zm-7.3336-6.475h-4.9548a.2815.2815 0 1 0 0 .563h4.9548a.2815.2815 0 1 0 0-.563zm7.3195 0h-4.9547a.2815.2815 0 1 0 0 .563h4.9547a.2815.2815 0 0 0 0-.563zm.5518-9.2001h-4.341a2.4042 2.4042 0 0 0 -4.5804 0h-4.3438c-1.7103 0-3.0968 1.3864-3.0968 3.0967v16.134c0 1.7102 1.3865 3.0967 3.0968 3.0967h13.2652c1.7103 0 3.0968-1.3865 3.0968-3.0967v-16.134c0-1.7103-1.3865-3.0967-3.0968-3.0967zm-8.7046.563a.2815.2815 0 0 0 .2815-.2224 1.8411 1.8411 0 0 1 3.5979 0 .2815.2815 0 0 0 .2815.2224h1.5146v1.844a.8446.8446 0 0 1 -.8446.8446h-5.5037a.8446.8446 0 0 1 -.8446-.8446v-1.844zm11.2383 18.6677c0 1.3993-1.1344 2.5337-2.5337 2.5337h-13.2652c-1.3993 0-2.5337-1.1344-2.5337-2.5337v-16.134c0-1.3993 1.1344-2.5337 2.5337-2.5337h2.4802v1.844c0 .7774.6302 1.4076 1.4076 1.4076h5.4896c.7774 0 1.4076-.6302 1.4076-1.4076v-1.844h2.4802c1.3993 0 2.5337 1.1344 2.5337 2.5337z"/></svg>