<svg fill="#4b93ff" viewBox="0 0 24 24" xmlns="http://www.w3.org/2000/svg"><path d="m11.999 0h-.002a.9.9 0 0 0 -.36.075q-4.01 1.768-8.019 3.538a.89.89 0 0 0 -.518 1.006l3.146 14.646a.9.9 0 0 0 .307.504l4.88 4.027a.895.895 0 0 0 1.131.006l5-4.031a.9.9 0 0 0 .315-.516l3.021-14.641a.895.895 0 0 0 -.515-1l-8.027-3.54a.9.9 0 0 0 -.358-.074zm0 .35v.003q.173 0 .334.07l7.42 3.27a.83.83 0 0 1 .476.924l-2.793 13.535a.83.83 0 0 1 -.289.478l-4.623 3.725a.826.826 0 0 1 -1.045-.006l-4.513-3.723a.83.83 0 0 1 -.281-.465l-2.91-13.539a.83.83 0 0 1 .476-.931l7.414-3.271a.8.8 0 0 1 .334-.07m-.045 1.954-1.674 2.898h-.002l1.211 11.301.512.409.512-.409 1.117-11.3zm-2.951 13.957-.584 1.068.584 1.07 2.295-.38.47-.69-.47-.671zm5.996 0-2.295.397-.47.671.47.69 2.295.38.584-1.07zm-2.998 1.488-.51.444-.281 2.168.789.55.793-.55-.295-2.168z"/></svg>