<svg xmlns="http://www.w3.org/2000/svg" width="1000" height="209.346" viewBox="0 0 1000 209.346">
  <defs>
    <mask id="wko">
      <rect width="1000" height="209.346" fill="white"/>
      <path fill="black" d="M130.987 3.716 69.353 65.349l-4.004 4.004-61.633 61.634c-4.955 4.954-4.955 13.025 0 17.995l56.648 56.648c4.954 4.954 13.024 4.954 17.994 0l61.634-61.634 4.004-4.004 61.634-61.634c4.954-4.954 4.954-13.024 0-17.994L148.982 3.716c-4.955-4.955-13.025-4.955-17.995 0"/>
    </mask>
  </defs>
  <g fill="currentColor" mask="url(#wko)">
    <path fill="currentColor" d="M272.467 70.833h-48.671v132.304h48.671c36.535 0 66.152-29.617 66.152-66.152s-29.617-66.152-66.152-66.152m-2.072 96.424h-8.21v-60.512h8.21c16.717 0 30.256 13.554 30.256 30.256s-13.554 30.256-30.256 30.256m298.26 35.896v-53.89c0-4.909-3.989-8.897-8.896-8.897s-8.896 3.988-8.896 8.896v53.89h-37.797v-53.89c0-4.908-3.988-8.896-8.896-8.896s-8.896 3.988-8.896 8.896v53.89h-37.797v-96.407h23.354l10.065 10.064a32.95 32.95 0 0 1 25.847-12.915h.327c9.83 0 19.148 4.378 25.41 11.965a36.78 36.78 0 0 1 27.14-11.95c20.192 0 36.582 16.297 36.738 36.473l.062 62.786h-37.796zm-120.744-48.22c0 28.184-22.84 51.024-51.024 51.024s-51.023-22.84-51.023-51.024 22.84-51.024 51.023-51.024 51.024 22.84 51.024 51.024m-33.808.016c0-4.41-1.683-8.818-5.032-12.168-3.365-3.35-7.79-5.032-12.2-5.032s-8.817 1.682-12.167 5.032c-3.365 3.365-5.032 7.79-5.032 12.199s1.682 8.818 5.032 12.168c3.365 3.35 7.774 5.032 12.183 5.032s8.819-1.683 12.168-5.032a17.26 17.26 0 0 0 5.033-12.2zm204.843 48.204h37.797v-96.408h-37.797zm381.051-28.839c0-7.416-2.929-14.162-9.176-19.38-12.433-9.458-31.643-11.016-37.376-13.213-3.693-1.417-5.282-3.614-5.282-5.624 0-2.57 2.57-4.86 6.56-4.86 6.138 0 8.07 3.364 9.892 8.63l33.637-4.393c-5.126-18.369-20.316-31.565-44.013-31.565s-43.062 13.072-43.062 31.612c0 7.416 2.929 14.162 9.176 19.381 12.433 9.457 31.643 11.015 37.376 13.212 3.692 1.417 5.282 3.614 5.282 5.624 0 2.57-2.571 4.86-6.56 4.86-6.2 0-9.16-3.66-11.326-8.443l-35.615 4.175c5.125 18.369 23.712 31.58 47.409 31.58S999.98 192.84 999.98 174.3zm-119.263-19.38c0 28.183-22.84 51.023-51.024 51.023s-51.024-22.84-51.024-51.024 22.84-51.024 51.024-51.024 51.024 22.84 51.024 51.024m-33.808.016c0-4.41-1.683-8.818-5.033-12.168-3.365-3.35-7.79-5.032-12.199-5.032s-8.818 1.682-12.168 5.032c-3.365 3.365-5.032 7.79-5.032 12.199s1.683 8.818 5.032 12.168c3.366 3.35 7.775 5.032 12.184 5.032s8.818-1.683 12.168-5.032a17.26 17.26 0 0 0 5.032-12.2zM637.86 60.706a19.72 19.72 0 0 0-13.99 5.796 19.66 19.66 0 0 0-5.796 13.975 19.72 19.72 0 0 0 5.796 13.99 19.66 19.66 0 0 0 13.975 5.797 19.72 19.72 0 0 0 13.99-5.796 19.66 19.66 0 0 0 5.796-13.975 19.72 19.72 0 0 0-5.796-13.99 19.66 19.66 0 0 0-13.975-5.797m131.759 79.66c-.733-19.942-16.811-35.88-36.769-36.457-.358 0-.732-.015-1.09-.015a37.93 37.93 0 0 0-28.496 12.915L693.2 106.745h-23.354v96.408h37.796v-51.585a12.09 12.09 0 0 1 12.09-12.09c6.668 0 12.09 5.422 12.09 12.09v51.585h37.797zm121.46-7.619c12.199-7.042 18.898-19.132 18.898-28.37 0-10.05-8.148-18.213-18.213-18.213s-18.228 8.195-18.228 18.213 8.164 18.228 18.228 18.228c.577 0 1.137-.031 1.698-.078a18.16 18.16 0 0 1-3.957 8.662l1.574 1.574z"/>
  </g>
  <path fill="currentColor" d="M134.991 7.704 73.357 69.338l66.635 66.634 61.634-61.633a7.08 7.08 0 0 0 0-10.002L144.978 7.704a7.08 7.08 0 0 0-10.003 0zm21.469 61.65c0 4.549-1.854 8.677-4.83 11.637-2.991 2.992-7.089 4.83-11.638 4.83s-8.678-1.87-11.638-4.83c-2.991-2.99-4.83-7.088-4.83-11.638s1.854-8.647 4.814-11.638c2.992-2.991 7.09-4.83 11.654-4.83s8.647 1.854 11.638 4.83a16.45 16.45 0 0 1 4.83 11.638"/>
  <path fill="currentColor" d="M7.704 134.991a7.08 7.08 0 0 0 0 10.002l56.648 56.648a7.08 7.08 0 0 0 10.002 0l61.634-61.633-66.635-66.635zm54.794 5.001c0 4.55-1.854 8.678-4.83 11.638-2.99 2.992-7.088 4.83-11.638 4.83s-8.678-1.87-11.638-4.83-4.83-7.089-4.83-11.638 1.854-8.647 4.815-11.638a16.39 16.39 0 0 1 11.653-4.83c4.55 0 8.647 1.854 11.638 4.83a16.45 16.45 0 0 1 4.83 11.638m46.662-.031c0 4.55-1.854 8.678-4.83 11.638-2.991 2.991-7.089 4.83-11.638 4.83s-8.678-1.87-11.638-4.83-4.83-7.089-4.83-11.638 1.854-8.647 4.814-11.638a16.39 16.39 0 0 1 11.654-4.83c4.55 0 8.647 1.854 11.638 4.83a16.45 16.45 0 0 1 4.83 11.638"/>
</svg>