<svg xmlns="http://www.w3.org/2000/svg" id="Layer_1" width="1000" height="209.346" data-name="Layer 1" viewBox="0 0 1000 209.346"><g id="g10" transform="translate(-.008 -.008)scale(1.55798)"><path id="path6" d="M174.89 45.47h-31.24v84.92h31.24c23.45 0 42.46-19.01 42.46-42.46s-19.01-42.46-42.46-42.46m-1.33 61.89h-5.27V68.52h5.27c10.73 0 19.42 8.7 19.42 19.42s-8.7 19.42-19.42 19.42M365 130.4V95.81c0-3.15-2.56-5.71-5.71-5.71s-5.71 2.56-5.71 5.71v34.59h-24.26V95.81c0-3.15-2.56-5.71-5.71-5.71s-5.71 2.56-5.71 5.71v34.59h-24.26V68.52h14.99l6.46 6.46a21.15 21.15 0 0 1 16.59-8.29h.21c6.31 0 12.29 2.81 16.31 7.68 4.48-4.9 10.81-7.67 17.42-7.67 12.96 0 23.48 10.46 23.58 23.41l.04 40.3h-24.26Zm-77.5-30.95c0 18.09-14.66 32.75-32.75 32.75S222 117.54 222 99.45s14.66-32.75 32.75-32.75 32.75 14.66 32.75 32.75m-21.7.01c0-2.83-1.08-5.66-3.23-7.81-2.16-2.15-5-3.23-7.83-3.23s-5.66 1.08-7.81 3.23c-2.16 2.16-3.23 5-3.23 7.83s1.08 5.66 3.23 7.81c2.16 2.15 4.99 3.23 7.82 3.23s5.66-1.08 7.81-3.23c2.15-2.16 3.23-5 3.23-7.83zm131.48 30.94h24.26V68.52h-24.26zm244.58-18.51c0-4.76-1.88-9.09-5.89-12.44-7.98-6.07-20.31-7.07-23.99-8.48-2.37-.91-3.39-2.32-3.39-3.61 0-1.65 1.65-3.12 4.21-3.12 3.94 0 5.18 2.16 6.35 5.54l21.59-2.82c-3.29-11.79-13.04-20.26-28.25-20.26s-27.64 8.39-27.64 20.29c0 4.76 1.88 9.09 5.89 12.44 7.98 6.07 20.31 7.07 23.99 8.48 2.37.91 3.39 2.32 3.39 3.61 0 1.65-1.65 3.12-4.21 3.12-3.98 0-5.88-2.35-7.27-5.42l-22.86 2.68c3.29 11.79 15.22 20.27 30.43 20.27s27.64-8.39 27.64-20.29zm-76.55-12.44c0 18.09-14.66 32.75-32.75 32.75s-32.75-14.66-32.75-32.75 14.66-32.75 32.75-32.75 32.75 14.66 32.75 32.75m-21.7.01c0-2.83-1.08-5.66-3.23-7.81-2.16-2.15-5-3.23-7.83-3.23s-5.66 1.08-7.81 3.23c-2.16 2.16-3.23 5-3.23 7.83s1.08 5.66 3.23 7.81c2.16 2.15 4.99 3.23 7.82 3.23s5.66-1.08 7.81-3.23c2.15-2.16 3.23-5 3.23-7.83zM409.42 38.97c-3.25 0-6.5 1.24-8.98 3.72a12.62 12.62 0 0 0-3.72 8.97c0 3.25 1.24 6.5 3.72 8.98a12.62 12.62 0 0 0 8.97 3.72c3.25 0 6.5-1.24 8.98-3.72a12.62 12.62 0 0 0 3.72-8.97c0-3.25-1.24-6.5-3.72-8.98a12.62 12.62 0 0 0-8.97-3.72m84.57 51.13c-.47-12.8-10.79-23.03-23.6-23.4-.23 0-.47-.01-.7-.01-6.99 0-13.67 3.02-18.29 8.29l-6.46-6.46h-14.99v61.88h24.26V97.29a7.76 7.76 0 0 1 7.76-7.76c4.28 0 7.76 3.48 7.76 7.76v33.11h24.26zm77.96-4.89c7.83-4.52 12.13-12.28 12.13-18.21 0-6.45-5.23-11.69-11.69-11.69s-11.7 5.26-11.7 11.69 5.24 11.7 11.7 11.7c.37 0 .73-.02 1.09-.05-.34 2.05-1.21 3.96-2.54 5.56l1.01 1.01z" fill="#0090e2"/></g><g id="g18" transform="translate(-.008 -.008)scale(1.55798)"><path id="path12" d="M84.08 2.39 44.52 41.95l-2.57 2.57L2.39 84.08c-3.18 3.18-3.18 8.36 0 11.55l36.36 36.36c3.18 3.18 8.36 3.18 11.55 0l39.56-39.56 2.57-2.57 39.56-39.56c3.18-3.18 3.18-8.36 0-11.55L95.63 2.39c-3.18-3.18-8.36-3.18-11.55 0" fill="#fff"/><path id="path14" d="M86.65 4.95 47.09 44.51l42.77 42.77 39.56-39.56a4.545 4.545 0 0 0 0-6.42L93.06 4.95a4.545 4.545 0 0 0-6.42 0zm13.78 39.57c0 2.92-1.19 5.57-3.1 7.47-1.92 1.92-4.55 3.1-7.47 3.1s-5.57-1.2-7.47-3.1c-1.92-1.92-3.1-4.55-3.1-7.47s1.19-5.55 3.09-7.47c1.92-1.92 4.55-3.1 7.48-3.1s5.55 1.19 7.47 3.1c1.9 1.9 3.1 4.55 3.1 7.47" fill="red"/><path id="path16" d="M4.95 86.65a4.545 4.545 0 0 0 0 6.42l36.36 36.36a4.545 4.545 0 0 0 6.42 0l39.56-39.56L44.52 47.1Zm35.17 3.21c0 2.92-1.19 5.57-3.1 7.47-1.92 1.92-4.55 3.1-7.47 3.1s-5.57-1.2-7.47-3.1-3.1-4.55-3.1-7.47 1.19-5.55 3.09-7.47c1.92-1.92 4.55-3.1 7.48-3.1 2.92 0 5.55 1.19 7.47 3.1 1.9 1.9 3.1 4.55 3.1 7.47m29.95-.02c0 2.92-1.19 5.57-3.1 7.47-1.92 1.92-4.55 3.1-7.47 3.1s-5.57-1.2-7.47-3.1-3.1-4.55-3.1-7.47 1.19-5.55 3.09-7.47c1.92-1.92 4.55-3.1 7.48-3.1 2.92 0 5.55 1.19 7.47 3.1 1.9 1.9 3.1 4.55 3.1 7.47" fill="#0090e2"/></g></svg>