<svg xmlns="http://www.w3.org/2000/svg" width="256" height="331" preserveAspectRatio="xMidYMid" viewBox="0 0 256 331"><path fill="currentColor" d="M110.055 162.357c22.09-21.047 15.35-47.078-4.658-78.622S45.115 40.968 37.601 48.127s-9.178 58.34 10.829 89.884 39.533 45.394 61.625 24.346"/><path fill="currentColor" d="M129.156 165.27c16.343 25.768 38.192 16.346 65.237-9.42 27.044-25.768 38.258-75.125 32.7-83.889s-47.8-8.325-74.845 17.443-39.435 50.1-23.092 75.866"/><path fill="currentColor" d="M120.22 151.096c27.137 3.332 37.809-21.739 42.785-62.263S147.468 5.475 138.239 4.342 98 39.715 93.025 80.24s.057 67.524 27.195 70.856"/><path fill="currentColor" d="M113.386 330.307c56.896 0 103.038-16.528 103.038-91.482s-46.142-136.462-103.038-136.462c-56.897 0-103.002 61.507-103.002 136.462s46.105 91.482 103.002 91.482"/><ellipse cx="165.427" cy="216.677" fill="currentColor" rx="14.717" ry="6.845"/><ellipse cx="57.273" cy="212.57" fill="currentColor" rx="14.717" ry="6.845" transform="rotate(7 57.273 212.57)"/><path fill="currentColor" d="M96.266 210.285a2.054 2.054 0 1 0-3.406 2.295c3.151 4.676 7.997 7.39 14.373 8.119 6.348.725 12.016-.902 16.877-4.852a2.054 2.054 0 1 0-2.59-3.187c-3.999 3.249-8.563 4.559-13.82 3.958-5.23-.598-8.986-2.7-11.434-6.333M65.818 178.63a14.67 14.67 0 0 1 10.551 3.945 14.67 14.67 0 0 1 4.672 10.25 14.67 14.67 0 0 1-3.945 10.55 14.67 14.67 0 0 1-10.25 4.672 14.67 14.67 0 0 1-10.551-3.945 14.67 14.67 0 0 1-4.67-10.25 14.67 14.67 0 0 1 3.944-10.55 14.67 14.67 0 0 1 10.249-4.672"/><path fill="currentColor" d="M154.99 182.366a14.67 14.67 0 0 1 10.552 3.944 14.67 14.67 0 0 1 4.67 10.25 14.67 14.67 0 0 1-3.944 10.551 14.67 14.67 0 0 1-10.25 4.671 14.67 14.67 0 0 1-10.55-3.945 14.67 14.67 0 0 1-4.672-10.25 14.67 14.67 0 0 1 3.945-10.55 14.67 14.67 0 0 1 10.25-4.671Z"/><path fill="currentColor" d="m38.083 243.16 22.33 23.235 16.022-17.044a3.765 3.765 0 0 1 5.486 5.157l-16.283 17.324 23.1 24.036a3.765 3.765 0 1 1-5.43 5.218l-22.834-23.761-10.725 11.41a3.765 3.765 0 1 1-5.486-5.158l10.986-11.688-22.595-23.511a3.765 3.765 0 1 1 5.43-5.218Zm149.957 0a3.765 3.765 0 1 1 5.429 5.218l-22.596 23.511 10.988 11.688a3.765 3.765 0 0 1-.042 5.201l-.123.121a3.765 3.765 0 0 1-5.322-.165l-10.725-11.41-22.834 23.762a3.765 3.765 0 0 1-5.197.222l-.127-.116a3.765 3.765 0 0 1-.105-5.324l23.1-24.036-16.284-17.324a3.765 3.765 0 0 1 .042-5.2l.123-.121a3.765 3.765 0 0 1 5.321.164l16.021 17.044z"/><path fill="currentColor" d="M136.602 126.74a3.765 3.765 0 0 1 0 5.323l-17.53 17.531 10.684 10.686a3.765 3.765 0 0 1 .12 5.2l-.12.125a3.765 3.765 0 0 1-5.324 0l-10.686-10.686-10.686 10.686a3.765 3.765 0 1 1-5.324-5.325l10.685-10.686-17.53-17.53a3.765 3.765 0 0 1-.12-5.2l.12-.125a3.765 3.765 0 0 1 5.324 0l17.531 17.53 17.531-17.53a3.765 3.765 0 0 1 5.325 0Z"/></svg>