<svg xmlns="http://www.w3.org/2000/svg" width="18" height="18" viewBox="0 0 18 18"><g fill="currentColor" stroke-width="0"><path d="M8.707 15.491a.56.56 0 0 1 .395-.165h.868v-2.719c0-.205.06-.395.161-.557-.872.087-1.83.135-2.836.135-3.987 0-7.218-.746-7.288-1.684v3.425c0 .948 3.265 1.716 7.295 1.716q.674 0 1.315-.028a.6.6 0 0 1 .089-.123z"/><path d="M11.022 11.556h2.048q.142-.043.272-.088a.55.55 0 0 1 .006-.723l.01-.011.01-.01.795-.795c-1.011-.662-3.704-1.137-6.868-1.137C3.266 8.792 0 9.56 0 10.508s3.266 1.715 7.295 1.715c.996 0 1.946-.047 2.811-.132.181-.319.523-.535.915-.535zM0 6.145C0 7.092 3.266 7.86 7.295 7.86s7.295-.768 7.295-1.715-3.266-1.716-7.295-1.716S0 5.196 0 6.145"/><path d="M14.591 9.502V6.105c-.002.948-3.267 1.716-7.295 1.716-3.988 0-7.219-.747-7.289-1.684v3.425c0 .948 3.265 1.716 7.295 1.716 2.767 0 5.171-.362 6.407-.896l.881-.881z"/><path d="M0 1.716c0 .947 3.266 1.715 7.295 1.715s7.295-.768 7.295-1.715S11.324 0 7.295 0 0 .768 0 1.716"/><path d="M15.08 13.502v-1.495h-4.058a.6.6 0 0 0-.601.601v3.065a.106.106 0 0 1-.105.105H9.105a.106.106 0 0 0-.077.18l1.975 1.974a.235.235 0 0 0 .333 0l1.975-1.974a.1.1 0 0 0 .026-.065.107.107 0 0 0-.101-.11h-1.214a.105.105 0 0 1-.105-.105v-2.176z"/><path d="m17.969 11.043-1.975-1.974a.235.235 0 0 0-.333 0l-1.975 1.974a.1.1 0 0 0-.026.065.107.107 0 0 0 .101.11h1.214c.058 0 .105.047.105.105v2.176h-3.164v1.495h4.059a.6.6 0 0 0 .601-.601v-3.065c0-.058.048-.105.105-.105h1.211a.106.106 0 0 0 .077-.18"/></g></svg>