<svg viewBox="0 0 24 24" xmlns="http://www.w3.org/2000/svg"><path d="m23.4337 7.344c-.5641-.7664-1.469-1.2197-2.4343-1.2197h-7.0004l-1.9997 5.8757h4.8377l-1.9998 5.8755h-4.8377l-1.9997 5.8755h9.0001c1.2912 0 2.438-.8086 2.8466-2.0088l3.9995-11.75c.3049-.8957.1518-1.8807-.4123-2.647zm-13.434 4.655h-2.8379l1.9997-5.8756h4.8378l2.001-5.8743h-9.0003c-1.2912 0-2.438.8086-2.8466 2.0089l-3.9994 11.7499c-.3049.8956-.1518 1.8807.4123 2.647s1.469 1.2196 2.4343 1.2196h7.0004l1.9998-5.8755h-1.9998z"/></svg>