<svg fill="#2d6a8a" viewBox="0 0 24 24" xmlns="http://www.w3.org/2000/svg"><ellipse cx="12" cy="12.5" rx="5.5" ry="6"/><ellipse cx="12" cy="7.5" rx="4" ry="3.5"/><path d="m9.5 5.5q-2.5-3.5-4-3m9 3q2.5-3.5 4-3" fill="none" stroke="#2d6a8a" stroke-linecap="round"/><circle cx="5.2" cy="2.5" r="1"/><circle cx="18.8" cy="2.5" r="1"/><path d="m5.5 10q-3.5-1.5-3.5 1t3 1.5m13.5-2.5q3.5-1.5 3.5 1t-3 1.5" fill="#e05c5c"/><rect height="2" rx="1" width="4" x="10" y="18"/><rect height="1.5" rx=".75" width="3" x="10.5" y="20"/><path d="m10 21.5q2 2 4 0"/><circle cx="10" cy="7" fill="#fff" r="1.8"/><circle cx="14" cy="7" fill="#fff" r="1.8"/><circle cx="10.3" cy="6.8" fill="#0a1929" r="1"/><circle cx="14.3" cy="6.8" fill="#0a1929" r="1"/><rect fill="#1a4a6a" height="3" opacity=".5" rx=".8" width="4" x="10" y="11"/><path d="m11 11v3m2-3v3m-3-1.5h4" opacity=".6" stroke="#4a9aba" stroke-width=".3"/></svg>