<svg height="64" viewBox="0 0 64 64" width="64" xmlns="http://www.w3.org/2000/svg"><g fill="none" fill-rule="evenodd"><path d="m0 0h64v64h-64z" fill="#ed7100"/><path d="m23 41.434-4 2.4-4-2.4v-3.867l4-2.401 4 2.4zm2 .566v-5c0-.351-.185-.676-.485-.857l-5-3a1 1 0 0 0 -1.03 0l-5 3c-.3.18-.485.506-.485.857v5c0 .35.185.677.485.858l5 3a1 1 0 0 0 1.03 0l5-3c.3-.181.485-.507.485-.858m17 4.607v-8.04l8-4.801v8.63zm-9-2.711 6.155 4.208-6.155 3.24zm-9-17.683v-8.513l7 3.888-.002 4.412h2l.001-3.3 7.001 3.889v9.411l-2.4-1.8-1.2 1.599 3.6 2.7v7.759l-7-4.786v-9.472a1 1 0 0 0 -.499-.865zm-2-8.82v7.662l-6.932-4.013zm10-5.263 7.142 3.759-7.142 3.968-7.142-3.968zm10 14.489 8-4v8.815l-8 4.8zm-.976-1.75-6.965-3.869 7.197-3.997 7.554 3.975zm10.442-4.753-19-10a1 1 0 0 0 -.932 0l-19 10a1 1 0 0 0 -.534.864l.002.02h-.002v10h2v-8.265l17 9.842v18.618l-6.47-4.043-1.06 1.697 8.001 5 .001-.002.011.009a1 1 0 0 0 .983.029l19-10c.328-.173.534-.514.534-.885v-22a1 1 0 0 0 -.534-.884" fill="#fff"/></g></svg>