<svg xmlns="http://www.w3.org/2000/svg" width="68.165" height="66.143" viewBox="0 0 18.035 17.5">
  <defs>
    <mask id="wko">
      <rect width="18.035" height="17.5" fill="white"/>
      <path fill="black" d="M8.955.002a1.199 1.19 0 0 0-.459.117L2.224 3.114a1.199 1.19 0 0 0-.647.806L.03 10.65a1.199 1.19 0 0 0 .162.912 1.199 1.19 0 0 0 .068.095l4.34 5.396a1.199 1.19 0 0 0 .938.447h6.96a1.199 1.19 0 0 0 .937-.447l4.338-5.398a1.199 1.19 0 0 0 .232-1.005l-1.548-6.732a1.199 1.19 0 0 0-.65-.807L9.538.118A1.199 1.19 0 0 0 8.957 0m.003.462a1.137 1.127 0 0 1 .55.11l5.94 2.836a1.137 1.127 0 0 1 .615.764l1.468 6.375a1.137 1.127 0 0 1-.22.954l-4.11 5.112a1.137 1.127 0 0 1-.888.423H5.722a1.137 1.127 0 0 1-.888-.422l-4.11-5.112a1.137 1.127 0 0 1-.066-.09 1.137 1.127 0 0 1-.154-.863l1.465-6.375a1.137 1.127 0 0 1 .614-.764L8.523.572a1.137 1.127 0 0 1 .436-.11"/>
      <path fill="black" d="M11.765 12.823h-2.27L4.572 6.667H3.15V4.652h2.314l4.923 6.156h1.378V9.216l3.12 2.6-3.12 2.602zM9.289 8.068l1.098-1.376h1.378v1.594l3.12-2.6-3.12-2.602v1.594h-2.27L8.037 6.502zM5.691 9.433l-1.118 1.4H3.15v2.015h2.314l1.479-1.849z" pointer-events="none"/>
    </mask>
  </defs>
  <g fill="currentColor" mask="url(#wko)">
    <path fill="currentColor" d="M8.957.463a1.137 1.127 0 0 0-.434.11l-5.94 2.838a1.137 1.127 0 0 0-.615.764L.503 10.551a1.137 1.127 0 0 0 .154.862 1.137 1.127 0 0 0 .065.09l4.11 5.113a1.137 1.127 0 0 0 .89.423l6.592-.001a1.137 1.127 0 0 0 .888-.423l4.11-5.113a1.137 1.127 0 0 0 .219-.953l-1.468-6.374a1.137 1.127 0 0 0-.614-.764L9.51.572a1.137 1.127 0 0 0-.551-.11"/>
  </g>
</svg>