<svg xmlns="http://www.w3.org/2000/svg" width="64" height="64" viewBox="0 0 64 64">
  <defs>
    <mask id="ko">
      <rect width="64" height="64" fill="white"/>
      <path fill="black" d="m47.759 33.948.234-1.817c2.173 1.254 2.849 1.99 3.044 2.293-.324.061-1.205.085-3.278-.476M30.5 21c-10.375 0-17.118-2.512-17.5-4.304v-.185C13.349 15.392 19.14 12 30.5 12c11.34 0 17.132 3.381 17.5 4.505v.111C47.724 18.446 40.961 21 30.5 21m15.318 12.362c-4.765-1.565-10.906-4.383-13.224-5.474a2.09 2.09 0 0 0-2.082-1.982A2.097 2.097 0 0 0 28.418 28c0 1.154.94 2.094 2.094 2.094.457 0 .877-.152 1.221-.401 2.399 1.129 8.886 4.105 13.825 5.687l-1.721 13.344C43.583 50.352 38.919 52 30.497 52c-8.425 0-13.092-1.648-13.342-3.249l-3.72-28.937C16.945 21.915 23.749 23 30.5 23c6.75 0 13.554-1.085 17.065-3.185zM50 16.5c0-3.069-8.339-6.5-19.5-6.5S11 13.431 11 16.5v.543l4.174 31.99C15.875 53.516 26.123 54 30.497 54c4.372 0 14.616-.484 15.321-4.993l1.683-13.06c1.277.332 2.311.509 3.115.508.99 0 1.657-.252 2.081-.758.35-.416.488-.941.388-1.476-.228-1.221-1.682-2.509-4.715-4.177l-.1-.055L50 17.044z"/>
    </mask>
  </defs>
  <g>
    <path fill="currentColor" mask="url(#ko)" d="M0 0h64v64H0z"/>
  </g>
</svg>