<svg viewBox="0 0 24 24" xmlns="http://www.w3.org/2000/svg"><path d="m12 0c-6.616 0-12 5.384-12 12s5.384 12 12 12 12-5.384 12-12-5.384-12-12-12zm0 .775c6.192 0 11.225 5.033 11.225 11.225s-5.033 11.225-11.225 11.225-11.225-5.033-11.225-11.225 5.033-11.225 11.225-11.225zm-3.096 5.809c-1.36 0-2.52 1.16-2.52 3.287l1.352.193c.192-1.352.576-1.935 1.352-1.935s1.167.19 2.52.967c1.351.776 1.735.968 3.095.968s2.714-.969 2.522-3.289h-1.355c0 1.16-.382 1.745-1.158 1.745s-1.169-.191-2.713-.967-1.736-.969-3.096-.969zm2.127 3.48v8.905h1.553v-8.32z"/></svg>