<svg viewBox="0 0 24 24" xmlns="http://www.w3.org/2000/svg" xmlns:xlink="http://www.w3.org/1999/xlink"><linearGradient id="a" gradientUnits="userSpaceOnUse" x1="0" x2="24" y1="14.5" y2="14.5"><stop offset="0" stop-color="#e560fc"/><stop offset="1" stop-color="#673cff"/></linearGradient><linearGradient id="b" gradientUnits="userSpaceOnUse" x1=".5" x2="23" y1="8" y2="7.5"><stop offset="0" stop-color="#0ed1fc"/><stop offset="1" stop-color="#3171f5"/></linearGradient><path d="m23.314 7.947c.206.504.491 1.709.602 2.538.134 1 .06 3-.143 3.938a12.13 12.13 0 0 1 -3.278 6.053c-1.635 1.645-3.678 2.762-6.027 3.294-.712.16-3.534.264-4.062.149-.878-.192-1.255-.82-.897-1.494.074-.139 1.31-1.425 2.746-2.858l2.611-2.603.793-.025q.794-.026 1.097-.187c.423-.225.895-.718 1.104-1.152.2-.415.292-1.377.163-1.716-.078-.21-.025-.266.725-.768 1.657-1.108 3.122-2.773 4.002-4.545l.45-.905z" fill="url(#a)"/><path d="m.833 7.787c.031.004.239.382.459.84.748 1.554 2.214 3.267 3.682 4.303 2.034 1.437 4.303 2.194 6.964 2.322l1.203.06-2.937 2.939c-3.255 3.258-3.448 3.407-4.433 3.403a2.5 2.5 0 0 1 -.978-.188c-.505-.23-1.726-1.402-2.422-2.326-.955-1.267-1.74-3.002-2.15-4.75-.266-1.143-.243-3.813.044-4.968.23-.928.478-1.642.568-1.635" fill="url(#a)"/><path clip-rule="evenodd" d="m11.484.028c2.054-.088 2.932.167 3.08.895.1.501-.269.957-2.883 3.57l-2.576 2.571-.731.01c-.555.008-.824.058-1.108.21-1.114.593-1.62 1.858-1.216 3.041.328.964 1.3 1.636 2.34 1.62.215-.005.476-.039.678-.087l-.023.009.089-.03c.924-.268 1.66-1.31 1.665-2.357.002-.344.063-.625.176-.808.095-.156 1.45-1.556 3.012-3.113 3.134-3.122 3.251-3.21 4.287-3.213.823-.003 1.257.225 2.194 1.16a12 12 0 0 1 2.73 4.162l-.447.903c-.88 1.772-2.347 3.437-4.003 4.545-.75.502-.803.559-.725.768.044.114.063.299.06.51a2.44 2.44 0 0 0 -.629-1.478c-1.163-1.287-3.25-1.005-4.008.542-.2.41-.248.64-.244 1.151l.007.639-.067.063-1.204-.06c-1.644-.079-3.139-.398-4.521-.97h-.001a12.5 12.5 0 0 1 -2.442-1.351c-1.374-.97-2.744-2.53-3.528-3.999l-.154-.305c-.22-.459-.428-.836-.459-.84-.032-.003-.082.084-.145.237q.022-.094.06-.196c1.04-2.842 3.136-5.177 5.88-6.553 1.625-.813 2.992-1.164 4.856-1.246" fill="url(#b)" fill-rule="evenodd"/></svg>