<svg height="18" viewBox="0 0 18 18" width="18" xmlns="http://www.w3.org/2000/svg" xmlns:xlink="http://www.w3.org/1999/xlink"><linearGradient id="a" gradientUnits="userSpaceOnUse" x1="8.693" x2="8.693" y1="12.726" y2=".705"><stop offset="0" stop-color="#0078d4"/><stop offset=".105" stop-color="#1480da"/><stop offset=".306" stop-color="#348ee3"/><stop offset=".5" stop-color="#4b98ea"/><stop offset=".682" stop-color="#599eee"/><stop offset=".84" stop-color="#5ea0ef"/></linearGradient><path d="m0 0h18v18h-18z" fill="none"/><path d="m0 0h18v18h-18z" fill="none"/><path d="m17.173 8.961a3.81 3.81 0 0 0 -3.307-3.661 4.8 4.8 0 0 0 -4.947-4.595 4.93 4.93 0 0 0 -4.708 3.211 4.55 4.55 0 0 0 -4 4.375 4.615 4.615 0 0 0 4.776 4.435q.211 0 .42-.018h7.734a.8.8 0 0 0 .2-.031 3.855 3.855 0 0 0 3.832-3.716" fill="url(#a)"/><g fill="#fff"><circle cx="9.101" cy="6.379" r="1.318"/><ellipse cx="12.693" cy="7.698" rx="1.057" ry="1.062"/><circle cx="10.419" cy="3.615" r=".738"/></g><path d="m17.442 17.3h-8.7c-.277 0-.44-.443-.283-.671l3-4.369a.35.35 0 0 0 .061-.2v-2.888a.173.173 0 0 0 -.174-.172h-.161a.344.344 0 0 1 -.344-.344v-.156a.344.344 0 0 1 .344-.344h3.815a.344.344 0 0 1 .344.344v.155a.344.344 0 0 1 -.344.345h-.161a.17.17 0 0 0 -.172.172v2.895a.34.34 0 0 0 .061.2l3 4.362c.155.223-.009.671-.286.671" fill="#50e6ff"/><path d="m9.746 16.128 2.277-3.32a.83.83 0 0 0 .146-.471v-1.337a.265.265 0 0 1 .265-.265h1.292a.265.265 0 0 1 .265.265v1.428a.55.55 0 0 0 .1.317l2.325 3.383a.2.2 0 0 1 -.163.311h-6.344a.2.2 0 0 1 -.163-.311" fill="#fff"/><path d="m11.949 15.034.463 1.072a.066.066 0 0 0 .124-.005l.484-1.435a.066.066 0 0 1 .122-.01l.394.751a.067.067 0 0 0 .116 0l.526-.889a.07.07 0 0 1 .058-.033h1.057l-.215-.311a.07.07 0 0 0 -.055-.029h-.981a.07.07 0 0 0 -.058.032l-.314.532a.066.066 0 0 1 -.116 0l-.481-.915a.066.066 0 0 0 -.122.01l-.451 1.348a.066.066 0 0 1 -.124.005l-.387-.9a.066.066 0 0 0 -.119 0l-.549 1a.07.07 0 0 1 -.059.034h-.9a.07.07 0 0 0 -.055.029l-.214.311h1.367a.07.07 0 0 0 .059-.034l.311-.565a.066.066 0 0 1 .119.002" fill="#86d633"/></svg>