<svg viewBox="0 0 24 24" xmlns="http://www.w3.org/2000/svg"><path d="m6.336 8.919v6.162l5.335-3.083z" fill="#1c54e3"/><path d="m21.394 5.288s-.006-.006-.01-.006l-4.374-2.528-10.674 6.166 5.335 3.082 9.701-5.6.016-.01a.635.635 0 0 0 .006-1.1z" fill="#aa9aff"/><path d="m21.71 12.465a.6.6 0 0 0 -.316.085s-.006 0-.009.003l-4.375 2.528 5.05 2.915h.006a2.06 2.06 0 0 0 .28-1.04v-3.855a.637.637 0 0 0 -.636-.636" fill="#00ead1"/><path d="m22.06 17.996-5.05-2.915-10.67 6.161 4.27 2.465s.016.006.022.012a2.1 2.1 0 0 0 2.093 0c.006-.003.016-.006.022-.012l8.538-4.93q.004 0 .01-.006c.321-.183.589-.45.775-.772h-.006z" fill="#00cec9"/><path d="m11.672 11.998-5.336 3.083-1.444.832-3.605 2.083h-.007c.173.303.416.555.709.738l.078.044.016.01.02.012 4.232 2.442 10.671-6.161-5.335-3.082z" fill="#00ead1"/><path d="m12.74.29c-.1-.06-.208-.107-.315-.148q-.03-.011-.057-.022a2.1 2.1 0 0 0 -.7-.12q-.35.001-.668.11l-.031.01a2 2 0 0 0 -.372.17l-8.529 4.932s-.003 0-.006.003a2.1 2.1 0 0 0 -.781.773h.006l5.049 2.918 10.674-6.158z" fill="#7347ff"/><path d="m1.287 6.001h-.007a2.06 2.06 0 0 0 -.28 1.04v9.915c0 .378.1.735.28 1.043h.007l5.049-2.918v-6.162z" fill="#0423da"/></svg>