<svg xmlns="http://www.w3.org/2000/svg" fill="currentColor" fill-rule="evenodd" viewBox="0 0 24 24"><title>Doc2X</title><path d="M21.66 7.017a3.308 3.308 0 1 0-4.677-4.678l-3.458 3.458a3.308 3.308 0 1 0 4.678 4.677l3.458-3.457zM10.475 18.203a3.308 3.308 0 1 0-4.678-4.678l-3.458 3.458a3.308 3.308 0 1 0 4.678 4.677z"/><path fill-opacity=".5" d="M18.203 13.525a3.308 3.308 0 1 0-4.678 4.678l3.458 3.458a3.308 3.308 0 0 0 4.678-4.678zM7.017 2.339a3.308 3.308 0 1 0-4.678 4.678l3.458 3.457a3.308 3.308 0 0 0 4.677-4.678z"/></svg>