<svg viewBox="0 0 24 24" xmlns="http://www.w3.org/2000/svg"><path d="m9.191 6.777a1.409 1.409 0 0 0 -1.384 1.41v7.62a1.406 1.406 0 0 0 2.109 1.218l6.633-3.832a1.38 1.38 0 0 0 0-2.392l-6.633-3.832a1.39 1.39 0 0 0 -.725-.192zm.381 1.33a.895.895 0 0 1 .602.106l5.22 3.014a.896.896 0 0 1 0 1.546l-5.22 3.014a.894.894 0 0 1 -1.342-.773v-6.028a.895.895 0 0 1 .74-.878zm-1.418-7.474c-4.74 1.6-8.154 6.083-8.154 11.367 0 6.626 5.374 12 12 12 5.161 0 9.568-3.266 11.258-7.84l-3.838-.844-5.148 5.149-8.465-2.272-2.272-8.465 5.059-5.056zm3.846-.633c-.471 0-.929.025-1.387.076l.412 3.801 7.168 1.924 1.91 7.101 3.774.832c.084-.567.123-1.14.123-1.734 0-6.626-5.374-12-12-12z"/></svg>