<svg viewBox="0 0 128 128" xmlns="http://www.w3.org/2000/svg"><path d="m65.73 21.566 26.743 27.059c-.407.43-.746.8-1.098 1.152-9.516 9.551-19.04 19.09-28.543 28.649a8856.765 8856.765 0 0 0 -29.543 29.808c-.922.938-1.406.914-2.312-.007-5.489-5.61-11.055-11.145-16.579-16.72-3.664-3.695-7.3-7.413-10.945-11.128-.262-.266-.496-.563-.765-.871 20.257-20.068 40.457-40.074 60.939-60.368.442.507 1.24 1.433 2.102 2.425zm51.907 51.77c2.867 2.809 5.668 5.555 8.16 8-9.309 9.668-18.469 19.18-27.578 28.637-16.762-12.336-17.43-44.176-1.11-56.934 6.829 6.75 13.645 13.492 20.528 20.297zm0 0"/></svg>