<svg height="18" viewBox="0 0 18 18" width="18" xmlns="http://www.w3.org/2000/svg" xmlns:xlink="http://www.w3.org/1999/xlink"><linearGradient id="a"><stop offset=".22" stop-color="#32d4f5"/><stop offset="1" stop-color="#198ab3"/></linearGradient><linearGradient id="b" gradientUnits="userSpaceOnUse" x1="6.496" x2="6.496" xlink:href="#a" y1="7.366" y2="18.073"/><linearGradient id="c" gradientUnits="userSpaceOnUse" x1="6.229" x2="7.014" xlink:href="#a" y1="1.6" y2="11.366"/><path d="m16.716 13.78c.424.006.771-.296.776-.718v-.01a.3.3 0 0 0 -.019-.126c-.3-2.425-1.688-4.403-4.327-4.403s-4.065 1.706-4.338 4.403a.787.787 0 0 0 .699.854h7.21z" fill="#0078d4"/><path d="m13.155 9.135a2.36 2.36 0 0 1 -1.319-.388l1.31 3.414 1.291-3.384a2.46 2.46 0 0 1 -1.281.358z" fill="#fff" opacity=".8"/><circle cx="13.155" cy="6.701" fill="#0078d4" r="2.435"/><path d="m11.834 16.144c.638 0 1.154-.476 1.154-1.113a1 1 0 0 0 0-.135c-.457-3.627-2.523-6.575-6.462-6.575s-6.093 2.502-6.52 6.545a1.164 1.164 0 0 0 1.038 1.27z" fill="url(#b)"/><path d="m6.576 9.182a3.6 3.6 0 0 1 -1.941-.582l1.941 5.09 1.941-5.052a3.7 3.7 0 0 1 -1.941.543z" fill="#fff" opacity=".8"/><circle cx="6.546" cy="5.547" fill="url(#c)" r="3.637"/><path d="m13.155 3.362a3.343 3.343 0 0 1 3.339 3.339c0 .805-.286 1.544-.762 2.121a4.2 4.2 0 0 1 1.08 1.051 4.82 4.82 0 0 0 1.187-3.172 4.85 4.85 0 0 0 -4.845-4.845 4.83 4.83 0 0 0 -3.296 1.298c.317.438.549.941.673 1.484a3.33 3.33 0 0 1 2.623-1.277z" fill="#0078d4"/></svg>