<svg viewBox="0 0 24 24" xmlns="http://www.w3.org/2000/svg" fill="#DD0700"><path d="m0 .002v23.997h24v-23.997zm10.962 5.592c2.36 0 4.443.416 3.799 2.423-.434 1.365-2.017 1.918-3.114 2.109l-2.757.489c-.655.114-1.039.277-1.3.549h6.012l-.818 2.529 3.446-2.529h3.755l-4.091 2.772 2.07 4.402h-3.766l-1.082-2.754-1.197.826-.619 1.928h-2.829l1.718-5.374h-6.25c.935-2.764 2.952-3.604 4.792-3.975l2.264-.457c.387-.07.64-.259.736-.557.136-.416-.32-.581-.994-.581-.784 0-1.604.074-1.984 1.005h-3.107c1.009-2.474 3.483-2.805 5.316-2.805z"/></svg>