<svg height="48" viewBox="0 0 48 48" width="48" xmlns="http://www.w3.org/2000/svg"><path d="m15.714 37.707a.997.997 0 0 1 -1.414 0l-3-3 1.414-1.414 1.293 1.293v-9.172l-1.293 1.293-1.414-1.414 3-3a1 1 0 0 1 1.414 0l3 3-1.414 1.414-1.293-1.293v9.172l1.293-1.293 1.414 1.414zm-7.707-8.293v9.172l1.293-1.293 1.414 1.414-3 3a.997.997 0 0 1 -1.414 0l-3-3 1.414-1.414 1.293 1.293v-9.172l-1.293 1.293-1.414-1.414 3-3a1 1 0 0 1 1.414 0l3 3-1.414 1.414zm15.595 10.586c3.137 0 5.919-.335 8.185-.866l-.391 1.899c-.016.077-.017.154-.027.231-2.405.485-5.088.736-7.767.736-3.194 0-6.016-.319-8.364-.889l1.697-1.7c1.896.367 4.133.589 6.667.589m0-36c8.489 0 14.405 2.442 14.405 4.635s-5.916 4.635-14.405 4.635c-8.398 0-13.595-2.406-13.595-4.635s5.197-4.635 13.595-4.635m-13.595 8.126c2.552 1.959 7.389 3.144 13.595 3.144 5.716 0 11.469-1.125 14.405-3.296v5.526h2v-8.865c0-4.356-8.253-6.635-16.405-6.635-9.328 0-15.595 2.666-15.595 6.635v14.558h2zm25.246 28.139 2.071-10.063a1 1 0 0 0 -.979-1.202h-3.47l4-8h5.615l-3.89 6.485a.999.999 0 0 0 .857 1.515h3.416zm10.387-12.734a1 1 0 0 0 -.883-.531h-3.533l3.89-6.485a.999.999 0 0 0 -.857-1.515h-8c-.379 0-.725.214-.895.553l-5 10a1 1 0 0 0 .895 1.447h3.861l-2.841 13.798a1 1 0 0 0 1.808.763l11.5-17c.207-.307.229-.703.055-1.03" fill="#c925d1" fill-rule="evenodd"/></svg>