<svg xmlns="http://www.w3.org/2000/svg" width="18" height="18" viewBox="0 0 18 18"><defs><mask id="a"><path fill="#fff" d="M0 0h18v18H0z"/><path d="m13.716 7.246-.07-.028c.012 0 .026.009.038.013s.021.01.032.015"/></mask></defs><g fill="currentColor" mask="url(#a)"><path d="M12.184.508v7.38l-.1.06-3.29 1.9a.4.4 0 0 0-.2.26v.02a.4.4 0 0 0-.02.1v4.68H.514A.51.51 0 0 1 0 14.4V.508A.51.51 0 0 1 .514 0h11.16a.51.51 0 0 1 .51.508"/><path d="M18 10.21v5.196L13.505 18l-.004-.008V12.8z"/><path d="m18 10.21-4.499 2.59-4.488-2.581-.009.018v5.147L9 15.388v-5.159l.004-.019 4.501-2.598z"/><path d="M13.501 12.8v5.192l-4.497-2.59v-5.165l.009-.018z"/></g><path fill="currentColor" d="M12.184.508v7.38l-.1.06-3.29 1.9a.4.4 0 0 0-.2.26v.02a.4.4 0 0 0-.02.1v4.68H.514A.51.51 0 0 1 0 14.4V.508A.51.51 0 0 1 .514 0h11.16a.51.51 0 0 1 .51.508"/></svg>