<svg height="18" viewBox="0 0 18 18" width="18" xmlns="http://www.w3.org/2000/svg" xmlns:xlink="http://www.w3.org/1999/xlink"><linearGradient id="a" gradientUnits="userSpaceOnUse" x1="6.094" x2="6.094" y1="15.213" y2=".303"><stop offset="0" stop-color="#0078d4"/><stop offset="1" stop-color="#5ea0ef"/></linearGradient><path d="m12.184.508v7.38l-.1.06-3.29 1.9a.4.4 0 0 0 -.2.26v.02a.4.4 0 0 0 -.02.1v4.68h-8.06a.51.51 0 0 1 -.514-.508v-13.892a.51.51 0 0 1 .514-.508h11.16a.51.51 0 0 1 .51.508" fill="url(#a)"/><g fill="#fff"><path d="m1.543 2.605h1.357a.254.254 0 0 1 .254.254v.992a.254.254 0 0 1 -.254.254h-1.357a.255.255 0 0 1 -.255-.254v-.992a.255.255 0 0 1 .255-.254m-.243 3.01v.992a.255.255 0 0 0 .255.254h1.363a.254.254 0 0 0 .254-.254v-.992a.254.254 0 0 0 -.254-.254h-1.368a.255.255 0 0 0 -.25.254" opacity=".8"/><path d="m4.684 2.605h5.924a.254.254 0 0 1 .254.254v.992a.254.254 0 0 1 -.254.254h-5.924a.255.255 0 0 1 -.255-.254v-.992a.255.255 0 0 1 .255-.254m-.255 3.01v.992a.255.255 0 0 0 .255.254h5.957a.255.255 0 0 0 .255-.254v-.992a.255.255 0 0 0 -.255-.254h-5.957a.255.255 0 0 0 -.255.254"/></g><path d="m18 10.21v5.196l-4.495 2.594-.004-.008v-5.192z" fill="#50e6ff"/><path d="m18 10.21-4.499 2.59-4.488-2.581-.009.018v5.147l-.004.004v-5.159l.004-.019 4.501-2.598z" fill="#c3f1ff"/><path d="m13.501 12.8v5.192l-4.497-2.59v-5.165l.009-.018z" fill="#9cebff"/><path d="m13.716 7.246-.07-.028c.012 0 .026.009.038.013s.021.01.032.015" fill="#fff"/><path d="m12.184.508v7.38l-.1.06-3.29 1.9a.4.4 0 0 0 -.2.26v.02a.4.4 0 0 0 -.02.1v4.68h-8.06a.51.51 0 0 1 -.514-.508v-13.892a.51.51 0 0 1 .514-.508h11.16a.51.51 0 0 1 .51.508" fill="url(#a)"/><g fill="#fff"><g><path d="m1.543 2.605h1.357a.254.254 0 0 1 .254.254v.992a.254.254 0 0 1 -.254.254h-1.357a.255.255 0 0 1 -.255-.254v-.992a.255.255 0 0 1 .255-.254m-.243 3.01v.992a.255.255 0 0 0 .255.254h1.363a.254.254 0 0 0 .254-.254v-.992a.254.254 0 0 0 -.254-.254h-1.368a.255.255 0 0 0 -.25.254" opacity=".8"/><path d="m4.684 2.605h5.924a.254.254 0 0 1 .254.254v.992a.254.254 0 0 1 -.254.254h-5.924a.255.255 0 0 1 -.255-.254v-.992a.255.255 0 0 1 .255-.254m-.255 3.01v.992a.255.255 0 0 0 .255.254h5.957a.255.255 0 0 0 .255-.254v-.992a.255.255 0 0 0 -.255-.254h-5.957a.255.255 0 0 0 -.255.254"/></g><path d="m13.716 7.246-.07-.028c.012 0 .026.009.038.013s.021.01.032.015"/><path d="m16.39 9.279-4.375 2.665-.005.846a.064.064 0 0 1 -.066.063.08.08 0 0 1 -.049-.022l-.581-.693a.07.07 0 0 0 -.062-.021l-.541.114a.06.06 0 0 1 -.076-.048.02.02 0 0 1 0-.014v-1.019l4.385-2.664h.005z" opacity=".5"/></g></svg>