<svg height="18" viewBox="0 0 18 18" width="18" xmlns="http://www.w3.org/2000/svg" xmlns:xlink="http://www.w3.org/1999/xlink"><linearGradient id="a" gradientUnits="userSpaceOnUse" x1="10.564" x2="10.564" y1="1.333" y2="16.765"><stop offset="0" stop-color="#999"/><stop offset=".999" stop-color="#767676"/></linearGradient><linearGradient id="b" gradientUnits="userSpaceOnUse" x1="10.564" x2="10.564" y1="5.379" y2="12.655"><stop offset=".001" stop-color="#b3b3b3"/><stop offset="1" stop-color="#999"/></linearGradient><linearGradient id="c" gradientUnits="userSpaceOnUse" x1="5.456" x2="5.456" y1=".351" y2="17.782"><stop offset="0" stop-color="#0078d4"/><stop offset="1" stop-color="#005ba1"/></linearGradient><path d="m18 8.989a7.5 7.5 0 0 1 -.418 2.468 8 8 0 0 1 -.19.486 7 7 0 0 1 -.378.756 7.45 7.45 0 0 1 -4.647 3.518h-.014l-.062.016-.031.006a7 7 0 0 1 -.9.154 7 7 0 0 1 -.443.033h-.081c-.089 0-.178.006-.267.006a7.44 7.44 0 0 1 -7.075-5.132 7 7 0 0 1 -.249-1 7.4 7.4 0 0 1 -.116-1.318 7.5 7.5 0 0 1 .106-1.264 7.44 7.44 0 0 1 7.329-6.183c.116 0 .232 0 .348.008a7.443 7.443 0 0 1 7.088 7.446" fill="url(#a)"/><ellipse cx="10.564" cy="8.989" fill="url(#b)" rx="3.505" ry="3.511"/><rect fill="url(#c)" height="16.825" rx=".526" width="10.912" y=".588"/><path d="m8.397 7.262.021 3.44-2.937 1.745-.021-3.447z" fill="#50e6ff"/><path d="m8.397 7.262-2.936 1.745-2.966-1.71 2.945-1.745z" fill="#c3f1ff"/><path d="m5.461 9.007.02 3.44-2.965-1.709-.021-3.441z" fill="#9cebff"/><path d="m2.516 10.738 2.944-1.738.021 3.447z" fill="#c3f1ff"/><path d="m8.418 10.702-2.958-1.702.021 3.447z" fill="#9cebff"/></svg>