<svg height="48" viewBox="0 0 48 48" width="48" xmlns="http://www.w3.org/2000/svg"><path d="m33.944 26.488c-2.177 1.147-5.83 1.684-9.468 1.684-3.643 0-7.3-.538-9.477-1.69v14.545c1.145 1.375 4.217 2.875 9.477 2.875 5.296 0 8.368-1.512 9.49-2.892zm-18.945-2.574c0 .622 2.915 2.258 9.477 2.258 6.424 0 9.344-1.565 9.464-2.215l-.002-1.403c-2.178 1.146-5.827 1.682-9.462 1.682-3.644 0-7.3-.538-9.477-1.69zm0-3.937c0 .622 2.915 2.259 9.477 2.259 6.35 0 9.276-1.532 9.458-2.194l-.017-10.784c-2.153 1.175-5.82 1.725-9.472 1.725-3.64 0-7.29-.545-9.447-1.71zm9.446-10.994c6.214 0 9.123-1.49 9.373-2.165a1.8 1.8 0 0 0 -.442-.672c-1.792-1.786-7.11-2.157-8.967-2.146-7.578 0-9.06 2.114-9.342 2.795.192.665 3.094 2.188 9.378 2.188m11.522 32.376c0 .262-.103.515-.287.703-1.385 1.882-5.015 3.84-11.204 3.84-6.327 0-9.987-2.054-11.301-3.977a1 1 0 0 1 -.175-.565v-34.407c.007-.52.386-4.953 11.404-4.953.75.002 7.677.036 10.382 2.727.748.745 1.128 1.623 1.128 2.61l.02 12.64h.017c0 .048-.013.093-.017.139l.006 3.798h.01c0 .032-.008.06-.01.09zm-16.777-35.945c.94 0 1.702.373 1.702.833s-.762.833-1.702.833c-.941 0-1.703-.373-1.703-.833s.762-.833 1.703-.833" fill="#7aa116" fill-rule="evenodd"/></svg>