<svg height="18" viewBox="0 0 18 18" width="18" xmlns="http://www.w3.org/2000/svg" xmlns:xlink="http://www.w3.org/1999/xlink"><linearGradient id="a"><stop offset="0" stop-color="#76bc2d"/><stop offset=".601" stop-color="#81ce31"/><stop offset=".822" stop-color="#86d633"/></linearGradient><linearGradient id="b" gradientUnits="userSpaceOnUse" x1="2.624" x2="2.624" xlink:href="#a" y1="15.969" y2="11.167"/><linearGradient id="c" gradientUnits="userSpaceOnUse" x1="9.026" x2="9.026" xlink:href="#a" y1="18" y2="13.198"/><linearGradient id="d" gradientUnits="userSpaceOnUse" x1="15.376" x2="15.376" xlink:href="#a" y1="16.001" y2="11.199"/><path d="m15.509 7.868h-5.457a.293.293 0 0 1 -.293-.293v-2.084h-1.466v2.084a.294.294 0 0 1 -.293.293h-5.521a.587.587 0 0 0 -.587.587v2.7h1.466v-1.5a.294.294 0 0 1 .294-.293h4.641v3.918h1.466v-3.912h4.577a.293.293 0 0 1 .293.293v1.53h1.471v-2.736a.587.587 0 0 0 -.591-.587" fill="#50e6ff"/><rect fill="#0078d4" height="5.881" rx=".532" width="5.881" x="6.029"/><rect fill="#fff" height="3.622" rx=".328" width="3.622" x="7.158" y="1.13"/><rect fill="url(#b)" height="4.802" rx=".435" width="4.802" x=".223" y="11.167"/><rect fill="url(#c)" height="4.802" rx=".435" width="4.802" x="6.624" y="13.198"/><rect fill="url(#d)" height="4.802" rx=".435" width="4.802" x="12.975" y="11.199"/></svg>