<svg viewBox="0 0 24 24" xmlns="http://www.w3.org/2000/svg"><path clip-rule="evenodd" d="m15.477 0c.415 0 .749.338.788.752a7.775 7.775 0 0 0 6.985 6.984c.413.04.752.373.752.788v6.952c0 .415-.338.748-.752.788a7.775 7.775 0 0 0 -6.985 6.984c-.04.414-.373.752-.788.752h-6.952c-.416 0-.749-.338-.789-.752a7.775 7.775 0 0 0 -6.984-6.984c-.414-.04-.752-.373-.752-.788v-6.952c0-.415.338-.748.752-.788a7.775 7.775 0 0 0 6.984-6.984c.04-.414.374-.752.79-.752h6.95zm-10.658 11.98a7.226 7.226 0 0 0 7.223 7.23 7.226 7.226 0 0 0 7.223-7.23 7.226 7.226 0 0 0 -7.223-7.23 7.227 7.227 0 0 0 -7.223 7.23" fill="#ec0648" fill-rule="evenodd"/></svg>