<svg height="48" viewBox="0 0 48 48" width="48" xmlns="http://www.w3.org/2000/svg"><path d="m15.958 27.67 1.414 1.413-1.414 1.414-1.414-1.414zm2.895 2.894 2.96 2.96-1.413 1.416-2.96-2.96zm10.297 0 1.414 1.414-2.96 2.961-1.415-1.415zm2.895-2.895 1.414 1.414-1.414 1.414-1.414-1.414zm-7.044 7.63 1.121 1.12-1.414 1.415a.997.997 0 0 1 -1.414 0l-1.414-1.414 1.121-1.12v-1.047h2zm-2-18.837h2v-3.558h-2zm0 5.337h2v-3.558h-2zm0 5.337h2v-3.558h-2zm0 5.337h2v-3.558h-2zm0-21.348h2v-2h-2zm1 32.877c-11.028 0-20-8.973-20-20-.001-11.031 8.971-20.002 19.999-20.002s20.001 8.972 20.001 20.001c0 11.028-8.973 20.001-20 20.001m0-42.002c-12.132 0-22 9.87-22 22.001s9.868 22.001 22 22.001 22.001-9.87 22.001-22c0-12.133-9.869-22.002-22-22.002" fill="#8c4fff" fill-rule="evenodd"/></svg>