<svg height="18" viewBox="0 0 18 18" width="18" xmlns="http://www.w3.org/2000/svg" xmlns:xlink="http://www.w3.org/1999/xlink"><linearGradient id="a" gradientUnits="userSpaceOnUse" x1="5.782" x2="5.782" y1="1.789" y2="15.749"><stop offset="0" stop-color="#5ea0ef"/><stop offset="1" stop-color="#0078d4"/></linearGradient><path d="m4.667 5.35h-4.348a.32.32 0 0 1 -.319-.319v-2.923a.32.32 0 0 1 .319-.319h4.348a.32.32 0 0 1 .319.319v2.923a.32.32 0 0 1 -.319.319m0 5.2h-4.348a.32.32 0 0 1 -.319-.32v-2.923a.32.32 0 0 1 .319-.319h4.348a.32.32 0 0 1 .319.319v2.923a.32.32 0 0 1 -.319.319zm6.578-5.2h-4.345a.32.32 0 0 1 -.32-.319v-2.923a.32.32 0 0 1 .32-.319h4.347a.32.32 0 0 1 .319.319v2.923a.32.32 0 0 1 -.321.319m0 10.4h-4.345a.32.32 0 0 1 -.32-.32v-2.924a.32.32 0 0 1 .32-.319h4.347a.32.32 0 0 1 .319.319v2.923a.32.32 0 0 1 -.321.32zm-6.578 0h-4.348a.32.32 0 0 1 -.319-.321v-2.923a.32.32 0 0 1 .319-.319h4.348a.32.32 0 0 1 .319.319v2.923a.32.32 0 0 1 -.319.32z" fill="url(#a)"/><path d="m13.217 3.758 4.622 4.621a.55.55 0 0 1 0 .779l-4.622 4.622a.246.246 0 0 1 -.42-.174v-2.842a.246.246 0 0 0 -.246-.246h-5.776a.2.2 0 0 1 -.2-.2v-3.1a.2.2 0 0 1 .2-.2h5.776a.246.246 0 0 0 .246-.246v-2.84a.246.246 0 0 1 .42-.174" fill="#86d633"/></svg>