<svg viewBox="0 0 24 24" xmlns="http://www.w3.org/2000/svg"><path d="m6.967 9.996h3.053c-.763-.477-1.048-1.145-1.431-2.384l-1.146-4.246c-.524-1.908-.953-2.815-3.053-2.815h-4.386v1.145h.621c1.286 0 1.431.477 1.814 1.908l1.001 3.722c.524 1.814 1.337 2.67 3.53 2.67zm7.06 0h3.053c2.194 0 2.956-.86 3.484-2.67l1.001-3.722c.382-1.431.57-1.908 1.814-1.908h.621v-1.145h-4.34c-2.146 0-2.576.86-3.053 2.815l-1.145 4.246c-.384 1.286-.673 1.907-1.435 2.384zm-4.007 4.008h4.007v-4.008h-4.007zm-10.02 9.445h4.39c2.1 0 2.529-.907 3.053-2.815l1.146-4.246c.383-1.239.668-1.907 1.431-2.384h-3.053c-2.194 0-3.007.86-3.531 2.67l-1.001 3.722c-.383 1.431-.524 1.907-1.814 1.907h-.621zm19.65 0h4.343v-1.146h-.622c-1.239 0-1.431-.476-1.814-1.907l-1.001-3.722c-.524-1.814-1.286-2.67-3.483-2.67h-3.046c.762.477 1.041 1.098 1.424 2.384l1.145 4.246c.477 1.955.907 2.815 3.054 2.815z"/></svg>