<svg height="64" viewBox="0 0 64 64" width="64" xmlns="http://www.w3.org/2000/svg"><g fill="none" fill-rule="evenodd"><path d="m0 0h64v64h-64z" fill="#8c4fff"/><path d="m24.763 43.3-3.046-3.047 3.046-3.046-1.414-1.414-3.753 3.753a1 1 0 0 0 0 1.414l3.753 3.754zm17.373-18.054a1 1 0 0 0 0-1.414l-3.754-3.754-1.414 1.414 3.047 3.047-3.047 3.047 1.414 1.414zm-6.136 17.857h10v-2h-10zm-6 4h24v-2h-24zm-17-22h11v-2h-11zm-3-6h24v-2h-24zm40.835 6.03c0-6.69-5.443-12.133-12.134-12.133-2.061 0-4.097.526-5.888 1.522l.972 1.748a10.14 10.14 0 0 1 4.916-1.27c5.588 0 10.134 4.546 10.134 10.133 0 5.588-4.546 10.134-10.134 10.134-.925 0-1.842-.125-2.724-.37l-.537 1.926c1.056.294 2.154.444 3.261.444 6.691 0 12.134-5.443 12.134-12.134m-21.919 2.645a10.2 10.2 0 0 1 .42-6.521l-1.847-.766a12 12 0 0 0 -.921 4.642c0 1.071.14 2.136.417 3.165zm4.084 23.325h-19a1 1 0 0 1 -1-1v-19a1 1 0 0 1 1-1h19a1 1 0 0 1 1 1v12h-2v-11h-17v17h19v1a1 1 0 0 1 -1 1" fill="#fff"/></g></svg>