<svg height="18" viewBox="0 0 18 18" width="18" xmlns="http://www.w3.org/2000/svg" xmlns:xlink="http://www.w3.org/1999/xlink"><linearGradient id="a"><stop offset=".22" stop-color="#32d4f5"/><stop offset="1" stop-color="#198ab3"/></linearGradient><linearGradient id="b" gradientUnits="userSpaceOnUse" x1="8.67" x2="8.67" xlink:href="#a" y1="8.09" y2="20.18"/><linearGradient id="c" gradientUnits="userSpaceOnUse" x1="8.33" x2="9.21" xlink:href="#a" y1="1.61" y2="12.59"/><path d="m14.65 18a1.3 1.3 0 0 0 1.35-1.29v-.16c-.51-4.07-2.84-7.38-7.27-7.38s-6.88 2.83-7.33 7.39a1.29 1.29 0 0 0 1.16 1.44z" fill="url(#b)"/><path d="m8.68 10.13a4 4 0 0 1 -2.21-.65l2.19 5.72 2.18-5.68a4.1 4.1 0 0 1 -2.16.61" fill="#fff" opacity=".8"/><circle cx="8.68" cy="6.05" fill="url(#c)" r="4.08"/><path d="m14.8 7.23a6.3 6.3 0 0 0 -.09-2.55 6.19 6.19 0 0 0 -5.82-4.68 5.53 5.53 0 0 0 -5.21 2.77.59.59 0 0 0 .18.81.54.54 0 0 0 .74-.16 4.53 4.53 0 0 1 4.22-2.29 5.1 5.1 0 0 1 4.76 3.68 5.3 5.3 0 0 1 .13 2.19.93.93 0 0 0 -.54.59l-.27.9a.94.94 0 0 0 .62 1.17 1 1 0 0 0 1.18-.66l.27-.9a.92.92 0 0 0 -.17-.87" fill="#767676"/></svg>