<svg xmlns="http://www.w3.org/2000/svg" width="18" height="18" viewBox="0 0 18 18">
  <defs>
    <mask id="wko">
      <rect width="18" height="18" fill="white"/>
      <circle cx="9" cy="9" r="7.34" fill="black"/>
    </mask>
  </defs>
  <g fill="currentColor" mask="url(#wko)">
    <path fill="currentColor" d="M9 .5A8.5 8.5 0 1 0 17.5 9 8.51 8.51 0 0 0 9 .5m0 15.84A7.34 7.34 0 1 1 16.34 9 7.34 7.34 0 0 1 9 16.34"/>
  </g>
  <path fill="currentColor" d="M13.44 7.33a1.84 1.84 0 0 0 0-2.59l-3.15-3.16a1.83 1.83 0 0 0-2.58 0L4.56 4.74a1.84 1.84 0 0 0 0 2.59L7.18 10a.5.5 0 0 1 .15.36v4.88a.63.63 0 0 0 .18.44l1.2 1.2a.41.41 0 0 0 .58 0l1.16-1.16.68-.68a.25.25 0 0 0 0-.34l-.49-.49a.27.27 0 0 1 0-.37l.49-.49a.25.25 0 0 0 0-.34l-.49-.49a.27.27 0 0 1 0-.37l.49-.49a.25.25 0 0 0 0-.34l-.68-.69v-.25zM9 2.35a1 1 0 0 1 0 2.07 1 1 0 1 1 0-2.07"/>
</svg>