<svg viewBox="0 0 24 24" xmlns="http://www.w3.org/2000/svg"><path d="m4.5 0a4.49 4.49 0 0 0 -4.5 4.5v15a4.49 4.49 0 0 0 4.5 4.5h15a4.49 4.49 0 0 0 4.5-4.5v-15a4.49 4.49 0 0 0 -4.5-4.5zm1.633 4.43 11.715.013c.623.001 1.208.26 1.62.674.414.414.671 1 .67 1.623v.086l-1.224 11.799a2.31 2.31 0 0 1 -.836 1.545 2.293 2.293 0 0 1 -3.15-.246l-10.502-11.662a2.31 2.31 0 0 1 -.586-1.657 2.295 2.295 0 0 1 2.293-2.175zm2.363 3.35 7.334 8.146.844-8.137zm1.123.501 3.244.004 2.92 3.244-.336 3.227zm-4.941 1.006 3.017 3.354-.369 3.57 3.588.004 3.018 3.351-7.78-.01c-.623 0-1.208-.26-1.62-.673-.414-.414-.671-1-.67-1.623v-.086z"/></svg>