<svg xmlns="http://www.w3.org/2000/svg" width="18" height="18" viewBox="0 0 18 18"><defs><mask id="a"><path fill="#fff" d="M0 0h18v18H0z"/><path d="M12.32 14.76a.59.59 0 0 1-.57.57H3.07a.57.57 0 0 1-.57-.57V3.18a.55.55 0 0 1 .55-.57h8.7a.57.57 0 0 1 .57.57z"/><path d="M10.32 16.76a.59.59 0 0 1-.57.57H1.07a.58.58 0 0 1-.57-.57V5.18a.55.55 0 0 1 .55-.57h8.7a.57.57 0 0 1 .57.57z"/><path d="M1.94 7.31A1.06 1.06 0 0 1 3 6.24h4.9a1.07 1.07 0 0 1 1.1 1 1.08 1.08 0 0 1-1.08 1.13H3a1.08 1.08 0 0 1-1.06-1.06"/><path d="M17.5 14.08a3.35 3.35 0 0 0-2.91-3.22 4.21 4.21 0 0 0-4.35-4A4.31 4.31 0 0 0 6.1 9.64a4 4 0 0 0-3.52 3.85 4.06 4.06 0 0 0 4.2 3.9h7.39a3.38 3.38 0 0 0 3.33-3.31"/><path d="M13.61 14.45v-3.36h-.93v4.12h2.45v-.76zm-7.1-1.65a2.7 2.7 0 0 1-.51-.31.47.47 0 0 1-.12-.32.32.32 0 0 1 .15-.3.63.63 0 0 1 .42-.12 1.68 1.68 0 0 1 1 .29v-.86a2.8 2.8 0 0 0-1-.15 1.7 1.7 0 0 0-1.09.33 1.08 1.08 0 0 0-.41.89 1.35 1.35 0 0 0 .94 1.2 2.5 2.5 0 0 1 .61.36.42.42 0 0 1 .15.32.33.33 0 0 1-.15.3.8.8 0 0 1-.45.12A1.6 1.6 0 0 1 5 14.13v.92a2.3 2.3 0 0 0 1 .23A1.93 1.93 0 0 0 7.15 15a1.06 1.06 0 0 0 .43-.91 1 1 0 0 0-.25-.7 2.26 2.26 0 0 0-.82-.59m5.16 1.58a2.33 2.33 0 0 0 .33-1.26 2.3 2.3 0 0 0-.25-1.12 1.7 1.7 0 0 0-.69-.74A1.9 1.9 0 0 0 10 11a2.1 2.1 0 0 0-1 .29 1.87 1.87 0 0 0-.73.77A2.5 2.5 0 0 0 8 13.2a2.3 2.3 0 0 0 .24 1.05 1.86 1.86 0 0 0 .68.74 2.1 2.1 0 0 0 1 .29l.85 1H12l-1.19-1.1a1.82 1.82 0 0 0 .86-.8m-.93-.25a.93.93 0 0 1-.76.35.92.92 0 0 1-.75-.36 1.5 1.5 0 0 1-.28-1 1.43 1.43 0 0 1 .29-1 .93.93 0 0 1 .77-.37.87.87 0 0 1 .74.37 1.48 1.48 0 0 1 .28 1 1.47 1.47 0 0 1-.29 1.01"/><circle cx="3.06" cy="7.31" r=".72"/></mask></defs><path fill="currentColor" d="M14.32 12.76a.59.59 0 0 1-.57.57H5.07a.57.57 0 0 1-.57-.57V1.18a.55.55 0 0 1 .55-.57h8.7a.57.57 0 0 1 .57.57z" mask="url(#a)"/></svg>