<svg viewBox="0 0 24 24" xmlns="http://www.w3.org/2000/svg"><path d="m.939 14.973 10.97 6.4v2.627l-10.969-6.4v-2.626zm22.123 0v2.626l-10.971 6.4v-2.626l10.97-6.401zm-22.123-4.313 10.97 6.4v2.627l-7.223-4.214-1.068.622-2.253-1.313 1.07-.623-1.496-.873zm22.123 0v2.626l-1.496.873 1.07.624-2.253 1.313-1.07-.623-7.224 4.214v-2.627l10.972-6.4zm-22.123-4.313 10.97 6.4v2.627l-3.525-2.057-1.067.622-2.252-1.314 1.067-.622-1.429-.833-1.066.622-2.253-1.314 1.068-.622-1.514-.883zm22.123 0v2.626l-1.514.883 1.07.622-2.254 1.315-1.068-.623-1.428.833 1.068.622-2.252 1.314-1.07-.622-3.525 2.057v-2.627l10.972-6.4zm-11.062 2.237 3.236 1.885-2.252 1.314-.983-.573-.982.573-2.252-1.314 3.235-1.885zm0-4.293 6.916 4.03-2.252 1.315-4.664-2.718-4.662 2.717-2.253-1.314zm0-4.291 10.597 6.175-2.252 1.314-8.345-4.862-8.343 4.862-2.252-1.314z"/></svg>