<svg xmlns="http://www.w3.org/2000/svg" width="64" height="64" viewBox="0 0 64 64"><title>Icon-Architecture/48/Arch_AWS-Professional-Services_48</title><g id="Icon-Architecture/48/Arch_AWS-Professional-Services_48" fill="none" fill-rule="evenodd" stroke="none" stroke-width="1"><g id="Icon-Architecture-BG/48/Customer-Enablement" fill="#c925d1"><path id="Rectangle" d="M0 0h64v64H0z"/></g><g id="Icon-Service/48/AWS-Professional-Services_48" fill="#fff" transform="translate(10 10)"><path id="AWS-Professional-Services_48_Squid" d="M37.217 35.354a1 1 0 0 0-.287.885l.831 4.846-4.352-2.288a1 1 0 0 0-.931 0l-4.352 2.288.831-4.846a1 1 0 0 0-.287-.885l-3.52-3.432 4.865-.706a1 1 0 0 0 .753-.548l2.176-4.408 2.176 4.409c.146.295.427.499.753.547l4.865.706zm6.621-4.439a1 1 0 0 0-.808-.681l-6.349-.922-2.841-5.754c-.336-.684-1.457-.683-1.793 0l-2.84 5.754-6.35.922a1.002 1.002 0 0 0-.555 1.706l4.596 4.479-1.085 6.326a1 1 0 0 0 1.451 1.054l5.68-2.987 5.679 2.987a1.004 1.004 0 0 0 1.054-.076 1 1 0 0 0 .397-.978l-1.085-6.326 4.596-4.479a1 1 0 0 0 .253-1.025M9.413 11.193C9.413 6.124 13.538 2 18.608 2c5.068 0 9.192 4.124 9.192 9.193s-4.124 9.193-9.192 9.193c-5.07 0-9.195-4.124-9.195-9.193m9.165 11.274c2.99 0 5.919.85 8.472 2.459q.494.312.966.658l1.183-1.612a18.023 18.023 0 0 0-5.595-2.777c3.668-1.84 6.196-5.627 6.196-10.002C29.8 5.021 24.779 0 18.608 0 12.435 0 7.413 5.021 7.413 11.193c0 4.377 2.531 8.164 6.2 10.003C5.776 23.488 0 31.039 0 40a1 1 0 0 0 1 1h23v-2H2.027c.492-9.204 7.727-16.533 16.551-16.533"/></g></g></svg>