<svg height="64" viewBox="0 0 64 64" width="64" xmlns="http://www.w3.org/2000/svg"><g fill="none" fill-rule="evenodd"><path d="m0 0h64v64h-64z" fill="#c925d1"/><path d="m37.217 35.354a1 1 0 0 0 -.287.885l.831 4.846-4.352-2.288a1 1 0 0 0 -.931 0l-4.352 2.288.831-4.846a1 1 0 0 0 -.287-.885l-3.52-3.432 4.865-.706a1 1 0 0 0 .753-.548l2.176-4.408 2.176 4.409c.146.295.427.499.753.547l4.865.706zm6.621-4.439a1 1 0 0 0 -.808-.681l-6.349-.922-2.841-5.754c-.336-.684-1.457-.683-1.793 0l-2.84 5.754-6.35.922a1.002 1.002 0 0 0 -.555 1.706l4.596 4.479-1.085 6.326a1 1 0 0 0 1.451 1.054l5.68-2.987 5.679 2.987a1.004 1.004 0 0 0 1.054-.076 1 1 0 0 0 .397-.978l-1.085-6.326 4.596-4.479a1 1 0 0 0 .253-1.025m-34.425-19.722c0-5.069 4.125-9.193 9.195-9.193 5.068 0 9.192 4.124 9.192 9.193s-4.124 9.193-9.192 9.193c-5.07 0-9.195-4.124-9.195-9.193m9.165 11.274c2.99 0 5.919.85 8.472 2.459q.494.312.966.658l1.183-1.612a18.023 18.023 0 0 0 -5.595-2.777c3.668-1.84 6.196-5.627 6.196-10.002 0-6.172-5.021-11.193-11.192-11.193-6.173 0-11.195 5.021-11.195 11.193 0 4.377 2.531 8.164 6.2 10.003-7.837 2.292-13.613 9.843-13.613 18.804a1 1 0 0 0 1 1h23v-2h-21.973c.492-9.204 7.727-16.533 16.551-16.533" fill="#fff" transform="translate(10 10)"/></g></svg>