<svg viewBox="0 0 128 128" xmlns="http://www.w3.org/2000/svg" xmlns:xlink="http://www.w3.org/1999/xlink"><linearGradient id="a" gradientUnits="userSpaceOnUse" x1="42.690292" x2="6.794418" y1=".915989" y2="77.047204"><stop offset="0" stop-color="#69d3a7"/><stop offset=".823" stop-color="#2ab586"/><stop offset="1" stop-color="#1cae7f"/></linearGradient><linearGradient id="b" gradientUnits="userSpaceOnUse" x1="132.899748" x2="75.762166" y1="64.410333" y2="101.404715"><stop offset=".081" stop-color="#69d3a7"/><stop offset="1" stop-color="#69d3a7" stop-opacity="0"/></linearGradient><linearGradient id="c" gradientUnits="userSpaceOnUse" x1="-.090852" x2="94.033432" y1="93.260083" y2="122.799868"><stop offset=".077" stop-color="#1cae7f"/><stop offset=".164" stop-color="#1ca379"/><stop offset=".316" stop-color="#1c8568"/><stop offset=".516" stop-color="#1b554d"/><stop offset=".719" stop-color="#1b1e2e"/></linearGradient><path d="m44.984 50.817c5.173 0 9.377 2.762 11.532 7.558l.162.378 8.676-2.95-.175-.445c-3.355-8.192-11.101-13.27-20.195-13.27-6.4 0-11.6 2.047-15.897 6.264-4.271 4.19-6.427 9.458-6.427 15.655 0 6.157 2.17 11.397 6.427 15.574 4.297 4.217 9.498 6.264 15.897 6.264 9.094 0 16.827-5.092 20.195-13.27l.175-.444-8.69-2.95-.148.39c-1.94 4.729-6.251 7.544-11.532 7.544-3.597 0-6.642-1.253-9.04-3.732-2.439-2.505-3.665-5.671-3.665-9.376 0-3.732 1.2-6.83 3.665-9.458 2.411-2.479 5.443-3.732 9.04-3.732z"/><path d="m82.652 125.13-2.586-8.528c23.334-7.086 39.015-28.224 39.015-52.595 0-6.723-1.199-13.297-3.57-19.522l8.326-3.166a63.468 63.468 0 0 1 4.163 22.701c-.013 28.305-18.228 52.865-45.348 61.11z" fill="url(#b)"/><path d="m116.67 47.894c-7.127-23.253-28.292-38.868-52.677-38.868a56.039 56.039 0 0 0 -9.861.876l-1.577-8.77a64.836 64.836 0 0 1 11.438-1.024c28.319 0 52.906 18.147 61.191 45.159z" fill="#69d3a7"/><path d="m4.096 86.532c-2.722-7.194-4.096-14.779-4.096-22.525 0-33.007 24.776-60.343 57.634-63.577l.876 8.865c-28.278 2.79-49.605 26.312-49.605 54.711a54.82 54.82 0 0 0 3.516 19.387z" fill="url(#a)"/><path d="m64.33 42.896 17.46 42.734-12.718 30.85 8.905 1.779 30.96-75.364h-9.62l-12.353 31.31-12.449-31.31z"/><path d="m70.675 112.601-1.872 4.54c-.431 1.038-1.415 1.752-2.52 1.792-.767.027-1.522.054-2.303.054-24.452 0-46.224-16.369-52.946-39.81l-8.569 2.451c7.814 27.228 33.102 46.25 61.501 46.264h.014c.889 0 1.778-.013 2.667-.054 4.567-.188 8.65-3.058 10.4-7.302l2.534-6.156z" fill="url(#c)"/></svg>