<svg xmlns="http://www.w3.org/2000/svg" width="68.165" height="66.143" viewBox="0 0 18.035 17.5"><path fill="#326ce5" d="M8.957.463a1.137 1.127 0 0 0-.434.11l-5.94 2.838a1.137 1.127 0 0 0-.615.764L.503 10.551a1.137 1.127 0 0 0 .154.862 1.137 1.127 0 0 0 .065.09l4.11 5.113a1.137 1.127 0 0 0 .89.423l6.592-.001a1.137 1.127 0 0 0 .888-.423l4.11-5.113a1.137 1.127 0 0 0 .219-.953l-1.468-6.374a1.137 1.127 0 0 0-.614-.764L9.51.572a1.137 1.127 0 0 0-.551-.11"/><path fill="#fff" d="M-6.852 3.818a1.181 1.172 0 0 0-.452.115l-6.18 2.951a1.181 1.172 0 0 0-.638.795l-1.524 6.63a1.181 1.172 0 0 0 .16.9 1.181 1.172 0 0 0 .067.093l4.276 5.317a1.181 1.172 0 0 0 .924.44h6.858a1.181 1.172 0 0 0 .923-.44L1.837 15.3a1.181 1.172 0 0 0 .228-.99L.54 7.677a1.181 1.172 0 0 0-.64-.795l-6.178-2.95a1.181 1.172 0 0 0-.573-.115m.003.455a1.12 1.11 0 0 1 .542.108l5.853 2.795a1.12 1.11 0 0 1 .606.753l1.446 6.281a1.12 1.11 0 0 1-.216.94l-4.05 5.037a1.12 1.11 0 0 1-.875.417l-6.496.001a1.12 1.11 0 0 1-.875-.417l-4.05-5.037a1.12 1.11 0 0 1-.064-.088 1.12 1.11 0 0 1-.152-.851l1.444-6.281a1.12 1.11 0 0 1 .605-.753l5.853-2.797a1.12 1.11 0 0 1 .429-.108" color="#000" font-family="Sans" font-weight="400" overflow="visible" style="line-height:normal;-inkscape-font-specification:Sans;text-indent:0;text-align:start;text-decoration-line:none;text-transform:none;marker:none" transform="translate(15.909 -3.873)scale(1.01489)"/><text xml:space="preserve" x="9.926" y="16.812" fill="#fff" stroke-width=".265" font-family="Sans" font-size="10.583" font-weight="400" letter-spacing="0" style="line-height:6.61458349px" transform="translate(-.993 -1.174)" word-spacing="0"><tspan x="9.926" y="16.812" font-family="Arial" font-size="2.822" style="-inkscape-font-specification:&quot;Arial, Normal&quot;;text-align:center" text-anchor="middle">kubelet</tspan></text><path fill="#fff" d="M8.999 2.92c-.138-.004-3.995 1.892-4.045 1.99-.122.233-1 4.281-.948 4.368.03.051.663.852 1.405 1.78l1.35 1.689h2.22l2.223.002 1.413-1.766 1.413-1.765-.494-2.169c-.273-1.193-.516-2.188-.54-2.212-.07-.067-3.922-1.914-3.997-1.917m.196.948.91.264-.91.263-.909-.263zm-.909.365.852.253-.004 1.183-.847-.47zm1.818 0V5.2l-.847.469-.004-1.183zM7.907 5.846l.909.264-.91.263-.908-.263Zm2.208 0 .91.264-.91.263-.908-.263zm-3.117.365.851.253-.004 1.183-.847-.47zm1.818 0v.967l-.847.469-.004-1.183zm.39 0 .852.253-.004 1.183-.847-.47zm1.818 0v.967l-.846.469-.004-1.183zm-3.45 1.515c.271.01.062.282.37.428.327.155.395-.236.6.063.206.299-.183.223-.154.585.03.362.402.225.246.553-.156.327-.285-.048-.584.158s.006.46-.356.49c-.361.028-.101-.271-.429-.427s-.395.235-.601-.064.184-.223.155-.584c-.03-.362-.402-.225-.246-.553s.285.048.583-.158c.3-.206-.006-.46.356-.49zm2.337.363c.483.013.014.467.456.664.441.198.467-.454.799-.102.332.351-.32.34-.147.792.172.452.651.01.638.493s-.468.014-.665.456c-.198.441.454.467.102.8-.351.331-.34-.32-.792-.148-.451.172-.009.651-.492.638-.484-.014-.015-.468-.456-.665-.442-.198-.468.454-.8.102-.332-.351.32-.34.148-.792-.173-.451-.652-.009-.638-.492.013-.484.467-.015.664-.457.198-.441-.454-.467-.102-.799.351-.332.34.32.792.148s.01-.652.493-.638m-2.315.253a.532.532 0 1 0 0 1.063.532.532 0 0 0 0-1.063m2.264.48a1.063 1.063 0 1 0 0 2.125 1.062 1.062 0 0 0 0-2.124z"/></svg>