<svg xmlns="http://www.w3.org/2000/svg" id="svg18962" width="111.774" height="30.146" viewBox="0 0 29.574 7.976"><g id="layer1" transform="translate(-88.911 -172.683)"><g id="g19004" transform="translate(.132 -.132)" fill="#000"><path id="path15381" d="M91.9 176.485a.825.825 0 0 1-.82.828h-.93v-1.597h.93c.453 0 .82.345.82.769m-.75-1.948h-2.014a.226.226 0 0 0-.225.226v5.67c0 .125.101.226.225.226h.788c.12 0 .226-.105.226-.225v-1.95h1.008a1.984 1.984 0 0 0 1.973-1.991c0-1.078-.889-1.956-1.981-1.956" fill="#000" fill-opacity="1" fill-rule="nonzero" stroke="none" stroke-width=".35277778"/><path id="path15385" d="M97.291 179.506H95.17v-4.743a.23.23 0 0 0-.225-.226h-.788a.226.226 0 0 0-.225.226v5.67c0 .125.1.226.225.226h3.135c.125 0 .226-.1.226-.225v-.703a.226.226 0 0 0-.226-.225" fill="#000" fill-opacity="1" fill-rule="nonzero" stroke="none" stroke-width=".35277778"/><path id="path15389" d="M102.876 174.537h-.814a.226.226 0 0 0-.225.226v3.426c0 .713-.5 1.231-1.188 1.231-.683 0-1.18-.521-1.18-1.24v-3.417a.226.226 0 0 0-.225-.226h-.814a.23.23 0 0 0-.225.226v3.478c0 1.356 1.073 2.418 2.444 2.418 1.375 0 2.453-1.062 2.453-2.418v-3.478a.23.23 0 0 0-.226-.226" fill="#000" fill-opacity="1" fill-rule="nonzero" stroke="none" stroke-width=".35277778"/><path id="path15393" d="M107.995 174.537h-3.743a.226.226 0 0 0-.225.226v.702c0 .125.1.225.225.225h1.248v4.744c0 .12.105.225.225.225h.797c.12 0 .225-.105.225-.225v-4.744h1.248c.125 0 .226-.1.226-.225v-.702a.226.226 0 0 0-.226-.226" fill="#000" fill-opacity="1" fill-rule="nonzero" stroke="none" stroke-width=".35277778"/><path id="path15397" d="M113.296 177.608a1.85 1.85 0 0 1-1.852 1.844 1.846 1.846 0 0 1-1.843-1.844c0-1.026.827-1.86 1.843-1.86 1.004 0 1.852.852 1.852 1.86m-1.852-3.068a3.063 3.063 0 0 0-3.05 3.068 3.02 3.02 0 0 0 3.05 3.051c1.716 0 3.06-1.34 3.06-3.05a3.067 3.067 0 0 0-3.06-3.069" fill="#000" fill-opacity="1" fill-rule="nonzero" stroke="none" stroke-width=".35277778"/><path id="path15401" d="m117.62 174.257-.528 1.312a.07.07 0 0 1-.064.043h-.248a.07.07 0 0 1-.064-.043l-.437-1.09a.07.07 0 0 1-.052.024h-.329v1.04a.07.07 0 0 1-.07.069h-.22a.07.07 0 0 1-.07-.07v-1.04h-.328a.07.07 0 0 1-.07-.068v-.203a.07.07 0 0 1 .07-.069h1.291c.028 0 .053.017.063.043l.34.825.34-.825a.07.07 0 0 1 .064-.043h.247a.07.07 0 0 1 .065.095m-1.237-1.31a1.838 1.838 0 1 0 0 3.676 1.838 1.838 0 0 0 0-3.675" fill="#000" fill-opacity="1" fill-rule="nonzero" stroke="none" stroke-width=".35277778"/></g></g></svg>