<svg viewBox="0 0 24 24" xmlns="http://www.w3.org/2000/svg" fill="#2563EB"><path d="m20.545 10.2945-2.753-1.5825.0011-3.3004 2.7531 1.5824zm-.001 3.5897-2.7522-1.582.0011-3.1528 2.7522 1.5819zm.0263 3.6317-2.786-1.6013.0012-3.1529 2.786 1.6013zm-7.152-6.5068 3.9973-2.2977.0003-3.1523-3.9973 2.2978zm-2.4754 4.9833 6.4574-3.7118.0003-3.1522-6.4574 3.7118zm-4.3424 6.1423 10.8226-6.2208.0003-3.1522-10.8224 6.2208zm2.9893 1.8653-2.7697-1.5927 10.7837-6.2013 2.7697 1.5927zm-6.1348-10.2225 2.753 1.5825-.0011 3.3609-2.7531-1.5825zm.0012-3.5897 2.7522 1.582-.001 3.1528-2.7523-1.5819zm-.0265-3.6114 2.786 1.6013-.001 3.1529-2.786-1.6013zm7.1517 6.4856-3.9974 2.2978-.0004 3.1523 3.9973-2.2978zm2.4754-4.9832-6.4574 3.7117-.0004 3.1523 6.4574-3.7118zm4.3586-6.1516-10.8389 6.2301-.0004 3.1522 10.8389-6.2302zm-2.8814-1.9272 2.7697 1.5927-10.9076 6.2725-2.7697-1.5927z"/></svg>