<svg xmlns="http://www.w3.org/2000/svg" width="64" height="64" viewBox="0 0 64 64"><title>Icon-Architecture/48/Arch_AWS-Deep-Learning-AMIs_48</title><g id="Icon-Architecture/48/Arch_AWS-Deep-Learning-AMIs_48" fill="none" fill-rule="evenodd" stroke="none" stroke-width="1"><g id="Icon-Architecture-BG/48/Machine-Learning" fill="#01a88d"><path id="Rectangle" d="M0 0h64v64H0z"/></g><g id="Icon-Service/48/AWS-Deep-Learning-AMIs_48" fill="#fff" transform="translate(10 10)"><path id="AWS-Deep-Learning-AMIs_48_Squid" d="M35.771 22.952a1.5 1.5 0 0 1-2.12.042 1.5 1.5 0 0 1-.46-1.052 1.497 1.497 0 0 1 1.499-1.528 1.498 1.498 0 0 1 1.081 2.538m-3.604-3.465a3.505 3.505 0 0 0 .097 4.948 3.49 3.49 0 0 0 2.425.975c.92 0 1.838-.358 2.523-1.071.649-.674.996-1.56.977-2.495a3.48 3.48 0 0 0-1.073-2.454 3.506 3.506 0 0 0-4.949.097m8.636 6.064-2.101-.421a1 1 0 0 0-.787.174l-1.052.771a1 1 0 0 0-.403.69l-.249 2.115-3.132-.003-.245-2.098a1 1 0 0 0-.398-.689l-1.065-.789a1 1 0 0 0-.791-.177l-2.083.417-.966-2.981 1.951-.895a1 1 0 0 0 .533-.598l.401-1.227a1 1 0 0 0-.079-.8l-1.049-1.869 2.536-1.84 1.441 1.565c.191.207.438.299.741.323l1.326-.008a1 1 0 0 0 .729-.322l1.431-1.553 2.533 1.844-1.046 1.86c-.136.242-.165.53-.081.794l.395 1.24c.086.268.281.487.537.605l1.943.893zm2.613-4.425-2.351-1.081-.129-.405 1.269-2.256a1 1 0 0 0-.285-1.299l-3.972-2.89a1 1 0 0 0-1.323.131l-1.74 1.887-.448.003-1.745-1.894a1 1 0 0 0-1.322-.132l-3.978 2.885a1 1 0 0 0-.285 1.299l1.271 2.263-.128.393-2.362 1.084a1 1 0 0 0-.534 1.216l1.515 4.674a1 1 0 0 0 1.147.673l2.522-.505.36.268.297 2.552a1 1 0 0 0 .992.884l4.913.005h.001a1 1 0 0 0 .993-.883l.302-2.567.345-.253 2.542.509c.49.098.989-.189 1.147-.671l1.521-4.672a1 1 0 0 0-.535-1.218M37.5 42a2.503 2.503 0 0 1-2.5-2.5c0-1.379 1.121-2.5 2.5-2.5 1.378 0 2.5 1.121 2.5 2.5 0 1.378-1.122 2.5-2.5 2.5m-24-.001a2.503 2.503 0 0 1-2.5-2.5A2.503 2.503 0 0 1 13.5 37c1.378 0 2.5 1.121 2.5 2.499s-1.122 2.5-2.5 2.5M7.345 25.456c.162-.133.317-.272.459-.426L13 27.827v7.224a4.5 4.5 0 0 0-.779.156zM2 21.999c0-1.378 1.121-2.5 2.5-2.5 1.378 0 2.5 1.122 2.5 2.5 0 1.379-1.122 2.5-2.5 2.5a2.5 2.5 0 0 1-2.5-2.5M12.221 8.792q.378.113.779.157v7.223L7.804 18.97a4.5 4.5 0 0 0-.458-.427zM13.5 2.001c1.378 0 2.5 1.121 2.5 2.499S14.878 7 13.5 7A2.503 2.503 0 0 1 11 4.5a2.503 2.503 0 0 1 2.5-2.499M37.499 2c1.378 0 2.5 1.121 2.5 2.499s-1.122 2.5-2.5 2.5A2.5 2.5 0 0 1 35 4.499 2.5 2.5 0 0 1 37.499 2m-15.018 9.067L17.65 6.236c.162-.386.251-.805.299-1.236H33.05c.014.119.014.241.036.356zM15 15.095V8.723a4.5 4.5 0 0 0 1.454-.855l4.188 4.188zm6.013 17.047-4.494 4.044a4.5 4.5 0 0 0-1.519-.91v-6.371zm12.073 6.501c-.022.116-.023.238-.036.357H17.949a4.5 4.5 0 0 0-.276-1.161l5.21-4.689zM37.5 35c-1.472 0-2.769.72-3.59 1.816l-9.448-5.087 2.206-1.986-1.337-1.486-2.74 2.465L15 26.634V25h-2v.556l-4.211-2.267c.029-.097.067-.19.089-.289H24v-2H8.878c-.022-.1-.06-.193-.089-.29L13 18.443V19h2v-1.634l7.119-3.833 3.173 3.174 1.415-1.414-2.75-2.75 9.953-5.36c.821 1.096 2.118 1.816 3.589 1.816 2.481 0 4.5-2.019 4.5-4.5A4.505 4.505 0 0 0 37.499 0c-1.953 0-3.602 1.258-4.223 3H17.723C17.101 1.258 15.453.001 13.5.001A4.505 4.505 0 0 0 9 4.5c0 1.314.576 2.486 1.476 3.309L5.562 17.64a4.4 4.4 0 0 0-1.062-.141 4.505 4.505 0 0 0-4.5 4.5c0 2.482 2.018 4.5 4.5 4.5.367 0 .719-.056 1.061-.14l4.915 9.831A4.48 4.48 0 0 0 9 39.499c0 2.481 2.019 4.5 4.5 4.5 1.953 0 3.601-1.257 4.223-2.999h15.553c.621 1.742 2.27 3 4.224 3 2.481 0 4.5-2.019 4.5-4.5 0-2.482-2.019-4.5-4.5-4.5"/></g></g></svg>