<svg viewBox="0 0 128 128" xmlns="http://www.w3.org/2000/svg" xmlns:xlink="http://www.w3.org/1999/xlink"><linearGradient id="a"><stop offset=".027" stop-color="#cc7f12"/><stop offset=".157" stop-color="#ffc22f"/><stop offset=".5" stop-color="#ffd468"/><stop offset="1" stop-color="#ffd255"/></linearGradient><linearGradient id="b"><stop offset="0" stop-color="#bf4f95"/><stop offset=".284" stop-color="#d26aaa"/><stop offset=".588" stop-color="#dc81bb"/><stop offset=".711" stop-color="#d76cad"/><stop offset=".825" stop-color="#d26cab"/><stop offset=".957" stop-color="#ca629d"/><stop offset="1" stop-color="#c96499"/></linearGradient><linearGradient id="c"><stop offset="0" stop-color="#b94481" stop-opacity="0"/><stop offset=".694" stop-color="#b94481" stop-opacity=".186"/><stop offset="1" stop-color="#b94481"/></linearGradient><linearGradient id="d"><stop offset="0" stop-color="#b94481" stop-opacity="0"/><stop offset=".644" stop-color="#b94481" stop-opacity=".186"/><stop offset="1" stop-color="#b94481"/></linearGradient><linearGradient id="e" gradientUnits="userSpaceOnUse" x1="102.04412" x2="129.414707" y1="12.924763" y2="20.713142"><stop offset=".021" stop-color="#a65486"/><stop offset=".095" stop-color="#db77b4"/><stop offset=".146" stop-color="#f188c8"/><stop offset=".255" stop-color="#ffaddf"/><stop offset=".372" stop-color="#ffaddf"/><stop offset=".576" stop-color="#ee84c5"/><stop offset=".747" stop-color="#da6fb0"/><stop offset="1" stop-color="#a63d7b"/></linearGradient><linearGradient id="f" gradientUnits="userSpaceOnUse" x1="102.570959" x2="121.1677" y1="38.408274" y2="43.128985"><stop offset=".195" stop-color="#974377"/><stop offset=".247" stop-color="#cc76ac"/><stop offset=".33" stop-color="#f5a3d4"/><stop offset=".39" stop-color="#fca6da"/><stop offset=".476" stop-color="#e980c1"/><stop offset=".62" stop-color="#a34d81"/></linearGradient><linearGradient id="g" gradientUnits="userSpaceOnUse" spreadMethod="reflect" x1="104.838772" x2="94.364198" y1="63.090078" y2="78.911613"><stop offset="0" stop-color="#dc83b9"/><stop offset=".159" stop-color="#de77b5"/><stop offset=".56" stop-color="#dd74b3"/><stop offset=".797" stop-color="#d65fa3"/><stop offset="1" stop-color="#c95195" stop-opacity=".992"/></linearGradient><linearGradient id="h" gradientUnits="userSpaceOnUse" x1="79.342582" x2="89.874377" xlink:href="#b" y1="81.516311" y2="94.168452"/><linearGradient id="i" gradientUnits="userSpaceOnUse" x1="70.80247" x2="81.073593" y1="58.033924" y2="70.040742"><stop offset="0" stop-color="#bf4f95"/><stop offset=".284" stop-color="#d26aaa"/><stop offset=".588" stop-color="#dc81ba"/><stop offset=".711" stop-color="#d76cad"/><stop offset=".825" stop-color="#d26cab"/><stop offset=".957" stop-color="#ca629d"/><stop offset="1" stop-color="#c96499"/></linearGradient><linearGradient id="j" gradientUnits="userSpaceOnUse" x1="41.68665" x2="54.99683" xlink:href="#b" y1="49.190141" y2="65.049822"/><linearGradient id="k" gradientUnits="userSpaceOnUse" x1="15.050396" x2="30.039051" y1="72.939927" y2="91.711508"><stop offset=".085" stop-color="#cc7f12"/><stop offset=".127" stop-color="#ffc22f"/><stop offset=".5" stop-color="#ffd468"/><stop offset="1" stop-color="#ffd255"/></linearGradient><linearGradient id="l" gradientUnits="userSpaceOnUse" x1="56.093561" x2="76.069957" xlink:href="#a" y1="102.707427" y2="127.515797"/><linearGradient id="m" gradientUnits="userSpaceOnUse" x1="35.128518" x2="55.063588" xlink:href="#a" y1="85.127944" y2="109.109792"/><radialGradient id="n" cx="82.591" cy="43.432" gradientTransform="matrix(1.97592 .73804 -1.60788 4.30471 7.727 -177.69)" gradientUnits="userSpaceOnUse" r="3.168" xlink:href="#d"/><radialGradient id="o" cx="79.826" cy="51.54" gradientTransform="matrix(3.82361 -3.26243 1.22831 1.4396 -283.113 275.387)" gradientUnits="userSpaceOnUse" r="4.893" xlink:href="#d"/><radialGradient id="p" cx="67.057" cy="40.547" gradientTransform="matrix(1.79287 1.6183 -2.85108 3.15866 70.64 -173.422)" gradientUnits="userSpaceOnUse" r="5.605" xlink:href="#c"/><radialGradient id="q" cx="59.193" cy="38.098" gradientTransform="matrix(1.62883 1.58368 -2.9995 3.08503 68.5 -155.597)" gradientUnits="userSpaceOnUse" r="5.501" xlink:href="#c"/><path d="m0 117.37v-30.098l34.796-28.068c7.746-6.248 15.304-8.216 23.363-3.753 3.144 1.74 4.263 7.499 2.245 11.936z" fill="url(#k)"/><path d="m32.875 61.271c6.497-7.899 15.238-14.989 25.507-21.195 6.803-4.11 12.273 4.327 6.394 12.786-6.09 8.023-14.38 14.928-21.136 19.664-4.536 3.179-13.723-7.657-10.765-11.255z" fill="url(#j)"/><path d="m32.875 61.271c6.497-7.899 15.238-14.989 25.507-21.195 6.803-4.11 12.273 4.327 6.394 12.786-6.09 8.023-14.38 14.928-21.136 19.664-4.536 3.179-13.723-7.657-10.765-11.255z" fill="url(#q)"/><path d="m0 117.37v10.013h29.427l53.924-43.814c5.43-5.2 4.814-13.84 2.121-18.566-5.646-9.919-17.22-.971-25.068 2.384z" fill="url(#m)"/><path d="m58.733 68.07c5.213-5.715 28.256-25.774 32.512-21.452 3.87 3.932 1.747 12.598-7.48 22.78-7.309 8.061-16.517 13.489-21.305 9.695-3.974-3.144-6.768-7.69-3.727-11.024z" fill="url(#i)"/><path d="m58.733 68.07c5.213-5.715 28.256-25.774 32.512-21.452 3.87 3.932 1.747 12.598-7.48 22.78-7.309 8.061-16.517 13.489-21.305 9.695-3.974-3.144-6.768-7.69-3.727-11.024z" fill="url(#p)"/><path d="m29.427 127.383h45.216c12.078-11.678 27.234-25.566 20.927-36.44-3.716-6.399-8.02-7.567-12.219-7.375z" fill="url(#l)"/><path d="m100.788 73.866c-1.308-7.854-28.891 15.579-30.554 18.676-1.608 2.994 2.511 14.462 9.037 11.532 8.355-3.948 23.683-17.206 21.517-30.208z" fill="url(#h)"/><path d="m100.788 73.866c-1.308-7.854-28.891 15.579-30.554 18.676-1.608 2.994 2.511 14.462 9.037 11.532 8.355-3.948 23.683-17.206 21.517-30.208z" fill="url(#o)"/><path d="m102.554 57.16c-9.007 6.778-3.168 17.825-13.588 23.862 13.611 2.815 22-16.195 19.791-23.168z" fill="url(#g)"/><path d="m102.554 57.16c-9.007 6.778-3.168 17.825-13.588 23.862 13.611 2.815 22-16.195 19.791-23.168z" fill="url(#n)"/><path d="m120.353 20.507-11.58 38.1c-2.196.882-4.75.275-6.198-1.508l9.171-39.294z" fill="url(#f)"/><path d="m128 .617v23.9c-7.962 3.174-28.11-4.765-25.764-12.255l3.645-11.645z" fill="url(#e)"/></svg>