<svg xmlns="http://www.w3.org/2000/svg" xmlns:xlink="http://www.w3.org/1999/xlink" viewBox="0 0 128 128"><linearGradient id="a"><stop offset=".027" stop-color="#cc7f12"/><stop offset=".157" stop-color="#ffc22f"/><stop offset=".5" stop-color="#ffd468"/><stop offset="1" stop-color="#ffd255"/></linearGradient><linearGradient id="b"><stop offset="0" stop-color="#bf4f95"/><stop offset=".284" stop-color="#d26aaa"/><stop offset=".588" stop-color="#dc81bb"/><stop offset=".711" stop-color="#d76cad"/><stop offset=".825" stop-color="#d26cab"/><stop offset=".957" stop-color="#ca629d"/><stop offset="1" stop-color="#c96499"/></linearGradient><linearGradient id="c"><stop offset="0" stop-color="#b94481" stop-opacity="0"/><stop offset=".694" stop-color="#b94481" stop-opacity=".186"/><stop offset="1" stop-color="#b94481"/></linearGradient><linearGradient id="d"><stop offset="0" stop-color="#b94481" stop-opacity="0"/><stop offset=".644" stop-color="#b94481" stop-opacity=".186"/><stop offset="1" stop-color="#b94481"/></linearGradient><linearGradient id="e" x1="102.044" x2="129.415" y1="12.925" y2="20.713" gradientUnits="userSpaceOnUse"><stop offset=".021" stop-color="#a65486"/><stop offset=".095" stop-color="#db77b4"/><stop offset=".146" stop-color="#f188c8"/><stop offset=".255" stop-color="#ffaddf"/><stop offset=".372" stop-color="#ffaddf"/><stop offset=".576" stop-color="#ee84c5"/><stop offset=".747" stop-color="#da6fb0"/><stop offset="1" stop-color="#a63d7b"/></linearGradient><linearGradient id="f" x1="102.571" x2="121.168" y1="38.408" y2="43.129" gradientUnits="userSpaceOnUse"><stop offset=".195" stop-color="#974377"/><stop offset=".247" stop-color="#cc76ac"/><stop offset=".33" stop-color="#f5a3d4"/><stop offset=".39" stop-color="#fca6da"/><stop offset=".476" stop-color="#e980c1"/><stop offset=".62" stop-color="#a34d81"/></linearGradient><linearGradient id="g" x1="104.839" x2="94.364" y1="63.09" y2="78.912" gradientUnits="userSpaceOnUse" spreadMethod="reflect"><stop offset="0" stop-color="#dc83b9"/><stop offset=".159" stop-color="#de77b5"/><stop offset=".56" stop-color="#dd74b3"/><stop offset=".797" stop-color="#d65fa3"/><stop offset="1" stop-color="#c95195" stop-opacity=".992"/></linearGradient><linearGradient xlink:href="#b" id="h" x1="79.343" x2="89.874" y1="81.516" y2="94.168" gradientUnits="userSpaceOnUse"/><linearGradient id="i" x1="70.802" x2="81.074" y1="58.034" y2="70.041" gradientUnits="userSpaceOnUse"><stop offset="0" stop-color="#bf4f95"/><stop offset=".284" stop-color="#d26aaa"/><stop offset=".588" stop-color="#dc81ba"/><stop offset=".711" stop-color="#d76cad"/><stop offset=".825" stop-color="#d26cab"/><stop offset=".957" stop-color="#ca629d"/><stop offset="1" stop-color="#c96499"/></linearGradient><linearGradient xlink:href="#b" id="j" x1="41.687" x2="54.997" y1="49.19" y2="65.05" gradientUnits="userSpaceOnUse"/><linearGradient id="k" x1="15.05" x2="30.039" y1="72.94" y2="91.712" gradientUnits="userSpaceOnUse"><stop offset=".085" stop-color="#cc7f12"/><stop offset=".127" stop-color="#ffc22f"/><stop offset=".5" stop-color="#ffd468"/><stop offset="1" stop-color="#ffd255"/></linearGradient><linearGradient xlink:href="#a" id="l" x1="56.094" x2="76.07" y1="102.707" y2="127.516" gradientUnits="userSpaceOnUse"/><linearGradient xlink:href="#a" id="m" x1="35.129" x2="55.064" y1="85.128" y2="109.11" gradientUnits="userSpaceOnUse"/><radialGradient xlink:href="#d" id="n" cx="82.591" cy="43.432" r="3.168" gradientTransform="rotate(20.482 495.636 -67.46)scale(2.10926 4.5952)" gradientUnits="userSpaceOnUse"/><radialGradient xlink:href="#d" id="o" cx="79.826" cy="51.54" r="4.893" gradientTransform="rotate(-40.472 231.96 521.69)scale(5.02628 1.8924)" gradientUnits="userSpaceOnUse"/><radialGradient xlink:href="#c" id="p" cx="67.057" cy="40.547" r="5.605" gradientTransform="rotate(42.07 260.796 5.132)scale(2.41522 4.25509)" gradientUnits="userSpaceOnUse"/><radialGradient xlink:href="#c" id="q" cx="59.193" cy="38.098" r="5.501" gradientTransform="rotate(44.195 225.87 6.56)scale(2.27181 4.30284)" gradientUnits="userSpaceOnUse"/><path fill="url(#k)" d="M0 117.37V87.272l34.796-28.068c7.746-6.248 15.304-8.216 23.363-3.753 3.144 1.74 4.263 7.499 2.245 11.936z"/><path fill="url(#j)" d="M32.875 61.271c6.497-7.899 15.238-14.989 25.507-21.195 6.803-4.11 12.273 4.327 6.394 12.786-6.09 8.023-14.38 14.928-21.136 19.664-4.536 3.179-13.723-7.657-10.765-11.255"/><path fill="url(#q)" d="M32.875 61.271c6.497-7.899 15.238-14.989 25.507-21.195 6.803-4.11 12.273 4.327 6.394 12.786-6.09 8.023-14.38 14.928-21.136 19.664-4.536 3.179-13.723-7.657-10.765-11.255"/><path fill="url(#m)" d="M0 117.37v10.013h29.427l53.924-43.814c5.43-5.2 4.814-13.84 2.121-18.566-5.646-9.919-17.22-.971-25.068 2.384z"/><path fill="url(#i)" d="M58.733 68.07c5.213-5.715 28.256-25.774 32.512-21.452 3.87 3.932 1.747 12.598-7.48 22.78-7.309 8.061-16.517 13.489-21.305 9.695-3.974-3.144-6.768-7.69-3.727-11.024z"/><path fill="url(#p)" d="M58.733 68.07c5.213-5.715 28.256-25.774 32.512-21.452 3.87 3.932 1.747 12.598-7.48 22.78-7.309 8.061-16.517 13.489-21.305 9.695-3.974-3.144-6.768-7.69-3.727-11.024z"/><path fill="url(#l)" d="M29.427 127.383h45.216c12.078-11.678 27.234-25.566 20.927-36.44-3.716-6.399-8.02-7.567-12.219-7.375z"/><path fill="url(#h)" d="M100.788 73.866c-1.308-7.854-28.891 15.579-30.554 18.676-1.608 2.994 2.511 14.462 9.037 11.532 8.355-3.948 23.683-17.206 21.517-30.208"/><path fill="url(#o)" d="M100.788 73.866c-1.308-7.854-28.891 15.579-30.554 18.676-1.608 2.994 2.511 14.462 9.037 11.532 8.355-3.948 23.683-17.206 21.517-30.208"/><path fill="url(#g)" d="M102.554 57.16c-9.007 6.778-3.168 17.825-13.588 23.862 13.611 2.815 22-16.195 19.791-23.168z"/><path fill="url(#n)" d="M102.554 57.16c-9.007 6.778-3.168 17.825-13.588 23.862 13.611 2.815 22-16.195 19.791-23.168z"/><path fill="url(#f)" d="m120.353 20.507-11.58 38.1c-2.196.882-4.75.275-6.198-1.508l9.171-39.294z"/><path fill="url(#e)" d="M128 .617v23.9c-7.962 3.174-28.11-4.765-25.764-12.255L105.881.617z"/></svg>