<svg height="48" viewBox="0 0 48 48" width="48" xmlns="http://www.w3.org/2000/svg"><path d="m2 27.63h8.815v-2h-8.815zm0-6.17h10.578v-2h-10.578zm0-6.171h12.341v-2h-12.341zm32.715 10.34h-13.805l1.264-5.051h13.805zm-14.104-7.051-2.261 9.052h17.927l2.262-9.052zm17.668 18.195a.4.4 0 0 1 -.39.316h-24.465a.397.397 0 0 1 -.391-.482l4.533-21.367h25.28zm-19.279-26.773h24.466c.165 0 .265.093.31.148a.4.4 0 0 1 .08.335l-.585 2.757h-25.281l.621-2.923a.4.4 0 0 1 .389-.317m26.329-1.111a2.39 2.39 0 0 0 -1.863-.89h-24.466a2.41 2.41 0 0 0 -2.347 1.903l-5.577 26.29a2.39 2.39 0 0 0 .484 2.008 2.39 2.39 0 0 0 1.864.889h24.465a2.41 2.41 0 0 0 2.347-1.901l5.577-26.291a2.39 2.39 0 0 0 -.484-2.008" fill="#e7157b" fill-rule="evenodd"/></svg>