<svg height="74" viewBox="0 0 74 74" width="74" xmlns="http://www.w3.org/2000/svg"><g fill="none" fill-rule="evenodd"><path d="m5 5h64v64h-64z" fill="#ed7100"/><path d="m1 1h72v72h-72z" stroke="#879196" stroke-width="2"/><path d="m4 38h36v-14h-36zm-2 4h40v-2h-40zm40-18v14h1a1 1 0 0 1 1 1v4a1 1 0 0 1 -1 1h-42a1 1 0 0 1 -1-1v-4a1 1 0 0 1 1-1h1v-14h-1a1 1 0 0 1 -1-1v-4c0-.357.198-.656.48-.833l-.009-.015 15.2-9.5 1.06 1.696-12.243 7.652h24.512v2h-27v2h40v-2h-11v-2h8.512l-12.243-7.652 1.06-1.696 15.2 9.5-.009.015c.282.177.48.476.48.833v4a1 1 0 0 1 -1 1zm-20-14c1.93 0 3.5-1.57 3.5-3.5h-2c0 .827-.673 1.5-1.5 1.5s-1.5-.673-1.5-1.5.673-1.5 1.5-1.5a1 1 0 0 0 1-1v-4h-2v3.146a3.505 3.505 0 0 0 -2.5 3.354c0 1.93 1.57 3.5 3.5 3.5m-16 26h2v-10h-2zm5 0h2v-10h-2zm5 0h2v-10h-2zm20 0h2v-10h-2zm-5 0h2v-10h-2zm-5 0h2v-10h-2zm-5 0h2v-10h-2z" fill="#fff" transform="translate(15 14)"/></g></svg>