<svg height="48" viewBox="0 0 48 48" width="48" xmlns="http://www.w3.org/2000/svg"><path d="m6 35h24v-2h-24zm-4-7.073h15v-2h-15zm20 3.073v-3.073h-2.916v-2h2.916v-2.927h2v2.927h3v2h-3v3.073zm12.4 8.656 2.559-9.675a1.003 1.003 0 0 0 -.967-1.256h-4.384l4.033-8.725h6.37l-4.007 6.474a1 1 0 0 0 -.024 1.013c.177.317.512.513.874.513h3.988zm11.291-13.111a1 1 0 0 0 -.89-.545h-4.152l4.007-6.473a1 1 0 0 0 -.85-1.527h-8.805c-.39 0-.744.227-.908.58l-4.956 10.725c-.143.31-.118.671.065.959.185.287.502.461.843.461h4.648l-3.598 13.61a1 1 0 0 0 1.776.843l12.739-17.591a1 1 0 0 0 .081-1.042m-17.243 13.539.301 1.977c-1.511.23-3.088.347-4.686.347-7.21 0-14.51-2.038-14.51-5.933h2c0 1.642 4.76 3.933 12.51 3.933a29 29 0 0 0 4.385-.324m-17.415-30.33c0-1.914 5.431-4.754 12.933-4.754 7.797 0 13.034 2.572 13.034 4.976 0 1.662-5.064 4.077-13 4.077-7.841 0-12.879-2.358-12.998-4.018zm-.033 3.369c2.768 1.919 7.991 2.93 13 2.93s10.232-1.011 13-2.93v2.877h2v-6h-.003q.002-.011.003-.024c0-4.042-6.323-6.976-15.034-6.976-8.033 0-14.83 3.047-14.932 6.672l-.034.304q.002.013.003.024h-.003v14h2z" fill="#c925d1" fill-rule="evenodd"/></svg>