<svg height="24" width="24" xmlns="http://www.w3.org/2000/svg"><g fill-rule="evenodd"><path d="m6.8 6.8c-2.9 0-3.2-3.8 0-3.8 2.3 0 3.3.7 5.2 1.5 2.1-.8 2.9-1.5 5.2-1.5 3.2 0 2.9 3.8 0 3.8z" fill="#5c85de"/><path d="m6.8 6.8h10.4c.8 0 1.5-.4 1.8-.8l-7 .8-7-.8c.3.4 1 .8 1.8.8" fill="#3367d6"/><path d="m20.2 12.8h-7.4v8.2h6c.8 0 1.5-.7 1.5-1.5v-6.7zm-16.4 0h7.5v8.2h-6c-.8 0-1.5-.7-1.5-1.5zm7.4-.8v-5.2h-7.4c-.8 0-1.5.7-1.5 1.5v3.7zm10.6 0h-9v-5.2h7.5c.8 0 1.5.7 1.5 1.5z" fill="#85a4e6"/><path d="m3.8 12h7.5v1.5h-7.5zm9 0h7.5v1.5h-7.5z" fill="#3367d6"/><path d="m13.5 6.8h.8v14.2h-.8z" fill="#3367d6"/><path d="m10.5 6.8h3v14.2h-3z" fill="#5c85de"/></g></svg>