<svg fill="#606" viewBox="0 0 24 24" xmlns="http://www.w3.org/2000/svg"><path d="m10.657 23.994h-9.45a1.212 1.212 0 0 1 -1.207-1.206v-9.18h.071c5.784 0 10.504 4.65 10.586 10.386zm7.606 0h-4.045c-.083-7.748-6.423-14.017-14.218-14.052v-3.904h.071c9.983 0 18.121 8.044 18.192 17.956zm4.53 0h-.97c-.069-11.923-9.828-21.587-21.823-21.622v-1.16c0-.662.544-1.206 1.207-1.206h7.64c6.886 2.484 12.41 7.783 15.153 14.502v8.291c0 .663-.544 1.195-1.207 1.195zm-6.08-23.988h6.092a1.19 1.19 0 0 1 1.195 1.194v5.914c-.91-1.242-2.046-2.65-3.158-3.762-1.254-1.242-2.72-2.365-4.128-3.347z"/></svg>