<svg height="48" viewBox="0 0 48 48" width="48" xmlns="http://www.w3.org/2000/svg"><path d="m36.544 14.346h-3.677v-7.258h3.677v.817h-2.66v2.284h2.2v.816h-2.2v2.525h2.66zm-8.903 0h-1.016v-7.258h1.016v3.13h2.64v-3.13h1.016v7.258h-1.017v-3.3h-2.639zm-6.43-3.603q0-1.832.723-2.786.721-.951 2.125-.952.67 0 1.351.282v.828q-.702-.22-1.235-.22-.985 0-1.44.643-.456.645-.456 2.07v.25q0 1.424.44 2.064.44.639 1.414.639.47 0 1.36-.263v.828a3.4 3.4 0 0 1 -1.475.324q-2.806 0-2.807-3.707m-3.12-2.681.9 3.55h-1.802zm-1.091 4.326h2.19l.5 1.958h1.07l-2.096-7.258h-1.099l-2.094 7.258h1.036zm-6.252-1.645q0-1.832.723-2.786.721-.951 2.125-.952.67 0 1.351.282v.828q-.7-.22-1.235-.22-.985 0-1.44.643-.456.645-.456 2.07v.25q0 1.424.44 2.064.44.639 1.414.639.47 0 1.36-.263v.828a3.4 3.4 0 0 1 -1.475.324q-2.806 0-2.807-3.707m28.415 33.149h-8.473v-5.11a1 1 0 0 0 -1-1h-12.217a1 1 0 0 0 -1 1v5.11h-8.473v-39.892h31.164zm1-41.892h-33.163a1 1 0 0 0 -1 1v41.892a1 1 0 0 0 1 1h10.473a1 1 0 0 0 1-1v-5.11h10.218v5.11a1 1 0 0 0 1 1h10.473a1 1 0 0 0 1-1v-41.892a1 1 0 0 0 -1-1" fill="#7aa116" fill-rule="evenodd"/></svg>