<svg height="18" viewBox="0 0 18 18" width="18" xmlns="http://www.w3.org/2000/svg" xmlns:xlink="http://www.w3.org/1999/xlink"><linearGradient id="a" gradientUnits="userSpaceOnUse" x1="9.063" x2="9.063" y1="1.292" y2="16.959"><stop offset=".225" stop-color="#5ea0ef"/><stop offset="1" stop-color="#0078d4"/></linearGradient><path d="m15.408 9.7c-.172-.4-1-.6-.821-1.535a6.58 6.58 0 0 0 -.144-4.018 5.09 5.09 0 0 0 -4.271-2.8 12.7 12.7 0 0 0 -2.219 0 5.09 5.09 0 0 0 -4.271 2.8 6.57 6.57 0 0 0 -.143 4.018c.178.935-.649 1.135-.821 1.535-.3.691.4 2.293.621 2.97s1.25.325 1.512.918c.825 1.873 1.878 3.223 3.938 3.361a1.4 1.4 0 0 0 .193.014h.161a1.4 1.4 0 0 0 .193-.014c2.061-.138 3.114-1.488 3.939-3.361.261-.593 1.291-.24 1.512-.918s.913-2.283.621-2.97" fill="url(#a)"/><path d="m.6 4.908a.574.574 0 0 1 -.575-.574v-3.76a.574.574 0 0 1 .575-.574h3.52a.575.575 0 0 1 0 1.149h-2.944v3.185a.574.574 0 0 1 -.576.574m16.8 0a.574.574 0 0 1 -.574-.574v-3.185h-2.948a.575.575 0 0 1 0-1.149h3.522a.574.574 0 0 1 .575.574v3.76a.574.574 0 0 1 -.575.574m-13.278 13.092h-3.522a.574.574 0 0 1 -.575-.574v-3.76a.575.575 0 0 1 1.149 0v3.185h2.948a.575.575 0 0 1 0 1.149m13.278 0h-3.52a.575.575 0 0 1 0-1.149h2.946v-3.185a.575.575 0 0 1 1.149 0v3.76a.574.574 0 0 1 -.575.574" fill="#50e6ff"/></svg>