<svg viewBox="0 0 128 128" xmlns="http://www.w3.org/2000/svg" xmlns:xlink="http://www.w3.org/1999/xlink"><linearGradient id="a" gradientUnits="userSpaceOnUse" x1="23.21063" x2="58.858575" y1="43.491488" y2="60.828349"><stop offset=".21" stop-color="#fe2857"/><stop offset="1" stop-color="#293896"/></linearGradient><linearGradient id="b" gradientUnits="userSpaceOnUse" x1="12.359092" x2="58.986575" y1="49.678145" y2="15.096865"><stop offset="0" stop-color="#fe2857"/><stop offset=".01" stop-color="#fe2857"/><stop offset=".86" stop-color="#ff318c"/></linearGradient><linearGradient id="c" gradientUnits="userSpaceOnUse" x1="52.743029" x2="113.9696" y1="15.345754" y2="70.940334"><stop offset=".02" stop-color="#ff318c"/><stop offset=".21" stop-color="#fe2857"/><stop offset=".86" stop-color="#fdb60d"/></linearGradient><linearGradient id="d" gradientUnits="userSpaceOnUse" x1="110.549161" x2="39.160828" y1="63.857678" y2="112.995379"><stop offset=".01" stop-color="#fdb60d"/><stop offset=".86" stop-color="#fcf84a"/></linearGradient><path d="m58 59.527-29.406-24.89a10.67 10.67 0 0 0 -17.485 8.949 10.664 10.664 0 0 0 7.196 9.328h.105l.277.086 37.094 11.297c.266.098.551.148.836.152a2.654 2.654 0 0 0 1.375-4.914zm0 0" fill="url(#a)"/><path d="m63.895 18.438a7.747 7.747 0 0 0 -11.985-6.528l-35.91 21.804a10.66 10.66 0 0 0 -4.793 9.96 10.67 10.67 0 0 0 17.523 7.106l32.192-26.234.254-.211a7.783 7.783 0 0 0 2.719-5.898zm0 0" fill="url(#b)"/><path d="m116.117 65.422-54.484-52.473a7.763 7.763 0 0 0 -7.692-1.965 7.763 7.763 0 0 0 -5.394 5.825 7.764 7.764 0 0 0 2.555 7.52l.097.085 57.887 48.766a5.235 5.235 0 0 0 5.578.734 5.243 5.243 0 0 0 3.02-4.75 5.281 5.281 0 0 0 -1.567-3.742zm0 0" fill="url(#c)"/><path d="m117.688 69.184a5.226 5.226 0 0 0 -8.297-4.266l-65.926 32.21a10.668 10.668 0 1 0 11.008 18.2l60.96-41.844a5.21 5.21 0 0 0 2.254-4.3zm0 0" fill="url(#d)"/><path d="m42.668 42.668h42.664v42.664h-42.664zm0 0"/><g fill="#fff"><path d="m47.309 77.332h16v2.668h-16zm-.669-23.664 1.188-1.125c.23.363.617.594 1.047.621.453 0 .754-.32.754-.941v-4.207h1.836v4.222a2.452 2.452 0 0 1 -.656 1.871 2.512 2.512 0 0 1 -1.829.711 2.745 2.745 0 0 1 -2.34-1.152zm5.65-5.652h5.355v1.554h-3.56v1.02h3.196v1.422h-3.164v1.058h3.555v1.563h-5.406zm7.964 1.613h-1.992v-1.613h5.836v1.613h-1.996v5.043h-1.848zm-12.871 7.671h3.14a2.47 2.47 0 0 1 1.813.59c.289.29.445.676.437 1.083a1.556 1.556 0 0 1 -1.03 1.484c.78.145 1.339.836 1.32 1.629 0 1.203-.93 1.914-2.524 1.914h-3.156zm3.554 2.055c0-.367-.3-.566-.84-.566h-.917v1.164h.89c.555 0 .88-.191.88-.574zm-.64 1.891h-1.117v1.23h1.152c.57 0 .883-.218.883-.609-.016-.379-.285-.62-.903-.62zm3.355-3.946h2.953c.79-.062 1.57.192 2.168.712.403.414.618.976.59 1.55a2.132 2.132 0 0 1 -1.37 2.055l1.592 2.383h-2.137l-1.344-2.02h-.617v2.02h-1.847zm2.844 3.2c.621 0 .996-.305.996-.797 0-.531-.39-.8-1-.8h-.988v1.613zm0 0"/><path d="m61.93 57.25h1.777l2.848 6.715h-1.985l-.476-1.203h-2.582l-.477 1.238h-1.925zm1.62 4.078-.745-1.887-.754 1.887zm3.294-4.047h1.847v6.66h-1.847zm2.531 0h1.734l2.399 3.555v-3.556h1.828v6.66h-1.613l-2.513-3.65v3.652h-1.836zm6.265 5.672 1.024-1.23a3.45 3.45 0 0 0 2.133.804c.508 0 .77-.175.77-.46 0-.294-.215-.434-1.13-.649-1.425-.328-2.511-.711-2.511-2.082 0-1.238.98-2.133 2.582-2.133a4.185 4.185 0 0 1 2.738.887l-.89 1.265a3.244 3.244 0 0 0 -1.864-.652c-.449 0-.668.176-.668.426 0 .305.227.441 1.16.648 1.528.332 2.473.832 2.473 2.075 0 1.359-1.074 2.132-2.687 2.132a4.643 4.643 0 0 1 -3.13-1.03zm0 0"/></g></svg>