<svg viewBox="0 0 24 24" xmlns="http://www.w3.org/2000/svg" fill="#00AFF0"><path d="m24 4.003h-4.015c-3.45 0-5.3.197-6.748 1.957a7.996 7.996 0 1 0 2.103 9.211c3.182-.231 5.39-2.134 6.085-5.173 0 0-2.399.585-4.43 0 4.018-.777 6.333-3.037 7.005-5.995zm-18.39 7.996a2.391 2.391 0 0 1 3.67-2.029 2.966 2.966 0 0 1 2.998-2.528h.008c-.92 1.778-1.407 3.352-1.998 5.263a2.392 2.392 0 0 1 -4.678-.705zm2.386-7.996a7.996 7.996 0 1 0 7.996 7.996 7.996 7.996 0 0 0 -7.996-7.996zm0 10.394a2.399 2.399 0 1 1 2.399-2.397 2.396 2.396 0 0 1 -2.399 2.398z"/></svg>