<svg height="18" viewBox="0 0 18 18" width="18" xmlns="http://www.w3.org/2000/svg" xmlns:xlink="http://www.w3.org/1999/xlink"><linearGradient id="a"><stop offset="0" stop-color="#50e6ff"/><stop offset="1" stop-color="#32bedd"/></linearGradient><linearGradient id="b" gradientUnits="userSpaceOnUse" x1="2.053" x2="2.053" xlink:href="#a" y1="3.258" y2="5.918"/><linearGradient id="c" gradientUnits="userSpaceOnUse" x1="9.034" x2="9.034" xlink:href="#a" y1="15.265" y2="17.924"/><linearGradient id="d" gradientUnits="userSpaceOnUse" x1="15.947" x2="15.947" xlink:href="#a" y1="3.34" y2="5.999"/><linearGradient id="e" gradientUnits="userSpaceOnUse" x1="9.001" x2="9.001" xlink:href="#a" y1="7.048" y2="13.068"/><path d="m8.622 17.233-6.852-3.956a.76.76 0 0 1 -.377-.654v-7.912a.76.76 0 0 1 .377-.654l6.852-3.957a.75.75 0 0 1 .755 0l6.852 3.956a.76.76 0 0 1 .378.654v7.912a.76.76 0 0 1 -.378.654l-6.852 3.957a.76.76 0 0 1 -.755 0m-5.817-4.554 5.817 3.359a.75.75 0 0 0 .755 0l5.823-3.359a.75.75 0 0 0 .377-.653v-6.718a.76.76 0 0 0 -.377-.654l-5.823-3.354a.76.76 0 0 0 -.755 0l-5.817 3.354a.76.76 0 0 0 -.378.654v6.718a.75.75 0 0 0 .378.653" fill="#a3a3a3"/><circle cx="2.053" cy="4.664" fill="url(#b)" r="1.33"/><circle cx="9.034" cy="16.67" fill="url(#c)" r="1.33"/><circle cx="15.947" cy="4.745" fill="url(#d)" r="1.33"/><path d="m8.093 7.994h-2.58l.387-3.774a.33.33 0 0 1 .329-.3h1.148a.33.33 0 0 1 .33.3zm2.28.167h-1.839l.275-2.561a.236.236 0 0 1 .235-.214h.819a.237.237 0 0 1 .237.214z" fill="#32bedd"/><path d="m13.586 7.434h-9.171a.385.385 0 0 0 -.385.385v4.2a.385.385 0 0 0 .385.384h5.258v-1.549a.19.19 0 0 1 .189-.189h1.065a.19.19 0 0 1 .189.189v1.546h2.47a.384.384 0 0 0 .385-.384v-4.2a.385.385 0 0 0 -.385-.382" fill="url(#e)"/><g fill="#fff"><rect height="1.115" rx=".138" width="1.524" x="5.505" y="8.639"/><rect height="1.115" rx=".138" width="1.524" x="8.239" y="8.639"/><rect height="1.115" rx=".138" width="1.524" x="10.972" y="8.639"/></g>​</svg>