<svg height="24" width="24" xmlns="http://www.w3.org/2000/svg"><path d="m14.68 13.06 4.55 2.63v.99l-4.94-2.85z" fill="#4285f4" fill-rule="evenodd"/><path d="m9.98 13.65-5.21 3.01-.32-.8 5.08-2.94z" fill="#669df6" fill-rule="evenodd"/><path d="m11.55 3.29h.86v5.78h-.86z" fill="#aecbfa"/><g fill-rule="evenodd"><path d="m3.25 7v10l8.75 5 8.74-5v-10l-8.74-5zm15.63 8.89-6.88 3.89-6.88-3.89v-7.78l6.88-3.89 6.87 3.89v7.78z" fill="#aecbfa"/><path d="m11.98 11.5 3.98-2.29-3.98-2.3-3.97 2.3z" fill="#aecbfa"/><path d="m11.52 12.3-3.86-2.29v4.59l3.86 2.29z" fill="#669df6"/><path d="m12.48 12.3v4.59l3.86-2.29v-4.59z" fill="#4285f4"/></g></svg>