<svg xmlns="http://www.w3.org/2000/svg" width="18" height="18" viewBox="0 0 18 18"><path fill="currentColor" d="M13.23 2.49v4.84L9.08 9.76V4.91z"/><path fill="currentColor" d="M13.23 2.49 9.08 4.92 4.93 2.49 9.08.07z"/><path fill="currentColor" d="M9.08 4.92v4.84L4.93 7.33V2.49z"/><path fill="currentColor" d="M8.61 10.67v4.82l-4.14 2.43v-4.83z"/><path fill="currentColor" d="M8.61 10.67 4.47 13.1.31 10.67l4.16-2.43z"/><path fill="currentColor" d="M4.47 13.1v4.82L.31 15.49v-4.82z"/><path fill="currentColor" d="m13.74 8.23-4.15 2.43v4.85l4.15 2.42 4.16-2.42v-4.85z"/><path fill="currentColor" d="M16.75 15.74h-5.86a.57.57 0 0 1-.56-.58v-3.95a.51.51 0 0 1 .47-.55h5.91a.6.6 0 0 1 .56.59v3.9a.52.52 0 0 1-.43.59z"/><path fill="currentColor" d="m12.84 14.78-1.57-1.55a.18.18 0 0 1 0-.24l1.6-1.49a.18.18 0 0 1 .22 0l.14.14a.15.15 0 0 1 0 .22L12 13a.17.17 0 0 0 0 .23l1.21 1.24a.14.14 0 0 1 0 .21l-.1.1a.16.16 0 0 1-.22 0zm1.88 0 1.56-1.55a.16.16 0 0 0 0-.24l-1.64-1.49a.15.15 0 0 0-.22 0l-.11.12a.16.16 0 0 0 0 .22L15.55 13a.16.16 0 0 1 0 .24l-1.19 1.22a.14.14 0 0 0 0 .21l.09.09a.14.14 0 0 0 .2.07.16.16 0 0 0 .07-.05"/></svg>