<svg height="18" viewBox="0 0 18 18" width="18" xmlns="http://www.w3.org/2000/svg" xmlns:xlink="http://www.w3.org/1999/xlink"><linearGradient id="a" gradientTransform="matrix(1 0 0 -1 0 20)" gradientUnits="userSpaceOnUse" x1="13.8" x2="13.8" y1="4.27" y2="9.34"><stop offset="0" stop-color="#0078d4"/><stop offset=".16" stop-color="#1380da"/><stop offset=".53" stop-color="#3c91e5"/><stop offset=".82" stop-color="#559cec"/><stop offset="1" stop-color="#5ea0ef"/></linearGradient><path d="m13.23 2.49v4.84l-4.15 2.43v-4.85z" fill="#949494"/><path d="m13.23 2.49-4.15 2.43-4.15-2.43 4.15-2.42z" fill="#b3b3b3"/><path d="m9.08 4.92v4.84l-4.15-2.43v-4.84z" fill="#e6e6e6"/><path d="m8.61 10.67v4.82l-4.14 2.43v-4.83z" fill="#949494"/><path d="m8.61 10.67-4.14 2.43-4.16-2.43 4.16-2.43z" fill="#b3b3b3"/><path d="m4.47 13.1v4.82l-4.16-2.43v-4.82z" fill="#e6e6e6"/><path d="m13.74 8.23-4.15 2.43v4.85l4.15 2.42 4.16-2.42v-4.85z" fill="#50e6ff"/><path d="m16.75 15.74h-5.86a.57.57 0 0 1 -.56-.58v-3.95a.51.51 0 0 1 .47-.55h5.91a.6.6 0 0 1 .56.59v3.9a.52.52 0 0 1 -.43.59z" fill="url(#a)"/><g fill="#f2f2f2"><path d="m12.84 14.78-1.57-1.55a.18.18 0 0 1 0-.24l1.6-1.49a.18.18 0 0 1 .22 0l.14.14a.15.15 0 0 1 0 .22l-1.23 1.14a.17.17 0 0 0 0 .23l1.21 1.24a.14.14 0 0 1 0 .21l-.1.1a.16.16 0 0 1 -.22 0z"/><path d="m14.72 14.78 1.56-1.55a.16.16 0 0 0 0-.24l-1.64-1.49a.15.15 0 0 0 -.22 0l-.11.12a.16.16 0 0 0 0 .22l1.24 1.16a.16.16 0 0 1 0 .24l-1.19 1.22a.14.14 0 0 0 0 .21l.09.09a.14.14 0 0 0 .2.07.16.16 0 0 0 .07-.05"/></g></svg>