<svg viewBox="0 0 24 24" xmlns="http://www.w3.org/2000/svg"><path d="m7.53 15.975a7.53 7.53 0 0 0 2.206-5.325 7.54 7.54 0 0 0 -2.206-5.325l-5.325-5.325a7.54 7.54 0 0 0 -2.205 5.325 7.54 7.54 0 0 0 2.205 5.325zm11.144.493a7.54 7.54 0 0 0 -5.325-2.206 7.54 7.54 0 0 0 -5.325 2.206l5.325 5.325a7.54 7.54 0 0 0 5.325 2.205 7.54 7.54 0 0 0 5.326-2.205zm-16.455 5.312a7.54 7.54 0 0 0 5.325 2.205v-7.53h-7.53a7.54 7.54 0 0 0 2.205 5.325m18.511-13.185a7.53 7.53 0 0 0 -5.327-2.206 7.53 7.53 0 0 0 -5.325 2.207l5.325 5.325z" fill="#7fc8ff"/></svg>