<svg height="18" viewBox="0 0 18 18" width="18" xmlns="http://www.w3.org/2000/svg" xmlns:xlink="http://www.w3.org/1999/xlink"><linearGradient id="a" gradientTransform="matrix(1 0 0 -1 541.126 -205.758)" gradientUnits="userSpaceOnUse" x1="-530.216" x2="-530.216" y1="-219.486" y2="-210.552"><stop offset="0" stop-color="#0078d4"/><stop offset=".817" stop-color="#5ea0ef"/></linearGradient><linearGradient id="b" gradientTransform="matrix(1 0 0 -1 541.126 -205.758)" gradientUnits="userSpaceOnUse" x1="-530.216" x2="-530.216" y1="-222.854" y2="-219.405"><stop offset=".15" stop-color="#ccc"/><stop offset="1" stop-color="#707070"/></linearGradient><linearGradient id="c" gradientUnits="userSpaceOnUse" x1="10.752" x2="10.752" y1="4.279" y2="12.118"><stop offset="0" stop-color="#0078d4"/><stop offset="1" stop-color="#005ba1"/></linearGradient><rect fill="#005ba1" height="8.92" rx=".449" width="13.361" x=".41" y=".904"/><rect fill="#0078d4" height="8.92" rx=".449" width="13.361" x="2.453" y="2.72"/><rect fill="url(#a)" height="8.92" rx=".449" width="13.361" x="4.23" y="4.794"/><path d="m13.553 16.343c-1.322-.211-1.322-1.163-1.322-2.643h-2.643c0 1.533 0 2.484-1.321 2.643a.78.78 0 0 0 -.661.753h6.608a.78.78 0 0 0 -.661-.753" fill="url(#b)"/><circle cx="10.752" cy="9.126" fill="url(#c)" r="3.018"/><path d="m12.528 8.143v2.059l-1.779 1.034v-2.062z" fill="#50e6ff"/><path d="m12.528 8.143-1.779 1.034-1.779-1.035 1.779-1.034z" fill="#c3f1ff"/><path d="m10.754 9.185-.018 2.059-1.771-1.05.018-2.059z" fill="#9cebff"/><path d="m13.14 6.811a.243.243 0 0 0 -.342 0 .25.25 0 0 0 0 .351 2.883 2.883 0 1 1 -2.165-.845l-.035.189a.092.092 0 0 0 .124.1l.93-.353a.123.123 0 0 0 .033-.211l-.785-.608a.093.093 0 0 0 -.149.06l-.047.331a3.373 3.373 0 1 0 2.434.986z" fill="#fff"/></svg>