<svg height="18" viewBox="0 0 18 18" width="18" xmlns="http://www.w3.org/2000/svg" xmlns:xlink="http://www.w3.org/1999/xlink"><linearGradient id="a"><stop offset="0" stop-color="#0078d4"/><stop offset="1" stop-color="#5ea0ef"/></linearGradient><linearGradient id="b" gradientUnits="userSpaceOnUse" x1="3.707" x2="3.707" xlink:href="#a" y1="5.123" y2="2.061"/><linearGradient id="c" gradientUnits="userSpaceOnUse" x1="12.741" x2="12.741" xlink:href="#a" y1="10.558" y2="5.161"/><linearGradient id="d" gradientUnits="userSpaceOnUse" x1="3.707" x2="3.707" xlink:href="#a" y1="13.723" y2="10.378"/><path d="m5.459 3.98.464-.862 5.445 2.929-.464.863z" fill="#003067"/><path d="m7.081 4.2v-2.7h-6.751v2.7c0 .716 1.511 1.3 3.376 1.3s3.376-.58 3.376-1.3z" fill="url(#b)"/><ellipse cx="3.707" cy="1.546" fill="#83b9f9" rx="3.376" ry="1.296"/><path d="m16.115 8.616v-2.7h-6.75v2.7c0 .716 1.511 1.3 3.376 1.3s3.376-.58 3.376-1.3z" fill="url(#c)"/><ellipse cx="12.741" cy="5.96" fill="#83b9f9" rx="3.376" ry="1.296"/><path d="m3.22 4.168h.98v7.962h-.98z" fill="#003067"/><circle cx="3.75" cy="3.337" fill="#c3f1ff" r="1.157"/><path d="m7.081 12.824v-2.7h-6.751v2.7c0 .716 1.511 1.3 3.376 1.3s3.376-.58 3.376-1.3z" fill="url(#d)"/><ellipse cx="3.707" cy="10.167" fill="#83b9f9" rx="3.376" ry="1.296"/><path d="m3.99 11.36 8.745-4.291.432.88-8.745 4.29z" fill="#003067"/><circle cx="3.701" cy="11.939" fill="#c3f1ff" r="1.157"/><circle cx="12.743" cy="7.548" fill="#c3f1ff" r="1.157"/><path d="m17.166 15.5a.26.26 0 0 0 -.1-.185 17 17 0 0 0 -1.503-1.315 3.56 3.56 0 0 0 -2.638-.706 5.52 5.52 0 0 0 -3.339 2.066.22.22 0 0 0 -.058.14.26.26 0 0 0 .1.186 17 17 0 0 0 1.507 1.315 3.57 3.57 0 0 0 2.637.706 5.52 5.52 0 0 0 3.339-2.066.23.23 0 0 0 .059-.141z" fill="#003067"/><circle cx="13.381" cy="15.501" fill="#c3f1ff" r="1.846"/><path d="m13.389 14.478a1 1 0 0 0 -.144.029.54.54 0 0 1 .1.292.56.56 0 0 1 -.559.558.55.55 0 0 1 -.368-.145 1 1 0 0 0 -.062.3 1.038 1.038 0 1 0 1.038-1.037zm4.14-1.006a6.6 6.6 0 0 0 -1.929-1.231l.437-.776a.46.46 0 0 0 .044-.34.441.441 0 0 0 -.806-.106l-.535.952a6 6 0 0 0 -.914-.143v-.975a.442.442 0 0 0 -.883 0v.974a6 6 0 0 0 -.934.144l-.536-.952a.44.44 0 0 0 -.6-.158.45.45 0 0 0 -.159.6l.437.776a6.6 6.6 0 0 0 -1.931 1.231c-.422.382.2 1 .624.624a5.183 5.183 0 0 1 7.067 0c.415.384 1.04-.238.618-.62" fill="#003067"/><path d="m-4.934-3.691h29.331v34.261h-29.331z" fill="none" stroke="#b31b1b" stroke-miterlimit="10"/></svg>