<svg xmlns="http://www.w3.org/2000/svg" fill="currentColor" fill-rule="evenodd" viewBox="0 0 24 24"><title>Colab (Google)</title><path d="m11.146 6.406.103.079-1.727 2.959a3.637 3.637 0 0 0-5.098 0 3.65 3.65 0 0 0-1.046 2.34l-.006.222c0 .959.379 1.88 1.054 2.56l-.013.014a3.637 3.637 0 0 0 5.11-.014l1.764 2.954-.117.084a6.99 6.99 0 0 1-9.127-.654A7 7 0 0 1 0 12.008a6.975 6.975 0 0 1 6.16-6.933l.312-.03a7 7 0 0 1 4.674 1.361M16.916 5a7 7 0 0 1 4.935 2.063l-.015.018.194.211a7 7 0 0 1 1.73 4.38l.004.305a6.988 6.988 0 0 1-11.819 4.973 7 7 0 0 1-2.043-4.942c0-1.852.736-3.629 2.045-4.94v-.016l.021-.02A6.99 6.99 0 0 1 16.916 5m.305 3.662L17 8.668a3.637 3.637 0 0 0-2.627 5.899 3.637 3.637 0 0 0 5.096-5.123 3.63 3.63 0 0 0-2.026-.775l-.22-.007z"/></svg>