<svg height="48" viewBox="0 0 48 48" width="48" xmlns="http://www.w3.org/2000/svg"><path d="m13.03 8h2v-2h-2zm-3 0h2v-2h-2zm-3 0h2v-2h-2zm26.288 11.466a1 1 0 0 1 0 1.414l-3.881 3.882-1.415-1.414 3.175-3.175-3.175-3.175 1.415-1.415zm-15.062-2.468-3.175 3.175 3.175 3.175-1.414 1.414-3.882-3.882a1 1 0 0 1 0-1.414l3.882-3.883zm5.936-2.469 1.858.743-4.217 10.544-1.857-.743zm9.479 28.471h-19.301l-8.809-6.881 6.451-6.12 23.976-.003 6.49 6.125zm-28.626-32h36.985v17l-37 .004zm36.985-6v4h-37l.004-4zm-3.128 25h3.368c.97 0 1.76-.764 1.76-1.702v-23.597c0-.938-.79-1.701-1.76-1.701h-37.479c-.971 0-1.761.763-1.761 1.699l-.02 23.597c-.002.934.782 1.698 1.756 1.704h4.339l-6.605 6.265 11.181 8.735h20.681l11.18-8.734z" fill="#01a88d" fill-rule="evenodd"/></svg>