<svg viewBox="0 0 24 24" xmlns="http://www.w3.org/2000/svg"><path d="m17.61.455a3.41 3.41 0 0 0 -3.41 3.41 3.41 3.41 0 0 0 3.41 3.41 3.41 3.41 0 0 0 3.41-3.41 3.41 3.41 0 0 0 -3.41-3.41zm-4.69.345c-3.997-.023-7.783 2.141-9.772 5.651a4.5 4.5 0 0 1 .26-.007 4.92 4.92 0 0 1 2.585.737 8.316 8.316 0 0 1 6.695-3.581 4.944 4.944 0 0 1 1.035-2.766 11.008 11.008 0 0 0 -.803-.034zm9.226 4.994a4.915 4.915 0 0 1 -1.918 2.246 8.36 8.36 0 0 1 -.273 8.303 4.89 4.89 0 0 1 1.632 2.54 11.156 11.156 0 0 0 .559-13.089zm-18.736 2.138a3.41 3.41 0 0 0 -3.41 3.41 3.41 3.41 0 0 0 3.41 3.409 3.41 3.41 0 0 0 3.41-3.41 3.41 3.41 0 0 0 -3.41-3.41zm2.027 7.866a4.908 4.908 0 0 1 -2.915.358 11.1 11.1 0 0 0 7.991 6.698 11.234 11.234 0 0 0 2.422.249 4.879 4.879 0 0 1 -.999-2.85 8.484 8.484 0 0 1 -.836-.136 8.304 8.304 0 0 1 -5.663-4.32zm11.405.928a3.41 3.41 0 0 0 -3.41 3.41 3.41 3.41 0 0 0 3.41 3.41 3.41 3.41 0 0 0 3.41-3.41 3.41 3.41 0 0 0 -3.41-3.41z"/></svg>