<svg viewBox="0 0 24 24" xmlns="http://www.w3.org/2000/svg"><path d="m1.912 0 1.212 2.474v19.053l-1.212 2.473h14.73l1.337-4.682h-9.649v-19.318zm10.088 1.516c-.913 0-1.798.112-2.648.312v1.74a9.738 9.738 0 0 1 2.648-.368c5.267 0 9.536 4.184 9.536 9.348a9.203 9.203 0 0 1 -2.3 6.086l-.273.954-.602 2.112c2.952-1.993 4.89-5.335 4.89-9.122-.001-6.11-5.038-11.062-11.251-11.062zm0 2.673c-.924 0-1.814.148-2.648.414v13.713h8.817a8.246 8.246 0 0 0 2.36-5.768c0-4.617-3.818-8.359-8.529-8.359zm-9.896 3.123a10.858 10.858 0 0 0 -1.354 5.264c0 1.906.492 3.7 1.355 5.266z"/></svg>