<svg height="48" viewBox="0 0 48 48" width="48" xmlns="http://www.w3.org/2000/svg"><path d="m36.5 4h2v-2h-2zm-3.5-2h1.5v2h-.5v.5h-2v-1.5a1 1 0 0 1 1-1m-1 32.5h2v-3h-2zm0 6h2v-3h-2zm0-12h2v-3h-2zm0-18h2v-3h-2zm0 6h2v-3h-2zm0 6h2v-3h-2zm2 21.5h.5v2h-1.5a1 1 0 0 1 -1-1v-1.5h2zm2.5 2h2v-2h-2zm4.5-2.5h2v1.5a1 1 0 0 1 -1 1h-1.5v-2h.5zm0-3h2v-3h-2zm0-6h2v-3h-2zm0-18h2v-3h-2zm0-6h2v-3h-2zm0 18h2v-3h-2zm0-6h2v-3h-2zm2-19.5v1.5h-2v-.5h-.5v-2h1.5a1 1 0 0 1 1 1m-19.5 1h2v-2h-2zm-3.5-2h1.5v2h-.5v.5h-2v-1.5a1 1 0 0 1 1-1m-1 8.5h2v-3h-2zm0 24h2v-3h-2zm0-6h2v-3h-2zm0-6h2v-3h-2zm0 18h2v-3h-2zm0-24h2v-3h-2zm2 27.5h.5v2h-1.5a1 1 0 0 1 -1-1v-1.5h2zm2.5 2h2v-2h-2zm4.5-2.5h2v1.5a1 1 0 0 1 -1 1h-1.5v-2h.5zm0-33h2v-3h-2zm0 6h2v-3h-2zm0 6h2v-3h-2zm0 18h2v-3h-2zm0-12h2v-3h-2zm0 6h2v-3h-2zm2-31.5v1.5h-2v-.5h-.5v-2h1.5a1 1 0 0 1 1 1m-23 41h8v-40h-8zm9-42h-10a1 1 0 0 0 -1 1v42a1 1 0 0 0 1 1h10a1 1 0 0 0 1-1v-42a1 1 0 0 0 -1-1" fill="#e7157b" fill-rule="evenodd"/></svg>