<svg height="18" viewBox="0 0 18 18" width="18" xmlns="http://www.w3.org/2000/svg" xmlns:xlink="http://www.w3.org/1999/xlink"><linearGradient id="a" gradientUnits="userSpaceOnUse" x1="7.955" x2="7.955" y1="3.547" y2="12.614"><stop offset="0" stop-color="#5ea0ef"/><stop offset="1" stop-color="#0078d4"/></linearGradient><linearGradient id="b" gradientUnits="userSpaceOnUse" x1="13.499" x2="13.499" y1="8.479" y2="18.277"><stop offset=".232" stop-color="#50e6ff"/><stop offset="1" stop-color="#32bedd"/></linearGradient><path d="m15.91 3.547v8.558a.52.52 0 0 1 -.531.5h-14.848a.514.514 0 0 1 -.531-.512v-8.546z" fill="url(#a)"/><path d="m15.91 3.547h-15.91v-2.756a.514.514 0 0 1 .531-.512h14.835a.513.513 0 0 1 .53.512v2.756z" fill="#0078d4"/><path d="m15.91 7.6v4.619a.52.52 0 0 1 -.531.5h.531z" fill="#fff"/><path d="m17.022 17.72h-7.047a.983.983 0 0 1 -.975-.978v-7.031a.983.983 0 0 1 .978-.978h7.047a.98.98 0 0 1 .975.978v7.032a.98.98 0 0 1 -.978.978z" fill="url(#b)"/><path d="m13.5 2.563h-11.091a.27.27 0 0 1 -.272-.263v-.8a.27.27 0 0 1 .272-.262h11.091a.27.27 0 0 1 .272.262v.814a.267.267 0 0 1 -.272.249m-.744 10.474-1.9-1.9a.117.117 0 0 0 -.165 0l-.257.258a.117.117 0 0 0 0 .165l1.65 1.645-1.614 1.619a.116.116 0 0 0 0 .164l.259.258a.115.115 0 0 0 .164 0l1.87-1.875a.245.245 0 0 0 0-.337zm3.64 1.609h-2.92a.2.2 0 0 0 -.2.2v.3a.2.2 0 0 0 .2.2h2.924a.2.2 0 0 0 .2-.2v-.3a.2.2 0 0 0 -.2-.2z" fill="#fff"/></svg>