<svg height="64" viewBox="0 0 64 64" width="64" xmlns="http://www.w3.org/2000/svg"><g fill="none" fill-rule="evenodd"><path d="m0 0h64v64h-64z" fill="#7aa116"/><path d="m1 31h8v-2h-8zm2-5h6v-2h-6zm-3-5h9v-2h-9zm25 12h4v-2h-4zm-5 0h4v-2h-4zm-5 0h4v-2h-4zm10-4h4v-2h-4zm-5 0h4v-2h-4zm-5 0h4v-2h-4zm2-7h10v-2h-10zm11-4h-12a1 1 0 0 0 -1 1v4a1 1 0 0 0 1 1h12a1 1 0 0 0 1-1v-4a1 1 0 0 0 -1-1m-15 17h18v-19h-18zm19 2a1 1 0 0 0 1-1v-21a1 1 0 0 0 -1-1h-20a1 1 0 0 0 -1 1v21a1 1 0 0 0 1 1zm-2-33.773 5.37 4.773h-5.37zm8.664 5.025-9-8a1 1 0 0 0 -.664-.252h-23a1 1 0 0 0 -1 1v16h2v-15h21v7a1 1 0 0 0 1 1h8v32h-30v-9h-2v10a1 1 0 0 0 1 1h32a1 1 0 0 0 1-1v-34a1 1 0 0 0 -.336-.748" fill="#fff" transform="translate(11 10)"/></g></svg>