<svg xmlns="http://www.w3.org/2000/svg" width="64" height="64" viewBox="0 0 64 64"><title>Icon-Architecture/48/Arch_AWS-Billing-Conductor_48</title><g id="Icon-Architecture/48/Arch_AWS-Billing-Conductor_48" fill="none" fill-rule="evenodd" stroke="none" stroke-width="1"><g id="Icon-Architecture-BG/48/AWS-Cost-Management" fill="#7aa116"><path id="Rectangle" d="M0 0h64v64H0z"/></g><g id="Icon-Service/48/AWS-Billing-Conductor_48" fill="#fff" transform="translate(11 10)"><path id="Fill-3" d="M1 31h8v-2H1zm2-5h6v-2H3zm-3-5h9v-2H0zm25 12h4v-2h-4zm-5 0h4v-2h-4zm-5 0h4v-2h-4zm10-4h4v-2h-4zm-5 0h4v-2h-4zm-5 0h4v-2h-4zm2-7h10v-2H17zm11-4H16a1 1 0 0 0-1 1v4a1 1 0 0 0 1 1h12a1 1 0 0 0 1-1v-4a1 1 0 0 0-1-1M13 35h18V16H13zm19 2a1 1 0 0 0 1-1V15a1 1 0 0 0-1-1H12a1 1 0 0 0-1 1v21a1 1 0 0 0 1 1zM30 3.227 35.37 8H30zm8.664 5.025-9-8A1 1 0 0 0 29 0H6a1 1 0 0 0-1 1v16h2V2h21v7a1 1 0 0 0 1 1h8v32H7v-9H5v10a1 1 0 0 0 1 1h32a1 1 0 0 0 1-1V9a1 1 0 0 0-.336-.748"/></g></g></svg>