<svg xmlns="http://www.w3.org/2000/svg" width="18" height="18" viewBox="0 0 18 18">
  <defs>
    <mask id="ko">
      <rect width="18" height="18" fill="white"/>
      <path fill="black" d="M14.886 3.123a1.4 1.4 0 0 0-.989-.409H3.839a1.407 1.407 0 0 0-1.4 1.4v10.065a1.407 1.407 0 0 0 1.4 1.4H13.9a1.4 1.4 0 0 0 1.4-1.4V4.112a1.4 1.4 0 0 0-.414-.989"/>
      <path fill="black" d="M11.456 17.991H1.4a1.407 1.407 0 0 1-1.4-1.4V6.526a1.407 1.407 0 0 1 1.4-1.4h10.056a1.4 1.4 0 0 1 1.4 1.4v10.067a1.4 1.4 0 0 1-1.4 1.4z"/>
      <path fill="black" d="M4.48 13.637a.333.333 0 0 0-.325.34v.68A.333.333 0 0 0 4.48 15h6.161a.33.33 0 0 0 .324-.34v-.68a.33.33 0 0 0-.324-.34zm-2.591.331a.33.33 0 0 1 .33-.331h.7a.33.33 0 0 1 .331.331v.7a.33.33 0 0 1-.332.332h-.7a.33.33 0 0 1-.33-.331zm2.591-3.089a.334.334 0 0 0-.325.34v.68a.333.333 0 0 0 .325.34h6.161a.33.33 0 0 0 .324-.34v-.68a.333.333 0 0 0-.324-.34zm-2.591.331a.33.33 0 0 1 .33-.331h.7a.33.33 0 0 1 .331.331v.7a.33.33 0 0 1-.331.33h-.7a.33.33 0 0 1-.33-.33zM4.48 8.122a.333.333 0 0 0-.325.34v.68a.334.334 0 0 0 .325.34h6.161a.333.333 0 0 0 .324-.34v-.68a.33.33 0 0 0-.324-.34zm-2.591.33a.33.33 0 0 1 .33-.33h.7a.33.33 0 0 1 .331.33v.7a.33.33 0 0 1-.331.331h-.7a.33.33 0 0 1-.33-.331z"/>
    </mask>
  </defs>
  <g>
    <path fill="currentColor" mask="url(#ko)" d="M17.591.418A1.4 1.4 0 0 0 16.6.009H6.544a1.407 1.407 0 0 0-1.4 1.4v10.065a1.407 1.407 0 0 0 1.4 1.4H16.6a1.4 1.4 0 0 0 1.4-1.4V1.407a1.4 1.4 0 0 0-.409-.989"/>
  </g>
</svg>