<svg height="18" viewBox="0 0 18 18" width="18" xmlns="http://www.w3.org/2000/svg" xmlns:xlink="http://www.w3.org/1999/xlink"><linearGradient id="a" gradientUnits="userSpaceOnUse" x1="8.819" x2="9.017" y1="13.816" y2="-4.795"><stop offset="0" stop-color="#773adc"/><stop offset=".88" stop-color="#b796f9"/></linearGradient><linearGradient id="b" gradientTransform="matrix(1 0 0 -1 0 791.516)" gradientUnits="userSpaceOnUse" x1="6.427" x2="6.427" y1="768.784" y2="788.352"><stop offset="0" stop-color="#773adc"/><stop offset=".869" stop-color="#b796f9"/></linearGradient><path d="m17.591.418a1.4 1.4 0 0 0 -.991-.409h-10.056a1.407 1.407 0 0 0 -1.4 1.4v10.065a1.407 1.407 0 0 0 1.4 1.4h10.056a1.4 1.4 0 0 0 1.4-1.4v-10.067a1.4 1.4 0 0 0 -.409-.989" fill="#773adc"/><path d="m14.886 3.123a1.4 1.4 0 0 0 -.989-.409h-10.058a1.407 1.407 0 0 0 -1.4 1.4v10.065a1.407 1.407 0 0 0 1.4 1.4h10.061a1.4 1.4 0 0 0 1.4-1.4v-10.067a1.4 1.4 0 0 0 -.414-.989" fill="url(#a)"/><path d="m11.456 17.991h-10.056a1.407 1.407 0 0 1 -1.4-1.4v-10.065a1.407 1.407 0 0 1 1.4-1.4h10.056a1.4 1.4 0 0 1 1.4 1.4v10.067a1.4 1.4 0 0 1 -1.4 1.4z" fill="url(#b)"/><path d="m4.48 13.637a.333.333 0 0 0 -.325.34v.68a.333.333 0 0 0 .325.343h6.161a.33.33 0 0 0 .324-.34v-.68a.33.33 0 0 0 -.324-.34zm-2.591.331a.33.33 0 0 1 .33-.331h.7a.33.33 0 0 1 .331.331v.7a.33.33 0 0 1 -.332.332h-.7a.33.33 0 0 1 -.33-.331zm2.591-3.089a.334.334 0 0 0 -.325.34v.68a.333.333 0 0 0 .325.34h6.161a.33.33 0 0 0 .324-.34v-.68a.333.333 0 0 0 -.324-.34zm-2.591.331a.33.33 0 0 1 .33-.331h.7a.33.33 0 0 1 .331.331v.7a.33.33 0 0 1 -.331.33h-.7a.33.33 0 0 1 -.33-.33zm2.591-3.088a.333.333 0 0 0 -.325.34v.68a.334.334 0 0 0 .325.34h6.161a.333.333 0 0 0 .324-.34v-.68a.33.33 0 0 0 -.324-.34zm-2.591.33a.33.33 0 0 1 .33-.33h.7a.33.33 0 0 1 .331.33v.7a.33.33 0 0 1 -.331.331h-.7a.33.33 0 0 1 -.33-.331z" fill="#fff"/></svg>