<svg height="48" viewBox="0 0 48 48" width="48" xmlns="http://www.w3.org/2000/svg"><path d="m30.587 31 9.086 8.26-1.346 1.48-9.327-8.48v3.74h-2v-6a1 1 0 0 1 1-1h6v2zm10.412-9v11h-2v-10h-22.999v17h16v2h-17a1 1 0 0 1 -1-1v-19a1 1 0 0 1 1-1h25a1 1 0 0 1 1 1m-6-5h-4v-2h5a1 1 0 0 1 1 1v3h-2zm-20 0h13v-2h-13zm-7-2h4v2h-3v2h-2v-3a1 1 0 0 1 1-1m-1 12h2v-5h-2zm2 5h3v2h-4a1 1 0 0 1 -1-1v-3h2zm4-24h4v-2h-4zm-6 0h4v-2h-4zm-3 36h40v-32h-40zm0-34h40v-6h-40zm41-8h-42a1 1 0 0 0 -1 1v42a1 1 0 0 0 1 1h42a1 1 0 0 0 1-1v-42a1 1 0 0 0 -1-1" fill="#01a88d" fill-rule="evenodd"/></svg>