<svg xmlns="http://www.w3.org/2000/svg" id="svg13826" width="68.165" height="66.143" viewBox="0 0 18.035 17.5"><g id="layer1" transform="translate(-.993 -1.174)"><g id="g70" transform="translate(16.902 -2.699)scale(1.01489)"><path id="path3055" d="M-6.85 4.272a1.12 1.11 0 0 0-.428.109l-5.852 2.796a1.12 1.11 0 0 0-.606.753l-1.444 6.282a1.12 1.11 0 0 0 .152.85 1.12 1.11 0 0 0 .064.089l4.05 5.037a1.12 1.11 0 0 0 .876.417l6.496-.001a1.12 1.11 0 0 0 .875-.417l4.049-5.038a1.12 1.11 0 0 0 .216-.939L.152 7.93a1.12 1.11 0 0 0-.605-.753L-6.307 4.38a1.12 1.11 0 0 0-.542-.109" fill="#326ce5" fill-opacity="1" stroke="none" stroke-width="0" stroke-miterlimit="4" stroke-dasharray="none" stroke-opacity="1"/><path id="path3054-2-9" d="M-6.852 3.818a1.181 1.172 0 0 0-.452.115l-6.18 2.951a1.181 1.172 0 0 0-.638.795l-1.524 6.63a1.181 1.172 0 0 0 .16.9 1.181 1.172 0 0 0 .067.093l4.276 5.317a1.181 1.172 0 0 0 .924.44h6.858a1.181 1.172 0 0 0 .923-.44L1.837 15.3a1.181 1.172 0 0 0 .228-.99L.54 7.677a1.181 1.172 0 0 0-.64-.795l-6.178-2.95a1.181 1.172 0 0 0-.573-.115m.003.455a1.12 1.11 0 0 1 .542.108l5.853 2.795a1.12 1.11 0 0 1 .606.753l1.446 6.281a1.12 1.11 0 0 1-.216.94l-4.05 5.037a1.12 1.11 0 0 1-.875.417l-6.496.001a1.12 1.11 0 0 1-.875-.417l-4.05-5.037a1.12 1.11 0 0 1-.064-.088 1.12 1.11 0 0 1-.152-.851l1.444-6.281a1.12 1.11 0 0 1 .605-.753l5.853-2.797a1.12 1.11 0 0 1 .429-.108" style="line-height:normal;-inkscape-font-specification:Sans;text-indent:0;text-align:start;text-decoration-line:none;text-transform:none;marker:none" color="#000" font-style="normal" font-variant="normal" font-weight="400" font-stretch="normal" font-size="medium" font-family="Sans" text-decoration="none" letter-spacing="normal" word-spacing="normal" writing-mode="lr-tb" direction="ltr" baseline-shift="baseline" text-anchor="start" display="inline" overflow="visible" visibility="visible" fill="#fff" fill-opacity="1" fill-rule="nonzero" stroke="none" stroke-width="0" stroke-miterlimit="4" stroke-dasharray="none"/></g><path id="rect8317" d="M6.166 5.424a.855.855 0 0 0-.856.856v7.288c0 .475.382.857.856.857h7.688a.855.855 0 0 0 .857-.857V6.28a.855.855 0 0 0-.857-.856zm2.591 2.308c.52 0 .937.42.937.94s-.417.939-.937.939a.938.938 0 1 1 0-1.88m2.506 0c.52 0 .937.42.937.94s-.417.939-.937.939a.938.938 0 1 1 0-1.88m-2.506 2.505c.73 0 2.193.367 2.193 1.097v.783H6.565v-.783c0-.73 1.463-1.097 2.192-1.097m2.506 0c.73 0 2.193.367 2.193 1.097v.783h-1.88v-.783c0-.464-.253-.818-.617-1.081q.166-.015.304-.016" opacity="1" fill="#fff" fill-opacity="1" fill-rule="nonzero" stroke="none" stroke-width=".20160896" stroke-linecap="butt" stroke-linejoin="round" stroke-miterlimit="10" stroke-dasharray=".40321791,.20160896" stroke-dashoffset="5.01860619" stroke-opacity="1"/></g></svg>