<svg height="66.143" viewBox="0 0 18.035 17.5" width="68.165" xmlns="http://www.w3.org/2000/svg"><g transform="translate(-.993 -1.174)"><g transform="matrix(1.01489 0 0 1.01489 16.902 -2.699)"><path d="m-6.85 4.272a1.12 1.11 0 0 0 -.428.109l-5.852 2.796a1.12 1.11 0 0 0 -.606.753l-1.444 6.282a1.12 1.11 0 0 0 .152.85 1.12 1.11 0 0 0 .064.089l4.05 5.037a1.12 1.11 0 0 0 .876.417l6.496-.001a1.12 1.11 0 0 0 .875-.417l4.049-5.038a1.12 1.11 0 0 0 .216-.939l-1.446-6.28a1.12 1.11 0 0 0 -.605-.753l-5.854-2.797a1.12 1.11 0 0 0 -.542-.109" fill="#326ce5"/><path d="m-6.852 3.818a1.181 1.172 0 0 0 -.452.115l-6.18 2.951a1.181 1.172 0 0 0 -.638.795l-1.524 6.63a1.181 1.172 0 0 0 .16.9 1.181 1.172 0 0 0 .067.093l4.276 5.317a1.181 1.172 0 0 0 .924.44h6.858a1.181 1.172 0 0 0 .923-.44l4.275-5.319a1.181 1.172 0 0 0 .228-.99l-1.525-6.633a1.181 1.172 0 0 0 -.64-.795l-6.178-2.95a1.181 1.172 0 0 0 -.573-.115m.003.455a1.12 1.11 0 0 1 .542.108l5.853 2.795a1.12 1.11 0 0 1 .606.753l1.446 6.281a1.12 1.11 0 0 1 -.216.94l-4.05 5.037a1.12 1.11 0 0 1 -.875.417l-6.496.001a1.12 1.11 0 0 1 -.875-.417l-4.05-5.037a1.12 1.11 0 0 1 -.064-.088 1.12 1.11 0 0 1 -.152-.851l1.444-6.281a1.12 1.11 0 0 1 .605-.753l5.853-2.797a1.12 1.11 0 0 1 .429-.108" fill="#fff"/></g><path d="m6.166 5.424a.855.855 0 0 0 -.856.856v7.288c0 .475.382.857.856.857h7.688a.855.855 0 0 0 .857-.857v-7.288a.855.855 0 0 0 -.857-.856zm2.591 2.308c.52 0 .937.42.937.94s-.417.939-.937.939a.938.938 0 1 1 0-1.88m2.506 0c.52 0 .937.42.937.94s-.417.939-.937.939a.938.938 0 1 1 0-1.88m-2.506 2.505c.73 0 2.193.367 2.193 1.097v.783h-4.385v-.783c0-.73 1.463-1.097 2.192-1.097m2.506 0c.73 0 2.193.367 2.193 1.097v.783h-1.88v-.783c0-.464-.253-.818-.617-1.081q.166-.015.304-.016" fill="#fff"/></g></svg>