<svg height="18" viewBox="0 0 18 18" width="18" xmlns="http://www.w3.org/2000/svg" xmlns:xlink="http://www.w3.org/1999/xlink"><linearGradient id="a" gradientUnits="userSpaceOnUse" x1="9" x2="9" y1="17.5" y2=".5"><stop offset=".16" stop-color="#6f4bb2"/><stop offset=".32" stop-color="#7450b5"/><stop offset=".51" stop-color="#825dbf"/><stop offset=".72" stop-color="#9a72ce"/><stop offset=".94" stop-color="#bb90e4"/><stop offset="1" stop-color="#c69aeb"/></linearGradient><path d="m12.29.5h-6.58a.56.56 0 0 0 -.4.17l-4.64 4.64a.56.56 0 0 0 -.17.4v6.58a.56.56 0 0 0 .17.4l4.64 4.64a.56.56 0 0 0 .4.17h6.58a.56.56 0 0 0 .4-.17l4.64-4.64a.56.56 0 0 0 .17-.4v-6.58a.56.56 0 0 0 -.17-.4l-4.64-4.64a.56.56 0 0 0 -.4-.17" fill="url(#a)"/><g fill="#f2f2f2"><path d="m6 7.64-.07.07-1 1a.14.14 0 0 0 .1.23h3.8a.14.14 0 0 0 .14-.14v-3.75a.14.14 0 0 0 -.33-.05l-1 1-.07.07a.15.15 0 0 1 -.2 0l-2.57-2.53-1.37 1.38 2.57 2.52a.15.15 0 0 1 0 .2"/><path d="m16.18 5.91-4.09-4.09a.28.28 0 0 0 -.2-.08h-5.78a.28.28 0 0 0 -.2.08l-4.09 4.09a.28.28 0 0 0 -.08.2v5.78a.3.3 0 0 0 .08.2l4.09 4.09a.28.28 0 0 0 .2.08h5.78a.28.28 0 0 0 .2-.08l4.09-4.09a.3.3 0 0 0 .08-.2v-5.78a.28.28 0 0 0 -.08-.2m-.36 5.45-3.15-3.15.76-.77a.16.16 0 0 0 0-.24.16.16 0 0 0 -.11 0l-2.71-.07a.17.17 0 0 0 -.17.16l.07 2.71a.16.16 0 0 0 .17.16.13.13 0 0 0 .12 0l.85-.84 3.35 3.3-2.54 2.54-3.46-3.45.8-.71a.16.16 0 0 0 0-.24.16.16 0 0 0 -.11-.05l-2.69-.12a.17.17 0 0 0 -.17.16l.07 2.71a.16.16 0 0 0 .17.16.17.17 0 0 0 .12-.05l.81-.83 3.08 3.08h-4.91l-4-4v-5.65l1.26-1.25 1.37-1.38 1.37-1.37h5.66l4 4z"/></g></svg>