<svg height="48" viewBox="0 0 48 48" width="48" xmlns="http://www.w3.org/2000/svg"><path d="m34 30c2.757 0 5 2.243 5 5s-2.243 5-5 5-5-2.243-5-5 2.243-5 5-5m0 12c3.859 0 7-3.14 7-7s-3.141-7-7-7-7 3.14-7 7 3.141 7 7 7m1.831-26.497 3.748 7.497h-7.496zm-5.366 9.497h10.732a1 1 0 0 0 .895-1.447l-5.366-10.733c-.34-.677-1.45-.677-1.789 0l-5.367 10.733a1 1 0 0 0 .895 1.447m-16.465 7h9v-9h-9zm-1 2h11a1 1 0 0 0 1-1v-11a1 1 0 0 0 -1-1h-11a1 1 0 0 0 -1 1v11a1 1 0 0 0 1 1m-9 4h2v2h-3a1 1 0 0 1 -1-1v-36a1 1 0 0 1 1-1h36a1 1 0 0 1 1 1v3h-2v-2h-34zm6 6h34v-34h-34zm35-36h-36a1 1 0 0 0 -1 1v36a1 1 0 0 0 1 1h36a1 1 0 0 0 1-1v-36a1 1 0 0 0 -1-1" fill="#e7157b" fill-rule="evenodd"/></svg>