<svg xmlns="http://www.w3.org/2000/svg" viewBox="0 0 24 24"><path fill="currentColor" d="M5.412 13.775A23.2 23.2 0 0 1 7.41 9.32c3.17-5.492 7.795-8.757 10.33-7.294C12.038-1.266 4.598.944 1.122 6.964A13.4 13.4 0 0 0 .085 9.22c-.259.739.092 1.534.77 1.926z"/><path fill="currentColor" d="M18.588 10.164a23.2 23.2 0 0 1-1.999 4.455c-3.17 5.492-7.795 8.758-10.33 7.294 5.703 3.293 13.143 1.082 16.619-4.938a13.4 13.4 0 0 0 1.037-2.255c.259-.738-.092-1.534-.77-1.925l-4.557-2.63z"/><path fill="currentColor" d="M16.59 14.62c3.17-5.492 3.686-11.13 1.15-12.594C15.207.563 10.582 3.83 7.41 9.32c2.074-3.59 5.809-5.315 8.344-3.852s2.908 5.56.835 9.151z"/><path fill="currentColor" d="M7.41 9.32c-3.17 5.492-3.686 11.13-1.15 12.593 2.534 1.464 7.159-1.802 10.33-7.294-2.074 3.591-5.809 5.316-8.344 3.852s-2.908-5.56-.835-9.15z"/></svg>