<svg viewBox="0 0 24 24" xmlns="http://www.w3.org/2000/svg" xmlns:xlink="http://www.w3.org/1999/xlink"><linearGradient id="a"><stop offset=".095" stop-color="#fff959"/><stop offset=".326" stop-color="#0df35e"/><stop offset=".64" stop-color="#0bf2f9"/><stop offset="1" stop-color="#04a6f0"/></linearGradient><radialGradient id="b" cx="0" cy="0" gradientTransform="matrix(7.47772383 -12.51021688 17.14368459 10.24728348 5.172343 13.637563)" gradientUnits="userSpaceOnUse" r="1" xlink:href="#a"/><radialGradient id="c" cx="0" cy="0" gradientTransform="matrix(-7.47772383 12.51021688 -17.14368459 -10.24728348 18.826252 10.301973)" gradientUnits="userSpaceOnUse" r="1" xlink:href="#a"/><linearGradient id="d"><stop offset="0" stop-color="#003eff"/><stop offset="1" stop-color="#0bffe7"/></linearGradient><linearGradient id="e" gradientUnits="userSpaceOnUse" x1="15.578" x2="18.062" xlink:href="#d" y1="1.798" y2="9.861"/><linearGradient id="f" gradientUnits="userSpaceOnUse" x1="8.422" x2="5.938" xlink:href="#d" y1="22.142" y2="14.079"/><path d="m5.412 13.775a23.2 23.2 0 0 1 1.998-4.455c3.17-5.492 7.795-8.757 10.33-7.294-5.702-3.292-13.142-1.082-16.618 4.938a13.4 13.4 0 0 0 -1.037 2.256c-.259.739.092 1.534.77 1.926z" fill="url(#b)"/><path d="m18.588 10.164a23.2 23.2 0 0 1 -1.999 4.455c-3.17 5.492-7.795 8.758-10.33 7.294 5.703 3.293 13.143 1.082 16.619-4.938a13.4 13.4 0 0 0 1.037-2.255c.259-.738-.092-1.534-.77-1.925l-4.557-2.63z" fill="url(#c)"/><path d="m16.59 14.62c3.17-5.492 3.686-11.13 1.15-12.594-2.533-1.463-7.158 1.804-10.33 7.294 2.074-3.59 5.809-5.315 8.344-3.852s2.908 5.56.835 9.151z" fill="url(#e)"/><path d="m7.41 9.32c-3.17 5.492-3.686 11.13-1.15 12.593 2.534 1.464 7.159-1.802 10.33-7.294-2.074 3.591-5.809 5.316-8.344 3.852s-2.908-5.56-.835-9.15z" fill="url(#f)"/></svg>