<svg height="64" viewBox="0 0 64 64" width="64" xmlns="http://www.w3.org/2000/svg"><g fill="none" fill-rule="evenodd"><path d="m0 0h64v64h-64z" fill="#7aa116"/><path d="m47.111 39.882-4.109-2.014 1.344-.897a3.97 3.97 0 0 0 2.654 1.029 3.97 3.97 0 0 0 2.653-1.029l1.371.914zm-.11-7.882c1.101 0 2 .897 2 2s-.899 2-2 2c-1.104 0-2-.897-2-2s.896-2 2-2m-15-4a5.506 5.506 0 0 1 -5.5-5.5c0-3.033 2.466-5.5 5.5-5.5 3.031 0 5.5 2.467 5.5 5.5s-2.47 5.5-5.501 5.5m2.5 12.5c0 1.379-1.122 2.5-2.5 2.5a2.5 2.5 0 0 1 -2.5-2.5c0-1.378 1.12-2.5 2.5-2.5 1.378 0 2.5 1.122 2.5 2.5m-2.5 6.382-4.013-2.006 1.262-.84a4.45 4.45 0 0 0 2.751.964 4.45 4.45 0 0 0 2.75-.964l1.261.84zm-15.04-7.004-3.976-1.999 1.361-.908a3.97 3.97 0 0 0 2.655 1.029 3.97 3.97 0 0 0 2.644-1.022l1.215.88zm.04-7.878c1.102 0 2 .897 2 2s-.898 2-2 2c-1.103 0-2-.897-2-2s.897-2 2-2m36.554 5.168-2.792-1.861c.144-.412.238-.847.238-1.307 0-2.205-1.794-4-4-4a3.96 3.96 0 0 0 -2.033.574l-6.018-5.266a7.5 7.5 0 0 0 .551-2.808c0-4.136-3.365-7.5-7.5-7.5-4.136 0-7.5 3.364-7.5 7.5 0 .993.198 1.94.55 2.808l-6.018 5.266a3.96 3.96 0 0 0 -2.032-.574c-2.206 0-4 1.795-4 4 0 .46.093.895.237 1.307l-2.792 1.861a1 1 0 0 0 .105 1.726l5.968 3a1 1 0 0 0 .909-.006l5.792-3a1 1 0 0 0 .127-1.697l-2.587-1.875c.146-.414.241-.852.241-1.316 0-.733-.213-1.411-.558-2.003l5.627-4.924a7.49 7.49 0 0 0 4.931 2.852v6.196c-2 .457-3.5 2.242-3.5 4.379 0 .714.181 1.38.478 1.979l-2.533 1.689a1.002 1.002 0 0 0 .107 1.727l6 3a1 1 0 0 0 .895 0l6-3a1 1 0 0 0 .107-1.727l-2.533-1.689a4.4 4.4 0 0 0 .48-1.979c0-2.137-1.5-3.922-3.5-4.379v-6.196a7.48 7.48 0 0 0 4.93-2.852l5.626 4.924a3.97 3.97 0 0 0 -.557 2.003c0 .46.093.895.237 1.307l-2.792 1.861a1 1 0 0 0 .114 1.73l6.12 3a1 1 0 0 0 .895-.007l5.88-3a1 1 0 0 0 .1-1.723" fill="#fff"/></g></svg>