<svg xmlns="http://www.w3.org/2000/svg" width="18" height="18" viewBox="0 0 18 18">
  <defs>
    <mask id="wko">
      <rect width="18" height="18" fill="white"/>
      <circle cx="8.81" cy="9.05" r="7.22" fill="black"/>
    </mask>
  </defs>
  <g fill="currentColor" mask="url(#wko)">
    <circle cx="8.83" cy="9.08" r="8.5" fill="currentColor"/>
  </g>
  <path fill="currentColor" d="m12.228 5.329.898-.898.29.29-.898.898zM13.81 8.87h1.27v.41h-1.27zm-1.647 3.88.29-.29.898.899-.29.29zM8.58 14.09h.41v1.27h-.41zM4.101 4.68l.29-.289.898.898-.29.29zm.057 8.721.898-.898.29.29-.898.898zM2.4 8.87h1.27v.41H2.4z"/>
  <path fill="currentColor" d="M8.84.58a.61.61 0 0 0-.61.62.63.63 0 0 0 .62.63 7.26 7.26 0 1 1-5.36 2.35l.51.74 1.42-3.16-3.42.4.75 1A8.49 8.49 0 1 0 8.84.58"/>
  <rect width="1.14" height="6.51" x="8.29" y="2.84" fill="currentColor" rx=".52"/>
  <rect width="1.14" height="4.08" x="9.82" y="8.65" fill="currentColor" rx=".52" transform="rotate(135 10.385 10.693)"/>
  <circle cx="8.81" cy="9.08" r="1.2" fill="currentColor"/>
</svg>