<svg xmlns="http://www.w3.org/2000/svg" id="b56af5b5-8312-4290-8c44-0884ea85f847" width="18" height="18" viewBox="0 0 18 18"><defs><radialGradient id="e06ba36b-1ed2-427f-984a-8a1ccedfe1e8" cx="8.81" cy="9" r="8.41" gradientUnits="userSpaceOnUse"><stop offset="0" stop-color="#7956ba"/><stop offset=".69" stop-color="#724eb4"/><stop offset=".87" stop-color="#6f4bb2"/></radialGradient><radialGradient id="fa165c1e-e8e6-4b24-b8c0-57e284d1b1dc" cx="8.8" cy="9.11" r="1.19" gradientUnits="userSpaceOnUse"><stop offset="0" stop-color="#7f7f7f"/><stop offset="1" stop-color="#5e5e5e"/></radialGradient></defs><title>Icon-general-3</title><circle cx="8.83" cy="9.08" r="8.5" fill="#b0b0b0"/><circle cx="8.81" cy="9.05" r="7.22" fill="#fff"/><path id="e59f863c-8b0e-4353-8450-26e2927e2bd8" fill="#7a7a7a" d="M12.19 4.82h1.27v.41h-1.27z" transform="rotate(-45 12.823 5.029)"/><path id="fb31ef5c-b322-47ba-9118-85ef2f76d768" fill="#7a7a7a" d="M13.81 8.87h1.27v.41h-1.27z"/><path id="e52b7618-af87-4451-aff9-b359cda15418" fill="#7a7a7a" d="M12.56 12.42h.41v1.27h-.41z" transform="rotate(-45 12.761 13.064)"/><path id="bd1901af-8ca0-4fdc-a813-01598d258160" fill="#7a7a7a" d="M8.58 14.09h.41v1.27h-.41z"/><path id="bfba83e0-770a-4fd3-9d4d-1aa30de9f72a" fill="#7a7a7a" d="M4.49 4.35h.41v1.27h-.41z" transform="rotate(-45 4.695 4.985)"/><path id="ad478e3b-a6b6-4eba-a3a4-ce35f17ff637" fill="#7a7a7a" d="M4.12 12.89h1.27v.41H4.12z" transform="rotate(-45 4.756 13.1)"/><path id="b9821e28-6320-47a8-842c-070460425b0f" fill="#7a7a7a" d="M2.4 8.87h1.27v.41H2.4z"/><path fill="url(#e06ba36b-1ed2-427f-984a-8a1ccedfe1e8)" d="M8.84.58a.61.61 0 0 0-.61.62.63.63 0 0 0 .62.63 7.26 7.26 0 1 1-5.36 2.35l.51.74 1.42-3.16-3.42.4.75 1A8.49 8.49 0 1 0 8.84.58"/><rect width="1.14" height="6.51" x="8.29" y="2.84" fill="#7a7a7a" rx=".52"/><rect width="1.14" height="4.08" x="9.82" y="8.65" fill="#7a7a7a" rx=".52" transform="rotate(135 10.385 10.693)"/><circle cx="8.81" cy="9.08" r="1.2" fill="url(#fa165c1e-e8e6-4b24-b8c0-57e284d1b1dc)"/></svg>