<svg height="18" viewBox="0 0 18 18" width="18" xmlns="http://www.w3.org/2000/svg" xmlns:xlink="http://www.w3.org/1999/xlink"><radialGradient id="a" cx="8.81" cy="9" gradientUnits="userSpaceOnUse" r="8.41"><stop offset="0" stop-color="#7956ba"/><stop offset=".69" stop-color="#724eb4"/><stop offset=".87" stop-color="#6f4bb2"/></radialGradient><radialGradient id="b" cx="8.8" cy="9.11" gradientUnits="userSpaceOnUse" r="1.19"><stop offset="0" stop-color="#7f7f7f"/><stop offset="1" stop-color="#5e5e5e"/></radialGradient><circle cx="8.83" cy="9.08" fill="#b0b0b0" r="8.5"/><circle cx="8.81" cy="9.05" fill="#fff" r="7.22"/><g fill="#7a7a7a"><path d="m12.19 4.82h1.27v.41h-1.27z" transform="matrix(.70710678 -.70710678 .70710678 .70710678 .19973 10.54019)"/><path d="m13.81 8.87h1.27v.41h-1.27z"/><path d="m12.56 12.42h.41v1.27h-.41z" transform="matrix(.70710678 -.70710678 .70710678 .70710678 -5.500033 12.849747)"/><path d="m8.58 14.09h.41v1.27h-.41z"/><path d="m4.49 4.35h.41v1.27h-.41z" transform="matrix(.70710678 -.70710678 .70710678 .70710678 -2.149794 4.779939)"/><path d="m4.12 12.89h1.27v.41h-1.27z" transform="matrix(.70710678 -.70710678 .70710678 .70710678 -7.870099 7.199901)"/><path d="m2.4 8.87h1.27v.41h-1.27z"/></g><path d="m8.84.58a.61.61 0 0 0 -.61.62.63.63 0 0 0 .62.63 7.26 7.26 0 1 1 -5.36 2.35l.51.74 1.42-3.16-3.42.4.75 1a8.49 8.49 0 1 0 6.09-2.58" fill="url(#a)"/><rect fill="#7a7a7a" height="6.51" rx=".52" width="1.14" x="8.29" y="2.84"/><rect fill="#7a7a7a" height="4.08" rx=".52" transform="matrix(-.70710678 .70710678 -.70710678 -.70710678 25.289397 10.910789)" width="1.14" x="9.82" y="8.65"/><circle cx="8.81" cy="9.08" fill="url(#b)" r="1.2"/></svg>