<svg height="48" viewBox="0 0 48 48" width="48" xmlns="http://www.w3.org/2000/svg"><path d="m9 43a1.001 1.001 0 0 0 -2 0 1.001 1.001 0 0 0 2 0m2-9a1.001 1.001 0 0 0 2 0 1.001 1.001 0 0 0 -2 0m10 2a1.001 1.001 0 0 0 2 0 1.001 1.001 0 0 0 -2 0m3-9a1.001 1.001 0 0 0 2 0 1.001 1.001 0 0 0 -2 0m-13.789 13.99c.485.533.789 1.234.789 2.01 0 1.654-1.346 3-3 3s-3-1.346-3-3 1.346-3 3-3c.151 0 .295.023.44.044l1.614-3.78a2.98 2.98 0 0 1 -1.054-2.264c0-1.654 1.346-3 3-3s3 1.346 3 3c0 .023-.006.045-.007.068l4.185.952a2.995 2.995 0 0 1 2.822-2.02c.013 0 .024.004.037.004l1.368-3.473a3 3 0 0 1 -1.405-2.531c0-1.654 1.346-3 3-3s3 1.346 3 3a2.994 2.994 0 0 1 -2.614 2.961l-1.476 3.745a2.98 2.98 0 0 1 1.09 2.294c0 1.654-1.346 3-3 3a3 3 0 0 1 -2.792-1.923l-4.949-1.125a2.98 2.98 0 0 1 -2.259 1.048c-.028 0-.054-.007-.082-.008zm21.08-29.004-.582 1.913c2.261.687 3.291 1.598 3.291 2.153s-1.03 1.465-3.291 2.153l.582 1.913c1.084-.33 1.987-.729 2.709-1.179v22.061c0 .711-1.422 1.636-3.835 2.271q-.24.064-.488.123-.325.077-.67.146a22 22 0 0 1 -1.603.252 26 26 0 0 1 -1.45.139q-.141.01-.285.017c-.55.031-1.106.052-1.669.052-6.012 0-10-1.784-10-2.964v-2.036h-2v2.036c0 3.259 6.037 4.964 12 4.964.61 0 1.219-.023 1.824-.058q.126-.006.251-.014a28 28 0 0 0 3.494-.458c.129-.026.251-.055.377-.083a20 20 0 0 0 1.209-.305c.066-.019.141-.033.206-.052l-.001-.004c2.731-.829 4.64-2.18 4.64-4.026v-25h-.006c-.035-1.676-1.698-3.101-4.703-4.014m-17.291 6.908c.601.39 1.317.745 2.169 1.048l.672-1.883c-1.963-.7-2.841-1.574-2.841-2.13 0-.491.731-1.303 2.792-1.979l-.623-1.9c-3.627 1.19-4.169 2.941-4.169 3.879 0 .024.008.047.008.071h-.008v13h2zm27.999-14.894h2v-2h-2zm-4 0h2v-2h-2zm-29.999 4h2v-2h-2zm-4 0h2v-2h-2zm23 12h2v-14h-17v2h15zm-8 0h2v-10h-2zm1-16h15.999v-2h-15.999zm3 18h2v-11h-2z" fill="#8c4fff" fill-rule="evenodd"/></svg>