<svg height="60" width="60" xmlns="http://www.w3.org/2000/svg"><path d="m-5.801-6.164h72.69v72.871h-72.69z" fill="#fea72b"/><g transform="matrix(1.15671 0 0 1.15671 14.627 5.256)"><path d="m26.58 27.06q0 8-4.26 12.3a12.2 12.2 0 0 1 -9 3.42 12.2 12.2 0 0 1 -9-3.42q-4.32-4.26-4.32-12.3t4.26-12.3a12.2 12.2 0 0 1 9-3.42 12.2 12.2 0 0 1 9 3.42q4.32 4.24 4.32 12.3m-13.29-10.06q-5.67 0-5.67 10.06t5.67 10.08q5.71 0 5.71-10.08t-5.71-10.06" fill="#3a384c"/><path d="m9 6.78a7.4 7.4 0 0 1 -.6-3 7.4 7.4 0 0 1 .6-3 8.1 8.1 0 0 1 3.83-.78 7.05 7.05 0 0 1 3.69.84 7.4 7.4 0 0 1 .6 3 7.4 7.4 0 0 1 -.6 3 7.46 7.46 0 0 1 -3.87.84 6.5 6.5 0 0 1 -3.65-.9" fill="#fff"/></g></svg>