<svg xmlns="http://www.w3.org/2000/svg" width="60" height="60"><path fill="#fea72b" d="M-5.801-6.164h72.69v72.871h-72.69z"/><path fill="#3a384c" d="M45.372 36.557q0 9.253-4.927 14.227a14.1 14.1 0 0 1-10.41 3.956 14.1 14.1 0 0 1-10.411-3.956q-4.997-4.927-4.997-14.227t4.928-14.228a14.1 14.1 0 0 1 10.41-3.956 14.1 14.1 0 0 1 10.41 3.956q4.997 4.904 4.997 14.228M30 24.92q-6.559 0-6.559 11.637T30 48.217q6.604 0 6.604-11.66T30 24.92"/><path fill="#fff" d="M25.037 13.098a8.6 8.6 0 0 1-.694-3.47 8.6 8.6 0 0 1 .694-3.47 9.4 9.4 0 0 1 4.43-.902 8.15 8.15 0 0 1 4.269.972 8.6 8.6 0 0 1 .694 3.47 8.6 8.6 0 0 1-.694 3.47 8.63 8.63 0 0 1-4.477.972 7.5 7.5 0 0 1-4.222-1.042"/></svg>