<svg xmlns="http://www.w3.org/2000/svg" width="74" height="74" viewBox="0 0 74 74"><title>Icon-Architecture-Category/48/Quantum-Technologies_48</title><g id="Icon-Architecture-Category/48/Quantum-Technologies_48" fill="none" fill-rule="evenodd" stroke="none" stroke-width="1"><path id="Rectangle" fill="#ed7100" d="M5 5h64v64H5z"/><path id="#879196-Border-Copy-20" stroke="#879196" stroke-width="2" d="M1 1h72v72H1z"/><g id="Icon-Category/48/Quantum-Technologies_48" fill="#fff" transform="translate(17 15)"><path id="Quantum-Technologies_Category-Icon_48_Squid" d="M38.32 32c-.049.084-.119.154-.178.23A3.48 3.48 0 0 0 35.5 31c-1.566 0-2.878 1.04-3.325 2.459a25 25 0 0 1-3.274-.616c.394-1.774.686-3.714.87-5.779a45 45 0 0 0 4.57-3.644c3.486 3.607 4.962 6.877 3.979 8.58m-2.82 4c-.827 0-1.5-.673-1.5-1.5s.673-1.5 1.5-1.5 1.5.673 1.5 1.5-.673 1.5-1.5 1.5M21 42c-1.971 0-4.07-2.926-5.451-7.766a46 46 0 0 0 5.446-2.115 46 46 0 0 0 5.459 2.102C25.072 39.069 22.971 42 21 42m-10.191-8.664c-3.699.594-6.297.107-7.13-1.336-.168-.291-.257-.633-.286-1.011.036.001.07.011.107.011C5.429 31 7 29.43 7 27.5c0-.898-.35-1.709-.908-2.33.474-.583.985-1.17 1.556-1.759a45 45 0 0 0 4.58 3.653c.185 2.067.478 4.01.871 5.786-.783.196-1.552.368-2.29.486M3.5 26c.827 0 1.5.673 1.5 1.5S4.327 29 3.5 29 2 28.327 2 27.5 2.673 26 3.5 26m.179-14c.833-1.444 3.43-1.932 7.13-1.336.738.118 1.507.29 2.29.486a46 46 0 0 0-.873 5.8 46 46 0 0 0-4.548 3.651c-3.5-3.615-4.984-6.895-3.999-8.601M21 2c.88 0 1.662.574 2.257 1.2-.163.403-.257.84-.257 1.3a3.5 3.5 0 0 0 2.869 3.436q.315.875.586 1.829A45.5 45.5 0 0 0 21 11.883a46 46 0 0 0-5.451-2.117C16.93 4.926 19.029 2 21 2m5.5 1c.827 0 1.5.673 1.5 1.5S27.327 6 26.5 6 25 5.327 25 4.5 25.673 3 26.5 3m3.442 16.547A41 41 0 0 1 32.884 22a42 42 0 0 1-2.937 2.449Q29.998 23.247 30 22c0-.827-.023-1.644-.058-2.453m-6.594-6.517a42 42 0 0 1 3.597-1.326c.266 1.197.482 2.458.649 3.772a54.87 54.87 0 0 0-4.246-2.446m-8.944 2.45c.171-1.341.393-2.6.654-3.774a42 42 0 0 1 3.593 1.324c-.718.374-1.436.762-2.151 1.176q-1.07.619-2.096 1.274m-2.352 8.969a42 42 0 0 1-2.94-2.452 42 42 0 0 1 2.94-2.45A60 60 0 0 0 12 22q.001 1.247.052 2.449m6.598 6.521a42 42 0 0 1-3.592 1.324 42 42 0 0 1-.653-3.77q1.016.646 2.095 1.27a54 54 0 0 0 2.15 1.176m8.944-2.446c-.17 1.336-.39 2.59-.65 3.761a43 43 0 0 1-3.586-1.32 56 56 0 0 0 4.236-2.441m-3.094-.462a54 54 0 0 1-3.484 1.845 53 53 0 0 1-3.516-1.845 54 54 0 0 1-3.352-2.106 53.4 53.4 0 0 1-.001-7.906 53 53 0 0 1 3.353-2.112 55 55 0 0 1 3.5-1.854 53.675 53.675 0 0 1 6.854 3.962 53.41 53.41 0 0 1-.003 7.91 54 54 0 0 1-3.351 2.106m6.69-17.398c3.695-.593 6.296-.108 7.13 1.336.983 1.703-.493 4.973-3.979 8.58a45 45 0 0 0-4.581-3.652 46 46 0 0 0-.89-5.77c.794-.2 1.574-.374 2.32-.494m8.862.336c-1.291-2.235-4.546-3.056-9.18-2.311-.803.13-1.642.317-2.494.532a32 32 0 0 0-.473-1.521A3.5 3.5 0 0 0 30 4.5C30 2.57 28.429 1 26.5 1c-.742 0-1.426.235-1.993.629C23.17.318 21.893 0 21 0c-3.147 0-5.815 3.568-7.41 9.213a30 30 0 0 0-2.462-.524C6.496 7.942 3.239 8.765 1.947 11c-1.573 2.725.182 6.816 4.269 11.02a28 28 0 0 0-1.844 2.104A3.5 3.5 0 0 0 3.5 24C1.57 24 0 25.57 0 27.5c0 1.144.559 2.152 1.411 2.791-.084 1.012.085 1.926.536 2.709.98 1.697 3.095 2.579 6.083 2.579.947 0 1.983-.089 3.098-.268.793-.128 1.62-.313 2.462-.524C15.185 40.432 17.853 44 21 44s5.817-3.572 7.413-9.223c1.315.332 2.569.565 3.739.686C32.573 36.923 33.906 38 35.5 38c1.929 0 3.5-1.57 3.5-3.5 0-.093-.021-.18-.028-.271A4.2 4.2 0 0 0 40.052 33c1.571-2.72-.176-6.804-4.251-11 4.075-4.196 5.822-8.28 4.251-11"/></g></g></svg>