<svg height="18" viewBox="0 0 18 18" width="18" xmlns="http://www.w3.org/2000/svg" xmlns:xlink="http://www.w3.org/1999/xlink"><linearGradient id="a" gradientUnits="userSpaceOnUse" x1="8.916" x2="8.916" y1="17.5" y2="2.605"><stop offset="0" stop-color="#773adc"/><stop offset="1" stop-color="#a67af4"/></linearGradient><path d="m9 4.759a.43.43 0 0 1 -.335-.159l-2.8-3.4a.43.43 0 0 1 .665-.543l2.465 2.993 2.427-2.991a.43.43 0 0 1 .668.542l-2.759 3.399a.43.43 0 0 1 -.331.159m-7.379 4.078a.43.43 0 0 1 -.43-.43v-1.28a.43.43 0 0 1 .247-.389l4.519-2.119a.43.43 0 0 1 .365.778l-4.271 2v1.01a.43.43 0 0 1 -.43.43m-0 3.904a.43.43 0 0 1 -.43-.43v-1.279a.43.43 0 0 1 .247-.389l4.519-2.12a.43.43 0 0 1 .365.779l-4.271 2v1.006a.43.43 0 0 1 -.43.433m-0 4.104a.43.43 0 0 1 -.43-.43v-1.28a.43.43 0 0 1 .247-.389l4.519-2.119a.43.43 0 0 1 .365.778l-4.271 2v1.007a.43.43 0 0 1 -.43.433m14.758-8.008a.43.43 0 0 1 -.43-.43v-1.007l-4.271-2a.43.43 0 0 1 .365-.778l4.519 2.119a.43.43 0 0 1 .247.389v1.28a.43.43 0 0 1 -.43.427m0 3.904a.43.43 0 0 1 -.43-.43v-1.006l-4.271-2a.43.43 0 0 1 .365-.779l4.519 2.12a.43.43 0 0 1 .247.389v1.279a.43.43 0 0 1 -.43.427m0 4.104a.43.43 0 0 1 -.43-.43v-1.007l-4.271-2a.43.43 0 0 1 .365-.778l4.519 2.119a.43.43 0 0 1 .247.389v1.28a.43.43 0 0 1 -.43.427" fill="#773adc"/><path d="m13.345 7.034a4.429 4.429 0 1 0 -8.857 0v6.038a4.429 4.429 0 0 0 8.857 0z" fill="url(#a)"/><path d="m12.817 4.937a4.44 4.44 0 0 0 -1.8-1.8 1.29 1.29 0 0 0 1.8 1.8m-7.801 0a1.29 1.29 0 0 0 1.8-1.8 4.44 4.44 0 0 0 -1.8 1.8" fill="#b796f9"/></svg>