<svg xmlns="http://www.w3.org/2000/svg" width="18" height="18" viewBox="0 0 18 18"><rect width="12.099" height="17" x=".356" y=".252" fill="currentColor" rx=".585"/><rect width="6.957" height="1.24" x="2.927" y="12.987" fill="currentColor" rx=".306"/><rect width="6.957" height="1.24" x="2.927" y="10.582" fill="currentColor" rx=".306"/><path fill="currentColor" d="M8.9 9.175a.52.52 0 0 0 .539-.5v-.017a.3.3 0 0 0 0-.064c-.214-1.7-1.18-3.075-3.021-3.075s-2.847 1.17-3.047 3.062a.543.543 0 0 0 .486.594z"/><path fill="currentColor" d="M6.44 5.923a1.7 1.7 0 0 1-.9-.271l.9 2.38.91-2.363a1.7 1.7 0 0 1-.91.254"/><circle cx="6.429" cy="4.222" r="1.701" fill="currentColor"/><path fill="currentColor" d="m13.684 9.152.5.323a.8.8 0 0 0 .432.127h.6a.8.8 0 0 1 .727.468l.249.544a.8.8 0 0 0 .295.34l.5.323a.8.8 0 0 1 .359.786l-.085.592a.8.8 0 0 0 .064.446l.248.544a.8.8 0 0 1-.123.855l-.391.452a.8.8 0 0 0-.187.41l-.086.592a.8.8 0 0 1-.566.653l-.573.169a.8.8 0 0 0-.379.243l-.392.452a.8.8 0 0 1-.829.244l-.574-.169a.8.8 0 0 0-.45 0l-.574.169a.8.8 0 0 1-.829-.244l-.392-.452a.8.8 0 0 0-.379-.243l-.574-.169a.8.8 0 0 1-.565-.653l-.086-.592a.8.8 0 0 0-.187-.41l-.391-.452a.8.8 0 0 1-.123-.855l.248-.544a.8.8 0 0 0 .064-.446l-.085-.592a.8.8 0 0 1 .359-.786l.5-.323a.8.8 0 0 0 .295-.34l.249-.544a.8.8 0 0 1 .727-.47h.6a.8.8 0 0 0 .432-.127l.5-.323a.8.8 0 0 1 .872.002"/><path fill="currentColor" d="M13.155 10.465a3 3 0 1 0 3 3 3 3 0 0 0-3-3"/></svg>