<svg height="18" viewBox="0 0 18 18" width="18" xmlns="http://www.w3.org/2000/svg" xmlns:xlink="http://www.w3.org/1999/xlink"><linearGradient id="a" gradientTransform="matrix(1 0 0 -1 0 20)" gradientUnits="userSpaceOnUse" x1="5.626" x2="7.185" y1="20.16" y2="2.336"><stop offset=".5" stop-color="#b796f9"/><stop offset=".9" stop-color="#a67af4"/></linearGradient><linearGradient id="b"><stop offset="0" stop-color="#a67af4"/><stop offset=".241" stop-color="#9065db"/><stop offset=".748" stop-color="#653eab"/><stop offset="1" stop-color="#552f99"/></linearGradient><linearGradient id="c" gradientTransform="matrix(1 0 0 -1 27.6 7.804)" gradientUnits="userSpaceOnUse" x1="-21.467" x2="-21.129" xlink:href="#b" y1="2.275" y2="-1.588"/><linearGradient id="d" gradientTransform="matrix(1 0 0 -1 27.6 7.804)" gradientUnits="userSpaceOnUse" x1="-21.32" x2="-21.023" xlink:href="#b" y1="5.276" y2="1.887"/><linearGradient id="e" gradientTransform="matrix(1 0 0 -1 0 20)" gradientUnits="userSpaceOnUse" x1="13.248" x2="13.248" y1="2.252" y2="10.977"><stop offset="0" stop-color="#76bc2d"/><stop offset=".309" stop-color="#7ac22e"/><stop offset=".718" stop-color="#84d332"/><stop offset=".785" stop-color="#86d633"/></linearGradient><rect fill="url(#a)" height="17" rx=".585" width="12.099" x=".356" y=".252"/><rect fill="#773adc" height="1.24" rx=".306" width="6.957" x="2.927" y="12.987"/><rect fill="#773adc" height="1.24" rx=".306" width="6.957" x="2.927" y="10.582"/><path d="m8.9 9.175a.52.52 0 0 0 .539-.5v-.017a.3.3 0 0 0 0-.064c-.214-1.7-1.18-3.075-3.021-3.075s-2.847 1.17-3.047 3.062a.543.543 0 0 0 .486.594z" fill="url(#c)"/><path d="m6.44 5.923a1.7 1.7 0 0 1 -.9-.271l.9 2.38.91-2.363a1.7 1.7 0 0 1 -.91.254" fill="#f2f2f2"/><circle cx="6.429" cy="4.222" fill="url(#d)" r="1.701"/><path d="m13.684 9.152.5.323a.8.8 0 0 0 .432.127h.6a.8.8 0 0 1 .727.468l.249.544a.8.8 0 0 0 .295.34l.5.323a.8.8 0 0 1 .359.786l-.085.592a.8.8 0 0 0 .064.446l.248.544a.8.8 0 0 1 -.123.855l-.391.452a.8.8 0 0 0 -.187.41l-.086.592a.8.8 0 0 1 -.566.653l-.573.169a.8.8 0 0 0 -.379.243l-.392.452a.8.8 0 0 1 -.829.244l-.574-.169a.8.8 0 0 0 -.45 0l-.574.169a.8.8 0 0 1 -.829-.244l-.392-.452a.8.8 0 0 0 -.379-.243l-.574-.169a.8.8 0 0 1 -.565-.653l-.086-.592a.8.8 0 0 0 -.187-.41l-.391-.452a.8.8 0 0 1 -.123-.855l.248-.544a.8.8 0 0 0 .064-.446l-.085-.592a.8.8 0 0 1 .359-.786l.5-.323a.8.8 0 0 0 .295-.34l.249-.544a.8.8 0 0 1 .727-.47h.6a.8.8 0 0 0 .432-.127l.5-.323a.8.8 0 0 1 .872.002" fill="url(#e)"/><path d="m13.155 10.465a3 3 0 1 0 3 3 3 3 0 0 0 -3-3" fill="#b4ec36"/></svg>