<svg viewBox="0 0 24 24" xmlns="http://www.w3.org/2000/svg"><path d="m7.438 0c-.5428-.0029-1.0456.2006-1.484.6725-.6953.7482-.354 1.7371.5356 2.7936 2.751.6529 6.3299 2.3982 9.4374 4.8783-1.4541-2.2938-5.557-8.3286-8.4889-8.3444zm-3.1758 3.5776c-1.304.0225-2.2213.4728-2.4983 1.4363-1.0187 3.5425 11.8121 5.6034 11.8121 5.6034.269.0468.4741.2807.4741.5625 0 .292-.22.5298-.5034.564-7.508-.303-8.8518 4.309-8.8518 4.309-1.426 4.6097 2.9909 7.9472 2.9909 7.9472-2.1293-8.5433 7.0439-4.9774 7.0439-4.9774 7.5638 2.5793 7.8292.526 7.4649-1.0566-.0027-.0127-.0037-.0256-.0067-.0386-1.7384-7.9404-12.8097-14.4379-17.9259-14.3498zm14.3353 10.5971c.2358-.0018.524.1173.7714.3406.396.3576.5366.8461.3148 1.091-.222.2447-.723.1535-1.1193-.2035-.3954-.3573-.536-.8458-.3141-1.0906.0832-.0918.2058-.1364.3472-.1375z"/></svg>