<svg fill="#ff914d" viewBox="0 0 24 24" xmlns="http://www.w3.org/2000/svg"><path d="m7.438 0c-.543-.003-1.046.2-1.484.673-.695.748-.354 1.737.536 2.793 2.75.653 6.33 2.398 9.437 4.878-1.454-2.293-5.557-8.328-8.489-8.344zm-3.176 3.578c-1.304.022-2.221.472-2.498 1.436-1.019 3.542 11.812 5.603 11.812 5.603a.57.57 0 0 1 -.03 1.127c-7.507-.303-8.851 4.309-8.851 4.309-1.426 4.61 2.99 7.947 2.99 7.947-2.128-8.543 7.045-4.977 7.045-4.977 7.564 2.579 7.829.526 7.465-1.057l-.007-.039c-1.738-7.94-12.81-14.437-17.926-14.35zm14.336 10.597c.235-.002.524.117.77.34.397.358.538.846.316 1.091s-.723.154-1.12-.203c-.395-.358-.536-.846-.314-1.09a.46.46 0 0 1 .348-.138"/></svg>