<svg xmlns="http://www.w3.org/2000/svg" width="18" height="18" viewBox="0 0 18 18"><defs><mask id="a"><path fill="#fff" d="M0 0h18v18H0z"/><path d="M1.73 9.58 8.93 1l7.35 8.59-7.35 4.64z"/></mask></defs><g fill="currentColor" mask="url(#a)"><path d="m1.15 10.22 7.78 5.05 7.92-5.06 1 1.15-8.92 5.75-8.78-5.74z"/></g><path fill="currentColor" d="M8.93 1v13.23l-7.2-4.65z"/><path fill="currentColor" d="M8.93 1v13.23l7.35-4.64z"/><path fill="currentColor" d="m8.93 7.83 7.35 1.76-7.35 4.64z"/><path fill="currentColor" d="m8.93 14.23-7.2-4.65 7.2-1.75z"/><path fill="currentColor" d="m8.93 17.11 8.92-5.75-1-1.15-7.92 5.06z"/><path fill="currentColor" d="M16.32 11.88a1.16 1.16 0 0 0 0-1.65l-2-2a1.16 1.16 0 0 0-1.64 0l-2 2a1.18 1.18 0 0 0 0 1.65l1.67 1.67a.32.32 0 0 1 .09.23v3.1a.36.36 0 0 0 .12.28l.76.76a.25.25 0 0 0 .37 0l.73-.73.44-.44a.15.15 0 0 0 0-.21l-.31-.31a.16.16 0 0 1 0-.24l.31-.31a.16.16 0 0 0 0-.22l-.31-.31a.15.15 0 0 1 0-.23l.31-.32a.15.15 0 0 0 0-.21l-.44-.44v-.16zM13.5 8.71a.66.66 0 1 1-.66.66.66.66 0 0 1 .66-.66"/></svg>