<svg xmlns="http://www.w3.org/2000/svg" width="18" height="18" viewBox="0 0 18 18"><defs><mask id="a"><path fill="#fff" d="M0 0h18v18H0z"/><rect width="3.012" height="3.012" x="2.995" y="13.182" rx=".245"/></mask></defs><g fill="currentColor" mask="url(#a)"><path d="M5.1 4.213 8.7.612a.43.43 0 0 1 .608 0l3.6 3.6a.192.192 0 0 1-.135.328h-2.218a.19.19 0 0 0-.192.191v4.5a.154.154 0 0 1-.153.153H7.79a.154.154 0 0 1-.153-.153v-4.5a.19.19 0 0 0-.192-.191H5.23a.192.192 0 0 1-.13-.327"/><rect width="18" height="5.801" y="11.713" rx=".581"/></g></svg>