<svg height="18" viewBox="0 0 18 18" width="18" xmlns="http://www.w3.org/2000/svg" xmlns:xlink="http://www.w3.org/1999/xlink"><linearGradient id="a" gradientUnits="userSpaceOnUse" x1="9" x2="9" y1="9.387" y2=".486"><stop offset="0" stop-color="#773adc"/><stop offset=".229" stop-color="#8952e5"/><stop offset=".55" stop-color="#9e6ff0"/><stop offset=".735" stop-color="#a67af4"/></linearGradient><linearGradient id="b" gradientUnits="userSpaceOnUse" x1="9" x2="9" y1="17.514" y2="11.713"><stop offset="0" stop-color="#773adc"/><stop offset=".735" stop-color="#a67af4"/></linearGradient><path d="m5.1 4.213 3.6-3.601a.43.43 0 0 1 .608 0l3.6 3.6a.192.192 0 0 1 -.135.328h-2.218a.19.19 0 0 0 -.192.191v4.5a.154.154 0 0 1 -.153.153h-2.42a.154.154 0 0 1 -.153-.153v-4.5a.19.19 0 0 0 -.192-.191h-2.215a.192.192 0 0 1 -.13-.327" fill="url(#a)"/><rect fill="url(#b)" height="5.801" rx=".581" width="18" y="11.713"/><rect fill="#fff" height="3.012" rx=".245" width="3.012" x="2.995" y="13.182"/><g fill="#b4ec36"><rect height="3.012" rx=".245" width="3.012" x="7.494" y="13.182"/><rect height="3.012" rx=".245" width="3.012" x="11.993" y="13.182"/></g></svg>