<svg height="24" width="24" xmlns="http://www.w3.org/2000/svg"><g fill-rule="evenodd"><path d="m6.67 3-4.67 2.76v12.48l4.67 2.76v-2.4l-2.67-1.58v-10.04l2.67-1.58z" fill="#aecbfa"/><path d="m9.33 9.14 2.67 1.57 2.67-1.57v-3.16l-2.67-1.57-2.67 1.57z" fill="#aecbfa"/><path d="m9.33 5.98v3.16l2.67 1.57 2.67-1.57v-3.16l-2.67 1.58z" fill="#669df6"/><path d="m12 10.71 2.67-1.57v-3.16l-2.67 1.58z" fill="#4285f4"/><path d="m12.67 15.63 2.66 1.57 2.67-1.57v-3.16l-2.67-1.58-2.66 1.58z" fill="#aecbfa"/><path d="m12.67 12.47v3.16l2.66 1.57 2.67-1.57v-3.16l-2.67 1.58z" fill="#669df6"/><path d="m15.33 17.2 2.67-1.57v-3.16l-2.67 1.58z" fill="#4285f4"/><path d="m6 15.63 2.67 1.57 2.66-1.57v-3.16l-2.66-1.58-2.67 1.58z" fill="#aecbfa"/><path d="m6 12.47v3.16l2.67 1.57 2.66-1.57v-3.16l-2.66 1.58z" fill="#669df6"/><path d="m8.67 17.2 2.66-1.57v-3.16l-2.66 1.58z" fill="#4285f4"/><path d="m2 8.17v7.67l2 1.18v-10.04z" fill="#669df6"/><path d="m2 8.17 2-.46v-.73z" fill="#4285f4"/><path d="m4 17.02v-.58l-2-.6z" fill="#4285f4"/><path d="m17.33 3v2.4l2.67 1.58v10.04l-2.67 1.58v2.4l4.67-2.76v-12.48z" fill="#aecbfa"/><path d="m20 17.02 2-1.18v-7.67l-2-1.19z" fill="#669df6"/><g fill="#4285f4"><path d="m20 7.71 2 .46-2-1.19z"/><path d="m20 16.44v.58l2-1.18z"/></g></g></svg>