<svg viewBox="0 0 24 24" xmlns="http://www.w3.org/2000/svg"><path d="m19.74 21.618 4.213-10.534a.4.4 0 0 0 .027-.1l.003-.03a.4.4 0 0 0 -.02-.167l-.007-.026a.4.4 0 0 0 -.045-.085l-.003-.005-7.38-10.541c-.002-.003 0-.006-.003-.01h.004v.173h-.01c-.102-.254-.277-.285-.445-.248l-.001-.003c-.001.001-.003-.003-.003-.003h-.006s0-.038-.002-.038l-11.596 3.142c-.006.002-.012-.005-.018-.003-.022.007-.044.01-.064.021l-.039.022q-.02.011-.037.025a.5.5 0 0 0 -.118.154l-.01.017-4.18 10.54c-.004.013.023.026.023.04v.148q0 .029.003.057l-.003.001v.006c0 .049-.011.096.016.139h-.009c0 .002-.008.002-.008.002l-.01.001c.007.012.008.023.016.034l7.377 9.486v.005l.006.005q.01.01.02.02l.02.02q.011.013.023.023l.02.014a.6.6 0 0 0 .104.053q.016.006.032.01.007.004.016.006a.5.5 0 0 0 .172.004l11.597-2.108.041-.01.011.001h.001c.005 0 .01-.007.015-.009q.015-.005.03-.013l.025-.012.01-.007a.5.5 0 0 0 .096-.072q.005-.007.01-.013a.4.4 0 0 0 .069-.1l.005-.008.003-.006.001-.003.006-.015zm-.77-.894-7.315-4.573 8.229-6.4-.915 10.973zm-7.82-5.27-2.782-10.2 11.127 3.71zm9.611-5.883 2.267 1.512-3.022 7.554zm1.133-.278-1.168-.778-1.556-3.113zm-2.35-1.22-10.682-3.559 7.122-3.56zm-11.834-3.944-1.647-.549 6.037-1.648zm-2.881-.053 2.201.734-5.137 6.605 2.936-7.34zm2.725 1.46 2.754 10.096-9.179-1.835 6.425-8.26zm2.746 10.972-2.667 6.222-6.223-8zm.803.313 7.065 4.417-9.716 1.767z" fill="#4e81ee"/></svg>