<svg xmlns="http://www.w3.org/2000/svg" width="18" height="18" viewBox="0 0 18 18"><path fill="currentColor" d="M4.802 7.778a.573.573 0 0 1 .867.747l-.056.064-1.217 1.217a2.677 2.677 0 0 0 3.673 3.895l.114-.108L9.4 12.376a.573.573 0 0 1 .867.747l-.056.064-1.217 1.217a3.825 3.825 0 0 1-5.542-5.272l.132-.138 1.217-1.217zm4.193-4.193a3.825 3.825 0 0 1 5.542 5.272l-.132.138-1.217 1.217a.573.573 0 0 1-.867-.747l.056-.064 1.217-1.217a2.677 2.677 0 0 0-3.672-3.895l-.114.108-1.217 1.217a.573.573 0 0 1-.867-.747l.056-.064 1.217-1.217zm-3.111 7.709 5.41-5.41a.573.573 0 0 1 .862.753l-.051.059-5.41 5.41a.573.573 0 0 1-.862-.753zm0 0 5.41-5.41z"/><path fill="currentColor" d="M8.293 7.738a.18.18 0 0 0 0-.257l-5.95-5.949-.059-.051c-.354-.27-.951-.072-.95.594 0 .047.021.093.054.126l6.093 6.093a.18.18 0 0 0 .257 0l.554-.554z"/><path fill="currentColor" d="m17.091 16.28-6.583-6.583a.18.18 0 0 0-.257 0l-.554.554a.18.18 0 0 0 0 .257l6.439 6.439.059.051c.354.27.951.072.95-.594a.18.18 0 0 0-.054-.126z"/><circle cx="3.134" cy="3.134" r="3.009" fill="currentColor"/><circle cx="14.866" cy="14.866" r="3.009" fill="currentColor"/></svg>