<svg xmlns="http://www.w3.org/2000/svg" id="uuid-181ec78f-a0c2-4682-86f1-8e64c0571813" width="18" height="18" viewBox="0 0 18 18"><defs><linearGradient id="uuid-9b4a0b5c-9586-4a0d-a4a9-680253e24c4e" x1="2.465" x2="15.525" y1="8.995" y2="8.995" gradientUnits="userSpaceOnUse"><stop offset="0" stop-color="#4aa647"/><stop offset=".998" stop-color="#8de971"/></linearGradient><linearGradient id="uuid-99e3ceeb-6454-4e32-9e69-7091415a3a52" x1="3.422" x2="8.428" y1="4.855" y2="4.855" gradientUnits="userSpaceOnUse"><stop offset=".15" stop-color="#ccc"/><stop offset="1" stop-color="#707070"/></linearGradient><linearGradient id="uuid-edeb343e-2e29-4af7-adcc-61bdde8b002e" x1="9.644" x2="14.59" y1="13.38" y2="13.38" gradientUnits="userSpaceOnUse"><stop offset="0" stop-color="#707070"/><stop offset=".85" stop-color="#ccc"/></linearGradient><linearGradient id="uuid-69125a18-78f2-4674-b902-f094a3f7c8b9" x1="3.134" x2="3.134" y1="6.143" y2=".125" gradientUnits="userSpaceOnUse"><stop offset="0" stop-color="#0078d4"/><stop offset=".502" stop-color="#4093e6"/><stop offset=".775" stop-color="#5ea0ef"/></linearGradient><linearGradient id="uuid-de815133-7b66-4136-927c-63aa1908429d" x1="14.866" x2="14.866" y1="17.875" y2="11.857" gradientUnits="userSpaceOnUse"><stop offset="0" stop-color="#0078d4"/><stop offset=".502" stop-color="#4093e6"/><stop offset=".775" stop-color="#5ea0ef"/></linearGradient></defs><path fill="url(#uuid-9b4a0b5c-9586-4a0d-a4a9-680253e24c4e)" d="M4.802 7.778a.573.573 0 0 1 .867.747l-.056.064-1.217 1.217a2.677 2.677 0 0 0 3.673 3.895l.114-.108L9.4 12.376a.573.573 0 0 1 .867.747l-.056.064-1.217 1.217a3.825 3.825 0 0 1-5.542-5.272l.132-.138 1.217-1.217Zm4.193-4.193a3.825 3.825 0 0 1 5.542 5.272l-.132.138-1.217 1.217a.573.573 0 0 1-.867-.747l.056-.064 1.217-1.217a2.677 2.677 0 0 0-3.672-3.895l-.114.108-1.217 1.217a.573.573 0 0 1-.867-.747l.056-.064 1.217-1.217Zm-3.111 7.709 5.41-5.41a.573.573 0 0 1 .862.753l-.051.059-5.41 5.41a.573.573 0 0 1-.862-.753zl5.41-5.41z"/><path fill="url(#uuid-99e3ceeb-6454-4e32-9e69-7091415a3a52)" d="M8.293 7.738a.18.18 0 0 0 0-.257l-5.95-5.949-.059-.051c-.354-.27-.951-.072-.95.594 0 .047.021.093.054.126l6.093 6.093a.18.18 0 0 0 .257 0l.554-.554Z"/><path fill="url(#uuid-edeb343e-2e29-4af7-adcc-61bdde8b002e)" d="m17.091 16.28-6.583-6.583a.18.18 0 0 0-.257 0l-.554.554a.18.18 0 0 0 0 .257l6.439 6.439.059.051c.354.27.951.072.95-.594a.18.18 0 0 0-.054-.126Z"/><circle cx="3.134" cy="3.134" r="3.009" fill="url(#uuid-69125a18-78f2-4674-b902-f094a3f7c8b9)"/><circle cx="14.866" cy="14.866" r="3.009" fill="url(#uuid-de815133-7b66-4136-927c-63aa1908429d)"/></svg>