<svg xmlns="http://www.w3.org/2000/svg" width="18" height="18" viewBox="0 0 18 18">
  <defs>
    <mask id="ko">
      <rect width="18" height="18" fill="white"/>
      <path fill="black" d="m8.39 2.16-8 4.09a.71.71 0 0 0-.25.94.62.62 0 0 0 .25.28l8 3.48a.93.93 0 0 0 .73 0l8.48-3.5a.72.72 0 0 0 .28-.94.63.63 0 0 0-.28-.3L9.14 2.14a.86.86 0 0 0-.75.02"/>
      <path fill="black" d="M15.84 10.2a1.26 1.26 0 0 0-.23-.52 5.2 5.2 0 0 0-2.52-2.23L9.61 6l-1.11.79L12 8.28a5.05 5.05 0 0 1 2.72 2.66 8 8 0 0 1 .28 1.68m.16 0 .42-.83.53.68h.1a5 5 0 0 0-.38-2.27z"/>
      <circle fill="black" cx="8.94" cy="6.46" r="0"/>
    </mask>
  </defs>
  <g>
    <path fill="currentColor" mask="url(#ko)" d="M14.45 8.8H3.68v4.85c0 1.26 2.41 2.29 5.44 2.29s5.44-1 5.44-2.29z"/>
  </g>
</svg>