<svg height="18" viewBox="0 0 18 18" width="18" xmlns="http://www.w3.org/2000/svg" xmlns:xlink="http://www.w3.org/1999/xlink"><linearGradient id="a" gradientTransform="matrix(1 0 0 -1 0 -7206.55)" gradientUnits="userSpaceOnUse" x1="9" x2="9" y1="-7205.66" y2="-7219.44"><stop offset=".13" stop-color="#773adc"/><stop offset=".23" stop-color="#8249e2"/><stop offset=".43" stop-color="#9664ec"/><stop offset=".6" stop-color="#a274f2"/><stop offset=".74" stop-color="#a67af4"/></linearGradient><path d="m14.45 8.8h-10.77v4.85c0 1.26 2.41 2.29 5.44 2.29s5.44-1 5.44-2.29z" fill="#773adc"/><path d="m8.39 2.16-8 4.09a.71.71 0 0 0 -.25.94.62.62 0 0 0 .25.28l8 3.48a.93.93 0 0 0 .73 0l8.48-3.5a.72.72 0 0 0 .28-.94.63.63 0 0 0 -.28-.3l-8.46-4.07a.86.86 0 0 0 -.75.02" fill="url(#a)"/><path d="m15.84 10.2a1.26 1.26 0 0 0 -.23-.52 5.2 5.2 0 0 0 -2.52-2.23l-3.48-1.45-1.11.79 3.5 1.49a5.05 5.05 0 0 1 2.72 2.66 8 8 0 0 1 .28 1.68m.16 0 .42-.83.53.68h.1a5 5 0 0 0 -.38-2.27z" fill="#50e6ff"/><ellipse cx="8.94" cy="6.46" fill="#552f99" rx="1.34" ry=".68"/></svg>