<svg height="18" viewBox="0 0 18 18" width="18" xmlns="http://www.w3.org/2000/svg" xmlns:xlink="http://www.w3.org/1999/xlink"><linearGradient id="a" gradientUnits="userSpaceOnUse" x1="12.062" x2="12.062" y1="5.427" y2="3.991"><stop offset="0" stop-color="#76bc2d"/><stop offset="1" stop-color="#86d633"/></linearGradient><linearGradient id="b"><stop offset="0" stop-color="#e6e6e6"/><stop offset="1" stop-color="#999"/></linearGradient><linearGradient id="c" gradientUnits="userSpaceOnUse" x1="2.902" x2="9.455" xlink:href="#b" y1="6.762" y2="6.762"/><linearGradient id="d" gradientTransform="matrix(0 1 -1 0 -512.319 1291.819)" gradientUnits="userSpaceOnUse" x1="-1288.505" x2="-1284.777" y1="-521.774" y2="-521.774"><stop offset="0" stop-color="#86d633"/><stop offset="1" stop-color="#76bc2d"/></linearGradient><linearGradient id="e" gradientUnits="userSpaceOnUse" x1="2.902" x2="9.455" xlink:href="#b" y1="11.544" y2="11.544"/><linearGradient id="f" gradientTransform="matrix(0 -1 -1 0 -512.319 -263.224)" gradientUnits="userSpaceOnUse" x1="-274.183" x2="-279.397" y1="-521.774" y2="-521.774"><stop offset="0" stop-color="#faa21d"/><stop offset=".999" stop-color="#f78d1e"/></linearGradient><linearGradient id="g" gradientTransform="matrix(1 0 -.35265 1 149.182 0)" gradientUnits="userSpaceOnUse" x1="-140.646" x2="-143.764" y1="13.626" y2="4.784"><stop offset="0" stop-color="#50e6ff"/><stop offset="1" stop-color="#9cebff"/></linearGradient><path d="m16.62 4.541-2.765-1.597a.194.194 0 0 0 -.291.168v.822h-6.158v1.55h6.158v.822c0 .149.161.242.291.168l2.765-1.597a.194.194 0 0 0 0-.336" fill="url(#a)"/><path d="m4.495 9.616h-1.592v-4.634a1.07 1.07 0 0 1 1.067-1.073h5.486v1.592h-4.96z" fill="url(#c)"/><circle cx="9.455" cy="4.603" fill="url(#d)" r="2.607"/><path d="m9.455 14.4h-5.484a1.07 1.07 0 0 1 -1.069-1.071v-4.64h1.592v4.115h4.96z" fill="url(#e)"/><circle cx="9.455" cy="13.397" fill="url(#f)" r="2.607"/><path d="m5.008 12.097h-3.312c-.272 0-.453-.301-.405-.673l.584-4.534c.048-.372.307-.673.578-.673h3.312c.272 0 .453.301.405.673l-.584 4.534c-.048.372-.307.673-.578.673" fill="url(#g)"/><path d="m.362 3.138a.36.36 0 0 1 -.362-.361v-2.416c0-.199.162-.361.362-.361h2.266a.362.362 0 1 1 0 .722h-1.904v2.053a.36.36 0 0 1 -.361.362zm17.638-.361v-2.416a.36.36 0 0 0 -.362-.361h-2.266a.362.362 0 1 0 0 .722h1.904v2.053a.362.362 0 0 0 .724 0zm-15.01 14.862a.36.36 0 0 0 -.362-.361h-1.904v-2.053a.362.362 0 0 0 -.724 0v2.415c0 .199.163.36.362.36h2.266c.2 0 .362-.162.362-.361m15.01.001v-2.415a.362.362 0 0 0 -.724 0v2.053h-1.904a.362.362 0 1 0 0 .723h2.266a.36.36 0 0 0 .362-.36z" fill="#76bc2d"/></svg>