<svg xmlns="http://www.w3.org/2000/svg" width="24" height="24"><clipPath id="a"><path fill="currentColor" d="M0 0h24v24H0z"/></clipPath><g clip-path="url(#a)"><g clip-path="url(#a)"><path fill="none" stroke="currentColor" stroke-miterlimit="10" stroke-width="2" d="M13.53 2.27v2.36"/></g><path fill="none" stroke="currentColor" stroke-miterlimit="10" stroke-width="2" d="m7.72 4.68 1.67 1.66m-4.07 4.15h2.35m5.86 8.22v-2.35m5.82-.06-1.67-1.66"/><g clip-path="url(#a)"><path fill="none" stroke="currentColor" stroke-miterlimit="10" stroke-width="2" d="M21.75 10.49H19.4"/></g><g fill="none" stroke-miterlimit="10"><path fill="currentColor" stroke="currentColor" stroke-width="2" d="m19.35 4.68-1.67 1.66M6.99 17.2l1.54 1.54"/><g clip-path="url(#a)"><path fill="currentColor" stroke="currentColor" stroke-width="2" d="m9.6 13.81-5.38 5.38 1.93 1.93"/><path fill="currentColor" stroke="currentColor" stroke-width="2" d="M17.64 14.6a5.81 5.81 0 1 1 0-8.21 5.8 5.8 0 0 1 0 8.21z"/><path fill="currentColor" stroke="currentColor" d="m10.68 10.68 1.77 1.84 3.94-4.06"/></g></g></g></svg>