<svg height="24" width="24" xmlns="http://www.w3.org/2000/svg" xmlns:xlink="http://www.w3.org/1999/xlink"><clipPath id="a"><path d="m0 0h24v24h-24z"/></clipPath><g clip-path="url(#a)"><g clip-path="url(#a)"><path d="m13.53 2.27v2.36" fill="none" stroke="#579bfb" stroke-miterlimit="10" stroke-width="2"/></g><path d="m7.72 4.68 1.67 1.66m-4.07 4.15h2.35m5.86 8.22v-2.35m5.82-.06-1.67-1.66" fill="none" stroke="#579bfb" stroke-miterlimit="10" stroke-width="2"/><g clip-path="url(#a)"><path d="m21.75 10.49h-2.35" fill="none" stroke="#579bfb" stroke-miterlimit="10" stroke-width="2"/></g><g fill="none" stroke-miterlimit="10"><path d="m19.35 4.68-1.67 1.66m-10.69 10.86 1.54 1.54" stroke="#579bfb" stroke-width="2"/><g clip-path="url(#a)"><path d="m9.6 13.81-5.38 5.38 1.93 1.93" stroke="#abc9f8" stroke-width="2"/><path d="m17.64 14.6a5.81 5.81 0 1 1 0-8.21 5.8 5.8 0 0 1 0 8.21z" stroke="#579bfb" stroke-width="2"/><path d="m10.68 10.68 1.77 1.84 3.94-4.06" stroke="#4283f2"/></g></g></g></svg>