<svg viewBox="0 0 24 24" xmlns="http://www.w3.org/2000/svg"><path d="m13.8818 8.3964.0261.0196 9.9494 5.7172c-.4884 2.729-1.9196 5.2223-4.0384 7.0253a11.9262 11.9262 0 0 1 -7.7219 2.8415c-3.1925 0-6.1939-1.2477-8.4527-3.5144-2.2575-2.2668-3.5016-5.2812-3.5016-8.4856 0-3.2042 1.244-6.2187 3.5015-8.4854 2.2577-2.2666 5.259-3.5146 8.4528-3.5146 2.4394 0 4.7847.7333 6.783 2.1187 1.9526 1.354 3.4466 3.2357 4.3227 5.4422.1112.2829.2149.5736.3051.8657l-2.1255 1.2359a9.4924 9.4924 0 0 0 -.2619-.8694c-1.354-3.8303-4.9813-6.4048-9.0237-6.4048-5.2796-0-9.5747 4.3122-9.5747 9.6117s4.295 9.6115 9.5748 9.6115c2.052 0 4.0084-.6442 5.6596-1.8647 1.6172-1.1955 2.8036-2.8337 3.4309-4.7364l.0065-.0419-11.6032-6.6637v7.2256l4.0004-2.3138 2.06 1.1811-5.9962 3.4688-2.12-1.2126v-9.4596l2.1174-1.2245 4.2309 2.4279z"/></svg>