<svg xmlns="http://www.w3.org/2000/svg" xmlns:xlink="http://www.w3.org/1999/xlink" width="18" height="18" viewBox="0 0 18 18">
  <defs>
    <mask id="wko">
      <rect width="18" height="18" fill="white"/>
      <path fill="black" d="M7.9 9a4.1 4.1 0 0 1-2.27-.67l2.25 5.89 2.24-5.85A4.17 4.17 0 0 1 7.9 9" opacity=".8"/>
    </mask>
  </defs>
  <g fill="currentColor" mask="url(#wko)">
    <path fill="currentColor" d="M14.05 17.11a1.34 1.34 0 0 0 1.34-1.33 1 1 0 0 0 0-.16C14.86 11.42 12.47 8 7.9 8S.86 10.9.4 15.63a1.34 1.34 0 0 0 1.19 1.47h12.46z"/>
  </g>
  <circle cx="7.9" cy="4.8" r="4.21" fill="currentColor"/>
  <path fill="currentColor" d="M17.27 11.45a1.13 1.13 0 0 0 0-1.6l-1.94-2a1.12 1.12 0 0 0-1.6 0l-2 1.94a1.14 1.14 0 0 0 0 1.61l1.61 1.64a.3.3 0 0 1 .09.22v3a.36.36 0 0 0 .12.28l.73.75a.27.27 0 0 0 .37 0l.72-.72.42-.43a.14.14 0 0 0 0-.2l-.31-.31a.17.17 0 0 1 0-.23l.31-.31a.13.13 0 0 0 0-.2l-.3-.31a.17.17 0 0 1 0-.23l.31-.31a.14.14 0 0 0 0-.2l-.42-.43v-.11zm-2.73-3.11a.66.66 0 0 1 .64.65.63.63 0 0 1-.65.64.65.65 0 0 1 0-1.29z"/>
</svg>