<svg height="48" viewBox="0 0 48 48" width="48" xmlns="http://www.w3.org/2000/svg"><path d="m37.5 39.5c0 .443-.195.836-.5 1.111v1.389h-2v-1.389a1.5 1.5 0 0 1 -.5-1.111 1.5 1.5 0 0 1 3 0m-12.306-11.193c0 1.378 1.121 2.5 2.5 2.5v2a4.505 4.505 0 0 1 -4.5-4.5c0-2.482 2.019-4.5 4.5-4.5 1.295 0 2.529.559 3.384 1.533l-1.504 1.32a2.5 2.5 0 0 0 -4.38 1.647m-3.778-24.307c8.813 0 15.28 2.83 15.416 4.347l-.02.154c-.016.053-.049.107-.08.162-.022.04-.037.079-.067.12-.043.057-.103.116-.16.174-.039.04-.07.079-.116.119-.055.048-.127.097-.191.145-.074.055-.14.11-.226.165-.02.013-.046.026-.067.039-2.05 1.273-7.337 2.575-14.489 2.575-7.173 0-12.471-1.31-14.506-2.586l-.046-.027c-.092-.059-.163-.117-.241-.176-.059-.044-.125-.089-.176-.133-.049-.044-.083-.086-.125-.129-.053-.055-.111-.111-.151-.165-.032-.043-.048-.084-.071-.127-.029-.052-.062-.105-.077-.156l-.021-.155c.139-1.517 6.604-4.346 15.414-4.346m17.711 18.281c.03.085.036.157-.022.272-.011.024-.075.066-.186.103-.45.149-1.139.133-1.994-.007l.263-1.948c.824.443 1.751 1.037 1.939 1.58m-17.711 16.378c-7.309 0-11.563-1.837-11.69-2.585a1 1 0 0 0 -.009-.133l-3.302-24.524c3.243 1.767 9.267 2.679 15.001 2.679 5.735 0 11.76-.912 15.004-2.679l-1.453 10.784c-3.245-.902-7.607-2.736-10.982-4.345a1.996 1.996 0 0 0 -1.985-1.856c-1.103 0-2 .897-2 2a2.002 2.002 0 0 0 3.116 1.659c2.682 1.285 7.606 3.504 11.584 4.529l-.226 1.679 1.982.266.207-1.536c.546.084 1.068.141 1.529.141.519 0 .978-.058 1.358-.184.784-.261 1.164-.746 1.345-1.107a2.3 2.3 0 0 0 .121-1.824c-.493-1.414-2.268-2.407-3.545-3.026l1.31-9.731v-.004l.044-.338a1 1 0 0 0 .009-.129c0-3.769-9.18-6.395-17.418-6.395s-17.416 2.626-17.416 6.395q0 .066.009.132l.045.338v.001l3.674 27.286c.125 3.305 8.227 4.507 13.688 4.507 1.231 0 2.467-.054 3.673-.161l-.178-1.993a40 40 0 0 1 -3.495.154m-8.692-14.659 2.276-3.984 2.276 3.984zm7.141 1.502a1 1 0 0 0 .003-.998l-4-7c-.355-.623-1.381-.623-1.736 0l-4 7a1 1 0 0 0 .868 1.496h8c.356 0 .686-.19.865-.498m-4.865 8.498h4v-4h-4zm-1 2h6a1 1 0 0 0 1-1v-6a1 1 0 0 0 -1-1h-6a1 1 0 0 0 -1 1v6a1 1 0 0 0 1 1m28 8h-12v-8h12zm-9-12c0-1.103.897-2 2-2h2c1.103 0 2 .897 2 2v2h-6zm10 2h-2v-2c0-2.206-1.794-4-4-4h-2c-2.206 0-4 1.794-4 4v2h-2a1 1 0 0 0 -1 1v10a1 1 0 0 0 1 1h14a1 1 0 0 0 1-1v-10a1 1 0 0 0 -1-1" fill="#7aa116" fill-rule="evenodd"/></svg>