<svg height="48" viewBox="0 0 48 48" width="48" xmlns="http://www.w3.org/2000/svg"><path d="m18.863 29.233h10.239v-10.239h-10.239zm-1.126 1.781v1.843h2v-1.623h1.497v1.623h2v-1.623h1.497v1.623h2v-1.623h1.497v1.623h2v-1.843c.274-.153.5-.379.654-.654h1.843v-2h-1.623v-1.497h1.623v-2h-1.623v-1.498h1.623v-2h-1.623v-1.497h1.623v-2h-1.843a1.7 1.7 0 0 0 -.654-.654v-1.843h-2v1.623h-1.497v-1.623h-2v1.623h-1.497v-1.623h-2v1.623h-1.497v-1.623h-2v1.843c-.276.153-.501.38-.655.654h-1.842v2h1.623v1.497h-1.623v2h1.623v1.498h-1.623v2h1.623v1.497h-1.623v2h1.842c.154.275.379.501.655.654m21.856 2.717h2v-19.233h-2zm-5.246 0h2v-19.233h-2zm-22.731 0h2v-19.233h-2zm-5.245 0h2v-19.233h-2zm-2.371 2.497h39.964v-24.228h-39.964zm40.964-26.228h-41.964a1 1 0 0 0 -1 1v26.228a1 1 0 0 0 1 1h41.964a1 1 0 0 0 1-1v-26.228a1 1 0 0 0 -1-1" fill="#ed7100" fill-rule="evenodd"/></svg>