<svg xmlns="http://www.w3.org/2000/svg" width="288.918" height="316" viewBox="0 0 288.918 316"><path fill="currentColor" d="M232.442 16.66c-.235 0-.49.036-.736.111 0 0-36.074 16.972-91.869 34.463a769 769 0 0 1-8.801 2.706 986 986 0 0 0 14.831-3.534c45.583-11.255 78.437-22.932 89.63-27.103-.593-3.301-.889-4.937-.889-4.937-.235-1.043-1.133-1.706-2.166-1.706m1.553 15.679-.54.057v.008S196.082 46.233 139.04 58.94C81.998 71.636 31.864 77.425 31.864 77.425c-1.339.296-2.269 1.594-2.085 2.913 0 0 6.982 11.467 15.15 57.479a176 176 0 0 0-5.049 1.77c-9.895-41.012-17.704-57.093-19.554-60.978-2.648.695-4.11 1.062-4.11 1.062-1.277.48-2.465 1.882-1.667 3.17 0 0 8.946 10.876 23.687 57.368a76 76 0 0 0-7.177 3.17c-4.835 2.484-6.777 6.07-5.857 9.925.981 4.11 6.86 4.899 8.74 4.899h.111c2.576-.113 5.46-.573 8.783-1.38l.675-.176.325-.08s1.617-.42 3.845-1.013c1.35 8.556 2.512 17.246 3.872 27.724 10.652 82.536 6.513 94.406 6.513 94.406.194 1.309 1.433 2.125 2.772 1.829 0 0 35.503-13.913 98.013-27.877 62.521-13.964 103.565-17.132 103.565-17.132 1.339-.306 2.28-1.606 2.085-2.925 0 0-10.552-30.8-17.35-86.655.348-.307.698-.625 1.035-.962l.1-.092c5.867-5.919 7.984-11.143 8.372-14.015 1.002-5.602-.583-10.296-2.116-12.003-2.137-2.392-4.66-4.025-10.385-3.504l-.092.008c-5.612-56.009-7.85-80.115-7.85-80.115-.164-1.135-1.106-1.901-2.22-1.901zm15.989 116.84c8.331 46.001 18.348 75.894 21.977 85.892 2.433-.542 3.734-.809 3.734-.809 1.288-.46 2.053-1.87 1.706-3.147 0 0-13.944-29.219-27.417-81.936m-89.61 107.225a971 971 0 0 0-11.47 2.883c-48.087 12.41-79.942 24.26-91.861 28.962.173 4.201-.112 5.416-.112 5.416.307 1.288 1.627 1.982 2.925 1.553 0 0 34.041-17.203 94.978-37.035 1.87-.603 3.71-1.206 5.54-1.779"/><g fill="currentColor"><path d="M230.388 135.732c2.525-9.691 7.278-13.085 8.024-13.73 3.241-2.187 3.844-.398 4.273.349.94 2.044-.348 6.348-.756 7.667-2.26 7.319-6.808 10.754-7.534 11.336-3.966 2.525-4.11-.716-4.232-1.656-.092-.664.074-2.709.225-3.966m-10.478 3.66s-.828 8.28 8.689 7.595c1.155-.092 9.977-.644 17.163-7.79 1.094-1.104 6.594-6.522 7.35-12.124.205-1.216 2.413-11.643-9.394-10.958-1.431.225-8.873.92-15.763 7.933-1.012.991-8.005 8.167-8.045 15.344m-10.335-13.954s-2.3-4.754-7.974-3.967c-.971.205-3.057.726-4.866 2.25-.265.265-1.186 1.359.214 1.523.849.132 4.948.43 5.183 4.406.008 1.052.542 4.763-2.658 17.664-.245.767-1.114 3.384 2.014 3.21 1.074-.045 6.113-.286 8.649-1.523.838-.46 2.054-.685 1.911-2.975.008-.981.008-11.889-.797-14.853.378-.93 2.27-5.091 7.043-7.667.797-.389 3.598-2.127 5.878.419.358.348.787.92 1.84.06.716-.675 3.363-3.119 2.883-6.43-.235-.829-.44-2.863-4.692-2.413-1.247.214-7.187.603-14.629 10.294m-30.126 4.283c6.727-2.402 5.081 7.667 3.854 9.814-1.676 5.213-5.98 7.912-5.98 7.912l-1.574-15.64c1.278-.88 2.852-1.749 3.7-2.086m-23.133-25.76s-1.206.54.357.99c.624.4 2.393 1.422 3.415 4.621.521 1.585 3.567 10.755 5.51 24.514.173 1.288 1.738 13.729 1.533 17.03.123.9.022 4.928 5.909 3.425 4.038-1.053 13.463-7.462 19.923-17.122.849-1.002 8.792-14.486-6.44-14.302-2.34.379-5.213.593-11.142 4.508-.164-.797-1.575-16.867-3.66-23.174-.725-1.421-1.268-3.66-6.072-3.118-1.176.174-6.45.92-9.333 2.627m4.886 23.216s.695.224.593-.798c-.113-1.032-.338-4.498-3.282-6.082-.684-.297-1.932-1.114-5.019-.074-.88.327-12.032 4.355-17.317 14.005-.398.838-3.905 8.32 2.78 10.355 0 0 4.99 1.4 8.025 1.717 0 0 9.507.87 3.864 8.7-.817 1.114-4.099 5.48-9.108 9.353-.94.644-4.825 3.445-9.364 1.002-.766-.337-2.218-.756-1.697 1.012.368.726 2.75 4.774 6.308 6.665.807.358 3.281 2.403 11.49-2.136 1.768-.91 10.866-7.77 14.506-15.477.5-1.39 3.434-8.117-2.955-10.396-1.922-.777-7.063-1.892-8.423-2.24-2.515-.684-9.916-1.972-5.183-8.596 1.196-1.227 5.745-5.909 14.782-7.013M38.469 146.563c-1.584.123-1.063-1.135-.245-1.605 6.317-3.874 17.664-6.665 17.664-6.665l.634 4.365c-8.26 2.402-15.937 3.915-18.053 3.905m17.153-10.396s-16.51 4.549-24.186 8.669c-2.934 1.461-9.518 8.137 1.564 8.137 2.116-.092 5.05-.46 9.282-1.554 1.298-.338 14.914-3.936 14.914-3.936l2.495 16.458s.46 2.72.725 3.62c0 0 .573 4.671 4.335 4.017 1.032-.06 4.65-.174 7.912-1.319.593-.276 2.157-.633 1.431-2.924-.102-1.134-3.772-23.184-3.772-23.184l12.982-3.2 3.497 22.173s.654 5.08 4.661 4.14c1.206-.174 4.181-.563 6-1.574.45-.297 1.493-.644.246-2.924-.368-1.176-4.324-14.915-5.08-23.635.838-.153 15.405-2.678 14.853-2.065-.552.604-4.805 4.928-7.094 11.44-1.667 3.506-.103 14.3 10.56 11.326 1.809-.665 6.112-1.963 10.876-7.974.235.584 3.282 8.342 11.94 6.165.89-.256 2.229-.43.88-1.534-.665-.419-3.936-2.095-3.783-8.689.092-1.768.624-6.86 1.779-12.87.081-.665.276-3.036-2.362-2.464-1.329.379-4.16 1.299-6.634 3.128-.603.512-1.299.87-1.759 3.037-.357 1.093-4.048 12.287-10.028 16.264-1.032.633-2.975 1.962-3.087-.757-.123-1.482 1.124-9.762 11.49-18.84 1.257-1.032 4.294-3.22 5.52-3.557 1.023-.174 2.178-1.452.195-1.984 0 0-3.312-.797-14.291.727-1.064.132-10.07 1.318-19.648 3.312-.103-1.166-1.176-15.723-.327-23.103.143-1.442 1.676-6.471-3.435-5.623-.961.113-5.96.839-8.526 2.474-.695.389-1.615.695-.562 1.421.43.491 1.196 1.196 1.36 3.936.112 1.032 2.075 23 2.075 23l-13.024 3.333s-2.453-18.37-2.576-26.129c-.092-1.278.685-6.644-5.162-4.64-1.319.337-7.35 1.88-11.531 5.11 0 0-2.382 1.39.052 1.963.705.43 1.656.89 2.034 3.016.246 1.237 3.21 17.613 3.21 17.613"/><path d="m192.493 154.224-.184.46c-5.47 11.94-19.545 22.05-20.813 22.899-12.84 9.67-26.998 12.778-28.838 13.197-16.274 4.212-30.729 2.678-31.772 2.668 3.507 11.194 21.815 18.36 22.541 18.646 19.443 7.963 35.35 1.37 37.23.777 14.762-5.08 19.444-17.48 20.415-19.627 5.234-12.901 3.281-26.242 2.985-28.685-.184-2.832-.971-5.755-1.155-6.696-.225-1.492 1.42-1.257 1.451-.337 2.965 10.1 2.975 19.044 2.965 20.527-.037 14.373-4.181 20.813-4.825 22.193-5.377 10.345-12.553 14.27-13.8 15.047-12.176 8.005-26.753 7.228-29.043 7.146-21.15-.961-34.337-11.265-36.77-13.187-13.617-10.652-14.802-24.125-14.823-24.964-.03-.838.194-.5 1.697-.143 23.492 6.481 44.029.008 45.174-.255 30.657-7.36 46.164-30.034 46.164-30.034 1.074-1.646 1.78-.235 1.401.368"/></g></svg>