<svg xmlns="http://www.w3.org/2000/svg" width="18" height="18" viewBox="0 0 18 18"><defs><mask id="a"><path fill="#fff" d="M0 0h18v18H0z"/><path d="M11.08 14.37c-1.5-.23-1.56-1.31-1.55-3h-3c0 1.74-.06 2.82-1.55 3a.87.87 0 0 0-.74.84h7.54a.88.88 0 0 0-.7-.84"/><path d="M14.88 10.82 13.76 9.7a.06.06 0 0 0-.1.05v.68a.06.06 0 0 1-.06.06H11v.83h2.6a.06.06 0 0 1 .06.06v.69a.06.06 0 0 0 .1 0L14.88 11a.12.12 0 0 0 0-.18"/><path d="M.5 1.26h15.1v10.06H.5z"/><path d="M1.34 2.1h13.42v8.39H1.34z"/><path d="M11.62 6.82h5.27v8.7h-5.27z"/><circle cx="8.05" cy="6.41" r="1.46"/></mask></defs><path fill="currentColor" d="M17.17 5.91h-6.88a2.31 2.31 0 1 0 0 .92H11v9.58a.33.33 0 0 0 .33.33h5.83a.33.33 0 0 0 .33-.33V6.24a.33.33 0 0 0-.32-.33" mask="url(#a)"/></svg>