<svg xmlns="http://www.w3.org/2000/svg" width="18" height="18" viewBox="0 0 18 18">
  <defs>
    <mask id="ko">
      <rect width="18" height="18" fill="white"/>
      <path fill="black" d="M11.08 14.37c-1.5-.23-1.56-1.31-1.55-3h-3c0 1.74-.06 2.82-1.55 3a.87.87 0 0 0-.74.84h7.54a.88.88 0 0 0-.7-.84"/>
      <path fill="black" d="M14.88 10.82 13.76 9.7a.06.06 0 0 0-.1.05v.68a.06.06 0 0 1-.06.06H11v.83h2.6a.06.06 0 0 1 .06.06v.69a.06.06 0 0 0 .1 0L14.88 11a.12.12 0 0 0 0-.18"/>
      <rect fill="black" x=".5" y="1.26" width="15.1" height="10.06"/>
      <rect fill="black" x="1.34" y="2.1" width="13.42" height="8.39"/>
      <rect fill="black" x="11.62" y="6.82" width="5.27" height="8.7"/>
      <circle fill="black" cx="8.05" cy="6.41" r="1.46"/>
    </mask>
  </defs>
  <g>
    <path fill="currentColor" mask="url(#ko)" d="M17.17 5.91h-6.88a2.31 2.31 0 1 0 0 .92H11v9.58a.33.33 0 0 0 .33.33h5.83a.33.33 0 0 0 .33-.33V6.24a.33.33 0 0 0-.32-.33"/>
  </g>
</svg>