<svg height="48" viewBox="0 0 48 48" width="48" xmlns="http://www.w3.org/2000/svg"><path d="m20.3 37.653v-27.8l-8.866 3.167v16.372c0 1.309 1.586 7.71 8.867 8.26m10.867-12.922v-11.71l-8.868-3.167v27.852l1.314-.002v2l-2.314.004c-9.055 0-11.867-7.561-11.867-10.315v-17.077c0-.423.265-.8.664-.941l10.867-3.881a1 1 0 0 1 .672 0l10.866 3.88a1 1 0 0 1 .664.942v12.415zm-9.868 18.41c-15.126 0-15.3-14.675-15.3-15.3v-17.94l15.3-5.83 15.3 5.83v13.278h2v-13.968a1 1 0 0 0 -.643-.935l-16.3-6.21a1 1 0 0 0 -.712 0l-16.301 6.211a1 1 0 0 0 -.644.934v18.63c0 5.984 3.616 17.3 17.3 17.3 1.379 0 2.7-.104 3.93-.31l-.33-1.973a22 22 0 0 1 -3.6.283m21.553-7.508c0-4.603-3.745-8.348-8.348-8.348s-8.35 3.745-8.35 8.348c0 4.566 3.736 8.28 8.326 8.28 4.616 0 8.372-3.714 8.372-8.28m2 0c0 5.668-4.654 10.28-10.372 10.28-5.693 0-10.325-4.612-10.325-10.28 0-5.707 4.643-10.348 10.349-10.348s10.348 4.64 10.348 10.348m-11.372 6.175h2v-1.552h-2zm.024-3.182h2v-8.46h-2z" fill="#dd344c" fill-rule="evenodd"/></svg>