<svg xmlns="http://www.w3.org/2000/svg" width="18" height="18" viewBox="0 0 18 18"><defs><mask id="a"><path fill="#fff" d="M0 0h18v18H0z"/><path d="m2.9 2.1.74-.85A.53.53 0 0 1 4 1.08h10.88a.52.52 0 0 1 .52.52v13.78a.52.52 0 0 1-.17.39l-1.15 1.05z"/></mask></defs><g fill="currentColor" mask="url(#a)"><path d="M1.93 2.1 3.15.7a.58.58 0 0 1 .44-.2h11.6a.81.81 0 0 1 .88.83v14.5a.6.6 0 0 1-.19.44l-1.3 1.2H2.72l-.8-.34z"/></g><path fill="currentColor" d="M14 2.1H1.95v15a.39.39 0 0 0 .38.39H14a.39.39 0 0 0 .38-.39V2.48A.38.38 0 0 0 14 2.1"/></svg>