<svg viewBox="0 0 128 128" xmlns="http://www.w3.org/2000/svg" xmlns:xlink="http://www.w3.org/1999/xlink"><linearGradient id="a" gradientUnits="userSpaceOnUse" x1="99.32" x2="21.21" y1="119.57" y2="41.21"><stop offset="0" stop-color="#8dc63f" stop-opacity=".2"/><stop offset="1" stop-opacity=".2"/></linearGradient><path d="m0 0h128v128h-128z" fill="#8dc63f"/><path d="m41 128-26.2-21.7 19.8-53.9 19.2 17.9v-50.9h7.9l21 23.5 6.1-5.3 25.1 32.4 2.1-1.5 12 16.1v43.2z" fill="url(#a)"/><path d="m42 19.4h19.7v86.9h-19.7zm27.1 18.2h19.7v68.7h-19.7zm27.2 30.9h19.7v37.8h-19.7zm-81.5-16.1h19.7v53.9h-19.7z" fill="#fff"/><path d="m14.8 100.3 19.8-7.4v13.4h-19.8zm46.9-28.4v34.4h-19.7v-17.2zm7.4 0 19.7 14.5v19.9h-19.7zm27.2 14.3 19.7-7.6v27.7h-19.7z" fill="#d1d1d2"/></svg>