<svg xmlns="http://www.w3.org/2000/svg" viewBox="0 0 128 128">
  <defs>
    <mask id="ko">
      <rect width="128" height="128" fill="white"/>
      <path fill="black" d="m41 128-26.2-21.7 19.8-53.9 19.2 17.9V19.4h7.9l21 23.5 6.1-5.3L113.9 70l2.1-1.5 12 16.1v43.2z"/>
      <path fill="black" d="M42 19.4h19.7v86.9H42zm27.1 18.2h19.7v68.7H69.1zm27.2 30.9H116v37.8H96.3zM14.8 52.4h19.7v53.9H14.8z"/>
      <path fill="black" d="m14.8 100.3 19.8-7.4v13.4H14.8zm46.9-28.4v34.4H42V89.1zm7.4 0 19.7 14.5v19.9H69.1zm27.2 14.3 19.7-7.6v27.7H96.3z"/>
    </mask>
  </defs>
  <g>
    <path fill="currentColor" mask="url(#ko)" d="M0 0h128v128H0z"/>
  </g>
</svg>