<svg height="24" width="24" xmlns="http://www.w3.org/2000/svg"><path d="m0 0h24v24h-24z" fill="none"/><g fill-rule="evenodd"><path d="m5.4 12.7h4v-1.4h-4zm-.8 7.7 6.6-6.6-.9-.9-6.6 6.6zm-.6-15.5 6.6 6.6.9-.9-6.6-6.6zm10.6 7.8h4v-1.4h-4zm-1.8 1.1 6.3 6.2.9-.9-6.2-6.3zm1.7-3.3 5.8-5.9-.9-.9-5.9 5.8z" fill="#3367d6"/><path d="m1.5 22.5h4.5v-4.5h-4.5zm16.5 0h4.5v-4.5h-4.5zm-16.5-16.5h4.5v-4.5h-4.5zm16.5 0h4.5v-4.5h-4.5z" fill="#5c85de"/><path d="m8.2 15.8h7.6v-7.6h-7.6z" fill="#85a4e6"/><path d="m1.5 14.2h4.5v-4.4h-4.5zm16.5 0h4.5v-4.4h-4.5z" fill="#5c85de"/></g></svg>