<svg viewBox="0 0 24 24" xmlns="http://www.w3.org/2000/svg" fill="#F98B2B"><path d="m23.556 14.346-1.194-1.173a.841.841 0 0 1 .604-1.445h.59a.346.346 0 0 0 .349-.343v-.636h-4.935a1.492 1.492 0 0 0 -1.507 1.477v.003c0 .396.16.775.444 1.05l1.201 1.18a.841.841 0 0 1 -.604 1.446h-1.849a1.306 1.306 0 0 1 -1.317-1.294v-2.876h1.135a.346.346 0 0 0 .35-.343v-.636h-1.485v-3.169l-3.866 1.66v1.494h-1.87v-3.618h-2.87a.986.986 0 0 0 -.997.98v2.638h-2.065c-2.156 0-3.67 1.152-3.67 3.069 0 1.71 1.776 3.068 3.676 3.068h4.615a1.306 1.306 0 0 0 1.318-1.294v-3.855h1.863v2.503c0 1.423.874 2.646 2.65 2.646h8.371a1.492 1.492 0 0 0 1.507-1.478v-.003a1.444 1.444 0 0 0 -.444-1.051zm-17.827 1.337a.217.217 0 0 1 -.219.214h-.13c-1.34 0-1.835-.908-1.85-2.088.015-1.216.525-2.088 1.85-2.088h.349z"/></svg>