<svg fill="#222" viewBox="0 0 24 24" xmlns="http://www.w3.org/2000/svg"><path d="m7.451 8.9995a3.0005 3.0005 0 1 0 3.0004 3.0005 3.0275 3.0275 0 0 0 -3.0006-3.0005zm0 5.371a2.3554 2.3554 0 1 1 2.3402-2.3705 2.3704 2.3704 0 0 1 -2.3404 2.3704zm6.448-5.371a3.0005 3.0005 0 1 0 3.0007 3.0005 3.0005 3.0005 0 0 0 -3.0005-3.0005zm0 5.371a2.3554 2.3554 0 1 1 2.3406-2.3705 2.3314 2.3314 0 0 1 -2.3404 2.3704zm-11.609-3.5708a2.0224 2.0224 0 0 0 -1.5903.42v-1.59h2.7005c.09 0 .15-.03.15-.3 0-.2701-.12-.2701-.18-.2701h-2.9705a.27.27 0 0 0 -.27.27v2.6404c0 .15.09.18.24.21a.228.228 0 0 0 .27-.06 1.7073 1.7073 0 0 1 1.5003-.72 1.5603 1.5603 0 0 1 1.3502 1.32 1.5183 1.5183 0 0 1 -1.3202 1.6804h-.18a1.5303 1.5303 0 0 1 -1.4103-.9901c-.03-.09-.09-.15-.33-.06-.2401.09-.2701.15-.2401.24a2.1274 2.1274 0 0 0 2.7005 1.2602 2.1274 2.1274 0 0 0 1.2602-2.7005 2.1004 2.1004 0 0 0 -1.6803-1.3502zm16.65-1.7703a1.6263 1.6263 0 0 0 -1.4403 1.6203v2.6704c0 .15.12.18.3.18s.3001-.03.3001-.18v-2.6704a1.0082 1.0082 0 0 1 .8702-1.0202.9872.9872 0 0 1 .7501.24.9572.9572 0 0 1 .33.7202 1.2002 1.2002 0 0 1 -.21.57.9452.9452 0 0 1 -.8401.3903c-.12 0-.21 0-.24.27 0 .1801 0 .2701.15.3001a1.4763 1.4763 0 0 0 .8701-.18 1.6113 1.6113 0 0 0 .8702-1.2602 1.5543 1.5543 0 0 0 -1.4463-1.6803.8311.8311 0 0 1 -.264.03zm3.9307 1.5602 1.0802-1.0801c.03-.03.12-.12-.06-.3301a.3.3 0 0 0 -.2101-.12.156.156 0 0 0 -.12.06l-1.0802 1.0802-1.0802-1.1102c-.09-.09-.18-.06-.33.06s-.15.24-.06.33l1.0801 1.0802-1.0862 1.1102a.228.228 0 0 0 -.06.12.252.252 0 0 0 .12.2101.483.483 0 0 0 .21.12.318.318 0 0 0 .1501-.06l1.0802-1.0802 1.0802 1.0802a.156.156 0 0 0 .12.06.3.3 0 0 0 .21-.12c.09-.12.12-.24.03-.3z"/></svg>