<svg xmlns="http://www.w3.org/2000/svg" width="347" height="277" fill="none" viewBox="0 0 347 277"><clipPath id="a"><path d="M0 0h346.66v276.59H0z"/></clipPath><g fill="currentColor" clip-path="url(#a)"><path d="m259.28 77.74-41.84-62.03-35.81 62.03-3.13 5.42-35.38 61.28-1.9 3.3-.64 1.1-36.4 63.04 3.92 5.81 12.54 18.6 27.09 40.16.41-.71 35.99-62.33 2.54-4.4 35.37-61.27.01-.02 38.94-67.44z"/><path d="m165.96 64.56-7.61 13.18-27.77 48.11-12.64 21.89-26.3 45.55-48.09 83.3L18.6 239.6 0 212.02l37.11-64.28 10.98-19.01 29.44-50.99 9.5-16.46L122.41 0z" opacity=".7"/><path d="m346.66 207.3-38.93 67.44-.58 1h-80.83l2.47-4.28 35.39-61.29 36.04-62.43h6.27z"/><path d="M300.22 147.74h-78.16l42.12 62.43 43.55 64.57 38.93-67.44-40.17-59.56z"/></g></svg>