<svg xmlns="http://www.w3.org/2000/svg" fill="currentColor" viewBox="0 0 24 24"><path fill="currentColor" d="M19.848 7.848c-.992 0-1.902.348-2.616.928-.714-.58-1.624-.928-2.616-.928s-1.902.348-2.616.928c-.714-.58-1.624-.928-2.616-.928s-1.902.348-2.616.928a4.152 4.152 0 1 0 0 6.448c.714.58 1.624.928 2.616.928s1.902-.348 2.616-.928c.714.58 1.624.928 2.616.928s1.902-.348 2.616-.928a4.152 4.152 0 1 0 2.616-7.376m-2.616 6.018c-.376-.526-.598-1.17-.598-1.866s.222-1.34.598-1.866c.376.526.598 1.17.598 1.866s-.222 1.34-.598 1.866m-5.232 0c-.376-.526-.598-1.17-.598-1.866s.222-1.34.598-1.866c.376.526.598 1.17.598 1.866s-.222 1.34-.598 1.866m-5.232 0c-.376-.526-.598-1.17-.598-1.866s.222-1.34.598-1.866c.376.526.598 1.17.598 1.866s-.222 1.34-.598 1.866M.938 12a3.214 3.214 0 0 1 5.17-2.549c-.548.703-.876 1.588-.876 2.549s.328 1.846.876 2.549A3.214 3.214 0 0 1 .938 12m6.49 2.549c.548-.703.876-1.588.876-2.549s-.328-1.846-.876-2.549c.542-.416 1.22-.665 1.956-.665s1.414.248 1.956.665c-.549.704-.876 1.588-.876 2.549s.328 1.846.876 2.549c-.542.416-1.22.665-1.956.665s-1.414-.248-1.956-.665m5.232 0c.549-.704.876-1.588.876-2.549s-.328-1.846-.876-2.55c.542-.416 1.22-.665 1.956-.665s1.414.248 1.956.665c-.549.704-.876 1.588-.876 2.549s.328 1.846.876 2.549a3.2 3.2 0 0 1-1.956.665 3.2 3.2 0 0 1-1.956-.664m7.188.665a3.2 3.2 0 0 1-1.956-.665c.548-.704.876-1.588.876-2.549s-.328-1.846-.876-2.549a3.214 3.214 0 1 1 1.956 5.763"/></svg>