<svg height="18" viewBox="0 0 18 18" width="18" xmlns="http://www.w3.org/2000/svg" xmlns:xlink="http://www.w3.org/1999/xlink"><linearGradient id="a"><stop offset="0" stop-color="#ccc"/><stop offset=".123" stop-color="#d7d7d7"/><stop offset="1" stop-color="#fcfcfc"/></linearGradient><linearGradient id="b" gradientUnits="userSpaceOnUse" x1="3.459" x2="3.431" xlink:href="#a" y1="9.738" y2="6.226"/><linearGradient id="c" gradientUnits="userSpaceOnUse" x1="8.547" x2="8.547" xlink:href="#a" y1="13.251" y2="10.102"/><linearGradient id="d" gradientUnits="userSpaceOnUse" x1="13.196" x2="13.296" y1="8.878" y2="18.078"><stop offset="0" stop-color="#32d4f5"/><stop offset=".321" stop-color="#31d1f3"/><stop offset="1" stop-color="#198ab3"/></linearGradient><radialGradient id="e" cx="7.5384" cy="7.53145" gradientUnits="userSpaceOnUse" r="7.54005"><stop offset=".183" stop-color="#5ea0ef"/><stop offset="1" stop-color="#0078d4"/></radialGradient><path d="m12.161 13.492a7.54 7.54 0 1 1 -9.241-11.916l.08-.059a7.54 7.54 0 0 1 9.165 11.975" fill="url(#e)"/><path d="m5.491 5.965a11.54 11.54 0 0 1 7.909-3.177 7.5 7.5 0 0 0 -1.319-1.281 12.8 12.8 0 0 0 -4.164.982 11 11 0 0 0 -3.617 2.497 2.44 2.44 0 0 1 1.191.979m-3.734 3.029a17 17 0 0 0 -.741 2.327 8 8 0 0 0 .552.818 7 7 0 0 0 .491.574 16 16 0 0 1 .961-3.077 2.42 2.42 0 0 1 -1.263-.642" fill="#fff" opacity=".6"/><path d="m2.626 4.97a10.6 10.6 0 0 1 -.611-2.612 7.5 7.5 0 0 0 -.977 1.293 11.7 11.7 0 0 0 .5 2.1 2.43 2.43 0 0 1 1.088-.781" fill="#f2f2f2" opacity=".55"/><circle cx="3.439" cy="7.251" fill="url(#b)" r="2.424"/><path d="m6.972 11.677a1.57 1.57 0 0 1 .476-1.126 10.7 10.7 0 0 1 -2.24-1.651 2.4 2.4 0 0 1 -1.324.728 10.5 10.5 0 0 0 1.287 1.14 11 11 0 0 0 1.816 1.107 2 2 0 0 1 -.015-.198m5.587.187a10.6 10.6 0 0 1 -2.442-.284v.1a1.57 1.57 0 0 1 -.448 1.1 12.2 12.2 0 0 0 3.026.216 7.5 7.5 0 0 0 1.025-1.196 11 11 0 0 1 -1.161.064" fill="#f2f2f2" opacity=".55"/><circle cx="8.547" cy="11.677" fill="url(#c)" r="1.575"/><path d="m10.484 7.469a1.63 1.63 0 0 1 .543-.876 22.4 22.4 0 0 1 -3.959-3.681 15 15 0 0 1 -1.76-2.591 7.4 7.4 0 0 0 -.966.371 15.8 15.8 0 0 0 1.894 2.827 23.4 23.4 0 0 0 4.248 3.95" fill="#f2f2f2" opacity=".7"/><circle cx="12.136" cy="7.772" fill="#fff" r="1.672"/><path d="m14.944 8.9-.284-.15-.027-.015-.263-.142-.048-.027q-.12-.065-.237-.131l-.058-.035-.28-.159a1.6 1.6 0 0 1 -.564.82l.332.19.075.042.308.171.03.017c.249.136.5.27.765.4a7 7 0 0 0 .251-.988z" fill="#f2f2f2" opacity=".55"/><circle cx="3.439" cy="7.251" fill="#fff" r="2.424"/><circle cx="8.547" cy="11.677" fill="#fff" r="1.575"/><path d="m17.654 18.006h-8.727c-.278 0-.442-.444-.285-.673l3.008-4.384a.35.35 0 0 0 .061-.2v-2.9a.173.173 0 0 0 -.173-.172h-.162a.346.346 0 0 1 -.345-.345v-.149a.346.346 0 0 1 .345-.346h3.824a.346.346 0 0 1 .345.346v.156a.346.346 0 0 1 -.345.345h-.162a.17.17 0 0 0 -.172.172v2.9a.35.35 0 0 0 .06.2l3.009 4.377c.165.229-.003.673-.281.673" fill="url(#d)"/><path d="m9.932 16.835 2.285-3.335a.83.83 0 0 0 .147-.472v-1.338a.265.265 0 0 1 .265-.265h1.3a.264.264 0 0 1 .265.265v1.433a.56.56 0 0 0 .1.318l2.334 3.394a.2.2 0 0 1 -.165.312h-6.363a.2.2 0 0 1 -.168-.312" fill="#fff"/><path d="m10.615 15.839a4.27 4.27 0 0 1 3.832-.434s.836.468 1.134-.087l1.079 1.5a.289.289 0 0 1 -.234.457h-6.32a.289.289 0 0 1 -.23-.463z" fill="#3cd4c2"/></svg>