<svg xmlns="http://www.w3.org/2000/svg" width="24" height="24"><path fill="currentColor" d="M8 2h8v2H8zm8.54 5.43-.13.13L18 9.16l.12-.16a8 8 0 0 0-1.58-1.57m4.07-.88-1.6-1.6-2.41 2.41 2.51.69z"/><path fill="currentColor" d="m16.6 7.36-.06.07A8 8 0 0 1 18.12 9l1-1z"/><circle cx="12" cy="14" r="4" fill="currentColor"/><path fill="currentColor" d="M12 18a4 4 0 1 0 0-8v4l-3.27 2.32A4 4 0 0 0 12 18"/><path fill="currentColor" d="M12 22a8 8 0 1 1 8-8 8 8 0 0 1-8 8m0-2a6 6 0 1 0-6-6 6 6 0 0 0 6 6"/></svg>