<svg xmlns="http://www.w3.org/2000/svg" width="74" height="74" viewBox="0 0 74 74"><title>Icon-Architecture-Category/48/Compute_48</title><g id="Icon-Architecture-Category/48/Compute_48" fill="none" fill-rule="evenodd" stroke="none" stroke-width="1"><path id="Rectangle" fill="#ed7100" d="M5 5h64v64H5z"/><path id="#879196-Border-Copy-6" stroke="#879196" stroke-width="2" d="M1 1h72v72H1z"/><g id="Icon-Category/48/Compute_48" fill="#fff" transform="translate(15 15)"><path id="Fill-1" d="M14 14.125c0-.069.056-.125.125-.125h15.75c.069 0 .125.056.125.125v15.75a.125.125 0 0 1-.125.125h-15.75a.125.125 0 0 1-.125-.125zM14.125 32h15.75A2.127 2.127 0 0 0 32 29.875v-15.75A2.127 2.127 0 0 0 29.875 12h-15.75A2.127 2.127 0 0 0 12 14.125v15.75c0 1.172.953 2.125 2.125 2.125M7 37h30V7H7zM39 6a1 1 0 0 0-1-1h-3V0h-2v5h-4V0h-2v5h-4V0h-2v5h-4V0h-2v5h-4V0H9v5H6a1 1 0 0 0-1 1v3H0v2h5v4H0v2h5v4H0v2h5v4H0v2h5v4H0v2h5v3a1 1 0 0 0 1 1h3v5h2v-5h4v5h2v-5h4v5h2v-5h4v5h2v-5h4v5h2v-5h3a1 1 0 0 0 1-1v-3h5v-2h-5v-4h5v-2h-5v-4h5v-2h-5v-4h5v-2h-5v-4h5V9h-5z"/></g></g></svg>