<svg height="74" viewBox="0 0 74 74" width="74" xmlns="http://www.w3.org/2000/svg"><g fill="none" fill-rule="evenodd"><path d="m5 5h64v64h-64z" fill="#ed7100"/><path d="m1 1h72v72h-72z" stroke="#879196" stroke-width="2"/><path d="m14 14.125c0-.069.056-.125.125-.125h15.75c.069 0 .125.056.125.125v15.75a.125.125 0 0 1 -.125.125h-15.75a.125.125 0 0 1 -.125-.125zm.125 17.875h15.75a2.127 2.127 0 0 0 2.125-2.125v-15.75a2.127 2.127 0 0 0 -2.125-2.125h-15.75a2.127 2.127 0 0 0 -2.125 2.125v15.75c0 1.172.953 2.125 2.125 2.125m-7.125 5h30v-30h-30zm32-31a1 1 0 0 0 -1-1h-3v-5h-2v5h-4v-5h-2v5h-4v-5h-2v5h-4v-5h-2v5h-4v-5h-2v5h-3a1 1 0 0 0 -1 1v3h-5v2h5v4h-5v2h5v4h-5v2h5v4h-5v2h5v4h-5v2h5v3a1 1 0 0 0 1 1h3v5h2v-5h4v5h2v-5h4v5h2v-5h4v5h2v-5h4v5h2v-5h3a1 1 0 0 0 1-1v-3h5v-2h-5v-4h5v-2h-5v-4h5v-2h-5v-4h5v-2h-5v-4h5v-2h-5z" fill="#fff" transform="translate(15 15)"/></g></svg>