<svg viewBox="0 0 24 24" xmlns="http://www.w3.org/2000/svg"><path clip-rule="evenodd" d="m15.509 6.023a3.975 3.975 0 0 1 4.49 2.442 5.34 5.34 0 0 1 4.001 5.188c-.001 2.952-2.377 5.347-5.311 5.347a5.31 5.31 0 0 1 -4.903-3.303 5.2 5.2 0 0 1 -.399-1.907h-1.343a.105.105 0 0 1 -.074-.18l2.733-2.752a.13.13 0 0 1 .185 0l2.734 2.754c.065.066.019.18-.074.18l-1.42-.001c.047.338.152.673.325.99a2.844 2.844 0 0 0 3.954 1.09c1.218-.723 1.732-2.29 1.177-3.6a2.855 2.855 0 0 0 -3.386-1.65 2.03 2.03 0 0 0 -.935-2.366 2 2 0 0 0 -2.492.431c-.68-1.629-2.363-2.68-4.19-2.463-1.974.234-3.442 1.87-3.553 3.802a3.18 3.18 0 0 0 -3.279.135 3.25 3.25 0 0 0 -1.336 3.588 3.214 3.214 0 0 0 3.093 2.356l7.153.003c.055 0 .104.033.125.083a6.5 6.5 0 0 0 1.418 2.088c.053.053.018.142-.056.142l-8.637-.003h-.006c-3.04-.001-5.504-2.487-5.503-5.549.001-3.065 2.468-5.546 5.507-5.544h.008a6.14 6.14 0 0 1 5.449-3.324c1.801 0 3.421.781 4.545 2.023" fill="#df0428" fill-rule="evenodd"/></svg>