<svg height="74" viewBox="0 0 74 74" width="74" xmlns="http://www.w3.org/2000/svg"><g fill="none" fill-rule="evenodd"><path d="m5 5h64v64h-64z" fill="#ed7100"/><path d="m1 1h72v72h-72z" stroke="#879196" stroke-width="2"/><path d="m42 12h-9.676a1 1 0 0 1 -.324-.11v-3.89h-5v4h-9.676a1 1 0 0 1 -.324-.11v-3.89h-5v3.89a1 1 0 0 1 -.319.11h-9.681v-10h9.818a.5.5 0 0 1 .182.072v3.928h5v-3.928a.6.6 0 0 1 .171-.072h9.829v4h5v-3.928a.6.6 0 0 1 .171-.072h9.829zm.167-12h-9.996c-.906 0-2.171.72-2.171 1.893v2.107h-1v-2.107c0-1.044-.822-1.893-1.833-1.893h-9.996c-.906 0-2.171.72-2.171 1.893v2.107h-1v-2.107c0-1.173-1.265-1.893-2.171-1.893h-9.996c-1.011 0-1.833.849-1.833 1.893v10.25c0 1.024.819 1.857 1.827 1.857h9.854c.809 0 2.319-.638 2.319-1.857v-2.143h1v2.143c0 1.219 1.51 1.857 2.319 1.857h9.854c1.008 0 1.827-.833 1.827-1.857v-2.143h1v2.143c0 1.219 1.51 1.857 2.319 1.857h9.854c1.008 0 1.827-.833 1.827-1.857v-10.25c0-1.044-.822-1.893-1.833-1.893m-7.167 9h4v-4h-4zm-.226 2h4.452c.978 0 1.774-.796 1.774-1.774v-4.452c0-.978-.796-1.774-1.774-1.774h-4.452c-.978 0-1.774.796-1.774 1.774v4.452c0 .978.796 1.774 1.774 1.774m-14.774-2h4v-4h-4zm4.226-6h-4.452c-.978 0-1.774.796-1.774 1.774v4.452c0 .978.796 1.774 1.774 1.774h4.452c.978 0 1.774-.796 1.774-1.774v-4.452c0-.978-.796-1.774-1.774-1.774m-19.226 6h4v-4h-4zm4.226-6h-4.452c-.978 0-1.774.796-1.774 1.774v4.452c0 .978.796 1.774 1.774 1.774h4.452c.978 0 1.774-.796 1.774-1.774v-4.452c0-.978-.796-1.774-1.774-1.774" fill="#fff" transform="translate(15 30)"/></g></svg>