<svg height="18" viewBox="0 0 18 18" width="18" xmlns="http://www.w3.org/2000/svg" xmlns:xlink="http://www.w3.org/1999/xlink"><linearGradient id="a" gradientTransform="matrix(.99250782 .12218115 -.12218115 .99250782 1.479046 -1.900006)" gradientUnits="userSpaceOnUse" x1="14.284" x2="18.173" y1="11.106" y2="11.106"><stop offset="0" stop-color="#3cd4c2"/><stop offset="1" stop-color="#258277"/></linearGradient><linearGradient id="b"><stop offset="0" stop-color="#5ea0ef"/><stop offset="1" stop-color="#0078d4"/></linearGradient><linearGradient id="c" gradientUnits="userSpaceOnUse" x1="3.807" x2="13.752" xlink:href="#b" y1="9.022" y2="9.022"/><linearGradient id="d" gradientUnits="userSpaceOnUse" x1="7.055" x2="10.945" y1="2.02" y2="2.02"><stop offset="0" stop-color="#a67af4"/><stop offset="1" stop-color="#773adc"/></linearGradient><linearGradient id="e" gradientUnits="userSpaceOnUse" x1=".125" x2="3.418" xlink:href="#b" y1="11.106" y2="11.106"/><circle cx="16.229" cy="11.106" fill="url(#a)" r="1.646" transform="matrix(.99250782 -.12218115 .12218115 .99250782 -1.234994 2.065941)"/><path d="m12.043 6.736.046.048c.031.032.08.033.115.006l.455-.371.844-1.333a.08.08 0 0 0 -.011-.104l-.126-.13a.084.084 0 0 0 -.108-.012l-1.299.836-.37.464a.084.084 0 0 0 .005.111l.048.05-2.714 2.705-.54-.579-.621.622a1.1 1.1 0 0 1 -.3.872.96.96 0 0 1 -.839.29l-2.638 2.61a.17.17 0 0 0 -.004.236l1.248 1.342a.17.17 0 0 0 .24.008l.004-.004 2.61-2.621a1.04 1.04 0 0 1 .321-.872.96.96 0 0 1 .839-.29l.621-.622-.54-.575 2.714-2.688-.002.002z" fill="#9b9c9c"/><path d="m13.431 12.201-.685-.677-4.368-4.353-.217-.226a2.4 2.4 0 0 0 -.6-2.337 2.21 2.21 0 0 0 -2.008-.606.09.09 0 0 0 -.07.106.1.1 0 0 0 .026.046l1.144 1.12a.1.1 0 0 1 .025.085l-.277 1.178a.09.09 0 0 1 -.063.065l-1.141.338a.1.1 0 0 1 -.09-.022l-1.119-1.114a.09.09 0 0 0 -.153.049 2.36 2.36 0 0 0 .656 2.042 2.18 2.18 0 0 0 2.192.543l.043.042.245.245 5.007 5.052c.39.402 1.031.413 1.435.023l.048-.05c.196-.212.302-.493.288-.782a1.16 1.16 0 0 0 -.316-.771l-.004.004z" fill="url(#c)"/><circle cx="9" cy="2.02" fill="url(#d)" r="1.646"/><path d="m2.975 12.228.035-.038.056-.067.037-.049q.025-.032.046-.066a2 2 0 0 0 .085-.146 2 2 0 0 0 .049-.102l.021-.054.032-.087.017-.057q.013-.045.023-.091l.012-.057.016-.102q.004-.025.006-.05.008-.076.008-.156a1.646 1.646 0 0 0 -1.835-1.634l-.01.002q-.09.011-.176.031a1.641 1.641 0 0 0 -.966.649v.001q-.046.064-.085.133l-.005.008a2 2 0 0 0 -.067.133l-.008.017a2 2 0 0 0 -.05.13l-.01.028a2 2 0 0 0 -.034.126l-.01.038a1 1 0 0 0 -.02.127q-.004.02-.006.041a1.6 1.6 0 0 0 -.001.329l.007.051a1 1 0 0 0 .016.102l.013.059a1 1 0 0 0 .042.15 2 2 0 0 0 .089.215l.031.062.02.032q.05.085.109.163l.025.034q.032.04.066.077l.026.028q.037.039.076.075l.021.019q.043.039.089.075l.006.004a1.64 1.64 0 0 0 1.569.242l.017-.006q.056-.02.11-.046l.016-.008a1.7 1.7 0 0 0 .404-.273l.025-.023q.035-.033.066-.068z" fill="url(#e)"/><path d="m6.76 1.97c.007-.304.074-.592.19-.855-3.616.913-6.304 4.181-6.331 8.071a2.2 2.2 0 0 1 .779-.289c.147-3.265 2.36-6.001 5.361-6.928zm8.727 11.251c-1.341 2.178-3.746 3.633-6.486 3.633s-5.145-1.456-6.486-3.634a2.2 2.2 0 0 1 -.744.129q-.038-.001-.077-.004c1.439 2.552 4.174 4.281 7.307 4.281s5.868-1.729 7.307-4.281c-.027 0-.053.004-.08.004a2.2 2.2 0 0 1 -.742-.129zm-4.437-12.107c.117.263.183.551.19.855 3.002.926 5.217 3.663 5.364 6.929.281.048.544.148.779.29-.026-3.891-2.715-7.161-6.333-8.074" fill="#9b9c9c"/></svg>