<svg viewBox="0 0 24 24" xmlns="http://www.w3.org/2000/svg"><path d="m6.343 22.613-.215.296-.71-.53c.537-.748 1.083-1.49 1.625-2.234l.714.524-.23.316c1.463.756 5.591 2.365 10.08-.58.39.537.787 1.069 1.168 1.612-3.615 2.601-8.475 2.475-12.432.596m11.787-3.23.717-.521.24.312c.282-.283.35-.361.636-.7q-1.759-4.953-3.515-9.907l-3.548 9.909-2.437-.004 4.874-12.883h2.214c1.106 2.918 3.893 10.346 3.918 10.384 1.022-2.58.863-4.515.415-6.323a57 57 0 0 1 1.909-.55c1.467 5.635-1.172 9.58-3.285 11.703.068.103.144.2.217.3-.04.039-.681.51-.72.522-.537-.753-1.104-1.486-1.635-2.243m-17.763-9.315c-.111-.04-.23-.07-.344-.104.08-.282.156-.566.244-.846l2.645.749-.238.852-.38-.1c-.559 2.484.314 6.713 3.629 9.342l-1.169 1.614c-4.912-3.703-4.74-9.15-4.387-11.506m13.47 6.278c.213-.204.415-.418.633-.616l.95.973.01-4.48c.31-.893 1.368-.697 1.494.086l.006 4.395.979-.973q.314.305.627.612c-.79.792-1.584 1.578-2.377 2.366q-1.16-1.183-2.322-2.363m-7.87-2.923h2.29v5.053h-2.29zm-.116-1.97 2.686.006c.996.277.717 1.419-.094 1.519l-2.652-.002c-.996-.196-.98-1.422.06-1.523m.116-3.84h-2.687c-.197.37-.358.76-.51 1.151l-1.913-.553v-.002c.94-2.49 3.49-6.98 9.811-7.823v-.386h.887v2.772h-.887v-.387c-1.093-.023-4.437 1.307-5.846 3.055l7.069-.01q-.007 1.09.012 2.181h-3.633c-.014 1.13-.012 2.261-.012 3.392h-2.29zm14.624.344c.174-.061.344-.095.365-.109-2.229-4.442-6.613-5.55-8.378-5.555v-1.996c7.008.367 9.871 6.025 10.313 7 .123-.04.247-.071.37-.107.092.28.168.566.249.85a561 561 0 0 1 -2.684.763z"/></svg>