<svg viewBox="0 0 24 24" xmlns="http://www.w3.org/2000/svg" fill="#FDC300"><path d="m12-.0002c-6.6273 0-12 5.3728-12 11.9997 0 6.627 5.3727 12.0007 12 12.0007s12-5.3728 12-12.0007-5.373-11.9997-12-11.9997zm0 20.987c-4.9632 0-8.987-4.0231-8.987-8.9866s4.0238-8.9867 8.987-8.9867 8.987 4.0235 8.987 8.9867c0 4.9631-4.0238 8.9867-8.987 8.9867zm5.1043-3.0031.7995-2.9975h-7.1631l2.7655-10.4912h-2.9978l-3.5966 13.4887zm.2896-10.4938c0 .8225-.6697 1.4938-1.4938 1.4938s-1.4897-.6716-1.4897-1.4938c0-.8223.6675-1.4907 1.4897-1.4907s1.4938.6688 1.4938 1.4907"/></svg>