<svg viewBox="0 0 24 24" xmlns="http://www.w3.org/2000/svg"><path d="m5.41 22.03c-1.72-1.24-2.63-2.15-3.49-3.46a12.185 12.185 0 0 1 -1.92-6.54c0-6.65 5.36-12.03 12-12.03s12 5.38 12 12c0 2.73-.93 5.46-2.58 7.48-.68.86-1.26 1.36-2.83 2.55v-7.02h1.19v4.8c.88-1.04 1.31-1.67 1.74-2.43.88-1.57 1.36-3.51 1.36-5.38 0-6.06-4.88-10.99-10.89-10.99s-10.88 4.93-10.88 11.07c0 2.8.99 5.28 3.08 7.73v-4.8h1.21v7.02zm2.37 1.21c-.23-.05-.76-.3-1.19-.53v-7.71h1.19zm7.23-16.92-3.01-2.32-3.01 2.32-.66-.86 3.66-2.86 3.66 2.86-.66.86zm-4.83 17.56c-.43-.08-.45-.08-.61-.13-.13-.02-.18-.02-.58-.13v-16.42h1.19v16.67zm2.4.1c-.18.02-.23.02-.48.02-.38 0-.51 0-.71-.02v-16.78h1.19zm2.4-.38c-.38.13-.71.2-1.19.3v-16.7h1.19zm2.43-.88c-.38.18-.61.28-1.21.56v-8.27h1.21z"/></svg>