<svg viewBox="0 0 24 24" xmlns="http://www.w3.org/2000/svg" fill="#171920"><path d="m9.825 17.527a.111.111 0 0 1 -.107-.142l3.05-10.837a.111.111 0 0 1 .108-.081h1.324c.074 0 .127.07.107.141l-3.063 10.838a.111.111 0 0 1 -.107.08h-1.312zm-2.146-2.732a.11.11 0 0 1 -.079-.033l-2.667-2.704a.111.111 0 0 1 0-.156l2.667-2.691a.111.111 0 0 1 .08-.033h1.702c.1 0 .149.12.079.19l-2.534 2.534a.111.111 0 0 0 0 .157l2.535 2.546c.07.07.02.19-.079.19h-1.703zm6.954 0a.111.111 0 0 1 -.079-.19l2.525-2.546a.111.111 0 0 0 0-.157l-2.524-2.535a.111.111 0 0 1 .079-.19h1.692c.03 0 .058.013.078.034l2.68 2.69a.111.111 0 0 1 0 .157l-2.68 2.704a.111.111 0 0 1 -.078.033zm-2.633 9.205c-6.617 0-12-5.383-12-12s5.383-12 12-12 12 5.383 12 12-5.383 12-12 12zm0-22.667c-5.882 0-10.667 4.785-10.667 10.667s4.785 10.667 10.667 10.667 10.667-4.785 10.667-10.667-4.785-10.667-10.667-10.667z"/></svg>