<svg xmlns="http://www.w3.org/2000/svg" width="192" height="192" fill="none" viewBox="0 0 192 192"><path fill="currentColor" d="M32 36.8C32 20.894 44.894 8 60.8 8h70.4C147.106 8 160 20.894 160 36.8v30.4c0 15.906-12.894 28.8-28.8 28.8H60.8C44.894 96 32 83.106 32 67.2z"/><path fill="currentColor" d="M19.867 49.392C17.818 33.82 29.94 20 45.645 20h100.71c15.706 0 27.827 13.82 25.778 29.392L166 96l6.133 46.608C174.182 158.18 162.061 172 146.355 172H45.645c-15.706 0-27.827-13.82-25.778-29.392L26 96z"/><mask id="a" width="154" height="152" x="19" y="20" maskUnits="userSpaceOnUse" style="mask-type:alpha"><path fill="currentColor" d="M19.867 49.392C17.818 33.82 29.94 20 45.645 20h100.71c15.706 0 27.827 13.82 25.778 29.392L166 96l6.133 46.608C174.182 158.18 162.061 172 146.355 172H45.645c-15.706 0-27.827-13.82-25.778-29.392L26 96z"/></mask><g mask="url(#a)"><path fill="currentColor" d="M0 0h166v76H0z" transform="matrix(1 0 0 -1 13 172)"/></g><mask id="c" width="154" height="152" x="19" y="20" maskUnits="userSpaceOnUse" style="mask-type:alpha"><path fill="currentColor" d="M19.867 49.392C17.818 33.82 29.94 20 45.645 20h100.71c15.706 0 27.827 13.82 25.778 29.392L166 96l6.133 46.608C174.182 158.18 162.061 172 146.355 172H45.645c-15.706 0-27.827-13.82-25.778-29.392L26 96z"/></mask><g mask="url(#c)"><path fill="currentColor" d="M32 27.2C32 16.596 40.596 8 51.2 8h89.6c10.604 0 19.2 8.596 19.2 19.2V96H32z" filter="url(#e)"/></g><defs><linearGradient id="b" x1="83" x2="83" y1="76" gradientUnits="userSpaceOnUse"><stop stop-color="#4fa0ff"/><stop offset="1" stop-color="#3186ff"/></linearGradient><linearGradient id="d" x1="89.06" x2="89.06" y1="21.75" y2="96.39" gradientUnits="userSpaceOnUse"><stop stop-color="#a9a8ff"/><stop offset=".8" stop-color="#3c90ff"/></linearGradient><filter id="e" width="152" height="112" x="20" y="-4" color-interpolation-filters="sRGB" filterUnits="userSpaceOnUse"><feFlood flood-opacity="0" result="BackgroundImageFix"/><feBlend in="SourceGraphic" in2="BackgroundImageFix" result="shape"/><feGaussianBlur result="effect1_foregroundBlur_37330_7673" stdDeviation="6"/></filter></defs></svg>