<svg height="18" viewBox="0 0 18 18" width="18" xmlns="http://www.w3.org/2000/svg" xmlns:xlink="http://www.w3.org/1999/xlink"><linearGradient id="a" gradientUnits="userSpaceOnUse" x1="11.13" x2="11.13" y1="10.95" y2="1.21"><stop offset="0" stop-color="#0078d4"/><stop offset=".16" stop-color="#1380da"/><stop offset=".53" stop-color="#3c91e5"/><stop offset=".82" stop-color="#559cec"/><stop offset="1" stop-color="#5ea0ef"/></linearGradient><linearGradient id="b" gradientUnits="userSpaceOnUse" x1="7.06" x2="7.06" y1="16.79" y2="6.78"><stop offset="0" stop-color="#198ab3"/><stop offset=".13" stop-color="#21a0c7"/><stop offset=".31" stop-color="#28b7db"/><stop offset=".5" stop-color="#2ec7ea"/><stop offset=".72" stop-color="#31d1f2"/><stop offset="1" stop-color="#32d4f5"/></linearGradient><path d="m18 7.9a3.09 3.09 0 0 0 -2.68-3 3.89 3.89 0 0 0 -4-3.72 4 4 0 0 0 -3.82 2.63 3.68 3.68 0 0 0 -3.24 3.55 3.74 3.74 0 0 0 3.87 3.64h6.77a3.13 3.13 0 0 0 3.1-3.1" fill="url(#a)"/><path d="m14.39 5.22-1.83-1.78c-.2-.2-.37-.13-.37.18v.8a.22.22 0 0 1 -.23.22c-1.18 0-4.47.31-4.59 4.81a.23.23 0 0 0 .23.23h1.17a.23.23 0 0 0 .23-.25 2.76 2.76 0 0 1 3-3.33.23.23 0 0 1 .23.23v.74c0 .37.12.43.37.18l1.79-1.65a.23.23 0 0 0 0-.38" fill="#fff"/><path d="m14.12 13.66a3.17 3.17 0 0 0 -2.75-3.05 4 4 0 0 0 -4.12-3.83 4.1 4.1 0 0 0 -3.92 2.68 3.78 3.78 0 0 0 -3.33 3.64 3.84 3.84 0 0 0 4 3.69h6.78a.5.5 0 0 0 .17 0 3.21 3.21 0 0 0 3.17-3.13" fill="url(#b)"/></svg>