<svg xmlns="http://www.w3.org/2000/svg" width="24" height="24">
  <defs>
    <mask id="wko">
      <rect width="24" height="24" fill="white"/>
      <circle cx="10" cy="12" r="1" fill="black"/>
      <path fill="black" d="M0 0h8v1H0z"/>
    </mask>
  </defs>
  <g fill="currentColor" mask="url(#wko)">
    <path fill="currentColor" d="M20 4H7.7a1.12 1.12 0 0 0-1 .63L3 12h2l3-6h11v1h2V5a1 1 0 0 0-1-1"/>
    <circle cx="10" cy="12" r="3" fill="currentColor"/>
  </g>
  <path fill="currentColor" d="M19 17v1H8l-2-4H4l2.69 5.37a1.12 1.12 0 0 0 1 .63H20a1 1 0 0 0 1-1v-2z"/>
</svg>