<svg height="24" width="24" xmlns="http://www.w3.org/2000/svg"><path d="m20 4h-12.3a1.12 1.12 0 0 0 -1 .63l-3.7 7.37h2l3-6h11v1h2v-2a1 1 0 0 0 -1-1" fill="#a6cafd"/><circle cx="10" cy="12" fill="#559cfc" r="3"/><circle cx="10" cy="12" fill="#fff" r="1"/><path d="m0 0h8v1h-8z" fill="#fff"/><g fill="#669df6"><rect height="2" rx="1" width="5" x="17" y="8"/><rect height="2" rx="1" width="8" x="14" y="11"/><rect height="2" rx="1" width="5" x="17" y="14"/></g><path d="m19 17v1h-11l-2-4h-2l2.69 5.37a1.12 1.12 0 0 0 1 .63h12.31a1 1 0 0 0 1-1v-2z" fill="#a6cafd"/><path d="m10 12h-8" fill="none" stroke="#2683fb" stroke-miterlimit="10"/></svg>