<svg xmlns="http://www.w3.org/2000/svg" fill="currentColor" fill-rule="evenodd" viewBox="0 0 24 24"><path fill="currentColor" d="m6.47 17-.367-1.189H2.718L2.35 17H0l3.398-9.789h2.026L8.864 17zm-2.052-6.993-1.17 4.028H5.56zm4.707-2.796h2.23V17h-2.23zM11.955 15c.1-.483.277-.946.524-1.37.214-.359.482-.68.795-.951q.48-.41 1.013-.741.42-.253.781-.483a5 5 0 0 0 .632-.468q.26-.223.428-.525c.107-.199.16-.423.157-.65q0-.588-.313-.846a1.18 1.18 0 0 0-.775-.259 1.2 1.2 0 0 0-.863.329q-.347.329-.347 1.098H11.8a3.4 3.4 0 0 1 .224-1.245 2.75 2.75 0 0 1 .66-.993c.306-.29.667-.514 1.06-.657A4 4 0 0 1 15.183 7c.42-.002.84.057 1.244.175.376.107.73.287 1.04.531.305.246.55.562.714.923.185.419.275.875.265 1.335.005.39-.084.774-.259 1.12-.167.328-.38.63-.632.894q-.37.388-.808.693-.436.3-.789.51-.49.336-.809.58a4 4 0 0 0-.51.455 1.2 1.2 0 0 0-.265.434 1.6 1.6 0 0 0-.074.517h4.078V17h-6.606a9.2 9.2 0 0 1 .183-2M18.8 8.93a5 5 0 0 0 1.135-.105c.25-.049.484-.156.686-.314.163-.139.28-.324.34-.532.068-.25.1-.51.095-.77H23V17h-2.243v-6.475H18.8z"/></svg>