<svg xmlns="http://www.w3.org/2000/svg" width="18" height="18" viewBox="0 0 18 18"><path fill="currentColor" d="M7.37.5.68 4.38v.96h1.23v7.28h1.21V5.34h8.5v7.89h1.21V5.34h1.23v-.96z"/><path fill="currentColor" d="M4.33 12.62h2.43V10.2H4.33zm3.64 0h2.43V10.2H8zM4.33 9h2.43V6.55H4.33zM8 6.55V9h2.4V6.55z"/><path fill="currentColor" d="M13.14 10.41c-2.31 0-4.14-.6-4.14-1.33v7.09c0 .73 1.84 1.32 4.12 1.33h.06c2.31 0 4.18-.6 4.18-1.33V9.08c-.04.73-1.91 1.33-4.22 1.33"/><path fill="currentColor" d="M16.35 9c0 .47-1.44.85-3.21.85s-3.2-.41-3.2-.85 1.43-.85 3.2-.85 3.21.38 3.21.85"/><path fill="currentColor" d="M13.14 9.17a8.6 8.6 0 0 0-2.54.32 8.5 8.5 0 0 0 2.54.33 8.5 8.5 0 0 0 2.54-.33 8.6 8.6 0 0 0-2.54-.32"/></svg>