<svg xmlns="http://www.w3.org/2000/svg" width="24" height="24"><g fill-rule="evenodd"><path fill="currentColor" d="M3.33 7 12 2l8.66 5v9.72L17.33 14H6.67l-3.34 2.67zM16 8.67a4 4 0 1 0-4 4 4 4 0 0 0 4-4m-1.33 0A2.67 2.67 0 1 1 12 6a2.67 2.67 0 0 1 2.67 2.67"/><path fill="currentColor" d="M12 12.67a4 4 0 0 0 0-8V2l8.66 5v9.72L17.33 14H12zm2.67-4A2.67 2.67 0 0 1 12 11.31V6a2.67 2.67 0 0 1 2.67 2.66z"/><path fill="currentColor" d="m4 18 8 4 8-4-3.33-2.67H7.33z"/><path fill="currentColor" d="m12 22 8-4-3.33-2.67H12z"/></g></svg>