<svg fill="#41b670" viewBox="0 0 24 24" xmlns="http://www.w3.org/2000/svg"><path d="m12 0c-6.627 0-12 5.373-12 12s5.373 12 12 12 12-5.373 12-12-5.371-12-12-12m0 21.69c-5.352 0-9.692-4.338-9.692-9.692 0-5.352 4.338-9.691 9.692-9.691 5.352 0 9.692 4.338 9.692 9.691a9.69 9.69 0 0 1 -9.692 9.692m5.778-3.964a7.996 7.996 0 0 1 0-11.305 7.993 7.993 0 0 1 0 11.305m-3.212-3.211a7.994 7.994 0 0 1 -7.994-7.995 7.996 7.996 0 0 1 7.994 7.994m-8.13 3.242a7.996 7.996 0 0 1 11.306 0 7.996 7.996 0 0 1 -11.305 0"/></svg>