<svg height="48" viewBox="0 0 48 48" width="48" xmlns="http://www.w3.org/2000/svg"><path d="m33.572 25.29a1.754 1.754 0 0 1 -1.752-1.751c0-.966.786-1.752 1.752-1.752s1.752.786 1.752 1.752c0 .965-.786 1.751-1.752 1.751m-4.572 5.035v-6.325h.867a3.74 3.74 0 0 0 1.998 2.86 8.6 8.6 0 0 1 -2.865 3.465m-4 1.525v-14.25a3.75 3.75 0 0 0 2.464-2.003 8.47 8.47 0 0 1 4.489 4.572 3.76 3.76 0 0 0 -1.794 1.831h-2.159a1 1 0 0 0 -1 1v8.375a8.2 8.2 0 0 1 -2 .475m-4-.546v-8.304a1 1 0 0 0 -1-1h-1.962a3.76 3.76 0 0 0 -1.792-1.83 8.48 8.48 0 0 1 4.488-4.571 3.75 3.75 0 0 0 2.266 1.94v14.281a8 8 0 0 1 -2-.516m-3.42-2.459c-.032-.037-.066-.074-.129-.16a8.5 8.5 0 0 1 -1.112-1.829 3.73 3.73 0 0 0 1.991-2.856h.67v6.186c-.521-.391-1-.836-1.42-1.341m-4.706-5.306c0-.966.786-1.752 1.752-1.752s1.751.786 1.751 1.752c0 .965-.785 1.751-1.751 1.751a1.754 1.754 0 0 1 -1.752-1.751m11.224-11.321c.966 0 1.752.786 1.752 1.752s-.786 1.752-1.752 1.752a1.755 1.755 0 0 1 -1.752-1.752c0-.966.787-1.752 1.752-1.752m9.856 7.607a10.45 10.45 0 0 0 -6.142-6.227c-.189-1.892-1.773-3.38-3.714-3.38s-3.525 1.489-3.714 3.382a10.46 10.46 0 0 0 -6.139 6.225c-1.888.194-3.371 1.775-3.371 3.714 0 1.97 1.532 3.572 3.465 3.722.379.958.889 1.851 1.517 2.628.061.086.133.172.195.246.822.989 1.83 1.816 2.949 2.436v4.429h2v-3.574a10 10 0 0 0 2 .416v3.158h2v-3.141c.685-.058 1.355-.18 2-.369v3.51h2v-4.326a10.6 10.6 0 0 0 4.85-5.412c1.937-.145 3.474-1.75 3.474-3.723 0-1.938-1.482-3.519-3.37-3.714m5.046 18.04c0 .626-.509 1.135-1.135 1.135h-27.73a1.136 1.136 0 0 1 -1.135-1.135v-27.73c0-.626.509-1.135 1.135-1.135h27.73c.626 0 1.135.509 1.135 1.135zm7-22.865v-2h-5v-2.865a3.14 3.14 0 0 0 -3.135-3.135h-2.865v-5h-2v5h-3v-5h-2v5h-3v-5h-2v5h-3v-5h-2v5h-3v-5h-2v5h-2.865a3.14 3.14 0 0 0 -3.135 3.135v2.865h-5v2h5v3h-5v2h5v3h-5v2h5v3h-5v2h5v3h-5v2h5v2.865a3.14 3.14 0 0 0 3.135 3.135h2.865v5h2v-5h3v5h2v-5h3v5h2v-5h3v5h2v-5h3v5h2v-5h2.865a3.14 3.14 0 0 0 3.135-3.135v-2.865h5v-2h-5v-3h5v-2h-5v-3h5v-2h-5v-3h5v-2h-5v-3z" fill="#7aa116" fill-rule="evenodd"/></svg>