<svg xmlns="http://www.w3.org/2000/svg" width="68.165" height="66.143" viewBox="0 0 18.035 17.5"><defs><mask id="a"><path fill="#fff" d="M0 0h18.035v17.5H0z"/><path d="M8.955.002a1.199 1.19 0 0 0-.459.117L2.224 3.114a1.199 1.19 0 0 0-.647.806L.03 10.65a1.199 1.19 0 0 0 .162.912 1.199 1.19 0 0 0 .068.095l4.34 5.396a1.199 1.19 0 0 0 .938.447h6.96a1.199 1.19 0 0 0 .937-.447l4.338-5.398a1.199 1.19 0 0 0 .232-1.005l-1.548-6.732a1.199 1.19 0 0 0-.65-.807L9.538.118A1.199 1.19 0 0 0 8.957 0m.003.462a1.137 1.127 0 0 1 .55.11l5.94 2.836a1.137 1.127 0 0 1 .615.764l1.468 6.375a1.137 1.127 0 0 1-.22.954l-4.11 5.112a1.137 1.127 0 0 1-.888.423H5.722a1.137 1.127 0 0 1-.888-.422l-4.11-5.112a1.137 1.127 0 0 1-.066-.09 1.137 1.127 0 0 1-.154-.863l1.465-6.375a1.137 1.127 0 0 1 .614-.764L8.523.572a1.137 1.127 0 0 1 .436-.11"/><path fill-rule="evenodd" d="m5.397 6.213 3.62-1.05 3.621 1.05-3.62 1.05zm0 .402v3.853l3.373 1.869.017-4.713zm7.241 0v3.853l-3.373 1.869-.017-4.713z"/></mask></defs><g fill="currentColor" mask="url(#a)"><path d="M8.957.463a1.137 1.127 0 0 0-.434.11l-5.94 2.838a1.137 1.127 0 0 0-.615.764L.503 10.551a1.137 1.127 0 0 0 .154.862 1.137 1.127 0 0 0 .065.09l4.11 5.113a1.137 1.127 0 0 0 .89.423l6.592-.001a1.137 1.127 0 0 0 .888-.423l4.11-5.113a1.137 1.127 0 0 0 .219-.953l-1.468-6.374a1.137 1.127 0 0 0-.614-.764L9.51.572a1.137 1.127 0 0 0-.551-.11"/></g></svg>