<svg xmlns="http://www.w3.org/2000/svg" width="18" height="18" viewBox="0 0 18 18"><path fill="currentColor" d="M9.226 3.927 13.6 6.442l3.048-1.76a8.79 8.79 0 0 0-13.93-1.858 10.02 10.02 0 0 1 6.508 1.103"/><path fill="currentColor" d="m13.541 6.442-.069 6.034 3.168.851A8.793 8.793 0 0 0 11.4.536a10.45 10.45 0 0 1 2.141 5.906"/><path fill="currentColor" d="m13.535 11.646-4.552 2.63.071 3.5a8.8 8.8 0 0 0 8.764-8.8 8.5 8.5 0 0 0-.288-2.09 9.58 9.58 0 0 1-3.995 4.76"/><path fill="currentColor" d="m8.983 14.276-4.555-2.63-3.02 1.812a8.782 8.782 0 0 0 13.672 1.881 9.9 9.9 0 0 1-6.097-1.063"/><path fill="currentColor" d="m4.425 11.646.069-6.237-3.117-.821A8.7 8.7 0 0 0 .183 9a8.846 8.846 0 0 0 6.535 8.5 10.2 10.2 0 0 1-2.293-5.854"/><path fill="currentColor" d="m4.583 6.3 4.4-2.543a10.57 10.57 0 0 0-5.942-1.245A8.75 8.75 0 0 0 .183 9 9 9 0 0 0 .5 11.32 10.25 10.25 0 0 1 4.583 6.3"/><path fill="currentColor" d="M13.535 11.646v-5.26L8.98 3.757 4.425 6.386v5.26l4.555 2.63z"/><path fill="currentColor" d="M8.986 9.071v5.205l-4.561-2.63V6.404z"/><path fill="currentColor" d="M8.98 9.071v5.205l4.561-2.63V6.404z"/></svg>