<svg height="24" viewBox="0 0 18 18" width="24" xmlns="http://www.w3.org/2000/svg"><path d="m5.267 8.167-2.857 1.043a7 7 0 0 0 .233 1.361l2.71-.981a5.6 5.6 0 0 1 -.086-1.423m12.633-3.167a9 9 0 0 0 -.687-1.177l-2.861 1.042a5.8 5.8 0 0 1 .848 1.128c-.014-.012 2.7-.993 2.7-.993" fill="#c32034"/><path d="m11.612 4.19a5.4 5.4 0 0 1 1.545 1.1l2.858-1.042a8.16 8.16 0 0 0 -14.776 5.386l2.861-1.042a5.2 5.2 0 0 1 .478-1.84 5.3 5.3 0 0 1 7.034-2.562" fill="#db212f"/><path d="m2.814 10.487-2.714.981a8.5 8.5 0 0 0 1.28 2.772l2.845-1.04a5.37 5.37 0 0 1 -1.411-2.71" fill="#ea2227"/><path d="m14.66 9.408a5.5 5.5 0 0 1 -.479 1.84 5.3 5.3 0 0 1 -7.05 2.562 5.4 5.4 0 0 1 -1.545-1.1l-2.845 1.039a8.06 8.06 0 0 0 3.188 2.651 8.158 8.158 0 0 0 11.588-8.034z" fill="#db212f"/><path d="m15.362 5.917-2.71.981a5.3 5.3 0 0 1 .662 2.992l2.845-1.042a8.3 8.3 0 0 0 -.8-2.931" fill="#ea2227"/><path d="m2.417 9.2 2.845-1.03-.012.564-2.75 1.019zm11.932-4.352 2.894-.981.307.442-2.808.98c-.013.013-.393-.441-.393-.441" fill="#ad213a"/><path d="m2.726 13.744 2.845-1.018.858.8-2.992 1.1c.013.001-.711-.882-.711-.882m14.83-5.356-2.894 1.03-.208 1.141 3.09-1.08c-.013-.012.012-1.091.012-1.091" fill="#ba2034"/></svg>