<svg height="66.143" viewBox="0 0 18.035 17.5" width="68.165" xmlns="http://www.w3.org/2000/svg"><g transform="matrix(1.01489 0 0 1.01489 15.909 -3.873)"><path d="m-6.85 4.272a1.12 1.11 0 0 0 -.428.109l-5.852 2.796a1.12 1.11 0 0 0 -.606.753l-1.444 6.282a1.12 1.11 0 0 0 .152.85 1.12 1.11 0 0 0 .064.089l4.05 5.037a1.12 1.11 0 0 0 .876.417l6.496-.001a1.12 1.11 0 0 0 .875-.417l4.049-5.038a1.12 1.11 0 0 0 .216-.939l-1.446-6.28a1.12 1.11 0 0 0 -.605-.753l-5.854-2.797a1.12 1.11 0 0 0 -.542-.109" fill="#326ce5"/><path d="m-6.852 3.818a1.181 1.172 0 0 0 -.452.115l-6.18 2.951a1.181 1.172 0 0 0 -.638.795l-1.524 6.63a1.181 1.172 0 0 0 .16.9 1.181 1.172 0 0 0 .067.093l4.276 5.317a1.181 1.172 0 0 0 .924.44h6.858a1.181 1.172 0 0 0 .923-.44l4.275-5.319a1.181 1.172 0 0 0 .228-.99l-1.525-6.633a1.181 1.172 0 0 0 -.64-.795l-6.178-2.95a1.181 1.172 0 0 0 -.573-.115m.003.455a1.12 1.11 0 0 1 .542.108l5.853 2.795a1.12 1.11 0 0 1 .606.753l1.446 6.281a1.12 1.11 0 0 1 -.216.94l-4.05 5.037a1.12 1.11 0 0 1 -.875.417l-6.496.001a1.12 1.11 0 0 1 -.875-.417l-4.05-5.037a1.12 1.11 0 0 1 -.064-.088 1.12 1.11 0 0 1 -.152-.851l1.444-6.281a1.12 1.11 0 0 1 .605-.753l5.853-2.797a1.12 1.11 0 0 1 .429-.108" fill="#fff"/></g><g transform="translate(-.936 -.399)"><g stroke-miterlimit="10"><path d="m10.414 8.091h3.709" fill="none" stroke="#fff" stroke-linejoin="round" stroke-width=".79375"/><path d="m8.298 5.975h5.825" fill="none" stroke="#fff" stroke-linejoin="round" stroke-width=".794"/><path d="m5.784 5.975h1.458" fill="none" stroke="#fff" stroke-linejoin="round" stroke-width=".79375"/><path d="m7.718 8.432c0-1.167 1.011-2.112 2.259-2.112s2.258.945 2.258 2.112h-1.056c0-.583-.538-1.056-1.202-1.056s-1.202.473-1.202 1.056z" fill="#fff" fill-rule="evenodd" stroke="#326ce5" stroke-linecap="square" stroke-width=".264583"/><path d="m10.414 10.208h3.709" fill="none" stroke="#fff" stroke-linejoin="round" stroke-width=".79375"/><path d="m8.298 12.325h5.825" fill="none" stroke="#fff" stroke-linejoin="round" stroke-width=".79375"/><path d="m5.784 12.325h1.458" fill="none" stroke="#fff" stroke-linejoin="round" stroke-width=".79375"/><path d="m7.162 8.37h5.617v3.657h-5.617z" fill="#fff" fill-rule="evenodd" stroke="#326ce5" stroke-linecap="square" stroke-width=".264583"/></g><circle cx="9.971" cy="10.198" fill="#326ce5" r=".555"/></g></svg>