<svg height="64" viewBox="0 0 64 64" width="64" xmlns="http://www.w3.org/2000/svg"><g fill="none" fill-rule="evenodd"><path d="m0 0h64v64h-64z" fill="#ed7100"/><path d="m22.68 52h-9.106l10.264-21.59 4.562 9.451zm2.047-24.333a.99.99 0 0 0 -.896-.564h-.003a.99.99 0 0 0 -.896.569l-11.835 24.897c-.147.31-.126.674.057.965.181.29.5.466.842.466h11.314a1 1 0 0 0 .9-.572l6.194-13.144a1 1 0 0 0 -.005-.864zm26.281 24.333h-9.022l-15.031-32.422a1 1 0 0 0 -.903-.578h-5.924l.007-7h11.68l14.96 32.42c.163.354.516.58.904.58h3.33zm.996-9h-3.69l-14.96-32.42a1 1 0 0 0 -.903-.58h-13.311a1 1 0 0 0 -.996.999l-.008 9a.993.993 0 0 0 .995 1.001h6.286l15.03 32.422a1 1 0 0 0 .903.578h10.654c.55 0 .996-.448.996-1v-9c0-.552-.445-1-.996-1" fill="#fff"/></g></svg>