<svg height="18" viewBox="0 0 18 18" width="18" xmlns="http://www.w3.org/2000/svg" xmlns:xlink="http://www.w3.org/1999/xlink"><linearGradient id="a" gradientUnits="userSpaceOnUse" x1=".5" x2="13.18" y1="10.04" y2="10.04"><stop offset="0" stop-color="#005ba1"/><stop offset=".07" stop-color="#0060a9"/><stop offset=".36" stop-color="#0071c8"/><stop offset=".52" stop-color="#0078d4"/><stop offset=".64" stop-color="#0074cd"/><stop offset=".82" stop-color="#006abb"/><stop offset="1" stop-color="#005ba1"/></linearGradient><path d="m6.84 5.09c-3.5 0-6.34-1-6.34-2.3v12.21c0 1.26 2.79 2.28 6.25 2.3h.09c3.5 0 6.34-1 6.34-2.3v-12.21c0 1.27-2.84 2.3-6.34 2.3" fill="url(#a)"/><path d="m13.18 2.79c0 1.27-2.84 2.3-6.34 2.3s-6.34-1.03-6.34-2.3 2.84-2.3 6.34-2.3 6.34 1 6.34 2.3" fill="#e8e8e8"/><path d="m11.7 2.6c0 .81-2.18 1.46-4.86 1.46s-4.84-.65-4.84-1.46 2.16-1.46 4.84-1.46 4.86.66 4.86 1.46" fill="#50e6ff"/><path d="m6.84 2.94a12 12 0 0 0 -3.84.55 11.3 11.3 0 0 0 3.85.57 11.3 11.3 0 0 0 3.85-.57 12 12 0 0 0 -3.86-.55" fill="#198ab3"/><path d="m10.74 11.1v-3.38h-.93v4.14h2.46v-.76zm-7.15-1.67a2 2 0 0 1 -.51-.31.44.44 0 0 1 -.08-.32.38.38 0 0 1 .16-.31.72.72 0 0 1 .42-.11 1.67 1.67 0 0 1 1 .29v-.86a2.7 2.7 0 0 0 -1-.16 1.74 1.74 0 0 0 -1.2.35 1.13 1.13 0 0 0 -.41.9c0 .51.32.91 1 1.21a3 3 0 0 1 .61.36.4.4 0 0 1 .16.32.38.38 0 0 1 -.16.31.75.75 0 0 1 -.45.12 1.6 1.6 0 0 1 -1.13-.45v.93a2.3 2.3 0 0 0 1.07.23 2 2 0 0 0 1.18-.32 1.1 1.1 0 0 0 .43-.92 1 1 0 0 0 -.25-.7 2.4 2.4 0 0 0 -.84-.56m5.2 1.57a2.4 2.4 0 0 0 .33-1.27 2.3 2.3 0 0 0 -.25-1.1 1.8 1.8 0 0 0 -.7-.75 2 2 0 0 0 -1-.26 2.2 2.2 0 0 0 -1.09.27 1.87 1.87 0 0 0 -.73.77 2.4 2.4 0 0 0 -.26 1.15 2.26 2.26 0 0 0 .24 1.05 1.83 1.83 0 0 0 .68.75 2 2 0 0 0 1 .29l.85 1h1.19l-1.2-1.11a1.8 1.8 0 0 0 .94-.79m-.93-.26a1 1 0 0 1 -1.53 0 1.5 1.5 0 0 1 -.28-1 1.48 1.48 0 0 1 .29-1 .92.92 0 0 1 .78-.37.89.89 0 0 1 .75.37 1.62 1.62 0 0 1 .27 1 1.46 1.46 0 0 1 -.28 1.03z" fill="#f2f2f2"/><path d="m14.81 17.49.24-.79.47-.27.81.36.52-.53v-.06l-.37-.71.22-.5.81-.29h.09v-.73h-.1l-.8-.24-.26-.46.35-.82-.53-.51h-.06l-.71.36-.49-.3-.32-.89h-.74v.11l-.24.79-.51.22-.87-.4-.51.53.05.1.38.74-.2.51-.94.29v.74h.11l.79.24.22.51-.39.86.53.52.09-.05.74-.38.51.2.34.89h.73zm-1.2-2.36a1.06 1.06 0 1 1 1.49-1.52 1.06 1.06 0 0 1 -1.49 1.52" fill="#949494"/></svg>