<svg xmlns="http://www.w3.org/2000/svg" viewBox="249.8 192.24 66.61 34.03"><path fill="currentColor" d="M307.066 196.853a2.7 2.7 0 0 1 1.215-.09c2.056.351 2.816 3.796 2.638 8.689-.202 5.63-2.411 14.822-6.491 14.866-.312.002-.698 0-.992-.105l-4.039-27.326h-7.495l2.972 17.905c-.542 3.588-2.098 8.782-5.291 9.324-.312.051-1.092.103-1.508.02l-4.025-27.25h-7.499l5.477 32.995c1.843.468 3.866.498 5.579.12 4.103-.912 7.246-4.915 8.266-9.19l1.508 9.072c1.787.402 2.855.398 4.41.374 4.121-.072 7.404-2.332 9.67-5.771 3.497-5.317 4.953-12.962 4.953-19.24 0-5.152-1.56-9.007-5.438-9.007-1.93 0-4.031 1.598-4.199 4.377-.007.098.015.17.08.217.06.041.145.041.209.02m-50.008 10.244c3.88-.3 5.702-1.047 7.254-2.062 1.739-1.139 2.542-2.696 2.615-4.177.085-1.75-.956-3.58-4.071-4.295-1.638-.376-3.82-.362-5.798-.082zm3.106 14.921c2.58 0 3.949-.502 5.136-1.183 2.13-1.225 3.348-3.749 3.099-6.376-.244-2.56-1.96-4.206-4.43-4.915-1.81-.514-4.328-.509-6.91.176v12.005c.854.192 2.112.293 3.105.293m8.012-15.38a13.5 13.5 0 0 1 3.744 1.333c3.392 1.867 4.663 4.825 4.288 8.355-.37 3.437-2.683 6.42-6.063 8.04-2.084.995-4.486 1.57-7.343 1.782-4.03.295-8.677.028-13.002-.764v-32.05c3.506-.575 7.449-1.074 10.92-1.07 3.763.003 6.342.38 8.877 1.566 3 1.406 4.053 3.799 4.08 5.792.024 1.983-1.156 5.109-5.5 7.015"/></svg>