<svg viewBox="249.8 192.24 66.61 34.03" xmlns="http://www.w3.org/2000/svg"><path d="m36.224 23.815a1.5 1.5 0 0 1 .683-.05c1.155.197 1.582 2.132 1.482 4.881-.114 3.163-1.355 8.327-3.647 8.352-.175.001-.392 0-.557-.059l-2.269-15.352h-4.211l1.67 10.059c-.305 2.016-1.179 4.934-2.973 5.238-.175.029-.613.058-.847.011l-2.261-15.308h-4.213l3.077 18.536c1.035.263 2.172.28 3.134.067 2.305-.512 4.071-2.761 4.644-5.163l.847 5.097c1.004.226 1.604.224 2.478.21 2.315-.04 4.159-1.31 5.432-3.242 1.965-2.987 2.783-7.282 2.783-10.809 0-2.894-.877-5.06-3.055-5.06-1.085 0-2.265.898-2.359 2.459-.004.055.008.096.045.122.033.023.081.023.117.011m-28.094 5.755c2.18-.168 3.203-.588 4.075-1.158.977-.64 1.428-1.515 1.469-2.347.048-.983-.537-2.011-2.287-2.413-.92-.211-2.146-.203-3.257-.046zm1.745 8.383c1.449 0 2.218-.282 2.885-.665 1.197-.688 1.881-2.106 1.741-3.582-.137-1.438-1.101-2.363-2.489-2.761-1.017-.289-2.431-.286-3.882.099v6.744c.48.108 1.187.165 1.745.165m4.501-8.641a7.6 7.6 0 0 1 2.103.749c1.906 1.049 2.62 2.711 2.409 4.694-.208 1.931-1.507 3.607-3.406 4.517-1.171.559-2.52.882-4.125 1.001-2.264.166-4.875.016-7.305-.429v-18.006c1.97-.323 4.185-.603 6.135-.601 2.114.002 3.563.214 4.987.88 1.686.79 2.277 2.134 2.292 3.254.014 1.114-.649 2.87-3.09 3.941" fill="#1e407c" transform="matrix(1.78 0 0 1.78 242.587 154.462)"/></svg>