<svg xmlns="http://www.w3.org/2000/svg" xmlns:xlink="http://www.w3.org/1999/xlink" width="18" height="18" viewBox="0 0 18 18">
  <defs>
    <mask id="wko">
      <rect width="18" height="18" fill="white"/>
      <path fill="black" d="M8.13 8.44A3.94 3.94 0 0 1 6 7.8l2.1 5.56 2.12-5.52a4 4 0 0 1-2.09.6" opacity=".8"/>
    </mask>
  </defs>
  <g fill="currentColor" mask="url(#wko)">
    <path fill="currentColor" d="M13.93 16.08a1.26 1.26 0 0 0 1.26-1.25 1 1 0 0 0 0-.15c-.49-4-2.75-7.18-7-7.18S1.48 10.23 1 14.69a1.27 1.27 0 0 0 1.13 1.38h11.8z"/>
  </g>
  <circle cx="8.13" cy="4.47" r="3.97" fill="currentColor"/>
  <path fill="currentColor" d="M17 13c0 2.28-2.76 4.12-3.36 4.5a.24.24 0 0 1-.23 0C12.77 17.09 10 15.25 10 13v-2.78a.22.22 0 0 1 .21-.22c2.15-.06 1.66-1 3.27-1s1.11.94 3.26 1a.22.22 0 0 1 .21.22z"/>
  <path fill="currentColor" d="M16.67 13c0 2.1-2.53 3.79-3.08 4.13a.2.2 0 0 1-.21 0c-.55-.34-3.08-2-3.08-4.13v-2.53a.19.19 0 0 1 .19-.2c2 0 1.52-.92 3-.92s1 .87 3 .92a.19.19 0 0 1 .19.2z"/>
</svg>