<svg height="64" viewBox="0 0 64 64" width="64" xmlns="http://www.w3.org/2000/svg"><g fill="none" fill-rule="evenodd"><path d="m0 0h64v64h-64z" fill="#8c4fff"/><path d="m23.5 42c-5.79 0-10.5-4.71-10.5-10.5s4.71-10.5 10.5-10.5 10.5 4.71 10.5 10.5-4.71 10.5-10.5 10.5m24.5 6c0 1.654-1.346 3-3 3s-3-1.346-3-3 1.346-3 3-3 3 1.346 3 3m-3-35c1.654 0 3 1.346 3 3s-1.346 3-3 3-3-1.346-3-3 1.346-3 3-3m3 16c1.654 0 3 1.346 3 3s-1.346 3-3 3-3-1.346-3-3 1.346-3 3-3m-12.099 4h7.201a5.01 5.01 0 0 0 4.898 4c2.757 0 5-2.243 5-5s-2.243-5-5-5a5.01 5.01 0 0 0 -4.898 4h-7.127a12.5 12.5 0 0 0 -.879-4.144l7.703-6.389a4.94 4.94 0 0 0 2.201.533c2.757 0 5-2.243 5-5s-2.243-5-5-5-5 2.243-5 5c0 1.224.459 2.331 1.191 3.201l-7.019 5.823c-2.195-3.604-6.151-6.024-10.672-6.024-6.893 0-12.5 5.607-12.5 12.5s5.607 12.5 12.5 12.5c4.243 0 7.993-2.129 10.254-5.371l7.437 6.17c-.732.87-1.191 1.977-1.191 3.201 0 2.757 2.243 5 5 5s5-2.243 5-5-2.243-5-5-5a4.94 4.94 0 0 0 -2.201.533l-8.029-6.66c.574-1.2.966-2.5 1.131-3.873" fill="#fff"/></g></svg>