<svg viewBox="0 0 24 24" xmlns="http://www.w3.org/2000/svg"><path d="m14.1093.0006c-.0749-.0074-.1348.0522-.1348.127v3.451c0 .0673.0537.1194.121.127 2.619.172 4.6092.9501 4.6092 3.6814h-5.6187a.1343.1343 0 0 0 -.1348.1347v8.9644c0 .0748.06.1347.1348.1347h10.0034c.0748 0 .1347-.0599.1347-.1347v-9.1441c0-2.2374-.7996-4.0558-2.4159-5.3279-1.4891-1.1672-3.7208-1.8713-6.6989-2.0135zm-13.1986 7.3864a.1342.1342 0 0 0 -.1347.1347v8.9566c0 .0748.06.1347.1347.1347h5.6189c0 2.7313-1.9902 3.5094-4.6091 3.6815-.0674.0075-.1192.0596-.1192.127v3.451c0 .0747.06.1343.1348.1269 2.9781-.1422 5.2078-.8463 6.6969-2.0136 1.6163-1.272 2.4159-3.0905 2.4159-5.3278v-9.1363a.1343.1343 0 0 0 -.1348-.1347z"/></svg>