<svg height="48" viewBox="0 0 48 48" width="48" xmlns="http://www.w3.org/2000/svg"><path d="m46 31v2c-.185.107-.521.933-.7 1.376-.476 1.169-1.068 2.624-2.555 2.624s-2.079-1.455-2.555-2.624c-.179-.443-.515-1.269-.732-1.384-.151.116-.486.942-.666 1.384-.476 1.169-1.066 2.624-2.552 2.624s-2.077-1.455-2.552-2.624c-.179-.443-.514-1.268-.731-1.385-.148.117-.483.942-.663 1.385-.475 1.169-1.066 2.624-2.552 2.624-1.484 0-2.074-1.455-2.549-2.624-.179-.443-.513-1.268-.73-1.385-.149.117-.484.943-.663 1.386-.475 1.169-1.066 2.623-2.551 2.623s-2.076-1.454-2.551-2.623c-.179-.443-.514-1.269-.731-1.385l.033-1.992c1.485 0 2.077 1.455 2.552 2.624.179.443.514 1.268.731 1.385.149-.117.484-.942.663-1.385.475-1.169 1.067-2.624 2.552-2.624 1.484 0 2.074 1.455 2.549 2.624.18.443.514 1.268.73 1.385.149-.117.484-.943.663-1.386.475-1.169 1.066-2.623 2.551-2.623s2.076 1.454 2.551 2.623c.18.443.515 1.269.731 1.385.151-.116.486-.942.665-1.384.476-1.169 1.067-2.624 2.552-2.624 1.487 0 2.078 1.454 2.553 2.623.181.443.517 1.27.734 1.385.154-.115.49-.942.67-1.385.475-1.169 1.067-2.623 2.553-2.623m0-7v2c-.185.107-.521.933-.7 1.376-.476 1.169-1.068 2.624-2.555 2.624s-2.079-1.455-2.555-2.624c-.179-.443-.515-1.269-.732-1.384-.151.116-.486.942-.666 1.384-.476 1.169-1.066 2.624-2.552 2.624s-2.077-1.455-2.552-2.624c-.179-.443-.514-1.268-.731-1.385-.148.117-.483.942-.663 1.385-.475 1.169-1.066 2.624-2.552 2.624-1.484 0-2.074-1.455-2.549-2.624-.179-.443-.513-1.268-.73-1.385-.149.117-.484.943-.663 1.386-.475 1.169-1.066 2.623-2.551 2.623s-2.076-1.454-2.551-2.623c-.179-.443-.514-1.269-.731-1.385l.033-1.992c1.485 0 2.077 1.455 2.552 2.624.179.443.514 1.268.731 1.385.149-.117.484-.942.663-1.385.475-1.169 1.067-2.624 2.552-2.624 1.484 0 2.074 1.455 2.549 2.624.18.443.514 1.268.73 1.385.149-.117.484-.943.663-1.386.475-1.169 1.066-2.623 2.551-2.623s2.076 1.454 2.551 2.623c.18.443.515 1.269.731 1.385.151-.116.486-.942.665-1.384.476-1.169 1.067-2.624 2.552-2.624 1.487 0 2.078 1.454 2.553 2.623.181.443.517 1.27.734 1.385.154-.115.49-.942.67-1.385.475-1.169 1.067-2.623 2.553-2.623m0-8v2c-.185.107-.521.933-.7 1.376-.476 1.169-1.068 2.624-2.555 2.624s-2.079-1.455-2.555-2.624c-.179-.443-.515-1.269-.732-1.384-.151.116-.486.942-.666 1.384-.476 1.169-1.066 2.624-2.552 2.624s-2.077-1.455-2.552-2.624c-.179-.443-.514-1.268-.731-1.385-.148.117-.483.942-.663 1.385-.475 1.169-1.066 2.624-2.552 2.624-1.484 0-2.074-1.455-2.549-2.624-.179-.443-.513-1.268-.73-1.385-.149.117-.484.943-.663 1.386-.475 1.169-1.066 2.623-2.551 2.623s-2.076-1.454-2.551-2.623c-.179-.443-.514-1.269-.731-1.385l.033-1.992c1.485 0 2.077 1.455 2.552 2.624.179.443.514 1.268.731 1.385.149-.117.484-.942.663-1.385.475-1.169 1.067-2.624 2.552-2.624 1.484 0 2.074 1.455 2.549 2.624.18.443.514 1.268.73 1.385.149-.117.484-.943.663-1.386.475-1.169 1.066-2.623 2.551-2.623s2.076 1.454 2.551 2.623c.18.443.515 1.269.731 1.385.151-.116.486-.942.665-1.384.476-1.169 1.067-2.624 2.552-2.624 1.487 0 2.078 1.454 2.553 2.623.181.443.517 1.27.734 1.385.154-.115.49-.942.67-1.385.475-1.169 1.067-2.623 2.553-2.623m-29.864-12c7.581 0 12.864 2.165 12.864 4.107 0 1.944-5.283 4.109-12.864 4.109-7.496 0-12.136-2.133-12.136-4.109s4.64-4.107 12.136-4.107m12.864 35.486c0 1.944-5.283 4.109-12.864 4.109-7.597 0-12.136-2.089-12.136-4.109v-6.849c2.358 1.712 6.658 2.741 12.136 2.741v-2c-7.597 0-12.136-2.075-12.136-4.081v-6.888c2.358 1.719 6.658 2.753 12.136 2.753v-2c-7.496 0-12.136-2.133-12.136-4.108v-7.591c2.358 1.719 6.658 2.753 12.136 2.753 5.054 0 10.149-.985 12.864-2.89v3.674h2v-7h-.013c-.135-3.938-7.533-6-14.851-6-8.371 0-14.013 2.407-14.125 6h-.011v31.486c0 3.654 5.681 6.109 14.136 6.109 7.159 0 14.864-1.911 14.864-6.109v-1.486h-2z" fill="#8c4fff" fill-rule="evenodd"/></svg>