<svg xmlns="http://www.w3.org/2000/svg" xmlns:xlink="http://www.w3.org/1999/xlink" viewBox="0 0 128 128"><clipPath id="b"><path d="M53.4 9.5 9.1 54.9C-7.7 71.7 19.9 70.3 29.9 76.6c4.6 3-14.8 6.9-10.9 10.9S42.3 95.1 46.2 99c3.9 4-7.8 8.2-4 12.1 3.8 4 12.8.2 14.4 9.2 1.2 6.7 16.6 3.3 23.4-2.4l-3.5-7.6c9.7-9.8 18.3-4.4 21.8-13.4 1.9-4.8-14.6-8.3-10.2-11.4 10.5-7.4 49.2-11.2 31.4-29l-45.9-47c-5.6-5.3-15-5.3-20.2 0M42.7 79.1c1 0 33.1 4.3 20.7 7.6-4.7 1.3-26.4-7.6-20.7-7.6m61.5 17.8c0 2.3 17.5 3.5 16.6-.5-1.4-6.9-14.7-6.3-16.6.5m-74.7 12c4 3.4 10-.8 11.9-5.6-3.8-5.1-18.1.3-11.9 5.6m72.6-7.2c-4.9 4.5.9 9.2 5.7 6.1 1.2-.9-.2-5.1-5.7-6.1"/></clipPath><linearGradient id="d" x1="98.293" x2="74.286" y1="237.026" y2="215.319" gradientTransform="matrix(.985 0 0 -.985 6.128 272.439)" gradientUnits="userSpaceOnUse"><stop offset="0" stop-color="#c0cdf9"/><stop offset="1" stop-color="#07092d" stop-opacity=".288"/></linearGradient><linearGradient id="a"><stop offset="0" stop-color="#fff"/><stop offset="1" stop-color="#fff" stop-opacity="0"/></linearGradient><linearGradient xlink:href="#a" id="e" x1="33.173" x2="60.308" y1="245.076" y2="217.941" gradientTransform="matrix(1.003 0 0 -1.003 -.413 276.586)" gradientUnits="userSpaceOnUse"/><linearGradient xlink:href="#a" id="f" x1="48.612" x2="81.173" y1="250.177" y2="217.616" gradientTransform="matrix(.994 0 0 -.994 2.709 274.439)" gradientUnits="userSpaceOnUse"/><radialGradient xlink:href="#a" id="g" cx="51.136" cy="13.518" r="33.212" gradientTransform="matrix(.827 0 0 -.553 1.123 126.746)" gradientUnits="userSpaceOnUse"/><radialGradient xlink:href="#a" id="h" cx="147.452" cy="14.758" r="33.212" gradientTransform="matrix(1.055 0 0 -.706 -97.55 130.348)" gradientUnits="userSpaceOnUse"/><radialGradient xlink:href="#a" id="i" cx="-53.737" cy="94.673" r="37.174" gradientTransform="matrix(.526 0 0 -.223 130.969 98.356)" gradientUnits="userSpaceOnUse"/><radialGradient xlink:href="#a" id="j" cx="-45.82" cy="80.197" r="37.174" gradientTransform="matrix(.526 0 0 -.223 130.969 97.429)" gradientUnits="userSpaceOnUse"/><linearGradient xlink:href="#a" id="k" x1="-32.429" x2="-32.293" y1="73.095" y2="66.244" gradientTransform="matrix(.526 0 0 -.526 130.306 130.092)" gradientUnits="userSpaceOnUse"/><linearGradient xlink:href="#a" id="l" x1="112.548" x2="112.548" y1="76.804" y2="71.974" gradientTransform="matrix(.709 0 0 -1.134 33.501 178.262)" gradientUnits="userSpaceOnUse"/><radialGradient xlink:href="#a" id="m" cx="-34.115" cy="13.297" r="15.297" gradientTransform="matrix(.526 0 0 -.078 130.969 98.77)" gradientUnits="userSpaceOnUse"/><linearGradient xlink:href="#a" id="n" x1="-643.912" x2="-643.777" y1="327.836" y2="320.984" gradientTransform="rotate(-26.9 553.28 -555.57)scale(.228 -.526)" gradientUnits="userSpaceOnUse"/><linearGradient xlink:href="#a" id="o" x1="-341.635" x2="-341.635" y1="195.138" y2="190.308" gradientTransform="matrix(.273 -.139 -.513 -1.011 295.216 251.45)" gradientUnits="userSpaceOnUse"/><radialGradient xlink:href="#a" id="p" cx="-645.599" cy="1737.484" r="15.297" gradientTransform="matrix(.203 -.103 -.035 -.069 297.352 162.155)" gradientUnits="userSpaceOnUse"/><radialGradient id="q" cx="-185.187" cy="69.66" r="24.692" gradientTransform="matrix(.526 0 0 -.214 130.969 105.831)" gradientUnits="userSpaceOnUse"><stop offset="0" stop-color="#fff" stop-opacity=".33"/><stop offset="1" stop-color="#fff" stop-opacity="0"/></radialGradient><linearGradient xlink:href="#a" id="r" x1="-136.743" x2="-136.607" y1="250.438" y2="243.586" gradientTransform="matrix(.463 .102 .123 -.366 65.856 208.72)" gradientUnits="userSpaceOnUse"/><linearGradient xlink:href="#a" id="s" x1="60.343" x2="60.343" y1="183.942" y2="179.112" gradientTransform="matrix(.623 .219 .166 -.789 -34.636 234.581)" gradientUnits="userSpaceOnUse"/><radialGradient xlink:href="#a" id="t" cx="-62.572" cy="357.021" r="11.363" gradientTransform="matrix(.624 -.173 -.065 -.233 95.948 182.007)" gradientUnits="userSpaceOnUse"/><radialGradient xlink:href="#a" id="u" cx="193.011" cy="256.754" r="59.425" gradientTransform="matrix(1.712 0 0 -1.685 -261.607 451.789)" gradientUnits="userSpaceOnUse"/><linearGradient xlink:href="#a" id="v" x1="-224.589" x2="-161.637" y1="68.903" y2="52.258" gradientTransform="matrix(.485 0 0 -.485 149.184 125.791)" gradientUnits="userSpaceOnUse"/><linearGradient id="w" x1="13.153" x2="9.253" y1="197.768" y2="188.832" gradientTransform="matrix(.88 0 0 -.88 42.035 252.063)" gradientUnits="userSpaceOnUse"><stop offset="0" stop-color="#eeeeec"/><stop offset="1" stop-color="#eeeeec" stop-opacity="0"/></linearGradient><radialGradient xlink:href="#a" id="x" cx="26.356" cy="55.589" r="24.385" gradientTransform="matrix(.656 0 0 -.834 66.991 147.128)" gradientUnits="userSpaceOnUse"/><linearGradient xlink:href="#a" id="y" x1="-245.694" x2="-235.88" y1="88.661" y2="80.864" gradientTransform="matrix(.49 0 0 -.49 147.66 125.008)" gradientUnits="userSpaceOnUse"/><linearGradient id="z" x1="-115.448" x2="-144.875" y1="55.254" y2="134.487" gradientTransform="matrix(.485 0 0 -.485 149.184 125.791)" gradientUnits="userSpaceOnUse"><stop offset="0" stop-color="#729fcf"/><stop offset="1" stop-color="#729fcf" stop-opacity="0"/></linearGradient><g opacity=".783"><path d="M53.37 8.582 8.837 54.108C-7.961 70.906 19.772 69.515 29.811 75.876c4.672 2.982-14.91 6.859-10.934 10.934 3.877 3.976 23.459 7.654 27.335 11.53 3.877 3.977-7.852 8.151-3.976 12.227 3.778 3.976 12.823.199 14.413 9.244 1.193 6.66 16.6 3.38 23.558-2.386 4.274-3.677-7.455-3.677-3.578-7.653 9.741-9.84 18.389-4.473 21.868-13.519 1.988-4.87-14.711-8.35-10.238-11.43 10.635-7.456 49.401-11.233 31.51-29.125L73.745 8.582c-5.765-5.367-15.109-5.367-20.377 0m50.991 87.671c0 2.286 17.594 3.579 16.6-.497-1.391-6.958-14.711-6.361-16.6.497m-74.947 12.028c3.976 3.479 10.04-.796 11.928-5.567-3.877-5.169-18.19.2-11.928 5.567m72.76-7.257c-4.97 4.573.895 9.245 5.766 6.163 1.292-.894-.1-5.07-5.765-6.163"/><path d="M53.37 9.576 8.837 55.102C-7.961 72 19.772 70.608 29.811 76.97c4.672 2.982-14.91 6.858-10.934 10.934 3.877 3.976 23.459 7.653 27.335 11.53 3.877 3.976-7.852 8.15-3.976 12.226 3.778 3.976 12.823.2 14.413 9.244 1.193 6.66 16.6 3.38 23.558-2.385 4.274-3.678-7.455-3.678-3.578-7.654 9.741-9.84 18.389-4.473 21.868-13.518 1.988-4.87-14.711-8.35-10.238-11.431 10.536-7.455 49.401-11.233 31.51-29.125L73.745 9.576c-5.765-5.367-15.109-5.367-20.377 0m50.991 87.77c0 2.287 17.594 3.58 16.6-.496-1.391-6.958-14.711-6.461-16.6.497m-74.947 11.929c3.976 3.479 10.04-.796 11.928-5.567-3.877-5.07-18.19.298-11.928 5.567m72.76-7.157c-4.97 4.572.895 9.244 5.766 6.163 1.292-.895-.1-5.17-5.765-6.163" opacity=".576"/></g><path d="M53.37 7.501 8.837 53.026C-7.961 69.825 19.772 68.433 29.811 74.795c4.672 2.982-14.91 6.858-10.934 10.934 3.877 3.976 23.459 7.654 27.335 11.53 3.877 3.976-7.852 8.151-3.976 12.226 3.778 3.976 12.823.2 14.413 9.245 1.193 6.66 16.6 3.38 23.558-2.386 4.274-3.678-7.455-3.678-3.578-7.654 9.741-9.84 18.389-4.473 21.868-13.518 1.988-4.87-14.711-8.35-10.238-11.431 10.536-7.455 49.401-11.232 31.51-29.124L73.745 7.5c-5.765-5.368-15.109-5.368-20.377 0m50.991 87.67c0 2.287 17.594 3.58 16.6-.496-1.391-6.859-14.711-6.362-16.6.497M29.414 107.2c3.976 3.48 10.04-.795 11.928-5.566-3.877-5.169-18.19.298-11.928 5.566m72.76-7.256c-4.97 4.572.895 9.244 5.766 6.163 1.292-.895-.1-5.07-5.765-6.163"/><path fill="none" d="M53.37 7.501 8.837 53.026C-7.961 69.825 19.772 68.433 29.811 74.795c4.672 2.982-14.91 6.858-10.934 10.934 3.877 3.976 23.459 7.654 27.335 11.53 3.877 3.976-7.852 8.151-3.976 12.226 3.778 3.976 12.823.2 14.413 9.245 1.193 6.66 16.6 3.38 23.558-2.386 4.274-3.678-7.455-3.678-3.578-7.654 9.741-9.84 18.389-4.473 21.868-13.518 1.988-4.87-14.711-8.35-10.238-11.431 10.536-7.455 49.401-11.232 31.51-29.124L73.745 7.5c-5.765-5.368-15.109-5.368-20.377 0m50.991 87.67c0 2.287 17.594 3.58 16.6-.496-1.391-6.859-14.711-6.362-16.6.497M29.414 107.2c3.976 3.48 10.04-.795 11.928-5.566-3.877-5.169-18.19.298-11.928 5.566m72.76-7.256c-4.97 4.572.895 9.244 5.766 6.163 1.292-.895-.1-5.07-5.765-6.163"/><g clip-path="url(#b)" transform="translate(.99 -.845)scale(.985)"><path fill="url(#d)" d="M53.4 9.5 9.1 54.9C-7.7 71.7 19.9 70.3 29.9 76.6c4.6 3-14.8 6.9-10.9 10.9S42.3 95.1 46.2 99c3.9 4-7.8 8.2-4 12.1 3.8 4 12.8.2 14.4 9.2 1.2 6.7 16.6 3.3 23.4-2.4l-3.5-7.6c9.7-9.8 18.3-4.4 21.8-13.4 1.9-4.8-14.6-8.3-10.2-11.4 10.5-7.4 49.2-11.2 31.4-29l-45.9-47c-5.6-5.3-15-5.3-20.2 0M42.7 79.1c1 0 33.1 4.3 20.7 7.6-4.7 1.3-26.4-7.6-20.7-7.6m61.5 17.8c0 2.3 17.5 3.5 16.6-.5-1.4-6.9-14.7-6.3-16.6.5m-74.7 12c4 3.4 10-.8 11.9-5.6-3.8-5.1-18.1.3-11.9 5.6m72.6-7.2c-4.9 4.5.9 9.2 5.7 6.1 1.2-.9-.2-5.1-5.7-6.1"/></g><path fill="url(#e)" d="M12.5 57.3C.3 69.3 21.7 66 38.1 72.4l34-59.7c-5.1-5.3-11.7-4.8-16.4 0z" opacity=".505" transform="translate(.389 -1.445)scale(.994)"/><path fill="url(#f)" d="m71.1 12.3 17.7 18c1.6 1.6 1.6 5 .7 6l-8.8-7.2L79 39.6l-7.3-3.9-11.8 7.5L56 27.5l-6.3 13.7-15.9-.2c-3 0-2.6-3.1.5-6.3 6.2-6.8 18.2-18.5 22-22.5 4-4 10.8-3.8 14.8.1" transform="translate(.389 -1.445)scale(.994)"/><path fill="url(#g)" d="M46.8 97.4s1.9 2.9 1.7 4.3c-.4 2.7-6.2 4.1-4.9 6.5s5.9 1 9.7 3.5 2.8 7.5 5.6 8.8c5.4 2.5 19.8-4.3 19-4.1-.7.1-14.1 2.9-17.1.5-3.4-2.8-4.4-4.7-7-6.4-2.4-1.5-5.7-2.2-6.5-3.4-.8-1.3 1.6-2.9 1.7-5.3.2-1.6-2.2-4.4-2.2-4.4" opacity=".217" transform="translate(.389 -1.445)scale(.994)"/><path fill="url(#h)" d="M46.8 97.4s1.9 2.9 1.7 4.3c-.4 2.7-6.2 4.1-4.9 6.5s5.9 1 9.7 3.5 2.8 7.5 5.6 8.8c5.4 2.5 19.8-4.3 19-4.1-23.8.1-19.3-6-28.5-10.1-1.3-.6-.6-2.2-.4-4.6.2-1.5-2.2-4.3-2.2-4.3" opacity=".276" transform="translate(.389 -1.445)scale(.994)"/><path fill="url(#i)" d="M87.2 84.9c21.3-7.8 28.2-8.9 35.2-16C114.2 75.8 97 79.5 83 85.6z" opacity=".453" transform="translate(.389 -1.445)scale(.994)"/><path fill="url(#j)" d="M87.2 83.9c35.1-12.4 29.2-12.4 35.2-16-11.2 4.3-32 4.7-39.4 16.7z" opacity=".512" transform="translate(.389 -1.445)scale(.994)"/><path fill="url(#k)" d="M117.8 93.8c0 .8-2 1.4-4.6 1.4-2.5 0-4.6-.6-4.6-1.4s2-1.4 4.6-1.4 4.6.6 4.6 1.4" opacity=".286" transform="translate(.389 -1.445)scale(.994)"/><path fill="url(#l)" d="M119.4 95.4c0 1.7-2.8 3-6.1 3-3.4 0-6.1-1.4-6.1-3 0-1.7 2.8-3 6.1-3 3.4 0 6.1 1.4 6.1 3" opacity=".621" transform="translate(.389 -1.445)scale(.994)"/><path fill="url(#m)" d="M104.9 97.1c2.2 2 14.2 3 16.2-.6-3.9 2.8-12.5 1.8-16.2.6" transform="translate(.389 -1.445)scale(.994)"/><path fill="url(#n)" d="M104.9 103.8c.4.9.2 1.9-.6 2.3s-1.8 0-2.2-.8c-.4-.9-.2-1.9.6-2.3.8-.5 1.8-.1 2.2.8" opacity=".286" transform="translate(.389 -1.445)scale(.994)"/><path fill="url(#o)" d="M105.8 104.2c.7 1.3.3 2.8-.9 3.4s-2.6 0-3.3-1.3-.3-2.8.9-3.4 2.6 0 3.3 1.3" opacity=".621" transform="translate(.389 -1.445)scale(.994)"/><path fill="url(#p)" d="M101.9 107.8c1.7 1.4 8.3 1.5 5.8-2.4.7 3.1-3.8 2.8-5.8 2.4" transform="translate(.389 -1.445)scale(.994)"/><path fill="url(#q)" d="M21 87.3c0-.3 22.4 6.8 26.2 10.7-3.1-3.1-19.1-10.1-21.5-10.2s-4.4-.3-4.7-.5" transform="translate(.389 -1.445)scale(.994)"/><path fill="url(#r)" d="M38 105.3c0 .8-2 1.4-4.6 1.4s-4.6-.6-4.6-1.4 2-1.4 4.6-1.4 4.6.6 4.6 1.4" opacity=".286" transform="matrix(.874 -.192 .233 .692 -19.7 35.06)"/><path fill="url(#s)" d="M39.6 106.9c0 1.7-2.8 3-6.1 3s-6.1-1.4-6.1-3c0-1.7 2.8-3 6.1-3s6.1 1.3 6.1 3" opacity=".621" transform="matrix(.874 -.192 .233 .692 -19.7 35.06)"/><path fill="url(#t)" d="M28.2 106.3s1.2 3.2 4.5 3.4c3.4.2 7.2-4 7.5-5.5-.6 1.3-3.8 5.2-7.9 5.1-2.4 0-4.1-3-4.1-3" opacity=".616" transform="translate(.389 -1.445)scale(.994)"/><path fill="none" stroke="url(#u)" stroke-width=".488" d="M63.4 6.5c-3.4 0-6.7 1.2-9 3.6L9.7 55.9c-4.1 4.1-5.1 6.8-4.8 8.3.1.8.5 1.4 1.3 2.1s2 1.4 3.4 2c2.9 1.2 6.7 2.2 10.5 3.2s7.5 2.1 10.3 3.9c.4.3.8.6 1.1 1.1s.4 1.1.3 1.7c-.2 1.1-.9 1.7-1.6 2.2-1.4 1.1-3.3 1.9-5.2 2.8s-3.8 1.9-4.8 2.6c-.5.4-.7.7-.6.7 0 0-.1-.3.1-.1.6.6 2.5 1.7 4.9 2.6s5.3 1.9 8.2 2.8c2.9 1 5.9 1.9 8.4 2.9s4.6 1.9 5.9 3.3c.7.7 1.2 1.6 1.3 2.4.1.9-.1 1.7-.5 2.4-.7 1.4-1.8 2.5-2.7 3.5-1 1-1.9 2-2.2 2.7-.2.3-.2.5-.2.7 0 .1 0 .3.3.6 1.3 1.4 4.1 1.6 7.3 2.3 1.6.4 3.3.9 4.7 2.2s2.5 3.1 3 5.7c.2 1.1.8 1.6 2.1 2 1.4.4 3.5.5 5.8.2 4.6-.7 10.1-2.9 13.2-5.5l.2-.2q-.3-.3-1.5-.9c-1-.5-2.1-.9-3-2-.4-.6-.7-1.4-.6-2.3s.6-1.6 1.2-2.2c5.2-5.2 10.2-6.5 14-7.5 1.9-.5 3.5-1 4.7-1.7 1.2-.8 2.2-1.8 3-3.8.1-.2.1-.3 0-.5-.1-.3-.4-.7-.9-1.1-1-.9-2.7-1.8-4.4-2.8-1.7-.9-3.3-1.8-4.5-2.9-.6-.6-1.2-1.2-1.3-2.3s.6-2 1.4-2.6c3-2.1 7.5-3.7 12.4-5.4s10.2-3.5 14.4-5.5c4.3-2 7.4-4.3 8.4-6.6.5-1.2.6-2.3.1-3.9s-1.7-3.4-3.9-5.5L72.7 10.2c-2.6-2.5-6-3.7-9.3-3.7zm49.8 86.9c-2.9.1-5.5 1.4-6.6 3.5.3.1.6.3 1.1.4 1.5.3 3.6.6 5.6.6s4.1-.1 5.4-.5c.5-.2.8-.3 1-.4-.3-1.2-.9-2-2.1-2.6-1.1-.8-2.8-1.1-4.4-1zm-76.5 9.8c-2.3-.2-5.1.7-6.5 1.9-.7.6-1 1.1-1 1.4s.1.8 1 1.6c1.5 1.3 3.1 1.1 5 .1 1.6-.9 3-2.5 3.9-4.2-.6-.4-1.4-.7-2.4-.8zm66.2.7c-.5.6-.7 1.2-.8 1.6 0 .6.1 1 .5 1.4.8.8 2.5 1.1 4.3.1 0-.2-.1-.5-.4-.9-.4-.8-1.7-1.7-3.6-2.2z" transform="translate(.389 -1.445)scale(.994)"/><path fill="url(#v)" d="M38.8 78.2c-2.7.8-11.4 4.1-10.2 6.6 1.2 2.4 21.5 3.4 24.6 10.6 1.4 3.1-3.1 5.5-2 8.7.9 2.5 7.6 8.7 11.9 11.7 3.4 2.3 7.8-1.9 6-5.3-2.8-5.5 9.9-12.2 15.6-15.3 3.3-1.8-6.9-10.6-6.9-10.6z" opacity=".325" transform="translate(.389 -1.445)scale(.994)"/><path fill="url(#w)" d="M39.8 80.7c2.4 1.8 7.2.7 10.1 2 6.9 3.1 15.4 6.6 13.8.4L62 84.6v-2.8l-4.1 1s-3.2-2.5-4.6-3.4c-.3-.2-1.9 1.4-1.9 1.4l-.3-1.7c-2-.2-4-.3-5.8-.3-4.2.1-7 .7-5.5 1.9" transform="translate(.389 -1.445)scale(.994)"/><path fill="url(#x)" d="M85.1 86.3c-.9 3.4 11.5 8.1 10.5 10.5-2 5.2-13.2 1.7-21.8 12.6-1.2 1.6 1.7 7.2 1.3 6.5s-3.4-5.3-2.6-7.6c2.4-7.1 26-9.8 21.7-13.2-2.5-1.9-11.4-7.3-9.1-8.8" opacity=".478" transform="translate(.389 -1.445)scale(.994)"/><path fill="#fff" d="M112.711 91.395c0 .298-.596.596-1.392.596s-1.391-.298-1.391-.596.596-.597 1.391-.597 1.392.298 1.392.597m-9.045 10.337c0 .298-.398.597-.895.597s-.895-.299-.895-.597.398-.596.895-.596.895.298.895.596m-68.288-.497c0 .298-.696.597-1.491.597s-1.491-.299-1.491-.597.696-.596 1.49-.596 1.492.298 1.492.596" opacity=".586"/><path fill="url(#y)" d="M34.3 78.5c-7.8 4.8-19.8 6.5-6.6 9.7-1.6-3.5 3.4-3.1 6.6-9.7" opacity=".251" transform="translate(.389 -1.445)scale(.994)"/><path fill="url(#z)" d="M61.9 122.2s12-1.1 14.7-4.6c1.6-2-6.4-4.4-4.7-6.4 6.5-7.4 12-7.1 19.6-10.3 7.6-3.1 4.8-4.6 2.3-6-4.2-2.3-13.6-4.8-10.5-10.4s30.4-13.4 30.4-13.4c8.3-2.8 7.2-7.9 3.2-12.2L92.6 34.8s1.2 23-3.7 32.9C82.8 79.8 50.5 93.4 64 94.9c4.8.5 7.1 2.2 9 5.8 4 7.6-11.1 21.5-11.1 21.5" opacity=".363" transform="translate(.389 -1.445)scale(.994)"/></svg>