<svg height="18" viewBox="0 0 18 18" width="18" xmlns="http://www.w3.org/2000/svg" xmlns:xlink="http://www.w3.org/1999/xlink"><linearGradient id="a" gradientUnits="userSpaceOnUse" x1="7.516" x2="7.516" y1="1.264" y2="13.673"><stop offset="0" stop-color="#c3f1ff"/><stop offset="1" stop-color="#fff" stop-opacity="0"/></linearGradient><linearGradient id="b" gradientUnits="userSpaceOnUse" x1="12.207" x2="12.207" y1="6.48" y2="15.353"><stop offset=".18" stop-color="#5ea0ef"/><stop offset="1" stop-color="#0078d4"/></linearGradient><path d="m17.969 15.02c-.168.74-1.086 1.46-2.746 2.025a22.66 22.66 0 0 1 -12.723.017c-1.531-.539-2.356-1.233-2.485-1.931-.024-.123 0-2.014 0-2.014l17.985-.168s-.01 1.982-.031 2.071" fill="#5ea0ef"/><path d="m18 12.983v.023c-.015 1.709-4.018 3.131-8.969 3.18-4.809.05-8.744-1.212-9.015-2.849a1 1 0 0 1 -.016-.17c-.006-.755.762-1.454 2.048-2.006a19 19 0 0 1 6.922-1.2 19 19 0 0 1 6.957 1.063c1.269.517 2.041 1.185 2.072 1.922z" fill="#50e6ff"/><rect fill="#005ba1" height="4.629" rx=".563" width="12.338" x="1.347" y="9.292"/><rect fill="#0078d4" height="4.629" rx=".563" width="12.338" x="1.347" y="4.664"/><rect fill="#5ea0ef" height="4.629" rx=".563" width="12.338" x="1.347" y=".035"/><path d="m2.474 2.35a.68.68 0 0 1 .68-.68.68.68 0 0 1 .68.68.68.68 0 0 1 -.68.679.68.68 0 0 1 -.68-.679m4.66 0a.21.21 0 0 0 -.211-.211h-2.163a.211.211 0 0 0 0 .422h2.163a.21.21 0 0 0 .211-.211m0 4.628a.21.21 0 0 0 -.211-.211h-2.163a.211.211 0 0 0 0 .422h2.163a.21.21 0 0 0 .211-.211m0 4.629a.21.21 0 0 0 -.211-.211h-2.163a.211.211 0 1 0 0 .421h2.163a.21.21 0 0 0 .211-.21m-3.98-3.949a.68.68 0 0 0 .68-.68.68.68 0 0 0 -.68-.68.68.68 0 0 0 -.68.68.68.68 0 0 0 .68.68m0 4.629a.68.68 0 0 0 .68-.68.68.68 0 0 0 -.68-.68.68.68 0 0 0 -.68.68.68.68 0 0 0 .68.68" fill="#fff"/><path d="m13.684 4.1v-3.5a.563.563 0 0 0 -.563-.563h-11.211a.563.563 0 0 0 -.563.563v3.5a.563.563 0 0 0 .563.563.563.563 0 0 0 -.563.563v3.5a.563.563 0 0 0 .563.562.563.563 0 0 0 -.563.563v3.5a.563.563 0 0 0 .563.563h11.211a.563.563 0 0 0 .563-.563v-3.5a.563.563 0 0 0 -.563-.563.563.563 0 0 0 .563-.562v-3.5a.563.563 0 0 0 -.563-.563.563.563 0 0 0 .563-.563" fill="url(#a)" opacity=".3"/><path d="m16.653 11.9a2.02 2.02 0 0 0 -1.729-1.944 2.55 2.55 0 0 0 -2.593-2.466 2.59 2.59 0 0 0 -2.482 1.724 2.4 2.4 0 0 0 -2.088 2.327 2.444 2.444 0 0 0 2.5 2.379h4.388a2.04 2.04 0 0 0 2.004-2.02" fill="url(#b)"/></svg>