<svg xmlns="http://www.w3.org/2000/svg" width="18" height="18" viewBox="0 0 18 18"><mask id="a" width="16" height="16.759" x="1" y=".621" maskUnits="userSpaceOnUse"/><g fill="currentColor" mask="url(#a)"><path d="M2.283 10.869H7.53l-3.075 6.149a.655.655 0 0 1-1.171 0l-2.147-4.3a1.28 1.28 0 0 1 1.146-1.849"/><path d="M7.019.621h7.232a2.745 2.745 0 0 1 2.456 3.972l-2.358 4.714-.021.045-.393.785.414-.83a2.744 2.744 0 0 0-2.476-3.928H5.3a.655.655 0 0 1-.585-.948L6.434.982a.66.66 0 0 1 .585-.361"/><path d="M7.019.621h7.232a2.745 2.745 0 0 1 2.456 3.972l-2.363 4.725-.017.034-.209.419.226-.453a2.745 2.745 0 0 0-2.471-3.939H5.3a.655.655 0 0 1-.585-.948L6.434.982a.66.66 0 0 1 .585-.361"/><path fill-opacity=".24" d="M11.872 10.942H2.3a1.31 1.31 0 0 0-1.171.723l2.379-4.758a1.31 1.31 0 0 1 1.171-.723h9.572A2.74 2.74 0 0 0 16.7 4.67l.159-.316-2.535 5.07a2.75 2.75 0 0 1-2.452 1.518"/><path fill-opacity=".32" d="M11.872 11.235H2.3a1.31 1.31 0 0 0-1.171.723L3.508 7.2a1.31 1.31 0 0 1 1.171-.723h9.572A2.74 2.74 0 0 0 16.7 4.963l.159-.316-2.535 5.07a2.75 2.75 0 0 1-2.452 1.518"/><path d="M11.872 10.869H2.3a1.31 1.31 0 0 0-1.171.723l2.379-4.758a1.31 1.31 0 0 1 1.171-.723h9.572A2.74 2.74 0 0 0 16.7 4.6l.159-.316-2.535 5.07a2.75 2.75 0 0 1-2.452 1.515"/><path d="M11.867 10.869h-9.56a1.31 1.31 0 0 0-1.171.723l2.379-4.758a1.31 1.31 0 0 1 1.171-.723H14.3a2.67 2.67 0 0 0 2.38-1.464l-2.359 4.706a2.74 2.74 0 0 1-2.454 1.516" opacity=".7"/></g></svg>