<svg height="18" viewBox="0 0 18 18" width="18" xmlns="http://www.w3.org/2000/svg" xmlns:xlink="http://www.w3.org/1999/xlink"><linearGradient id="a" gradientTransform="matrix(1 0 0 -1 -259 -351)" gradientUnits="userSpaceOnUse" x1="262.943" x2="264.773" y1="-361.368" y2="-368.322"><stop offset="0" stop-color="#159455"/><stop offset="1" stop-color="#3fbda9"/></linearGradient><linearGradient id="b" gradientTransform="matrix(1 0 0 -1 -259 -351)" gradientUnits="userSpaceOnUse" x1="263.98" x2="274.597" y1="-352.196" y2="-356.916"><stop offset="0" stop-color="#23a794"/><stop offset=".568" stop-color="#007a84"/><stop offset="1" stop-color="#005158"/></linearGradient><linearGradient id="c" gradientTransform="matrix(1 0 0 -1 -259 -351)" gradientUnits="userSpaceOnUse" x1="271.456" x2="269.534" y1="-359.139" y2="-354.107"><stop offset="0" stop-color="#004a8b"/><stop offset=".406" stop-color="#105da8" stop-opacity=".5"/><stop offset="1" stop-color="#2170c6" stop-opacity="0"/></linearGradient><linearGradient id="d" gradientTransform="matrix(1 0 0 -1 -259 -351)" gradientUnits="userSpaceOnUse" x1="263.151" x2="272.758" y1="-356.537" y2="-361.295"><stop offset="0" stop-color="#7fd9a2"/><stop offset=".196" stop-color="#47bf79"/><stop offset=".714" stop-color="#009280"/><stop offset="1" stop-color="#007a84"/></linearGradient><linearGradient id="e" gradientTransform="matrix(1 0 0 -1 -259 -351)" gradientUnits="userSpaceOnUse" x1="263.08" x2="265.276" y1="-356.705" y2="-357.803"><stop offset="0" stop-color="#a8e47c" stop-opacity=".86"/><stop offset=".367" stop-color="#87d152" stop-opacity=".2"/><stop offset="1" stop-color="#58be5a" stop-opacity="0"/></linearGradient><mask id="f" height="16.759" maskUnits="userSpaceOnUse" width="16" x="1" y=".621"><path d="m7.02.621h7.231a2.745 2.745 0 0 1 2.477 3.928l.135-.268-2.513 5.026-.022.045-.393.785.393-.786a2.75 2.75 0 0 1 -2.456 1.518h-4.342l-3.075 6.149a.654.654 0 0 1 -1.17 0l-2.148-4.3a1.27 1.27 0 0 1 .006-1.158l2.365-4.73a1.31 1.31 0 0 1 1.171-.723h9.062a2.7 2.7 0 0 0 -1.868-.732h-6.573a.655.655 0 0 1 -.585-.948l1.719-3.445a.66.66 0 0 1 .586-.361" fill="#fff"/></mask><path d="m7.02.621h7.231a2.745 2.745 0 0 1 2.477 3.928l.135-.268-2.513 5.026-.022.045-.393.785.393-.786a2.75 2.75 0 0 1 -2.456 1.518h-4.342l-3.075 6.149a.654.654 0 0 1 -1.17 0l-2.148-4.3a1.27 1.27 0 0 1 .006-1.158l2.365-4.73a1.31 1.31 0 0 1 1.171-.723h9.062a2.7 2.7 0 0 0 -1.868-.732h-6.573a.655.655 0 0 1 -.585-.948l1.719-3.445a.66.66 0 0 1 .586-.361" fill="#fff"/><g mask="url(#f)"><path d="m2.283 10.869h5.247l-3.075 6.149a.655.655 0 0 1 -1.171 0l-2.147-4.3a1.28 1.28 0 0 1 1.146-1.849" fill="url(#a)"/><path d="m7.019.621h7.232a2.745 2.745 0 0 1 2.456 3.972l-2.358 4.714-.021.045-.393.785.414-.83a2.744 2.744 0 0 0 -2.476-3.928h-6.573a.655.655 0 0 1 -.585-.948l1.719-3.449a.66.66 0 0 1 .585-.361" fill="url(#b)"/><path d="m7.019.621h7.232a2.745 2.745 0 0 1 2.456 3.972l-2.363 4.725-.017.034-.209.419.226-.453a2.745 2.745 0 0 0 -2.471-3.939h-6.573a.655.655 0 0 1 -.585-.948l1.719-3.449a.66.66 0 0 1 .585-.361" fill="url(#c)"/><path d="m11.872 10.942h-9.572a1.31 1.31 0 0 0 -1.171.723l2.379-4.758a1.31 1.31 0 0 1 1.171-.723h9.572a2.74 2.74 0 0 0 2.449-1.514l.159-.316-2.535 5.07a2.75 2.75 0 0 1 -2.452 1.518" fill-opacity=".24"/><path d="m11.872 11.235h-9.572a1.31 1.31 0 0 0 -1.171.723l2.379-4.758a1.31 1.31 0 0 1 1.171-.723h9.572a2.74 2.74 0 0 0 2.449-1.514l.159-.316-2.535 5.07a2.75 2.75 0 0 1 -2.452 1.518" fill-opacity=".32"/><path d="m11.872 10.869h-9.572a1.31 1.31 0 0 0 -1.171.723l2.379-4.758a1.31 1.31 0 0 1 1.171-.723h9.572a2.74 2.74 0 0 0 2.449-1.511l.159-.316-2.535 5.07a2.75 2.75 0 0 1 -2.452 1.515" fill="url(#d)"/><path d="m11.867 10.869h-9.56a1.31 1.31 0 0 0 -1.171.723l2.379-4.758a1.31 1.31 0 0 1 1.171-.723h9.614a2.67 2.67 0 0 0 2.38-1.464l-2.359 4.706a2.74 2.74 0 0 1 -2.454 1.516" fill="url(#e)" opacity=".7"/></g></svg>