<svg xmlns="http://www.w3.org/2000/svg" id="ba4919b9-482a-4601-a507-e1cb9c3f18c3" width="18" height="18" viewBox="0 0 18 18"><defs><linearGradient id="bf1af69a-6e94-4e91-8588-549cb62ce951" x1="262.943" x2="264.773" y1="-361.368" y2="-368.322" gradientTransform="matrix(1 0 0 -1 -259 -351)" gradientUnits="userSpaceOnUse"><stop offset="0" stop-color="#159455"/><stop offset="1" stop-color="#3fbda9"/></linearGradient><linearGradient id="bf21e1fc-27ba-435a-bf83-c3214ae2881a" x1="263.98" x2="274.597" y1="-352.196" y2="-356.916" gradientTransform="matrix(1 0 0 -1 -259 -351)" gradientUnits="userSpaceOnUse"><stop offset="0" stop-color="#23a794"/><stop offset=".568" stop-color="#007a84"/><stop offset="1" stop-color="#005158"/></linearGradient><linearGradient id="b597e15c-979a-4069-af4a-a47a7e5d8979" x1="271.456" x2="269.534" y1="-359.139" y2="-354.107" gradientTransform="matrix(1 0 0 -1 -259 -351)" gradientUnits="userSpaceOnUse"><stop offset="0" stop-color="#004a8b"/><stop offset=".406" stop-color="#105da8" stop-opacity=".5"/><stop offset="1" stop-color="#2170c6" stop-opacity="0"/></linearGradient><linearGradient id="e1bbe83f-6ec8-4780-9a6c-215d171f58b6" x1="263.151" x2="272.758" y1="-356.537" y2="-361.295" gradientTransform="matrix(1 0 0 -1 -259 -351)" gradientUnits="userSpaceOnUse"><stop offset="0" stop-color="#7fd9a2"/><stop offset=".196" stop-color="#47bf79"/><stop offset=".714" stop-color="#009280"/><stop offset="1" stop-color="#007a84"/></linearGradient><linearGradient id="b66967df-cbfe-4d0c-81da-52941e4a27a5" x1="263.08" x2="265.276" y1="-356.705" y2="-357.803" gradientTransform="matrix(1 0 0 -1 -259 -351)" gradientUnits="userSpaceOnUse"><stop offset="0" stop-color="#a8e47c" stop-opacity=".86"/><stop offset=".367" stop-color="#87d152" stop-opacity=".2"/><stop offset="1" stop-color="#58be5a" stop-opacity="0"/></linearGradient><mask id="e9bc2698-00b3-4450-a305-4d48e69c6ba4" width="16" height="16.759" x="1" y=".621" maskUnits="userSpaceOnUse"><path id="bb174594-fe99-4829-b2eb-db1301c0edf3" fill="#fff" d="M7.02.621h7.231a2.745 2.745 0 0 1 2.477 3.928l.135-.268-2.513 5.026-.022.045-.393.785.393-.786a2.75 2.75 0 0 1-2.456 1.518H7.53l-3.075 6.149a.654.654 0 0 1-1.17 0l-2.148-4.3a1.27 1.27 0 0 1 .006-1.158l2.365-4.73a1.31 1.31 0 0 1 1.171-.723h9.062a2.7 2.7 0 0 0-1.868-.732H5.3a.655.655 0 0 1-.585-.948L6.434.982A.66.66 0 0 1 7.02.621"/></mask></defs><path id="a89b33df-ced6-49a3-aeee-25a65899c40f" fill="#fff" d="M7.02.621h7.231a2.745 2.745 0 0 1 2.477 3.928l.135-.268-2.513 5.026-.022.045-.393.785.393-.786a2.75 2.75 0 0 1-2.456 1.518H7.53l-3.075 6.149a.654.654 0 0 1-1.17 0l-2.148-4.3a1.27 1.27 0 0 1 .006-1.158l2.365-4.73a1.31 1.31 0 0 1 1.171-.723h9.062a2.7 2.7 0 0 0-1.868-.732H5.3a.655.655 0 0 1-.585-.948L6.434.982A.66.66 0 0 1 7.02.621"/><g mask="url(#e9bc2698-00b3-4450-a305-4d48e69c6ba4)"><path fill="url(#bf1af69a-6e94-4e91-8588-549cb62ce951)" d="M2.283 10.869H7.53l-3.075 6.149a.655.655 0 0 1-1.171 0l-2.147-4.3a1.28 1.28 0 0 1 1.146-1.849"/><path fill="url(#bf21e1fc-27ba-435a-bf83-c3214ae2881a)" d="M7.019.621h7.232a2.745 2.745 0 0 1 2.456 3.972l-2.358 4.714-.021.045-.393.785.414-.83a2.744 2.744 0 0 0-2.476-3.928H5.3a.655.655 0 0 1-.585-.948L6.434.982a.66.66 0 0 1 .585-.361"/><path fill="url(#b597e15c-979a-4069-af4a-a47a7e5d8979)" d="M7.019.621h7.232a2.745 2.745 0 0 1 2.456 3.972l-2.363 4.725-.017.034-.209.419.226-.453a2.745 2.745 0 0 0-2.471-3.939H5.3a.655.655 0 0 1-.585-.948L6.434.982a.66.66 0 0 1 .585-.361"/><path fill-opacity=".24" d="M11.872 10.942H2.3a1.31 1.31 0 0 0-1.171.723l2.379-4.758a1.31 1.31 0 0 1 1.171-.723h9.572A2.74 2.74 0 0 0 16.7 4.67l.159-.316-2.535 5.07a2.75 2.75 0 0 1-2.452 1.518"/><path fill-opacity=".32" d="M11.872 11.235H2.3a1.31 1.31 0 0 0-1.171.723L3.508 7.2a1.31 1.31 0 0 1 1.171-.723h9.572A2.74 2.74 0 0 0 16.7 4.963l.159-.316-2.535 5.07a2.75 2.75 0 0 1-2.452 1.518"/><path fill="url(#e1bbe83f-6ec8-4780-9a6c-215d171f58b6)" d="M11.872 10.869H2.3a1.31 1.31 0 0 0-1.171.723l2.379-4.758a1.31 1.31 0 0 1 1.171-.723h9.572A2.74 2.74 0 0 0 16.7 4.6l.159-.316-2.535 5.07a2.75 2.75 0 0 1-2.452 1.515"/><path fill="url(#b66967df-cbfe-4d0c-81da-52941e4a27a5)" d="M11.867 10.869h-9.56a1.31 1.31 0 0 0-1.171.723l2.379-4.758a1.31 1.31 0 0 1 1.171-.723H14.3a2.67 2.67 0 0 0 2.38-1.464l-2.359 4.706a2.74 2.74 0 0 1-2.454 1.516" opacity=".7" style="isolation:isolate"/></g></svg>