<svg viewBox="0 0 24 24" xmlns="http://www.w3.org/2000/svg" fill="#3FA9F5"><path d="m23.97 9.88c-1.67-7.63-8.26-10.56-13.82-9.75-5.78.84-10.77 5.7-10.09 13.21.28 3.08 1.85 5.97 4.17 7.94 2.58 2.2 6.08 3.16 9.39 2.53.08-.02.14-.1.12-.18 0-.04-.08-.06-.16-.05-3.18.42-6.51-.65-8.87-2.86a11.222 11.222 0 0 1 -3.48-7.09c-.57-6.64 4.19-11.12 9.41-11.66 4.25-.44 8.79 1.91 10.68 6.76.16.41-.08.81-.5.89-2.92.54-12.51 2.34-14.43 2.7-.17.03-.32-.08-.32-.26-.12-6.02 5.96-8.55 10.45-4.79.06.05.26.01.32-.05.03-.03.04-.22-.02-.28-5.39-5.33-13.24-.85-12.8 6.39.03.44.43.74.85.69l12.33-1.64c0 .08.02.14.02.14.37 6.24-5.86 8.98-10.43 5.15-.06-.05-.24-.03-.29.03-.02.03-.07.19 0 .25 5.25 5.19 12.85 1.06 12.81-5.86l3.38-.45c.85-.11 1.47-.91 1.28-1.77z"/></svg>