<svg viewBox="0 0 24 24" xmlns="http://www.w3.org/2000/svg"><path d="m0 0v24h24v-24zm3.056 3h3.864q.945 0 1.665.347t1.106.977c.262.42.392.902.392 1.46q0 .835-.399 1.478a2.6 2.6 0 0 1 -1.125.99 2 2 0 0 1 -.297.103q-.066.02-.13.04l2.144 3.605h-2.012l-1.94-3.4h-1.513v3.4h-1.755zm8.51 0h2.444l1.851 5.907.154.773.136-.773 1.786-5.907h2.482v9h-1.736v-6.422l.026-.47-2.096 6.892h-1.273l-2.07-6.846.026.424v6.422h-1.73zm-6.754 1.459v2.681h1.993q.444-.001.771-.161.335-.167.515-.47c.12-.205.18-.439.18-.713q0-.411-.18-.707a1.17 1.17 0 0 0 -.515-.462 1.7 1.7 0 0 0 -.77-.168zm-1.816 14.741h9.6v1.8h-9.6z"/></svg>