<svg viewBox="0 0 128 128" xmlns="http://www.w3.org/2000/svg"><path d="m41.717 5.486-5.07 12.772-32.38 7.953.05 61.44 24.624 34.865 23.907-3.036.109-.011.023-.002 43.739-5.826-6.535-12.569h-63.254v-74.142h74.142v65.724l7.606.067 12.617-64.366-19.7-22.869-33.487 11.994zm-13.787 22.444v72.142h72.142v-72.142zm35.716 8.603h6.522l7.228 11.631 7.231-11.63h6.521v27.49h-6.01v-17.944l-7.742 11.738h-.158l-7.656-11.617v17.822h-5.936zm-27.076.037h12.557c3.479 0 6.143.927 7.996 2.78a8.533 8.533 0 0 1 2.354 6.279v.084a8.533 8.533 0 0 1 -1.633 5.426 9.435 9.435 0 0 1 -4.254 3.084l6.717 9.752h-7.07l-5.694-8.422h-4.986v8.435h-5.987zm6.01 5.366v7.886l6.182.05a5.022 5.022 0 0 0 3.377-1.11 3.657 3.657 0 0 0 1.218-2.828v-.073a3.474 3.474 0 0 0 -1.218-2.937 5.522 5.522 0 0 0 -3.487-.988zm-6.033 44.81h27.43v4.572h-27.43z" fill="#fc801d"/></svg>