<svg height="64" viewBox="0 0 64 64" width="64" xmlns="http://www.w3.org/2000/svg"><g fill="none" fill-rule="evenodd"><path d="m0 0h64v64h-64z" fill="#7aa116"/><path d="m44.77 43.372-6.062-6.078-1.416 1.412 6.055 6.071-11.342 4.701-11.383-4.711 6.085-6.059-1.413-1.417-6.073 6.048-4.7-11.335 4.7-11.354 6.073 6.058 1.413-1.416-6.076-6.06 11.365-4.711 11.345 4.697-6.05 6.076 1.418 1.411 6.055-6.082 4.716 11.373zm9.23-10.372v-2h-2.768l-4.939-11.913 2.362-2.371-1.418-1.411-2.369 2.38-11.868-4.913v-2.772h-2v2.769l-11.903 4.934-2.406-2.401-1.412 1.416 2.41 2.404-4.916 11.878h-2.773v2h2.769l4.919 11.865-2.409 2.399 1.412 1.417 2.395-2.385 11.914 4.931v2.773h2v-2.769l11.875-4.922 2.363 2.369 1.416-1.412-2.354-2.36 4.928-11.906zm-22 3.28c-2.36 0-4.28-1.92-4.28-4.28s1.92-4.28 4.28-4.28a4.285 4.285 0 0 1 4.281 4.28c0 2.36-1.92 4.28-4.281 4.28m0-10.56a6.29 6.29 0 0 0 -6.28 6.28 6.29 6.29 0 0 0 6.28 6.28 6.29 6.29 0 0 0 6.281-6.28 6.29 6.29 0 0 0 -6.281-6.28" fill="#fff"/></g></svg>