<svg viewBox="0 0 64 64" xmlns="http://www.w3.org/2000/svg" xmlns:xlink="http://www.w3.org/1999/xlink"><linearGradient id="a" gradientTransform="matrix(1 0 0 -1 -106 -131)" gradientUnits="userSpaceOnUse" x1="114" x2="162" y1="-142.9" y2="-183.1"><stop offset="0" stop-color="#fff"/><stop offset=".1" stop-color="#e7e8e6"/><stop offset=".1" stop-color="#cdd0d0"/><stop offset=".2" stop-color="#b5bbbd"/><stop offset=".2" stop-color="#a5acaf"/><stop offset=".3" stop-color="#9ba3a7"/><stop offset=".3" stop-color="#98a0a4"/><stop offset=".4" stop-color="#828a8f"/><stop offset=".5" stop-color="#667075"/><stop offset=".6" stop-color="#535c63"/><stop offset=".7" stop-color="#475158"/><stop offset=".8" stop-color="#434d54"/><stop offset="1" stop-color="#475157"/></linearGradient><linearGradient id="b" gradientTransform="matrix(1 0 0 -1 -106 -131)" gradientUnits="userSpaceOnUse" x1="115.47" x2="160.47" y1="-144.06" y2="-181.86"><stop offset="0" stop-color="#0b1f2a"/><stop offset=".2" stop-color="#333f47"/><stop offset=".5" stop-color="#777f84"/><stop offset=".5" stop-color="#81898d"/><stop offset=".7" stop-color="#b3b8b8"/><stop offset=".8" stop-color="#d2d5d3"/><stop offset=".8" stop-color="#dee0dd"/><stop offset="1" stop-color="#fbfbfb"/></linearGradient><linearGradient id="c"><stop offset="0" stop-color="#e1e3e1"/><stop offset=".1" stop-color="#c1c5c4"/><stop offset=".3" stop-color="#9ba1a2"/><stop offset=".5" stop-color="#7d8487"/><stop offset=".7" stop-color="#687074" stop-opacity="0"/><stop offset=".8" stop-color="#5b6469" stop-opacity="0"/><stop offset="1" stop-color="#576065" stop-opacity="0"/></linearGradient><linearGradient id="d" gradientTransform="matrix(-1 0 0 1 1976.672 239.007)" gradientUnits="userSpaceOnUse" x1="1933.73" x2="1955.63" xlink:href="#c" y1="-176.94" y2="-237.14"/><linearGradient id="e" gradientTransform="matrix(1 0 0 -1 -106 -131)" gradientUnits="userSpaceOnUse" x1="124.2" x2="151.8" xlink:href="#c" y1="-139.1" y2="-186.9"/><linearGradient id="f" gradientTransform="matrix(1 0 0 -1 -106 -131)" gradientUnits="userSpaceOnUse" x1="150.49" x2="148.79" y1="-170.39" y2="-173.19"><stop offset="0" stop-color="#27343c"/><stop offset="1" stop-color="#00111e" stop-opacity="0"/></linearGradient><linearGradient id="g" gradientTransform="matrix(1 0 0 -1 -106 -131)" gradientUnits="userSpaceOnUse" x1="145.58" x2="142.78" y1="-160.11" y2="-155.61"><stop offset=".1" stop-color="#02131f"/><stop offset=".9" stop-color="#02131f" stop-opacity="0"/></linearGradient><linearGradient id="h" gradientTransform="matrix(1 0 0 -1 -106 -131)" gradientUnits="userSpaceOnUse" x1="137.98" x2="133.78" y1="-167.34" y2="-168.54"><stop offset=".2" stop-color="#02131f"/><stop offset=".9" stop-color="#02131f" stop-opacity="0"/></linearGradient><linearGradient id="i" gradientTransform="matrix(1 0 0 -1 -106 -131)" gradientUnits="userSpaceOnUse" x1="126.79" x2="126.19" y1="-172.9" y2="-171.4"><stop offset="0" stop-color="#02131f"/><stop offset=".1" stop-color="#02131f"/><stop offset="1" stop-color="#02131f" stop-opacity="0"/></linearGradient><linearGradient id="j" gradientTransform="matrix(1 0 0 -1 -106 -131)" gradientUnits="userSpaceOnUse" x1="141.6" x2="138.2" y1="-148.21" y2="-148.61"><stop offset=".3" stop-color="#02131f"/><stop offset=".8" stop-color="#02131f" stop-opacity="0"/></linearGradient><linearGradient id="k" gradientTransform="matrix(1 0 0 -1 -106 -131)" gradientUnits="userSpaceOnUse" x1="141.71" x2="139.41" y1="-148.16" y2="-148.46"><stop offset=".4" stop-color="#27343c"/><stop offset="1" stop-color="#3b474e" stop-opacity="0"/></linearGradient><linearGradient id="l" gradientTransform="matrix(1 0 0 -1 -106 -131)" gradientUnits="userSpaceOnUse" x1="105.64" x2="133.54" y1="-163.83" y2="-179.93"><stop offset="0" stop-color="#24303a" stop-opacity="0"/><stop offset="0" stop-color="#25323b" stop-opacity="0"/><stop offset=".1" stop-color="#27343c"/></linearGradient><linearGradient id="m" gradientTransform="matrix(1 0 0 -1 -106 -131)" gradientUnits="userSpaceOnUse" x1="137.95" x2="137.95" y1="-168.4" y2="-163.6"><stop offset=".3" stop-color="#a5abaf"/><stop offset="1" stop-color="#a5abaf" stop-opacity="0"/></linearGradient><linearGradient id="n"><stop offset="0" stop-color="#dee0dd"/><stop offset="0" stop-color="#c5c9c7"/><stop offset="0" stop-color="#9ea4a5"/><stop offset="0" stop-color="#82898c"/><stop offset="0" stop-color="#71797d"/><stop offset="0" stop-color="#6b7378"/><stop offset=".2" stop-color="#333f47"/><stop offset=".5" stop-color="#27343c"/><stop offset=".8" stop-color="#333f47"/><stop offset="1" stop-color="#434d54"/></linearGradient><linearGradient id="o" gradientTransform="matrix(1 0 0 -1 -106 -131)" gradientUnits="userSpaceOnUse" x1="153.65" x2="153.65" xlink:href="#n" y1="-133.3" y2="-194.3"/><linearGradient id="p" gradientTransform="matrix(1 0 0 -1 -106 -131)" gradientUnits="userSpaceOnUse" x1="138" x2="138.3" xlink:href="#n" y1="-131.7" y2="-131.7"/><linearGradient id="q" gradientTransform="matrix(1 0 0 -1 -106 -131)" gradientUnits="userSpaceOnUse" x1="163.29" x2="149.79" y1="-139.09" y2="-158.89"><stop offset=".7" stop-color="#27343c"/><stop offset=".7" stop-color="#2b373f"/><stop offset=".7" stop-color="#36424a"/><stop offset=".7" stop-color="#49545b"/><stop offset=".8" stop-color="#646d73" stop-opacity="0"/><stop offset=".8" stop-color="#868d92" stop-opacity="0"/><stop offset=".8" stop-color="#b0b5b8" stop-opacity="0"/><stop offset=".8" stop-color="#e1e3e4" stop-opacity="0"/><stop offset=".8" stop-color="#fff" stop-opacity="0"/></linearGradient><path d="m63.3 32c0 17.3-14 31.3-31.3 31.3s-31.3-14-31.3-31.3 14-31.3 31.3-31.3 31.3 14 31.3 31.3m-31.3-29.4c-16.3 0-29.4 13.1-29.4 29.4s13.2 29.4 29.4 29.4c16.3 0 29.4-13.2 29.4-29.4 0-16.3-13.1-29.4-29.4-29.4" fill="url(#a)"/><path d="m32 2.6c-16.3 0-29.4 13.1-29.4 29.4s13.2 29.4 29.4 29.4c16.3 0 29.4-13.2 29.4-29.4 0-16.3-13.1-29.4-29.4-29.4m0 56.9c-15.2 0-27.5-12.3-27.5-27.5s12.3-27.5 27.5-27.5 27.5 12.3 27.5 27.5-12.3 27.5-27.5 27.5" fill="url(#b)"/><path d="m32 63.3c17.3 0 31.3-14 31.3-31.3s-14-31.3-31.3-31.3-31.3 14-31.3 31.3 14 31.3 31.3 31.3m0-63.3c17.6 0 32 14.4 32 32s-14.4 32-32 32-32-14.4-32-32 14.4-32 32-32" fill="url(#d)" opacity=".4"/><path d="m2.2 32.1c0-16.4 13.3-29.9 29.8-29.9s29.8 13.4 29.8 29.9c0 16.4-13.3 29.7-29.8 29.7s-29.8-13.3-29.8-29.7m9.3-20.6c-5.3 5.3-8.6 12.6-8.6 20.6s3.3 15.3 8.5 20.5c5.3 5.2 12.6 8.5 20.6 8.5s15.3-3.2 20.5-8.5c5.3-5.2 8.5-12.5 8.5-20.5s-3.3-15.3-8.5-20.6-12.5-8.6-20.5-8.6-15.3 3.3-20.5 8.6" fill="#fff"/><path d="m32 59.6c-7.4 0-14.3-2.9-19.5-8.1s-8.1-12.1-8.1-19.5 2.9-14.3 8.1-19.5 12.1-8.1 19.5-8.1 14.3 2.9 19.5 8.1 8.1 12.1 8.1 19.5-2.9 14.3-8.1 19.5-12.1 8.1-19.5 8.1m0-.8c7.1 0 13.9-2.8 18.9-7.8 5.1-5.1 7.8-11.8 7.8-18.9s-2.8-13.9-7.8-18.9c-5.1-5.1-11.8-7.8-18.9-7.8s-13.9 2.8-18.9 7.8c-5.1 4.9-7.9 11.7-7.9 18.8s2.8 13.9 7.8 18.9c5.1 5.1 11.9 7.9 19 7.9" fill="url(#e)" opacity=".4"/><path d="m56.3 45c-.5-.4-19.8-15.7-19.8-15.7l-4.5-25.7c-.3.1-.7.4-.9.8l-3.2 25-19.9 15.3s-.4.5-.6.8c-.1.2-.1.5-.1.8l24.6-10.1 24.6 10.1c.2-.5 0-1-.2-1.3" fill="#fff"/><path d="m32.2 32.8-.2 4.6 22.6 9.1c.8.4 1.4.2 2-.2l-24.1-13.6c-.1-.1-.3 0-.3.1" fill="#565f64"/><path d="m32.2 32.8s1.3 2.3 2.8 3.9c2.1 2.3 4.9 3.9 4.9 3.9l14.7 5.9c.8.4 1.4.2 2-.2l-24.1-13.6c-.1-.1-.3 0-.3.1" fill="url(#f)"/><path d="m56.5 45.4c0-.1-.1-.2-.2-.4l-20.6-15.1-2.8 1.8s.2.1.3 0c.3-.1.9-.2 1.5 0 .5.2 21.8 13.8 21.8 13.8z" fill="#a4aaae" fill-opacity=".6"/><path d="m55.8 44.5-19.2-15.2-.9.6 20.6 15.2c-.1-.2-.3-.4-.5-.6" fill="#333e46"/><path d="m32.5 31.3-.1.1s0 .2.2.1c.1-.1 3-1.6 4-2.2l-3.5-24c-.1-.9-.5-1.3-1.2-1.6l.4 27.8z" fill="#565f64"/><path d="m30.8 5.3v1.3l-2.2 22.1c0 .3.1.6.4.8l1.3 1 .9-24.4.1-1.9c-.3.2-.4.6-.5 1.1m-1.2 25.6-1.2-1-20.3 14.7s-.6.4-.7.8l.7-.4 21.3-13.4c.4-.2.5-.4.2-.7" fill="#a4aaae" fill-opacity=".6"/><path d="m31.7 32.8c0-.1-.1-.2-.2-.1l-24.2 13.7c.6.4 1.2.5 2 .2l22.6-9.1z" fill="#565f64"/><path d="m32.4 31.4.1-.1zm0 0s0 .1.1.1h.1c.1-.1 3-1.6 4-2.2l-.4-2.9-3.1-21.1q0-.6-.3-.9s1.5 20.2 1.5 22.4c0 2.9-1.9 4.6-1.9 4.6" fill="url(#g)"/><path d="m31.7 32.8c0-.1-.1-.2-.2-.1l-24.2 13.7c.6.4 1.2.5 2 .2l22.6-9.1z" fill="url(#h)" fill-opacity=".8"/><path d="m9.3 46.5 22.6-9.1-.2-4.4c-.4 1.2-1.1 2.5-3 3.5-1.4.8-14.8 7.4-19.6 9.7-.3.2-.7.3-.9.4.4.2.7.1 1.1-.1" fill="url(#i)" opacity=".8"/><path d="m32.5 31.3-.1.1s0 .2.2.1c.1-.1 3-1.6 4-2.2l-3.5-24c-.1-.9-.5-1.3-1.2-1.6l.4 27.8z" fill="url(#j)"/><path d="m32.5 31.3-.1.1s0 .2.2.1c.1-.1 3-1.6 4-2.2l-3.5-24c-.1-.9-.5-1.3-1.2-1.6l.4 27.8z" fill="url(#k)"/><path d="m5.1 44.4c-.7-1.6-4.7-9.4-.3-24.4h-1.7c-.9 3-1.6 4.8-2 7.5 0 0-.2 1-.3 2.1s-.1 1.7-.1 2.4c0 6 1.5 9.5 1.5 9.5 1.6 5 4.4 9.5 8.2 12.9 3.3 2.9 8.4 5.1 12.6 5.9-.7-.1-12.7-5.2-17.9-15.9" fill="url(#l)"/><path d="m32.4 32.6h-.9c.1 0 .2 0 .2.1l.2 4.6h.1l.2-4.6c0-.1.1-.2.2-.1" fill="url(#m)"/><path d="m42 2.3c10.5 4 20.4 15 20.4 28.9 0 16.8-13.4 30.5-30.4 30.5v1.6c17 0 31.3-14 31.3-31.3 0-13.8-8.8-25.4-21.3-29.7" fill="url(#o)"/><path d="m32.3.7h-.3z" fill="url(#p)"/><path d="m58.8 20.2c-7-16.1-22.8-17-23.7-17.1h-.1c12.1 2.2 19.8 10.1 22.5 18.4v.1c1.2 3.2 1.8 6.6 1.9 10.3.1 3.5-.7 7.4-2.2 11-.1.5-.2 1.1-.3 1.1h1.6c4.8-9 2.7-18.1.3-23.8" fill="url(#q)"/><path d="m2.2 32.1c0-16.4 13.3-29.9 29.8-29.9s29.8 13.4 29.8 29.9c0 16.4-13.3 29.7-29.8 29.7s-29.8-13.3-29.8-29.7m9.3-20.6c-5.3 5.3-8.6 12.6-8.6 20.6s3.3 15.3 8.5 20.5c5.3 5.2 12.6 8.5 20.6 8.5s15.3-3.2 20.5-8.5c5.3-5.2 8.5-12.5 8.5-20.5s-3.3-15.3-8.5-20.6-12.5-8.6-20.5-8.6-15.3 3.3-20.5 8.6" fill="#fbfbfb"/><path d="m7.9 44.8 20.4-14.7c1.1.6 2.9 1.4 3.1 1.4.2.1.2-.1.2-.1l-2.5-2.1c-.3-.2-.4-.5-.4-.8l2.4-24.1c-.1.1-.1.3-.2.4-.1.2-.1.3-.1.5l-3.5 24.1-19.2 15.1c-.1.1-.2.2-.2.3" fill="#333f47"/></svg>