<svg xmlns="http://www.w3.org/2000/svg" width="1000" height="1007.85" viewBox="0 0 1000 1007.85"><g fill="#085aa4"><path d="M381.558 183.732v581.711H159.076V183.761H.493V.502h539.648v183.26z"/><path fill="#000" d="m999.478 582.127-8.206 183.345H422.13V593.604L549.093 504.4q27.918-19.166 104.24-82.347t99.62-97.153 23.24-71.157q0-35.55-20.227-57.184-20.257-21.605-53.082-21.605-82.117 0-91.959 129.144l-188.795-36.67q20.802-131.87 103.15-196.17t194.534-64.3q121.513 0 198.408 65.132t76.896 173.475q0 72.219-41.89 137.35-41.834 65.132-244.891 199.212z"/><path d="M194.967 853.313v52.781H174.78v-52.778h-14.389v-16.628h48.965v16.628zm110.437 52.781-3.919-13.678h-18.609l-4.17 13.678h-17.287l21.457-69.406h22.525l21.712 69.406zm-18.917-28.83h11.289l-5.645-20.134zm158.329 28.83h-23.34l-12.001-26.237-7.168 10.221v16.016h-20.085v-69.406h20.085v28.679l19.17-28.68h19.119L423.05 862.06zm106.844-16.575v16.575h-52.222v-69.406h52.222v16.016h-31.322v10.07h25.32v15.407h-25.32v11.338zm169.312-37.039v52.781h-20.187v-52.778h-14.389v-16.628h48.965v16.628zm157.707-16.625-18.406 69.406h-17.899l-9.71-38.288-9.154 38.288h-18.661l-18.458-69.406h20.033l9.713 40.017 9.458-40.017h16.78l10.27 40.017 9.71-40.017zm85.969 70.198q-14.644 0-23.873-9.71-9.229-9.717-9.229-25.985 0-15.564 8.823-25.704 8.823-10.145 24.482-10.145 14.494 0 23.619 9.56 9.127 9.559 9.127 25.526 0 16.524-9.203 26.492t-23.743 9.966m-.102-15.764q5.39 0 7.756-4.704 2.364-4.702 2.364-17.211 0-18.102-9.71-18.102-10.477 0-10.477 20.645 0 19.37 10.067 19.372M181.303 943.64v62.744h-19.26V943.64zm92.307 62.744h-15.675l-17.19-27.717q-3.31-5.33-6.665-12.963 1.516 6.067 1.516 10.296v30.384H219.97V943.64h18.202l14.615 22.984q4.368 6.849 6.62 12.043a92 92 0 0 1-1.47-16.456v-18.569h15.674zm64.452-47.714v47.714h-18.246V958.67h-13.01v-15.03h44.266v15.031zm93.227 32.73v14.984h-47.206V943.64h47.206v14.478h-28.315v9.104h22.892v13.928h-22.892v10.25zm91.207 14.984h-21.377l-9.145-23.994h-6.068v23.994h-19.26V943.64h32.774q10.85 0 16.846 5.079 6.002 5.083 6 13.4 0 5.425-2.208 9.584t-8.918 7.33zm-36.59-37.416h8.228q3.63 0 5.837-1.518 2.207-1.516 2.207-4.457 0-6.023-7.401-6.023h-8.873zm106.917 37.416-3.54-12.365h-16.822l-3.77 12.365h-15.628l19.398-62.744h20.362l19.628 62.744zm-17.098-26.063h10.202l-5.102-18.202zm98.237 2.114 17.604 1.059q-1.24 11.534-8.527 17.698-7.286 6.157-17.903 6.157-12.78 0-20.64-8.456t-7.86-23.352q0-14.756 7.448-23.81t20.777-9.056q12.455 0 19.146 6.896 6.686 6.895 7.56 18.293l-17.972.965q0-6.298-2.415-9.1-2.41-2.804-5.676-2.804-9.101 0-9.101 18.294 0 10.252 2.367 13.928 2.365 3.678 6.642 3.678 7.632 0 8.55-10.39m80.741-23.765v47.714h-18.249V958.67h-13.008v-15.03h44.267v15.031zm65.834-15.03v62.744h-19.26V943.64zm92.673 0-19.486 62.744h-19.628l-20.318-62.744h20.315l9.885 34.198q1.012 3.036 1.791 5.978l11.584-40.174zm79.984 47.76v14.984h-47.206V943.64h47.208v14.478H964.88v9.104h22.893v13.928H964.88v10.25z"/></g></svg>