<svg xmlns="http://www.w3.org/2000/svg" id="svg2" width="1000" height="1007.85" viewBox="0 0 1000 1007.85"><g id="layer1" transform="translate(703.042 324.954)"><g id="g3065" transform="translate(842.612 -818.45)scale(2.19938)"><g id="flowRoot2998" style="line-height:125%" transform="translate(10367.398 -4749.9)scale(13.0457)" font-size="40px" font-style="normal" font-weight="400" letter-spacing="0" word-spacing="0" fill="#085aa4" fill-opacity="1" stroke="none" font-family="Sans"><path id="path3061" d="M-835.27 387.7v20.274h-7.754v-20.273h-5.527v-6.387h18.808v6.387z" style="-inkscape-font-specification:Franklin Gothic Heavy" font-variant="normal" font-stretch="normal" fill="#085aa4" fill-opacity="1" font-family="Franklin Gothic Heavy"/><path id="path3063" d="m-813.734 401.585-.286 6.39h-19.836v-5.99l4.425-3.109q.973-.668 3.633-2.87t3.472-3.386.81-2.48q0-1.239-.705-1.993-.706-.753-1.85-.753-2.862 0-3.205 4.501l-6.58-1.278q.725-4.596 3.595-6.837t6.78-2.241q4.235 0 6.915 2.27t2.68 6.046q0 2.517-1.46 4.787-1.458 2.27-8.535 6.943z" style="-inkscape-font-specification:Franklin Gothic Heavy" font-variant="normal" font-stretch="normal" fill="#000" fill-opacity="1" font-family="Franklin Gothic Heavy"/></g><g id="flowRoot3006" style="line-height:125%" transform="translate(381.37 153.438)scale(1.1837)" font-size="40px" font-style="normal" font-weight="400" letter-spacing="0" word-spacing="0" fill="#085aa4" fill-opacity="1" stroke="none" font-family="Sans"><path id="path3015" d="M-841 387.7v20.274h-7.754v-20.273h-5.527v-6.387h18.808v6.387z" style="-inkscape-font-specification:Franklin Gothic Heavy" font-variant="normal" font-stretch="normal" fill="#085aa4" fill-opacity="1" font-family="Franklin Gothic Heavy"/><path id="path3017" d="m-798.58 407.974-1.505-5.254h-7.148l-1.602 5.254h-6.64l8.242-26.66h8.652l8.34 26.66zm-7.266-11.074h4.336l-2.168-7.734z" style="-inkscape-font-specification:Franklin Gothic Heavy" font-variant="normal" font-stretch="normal" fill="#085aa4" fill-opacity="1" font-family="Franklin Gothic Heavy"/><path id="path3019" d="M-745.03 407.974h-8.965l-4.61-10.078-2.753 3.926v6.152h-7.715v-26.66h7.715v11.016l7.363-11.016h7.344l-6.739 9.746z" style="-inkscape-font-specification:Franklin Gothic Heavy" font-variant="normal" font-stretch="normal" fill="#085aa4" fill-opacity="1" font-family="Franklin Gothic Heavy"/><path id="path3021" d="M-703.99 401.607v6.367h-20.059v-26.66h20.059v6.152h-12.031v3.868h9.726v5.918h-9.726v4.355z" style="-inkscape-font-specification:Franklin Gothic Heavy" font-variant="normal" font-stretch="normal" fill="#085aa4" fill-opacity="1" font-family="Franklin Gothic Heavy"/><path id="path3023" d="M-638.955 387.38v20.274h-7.754v-20.273h-5.527v-6.387h18.808v6.387z" style="-inkscape-font-specification:Franklin Gothic Heavy" font-variant="normal" font-stretch="normal" fill="#085aa4" fill-opacity="1" font-family="Franklin Gothic Heavy"/><path id="path3025" d="m-578.378 380.994-7.07 26.66h-6.875l-3.73-14.707-3.516 14.707h-7.168l-7.09-26.66h7.695l3.731 15.371 3.633-15.371h6.445l3.945 15.371 3.73-15.371z" style="-inkscape-font-specification:Franklin Gothic Heavy" font-variant="normal" font-stretch="normal" fill="#085aa4" fill-opacity="1" font-family="Franklin Gothic Heavy"/><path id="path3027" d="M-545.356 407.958q-5.625 0-9.17-3.73-3.545-3.732-3.545-9.981 0-5.978 3.389-9.873 3.389-3.897 9.404-3.897 5.567 0 9.072 3.672 3.506 3.672 3.506 9.805 0 6.347-3.535 10.176t-9.12 3.828m-.039-6.055q2.07 0 2.979-1.807.908-1.806.908-6.611 0-6.953-3.73-6.953-4.024 0-4.024 7.93 0 7.44 3.867 7.441" style="-inkscape-font-specification:Franklin Gothic Heavy" font-variant="normal" font-stretch="normal" fill="#085aa4" fill-opacity="1" font-family="Franklin Gothic Heavy"/></g><g id="flowRoot3029" style="line-height:125%" transform="translate(282.562 245.395)scale(1.07007)" font-size="40px" font-style="normal" font-weight="400" letter-spacing="0" word-spacing="0" fill="#085aa4" fill-opacity="1" stroke="none" font-family="Sans"><path id="path3038" d="M-843.773 381.314v26.66h-8.184v-26.66z" style="-inkscape-font-specification:Franklin Gothic Heavy" font-variant="normal" font-stretch="normal" fill="#085aa4" fill-opacity="1" font-family="Franklin Gothic Heavy"/><path id="path3040" d="M-804.552 407.974h-6.66l-7.304-11.777q-1.407-2.265-2.832-5.508.644 2.578.644 4.375v12.91h-6.64v-26.66h7.734l6.21 9.766q1.856 2.91 2.813 5.117a39 39 0 0 1-.625-6.992v-7.89h6.66z" style="-inkscape-font-specification:Franklin Gothic Heavy" font-variant="normal" font-stretch="normal" fill="#085aa4" fill-opacity="1" font-family="Franklin Gothic Heavy"/><path id="path3042" d="M-777.166 387.7v20.274h-7.753v-20.273h-5.528v-6.387h18.809v6.387z" style="-inkscape-font-specification:Franklin Gothic Heavy" font-variant="normal" font-stretch="normal" fill="#085aa4" fill-opacity="1" font-family="Franklin Gothic Heavy"/><path id="path3044" d="M-737.554 401.607v6.367h-20.058v-26.66h20.058v6.152h-12.031v3.868h9.727v5.918h-9.727v4.355z" style="-inkscape-font-specification:Franklin Gothic Heavy" font-variant="normal" font-stretch="normal" fill="#085aa4" fill-opacity="1" font-family="Franklin Gothic Heavy"/><path id="path3046" d="M-698.8 407.974h-9.083l-3.886-10.195h-2.578v10.195h-8.184v-26.66h13.926q4.61 0 7.158 2.158 2.55 2.16 2.549 5.694 0 2.305-.938 4.072t-3.789 3.115zm-15.547-15.898h3.496q1.542 0 2.48-.645.938-.644.938-1.894 0-2.559-3.145-2.559h-3.77z" style="-inkscape-font-specification:Franklin Gothic Heavy" font-variant="normal" font-stretch="normal" fill="#085aa4" fill-opacity="1" font-family="Franklin Gothic Heavy"/><path id="path3048" d="m-668.918 407.974-1.504-5.254h-7.148l-1.602 5.254h-6.64l8.242-26.66h8.652l8.34 26.66zm-7.265-11.074h4.335l-2.168-7.734z" style="-inkscape-font-specification:Franklin Gothic Heavy" font-variant="normal" font-stretch="normal" fill="#085aa4" fill-opacity="1" font-family="Franklin Gothic Heavy"/><path id="path3050" d="m-634.442 397.798 7.48.45q-.527 4.901-3.623 7.52-3.096 2.616-7.607 2.616-5.43 0-8.77-3.593t-3.34-9.922q0-6.27 3.165-10.117t8.828-3.848q5.292 0 8.135 2.93 2.841 2.93 3.212 7.773l-7.636.41q0-2.676-1.026-3.867-1.024-1.191-2.412-1.191-3.867 0-3.867 7.773 0 4.356 1.006 5.918 1.005 1.563 2.822 1.563 3.243 0 3.633-4.415" style="-inkscape-font-specification:Franklin Gothic Heavy" font-variant="normal" font-stretch="normal" fill="#085aa4" fill-opacity="1" font-family="Franklin Gothic Heavy"/><path id="path3052" d="M-600.135 387.7v20.274h-7.754v-20.273h-5.527v-6.387h18.809v6.387z" style="-inkscape-font-specification:Franklin Gothic Heavy" font-variant="normal" font-stretch="normal" fill="#085aa4" fill-opacity="1" font-family="Franklin Gothic Heavy"/><path id="path3054" d="M-572.162 381.314v26.66h-8.184v-26.66z" style="-inkscape-font-specification:Franklin Gothic Heavy" font-variant="normal" font-stretch="normal" fill="#085aa4" fill-opacity="1" font-family="Franklin Gothic Heavy"/><path id="path3056" d="m-532.785 381.314-8.28 26.66h-8.34l-8.633-26.66h8.632l4.2 14.531q.43 1.29.761 2.54l4.922-17.07z" style="-inkscape-font-specification:Franklin Gothic Heavy" font-variant="normal" font-stretch="normal" fill="#085aa4" fill-opacity="1" font-family="Franklin Gothic Heavy"/><path id="path3058" d="M-498.8 401.607v6.367h-20.058v-26.66h20.059v6.152h-12.032v3.868h9.727v5.918h-9.727v4.355z" style="-inkscape-font-specification:Franklin Gothic Heavy" font-variant="normal" font-stretch="normal" fill="#085aa4" fill-opacity="1" font-family="Franklin Gothic Heavy"/></g></g></g></svg>