<svg height="18" viewBox="0 0 18 18" width="18" xmlns="http://www.w3.org/2000/svg" xmlns:xlink="http://www.w3.org/1999/xlink"><linearGradient id="a"><stop offset="0" stop-color="#c3f1ff"/><stop offset="1" stop-color="#9cebff"/></linearGradient><radialGradient id="b" cx="11.996" cy="1.934" gradientUnits="userSpaceOnUse" r="2.254" xlink:href="#a"/><radialGradient id="c" cx="13.718" cy="13.162" gradientUnits="userSpaceOnUse" r="2.254" xlink:href="#a"/><radialGradient id="d" cx="3.342" cy="9.716" gradientUnits="userSpaceOnUse" r="2.254" xlink:href="#a"/><radialGradient id="e" cx="10.341" cy="7.144" gradientUnits="userSpaceOnUse" r="4.431" xlink:href="#a"/><linearGradient id="f" gradientUnits="userSpaceOnUse" x1="9" x2="9" y1="1.047" y2="15.591"><stop offset="0" stop-color="#a67af4"/><stop offset="1" stop-color="#773adc"/></linearGradient><circle cx="9" cy="9" fill="url(#f)" r="9"/><path d="m11.385 15.476a.14.14 0 0 1 -.059.223 7.09 7.09 0 0 1 -8.211-2.746.14.14 0 0 1 .085-.213 2.1 2.1 0 0 0 .727-.346.14.14 0 0 1 .2.035 5.96 5.96 0 0 0 6.7 2.253.137.137 0 0 1 .175.086 2.2 2.2 0 0 0 .383.708m-2.385-13.567a7.1 7.1 0 0 0 -7.069 6.539.14.14 0 0 0 .178.144 2.1 2.1 0 0 1 .55-.072 2 2 0 0 1 .251.015.14.14 0 0 0 .152-.127 5.975 5.975 0 0 1 5.938-5.374h.175a2 2 0 0 1 -.006-.155 2.1 2.1 0 0 1 .146-.779.14.14 0 0 0 -.128-.191zm4.326 1.715a2.2 2.2 0 0 1 -.417.69.14.14 0 0 0 .016.2 5.96 5.96 0 0 1 1.181 7.577.136.136 0 0 0 .043.19 2.2 2.2 0 0 1 .6.541.14.14 0 0 0 .23-.007 7.08 7.08 0 0 0 -1.431-9.249.14.14 0 0 0 -.222.058" fill="#fff"/><circle cx="9" cy="9.153" fill="#b796f9" opacity=".6" r="6.529"/><path d="m13.036 2.875v.118a1.722 1.722 0 0 1 -3.41.206 1.7 1.7 0 0 1 -.031-.324 1.723 1.723 0 1 1 3.445 0z" fill="url(#b)"/><path d="m14.759 14.1a1.724 1.724 0 1 1 -.109-.6 1.7 1.7 0 0 1 .109.6" fill="url(#c)"/><path d="m4.382 10.657a1.72 1.72 0 0 1 -1.723 1.722h-.047a1.722 1.722 0 0 1 .047-3.444 1.8 1.8 0 0 1 .515.077 1.725 1.725 0 0 1 1.208 1.645" fill="url(#d)"/><circle cx="9" cy="8.992" fill="url(#e)" r="3.387"/></svg>