<svg height="18" viewBox="0 0 18 18" width="18" xmlns="http://www.w3.org/2000/svg" xmlns:xlink="http://www.w3.org/1999/xlink"><linearGradient id="a" gradientUnits="userSpaceOnUse" x1="9" x2="9" y1=".877" y2="17.123"><stop offset="0" stop-color="#5ea0ef"/><stop offset="1" stop-color="#0078d4"/></linearGradient><rect fill="#0078d4" height="18" rx="9" width="18"/><rect fill="url(#a)" height="16.245" rx="8.122" width="16.245" x=".877" y=".877"/><path d="m6.412 14.327a2.04 2.04 0 0 1 -1.236-.3 1.4 1.4 0 0 1 -.357-1.1v-2.856c0-.467-.192-.714-.576-.714v-.714q.576 0 .576-.741v-2.802a1.46 1.46 0 0 1 .357-1.126 1.86 1.86 0 0 1 1.236-.3v.714c-.412 0-.632.22-.632.686v2.745c0 .632-.192 1.016-.6 1.181a1.14 1.14 0 0 1 .6 1.181v2.719a.95.95 0 0 0 .138.549.6.6 0 0 0 .466.165zm4.726-10.654a2.04 2.04 0 0 1 1.236.3 1.4 1.4 0 0 1 .357 1.1v2.856c0 .467.192.714.576.714v.714q-.576 0-.576.741v2.774a1.46 1.46 0 0 1 -.357 1.128 1.85 1.85 0 0 1 -1.236.33v-.714c.412 0 .632-.22.632-.686v-2.749c0-.632.192-1.016.6-1.181a1.14 1.14 0 0 1 -.6-1.181v-2.719a.95.95 0 0 0 -.138-.549.6.6 0 0 0 -.466-.165z" fill="#fff"/></svg>