<svg height="66.143" viewBox="0 0 18.035 17.5" width="68.165" xmlns="http://www.w3.org/2000/svg"><g transform="matrix(1.01489 0 0 1.01489 15.909 -3.873)"><path d="m-6.85 4.272a1.12 1.11 0 0 0 -.428.109l-5.852 2.796a1.12 1.11 0 0 0 -.606.753l-1.444 6.282a1.12 1.11 0 0 0 .152.85 1.12 1.11 0 0 0 .064.089l4.05 5.037a1.12 1.11 0 0 0 .876.417l6.496-.001a1.12 1.11 0 0 0 .875-.417l4.049-5.038a1.12 1.11 0 0 0 .216-.939l-1.446-6.28a1.12 1.11 0 0 0 -.605-.753l-5.854-2.797a1.12 1.11 0 0 0 -.542-.109" fill="#326ce5"/><path d="m-6.852 3.818a1.181 1.172 0 0 0 -.452.115l-6.18 2.951a1.181 1.172 0 0 0 -.638.795l-1.524 6.63a1.181 1.172 0 0 0 .16.9 1.181 1.172 0 0 0 .067.093l4.276 5.317a1.181 1.172 0 0 0 .924.44h6.858a1.181 1.172 0 0 0 .923-.44l4.275-5.319a1.181 1.172 0 0 0 .228-.99l-1.525-6.633a1.181 1.172 0 0 0 -.64-.795l-6.178-2.95a1.181 1.172 0 0 0 -.573-.115m.003.455a1.12 1.11 0 0 1 .542.108l5.853 2.795a1.12 1.11 0 0 1 .606.753l1.446 6.281a1.12 1.11 0 0 1 -.216.94l-4.05 5.037a1.12 1.11 0 0 1 -.875.417l-6.496.001a1.12 1.11 0 0 1 -.875-.417l-4.05-5.037a1.12 1.11 0 0 1 -.064-.088 1.12 1.11 0 0 1 -.152-.851l1.444-6.281a1.12 1.11 0 0 1 .605-.753l5.853-2.797a1.12 1.11 0 0 1 .429-.108" fill="#fff"/></g><g fill="#fff" transform="translate(-1.571 -.399)"><path d="m11.673 3.96v2.143h2.202v-2.143zm0 3.084v.546c.258-.06.526-.097.803-.097.497 0 .97.106 1.4.295v-.744zm-6.284.033v2.143h2.203v-2.143zm3.142 0v2.143h.928c.31-.52.75-.955 1.275-1.258v-.885zm-3.163 3.117v2.143h2.203v-2.143zm3.152 0v2.143h.707c-.17-.411-.265-.86-.265-1.33 0-.28.037-.551.1-.813z"/><path d="m12.608 7.94a3.21 3.21 0 0 0 -3.2 3.2c0 1.76 1.44 3.2 3.2 3.2s3.2-1.44 3.2-3.2-1.44-3.2-3.2-3.2m1.344 4.543-1.664-1.024v-1.919h.48v1.664l1.44.864z" stroke-width=".319981"/></g></svg>