<svg xmlns="http://www.w3.org/2000/svg" viewBox="0.48 4.5 1999.5 691.5">
  <defs>
    <mask id="wko">
      <rect width="1999.5" height="691.5" fill="white"/>
      <path fill="black" fill-rule="evenodd" d="M84.246 117.228 84 229.957l-19.25.294-19.25.295 19.281.227c14.676.173 19.396-.072 19.758-1.023.262-.687.358-51.65.214-113.25l-.262-112zm1840.248.522.006 112.75 15.251.04 15.251.041-14.997-.317-14.996-.316-.261-112.474L1924.487 5zM.481 377c0 56.375.121 79.437.269 51.25.147-28.188.147-74.313 0-102.5C.602 297.562.481 320.625.481 377m275.863-92.011c-9.43 1.984-16.874 8.161-19.203 15.933-.81 2.704-1.138 24.825-1.131 76.194l.01 72.384 2.414 5.186c4.281 9.194 12.381 12.774 27.421 12.117 11.081-.484 16.079-2.473 20.892-8.313 5.764-6.992 5.631-5.242 6.004-78.99.24-47.49.002-70.026-.789-74.717-1.482-8.795-5.264-14.125-12.281-17.305-5.881-2.665-16.91-3.841-23.337-2.489m94.278.02c-6.921 1.223-13.502 5.626-17.096 11.438l-3.026 4.895-.276 72.494c-.31 81.597-.521 78.966 6.932 86.199 5.145 4.993 11.202 6.965 21.396 6.965 13.695 0 21.059-3.759 25.289-12.909 2.457-5.316 2.604-6.598 2.991-26.062l.406-20.47 6.563-6.798c3.609-3.739 6.907-6.452 7.328-6.029.42.422 9.141 14.268 19.379 30.768 10.729 17.291 20.584 32.011 23.263 34.747 6.103 6.233 11.225 8.166 19.976 7.537 20.485-1.47 32.588-20.303 24.925-38.784-1.254-3.025-12.521-21.435-25.036-40.91l-22.756-35.411 5.352-5.589c24.049-25.12 28.101-30.46 29.33-38.656 1.284-8.559-3.497-17.235-11.967-21.72-3.132-1.658-5.859-2.173-11.595-2.191-11.634-.036-12.965 1.043-40.635 32.919L407.5 344.933l-.615-20.716c-.654-22.027-1.25-25.384-5.488-30.941-5.108-6.697-18.82-10.38-30.775-8.267m220.479.014c-2.42.508-5.924 1.948-7.788 3.2-3.378 2.27-8.744 9.581-11.212 15.277-4.517 10.428-46.992 131.93-47.543 136.002-2.13 15.733 7.221 27.271 22.919 28.278 14.197.911 22.211-4.296 27.489-17.864l2.885-7.416 28.935-.265 28.935-.265 2.235 6.265c4.799 13.454 10.967 18.669 23.106 19.537 17.689 1.266 28.181-7.707 28.144-24.067-.016-6.871-1.128-10.29-23.986-73.75-13.184-36.599-24.905-68.377-26.047-70.616-3.048-5.975-6.887-10.149-11.549-12.558-3.532-1.826-6.132-2.171-18.124-2.407-7.7-.151-15.98.141-18.399.649m146.871.279c-6.844 1.545-13.736 5.503-16.78 9.638-5.271 7.162-5.193 5.915-5.182 82.436l.01 71.124 2.361 5.071c4.717 10.131 12.656 13.973 27.346 13.235 9.636-.485 13.072-1.797 18.061-6.901 5.648-5.776 5.712-6.392 5.712-54.655 0-24.338.061-44.25.135-44.25s.899 2.363 1.834 5.25c.934 2.887 3.394 8.625 5.466 12.75 6.064 12.073 42.618 71.02 47.546 76.674 2.789 3.2 6.707 6.253 10.265 8 5.383 2.644 6.561 2.826 18.254 2.826 11.91 0 12.746-.136 17.708-2.886 5.549-3.075 9.23-7.619 11.435-14.114 1.996-5.882 1.997-144.189.001-149.836-3.523-9.968-11.876-14.955-25.191-15.042-11.162-.072-18.623 3.211-23.008 10.125-4.787 7.548-5.147 11.783-4.781 56.243.185 22.465.283 40.77.219 40.677-.065-.092-1.988-4.575-4.274-9.963-3.955-9.322-7.532-15.51-35.955-62.204-17.239-28.32-23.285-33.665-39.542-34.959-3.362-.268-8.599.075-11.64.761m549.176.611c-6.683 2.308-9.829 4.617-13.648 10.017-2.756 3.897-2.996 4.907-2.954 12.406.045 7.917.708 10.148 21.874 73.664 12.004 36.025 22.876 67.583 24.158 70.128 2.937 5.829 7.717 10.647 12.9 13.001 3.338 1.516 6.682 1.831 19.658 1.849 15.191.021 15.788-.057 21-2.772 9.669-5.037 10.16-6.156 34.782-79.316 12.144-36.085 22.54-68.032 23.102-70.993 3.452-18.205-10.262-31.07-31.668-29.707-8.311.529-13.716 4.175-17.569 11.849-1.64 3.265-8.057 25.526-15.959 55.355-9.131 34.472-13.46 49.309-14.004 48-.433-1.042-6.441-23.269-13.351-49.394s-13.098-49.005-13.751-50.845c-1.726-4.859-7.489-11.146-12.162-13.269-5.318-2.415-15.37-2.403-22.408.027m214.036-.844c-8.006 1.576-13.316 6.174-18.077 15.655-1.167 2.324-12.557 33.374-25.312 69l-23.191 64.776-.04 8.5c-.046 9.846 1.953 14.808 7.963 19.762 7.061 5.82 19.99 7.097 28.973 2.861 6.662-3.142 8.936-5.828 12.886-15.221l3.324-7.902 28.689-.265 28.69-.266 1.489 3.766c6.929 17.521 12.665 22.265 26.922 22.265 8.44 0 13.339-1.835 18.643-6.981 5.24-5.085 6.843-9.357 6.851-18.266.005-4.993-3.147-14.501-24.032-72.483-13.221-36.705-25.521-69.443-27.333-72.753-3.967-7.244-9.085-11.121-16.515-12.51-6.345-1.186-23.773-1.15-29.93.062m145.16-.08c-9.825 2.067-16.994 8.271-19.494 16.867-1.076 3.703-1.35 18.833-1.35 74.644 0 78.257-.188 76.054 7.051 82.41 6.69 5.874 8.884 6.09 61.981 6.09 33.352 0 49.215-.35 51.569-1.138 9.383-3.142 13.855-10.037 13.855-21.362 0-11.934-4.809-18.894-15.185-21.975-4.082-1.213-11.04-1.525-33.953-1.525H1682l-.01-58.25-.01-58.25-2.374-5.099c-3.727-8.005-10.447-11.88-22.124-12.76-3.84-.29-8.852-.133-11.138.348m196.374.042c-8.372 2.105-14.15 7.286-18.316 16.423-1.266 2.775-12.674 34.182-25.351 69.793-22.073 62.001-23.05 65.055-23.029 72 .048 15.969 9.261 24.753 25.96 24.753 12.661 0 19.933-5.846 25.188-20.25l2.098-5.75h57.507l3.21 7.962c5.544 13.753 13.234 18.731 27.515 17.807 10.488-.678 16.709-4.44 21.119-12.769 1.373-2.593 1.842-5.574 1.81-11.5-.043-7.876-.387-8.949-22.259-69.341-28.375-78.349-27.487-76.101-32.176-81.429-6.212-7.057-9.241-8.051-25.494-8.373-7.7-.152-15.702.151-17.782.674M80.045 288.052c-6.831 1.401-13.073 5.753-15.717 10.957-4.096 8.066-4.445 15.005-4.098 81.561.284 54.507.543 63.556 1.929 67.608 2.415 7.053 5.3 10.409 11.615 13.51L79.5 464.5l47-.044c44.981-.041 47.331-.136 54.697-2.195 24.833-6.943 37.175-21.214 39.379-45.536 1.829-20.189-7.147-38.238-22.069-44.374-2.475-1.018-4.501-2.177-4.503-2.575s1.248-1.372 2.777-2.163c4.093-2.116 12.081-11.047 14.233-15.912 2.95-6.67 4.152-16.479 3.007-24.549-2.841-20.034-13.507-31.513-34.707-37.354-7.366-2.029-10.311-2.167-51.314-2.406-23.925-.14-45.505.157-47.955.66m857.689.019c-4.823 1.158-10.755 4.186-12.946 6.609-.941 1.041-2.741 4.127-4 6.857L918.5 306.5v139l2.629 5.607c3.231 6.889 7.576 10.346 15.582 12.397 5.231 1.341 13.75 1.522 59.943 1.279l53.846-.283 4.654-2.736c6.175-3.63 8.854-9.043 8.824-17.83-.025-7.481-2.362-13.518-6.49-16.765-5.959-4.687-10.402-5.169-47.67-5.169H975v-28l27.75-.006c16.278-.003 29.312-.439 31.527-1.054 4.981-1.383 10.316-6.177 11.767-10.573 1.801-5.456.856-17.685-1.623-21.004-5.58-7.475-10.206-8.349-44.203-8.357L974.937 353l.281-11.75.282-11.75 36-.5c31.501-.438 36.391-.714 39.131-2.214 13.357-7.313 13.723-28.791.621-36.493l-4.752-2.793-52.5-.166c-28.875-.092-54.194.24-56.266.737m172.069.287c-6.92 1.924-12.249 5.864-14.641 10.826-3.908 8.106-4.248 15.328-3.948 83.816l.286 65.5 3 6c2.445 4.89 3.991 6.59 8.358 9.192 12.029 7.165 30.831 5.121 39.055-4.246 5.133-5.846 6.087-11.284 6.087-34.707v-20.898l18.43.33c16.761.299 18.679.516 21.188 2.391 6.242 4.665 7.976 10.123 10.304 32.438 1.898 18.191 7.501 25.485 21.574 28.085 16.675 3.08 32.253-4.561 34.076-16.714.408-2.726.196-8.779-.487-13.856-.667-4.958-1.829-14.19-2.583-20.515s-2.086-13.198-2.959-15.272c-3.437-8.163-12.313-15.002-22.293-17.178-1.787-.39-3.227-1.011-3.2-1.379.028-.369 2.664-1.908 5.857-3.419 17.35-8.211 25.739-25.948 23.056-48.752-1.092-9.288-2.052-12.555-5.601-19.077-5.551-10.198-17.083-17.442-33.711-21.173-8.327-1.869-13.115-2.083-53.151-2.376-33.946-.248-45.073-.023-48.697.984M116 342.385V358h15.057c18.094 0 22.857-.999 26.944-5.654 2.656-3.025 2.999-4.139 2.999-9.746 0-4.98-.463-6.918-2.168-9.086-3.84-4.882-7.765-5.831-26.082-6.309l-16.75-.436zm1032 4.755v17.14l18.868-.494c21.217-.557 24.748-1.496 28.869-7.684 3.2-4.804 3.195-14.414-.01-19.204-3.739-5.588-9.049-6.803-29.977-6.854L1148 330zm359.723 25.666c-4.798 16.368-8.723 30.083-8.723 30.477s7.875.717 17.5.717c12.034 0 17.5-.343 17.5-1.097 0-1.392-16.025-56.979-16.902-58.631-.359-.675-4.578 12.165-9.375 28.534m349.339-26.157c-.588 2.118-4.584 15.776-8.88 30.351l-7.811 26.5 17.457.274c9.602.15 17.644.088 17.871-.139.391-.391-16.517-59.743-17.23-60.486-.186-.193-.819 1.382-1.407 3.5M598.094 372.75c-4.603 15.813-8.581 29.313-8.839 30-.364.971 3.59 1.25 17.745 1.25 14.159 0 18.108-.278 17.737-1.25-.263-.687-4.21-14.187-8.772-30-4.561-15.812-8.565-28.75-8.898-28.75-.332 0-4.37 12.938-8.973 28.75M116 407.12v17.121l18.75-.431c16.306-.374 19.358-.704 23.416-2.527 5.919-2.659 8.129-6.046 8.584-13.155.915-14.312-6.779-18.026-37.5-18.097L116 390zM84.242 581.095 84 638.69l2.25 1.905c2.246 1.902 2.247 1.901.508-.165-1.604-1.906-1.762-6.599-2.008-59.5l-.267-57.43zm1840-.159-.242 57.435-2.222 2.565-2.222 2.564 2.73-2.531 2.731-2.531-.267-57.469-.267-57.469z"/>
    </mask>
  </defs>
  <g fill="currentColor" mask="url(#wko)">
    <path fill="currentColor" fill-rule="evenodd" d="m207.758 118 .259 113h121.966l.259-113L330.5 5h-123zM453 118v113h121.983l.259-113L575.5 5H453zm245 .008v113.007l61.25-.257 61.25-.258.254-112.75L821.009 5H698zm245.246-.258.254 112.75 61.25.258 61.25.257V5H942.991zm245 0 .254 112.75 61.25.258 61.25.257V5h-123.009zm245.512.25.259 113H1556V5h-122.5zm245 0 .259 113h121.966l.259-113 .258-113h-123zM105.811 286.748c7.87.169 20.47.169 28-.001 7.529-.169 1.089-.308-14.311-.307-15.4 0-21.56.139-13.689.308m866.007.001c12.275.159 32.075.159 44 0 11.925-.16 1.882-.29-22.318-.29-24.2.001-33.957.131-21.682.29m165.432-.001c8.112.168 21.388.168 29.5 0s1.475-.306-14.75-.306-22.862.138-14.75.306M1682.468 362c0 31.625.127 44.562.281 28.75.155-15.813.155-41.688 0-57.5-.154-15.813-.281-2.875-.281 28.75M255.473 376.5c.001 38.5.125 54.105.277 34.677s.151-50.928-.001-70c-.151-19.072-.276-3.177-.276 35.323m93.999-.5c0 37.125.125 52.313.278 33.75.152-18.562.152-48.937 0-67.5-.153-18.562-.278-3.375-.278 33.75m366.001 1c0 37.675.124 53.087.277 34.25.152-18.838.152-49.663 0-68.5-.153-18.838-.277-3.425-.277 34.25m276.277-47.252c8.938.166 23.563.166 32.5 0s1.625-.301-16.25-.301-25.187.135-16.25.301M975.374 341.5c.002 6.05.167 8.396.366 5.213.199-3.182.197-8.132-.004-11-.201-2.867-.364-.263-.362 5.787m179.876 22.243c4.263.188 11.237.188 15.5 0 4.263-.187.775-.341-7.75-.341s-12.013.154-7.75.341M123.296 390.744c4.287.188 11.037.187 15-.002 3.962-.19.454-.343-7.796-.342s-11.492.156-7.204.344m865.954 4.003c7.013.172 18.487.172 25.5 0s1.275-.312-12.75-.312-19.763.14-12.75.312M975.382 408.5c.002 6.6.164 9.17.359 5.711.196-3.459.195-8.859-.003-12s-.358-.311-.356 6.289M123.75 423.744c4.537.185 11.963.185 16.5 0s.825-.337-8.25-.337-12.787.152-8.25.337m-18 42.004c8.387.167 22.112.167 30.5 0 8.387-.167 1.525-.304-15.25-.304s-23.638.137-15.25.304m866.569.001c13.1.158 34.25.158 47 0s2.031-.288-23.819-.287c-25.85 0-36.282.129-23.181.287m700.499 0c12.275.159 32.075.159 44 0 11.925-.16 1.882-.29-22.318-.29-24.2.001-33.957.131-21.682.29m-330.568 1.993c3.713.192 9.787.192 13.5 0 3.713-.193.675-.35-6.75-.35s-10.463.157-6.75.35M208.06 581.75l.061 57.75 29.493 28c16.221 15.4 30.012 28 30.646 28 .633 0 14.754-12.6 31.378-28l30.226-28 .068-57.75L330 524H208zm244.94-.313v57.437l29.589 28.313c16.274 15.572 29.994 28.461 30.489 28.643.495.181 13.617-11.531 29.161-26.028s29.355-27.354 30.691-28.572c2.323-2.117 2.521-2.138 4.5-.479 1.765 1.479 1.738 1.358-.18-.823l-2.25-2.557V524H453zm245-.07v57.367l30.013 28.712c16.507 15.792 30.409 28.564 30.893 28.383s14.443-12.929 31.021-28.329c16.577-15.4 30.463-27.925 30.857-27.833s.596-25.896.45-57.75L820.968 524H698zm245-.036v57.33l30.088 28.724c16.548 15.798 30.474 28.586 30.947 28.419.474-.167 14.609-13.088 31.413-28.712L1066 638.683V524H943zm245-.031c0 44.426-.281 57.615-1.25 58.702-1.039 1.165-.992 1.209.28.26 1.763-1.315-1.189-3.909 35.836 31.488 13.951 13.337 25.658 24.25 26.017 24.25s14.481-12.862 31.384-28.583L1311 638.834V524h-123zm246-.605v56.696l-2.75 3.051c-2.633 2.921-2.64 2.954-.158.778l2.593-2.273 29.901 28.527c16.446 15.689 30.183 28.526 30.528 28.526s14.409-12.84 31.256-28.533l30.63-28.533V524h-122zm244.758.463-.258 57.158 11.5 11.172c20.617 20.029 48.085 46.005 48.983 46.322.483.171 14.297-12.196 30.698-27.482 16.4-15.286 30.269-28.196 30.819-28.688.651-.583.907-20.943.734-58.268l-.266-57.372h-121.952zm-1541.259-21.77c-5.141 1.611-11.585 5.884-14.191 9.409-5.079 6.871-6.702 11.493-6.742 19.209-.064 12.215 5.479 21.247 16.712 27.231 3.474 1.85 5.817 2.25 13.222 2.256 8.221.006 9.476-.261 14.5-3.092 13.413-7.557 19.029-24.165 12.949-38.297-2.978-6.924-11.342-14.549-18.187-16.582-6.093-1.809-12.762-1.858-18.263-.134m120.925.669c-15.046 5.789-22.991 22.688-17.889 38.049 2.374 7.148 10.917 15.846 17.893 18.218 11.672 3.969 23.028 1.365 31.662-7.26 7.035-7.027 9.383-13.233 8.683-22.948-1.456-20.191-21.668-33.246-40.349-26.059m123.869-.608c-9.279 2.9-16.952 11.13-19.932 21.38-3.73 12.832 2.418 26.856 14.775 33.7 4.834 2.677 6.254 2.971 14.364 2.971 8.214 0 9.48-.271 14.5-3.099 6.45-3.634 12.247-10.716 14.162-17.302 6.768-23.269-14.913-44.825-37.869-37.65m121.131.547c-15.003 5.953-22.559 21.708-17.974 37.478 2.201 7.573 10.547 16.323 17.978 18.85 11.668 3.968 23.032 1.364 31.646-7.25 14.944-14.944 10.888-38.364-8.352-48.226-6.076-3.115-16.624-3.501-23.298-.852m123.396-.416c-6.417 1.974-14.894 9.872-17.872 16.65-3.11 7.078-3.147 17.356-.086 23.801 3.188 6.71 7.278 11.177 13.282 14.503 4.825 2.672 6.249 2.966 14.356 2.966 8.11 0 9.53-.294 14.364-2.971 9.989-5.532 15.638-15.152 15.58-26.529-.045-8.897-3.133-15.602-10.132-21.998-8.276-7.564-18.529-9.796-29.492-6.422m121.243.551c-3.255 1.286-7.313 4.023-10.107 6.818C719.11 585.795 732.385 618 759 618c8.732 0 14.658-2.511 21.09-8.936 6.969-6.962 9.311-13.1 8.733-22.898-.66-11.198-6.516-19.893-17.028-25.281-6.295-3.227-16.645-3.556-23.732-.754m123.757-.612c-6.477 2.077-14.938 10.006-17.83 16.711-6.051 14.027-.397 30.618 13.01 38.171 5.024 2.831 6.279 3.098 14.5 3.092 7.405-.006 9.748-.406 13.222-2.256 6.604-3.518 10.961-7.89 13.949-13.997 7.182-14.679.614-33.083-14.401-40.351-5.757-2.787-16.067-3.416-22.45-1.37m122.512.271c-17.251 6.166-25.217 25.755-17.008 41.823 3.282 6.422 7.86 10.677 14.997 13.939 4.976 2.273 6.863 2.605 13 2.282 11.395-.599 19.528-5.6 25.4-15.621 3.441-5.872 4.275-16.699 1.848-24.004-5.01-15.086-23.135-23.817-38.237-18.419m122.488-.271c-6.477 2.077-14.938 10.006-17.83 16.711-4.439 10.289-2.308 23.363 5.267 32.316 7.343 8.679 23.324 12.081 33.932 7.225 7.464-3.417 12.238-7.904 15.521-14.589 3.746-7.628 3.853-18.178.261-25.64-3.049-6.333-8.903-12.182-14.806-14.793-5.972-2.642-16.187-3.204-22.345-1.23m122.512.271c-6.708 2.398-11.855 6.388-15.352 11.903-9.883 15.583-4.123 35.593 12.511 43.463 19.636 9.289 42.467-4.8 42.499-26.228.013-8.523-2.166-14.711-7.192-20.42-8.1-9.203-21.239-12.731-32.466-8.718m122.297-.105c-6.627 2.29-14.777 9.908-17.585 16.435-3.434 7.981-3.103 17.287.903 25.423 5.082 10.324 13.162 15.534 25.196 16.248 6.596.391 8.383.115 13.046-2.02 7.464-3.417 12.238-7.904 15.521-14.589 3.771-7.68 3.909-18.248.336-25.605-3.068-6.315-9.001-12.227-14.881-14.828-6.24-2.761-16.258-3.233-22.536-1.064m123.695-.306c-6.341 2.075-11.021 5.344-14.878 10.395-11.845 15.514-6.176 37.689 11.685 45.704 5.437 2.44 7.042 2.709 13.762 2.308 12.235-.731 20.826-6.562 25.857-17.552 2.177-4.755 2.434-6.462 2.046-13.586-.492-9.032-1.903-12.547-7.539-18.785-7.377-8.166-20.719-11.825-30.933-8.484m123.676-.504c-8.29 2.73-15.759 8.941-19.619 16.315-1.065 2.034-1.904 6.451-2.177 11.458-.388 7.124-.131 8.831 2.046 13.586 5.031 10.99 13.622 16.821 25.857 17.552 6.72.401 8.325.132 13.762-2.308 6.958-3.122 12.298-8.422 15.473-15.356 2.945-6.43 2.939-17.826-.012-24.271-2.74-5.985-9.282-12.5-15.165-15.102-4.995-2.21-16.03-3.235-20.165-1.874m120.492.922c-17.386 6.012-25.145 25.128-16.977 41.824 3.064 6.262 7.96 10.792 15.296 14.15 4.665 2.136 6.447 2.411 13.046 2.017 17.002-1.016 28.123-12.796 28.123-29.788 0-9.595-2.731-15.792-9.733-22.088-8.364-7.52-19.232-9.754-29.755-6.115m124.508-.922c-5.732 1.887-10.999 5.317-14.803 9.639-12.781 14.52-8.317 37.487 9.08 46.712 3.461 1.835 5.848 2.243 13.223 2.257 7.617.014 9.742-.362 13.83-2.45 10.315-5.269 16.129-15.014 16.129-27.033 0-12.25-5.562-21.457-16.066-26.596-5.818-2.847-16.568-4.117-21.393-2.529"/>
    <path fill="currentColor" fill-rule="evenodd" d="M85 117.992V231H65.21c-14.544 0-21.348.406-25.668 1.531-17.674 4.604-31.652 18.375-36.947 36.401-1.415 4.818-1.594 17.016-1.583 108 .013 111.084-.172 107.09 5.474 118.629 5.508 11.257 17.663 21.472 30.442 25.582 5.533 1.78 9.852 2.193 27.322 2.61l20.75.495.024 57.126.024 57.126 31.087 27.72 31.087 27.719 12.746-11.719c7.01-6.446 20.664-18.92 30.34-27.72l17.594-16 .049-57.25L208 524h122l.047 57.25.047 57.25 30.817 27.402c16.95 15.071 31.136 27.369 31.526 27.329.389-.041 14.165-12.371 30.614-27.402l29.907-27.329.021-57.25L453 524h121.984l.258 57.223.258 57.223 30.95 27.686 30.95 27.686 4.133-3.659c2.273-2.012 15.908-14.45 30.3-27.638L698 638.542V524h123v114.837l22.25 19.831a21419 21419 0 0 1 30.864 27.553l8.614 7.722 30.136-27.632L943 638.678V524h123v114.666l12.25 10.916a19908 19908 0 0 1 30.933 27.652l18.682 16.736 30.068-27.573L1188 638.823V524h123v114.569l20.2 17.965c11.11 9.881 25.063 22.374 31.008 27.763l10.808 9.796 30.242-27.838 30.242-27.838.258-57.208.258-57.209H1556l.019 57.25.018 57.25 30.903 27.5c16.997 15.125 31.103 27.5 31.347 27.5.391 0 54.364-49.217 58.945-53.75 1.65-1.633 1.768-5.565 1.768-58.75v-57h122v113.89l4.25 3.96c2.338 2.178 16.371 14.771 31.186 27.985l26.936 24.026 5.564-5.07c3.06-2.788 16.699-15.244 30.309-27.68l24.745-22.611.005-57.112.005-57.111 16.75-.571c18.402-.626 23.72-1.707 33.163-6.74 7.112-3.791 16.924-13.735 20.479-20.757 5.855-11.562 5.61-6.353 5.584-118.641-.016-67.476-.383-104.622-1.061-107.568-2.972-12.904-13.948-26.966-25.658-32.873-10.048-5.068-15.833-6.127-33.467-6.127H1924V4.985l-61.25.257-61.25.258-.254 112.75-.255 112.75h-121.982l-.255-112.75L1678.5 5.5l-61.25-.258-61.25-.257V231h-121.991l-.255-112.75L1433.5 5.5l-61.25-.258-61.25-.257v226.03l-61.25-.257-61.25-.258-.254-112.75L1187.991 5H1066v226.015l-61.25-.257-61.25-.258-.254-112.75L942.991 5H821.009l-.255 112.75-.254 112.75-61.25.258-61.25.257V4.985l-61.25.257-61.25.258-.254 112.75-.255 112.75H453V4.985l-61.25.257-61.25.258-.254 112.75-.255 112.75H208.009l-.255-112.75L207.5 5.5l-61.25-.258L85 4.985zm1209.402 166.017c-7.966 1.149-12.338 2.938-16.605 6.793-5.732 5.179-7.797 9.856-7.797 17.663 0 5.843 2.313 13.531 21.601 71.79 11.88 35.885 22.916 68.031 24.523 71.437 3.525 7.467 9.347 12.776 16.264 14.831 6.659 1.977 26.56 1.981 33.18.006 6.045-1.804 11.605-6.262 14.969-12.002 1.395-2.38 4.58-10.334 7.08-17.677 38.498-113.104 40.732-120.106 40.785-127.85.075-10.947-3.617-17.17-12.902-21.745-5.498-2.709-8.624-3.348-16.519-3.373-11.635-.036-19.058 5.66-22.912 17.584-1.073 3.319-7.465 26.912-14.205 52.43-8.443 31.965-12.498 45.806-13.037 44.5-.43-1.043-6.403-23.271-13.273-49.396-7.53-28.634-13.573-49.638-15.215-52.883-3.102-6.131-8.733-10.761-14.207-11.681a475 475 0 0 1-5.132-.887c-.825-.152-3.794.055-6.598.46m-1020.61 1.393c-7.29 1.962-12.373 6.046-15.531 12.477L255.5 303.5v146l2.5 4.949c1.375 2.722 4.075 6.193 6 7.713 5.016 3.961 14.807 6.236 23.4 5.437 8.783-.816 14.132-3.204 18.81-8.397 7.001-7.773 6.888-6.287 6.572-86.318L312.5 301.5l-2.5-4.453c-6.151-10.958-21.008-15.736-36.208-11.645m95.708-.535c-9.319 2.452-16.257 8.755-18.632 16.925-1.1 3.786-1.368 18.519-1.368 75.208v70.5l2.304 5c4.767 10.348 12.458 14.817 25.696 14.931 10.725.093 16.81-1.798 22.064-6.858 6.367-6.13 7.436-10.934 7.436-33.429v-18.493l6.954-7.171 6.954-7.172 18.296 29.563c10.063 16.259 19.906 31.602 21.874 34.095 1.967 2.494 5.94 5.819 8.829 7.39 9.8 5.329 22.789 3.319 31.985-4.949 10.343-9.299 12.26-20.374 5.822-33.626-1.945-4.005-13.208-22.332-25.029-40.727l-21.491-33.446 13.653-14.211c15.823-16.469 20.297-23.083 20.951-30.973 1.416-17.079-17.803-28.864-34.298-21.03-5.887 2.796-7.96 4.929-34.091 35.073L407.5 344.435l-.519-21.468c-.471-19.442-.721-21.844-2.659-25.467-2.769-5.179-6.825-8.976-11.822-11.069-4.434-1.858-18.301-2.801-23-1.564m219.259.556c-7.678 2.74-11.747 6.923-16.167 16.619-1.369 3.002-12.718 34.033-25.222 68.958l-22.734 63.5-.056 8.5c-.046 6.92.355 9.272 2.153 12.653 6.27 11.79 22.702 16.283 35.912 9.82 6.237-3.052 9.946-7.914 13.531-17.738l2.103-5.765 28.506.265 28.505.265 3.331 7.92c1.832 4.357 4.552 9.195 6.045 10.753 8.565 8.941 26.901 9.754 36.757 1.63 5.899-4.863 7.994-9.955 7.941-19.303-.045-7.885-.387-8.942-23.721-73.5-13.021-36.025-24.785-67.78-26.143-70.568-3.469-7.12-8.837-12.158-14.863-13.947-6.508-1.933-30.52-1.974-35.878-.062m147.192-.119c-8.916 2.518-14.434 7.141-18.152 15.208L715.5 305.5V377c0 70.575.027 71.558 2.103 76 5.643 12.074 19.254 17.458 34.356 13.589 7.691-1.97 12.273-5.234 15.3-10.897 2.225-4.163 2.241-4.503 2.241-48.942 0-24.613.076-44.75.17-44.75.093 0 .943 2.363 1.889 5.25 2.806 8.568 6.669 15.517 27.612 49.677 21.982 35.856 24.326 39.243 30.345 43.865 6.681 5.128 11.663 6.52 23.484 6.561 15.323.053 23.008-3.875 27.871-14.246l2.629-5.607.305-69c.168-37.95.024-71.36-.321-74.244-1.389-11.627-10.111-18.928-23.855-19.968-10.031-.758-17.267 1.437-23.051 6.995-7.522 7.227-7.708 8.685-7.37 57.642.182 26.246-.054 41.269-.626 39.851-6.554-16.261-47.103-84.707-55.582-93.823-6.366-6.845-14.207-10.248-24.5-10.634-4.467-.167-10.009.268-12.549.985m762.837-.153c-4.933 1.368-11.736 7.495-14.985 13.494-1.446 2.67-6.228 14.98-10.626 27.355s-15.013 42.209-23.587 66.298c-14.663 41.194-15.59 44.23-15.59 51.054 0 11.782 5.141 19.648 15.5 23.714 4.559 1.789 16.296 1.486 21.266-.549 5.816-2.382 11.506-9.161 14.51-17.287l2.487-6.73h57.385l2.882 7.407c4.374 11.241 9.957 16.234 20.29 18.144 11.544 2.134 22.772-2.647 27.986-11.917 2.606-4.634 3.008-6.34 2.946-12.5-.068-6.714-1.459-10.979-23.651-72.52-25.138-69.71-26.749-73.803-31.067-78.908-5.557-6.571-9.203-7.654-26.534-7.881-8.525-.112-17.17.259-19.212.826m143.691.585c-7.524 2.7-11.055 5.7-14.167 12.038l-2.812 5.726V376c0 80.673-.458 75.093 6.786 82.728 6.29 6.629 7.609 6.772 62.285 6.772h49.07l5.872-3.003c7.972-4.077 10.981-9.633 10.894-20.114-.08-9.664-3.058-15.654-9.881-19.874l-4.864-3.009-31.331-.303-31.331-.302v-56.266c0-61.917-.118-63.276-6.055-70.038-4.617-5.259-11.035-7.789-20.945-8.256-6.453-.304-9.709.033-13.521 1.401m197.275-.181c-5.919 1.875-10.857 6.724-14.8 14.537-1.67 3.308-10.023 25.679-18.562 49.712a66718 66718 0 0 1-23.019 64.696c-7.99 22.391-9.106 28.296-6.932 36.679 2.803 10.808 12.091 17.154 25.103 17.154 12.778 0 19.206-4.755 25.052-18.535l3.096-7.298 28.514-.265 28.515-.265 2.763 7.574c4.782 13.112 12.731 18.814 26.111 18.731 8.78-.054 14.512-2.408 19.588-8.044 4.246-4.713 5.804-9.385 5.811-17.424.005-4.92-3.237-14.706-23.872-72.05-23.957-66.58-26.275-72.489-30.794-78.516-4.831-6.443-8.939-7.684-26.328-7.951-11.565-.177-16.705.144-20.246 1.265M85.628 287.061c-12.322 1.43-18.45 5.197-22.499 13.832L60.5 306.5v139l2.629 5.607c3.008 6.415 7.547 10.341 14.576 12.608 6.33 2.042 55.74 2.915 80.295 1.419 19.651-1.198 26.265-2.585 36.764-7.711 16.602-8.105 26.179-24.554 26.221-45.037.04-19.372-7.218-32.768-21.557-39.79l-5.572-2.728 4.552-3.015c15.879-10.518 21.116-34.315 11.89-54.031-7.894-16.869-22.639-24.081-52.798-25.824-19.035-1.101-62.176-1.063-71.872.063m857.778-.076c-8.857.978-14.99 3.638-19.05 8.262-6 6.834-5.856 4.848-5.856 80.753 0 78.234-.261 75.369 7.517 82.396 7.717 6.972 8.977 7.104 67.983 7.104 41.266 0 53.463-.29 57-1.354 16.96-5.103 18.489-31.714 2.285-39.766-3.436-1.707-7.179-1.926-40.583-2.38l-36.798-.5-.065-13.226-.065-13.225 28.363-.275c27.456-.265 28.515-.349 33.127-2.62 6.944-3.42 10.146-9.26 10.197-18.602.05-9.09-2.367-14.055-8.545-17.552-4.369-2.473-4.731-2.505-33.916-3l-29.5-.5v-22.502l31.114.001c17.112 0 33.458-.444 36.323-.987 12.159-2.306 17.002-7.427 17.819-18.843.797-11.142-3.678-18.376-13.756-22.232-2.714-1.039-13.939-1.384-50-1.537-25.575-.109-49.692.155-53.594.585m173.222.005c-12.422 1.57-18.467 5.305-22.499 13.903l-2.629 5.607-.289 69.36c-.323 77.531-.393 76.612 6.407 84.139 5.361 5.934 12.572 8.29 23.882 7.803 7.527-.323 9.84-.845 14.132-3.189 2.822-1.541 6.111-4.127 7.307-5.745 4.492-6.075 5.061-9.795 5.061-33.075v-21.955l17.75.331c15.605.291 18.173.575 21.25 2.348 5.661 3.262 7.884 9.081 9.604 25.139 2.032 18.976 3.529 23.829 8.957 29.045 7.168 6.888 20.399 9.282 32.096 5.808 14.147-4.201 18.715-13.882 15.371-32.575-.535-2.989-1.453-10.305-2.042-16.257s-2.002-13.317-3.142-16.365c-3.359-8.977-10.66-14.939-21.77-17.775l-4.426-1.13 5.676-2.777c18.294-8.95 26.906-27.167 23.942-50.646-2.963-23.475-16.671-35.631-45.766-40.585-10.512-1.79-77.459-2.851-88.872-1.409M116.75 327.545c-.412.434-.75 7.514-.75 15.735v14.947l17.251-.376c15.068-.329 17.695-.632 20.75-2.398 4.931-2.848 7.205-7.67 6.719-14.244-.48-6.491-2.946-10.054-8.264-11.944-4.405-1.565-34.475-3.014-35.706-1.72M1148 346.481v16.669l19.75-.325c16.596-.273 20.268-.608 22.991-2.096 4.548-2.485 6.359-5.739 6.975-12.531.741-8.177-1.504-12.749-7.644-15.563-4.008-1.837-6.886-2.141-23.322-2.459l-18.75-.363zM606.989 344c-.073.275-4.069 13.775-8.879 30l-8.747 29.5 8.819.288c4.85.158 12.76.158 17.577 0l8.76-.288-8.698-30c-4.784-16.5-8.759-29.775-8.832-29.5m901.07 28.773c-4.612 15.8-8.586 29.29-8.83 29.977-.344.969 3.509 1.25 17.164 1.25 9.684 0 17.607-.257 17.607-.572 0-1.024-16.242-56.893-16.907-58.155-.356-.675-4.421 11.7-9.034 27.5M1858 344.18c0 .282-3.825 13.516-8.5 29.408s-8.5 29.236-8.5 29.653c0 .418 7.923.759 17.607.759 13.672 0 17.501-.279 17.132-1.25-.261-.687-4.177-14.075-8.702-29.75-7.246-25.102-9.037-30.813-9.037-28.82M116 407v16.15l19.75-.325c22.077-.363 25.217-1.137 28.765-7.091 2.734-4.589 2.663-13.677-.136-17.433-4.609-6.184-6.963-6.769-28.629-7.126L116 390.85zm21.499 152.388c-5.141 1.611-11.585 5.884-14.191 9.409-5.079 6.871-6.702 11.493-6.742 19.209-.064 12.215 5.479 21.247 16.712 27.231 3.474 1.85 5.817 2.25 13.222 2.256 8.221.006 9.476-.261 14.5-3.092 13.413-7.557 19.029-24.165 12.949-38.297-2.978-6.924-11.342-14.549-18.187-16.582-6.093-1.809-12.762-1.858-18.263-.134m120.925.669c-15.046 5.789-22.991 22.688-17.889 38.049 2.374 7.148 10.917 15.846 17.893 18.218 11.672 3.969 23.028 1.365 31.662-7.26 7.035-7.027 9.383-13.233 8.683-22.948-1.456-20.191-21.668-33.246-40.349-26.059m123.869-.608c-9.279 2.9-16.952 11.13-19.932 21.38-3.73 12.832 2.418 26.856 14.775 33.7 4.834 2.677 6.254 2.971 14.364 2.971 8.214 0 9.48-.271 14.5-3.099 6.45-3.634 12.247-10.716 14.162-17.302 6.768-23.269-14.913-44.825-37.869-37.65m121.131.547c-15.003 5.953-22.559 21.708-17.974 37.478 2.201 7.573 10.547 16.323 17.978 18.85 11.668 3.968 23.032 1.364 31.646-7.25 14.944-14.944 10.888-38.364-8.352-48.226-6.076-3.115-16.624-3.501-23.298-.852m123.396-.416c-6.417 1.974-14.894 9.872-17.872 16.65-3.11 7.078-3.147 17.356-.086 23.801 3.188 6.71 7.278 11.177 13.282 14.503 4.825 2.672 6.249 2.966 14.356 2.966 8.11 0 9.53-.294 14.364-2.971 9.989-5.532 15.638-15.152 15.58-26.529-.045-8.897-3.133-15.602-10.132-21.998-8.276-7.564-18.529-9.796-29.492-6.422m121.243.551c-3.255 1.286-7.313 4.023-10.107 6.818C719.11 585.795 732.385 618 759 618c8.732 0 14.658-2.511 21.09-8.936 6.969-6.962 9.311-13.1 8.733-22.898-.66-11.198-6.516-19.893-17.028-25.281-6.295-3.227-16.645-3.556-23.732-.754m123.757-.612c-6.477 2.077-14.938 10.006-17.83 16.711-6.051 14.027-.397 30.618 13.01 38.171 5.024 2.831 6.279 3.098 14.5 3.092 7.405-.006 9.748-.406 13.222-2.256 6.604-3.518 10.961-7.89 13.949-13.997 7.182-14.679.614-33.083-14.401-40.351-5.757-2.787-16.067-3.416-22.45-1.37m122.512.271c-17.251 6.166-25.217 25.755-17.008 41.823 3.282 6.422 7.86 10.677 14.997 13.939 4.976 2.273 6.863 2.605 13 2.282 11.395-.599 19.528-5.6 25.4-15.621 3.441-5.872 4.275-16.699 1.848-24.004-5.01-15.086-23.135-23.817-38.237-18.419m122.488-.271c-6.477 2.077-14.938 10.006-17.83 16.711-4.439 10.289-2.308 23.363 5.267 32.316 7.343 8.679 23.324 12.081 33.932 7.225 7.464-3.417 12.238-7.904 15.521-14.589 3.746-7.628 3.853-18.178.261-25.64-3.049-6.333-8.903-12.182-14.806-14.793-5.972-2.642-16.187-3.204-22.345-1.23m122.512.271c-6.708 2.398-11.855 6.388-15.352 11.903-9.883 15.583-4.123 35.593 12.511 43.463 19.636 9.289 42.467-4.8 42.499-26.228.013-8.523-2.166-14.711-7.192-20.42-8.1-9.203-21.239-12.731-32.466-8.718m122.297-.105c-6.627 2.29-14.777 9.908-17.585 16.435-3.434 7.981-3.103 17.287.903 25.423 5.082 10.324 13.162 15.534 25.196 16.248 6.596.391 8.383.115 13.046-2.02 7.464-3.417 12.238-7.904 15.521-14.589 3.771-7.68 3.909-18.248.336-25.605-3.068-6.315-9.001-12.227-14.881-14.828-6.24-2.761-16.258-3.233-22.536-1.064m123.695-.306c-6.341 2.075-11.021 5.344-14.878 10.395-11.845 15.514-6.176 37.689 11.685 45.704 5.437 2.44 7.042 2.709 13.762 2.308 12.235-.731 20.826-6.562 25.857-17.552 2.177-4.755 2.434-6.462 2.046-13.586-.492-9.032-1.903-12.547-7.539-18.785-7.377-8.166-20.719-11.825-30.933-8.484m123.676-.504c-8.29 2.73-15.759 8.941-19.619 16.315-1.065 2.034-1.904 6.451-2.177 11.458-.388 7.124-.131 8.831 2.046 13.586 5.031 10.99 13.622 16.821 25.857 17.552 6.72.401 8.325.132 13.762-2.308 6.958-3.122 12.298-8.422 15.473-15.356 2.945-6.43 2.939-17.826-.012-24.271-2.74-5.985-9.282-12.5-15.165-15.102-4.995-2.21-16.03-3.235-20.165-1.874m120.492.922c-17.386 6.012-25.145 25.128-16.977 41.824 3.064 6.262 7.96 10.792 15.296 14.15 4.665 2.136 6.447 2.411 13.046 2.017 17.002-1.016 28.123-12.796 28.123-29.788 0-9.595-2.731-15.792-9.733-22.088-8.364-7.52-19.232-9.754-29.755-6.115m124.508-.922c-5.732 1.887-10.999 5.317-14.803 9.639-12.781 14.52-8.317 37.487 9.08 46.712 3.461 1.835 5.848 2.243 13.223 2.257 7.617.014 9.742-.362 13.83-2.45 10.315-5.269 16.129-15.014 16.129-27.033 0-12.25-5.562-21.457-16.066-26.596-5.818-2.847-16.568-4.117-21.393-2.529"/>
  </g>
</svg>