<svg xmlns="http://www.w3.org/2000/svg" width="64" height="64" viewBox="0 0 64 64"><title>Icon-Architecture/48/Arch_AWS-Payment-Cryptography_48</title><g id="Icon-Architecture/48/Arch_AWS-Payment-Cryptography_48" fill="none" fill-rule="evenodd" stroke="none" stroke-width="1"><g id="Icon-Architecture-BG/48/Security-Identity-Compliance" fill="#dd344c"><path id="Rectangle" d="M0 0h64v64H0z"/></g><g id="Icon-Service/48/AWS-Payment-Cryptography_48" fill="#fff" transform="translate(10 10)"><path id="Fill-3" d="M7 30h5v-3H7zm6 2H6a1 1 0 0 1-1-1v-5a1 1 0 0 1 1-1h7a1 1 0 0 1 1 1v5a1 1 0 0 1-1 1m16 6h6v-2h-6zm-8 0h6v-2h-6zm-8 0h6v-2h-6zm-8 0h6v-2H5zm36 1V29h-2v10c0 1.654-1.346 3-3 3H5c-1.654 0-3-1.346-3-3V22c0-1.654 1.346-3 3-3h14v-2H5c-2.757 0-5 2.243-5 5v17c0 2.757 2.243 5 5 5h31c2.757 0 5-2.243 5-5M25.346 7.229H25.3a1 1 0 0 0-.708.332 1.018 1.018 0 0 0 .062 1.444.98.98 0 0 0 .736.267 1 1 0 0 0 .708-.33 1.018 1.018 0 0 0-.752-1.713m-.004 4.045a3 3 0 0 1-2.038-.794 3 3 0 0 1-.979-2.096 3 3 0 0 1 .791-2.174 3 3 0 0 1 2.096-.978 2.97 2.97 0 0 1 2.174.79h.001c.594.545.942 1.29.977 2.096a3 3 0 0 1-.791 2.174 3 3 0 0 1-2.095.979zm14.404 13.115 2.201.34-.122-2.775-10.656-9.757a1 1 0 0 1-.225-1.175c1.203-2.48.623-5.511-1.411-7.374a6.27 6.27 0 0 0-5.073-1.593c-1.875.249-3.477 1.284-4.51 2.913-1.385 2.183-1.23 5.13.376 7.165 1.768 2.239 4.719 3.029 7.334 1.966a1 1 0 0 1 1.052.189l2.052 1.877a1 1 0 0 1 .324.694l.085 1.94 1.94-.086c.267-.006.524.083.72.262l1.534 1.405a1 1 0 0 1 .323.693l.085 1.94 1.941-.086c.269-.001.523.083.72.262zM43 26.904a1 1 0 0 1-.152-.012l-3.706-.573a1 1 0 0 1-.524-.251l-1.228-1.125-2.526.112a.99.99 0 0 1-.719-.262 1 1 0 0 1-.324-.693l-.11-2.525-.924-.846-2.525.112a1 1 0 0 1-1.043-.955l-.111-2.525-1.299-1.19c-3.292 1.056-6.862-.025-9.053-2.8a8.22 8.22 0 0 1-.495-9.475C19.597 1.79 21.76.396 24.196.073a8.27 8.27 0 0 1 6.687 2.1c2.495 2.284 3.331 5.902 2.159 9.027l10.439 9.558a1 1 0 0 1 .324.694l.194 4.408A1 1 0 0 1 43 26.904"/></g></g></svg>