<svg height="48" viewBox="0 0 48 48" width="48" xmlns="http://www.w3.org/2000/svg"><path d="m24 4c-8.271 0-15 5.832-15 13 0 5.726 4.427 10.853 10.766 12.468 1.053.268 1.869 1.113 2.126 2.204l2.108 8.962 2.108-8.962c.257-1.091 1.073-1.936 2.127-2.204 6.338-1.615 10.765-6.742 10.765-12.468 0-7.168-6.729-13-15-13m0 42c-.464 0-.867-.319-.974-.771l-3.082-13.099c-.084-.357-.347-.641-.672-.723-7.226-1.842-12.272-7.766-12.272-14.407 0-8.271 7.626-15 17-15s17 6.729 17 15c0 6.641-5.046 12.564-12.271 14.407-.326.082-.589.366-.673.723l-3.082 13.099c-.107.452-.51.771-.974.771m0-34c-2.757 0-5 2.243-5 5s2.243 5 5 5 5-2.243 5-5-2.243-5-5-5m0 12c-3.859 0-7-3.14-7-7s3.141-7 7-7 7 3.14 7 7-3.141 7-7 7" fill="#dd344c" fill-rule="evenodd"/></svg>