<svg viewBox="0 0 24 24" xmlns="http://www.w3.org/2000/svg" fill="#101227"><path d="m24 10.409-5.311-9.199h-10.624l2.518 4.359.769 1.331-.918 1.592h-1.836l-.769-1.333-2.517-4.36-5.312 9.2 5.311 9.199 2.518-4.36.769-1.333h1.836l.919 1.593-.77 1.332-2.517 4.359h10.624l5.31-9.199h-6.571l-.919-1.591.919-1.59zm-18.712-5.081.982 1.702-1.507 2.61h6.334l3.169-5.486h-3.015l-.983-1.702h7.046l-5.183 8.977h-10.368zm4.98 16.219.983-1.703h3.015l-3.169-5.488h-6.334l1.507 2.611-.982 1.704-3.525-6.104h10.368l1.364 2.363 3.819 6.617zm8.084-4.062 1.505-2.61h1.969l-3.525 6.102-3.109-5.382-2.077-3.596 2.459-4.257 2.727-4.72 3.525 6.102h-1.969l-1.505-2.611-3.17 5.486z"/></svg>