<svg xmlns="http://www.w3.org/2000/svg" width="88.46" height="21.17" viewBox="0 0 88.46 21.17"><text x="247.396" y="445.438" font-size="15" transform="translate(-162.486 -437.92)"><tspan x="247.396" y="445.438" fill="#2d7bc8" font-family="Futura" font-size="3.682" font-weight="400">®</tspan></text><path fill="#2d7bc8" d="M31.351 12.352c-.202-1.103-1.215-1.824-2.319-1.824-1.191 0-2.184.63-2.431 1.824zm3.804 2.364h-8.62c0 1.665.877 2.566 2.566 2.566.878 0 1.506-.294 1.959-1.059h3.937c-.651 2.723-3.241 3.961-5.875 3.961-3.825 0-6.685-2.16-6.685-6.143 0-3.85 2.635-6.169 6.393-6.169 4.007 0 6.325 2.476 6.325 6.416m7.212 5.695H38.27v-8.17h-2.048V8.437h2.048V4.969h4.097v3.468h2.019v3.376h-2.019m14.677 8.17h4.096V7.646h-4.096zm12.316-.05h-4.099v-7.771h-2.04V8.784h2.04v-.602c0-1.598.047-2.769 1.17-4.052a5.25 5.25 0 0 1 4.03-1.845c.632 0 1.193.112 1.757.405v3.534c-.473-.202-.9-.382-1.442-.382-1.056 0-1.416.63-1.416 1.936v1.006h2.446v3.378H69.36m12.259.198c-.2-1.104-1.212-1.823-2.315-1.823-1.195 0-2.185.63-2.431 1.823zm3.807 2.364h-8.622c0 1.665.878 2.565 2.566 2.565.878 0 1.508-.293 1.959-1.058h3.939c-.653 2.724-3.243 3.963-5.875 3.963-3.827 0-6.687-2.162-6.687-6.147 0-3.848 2.635-6.166 6.394-6.166 4.008 0 6.326 2.475 6.326 6.415M59.084 1.025a2.53 2.53 0 1 0 0 5.06 2.53 2.53 0 0 0 0-5.06M3.919 3.81h4.144l3.282 8.651 3.479-8.651h4.186l2.448 16.186H17.25l-1.18-9.316h-.044l-3.885 9.316h-1.673L6.753 10.68h-.044l-1.352 9.316H1.17m49.222-3.646h5.127v3.62h-9.402V3.524h4.275"/></svg>