<svg xmlns="http://www.w3.org/2000/svg" width="18" height="18" viewBox="0 0 18 18"><defs><mask id="a"><path fill="#fff" d="M0 0h18v18H0z"/><path d="M12.124 9.31c-.484.567-1.007 1.214-2.053 1.214-.934 0-1.282-.765-1.307-1.387.205.402.605.728 1.229.713 1.201-.036 2.024-1.043 2.024-1.961C12.017 6.792 11.136 6 9.606 6c-1.094 0-2.45.387-3.341.998-.01.63.368 1.448.504 1.358.772-.516 1.385-.848 1.979-1.014-.879.911-2.989 3.026-3.248 3.398.029.342.484 1.259.707 1.259.068 0 .126-.036.194-.099a28 28 0 0 0 1.616-1.833c.065.841.51 1.869 1.754 1.869 1.114 0 2.218-.747 2.721-2.429.058-.207-.213-.369-.368-.198zm-1.269-1.358c0 .531-.562.792-1.075.792-.274 0-.485-.067-.652-.154.307-.431.61-.874.936-1.347.575.09.79.387.79.709z"/></mask></defs><g fill="currentColor" mask="url(#a)"><path fill-rule="evenodd" d="M9 .5a.5.5 0 0 1 .5.5v1h2V1a.5.5 0 0 1 1 0v1H14a2 2 0 0 1 2 2v1.5h1a.5.5 0 0 1 0 1h-1v2h1a.5.5 0 0 1 0 1h-1v2h1a.5.5 0 0 1 0 1h-1V14a2 2 0 0 1-2 2h-1.5v1a.5.5 0 0 1-1 0v-1h-2v1a.5.5 0 0 1-1 0v-1h-2v1a.5.5 0 0 1-1 0v-1H4a2 2 0 0 1-2-2v-1.5H1a.5.5 0 0 1 0-1h1v-2H1a.5.5 0 0 1 0-1h1v-2H1a.5.5 0 0 1 0-1h1V4a2 2 0 0 1 2-2h1.5V1a.5.5 0 0 1 1 0v1h2V1A.5.5 0 0 1 9 .5M8.984 3H4a1 1 0 0 0-1 1v10a1 1 0 0 0 1 1h10a1 1 0 0 0 1-1V4.002a1 1 0 0 0-1-1H8.984z"/><rect width="10" height="10" x="4" y="4" rx=".5"/></g></svg>