<svg height="18" viewBox="0 0 18 18" width="18" xmlns="http://www.w3.org/2000/svg" xmlns:xlink="http://www.w3.org/1999/xlink"><linearGradient id="a" gradientTransform="matrix(1 0 0 -1 0 20)" gradientUnits="userSpaceOnUse" x1=".562" x2="17.561" y1="2.684" y2="19.437"><stop offset="0" stop-color="#757575"/><stop offset=".915" stop-color="#b0b0b0"/></linearGradient><linearGradient id="b" gradientTransform="matrix(1 0 0 -1 0 20)" gradientUnits="userSpaceOnUse" x1="13.321" x2="4.581" y1="15.339" y2="6.563"><stop offset="0" stop-color="#0078d4"/><stop offset="1" stop-color="#005ba1"/></linearGradient><path d="m9 .5a.5.5 0 0 1 .5.5v1h2v-1a.5.5 0 0 1 1 0v1h1.5a2 2 0 0 1 2 2v1.5h1a.5.5 0 0 1 0 1h-1v2h1a.5.5 0 0 1 0 1h-1v2h1a.5.5 0 0 1 0 1h-1v1.5a2 2 0 0 1 -2 2h-1.5v1a.5.5 0 0 1 -1 0v-1h-2v1a.5.5 0 0 1 -1 0v-1h-2v1a.5.5 0 0 1 -1 0v-1h-1.5a2 2 0 0 1 -2-2v-1.5h-1a.5.5 0 0 1 0-1h1v-2h-1a.5.5 0 0 1 0-1h1v-2h-1a.5.5 0 0 1 0-1h1v-1.5a2 2 0 0 1 2-2h1.5v-1a.5.5 0 0 1 1 0v1h2v-1a.5.5 0 0 1 .5-.5m-.016 2.5h-4.984a1 1 0 0 0 -1 1v10a1 1 0 0 0 1 1h10a1 1 0 0 0 1-1v-9.998a1 1 0 0 0 -1-1h-5.016z" fill="url(#a)" fill-rule="evenodd"/><rect fill="url(#b)" height="10" rx=".5" width="10" x="4" y="4"/><path d="m12.124 9.31c-.484.567-1.007 1.214-2.053 1.214-.934 0-1.282-.765-1.307-1.387.205.402.605.728 1.229.713 1.201-.036 2.024-1.043 2.024-1.961-0-1.097-.881-1.889-2.411-1.889-1.094 0-2.45.387-3.341.998-.01.63.368 1.448.504 1.358.772-.516 1.385-.848 1.979-1.014-.879.911-2.989 3.026-3.248 3.398.029.342.484 1.259.707 1.259.068 0 .126-.036.194-.099a28 28 0 0 0 1.616-1.833c.065.841.51 1.869 1.754 1.869 1.114 0 2.218-.747 2.721-2.429.058-.207-.213-.369-.368-.198zm-1.269-1.358c0 .531-.562.792-1.075.792-.274 0-.485-.067-.652-.154.307-.431.61-.874.936-1.347.575.09.79.387.79.709z" fill="#fff"/></svg>