<svg xmlns="http://www.w3.org/2000/svg" width="18" height="18" viewBox="0 0 18 18"><defs><mask id="a"><path fill="#fff" d="M0 0h18v18H0z"/><path d="M3.9 11.1q-1.446 0-1.446-2.031a2.76 2.76 0 0 1 .391-1.606 1.3 1.3 0 0 1 1.134-.552q1.411 0 1.412 2.065a2.7 2.7 0 0 1-.386 1.576A1.27 1.27 0 0 1 3.9 11.1m.039-3.5q-.579 0-.579 1.45 0 1.371.568 1.37t.554-1.412q0-1.408-.543-1.408m4.972 3.5q-1.446 0-1.446-2.031a2.76 2.76 0 0 1 .392-1.606 1.3 1.3 0 0 1 1.134-.552q1.412 0 1.412 2.065a2.7 2.7 0 0 1-.386 1.576 1.27 1.27 0 0 1-1.106.548m.04-3.5q-.579 0-.579 1.454 0 1.371.568 1.37t.553-1.412q0-1.412-.542-1.412"/><path d="M14.8 6.939v4.141h-.89V7.945a1 1 0 0 1-.174.122 2 2 0 0 1-.213.105 2 2 0 0 1-.235.079 2 2 0 0 1-.24.047v-.752a3.7 3.7 0 0 0 .655-.259 4 4 0 0 0 .557-.348z"/><path d="M1.857 4.552h4.13v8.895h-4.13z"/><path d="M6.94 4.552h4.13v8.895H6.94z"/><path d="M12.023 4.552h4.13v8.895h-4.13z"/></mask></defs><path fill="currentColor" d="M17.5 5.788V2.734a.57.57 0 0 0-.568-.568H1.071a.57.57 0 0 0-.571.568v12.532a.57.57 0 0 0 .568.568h15.864a.57.57 0 0 0 .568-.568z" mask="url(#a)"/></svg>