<svg height="18" viewBox="0 0 18 18" width="18" xmlns="http://www.w3.org/2000/svg"><path d="m17.5 5.788v-3.054a.57.57 0 0 0 -.568-.568h-15.861a.57.57 0 0 0 -.571.568v12.532a.57.57 0 0 0 .568.568h15.864a.57.57 0 0 0 .568-.568z" fill="#0078d4"/><g fill="#fff"><rect height="8.895" rx=".307" width="4.13" x="1.857" y="4.552"/><rect height="8.895" opacity=".75" rx=".307" width="4.13" x="6.94" y="4.552"/><rect height="8.895" opacity=".5" rx=".307" width="4.13" x="12.023" y="4.552"/></g><path d="m3.9 11.1q-1.446 0-1.446-2.031a2.76 2.76 0 0 1 .391-1.606 1.3 1.3 0 0 1 1.134-.552q1.411 0 1.412 2.065a2.72 2.72 0 0 1 -.386 1.576 1.27 1.27 0 0 1 -1.105.548m.039-3.5q-.579 0-.579 1.45 0 1.371.568 1.37t.554-1.412q0-1.408-.543-1.408m4.972 3.5q-1.446 0-1.446-2.031a2.76 2.76 0 0 1 .392-1.606 1.3 1.3 0 0 1 1.134-.552q1.412 0 1.412 2.065a2.72 2.72 0 0 1 -.386 1.576 1.27 1.27 0 0 1 -1.106.548m.04-3.5q-.579 0-.579 1.454 0 1.371.568 1.37t.553-1.412q0-1.412-.542-1.412" fill="#0078d4"/><path d="m14.8 6.939v4.141h-.89v-3.135a1 1 0 0 1 -.174.122 2 2 0 0 1 -.213.105 2 2 0 0 1 -.235.079 2 2 0 0 1 -.24.047v-.752a3.7 3.7 0 0 0 .655-.259 4 4 0 0 0 .557-.348z" fill="#f2f2f2"/></svg>