<svg xmlns="http://www.w3.org/2000/svg" width="165" height="165" fill="none" viewBox="0 0 165 165">
  <defs>
    <mask id="ko">
      <rect width="165" height="165" fill="white"/>
      <path fill="black" d="M46.792 52.664C46.792 31.31 64.102 14 85.456 14h35.928c22.864 0 41.4 18.535 41.4 41.4s-18.536 41.4-41.401 41.4h-74.59z"/>
      <path fill="black" d="M3 108.401c0-21.353 17.31-38.664 38.664-38.664H77.59c22.865 0 41.4 18.536 41.4 41.4 0 22.865-18.535 41.4-41.4 41.4H3z"/>
      <path fill="black" d="M46.792 52.664C46.792 31.31 64.102 14 85.456 14h35.928c22.864 0 41.4 18.535 41.4 41.4s-18.536 41.4-41.401 41.4h-74.59z"/>
    </mask>
  </defs>
  <g>
    <path fill="currentColor" mask="url(#ko)" d="M3 108.401c0-21.353 17.31-38.664 38.664-38.664H77.59c22.865 0 41.4 18.536 41.4 41.4 0 22.865-18.535 41.4-41.4 41.4H3z"/>
  </g>
</svg>