<svg viewBox="0 0 24 24" xmlns="http://www.w3.org/2000/svg"><path d="m12 0c-6.62 0-12 5.38-12 12s5.38 12 12 12 12-5.38 12-12-5.38-12-12-12zm-4.837 20.618c-3.011-1.691-5.043-4.916-5.043-8.618 0-5.46 4.42-9.88 9.88-9.88 1.429 0 2.496.536 3.029 1.187.534.65.684 1.715.5 3.253l-3.207.631c-2.905.532-4.506 2.148-5.06 5.065-.07.406-.15.812-.226 1.196-.031.157-.062.312-.09.46-.073.396-.143.773-.208 1.124-.093.505-.177.957-.247 1.34-.324 1.884-.06 3.276.672 4.242zm7.986-11.851c-.087.434-.167.867-.247 1.302-.081.434-.16.868-.247 1.301-.396 2.05-1.364 2.996-3.42 3.391l-2.391.474c.059-.296.119-.611.178-.927.022-.12.044-.241.067-.362.078-.421.157-.855.25-1.313.395-2.05 1.344-2.996 3.399-3.391zm-3.149 13.113c-1.429 0-2.496-.536-3.029-1.187s-.684-1.715-.5-3.253l3.18-.631c2.905-.532 4.507-2.148 5.08-5.046.069-.406.149-.812.226-1.196.031-.157.062-.311.09-.46.087-.471.171-.917.247-1.327.081-.432.154-.822.215-1.156.325-1.884.061-3.275-.671-4.242 3.01 1.691 5.042 4.916 5.042 8.618 0 5.46-4.42 9.88-9.88 9.88z"/></svg>