<svg xmlns="http://www.w3.org/2000/svg" width="400" height="90" viewBox="0 0 400 90"><path fill="currentColor" d="M49.23 3.794c-.273 2.427-.159 5.03.54 7.131.94 2.83 2.24 4.871 7.028 11.1 5.053 6.573 6.67 8.956 7.872 12.365.983 2.787 1.004 4.397.582 6.926 4.426.843 11.682 3.194 16.546 6.11 4.51 2.775 7.791 6.372 8.992 9.862.71 2.065.68 5.265-.072 7.266-.724 1.922-1.717 3.528-3.182 5.132-5.823 6.378-17.351 10.959-31.238 12.417-3.072.323-10.6.553-13.182.403-18.551-1.08-33.469-7.489-37.714-16.2-1.766-3.621-1.722-6.74.138-10.322 1.535-2.953 5.74-6.604 10.685-9.282 4.758-2.29 9.225-4.002 14.012-5.349.233 3.126 6.324 10.596 8.34 13.24 4.397 5.756 6.136 8.501 7.378 10.7.746 1.32 1.168 2.163.957 4.676 0 0 1.692-1.531 2.33-2.832.827-1.684 1.12-3.392.962-5.587-.192-2.644-.64-4.263-1.904-6.85-1.228-2.517-2.99-5.062-6.337-9.17-4.727-5.802-6.478-8.99-7.2-13.13-.802-4.594.49-9.478 3.136-11.857.575-.517 1.501-1.021 1.501-1.021s-.079 1.184-.079 2.53c0 2.846.325 4.328 1.417 6.495 1.356 2.692 3.231 5.21 8.985 12.055 5.091 6.06 6.674 9.137 6.674 12.984l.002 1.855s1.344-1.026 1.967-1.967c1.973-2.98 2.287-7.628.784-11.746-1.03-2.821-2.7-5.39-7.635-11.593-5.025-6.315-7.133-11.374-7.133-15.59 0-4.217.915-8.238 4.849-10.75m94.387 62.08c.113-1.408.006-2.795-.148-3.534-.605-2.906-2.749-5.826-5.855-7.973-.94-.651-3.768-2.117-6.694-3.468-5.86-2.71-7.506-3.688-8.964-5.324-1.43-1.603-1.958-3.027-1.971-5.314-.01-1.521.077-1.982.569-3.056 1.593-3.474 5.574-5.323 10.203-4.736 2.73.345 4.16.955 5.768 2.46 1.681 1.572 2.538 3.394 3.001 6.387l.139 1.686h2.528l-.21-11.594-.843-.21c-.638-.16-4.839-.959-7.063-1.24-3.32-.418-4.666-.468-6.62-.243-3.786.436-6.918 1.874-9.28 4.258-2.407 2.43-3.574 5.007-3.756 8.29-.186 3.37.888 6.157 3.295 8.549 2.02 2.007 2.881 2.526 9.123 5.494 7.987 3.799 9.795 4.922 11.006 7.776 1.051 2.476 1.128 5.258.04 7.483-2.783 5.687-11.537 7.17-16.986 2.884-2.034-1.6-3.526-4.024-4.011-6.52l-.257-1.318h-2.158l.385 11.1s4.149 1.116 6.083 1.323c1.462.155 2.918.437 4.388.437 2.951 0 4.32.387 7.378-.632 3.162-1.055 10.119-3.163 10.91-12.965m19.446-18.234c3.372 0 6.324 1.475 7.725 3.652 1.325 2.06 1.339 3.828 1.339 4.99v16.021c0 1.897 1.375 2.51 3.358 1.842l1.49-.577v2.108l-7.38 3.225c-.856.382-1.441-.49-1.85-2.102l-.466-1.545-1.228.96c-1.736 1.357-4.043 2.624-7.415 2.624-3.184.013-5.27-.422-7.34-3.725-.97-1.908-1.075-4.474-.257-6.324.947-2.144 2.824-3.243 10.705-6.29l5.324-2v-1.477c0-5.48-1.475-7.166-3.373-8.22-1.526-.848-3.551-.628-5.48.631-1.597 1.043-2.081 2.802-1.261 4.609.633 1.395.415.957.415 1.001l-4.328 2.286s-.748-1.281-.962-1.983c-.993-3.258.282-5.096 5.172-7.786 2.555-1.407 4.059-1.92 5.811-1.92m4.006 15.177s-6.938 2.93-8.27 3.607c-1.066.543-2.286 1.51-2.694 2.296-.527 1.023-.44 2.893.213 4.006.611 1.043 1.351 1.896 2.318 2.318.347.152 1.508.417 2.319.421 1.645.01 3.379-.68 5.15-2.15l.963-.8zm21.713-15.177v5.671l1.45-1.37c3.14-2.97 6.138-4.301 8.457-4.301 5.27 0 10.12 4.637 9.908 11.172V73.99c0 1.687.421 2.741 2.108 2.741h2.74v2.109H198.9v-2.11h2.108c1.687 0 2.319-1.054 2.319-2.74V58.813c0-3.162-1.16-4.743-2.108-5.692-1.265-1.264-2.802-1.62-5.06-1.475-1.753.112-3.549 1.04-5.612 2.707l-1.344 1.087v19.604c0 1.056.422 1.687 1.476 1.687h2.74v2.109h-14.334v-2.109h1.897c1.687 0 2.95-1.054 2.95-2.74V57.758c0-4.216-1.264-5.481-4.847-3.584v-2.252c2.318-.699 6.535-2.807 8.853-4.282zm40.684 31.199c1.897 0 2.343-.212 4.111-1.703l3.478-2.936-.843-1.475-1.55.826c-2.317 1.234-4.142 1.493-6.46.438-1.976-.897-3.162-4.005-3.162-5.69V51.23l9.696-.007 1.054-2.95h-10.75v-9.698h-1.055c-2.53 4.637-6.324 9.065-10.961 11.805v.843h6.745V68.3c0 4.005 1.476 6.955 3.795 8.642 2.2 1.6 3.583 1.898 5.902 1.898m22.344-31.199c3.375 0 6.325 1.475 7.726 3.652 1.326 2.06 1.34 3.828 1.34 4.99v16.021c0 1.897 1.375 2.51 3.358 1.842l1.49-.577v2.108l-7.38 3.225c-.857.382-1.442-.49-1.851-2.102l-.466-1.545-1.227.96c-1.736 1.357-4.043 2.624-7.415 2.624-3.184.013-5.27-.422-7.34-3.725-.97-1.908-1.075-4.474-.257-6.324.947-2.144 2.823-3.243 10.704-6.29l5.324-2v-1.477c0-5.48-1.475-7.166-3.372-8.22-1.526-.848-3.552-.628-5.48.631-1.597 1.043-2.081 2.802-1.262 4.609.634 1.395.416.957.416 1.001l-4.328 2.286s-.748-1.281-.962-1.983c-.994-3.258.282-5.096 5.171-7.786 2.556-1.407 4.06-1.92 5.812-1.92m4.005 15.177s-6.937 2.93-8.269 3.607c-1.065.543-2.286 1.51-2.693 2.296-.528 1.023-.44 2.893.212 4.006.612 1.043 1.352 1.896 2.319 2.318.347.152 1.507.417 2.318.421 1.645.01 3.38-.68 5.15-2.15l.963-.8zm21.714-15.177v5.671l1.448-1.37c3.141-2.97 6.14-4.301 8.459-4.301 5.27 0 10.118 4.637 9.908 11.172V73.99c0 1.687.42 2.741 2.107 2.741h2.74v2.109h-14.545v-2.11h2.109c1.687 0 2.318-1.054 2.318-2.74V58.813c0-3.162-1.16-4.743-2.107-5.692-1.265-1.264-2.803-1.62-5.06-1.475-1.754.112-3.55 1.04-5.613 2.707l-1.343 1.087v19.604c0 1.056.421 1.687 1.475 1.687h2.74v2.109h-14.333v-2.109h1.897c1.687 0 2.951-1.054 2.951-2.74V57.758c0-4.216-1.265-5.481-4.848-3.584v-2.252c2.319-.699 6.535-2.807 8.854-4.282zm62.607 27.614v-2.107c-2.319 1.053-3.372 1.053-4.166.517-1.135-.769-1.105-2.204-1.105-2.204V25.085h-.631c-3.052 1.934-6.746 3.795-9.908 4.848v2.319c1.686-.632 2.948-.967 4.006-.421.69.38 1.053.843 1.053 1.897v15.76l-1.237-.5c-2.485-1.003-3.767-1.236-6.774-1.23-2.515.005-3.041.071-4.536.57-6.932 2.315-11.367 9.086-11.002 16.797.21 4.41 1.486 7.873 4.366 10.341 2.951 2.53 5.48 3.374 8.433 3.374 4.005 0 6.326-.8 9.227-2.77a50 50 0 0 0 1.734-1.236c.211 2.108.725 3.373 1.476 4.427zm-21.854-.377c-3.938-1.407-6.8-6.263-7.17-12.165-.462-7.377 3.627-12.542 9.93-12.542 2.649 0 4.683.725 7.134 2.545l1.214.9-.11 18.946-1.352.818c-2.298 1.39-3.408 1.716-6.131 1.807-1.97.065-2.63.007-3.515-.309m44.515 3.645c1.752-.464 4.11-1.37 6.851-3.057v-2.108c-2.318 1.687-5.993 2.735-9.275 2.74-3.562.007-6.324-1.053-8.221-3.161-2.8-3.11-3.584-5.692-4.068-12.016h22.197s0-3.162-1.265-6.113c-.867-2.023-1.687-3.584-4.006-5.06-2.17-1.38-5.102-1.967-7.588-1.983-2.587-.016-2.987.033-4.392.546-6.563 2.395-11.03 9.193-10.482 15.95.53 6.538 4.349 11.779 10.116 13.882 2.552.931 7.372 1.112 10.133.38m-12.121-26.034c1.476-1.476 3.162-2.318 5.903-2.318 2.53 0 4.215.631 5.903 2.318 1.263 1.265 1.896 2.319 2.166 5.902h-16.56c.27-2.53 1.113-4.427 2.588-5.902m32.042-4.848v6.956c1.109-1.909 2.108-3.162 4.006-5.059 1.463-1.464 3.372-1.897 4.848-1.897 1.053 0 3.794.843 3.794.843v6.324h-1.053c-.423-1.687-1.898-2.53-4.006-2.53-2.74 0-4.533 1.107-5.64 2.767s-1.528 2.504-1.528 6.087v13.913c0 1.054.422 1.686 1.476 1.686h2.74v2.109h-14.334v-2.11h1.898c1.686 0 2.95-1.054 2.95-2.74V57.758c0-4.637-1.685-4.426-4.637-3.162v-2.108c2.74-1.054 6.114-2.53 8.642-4.848z"/></svg>