<svg height="18" viewBox="0 0 18 18" width="18" xmlns="http://www.w3.org/2000/svg" xmlns:xlink="http://www.w3.org/1999/xlink"><linearGradient id="a"><stop offset=".001" stop-color="#773adc"/><stop offset="1" stop-color="#552f99"/></linearGradient><linearGradient id="b" gradientUnits="userSpaceOnUse" x1="11.565" x2="12.577" xlink:href="#a" y1="14.729" y2="14.729"/><linearGradient id="c" gradientUnits="userSpaceOnUse" x1="6.415" x2="7.427" xlink:href="#a" y1="5.733" y2="5.733"/><linearGradient id="d" gradientUnits="userSpaceOnUse" x1="1.265" x2="2.278" xlink:href="#a" y1="14.729" y2="14.729"/><path d="m12.85 2.257-3.85 2.26-3.85-2.26 3.85-2.257zm-6.7 8.091-.73-.43-1.566-.918-3.854 2.248 3.85 2.26 3.85-2.26zm8-1.35-1.57.92-.73.43-1.55.9 3.11 1.83.74.43.36-.21 3.49-2.05z" fill="#b796f9"/><path d="m9 4.518v4.482l-1.56-.91-.73-.43-1.56-.91v-4.492l3.49 2.05zm-9 6.735v4.49l3.854 2.257v-4.487zm13.414 1.825v-.01l-3.11-1.82v4.5l3.85 2.252v-4.49z" fill="#a67af4"/><path d="m12.081 13.49a1.08 1.08 0 0 1 .492.935.285.285 0 0 1 -.248.287h-.024l.206.912.062.278c.022.108-.035.165-.119.116l-.139-.079-.138-.08q-.242-.141-.483-.278a.27.27 0 0 1 -.119-.26q.133-.417.262-.836c.009-.027.007-.043-.019-.078a1 1 0 0 1 -.238-.7c.023-.217.137-.315.324-.286a.6.6 0 0 1 .181.069" fill="url(#b)"/><path d="m12.854 2.258v4.49l-1.56.91-.73.43-1.564.912v-4.492zm-8.26 10.81v.01l-.74.43v4.492l3.85-2.25v-4.5zm9.56.437v4.495l3.846-2.257v-4.49zm-6.454-.417v.85h2.6v-.85zm-.99-5.43-1.29 2.26.73.43 1.29-2.26zm4.58 0-.73.43 1.29 2.26.73-.43z" fill="#773adc"/><path d="m6.932 4.5a1.08 1.08 0 0 1 .491.935.285.285 0 0 1 -.247.286h-.025l.206.912.062.279c.02.093-.035.164-.119.115l-.139-.079-.138-.08-.483-.28a.27.27 0 0 1 -.119-.26q.133-.417.262-.836c.009-.027.007-.043-.019-.078a1 1 0 0 1 -.238-.7c.023-.217.138-.315.325-.285a.5.5 0 0 1 .181.071" fill="url(#c)"/><path d="m1.782 13.49a1.08 1.08 0 0 1 .491.935.285.285 0 0 1 -.247.287h-.025l.206.912.062.278c.023.108-.035.165-.119.116l-.139-.079-.138-.08q-.242-.141-.483-.278a.27.27 0 0 1 -.119-.26q.133-.417.263-.836c.009-.027.006-.043-.02-.078a1 1 0 0 1 -.238-.7c.023-.217.138-.315.325-.286a.6.6 0 0 1 .181.069" fill="url(#d)"/></svg>