<svg viewBox="0 0 24 24" xmlns="http://www.w3.org/2000/svg" fill="#F0B90B"><path d="m5.631 3.676 6.37-3.676 6.367 3.676-2.34 1.358-4.028-2.318-4.028 2.318-2.34-1.358zm12.737 4.636-2.34-1.358-4.028 2.318-4.028-2.318-2.34 1.358v2.716l4.026 2.318v4.636l2.342 1.359 2.341-1.359v-4.636l4.027-2.318zm0 7.352v-2.716l-2.34 1.358v2.716zm1.663.96-4.027 2.318v2.717l6.368-3.677v-7.352l-2.34 1.358v4.636zm-2.34-10.63 2.34 1.358v2.716l2.341-1.358v-2.716l-2.34-1.358-2.342 1.358zm-8.034 13.932v2.716l2.343 1.358 2.341-1.358v-2.716l-2.34 1.358-2.343-1.358zm-4.027-4.262 2.341 1.358v-2.716l-2.34-1.358v2.716zm4.027-9.67 2.343 1.358 2.341-1.358-2.34-1.358-2.343 1.358zm-5.69 1.358 2.343-1.358-2.342-1.358-2.34 1.358v2.716l2.34 1.358v-2.716zm0 4.636-2.34-1.358v7.352l6.368 3.677v-2.717l-4.028-2.318z"/></svg>