<svg fill="none" height="192" viewBox="0 0 192 192" width="192" xmlns="http://www.w3.org/2000/svg" xmlns:xlink="http://www.w3.org/1999/xlink"><linearGradient id="a" gradientUnits="userSpaceOnUse" x1="96" x2="54.612" y1="59.284" y2="171.338"><stop offset=".33" stop-color="#3186ff"/><stop offset="1" stop-color="#a9a8ff"/></linearGradient><filter id="b" color-interpolation-filters="sRGB" filterUnits="userSpaceOnUse" height="196" width="130" x="31" y="8"><feFlood flood-opacity="0" result="BackgroundImageFix"/><feBlend in="SourceGraphic" in2="BackgroundImageFix" result="shape"/><feGaussianBlur result="effect1_foregroundBlur_37242_8762" stdDeviation="6"/></filter><mask id="c" height="176" maskUnits="userSpaceOnUse" width="128" x="32" y="8"><path d="m130.334 184h-68.734c-8.943 0-13.415 0-16.962-1.404a20 20 0 0 1 -11.233-11.234c-1.405-3.547-1.405-8.019-1.405-16.962v-116.8c0-8.943 0-13.415 1.404-16.963a20 20 0 0 1 11.235-11.233c3.546-1.404 8.018-1.404 16.961-1.404h38.4l54.793 54.793c1.661 1.661 2.492 2.492 3.13 3.43a12 12 0 0 1 1.862 4.502c.212 1.115.212 2.301.21 4.674-.035 48.918-.057 49.4-.058 78.967 0 8.966 0 13.45-1.405 16.997a20 20 0 0 1 -11.233 11.233c-3.547 1.404-8.02 1.404-16.965 1.404" fill="#3186ff"/></mask><g mask="url(#c)"><path d="m159.94 184h-127.94v-176h68l59.999 60z" fill="#3186ff"/><g filter="url(#b)"><path d="m43 192h106v-172h-106z" fill="url(#a)"/></g></g><path d="m154.995 62.995a14.93 14.93 0 0 0 -8.995-2.995h-33.2c-7.069 0-12.8-5.73-12.8-12.8v-39.2z" fill="#76bbff"/><g fill="#fff"><rect height="12" rx="6" width="64" x="64.001" y="114"/><rect height="12" rx="6" width="48" x="64.001" y="143"/></g></svg>