<svg fill="#046" viewBox="0 0 24 24" xmlns="http://www.w3.org/2000/svg"><path d="m12 0c-6.628 0-12 5.372-12 12s5.372 12 12 12 12-5.372 12-12-5.372-12-12-12zm0 1.334c.824 0 1.636.191 2.373.56a.53.53 0 0 1 .294.474v1.519a15.985 15.985 0 0 0 -5.334 0v-1.519c0-.2.114-.384.294-.474a5.304 5.304 0 0 1 2.373-.56zm5.143 4.595c.114.043.19.152.19.274v2.122a20.956 20.956 0 0 0 -5.333-1.677c-1.951.344-3.794.943-5.333 1.677v-2.122c0-.122.076-.231.19-.274a14.648 14.648 0 0 1 5.038-.933c1.926-.024 3.725.37 5.248.933zm-5.143 2.071s3.752.625 6.411 2.482c.145.101.18.299.084.448-1.104 1.74-1.97 3.922-2.596 5.838 1.252-1.28 2.24-2.085 4.1-2.101.9 0 1.598.202 2.185.516-1.764 5.435-6.681 7.537-10.184 7.484-4.337.02-8.32-2.702-9.914-6.723.8-.709 1.74-1.277 3.247-1.277.92 0 1.626.212 2.22.537-.554-1.475-1.236-2.994-2.048-4.274a.33.33 0 0 1 .084-.448c2.659-1.857 6.411-2.482 6.411-2.482zm0 1.333c-1.333 2 0 8 0 8s1.333-6 0-8z"/></svg>