<svg height="18" viewBox="0 0 18 18" width="18" xmlns="http://www.w3.org/2000/svg" xmlns:xlink="http://www.w3.org/1999/xlink"><linearGradient id="a" gradientUnits="userSpaceOnUse" x1="8.83" x2="8.83" y1="12.87" y2=".87"><stop offset="0" stop-color="#0078d4"/><stop offset=".82" stop-color="#5ea0ef"/></linearGradient><linearGradient id="b" gradientUnits="userSpaceOnUse" x1="8.83" x2="8.83" y1="17.5" y2="12.87"><stop offset="0" stop-color="#1490df"/><stop offset=".98" stop-color="#1f56a3"/></linearGradient><rect fill="url(#a)" height="12" rx=".6" width="18" x="-.17" y=".87"/><rect fill="#fff" height="10" rx=".33" width="16" x=".83" y="1.87"/><path d="m11.83 5.12v3.49l-3 1.76v-3.5z" fill="#0078d4"/><path d="m11.83 5.12-3 1.76-3-1.76 3-1.75z" fill="#83b9f9"/><path d="m8.83 6.88v3.49l-3-1.76v-3.49z" fill="#5ea0ef"/><path d="m5.83 8.61 3-1.74v3.5z" fill="#83b9f9" opacity=".2"/><path d="m11.83 8.61-3-1.74v3.5z" fill="#5ea0ef" opacity=".2"/><path d="m12.44 16.5c-1.78-.28-1.85-1.56-1.85-3.63h-3.53c0 2.07-.06 3.35-1.84 3.63a1 1 0 0 0 -.89 1h9a1 1 0 0 0 -.89-1" fill="url(#b)"/><path d="m5.1 2.57h-2.48a.59.59 0 0 0 -.6.59v2.48a.3.3 0 0 0 .3.3h.2a.3.3 0 0 0 .3-.3v-2.29h2.28a.3.3 0 0 0 .3-.3v-.19a.3.3 0 0 0 -.3-.29m0 7.8h-2.29v-2.28a.3.3 0 0 0 -.3-.3h-.19a.3.3 0 0 0 -.3.3v2.48a.59.59 0 0 0 .6.59h2.48a.3.3 0 0 0 .3-.29v-.2a.3.3 0 0 0 -.3-.3m9.9-7.78h-2.44a.29.29 0 0 0 -.3.3v.19a.29.29 0 0 0 .3.29h2.28v2.3a.29.29 0 0 0 .3.29h.2a.29.29 0 0 0 .29-.29v-2.48a.59.59 0 0 0 -.63-.6m.34 5.22h-.19a.3.3 0 0 0 -.3.3v2.28h-2.29a.29.29 0 0 0 -.3.3v.2a.3.3 0 0 0 .3.3h2.44a.59.59 0 0 0 .59-.6v-2.48a.3.3 0 0 0 -.25-.3" fill="#5ea0ef"/></svg>