<svg xmlns="http://www.w3.org/2000/svg" viewBox="0 0 454 500"><path fill="currentColor" d="M384.29.77c27.23-4.81 53.57 13.27 58.83 40.4l2.15 11.13c5.25 27.12-12.58 53.02-39.81 57.83L35.59 175.42c-12.71 2.24-25-6.21-27.45-18.86L.92 119.24C-4.33 92.11 13.5 66.23 40.73 61.43z"/><path fill="currentColor" fill-opacity=".9" d="M384.29.77c27.23-4.81 53.57 13.27 58.83 40.4l2.15 11.13c5.25 27.12-12.58 53.02-39.81 57.83L35.59 175.42c-12.71 2.24-25-6.21-27.45-18.86L.92 119.24C-4.33 92.11 13.5 66.23 40.73 61.43z"/><path fill="currentColor" fill-opacity=".6" d="M384.29.77c27.23-4.81 53.57 13.27 58.83 40.4l2.15 11.13c5.25 27.12-12.58 53.02-39.81 57.83L35.59 175.42c-12.71 2.24-25-6.21-27.45-18.86L.92 119.24C-4.33 92.11 13.5 66.23 40.73 61.43z"/><path fill="currentColor" fill-opacity=".4" d="M384.29.77c27.23-4.81 53.57 13.27 58.83 40.4l2.15 11.13c5.25 27.12-12.58 53.02-39.81 57.83L35.59 175.42c-12.71 2.24-25-6.21-27.45-18.86L.92 119.24C-4.33 92.11 13.5 66.23 40.73 61.43z"/><path fill="currentColor" d="M0 439.97C0 473.12 26.9 500 60.09 500H393.9c33.19 0 60.09-26.88 60.09-60.03V417.5c0-33.15-26.9-60.03-60.09-60.03H60.1C26.91 357.47 0 330.6 0 297.44v-13.63z"/><path fill="currentColor" fill-opacity=".4" d="M0 439.97C0 473.12 26.9 500 60.09 500H393.9c33.19 0 60.09-26.88 60.09-60.03V417.5c0-33.15-26.9-60.03-60.09-60.03H60.1C26.91 357.47 0 330.6 0 297.44v-13.63z"/><path fill="currentColor" fill-opacity=".15" d="M0 439.97C0 473.12 26.9 500 60.09 500H393.9c33.19 0 60.09-26.88 60.09-60.03V417.5c0-33.15-26.9-60.03-60.09-60.03H60.1C26.91 357.47 0 330.6 0 297.44v-13.63z"/><path fill="currentColor" fill-opacity=".3" d="M0 439.97C0 473.12 26.9 500 60.09 500H393.9c33.19 0 60.09-26.88 60.09-60.03V417.5c0-33.15-26.9-60.03-60.09-60.03H60.1C26.91 357.47 0 330.6 0 297.44v-13.63z"/><path fill="currentColor" fill-opacity=".2" d="M0 439.97C0 473.12 26.9 500 60.09 500H393.9c33.19 0 60.09-26.88 60.09-60.03V417.5c0-33.15-26.9-60.03-60.09-60.03H60.1C26.91 357.47 0 330.6 0 297.44v-13.63z"/><path fill="currentColor" d="M0 223.11c0 33.15 26.9 60.03 60.09 60.03H393.9c33.19 0 60.09 26.88 60.09 60.03v15.8-139.11c0-33.15-26.9-60.03-60.09-60.03H53.42C23.92 159.83 0 135.94 0 106.47z"/><path fill="currentColor" d="M0 223.11c0 33.15 26.9 60.03 60.09 60.03H393.9c33.19 0 60.09 26.88 60.09 60.03v15.8-139.11c0-33.15-26.9-60.03-60.09-60.03H53.42C23.92 159.83 0 135.94 0 106.47z"/><path fill="currentColor" fill-opacity=".8" d="M0 223.11c0 33.15 26.9 60.03 60.09 60.03H393.9c33.19 0 60.09 26.88 60.09 60.03v15.8-139.11c0-33.15-26.9-60.03-60.09-60.03H53.42C23.92 159.83 0 135.94 0 106.47z"/><path fill="currentColor" d="M0 223.11c0 33.15 26.9 60.03 60.09 60.03H393.9c33.19 0 60.09 26.88 60.09 60.03v15.8-139.11c0-33.15-26.9-60.03-60.09-60.03H53.42C23.92 159.83 0 135.94 0 106.47z"/><path fill="currentColor" d="M0 326.5c0 33.15 26.9 60.03 60.09 60.03h337.83c30.97 0 56.07 25.08 56.07 56.02v-109.3c0-33.15-26.9-60.02-60.09-60.02H60.1C26.91 273.23 0 246.35 0 213.2v-13.51z"/><path fill="currentColor" d="M0 326.5c0 33.15 26.9 60.03 60.09 60.03h337.83c30.97 0 56.07 25.08 56.07 56.02v-109.3c0-33.15-26.9-60.02-60.09-60.02H60.1C26.91 273.23 0 246.35 0 213.2v-13.51z"/><path fill="currentColor" fill-opacity=".4" d="M0 326.5c0 33.15 26.9 60.03 60.09 60.03h337.83c30.97 0 56.07 25.08 56.07 56.02v-109.3c0-33.15-26.9-60.02-60.09-60.02H60.1C26.91 273.23 0 246.35 0 213.2v-13.51z"/><path fill="currentColor" fill-opacity=".4" d="M0 326.5c0 33.15 26.9 60.03 60.09 60.03h337.83c30.97 0 56.07 25.08 56.07 56.02v-109.3c0-33.15-26.9-60.02-60.09-60.02H60.1C26.91 273.23 0 246.35 0 213.2v-13.51z"/><path fill="currentColor" fill-opacity=".6" d="M0 326.5c0 33.15 26.9 60.03 60.09 60.03h337.83c30.97 0 56.07 25.08 56.07 56.02v-109.3c0-33.15-26.9-60.02-60.09-60.02H60.1C26.91 273.23 0 246.35 0 213.2v-13.51z"/></svg>