<svg xmlns="http://www.w3.org/2000/svg" width="64" height="64" viewBox="0 0 64 64"><title>Icon-Architecture/48/Arch_Amazon-Kinesis-Video-Streams_48</title><g id="Icon-Architecture/48/Arch_Amazon-Kinesis-Video-Streams_48" fill="none" fill-rule="evenodd" stroke="none" stroke-width="1"><g id="Icon-Architecture-BG/48/Analytics" fill="#8c4fff"><path id="Rectangle" d="M0 0h64v64H0z"/></g><g id="Icon-Service/48/Amazon-Kinesis-Video-Streams" fill="#fff" transform="translate(10 10)"><path id="Amazon-Kinesis-Video-Streams_48_Squid" d="M17 26.986v2.058C7.82 31.191 7 34.637 7 38H5c0-4.339 1.48-8.663 12-11.014m0 5.407v2.198c-4.989 2.488-5.001 5.796-5 9.285V44h-2v-.123c-.001-3.77.02-8.429 7-11.484m24 8.606c0 .552-.449 1.001-1.001 1.001H22.001A1 1 0 0 1 21 40.999V29c0-.552.449-1 1.001-1h17.998c.552 0 1.001.448 1.001 1zM39.999 26H22.001A3.005 3.005 0 0 0 19 29v11.999A3.005 3.005 0 0 0 22.001 44h17.998A3.005 3.005 0 0 0 43 40.999V29c0-1.654-1.347-3-3.001-3M43 21v2c-27.589 0-41 2.616-41 8H0c0-3.615 2.747-7.285 19.012-9C2.747 20.285 0 16.614 0 13h2c0 5.383 13.411 8 41 8m0-4v2C11.218 19 5 14.233 5 6h2c0 5.566 2.779 11 36 11m0-4v2c-14.448 0-23.79-1.557-28.56-4.76C9.998 7.257 9.999 3.301 10 .123V0h2v.124c-.001 3.12-.001 6.067 3.556 8.456C19.984 11.554 28.961 13 43 13M30 36.381v-2.763l2.764 1.381zm5.447-2.276-6-3A1 1 0 0 0 28 32v5.999a1 1 0 0 0 1.447.895l6-3a1.001 1.001 0 0 0 0-1.789"/></g></g></svg>