<svg xmlns="http://www.w3.org/2000/svg" xmlns:xlink="http://www.w3.org/1999/xlink" width="18" height="18" viewBox="0 0 18 18">
  <defs>
    <mask id="ko">
      <rect width="18" height="18" fill="white"/>
      <path fill="black" d="M4.38 9.82 1.22 13a.55.55 0 0 0 0 .77l3.16 3.13a.55.55 0 0 0 .77 0l3.16-3.16a.55.55 0 0 0 0-.77L5.15 9.82a.55.55 0 0 0-.77 0"/>
      <path fill="black" d="M7.49 5.84V1.6A.54.54 0 0 0 7 1.06H2.71a.54.54 0 0 0-.54.54v4.24a.54.54 0 0 0 .54.54H7a.54.54 0 0 0 .49-.54"/>
      <path fill="black" d="M11.74 11.18v4.23a.54.54 0 0 0 .54.54h4.24a.54.54 0 0 0 .54-.54v-4.23a.54.54 0 0 0-.54-.54h-4.24a.54.54 0 0 0-.54.54"/>
    </mask>
  </defs>
  <g>
    <path fill="currentColor" mask="url(#ko)" d="M5.36 12.77V6.38H4.31v7.44h8.34v-1.05z"/>
  </g>
</svg>