<svg height="18" viewBox="0 0 18 18" width="18" xmlns="http://www.w3.org/2000/svg" xmlns:xlink="http://www.w3.org/1999/xlink"><linearGradient id="a" gradientUnits="userSpaceOnUse" x1="4.76" x2="4.76" y1="9.66" y2="17.06"><stop offset="0" stop-color="#008bf1"/><stop offset="1" stop-color="#004dae"/></linearGradient><linearGradient id="b"><stop offset="0" stop-color="#76bc2d"/><stop offset="1" stop-color="#5e9624"/></linearGradient><linearGradient id="c" gradientUnits="userSpaceOnUse" x1="4.83" x2="4.83" xlink:href="#b" y1="1.06" y2="6.38"/><linearGradient id="d" gradientUnits="userSpaceOnUse" x1="14.4" x2="14.4" xlink:href="#b" y1="10.64" y2="15.95"/><path d="m5.36 12.77v-6.39h-1.05v7.44h8.34v-1.05z" fill="#949494"/><path d="m4.38 9.82-3.16 3.18a.55.55 0 0 0 0 .77l3.16 3.13a.55.55 0 0 0 .77 0l3.16-3.16a.55.55 0 0 0 0-.77l-3.16-3.15a.55.55 0 0 0 -.77 0" fill="url(#a)"/><path d="m7.49 5.84v-4.24a.54.54 0 0 0 -.49-.54h-4.29a.54.54 0 0 0 -.54.54v4.24a.54.54 0 0 0 .54.54h4.29a.54.54 0 0 0 .49-.54" fill="url(#c)"/><path d="m11.74 11.18v4.23a.54.54 0 0 0 .54.54h4.24a.54.54 0 0 0 .54-.54v-4.23a.54.54 0 0 0 -.54-.54h-4.24a.54.54 0 0 0 -.54.54" fill="url(#d)"/></svg>