<svg viewBox="0 0 24 24" xmlns="http://www.w3.org/2000/svg" fill="#FAFAFA"><path d="m21.474 0h-18.948c-1.395 0-2.526 1.18-2.526 2.637v18.726c0 1.456 1.131 2.637 2.526 2.637h18.948c1.395 0 2.526-1.18 2.526-2.637v-18.726c0-1.456-1.131-2.637-2.526-2.637zm-11.01 5.388c.397-.405.888-.607 1.474-.607.57 0 1.052.202 1.448.607.397.404.595.896.595 1.476s-.198 1.072-.595 1.476c-.396.405-.879.607-1.448.607-.586 0-1.077-.202-1.474-.607-.396-.404-.594-.896-.594-1.476s.198-1.072.594-1.476zm3.13 11.49a4.887 4.887 0 0 1 -2.018 2.136c-.483.281-.879.273-1.19-.026-.292-.281-.206-.615.26-1.002.258-.193.473-.44.646-.738.172-.299.284-.607.336-.923.017-.14-.043-.21-.181-.21-.345-.018-.698-.212-1.06-.581-.362-.37-.543-.826-.543-1.37 0-.58.198-1.073.594-1.477a2.024 2.024 0 0 1 1.5-.633c.552 0 1.034.21 1.448.633.414.404.655.86.724 1.37.138.95-.034 1.89-.517 2.822z"/></svg>