<svg height="48" viewBox="0 0 48 48" width="48" xmlns="http://www.w3.org/2000/svg"><path d="m2.126 26.474h20.31l-3.516 3.536 1.418 1.41 5.212-5.241a1 1 0 0 0 0-1.41l-5.212-5.242-1.418 1.41 3.517 3.537h-20.31zm43.483-1.705-5.212-5.242-1.417 1.41 3.516 3.537h-15.034v2h15.033l-3.515 3.536 1.417 1.41 5.212-5.241a1 1 0 0 0 0-1.41m-25.136-12.274h6.99v-2h-6.99zm16.725 18.22v-2.62h-2v1.62h-11.23v2h12.23a1 1 0 0 0 1-1m-25.588-2.62v2.62a1 1 0 0 0 1 1h5.242v-2h-4.242v-1.62zm0-8.737v3.495h2v-2.495h4.242v-2h-5.242a1 1 0 0 0 -1 1m25.588 3.495v-3.495a1 1 0 0 0 -1-1h-12.23v2h11.23v2.495zm3.91-15.853h-34.282c-2.66 0-4.826 2.229-4.826 4.967v10.886h2v-10.886c0-1.637 1.268-2.967 2.826-2.967h34.282c1.56 0 2.828 1.33 2.828 2.967v9.82h2v-9.82c0-2.738-2.165-4.967-4.828-4.967m2.828 29.36c0 1.635-1.269 2.966-2.828 2.966h-34.282c-1.558 0-2.826-1.331-2.826-2.966v-8.265h-2v8.265c0 2.738 2.165 4.966 4.826 4.966h34.282c2.663 0 4.828-2.228 4.828-4.966v-7.2h-2zm-38.442-8.265v6.83c0 1.603 1.3 2.906 2.897 2.906h31.154a2.903 2.903 0 0 0 2.895-2.905v-2.463h-2v2.463c0 .49-.41.905-.895.905h-31.154a.913.913 0 0 1 -.897-.905v-6.831zm13.396-14.105h10.155l.966-2.82a1 1 0 0 1 .946-.675h8.588a2.903 2.903 0 0 1 2.895 2.905v5.085h-2v-5.085c0-.49-.41-.905-.895-.905h-7.873l-.966 2.819a1 1 0 0 1 -.946.676h-11.585a1 1 0 0 1 -.946-.676l-.965-2.82h-7.873a.913.913 0 0 0 -.897.906v9.453h-2v-9.453c0-1.602 1.3-2.905 2.897-2.905h8.588c.427 0 .807.272.946.676z" fill="#7aa116" fill-rule="evenodd"/></svg>