<svg viewBox="0 0 24 24" xmlns="http://www.w3.org/2000/svg" fill="#139C5A"><path d="m12.0043 0c-6.6132 0-12.0043 5.3805-12.0043 12 0 6.6108 5.3825 12 12.0043 12 6.622 0 11.9957-5.3892 11.9957-12 0-6.6195-5.3824-12-11.9957-12zm9.8288 12a9.7343 9.7343 0 0 1 -.8234 3.925v-7.85c.5288 1.1958.8235 2.53.8235 3.925zm-4.0996 7.9798v-1.8715h-2.0889v3.0152a9.7946 9.7946 0 0 1 -3.6403.7018c-.3033 0-.6067-.0173-.91-.0433v-12.5892h-2.0889v12.1646c-3.961-1.2736-6.8385-4.9906-6.8385-9.366 0-5.4239 4.4117-9.834 9.8374-9.834 2.6956 0 5.1485 1.0917 6.9253 2.8592v13.8888h.0607c-.39.3986-.8148.7538-1.2568 1.0744zm-2.0889-10.7784h2.0889v4.3322h-2.0889zm-3.2849 5.3372h2.0888v4.3322h-2.0888zm0-8.9068h2.0888v4.3321h-2.0888zm3.285 9.1668h2.0888v2.0447h-2.0889zm-3.285-3.5697h2.0888v2.0448h-2.0888z"/></svg>