<svg xmlns="http://www.w3.org/2000/svg" xml:space="preserve" viewBox="0 0 898 217" fill-rule="evenodd" clip-rule="evenodd" stroke-linejoin="round" stroke-miterlimit="2"><path id="Artboard1" d="M0 0h897.426v217H0z" fill="none"/><clipPath id="_clip1"><path d="M0 0h897.426v217H0z"/></clipPath><g clip-path="url(#_clip1)"><path id="Layer_1-2" d="M882.212 217H12.232c-13.74 0-17.02-19.17-4.07-23.74l236.2-83.34c2.61-.92 4.81-2.71 6.23-5.08l55.19-91.76A26.98 26.98 0 0 1 328.912 0h322.54c11.53 0 21.4 8.28 23.41 19.63l16.27 83.39a12.1 12.1 0 0 0 7.39 8.93l189.35 75.76c15.52 6.23 11.06 29.29-5.66 29.29" fill="#e91b23" fill-rule="nonzero"/></g></svg>