<svg viewBox="0 0 24 24" xmlns="http://www.w3.org/2000/svg"><path d="m0 9.525v4.097h1.537s.015-1.36.015-2.077q.006 0 .01-.002c.106.273.209.608.316.884h2.05v1.195h1.537v-1.366h.854v1.366h2.863l.736-2.255.711 2.255h10.549v-2.09l1.258 2.942 1.564.001-.854-2.22.001.002h.765v-2.732h-11.956c0 .486.018.932.017 1.418 0 .032.011.05.037.068 1.031.739 1.816 1.245 1.816 1.245h-1.87s.02.38.02.625l-.008.083-1.29-3.44h-1.545s-.91 2.382-1.285 3.51c-.005 0-.009-.163-.012-.164v-2.902c0-.29.02-.443.02-.443h-1.537v1.366h-.854v-1.366zm4.1.171h1.195v1.366h1.196v-1.366h1.195v3.756h-1.195v-1.366h-1.196v1.366h-1.195zm5.124 0h1.366l1.367 3.756h-1.197l-.854-2.56-.854 2.56h-1.195zm10.589 0h3.928v2.39h-.854l.854 2.22h-1.195l-1.367-3.244h1.367v-.17h-1.537v2.56h-1.196zm-19.641 0h3.757v2.561h-1.879l-.512-1.195h1.366v-.17h-1.537v2.56h-1.195zm11.955 0h3.928v1.025h-2.049l2.05 1.707v1.024h-3.929v-1.024h2.22l-2.22-1.537zm4.099 0h3.416v1.196h-2.391v.17h2.391v1.195h-2.391v.171h2.391v1.024h-3.416zm-1.83 1.195h1.66v1.317z"/></svg>