<svg viewBox="0 0 24 24" xmlns="http://www.w3.org/2000/svg"><path d="m2.677 12.923 3.768.011 1.949 3.369-1.926 3.323h-3.802l-1.939-3.334zm-.004-8.6 3.761.011 1.944 3.367-1.922 3.326h-3.794l-1.935-3.337zm14.882 0 3.768.011 1.95 3.367-1.928 3.326h-3.801l-1.938-3.337zm0 8.6 3.768.011 1.95 3.369-1.928 3.323h-3.802l-1.937-3.334zm-7.456 4.373 3.767.011 1.951 3.368-1.928 3.325h-3.801l-1.939-3.336zm0-17.296 3.767.011 1.951 3.369-1.928 3.324h-3.801l-1.939-3.336zm0 8.628 3.767.011 1.951 3.368-1.928 3.325h-3.801l-1.939-3.336z"/></svg>