<svg viewBox="0 0 24 24" xmlns="http://www.w3.org/2000/svg"><path d="m9.62 1.5q1.63 0 3.017.834a6.1 6.1 0 0 1 2.175 2.197 3.5 3.5 0 0 1 1.988-.606q1.5 0 2.55 1.06 1.05 1.062 1.05 2.577a4 4 0 0 1 -.225 1.327q1.65.34 2.738 1.667 1.087 1.326 1.087 3.069 0 1.326-.637 2.444a4.7 4.7 0 0 1 -1.666 1.715c-1.966 1.409-6.07 3.414-11.223 4.683-1.866.459 3.785-3.98.853-3.98q-.15 0-.24-.011l-5.687-.001a5.17 5.17 0 0 1 -2.7-.74 5.53 5.53 0 0 1 -1.969-1.99 5.3 5.3 0 0 1 -.731-2.725q0-1.78 1.013-3.183t2.587-1.971v-.303a6 6 0 0 1 .806-3.032 6 6 0 0 1 2.194-2.216 5.86 5.86 0 0 1 3.02-.815"/></svg>