<svg xmlns="http://www.w3.org/2000/svg" viewBox="0 0 24 24"><path fill="currentColor" d="M0 0v.02A.02.02 0 0 1 .02 0Zm23.98 0a.02.02 0 0 1 .02.02V0ZM8.33.633c-.052 0-.589 1.479-.654 1.804-.059.284-.04.858.035 1.09.066.211.2.462.448.844.154.241.297.488.316.544 0 .005.157-.056.35-.134l.348-.14h2.942l-.122-.113a3 3 0 0 0-.232-.192c-.063-.042-.108-.082-.103-.087.02-.023.398.124.619.242.222.114.255.126.396.126h.152l-.087-.112a4 4 0 0 0-.197-.223c-.307-.323-.843-.579-1.47-.696l-.14-.028.324-.167c.178-.091.316-.173.307-.182-.047-.04-.54-.097-.727-.082-.201.014-.527.103-.658.18-.078.045-.078.045-.064-.005.01-.025.057-.117.103-.204a2.5 2.5 0 0 0 .23-.546l.014-.075-.124.068q-.347.189-.975 1.017a5 5 0 0 0-.232.324c-.026.042-.052.075-.059.075-.018 0-.002-.359.035-.706.04-.368.045-.827.012-1.064a4.5 4.5 0 0 0-.21-.801c-.116-.3-.336-.626-.479-.713A.4.4 0 0 0 8.33.633m4.732.343c-.013 0-.032.016-.07.05-.04.036-.179.207-.308.383-.32.438-.665.843-1.087 1.275l-.183.19.216.028c.227.03.675.135.705.166.03.03-.476.398-.553.4-.014.003.061.038.171.083s.211.082.223.082c.068-.003.45-.546.616-.88.242-.487.317-.798.319-1.358.002-.207-.007-.368-.021-.392q-.014-.026-.028-.027m-4.618.36c.031 0 .174.328.237.546.174.595.176 1.453.01 2.285-.03.145-.064.265-.078.27-.04.01-.293-.345-.41-.582C8 3.45 7.936 3.117 7.99 2.716c.028-.213.166-.675.335-1.115.056-.144.11-.263.12-.265M8.05 4.922a.8.8 0 0 0-.073.227.4.4 0 0 0 .124-.047c.113-.051.118-.056.082-.1q-.035-.046-.02-.007.012.037-.045.065c-.085.038-.087.035-.073-.056.007-.045.01-.082.005-.082m3.743.023-2.548.003-.316.129c-1.303.53-1.456.604-1.526.743-.059.112-.099.12.405-.073.478-.185 1.294-.45 1.378-.45.08 0 .083.005.13.335.09.661.255.935.63 1.055.152.047.213.051.705.051.497 0 .553-.004.71-.054.305-.096.43-.267.568-.778q.072-.268.12-.31c.067-.055.184-.074.334-.048.136.023.155.014.155-.087 0-.059-.105-.08-.394-.082-.199 0-.222.005-.26.051-.023.029-.082.207-.129.399-.098.389-.161.52-.297.605-.17.107-.352.133-.922.124-.51-.007-.52-.007-.651-.073-.14-.068-.188-.124-.244-.281a13 13 0 0 1-.197-1.06c0-.051 4.678-.053 4.746-.002.033.024.045.063.047.157 0 .07.012.134.024.143q.02.018-.005.019-.03 0-.03.103c0 .056-.026.206-.06.333l-.058.232.059.051c.035.03.07.054.082.054.026 0 .059-.12.117-.41.05-.248.052-.74.005-.827l-.03-.052zm-.961.352-.272.515c-.15.284-.272.52-.272.528s.059.012.131.007l.13-.007.269-.523.27-.52h-.127zm.595 0c-.1 0-.11.012-.382.539-.262.51-.265.516-.178.513.035 0 .084-.01.108-.016.023-.01.145-.23.286-.518.136-.274.246-.504.246-.509 0-.004-.035-.01-.08-.01m2.318 0-.115.281a2 2 0 0 0-.105.29.3.3 0 0 0 .082.024l.07.017.117-.289c.064-.157.12-.295.122-.304.005-.012-.033-.02-.082-.02zm-1.42.492c-.061 0-.11.061-.138.171-.092.356-.197.565-.373.75-.136.145-.396.295-.518.3l-.059.003.059.016c.05.014.03.028-.148.103a2.2 2.2 0 0 1-.872.197c-.377.016-.53-.012-.775-.134-.312-.157-.544-.403-.715-.757-.045-.091-.064-.11-.103-.098-.162.047-.929.204-.94.194-.007-.007.019-.077.058-.154l.07-.139.207-.063c.42-.131.91-.293.879-.293-.014-.002-.19.05-.387.113-.194.063-.431.136-.523.164a.6.6 0 0 0-.201.089c-.035.04-.279.53-.483.97l-.094.204.17-.112c.231-.158.46-.305.47-.305a18 18 0 0 0-.164.773c-.1.516-.267 1.212-.363 1.526-.04.124-.07.232-.07.241s.133-.084.295-.206c.279-.213.333-.248.304-.206a52 52 0 0 0-.304 1.704c-.04.246-.108.886-.108.977.002.054.002.054.03.005.017-.026.099-.136.183-.246.087-.108.242-.317.347-.462.103-.148.19-.26.19-.25 0 .009-.021.133-.047.276-.046.267-.052.48-.076.717.018-.167.036-.324.078-.584.05-.304.068-.368.068-.232 0 .237.216 1.28.34 1.65.127.368.406.975.563 1.22l.058.093-.011-.082c-.028-.195-.082-.9-.08-1.069 0-.18.002-.183.033-.103.016.045.094.223.173.396.223.49.453.856.738 1.167.172.19.624.593.68.607.028.007.094.087.153.18.058.095.14.214.185.268.044.056.07.1.056.1-.05 0-.422-.168-.602-.273a3.4 3.4 0 0 1-.732-.563c-.234-.232-.26-.234-.035-.002.342.356.837.672 1.348.86l.138.049-.105-.122a2.8 2.8 0 0 1-.53-.987c-.059-.185-.127-.532-.103-.532a3.8 3.8 0 0 0 .616.534l.106.073.011-.145.012-.145h3.734l.04-.11a.4.4 0 0 1 .068-.134c.018-.016.28-.028.696-.033.365-.004.26-.007-.237-.002-.84.005-2.009-.014-3.131-.052l-.471-.014.049-.103.047-.103h.637l.047-.087c.035-.065.066-.091.127-.105.044-.01.705-.028 1.464-.038 1.299-.018 1.332-.02.535-.023-.83-.005-.851-.007-.851-.052 0-.023-.019-.054-.04-.068-.023-.011-.438-.032-.92-.046-1.217-.038-1.618-.054-1.618-.07 0-.008.021-.045.044-.083l.047-.068.816.003c.448.002 1.19.011 1.648.018.482.01 1.23.003 1.78-.014.524-.014 1.43-.037 2.016-.047a87 87 0 0 0 1.325-.032c.143-.005.349-.01.46-.012l.203-.003.047-.093c.023-.052.04-.099.033-.106a5 5 0 0 0-.478-.011c-.324 0-.465-.007-.465-.026 0-.014.015-.021.033-.014a.2.2 0 0 0 .101-.007q.067-.02-.274-.021a6 6 0 0 1-.464-.02c-.108-.01-.124-.02-.113-.055.007-.026.021-.064.028-.087.012-.042-.032-.045-.991-.063-2.33-.043-2.583-.047-2.566-.033.049.04.429.19.672.267.155.05.303.098.328.108.029.011-.21.016-.562.011-.56-.007-.628-.014-.837-.067a3 3 0 0 1-.79-.35c-.14-.091-.145-.098-.093-.12a1.2 1.2 0 0 1 .29-.009 1 1 0 0 0 .2-.002 6 6 0 0 1-.605-.314 3.4 3.4 0 0 1-.502-.469l-.096-.115.092.014c.049.007.138.024.196.036s.164.028.235.037l.129.016-.118-.093c-.382-.305-.698-.825-.989-1.636-.093-.26-.098-.272-.086-.153a4.7 4.7 0 0 0 .36 1.353c0 .005-.081-.033-.18-.085a1 1 0 0 0-.19-.084c-.037.035.535 1.036.607 1.062.012.004.021.019.021.033s-.159.018-.443.014c-.243-.005-.438 0-.433.01.023.037.572.39.651.419.047.016.085.037.085.044 0 .024-.354 0-.598-.037a4 4 0 0 1-.422-.096c-.354-.11-1.479-.732-1.324-.734.063 0 .635.06.785.084.094.014.094.014-.047-.06-.407-.22-.872-.596-1.415-1.147-.474-.48-.701-.79-.98-1.326l-.145-.282-.003.13c-.002.358-.166-.308-.182-.744-.015-.375.004-.45.065-.26.12.385.565.926.987 1.198l.058.04-.089-.265a5 5 0 0 1-.089-.274.5.5 0 0 1 .09.075c.138.131.332.274.452.337.145.073.464.164.642.185l.14.015-.105-.099c-.059-.054-.166-.157-.239-.225a3 3 0 0 1-.136-.131c0-.003.129-.007.288-.01.157-.002.354-.014.439-.028.22-.037.752-.03.984.01.108.018.326.07.48.115.79.222 1.175.232 1.575.037.207-.103.345-.234.37-.356.027-.115-.013-.13-.191-.068a1.9 1.9 0 0 1-.83.077c-.382-.042-.633-.138-.977-.368-.087-.058-.17-.105-.183-.105s-.04.026-.057.058c-.046.087-.082.059-.089-.07a.48.48 0 0 1 .15-.387c.11-.096.164-.091.195.014.04.146.131.237.337.335.3.146.523.2.825.202.223 0 .272-.007.357-.052.318-.17.34-.588.04-.803a1.5 1.5 0 0 0-.537-.232c-.13-.02-.19-.015-.401.032-.06.014-.08.007-.112-.037-.054-.08-.047-.12.04-.202.135-.13.217-.16.45-.16.194 0 .224.008.372.083.091.044.223.136.298.204.147.138.15.138.227-.04.105-.248.077-.4-.108-.567-.187-.169-.647-.352-1.291-.513-.2-.05-.382-.092-.403-.092m-3.3.07c-.052 0 .08.45.192.664.169.318.581.562.942.553l.074-.005c-.002-.003-.041-.007-.125-.016a1.1 1.1 0 0 1-.54-.185.94.94 0 0 1-.365-.418c-.07-.152-.157-.445-.157-.541 0-.028-.01-.052-.021-.052m5.465.884-.028.112c-.03.118-.12.31-.194.418-.042.058-.045.08-.021.213.014.08.025.239.025.352 0 .199 0 .203.066.227.035.014.1.019.145.012.336-.054.427-.554.188-1.034a2 2 0 0 0-.136-.244Zm-3.382.295c-.044 0-.166.01-.27.017l-.187.014.164.002c.092.002.211-.005.27-.014q.071-.014.074-.017a.3.3 0 0 0-.05-.002m-.632.047a.5.5 0 0 0-.108.005l.02.004a1 1 0 0 0 .196-.003.5.5 0 0 0-.108-.006m5.676 1.212-.026.07-.023.07.216.003.482.007.268.002.042-.077.044-.075h-.501zm.488.023c.452 0 .464 0 .452.047-.012.045-.033.047-.478.047a6 6 0 0 1-.467-.01c0-.004.007-.025.014-.046.012-.033.078-.038.479-.038m-.021.771-.036.08c-.077.188-.138.169.58.164l1.223-.007h.588l.037-.103.038-.103-.06-.012a33 33 0 0 0-1.217-.016zm-7.285.518c-.016 0 .11.497.136.525q.001.002.002.001a1 1 0 0 0-.037-.19l-.054-.211.314.323c.342.352.52.506.825.713l.197.13-.237-.006c-.129-.005-.23 0-.222.01.004.01.128.018.271.018h.263l-.176-.113c-.389-.25-1.031-.836-1.207-1.101a.4.4 0 0 0-.075-.099m-2.433.13q-.009.001-.018.032-.015.06.011.03a.06.06 0 0 0 .014-.053q-.003-.01-.007-.01m10.226.025c-.005 0-.832 0-1.84.005l-1.83.004-.026.075c-.014.04-.021.078-.016.082.004.005.018-.023.032-.06l.026-.073h3.612l-.03.075-.031.077-1.828.012-1.826.012 1.83.007 1.829.004.051-.107a.4.4 0 0 0 .047-.113m-10.337.081a.1.1 0 0 0-.041.022c-.019.012-.028.028-.021.035.01.007.028-.002.044-.023q.029-.034.018-.034m8.157.777c-.539-.002-.98.002-.98.012 0 .016.755.016 1.618 0 .187-.003-.1-.01-.638-.012m1.517 0c-.038 0-.052.005-.028.012a.2.2 0 0 0 .07 0q.02-.011-.042-.012m1.793 0c-.033 0-.045.005-.028.012a.1.1 0 0 0 .058 0q.02-.011-.03-.012m-2.215.002a.2.2 0 0 0-.069.005q0 .002.017.005a.5.5 0 0 0 .128-.004.3.3 0 0 0-.076-.006m.762 0a.3.3 0 0 0-.08.005q0 .003.016.005a.6.6 0 0 0 .144-.004.3.3 0 0 0-.08-.006m-2.091.23h-.01q-.04.002-.013.014c.016.007.037.005.044-.002q.01-.012-.021-.013m.872.005a.5.5 0 0 0-.108.005q.002.002.021.004a1 1 0 0 0 .195-.004.5.5 0 0 0-.108-.005m-1.313.002a3 3 0 0 0-.238.004l.046.003a5 5 0 0 0 .432-.002 3 3 0 0 0-.24-.005m.797 0c-.12 0-.192.001-.195.003q.002.002.038.004a4 4 0 0 0 .353-.003 2 2 0 0 0-.196-.004m3.78.279c-1.209 0-2.17.005-2.134.01l.063.009-.063.114-.064.118h-1.97l-.052.121a.6.6 0 0 0-.045.13c.005.002.804.009 1.774.011l1.768.007.042-.138a1 1 0 0 1 .051-.148 45 45 0 0 1 1.378-.007l1.372.003.04-.104a1 1 0 0 0 .037-.114c0-.007-.99-.012-2.196-.012m-1.682.208q.061 0 .042.012a.2.2 0 0 1-.07 0c-.024-.007-.01-.012.028-.012m.387.003q.075 0 .08.005 0 .003-.015.004a.6.6 0 0 1-.145-.004.3.3 0 0 1 .08-.005m.351.023q.064 0 .066.006l-.012.004a.4.4 0 0 1-.119-.004q.003-.005.065-.006m-.473.23c.02 0 .03.005.02.012-.006.007-.027.009-.044.002q-.025-.012.014-.014zm-.242.002q.062 0 .043.012a.2.2 0 0 1-.07 0c-.024-.007-.01-.012.027-.012m-.813.46-.67.004-.026.075-.026.075c0 .003.235.005.523.005l.52.005-.485-.017a4 4 0 0 1-.501-.032c-.01-.007-.01-.03-.003-.052.014-.03.232-.035 1.955-.04a59 59 0 0 0 1.589-.012c-.652-.011-2.199-.018-2.876-.011m-8.276.029c-.043.569-.042 1.088.054 1.532a1.5 1.5 0 0 0 .061.222c.01.007.01-.018-.002-.056-.092-.377-.11-.54-.122-1.066a7 7 0 0 1 .009-.632m8.6.163c-.008 0-.029.03-.05.07-.02.038-.03.07-.025.07.007 0 .028-.032.049-.07.02-.04.03-.07.026-.07m-8.285.886q-.003 0-.003.014c0 .035.122.417.129.408a1 1 0 0 0-.047-.204q-.064-.218-.079-.218m-.062.04q-.006 0-.007.046c0 .038.005.052.012.029a.2.2 0 0 0 0-.07zm-.022.135a.4.4 0 0 0-.024.122.6.6 0 0 0-.007.143c.007.005.018-.049.028-.121a.4.4 0 0 0 .003-.144m.233.298a.7.7 0 0 0 .047.136c.024.056.045.096.052.091a.5.5 0 0 0-.052-.135.4.4 0 0 0-.047-.092m-.28.006c-.007 0-.013.037-.013.086 0 .053-.011.12-.023.145-.016.028-.016.073-.005.12.02.065.024.049.038-.13a1 1 0 0 0 .002-.221m5.003.097c-.213 0-.337.003-.34.005l.066.002a11 11 0 0 0 .614-.002 6 6 0 0 0-.34-.005m-4.617.162c0 .05.255.509.422.762.201.304.431.565.656.743.136.105.145.108.11.047a2.7 2.7 0 0 1-.25-.82.4.4 0 0 0-.017-.098.2.2 0 0 0-.005.05c-.002.115.094.52.162.678.026.063.042.12.037.126-.02.021-.274-.213-.421-.391-.082-.099-.207-.27-.28-.38s-.194-.32-.271-.469-.143-.257-.143-.248m7.003.3h-.01q-.04.002-.014.014c.017.007.038.005.045-.002.008-.006-.002-.013-.021-.012m-.183.002q-.05 0-.028.012a.1.1 0 0 0 .059 0q.02-.011-.03-.012m.372.002h-.033q-.052.001-.055.005 0 .003.015.005c.028.005.07.005.094 0 .016-.005.006-.01-.02-.01m-.584 0q-.062 0-.065.006 0 .002.014.004a.4.4 0 0 0 .105 0q.012-.002.012-.004c0-.003-.025-.005-.066-.005m2.426.026c-.438 0-.621.005-.405.007.215.005.574.005.796 0 .223-.002.047-.007-.391-.007m.769.033-.026.066a1 1 0 0 1-.04.108c-.016.04.042.042 1.006.042h1.021l.04-.082c.021-.045.035-.087.028-.092a31 31 0 0 0-1.02-.025zm-5.822.216-.07.155a.6.6 0 0 0-.061.164.6.6 0 0 0 .075-.143l.063-.153 1.434-.007 1.432-.004-1.436-.007zm-1.94.052q-.003 0-.003.002c0 .02.391.258.682.415l.262.14 1.057-.004 1.058-.007-1.067-.012-1.066-.012-.169-.089a7 7 0 0 1-.408-.23 10 10 0 0 1-.295-.178.2.2 0 0 0-.052-.025m1.884.328c-.038 0-.052.004-.029.011a.2.2 0 0 0 .07 0c.015-.007-.002-.011-.041-.011m.691.023q-.05 0-.028.012a.1.1 0 0 0 .059 0q.02-.011-.031-.012m.832.005c-.387 0-.541.004-.344.007.196.004.513.004.703 0 .19-.003.028-.007-.359-.007m1.418.019q-.05 0-.028.011a.1.1 0 0 0 .059 0q.02-.01-.031-.011m-.27.002a.2.2 0 0 0-.068.005q0 .002.017.004a.5.5 0 0 0 .128-.003.3.3 0 0 0-.077-.006m1.02.002c-.38 0-.537.005-.345.007.19.005.5.005.692 0 .19-.002.033-.007-.347-.007m-1.43.162a.4.4 0 0 0-.093.005q0 .003.018.004a1 1 0 0 0 .17-.004.4.4 0 0 0-.095-.005m-.845.023h-.034q-.053 0-.054.005 0 .002.015.005c.028.004.07.004.093 0q.022-.01-.02-.01m.187 0h-.033q-.053 0-.055.005 0 .002.015.005a.4.4 0 0 0 .094 0c.016-.006.006-.01-.02-.01m.272 0a.5.5 0 0 0-.105.006l.016.004a1 1 0 0 0 .186-.004.4.4 0 0 0-.097-.006m1.75.345-.032.105-.036.106.748-.005.748-.007.044-.1.045-.1h-.757zm-2.238.005c-.893-.005-.956-.003-.968.035a1 1 0 0 1-.044.105l-.033.066.942-.005.942-.007-.919-.005-.918-.007.032-.077.031-.075.947-.012.944-.011zm-2.032.958c-4.685 0-8.54.01-8.566.021a.4.4 0 0 0-.117.094l-.07.073-.008 2.489c-.005 2.435-.005 2.491.04 2.564a.4.4 0 0 0 .113.117c.06.04.412.042 8.608.042 8.124 0 8.548-.002 8.609-.042a.4.4 0 0 0 .103-.103c.04-.059.042-.214.042-2.55 0-2.358-.002-2.49-.042-2.55a.4.4 0 0 0-.117-.11c-.075-.047-.19-.047-8.595-.045m-.007.279c5.73 0 8.39.007 8.424.023.044.024.044.075.044 2.386 0 1.807-.007 2.37-.028 2.391s-1.929.028-8.438.028c-8.287 0-8.407 0-8.432-.044-.017-.03-.024-.814-.024-2.372 0-2.13.003-2.33.04-2.37s.328-.042 8.414-.042m-4.574.63c-.268.003-.532.018-.61.045a.57.57 0 0 0-.357.305l-.065.133v2.672l.056.124c.03.068.099.16.15.204.166.143.244.155.9.148.558-.007.586-.01.687-.061.225-.117.319-.265.351-.541.012-.106.02-.71.017-1.346-.007-1.244-.007-1.225-.139-1.41a.58.58 0 0 0-.351-.237c-.097-.026-.37-.037-.639-.035m-3.013.003v3.633h1.664v-.633h-.96v-3H4.71Zm9.868 0v3.633h1.687v-.633h-1.008v-3h-.34zm2.704 0-.11.579-.335 1.776a80 80 0 0 1-.234 1.235c-.012.04.016.043.349.043h.358l.054-.312c.028-.169.059-.333.066-.363.012-.052.014-.052.389-.047l.377.007.061.351.061.352.363.007.364.005-.101-.509c-.056-.281-.213-1.076-.347-1.765-.136-.689-.25-1.277-.258-1.308l-.011-.051h-.523zm2.147 0v3.633h.703v-3.633h-.351zm-6.523.005c-.309-.003-.532.002-.532.016a481 481 0 0 0-.656 3.588c0 .014.13.024.35.024h.346l.04-.253c.024-.139.052-.3.066-.364l.023-.11h.37c.364 0 .37 0 .383.052.007.03.035.194.065.363l.052.312h.743l-.012-.054-.152-.778-.35-1.758-.203-1.031zm-2.512.004c-.295-.002-.567 0-.6.007a.7.7 0 0 0-.377.265c-.108.176-.115.279-.106 1.61.007 1.371.005 1.34.164 1.521.178.204.202.209.884.209h.597l.13-.073a.63.63 0 0 0 .302-.408c.014-.065.026-.255.026-.424v-.304l-.34.007-.343.007-.004.248c-.007.345-.012.35-.35.35-.384 0-.346.126-.346-1.203 0-1.322-.036-1.198.335-1.19.131.002.258.009.279.016.063.018.093.164.084.403l-.007.215h.692v-.346c0-.42-.03-.549-.167-.697a.8.8 0 0 0-.204-.154c-.105-.054-.136-.057-.649-.059m-2.754.617c.084-.005.211-.007.281 0 .225.014.211-.061.211 1.202 0 1.193.005 1.153-.129 1.186-.103.026-.518 0-.557-.035-.036-.028-.04-.139-.04-1.151 0-1.287-.02-1.186.234-1.202m10.187.142q.008 0 .008.066c0 .035.059.382.13.771l.128.72c0 .002-.129.007-.288.005-.16 0-.284-.012-.284-.024.003-.012.066-.36.14-.778.094-.517.146-.759.166-.76m-4.906.005c.009 0 .016.024.016.05 0 .028.059.374.129.773l.129.729c0 .02-.563.004-.563-.017 0-.014.059-.363.134-.778.075-.417.143-.757.155-.757M0 23.98V24h.02a.02.02 0 0 1-.02-.02m24 0a.02.02 0 0 1-.02.02H24Z"/></svg>