<svg height="18" viewBox="0 0 18 18" width="18" xmlns="http://www.w3.org/2000/svg" xmlns:xlink="http://www.w3.org/1999/xlink"><linearGradient id="a" gradientUnits="userSpaceOnUse" x1="8.9" x2="8.9" y1="1.31" y2="12.11"><stop offset="0" stop-color="#5ea0ef"/><stop offset=".18" stop-color="#559cec"/><stop offset=".47" stop-color="#3c91e5"/><stop offset=".84" stop-color="#1380da"/><stop offset="1" stop-color="#0078d4"/></linearGradient><linearGradient id="b" gradientUnits="userSpaceOnUse" x1="8.88" x2="8.88" y1="16.72" y2="13.85"><stop offset="0" stop-color="#0078d4"/><stop offset=".16" stop-color="#1380da"/><stop offset=".53" stop-color="#3c91e5"/><stop offset=".82" stop-color="#559cec"/><stop offset="1" stop-color="#5ea0ef"/></linearGradient><path d="m16.4 8.7a3.39 3.39 0 0 0 -2.92-3.29 4.27 4.27 0 0 0 -4.38-4.13 4.37 4.37 0 0 0 -4.16 2.88 4.08 4.08 0 0 0 -3.54 3.93 4.12 4.12 0 0 0 4.23 4h7.21l.16-.09a3.44 3.44 0 0 0 3.4-3.3" fill="url(#a)"/><path d="m13.21 12.7h-4v-5h-.6v5h-4a.3.3 0 0 0 -.3.3v1.17a.3.3 0 0 0 .3.3.29.29 0 0 0 .29-.3v-.88h3.71v.61h.59v-.61h3.72v1.09a.3.3 0 0 0 .29.3.31.31 0 0 0 .3-.3v-1.38a.3.3 0 0 0 -.3-.3" fill="#949494"/><path d="m14.23 16.72h-2.08a.36.36 0 0 1 -.37-.37v-2.13a.37.37 0 0 1 .37-.37h2.08a.38.38 0 0 1 .37.37v2.13a.37.37 0 0 1 -.37.37m-3.94-.37v-2.13a.38.38 0 0 0 -.37-.37h-2.08a.37.37 0 0 0 -.37.37v2.13a.36.36 0 0 0 .37.37h2.08a.37.37 0 0 0 .37-.37m-4.29 0v-2.13a.38.38 0 0 0 -.37-.37h-2.11a.38.38 0 0 0 -.37.37v2.13a.37.37 0 0 0 .37.37h2.09a.37.37 0 0 0 .39-.37" fill="url(#b)"/><path d="m12 6.6v-.69h-.1l-.74-.24-.19-.47.37-.8-.48-.48-.1.05-.76.31-.48-.19-.3-.84h-.65v.1l-.24.74-.47.19-.86-.38-.48.49.05.09.43.69-.2.47-.88.36v.68h.09l.74.24.19.47-.37.8.48.48h.1l.69-.35.47.19.3.83h.69v-.09l.24-.74.47-.19.8.37.48-.48-.05-.1-.35-.69.19-.47zm-3 1a1.33 1.33 0 1 1 1.32-1.33 1.32 1.32 0 0 1 -1.38 1.33z" fill="#fff"/></svg>