<svg viewBox="0 0 128 128" xmlns="http://www.w3.org/2000/svg"><path d="m41.135 3.8146c-2.6492 0-5.0168.5933-7.037 1.7624-1.9426 1.1244-3.5749 2.7996-4.8527 4.9798-1.1972 2.0429-2.0792 4.5292-2.6229 7.3892-1.0468 5.5127-.82002 12.414.65649 19.954.18621.94893.39151 1.9098.61173 2.8647-1.1781.35809-2.3222.72687-3.4096 1.1058-7.1176 2.4815-13.07 5.724-17.213 9.3783-2.1485 1.8925-3.81 3.8929-4.9469 5.9454-1.208 2.1825-1.8209 4.4212-1.8209 6.6539 0 4.4761 2.4797 9.0118 7.1706 13.126 4.4164 3.8751 10.662 7.2584 18.057 9.7877.68693.23335 1.3858.46013 2.0888.67677-.24589 1.0701-.47323 2.1485-.67794 3.2228-1.4061 7.4052-1.5702 14.182-.47745 19.596.56757 2.805 1.4687 5.2453 2.679 7.2553 1.2867 2.1366 2.9202 3.7862 4.8544 4.9017 2.0381 1.1751 4.4368 1.7707 7.129 1.7707 3.6656 0 7.7639-1.0868 12.181-3.2306 4.3304-2.1014 8.7511-5.111 13.138-8.9455.67619-.59084 1.3727-1.2229 2.0686-1.8818h1.0389v-.002h31.486c4.5923 0 8.5534-.67018 11.883-2.0106 3.3368-1.338 6.0516-3.1441 8.1888-5.412s3.6955-4.9732 4.6945-8.1166c.99906-3.1171 1.498-6.4932 1.498-10.1.002-6.2886-1.1386-11.493-3.3952-15.668-2.2384-4.116-5.5317-6.7862-9.8797-8.0109a.17009.17009 0 0 1 -.10678-.17018.17904.17904 0 0 1 .0817-.15993c3.2371-1.8 5.7252-4.3633 7.4691-7.6332 1.7566-3.298 2.6351-7.2665 2.6355-11.906 0-7.6541-1.9367-13.348-5.7927-17.135-3.856-3.7874-8.9891-5.6697-15.38-5.6697h-34.46c-.53662-.50387-1.0841-1.0042-1.6311-1.4914-4.5549-4.0416-9.0972-7.2124-13.504-9.417-4.5185-2.2631-8.6914-3.4102-12.402-3.4102zm.0376 8.9927c2.2959 0 5.2662.90117 8.5886 2.6063 3.6012 1.8501 7.5061 4.6021 11.293 7.9645.23475.20848.47488.42505.72037.64985-3.3308 3.6829-6.6132 7.7753-9.7686 12.181-5.3761.5252-10.544 1.3094-15.383 2.3341-.17487-.7663-.33906-1.5368-.48945-2.2977l-.0143-.0788c-1.1536-5.8941-1.4347-11.28-.81281-15.567.53713-3.6847 1.7391-6.3185 3.3045-7.225.64993-.37659 1.5124-.56697 2.5622-.56697zm27.308 17.013v68.336l-4.0517-5.0026-2.647-3.2675c-1.3363-1.6496-3.4764-4.7023-6.0278-8.5941-2.0292-3.0939-3.5069-5.5783-4.2075-6.7815l-.0763-.13195c-1.2229-2.1085-2.1312-3.807-2.8605-5.1707-.91312-1.7087-1.8137-3.4537-2.6803-5.1922l.15876-.30854.01-.0174c.9549-1.9468 1.9599-3.9013 2.9942-5.8099l.009-.0161 1.0974-2.1294 1.621-2.6856.0101-.0174c.60517-1.0301 1.233-2.0697 1.8662-3.0902l1.1155-1.8424c1.4849-2.4583 2.6785-4.2511 4.5614-6.849 1.0146-1.3983 1.9766-2.626 3.5009-4.531l.004-.004.0752-.0949.0293-.0375c.6189-.78898 1.2437-1.5666 1.8566-2.3115l.0203-.0251.0119-.0149c1.1922-1.4763 2.4033-2.9556 3.6101-4.4109zm12.651 1.3433h20.259c3.3988 0 5.9984.95494 7.7972 2.8379 1.7988 1.8829 2.6977 5.1564 2.6977 9.7984 0 4.1287-.99906 7.2763-2.999 9.4941-1.9999 2.2178-4.4982 3.3016-7.4978 3.3016h-20.259c-.0746 0-.13545-.0782-.13545-.17484l.001-25.082c0-.0967.0597-.17484.13545-.17484zm-35.663 14.932c-.73288 1.2002-1.4526 2.4117-2.1485 3.6191s-1.3798 2.4285-2.0483 3.6573c-.80748-2.0709-1.5469-4.1258-2.2082-6.1358 2.0632-.42553 4.2081-.80756 6.405-1.1406zm-15.158 3.3517c1.5236 4.7226 3.4306 9.6081 5.6704 14.54l.00058.00058c-2.2738 5.0132-4.2064 9.9763-5.7515 14.769-.53713-.16711-1.0677-.34145-1.5905-.5193-6.1472-2.1014-11.267-4.8138-14.806-7.8439-2.7077-2.3186-4.3239-4.7644-4.3239-6.5429 0-1.8256 1.6168-4.1776 4.4367-6.4574 3.2825-2.654 7.9537-5.0795 13.499-7.0125.94236-.32705 1.902-.64041 2.8647-.93345zm50.82 18.747h21.952c3.7993 0 6.7182 1.187 8.8369 3.6614s3.159 5.9574 3.159 10.522c.001 4.6414-1.0599 8.2521-3.1577 10.779-2.0805 2.552-5.0377 3.8196-8.837 3.8196h-21.953c-.0746 0-.13545-.0782-.13545-.17485v-28.432c0-.0967.0596-.17485.13545-.17485zm-39.85 6.3948c.6738 1.2354 1.3649 2.4648 2.0638 3.6721.73228 1.2646 1.492 2.5353 2.2648 3.7945-2.2953-.31751-4.5131-.68811-6.6198-1.1047v-.00058c.68335-2.0805 1.4509-4.2111 2.2912-6.3614zm-4.7291 15.052c4.7745.97698 10.002 1.7135 15.562 2.191 3.1858 4.4367 6.4957 8.5564 9.8504 12.261-.41419.38136-.83198.7567-1.2474 1.1214-4.8562 4.2451-9.7333 7.314-14.101 8.8752l-.0908.0322c-1.9575.69111-3.7056 1.0415-5.1922 1.0415-1.0969 0-1.9826-.18984-2.6325-.56463-1.5822-.91253-2.8133-3.4889-3.3779-7.0692-.66007-4.1723-.42911-9.4278.66664-15.198l.00058.00058c.17069-.89521.35807-1.7958.56277-2.691z" fill="#41e0ff"/></svg>