<svg height="24" width="24" xmlns="http://www.w3.org/2000/svg" xmlns:xlink="http://www.w3.org/1999/xlink"><clipPath id="a"><path clip-rule="evenodd" d="m18 11v2h3a1 1 0 0 0 1-1 1 1 0 0 0 -1-1z"/></clipPath><clipPath id="b"><path d="m0 0h24v24h-24z"/></clipPath><clipPath id="c"><path clip-rule="evenodd" d="m2 8v1h9.46a1 1 0 0 1 .84.45l1.33 2a1 1 0 0 1 0 1.11l-1.33 2a1 1 0 0 1 -.84.45h-9.46v1a1 1 0 0 0 1 1h9.46a1 1 0 0 0 .84-.45l1.7-2.56h2a1 1 0 0 0 1-1v-2a1 1 0 0 0 -1-1h-2l-1.7-2.55a1 1 0 0 0 -.84-.45h-9.46a1 1 0 0 0 -1 1"/></clipPath><clipPath id="d"><path d="m0 0h24v24h-24z"/></clipPath><clipPath id="e"><path clip-rule="evenodd" d="m15 18h-3.46a1 1 0 0 1 -.84-.45l-2.7-4.1a1 1 0 0 0 -.87-.45h-5.13v2h2v-1h1.46a1 1 0 0 1 .84.45l3.4 5.1a1 1 0 0 0 .84.45h5.46a1 1 0 0 0 1-1v-2h4a1 1 0 0 0 1-1 1 1 0 0 0 -1-1h-5a1 1 0 0 0 -1 1z"/></clipPath><clipPath id="f"><path d="m0 0h24v24h-24z"/></clipPath><clipPath id="g"><path clip-rule="evenodd" d="m17 7v-2a1 1 0 0 0 -1-1h-5.46a1 1 0 0 0 -.84.45l-3.4 5.1a1 1 0 0 1 -.84.45h-1.46v-1h-2v2h5.13a1 1 0 0 0 .87-.45l2.74-4.1a1 1 0 0 1 .8-.45h3.46v2a1 1 0 0 0 1 1h5a1 1 0 0 0 1-1 1 1 0 0 0 -1-1z"/></clipPath><clipPath id="h"><circle cx="10.5" cy="12" r="1.25"/></clipPath><path d="m0 0h24v24h-24z" fill="none"/><path d="m18 11v2h3a1 1 0 0 0 1-1 1 1 0 0 0 -1-1z" fill="#2683fb" fill-rule="evenodd"/><g clip-path="url(#a)"><path d="m0 0h24v24h-24z" fill="#2683fb"/><g clip-path="url(#b)"><path d="m14 6h13v12h-13z" fill="#2683fb"/></g></g><path d="m2 8v1h9.46a1 1 0 0 1 .84.45l1.33 2a1 1 0 0 1 0 1.11l-1.33 2a1 1 0 0 1 -.84.45h-9.46v1a1 1 0 0 0 1 1h9.46a1 1 0 0 0 .84-.45l1.7-2.56h2a1 1 0 0 0 1-1v-2a1 1 0 0 0 -1-1h-2l-1.7-2.55a1 1 0 0 0 -.84-.45h-9.46a1 1 0 0 0 -1 1" fill="#a6cafd" fill-rule="evenodd"/><g clip-path="url(#c)" fill="#a6cafd"><path d="m0 0h24v24h-24z"/><path clip-path="url(#d)" d="m-3 2h27v20h-27z"/></g><path d="m15 18h-3.46a1 1 0 0 1 -.84-.45l-2.7-4.1a1 1 0 0 0 -.87-.45h-5.13v2h2v-1h1.46a1 1 0 0 1 .84.45l3.4 5.1a1 1 0 0 0 .84.45h5.46a1 1 0 0 0 1-1v-2h4a1 1 0 0 0 1-1 1 1 0 0 0 -1-1h-5a1 1 0 0 0 -1 1z" fill="#559cfc" fill-rule="evenodd"/><g clip-path="url(#e)"><path d="m0 0h24v24h-24z" fill="#559cfc"/><g clip-path="url(#f)"><path d="m-3 8h30v17h-30z" fill="#559cfc"/></g></g><path d="m17 7v-2a1 1 0 0 0 -1-1h-5.46a1 1 0 0 0 -.84.45l-3.4 5.1a1 1 0 0 1 -.84.45h-1.46v-1h-2v2h5.13a1 1 0 0 0 .87-.45l2.74-4.1a1 1 0 0 1 .8-.45h3.46v2a1 1 0 0 0 1 1h5a1 1 0 0 0 1-1 1 1 0 0 0 -1-1z" fill="#559cfc" fill-rule="evenodd"/><g clip-path="url(#g)"><path d="m0 0h24v24h-24z" fill="#559cfc"/><g clip-path="url(#f)"><path d="m-3-1h30v17h-30z" fill="#559cfc"/></g></g><circle cx="10.5" cy="12" fill="#2683fb" r="1.25"/><g clip-path="url(#h)"><path d="m0 0h24v24h-24z" fill="#2683fb"/><g clip-path="url(#b)"><path d="m4.25 5.75h12.5v12.5h-12.5z" fill="#2683fb"/></g></g><g fill="#2683fb"><rect height="2" rx=".97" width="6.52" x="2" y="18"/><rect height="2" rx=".97" width="6.52" x="2" y="4"/></g></svg>