<svg xmlns="http://www.w3.org/2000/svg" width="24" height="24"><clipPath id="a"><path d="M18 11v2h3a1 1 0 0 0 1-1 1 1 0 0 0-1-1z" clip-rule="evenodd"/></clipPath><clipPath id="b"><path d="M0 0h24v24H0z"/></clipPath><clipPath id="c"><path d="M2 8v1h9.46a1 1 0 0 1 .84.45l1.33 2a1 1 0 0 1 0 1.11l-1.33 2a1 1 0 0 1-.84.45H2v1a1 1 0 0 0 1 1h9.46a1 1 0 0 0 .84-.45L15 14h2a1 1 0 0 0 1-1v-2a1 1 0 0 0-1-1h-2l-1.7-2.55a1 1 0 0 0-.84-.45H3a1 1 0 0 0-1 1" clip-rule="evenodd"/></clipPath><clipPath id="d"><path d="M0 0h24v24H0z"/></clipPath><clipPath id="e"><path d="M15 18h-3.46a1 1 0 0 1-.84-.45L8 13.45a1 1 0 0 0-.87-.45H2v2h2v-1h1.46a1 1 0 0 1 .84.45l3.4 5.1a1 1 0 0 0 .84.45H16a1 1 0 0 0 1-1v-2h4a1 1 0 0 0 1-1 1 1 0 0 0-1-1h-5a1 1 0 0 0-1 1z" clip-rule="evenodd"/></clipPath><clipPath id="f"><path d="M0 0h24v24H0z"/></clipPath><clipPath id="g"><path d="M17 7V5a1 1 0 0 0-1-1h-5.46a1 1 0 0 0-.84.45l-3.4 5.1a1 1 0 0 1-.84.45H4V9H2v2h5.13a1 1 0 0 0 .87-.45l2.74-4.1a1 1 0 0 1 .8-.45H15v2a1 1 0 0 0 1 1h5a1 1 0 0 0 1-1 1 1 0 0 0-1-1z" clip-rule="evenodd"/></clipPath><clipPath id="h"><circle cx="10.5" cy="12" r="1.25"/></clipPath><path fill="none" d="M0 0h24v24H0z"/><path fill="#2683fb" fill-rule="evenodd" d="M18 11v2h3a1 1 0 0 0 1-1 1 1 0 0 0-1-1z"/><g clip-path="url(#a)"><path fill="#2683fb" d="M0 0h24v24H0z"/><g clip-path="url(#b)"><path fill="#2683fb" d="M14 6h13v12H14z"/></g></g><path fill="#a6cafd" fill-rule="evenodd" d="M2 8v1h9.46a1 1 0 0 1 .84.45l1.33 2a1 1 0 0 1 0 1.11l-1.33 2a1 1 0 0 1-.84.45H2v1a1 1 0 0 0 1 1h9.46a1 1 0 0 0 .84-.45L15 14h2a1 1 0 0 0 1-1v-2a1 1 0 0 0-1-1h-2l-1.7-2.55a1 1 0 0 0-.84-.45H3a1 1 0 0 0-1 1"/><g fill="#a6cafd" clip-path="url(#c)"><path d="M0 0h24v24H0z"/><path d="M-3 2h27v20H-3z" clip-path="url(#d)"/></g><path fill="#559cfc" fill-rule="evenodd" d="M15 18h-3.46a1 1 0 0 1-.84-.45L8 13.45a1 1 0 0 0-.87-.45H2v2h2v-1h1.46a1 1 0 0 1 .84.45l3.4 5.1a1 1 0 0 0 .84.45H16a1 1 0 0 0 1-1v-2h4a1 1 0 0 0 1-1 1 1 0 0 0-1-1h-5a1 1 0 0 0-1 1z"/><g clip-path="url(#e)"><path fill="#559cfc" d="M0 0h24v24H0z"/><g clip-path="url(#f)"><path fill="#559cfc" d="M-3 8h30v17H-3z"/></g></g><path fill="#559cfc" fill-rule="evenodd" d="M17 7V5a1 1 0 0 0-1-1h-5.46a1 1 0 0 0-.84.45l-3.4 5.1a1 1 0 0 1-.84.45H4V9H2v2h5.13a1 1 0 0 0 .87-.45l2.74-4.1a1 1 0 0 1 .8-.45H15v2a1 1 0 0 0 1 1h5a1 1 0 0 0 1-1 1 1 0 0 0-1-1z"/><g clip-path="url(#g)"><path fill="#559cfc" d="M0 0h24v24H0z"/><g clip-path="url(#f)"><path fill="#559cfc" d="M-3-1h30v17H-3z"/></g></g><circle cx="10.5" cy="12" r="1.25" fill="#2683fb"/><g clip-path="url(#h)"><path fill="#2683fb" d="M0 0h24v24H0z"/><g clip-path="url(#b)"><path fill="#2683fb" d="M4.25 5.75h12.5v12.5H4.25z"/></g></g><g fill="#2683fb"><rect width="6.52" height="2" x="2" y="18" rx=".97"/><rect width="6.52" height="2" x="2" y="4" rx=".97"/></g></svg>