<svg viewBox="0 0 24 24" xmlns="http://www.w3.org/2000/svg"><path d="m9.854 14.5-4.854-4.853-4.146-4.147a.5.5 0 0 0 -.854.354v2.586a.5.5 0 0 0 .146.353l4.854 4.854.147.146 4.707 4.707.146.147v-.049c.065.03.134.049.207.049h2.586a.5.5 0 0 0 .353-.854zm0-5-4-4a.487.487 0 0 0 -.409-.144.515.515 0 0 0 -.356.21.493.493 0 0 0 -.089.288v2.586a.5.5 0 0 0 .147.353l9 9a.5.5 0 0 0 .853-.354v-2.585a.5.5 0 0 0 -.146-.354zm1-4a.5.5 0 0 0 -.854.354v2.586a.5.5 0 0 0 .147.353l4 4a.5.5 0 0 0 .853-.354v-2.585a.5.5 0 0 0 -.146-.354zm12.647 11.515a3.863 3.863 0 0 1 -2.232-1.1l-4.708-4.707a.5.5 0 0 0 -.854.354v6.585a.5.5 0 0 0 .5.5h7.293a.5.5 0 0 0 .5-.5v-.6c0-.276-.225-.497-.499-.532zm-5.394.032a.8.8 0 1 1 0-1.6.8.8 0 0 1 0 1.6zm-17.253-1.547a.5.5 0 0 0 -.854.354v2.293a.5.5 0 0 0 .5.5h2.293c.222 0 .39-.135.462-.309a.493.493 0 0 0 -.109-.545l-2.292-2.292zm4.146-.853-4.146-4.147a.5.5 0 0 0 -.854.353v2.586a.5.5 0 0 0 .146.353l4.708 4.708.146.147h2.793a.5.5 0 0 0 .353-.854z"/></svg>