<svg fill="none" height="220" viewBox="0 0 220 220" width="220" xmlns="http://www.w3.org/2000/svg"><g fill="#fff"><g clip-rule="evenodd" fill-rule="evenodd"><path d="m205.593 167.181c3.26-1.836 4.373-5.904 2.493-9.087-1.88-3.18-6.045-4.271-9.304-2.435l-88.946 50.154-88.619-49.968c-3.256-1.836-7.42-.748-9.304 2.435-1.88 3.183-.763 7.251 2.493 9.087l91.766 51.74a6.93 6.93 0 0 0 5.295.632 7 7 0 0 0 2.364-.815z"/><path d="m214.739 114.135c.468-2.808-.852-5.733-3.532-7.236l-97.01-54.436a7.3 7.3 0 0 0 -2.463-.85 7.34 7.34 0 0 0 -5.599.66l-97.013 54.437c-2.821 1.584-4.134 4.746-3.439 7.685-.305 2.421.645 4.954 3.472 6.548l97.01 54.699a7.34 7.34 0 0 0 5.602.665 7.3 7.3 0 0 0 2.495-.858l97.014-54.703c2.851-1.608 3.793-4.17 3.463-6.61zm-20.026-.291-84.718-47.537-84.67 47.512 84.718 47.767z"/><path d="m216.215 72.942c3.62-2.04 4.86-6.557 2.769-10.092-2.088-3.531-6.714-4.743-10.333-2.704l-98.782 55.7-98.414-55.493c-3.62-2.043-8.245-.83-10.333 2.704-2.092 3.531-.852 8.053 2.768 10.093l101.91 57.46a7.7 7.7 0 0 0 5.885.698 7.7 7.7 0 0 0 2.621-.901z"/></g><path d="m18.906 66.546 90.775-55.407 90.774 55.404-90.774 51.717z"/><path clip-rule="evenodd" d="m216.095 58.37c3.627 2.036 4.883 6.55 2.807 10.085-2.081 3.531-6.706 4.746-10.333 2.711l-98.797-55.436-98.437 55.237c-3.627 2.035-8.253.82-10.333-2.712-2.077-3.535-.82-8.048 2.802-10.084l101.914-57.184a7.7 7.7 0 0 1 5.881-.694 7.7 7.7 0 0 1 2.587.893l101.909 57.185z" fill-rule="evenodd"/></g></svg>