<svg height="74" viewBox="0 0 74 74" width="74" xmlns="http://www.w3.org/2000/svg"><g fill="none" fill-rule="evenodd"><path d="m5 5h64v64h-64z" fill="#dd344c"/><path d="m1 1h72v72h-72z" stroke="#879196" stroke-width="2"/><path d="m31 40h6v-2h-6zm-5 2h16.001v-6h-16.001zm0-29v21h16.001l-.001-21zm18 0v29c0 1.103-.897 2-2 2h-16c-1.103 0-2-.897-2-2v-29c0-1.103.897-2 2-2h16c1.103 0 2 .897 2 2m-37-6h17v2h2v-3a1 1 0 0 0 -1-1h-19a1 1 0 0 0 -1 1v29a1 1 0 0 0 1 1h16v-2h-15zm-3.852 32h18.852v2h-18.852c-1.736 0-3.148-1.443-3.148-3.218v-34.564c0-1.775 1.412-3.218 3.148-3.218h24.704c1.736 0 3.148 1.443 3.148 3.218v5.782h-2v-5.782c0-.672-.516-1.218-1.148-1.218h-24.704c-.632 0-1.148.546-1.148 1.218v34.564c0 .672.516 1.218 1.148 1.218" fill="#fff" transform="translate(15 15)"/></g></svg>