<svg xmlns="http://www.w3.org/2000/svg" width="74" height="74" viewBox="0 0 74 74"><title>Icon-Architecture-Category/48/Front-End-Web-Mobile_48</title><g id="Icon-Architecture-Category/48/Front-End-Web-Mobile_48" fill="none" fill-rule="evenodd" stroke="none" stroke-width="1"><path id="Rectangle" fill="#dd344c" d="M5 5h64v64H5z"/><path id="#879196-Border-Copy-18" stroke="#879196" stroke-width="2" d="M1 1h72v72H1z"/><g id="Icon-Category/48/Mobile_48" fill="#fff" transform="translate(15 15)"><path id="Fill-1" d="M31 40h6v-2h-6zm-5 2h16.001v-6H26zm0-29v21h16.001L42 13zm18 0v29c0 1.103-.897 2-2 2H26c-1.103 0-2-.897-2-2V13c0-1.103.897-2 2-2h16c1.103 0 2 .897 2 2M7 7h17v2h2V6a1 1 0 0 0-1-1H6a1 1 0 0 0-1 1v29a1 1 0 0 0 1 1h16v-2H7zM3.148 39H22v2H3.148C1.412 41 0 39.557 0 37.782V3.218C0 1.443 1.412 0 3.148 0h24.704C29.588 0 31 1.443 31 3.218V9h-2V3.218C29 2.546 28.484 2 27.852 2H3.148C2.516 2 2 2.546 2 3.218v34.564C2 38.454 2.516 39 3.148 39"/></g></g></svg>