<svg xmlns="http://www.w3.org/2000/svg" width="18" height="18" viewBox="0 0 18 18">
  <defs>
    <mask id="wko">
      <rect width="18" height="18" fill="white"/>
      <rect width="4.068" height="2.711" x="11.851" y="7.377" fill="black" rx=".259"/>
      <rect width="4.068" height="2.711" x="6.966" y="10.942" fill="black" rx=".259"/>
    </mask>
  </defs>
  <g fill="currentColor" mask="url(#wko)">
    <path fill="currentColor" d="M16.218 6.589h-4.925a.26.26 0 0 0-.259.259v2.981a.26.26 0 0 1-.259.259H6.406a.257.257 0 0 0-.257.257v3.043a.26.26 0 0 1-.26.259H1.521a.26.26 0 0 0-.258.257v3.581a.516.516 0 0 0 .515.515h9.816a.2.2 0 0 0 .053-.006h4.571a.52.52 0 0 0 .519-.518V7.107a.52.52 0 0 0-.519-.518"/>
    <rect width="4.068" height="2.711" x="11.851" y="14.495" fill="currentColor" rx=".259"/>
    <rect width="4.068" height="2.711" x="11.851" y="10.936" fill="currentColor" rx=".259"/>
    <rect width="4.068" height="2.711" x="6.966" y="14.5" fill="currentColor" rx=".259"/>
  </g>
  <rect width="4.068" height="2.711" x="2.081" y="14.5" fill="currentColor" rx=".259"/>
  <rect width="4.834" height="3.221" x="6.097" y="3.396" fill="currentColor" rx=".308"/>
  <rect width="4.834" height="3.221" x="1.263" y="6.76" fill="currentColor" rx=".308"/>
  <rect width="4.834" height="3.221" x="1.263" fill="currentColor" rx=".308"/>
</svg>