<svg height="18" viewBox="0 0 18 18" width="18" xmlns="http://www.w3.org/2000/svg" xmlns:xlink="http://www.w3.org/1999/xlink"><linearGradient id="a" gradientUnits="userSpaceOnUse" x1="9.286" x2="8.876" y1="7.103" y2="19.415"><stop offset="0" stop-color="#e6e6e6"/><stop offset="1" stop-color="#b3b3b3"/></linearGradient><path d="m16.218 6.589h-4.925a.26.26 0 0 0 -.259.259v2.981a.26.26 0 0 1 -.259.259h-4.369a.257.257 0 0 0 -.257.257v3.043a.26.26 0 0 1 -.26.259h-4.368a.26.26 0 0 0 -.258.257v3.581a.516.516 0 0 0 .515.515h9.816a.2.2 0 0 0 .053-.006h4.571a.52.52 0 0 0 .519-.518v-10.369a.52.52 0 0 0 -.519-.518" fill="url(#a)"/><rect fill="#005ba1" height="2.711" rx=".259" width="4.068" x="11.851" y="14.495"/><rect fill="#5ea0ef" height="2.711" rx=".259" width="4.068" x="11.851" y="10.936"/><rect fill="#fff" height="2.711" rx=".259" width="4.068" x="11.851" y="7.377"/><rect fill="#005ba1" height="2.711" rx=".259" width="4.068" x="6.966" y="14.5"/><rect fill="#fff" height="2.711" rx=".259" width="4.068" x="6.966" y="10.942"/><rect fill="#005ba1" height="2.711" rx=".259" width="4.068" x="2.081" y="14.5"/><rect fill="#5ea0ef" height="3.221" rx=".308" width="4.834" x="6.097" y="3.396"/><rect fill="#0078d4" height="3.221" rx=".308" width="4.834" x="1.263" y="6.76"/><rect fill="#83b9f9" height="3.221" rx=".308" width="4.834" x="1.263"/></svg>