<svg xmlns="http://www.w3.org/2000/svg" width="18" height="18" viewBox="0 0 18 18"><path fill="currentColor" d="M14 7.1a2.06 2.06 0 0 0 0-2.92L10.46.61a2.06 2.06 0 0 0-2.92 0L4 4.18A2.06 2.06 0 0 0 4 7.1l3 3a.57.57 0 0 1 .17.41V16a.7.7 0 0 0 .21.5l1.35 1.35a.45.45 0 0 0 .66 0l1.31-1.31.77-.78a.26.26 0 0 0 0-.38l-.55-.55a.29.29 0 0 1 0-.42l.55-.56a.26.26 0 0 0 0-.38l-.55-.56a.28.28 0 0 1 0-.41l.55-.56a.26.26 0 0 0 0-.38l-.77-.78v-.28zM9 1.47a1.18 1.18 0 1 1-1.17 1.17A1.17 1.17 0 0 1 9 1.47"/><g fill="currentColor"><path d="M8.07 16.13a.25.25 0 0 0 .43-.19v-4.47a.24.24 0 0 0-.12-.22.25.25 0 0 0-.39.22v4.47a.27.27 0 0 0 .08.19" opacity=".75"/><rect width="5.86" height=".69" x="6.15" y="5.37" opacity=".75" rx=".32"/><rect width="5.86" height=".69" x="6.15" y="6.49" opacity=".75" rx=".32"/></g>​</svg>