<svg height="18" viewBox="0 0 18 18" width="18" xmlns="http://www.w3.org/2000/svg" xmlns:xlink="http://www.w3.org/1999/xlink"><radialGradient id="a" cx="7.61" cy="8.1412" gradientUnits="userSpaceOnUse" r="10.5092"><stop offset=".27" stop-color="#ffd70f"/><stop offset=".49" stop-color="#ffcb12"/><stop offset=".88" stop-color="#feac19"/><stop offset="1" stop-color="#fea11b"/></radialGradient><path d="m14 7.1a2.06 2.06 0 0 0 0-2.92l-3.54-3.57a2.06 2.06 0 0 0 -2.92 0l-3.54 3.57a2.06 2.06 0 0 0 0 2.92l3 3a.57.57 0 0 1 .17.41v5.49a.7.7 0 0 0 .21.5l1.35 1.35a.45.45 0 0 0 .66 0l1.31-1.31.77-.78a.26.26 0 0 0 0-.38l-.55-.55a.29.29 0 0 1 0-.42l.55-.56a.26.26 0 0 0 0-.38l-.55-.56a.28.28 0 0 1 0-.41l.55-.56a.26.26 0 0 0 0-.38l-.77-.78v-.28zm-5-5.63a1.18 1.18 0 1 1 -1.17 1.17 1.17 1.17 0 0 1 1.17-1.17" fill="url(#a)"/><g fill="#ff9300"><path d="m8.07 16.13a.25.25 0 0 0 .43-.19v-4.47a.24.24 0 0 0 -.12-.22.25.25 0 0 0 -.39.22v4.47a.27.27 0 0 0 .08.19" opacity=".75"/><rect height=".69" opacity=".75" rx=".32" width="5.86" x="6.15" y="5.37"/><rect height=".69" opacity=".75" rx=".32" width="5.86" x="6.15" y="6.49"/></g>​</svg>