<svg viewBox="0 0 24 24" xmlns="http://www.w3.org/2000/svg"><path d="m16.849.001a1.5 1.5 0 0 0 -.342.034l-12.282 2.707a2.71 2.71 0 0 0 -2.13 2.65v15.6a2.18 2.18 0 0 0 1.921 2.166l6.444.842.05-.049 11.397-11.506-.101-9.221a1.474 1.474 0 0 0 -1.793-1.426l-.281.062-.021.003-1.425.31.007-.678a1.475 1.475 0 0 0 -1.445-1.495zm-5.329 4.974c.783.018 1.638.154 2.367.546l-.087 4.441h-.468s-1.101-1.432-1.915-1.821c-.518-.245-1.288-.338-1.893-.036-.893.446-.986 1.699-.166 2.196.195.122.454.223.792.302 1.815.418 4.81 1.281 4.442 4.759 0 0-.209 3.26-3.643 3.635a5.5 5.5 0 0 1 -1.807-.115c-.813-.18-2.253-.547-2.958-.986l-.13-3.722h.346s.684 1.655 2.627 2.455a2.2 2.2 0 0 0 1.138.144c.482-.072 1.05-.332 1.281-1.116 0 0 .389-1.145-1.627-1.771-1.612-.504-3.131-1.022-3.758-2.721a4.47 4.47 0 0 1 -.144-2.556c.267-1.116 1.03-2.685 3.19-3.362 0 0 1.107-.3 2.413-.272"/></svg>