<svg xmlns="http://www.w3.org/2000/svg" xmlns:xlink="http://www.w3.org/1999/xlink" viewBox="0 0 128 128">
  <defs>
    <mask id="wko">
      <rect width="128" height="128" fill="white"/>
      <path fill="black" d="M90.5 19.2H37.4c-10.1 0-18.3 8.2-18.3 18.3v53.1c0 10.1 8.2 18.3 18.3 18.3h53.1c10.1 0 18.3-8.2 18.3-18.3V37.4c0-10.1-8.2-18.2-18.3-18.2m16.8 71.6c0 9.2-7.4 16.6-16.6 16.6H37.2c-9.1 0-16.6-7.4-16.6-16.6V37.2c0-9.2 7.4-16.6 16.6-16.6h53.6c9.1 0 16.6 7.4 16.6 16.6v53.6z"/>
      <path fill="black" d="M32.8 71.3h62.4c2.6 0 4.6 2.1 4.6 4.6 0 2.6-2.1 4.6-4.6 4.6H32.8c-2.6 0-4.6-2.1-4.6-4.6-.1-2.5 2-4.6 4.6-4.6"/>
      <path fill="black" d="m62 34.1 31.2 54c1.3 2.2.5 5-1.7 6.3s-5 .5-6.3-1.7L54 38.7c-1.3-2.2-.5-5 1.7-6.3s5-.5 6.3 1.7"/>
      <path fill="black" d="M55.5 71.3c8.7-15 18.7-32.4 18.7-32.4 1.3-2.2.5-5-1.7-6.3s-5-.5-6.3 1.7c0 0-12.2 21.2-21.4 37zm-5.4 9.2C45.9 87.7 43 92.9 43 92.9c-1.3 2.2-4.1 3-6.3 1.7s-3-4.1-1.7-6.3c0 0 1.7-3.1 4.4-7.7 3.4-.1 9.6-.1 10.7-.1"/>
    </mask>
  </defs>
  <g fill="currentColor" mask="url(#wko)">
    <path fill="currentColor" d="M35.7 13.8h56.5c12.1 0 21.9 9.8 21.9 21.9v56.5c0 12.1-9.8 21.9-21.9 21.9H35.7c-12.1 0-21.9-9.8-21.9-21.9V35.7c0-12.1 9.8-21.9 21.9-21.9"/>
    <path fill="currentColor" d="M64.1 22.8c-22.6 0-41 18.4-41 41s18.4 41 41 41c22.7 0 41-18.4 41-41s-18.4-41-41-41m0 81.4c-22.3 0-40.4-18.1-40.4-40.4s18.1-40.4 40.4-40.4 40.4 18.1 40.4 40.4-18.1 40.4-40.4 40.4"/>
    <path fill="currentColor" d="M64.1 31.2c-18.1 0-32.7 14.6-32.7 32.7S46 96.5 64.1 96.5s32.7-14.6 32.7-32.7-14.7-32.6-32.7-32.6m0 64.6c-17.7 0-32-14.3-32-32s14.3-32 32-32 32 14.3 32 32-14.4 32-32 32"/>
    <path fill="currentColor" d="M32.6 72.2h62.6c2 0 3.7 1.6 3.7 3.7v.1c0 2-1.6 3.7-3.7 3.7H32.6c-2 0-3.7-1.6-3.7-3.7v-.2c.1-2 1.7-3.6 3.7-3.6"/>
    <path fill="currentColor" d="M31.1 79.3h65.7l.5-.3H30.6z"/>
    <path fill="currentColor" d="M29.6 78.1h68.6l.2-.3h-69z"/>
    <path fill="currentColor" d="M29 76.2h69.9v-.4H29z"/>
    <path fill="currentColor" d="M29.7 73.7h68.6l.1.2.1.2h-69l.1-.2z"/>
    <path fill="currentColor" d="M31.2 72.5h65.6l.3.1.3.2H30.6l.3-.2z"/>
    <path fill="currentColor" d="M93.4 72.2h-.5s1.7 1.2 1.7 3.9c0 2.5-1.7 3.6-1.7 3.6h.5s1.7-.8 1.7-3.6c0-3-1.7-3.9-1.7-3.9"/>
    <path fill="currentColor" d="M88.6 72.2h-.5s1.5 1.4 1.5 3.9c0 2.2-1.5 3.6-1.5 3.6h.5s1.5-1.1 1.5-3.6c-.1-2.7-1.5-3.9-1.5-3.9"/>
    <path fill="currentColor" d="M63.7 72.2h.5v7.5h-.5z"/>
    <path fill="currentColor" d="M58.8 72.2h.5s-.2 1.9-.2 3.9c0 1.8.2 3.6.2 3.6h-.5s-.2-1.8-.2-3.6c0-2 .2-3.9.2-3.9"/>
    <path fill="currentColor" d="M54 72.2h.5s-.5 1.9-.5 3.9c0 1.8.5 3.6.5 3.6H54s-.5-1.8-.5-3.6c0-2 .5-3.9.5-3.9"/>
    <path fill="currentColor" d="M49.1 72.2h.5s-.7 1.9-.7 3.9c0 1.8.7 3.6.7 3.6h-.5s-.7-1.8-.7-3.6c0-2 .7-3.9.7-3.9"/>
    <path fill="currentColor" d="M44.2 72.2h.5s-1 1.6-1 3.9c0 2 1 3.6 1 3.6h-.5s-1-1.6-1-3.6c0-2.3 1-3.9 1-3.9"/>
    <path fill="currentColor" d="M39.3 72.2h.5s-1.5 1.4-1.5 3.9c0 2.2 1.5 3.6 1.5 3.6h-.5s-1.5-1.1-1.5-3.6c.1-2.7 1.5-3.9 1.5-3.9"/>
    <path fill="currentColor" d="M34.5 72.2h.5s-1.7 1.2-1.7 3.9c0 2.5 1.7 3.6 1.7 3.6h-.5s-1.7-.8-1.7-3.6c0-3 1.7-3.9 1.7-3.9"/>
    <path fill="currentColor" d="m61.2 34.5 31.3 54.2c1 1.7.4 4-1.3 5l-.2.1c-1.7 1-4 .4-5-1.3L54.7 38.2c-1-1.7-.4-4 1.3-5l.1-.1c1.8-1 4.1-.4 5.1 1.4"/>
    <path fill="currentColor" d="M54.2 36.7 87 93.6l.2.1.2.1.2.1-33.4-57.8z"/>
    <path fill="currentColor" d="m54.5 34.8 34.3 59.4h.4L54.7 34.5l-.1.2z"/>
    <path fill="currentColor" d="m55.9 33.3 35 60.5.3-.2-35-60.5z"/>
    <path fill="currentColor" d="M58.4 32.7 92.6 92l-.1.2-.1.2-34.5-59.8h.2z"/>
    <path fill="currentColor" d="M60.2 33.3 93 90.1v.6L59.6 33l.2.1.2.1z"/>
    <path fill="currentColor" d="m91.5 86.9-.2-.4s-.2 2-2.4 3.4c-2.1 1.3-4 .4-4 .4l.2.4s1.6 1.1 4-.4c2.4-1.4 2.4-3.4 2.4-3.4M89 82.7l-.2-.4s-.5 2-2.6 3.2c-1.9 1.2-3.8.6-3.8.6l.2.4s1.7.7 3.9-.6 2.5-3.2 2.5-3.2"/>
    <path fill="currentColor" d="m86.6 78.5-.2-.4s-.9 1.7-2.8 2.8c-1.7 1-3.6 1-3.6 1l.2.4s1.8 0 3.6-1c1.9-1.1 2.8-2.8 2.8-2.8"/>
    <path fill="currentColor" d="m84.2 74.3-.2-.4s-1.3 1.7-3 2.6c-1.6.9-3.5 1.2-3.5 1.2l.2.4s1.9-.3 3.5-1.2 3-2.6 3-2.6"/>
    <path fill="currentColor" d="m74.3 57.3.2.4s-1.7.8-3.4 1.7c-1.6.9-3 2.1-3 2.1l-.2-.4s1.5-1.2 3-2.1c1.7-.9 3.4-1.7 3.4-1.7"/>
    <path fill="currentColor" d="m71.9 53.1.2.4s-1.9.6-3.5 1.6c-1.6.9-2.9 2.3-2.9 2.3l-.2-.4s1.3-1.4 2.9-2.3c1.6-1.1 3.5-1.6 3.5-1.6"/>
    <path fill="currentColor" d="M67.4 49.8c1.3-.4 2.3-.6 2.3-.6l-.2-.4s-.9.1-1.9.5c-.6.2-.7.7-.2.5"/>
    <path fill="currentColor" d="m64.6 40.5.2.4s-1.9-.5-4.1.7c-1.9 1.2-2.3 3.1-2.3 3.1l-.2-.4s.2-1.7 2.3-3c2.2-1.4 4.1-.8 4.1-.8"/>
    <path fill="currentColor" d="m62.2 36.2.3.4s-2-.8-4.3.5C56 38.5 56 40.4 56 40.4l-.3-.4s-.2-1.7 2.2-3.2c2.5-1.5 4.3-.6 4.3-.6"/>
  </g>
  <path fill="currentColor" d="M54.4 71.3c8.8-15.2 19-32.9 19-32.9 1-1.7.4-4-1.3-5l-.1-.1c-1.7-1-4-.4-5 1.3 0 0-12 20.8-21.2 36.7zm-5.3 9.2c-4 7-6.9 12-6.9 12-1 1.7-3.2 2.3-5 1.3H37c-1.7-1-2.3-3.2-1.3-5 0 0 1.9-3.3 4.8-8.3z"/>
  <path fill="currentColor" d="M54.1 71.3 74 36.9v-.6s-11 19.1-20.2 35zm-5.4 9.2-7.6 13.2-.3.2-.3.1s3.4-5.9 7.8-13.5z"/>
  <path fill="currentColor" d="m52.6 71.3 21-36.3-.1-.2-.1-.2S61.9 54.5 52.3 71.2zm-5.3 9.2-8 13.8h-.4s3.4-5.9 8-13.9c.2.1.4.1.4.1"/>
  <path fill="currentColor" d="M50.4 71.3c9.9-17.1 21.8-37.8 21.8-37.8l-.3-.2-22 38zM45 80.6C40.6 88.3 37.3 94 37.3 94l-.3-.2s3.2-5.6 7.6-13.2c.2-.1.1-.1.4 0"/>
  <path fill="currentColor" d="M48 71.3c9.9-17.1 22.2-38.5 22.2-38.5h-.4S57.5 54.1 47.6 71.3zm-5.8 9.2c-4 6.9-6.7 11.6-6.7 11.6l.1.2.1.2s2.9-5 7-12z"/>
  <path fill="currentColor" d="m46.5 71.3 22-38.1-.2.1-.2.1-.1.1S55.8 54.6 46.2 71.3zm-5.3 9.2c-3.5 6.1-6 10.4-6 10.4v-.8s2.2-3.8 5.6-9.7c.2.1.2.1.4.1"/>
  <path fill="currentColor" d="m66 36.2-.2.4s1.8-.9 4.2.4c2.2 1.2 2.3 3.3 2.3 3.3l.2-.4s.2-1.9-2.3-3.3-4.2-.4-4.2-.4"/>
  <path fill="currentColor" d="m63.6 40.5-.2.4s2-.6 4.1.6c2 1.1 2.4 3 2.4 3l.2-.4s-.2-1.8-2.4-3c-2.3-1.3-4.1-.6-4.1-.6"/>
  <path fill="currentColor" d="m61.1 44.7-.2.4s1.8-.1 3.8 1.1c1.8 1 2.7 2.6 2.7 2.6l.2-.4s-.9-1.6-2.7-2.6c-1.9-1.1-3.8-1.1-3.8-1.1"/>
  <path fill="currentColor" d="m58.7 49-.2.4s2 .3 3.7 1.3c1.6.9 2.8 2.4 2.8 2.4l.2-.4s-1.2-1.5-2.8-2.4c-1.7-1-3.7-1.3-3.7-1.3"/>
  <path fill="currentColor" d="m56.2 53.2-.2.4s1.9.5 3.6 1.5c1.6.9 2.9 2.2 2.9 2.2l.2-.4s-1.3-1.3-2.9-2.2-3.6-1.5-3.6-1.5"/>
  <path fill="currentColor" d="m53.8 57.4-.3.4s1.8.7 3.5 1.7c1.6.9 3 2 3 2l.2-.4s-1.4-1.1-3-2-3.4-1.7-3.4-1.7"/>
  <path fill="currentColor" d="m51.1 62.1.2-.4 6.5 3.7-.2.4z"/>
  <path fill="currentColor" d="m48.7 66.4.2-.4s1.6 1.2 3.3 2.1c1.6.9 3.2 1.6 3.2 1.6l-.2.3s-1.7-.7-3.3-1.6c-1.7-.9-3.2-2-3.2-2"/>
  <path fill="currentColor" d="M47.1 71.3c-.5-.4-.8-.7-.8-.7l.2-.4s.6.5 1.4 1.1z"/>
  <path fill="currentColor" d="M43.2 80.5c.4.3.8.6 1.3.9 1.8 1 3.6.9 3.6.9l-.2.4s-1.8.1-3.6-.9c-.7-.4-1.3-.9-1.7-1.3z"/>
  <path fill="currentColor" d="m38.9 83.3.2-.4s.5 2 2.7 3.2c2 1.1 3.8.5 3.8.5l-.2.4s-1.6.7-3.8-.5c-2.3-1.3-2.7-3.2-2.7-3.2"/>
  <path fill="currentColor" d="m36.4 87.6.2-.4s.2 2.1 2.6 3.4c2.2 1.2 3.9.3 3.9.3l-.3.4s-1.5 1.1-3.9-.3c-2.5-1.4-2.5-3.4-2.5-3.4"/>
  <path fill="currentColor" d="m68.8 114.2 42.8-89.9-10.8-5.1-44.6 93.5s1.4.7 3.2 1.5z"/>
  <path fill="currentColor" d="m94.1 13.8 20 9.5V52C107.2 48.7 61 26.7 61 26.7s3.2-6.7 6.2-12.9z"/>
  <path fill="currentColor" d="M44.5 110.2c-.3.6-.8 1.3-.7 2.4.1 4.1 6.8 7.9 10.7 7.9 2.7 0 3.6-1.1 4.6-3.1s-13.5-9.6-14.6-7.2"/>
  <path fill="currentColor" d="M90.6 25.1s10.3 2.5 11.1 3.2-1.3 4.7-1.7 5.3c-3.3 4-13.6 26.1-13.6 26.1l-9.5-5.4s8.5-15.8 11.5-21.4c1.9-3.8 2.2-7.8 2.2-7.8"/>
  <path fill="currentColor" d="M114.4 19.9c1.8 1.3 4.2 1 6.1.7 1.3-.2-.7 1.7-2.9 6.1s-2.1 4.7-2.4 4.4-10.2-5.9-9.9-6.4c.4-.5 2-11.4 2.8-11.1 2.9.7 3.4 4.2 6.3 6.3"/>
  <path fill="currentColor" d="M99 32.2c.7-1.1 3.9-7.9 9-7.9 2.3 0 6.7 5.8 7.1 6.6.3.7-.7 3.5-1.2 2.2-.6-1.5-3.1-4.7-5.8-4.7s-6.4 3.1-7.3 4.2c-.9 1-2.5.7-1.8-.4"/>
  <path fill="currentColor" d="M98.8 31.8c.5-.8 2.8-4.3 3.9-5.4s3.9-4 6.3-4.4 4.9 4.5 4.1 5.5c-.6.7-1.6-.1-2.8-1.1-1.2-.9-2-2.7-5.8.2-1.3 1-2.6 1.8-5.6 6.1-.8 1.1-.6-.1-.1-.9"/>
  <path fill="currentColor" d="M86.4 61c.4-.8.9-2-.2-2.9-1.2-.9-6.8-3.9-7.8-4.1s-1.8 0-2.2.7-31.1 53.3-31.7 54.8-.7 2.6.2 2.9 11.2 5.2 12.2 6.3 1.5-.1 1.9-.7c1.9-2.4 27.1-56.2 27.6-57"/>
  <path fill="currentColor" d="M99.5 31.6c.5-.7 1.7-2.7 3.2-4.5 1-1.2 6.4-3.8 7.6-8 .7-2.3-.4-4.6-1.9-5.6-5.1-3.1-13.9-8-26.8-8-8.7 0-12.4 2.9-12.4 2.9h4.4l15.3 6 1.9 8s.2 2.7-.7 5.8c-.6 2.5-.8 4-1.7 6.5.7.3 2.3-.8 4.1-.3 1.6.4 2.6 2.6 3.7 1.3 1.9-2.5 2.5-3 3.3-4.1"/>
  <path fill="currentColor" d="M90.5 25.4C89.7 18 87.9 11 69.1 11.1c1.2-1.2 4.1-2.4 4.1-2.4l-4.1-.3s.6-.5 1.8-.6c11-.9 20.8 1.4 20.1 15.7-.1 2.3-.3 3.3-.5 1.9"/>
  <path fill="currentColor" d="M69.1 11.1c1.3-.5 3.1-.8 6.5-.6 4.2.2 9.5 1.8 11.7 3.8 1.1 1 1 .2-.2-1.1-3.1-3.6-7.8-4.4-13.9-4.5-.7-.1-3 1.2-4.1 2.4"/>
  <path fill="currentColor" d="m120.7 20.6 5.5 2.8s-2.1 2.8-3.8 6c-1.8 3.4-3 7.1-3 7.1l-5.3-3.2s1.3-3.6 3.2-7.1c1.5-2.9 3.4-5.6 3.4-5.6"/>
  <path fill="currentColor" d="M126.2 23.4c.4.2-.9 3.3-2.8 6.9s-3.7 6.4-4 6.2c-.4-.2.9-3.3 2.8-6.9 1.8-3.6 3.6-6.4 4-6.2"/>
</svg>