<svg viewBox="0 0 128 128" xmlns="http://www.w3.org/2000/svg"><g fill="#069cec"><path d="m67.3 108.8h23.3c10.1 0 18.3-8.2 18.3-18.3v-53.1c0-2-.3-3.8-.9-5.6h.1c1.3 0 2.4 2.1 2.9 3.2.5 1 1.9 1.8 3.2 2.4v54.8c0 12.1-9.8 21.9-21.9 21.9h-27.6c.7-1.4 1.6-3.2 2.6-5.3zm6.1-95c7.6.2 10.8 2.4 12.3 5.4h-48.2c-10.1 0-18.3 8.2-18.3 18.3v53.1c0 10.1 8.2 18.3 18.3 18.3h3.8c-.4 1.1-.8 2.7-.8 3.7 0 .6.2 1.1.4 1.7h-5.1c-12.1 0-21.9-9.8-21.9-21.9v-56.7c0-12.1 9.8-21.9 21.9-21.9z"/><path d="m89.9 106.4h-21.4c3.3-6.8 7.4-15.5 11.1-23.2l5.7 9.8c1.3 2.2 4.1 3 6.3 1.7s3-4.1 1.7-6.3l-8.9-15.4c2.5-5.2 4.2-8.8 4.4-9.3.9-1.9 1.3-4.3 2.4-6.6 3-5.8 9.5-19.8 12.2-22.4.9-.8 1.5-1.5 2.1-1.9.6 1.7.9 3.4.9 5.3v51.7c0 9.2-7.4 16.6-16.5 16.6zm5.3-35.1h-8.9l5.3 9.3h3.6c2.6 0 4.6-2.1 4.6-4.6 0-2.6-2-4.7-4.6-4.7zm-73.6 18.5v-51.7c0-9.2 7.4-16.6 16.6-16.6h48.4c.3 1.1.5 2.2.6 3.4.2 1.6-2.1 6.7-2.4 7.3-2.2 4.4-6.8 13.1-9.3 17.5-.6 1.2-2.1 3-2.2 3.2 0 0-.1.1-.2.3l-2.2-3.8-5.3 9.3 2.2 3.8c-1.5 2.6-3.2 5.6-5.1 8.7h-29.9c-2.6 0-4.6 2.1-4.6 4.6 0 2.6 2.1 4.6 4.6 4.6h24.5c-6.4 11-12.7 21.9-14.9 25.8h-4.2c-9.1.2-16.6-7.2-16.6-16.4zm40.5-55.5c-1.3-2.2-4.1-3-6.3-1.7s-3 4.1-1.7 6.3l3.3 5.8 5.3-9.3zm-5.2 34.5 17.3-30c1.3-2.2.5-5-1.7-6.3s-5-.5-6.3 1.7l-20 34.6zm-13.8 24.1 5.7-9.9h-10.7l-3.1 5.3c-1.3 2.2-.5 5 1.7 6.3s5.1.5 6.4-1.7z"/><path d="m69.2 9.3c0-.8.9-1.4 2.9-2.2s5.1-1.6 9.5-1.6c12.9 0 21.3 5 26.6 7.8 3.3 1.8 3.7 4.7 6.3 6.6 1.8 1.3 4.2 1 6.1.7h.2s5.3 2.7 5.3 2.8c.3.3-.9 3.3-2.6 6.9-1.8 3.7-3.5 6.5-3.9 6.3-.2-.1-5.7-3.1-5.7-3.1s-.2-1.1-.8-1.9c-1.1-1.5-3-3.3-5.1-3.3-2.8 0-5.7 2.4-8 5.2-2.7 3.1-9.9 18.2-12.6 23.9-.2.5-.6 2.7-1 3.6-.8 1.8-25.3 52.8-27.5 57.3-.8 1.5-2.4 2.2-4.4 2.2-4 0-10.6-3.8-10.7-7.9 0-.6.4-2.3.7-3.1.6-1.5 31.3-54.1 31.7-54.8.1-.2 1.2-1.4 1.9-2.6 2.4-4.5 8.1-15 10.3-19.3.3-.6 2.3-5.8 2.2-7.4-.7-7.1-2.5-15-19.6-15.5-.6 0-1.8-.3-1.8-.6z"/></g></svg>