<svg xmlns="http://www.w3.org/2000/svg" width="477.104" height="161.281" viewBox="0 0 477.104 161.281"><g fill="#d4a10f"><path d="M42.601 160.724c-4.85-1.598-9.453-6.12-12.712-12.491-.754-1.474-1.37-2.788-1.37-2.92 0-.374 2.27-1.624 2.376-1.308.05.15.692 1.234 1.427 2.411 5.519 8.83 13.073 9.8 16.652 2.14 1.004-2.149 1.483-4.13 2.06-8.517.826-6.282 2.1-13.977 2.671-16.13 1.6-6.03 5.028-10.79 13.611-18.9 7.47-7.058 11.069-12.55 11.49-17.53.085-1.004.074-1.825-.024-1.825s-.908.642-1.8 1.427c-.892.786-2.976 2.441-4.63 3.68-4.239 3.172-6.073 4.807-7.328 6.534-.599.824-1.168 1.499-1.264 1.499s-.64-1.396-1.208-3.103c-.814-2.443-1.035-3.464-1.04-4.806-.009-2.012.35-2.812 2.396-5.353 2.657-3.3 4.02-6.97 4.023-10.828.003-4.108-1.802-7.686-7.07-14.02-2.349-2.822-9.15-10.07-9.45-10.07-.098 0-.151 1.615-.117 3.589.14 8.2-1.434 14.461-5.903 23.464-2.853 5.748-3.454 7.133-4.594 10.593-1.2 3.648-1.58 5.657-1.74 9.239l-.143 3.207-1.056 1.036c-.58.57-1.119.974-1.196.897-.338-.339-.638-5.234-.511-8.347.234-5.73 1.587-10.86 4.91-18.615 6.288-14.676 7.92-20.126 7.583-25.332-.14-2.157-.335-2.83-2.489-8.613-1.836-4.93-1.317-9.744 1.534-14.23.723-1.137.81-1.423.594-1.946a213 213 0 0 0-1.24-2.845c-1.662-3.766-2.074-5.73-2.087-9.936-.012-3.902.28-5.545 1.43-8.06C47.384 2.536 50.158 0 51.546 0c.984 0 .836.416-.512 1.433-2.864 2.163-3.89 5.917-2.91 10.66 1.018 4.924 3.042 8.408 9.748 16.778 15.843 19.773 23.81 31.368 30.059 43.743 3.974 7.87 5.576 11.984 7.225 18.554 1.698 6.762 2.241 12.372 1.751 18.09-1.066 12.438-6.05 21.115-14.612 25.431-5.883 2.967-13.603 3.467-20.523 1.33-2.507-.775-2.429-.602-1.844-4.086.58-3.457.998-4.806 1.47-4.754.185.02 1.376.225 2.647.454 5.625 1.015 11.696-.239 16.304-3.367 1.488-1.01 4.202-3.636 5.513-5.331 2.25-2.911 4.043-6.762 5.096-10.944.776-3.081 1.071-9.372.593-12.643-.367-2.51-1.648-6.78-3.09-10.303C83.407 72.701 74.6 59.478 55.56 35.648a205 205 0 0 1-3.502-4.562c-1.07-1.439-2.027-2.616-2.125-2.616-.328 0-1.428 1.88-1.843 3.147-.294.899-.378 1.78-.3 3.133.211 3.641 1.744 5.913 9.428 13.97 4.689 4.915 7.34 8.113 9.679 11.675 4.346 6.62 5.915 13.244 4.438 18.732-.145.539-.217 1.027-.159 1.085.329.328 5.014-3.922 6.425-5.829.479-.647.96-1.079 1.075-.964.295.295 1.823 6.474 2.39 9.667.79 4.44 1.063 7.617.912 10.626-.161 3.232-.608 4.819-2.255 8.002-1.678 3.245-3.904 5.97-10.354 12.67-6.38 6.628-8.629 9.377-9.434 11.53-.803 2.147-1.764 7.487-2.322 12.908-.82 7.963-1.6 13.483-2.19 15.475-.88 2.97-2.433 4.993-4.687 6.102-1.43.705-1.884.804-3.947.866-1.958.059-2.628-.028-4.187-.541"/><path d="M67.031 150.6c-1.842-.911-3.173-2.908-4.575-6.863-.492-1.386-.6-1.97-.404-2.167.42-.42.89.12 1.475 1.697.733 1.978 1.522 3.272 2.24 3.675.531.298.717.3 1.334.005.575-.275.73-.52.791-1.252.143-1.718 1.087-.823 1.846 1.749.534 1.809.499 2.136-.32 2.955-.848.848-1.048.865-2.387.202M32.518 40.682c0 2.65 2.194 4.898 4.897 4.898a4.88 4.88 0 0 0 3.179-1.18l.639-.455-.1 1.695c-.125 2.228-.962 3.93-3.033 6.167-2.239 2.418-4.42 3.985-11.528 8.281-9.713 5.87-13.012 8.18-16.51 11.559-4.494 4.342-7.629 9.604-9.002 15.117-1.876 7.528-1.275 14.766 1.908 23.101.91 2.384.927 2.519 1.065 6.57.365 10.768 3.066 18.176 8.653 23.733 2.838 2.823 5.434 4.167 8.821 4.586.847.104 2.084.147 2.753.09 8.113-.684 11.66-7.397 13.399-25.367.226-2.342.534-4.606.684-5.034.185-.524 1.787-2.156 4.927-5.026 4.943-4.516 5.931-5.8 5.932-7.688 0-1.166-.994-8.124-1.194-8.35-.088-.098-.65.495-1.247 1.316-.999 1.372-4.184 4.468-8.35 8.114-2.73 2.39-3.24 3.646-4.167 10.235-1.614 11.484-3.663 17.538-7.102 20.98-3.177 3.18-8.346 3.983-12.41 1.924-4.13-2.093-7.188-8.368-7.559-15.497l-.144-2.799 1.878 1.757c2.5 2.335 4.533 3.353 6.707 3.353 2.049 0 2.723-.199 3.787-1.133 1.565-1.374 2.304-3.575 2.304-6.874 0-6.59-3.537-14.492-7.399-16.516-1.558-.817-3.634-.738-5.125.19-1.44.896-2.86 2.862-3.597 4.988-.302.872-.657 1.638-.79 1.703-.45.22-.875-2.77-.883-6.205-.006-2.524.126-4.048.502-5.885 1.406-6.868 4.122-11.764 9.49-17.117 3.631-3.622 7.38-6.475 15.779-12.007 6.493-4.277 9.267-6.587 10.805-8.988.679-1.06.817-1.171.882-.715.232 1.624-1.729 6.654-6.235 15.999-3.693 7.657-4.85 10.332-6.707 15.467-2.343 6.478-3.796 12.258-4.646 18.478-.544 3.982-.737 12.192-.403 17.421.297 4.656 1.327 11.95 1.741 12.365.167.166.508-.023 1.065-.593l.829-.844-.441-2.677c-1.63-9.869-1.012-20.405 1.832-31.215C30.415 90.959 32.828 84.865 38.556 73c5.046-10.452 5.951-13.986 5.71-22.386-.199-6.969-1.123-11.037-2.98-13.102-1.015-1.129-2.09-1.719-3.506-1.719-3.443 0-5.262 2.236-5.262 4.89m-18.22 65.686q.707.019 1.346.35c.88.454 2.17 2.388 2.168 3.254-.002.342-.328 1.183-.723 1.87-.56.977-.997 1.39-1.992 1.886a6.3 6.3 0 0 1-5.437.069c-1.864-.87-1.928-1.03-1.103-2.776 1.373-2.903 3.701-4.71 5.741-4.653"/><path d="M49.18 128.086c-3.09-2.965-6.169-7.301-8.401-11.831l-.929-1.884 1.077-1.097c.592-.603 1.2-1.097 1.35-1.097s.702.63 1.226 1.4c1.172 1.722 5.226 5.945 7.471 7.782 1.48 1.21 1.648 1.433 1.501 1.992-.09.345-.421 1.873-.734 3.394s-.625 2.823-.694 2.891-.909-.629-1.868-1.55M16.256 90.06c-.882-.92-1.122-2.09-.859-4.188.152-1.203.48-2.216 1.108-3.409 1.605-3.055 6.66-7.497 6.66-5.853 0 .096-1.027 1.23-2.283 2.522-3.393 3.488-4.505 6.047-3.296 7.584.845 1.074 2.416.765 2.416-.476 0-.688.807-1.69 1.177-1.462.378.233.356 1.04-.064 2.438-.936 3.108-3.288 4.485-4.859 2.845m33.689-3.373c-.619-2.226-.43-2.531 5.555-8.985 2.46-2.654 4.785-5.249 5.166-5.768.744-1.01.778-.99 1.152.739.168.776.127 1.213-.176 1.88-.217.477-2.42 3.076-4.897 5.775-2.476 2.698-4.885 5.432-5.353 6.075-.469.643-.929 1.176-1.023 1.183s-.285-.397-.424-.9M35.96 49.02a4.897 4.897 0 1 1-9.793 0 4.897 4.897 0 1 1 9.794 0m19.246 49.959 6.28 3.037-3.51 7.261-6.282-3.037zM75.8 112.152l6.282 3.037-3.511 7.261-6.282-3.037zm-32.37 16.495 5.401 4.417-5.167 6.319-5.401-4.417zm-1.226 10.996 5.401 4.417-5.167 6.32-5.401-4.418z"/></g><path fill="#00529c" d="m124.366 84.141-15.951 45.498h11.78l2.766-8.148h15.217l2.291 8.148h12.45l-15.67-45.498zm6.247 13.315 4.301 13.487h-8.624zm101.943-13.315-15.951 45.498h11.78l2.766-8.148h15.217l2.29 8.148h12.45l-15.67-45.498zm6.247 13.315 4.301 13.487h-8.624zm209.749-13.315L432.6 129.64h11.78l2.767-8.148h15.216l2.291 8.148h12.45l-15.67-45.498zm6.246 13.315 4.302 13.487h-8.625zm-293.907 32.077h25.882v-9.57H172.2V84.186H161zM311.94 84.186v45.673h30.557v-9.352H323.03v-8.59h15.225v-9.244H323.14v-8.917h17.943v-9.57zm40.67 0v45.673h30.558v-9.352h-19.466v-8.59h15.225v-9.244H363.81v-8.917h17.943v-9.57zm-82.864 0v9.57h16.204l-16.857 24.576v11.527h32.298v-9.896h-16.964l16.529-24.25V84.186zm-72.018-.111h11.5v46.766s.75 7.208-4.195 12.617c-6.867 7.513-19.112 1.183-19.112 1.183l2.607-9.507s1.533 1.074 3.68 1.074c2.86 0 5.673-3.136 5.673-6.747zm195.563.11v45.454h11.412v-16.967c2.677 0 4.573-.3 5.75 1.103 1.387 1.653 6.851 15.843 6.851 15.843l11.759.021-7.068-18.048s-1.497-3.674-3.134-3.674c1.75-1.21 3.89-2.961 3.89-2.961s3.156-1.928 3.156-8.235-4.072-12.536-11.088-12.536zm11.348 9.704h5.511c2.057 0 4.15 2.151 4.15 4.518s-1.968 4.452-4.063 4.452h-5.598z"/></svg>