<svg xmlns="http://www.w3.org/2000/svg" width="18" height="18" viewBox="0 0 18 18"><path fill="currentColor" d="m10.15 2.978-1.267-.93-1.246.92-5.905 4.209 2.298 6.948.481 1.471h1.894v-1.47l-.832-.001L3.53 7.77l5.353-3.862 5.395 3.872-.357 1.109h1.547v.056l.567-1.717v-.051z"/><circle cx="4.868" cy="15.054" r="2.524" fill="currentColor"/><circle cx="15.32" cy="7.494" r="2.524" fill="currentColor"/><circle cx="2.68" cy="7.494" r="2.524" fill="currentColor"/><circle cx="8.883" cy="2.891" r="2.524" fill="currentColor"/><path fill="currentColor" d="m13.211 16.532.583-.244 1.012.466.606-.606-.059-.118-.421-.8.17-.606.968-.4v-.864l-.045-.037-.9-.31-.229-.591.458-.887.044-.1-.273-.295-.325-.34-.118.059-.865.443-.591-.17-.376-.96h-.857l-.045.044-.295.879-.606.229-1-.473-.606.606.059.118.451.857-.244.591-1.04.377v.864l.126.037.916.3.244.628-.473 1 .606.613.118-.051.864-.443.591.243.377 1.042h.872m-.466-2.608a1.212 1.212 0 1 1 1.205-1.219 1.22 1.22 0 0 1-1.205 1.219"/></svg>