<svg height="48" viewBox="0 0 48 48" width="48" xmlns="http://www.w3.org/2000/svg"><path d="m22.734 38.089h14.859v-2h-14.859zm0-12.237h14.859v-2h-14.859zm0-12.237h14.859v-2h-14.859zm-8.616 24.223h4.119v-4.119h-4.119zm-1 2h6.12a1 1 0 0 0 1-1v-6.119a1 1 0 0 0 -1-1h-6.12a1 1 0 0 0 -1 1v6.119a1 1 0 0 0 1 1m1-14.238h4.119v-4.119h-4.119zm-1 2.001h6.12a1 1 0 0 0 1-1v-6.12a1 1 0 0 0 -1-1h-6.12a1 1 0 0 0 -1 1v6.12a1 1 0 0 0 1 1m1-14.238h4.119v-4.119h-4.119zm-1 2h6.12a1 1 0 0 0 1-1v-6.119a1 1 0 0 0 -1-1h-6.12a1 1 0 0 0 -1 1v6.119a1 1 0 0 0 1 1m-5.118 28.593h32.963v-39.956h-32.963zm33.963-41.956h-34.963a1 1 0 0 0 -1 1v41.956a1 1 0 0 0 1 1h34.963a1 1 0 0 0 1-1v-41.956a1 1 0 0 0 -1-1" fill="#e7157b" fill-rule="evenodd"/></svg>