<svg height="64" viewBox="0 0 64 64" width="64" xmlns="http://www.w3.org/2000/svg"><g fill="none" fill-rule="evenodd"><path d="m0 0h64v64h-64z" fill="#8c4fff"/><path d="m32.01 46c-10.866 0-10.991-10.442-10.991-10.887v-12.893l10.991-4.151 10.99 4.151v12.893c0 2.554-.793 10.887-10.99 10.887m-20.01-29h5v-5h-5zm35 0h5v-5h-5zm0 35h5v-5h-5zm-35 0h5v-5h-5zm41-33a1 1 0 0 0 1-1v-7a1 1 0 0 0 -1-1h-7a1 1 0 0 0 -1 1v6.586l-2.36 2.36-10.276-3.882a1.01 1.01 0 0 0 -.708 0l-10.291 3.887-2.365-2.365v-6.586a1 1 0 0 0 -1-1h-7a1 1 0 0 0 -1 1v7a1 1 0 0 0 1 1h6.586l1.78 1.779a1 1 0 0 0 -.347.749v13.585c0 1.847.478 4.371 1.755 6.7l-3.188 3.187h-6.586a1 1 0 0 0 -1 1v7a1 1 0 0 0 1 1h7a1 1 0 0 0 1-1v-6.586l2.898-2.898c1.983 2.524 5.165 4.484 10.112 4.484 5.25 0 8.379-1.937 10.247-4.329l2.743 2.743v6.586a1 1 0 0 0 1 1h7a1 1 0 0 0 1-1v-7a1 1 0 0 0 -1-1h-6.586l-3.049-3.049c1.49-2.835 1.635-5.812 1.635-6.838v-13.585a1 1 0 0 0 -.356-.758l1.77-1.77zm-14 16.113c0 4.284-1.98 6.507-5.99 6.823v-19.214l5.99 2.263zm-13.981 0v-10.128l5.991-2.263v19.226c-5.533-.518-5.991-5.307-5.991-6.835m15.335-11.755-7.99-3.018a1 1 0 0 0 -.708 0l-7.991 3.018a1 1 0 0 0 -.646.935v10.82c0 4.1 2.354 8.887 8.991 8.887 5.798 0 8.99-3.156 8.99-8.887v-10.82a1 1 0 0 0 -.646-.935" fill="#fff"/></g></svg>