<svg fill="none" viewBox="0 0 32 32" xmlns="http://www.w3.org/2000/svg" xmlns:xlink="http://www.w3.org/1999/xlink"><clipPath id="a"><path d="m0 0h32v31.2h-32z"/></clipPath><g clip-path="url(#a)"><path d="m32 0h-32v31.2h32z" fill="#061e26"/><g clip-rule="evenodd" fill-rule="evenodd"><path d="m14.563 18.238 1.574 2.912a4.47 4.47 0 0 0 2.713-2.562l.137-.35zm.212-2.963-1.463-2.662c-1.212.412-2.2 1.45-2.674 2.637l.037.025zm-1.463 2.263-1.487 2.6c.775.674 1.763 1.137 2.863 1.137.224 0 .524-.037.737-.062l.025-.038zm2.813-1.425 1.488-2.575a4.4 4.4 0 0 0 -2.888-1.088c-.225 0-.425.025-.637.05l-.025.05zm-2.725-.125h-3c-.05.274-.088.537-.088.837 0 1.025.363 1.975.95 2.725l.063.037zm2.6 1.562h3.038c.05-.275.062-.475.062-.775a4.17 4.17 0 0 0 -.963-2.675l-.062-.05z" fill="#26c9ff"/><path d="m12.175 6.35c-.363 0-.713.188-.875.488l-7.263 12.237a.87.87 0 0 0 -.087.725c.062.25.225.45.45.587l12.45 6.95c.15.076.325.125.475.125.363 0 .688-.187.875-.487l7.262-12.237a.95.95 0 0 0 .113-.738.96.96 0 0 0 -.45-.588l-12.462-6.937a.95.95 0 0 0 -.488-.125m5.15 21.638c-.262 0-.525-.063-.75-.188l-12.45-6.95c-.363-.2-.6-.525-.713-.913a1.4 1.4 0 0 1 .163-1.137l7.263-12.237c.275-.463.787-.75 1.337-.75.262 0 .525.062.75.187l12.45 6.95c.363.2.6.525.712.913.113.387.05.787-.162 1.137l-7.25 12.238a1.64 1.64 0 0 1 -1.35.75" fill="#d9f5ff"/></g></g></svg>