<svg viewBox="0 0 24 24" xmlns="http://www.w3.org/2000/svg"><path d="m5.31 15.756c.172-3.75 1.883-5.999 2.549-6.739-3.26 2.058-5.425 5.658-6.358 8.308v1.12c-0 3.068 2.725 5.555 6.089 5.555a6.6 6.6 0 0 0 2.2-.375q.53-.181 1.039-.378a12.8 12.8 0 0 0 2.243-2.992c-4.877 2.431-7.974.072-7.763-4.5z" fill="#1e37fc"/><path d="m22.57 10.283c-1.212-.901-4.109-2.404-7.397-2.8.295 3.792.093 8.766-2.1 12.773a12.8 12.8 0 0 1 -2.244 2.992c3.764-1.448 6.746-3.457 8.596-5.219 2.82-2.683 3.353-5.178 3.361-6.66a2.7 2.7 0 0 0 -.216-1.084z" fill="#37e1be"/><path d="m14.303 1.867c-1.348-1.167-3.055-1.867-4.913-1.867s-3.507.677-4.845 1.807c-1.754 1.483-2.918 3.75-3.045 6.318v9.201c.932-2.65 3.097-6.25 6.357-8.307q.751-.477 1.569-.829c1.883-.801 3.878-.932 5.746-.706-.222-2.83-.718-5.002-.87-5.617z" fill="#a569ff"/><path d="m17.305 4.961a200 200 0 0 1 -1.08-1.094q-.303-.319-.586-.622l-1.333-1.378c.151.615.648 2.786.869 5.617 3.288.395 6.185 1.898 7.396 2.8-1.306-1.275-3.475-3.487-5.266-5.323" fill="#1e37fc"/></svg>