<svg viewBox="0 0 24 24" xmlns="http://www.w3.org/2000/svg" fill="#FF4000"><path d="m7.157 2.207c.066 2.004 1.454 3.117 4.221 3.55 2.345.368 4.46.181 5.151-1.829 1.345-3.918-1.848-2.943-4.614-3.378s-4.864-1.563-4.758 1.657m.831 8.23c.257 1.497 1.652 2.355 3.786 2.297 2.135-.059 3.728-.892 3.949-2.507.409-2.988-1.946-1.832-4.08-1.774-2.136.059-4.161-.952-3.655 1.984m2.778 6.852c.424 1.117 1.587 1.589 3.159 1.253 1.569-.335 2.656-.856 2.568-2.129-.159-2.357-1.713-1.616-3.283-1.279-1.571.333-3.272-.039-2.444 2.155m1.348 5.221c.123.943.939 1.5 2.215 1.49 1.279-.011 2.248-.515 2.412-1.525.308-1.871-1.123-1.175-2.4-1.165-1.28.01-2.47-.65-2.227 1.2"/></svg>