<svg xmlns="http://www.w3.org/2000/svg" xmlns:xlink="http://www.w3.org/1999/xlink" width="18" height="18" viewBox="0 0 18 18">
  <defs>
    <mask id="wko">
      <rect width="18" height="18" fill="white"/>
      <path fill="black" d="M9 9.17a4.6 4.6 0 0 1-2.48-.73L9 14.86l2.44-6.38A4.53 4.53 0 0 1 9 9.17" opacity=".8"/>
    </mask>
  </defs>
  <g fill="currentColor" mask="url(#wko)">
    <path fill="currentColor" d="M15.72 18a1.45 1.45 0 0 0 1.45-1.45.5.5 0 0 0 0-.17C16.59 11.81 14 8.09 9 8.09s-7.66 3.15-8.17 8.3A1.46 1.46 0 0 0 2.14 18z"/>
  </g>
  <circle cx="9.01" cy="4.58" r="4.58" fill="currentColor"/>
</svg>