<svg height="18" viewBox="0 0 18 18" width="18" xmlns="http://www.w3.org/2000/svg" xmlns:xlink="http://www.w3.org/1999/xlink"><linearGradient id="a"><stop offset=".22" stop-color="#32d4f5"/><stop offset="1" stop-color="#198ab3"/></linearGradient><linearGradient id="b" gradientUnits="userSpaceOnUse" x1="9" x2="9" xlink:href="#a" y1="6.88" y2="20.45"/><linearGradient id="c" gradientUnits="userSpaceOnUse" x1="8.61" x2="9.6" xlink:href="#a" y1="-.4" y2="11.92"/><path d="m15.72 18a1.45 1.45 0 0 0 1.45-1.45.5.5 0 0 0 0-.17c-.58-4.57-3.17-8.29-8.17-8.29s-7.66 3.15-8.17 8.3a1.46 1.46 0 0 0 1.31 1.61z" fill="url(#b)"/><path d="m9 9.17a4.6 4.6 0 0 1 -2.48-.73l2.48 6.42 2.44-6.38a4.53 4.53 0 0 1 -2.44.69" fill="#fff" opacity=".8"/><circle cx="9.01" cy="4.58" fill="url(#c)" r="4.58"/></svg>