<svg xmlns="http://www.w3.org/2000/svg" width="320" height="88.742" viewBox="0 0 300 83.196"><path fill="currentColor" d="M76.808.015C71.8 0 68.699.012 63.739.012h-.147a5.37 5.37 0 0 0-4.978 3.484 1.3 1.3 0 0 0-.183.368c-4.989 14.204-9.336 26.409-14.32 40.625-1.31 3.747-2.61 7.48-3.944 11.227-.107.295-.384.673-.672.758-.576.163-.589-.449-.712-.8-3.11-8.861-6.21-17.721-9.317-26.571-3.193-9.094-5.836-16.647-9.035-25.748a1 1 0 0 0-.151-.303 5.41 5.41 0 0 0-4.862-3.04c-.058 0-.119 0-.162.003C10.209 0 7.25-.008 2.136.015.445.024-.385 1.262.174 2.845 7.87 24.298 15.545 45.745 23.23 67.17c.582 1.609 1.085 3.043 1.584 4.43 2.928 6.78 7.383 10.328 15.246 10.783 2.316 0 1.79.004 1.79.004 2.568-.086 5.453-.477 8.735-1.135l5.454-15.546c7.6-20.997 15.002-41.444 22.705-62.75.087-.245.18-.483.224-.735.173-1.263-.732-2.204-2.16-2.204m73.696 5.616v-.156a5.396 5.396 0 0 0-4.988-5.39c-.144-.05-13.717 0-13.717 0s.006 2.929.006 7.625c0 14.235.01 26.829-.02 41.278 0 1.424-.104 2.906-.456 4.287-1.291 5.316-4.517 8.995-9.776 10.59-5.285 1.608-10.22.7-14.389-3.108-3.125-2.857-4.646-6.533-4.647-10.732-.028-9.844-.035-30.791-.035-42.168V.087s-13.643-.05-13.786 0a5.396 5.396 0 0 0-4.986 5.39c0 .048.013.098.013.156v2.55c0 14.782-.027 27.405.03 42.484.015 2.354.272 4.742.807 7.03 3.933 16.96 20.67 28.18 38.587 24.945 8.388-1.526 15.28-5.695 20.561-12.423 4.362-5.55 6.713-11.893 6.765-18.962.065-7.902.015-15.784.015-23.665V5.633zm148.846 0c.014-.058.014-.108.014-.156a5.396 5.396 0 0 0-4.98-5.39c-.158-.05-13.737 0-13.737 0s.014 2.929.014 7.625c0 14.235.015 26.829-.016 41.278 0 1.424-.122 2.906-.454 4.287-1.294 5.316-4.528 8.995-9.772 10.59-5.295 1.608-10.237.7-14.388-3.108-3.127-2.857-4.64-6.533-4.65-10.732-.028-9.844-.028-30.791-.028-42.168V.087s-13.642-.05-13.788 0a5.4 5.4 0 0 0-4.983 5.39v2.706c0 14.782-.026 27.405.049 42.484 0 2.354.264 4.742.79 7.03 3.935 16.96 20.676 28.18 38.585 24.945 8.394-1.526 15.279-5.695 20.555-12.423 4.355-5.55 6.716-11.893 6.778-18.962.044-7.902 0-15.784 0-23.665V5.633zm-95.999 51.545c-3.765 4.478-8.617 7.005-14.432 7.657-1.117.125-2.246.153-3.376.158-3.216.034-6.45.022-9.674.022-1.177 0-1.193 0-1.193-1.154V18.41c0-1.068.014-1.08 1.068-1.08 3.938.033 7.873-.072 11.813.134 7.334.378 13.13 3.697 17.316 9.722 2.558 3.696 3.838 7.873 4.083 12.366.357 6.595-1.327 12.55-5.605 17.625m5.509-50.743C202.848 2.632 196.24.596 189.127.35c-3.28-.107-6.555-.107-9.817-.107-6.704-.015-10.562-.003-17.247 0L161.94.24a5.41 5.41 0 0 0-5.405 5.41v71.176a5.41 5.41 0 0 0 5.405 5.412c9.693-.03 16.35 0 26.042-.038a37.5 37.5 0 0 0 5.901-.512c7.914-1.312 14.953-4.567 20.827-10.035 11.057-10.297 15.51-23.054 12.898-37.922-2.07-11.819-8.613-20.884-18.746-27.294m87.25 69.669h-1.342v1.792h1.342c.427 0 .88-.371.88-.87 0-.53-.453-.922-.88-.922m.8 4.302-1.263-1.919h-.879v1.92h-.648v-4.866h1.99c.82 0 1.538.581 1.538 1.486 0 1.078-.964 1.447-1.234 1.447l1.29 1.932zm-1.156-6.099a3.636 3.636 0 0 0-3.668 3.65 3.663 3.663 0 0 0 7.324 0 3.63 3.63 0 0 0-3.656-3.65m0 7.898a4.25 4.25 0 0 1-4.248-4.249 4.227 4.227 0 0 1 4.248-4.233 4.22 4.22 0 0 1 4.246 4.233 4.24 4.24 0 0 1-4.246 4.25"/></svg>