<svg xmlns="http://www.w3.org/2000/svg" id="svg4390" width="320" height="88.742" viewBox="0 0 300 83.196"><g id="layer1" transform="translate(-1672.857 -305.05)"><g id="g4369" transform="translate(376.16 -595.325)scale(1.44278)"><path id="path4166" d="M951.985 624.066c-3.47-.01-5.62-.002-9.058-.002h-.102a3.72 3.72 0 0 0-3.45 2.415.9.9 0 0 0-.127.255c-3.458 9.845-6.471 18.304-9.925 28.157-.908 2.597-1.809 5.185-2.734 7.782-.074.204-.266.466-.466.525-.399.113-.408-.311-.493-.554-2.156-6.142-4.305-12.283-6.458-18.417-2.213-6.303-4.045-11.538-6.262-17.846a.7.7 0 0 0-.105-.21 3.75 3.75 0 0 0-3.37-2.107c-.04 0-.082 0-.112.002-3.498-.01-5.549-.016-9.094 0-1.171.006-1.746.864-1.359 1.962 5.334 14.868 10.653 29.733 15.98 44.583.403 1.115.752 2.109 1.098 3.07 2.029 4.699 5.117 7.159 10.567 7.474 1.605 0 1.24.003 1.24.003 1.78-.06 3.78-.331 6.055-.787l3.78-10.775c5.267-14.553 10.398-28.725 15.737-43.492.06-.17.125-.335.155-.51.12-.875-.507-1.527-1.497-1.527" fill="#2d6dbe" fill-opacity="1" fill-rule="nonzero" stroke="none"/><path id="path4170" d="M1003.064 627.96v-.108a3.74 3.74 0 0 0-3.457-3.736c-.1-.035-9.507 0-9.507 0s.004 2.03.004 5.285c0 9.866.007 18.595-.014 28.61 0 .987-.072 2.014-.316 2.971-.895 3.685-3.131 6.235-6.776 7.34-3.663 1.115-7.084.485-9.973-2.154-2.166-1.98-3.22-4.528-3.221-7.438-.019-6.823-.024-21.342-.024-29.227v-5.387s-9.456-.035-9.555 0a3.74 3.74 0 0 0-3.456 3.736c0 .033.009.068.009.108v1.767c0 10.246-.019 18.995.021 29.446.01 1.632.188 3.287.559 4.873 2.726 11.755 14.326 19.531 26.745 17.289 5.814-1.057 10.59-3.947 14.251-8.61 3.023-3.847 4.653-8.243 4.689-13.143.045-5.477.01-10.94.01-16.402v-15.22z" fill="#2d6dbe" fill-opacity="1" fill-rule="nonzero" stroke="none"/><path id="path4174" d="M1106.23 627.96c.01-.04.01-.075.01-.108a3.74 3.74 0 0 0-3.452-3.736c-.109-.035-9.521 0-9.521 0s.01 2.03.01 5.285c0 9.866.01 18.595-.011 28.61 0 .987-.085 2.014-.315 2.971-.897 3.685-3.138 6.235-6.773 7.34-3.67 1.115-7.095.485-9.972-2.154-2.168-1.98-3.217-4.528-3.223-7.438-.02-6.823-.02-21.342-.02-29.227v-5.387s-9.455-.035-9.556 0a3.743 3.743 0 0 0-3.454 3.736v1.875c0 10.246-.018 18.995.034 29.446 0 1.632.183 3.287.548 4.873 2.727 11.755 14.33 19.531 26.743 17.289 5.818-1.057 10.59-3.947 14.247-8.61 3.018-3.847 4.655-8.243 4.698-13.143.03-5.477 0-10.94 0-16.402v-15.22z" fill="#2d6dbe" fill-opacity="1" fill-rule="nonzero" stroke="none"/><path id="path4186" d="M1039.693 663.686c-2.61 3.104-5.973 4.855-10.003 5.307-.774.087-1.557.106-2.34.11-2.229.023-4.471.015-6.705.015-.816 0-.827 0-.827-.8v-31.502c0-.74.01-.748.74-.748 2.73.023 5.457-.05 8.188.093 5.083.262 9.1 2.562 12.002 6.738 1.773 2.562 2.66 5.457 2.83 8.571.247 4.571-.92 8.699-3.885 12.216m3.818-35.17c-4.167-2.636-8.747-4.047-13.677-4.218-2.273-.074-4.543-.074-6.804-.074-4.647-.01-7.321-.002-11.954 0l-.086-.002a3.75 3.75 0 0 0-3.746 3.75v49.332a3.75 3.75 0 0 0 3.746 3.751c6.718-.02 11.332 0 18.05-.026a26 26 0 0 0 4.09-.355c5.485-.909 10.364-3.165 14.435-6.955 7.664-7.137 10.75-15.979 8.94-26.284-1.435-8.192-5.97-14.475-12.993-18.918" fill="#2d6dbe" fill-opacity="1" fill-rule="nonzero" stroke="none"/><path id="path4190" d="M1103.986 676.805h-.93v1.242h.93c.296 0 .61-.257.61-.603 0-.367-.314-.639-.61-.639m.555 2.982-.876-1.33h-.609v1.33h-.449v-3.372h1.379c.569 0 1.066.403 1.066 1.03 0 .747-.668 1.003-.855 1.003l.894 1.339zm-.802-4.227a2.52 2.52 0 0 0-2.542 2.53 2.539 2.539 0 0 0 5.076 0 2.517 2.517 0 0 0-2.534-2.53m0 5.474a2.946 2.946 0 0 1-2.944-2.945 2.93 2.93 0 0 1 2.944-2.934 2.924 2.924 0 0 1 2.943 2.934 2.94 2.94 0 0 1-2.943 2.945" fill="#2d6dbe" fill-opacity="1" fill-rule="nonzero" stroke="none"/></g></g></svg>