<svg xmlns="http://www.w3.org/2000/svg" width="18" height="18" viewBox="0 0 18 18"><defs><mask id="a"><path fill="#fff" d="M0 0h18v18H0z"/><path d="M1.604.125C.787.125.125.787.125 1.604v14.792c0 .817.662 1.479 1.479 1.479h10.513c.817 0 1.479-.662 1.479-1.479v-8.77c0-.817-.662-1.479-1.479-1.479h-1.532V1.604c0-.817-.662-1.479-1.479-1.479z"/><path d="M9.109 16.851h3.008a.455.455 0 0 0 .455-.455v-8.77a.455.455 0 0 0-.455-.455h-1.532a1.024 1.024 0 0 1-1.024-1.024V1.604a.455.455 0 0 0-.455-.455H1.604a.455.455 0 0 0-.455.455v14.792c0 .251.204.455.455.455zm.007 1.024h3c.817 0 1.479-.662 1.479-1.479v-8.77c0-.817-.662-1.479-1.479-1.479h-1.532V1.604c0-.817-.662-1.479-1.479-1.479H1.604C.787.125.125.787.125 1.604v14.792c0 .817.662 1.479 1.479 1.479z"/><path d="M3.612 2.344a1.109 1.109 0 1 0 0 2.218 1.109 1.109 0 0 0 0-2.218m3.486 0a1.109 1.109 0 1 0 0 2.218 1.109 1.109 0 0 0 0-2.218m0 3.486a1.109 1.109 0 1 0 0 2.218 1.109 1.109 0 0 0 0-2.218m0 3.487a1.109 1.109 0 1 0 0 2.218 1.109 1.109 0 0 0 0-2.218m3.487 0a1.109 1.109 0 1 0 0 2.218 1.109 1.109 0 0 0 0-2.218M3.612 5.83a1.109 1.109 0 1 0 0 2.218 1.109 1.109 0 0 0 0-2.218m0 3.487a1.109 1.109 0 1 0 0 2.218 1.109 1.109 0 0 0 0-2.218"/><path d="M7.732 17.87a2.536 2.536 0 0 1 .083-5.066 3.805 3.805 0 0 1 7.442.001l.082-.001a2.536 2.536 0 0 1 0 5.072H7.732v-.005z"/></mask></defs><path fill="currentColor" d="M4.246 14.336a.74.74 0 0 1 .74-.74h3.592a.74.74 0 0 1 .74.74v3.539H4.247z" mask="url(#a)"/></svg>