<svg height="18" viewBox="0 0 18 18" width="18" xmlns="http://www.w3.org/2000/svg" xmlns:xlink="http://www.w3.org/1999/xlink"><linearGradient id="a" gradientTransform="matrix(1 0 0 -1 0 20)" gradientUnits="userSpaceOnUse" x1="11.079" x2="2.392" y1="17.397" y2="4.224"><stop offset="0" stop-color="#0fafff"/><stop offset="1" stop-color="#2764e7"/></linearGradient><linearGradient id="b" gradientTransform="matrix(1 0 0 -1 0 20)" gradientUnits="userSpaceOnUse" x1="11.079" x2="2.392" y1="17.397" y2="4.224"><stop offset="0" stop-color="#0094f0"/><stop offset="1" stop-color="#2052cb"/></linearGradient><linearGradient id="c" gradientUnits="userSpaceOnUse" x1="7.926" x2="6.275" y1=".897" y2="12.951"><stop offset="0" stop-color="#d8f7ff"/><stop offset="1" stop-color="#8cd0ff"/></linearGradient><linearGradient id="d" gradientTransform="matrix(1 0 0 -1 0 20)" gradientUnits="userSpaceOnUse" x1="11.615" x2="11.615" y1="8.885" y2="-.136"><stop offset="0" stop-color="#d8f7ff"/><stop offset="1" stop-color="#83b9f9"/></linearGradient><path d="m1.604.125c-.817 0-1.479.662-1.479 1.479v14.792c0 .817.662 1.479 1.479 1.479h10.513c.817 0 1.479-.662 1.479-1.479v-8.77c0-.817-.662-1.479-1.479-1.479h-1.532v-4.543c0-.817-.662-1.479-1.479-1.479z" fill="url(#a)"/><path d="m9.109 16.851h3.008a.455.455 0 0 0 .455-.455v-8.77a.455.455 0 0 0 -.455-.455h-1.532a1.024 1.024 0 0 1 -1.024-1.024v-4.543a.455.455 0 0 0 -.455-.455h-7.502a.455.455 0 0 0 -.455.455v14.792c0 .251.204.455.455.455zm.007 1.024h3c.817 0 1.479-.662 1.479-1.479v-8.77c0-.817-.662-1.479-1.479-1.479h-1.532v-4.543c0-.817-.662-1.479-1.479-1.479h-7.501c-.817 0-1.479.662-1.479 1.479v14.792c0 .817.662 1.479 1.479 1.479z" fill="url(#b)" fill-rule="evenodd"/><path d="m4.246 14.336a.74.74 0 0 1 .74-.74h3.592a.74.74 0 0 1 .74.74v3.539h-5.071v-3.539z" fill="#fff"/><path d="m3.612 2.344a1.109 1.109 0 1 0 0 2.218 1.109 1.109 0 0 0 0-2.218m3.486 0a1.109 1.109 0 1 0 0 2.218 1.109 1.109 0 0 0 0-2.218m0 3.486a1.109 1.109 0 1 0 0 2.218 1.109 1.109 0 0 0 0-2.218m0 3.487a1.109 1.109 0 1 0 0 2.218 1.109 1.109 0 0 0 0-2.218m3.487 0a1.109 1.109 0 1 0 0 2.218 1.109 1.109 0 0 0 0-2.218m-6.973-3.487a1.109 1.109 0 1 0 0 2.218 1.109 1.109 0 0 0 0-2.218m0 3.487a1.109 1.109 0 1 0 0 2.218 1.109 1.109 0 0 0 0-2.218" fill="url(#c)"/><path d="m7.732 17.87a2.536 2.536 0 0 1 .083-5.066 3.805 3.805 0 0 1 7.442.001l.082-.001a2.536 2.536 0 0 1 0 5.072h-7.607v-.005z" fill="url(#d)"/></svg>