<svg xmlns="http://www.w3.org/2000/svg" width="18" height="13.989" viewBox="0 0 18 13.989"><path fill="currentColor" d="M5.785 11.074s-1.66-.57.253-2.059a12 12 0 0 1 5.789-1.994l1.765-3.454a17.1 17.1 0 0 0-7.607.646C2.091 5.568-1.8 9.813.9 12.023a4.39 4.39 0 0 0 4.885-.949"/><g fill="currentColor"><path d="M8.4 7.785V5.379a.475.475 0 0 1 .475-.475h.316a.862.862 0 1 0 0-.372H8.87a.85.85 0 0 0-.847.847v1.509h-.6a.862.862 0 1 0 0 .372h.6v.661q.182-.07.377-.136m1.632-3.558a.491.491 0 1 1-.49.491.49.49 0 0 1 .485-.491zm-3.45 3.337a.491.491 0 1 1 .491-.49.49.49 0 0 1-.491.49"/><path d="M3.324 8.195H.694q-.12.186-.219.372h2.849a.85.85 0 0 0 .847-.847v-.207a.863.863 0 1 0-.372 0v.206a.475.475 0 0 1-.475.476m.17-1.522a.491.491 0 1 1 .491.491.49.49 0 0 1-.491-.492z"/><path d="M5.119 10.256h-.812a.863.863 0 1 0 0 .372h.9a.64.64 0 0 1-.088-.372m-1.654.677a.491.491 0 1 1 .491-.491.49.49 0 0 1-.491.491"/></g><path fill="currentColor" d="M.9 12.023c6.267 3.81 12.347 2.564 16.991-8.016A1.3 1.3 0 0 0 18 3.475V.331A.33.33 0 0 0 17.67 0h-3.013a.71.71 0 0 0-.621.435C10.906 9.278 3.388 13.122.9 12.023"/></svg>