<svg height="13.989" viewBox="0 0 18 13.989" width="18" xmlns="http://www.w3.org/2000/svg" xmlns:xlink="http://www.w3.org/1999/xlink"><radialGradient id="a" cx="3.123" cy="4.657" gradientTransform="matrix(.50256734 .86453806 -1.21813413 .70811739 7.223203 -1.339929)" gradientUnits="userSpaceOnUse" r="9.718"><stop offset="0" stop-color="#9cebff"/><stop offset=".667" stop-color="#50e6ff"/><stop offset="1" stop-color="#32bedd"/></radialGradient><radialGradient id="b" cx="1.882" cy="4.104" gradientUnits="userSpaceOnUse" r="18.407"><stop offset="0" stop-color="#e7f9ff"/><stop offset=".277" stop-color="#c3f1ff"/><stop offset=".408" stop-color="#c1f1ff"/><stop offset="1" stop-color="#9cebff"/></radialGradient><linearGradient id="c" gradientUnits="userSpaceOnUse" x1="15.15" x2="3.77" y1="4.602" y2="17.361"><stop offset="0" stop-color="#0078d4"/><stop offset=".712" stop-color="#005ba1"/><stop offset="1" stop-color="#003067"/></linearGradient><path d="m5.785 13.079s-1.66-.57.253-2.059a12 12 0 0 1 5.789-1.994l1.765-3.454a17.1 17.1 0 0 0 -7.607.646c-3.894 1.355-7.785 5.6-5.085 7.81a4.39 4.39 0 0 0 4.885-.949" fill="url(#a)" transform="translate(0 -2.005)"/><g fill="url(#b)"><path d="m8.4 9.79v-2.406a.475.475 0 0 1 .475-.475h.316a.862.862 0 1 0 0-.372h-.321a.85.85 0 0 0 -.847.847v1.509h-.6a.862.862 0 1 0 0 .372h.6v.661q.182-.07.377-.136m1.632-3.558a.491.491 0 1 1 -.49.491.49.49 0 0 1 .485-.491zm-3.45 3.337a.491.491 0 1 1 .491-.49.49.49 0 0 1 -.491.49" transform="translate(0 -2.005)"/><path d="m3.324 10.2h-2.63q-.12.186-.219.372h2.849a.85.85 0 0 0 .847-.847v-.207a.863.863 0 1 0 -.372 0v.206a.475.475 0 0 1 -.475.476m.17-1.522a.491.491 0 1 1 .491.491.49.49 0 0 1 -.491-.492z" transform="translate(0 -2.005)"/><path d="m5.119 12.261h-.812a.863.863 0 1 0 0 .372h.9a.64.64 0 0 1 -.088-.372m-1.654.677a.491.491 0 1 1 .491-.491.49.49 0 0 1 -.491.491" transform="translate(0 -2.005)"/></g><path d="m.9 14.028c6.267 3.81 12.347 2.564 16.991-8.016a1.3 1.3 0 0 0 .109-.532v-3.144a.33.33 0 0 0 -.33-.331h-3.013a.71.71 0 0 0 -.621.435c-3.13 8.843-10.648 12.687-13.136 11.588" fill="url(#c)" transform="translate(0 -2.005)"/></svg>