<svg height="48" viewBox="0 0 48 48" width="48" xmlns="http://www.w3.org/2000/svg"><path d="m39 37.865c0 .625-.509 1.135-1.135 1.135h-27.73c-.626 0-1.135-.51-1.135-1.135v-27.73c0-.626.509-1.135 1.135-1.135h27.73c.626 0 1.135.509 1.135 1.135zm7-22.865v-2h-5v-2.865a3.14 3.14 0 0 0 -3.135-3.135h-2.865v-5h-2v5h-3v-5h-2v5h-3v-5h-2v5h-3v-5h-2v5h-3v-5h-2v5h-2.865a3.14 3.14 0 0 0 -3.135 3.135v2.865h-5v2h5v3h-5v2h5v3h-5v2h5v3h-5v2h5v3h-5v2h5v2.865a3.14 3.14 0 0 0 3.135 3.135h2.865v5h2v-5h3v5h2v-5h3v5h2v-5h3v5h2v-5h3v5h2v-5h2.865a3.14 3.14 0 0 0 3.135-3.135v-2.865h5v-2h-5v-3h5v-2h-5v-3h5v-2h-5v-3h5v-2h-5v-3zm-34.008 7h4v-2h-4zm4.293 2.293 1.414 1.414-2 2-1.414-1.414zm-.586-10 2 2-1.414 1.414-2-2zm16.293 7.707h4v-2h-4zm-.293 2.293 2 2-1.414 1.414-2-2zm0-6.586-1.414-1.414 2-2 1.414 1.414zm-10.707 11.293h6v-4h-6zm0-6h6v-4h-6zm0-6h6v-4h-6zm7-6h-8a1 1 0 0 0 -1 1v18a1 1 0 0 0 1 1h3v4h-4v2h10v-2h-4v-4h3a1 1 0 0 0 1-1v-18a1 1 0 0 0 -1-1" fill="#7aa116" fill-rule="evenodd"/></svg>