<svg height="64" viewBox="0 0 64 64" width="64" xmlns="http://www.w3.org/2000/svg"><g fill="none" fill-rule="evenodd"><path d="m0 0h64v64h-64z" fill="#01a88d"/><path d="m43 39.585v-12.635l-10 5.753v12.747zm-22 0 10 5.865v-12.747l-10-5.753zm.985-14.386 10.015 5.761 10.015-5.762-10.015-5.984zm22.519 15.831-12 7.038a.99.99 0 0 1 -1.008 0l-12-7.038a1 1 0 0 1 -.496-.869v-14.945c0-.355.186-.684.489-.865l12-7.171a.99.99 0 0 1 1.022 0l12 7.171c.303.181.489.51.489.865v14.946c0 .358-.188.69-.496.87m9.24-12.077-1.978.299c.151 1.01.234 2.17.234 3.27 0 9.301-6.266 17.33-15.236 19.523l.472 1.953c9.87-2.412 16.764-11.246 16.764-21.478 0-1.196-.091-2.463-.256-3.568m-41.744 3.568c0-1.106.089-2.2.263-3.254l-1.973-.33a22 22 0 0 0 -.29 3.584c0 10.232 6.894 19.066 16.764 21.478l.472-1.954c-8.97-2.193-15.236-10.222-15.236-19.524m4.764-12.825-1.528-1.297c4.484-5.338 10.594-8.4 16.764-8.4 6.292 0 12.405 3.066 16.772 8.41l-1.544 1.277c-3.987-4.877-9.538-7.676-15.228-7.676-5.579 0-11.133 2.802-15.236 7.686" fill="#fff"/></g></svg>