<svg height="48" viewBox="0 0 48 48" width="48" xmlns="http://www.w3.org/2000/svg"><path d="m35.207 37.954h2v-3.495h-2zm-3.496 0h2v-3.495h-2zm-3.495 0h2v-3.495h-2zm-1.495 1.622h11.981v-6.739h-11.981zm12.981-8.739h-13.982a1 1 0 0 0 -1 1v8.739a1 1 0 0 0 1 1h13.982a1 1 0 0 0 1-1v-8.739a1 1 0 0 0 -1-1m-4.495-5.116h2v-3.496h-2zm-3.496 0h2v-3.496h-2zm-3.495 0h2v-3.496h-2zm-1.495 1.621h11.981v-6.738h-11.981zm12.981-8.738h-13.982a1 1 0 0 0 -1 1v8.738a1 1 0 0 0 1 1h13.982a1 1 0 0 0 1-1v-8.738a1 1 0 0 0 -1-1m-4.495-5.118h2v-3.495h-2zm-3.496 0h2v-3.495h-2zm-3.495 0h2v-3.495h-2zm-1.495 1.622h11.981v-6.739h-11.981zm12.981-8.739h-13.982a1 1 0 0 0 -1 1v8.739a1 1 0 0 0 1 1h13.982a1 1 0 0 0 1-1v-8.739a1 1 0 0 0 -1-1m-21.973 31.585h2v-3.495h-2zm-3.495 0h2v-3.495h-2zm-3.496 0h2v-3.495h-2zm-1.495 1.622h11.981v-6.739h-11.981zm12.981-8.739h-13.981a1 1 0 0 0 -1 1v8.739a1 1 0 0 0 1 1h13.981a1 1 0 0 0 1-1v-8.739a1 1 0 0 0 -1-1m-4.495-5.116h2v-3.496h-2zm-3.495 0h2v-3.496h-2zm-3.496 0h2v-3.496h-2zm-1.495 1.621h11.981v-6.738h-11.981zm12.981-8.738h-13.981a1 1 0 0 0 -1 1v8.738a1 1 0 0 0 1 1h13.981a1 1 0 0 0 1-1v-8.738a1 1 0 0 0 -1-1m-4.495-5.118h2v-3.495h-2zm-3.495 0h2v-3.495h-2zm-3.496 0h2v-3.495h-2zm-1.495 1.622h11.981v-6.739h-11.981zm12.981-8.739h-13.981a1 1 0 0 0 -1 1v8.739a1 1 0 0 0 1 1h13.981a1 1 0 0 0 1-1v-8.739a1 1 0 0 0 -1-1m21.721 33.128a4.453 4.453 0 0 1 -4.448 4.448h-31.049a4.453 4.453 0 0 1 -4.448-4.448v-31.049a4.453 4.453 0 0 1 4.448-4.448h31.049a4.453 4.453 0 0 1 4.448 4.448zm-4.448-37.497h-31.049a6.455 6.455 0 0 0 -6.448 6.448v31.049a6.455 6.455 0 0 0 6.448 6.448h31.049a6.455 6.455 0 0 0 6.448-6.448v-31.049a6.455 6.455 0 0 0 -6.448-6.448" fill="#ed7100" fill-rule="evenodd"/></svg>