<svg viewBox="0 0 24 24" xmlns="http://www.w3.org/2000/svg"><path d="m11.197 3.696c-6.448 0-11.197 4.106-11.197 8.494 0 2.267 1.275 4.177 2.88 5.5l.122-.083c-1.273-1.054-2.422-2.707-2.422-4.97.336-4.801 6.246-7.507 11.496-7.507 3.718 0 10.394.86 10.394 7.086 0 3.248-3.465 7.473-10.737 7.473-3.725 0-6.618-1.999-6.618-4.87 0-2.488 1.943-4.258 4.841-4.258.799 0 1.547.187 2.118.342-1.209-.218-3.085.093-4.056.857v4.205h3.561v-4.78a4.4 4.4 0 0 1 1.551.598v4.182h.928c-.73.82-2.088 1.319-3.264 1.135v.176c3.384.267 4.816-1.341 4.816-3.15 0-2.128-1.994-3.378-4.03-3.634v-3.143h-3.563v3.18c-2.305.465-4.56 1.837-4.56 4.11 0 3.498 4.88 5.665 9.125 5.665 6.452 0 11.417-3.125 11.417-7.51 0-5.31-7.168-9.098-12.803-9.098m4.908 10.552c0-1.545-1.055-2.784-2.975-3.382v-3.516h3.557v8.616h-1.112c.391-.552.53-1.178.53-1.717" fill="#1e4380"/></svg>