<svg height="24" width="24" xmlns="http://www.w3.org/2000/svg"><path d="m0 0h24v24h-24z" fill="none"/><path d="m12.9 17.6a2.795 2.795 0 0 0 5.5-.7c0-1.5-1.3-2.8-2.8-2.8-1.3 0-2.4.9-2.7 2.1h-7.3v1.5h7.3zm8.9 4.2h-19.6v-10.6h5.2l1.6 1.6h6l1.5-1.5h5.2v10.5zm-13.9-4.2h-1.5v1.5h1.5zm2.2 0h-1.5v1.5h1.5zm4.1-.7c0 .8.6 1.4 1.4 1.4s1.4-.6 1.4-1.4-.6-1.4-1.4-1.4-1.4.6-1.4 1.4" fill="#3367d6"/><path d="m11.2 12h-1.8l-1.3-1.5h-4.3v-3h7.4z" fill="#5c85de"/><g fill="#85a4e6"><path d="m15.8 10.8-1.3 1.2h-2.5v-5.2h-6v-1.6h9.8z"/><path d="m20.2 10.5h-3.7v-6h-6.7v-1.5h10.4z"/></g></svg>