<svg height="18" viewBox="0 0 18 18" width="18" xmlns="http://www.w3.org/2000/svg" xmlns:xlink="http://www.w3.org/1999/xlink"><linearGradient id="a" gradientTransform="matrix(.35355339 .35355339 .35355339 -.35355339 -1284.31816 3474.58)" gradientUnits="userSpaceOnUse" x1="-3071.86" x2="-3071.86" y1="6711.69" y2="6747.69"><stop offset="0" stop-color="#005ba1"/><stop offset=".1" stop-color="#0060a9"/><stop offset=".52" stop-color="#0071c8"/><stop offset=".75" stop-color="#0078d4"/></linearGradient><rect fill="url(#a)" height="13.08" rx=".61" transform="matrix(.70710678 -.70710678 .70710678 .70710678 -3.730336 9.000172)" width="13.08" x="2.46" y="2.46"/><path d="m9 3.41c-.95 0-1.71-.24-1.71-.55v2.91c0 .29.75.54 1.68.54h.03c.94 0 1.71-.24 1.71-.54v-2.91c.01.31-.71.55-1.71.55" fill="#50e6ff"/><path d="m10.72 2.86c0 .31-.77.55-1.71.55s-1.71-.24-1.71-.55.76-.54 1.7-.54 1.71.24 1.71.54" fill="#eaeaea"/><path d="m10.32 2.82c0 .19-.59.35-1.31.35s-1.31-.17-1.31-.35.58-.35 1.3-.35 1.31.16 1.31.35" fill="#50e6ff"/><path d="m9 2.9a3.6 3.6 0 0 0 -1 .1 3.5 3.5 0 0 0 1 .14 3.5 3.5 0 0 0 1-.14 3.6 3.6 0 0 0 -1-.1" fill="#32bedd"/><path d="m9 12.82c-.95 0-1.71-.24-1.71-.55v2.91c0 .29.75.54 1.68.54h.03c.94 0 1.71-.24 1.71-.54v-2.91c.01.31-.71.55-1.71.55" fill="#50e6ff"/><path d="m10.72 12.27c0 .31-.77.55-1.71.55s-1.71-.24-1.71-.55.76-.54 1.71-.54 1.71.24 1.71.54" fill="#eaeaea"/><path d="m10.32 12.23c0 .19-.59.35-1.31.35s-1.31-.16-1.31-.35.58-.35 1.31-.35 1.31.16 1.31.35" fill="#50e6ff"/><path d="m9 12.31a3.6 3.6 0 0 0 -1 .13 3.5 3.5 0 0 0 1 .14 3.5 3.5 0 0 0 1-.14 3.6 3.6 0 0 0 -1-.13" fill="#32bedd"/><path d="m13.22 8.09c-1 0-1.71-.24-1.71-.54v2.9c0 .3.75.54 1.69.55.94 0 1.71-.25 1.71-.55v-2.9c.02.3-.75.54-1.69.54" fill="#50e6ff"/><path d="m14.93 7.55c0 .3-.77.54-1.71.54s-1.71-.24-1.71-.54.76-.55 1.71-.55 1.71.25 1.71.55" fill="#eaeaea"/><path d="m14.53 7.5c0 .2-.59.35-1.31.35s-1.31-.15-1.31-.35.58-.34 1.31-.34 1.31.15 1.31.34" fill="#50e6ff"/><path d="m13.22 7.58a3.5 3.5 0 0 0 -1 .14 3.6 3.6 0 0 0 1 .13 3.6 3.6 0 0 0 1-.13 3.6 3.6 0 0 0 -1-.14" fill="#32bedd"/><path d="m4.92 8.09c-.95 0-1.71-.24-1.71-.54v2.9c0 .3.75.54 1.68.55.94 0 1.71-.25 1.71-.55v-2.9c.03.3-.74.54-1.68.54" fill="#50e6ff"/><path d="m6.63 7.55c0 .3-.77.54-1.71.54s-1.71-.24-1.71-.54.79-.55 1.71-.55 1.71.25 1.71.55" fill="#eaeaea"/><path d="m6.23 7.5c0 .2-.59.35-1.31.35s-1.31-.15-1.31-.35.58-.34 1.31-.34 1.31.15 1.31.34" fill="#50e6ff"/><path d="m4.92 7.58a3.5 3.5 0 0 0 -1 .14 3.6 3.6 0 0 0 1 .13 3.6 3.6 0 0 0 1-.13 3.6 3.6 0 0 0 -1-.14" fill="#32bedd"/></svg>