<svg xmlns="http://www.w3.org/2000/svg" width="18" height="18" viewBox="0 0 18 18">
  <defs>
    <mask id="ko">
      <rect width="18" height="18" fill="white"/>
      <path fill="black" d="M0 5.6h18v10.035a.6.6 0 0 1-.6.6H.6a.6.6 0 0 1-.6-.6z"/>
      <path fill="black" d="m7.109 13.217-.321.32a.144.144 0 0 1-.205 0l-2.325-2.332a.29.29 0 0 1 0-.41l.321-.32 2.531 2.537a.145.145 0 0 1-.001.205m3.653 0 .321.32a.144.144 0 0 0 .205 0l2.325-2.332a.29.29 0 0 0 0-.41l-.322-.32-2.53 2.537a.145.145 0 0 0 .001.205"/>
      <path fill="black" d="m6.831 8.433.32.321a.144.144 0 0 1 0 .205l-2.575 2.568-.32-.322a.29.29 0 0 1 0-.41l2.37-2.363a.145.145 0 0 1 .205.001m4.207 0-.32.321a.144.144 0 0 0 0 .205l2.575 2.568.32-.321a.29.29 0 0 0 0-.411l-2.37-2.362a.144.144 0 0 0-.205.001zm-2.879 5.93-.513-.163a.105.105 0 0 1-.067-.131l2.09-6.529a.1.1 0 0 1 .13-.067l.513.164a.1.1 0 0 1 .067.13L8.289 14.3a.1.1 0 0 1-.13.063M3.166 3.847a.76.76 0 1 1-.76-.76.76.76 0 0 1 .76.76m1.634-.76a.76.76 0 1 0 .76.76.76.76 0 0 0-.76-.76m2.393 0a.76.76 0 1 0 .76.76.76.76 0 0 0-.762-.76z"/>
      <rect fill="black" x="1.309" y="6.657" width="15.527" height="8.514"/>
    </mask>
  </defs>
  <g>
    <path fill="currentColor" mask="url(#ko)" d="M.6 1.764h16.8a.6.6 0 0 1 .6.6V5.6H0V2.365a.6.6 0 0 1 .6-.601"/>
  </g>
</svg>