<svg xmlns="http://www.w3.org/2000/svg" width="18" height="18" viewBox="0 0 18 18"><path fill="currentColor" d="M14.133 5.204a3.88 3.88 0 0 1 3.304 3.765 3.89 3.89 0 0 1-3.676 3.845l-1.939-4.197a.95.95 0 0 0-.858-.548H7.038a.94.94 0 0 0-.86.554l-1.869 4.113A4.71 4.71 0 0 1 .494 8.282a4.574 4.574 0 0 1 3.991-4.499A4.94 4.94 0 0 1 9.191.497a4.847 4.847 0 0 1 4.942 4.706z"/><path fill="currentColor" d="M8.524 17.504V8.998H7.122l-3.789 8.506z"/><path fill="currentColor" d="M9.461 17.504V8.998h1.402l3.789 8.506z"/></svg>