<svg xmlns="http://www.w3.org/2000/svg" id="uuid-41cb4343-c010-415d-96e8-bad1f6326708" width="18" height="18" viewBox="0 0 18 18"><defs><linearGradient id="uuid-35fecc77-6eab-442d-af15-dbd5499e6d75" x1="8.966" x2="8.966" y1="21.441" y2="3.686" gradientTransform="matrix(1 0 0 -1 0 20)" gradientUnits="userSpaceOnUse"><stop offset=".18" stop-color="#5ea0ef"/><stop offset="1" stop-color="#0078d4"/></linearGradient><linearGradient id="uuid-8a0a9f7f-9405-4c98-a4ab-7b05beceebd5" x1="5.928" x2="5.928" y1="2.856" y2="11.002" gradientTransform="matrix(1 0 0 -1 0 20)" gradientUnits="userSpaceOnUse"><stop offset="0" stop-color="#a7a9a9"/><stop offset="1" stop-color="#d0d0cd"/></linearGradient><linearGradient id="uuid-25ad608e-4de8-4b9c-bac4-7777c07ae0d2" x1="12.057" x2="12.057" y1="2.856" y2="11.002" gradientTransform="matrix(1 0 0 -1 0 20)" gradientUnits="userSpaceOnUse"><stop offset="0" stop-color="#a7a9a9"/><stop offset="1" stop-color="#d0d0cd"/></linearGradient></defs><path fill="url(#uuid-35fecc77-6eab-442d-af15-dbd5499e6d75)" d="M14.133 5.204a3.88 3.88 0 0 1 3.304 3.765 3.89 3.89 0 0 1-3.676 3.845l-1.939-4.197a.95.95 0 0 0-.858-.548H7.038a.94.94 0 0 0-.86.554l-1.869 4.113A4.71 4.71 0 0 1 .494 8.282a4.574 4.574 0 0 1 3.991-4.499A4.94 4.94 0 0 1 9.191.497a4.847 4.847 0 0 1 4.942 4.706Z"/><path fill="url(#uuid-8a0a9f7f-9405-4c98-a4ab-7b05beceebd5)" d="M8.524 17.504V8.998H7.122l-3.789 8.506z"/><path fill="url(#uuid-25ad608e-4de8-4b9c-bac4-7777c07ae0d2)" d="M9.461 17.504V8.998h1.402l3.789 8.506z"/></svg>