<svg height="18" viewBox="0 0 18 18" width="18" xmlns="http://www.w3.org/2000/svg" xmlns:xlink="http://www.w3.org/1999/xlink"><linearGradient id="a" gradientTransform="matrix(1 0 0 -1 0 20)" gradientUnits="userSpaceOnUse" x1="8.966" x2="8.966" y1="21.441" y2="3.686"><stop offset=".18" stop-color="#5ea0ef"/><stop offset="1" stop-color="#0078d4"/></linearGradient><linearGradient id="b"><stop offset="0" stop-color="#a7a9a9"/><stop offset="1" stop-color="#d0d0cd"/></linearGradient><linearGradient id="c" gradientTransform="matrix(1 0 0 -1 0 20)" gradientUnits="userSpaceOnUse" x1="5.928" x2="5.928" xlink:href="#b" y1="2.856" y2="11.002"/><linearGradient id="d" gradientTransform="matrix(1 0 0 -1 0 20)" gradientUnits="userSpaceOnUse" x1="12.057" x2="12.057" xlink:href="#b" y1="2.856" y2="11.002"/><path d="m14.133 5.204a3.88 3.88 0 0 1 3.304 3.765 3.89 3.89 0 0 1 -3.676 3.845l-1.939-4.197a.95.95 0 0 0 -.858-.548h-3.926a.94.94 0 0 0 -.86.554l-1.869 4.113a4.71 4.71 0 0 1 -3.815-4.454 4.574 4.574 0 0 1 3.991-4.499 4.94 4.94 0 0 1 4.706-3.286 4.847 4.847 0 0 1 4.942 4.706z" fill="url(#a)"/><path d="m8.524 17.504v-8.506h-1.402l-3.789 8.506z" fill="url(#c)"/><path d="m9.461 17.504v-8.506h1.402l3.789 8.506z" fill="url(#d)"/></svg>