<svg viewBox="0 0 24 24" xmlns="http://www.w3.org/2000/svg"><path d="m17.417 9.33a1.613 1.613 0 0 0 -1.612 1.613 1.612 1.612 0 1 0 3.225 0 1.613 1.613 0 0 0 -1.613-1.613m-10.644 0a1.613 1.613 0 1 0 0 3.225 1.613 1.613 0 0 0 0-3.225m-4.491-2.034a1.62 1.62 0 0 1 -.472-1.14 1.61 1.61 0 0 1 1.613-1.613c.414 0 .827.156 1.141.47l-.377.28a12.84 12.84 0 0 1 7.908-2.712c2.981 0 5.722 1.014 7.907 2.711l-.375-.277a1.6 1.6 0 0 1 1.14-.471c.413 0 .826.156 1.14.471a1.62 1.62 0 0 1 .47 1.142 1.6 1.6 0 0 1 -.47 1.141l.377.277c5.453 5.452-3.828 7.907-3.828 7.907h-12.721c-.268 0-9.662-2.075-3.829-7.907zm18.317 13.944a1.96 1.96 0 0 1 -1.961-1.961 1.961 1.961 0 1 1 3.922 0 1.96 1.96 0 0 1 -1.96 1.961m-16.116.179a1.96 1.96 0 0 1 -1.962-1.962 1.96 1.96 0 0 1 1.962-1.961 1.96 1.96 0 0 1 1.962 1.961 1.96 1.96 0 0 1 -1.962 1.962m1.744-5.532h11.779s-5.71 1.963-11.78 0"/></svg>