<svg xmlns="http://www.w3.org/2000/svg" fill="none" viewBox="4 6 35 35.999">
  <defs>
    <mask id="wko">
      <rect width="35" height="35.999" fill="white"/>
      <path fill="black" d="M16.11 35.571h-2.077l-3.766-5.642a16 16 0 0 1-.268-.44 4 4 0 0 1-.166-.319h-.025q.012.243.019.612.006.37.006.867v4.922H7.89V26.43h2.217l3.626 5.464a9 9 0 0 1 .223.376q.115.184.21.37h.026a9 9 0 0 1-.019-.472 40 40 0 0 1-.006-.784V26.43h1.943z"/>
    </mask>
  </defs>
  <g fill="currentColor" mask="url(#wko)">
    <path fill="currentColor" d="M9 33.545A6.545 6.545 0 0 1 15.546 27H39v11.727a3.273 3.273 0 0 1-3.273 3.272l-20.592-.005A6.136 6.136 0 0 1 9 35.858z"/>
    <path fill="currentColor" d="m25 14.5 14-.5v12.727A3.273 3.273 0 0 1 35.727 30H25z"/>
    <path fill="currentColor" d="M9.005 11.999a6 6 0 0 1 6-5.999H35.5A3.5 3.5 0 0 1 39 9.5v5a3.5 3.5 0 0 1-3.5 3.5h-3a3.5 3.5 0 0 0-3.5 3.5v5a3.5 3.5 0 0 1-3.5 3.5H15a6 6 0 0 0-6 6z"/>
    <path fill="currentColor" d="M9.005 11.999a6 6 0 0 1 6-5.999H35.5A3.5 3.5 0 0 1 39 9.5v5a3.5 3.5 0 0 1-3.5 3.5h-3a3.5 3.5 0 0 0-3.5 3.5v5a3.5 3.5 0 0 1-3.5 3.5H15a6 6 0 0 0-6 6z"/>
    <rect width="16" height="16" x="4" y="23" fill="currentColor" rx="3.25"/>
    <rect width="16" height="16" x="4" y="23" fill="currentColor" fill-opacity=".8" rx="3.25"/>
  </g>
</svg>