<svg height="18" viewBox="0 0 18 18" width="18" xmlns="http://www.w3.org/2000/svg" xmlns:xlink="http://www.w3.org/1999/xlink"><linearGradient id="a"><stop offset="0" stop-color="#b77af4"/><stop offset="1" stop-color="#773adc"/></linearGradient><linearGradient id="b" gradientUnits="userSpaceOnUse" x1="2.94" x2="8.67" xlink:href="#a" y1="3.74" y2="3.74"/><linearGradient id="c" gradientUnits="userSpaceOnUse" x1="9.13" x2="14.85" xlink:href="#a" y1="3.79" y2="3.79"/><linearGradient id="d" gradientUnits="userSpaceOnUse" x1=".01" x2="5.73" xlink:href="#a" y1="9.12" y2="9.12"/><linearGradient id="e" gradientUnits="userSpaceOnUse" x1="6.18" x2="11.9" xlink:href="#a" y1="9.08" y2="9.08"/><linearGradient id="f" gradientUnits="userSpaceOnUse" x1="12.35" x2="18.08" xlink:href="#a" y1="9.13" y2="9.13"/><linearGradient id="g" gradientUnits="userSpaceOnUse" x1="2.87" x2="8.6" xlink:href="#a" y1="14.56" y2="14.56"/><linearGradient id="h" gradientUnits="userSpaceOnUse" x1="9.05" x2="14.78" xlink:href="#a" y1="14.6" y2="14.6"/><path d="m5.8 1.22-2.86.53v3.9l2.86.61 2.87-1.15v-2.91z" fill="url(#b)"/><path d="m5.91 6.2 2.62-1.06a.2.2 0 0 0 .12-.14v-2.64a.21.21 0 0 0 -.13-.18l-2.65-.9h-.12l-2.6.48a.2.2 0 0 0 -.15.18v3.53a.19.19 0 0 0 .15.19l2.63.55a.3.3 0 0 0 .13-.01" fill="none"/><path d="m2.94 1.75v3.9l2.89.61v-5zm1.22 3.6-.81-.16v-3l.81-.13zm1.26.23-.93-.15v-3.43l.93-.16z" fill="#341a6e"/><path d="m11.99 1.27-2.86.53v3.9l2.86.61 2.86-1.16v-2.9z" fill="url(#c)"/><path d="m9.13 1.8v3.9l2.87.61v-5zm1.21 3.6-.81-.16v-3l.81-.13zm1.26.23-.93-.15v-3.43l.93-.17z" fill="#341a6e"/><path d="m2.87 6.6-2.86.53v3.9l2.86.61 2.87-1.15v-2.91z" fill="url(#d)"/><path d="m0 7.13v3.87l2.89.61v-5zm1.21 3.61-.81-.17v-3l.81-.14zm1.27.26-.93-.15v-3.47l.93-.16z" fill="#341a6e"/><path d="m9.04 6.56-2.86.53v3.9l2.86.62 2.86-1.16v-2.91z" fill="url(#e)"/><path d="m6.18 7.09v3.91l2.88.61v-5zm1.21 3.61-.81-.17v-3l.81-.14zm1.26.22-.93-.15v-3.43l.93-.16z" fill="#341a6e"/><path d="m15.21 6.61-2.86.53v3.9l2.86.61 2.87-1.15v-2.91z" fill="url(#f)"/><path d="m12.35 7.14v3.86l2.89.61v-5zm1.22 3.61-.81-.17v-3l.81-.14zm1.26.22-.93-.15v-3.43l.93-.16z" fill="#341a6e"/><path d="m5.73 12.04-2.86.52v3.9l2.86.62 2.87-1.16v-2.9z" fill="url(#g)"/><path d="m5.84 17 2.61-1a.18.18 0 0 0 .12-.18v-2.6a.2.2 0 0 0 -.13-.22l-2.64-.9a.17.17 0 0 0 -.12 0l-2.6.47a.19.19 0 0 0 -.16.19v3.54a.19.19 0 0 0 .15.19l2.63.51a.23.23 0 0 0 .14 0" fill="none"/><path d="m2.87 12.56v3.9l2.89.62v-5.08zm1.22 3.61-.81-.17v-3l.81-.14zm1.26.23-.93-.15v-3.44l.93-.16z" fill="#341a6e"/><path d="m11.91 12.08-2.86.53v3.9l2.86.61 2.87-1.15v-2.91z" fill="url(#h)"/><path d="m9.05 12.61v3.9l2.89.61v-5zm1.22 3.61-.81-.17v-3l.81-.14zm1.26.22-.93-.15v-3.43l.93-.16z" fill="#341a6e"/></svg>