<svg height="66.143" viewBox="0 0 18.035 17.5" width="68.165" xmlns="http://www.w3.org/2000/svg">
  <defs>
    <mask id="wko">
      <rect width="18.035" height="17.5" fill="white"/>
      <path d="m8.955.002a1.199 1.19 0 0 0 -.459.117l-6.272 2.995a1.199 1.19 0 0 0 -.647.806l-1.547 6.73a1.199 1.19 0 0 0 .162.912 1.199 1.19 0 0 0 .068.095l4.34 5.396a1.199 1.19 0 0 0 .938.447h6.96a1.199 1.19 0 0 0 .937-.447l4.338-5.398a1.199 1.19 0 0 0 .232-1.005l-1.548-6.732a1.199 1.19 0 0 0 -.65-.807l-6.269-2.993a1.199 1.19 0 0 0 -.581-.118m.003.462a1.137 1.127 0 0 1 .55.11l5.94 2.836a1.137 1.127 0 0 1 .615.764l1.468 6.375a1.137 1.127 0 0 1 -.22.954l-4.11 5.112a1.137 1.127 0 0 1 -.888.423h-6.593a1.137 1.127 0 0 1 -.888-.422l-4.11-5.112a1.137 1.127 0 0 1 -.066-.09 1.137 1.127 0 0 1 -.154-.863l1.465-6.375a1.137 1.127 0 0 1 .614-.764l5.94-2.838a1.137 1.127 0 0 1 .436-.11" fill="black"/>
      <path d="m4.18 7.406h6.525v4.583h-6.525z" fill="black" fill-rule="evenodd"/>
    </mask>
  </defs>
  <g fill="currentColor" mask="url(#wko)">
    <path d="m8.957.463a1.137 1.127 0 0 0 -.434.11l-5.94 2.838a1.137 1.127 0 0 0 -.615.764l-1.465 6.376a1.137 1.127 0 0 0 .154.862 1.137 1.127 0 0 0 .065.09l4.11 5.113a1.137 1.127 0 0 0 .89.423l6.592-.001a1.137 1.127 0 0 0 .888-.423l4.11-5.113a1.137 1.127 0 0 0 .219-.953l-1.468-6.374a1.137 1.127 0 0 0 -.614-.764l-5.939-2.839a1.137 1.127 0 0 0 -.551-.11" fill="currentColor"/>
    <path d="m5.763 5.977h6.525v4.583h-6.525z" fill="currentColor" fill-rule="evenodd" stroke-dasharray="1.587438 1.587438" stroke-dashoffset="3.879" stroke-linecap="square"/>
  </g>
</svg>