<svg xmlns="http://www.w3.org/2000/svg" width="64" height="64" viewBox="0 0 64 64"><title>Icon-Architecture/48/Arch_Amazon-Bedrock_48</title><g id="Icon-Architecture/48/Arch_Amazon-Bedrock_48" fill="none" fill-rule="evenodd" stroke="none" stroke-width="1"><g id="Icon-Architecture-BG/48/Machine-Learning" fill="#01a88d"><path id="Rectangle" d="M0 0h64v64H0z"/></g><g id="Icon-Service/48/Amazon-Bedrock_48" fill="#fff" transform="translate(10 10)"><path id="Fill-3" d="M41 21a1.001 1.001 0 0 1 0-2 1.001 1.001 0 0 1 0 2M16.977 41.848l-3.203-1.746 3.741-2.245-1.03-1.714-4.747 2.848L7 36.406v-5.84l4.515-2.71-1.03-1.713L6 28.833l-4-2.4v-3.815l5.447-2.723-.894-1.79L2 20.382v-2.764l4.956-2.478L11 17.566v2.816l-3.447 1.723.894 1.79 3.556-1.778 3.554 1.76.886-1.792L13 20.38v-2.814l4.515-2.71A1 1 0 0 0 18 14V9h-2v4.434l-4 2.4-4-2.4V6.588l3-1.666V11h2V3.81l3.024-1.68 4.978 2.486-.001 21.834-10.538 6.706 1.074 1.688 9.464-6.022L21 39.434zM38 29a1.001 1.001 0 0 1 0 2 1.001 1.001 0 0 1 0-2m-8 10a1.001 1.001 0 0 1 0-2 1.001 1.001 0 0 1 0 2m2-33a1.001 1.001 0 0 1 0 2 1.001 1.001 0 0 1 0-2m9 11a3 3 0 0 0-2.816 2H23.001v-4H32a1 1 0 0 0 1-1V9.816A3 3 0 0 0 35 7c0-1.654-1.346-3-3-3s-3 1.346-3 3c0 1.302.839 2.402 2 2.816V13h-7.999l.001-9.002a1 1 0 0 0-.553-.894l-6.002-3a1 1 0 0 0-.932.022l-9 5A1 1 0 0 0 6 6v7.382L.553 16.105C.214 16.275 0 16.62 0 17v10a1 1 0 0 0 .485.857L5 30.566V37a1 1 0 0 0 .521.878l11 6a1 1 0 0 0 .994-.021l5-3A1 1 0 0 0 23 40v-7h6v2.184A3 3 0 0 0 27 38c0 1.654 1.346 3 3 3s3-1.346 3-3a3 3 0 0 0-2-2.816V32a1 1 0 0 0-1-1h-7l.001-4h10.585l1.715 1.715A2.95 2.95 0 0 0 35 30c0 1.654 1.346 3 3 3s3-1.346 3-3-1.346-3-3-3a2.95 2.95 0 0 0-1.285.3l-2.008-2.007A1 1 0 0 0 34 25H23.001v-4h15.183A3 3 0 0 0 41 23c1.654 0 3-1.346 3-3s-1.346-3-3-3"/></g></g></svg>