<svg height="64" viewBox="0 0 64 64" width="64" xmlns="http://www.w3.org/2000/svg"><g fill="none" fill-rule="evenodd"><path d="m0 0h64v64h-64z" fill="#01a88d"/><path d="m41 21a1.001 1.001 0 0 1 0-2 1.001 1.001 0 0 1 0 2m-24.023 20.848-3.203-1.746 3.741-2.245-1.03-1.714-4.747 2.848-4.738-2.585v-5.84l4.515-2.71-1.03-1.713-4.485 2.69-4-2.4v-3.815l5.447-2.723-.894-1.79-4.553 2.277v-2.764l4.956-2.478 4.044 2.426v2.816l-3.447 1.723.894 1.79 3.556-1.778 3.554 1.76.886-1.792-3.443-1.705v-2.814l4.515-2.71a1 1 0 0 0 .485-.856v-5h-2v4.434l-4 2.4-4-2.4v-6.846l3-1.666v6.078h2v-7.19l3.024-1.68 4.978 2.486-.001 21.834-10.538 6.706 1.074 1.688 9.464-6.022-.001 10.612zm21.023-12.848a1.001 1.001 0 0 1 0 2 1.001 1.001 0 0 1 0-2m-8 10a1.001 1.001 0 0 1 0-2 1.001 1.001 0 0 1 0 2m2-33a1.001 1.001 0 0 1 0 2 1.001 1.001 0 0 1 0-2m9 11a3 3 0 0 0 -2.816 2h-15.183v-4h8.999a1 1 0 0 0 1-1v-4.184a3 3 0 0 0 2-2.816c0-1.654-1.346-3-3-3s-3 1.346-3 3c0 1.302.839 2.402 2 2.816v3.184h-7.999l.001-9.002a1 1 0 0 0 -.553-.894l-6.002-3a1 1 0 0 0 -.932.022l-9 5a1 1 0 0 0 -.515.874v7.382l-5.447 2.723c-.339.17-.553.515-.553.895v10a1 1 0 0 0 .485.857l4.515 2.709v6.434a1 1 0 0 0 .521.878l11 6a1 1 0 0 0 .994-.021l5-3a1 1 0 0 0 .485-.857v-7h6v2.184a3 3 0 0 0 -2 2.816c0 1.654 1.346 3 3 3s3-1.346 3-3a3 3 0 0 0 -2-2.816v-3.184a1 1 0 0 0 -1-1h-7l.001-4h10.585l1.715 1.715a2.95 2.95 0 0 0 -.301 1.285c0 1.654 1.346 3 3 3s3-1.346 3-3-1.346-3-3-3a2.95 2.95 0 0 0 -1.285.3l-2.008-2.007a1 1 0 0 0 -.707-.293h-10.999v-4h15.183a3 3 0 0 0 2.816 2c1.654 0 3-1.346 3-3s-1.346-3-3-3" fill="#fff" transform="translate(10 10)"/></g></svg>