<svg height="18" viewBox="0 0 18 18" width="18" xmlns="http://www.w3.org/2000/svg" xmlns:xlink="http://www.w3.org/1999/xlink"><linearGradient id="a" gradientUnits="userSpaceOnUse" x1="9" x2="9" y1="11.95"><stop offset="0" stop-color="#0078d4"/><stop offset=".16" stop-color="#1380da"/><stop offset=".53" stop-color="#3c91e5"/><stop offset=".82" stop-color="#559cec"/><stop offset="1" stop-color="#5ea0ef"/></linearGradient><path d="m17.43 8.21a3.78 3.78 0 0 0 -3.29-3.64 4.77 4.77 0 0 0 -4.92-4.57 4.91 4.91 0 0 0 -4.68 3.19 4.52 4.52 0 0 0 -4 4.35 4.6 4.6 0 0 0 4.78 4.46h8.31a3.84 3.84 0 0 0 3.8-3.79" fill="url(#a)"/><path d="m6.36 6.46 2.64-2.59a.3.3 0 0 1 .43 0l2.57 2.59a.13.13 0 0 1 -.1.23h-1.62a.15.15 0 0 0 -.14.14v3.24a.11.11 0 0 1 -.11.11h-1.74a.11.11 0 0 1 -.11-.11v-3.24a.14.14 0 0 0 -.13-.14h-1.6a.13.13 0 0 1 -.09-.23" fill="#f2f2f2"/><path d="m14 11.37a.13.13 0 0 0 -.09-.13l-4.75-1.59h-.16v8.35h.13l4.71-1.88a.13.13 0 0 0 .16-.12z" fill="#a67af4"/><path d="m9 9.68-4.51.83a.14.14 0 0 0 -.12.13v6.23a.15.15 0 0 0 .11.14l4.52.99a.13.13 0 0 0 .16-.13v-8a.14.14 0 0 0 -.16-.19" fill="#552f99"/><path d="m6.92 10.92v5.81l1.57.25v-6.33zm-1.94.32v5.08l1.37.28v-5.59z" fill="#b77af4" opacity=".75"/></svg>