<svg viewBox="0 0 128 128" xmlns="http://www.w3.org/2000/svg"><path d="m35.2 34.9-8.3-8.3v59.7l.1 2.8c0 1.3.2 2.8.7 4.3l65.6 23.1 16.3-7.2z" fill="#00c4b3"/><path d="m109.6 109.3-16.3 7.2-65.4-23.1c1.3 4.8 4 10.1 7 13.2l21.3 21.2 47.6.1z" fill="#22d3c5"/><path d="m1.7 65.1c-2.1 2.2-1 6.9 2.3 10.4l14.7 14.8 9.2 3.3c-.3-1.5-.7-3-.7-4.3l-.1-2.8-.2-59.8m82.7 82.6 7.2-16.4-23-65.6c-1.5-.3-3-.6-4.3-.7l-2.9-.1-59.6.1" fill="#0075c9"/><path d="m93.6 27.3c.2 0 .2 0 0 0zm16 82 17.7-5.8v-48.7l-20.4-20.5c-3-3-8.3-5.8-13.2-7l23.1 65.6" fill="#00a8e1"/><path d="m90.5 18.2-14.8-14.7c-3.4-3.4-8-4.4-10.4-2.3l-38.4 25.4h59.5l2.9.1c1.3 0 2.8.2 4.3.7z" fill="#00c4b3"/></svg>