<svg viewBox="0 0 128 128" xmlns="http://www.w3.org/2000/svg"><g fill="#00a8e1"><path d="m86.6 25 3 .1c1.1.1 2.2.3 3.4.5l-2.5-7.4-14.8-14.7c-3.4-3.4-8-4.4-10.4-2.3l-36.1 23.9zm6.1 3.6c-1.2-.2-2.3-.4-3.3-.5l-2.9-.1-56 .1 78.6 78.6 6.1-13.8zm-63.8 63.6 64.3 22.7 13.8-6.1-78.6-78.6v56.1l.1 2.7c0 .9.1 2 .4 3.2z"/><path d="m106.9 34.3c-2.6-2.6-7-5.1-11.3-6.5l22.8 65.2-6.9 15.7 15.8-5.2v-48.7zm-13.5 83.8-65-22.9c1.4 4.3 3.8 8.7 6.5 11.4l21.3 21.2 47.6.1 5.3-16.7zm-67.9-29-.1-2.7v-57.5l-23.7 36.2c-2.1 2.2-1 6.9 2.3 10.4l14.7 14.8 7.3 2.6c-.3-1.3-.5-2.5-.5-3.8z"/></g></svg>