<svg viewBox="0 0 128 128" xmlns="http://www.w3.org/2000/svg" xmlns:xlink="http://www.w3.org/1999/xlink"><linearGradient id="a" gradientUnits="userSpaceOnUse" x1="53.327" x2="53.327" y1="2.095" y2="126.143"><stop offset="0" stop-color="#ff1b2d"/><stop offset=".614" stop-color="#ff1b2d"/><stop offset="1" stop-color="#a70014"/></linearGradient><linearGradient id="b" gradientUnits="userSpaceOnUse" x1="85.463" x2="85.463" y1="9.408" y2="119.121"><stop offset="0" stop-color="#9c0000"/><stop offset=".7" stop-color="#ff4b4b"/></linearGradient><path d="m63.996.008c-35.344 0-63.996 28.652-63.996 64 0 34.32 27.02 62.332 60.949 63.922 1.012.047 2.027.074 3.047.074a63.77 63.77 0 0 0 42.652-16.285c-7.5 4.973-16.273 7.836-25.645 7.836-15.242 0-28.891-7.562-38.07-19.484-7.078-8.352-11.66-20.699-11.973-34.559v-3.012c.313-13.859 4.895-26.207 11.973-34.559 9.18-11.925 22.829-19.484 38.067-19.484 9.375 0 18.148 2.863 25.652 7.84-11.269-10.078-26.121-16.227-42.414-16.289zm0 0" fill="url(#a)"/><path d="m42.934 27.945c5.871-6.934 13.457-11.117 21.742-11.117 18.633 0 33.734 21.125 33.734 47.18s-15.102 47.18-33.734 47.18c-8.285 0-15.871-4.18-21.742-11.113 9.18 11.926 22.828 19.484 38.07 19.484 9.375 0 18.145-2.863 25.645-7.836 13.102-11.719 21.348-28.754 21.348-47.715s-8.246-35.988-21.344-47.707c-7.5-4.977-16.273-7.84-25.648-7.84-15.242 0-28.891 7.562-38.07 19.484" fill="url(#b)"/></svg>