<svg height="18" viewBox="0 0 18 18" width="18" xmlns="http://www.w3.org/2000/svg" xmlns:xlink="http://www.w3.org/1999/xlink"><linearGradient id="a" gradientUnits="userSpaceOnUse" x1="9.024" x2="9.024" y1="12.329" y2="5.61"><stop offset="0" stop-color="#773adc"/><stop offset="1" stop-color="#b77af4"/></linearGradient><linearGradient id="b" gradientUnits="userSpaceOnUse" x1="9" x2="9" y1="17.875" y2=".125"><stop offset="0" stop-color="#32bedd"/><stop offset="1" stop-color="#50e6ff"/></linearGradient><linearGradient id="c" gradientUnits="userSpaceOnUse" x1="9.024" x2="9.024" y1="15.782" y2="2.17"><stop offset=".003" stop-color="#8c8c8c"/><stop offset="1" stop-color="#b0b0b0"/></linearGradient><path d="m0 0h18v18h-18z" fill="none"/><path d="m8.974 5.705a1.3 1.3 0 0 0 -.973 0l-2.588 1.046a.6.6 0 0 0 -.377.558v3.321c0 .245.149.466.377.558l2.588 1.046a1.3 1.3 0 0 0 .973 0l3.661-1.216a.6.6 0 0 0 .377-.558l-.005-3.097a.6.6 0 0 0 -.377-.558z" fill="url(#a)"/><path d="m7.953 5.705-2.588 1.046a.6.6 0 0 0 -.377.558v3.321c0 .245.149.466.377.558l2.588 1.046c.156.063.321.095.486.095v-6.719c-.165 0-.33.032-.486.095" fill="#552f99"/><path d="m6.69 7.002v3.948c0 .038.025.072.063.083l.989.288a.086.086 0 0 0 .111-.083v-4.536c0-.058-.056-.1-.112-.083l-.989.3a.09.09 0 0 0 -.062.083m-1.231.359v3.173c0 .037.024.07.059.082l.678.226a.086.086 0 0 0 .114-.082v-3.6c0-.058-.056-.1-.112-.083l-.678.201a.09.09 0 0 0 -.062.083z" fill="#b77af4" opacity=".75"/><path d="m9.024 14.329c-.927 0-1.626.272-1.626.633v2.279c0 .361.699.633 1.626.633s1.626-.272 1.626-.633v-2.279c0-.361-.699-.633-1.626-.633m1.301 2.913c0 .155-.507.38-1.301.38s-1.301-.225-1.301-.38v-.75c.292.15.757.244 1.301.244s1.009-.094 1.301-.244zm0-1.14c0 .155-.507.38-1.301.38s-1.301-.225-1.301-.38v-.755c.395.177.846.263 1.301.248.455.015.906-.071 1.301-.248zm-1.301-15.977c-.927 0-1.626.272-1.626.633v2.279c0 .361.699.633 1.626.633s1.626-.272 1.626-.633v-2.279c0-.361-.699-.633-1.626-.633m1.301 2.913c0 .155-.507.38-1.301.38s-1.301-.225-1.301-.38v-.75c.292.15.757.244 1.301.244s1.009-.094 1.301-.244zm0-1.14c0 .155-.507.38-1.301.38s-1.301-.225-1.301-.38v-.755c.395.177.846.263 1.301.248.455.015.906-.071 1.301-.248zm-8.574 5.299c-.927 0-1.626.272-1.626.633v2.28c0 .361.699.633 1.626.633s1.626-.272 1.626-.633v-2.28c0-.361-.699-.633-1.626-.633m1.302 2.913c0 .155-.507.38-1.301.38s-1.301-.225-1.301-.38v-.75c.292.15.757.244 1.301.244s1.009-.094 1.301-.244zm0-1.14c0 .155-.507.38-1.301.38s-1.301-.225-1.301-.38v-.755c.395.177.846.263 1.301.248.455.015.906-.071 1.301-.248zm13.196-1.773c-.927 0-1.626.272-1.626.633v2.28c0 .361.699.633 1.626.633s1.626-.272 1.626-.633v-2.28c0-.361-.699-.633-1.626-.633m1.301 2.913c0 .155-.507.38-1.301.38s-1.301-.225-1.301-.38v-.75c.292.15.757.244 1.301.244s1.009-.094 1.301-.244zm0-1.14c0 .155-.507.38-1.301.38s-1.301-.225-1.301-.38v-.755c.395.177.846.263 1.301.248.455.015.906-.071 1.301-.248z" fill="url(#b)"/><path d="m2.171 6.771v-1.271c0-.365.219-.689.558-.826l4.225-1.707v-.797l-4.503 1.82a1.62 1.62 0 0 0 -1.021 1.51v1.264q.156-.01.322-.011.22 0 .419.017zm0 5.681v-1.283a5 5 0 0 1 -.741.006v1.277c0 .667.401 1.26 1.021 1.51l4.503 1.82v-.44q.001-.175.077-.326l-4.301-1.738a.89.89 0 0 1 -.558-.826zm13.428-8.462-4.503-1.82v.797l4.225 1.707a.89.89 0 0 1 .558.826v1.267a5 5 0 0 1 .741 0v-1.267c0-.667-.401-1.26-1.021-1.51m.279 7.182v1.28a.89.89 0 0 1 -.558.826l-4.301 1.738q.076.152.077.326v.44l4.503-1.82a1.62 1.62 0 0 0 1.021-1.51v-1.28a5 5 0 0 1 -.741 0z" fill="url(#c)"/></svg>