<svg height="48" viewBox="0 0 48 48" width="48" xmlns="http://www.w3.org/2000/svg"><path d="m25.924 36.053v.104h-3.938v-.104c0-.063.004-.094-.008-.08.245-.348.273-.763.023-1.108a.4.4 0 0 1 -.015-.12v-.104h3.938v.105c0 .053-.016.113.007.078-.245.346-.27.763-.022 1.109a.4.4 0 0 1 .015.12m-4.563-3.412c-.797 0-1.375.756-1.375 1.797v.308c0 .229.03.45.087.653a2.4 2.4 0 0 0 -.087.654v.309c0 1.04.578 1.795 1.375 1.795h5.187c.797 0 1.376-.755 1.376-1.795v-.31c0-.227-.03-.45-.087-.653.056-.203.087-.424.087-.653v-.308c0-1.041-.579-1.797-1.376-1.797zm5.127-4.91v2.273h-1.516v-5.91h.757v-2h-3.514v2h.757v5.91h-1.515v-2.272a1 1 0 0 0 -.578-.906c-2.625-1.222-4.256-3.757-4.256-6.617 0-4.052 3.297-7.35 7.35-7.35s7.35 3.298 7.35 7.35c0 2.86-1.632 5.395-4.257 6.617a1 1 0 0 0 -.578.906m-11.865-7.522c0 3.43 1.836 6.494 4.834 8.137v2.658a1 1 0 0 0 1 1h7.031a1 1 0 0 0 1-1v-2.658c2.998-1.644 4.834-4.706 4.834-8.137 0-5.155-4.194-9.35-9.35-9.35s-9.349 4.195-9.349 9.35m25.047 18.327c0 .626-.509 1.135-1.135 1.135h-29.125a1.136 1.136 0 0 1 -1.135-1.135v-29.113c0-.626.51-1.135 1.135-1.135h29.126c.626 0 1.135.509 1.135 1.135zm6.275-24.111v-2h-4.275v-3.002a3.14 3.14 0 0 0 -3.135-3.135h-3.015v-4.29h-2v4.29h-3.273v-4.29h-2v4.29h-3.274v-4.29h-2v4.29h-3.273v-4.29h-2v4.29h-3.273v-4.29h-2v4.29h-3.017a3.14 3.14 0 0 0 -3.135 3.135v3.002h-4.275v2h4.274v3.274h-4.274v2h4.274v3.273h-4.274v2h4.274v3.273h-4.274v2h4.274v3.274h-4.274v2h4.274v3.017a3.14 3.14 0 0 0 3.135 3.135h3.017v4.274h2v-4.274h3.274v4.274h2v-4.274h3.273v4.274h2v-4.274h3.274v4.274h2v-4.274h3.273v4.274h2v-4.274h3.016a3.14 3.14 0 0 0 3.135-3.135v-3.017h4.275v-2h-4.276v-3.274h4.275v-2h-4.275v-3.273h4.275v-2h-4.275v-3.273h4.275v-2h-4.275v-3.274z" fill="#7aa116" fill-rule="evenodd"/></svg>