<svg height="64" viewBox="0 0 64 64" width="64" xmlns="http://www.w3.org/2000/svg"><g fill="none" fill-rule="evenodd"><path d="m0 0h64v64h-64z" fill="#ed7100"/><path d="m26.943 37h4.057a1.002 1.002 0 0 1 .976 1.217l-.934 4.204 6.014-8.421h-4.056a1.002 1.002 0 0 1 -.977-1.217l.935-4.204zm2.057 11a1.001 1.001 0 0 1 -.977-1.217l1.73-7.783h-4.753a1.001 1.001 0 0 1 -.814-1.581l10-14a1 1 0 0 1 1.79.798l-1.729 7.783h4.753a1 1 0 0 1 .813 1.581l-10 14a1 1 0 0 1 -.813.419m-10 4h26v-31a1 1 0 0 1 1-1h3v-8h-5v4a1 1 0 0 1 -1 1h-7a1 1 0 0 1 -1-1v-4h-6v4a1 1 0 0 1 -1 1h-7a1 1 0 0 1 -1-1v-4h-5v8h3a1 1 0 0 1 1 1zm27 2h-28a1 1 0 0 1 -1-1v-31h-3a1 1 0 0 1 -1-1v-10a1 1 0 0 1 1-1h7a1 1 0 0 1 1 1v4h5v-4a1 1 0 0 1 1-1h8a1 1 0 0 1 1 1v4h5v-4a1 1 0 0 1 1-1h7a1 1 0 0 1 1 1v10a1 1 0 0 1 -1 1h-3v31a1 1 0 0 1 -1 1" fill="#fff"/></g></svg>