<svg viewBox="0 0 24 24" xmlns="http://www.w3.org/2000/svg"><path d="m8.033 1.291c-2.258.035-4.555.581-6.03.316a.112.112 0 0 0 -.099.191c1.244 1.182 1.716 2.375 3.097 2.536l.04.009c-.638.657-1.183 1.52-1.566 2.629-.412 1.19-.529 2.482-.665 3.973-.207 2.221-.437 4.736-1.69 7.89a21 21 0 0 0 -1.12 3.875h1.91a18.7 18.7 0 0 1 .95-3.187c1.353-3.405 1.608-6.179 1.813-8.409.126-1.37.237-2.556.574-3.53.982-2.828 3.324-3.449 5.15-3.095 1.771.343 3.514 1.73 3.423 3.713-.065 1.348-.654 1.954-1.085 2.398-.236.243-.462.473-.568.801-.256.775.009 1.64.716 2.325 1.876 1.75 2.897 5.037 2.841 8.984h1.87c.05-4.465-1.176-8.252-3.416-10.343-.177-.17-.227-.304-.269-.282.103-.13.272-.282.391-.406 2.478-1.838 6.563-.16 9.03.814.64.252.95-.366.343-.727-2.117-1.252-6.456-4.556-8.888-6.724-.34-.299-.573-.658-.966-.99-1.311-2.315-3.529-2.794-5.786-2.76m2.972 5.083a1 1 0 0 0 -.169.02 1.279 1.279 0 0 0 -.127 2.482 1.278 1.278 0 0 0 .8-2.428 1.3 1.3 0 0 0 -.504-.074m-3.735 12.413a.17.17 0 0 0 -.095.032c-.092.065-.163.257-.066.48.454 1.046.768 2.147 1.058 3.41h1.896c-.479-1.403-1.375-2.873-2.349-3.71-.17-.147-.33-.217-.443-.212z"/></svg>