<svg viewBox="0 0 24 24" xmlns="http://www.w3.org/2000/svg"><path d="m12 17.958a1.137 1.137 0 0 1 -1.138-1.136v-9.587a1.138 1.138 0 0 1 2.275 0v9.59c0 .625-.51 1.133-1.138 1.133m7.44 2.44a1.137 1.137 0 0 1 -1.14-1.138v-14.464a1.138 1.138 0 0 1 2.276 0v14.464c0 .627-.51 1.136-1.138 1.136m-3.717 3.604a1.137 1.137 0 0 1 -1.138-1.136v-21.726a1.138 1.138 0 0 1 2.276 0v21.726c0 .627-.509 1.136-1.138 1.136m-7.436-3.16a1.137 1.137 0 0 1 -1.138-1.136v-15.406a1.138 1.138 0 0 1 2.276 0v15.406c0 .628-.51 1.137-1.138 1.137m-3.72-4.989a1.137 1.137 0 0 1 -1.138-1.135v-5.431a1.138 1.138 0 0 1 2.276 0v5.432c0 .626-.51 1.135-1.138 1.135z"/></svg>