<svg height="48" viewBox="0 0 48 48" width="48" xmlns="http://www.w3.org/2000/svg"><path d="m36.868 33a3.7 3.7 0 0 0 -3.696-3.696 3.7 3.7 0 0 0 -3.696 3.696 3.7 3.7 0 0 0 3.696 3.696 3.7 3.7 0 0 0 3.696-3.696m2 0a5.703 5.703 0 0 1 -5.696 5.696 5.7 5.7 0 0 1 -5.696-5.696 5.7 5.7 0 0 1 5.696-5.696 5.703 5.703 0 0 1 5.696 5.696m5.304-1.327-.936.054a1.026 1.026 0 0 1 -1.032-.778 9.2 9.2 0 0 0 -1.196-2.884 1 1 0 0 1 .179-1.28l.701-.625-1.876-1.876-.628.704c-.328.365-.869.44-1.281.179a9.2 9.2 0 0 0 -2.881-1.194 1 1 0 0 1 -.777-1.032l.053-.941h-2.652l.053.939a1 1 0 0 1 -.777 1.033 9.2 9.2 0 0 0 -2.884 1.194 1 1 0 0 1 -1.28-.18l-.626-.702-1.876 1.876.702.626c.365.326.441.868.18 1.281a9.2 9.2 0 0 0 -1.198 2.883c-.109.476-.579.8-1.032.777l-.936-.054v2.653l.933-.053c.464-.018.926.302 1.033.78a9.2 9.2 0 0 0 1.194 2.887 1 1 0 0 1 -.181 1.28l-.695.62 1.876 1.876.621-.696a1 1 0 0 1 1.28-.18 9.2 9.2 0 0 0 2.889 1.198 1 1 0 0 1 .777 1.033l-.052.929h2.651l-.053-.928a1 1 0 0 1 .777-1.032 9.2 9.2 0 0 0 2.891-1.198 1 1 0 0 1 1.28.18l.62.694 1.875-1.876-.698-.622a1 1 0 0 1 -.179-1.28 9.2 9.2 0 0 0 1.194-2.886 1.02 1.02 0 0 1 1.032-.779l.935.053zm1.686-1.785c.2.189.314.452.314.727v4.77a1 1 0 0 1 -1.057.998l-1.178-.067a11 11 0 0 1 -.807 1.952l.88.785a1 1 0 0 1 .041 1.453l-3.373 3.373a.998.998 0 0 1 -1.454-.042l-.781-.876q-.938.497-1.955.81l.067 1.171a1.003 1.003 0 0 1 -.999 1.058h-4.769a1.001 1.001 0 0 1 -.998-1.058l.067-1.172a11 11 0 0 1 -1.953-.811l-.784.878a1 1 0 0 1 -1.453.042l-3.373-3.373a1 1 0 0 1 .042-1.454l.878-.783a11 11 0 0 1 -.808-1.953l-1.177.067a1 1 0 0 1 -1.056-.998v-4.77a1 1 0 0 1 1.056-.999l1.182.068q.311-1.012.809-1.948l-.884-.788a1 1 0 0 1 -.042-1.453l3.373-3.373a1.002 1.002 0 0 1 1.453.041l.789.884q.934-.496 1.948-.807l-.067-1.183a1 1 0 0 1 .998-1.057h4.769a1 1 0 0 1 .999 1.056l-.067 1.186q1.01.312 1.945.806l.791-.885c.184-.205.443-.326.718-.334a.97.97 0 0 1 .736.293l3.373 3.373a1.002 1.002 0 0 1 -.041 1.453l-.883.787q.496.936.808 1.949l1.18-.068c.273-.011.544.083.743.272m-38.858 14.112h12v2h-12c-2.757 0-5-2.243-5-5v-34c0-2.757 2.243-5 5-5h34c2.757 0 5 2.243 5 5v13h-2v-13c0-1.654-1.346-3-3-3h-34c-1.654 0-3 1.346-3 3v34c0 1.654 1.346 3 3 3" fill="#8c4fff" fill-rule="evenodd"/></svg>