<svg xmlns="http://www.w3.org/2000/svg" width="64" height="64" viewBox="0 0 64 64"><title>Icon-Architecture/48/Arch_AWS-Entity-Resolution_48</title><g id="Icon-Architecture/48/Arch_AWS-Entity-Resolution_48" fill="none" fill-rule="evenodd" stroke="none" stroke-width="1"><g id="Icon-Architecture-BG/48/Analytics" fill="#8c4fff"><path id="Rectangle" d="M0 0h64v64H0z"/></g><g id="Icon-Service/48/AWS-Entity-Resolution_48" fill="#fff" transform="translate(10 10)"><path id="Fill-1" d="M39 32c-1.654 0-3-1.346-3-3s1.346-3 3-3 3 1.346 3 3-1.346 3-3 3m-13.125 2.923 5.419-11.46 3.28 3.261A4.9 4.9 0 0 0 34 29c0 .676.138 1.319.382 1.908l-7.489 4.993a5 5 0 0 0-1.018-.978M23 42c-1.654 0-3-1.346-3-3s1.346-3 3-3 3 1.346 3 3-1.346 3-3 3M2 20c0-1.654 1.346-3 3-3s3 1.346 3 3-1.346 3-3 3-3-1.346-3-3m19.517-6.26 8.272 8.226-5.744 12.148A5 5 0 0 0 23 34c-.825 0-1.593.22-2.28.576L9.11 22.836c.559-.807.89-1.783.89-2.836a5 5 0 0 0-.153-1.17zM17.576 7a5 5 0 0 0 .323-1h16.202c.005.022.014.042.018.063l-12.155 5.301zM13 8c-1.654 0-3-1.346-3-3s1.346-3 3-3 3 1.346 3 3-1.346 3-3 3m26-6c1.654 0 3 1.346 3 3s-1.346 3-3 3-3-1.346-3-3 1.346-3 3-3m-8.304 18.048-7.207-7.167 11.445-4.992c.284.399.631.745 1.017 1.045zM39 24c-1.206 0-2.299.447-3.163 1.16l-3.636-3.616L37.744 9.82c.404.106.82.18 1.256.18 2.757 0 5-2.243 5-5s-2.243-5-5-5a5.01 5.01 0 0 0-4.899 4H17.899A5.01 5.01 0 0 0 13 0c-2.757 0-5 2.243-5 5s2.243 5 5 5c1.314 0 2.503-.52 3.396-1.352l3.596 3.576-11 4.797C8.079 15.802 6.637 15 5 15c-2.757 0-5 2.243-5 5s2.243 5 5 5c.981 0 1.89-.294 2.663-.784L19.158 35.84C18.446 36.704 18 37.796 18 39c0 2.757 2.243 5 5 5s5-2.243 5-5c0-.454-.08-.886-.194-1.304l7.697-5.132A4.98 4.98 0 0 0 39 34c2.757 0 5-2.243 5-5s-2.243-5-5-5"/></g></g></svg>