<svg height="64" viewBox="0 0 64 64" width="64" xmlns="http://www.w3.org/2000/svg"><g fill="none" fill-rule="evenodd"><path d="m0 0h64v64h-64z" fill="#8c4fff"/><path d="m39 32c-1.654 0-3-1.346-3-3s1.346-3 3-3 3 1.346 3 3-1.346 3-3 3m-13.125 2.923 5.419-11.46 3.28 3.261a4.9 4.9 0 0 0 -.574 2.276c0 .676.138 1.319.382 1.908l-7.489 4.993a5 5 0 0 0 -1.018-.978m-2.875 7.077c-1.654 0-3-1.346-3-3s1.346-3 3-3 3 1.346 3 3-1.346 3-3 3m-21-22c0-1.654 1.346-3 3-3s3 1.346 3 3-1.346 3-3 3-3-1.346-3-3m19.517-6.26 8.272 8.226-5.744 12.148a5 5 0 0 0 -1.045-.114c-.825 0-1.593.22-2.28.576l-11.61-11.74c.559-.807.89-1.783.89-2.836a5 5 0 0 0 -.153-1.17zm-3.941-6.74a5 5 0 0 0 .323-1h16.202c.005.022.014.042.018.063l-12.155 5.301zm-4.576 1c-1.654 0-3-1.346-3-3s1.346-3 3-3 3 1.346 3 3-1.346 3-3 3m26-6c1.654 0 3 1.346 3 3s-1.346 3-3 3-3-1.346-3-3 1.346-3 3-3m-8.304 18.048-7.207-7.167 11.445-4.992c.284.399.631.745 1.017 1.045zm8.304 3.952c-1.206 0-2.299.447-3.163 1.16l-3.636-3.616 5.543-11.724c.404.106.82.18 1.256.18 2.757 0 5-2.243 5-5s-2.243-5-5-5a5.01 5.01 0 0 0 -4.899 4h-16.202a5.01 5.01 0 0 0 -4.899-4c-2.757 0-5 2.243-5 5s2.243 5 5 5c1.314 0 2.503-.52 3.396-1.352l3.596 3.576-11 4.797c-.913-1.219-2.355-2.021-3.992-2.021-2.757 0-5 2.243-5 5s2.243 5 5 5c.981 0 1.89-.294 2.663-.784l11.495 11.624c-.712.864-1.158 1.956-1.158 3.16 0 2.757 2.243 5 5 5s5-2.243 5-5c0-.454-.08-.886-.194-1.304l7.697-5.132a4.98 4.98 0 0 0 3.497 1.436c2.757 0 5-2.243 5-5s-2.243-5-5-5" fill="#fff" transform="translate(10 10)"/></g></svg>