<svg viewBox="0 0 24 24" xmlns="http://www.w3.org/2000/svg"><path d="m14.044 0c.243 0 .486.202.486.486v5.423l3.804-3.845c.202-.202.526-.202.688 0l2.914 2.914c.162.162.202.486 0 .648v.04l-3.846 3.804h5.423c.284 0 .486.203.486.486v4.088a.468.468 0 0 1 -.486.486h-5.423l3.845 3.804c.162.202.202.526 0 .688l-2.914 2.914c-.162.162-.486.202-.648 0h-.04l-3.803-3.846v5.423a.468.468 0 0 1 -.486.486h-4.088a.468.468 0 0 1 -.486-.486v-2.833c0-.89.365-1.74.972-2.388l5.261-5.261a1.466 1.466 0 0 0 0-2.064l-5.22-5.221a3.4 3.4 0 0 1 -1.013-2.387v-2.873c0-.284.203-.486.486-.486zm-8.459 2.105h.04l8.864 8.863a1.466 1.466 0 0 1 0 2.064l-8.863 8.904c-.162.202-.486.202-.688 0l-2.874-2.833c-.162-.203-.202-.486 0-.688l3.846-3.885h-5.424a.468.468 0 0 1 -.486-.487v-4.087c0-.283.202-.486.486-.486h5.423l-3.845-3.804a.548.548 0 0 1 0-.688l2.874-2.873a.421.421 0 0 1 .647 0z"/></svg>