<svg height="18" viewBox="0 0 18 18" width="18" xmlns="http://www.w3.org/2000/svg" xmlns:xlink="http://www.w3.org/1999/xlink"><linearGradient id="a" gradientTransform="matrix(.70710678 .70710678 .70710678 -.70710678 -390.922118 752.45948)" gradientUnits="userSpaceOnUse" x1="-245.439" x2="-245.439" y1="803.355" y2="815.481"><stop offset="0" stop-color="#ef7100"/><stop offset=".82" stop-color="#f78d1e"/></linearGradient><path d="m9.3 14.752c0-.154-.613-.154-.613 0a1.656 1.656 0 0 1 -1.636 1.8h3.882a1.655 1.655 0 0 1 -1.633-1.8" fill="#999"/><path d="m13.335 1.1a.57.57 0 0 1 .807 0l.026.028a8.32 8.32 0 0 1 -11.736 11.73.57.57 0 0 1 -.049-.8l.025-.026a.57.57 0 0 1 .782-.032 7.178 7.178 0 0 0 10.122-10.118.573.573 0 0 1 .023-.782m-1.389 16.4h-5.9a.476.476 0 0 1 -.476-.476.476.476 0 0 1 .476-.476h5.9a.476.476 0 0 1 .475.476.476.476 0 0 1 -.475.476" fill="#a3a3a3"/><circle cx="7.871" cy="6.563" fill="url(#a)" r="6.063"/><path d="m4.15 9.515h7.562a.293.293 0 0 0 .251-.443l-3.78-6.355a.293.293 0 0 0 -.5 0l-3.783 6.355a.293.293 0 0 0 .25.443" fill="#f2f2f2"/><g fill="#f78d1e"><path d="m8.254 7.571h-.646a.146.146 0 0 1 -.152-.134l-.069-2.946a.144.144 0 0 1 .151-.14h.786a.144.144 0 0 1 .151.14l-.069 2.946a.146.146 0 0 1 -.152.134"/><circle cx="7.931" cy="8.451" r=".516"/></g></svg>