<svg xmlns="http://www.w3.org/2000/svg" width="18" height="18" viewBox="0 0 18 18">
  <defs>
    <mask id="ko">
      <rect width="18" height="18" fill="white"/>
      <path fill="black" d="M9.7 1.36v3.92a1.44 1.44 0 0 0 1.44 1.43h3.95v9.93H2.91V1.36zM10 .5H2.64a.58.58 0 0 0-.58.58v15.84a.58.58 0 0 0 .58.58h12.72a.58.58 0 0 0 .58-.58V6.44a.58.58 0 0 0-.58-.58h-4.22a.58.58 0 0 1-.58-.58v-4.2A.58.58 0 0 0 10 .5"/>
      <path fill="black" d="M15.72 6 10.36.63V5a1 1 0 0 0 1 1z"/>
      <path fill="black" d="M10.41 11.18a2.21 2.21 0 0 1-2.93 0l-.18 3.63a.29.29 0 0 0 .5.22l1.12-1.15L10.06 15a.29.29 0 0 0 .49-.22z"/>
      <circle fill="black" cx="8.98" cy="9.31" r="0"/>
      <circle fill="black" cx="8.98" cy="9.31" r="0"/>
    </mask>
  </defs>
  <g>
    <path fill="currentColor" mask="url(#ko)" d="M10 .63H2.73a.57.57 0 0 0-.57.57v15.6a.57.57 0 0 0 .57.57h12.54a.57.57 0 0 0 .57-.57V6.48a.58.58 0 0 0-.57-.58h-4.16a.56.56 0 0 1-.57-.57V1.2A.57.57 0 0 0 10 .63"/>
  </g>
</svg>