<svg height="18" viewBox="0 0 18 18" width="18" xmlns="http://www.w3.org/2000/svg" xmlns:xlink="http://www.w3.org/1999/xlink"><linearGradient id="a" gradientTransform="matrix(1.147 0 0 .716 567.077 439.786)" gradientUnits="userSpaceOnUse" x1="-485.564" x2="-485.564" y1="-607.983" y2="-600.613"><stop offset=".302" stop-color="#0078d4"/><stop offset="1" stop-color="#005ba1"/></linearGradient><linearGradient id="b" gradientTransform="matrix(.70710678 .70710678 -.70710678 .70710678 120.614748 555.62224)" gradientUnits="userSpaceOnUse" x1="-465.421" x2="-465.421" y1="-302.323" y2="-299.441"><stop offset="0" stop-color="#9cebff"/><stop offset="1" stop-color="#50e6ff"/></linearGradient><linearGradient id="c" gradientTransform="matrix(.70710678 .70710678 -.70710678 .70710678 120.614748 555.62224)" gradientUnits="userSpaceOnUse" x1="-465.421" x2="-465.421" y1="-307.134" y2="-302.876"><stop offset="0" stop-color="#5ea0ef"/><stop offset="1" stop-color="#0078d4"/></linearGradient><path d="m9.192 17.636a.445.445 0 0 1 0-.889 7.9 7.9 0 0 0 5.472-13.523 7.9 7.9 0 0 0 -13.431 5.694.445.445 0 1 1 -.889.007 8.784 8.784 0 0 1 14.943-6.335 8.784 8.784 0 0 1 -6.087 15.046z" fill="#e6e6e6"/><path d="m4.212 17.93a4.246 4.246 0 0 1 -4.081-3.614 4 4 0 0 1 -.041-.628c.007-.281.143-.45.363-.454s.4.163.4.451a3.26 3.26 0 0 0 .281 1.43 3.38 3.38 0 0 0 2.766 2.049c.161.021.325.03.487.038.261.012.4.13.4.356s-.14.358-.389.372c-.062.003-.124 0-.186 0" fill="#b3b3b3" opacity=".51"/><path d="m4.248 16.533a2.81 2.81 0 0 1 -2.748-2.875 1 1 0 0 1 .043-.275.33.33 0 0 1 .335-.24.335.335 0 0 1 .346.224.9.9 0 0 1 .038.369 2.05 2.05 0 0 0 2.038 2.029 2 2 0 0 1 .233.006.39.39 0 0 1 .345.425.35.35 0 0 1 -.373.336c-.085.004-.171.001-.257.001" fill="#b3b3b3" opacity=".51"/><rect fill="url(#a)" height="3.541" rx=".49" transform="matrix(.70710678 .70710678 -.70710678 .70710678 8.637728 -4.721319)" width="14.353" x="2.842" y="6.296"/><path d="m5.875 11.519.638.638-1.335 1.334-.638-.638z" fill="#005ba1"/><circle cx="4.202" cy="13.83" fill="url(#b)" r="1.134"/><path d="m7.085 7.635 3.313 3.313-.656.656-3.314-3.313zm5.017-3.448 1.743 1.743a.23.23 0 0 1 0 .324l-1.005 1.006-2.067-2.067 1.005-1.006a.23.23 0 0 1 .324 0" fill="#005ba1"/><path d="m10.554 4.973 2.505 2.505a.576.576 0 0 1 0 .815l-2.663 2.663-3.323-3.323 2.663-2.663a.576.576 0 0 1 .818.003" fill="#50e6ff"/><path d="m7.725 14.275-3.972-3.96a.786.786 0 0 1 .331-1.3l2.4-.767 3.324 3.324-.788 2.377a.787.787 0 0 1 -1.295.326" fill="url(#c)"/></svg>