<svg xmlns="http://www.w3.org/2000/svg" width="18" height="18" viewBox="0 0 18 18"><path fill="currentColor" d="m16.637 12.107-.802.805a.363.363 0 0 1-.513 0L9.387 6.994a.727.727 0 0 1-.002-1.028l.802-.805 6.45 6.432a.363.363 0 0 1 0 .514"/><path fill="currentColor" d="m15.716.106.804.802a.363.363 0 0 1 0 .513l-6.337 6.356-.805-.802a.727.727 0 0 1-.001-1.028L15.2.107a.363.363 0 0 1 .513-.001Z"/><path fill="currentColor" d="m7.813 10.143.802.805a.727.727 0 0 1-.002 1.028l-5.935 5.918a.363.363 0 0 1-.513 0l-.803-.805a.363.363 0 0 1 0-.514z"/><path fill="currentColor" d="m8.621 11.956-.804.803L1.48 6.404a.363.363 0 0 1 0-.513l.805-.803a.363.363 0 0 1 .513.001l5.824 5.84a.727.727 0 0 1-.001 1.029Z"/></svg>