<svg viewBox="0 0 24 24" xmlns="http://www.w3.org/2000/svg" fill="#0082F0"><path d="m20.76 1.593a2.36 2.36 0 0 0 -1.188-1.368c-.54-.27-1.188-.336-2.256.02l-12.129 4.045c-1.068.357-1.548.795-1.818 1.338a2.36 2.36 0 0 0 1.059 3.174c.54.27 1.188.336 2.256-.021l12.129-4.044c1.068-.354 1.548-.795 1.818-1.338a2.35 2.35 0 0 0 .13-1.806zm0 7.485a2.36 2.36 0 0 0 -1.188-1.368c-.54-.27-1.188-.336-2.256.021l-12.129 4.044c-1.068.357-1.548.795-1.818 1.338a2.36 2.36 0 0 0 1.059 3.174c.54.27 1.188.336 2.256-.021l12.129-4.041c1.068-.357 1.548-.795 1.818-1.341a2.35 2.35 0 0 0 .13-1.806zm0 7.488a2.36 2.36 0 0 0 -1.188-1.368c-.54-.27-1.188-.336-2.256.021l-12.129 4.044c-1.068.357-1.548.795-1.818 1.338a2.36 2.36 0 0 0 1.059 3.174c.54.27 1.188.336 2.256-.02l12.129-4.045c1.068-.354 1.548-.795 1.818-1.338a2.35 2.35 0 0 0 .13-1.806z"/></svg>