<svg height="18" viewBox="0 0 18 18" width="18" xmlns="http://www.w3.org/2000/svg"><path d="m10.312 3.991a3.52 3.52 0 0 1 -3.491 3.553 3.52 3.52 0 0 1 -3.553-3.491 3.52 3.52 0 0 1 3.491-3.553h.031a3.506 3.506 0 0 1 3.522 3.49" fill="#59b4d9"/><path d="m17.389 16.353-1.789-3.011-1.787-3.1a.628.628 0 0 0 -1.129 0l-1.784 2.912-1.787 3.2a.66.66 0 0 0 .564 1.035h7.15a.659.659 0 0 0 .564-1.035zm-4.045-4.234h.471l-.189 2.728h-.752l-.094-2.728zm-.094 4.139a.565.565 0 1 1 .565-.564.564.564 0 0 1 -.565.564" fill="#ff8c00"/><path d="m8.468 17.411a1.37 1.37 0 0 1 -.176-.705 1.5 1.5 0 0 1 .208-.706l1.783-3.19.007-.013.007-.012 1.783-2.915a1.4 1.4 0 0 1 1-.681v-.509h-3.715l-2.575 3.577-2.575-3.577h-3.715v8.82h8.026q-.03-.043-.058-.089" fill="#59b4d9"/></svg>