<svg xmlns="http://www.w3.org/2000/svg" width="130" height="40" fill="none" viewBox="0 0 130 40"><g clip-path="url(#a)"><path fill="#a6192e" d="m29.39 10.02-.44-5.71-1.39 4.42h-1.93l-1.39-4.42-.43 5.71h-2.22v-.95l.97-8.93h2.42l1.62 5.02L28.21.14h2.43l.96 8.91v.97zM37.5.14h-2.17v9.88h2.17zm8.59 9.88-2.37-5.35.13 1.61v3.74h-2.16V.14h2.16l2.37 5.35-.13-1.62V.14h2.16v9.88zm10.76 0-2.37-5.35.13 1.61v3.74h-2.16V.14h2.16l2.37 5.35-.13-1.62V.14h2.16v9.88zm6.36 0V.14h6.09v1.3l-.59.59h-3.33v2.03h2.84v1.9h-2.84v2.16h3.92v1.9zm9.14 0v-1.9h3.72c.28 0 .47-.17.47-.41V6.56c0-.06 0-.24-.39-.35l-2.03-.54c-1.1-.3-1.71-1.04-1.71-2.09V2.16c0-1.21.87-2.03 2.17-2.03h3.86v1.3l-.59.59h-2.79c-.28 0-.47.17-.47.41v1.02c0 .06 0 .24.39.35l2.03.54c1.1.3 1.71 1.04 1.71 2.09v1.56c0 1.21-.87 2.03-2.17 2.03zm11.98.13c-1.3 0-2.17-.82-2.17-2.03V2.03c0-1.21.87-2.03 2.17-2.03h2.57c1.3 0 2.17.82 2.17 2.03v6.09c0 1.21-.87 2.03-2.17 2.03zm.47-8.26c-.28 0-.47.17-.47.41v5.55c0 .24.19.41.47.41h1.62c.28 0 .47-.17.47-.41V2.3c0-.24-.19-.41-.47-.41zm9.54 8.13V2.03h-2.23V.14h6.63v1.3l-.59.59h-1.64v7.99zm11.82 0-.47-2.03h-2.25l-.47 2.03h-2.12v-.97l2.41-8.91h2.61l2.42 8.91v.97zm-.91-3.93-.69-2.81-.69 2.81z"/><path fill="#ddcba4" d="M123.4 13.75H92.27l3.98 3.99v22.27h27.14c3.88 0 6.47-2.25 6.47-5.63v-15c0-3.38-2.59-5.63-6.47-5.63zm-3.45 19.13h-13.77v-12h13.77zm-69.4-19.13h9.92V40h-9.92zm41.89 23.11V32.5H74.51V13.75h-9.92V40H89.3zM33.43 13.75v15h-.5l-3.49-10.88H17.46l-3.49 10.88h-.5v-15H0v3.75L6.04 40h13.42l.86-2.69 1.25-3.88h-1.16l3.04-9.31 3.03 9.31h-1.15l1.31 4.08.8 2.49h13.42l6.04-22.5v-3.75z"/><path fill="#a6192e" d="m20.1 2.96-8.41.34-.15-3.15-3.12 3.66L.12 6.2l6.31.15-3.49 4.93 5.72-3.45 3.12 2.02-.01-3.94zM129.75 6.2l-8.3-2.39-3.12-3.66-.15 3.15-8.4-.34 8.32 2.95-.01 3.94 3.12-2.02 5.72 3.45-3.49-4.93z"/></g><defs><clipPath id="a"><path fill="#fff" d="M0 0h130v40H0z"/></clipPath></defs></svg>