<svg height="283.4649" viewBox="0 0 249.2444 283.4649" width="249.2444" xmlns="http://www.w3.org/2000/svg"><g fill-rule="evenodd"><path d="m121.8702 274.2259-110.6978-63.911c-1.7251-.9922-2.692-2.7961-2.6935-4.6531h-.0223v-127.859c0-2.1761 1.2903-4.051 3.1461-4.9022l110.3448-63.7064c1.7436-1.0018 3.8135-.9162 5.4253.0445l110.6988 63.9108c1.7258.9915 2.6924 2.7964 2.6935 4.6533h.0221v127.859c0 2.1759-1.2897 4.0504-3.1461 4.9017l-110.3451 63.7069c-1.7436 1.0021-3.8132.9165-5.4258-.0445zm-102.6341-71.6493 105.3856 60.8439 105.3862-60.8439v-121.6888l-105.3862-60.8434-105.3856 60.8434z" fill="#000200"/><path d="m124.6217 13.8473-110.7751 191.8145h221.5508z" fill="#ff0"/><g fill="#000200"><path d="m124.6217 24.5997-101.4533 175.672h202.9076zm-115.4281 178.3672 110.7371-191.7488c.4552-.8149 1.1293-1.5222 1.9962-2.0239 2.5698-1.4882 5.8597-.6111 7.3479 1.9585l110.592 191.4947c.5817.8603.9204 1.8973.9204 3.0144 0 2.9764-2.4128 5.3892-5.3895 5.3892h-221.5514v-.0122c-.9158.002-1.8447-.2318-2.6948-.7239-2.5697-1.4882-3.4461-4.7781-1.9579-7.348z"/><path d="m11.1724 82.4556c-2.5699-1.4765-3.456-4.7574-1.9788-7.3273 1.4765-2.5696 4.7571-3.4557 7.327-1.9788l108.1011 62.3866 108.1021-62.3866c2.5699-1.4769 5.8501-.5908 7.3273 1.9788 1.4765 2.5699.5904 5.8508-1.9795 7.3273l-110.6997 63.8853c-1.612.9601-3.6813 1.0457-5.4244.0436z"/><path d="m130.0113 269.6174c0 2.9763-2.4132 5.3898-5.3896 5.3898-2.9763 0-5.3897-2.4135-5.3897-5.3898v-127.8857c0-2.9763 2.4134-5.3895 5.3897-5.3895 2.9764 0 5.3896 2.4132 5.3896 5.3895z"/><path d="m235.3977 219.5082c7.6468 0 13.8467-6.1988 13.8467-13.8464 0-7.6482-6.1999-13.847-13.8467-13.847-7.6479 0-13.8469 6.1988-13.8469 13.847 0 7.6476 6.199 13.8464 13.8469 13.8464z"/><path d="m235.3977 91.6501c7.6468 0 13.8467-6.2 13.8467-13.8473 0-7.6478-6.1999-13.8466-13.8467-13.8466-7.6479 0-13.8469 6.1988-13.8469 13.8466 0 7.6473 6.199 13.8473 13.8469 13.8473z"/><path d="m13.8463 91.6501c7.6476 0 13.8476-6.2 13.8476-13.8473 0-7.6478-6.2-13.8466-13.8476-13.8466-7.647 0-13.8463 6.1988-13.8463 13.8466 0 7.6473 6.1993 13.8473 13.8463 13.8473z"/><path d="m13.8463 219.5082c7.6476 0 13.8476-6.1988 13.8476-13.8464 0-7.6482-6.2-13.847-13.8476-13.847-7.647 0-13.8463 6.1988-13.8463 13.847 0 7.6476 6.1993 13.8464 13.8463 13.8464z"/><path d="m124.6217 283.4649c7.6476 0 13.8476-6.2 13.8476-13.8475 0-7.6471-6.2-13.8464-13.8476-13.8464-7.6475 0-13.8463 6.1993-13.8463 13.8464 0 7.6475 6.1988 13.8475 13.8463 13.8475z"/><path d="m124.6217 155.579c7.6476 0 13.8476-6.1999 13.8476-13.8473 0-7.6473-6.2-13.8463-13.8476-13.8463-7.6475 0-13.8463 6.199-13.8463 13.8463 0 7.6474 6.1988 13.8473 13.8463 13.8473z"/><path d="m124.6217 27.6942c7.6476 0 13.8476-6.1999 13.8476-13.8466 0-7.6476-6.2-13.8476-13.8476-13.8476-7.6475 0-13.8463 6.2-13.8463 13.8476 0 7.6467 6.1988 13.8466 13.8463 13.8466z"/></g></g></svg>