<svg height="64" viewBox="0 0 64 64" width="64" xmlns="http://www.w3.org/2000/svg"><g fill="none" fill-rule="evenodd"><path d="m0 0h64v64h-64z" fill="#ed7100"/><path d="m42.467 46.382v-3.764l1.994-1v3.764zm-3.987-4.764 1.994 1v3.764l-1.994-1zm-4.983 9.764v-3.764l1.993-1v3.764zm-3.987-4.764 1.993 1v3.764l-1.993-1zm-4.984-.236v-3.764l1.994-1v3.764zm-3.987-4.764 1.994 1v3.764l-1.994-1zm2.99-2.5 1.759.882-1.758.882-1.76-.882zm8.971 5 1.758.882-1.758.882-1.758-.882zm8.97-5 1.76.882-1.759.882-1.759-.882zm4.433-.012-3.987-2a.99.99 0 0 0 -.891 0l-3.987 2a1 1 0 0 0 -.551.894v3.882l-3.541-1.776a.99.99 0 0 0 -.892 0l-3.54 1.776v-3.882a1 1 0 0 0 -.552-.894l-3.987-2a.99.99 0 0 0 -.89 0l-3.988 2a1 1 0 0 0 -.55.894v6c0 .379.212.725.55.895l3.987 2a1 1 0 0 0 .891 0l3.541-1.777v3.882c0 .379.214.725.552.895l3.986 2a1 1 0 0 0 .892 0l3.986-2c.338-.17.552-.516.552-.895v-3.882l3.54 1.777a1 1 0 0 0 .892 0l3.987-2c.338-.17.55-.516.55-.895v-6a1 1 0 0 0 -.55-.894m8.097-11.016c0 5.103-11.077 7.856-21.5 7.856s-21.5-2.753-21.5-7.856c0-2.461 2.68-4.616 7.547-6.067l.568 1.917c-3.776 1.126-6.122 2.716-6.122 4.15 0 2.764 8.343 5.856 19.507 5.856s19.507-3.092 19.507-5.856c0-1.434-2.346-3.024-6.122-4.15l.568-1.917c4.867 1.451 7.547 3.606 7.547 6.067m-21.5-16.026 8.047 2.936-8.047 2.936-8.047-2.936zm8.868 16.584c-1.556.7-4.155 1.516-7.871 1.645v-10.592l8.97-3.273v10.485c0 .754-.431 1.435-1.1 1.735m-18.835-1.735v-10.485l8.97 3.273v10.592c-3.716-.129-6.315-.945-7.87-1.645-.669-.3-1.1-.981-1.1-1.735m.283 3.56c1.87.842 5.07 1.846 9.684 1.846 4.615 0 7.813-1.004 9.684-1.846 1.383-.622 2.277-2.019 2.277-3.56v-11.913a1 1 0 0 0 -.656-.94l-10.964-4a1 1 0 0 0 -.682 0l-10.964 4a1 1 0 0 0 -.656.94v11.913c0 1.541.894 2.938 2.277 3.56" fill="#fff"/></g></svg>