<svg height="48" viewBox="0 0 48 48" width="48" xmlns="http://www.w3.org/2000/svg"><path d="m4 33v-28h20v2h-17v26zm36.943 1.14v2c1.076 0 3.183 1.061 3.183 3.516 0 4.186-3.836 4.34-4.27 4.344h-18.228c-3.314 0-5.628-1.73-5.628-4.207v-.313c0-2.422 2.644-3.486 4.267-3.911a1.001 1.001 0 0 0 .806-1.102c-.018-.152-.008-.333-.002-.507q.007-.18.008-.343c0-2.062 1.616-5.054 3.779-5.971 2.421-1.023 4.445-.267 5.715.545l1.078-1.685c-2.371-1.516-5.058-1.765-7.573-.701-2.71 1.148-4.999 4.726-4.999 7.812l-.005.216c-2.105.674-3.606 1.773-4.407 3.167h-5.667v-28h20v13h2v-15h-5v-4h-24v32h5v4h7.043c-.014.16-.043.315-.043.48v.313c0 3.597 3.208 6.207 7.628 6.207h18.228c2.169 0 6.27-1.326 6.27-6.344 0-3.599-3.01-5.516-5.183-5.516m-2.999-10.14c1.649 0 2.846 1.197 2.846 2.847 0 1.071-1.475 3.764-2.846 5.895-1.372-2.131-2.846-4.823-2.846-5.895 0-1.65 1.197-2.847 2.846-2.847m0 11.539a1 1 0 0 0 .82-.427c.673-.963 4.026-5.882 4.026-8.265 0-2.763-2.083-4.847-4.846-4.847s-4.846 2.084-4.846 4.847c0 2.383 3.354 7.303 4.027 8.265a1 1 0 0 0 .819.427" fill="#8c4fff" fill-rule="evenodd"/></svg>