<svg height="48" viewBox="0 0 48 48" width="48" xmlns="http://www.w3.org/2000/svg"><path d="m37 39.121h5v-2h-5zm-5 2 .071-.003a1 1 0 0 0 .729-.397l3-4-1.6-1.2-2.308 3.077-1.185-1.184-1.414 1.414 2 2a1 1 0 0 0 .707.293m5-9h5v-2h-5zm-5 2 .071-.003a1 1 0 0 0 .729-.397l3-4-1.6-1.2-2.308 3.077-1.185-1.184-1.414 1.414 2 2a1 1 0 0 0 .707.293m-4 9.872h16v-19h-16zm18-20v21a1 1 0 0 1 -1 1h-18a1 1 0 0 1 -1-1v-21a1 1 0 0 1 1-1h18a1 1 0 0 1 1 1m-26 2a1 1 0 0 0 .707-.293l3-3-1.414-1.414-1.293 1.293v-9.172l1.293 1.293 1.414-1.414-3-3a1 1 0 0 0 -1.414 0l-3 3 1.414 1.414 1.293-1.293v9.172l-1.293-1.293-1.414 1.414 3 3a1 1 0 0 0 .707.293m-5.293-4.293 3-3a1 1 0 0 0 0-1.414l-3-3-1.414 1.414 1.293 1.293h-3.586v2h3.586l-1.293 1.293zm10.707-2.707h3.586v-2h-3.586l1.293-1.293-1.414-1.414-3 3a1 1 0 0 0 0 1.414l3 3 1.414-1.414zm-13.414 10h12v2h-12c-.51 0-.961.004-1.365.007q-.479.005-.887.005c-1.476 0-2.359-.07-3.352-.558-2.028-.997-4.396-3.683-4.396-7.972 0-5.353 3.532-7.405 5.71-8.162l-.031-.539c-.002-4.5 2.965-9.11 6.899-10.781 4.607-1.958 9.488-.985 13.054 2.603 1.045 1.05 1.911 2.311 2.586 3.761a5.45 5.45 0 0 1 4.964-.824c2.261.743 3.682 2.802 3.887 5.577 2.508.718 5.933 2.896 6.901 6.768l-1.94.486c-.947-3.787-4.736-5.234-6.117-5.472a1 1 0 0 1 -.819-1.133c.002-2.197-.923-3.796-2.536-4.326-1.418-.466-2.986.05-3.896 1.284a1 1 0 0 1 -.952.396 1 1 0 0 1 -.796-.657c-.627-1.782-1.536-3.279-2.7-4.45-1.426-1.434-5.336-4.516-10.855-2.173-3.186 1.354-5.682 5.256-5.682 8.883l.076 1.267c.028.478-.286.908-.749 1.028-1.869.479-5.004 1.957-5.004 6.464 0 3.37 1.766 5.434 3.278 6.177.719.354 1.326.364 3.34.348.409-.003.866-.007 1.382-.007" fill="#8c4fff" fill-rule="evenodd"/></svg>