<svg xmlns="http://www.w3.org/2000/svg" viewBox="0 0 50 50"><g fill="currentColor"><path d="M16.8 7.426a8.47 8.47 0 0 0 1.558 5.571 5.73 5.73 0 0 0 3.429 2.15 1.52 1.52 0 0 0 1.193-.356 5.96 5.96 0 0 0 1.816-5.419c-.628-3.77-3.095-6.215-6.2-8.5A16.25 16.25 0 0 0 16.8 7.426" opacity=".65"/><path d="M12.559 10.142a8.47 8.47 0 0 0 2.946 4.978 5.73 5.73 0 0 0 3.869 1.19 1.52 1.52 0 0 0 1.06-.653 5.96 5.96 0 0 0 .352-5.704c-1.583-3.477-4.598-5.202-8.186-6.606a16.25 16.25 0 0 0-.041 6.795" opacity=".65"/><path d="M9.165 13.865A8.47 8.47 0 0 0 13.3 17.91a5.73 5.73 0 0 0 4.045.15 1.52 1.52 0 0 0 .855-.905 5.96 5.96 0 0 0-1.136-5.6c-2.43-2.95-5.788-3.835-9.618-4.261a16.25 16.25 0 0 0 1.719 6.57" opacity=".65"/><path d="M6.85 18.339a8.47 8.47 0 0 0 5.04 2.837 5.73 5.73 0 0 0 3.946-.903 1.52 1.52 0 0 0 .591-1.097 5.96 5.96 0 0 0-2.546-5.116c-3.111-2.222-6.584-2.207-10.394-1.628A16.25 16.25 0 0 0 6.85 18.34" opacity=".65"/><path d="M5.772 23.26a8.47 8.47 0 0 0 5.603 1.437 5.73 5.73 0 0 0 3.578-1.894 1.52 1.52 0 0 0 .288-1.211 5.96 5.96 0 0 0-3.785-4.283c-3.58-1.341-6.93-.427-10.461 1.117a16.25 16.25 0 0 0 4.776 4.834" opacity=".65"/><path d="M6.004 28.292a8.47 8.47 0 0 0 5.785-.063 5.73 5.73 0 0 0 2.965-2.755 1.52 1.52 0 0 0-.036-1.244 5.96 5.96 0 0 0-4.763-3.157C6.15 20.704 3.15 22.453.14 24.86a16.25 16.25 0 0 0 5.864 3.432" opacity=".65"/><path d="M7.531 33.093a8.47 8.47 0 0 0 5.569-1.558 5.73 5.73 0 0 0 2.15-3.429 1.52 1.52 0 0 0-.356-1.192 5.96 5.96 0 0 0-5.419-1.817c-3.77.628-6.215 3.095-8.5 6.2a16.25 16.25 0 0 0 6.556 1.796" opacity=".65"/><path d="M10.25 37.335a8.47 8.47 0 0 0 4.978-2.946 5.73 5.73 0 0 0 1.19-3.87 1.52 1.52 0 0 0-.653-1.059 5.97 5.97 0 0 0-5.704-.352c-3.479 1.583-5.2 4.6-6.606 8.188a16.25 16.25 0 0 0 6.795.039" opacity=".65"/><path d="M13.972 40.729a8.47 8.47 0 0 0 4.046-4.134 5.73 5.73 0 0 0 .15-4.045 1.52 1.52 0 0 0-.905-.855 5.96 5.96 0 0 0-5.6 1.136c-2.95 2.429-3.836 5.787-4.262 9.618a16.25 16.25 0 0 0 6.57-1.72" opacity=".65"/><path d="M18.446 43.044a8.47 8.47 0 0 0 2.837-5.041 5.73 5.73 0 0 0-.903-3.946 1.52 1.52 0 0 0-1.095-.591 5.96 5.96 0 0 0-5.117 2.547c-2.222 3.11-2.206 6.583-1.627 10.393a16.25 16.25 0 0 0 5.904-3.363" opacity=".65"/><path d="M23.367 44.122a8.47 8.47 0 0 0 1.436-5.604 5.73 5.73 0 0 0-1.894-3.577 1.52 1.52 0 0 0-1.211-.288 5.96 5.96 0 0 0-4.283 3.784c-1.34 3.58-.427 6.93 1.119 10.46a16.25 16.25 0 0 0 4.833-4.776" opacity=".65"/><path d="M28.4 43.889a8.47 8.47 0 0 0-.062-5.784 5.73 5.73 0 0 0-2.756-2.966 1.52 1.52 0 0 0-1.244.036 5.96 5.96 0 0 0-3.158 4.764c-.368 3.805 1.381 6.805 3.788 9.815a16.25 16.25 0 0 0 3.432-5.865" opacity=".65"/><path d="M33.2 42.362a8.47 8.47 0 0 0-1.558-5.571 5.73 5.73 0 0 0-3.429-2.15 1.52 1.52 0 0 0-1.192.357 5.96 5.96 0 0 0-1.817 5.418c.628 3.77 3.095 6.215 6.2 8.5a16.25 16.25 0 0 0 1.796-6.554" opacity=".65"/><path d="M37.442 39.645a8.47 8.47 0 0 0-2.947-4.979 5.73 5.73 0 0 0-3.869-1.19 1.52 1.52 0 0 0-1.06.653 5.96 5.96 0 0 0-.352 5.705c1.583 3.478 4.6 5.2 8.188 6.605a16.25 16.25 0 0 0 .04-6.794" opacity=".65"/><path d="M40.836 35.922a8.47 8.47 0 0 0-4.136-4.046 5.73 5.73 0 0 0-4.045-.15 1.52 1.52 0 0 0-.854.905 5.96 5.96 0 0 0 1.136 5.6c2.429 2.95 5.788 3.835 9.618 4.262a16.25 16.25 0 0 0-1.72-6.571" opacity=".65"/><path d="M43.15 31.448a8.47 8.47 0 0 0-5.041-2.838 5.73 5.73 0 0 0-3.946.903 1.52 1.52 0 0 0-.59 1.096 5.96 5.96 0 0 0 2.547 5.117c3.11 2.222 6.583 2.206 10.393 1.627a16.25 16.25 0 0 0-3.363-5.905" opacity=".65"/><path d="M44.229 26.526a8.47 8.47 0 0 0-5.604-1.436 5.73 5.73 0 0 0-3.577 1.894 1.52 1.52 0 0 0-.288 1.21 5.97 5.97 0 0 0 3.784 4.282c3.579 1.34 6.93.427 10.46-1.118a16.25 16.25 0 0 0-4.776-4.832" opacity=".65"/><path d="M43.996 21.494a8.47 8.47 0 0 0-5.784.063 5.73 5.73 0 0 0-2.966 2.756 1.52 1.52 0 0 0 .036 1.244 5.96 5.96 0 0 0 4.764 3.157c3.804.369 6.804-1.381 9.815-3.788a16.25 16.25 0 0 0-5.865-3.432" opacity=".65"/><path d="M42.469 16.694a8.47 8.47 0 0 0-5.569 1.558 5.73 5.73 0 0 0-2.15 3.429 1.52 1.52 0 0 0 .357 1.192 5.96 5.96 0 0 0 5.419 1.817c3.77-.629 6.214-3.095 8.5-6.2a16.25 16.25 0 0 0-6.557-1.796" opacity=".65"/><path d="M39.75 12.452a8.47 8.47 0 0 0-4.978 2.946 5.73 5.73 0 0 0-1.19 3.869 1.52 1.52 0 0 0 .654 1.059 5.96 5.96 0 0 0 5.705.353c3.478-1.583 5.2-4.6 6.605-8.188a16.25 16.25 0 0 0-6.796-.04" opacity=".65"/><path d="M36.029 9.058a8.47 8.47 0 0 0-4.047 4.134 5.73 5.73 0 0 0-.15 4.045 1.52 1.52 0 0 0 .906.855 5.96 5.96 0 0 0 5.6-1.136c2.95-2.43 3.835-5.788 4.261-9.618a16.25 16.25 0 0 0-6.57 1.72" opacity=".65"/><path d="M31.555 6.743a8.47 8.47 0 0 0-2.838 5.041 5.73 5.73 0 0 0 .903 3.945 1.52 1.52 0 0 0 1.096.591 5.96 5.96 0 0 0 5.116-2.544c2.222-3.11 2.206-6.583 1.627-10.393a16.25 16.25 0 0 0-5.904 3.36" opacity=".65"/><path d="M26.634 5.665a8.47 8.47 0 0 0-1.437 5.604 5.73 5.73 0 0 0 1.894 3.577 1.52 1.52 0 0 0 1.211.288 5.96 5.96 0 0 0 4.283-3.785c1.34-3.579.427-6.93-1.118-10.46a16.25 16.25 0 0 0-4.833 4.776" opacity=".65"/><path d="M21.6 5.898a8.47 8.47 0 0 0 .063 5.784 5.73 5.73 0 0 0 2.756 2.966 1.52 1.52 0 0 0 1.244-.036 5.96 5.96 0 0 0 3.157-4.764c.37-3.805-1.38-6.805-3.787-9.815A16.25 16.25 0 0 0 21.6 5.898" opacity=".65"/></g></svg>