<svg viewBox="0 0 50 50" xmlns="http://www.w3.org/2000/svg" xmlns:xlink="http://www.w3.org/1999/xlink"><linearGradient id="a" gradientUnits="userSpaceOnUse" x1="0" x2="100" y1="100" y2="0"><stop offset="0" stop-color="#0a00b2"/><stop offset=".5" stop-color="#f00"/><stop offset="1" stop-color="#fffc00"/></linearGradient><g fill="url(#a)" transform="matrix(.5 0 0 .5 0 .026)"><path d="m33.6 14.8a16.94 16.94 0 0 0 3.116 11.142 11.46 11.46 0 0 0 6.858 4.3 3.03 3.03 0 0 0 2.385-.713 11.92 11.92 0 0 0 3.634-10.837c-1.257-7.54-6.19-12.43-12.4-17a32.5 32.5 0 0 0 -3.593 13.108" opacity=".65"/><path d="m25.117 20.232a16.94 16.94 0 0 0 5.893 9.956 11.46 11.46 0 0 0 7.738 2.381 3.03 3.03 0 0 0 2.119-1.306 11.92 11.92 0 0 0 .705-11.409c-3.166-6.954-9.196-10.405-16.372-13.212a32.5 32.5 0 0 0 -.083 13.59" opacity=".65"/><path d="m18.329 27.677a16.94 16.94 0 0 0 8.271 8.092 11.46 11.46 0 0 0 8.09.3 3.03 3.03 0 0 0 1.709-1.81 11.92 11.92 0 0 0 -2.271-11.2c-4.859-5.9-11.576-7.67-19.237-8.523a32.5 32.5 0 0 0 3.438 13.141" opacity=".65"/><path d="m13.7 36.626a16.94 16.94 0 0 0 10.081 5.674 11.46 11.46 0 0 0 7.891-1.807 3.03 3.03 0 0 0 1.182-2.193 11.92 11.92 0 0 0 -5.093-10.233c-6.221-4.443-13.167-4.412-20.787-3.254a32.5 32.5 0 0 0 6.726 11.813" opacity=".65"/><path d="m11.543 46.468a16.94 16.94 0 0 0 11.208 2.873 11.46 11.46 0 0 0 7.155-3.788 3.03 3.03 0 0 0 .575-2.422 11.92 11.92 0 0 0 -7.568-8.566c-7.16-2.681-13.861-.854-20.923 2.235a32.5 32.5 0 0 0 9.553 9.668" opacity=".65"/><path d="m12.008 56.532a16.94 16.94 0 0 0 11.569-.126 11.46 11.46 0 0 0 5.931-5.51 3.03 3.03 0 0 0 -.072-2.488 11.92 11.92 0 0 0 -9.527-6.315c-7.609-.737-13.609 2.762-19.63 7.576a32.5 32.5 0 0 0 11.729 6.863" opacity=".65"/><path d="m15.062 66.134a16.94 16.94 0 0 0 11.138-3.116 11.46 11.46 0 0 0 4.3-6.858 3.03 3.03 0 0 0 -.713-2.385 11.92 11.92 0 0 0 -10.837-3.634c-7.54 1.257-12.43 6.19-17 12.4a32.5 32.5 0 0 0 13.112 3.593" opacity=".65"/><path d="m20.5 74.618a16.94 16.94 0 0 0 9.956-5.893 11.46 11.46 0 0 0 2.381-7.738 3.03 3.03 0 0 0 -1.306-2.119 11.93 11.93 0 0 0 -11.409-.705c-6.958 3.166-10.4 9.2-13.212 16.376a32.5 32.5 0 0 0 13.59.079" opacity=".65"/><path d="m27.943 81.406a16.94 16.94 0 0 0 8.092-8.269 11.46 11.46 0 0 0 .3-8.09 3.03 3.03 0 0 0 -1.81-1.709 11.92 11.92 0 0 0 -11.2 2.271c-5.9 4.859-7.67 11.576-8.523 19.237a32.5 32.5 0 0 0 13.141-3.44" opacity=".65"/><path d="m36.891 86.035a16.94 16.94 0 0 0 5.676-10.082 11.46 11.46 0 0 0 -1.807-7.891 3.03 3.03 0 0 0 -2.191-1.182 11.92 11.92 0 0 0 -10.233 5.094c-4.443 6.221-4.412 13.167-3.254 20.787a32.5 32.5 0 0 0 11.809-6.726" opacity=".65"/><path d="m46.733 88.191a16.94 16.94 0 0 0 2.873-11.207 11.46 11.46 0 0 0 -3.788-7.155 3.03 3.03 0 0 0 -2.422-.575 11.92 11.92 0 0 0 -8.566 7.568c-2.681 7.159-.854 13.86 2.237 20.921a32.5 32.5 0 0 0 9.666-9.552" opacity=".65"/><path d="m56.8 87.726a16.94 16.94 0 0 0 -.125-11.569 11.46 11.46 0 0 0 -5.511-5.931 3.03 3.03 0 0 0 -2.488.072 11.92 11.92 0 0 0 -6.315 9.528c-.737 7.609 2.762 13.609 7.576 19.629a32.5 32.5 0 0 0 6.863-11.729" opacity=".65"/><path d="m66.4 84.672a16.94 16.94 0 0 0 -3.116-11.142 11.46 11.46 0 0 0 -6.858-4.3 3.03 3.03 0 0 0 -2.385.713 11.92 11.92 0 0 0 -3.634 10.837c1.257 7.54 6.19 12.43 12.4 17a32.5 32.5 0 0 0 3.593-13.108" opacity=".65"/><path d="m74.883 79.237a16.94 16.94 0 0 0 -5.893-9.956 11.46 11.46 0 0 0 -7.738-2.381 3.03 3.03 0 0 0 -2.119 1.306 11.92 11.92 0 0 0 -.705 11.409c3.166 6.958 9.2 10.4 16.375 13.212a32.5 32.5 0 0 0 .08-13.59" opacity=".65"/><path d="m81.671 71.792a16.94 16.94 0 0 0 -8.271-8.092 11.46 11.46 0 0 0 -8.09-.3 3.03 3.03 0 0 0 -1.708 1.81 11.92 11.92 0 0 0 2.271 11.2c4.859 5.9 11.576 7.67 19.237 8.523a32.5 32.5 0 0 0 -3.439-13.141" opacity=".65"/><path d="m86.3 62.843a16.94 16.94 0 0 0 -10.082-5.676 11.46 11.46 0 0 0 -7.891 1.807 3.03 3.03 0 0 0 -1.182 2.191 11.92 11.92 0 0 0 5.094 10.235c6.221 4.443 13.167 4.412 20.787 3.254a32.5 32.5 0 0 0 -6.726-11.811" opacity=".65"/><path d="m88.457 53a16.94 16.94 0 0 0 -11.207-2.873 11.46 11.46 0 0 0 -7.155 3.788 3.03 3.03 0 0 0 -.574 2.422 11.93 11.93 0 0 0 7.567 8.563c7.158 2.681 13.86.854 20.921-2.237a32.5 32.5 0 0 0 -9.552-9.663" opacity=".65"/><path d="m87.992 42.936a16.94 16.94 0 0 0 -11.569.126 11.46 11.46 0 0 0 -5.931 5.511 3.03 3.03 0 0 0 .072 2.488 11.92 11.92 0 0 0 9.527 6.315c7.609.737 13.609-2.762 19.63-7.576a32.5 32.5 0 0 0 -11.729-6.864" opacity=".65"/><path d="m84.938 33.335a16.94 16.94 0 0 0 -11.138 3.116 11.46 11.46 0 0 0 -4.3 6.858 3.03 3.03 0 0 0 .714 2.385 11.92 11.92 0 0 0 10.837 3.634c7.54-1.257 12.43-6.19 17-12.4a32.5 32.5 0 0 0 -13.113-3.593" opacity=".65"/><path d="m79.5 24.851a16.94 16.94 0 0 0 -9.956 5.893 11.46 11.46 0 0 0 -2.381 7.738 3.03 3.03 0 0 0 1.309 2.118 11.92 11.92 0 0 0 11.409.705c6.958-3.166 10.4-9.2 13.212-16.375a32.5 32.5 0 0 0 -13.593-.079" opacity=".65"/><path d="m72.057 18.063a16.94 16.94 0 0 0 -8.092 8.269 11.46 11.46 0 0 0 -.3 8.09 3.03 3.03 0 0 0 1.81 1.709 11.92 11.92 0 0 0 11.2-2.271c5.9-4.859 7.67-11.576 8.523-19.237a32.5 32.5 0 0 0 -13.141 3.44" opacity=".65"/><path d="m63.109 13.434a16.94 16.94 0 0 0 -5.676 10.082 11.46 11.46 0 0 0 1.807 7.891 3.03 3.03 0 0 0 2.191 1.182 11.92 11.92 0 0 0 10.233-5.089c4.443-6.221 4.412-13.167 3.254-20.787a32.5 32.5 0 0 0 -11.809 6.721" opacity=".65"/><path d="m53.267 11.278a16.94 16.94 0 0 0 -2.873 11.207 11.46 11.46 0 0 0 3.788 7.155 3.03 3.03 0 0 0 2.422.575 11.92 11.92 0 0 0 8.566-7.568c2.681-7.159.854-13.86-2.237-20.921a32.5 32.5 0 0 0 -9.666 9.552" opacity=".65"/><path d="m43.2 11.743a16.94 16.94 0 0 0 .126 11.569 11.46 11.46 0 0 0 5.511 5.931 3.03 3.03 0 0 0 2.488-.072 11.92 11.92 0 0 0 6.315-9.528c.739-7.609-2.76-13.609-7.574-19.629a32.5 32.5 0 0 0 -6.866 11.729" opacity=".65"/></g></svg>