<svg height="64" viewBox="0 0 64 64" width="64" xmlns="http://www.w3.org/2000/svg"><g fill="none" fill-rule="evenodd"><path d="m0 0h64v64h-64z" fill="#01a88d"/><path d="m32.009 24.002h5.997v-2h-5.996zm0-5.031h7.996v-2h-7.995zm5.997 9.031h9.996v-2h-9.996zm2-4h7.996v-2h-7.997zm11.994 19.002h-11.995v2h12.995a1 1 0 0 0 1-1v-14.002h-2zm-1.63-25.004-5.367-4.774v4.774zm3.63 1v6h-2v-5h-7.996a1 1 0 0 1 -1-1v-7l-12.995.002v9.998h-1.999v-10.997a1 1 0 0 1 1-1l14.994-.003c.24 0 .477.086.664.252l8.996 8c.217.195.336.469.336.749m-37.985 22.003h1.999v-6.001h-2zm2.999 2h1.999v-11.001h-2zm2.998-2h2v-8.001h-2zm3 3h1.999v-13.002h-2zm2.998-3h2v-8.001h-2zm2.999 3h2v-13.002h-2zm2.999-4h1.999v-6.001h-2zm2.165 4.449 1.667 1.102c-2.627 3.978-7.16 6.45-11.83 6.45-2.4 0-4.871-.657-7.026-1.86l-7.19 3.724c-.187.089-.38.131-.57.131-.33 0-.647-.13-.882-.375a1.23 1.23 0 0 1 -.2-1.423l3.719-7.147c-1.235-1.967-2.305-4.16-2.305-6.825 0-8.245 6.08-14.228 14.455-14.228 2.63 0 5.232.743 7.52 2.148l-1.047 1.704c-1.944-1.194-4.243-1.852-6.473-1.852-6.19 0-12.456 4.2-12.456 12.228 0 2.368 1.104 4.393 2.298 6.228a1 1 0 0 1 .048 1.008l-2.868 5.51 5.52-2.86a1 1 0 0 1 .981.035c1.927 1.178 4.287 1.854 6.477 1.854 4.005 0 7.9-2.128 10.162-5.552" fill="#fff"/></g></svg>