<svg height="18" viewBox="0 0 18 18" width="18" xmlns="http://www.w3.org/2000/svg" xmlns:xlink="http://www.w3.org/1999/xlink"><linearGradient id="a" gradientUnits="userSpaceOnUse" x1="9.016" x2="9.016" y1="3.116" y2="7.162"><stop offset="0" stop-color="#a3a3a3"/><stop offset="1" stop-color="#999"/></linearGradient><path d="m4.847 10.497 4.136-2.402 4.129 2.402-4.129 2.403z" fill="#9cebff"/><path d="m13.126 10.487v4.789l-4.149 2.41v-4.797z" fill="#32bedd"/><path d="m8.977 12.897v4.789l-4.141-2.41v-4.789zm-4.977 3.252-.295.3a.2.2 0 0 1 -.285 0l-3.3-3.294a.4.4 0 0 1 0-.571l.3-.295 3.58 3.576a.2.2 0 0 1 0 .28z" fill="#50e6ff"/><path d="m3.642 9.337.33.33a.2.2 0 0 1 0 .284l-3.524 3.535-.33-.327a.406.406 0 0 1 0-.572l3.24-3.25a.2.2 0 0 1 .284 0" fill="#1490df"/><path d="m14.023 16.13a.2.2 0 0 1 0-.278l3.564-3.554.3.3a.4.4 0 0 1 0 .568l-3.287 3.26a.2.2 0 0 1 -.279 0z" fill="#50e6ff"/><path d="m14.66 9.362 3.223 3.231a.4.4 0 0 1 0 .565l-.328.328-3.5-3.513a.206.206 0 0 1 0-.286l.327-.325a.2.2 0 0 1 .278 0" fill="#1490df"/><path d="m8.524 7.317a.92.92 0 0 1 .921 0l.132.077v-5.208h-1.122v5.171z" fill="url(#a)"/><path d="m10.663 1.961a1.647 1.647 0 1 1 -1.647-1.647 1.65 1.65 0 0 1 1.647 1.647" fill="#1490df"/>​</svg>