<svg height="40" viewBox="0 0 40 40" width="40" xmlns="http://www.w3.org/2000/svg"><g fill="none" fill-rule="evenodd"><path d="m0 0h40v40h-40z" fill="#7d8998"/><path d="m12 17h3.5a.5.5 0 0 0 .5-.5v-9.5h7v9.5a.5.5 0 0 0 .5.5h3.5v16h-15zm16 16.5v-17a.5.5 0 0 0 -.5-.5h-3.5v-9.5a.5.5 0 0 0 -.5-.5h-8a.5.5 0 0 0 -.5.5v9.5h-3.5a.5.5 0 0 0 -.5.5v17a.5.5 0 0 0 .5.5h16a.5.5 0 0 0 .5-.5m-4-2.5h1v-2h-1zm-5 0h1v-2h-1zm-5 0h1v-2h-1zm10-4h1v-3h-1zm-5 0h1v-3h-1zm-5 0h1v-3h-1zm10-5h1v-3h-1zm-5-10h1v-3h-1zm0 5h1v-3h-1zm0 5h1v-3h-1zm-5 0h1v-3h-1z" fill="#fff"/></g></svg>