<svg height="18" viewBox="0 0 18 18" width="18" xmlns="http://www.w3.org/2000/svg" xmlns:xlink="http://www.w3.org/1999/xlink"><linearGradient id="a"><stop offset="0" stop-color="#773adc"/><stop offset="1" stop-color="#b77af4"/></linearGradient><linearGradient id="b" gradientUnits="userSpaceOnUse" x1="7.86" x2="7.86" xlink:href="#a" y1="17.94" y2="5.72"/><linearGradient id="c" gradientUnits="userSpaceOnUse" x1="7.87" x2="7.87" xlink:href="#a" y1="9.28" y2="-1.85"/><path d="m13.9 16.85a1.31 1.31 0 0 0 1.32-1.3v-.16c-.52-4.11-2.86-7.46-7.34-7.46s-6.88 2.83-7.37 7.47a1.32 1.32 0 0 0 1.17 1.45z" fill="url(#b)"/><path d="m7.87 8.9a4.13 4.13 0 0 1 -2.23-.65l2.21 5.75 2.15-5.72a4 4 0 0 1 -2.13.62" fill="#fff"/><circle cx="7.87" cy="4.78" fill="url(#c)" r="4.13"/><rect fill="#50e6ff" height="4.15" rx=".56" width="8.42" x="9.08" y="13.2"/><path d="m13.29 13.2h-3.65a.56.56 0 0 0 -.56.56v3a.56.56 0 0 0 .56.56h3.65z" fill="#32bedd"/><path d="m12.68 14.36-.09-.1a.15.15 0 0 0 -.2 0l-1.76 1.74-.63-.63a.17.17 0 0 0 -.21 0l-.09.1a.13.13 0 0 0 0 .2l.84.85h.05a.16.16 0 0 0 .16 0l1.95-2a.13.13 0 0 0 -.02-.16" fill="#fff"/><path d="m16.51 16.22-.84-.83.83-.83a.14.14 0 0 0 0-.19l-.11-.11a.12.12 0 0 0 -.19 0l-.83.83-.82-.82a.14.14 0 0 0 -.21 0l-.1.09a.14.14 0 0 0 0 .19l.83.84-.82.82a.16.16 0 0 0 0 .22l.1.09a.11.11 0 0 0 .18 0l.84-.83.84.83a.14.14 0 0 0 .19 0l.11-.11a.14.14 0 0 0 0-.19" fill="#f2f2f2"/></svg>