<svg xmlns="http://www.w3.org/2000/svg" width="74" height="74" viewBox="0 0 74 74"><title>Icon-Architecture-Category/48/Machine-Learning_48</title><g id="Icon-Architecture-Category/48/Machine-Learning_48" fill="none" fill-rule="evenodd" stroke="none" stroke-width="1"><path id="Rectangle" fill="#01a88d" d="M5 5h64v64H5z"/><path id="#879196-Border-Copy-14" stroke="#879196" stroke-width="2" d="M1 1h72v72H1z"/><g id="Icon-Category/48/Machine-Learning_48" fill="#fff" transform="translate(15 15)"><path id="Machine-Learning_Category-Icon_48_Squid" d="M30 22a8.01 8.01 0 0 0-5.343-7.548l.664-1.887A10.015 10.015 0 0 1 32 22c0 4.232-2.68 8.021-6.667 9.431l-.666-1.886A8.01 8.01 0 0 0 30 22m13.925 4.513-3.176 7.716a.997.997 0 0 1-1.357.52L37 33.601a18.8 18.8 0 0 1-3.333 3.343l1.16 2.39a1.003 1.003 0 0 1-.515 1.36l-7.701 3.21a1 1 0 0 1-1.328-.591l-1.155-3.286 1.887-.663.804 2.287 5.746-2.396-1.058-2.182a1 1 0 0 1 .321-1.252 16.8 16.8 0 0 0 4.04-4.055 1 1 0 0 1 1.251-.326l2.184 1.048 2.369-5.758-2.286-.792a1 1 0 0 1-.659-1.112 16.8 16.8 0 0 0-.014-5.726 1 1 0 0 1 .654-1.116l2.284-.803-2.395-5.747-2.186 1.061a1 1 0 0 1-1.252-.32 16.8 16.8 0 0 0-4.054-4.036 1 1 0 0 1-.327-1.25l1.051-2.19-5.758-2.37-.795 2.296-1.891-.654L25.187.673a1 1 0 0 1 1.326-.598l7.716 3.176a1.003 1.003 0 0 1 .52 1.357l-1.15 2.4c1.25.964 2.37 2.08 3.342 3.326l2.394-1.16a.998.998 0 0 1 1.359.514l3.21 7.701a.996.996 0 0 1-.591 1.328l-2.501.88c.202 1.57.206 3.151.01 4.722l2.505.868a1 1 0 0 1 .598 1.326M17 28.048v-4.056c0-.365-.198-.7-.518-.876L12 20.65v-3.279l4.486-2.499A1 1 0 0 0 17 14V8h-2v5.411l-3.979 2.215L7 13.376V8.167l3-1.989V11h2V4.853l4.031-2.673 4.049 2.391-.001 15.211-3.408-1.977-1.004 1.731 4.412 2.558v4.18zm3.079 11.381-4.017 2.373-3.983-2.945 4.86-3.107-1.078-1.685-5.504 3.52L7 35.101V30.12l4.169-2.402-.998-1.733-4.172 2.403L2.001 25.9v-3.65l4.333-2.497-.998-1.733-3.335 1.921v-2.569l4.031-2.246L10 17.347v3.377L5.424 23.36l.998 1.733 4.643-2.675L15 24.583V29.2l-5.023 2.893.998 1.734 9.104-5.245zm1.51-36.29-5.08-3a1 1 0 0 0-1.062.028l-10 6.631A1 1 0 0 0 5 7.632v5.78L.515 15.91a1 1 0 0 0-.514.873v.438L0 17.266v8.707l.001.044v.438c0 .345.179.666.472.85L5 30.121v5.484a1 1 0 0 0 .405.805l10 7.393a1 1 0 0 0 1.104.057l5.079-3c.305-.18.412-.507.412-.86V4c0-.355-.106-.682-.411-.862"/></g></g></svg>