<svg height="24" width="24" xmlns="http://www.w3.org/2000/svg"><g fill-rule="evenodd"><path d="m20.69 12.43-8.69 4.35v5.22l8.69-4.35z" fill="#4285f4"/><path d="m6.78 4.61-3.47 1.74z" fill="#1e88e5"/><path d="m17.22 8.09v4.34l3.47-1.73v-4.35zm-5.22 6.95 3.48-1.73v-4.35l-3.48 1.74z" fill="#4285f4"/></g><path d="m6.78 4.61-3.47 1.74 3.47 1.74 3.48-1.74z" fill="#aecbfa"/><path d="m12 2-3.48 1.74 3.48 1.74 5.22 2.61 3.47-1.74z" fill="#aecbfa" fill-rule="evenodd"/><path d="m12 7.22-3.48 1.74 3.48 1.74 3.48-1.74z" fill="#aecbfa"/><path d="m8.52 15v5.22l3.48 1.78v-5.22zm2.61 5.22-1.74-.87v-2.57l1.74.87zm-7.82-13.87v11.3l3.47 1.74v-11.3zm2.61 11.3-1.75-.87v-10l1.75.87zm2.6-8.65 3.48 1.7v4.3l-3.48-1.69zm2.61 4.35v-3l-1.74-.9v3z" fill="#669df6"/></svg>