<svg fill="#c33" viewBox="0 0 24 24" xmlns="http://www.w3.org/2000/svg"><path d="m1.92 10.08c0 .037 9.996 10.052 10.053 10.07.014.004 3.831-3.797 3.831-3.797s-7.666-7.686-7.666-7.711c0-.033 3.806-3.839 3.806-3.839s3.843 3.858 3.843 3.883c0 .017-2.807 2.844-2.807 2.844l3.824 3.824 5.275-5.275s-8.405-8.405-10.098-10.079m-8.194 13.036c-.023 0-1.421 1.388-1.421 1.388s9.594 9.576 9.621 9.576c.026 0 9.614-9.577 9.614-9.577s-1.401-1.387-1.423-1.387c-.02 0-8.196 8.157-8.196 8.157s-8.177-8.157-8.195-8.157"/></svg>