<svg viewBox="0 0 24 24" xmlns="http://www.w3.org/2000/svg"><path d="m2.85 12.786h-.001c-1.21-.012-1.991-.586-1.991-1.465s.781-1.452 1.99-1.465c1.21.013 1.992.588 1.992 1.465s-.782 1.453-1.99 1.465zm.034-3.638h-.073c-1.655.027-2.811.92-2.811 2.172s1.156 2.147 2.811 2.174h.073c1.655-.027 2.811-.921 2.811-2.174s-1.155-2.145-2.81-2.172zm18.27 3.638c-1.21-.012-1.992-.587-1.992-1.465s.782-1.452 1.991-1.465c1.21.013 1.991.588 1.991 1.465s-.781 1.453-1.99 1.465zm.035-3.638h-.073c-1.655.027-2.811.92-2.811 2.173s1.156 2.147 2.81 2.174h.074c1.655-.027 2.811-.921 2.811-2.175s-1.156-2.146-2.811-2.173zm-6.126 3.638c-1.21-.012-1.99-.587-1.99-1.465s.78-1.452 1.99-1.465c1.21.013 1.991.588 1.991 1.465s-.781 1.453-1.99 1.465zm.036-3.638h-.073c-.789.013-1.464.222-1.955.574v-.37h-.857v5.5h.857v-1.931c.49.351 1.166.56 1.954.574h.074c1.655-.027 2.81-.921 2.81-2.174s-1.155-2.146-2.81-2.173zm-6.144 3.638c-1.21-.012-1.99-.587-1.99-1.465s.78-1.452 1.99-1.465c1.21.013 1.991.588 1.991 1.465s-.781 1.453-1.99 1.465zm.037-3.638h-.072c-.789.013-1.464.222-1.955.574v-.37h-.856v5.5h.856v-1.931c.491.351 1.166.56 1.955.574a3.728 3.728 0 0 0 .073 0c1.655-.027 2.811-.921 2.811-2.174s-1.156-2.146-2.81-2.173z"/></svg>