<svg viewBox="0 0 24 24" xmlns="http://www.w3.org/2000/svg"><path d="m9.3267 3.4848c-.7965.627-.9744 1.6212-1.1644 3.3173-.3653 3.257-.641 5.1982-1.0473 8.658-.199 1.7013.9756 1.9015 2.3646 1.8861h2.8841c.2604.002.3525.1229.3193.3807-.1241.9654-.2579 2.7882-1.19 2.7882l-11.493-.0218s2.8304-1.032 3.165-3.3723l1.3397-10.887c.2086-1.357 1.2885-2.7492 2.634-2.7492zm5.5567 17.0306c1.3454 0 2.4254-1.3922 2.634-2.7491l1.3396-10.8871c.3346-2.3404 3.165-3.3723 3.165-3.3723l-11.493-.0219c-.9321 0-1.0658 1.8228-1.19 2.7882-.0332.2578.0589.3787.3193.3806h2.8841c1.389-.0153 2.5636.185 2.3646 1.8861-.4062 3.46-.682 5.401-1.0473 8.6581-.19 1.696-.3679 2.6903-1.1644 3.3173h2.188zm8.3186-13.8626c.259.0006.4964-.2092.5284-.4658l.2662-2.2309c.0313-.2565-.1549-.4715-.4133-.4715h-.8797c-1.0883 0-2.2022 1.7952-2.2559 2.696-.0339.2585.151.4696.4114.4722z"/></svg>