<svg fill="none" height="45" viewBox="0 0 43 45" width="43" xmlns="http://www.w3.org/2000/svg" xmlns:xlink="http://www.w3.org/1999/xlink"><filter id="a" color-interpolation-filters="sRGB" filterUnits="userSpaceOnUse" height="54.894" width="39.32" x="23.431" y="-27.29"><feFlood flood-opacity="0" result="BackgroundImageFix"/><feBlend in="SourceGraphic" in2="BackgroundImageFix" result="shape"/><feGaussianBlur result="effect1_foregroundBlur_2002_17217" stdDeviation="3.447"/></filter><filter id="b" color-interpolation-filters="sRGB" filterUnits="userSpaceOnUse" height="54.894" width="39.32" x="22.282" y="-4.313"><feFlood flood-opacity="0" result="BackgroundImageFix"/><feBlend in="SourceGraphic" in2="BackgroundImageFix" result="shape"/><feGaussianBlur result="effect1_foregroundBlur_2002_17217" stdDeviation="3.447"/></filter><filter id="c" color-interpolation-filters="sRGB" filterUnits="userSpaceOnUse" height="49.343" width="40.206" x="-19.43" y="-23.998"><feFlood flood-opacity="0" result="BackgroundImageFix"/><feBlend in="SourceGraphic" in2="BackgroundImageFix" result="shape"/><feGaussianBlur result="effect1_foregroundBlur_2002_17217" stdDeviation="3.447"/></filter><filter id="d" color-interpolation-filters="sRGB" filterUnits="userSpaceOnUse" height="49.343" width="40.206" x="-13.686" y="8.66"><feFlood flood-opacity="0" result="BackgroundImageFix"/><feBlend in="SourceGraphic" in2="BackgroundImageFix" result="shape"/><feGaussianBlur result="effect1_foregroundBlur_2002_17217" stdDeviation="3.447"/></filter><filter id="e" color-interpolation-filters="sRGB" filterUnits="userSpaceOnUse" height="49.343" width="40.206" x="21.93" y="-23.998"><feFlood flood-opacity="0" result="BackgroundImageFix"/><feBlend in="SourceGraphic" in2="BackgroundImageFix" result="shape"/><feGaussianBlur result="effect1_foregroundBlur_2002_17217" stdDeviation="3.447"/></filter><filter id="f" color-interpolation-filters="sRGB" filterUnits="userSpaceOnUse" height="49.343" width="40.206" x="15.037" y="8.66"><feFlood flood-opacity="0" result="BackgroundImageFix"/><feBlend in="SourceGraphic" in2="BackgroundImageFix" result="shape"/><feGaussianBlur result="effect1_foregroundBlur_2002_17217" stdDeviation="3.447"/></filter><filter id="g" color-interpolation-filters="sRGB" filterUnits="userSpaceOnUse" height="49.343" width="40.206" x="18.484" y="-23.998"><feFlood flood-opacity="0" result="BackgroundImageFix"/><feBlend in="SourceGraphic" in2="BackgroundImageFix" result="shape"/><feGaussianBlur result="effect1_foregroundBlur_2002_17217" stdDeviation="3.447"/></filter><filter id="h" color-interpolation-filters="sRGB" filterUnits="userSpaceOnUse" height="49.343" width="40.206" x="12.739" y="8.66"><feFlood flood-opacity="0" result="BackgroundImageFix"/><feBlend in="SourceGraphic" in2="BackgroundImageFix" result="shape"/><feGaussianBlur result="effect1_foregroundBlur_2002_17217" stdDeviation="3.447"/></filter><filter id="i" color-interpolation-filters="sRGB" filterUnits="userSpaceOnUse" height="50.132" width="45.741" x="-20.074" y="-22.813"><feFlood flood-opacity="0" result="BackgroundImageFix"/><feBlend in="SourceGraphic" in2="BackgroundImageFix" result="shape"/><feGaussianBlur result="effect1_foregroundBlur_2002_17217" stdDeviation="3.447"/></filter><filter id="j" color-interpolation-filters="sRGB" filterUnits="userSpaceOnUse" height="52.524" width="42.792" x="-14.928" y="1.468"><feFlood flood-opacity="0" result="BackgroundImageFix"/><feBlend in="SourceGraphic" in2="BackgroundImageFix" result="shape"/><feGaussianBlur result="effect1_foregroundBlur_2002_17217" stdDeviation="3.447"/></filter><mask id="k" height="45" maskUnits="userSpaceOnUse" width="43" x="0" y="0"><path d="m39.287 0c.959 0 1.482 1.118.868 1.855l-10.443 12.533c-1.228 1.473-.181 3.711 1.738 3.711h10.101c.959 0 1.482 1.118.868 1.855l-20.208 24.252a1.132 1.132 0 0 1 -1.738 0l-20.209-24.252c-.614-.737-.09-1.855.869-1.855h10.097c1.918 0 2.967-2.238 1.739-3.711l-10.443-12.533c-.614-.737-.09-1.855.868-1.855z" fill="#000"/></mask><path d="m39.287 0c.959 0 1.482 1.118.868 1.855l-10.443 12.533c-1.228 1.473-.181 3.711 1.738 3.711h10.101c.959 0 1.482 1.118.868 1.855l-20.208 24.252a1.132 1.132 0 0 1 -1.738 0l-20.209-24.252c-.614-.737-.09-1.855.869-1.855h10.097c1.918 0 2.967-2.238 1.739-3.711l-10.443-12.533c-.614-.737-.09-1.855.868-1.855z" fill="#f50"/><g mask="url(#k)"><g filter="url(#a)"><ellipse cx="5.397" cy="23.582" fill="#ffe7e5" rx="5.397" ry="23.582" transform="matrix(-.86380913 -.50381921 -.50381921 .86380913 59.633027 -17.494095)"/></g><g filter="url(#b)"><ellipse cx="5.397" cy="23.582" fill="#ffe7e5" rx="5.397" ry="23.582" transform="matrix(-.86380913 -.50381921 -.50381921 .86380913 58.485144 5.482337)"/></g><g filter="url(#c)"><ellipse cx=".673" cy=".673" fill="#ff19af" rx="3.719" ry="21.831" transform="matrix(.80806186 -.58909764 .58909764 .80806186 -.267288 .525637)"/></g><g filter="url(#d)"><ellipse cx="6.417" cy="33.331" fill="#ff19af" rx="3.719" ry="21.831" transform="matrix(.80806186 -.58909764 .58909764 .80806186 -18.403546 10.17773)"/></g><g filter="url(#e)"><ellipse cx="3.719" cy="21.831" fill="#ff19af" rx="3.719" ry="21.831" transform="matrix(-.80806186 -.58909764 -.58909764 .80806186 57.899056 -14.776117)"/></g><g filter="url(#f)"><ellipse cx="3.719" cy="21.831" fill="#ff19af" rx="3.719" ry="21.831" transform="matrix(-.80806186 -.58909764 -.58909764 .80806186 51.005791 17.882734)"/></g><g filter="url(#g)"><ellipse cx="3.719" cy="21.831" fill="#ff19af" rx="3.719" ry="21.831" transform="matrix(-.80806186 -.58909764 -.58909764 .80806186 54.45261 -14.776263)"/></g><g filter="url(#h)"><ellipse cx="3.719" cy="21.831" fill="#ff19af" rx="3.719" ry="21.831" transform="matrix(-.80806186 -.58909764 -.58909764 .80806186 48.708287 17.882244)"/></g><g filter="url(#i)"><ellipse cx="2.796" cy="2.253" fill="#d14b2a" rx="5.397" ry="23.582" transform="matrix(.75573918 -.65487273 .65487273 .75573918 -.792475 2.381344)"/></g><g filter="url(#j)"><ellipse cx="6.468" cy="27.73" fill="#d14b2a" rx="5.397" ry="23.582" transform="matrix(.81016443 -.58620269 .58620269 .81016443 -15.027544 9.055699)"/></g></g></svg>