<svg height="18" viewBox="0 0 18 18" width="18" xmlns="http://www.w3.org/2000/svg" xmlns:xlink="http://www.w3.org/1999/xlink"><radialGradient id="a" cx="-67.981" cy="793.199" gradientTransform="matrix(17.74201625 17.74201625 24.14698947 -24.14698947 -17939.029544 20368.028422)" gradientUnits="userSpaceOnUse" r=".45"><stop offset="0" stop-color="#83b9f9"/><stop offset="1" stop-color="#0078d4"/></radialGradient><path d="m0 2.7v12.6a2.7 2.7 0 0 0 2.7 2.7h12.6a2.7 2.7 0 0 0 2.7-2.7v-12.6a2.7 2.7 0 0 0 -2.7-2.7h-12.6a2.7 2.7 0 0 0 -2.7 2.7m10.8-2.7v3.6a7.2 7.2 0 0 0 7.2 7.2h-3.6a7.2 7.2 0 0 0 -7.2 7.198v-3.598a7.2 7.2 0 0 0 -7.2-7.2h3.6a7.2 7.2 0 0 0 7.2-7.2" fill="url(#a)"/></svg>