<svg viewBox="0 0 128 128" xmlns="http://www.w3.org/2000/svg"><path d="m76.25.25c-.203.168-.401188.46546875-.617188.48046875l-8.871093.52343745-10.558594.75-6.375.5-11.5.9921876-3.8125.25-8.871094.5117187c-3.356.222-6.718593.390625-10.058593.765625-6.4340005.723-11.843938 4.6216875-13.085938 11.9296875-.118.68-.2382812 1.370687-.2382812 2.054687a72122.4 72122.4 0 0 0 -.0078126 71.210938 15.47 15.47 0 0 0 2.7890626 8.875c3.0939999 4.453 6.4525622 8.71788 9.7265622 13.04687 2.664 3.523 5.296407 7.07072 8.066407 10.51172 1.999999 2.489 4.601124 4.20257 7.703124 5.10157.219001.062.406344.21906.652344.41406 5.133.082 10.218594.08203 15.308594.08203.203-.168.402187-.46947.617188-.48047l6.6875-.27344 12.941406-.75 7.878906-.49218 12.816406-.75391 8.003906-.5c4.231001-.254 8.468408-.42634 12.691408-.77734 2.707-.223 5.46422-.43791 8.07422-1.12891 4.949-1.313 8.09372-4.67584 9.51172-9.58984.312-1.078.50481-2.23057.50781-3.35157l.00391-80.37109c-.00501-2.554-.86707-4.948719-2.78907-6.636719-2.586-2.273-5.35125-4.364093-8.15625-6.371093-6.035-4.329001-12.07381-8.6595317-18.25781-12.7695318-2.133-1.4219999-4.699406-2.1878124-7.066406-3.25781245-.211-.094-.41025-.21915625-.65625-.41015625zm7.84375 7.4628906c3.686498.0350547 6.954562 1.2383907 10.054688 3.4941404l22.023442 15.519531c1.82799 1.277 2.61728 2.875157 2.61328 5.160157l-.03516 75.863281v1c-.09 4.633-2.3195 7.129-6.9375 7.5l-15.582031 1.00391-31.296875 1.89062-27.808594 1.65625c-4.105.273-7.335844-1.00815-9.589844-4.53516-.465-.73499-1.057843-1.39103-1.589844-2.08203l-12.351562-15.925778c-2.598-3.32-3.9253437-6.929531-3.9023438-11.269531l.0664063-66.242187a13.868 13.868 0 0 1 .2070313-2.480469c.5860002-3.208 2.6128122-5.207812 5.8828122-5.507813l16.1875-1.261718 25.789063-1.902344 24.664062-1.8242188c.5445-.043 1.078826-.0616484 1.605469-.0566406zm-.898438 6.3925784-10.089843.703125-47.951172 3.484375c-1.449.105-2.905938.21075-4.335938.46875-.476.086-1.084422.570812-1.232421 1.007812-.110001.31.373515.929532.728515 1.269531.657.629001 1.413906 1.155657 2.128906 1.722657 1.7 1.34 3.50936 2.562968 5.06836 4.042969 2.957 2.808 6.397843 3.456875 10.339843 3.171874l31.035157-1.945312 33.410161-2.003906 1.27929-.234375c-.613-.637-.96764-1.12475-1.43164-1.46875a233.798 233.798 0 0 0 -4.958983-3.5625 1122.8 1122.8 0 0 0 -7.634766-5.320313c-2.043-1.106-4.168469-1.455937-6.355469-1.335937zm24.207028 19.417969-23.070309 1.328124-32.417969 1.898438-16.207031.972656c-2.066.133-3.0005 1.022969-3.3125 3.042969-.082.531-.097656 1.077188-.097656 1.617187l-.003906 25.617188v33.61328l.007812 6.25c.054 2.797 1.425563 4.19156 4.226563 4.35156l2.121094-.02734 23.441406-1.38281 44.765626-2.5586c2.79-.156 4.07884-1.37953 4.33984-4.14453l.03516-1.5.00391-64.47656c0-.375.01228-.75-.01172-1.125-.167-2.563-1.26932-3.612563-3.82032-3.476562zm-7.29687 12.074218c.594 2.781-.05816 3.81975-2.660158 4.34375-2.573.519-2.574218.520094-2.574218 3.121094l.03125 44.5c.004 1.012-.304031 1.55075-1.207032 1.84375-1.734.559-3.433125 1.27825-5.203124 1.65625-2.828.61-5.343782-.13984-7.050782-2.589844a361.224 361.224 0 0 1 -7.003906-10.460937l-15.46875-24.152344-.5-.699219v32.5625l6.730469 1.535156c-.281 2.090001-1.406094 3.370848-3.496094 3.714848l-4.847656.39843-12.308594.70703c-.543-1.738.147719-3.098214 1.761719-3.574214l3.640625-1.027344v-43.292968l-5.34375-.457032c-.687-2.417999.812969-4.749562 3.292969-4.976562l10.089843-.738281 5.484375-.371094c.828-.09 1.26975.136313 1.71875.820313l12.867188 19.605468v.003906a7434.52 7434.52 0 0 1 8.960937 13.636719v-30.179687l-4.707031-.519532c-.949-.055-1.114281-.492156-.988281-1.285156.257-1.645 1.538469-3.058687 3.230469-3.179687z"/></svg>