<svg viewBox="0 0 128 128" xmlns="http://www.w3.org/2000/svg"><path d="m76.072266-.25195313-.140625.11718751c-.151597.12545968-.253767.24750506-.330079.32031249-.07315.0697947-.09736.0529658-.0039.0449219l-8.86914.52539062-10.5625.75000003-6.378907.5-11.496093.9921875-3.806641.2480469-8.871094.5117187-.002.00195c-3.350646.22165168-6.721532.39028428-10.08199.76758118-6.6013032.7418001-12.2442239 4.8263214-13.5214845 12.3417973-.1178763.679255-.2460937 1.396724-.2460938 2.138671l-.00781 71.210938c-.00299 3.276963 1.0019362 6.475946 2.8789063 9.162109 3.1051341 4.468911 6.4685295 8.737171 9.7382815 13.060551 2.661622 3.51985 5.296616 7.07287 8.074218 10.52343 2.0624 2.56666 4.761703 4.34405 7.955079 5.26953h.002c.07796.0221.226936.12675.478515.32618l.132813.10547.169922.002c5.138266.0821 10.226409.082 15.316406.082h.179687l.138672-.11523c.152789-.12645.255897-.24935.332032-.32227.07613-.0729.1096-.049-.0078-.043l6.6875-.27344 12.945313-.75 7.878906-.49218 12.8163435-.7539 8.003906-.5c4.224568-.25361 8.466081-.42713 12.703121-.7793 2.70551-.22287 5.49269-.4378 8.16211-1.14453 5.10278-1.3538 8.40754-4.88878 9.86329-9.93359.32316-1.11658.52419-2.31087.52734-3.48828v-.002l.004-80.37109v-.002c-.005-2.665895-.91652-5.215962-2.95899-7.009766-2.60454-2.289294-5.38312-4.390199-8.19531-6.402344-6.03512-4.328935-12.07771-8.6626526-18.271576-12.7792094-2.218078-1.4787182-4.81369-2.2458691-7.138672-3.29687497v-.001953h-.002c-.167135-.07447941-.326417-.17197477-.552688-.34765638l-.134765-.10351562zm.378906 1.00390625 12.71875.0839844c.199198.14247929.393461.2788293.591797.3671875 2.408315 1.0884279 4.944933 1.8519611 6.992187 3.2167969 6.174124 4.1034352 12.209184 8.4307941 18.244144 12.7597651 2.7978 2.001852 5.54973 4.083143 8.11718 6.339844 1.80153 1.582193 2.61435 3.821572 2.61915 6.263672l-.004 80.369137c-.003 1.06401-.18763 2.17409-.48828 3.21289-1.38025 4.78318-4.36495 7.9739-9.16016 9.2461-2.55057.67526-5.27784.89016-7.98633 1.11328-4.20894.34983-8.442259.521-12.679684.77539h-.002l-8.001953.5-12.816406.75391-7.878906.49218-12.9375.75-6.685547.27344h-.002c-.332413.017-.504854.19775-.632813.32031-.0737.0706-.1095.10638-.160156.15821-4.980663-.00002-9.955622-.001-14.972656-.0801-.189313-.15181-.366108-.31421-.648438-.39453h-.002c-3.009831-.87265-5.512003-2.52273-7.449219-4.9336h-.002v-.002c-2.761759-3.43076-5.390817-6.97264-8.05664-10.49805-3.277928-4.33418-6.6322334-8.59464-9.714844-13.031246v-.002c-1.759223-2.51793402-2.701749-5.51590002-2.6989417-8.58777402l.00781-71.210938c0-.625382.1124341-1.28855.2304687-1.96875v-.002c1.2067394-7.1004625 6.3837081-10.8133323 12.650393-11.5175308 3.319535-.3727023 6.67385-.5413208 10.035156-.7636718l-.0039.00195 8.873047-.5117188 3.818359-.2519531 11.503907-.9921875 6.371093-.5 10.554688-.75 8.86914-.5234375h.0039c.325334-.022593.495514-.1966826.623047-.31835935.07345-.070083.109438-.10653901.160156-.15820313zm7.646484 6.46093748c-.541659-.0051506-1.089656.014466-1.648437.0585938l-24.66211 1.8242187-25.789062 1.9023439-16.193359 1.261719h-.002c-3.452586.316752-5.714057 2.54367-6.3300777 5.916015v.002.002c-.1483396.848378-.2204755 1.708889-.2147978 2.570219l-.066406 66.238281c-.023121 4.442523 1.3527607 8.185219 4.0078127 11.578125l12.351562 15.923824c.547702.71117 1.128749 1.35738 1.5625 2.04297v.002c2.341159 3.66339 5.819249 5.04469 10.044922 4.76367l-.0039.002 27.808594-1.65625 31.298828-1.89062 15.585941-1.00586h.006c2.39181-.19216 4.24498-.95038 5.49414-2.3125 1.24915-1.36213 1.85582-3.28087 1.90234-5.67578v-.006-1.00391l.0352-75.863281c.004-2.400002-.89394-4.217992-2.82618-5.56836l-22.015621-15.515625-.0078-.0039c-3.1649642-2.3008497-6.5485692-3.549859-10.3380892-3.5858934zm-.0078 1c3.580513.034047 6.73032 1.1912751 9.763672 3.3984374l.0039.002 22.027348 15.523438c1.72282 1.203536 2.40418 2.58055 2.40039 4.75l-.035166 75.863234v.99023c-.0435 2.23809-.59608 3.88266-1.63867 5.01954-1.04259 1.13687-2.61366 1.81334-4.83985 1.99218l-15.572261 1.00196-31.294922 1.89062-27.810547 1.6582h-.002c-3.983782.26494-6.968001-.91512-9.134766-4.30468v-.002c-.495624-.78305-1.099749-1.44764-1.615234-2.11718v-.002l-12.353469-15.925698v-.002c-2.540541-3.246573-3.819327-6.7224-3.796875-10.958985l.06641-66.246093v-.002c-.0053-.800082.06161-1.598546.199218-2.386718v-.0039c.556812-3.041223 2.349481-4.812576 5.435547-5.095703l16.179685-1.261632 25.789062-1.902344 24.666016-1.8242189c.530217-.041872 1.050874-.059553 1.5625-.054687zm-.925782 5.3925784-.0039.002-10.089844.703125-47.953125 3.484375c-1.449038.105003-2.921815.210312-4.386718.474609h-.002c-.363088.0656-.682385.247534-.964844.476563-.281745.228449-.525369.500242-.648438.861328-.08044.232852-.04101.434369.01367.599609.05522.166854.135767.313564.226563.455078.181592.283029.408114.541784.613281.738282.694859.665246 1.465563 1.199991 2.164062 1.753906h.002c1.719301 1.355214 3.514553 2.571976 5.033203 4.013672 3.06853 2.91391 6.699125 3.596342 10.714843 3.30664l31.035157-1.943359 33.439451-2.005859 2.22461-.408204-.64648-.671875c-.59139-.614538-.94642-1.117364-1.49414-1.523437-1.64092-1.21162-3.296756-2.401957-4.968754-3.570313v.002c-2.538689-1.784769-5.085277-3.560552-7.638672-5.324219l-.02148-.01563-.02344-.01172c-2.131846-1.154098-4.363304-1.520368-6.621093-1.396484zm.06641.998047-.0078.002c2.112089-.11589 4.127524.218451 6.078125 1.271484 2.539909 1.754489 5.072311 3.517581 7.597656 5.292969v.002c1.664862 1.163369 3.315303 2.348239 4.949223 3.554687.19961.147987.48916.48973.71875.742188l-.33008.06055-33.380861 2.001953-31.03711 1.947266h-.002c-3.866683.279555-7.116494-.335995-9.960937-3.03711-1.598974-1.517948-3.421194-2.747836-5.101563-4.072265h-.002c-.731099-.579688-1.473006-1.098987-2.091797-1.691407-.149833-.143501-.341475-.36545-.46289-.554687-.05865-.09141-.09843-.17257-.115235-.220703.03676-.08329.146856-.246549.3125-.38086.17722-.143696.398493-.24674.511719-.267578 1.395094-.251702 2.836198-.357893 4.285156-.46289l47.949219-3.484375zm-63.166016 5.320312c-.001.0084-.0011-.0063-.0059.0098v-.0039c.000394-.0012.0054-.0046.0059-.0059zm87.308582 13.099609-23.070316 1.328125-32.417968 1.898438-16.208985.972656v.002c-1.099526.07078-1.983318.352892-2.623047.945313-.639728.592421-.986539 1.446055-1.152343 2.519531-.08843.572621-.103516 1.143697-.103516 1.693359l-.003906 25.617141v33.61328l.0078 6.25586v.004c.02855 1.47857.414438 2.67231 1.22461 3.5039.810171.83159 1.994221 1.25344 3.472656 1.33789h.01758l2.150391-.0273 23.453125-1.38281 44.763669-2.5586c1.46347-.0818 2.61928-.45395 3.43555-1.23242s1.23791-1.91294 1.375-3.36523l.002-.0176.0352-1.52344.004-64.48242c0-.364084.0124-.749199-.0137-1.15625v-.002c-.0878-1.348307-.42834-2.398702-1.17578-3.085938-.74744-.687235-1.82232-.929266-3.16992-.857422zm.0566 1h.002c1.20202-.06375 1.95265.149746 2.43555.59375.48321.444295.77827 1.201326.85742 2.416016.0218.342411.01.706571.01 1.091797l-.004 64.4707-.0352 1.46485c-.12452 1.30867-.47658 2.16795-1.0664 2.73047-.5909.56354-1.47425.8809-2.80078.95507l-44.767583 2.5586-23.429688 1.38281-2.074218.0273c-.000741-.00004-.0012.00005-.002 0-1.32135-.0758-2.223471-.43055-2.8125-1.03515-.589358-.60494-.915952-1.50775-.941406-2.82617l-.0078-6.24024v-33.61324l.0039-25.617188c0-.530334.01622-1.051637.0918-1.541015.146195-.946522.42173-1.546688.84375-1.9375.421526-.390355 1.03938-.619107 2.003906-.681641l16.206958-.972656 32.417969-1.898438zm-6.92578 11.048829-.42969.02539-15.552736.947266h-.002c-1.950463.139483-3.40007 1.747331-3.689453 3.599609-.07055.444025-.09095.885902.169922 1.275391.260063.388284.732247.553381 1.279297.585937l4.240234.46875v28.0625c-2.650291-4.041014-5.302598-8.081349-7.96085-12.117187v-.0039l-12.949219-19.728522c-.251898-.383737-.540216-.693956-.917969-.876953-.375475-.181894-.800683-.217528-1.265625-.167969l-5.472656.371094-10.095703.738281h-.0039c-2.771258.25366-4.490901 2.928-3.728516 5.611328l.09375.332031 5.230469.447266v42.455078l-3.279297.925781h-.002c-.91238.269079-1.622412.8204-1.996094 1.572266-.373682.751867-.40213 1.668817-.101563 2.630857l.115235.37305 12.705078-.73047 4.873047-.40039.02148-.002c1.128939-.18582 2.049685-.64258 2.710938-1.35742.661252-.714846 1.048773-1.666189 1.199218-2.785161l.06055-.453125-6.787109-1.546875v-30.53706l15.04887 23.494141v.002c2.276836 3.532279 4.615133 7.023814 7.013672 10.474609 1.810967 2.599228 4.594898 3.432868 7.564453 2.792968 1.83277-.3914 3.548331-1.11813 5.253906-1.667968.521198-.169114.948626-.448832 1.210938-.861328.261979-.411973.343784-.902776.341797-1.458984v-.002l-.03125-44.498047c0-.65021.0018-1.131004.03711-1.458984.03536-.327981.09568-.474454.169922-.564454.07424-.09.210722-.179195.529297-.279296s.794276-.198381 1.4375-.328125c1.355756-.273028 2.333492-.704526 2.855468-1.552735.52198-.848208.50082-1.945276.19336-3.384765zm-.898441 1.058593c.150762.985315.19987 1.805827-.05664 2.222657-.306102.497415-.956885.846684-2.203125 1.097656-.643275.129755-1.131801.226162-1.537109.353515-.405309.127354-.75231.297383-1 .597657-.247691.300274-.349255.673776-.394532 1.09375-.04528.419973-.04297.916118-.04297 1.566406l.03125 44.501953c.0018.45492-.06909.738746-.185547.921875-.116454.183129-.293979.319475-.675781.443359-1.762421.568163-3.44512 1.279933-5.152344 1.644533h-.002c-2.685698.5793-4.932529-.0865-6.535157-2.38672-2.391392-3.440514-4.722109-6.923575-6.992187-10.445313l-.002-.002-15.47461-24.162109-1.414062-1.976563v34.519532l6.554687 1.496093c-.162787.714295-.361703 1.380068-.761718 1.8125-.49368.533689-1.178725.890473-2.138672 1.048833-.000707.00011-.0012-.00012-.002 0l-4.800782.39453-11.789062.67578c-.103897-.57269-.155992-1.12321.03516-1.50781.239427-.481744.681195-.849724 1.382813-1.056645l4-1.128906v-44.13086l-5.388672-.460937c-.394524-2.019581.808598-3.825768 2.882812-4.015625l10.080078-.738281 5.492188-.371094h.01172c.359744-.0391.566144-.0064.728515.07227.162372.07866.320477.223176.517578.523438l12.785157 19.482422v.0039l.08203.125c2.991762 4.541984 5.979151 9.086227 8.960937 13.634766l.917969 1.40039v-32.300733l-5.166015-.570312-.01172-.002c-.399784-.02317-.484199-.103442-.511719-.144531-.02752-.04109-.06717-.213525-.01172-.5625.224376-1.436179 1.336264-2.653021 2.767578-2.757812z"/></svg>