<svg height="48" viewBox="0 0 48 48" width="48" xmlns="http://www.w3.org/2000/svg"><path d="m24.589 22.323a1.203 1.203 0 0 1 1.144-1.258l.06-.002c.299 0 .583.111.805.313.239.217.378.512.393.833s-.096.629-.312.867a1.2 1.2 0 0 1 -.833.392c-.628.025-1.226-.481-1.257-1.145m3.454-2.317 4.809-9.628-1.789-.895-4.804 9.618a3.178 3.178 0 0 0 -3.505 2.165h-11.062v2h11.069c.17.519.459.993.874 1.369a3.17 3.17 0 0 0 2.958.73l7.424 7.424 1.414-1.414-7.135-7.136a3.18 3.18 0 0 0 .693-2.124 3.17 3.17 0 0 0 -.946-2.109m-1.263 6.672.01 11.448-2 .002-.01-11.448zm12.987 11.957c0 .626-.508 1.135-1.134 1.135h-29.21a1.136 1.136 0 0 1 -1.135-1.135v-29.198c0-.626.509-1.136 1.135-1.136h29.21c.626 0 1.134.51 1.134 1.136zm6.289-24.18v-2h-4.289v-3.018a3.14 3.14 0 0 0 -3.134-3.136h-3.032v-4.301h-2v4.301h-3.287v-4.301h-2v4.301h-3.286v-4.301h-2v4.301h-3.287v-4.301h-2v4.301h-3.287v-4.301h-2v4.301h-3.031a3.14 3.14 0 0 0 -3.135 3.136v3.018h-4.288v2h4.288v3.287h-4.288v2h4.288v3.286h-4.288v2h4.288v3.287h-4.288v2h4.288v3.287h-4.288v2h4.288v3.033a3.14 3.14 0 0 0 3.135 3.135h3.031v4.286h2v-4.286h3.287v4.286h2v-4.286h3.287v4.286h2v-4.286h3.286v4.286h2v-4.286h3.287v4.286h2v-4.286h3.032a3.14 3.14 0 0 0 3.134-3.135v-3.033h4.289v-2h-4.289v-3.287h4.289v-2h-4.289v-3.287h4.289v-2h-4.289v-3.286h4.289v-2h-4.289v-3.287z" fill="#7aa116" fill-rule="evenodd"/></svg>