<svg xmlns="http://www.w3.org/2000/svg" width="18" height="18" viewBox="0 0 18 18">
  <defs>
    <mask id="ko">
      <rect width="18" height="18" fill="white"/>
      <path fill="black" d="M18 8.85A4.06 4.06 0 0 0 14.49 5 5.1 5.1 0 0 0 9.24.09a5.23 5.23 0 0 0-5 3.41A4.82 4.82 0 0 0 0 8.14a4.9 4.9 0 0 0 5.07 4.71h8.65a.8.8 0 0 0 .22 0 4.09 4.09 0 0 0 4.06-4"/>
      <circle fill="black" cx="8.97" cy="6.59" r="2.08"/>
    </mask>
  </defs>
  <g>
    <path fill="currentColor" mask="url(#ko)" d="M8.58 8.46h.78v6.19h-.78z"/>
  </g>
</svg>