<svg xmlns="http://www.w3.org/2000/svg" width="18" height="18" viewBox="0 0 18 18"><linearGradient id="a" x1="9" x2="9" y1="12.85" y2=".09" gradientUnits="userSpaceOnUse"><stop offset="0" stop-color="#198ab3"/><stop offset=".44" stop-color="#28b7db"/><stop offset=".78" stop-color="#32d4f5"/></linearGradient><path fill="url(#a)" d="M18 8.85A4.06 4.06 0 0 0 14.49 5 5.1 5.1 0 0 0 9.24.09a5.23 5.23 0 0 0-5 3.41A4.82 4.82 0 0 0 0 8.14a4.9 4.9 0 0 0 5.07 4.71h8.65a.8.8 0 0 0 .22 0 4.09 4.09 0 0 0 4.06-4"/><path fill="#b3b3b3" d="M8.58 8.46h.78v6.19h-.78z"/><circle cx="8.97" cy="6.59" r="2.08" fill="#f2f2f2"/><rect width="3.78" height="3.78" x="7.08" y="14.13" fill="none" rx=".73"/></svg>