<svg height="18" viewBox="0 0 18 18" width="18" xmlns="http://www.w3.org/2000/svg" xmlns:xlink="http://www.w3.org/1999/xlink"><linearGradient id="a" gradientUnits="userSpaceOnUse" x1="9" x2="9" y1="12.85" y2=".09"><stop offset="0" stop-color="#198ab3"/><stop offset=".44" stop-color="#28b7db"/><stop offset=".78" stop-color="#32d4f5"/></linearGradient><path d="m18 8.85a4.06 4.06 0 0 0 -3.51-3.85 5.1 5.1 0 0 0 -5.25-4.91 5.23 5.23 0 0 0 -5 3.41 4.82 4.82 0 0 0 -4.24 4.64 4.9 4.9 0 0 0 5.07 4.71h8.65a.8.8 0 0 0 .22 0 4.09 4.09 0 0 0 4.06-4" fill="url(#a)"/><path d="m8.58 8.46h.78v6.19h-.78z" fill="#b3b3b3"/><circle cx="8.97" cy="6.59" fill="#f2f2f2" r="2.08"/><rect fill="none" height="3.78" rx=".73" width="3.78" x="7.08" y="14.13"/></svg>