<svg xmlns="http://www.w3.org/2000/svg" id="e6e9dc42-aa45-4c25-a153-3c4dea6d1408" width="18" height="18" viewBox="0 0 18 18"><defs><linearGradient id="bee47a41-9626-4448-9119-87ad28e72505" x1="9" x2="9" y1="12.85" y2=".09" gradientUnits="userSpaceOnUse"><stop offset="0" stop-color="#198ab3"/><stop offset=".44" stop-color="#28b7db"/><stop offset=".78" stop-color="#32d4f5"/></linearGradient><linearGradient id="beb70c0a-9df6-4825-adec-20340c00add6" x1="8.97" x2="8.97" y1="17.91" y2="14.13" href="#bee47a41-9626-4448-9119-87ad28e72505"/></defs><path fill="url(#bee47a41-9626-4448-9119-87ad28e72505)" d="M18 8.85A4.06 4.06 0 0 0 14.49 5 5.1 5.1 0 0 0 9.24.09a5.23 5.23 0 0 0-5 3.41A4.82 4.82 0 0 0 0 8.14a4.9 4.9 0 0 0 5.07 4.71h8.65a.8.8 0 0 0 .22 0 4.09 4.09 0 0 0 4.06-4"/><path fill="#b3b3b3" d="M8.58 8.46h.78v6.19h-.78z"/><circle cx="8.97" cy="6.59" r="2.08" fill="#f2f2f2"/><rect width="3.78" height="3.78" x="7.08" y="14.13" fill="url(#beb70c0a-9df6-4825-adec-20340c00add6)" rx=".73"/></svg>