<svg xmlns="http://www.w3.org/2000/svg" width="18" height="18" viewBox="0 0 18 18"><defs><linearGradient id="a9c62307-1cd0-400c-911b-17ec6a9110ce" x1="9" x2="9" y1="15.834" y2="5.788" gradientUnits="userSpaceOnUse"><stop offset="0" stop-color="#32bedd"/><stop offset=".775" stop-color="#32d4f5"/></linearGradient></defs><title>MsPortalFx.base.images-7</title><g id="f31d214e-f09e-49e3-b3d2-7c5d55682d09"><path fill="url(#a9c62307-1cd0-400c-911b-17ec6a9110ce)" d="M.5 5.788h17v9.478a.57.57 0 0 1-.568.568H1.068a.57.57 0 0 1-.568-.568z"/><path fill="#0078d4" d="M1.071 2.166h15.858a.57.57 0 0 1 .568.568v3.054H.5V2.734a.57.57 0 0 1 .571-.568"/><rect width="6.281" height="3.408" x="2.328" y="7.049" fill="#0078d4" rx=".283"/><rect width="6.281" height="3.408" x="9.336" y="7.049" fill="#fff" rx=".283"/><rect width="6.281" height="3.408" x="2.296" y="11.128" fill="#0078d4" rx=".283"/><rect width="6.281" height="3.408" x="9.304" y="11.128" fill="#0078d4" rx=".283"/></g></svg>