<svg height="18" viewBox="0 0 18 18" width="18" xmlns="http://www.w3.org/2000/svg" xmlns:xlink="http://www.w3.org/1999/xlink"><linearGradient id="a" gradientUnits="userSpaceOnUse" x1="9" x2="9" y1="15.834" y2="5.788"><stop offset="0" stop-color="#32bedd"/><stop offset=".775" stop-color="#32d4f5"/></linearGradient><path d="m.5 5.788h17v9.478a.57.57 0 0 1 -.568.568h-15.864a.57.57 0 0 1 -.568-.568z" fill="url(#a)"/><path d="m1.071 2.166h15.858a.57.57 0 0 1 .568.568v3.054h-16.997v-3.054a.57.57 0 0 1 .571-.568" fill="#0078d4"/><rect fill="#0078d4" height="3.408" rx=".283" width="6.281" x="2.328" y="7.049"/><rect fill="#fff" height="3.408" rx=".283" width="6.281" x="9.336" y="7.049"/><g fill="#0078d4"><rect height="3.408" rx=".283" width="6.281" x="2.296" y="11.128"/><rect height="3.408" rx=".283" width="6.281" x="9.304" y="11.128"/></g></svg>