<svg xmlns="http://www.w3.org/2000/svg" fill="currentColor" fill-rule="evenodd" viewBox="0 0 24 24"><path fill="currentColor" d="M17.768 1.482a6.4 6.4 0 0 1 2.988 3.78q.287.102.555.257l.073.047q.34.206.627.49a3.377 3.377 0 0 1-.105 4.875 3.376 3.376 0 0 1-.216 5.158l-.037.029.021.032a3.37 3.37 0 0 1 .534 2.065l-.009.11a3.377 3.377 0 0 1-4.658 2.777 3.377 3.377 0 0 1-5.846.971 4.05 4.05 0 0 1-1.635.397 1 1 0 0 1-.125.008h-.897l-.068-.003c-1.116-.067-1.093-1.775.068-1.775h.804l.046-.004.047-.001a2.3 2.3 0 0 0 .079-4.6l-.08.005H2.808a.889.889 0 0 1 0-1.778h7.034l.046-.004.048-.001a2.3 2.3 0 0 0 .509-4.544l-.141-.031a2 2 0 0 0-.299-.046l-.07.003H2.808a.889.889 0 1 1 0-1.777h7.035l.046-.004.047-.001a2.3 2.3 0 0 0 .087-4.6l-.087.004h-.897L8.97 3.32c-1.116-.067-1.093-1.775.068-1.775h.8a1 1 0 0 1 .097-.005c.402 0 .79.058 1.157.166l.031-.02a6.4 6.4 0 0 1 6.645-.203zm-3.737 11.484-.068.036-.083.051a4.08 4.08 0 0 1-1.404 2.153 4.07 4.07 0 0 1 1.537 3.189 4.06 4.06 0 0 1-.92 2.579 1.599 1.599 0 0 0 2.824-1.322l-.03-.124-.013-.079-.005-.056-.001-.042.001-.058.005-.053.013-.078.018-.072.022-.064.035-.079.005-.01a.9.9 0 0 1 .158-.217l.055-.052.041-.032.05-.035.042-.026.055-.03.073-.03.056-.02.04-.011.078-.016.073-.009.045-.002h.048l.041.002.058.006.056.01.062.015.031.01.049.017.054.023.044.021.053.031.035.023q.09.062.163.147l.038.046.034.048a1.6 1.6 0 1 0 2.4-2.07 3 3 0 0 1-.473.007l-.057-.005-.026-.005h-.016a3.38 3.38 0 0 1-2.985-2.568l-.026-.116a1.6 1.6 0 0 0-2.285-1.133m-4.416 4.595a.889.889 0 1 1 0 1.777H5.939a.889.889 0 0 1 0-1.777zm9.208-10.503a1.6 1.6 0 0 0-.797 1.3l-.002.085a.89.89 0 0 1-.83.887l-.059.002a.89.89 0 0 1-.887-.83l-.002-.059a1.6 1.6 0 0 0-2.528-1.301 4.1 4.1 0 0 1-1.255 1.674 4.08 4.08 0 0 1 1.451 2.308 3.374 3.374 0 0 1 4.125 2.532l.02.093a1.6 1.6 0 0 0 1.395 1.26l.124.01.042.002q.09 0 .18-.01l.085-.011.062-.015a1.6 1.6 0 0 0-.245-3.163l-.079-.002a.89.89 0 0 1-.683-.32l-.034-.044a.88.88 0 0 1-.154-.702.89.89 0 0 1 .807-.71l.064-.001a1.6 1.6 0 0 0 1.134-2.728 1.6 1.6 0 0 0-.786-.426l-.102-.019-.076-.016a1.6 1.6 0 0 0-.97.204m-9.199 4.08a.889.889 0 0 1 0 1.778H.89a.889.889 0 0 1 0-1.777h8.735zm-.01-6.432a.889.889 0 1 1 0 1.777H5.94a.889.889 0 1 1 0-1.777h3.676zm3.297-1.954-.053.021a4.07 4.07 0 0 1 1.126 2.36 3.38 3.38 0 0 1 3.151 1.027 3.37 3.37 0 0 1 1.695-1 4.62 4.62 0 0 0-5.919-2.408"/></svg>