<svg viewBox="0 0 24 24" xmlns="http://www.w3.org/2000/svg"><path d="m20.832 3.367-12.164-3.259a3.15 3.15 0 0 0 -3.856 2.226l-3.869 14.443a3.15 3.15 0 0 0 2.226 3.856l12.163 3.259a3.15 3.15 0 0 0 3.855-2.226l3.87-14.443a3.15 3.15 0 0 0 -2.226-3.856m-14.499-.626a1.574 1.574 0 0 1 1.928-1.113l12.163 3.26a1.574 1.574 0 0 1 1.113 1.927l-3.87 14.444a1.574 1.574 0 0 1 -1.928 1.113l-12.163-3.26a1.574 1.574 0 0 1 -1.113-1.927zm2.634 2.336a.787.787 0 1 0 -.407 1.52l9.122 2.444a.787.787 0 1 0 .407-1.52zm-1.981 4.357a.787.787 0 0 1 .963-.557l9.123 2.445a.787.787 0 0 1 -.408 1.52l-9.122-2.444a.787.787 0 0 1 -.556-.964m-.055 3.244a.787.787 0 0 0 -.407 1.52l5.32 1.427a.787.787 0 0 0 .408-1.52z"/></svg>