<svg height="128" viewBox="0 0 128 128" width="128" xmlns="http://www.w3.org/2000/svg"><path d="m110.87623 40.621243-19.738195-18.392764v-3.814679l-11.380721-11.396551-9.148898 4.289536h-.142457l-1.582854 3.244851-15.322028-.047486-15.037115-6.9645591h-8.167528l-3.68805 7.9142721v15.211227l-4.748563 4.748563-4.194564-.427371v7.455244l-15.6069419 7.312786v11.918892l3.9887925 8.531584 3.3239939.3324 4.0521065 8.658212 8.974784.775599 8.151699 8.072556 3.323993 3.308165 29.820974 29.63103h14.863001l47.264021-80.361507zm-78.984427-24.106868 1.883596-4.131249h5.856561l8.626555 4.131249-10.225238 4.748563-2.675024-5.809075h-1.962739v8.468268l-1.582854 1.582855zm35.962447 82.118475-12.425405-12.472891h-19.690707l-10.715923-10.937523-8.373298-.712284-1.582855-3.545594h16.889055l8.579069-8.547412-11.50735 5.365875-19.6432202-2.041882-2.4217669-5.20759v-5.20759l4.6535911.490685 1.582854 3.830507 1.709483 3.988792 8.183356-8.183356-6.489702.633142-1.74114-4.273707-4.827705-.474856 19.659049-9.180554 1.076341.1108 4.321192 9.259697 14.451459 1.266283 6.394731-13.89746-6.331417-.633142-4.178735 8.927298v-9.354668l-17.411396-1.836111 9.069754-9.053926 16.461684-7.613527 13.169347.09497-3.862164 8.325812h3.482279l5.42919-11.665635 6.94873-3.244851 7.5977 7.581872v18.994249l4.827705 2.247653v-12.662833l17.553855 14.799687zm6.719216-57.362646 4.954334 2.310967v-18.250307l-11.554836 5.381702h6.600502z" fill="#005096"/></svg>