<svg viewBox="0 0 24 24" xmlns="http://www.w3.org/2000/svg" fill="#2AC6EA"><path d="m1.8246 0c-.4424 0-.774.3685-.774.774v6.1198c0 .4424.3685.7747.774.7747h4.0554c.4424 0 .774-.3323.774-.7747s-.3684-.774-.774-.774h-3.318v-4.5718h2.544v1.2903c0 .2212.0736.4056.221.553.1475.1475.3687.2218.553.2218h4.092c.4425 0 .7749-.3692.7749-.7748v-1.2902h2.5431v1.2903c0 .4424.3692.7748.7747.7748h4.092c.2213 0 .4056-.0743.553-.2218.1476-.1474.2211-.3686.2211-.553v-1.2903h2.544v4.5349h-3.3548c-.4424 0-.7748.3685-.7748.774 0 .4424.3692.774.7748.774h4.092c.1843 0 .4055-.0735.553-.221.1475-.1474.221-.3686.221-.553v-6.083c0-.4055-.3689-.7371-.6638-.774h-4.092c-.4425 0-.7741.3685-.7741.774v1.2904h-2.544v-1.2904c0-.4424-.3685-.7741-.774-.7741h-4.092c-.4425 0-.7741.3685-.7741.774v1.2904h-2.5806v-1.2903c0-.4423-.3692-.774-.7747-.774zm-.0366 9.069c-.4424 0-.774.3686-.774.774v8.8113c-.0002 2.9494 2.3961 5.3457 5.3454 5.3457h11.281c2.9493 0 5.3457-2.3963 5.3457-5.3457v-8.8112c0-.4424-.3686-.774-.774-.774zm.774 1.5114h18.8762v8.074c0 2.1013-1.6962 3.7975-3.7976 3.7975h-11.2811c-2.1014 0-3.7976-1.6962-3.7976-3.7976zm9.4377 2.544c-1.8802 0-3.4281 1.5486-3.4281 3.4288v2.6541c0 .4424.3685.7741.774.7741h5.309c.4424 0 .774-.3685.774-.774v-2.6542c0-1.8802-1.5487-3.4288-3.4289-3.4288zm-.0367 1.4746c1.0691 0 1.9175.8484 1.9175 1.9175v1.9168h-3.8343v-1.9168c0-1.0691.8477-1.9175 1.9168-1.9175z"/></svg>