<svg height="48" viewBox="0 0 48 48" width="48" xmlns="http://www.w3.org/2000/svg"><path d="m13 38h18v-2h-18zm-11-13h19v-2h-19zm0-11h13v-2h-13zm5 15h10v-2h-10zm34-3h3v-3h-3zm4-5h-5a1 1 0 0 0 -1 1v5a1 1 0 0 0 1 1h5a1 1 0 0 0 1-1v-5a1 1 0 0 0 -1-1m-25-6h6v-6h-6zm-1 2h8a1 1 0 0 0 1-1v-8a1 1 0 0 0 -1-1h-8a1 1 0 0 0 -1 1v8a1 1 0 0 0 1 1m16 22h4v-4h-4zm5-6h-6a1 1 0 0 0 -1 1v6a1 1 0 0 0 1 1h6a1 1 0 0 0 1-1v-6a1 1 0 0 0 -1-1m-4-17h3v-3h-3zm-1 2h5a1 1 0 0 0 1-1v-5a1 1 0 0 0 -1-1h-5a1 1 0 0 0 -1 1v5a1 1 0 0 0 1 1m-9 11h7v-7h-7zm-2-8v9a1 1 0 0 0 1 1h9a1 1 0 0 0 1-1v-9a1 1 0 0 0 -1-1h-9a1 1 0 0 0 -1 1" fill="#7aa116" fill-rule="evenodd"/></svg>