<svg height="48" viewBox="0 0 48 48" width="48" xmlns="http://www.w3.org/2000/svg"><path d="m4 24c0-1.103.897-2 2-2s2 .897 2 2-.897 2-2 2-2-.897-2-2m20-20c1.103 0 2 .897 2 2s-.897 2-2 2-2-.897-2-2 .897-2 2-2m-13.039 31.532a17.4 17.4 0 0 1 -3.901-7.693c1.689-.467 2.94-2.003 2.94-3.839 0-1.821-1.23-3.344-2.897-3.826 1.501-6.412 6.654-11.528 13.103-12.969.515 1.614 2.011 2.795 3.794 2.795 1.78 0 3.274-1.177 3.792-2.787 1.8.403 3.518 1.08 5.114 2.042l1.031-1.713a19.1 19.1 0 0 0 -6.017-2.338 4.006 4.006 0 0 0 -3.92-3.204 4.006 4.006 0 0 0 -3.917 3.189c-7.471 1.539-13.436 7.49-15.012 14.931a4 4 0 0 0 -3.071 3.88c0 1.866 1.29 3.426 3.022 3.865a19.4 19.4 0 0 0 4.541 9.098l-2.547-.039-.032 2 4.924.076h.016a1 1 0 0 0 1-.985l.076-5-2-.03zm31.039-9.532c-1.103 0-2-.897-2-2s.897-2 2-2 2 .897 2 2-.897 2-2 2m-18 18c-1.103 0-2-.897-2-2s.897-2 2-2 2 .897 2 2-.897 2-2 2m22-20a4 4 0 0 0 -3.126-3.897 19.16 19.16 0 0 0 -4.673-9.06l2.815-.043-.032-2-5 .076a1.003 1.003 0 0 0 -.984 1.016l.076 4.924 2-.032-.035-2.253a17.2 17.2 0 0 1 3.807 7.458c-1.642.498-2.848 2.009-2.848 3.811 0 1.82 1.229 3.342 2.896 3.825-1.427 6.48-6.542 11.67-13.042 13.162-.452-1.714-2-2.987-3.854-2.987-1.856 0-3.406 1.276-3.855 2.993a17.2 17.2 0 0 1 -5.146-2.06l-1.037 1.71a19.1 19.1 0 0 0 6.192 2.398c.462 1.699 2.002 2.959 3.846 2.959 1.847 0 3.39-1.264 3.848-2.967 7.589-1.55 13.579-7.601 15.083-15.154a4 4 0 0 0 3.069-3.879m-22 4a1.001 1.001 0 0 1 0 2 1.001 1.001 0 0 1 0-2m0 4c1.654 0 3-1.346 3-3a3 3 0 0 0 -2-2.816v-2.184h-2v2.184a3 3 0 0 0 -2 2.816c0 1.654 1.346 3 3 3m7-7.933v7.866c0 .588-.479 1.067-1.066 1.067h-11.868a1.07 1.07 0 0 1 -1.066-1.067v-7.866c0-.588.479-1.067 1.066-1.067h11.868c.587 0 1.066.479 1.066 1.067m-9.369-10.067h4.401c1.166 0 2.078.457 2.442 1.223l1.806-.857c-.702-1.481-2.29-2.366-4.248-2.366h-4.401a4.636 4.636 0 0 0 -4.631 4.631v4.571c-1.164.436-2 1.55-2 2.865v7.866a3.07 3.07 0 0 0 3.066 3.067h11.868a3.07 3.07 0 0 0 3.066-3.067v-7.866a3.07 3.07 0 0 0 -3.066-3.067h-10.934v-4.369a2.634 2.634 0 0 1 2.631-2.631" fill="#7aa116" fill-rule="evenodd"/></svg>