<svg height="18" viewBox="0 0 18 18" width="18" xmlns="http://www.w3.org/2000/svg"><path d="m13.022 16.764c-2.09-.28-2.055-1.624-2.045-3.8h-3.916c.01 2.179.045 3.523-2.046 3.8a1.066 1.066 0 0 0 -.984.958h9.981a1.07 1.07 0 0 0 -.99-.958" fill="#1f56a3"/><rect fill="#1490df" height="12.747" rx=".61" width="18" y=".278"/><rect fill="#fff" height="10.576" rx=".305" width="15.901" x="1.037" y="1.265"/><path d="m12.079 4.654a.15.15 0 0 0 -.13.074l-.93 1.572a.15.15 0 0 1 -.262-.006l-1.424-2.713a.151.151 0 0 0 -.276.022l-1.338 3.972a.151.151 0 0 1 -.281.011l-1.157-2.681a.15.15 0 0 0 -.27-.013l-1.593 2.9a.15.15 0 0 1 -.132.078h-3.249v.958h3.815a.15.15 0 0 0 .132-.078l.923-1.678a.151.151 0 0 1 .27.013l1.371 3.178a.15.15 0 0 0 .28-.011l1.422-4.221a.15.15 0 0 1 .275-.022l1.182 2.25a.151.151 0 0 0 .263.007l1.53-2.58a.15.15 0 0 1 .129-.074h4.314v-.958z" fill="#76bc2d"/></svg>