<svg xmlns="http://www.w3.org/2000/svg" width="18" height="18" viewBox="0 0 18 18"><rect width="10.17" height="16.99" x="1.28" y=".5" fill="currentColor" rx=".51"/><rect width="1.14" height=".97" x="5.79" y="16.17" fill="currentColor" rx=".27"/><rect width="2.34" height=".31" x="5.19" y="1.07" fill="currentColor" rx=".15"/><rect width="8.26" height="13.65" x="2.23" y="1.94" fill="currentColor" opacity=".9" rx=".19"/><rect width="7.52" height="7.52" x="9.2" y="9.98" fill="currentColor" rx=".28"/><g fill="currentColor"><path d="m12.575 15.34-.432.43a.19.19 0 0 1-.268 0l-1.726-1.724a.19.19 0 0 1 0-.27l.304-.303a.19.19 0 0 1 .269 0l1.86 1.86z"/><path d="m11.914 15.759-.431-.432 3.96-3.96a.19.19 0 0 1 .268 0l.304.304a.19.19 0 0 1 0 .27l-3.825 3.825a.19.19 0 0 1-.269 0z"/></g></svg>