<svg height="48" viewBox="0 0 48 48" width="48" xmlns="http://www.w3.org/2000/svg"><path d="m20 32c-1.654 0-3 1.346-3 3s1.346 3 3 3 3-1.346 3-3-1.346-3-3-3m0 8c-2.757 0-5-2.243-5-5s2.243-5 5-5 5 2.243 5 5-2.243 5-5 5m9-19c-1.654 0-3 1.346-3 3s1.346 3 3 3 3-1.346 3-3-1.346-3-3-3m0 8c-2.757 0-5-2.243-5-5s2.243-5 5-5 5 2.243 5 5-2.243 5-5 5m-12-19c-1.654 0-3 1.346-3 3s1.346 3 3 3 3-1.346 3-3-1.346-3-3-3m0 8c-2.757 0-5-2.243-5-5s2.243-5 5-5 5 2.243 5 5-2.243 5-5 5m-11 18h7v-2h-7zm21 0h15v-2h-15zm-21-11h16v-2h-16zm30 0h6v-2h-6zm-30-11h4v-2h-4zm18 0h18v-2h-18zm-20 30h40v-40h-40zm41 2h-42a1 1 0 0 1 -1-1v-42a1 1 0 0 1 1-1h42a1 1 0 0 1 1 1v42a1 1 0 0 1 -1 1" fill="#7aa116" fill-rule="evenodd"/></svg>