<svg height="18" viewBox="0 0 18 18" width="18" xmlns="http://www.w3.org/2000/svg" xmlns:xlink="http://www.w3.org/1999/xlink"><linearGradient id="a" gradientUnits="userSpaceOnUse" x1="7.104" x2="7.104" y1="2.052" y2="18.826"><stop offset="0" stop-color="#0078d4"/><stop offset="1" stop-color="#005ba1"/></linearGradient><linearGradient id="b" gradientUnits="userSpaceOnUse" x1="14.209" x2="14.209" y1="4.873" y2="14.895"><stop offset=".001" stop-color="#76bc2d"/><stop offset="1" stop-color="#86d633"/></linearGradient><linearGradient id="c" gradientTransform="matrix(1 0 0 -1 564 1025.516)" gradientUnits="userSpaceOnUse" x1="-549.791" x2="-549.791" y1="1012.685" y2="1021.876"><stop offset="0" stop-color="#5e9624"/><stop offset=".999" stop-color="#76bc2d"/></linearGradient><g stroke-width="0"><path d="m9.962 8.728v-2.905a.68.68 0 0 1 .676-.673c1.108-.029 1.454-.266 1.821-.518s.784-.538 1.75-.538v-1.943a.656.656 0 0 0 -.661-.651h-12.887a.656.656 0 0 0 -.661.651v13.697c0 .36.296.651.661.651h12.887a.656.656 0 0 0 .661-.651v-1.895a.7.7 0 0 1 -.361-.099c-.649-.387-3.886-2.455-3.886-5.127z" fill="url(#a)"/><g fill="#c3f1ff"><path d="m5.896 5.313v-.47l-.067-.025-.512-.165-.134-.321.26-.544-.335-.33-.067.033-.476.238-.326-.132-.21-.569h-.477l-.025.066-.167.504-.326.132-.545-.257-.335.33.033.066.244.47-.134.321-.587.207v.47l.067.025.512.165.134.321-.26.545.335.33.067-.033.477-.239.326.132.21.569h.477l.025-.066.167-.504.326-.132.553.256.335-.33-.033-.066-.242-.469.134-.321.578-.207zm-2.094.682c-.507 0-.919-.405-.919-.905s.411-.905.919-.905.919.405.919.905c0 .499-.41.905-.917.905h-.001zm.276 7.406-.119-.11a.193.193 0 0 0 -.271 0l-1.087 1.071-.447-.44a.193.193 0 0 0 -.271 0l-.119.11a.19.19 0 0 0 0 .269l.696.685a.193.193 0 0 0 .27.002l.002-.002 1.337-1.316a.186.186 0 0 0 .012-.266zm0-2.49-.119-.11a.193.193 0 0 0 -.271 0l-1.087 1.071-.447-.44a.193.193 0 0 0 -.271 0l-.119.11a.19.19 0 0 0 0 .269l.696.685a.193.193 0 0 0 .27.002l.002-.002 1.337-1.316a.186.186 0 0 0 .012-.266zm0-2.549-.119-.11a.193.193 0 0 0 -.271 0l-1.087 1.071-.447-.44a.193.193 0 0 0 -.271 0l-.119.11a.19.19 0 0 0 0 .269l.696.685a.193.193 0 0 0 .27.002l.002-.002 1.337-1.316a.186.186 0 0 0 .012-.266z"/><rect height=".963" rx=".325" width="7.068" x="5.031" y="13.713"/><rect height=".963" rx=".325" width="5.02" x="5.031" y="11.166"/><rect height=".963" rx=".325" width="4.189" x="5.031" y="8.618"/></g><path d="m18 8.728c0 2.41-3.012 4.35-3.666 4.743a.25.25 0 0 1 -.25 0c-.655-.391-3.666-2.334-3.666-4.743v-2.9a.235.235 0 0 1 .233-.23c2.342-.061 1.803-1.056 3.558-1.056s1.216.995 3.558 1.056a.235.235 0 0 1 .233.23z" fill="url(#b)"/><path d="m17.685 8.752c0 2.209-2.761 3.989-3.362 4.35a.22.22 0 0 1 -.229 0c-.601-.358-3.362-2.14-3.362-4.35v-2.657a.215.215 0 0 1 .213-.211c2.148-.058 1.653-.97 3.263-.97s1.115.912 3.261.968a.215.215 0 0 1 .213.211l.002 2.659z" fill="url(#c)"/></g><path d="m16.113 7.144-2.342 2.318-1.141-1.124-.057-.046a.414.414 0 0 0 -.568.111.4.4 0 0 0 .046.505l1.43 1.411.057.046a.41.41 0 0 0 .521-.048l2.636-2.603.047-.056a.4.4 0 0 0 -.119-.558.414.414 0 0 0 -.506.045h-.007.002z" fill="#fff"/></svg>