<svg height="24" width="24" xmlns="http://www.w3.org/2000/svg"><path d="m10 17h4v4h-4z" fill="#4285f4"/><g fill-rule="evenodd"><path d="m19 10.84-4.34-4.33-1.01 1.01 5.35 5.33z" fill="#669df6"/><path d="m15.67 9.53-2.02-2.01 1.01-1.01 1.01 1.01z" fill="#4285f4"/><path d="m10.94 12.24-1.01-1.01 4.73-4.72 1.01 1.01z" fill="#aecbfa"/><path d="m10.94 12.24-2.86-2.85 1.02-1.01 2.85 2.85z" fill="#669df6"/><path d="m10.08 11.38-2-1.99 1.02-1.01.98.98z" fill="#4285f4"/><path d="m5.44 13.99 4.64-4.63-1.01-1.01-4.07 4.06v1.58z" fill="#aecbfa"/><path d="m22 4.05a1.24 1.24 0 0 0 -1-1h-18a1.24 1.24 0 0 0 -1 1v12.95a1.19 1.19 0 0 0 1 1h18a1.19 1.19 0 0 0 1-1zm-2 11.95h-16v-11h16zm-12 6c0-.69.31-1 1-1h6c.69 0 1 .31 1 1z" fill="#669df6"/></g></svg>