<svg xmlns="http://www.w3.org/2000/svg" width="18" height="18" viewBox="0 0 18 18"><defs><mask id="a"><path fill="#fff" d="M0 0h18v18H0z"/><path d="M14.333 10.223v4.806a.55.55 0 0 1-.552.552H2.81a.55.55 0 0 1-.552-.552V4.672a.55.55 0 0 1 .552-.552h5.5a.3.3 0 0 0 .3-.3V2.665a.3.3 0 0 0-.3-.3H1.052a.55.55 0 0 0-.552.549v13.874a.55.55 0 0 0 .552.552h14.487a.553.553 0 0 0 .553-.552v-6.565a.3.3 0 0 0-.3-.3h-1.156a.3.3 0 0 0-.303.3"/><path d="M4.281 6.11h7.726v7.726H4.281z"/></mask></defs><path fill="currentColor" d="M16.894.66h-7.3a.3.3 0 0 0-.3.3v1.327a.3.3 0 0 0 .3.3h5.371a.605.605 0 0 1 .605.606v5.458a.3.3 0 0 0 .3.3h1.33a.3.3 0 0 0 .3-.3V1.266a.606.606 0 0 0-.606-.606" mask="url(#a)"/></svg>