<svg height="18" viewBox="0 0 18 18" width="18" xmlns="http://www.w3.org/2000/svg" xmlns:xlink="http://www.w3.org/1999/xlink"><linearGradient id="a" gradientUnits="userSpaceOnUse" x1="8.144" x2="8.144" y1="13.837" y2="6.11"><stop offset="0" stop-color="#32bedd"/><stop offset=".175" stop-color="#32caea"/><stop offset=".41" stop-color="#32d2f2"/><stop offset=".775" stop-color="#32d4f5"/></linearGradient><rect fill="url(#a)" height="7.726" rx=".303" width="7.726" x="4.281" y="6.11"/><path d="m16.894.66h-7.3a.3.3 0 0 0 -.3.3v1.327a.3.3 0 0 0 .3.3h5.371a.605.605 0 0 1 .605.606v5.458a.3.3 0 0 0 .3.3h1.33a.3.3 0 0 0 .3-.3v-7.385a.606.606 0 0 0 -.606-.606" fill="#773adc"/><path d="m14.333 10.223v4.806a.55.55 0 0 1 -.552.552h-10.971a.55.55 0 0 1 -.552-.552v-10.357a.55.55 0 0 1 .552-.552h5.5a.3.3 0 0 0 .3-.3v-1.155a.3.3 0 0 0 -.3-.3h-7.258a.55.55 0 0 0 -.552.549v13.874a.55.55 0 0 0 .552.552h14.487a.553.553 0 0 0 .553-.552v-6.565a.3.3 0 0 0 -.3-.3h-1.156a.3.3 0 0 0 -.303.3" fill="#b3b3b3"/></svg>