<svg viewBox="0 0 24 24" xmlns="http://www.w3.org/2000/svg"><path d="m20 0h-16a4 4 0 0 0 -4 4v16a4 4 0 0 0 3.998 4h16a4 4 0 0 0 4.002-4v-16a4 4 0 0 0 -4-4zm-14.603 19.576-1.828-1.673a.316.316 0 0 1 -.018-.445l4.004-4.376a.314.314 0 0 0 .009-.415l-3.744-4.45a.315.315 0 0 1 .038-.443l1.893-1.595a.315.315 0 0 1 .443.038l5.495 6.537a.316.316 0 0 1 -.008.417l-5.841 6.388a.315.315 0 0 1 -.442.018zm15.147-.102c0 .174-.141.315-.315.315h-8.489a.315.315 0 0 1 -.314-.315v-2.332c0-.174.14-.315.314-.315h8.488c.174 0 .315.14.315.315z"/></svg>