<svg xmlns="http://www.w3.org/2000/svg" id="Layer_1" data-name="Layer 1" viewBox="0 0 432 216"><path d="M0 0h432v216H0z" fill="none"/><path d="M33.98 154.93h2.77l-2.57 10.75c-.38 1.59-.31 2.8.22 3.6q.795 1.2 2.94 1.2c2.145 0 2.59-.4 3.5-1.2s1.56-2 1.94-3.6l2.57-10.75h2.81l-2.64 11.02c-.57 2.39-1.59 4.19-3.06 5.37-1.46 1.19-3.38 1.78-5.75 1.78s-4-.59-4.89-1.78c-.89-1.18-1.04-2.98-.47-5.38l2.64-11.02ZM47.77 172.64l4.41-18.41 8.37 10.82c.22.3.45.63.67.98s.45.74.68 1.17l2.94-12.27h2.59l-4.4 18.39-8.55-11.02a10.4 10.4 0 0 1-1.19-1.98l-2.95 12.31h-2.58ZM67.21 172.64l4.24-17.7h2.8l-4.24 17.7zM74.05 172.64l4.24-17.7h9.63l-.58 2.44h-6.83l-1.06 4.41h6.83l-.6 2.53h-6.83l-1.99 8.32h-2.8ZM86.77 172.64l4.24-17.7h2.8l-4.24 17.7zM93.61 172.64l4.24-17.7h9.63l-.58 2.44h-6.83l-1.06 4.44h6.83l-.6 2.53h-6.83l-1.37 5.72h6.83l-.62 2.58h-9.63ZM106.45 172.64l4.24-17.7h3.78c2.46 0 4.16.13 5.1.38s1.72.68 2.33 1.28c.81.78 1.33 1.79 1.55 3.01.22 1.23.14 2.62-.23 4.2-.38 1.57-.97 2.96-1.77 4.18-.8 1.21-1.8 2.21-2.99 3-.9.6-1.86 1.02-2.88 1.28-1.02.25-2.55.38-4.59.38h-4.54Zm3.43-2.6h2.36c1.3 0 2.29-.09 2.98-.27a5.8 5.8 0 0 0 1.91-.9q1.185-.855 1.98-2.13t1.2-2.97c.27-1.13.34-2.12.22-2.97s-.44-1.56-.96-2.14c-.39-.42-.9-.72-1.54-.9q-.96-.27-3.12-.27h-2.03l-3 12.53ZM136.14 164.69l-1.9 7.95h-2.63l4.24-17.7h4.24q1.89 0 2.73.21c.56.14 1.02.37 1.38.7.44.41.73.97.87 1.66.14.7.11 1.47-.09 2.3-.2.84-.54 1.61-1.02 2.32s-1.03 1.27-1.67 1.67q-.78.48-1.71.69-.945.21-2.82.21h-1.62Zm.74-2.36h.72c1.56 0 2.63-.17 3.24-.52.6-.35 1.01-.96 1.22-1.84.23-.94.11-1.61-.35-1.99-.46-.39-1.43-.58-2.92-.58h-.72l-1.18 4.94ZM154.54 172.64l-.87-4.56h-6.84l-3.09 4.56h-2.95l12.76-18.41 3.94 18.41h-2.96Zm-6.09-6.96h4.81l-.8-4.04a17.248 17.248 0 0 1-.16-2.01c-.19.39-.37.75-.56 1.08s-.37.64-.55.92l-2.73 4.04ZM161.52 172.64l1.94-8.1-3.51-9.6h2.95l2.18 6.01c.05.15.11.36.18.61s.14.52.2.81c.18-.28.36-.55.54-.8s.36-.48.55-.69l5.13-5.94h2.81l-8.24 9.6-1.94 8.1h-2.78ZM188.28 163.89q0-.21.12-1.14c.06-.52.11-.94.14-1.28-.17.4-.36.81-.59 1.21s-.49.81-.78 1.23l-6.77 9.43-2.21-9.63c-.09-.4-.17-.78-.21-1.15-.05-.37-.08-.74-.1-1.1-.1.37-.22.76-.37 1.17s-.33.83-.53 1.28l-3.94 8.72h-2.58l8.5-18.45 2.42 11.17c.04.18.09.47.15.88s.13.92.22 1.52c.29-.51.7-1.15 1.24-1.94q.21-.315.33-.48l7.65-11.16-.24 18.45h-2.61l.18-8.74ZM192.94 172.64l4.24-17.7h9.63l-.58 2.44h-6.83l-1.06 4.44h6.83l-.6 2.53h-6.83l-1.37 5.72h6.83l-.62 2.58h-9.63ZM205.79 172.64l4.41-18.41 8.37 10.82c.22.3.45.63.67.98s.45.74.68 1.17l2.94-12.27h2.59l-4.4 18.39-8.55-11.02a10.4 10.4 0 0 1-1.19-1.98l-2.95 12.31h-2.58ZM234.41 157.38l-3.65 15.26h-2.8l3.65-15.26h-4.58l.58-2.44h11.95l-.58 2.44h-4.56ZM237.32 169.09l2.49-1.06c.02.79.27 1.39.73 1.81.47.42 1.14.62 2.02.62.83 0 1.55-.24 2.16-.71.6-.47 1-1.11 1.19-1.91.25-1.04-.37-1.97-1.86-2.78q-.315-.18-.48-.27c-1.67-.95-2.74-1.81-3.18-2.58q-.675-1.155-.27-2.82c.35-1.44 1.1-2.61 2.27-3.51s2.53-1.34 4.08-1.34c1.27 0 2.28.25 3.01.76.74.5 1.16 1.23 1.26 2.17l-2.47 1.16c-.21-.56-.5-.96-.85-1.22s-.79-.39-1.33-.39c-.75 0-1.4.2-1.94.6q-.81.6-1.05 1.62c-.25 1.07.48 2.06 2.21 2.98.13.07.24.13.31.17 1.51.8 2.5 1.59 2.95 2.36q.675 1.155.27 2.88c-.4 1.68-1.23 3.01-2.5 4s-2.78 1.48-4.53 1.48c-1.47 0-2.59-.35-3.36-1.04s-1.15-1.68-1.13-2.97ZM258.05 172.64l4.24-17.7h2.8l-4.24 17.7zM264.88 172.64l4.41-18.41 8.37 10.82c.22.3.45.63.67.98s.45.74.68 1.17l2.94-12.27h2.59l-4.4 18.39-8.55-11.02a10.4 10.4 0 0 1-1.19-1.98l-2.95 12.31h-2.58ZM293.5 157.38l-3.65 15.26h-2.8l3.65-15.26h-4.58l.58-2.44h11.95l-.58 2.44h-4.56ZM296.56 172.64l4.24-17.7h9.63l-.58 2.44h-6.83l-1.06 4.44h6.83l-.6 2.53h-6.83l-1.37 5.72h6.83l-.62 2.58h-9.63ZM313.93 164.72l-1.9 7.92h-2.63l4.24-17.7h3.91c1.15 0 2.02.08 2.61.23.6.15 1.08.41 1.44.76.43.43.71.98.84 1.66s.1 1.42-.1 2.22q-.51 2.13-1.8 3.33t-3.3 1.44l4.01 8.05h-3.17l-3.84-7.92h-.32Zm.71-2.24h.51c1.48 0 2.51-.18 3.09-.53.57-.35.97-.98 1.18-1.89.23-.97.14-1.66-.29-2.06q-.645-.6-2.76-.6h-.51zM322.93 172.64l4.24-17.7h9.63l-.58 2.44h-6.83l-1.06 4.41h6.83l-.6 2.53h-6.83l-1.99 8.32h-2.8ZM346.14 172.64l-.87-4.56h-6.84l-3.09 4.56h-2.95l12.76-18.41 3.94 18.41h-2.96Zm-6.09-6.96h4.81l-.8-4.04c-.04-.26-.07-.55-.11-.89-.03-.33-.05-.71-.06-1.12-.19.39-.37.75-.56 1.08s-.37.64-.55.92l-2.73 4.04ZM367.36 159.24a6.3 6.3 0 0 0-2.14-1.56c-.8-.35-1.69-.52-2.66-.52-1.89 0-3.57.62-5.05 1.86s-2.46 2.85-2.93 4.83c-.46 1.91-.26 3.49.6 4.73.85 1.24 2.16 1.86 3.91 1.86 1.02 0 2.04-.19 3.05-.56q1.515-.555 3.06-1.68l-.78 3.25c-.89.56-1.81.97-2.76 1.25-.95.27-1.95.41-2.99.41-1.32 0-2.49-.22-3.5-.67a6 6 0 0 1-2.48-1.96c-.64-.85-1.05-1.84-1.22-2.99-.18-1.15-.11-2.37.2-3.67s.83-2.52 1.55-3.66 1.62-2.14 2.68-3q1.605-1.305 3.42-1.98c1.21-.45 2.47-.67 3.76-.67q1.515 0 2.79.45c.85.3 1.63.76 2.35 1.37l-.85 2.9ZM367.63 172.64l4.24-17.7h9.63l-.58 2.44h-6.83l-1.06 4.44h6.83l-.6 2.53h-6.83l-1.37 5.72h6.83l-.62 2.58h-9.63Z" fill="#71716f"/><path d="M316.46 139.51h-19.28L324 42.65h19.28zM306.45 45.71c-1.34-1.84-3.4-2.77-6.2-2.77H194.21l-5.25 18.97h19.29l77.17-.01-5.61 20.27h-77.17v-.04h-19.28l-16.01 57.79h19.3l10.74-38.79h86.75c2.71 0 5.26-.92 7.66-2.77 2.39-1.85 3.97-4.13 4.72-6.86l10.74-38.79c.78-2.82.51-5.15-.81-7M156.12 133.46a8.875 8.875 0 0 1-8.54 6.49H48.09c-2.71 0-4.73-.92-6.05-2.77s-1.61-4.13-.85-6.86l24.28-87.39h19.3l-21.68 78.05h77.21l21.68-78.05h19.3l-25.15 90.53Z" fill="#6e6f71"/><path d="M376.59 42.83 401 91.38l-51.32 48.54z" fill="#0f8041"/><path d="m359.47 42.83 24.4 48.55-51.35 48.54z" fill="#e97726"/></svg>