<svg xmlns="http://www.w3.org/2000/svg" width="64" height="64" viewBox="0 0 64 64"><title>Icon-Architecture/48/Arch_Amazon-SageMaker-Studio-Lab_48</title><g id="Icon-Architecture/48/Arch_Amazon-SageMaker-Studio-Lab_48" fill="none" fill-rule="evenodd" stroke="none" stroke-width="1"><g id="Icon-Architecture-BG/48/Machine-Learning" fill="#01a88d"><path id="Rectangle" d="M0 0h64v64H0z"/></g><g id="Icon-Service/48/Amazon-SageMaker-Studio-Lab_48" fill="#fff" transform="translate(10 9.7)"><path id="Fill-1" d="M28.001 33.329h14v-22h-14zm-2 0v-22h-3v4h1v2h-1v4h1v2h-1v4h1v2h-1v4zm18-23v24a1 1 0 0 1-1 1h-21a1 1 0 0 1-1-1v-5h-1v-2h1v-4h-1v-2h1v-4h-1v-2h1v-5a1 1 0 0 1 1-1h21a1 1 0 0 1 1 1m-23 27h2v2.377a1 1 0 0 1-.513.873l-5.6 3.129a1 1 0 0 1-1.003-.016l-10.4-6.26a1 1 0 0 1-.484-.856v-6.52l-4.44-2.17a1 1 0 0 1-.56-.897L0 21.472l.001-4.643c0-.362.196-.696.512-.873l4.488-2.508V6.53a1 1 0 0 1 .505-.87L15.198.133a1 1 0 0 1 .946-.024L22.451 3.3a1 1 0 0 1 .549.89l.001 3.137h-2L21 4.808l-5.278-2.671-1.721.98v7.213h-2V4.258l-5 2.852v5.615l4.643 2.814 4.357-2.752V8.805h2v4.533a1 1 0 0 1-.466.845l-4.534 2.865v3.28h4v1.909h-4.696l-4.78 2.943-1.049-1.703 4.525-2.786v-3.203L6.61 14.827a1 1 0 0 1-.121.08l-4.488 2.509L2 20.46l4.446-2.964 1.11 1.664L2 22.865l.001 3.5 4.439 2.17c.056.027.102.066.151.102l2.81-2.108 1.2 1.6-3.6 2.699v5.183l4.62 2.78 1.38-1.15v-8.312h2v6.646l2.4-2.001 1.282 1.537-5.248 4.373 2.984 1.795 4.582-2.56z"/></g></g></svg>