<svg height="64" viewBox="0 0 64 64" width="64" xmlns="http://www.w3.org/2000/svg"><g fill="none" fill-rule="evenodd"><path d="m0 0h64v64h-64z" fill="#01a88d"/><path d="m28.001 33.329h14v-22h-14zm-2 0v-22h-3v4h1v2h-1v4h1v2h-1v4h1v2h-1v4zm18-23v24a1 1 0 0 1 -1 1h-21a1 1 0 0 1 -1-1v-5h-1v-2h1v-4h-1v-2h1v-4h-1v-2h1v-5a1 1 0 0 1 1-1h21a1 1 0 0 1 1 1m-23 27h2v2.377a1 1 0 0 1 -.513.873l-5.6 3.129a1 1 0 0 1 -1.003-.016l-10.4-6.26a1 1 0 0 1 -.484-.856v-6.52l-4.44-2.17a1 1 0 0 1 -.56-.897l-.001-5.517.001-4.643c0-.362.196-.696.512-.873l4.488-2.508v-6.918a1 1 0 0 1 .505-.87l9.692-5.527a1 1 0 0 1 .946-.024l6.307 3.191a1 1 0 0 1 .549.89l.001 3.137h-2l-.001-2.519-5.278-2.671-1.721.98v7.213h-2v-6.072l-5 2.852v5.615l4.643 2.814 4.357-2.752v-3.982h2v4.533a1 1 0 0 1 -.466.845l-4.534 2.865v3.28h4v1.909h-4.696l-4.78 2.943-1.049-1.703 4.525-2.786v-3.203l-4.391-2.661a1 1 0 0 1 -.121.08l-4.488 2.509-.001 3.044 4.446-2.964 1.11 1.664-5.556 3.705.001 3.5 4.439 2.17c.056.027.102.066.151.102l2.81-2.108 1.2 1.6-3.6 2.699v5.183l4.62 2.78 1.38-1.15v-8.312h2v6.646l2.4-2.001 1.282 1.537-5.248 4.373 2.984 1.795 4.582-2.56z" fill="#fff" transform="translate(10 9.7)"/></g></svg>