<svg viewBox="0 0 128 128" xmlns="http://www.w3.org/2000/svg" xmlns:xlink="http://www.w3.org/1999/xlink"><clipPath id="a"><path d="m0 0h128v128h-128z"/></clipPath><clipPath id="b"><path d="m0 0h128v128h-128z"/></clipPath><clipPath id="c"><path d="m0 0h128v128h-128z"/></clipPath><clipPath id="d"><path d="m0 0h128v128h-128z"/></clipPath><clipPath id="e"><path d="m0 0h128v128h-128z"/></clipPath><clipPath id="f"><path d="m0 0h128v128h-128z"/></clipPath><clipPath id="g"><path d="m0 0h128v128h-128z"/></clipPath><clipPath id="h"><path d="m0 0h128v128h-128z"/></clipPath><clipPath id="i"><path d="m0 0h128v128h-128z"/></clipPath><clipPath id="j"><path d="m0 0h128v128h-128z"/></clipPath><clipPath id="k"><path d="m0 0h128v128h-128z"/></clipPath><clipPath id="l"><path d="m0 0h128v128h-128z"/></clipPath><clipPath id="m"><path d="m0 0h128v128h-128z"/></clipPath><clipPath id="n"><path d="m0 0h128v128h-128z"/></clipPath><clipPath id="o"><path d="m0 0h128v128h-128z"/></clipPath><clipPath id="p"><path d="m0 0h128v128h-128z"/></clipPath><clipPath id="q"><path d="m0 0h128v128h-128z"/></clipPath><mask id="r"><g filter="url(#U)"><path d="m0 0h128v128h-128z" fill-opacity=".349"/></g></mask><mask id="s"><g filter="url(#U)"><path d="m0 0h128v128h-128z" fill-opacity=".2"/></g></mask><mask id="t"><g filter="url(#U)"><path d="m0 0h128v128h-128z" fill-opacity=".6"/></g></mask><mask id="u"><g filter="url(#U)"><path d="m0 0h128v128h-128z" fill-opacity=".4"/></g></mask><mask id="v"><g filter="url(#U)"><path d="m0 0h128v128h-128z" fill-opacity=".4"/></g></mask><mask id="w"><g filter="url(#U)"><path d="m0 0h128v128h-128z" fill-opacity=".4"/></g></mask><mask id="x"><g filter="url(#U)"><path d="m0 0h128v128h-128z" fill-opacity=".302"/></g></mask><mask id="y"><g filter="url(#U)"><path d="m0 0h128v128h-128z" fill-opacity=".42"/></g></mask><mask id="z"><g filter="url(#U)"><path d="m0 0h128v128h-128z" fill-opacity=".2"/></g></mask><mask id="A"><g filter="url(#U)"><path d="m0 0h128v128h-128z" fill-opacity=".4"/></g></mask><mask id="B"><g filter="url(#U)"><path d="m0 0h128v128h-128z" fill-opacity=".2"/></g></mask><mask id="C"><g filter="url(#U)"><path d="m0 0h128v128h-128z" fill-opacity=".4"/></g></mask><mask id="D"><g filter="url(#U)"><path d="m0 0h128v128h-128z" fill-opacity=".4"/></g></mask><mask id="E"><g filter="url(#U)"><path d="m0 0h128v128h-128z" fill-opacity=".4"/></g></mask><mask id="F"><g filter="url(#U)"><path d="m0 0h128v128h-128z" fill-opacity=".349"/></g></mask><mask id="G"><g filter="url(#U)"><path d="m0 0h128v128h-128z" fill-opacity=".4"/></g></mask><mask id="H"><g filter="url(#U)"><path d="m0 0h128v128h-128z" fill-opacity=".302"/></g></mask><linearGradient id="I"><stop offset=".204" stop-color="#ffd813" stop-opacity="0"/><stop offset=".781" stop-color="#ffd813"/></linearGradient><linearGradient id="J" gradientUnits="userSpaceOnUse" x1="50.25075" x2="74.120875" xlink:href="#I" y1="85.45975" y2="44.115625"/><linearGradient id="K" gradientUnits="userSpaceOnUse" x1="44.5785" x2="83.60675" y1="37.3135" y2="37.3135"><stop offset=".408" stop-color="#fff" stop-opacity="0"/><stop offset=".999" stop-color="#fff"/></linearGradient><linearGradient id="L"><stop offset=".096" stop-color="#00caf4" stop-opacity="0"/><stop offset=".568" stop-color="#00caf4" stop-opacity=".282"/><stop offset=".6" stop-color="#00caf4" stop-opacity=".302"/><stop offset=".797" stop-color="#00caf4" stop-opacity=".302"/><stop offset="1" stop-color="#00caf4" stop-opacity=".102"/></linearGradient><linearGradient id="M" gradientUnits="userSpaceOnUse" x1="55.637125" x2="55.637125" xlink:href="#L" y1="43.81225" y2="30.032125"/><linearGradient id="N" gradientTransform="matrix(-.125 0 0 .125 -1672.883 0)" gradientUnits="userSpaceOnUse" x1="-13963.451" x2="-13963.451" xlink:href="#L" y1="350.498" y2="240.257"/><linearGradient id="O" gradientUnits="userSpaceOnUse" x1="33.904625" x2="94.311875" xlink:href="#L" y1="25.067125" y2="25.067125"/><linearGradient id="P" gradientUnits="userSpaceOnUse" x1="42.6785" x2="85.50675" xlink:href="#I" y1="47.018875" y2="47.018875"/><linearGradient id="Q" gradientUnits="userSpaceOnUse" x1="35.114125" x2="93.071125" xlink:href="#L" y1="52.737125" y2="52.737125"/><linearGradient id="R" gradientUnits="userSpaceOnUse" x1="64.078125" x2="64.078125" y1="80.597125" y2="107.5415"><stop offset="0" stop-color="#005f8e"/><stop offset=".724" stop-color="#004972"/><stop offset=".74" stop-color="#004972"/></linearGradient><linearGradient id="S" gradientUnits="userSpaceOnUse" x1="77.999625" x2="77.999625" y1="80.59725" y2="107.5415"><stop offset="0" stop-color="#008dc4"/><stop offset=".541" stop-color="#0072a7"/></linearGradient><linearGradient id="T" gradientUnits="userSpaceOnUse" x1="37.714125" x2="90.5025" xlink:href="#I" y1="19.118625" y2="19.118625"/><filter id="U" height="100%" width="100%" x="0%" y="0%"><feColorMatrix in="SourceGraphic" values="0 0 0 0 1 0 0 0 0 1 0 0 0 0 1 0 0 0 1 0"/></filter><path d="m47.688 107.54v2.347c0 .199.164.363.363.363h31.773c.2 0 .364-.164.364-.363v-2.348zm35.922-62.427h-39.026v-15.61h39.023zm0 0" fill="#00caf4"/><g clip-path="url(#q)" mask="url(#t)"><path d="m44.574 29.512h39.04v15.601h-39.04zm0 0" fill="url(#K)"/></g><g clip-path="url(#h)" mask="url(#z)"><path d="m77.96 43.813h5.653v-5.649zm0 0" fill="#fff"/></g><g clip-path="url(#c)" mask="url(#F)"><path d="m67.477 43.813 14.296-14.301h-20.296l-14.301 14.3zm0 0" fill="#fff"/></g><g clip-path="url(#e)" mask="url(#D)"><path d="m44.574 29.512h39.028v1.562h-39.028zm0 0" fill="#004972"/></g><g clip-path="url(#g)" mask="url(#B)"><path d="m54.688 29.512h-10.115v10.101zm0 0" fill="#fff"/></g><path d="m83.61 45.23h-39.025v-1.42h39.023zm0 0" fill="#002d4f"/><path d="m71.613 30.04h1.524v13.773h-1.524zm-16.562 0h1.523v13.773h-1.523zm0 0" fill="#002d4f"/><path d="m55.05 30.04h1.177v13.773h-1.177zm0 0" fill="url(#M)"/><path d="m71.96 30.04h1.177v13.773h-1.177zm0 0" fill="url(#N)"/><g clip-path="url(#a)" mask="url(#H)"><path d="m56.574 30.04h.352v13.773h-.352zm0 0" fill="#004972"/></g><g clip-path="url(#k)" mask="url(#x)"><path d="m71.25 30.04h.352v13.773h-.352zm0 0" fill="#004972"/></g><path d="m85.512 48.8-.586-3.277a.353.353 0 0 0 -.352-.296h-40.96a.353.353 0 0 0 -.352.296l-.586 3.278zm0 0" fill="#ffc600"/><path d="m93.074 56.676-1.363-7.574a.346.346 0 0 0 -.348-.3h-54.539a.346.346 0 0 0 -.347.301l-1.364 7.574zm0 0" fill="#002d4f"/><path d="m93.074 56.676-1.363-7.574a.346.346 0 0 0 -.348-.3h-54.539a.346.346 0 0 0 -.347.301l-1.364 7.574zm0 0" fill="url(#Q)"/><path d="m45.426 80.602v26.062a.87.87 0 0 0 .875.875h35.55c.485 0 .876-.39.876-.875v-26.062zm0 0" fill="url(#R)"/><path d="m36.824 48.8a.346.346 0 0 0 -.347.302l-.016.074h55.266l-.016-.074a.346.346 0 0 0 -.348-.301zm0 0" fill="#002d4f"/><path d="m37.71 20.625h52.79l-.727-2.7a.411.411 0 0 0 -.398-.3h-50.648a.43.43 0 0 0 -.403.313zm0 0" fill="#ffc600"/><path d="m37.71 20.625h52.79l-.727-2.7a.411.411 0 0 0 -.398-.3h-50.648a.43.43 0 0 0 -.403.313zm0 0" fill="url(#T)"/><g clip-path="url(#m)" mask="url(#v)"><path d="m37.71 20.625h52.79l-.2-.773h-52.412zm0 0" fill="#b47d4f"/></g><path d="m35.563 30.04h57.085c.141 0 .25-.102.278-.227l1.398-9.188h-60.426l1.391 9.188a.28.28 0 0 0 .273.226zm0 0" fill="#002d4f"/><path d="m33.988 21.188h60.239l.085-.563h-60.414zm0 0" fill="#005a82"/><path d="m85.512 48.8-.586-3.277a.353.353 0 0 0 -.352-.296h-40.96a.353.353 0 0 0 -.352.296l-.586 3.278zm0 0" fill="url(#P)"/><path d="m85.512 48.8-.2-1.09h-42.436l-.2 1.09zm0 0" fill="#db9927"/><g clip-path="url(#p)" mask="url(#r)"><path d="m93.074 56.676-.324-1.824h-57.313l-.324 1.824zm0 0" fill="#002d4f"/></g><g clip-path="url(#n)" mask="url(#s)"><path d="m47.688 107.54h32.488v.522h-32.49zm0 0" fill="#004972"/></g><g clip-path="url(#l)" mask="url(#u)"><path d="m54.887 80.602h-9.473v26.062c0 .484.387.875.875.875h8.586v-26.937zm0 0" fill="#002d4f"/></g><path d="m82.738 106.664v-26.062h-9.476v26.949h8.601a.9.9 0 0 0 .875-.887zm0 0" fill="url(#S)"/><path d="m97.836 63.125-1.46-5.898a.718.718 0 0 0 -.7-.55h-63.2a.712.712 0 0 0 -.703.55l-1.449 5.9a.348.348 0 0 0 .05.287l11.087 16.886c.125.187.34.3.562.3h44.14a.681.681 0 0 0 .564-.3l11.085-16.887c.024-.09.05-.187.024-.29zm0 0" fill="#ffc600"/><g clip-path="url(#j)" mask="url(#w)"><path d="m97.836 63.125-1.46-5.898a.718.718 0 0 0 -.7-.55h-63.2a.712.712 0 0 0 -.703.55l-1.449 5.9a.348.348 0 0 0 .05.287l11.087 16.886c.125.187.34.3.562.3h44.14a.681.681 0 0 0 .564-.3l11.085-16.887c.024-.09.05-.187.024-.29zm0 0" fill="url(#J)"/></g><path d="m30.313 63.273a.51.51 0 0 0 .05.141l11.087 16.887c.125.187.34.3.563.3h44.136a.676.676 0 0 0 .563-.3l11.088-16.887a.3.3 0 0 0 .05-.14zm0 0" fill="#db9927"/><g clip-path="url(#b)" mask="url(#y)"><path d="m45.426 80.602h37.312v2.16h-37.312zm0 0" fill="#002d4f"/></g><path d="m54.46 80.262-11.16-16.95h-12.986a.474.474 0 0 0 .05.137l11.086 16.887c.125.187.34.3.563.3h13.09a.786.786 0 0 1 -.64-.374zm0 0" fill="#cd7f1f"/><g clip-path="url(#f)" mask="url(#A)"><path d="m43.512 63.074 1.527-6.176a.36.36 0 0 1 .348-.273h-12.739a.712.712 0 0 0 -.699.55l-1.45 5.9zm0 0" fill="#cd7f1f"/></g><g clip-path="url(#d)" mask="url(#C)"><path d="m73.71 80.262 11.165-16.95h12.988a.647.647 0 0 1 -.05.137l-11.086 16.887a.681.681 0 0 1 -.563.3h-13.078a.76.76 0 0 0 .625-.374zm0 0" fill="#ffe700"/></g><g clip-path="url(#i)" mask="url(#E)"><path d="m84.824 63.125-1.523-6.176a.364.364 0 0 0 -.352-.273h12.739c.335 0 .624.222.699.55l1.449 5.9zm0 0" fill="#ff0"/></g><g clip-path="url(#o)" mask="url(#G)"><path d="m30.29 63.273h67.585l-.164-.636h-67.273zm0 0" fill="#ff0"/></g><path d="m92.96 29.512 1.353-8.887h-60.415l1.352 8.887zm0 0" fill="url(#O)"/><path d="m43.613 45.238a.353.353 0 0 0 -.351.301l-.024.125h41.7l-.024-.125a.353.353 0 0 0 -.352-.3zm0 0" fill="#fff203"/></svg>