<svg xmlns="http://www.w3.org/2000/svg" xmlns:xlink="http://www.w3.org/1999/xlink" viewBox="0 0 128 128"><clipPath id="a"><path d="M0 0h128v128H0z"/></clipPath><clipPath id="b"><path d="M0 0h128v128H0z"/></clipPath><clipPath id="c"><path d="M0 0h128v128H0z"/></clipPath><clipPath id="d"><path d="M0 0h128v128H0z"/></clipPath><clipPath id="e"><path d="M0 0h128v128H0z"/></clipPath><clipPath id="f"><path d="M0 0h128v128H0z"/></clipPath><clipPath id="g"><path d="M0 0h128v128H0z"/></clipPath><clipPath id="h"><path d="M0 0h128v128H0z"/></clipPath><clipPath id="i"><path d="M0 0h128v128H0z"/></clipPath><clipPath id="j"><path d="M0 0h128v128H0z"/></clipPath><clipPath id="k"><path d="M0 0h128v128H0z"/></clipPath><clipPath id="l"><path d="M0 0h128v128H0z"/></clipPath><clipPath id="m"><path d="M0 0h128v128H0z"/></clipPath><clipPath id="n"><path d="M0 0h128v128H0z"/></clipPath><clipPath id="o"><path d="M0 0h128v128H0z"/></clipPath><clipPath id="p"><path d="M0 0h128v128H0z"/></clipPath><clipPath id="q"><path d="M0 0h128v128H0z"/></clipPath><mask id="r"><g filter="url(#U)"><path fill-opacity=".349" d="M0 0h128v128H0z"/></g></mask><mask id="s"><g filter="url(#U)"><path fill-opacity=".2" d="M0 0h128v128H0z"/></g></mask><mask id="t"><g filter="url(#U)"><path fill-opacity=".6" d="M0 0h128v128H0z"/></g></mask><mask id="u"><g filter="url(#U)"><path fill-opacity=".4" d="M0 0h128v128H0z"/></g></mask><mask id="v"><g filter="url(#U)"><path fill-opacity=".4" d="M0 0h128v128H0z"/></g></mask><mask id="w"><g filter="url(#U)"><path fill-opacity=".4" d="M0 0h128v128H0z"/></g></mask><mask id="x"><g filter="url(#U)"><path fill-opacity=".302" d="M0 0h128v128H0z"/></g></mask><mask id="y"><g filter="url(#U)"><path fill-opacity=".42" d="M0 0h128v128H0z"/></g></mask><mask id="z"><g filter="url(#U)"><path fill-opacity=".2" d="M0 0h128v128H0z"/></g></mask><mask id="A"><g filter="url(#U)"><path fill-opacity=".4" d="M0 0h128v128H0z"/></g></mask><mask id="B"><g filter="url(#U)"><path fill-opacity=".2" d="M0 0h128v128H0z"/></g></mask><mask id="C"><g filter="url(#U)"><path fill-opacity=".4" d="M0 0h128v128H0z"/></g></mask><mask id="D"><g filter="url(#U)"><path fill-opacity=".4" d="M0 0h128v128H0z"/></g></mask><mask id="E"><g filter="url(#U)"><path fill-opacity=".4" d="M0 0h128v128H0z"/></g></mask><mask id="F"><g filter="url(#U)"><path fill-opacity=".349" d="M0 0h128v128H0z"/></g></mask><mask id="G"><g filter="url(#U)"><path fill-opacity=".4" d="M0 0h128v128H0z"/></g></mask><mask id="H"><g filter="url(#U)"><path fill-opacity=".302" d="M0 0h128v128H0z"/></g></mask><linearGradient id="I"><stop offset=".204" stop-color="#ffd813" stop-opacity="0"/><stop offset=".781" stop-color="#ffd813"/></linearGradient><linearGradient xlink:href="#I" id="J" x1="50.251" x2="74.121" y1="85.46" y2="44.116" gradientUnits="userSpaceOnUse"/><linearGradient id="K" x1="44.578" x2="83.607" y1="37.313" y2="37.313" gradientUnits="userSpaceOnUse"><stop offset=".408" stop-color="#fff" stop-opacity="0"/><stop offset=".999" stop-color="#fff"/></linearGradient><linearGradient id="L"><stop offset=".096" stop-color="#00caf4" stop-opacity="0"/><stop offset=".568" stop-color="#00caf4" stop-opacity=".282"/><stop offset=".6" stop-color="#00caf4" stop-opacity=".302"/><stop offset=".797" stop-color="#00caf4" stop-opacity=".302"/><stop offset="1" stop-color="#00caf4" stop-opacity=".102"/></linearGradient><linearGradient xlink:href="#L" id="M" x1="55.637" x2="55.637" y1="43.812" y2="30.032" gradientUnits="userSpaceOnUse"/><linearGradient xlink:href="#L" id="N" x1="-13963.451" x2="-13963.451" y1="350.498" y2="240.257" gradientTransform="matrix(-.125 0 0 .125 -1672.883 0)" gradientUnits="userSpaceOnUse"/><linearGradient xlink:href="#L" id="O" x1="33.905" x2="94.312" y1="25.067" y2="25.067" gradientUnits="userSpaceOnUse"/><linearGradient xlink:href="#I" id="P" x1="42.678" x2="85.507" y1="47.019" y2="47.019" gradientUnits="userSpaceOnUse"/><linearGradient xlink:href="#L" id="Q" x1="35.114" x2="93.071" y1="52.737" y2="52.737" gradientUnits="userSpaceOnUse"/><linearGradient id="R" x1="64.078" x2="64.078" y1="80.597" y2="107.541" gradientUnits="userSpaceOnUse"><stop offset="0" stop-color="#005f8e"/><stop offset=".724" stop-color="#004972"/><stop offset=".74" stop-color="#004972"/></linearGradient><linearGradient id="S" x1="78" x2="78" y1="80.597" y2="107.541" gradientUnits="userSpaceOnUse"><stop offset="0" stop-color="#008dc4"/><stop offset=".541" stop-color="#0072a7"/></linearGradient><linearGradient xlink:href="#I" id="T" x1="37.714" x2="90.502" y1="19.119" y2="19.119" gradientUnits="userSpaceOnUse"/><filter id="U" width="100%" height="100%" x="0%" y="0%"><feColorMatrix in="SourceGraphic" values="0 0 0 0 1 0 0 0 0 1 0 0 0 0 1 0 0 0 1 0"/></filter><path fill="#00caf4" d="M47.688 107.54v2.347c0 .199.164.363.363.363h31.773c.2 0 .364-.164.364-.363v-2.348zM83.61 45.113H44.584v-15.61h39.023zm0 0"/><g clip-path="url(#q)" mask="url(#t)"><path fill="url(#K)" d="M44.574 29.512h39.04v15.601h-39.04zm0 0"/></g><g clip-path="url(#h)" mask="url(#z)"><path fill="#fff" d="M77.96 43.813h5.653v-5.649zm0 0"/></g><g clip-path="url(#c)" mask="url(#F)"><path fill="#fff" d="m67.477 43.813 14.296-14.301H61.477l-14.301 14.3zm0 0"/></g><g clip-path="url(#e)" mask="url(#D)"><path fill="#004972" d="M44.574 29.512h39.028v1.562H44.574zm0 0"/></g><g clip-path="url(#g)" mask="url(#B)"><path fill="#fff" d="M54.688 29.512H44.573v10.101zm0 0"/></g><path fill="#002d4f" d="M83.61 45.23H44.585v-1.42h39.023zm0 0"/><path fill="#002d4f" d="M71.613 30.04h1.524v13.773h-1.524zm-16.562 0h1.523v13.773h-1.523zm0 0"/><path fill="url(#M)" d="M55.05 30.04h1.177v13.773H55.05zm0 0"/><path fill="url(#N)" d="M71.96 30.04h1.177v13.773H71.96zm0 0"/><g clip-path="url(#a)" mask="url(#H)"><path fill="#004972" d="M56.574 30.04h.352v13.773h-.352zm0 0"/></g><g clip-path="url(#k)" mask="url(#x)"><path fill="#004972" d="M71.25 30.04h.352v13.773h-.352zm0 0"/></g><path fill="#ffc600" d="m85.512 48.8-.586-3.277a.35.35 0 0 0-.352-.296h-40.96a.35.35 0 0 0-.352.296l-.586 3.278zm0 0"/><path fill="#002d4f" d="m93.074 56.676-1.363-7.574a.346.346 0 0 0-.348-.3H36.824a.346.346 0 0 0-.347.301l-1.364 7.574zm0 0"/><path fill="url(#Q)" d="m93.074 56.676-1.363-7.574a.346.346 0 0 0-.348-.3H36.824a.346.346 0 0 0-.347.301l-1.364 7.574zm0 0"/><path fill="url(#R)" d="M45.426 80.602v26.062a.87.87 0 0 0 .875.875h35.55c.485 0 .876-.39.876-.875V80.602zm0 0"/><path fill="#002d4f" d="M36.824 48.8a.346.346 0 0 0-.347.302l-.016.074h55.266l-.016-.074a.346.346 0 0 0-.348-.301zm0 0"/><path fill="#ffc600" d="M37.71 20.625H90.5l-.727-2.7a.41.41 0 0 0-.398-.3H38.727a.43.43 0 0 0-.403.313zm0 0"/><path fill="url(#T)" d="M37.71 20.625H90.5l-.727-2.7a.41.41 0 0 0-.398-.3H38.727a.43.43 0 0 0-.403.313zm0 0"/><g clip-path="url(#m)" mask="url(#v)"><path fill="#b47d4f" d="M37.71 20.625H90.5l-.2-.773H37.888zm0 0"/></g><path fill="#002d4f" d="M35.563 30.04h57.085c.141 0 .25-.102.278-.227l1.398-9.188H33.898l1.391 9.188a.28.28 0 0 0 .273.226zm0 0"/><path fill="#005a82" d="M33.988 21.188h60.239l.085-.563H33.898zm0 0"/><path fill="url(#P)" d="m85.512 48.8-.586-3.277a.35.35 0 0 0-.352-.296h-40.96a.35.35 0 0 0-.352.296l-.586 3.278zm0 0"/><path fill="#db9927" d="m85.512 48.8-.2-1.09H42.876l-.2 1.09zm0 0"/><g clip-path="url(#p)" mask="url(#r)"><path fill="#002d4f" d="m93.074 56.676-.324-1.824H35.437l-.324 1.824zm0 0"/></g><g clip-path="url(#n)" mask="url(#s)"><path fill="#004972" d="M47.688 107.54h32.488v.522h-32.49zm0 0"/></g><g clip-path="url(#l)" mask="url(#u)"><path fill="#002d4f" d="M54.887 80.602h-9.473v26.062c0 .484.387.875.875.875h8.586V80.602zm0 0"/></g><path fill="url(#S)" d="M82.738 106.664V80.602h-9.476v26.949h8.601a.9.9 0 0 0 .875-.887m0 0"/><path fill="#ffc600" d="m97.836 63.125-1.46-5.898a.72.72 0 0 0-.7-.55h-63.2a.71.71 0 0 0-.703.55l-1.449 5.9a.35.35 0 0 0 .05.287L41.461 80.3c.125.187.34.3.562.3h44.14a.68.68 0 0 0 .564-.3l11.085-16.887c.024-.09.05-.187.024-.29zm0 0"/><g clip-path="url(#j)" mask="url(#w)"><path fill="url(#J)" d="m97.836 63.125-1.46-5.898a.72.72 0 0 0-.7-.55h-63.2a.71.71 0 0 0-.703.55l-1.449 5.9a.35.35 0 0 0 .05.287L41.461 80.3c.125.187.34.3.562.3h44.14a.68.68 0 0 0 .564-.3l11.085-16.887c.024-.09.05-.187.024-.29zm0 0"/></g><path fill="#db9927" d="M30.313 63.273a.5.5 0 0 0 .05.141L41.45 80.301c.125.187.34.3.563.3h44.136a.68.68 0 0 0 .563-.3L97.8 63.414a.3.3 0 0 0 .05-.14zm0 0"/><g clip-path="url(#b)" mask="url(#y)"><path fill="#002d4f" d="M45.426 80.602h37.312v2.16H45.426zm0 0"/></g><path fill="#cd7f1f" d="M54.46 80.262 43.3 63.312H30.314a.5.5 0 0 0 .05.137L41.45 80.336c.125.187.34.3.563.3h13.09a.79.79 0 0 1-.64-.374zm0 0"/><g clip-path="url(#f)" mask="url(#A)"><path fill="#cd7f1f" d="m43.512 63.074 1.527-6.176a.36.36 0 0 1 .348-.273H32.648a.71.71 0 0 0-.699.55l-1.45 5.9zm0 0"/></g><g clip-path="url(#d)" mask="url(#C)"><path fill="#ffe700" d="m73.71 80.262 11.165-16.95h12.988a.7.7 0 0 1-.05.137L86.727 80.336a.68.68 0 0 1-.563.3H73.086a.76.76 0 0 0 .625-.374zm0 0"/></g><g clip-path="url(#i)" mask="url(#E)"><path fill="#ff0" d="m84.824 63.125-1.523-6.176a.364.364 0 0 0-.352-.273h12.739c.335 0 .624.222.699.55l1.449 5.9zm0 0"/></g><g clip-path="url(#o)" mask="url(#G)"><path fill="#ff0" d="M30.29 63.273h67.585l-.164-.636H30.438zm0 0"/></g><path fill="url(#O)" d="m92.96 29.512 1.353-8.887H33.898l1.352 8.887zm0 0"/><path fill="#fff203" d="M43.613 45.238a.35.35 0 0 0-.351.301l-.024.125h41.7l-.024-.125a.35.35 0 0 0-.352-.3zm0 0"/></svg>