<svg viewBox="0 0 128 128" xmlns="http://www.w3.org/2000/svg" xmlns:xlink="http://www.w3.org/1999/xlink"><defs><path id="a" d="m85.512 48.8-.586-3.277a.353.353 0 0 0 -.352-.296h-40.96a.353.353 0 0 0 -.352.296l-.586 3.278zm0 0"/><path id="b" d="m37.71 20.625h52.79l-.727-2.7a.411.411 0 0 0 -.398-.3h-50.648a.43.43 0 0 0 -.403.313zm0 0"/></defs><g fill="#ffc600"><path d="m83.61 45.23h-39.025v-1.42h39.023zm-11.997-15.19h1.524v13.773h-1.524zm-16.562 0h1.523v13.773h-1.523zm0 0"/><path d="m82.09 30.04h1.523v13.773h-1.523zm-37.505-.003h1.524v13.773h-1.524z"/><use xlink:href="#a"/><use xlink:href="#b"/></g><g fill="#ffd813" fill-opacity="0"><use xlink:href="#b"/><use xlink:href="#a"/></g><path d="m97.836 63.125-1.46-5.898a.718.718 0 0 0 -.7-.55h-63.2a.712.712 0 0 0 -.703.55l-1.449 5.9a.348.348 0 0 0 .05.287l11.087 16.886a.68.68 0 0 0 .562.3h44.14a.681.681 0 0 0 .564-.3l11.085-16.887c.024-.09.05-.187.024-.29zm-61.999-7.361c.108-.434 1.049-5.667 1.05-5.833 0-.065 12.237-.118 27.192-.118l27.192.05c0 .028.247 1.393.55 3.034l.551 3.103c.001.065-12.739.118-28.311.118h-28.312zm-.054-26.426c0-.077-.248-1.757-.552-3.733l-.552-3.722c0-.071 13.251-.129 29.446-.129h29.446l-.59 3.823-.599 3.862c-.028.119-56.601.018-56.601-.101zm10.124 77.924-.35-.245v-26.308h37.044v26.308l-.35.245c-.312.219-2.297.245-18.172.245s-17.86-.027-18.172-.245zm1.962 2.821c-.058-.058-.106-.555-.106-1.104v-.998h32.33l-.047 1.064-.047 1.064-16.012.04c-8.807.022-16.06-.007-16.118-.066z" fill="#ffc600"/></svg>