<svg height="18" viewBox="0 0 18 18" width="18" xmlns="http://www.w3.org/2000/svg" xmlns:xlink="http://www.w3.org/1999/xlink"><linearGradient id="a"><stop offset="0" stop-color="#32d4f5"/><stop offset="1" stop-color="#198ab3"/></linearGradient><linearGradient id="b" gradientUnits="userSpaceOnUse" x1="3.96" x2="3.96" xlink:href="#a" y1="2.52" y2="7.82"/><linearGradient id="c" gradientUnits="userSpaceOnUse" x1="14.04" x2="14.04" xlink:href="#a" y1="5.58" y2="10.89"/><linearGradient id="d" gradientUnits="userSpaceOnUse" x1="5.29" x2="5.29" xlink:href="#a" y1="10.18" y2="15.48"/><rect fill="url(#b)" height="5.31" rx=".28" width="6.92" x=".5" y="2.52"/><rect fill="url(#c)" height="5.31" rx=".28" width="6.92" x="10.58" y="5.58"/><rect fill="url(#d)" height="5.31" rx=".42" width="6.92" x="1.82" y="10.18"/><path d="m13.15 8.92.23-.64-8.56-3.15-.23.63zm.53-.09-.32-.6-8.07 4.25.31.6zm-8.68 4.54.67-.12-1.36-7.71-.67.12z" fill="#773adc"/><g fill="#fff"><circle cx="14.04" cy="8.23" r="1.08" transform="matrix(.84423439 -.53597415 .53597415 .84423439 -2.230238 8.809969)"/><circle cx="3.96" cy="5.17" r="1.08" transform="matrix(.84423439 -.53597415 .53597415 .84423439 -2.150004 2.930047)"/><circle cx="5.29" cy="12.83" r="1.08" transform="matrix(.84423439 -.53597415 .53597415 .84423439 -6.050111 4.830162)"/></g></svg>