<svg height="48" viewBox="0 0 48 48" width="48" xmlns="http://www.w3.org/2000/svg"><path d="m38 35.943-3.5 2.021-3.5-2.021v-4.042l3.5-2.02 3.5 2.02zm1.5-5.485-4.5-2.598a1 1 0 0 0 -1 0l-4.5 2.598a1 1 0 0 0 -.5.866v5.196c0 .358.19.688.5.866l4.5 2.599a1 1 0 0 0 1 0l4.5-2.599c.31-.178.5-.508.5-.866v-5.196a1 1 0 0 0 -.5-.866m-22.5 5.485-3.5 2.021-3.5-2.021v-4.042l3.5-2.02 3.5 2.02zm1.5-5.485-4.5-2.598a1 1 0 0 0 -1 0l-4.5 2.598a1 1 0 0 0 -.5.866v5.196c0 .358.19.688.5.866l4.5 2.599a1 1 0 0 0 1 0l4.5-2.599c.31-.178.5-.508.5-.866v-5.196a1 1 0 0 0 -.5-.866m12.5-19.557 3.5-2.02 3.5 2.02v4.042l-3.5 2.021-3.5-2.021zm-1.5 5.485 4.5 2.599a1 1 0 0 0 1 0l4.5-2.599c.31-.178.5-.508.5-.866v-5.196a1 1 0 0 0 -.5-.866l-4.5-2.598a1 1 0 0 0 -1 0l-4.5 2.598a1 1 0 0 0 -.5.866v5.196c0 .358.19.688.5.866m-19.5-5.485 3.5-2.02 3.5 2.02v4.042l-3.5 2.021-3.5-2.021zm-1.5 5.485 4.5 2.599a1 1 0 0 0 1 0l4.5-2.599c.31-.178.5-.508.5-.866v-5.196a1 1 0 0 0 -.5-.866l-4.5-2.598a1 1 0 0 0 -1 0l-4.5 2.598a1 1 0 0 0 -.5.866v5.196c0 .358.19.688.5.866m16.5 27.614h19v-19h-19zm-21 0h19v-19h-19zm0-21h19v-19h-19zm21 0h19v-19h-19zm20-21h-42a1 1 0 0 0 -1 1v42a1 1 0 0 0 1 1h42a1 1 0 0 0 1-1v-42a1 1 0 0 0 -1-1" fill="#e7157b" fill-rule="evenodd"/></svg>