<svg xmlns="http://www.w3.org/2000/svg" width="256" height="256" preserveAspectRatio="xMidYMid" viewBox="0 0 256 256">
  <defs>
    <mask id="wko">
      <rect width="256" height="256" fill="white"/>
      <path fill="black" d="M84.239 113.408a34.76 34.76 0 0 1-4.078-17.2 31.12 31.12 0 0 1 7.27-20.746 44.33 44.33 0 0 1 18.973-12.59 73.1 73.1 0 0 1 24.736-4.167 101 101 0 0 1 16.49 1.241 70 70 0 0 1 11.438 2.926 21.9 21.9 0 0 1 8.866 5.763 11.26 11.26 0 0 1 2.837 7.625 11.17 11.17 0 0 1-2.926 8.068 9.57 9.57 0 0 1-7.27 3.014 13.7 13.7 0 0 1-5.497-1.241 103 103 0 0 0-12.856-4.7 46.5 46.5 0 0 0-12.5-1.506 29.26 29.26 0 0 0-15.605 3.9 12.94 12.94 0 0 0-6.206 11.704 11.7 11.7 0 0 0 3.192 8.156 29.8 29.8 0 0 0 8.866 6.295c3.635 1.773 8.866 4.167 16.313 7.182l2.305.886a111.4 111.4 0 0 1 20.126 10.107 40.8 40.8 0 0 1 12.501 12.767 33.6 33.6 0 0 1 4.522 17.732 35.46 35.46 0 0 1-6.295 21.367 36.7 36.7 0 0 1-17.732 12.945 73.5 73.5 0 0 1-26.155 4.255 82.4 82.4 0 0 1-35.464-6.738 20.04 20.04 0 0 1-7.358-5.674 13.5 13.5 0 0 1-2.305-7.802 9.93 9.93 0 0 1 3.103-7.89 11.35 11.35 0 0 1 8.068-2.838 21.2 21.2 0 0 1 9.486 2.394c3.635 1.773 6.472 3.192 8.866 4.078a40 40 0 0 0 7.359 2.305 39.5 39.5 0 0 0 9.487.976 25.18 25.18 0 0 0 15.958-4.256 13.83 13.83 0 0 0 5.408-11.614 12.5 12.5 0 0 0-3.369-8.866 37.9 37.9 0 0 0-9.93-7.27c-4.344-2.306-10.55-5.054-18.44-8.423a118 118 0 0 1-20.304-10.462c-4.796-3.19-8.977-6.727-11.88-11.703"/>
    </mask>
  </defs>
  <g fill="currentColor" mask="url(#wko)">
    <circle cx="75.994" cy="76.171" r="75.893" fill="currentColor"/>
    <circle cx="179.903" cy="180.08" r="75.893" fill="currentColor"/>
    <circle cx="125.547" cy="133.578" r="141.812" fill="currentColor" mask="url(#d)"/>
    <circle cx="127.948" cy="128.125" r="119.868" fill="currentColor"/>
    <circle cx="127.948" cy="128.125" r="119.868" fill="currentColor"/>
  </g>
</svg>