<svg height="18" viewBox="0 0 18 18" width="18" xmlns="http://www.w3.org/2000/svg" xmlns:xlink="http://www.w3.org/1999/xlink"><linearGradient id="a" gradientUnits="userSpaceOnUse" x1="8.285" x2="8.285" y1="15.127" y2="1.854"><stop offset="0" stop-color="#0078d4"/><stop offset="1" stop-color="#5ea0ef"/></linearGradient><linearGradient id="b"><stop offset="0" stop-color="#32bedd"/><stop offset="1" stop-color="#9cebff"/></linearGradient><linearGradient id="c" gradientUnits="userSpaceOnUse" x1="11.155" x2="8.63" xlink:href="#b" y1="10.195" y2="8.486"/><linearGradient id="d" gradientUnits="userSpaceOnUse" x1="6.837" x2="6.837" xlink:href="#b" y1="11.765" y2="6.699"/><circle cx="11.352" cy="8.49" fill="#005ba1" r="6.597"/><path d="m6.72 1.7a6.847 6.847 0 0 0 -2.454 12.438l.235-.59a.13.13 0 0 1 .224-.033l1.691 2.183a.134.134 0 0 1 -.021.186.13.13 0 0 1 -.065.027l-2.715.387a.13.13 0 0 1 -.147-.114.14.14 0 0 1 .008-.067l.344-.874a7.97 7.97 0 0 1 -3.539-4.811 6.966 6.966 0 0 1 4.869-8.502 6.8 6.8 0 0 1 1.57-.23" fill="#86d633"/><path d="m8.285 1.854a6.63 6.63 0 0 0 -4.795 11.216 6 6 0 0 0 .618.539l.075-.188a.47.47 0 0 1 .45-.3.5.5 0 0 1 .167.034.5.5 0 0 1 .195.148l1.127 1.455a6.634 6.634 0 1 0 2.163-12.904" fill="url(#a)"/><path d="m11.18 6.699v3.368l-2.895 1.698v-3.377z" fill="url(#c)"/><path d="m11.18 6.699-2.886 1.698-2.904-1.698 2.904-1.689z" fill="#c3f1ff"/><path d="m8.285 8.397v3.368l-2.895-1.698v-3.368z" fill="url(#d)"/><path d="m6.363 4.34h-2.053a.49.49 0 0 0 -.492.492v2.059a.246.246 0 0 0 .246.246h.164a.246.246 0 0 0 .246-.246v-1.902h1.888a.246.246 0 0 0 .238-.247v-.156a.246.246 0 0 0 -.239-.246m.002 7.6h-1.896v-1.887a.246.246 0 0 0 -.246-.246h-.157a.246.246 0 0 0 -.246.246v2.088a.49.49 0 0 0 .485.5h2.058a.254.254 0 0 0 .242-.265l-.003-.026v-.164a.246.246 0 0 0 -.239-.246m5.859-7.577h-2.02a.246.246 0 0 0 -.247.246v.157a.246.246 0 0 0 .223.267l.023.001h1.888v1.872a.246.246 0 0 0 .246.246h.171a.246.246 0 0 0 .246-.246v-2.051a.49.49 0 0 0 -.49-.494q-.02 0-.04.002m.254 5.459h-.156a.246.246 0 0 0 -.246.247v1.894h-1.873a.246.246 0 0 0 -.246.246v.164a.246.246 0 0 0 .246.247h2.052a.5.5 0 0 0 .5-.493v-2.059a.246.246 0 0 0 -.245-.247z" fill="#fff"/></svg>