<svg height="18" viewBox="0 0 18 18" width="18" xmlns="http://www.w3.org/2000/svg" xmlns:xlink="http://www.w3.org/1999/xlink"><linearGradient id="a" gradientUnits="userSpaceOnUse" x1="9" x2="9" y1="11.576"><stop offset="0" stop-color="#0078d4"/><stop offset=".156" stop-color="#1380da"/><stop offset=".528" stop-color="#3c91e5"/><stop offset=".822" stop-color="#559cec"/><stop offset="1" stop-color="#5ea0ef"/></linearGradient><path d="m17.166 7.95a3.67 3.67 0 0 0 -3.185-3.527 4.624 4.624 0 0 0 -4.763-4.423 4.745 4.745 0 0 0 -4.535 3.092 4.38 4.38 0 0 0 -3.849 4.213 4.444 4.444 0 0 0 4.6 4.271q.204 0 .405-.018h7.447a.8.8 0 0 0 .2-.029 3.713 3.713 0 0 0 3.68-3.579" fill="url(#a)"/><rect fill="#198ab3" height="1.078" rx=".539" width="14.908" x="1.929" y="12.68"/><rect fill="#32bedd" height="1.078" rx=".466" width="11.143" x="1.929" y="14.793"/><rect fill="#50e6ff" height="1.109" rx=".423" width="8.935" x="1.929" y="16.891"/></svg>