<svg viewBox="0 0 24 24" xmlns="http://www.w3.org/2000/svg"><path d="m12 0c-.563 0-1.127.215-1.557.645l-9.798 9.798c-.86.86-.86 2.254 0 3.114l9.798 9.798c.86.86 2.254.86 3.114 0l9.798-9.798c.86-.86.86-2.254 0-3.114l-9.798-9.798a2.2 2.2 0 0 0 -1.557-.645m0 1.74c.493 0 .987.186 1.361.56l8.339 8.34c.75.75.75 1.973 0 2.722l-8.339 8.338c-.374.375-.868.56-1.361.56s-.987-.185-1.361-.56l-8.339-8.339a1.93 1.93 0 0 1 0-2.722l8.339-8.339c.374-.375.868-.56 1.361-.56m0 .62c-.333 0-.664.127-.92.382l-8.338 8.338a1.295 1.295 0 0 0 0 1.84l8.338 8.338a1.296 1.296 0 0 0 1.84 0l8.338-8.338a1.295 1.295 0 0 0 0-1.84l-8.338-8.338a1.3 1.3 0 0 0 -.92-.382m-2.793 5.264h3.959q.824 0 1.4.238.578.24.942.633.362.393.527.897a3.34 3.34 0 0 1 0 2.084q-.165.51-.527.902a2.6 2.6 0 0 1 -.942.633q-.576.239-1.4.238h-2.043v3.156h-1.916zm1.916 1.484v2.657h1.514q.332 0 .64-.05a1.5 1.5 0 0 0 .547-.193 1.05 1.05 0 0 0 .38-.404q.141-.26.142-.682 0-.42-.143-.681a1.05 1.05 0 0 0 -.379-.404 1.5 1.5 0 0 0 -.547-.194 4 4 0 0 0 -.64-.049z"/></svg>