<svg height="48" viewBox="0 0 48 48" width="48" xmlns="http://www.w3.org/2000/svg"><path d="m10.303 14.313a5 5 0 0 0 -.038.661v.156q0 .082.02.174-.423.46-.957.46-.918 0-.918-1.874 0-1.58.451-2.609.45-1.028 1.111-1.029.367 0 .845.332zm-5.034 5.86q1.359.827 3.271.827 1.561 0 2.792-.625v-1.617q-1.34.495-2.572.496-2.02 0-3.113-1.314-1.094-1.312-1.093-3.81 0-2.076.716-3.739.715-1.663 2.04-2.655a4.83 4.83 0 0 1 2.975-.99q2.13 0 3.243 1.201 1.11 1.204 1.111 3.518 0 1.121-.249 2.095-.247.974-.697 1.607-.45.634-.947.634a.48.48 0 0 1 -.403-.193q-.148-.193-.147-.524-.001-.293.037-.514l.79-5.713h-1.709l-.22.643q-.68-.918-1.673-.918-.807 0-1.552.707-.744.707-1.22 1.983-.48 1.278-.479 2.82 0 1.617.588 2.48.587.864 1.727.864.532 0 1.112-.275a3.3 3.3 0 0 0 1.02-.754q.291.479.79.734.496.258 1.137.258 1.084 0 1.994-.735.909-.734 1.442-2.094t.533-3.123q0-2.002-.717-3.444a5.1 5.1 0 0 0 -2.103-2.223q-1.388-.78-3.335-.78a7.2 7.2 0 0 0 -3.94 1.14q-1.792 1.135-2.858 3.221-1.065 2.085-1.066 4.804 0 2.132.707 3.655.708 1.525 2.067 2.352m18.086 11.808a1 1 0 0 0 1.281 0l3.033-2.527 14.557 12.131h-36.462l14.56-12.132zm5.877-3.83 14.759-12.298v24.596zm15.759-15.434h-26.445v2h23.68l-18.23 15.194-10.627-8.86-1.28 1.534 6.671 5.565-14.759 12.301v-18.38h-2v20.514a1 1 0 0 0 1 1h41.99a1 1 0 0 0 1-1v-28.868a1 1 0 0 0 -1-1" fill="#dd344c" fill-rule="evenodd"/></svg>