<svg height="24" width="24" xmlns="http://www.w3.org/2000/svg"><g fill-rule="evenodd"><path d="m14.3 10-1.22 1.22a1.71 1.71 0 0 1 -1.08 3.01 1.74 1.74 0 0 1 -1.33-.64l-1.22 1.22a3.43 3.43 0 1 0 4.85-4.81" fill="#4285f4"/><path d="m12 6.26a6.25 6.25 0 1 0 6.25 6.25 6.25 6.25 0 0 0 -6.25-6.25m0 10.74a4.45 4.45 0 1 1 4.44-4.44 4.44 4.44 0 0 1 -4.44 4.44" fill="#aecbfa"/><path d="m21.62 11.9-2.56-.81a7 7 0 0 1 .17 1.53 8 8 0 0 1 -.08 1.08h2.47a.44.44 0 0 0 .38-.42v-1a.44.44 0 0 0 -.38-.42m-9.62-6.34a7.5 7.5 0 0 1 1.5.15l-.92-2.55c-.07-.22-.21-.38-.42-.38h-.38a.45.45 0 0 0 -.42.38l-.8 2.54a7.6 7.6 0 0 1 1.44-.14m-7.23 7.1a7 7 0 0 1 .17-1.53l-2.56.81a.44.44 0 0 0 -.38.42v1a.44.44 0 0 0 .38.42h2.47a8 8 0 0 1 -.08-1.08" fill="#669df6"/><path d="m12 10a2.5 2.5 0 1 0 2.5 2.5 2.5 2.5 0 0 0 -2.5-2.5m0 3.75a1.25 1.25 0 1 1 1.25-1.25 1.25 1.25 0 0 1 -1.25 1.26z" fill="#aecbfa"/></g></svg>