<svg height="64" viewBox="0 0 64 64" width="64" xmlns="http://www.w3.org/2000/svg"><g fill="none" fill-rule="evenodd"><path d="m0 0h64v64h-64z" fill="#01a88d"/><path d="m43 20a1.001 1.001 0 0 1 -2 0 1.001 1.001 0 0 1 2 0m-4 8a1.001 1.001 0 0 1 0 2 1.001 1.001 0 0 1 0-2m0 15a1.001 1.001 0 0 1 2 0 1.001 1.001 0 0 1 -2 0m7.059-10.032a1.001 1.001 0 0 1 -2 0 1.001 1.001 0 0 1 2 0m5.941 2.399-3.978-2.03c.014-.122.037-.242.037-.37 0-1.653-1.346-3-3-3-1.655 0-3 1.347-3 3 0 1.656 1.345 3.001 3 3.001.804 0 1.533-.322 2.073-.84l3.806 1.943-3.452 2.072a1 1 0 0 0 -.486.857v6.434l-9.044 5.426-4.956-2.478v-5.382h4.185a2.99 2.99 0 0 0 2.815 2c1.654 0 3-1.346 3-3s-1.346-3-3-3a2.99 2.99 0 0 0 -2.815 2h-4.185v-10a1 1 0 0 0 -.4-.8l-4-3-1.2 1.6 3.6 2.7v3.951l-4 2.545v-5.015a1 1 0 0 0 -.558-.896l-3.442-1.705v-3.814l4.515-2.71a1 1 0 0 0 .485-.856v-5h-2v4.434l-4 2.4-4-2.4v-6.846l3-1.666v6.078h2v-7.19l3.024-1.68 4.976 2.486.001 9.384c0 .337.17.65.451.836l4.748 3.116a3 3 0 0 0 -.2 1.048c0 1.654 1.347 3 3 3 1.655 0 3-1.346 3-3s-1.345-3-3-3c-.547 0-1.054.158-1.496.416l-4.502-2.956-.002-8.842 4.928-2.464 8.072 5.38v1.466h-1.185a2.99 2.99 0 0 0 -2.815-2c-1.654 0-3 1.346-3 3s1.346 3 3 3a2.99 2.99 0 0 0 2.815-2h1.185v3c0 .379.214.725.553.895l5.447 2.723zm-25.023 16.481-3.203-1.746 3.741-2.245-1.03-1.714-4.747 2.848-4.738-2.585v-5.84l4.515-2.709-1.03-1.714-4.485 2.691-4-2.4v-3.868l4.515-2.71-1.03-1.713-3.485 2.09v-2.615l4.956-2.478 4.044 2.426v3.816l-3.447 1.723.894 1.79 3.556-1.778 2.997 1.485v5.667l-4.537 2.887 1.074 1.688 9.463-6.022v10.612zm26.47-25.743-5.446-2.723v-6.382c0-.334-.167-.646-.445-.832l-9-6a1 1 0 0 0 -1.002-.063l-5.55 2.775-5.557-2.775a1 1 0 0 0 -.932.02l-9 5a1 1 0 0 0 -.515.875v7.382l-5.447 2.723c-.339.17-.553.516-.553.895v10a1 1 0 0 0 .485.857l4.515 2.709v6.434a1 1 0 0 0 .521.878l11 6a1 1 0 0 0 .994-.021l4.53-2.717 5.509 2.755a1 1 0 0 0 .962-.038l10-6a1 1 0 0 0 .484-.857v-6.434l4.514-2.709a1 1 0 0 0 .486-.857v-10c0-.38-.214-.725-.553-.895" fill="#fff"/></g></svg>