<svg height="18" viewBox="0 0 18 18" width="18" xmlns="http://www.w3.org/2000/svg" xmlns:xlink="http://www.w3.org/1999/xlink"><linearGradient id="a" gradientUnits="userSpaceOnUse" x1="8.56" x2="8.56" y1="17.59" y2=".59"><stop offset="0" stop-color="#1988d9"/><stop offset=".22" stop-color="#218ddc"/><stop offset=".56" stop-color="#379ce5"/><stop offset=".9" stop-color="#54aef0"/></linearGradient><path d="m13.77 15.81a8.5 8.5 0 0 1 -10.42-13.44l.09-.06a8.5 8.5 0 0 1 10.33 13.5" fill="url(#a)"/><path d="m8.56 6.17a1.24 1.24 0 0 1 -.89-.33 1 1 0 0 1 -.34-.79 1 1 0 0 1 .34-.79 1.3 1.3 0 0 1 .89-.26 1.28 1.28 0 0 1 .89.3 1 1 0 0 1 .35.79 1 1 0 0 1 -.35.8 1.24 1.24 0 0 1 -.89.28m.64 8.05h-1.31a.42.42 0 0 1 -.42-.42v-6.11a.42.42 0 0 1 .42-.42h1.31a.42.42 0 0 1 .42.42v6.11a.42.42 0 0 1 -.42.42" fill="#fff"/></svg>