<svg xmlns="http://www.w3.org/2000/svg" fill="none" viewBox="0 0 24 24"><g fill="currentColor"><path d="M13.047 18.23 3.057-.576l14.33-8.991 9.99 18.806z"/><path d="M13.047 18.23 3.057-.576l-14.33 8.991 9.99 18.806z"/><path d="m13.047 18.23 9.99 18.806 14.33-8.991-9.99-18.806z"/><path d="m13.047 18.23 9.99 18.806-14.33 8.991-9.99-18.806z"/></g><g fill="currentColor"><path d="M16.592 23.223 2.952-.4l14.436-8.335 13.64 23.624z"/><path d="M16.592 23.223 2.952-.4l-14.435 8.334 13.64 23.624z"/><path d="m16.592 23.223 13.64 23.624 14.435-8.334-13.64-23.624z"/><path d="m16.592 23.223 13.64 23.624-14.436 8.334-13.64-23.623z"/></g></svg>