<svg height="48" viewBox="0 0 48 48" width="48" xmlns="http://www.w3.org/2000/svg"><path d="m4 40h8v-8h-8zm9-10a1 1 0 0 1 1 1v10a1 1 0 0 1 -1 1h-10a1 1 0 0 1 -1-1v-10a1 1 0 0 1 1-1zm-2-4h7v-7h-7zm-1 2a1 1 0 0 1 -1-1v-9a1 1 0 0 1 1-1h9a1 1 0 0 1 1 1v9a1 1 0 0 1 -1 1zm-6-15h5v-5h-5zm-2 1v-7a1 1 0 0 1 1-1h7a1 1 0 0 1 1 1v7a1 1 0 0 1 -1 1h-7a1 1 0 0 1 -1-1m25.137-5.992.062.094a10.98 10.98 0 0 0 9.153 4.898h4.234l-2.293 2.293 1.414 1.414 4-4a1 1 0 0 0 0-1.414l-4-4-1.414 1.414 2.293 2.293h-4.234a8.98 8.98 0 0 1 -7.489-4.008l-.062-.094a10.98 10.98 0 0 0 -9.153-4.898h-17.648v2h17.648a8.98 8.98 0 0 1 7.489 4.008m13.863 12.992c-1.654 0-3 1.346-3 3s1.346 3 3 3 3-1.346 3-3-1.346-3-3-3m0-2c2.757 0 5 2.243 5 5s-2.243 5-5 5-5-2.243-5-5 2.243-5 5-5m-18 6h6.586l-2.293 2.293 1.414 1.414 4-4a1 1 0 0 0 0-1.414l-4-4-1.414 1.414 2.293 2.293h-6.586zm20.707 10.293a1 1 0 0 1 0 1.414l-4 4-1.414-1.414 2.293-2.293h-4.234a8.98 8.98 0 0 0 -7.489 4.008l-.062.094a10.98 10.98 0 0 1 -9.153 4.898h-17.648v-2h17.648a8.98 8.98 0 0 0 7.489-4.008l.062-.094a10.98 10.98 0 0 1 9.153-4.898h4.234l-2.293-2.293 1.414-1.414z" fill="#8c4fff" fill-rule="evenodd"/></svg>