<svg height="48" viewBox="0 0 48 48" width="48" xmlns="http://www.w3.org/2000/svg"><path d="m22 33h2v-18h-2zm9-3a1.501 1.501 0 1 1 1.5-1.5c0 .827-.673 1.5-1.5 1.5m1.823-4.474a3.46 3.46 0 0 0 -1.823-.526c-1.93 0-3.5 1.57-3.5 3.5 0 1.58 1.06 2.903 2.5 3.336v4.164h2v-4.164c1.44-.433 2.5-1.756 2.5-3.336 0-.514-.117-.998-.316-1.437l3.916-5.482-1.627-1.163zm-1.823-7.526a1.501 1.501 0 0 1 0 3 1.501 1.501 0 0 1 0-3m0 5c1.93 0 3.5-1.571 3.5-3.5 0-1.581-1.06-2.904-2.5-3.337v-4.163h-2v4.163c-1.44.433-2.5 1.756-2.5 3.337 0 1.929 1.57 3.5 3.5 3.5m-12.515-1.637c.939.654 1.515 1.576 1.515 2.614s-.576 1.96-1.515 2.613c.939.654 1.515 1.577 1.515 2.614 0 1.778-1.691 3.218-4 3.545v3.251h-2v-4.182a1 1 0 0 1 1-1c1.717 0 3-.852 3-1.614s-1.283-1.614-3-1.614a1 1 0 1 1 0-2c1.717 0 3-.852 3-1.613 0-.762-1.283-1.614-3-1.614a1 1 0 1 1 0-2c1.717 0 3-.852 3-1.613 0-.762-1.283-1.614-3-1.614a1 1 0 0 1 -1-1v-4.136h2v3.205c2.309.326 4 1.766 4 3.545 0 1.037-.576 1.96-1.515 2.613m20.515 16.502c0 .626-.509 1.135-1.135 1.135h-27.73a1.136 1.136 0 0 1 -1.135-1.135v-27.73c0-.626.509-1.135 1.135-1.135h27.73c.626 0 1.135.509 1.135 1.135zm7-22.865v-2h-5v-2.865a3.14 3.14 0 0 0 -3.135-3.135h-2.865v-5h-2v5h-3v-5h-2v5h-3v-5h-2v5h-3v-5h-2v5h-3v-5h-2v5h-2.865a3.14 3.14 0 0 0 -3.135 3.135v2.865h-5v2h5v3h-5v2h5v3h-5v2h5v3h-5v2h5v3h-5v2h5v2.865a3.14 3.14 0 0 0 3.135 3.135h2.865v5h2v-5h3v5h2v-5h3v5h2v-5h3v5h2v-5h3v5h2v-5h2.865a3.14 3.14 0 0 0 3.135-3.135v-2.865h5v-2h-5v-3h5v-2h-5v-3h5v-2h-5v-3h5v-2h-5v-3z" fill="#7aa116" fill-rule="evenodd"/></svg>