<svg height="18" viewBox="0 0 18 18" width="18" xmlns="http://www.w3.org/2000/svg" xmlns:xlink="http://www.w3.org/1999/xlink"><linearGradient id="a" gradientUnits="userSpaceOnUse" x1="9" x2="9" y1="2.619" y2="15.381"><stop offset="0" stop-color="#5ea0ef"/><stop offset="1" stop-color="#0078d4"/></linearGradient><linearGradient id="b" gradientUnits="userSpaceOnUse" x1="9.001" x2="9.001" y1="6.17" y2="15.458"><stop offset=".33" stop-color="#b4ec36"/><stop offset="1" stop-color="#86d633"/></linearGradient><linearGradient id="c" gradientUnits="userSpaceOnUse" x1="9" x2="9" y1="9.652" y2="15.442"><stop offset=".429" stop-color="#86d633"/><stop offset=".999" stop-color="#76bc2d"/></linearGradient><path d="m18 11.383a4.09 4.09 0 0 1 -3.667 3.922 4 4 0 0 1 -.394.021.8.8 0 0 1 -.216.033h-8.207a5 5 0 0 1 -.431.019h-.015a4.894 4.894 0 0 1 -5.07-4.701 4.824 4.824 0 0 1 4.244-4.648 5.23 5.23 0 0 1 5-3.407 5.1 5.1 0 0 1 5.246 4.878 4.04 4.04 0 0 1 3.51 3.883" fill="url(#a)"/><path d="m11.441 9.279h-1.295a.15.15 0 0 0 -.15.15v5.93h-1.996v-5.93a.15.15 0 0 0 -.15-.15h-1.29a.15.15 0 0 1 -.113-.248l2.439-2.831a.15.15 0 0 1 .228 0l2.441 2.827a.15.15 0 0 1 -.114.252" fill="url(#b)"/><path d="m13.51 9.693-1.642 1.9a.15.15 0 0 0 .114.248h.783a.15.15 0 0 1 .15.151v3.366h.808a.8.8 0 0 0 .216-.033 4 4 0 0 0 .394-.021v-3.311a.15.15 0 0 1 .15-.151h.783a.15.15 0 0 0 .114-.248l-1.642-1.9a.15.15 0 0 0 -.228-.001m-9.248 0-1.642 1.9a.15.15 0 0 0 .114.248h.783a.15.15 0 0 1 .15.151v3.233a4.9 4.9 0 0 0 1.4.152h.015v-3.384a.15.15 0 0 1 .15-.151h.783a.15.15 0 0 0 .114-.248l-1.639-1.901a.15.15 0 0 0 -.228 0" fill="url(#c)" opacity=".9"/></svg>