<svg xmlns="http://www.w3.org/2000/svg" width="18" height="18" viewBox="0 0 18 18"><defs><linearGradient id="b34ec488-362d-4e56-ba08-b30b594400e7" x1="9" x2="9" y1="2.619" y2="15.381" gradientUnits="userSpaceOnUse"><stop offset="0" stop-color="#5ea0ef"/><stop offset="1" stop-color="#0078d4"/></linearGradient><linearGradient id="a991103a-cd8c-4c10-9187-45efb6afaa60" x1="9.001" x2="9.001" y1="6.17" y2="15.458" gradientUnits="userSpaceOnUse"><stop offset=".33" stop-color="#b4ec36"/><stop offset="1" stop-color="#86d633"/></linearGradient><linearGradient id="b85f8f17-e712-4c0f-bc80-cfc59ff8aa95" x1="9" x2="9" y1="9.652" y2="15.442" gradientUnits="userSpaceOnUse"><stop offset=".429" stop-color="#86d633"/><stop offset=".999" stop-color="#76bc2d"/></linearGradient></defs><g id="fcc94818-5718-45fa-b758-f361ca38dd4e"><path fill="url(#b34ec488-362d-4e56-ba08-b30b594400e7)" d="M18 11.383a4.09 4.09 0 0 1-3.667 3.922 4 4 0 0 1-.394.021.8.8 0 0 1-.216.033H5.516a5 5 0 0 1-.431.019H5.07A4.894 4.894 0 0 1 0 10.677a4.824 4.824 0 0 1 4.244-4.648 5.23 5.23 0 0 1 5-3.407A5.1 5.1 0 0 1 14.49 7.5 4.04 4.04 0 0 1 18 11.383"/><path fill="url(#a991103a-cd8c-4c10-9187-45efb6afaa60)" d="M11.441 9.279h-1.295a.15.15 0 0 0-.15.15v5.93H8v-5.93a.15.15 0 0 0-.15-.15H6.56a.15.15 0 0 1-.113-.248L8.886 6.2a.15.15 0 0 1 .228 0l2.441 2.827a.15.15 0 0 1-.114.252"/><path fill="url(#b85f8f17-e712-4c0f-bc80-cfc59ff8aa95)" d="m13.51 9.693-1.642 1.9a.15.15 0 0 0 .114.248h.783a.15.15 0 0 1 .15.151v3.366h.808a.8.8 0 0 0 .216-.033 4 4 0 0 0 .394-.021v-3.311a.15.15 0 0 1 .15-.151h.783a.15.15 0 0 0 .114-.248l-1.642-1.9a.15.15 0 0 0-.228-.001m-9.248 0-1.642 1.9a.15.15 0 0 0 .114.248h.783a.15.15 0 0 1 .15.151v3.233a4.9 4.9 0 0 0 1.4.152h.015v-3.384a.15.15 0 0 1 .15-.151h.783a.15.15 0 0 0 .114-.248L4.49 9.693a.15.15 0 0 0-.228 0" opacity=".9"/></g></svg>