<svg viewBox="0 0 24 24" xmlns="http://www.w3.org/2000/svg"><path d="m17.636 10.009a7.16 7.16 0 0 1 1.565 4.474 7.2 7.2 0 0 1 -1.608 4.53l-.087.106-.023-.135a7 7 0 0 0 -.07-.349c-.502-2.21-2.142-4.106-4.84-5.642-1.823-1.034-2.866-2.278-3.14-3.693-.177-.915-.046-1.834.209-2.62.254-.787.631-1.446.953-1.843l1.05-1.284a.46.46 0 0 1 .713 0l5.28 6.456zm1.66-1.283-7.036-8.603a.336.336 0 0 0 -.52 0l-7.036 8.603-.023.029a9.33 9.33 0 0 0 -2.07 5.872c.001 5.176 4.205 9.373 9.389 9.373s9.388-4.197 9.388-9.373a9.32 9.32 0 0 0 -2.07-5.871zm-12.907 1.255.63-.77.018.142q.023.17.055.34c.408 2.136 1.862 3.917 4.294 5.297 2.114 1.203 3.345 2.586 3.7 4.103a5.3 5.3 0 0 1 .109 1.801l-.004.034-.03.014a7.2 7.2 0 0 1 -3.161.728c-3.976 0-7.2-3.218-7.2-7.188 0-1.705.594-3.27 1.587-4.503z"/></svg>