<svg viewBox="0 0 24 24" xmlns="http://www.w3.org/2000/svg" fill="#80247B"><path d="m23.917 21.886.062-.124v-.042c0-.041.021-.083.021-.103v-.042c0-.041 0-.103-.02-.145l-.063-.124v-.021l-11.377-19.15a.618.618 0 0 0 -.54-.311c-.228 0-.415.124-.539.31l-11.378 19.131v.021l-.062.124c-.021.041-.021.103-.021.144v.042c0 .041 0 .083.02.103v.042c.021.041.021.083.063.124l.02.021c.021.041.042.083.084.104l.062.062c.02.02.041.041.062.041.02.021.062.021.083.042.02 0 .041.02.062.02.062.021.104.021.166.021h22.736c.062 0 .103 0 .165-.02.021 0 .042-.021.063-.021.041-.021.062-.021.103-.042.02-.02.042-.02.062-.041l.062-.062a.364.364 0 0 0 .083-.104zm-11.917-10.57 3.627 5.845h-7.254zm-.622-1.347-4.56 7.357-4.455 2.55 9.015-15.15zm-3.958 8.456h9.14l4.456 2.55h-18.052zm9.761-1.099-4.56-7.357v-5.244l9.016 15.15z"/></svg>