<svg height="64" viewBox="0 0 64 64" width="64" xmlns="http://www.w3.org/2000/svg"><g fill="none" fill-rule="evenodd"><path d="m0 0h64v64h-64z" fill="#e7157b"/><path d="m16.979 36.394 4.242 4.242 1.414-1.414-4.242-4.242zm7.071 7.071 4.242 4.242 1.415-1.414-4.243-4.242zm18-18 4.242 4.242 1.415-1.414-4.243-4.242zm-1.415-4.243-4.242-4.242-1.414 1.414 4.242 4.242zm.729 18 1.414 1.414 4.242-4.242-1.414-1.414zm-7.072 7.071 1.415 1.414 4.242-4.242-1.414-1.414zm-5.272-27.899-1.414-1.414-4.242 4.242 1.414 1.414zm-7.071 7.071-1.414-1.414-4.243 4.242 1.415 1.414zm13.689 7.535h-2.638v2.637a3.75 3.75 0 0 0 1.678-.957v-.001a3.75 3.75 0 0 0 .96-1.679m-4.638 2.636v-2.636h-2.639a3.75 3.75 0 0 0 .96 1.679c.481.482 1.064.79 1.679.957m-2.639-4.636h2.639v-2.636a3.74 3.74 0 0 0 -1.679.957 3.76 3.76 0 0 0 -.96 1.679m4.639-2.636v2.636h2.638a3.76 3.76 0 0 0 -.96-1.679 3.75 3.75 0 0 0 -1.678-.957m11.414 3.636-3.707 3.707-1.415-1.414 1.293-1.293h-2.894a5.73 5.73 0 0 1 -4.691 4.692v2.894l1.292-1.293 1.415 1.414-3.707 3.708-3.708-3.708 1.415-1.414 1.293 1.293v-2.894a5.73 5.73 0 0 1 -4.692-4.692h-2.894l1.293 1.293-1.415 1.414-3.707-3.707 3.707-3.707 1.415 1.414-1.293 1.293h2.894a5.74 5.74 0 0 1 4.692-4.691v-2.894l-1.293 1.292-1.415-1.414 3.708-3.707 3.707 3.707-1.415 1.414-1.292-1.292v2.894a5.735 5.735 0 0 1 4.691 4.691h2.894l-1.293-1.293 1.415-1.414zm-14.414 18 2 2 2-2-2-2zm-18-18 2 2 2-2-2-2zm38-2-2 2 2 2 2-2zm-18-14-2-2 2-2 2 2z" fill="#fff"/></g></svg>