<svg xmlns="http://www.w3.org/2000/svg" xmlns:xlink="http://www.w3.org/1999/xlink" width="32" height="32" viewBox="0 0 32 32"><defs><filter id="b" width="111.7%" height="111.7%" x="-5.8%" y="-4.2%"><feOffset dy=".5" in="SourceAlpha" result="shadowOffsetOuter1"/><feGaussianBlur in="shadowOffsetOuter1" result="shadowBlurOuter1" stdDeviation=".5"/><feComposite in="shadowBlurOuter1" in2="SourceAlpha" operator="out" result="shadowBlurOuter1"/><feColorMatrix in="shadowBlurOuter1" values="0 0 0 0 0 0 0 0 0 0 0 0 0 0 0 0 0 0 0.199473505 0"/></filter><filter id="d" width="117.5%" height="117.5%" x="-8.8%" y="-6.2%"><feOffset dy=".5" in="SourceAlpha" result="shadowOffsetOuter1"/><feGaussianBlur in="shadowOffsetOuter1" result="shadowBlurOuter1" stdDeviation=".5"/><feColorMatrix in="shadowBlurOuter1" values="0 0 0 0 0 0 0 0 0 0 0 0 0 0 0 0 0 0 0.204257246 0"/></filter><circle id="a" cx="16" cy="15" r="15"/><path id="c" d="M12.116 13.404 16 9.52l3.886 3.886 2.26-2.26L16 5l-6.144 6.144zM6 15l2.26-2.26L10.52 15l-2.26 2.26zm6.116 1.596L16 20.48l3.886-3.886 2.26 2.259L16 25l-6.144-6.144-.003-.003zM21.48 15l2.26-2.26L26 15l-2.26 2.26zm-3.188-.002h.002V15L16 17.295l-2.291-2.292-.004-.003.004-.003.401-.402.195-.195L16 12.706z"/></defs><g fill="currentColor"><use xlink:href="#a" filter="url(#b)"/><use xlink:href="#a" fill-rule="evenodd"/><use xlink:href="#a" fill-rule="evenodd"/><circle cx="16" cy="15" r="14.5" stroke="currentColor" stroke-opacity=".097"/><use xlink:href="#c" filter="url(#d)"/><use xlink:href="#c" fill-rule="evenodd"/></g></svg>