<svg xmlns="http://www.w3.org/2000/svg" fill="currentColor" fill-rule="evenodd" viewBox="0 0 24 24"><title>Upstage</title><path d="m19.763 0-.373 1.297h2.594L22.354 0zM16.192 2.27l-.376 1.298h5.52l.37-1.298zM12.897 4.54l-.377 1.298h8.167l.37-1.297h-8.16zM2.85 6.81l-.377 1.298h17.565l.37-1.297H2.85zM3.884 9.081l-.376 1.297H19.39l.37-1.297H3.883zM4.088 24l.376-1.297H1.866L1.5 24zM7.662 21.73l.376-1.298H2.515L2.15 21.73h5.513zM10.957 19.46l.377-1.298h-8.17l-.367 1.297h8.16zM21.005 17.19l.376-1.298H3.812l-.366 1.297h17.559zM19.967 14.919l.376-1.297H4.461l-.366 1.297zM18.787 12.649l.376-1.298H4.26l-.366 1.298z"/></svg>