<svg height="18" viewBox="0 0 18 18" width="18" xmlns="http://www.w3.org/2000/svg" xmlns:xlink="http://www.w3.org/1999/xlink"><linearGradient id="a" gradientUnits="userSpaceOnUse" x1="9" x2="9" y1="-.691" y2="19.486"><stop offset="0" stop-color="#5e9624"/><stop offset=".316" stop-color="#619a25"/><stop offset=".659" stop-color="#69a728"/><stop offset=".999" stop-color="#76bc2d"/></linearGradient><linearGradient id="b" gradientUnits="userSpaceOnUse" x1="9" x2="9" y1="17.788" y2="-.966"><stop offset="0" stop-color="#5e9624"/><stop offset=".546" stop-color="#6dad2a"/><stop offset=".999" stop-color="#76bc2d"/></linearGradient><path d="m16.218 8.417c0 4.743-5.734 8.562-6.98 9.336a.45.45 0 0 1 -.476 0c-1.246-.774-6.98-4.593-6.98-9.336v-5.708a.454.454 0 0 1 .443-.452c4.46-.121 3.433-2.078 6.775-2.078s2.315 1.957 6.775 2.078a.454.454 0 0 1 .443.452z" fill="url(#a)"/><path d="m15.619 8.465c0 4.35-5.258 7.852-6.4 8.562a.41.41 0 0 1 -.436 0c-1.143-.71-6.4-4.212-6.4-8.562v-5.234a.414.414 0 0 1 .406-.414c4.088-.111 3.146-1.906 6.211-1.906s2.123 1.8 6.213 1.906a.414.414 0 0 1 .406.414z" fill="url(#b)"/><path d="m12.222 10.152h-6.444a.684.684 0 0 0 -.684.684v.848a.114.114 0 0 0 .114.114h7.584a.114.114 0 0 0 .114-.114v-.848a.684.684 0 0 0 -.684-.684m-.028 2.491h-6.388a.08.08 0 0 0 -.081.081v.428a.487.487 0 0 0 .487.487h5.576a.487.487 0 0 0 .487-.487v-.428a.08.08 0 0 0 -.081-.081m-1.71-6.215c.451-.655.767-.531.51-2.044s-1.94-1.5-2.043-1.5-1.786-.016-2.043 1.5.059 1.389.509 2.044a8.9 8.9 0 0 1 .411 2.839h2.246a8.9 8.9 0 0 1 .41-2.839" fill="#fff"/></svg>