<svg xmlns="http://www.w3.org/2000/svg" width="18" height="18" viewBox="0 0 18 18"><path fill="currentColor" d="M11.108 0A5.68 5.68 0 0 0 7.27 1.486a.28.28 0 0 0 .011.425 2.8 2.8 0 0 1 .859 1.126.283.283 0 0 0 .461.1 3.59 3.59 0 1 1 4.546 5.524.28.28 0 0 0 .013.474 4.8 4.8 0 0 1 1.153.964.283.283 0 0 0 .391.033A5.7 5.7 0 0 0 11.108 0"/><path fill="currentColor" d="M9.322 18h5.157a.61.61 0 0 0 .6-.595v-4.166a4.364 4.364 0 0 0-8.728 0z"/><path fill="currentColor" d="M5.553 6.5a2.38 2.38 0 1 0-2.38-2.38 2.38 2.38 0 0 0 2.38 2.38"/><path fill="currentColor" d="M1.785 18h7.537a.61.61 0 0 0 .6-.595v-5.752a4.364 4.364 0 1 0-8.728 0v5.752a.61.61 0 0 0 .591.595"/><circle cx="11.108" cy="5.702" r="2.38" fill="currentColor"/></svg>