<svg height="18" viewBox="0 0 18 18" width="18" xmlns="http://www.w3.org/2000/svg" xmlns:xlink="http://www.w3.org/1999/xlink"><linearGradient id="a"><stop offset="0" stop-color="#b77af4"/><stop offset="1" stop-color="#773adc"/></linearGradient><linearGradient id="b" gradientUnits="userSpaceOnUse" x1="3.875" x2="8.777" xlink:href="#a" y1="2.197" y2="2.197"/><linearGradient id="c" gradientUnits="userSpaceOnUse" x1="9.171" x2="14.064" xlink:href="#a" y1="2.24" y2="2.24"/><linearGradient id="d" gradientUnits="userSpaceOnUse" x1="1.368" x2="6.27" xlink:href="#a" y1="6.8" y2="6.8"/><linearGradient id="e" gradientUnits="userSpaceOnUse" x1="6.647" x2="11.54" xlink:href="#a" y1="6.77" y2="6.77"/><linearGradient id="f" gradientUnits="userSpaceOnUse" x1="11.925" x2="16.828" xlink:href="#a" y1="6.808" y2="6.808"/><linearGradient id="g" gradientUnits="userSpaceOnUse" x1="3.815" x2="8.717" xlink:href="#a" y1="11.454" y2="11.454"/><linearGradient id="h" gradientUnits="userSpaceOnUse" x1="9.102" x2="14.004" xlink:href="#a" y1="11.488" y2="11.488"/><path d="m17.947 15.105c-.167.733-1.083 1.456-2.738 2.018a22.6 22.6 0 0 1 -12.69.018c-1.525-.541-2.348-1.224-2.477-1.928-.022-.124 0-2.058 0-2.058l17.935-.166s-.009 2.026-.03 2.116" fill="#5ea0ef"/><ellipse cx="9.001" cy="13.115" fill="#50e6ff" rx="8.976" ry="3.103" transform="matrix(.99994964 -.01003547 .01003547 .99994964 -.131001 .090999)"/><path d="m6.322.041-2.447.453v3.337l2.447.522 2.455-.984v-2.49z" fill="url(#b)"/><path d="m6.416 4.3 2.241-.9a.17.17 0 0 0 .1-.12v-2.264a.18.18 0 0 0 -.108-.154l-2.267-.77h-.1l-2.227.408a.17.17 0 0 0 -.129.154v3.02a.164.164 0 0 0 .129.163l2.25.47a.3.3 0 0 0 .111-.007" fill="none"/><path d="m11.617.084-2.446.453v3.337l2.446.522 2.447-.993v-2.481z" fill="url(#c)"/><path d="m3.815 4.644-2.447.453v3.337l2.447.522 2.455-.984v-2.49z" fill="url(#d)"/><path d="m9.094 4.609-2.447.454v3.336l2.447.531 2.446-.993v-2.489z" fill="url(#e)"/><path d="m14.372 4.652-2.447.454v3.336l2.447.522 2.456-.984v-2.489z" fill="url(#f)"/><path d="m6.262 9.298-2.447.445v3.336l2.447.531 2.455-.993v-2.481z" fill="url(#g)"/><path d="m6.356 13.541 2.233-.855a.16.16 0 0 0 .1-.154v-2.225a.17.17 0 0 0 -.112-.188l-2.258-.77a.15.15 0 0 0 -.1 0l-2.219.402a.16.16 0 0 0 -.137.163v3.028a.16.16 0 0 0 .128.163l2.25.436a.2.2 0 0 0 .115 0" fill="none"/><path d="m11.549 9.332-2.447.453v3.337l2.447.522 2.455-.984v-2.49z" fill="url(#h)"/><path d="m3.875.494v3.337l2.472.522v-4.278zm1.044 3.08-.693-.137v-2.566l.693-.111zm1.081.197-.8-.128v-2.935l.8-.137zm3.171-3.234v3.337l2.455.522v-4.278zm1.035 3.08-.693-.137v-2.566l.693-.114zm1.078.2-.8-.128v-2.938l.8-.145zm-9.924 1.283v3.308l2.472.522v-4.278zm1.04 3.086-.7-.146v-2.566l.693-.12zm1.086.222-.8-.128v-2.969l.8-.137zm3.161-3.345v3.345l2.464.522v-4.278zm1.035 3.088-.693-.145v-2.567l.693-.119zm1.078.189-.8-.129v-2.934l.8-.137zm3.165-3.234v3.3l2.475.524v-4.278zm1.044 3.088-.693-.145v-2.567l.693-.12zm1.078.188-.795-.128v-2.934l.8-.137zm-10.232 1.361v3.336l2.473.531v-4.346zm1.044 3.088-.693-.145v-2.567l.693-.119zm1.078.2-.8-.128v-2.946l.8-.137zm3.163-3.246v3.337l2.473.522v-4.278zm1.044 3.089-.693-.146v-2.566l.693-.12zm1.078.188-.8-.128v-2.934l.8-.137z" fill="#341a6e"/></svg>