<svg viewBox="0 0 24 24" xmlns="http://www.w3.org/2000/svg"><path d="m5.6 0a5.6 5.6 0 0 0 -5.6 5.6v12.8a5.6 5.6 0 0 0 5.6 5.6h12.8a5.6 5.6 0 0 0 5.6-5.6v-12.8a5.6 5.6 0 0 0 -5.6-5.6zm0 2h12.8a3.6 3.6 0 0 1 3.6 3.6v12.8a3.6 3.6 0 0 1 -3.6 3.6h-12.8a3.6 3.6 0 0 1 -3.6-3.6v-12.8a3.6 3.6 0 0 1 3.6-3.6m-.4 2.8a1.2 1.2 0 0 0 0 2.4h10.4a1.2 1.2 0 0 0 0-2.4zm3.2 4a1.2 1.2 0 0 0 0 2.4h10.4a1.2 1.2 0 0 0 0-2.4zm-3.2 4a1.2 1.2 0 0 0 0 2.4h10.4a1.2 1.2 0 0 0 0-2.4zm3.2 4a1.2 1.2 0 0 0 0 2.4h10.4a1.2 1.2 0 0 0 0-2.4z"/></svg>