<svg viewBox="0 0 128 128" xmlns="http://www.w3.org/2000/svg"><path d="m87.702 137.67-87.702-137.67h63.25l55.77 88.646 56.22-88.646h60.55l-91.81 137.67v87.28h-56.278z" transform="matrix(.24805 0 0 .24805 .5 5.6287)"/><path d="m82.428 49.149h-25.266l-5.1388 12.408h-11.188l23.659-55.798h11.444l22.699 55.798h-11.956l-4.2525-12.408zm-4.197-11.14-7.7455-20.476-8.6412 20.476z" fill="#cb171e"/><g transform="matrix(.24805 0 0 .24805 .5 5.6287)"><path d="m87.701 250.18v220.47h47.299v-152.08l49.51 102.22h37.23l51.2-105.81v155.62h45.38v-220.42h-61.96l-54.98 99.7-52.36-99.7z"/><path d="m512 422.74h-116.36v-172.62h-48.2v219.53h164.56z"/></g></svg>