<svg height="18" viewBox="0 0 18 18" width="18" xmlns="http://www.w3.org/2000/svg" xmlns:xlink="http://www.w3.org/1999/xlink"><linearGradient id="a" gradientTransform="matrix(.99999671 .00256563 -.00256563 .99999671 2.699001 -2.533002)" gradientUnits="userSpaceOnUse" x1="-2.113" x2="10.011" y1="12.211" y2="12.211"><stop offset="0" stop-color="#005ba1"/><stop offset=".068" stop-color="#0060a9"/><stop offset=".356" stop-color="#0071c8"/><stop offset=".517" stop-color="#0078d4"/><stop offset=".642" stop-color="#0074cd"/><stop offset=".82" stop-color="#006abb"/><stop offset="1" stop-color="#005ba1"/></linearGradient><linearGradient id="b" gradientTransform="matrix(.99999671 .00256563 -.00256563 .99999671 2.699001 -2.533002)" gradientUnits="userSpaceOnUse" x1="6.563" x2="14.785" y1="15.274" y2="15.274"><stop offset="0" stop-color="#32bedd"/><stop offset=".322" stop-color="#47daf5"/><stop offset=".517" stop-color="#50e6ff"/><stop offset=".664" stop-color="#4bdff9"/><stop offset=".872" stop-color="#3dcdea"/><stop offset="1" stop-color="#32bedd"/></linearGradient><path d="m6.629 4.917c-3.348-.008-6.059-1.004-6.056-2.224l-.03 11.749c0 1.21 2.663 2.2 5.973 2.224h.084c3.348.009 6.065-.973 6.068-2.193l.032-11.749c-.006 1.22-2.723 2.202-6.071 2.193" fill="url(#a)"/><path d="m12.7 2.724c0 1.22-2.72 2.2-6.068 2.193s-6.062-1.004-6.059-2.224 2.72-2.202 6.068-2.193 6.06 1 6.056 2.224" fill="#e6e6e6"/><path d="m11.283 2.542c0 .775-2.085 1.4-4.651 1.392s-4.646-.64-4.644-1.416 2.085-1.4 4.651-1.393 4.646.641 4.644 1.417" fill="#50e6ff"/><path d="m6.635 2.853a11.2 11.2 0 0 0 -3.683.524 10.8 10.8 0 0 0 3.68.557 10.8 10.8 0 0 0 3.683-.534 11.2 11.2 0 0 0 -3.68-.547" fill="#198ab3"/><path d="m13.343 9.533c-2.271-.006-4.109-.681-4.107-1.508l-.021 7.967c0 .82 1.807 1.491 4.051 1.508h.056c2.271.006 4.113-.66 4.115-1.487l.02-7.967c-.002.827-1.844 1.493-4.114 1.487" fill="url(#b)"/><path d="m17.457 8.046c0 .827-1.844 1.493-4.114 1.487s-4.109-.681-4.107-1.508 1.844-1.493 4.114-1.487 4.11.681 4.107 1.508" fill="#e6e6e6"/><path d="m16.5 7.922c0 .526-1.413.948-3.154.944s-3.15-.434-3.148-.96 1.413-.949 3.153-.944 3.15.434 3.149.96" fill="#50e6ff"/><path d="m13.346 8.133a7.6 7.6 0 0 0 -2.5.355 7.3 7.3 0 0 0 2.495.378 7.3 7.3 0 0 0 2.5-.365 7.6 7.6 0 0 0 -2.495-.368" fill="#198ab3"/><path d="m14.044 10.589a.1.1 0 0 0 -.052-.013.13.13 0 0 0 -.092.052l-2.248 3.272a.13.13 0 0 0 -.013.118.13.13 0 0 0 .105.065h1.346l-.6 1.974a.1.1 0 0 0 .052.13.08.08 0 0 0 .052.013.13.13 0 0 0 .092-.052l2.314-3.311c.013-.026.026-.039.026-.065a.117.117 0 0 0 -.117-.118h-1.388l.579-1.934a.1.1 0 0 0 -.056-.131" fill="#f2f2f2"/></svg>