<svg height="24" width="24" xmlns="http://www.w3.org/2000/svg"><path d="m21.42 9-.35-.09-1.07-.27-.09-.19c-.05-.09-.09-.19-.14-.29s-.09-.18-.14-.27l-.16-.28-.16-.26-.17-.26a2 2 0 0 0 -.19-.25c-.06-.08-.12-.17-.19-.25l-.2-.24-.2-.23-.26-.22-.22-.22-.24-.2-.23-.2-.25-.19-.25-.19-.26-.17-.26-.16-.28-.16-.27-.14-.29-.14-.19-.08-.29-1.12-.07-.35a.78.78 0 0 0 -.77-.58h-4.46a.78.78 0 0 0 -.77.58l-.09.35-.27 1.12-.19.08-.29.14-.27.14-.28.16-.26.16-.26.17-.25.19-.25.19-.24.2-.23.2-.22.22-.22.22-.2.24a2 2 0 0 0 -.2.23c-.07.08-.13.17-.19.25a2 2 0 0 0 -.19.25l-.17.26-.16.26-.16.28c0 .09-.1.18-.14.27s-.09.2-.14.29-.06.13-.08.19l-1.12.29-.35.07a.78.78 0 0 0 -.58.77v4.46a.78.78 0 0 0 .58.75l.35.09 1.12.29c0 .06.06.12.08.19s.09.19.14.29.09.18.14.27l.16.28.16.26.17.26a2 2 0 0 0 .19.25c.06.08.12.17.19.25a2 2 0 0 0 .2.23l.2.24.22.22.22.22.24.2.23.2.25.19.25.19.26.17.26.16.28.16.27.14.29.14.19.08.29 1.12.09.35a.78.78 0 0 0 .75.58h4.46a.78.78 0 0 0 .75-.58l.09-.35.29-1.07.19-.08.29-.14.27-.14.28-.16.26-.16.26-.17.25-.19.25-.19.24-.2.23-.2.22-.22.22-.22.2-.24a2 2 0 0 0 .2-.23c.07-.08.13-.17.19-.25a2 2 0 0 0 .19-.25l.17-.26.16-.26.16-.28c.05-.09.1-.18.14-.27s.09-.2.14-.29.06-.13.08-.19l1.12-.29.35-.09a.78.78 0 0 0 .58-.75v-4.51a.78.78 0 0 0 -.58-.77m-9.42 9.67a6.66 6.66 0 1 1 6.67-6.67 6.5 6.5 0 0 1 -.14 1.33 6.64 6.64 0 0 1 -6.53 5.34" fill="#4285f4"/><path d="m12 6.88a5.2 5.2 0 0 0 -1.11.12l.27 1.23a3.86 3.86 0 1 1 -2.93 4.61 4 4 0 0 1 -.09-.84h-1.26a5.12 5.12 0 1 0 5.12-5.12" fill="#669df6"/><path d="m12 9.42a2.6 2.6 0 0 0 -.56.06l.27 1.24a1.32 1.32 0 1 1 -1 1.57 1.4 1.4 0 0 1 0-.29h-1.29a2.58 2.58 0 1 0 2.58-2.58" fill="#aecbfa"/></svg>