<svg height="64" viewBox="0 0 64 64" width="64" xmlns="http://www.w3.org/2000/svg"><g fill="none" fill-rule="evenodd"><path d="m0 0h64v64h-64z" fill="#dd344c"/><path d="m45 48c0-1.14-.859-2-2-2s-2 .86-2 2 .859 2 2 2 2-.86 2-2m-13 0c-1.141 0-2 .86-2 2s.859 2 2 2 2-.86 2-2-.859-2-2-2m-11-2c-1.141 0-2 .86-2 2s.859 2 2 2 2-.86 2-2-.859-2-2-2m2.661-12h16.678l-5.63-4.926-2.077 1.7a.994.994 0 0 1 -1.266 0l-2.076-1.699zm-1.661-10.89v9.687l5.721-5.006zm18.199-1.11h-16.398l8.198 6.708zm1.801 10.797v-9.687l-5.722 4.681zm5 15.203c0 2.243-1.757 4-4 4s-4-1.757-4-4a3.94 3.94 0 0 1 3-3.864v-2.136h-9v4.136c1.741.435 3 1.969 3 3.864 0 2.243-1.757 4-4 4s-4-1.757-4-4a3.94 3.94 0 0 1 3-3.864v-4.136h-9v2.136c1.741.435 3 1.969 3 3.864 0 2.243-1.757 4-4 4s-4-1.757-4-4a3.94 3.94 0 0 1 3-3.864v-3.136a1 1 0 0 1 1-1h10v-4h-10a1 1 0 0 1 -1-1v-14a1 1 0 0 1 1-1h22a1 1 0 0 1 1 1v14a1 1 0 0 1 -1 1h-10v4h10a1 1 0 0 1 1 1v3.136c1.741.435 3 1.969 3 3.864m7-16c0 4.795-1.605 10.001-4.188 13.585l-1.624-1.17c2.352-3.261 3.812-8.018 3.812-12.415 0-11.028-8.972-20-19.999-20-11.028 0-20.001 8.972-20.001 20 0 4.397 1.46 9.154 3.812 12.415l-1.624 1.17c-2.583-3.584-4.188-8.79-4.188-13.585 0-12.131 9.869-22 21.999-22 12.132 0 22.001 9.869 22.001 22" fill="#fff"/></g></svg>