<svg viewBox="0 0 128 128" xmlns="http://www.w3.org/2000/svg" xmlns:xlink="http://www.w3.org/1999/xlink"><radialGradient id="a" cx="532.855" cy="-537.557" gradientTransform="matrix(1 0 0 -1 -297.6 -460.9)" gradientUnits="userSpaceOnUse" r="209.76"><stop offset="0" stop-color="#faaf40"/><stop offset=".043" stop-color="#f9a538"/><stop offset=".112" stop-color="#f89d31"/><stop offset=".227" stop-color="#f89a2f"/><stop offset=".528" stop-color="#f7922d"/><stop offset="1" stop-color="#f37b28"/></radialGradient><linearGradient id="b"><stop offset="0" stop-color="#929497"/><stop offset=".124" stop-color="#757578"/><stop offset=".279" stop-color="#575658"/><stop offset=".44" stop-color="#403e3f"/><stop offset=".609" stop-color="#302d2e"/><stop offset=".788" stop-color="#262223"/><stop offset="1" stop-color="#231f20"/></linearGradient><linearGradient id="c" gradientTransform="matrix(1 0 0 -1 -297.6 -460.9)" gradientUnits="userSpaceOnUse" x1="324.268" x2="368.932" xlink:href="#b" y1="-509.952" y2="-509.952"/><linearGradient id="d" gradientTransform="matrix(1 0 0 -1 -297.6 -460.9)" gradientUnits="userSpaceOnUse" x1="332.834" x2="351.377" y1="-495.051" y2="-521.534"><stop offset="0" stop-color="#231f20"/><stop offset="1" stop-color="#231f20" stop-opacity="0"/></linearGradient><linearGradient id="e" gradientTransform="matrix(1 0 0 -1 -297.6 -460.9)" gradientUnits="userSpaceOnUse" x1="299.778" x2="381.412" xlink:href="#b" y1="-495.802" y2="-495.802"/><path d="m106.259 105.754v-38.779c0-8.164-3.397-12.244-10.034-12.244-6.629 0-10.034 4.08-10.034 12.244v38.779h-19.897v-38.779c0-8.164-3.228-12.244-9.862-12.244-6.633 0-10.036 4.08-10.036 12.244v38.779h-19.729v-40.986c0-8.504 2.891-14.801 8.844-19.223 5.102-3.91 12.246-5.777 20.92-5.777 9.015 0 15.478 2.207 19.727 6.801 3.57-4.594 10.207-6.801 19.897-6.801 8.844 0 15.819 1.867 20.922 5.777 5.951 4.422 8.843 10.719 8.843 19.223v41.152h-19.563v-.166z" fill="url(#a)"/><path d="m28.539 49.627-2.041 10.207c18.708 6.291 36.395.166 45.751-16.158-13.778-9.522-26.535.17-43.71 5.951" fill="#58595b"/><path d="m28.539 47.08c-.681 3.91-1.192 7.65-1.872 11.563 17.857 6.125 35.375.85 44.73-15.137-11.909-13.776-25.17-2.383-42.858 3.574" fill="url(#c)"/><path d="m49.799 51.668c-8.164-1.701-17.009 2.555-23.131 6.975-3.912-28.57 13.777-27.893 36.903-20.75-1.529 6.975-4.083 16.33-8.502 21.941-.169-3.744-1.869-6.293-5.27-8.166" fill="url(#d)"/><path d="m2.178 47.08c29.932-18.031 46.77-21.43 81.634-25-40.478 31.969-41.499 25-81.634 25" fill="url(#e)"/><path d="m83.812 22.246-32.145 23.299" fill="none" stroke="#4a4a4c" stroke-width=".5"/><path d="m45.545 34.66c.34 3.744-.511-3.572 0 0" fill="#231f20" opacity=".23"/><path d="m2.178 47.08 49.489-1.535" fill="none" stroke="#a8abad" stroke-width=".5"/><path d="m42.484 35.002c-8.504 2.381-36.394 8.504-36.737 12.078-.849 6.631-.167 17.176-.167 17.176" fill="none" stroke="#f16922" stroke-width=".5"/><path d="m8.131 89.596c-3.063-7.652-6.804-16.158-2.384-26.703 2.893 9.863 2.384 17.347 2.384 26.703" fill="#f16922"/><path d="m41.076 33.844c.708-.25 1.384-.17 1.509.184.126.355-.344.846-1.052 1.096-.709.256-1.384.172-1.51-.184-.127-.352.344-.844 1.053-1.096z" fill="#6d6e70"/></svg>