<svg xmlns="http://www.w3.org/2000/svg" id="svg5" width="327.269" height="74.223" viewBox="0 0 86.59 19.638"><defs id="defs2"><clipPath id="clipPath23" clipPathUnits="userSpaceOnUse"><path id="path21" d="M0 40h177.773V0H0Z"/></clipPath></defs><g id="layer1" transform="translate(-14.093 -113.57)"><g id="g19" clip-path="url(#clipPath23)" transform="matrix(.48596 0 0 -.48596 14.193 133.108)"><g id="g25" transform="translate(92.044 21.638)"><path id="path27" d="M0 0c0-1.162-.778-5.221-5.547-5.237-4.77.016-5.548 4.075-5.548 5.237v8.198c0 1.162.778 5.218 5.548 5.236C-.778 13.416 0 9.36 0 8.198Zm4.322 13.412C3.136 15.7.677 18.287-4.391 18.308v.002h-.058v-.002c-3.343-.013-5.555-1.38-7.008-2.804v1.94a.35.35 0 0 1-.35.35h-4.54a.35.35 0 0 1-.349-.35V-20.59a.35.35 0 0 1 .349-.35h4.894a.35.35 0 0 1 .349.35v12.954c1.458-1.262 3.569-2.462 6.655-2.472h.058c5.068.018 7.527 2.606 8.713 4.894C5.566-2.813 5.617-.281 5.617.231v7.741c0 .508-.051 3.041-1.295 5.44" fill="#e94b22" fill-opacity="1" fill-rule="nonzero" stroke="none"/></g><g id="g29" transform="translate(28.416 21.661)"><path id="path31" d="M0 0c0-1.162.781-5.217 5.55-5.237 4.768.02 5.551 4.075 5.551 5.237v8.197c0 1.161-.783 5.223-5.551 5.24C.781 13.42 0 9.358 0 8.197Zm-5.596 7.948c0 .509.056 3.041 1.43 5.442 1.318 2.287 4.053 4.874 9.683 4.894v.002h.06v-.002c5.632-.02 8.366-2.607 9.68-4.894 1.379-2.401 1.435-4.933 1.435-5.442V.208c0-.513-.056-3.045-1.435-5.445-1.314-2.288-4.048-4.876-9.68-4.895h-.06c-5.63.019-8.365 2.607-9.683 4.895-1.374 2.4-1.43 4.932-1.43 5.445z" fill="#894f24" fill-opacity="1" fill-rule="nonzero" stroke="none"/></g><g id="g33" transform="translate(71.105 39.082)"><path id="path35" d="M0 0c0 .189-.149.35-.35.35h-4.886a.35.35 0 0 1-.35-.35l-.02-17.444c0-1.16-.77-5.217-5.537-5.237-4.777.02-5.556 4.077-5.556 5.237V0c0 .189-.16.35-.351.35h-4.917a.355.355 0 0 1-.349-.35v-17.214c0-.511.049-3.049 1.299-5.447 1.179-2.289 3.648-4.877 8.714-4.887h.051c1.679 0 3.058.35 4.217.869a9.6 9.6 0 0 1 2.799 1.929v-1.933c0-.193.156-.349.349-.349h4.541c.193 0 .349.156.349.349z" fill="#894f24" fill-opacity="1" fill-rule="nonzero" stroke="none"/></g><g id="g37" transform="translate(116.903 21.188)"><path id="path39" d="M0 0c0-1.09-.759-4.907-5.402-4.925-4.645.018-5.403 3.835-5.403 4.925v.444c0 1.092.758 4.907 5.403 4.923C-.759 5.351 0 1.536 0 .444Zm5.184 8.689c-.003 2.181-1.092 7.29-6.046 9.322-4.785 1.962-11.084-.191-13.134-1.023l-.375-.151a.35.35 0 0 1-.192-.457l1.397-3.963a.35.35 0 0 1 .416-.22c.057.015.14.059.164.072 1.898.96 6.809 2.576 9.829 1.199C.213 12.114-.046 8.953-.029 8.615v-.776c-1.441 1.049-3.45 2.048-6.288 2.058h-.051c-5.075-.019-7.53-2.462-8.721-4.626-1.239-2.266-1.292-4.658-1.292-5.143V.119c0-.478.053-2.874 1.292-5.14 1.191-2.162 3.646-4.604 8.721-4.626h.051c2.955.011 5.013 1.074 6.462 2.196v-1.337a.35.35 0 0 1 .349-.35h4.34c.193 0 .35.158.35.35l.005 17.291q.001.094-.005.186" fill="#fac000" fill-opacity="1" fill-rule="nonzero" stroke="none"/></g><g id="g41" transform="translate(169.096 29.793)"><path id="path43" d="M0 0c0-1.066-.779-4.943-5.549-4.96-4.773.017-5.549 3.894-5.549 4.96v.349c0 1.069.776 4.947 5.549 4.963C-.779 5.296 0 1.418 0 .349Zm8.306 10.021c-2.872.081-4.734-1.105-5.932-2.413C.763 9.01-1.719 10.14-5.515 10.152v.002h-.064v-.002c-5.629-.02-8.363-2.482-9.683-4.666-1.372-2.292-1.434-4.704-1.434-5.189V.033c0-.489.062-2.903 1.439-5.188a8.8 8.8 0 0 1 2.758-2.858c-2.119-1.218-3.99-3.37-3.99-7.255l-.001-2.092a.35.35 0 0 1 .35-.35l16.127.001c1.937 0 2.913-1.276 3.187-2.476.341-1.504-.237-3.538-2.751-4.918L.255-25.2a.35.35 0 0 1-.132-.471l2.156-3.94a.35.35 0 0 1 .481-.136s1.113.681 1.473.923c.363.244.682.525.983.806 2.766 2.581 3.344 6.133 2.722 8.904-.844 3.761-4.037 6.022-7.951 6.022h-11.124c.612 3.361 4.533 3.298 5.003 3.279l.619-.009c5.628.017 8.359 2.482 9.676 4.667C5.536-2.87 5.598-.456 5.598.033v.264c0 .415-.048 2.201-.895 4.129.737.511 1.884.984 3.569.894l.043-.001a.35.35 0 0 1 .357.344l.005 3.946v.02c0 .209-.137.392-.371.392" fill="#3dacdc" fill-opacity="1" fill-rule="nonzero" stroke="none"/></g><g id="g45" transform="translate(20.975 17.429)"><path id="path47" d="m0 0-4.332 2.168a.35.35 0 0 1-.469-.157l-.03-.059-.002-.001C-5.504.515-6.923-.992-9.828-1.005c-4.768.022-5.55 4.075-5.55 5.237v8.198c0 1.16.782 5.221 5.55 5.239 2.946-.012 4.362-1.562 5.022-3.021a.39.39 0 0 1 .366-.252c.062 0 .117.019.175.047.004-.002 4.246 2.213 4.246 2.213a.35.35 0 0 1 .148.472l-.004.008-.001.004c-.076.16-.153.32-.245.481-1.315 2.288-4.049 4.875-9.681 4.896v.002h-.061v-.002c-5.627-.021-8.363-2.608-9.676-4.896-1.38-2.399-1.436-4.932-1.436-5.44V4.44c0-.512.056-3.044 1.436-5.445 1.313-2.288 4.049-4.876 9.676-4.894h.061c5.632.018 8.366 2.606 9.681 4.894.006.009.275.535.275.535A.35.35 0 0 1 0 0" fill="#894f24" fill-opacity="1" fill-rule="nonzero" stroke="none"/></g><g id="g49" transform="translate(147.449 35.069)"><path id="path51" d="M0 0c-1.19 2.289-3.65 4.874-8.72 4.892v.004c-.009 0-.013-.004-.032-.004q-.005.002-.025.004v-.004c-3.333-.009-5.533-1.368-6.989-2.78l.003 1.902a.35.35 0 0 1-.349.349h-4.54a.35.35 0 0 1-.35-.349v-26.682a.35.35 0 0 1 .35-.351h4.89a.35.35 0 0 1 .35.351V-4.93c.117 1.422 1.096 4.937 5.535 4.954 4.773-.018 5.55-4.077 5.55-5.239v-17.453c0-.193.157-.351.35-.351H.937a.35.35 0 0 1 .35.351v17.224C1.287-4.933 1.239-2.401 0 0" fill="#80bc27" fill-opacity="1" fill-rule="nonzero" stroke="none"/></g></g></g></svg>