<svg viewBox="0 0 24 24" xmlns="http://www.w3.org/2000/svg" fill="#6D4AFF"><path d="m2.474 17.75v6.25h4.401v-5.979c0-.582.232-1.14.645-1.551a2.204 2.204 0 0 1 1.556-.643h4.513a7.955 7.955 0 0 0 5.612-2.318 7.907 7.907 0 0 0 2.325-5.595 7.91 7.91 0 0 0 -2.325-5.596 7.958 7.958 0 0 0 -5.614-2.318h-11.113v7.812h4.401v-3.683h6.416c.995 0 1.951.394 2.656 1.097.704.7 1.1 1.653 1.101 2.646a3.742 3.742 0 0 1 -1.101 2.648 3.766 3.766 0 0 1 -2.656 1.097h-4.664a6.158 6.158 0 0 0 -4.352 1.795 6.133 6.133 0 0 0 -1.801 4.338z"/></svg>