<svg height="256.86978" preserveAspectRatio="xMidYMid meet" viewBox="0 0 271.62214 192.65233" width="362.26562" xmlns="http://www.w3.org/2000/svg" xmlns:xlink="http://www.w3.org/1999/xlink" zoomAndPan="magnify"><clipPath id="a"><path d="m127.29688 75.375h220.27343v192.15234h-220.27343zm0 0"/></clipPath><clipPath id="b"><path d="m75.871094 104h187.464846v164.03125h-187.464846zm0 0"/></clipPath><clipPath id="c"><path d="m105 169.02344h210v87.875h-210zm0 0"/></clipPath><g clip-path="url(#a)" transform="translate(-75.931091 -75.378906)"><path d="m237.43359 75.378906 110.13672 192.148434h-220.27343z" fill="#c30f2e"/></g><g clip-path="url(#b)" transform="translate(-75.931091 -75.378906)"><path d="m169.60156 104 93.73047 164.03125h-187.460936z" fill="#dd0330"/></g><path d="m252.96344 143.58984h-233.742187v-2.56641h233.742187z" fill="#fff"/><g clip-path="url(#c)" transform="translate(-75.931091 -75.378906)"><path d="m292.78516 256.51172c-.91407 0-1.77344-.37891-2.49219-1.09766-4.29297-4.3125-4.48047-21.84765-4.27344-48.10937.11719-14.35157.27344-34.00782-2.01562-35.5586-2.23438.92578-2.45704 17.16407-2.60157 27.91407-.17187 12.50781-.34765 25.44921-2.3789 32.03906-.60547 1.95312-1.38672 3.74219-2.95703 3.59765-2.21485-.19531-2.92969-3.6914-4.58204-17.48828-.6875-5.73047-1.39843-11.65234-2.23046-13.94531-.10938-.28906-.20313-.51953-.28516-.69922-.88672 2.00391-1.91016 7.51172-2.62109 11.33594-.98438 5.28125-1.91407 10.26953-3.07813 12.44531-.89844 1.67188-2.32422 3.85156-4.31641 3.42969-2.71484-.57031-3.52734-6.04297-3.76953-9.25391 0-27.01562-3.53515-30.16015-4.24218-30.51562l-.11329.0859-.17187-.0391c-2.52344 1.10157-2.66016 9.86328-2.78906 18.33594-.10157 6.21484-.21094 13.25781-1.11719 19.84766-1.17578 8.54297-2.59766 10.1914-4.36719 10.08984-4.07422-.27734-4.1914-14.30859-4.1914-15.90625 0-.5.0117-1.08984.0273-1.74219.0781-3.26562.21875-9.33984-1.78906-11.2539-.26563-.25391-.64063-.54688-.9336-.46485-1.42968.35938-2.91406 5.00391-3.40625 6.53125-.15625.48438-.28125.88282-.38672 1.15625-.082.22657-.1875.54688-.3125.9336-1.08203 3.28515-2.3125 6.5625-4.41406 7.37109-.77734.30078-1.58984.23438-2.35156-.19531-1.01172-.57422-1.83594-1.7461-2.60547-3.69531-.42187-1.07813-.78125-2.17188-1.14844-3.26954-.44531-1.33984-.90234-2.72656-1.46875-4.04296-.44531-1.02344-1.55468-1.48438-2.96875-1.23438-2.9375.52344-3.42968 3.49219-3.84375 7.96094-.0742.77734-.14453 1.53906-.24218 2.25781-.0117.21094-.53125 6.76953-.86329 8.85547-.91796 5.71875-2.125 7.97266-4.1289 7.80859-4.94531-.42187-7.21485-22.11328-7.09375-31.27734.0937-6.99609-1.17188-9.55078-1.92969-9.95703-.0781-.0352-.19922-.10156-.48828.10156-.89453.60547-1.69141 2.49219-1.44531 4.47266 2.72265 21.5664.71484 46.26562-4.20313 51.82812-1.55078 1.75-3.66015 1.72656-5.1289.25-4.29688-4.3125-4.47657-21.84765-4.27344-48.10937.11719-14.35157.26953-34.00782-2.01563-35.5586-2.23437.92578-2.45312 17.16407-2.60156 27.91407-.17187 12.50781-.34766 25.44921-2.38281 32.03906-.60547 1.95312-1.38672 3.74219-2.95313 3.59765-2.21875-.19531-2.92968-3.6914-4.58593-17.48828-.6875-5.73047-1.39844-11.65234-2.23047-13.94531-.10547-.28906-.19922-.51953-.28516-.69922-.88281 2.00391-1.90625 7.51172-2.61719 11.33594-.98437 5.28125-1.91406 10.26953-3.08203 12.44531-.89844 1.67188-2.32422 3.85156-4.3125 3.42969-2.71484-.57031-3.52734-6.04297-3.76953-9.25391-.004-27.01562-3.53516-30.16015-4.24219-30.51562l-.11328.0859-.17578-.0391c-2.51953 1.10157-2.65625 9.86328-2.78906 18.33594-.0977 6.21484-.20703 13.25781-1.11328 19.84766-1.17578 8.54297-2.58594 10.20703-4.36328 10.08984-4.08204-.27734-4.19922-14.30859-4.19922-15.90625 0-.5.0156-1.08984.0312-1.74219.0781-3.26562.21875-9.33984-1.78907-11.2539-.26562-.25391-.64062-.54688-.93359-.46485-1.42969.35938-2.91797 5.00391-3.40234 6.53125-.15625.48047-.28907.88282-.38672 1.15625-.0859.22266-.19141.54297-.31641.92969-1.08203 3.28516-2.3125 6.56641-4.41015 7.375-.78125.30078-1.59766.23438-2.35547-.19531-1.01172-.57422-1.83985-1.7461-2.60547-3.69531-.42188-1.07813-.78516-2.17188-1.14844-3.26954-.44531-1.33984-.90625-2.72656-1.47265-4.04296-.44141-1.02344-1.55469-1.48438-2.96875-1.23438-3.38282.60156-4.1836 4.79688-4.82813 9.80469l-.11328.89062-2.55859-.33984.12109-.875c.55859-4.39063 1.41016-11.02734 6.92969-12.00391 2.59765-.46093 4.86718.61719 5.78125 2.74219.61328 1.42188 1.09375 2.85938 1.55468 4.25391.34375 1.05078.69532 2.10156 1.10157 3.14062.71484 1.8125 1.26953 2.28125 1.47656 2.39453 1.29297-.40234 2.61328-4.42187 3.05078-5.74609.13672-.42578.25391-.77734.34766-1.02734.0898-.2461.20703-.60547.34765-1.03907 1.16407-3.64062 2.625-7.58203 5.21875-8.23828.79297-.20312 2.01953-.17578 3.35156 1.09766 2.82813 2.69922 2.67969 9 2.58204 13.17187-.0156.625-.0312 1.19532-.0312 1.67969 0 6.65625.98828 11.30859 1.74218 12.90625.39063-.81641 1.0586-2.79297 1.69532-7.4375.88281-6.4375.99609-13.39844 1.08984-19.53906.17187-10.86719.29297-18.7461 4.22656-20.59766.58594-.35937 1.5586-.55469 2.58594-.0352 3.80469 1.91406 5.65234 12.61328 5.65234 32.70703.23828 3.10547 1.07422 6.375 1.76172 6.84375.004-.0703.5625-.41407 1.48047-2.13282.98047-1.82421 1.95703-7.07421 2.81641-11.70312 1.90234-10.20313 2.76562-13.78516 5.01562-13.97266 1.71485-.16797 2.50781 2.01172 2.83985 2.92969.9375 2.57031 1.63281 8.37109 2.36718 14.51563.57422 4.76562 1.39063 11.57031 2.22266 14.32421.0898-.24218.19141-.53125.30078-.88671 1.92578-6.23829 2.10156-18.98438 2.26953-31.31641.23438-17.12891.53516-27.74219 3.66016-29.95703.69531-.49219 1.54297-.61328 2.37109-.33594 3.66016 1.21484 3.94141 11.94531 3.73438 37.99609-.14844 18.89063-.33203 42.40235 3.52734 46.27735.33594.33984.57422.33984.66016.33984.17968 0 .4375-.17187.71093-.48047 3.90625-4.41797 6.37891-27.61718 3.57813-49.80468-.34766-2.76172.71875-5.66407 2.53906-6.91407 1.00391-.6914 2.16016-.78125 3.16016-.24609 2.27734 1.21094 3.38281 5.33203 3.29297 12.25391-.16016 12.08593 2.74218 26.23046 4.63672 28.48828.30078-.5.89453-1.8711 1.46484-5.46094.32031-1.98438.84766-8.65234.85547-8.71875.0937-.75391.16406-1.48438.23047-2.22656.39062-4.16407.87109-9.34375 5.95703-10.2461 2.59375-.46093 4.86328.61328 5.78125 2.74219.61328 1.42188 1.08984 2.85938 1.55078 4.25391.35156 1.05078.70312 2.10156 1.10937 3.14062.71094 1.8125 1.26954 2.28125 1.47266 2.39453 1.29297-.40234 2.61719-4.42187 3.05078-5.74218.14063-.42579.25781-.78125.34766-1.03125.0937-.24219.20703-.60547.34375-1.03907 1.16797-3.64062 2.6289-7.58203 5.22656-8.23828.78516-.20312 2.01563-.17578 3.34766 1.09766 2.82812 2.69922 2.67968 9 2.58593 13.17187-.0195.625-.0352 1.19532-.0352 1.67969 0 6.65625.98828 11.30859 1.74219 12.90625.38671-.81641 1.05468-2.79297 1.69921-7.4375.88282-6.4375.98829-13.39844 1.08985-19.53906.16797-10.86719.28906-18.7461 4.22265-20.59766.58594-.35937 1.5586-.55469 2.58985-.0352 3.80078 1.91406 5.65234 12.61328 5.65234 32.70703.23828 3.10547 1.07422 6.375 1.75781 6.84375.008-.0703.5586-.41407 1.48438-2.13282.98047-1.82421 1.95312-7.07421 2.81641-11.70312 1.89453-10.20313 2.76171-13.78516 5.01171-13.97266 1.71875-.16797 2.51172 2.01172 2.84375 2.92969.9336 2.57031 1.62891 8.37109 2.3711 14.51563.5664 4.76562 1.38281 11.57031 2.21875 14.32421.0859-.24218.1875-.53125.29687-.88671 1.92578-6.23829 2.09766-18.98438 2.26953-31.31641.23047-17.12891.53516-27.74219 3.66016-29.95703.69922-.49219 1.54297-.61328 2.37109-.33594 3.66407 1.21484 3.94532 11.94531 3.73438 37.99609-.14844 18.89063-.33203 42.40235 3.52344 46.27735.34375.33984.57812.33984.66797.33984.17578 0 .43359-.17187.70312-.48047 3.91406-4.41797 6.38281-27.61718 3.58203-49.80468-.36328-2.89063.45703-5.80469 1.95313-6.92579.7539-.57031 1.67187-.6875 2.51562-.33203 2.17969.92969 3.65625 4.91407 4.51563 12.1875.35937 3.04688.67968 6.33985.98828 9.58985.67969 7.09375 1.60156 16.65234 2.84765 18.7539.38282-.48828 1.16407-1.80859 2.32422-5.34765l2.44922.80078c-1.80078 5.47265-3.21094 7.53515-5.04687 7.32422-2.85547-.31641-3.67969-6.08594-5.13672-21.28516-.3086-3.23437-.625-6.50781-.98438-9.53906-1.09375-9.27735-2.95312-10.11719-2.97265-10.125-.36328.18359-1.20703 2.11328-.89453 4.57422 2.71484 21.5664.71484 46.26953-4.20704 51.82812-.79296.89453-1.68359 1.34766-2.63671 1.34766" fill="#fff"/></g></svg>