<svg xmlns="http://www.w3.org/2000/svg" viewBox="0 0 128 128"><path fill="#284e64" d="m72.347 76.92.01-.066 4.103-24.015zm29.629-24.14L88.667 76.842l13.315-24.057 14.544-26.382zm.453-47.19-4.272 7.81zM22.26 46.707l16.317-17.542zm3.47 6.347 18.027-14.32zm0 0-1.205-2.208 1.206 2.208 12.824 23.534zm4.503-8.353L38.58 29.2l15.242 28.053-15.24-28.07L25.673 5.59l12.903 23.599zm37.564 38.29.054.11 2.416 4.445zM84.85 37.598l-8.4 15.205-9.348 17.204 9.348-17.2zm0 0"/><path fill="#f16827" d="m51.367 100.218 12.129 22.217 6.671-34.312zm0 0"/><path fill="#f48029" d="m70.272 87.575-10.7-19.67-8.205 32.313 18.8-12.095zm0 0"/><path fill="#f89a2e" d="m38.548 76.59 12.814 23.628 8.21-32.312zm0 0"/><path fill="#f16827" d="m38.548 76.59 21.024-8.69L43.76 38.73zm0 0"/><path fill="#f89921" d="m72.347 76.92 4.113-24.08-12.546 23.065 6.352 11.669zm0 0"/><path fill="#f89a2e" d="m25.73 53.054 12.82 23.535 5.209-37.849zm0 0"/><path fill="#f48029" d="m88.657 76.841 13.319-24.06-29.62 24.071zm0 0"/><path fill="#f4ae5c" d="M38.58 29.198 25.73 53.053l18.027-14.318zm33.78 47.654 17.067-47.506-12.965 23.493zm0 0"/><path fill="#cd4e27" d="m25.73 53.054 12.85-23.856-16.326 17.517 2.275 4.133zm0 0"/><path fill="#f16938" d="M101.97 52.78 89.42 29.346 72.36 76.852zm-79.71-6.072 16.317-17.542-12.91-23.601-3.412 41.121zm0 0"/><path fill="#f89a2e" d="m101.97 52.78.464-47.19-13.009 23.756zM25.668 5.584H0l22.26 41.124zm0 0"/><path fill="#cd4e27" d="m102.434 5.59-.464 47.19L128 5.584zM72.357 76.852l-.01.067-8.852 45.512 25.168-45.585zm0 0"/></svg>