<svg xmlns="http://www.w3.org/2000/svg" xmlns:xlink="http://www.w3.org/1999/xlink" width="18" height="18" viewBox="0 0 18 18">
  <defs>
    <mask id="ko">
      <rect width="18" height="18" fill="white"/>
      <path fill="black" d="M15.48.65H2.56a.58.58 0 0 0-.56.58v3.65a.58.58 0 0 0 .57.58h12.91a.57.57 0 0 0 .57-.58V1.23a.57.57 0 0 0-.57-.58"/>
      <path fill="black" d="M15.44 7.17H2.52a.57.57 0 0 0-.52.57v3.66a.56.56 0 0 0 .57.57h12.87a.57.57 0 0 0 .56-.57V7.74a.58.58 0 0 0-.56-.57"/>
      <rect fill="black" x="13.72" y="1.55" width="1.05" height="1.05"/>
      <rect fill="black" x="13.72" y="3.36" width="1.05" height="1.05"/>
      <rect fill="black" x="13.72" y="8.04" width="1.05" height="1.05"/>
      <rect fill="black" x="13.72" y="9.85" width="1.05" height="1.05"/>
      <circle fill="black" cx="9.06" cy="15.84" r="1.51"/>
      <circle fill="black" cx="9.02" cy="15.83" r="1.51"/>
    </mask>
  </defs>
  <g>
    <path fill="currentColor" mask="url(#ko)" d="M8.46 5.46h1v9.6h-1z"/>
  </g>
</svg>