<svg xmlns="http://www.w3.org/2000/svg" width="18" height="18" viewBox="0 0 18 18"><defs><mask id="a"><path fill="#fff" d="M0 0h18v18H0z"/><path d="M15.48.65H2.56a.58.58 0 0 0-.56.58v3.65a.58.58 0 0 0 .57.58h12.91a.57.57 0 0 0 .57-.58V1.23a.57.57 0 0 0-.57-.58"/><path d="M15.44 7.17H2.52a.57.57 0 0 0-.52.57v3.66a.56.56 0 0 0 .57.57h12.87a.57.57 0 0 0 .56-.57V7.74a.58.58 0 0 0-.56-.57"/><path d="M13.72 1.55h1.05V2.6h-1.05z"/><path d="M13.72 3.36h1.05v1.05h-1.05z"/><path d="M13.72 8.04h1.05v1.05h-1.05z"/><path d="M13.72 9.85h1.05v1.05h-1.05z"/><circle cx="9.06" cy="15.84" r="1.51"/><circle cx="9.02" cy="15.83" r="1.51"/></mask></defs><path fill="currentColor" d="M8.46 5.46h1v9.6h-1z" mask="url(#a)"/></svg>