<svg height="18" viewBox="0 0 18 18" width="18" xmlns="http://www.w3.org/2000/svg" xmlns:xlink="http://www.w3.org/1999/xlink"><linearGradient id="a"><stop offset="0" stop-color="#198ab3"/><stop offset="1" stop-color="#32d4f5"/></linearGradient><linearGradient id="b" gradientUnits="userSpaceOnUse" x1="9.02" x2="9.02" xlink:href="#a" y1="5.46" y2=".65"/><linearGradient id="c" gradientUnits="userSpaceOnUse" x1="8.98" x2="8.98" xlink:href="#a" y1="11.97" y2="7.17"/><linearGradient id="d" gradientUnits="userSpaceOnUse" x1="9.02" x2="9.02" xlink:href="#a" y1="17.34" y2="14.32"/><path d="m8.46 5.46h1v9.6h-1z" fill="#32bedd"/><path d="m15.48.65h-12.92a.58.58 0 0 0 -.56.58v3.65a.58.58 0 0 0 .57.58h12.91a.57.57 0 0 0 .57-.58v-3.65a.57.57 0 0 0 -.57-.58" fill="url(#b)"/><path d="m15.44 7.17h-12.92a.57.57 0 0 0 -.52.57v3.66a.56.56 0 0 0 .57.57h12.87a.57.57 0 0 0 .56-.57v-3.66a.58.58 0 0 0 -.56-.57" fill="url(#c)"/><circle cx="9.06" cy="15.84" fill="#7fba00" r="1.51"/><circle cx="9.02" cy="15.83" fill="url(#d)" r="1.51"/><g fill="#b4ec36"><g><rect height="1.05" rx=".15" width="1.05" x="13.72" y="1.55"/><rect height="1.05" rx=".15" width="1.05" x="13.72" y="3.36"/></g><g><rect height="1.05" rx=".15" width="1.05" x="13.72" y="8.04"/><rect height="1.05" rx=".15" width="1.05" x="13.72" y="9.85"/></g></g></svg>