<svg viewBox="0 0 162 48.7" xmlns="http://www.w3.org/2000/svg"><g fill="#01426a"><path d="m78 2.4-18.1 30.4c-2 3.1-2.9 6.3-3.1 9.4h-7.1c.4-3.9 2-7.5 5.1-12.8l12.8-21.2c2.4-4.5 4.9-5.9 9.4-5.9h1zm-1.4 32c-1.4 1.2-3.9 3.1-6.1 3.1-1.6 0-1.6-1.4-.6-3.3 3.9-7.3 7.9-11.2 12.8-11.2h1zm6.7-15.7c-9.2 0-14.9 5.3-19.8 17.1-1.2 2.9-2 6.7 2.4 6.5 2.4 0 6.5-1.4 9.4-3.3-.2 1-.4 2.4-.2 3.1h6.5c.2-2.6 1.2-5.7 3.3-9.4l8-13.7c-3.3-.1-6.5-.3-9.6-.3m59.7 15.7c-1.4 1.2-3.9 3.1-6.1 3.1-1.6 0-1.6-1.4-.6-3.3 3.9-7.3 7.9-11.2 12.8-11.2h1zm6.6-15.7c-9.2 0-14.9 5.3-19.8 17.1-1.2 2.9-2 6.7 2.4 6.5 2.4 0 6.5-1.4 9.4-3.3-.2 1-.4 2.4-.2 3.1h6.5c.2-2.6 1.2-5.7 3.3-9.4l7.9-13.4c-3.2-.4-6.3-.6-9.5-.6"/><path d="m128.6 48.7h-2.2c-2.7 0-5.1-1.8-5.9-4.5l-3.1-12.2-6.1 10h-6.9l19.2-32.6c2.6-4.1 5.1-5.7 9.6-5.7h.8l-12.8 21.6 9.6-6.7h7.7l-16.1 11.2zm-63.2-48.3c-6.5 0-9.8 1.8-16.1 6.3l-21.6 15.5h-14c-3.9 0-7.3.2-9.6 2.6l-3.5 3.3s10.4-.4 20-.8l-20.6 14.7h8.8l21-15.1c4.1-.2 6.9-.2 6.9-.2 4.9-.2 7.7-4.5 7.7-4.5h-8.1l17.1-12.4-12.6 20.4c-2.7 4.7-3.9 8.1-4.5 11.6h7.3c.2-3.1 1.4-6.3 3.1-9.4l17.3-28.9c1.2-2 2.2-3.5 2.2-3.5zm34.2 24.9c0 .6.2 1 1.4 1.8l2 1.4c2.2 1.4 2.9 3.5 2.7 5.3-.8 4.9-4.3 8.6-11.8 8.6-3.3 0-4.7-.2-8.6-.8l2.9-4.9c2.7.4 4.3.8 6.3.8 2.7 0 3.9-1.4 4.1-2.4 0-.6-.2-1.4-1.6-2.4l-1.6-1.2c-2.6-1.8-3.1-3.1-2.7-5.5.6-4.3 5.5-7.5 12.4-7.5 2.2 0 4.5.2 7.1.4l-2.7 4.7c-1.8-.2-4.5-.2-6.3-.2-2.1.2-3.4 1-3.6 1.9m58.9 9.9c2 0 3.5 1.6 3.5 3.7 0 2-1.6 3.7-3.5 3.7s-3.5-1.6-3.5-3.7c-.1-2 1.5-3.7 3.5-3.7m0 6.6c1.6 0 2.7-1.2 2.7-2.9 0-1.6-1.2-2.9-2.7-2.9-1.6 0-2.7 1.2-2.7 2.9-.1 1.6 1.1 2.9 2.7 2.9m-.4-1h-.8v-3.9h1.4c.8 0 1.4.6 1.4 1.2s-.4 1-.8 1.2l1 1.6h-1.2l-.8-1.6h-.4v1.6h.2zm.4-2.1c.4 0 .8-.2.8-.6s-.2-.6-.8-.6h-.6v1.2z"/></g></svg>