<svg xmlns="http://www.w3.org/2000/svg" width="18" height="18" viewBox="0 0 18 18"><defs><mask id="a"><path fill="#fff" d="M0 0h18v18H0z"/><path d="M15.257 12.903h-.685a.404.404 0 0 0 0 .809h1.483a.404.404 0 0 0 .404-.404v-1.752a.405.405 0 0 0-.809-.013v.417a2.7 2.7 0 0 0-2.157-1.078 2.65 2.65 0 0 0-2.063.955.405.405 0 0 0 .622.517c.356-.427.886-.67 1.441-.663.783 0 1.484.482 1.764 1.213zm-3.92 2.696v-.404a2.7 2.7 0 0 0 4.217.128.404.404 0 1 0-.616-.524 1.893 1.893 0 0 1-3.15-.413h.627a.405.405 0 0 0 .013-.809h-1.496a.404.404 0 0 0-.404.404v1.618a.405.405 0 0 0 .809.013z"/></mask></defs><g fill="currentColor" mask="url(#a)"><path d="M17.986 8.75a4.034 4.034 0 0 0-3.504-3.88A5.09 5.09 0 0 0 9.24.002a5.22 5.22 0 0 0-4.988 3.402A4.82 4.82 0 0 0 .014 8.046a4.89 4.89 0 0 0 5.062 4.694c.15 0 .303-.007.445-.019h8.195a.8.8 0 0 0 .216-.032 4.085 4.085 0 0 0 4.054-3.938z"/><path d="M9.851 17.572a.45.45 0 0 1-.472.427h-7.24a.45.45 0 0 1-.472-.427V5.821a.45.45 0 0 1 .472-.427h7.24a.45.45 0 0 1 .472.427z"/><path d="M2.87 10.786a.937.937 0 0 1 .889-.98h4.073a.94.94 0 0 1 .889.98.94.94 0 0 1-.889.98H3.759a.936.936 0 0 1-.889-.98m0-2.915a.937.937 0 0 1 .889-.98h4.073a.94.94 0 0 1 .889.98.94.94 0 0 1-.889.98H3.759a.936.936 0 0 1-.889-.98"/><circle cx="4.014" cy="7.871" r=".658"/><circle cx="4.014" cy="10.783" r=".658"/><circle cx="13.493" cy="13.507" r="4.493"/></g></svg>