<svg xmlns="http://www.w3.org/2000/svg" width="18" height="18" viewBox="0 0 18 18"><path fill="currentColor" d="M8.617 8.644H.639v-6.86A1.16 1.16 0 0 1 1.788.624h6.829zM1.63 7.653h6V1.594H1.788a.16.16 0 0 0-.158.158zm15.87.991H9.523V.624h6.828a1.16 1.16 0 0 1 1.149 1.16zm-6.987-.991h6V1.784a.157.157 0 0 0-.123-.187h-5.877zm-1.896 9.832H1.788a1.15 1.15 0 0 1-1.149-1.138V9.476h7.978zM1.63 10.467v5.88a.16.16 0 0 0 .158.158h5.838v-6.038zm14.721 7.018H9.523V9.476H17.5v6.871a1.15 1.15 0 0 1-1.149 1.138m-5.838-.991h5.838a.157.157 0 0 0 .158-.158v-5.869h-6z"/><path fill="currentColor" d="M14.6 6.294a.29.29 0 0 0-.2-.278L9.044 4.205A.1.1 0 0 0 9 4.2a.13.13 0 0 0-.133.133v9.445a.133.133 0 0 0 .133.133.1.1 0 0 0 .049-.01l5.365-2.145a.29.29 0 0 0 .184-.272z"/><path fill="currentColor" d="m8.966 4.2-5.293.966a.16.16 0 0 0-.13.158v7.306a.16.16 0 0 0 .126.157l5.293 1.123a.16.16 0 0 0 .191-.121V4.358A.16.16 0 0 0 9 4.2z"/><path fill="currentColor" d="M6.52 5.656v6.8l1.842.3V5.335zm-2.262.367v5.955l1.6.326v-6.55z" opacity=".5"/></svg>