<svg height="48" viewBox="0 0 48 48" width="48" xmlns="http://www.w3.org/2000/svg"><path d="m25 27h2v-7h-2zm-4-5v-5h2v10h-2zm-4 5h2v-4h-2zm11 2a1 1 0 0 0 1-1v-9a1 1 0 0 0 -1-1h-3v-2a1 1 0 0 0 -1-1h-4a1 1 0 0 0 -1 1v5h-3a1 1 0 0 0 -1 1v6a1 1 0 0 0 1 1zm11.37-11.737 1.93-.526c.465 1.707.7 3.478.7 5.263 0 2.545-.472 5.025-1.401 7.369l-1.86-.738a17.9 17.9 0 0 0 1.261-6.631c0-1.607-.212-3.202-.63-4.737m-10.738 21.476.736 1.86a19.9 19.9 0 0 1 -7.368 1.401 19.98 19.98 0 0 1 -16.301-8.42l-.354 1.615-1.953-.429.925-4.217a.997.997 0 0 1 1.192-.762l4.218.926-.43 1.953-2.119-.465a17.98 17.98 0 0 0 14.822 7.799 17.9 17.9 0 0 0 6.632-1.261m-24.002-12.002-1.93.526a20 20 0 0 1 -.7-5.263c0-11.028 8.972-20 20-20a19.98 19.98 0 0 1 16.301 8.419l.354-1.614 1.953.429-.925 4.217a1 1 0 0 1 -1.192.762l-4.218-.926.43-1.953 2.119.465a17.98 17.98 0 0 0 -14.822-7.799c-9.925 0-18 8.075-18 18 0 1.607.212 3.202.63 4.737m38.641 16.488c-.942.941-2.592.941-3.534 0l-9.746-9.746a14.1 14.1 0 0 0 3.527-3.539l9.753 9.752a2.503 2.503 0 0 1 0 3.533m-33.271-21.225c0-6.617 5.383-12 12-12s12 5.383 12 12-5.383 12-12 12-12-5.383-12-12m34.685 16.278-10.128-10.127a13.9 13.9 0 0 0 1.443-6.151c0-7.72-6.28-14-14-14s-14 6.28-14 14 6.28 14 14 14c2.232 0 4.337-.539 6.212-1.472l10.111 10.111a4.47 4.47 0 0 0 3.181 1.316 4.47 4.47 0 0 0 3.181-1.316 4.504 4.504 0 0 0 0-6.361" fill="#8c4fff" fill-rule="evenodd"/></svg>