<svg viewBox="0 0 128 128" xmlns="http://www.w3.org/2000/svg" xmlns:xlink="http://www.w3.org/1999/xlink"><linearGradient id="a" gradientUnits="userSpaceOnUse" x1="64.002785" x2="64.002785" y1="-7.311837" y2="126.889535"><stop offset="0" stop-color="#ffd200"/><stop offset=".08" stop-color="#ffb500"/><stop offset=".2" stop-color="#ff8c00"/><stop offset=".3" stop-color="#ff7300"/><stop offset=".36" stop-color="#ff6a00"/><stop offset=".48" stop-color="#fc4f0e"/><stop offset=".65" stop-color="#f92f1e"/><stop offset=".79" stop-color="#f81b27"/><stop offset=".89" stop-color="#f7142b"/><stop offset="1" stop-color="#df162e"/></linearGradient><path d="m64.012 0c-1.617 0-3.227.078-4.825.2v127.624c1.594.117 3.196.2 4.817.203h.023c1.614 0 3.211-.086 4.79-.199v-127.628a62.973 62.973 0 0 0 -4.806-.2zm27.515 6.23c-9.367 21.11-15.167 43.56-15.167 57.696 0 13.68 6.282 36.379 15.82 57.601a64.209 64.209 0 0 0 8.407-4.968c-8.832-19.864-14.59-40.625-14.59-52.657 0-12.457 5.555-33.175 14.113-52.757a64.114 64.114 0 0 0 -8.582-4.915zm-55.191.04a64.114 64.114 0 0 0 -8.457 4.894c8.574 19.566 14.121 40.29 14.121 52.738 0 12.028-5.762 32.782-14.59 52.625a64.62 64.62 0 0 0 8.406 4.965c9.547-21.215 15.813-43.898 15.813-57.59 0-14.207-6.031-36.785-15.293-57.632zm80.207 21.16-1.379 1.375c-14.613 14.754-21.676 26.246-21.59 35.117.086 8.867 7.106 20.324 21.489 34.789l1.652 1.644a64.618 64.618 0 0 0 4.996-8.601c-9.953-10.102-18.441-21.008-18.508-27.918-.062-6.738 8.375-17.645 18.383-27.856a63.693 63.693 0 0 0 -5.043-8.55zm-105.059.023a64.028 64.028 0 0 0 -5.054 8.574c16.664 16.93 18.418 25.094 18.398 27.832-.062 6.938-8.555 17.817-18.512 27.895a64.432 64.432 0 0 0 5.008 8.578c.567-.566 1.106-1.086 1.653-1.64 14.37-14.465 21.394-25.833 21.476-34.766.086-8.93-6.976-20.317-21.586-35.098zm0 0" fill="url(#a)"/></svg>