<svg xmlns="http://www.w3.org/2000/svg" width="64" height="64" viewBox="0 0 64 64"><title>Icon-Architecture/48/Arch_Amazon-MemoryDB-for-Redis_48</title><g id="Icon-Architecture/48/Arch_Amazon-MemoryDB-for-Redis_48" fill="none" fill-rule="evenodd" stroke="none" stroke-width="1"><g id="Icon-Architecture-BG/48/Database" fill="#c925d1"><path id="Rectangle" d="M0 0h64v64H0z"/></g><g id="Icon-Service/48/Amazon-MemoryDB-for-Redis_48" fill="#fff" transform="translate(10 10)"><path id="Fill-4" d="M14.887 10.199c-7.567 0-12.841-2.161-12.841-4.1S7.32 2 14.887 2C22.369 2 27 4.128 27 6.099s-4.631 4.1-12.113 4.1M7.653 32.362l1.767.937c3.469-6.549 10.213-10.617 17.601-10.617 1.492 0 2.98.167 4.423.496l.443-1.951A22 22 0 0 0 29 20.78V5.899h-.019C28.774 2.363 23.171 0 14.887 0 7.639 0 .32 2.028.07 5.899H0v31.785c0 2.352 2.494 4.237 7.025 5.307l.459-1.947C4.153 40.258 2 38.939 2 37.684v-7.079c1.017.736 2.399 1.368 4.155 1.856l.535-1.927c-2.865-.795-4.644-1.992-4.644-3.122H2v-7.165c2.533 1.854 7.176 2.861 11.8 3.053l.082-1.998c-7.31-.304-11.836-2.478-11.836-4.319H2V9.286c2.7 1.922 7.815 2.913 12.887 2.913 5.466 0 9.758-1.032 12.113-2.747v11.231c-8.122.008-15.534 4.481-19.347 11.679m29.539-6.879a20 20 0 0 0-3.98-1.815l.623-1.901c1.525.5 2.998 1.173 4.382 1.999zM29.84 41.899a5.15 5.15 0 0 0-.929-2.129l8.496-8.034c2.65 2.635 4.315 6.324 4.561 10.163zm-5.103-2.26a3.19 3.19 0 0 1 3.041 2.26h-6.084c.404-1.304 1.608-2.26 3.043-2.26m14.119-9.273 2.732-2.583-1.375-1.453-12.781 12.085a5.14 5.14 0 0 0-2.695-.776c-2.546 0-4.661 1.842-5.105 4.26h-8.349c.508-8.141 7.196-14.606 15.342-14.606 2.211 0 4.345.459 6.342 1.364l.826-1.821a17.2 17.2 0 0 0-7.168-1.543c-9.58 0-17.374 7.898-17.374 17.606v1H44v-1c0-4.693-1.92-9.301-5.144-12.533"/></g></g></svg>