<svg height="48" viewBox="0 0 48 48" width="48" xmlns="http://www.w3.org/2000/svg"><path d="m24 20.768c-3.722 0-6-1.295-6-2v-.104c0-.558 1.727-1.896 6-1.896s6 1.338 6 1.896v.104c0 .705-2.278 2-6 2m.008 12.994h-.016c-2.893-.022-5.992-.734-5.992-1.762v-10.5c1.541.838 3.778 1.268 6 1.268s4.459-.43 6-1.268v10.5c0 1.028-3.099 1.74-5.992 1.762m-.008-18.994c-4.785 0-8 1.566-8 3.896v13.336c0 3.437 6.106 3.748 7.987 3.762h.035c1.872-.014 7.978-.325 7.978-3.762v-13.336c0-2.33-3.215-3.896-8-3.896m18 6.232c-1.103 0-2-.897-2-2s.897-2 2-2 2 .897 2 2-.897 2-2 2m-7.704 16.03c-.1-.007-.195-.03-.296-.03-1.859 0-3.411 1.28-3.858 3h-12.284c-.447-1.72-1.999-3-3.858-3-.101 0-.196.023-.296.03l-5.509-14.692a4 4 0 0 0 1.805-3.338c0-.49-.101-.953-.262-1.386l12.074-8.272a3.97 3.97 0 0 0 4.376 0l12.074 8.272a4 4 0 0 0 -.262 1.386c0 1.395.72 2.622 1.805 3.338zm-.296 5.97c-1.103 0-2-.897-2-2s.897-2 2-2 2 .897 2 2-.897 2-2 2m-20 0c-1.103 0-2-.897-2-2s.897-2 2-2 2 .897 2 2-.897 2-2 2m-10-24c0-1.103.897-2 2-2s2 .897 2 2-.897 2-2 2-2-.897-2-2m20-15c1.103 0 2 .897 2 2s-.897 2-2 2-2-.897-2-2 .897-2 2-2m18 11a3.96 3.96 0 0 0 -2.588.976l-11.88-8.138a3.95 3.95 0 0 0 .468-1.838c0-2.205-1.794-4-4-4s-4 1.795-4 4c0 .666.179 1.285.468 1.838l-11.88 8.138a3.96 3.96 0 0 0 -2.588-.976c-2.206 0-4 1.795-4 4s1.794 4 4 4c.101 0 .196-.022.296-.03l5.509 14.693a4 4 0 0 0 -1.805 3.337c0 2.206 1.794 4 4 4 1.859 0 3.411-1.28 3.858-3h12.284c.447 1.72 1.999 3 3.858 3 2.206 0 4-1.794 4-4 0-1.394-.72-2.621-1.805-3.337l5.509-14.692c.1.007.195.029.296.029 2.206 0 4-1.794 4-4s-1.794-4-4-4" fill="#7aa116" fill-rule="evenodd"/></svg>