<svg fill="#3da639" viewBox="0 0 24 24" xmlns="http://www.w3.org/2000/svg"><path d="m11.959.447a11.94 11.94 0 0 0 -11.959 11.96c0 5.576 3.874 10.097 7.783 11.114.193.05.392-.05.467-.234l2.771-6.822a.396.396 0 0 0 -.246-.528c-1.41-.467-2.245-1.617-2.295-3.537-.024-1.828 1.5-3.45 3.561-3.447 1.931.003 3.479 1.632 3.479 3.453 0 .966-.203 1.687-.575 2.238-.371.552-.922.951-1.695 1.239a.396.396 0 0 0 -.23.515l2.685 6.903a.396.396 0 0 0 .465.24c3.993-1.007 7.83-5.479 7.83-11.135 0-6.602-5.397-11.959-12.041-11.959m0 .791c6.22 0 11.25 4.997 11.25 11.168 0 5.138-3.423 9.208-6.895 10.272l-2.414-6.208c.703-.308 1.302-.79 1.702-1.384.477-.708.709-1.602.709-2.68 0-2.266-1.898-4.24-4.27-4.244-2.48-.004-4.382 1.976-4.352 4.25.023 1.995.934 3.492 2.451 4.13l-2.492 6.118c-3.397-1.068-6.857-5.202-6.857-10.254a11.13 11.13 0 0 1 11.168-11.168m10.617 20.149a1.03 1.03 0 0 0 0 2.058 1.03 1.03 0 0 0 0-2.058m0 .162c.48 0 .865.388.865.867a.86.86 0 0 1 -.271.623l-.172-.342a1 1 0 0 0 -.111-.178.26.26 0 0 0 -.114-.084.3.3 0 0 0 .17-.117.36.36 0 0 0 .061-.21q0-.195-.113-.292-.114-.096-.346-.095h-.41v1.343h.181v-.568h.2q.107 0 .17.045a.5.5 0 0 1 .129.18l.171.343.157.001a.88.88 0 0 1 -.567.216.865.865 0 0 1 0-1.732m-.26.322h.229q.132-.001.2.059.066.06.066.177 0 .12-.067.18-.066.06-.2.06h-.228z"/></svg>