<svg viewBox="0 0 24 24" xmlns="http://www.w3.org/2000/svg"><path d="m22.549 9.604a10.462 10.462 0 0 0 -3.388-6.838 10.632 10.632 0 0 0 -7.161-2.766 10.64 10.64 0 0 0 -7.16 2.764 10.465 10.465 0 0 0 -3.428 7.74c0 2.371.81 4.672 2.298 6.529a10.617 10.617 0 0 0 5.895 3.698l2.395 3.269 2.395-3.27a10.593 10.593 0 0 0 5.895-3.697 10.442 10.442 0 0 0 2.26-7.43zm-11.306 6.28a.26.26 0 0 1 -.034.125.254.254 0 0 1 -.347.092l-3.906-2.237a1.005 1.005 0 0 1 -.505-.865v-4.375a.26.26 0 0 1 .033-.126.254.254 0 0 1 .347-.092l3.907 2.237c.152.089.281.214.368.366.09.151.135.324.135.5v4.372zm.757-6.404c-.176 0-.35-.047-.503-.133l-3.997-2.29a.241.241 0 0 1 -.09-.092.249.249 0 0 1 .09-.342l3.997-2.289a1.025 1.025 0 0 1 1.007 0l3.996 2.29a.24.24 0 0 1 .09.092.247.247 0 0 1 0 .25.271.271 0 0 1 -.09.092l-3.997 2.289a1.005 1.005 0 0 1 -.503.133zm5.546 3.52a.996.996 0 0 1 -.503.866l-3.908 2.237a.254.254 0 0 1 -.38-.218v-4.375c0-.175.047-.348.135-.501.089-.152.216-.28.368-.366l3.907-2.238a.254.254 0 0 1 .38.219z"/></svg>