<svg height="18" viewBox="0 0 18 18" width="18" xmlns="http://www.w3.org/2000/svg" xmlns:xlink="http://www.w3.org/1999/xlink"><linearGradient id="a" gradientTransform="matrix(.5 0 0 -.5 -2275.31 -2589.32)" gradientUnits="userSpaceOnUse" x1="4589.72" x2="4589.72" y1="-5180.02" y2="-5184.21"><stop offset="0" stop-color="#c69aeb"/><stop offset="1" stop-color="#6f4bb2"/></linearGradient><path d="m12.7 8.15v-.6h-4.52l-2.12 2.11h-1.56l3.62-3.66h2.47v-.57h-2.72l-4.22 4.23h-.6v.6h1.81l2.14 2.11h5.1v-.6h-4.88l-1.51-1.51h3.67v-.6h-2.46l1.5-1.51z" fill="#32bedd"/><g fill="#fff"><circle cx="9.98" cy="9.96" r=".87"/><circle cx="10.89" cy="5.74" r=".87"/><circle cx="13" cy="7.85" r=".87"/><circle cx="12.1" cy="12.07" r=".87"/></g><circle cx="10.86" cy="5.74" fill="#50e6ff" r="1.05"/><circle cx="12.97" cy="7.85" fill="url(#a)" r="1.05"/><circle cx="12.1" cy="12.07" fill="none" r="1.05"/><circle cx="9.98" cy="9.96" fill="#50e6ff" r="1.05"/><g fill="#999"><path d="m1.07 1.43h1.29v3.57a.29.29 0 0 1 -.29.29h-1.28a.29.29 0 0 1 -.29-.29v-3a.57.57 0 0 1 .57-.57"/><path d="m1.07 1.43h1.29v3.57a.29.29 0 0 1 -.29.29h-1.28a.29.29 0 0 1 -.29-.29v-3a.57.57 0 0 1 .57-.57" opacity=".5"/></g><g fill="#999"><path d="m15.64 1.43h1.29a.57.57 0 0 1 .57.57v3a.29.29 0 0 1 -.29.29h-1.29a.29.29 0 0 1 -.28-.29z"/><path d="m15.64 1.43h1.29a.57.57 0 0 1 .57.57v3a.29.29 0 0 1 -.29.29h-1.29a.29.29 0 0 1 -.28-.29z" opacity=".5"/></g><path d="m17.5 2v1.25h-17v-1.25a.57.57 0 0 1 .57-.57h15.87a.57.57 0 0 1 .56.57" fill="#949494"/><g fill="#999"><path d="m.79 12.68h1.29a.29.29 0 0 1 .29.29v3.6h-1.3a.57.57 0 0 1 -.57-.57v-3a.29.29 0 0 1 .29-.32"/><path d="m.79 12.68h1.29a.29.29 0 0 1 .29.29v3.6h-1.3a.57.57 0 0 1 -.57-.57v-3a.29.29 0 0 1 .29-.32" opacity=".5"/></g><g fill="#999"><path d="m15.92 12.68h1.29a.29.29 0 0 1 .29.29v3a.57.57 0 0 1 -.57.57h-1.29v-3.54a.29.29 0 0 1 .28-.32"/><path d="m15.92 12.68h1.29a.29.29 0 0 1 .29.29v3a.57.57 0 0 1 -.57.57h-1.29v-3.54a.29.29 0 0 1 .28-.32" opacity=".5"/></g><path d="m.5 16v-1.25h17v1.25a.57.57 0 0 1 -.57.57h-15.86a.57.57 0 0 1 -.57-.57" fill="#949494"/></svg>