<svg viewBox="0 0 24 24" xmlns="http://www.w3.org/2000/svg"><path d="m12.034 8.208c-2.003 0-3.627 1.696-3.627 3.789s1.624 3.789 3.627 3.789 3.627-1.697 3.627-3.79-1.624-3.788-3.627-3.788m-7.392 2.067c.72.211 1.248.902 1.248 1.722s-.528 1.51-1.248 1.721c.752 3.54 3.776 6.188 7.392 6.188 1.316 0 2.554-.35 3.632-.967v.914h3.94v-7.528a5 5 0 0 0 0-.224v-.104c0-4.369-3.39-7.91-7.572-7.91-3.616 0-6.64 2.648-7.392 6.188m-.5 2.982c.67 0 1.212-.567 1.212-1.266s-.542-1.265-1.212-1.265-1.211.566-1.211 1.265c0 .7.542 1.266 1.211 1.266m16.54 10.743h-8.882c-6.251-.113-11.285-5.444-11.285-12 0-6.627 5.143-12 11.487-12 6.241 0 11.32 5.2 11.483 11.678l-.02 9.743c-.165 1.455-1.345 2.579-2.782 2.579"/></svg>