<svg height="48" viewBox="0 0 48 48" width="48" xmlns="http://www.w3.org/2000/svg"><path d="m22.901 11.836h22.899v-9.836h-22.899zm1.999-2h18.899v-5.837h-18.899zm-12.45 2h8.967v-9.836h-8.967zm2.001-2h4.966v-5.837h-4.966zm-12.451 2h8.967v-9.836h-8.967zm2-2h4.967v-5.837h-4.967zm18.901 13.322h22.899v-9.838h-22.899zm1.999-2.001h18.899v-5.837h-18.899zm-12.45 2.001h8.967v-9.838h-8.967zm2.001-2.001h4.966v-5.837h-4.966zm-12.451 2.001h8.967v-9.838h-8.967zm2-2.001h4.967v-5.837h-4.967zm18.901 13.321h22.899v-9.837h-22.899zm1.999-2h18.899v-5.837h-18.899zm-12.45 2h8.967v-9.837h-8.967zm2.001-2h4.966v-5.837h-4.966zm-12.451 2h8.967v-9.837h-8.967zm2-2h4.967v-5.837h-4.967zm18.901 13.321h22.899v-9.838h-22.899zm1.999-2h18.899v-5.838h-18.899zm-12.45 2h8.967v-9.838h-8.967zm2.001-2h4.966v-5.838h-4.966zm-12.451 2h8.967v-9.838h-8.967zm2-2h4.967v-5.838h-4.967z" fill="#c925d1" fill-rule="evenodd"/></svg>