<svg viewBox="0 0 24 24" xmlns="http://www.w3.org/2000/svg" fill="#3C402B"><path d="m12.404.001h-8.538a.618.618 0 0 0 -.619.619v15.173a8.217 8.217 0 0 0 8.202 8.207.617.617 0 0 0 .618-.619v-6.969h.332a8.204 8.204 0 0 0 7.715-5.031 8.216 8.216 0 0 0 0-6.349 8.214 8.214 0 0 0 -7.715-5.031zm-1.579 22.736a6.98 6.98 0 0 1 -6.317-6.317h6.317zm0-9.562-5.956-11.937h5.967zm1.579 2h-.331v-13.937h.331a6.975 6.975 0 0 1 5.016 1.993 6.986 6.986 0 0 1 1.546 2.277 6.987 6.987 0 0 1 0 5.397 6.975 6.975 0 0 1 -6.562 4.27z"/></svg>