<svg xmlns="http://www.w3.org/2000/svg" xmlns:xlink="http://www.w3.org/1999/xlink" width="18" height="18" viewBox="0 0 18 18">
  <defs>
    <mask id="ko">
      <rect width="18" height="18" fill="white"/>
      <path fill="black" d="M0 4.16h10.11V9.8a.34.34 0 0 1-.34.34H.34A.34.34 0 0 1 0 9.8z"/>
      <path fill="black" d="M3.94 7.08h10.12v5.64a.34.34 0 0 1-.34.34H4.28a.34.34 0 0 1-.34-.34z"/>
      <path fill="black" d="M4.28 4.93h9.43a.34.34 0 0 1 .34.34v1.81H3.95V5.27a.34.34 0 0 1 .33-.34"/>
      <path fill="black" d="M7.89 10.02H18v5.64a.34.34 0 0 1-.34.34H8.23a.34.34 0 0 1-.34-.34z"/>
      <path fill="black" d="M8.23 7.86h9.43a.34.34 0 0 1 .34.34v1.82H7.89V8.2a.34.34 0 0 1 .34-.34"/>
      <rect fill="black" x="1.36" y="2.65" width="7.39" height=".87"/>
      <rect fill="black" x="5.3" y="5.58" width="7.39" height=".87"/>
      <rect fill="black" x="9.25" y="8.51" width="7.39" height=".87"/>
      <circle fill="black" cx="15.22" cy="12.64" r=".82"/>
      <circle fill="black" cx="12.98" cy="12.64" r=".82"/>
      <circle fill="black" cx="10.67" cy="12.64" r=".82"/>
    </mask>
  </defs>
  <g>
    <path fill="currentColor" mask="url(#ko)" d="M.34 2h9.43a.34.34 0 0 1 .34.34v1.82H0V2.34A.34.34 0 0 1 .34 2"/>
  </g>
</svg>