<svg xmlns="http://www.w3.org/2000/svg" width="18" height="18" viewBox="0 0 18 18"><defs><mask id="a"><path fill="#fff" d="M0 0h18v18H0z"/><path d="M0 4.16h10.11V9.8a.34.34 0 0 1-.34.34H.34A.34.34 0 0 1 0 9.8z"/><path d="M3.94 7.08h10.12v5.64a.34.34 0 0 1-.34.34H4.28a.34.34 0 0 1-.34-.34z"/><path d="M4.28 4.93h9.43a.34.34 0 0 1 .34.34v1.81H3.95V5.27a.34.34 0 0 1 .33-.34"/><path d="M7.89 10.02H18v5.64a.34.34 0 0 1-.34.34H8.23a.34.34 0 0 1-.34-.34z"/><path d="M8.23 7.86h9.43a.34.34 0 0 1 .34.34v1.82H7.89V8.2a.34.34 0 0 1 .34-.34"/><path d="M1.36 2.65h7.39v.87H1.36z"/><path d="M5.3 5.58h7.39v.87H5.3z"/><path d="M9.25 8.51h7.39v.87H9.25z"/><circle cx="15.22" cy="12.64" r=".82"/><circle cx="12.98" cy="12.64" r=".82"/><circle cx="10.67" cy="12.64" r=".82"/></mask></defs><path fill="currentColor" d="M.34 2h9.43a.34.34 0 0 1 .34.34v1.82H0V2.34A.34.34 0 0 1 .34 2" mask="url(#a)"/></svg>