<svg height="18" viewBox="0 0 18 18" width="18" xmlns="http://www.w3.org/2000/svg" xmlns:xlink="http://www.w3.org/1999/xlink"><linearGradient id="a" gradientTransform="matrix(1 0 0 -1 0 -1391.642)" gradientUnits="userSpaceOnUse" x1="5.055" x2="5.055" y1="-1401.772" y2="-1395.802"><stop offset="0" stop-color="#32bedd"/><stop offset=".18" stop-color="#32caea"/><stop offset=".41" stop-color="#32d2f2"/><stop offset=".78" stop-color="#32d4f5"/></linearGradient><linearGradient id="b" x1="9" x2="9" xlink:href="#a" y1="-1404.702" y2="-1398.732"/><linearGradient id="c" x1="12.945" x2="12.945" xlink:href="#a" y1="-1407.632" y2="-1401.662"/><path d="m0 4.16h10.11v5.64a.34.34 0 0 1 -.34.34h-9.43a.34.34 0 0 1 -.34-.34z" fill="url(#a)"/><path d="m.34 2h9.43a.34.34 0 0 1 .34.34v1.82h-10.11v-1.82a.34.34 0 0 1 .34-.34" fill="#767676"/><rect fill="#f2f2f2" height=".87" rx=".17" width="7.39" x="1.36" y="2.65"/><path d="m3.94 7.08h10.12v5.64a.34.34 0 0 1 -.34.34h-9.44a.34.34 0 0 1 -.34-.34z" fill="url(#b)"/><path d="m4.28 4.93h9.43a.34.34 0 0 1 .34.34v1.81h-10.1v-1.81a.34.34 0 0 1 .33-.34" fill="#767676"/><rect fill="#f2f2f2" height=".87" rx=".17" width="7.39" x="5.3" y="5.58"/><path d="m7.89 10.02h10.11v5.64a.34.34 0 0 1 -.34.34h-9.43a.34.34 0 0 1 -.34-.34z" fill="url(#c)"/><path d="m8.23 7.86h9.43a.34.34 0 0 1 .34.34v1.82h-10.11v-1.82a.34.34 0 0 1 .34-.34" fill="#767676"/><g fill="#f2f2f2"><g><circle cx="15.22" cy="12.64" r=".82"/><circle cx="12.98" cy="12.64" r=".82"/><circle cx="10.67" cy="12.64" r=".82"/></g><rect height=".87" rx=".17" width="7.39" x="9.25" y="8.51"/></g></svg>