<svg viewBox="0 0 24 24" xmlns="http://www.w3.org/2000/svg"><path d="m23.31.803-.563-.42-1.11 1.189-.891-1.286-.512.235.704 1.798-.326.35-2.53-2.669-.574.284 2.25 4.836-2.108.741h-.05l-1.143-1.359-1.144 1.36h-6.626l-1.144-1.36-1.146 1.363h-.037l-2.12-.745 2.251-4.836-.572-.284-2.53 2.668-.327-.349.705-1.798-.512-.236-.89 1.287-1.112-1.19-.563.422 1.73 2.886-.89.939.311 2.375 2.061.787-.002 1.026h-1.953v.444l.755 1.078 1.197.433v6.971l3.057 4.55.701 1.707 1.101-1.606 1.142 1.606.999-1.606 1.101 1.606 1.102-1.606.998 1.606 1.141-1.606 1.102 1.606.701-1.706 3.058-4.55v-6.972l1.196-.433.756-1.078v-.444h-1.952l.003-1.03 2.054-.784.311-2.375-.89-.939zm-8.93 18.718h-6.347l.793-1.615.794 1.615.793-1.083.793 1.083.794-1.083.793 1.083.794-1.083.793 1.083.793-1.615.794 1.615zm3.886-7.39-3.3 1.084-.143 3.061-2.827.627-2.826-.627-.142-3.06-3.3-1.085v-1.635l4.266 1.21-.052 4.126h4.109l-.052-4.127 4.266-1.209z"/></svg>