<svg height="18" viewBox="0 0 18 18" width="18" xmlns="http://www.w3.org/2000/svg" xmlns:xlink="http://www.w3.org/1999/xlink"><linearGradient id="a"><stop offset=".22" stop-color="#32d4f5"/><stop offset="1" stop-color="#198ab3"/></linearGradient><linearGradient id="b" gradientUnits="userSpaceOnUse" x1="8.14" x2="8.14" xlink:href="#a" y1="6.52" y2="18.39"/><linearGradient id="c" gradientUnits="userSpaceOnUse" x1="7.8" x2="8.67" xlink:href="#a" y1=".15" y2="10.93"/><path d="m14 16.25a1.27 1.27 0 0 0 1.29-1.25 1 1 0 0 0 0-.15c-.5-4-2.78-7.25-7.13-7.25s-6.72 2.73-7.16 7.24a1.28 1.28 0 0 0 1.14 1.4h11.86z" fill="url(#b)"/><path d="m8.15 8.52a3.9 3.9 0 0 1 -2.15-.64l2.13 5.62 2.13-5.58a4 4 0 0 1 -2.11.6" fill="#fff" opacity=".8"/><circle cx="8.15" cy="4.51" fill="url(#c)" r="4.01"/><path d="m15.31 10.82a1.77 1.77 0 0 0 -1.81 1.18 1.76 1.76 0 0 0 -1.81-1.18c-1.64.18-1.69 1.75-1.69 2.37 0 .44.1 1.84 3.48 4.27 3.43-2.46 3.52-3.83 3.52-4.27 0-.62 0-2.19-1.69-2.37" fill="#b31b1b"/><path d="m17 13h-1.6a.11.11 0 0 0 -.11.06l-.5.83a.07.07 0 0 1 -.11 0l-.68-1.41a.13.13 0 0 0 -.24 0l-.68 2a.06.06 0 0 1 -.12 0l-.59-1.36a.13.13 0 0 0 -.23 0l-.78 1.42a.11.11 0 0 1 -.11.06h-.72a5 5 0 0 0 .37.51h.65a.11.11 0 0 0 .11-.07l.55-1 .74 1.71a.13.13 0 0 0 .24 0l.77-2.28.67 1.28a.14.14 0 0 0 .23 0l.74-1.26a.15.15 0 0 1 .11-.07h1.29" fill="#f2f2f2"/></svg>