<svg height="48" viewBox="0 0 48 48" width="48" xmlns="http://www.w3.org/2000/svg"><path d="m23.945 2-21.945 12.54v31.501h43.89v-31.501zm-19.945 13.7 19.945-11.398 19.945 11.398v28.341h-39.89zm3.237 26.85h33.417v-26.436h-33.417zm1.999-1.999h29.417v-22.436h-29.417zm8.473-15.454h5.49v-5.492h-5.49zm2-2.001h1.49v-1.491h-1.49zm-8.981 2.001h5.49v-5.492h-5.49zm1.999-2.001h1.49v-1.491h-1.49zm11.963 8.982h5.491v-5.492h-5.491zm2.001-2.001h1.49v-1.49h-1.49zm-8.982 2.001h5.49v-5.492h-5.49zm2-2.001h1.49v-1.49h-1.49zm-8.981 2.001h5.49v-5.492h-5.49zm1.999-2.001h1.49v-1.49h-1.49zm18.945 8.982h5.492v-5.492h-5.492zm2-2h1.491v-1.491h-1.491zm-8.982 2h5.491v-5.492h-5.491zm2.001-2h1.49v-1.491h-1.49zm-8.982 2h5.49v-5.492h-5.49zm2-2h1.49v-1.491h-1.49zm-8.981 2h5.49v-5.492h-5.49zm1.999-2h1.49v-1.491h-1.49z" fill="#e7157b" fill-rule="evenodd"/></svg>