<svg xmlns="http://www.w3.org/2000/svg" width="18" height="18" viewBox="0 0 18 18"><defs><mask id="a"><path fill="#fff" d="M0 0h18v18H0z"/><path d="M11.887 4.423H5.069a.12.12 0 0 1-.124-.12V3.9a.123.123 0 0 1 .123-.123h6.818a.124.124 0 0 1 .124.123v.4a.12.12 0 0 1-.122.123zm-7.9.291V3.488a.21.21 0 0 0-.212-.212H2.547a.21.21 0 0 0-.212.211v1.227a.21.21 0 0 0 .211.211h1.227a.21.21 0 0 0 .212-.211z"/><path d="M11.886 7.023H5.069a.124.124 0 0 1-.124-.123v-.406a.124.124 0 0 1 .124-.124h6.816a.125.125 0 0 1 .124.124v.4a.125.125 0 0 1-.123.125zM3.68 6.194H2.657v1.02H3.68zm.107-.321A.216.216 0 0 1 4 6.087V7.32a.214.214 0 0 1-.214.213H2.55a.213.213 0 0 1-.213-.213V6.083a.213.213 0 0 1 .213-.213z" opacity=".8"/></mask></defs><g fill="currentColor" mask="url(#a)"><rect width="14.7" height="18" x="3.113" rx=".6"/><rect width="13.985" height="7.291" x=".187" y="1.867" rx=".541"/></g><path fill="currentColor" d="M13.382 11.108a.12.12 0 0 0-.084-.035.12.12 0 0 0-.117.119v1.487H3.113v1.773h10.068v1.385a.118.118 0 0 0 .2.084l2.324-2.321a.117.117 0 0 0 0-.166z"/></svg>