<svg xmlns="http://www.w3.org/2000/svg" xmlns:xlink="http://www.w3.org/1999/xlink" width="18" height="18" viewBox="0 0 18 18">
  <defs>
    <mask id="wko">
      <rect width="18" height="18" fill="white"/>
      <path fill="black" d="m13.706 10.305-.358.358a.156.156 0 0 1-.221 0l-1.421-1.421a.156.156 0 0 1 0-.221l.247-.247a.156.156 0 0 1 .221 0l1.532 1.532z"/>
    </mask>
  </defs>
  <g fill="currentColor" mask="url(#wko)">
    <rect width="12.811" height="18" fill="currentColor" rx=".619"/>
    <rect width="7.366" height="1.313" x="2.722" y="13.484" fill="currentColor" rx=".324"/>
    <rect width="7.366" height="1.313" x="2.722" y="10.938" fill="currentColor" rx=".324"/>
    <path fill="currentColor" d="M9.048 9.448a.55.55 0 0 0 .571-.531v-.016a.4.4 0 0 0 0-.068c-.227-1.8-1.249-3.256-3.199-3.256S3.403 6.816 3.192 8.819a.575.575 0 0 0 .515.629z"/>
    <path fill="currentColor" d="M6.442 6.005a1.8 1.8 0 0 1-.953-.287l.953 2.52.964-2.502a1.84 1.84 0 0 1-.964.269"/>
    <circle cx="6.43" cy="4.204" r="1.801" fill="currentColor"/>
    <circle cx="14.105" cy="9" r="3.895" fill="currentColor"/>
  </g>
  <path fill="currentColor" d="m13.134 10.666-.358-.358 3.269-3.269a.156.156 0 0 1 .221 0l.247.247a.156.156 0 0 1 0 .221l-3.159 3.159a.156.156 0 0 1-.221 0z"/>
</svg>