<svg height="18" viewBox="0 0 18 18" width="18" xmlns="http://www.w3.org/2000/svg" xmlns:xlink="http://www.w3.org/1999/xlink"><linearGradient id="a" gradientTransform="matrix(1 0 0 -1 4 785.516)" gradientUnits="userSpaceOnUse" x1="1.58" x2="3.231" y1="785.952" y2="767.08"><stop offset="0" stop-color="#5e9eee"/><stop offset="1" stop-color="#0078d2"/></linearGradient><linearGradient id="b"><stop offset=".183" stop-color="#9cebff"/><stop offset="1" stop-color="#50e6ff"/></linearGradient><linearGradient id="c" gradientTransform="matrix(1 0 0 -1 31.6 773.32)" gradientUnits="userSpaceOnUse" x1="-25.483" x2="-25.125" xlink:href="#b" y1="767.733" y2="763.642"/><linearGradient id="d" gradientTransform="matrix(1 0 0 -1 31.6 773.32)" gradientUnits="userSpaceOnUse" x1="-25.327" x2="-25.013" xlink:href="#b" y1="770.911" y2="767.322"/><rect fill="url(#a)" height="18" rx=".619" width="12.811"/><rect fill="#8ec1fa" height="1.313" rx=".324" width="7.366" x="2.722" y="13.484"/><rect fill="#8ec1fa" height="1.313" rx=".324" width="7.366" x="2.722" y="10.938"/><path d="m9.048 9.448a.55.55 0 0 0 .571-.531v-.016a.4.4 0 0 0 0-.068c-.227-1.8-1.249-3.256-3.199-3.256s-3.017 1.239-3.228 3.242a.575.575 0 0 0 .515.629z" fill="url(#c)"/><path d="m6.442 6.005a1.8 1.8 0 0 1 -.953-.287l.953 2.52.964-2.502a1.84 1.84 0 0 1 -.964.269" fill="#f2f2f2"/><circle cx="6.43" cy="4.204" fill="url(#d)" r="1.801"/><circle cx="14.105" cy="9" fill="#86d633" r="3.895"/><path d="m13.706 10.305-.358.358a.156.156 0 0 1 -.221 0l-1.421-1.421a.156.156 0 0 1 0-.221l.247-.247a.156.156 0 0 1 .221 0l1.532 1.532z" fill="#fff"/><path d="m13.134 10.666-.358-.358 3.269-3.269a.156.156 0 0 1 .221 0l.247.247a.156.156 0 0 1 0 .221l-3.159 3.159a.156.156 0 0 1 -.221 0z" fill="#f0f0f0"/></svg>