<svg xmlns="http://www.w3.org/2000/svg" width="18" height="18" viewBox="0 0 18 18"><defs><mask id="a"><path fill="#fff" d="M0 0h18v18H0z"/><path d="M15.451 8.48c0 4.169-5.121 7.513-6.243 8.188a.4.4 0 0 1-.417 0c-1.121-.675-6.242-4.019-6.242-8.188V3.518a.406.406 0 0 1 .331-.47.4.4 0 0 1 .066-.006C6.935 2.972 6.022 1.265 9 1.265s2.064 1.707 6.054 1.777a.407.407 0 0 1 .4.4z"/><path d="M12.38 7.016v3.932l-3.37 1.986V8.982z"/><path d="M12.38 7.016 9.01 9.002 5.62 7.016 9.01 5.03z"/><path d="M9.01 9.002v3.932l-3.39-1.986V7.016z"/><path d="m5.62 10.948 3.39-1.966v3.952z"/><path d="M12.38 10.948 9.01 8.982v3.952z"/></mask></defs><path fill="currentColor" d="M16.494 8.4c0 4.837-5.949 8.732-7.251 9.525a.45.45 0 0 1-.486 0c-1.3-.783-7.251-4.678-7.251-9.525V2.583a.466.466 0 0 1 .456-.466C6.6 2 5.528 0 9 0s2.4 2 7.038 2.117a.466.466 0 0 1 .456.466z" mask="url(#a)"/></svg>