<svg height="18" viewBox="0 0 18 18" width="18" xmlns="http://www.w3.org/2000/svg" xmlns:xlink="http://www.w3.org/1999/xlink"><linearGradient id="a" gradientTransform="matrix(1 0 0 -1 0 791.516)" gradientUnits="userSpaceOnUse" x1="8.997" x2="8.997" y1="774.788" y2="790.251"><stop offset="0" stop-color="#0078d4"/><stop offset=".06" stop-color="#0a7cd7"/><stop offset=".34" stop-color="#2e8ce1"/><stop offset=".59" stop-color="#4897e9"/><stop offset=".82" stop-color="#589eed"/><stop offset="1" stop-color="#5ea0ef"/></linearGradient><path d="m16.494 8.4c0 4.837-5.949 8.732-7.251 9.525a.45.45 0 0 1 -.486 0c-1.3-.783-7.251-4.678-7.251-9.525v-5.817a.466.466 0 0 1 .456-.466c4.638-.117 3.566-2.117 7.038-2.117s2.4 2 7.038 2.117a.466.466 0 0 1 .456.466z" fill="#0078d4"/><path d="m15.451 8.48c0 4.169-5.121 7.513-6.243 8.188a.4.4 0 0 1 -.417 0c-1.121-.675-6.242-4.019-6.242-8.188v-4.962a.406.406 0 0 1 .331-.47.4.4 0 0 1 .066-.006c3.989-.07 3.076-1.777 6.054-1.777s2.064 1.707 6.054 1.777a.407.407 0 0 1 .4.4z" fill="url(#a)"/><path d="m12.38 7.016v3.932l-3.37 1.986v-3.952z" fill="#50e6ff"/><path d="m12.38 7.016-3.37 1.986-3.39-1.986 3.39-1.986z" fill="#c3f1ff"/><path d="m9.01 9.002v3.932l-3.39-1.986v-3.932z" fill="#9cebff"/><path d="m5.62 10.948 3.39-1.966v3.952z" fill="#c3f1ff"/><path d="m12.38 10.948-3.37-1.966v3.952z" fill="#9cebff"/></svg>