<svg fill="none" viewBox="0 0 190 190" xmlns="http://www.w3.org/2000/svg" xmlns:xlink="http://www.w3.org/1999/xlink"><filter id="a" color-interpolation-filters="sRGB" filterUnits="userSpaceOnUse" height="190" width="190" x="0" y="0"><feFlood flood-opacity="0" result="BackgroundImageFix"/><feColorMatrix in="SourceAlpha" result="hardAlpha" values="0 0 0 0 0 0 0 0 0 0 0 0 0 0 0 0 0 0 127 0"/><feOffset/><feGaussianBlur stdDeviation="10"/><feComposite in2="hardAlpha" operator="out"/><feColorMatrix values="0 0 0 0 1 0 0 0 0 1 0 0 0 0 1 0 0 0 0.06 0"/><feBlend in2="BackgroundImageFix" result="effect1_dropShadow_2811_104"/><feBlend in="SourceGraphic" in2="effect1_dropShadow_2811_104" result="shape"/></filter><mask id="b" height="140" maskUnits="userSpaceOnUse" width="140" x="25" y="25"><path d="m95 165c38.66 0 70-31.34 70-70s-31.34-70-70-70-70 31.34-70 70 31.34 70 70 70" fill="#d9d9d9"/></mask><mask id="c" height="88" maskUnits="userSpaceOnUse" width="64" x="62" y="41"><path d="m65.888 99.773c-3.546-8.353-3.888-22.601-3.888-22.601l6.803-34.281s15.184-1.373 24.904-1.406c9.342-.031 23.69 1.406 23.69 1.406l8.503 34.28s-.417 14.258-4.009 22.602c-5.978 13.89-11.475 28.753-28.184 28.657-16.615-.095-21.947-14.821-27.82-28.657" fill="#f4e4db"/></mask><mask id="d" height="125" maskUnits="userSpaceOnUse" width="112" x="38" y="38"><path d="m113.656 61.154c-2.765-5.415-19.569 3.571-19.569 3.571l-.016-22.466s2.052-1.235 3.456-1.843c4.787-2.076 8.08-2.44 13.249-1.729 3.82.527 6.042 1.216 9.332 3.226 2.908 1.777 4.23 3.292 6.452 5.876 2.351 2.735 3.453 4.496 5.069 7.72 2.361 4.707 2.299 7.892 3.918 12.903 1.902 5.89 2.852 9.244 5.184 14.977 2.169 5.333 4.464 7.882 6.221 13.365 1.156 3.606 2.078 5.662 2.189 9.447.092 3.085-.184 4.868-1.037 7.834-1.211 4.218-3.593 5.866-5.299 9.908-1.367 3.238-2.585 5.024-2.88 8.526-.213 2.521.109 3.966.576 6.452.618 3.3 2.03 4.88 2.649 8.18.418 2.222.893 3.522.576 5.76-.405 2.87-1.245 4.567-3.225 6.683-1.767 1.887-5.646 3.456-5.646 3.456s1.904-3.005 2.304-5.185c.458-2.487.109-4.016-.576-6.451-1.159-4.121-4.355-5.196-6.106-9.102-.972-2.168-1.602-3.411-1.958-5.761-.304-2.001-.177-3.167 0-5.184.442-5.032 3.694-7.281 3.917-12.328.162-3.68-.355-5.794-1.383-9.332-1.268-4.367-3.242-6.319-5.069-10.484-2.379-5.425-3.475-8.573-5.415-14.17-3.175-9.163-4.147-18.434-6.913-23.85" fill="#f6cd62"/><path d="m74.501 61.14c2.765-5.414 19.586 3.585 19.586 3.585v-22.479s-2.053-1.235-3.456-1.843c-4.788-2.075-8.08-2.44-13.25-1.728-3.82.526-6.041 1.215-9.331 3.226-2.909 1.776-4.23 3.291-6.452 5.875-2.352 2.735-3.453 4.496-5.07 7.72-2.36 4.707-2.298 7.892-3.917 12.903-1.902 5.89-2.852 9.244-5.184 14.978-2.17 5.332-4.465 7.882-6.221 13.364-1.156 3.607-2.078 5.662-2.19 9.447-.09 3.085.185 4.868 1.037 7.835 1.212 4.217 3.594 5.865 5.3 9.908 1.366 3.238 2.585 5.024 2.88 8.525.213 2.521-.11 3.966-.576 6.452-.618 3.301-2.03 4.88-2.65 8.18-.417 2.222-.892 3.522-.576 5.761.406 2.869 1.246 4.566 3.226 6.682 1.767 1.887 5.646 3.456 5.646 3.456s-1.904-3.005-2.305-5.184c-.457-2.488-.108-4.017.576-6.452 1.16-4.12 4.355-5.196 6.107-9.102.972-2.168 1.602-3.411 1.958-5.76.304-2.002.177-3.168 0-5.185-.442-5.032-3.694-7.281-3.917-12.327-.162-3.681.355-5.794 1.383-9.332 1.268-4.368 3.242-6.32 5.069-10.484 2.38-5.426 3.475-8.574 5.415-14.171 3.175-9.163 4.147-18.434 6.912-23.85" fill="#f6cd62"/></mask><g filter="url(#a)"><circle cx="95" cy="95" fill="#000" fill-opacity=".18" r="75" shape-rendering="crispEdges"/></g><g mask="url(#b)"><path d="m95 165c38.66 0 70-31.34 70-70s-31.34-70-70-70-70 31.34-70 70 31.34 70 70 70" fill="#fff" fill-opacity=".12"/><path d="m153.503 83.658c0 16.661-6.946 31.699-18.1 42.377a58.7 58.7 0 0 1 -12.373 9.076c-8.363 4.592-17.971 7.204-28.184 7.204s-19.817-2.609-28.18-7.201a58.672 58.672 0 0 1 -12.375-9.079c-11.155-10.676-18.103-25.716-18.103-42.377 0-32.396 26.262-58.658 58.658-58.658s58.657 26.262 58.657 58.658" fill="#000" fill-opacity=".18"/><path d="m47.17 112c1.656 15.105 14.5 47.5 14.5 47.5s3.152 28.584 37.5 26.5c30.535-1.853 33-26.5 33-26.5s8.758-32.367 9.5-46c1.075-19.74-14.5-48.5-14.5-48.5l-65.5 2s-16.512 26.647-14.5 45" fill="#ab852b"/><path d="m151 152.325a81.8 81.8 0 0 1 -17.237 12.641c-11.651 6.396-25.036 10.034-39.265 10.034s-27.607-3.634-39.257-10.03a81.8 81.8 0 0 1 -17.241-12.645c5.227-13.265 17.938-22.761 32.934-23.295q.662-.03 1.334-.03h44.464q.672 0 1.335.03c14.995.534 27.707 10.031 32.933 23.295" fill="#efebdc"/><path d="m95.043 150.674s48.479-35.193 46.736-38.361c-2.602-4.734-6.466-7.964-10.283-10.155-6.407-3.677-12.69-4.423-12.69-4.423l-38.59 32.752z" fill="#565143"/><path d="m95.046 151s-48.75-38.47-47-42c2.614-5.276 6.543-9.629 10.377-12.071 6.437-4.099 68.123 4.071 68.123 4.071z" fill="#565043"/><path d="m95.043 150.674s48.479-35.193 46.737-38.361c-2.603-4.734-6.467-7.964-10.284-10.155 3.903 4.318 7.65 10.887 1.885 16.649-.931.932-1.956 1.563-3.048 1.942-3.811 1.325-7.357 3.316-10.279 6.099z" fill="#efebdc"/><path d="m101.046 156s-54.481-40.519-52.739-43.687c2.602-4.734 6.467-7.964 10.283-10.155-3.902 4.318-7.65 10.887-1.884 16.65.931.931 1.956 1.562 3.047 1.941 3.812 1.326 7.358 3.316 10.28 6.099z" fill="#efebdc"/><path d="m106.272 148.612-10.816 4.008a2.27 2.27 0 0 1 -1.579 0l-10.815-4.008a2.272 2.272 0 0 0 -3.062 2.131v6.669a2.272 2.272 0 0 0 3.062 2.13l10.815-4.008a2.27 2.27 0 0 1 1.58 0l10.815 4.008a2.272 2.272 0 0 0 3.062-2.13v-6.669a2.273 2.273 0 0 0 -3.062-2.131" fill="#565143"/><path d="m109.655 112.273v15.929c0 8.189-6.638 14.827-14.827 14.827s-14.828-6.638-14.828-14.827v-15.929zm32.186-43.582-16.134 1.847-6.826 15.33a6.994 6.994 0 0 0 12.779 5.69zm-95.841-3.143 16.134 1.847 6.826 15.33a6.994 6.994 0 0 1 -12.779 5.69z" fill="#dfc3b0"/><g mask="url(#c)"><path d="m65.888 99.773c-3.546-8.353-3.888-22.601-3.888-22.601l6.803-34.281s15.184-1.373 24.904-1.406c9.342-.031 23.69 1.406 23.69 1.406l8.503 34.28s-.417 14.258-4.009 22.602c-5.978 13.89-11.475 28.753-28.184 28.657-16.615-.095-21.947-14.821-27.82-28.657" fill="#f4e4db"/><g fill="#ddc2b2"><path d="m72.699 99.765-3.36-29.132c-1.996-17.283 9.121-33.054 25.457-37.383a35 35 0 0 0 -5.02.211c-18.973 2.189-32.582 19.346-30.393 38.32l3.36 29.132c2.189 18.974 19.346 32.582 38.32 30.394a35 35 0 0 0 4.936-.938c-16.894-.495-31.308-13.321-33.301-30.604"/><path d="m66.955 95.069 8.926-27.934c5.296-16.572 21.918-26.37 38.588-23.592a35 35 0 0 0 -4.661-1.873c-18.194-5.815-37.657 4.222-43.471 22.415l-8.927 27.935c-5.814 18.193 4.222 37.656 22.416 43.471a35 35 0 0 0 4.884 1.177c-15.193-7.405-23.051-25.026-17.755-41.598"/></g></g><path d="m98.857 112.971h-8.113s2.093 3.178 4.117 3.149c1.986-.029 3.996-3.149 3.996-3.149m-12.879-6.539h17.387c1.38.122 2.636 2.422 2.636 2.422h-22.765s.477-2.422 2.742-2.422" fill="#ddc2b2"/><path d="m110.925 85.647v-6.627a3.13 3.13 0 1 0 -6.26 0v6.628a3.13 3.13 0 1 0 6.26 0m-34.431-6.629v6.628a3.13 3.13 0 1 0 6.26 0v-6.628a3.13 3.13 0 1 0 -6.26 0" fill="#0e0d11"/><path d="m71.622 76.068 12.654 4.892 2.017-5.218-12.653-4.892zm41.371-7.257-12.654 4.892 2.806 7.258 12.654-4.892z" fill="#f4e4db"/><path d="m119.377 69.245-25.665 6.809-25.141-6.81 4.19 6.81s18.332 4.2 18.332 6.285v15.713s1.517 1.048 2.619 1.048c1.101 0 2.619-1.048 2.619-1.048v-15.712c0-2.085 18.021-6.664 18.021-6.664z" fill="#dfc3b0"/><path d="m56.476 72.137 4.997-4.684c.891-.837 2.74-1.079 4.127-.542l20.442 7.919c2.79 1.08 1.014 3.687-2.231 3.275l-25.439-3.235c-2.045-.26-3.026-1.673-1.896-2.734m74.471.001-4.996-4.684c-.892-.837-2.74-1.079-4.127-.542l-20.442 7.919c-2.79 1.08-1.015 3.687 2.23 3.275l25.439-3.234c2.046-.26 3.026-1.673 1.896-2.734" fill="#0e0d11"/><path d="m123.963 48.441c-6.034-10.092-17.072-16.848-29.69-16.848-12.616 0-23.654 6.756-29.69 16.848a34.3 34.3 0 0 0 -4.583 13.082h7.336c0-7.437 6.03-13.468 13.468-13.468q.27 0 .54.01c6.315.25 11.234 5.6 11.234 11.92v1.84a1.695 1.695 0 0 0 3.389 0v-1.84c0-6.32 4.919-11.67 11.234-11.92q.268-.01.54-.01c7.437 0 13.468 6.03 13.468 13.468h7.336a34.25 34.25 0 0 0 -4.582-13.082" fill="#e9ba49"/></g><g mask="url(#d)"><path d="m113.656 61.154c-2.765-5.415-19.569 3.571-19.569 3.571l-.016-22.466s2.052-1.235 3.456-1.843c4.787-2.076 8.08-2.44 13.249-1.729 3.82.527 6.042 1.216 9.332 3.226 2.908 1.777 4.23 3.292 6.452 5.876 2.351 2.735 3.453 4.496 5.069 7.72 2.361 4.707 2.299 7.892 3.918 12.903 1.902 5.89 2.852 9.244 5.184 14.977 2.169 5.333 4.464 7.882 6.221 13.365 1.156 3.606 2.078 5.662 2.189 9.447.092 3.085-.184 4.868-1.037 7.834-1.211 4.218-3.593 5.866-5.299 9.908-1.367 3.238-2.585 5.024-2.88 8.526-.213 2.521.109 3.966.576 6.452.618 3.3 2.03 4.88 2.649 8.18.418 2.222.893 3.522.576 5.76-.405 2.87-1.245 4.567-3.225 6.683-1.767 1.887-5.646 3.456-5.646 3.456s1.904-3.005 2.304-5.185c.458-2.487.109-4.016-.576-6.451-1.159-4.121-4.355-5.196-6.106-9.102-.972-2.168-1.602-3.411-1.958-5.761-.304-2.001-.177-3.167 0-5.184.442-5.032 3.694-7.281 3.917-12.328.162-3.68-.355-5.794-1.383-9.332-1.268-4.367-3.242-6.319-5.069-10.484-2.379-5.425-3.475-8.573-5.415-14.17-3.175-9.163-4.147-18.434-6.913-23.85" fill="#f6c85a"/><path d="m74.501 61.14c2.765-5.414 19.586 3.585 19.586 3.585v-22.479s-2.053-1.235-3.456-1.843c-4.788-2.075-8.08-2.44-13.25-1.728-3.82.526-6.041 1.215-9.331 3.226-2.909 1.776-4.23 3.291-6.452 5.875-2.352 2.735-3.453 4.496-5.07 7.72-2.36 4.707-2.298 7.892-3.917 12.903-1.902 5.89-2.852 9.244-5.184 14.978-2.17 5.332-4.465 7.882-6.221 13.364-1.156 3.607-2.078 5.662-2.19 9.447-.09 3.085.185 4.868 1.037 7.835 1.212 4.217 3.594 5.865 5.3 9.908 1.366 3.238 2.585 5.024 2.88 8.525.213 2.521-.11 3.966-.576 6.452-.618 3.301-2.03 4.88-2.65 8.18-.417 2.222-.892 3.522-.576 5.761.406 2.869 1.246 4.566 3.226 6.682 1.767 1.887 5.646 3.456 5.646 3.456s-1.904-3.005-2.305-5.184c-.457-2.488-.108-4.017.576-6.452 1.16-4.12 4.355-5.196 6.107-9.102.972-2.168 1.602-3.411 1.958-5.76.304-2.002.177-3.168 0-5.185-.442-5.032-3.694-7.281-3.917-12.327-.162-3.681.355-5.794 1.383-9.332 1.268-4.368 3.242-6.32 5.069-10.484 2.38-5.426 3.475-8.574 5.415-14.171 3.175-9.163 4.147-18.434 6.912-23.85" fill="#f6c85a"/><path d="m103.288 52.398c-7.18-.798-9.217 12.327-9.217 12.327l21.429 2.42s-2.88-13.71-12.212-14.747m-18.434-0c7.18-.798 9.217 12.327 9.217 12.327l-21.43 2.42s2.88-13.71 12.213-14.747" fill="#ab852b"/></g></svg>