<svg xmlns="http://www.w3.org/2000/svg" width="24" height="24"><defs><mask id="a"><path fill="#fff" d="M0 0h24v24H0z"/><path d="M10 6h4v4h-4z"/><path d="M17 6h4v4h-4z"/><path d="M3 14h4v4H3z"/></mask></defs><g fill="currentColor" mask="url(#a)"><path d="m7 6 1-1H2l1 1z"/><path d="M7 6v4l1 1V5z"/><path d="M3 6 2 5v6l1-1z"/><path d="m3 10-1 1h6l-1-1z"/><path d="M3 6h4v4H3z"/><path d="m14 6 1-1H9l1 1z"/><path d="M14 6v4l1 1V5z"/><path d="M10 6 9 5v6l1-1z"/><path d="m10 10-1 1h6l-1-1z"/><path d="m21 6 1-1h-6l1 1z"/><path d="M21 6v4l1 1V5z"/><path d="m17 6-1-1v6l1-1z"/><path d="m17 10-1 1h6l-1-1z"/><path d="m7 14 1-1H2l1 1z"/><path d="M7 14v4l1 1v-6z"/><path d="m3 14-1-1v6l1-1z"/><path d="m3 18-1 1h6l-1-1z"/></g><path fill="currentColor" d="m14 14 1-1H9l1 1z"/><path fill="currentColor" d="M14 14v4l1 1v-6z"/><path fill="currentColor" d="m10 14-1-1v6l1-1z"/><path fill="currentColor" d="m10 18-1 1h6l-1-1z"/><path fill="currentColor" d="M10 14h4v4h-4zm11 0 1-1h-6l1 1z"/><path fill="currentColor" d="M21 14v4l1 1v-6z"/><path fill="currentColor" d="m17 14-1-1v6l1-1z"/><path fill="currentColor" d="m17 18-1 1h6l-1-1z"/><path fill="currentColor" d="M17 14h4v4h-4z"/></svg>