<svg height="24" width="24" xmlns="http://www.w3.org/2000/svg"><path d="m7 6 1-1h-6l1 1z" fill="#aecbfa"/><path d="m7 6v4l1 1v-6z" fill="#669df6"/><path d="m3 6-1-1v6l1-1z" fill="#aecbfa"/><path d="m3 10-1 1h6l-1-1z" fill="#4285f4"/><path d="m3 6h4v4h-4z" fill="#aecbfa"/><path d="m14 6 1-1h-6l1 1z" fill="#4285f4"/><path d="m14 6v4l1 1v-6z" fill="#aecbfa"/><path d="m10 6-1-1v6l1-1z" fill="#4285f4"/><path d="m10 10-1 1h6l-1-1z" fill="#aecbfa"/><path d="m10 6h4v4h-4z" fill="#fff"/><path d="m21 6 1-1h-6l1 1z" fill="#4285f4"/><path d="m21 6v4l1 1v-6z" fill="#aecbfa"/><path d="m17 6-1-1v6l1-1z" fill="#4285f4"/><path d="m17 10-1 1h6l-1-1z" fill="#aecbfa"/><path d="m17 6h4v4h-4z" fill="#fff"/><path d="m7 14 1-1h-6l1 1z" fill="#4285f4"/><path d="m7 14v4l1 1v-6z" fill="#aecbfa"/><path d="m3 14-1-1v6l1-1z" fill="#4285f4"/><path d="m3 18-1 1h6l-1-1z" fill="#aecbfa"/><path d="m3 14h4v4h-4z" fill="#fff"/><path d="m14 14 1-1h-6l1 1z" fill="#aecbfa"/><path d="m14 14v4l1 1v-6z" fill="#669df6"/><path d="m10 14-1-1v6l1-1z" fill="#aecbfa"/><path d="m10 18-1 1h6l-1-1z" fill="#4285f4"/><path d="m10 14h4v4h-4zm11 0 1-1h-6l1 1z" fill="#aecbfa"/><path d="m21 14v4l1 1v-6z" fill="#669df6"/><path d="m17 14-1-1v6l1-1z" fill="#aecbfa"/><path d="m17 18-1 1h6l-1-1z" fill="#4285f4"/><path d="m17 14h4v4h-4z" fill="#aecbfa"/></svg>