<svg xmlns="http://www.w3.org/2000/svg" width="40" height="40" fill="none" viewBox="0 0 40 40">
  <defs>
    <clipPath id="b"><path d="M0 0h146v40.001H0z"/></clipPath>
    <mask id="wko">
      <rect width="40" height="40" fill="white"/>
      <path fill="black" d="M1.111 13.427a20 20 0 1 0 37.957.541l-5.815 1.84a13.901 13.901 0 1 1-26.381-.376z"/>
    </mask>
  </defs>
  <g fill="currentColor" mask="url(#wko)">
    <circle cx="20" cy="20.001" r="20" fill="currentColor"/>
    <path fill="currentColor" fill-rule="evenodd" d="M35.217 7.02C28.047-1.383 15.424-2.384 7.02 4.785S-2.383 24.577 4.785 32.98s19.793 9.404 28.196 2.235 9.404-19.793 2.236-28.196m-9.964 10.497c.77 0 1.262.836.876 1.502l-.112.192-7.547 12.42a.77.77 0 0 1-.661.372h-.72a.755.755 0 0 1-.732-.944l2.048-7.919a1 1 0 0 0-.968-1.25h-3.146a1 1 0 0 1-.968-1.25l3.09-11.955a.92.92 0 0 1 .895-.68q.076 0 .135.002h3.168a1 1 0 0 1 .991 1.134l-.02.143-1.207 7.067a1 1 0 0 0 .985 1.169z" clip-rule="evenodd"/>
  </g>
</svg>