<svg fill="none" height="40" viewBox="0 0 40 40" width="40" xmlns="http://www.w3.org/2000/svg" xmlns:xlink="http://www.w3.org/1999/xlink"><filter id="a" color-interpolation-filters="sRGB" filterUnits="userSpaceOnUse" height="46.5744" width="60" x="-10" y="3.42667"><feFlood flood-opacity="0" result="BackgroundImageFix"/><feBlend in="SourceGraphic" in2="BackgroundImageFix" mode="normal" result="shape"/><feGaussianBlur result="effect1_foregroundBlur_115_108" stdDeviation="5"/></filter><radialGradient id="b" cx="0" cy="0" gradientTransform="matrix(39.0007 0 0 397.71 4.00069 20.0004)" gradientUnits="userSpaceOnUse" r="1"><stop offset="0" stop-color="#31b2f3"/><stop offset=".473958" stop-color="#f27cec"/><stop offset="1" stop-color="#fd6641"/></radialGradient><radialGradient id="c" cx="0" cy="0" gradientTransform="matrix(39 0 0 397.703 4 20.0011)" gradientUnits="userSpaceOnUse" r="1"><stop offset="0" stop-color="#f27cec"/><stop offset=".484375" stop-color="#31b2f3"/><stop offset="1" stop-color="#7d7573"/></radialGradient><clipPath id="d"><path d="m0 0h146v40.001h-146z"/></clipPath><mask id="e" height="41" maskUnits="userSpaceOnUse" width="40" x="0" y="0"><circle cx="20" cy="20.001" fill="url(#c)" r="20"/></mask><g clip-path="url(#d)"><path clip-rule="evenodd" d="m35.2166 7.02016c-7.1688-8.40333-19.7925-9.40413-28.19583-2.23535-8.40333 7.16879-9.40413 19.79249-2.23535 28.19579s19.79248 9.4041 28.19578 2.2354c8.4034-7.1688 9.4042-19.7925 2.2354-28.19584zm-9.9641 10.49734c.7708 0 1.263.8352.8762 1.5019l-.1112.1917-7.5479 12.4183c-.1403.2308-.3908.3716-.6608.3716h-.7205c-.4937 0-.8547-.4661-.731-.9441l2.0481-7.9185c.1637-.6331-.3142-1.2504-.9681-1.2504h-3.1459c-.6539 0-1.1318-.6172-.9682-1.2503l3.0905-11.95481c.1124-.40233.4767-.68555.8944-.68081.0506.00058.0965.00142.1346.00262l3.1682-.00005c.6061-.00029 1.0731.53431.9914 1.13484l-.0195.14297-1.2082 7.06654c-.1044.6108.366 1.1685.9857 1.1685z" fill="url(#b)" fill-rule="evenodd"/><g mask="url(#e)"><g filter="url(#a)"><path d="m1.11145 13.4267c-1.0411326 2.9912-1.356973 6.1869-.921527 9.324.435447 3.1372 1.609727 6.1261 3.426187 8.7206 1.81645 2.5946 4.22314 4.7207 7.02199 6.2033 2.7988 1.4826 5.9097 2.2792 9.0766 2.3244s6.2992-.6624 9.1392-2.0645 5.3063-3.4587 7.1961-6.0004c1.8897-2.5417 3.1488-5.4958 3.6736-8.6193.5247-3.1234.3002-6.3269-.6552-9.3466l-5.8152 1.8398c.664 2.0988.82 4.3253.4553 6.4962s-1.2398 4.2241-2.5533 5.9907c-1.3134 1.7666-3.0276 3.1959-5.0015 4.1704-1.9738.9746-4.1509 1.4663-6.352 1.4349s-4.3633-.5851-6.3085-1.6155c-1.9453-1.0304-3.61802-2.5081-4.88051-4.3114-1.2625-1.8034-2.07866-3.8807-2.38131-6.0611-.30265-2.1805-.08313-4.4016.64049-6.4806z" fill="#fff"/></g></g></g></svg>