<svg height="24" width="24" xmlns="http://www.w3.org/2000/svg"><path d="m4.69 7.7 4.69-2.71v-2.72l-7.13 4.11.39.48 1.62.88z" fill="#4285f4"/><g fill-rule="evenodd"><path d="m9.38 17.36-7.13-4.11v-2.59l7.13 4.12zm0 1.77-7.13-4.13v2.6l7.13 4.12zm0-8.71-4.69-2.72-2.44-1.32v2.5l7.13 4.12" fill="#aecbfa"/><path d="m9.38 21.73 7-4v-2.63l-7 4m0-4.35 7-4h2.08v2.33h-1.68l-7.4 4.29zm0-1.77 7.41-4.28h2.44v1.36l2.51-2.51-2.51-2.5v1.32h-2.87l-1.23.72-1.06.61-2.72 1.57-2 1.15zm0-7.99 3.16 1.83 2.36-1.36-5.52-3.19z" fill="#669df6"/></g></svg>