<svg height="18" viewBox="0 0 18 18" width="18" xmlns="http://www.w3.org/2000/svg" xmlns:xlink="http://www.w3.org/1999/xlink"><linearGradient id="a" gradientUnits="userSpaceOnUse" x1="7.123" x2="7.123" y2="13.962"><stop offset="0" stop-color="#0078d4"/><stop offset="1" stop-color="#005ba1"/></linearGradient><circle cx="7.123" cy="6.981" fill="url(#a)" r="6.981"/><circle cx="11.022" cy="11.164" fill="#0078d4" r="6.684"/><path d="m17.858 10.94h-.011a6.835 6.835 0 1 0 0 .45h.011zm-2.835 0a7.9 7.9 0 0 0 -.55-2.846h2.145a6.35 6.35 0 0 1 .782 2.846zm-10.375.45h2.466a7.8 7.8 0 0 0 .564 2.847h-2.25a6.3 6.3 0 0 1 -.78-2.847m6.284-3.746h-2.5a7.7 7.7 0 0 1 2.5-2.466zm.45-2.465a7.1 7.1 0 0 1 2.388 2.465h-2.388zm-.45 2.915v2.846h-3.369a6.8 6.8 0 0 1 .645-2.846zm-3.819 2.846h-2.465a6.34 6.34 0 0 1 .779-2.846h2.287a7.4 7.4 0 0 0 -.601 2.846m.451.45h3.368v2.847h-2.749a7.3 7.3 0 0 1 -.619-2.847m3.368 3.3v2.61a7.46 7.46 0 0 1 -2.532-2.612zm.45 0h2.352a7.35 7.35 0 0 1 -2.352 2.494zm0-.451v-2.849h3.191a7.3 7.3 0 0 1 -.619 2.847zm0-3.3v-2.845h2.6a7.3 7.3 0 0 1 .59 2.846zm4.962-3.3h-2.086a7.43 7.43 0 0 0 -2.621-2.829 6.39 6.39 0 0 1 4.707 2.834zm-5.644-2.839a8 8 0 0 0 -2.759 2.844h-2.241a6.38 6.38 0 0 1 5-2.844m-5 9.888h2.2a7.65 7.65 0 0 0 2.558 2.833 6.39 6.39 0 0 1 -4.758-2.833m5.99 2.826a7.65 7.65 0 0 0 2.548-2.826h2.1a6.39 6.39 0 0 1 -4.646 2.826zm4.925-3.277h-2.156a7.8 7.8 0 0 0 .564-2.847h2.377a6.35 6.35 0 0 1 -.783 2.847z" fill="#83b9f9"/><path d="m11.031 9.684a1.5 1.5 0 0 0 -.663.154l-4.04-4.976a1.573 1.573 0 1 0 -.707.548l4.079 5.028a1.54 1.54 0 0 0 -.23.8 1.557 1.557 0 1 0 1.557-1.557z" fill="#42e8ca"/></svg>