<svg height="48" viewBox="0 0 48 48" width="48" xmlns="http://www.w3.org/2000/svg"><path d="m24.933 38.213h12.741v-2h-12.741zm0-9.91h12.741v-2h-12.741zm0-9.91h12.741v-2h-12.741zm-5.372 19.944h2.247v-2.247h-2.247zm-1 2h4.247a1 1 0 0 0 1-1v-4.247a1 1 0 0 0 -1-1h-4.247a1 1 0 0 0 -1 1v4.247a1 1 0 0 0 1 1m1-11.91h2.247v-2.247h-2.247zm-1 2h4.247a1 1 0 0 0 1-1v-4.247a1 1 0 0 0 -1-1h-4.247a1 1 0 0 0 -1 1v4.247a1 1 0 0 0 1 1m1-11.91h2.247v-2.247h-2.247zm-1 2h4.247a1 1 0 0 0 1-1v-4.247a1 1 0 0 0 -1-1h-4.247a1 1 0 0 0 -1 1v4.247a1 1 0 0 0 1 1m-2.538 23.483h23.483v-31.978h-23.483zm-2.001-32.977v28.73h-2.247v-31.977h23.484v2.247h-20.237a1 1 0 0 0 -1 1m-4.247-4.247v29.202h-1.775v-31.978h23.483v1.776h-20.708a1 1 0 0 0 -1 1m30.731 3.247h-3.247v-3.247a1 1 0 0 0 -1-1h-2.776v-2.776a1 1 0 0 0 -1-1h-25.483a1 1 0 0 0 -1 1v33.978a1 1 0 0 0 1 1h2.775v2.775a1 1 0 0 0 1 1h3.247v3.247a1 1 0 0 0 1 1h25.484a1 1 0 0 0 1-1v-33.977a1 1 0 0 0 -1-1" fill="#ed7100" fill-rule="evenodd"/></svg>