<svg viewBox="0 0 24 24" xmlns="http://www.w3.org/2000/svg"><path d="m9.365 11.237 3.394 3.361v-5.07h-.778v3.16l-3.401-3.282v5.077h.779v-3.213zm-4.497 3.245v-4.954h2.79v.773h-2.012v1.164h1.558v.772h-1.558v1.472h1.999v.773zm15.712-3.252 3.42 3.35v-5.052h-.779v3.2l-.005-.015-3.422-3.311v5.08h.79v-3.234l-.003-.019m-19.801 2.518v-3.503h.688s1.755-.032 1.755 1.77c0 1.647-1.593 1.733-1.593 1.733zm-.78-4.22v4.955h1.655s2.336-.193 2.336-2.496c0-2.374-2.343-2.458-2.343-2.458h-1.648zm14.416 2.452c0 .552.187 1.006.56 1.361.713.724 1.931.702 2.618-.01.724-.689.724-1.991.007-2.676-.675-.726-1.966-.724-2.645 0-.36.357-.54.8-.54 1.325zm-.764-.01c0-.702.26-1.306.777-1.81.981-1.004 2.724-1.016 3.702.006 1.026.965 1.032 2.706-.003 3.66-.961.964-2.596 1.015-3.624.084-.568-.493-.852-1.14-.852-1.94z"/></svg>