<svg xmlns="http://www.w3.org/2000/svg" width="68.165" height="66.143" viewBox="0 0 18.035 17.5"><path fill="#326ce5" d="M8.957.463a1.137 1.127 0 0 0-.434.11l-5.94 2.838a1.137 1.127 0 0 0-.615.764L.503 10.551a1.137 1.127 0 0 0 .154.862 1.137 1.127 0 0 0 .065.09l4.11 5.113a1.137 1.127 0 0 0 .89.423l6.592-.001a1.137 1.127 0 0 0 .888-.423l4.11-5.113a1.137 1.127 0 0 0 .219-.953l-1.468-6.374a1.137 1.127 0 0 0-.614-.764L9.51.572a1.137 1.127 0 0 0-.551-.11"/><path fill="#fff" d="M-6.852 3.818a1.181 1.172 0 0 0-.452.115l-6.18 2.951a1.181 1.172 0 0 0-.638.795l-1.524 6.63a1.181 1.172 0 0 0 .16.9 1.181 1.172 0 0 0 .067.093l4.276 5.317a1.181 1.172 0 0 0 .924.44h6.858a1.181 1.172 0 0 0 .923-.44L1.837 15.3a1.181 1.172 0 0 0 .228-.99L.54 7.677a1.181 1.172 0 0 0-.64-.795l-6.178-2.95a1.181 1.172 0 0 0-.573-.115m.003.455a1.12 1.11 0 0 1 .542.108l5.853 2.795a1.12 1.11 0 0 1 .606.753l1.446 6.281a1.12 1.11 0 0 1-.216.94l-4.05 5.037a1.12 1.11 0 0 1-.875.417l-6.496.001a1.12 1.11 0 0 1-.875-.417l-4.05-5.037a1.12 1.11 0 0 1-.064-.088 1.12 1.11 0 0 1-.152-.851l1.444-6.281a1.12 1.11 0 0 1 .605-.753l5.853-2.797a1.12 1.11 0 0 1 .429-.108" color="#000" font-family="Sans" font-weight="400" overflow="visible" style="line-height:normal;-inkscape-font-specification:Sans;text-indent:0;text-align:start;text-decoration-line:none;text-transform:none;marker:none" transform="translate(15.909 -3.873)scale(1.01489)"/><text xml:space="preserve" x="10.048" y="16.812" fill="#fff" stroke-width=".265" font-family="Sans" font-size="10.583" font-weight="400" letter-spacing="0" style="line-height:6.61458349px" transform="translate(-.993 -1.174)" word-spacing="0"><tspan x="10.048" y="16.812" font-family="Arial" font-size="2.822" style="-inkscape-font-specification:&quot;Arial, Normal&quot;;text-align:center" text-anchor="middle">c-m</tspan></text><path fill="#fff" d="M8.999 3.273c-.138-.004-3.995 1.892-4.045 1.989-.122.234-1 4.281-.948 4.369.03.05.662.852 1.405 1.78l1.35 1.688 2.221.001 2.222.001 1.413-1.765L14.03 9.57l-.494-2.168c-.272-1.193-.516-2.189-.54-2.213-.07-.067-3.922-1.913-3.997-1.916m.236 1.983c.187.008.206.291.606.321.521.04.465-.446.864-.108.4.338-.089.362.035.87.124.509.569.306.37.79s-.372.027-.817.302-.114.635-.636.596-.14-.346-.54-.684c-.398-.338-.64.087-.764-.42-.124-.509.286-.242.485-.726.198-.484-.282-.58.163-.856a.7.7 0 0 1 .142-.07.3.3 0 0 1 .092-.015m.522.572a.758.758 0 0 0-.73.976.757.757 0 1 0 .73-.976M6.764 7.13q.06 0 .149.027c.48.147-.008.4.334.767s.628-.101.741.388c.112.49-.35.193-.497.673s.401.494.034.836-.342-.206-.831-.094c-.49.113-.227.595-.707.448s.008-.4-.334-.767-.629.1-.741-.389c-.113-.489.35-.193.497-.672s-.402-.494-.035-.836c.368-.342.342.206.832.094.428-.099.28-.48.558-.475m3.567.524q.068 0 .17.04c.554.214-.175.545.254.955.43.41.728-.332.967.21.24.544-.51.263-.497.856.013.594.75.28.535.832-.215.554-.546-.175-.956.254-.41.43.332.727-.211.967-.543.239-.261-.51-.855-.497-.593.013-.279.749-.832.534-.554-.214.175-.546-.254-.956s-.727.333-.966-.21c-.24-.543.51-.262.496-.855-.013-.594-.75-.28-.535-.833s.547.176.957-.253-.333-.728.21-.967c.543-.24.262.51.855.497.52-.012.344-.577.662-.574m-3.88.255a.757.757 0 1 0-.002 1.514.757.757 0 0 0 .001-1.514Zm3.253.725a1.116 1.116 0 1 0 0 2.231 1.115 1.115 0 0 0 0-2.23z"/></svg>