<svg xmlns="http://www.w3.org/2000/svg" width="18" height="18" viewBox="0 0 18 18"><defs><mask id="a"><path fill="#fff" d="M0 0h18v18H0z"/><path d="M12.792 11.801s3.901 3.871 3.481 4.251-4.507-3.002-4.507-3.002"/><path d="M9.731 4.769s.211-2.828.777-2.799.835 2.673.835 2.673"/><path d="M2.71 12.721S.561 14.899.181 14.479s1.279-2.785 1.279-2.785"/><path d="M17.839 11.415a3.87 3.87 0 0 0-3.396-3.705 4.933 4.933 0 0 0-5.079-4.769A5.06 5.06 0 0 0 4.527 6.24a4.67 4.67 0 0 0-4.102 4.488 4.74 4.74 0 0 0 4.905 4.557h8.368a.8.8 0 0 0 .213 0 3.957 3.957 0 0 0 3.928-3.87"/><path d="m9.149 7.799 2.002-2.006h-.549v.001l-.394.003c-.028-.267-.213-3.855.314-3.828q.015.001.03.005a.7.7 0 0 0-.221-.046c-.301-.017-.393-.006-.393-.006l-1.45.002a.484.484 0 0 0-.483.484l.012 3.389h-.874z"/><path d="m5.263 11.318-2.834.003.389.388.281.277c-.17.209-2.575 2.877-2.929 2.485q-.01-.012-.018-.025c.024.056.061.12.124.189.201.225.273.282.273.282l1.026 1.024a.484.484 0 0 0 .683 0l2.388-2.405.619.617-.004-2.834z"/><path d="m13.112 10.97.003 2.834.388-.389.277-.281c.209.17 2.877 2.575 2.485 2.929l-.025.018a.7.7 0 0 0 .189-.124c.225-.201.282-.273.282-.273l1.024-1.026a.484.484 0 0 0 0-.683l-2.405-2.388.617-.619-2.834.004z"/></mask></defs><path fill="currentColor" d="M6.761 8.783h4.705v6.509H6.761z" mask="url(#a)"/></svg>