<svg xmlns="http://www.w3.org/2000/svg" id="uuid-3bcd59b7-b982-4530-9b12-16dc944179bc" width="18" height="18" viewBox="0 0 18 18"><defs><linearGradient id="uuid-f654a14c-da11-4086-a7e2-2585a942e5e3" x1="-661.798" x2="-663.559" y1="1161.046" y2="1162.548" gradientTransform="rotate(194.936 -399.375 543.527)" gradientUnits="userSpaceOnUse"><stop offset="0" stop-color="#ef7100"/><stop offset=".999" stop-color="#d15900"/></linearGradient><linearGradient id="uuid-75c00a6c-beb2-4280-9afa-7d85978f0e13" x1="-903.02" x2="-904.17" y1="309.825" y2="310.806" gradientTransform="rotate(59.936 -180.505 949.466)" gradientUnits="userSpaceOnUse"><stop offset="0" stop-color="#ef7100"/><stop offset=".999" stop-color="#d15900"/></linearGradient><linearGradient id="uuid-19c3d12e-6505-45d2-a731-d035f1886200" x1="-188.087" x2="-189.386" y1="763.136" y2="764.243" gradientTransform="rotate(-75.064 -582.07 264.823)" gradientUnits="userSpaceOnUse"><stop offset="0" stop-color="#ef7100"/><stop offset=".999" stop-color="#d15900"/></linearGradient><linearGradient id="uuid-e57b4c06-4bab-4a2f-8cce-7a202bae37db" x1="-2.028" x2="-2.028" y1="776.223" y2="788.578" gradientTransform="matrix(1 0 0 -1 11.16 791.516)" gradientUnits="userSpaceOnUse"><stop offset="0" stop-color="#0078d4"/><stop offset=".82" stop-color="#5ea0ef"/></linearGradient><linearGradient id="uuid-7d07a31b-8a0e-42b0-8f32-6567287426b8" x1="-904.985" x2="-900.003" y1="309.842" y2="314.824" gradientTransform="rotate(59.936 -180.505 949.466)" gradientUnits="userSpaceOnUse"><stop offset="0" stop-color="#ffb045"/><stop offset=".999" stop-color="#f27a0d"/></linearGradient><linearGradient id="uuid-f249ce78-c1a5-4281-91db-67c2441e6acd" x1="-190.264" x2="-185.282" y1="763.24" y2="768.222" gradientTransform="rotate(-75.064 -582.07 264.823)" gradientUnits="userSpaceOnUse"><stop offset="0" stop-color="#ffb045"/><stop offset=".999" stop-color="#f27a0d"/></linearGradient><linearGradient id="uuid-2c289424-fe9f-4806-8523-bbb6c4954ff9" x1="-665.181" x2="-660.199" y1="1160.668" y2="1165.65" gradientTransform="rotate(194.936 -399.375 543.527)" gradientUnits="userSpaceOnUse"><stop offset="0" stop-color="#ffb045"/><stop offset=".999" stop-color="#f27a0d"/></linearGradient></defs><path fill="url(#uuid-f654a14c-da11-4086-a7e2-2585a942e5e3)" d="M12.792 11.801s3.901 3.871 3.481 4.251-4.507-3.002-4.507-3.002"/><path fill="url(#uuid-75c00a6c-beb2-4280-9afa-7d85978f0e13)" d="M9.731 4.769s.211-2.828.777-2.799.835 2.673.835 2.673"/><path fill="url(#uuid-19c3d12e-6505-45d2-a731-d035f1886200)" d="M2.71 12.721S.561 14.899.181 14.479s1.279-2.785 1.279-2.785"/><path fill="url(#uuid-e57b4c06-4bab-4a2f-8cce-7a202bae37db)" d="M17.839 11.415a3.87 3.87 0 0 0-3.396-3.705 4.933 4.933 0 0 0-5.079-4.769A5.06 5.06 0 0 0 4.527 6.24a4.67 4.67 0 0 0-4.102 4.488 4.74 4.74 0 0 0 4.905 4.557h8.368a.8.8 0 0 0 .213 0 3.957 3.957 0 0 0 3.928-3.87"/><path id="uuid-f486a37f-19ad-4b02-b687-cdec05afa624" fill="#f2f2f2" d="M6.761 8.783h4.705v6.509H6.761z"/><path fill="url(#uuid-7d07a31b-8a0e-42b0-8f32-6567287426b8)" d="m9.149 7.799 2.002-2.006h-.549v.001l-.394.003c-.028-.267-.213-3.855.314-3.828q.015.001.03.005a.7.7 0 0 0-.221-.046c-.301-.017-.393-.006-.393-.006l-1.45.002a.484.484 0 0 0-.483.484l.012 3.389h-.874z"/><path fill="url(#uuid-f249ce78-c1a5-4281-91db-67c2441e6acd)" d="m5.263 11.318-2.834.003.389.388.281.277c-.17.209-2.575 2.877-2.929 2.485q-.01-.012-.018-.025c.024.056.061.12.124.189.201.225.273.282.273.282l1.026 1.024a.484.484 0 0 0 .683 0l2.388-2.405.619.617-.004-2.834Z"/><path fill="url(#uuid-2c289424-fe9f-4806-8523-bbb6c4954ff9)" d="m13.112 10.97.003 2.834.388-.389.277-.281c.209.17 2.877 2.575 2.485 2.929q-.013.01-.025.018a.7.7 0 0 0 .189-.124c.225-.201.282-.273.282-.273l1.024-1.026a.484.484 0 0 0 0-.683l-2.405-2.388.617-.619-2.834.004Z"/></svg>