<svg height="18" viewBox="0 0 18 18" width="18" xmlns="http://www.w3.org/2000/svg" xmlns:xlink="http://www.w3.org/1999/xlink"><linearGradient id="a"><stop offset="0" stop-color="#ef7100"/><stop offset=".999" stop-color="#d15900"/></linearGradient><linearGradient id="b" gradientTransform="matrix(-.96621433 -.25773993 .25773993 -.96621433 -925.34546 965.755688)" gradientUnits="userSpaceOnUse" x1="-661.798" x2="-663.559" xlink:href="#a" y1="1161.046" y2="1162.548"/><linearGradient id="c" gradientTransform="matrix(.50096705 .86546636 -.86546636 .50096705 731.652938 630.035826)" gradientUnits="userSpaceOnUse" x1="-903.02" x2="-904.17" xlink:href="#a" y1="309.825" y2="310.806"/><linearGradient id="d" gradientTransform="matrix(.25773993 -.96621433 .96621433 .25773993 -687.923093 -365.836836)" gradientUnits="userSpaceOnUse" x1="-188.087" x2="-189.386" xlink:href="#a" y1="763.136" y2="764.243"/><linearGradient id="e" gradientTransform="matrix(1 0 0 -1 11.16 791.516)" gradientUnits="userSpaceOnUse" x1="-2.028" x2="-2.028" y1="776.223" y2="788.578"><stop offset="0" stop-color="#0078d4"/><stop offset=".82" stop-color="#5ea0ef"/></linearGradient><linearGradient id="f"><stop offset="0" stop-color="#ffb045"/><stop offset=".999" stop-color="#f27a0d"/></linearGradient><linearGradient id="g" gradientTransform="matrix(.50096705 .86546636 -.86546636 .50096705 731.652938 630.035826)" gradientUnits="userSpaceOnUse" x1="-904.985" x2="-900.003" xlink:href="#f" y1="309.842" y2="314.824"/><linearGradient id="h" gradientTransform="matrix(.25773993 -.96621433 .96621433 .25773993 -687.923093 -365.836836)" gradientUnits="userSpaceOnUse" x1="-190.264" x2="-185.282" xlink:href="#f" y1="763.24" y2="768.222"/><linearGradient id="i" gradientTransform="matrix(-.96621433 -.25773993 .25773993 -.96621433 -925.34546 965.755688)" gradientUnits="userSpaceOnUse" x1="-665.181" x2="-660.199" xlink:href="#f" y1="1160.668" y2="1165.65"/><path d="m12.792 11.801s3.901 3.871 3.481 4.251-4.507-3.002-4.507-3.002" fill="url(#b)"/><path d="m9.731 4.769s.211-2.828.777-2.799.835 2.673.835 2.673" fill="url(#c)"/><path d="m2.71 12.721s-2.149 2.178-2.529 1.758 1.279-2.785 1.279-2.785" fill="url(#d)"/><path d="m17.839 11.415a3.87 3.87 0 0 0 -3.396-3.705 4.933 4.933 0 0 0 -5.079-4.769 5.06 5.06 0 0 0 -4.837 3.299 4.67 4.67 0 0 0 -4.102 4.488 4.74 4.74 0 0 0 4.905 4.557h8.368a.8.8 0 0 0 .213 0 3.957 3.957 0 0 0 3.928-3.87" fill="url(#e)"/><path d="m6.761 8.783h4.705v6.509h-4.705z" fill="#f2f2f2"/><path d="m9.149 7.799 2.002-2.006h-.549v.001l-.394.003c-.028-.267-.213-3.855.314-3.828q.015.001.03.005a.7.7 0 0 0 -.221-.046c-.301-.017-.393-.006-.393-.006l-1.45.002a.484.484 0 0 0 -.483.484l.012 3.389h-.874z" fill="url(#g)"/><path d="m5.263 11.318-2.834.003.389.388.281.277c-.17.209-2.575 2.877-2.929 2.485q-.01-.012-.018-.025c.024.056.061.12.124.189.201.225.273.282.273.282l1.026 1.024a.484.484 0 0 0 .683 0l2.388-2.405.619.617-.004-2.834z" fill="url(#h)"/><path d="m13.112 10.97.003 2.834.388-.389.277-.281c.209.17 2.877 2.575 2.485 2.929q-.013.01-.025.018a.7.7 0 0 0 .189-.124c.225-.201.282-.273.282-.273l1.024-1.026a.484.484 0 0 0 0-.683l-2.405-2.388.617-.619-2.834.004z" fill="url(#i)"/></svg>