<svg xmlns="http://www.w3.org/2000/svg" fill="currentColor" viewBox="0 0 24 24"><path fill="currentColor" d="M11.373 1.94 10.36 1.2h1.253L12 0l.387 1.2h1.253l-1.013.74.386 1.207L12 2.4l-1.013.747zm1.254 20.86.386 1.2L12 23.26l-1.013.74.386-1.2-1.013-.74h1.253L12 20.853l.387 1.207h1.253zM1.64 12.8l-1.013.747.386-1.2L0 11.627h1.253l.387-1.2.387 1.2h1.26l-1.02.746.386 1.2-1.013-.746zm5.807-9.467.386 1.2L6.82 3.8l-1.013.74.386-1.2L5.18 2.6h1.253l.387-1.2.387 1.2H8.46zm-4.78 3.08.386-1.2.394 1.2h1.22l-1.014.747.387 1.2-1.02-.747L2 8.36l.387-1.2-1.014-.747zM1.387 16.84h1.28l.386-1.2.394 1.2h1.22l-1.014.747.387 1.2-1.02-.74-1.02.74.387-1.2-1.014-.747zm4.806 4.56-1.013-.733h1.253l.387-1.2.387 1.2H8.46l-1.013.733.386 1.2-1.013-.74-1.013.74zm16.794-9.027.386 1.2-1.013-.746-1.027.746.387-1.2-1.02-.746H22l.387-1.2.386 1.2H24zm-6.434-9.04L15.54 2.6h1.253l.387-1.2.387 1.2h1.253l-1.013.733.386 1.2L17.18 3.8l-1.013.74.386-1.2zm4 3.074.394-1.2.386 1.2h1.254l-.987.753.387 1.2-1.014-.747-1.02.747.387-1.2-1.007-.747zm.78 10.433h1.254l-.987.747.387 1.2-1.014-.74-1.02.74.387-1.2-1.007-.747h1.254l.393-1.2.387 1.2zm-2.513 3.827-1.013.733.386 1.2-1.013-.74-1.013.74.386-1.2-1.013-.733h1.253l.387-1.2.387 1.2z"/></svg>