<svg viewBox="0 0 128 128" xmlns="http://www.w3.org/2000/svg" xmlns:xlink="http://www.w3.org/1999/xlink"><linearGradient id="a" gradientUnits="userSpaceOnUse" x1="92.117313" x2="14.986693" y1="41.117504" y2="41.117504"><stop offset="0" stop-color="#21d789"/><stop offset=".917" stop-color="#fcf84a"/></linearGradient><linearGradient id="b" gradientUnits="userSpaceOnUse" x1="95.193665" x2="95.193665" y1="39.410601" y2="135.672786"><stop offset="0" stop-color="#21d789"/><stop offset="1" stop-color="#087cfa"/></linearGradient><linearGradient id="c" gradientUnits="userSpaceOnUse" x1="158.866881" x2="45.081125" y1="127.121545" y2="34.395347"><stop offset=".105" stop-color="#21d789"/><stop offset=".967" stop-color="#087cfa"/></linearGradient><linearGradient id="d" gradientUnits="userSpaceOnUse" x1="106.424168" x2="26.222287" y1="-3.139057" y2="87.756602"><stop offset=".235" stop-color="#21d789"/><stop offset=".74" stop-color="#087cfa"/></linearGradient><linearGradient id="e" gradientUnits="userSpaceOnUse" x1="63.905055" x2="63.905055" y1="11.31107" y2="74.902105"><stop offset=".084" stop-color="#878585"/><stop offset=".538"/></linearGradient><path d="m80.605 5.816 2.305 47.274-58.91 23.273-18.184-47.031zm0 0" fill="url(#a)"/><path d="m122.184 33.453-50.91 22.063 9.331-49.7zm0 0" fill="#21d789"/><path d="m68.242 44.363 53.942-10.91v51.031l-37.094 13.942-15.153-13.82zm0 0" fill="url(#b)"/><path d="m45.816 29.453 37.22 5.758 39.148 48.82-37.579 14.516-14.5-14.395zm0 0" fill="url(#c)"/><path d="m29.816 5.816 53.094 29.336-18.305 87.032h-30.91l-26.785-27.637zm0 0" fill="url(#d)"/><path d="m99.453 28.547h-70.906v70.906h70.906zm0 0" fill="url(#e)"/><path d="m62.816 87.242h-26.39v4.332h26.39zm-26.09-49.605h10.368c8.41 0 14.086 5.672 14.086 13.105 0 7.434-5.672 13.301-14.086 13.301l-10.367.195zm5.868 5.476v15.844h4.5c4.695 0 8.02-3.129 8.02-7.824 0-4.696-3.13-8.02-8.02-8.02zm21.406 17.107 3.426-4.137c2.367 2.008 4.965 3.191 7.918 3.191 2.367 0 3.902-.945 3.902-2.48v-.121c0-1.535-.945-2.246-5.32-3.426-5.434-1.3-8.864-2.836-8.864-8.156v-.117c0-4.844 3.903-8.035 9.336-8.035 3.903 0 7.211 1.18 9.93 3.425l-3.074 4.375c-2.363-1.656-4.727-2.601-6.973-2.601s-3.426 1.062-3.426 2.363v.117c0 1.774 1.18 2.363 5.79 3.547 5.437 1.418 8.507 3.309 8.507 8.035v.121c0 5.317-4.015 8.27-9.808 8.27-4.016-.117-8.153-1.535-11.344-4.371zm0 0" fill="#fff"/></svg>