<svg xmlns="http://www.w3.org/2000/svg" viewBox="0 0 128 128"><linearGradient id="a" x1="92.117" x2="14.987" y1="41.118" y2="41.118" gradientUnits="userSpaceOnUse"><stop offset="0" stop-color="#21d789"/><stop offset=".917" stop-color="#fcf84a"/></linearGradient><linearGradient id="b" x1="95.194" x2="95.194" y1="39.411" y2="135.673" gradientUnits="userSpaceOnUse"><stop offset="0" stop-color="#21d789"/><stop offset="1" stop-color="#087cfa"/></linearGradient><linearGradient id="c" x1="158.867" x2="45.081" y1="127.122" y2="34.395" gradientUnits="userSpaceOnUse"><stop offset=".105" stop-color="#21d789"/><stop offset=".967" stop-color="#087cfa"/></linearGradient><linearGradient id="d" x1="106.424" x2="26.222" y1="-3.139" y2="87.757" gradientUnits="userSpaceOnUse"><stop offset=".235" stop-color="#21d789"/><stop offset=".74" stop-color="#087cfa"/></linearGradient><linearGradient id="e" x1="63.905" x2="63.905" y1="11.311" y2="74.902" gradientUnits="userSpaceOnUse"><stop offset=".084" stop-color="#878585"/><stop offset=".538"/></linearGradient><path fill="url(#a)" d="M80.605 5.816 82.91 53.09 24 76.363 5.816 29.332zm0 0"/><path fill="#21d789" d="m122.184 33.453-50.91 22.063 9.331-49.7zm0 0"/><path fill="url(#b)" d="m68.242 44.363 53.942-10.91v51.031L85.09 98.426l-15.153-13.82zm0 0"/><path fill="url(#c)" d="m45.816 29.453 37.22 5.758 39.148 48.82-37.579 14.516-14.5-14.395zm0 0"/><path fill="url(#d)" d="M29.816 5.816 82.91 35.152l-18.305 87.032h-30.91L6.91 94.547zm0 0"/><path fill="url(#e)" d="M99.453 28.547H28.547v70.906h70.906zm0 0"/><path fill="#fff" d="M62.816 87.242h-26.39v4.332h26.39zm-26.09-49.605h10.368c8.41 0 14.086 5.672 14.086 13.105s-5.672 13.301-14.086 13.301l-10.367.195zm5.868 5.476v15.844h4.5c4.695 0 8.02-3.129 8.02-7.824s-3.13-8.02-8.02-8.02zM64 60.22l3.426-4.137c2.367 2.008 4.965 3.191 7.918 3.191 2.367 0 3.902-.945 3.902-2.48v-.121c0-1.535-.945-2.246-5.32-3.426-5.434-1.3-8.864-2.836-8.864-8.156v-.117c0-4.844 3.903-8.035 9.336-8.035 3.903 0 7.211 1.18 9.93 3.425l-3.074 4.375c-2.363-1.656-4.727-2.601-6.973-2.601s-3.426 1.062-3.426 2.363v.117c0 1.774 1.18 2.363 5.79 3.547 5.437 1.418 8.507 3.309 8.507 8.035v.121c0 5.317-4.015 8.27-9.808 8.27-4.016-.117-8.153-1.535-11.344-4.371m0 0"/></svg>