<svg height="18" viewBox="0 0 18 18" width="18" xmlns="http://www.w3.org/2000/svg"><path d="m15.434 9.798-1.71 1.01-1.72 1-3.01 1.77-3-1.77-1.71-1-1.72-1.01 1.35-.79 5.08 2.98 5.09-2.98z" fill="#a33a85"/><path d="m15.434 9.798v1.72l-6.44 3.78-6.43-3.78v-1.72l1.72 1.01 1.71 1 3 1.77 3.01-1.77 1.72-1z" fill="#59285f"/><path d="m15.434 6.488-1.71 1-1.11.65-.61.36-3.01 1.76-3-1.76-.61-.36-1.1-.65-1.72-1 6.43-3.79z" fill="#a33a85"/><path d="m15.434 6.488v1.72l-1.35.8-5.09 2.98-5.08-2.98-1.35-.8v-1.72l1.72 1 1.1.65.61.36 3 1.76 3.01-1.76.61-.36 1.11-.65z" fill="#59285f"/><path d="m16.755 4.794v8.416a.56.56 0 0 1 -.281.49l-7.186 4.222a.57.57 0 0 1 -.288.078v-8.978l7.679-4.51a.57.57 0 0 1 .076.282" fill="#a33a85" opacity=".6"/><path d="m16.68 4.512-7.68 4.499v.011l-7.68-4.511a.55.55 0 0 1 .206-.211l7.192-4.225a.57.57 0 0 1 .57 0l7.189 4.227a.57.57 0 0 1 .203.21" fill="#dc92bf" opacity=".6"/><path d="m9 9.022v8.978a.55.55 0 0 1 -.284-.077l-7.19-4.223a.56.56 0 0 1 -.281-.49v-8.419a.56.56 0 0 1 .075-.28z" fill="#ce74b6" opacity=".6"/></svg>