<svg viewBox="0 0 128 128" xmlns="http://www.w3.org/2000/svg"><path d="m51.3 17.7h-28.1c-5.6 0-10.2 4.6-10.2 10.3-.2 5.5 4.2 10.1 9.7 10.3h28.9z" fill="#073042"/><path d="m115 109.3h-91.8c-5.7 0-10.2-4.6-10.2-10.3v-71.1c0 5.7 4.6 10.3 10.2 10.4h76.9s15-1.3 15 10v61z" fill="#4285f4"/><path d="m72.2 72.9c4.1-3.1 4.9-8.9 1.8-12.9-1.7-2.2-4.3-3.6-7.1-3.7h.3c.5-.1 1.1-.1 1.6 0v-5.7c0-.7-.3-1.3-.9-1.6-.9-.5-2-.2-2.5.7-.2.3-.3.6-.2 1v5.8c-5 .8-8.5 5.5-7.7 10.6v.1c.4 2.4 1.7 4.6 3.7 6l-16.9 36.2h11l7.8-16.6c.9-2 3.3-2.9 5.4-1.9.8.4 1.5 1.1 1.9 1.9l8.1 16.6h11.2zm-5.7-1.6c-3.2 0-5.7-2.6-5.7-5.8s2.6-5.7 5.8-5.6c1.5 0 2.8.6 3.9 1.6 2.3 2.2 2.3 5.8.1 8.1-1 1-2.5 1.7-4.1 1.7z" fill="#3870b2"/><path d="m45.2 22.7h39.4v7.2h-39.4z" fill="#fff"/><path d="m63.5 59.8c3.1 0 5.7 2.6 5.6 5.8 0 3.1-2.6 5.7-5.8 5.6-3.1 0-5.6-2.6-5.6-5.7 0-1.5.6-2.9 1.7-4s2.6-1.7 4.1-1.7zm2.2-3.3v-6c0-.7-.3-1.3-.9-1.6-.9-.5-2-.2-2.5.7-.2.3-.3.6-.2 1v5.8c-5 .8-8.5 5.5-7.7 10.6v.1c.4 2.4 1.7 4.6 3.7 6l-21.3 45.7c-.8 1.6-.7 3.6.4 5.1 1.6 2.3 4.7 2.9 7 1.3.8-.5 1.4-1.3 1.8-2.1l14.2-30.4c.9-2 3.3-2.9 5.4-1.9.8.4 1.5 1.1 1.9 1.9l14.5 30.1c1.2 2.5 4.2 3.5 6.7 2.3s3.5-4.2 2.3-6.7l-21.9-45.5c4-3.2 4.7-9.1 1.5-13.1-1.2-1.6-2.9-2.7-4.9-3.3" fill="#073042"/><path d="m78.8 29.1c-1.5 0-2.7-1.1-2.7-2.6 0-.7.3-1.5.8-2 1.1-1 2.7-1 3.8 0 .5.5.8 1.2.8 1.9-.1 1.5-1.2 2.6-2.7 2.7m-29.6-.1c-1.5 0-2.7-1.2-2.7-2.6 0-.7.3-1.4.8-1.9.9-1.1 2.6-1.3 3.7-.4h.1c1.1 1 1.2 2.7.2 3.8l-.3.4c-.5.5-1.2.8-1.9.8m30.5-16.2 5.3-9.2c.3-.5.1-1.1-.3-1.5-.5-.2-1-.1-1.3.3l-5.5 9.5c-8.8-3.9-18.8-3.9-27.5 0l-5.4-9.4c-.2-.3-.6-.6-1-.6s-.8.2-1 .6c-.2.3-.2.8 0 1.1l5.4 9.2c-9.4 5.1-15.5 14.7-16.4 25.3h64.2c-.8-10.7-7-20.2-16.4-25.3" fill="#3ddc84"/><path d="m105.6 58.1h-4.2c-.2.1-.4.3-.4.6v66.5c0 .3.2.5.5.5h4.4c5.1 0 9.2-4.2 9.2-9.2v-67.7c0 5.1-4.1 9.2-9.2 9.2h-.3z" fill="#073042"/></svg>