<svg xmlns="http://www.w3.org/2000/svg" xml:space="preserve" id="svg2" width="220" height="62" viewBox="0 0 220 62"><g id="g10" transform="matrix(1.25 0 0 -1.25 -386 417.808)"><g id="g3062"><path id="path22" d="M324.647 303.396c-3.946 0-5.63 1.947-5.63 10.628s1.684 10.68 5.63 10.68c3.894 0 5.63-1.947 5.63-10.68s-1.736-10.628-5.63-10.628m0 28.937c-10.943 0-15.047-5.787-15.047-18.31 0-12.52 4.104-18.256 15.047-18.256 10.891 0 14.942 5.735 14.942 18.257s-4.05 18.309-14.942 18.309" fill="#1b5faa" fill-opacity="1" fill-rule="nonzero" stroke="none"/><path id="path26" d="M402.012 322.6c-1.842 0-3.789-.474-5.104-1.21h-.052v11.995h-8.419v-37.091h8.419v17.888c1.157.842 2.63 1.42 3.788 1.42 1.052 0 1.473-.42 1.473-1.473v-17.835h8.418v19.36c0 5.368-4.315 6.946-8.523 6.946" fill="#1b5faa" fill-opacity="1" fill-rule="nonzero" stroke="none"/><path id="path30" d="M476.477 312.288h-5.578c.105 2.42.474 4.314 3.052 4.314 2.157 0 2.526-1.947 2.526-3.84zm7.523-1c0 6.419-2.683 11.312-10.101 11.312-8.892 0-11.68-5.051-11.68-13.89 0-8.05 3.209-12.943 12.995-12.943 1.788 0 5.787.316 7.786 1l-.316 6.734c-1.473-.42-4.26-.894-6.102-.894-5.156 0-5.63 1.526-5.63 4.367H484z" fill="#1b5faa" fill-opacity="1" fill-rule="nonzero" stroke="none"/><path id="path34" d="m382.515 311.025-5.367 2.525c-.789.369-1.262.58-1.262 1.316 0 .789.578 1.052 2.578 1.052.684 0 4.209-.105 6.366-.474l.315 6.682c-2.156.368-5.471.474-6.892.474-6.366 0-10.943-2.105-10.943-7.892 0-3.946 2.157-6.314 4.84-7.471l4.84-2.157c.948-.421 1.368-.842 1.368-1.368 0-.842-.523-.805-2.417-.805-1.423 0-4.358 0-7.216-.002v.002h-4.415v12.748c0 5.367-4.314 6.945-8.523 6.945-2.736 0-5.209-.947-6.892-2.158h-.053l-.473 1.631h-6.156v-25.78h8.418v17.889c1.157.842 2.63 1.42 3.788 1.42 1.052 0 1.473-.421 1.473-1.473v-17.836h6.279l17.67-.011c4.145.739 6.988 3.049 6.988 7.798 0 3.63-1.841 5.788-4.314 6.945" fill="#1b5faa" fill-opacity="1" fill-rule="nonzero" stroke="none"/><path id="path38" d="M448.538 302.679c-.734-.065-1.841-.007-2.473.203v11.773c.684.526 1.842 1.053 3.157 1.053 2 0 2.999-1.158 2.999-6.63 0-4.42-.916-6.156-3.683-6.4m-23.308.455c-.631-.578-1.841-.947-2.63-.947-1.58 0-2.316.842-2.316 2.526 0 .263.053 1.052.526 1.525.737.737 2.42.79 4.42.79zm26.36 19.467c-2.368 0-5.261-.526-7.26-2.157h-.053l-.474 1.63h-6.155v-19.17h-4.21v12.647c0 5.261-4.84 7.05-10.47 7.05-2.263 0-5.998-.316-9.103-1.052l.316-6.787c3.526.736 7.156 1 8.419 1 1.63 0 2.525-.422 2.525-1.947v-1.42c-3.893 0-8.944-.527-11.101-2.684-1.526-1.526-2.053-3.63-2.053-5.63 0-5.367 3.58-7.875 8.103-7.966 1.311-.026 3.662.042 6.124.18l11.45-.001v-10.785h8.417v10.576c1.052-.158 2.684-.211 3.736-.211 7.63 0 11.154 4.472 11.154 13.574 0 7.103-1.842 13.153-9.365 13.153" fill="#1b5faa" fill-opacity="1" fill-rule="nonzero" stroke="none"/></g></g></svg>