<svg xmlns="http://www.w3.org/2000/svg" width="220" height="62" viewBox="0 0 220 62"><path fill="#1b5faa" d="M19.809 38.563c-4.933 0-7.038-2.434-7.038-13.285s2.105-13.35 7.038-13.35c4.867 0 7.037 2.434 7.037 13.35s-2.17 13.285-7.037 13.285m0-36.171C6.13 2.392 1 9.625 1 25.279 1 40.93 6.13 48.1 19.809 48.1c13.613 0 18.677-7.169 18.677-22.821S33.424 2.392 19.81 2.392m96.705 12.166c-2.303 0-4.736.592-6.38 1.512h-.065V1.077H99.546V47.44h10.524V25.08c1.446-1.052 3.287-1.775 4.735-1.775 1.315 0 1.841.525 1.841 1.842V47.44h10.523v-24.2c0-6.71-5.394-8.683-10.654-8.683m93.081 12.891h-6.972c.131-3.025.592-5.393 3.815-5.393 2.696 0 3.157 2.434 3.157 4.8zm9.404 1.25c0-8.024-3.354-14.14-12.626-14.14-11.115 0-14.6 6.314-14.6 17.362 0 10.063 4.011 16.18 16.243 16.18 2.235 0 7.234-.396 9.733-1.25l-.395-8.418c-1.841.525-5.325 1.117-7.628 1.117-6.445 0-7.037-1.907-7.037-5.459H219zm-126.856.329-6.709-3.157c-.986-.46-1.578-.725-1.578-1.645 0-.986.723-1.315 3.223-1.315.855 0 5.261.132 7.957.593l.394-8.353c-2.695-.46-6.839-.592-8.615-.592-7.957 0-13.679 2.631-13.679 9.865 0 4.932 2.697 7.892 6.05 9.339l6.05 2.696c1.185.526 1.71 1.052 1.71 1.71 0 1.052-.653 1.006-3.02 1.006-1.78 0-5.448 0-9.02.003v-.003h-5.52V23.24c0-6.709-5.392-8.681-10.653-8.681-3.42 0-6.512 1.184-8.615 2.697h-.067l-.59-2.038h-7.696v32.225H52.29V25.08c1.446-1.053 3.287-1.775 4.735-1.775 1.315 0 1.841.526 1.841 1.84v22.296h7.849l22.087.013c5.181-.923 8.735-3.81 8.735-9.747 0-4.537-2.301-7.235-5.392-8.681m82.528 10.434c-.918.08-2.302.008-3.092-.255V24.49c.855-.657 2.303-1.316 3.947-1.316 2.5 0 3.748 1.448 3.748 8.288 0 5.525-1.145 7.695-4.604 8m-29.134-.57c-.79.723-2.302 1.185-3.288 1.185-1.975 0-2.895-1.053-2.895-3.158 0-.329.066-1.315.658-1.906.92-.921 3.025-.988 5.525-.988zm32.95-24.333c-2.96 0-6.577.658-9.075 2.696h-.067l-.592-2.037h-7.694V39.18h-5.262V23.371c0-6.577-6.05-8.813-13.088-8.813-2.829 0-7.497.395-11.379 1.315l.395 8.484c4.408-.92 8.945-1.25 10.524-1.25 2.038 0 3.156.527 3.156 2.434v1.775c-4.866 0-11.18.658-13.876 3.355-1.907 1.907-2.566 4.537-2.566 7.037 0 6.709 4.475 9.844 10.129 9.958 1.638.032 4.577-.053 7.655-.225h14.312v13.482h10.521v-13.22c1.315.198 3.355.264 4.67.264 9.538 0 13.943-5.59 13.943-16.968 0-8.878-2.303-16.441-11.706-16.441"/></svg>