<svg xmlns="http://www.w3.org/2000/svg" viewBox="0 0 51.74 70"><path fill="#c31a13" d="M0 24.81h51.74v-1.52c-.07-4.05-1.12-8.01-3.04-11.57l-.91-1.52H3.95a3.1 3.1 0 0 0-.91 1.52A25.1 25.1 0 0 0 0 23.29zm0 0"/><path fill="#fcbf2d" d="m2.28 56.76.76 1.52C6.24 64.37 12.93 70 25.87 70s19.48-5.48 22.83-11.71l.61-1.52H2.28zm0 0"/><path fill="#a2050d" d="M3.04 11.71H48.7C45.35 5.63 38.65 0 25.87 0S6.24 5.48 3.04 11.71m0 0"/><path fill="#f86920" d="M0 35v13.24h51.74V33.48H0zm0 0"/><path fill="#e22f19" d="M0 23.29h51.74V35H0z"/><path fill="#fa9326" d="M3.04 58.29H48.7a25.16 25.16 0 0 0 3.04-11.57H0c.07 4.05 1.12 8.01 3.04 11.57m0 0"/></svg>