<svg xmlns="http://www.w3.org/2000/svg" xmlns:xlink="http://www.w3.org/1999/xlink" viewBox="0 0 256 256">
  <defs>
    <mask id="wko">
      <rect width="256" height="256" fill="white"/>
      <rect width="148" height="96" x="54" y="53" fill="black" opacity=".32" rx="5.31"/>
      <rect width="148" height="96" x="54" y="53" fill="black" opacity=".24" rx="5.31"/>
    </mask>
  </defs>
  <g fill="currentColor" mask="url(#wko)">
    <rect width="224" height="224" x="16" y="16" fill="currentColor" rx="10.67"/>
    <path fill="currentColor" d="M32 32h192v192H32z"/>
  </g>
  <path fill="currentColor" d="M91 53h37v96H91z"/>
  <path fill="currentColor" d="M91 149H59.35a5.35 5.35 0 0 1-5.35-5.35v-85.3A5.35 5.35 0 0 1 59.35 53H91z"/>
  <path fill="currentColor" d="M128 53h37v96h-37z"/>
  <path fill="currentColor" d="M165 53h31.65c2.95 0 5.35 2.4 5.35 5.35v85.31c0 2.95-2.4 5.35-5.35 5.35H165z"/>
  <rect width="32" height="32" x="54" y="170" fill="currentColor" rx="4.67"/>
  <rect width="32" height="32" x="112" y="170" fill="currentColor" rx="4.67"/>
  <rect width="32" height="32" x="170" y="170" fill="currentColor" rx="4.67"/>
</svg>