<svg viewBox="0 0 256 256" xmlns="http://www.w3.org/2000/svg" xmlns:xlink="http://www.w3.org/1999/xlink"><linearGradient id="a" gradientUnits="userSpaceOnUse" x1="202.55" x2="53.45" y1="257.12" y2="-1.12"><stop offset="0" stop-color="#d7ccb3"/><stop offset="1" stop-color="#f2e6ca"/></linearGradient><linearGradient id="b" gradientUnits="userSpaceOnUse" x1="134.91" x2="84.09" y1="145.01" y2="56.99"><stop offset="0"/><stop offset="0" stop-color="#ffb900"/><stop offset="1" stop-color="#fef000"/></linearGradient><linearGradient id="c" gradientUnits="userSpaceOnUse" x1="98.76" x2="48.91" y1="144.52" y2="58.19"><stop offset="0"/><stop offset="0" stop-color="#d83b01"/><stop offset="1" stop-color="#ec6725"/></linearGradient><linearGradient id="d" gradientUnits="userSpaceOnUse" x1="171.91" x2="121.09" y1="145.01" y2="56.99"><stop offset="0"/><stop offset="0" stop-color="#56b60e"/><stop offset="1" stop-color="#66eb6e"/></linearGradient><linearGradient id="e" gradientUnits="userSpaceOnUse" x1="207.09" x2="157.24" y1="143.81" y2="57.48"><stop offset="0"/><stop offset="0" stop-color="#0078d4"/><stop offset="1" stop-color="#28afea"/></linearGradient><linearGradient id="f" x1="80.07" x2="59.93" xlink:href="#a" y1="203.45" y2="168.55"/><linearGradient id="g" x1="138.07" x2="117.93" xlink:href="#a" y1="203.45" y2="168.55"/><linearGradient id="h" x1="196.07" x2="175.93" xlink:href="#a" y1="203.45" y2="168.55"/><rect fill="url(#a)" height="224" rx="10.67" width="224" x="16" y="16"/><path d="m32 32h192v192h-192z" fill="#666"/><rect fill="#fff" height="96" opacity=".32" rx="5.31" width="148" x="54" y="53"/><rect fill="#fff" height="96" opacity=".24" rx="5.31" width="148" x="54" y="53"/><path d="m91 53h37v96h-37z" fill="url(#b)"/><path d="m91 149h-31.65a5.35 5.35 0 0 1 -5.35-5.35v-85.3a5.35 5.35 0 0 1 5.35-5.35h31.65z" fill="url(#c)"/><path d="m128 53h37v96h-37z" fill="url(#d)"/><path d="m165 53h31.65c2.95 0 5.35 2.4 5.35 5.35v85.31c0 2.95-2.4 5.35-5.35 5.35h-31.65z" fill="url(#e)"/><path d="m0 0h256v256h-256z" fill="none"/><rect fill="url(#f)" height="32" rx="4.67" width="32" x="54" y="170"/><rect fill="url(#g)" height="32" rx="4.67" width="32" x="112" y="170"/><rect fill="url(#h)" height="32" rx="4.67" width="32" x="170" y="170"/></svg>