<svg xmlns="http://www.w3.org/2000/svg" fill="currentColor" fill-rule="evenodd" viewBox="0 0 24 24"><path fill="currentColor" d="M19.956 10.178c-.063.576-.232 1.5-.838 2.35a3.66 3.66 0 0 1-2.162 1.447c-.265.03-.653.07-1.124.104-1.652.125-2.78.077-4.128.052-.894-.017-2.161-.028-3.719 0l-.03 7.856L5 22v-6.128c.004-1.218.01-2.953.034-5.108 1.44.004 9.657-.043 10.636.008.197.012.692.032 1.006-.326.208-.235.294-.613.3-1.178a28 28 0 0 0 0-1.325c-.03-1.038-.368-1.428-1.266-1.432-2.898-.004-5.799-.072-8.696 0-.414.008-1.113.02-1.993-.008V3c.41.008 1.112.024 1.986.016 4.133-.032 5.722-.004 8.526 0 2.826.004 4.461 1.928 4.461 5.244-.003.64.031 1.29-.038 1.918"/></svg>