<svg xmlns="http://www.w3.org/2000/svg" width="1000" height="684.206"><g fill="currentColor"><path d="M452.196 69.891c4.47 0 7.319-4.515 10.15-11.496 3.656-8.632 20.724-24.637 44.25-24.637 17.865 0 35.322 11.096 49.532 22.593 13.399 11.088 24.358 11.493 24.358 16.434 0 1.625-2.838 2.863-6.081 2.863-13.397 0-36.934-20.113-62.11-20.113-28.425 0-51.577 24.628-51.577 38.591 0 4.11 1.629 7.398 6.903 7.398 6.106 0 13.012-14.799 28.836-14.799 14.608 0 26.796 13.968 47.091 11.098 2.442-.41 3.243 3.275 1.6 4.116-40.588 22.979-83.607 44.755-83.607 117.437 0 55.843 31.26 109.654 100.265 109.654 71.875 0 106.375-46.82 106.375-109.654 0-54.205-32.856-104.291-77.128-104.291-1.622 0-3.24 0-4.88.403-2.848.807-5.286 3.265-5.286 6.975 0 4.505 1.23 5.758 4.074 7.787 28.429 20.141 38.191 39.855 38.191 94.475 0 38.589-15.854 81.458-55.662 81.458-43.028 0-61.3-46.15-61.3-87.614 0-48.058 12.187-70.655 42.242-93.219 32.455-24.657 71.058-36.156 71.058-58.745 0-11.072-11.788-13.134-19.508-13.54-6.901-.414-16.657-2.887-21.527-9.862C558.572 22.258 535.42.5 507.825.5c-39.382 0-62.54 41.886-62.54 57.488 0 6.175 1.212 11.903 6.912 11.903m393.08 61.649h6.235c1.855 0 4.335 1.884 4.961 4.71.929 2.523 1.238 4.088 1.238 12.278v140.56c0 8.462-.307 10.065-1.238 12.553-.628 2.208-2.791 4.09-4.961 4.09h-6.235c-4.334 0-7.76 3.777-7.76 8.503 0 6.905 3.425 9.119 13.995 9.119h121.861l5.932-.334c4.928-.306 6.507-1.549 8.662-6.906l9.028-21.052c1.865-4.406 2.505-7.242 2.505-8.815 0-4.408-3.12-7.537-8.094-7.537-4.054 0-5.594 1.244-9.316 6.897-6.224 9.141-12.128 13.845-19.303 15.076-5.28.96-13.375 1.287-28.891 1.287-16.493 0-22.676-.645-26.754-2.211-4.97-1.88-5.897-5.33-5.897-22V228.06c0-6.915.927-10.061 2.8-11.321 1.567-.93 3.73-1.238 12.73-1.238h24.273c8.089 0 12.088-3.775 12.088-11.025 0-7.542-3.094-10.356-12.088-10.356h-39.803v-40.274c0-16.65 1.887-18.84 18.962-18.84h20.841c19.578 0 25.475 2.19 31.724 11.3 2.169 2.846 3.395 4.726 3.714 5.368 1.237 1.242 2.82 2.5 4.35 3.125.92.632 2.172.967 3.397.967 4.695 0 8.425-3.481 8.425-7.242 0-.939-.634-2.841-1.567-5.348l-9.002-23.262c-1.865-4.748-4.367-6.296-10.872-6.296H851.515c-10.57 0-14.313 2.206-14.313 9.11 0 4.713 3.741 8.81 8.075 8.81m-166.325.002h5.93c2.155 0 4.655 1.579 5.265 4.091.921 2.508 1.28 3.773 1.28 12.245v142.148c0 7.855-.359 9.426-1.28 11.619-.61 2.207-3.11 4.09-5.265 4.09h-5.931c-4.347 0-7.754 3.776-7.754 8.502 0 6.905 3.406 9.119 13.685 9.119h119.697c9.617 0 12.112-1.568 15.218-9.437l9.632-23.893 1.253-3.462c.625-1.275.939-2.517.939-3.77 0-3.776-3.75-6.918-8.404-6.918-3.719 0-5.607 1.262-9.329 6.597-7.461 10.706-11.5 14.775-16.777 16.979-5.293 2.19-8.714 2.19-27.361 2.19-21.445 0-27.36-.315-30.465-2.488-3.72-2.2-4.338-5.367-4.338-19.198V147.876c0-8.167 0-10.055.918-12.245.918-2.515 3.73-4.091 6.526-4.091h6.85c4.325 0 8.069-3.78 8.069-8.806 0-6.905-3.744-9.112-14.92-9.112h-57.508c-10.57 0-14.299 2.207-14.299 9.113 0 5.025 3.729 8.805 8.368 8.805m-50.373 393.965c-.312 7.212-.931 7.834-10.57 9.429-5.29.625-8.371 3.762-8.371 8.476 0 2.517 1.55 5.361 3.713 6.91 10.902 8.517 47.877 15.74 80.2 15.74 34.53 0 58.457-6.936 76.813-21.707 22.996-18.537 35.738-49.984 35.738-88.025 0-33.977-9.932-62.597-28.283-81.134-18.96-19.508-44.485-28-81.756-28-35.141 0-71.518 6.62-82.394 15.111-2.475 1.875-4.027 4.705-4.027 7.521 0 4.735 3.416 7.875 9.317 8.169 8.393.648 9.311 1.9 9.625 10.096l.316 6.905v123.585zm43.848-126.418c0-17.925.617-21.69 4.65-24.83 4.675-3.788 13.69-6.31 23.328-6.31 36.983 0 59.054 32.712 59.054 88.048 0 55.364-22.071 87.417-60.302 87.417-11.806 0-21.164-3.137-24.55-7.855-1.865-3.143-2.18-5.685-2.18-18.232zm158.558 31.76c9.633 11.324 12.414 13.202 41.947 33.945 17.725 12.59 26.138 19.503 32.958 27.07 6.535 7.524 9.943 15.077 9.943 23.574 0 16.636-13.664 27.975-33.871 27.975-17.712 0-35.142-9.45-45.995-24.831l-4.368-6.3c-1.882-2.507-4.673-4.091-7.778-4.091-5.574 0-9.932 4.091-9.932 9.759 0 1.555.277 4.393.913 6.278l7.769 31.45c1.853 7.558 4.355 10.383 9.635 10.383 2.788 0 4.355-.633 7.15-2.825 2.816-2.518 4.046-3.151 6.533-3.151 1.872 0 2.483.32 6.834 1.562 9.029 2.844 21.154 4.415 32.653 4.415 41.043 0 67.762-23.912 67.762-60.375 0-16.03-6.201-31.762-16.781-42.77-9.936-10.401-18.024-16.65-42.58-33.967-6.52-4.713-11.525-8.16-15.261-11.01-6.193-4.71-11.188-9.743-14.262-14.457-2.5-3.472-3.443-8.183-3.443-12.882 0-12.9 9.347-21.07 23.637-21.07 10.25 0 20.809 3.436 29.234 10.059 6.526 5.026 7.757 6.296 14.925 16.975 2.789 4.092 4.655 5.338 8.075 5.338 5.275 0 9.015-3.458 9.015-7.55 0-.926 0-2.8-.625-4.387l-7.463-33.955c-1.252-5.676-4.04-8.816-8.713-8.816-2.475 0-3.42.307-6.532 2.52-2.772 1.876-4.957 2.808-7.133 2.808-1.25 0-2.8-.286-4.365-.605-4.334-.946-6.82-1.583-7.773-1.881-9.01-1.88-18.03-2.842-26.736-2.842-34.184 0-57.183 20.13-57.183 50.628 0 12.59 4.025 23.894 11.813 33.025M141.84 372.968c32.351 0 36.082 1.288 44.791 14.485 3.109 4.705 5.273 6.59 8.694 6.59 4.672 0 8.067-3.444 8.067-7.545 0-1.258-.287-2.513-1.217-5.025l-8.078-21.38c-1.555-3.79-3.115-6.282-4.971-7.215-1.571-.963-2.495-1.29-7.484-1.29H67.563c-10.261 0-13.676 2.223-13.676 9.118 0 4.734 3.096 8.825 7.455 8.825h6.224c2.169 0 4.341 1.572 5.275 4.069.625 2.226.937 4.1.937 12.285v141.174c0 8.5-.312 10.069-.937 12.262-.933 2.54-3.106 4.089-5.275 4.089H61.34c-4.358 0-8.07 4.084-8.07 8.808 0 6.905 3.714 9.117 14.295 9.117h57.189c11.51 0 15.242-2.212 15.242-9.117 0-4.725-3.426-8.808-8.086-8.808h-7.156c-2.478 0-5.27-1.549-6.522-4.087-.943-2.195-.943-3.765-.943-12.264v-62.575c0-6.588.312-8.489 2.492-9.414 1.25-.629 2.798-.962 4.356-.962h31.717c8.705 0 13.36-3.763 13.36-10.7 0-7.222-4.342-10.673-13.362-10.673H117.29v-46.85c0-12.285 1.878-12.917 24.55-12.917m796.41 213.66H72.008c-26.507 0-47.988 21.722-47.988 48.54 0 26.788 21.482 48.538 47.988 48.538h866.243c26.505 0 47.994-21.75 47.994-48.537 0-26.819-21.488-48.54-47.994-48.54M189.748 652.76c.085.892 1.2 1.45 2.147 1.45h1.986c1.662 0 3.087 1.692 3.087 3.538 0 2.385-1.27 3.35-5.071 3.35h-22.371c-3.97 0-5.47-.965-5.47-3.35 0-1.846 1.5-3.538 3.336-3.538h2.134c.947 0 1.835-.558 2.222-1.45.388-.952.388-1.518.388-4.815v-25.172l-20.065 19.795c-1.199 1.285-2.608 2.004-4.033 2.004-1.512 0-2.155-.478-3.652-2.005l-18.884-20.363v25.74c0 3.12 0 3.863.328 4.814.308.966 1.173 1.45 2.143 1.45h2.378c1.91 0 3.319 1.691 3.319 3.537 0 2.385-1.275 3.35-5.697 3.35h-16.028c-3.883 0-5.47-.965-5.47-3.35 0-1.846 1.587-3.537 3.333-3.537h2.138c.961 0 1.747-.558 2.144-1.45.4-.81.473-1.925.473-4.814v-28.16c0-3.271-.072-4.091-.475-4.971-.395-.951-1.181-1.679-2.143-1.679h-2.137a3.37 3.37 0 0 1-3.332-3.364c0-2.5 1.586-3.452 5.469-3.452h18.165c1.913 0 3.01.484 5.632 3.375l17.141 19.019 19.965-19.835c2.073-2.003 3.333-2.56 5.087-2.56h13.96c3.803 0 5.072.952 5.072 3.453 0 1.918-1.425 3.364-3.087 3.364h-2.563c-.946 0-1.404.563-1.816 1.431-.391.808-.391 1.948-.391 5.219v28.16c0 3.12 0 3.864.638 4.816m149.188 8.338h-25.133c-2.385 0-3.658-1.354-3.658-3.35 0-2.428 1.347-3.07 4.52-3.604 2.696-.493 2.922-1.943 1.908-4.505l-.322-.808c-.629-1.608-1.515-1.758-4.273-1.758h-18.241c-1.837 0-2.784.15-3.271.391-.546.25-.938.477-1.193.96l-.216.575c-.797 1.833.078 4.65 3.323 5.042 3.087.414 4.358 1.275 4.358 3.52 0 2.24-1.652 3.532-4.122 3.532H272.79c-2.938 0-4.285-.964-4.285-3.125 0-2.07 1.025-2.957 3.334-3.513 1.662-.414 2.222-.81 2.93-1.7.552-.714 1.663-2.89 2.79-5.042l18.628-37.313c2.149-4.25 6.187-5.217 9.915-5.217 3.4 0 7.704 1.212 9.674 5.217l18.001 35.875c2.774 5.531 3.638 6.713 5.475 7.373l1.672.558c1.182.392 2.147 1.438 2.147 3.12 0 2.415-1.442 3.77-4.137 3.77m146.733 0h-14.831c-3.331 0-4.936-1.03-7.241-3.53l-16.731-18.997c-1.65-1.864-2.284-2.98-2.284-3.781 0-1.595 1.349-2.314 4.671-2.642 8.418-.72 12.6-3.767 12.6-10.202 0-7.203-5.794-10.499-13.001-10.499-2.784 0-5.548.559-6.981 1.593-1.247.968-1.74 2.581-1.997 6.036l-.216 3.925v24.715c0 3.119 0 4.016.318 4.725.395 1.035 1.425 1.702 2.305 1.702h2.458c1.663 0 3.014 1.504 3.014 3.422 0 2.566-1.352 3.531-5.475 3.531h-22.281c-3.893 0-5.494-.965-5.494-3.531 0-1.918 1.6-3.422 3.335-3.422h2.159c1.169 0 1.897-.667 2.3-1.702.3-.884.3-1.606.3-4.725V620.19c0-3.287-.546-3.841-3.644-4.031-2.377-.126-3.71-1.249-3.71-3.348 0-1.046.633-2.256 1.333-2.98 3.893-3.11 18.94-4.648 30.918-4.648 20.473 0 31.744 5.305 31.744 15.397 0 6.973-3.097 12.755-14.116 14.688l10.631 11.718c3.953 4.407 6.809 5.933 10.138 6.488 2.376.667 2.705.732 3.408 1.126.707.414 1.45 1.438 1.45 2.728 0 2.412-1.765 3.767-5.08 3.767m106.673 0h-22.303c-3.886 0-5.451-.965-5.451-3.531 0-1.919 1.565-3.423 3.316-3.423h2.133c1.187 0 1.907-.667 2.292-1.7.325-.885.325-1.607.325-4.726v-27.932c0-3.133-.062-4.243-.325-4.802-.387-.886-1.103-1.68-2.292-1.68h-2.133c-1.752 0-3.316-1.46-3.316-3.532 0-2.5 1.565-3.451 5.45-3.451h22.304c4.1 0 5.471.95 5.471 3.452 0 2.07-1.371 3.53-3.1 3.53h-2.371c-.97 0-1.679.623-2.066 1.681-.413 1.053-.558 1.53-.558 4.802v27.932c0 2.083.083 4.09.688 5.043.587.891 1.137 1.383 1.935 1.383h2.37c1.5 0 3.1 1.504 3.1 3.423 0 2.566-1.594 3.53-5.47 3.53m47.476 0h-15.05c-3.259 0-4.283-1.115-6.653-3.531l-21.837-21.82c-1.013-1.037-1.425-1.594-1.425-2.258 0-.625.637-1.427 1.425-2.062l15.809-13.475c2.292-2 .945-4.443-.328-4.443-1.436 0-2.276-1.329-2.276-3.737 0-2.17 1.087-3.452 3.794-3.452h25.288c2.623 0 4.048 1.035 4.048 3.374 0 1.996-1.024 3.059-4.048 3.443-2.768.375-3.858.375-5.795.872-1.8.488-4.11 1.85-5.625 3.131l-14.426 12.522 17.839 17.728c4.697 4.658 7.385 6.088 9.746 6.754 2.686.699 3.98 1.176 3.98 3.423 0 2.175-1.577 3.53-4.466 3.53m141.354-12.267-4.122 10.428c-.645 1.366-1.098 1.687-3.168 1.687l-2.395.15h-48.772c-4.115 0-5.466-.965-5.466-3.53 0-1.92 1.35-3.357 3.005-3.357h2.463c.716 0 1.653-.733 1.822-1.705.475-.771.573-1.671.573-4.788V620.03c0-3.131-.098-3.999-.573-4.82-.17-1.118-1.106-1.914-1.824-1.914h-2.461c-1.654 0-3.23-1.612-3.23-3.531 0-2.5 1.578-3.453 5.694-3.453h48.296c2.543 0 3.414.402 3.894 1.607l3.642 9.457c.154.479.552 1.113.478 1.366-.225.98-2.213 1.832-3.963 1.832-.637 0-1.095 0-1.428-.24-.633-.149-1.104-.478-1.51-.707-.23-.317-.455-.725-1.188-1.516-1.97-2.337-5.445-4.816-13.267-4.816h-8.057c-6.742 0-7.473.622-7.473 4.967v9.065h15.53c3.738 0 4.79 1.997 4.79 4.092 0 2.237-1.437 4.266-4.79 4.266h-9.484c-2.468 0-4.365-.178-5.004.295-.639.492-1.045 1.362-1.045 3.207v8.593c0 4.317.338 5.2 2.41 5.689 1.321.327 4.018.667 10.445.667 6.029 0 9.206-.185 11.175-.417 2.705-.312 6.691-4.893 8.663-7.369 1.187-1.543 1.662-1.784 3.335-1.784 2.068 0 3.17.813 3.417 1.856.138.563.059 1.113-.412 2.407zm135.858-27.193c-1.266 0-2.292-.48-3.308-1.853-.592-.71-.717-.875-.97-1.101-1.163-1.465-3.185-4.275-4.604-4.761-1.329-.487-3.106-.623-7.608-.623-5.706 0-6.422.396-6.422 3.916v30.5c0 3.118 0 3.84.31 4.724.406 1.035 1.35 1.703 2.394 1.703h3.308c1.853 0 3.249 1.503 3.249 3.421 0 2.566-1.396 3.531-5.844 3.531h-24.05c-4.28 0-5.771-.965-5.771-3.531 0-1.918 1.491-3.421 3.084-3.421h3.57c.804 0 1.739-.668 2.13-1.703.327-.884.556-1.606.556-4.725v-30.499c0-3.418-.556-3.915-7.675-3.915-6.125 0-9.12 2.478-11.279 5.523l-.637.902c-1.076 1.584-2.049 1.912-3.658 1.912-1.726 0-4.116-.894-4.253-1.913 0-.244.138-1.142.387-1.772l3.664-9.553c.702-2.005 1.267-2.082 4.109-2.082h55.67c1.827 0 1.913.077 2.713.401.388.155.675.727 1.088 1.679l3.965 10.02c.165.487.39 1.061.33 1.306-.16.954-2.556 1.912-4.448 1.912"/><path d="M304.583 623.575a20.4 20.4 0 0 1-1.571-5.078h-.485c-.313 1.232-1.12 3.055-2 5.078l-6.013 13.487-1.188 1.884 2.066-.202h14.672l1.67.202-1.037-1.885zM86.3 312.286c4.347 11.946 8.705 15.685 17.724 15.685 4.048 0 8.076-1.539 10.561-3.437 2.478-2.513 3.42-4.725 6.222-12.248l30.465-86.165 28.6 86.165c3.718 11.613 8.388 15.685 17.708 15.685 9.328 0 13.378-4.375 18.033-19.785L265.029 146.9c3.463-11.05 5.628-14.022 12.105-15.407h1.7c2.193 0 4.358 1.57 5.3 4.08.923 2.19.923 3.765.923 12.273v141.169c0 8.458 0 10.026-.924 12.552-.637 2.2-3.106 3.781-5.3 3.781h-6.212c-4.343 0-8.078 4.094-8.078 8.8 0 6.923 3.735 9.12 14.29 9.12h56.583c9.955 0 13.372-2.196 13.372-8.803 0-5.023-3.106-9.117-7.45-9.117h-5.922c-2.495 0-4.978-1.58-5.899-3.78-.636-2.526-.942-4.38-.942-12.553V231.47c0-14.458 1.252-15.723 12.762-15.723H383.6c6.2 0 9.324.948 10.862 2.85 1.576 1.875 1.576 3.141 1.576 14.771v55.653c0 8.172 0 10.026-.935 12.552-.929 2.2-3.436 3.782-5.6 3.782h-5.902c-4.368 0-8.088 4.093-8.088 8.798 0 6.924 3.43 9.12 13.992 9.12h56.565c10.903 0 14.305-2.195 14.305-9.12 0-4.705-3.402-8.798-8.07-8.798h-6.237c-2.18 0-4.647-1.582-5.295-3.782-.919-2.525-1.207-4.38-1.207-12.552v-141.17c0-7.865.291-10.084 1.207-12.274.645-2.203 3.115-4.078 5.294-4.078h6.237c4.34 0 8.07-3.775 8.07-8.798 0-6.925-3.73-9.132-14.305-9.132h-56.565c-10.562 0-14.31 2.206-14.31 9.132 0 5.023 3.75 8.798 8.408 8.798h5.904c2.162 0 4.67 1.57 5.6 4.078.935 2.19.935 4.092.935 12.275v46.513h-67.465v-46.513c0-7.866.307-10.085.943-12.275.922-2.203 3.403-4.078 5.898-4.078h5.923c4.345 0 7.746-3.775 7.746-8.798 0-6.925-3.402-9.132-13.669-9.132H232.711c-8.388 0-11.813 2.52-11.813 8.805 0 5.03 3.106 8.182 9.938 8.796 7.465.925 10.882 3.459 10.882 8.174 0 1.895-.312 4.392-1.241 7.557l-36.676 120.421-36.988-115.087c-2.496-7.538-3.11-10.364-3.11-13.199 0-5.662 2.169-7.537 10.558-8.479 6.845-.95 9.962-3.476 9.962-8.507 0-5.644-3.425-8.479-10.566-8.479h-60.929c-7.154 0-10.9 3.438-10.9 9.413 0 4.74 2.494 6.94 9.02 8.515 7.156 1.875 9.649 3.45 11.503 8.172.625 1.25 1.26 3.75 2.487 7.233l14.295 42.128-28.897 81.424-41.963-118.224-2.492-7.22c-.927-2.53-1.25-4.738-1.25-6.908 0-5.039 2.806-7.254 9.642-7.875 8.081-.625 11.199-2.825 11.199-8.183 0-5.645-3.118-8.479-10.258-8.479H11.06c-7.146 0-10.558 2.834-10.558 8.172 0 5.032 2.178 7.232 8.715 8.49 9.931 2.216 11.487 3.783 16.158 16.671zM299.37 566.06c52.585 0 89.097-29.966 99.85-78.869 10.472 48.499 46.872 78.869 98.49 78.869 63.118 0 103.198-43.093 103.198-110.375 0-66.046-40.08-108.49-102.593-108.49-52.013 0-88.203 29.709-98.906 78.482-10.469-48.587-47.025-78.482-99.4-78.482-62.492 0-102.291 42.774-102.291 110.059 0 65.712 40.109 108.806 101.652 108.806m198.648-196.529c34.51 0 56.264 33.623 56.264 87.72 0 52.826-21.453 86.159-55.625 86.159-35.134 0-55.983-32.053-55.983-85.854 0-54.695 20.85-88.025 55.343-88.025m-198.34 0c34.51 0 56.264 33.623 56.264 87.72 0 52.826-21.444 86.159-55.638 86.159-35.13 0-55.963-32.053-55.963-85.854 0-54.695 20.833-88.025 55.337-88.025"/></g></svg>