<svg height="18" viewBox="0 0 18 18" width="18" xmlns="http://www.w3.org/2000/svg" xmlns:xlink="http://www.w3.org/1999/xlink"><linearGradient id="a" gradientUnits="userSpaceOnUse" x1="9" x2="9" y1="17.4" y2=".4"><stop offset="0" stop-color="#0078d4"/><stop offset=".82" stop-color="#5ea0ef"/></linearGradient><path d="m14 4.8a4.61 4.61 0 0 0 -4.78-4.4 4.73 4.73 0 0 0 -4.52 3.08 4.36 4.36 0 0 0 -3.83 4.19 4.43 4.43 0 0 0 4.58 4.25h2.93v2.63a.13.13 0 0 1 -.13.13h-1.47a.13.13 0 0 0 -.09.22l2.47 2.47a.19.19 0 0 0 .26 0l2.47-2.47a.13.13 0 0 0 -.09-.22h-1.48a.12.12 0 0 1 -.12-.13v-2.65h3.06a.6.6 0 0 0 .2 0 3.69 3.69 0 0 0 3.67-3.56 3.65 3.65 0 0 0 -3.13-3.54" fill="url(#a)"/><path d="m4.87 8.18 2.47-2.46a.17.17 0 0 1 .26 0l2.47 2.46a.13.13 0 0 1 -.07.22h-1.49a.13.13 0 0 0 -.13.13v3.37h-1.81v-3.37a.13.13 0 0 0 -.13-.13h-1.44a.13.13 0 0 1 -.13-.22" fill="#fff"/></svg>