<svg xmlns="http://www.w3.org/2000/svg" viewBox="0 0 124.4 64"><g fill-rule="evenodd" clip-rule="evenodd"><path fill="#d81e05" d="M13.6 53c16.5-13.3 28.2-24.8 31.7-31 1.5-2.4 2-4.7 1.1-6.5-1.5-3.5-7-4.5-13.6-3.2C62.7 5.5 93.2 1.4 123.8 0c.3 0 .6.2.6.5 0 .2-.1.5-.4.5C85.2 13.6 49.9 34 20 60.4l-.1.1L.3 64c-.3 0-.4-.3-.2-.5Q7 58.4 13.6 53"/><path fill="#93282c" d="M11 17.4c-.4.1-.9.2-1.3.4-.3.1-.2.4 0 .5l7.4 1.1L30 21.2h.1c9.1-4.3 15.1-6 16.5-4.1.4.6.3 1.5-.1 2.6-.2.4-.4.8-.6 1.3 1.4-2.3 1.9-4.4 1.1-6.2-1.5-3.3-6.6-4.3-13.1-3-7.7 1.7-15.3 3.6-22.9 5.6"/></g></svg>