<svg viewBox="0 0 124.4 64" xmlns="http://www.w3.org/2000/svg"><g clip-rule="evenodd" fill-rule="evenodd"><path d="m13.6 53c16.5-13.3 28.2-24.8 31.7-31 1.5-2.4 2-4.7 1.1-6.5-1.5-3.5-7-4.5-13.6-3.2 29.9-6.8 60.4-10.9 91-12.3.3 0 .6.2.6.5 0 .2-.1.5-.4.5-38.8 12.6-74.1 33-104 59.4l-.1.1-19.6 3.5c-.3 0-.4-.3-.2-.5q6.9-5.1 13.5-10.5" fill="#d81e05"/><path d="m11 17.4c-.4.1-.9.2-1.3.4-.3.1-.2.4 0 .5l7.4 1.1 12.9 1.8h.1c9.1-4.3 15.1-6 16.5-4.1.4.6.3 1.5-.1 2.6-.2.4-.4.8-.6 1.3 1.4-2.3 1.9-4.4 1.1-6.2-1.5-3.3-6.6-4.3-13.1-3-7.7 1.7-15.3 3.6-22.9 5.6" fill="#93282c"/></g></svg>