<svg viewBox="0 0 24 24" xmlns="http://www.w3.org/2000/svg"><path d="m12.0069 24h-.3572l2.459-6.7453h3.3796c.5907 0 1.2364-.4533 1.4424-1.0166l2.6652-7.3085c.4396-1.1952-.2473-2.1706-1.525-2.1706h-4.6983l-3.929 10.798-2.2255 6.127c-5.2891-1.25-9.2181-6.0034-9.2181-11.677 0-5.509 3.7092-10.1524 8.7647-11.5674l-2.2942 6.3194-3.8191 10.4957h2.5415l3.2559-8.9157h1.9095l-3.2558 8.9158h2.5415l3.0223-8.3251c.4396-1.1952-.2473-2.1706-1.525-2.1706h-2.143l2.459-6.7453c.1787-.0138.3572-.0138.5358-.0138 6.6354 0 12.0069 5.3715 12.0069 12.007.0137 6.6216-5.3578 11.993-11.9931 11.993zm7.2673-15.675h-1.9096l-2.6789 7.336h1.9096z"/></svg>