<svg xmlns="http://www.w3.org/2000/svg" viewBox="0 0 128 128"><defs><mask id="a"><path fill="#fff" d="M0 0h128v128H0z"/><path d="M27.637 24.137c-6.293 39.875-3.004 77.207-3.004 77.207l1.16-1.305c-.594-8.809-2.176-40.66 3.176-74.57h18.207c.383.004.898.316 1.5.832-1.192-1.328-2.184-2.16-2.832-2.168zm54.543 0C78.71 24.176 65.527 47.3 64.012 47.3c.617.793 1.12 1.336 1.332 1.336 1.515 0 14.703-23.125 18.168-23.164h16.07l.805-1.336zM42.555 47.094c4.422 6.644 15.414 37.25 15.414 37.25l.324-1.492c-2.715-7.442-13.059-35.344-15.656-35.758-.028 0-.055-.004-.082 0m45.5 0c2.965 7.566-2.653 45.293-4.336 54.246l1.785-1.39c2.281-13.36 7.762-52.72 2.55-52.856zm0 0"/></mask></defs><g fill="currentColor" mask="url(#a)"><path d="M0 86.488V41.512C0 5.187 5.184 0 41.474 0h45.06C122.82 0 128 5.188 128 41.512v44.976C128 122.813 122.816 128 86.53 128H41.47C5.184 128 0 122.812 0 86.488m0 0"/><path d="M27.634 24.137c-6.29 39.875-3 77.207-3 77.207h19.668c-1.871-9.957-8.586-55.434-3-55.586 2.992.476 16.669 38.586 16.669 38.586s3.011-.38 6.039-.38c3.031 0 6.043.38 6.043.38s13.676-38.11 16.668-38.586c5.587.152-1.129 45.629-2.996 55.586h19.665s3.293-37.336-3-77.211H82.182C78.717 24.176 65.53 47.3 64.014 47.3S49.31 24.175 45.845 24.136zm0 0"/><path d="M60.13 96.691a4.65 4.65 0 0 1-4.652 4.653 4.654 4.654 0 0 1 0-9.309 4.655 4.655 0 0 1 4.653 4.656zm0 0"/><path d="M77.198 96.691a4.65 4.65 0 1 1-9.301 0 4.652 4.652 0 1 1 9.305 0zm0 0"/></g></svg>