<svg viewBox="0 0 128 128" xmlns="http://www.w3.org/2000/svg" xmlns:xlink="http://www.w3.org/1999/xlink"><linearGradient id="a"><stop offset="0" stop-color="#db7c7c"/><stop offset="1" stop-color="#c83737"/></linearGradient><radialGradient id="b" cx="62.417" cy="142.923" gradientTransform="matrix(.50523 0 0 .50521 23.143 23.805)" gradientUnits="userSpaceOnUse" r="9.213" xlink:href="#a"/><radialGradient id="c" cx="96.726" cy="142.923" gradientTransform="matrix(.50523 0 0 .50521 23.143 23.805)" gradientUnits="userSpaceOnUse" r="9.213" xlink:href="#a"/><linearGradient id="d" gradientUnits="userSpaceOnUse" x1="64.001648" x2="64.001648" y1="128.000827" y2="-.00272"><stop offset="0" stop-color="#574c4a"/><stop offset="1" stop-color="#80716d"/></linearGradient><linearGradient id="e" gradientUnits="userSpaceOnUse" x1="95.152349" x2="48.013867" y1="100.101807" y2="17.428696"><stop offset="0" stop-color="#268d83"/><stop offset="1" stop-color="#2ea19e"/></linearGradient><clipPath id="f"><path d="m0 0h128v128h-128z"/></clipPath><clipPath id="g"><path d="m0 0h128v128h-128z"/></clipPath><mask id="h"><g filter="url(#j)"><path d="m0 0h128v128h-128z" fill-opacity=".102"/></g></mask><mask id="i"><g filter="url(#j)"><path d="m0 0h128v128h-128z" fill-opacity=".302"/></g></mask><filter id="j" height="1" width="1" x="0" y="0"><feColorMatrix in="SourceGraphic" values="0 0 0 0 1 0 0 0 0 1 0 0 0 0 1 0 0 0 1 0"/></filter><path d="m0 86.488v-44.976c0-36.325 5.184-41.512 41.474-41.512h45.06c36.286 0 41.466 5.188 41.466 41.512v44.976c0 36.325-5.184 41.512-41.47 41.512h-45.06c-36.286 0-41.47-5.188-41.47-41.512m0 0" fill="url(#d)"/><path d="m27.634 24.137c-6.29 39.875-3 77.207-3 77.207h19.668c-1.871-9.957-8.586-55.434-3-55.586 2.992.476 16.669 38.586 16.669 38.586s3.011-.38 6.039-.38c3.031 0 6.043.38 6.043.38s13.676-38.11 16.668-38.586c5.587.152-1.129 45.629-2.996 55.586h19.665s3.293-37.336-3-77.211h-18.208c-3.465.043-16.652 23.167-18.168 23.167s-14.704-23.125-18.169-23.164zm0 0" fill="url(#e)"/><path d="m60.13 96.691a4.65 4.65 0 0 1 -4.652 4.653 4.654 4.654 0 0 1 0-9.309 4.655 4.655 0 0 1 4.653 4.656zm0 0" fill="url(#b)"/><path d="m77.198 96.691a4.65 4.65 0 1 1 -9.301 0 4.652 4.652 0 1 1 9.305 0zm0 0" fill="url(#c)"/><g clip-path="url(#f)" mask="url(#h)" transform="scale(1.00003 1)"><path d="m99.457 25.453c2.84 19.211 3.5 37.649 3.453 51.383-.055 14.047-.86 23.176-.86 23.176h-16.557l-1.777 1.332h19.668s3.293-37.332-3-77.207zm-52.113-.484c5.164 5.746 14.105 21 15.328 21-3.274-4.188-11.32-17.555-15.328-21m-7.375 19.457c-5.586.152 1.129 45.629 3 55.586h-17.169l-1.164 1.332h19.664c-1.86-9.903-8.516-54.977-3.082-55.582-.504-.762-.946-1.285-1.25-1.336zm45.418 0c-2.992.476-16.664 38.586-16.664 38.586s-3.012-.375-6.043-.375c-1.793 0-3.336.11-4.38.207l-.323 1.5s3.007-.375 6.039-.375c3.03 0 6.043.375 6.043.375s13.57-37.86 16.625-38.582c-.329-.836-.735-1.32-1.293-1.336zm0 0"/></g><g clip-path="url(#g)" mask="url(#i)" transform="scale(1.00003 1)"><path d="m27.637 24.137c-6.293 39.875-3.004 77.207-3.004 77.207l1.16-1.305c-.594-8.809-2.176-40.66 3.176-74.57h18.207c.383.004.898.316 1.5.832-1.192-1.328-2.184-2.16-2.832-2.168zm54.543 0c-3.47.039-16.653 23.163-18.168 23.163.617.793 1.12 1.336 1.332 1.336 1.515 0 14.703-23.125 18.168-23.164h16.07l.805-1.336zm-39.625 22.957c4.422 6.644 15.414 37.25 15.414 37.25l.324-1.492c-2.715-7.442-13.059-35.344-15.656-35.758-.028 0-.055-.004-.082 0m45.5 0c2.965 7.566-2.653 45.293-4.336 54.246l1.785-1.39c2.281-13.36 7.762-52.72 2.55-52.856zm0 0" fill="#fff"/></g></svg>