<svg height="48" viewBox="0 0 48 48" width="48" xmlns="http://www.w3.org/2000/svg"><path d="m43.758 17.06-7.206-2.827-1.058 2.695 7.199 2.847zm-1.796 4.576-7.2-2.846-5.511 14.042 2.574 1.01 4.135-10.062 1.85.76-4.123 10.032 2.77 1.087zm-12.57 21.218 5.76-5.558-6.1-2.394zm16.593-25.994-8.032 20.46a.98.98 0 0 1 -.485.519l-8.286 7.997a1 1 0 0 1 -1.066.209 1 1 0 0 1 -.628-.886l-.488-11.424.024-.001a1 1 0 0 1 0-.702l8.03-20.461a1 1 0 0 1 1.297-.565l9.067 3.559c.247.097.445.288.552.53.105.244.11.519.014.766m-41.97-8.701c0 2.002 4.637 4.16 12.128 4.16 7.578.002 12.858-2.19 12.858-4.158s-5.28-4.162-12.858-4.162c-7.492 0-12.128 2.16-12.128 4.162m20.678 34.836.545 1.923c-2.548.723-5.65 1.104-8.966 1.104-8.535-.001-14.271-2.477-14.271-6.162v-31.838h.027c.14-3.608 5.77-6.025 14.115-6.025 7.298 0 14.672 2.07 14.842 6.025h.016v9h-2v-5.616c-2.713 1.92-7.806 2.913-12.858 2.913-5.484 0-9.787-1.047-12.142-2.786v28.327c0 2.046 4.59 4.16 12.27 4.16 3.136 0 6.049-.355 8.422-1.026m-16.692-19.972h12v-2h-12zm-1 4h20v-2h-20zm3 4h6v-2h-6zm9 0h5v-2h-5z" fill="#c925d1" fill-rule="evenodd"/></svg>