<svg height="48" viewBox="0 0 48 48" width="48" xmlns="http://www.w3.org/2000/svg"><path d="m40.986 34.486-.741-.273q-.532-.195-.741-.39a.65.65 0 0 1 -.21-.495q0-.787 1.158-.787.696 0 1.54.265v-.858a4.7 4.7 0 0 0 -1.654-.317q-.98 0-1.561.48-.58.483-.58 1.305 0 .593.333.986.33.394 1.062.677l.777.3q.506.195.707.389.2.195.2.495 0 .425-.332.65-.33.225-.95.226-.375 0-.841-.08a6 6 0 0 1 -.893-.22v.857q.353.169.823.26.468.094.937.094 1.096 0 1.724-.508.628-.509.628-1.402-.001-.6-.326-.991-.329-.39-1.06-.663m-7.024.938-1.84-3.653h-1.201v6.129h.99v-4.572l1.538 3.033h.974l1.59-3.051v4.59h.992v-6.13h-1.168zm10.003 5.876-.001-14.958c-1.85.91-4.717 1.338-7.46 1.338-2.741 0-5.61-.428-7.457-1.338v14.968c.12.485 2.599 1.786 7.458 1.786 4.858 0 7.337-1.301 7.46-1.797m-14.918-17.404c.122.484 2.6 1.785 7.458 1.785 4.843 0 7.323-1.295 7.459-1.792v-.088c-.123-.483-2.603-1.785-7.46-1.785-4.843 0-7.323 1.295-7.457 1.792zm16.917-.097v17.512c0 2.603-4.904 3.787-9.46 3.787-4.555 0-9.457-1.184-9.457-3.786v-17.513c0-2.6 4.904-3.783 9.458-3.783s9.457 1.184 9.459 3.783m-19.825 11.479a1 1 0 0 1 -1 1h-22.139a1 1 0 0 1 -.867-1.5l18.657-32.312c.357-.62 1.375-.62 1.732 0l8.888 15.395a1 1 0 1 1 -1.733 1l-8.021-13.895-16.923 29.312h20.406a1 1 0 0 1 1 1" fill="#dd344c" fill-rule="evenodd"/></svg>