<svg xmlns="http://www.w3.org/2000/svg" width="18" height="18" viewBox="0 0 18 18"><path fill="currentColor" d="M15.074 17.39a.645.645 0 0 1-.674.61H4.062a.645.645 0 0 1-.675-.61V.61A.645.645 0 0 1 4.062 0H14.4a.645.645 0 0 1 .675.61z"/><path fill="currentColor" d="M13.461 7.7a1.34 1.34 0 0 0-1.27-1.4H6.375a1.34 1.34 0 0 0-1.27 1.4 1.34 1.34 0 0 0 1.27 1.4h5.816a1.34 1.34 0 0 0 1.27-1.4m0-4.163a1.34 1.34 0 0 0-1.27-1.4H6.375a1.34 1.34 0 0 0-1.27 1.4 1.34 1.34 0 0 0 1.27 1.4h5.816a1.34 1.34 0 0 0 1.27-1.4"/><g fill="currentColor"><circle cx="11.826" cy="3.537" r=".939"/><circle cx="11.826" cy="7.695" r=".939"/></g></svg>