<svg height="18" viewBox="0 0 18 18" width="18" xmlns="http://www.w3.org/2000/svg" xmlns:xlink="http://www.w3.org/1999/xlink"><linearGradient id="a" gradientUnits="userSpaceOnUse" x1="9.23" x2="9.23" y2="18"><stop offset="0" stop-color="#a67af4"/><stop offset=".999" stop-color="#773adc"/></linearGradient><path d="m15.074 17.39a.645.645 0 0 1 -.674.61h-10.338a.645.645 0 0 1 -.675-.61v-16.78a.645.645 0 0 1 .675-.61h10.338a.645.645 0 0 1 .675.61z" fill="url(#a)"/><path d="m13.461 7.7a1.34 1.34 0 0 0 -1.27-1.4h-5.816a1.34 1.34 0 0 0 -1.27 1.4 1.34 1.34 0 0 0 1.27 1.4h5.816a1.34 1.34 0 0 0 1.27-1.4m0-4.163a1.34 1.34 0 0 0 -1.27-1.4h-5.816a1.34 1.34 0 0 0 -1.27 1.4 1.34 1.34 0 0 0 1.27 1.4h5.816a1.34 1.34 0 0 0 1.27-1.4" fill="#552f99"/><g fill="#50e6ff"><circle cx="11.826" cy="3.537" r=".939"/><circle cx="11.826" cy="7.695" r=".939"/></g></svg>