<svg xmlns="http://www.w3.org/2000/svg" width="18" height="18" viewBox="0 0 18 18"><rect width="13.49" height="16.88" x=".38" y=".56" fill="currentColor" rx=".56"/><path fill="currentColor" d="m17.58 12.38-2.87-2.87a.15.15 0 0 0-.25.1v1.68c-3.45 0-6.9 1.84-6.9 5.16.49-.74 3-2.71 6.9-2.71v1.61a.15.15 0 0 0 .25.1l2.87-2.87a.15.15 0 0 0 0-.2"/><path fill="currentColor" d="M11.06 5.6v4.58l-3.93 2.3V7.89z"/><path fill="currentColor" d="M11.06 5.6 7.13 7.9 3.19 5.6l3.94-2.3z"/><path fill="currentColor" d="M7.13 7.9v4.58l-3.94-2.3V5.6z"/><path fill="currentColor" d="m3.19 10.18 3.94-2.29v4.59z"/><path fill="currentColor" d="M11.06 10.18 7.13 7.89v4.59z"/></svg>