<svg height="18" viewBox="0 0 18 18" width="18" xmlns="http://www.w3.org/2000/svg" xmlns:xlink="http://www.w3.org/1999/xlink"><linearGradient id="a" gradientUnits="userSpaceOnUse" x1="7.12" x2="7.12" y1="17.44" y2=".56"><stop offset="0" stop-color="#32bedd"/><stop offset=".36" stop-color="#34c1e0"/><stop offset=".63" stop-color="#3ccbe8"/><stop offset=".88" stop-color="#48dbf6"/><stop offset="1" stop-color="#50e6ff"/></linearGradient><rect fill="url(#a)" height="16.88" rx=".56" width="13.49" x=".38" y=".56"/><path d="m17.58 12.38-2.87-2.87a.15.15 0 0 0 -.25.1v1.68c-3.45 0-6.9 1.84-6.9 5.16.49-.74 3-2.71 6.9-2.71v1.61a.15.15 0 0 0 .25.1l2.87-2.87a.15.15 0 0 0 0-.2" fill="#773adc"/><path d="m11.06 5.6v4.58l-3.93 2.3v-4.59z" fill="#50e6ff"/><path d="m11.06 5.6-3.93 2.3-3.94-2.3 3.94-2.3z" fill="#c3f1ff"/><path d="m7.13 7.9v4.58l-3.94-2.3v-4.58z" fill="#9cebff"/><path d="m3.19 10.18 3.94-2.29v4.59z" fill="#c3f1ff"/><path d="m11.06 10.18-3.93-2.29v4.59z" fill="#9cebff"/></svg>