<svg viewBox="0 0 405.1 100" xmlns="http://www.w3.org/2000/svg"><path d="m75.1 59.2-20.3-32.8h-14.6v47.1h14.6v-32.7l20.3 32.8h14.5v-47.2h-14.7zm115.2-16.9v-4.7h-7.6v-6.4h-14.2v6.4h-7.7v4.7h7.7v31.3h14.2v-31.3zm-92.7 31.1h14.1v-31.2h-14.1zm0-37.3h14.2v-9.7h-14.2zm247.5 3.9c-11.4 0-20.7 7.9-20.7 17.5s9.3 17.5 20.7 17.5 20.7-7.9 20.7-17.5-9.3-17.5-20.7-17.5m5.7 24.2c0 5-2.9 7-5.7 7s-5.8-2-5.8-7v-13.2c0-5 2.9-7 5.8-7 2.8 0 5.7 2 5.7 7zm-44.9-20.5c-2.3-1.3-4.7-2.5-8-2.8-10.1-.9-18 8.1-18 16.4 0 10.9 8.4 14.9 9.6 15.5 4.8 2.2 10.9 2.3 16.2-1.1v1.8h13.9v-47h-13.9c.2-.1.2 10 .2 17.2m.2 14v5.6c0 4.8-3.3 6.1-5.6 6.1s-5.6-1.3-5.6-6.1v-11.2c0-4.8 3.3-6.1 5.6-6.1 2.2 0 5.6 1.3 5.6 6.1zm-161.3-16.9c-4.7.1-8.5 2.2-11.3 4.7v-3.3h-14.1v31.3h14.1v-20.6c0-2.7 2.9-5.7 6.7-5.7s6.5 3.1 6.5 5.7v20.6h14.1v-17c0-12.4-10.7-16-16-15.7m114.7 0c-4.2.1-8.2 1.8-11.3 4.7v-3.3h-14.1v31.3h14.1v-20.6c0-2.7 2.9-5.7 6.7-5.7s6.5 3.1 6.5 5.7v20.6h14.1v-17c0-12.4-10.7-16-16-15.7m-29.5 17.1c0-9.7-9.4-17.8-20.8-17.8-11.5 0-20.8 7.9-20.8 17.5 0 9.7 9.3 17.5 20.8 17.5 9.5 0 17.6-5.5 20-12.8h-14.1v1.9c0 5.7-3.8 7-5.8 7-2.2 0-6-1.3-6-7v-6.5zm-25.6-11c1.1-1.7 2.9-2.8 4.9-2.8 1.9 0 3.8.9 4.9 2.8.9 1.5.9 3.4.9 6.1h-11.8c.1-2.7.2-4.5 1.1-6.1m166.9-14.6c0-1.5-1.1-2.3-3.4-2.3h-3.2v8h1.9v-3.3h1l1.5 3.3h2.2l-1.8-3.6c1.2-.3 1.8-1.1 1.8-2.1m-3.6 1.1h-1v-2.3h.9c1.1 0 1.8.4 1.8 1.1-.1 1-.6 1.2-1.7 1.2m.1-6.6c-3.9 0-7.2 3.3-7.2 7.2s3.3 7.2 7.2 7.2 7.2-3.3 7.2-7.2-3.2-7.2-7.2-7.2m0 13.1c-3.2 0-5.8-2.6-5.8-5.8s2.7-5.8 5.8-5.8c3.2 0 5.8 2.7 5.8 5.8s-2.6 5.8-5.8 5.8m-15.9-39.9h-299c-31.7-.1-52.9 22.7-52.9 50.1 0 27.3 21.2 49.9 53 49.9h299.1c31.8 0 53-22.6 53-49.9-.2-27.3-21.5-50.1-53.2-50.1m-.1 87.8h-298.8c-25.2.1-40.6-16.9-40.6-37.7s15.5-37.6 40.6-37.7h298.8c25.1 0 40.6 16.9 40.6 37.7s-15.4 37.7-40.6 37.7"/></svg>