<svg xmlns="http://www.w3.org/2000/svg" width="18" height="18" viewBox="0 0 18 18"><defs><mask id="a"><path fill="#fff" d="M0 0h18v18H0z"/><path d="M17.5 2.5v10.83a.58.58 0 0 1-.59.58h-4.52a.14.14 0 0 0-.14.14v1.75a.28.28 0 0 1-.45.22l-2.72-2.08H1.09a.58.58 0 0 1-.59-.58V2.5a.58.58 0 0 1 .59-.58h15.82a.58.58 0 0 1 .59.58"/><path d="m16.24 6.46-3.11-2.52a.29.29 0 0 0-.47.22v1.1H.5V7h15.56a.29.29 0 0 0 .18-.54"/></mask></defs><path fill="currentColor" d="m2.05 9 3 2.52a.29.29 0 0 0 .47-.22v-1.1h11.96V8.5H2.23a.29.29 0 0 0-.18.5" mask="url(#a)"/></svg>