<svg height="18" viewBox="0 0 18 18" width="18" xmlns="http://www.w3.org/2000/svg" xmlns:xlink="http://www.w3.org/1999/xlink"><linearGradient id="a" gradientUnits="userSpaceOnUse" x1="9" x2="9" y1=".81" y2="21.28"><stop offset="0" stop-color="#ffd70f"/><stop offset=".34" stop-color="#eeb309"/><stop offset=".77" stop-color="#dc8c03"/><stop offset="1" stop-color="#d57d01"/></linearGradient><path d="m17.5 2.5v10.83a.58.58 0 0 1 -.59.58h-4.52a.14.14 0 0 0 -.14.14v1.75a.28.28 0 0 1 -.45.22l-2.72-2.08h-7.99a.58.58 0 0 1 -.59-.58v-10.86a.58.58 0 0 1 .59-.58h15.82a.58.58 0 0 1 .59.58" fill="url(#a)"/><path d="m2.05 9 3 2.52a.29.29 0 0 0 .47-.22v-1.1h11.96v-1.7h-15.25a.29.29 0 0 0 -.18.5" fill="#ffe452"/><path d="m16.24 6.46-3.11-2.52a.29.29 0 0 0 -.47.22v1.1h-12.16v1.74h15.56a.29.29 0 0 0 .18-.54" fill="#fff"/></svg>