<svg xmlns="http://www.w3.org/2000/svg" width="1000" height="584.485"><g transform="translate(-137.5 -22.39)"><path id="path2998" d="M137.5 29.631v252.321h132.111c51.999 0 100.051-18.25 100.051-71.858 0-36.24-26.108-52.784-54.823-61.443 17.495-7.018 37.342-21.76 37.342-52.666 0-39.556-39.248-66.354-92.091-66.354zm80.933 58.766h29.755c12.113 0 21.349 9.488 21.349 19.118 0 8.947-9.597 18.522-21.35 18.522h-29.754zm0 90.009h39.276c13.712 0 25.218 10.413 25.218 22.316 0 12.639-10.761 23.134-27.598 23.134h-36.896z" fill="#1c252c"/><path id="path3005" d="M202.96 309.475v252.32h132.112c51.998 0 100.05-18.25 100.05-71.857 0-36.24-26.107-52.784-54.823-61.444 17.496-7.018 37.343-21.76 37.343-52.666 0-39.556-39.249-66.353-92.092-66.353zm80.934 58.766h29.755c12.112 0 21.349 9.488 21.349 19.117 0 8.947-9.598 18.522-21.35 18.522h-29.754zm0 90.008h39.276c13.711 0 25.217 10.414 25.217 22.316 0 12.64-10.76 23.134-27.597 23.134h-36.896z" fill="#1c252c"/><path id="path3007" d="M376.015 281.922V29.6h203.523v60.938H456.71v33.087h99.738v57.13H456.71v40.466h122.828v60.7z" fill="#1c252c"/><path id="path3009" d="M689.788 289.144c57.288 0 103.11-32.677 103.11-85.631 0-85.462-111.177-72.31-111.177-98.92 0-10.278 10.81-15.732 21.895-15.732 19.104 0 32.907 12.586 32.907 12.586l47.831-45.543c-19.13-18.207-49.345-33.514-90.047-33.514-61.127 0-101.118 36.28-101.118 80.045 0 86.548 109.575 73.987 109.575 101.143 0 9.52-9.159 19.096-25.77 19.096-18.858 0-33.798-11.385-45.425-21.044l-48.111 45.868c19.373 18.87 50.475 41.646 106.33 41.646" fill="#1c252c"/><path id="path3011" d="M855.186 281.922V90.3h-66.65V29.6h214.234v60.7h-66.65v191.62z" fill="#1c252c"/><path id="path3013" d="M437.905 309.296H518.6v151.155c0 15.349 15.276 29.494 31.203 29.494 15.024 0 30.21-12.773 30.21-30.301V309.296h80.458v149.32c0 59.25-49.193 106.513-112.8 106.513-63.97 0-109.766-51.437-109.766-109.742z" fill="#1c252c"/><path id="path3015" d="M759.97 561.617v-90.161l-94.844-162.16h81.645l53.666 86.884 53.852-86.884h81.83l-95.215 163.087v89.234z" fill="#1c252c" fill-opacity="1" stroke="none"/><path id="path3017" d="m936.12 447.39-47.608 47.607v64.27l47.607 47.608H1137.5V447.389z" fill="#ffed31"/><path id="path3024" d="M469 573.362a4 4 0 1 1-8 0 4 4 0 0 1 8 0" transform="translate(-327.65 -1008.324)scale(2.67793)" fill="#1c252c"/></g></svg>