<svg xmlns="http://www.w3.org/2000/svg" width="68.165" height="66.143" viewBox="0 0 18.035 17.5"><defs><mask id="a"><path fill="#fff" d="M0 0h18.035v17.5H0z"/><path d="M8.955.002a1.199 1.19 0 0 0-.459.117L2.224 3.114a1.199 1.19 0 0 0-.647.806L.03 10.65a1.199 1.19 0 0 0 .162.912 1.199 1.19 0 0 0 .068.095l4.34 5.396a1.199 1.19 0 0 0 .938.447h6.96a1.199 1.19 0 0 0 .937-.447l4.338-5.398a1.199 1.19 0 0 0 .232-1.005l-1.548-6.732a1.199 1.19 0 0 0-.65-.807L9.538.118A1.199 1.19 0 0 0 8.957 0m.003.462a1.137 1.127 0 0 1 .55.11l5.94 2.836a1.137 1.127 0 0 1 .615.764l1.468 6.375a1.137 1.127 0 0 1-.22.954l-4.11 5.112a1.137 1.127 0 0 1-.888.423H5.722a1.137 1.127 0 0 1-.888-.422l-4.11-5.112a1.137 1.127 0 0 1-.066-.09 1.137 1.127 0 0 1-.154-.863l1.465-6.375a1.137 1.127 0 0 1 .614-.764L8.523.572a1.137 1.127 0 0 1 .436-.11"/><path d="M9.018 3.811 4.977 5.606v2.695c0 2.491 1.724 4.822 4.041 5.388 2.317-.566 4.04-2.897 4.04-5.388V5.606zm0 1.903a1.295 1.295 0 1 1-.001 2.589 1.295 1.295 0 0 1 .001-2.59m2.423 5.347q0 .05-.027.09-.043.068-.09.132a4.5 4.5 0 0 1-2.306 1.654 4.5 4.5 0 0 1-2.307-1.654q-.047-.064-.09-.131a.17.17 0 0 1-.028-.09v-.718c0-.991 1.617-1.491 2.425-1.491s2.423.5 2.423 1.49z" pointer-events="none"/></mask></defs><g fill="currentColor" mask="url(#a)"><path d="M8.957.463a1.137 1.127 0 0 0-.434.11l-5.94 2.838a1.137 1.127 0 0 0-.615.764L.503 10.551a1.137 1.127 0 0 0 .154.862 1.137 1.127 0 0 0 .065.09l4.11 5.113a1.137 1.127 0 0 0 .89.423l6.592-.001a1.137 1.127 0 0 0 .888-.423l4.11-5.113a1.137 1.127 0 0 0 .219-.953l-1.468-6.374a1.137 1.127 0 0 0-.614-.764L9.51.572a1.137 1.127 0 0 0-.551-.11"/></g></svg>