<svg height="18" viewBox="0 0 18 18" width="18" xmlns="http://www.w3.org/2000/svg" xmlns:xlink="http://www.w3.org/1999/xlink"><linearGradient id="a"><stop offset="0" stop-color="#0078d4"/><stop offset="1" stop-color="#5ea0ef"/></linearGradient><linearGradient id="b" gradientUnits="userSpaceOnUse" x1="9" x2="9" xlink:href="#a" y1="13.343" y2=".586"/><linearGradient id="c" gradientUnits="userSpaceOnUse" x1="9.104" x2="9.104" y1="10.28" y2="7.603"><stop offset="0" stop-color="#76bc2d"/><stop offset=".412" stop-color="#7ac32f"/><stop offset="1" stop-color="#86d633"/></linearGradient><linearGradient id="d" gradientUnits="userSpaceOnUse" x1="9.119" x2="9.119" xlink:href="#a" y1="17.414" y2="13.924"/><path d="m18 9.348a4.045 4.045 0 0 0 -3.51-3.888 5.1 5.1 0 0 0 -5.25-4.874 5.23 5.23 0 0 0 -5 3.407 4.83 4.83 0 0 0 -4.24 4.644 4.9 4.9 0 0 0 5.068 4.706q.226 0 .447-.019h8.207a.8.8 0 0 0 .217-.032 4.093 4.093 0 0 0 4.061-3.944" fill="url(#b)"/><path d="m8.295 10.097h1.693v5.35h-1.693z" fill="#005ba1"/><path d="m13.937 5.8a.207.207 0 0 0 -.207-.2h-2.445a.092.092 0 0 0 -.065.158l.705.705.047.047a.094.094 0 0 1 0 .13l-.747.747a2.68 2.68 0 0 0 -1.517-1.038v-1.475a.093.093 0 0 1 .092-.093h1.068a.093.093 0 0 0 .066-.158l-1.734-1.737a.207.207 0 0 0 -.293 0l-1.74 1.737a.092.092 0 0 0 .065.158h1.068a.093.093 0 0 1 .093.093v1.475a2.68 2.68 0 0 0 -1.56 1.092l-.805-.8a.094.094 0 0 1 0-.13l.047-.047.705-.7a.092.092 0 0 0 -.065-.164h-2.445a.207.207 0 0 0 -.207.206v2.443a.093.093 0 0 0 .158.065l.705-.7.047-.047a.09.09 0 0 1 .13 0l1.275 1.271v.1a2.677 2.677 0 1 0 5.354 0q-.001-.1-.01-.2l1.18-1.18a.09.09 0 0 1 .13 0l.047.047.705.705a.093.093 0 0 0 .158-.065z" fill="#fff"/><circle cx="9.104" cy="8.941" fill="url(#c)" r="1.338"/><circle cx="9.119" cy="15.669" fill="url(#d)" r="1.745"/></svg>