<svg height="18" viewBox="0 0 18 18" width="18" xmlns="http://www.w3.org/2000/svg" xmlns:xlink="http://www.w3.org/1999/xlink"><linearGradient id="a" gradientUnits="userSpaceOnUse" x1="9" x2="9" y1="15.83" y2="5.79"><stop offset="0" stop-color="#b3b3b3"/><stop offset=".26" stop-color="#c1c1c1"/><stop offset="1" stop-color="#e6e6e6"/></linearGradient><path d="m.5 5.79h17v9.48a.57.57 0 0 1 -.57.57h-15.86a.57.57 0 0 1 -.57-.57z" fill="url(#a)"/><path d="m1.07 2.17h15.86a.57.57 0 0 1 .57.57v3.05h-17v-3.06a.57.57 0 0 1 .57-.56" fill="#37c2b1"/><path d="m2.81 6.89h12.37a.27.27 0 0 1 .26.27v1.4a.27.27 0 0 1 -.26.27h-12.37a.27.27 0 0 1 -.26-.27v-1.4a.27.27 0 0 1 .26-.27" fill="#fff"/><path d="m2.82 9.68h12.37a.27.27 0 0 1 .26.27v1.41a.27.27 0 0 1 -.26.27h-12.37a.27.27 0 0 1 -.26-.27v-1.36a.27.27 0 0 1 .26-.32" fill="#37c2b1"/><path d="m2.82 12.5h12.37a.27.27 0 0 1 .26.27v1.41a.27.27 0 0 1 -.26.27h-12.37a.27.27 0 0 1 -.26-.27v-1.41a.27.27 0 0 1 .26-.27" fill="#258277"/></svg>