<svg xmlns="http://www.w3.org/2000/svg" width="24" height="24"><defs><mask id="a"><path fill="#fff" d="M0 0h24v24H0z"/><path d="M4.875 10.125h2.813v6.188H4.875z"/></mask></defs><g fill="currentColor" mask="url(#a)"><path d="M16.791 6.375a.84.84 0 0 1 .834.846V17.64a.685.685 0 0 1-.75.735H4.688L2.25 20.812V7.221a.84.84 0 0 1 .834-.846z"/><path d="M12.375 11.438h2.813v4.875h-2.813z"/><path d="M8.625 8.625h2.813v7.688H8.625z"/></g><path fill="currentColor" d="M20.916 3.188a.84.84 0 0 1 .833.8v13.637l-2.25-2.25h-.75v-9.3a.823.823 0 0 0-.824-.821H6.375V4.033a.84.84 0 0 1 .8-.845z"/></svg>