<svg height="24" width="24" xmlns="http://www.w3.org/2000/svg"><path d="m9.76 20.6-1.04-1.05 5.45-5.48 1.04 1.05zm-2.73-2.28-1.04-1.05 7.35-7.39 1.04 1.05zm-1.69-3.34-1.04-1.05 4.88-4.9 1.04 1.05z" fill="#aecbfa"/><g fill="#669df6"><path d="m12 3.61 6.78 3v4.55a9.71 9.71 0 0 1 -6.78 9.32 9.7 9.7 0 0 1 -6.78-9.31v-4.54l6.78-3m0-1.63-8.25 3.68v5.49a11.17 11.17 0 0 0 8.1 10.83h.3a11.17 11.17 0 0 0 8.1-10.78v-5.54z"/><circle cx="14.69" cy="14.62" r="1.42"/><circle cx="13.85" cy="10.45" r="1.42"/><circle cx="9.69" cy="9.6" r="1.42"/></g></svg>