<svg xmlns="http://www.w3.org/2000/svg" xml:space="preserve" width="100" height="129.38" viewBox="0 0 100 129.378"><path fill="currentColor" d="M20.608 1.067.938 19.79v89.925l19.67 18.728h58.66l19.667-18.728v-28.11H60.189V96.11H39.683V33.401h20.506v12.243h38.746V19.792L79.269 1.066zm1.428 3.572h55.801l17.528 16.685V42.07H63.762V29.823H36.111v69.861h27.651V85.181h31.603v23.006l-17.528 16.682h-55.8L4.508 108.187V21.325zm.51 1.27L5.782 21.872v85.762l16.762 15.963h54.782l16.763-15.963V86.45H65.03v14.503H34.836V28.552h30.195v12.246H94.09V21.871L77.327 5.91z"/></svg>