<svg viewBox="0 0 24 24" xmlns="http://www.w3.org/2000/svg" fill="#0D1129"><path d="m22.083 5.023-9.063-4.721a2.717 2.717 0 0 0 -2.488 0l-8.615 4.487a2.06 2.06 0 0 0 -1.112 1.834l.006 10.76c0 .773.426 1.476 1.112 1.834l8.59 4.479c.38.198.813.304 1.245.304v-.002c.432 0 .862-.108 1.244-.306l9.083-4.735a2.053 2.053 0 0 0 1.11-1.835v-10.265a2.06 2.06 0 0 0 -1.112-1.834zm.222 12.103c.003.441-.24.847-.632 1.05l-9.085 4.736a1.81 1.81 0 0 1 -1.664 0l-8.59-4.48a1.184 1.184 0 0 1 -.637-1.048l-.006-10.759c0-.44.246-.844.636-1.048l8.615-4.491a1.828 1.828 0 0 1 1.666 0l9.063 4.725c.39.205.634.608.634 1.048zm-17.639-7.926v1.088l5.194-.848v-1.486zm4.111-.54.604-.132v.552l-.604.106zm-3.455.76 2.55-.562v.494l-2.55.46zm4.541 6.74v-1.486l-5.195-.85v1.088zm-1.986-.904-2.553-.562v-.395l2.553.46zm1.506.33-.602-.132v-.526l.602.106zm11.583-8.827-2.33-1.214-1.853.694v-1.659l-3.093-1.614a4.133 4.133 0 0 0 -3.827 0l-6.83 3.561a.298.298 0 0 0 -.16.26l.007 10.401c0 .11.06.21.16.26l6.805 3.547c1.2.626 2.627.626 3.827 0l3.1-1.614v-1.66l1.852.694 2.348-1.225a.298.298 0 0 0 .16-.262l-.006-9.908a.288.288 0 0 0 -.16-.26zm-16.568 4.112v-2.121l5.541-1.494a.23.23 0 0 1 .29.22v2.354c0 .204-.152.38-.356.402l-5.475.64zm5.477 3.01a.404.404 0 0 1 .359.4v2.355a.23.23 0 0 1 -.29.22l-5.542-1.494v-2.12l5.473.64zm3.137 6.962s.428-.612.48-1.74v-4.483s.042-1.68-1.334-2.601c1.376-.92 1.336-2.6 1.336-2.6v-4.323c0-1.272-.488-1.975-.488-1.975l3.307 1.725v5.061c0 .076.06.14.136.146l2.14.154a.15.15 0 0 0 .16-.148v-3.939l1.967 1.02v9.684l-1.966 1.026v-4.247a.15.15 0 0 0 -.16-.148l-2.14.156a.148.148 0 0 0 -.137.148v5.366l-3.3 1.72v-.002z"/></svg>