<svg height="48" viewBox="0 0 48 48" width="48" xmlns="http://www.w3.org/2000/svg"><path d="m24.027 2-4.171 4.172 1.413 1.413 2.758-2.756 4.438 4.437 1.414-1.414zm6.717 15.169h2v-12.863h-2zm3.43 3.429h2v-12.862h-2zm-23.009-10.148h12.862v-2h-12.862zm26.439 13.578h2v-12.862h-2zm-29.869-10.148h12.861v-2h-12.861zm-3.43 3.43h12.861v-2h-12.861zm-2.305 6.718 4.171 4.171 1.414-1.415-2.757-2.756 4.437-4.438-1.414-1.414zm38.468-2.757 2.759 2.757-4.439 4.437 1.414 1.414 5.853-5.851-4.172-4.171zm-32.018 15.618h2v-12.862h-2zm3.43 3.429h2v-12.861h-2zm18.149-7.573h12.861v-2.001h-12.861zm-14.719 11.004h2v-12.862h-2zm11.289-7.575h12.862v-2h-12.862zm-3.43 3.43h12.862v-2h-12.862zm-4.995.599 5.853 5.852 4.171-4.171-1.414-1.414-2.757 2.757-4.439-4.438z" fill="#e7157b" fill-rule="evenodd"/></svg>