<svg height="74" viewBox="0 0 74 74" width="74" xmlns="http://www.w3.org/2000/svg"><g fill="none" fill-rule="evenodd"><path d="m5 5h64v64h-64z" fill="#01a88d"/><path d="m1 1h72v72h-72z" stroke="#879196" stroke-width="2"/><path d="m29.98 33.631-8.475-11.069-8.474 11.069h4.969a1 1 0 0 1 1 1v7h5v-7a1 1 0 0 1 1-1zm2.819.392a.998.998 0 0 1 -.794 1.608h-6.005v7a1 1 0 0 1 -1 1h-7a1 1 0 0 1 -1-1v-7h-5.995a1 1 0 0 1 -.794-1.608l10.5-13.714c.379-.494 1.209-.494 1.588 0zm11.201-13.129c0 5.226-3.068 8.737-7.632 8.737h-4.368v-2h4.368c4.152 0 5.632-3.48 5.632-6.737 0-2.722-1.77-5.632-6.738-5.632a1 1 0 0 1 -.97-1.242c.442-1.765.082-3.386-.987-4.445-1.058-1.049-2.662-1.391-4.394-.943a.995.995 0 0 1 -1.22-.721c-1.244-4.886-5.585-5.911-9.007-5.911-.362.002-8.947.184-8.947 11.157a1 1 0 0 1 -1 1c-6.62 0-6.736 6.176-6.737 6.439 0 3.812 3.084 7.035 6.737 7.035h2.263v2h-2.263c-4.736 0-8.737-4.139-8.737-9.038 0-2.775 1.651-7.901 7.757-8.397.521-12.053 10.821-12.196 10.927-12.196 5.459 0 9.211 2.301 10.672 6.508 2.074-.285 3.99.292 5.357 1.646 1.324 1.313 1.928 3.148 1.729 5.157 5.551.471 7.558 4.286 7.558 7.583" fill="#fff" transform="translate(15 15)"/></g></svg>