<svg viewBox="0 0 128 128" xmlns="http://www.w3.org/2000/svg"><path d="m64 0c-28.398 0-51.402 22.913-51.402 51.2h25.702c0-14.132 11.515-25.601 25.7-25.601zm0 0" fill="#d5ff00"/><path d="m115.402 51.2c0-28.286-23.004-51.2-51.402-51.2v25.598c14.185 0 25.7 11.469 25.7 25.603zm0 0" fill="#35df79"/><path d="m64 102.402c28.398 0 51.402-22.914 51.402-51.201h-25.702c0 14.129-11.515 25.598-25.7 25.598zm0 0" fill="#00b9f1"/><path d="m38.3 102.402v-51.202h-25.703v76.8h51.403v-25.598zm0 0" fill="#fff"/></svg>