<svg height="64" viewBox="0 0 64 64" width="64" xmlns="http://www.w3.org/2000/svg"><g fill="none" fill-rule="evenodd"><path d="m0 0h64v64h-64z" fill="#dd344c"/><path d="m26.071 47.571a.571.571 0 1 0 -1.143 0 .571.571 0 0 0 1.143 0m2 0a2.574 2.574 0 0 1 -2.571 2.572 2.575 2.575 0 0 1 -2.572-2.572 2.574 2.574 0 0 1 2.572-2.571 2.573 2.573 0 0 1 2.571 2.571m14.515.429-1-1h-10.814a1 1 0 0 1 -.958-.715 4.53 4.53 0 0 0 -4.314-3.214 4.505 4.505 0 0 0 -4.5 4.5c0 2.481 2.018 4.5 4.5 4.5 1.776 0 3.335-.958 4.067-2.5a1 1 0 0 1 .903-.571h2.101c.257 0 .505.099.69.277l.881.84.881-.84a1 1 0 0 1 .691-.277h1.572c.257 0 .505.099.69.277l.881.84.881-.84a1 1 0 0 1 .69-.277h1.158zm2.121-.707a1 1 0 0 1 0 1.414l-2 2a1 1 0 0 1 -.707.293h-1.171l-1.281 1.223a1 1 0 0 1 -1.381 0l-1.282-1.223h-.771l-1.281 1.223a1 1 0 0 1 -1.381 0l-1.281-1.223h-1.105c-1.157 1.909-3.234 3.071-5.566 3.071a6.51 6.51 0 0 1 -6.5-6.5c0-3.584 2.916-6.5 6.5-6.5 2.598 0 4.955 1.583 5.97 3.929h10.53a1 1 0 0 1 .707.293zm-7.228-26.847 4.521 4.19 4.52-4.186-4.52-4.1zm3.841 6.287-6-5.562a1 1 0 0 1 .008-1.475l6-5.438a1 1 0 0 1 1.344.001l6 5.443a.996.996 0 0 1 .007 1.474l-6 5.558a.997.997 0 0 1 -1.359-.001m-14.421-3.733-4.399-5.414-4.4 5.414zm2.101 2h-13a1.001 1.001 0 0 1 -.777-1.631l6.5-8c.381-.467 1.172-.467 1.553 0l6.5 8a1.002 1.002 0 0 1 -.776 1.631m-11 9c0 2.205 1.794 4 4 4s4-1.795 4-4-1.794-4-4-4-4 1.794-4 4m-2 0c0-3.309 2.691-6 6-6 3.308 0 6 2.691 6 6 0 3.308-2.692 6-6 6-3.309 0-6-2.692-6-6m22 4h7v-7h-7zm9 1a1 1 0 0 1 -1 1h-9a1 1 0 0 1 -1-1v-9a1 1 0 0 1 1-1h9a1 1 0 0 1 1 1zm7-28v39a1 1 0 0 1 -1 1h-6v-2h5v-37h-40v37h5v2h-6a1 1 0 0 1 -1-1v-39a1 1 0 0 1 1-1h42a1 1 0 0 1 1 1" fill="#fff"/></g></svg>