<svg height="48" viewBox="0 0 48 48" width="48" xmlns="http://www.w3.org/2000/svg"><path d="m24.002 44.003c-11.03 0-20.002-8.973-20.002-20.003s8.973-20 20.002-20 20 8.973 20 20c0 11.03-8.973 20.003-20 20.003m0-42.003c-12.132 0-22.002 9.869-22.002 22 0 12.133 9.87 22.003 22.002 22.003s22-9.87 22-22.002-9.868-22.001-22-22.001m5.082 21.294a1 1 0 0 1 0 1.414l-2.943 2.946-1.414-1.414 1.238-1.24h-7.215v-2h7.215l-1.238-1.238 1.413-1.414zm2.918 11.958h3.25v-3.25h-3.25zm4.25-5.25h-5.25a1 1 0 0 0 -1 1v5.25a1 1 0 0 0 1 1h5.25a1 1 0 0 0 1-1v-5.25a1 1 0 0 0 -1-1m-18.586-11.262 7.296-3.85-1.567-.425.523-1.93 4.018 1.089a1 1 0 0 1 .704 1.227l-1.09 4.02-1.93-.522.488-1.803-7.507 3.964zm14.336-2.74h3.25v-3.25h-3.25zm4.25-5.25h-5.25a1 1 0 0 0 -1 1v5.25a1 1 0 0 0 1 1h5.25a1 1 0 0 0 1-1v-5.25a1 1 0 0 0 -1-1m-27.906 16.597h6.69v-6.69h-6.69zm7.69-8.691h-8.69a1 1 0 0 0 -1 1v8.69a1 1 0 0 0 1 1h8.69a1 1 0 0 0 1-1v-8.69a1 1 0 0 0 -1-1m12.604 14.494a1 1 0 0 1 -.704 1.227l-4.018 1.09-.523-1.93 1.567-.425-7.296-3.85.934-1.77 7.508 3.963-.488-1.803 1.93-.523zm3.36-7.524h3.25v-3.25h-3.25zm4.25-5.25h-5.25a1 1 0 0 0 -1 1v5.25a1 1 0 0 0 1 1h5.25a1 1 0 0 0 1-1v-5.25a1 1 0 0 0 -1-1" fill="#8c4fff" fill-rule="evenodd"/></svg>