<svg height="48" viewBox="0 0 48 48" width="48" xmlns="http://www.w3.org/2000/svg"><path d="m22.376 25.627h4.126v-4.126h-4.126zm6.126 0h4.125v-4.126h-4.125zm-7.126 2h12.251a1 1 0 0 0 1-1v-6.126a1 1 0 0 0 -1-1h-12.251a1 1 0 0 0 -1 1v6.126a1 1 0 0 0 1 1m16.501 1.5h-2.5a1 1 0 0 0 -1 1v1.625h-2.375v-1.625a1 1 0 0 0 -1-1h-3.5a1 1 0 0 0 -1 1v1.625h-6.751v-1.625a1 1 0 0 0 -1-1h-.75v-11.126h19.876zm1-13.126h-21.876a1 1 0 0 0 -1 1v13.126a1 1 0 0 0 1 1h.75v1.625a1 1 0 0 0 1 1h8.751a1 1 0 0 0 1-1v-1.625h1.5v1.625a1 1 0 0 0 1 1h4.375a1 1 0 0 0 1-1v-1.625h2.5a1 1 0 0 0 1-1v-13.126a1 1 0 0 0 -1-1m-24.376-.75v19.251a1 1 0 0 1 -1 1h-3.151v-2h2.151v-17.251h-2.151v-2h3.151a1 1 0 0 1 1 1m9.501 28.752c-11.03 0-20.002-8.973-20.002-20.002s8.972-20.001 20.002-20.001c11.028 0 20 8.973 20 20.001s-8.972 20.002-20 20.002m0-42.003c-12.132 0-22.002 9.869-22.002 22.001s9.87 22.002 22.002 22.002 22-9.87 22-22.002-9.869-22.001-22-22.001" fill="#8c4fff" fill-rule="evenodd"/></svg>