<svg viewBox="0 0 24 24" xmlns="http://www.w3.org/2000/svg"><path d="m12.025 0a3.87 3.87 0 0 0 -1.964.525l-8.707 5.025v.95h15.853a3.9 3.9 0 0 0 3.463-2.115l-6.748-3.877a3.87 3.87 0 0 0 -1.897-.508m9.81 5.072-7.925 13.729a3.9 3.9 0 0 0 .1 4.056l6.734-3.908a3.87 3.87 0 0 0 1.914-3.35v-10.049l-.822-.477zm-20.375 2.776-.117.004.017 7.787a3.87 3.87 0 0 0 1.946 3.334l8.702 5.027.824-.475-7.926-13.73a3.9 3.9 0 0 0 -3.446-1.947m10.532 1.252a2.6 2.6 0 0 0 -2.584 2.6 2.6 2.6 0 0 0 2.6 2.599 2.6 2.6 0 0 0 2.6-2.6 2.6 2.6 0 0 0 -2.6-2.6z"/></svg>