<svg xmlns="http://www.w3.org/2000/svg" width="18" height="18" viewBox="0 0 18 18"><clipPath id="a"><path fill="currentColor" d="M9.71 1.185a.71.71 0 0 1 .711-.711h4.263a.71.71 0 0 1 .71.711v15.63a.71.71 0 0 1-.71.711H3.316a.71.71 0 0 1-.71-.711V9.71a.71.71 0 0 1 .71-.71h2.842V5.448a.71.71 0 0 1 .711-.711H9.71z"/></clipPath><g fill="currentColor" clip-path="url(#a)"><path d="M15.394.474v17.052H9.71V.474z"/><path d="M11.842 5.448v12.078H6.158V4.737h4.973a.71.71 0 0 1 .711.711"/><path d="M2.606 9v8.526H8.29V9.71A.71.71 0 0 0 7.579 9z"/></g></svg>