<svg height="18" viewBox="0 0 18 18" width="18" xmlns="http://www.w3.org/2000/svg" xmlns:xlink="http://www.w3.org/1999/xlink"><linearGradient id="a"><stop offset="0" stop-color="#5e9624"/><stop offset="1" stop-color="#76bc2d"/></linearGradient><linearGradient id="b" gradientUnits="userSpaceOnUse" x1="7.94" x2="7.94" xlink:href="#a" y1="7.7" y2="3.75"/><linearGradient id="c" gradientUnits="userSpaceOnUse" x1="7.94" x2="7.94" xlink:href="#a" y1="14.26" y2="10.31"/><g fill="#a3a3a3"><path d="m1.06 1.42h1.29v3.58a.29.29 0 0 1 -.29.29h-1.29a.29.29 0 0 1 -.29-.29v-3a.57.57 0 0 1 .58-.58"/><path d="m1.06 1.42h1.29v3.58a.29.29 0 0 1 -.29.29h-1.29a.29.29 0 0 1 -.29-.29v-3a.57.57 0 0 1 .58-.58" opacity=".5"/></g><g fill="#a3a3a3"><path d="m15.65 1.42h1.29a.57.57 0 0 1 .57.57v3.01a.29.29 0 0 1 -.29.29h-1.28a.29.29 0 0 1 -.29-.29z"/><path d="m15.65 1.42h1.29a.57.57 0 0 1 .57.57v3.01a.29.29 0 0 1 -.29.29h-1.28a.29.29 0 0 1 -.29-.29z" opacity=".5"/></g><path d="m17.51 1.98v1.25h-17v-1.25a.57.57 0 0 1 .57-.57h15.86a.57.57 0 0 1 .57.57" fill="#949494"/><g fill="#a3a3a3"><path d="m.77 12.69h1.29a.29.29 0 0 1 .29.29v3.61h-1.29a.57.57 0 0 1 -.58-.59v-3a.29.29 0 0 1 .29-.31"/><path d="m.77 12.69h1.29a.29.29 0 0 1 .29.29v3.61h-1.29a.57.57 0 0 1 -.58-.59v-3a.29.29 0 0 1 .29-.31" opacity=".5"/></g><g fill="#a3a3a3"><path d="m15.94 12.69h1.29a.29.29 0 0 1 .29.29v3a.57.57 0 0 1 -.57.57h-1.3v-3.55a.29.29 0 0 1 .29-.31"/><path d="m15.94 12.69h1.29a.29.29 0 0 1 .29.29v3a.57.57 0 0 1 -.57.57h-1.3v-3.55a.29.29 0 0 1 .29-.31" opacity=".5"/></g><path d="m.48 16.02v-1.25h17v1.25a.57.57 0 0 1 -.57.57h-15.86a.57.57 0 0 1 -.57-.57" fill="#949494"/><path d="m14.91 8.84-1.82-1.84a.09.09 0 0 0 -.16.07v1.13a.09.09 0 0 1 -.1.1h-5.24a1.05 1.05 0 0 0 -.83-.41 1.1 1.1 0 1 0 0 2.19 1.08 1.08 0 0 0 .84-.42h5.23a.09.09 0 0 1 .1.09v1.11a.09.09 0 0 0 .16.06l1.82-1.81a.2.2 0 0 0 0-.27" fill="#5ea0ef"/><path d="m11.55 5.59-1.82-1.81a.09.09 0 0 0 -.16.07v1.15a.09.09 0 0 1 -.09.1h-3.28a1.07 1.07 0 0 0 -.84-.41 1.1 1.1 0 1 0 .85 1.77h3.27a.09.09 0 0 1 .09.09v1.06a.09.09 0 0 0 .16.06l1.82-1.81a.2.2 0 0 0 0-.27" fill="url(#b)"/><path d="m11.55 12.15-1.82-1.81a.09.09 0 0 0 -.16.07v1.1a.1.1 0 0 1 -.09.1h-3.28a1.07 1.07 0 0 0 -.84-.41 1.1 1.1 0 1 0 .85 1.8h3.27a.09.09 0 0 1 .09.09v1.11a.09.09 0 0 0 .16.06l1.82-1.81a.2.2 0 0 0 0-.3" fill="url(#c)"/></svg>