<svg xmlns="http://www.w3.org/2000/svg" width="18" height="18" viewBox="0 0 18 18">
  <defs>
    <mask id="wko">
      <rect width="18" height="18" fill="white"/>
      <rect width="4.091" height=".818" x="1.636" y="2.455" fill="black" rx=".172"/>
    </mask>
  </defs>
  <g fill="currentColor" mask="url(#wko)">
    <path fill="currentColor" d="M17.579 3.283H9.727a.4.4 0 0 1-.233-.07L7.251 1.721a.4.4 0 0 0-.233-.071H.421A.42.42 0 0 0 0 2.07v13.86a.42.42 0 0 0 .421.42h17.158a.42.42 0 0 0 .421-.42V3.7a.42.42 0 0 0-.421-.417"/>
  </g>
  <path fill="currentColor" d="M17.579 3.263H8.956a.42.42 0 0 0-.3.123L7.272 4.773a.42.42 0 0 1-.3.123H.421a.42.42 0 0 0-.421.42V15.91a.42.42 0 0 0 .421.419h17.158A.42.42 0 0 0 18 15.91V3.683a.42.42 0 0 0-.421-.42"/>
</svg>