<svg height="18" viewBox="0 0 18 18" width="18" xmlns="http://www.w3.org/2000/svg" xmlns:xlink="http://www.w3.org/1999/xlink"><linearGradient id="a" gradientUnits="userSpaceOnUse" x1="9.252" x2="8.842" y1=".485" y2="16.966"><stop offset="0" stop-color="#ffd400"/><stop offset=".415" stop-color="#ffd000"/><stop offset=".845" stop-color="#ffc301"/><stop offset="1" stop-color="#ffbd02"/></linearGradient><path d="m17.579 3.283h-7.852a.4.4 0 0 1 -.233-.07l-2.243-1.492a.4.4 0 0 0 -.233-.071h-6.597a.42.42 0 0 0 -.421.42v13.86a.42.42 0 0 0 .421.42h17.158a.42.42 0 0 0 .421-.42v-12.23a.42.42 0 0 0 -.421-.417" fill="#dfa500"/><rect fill="#fff" height=".818" rx=".172" width="4.091" x="1.636" y="2.455"/><path d="m17.579 3.263h-8.623a.42.42 0 0 0 -.3.123l-1.384 1.387a.42.42 0 0 1 -.3.123h-6.551a.42.42 0 0 0 -.421.42v10.594a.42.42 0 0 0 .421.419h17.158a.42.42 0 0 0 .421-.419v-12.227a.42.42 0 0 0 -.421-.42" fill="url(#a)"/></svg>