<svg viewBox="0 0 24 24" xmlns="http://www.w3.org/2000/svg" fill="#5D83AC"><path d="m19.351 15.563-5.486-7.941a2.684 2.684 0 0 0 -.702-.702c-.276-.188-.62-.283-1.03-.283-.43 0-.784.101-1.064.302-.28.202-.512.43-.696.683l-5.63 7.94h3.215l4.122-5.827 1.575 2.323c.148.21.304.436.466.676.161.24.304.44.426.597a9.106 9.106 0 0 0 -.741-.026h-3.026l-1.64 2.258zm-7.351 8.437c-6.627 0-12-5.373-12-12s5.373-12 12-12 12 5.373 12 12-5.373 12-12 12zm0-21.61a9.61 9.61 0 1 0 0 19.22 9.61 9.61 0 1 0 0-19.22z"/></svg>