<svg viewBox="0 0 24 24" xmlns="http://www.w3.org/2000/svg"><path d="m21.443 0c-.89 0-1.714.46-2.18 1.218l-5.017 7.448a.533.533 0 0 0 .792.7l4.938-4.282a.2.2 0 0 1 .334.151v13.41a.2.2 0 0 1 -.354.128l-14.926-17.868a2.555 2.555 0 0 0 -1.952-.905h-.521a2.557 2.557 0 0 0 -2.557 2.557v18.886a2.557 2.557 0 0 0 4.736 1.338l5.017-7.448a.533.533 0 0 0 -.792-.7l-4.938 4.283a.2.2 0 0 1 -.333-.152v-13.412a.2.2 0 0 1 .354-.128l14.924 17.87c.486.574 1.2.905 1.952.906h.521a2.558 2.558 0 0 0 2.559-2.555v-18.888a2.558 2.558 0 0 0 -2.557-2.557z"/></svg>