<svg viewBox="0 0 128 128" xmlns="http://www.w3.org/2000/svg" xmlns:xlink="http://www.w3.org/1999/xlink"><linearGradient id="a"><stop offset="0" stop-color="#0052cc"/><stop offset="1" stop-color="#2684ff"/></linearGradient><linearGradient id="b" gradientUnits="userSpaceOnUse" x1="44.868" x2="44.868" xlink:href="#a" y1="29.944" y2="86.428"/><linearGradient id="c" gradientUnits="userSpaceOnUse" x1="44.672" x2="44.672" xlink:href="#a" y1="29.944" y2="86.428"/><path d="m104.133 70.633h-20c-1.235 0-2.465.96-2.602 2.191-1.097 7.946-7.945 14.11-16.164 14.11l5.344 24.656c19.45-2.602 34.652-18.492 36.023-38.219.137-1.504-1.097-2.738-2.601-2.738zm-34.387-.683 28.766-24.657c1.234-1.098 1.234-2.879 0-3.973l-28.766-24.656c-1.644-1.508-4.246-.273-4.246 1.918v49.313c-.137 2.328 2.465 3.562 4.246 2.054zm0 0" fill="#2684ff"/><path d="m24.273 75.977c2.607 20.27 20 36.023 41.094 36.023v-25.066c-9.039 0-16.437-7.262-16.437-16.301zm0 0" fill="url(#b)"/><path d="m24 70.223v.41h25.066c0-9.04 7.399-16.301 16.438-16.301l-5.344-24.656c-20.27 2.604-36.023 19.726-36.16 40.547zm0 0" fill="url(#c)"/></svg>