<svg viewBox="0 0 24 24" xmlns="http://www.w3.org/2000/svg"><path d="m0 8.144v6.023h2.006v-6.023zm2.324 0v1.203h1.488v1.285h-1.488v1.048h1.488v1.284h-1.488v1.203h2.328l1.207-1.203v-1.184l-.603-.604.603-.603v-1.226l-1.207-1.203zm5.569 1.203-1.203 1.203v2.414l1.203 1.203h1.347v-1.125h-.522v-2.492h.522v-1.203zm1.665 0v1.203h.5v2.492h-.5v1.125h1.344l1.202-1.203v-2.414l-1.202-1.203zm3.454 0v4.82h2.006v-4.82zm3 0-.672.676v.527h.854v1.171h2.01v-1.248l-.975-1.126zm3.971 0-1.202 1.203v2.414l1.202 1.203h1.094l.6-.594v-.531h-.89v-3.695zm1.121 0v1.203h.89v4.253h-2.446v.444l.603.609h2.646l1.203-1.212v-4.094l-1.203-1.203z"/></svg>