<svg fill="#e31337" viewBox="0 0 24 24" xmlns="http://www.w3.org/2000/svg"><path d="m6.076 1.637a.1.1 0 0 0 -.09.05l-5.972 10.263a.1.1 0 0 0 0 .104l6.039 10.26c.04.068.14.068.18 0l5.972-10.262a.1.1 0 0 0 -.002-.104l-6.037-10.261a.1.1 0 0 0 -.09-.05m2.863 0a.103.103 0 0 0 -.09.154l5.186 8.967a.1.1 0 0 0 .09.053h3.117c.08 0 .13-.088.09-.157l-5.186-8.966a.1.1 0 0 0 -.09-.051zm5.891 0a.102.102 0 0 0 -.088.154l5.914 10.209-5.914 10.209a.102.102 0 0 0 .088.154h3.123a.1.1 0 0 0 .088-.05l5.945-10.262a.1.1 0 0 0 0-.102l-5.945-10.261a.1.1 0 0 0 -.088-.051zm-.79 11.7a.1.1 0 0 0 -.089.052l-5.101 8.82c-.04.069.01.154.09.154h3.117a.1.1 0 0 0 .09-.05l5.1-8.82a.103.103 0 0 0 -.09-.155z"/></svg>