<svg xmlns="http://www.w3.org/2000/svg" width="24" height="24"><path fill="currentColor" d="M3.47 15.68a4.31 4.31 0 1 1 6.07-.4 4 4 0 0 1-.39.4 4.32 4.32 0 0 1-5.68 0m5.2-5.2a3.07 3.07 0 1 0-.4 4.33 3 3 0 0 0 .4-.4 3.07 3.07 0 0 0 0-3.93m6.19 5.2a4.31 4.31 0 1 1 6.07-.4 4 4 0 0 1-.4.4 4.31 4.31 0 0 1-5.67 0m5.2-5.2a3.07 3.07 0 1 0-.4 4.33 3 3 0 0 0 .4-.4 3.08 3.08 0 0 0 0-3.93"/><circle cx="6.31" cy="12.44" r="1.69" fill="currentColor"/><circle cx="17.69" cy="12.44" r="1.69" fill="currentColor"/></svg>