<svg height="64" viewBox="0 0 64 64" width="64" xmlns="http://www.w3.org/2000/svg"><g fill="none" fill-rule="evenodd"><path d="m0 0h64v64h-64z" fill="#e7157b"/><path d="m14 31a1.001 1.001 0 0 1 0 2 1.001 1.001 0 0 1 0-2m19.396 20c-8.888 0-16.574-6.919-18.244-16.232a3 3 0 0 0 1.663-1.768h5.185v-2h-5.185a3 3 0 0 0 -1.66-1.768c1.621-8.742 9.296-15.232 18.241-15.232 4.191 0 7.192.844 10.033 2.821l1.142-1.642c-3.16-2.199-6.606-3.179-11.175-3.179-10.002 0-18.57 7.322-20.255 17.14a2.99 2.99 0 0 0 -2.141 2.86c0 1.353.906 2.486 2.139 2.859 1.741 10.389 10.317 18.141 20.257 18.141 4.232 0 8.333-1.409 12.189-4.189l-1.17-1.622c-3.508 2.529-7.216 3.811-11.019 3.811m-8.334-21.541c1.395.378 3.029.541 4.372.541 1.282 0 2.826-.145 4.184-.474l-3.513 7.027a1 1 0 0 0 -.105.447v3.501a26 26 0 0 0 -.399.331c-.394.33-1.169.981-1.601 1.142v-4.974q0-.192-.071-.372zm4.372-3.459c2.599 0 4.581.566 5.335 1-.754.434-2.736 1-5.335 1-2.695 0-4.533-.601-5.216-1 .683-.399 2.521-1 5.216-1m-2.434 18h1q.065 0 .128-.008c.966-.125 1.918-.924 2.758-1.628.259-.217.486-.412.66-.526.283-.185.454-.5.454-.838v-3.764l4.592-9.183c.258-.308.408-.657.408-1.053 0-2.201-4.525-3-7.566-3-2.989 0-7.434.799-7.434 3 0 .317.101.601.268.862l3.732 9.33v5.808a1 1 0 0 0 1 1m22-1a1.001 1.001 0 0 1 0 2 1.001 1.001 0 0 1 0-2m0-24a1.001 1.001 0 0 1 0 2 1.001 1.001 0 0 1 0-2m2 12a1.001 1.001 0 0 1 0 2 1.001 1.001 0 0 1 0-2m-7 2h4.185a2.99 2.99 0 0 0 2.815 2c1.654 0 3-1.346 3-3s-1.346-3-3-3a2.99 2.99 0 0 0 -2.815 2h-4.185v-10h2.185a2.99 2.99 0 0 0 2.815 2c1.654 0 3-1.346 3-3s-1.346-3-3-3a2.99 2.99 0 0 0 -2.815 2h-3.185a1 1 0 0 0 -1 1v11h-5v2h5v11a1 1 0 0 0 1 1h3.185a2.99 2.99 0 0 0 2.815 2c1.654 0 3-1.346 3-3s-1.346-3-3-3a2.99 2.99 0 0 0 -2.815 2h-2.185z" fill="#fff"/></g></svg>