<svg viewBox="0 0 24 24" xmlns="http://www.w3.org/2000/svg"><path d="m10.31.615a4.5 4.5 0 0 1 3.382 0l8.998 3.648a2.1 2.1 0 0 1 1.31 1.945v11.584a2.1 2.1 0 0 1 -1.311 1.946l-8.998 3.648a4.5 4.5 0 0 1 -3.382 0l-8.998-3.648a2.1 2.1 0 0 1 -1.311-1.946v-11.584a2.1 2.1 0 0 1 1.311-1.946zm2.705 1.668a2.7 2.7 0 0 0 -2.028 0l-9 3.647a.3.3 0 0 0 -.187.278v11.584a.3.3 0 0 0 .187.278l8.999 3.648a2.7 2.7 0 0 0 2.028 0l8.999-3.648a.3.3 0 0 0 .187-.278v-11.584a.3.3 0 0 0 -.187-.278zm-6.996 4.375 5.981 2.27 5.98-2.27c1.122-.427 1.762 1.256.64 1.683l-5.72 2.17v6.589c0 1.2-1.8 1.2-1.8 0v-6.59l-5.72-2.17c-1.122-.426-.482-2.109.64-1.683"/></svg>