<svg height="64" viewBox="0 0 64 64" width="64" xmlns="http://www.w3.org/2000/svg"><g fill="none" fill-rule="evenodd"><path d="m0 0h64v64h-64z" fill="#e7157b"/><path d="m16.59 12h9.821l3.89 7h-2.8l-2.7-3.6a1 1 0 0 0 -.8-.4h-5a1 1 0 0 0 -.8.4l-2.701 3.6h-2.802zm-5.59 9h5a1 1 0 0 0 .8-.4l2.7-3.6h4l2.7 3.6a1 1 0 0 0 .8.4h5a1 1 0 0 0 .874-1.486l-5-9a1 1 0 0 0 -.874-.514h-11a1 1 0 0 0 -.874.514l-5 9a1 1 0 0 0 .874 1.486m35.445 22h-8.89l-3.75-6h3.66l1.703 2.555c.186.278.498.445.832.445h4a1 1 0 0 0 .832-.445l1.703-2.555h3.66zm5.555-8h-6c-.334 0-.646.167-.832.445l-1.703 2.555h-2.93l-1.703-2.555a1 1 0 0 0 -.832-.445h-6a1.002 1.002 0 0 0 -.848 1.53l5 8a1 1 0 0 0 .848.47h10a1 1 0 0 0 .848-.47l5-8a1 1 0 0 0 -.848-1.53m-25.589 18h-9.821l-4.445-8 4.445-8h9.822l4.446 8zm1.463-17.486a1 1 0 0 0 -.874-.514h-11a1 1 0 0 0 -.874.514l-5 9a1 1 0 0 0 0 .972l5 9a1 1 0 0 0 .874.514h11a1 1 0 0 0 .874-.514l5-9a1 1 0 0 0 0-.972zm-.856-5.429-1.759-2.93 2.155-2.155h2.781zm-4.992.915-2.062-3h3.47l1.8 3zm-5.47 0-3.75-6h2.668l4.125 6zm16.32-7.485a1 1 0 0 0 -.876-.515h-5a1 1 0 0 0 -.707.293l-2.707 2.707h-4.996l-1.765-2.566a1 1 0 0 0 -.825-.434h-5a1.002 1.002 0 0 0 -.848 1.53l5 8a1 1 0 0 0 .848.47h11a1 1 0 0 0 .848-.47l5-8a1 1 0 0 0 .027-1.015m-9.442 25.485h-3.867l-2.4-4 2.4-4h3.867l2.4 4zm.567-10h-5a1 1 0 0 0 -.857.485l-3 5a1 1 0 0 0 0 1.03l3 5c.18.301.506.485.857.485h5a1 1 0 0 0 .858-.485l3-5c.19-.317.19-.713 0-1.03l-3-5a1 1 0 0 0 -.858-.485m13.555-14h8.89l3.75 6h-3.66l-1.703-2.555a1 1 0 0 0 -.832-.445h-4c-.334 0-.646.167-.832.445l-1.703 2.555h-3.66zm-6.43 7.485c.177.318.512.515.875.515h6a1 1 0 0 0 .832-.445l1.703-2.555h2.93l1.703 2.555c.186.278.498.445.832.445h6a1.002 1.002 0 0 0 .848-1.53l-5-8a1 1 0 0 0 -.848-.47h-10a1 1 0 0 0 -.848.47l-5 8a1 1 0 0 0 -.027 1.015" fill="#fff"/></g></svg>