<svg viewBox="0 0 128 128" xmlns="http://www.w3.org/2000/svg"><path d="m16.219 15.762a1.129 1.129 0 0 0 -1.076 1.399l24.394 98.742a1.129 1.129 0 0 0 1.879.544l73.386-70.59a1.129 1.129 0 0 0 -.47-1.899l-97.782-28.152a1.129 1.129 0 0 0 -.331-.044zm1.584 2.754 94.024 27.07-70.566 67.877z"/><path d="m65.137 29.84a1.129 1.129 0 0 0 -.807.315l-36.676 35.305a1.129 1.129 0 0 0 .471 1.898l48.859 14.082a1.129 1.129 0 0 0 1.409-1.355l-12.183-49.387a1.129 1.129 0 0 0 -1.073-.858zm-.651 3.3 11.248 45.59-45.104-13z"/><path d="m46.914 47.313a1.129 1.129 0 0 0 -1.076 1.399l6.054 24.531a1.129 1.129 0 0 0 1.88.543l18.222-17.563a1.129 1.129 0 0 0 -.472-1.898l-24.277-6.968a1.129 1.129 0 0 0 -.331-.044zm1.583 2.751 20.522 5.89-15.405 14.846z"/><path d="m40.902 22.809a1.129 1.129 0 0 0 -.807.316l-18.222 17.562a1.129 1.129 0 0 0 .472 1.898l24.273 6.969a1.129 1.129 0 0 0 1.408-1.356l-6.051-24.53a1.129 1.129 0 0 0 -1.073-.86zm-.65 3.3 5.114 20.736-20.517-5.89 15.403-14.847zm49.201 10.684a1.129 1.129 0 0 0 -.806.316l-18.224 17.561a1.129 1.129 0 0 0 .472 1.899l24.274 6.968a1.129 1.129 0 0 0 1.408-1.356l-6.05-24.53a1.129 1.129 0 0 0 -1.074-.859zm-.65 3.3 5.114 20.737-20.517-5.89 15.403-14.846zm-35.859 31.771a1.129 1.129 0 0 0 -.74.315l-18.222 17.563a1.129 1.129 0 0 0 .472 1.898l24.278 6.968a1.129 1.129 0 0 0 1.407-1.355l-6.055-24.531a1.129 1.129 0 0 0 -1.14-.858zm-.582 3.3 5.118 20.737-20.522-5.89 15.404-14.846z"/></svg>