<svg height="18" viewBox="0 0 18 18" width="18" xmlns="http://www.w3.org/2000/svg" xmlns:xlink="http://www.w3.org/1999/xlink"><linearGradient id="a" gradientUnits="userSpaceOnUse" x1="8.63" x2="8.63" y1="17.59" y2=".59"><stop offset="0" stop-color="#0078d4"/><stop offset=".82" stop-color="#5ea0ef"/></linearGradient><path d="m9.59.72h-7.23a.56.56 0 0 0 -.57.57v15.6a.56.56 0 0 0 .57.57h12.53a.57.57 0 0 0 .58-.57v-10.33a.58.58 0 0 0 -.58-.56h-4.16a.57.57 0 0 1 -.57-.57v-4.14a.56.56 0 0 0 -.57-.57" fill="#fff"/><path d="m9.33 1.45v3.92a1.43 1.43 0 0 0 1.43 1.43h4v9.93h-12.22v-15.28zm.27-.86h-7.34a.58.58 0 0 0 -.58.58v15.83a.58.58 0 0 0 .58.58h12.74a.58.58 0 0 0 .58-.58v-10.47a.58.58 0 0 0 -.58-.53h-4.24a.58.58 0 0 1 -.58-.58v-4.25a.58.58 0 0 0 -.58-.58" fill="url(#a)"/><path d="m15.35 6.06-5.35-5.34v4.35a1 1 0 0 0 1 1z" fill="#0078d4"/><path d="m5.27 10.56a1.2 1.2 0 0 1 -.26.83.89.89 0 0 1 -.72.29 1 1 0 0 1 -.39-.08v-.6a.55.55 0 0 0 .35.12c.27 0 .41-.21.41-.62v-1.57h.61zm.46 1v-.6a1.3 1.3 0 0 0 .36.21 1.2 1.2 0 0 0 .38.07h.2l.15-.06a.34.34 0 0 0 .08-.18.2.2 0 0 0 0-.11.23.23 0 0 0 0-.14.5.5 0 0 0 -.13-.11.8.8 0 0 0 -.18-.1l-.23-.1a1.25 1.25 0 0 1 -.47-.32.68.68 0 0 1 -.16-.46.9.9 0 0 1 .08-.37 1 1 0 0 1 .19-.22 1.2 1.2 0 0 1 .34-.14 2 2 0 0 1 .41 0 2 2 0 0 1 .37 0 1.3 1.3 0 0 1 .3.08v.56a.5.5 0 0 0 -.15-.08.4.4 0 0 0 -.16-.06l-.11-.06h-.38a.6.6 0 0 0 -.14.06.21.21 0 0 0 -.12.2.3.3 0 0 0 0 .12.6.6 0 0 0 .11.1l.16.09.21.1a2 2 0 0 1 .29.14 1.3 1.3 0 0 1 .22.17.7.7 0 0 1 .14.22.9.9 0 0 1 .05.29.74.74 0 0 1 -.09.38.7.7 0 0 1 -.23.25.9.9 0 0 1 -.34.13 2 2 0 0 1 -.41 0 3 3 0 0 1 -.42 0 1.1 1.1 0 0 1 -.32-.1zm3.42.16a1.26 1.26 0 0 1 -.94-.38 1.38 1.38 0 0 1 -.37-1 1.48 1.48 0 0 1 .37-1 1.3 1.3 0 0 1 1-.4 1.24 1.24 0 0 1 .94.38 1.4 1.4 0 0 1 .35 1 1.43 1.43 0 0 1 -.37 1 1.24 1.24 0 0 1 -.98.36zm0-2.27a.61.61 0 0 0 -.51.24 1.16 1.16 0 0 0 0 1.27.62.62 0 0 0 .49.23.61.61 0 0 0 .5-.23 1 1 0 0 0 .18-.63 1 1 0 0 0 -.17-.65.61.61 0 0 0 -.46-.27zm4.18 2.22h-.62l-1.11-1.7a2 2 0 0 1 -.13-.22v1.92h-.57v-2.74h.66l1.06 1.64.14.22a2.5 2.5 0 0 1 0-.37v-1.49h.58z" fill="#5ea0ef"/></svg>