<svg height="18" viewBox="0 0 18 18" width="18" xmlns="http://www.w3.org/2000/svg" xmlns:xlink="http://www.w3.org/1999/xlink"><linearGradient id="a" gradientUnits="userSpaceOnUse" x1="7.981" x2="7.981" y1="16.737" y2=".724"><stop offset="0" stop-color="#0078d4"/><stop offset="1" stop-color="#5ea0ef"/></linearGradient><path d="m15.125 8.153c0 4.7-5.674 8.475-6.909 9.241a.44.44 0 0 1 -.47 0c-1.234-.766-6.909-4.546-6.909-9.241v-5.653a.45.45 0 0 1 .439-.447c4.414-.116 3.398-2.053 6.705-2.053s2.292 1.937 6.706 2.057a.45.45 0 0 1 .438.447z" fill="#0078d4"/><path d="m14.533 8.2c0 4.306-5.2 7.772-6.336 8.475a.41.41 0 0 1 -.431 0c-1.132-.702-6.336-4.168-6.336-8.475v-5.179a.41.41 0 0 1 .4-.41c4.05-.111 3.118-1.887 6.151-1.887s2.1 1.777 6.15 1.887a.41.41 0 0 1 .4.41z" fill="url(#a)"/><circle cx="11.946" cy="12.783" fill="#76bc2d" r="5.217"/><path d="m8.22 12.293a.184.184 0 0 1 -.253-.065l-.221-.372a.185.185 0 0 1 .065-.253l1.751-1.039a.184.184 0 0 1 .253.065l1.039 1.751a.184.184 0 0 1 -.065.253l-.372.221a.185.185 0 0 1 -.253-.065l-.308-.52a2.4 2.4 0 0 0 -.048.877 2.2 2.2 0 0 0 .289.831 2.1 2.1 0 0 0 .4.5 2.4 2.4 0 0 0 .521.362 2.3 2.3 0 0 0 .6.207 2.4 2.4 0 0 0 .476.043.18.18 0 0 1 .18.167l.084.9a3.3 3.3 0 0 1 -.945-.051 3.5 3.5 0 0 1 -.884-.306 3.4 3.4 0 0 1 -.765-.534 3.33 3.33 0 0 1 -1.03-2 3.4 3.4 0 0 1 .093-1.33zm4.256-1.7a2.3 2.3 0 0 1 .6.21 2.4 2.4 0 0 1 .52.362 2.18 2.18 0 0 1 .692 1.326 2.4 2.4 0 0 1 -.048.877l-.308-.52a.185.185 0 0 0 -.253-.065l-.372.221a.184.184 0 0 0 -.065.253l1.039 1.752a.185.185 0 0 0 .253.064l1.751-1.039a.184.184 0 0 0 .065-.253l-.221-.372a.185.185 0 0 0 -.253-.064l-.606.359a3.35 3.35 0 0 0 .093-1.329 3.33 3.33 0 0 0 -1.03-2 3.4 3.4 0 0 0 -.765-.533 3.5 3.5 0 0 0 -.884-.306 3.3 3.3 0 0 0 -.755-.063.18.18 0 0 0 -.172.2l.066.71a.18.18 0 0 0 .181.168 2 2 0 0 1 .472.049z" fill="#fff"/></svg>