<svg height="48" viewBox="0 0 48 48" width="48" xmlns="http://www.w3.org/2000/svg"><path d="m43.911 42.513c.033-.247-.062-.375-.137-.45l-5.562-5.413q-.608.778-1.344 1.435l5.388 5.514c.337.334.911.007 1.217-.298.245-.245.404-.532.438-.788m-14.32-3.633c4.929 0 8.939-4.01 8.939-8.94s-4.01-8.94-8.939-8.94-8.94 4.01-8.94 8.94 4.01 8.94 8.94 8.94m15.588 1.759c.572.573.823 1.329.714 2.138-.091.694-.45 1.382-1.006 1.939-.674.673-1.498 1.018-2.283 1.018a2.48 2.48 0 0 1 -1.77-.728l-5.587-5.72a10.86 10.86 0 0 1 -5.656 1.594c-6.033 0-10.94-4.908-10.94-10.94s4.907-10.94 10.94-10.94 10.939 4.908 10.939 10.94c0 1.799-.444 3.493-1.216 4.99zm.821-33.64v22h-2v-21.999c0-1.653-1.346-3-3-3h-34c-1.654 0-3 1.347-3 3v34c0 1.656 1.346 3 3 3h22v2h-22c-2.757 0-5-2.242-5-5v-34c0-2.756 2.243-5 5-5h34c2.757 0 5 2.244 5 5" fill="#8c4fff" fill-rule="evenodd"/></svg>