<svg xmlns="http://www.w3.org/2000/svg" width="18" height="18" viewBox="0 0 18 18"><path fill="currentColor" d="M14.18 5.89a4.85 4.85 0 0 0-4.95-4.71 5 5 0 0 0-4.75 3.29A4.61 4.61 0 0 0 .5 9a4.67 4.67 0 0 0 4.79 4.5 3 3 0 0 0 .42 0h1.2a1.5 1.5 0 0 1-.11-.56 1.5 1.5 0 0 1 .2-.73H5.29A3.41 3.41 0 0 1 1.77 9a3.33 3.33 0 0 1 2.91-3.27l.76-.12.25-.73a3.73 3.73 0 0 1 3.54-2.43 3.6 3.6 0 0 1 3.68 3.45V7l1.09.15a2.59 2.59 0 0 1 2.26 2.49 2.63 2.63 0 0 1-2.62 2.54h-1.23A3.92 3.92 0 0 0 8.54 9a.64.64 0 1 0 0 1.27 2.65 2.65 0 0 1 0 5.29.64.64 0 1 0 0 1.27 3.92 3.92 0 0 0 3.87-3.34h1.05a.6.6 0 0 0 .2 0 3.91 3.91 0 0 0 3.84-3.85 3.86 3.86 0 0 0-3.32-3.75"/><rect width="3.12" height="3.12" x="6.8" y="11.35" fill="currentColor" rx="1.54"/></svg>