<svg height="18" viewBox="0 0 18 18" width="18" xmlns="http://www.w3.org/2000/svg" xmlns:xlink="http://www.w3.org/1999/xlink"><linearGradient id="a" gradientUnits="userSpaceOnUse" x1="9" x2="9" y1="16.82" y2="1.18"><stop offset="0" stop-color="#198ab3"/><stop offset=".09" stop-color="#1f9dc4"/><stop offset=".24" stop-color="#28b5d9"/><stop offset=".4" stop-color="#2dc6e9"/><stop offset=".57" stop-color="#31d1f2"/><stop offset=".78" stop-color="#32d4f5"/></linearGradient><linearGradient id="b" gradientUnits="userSpaceOnUse" x1="8.36" x2="8.36" y1="11.35" y2="14.46"><stop offset="0" stop-color="#c69aeb"/><stop offset="1" stop-color="#6f4bb2"/></linearGradient><path d="m14.18 5.89a4.85 4.85 0 0 0 -4.95-4.71 5 5 0 0 0 -4.75 3.29 4.61 4.61 0 0 0 -3.98 4.53 4.67 4.67 0 0 0 4.79 4.5 3 3 0 0 0 .42 0h1.2a1.5 1.5 0 0 1 -.11-.56 1.5 1.5 0 0 1 .2-.73h-1.71a3.41 3.41 0 0 1 -3.52-3.21 3.33 3.33 0 0 1 2.91-3.27l.76-.12.25-.73a3.73 3.73 0 0 1 3.54-2.43 3.6 3.6 0 0 1 3.68 3.45v1.1l1.09.15a2.59 2.59 0 0 1 2.26 2.49 2.63 2.63 0 0 1 -2.62 2.54h-1.23a3.92 3.92 0 0 0 -3.87-3.18.64.64 0 1 0 0 1.27 2.65 2.65 0 0 1 0 5.29.64.64 0 1 0 0 1.27 3.92 3.92 0 0 0 3.87-3.34h1.05a.6.6 0 0 0 .2 0 3.91 3.91 0 0 0 3.84-3.85 3.86 3.86 0 0 0 -3.32-3.75" fill="url(#a)"/><rect fill="url(#b)" height="3.12" rx="1.54" width="3.12" x="6.8" y="11.35"/></svg>