<svg height="64" viewBox="0 0 64 64" width="64" xmlns="http://www.w3.org/2000/svg"><g fill="none" fill-rule="evenodd"><path d="m0 0h64v64h-64z" fill="#e7157b"/><path d="m42.008 32.788h4.001v-2.022h-4.001zm-19.005 10.112h4.001v-2.023h-4zm-8.002 0h5.002v-2.023h-5.003zm0-5.056h9.003v-2.024h-9.004zm0-9.1h7.002v-2.024h-7.002zm0 4.044h25.007v-2.022h-25.008zm15.004 17.19h-18.004v-26.29h18.004v5.055h2v-6.067c0-.558-.448-1.01-1-1.01h-20.005c-.553 0-1 .452-1 1.01v28.314c0 .558.447 1.011 1 1.011h20.005c.552 0 1-.453 1-1.011v-15.17h-2zm23.995-19.212c0 5.598-4.573 7.078-6.99 7.078h-12.005v-2.024h12.005c.508-.004 4.99-.177 4.99-5.055 0-4.06-2.8-5.85-4.157-6.081a1.007 1.007 0 0 1 -.829-1.081l.004-.039c-.039-1.6-.817-2.77-2.151-3.217-1.296-.434-2.757-.052-3.468.91a.98.98 0 0 1 -.95.396 1 1 0 0 1 -.794-.66c-.47-1.33-1.157-2.198-2.113-3.165-2.3-2.307-4.577-3.58-8.204-2.288-1.646.585-3.624 2.602-4.411 4.494l-1.845-.784c1.01-2.427 3.414-4.842 5.592-5.617 4.892-1.744 7.944.417 10.28 2.762.793.803 1.459 1.587 1.99 2.572 1.275-.839 2.974-1.07 4.554-.54 1.973.663 3.234 2.306 3.479 4.473 2.207.774 5.024 3.284 5.024 7.865" fill="#fff"/></g></svg>