<svg height="64" viewBox="0 0 64 64" width="64" xmlns="http://www.w3.org/2000/svg"><g fill="none" fill-rule="evenodd"><path d="m0 0h64v64h-64z" fill="#e7157b"/><path d="m35 24v-8h-8v8h1v2h-2a1 1 0 0 1 -1-1v-10a1 1 0 0 1 1-1h10a1 1 0 0 1 1 1v10a1 1 0 0 1 -1 1h-2v-2zm-11 15h-4.586l2.293 2.293-1.414 1.414-4-4a1 1 0 0 1 0-1.414l4-4 1.414 1.414-2.293 2.293h4.586c3.309 0 6-2.691 6-6v-12h2v12c0 4.411-3.589 8-8 8m-12-6v10a1 1 0 0 1 -1 1h-10a1 1 0 0 1 -1-1v-10a1 1 0 0 1 1-1h2v2h-1v8h8v-8h-1v-2h2a1 1 0 0 1 1 1m3.293-9.707 2.293-2.293h-4.586c-3.309 0-6 2.691-6 6v12h-2v-12c0-4.411 3.589-8 8-8h4.586l-2.293-2.293 1.414-1.414 4 4a1 1 0 0 1 0 1.414l-4 4zm21.707-19.898 3.593 3.605h-3.593zm6.708 3.899-6.975-7a1 1 0 0 0 -.708-.294h-24.025a1 1 0 0 0 -1 1v13h2v-12h22v6a1 1 0 0 0 1 1h6v33h-15v2h16a1 1 0 0 0 1-1v-35a1 1 0 0 0 -.292-.706" fill="#fff" transform="translate(10 10)"/></g></svg>