<svg xmlns="http://www.w3.org/2000/svg" width="64" height="64" viewBox="0 0 64 64"><title>Icon-Architecture/48/Arch_AWS-B2B-Data-Interchange_48</title><g id="Icon-Architecture/48/Arch_AWS-B2B-Data-Interchange_48" fill="none" fill-rule="evenodd" stroke="none" stroke-width="1"><g id="Icon-Architecture-BG/48/Application-Integration" fill="#e7157b"><path id="Rectangle" d="M0 0h64v64H0z"/></g><g id="Icon-Service/48/AWS-B2B-Data-Interchange_48" fill="#fff" transform="translate(10 10)"><path id="Fill-3" d="M35 24v-8h-8v8h1v2h-2a1 1 0 0 1-1-1V15a1 1 0 0 1 1-1h10a1 1 0 0 1 1 1v10a1 1 0 0 1-1 1h-2v-2zM24 39h-4.586l2.293 2.293-1.414 1.414-4-4a1 1 0 0 1 0-1.414l4-4 1.414 1.414L19.414 37H24c3.309 0 6-2.691 6-6V19h2v12c0 4.411-3.589 8-8 8m-12-6v10a1 1 0 0 1-1 1H1a1 1 0 0 1-1-1V33a1 1 0 0 1 1-1h2v2H2v8h8v-8H9v-2h2a1 1 0 0 1 1 1m3.293-9.707L17.586 21H13c-3.309 0-6 2.691-6 6v12H5V27c0-4.411 3.589-8 8-8h4.586l-2.293-2.293 1.414-1.414 4 4a1 1 0 0 1 0 1.414l-4 4zM37 3.395 40.593 7H37zm6.708 3.899-6.975-7A1 1 0 0 0 36.025 0H12a1 1 0 0 0-1 1v13h2V2h22v6a1 1 0 0 0 1 1h6v33H27v2h16a1 1 0 0 0 1-1V8a1 1 0 0 0-.292-.706"/></g></g></svg>