<svg fill="none" height="64" viewBox="0 0 64 64" width="64" xmlns="http://www.w3.org/2000/svg" xmlns:xlink="http://www.w3.org/1999/xlink"><clipPath id="a"><path d="m0 0h64v64h-64z"/></clipPath><g clip-path="url(#a)"><path d="m0 0h64v64h-64z" fill="#01a88d"/><g clip-rule="evenodd" fill="#fff" fill-rule="evenodd"><path d="m32 12.156-17 9.842v19.692l17 9.842 17-9.842v-19.692zm19 9.265a1 1 0 0 0 -.499-.865l-18-10.421a1 1 0 0 0 -1.002 0l-18 10.42a1 1 0 0 0 -.499.866v20.847a1 1 0 0 0 .499.865l18 10.421a1 1 0 0 0 1.002 0l18-10.42a1 1 0 0 0 .499-.866z"/><path d="m21 27.845v-2.32l11 6.496 11-6.497v12.25a1 1 0 0 1 -.492.86l-10 5.91a1 1 0 0 1 -1.017 0l-10-5.91a1 1 0 0 1 -.491-.86v-5.427l2 1.182v3.674l9 5.318 9-5.318v-8.177l-9 5.318zm5.623-3.5-1.965-1.162 6.833-4.038a1 1 0 0 1 1.017 0l6.834 4.038-1.966 1.162-5.376-3.177z"/></g></g></svg>