<svg viewBox="0 0 24 24" xmlns="http://www.w3.org/2000/svg"><path d="m5.736 10.245s11.568 10.993 11.166 10.585l.905-1.091-10.979-10.429c-.331.279-.698.592-1.092.935zm-4.88 4.38s-.828.823-.855 1.97c-.018.52.134 1.108.604 1.713 0 0 .007.012.026.035a2.267 2.267 0 0 0 .733.51c.038.016.08.035.126.05.11.042.237.077.373.108a4.28 4.28 0 0 0 1.217.064l.222-.023c.076-.011.153-.02.232-.034.08-.012.161-.027.245-.042.007 0 .011 0 .02-.004.007 0 .015 0 .022-.004.768-.151 1.706-.467 2.836-1.022l-4.702-4.478c-.373.38-.743.767-1.1 1.156zm8.276-7.472s-.305.236-.801.636l-.294.236 10.907 10.378.92-1.093-10.703-10.19c-.011.01-.019.022-.03.033zm-5.91 5.07 5.126 4.882a5.421 5.421 0 0 1 1.738-.32l-5.816-5.54c-.343.314-.693.64-1.047.978zm5.529-8.885s-.414.14-.61.46l12.819 12.213.921-1.09-12.337-11.763c-.276.04-.544.096-.793.18zm5.959.443s-1.081-.353-2.434-.556l10.818 10.253.906-1.07-.722-.682-8.18-7.79c-.128-.05-.256-.103-.388-.155z"/></svg>