<svg height="18" viewBox="0 0 18 18" width="18" xmlns="http://www.w3.org/2000/svg" xmlns:xlink="http://www.w3.org/1999/xlink"><linearGradient id="a" gradientUnits="userSpaceOnUse" x1="9" x2="9" y1="17" y2="1"><stop offset="0" stop-color="#0078d4"/><stop offset=".16" stop-color="#1380da"/><stop offset=".53" stop-color="#3c91e5"/><stop offset=".82" stop-color="#559cec"/><stop offset="1" stop-color="#5ea0ef"/></linearGradient><path d="m6.6 12.2h4.8v4.8h-4.8zm-5.6-6.4h4.8v-4.8h-4.13a.67.67 0 0 0 -.67.67zm.67 11.2h4.13v-4.8h-4.8v4.13a.67.67 0 0 0 .67.67m-.67-5.6h4.8v-4.8h-4.8zm11.2 5.6h4.13a.67.67 0 0 0 .67-.67v-4.13h-4.8zm-5.6-5.6h4.8v-4.8h-4.8zm5.6 0h4.8v-4.8h-4.8zm0-10.4v4.8h4.8v-4.13a.67.67 0 0 0 -.67-.67zm-5.6 4.8h4.8v-4.8h-4.8z" fill="url(#a)"/></svg>