<svg xmlns="http://www.w3.org/2000/svg" viewBox="60 90.4 570.02 539.67"><linearGradient id="a" x1="149.835" x2="463.98" y1="335.475" y2="140.625" gradientUnits="userSpaceOnUse"><stop offset="0" stop-color="#20a7fa"/><stop offset=".4" stop-color="#3bd5ff"/><stop offset="1" stop-color="#c4b0ff"/></linearGradient><linearGradient id="b" x1="257.955" x2="432.84" y1="401.91" y2="121.89" gradientUnits="userSpaceOnUse"><stop offset="0" stop-color="#165ad9"/><stop offset=".501" stop-color="#1880e5"/><stop offset="1" stop-color="#8587ff"/></linearGradient><linearGradient id="c" x1="385.515" x2="191.34" y1="405.72" y2="247.515" gradientUnits="userSpaceOnUse"><stop offset=".237" stop-color="#448aff" stop-opacity="0"/><stop offset=".792" stop-color="#0032b1" stop-opacity=".2"/></linearGradient><linearGradient id="d" x1="360.795" x2="667.65" y1="466.65" y2="270.27" gradientUnits="userSpaceOnUse"><stop offset="0" stop-color="#1a43a6"/><stop offset=".492" stop-color="#2052cb"/><stop offset="1" stop-color="#5f20cb"/></linearGradient><linearGradient id="e" x1="447.42" x2="260.955" y1="454.905" y2="293.565" gradientUnits="userSpaceOnUse"><stop offset="0" stop-color="#0045b9" stop-opacity="0"/><stop offset=".67" stop-color="#0d1f69" stop-opacity=".2"/></linearGradient><linearGradient id="g" x1="629.97" x2="357.78" y1="449.145" y2="449.145" gradientUnits="userSpaceOnUse"><stop offset="0" stop-color="#4dc4ff"/><stop offset=".196" stop-color="#0fafff"/></linearGradient><linearGradient id="l" x1="51.87" x2="313.935" y1="568.08" y2="567.9" gradientUnits="userSpaceOnUse"><stop offset=".206" stop-color="#6ce0ff"/><stop offset=".535" stop-color="#50d5ff" stop-opacity="0"/></linearGradient><radialGradient id="f" cx="0" cy="0" r="1" gradientTransform="matrix(0 -405.04051 438.393 0 360.027 102.268)" gradientUnits="userSpaceOnUse"><stop offset=".568" stop-color="#275ff0" stop-opacity="0"/><stop offset=".992" stop-color="#002177"/></radialGradient><radialGradient id="h" cx="0" cy="0" r="1" gradientTransform="rotate(-45 897.061 -224.265)scale(173.58)" gradientUnits="userSpaceOnUse"><stop offset=".259" stop-color="#0060d1" stop-opacity=".4"/><stop offset=".908" stop-color="#0383f1" stop-opacity="0"/></radialGradient><radialGradient id="j" cx="0" cy="0" r="1" gradientTransform="rotate(-52.658 784.06 187.412)scale(589.22098 532.80602)" gradientUnits="userSpaceOnUse"><stop offset=".732" stop-color="#f4a7f7" stop-opacity="0"/><stop offset="1" stop-color="#f4a7f7" stop-opacity=".502"/></radialGradient><radialGradient id="k" cx="0" cy="0" r="1" gradientTransform="rotate(123.339 27.956 281.58)scale(310.88699 806.7885)" gradientUnits="userSpaceOnUse"><stop offset="0" stop-color="#49deff"/><stop offset=".724" stop-color="#29c3ff"/></radialGradient><radialGradient id="m" cx="0" cy="0" r="1" gradientTransform="rotate(46.924 -378.504 245.25)scale(315.927)" gradientUnits="userSpaceOnUse"><stop offset=".039" stop-color="#0091ff"/><stop offset=".919" stop-color="#183dad"/></radialGradient><radialGradient id="n" cx="0" cy="0" r="1" gradientTransform="matrix(0 168 -193.782 0 180 491.159)" gradientUnits="userSpaceOnUse"><stop offset=".558" stop-color="#0fa5f7" stop-opacity="0"/><stop offset="1" stop-color="#74c6ff" stop-opacity=".502"/></radialGradient><path fill="currentColor" d="m463.984 140.145-344.347 218.27-29.614-46.72v-40.257a43.26 43.26 0 0 1 19.72-36.293L309.91 105.258c30.496-19.79 69.777-19.793 100.277-.008zm0 0"/><path fill="currentColor" d="M407.102 103.34a91 91 0 0 1 3.082 1.914l156.214 101.332-387.336 245.52-59.437-93.77L403.895 177.8c26.925-17.102 28.105-55.57 3.207-74.461zm0 0"/><path fill="currentColor" d="M407.102 103.34a91 91 0 0 1 3.082 1.914l156.214 101.332-387.336 245.52-59.437-93.77L403.895 177.8c26.925-17.102 28.105-55.57 3.207-74.461zm0 0"/><path fill="currentColor" d="M333.602 498.988 179.066 452.11 507.63 243.836c27.672-17.54 27.601-57.938-.133-75.379l-1.48-.93 4.261 2.649 99.996 64.867a43.26 43.26 0 0 1 19.723 36.3v38.962zm0 0"/><path fill="currentColor" d="M333.602 498.988 179.066 452.11 507.63 243.836c27.672-17.54 27.601-57.938-.133-75.379l-1.48-.93 4.261 2.649 99.996 64.867a43.26 43.26 0 0 1 19.723 36.3v38.962zm0 0"/><path fill="currentColor" d="M410.188 105.25c-30.5-19.785-69.782-19.781-100.282.008L109.742 235.145a43.26 43.26 0 0 0-19.719 36.292v1.97a44.48 44.48 0 0 0 20.735 36.16l248.887 156.91L609.16 309.805a44.47 44.47 0 0 0 20.824-37.664v38.168l.008-38.965a43.28 43.28 0 0 0-19.722-36.301zm0 0"/><path fill="currentColor" d="M315.77 630.05h220.449c51.777 0 93.75-41.972 93.75-93.75V272.14a44.48 44.48 0 0 1-20.82 37.665l-327.907 205.89a60.71 60.71 0 0 0-28.422 51.414c.004 34.762 28.184 62.942 62.95 62.942zm0 0"/><path fill="currentColor" d="M315.77 630.05h220.449c51.777 0 93.75-41.972 93.75-93.75V272.14a44.48 44.48 0 0 1-20.82 37.665l-327.907 205.89a60.71 60.71 0 0 0-28.422 51.414c.004 34.762 28.184 62.942 62.95 62.942zm0 0"/><path fill="currentColor" d="M315.77 630.05h220.449c51.777 0 93.75-41.972 93.75-93.75V272.14a44.48 44.48 0 0 1-20.82 37.665l-327.907 205.89a60.71 60.71 0 0 0-28.422 51.414c.004 34.762 28.184 62.942 62.95 62.942zm0 0"/><path fill="currentColor" d="M405.402 630.035H183.738c-51.777 0-93.75-41.972-93.75-93.75v-264.34a44.47 44.47 0 0 0 20.754 37.621l327.582 206.52a61.74 61.74 0 0 1 28.809 52.226c-.004 34.09-27.64 61.723-61.73 61.723zm0 0"/><path fill="currentColor" d="M405.402 630.035H183.738c-51.777 0-93.75-41.972-93.75-93.75v-264.34a44.47 44.47 0 0 0 20.754 37.621l327.582 206.52a61.74 61.74 0 0 1 28.809 52.226c-.004 34.09-27.64 61.723-61.73 61.723zm0 0"/><path fill="currentColor" d="M108.75 345h142.5c26.926 0 48.75 21.824 48.75 48.75v142.5c0 26.926-21.824 48.75-48.75 48.75h-142.5C81.824 585 60 563.176 60 536.25v-142.5C60 366.824 81.824 345 108.75 345m0 0"/><path fill="currentColor" d="M108.75 345h142.5c26.926 0 48.75 21.824 48.75 48.75v142.5c0 26.926-21.824 48.75-48.75 48.75h-142.5C81.824 585 60 563.176 60 536.25v-142.5C60 366.824 81.824 345 108.75 345m0 0"/><g fill="currentColor"><path fill="currentColor" d="M179.387 534c-19.848 0-36.137-6.21-48.875-18.625q-19.11-18.622-19.11-48.605c0-21.11 6.465-38.18 19.395-51.22Q150.195 396 181.594 396q29.67 0 48.297 18.715c12.484 12.476 18.726 28.93 18.726 49.351 0 20.985-6.469 37.899-19.398 50.75Q209.919 534 179.387 534m.574-26.352q16.225 0 26.117-11.082c6.594-7.386 9.89-17.664 9.89-30.824q-.002-20.577-9.6-32.031-9.605-11.454-25.638-11.453-16.517 0-26.597 11.824-10.083 11.736-10.082 31.102 0 19.652 10.082 31.101 10.078 11.362 25.828 11.363m0 0"/><path fill="currentColor" d="M179.332 535.848q-29.655.001-48.691-19.13c-12.688-12.753-19.036-29.398-19.036-49.929q0-32.525 19.325-52.61 19.324-20.09 50.601-20.09 29.555.002 48.114 19.227 18.654 19.23 18.652 50.7c0 21.55-6.442 38.93-19.32 52.129q-19.23 19.703-49.645 19.703m.57-27.067c10.778 0 19.453-3.797 26.02-11.383q9.853-11.384 9.851-31.664 0-21.138-9.562-32.902-9.567-11.766-25.54-11.766-16.457-.002-26.5 12.149c-6.694 8.031-10.042 18.683-10.042 31.945q0 20.185 10.043 31.95 10.043 11.67 25.73 11.671m0 0"/></g></svg>