<svg xmlns="http://www.w3.org/2000/svg" width="64" height="64" viewBox="0 0 64 64"><title>Icon-Architecture/48/Arch_AWS-Proton_48</title><g id="Icon-Architecture/48/Arch_AWS-Proton_48" fill="none" fill-rule="evenodd" stroke="none" stroke-width="1"><g id="Icon-Architecture-BG/48/Management-Governance" fill="#e7157b"><path id="Rectangle" d="M0 0h64v64H0z"/></g><g id="Icon-Service/48/AWS-Proton_48" fill="#fff" transform="translate(10 10)"><path id="Fill-5" d="m17.219 12.625-4-5 1.562-1.249 3.7 4.624h13.105l-1.293-1.292 1.414-1.415 3 3a1 1 0 0 1 0 1.415l-3 3-1.414-1.415L31.586 13H18c-.303 0-.591-.138-.781-.375m17.488 18.668a1 1 0 0 1 0 1.415l-3 3-1.414-1.415L31.586 33H18.481l-3.7 4.625-1.562-1.249 4-5c.19-.237.478-.376.781-.376h13.586l-1.293-1.292 1.414-1.415zm9-8.585-3 3-1.414-1.415L40.586 23H23v-2h17.586l-1.293-1.292 1.414-1.415 3 3a1 1 0 0 1 0 1.415M5 42c-1.654 0-3-1.345-3-3 0-1.654 1.346-3 3-3 1.655 0 3 1.346 3 3 0 1.655-1.345 3-3 3m10-23c1.655 0 3 1.346 3 3 0 1.655-1.345 3-3 3-1.654 0-3-1.345-3-3 0-1.654 1.346-3 3-3M2 5c0-1.654 1.346-3 3-3 1.655 0 3 1.346 3 3 0 1.655-1.345 3-3 3-1.654 0-3-1.345-3-3m6.151 30.15 6.375-8.197c.159.015.312.047.474.047 2.757 0 5-2.243 5-5 0-2.756-2.243-5-5-5-.162 0-.315.033-.474.048L8.151 8.851C9.27 7.933 10 6.558 10 5c0-2.756-2.243-5-5-5S0 2.244 0 5c0 2.757 2.243 5 5 5 .471 0 .917-.086 1.35-.208l6.148 7.905C11.012 18.565 10 20.159 10 22c0 1.842 1.012 3.436 2.498 4.304L6.35 34.209A5 5 0 0 0 5 34c-2.757 0-5 2.244-5 5 0 2.757 2.243 5 5 5s5-2.243 5-5c0-1.557-.73-2.932-1.849-3.85"/></g></g></svg>