<svg height="64" viewBox="0 0 64 64" width="64" xmlns="http://www.w3.org/2000/svg"><g fill="none" fill-rule="evenodd"><path d="m0 0h64v64h-64z" fill="#e7157b"/><path d="m17.219 12.625-4-5 1.562-1.249 3.7 4.624h13.105l-1.293-1.292 1.414-1.415 3 3a1 1 0 0 1 0 1.415l-3 3-1.414-1.415 1.293-1.293h-13.586c-.303 0-.591-.138-.781-.375m17.488 18.668a1 1 0 0 1 0 1.415l-3 3-1.414-1.415 1.293-1.293h-13.105l-3.7 4.625-1.562-1.249 4-5c.19-.237.478-.376.781-.376h13.586l-1.293-1.292 1.414-1.415zm9-8.585-3 3-1.414-1.415 1.293-1.293h-17.586v-2h17.586l-1.293-1.292 1.414-1.415 3 3a1 1 0 0 1 0 1.415m-38.707 19.292c-1.654 0-3-1.345-3-3 0-1.654 1.346-3 3-3 1.655 0 3 1.346 3 3 0 1.655-1.345 3-3 3m10-23c1.655 0 3 1.346 3 3 0 1.655-1.345 3-3 3-1.654 0-3-1.345-3-3 0-1.654 1.346-3 3-3m-13-14c0-1.654 1.346-3 3-3 1.655 0 3 1.346 3 3 0 1.655-1.345 3-3 3-1.654 0-3-1.345-3-3m6.151 30.15 6.375-8.197c.159.015.312.047.474.047 2.757 0 5-2.243 5-5 0-2.756-2.243-5-5-5-.162 0-.315.033-.474.048l-6.375-8.197c1.119-.918 1.849-2.293 1.849-3.851 0-2.756-2.243-5-5-5s-5 2.244-5 5c0 2.757 2.243 5 5 5 .471 0 .917-.086 1.35-.208l6.148 7.905c-1.486.868-2.498 2.462-2.498 4.303 0 1.842 1.012 3.436 2.498 4.304l-6.148 7.905a5 5 0 0 0 -1.35-.209c-2.757 0-5 2.244-5 5 0 2.757 2.243 5 5 5s5-2.243 5-5c0-1.557-.73-2.932-1.849-3.85" fill="#fff" transform="translate(10 10)"/></g></svg>