<svg viewBox="0 0 128 128" xmlns="http://www.w3.org/2000/svg" xmlns:xlink="http://www.w3.org/1999/xlink"><linearGradient id="a" gradientUnits="userSpaceOnUse" x1="114.372" x2="66.688" y1="56.904" y2="94.128"><stop offset=".176" stop-color="#0052cc"/><stop offset="1" stop-color="#2684ff"/></linearGradient><path d="m19.082 20c-1.918 0-3.355 1.758-3.039 3.516l12.95 79.289c.32 2.078 2.077 3.515 4.155 3.515h62.66c1.442 0 2.72-1.12 3.04-2.558l13.109-80.086c.316-1.918-1.121-3.516-3.039-3.516zm54.988 57.227h-19.98l-5.278-28.293h30.215zm0 0" fill="#2684ff"/><path d="m107.64 48.934h-28.772l-4.798 28.293h-19.98l-23.5 27.972s1.12.961 2.719.961h62.66c1.441 0 2.719-1.12 3.039-2.558zm0 0" fill="url(#a)"/></svg>