<svg height="18" viewBox="0 0 18 18" width="18" xmlns="http://www.w3.org/2000/svg" xmlns:xlink="http://www.w3.org/1999/xlink"><linearGradient id="a" gradientUnits="userSpaceOnUse" x1="9" x2="9" y1="18.343" y2="16.272"><stop offset="0" stop-color="#0094f0"/><stop offset="1" stop-color="#50e6ff"/></linearGradient><linearGradient id="b" gradientUnits="userSpaceOnUse" x1="9.055" x2="9.055" y1="15.194" y2="13.378"><stop offset="0" stop-color="#50e6ff"/><stop offset="1" stop-color="#c3f1ff"/></linearGradient><linearGradient id="c"><stop offset="0" stop-color="#0087d4"/><stop offset="1" stop-color="#8cd0ff"/></linearGradient><linearGradient id="d" gradientTransform="matrix(1 0 0 -1 564 1025.516)" gradientUnits="userSpaceOnUse" x1="-550.701" x2="-550.701" xlink:href="#c" y1="1019.363" y2="1025.391"/><linearGradient id="e" gradientTransform="matrix(1 0 0 -1 564 1025.516)" gradientUnits="userSpaceOnUse" x1="-559.188" x2="-559.188" xlink:href="#c" y1="1013.572" y2="1019.6"/><path d="m0 .067h18v17.866h-18z" fill="none"/><path d="m.718 15.804h16.563c.327 0 .593.266.593.593v1.477h-17.749v-1.477c0-.327.266-.593.593-.593" fill="url(#a)"/><path d="m2.424 13.378h13.263c.355 0 .643.288.643.643v1.173h-14.549v-1.173c0-.355.288-.643.643-.643" fill="url(#b)"/><path d="m7.133 9.532q-.106 0-.158-.005l.087-1.202c.03.004.733.047 1.123-.444.173-.218.226-.463.24-.63l-.004-2.386c.018-.297.135-1.186.929-1.811a2.5 2.5 0 0 1 1.73-.515l-.099 1.202a1.26 1.26 0 0 0 -.879.26c-.413.324-.464.809-.47.903l.003 2.398c-.042.527-.214.969-.5 1.328-.643.81-1.595.904-2.004.904h.002z" fill="#b9c0c7"/><ellipse cx="13.299" cy="3.139" fill="url(#d)" rx="3.031" ry="3.014"/><ellipse cx="4.812" cy="8.929" fill="url(#e)" rx="3.031" ry="3.014"/></svg>