<svg height="48" viewBox="0 0 48 48" width="48" xmlns="http://www.w3.org/2000/svg"><path d="m30.115 22a2.464 2.464 0 0 1 -2.461-2.462c0-1.477 1.418-3.632 2.461-4.972 1.044 1.34 2.462 3.495 2.462 4.972a2.465 2.465 0 0 1 -2.462 2.462m-.743-9.67c-.381.424-3.718 4.219-3.718 7.208a4.466 4.466 0 0 0 4.461 4.462 4.467 4.467 0 0 0 4.462-4.462c0-2.99-3.338-6.784-3.719-7.207-.379-.422-1.107-.421-1.486 0m-12.949 10.669a1.424 1.424 0 0 1 -1.423-1.424c0-.796.711-2.018 1.421-2.983.682.93 1.424 2.174 1.424 2.983 0 .785-.638 1.424-1.422 1.424m3.422-1.424c0-2.204-2.405-4.94-2.679-5.245-.379-.422-1.108-.422-1.487 0-.274.305-2.679 3.041-2.679 5.246a3.427 3.427 0 0 0 3.423 3.422 3.427 3.427 0 0 0 3.422-3.422m3.655 12.423c-1.93 0-3.5-1.57-3.5-3.5 0-2.115 2.107-5.205 3.5-6.947 1.392 1.742 3.5 4.832 3.5 6.948 0 1.93-1.571 3.5-3.5 3.5m-.743-12.669c-.195.216-4.757 5.328-4.757 9.168 0 3.032 2.468 5.5 5.5 5.5s5.5-2.468 5.5-5.5c0-3.84-4.563-8.953-4.757-9.17-.379-.421-1.107-.421-1.486 0m16.243 16.537c0 .624-.509 1.133-1.135 1.133h-27.73a1.136 1.136 0 0 1 -1.135-1.134v-27.73c0-.626.509-1.136 1.135-1.136h27.73c.626 0 1.135.51 1.135 1.135zm7-22.867v-2h-5v-2.865a3.14 3.14 0 0 0 -3.135-3.135h-2.865v-5h-2v5h-3v-5h-2v5h-3v-5h-2v5h-3v-5h-2v5h-3v-5h-2v5h-2.865a3.14 3.14 0 0 0 -3.135 3.134v2.866h-5v2h5v3h-5v2h5v3h-5v2h5v3h-5v2h5v3h-5v2h5v2.866a3.14 3.14 0 0 0 3.135 3.134h2.865v5h2v-5h3v5h2v-5h3v5h2v-5h3v5h2v-5h3v5h2v-5h2.865a3.14 3.14 0 0 0 3.135-3.134v-2.866h5v-2h-5v-3h5v-2h-5v-3h5v-2h-5v-3h5v-2h-5v-3z" fill="#7aa116" fill-rule="evenodd"/></svg>