<svg height="18" viewBox="0 0 18 18" width="18" xmlns="http://www.w3.org/2000/svg" xmlns:xlink="http://www.w3.org/1999/xlink"><linearGradient id="a" gradientUnits="userSpaceOnUse" x1="9.004" x2="9.004" y2="13.433"><stop offset="0" stop-color="#a67af4"/><stop offset=".999" stop-color="#773adc"/></linearGradient><path d="m17.547 15.2c-.161.7-1.035 1.391-2.617 1.928a21.6 21.6 0 0 1 -12.121.017c-1.457-.518-2.243-1.174-2.366-1.845-.021-.118 0-1.966 0-1.966l17.131-.159s-.008 1.935-.027 2.025" fill="#5ea0ef"/><ellipse cx="9.001" cy="13.295" fill="#50e6ff" rx="8.573" ry="2.964" transform="matrix(.99994964 -.01003547 .01003547 .99994964 -.132998 .090999)"/><path d="m13.364 12.978a.48.48 0 0 1 -.5.455h-7.718a.48.48 0 0 1 -.5-.455v-12.522a.48.48 0 0 1 .5-.456h7.715a.48.48 0 0 1 .5.455z" fill="url(#a)"/><path d="m11.212 6.791h-4.34a1 1 0 0 1 -.947-1.044 1 1 0 0 1 .947-1.047h4.34a1 1 0 0 1 .948 1.045 1 1 0 0 1 -.948 1.046m.948-4.151a1 1 0 0 0 -.948-1.04h-4.34a1 1 0 0 0 -.947 1.04 1 1 0 0 0 .947 1.045h4.34a1 1 0 0 0 .948-1.045" fill="#552f99"/><path d="m10.94 1.939a.7.7 0 1 1 -.7.7.7.7 0 0 1 .7-.7m-.7 3.8a.7.7 0 1 0 .7-.7.7.7 0 0 0 -.701.704z" fill="#50e6ff"/></svg>