<svg height="18" viewBox="0 0 18 18" width="18" xmlns="http://www.w3.org/2000/svg"><path d="m9.014 8.105-2.833-2.684h2.256l3.817 3.579-3.76 3.579h-2.313l2.834-2.679h-8.008c-.29 0-.507-.334-.507-.625v-.74c0-.291.217-.431.507-.431z" fill="#57a300"/><path d="m2.083 5.024a1.4 1.4 0 0 0 1.985-.024l.032-.037a5.68 5.68 0 0 1 8.028.085l.071.072a5.65 5.65 0 0 1 1.581 4.351 1.44 1.44 0 0 1 .64.579v.011l1.437 2.5a8.505 8.505 0 0 0 -1.714-9.581 8.6 8.6 0 0 0 -6.043-2.48 8.52 8.52 0 0 0 -6.047 2.479l-.029.03a1.4 1.4 0 0 0 .029 1.985zm6.209 11.859a1.46 1.46 0 0 1 .205-.707l.888-1.589a5.66 5.66 0 0 1 -5.318-1.582l-.03-.03a1.4 1.4 0 0 0 -1.985.03l-.03.029a1.405 1.405 0 0 0 .03 1.986 8.6 8.6 0 0 0 6.048 2.48q.162.002.324-.006a1.36 1.36 0 0 1 -.132-.611" fill="#0072c6"/><path d="m17.389 16.53-1.789-3.011-1.788-3.1a.627.627 0 0 0 -1.128 0l-1.784 2.912-1.787 3.2a.66.66 0 0 0 .564 1.035h7.15a.66.66 0 0 0 .564-1.035zm-4.045-4.23h.471l-.189 2.729h-.752l-.094-2.729zm-.094 4.139a.565.565 0 1 1 .565-.564.563.563 0 0 1 -.565.564" fill="#ff8c00"/></svg>