<svg height="64" viewBox="0 0 64 64" width="64" xmlns="http://www.w3.org/2000/svg"><g fill="none" fill-rule="evenodd"><path d="m0 0h64v64h-64z" fill="#01a88d"/><path d="m13.295 23h3.705v-2h-2.562l1.142-2h4.302l1 2-1.5 3h-4.382v2h5c.379 0 .725-.214.895-.553l1.723-3.447h1.764l1.724 3.447a1 1 0 0 0 .894.553h2.563l-1.143 2h-14.802l-1.484-2.969zm9.24-7h4.93l1.703 2.555c.186.278.498.445.832.445h4.382l1.5 3-1.776 3.553 1.789.894 1.105-2.211.846 1.692-1.381 2.072h-5.742l3.145-5.504-1.736-.992-1.427 2.496h-3.087l-1.464-2.928 1.678-2.517-1.664-1.11-1.703 2.555h-1.847l-1.178-2.357zm-10.429 13.447a1 1 0 0 0 .894.553h24a1 1 0 0 0 .832-.445l2-3c.199-.299.223-.681.063-1.002l-4-8a1 1 0 0 0 -.895-.553h-4.465l-1.703-2.555a1 1 0 0 0 -.832-.445h-6c-.334 0-.646.167-.832.445l-1.703 2.555h-4.465a1 1 0 0 0 -.868.504l-4 7a1 1 0 0 0 -.026.943zm34.993 4.558a1 1 0 0 0 -1.04.658c-.048.133-4.933 13.337-17.059 13.337-4.982 0-16.405-1.39-16.977-14h30.977a1 1 0 0 0 .903-1.429c-1.5-3.154-.478-5.776.268-7.062.966 1.003 2.429 2.968 1.859 5.248a1 1 0 0 0 1.211 1.214c.824-.203 2.982-.474 4.405.268-.659.806-2.07 2.012-4.547 1.766m6.608-2.712c-1.566-1.566-4.009-1.635-5.545-1.488.071-3.831-3.397-6.481-3.562-6.605a1 1 0 0 0 -1.353.142c-.143.164-3.211 3.758-1.708 8.658h-30.539a1 1 0 0 0 -1 1c0 15.774 14.543 17 19 17 11.815 0 17.389-11.04 18.655-13.962 4.474.077 6.172-3.45 6.247-3.607a1 1 0 0 0 -.195-1.138" fill="#fff"/></g></svg>