<svg xmlns="http://www.w3.org/2000/svg" width="24" height="24"><defs><mask id="a"><path fill="#fff" d="M0 0h24v24H0z"/><path d="M12 10.96h7.02v1H12z"/><path d="M5 13v9h7v-9Zm2.76 7.78H6.23v-6.56h1.51Zm3.09 0H9.32v-6.56h1.51Z"/><path d="M12 13v9h7v-9Zm2.68 7.78h-1.51v-6.56h1.51Zm3.09 0h-1.51v-6.56h1.51Zm.71-12.63-3-1.52A3.71 3.71 0 0 1 12.06 9H12v1h7V9a1 1 0 0 0-.52-.85"/><path d="M11.94 9a3.71 3.71 0 0 1-3.43-2.37l-3 1.52A1 1 0 0 0 5 9v1h7V9Z"/><path d="M12 2v.91a2.25 2.25 0 0 1 2.25 2.25v.07A2.25 2.25 0 0 1 12 7.47v.92A3.2 3.2 0 0 0 12 2"/><path d="M12 7.47a2.25 2.25 0 0 1-2.28-2.24v-.07A2.25 2.25 0 0 1 12 2.91V2a3.2 3.2 0 0 0 0 6.39z"/><path d="M11.54 3.71h.91v2.96h-.91z"/></mask></defs><path fill="currentColor" d="M4.98 10.96H12v1H4.98z" mask="url(#a)"/></svg>