<svg xmlns="http://www.w3.org/2000/svg" width="18" height="18" viewBox="0 0 18 18"><defs><mask id="a"><path fill="#fff" d="M0 0h18v18H0z"/><path d="M.5 5.79h17v9.48a.57.57 0 0 1-.57.57H1.07a.57.57 0 0 1-.57-.57z"/><path d="m6.68 9-.9 3h-.72l-.55-2a1 1 0 0 1 0-.27 1 1 0 0 1 0 .26L3.8 12h-.71L2.2 9h.71l.55 2.19a1.4 1.4 0 0 1 0 .26 1.3 1.3 0 0 1 0-.26L4.18 9h.65l.55 2.2a1.6 1.6 0 0 1 0 .26 1.5 1.5 0 0 1 0-.26L6 9zm4.6 0-.9 3h-.72l-.55-2a1 1 0 0 1 0-.27A2 2 0 0 1 9 10l-.6 2h-.7l-.9-3h.71l.56 2.19a1.6 1.6 0 0 1 0 .26c0-.08 0-.17.05-.26L8.79 9h.64l.55 2.2a1.6 1.6 0 0 1 0 .26 1.5 1.5 0 0 1 0-.26l.65-2.2zm4.61 0L15 12h-.72l-.57-2a2 2 0 0 1 0-.27 1 1 0 0 1-.05.26L13 12h-.7l-.9-3h.72l.55 2.19a1.4 1.4 0 0 1 0 .26 1.3 1.3 0 0 1 0-.26L13.39 9H14l.54 2.2a1.6 1.6 0 0 1 0 .26 2 2 0 0 1 0-.26l.69-2.2z"/><path d="M2.79 3.25h12.43v1.46H2.79z"/></mask></defs><path fill="currentColor" d="M1.07 2.17h15.86a.57.57 0 0 1 .57.57v3.05H.5V2.73a.57.57 0 0 1 .57-.56" mask="url(#a)"/></svg>