<svg height="18" viewBox="0 0 18 18" width="18" xmlns="http://www.w3.org/2000/svg" xmlns:xlink="http://www.w3.org/1999/xlink"><linearGradient id="a" gradientUnits="userSpaceOnUse" x1="9" x2="9" y1="15.83" y2="5.79"><stop offset="0" stop-color="#32bedd"/><stop offset=".18" stop-color="#32caea"/><stop offset=".41" stop-color="#32d2f2"/><stop offset=".78" stop-color="#32d4f5"/></linearGradient><path d="m.5 5.79h17v9.48a.57.57 0 0 1 -.57.57h-15.86a.57.57 0 0 1 -.57-.57z" fill="url(#a)"/><path d="m1.07 2.17h15.86a.57.57 0 0 1 .57.57v3.05h-17v-3.06a.57.57 0 0 1 .57-.56" fill="#005ba1"/><rect fill="#f2f2f2" height="1.46" rx=".28" width="12.43" x="2.79" y="3.25"/><path d="m6.68 9-.9 3h-.72l-.55-2a1 1 0 0 1 0-.27 1 1 0 0 1 0 .26l-.71 2.01h-.71l-.89-3h.71l.55 2.19a1.4 1.4 0 0 1 0 .26 1.3 1.3 0 0 1 0-.26l.72-2.19h.65l.55 2.2a1.6 1.6 0 0 1 0 .26 1.5 1.5 0 0 1 0-.26l.62-2.2zm4.6 0-.9 3h-.72l-.55-2a1 1 0 0 1 0-.27 2 2 0 0 1 -.11.27l-.6 2h-.7l-.9-3h.71l.56 2.19a1.6 1.6 0 0 1 0 .26c0-.08 0-.17.05-.26l.67-2.19h.64l.55 2.2a1.6 1.6 0 0 1 0 .26 1.5 1.5 0 0 1 0-.26l.65-2.2zm4.61 0-.89 3h-.72l-.57-2a2 2 0 0 1 0-.27 1 1 0 0 1 -.05.26l-.66 2.01h-.7l-.9-3h.72l.55 2.19a1.4 1.4 0 0 1 0 .26 1.3 1.3 0 0 1 0-.26l.72-2.19h.61l.54 2.2a1.6 1.6 0 0 1 0 .26 2 2 0 0 1 0-.26l.69-2.2z" fill="#fff"/></svg>