<svg height="18" viewBox="0 0 18 18" width="18" xmlns="http://www.w3.org/2000/svg" xmlns:xlink="http://www.w3.org/1999/xlink"><linearGradient id="a" gradientUnits="userSpaceOnUse" x1="0" x2="10.071" y1="7.502" y2="7.502"><stop offset=".446" stop-color="#44dbf9"/><stop offset=".543" stop-color="#43d7f6"/><stop offset=".622" stop-color="#40cded"/><stop offset=".696" stop-color="#3cbcdf"/><stop offset=".767" stop-color="#36a4cb"/><stop offset=".834" stop-color="#2e84b1"/><stop offset=".899" stop-color="#255f92"/><stop offset=".922" stop-color="#225086"/></linearGradient><linearGradient id="b" gradientUnits="userSpaceOnUse" x1="7.506" x2="7.506" y1="15.003" y2="0"><stop offset="0" stop-color="#225086"/><stop offset="1" stop-color="#0055c5"/></linearGradient><linearGradient id="c" gradientUnits="userSpaceOnUse" x1="11.259" x2="11.259" y1="15.003" y2="0"><stop offset="0" stop-color="#225086"/><stop offset=".508" stop-color="#0294e4"/><stop offset="1" stop-color="#6df"/></linearGradient><linearGradient id="d" gradientUnits="userSpaceOnUse" x1="16.681" x2="12.227" y1="19.035" y2="11.203"><stop offset="0" stop-color="#5e9624"/><stop offset="1" stop-color="#86d633"/></linearGradient><g stroke-width="0"><path d="m9.509 12.868c0-1.168.824-2.146 1.922-2.385a2.8 2.8 0 0 1 3.549-2.316q.031-.328.032-.665c0-4.143-3.361-7.502-7.506-7.502s-7.506 3.359-7.506 7.502a7.504 7.504 0 0 0 9.509 7.23z" fill="url(#a)"/><path d="m9.509 12.868c0-1.168.824-2.146 1.922-2.385q.052-.386.202-.731h-.537a15 15 0 0 0 .163-2.25q0-.77-.071-1.501h2.52a6.4 6.4 0 0 1 .15 2.08q.17-.022.346-.024.405.001.775.11.031-.328.032-.665c.001-4.143-3.36-7.502-7.505-7.502s-7.506 3.359-7.506 7.502a7.504 7.504 0 0 0 9.509 7.23zm.445-3.117h-4.896a14 14 0 0 1 -.18-2.25q0-.778.079-1.501h5.099a14.2 14.2 0 0 1 -.101 3.751zm.112-8.093a6.4 6.4 0 0 1 3.256 3.217h-2.288c-.223-1.248-.605-2.343-1.107-3.178l-.08-.131zm-2.647-.53.087-.004.095.005c.947.094 1.86 1.594 2.285 3.746h-4.76c.426-2.159 1.343-3.66 2.293-3.747m-2.271.446.017-.007c-.542.849-.953 1.994-1.188 3.308h-2.287a6.4 6.4 0 0 1 3.458-3.302zm-4.022 5.928q.001-.77.175-1.488l.004-.013h2.52a15.6 15.6 0 0 0 .092 3.751h-2.383a6.4 6.4 0 0 1 -.409-2.25zm.966 3.375h2.043l.076.296c.238.877.561 1.647.953 2.262a6.4 6.4 0 0 1 -3.073-2.558zm3.208 0h4.411c-.489 1.811-1.34 3.002-2.206 3.002s-1.716-1.191-2.206-3.002z" fill="url(#b)"/><path d="m9.509 14.726v-1.858c0-1.168.824-2.146 1.922-2.385a2.8 2.8 0 0 1 3.549-2.317q.031-.328.032-.664a7.504 7.504 0 0 0 -7.506-7.502 23.2 23.2 0 0 1 0 15.004c.693 0 1.364-.097 2.003-.277z" fill="url(#c)"/></g><path d="m16.102 10.888v.474h.356c.851 0 1.542.69 1.542 1.541v3.556c-0 .851-.69 1.541-1.542 1.541h-4.507c-.852 0-1.542-.69-1.542-1.541v-3.556c0-.851.69-1.541 1.542-1.541h.356v-.474a1.898 1.898 0 0 1 3.796 0zm-3.084 0v.474h2.372v-.474a1.185 1.185 0 0 0 -2.372 0m1.186 4.504a.711.711 0 1 0 .001-1.423.711.711 0 0 0 -.001 1.423" fill="url(#d)"/></svg>