<svg xmlns="http://www.w3.org/2000/svg" viewBox="0 0 128 128"><g stroke="currentColor"><path fill="currentColor" d="M61.797 47.2c-3.419 0-6.154 2.232-8.516 5.769s-4.42 8.425-6.582 14.011c-4.322 11.173-9.036 25.139-16.998 36.46l-.773 1.091 35.113 20.27 52.676-30.41V63.936l-.51.01c-9.053.177-12.817 3.221-15.734 6.495-2.918 3.275-4.989 6.662-11.145 8.061-1.497.34-2.791.142-4.006-.469-1.214-.61-2.345-1.652-3.412-3.013-2.133-2.723-3.985-6.701-5.838-10.791s-3.71-8.294-5.943-11.516c-2.234-3.222-4.908-5.514-8.332-5.514zm0 1c2.98 0 5.361 1.984 7.51 5.083s4 7.264 5.855 11.36 3.711 8.122 5.961 10.994c1.125 1.435 2.352 2.588 3.75 3.29 1.398.703 2.97.937 4.676.55 6.455-1.467 8.826-5.176 11.672-8.37 2.781-3.121 6.093-5.825 14.496-6.109v28.814L64.04 123.647l-33.662-19.431.14-.2v-.001C38.596 92.53 43.321 78.482 47.63 67.343c2.154-5.57 4.208-10.412 6.482-13.817s4.697-5.326 7.684-5.326z"/><path fill="currentColor" d="M97.422 46.389c-4.004 0-6.823 1.67-8.951 4.113s-3.612 5.636-5.137 8.787c-1.525 3.15-3.088 6.258-5.28 8.547-2.19 2.29-4.977 3.787-9.128 3.787-8.285 0-12.86-6.604-17.989-10.287-2.564-1.842-5.36-2.925-8.687-1.826s-7.118 4.267-11.988 10.683c-6.202 8.17-11.187 17.267-15.1 25.87l-.187.414L64.04 124.8l52.676-30.408v-31.15l-.106-.136c-2.971-3.814-5.484-7.95-8.388-11.173s-6.262-5.545-10.801-5.545zm0 1c4.202 0 7.248 2.096 10.058 5.215 2.776 3.08 5.268 7.14 8.237 10.972v30.238L64.04 123.646 16.277 96.074C20.14 87.64 25.012 78.764 31.06 70.8c4.814-6.342 8.511-9.35 11.503-10.338s5.348-.07 7.792 1.685c4.886 3.51 9.758 10.477 18.572 10.477 4.397 0 7.514-1.653 9.851-4.096s3.929-5.644 5.457-8.802c1.529-3.159 2.997-6.276 4.99-8.565 1.995-2.289 4.466-3.771 8.198-3.771z"/><path fill="currentColor" d="M31.475 43.943c-2.9 0-5.29.867-7.276 2.418s-3.573 3.768-4.976 6.467c-2.808 5.4-4.902 12.76-7.83 20.87l-.03.081v20.612l52.678 30.41 52.676-30.41V63.404l-.147-.146c-4.375-4.348-8.908-7.104-13.45-7.104-5.795 0-10.096 1.67-13.458 4.25s-5.786 6.047-7.935 9.63c-2.15 3.581-4.03 7.285-6.262 10.368s-4.792 5.535-8.326 6.713c-1.713.571-3.203.375-4.649-.416s-2.833-2.208-4.162-4.08c-2.658-3.744-5.077-9.272-7.57-14.97-2.494-5.7-5.066-11.57-8.121-16.057s-6.654-7.649-11.162-7.649zm0 1c4.04 0 7.362 2.845 10.336 7.211 2.973 4.367 5.538 10.197 8.03 15.895 2.494 5.698 4.912 11.262 7.673 15.15 1.38 1.944 2.85 3.476 4.498 4.377s3.491 1.137 5.443.487c3.793-1.265 6.523-3.9 8.82-7.075 2.298-3.174 4.184-6.9 6.309-10.441s4.483-6.892 7.686-9.35c3.202-2.457 7.245-4.043 12.85-4.043 4.086 0 8.366 2.516 12.597 6.68v29.978L64.04 123.647 12.363 93.812V73.953c2.925-8.112 5.03-15.435 7.748-20.664 1.365-2.624 2.879-4.715 4.703-6.14 1.825-1.426 3.957-2.206 6.66-2.206z" opacity=".8"/></g><path fill="currentColor" d="M64 128 8.566 96.001V32L64 0l55.434 32v64zM15.079 92.241 64 120.482l48.921-28.241V35.76L64 7.519 15.079 35.76z"/></svg>