<svg viewBox="0 0 24 24" xmlns="http://www.w3.org/2000/svg" fill="#37A5CC"><path d="m4.348 0-3.658 2.203v16.875l3.657-2.203h17.297v-15.656c0-.67-.551-1.219-1.22-1.219h-16.075zm18.297 3.75v14.125h-18.018l-1.943 1.17v3.736c0 .67.55 1.219 1.218 1.219h19.408v-20.25h-.664zm-14.471.025h2.937l1.885 7.508 1.977-7.48-.012-.028h2.857v9.354h-2.216v-6.04l-1.565 6.026v.014h-2.203l-1.656-6.28v6.28h-2.004zm1.33 14.762h1.18l1.068 3.543h-.902l-.217-.773h-1.065l-.197.773h-.88zm1.918 0h.932l.648 1.494.643-1.494h.894l-1.113 2.133v1.41h-.887v-1.406zm3.826 0h1.18l1.068 3.543h-.9l-.217-.773h-1.065l-.197.773h-.88zm-5.156.582-.362 1.53h.73zm5.744 0-.36 1.53h.73z"/></svg>