<svg xmlns="http://www.w3.org/2000/svg" xmlns:xlink="http://www.w3.org/1999/xlink" width="18" height="18" viewBox="0 0 18 18"><linearGradient id="a"><stop offset="0" stop-color="#b77af4"/><stop offset="1" stop-color="#773adc"/></linearGradient><linearGradient xlink:href="#a" id="b" x1="5.06" x2="5.06" y1="11.62" y2="14.5" gradientUnits="userSpaceOnUse"/><linearGradient xlink:href="#a" id="c" x1="13.06" x2="13.06" y1="11.62" y2="14.5" gradientUnits="userSpaceOnUse"/><path fill="currentColor" d="M1.06 1.6v14.92a.54.54 0 0 0 .54.54h14.92a.54.54 0 0 0 .54-.54V1.6a.54.54 0 0 0-.54-.54H1.6a.54.54 0 0 0-.54.54m14.56 14H3a.54.54 0 0 1-.54-.54V2.5h13.16z"/><path fill="currentColor" d="M3.62 7.62H6.5v2.88H3.62z"/><path fill="currentColor" d="M7.62 7.62h2.88v2.88H7.62z"/><path fill="currentColor" d="M3.62 11.62H6.5v2.88H3.62z"/><path fill="currentColor" d="M7.62 11.62h2.88v2.88H7.62z"/><path fill="currentColor" d="M11.62 11.62h2.88v2.88h-2.88z"/></svg>