<svg xmlns="http://www.w3.org/2000/svg" width="18" height="18" viewBox="0 0 18 18"><path fill="currentColor" d="M1.06 1.6v14.92a.54.54 0 0 0 .54.54h14.92a.54.54 0 0 0 .54-.54V1.6a.54.54 0 0 0-.54-.54H1.6a.54.54 0 0 0-.54.54m14.56 14H3a.54.54 0 0 1-.54-.54V2.5h13.16z"/><path fill="currentColor" d="M3.62 7.62H6.5v2.88H3.62z"/><path fill="currentColor" d="M7.62 7.62h2.88v2.88H7.62z"/><path fill="currentColor" d="M3.62 11.62H6.5v2.88H3.62z"/><path fill="currentColor" d="M7.62 11.62h2.88v2.88H7.62z"/><path fill="currentColor" d="M11.62 11.62h2.88v2.88h-2.88z"/></svg>