<svg height="18" viewBox="0 0 18 18" width="18" xmlns="http://www.w3.org/2000/svg" xmlns:xlink="http://www.w3.org/1999/xlink"><linearGradient id="a"><stop offset="0" stop-color="#b77af4"/><stop offset="1" stop-color="#773adc"/></linearGradient><linearGradient id="b" gradientUnits="userSpaceOnUse" x1="5.06" x2="5.06" xlink:href="#a" y1="11.62" y2="14.5"/><linearGradient id="c" gradientUnits="userSpaceOnUse" x1="13.06" x2="13.06" xlink:href="#a" y1="11.62" y2="14.5"/><path d="m1.06 1.6v14.92a.54.54 0 0 0 .54.54h14.92a.54.54 0 0 0 .54-.54v-14.92a.54.54 0 0 0 -.54-.54h-14.92a.54.54 0 0 0 -.54.54m14.56 14h-12.62a.54.54 0 0 1 -.54-.54v-12.56h13.16z" fill="#0078d4"/><path d="m3.62 3.62h2.88v2.88h-2.88z" fill="#ffca00"/><path d="m3.62 7.62h2.88v2.88h-2.88z" fill="#e62323"/><path d="m7.62 7.62h2.88v2.88h-2.88z" fill="#5ea0ef"/><path d="m3.62 11.62h2.88v2.88h-2.88z" fill="url(#b)"/><path d="m7.62 11.62h2.88v2.88h-2.88z" fill="#e62323"/><path d="m11.62 11.62h2.88v2.88h-2.88z" fill="url(#c)"/></svg>