<svg height="18" viewBox="0 0 18 18" width="18" xmlns="http://www.w3.org/2000/svg" xmlns:xlink="http://www.w3.org/1999/xlink"><linearGradient id="a" gradientUnits="userSpaceOnUse" x1="9.84" x2="9.84" y1="3.825" y2="17.5"><stop offset="0" stop-color="#c69aeb"/><stop offset="1" stop-color="#6f4bb2"/></linearGradient><path d="m14.977 2.5-1.877-1.865a.47.47 0 0 0 -.347-.135l-3.482.127a.46.46 0 0 0 -.312.135l-7.617 7.577a.46.46 0 0 0 0 .654l5.074 5.047a.465.465 0 0 0 .657 0l7.627-7.586a.46.46 0 0 0 .134-.288l.279-3.3a.46.46 0 0 0 -.136-.366m-2.266 1.237a.843.843 0 1 1 .848-.843.845.845 0 0 1 -.848.843" fill="#773adc"/><path d="m12.711 1.383a1.512 1.512 0 1 0 1.52 1.511 1.515 1.515 0 0 0 -1.52-1.511m.832 1.676a.848.848 0 1 1 -1-.992.84.84 0 0 1 1 .992" fill="#341a6e"/><path d="m16.658 5.828-1.878-1.868a.47.47 0 0 0 -.346-.135l-3.483.126a.47.47 0 0 0 -.312.135l-7.616 7.577a.46.46 0 0 0 0 .654l5.077 5.048a.467.467 0 0 0 .657 0l7.623-7.586a.46.46 0 0 0 .134-.288l.278-3.3a.46.46 0 0 0 -.134-.363m-2.266 1.234a.843.843 0 1 1 .847-.843.846.846 0 0 1 -.847.843" fill="url(#a)"/><path d="m14.392 4.707a1.512 1.512 0 1 0 1.519 1.512 1.516 1.516 0 0 0 -1.519-1.512m.831 1.677a.848.848 0 1 1 -1-.992.842.842 0 0 1 1 .992" fill="#552f99"/><path d="m15.223 6.384a.848.848 0 1 1 -1-.992.842.842 0 0 1 1 .992m-1.68-3.325a.848.848 0 1 1 -1-.992.84.84 0 0 1 1 .992" fill="#fff"/></svg>