<svg height="256" preserveAspectRatio="xMidYMid" viewBox="0 0 256 256" width="256" xmlns="http://www.w3.org/2000/svg" xmlns:xlink="http://www.w3.org/1999/xlink"><linearGradient id="a" x1="50%" x2="50%" y1="100%" y2="0%"><stop offset="0" stop-color="#420c5d"/><stop offset="1" stop-color="#951ad1"/></linearGradient><circle cx="128" cy="128" fill="#f2e4ff" r="123"/><g fill="url(#a)"><path d="m128.263 232.72v-15.517c49.15-.142 88.947-40.02 88.947-89.207 0-49.182-39.797-89.06-88.947-89.203v-15.516c57.72.145 104.46 46.968 104.46 104.72 0 57.755-46.74 104.58-104.46 104.723m0-54.31c27.722-.145 50.161-22.652 50.161-50.414 0-27.758-22.439-50.264-50.161-50.41v-15.513c36.295.142 65.678 29.596 65.678 65.923 0 36.331-29.383 65.785-65.678 65.927zm0-77.55c14.87.141 26.888 12.23 26.888 27.136 0 14.91-12.018 27-26.888 27.141zm-128.263 27.135c0 70.697 57.304 128.005 128 128.005 70.692 0 128-57.308 128-128.004 0-70.692-57.308-127.996-128-127.996-70.696 0-128 57.304-128 127.996z"/><path d="m12.5 14.5c63.789 0 115.5 51.487 115.5 115s-51.711 115-115.5 115z" transform="matrix(-1 0 0 1 140.5 0)"/></g></svg>