<svg xmlns="http://www.w3.org/2000/svg" width="64" height="64" viewBox="0 0 64 64"><title>Icon-Architecture/48/Arch_AWS-Audit-Manager_48</title><g id="Icon-Architecture/48/Arch_AWS-Audit-Manager_48" fill="none" fill-rule="evenodd" stroke="none" stroke-width="1"><g id="Icon-Architecture-BG/48/Security-Identity-Compliance" fill="#dd344c"><path id="Rectangle" d="M0 0h64v64H0z"/></g><g id="Icon-Service/48/AWS-Audit-Manager_48" fill="#fff" transform="translate(10 10)"><path id="Fill-5" d="m39.707 31.293-1.414 1.414L40.586 35H33v2h7.586l-2.293 2.293 1.414 1.414 4-4a1 1 0 0 0 0-1.414zM19 37h7.586l-2.293 2.293 1.414 1.414 4-4a1 1 0 0 0 0-1.414l-4-4-1.414 1.414L26.586 35H19zm-7.293 3.707 4-4a1 1 0 0 0 0-1.414l-4-4-1.414 1.414L12.586 35H5v2h7.586l-2.293 2.293zM5 27h14v-2H5zm0-9h14v-2H5zm19 0h4v-2h-4zm5-4a1 1 0 0 1 1 1v4a1 1 0 0 1-1 1h-6a1 1 0 0 1-1-1v-4a1 1 0 0 1 1-1zm-5 13h18v-2H24zm20-3v4a1 1 0 0 1-1 1H23a1 1 0 0 1-1-1v-4a1 1 0 0 1 1-1h20a1 1 0 0 1 1 1M28 7h3.586L28 3.414zm5 33h2v3a1 1 0 0 1-1 1H1a1 1 0 0 1-1-1V1a1 1 0 0 1 1-1h26c.266 0 .519.106.707.293l7 7A1 1 0 0 1 35 8v13h-2V9h-6a1 1 0 0 1-1-1V2H2v40h31zM12 13a1 1 0 0 1-.707-.293l-3-3 1.414-1.414L12 10.586l5.293-5.293 1.414 1.414-6 6A1 1 0 0 1 12 13"/></g></g></svg>