<svg height="64" viewBox="0 0 64 64" width="64" xmlns="http://www.w3.org/2000/svg"><g fill="none" fill-rule="evenodd"><path d="m0 0h64v64h-64z" fill="#dd344c"/><path d="m39.707 31.293-1.414 1.414 2.293 2.293h-7.586v2h7.586l-2.293 2.293 1.414 1.414 4-4a1 1 0 0 0 0-1.414zm-20.707 5.707h7.586l-2.293 2.293 1.414 1.414 4-4a1 1 0 0 0 0-1.414l-4-4-1.414 1.414 2.293 2.293h-7.586zm-7.293 3.707 4-4a1 1 0 0 0 0-1.414l-4-4-1.414 1.414 2.293 2.293h-7.586v2h7.586l-2.293 2.293zm-6.707-13.707h14v-2h-14zm0-9h14v-2h-14zm19 0h4v-2h-4zm5-4a1 1 0 0 1 1 1v4a1 1 0 0 1 -1 1h-6a1 1 0 0 1 -1-1v-4a1 1 0 0 1 1-1zm-5 13h18v-2h-18zm20-3v4a1 1 0 0 1 -1 1h-20a1 1 0 0 1 -1-1v-4a1 1 0 0 1 1-1h20a1 1 0 0 1 1 1m-16-17h3.586l-3.586-3.586zm5 33h2v3a1 1 0 0 1 -1 1h-33a1 1 0 0 1 -1-1v-42a1 1 0 0 1 1-1h26c.266 0 .519.106.707.293l7 7a1 1 0 0 1 .293.707v13h-2v-12h-6a1 1 0 0 1 -1-1v-6h-24v40h31zm-21-27a1 1 0 0 1 -.707-.293l-3-3 1.414-1.414 2.293 2.293 5.293-5.293 1.414 1.414-6 6a1 1 0 0 1 -.707.293" fill="#fff" transform="translate(10 10)"/></g></svg>