<svg xmlns="http://www.w3.org/2000/svg" viewBox="0 0 24 24"><defs><mask id="a"><path fill="#fff" d="M0 0h24v24H0z"/><path d="M13.681 4.423a.108.108 0 1 0 0-.217.108.108 0 0 0 0 .217"/></mask></defs><g fill="currentColor" mask="url(#a)"><path d="m15.271 16.555 5.72 4.877s-3.276 3.125-7.223-2.866z"/><path d="m15.4 16.523 4.596 5.947s-3.85 2.39-6.477-4.293l1.882-1.654z"/><path d="M13.833 21.043h-3.72a.44.44 0 0 1-.41-.27L2.024 2.94c-.087-.194.065-.421.28-.421H6.07c.184 0 .346.108.41.27l7.635 17.831a.307.307 0 0 1-.281.422z"/><path d="M7.637 3.547c-2.087.562-2.855 2.465-2.855 2.465s1.33-.465 3.18-.876a30 30 0 0 1 2.551-.421c-.043-.617-1.276-1.6-2.876-1.168"/><path d="M6.664 5.05c-1.644 1.416-1.6 3.46-1.6 3.46s.94-.908 2.357-2.163c.951-.843 2.032-1.6 2.032-1.6-.335-.519-1.47-.833-2.79.303z"/><path d="M6.307 7.18c-1.363 1.665-1.05 3.385-1.05 3.385s.801-.768 2.001-2.217a31 31 0 0 1 1.763-1.892C8.61 6 7.388 5.872 6.307 7.18"/><path d="M14.957 4.141s-.41-1.07-1.254-1.535c-.822-.454-3.028-.552-4.585.616-2.065 1.536-2.768 4.044-2.92 4.64-1.492 5.795 1.558 9.06 4.942 10.64l3.817-14.36z"/><path d="M4.912 11.246a7.404 7.404 0 0 0 7.558 7.245l-.313-14.814c-4.088.097-7.332 3.481-7.245 7.569"/><path d="M6.296 12.62c.443 4.032 4.087 6.941 8.12 6.498l-1.621-14.62a7.366 7.366 0 0 0-6.499 8.121z"/><path d="M9.313 3.785a3.107 3.107 0 0 0-.097 4.195 3.126 3.126 0 0 0 4.174.487z"/><path d="M11.79 8.077a2.909 2.909 0 1 0 0-5.817 2.909 2.909 0 0 0 0 5.817"/><path d="M8.729 13.625c1.016 3.233 4.466 5.039 7.699 4.022L12.751 5.926a6.14 6.14 0 0 0-4.022 7.699"/><path d="M9.562 12.079a5.306 5.306 0 0 0 6.239 4.173L13.725 5.84c-2.866.563-4.736 3.363-4.163 6.24z"/><path d="M11.075 2.822s-.648 1.125-.291 2.38c.443 1.556 2.097 1.783 2.8 1.61l1.006-2.108-1.763-2.358z"/><path d="M12.903 5.807s-.54.162-.887.81c-.292.541-.205 1.287-.205 1.287l2.195-1.686z"/><path d="M15.325 9.97S13.465 9.948 13 8.218c-.313-1.178.249-1.99.249-1.99l1.211-.356z"/><path d="M7.02.757s.4 1.849 2.412 2.595c1.524.562 4.076-.973 4.076-.973s-1.34-.552-3.33-.552C8.686 1.827 7.02.757 7.02.757"/><path d="M16.904 4.671s.238-1.243-.552-2.4c-.605-.887-2.12-1.882-4.93-1.265C9.053 1.525 8.697 0 8.697 0c-.076.39.183 2.92 2.649 2.552 3.027-.454 2.768 2.509 3.838 3.006.887.39 1.72-.887 1.72-.887"/><path d="M13.757 6.412a1.492 1.492 0 1 0 0-2.984 1.492 1.492 0 0 0 0 2.984"/><path d="M10.059 21.043h3.828a.44.44 0 0 0 .41-.27L21.976 2.94c.087-.194-.065-.421-.28-.421h-3.872a.44.44 0 0 0-.411.27L9.778 20.62a.307.307 0 0 0 .281.422z"/><path d="M10.059 21.043h3.828a.44.44 0 0 0 .41-.27l6.1-14.144a.306.306 0 0 0-.282-.422h-3.87a.44.44 0 0 0-.412.27L9.778 20.621a.307.307 0 0 0 .281.422"/><path d="M16.071 4.888s.054-1.795-1.806-2.736c-2.595-1.309-4.974 1.795-7.699 0 0 0 .552 2.768 6.11 1.72 1.373-.26 1.979.172 2.281.67.26.421.238.789.238 1.005l.876-.66z"/><path d="M15.671 5.223s.14-.973-.67-1.568c-.876-.638-1.58-.508-1.58-.508s.498-.303 1.212-.303c.379 0 .508-.054.508-.054s.054-.173-.184-.444c2.033.898 1.503 2.433 1.503 2.433z"/><path d="M16.352 6.856s-.8.746-1.946.356c-.076-.021-.065-.475 0-.767.065-.336.292-.703.476-.93 1.243.108 1.47 1.34 1.47 1.34z"/><path d="M16.904 4.596s.616.962.432 2.054c-.216 1.265-1.416 1.86-1.416 1.86s.573-2.206-1.05-2.995c0 0 .336-.368.823-.595.713-.324 1.21-.324 1.21-.324z"/><path d="M13.52 5.504a.724.724 0 1 0 0-1.449.724.724 0 0 0 0 1.449"/><path d="M13.357 5.169c.257 0 .465-.223.465-.498 0-.274-.208-.497-.465-.497s-.465.223-.465.497c0 .275.208.498.465.498"/></g></svg>