<svg viewBox="0 0 24 24" xmlns="http://www.w3.org/2000/svg" xmlns:xlink="http://www.w3.org/1999/xlink"><linearGradient id="a" gradientUnits="userSpaceOnUse" x1="14.07" x2="20.313" y1="18.852" y2="20.083"><stop offset=".006" stop-color="#e8096a"/><stop offset="1" stop-color="#00afff"/></linearGradient><linearGradient id="b" gradientUnits="userSpaceOnUse" x1="11.764" x2="3.911" y1="20.533" y2="1.932"><stop offset="0" stop-color="#412df5"/><stop offset=".691" stop-color="#0606b6"/><stop offset="1" stop-color="#4b00b4"/></linearGradient><linearGradient id="c"><stop offset="0" stop-color="#e60030"/><stop offset="1" stop-color="#690040"/></linearGradient><linearGradient id="d" gradientUnits="userSpaceOnUse" x1="5.23" x2="8.449" xlink:href="#c" y1="4.866" y2="4.518"/><linearGradient id="e"><stop offset="0" stop-color="#ff6500"/><stop offset="1" stop-color="#ee182c"/></linearGradient><linearGradient id="f" gradientUnits="userSpaceOnUse" x1="5.359" x2="7.933" xlink:href="#e" y1="6.753" y2="6.013"/><linearGradient id="g" gradientUnits="userSpaceOnUse" x1="5.528" x2="8.59" y1="8.108" y2="8.699"><stop offset="0" stop-color="#ea4d07"/><stop offset="1" stop-color="#c5171e"/></linearGradient><linearGradient id="h" gradientUnits="userSpaceOnUse" x1="12.023" x2="7.057" y1="3.007" y2="18.02"><stop offset="0" stop-color="#0091ff"/><stop offset=".005" stop-color="#0292fc"/><stop offset=".126" stop-color="#37a5c2"/><stop offset=".249" stop-color="#65b58e"/><stop offset=".372" stop-color="#8cc363"/><stop offset=".496" stop-color="#accf3f"/><stop offset=".62" stop-color="#c4d823"/><stop offset=".745" stop-color="#d6de10"/><stop offset=".871" stop-color="#e1e204"/><stop offset="1" stop-color="#e4e300"/></linearGradient><linearGradient id="i" gradientUnits="userSpaceOnUse" x1="6.803" x2="13.616" y1="4.807" y2="18.4"><stop offset=".006" stop-color="#de003b"/><stop offset=".241" stop-color="#d976ff"/><stop offset="1" stop-color="#00a4ea"/></linearGradient><linearGradient id="j" gradientUnits="userSpaceOnUse" x1="11.435" x2="12.609" y1="7.86" y2="16.15"><stop offset="0" stop-color="#ff9500"/><stop offset="1" stop-color="#f7ff2b"/></linearGradient><linearGradient id="k" gradientUnits="userSpaceOnUse" x1="15.495" x2="10.596" y1="13.571" y2="8.476"><stop offset=".207" stop-color="#ff8e00"/><stop offset="1" stop-color="#f41b56"/></linearGradient><linearGradient id="l" gradientUnits="userSpaceOnUse" x1="12.031" x2="12.816" y1="7.438" y2="6.584"><stop offset="0" stop-color="#ffb41f"/><stop offset="1" stop-color="#f42a56"/></linearGradient><linearGradient id="m" gradientUnits="userSpaceOnUse" x1="13.472" x2="14.931" y1="9.574" y2="6.928"><stop offset="0" stop-color="#ffb900"/><stop offset="1" stop-color="#f41880"/></linearGradient><linearGradient id="n" gradientUnits="userSpaceOnUse" x1="8.686" x2="16.938" xlink:href="#e" y1="2.816" y2="2.816"/><linearGradient id="o" gradientUnits="userSpaceOnUse" x1="10.556" x2="21.346" y1="21.192" y2="2.03"><stop offset="0" stop-color="#008dff"/><stop offset=".181" stop-color="#331dea"/><stop offset=".833" stop-color="#39c3fe"/><stop offset="1" stop-color="#60f5a9"/></linearGradient><linearGradient id="p" gradientUnits="userSpaceOnUse" x1="14.947" x2="15.001" xlink:href="#c" y1="2.631" y2="4.948"/><linearGradient id="q" gradientUnits="userSpaceOnUse" x1="15.335" x2="15.426" y1="7.144" y2="5.699"><stop offset="0" stop-color="#ffd71f"/><stop offset="1" stop-color="#dd001b"/></linearGradient><linearGradient id="r" gradientUnits="userSpaceOnUse" x1="15.25" x2="17.127" y1="6.472" y2="6.603"><stop offset="0" stop-color="#ff4c00"/><stop offset="1" stop-color="#ffff1e"/></linearGradient><radialGradient id="s" cx="0" cy="0" gradientTransform="matrix(6.39643371 .64408701 -.64408701 6.39643371 15.784402 19.485223)" gradientUnits="userSpaceOnUse" r="1"><stop offset="0" stop-color="#00caff"/><stop offset="1" stop-color="#38e700"/></radialGradient><radialGradient id="t" cx="0" cy="0" gradientTransform="matrix(11.41162276 -1.26751617 1.26751617 11.41162276 11.125336 9.045837)" gradientUnits="userSpaceOnUse" r="1"><stop offset="0" stop-color="#00dfff"/><stop offset="1" stop-color="#abe700"/></radialGradient><radialGradient id="u" cx="0" cy="0" gradientTransform="matrix(2.09108563 -1.81499958 1.81499958 2.09108563 10.639237 6.176517)" gradientUnits="userSpaceOnUse" r="1"><stop offset="0" stop-color="#0068ff"/><stop offset="1" stop-color="#9ce830"/></radialGradient><radialGradient id="v" cx="11.79" cy="5.169" gradientUnits="userSpaceOnUse" r="2.91494"><stop offset="0" stop-color="#008a43"/><stop offset="1" stop-color="#a3e830"/></radialGradient><radialGradient id="w" cx="13.404" cy="4.87" gradientUnits="userSpaceOnUse" r="2.39805"><stop offset="0" stop-color="#f00"/><stop offset="1" stop-color="#ff0"/></radialGradient><radialGradient id="x" cx="0" cy="0" gradientTransform="matrix(3.27013587 -.5467637 .5467637 3.27013587 9.744527 2.310993)" gradientUnits="userSpaceOnUse" r="1"><stop offset=".001" stop-color="#72003f"/><stop offset="1" stop-color="#ca1d67"/></radialGradient><radialGradient id="y" cx="13.777" cy="4.91" gradientUnits="userSpaceOnUse" r="1.18046"><stop offset="0" stop-color="#d1dee7"/><stop offset="1" stop-color="#fff"/></radialGradient><radialGradient id="z" cx="0" cy="0" gradientTransform="matrix(-2.52039445 -1.1137289 3.08843431 -6.98919879 15.782049 16.475553)" gradientUnits="userSpaceOnUse" r="1"><stop offset=".001" stop-color="#7f06fb"/><stop offset="1" stop-color="#7a10fb" stop-opacity="0"/></radialGradient><radialGradient id="A" cx="7.1" cy="2.821" gradientUnits="userSpaceOnUse" r="8.64049"><stop offset=".001" stop-color="#ff0042"/><stop offset=".422" stop-color="#0068ff"/><stop offset=".659" stop-color="#1877e2"/><stop offset="1" stop-color="#4eefbe"/></radialGradient><radialGradient id="B" cx="13.173" cy="4.8" gradientUnits="userSpaceOnUse" r=".9051"><stop offset="0" stop-color="#ff9100"/><stop offset=".226" stop-color="#ff9500"/><stop offset=".443" stop-color="#fea000"/><stop offset=".657" stop-color="#fcb400"/><stop offset=".867" stop-color="#f9cf00"/><stop offset="1" stop-color="#f7e400"/></radialGradient><radialGradient id="C" cx="13.13" cy="4.64" gradientUnits="userSpaceOnUse" r=".97336"><stop offset="0"/><stop offset=".092" stop-color="#000004"/><stop offset=".177" stop-color="#01000f"/><stop offset=".258" stop-color="#020021"/><stop offset=".338" stop-color="#03003c"/><stop offset=".417" stop-color="#05005d"/><stop offset=".494" stop-color="#080087"/><stop offset=".571" stop-color="#0a00b8"/><stop offset=".645" stop-color="#0e00f0"/><stop offset=".654" stop-color="#0e00f7"/></radialGradient><path d="m15.271 16.555 5.72 4.877s-3.276 3.125-7.223-2.866z" fill="url(#a)"/><path d="m15.4 16.523 4.596 5.947s-3.85 2.39-6.477-4.293l1.882-1.654z" fill="url(#s)"/><path d="m13.833 21.043h-3.72a.44.44 0 0 1 -.41-.27l-7.679-17.833c-.087-.194.065-.421.28-.421h3.766c.184 0 .346.108.41.27l7.635 17.831a.307.307 0 0 1 -.281.422z" fill="url(#b)"/><path d="m7.637 3.547c-2.087.562-2.855 2.465-2.855 2.465s1.33-.465 3.18-.876a30 30 0 0 1 2.551-.421c-.043-.617-1.276-1.6-2.876-1.168" fill="url(#d)"/><path d="m6.664 5.05c-1.644 1.416-1.6 3.46-1.6 3.46s.94-.908 2.357-2.163c.951-.843 2.032-1.6 2.032-1.6-.335-.519-1.47-.833-2.79.303z" fill="url(#f)"/><path d="m6.307 7.18c-1.363 1.665-1.05 3.385-1.05 3.385s.801-.768 2.001-2.217a31 31 0 0 1 1.763-1.892c-.411-.456-1.633-.584-2.714.724" fill="url(#g)"/><path d="m14.957 4.141s-.41-1.07-1.254-1.535c-.822-.454-3.028-.552-4.585.616-2.065 1.536-2.768 4.044-2.92 4.64-1.492 5.795 1.558 9.06 4.942 10.64l3.817-14.36z" fill="url(#h)"/><path d="m4.912 11.246a7.404 7.404 0 0 0 7.558 7.245l-.313-14.814c-4.088.097-7.332 3.481-7.245 7.569" fill="url(#i)"/><path d="m6.296 12.62c.443 4.032 4.087 6.941 8.12 6.498l-1.621-14.62a7.366 7.366 0 0 0 -6.499 8.121z" fill="url(#t)"/><path d="m9.313 3.785a3.107 3.107 0 0 0 -.097 4.195 3.126 3.126 0 0 0 4.174.487z" fill="url(#u)"/><path d="m11.79 8.077a2.909 2.909 0 1 0 0-5.817 2.909 2.909 0 0 0 0 5.817" fill="url(#v)"/><path d="m8.729 13.625c1.016 3.233 4.466 5.039 7.699 4.022l-3.677-11.721a6.14 6.14 0 0 0 -4.022 7.699" fill="url(#j)"/><path d="m9.562 12.079a5.306 5.306 0 0 0 6.239 4.173l-2.076-10.412c-2.866.563-4.736 3.363-4.163 6.24z" fill="url(#k)"/><path d="m11.075 2.822s-.648 1.125-.291 2.38c.443 1.556 2.097 1.783 2.8 1.61l1.006-2.108-1.763-2.358z" fill="url(#w)"/><path d="m12.903 5.807s-.54.162-.887.81c-.292.541-.205 1.287-.205 1.287l2.195-1.686z" fill="url(#l)"/><path d="m15.325 9.97s-1.86-.022-2.325-1.752c-.313-1.178.249-1.99.249-1.99l1.211-.356z" fill="url(#m)"/><path d="m7.02.757s.4 1.849 2.412 2.595c1.524.562 4.076-.973 4.076-.973s-1.34-.552-3.33-.552c-1.492-0-3.158-1.07-3.158-1.07" fill="url(#x)"/><path d="m16.904 4.671s.238-1.243-.552-2.4c-.605-.887-2.12-1.882-4.93-1.265-2.369.519-2.725-1.006-2.725-1.006-.076.39.183 2.92 2.649 2.552 3.027-.454 2.768 2.509 3.838 3.006.887.39 1.72-.887 1.72-.887" fill="url(#n)"/><path d="m13.757 6.412a1.492 1.492 0 1 0 0-2.984 1.492 1.492 0 0 0 0 2.984" fill="url(#y)"/><path d="m10.059 21.043h3.828a.44.44 0 0 0 .41-.27l7.679-17.833c.087-.194-.065-.421-.28-.421h-3.872a.44.44 0 0 0 -.411.27l-7.635 17.831a.307.307 0 0 0 .281.422z" fill="url(#o)"/><path d="m10.059 21.043h3.828a.44.44 0 0 0 .41-.27l6.1-14.144a.306.306 0 0 0 -.282-.422h-3.87a.44.44 0 0 0 -.412.27l-6.055 14.144a.307.307 0 0 0 .281.422" fill="url(#z)"/><path d="m16.071 4.888s.054-1.795-1.806-2.736c-2.595-1.309-4.974 1.795-7.699 0 0 0 .552 2.768 6.11 1.72 1.373-.26 1.979.172 2.281.67.26.421.238.789.238 1.005l.876-.66z" fill="url(#A)"/><path d="m15.671 5.223s.14-.973-.67-1.568c-.876-.638-1.58-.508-1.58-.508s.498-.303 1.212-.303c.379 0 .508-.054.508-.054s.054-.173-.184-.444c2.033.898 1.503 2.433 1.503 2.433z" fill="url(#p)"/><path d="m16.352 6.856s-.8.746-1.946.356c-.076-.021-.065-.475 0-.767.065-.336.292-.703.476-.93 1.243.108 1.47 1.34 1.47 1.34z" fill="url(#q)"/><path d="m16.904 4.596s.616.962.432 2.054c-.216 1.265-1.416 1.86-1.416 1.86s.573-2.206-1.05-2.995c0 0 .336-.368.823-.595.713-.324 1.21-.324 1.21-.324z" fill="url(#r)"/><path d="m13.52 5.504a.724.724 0 1 0 0-1.449.724.724 0 0 0 0 1.449" fill="url(#B)"/><path d="m13.357 5.169c.257 0 .465-.223.465-.498 0-.274-.208-.497-.465-.497s-.465.223-.465.497c0 .275.208.498.465.498" fill="url(#C)"/><path d="m13.681 4.423a.108.108 0 1 0 0-.217.108.108 0 0 0 0 .217" fill="#fff"/></svg>