<svg xmlns="http://www.w3.org/2000/svg" viewBox="0 0 128 128"><path fill="#121212" d="M8.192 0v28.512h55.65c6.945 0 11.947 1.5 15.155 4.013 3.19 2.499 4.784 6.043 4.784 10.74 0 5.44-1.595 8.805-4.723 11.017-3.167 2.239-8.196 3.339-15.217 3.339H8.191v29.07h54.06c5.545 0 9.484.797 12.136 3.02v.003c2.637 2.21 4.337 6.077 4.824 13.016v.004l.004.039c.748 9.714.652 14.47.562 19.098v.025a223 223 0 0 0-.058 4.582V128h36.448v-1.522c0-7.389-.005-14.226-1.129-28.677v-.013l-.002-.02-.002-.029c-.717-7.489-3.059-13.31-7.005-17.576-2.744-2.968-6.253-5.1-10.36-6.593 12.987-4.087 22.14-15.758 22.14-32.31 0-12.56-4.18-22.992-12.63-30.193C98.746 3.878 86.23 0 69.802 0Zm1.986 1.985H69.8c16.115 0 28.127 3.804 36.091 10.593 7.979 6.799 11.932 16.559 11.932 28.682 0 17.092-9.873 28.4-23.682 31.296l-.05 1.931c5.205 1.384 9.369 3.66 12.48 7.025 3.6 3.89 5.792 9.226 6.483 16.394l.002.017c1.101 14.144 1.118 20.865 1.118 28.091H81.71c.005-1.417.026-2.76.052-4.099v-.025c.09-4.616.182-9.5-.566-19.234l-.002-.03v-.003c-.503-7.234-2.336-11.753-5.532-14.431-3.207-2.69-7.679-3.486-13.411-3.486H10.176v-25.1H63.84c7.222 0 12.65-1.079 16.363-3.703 3.669-2.594 5.562-6.79 5.562-12.638 0-5.163-1.875-9.428-5.543-12.302-3.69-2.892-9.152-4.437-16.382-4.437H10.178ZM8.192 105.553V128h45.543v-13.941c0-1.537-.358-3.603-1.679-5.377l-.002-.002c-1.345-1.806-3.676-3.127-7.02-3.127zm1.986 1.985h34.855c2.85 0 4.44.999 5.43 2.329.972 1.305 1.287 2.977 1.287 4.192v11.955H10.178Z"/></svg>