<svg xmlns="http://www.w3.org/2000/svg" width="18" height="18" viewBox="0 0 18 18"><defs><mask id="a"><path fill="#fff" d="M0 0h18v18H0z"/><path d="M11.355 14.162a1.11 1.11 0 0 0 1.112-1.105 1 1 0 0 0-.008-.134C12.024 9.439 10.036 6.6 6.243 6.6 2.385 6.6.394 9 .006 12.933A1.115 1.115 0 0 0 1 14.156a1 1 0 0 0 .112.006z"/><path d="M6.3 7.428a3.5 3.5 0 0 1-1.89-.557l1.874 4.895L8.144 6.9a3.47 3.47 0 0 1-1.844.528"/><path d="m13.564 9.54-4.436 6.211 4.436 1.813L18 15.751z"/><path d="m13.564 9.54-4.436 6.211 4.436 1.813z"/><circle cx="12.898" cy="5.114" r="2.335"/><circle cx="6.277" cy="3.932" r="3.496"/></mask></defs><path fill="currentColor" d="M16.312 11.946a.74.74 0 0 0 .742-.738v-.089C16.758 8.792 15.431 6.9 12.9 6.9c-2.577 0-3.907 1.605-4.166 4.228a.745.745 0 0 0 .664.817h.075z" mask="url(#a)"/></svg>