<svg height="18" viewBox="0 0 18 18" width="18" xmlns="http://www.w3.org/2000/svg" xmlns:xlink="http://www.w3.org/1999/xlink"><linearGradient id="a" gradientUnits="userSpaceOnUse" x1="6.234" x2="6.234" y1="5.679" y2="16.03"><stop offset=".227" stop-color="#a67af4"/><stop offset="1" stop-color="#773adc"/></linearGradient><linearGradient id="b" gradientUnits="userSpaceOnUse" x1="5.972" x2="6.727" y1=".13" y2="9.529"><stop offset=".225" stop-color="#a67af4"/><stop offset="1" stop-color="#773adc"/></linearGradient><linearGradient id="c" gradientUnits="userSpaceOnUse" x1="9.128" x2="18" y1="13.552" y2="13.552"><stop offset="0" stop-color="#1988d9"/><stop offset=".9" stop-color="#54aef0"/></linearGradient><path d="m16.312 11.946a.74.74 0 0 0 .742-.738 1 1 0 0 0 0-.089c-.296-2.327-1.623-4.219-4.154-4.219-2.577 0-3.907 1.605-4.166 4.228a.745.745 0 0 0 .664.817 1 1 0 0 0 .075 0z" fill="#773adc"/><circle cx="12.898" cy="5.114" fill="#773adc" r="2.335"/><path d="m11.355 14.162a1.11 1.11 0 0 0 1.112-1.105 1 1 0 0 0 -.008-.134c-.435-3.484-2.423-6.323-6.216-6.323-3.858 0-5.849 2.4-6.237 6.333a1.115 1.115 0 0 0 .994 1.223 1 1 0 0 0 .112.006z" fill="url(#a)"/><path d="m6.3 7.428a3.5 3.5 0 0 1 -1.89-.557l1.874 4.895 1.86-4.866a3.47 3.47 0 0 1 -1.844.528" fill="#fff" opacity=".8"/><circle cx="6.277" cy="3.932" fill="url(#b)" r="3.496"/><path d="m13.564 9.54-4.436 6.211 4.436 1.813 4.436-1.813z" fill="url(#c)"/><path d="m13.564 9.54-4.436 6.211 4.436 1.813z" fill="#50e6ff"/></svg>