<svg height="18" viewBox="0 0 18 18" width="18" xmlns="http://www.w3.org/2000/svg" xmlns:xlink="http://www.w3.org/1999/xlink"><linearGradient id="a" gradientUnits="userSpaceOnUse" x1="2.59" x2="15.41" y1="10.16" y2="10.16"><stop offset="0" stop-color="#005ba1"/><stop offset=".07" stop-color="#0060a9"/><stop offset=".36" stop-color="#0071c8"/><stop offset=".52" stop-color="#0078d4"/><stop offset=".64" stop-color="#0074cd"/><stop offset=".82" stop-color="#006abb"/><stop offset="1" stop-color="#005ba1"/></linearGradient><path d="m9 5.14c-3.54 0-6.41-1-6.41-2.32v12.36c0 1.27 2.82 2.3 6.32 2.32h.09c3.54 0 6.41-1 6.41-2.32v-12.36c0 1.29-2.87 2.32-6.41 2.32" fill="url(#a)"/><path d="m15.41 2.82c0 1.29-2.87 2.32-6.41 2.32s-6.41-1-6.41-2.32 2.87-2.32 6.41-2.32 6.41 1 6.41 2.32" fill="#e8e8e8"/><path d="m13.92 2.63c0 .82-2.21 1.48-4.92 1.48s-4.92-.66-4.92-1.48 2.21-1.47 4.92-1.47 4.92.66 4.92 1.47" fill="#50e6ff"/><path d="m9 3a11.6 11.6 0 0 0 -3.89.57 11.4 11.4 0 0 0 3.89.54 11.2 11.2 0 0 0 3.89-.58 11.8 11.8 0 0 0 -3.89-.53" fill="#198ab3"/><path d="m12.64 9v1.63h-1a.4.4 0 0 1 -.29-.14v-1.49h-1.35v1.78a.92.92 0 0 0 1 .89h1.49l.26-.13s-.11.41-.26.43h-2.38v1h2.66a1.21 1.21 0 0 0 1.23-1.27v-2.7zm-3.11 0v-.49a.7.7 0 0 0 -.48-.77 1.7 1.7 0 0 0 -.5-.08.94.94 0 0 0 -.91.58l-.78 1.9-1-1.9a.93.93 0 0 0 -.86-.58 1.4 1.4 0 0 0 -.51.09c-.35.11-.43.34-.43.73v3.31h1.17v-2.23l.63 1.57a1.08 1.08 0 0 0 1 .66c.44 0 .62-.26.8-.66l.67-1.51v2.15h1.18v-2.77z" fill="#f2f2f2"/></svg>