<svg height="18" viewBox="0 0 18 18" width="18" xmlns="http://www.w3.org/2000/svg" xmlns:xlink="http://www.w3.org/1999/xlink"><radialGradient id="a" cx="8.7574" cy="8.6848" gradientUnits="userSpaceOnUse" r="8.46"><stop offset=".67" stop-color="#6bb9f2"/><stop offset=".74" stop-color="#61b4f1"/><stop offset=".85" stop-color="#47a8ef"/><stop offset=".99" stop-color="#1d94eb"/><stop offset="1" stop-color="#1b93eb"/></radialGradient><path d="m9 .5a8.5 8.5 0 1 0 8.5 8.5 8.5 8.5 0 0 0 -8.5-8.5" fill="url(#a)"/><circle cx="9" cy="9" fill="#fff" r="7.03"/><g fill="#32bedd"><circle cx="7.45" cy="9" r=".77"/><path d="m5.26 6.8h-.38a.29.29 0 0 0 -.29.29v5.72a.59.59 0 0 0 .59.59h5.57a.29.29 0 0 0 .29-.3v-.38a.29.29 0 0 0 -.29-.29h-5a.14.14 0 0 1 -.14-.15v-5.19a.29.29 0 0 0 -.35-.29"/><circle cx="10.55" cy="9" r=".77"/><path d="m12.42 4.6h-5.19a.29.29 0 0 0 -.29.3v.38a.29.29 0 0 0 .29.29h5a.15.15 0 0 1 .15.15v5.19a.29.29 0 0 0 .29.29h.38a.29.29 0 0 0 .29-.29v-5.72a.59.59 0 0 0 -.58-.59z"/></g></svg>