<svg xmlns="http://www.w3.org/2000/svg" width="18" height="18" viewBox="0 0 18 18"><path fill="currentColor" d="M17.453 11.204H6.015a3.27 3.27 0 0 1-1.198 2.035l.098 2.432h12.54a.546.546 0 0 0 .546-.546v-3.376a.546.546 0 0 0-.547-.546z"/><path fill="currentColor" d="M17.453 1.091H2.203a.546.546 0 0 0-.546.546v3.376c0 .301.244.546.546.546h15.251A.546.546 0 0 0 18 5.013V1.637a.546.546 0 0 0-.547-.546"/><path fill="currentColor" d="M17.453 6.148H2.203a.546.546 0 0 0-.546.546v.919a3.2 3.2 0 0 1 1.142-.208 3.267 3.267 0 0 1 3.257 3.21h11.397a.546.546 0 0 0 .546-.546V6.693a.546.546 0 0 0-.547-.546z"/><g fill="currentColor"><rect width="1.221" height="1.221" x="15.524" y="11.986" rx=".273"/><rect width="1.221" height="1.221" x="15.524" y="13.669" rx=".273"/><rect width="1.221" height="1.221" x="15.524" y="6.93" rx=".273"/><rect width="1.221" height="1.221" x="15.524" y="8.613" rx=".273"/><rect width="1.221" height="1.221" x="15.524" y="1.873" rx=".273"/><rect width="1.221" height="1.221" x="15.524" y="3.556" rx=".273"/></g><path fill="currentColor" d="M4.335 12.673a2.344 2.344 0 0 1-3.136 0l-.195 3.898a.3.3 0 0 0 .183.304.3.3 0 0 0 .347-.071l1.209-1.228 1.219 1.237a.306.306 0 0 0 .53-.223l-.158-3.916z"/><path fill="currentColor" d="M2.8 13.482c1.546 0 2.8-1.258 2.8-2.809S4.346 7.864 2.8 7.864 0 9.122 0 10.673s1.254 2.809 2.8 2.809"/><path fill="currentColor" d="M2.8 12.803a2.13 2.13 0 1 0 0-4.26 2.13 2.13 0 0 0 0 4.26"/><path fill="none" d="M0 0h18v18H0z"/></svg>