<svg height="18" viewBox="0 0 18 18" width="18" xmlns="http://www.w3.org/2000/svg" xmlns:xlink="http://www.w3.org/1999/xlink"><linearGradient id="a"><stop offset="0" stop-color="#5ea0ef"/><stop offset="1" stop-color="#005ba1"/></linearGradient><linearGradient id="b" gradientUnits="userSpaceOnUse" x1="11.408" x2="11.408" xlink:href="#a" y1="11.369" y2="16.364"/><linearGradient id="c" gradientUnits="userSpaceOnUse" x1="9.829" x2="9.829" xlink:href="#a" y1="1.255" y2="6.251"/><linearGradient id="d" gradientUnits="userSpaceOnUse" x1="9.829" x2="9.829" xlink:href="#a" y1="6.312" y2="11.307"/><linearGradient id="e" gradientUnits="userSpaceOnUse" x1="2.749" x2="2.749" y1="13.627" y2="16.969"><stop offset="0" stop-color="#32bedd"/><stop offset="1" stop-color="#50e6ff"/></linearGradient><linearGradient id="f" gradientUnits="userSpaceOnUse" x1="2.8" x2="2.8" y1="9.129" y2="13.562"><stop offset="0" stop-color="#32bedd"/><stop offset="1" stop-color="#198ab3"/></linearGradient><linearGradient id="g" gradientUnits="userSpaceOnUse" x1="2.8" x2="2.8" y1="9.502" y2="12.863"><stop offset="0" stop-color="#9cebff"/><stop offset="1" stop-color="#50e6ff"/></linearGradient><path d="m17.453 11.204h-11.438a3.27 3.27 0 0 1 -1.198 2.035l.098 2.432h12.54a.546.546 0 0 0 .546-.546v-3.376a.546.546 0 0 0 -.547-.546z" fill="url(#b)"/><path d="m17.453 1.091h-15.25a.546.546 0 0 0 -.546.546v3.376c0 .301.244.546.546.546h15.251a.546.546 0 0 0 .546-.546v-3.376a.546.546 0 0 0 -.547-.546" fill="url(#c)"/><path d="m17.453 6.148h-15.25a.546.546 0 0 0 -.546.546v.919a3.2 3.2 0 0 1 1.142-.208 3.267 3.267 0 0 1 3.257 3.21h11.397a.546.546 0 0 0 .546-.546v-3.376a.546.546 0 0 0 -.547-.546z" fill="url(#d)"/><g fill="#fff"><rect height="1.221" rx=".273" width="1.221" x="15.524" y="11.986"/><rect height="1.221" rx=".273" width="1.221" x="15.524" y="13.669"/><rect height="1.221" rx=".273" width="1.221" x="15.524" y="6.93"/><rect height="1.221" rx=".273" width="1.221" x="15.524" y="8.613"/><rect height="1.221" rx=".273" width="1.221" x="15.524" y="1.873"/><rect height="1.221" rx=".273" width="1.221" x="15.524" y="3.556"/></g><path d="m4.335 12.673a2.344 2.344 0 0 1 -3.136 0l-.195 3.898a.3.3 0 0 0 .183.304.303.303 0 0 0 .347-.071l1.209-1.228 1.219 1.237a.306.306 0 0 0 .53-.223l-.158-3.916z" fill="url(#e)"/><path d="m2.8 13.482c1.546 0 2.8-1.258 2.8-2.809s-1.254-2.809-2.8-2.809-2.8 1.258-2.8 2.809 1.254 2.809 2.8 2.809" fill="url(#f)"/><path d="m2.8 12.803a2.13 2.13 0 1 0 0-4.26 2.13 2.13 0 0 0 0 4.26" fill="url(#g)"/><path d="m0 0h18v18h-18z" fill="none"/></svg>