<svg xmlns="http://www.w3.org/2000/svg" width="128" height="128" viewBox="0 0 128 128"><defs><mask id="a"><path fill="#fff" d="M0 0h128v128H0z"/><path d="M58.89 73.117c18.15 0 25.79-10.52 25.79-25.46 0-14.942-11.547-28.692-25.79-28.692-14.245 0-25.792 13.75-25.792 28.691 0 14.942 7.64 25.461 25.793 25.461zm0 0"/><path d="M55.176 35.375c0 2.719-2.164 4.922-4.836 4.922s-4.836-2.203-4.836-4.922 2.164-4.922 4.836-4.922 4.836 2.203 4.836 4.922m0 0"/></mask></defs><g fill="currentColor" mask="url(#a)"><path d="M108.566 83.547c-1.937 2.926-3.406 6.527-7.34 6.527-6.624 0-6.98-10.203-13.609-10.203-6.625 0-6.265 10.203-12.887 10.203-6.625 0-6.98-10.203-13.609-10.203-6.625 0-6.266 10.203-12.887 10.203-6.625 0-6.98-10.203-13.605-10.203-6.629 0-6.27 10.203-12.89 10.203-2.083 0-3.544-1.008-4.778-2.39-4.738-8.239-7.465-17.895-7.465-28.22 0-30.222 23.367-54.722 52.191-54.722s52.192 24.5 52.192 54.723c0 8.64-1.91 16.816-5.313 24.082m0 0"/><path d="M40.844 78.145v22.668c0 4.066-3.301 7.363-7.371 7.363a7.365 7.365 0 0 1-7.371-7.364V73.45c1.375-2.523 2.945-4.707 5.78-4.707 4.61 0 6.223 5.79 8.962 9.403zm27.843 1.183v35.844a8.185 8.185 0 0 1-8.187 8.183c-4.523 0-8.191-3.664-8.191-8.183v-40.57c1.543-2.973 3.132-5.86 6.39-5.86 5.16 0 6.563 7.242 9.989 10.586zm26.211-.66v26.023c0 4.067-3.3 7.364-7.37 7.364s-7.372-3.297-7.372-7.364V72.707c1.281-2.195 2.809-3.965 5.364-3.965 4.84 0 6.375 6.38 9.378 9.926m0 0"/><path d="M108.566 83.547c-1.937 2.926-3.406 6.527-7.34 6.527-6.624 0-6.98-10.203-13.609-10.203-6.625 0-6.265 10.203-12.887 10.203-6.625 0-6.98-10.203-13.609-10.203-6.625 0-6.266 10.203-12.887 10.203-6.625 0-6.98-10.203-13.605-10.203-6.629 0-6.27 10.203-12.89 10.203-2.083 0-3.544-1.008-4.778-2.39-4.738-8.239-7.465-17.895-7.465-28.22 0-30.222 23.367-54.722 52.191-54.722s52.192 24.5 52.192 54.723c0 8.64-1.91 16.816-5.313 24.082m0 0"/><path d="M97.273 88.984c13.676-20.332 14.028-42.879 1.059-67.652 9.613 9.844 15.547 23.348 15.547 38.25 0 8.61-1.98 16.75-5.508 23.992-2.004 2.91-3.531 6.5-7.61 6.5a5.95 5.95 0 0 1-3.488-1.09m0 0"/><path d="M61.625 37.836c0 5.89-4.332 10.668-9.672 10.668-5.344 0-9.672-4.777-9.672-10.668s4.328-10.668 9.672-10.668c5.34 0 9.672 4.777 9.672 10.668m0 0"/></g></svg>