<svg xmlns="http://www.w3.org/2000/svg" width="1000" height="181.354" viewBox="0 0 1000 181.354"><g fill="currentColor" fill-rule="evenodd"><path fill="currentColor" d="M362.844 65.664c0-1.644 1.115-2.525 2.516-2.525 2.391 0 5.982 2.525 8.012 7.584-.73 0-1.82.218-2.559.218-4.329 0-7.97-2.064-7.97-5.277m-262.178 0c0-1.644 1.074-2.525 2.542-2.525 2.324 0 5.763 2.525 7.768 7.584-6.694 0-10.31-1.451-10.31-5.059m50.568-26.114c0-27.03 5.269-31.182 6.905-31.182 2.902 0 3.246 1.812 3.246 12.18 0 10.655-4.53 24.589-10.15 32.248zm184.078 26.66c-3.12 4.345-5.654 10.52-5.654 18.472 0 15.234 8.691 29.772 25.57 29.772 16.324 0 27.75-12.894 27.75-30.871 0-5.226-.193-5.948-.537-8.112 3.792-1.653 7.064-4.178 9.614-6.2 2.164-1.635 3.783-2.541 5.083-2.541 1.628 0 2.34 1.266 2.34 3.624v35.569c0 5.796 1.83 8.531 6.343 8.531 4.16 0 7.089-2.92 8.708-6.359 5.998-12.516 14.68-29.193 18.48-35.527.915-1.46 1.653-2.567 2.173-2.567.73 0 1.1.554 1.1 2.895v28.32c0 7.97 3.64 13.238 11.584 13.238 8.364 0 12.508-8.011 19.815-20.335a4.2 4.2 0 0 0 .503-1.795c0-1.627-1.418-2.558-2.877-2.558-1.645 0-2.55 1.644-7.978 7.617-1.1 1.132-2.165 2.701-4.178 2.701-.721 0-1.275-.872-1.275-1.98V66.361c0-8.532-3.817-11.971-8.708-11.971-3.976 0-7.256 1.635-10.695 6.71-6.175 9.094-12.517 21.98-15.948 28.473-.386.755-.906 1.845-1.258 1.845-.386 0-.545-.562-.545-1.845V66.36c0-6.695-1.812-11.971-8.893-11.971-7.449 0-11.24 5.092-16.694 8.892-3.439 2.567-6.51 4.362-8.858 5.444-3.65-9.244-10.352-13.934-15.964-13.791-5.646.193-9.63 3.657-9.63 9.463 0 5.956 3.648 10.1 8.522 11.945 2.702 1.09 5.252 1.292 8.893 1.292 1.09 0 2.18 0 2.877-.201.386 1.804.21 4.379.21 6.367 0 8.892-5.26 17.76-15.033 17.76-10.184 0-16.14-9.799-16.14-21.032 0-8.531 2.516-15.586 6.66-20.469 1.678-1.828 2.92-2.936 2.92-4.613 0-.84-1.242-1.057-2.35-1.057-6.903 0-14.495 3.103-19.738 5.805-6.93 3.632-15.067 9.639-21.786 15.62-3.264-7.273-7.248-13.624-9.253-18.54-.722-1.988-1.25-4.303-2.702-4.303-1.291 0-1.845 1.267-2.734 3.775-3.255 9.614-20.67 37.75-24.48 41.55-.36.52-.888 1.09-1.065 1.09-.385 0-.595-.167-.595-1.283V66.361c0-8.532-3.44-11.971-8.12-11.971-4.01 0-7.442 1.635-10.696 6.71-5.982 9.094-13.263 22.332-16.694 28.85-.554 1.116-1.108 1.46-1.292 1.46s-.327-.713-.327-1.837V66.36c0-8.532-3.457-11.971-8.18-11.971-4.001 0-7.785 1.493-10.888 6.71-7.6 12.903-20.285 32.667-22.65 35.905a3 3 0 0 1-1.091 1.1c-.352 0-.562-.353-.562-1.26V66.37c0-8.532-3.44-11.971-8.129-11.971-6.543 0-10.15 6.015-12.525 9.807a310 310 0 0 0-11.048 18.883c-2.365 4.37-4.37 8.33-5.109 8.33-.335 0-.335-1.644-.335-4.714V62.4c11.4-12.718 18.48-28.304 18.48-45.35 0-9.815-4.336-15.226-11.03-15.226-12.542 0-22.122 19.596-22.122 42.783v18.867c-5.814 3.632-11.267 5.402-17.986 6.71-3.431-10.125-10.696-15.393-16.476-15.25-5.604.193-9.614 3.657-9.614 9.463 0 9.605 9.43 13.59 17.751 13.59h2.366c.352 1.828.352 3.825.352 5.813 0 8.892-5.26 17.76-15.016 17.76-10.15 0-16.157-9.799-16.157-21.032 0-8.531 2.517-15.586 6.694-20.469 1.645-1.828 2.92-3.464 2.92-4.613 0-.84-1.275-1.057-2.374-1.057-6.888 0-22.105 9.286-40.25 27.423-1.603-14.513-3.44-28.673-3.44-42.456 0-15.41 3.054-28.497 3.775-32.272a33.6 33.6 0 0 0 .596-4.883c0-1.46-.772-2.206-2.726-2.206C32.279-.004.007 23.4.007 58.408c0 24.814 9.076 36.802 24.83 52.212-9.57 15.42-17.23 33.715-17.23 50.049 0 11.77 2.743 20.687 11.426 20.687 18.136 0 31.727-37.7 31.727-65.652q.008-12.508-1.05-25.007c6.687-7.114 17.03-16.694 19.547-17.609a43.6 43.6 0 0 0-1.804 11.594c0 15.234 8.725 29.772 25.57 29.772 15.796 0 27.742-12.894 27.742-30.871 0-2.324-.185-4.345-.344-6.51 5.772-1.09 11.09-2.575 16.149-5.604v36.442c0 4.698 3.238 6.543 6.325 6.543 4.194 0 6.367-2.92 9.42-9.597 2.568-5.46 9.43-17.96 13.599-25.418 3.288-5.83 5.1-9.605 6.56-9.605.336 0 .73.889.73 3.062v31.022c0 8.347 4.354 10.536 8.12 10.536 3.624 0 5.999-1.996 8.356-5.268 9.437-13.43 19.428-29.37 23.388-36.29.73-1.234 1.636-2.182 2.366-2.182.704 0 1.074.395 1.074 2.727v32.482c0 5.796 1.812 8.531 6.367 8.531 4.144 0 6.862-2.92 8.472-6.359 6.04-12.516 14.89-29.025 18.725-35.527.88-1.46 1.795-2.734 2.332-2.734.755 0 .922.889.922 3.254v30.83c0 8.347 4.363 10.536 8.188 10.536 5.033 0 8.33-3.649 11.593-7.802 5.948-7.835 14.664-21.735 19.924-30.67 1.829 2.92 3.8 6.376 5.461 10.168-4.362 5.26-8.724 11.233-8.724 17.566 0 6.72 4.723 10.738 9.622 10.738 8.322 0 15.93-8.011 15.93-19.043 0-4.345-1.25-8.892-2.869-13.229 7.4-7.273 16.3-14.345 22.86-15.972M36.616 105.738c1.468 9.605 2.735 19.051 2.735 26.475 0 17.382-5.789 37.7-15.772 37.532-3.842 0-7.088-3.858-7.248-10.528-.36-21.735 9.966-40.241 20.285-53.479M301.37 93.381c1.09 3.12 1.652 5.638 1.652 8.18 0 2.902-1.09 5.813-3.104 5.813-1.426 0-2.877-1.636-2.877-4.178 0-2.726 2.349-7.08 4.329-9.815M43.16 6.891c0 1.108-2.543 6.166-5.79 15.252a114.1 114.1 0 0 0-6.735 38.966c0 9.614 2.382 22.323 4.387 35.192l-5.805 7.826c-9.262-11.274-15.058-23.95-15.058-45.72 0-30.82 18.673-52.203 28.27-52.203.57 0 .73.167.73.688"/><path fill="currentColor" d="M894.675 65.664c0-1.644 1.057-2.525 2.517-2.525 2.349 0 5.981 2.525 7.97 7.584-.714 0-1.796.218-2.56.218-4.311 0-7.927-2.064-7.927-5.277m-262.237 0c0-1.644 1.116-2.525 2.55-2.525 2.349 0 5.839 2.525 7.793 7.584-6.71 0-10.335-1.451-10.335-5.059m50.61-26.114c0-27.03 5.227-31.182 6.88-31.182 2.894 0 3.271 1.812 3.271 12.18 0 10.655-4.555 24.589-10.15 32.248zm-114.592 66.188c1.41 9.605 2.726 19.051 2.726 26.475 0 17.382-5.788 37.7-15.787 37.532-3.8 0-7.072-3.858-7.248-10.528-.378-21.735 9.982-40.241 20.31-53.479m264.753-12.357c1.09 3.12 1.619 5.638 1.619 8.18 0 2.902-1.09 5.813-3.087 5.813-1.426 0-2.928-1.636-2.928-4.178 0-2.726 2.383-7.08 4.388-9.815M574.94 6.891c0 1.108-2.516 6.166-5.796 15.252-3.423 9.412-6.712 22.817-6.712 38.966 0 9.614 2.425 22.323 4.405 35.192l-5.822 7.826c-9.228-11.274-15.067-23.95-15.067-45.72 0-30.82 18.707-52.203 28.304-52.203.529 0 .688.167.688.688m-30.233 90.675c3.238 4.354 7.24 8.515 11.954 13.053-9.622 15.42-17.223 33.724-17.223 50.049 0 11.77 2.735 20.687 11.443 20.687 18.12 0 31.702-37.7 31.702-65.652q0-12.508-1.083-25.007c6.72-7.114 17.03-16.694 19.597-17.609-1.09 3.817-1.846 7.819-1.846 11.594 0 15.234 8.708 29.772 25.587 29.772 15.77 0 27.733-12.894 27.733-30.871 0-2.324-.168-4.345-.369-6.51 5.814-1.09 11.107-2.575 16.157-5.604v36.442c0 4.698 3.247 6.543 6.3 6.543 4.228 0 6.4-2.92 9.471-9.597 2.525-5.46 9.43-17.96 13.615-25.418 3.247-5.83 5.067-9.605 6.544-9.605.344 0 .688.889.688 3.062v31.022c0 8.347 4.337 10.536 8.154 10.536 3.64 0 5.973-1.996 8.38-5.268 9.396-13.43 19.379-29.37 23.363-36.29.73-1.234 1.645-2.182 2.35-2.182s1.107.395 1.107 2.727v32.482c0 5.796 1.795 8.531 6.316 8.531 4.178 0 6.896-2.92 8.54-6.359a621 621 0 0 1 18.666-35.527c.922-1.46 1.82-2.734 2.39-2.734.705 0 .906.889.906 3.254v30.83c0 8.347 4.312 10.536 8.113 10.536 5.117 0 8.388-3.649 11.618-7.802 5.981-7.835 14.706-21.735 19.966-30.67 1.787 2.92 3.808 6.376 5.453 10.168-4.396 5.26-8.7 11.233-8.7 17.566 0 6.72 4.656 10.738 9.589 10.738 8.33 0 15.939-8.011 15.939-19.043 0-4.345-1.259-8.892-2.894-13.229 7.424-7.273 16.316-14.345 22.843-15.972-3.08 4.345-5.621 10.52-5.621 18.472 0 15.234 8.716 29.772 25.586 29.772 16.317 0 27.709-12.894 27.709-30.871 0-5.226-.168-5.948-.504-8.112 3.767-1.653 7.047-4.178 9.614-6.2 2.13-1.635 3.8-2.541 5.042-2.541 1.644 0 2.407 1.266 2.407 3.624v35.569c0 5.796 1.787 8.531 6.317 8.531 4.161 0 7.08-2.92 8.725-6.359 5.939-12.516 14.655-29.193 18.455-35.527.906-1.46 1.645-2.567 2.19-2.567.738 0 1.09.554 1.09 2.895v28.32c0 7.97 3.6 13.238 11.594 13.238 8.372 0 12.533-8.011 19.798-20.335a4.2 4.2 0 0 0 .511-1.795c0-1.627-1.45-2.558-2.894-2.558-1.619 0-2.542 1.644-7.97 7.617-1.073 1.132-2.18 2.701-4.169 2.701-.746 0-1.258-.872-1.258-1.98V66.361c0-8.532-3.859-11.971-8.75-11.971-3.967 0-7.214 1.635-10.67 6.71-6.183 9.094-12.508 21.98-15.93 28.473-.395.755-.924 1.845-1.301 1.845-.394 0-.529-.562-.529-1.845V66.36c0-6.695-1.812-11.971-8.892-11.971-7.45 0-11.24 5.092-16.669 8.892-3.48 2.567-6.543 4.362-8.917 5.444-3.599-9.244-10.327-13.934-15.922-13.791-5.654.193-9.605 3.657-9.605 9.463 0 5.956 3.624 10.1 8.472 11.945 2.735 1.09 5.269 1.292 8.943 1.292 1.065 0 2.114 0 2.886-.201.352 1.804.168 4.379.168 6.367 0 8.892-5.269 17.76-15.075 17.76-10.15 0-16.107-9.799-16.107-21.032 0-8.531 2.517-15.586 6.678-20.469 1.652-1.828 2.936-2.936 2.936-4.613 0-.84-1.284-1.057-2.374-1.057-6.854 0-14.496 3.103-19.756 5.805-6.904 3.632-15.058 9.639-21.744 15.62-3.272-7.273-7.24-13.624-9.262-18.54-.755-1.988-1.241-4.303-2.751-4.303-1.259 0-1.804 1.267-2.701 3.775-3.272 9.614-20.662 37.75-24.47 41.55-.37.52-.907 1.09-1.1 1.09-.335 0-.537-.167-.537-1.283V66.361c0-8.532-3.422-11.971-8.179-11.971-4.001 0-7.39 1.635-10.687 6.71-5.998 9.094-13.23 22.332-16.677 28.85-.537 1.116-1.066 1.46-1.242 1.46-.201 0-.394-.713-.394-1.837V66.36c0-8.532-3.415-11.971-8.138-11.971-4.001 0-7.835 1.493-10.888 6.71-7.634 12.903-20.31 32.667-22.684 35.905a2.5 2.5 0 0 1-1.09 1.1c-.328 0-.537-.353-.537-1.26V66.37c0-8.532-3.44-11.971-8.171-11.971-6.544 0-10.142 6.015-12.516 9.807a336 336 0 0 0-11.049 18.883c-2.34 4.37-4.337 8.33-5.067 8.33-.36 0-.36-1.644-.36-4.714V62.4c11.434-12.718 18.48-28.304 18.48-45.35 0-9.815-4.337-15.226-11.073-15.226-12.49 0-22.088 19.596-22.088 42.783v18.867c-5.822 3.632-11.266 5.402-17.986 6.71-3.414-10.125-10.679-15.393-16.442-15.25-5.662.193-9.639 3.657-9.639 9.463 0 9.605 9.396 13.59 17.768 13.59h2.366c.335 1.828.335 3.825.335 5.813 0 8.892-5.235 17.76-15.041 17.76-10.15 0-16.107-9.799-16.107-21.032 0-8.531 2.525-15.586 6.67-20.469 1.627-1.828 2.902-3.464 2.902-4.613 0-.84-1.275-1.057-2.349-1.057-6.904 0-22.122 9.286-40.267 27.423-1.594-14.513-3.44-28.673-3.44-42.456 0-15.41 3.088-28.497 3.81-32.272.36-2.341.561-3.809.561-4.883 0-1.46-.738-2.206-2.7-2.206-14.69 0-46.979 23.405-46.979 58.412 0 14.303 3.087 24.487 8.532 33.354-2.03-.352-3.624-.352-5.117-.352-5.772 0-11.242 1.443-14.622 2.18v-3.64c0-7.768-1.846-18.48-5.117-22.121a2.1 2.1 0 0 0-1.427-.529c-1.493 0-3.28.696-5.268 1.795-2.198 1.09-4.37 2.198-4.37 2.903 0 .344 0 .713.545 1.61 1.275 1.863 4.731 5.453 5.981 14.01-6.183-6.183-13.22-8.917-22.432-8.917-10.905 0-14.177 4.882-14.177 9.806 0 9.43 12.5 14.136 28.304 14.136 2.894 0 6.15-.546 9.396-1.284 0 2.911.369 5.478.369 7.634 0 3.095.528 5.453 2.542 5.453 3.078 0 4.899-6.183 5.251-15.05 5.62-1.46 11.434-2.718 16.342-2.718 2.349 0 5.285.336 8.154.89m-35.72-1.813c-3.054.361-4.908.361-8.138.361-7.097 0-12.331-2.735-12.331-6.686 0-2.533 1.258-4.01 4.882-4.01 5.814 0 10.503 4.01 15.587 10.335"/></g></svg>