<svg viewBox="0 0 128 128" xmlns="http://www.w3.org/2000/svg" xmlns:xlink="http://www.w3.org/1999/xlink"><linearGradient id="a" gradientTransform="matrix(1.21904799 .00221275 -.00221275 1.21904799 0 0)" gradientUnits="userSpaceOnUse" x1="92.39" x2="95.19" y1="40.62" y2="65.06"><stop offset=".16" stop-color="#21d789"/><stop offset=".54" stop-color="#419fbc"/><stop offset="1" stop-color="#6b57ff"/></linearGradient><linearGradient id="b" gradientTransform="matrix(1.21904799 .00221275 -.00221275 1.21904799 0 0)" gradientUnits="userSpaceOnUse" x1="66.85" x2="73.95" y1="30.12" y2="11.96"><stop offset="0" stop-color="#6b57ff"/><stop offset=".95" stop-color="#21d789"/></linearGradient><linearGradient id="c" gradientTransform="matrix(1.21904799 .00221275 -.00221275 1.21904799 0 0)" gradientUnits="userSpaceOnUse" x1="27.62" x2="34.52" y1="52.97" y2="83.01"><stop offset="0" stop-color="#6b57ff"/><stop offset=".02" stop-color="#685cfb"/><stop offset=".28" stop-color="#4a91ca"/><stop offset=".51" stop-color="#34b7a7"/><stop offset=".69" stop-color="#26ce91"/><stop offset=".8" stop-color="#21d789"/></linearGradient><linearGradient id="d" gradientTransform="matrix(1.21904799 .00221275 -.00221275 1.21904799 0 0)" gradientUnits="userSpaceOnUse" x1="10.48" x2="94.6" y1="52.51" y2="98.96"><stop offset=".08" stop-color="#21d789"/><stop offset=".89" stop-color="#6b57ff"/></linearGradient><linearGradient id="e" gradientTransform="matrix(1.21904799 .00221275 -.00221275 1.21904799 0 0)" gradientUnits="userSpaceOnUse" x1="10.99" x2="95.54" y1="41.31" y2="41.31"><stop offset=".31" stop-color="#21d789"/><stop offset=".49" stop-color="#59a3b2"/><stop offset=".77" stop-color="#b74af7"/><stop offset="1" stop-color="#ff45ed"/></linearGradient><path d="m115.055 23.676 7.46 47.906-13.788 8.023zm0 0" fill="url(#a)"/><path d="m115.055 23.676-41.899-18.192-11.691 9.704zm0 0" fill="url(#b)"/><path d="m84.566 122.516-65.011-51.797-13.059 39.265zm0 0" fill="url(#c)"/><path d="m93.621 89.781-88.137-30.281 79.082 63.016zm0 0" fill="url(#d)"/><path d="m5.484 6.316v53.184l101.559 34.902 8.012-70.726zm0 0" fill="url(#e)"/><path d="m27.43 27.281h73.14v73.145h-73.14zm0 0"/><path d="m34.852 36.79h11.812c9.508 0 16.094 6.534 16.094 15.058v.082c0 8.535-6.586 15.14-16.094 15.14h-11.812zm6.656 6.01v18.286h5.156a8.632 8.632 0 0 0 9.121-9.043v-.113a8.698 8.698 0 0 0 -9.12-9.13zm22.43 9.216v-.086a15.549 15.549 0 0 1 15.847-15.664 16.613 16.613 0 0 1 11.899 4.156l-4.192 5.062a11.193 11.193 0 0 0 -7.914-3.074c-4.875 0-8.703 4.293-8.703 9.438v.082c0 5.535 3.816 9.61 9.18 9.61a10.646 10.646 0 0 0 6.289-1.806v-4.34h-6.704v-5.753h13.152v13.152a19.633 19.633 0 0 1 -12.934 4.805c-9.433 0-15.921-6.645-15.921-15.582zm-29.782 34.683h27.43v4.57h-27.43zm0 0" fill="#fff"/></svg>