<svg xmlns="http://www.w3.org/2000/svg" viewBox="0 0 128 128"><defs><mask id="a"><path fill="#fff" d="M0 0h128v128H0z"/><path d="M34.852 36.79h11.812c9.508 0 16.094 6.534 16.094 15.058v.082c0 8.535-6.586 15.14-16.094 15.14H34.852zm6.656 6.01v18.286h5.156a8.63 8.63 0 0 0 9.121-9.043v-.113a8.7 8.7 0 0 0-9.12-9.13zm22.43 9.216v-.086a15.55 15.55 0 0 1 15.847-15.664 16.6 16.6 0 0 1 11.899 4.156l-4.192 5.062a11.2 11.2 0 0 0-7.914-3.074c-4.875 0-8.703 4.293-8.703 9.438v.082c0 5.535 3.816 9.61 9.18 9.61a10.65 10.65 0 0 0 6.289-1.806v-4.34H79.64v-5.753h13.152v13.152a19.63 19.63 0 0 1-12.934 4.805c-9.433 0-15.921-6.645-15.921-15.582zM34.156 86.699h27.43v4.57h-27.43zm0 0"/></mask></defs><g fill="currentColor" mask="url(#a)"><path d="m115.055 23.676 7.46 47.906-13.788 8.023zm0 0"/><path d="M115.055 23.676 73.156 5.484l-11.691 9.704zm0 0"/><path d="M84.566 122.516 19.555 70.719 6.496 109.984zm0 0"/><path d="M93.621 89.781 5.484 59.5l79.082 63.016zm0 0"/><path d="M5.484 6.316V59.5l101.559 34.902 8.012-70.726zm0 0"/></g></svg>