<svg fill="none" height="18" viewBox="0 0 18 18" width="18" xmlns="http://www.w3.org/2000/svg" xmlns:xlink="http://www.w3.org/1999/xlink"><linearGradient id="a" gradientUnits="userSpaceOnUse" x1="2.412" x2="15.588" y1="6.639" y2="6.639"><stop offset="0" stop-color="#5ea0ef"/><stop offset="1" stop-color="#83b9f9"/></linearGradient><clipPath id="b"><path d="m12 11h4v4h-4z"/></clipPath><path d="m.876 3.504c.292-.924 1.065-1.504 1.908-1.504h12.34c.862 0 1.647.607 1.934 1.557 1.285 4.246 1.224 7.043.01 10.913-.293.935-1.073 1.53-1.926 1.53h-12.274c-.885 0-1.685-.64-1.96-1.621-1.182-4.216-1.228-7.081-.032-10.875" fill="#0078d4"/><g clip-path="url(#b)"><path d="m14 14.889a1.889 1.889 0 1 0 0-3.778 1.889 1.889 0 0 0 0 3.778" fill="#fff"/><path clip-rule="evenodd" d="m15.402 11.734a2 2 0 0 0 -.28-.254l-1.219 1.4.269.27z" fill="#00188f" fill-rule="evenodd"/></g><g fill="#fff"><circle cx="8.544" cy="13.544" r=".544"/><circle cx="6.544" cy="13.544" r=".544"/><rect height="1" rx=".5" width="3" x="2.041" y="13.134"/></g><path d="m2.412 4.041c0-.205.167-.37.371-.37h12.433c.205 0 .372.165.372.37v5.196a.37.37 0 0 1 -.371.371h-12.434a.37.37 0 0 1 -.37-.37z" fill="url(#a)"/></svg>