<svg height="64" viewBox="0 0 64 64" width="64" xmlns="http://www.w3.org/2000/svg"><g fill="none" fill-rule="evenodd"><path d="m0 0h64v64h-64z" fill="#232f3e"/><path d="m28.708 38c0 1.103-.897 2-2 2s-2-.897-2-2 .897-2 2-2 2 .897 2 2m5.946-26a1 1 0 0 0 -.98.801l-3.69 18.199h-25.593l-2.43-12.151-1.961.393 2.591 12.954a1 1 0 0 0 .98.804h22.604l-.509 1.155c-1.699.462-2.958 2.002-2.958 3.845 0 2.206 1.794 4 4 4s4-1.794 4-4c0-1.81-1.216-3.326-2.869-3.817l.521-1.183h2.442a1 1 0 0 0 .98-.801l3.69-18.199h7.236v-2zm-24.946 28c-1.103 0-2-.897-2-2s.897-2 2-2 2 .897 2 2-.897 2-2 2m0-6c-2.206 0-4 1.794-4 4s1.794 4 4 4 4-1.794 4-4-1.794-4-4-4m0-31.848 4.984 2.848-4.984 2.848-4.984-2.848zm14 0 4.984 2.848-4.984 2.848-4.984-2.848zm1 13.125v-5.697l5-2.857v5.697zm-7 11.253v-4.95l5-2.857v5.623zm-7-7.807 5 2.857v4.95l-5-2.184zm5-6.303-5 2.857v-5.697l5-2.857zm7 2.857-5-2.857v-5.697l5 2.857zm-6 4.571-4.984-2.848 4.984-2.848 4.984 2.848zm-13-13.125 5 2.857v5.535l-5-3.387zm-1.561 6.363 6.561 4.444v7.47c0 .397.235.757.6.917l7 3.058a1 1 0 0 0 .8 0l7-3.058c.365-.16.6-.52.6-.917v-7.42l6.496-3.712a1 1 0 0 0 .504-.868v-8a1 1 0 0 0 -.504-.868l-7-4a1 1 0 0 0 -.992 0l-6.504 3.716-6.504-3.716a1 1 0 0 0 -.992 0l-7 4a1 1 0 0 0 -.504.868v7.258c0 .332.164.642.439.828" fill="#fff" transform="translate(11.3 11)"/></g></svg>