<svg xmlns="http://www.w3.org/2000/svg" width="18" height="18" viewBox="0 0 18 18"><path fill="currentColor" d="m9.243 3.927 4.372 2.515 3.048-1.76A8.792 8.792 0 0 0 2.735 2.824a10.02 10.02 0 0 1 6.508 1.103"/><path fill="currentColor" d="m13.558 6.442-.069 6.034 3.168.851A8.792 8.792 0 0 0 11.415.536a10.44 10.44 0 0 1 2.143 5.906"/><path fill="currentColor" d="M13.552 11.646 9 14.276l.071 3.5a8.8 8.8 0 0 0 8.764-8.8 8.4 8.4 0 0 0-.288-2.09 9.57 9.57 0 0 1-3.995 4.76"/><path fill="currentColor" d="m9 14.276-4.555-2.63-3.02 1.812a8.78 8.78 0 0 0 13.672 1.881A9.9 9.9 0 0 1 9 14.276"/><path fill="currentColor" d="m4.442 11.646.069-6.237-3.117-.821A8.74 8.74 0 0 0 .2 9a8.85 8.85 0 0 0 6.535 8.5 10.2 10.2 0 0 1-2.293-5.854"/><path fill="currentColor" d="M13.552 11.646v-5.26L8.997 3.757 4.442 6.386v5.26l4.555 2.63z"/><path fill="currentColor" d="M9.003 9.071v5.205l-4.561-2.63V6.404z"/><path fill="currentColor" d="M8.997 9.071v5.205l4.561-2.63V6.404z"/></svg>