<svg fill="none" height="18" viewBox="0 0 18 18" width="18" xmlns="http://www.w3.org/2000/svg" xmlns:xlink="http://www.w3.org/1999/xlink"><linearGradient id="a" gradientUnits="userSpaceOnUse" x1="9" x2="9" y1="17.951" y2=".049"><stop offset=".09" stop-color="#32bedd"/><stop offset="1" stop-color="#50e6ff"/></linearGradient><linearGradient id="b" gradientUnits="userSpaceOnUse" x1="9.083" x2="9.083" y1="0" y2="18.084"><stop offset="0" stop-color="#c3f1ff"/><stop offset=".999" stop-color="#9cebff"/></linearGradient><path d="m5.312 5.373-.389-.595a6.4 6.4 0 0 1 1.375-.672l.424.804.59-.311-.363-.689a8.3 8.3 0 0 1 1.718-.237v.771h.666v-.771a8.3 8.3 0 0 1 1.667.224l-.319.684.605.282.361-.776a6.4 6.4 0 0 1 1.49.731l-.429.527.517.421.442-.542c.277.242.473.472.59.654l.005.006-.43.585.537.395.703-.957-.255-.393c-.2-.307-.534-.671-.994-1.024a7 7 0 0 0 -2.258-1.13 9 9 0 0 0 -2.565-.36c-2.158 0-3.734.686-4.731 1.42-.509.375-.873.767-1.086 1.094l-.255.393.703.957.538-.395-.43-.585.003-.006c.126-.194.34-.442.645-.702l.367.562z" fill="url(#a)"/><path clip-rule="evenodd" d="m2 2h14v8.667h-6.492l-2.9-4.19-.549.38 2.638 3.81h-6.697z" fill="url(#a)" fill-rule="evenodd"/><path clip-rule="evenodd" d="m2 0a2 2 0 0 0 -2 2v14a2 2 0 0 0 2 2h14a2 2 0 0 0 2-2v-14a2 2 0 0 0 -2-2z" fill="url(#a)" fill-rule="evenodd"/><g fill="url(#b)"><path d="m5.312 5.373-.389-.595a6.4 6.4 0 0 1 1.375-.672l.424.804.59-.311-.363-.689a8.3 8.3 0 0 1 1.718-.237v.771h.666v-.771a8.3 8.3 0 0 1 1.667.224l-.319.684.605.282.361-.776a6.4 6.4 0 0 1 1.49.731l-.429.527.517.421.442-.542c.277.242.473.472.59.654l.005.006-.43.585.537.395.703-.957-.255-.393c-.2-.307-.534-.671-.994-1.024a7 7 0 0 0 -2.258-1.13 9 9 0 0 0 -2.565-.36c-2.158 0-3.734.686-4.731 1.42-.509.375-.873.767-1.086 1.094l-.255.393.703.957.538-.395-.43-.585.003-.006c.126-.194.34-.442.645-.702l.367.562z"/><path clip-rule="evenodd" d="m1.333 1.333h15.334v10h-15.334z" fill-rule="evenodd"/><path d="m1.667 16.333h1.666v-.666h-1.666z"/><path d="m16.333 16.333h-1.666v-.666h1.666z"/><path clip-rule="evenodd" d="m5.312 5.373-.389-.595a6.4 6.4 0 0 1 1.375-.672l.424.804.59-.311-.363-.689a8.3 8.3 0 0 1 1.718-.237v.771h.666v-.771a8.3 8.3 0 0 1 1.667.224l-.319.684.605.282.361-.776a6.4 6.4 0 0 1 1.49.731l-.429.527.517.421.442-.542c.277.242.473.472.59.654l.005.006-.43.585.537.395.703-.957-.255-.393c-.2-.307-.534-.671-.994-1.024a7 7 0 0 0 -2.258-1.13 9 9 0 0 0 -2.565-.36c-2.158 0-3.734.686-4.731 1.42-.509.375-.873.767-1.086 1.094l-.255.393.703.957.538-.395-.43-.585.003-.006c.126-.194.34-.442.645-.702l.367.562z" fill-rule="evenodd"/></g><path d="m5.312 5.373-.389-.595a6.4 6.4 0 0 1 1.375-.672l.424.804.59-.311-.363-.689a8.3 8.3 0 0 1 1.718-.237v.771h.666v-.771a8.3 8.3 0 0 1 1.667.224l-.319.684.605.282.361-.776a6.4 6.4 0 0 1 1.49.731l-.429.527.517.421.442-.542c.277.242.473.472.59.654l.005.006-.43.585.537.395.703-.957-.255-.393c-.2-.307-.534-.671-.994-1.024a7 7 0 0 0 -2.258-1.13 9 9 0 0 0 -2.565-.36c-2.158 0-3.734.686-4.731 1.42-.509.375-.873.767-1.086 1.094l-.255.393.703.957.538-.395-.43-.585.003-.006c.126-.194.34-.442.645-.702l.367.562zm-3.645 10.96h1.666v-.666h-1.666zm14.666 0h-1.666v-.666h1.666z" fill="#005ba1"/><path clip-rule="evenodd" d="m16.667 1.333h-15.334v10h15.334zm-.667.667h-14v8.667h14z" fill="#005ba1" fill-rule="evenodd"/><path d="m6.377 6.02a.56.56 0 0 0 -.316.28.44.44 0 0 0 .006.388l2.39 4.635 1.09-.41-2.393-4.639a.55.55 0 0 0 -.325-.264.7.7 0 0 0 -.452.01" fill="#0078d4"/><path d="m10.882 11.842a1.602 1.602 0 1 0 -3.201.122 1.602 1.602 0 0 0 3.201-.122" fill="#767676"/></svg>