<svg height="24" width="24" xmlns="http://www.w3.org/2000/svg"><g fill="#4285f4"><path d="m19.45 18.47a1.12 1.12 0 1 1 1.15-1.09 1.13 1.13 0 0 1 -1.15 1.09m0 1a2.08 2.08 0 1 0 -1.45-.63 2.08 2.08 0 0 0 1.47.61z" fill-rule="evenodd"/><path d="m19.46 4.33a2.07 2.07 0 0 0 -1.46 3.54 2 2 0 0 0 1.47.6 2.08 2.08 0 1 0 0-4.15zm.8 2.86a1.08 1.08 0 0 1 -.81.31 1.11 1.11 0 1 1 1.15-1.08 1.14 1.14 0 0 1 -.34.77m-4.36 2.81h-.05v.95h.07a1.11 1.11 0 0 1 0 2.22h-.07v1h.07a2.08 2.08 0 1 0 0-4.15zm-4.58-8c-4.89 0-8.86 2-8.86 4.4s4 4.41 8.86 4.41h.1v-8.81z"/><path d="m11.32 12.52a14 14 0 0 1 -6.27-1.25 4.45 4.45 0 0 1 -2.44-2.38h-.15v3.11c0 2.43 4 4.4 8.86 4.4h.1v-3.9z"/><path d="m11.32 18.1a14 14 0 0 1 -6.27-1.24 4.45 4.45 0 0 1 -2.44-2.38h-.15v3.12c0 2.43 4 4.4 8.86 4.4h.1v-3.9z"/></g><path d="m13.64 2h2.22v20h-2.22z" fill="#669df6"/></svg>