<svg height="64" viewBox="0 0 64 64" width="64" xmlns="http://www.w3.org/2000/svg"><g fill="none" fill-rule="evenodd"><path d="m0 0h64v64h-64z" fill="#ed7100"/><path d="m54 31.43h-7.4l3.31-3.31-1.42-1.42-5.736 5.737 5.736 5.738 1.421-1.422-3.31-3.31h7.399zm-39.91-3.31 3.31 3.31h-7.4v2.012h7.4l-3.31 3.31 1.421 1.422 5.736-5.738-5.736-5.737zm11.767 11.354h12.061v-12.065h-12.061zm14.071-13.07h2.01v2.01h-2.01v2.011h2.01v2.011h-2.01v2.01h2.01v2.012h-2.01v2.01h2.01v2.011h-2.01v-.695c0 .938-.763 1.7-1.698 1.7h.693v2.011h-2.01v-2.01h-2.01v2.01h-2.01v-2.01h-2.01v2.01h-2.01v-2.01h-2.011v2.01h-2.01v-2.01h.693a1.7 1.7 0 0 1 -1.699-1.7v.694h-2.01v-2.01h2.01v-2.011h-2.01v-2.011h2.01v-2.01h-2.01v-2.012h2.01v-2.01h-2.01v-2.011h2.01v.695c0-.938.763-1.7 1.7-1.7h-.694v-2.011h2.01v2.01h2.01v-2.01h2.01v2.01h2.01v-2.01h2.01v2.01h2.011v-2.01h2.01v2.01h-.693c.935 0 1.698.763 1.698 1.7zm-7.035 23.748v-5.652h-2.01v5.652l-3.601-3.602-1.421 1.422 6.026 6.028 6.027-6.028-1.421-1.422zm-5.688-32.765-1.267-1.562 5.95-4.825 5.949 4.825-1.267 1.562-3.677-2.983v6.973h-2.01v-6.973z" fill="#fff"/></g></svg>