<svg height="24" width="24" xmlns="http://www.w3.org/2000/svg"><path d="m11 2v20l10-8z" fill="#669df6"/><path d="m11 2-.98 1.17 8.85 10.61-8.8 7.05.94 1.17 9.99-8.01z" fill="#4285f4"/><path d="m11 2-4 4.75a3.1 3.1 0 0 1 1.11 1l2.89-3.41z" fill="#669df6"/><path d="m8.35 18a2.93 2.93 0 0 1 -.92 1.19l3.57 2.81v-1.92z" fill="#669df6"/><g fill="#aecbfa"><path d="m6 10a1 1 0 1 1 1-1 1 1 0 0 1 -1 1m0-4a3 3 0 1 0 3 3 3 3 0 0 0 -3-3"/><path d="m6 18a1 1 0 1 1 1-1 1 1 0 0 1 -1 1m0-4a3 3 0 1 0 3 3 3 3 0 0 0 -3-3"/></g></svg>