<svg height="64" viewBox="0 0 64 64" width="64" xmlns="http://www.w3.org/2000/svg"><g fill="none" fill-rule="evenodd"><path d="m0 0h64v64h-64z" fill="#7aa116"/><path d="m33.844 14.562-5.575 7.724h2.514l4.194-6.125zm7.506 7.724h2.65l-6.591-9.375 6.002-8.368h-2.479l-4.744 6.772-1.269 1.759zm-6.215-12.473-3.691-5.27h-2.618l4.988 7.029zm-16.992 1.428q-2.405-.936-3.528-2.232-1.125-1.296-1.125-3.201 0-2.59 1.858-4.2 1.858-1.608 4.888-1.608 1.373 0 2.887.328a15 15 0 0 1 2.858.921v1.593q-3.185-1.125-5.653-1.125-2.404 0-3.684 1.047t-1.28 2.982q0 1.093.39 1.764.391.672 1.28 1.218.89.546 2.545 1.17l3.341 1.281q2.249.874 3.279 2.139t1.031 3.169q0 2.78-2.045 4.497t-5.387 1.717q-3.466 0-6.183-1.311v-1.593q3.279 1.187 6.027 1.187 2.591 0 4.138-1.218 1.545-1.218 1.544-3.31 0-1.28-.842-2.186-.843-.906-2.717-1.624zm-18.143 10.929v-21.639h12.147v1.655h-10.305v8.274h8.713v1.656h-8.713v10.054z" fill="#fff" transform="translate(10 21.7)"/></g></svg>