<svg xmlns="http://www.w3.org/2000/svg" width="64" height="64" viewBox="0 0 64 64"><title>Icon-Architecture/48/Arch_Amazon-FSx_48</title><g id="Icon-Architecture/48/Arch_Amazon-FSx_48" fill="none" fill-rule="evenodd" stroke="none" stroke-width="1"><g id="Icon-Architecture-BG/48/Storage" fill="#7aa116"><path id="Rectangle" d="M0 0h64v64H0z"/></g><g id="Icon-Service/48/Amazon-FSx_48" fill="#fff" transform="translate(10 21.7)"><path id="Amazon-FSx_48_Squid" d="m33.844 14.562-5.575 7.724h2.514l4.194-6.125zm7.506 7.724H44l-6.591-9.375 6.002-8.368h-2.479l-4.744 6.772-1.269 1.759zM35.135 9.813l-3.691-5.27h-2.618l4.988 7.029zm-16.992 1.428q-2.405-.936-3.528-2.232-1.125-1.296-1.125-3.201 0-2.59 1.858-4.2Q17.206 0 20.236 0q1.373 0 2.887.328a15 15 0 0 1 2.858.921v1.593q-3.185-1.125-5.653-1.125-2.404 0-3.684 1.047t-1.28 2.982q0 1.093.39 1.764.391.672 1.28 1.218.89.546 2.545 1.17l3.341 1.281q2.249.874 3.279 2.139t1.031 3.169q0 2.78-2.045 4.497t-5.387 1.717q-3.466 0-6.183-1.311v-1.593q3.279 1.187 6.027 1.187 2.591 0 4.138-1.218 1.545-1.218 1.544-3.31 0-1.28-.842-2.186-.843-.906-2.717-1.624zM0 22.17V.531h12.147v1.655H1.842v8.274h8.713v1.656H1.842V22.17z"/></g></g></svg>