<svg height="24" width="24" xmlns="http://www.w3.org/2000/svg"><path d="m2.81 9.37 2.38-4.24h3.06v1.87h-1.99l-1.32 2.34.81 1.36-1.59.93z" fill="#4285f4"/><path d="m14.5 13.07 2.5-1.44 2.5 1.44v2.89l-2.5 1.44-2.5-1.44zm-10 0 2.5-1.44 2.5 1.44v2.89l-2.5 1.44-2.5-1.44zm5-8.48 2.5-1.44 2.5 1.44v2.88l-2.5 1.45-2.5-1.45z" fill="#aecbfa"/><path d="m17 11.63 2.5 1.44v2.89l-2.5 1.44zm-10 0 2.5 1.44v2.89l-2.5 1.44zm5-8.48 2.5 1.44v2.88l-2.5 1.45zm6.25 7.55.81-1.35-1.32-2.35h-1.99v-1.87h3.06l2.38 4.24-1.35 2.26zm-8.64 10.05-1.48-2.46 1.6-.93.93 1.52h2.65l.94-1.52 1.6.92-1.49 2.47z" fill="#4285f4"/></svg>