<svg height="18" viewBox="0 0 18 18" width="18" xmlns="http://www.w3.org/2000/svg" xmlns:xlink="http://www.w3.org/1999/xlink"><linearGradient id="a" gradientUnits="userSpaceOnUse" x1="9" x2="9" y1="15.379" y2="2.798"><stop offset="0" stop-color="#0078d4"/><stop offset=".156" stop-color="#1380da"/><stop offset=".528" stop-color="#3c91e5"/><stop offset=".822" stop-color="#559cec"/><stop offset="1" stop-color="#5ea0ef"/></linearGradient><linearGradient id="b" gradientTransform="matrix(1 0 0 -1 427.126 -205.758)" gradientUnits="userSpaceOnUse" x1="-416.202" x2="-416.202" y1="-210.743" y2="-217.833"><stop offset="0" stop-color="#c3f1ff"/><stop offset=".107" stop-color="#beeffe"/><stop offset=".765" stop-color="#32bedd"/></linearGradient><path d="m17.875 11.439a3.99 3.99 0 0 0 -3.461-3.834 5.026 5.026 0 0 0 -5.177-4.805 5.16 5.16 0 0 0 -4.928 3.359 4.76 4.76 0 0 0 -4.184 4.579 4.83 4.83 0 0 0 5 4.641q.222 0 .44-.019h8.094a.8.8 0 0 0 .213-.032 4.036 4.036 0 0 0 4.003-3.889" fill="url(#a)"/><path d="m8.371 9.669 2.3-4.522a.294.294 0 0 1 .522 0l2.29 4.32a1.57 1.57 0 0 1 .232.9c0 .948-1.248 1.716-2.788 1.716s-2.788-.768-2.788-1.716a1.18 1.18 0 0 1 .232-.698" fill="url(#b)"/><path d="m8.371 9.707c-.189.381-.235.445-.235.691a1 1 0 0 0 .012.146v.056h.013c.14.733 1.032 1.325 2.189 1.475v-.148c-1.1-.147-1.945-.7-2.05-1.385.045-.687.879-1.426 2.05-1.591v-.087l-.023.013-.1-.056a2.93 2.93 0 0 0 -1.686.879l.016-.031.712-1.4-.128-.074-.77 1.518z" fill="#fff"/><g fill="#9cebff"><path d="m10.346 8.809v3.505l-3.029 1.761v-3.51z" opacity=".8"/><path d="m10.346 8.801-3.029 1.76-3.029-1.761 3.029-1.761z" opacity=".85"/><path d="m7.317 10.564v3.506l-3.029-1.761v-3.505z"/></g><path d="m7.317 14.16-3.1-1.8v-3.593l3.1-1.8 3.1 1.8v3.589zm-2.956-1.888 2.956 1.718 2.955-1.718v-3.42l-2.955-1.719-2.956 1.718z" fill="#fff"/><path d="m13.712 10.359a1.57 1.57 0 0 0 -.232-.9l-2.29-4.32a.294.294 0 0 0 -.522 0l-1.527 3.012.128.074 1.531-3.012a.14.14 0 0 1 .131-.081.14.14 0 0 1 .13.078l2.29 4.32v.012a1.2 1.2 0 0 1 .18.464 3.3 3.3 0 0 0 -2.7-1.276 3.5 3.5 0 0 0 -.608.053l.1.055.023-.013v.087a3.5 3.5 0 0 1 .489-.035c1.473 0 2.663.879 2.718 1.631-.127.8-1.257 1.42-2.629 1.42a4 4 0 0 1 -.578-.04v.149a5 5 0 0 0 .578.038c1.429 0 2.605-.661 2.767-1.514h.014q.001-.026-.005-.051a1 1 0 0 0 .012-.151" fill="#fff"/></svg>