<svg xmlns="http://www.w3.org/2000/svg" width="18" height="18" viewBox="0 0 18 18"><circle cx="16.229" cy="11.106" r="1.646" fill="currentColor" transform="rotate(-7.018 16.228 11.103)"/><path fill="currentColor" d="m12.043 6.736.046.048c.031.032.08.033.115.006l.455-.371.844-1.333a.08.08 0 0 0-.011-.104l-.126-.13a.084.084 0 0 0-.108-.012l-1.299.836-.37.464a.084.084 0 0 0 .005.111l.048.05-2.714 2.705-.54-.579-.621.622a1.1 1.1 0 0 1-.3.872.96.96 0 0 1-.839.29l-2.638 2.61a.17.17 0 0 0-.004.236l1.248 1.342a.17.17 0 0 0 .24.008l.004-.004 2.61-2.621a1.04 1.04 0 0 1 .321-.872.96.96 0 0 1 .839-.29l.621-.622-.54-.575 2.714-2.688-.002.002z"/><path fill="currentColor" d="m13.431 12.201-.685-.677-4.368-4.353-.217-.226a2.4 2.4 0 0 0-.6-2.337 2.21 2.21 0 0 0-2.008-.606.09.09 0 0 0-.07.106.1.1 0 0 0 .026.046l1.144 1.12a.1.1 0 0 1 .025.085l-.277 1.178a.09.09 0 0 1-.063.065l-1.141.338a.1.1 0 0 1-.09-.022L3.988 5.804a.09.09 0 0 0-.153.049 2.36 2.36 0 0 0 .656 2.042 2.18 2.18 0 0 0 2.192.543l.043.042.245.245 5.007 5.052c.39.402 1.031.413 1.435.023l.048-.05c.196-.212.302-.493.288-.782a1.16 1.16 0 0 0-.316-.771l-.004.004z"/><circle cx="9" cy="2.02" r="1.646" fill="currentColor"/><path fill="currentColor" d="m2.975 12.228.035-.038.056-.067.037-.049q.025-.032.046-.066a2 2 0 0 0 .085-.146l.049-.102.021-.054.032-.087.017-.057q.013-.045.023-.091l.012-.057.016-.102.006-.05q.008-.076.008-.156a1.646 1.646 0 0 0-1.835-1.634l-.01.002q-.09.011-.176.031a1.64 1.64 0 0 0-.966.649v.001q-.046.064-.085.133l-.005.008a2 2 0 0 0-.067.133l-.008.017a2 2 0 0 0-.05.13l-.01.028a2 2 0 0 0-.034.126l-.01.038a1 1 0 0 0-.02.127q-.004.02-.006.041a1.6 1.6 0 0 0-.001.329l.007.051a1 1 0 0 0 .016.102l.013.059a1 1 0 0 0 .042.15 2 2 0 0 0 .089.215l.031.062.02.032q.05.085.109.163l.025.034q.032.04.066.077l.026.028q.037.039.076.075l.021.019q.043.039.089.075l.006.004a1.64 1.64 0 0 0 1.569.242l.017-.006q.056-.02.11-.046l.016-.008a1.7 1.7 0 0 0 .404-.273l.025-.023q.035-.033.066-.068z"/><path fill="currentColor" d="M6.76 1.97c.007-.304.074-.592.19-.855C3.334 2.028.646 5.296.619 9.186a2.2 2.2 0 0 1 .779-.289c.147-3.265 2.36-6.001 5.361-6.928zm8.727 11.251c-1.341 2.178-3.746 3.633-6.486 3.633s-5.145-1.456-6.486-3.634a2.2 2.2 0 0 1-.744.129l-.077-.004c1.439 2.552 4.174 4.281 7.307 4.281s5.868-1.729 7.307-4.281c-.027 0-.053.004-.08.004a2.2 2.2 0 0 1-.742-.129zM11.05 1.114c.117.263.183.551.19.855 3.002.926 5.217 3.663 5.364 6.929.281.048.544.148.779.29-.026-3.891-2.715-7.161-6.333-8.074"/></svg>