<svg xmlns="http://www.w3.org/2000/svg" width="18" height="18" viewBox="0 0 18 18"><defs><mask id="a"><path fill="#fff" d="M0 0h18v18H0z"/><path d="M11.882 4.117H7.9a.5.5 0 0 1 0-.99h3.987a.5.5 0 0 1 0 .99zm2.97 1.394a.5.5 0 0 0-.5-.5H7.9a.5.5 0 0 0 0 .99h6.462a.5.5 0 0 0 .49-.49"/></mask></defs><g fill="currentColor" mask="url(#a)"><path d="M10.842 17.124c-1.531-.245-1.531-1.348-1.531-3.063H6.248c0 1.776 0 2.879-1.531 3.063a.9.9 0 0 0-.766.876h7.657a.9.9 0 0 0-.766-.876"/><rect width="15.482" height="10.337" y="3.823" rx=".521"/><path d="M5.217.649v7.716A.69.69 0 0 0 5.909 9h4.679a.2.2 0 0 1 .071.023l.949.633 1.044.692.376.246a.24.24 0 0 0 .117.047.26.26 0 0 0 .281-.222v-1.3a.11.11 0 0 1 .117-.106H17.3a.71.71 0 0 0 .7-.645V.649A.72.72 0 0 0 17.3 0H5.909a.71.71 0 0 0-.692.649"/></g></svg>