<svg height="18" viewBox="0 0 18 18" width="18" xmlns="http://www.w3.org/2000/svg" xmlns:xlink="http://www.w3.org/1999/xlink"><linearGradient id="a" gradientTransform="matrix(1 0 0 -1 -72 701.516)" gradientUnits="userSpaceOnUse" x1="79.78" x2="79.78" y1="683.519" y2="687.516"><stop offset=".15" stop-color="#ccc"/><stop offset="1" stop-color="#707070"/></linearGradient><linearGradient id="b" gradientTransform="matrix(1 0 0 -1 -72 701.516)" gradientUnits="userSpaceOnUse" x1="79.741" x2="79.741" y1="687.34" y2="697.693"><stop offset="0" stop-color="#0078d4"/><stop offset=".82" stop-color="#5ea0ef"/></linearGradient><linearGradient id="c" gradientUnits="userSpaceOnUse" x1="11.608" x2="11.608" y1="-.318" y2="10.689"><stop offset=".212" stop-color="#ffb34d"/><stop offset="1" stop-color="#faa21d"/></linearGradient><path d="m10.842 17.124c-1.531-.245-1.531-1.348-1.531-3.063h-3.063c0 1.776 0 2.879-1.531 3.063a.9.9 0 0 0 -.766.876h7.657a.9.9 0 0 0 -.766-.876" fill="url(#a)"/><rect fill="url(#b)" height="10.337" rx=".521" width="15.482" y="3.823"/><path d="m5.217.649v7.716a.69.69 0 0 0 .692.635h4.679a.2.2 0 0 1 .071.023l.949.633 1.044.692.376.246a.24.24 0 0 0 .117.047.26.26 0 0 0 .281-.222v-1.3a.11.11 0 0 1 .117-.106h3.757a.71.71 0 0 0 .7-.645v-7.719a.72.72 0 0 0 -.7-.649h-11.391a.71.71 0 0 0 -.692.649" fill="url(#c)"/><path d="m11.882 4.117h-3.982a.5.5 0 0 1 0-.99h3.987a.5.5 0 0 1 0 .99zm2.97 1.394a.5.5 0 0 0 -.5-.5h-6.452a.5.5 0 0 0 0 .99h6.462a.5.5 0 0 0 .49-.49" fill="#fff"/></svg>