<svg xmlns="http://www.w3.org/2000/svg" width="18" height="18" viewBox="0 0 18 18"><defs><mask id="a"><path fill="#fff" d="M0 0h18v18H0z"/><rect width="15.9" height="10.5" x="1.05" y="1.88" rx=".3"/></mask></defs><g fill="currentColor" mask="url(#a)"><rect width="18" height="12.75" y=".76" rx=".6"/></g><path fill="currentColor" d="M14.94 9.34a.29.29 0 0 1-.28.29h-6.5a.29.29 0 0 1 0-.58h6.5a.28.28 0 0 1 .28.29m0-1.8a.29.29 0 0 1-.28.29h-6.5a.29.29 0 0 1 0-.58h6.5a.28.28 0 0 1 .28.29m0-2.61a.28.28 0 0 1-.28.29H3.77a.29.29 0 1 1 0-.58h10.89a.28.28 0 0 1 .28.29"/><path fill="currentColor" d="M5.13 12.69a2.52 2.52 0 0 1-3.37 0l-.21 4.19a.33.33 0 0 0 .57.25l1.3-1.32 1.31 1.33a.33.33 0 0 0 .57-.24z"/><ellipse cx="3.48" cy="10.54" fill="currentColor" rx="3.01" ry="3.02"/><circle cx="3.48" cy="10.54" r="2.29" fill="currentColor"/></svg>