<svg height="18" viewBox="0 0 18 18" width="18" xmlns="http://www.w3.org/2000/svg" xmlns:xlink="http://www.w3.org/1999/xlink"><linearGradient id="a" gradientUnits="userSpaceOnUse" x1="9" x2="9" y1="13.51" y2=".76"><stop offset="0" stop-color="#f78d1e"/><stop offset=".44" stop-color="#f8911e"/><stop offset=".85" stop-color="#f99c1d"/><stop offset="1" stop-color="#faa21d"/></linearGradient><rect fill="url(#a)" height="12.75" rx=".6" width="18" y=".76"/><rect fill="#fff" height="10.5" rx=".3" width="15.9" x="1.05" y="1.88"/><g fill="#d15900"><path d="m14.94 9.34a.29.29 0 0 1 -.28.29h-6.5a.29.29 0 0 1 0-.58h6.5a.28.28 0 0 1 .28.29"/><path d="m14.94 7.54a.29.29 0 0 1 -.28.29h-6.5a.29.29 0 0 1 0-.58h6.5a.28.28 0 0 1 .28.29"/><path d="m14.94 4.93a.28.28 0 0 1 -.28.29h-10.89a.29.29 0 1 1 0-.58h10.89a.28.28 0 0 1 .28.29"/></g><path d="m5.13 12.69a2.52 2.52 0 0 1 -3.37 0l-.21 4.19a.33.33 0 0 0 .57.25l1.3-1.32 1.31 1.33a.33.33 0 0 0 .57-.24z" fill="#b31b1b"/><ellipse cx="3.48" cy="10.54" fill="#e62323" rx="3.01" ry="3.02"/><circle cx="3.48" cy="10.54" fill="#ffb34d" r="2.29"/></svg>