<svg xmlns="http://www.w3.org/2000/svg" viewBox="0 0 135 135"><path fill="currentColor" d="m35.24 143.418-3.436-31.38 7.98-.874-.846-7.73 7.73-.846-.82-7.479-7.71.844-.874-7.98-7.73.847-5.106-46.627 7.98-.874-.844-7.71 7.71-.845-.876-7.999 46.646-5.108.874 7.98 15.189-1.664 1.693 15.459-7.73.846 10.639 93.578Z"/><path fill="currentColor" d="m95.31 42.506-15.67 1.716-.875-7.98-30.898 3.384 1.693 15.459-8 .876 3.387 30.917 7.729-.846.844 7.71 15.71-1.72.903 8.25 15.209-1.666-.845-7.71-7.73.846-.903-8.25 15.71-1.72 1.747 15.96 7.98-.874z"/><path fill="currentColor" d="m79.361 43.999-30.648 3.356.82 7.48-8 .875L44.1 79.15l7.73-.846.873 7.98 38.937-4.265.844 7.71 7.941-.87-5.123-46.605z"/><path fill="currentColor" d="m57.02 54.268 8.25-.904 1.75 15.98-8.25.903zm23.457-2.57 8.25-.903 1.75 15.98-8.25.903z"/><path fill="currentColor" d="m67.12 69.196 23.439-2.567.819 7.479-23.439 2.567zm12.492-25.225 15.478-1.695.844 7.71-15.478 1.696z"/><path fill="currentColor" d="m34.399 135.727 15.458-1.693.82 7.479-15.46 1.693z"/><path fill="currentColor" d="m66.561 139.968-1.676-15.304 24.193-2.63 1.682 15.362z"/><path fill="currentColor" d="m71.914 115.643 8.019-.879.897 8.192-8.019.879zm10.002 15.095 8.019-.879.82 7.498-8.018.879z"/><path fill="currentColor" d="m73.782 131.628 8.115-.888.821 7.498-8.115.888z"/><path fill="currentColor" d="m64.868 124.685 8.018-.878.866 7.903-8.019.878z"/></svg>