<svg xmlns="http://www.w3.org/2000/svg" xmlns:xlink="http://www.w3.org/1999/xlink" width="18" height="18" viewBox="0 0 18 18">
  <defs>
    <mask id="ko">
      <rect width="18" height="18" fill="white"/>
      <path fill="black" d="M7.609 8.446c0-.985 2.91-1.363 5-1.389a2.92 2.92 0 0 0-2.264-1.769A3.55 3.55 0 0 0 6.693 1.9a3.64 3.64 0 0 0-3.479 2.367A3.36 3.36 0 0 0 .26 7.5a3.41 3.41 0 0 0 3.529 3.276c.1 0 .208 0 .31-.013h3.51z"/>
      <path fill="black" d="M8.028 8.446v2.317h1.785a.5.5 0 0 0 .151-.023A2.85 2.85 0 0 0 12.791 8a2.5 2.5 0 0 0-.055-.519c-3.088.009-4.708.63-4.708.965"/>
      <path fill="black" d="M12.847 9.706c-2.665 0-4.827-.5-4.874-1.127v2.292c0 .634 2.184 1.148 4.879 1.148 2.638 0 4.785-.493 4.874-1.109V8.558c-.001.634-2.185 1.148-4.879 1.148"/>
      <path fill="black" d="m12.854 12.578-1.931 1.88c-.2.2-.381.129-.381-.2v-.833a.24.24 0 0 0-.245-.241c-1.245.028-4.7-.322-4.819-5.046a.24.24 0 0 1 .241-.249h1.222a.24.24 0 0 1 .24.263 2.9 2.9 0 0 0 3.118 3.5.24.24 0 0 0 .243-.241v-.772c0-.393.118-.458.381-.2l1.931 1.741a.24.24 0 0 1 0 .398"/>
      <circle fill="black" cx="12.861" cy="12.644" r="0"/>
      <circle fill="black" cx="12.847" cy="8.584" r="0"/>
    </mask>
  </defs>
  <g>
    <path fill="currentColor" mask="url(#ko)" d="M17.74 14.9v-2.26c0 .634-2.184 1.148-4.879 1.148s-4.878-.514-4.878-1.148v2.313c0 .634 2.184 1.148 4.878 1.148 2.638 0 4.786-.493 4.875-1.109V14.9z"/>
  </g>
</svg>