<svg height="18" viewBox="0 0 18 18" width="18" xmlns="http://www.w3.org/2000/svg" xmlns:xlink="http://www.w3.org/1999/xlink"><linearGradient id="a" gradientUnits="userSpaceOnUse" x1="9" x2="9" y1="2.95" y2="6.34"><stop offset="0" stop-color="#c69aeb"/><stop offset="1" stop-color="#6f4bb2"/></linearGradient><linearGradient id="b" gradientUnits="userSpaceOnUse" x1="8.99" x2="8.99" y1="6.76" y2="9.22"><stop offset="0" stop-color="#54aef0"/><stop offset="1" stop-color="#1988d9"/></linearGradient><path d="m13.69 11.22-1.5-3.3-3.19-3.72-3.21 3.71-1.51 3.29.53.25 1.23-2.68 1.21 2.68.54-.24-1.4-3.09 2.61-3.02 2.6 3.03-1.42 3.08.53.25 1.23-2.67 1.21 2.68z" fill="#949494"/><circle cx="9" cy="4.65" fill="url(#a)" r="1.69"/><path d="m6 6.76a1.23 1.23 0 1 1 -1.18 1.24 1.23 1.23 0 0 1 1.18-1.24m4.72 1.24a1.22 1.22 0 0 0 1.22 1.22 1.23 1.23 0 1 0 -1.22-1.22" fill="url(#b)"/><g fill="#37c2b1"><circle cx="4.54" cy="11.32" r=".97"/><circle cx="7.52" cy="11.33" r=".97"/><circle cx="10.44" cy="11.34" r=".97"/><circle cx="13.42" cy="11.35" r=".97"/></g><path d="m.5 15.22a.16.16 0 0 0 .08.14l1.15.64 2 1.14a.18.18 0 0 0 .23-.06l.61-1.08a.15.15 0 0 0 -.06-.22l-2.29-1.37a.16.16 0 0 1 -.08-.14v-10.54a.16.16 0 0 1 .08-.14l2.29-1.33a.15.15 0 0 0 .06-.26l-.65-1.11a.18.18 0 0 0 -.23-.06l-1.92 1.11-1.19.7a.16.16 0 0 0 -.08.14z" fill="#949494"/><path d="m4.57 2-.65-1.11a.18.18 0 0 0 -.17-.08h-.08l-1.92 1.13-1.19.7a.1.1 0 0 0 -.06 0 .2.2 0 0 0 0 .08l1.64 1a.16.16 0 0 1 .08-.14l2.29-1.32a.15.15 0 0 0 .06-.26m0 14-.65 1.15a.18.18 0 0 1 -.17.08.12.12 0 0 1 -.08 0l-1.92-1.17-1.19-.7a.1.1 0 0 1 -.06 0 .2.2 0 0 1 0-.08l1.64-1a.16.16 0 0 0 .08.14l2.29 1.33a.16.16 0 0 1 .06.25" fill="#a3a3a3"/><path d="m17.5 2.78a.16.16 0 0 0 -.08-.14l-1.15-.64-2-1.14a.18.18 0 0 0 -.23.06l-.61 1.08a.15.15 0 0 0 .06.22l2.29 1.33a.16.16 0 0 1 .08.14v10.58a.16.16 0 0 1 -.08.14l-2.29 1.33a.15.15 0 0 0 -.06.22l.65 1.15a.18.18 0 0 0 .23.06l1.92-1.11 1.19-.7a.16.16 0 0 0 .08-.14z" fill="#949494"/><path d="m13.43 16 .65 1.15a.18.18 0 0 0 .17.08h.08l1.92-1.11 1.19-.7a.1.1 0 0 0 .06 0 .2.2 0 0 0 0-.08l-1.64-1a.16.16 0 0 1 -.08.14l-2.29 1.33a.15.15 0 0 0 -.06.19m0-14 .65-1.11a.18.18 0 0 1 .17-.08.12.12 0 0 1 .08 0l1.92 1.11 1.19.7a.1.1 0 0 1 .06 0 .2.2 0 0 1 0 .08l-1.64 1a.16.16 0 0 0 -.08-.14l-2.29-1.3a.16.16 0 0 1 -.06-.26" fill="#a3a3a3"/></svg>