<svg xmlns="http://www.w3.org/2000/svg" width="18" height="18" viewBox="0 0 18 18"><radialGradient id="a" cx="8.923" cy="9.005" r="8.46" gradientUnits="userSpaceOnUse"><stop offset=".18" stop-color="#5ea0ef"/><stop offset=".56" stop-color="#5c9fee"/><stop offset=".69" stop-color="#559ced"/><stop offset=".78" stop-color="#4a97e9"/><stop offset=".86" stop-color="#3990e4"/><stop offset=".93" stop-color="#2387de"/><stop offset=".99" stop-color="#087bd6"/><stop offset="1" stop-color="#0078d4"/></radialGradient><radialGradient id="b" cx="8.94" cy="9.05" r="1.184" gradientUnits="userSpaceOnUse"><stop offset="0" stop-color="#7f7f7f"/><stop offset="1" stop-color="#5e5e5e"/></radialGradient><circle cx="8.88" cy="9.09" r="8.5" fill="url(#a)"/><circle cx="8.92" cy="9.09" r="7.4" fill="#fff"/><g fill="#7a7a7a"><path d="m12.347 5.348.898-.898.29.29-.898.898zM13.93 8.88h1.27v.41h-1.27zm-1.641 3.876.29-.29.898.898-.29.29zM8.71 14.08h.41v1.27h-.41zM4.251 4.7l.29-.29.898.897-.29.29zm.063 8.695.898-.898.29.29-.898.898zM2.55 8.88h1.27v.41H2.55z"/><rect width="1.14" height="6.52" x="8.4" y="2.83" rx=".52"/><rect width="1.14" height="4.08" x="9.92" y="8.65" rx=".52" transform="rotate(135 10.494 10.685)"/></g><circle cx="8.92" cy="9.08" r="1.2" fill="url(#b)"/></svg>