<svg height="18" viewBox="0 0 18 18" width="18" xmlns="http://www.w3.org/2000/svg" xmlns:xlink="http://www.w3.org/1999/xlink"><radialGradient id="a" cx="8.923" cy="9.0048" gradientUnits="userSpaceOnUse" r="8.46"><stop offset=".18" stop-color="#5ea0ef"/><stop offset=".56" stop-color="#5c9fee"/><stop offset=".69" stop-color="#559ced"/><stop offset=".78" stop-color="#4a97e9"/><stop offset=".86" stop-color="#3990e4"/><stop offset=".93" stop-color="#2387de"/><stop offset=".99" stop-color="#087bd6"/><stop offset="1" stop-color="#0078d4"/></radialGradient><radialGradient id="b" cx="8.9402" cy="9.05" gradientUnits="userSpaceOnUse" r="1.1844"><stop offset="0" stop-color="#7f7f7f"/><stop offset="1" stop-color="#5e5e5e"/></radialGradient><circle cx="8.88" cy="9.09" fill="url(#a)" r="8.5"/><circle cx="8.92" cy="9.09" fill="#fff" r="7.4"/><g fill="#7a7a7a"><path d="m12.31 4.84h1.27v.41h-1.27z" transform="matrix(.70710678 -.70710678 .70710678 .70710678 .219735 10.630487)"/><path d="m13.93 8.88h1.27v.41h-1.27z"/><path d="m12.68 12.42h.41v1.27h-.41z" transform="matrix(.70710678 -.70710678 .70710678 .70710678 -5.459421 12.939792)"/><path d="m8.71 14.08h.41v1.27h-.41z"/><path d="m4.64 4.37h.41v1.27h-.41z" transform="matrix(.70710678 -.70710678 .70710678 .70710678 -2.11988 4.890156)"/><path d="m4.27 12.89h1.27v.41h-1.27z" transform="matrix(.70710678 -.70710678 .70710678 .70710678 -7.820265 7.30021)"/><path d="m2.55 8.88h1.27v.41h-1.27z"/><rect height="6.52" rx=".52" width="1.14" x="8.4" y="2.83"/><rect height="4.08" rx=".52" transform="matrix(-.70710678 .70710678 -.70710678 -.70710678 25.469815 10.820057)" width="1.14" x="9.92" y="8.65"/></g><circle cx="8.92" cy="9.08" fill="url(#b)" r="1.2"/></svg>