<svg xmlns="http://www.w3.org/2000/svg" id="e2c4fead-2d58-4de9-a9d4-4d961c9e0620" width="18" height="18" viewBox="0 0 18 18"><defs><radialGradient id="effe6513-9d59-4ea4-be18-9228e5407456" cx="-7.55" cy="17.42" r="9" gradientTransform="matrix(.94 0 0 .94 16.02 -7.37)" gradientUnits="userSpaceOnUse"><stop offset=".18" stop-color="#5ea0ef"/><stop offset=".56" stop-color="#5c9fee"/><stop offset=".69" stop-color="#559ced"/><stop offset=".78" stop-color="#4a97e9"/><stop offset=".86" stop-color="#3990e4"/><stop offset=".93" stop-color="#2387de"/><stop offset=".99" stop-color="#087bd6"/><stop offset="1" stop-color="#0078d4"/></radialGradient><radialGradient id="e025ef80-86ff-4bd1-bbc9-eb35b96a5a7e" cx="-7.17" cy="18.5" r="1.26" gradientTransform="matrix(.94 0 0 .94 15.68 -8.34)" gradientUnits="userSpaceOnUse"><stop offset="0" stop-color="#7f7f7f"/><stop offset="1" stop-color="#5e5e5e"/></radialGradient></defs><title>Icon-general-6</title><circle cx="8.88" cy="9.09" r="8.5" fill="url(#effe6513-9d59-4ea4-be18-9228e5407456)"/><circle cx="8.92" cy="9.09" r="7.4" fill="#fff"/><path id="aceb7cb9-58cb-48fa-8e61-5ef12bf99b74" fill="#7a7a7a" d="M12.31 4.84h1.27v.41h-1.27z" transform="rotate(-45 12.942 5.05)"/><path id="ebb8133f-edd1-4f29-a441-eb0a438d6dc2" fill="#7a7a7a" d="M13.93 8.88h1.27v.41h-1.27z"/><path id="af989baf-d5e3-49e7-86f6-e72de83ca00b" fill="#7a7a7a" d="M12.68 12.42h.41v1.27h-.41z" transform="rotate(-45 12.89 13.06)"/><path id="a05e3ec9-3b82-44cd-81fb-376dc2152cdb" fill="#7a7a7a" d="M8.71 14.08h.41v1.27h-.41z"/><path id="b16f4a81-ab50-4cf1-9c62-0a7141b15bae" fill="#7a7a7a" d="M4.64 4.37h.41v1.27h-.41z" transform="rotate(-45 4.843 5.004)"/><path id="a2d229fb-1605-4450-a05f-6e35f6de0534" fill="#7a7a7a" d="M4.27 12.89h1.27v.41H4.27z" transform="rotate(-45 4.902 13.09)"/><path id="b198c913-4b35-4230-bc4f-74b3884eed78" fill="#7a7a7a" d="M2.55 8.88h1.27v.41H2.55z"/><rect width="1.14" height="6.52" x="8.4" y="2.83" fill="#7a7a7a" rx=".52"/><rect width="1.14" height="4.08" x="9.92" y="8.65" fill="#7a7a7a" rx=".52" transform="rotate(135 10.494 10.685)"/><circle cx="8.92" cy="9.08" r="1.2" fill="url(#e025ef80-86ff-4bd1-bbc9-eb35b96a5a7e)"/></svg>