<svg viewBox="0 0 24 24" xmlns="http://www.w3.org/2000/svg"><path d="m21.22 10.896c-2.582.707-4.897 2.391-6.341 4.893s-1.746 5.35-1.067 7.939l2.53-1.461a7.7 7.7 0 0 1 .356-3.822l5.913 3.413 1.389-.803v-1.604l-5.912-3.413a7.7 7.7 0 0 1 3.132-2.221zm-18.441 0v2.921a7.7 7.7 0 0 1 3.132 2.221l-5.911 3.413v1.604l1.389.803 5.912-3.413a7.7 7.7 0 0 1 .357 3.822l2.529 1.462a10.5 10.5 0 0 0 -1.067-7.94 10.5 10.5 0 0 0 -6.341-4.893m9.221-10.625-1.39.802v6.826a7.7 7.7 0 0 1 -3.489-1.602l-2.531 1.46c1.904 1.883 4.521 3.045 7.41 3.045s5.506-1.162 7.409-3.045l-2.53-1.46a7.7 7.7 0 0 1 -3.489 1.602v-6.826z"/></svg>