<svg xmlns="http://www.w3.org/2000/svg" width="18" height="18" viewBox="0 0 18 18"><path fill="currentColor" d="M14 .55H2a.68.68 0 0 0-.69.68v3.08A.69.69 0 0 0 2 5h12a.69.69 0 0 0 .69-.69V1.23A.69.69 0 0 0 14 .55m0 6.16H2a.68.68 0 0 0-.69.68v3.08a.69.69 0 0 0 .69.69h12a.69.69 0 0 0 .69-.69V7.39a.68.68 0 0 0-.69-.68"/><path fill="currentColor" d="M16.13 1.92H3.92a.57.57 0 0 0-.57.57v3a.57.57 0 0 0 .57.51h12.21a.57.57 0 0 0 .57-.57v-3a.57.57 0 0 0-.57-.51"/><g fill="currentColor"><rect width="1.05" height="1.05" x="14.51" y="2.49" rx=".15"/><rect width="1.05" height="1.05" x="14.51" y="4.3" rx=".15"/></g><path fill="none" d="M16.13 8.08H3.92a.57.57 0 0 0-.57.57v3a.57.57 0 0 0 .57.57h12.21a.57.57 0 0 0 .57-.57v-3a.57.57 0 0 0-.57-.57"/><circle cx="9.66" cy="15.95" r="1.51" fill="none"/><g fill="currentColor"><rect width="1.05" height="1.05" x="14.51" y="8.7" rx=".15"/><rect width="1.05" height="1.05" x="14.51" y="10.51" rx=".15"/></g></svg>