<svg xmlns="http://www.w3.org/2000/svg" id="a0f448ad-2648-4cd6-b442-513e4a5b2ace" width="18" height="18" viewBox="0 0 18 18"><defs><linearGradient id="b45e255d-bffa-451b-8846-6f6c550d3933" x1="10.03" x2="10.03" y1="6.02" y2="1.92" gradientUnits="userSpaceOnUse"><stop offset="0" stop-color="#198ab3"/><stop offset=".1" stop-color="#1c93bb"/><stop offset=".7" stop-color="#2cc2e5"/><stop offset="1" stop-color="#32d4f5"/></linearGradient><linearGradient id="b7f9cef7-9703-4b9c-b1cd-681c80a1857e" x1="10.03" x2="10.03" y1="12.18" y2="8.08" href="#b45e255d-bffa-451b-8846-6f6c550d3933"/><linearGradient id="afc15d94-3b96-41df-93b4-2a0f23c10140" x1="9.66" x2="9.66" y1="17.45" y2="14.44" href="#b45e255d-bffa-451b-8846-6f6c550d3933"/></defs><title>Icon-other-346</title><path fill="#198ab3" d="M14 .55H2a.68.68 0 0 0-.69.68v3.08A.69.69 0 0 0 2 5h12a.69.69 0 0 0 .69-.69V1.23A.69.69 0 0 0 14 .55m0 6.16H2a.68.68 0 0 0-.69.68v3.08a.69.69 0 0 0 .69.69h12a.69.69 0 0 0 .69-.69V7.39a.68.68 0 0 0-.69-.68"/><path fill="#32bedd" d="M9.15 5h1v10.26h-1Z"/><path fill="url(#b45e255d-bffa-451b-8846-6f6c550d3933)" d="M16.13 1.92H3.92a.57.57 0 0 0-.57.57v3a.57.57 0 0 0 .57.51h12.21a.57.57 0 0 0 .57-.57v-3a.57.57 0 0 0-.57-.51"/><g fill="#b4ec36"><rect width="1.05" height="1.05" x="14.51" y="2.49" rx=".15"/><rect width="1.05" height="1.05" x="14.51" y="4.3" rx=".15"/></g><path fill="url(#b7f9cef7-9703-4b9c-b1cd-681c80a1857e)" d="M16.13 8.08H3.92a.57.57 0 0 0-.57.57v3a.57.57 0 0 0 .57.57h12.21a.57.57 0 0 0 .57-.57v-3a.57.57 0 0 0-.57-.57"/><circle cx="9.66" cy="15.95" r="1.51" fill="url(#afc15d94-3b96-41df-93b4-2a0f23c10140)"/><g fill="#b4ec36"><rect width="1.05" height="1.05" x="14.51" y="8.7" rx=".15"/><rect width="1.05" height="1.05" x="14.51" y="10.51" rx=".15"/></g></svg>