<svg height="18" viewBox="0 0 18 18" width="18" xmlns="http://www.w3.org/2000/svg" xmlns:xlink="http://www.w3.org/1999/xlink"><linearGradient id="a" gradientUnits="userSpaceOnUse" x1="10.03" x2="10.03" y1="6.02" y2="1.92"><stop offset="0" stop-color="#198ab3"/><stop offset=".1" stop-color="#1c93bb"/><stop offset=".7" stop-color="#2cc2e5"/><stop offset="1" stop-color="#32d4f5"/></linearGradient><path d="m14 .55h-12a.68.68 0 0 0 -.69.68v3.08a.69.69 0 0 0 .69.69h12a.69.69 0 0 0 .69-.69v-3.08a.69.69 0 0 0 -.69-.68m0 6.16h-12a.68.68 0 0 0 -.69.68v3.08a.69.69 0 0 0 .69.69h12a.69.69 0 0 0 .69-.69v-3.08a.68.68 0 0 0 -.69-.68" fill="#198ab3"/><path d="m9.15 5h1v10.26h-1z" fill="#32bedd"/><path d="m16.13 1.92h-12.21a.57.57 0 0 0 -.57.57v3a.57.57 0 0 0 .57.51h12.21a.57.57 0 0 0 .57-.57v-3a.57.57 0 0 0 -.57-.51" fill="url(#a)"/><g fill="#b4ec36"><rect height="1.05" rx=".15" width="1.05" x="14.51" y="2.49"/><rect height="1.05" rx=".15" width="1.05" x="14.51" y="4.3"/></g><path d="m16.13 8.08h-12.21a.57.57 0 0 0 -.57.57v3a.57.57 0 0 0 .57.57h12.21a.57.57 0 0 0 .57-.57v-3a.57.57 0 0 0 -.57-.57" fill="none"/><circle cx="9.66" cy="15.95" fill="none" r="1.51"/><g fill="#b4ec36"><rect height="1.05" rx=".15" width="1.05" x="14.51" y="8.7"/><rect height="1.05" rx=".15" width="1.05" x="14.51" y="10.51"/></g></svg>