<svg height="64" viewBox="0 0 64 64" width="64" xmlns="http://www.w3.org/2000/svg"><g fill="none" fill-rule="evenodd"><path d="m0 0h64v64h-64z" fill="#01a88d"/><path d="m21.707 17.293-3-3-1.414 1.414 3 3zm25-1.586-1.414-1.414-3 3 1.414 1.414zm-12.717 6.435-1.98-.284-2 14 1.98.284zm5.81 7.458a1 1 0 0 0 0-1.2l-3-4-1.6 1.2 2.55 3.4-2.55 3.4 1.6 1.2zm-11 2.8-2.55-3.4 2.55-3.4-1.6-1.2-3 4a1 1 0 0 0 0 1.2l3 4zm-.995 17.6h8.39l-1.25 2h-5.89zm8.543 3.53 2.5-4a1 1 0 0 0 -.848-1.53h-12a1.002 1.002 0 0 0 -.848 1.53l2.5 4a1 1 0 0 0 .848.47h7a1 1 0 0 0 .848-.47m-10.348-14.797a1 1 0 0 0 -.415-.811 11.03 11.03 0 0 1 -4.585-8.922c0-6.065 4.935-11 11-11s11 4.935 11 11c0 3.518-1.714 6.854-4.585 8.922a1 1 0 0 0 -.415.811v5.267h-12zm14 6.267v-5.768c3.14-2.459 5-6.245 5-10.232 0-7.168-5.832-13-13-13s-13 5.832-13 13c0 3.987 1.86 7.773 5 10.232v5.768a1 1 0 0 0 1 1h14a1 1 0 0 0 1-1m7-15h4v-2h-4zm-34 0h4v-2h-4zm18-16h2v-4h-2z" fill="#fff"/></g></svg>