<svg height="48" viewBox="0 0 48 48" width="48" xmlns="http://www.w3.org/2000/svg"><path d="m43.284 42.092v-12.244c-1.467.704-3.54 1.04-5.533 1.04-2.358 0-4.24-.33-5.534-.937v12.141c0 .546 2.023 2.264 5.534 2.264s5.533-1.718 5.533-2.264m-11.067-14.737c0 .641 1.922 1.533 5.534 1.533 3.808 0 5.533-1.178 5.533-1.535 0-.326-1.665-1.353-5.533-1.353-3.696 0-5.457.97-5.534 1.355m13.067-.002v14.739c0 2.271-3.521 4.264-7.533 4.264-4.014 0-7.534-1.993-7.534-4.264v-14.739c0-2.475 4.058-3.353 7.534-3.353 3.641 0 7.533.881 7.533 3.353m-18.284 7.647v5h-2v-4h-3v4h-2v-4h-3v4h-2v-4h-3v4h-2v-4h-3a1 1 0 0 1 -1-1v-3h-4v-2h4v-3h-4v-2h4v-3h-4v-2h4v-3h-4v-2h4v-3h-4v-2h4v-3a1 1 0 0 1 1-1h3v-4h2v4h3v-4h2v4h3v-4h2v4h3v-4h2v4h3v-4h2v4h3a1 1 0 0 1 1 1v3h4v2h-4v3h4v2h-4v3h4v2h-5a1 1 0 0 1 -1-1v-13h-26v26h18a1 1 0 0 1 1 1" fill="#ed7100" fill-rule="evenodd"/></svg>