<svg height="18" viewBox="0 0 18 18" width="18" xmlns="http://www.w3.org/2000/svg"><path d="m.5 15.08a.16.16 0 0 0 .08.14l1.16.65 1.96 1.13a.17.17 0 0 0 .23-.06l.66-1.12a.16.16 0 0 0 -.06-.21l-2.3-1.3a.17.17 0 0 1 -.08-.14v-10.32a.16.16 0 0 1 .08-.14l2.3-1.3a.16.16 0 0 0 .06-.21l-.66-1.12a.17.17 0 0 0 -.23-.08l-1.92 1.11-1.2.67a.16.16 0 0 0 -.08.14z" fill="#949494"/><path d="m2.14 3.77.06-.06 2.3-1.3a.14.14 0 0 0 .06-.21l-.66-1.12a.15.15 0 0 0 -.22-.08l-1.93 1.11-1.19.67s-.05 0-.06.06l.9.51zm2.36 11.82-2.3-1.3a.2.2 0 0 1 -.07-.09l-1.62 1h.05l1.15.65 2 1.11a.15.15 0 0 0 .22-.06l.66-1.12a.14.14 0 0 0 -.09-.19" fill="#a3a3a3"/><path d="m17.5 15.08a.16.16 0 0 1 -.08.14l-1.16.65-1.96 1.13a.17.17 0 0 1 -.23-.06l-.66-1.12a.16.16 0 0 1 .06-.21l2.3-1.3a.17.17 0 0 0 .08-.14v-10.32a.16.16 0 0 0 -.08-.14l-2.3-1.3a.16.16 0 0 1 -.06-.21l.66-1.12a.17.17 0 0 1 .23-.08l1.92 1.09 1.2.67a.16.16 0 0 1 .08.14z" fill="#949494"/><path d="m15.86 3.77-.06-.06-2.3-1.3a.14.14 0 0 1 -.06-.21l.66-1.12a.15.15 0 0 1 .22-.08l1.93 1.09 1.19.67.06.06-.9.51zm-2.36 11.82 2.3-1.3a.2.2 0 0 0 .07-.09l1.62 1-1.15.65-2 1.11a.15.15 0 0 1 -.22-.06l-.66-1.12a.14.14 0 0 1 .04-.19" fill="#a3a3a3"/><path d="m14.31 5.93v6.14l-5.32 3.09v-6.15z" fill="#32bedd"/><path d="m14.31 5.93-5.31 3.09-5.32-3.09 5.32-3.09z" fill="#9cebff"/><path d="m8.99 9.02v6.14l-5.31-3.09v-6.14z" fill="#50e6ff"/><path d="m3.68 12.07 5.31-3.06v6.15z" fill="#9cebff"/><path d="m14.31 12.07-5.32-3.06v6.15z" fill="#50e6ff"/></svg>