<svg xmlns="http://www.w3.org/2000/svg" viewBox="0 0 128 128"><path fill="#5fa04e" d="M64 .019a6.5 6.5 0 0 0-3.251.874l-49.76 28.72a6.52 6.52 0 0 0-3.253 5.632v57.49a6.52 6.52 0 0 0 3.253 5.636l49.76 28.74a6.54 6.54 0 0 0 6.508 0v-.002l49.77-28.74a6.52 6.52 0 0 0 3.253-5.636v-57.49a6.52 6.52 0 0 0-3.253-5.636L67.257.887a6.5 6.5 0 0 0-3.251-.874zm0 .992c.295 0 .588.032.88.08l54.15 93.26a5.52 5.52 0 0 1-2.505 3.16l-49.77 28.74a5.5 5.5 0 0 1-2.24.702l-52.7-96.68 49.43-28.53A5.5 5.5 0 0 1 64 1.003zm2.284.507c.158.073.316.144.469.233l49.77 28.72c.45.26.85.58 1.2.943l-16.48 30.32zm-55.32 29.3 17.61 32.31-18.93 32.64a5.5 5.5 0 0 1-.922-3.032v-57.49c0-1.755.843-3.39 2.24-4.425zm107.4 1.453c.562.876.885 1.901.885 2.976v57.49l-.003.057-17.45-30.05zm-89.26 31.88 34.23 62.8a5.5 5.5 0 0 1-2.131-.695h-.002l-49.75-28.74a5.5 5.5 0 0 1-1.168-.909z"/></svg>