<svg viewBox="0 0 128 128" xmlns="http://www.w3.org/2000/svg"><path d="m64 .01872c-1.123-.00000064-2.246.2914-3.251.8738l-49.76 28.72c-2.011 1.164-3.253 3.314-3.253 5.632v57.49c0 2.322 1.242 4.472 3.253 5.636l49.76 28.74c2.016 1.157 4.497 1.157 6.508 0v-.00194l49.77-28.74c2.012-1.165 3.253-3.314 3.253-5.636v-57.49c0-2.322-1.241-4.472-3.253-5.636l-49.77-28.72c-1.005-.5824-2.128-.8738-3.251-.8738zm0 .992c.2947-.0000002.5879.03207.8796.07944l54.15 93.26c-.4038 1.312-1.282 2.452-2.505 3.16l-49.77 28.74c-.6982.4013-1.463.6306-2.24.7033l-52.7-96.68 49.43-28.53c.852-.4937 1.804-.7401 2.755-.7401zm2.284.5076c.1583.07257.3163.1441.4689.2325l49.77 28.72c.4496.2602.85.5803 1.201.9436l-16.48 30.32zm-55.32 29.3 17.61 32.31-18.93 32.64c-.5854-.8874-.9223-1.934-.9223-3.032v-57.49c0-1.755.8436-3.391 2.24-4.425zm107.4 1.453c.5623.8754.8854 1.901.8854 2.976v57.49c0 .01894-.00369.03728-.00387.05619l-17.45-30.05zm-89.26 31.88 34.23 62.8c-.7383-.0843-1.465-.3135-2.131-.6956h-.001937l-49.75-28.74c-.4348-.2517-.8252-.5601-1.168-.9087z" fill="#5fa04e"/></svg>