<svg viewBox="0 0 128 128" xmlns="http://www.w3.org/2000/svg"><path d="m64.36.005859c-1.045 0-2.091.2701-3.027.8125l-49.82 28.75 53.63 98.38c.7789-.1012 1.542-.3539 2.244-.7578l50.17-28.97c1.21-.7006 2.114-1.787 2.607-3.049l-55.23-95.13c-.1908-.01819-.3808-.03711-.5723-.03711zm1.9.3203 35.65 61.39 16.86-31.02c-.3597-.3535-.7631-.6666-1.211-.9258l-50.17-28.95c-.3597-.2085-.7391-.3638-1.125-.4922zm-55.6 29.79c-1.566 1.133-2.518 2.949-2.518 4.9v57.95c0 1.292.4194 2.521 1.15 3.537l19.36-33.38-18-33.01zm108.8 1.408-16.97 31.21 18.03 31.06c.03737-.2716.05859-.5456.05859-.8242v-57.95c0-1.275-.4097-2.488-1.123-3.496zm-90.25 32.63-19.23 33.15c.3538.344.7477.6527 1.186.9062l50.16 28.97c.8345.4788 1.753.7317 2.682.7852l-34.79-63.82z" fill="#5fa04e"/></svg>