<svg viewBox="0 0 128 128" xmlns="http://www.w3.org/2000/svg" xmlns:xlink="http://www.w3.org/1999/xlink"><linearGradient id="a" gradientUnits="userSpaceOnUse" x1="84.228843" x2="38.730291" y1="22.372548" y2="114.612883"><stop offset="0" stop-color="#3f873f"/><stop offset=".33" stop-color="#3f8b3d"/><stop offset=".637" stop-color="#3e9638"/><stop offset=".934" stop-color="#3da92e"/><stop offset="1" stop-color="#3dae2b"/></linearGradient><linearGradient id="b" gradientUnits="userSpaceOnUse" x1="56.370567" x2="183.316228" y1="70.765788" y2="-22.451814"><stop offset=".138" stop-color="#3f873f"/><stop offset=".402" stop-color="#52a044"/><stop offset=".713" stop-color="#64b749"/><stop offset=".908" stop-color="#6abf4b"/></linearGradient><linearGradient id="c" gradientUnits="userSpaceOnUse" x1="6.319686" x2="121.600003" y1="63.974405" y2="63.974405"><stop offset=".092" stop-color="#6abf4b"/><stop offset=".287" stop-color="#64b749"/><stop offset=".598" stop-color="#52a044"/><stop offset=".862" stop-color="#3f873f"/></linearGradient><path d="m66.958.825a6.07 6.07 0 0 0 -6.035 0l-49.82 28.935c-1.895 1.072-2.96 3.095-2.96 5.24v57.988c0 2.143 1.183 4.167 2.958 5.24l49.82 28.934a6.07 6.07 0 0 0 6.036 0l49.82-28.935c1.894-1.072 2.958-3.096 2.958-5.24v-57.987c0-2.144-1.183-4.167-2.958-5.24z" fill="url(#a)"/><path d="m116.897 29.76-50.056-28.935a8.161 8.161 0 0 0 -1.539-.595l-56.092 96.568a6.251 6.251 0 0 0 1.657 1.43l50.057 28.934c1.42.833 3.076 1.072 4.615.595l52.66-96.925a3.702 3.702 0 0 0 -1.302-1.072z" fill="url(#b)"/><path d="m116.898 98.225c1.42-.833 2.485-2.262 2.958-3.81l-54.79-94.307c-1.42-.238-2.959-.119-4.26.715l-49.702 28.816 53.606 98.355c.71-.12 1.54-.358 2.25-.715z" fill="url(#c)"/></svg>