<svg viewBox="0 0 24 24" xmlns="http://www.w3.org/2000/svg" fill="#E79537"><path d="m8 0c-.6312 0-1.1429.5117-1.1429 1.1429v13.8583c-1.9716.5075-3.4285 2.2973-3.4285 4.4274 0 2.5247 2.0467 4.5714 4.5714 4.5714s4.5714-2.0467 4.5714-4.5714c0-2.1301-1.4569-3.92-3.4285-4.4274v-4.7155h4.7346c.541 0 .9796-.5117.9796-1.1428 0-.6312-.4386-1.1429-.9796-1.1429h-4.7345v-5.7143h10.2857c.6312 0 1.1428-.5117 1.1428-1.1428-.0001-.6312-.5117-1.1429-1.1429-1.1429zm0 17.1429c1.2624 0 2.2857 1.0233 2.2857 2.2857 0 1.2623-1.0233 2.2857-2.2857 2.2857s-2.2857-1.0234-2.2857-2.2857c0-1.2624 1.0233-2.2857 2.2857-2.2857z"/></svg>