<svg height="18" viewBox="0 0 18 18" width="18" xmlns="http://www.w3.org/2000/svg" xmlns:xlink="http://www.w3.org/1999/xlink"><linearGradient id="a" gradientTransform="matrix(.70710678 .70710678 -.70710678 .70710678 9 -3.727922)" gradientUnits="userSpaceOnUse" x1="9" x2="9" y1="19.848" y2="-1.014"><stop offset="0" stop-color="#0078d4"/><stop offset=".502" stop-color="#4093e6"/><stop offset=".775" stop-color="#5ea0ef"/></linearGradient><rect fill="url(#a)" height="13.079" rx=".6" transform="matrix(.70710678 -.70710678 .70710678 .70710678 -3.727922 9)" width="13.079" x="2.46" y="2.46"/><path d="m14.728 8.735-1.692-1.526c-.23-.229-.334-.172-.334.172v.676a.213.213 0 0 1 -.213.212 2.41 2.41 0 0 1 -2.549-1.49v-3.159a.29.29 0 0 0 -.291-.291h-1.458a.29.29 0 0 0 -.291.291v7.98a.143.143 0 0 1 -.143.143h-1.657a.144.144 0 0 0 -.1.245l2.695 2.7a.32.32 0 0 0 .454 0l2.7-2.695a.144.144 0 0 0 -.1-.245h-1.666a.143.143 0 0 1 -.143-.148v-2.683a4.44 4.44 0 0 0 2.548.7.21.21 0 0 1 .214.211v.73c0 .286.155.351.334.172l1.692-1.646a.21.21 0 0 0 0-.349" fill="#c3f1ff"/></svg>