<svg xmlns="http://www.w3.org/2000/svg" xmlns:xlink="http://www.w3.org/1999/xlink" viewBox="0 0 128 128">
  <defs>
    <mask id="wko">
      <rect width="128" height="128" fill="white"/>
      <path fill="black" d="M13.787 57.695c0 3.281-2.262 5.882-4.977 5.882s-4.978-2.6-4.978-5.882c0-3.28 2.263-5.883 4.978-5.883 2.828 0 4.977 2.602 4.977 5.883M40.033 51.7a3.814 3.814 0 0 1-3.845 3.846A3.816 3.816 0 0 1 32.34 51.7a3.815 3.815 0 0 1 3.848-3.847 3.814 3.814 0 0 1 3.846 3.847z"/>
      <path fill="black" d="M64.357 52.718c0 2.489-2.036 4.411-4.412 4.411s-4.412-2.036-4.412-4.411c0-2.49 2.036-4.412 4.411-4.412 2.376 0 4.412 2.036 4.412 4.412z"/>
      <path fill="black" d="M104.839 92.354a.566.566 0 0 0 .296.744l7.14 3.074a.566.566 0 0 0 .744-.296.566.566 0 0 0-.296-.744l-7.14-3.074a.566.566 0 0 0-.744.296"/>
      <path fill="black" d="M115.192 92.748a2.965 2.965 0 0 1 3.656 1.99 2.965 2.965 0 0 1-1.99 3.657 2.965 2.965 0 0 1-3.657-1.99 2.965 2.965 0 0 1 1.991-3.657" opacity=".528"/>
      <path fill="black" d="M102.355 88.573a1.963 1.963 0 0 1 2.457 1.337 1.963 1.963 0 0 1-1.338 2.457 1.963 1.963 0 0 1-2.456-1.338 1.963 1.963 0 0 1 1.337-2.456"/>
    </mask>
  </defs>
  <g fill="currentColor" mask="url(#wko)">
    <path fill="currentColor" d="M113.342 82.018c0 12.217-22.852 22.174-51.135 22.174s-51.134-9.956-51.134-22.174 22.852-22.173 51.133-22.173c28.284 0 51.136 9.955 51.136 22.173"/>
    <path fill="currentColor" d="M26.572 27.49s8.031 16.63 26.924 16.177c39.482-1.018 46.383-21.607 47.4-24.549 1.019-2.941 2.49-2.489 2.83.226 12.897 116.75-89.26 66.634-92.88 46.836 20.25-5.883 15.386-17.31 15.386-17.31z"/>
    <path fill="currentColor" d="M102.654 16.552c-.512-.081-1 .193-1.36.607-.361.413-.663.995-.933 1.774-.513 1.483-2.422 7.193-9.102 12.746S73.126 42.595 53.483 43.102c-18.557.444-26.403-15.86-26.403-15.86l-1.035-2.147-.04 2.386-.34 21.5.046.11s1.134 2.638-.11 6.034-4.893 7.6-14.912 10.51l-.49.143.09.504c.492 2.685 2.562 5.682 5.721 8.763s7.43 6.228 12.408 9.078c9.955 5.698 22.73 10.202 35.052 10.409s24.228-3.938 32.16-15.513c7.934-11.575 11.89-30.474 8.658-59.738v-.008q-.133-1.088-.505-1.79c-.25-.467-.617-.85-1.13-.931zm-.176 1.116c.025.004.153.06.306.348.153.287.3.765.38 1.39 3.215 29.11-.76 47.728-8.467 58.973-7.707 11.246-19.15 15.225-31.208 15.022s-24.693-4.642-34.507-10.26c-4.908-2.81-9.11-5.913-12.18-8.906-2.9-2.827-4.662-5.53-5.21-7.734 9.733-2.97 13.716-7.283 15.072-10.987 1.32-3.606.245-6.394.135-6.671l.308-19.365c2.326 3.888 10.343 15.14 26.403 14.754 19.839-.511 31.577-5.952 38.471-11.683 6.895-5.731 8.946-11.786 9.45-13.245.24-.691.503-1.158.715-1.402.213-.244.307-.238.332-.234"/>
    <path fill="currentColor" d="M41.504 76.814c18.893 3.732 28.509.227 34.052-4.072-1.47-1.924-4.072-4.072-4.072-4.072s6.562 1.809 8.937 4.863c2.263 2.941.904 4.865.226 8.598-1.358-3.394-3.846-4.639-4.186-5.996-4.977 7.127-17.535 6.788-34.957.679"/>
    <path fill="currentColor" d="m101.575 23.774-1.048 1.725c-1.554 2.554-3.893 5.56-7.35 8.575q-.002 0-.005.004c-7.245 6.014-19.432 11.514-39.575 11.965h-.004c-11.69.334-19.088-5.315-23.663-10.337l-.946-1.038-.38 14.053.027.087c.338 1.124 1.086 3.637-.215 7.22-1.384 3.726-5.762 7.85-13.587 10.869l-.563.217.253.547c.677 1.468 1.425 3.057 3.62 5.14l.006.005.005.006c2.875 2.874 6.977 5.946 11.761 8.68 9.573 5.47 21.971 9.8 33.642 10.029 11.668.228 22.317-3.594 29.665-14.273l.002-.004.004-.004c6.555-9.89 10.28-26.415 8.35-51.49zm-1.088 3.713c1.607 23.919-2.018 39.79-8.207 49.128-7.132 10.357-17.297 13.998-28.704 13.775-11.406-.225-23.673-4.493-33.103-9.882-4.714-2.694-8.754-5.726-11.534-8.506l-.005-.006-.006-.004c-1.858-1.76-2.515-3.017-3.121-4.306 7.628-3.068 12.153-7.184 13.67-11.265l.002-.002v-.002c1.38-3.797.614-6.615.26-7.804l.303-11.246c4.767 4.921 12.21 10.131 23.584 9.806 20.345-.455 32.816-6.035 40.28-12.234l.006-.004.004-.004a37.6 37.6 0 0 0 6.572-7.444z" opacity=".185"/>
    <path fill="currentColor" d="M47.047 52.49c0 6.337-5.09 11.427-11.426 11.427A11.393 11.393 0 0 1 24.195 52.49a11.394 11.394 0 0 1 11.426-11.426c6.335 0 11.426 5.204 11.426 11.426"/>
    <path fill="currentColor" d="M35.622 40.622a11.846 11.846 0 0 0-11.87 11.868c0 6.573 5.296 11.87 11.87 11.87a11.845 11.845 0 0 0 11.867-11.87c0-6.463-5.29-11.868-11.867-11.868m0 .885c6.092 0 10.983 5.003 10.983 10.983a10.94 10.94 0 0 1-10.983 10.983A10.94 10.94 0 0 1 24.638 52.49a10.94 10.94 0 0 1 10.984-10.983"/>
    <path fill="currentColor" d="M24.422 56.79c5.543 7.693 5.543 16.97.113 20.93-5.43 3.959-14.255.904-19.799-6.788-5.542-7.694-5.542-16.97-.112-20.93 5.43-3.846 14.254-.791 19.798 6.788"/>
    <path fill="currentColor" d="M43.88 54.189c0 3.054-2.489 5.429-5.43 5.429-3.055 0-5.43-2.489-5.43-5.43s2.489-5.43 5.43-5.43 5.43 2.375 5.43 5.43z"/>
    <path fill="currentColor" d="M8.734 50.856c-1.26.114-2.375.522-3.332 1.183h-.058l-.15.11s0 .003-.002.003c-1.87 1.375-2.949 3.85-2.83 7.146v.002c.116 3.176 1.287 7.013 3.961 10.503 2.558 3.372 5.912 5.698 8.995 6.646 3.048.939 5.657.716 7.632-.766 1.993-1.493 2.943-4.075 2.943-7.241 0-3.208-1.289-7.036-3.848-10.41-2.553-3.365-5.798-5.699-8.883-6.648h-.006c-1.581-.468-3.075-.65-4.422-.528m.122 1.122c1.17-.103 2.504.054 3.975.49 2.796.86 5.886 3.051 8.311 6.248 2.419 3.188 3.619 6.826 3.619 9.726 0 2.942-.86 5.114-2.49 6.336-1.643 1.232-3.786 1.462-6.62.59-2.802-.862-6.007-3.059-8.427-6.249v-.002h-.002C4.694 65.82 3.6 62.19 3.492 59.26c-.109-3.034.85-5.077 2.367-6.193l.01-.008c.813-.61 1.817-.976 2.987-1.08z" opacity=".281"/>
    <path fill="currentColor" d="M72.615 53.736c0 7.353-5.995 13.348-13.35 13.348-7.352 0-13.348-5.995-13.348-13.348s5.882-13.35 13.235-13.35c7.354 0 13.463 5.997 13.463 13.35"/>
    <path fill="currentColor" d="M59.152 40.01c-7.558 0-13.612 6.17-13.612 13.725 0 7.558 6.167 13.727 13.726 13.727s13.727-6.169 13.727-13.727c0-7.562-6.282-13.726-13.841-13.726zm0 .753c7.149 0 13.085 5.828 13.085 12.972 0 7.148-5.823 12.971-12.971 12.971s-12.972-5.823-12.972-12.971c0-7.152 5.71-12.972 12.858-12.972"/>
    <path fill="currentColor" d="M68.768 55.773c0 3.506-2.828 6.447-6.447 6.447-3.508 0-6.45-2.828-6.45-6.447 0-3.622 2.83-6.45 6.449-6.45 3.507 0 6.448 2.828 6.448 6.449z"/>
    <path fill="currentColor" d="m99.966 93.641 2.597-5.178c-9.664-7.077-27.43-12.196-27.43-12.196-3.065-1.446-4.065 1.342-1.901 3.15-.044.013 15.162 10.923 26.734 14.224"/>
    <path fill="currentColor" d="M71.638 78.125c.189.575.587 1.141 1.145 1.634v.002s.051.06.062.07c.014.013.018.015.024.02l.014.013.046.036.135.1q.174.127.503.36c.438.308 1.076.75 1.88 1.29a150 150 0 0 0 6.505 4.132c5.263 3.154 11.977 6.726 17.858 8.404l.451.128.21-.419 2.812-5.606-.386-.282C93.072 80.81 75.29 75.723 75.29 75.723l.085.032c-.84-.397-1.59-.531-2.234-.418s-1.169.508-1.427 1.036c-.258.529-.276 1.142-.075 1.752zm1.094-.332c-.125-.377-.107-.71-.002-.923.104-.214.269-.359.606-.418.338-.06.863 0 1.555.327l.041.02.043.012s17.27 5.028 26.855 11.851l-2.148 4.282c-5.595-1.674-12.056-5.082-17.148-8.134a149 149 0 0 1-6.455-4.1 105 105 0 0 1-2.349-1.625l-.116-.087-.006-.004-.014-.011c-.47-.393-.737-.814-.862-1.19"/>
    <path fill="currentColor" d="m112.359 98.427 1.389-3.095-10.762-6.897-.841-.088-.351-1.191c-1.578.992-3.815 4.625-3.217 6.655l1.165-.44.618.633z"/>
    <path fill="currentColor" d="m98.206 94.556 1.39-.524.449.46 12.613 4.649.217-.482 1.589-3.54-11.286-7.233-.597-.063-.455-1.544-.634.397c-.95.598-1.904 1.799-2.622 3.154-.719 1.355-1.215 2.855-.836 4.141zm.937-1.563c.01-.754.226-1.689.726-2.633a8.8 8.8 0 0 1 1.64-2.168l.2.678 1.085.113 10.238 6.562-.973 2.168-11.383-4.196-.787-.806z"/>
    <path fill="currentColor" d="M128 111.462c-3.357-11.382-4.552-20.477-13.328-19.664-7.096.654-7.567 10.768-.258 13.6 7.037 2.72 13.586 6.064 13.586 6.064"/>
  </g>
  <path fill="currentColor" d="M123.785 104.649s-1.109-4.085-3.509-6.207c-.847-.757.212-1.885 1.035-.88 1.717 2.083 2.474 7.087 2.474 7.087" opacity=".428"/>
  <path fill="currentColor" d="M61.868 81.452c4.185.453 8.031-.792 9.502-1.357.227-1.585 1.471-4.525 5.77-4.751l-1.47-2.602s-5.544 3.732-11.427 4.864z"/>
</svg>