<svg height="64" viewBox="0 0 64 64" width="64" xmlns="http://www.w3.org/2000/svg"><g fill="none" fill-rule="evenodd"><path d="m0 0h64v64h-64z" fill="#e7157b"/><path d="m38.5 38c-1.93 0-3.5-1.57-3.5-3.5s1.57-3.5 3.5-3.5 3.5 1.57 3.5 3.5-1.57 3.5-3.5 3.5m0-9a5.506 5.506 0 0 0 -5.5 5.5c0 3.033 2.468 5.5 5.5 5.5s5.5-2.467 5.5-5.5-2.468-5.5-5.5-5.5m0-3c-1.93 0-3.5-1.57-3.5-3.5s1.57-3.5 3.5-3.5 3.5 1.57 3.5 3.5-1.57 3.5-3.5 3.5m0-9a5.506 5.506 0 0 0 -5.5 5.5c0 3.033 2.468 5.5 5.5 5.5s5.5-2.467 5.5-5.5-2.468-5.5-5.5-5.5m0-3c-1.93 0-3.5-1.57-3.5-3.5s1.57-3.5 3.5-3.5 3.5 1.57 3.5 3.5-1.57 3.5-3.5 3.5m0-9a5.506 5.506 0 0 0 -5.5 5.5c0 3.033 2.468 5.5 5.5 5.5s5.5-2.467 5.5-5.5-2.468-5.5-5.5-5.5m5.5-5v2h-14v40h14v2h-15a1 1 0 0 1 -1-1v-20h-12v-2h12v-20a1 1 0 0 1 1-1zm-42 26.382v-8.764l8.764 4.382zm11.447-5.277-12-6a1.001 1.001 0 0 0 -1.447.895v12a1 1 0 0 0 1.447.895l12-6a1.001 1.001 0 0 0 0-1.79m-11.447-10.105h9v-9h-9zm-1 2h11a1 1 0 0 0 1-1v-11a1 1 0 0 0 -1-1h-11a1 1 0 0 0 -1 1v11a1 1 0 0 0 1 1m5.5 29a4.505 4.505 0 0 1 -4.5-4.5c0-2.481 2.019-4.5 4.5-4.5s4.5 2.019 4.5 4.5-2.019 4.5-4.5 4.5m0-11a6.51 6.51 0 0 0 -6.5 6.5c0 3.584 2.916 6.5 6.5 6.5s6.5-2.916 6.5-6.5-2.916-6.5-6.5-6.5" fill="#fff" transform="translate(10 10)"/></g></svg>