<svg viewBox="0 0 24 24" xmlns="http://www.w3.org/2000/svg"><g fill="#6200ee"><path d="m2 3.124a3.125 3.125 0 0 1 3.126-3.124h15.101a3.125 3.125 0 0 1 0 6.249h-15.102a3.125 3.125 0 0 1 -3.125-3.125"/><path d="m3.293 1.035a3.125 3.125 0 0 1 4.411.257l8.51 9.562a3.125 3.125 0 0 1 -4.669 4.155l-8.509-9.562a3.125 3.125 0 0 1 .257-4.412"/><path d="m2 13.018a3.125 3.125 0 0 1 3.125-3.124h8.853a3.124 3.124 0 1 1 0 6.248h-8.853a3.125 3.125 0 0 1 -3.125-3.124"/></g><path d="m8.249 20.829a3.125 3.125 0 1 1 -6.249.093 3.125 3.125 0 0 1 6.249-.093" fill="#bf7aff"/></svg>