<svg height="18" viewBox="0 0 18 18" width="18" xmlns="http://www.w3.org/2000/svg" xmlns:xlink="http://www.w3.org/1999/xlink"><linearGradient id="a" gradientUnits="userSpaceOnUse" x1="9" x2="9" y1="17.44" y2="11.44"><stop offset="0" stop-color="#0078d4"/><stop offset=".82" stop-color="#5ea0ef"/></linearGradient><rect fill="#005ba1" height="12.48" rx=".42" width="9.97" x="5.62" y=".56"/><rect fill="#0078d4" height="12.48" rx=".42" width="9.97" x="4.11" y="1.91"/><rect fill="#32bedd" height="12.48" rx=".42" width="9.97" x="2.58" y="3.27"/><path d="m10.48 6.99v3.39l-2.91 1.7v-3.39z" fill="#50e6ff"/><path d="m10.48 6.99-2.91 1.71-2.91-1.71 2.91-1.7z" fill="#c3f1ff"/><path d="m7.57 8.7v3.38l-2.91-1.7v-3.39z" fill="#9cebff"/><path d="m4.66 10.38 2.91-1.69v3.39z" fill="#c3f1ff"/><path d="m10.48 10.38-2.91-1.69v3.39z" fill="#9cebff"/><rect fill="url(#a)" height="5.99" rx=".56" width="16.87" x=".56" y="11.44"/><rect fill="#f2f2f2" height=".87" rx=".43" width="4.81" x="6.6" y="12.92"/></svg>