<svg xmlns="http://www.w3.org/2000/svg" width="18" height="18" viewBox="0 0 18 18"><defs><mask id="a"><path fill="#fff" d="M0 0h18v18H0z"/><path d="M.544 5.316h16.912v9.918a.565.565 0 0 1-.565.565H1.109a.565.565 0 0 1-.565-.565z"/><path d="M13.9 7.32H9.715a.22.22 0 0 1-.125-.038l-1.2-.795a.2.2 0 0 0-.124-.038H4.752a.224.224 0 0 0-.224.224v7.392a.223.223 0 0 0 .224.223H13.9a.224.224 0 0 0 .224-.223V7.544a.224.224 0 0 0-.224-.224"/><path d="M13.9 7.309H9.3a.23.23 0 0 0-.159.066l-.739.739a.23.23 0 0 1-.159.066H4.752a.224.224 0 0 0-.224.224v5.65a.223.223 0 0 0 .224.223H13.9a.224.224 0 0 0 .224-.223V7.533a.224.224 0 0 0-.224-.224"/><path d="M5.154 6.905h2.318v.464H5.154z"/><path d="M5.154 6.905h.464v.464h-.464z"/></mask></defs><path fill="currentColor" d="M1.112 2.2h15.776a.565.565 0 0 1 .565.565v2.55H.547V2.766a.565.565 0 0 1 .565-.566" mask="url(#a)"/></svg>