<svg xmlns="http://www.w3.org/2000/svg" width="18" height="18" viewBox="0 0 18 18">
  <defs>
    <mask id="ko">
      <rect width="18" height="18" fill="white"/>
      <path fill="black" d="M.544 5.316h16.912v9.918a.565.565 0 0 1-.565.565H1.109a.565.565 0 0 1-.565-.565z"/>
      <path fill="black" d="M13.9 7.32H9.715a.22.22 0 0 1-.125-.038l-1.2-.795a.2.2 0 0 0-.124-.038H4.752a.224.224 0 0 0-.224.224v7.392a.223.223 0 0 0 .224.223H13.9a.224.224 0 0 0 .224-.223V7.544a.224.224 0 0 0-.224-.224"/>
      <path fill="black" d="M13.9 7.309H9.3a.23.23 0 0 0-.159.066l-.739.739a.23.23 0 0 1-.159.066H4.752a.224.224 0 0 0-.224.224v5.65a.223.223 0 0 0 .224.223H13.9a.224.224 0 0 0 .224-.223V7.533a.224.224 0 0 0-.224-.224"/>
      <rect fill="black" x="5.154" y="6.905" width="2.318" height=".464"/>
      <rect fill="black" x="5.154" y="6.905" width=".464" height=".464"/>
    </mask>
  </defs>
  <g>
    <path fill="currentColor" mask="url(#ko)" d="M1.112 2.2h15.776a.565.565 0 0 1 .565.565v2.55H.547V2.766a.565.565 0 0 1 .565-.566"/>
  </g>
</svg>