<svg viewBox="0 0 24 24" xmlns="http://www.w3.org/2000/svg" fill="#1C3C3C"><path d="m13.796 0a6.93 6.93 0 0 0 -4.91 2.019l-3.435 3.436 3.273 3.27 3.432-3.432a2.284 2.284 0 0 1 3.277 0 2.28 2.28 0 0 1 0 3.275l-3.433 3.433 3.273 3.273 3.433-3.435c2.692-2.692 2.692-7.127 0-9.82a6.92 6.92 0 0 0 -4.91-2.019m-5.07 8.728-3.433 3.434c-2.692 2.693-2.692 7.126 0 9.819a6.92 6.92 0 0 0 4.91 2.019 6.93 6.93 0 0 0 4.911-2.02l3.432-3.432-3.271-3.272-3.433 3.433a2.284 2.284 0 0 1 -3.277 0 2.28 2.28 0 0 1 0-3.276l3.435-3.433z"/></svg>