<svg height="18" viewBox="0 0 18 18" width="18" xmlns="http://www.w3.org/2000/svg" xmlns:xlink="http://www.w3.org/1999/xlink"><linearGradient id="a" gradientUnits="userSpaceOnUse" x1="9" x2="9" y1="15.296" y2="2.704"><stop offset="0" stop-color="#0078d4"/><stop offset=".817" stop-color="#5ea0ef"/></linearGradient><path d="m17.884 11.352a3.99 3.99 0 0 0 -3.465-3.837 5.03 5.03 0 0 0 -5.182-4.815 5.16 5.16 0 0 0 -4.937 3.367 4.765 4.765 0 0 0 -4.184 4.584 4.834 4.834 0 0 0 5 4.645q.223 0 .441-.019h8.1a.8.8 0 0 0 .214-.032 4.04 4.04 0 0 0 4.013-3.893" fill="url(#a)"/><path d="m9.465 10.534a4.675 4.675 0 1 0 -4.673 4.766h4.675v-4.766z" fill="#005ba1"/><path d="m7.654 9.172v3.311l-2.862 1.664v-3.316z" fill="#32bedd"/><path d="m7.654 9.172-2.862 1.663-2.863-1.664 2.863-1.664z" fill="#9cebff"/><path d="m4.792 10.835v3.312l-2.863-1.664v-3.312z" fill="#50e6ff"/></svg>