<svg height="48" viewBox="0 0 48 48" width="48" xmlns="http://www.w3.org/2000/svg"><path d="m24.036 41.068c-7.405 0-12.036-2.068-12.036-3.985v-3.036c1.557 1.186 3.976 2.066 7 2.526v2.432h2v-2.192q1.451.123 3.036.125c1.028 0 2.02-.04 2.964-.118v4.126c-.93.077-1.915.122-2.964.122m-12.036-15.002v-3.559c2.326 1.637 6.585 2.623 12.015 2.623 5.407 0 9.653-.976 11.985-2.6v3.536c0 .688-1.659 1.942-6.233 2.583-.98.138-2.017.24-3.08.303q-.653.039-1.325.058a44 44 0 0 1 -2.725 0q-.673-.02-1.325-.058a39 39 0 0 1 -3.08-.303c-4.574-.639-6.232-1.895-6.232-2.583m12-22.066c7.88 0 12.002 1.93 12.002 2.964v.273c0 .797-3.685 2.894-11.945 2.894s-12.05-1.985-12.05-2.782v-.385c-.001-1.034 4.113-2.964 11.993-2.964m-12 12.631c2.562 1.66 7.29 2.431 11.995 2.431 4.711 0 9.444-.773 12.005-2.437l.002 2.574v.148c0 1.82-4.594 3.784-11.987 3.784s-12.013-1.964-12.013-3.784l-.002-.197zm0-6.776c2.58 1.55 7.44 2.276 12.057 2.276 4.554 0 9.336-.709 11.943-2.213v3.73c0 1.396-4.312 3.414-12.005 3.414s-11.99-2.018-11.99-3.414l-.005-.16zm26 27.228v-.077h-2v.255c-.203 1.387-2.748 2.817-7 3.458v-4.135c3.01-.45 5.428-1.314 7-2.48v.902h2v-5.001h-2v.866c-.203 1.482-2.748 3.01-7 3.695v-1.56h-2v1.802a33.603 33.603 0 0 1 -6-.008v-3.867q.098.008.194.015a47 47 0 0 0 4.23.062q.7-.021 1.381-.062a41 41 0 0 0 3.241-.318c5.13-.719 7.954-2.339 7.954-4.564v-19.102c0-3.429-7.03-4.964-14-4.964s-14 1.535-14 4.964v19.102c0 2.225 2.825 3.846 7.953 4.564.341.047.695.084 1.047.124v3.8c-4.389-.72-6.998-2.342-6.998-3.874v-.675h-2.002v15.001h2v-4.655c2.328 1.696 6.596 2.717 12.036 2.717q1.549 0 2.964-.108v3.045h2v-3.262c3.028-.418 5.436-1.229 7-2.337v4.6h2v-7.658c-.002-.089 0-.128 0-.218z" fill="#c925d1" fill-rule="evenodd"/></svg>