<svg fill="none" height="60" viewBox="0 0 60 60" width="60" xmlns="http://www.w3.org/2000/svg" xmlns:xlink="http://www.w3.org/1999/xlink"><mask id="a" height="60" maskUnits="userSpaceOnUse" width="40" x="10" y="0"><path d="m49.6 0h-39.2v60h39.2z" fill="#fff"/></mask><g mask="url(#a)"><path clip-rule="evenodd" d="m29.2 0c-8 .8-8.2 12.6-.4 13.9l.5.1v1.3a104 104 0 0 0 -.2 4.9l-.3.1-.8.6c0 .2 0 .2-.6.2-.8 0-1.3.2-1.7.7l-.3.2a177 177 0 0 1 -2.4-3.6l-.3-.5.2-.3c4.1-4.6-1.7-11.6-6.7-8-5 3.7-.5 11.5 5.2 9.1l1 1.3a173 173 0 0 0 2 2.6c.1.1.1.1-.2.2-.9.3-1.7 1-1.9 1.7v.1a2.7 2.7 0 0 0 -2.7 2.6c0 .5 0 .5-.2.6a12.3 12.3 0 0 0 -4.6 6.8c0 .3 0 .2-.4.3-.8.1-1.3.5-1.8 1.1-.7 1-.8 1.7-.3 2.7.2.4.2.3 0 .7-3 4.1-2.4 9 1.6 12.9 2.5 2.5 6.2 4 10.2 4.4 1.6.1 1.7.2 2.1.7 2.7 3.4 5 3.4 7.5 0 .4-.5.6-.6 2.2-.7 6-.5 11.1-3.8 13-8.6q1.8-4.5-1.2-8.7c-.2-.4-.2-.3 0-.7.4-1 .4-1.8-.3-2.7-.5-.6-1-1-1.8-1-.4-.2-.4-.1-.4-.4a12.4 12.4 0 0 0 -4.6-6.7c-.2-.2-.2-.2-.2-.7 0-1.4-1.2-2.5-2.7-2.6v-.1c-.2-.7-1-1.4-2-1.7-.3 0-.2 0-.2-.2a33 33 0 0 1 2-2.6l1-1.3c5.8 2.4 10.3-5.4 5.3-9-5-3.8-11 3.3-6.7 8l.2.2-.4.5a259 259 0 0 0 -2.4 3.6l-.2-.2c-.5-.5-1-.7-1.7-.7l-.6-.1c-.2-.4-.7-.7-1.1-.8-.2 0-.2 0-.2-2.2v-4l.4-.1c8.9-1.5 7-14.7-2-13.9zm-.2 1.8c-3 .5-5 3.3-4.5 6l.1.7c1.6 4.7 9.2 4.7 10.8 0l.1-.6c.7-3.5-2.7-6.8-6.5-6.1m-10.3 8.6a3.8 3.8 0 0 0 -3 4.6l.5 1c1.8 2.4 5 2.2 6.4-.4l.2-.7c.7-2.4-1.4-5-4-4.5zm21.3 0a3.7 3.7 0 0 0 -1.8 6.3c1.6 1.5 4.1 1.2 5.5-.6.3-.3.5-.7.6-1 .7-2.4-1.6-5.2-4.3-4.7m-10.4 10.9c-1 .2-1.4 1.2-.9 2.5.2.4.2.4.5.4h.5c.3.2.3.2.6 0h.5c.3 0 .3 0 .4-.4.7-1.6 0-2.8-1.6-2.5m-2.8 1c-.9.2-1.2 1.3-.6 2.5.2.4.2.4.5.3h.4c.4.1.4.1.5-.1l.4-.4v-.3c-.3-.4-.4-.9-.4-1.6 0-.5-.2-.6-.8-.4m5.6.4c0 .7-.1 1.2-.4 1.6-.2.2-.2.2 0 .3l.3.4c.2.2.2.2.6.1h.4c.3.1.2.1.5-.3.6-1.4.2-2.5-1-2.6h-.4zm-8 1c-1.4.3-1.9 1.9-1 3 .2.3.2.3.4.1.4-.2.8-.2 1.2-.2h.2c0-.4.3-.7.5-1 .2-.2.2-.2 0-.3-.3-.4-.5-1.2-.5-1.7h-.9zm10.4-.1c0 .5-.3 1.3-.6 1.7-.1.1-.1.1 0 .4.3.2.5.5.6.8 0 .2 0 .2.2.1.4 0 .8 0 1.1.2s.2.2.5 0c.7-1 .5-2.5-.5-3-.4-.2-1.3-.3-1.3-.2m-6.2 1.6c-.9.5-1 1.5-.2 2.7.3.4.3.4.4.3.5-.8 1.9-.8 2.4 0 .1.2.7-.7.9-1.3.2-1.1-1-2.3-1.6-1.5l-.3.6c-.1.4-.3.4-.4 0l-.5-.8zm-6.7.3c-1.7.2-2 2.6-.4 3.7l1.2.5v-.3c-.2-.6 0-1.4.4-1.9l-.2-.4c-.4-.4-.6-.9-.7-1.4 0-.3 0-.3-.3-.2m15.9 0v.3c-.2.5-.4.9-.8 1.3-.2.3-.2.3-.1.4.4.5.6 1.3.4 2v.2l1.2-.5c1.4-1 1.4-3 0-3.6zm-11.1.4c-1.1.2-1.3 2-.4 3.1l.2.2h.1c.5-.3 1-.4 1.8-.2l.2-.4a2.6 2.6 0 0 1 -1.4-2.4v-.2a16 16 0 0 1 -.5 0zm6.3 0c-.2 0-.2 0-.1.3 0 1-.5 1.9-1.4 2.4l.2.4c.8-.2 1.3-.1 1.8.2h.1l.2-.2c.7-.8.7-2.3.1-2.8-.1-.2-.6-.4-.8-.3zm-8.5 1.4c-1.4.4-1.5 2.2-.2 3.4.9.8 0 .6-1-.2-.2-.3-.2-.3-.4-.2-.9 0-2.2-.7-2.9-1.6-.1-.3-.1-.3-.2-.1a15.9 15.9 0 0 0 -3.2 5.7c-.2.7-.2.6 0 .7 4.5.8 7.4 5.5 7.5 11.9 0 1.4 0 1.3.5 1.1.3 0 .4-.2.6-.8 1.1-3 2-4.2 3.7-4.6.3 0 .3 0 .3-.2 0-.3.4-1.2.6-1.3.3-.4.8.3 1 1.3 0 .2 0 .2.3.2 1.6.4 2.5 1.6 3.7 4.6.2.6.3.7.6.8.5.2.4.3.5-1.1 0-6.4 3-11.1 7.4-12 .3 0 .3 0 0-.6-.9-2.6-1.7-4.1-3.1-5.7-.1-.2-.1-.2-.3 0-.7 1-2 1.7-2.8 1.7l-.5.2c-1 .8-1.8 1-1 .2 1-.9 1.2-1.7.8-2.6-.4-.7-1.5-1.1-1.6-.6 0 .9-.4 1.5-1 1.9v.3c.3.5.2 1.2-.3 1.7s-.8.5-.4 0c.5-.5.5-1.2-.1-1.4l-1.4.1c0 .3-.4 1-.6 1.3-.2.2-.3.1-.1-.3.5-1.4 0-2.6-1-2.6s-1.4 1.2-.8 2.6c.1.4 0 .5-.2.3-.2-.3-.5-1-.5-1.3 0-.1-1-.2-1.4 0-.6.1-.6.8-.1 1.4.4.4 0 .4-.4 0-.5-.6-.7-1.3-.4-1.8.2-.2.2-.2 0-.3-.5-.4-.8-1-1-1.9v-.2zm-9.6 8.5c-2 .3-1.7 2.6.6 4.4.8.6.8.6 2 1.2 4.4 2.3 5.5 3.7 5.5 6.7 0 .2.2.2.4.1v-2.2c-.2-3.6-1.7-7-3.8-8.6a6.8 6.8 0 0 0 -4.7-1.6m29.1 0c-3.8.4-6.7 4-7.3 9.1l-.1 3.3c.2.1.4 0 .4-.1 0-3 1.1-4.4 5.5-6.7 1.2-.6 1.2-.6 2-1.2 2.8-2.2 2.5-4.7-.5-4.4m-30.6 4.6c-1.6 1.7-2 5.3-1 7.8 1.4 3.6 6.2 6.9 10.4 7.2 1.8.2 2.3.2 2.1-.1a64 64 0 0 1 -2.4-4.4c-.7-1-.7-1.7-.2-2.3.3-.3.1-1.8-.3-2.8-.3-.4-.3-.4-.5-.1-2.5 3.8-7.7.9-7.6-4.3 0-.7 0-.7-.2-1zm32.8 0c-.2.3-.2.3-.2 1 .1 5.2-5 8-7.6 4.3-.2-.3-.2-.3-.4.1-.5 1-.7 2.5-.3 2.8.5.6.4 1.3-.2 2.3l-.5 1c-.6 1-1.6 3-2 3.4-.1.3-.2.3 1 .2 2.1-.1 3-.3 4.9-1 6.5-3 9.1-8.9 6-13.7-.4-.6-.4-.5-.7-.3zm-31.4 1c-.3 1 .3 3 1.4 4.2.3.3.3.3.2 0-.5-1.3-.3-2.8.4-3.3.1 0-.1-.2-1-.7l-.7-.2c-.3-.2-.3-.2-.3 0m30.1 0-.6.2c-1 .5-1.3.6-1.1.7.7.5.9 2 .4 3.3-.1.3-.1.3.2 0 1-1.1 1.7-3.2 1.4-4.3h-.3zm-15.3 2c-1.4.3-2.6 1.7-3.6 4-.4 1.3-.7 1.4-2.3 1.7-1 .1-1.1.4-.4 1.4.5.8 1.2 1.8 1.8 3l2.3 3.7c2.1 2.6 4 2.2 6.2-1.5l1.2-2.2 1.9-3c.7-1 .6-1.3-.4-1.4-1.6-.3-1.9-.4-2.4-1.6-1.1-2.9-2.7-4.4-4.3-4zm-3.6 5.7c-.4.2-.5.5-.3.8 0 .2.4.4.6.2l.3.1c.6.4.8.3.6-.2-.3-.7-.8-1.1-1.2-.9m7.2 0c-.3.2-.8 1-.7 1.2 0 .2.2.2.7 0l.3-.2c.2.2.5 0 .6-.2.3-.5-.3-1-.9-.8" fill="#22110c" fill-rule="evenodd"/><path d="m33 25.9c-.2 0-.2 0-.1.3 0 1-.5 1.9-1.4 2.4l.2.4c.8-.2 1.3-.1 1.8.2h.1l.2-.2c.7-.8.7-2.3.1-2.8-.1-.2-.6-.4-.8-.3zm4.8-.4v.3c-.2.5-.4.9-.8 1.3-.2.3-.2.3-.1.4.4.5.6 1.3.4 2v.2l1.2-.5c1.4-1 1.4-3 0-3.6zm-3-1.9c0 .5-.3 1.3-.6 1.7-.1.1-.1.1 0 .4.3.2.5.5.6.8 0 .2 0 .2.2.1.4 0 .8 0 1.1.2s.2.2.5 0c.7-1 .5-2.5-.5-3-.4-.2-1.3-.3-1.3-.2m-2.4-.9c0 .7-.1 1.2-.4 1.6-.2.2-.2.2 0 .3l.3.4c.2.2.2.2.6.1h.4c.3.1.2.1.5-.3.6-1.4.2-2.5-1-2.6h-.4zm-2.8-1.4c-1 .2-1.4 1.2-.9 2.5.2.4.2.4.5.4h.5c.3.2.3.2.6 0h.5c.3 0 .3 0 .4-.4.7-1.6 0-2.8-1.6-2.5m-1 3.9c-.9.5-1 1.5-.2 2.7.3.4.3.4.4.3.5-.8 1.9-.8 2.4 0 .1.2.7-.7.9-1.3.2-1.1-1-2.3-1.6-1.5l-.3.6c-.1.4-.3.4-.4 0l-.5-.8zm-1.9.8c-1.1 0-1.3 1.8-.4 3l.2.2h.1c.5-.3 1-.4 1.8-.2l.2-.4a2.6 2.6 0 0 1 -1.4-2.4v-.2a14 14 0 0 1 -.5 0m-2.4-2.4a2 2 0 0 0 -.9 3.1c.2.3.2.3.4.1.4-.2.8-.2 1.2-.2h.2c0-.4.3-.7.5-1 .2-.2.2-.2 0-.3-.3-.4-.5-1.2-.5-1.7zm2.5-1.3c-.9.2-1.2 1.3-.6 2.5.2.4.2.4.5.3h.4c.4.1.4.1.5-.1l.4-.4v-.3c-.3-.4-.4-.9-.4-1.6 0-.5-.2-.6-.8-.4m-4.8 3.2c-1.8.2-2 2.6-.5 3.7l1.2.5v-.3c-.2-.6 0-1.4.4-1.9l-.2-.4c-.4-.4-.6-.9-.7-1.4 0-.3 0-.3-.3-.2z" fill="#2430f0"/><path d="m44 35.8c-3.8.4-6.7 4-7.3 9.1l-.1 3.3c.2.1.4 0 .4-.1 0-3 1.1-4.4 5.5-6.7 1.2-.6 1.2-.6 2-1.2 2.8-2.2 2.5-4.7-.5-4.4" fill="#2be1b7"/><path d="m46.2 40.5c-.2.2-.2.2-.2 1 .1 5-5 8-7.6 4.2-.2-.3-.2-.3-.4.1-.5 1-.6 2.5-.3 2.8.5.6.4 1.3-.2 2.3l-.5 1c-.6 1-1.6 3-2 3.4-.1.3-.2.3 1 .2 2.1-.1 3-.3 4.9-1 6.5-3 9.1-8.9 6-13.7-.4-.6-.4-.5-.7-.3m-32.8-.1c-1.6 1.7-2 5.3-1 7.8 1.4 3.6 6.2 6.9 10.4 7.2 1.8.2 2.3.2 2.1-.1a64 64 0 0 1 -2.4-4.4c-.7-1-.7-1.7-.2-2.3.3-.3.1-1.8-.3-2.8-.3-.4-.3-.4-.5-.1-2.5 3.8-7.7.9-7.6-4.3 0-.7 0-.7-.2-1z" fill="#2be1b7"/><path d="m15 35.8c-2.1.3-1.8 2.6.5 4.4.8.6.8.6 2 1.2 4.4 2.3 5.5 3.7 5.5 6.7 0 .2.2.2.4.1v-2.2c-.2-3.6-1.7-7-3.8-8.6a6.8 6.8 0 0 0 -4.7-1.6z" fill="#2be1b7"/><path d="m24.5 27.3c-1.4.4-1.5 2.2-.2 3.4.9.8 0 .6-1-.2-.2-.3-.2-.3-.4-.2-.9 0-2.2-.7-2.9-1.6-.1-.3-.1-.3-.2-.1a15.9 15.9 0 0 0 -3.2 5.7c-.2.7-.2.6 0 .7 4.5.8 7.4 5.5 7.5 11.9 0 1.4 0 1.3.5 1.1.3 0 .4-.2.6-.8 1.1-3 2-4.2 3.7-4.6.3 0 .3 0 .3-.2 0-.3.4-1.2.6-1.3.3-.4.8.3 1 1.3 0 .2 0 .2.3.2 1.6.4 2.5 1.6 3.7 4.6.2.6.3.7.6.8.5.2.4.3.5-1.1 0-6.4 3-11.1 7.4-12 .3 0 .3 0 0-.6-.9-2.6-1.7-4.1-3.1-5.7-.1-.2-.1-.2-.3 0-.7 1-2 1.7-2.8 1.7l-.5.2c-1 .8-1.8 1-1 .2 1-.9 1.2-1.7.8-2.6-.4-.7-1.5-1.1-1.6-.6 0 .9-.4 1.5-1 1.9v.3c.3.5.2 1.2-.3 1.7s-.8.5-.4 0c.5-.5.5-1.2-.1-1.4l-1.4.1c0 .3-.4 1-.6 1.3-.2.2-.3.1-.1-.3.5-1.4 0-2.6-1-2.6s-1.4 1.2-.8 2.6c.1.4 0 .5-.2.3-.2-.3-.5-1-.5-1.3 0-.1-1-.2-1.4 0-.6.1-.6.8-.1 1.4.4.4 0 .4-.4 0-.5-.6-.7-1.3-.4-1.8.2-.2.2-.2 0-.3-.5-.4-.8-1-1-1.9v-.2z" fill="#2430f0"/><path clip-rule="evenodd" d="m29.6 43.4c-1.3.3-2.6 1.7-3.6 4-.4 1.3-.7 1.4-2.3 1.7-1 .1-1.1.4-.4 1.4.5.8 1.2 1.8 1.8 3l2.3 3.7c2.1 2.6 4 2.2 6.2-1.5l1.2-2.2 1.9-3c.7-1 .6-1.3-.4-1.4-1.6-.3-1.9-.4-2.4-1.6-1.1-2.9-2.7-4.4-4.3-4zm-3.8 6.6c-.2-.3 0-.6.3-.8.4-.2 1 .2 1.2 1 .2.4 0 .5-.6.1h-.3c-.2 0-.5 0-.6-.3m6.8.4c-.1-.2.4-1 .7-1.2.6-.3 1.2.3 1 .8-.2.2-.5.4-.7.2l-.3.1c-.5.3-.6.3-.7.1" fill="#f2c79c" fill-rule="evenodd"/><path clip-rule="evenodd" d="m22.8 15c-.4-1.8-1.8-3.1-3.8-2.8-1.6.3-3 1.5-3.3 2.8l.5 1c1.8 2.4 5 2.2 6.4-.4l.2-.7zm1.8-6.5-.1-.6a6 6 0 0 1 4.7-4.3 5.4 5.4 0 0 1 6.3 4.3l-.1.6c-1.6 4.7-9.2 4.7-10.8 0" fill="#2430f0" fill-rule="evenodd"/><path d="m40 10.4a3.7 3.7 0 0 0 -2.9 4.5 4.2 4.2 0 0 1 3.2-2.7c2-.3 3.5 1.1 4 2.8.7-2.3-1.6-5-4.3-4.6m-15.5-2.5a6 6 0 0 1 4.7-4.3 5.4 5.4 0 0 1 6.3 4.3c.7-3.5-2.7-6.8-6.5-6.1-3 .5-5 3.3-4.5 6zm-5.5 4.3c2-.3 3.4 1 3.8 2.7.7-2.4-1.4-5-4-4.5a3.8 3.8 0 0 0 -3 4.6c.3-1.3 1.6-2.5 3.2-2.8" fill="#2430f0"/><path d="m38.2 16.7c1.6 1.5 4.1 1.2 5.5-.6.3-.3.5-.7.6-1-.5-1.8-2-3.2-4-2.9a4.2 4.2 0 0 0 -3.2 2.7c.2.7.5 1.3 1.1 1.8" fill="#2430f0"/><path clip-rule="evenodd" d="m25.3 6a6.3 6.3 0 0 1 4-2.4c2.3-.4 4.4.7 5.5 2.5l.6-.7a5.7 5.7 0 0 0 -10.7-.2z" fill="#f2c79c" fill-rule="evenodd"/><path d="m25.3 6c.8 1 1.9 2 2 2l1.2-1.1 1.5-1.2c.1 0 .7.5 1.2 1.1l1 1.2c.2 0 1.6-1 2.6-2a5.4 5.4 0 0 0 -5.6-2.4 7 7 0 0 0 -4 2.4zm-9.6 9a4.3 4.3 0 0 1 3.3-2.8 3 3 0 0 1 2.8 1l.2-1.6c-.8-1-2-1.4-3.3-1.2a3.8 3.8 0 0 0 -3 4.5z" fill="#2be1b7"/><path d="m15.7 15c.9.5 2 .7 2.3.5.3-.1.4-.8.4-1.5 0-.6 0-1 .2-1.1l1.2.5c.7.4 1.4.7 1.6.6.1 0 .3-.4.4-.9a3 3 0 0 0 -2.8-.9 4.3 4.3 0 0 0 -3.3 2.7z" fill="#2be1b7"/><path clip-rule="evenodd" d="m37.4 12.5c0 .4 1.1 2.4 1.4 2.5.2 0 .7-.4 1.2-.7s.8-.6 1-.6l.4.6c.3.4.6 1 .8 1a8 8 0 0 0 2.2-1c0-2.2-2-4.3-4.4-3.9-1.2.2-2.2 1-2.6 2z" fill="#2be1b7" fill-rule="evenodd"/><path d="m45 41.3-.7.3c-1 .5-1.3.6-1.1.7.7.5.9 2 .4 3.3-.1.3-.1.3.2 0 1-1.1 1.7-3.2 1.4-4.3h-.3zm-30.2 0c-.3 1.1.3 3.2 1.4 4.3.3.3.3.3.2 0-.5-1.3-.3-2.8.4-3.3.1 0-.1-.2-1-.7l-.7-.2c-.3-.2-.3-.2-.3 0zm27.9 3.2q0-.3-.3-.3s-.2.1-.2.3l.2.2c.2 0 .3-.1.3-.2" fill="#fff"/><path clip-rule="evenodd" d="m35.2 8.9c-2 2-5.8 3.3-10.1.5 2.1 3.6 8.4 3.6 10.1-.4zm-13.2 7.5c-2 .9-4.8 0-6.1-.9l.3.6c1.6 2 4.3 2.1 5.8.3m22-.8c-1.1 1-3.5 1.9-6.3.6l.5.5c1.6 1.5 4.1 1.2 5.5-.6.1-.2.3-.3.3-.5" fill="#22110c" fill-rule="evenodd" opacity=".2"/><path d="m24.5 7.9a6 6 0 0 1 4.7-4.3 5.4 5.4 0 0 1 6.3 4.3c.7-3.5-2.7-6.8-6.5-6.1-3 .5-5 3.3-4.5 6z" fill="#2430f0"/><path clip-rule="evenodd" d="m25.3 6a6.3 6.3 0 0 1 4-2.4c2.3-.4 4.4.7 5.5 2.5l.6-.7a5.7 5.7 0 0 0 -10.7-.2z" fill="#2be1b7" fill-rule="evenodd"/><path clip-rule="evenodd" d="m31.4 22c-.3-.6-1-.9-1.8-.7a1 1 0 0 0 -1 .8c.3-.3 1-.4 1.4-.4s1 0 1.4.3m-3.9.4c-.4 0-1.2.3-1.5.7 0-.4.4-.7.8-.8s.6-.1.7.1m-2.3 1.3v-.1h-.9c-.6.2-1.1.7-1.3 1.3.5-.6 1.3-1.2 2.2-1.2m-4.7 3.5c.2-.7 1-1.4 1.5-1.4h.3a3 3 0 0 1 0-.2l-.1-.1h-.2c-1 0-1.5.8-1.5 1.7m9.1-1.6c-.3-.3-.9-.4-1.6.2l.6-.6h.7zm2.3.2c-.3-.6-1-1-1.3-.4l-.2.2c.3-.2.8-.4 1.5.2m-4.7.3v-.1a14 14 0 0 1 -.5 0c-.6 0-.9.6-1 1.2.2-.7 1-1 1.5-1zm7.6 1.3c.2-.4 1.2 0 1.6.7l.2.5c-.3-.7-1.1-1-1.8-1.2m-3.2 2.7c0-.1 1-.2 1.4 0 .2 0 .3 0 .3.2-.3-.3-1-.2-1.7-.2m-2.6-1.1c.2-.2.5-.4.9-.4s.6.2.8.4c-.2-.2-.5-.3-.8-.3zm-2.5 1.4.4-.3 1.4.1c-.8 0-1.5 0-1.8.2m-1.5-2.9c-.6.2-1.5.5-1.7 1.3 0-.7.4-1.2 1-1.4h.7zm9-4.3c-.2-.5-.6-.8-1.3-.9h-.4v.2c.4 0 1.3.3 1.6.7zm2.8 1.8a1 1 0 0 0 -.8-1c-.4-.3-1.3-.4-1.3-.3v.1c.8 0 1.7.6 2.1 1.2m2.6 2.3c-.2-.7-1-1.4-1.5-1.4h-.3v-.3l.8.1c.6.3 1 1 1 1.6m-5.3-.2c0-.4-.1-.7-.4-.8-.1-.2-.6-.4-.8-.3h.1c-.1 0-.2 0-.2.2.5 0 1.3.2 1.5.9z" fill="#fff" fill-rule="evenodd" opacity=".2"/><path clip-rule="evenodd" d="m45.8 36.1c-1.3 0-3 .4-4 1a11 11 0 0 0 -4.7 6.3c-.1.7-.2.9-.3.8.8-4.7 3.6-8 7.2-8.4.8 0 1.4 0 1.8.3m-31.8 0c1.5-.1 3.1.3 4.3 1a11.3 11.3 0 0 1 4.9 7c-.5-2.8-1.8-5.4-3.6-6.7a6.8 6.8 0 0 0 -4.7-1.6 2 2 0 0 0 -.8.3zm12.6 10.2a4.6 4.6 0 0 1 3.3-1.4c.8 0 2.4.2 3.6 1.6-1.1-2.2-2.5-3.3-4-3-1 .1-2 1.1-3 2.8z" fill="#fff" fill-opacity=".4" fill-rule="evenodd"/><path clip-rule="evenodd" d="m45.2 42-1.7.6-.3-.3c-.2-.1 0-.2 1-.7.3 0 .6-.2.7-.3h.2zm-30.5 0 1.8.6.3-.3c.1 0-.1-.2-1-.7a19 19 0 0 1 -.7-.3h-.3v.6zm7.5 8.5c0 1.1.3 2.5.5 3v.3c.2.5-1.2 1.3-6.6-1.1 2 1.5 4.4 2.5 6.7 2.7 1.8.2 2.3.2 2.1-.1a64 64 0 0 1 -2.7-4.8m21.7 2.2c-5.4 2.4-6.8 1.6-6.7 1.1v-.2c.3-.6.7-2 .6-3.1l-.3.4-.5 1c-.6 1-1.6 3-2 3.4v.2h1c2.1-.1 3-.3 4.9-1zm-19.1.3c1.2 1.9 1.7 2.6 2.3 3.3 2.4 2.6 4.4 2.2 6.9-1.5a46 46 0 0 0 -.4.9c-2.3 3.7-4 4.1-6.2 1.5a24.7 24.7 0 0 1 -2.6-4.2" fill="#22110c" fill-rule="evenodd" opacity=".2"/><path d="m30 40.1c-.5 0-1 3-1.3 3l-.5.5 1.8-.4 2 .6a3 3 0 0 0 -.8-.6c-.2 0-.8-3-1.2-3zm-3-8.1c-.2 0-1-.6-1-1.5.1-.2.4-.5.4-.1s.5 1 .6 1.2c.2.1.3.3 0 .3zm-4.6-1.5c-1 0-2.2-1.3-2.9-2.1l.4-.4 1 1.3 2 .6.4-.6.4.7 1 1c.4.6-1 0-1.2-.1l-.6-.4zm3.1-1.5c-.4-.5-.2-1.1-.3-1.6l1.1 2v.2c-.2 0-.4-.2-.8-.6m3.6 2.6c-.4 0-.7-.9-.7-1.5l.4-.2.2 1c0 .2.5.8.1.7m3.8.4c.2 0 1-.6 1-1.5-.1-.2-.3-.5-.3-.1s-.5 1-.7 1.2c-.1.1-.3.3 0 .3zm4.6-1.5c1 0 2.3-1.3 3-2.1l-.5-.4-.9 1.3-2 .6-.4-.6-.5.7c-.1.3-.6.6-1 1-.3.6 1 0 1.2-.1.2 0 .5-.3.6-.4zm-3.1-1.5c.4-.5.3-1.1.3-1.6l-1 2v.2c.1 0 .4-.2.7-.6m-3.6 2.6c.4 0 .7-.9.7-1.5l-.3-.2-.2 1c-.1.2-.5.8-.2.7" fill="#000" fill-opacity=".2"/><path d="m25.9 50c-.2 0 .2-.2.1-.5.3-.1.7 0 1 .3.5.3.5 1.2.5 1.6s-1.5-1.4-1.6-1.4m8.1 0c.2 0-.2-.2 0-.5-.3-.1-.8 0-1.1.3-.4.4-.4 1.2-.4 1.6s1.5-1.4 1.6-1.4z" fill="#22110c" opacity=".2"/><g clip-rule="evenodd" fill-rule="evenodd"><path d="m18.3 41.3c2.2 1.3 4.2 2.5 4.2 4v.1c-.7-1.4-2.2-2.5-5-4a7.8 7.8 0 0 1 -2-1.2c-1.8-1.4-2.4-3-1.6-4-.6 2.2 2 3.7 4.4 5.1" fill="#22110c" opacity=".2"/><path d="m14 36.2h-.1c-.3 1.1.2 2 1.1 2.8s2.1 1.6 3.4 2.3c1 .6 2 1.2 2.8 1.9.8.6 1.3 1.3 1.3 2v.2c-.7-1.4-2.2-2.5-5-4a17 17 0 0 1 -2-1.2 5 5 0 0 1 -1.8-2.2c-.3-.7-.2-1.3.2-1.7zm-.3 1.8a8.2 8.2 0 0 0 3.7 3.4c2.9 1.5 4.4 2.6 5 4v-.1c0-.8-.4-1.4-1.2-2-.8-.7-1.8-1.4-2.9-2-1.2-.7-2.3-1.3-3.3-2.3-.9-.8-1.4-1.6-1.1-2.7-.4.5-.4 1-.2 1.7m28 3.3c-2.2 1.3-4.2 2.5-4.2 4 .7-1.3 2.2-2.4 5-3.9 1.2-.6 1.2-.6 2-1.2 1.8-1.4 2.3-3 1.6-3.8.5 2-2 3.5-4.4 5z" fill="#22110c" opacity=".2"/><path d="m46.2 38c-.2.8-.8 1.5-1.7 2.2a8.3 8.3 0 0 1 -2 1.3c-2.8 1.4-4.3 2.5-5 3.8 0-.8.5-1.5 1.3-2.1.7-.7 1.8-1.3 2.8-2a14 14 0 0 0 3.4-2.1c.8-.8 1.3-1.7 1.1-2.7.4.4.4 1 .1 1.7zm0-1.5c.3.4.3 1 0 1.6a8.2 8.2 0 0 1 -3.7 3.4c-2.8 1.3-4.3 2.4-5 3.8 0-.8.5-1.4 1.3-2 .8-.7 1.8-1.4 2.9-2 1.2-.7 2.4-1.4 3.3-2.2.8-.8 1.3-1.7 1.2-2.6" fill="#22110c" opacity=".2"/><path d="m13.1 40.8c0 1.7 0 9 8.8 9 0-.5.1-.8.4-1.2.3-.3.1-1.8-.3-2.8l-.3-.3-.2.2c-2.5 3.8-7.7.9-7.6-4.3 0-.7 0-.7-.2-1h-.2z" fill="#000" fill-opacity=".2"/><path d="m47 40.9c0 1.9-.3 9-8.9 9h-.1c0-.5 0-1-.3-1.3-.4-.3-.2-1.8.3-2.8l.2-.3.2.2c2.6 3.8 7.7.9 7.6-4.3v-.8l.2-.1.3-.2.4.5v.1zm-18.5-18.5c0 .4 0 .9.2 1.4.2.4.2.4.5.4h.5c.3.2.3.2.5 0h.6c.2 0 .2 0 .4-.4.3-.5.3-1 .3-1.4-.1.6-.4 1.5-1 1.5a2 2 0 0 1 -.5 0h-.6c-.5 0-.8-.9-1-1.5zm3.4 2c.3-.5.5-1 .5-1.7v-.3a3 3 0 0 1 -.4 2.2c-.2-.1-.2-.1 0-.3zm2.2-.7-.3 1v.2l-.3.3h-.2a1 1 0 0 0 -.4 0h-.1l.3-.2.4-.2c.3-.3.5-.7.6-1zm.7-.1c0 .5-.3 1.3-.6 1.7v.3c.4-.5.8-1.5.6-2m2.2 1.6c0 .3-.2 1-.5 1.2-.3.3-.4.3-.6.2h-.5l.7.2.2.1.2-.2c.4-.4.5-1 .5-1.5m2.5 1.9a3 3 0 0 1 -1 1.9c-.5.5-1 .5-1.1-.2v-.2l-.1.8v.3l1.2-.5c.8-.5 1-1.4 1-2.1m-1.8-1.3c0 .5-.3.9-.7 1.3-.2.3-.2.3-.1.4.4-.3.7-1 .8-1.7m-3.5 1.6c0 .4-.1.8-.3 1-.3.3-.7.4-1 .4l-.7.1c.5 0 .8 0 1.2.3h.1l.2-.2c.3-.4.5-1 .5-1.6m-2.8 1.3c.5-.2 1.3-1 1.3-2 0 .8-.5 1.5-1.3 1.9zm.7-2c-.2.5-.5 1.2-1 1a3 3 0 0 0 -2.2 0c-.5.2-.8-.4-1-.8l.5 1 .3.4v-.1c.6-.8 2-.8 2.5 0 .1.2.7-.6.8-1.3v-.2zm-6.4.7c0 .5.2 1.1.6 1.6l.1.2h.2q.45-.3 1.2-.3c-.3 0-.5-.2-.7-.1-.3 0-.8 0-1-.5-.2-.1-.3-.5-.4-1zm1.5-.8c0 1.1.8 1.9 1.3 2.1v-.1a2.6 2.6 0 0 1 -1.3-2m-1.5-1c.2-.2.2-.2 0-.3-.3-.4-.5-1.2-.5-1.7-.2.5.2 1.5.5 2m-2.7-.4a2 2 0 0 0 .4 1.5l.2.2h.2c.3-.2.5-.3.8-.3h-.6c-.3.1-.4 0-.7-.2l-.4-1.2zm3-1.3a2.8 2.8 0 0 0 .3 1l.1.3h.7c0-.1-.1-.2-.3-.2l-.4-.2a3 3 0 0 1 -.5-1zm1.5-1.5v.3c0 .7.2 1.2.5 1.6v.3a3 3 0 0 1 -.5-2.2m-4.9 6.2v.2c-.1.7-.6.7-1.3.2-.6-.6-.8-1.3-.8-1.8 0 .7.2 1.5 1 2l1.2.5v-.3c-.1-.2-.1-.5 0-.8zm.4-1c.2-.2.2-.2 0-.5a2.3 2.3 0 0 1 -.8-1.5c0 .9.5 1.6.8 2" fill="#22110c" opacity=".2"/></g><path d="m42.8 43.8c0-.4.3-.8.8-.8.4 0 .8.4.8.8s-.4.7-.8.7a.8.8 0 0 1 -.8-.7m-27.2 0c0-.4.3-.8.8-.8.4 0 .7.4.7.8s-.3.7-.7.7a.8.8 0 0 1 -.8-.7m2.1.7q0-.3-.3-.3s-.2.1-.2.3l.2.2c.2 0 .3-.1.3-.2" fill="#fff"/></g></svg>