<svg height="300" viewBox="0 0 400 300" width="400" xmlns="http://www.w3.org/2000/svg"><g transform="translate(-241.19 -49.565)"><path d="m241.19 49.565h399.995v300h-399.995z" fill="#a71011"/><g fill="#fff"><path d="m352.512 196.755h9.658v71.078h-8.737l-47.529-54.74v54.74h-9.558v-71.078h8.234l47.932 55.202z"/><path d="m380.515 196.755h40.29v9.054h-30.113v21.678h29.105v9.111h-29.105v22.066h31.077v9.068h-41.254z"/><path d="m529.4 196.755h10.148l-28.73 71.38h-2.246l-23.232-57.792-23.477 57.792h-2.188l-28.644-71.38h10.249l19.59 48.998 19.72-48.998h9.615l19.806 48.998z"/><path d="m567.12 238.049-7.729-4.692c-4.85-2.966-8.305-5.888-10.364-8.752q-3.065-4.296-3.065-9.889c0-5.599 1.928-10.147 5.815-13.63 3.886-3.499 8.938-5.24 15.142-5.24 5.93 0 11.372 1.655 16.323 4.995v11.543c-5.11-4.922-10.623-7.384-16.524-7.384-3.325 0-6.06.763-8.19 2.303-2.145 1.54-3.21 3.498-3.21 5.902 0 2.13.791 4.117 2.36 5.988 1.57 1.857 4.103 3.8 7.586 5.844l7.773 4.606c8.68 5.167 13.012 11.76 13.012 19.763 0 5.7-1.915 10.335-5.729 13.89-3.814 3.57-8.78 5.34-14.883 5.34-7.01 0-13.416-2.159-19.173-6.463v-12.925c5.498 6.966 11.846 10.435 19.072 10.435 3.195 0 5.844-.878 7.96-2.648 2.13-1.785 3.18-4.002 3.18-6.68 0-4.317-3.108-8.42-9.355-12.306"/><path d="m522.722 152.828-.892.547c-4.347 2.648-9.068 4.073-13.372 4.073-9.183-.028-15.229-5.484-15.243-13.4 0-7.744 6.319-13.488 15.013-13.502 4.433 0 8.449 1.151 13.213 3.757l.878.49v-7.083l-.374-.144c-5.383-2.116-9.543-3.066-13.66-3.066-6.348 0-11.875 2.102-15.804 5.657-3.93 3.57-6.262 8.608-6.262 14.38.015 4.03 1.67 8.737 5.225 12.48 3.541 3.756 9.01 6.477 16.496 6.477h.029c6.218 0 10.522-1.382 14.422-3.296l.331-.173zm11.141 17.532h-56.079v-52.783h56.08z"/><path d="m455.91 152.58c.014-4.793-3.181-8.435-8.291-9.845 1.382-.706 2.476-1.555 3.267-2.606 1.08-1.41 1.584-3.137 1.584-5.153a9.2 9.2 0 0 0 -3.066-6.88c-2.087-1.886-5.254-3.11-9.587-3.11h-11.947v38.016h14.02c5.01 0 8.521-1.354 10.781-3.369 2.274-2 3.239-4.635 3.239-7.053m13.329 17.791h-56.094v-52.783h56.094z"/><path d="m448.933 151.822c0 1.252-.389 2.519-1.511 3.497-1.123.994-3.066 1.742-6.276 1.742h-6.477v-10.378h6.189c2.879 0 4.923.59 6.204 1.497 1.28.921 1.857 2.13 1.871 3.642"/><path d="m443.69 139.398c1.21-.863 1.786-2.101 1.8-3.93-.014-1.266-.374-2.36-1.281-3.166s-2.462-1.382-4.966-1.382h-4.577v9.831h3.152c2.706 0 4.664-.475 5.873-1.353"/><path d="m391.288 152.58c.014-4.793-3.181-8.435-8.291-9.845 1.382-.706 2.476-1.555 3.267-2.606 1.08-1.41 1.584-3.137 1.584-5.153a9.2 9.2 0 0 0 -3.066-6.88c-2.087-1.886-5.254-3.11-9.587-3.11h-11.961v38.016h14.034c5.01 0 8.521-1.354 10.781-3.369 2.26-2 3.239-4.635 3.239-7.053m13.329 17.791h-56.08v-52.783h56.08z"/><path d="m379.066 139.398c1.195-.863 1.785-2.101 1.8-3.93 0-1.266-.375-2.36-1.282-3.166s-2.461-1.382-4.966-1.382h-4.563v9.831h3.138c2.706 0 4.664-.475 5.873-1.353"/><path d="m382.44 148.186c-1.281-.907-3.325-1.497-6.204-1.497h-6.19v10.378h6.478c3.21 0 5.139-.749 6.276-1.742 1.108-.979 1.497-2.245 1.511-3.498-.014-1.51-.59-2.72-1.871-3.641"/></g></g></svg>