<svg display="block" pointer-events="none" viewBox="0 0 24 24" xmlns="http://www.w3.org/2000/svg"><path d="m4.54 9.46-2.35-2.36a6.93 6.93 0 0 0 0 9.79l2.36-2.36a3.59 3.59 0 0 1 -.01-5.07" fill="#e8710a"/><path d="m2.19 7.1 2.35 2.36a3.59 3.59 0 0 1 5.08 0l1.71-2.93-.1-.08a6.93 6.93 0 0 0 -9.04.65m9.15 10.36-1.72-2.92a3.59 3.59 0 0 1 -5.08 0l-2.35 2.36a6.93 6.93 0 0 0 9 .65l.11-.09m.7-10.36a6.93 6.93 0 0 0 0 9.79l2.36-2.36a3.59 3.59 0 1 1 5.08-5.08l2.37-2.35a6.93 6.93 0 0 0 -9.81 0" fill="#f9ab00"/><path d="m21.81 7.1-2.35 2.36a3.59 3.59 0 0 1 -5.08 5.08l-2.38 2.36a6.93 6.93 0 0 0 9.81-9.8" fill="#e8710a"/></svg>