<svg xmlns="http://www.w3.org/2000/svg" width="18" height="18" viewBox="0 0 18 18"><defs><mask id="a"><path fill="#fff" d="M0 0h18v18H0z"/><path d="M11.95 10.924a3.26 3.26 0 0 1 3.25-3.26 3.25 3.25 0 0 1 2.77 1.556V1.437a.6.6 0 0 0-.6-.6H.6a.6.6 0 0 0-.6.6v11.379a.6.6 0 0 0 .6.6h12.509a3.27 3.27 0 0 1-1.159-2.492"/><path d="M4.398 7.194a1.53 1.53 0 0 1-.811-.244l.811 2.145.82-2.13c-.247.151-.531.23-.82.229"/><path d="M13.267 7.823H8.57a.741.741 0 0 0 0 1.482h3.211c.284-.592.712-1.144 1.486-1.483z"/><path d="M18 10.924c0-1.552-1.254-2.81-2.8-2.81s-2.8 1.258-2.8 2.81c0 .948.469 1.784 1.185 2.293l-.18 3.598a.31.31 0 0 0 .529.233l1.217-.771 1.208.782a.31.31 0 0 0 .531-.229l-.139-3.566a2.81 2.81 0 0 0 1.25-2.339z"/><path d="M14.652 12.251a.33.33 0 0 1-.237-.098l-.971-.971a.335.335 0 0 1 .472-.472l.735.737 1.8-1.801a.335.335 0 0 1 .472.472l-2.036 2.036a.33.33 0 0 1-.236.096z"/><path d="M7.828 4.128h7.631v1.483H7.828z"/><circle cx="4.388" cy="5.661" r="1.533"/></mask></defs><path fill="currentColor" d="M6.616 10.125a.47.47 0 0 0 .486-.452v-.014a.3.3 0 0 0 0-.058C6.909 8.069 6.039 6.83 4.379 6.83S1.811 7.884 1.631 9.589a.49.49 0 0 0 .438.535z" mask="url(#a)"/></svg>