<svg height="18" viewBox="0 0 18 18" width="18" xmlns="http://www.w3.org/2000/svg" xmlns:xlink="http://www.w3.org/1999/xlink"><linearGradient id="a" gradientUnits="userSpaceOnUse" x1="8.985" x2="8.985" y1="13.416" y2=".837"><stop offset=".089" stop-color="#225086"/><stop offset=".458" stop-color="#0055c5"/></linearGradient><linearGradient id="b" gradientUnits="userSpaceOnUse" x1="15.2" x2="15.2" y1="17.152" y2="8.114"><stop offset="0" stop-color="#0294e4"/><stop offset=".192" stop-color="#23aced"/><stop offset=".398" stop-color="#40c1f4"/><stop offset=".603" stop-color="#55d0fa"/><stop offset=".805" stop-color="#61d9fd"/><stop offset="1" stop-color="#6df"/></linearGradient><path d="m11.95 10.924a3.26 3.26 0 0 1 3.25-3.26 3.25 3.25 0 0 1 2.77 1.556v-7.783a.6.6 0 0 0 -.6-.6h-16.77a.6.6 0 0 0 -.6.6v11.379a.6.6 0 0 0 .6.6h12.509a3.27 3.27 0 0 1 -1.159-2.492" fill="url(#a)"/><path d="m6.616 10.125a.47.47 0 0 0 .486-.452v-.014a.3.3 0 0 0 0-.058c-.193-1.532-1.063-2.771-2.723-2.771s-2.568 1.054-2.748 2.759a.49.49 0 0 0 .438.535z" fill="#6df"/><path d="m4.398 7.194a1.53 1.53 0 0 1 -.811-.244l.811 2.145.82-2.13c-.247.151-.531.23-.82.229" fill="#f2f2f2"/><g fill="#6df"><circle cx="4.388" cy="5.661" r="1.533"/><rect height="1.483" rx=".741" width="7.631" x="7.828" y="4.128"/><path d="m13.267 7.823h-4.697a.741.741 0 0 0 0 1.482h3.211c.284-.592.712-1.144 1.486-1.483z"/></g><path d="m18 10.924c0-1.552-1.254-2.81-2.8-2.81s-2.8 1.258-2.8 2.81c0 .948.469 1.784 1.185 2.293l-.18 3.598a.31.31 0 0 0 .529.233l1.217-.771 1.208.782a.31.31 0 0 0 .531-.229l-.139-3.566a2.81 2.81 0 0 0 1.25-2.339z" fill="url(#b)"/><path d="m14.652 12.251a.33.33 0 0 1 -.237-.098l-.971-.971a.335.335 0 0 1 .472-.472l.735.737 1.8-1.801a.335.335 0 0 1 .472.472l-2.036 2.036a.33.33 0 0 1 -.236.096z" fill="#fff"/></svg>