<svg height="48" viewBox="0 0 48 48" width="48" xmlns="http://www.w3.org/2000/svg"><path d="m23.7 25.312a2.8 2.8 0 0 1 2.799 2.797 2.8 2.8 0 0 1 -2.798 2.798 2.8 2.8 0 0 1 -2.798-2.797 2.8 2.8 0 0 1 2.797-2.8m-4.797 2.797a4.806 4.806 0 0 0 3.828 4.7v7.04h2v-7.06c2.15-.474 3.768-2.389 3.768-4.68 0-.573-.118-1.115-.304-1.626l6.534-3.774-1-1.732-6.586 3.805a4.77 4.77 0 0 0 -3.442-1.47 4.77 4.77 0 0 0 -3.443 1.47l-6.585-3.805-1 1.732 6.533 3.774a4.7 4.7 0 0 0 -.303 1.627m13.024-2.489a8.589 8.589 0 0 1 -6.078 10.81l-.498-1.937a6.59 6.59 0 0 0 4.947-6.384c0-.652-.095-1.29-.284-1.902zm-9.875 8.873-.498 1.938a8.59 8.59 0 0 1 -6.08-10.81l1.914.587a6.589 6.589 0 0 0 4.664 8.286m-2.954-11.109-1.398-1.427a8.53 8.53 0 0 1 6-2.443c2.26 0 4.39.866 6.003 2.442l-1.398 1.43a6.55 6.55 0 0 0 -4.604-1.873 6.55 6.55 0 0 0 -4.603 1.872m-5.66-19.385h20.527l4.433 5.897h-29.394zm-6.438 7.897h33.4a1 1 0 0 0 .799-1.601l-5.936-7.896a1 1 0 0 0 -.8-.4h-21.523a1 1 0 0 0 -.8.4l-5.937 7.896a1 1 0 0 0 .797 1.601m1.06 32.216h31.34v-28.706h-31.34zm32.34-30.706h-33.34a1 1 0 0 0 -1 1v30.708a1 1 0 0 0 1 1h33.34a1 1 0 0 0 1-1v-30.709a1 1 0 0 0 -1-1" fill="#7aa116" fill-rule="evenodd"/></svg>