<svg fill="#f6bf29" viewBox="0 0 128 128" xmlns="http://www.w3.org/2000/svg"><path d="m63.984 0c-9.4488 0-17.109 4.4297-17.109 9.8984 0 5.4648 7.6606 9.8984 17.109 9.8984 9.4492 0 17.109-4.4336 17.109-9.8984 0-5.4688-7.6606-9.8984-17.109-9.8984zm-32.254 18.602c-9.4488 0-17.109 4.4336-17.109 9.8984s7.6606 9.8984 17.109 9.8984c9.4492 0 17.109-4.4336 17.109-9.8984s-7.6606-9.8984-17.109-9.8984zm64.551 0c-9.4488 0-17.109 4.4336-17.109 9.8984s7.6606 9.8984 17.109 9.8984c9.4492 0 17.109-4.4336 17.109-9.8984s-7.6606-9.8984-17.109-9.8984zm-32.297 18.645c-9.4488 0-17.109 4.4297-17.109 9.8984 0 5.4648 7.6606 9.8984 17.109 9.8984 9.4492 0 17.109-4.4336 17.109-9.8984 0-5.4688-7.6606-9.8984-17.109-9.8984zm-54.014 3.5703c-1.0547.031685-2.0448.29266-2.9316.80469-4.7344 2.7344-4.7422 11.582-.019531 19.766 4.7227 8.1836 12.391 12.602 17.125 9.8672 4.7344-2.7344 4.7422-11.582.019531-19.766-3.8404-6.646-9.6229-10.809-14.193-10.672zm108.04.021485c-4.5726-.13931-10.355 4.0239-14.195 10.67-4.7227 8.1836-4.7148 17.035.01953 19.766 4.7344 2.7344 12.402-1.6836 17.125-9.8672h.00196c4.7227-8.1797 4.7188-17.031-.01563-19.762-.8877-.5127-1.8803-.77449-2.9355-.80664zm-32.252 18.621c-4.5726-.13931-10.355 4.0239-14.195 10.67-4.7227 8.1836-4.7148 17.031.019531 19.766 4.7343 2.735 12.402-1.6836 17.125-9.8672 4.7266-8.1797 4.7148-17.031-.015625-19.762-.8877-.5127-1.8784-.77449-2.9336-.80664zm-43.525.009766c-1.0547.031882-2.0448.29266-2.9316.80469-4.7344 2.7344-4.7422 11.582-.019531 19.766 4.7227 8.1836 12.391 12.602 17.125 9.8672 4.7344-2.7344 4.7422-11.582.019531-19.766-3.8404-6.6492-9.6229-10.81-14.193-10.672zm-32.252 18.633c-1.0552.031685-2.046.29266-2.9336.80469-4.7305 2.7344-4.7422 11.582-.015625 19.766 4.7227 8.1836 12.391 12.602 17.125 9.8672 4.7344-2.7344 4.7422-11.582.019531-19.766-3.8404-6.646-9.6227-10.809-14.195-10.672zm108.05.013672c-4.5705-.13931-10.353 4.0239-14.193 10.67-4.7227 8.1836-4.7148 17.031.01953 19.766 4.7343 2.735 12.402-1.6836 17.125-9.8672 4.7227-8.1797 4.7148-17.031-.01953-19.762-.88697-.5127-1.8769-.77449-2.9316-.80664zm-32.256 18.615c-4.5716-.13722-10.351 4.0239-14.191 10.67-4.7227 8.1836-4.7148 17.033.019531 19.768 4.7305 2.7344 12.398-1.6836 17.125-9.8672 4.7227-8.1836 4.7148-17.033-.019531-19.768-.8877-.51197-1.8786-.77107-2.9336-.80273zm-43.531.021484c-1.0552.031882-2.046.29266-2.9336.80469-4.7344 2.7344-4.7422 11.582-.015625 19.766 4.7227 8.1836 12.391 12.602 17.125 9.8672 4.7344-2.7344 4.7422-11.582.015625-19.766-3.8372-6.6492-9.6189-10.81-14.191-10.672z"/></svg>