<svg xmlns="http://www.w3.org/2000/svg" width="18" height="18" viewBox="0 0 18 18"><defs><mask id="a"><path fill="#fff" d="M0 0h18v18H0z"/><path d="M3.847 4.141a8.07 8.07 0 0 1 5.536-2.224 5.2 5.2 0 0 0-.928-.895 8.9 8.9 0 0 0-2.914.683 7.8 7.8 0 0 0-2.533 1.752c.346.131.64.371.839.683zM1.231 6.266a11 11 0 0 0-.52 1.627q.173.299.387.571.16.211.342.404c.15-.74.375-1.462.671-2.156a1.7 1.7 0 0 1-.88-.447z" opacity=".6"/></mask></defs><g fill="currentColor" mask="url(#a)"><path d="M6.799 11.383H18v6.245a.374.374 0 0 1-.374.374H7.174a.374.374 0 0 1-.374-.374z"/><path d="M17.624 8.997H7.174a.374.374 0 0 0-.374.374v2.012h11.199V9.371a.374.374 0 0 0-.374-.374z"/><path d="M6.048 9.475c0-.678.505-1.229 1.126-1.229h2.433a5.281 5.281 0 0 0-7.504-7.217l-.057.038a5.281 5.281 0 0 0 4.002 9.401z"/></g><path fill="currentColor" d="M1.84 3.445a7.4 7.4 0 0 1-.428-1.827q-.392.412-.683.901.105.756.354 1.478c.195-.253.457-.445.758-.553z" opacity=".55"/><circle cx="2.411" cy="5.042" r="1.696" fill="currentColor"/><path fill="currentColor" d="M4.886 8.143c0-.298.122-.582.336-.789a7.4 7.4 0 0 1-1.573-1.156 1.7 1.7 0 0 1-.928.516q.422.431.901.796.598.45 1.273.773a1 1 0 0 1-.01-.139z" opacity=".55"/><path fill="currentColor" d="M7.344 5.197c.056-.242.189-.459.38-.618a15.8 15.8 0 0 1-2.772-2.575A10.5 10.5 0 0 1 3.71.191q-.348.105-.677.261c.374.704.822 1.366 1.336 1.975a16.4 16.4 0 0 0 2.976 2.771z" opacity=".7"/><circle cx="8.5" cy="5.408" r="1.174" fill="currentColor"/><path fill="currentColor" d="m10.47 6.198-.218-.106-.186-.099h-.037l-.162-.131h-.043l-.193-.124c-.067.229-.206.43-.397.572q.115.072.236.137l.049.031.217.118.535.28q.113-.339.18-.69z" opacity=".55"/><path fill="currentColor" d="M7.084 8.25q.005-.053.005-.108a1.106 1.106 0 1 0-1.106 1.106q.043 0 .085-.004c.094-.536.507-.949 1.015-.994z"/><circle cx="2.411" cy="5.042" r="1.696" fill="currentColor"/><path fill="currentColor" d="M9.577 8.245h.044l.01-.013-.165.013zm-2.403 0h1.018a7.4 7.4 0 0 1-1.108-.171.3.3 0 0 1 0 .069 1 1 0 0 1-.005.108 1 1 0 0 1 .095-.005z" opacity=".55"/></svg>