<svg height="18" viewBox="0 0 18 18" width="18" xmlns="http://www.w3.org/2000/svg" xmlns:xlink="http://www.w3.org/1999/xlink"><linearGradient id="a" gradientTransform="matrix(1 0 0 -1 4 785.516)" gradientUnits="userSpaceOnUse" x1="8.4" x2="8.4" y1="767.514" y2="774.133"><stop offset="0" stop-color="#32bedd"/><stop offset="1" stop-color="#50e6ff"/></linearGradient><linearGradient id="b" gradientUnits="userSpaceOnUse" x1="12.399" x2="12.399" y1="11.383" y2="8.997"><stop offset="0" stop-color="#34bddc"/><stop offset="1" stop-color="#34bddc"/></linearGradient><linearGradient id="c" gradientUnits="userSpaceOnUse" x1="2.425" x2="2.405" y1="6.782" y2="4.327"><stop offset="0" stop-color="#d2d2d2"/><stop offset="1" stop-color="#fff"/></linearGradient><path d="m6.799 11.383h11.201v6.245a.374.374 0 0 1 -.374.374h-10.452a.374.374 0 0 1 -.374-.374z" fill="url(#a)"/><path d="m17.624 8.997h-10.45a.374.374 0 0 0 -.374.374v2.012h11.199v-2.012a.374.374 0 0 0 -.374-.374z" fill="url(#b)"/><g fill="#f2f2f2"><path d="m9.005 14.344.229-.228 1.799 1.805c.04.04.04.106 0 .146l-.229.228a.104.104 0 0 1 -.146 0l-1.654-1.659a.21.21 0 0 1 0-.293z"/><path d="m9.23 14.866-.228-.229a.21.21 0 0 1 0-.293l1.687-1.683c.04-.04.106-.04.146 0l.228.229c.04.04.04.106 0 .146zm4.635 1.431-.229-.228a.103.103 0 0 1 0-.146l1.802-1.807.229.228a.207.207 0 0 1 0 .293l-1.656 1.661a.103.103 0 0 1 -.146 0z"/><path d="m13.601 12.892.228-.229a.103.103 0 0 1 .146 0l1.687 1.683a.207.207 0 0 1 0 .293l-.228.229-1.833-1.827a.103.103 0 0 1 -.003-.146h.001z"/><rect height=".531" rx=".074" transform="matrix(.30489754 -.95238516 .95238516 .30489754 -5.148491 21.809866)" width="5.03" x="9.852" y="14.166"/></g><path d="m6.048 9.475c0-.678.505-1.229 1.126-1.229h2.433a5.281 5.281 0 0 0 -7.504-7.217l-.057.038a5.281 5.281 0 0 0 4.002 9.401z" fill="#2a80c2"/><path d="m3.847 4.141a8.07 8.07 0 0 1 5.536-2.224 5.2 5.2 0 0 0 -.928-.895 8.9 8.9 0 0 0 -2.914.683 7.8 7.8 0 0 0 -2.533 1.752c.346.131.64.371.839.683zm-2.616 2.125a11 11 0 0 0 -.52 1.627q.173.299.387.571.16.211.342.404c.15-.74.375-1.462.671-2.156a1.7 1.7 0 0 1 -.88-.447z" fill="#fff" opacity=".6"/><path d="m1.84 3.445a7.4 7.4 0 0 1 -.428-1.827q-.392.412-.683.901.105.756.354 1.478c.195-.253.457-.445.758-.553z" fill="#f3f3f3" opacity=".55"/><circle cx="2.411" cy="5.042" fill="url(#c)" r="1.696"/><path d="m4.886 8.143c0-.298.122-.582.336-.789a7.4 7.4 0 0 1 -1.573-1.156 1.7 1.7 0 0 1 -.928.516q.422.431.901.796.598.45 1.273.773a1 1 0 0 1 -.01-.139z" fill="#f3f3f3" opacity=".55"/><path d="m7.344 5.197c.056-.242.189-.459.38-.618a15.8 15.8 0 0 1 -2.772-2.575 10.5 10.5 0 0 1 -1.242-1.813q-.348.105-.677.261c.374.704.822 1.366 1.336 1.975a16.4 16.4 0 0 0 2.976 2.771z" fill="#f3f3f3" opacity=".7"/><circle cx="8.5" cy="5.408" fill="#f2f2f2" r="1.174"/><path d="m10.47 6.198-.218-.106-.186-.099h-.037l-.162-.131h-.043l-.193-.124c-.067.229-.206.43-.397.572q.115.072.236.137l.049.031.217.118.535.28q.113-.339.18-.69z" fill="#f3f3f3" opacity=".55"/><path d="m7.084 8.25q.005-.053.005-.108a1.106 1.106 0 1 0 -1.106 1.106q.043 0 .085-.004c.094-.536.507-.949 1.015-.994z" fill="#f2f2f2"/><circle cx="2.411" cy="5.042" fill="#f2f2f2" r="1.696"/><path d="m9.577 8.245h.044l.01-.013q-.082.007-.165.013zm-2.403 0h1.018a7.4 7.4 0 0 1 -1.108-.171.3.3 0 0 1 0 .069 1 1 0 0 1 -.005.108 1 1 0 0 1 .095-.005z" fill="#f3f3f3" opacity=".55"/></svg>