<svg height="73" viewBox="0 0 64 73" width="64" xmlns="http://www.w3.org/2000/svg"><path d="m13.482285 60.694962-12.483901-7.810563v-33.381485l30.529484-17.501709 29.789736 17.530819v35.112866l-30.262749 17.04438-10.506483-6.573463v-14.074479-1.921432l-5.696868-3.564388v-18.102349l16.494993-9.456039 16.117988 9.485142v18.968895l-12.76099 7.186981v-7.639565c3.825245-1.473053 6.570957-5.259384 6.570957-9.728084 0-5.759831-4.561638-10.386109-10.116314-10.386109-5.554966 0-10.116321 4.626278-10.116321 10.386109 0 4.4687 2.745432 8.255031 6.570677 9.728084v14.475003l3.648639 2.282772 22.37435-12.601708v-26.230045l-22.157994-13.039726-22.796985 13.068836v24.675262l4.801781 3.00433zm17.675853-29.196579c2.513684 0 4.502301 2.165779 4.502301 4.772106 0 2.606315-1.988617 4.772098-4.502301 4.772098-2.513691 0-4.50258-2.165783-4.50258-4.772098 0-2.606327 1.988889-4.772106 4.50258-4.772106z" fill="#123678" fill-rule="evenodd"/></svg>