<svg height="48" viewBox="0 0 48 48" width="48" xmlns="http://www.w3.org/2000/svg"><path d="m2 4h44v-2h-44zm0 42h44v-2h-44zm28.887-12.384 7.724 2.08 5.202-19.312-7.725-2.08zm8.43 4.306a1 1 0 0 1 -.259-.034l-9.657-2.601a1.002 1.002 0 0 1 -.706-1.226l5.722-21.243a1.003 1.003 0 0 1 1.226-.706l9.655 2.601c.533.144.849.692.706 1.226l-5.721 21.243a1 1 0 0 1 -.966.74m-22.317-3.922h8v-20h-8zm9 2h-10a1 1 0 0 1 -1-1v-22a1 1 0 0 1 1-1h10a1 1 0 0 1 1 1v22a1 1 0 0 1 -1 1m-22-2h8v-20h-8zm9 2h-10a1 1 0 0 1 -1-1v-22a1 1 0 0 1 1-1h10a1 1 0 0 1 1 1v22a1 1 0 0 1 -1 1" fill="#c925d1" fill-rule="evenodd"/></svg>