<svg height="24" width="24" xmlns="http://www.w3.org/2000/svg"><path d="m2 4h20v7h-20z" fill="#aecbfa"/><path d="m20 4h2v7h-2z" fill="#669df6"/><path d="m22 4h-2v7z" fill="#4285f4"/><path d="m2 4h2v7h-2z" fill="#669df6"/><path d="m6 7h6v1h-6z" fill="#fff"/><rect fill="#fff" height="3" rx="1.5" width="3" x="15" y="6"/><path d="m2 13h20v7h-20z" fill="#aecbfa"/><path d="m20 13h2v7h-2z" fill="#669df6"/><path d="m22 13h-2v7z" fill="#4285f4"/><path d="m2 13h2v7h-2z" fill="#669df6"/><g fill="#fff"><path d="m6 16h6v1h-6z"/><rect height="3" rx="1.5" width="3" x="15" y="15"/></g></svg>