<svg xmlns="http://www.w3.org/2000/svg" width="18" height="18" viewBox="0 0 18 18"><defs><mask id="a"><path fill="#fff" d="M0 0h18v18H0z"/><path d="M11.031 6.661a1.025 1.025 0 1 1-1.025 1.025 1.025 1.025 0 0 1 1.025-1.025M6.737 7.7a1.025 1.025 0 1 0 1.025-1.03A1.025 1.025 0 0 0 6.737 7.7m-3.27 0a1.025 1.025 0 1 0 1.025-1.03A1.025 1.025 0 0 0 3.467 7.7" opacity=".8"/></mask></defs><g fill="currentColor" mask="url(#a)"><path d="M.9 2.476h13.723a.844.844 0 0 1 .9.774v9.386a.846.846 0 0 1-.9.774H9.007a.17.17 0 0 0-.091.027l-2.881 1.9a.3.3 0 0 1-.481-.205v-1.593a.14.14 0 0 0-.15-.129H.9a.845.845 0 0 1-.9-.774V3.25a.846.846 0 0 1 .9-.774"/></g><circle cx="13.926" cy="11.45" r="4.074" fill="currentColor"/><path fill="currentColor" d="m16.164 13.638-.537-.814a.3.3 0 0 0-.4-.1l-.385.207a.194.194 0 0 1-.23-.034 6 6 0 0 1-.689-.828l-.308-.523a6 6 0 0 1-.365-1.014.2.2 0 0 1 .087-.216l.373-.227a.3.3 0 0 0 .114-.39l-.424-.875a.285.285 0 0 0-.372-.133 1.72 1.72 0 0 0-.78.971c-.352.815.28 1.774.747 2.59H13c.467.816.976 1.846 1.856 1.956a1.72 1.72 0 0 0 1.232-.182.283.283 0 0 0 .076-.388"/></svg>