<svg height="18" viewBox="0 0 18 18" width="18" xmlns="http://www.w3.org/2000/svg" xmlns:xlink="http://www.w3.org/1999/xlink"><linearGradient id="a" gradientUnits="userSpaceOnUse" x1="7.762" x2="7.762" y1="2.476" y2="15.391"><stop offset=".002" stop-color="#a67af4"/><stop offset="1" stop-color="#773adc"/></linearGradient><linearGradient id="b" gradientUnits="userSpaceOnUse" x1="13.926" x2="13.926" y1="7.376" y2="15.524"><stop offset="0" stop-color="#c3f1ff"/><stop offset="1" stop-color="#50e6ff"/></linearGradient><path d="m.9 2.476h13.723a.844.844 0 0 1 .9.774v9.386a.846.846 0 0 1 -.9.774h-5.616a.17.17 0 0 0 -.091.027l-2.881 1.9a.3.3 0 0 1 -.481-.205v-1.593a.14.14 0 0 0 -.15-.129h-4.504a.845.845 0 0 1 -.9-.774v-9.386a.846.846 0 0 1 .9-.774" fill="url(#a)"/><path d="m11.031 6.661a1.025 1.025 0 1 1 -1.025 1.025 1.025 1.025 0 0 1 1.025-1.025m-4.294 1.039a1.025 1.025 0 1 0 1.025-1.03 1.025 1.025 0 0 0 -1.025 1.03m-3.27 0a1.025 1.025 0 1 0 1.025-1.03 1.025 1.025 0 0 0 -1.025 1.03" fill="#fff" opacity=".8"/><circle cx="13.926" cy="11.45" fill="url(#b)" r="4.074"/><path d="m16.164 13.638-.537-.814a.3.3 0 0 0 -.4-.1l-.385.207a.194.194 0 0 1 -.23-.034 6 6 0 0 1 -.689-.828l-.308-.523a6 6 0 0 1 -.365-1.014.2.2 0 0 1 .087-.216l.373-.227a.3.3 0 0 0 .114-.39l-.424-.875a.285.285 0 0 0 -.372-.133 1.72 1.72 0 0 0 -.78.971c-.352.815.28 1.774.747 2.59h.005c.467.816.976 1.846 1.856 1.956a1.72 1.72 0 0 0 1.232-.182.283.283 0 0 0 .076-.388" fill="#0078d4"/>​</svg>