<svg fill="none" height="46" viewBox="0 0 48 46" width="48" xmlns="http://www.w3.org/2000/svg" xmlns:xlink="http://www.w3.org/1999/xlink"><filter id="a" color-interpolation-filters="sRGB" filterUnits="userSpaceOnUse" height="27.618" width="61.384" x="-7.294" y="32.167"><feFlood flood-opacity="0" result="BackgroundImageFix"/><feBlend in="SourceGraphic" in2="BackgroundImageFix" result="shape"/><feGaussianBlur result="effect1_foregroundBlur_2002_17235" stdDeviation="4.596"/></filter><filter id="b" color-interpolation-filters="sRGB" filterUnits="userSpaceOnUse" height="36.43" width="58.495" x="12.335" y="25.797"><feFlood flood-opacity="0" result="BackgroundImageFix"/><feBlend in="SourceGraphic" in2="BackgroundImageFix" result="shape"/><feGaussianBlur result="effect1_foregroundBlur_2002_17235" stdDeviation="4.596"/></filter><filter id="c" color-interpolation-filters="sRGB" filterUnits="userSpaceOnUse" height="36.43" width="58.495" x="-24.046" y="25.797"><feFlood flood-opacity="0" result="BackgroundImageFix"/><feBlend in="SourceGraphic" in2="BackgroundImageFix" result="shape"/><feGaussianBlur result="effect1_foregroundBlur_2002_17235" stdDeviation="4.596"/></filter><filter id="d" color-interpolation-filters="sRGB" filterUnits="userSpaceOnUse" height="28.706" width="28.672" x="17.592" y="14.539"><feFlood flood-opacity="0" result="BackgroundImageFix"/><feBlend in="SourceGraphic" in2="BackgroundImageFix" result="shape"/><feGaussianBlur result="effect1_foregroundBlur_2002_17235" stdDeviation="4.596"/></filter><filter id="e" color-interpolation-filters="sRGB" filterUnits="userSpaceOnUse" height="28.706" width="28.672" x="19.507" y="11.093"><feFlood flood-opacity="0" result="BackgroundImageFix"/><feBlend in="SourceGraphic" in2="BackgroundImageFix" result="shape"/><feGaussianBlur result="effect1_foregroundBlur_2002_17235" stdDeviation="4.596"/></filter><filter id="f" color-interpolation-filters="sRGB" filterUnits="userSpaceOnUse" height="28.706" width="28.672" x="19.123" y="-8.055"><feFlood flood-opacity="0" result="BackgroundImageFix"/><feBlend in="SourceGraphic" in2="BackgroundImageFix" result="shape"/><feGaussianBlur result="effect1_foregroundBlur_2002_17235" stdDeviation="4.596"/></filter><filter id="g" color-interpolation-filters="sRGB" filterUnits="userSpaceOnUse" height="28.706" width="28.672" x="20.272" y="-9.587"><feFlood flood-opacity="0" result="BackgroundImageFix"/><feBlend in="SourceGraphic" in2="BackgroundImageFix" result="shape"/><feGaussianBlur result="effect1_foregroundBlur_2002_17235" stdDeviation="4.596"/></filter><filter id="h" color-interpolation-filters="sRGB" filterUnits="userSpaceOnUse" height="28.706" width="28.672" x="1.124" y="15.305"><feFlood flood-opacity="0" result="BackgroundImageFix"/><feBlend in="SourceGraphic" in2="BackgroundImageFix" result="shape"/><feGaussianBlur result="effect1_foregroundBlur_2002_17235" stdDeviation="4.596"/></filter><filter id="i" color-interpolation-filters="sRGB" filterUnits="userSpaceOnUse" height="28.706" width="28.672" x="-1.557" y="11.859"><feFlood flood-opacity="0" result="BackgroundImageFix"/><feBlend in="SourceGraphic" in2="BackgroundImageFix" result="shape"/><feGaussianBlur result="effect1_foregroundBlur_2002_17235" stdDeviation="4.596"/></filter><filter id="j" color-interpolation-filters="sRGB" filterUnits="userSpaceOnUse" height="28.706" width="28.672" x="-1.557" y="-8.055"><feFlood flood-opacity="0" result="BackgroundImageFix"/><feBlend in="SourceGraphic" in2="BackgroundImageFix" result="shape"/><feGaussianBlur result="effect1_foregroundBlur_2002_17235" stdDeviation="4.596"/></filter><filter id="k" color-interpolation-filters="sRGB" filterUnits="userSpaceOnUse" height="28.706" width="28.672" x="-1.939" y="-10.353"><feFlood flood-opacity="0" result="BackgroundImageFix"/><feBlend in="SourceGraphic" in2="BackgroundImageFix" result="shape"/><feGaussianBlur result="effect1_foregroundBlur_2002_17235" stdDeviation="4.596"/></filter><filter id="l" color-interpolation-filters="sRGB" filterUnits="userSpaceOnUse" height="36.133" width="36.034" x="-8.858" y="-.482"><feFlood flood-opacity="0" result="BackgroundImageFix"/><feBlend in="SourceGraphic" in2="BackgroundImageFix" result="shape"/><feGaussianBlur result="effect1_foregroundBlur_2002_17235" stdDeviation="4.596"/></filter><filter id="m" color-interpolation-filters="sRGB" filterUnits="userSpaceOnUse" height="36.133" width="36.034" x="20.978" y="-3.545"><feFlood flood-opacity="0" result="BackgroundImageFix"/><feBlend in="SourceGraphic" in2="BackgroundImageFix" result="shape"/><feGaussianBlur result="effect1_foregroundBlur_2002_17235" stdDeviation="4.596"/></filter><filter id="n" color-interpolation-filters="sRGB" filterUnits="userSpaceOnUse" height="27.618" width="61.384" x="-7.294" y="34.082"><feFlood flood-opacity="0" result="BackgroundImageFix"/><feBlend in="SourceGraphic" in2="BackgroundImageFix" result="shape"/><feGaussianBlur result="effect1_foregroundBlur_2002_17235" stdDeviation="4.596"/></filter><mask id="o" height="46" maskUnits="userSpaceOnUse" width="48" x="0" y="0"><path d="m30.316 6.788a2.26 2.26 0 0 0 2.262 2.262h8.582c1.009 0 1.513 1.219.8 1.93l-10.982 10.982a2.26 2.26 0 0 0 -.664 1.6v3.755c0 1.562 1.55 2.645 2.92 1.9a20.4 20.4 0 0 0 3.868-2.727c.465-.416 1.18-.42 1.622.024l7.999 7.998a1.1 1.1 0 0 1 -.013 1.585 33.82 33.82 0 0 1 -23.184 9.153 33.82 33.82 0 0 1 -23.183-9.153 1.1 1.1 0 0 1 -.013-1.585l7.999-7.998c.441-.442 1.157-.44 1.622-.024a20.4 20.4 0 0 0 3.869 2.727c1.372.745 2.919-.338 2.919-1.9v-3.755c0-.6-.24-1.176-.664-1.6l-10.982-10.982c-.713-.713-.209-1.93.8-1.93h8.582a2.26 2.26 0 0 0 2.262-2.262v-5.658a1.13 1.13 0 0 1 1.13-1.131h11.313a1.13 1.13 0 0 1 1.131 1.13v5.658z" fill="#d9d9d9"/></mask><path d="m30.316 6.789a2.26 2.26 0 0 0 2.262 2.262h8.582c1.009 0 1.513 1.219.8 1.93l-10.982 10.982a2.26 2.26 0 0 0 -.664 1.6v3.755c0 1.562 1.55 2.645 2.92 1.9a20.4 20.4 0 0 0 3.868-2.727c.465-.416 1.18-.42 1.622.023l7.999 7.999a1.1 1.1 0 0 1 -.013 1.585 33.82 33.82 0 0 1 -23.184 9.153 33.82 33.82 0 0 1 -23.183-9.153 1.1 1.1 0 0 1 -.013-1.585l7.999-7.999c.441-.441 1.157-.44 1.622-.023a20.4 20.4 0 0 0 3.869 2.727c1.372.745 2.919-.338 2.919-1.9v-3.755c0-.6-.24-1.176-.664-1.6l-10.982-10.983c-.713-.713-.209-1.93.8-1.93h8.582a2.26 2.26 0 0 0 2.262-2.262v-5.656a1.13 1.13 0 0 1 1.13-1.131h11.313a1.13 1.13 0 0 1 1.131 1.13v5.659z" fill="#32f3ef"/><g mask="url(#o)"><g filter="url(#a)"><ellipse cx="4.618" cy="21.501" fill="#aefffb" rx="4.618" ry="21.501" transform="matrix(0 -1 -1 0 44.898 50.594)"/></g><g filter="url(#b)"><ellipse cx="4.618" cy="21.501" fill="#0f8" rx="4.618" ry="21.501" transform="matrix(-.36909801 -.92939048 -.92939048 .36909801 63.270248 40.36772)"/></g><g filter="url(#c)"><ellipse cx="5.201" cy="44.012" fill="#195eff" rx="4.618" ry="21.501" transform="matrix(.36909801 -.92939048 .92939048 .36909801 -37.623012 32.601018)"/></g><g filter="url(#d)"><ellipse cx="31.927" cy="28.892" fill="#aefffb" rx="3.715" ry="6.268" transform="matrix(-.70953384 -.70467136 .70467136 -.70953384 34.220922 71.889894)"/></g><g filter="url(#e)"><ellipse cx="33.843" cy="25.445" fill="#195eff" rx="3.715" ry="6.268" transform="matrix(-.70953384 -.70467136 .70467136 -.70953384 39.925391 67.347281)"/></g><g filter="url(#f)"><ellipse cx="33.459" cy="6.297" fill="#aefffb" rx="3.715" ry="6.268" transform="matrix(-.70953384 -.70467136 .70467136 -.70953384 52.763687 34.343238)"/></g><g filter="url(#g)"><ellipse cx="34.608" cy="4.765" fill="#195eff" rx="3.715" ry="6.268" transform="matrix(-.70953384 -.70467136 .70467136 -.70953384 55.805788 32.533195)"/></g><g filter="url(#h)"><ellipse cx="3.715" cy="6.268" fill="#aefffb" rx="3.715" ry="6.268" transform="matrix(.70953384 -.70467136 -.70467136 -.70953384 17.241302 36.72312)"/></g><g filter="url(#i)"><ellipse cx="3.715" cy="6.268" fill="#195eff" rx="3.715" ry="6.268" transform="matrix(.70953384 -.70467136 -.70467136 -.70953384 14.561169 33.277873)"/></g><g filter="url(#j)"><ellipse cx="3.715" cy="6.268" fill="#aefffb" rx="3.715" ry="6.268" transform="matrix(.70953384 -.70467136 -.70467136 -.70953384 14.559978 13.362364)"/></g><g filter="url(#k)"><ellipse cx="3.715" cy="6.268" fill="#195eff" rx="3.715" ry="6.268" transform="matrix(.70953384 -.70467136 -.70467136 -.70953384 14.177435 11.066049)"/></g><g filter="url(#l)"><ellipse cx="3.715" cy="11.949" fill="#195eff" rx="3.715" ry="11.949" transform="matrix(.70953384 -.70467136 -.70467136 -.70953384 14.942248 28.680792)"/></g><g filter="url(#m)"><ellipse cx="38.995" cy="14.521" fill="#0f8" rx="3.715" ry="11.949" transform="matrix(-.70953384 -.70467136 .70467136 -.70953384 56.430739 52.302801)"/></g><g filter="url(#n)"><ellipse cx="4.618" cy="21.501" fill="#195eff" rx="4.618" ry="21.501" transform="matrix(0 -1 -1 0 44.898 52.509)"/></g></g></svg>