<svg xmlns="http://www.w3.org/2000/svg" viewBox="0 0 211.557 211.557"><defs><mask id="a"><path fill="#fff" d="M0 0h211.557v211.557H0z"/><path d="M106.542 70.024c-31.628 0-35.486 10.483-72.768 10.483v45.296c37.282 0 41.14 10.484 72.768 10.484s35.485-10.484 72.772-10.484V80.507c-37.287 0-41.146-10.483-72.772-10.483"/></mask></defs><circle cx="106.5" cy="107.5" r="85" fill="currentColor" mask="url(#a)"/><path fill="currentColor" d="M71.168 87.924a3.27 3.27 0 0 0-3.265 3.26 3.274 3.274 0 0 0 3.265 3.265 3.263 3.263 0 0 0 0-6.525m40.359 2.288-6.348 2.536v3.792h-2.383l-.045 4.226h2.428v10.59c0 4.814 2.795 7.935 7.136 7.935 5.483 0 6.014-4.674 6.051-6.043.009-.223-.108-.25-.28-.095-.602.533-2.111 1.666-3.945 1.666-2.177 0-2.614-1.492-2.614-3.9v-10.153h2.074c3.974 0 3.904-4.276 3.904-4.276h-5.978zm-64.61.086s-.256.017-.034.17c.364.248.862.882.862 2.437v23.2c-.004 1.541-.498 2.165-.862 2.412-.222.152.037.164.037.164h16.177c1.595 0 2.474-1.014 2.474-2.844v-2.543h-.009v-.809s-.012-.256-.169-.037c-.235.356-.816.816-2.214.858-.585.004-1.25.012-1.978.012h-6.222V90.306h-6.046V90.3zm44.458 5.582c-2.375 0-4.753 1.043-6.534 2.873l-.498.512v-2.771H77.61s-.255.012-.037.165c.371.251.861.886.861 2.444v.215s.013 26.367.018 26.412c0 0 2.386.952 7.156 1.517.09.012.26-.021.037-.17-.335-.23-.767-.771-.85-2.035l-.008-8.703.503.537c1.505 1.623 3.466 2.415 5.994 2.415 3.714 0 6.032-2.016 7.318-3.711 1.654-2.152 2.6-5.054 2.6-7.956 0-3.24-.98-6.212-2.745-8.364-1.797-2.18-4.312-3.381-7.082-3.381zm39.565 0c-6.444 0-11.682 5.24-11.682 11.678 0 6.447 5.24 11.687 11.682 11.687 6.436 0 11.674-5.24 11.674-11.687 0-6.438-5.238-11.678-11.674-11.678m27.316.001c-3.327 0-5.54 1.625-6.815 2.99l-.502.535V96.49h-6.74s-.257.018-.037.17c.374.25.865.882.865 2.44l.009-.016c.003.078.003.16.003.23v7.083h-.003v12.288l7.14-.005s.243-.012.029-.164c-.318-.21-.709-.692-.829-1.769v-9.291c0-4.006 2.68-6.691 5.179-6.691 1.78 0 2.477 1.04 2.477 3.724v11.319c0 .057.012.103.017.161v2.716l7.118.005s.248-.013.037-.165c-.314-.215-.7-.689-.82-1.74v-12.908c0-2.625-.615-4.638-1.819-5.981-1.195-1.34-2.984-2.016-5.309-2.016m-83.854.61h-7.173s-.256.018-.036.17c.367.248.857.87.864 2.408v16.74c0 .087 0 .186-.003.281l-.004-.012c0 1.562-.499 2.184-.866 2.44-.218.152.037.165.037.165l7.18-.009zm15.325 3.73c3.111 0 4.97 2.741 4.97 7.337a8.1 8.1 0 0 1-1.859 5.173c-1.142 1.386-2.794 2.21-4.493 2.21-.792 0-2.156-.176-3.467-1.377l-.09-.082v-9.324c0-.04.048-3.938 4.939-3.938m41.213 0c3.112 0 5.635 3.29 5.635 7.338 0 4.057-2.523 7.35-5.635 7.35s-5.64-3.293-5.64-7.35c0-4.047 2.528-7.338 5.64-7.338"/></svg>