<svg xmlns="http://www.w3.org/2000/svg" viewBox="0 0 211.557 211.557">
  <defs>
    <mask id="ko">
      <rect width="211.557" height="211.557" fill="white"/>
      <path fill="black" d="M106.542 70.024c-31.628 0-35.486 10.483-72.768 10.483v45.296c37.282 0 41.14 10.484 72.768 10.484s35.485-10.484 72.772-10.484V80.507c-37.287 0-41.146-10.483-72.772-10.483"/>
    </mask>
  </defs>
  <circle cx="106.5" cy="107.5" r="85" fill="currentColor" mask="url(#ko)"/>
  <path fill="currentColor" transform="translate(-49.916 2.004)scale(1.22501)" d="M98.843 70.138a2.67 2.67 0 0 0-2.665 2.662 2.673 2.673 0 0 0 2.665 2.665 2.663 2.663 0 0 0 0-5.327m32.946 1.868-5.182 2.07v3.096h-1.945l-.037 3.449h1.982v8.645c0 3.93 2.282 6.478 5.825 6.478 4.476 0 4.91-3.816 4.94-4.933.007-.182-.088-.205-.229-.078-.491.435-1.723 1.36-3.22 1.36-1.777 0-2.134-1.218-2.134-3.184v-8.288h1.693c3.244 0 3.187-3.49 3.187-3.49h-4.88zm-52.743.07s-.208.014-.027.139c.297.202.704.72.704 1.989v18.939c-.004 1.258-.407 1.767-.704 1.969-.181.124.03.134.03.134h13.206c1.302 0 2.019-.828 2.019-2.322v-2.076h-.007v-.66s-.01-.209-.138-.03c-.192.29-.666.666-1.807.7-.478.003-1.02.01-1.615.01h-5.079V72.083h-4.936v-.006zm36.293 4.557c-1.939 0-3.88.851-5.334 2.345l-.407.418v-2.262h-5.496s-.208.01-.03.135c.303.205.703.723.703 1.995v.175s.01 21.524.014 21.561c0 0 1.948.777 5.842 1.238.074.01.212-.017.03-.138-.273-.188-.626-.63-.693-1.662l-.007-7.104.41.438c1.229 1.325 2.83 1.972 4.893 1.972 3.032 0 4.924-1.646 5.974-3.03 1.35-1.756 2.123-4.125 2.123-6.494 0-2.645-.8-5.071-2.241-6.828-1.467-1.78-3.52-2.76-5.781-2.76zm32.297 0c-5.26 0-9.536 4.277-9.536 9.533 0 5.263 4.277 9.54 9.536 9.54 5.254 0 9.53-4.277 9.53-9.54 0-5.256-4.276-9.533-9.53-9.533m22.299.001c-2.716 0-4.523 1.326-5.563 2.44l-.41.437v-2.379h-5.502s-.21.014-.03.138c.305.205.706.72.706 1.992l.007-.013c.003.064.003.13.003.188v5.782h-.003V95.25l5.829-.004s.198-.01.023-.134c-.259-.172-.578-.565-.676-1.444v-7.585c0-3.27 2.187-5.462 4.227-5.462 1.453 0 2.022.849 2.022 3.04v9.24c0 .047.01.084.014.132v2.217l5.811.004s.202-.011.03-.135c-.256-.175-.572-.562-.67-1.42V83.162c0-2.143-.501-3.786-1.484-4.883-.976-1.093-2.436-1.645-4.334-1.645m-68.452.498h-5.855s-.209.014-.03.139c.3.202.7.71.706 1.965v13.666c0 .07 0 .151-.003.229l-.003-.01c0 1.275-.407 1.783-.707 1.992-.178.124.03.134.03.134l5.862-.007zm12.51 3.044c2.54 0 4.058 2.238 4.058 5.99a6.62 6.62 0 0 1-1.518 4.223c-.932 1.131-2.281 1.804-3.668 1.804-.646 0-1.76-.144-2.83-1.124l-.074-.067V83.39c0-.033.04-3.214 4.032-3.214m33.643 0c2.541 0 4.6 2.686 4.6 5.99 0 3.312-2.059 6-4.6 6s-4.603-2.688-4.603-6c0-3.304 2.063-5.99 4.603-5.99"/>
</svg>
