<svg xmlns="http://www.w3.org/2000/svg" width="18" height="18" viewBox="0 0 18 18"><path fill="currentColor" d="m10.23 17.39.81-.87V14.2H7v2.32l.81.87a.32.32 0 0 0 .19.11h2a.32.32 0 0 0 .23-.11"/><path fill="currentColor" d="M9 .5a5.89 5.89 0 0 0-5.91 6.57c.27 2.47 2.62 3.62 3.29 6.75a.49.49 0 0 0 .47.38h4.3a.49.49 0 0 0 .47-.38c.67-3.13 3-4.28 3.29-6.75A5.89 5.89 0 0 0 9 .5M7 14.2"/><path fill="currentColor" d="M11.46 3.79a1.4 1.4 0 0 0-1.35 1.44V6H8v-.77a1.41 1.41 0 0 0-1.41-1.44 1.4 1.4 0 0 0-1.35 1.44 1.41 1.41 0 0 0 1.35 1.45h.64v6a.36.36 0 0 0 .72 0v-6h2.16v6a.36.36 0 1 0 .72 0v-6h.63a1.4 1.4 0 0 0 1.35-1.45 1.4 1.4 0 0 0-1.35-1.44M7.23 6h-.68a.74.74 0 0 1-.68-.77.74.74 0 0 1 .68-.77.74.74 0 0 1 .68.77zm4.28 0h-.68v-.81a.68.68 0 1 1 1.35 0 .73.73 0 0 1-.67.81"/><path fill="currentColor" d="m6.96 15.8 4.08-.79v-.45l-4.08.8zm4.08.31v-.44l-4.08.81v.04l.31.34z"/></svg>