<svg height="18" viewBox="0 0 18 18" width="18" xmlns="http://www.w3.org/2000/svg" xmlns:xlink="http://www.w3.org/1999/xlink"><radialGradient id="a" cx="9" cy="7.35" gradientUnits="userSpaceOnUse" r="6.42"><stop offset="0" stop-color="#b77af4"/><stop offset=".21" stop-color="#b378f2"/><stop offset=".43" stop-color="#a672ed"/><stop offset=".65" stop-color="#9267e4"/><stop offset=".88" stop-color="#7559d8"/><stop offset="1" stop-color="#624fd0"/></radialGradient><linearGradient id="b" gradientUnits="userSpaceOnUse" x1="9.02" x2="9.08" y1="3.91" y2="11.49"><stop offset="0" stop-color="#f2f2f2"/><stop offset=".23" stop-color="#f1f1f2" stop-opacity=".99"/><stop offset=".37" stop-color="#ededf1" stop-opacity=".95"/><stop offset=".48" stop-color="#e7e5f0" stop-opacity=".89"/><stop offset=".58" stop-color="#dedbee" stop-opacity=".81"/><stop offset=".67" stop-color="#d3ceeb" stop-opacity=".7"/><stop offset=".76" stop-color="#c4bee8" stop-opacity=".57"/><stop offset=".84" stop-color="#b4abe5" stop-opacity=".41"/><stop offset=".92" stop-color="#a095e1" stop-opacity=".22"/><stop offset=".99" stop-color="#8b7ddc" stop-opacity=".02"/><stop offset="1" stop-color="#897bdc" stop-opacity="0"/></linearGradient><path d="m10.23 17.39.81-.87v-2.32h-4.04v2.32l.81.87a.32.32 0 0 0 .19.11h2a.32.32 0 0 0 .23-.11" fill="#cecece"/><path d="m9 .5a5.89 5.89 0 0 0 -5.91 6.57c.27 2.47 2.62 3.62 3.29 6.75a.49.49 0 0 0 .47.38h4.3a.49.49 0 0 0 .47-.38c.67-3.13 3-4.28 3.29-6.75a5.89 5.89 0 0 0 -5.91-6.57m-2 13.7" fill="url(#a)"/><path d="m11.46 3.79a1.4 1.4 0 0 0 -1.35 1.44v.77h-2.11v-.77a1.41 1.41 0 0 0 -1.41-1.44 1.4 1.4 0 0 0 -1.35 1.44 1.41 1.41 0 0 0 1.35 1.45h.64v6a.36.36 0 0 0 .72 0v-6h2.16v6a.36.36 0 1 0 .72 0v-6h.63a1.4 1.4 0 0 0 1.35-1.45 1.4 1.4 0 0 0 -1.35-1.44m-4.23 2.21h-.68a.74.74 0 0 1 -.68-.77.74.74 0 0 1 .68-.77.74.74 0 0 1 .68.77zm4.28 0h-.68v-.81a.68.68 0 1 1 1.35 0 .73.73 0 0 1 -.67.81" fill="url(#b)"/><path d="m6.96 15.8 4.08-.79v-.45l-4.08.8zm4.08.31v-.44l-4.08.81v.04l.31.34z" fill="#999"/></svg>