<svg xmlns="http://www.w3.org/2000/svg" fill="currentColor" fill-rule="evenodd" viewBox="0 0 24 24"><title>Dolphin (dphnAI)</title><path d="M18.267 19.283a.1.1 0 0 1 .021.013.1.1 0 0 1 .015.02.1.1 0 0 1 .005.024l-.001.21a.02.02 0 0 1-.007.016.02.02 0 0 1-.017.008h-.265l-.01-.003-.007-.005a.03.03 0 0 1-.007-.018v-.21a.06.06 0 0 1 .02-.042.07.07 0 0 1 .047-.018h.18q.014 0 .026.005M7.755 4a.05.05 0 0 1 .05.05v.222q0 .01.007.017.006.006.016.006h.257a.01.01 0 0 0 .01-.004.02.02 0 0 0 .005-.01v-.274l.002-.003.002-.002L8.108 4h.293l.004.004.004.01v.237q0 .018.013.031c.013.013.02.013.031.013h.196a.06.06 0 0 0 .04-.016.06.06 0 0 0 .016-.039v-.23q0-.004.002-.006.003-.005.006-.004h.276q.004 0 .007.002A.01.01 0 0 1 9 4.01v.243a.043.043 0 0 0 .042.043h.227a.04.04 0 0 0 .03-.013.04.04 0 0 0 .012-.03v-.224A.03.03 0 0 1 9.34 4h.215q.02 0 .035.015.014.015.014.036v.221q0 .01.007.017.006.006.016.006h.257l.01-.004.004-.01V4.01l.003-.006L9.907 4h.29q.005 0 .008.004l.004.009v.238q0 .018.013.031a.04.04 0 0 0 .03.013h.197a.055.055 0 0 0 .055-.055v-.23l.003-.006.006-.002h.276q.004 0 .007.002l.003.007v.244q0 .016.011.03a.04.04 0 0 0 .029.01h2.917q.022.001.038.017.015.015.015.037v.545q0 .003.003.005l.005.002h.273q.005 0 .009-.003l.003-.008v-.256a.045.045 0 0 1 .044-.044h.21a.04.04 0 0 1 .029.012.04.04 0 0 1 .011.028v.231q0 .017.013.03a.04.04 0 0 0 .028.011h.216a.06.06 0 0 0 .038-.015.06.06 0 0 0 .017-.04v-.228q0-.006.002-.012a.03.03 0 0 1 .016-.016l.011-.002h.216a.05.05 0 0 1 .05.05v.221a.04.04 0 0 0 .012.03l.013.008.017.004h.214a.04.04 0 0 0 .037-.038v-.228q0-.02.014-.033a.05.05 0 0 1 .033-.014h.206a.06.06 0 0 1 .06.06v.224a.03.03 0 0 0 .008.02.03.03 0 0 0 .02.01h.216a.05.05 0 0 0 .036-.014.05.05 0 0 0 .013-.035v-.221q0-.018.013-.03a.04.04 0 0 1 .03-.013h.21q.017 0 .03.012a.04.04 0 0 1 .011.029v.233q0 .016.012.027a.04.04 0 0 0 .026.011h.22a.053.053 0 0 0 .053-.052v-.22q0-.007.003-.015a.04.04 0 0 1 .023-.022l.016-.003h.201a.05.05 0 0 1 .052.053v.218q0 .017.012.029a.04.04 0 0 0 .029.011h1.136a.02.02 0 0 1 .012.006.02.02 0 0 1 .005.012v.236a.04.04 0 0 0 .04.04h.22q.021 0 .037.015a.05.05 0 0 1 .015.036v.484a.07.07 0 0 1-.022.05.07.07 0 0 1-.05.022h-.23l-.005.004-.004.006v.232a.053.053 0 0 1-.054.053h-.194a.05.05 0 0 1-.034-.015.05.05 0 0 1-.015-.034v-.232l-.004-.01-.01-.004h-.271q-.003 0-.005.002l-.002.006v.547a.03.03 0 0 1-.01.023.03.03 0 0 1-.022.01h-.532a.04.04 0 0 0-.03.011l-.01.014-.002.017v.231l-.003.015-.008.012-.013.008-.014.003h-.55a.02.02 0 0 0-.012.005.02.02 0 0 0-.006.013v.553q0 .007.006.012a.02.02 0 0 0 .013.005h.238q.01 0 .02.005a.1.1 0 0 1 .02.012.06.06 0 0 1 .015.039V7.6l-.292-.001a.02.02 0 0 0-.015.005.02.02 0 0 0-.006.014v.23a.047.047 0 0 0 .047.046h.218a.05.05 0 0 0 .032-.013.05.05 0 0 0 .013-.032l.003-.25h.259q.006 0 .012.002l.012.007.008.011q.002.007.002.014v.218q0 .016.013.029a.04.04 0 0 0 .029.013h.22q.014 0 .023.01.01.008.01.022v.262l-.256-.001q-.016 0-.026.01a.04.04 0 0 0-.012.027v.233q0 .017.012.03a.04.04 0 0 0 .03.013h.21a.043.043 0 0 0 .043-.043l-.001-.269h.278l.013.001.01.008.008.011.003.013v.25a.03.03 0 0 0 .008.02.03.03 0 0 0 .02.008h.227q.016 0 .027.012a.04.04 0 0 1 .011.027v.238q0 .008.006.013a.02.02 0 0 0 .012.005h.261q.007 0 .011.005a.02.02 0 0 1 .005.01v.262l.001.006q0 .003.004.006l.006.003.006.002h.243q.021 0 .037.015t.016.037v.186a.074.074 0 0 1-.074.073h-.217a.02.02 0 0 0-.016.006.02.02 0 0 0-.007.016l.001.237q0 .015.01.026t.024.01h.53q.017 0 .03.011a.04.04 0 0 1 .012.03v.526q0 .016.01.027a.04.04 0 0 0 .028.012h.532q.014 0 .024.01a.03.03 0 0 1 .011.024v.539q0 .006.004.01a.01.01 0 0 0 .01.004h.237q.017 0 .03.012.012.014.013.032l.001.268h-.27l-.01.001-.01.005a.03.03 0 0 0-.008.018v.212a.06.06 0 0 0 .059.059h.164q.031 0 .053-.021a.08.08 0 0 0 .021-.053l.001-.22h.274q.008 0 .013.005a.02.02 0 0 1 .005.013v.883h-.273a.02.02 0 0 0-.014.006.02.02 0 0 0-.006.014v.26q0 .006.003.009l.008.003h.273q.004 0 .007-.002l.003-.007V12.1h.285q.012 0 .02.007a.03.03 0 0 1 .007.02v.249q0 .007.004.01a.02.02 0 0 0 .011.006h.237a.04.04 0 0 1 .03.011.04.04 0 0 1 .011.03v.84q0 .008.006.013a.02.02 0 0 0 .012.005h.257a.02.02 0 0 1 .014.006.02.02 0 0 1 .007.015v.256a.01.01 0 0 1-.006.012.02.02 0 0 1-.011.006h-.251a.03.03 0 0 0-.02.008.03.03 0 0 0-.008.02v.235a.034.034 0 0 0 .033.033h.506q.013 0 .026.006a.1.1 0 0 1 .022.014.07.07 0 0 1 .02.049v.503a.03.03 0 0 1-.009.022.03.03 0 0 1-.021.008h-.246q-.016 0-.026.011a.04.04 0 0 0-.01.025v.225q0 .01.004.02a.1.1 0 0 0 .014.016.04.04 0 0 0 .04.008.36.36 0 0 1 .234.01q.009.005.013.011a.03.03 0 0 1 .005.017v.208a.056.056 0 0 0 .056.056h.192q.02 0 .034.014t.014.035v.196a.05.05 0 0 1-.014.034.05.05 0 0 1-.035.015h-.235a.013.013 0 0 0-.013.012v.255a.03.03 0 0 0 .009.02.03.03 0 0 0 .02.01h.197q.029 0 .05.02a.07.07 0 0 1 .02.05v.222q0 .006.005.01l.01.004h.265q.006 0 .01.004a.01.01 0 0 1 .005.01v.267q0 .003.002.005 0 .004.003.006l.005.004.006.001h.26q.015 0 .026.01t.01.025v.249l.004.005.01.004h.208q.03 0 .05.022a.07.07 0 0 1 .021.05v.194a.03.03 0 0 1-.017.025.46.46 0 0 1-.258.008.02.02 0 0 1-.014-.008.03.03 0 0 1-.005-.015v-.245a.03.03 0 0 0-.008-.021.03.03 0 0 0-.022-.01h-.238a.04.04 0 0 0-.03.013.05.05 0 0 0-.013.031v.234q0 .008.005.014a.02.02 0 0 0 .011.007q.135.03.228-.001a.1.1 0 0 1 .024-.002.05.05 0 0 1 .044.05v.26l-.302-.001-.007.002-.003.008v.277l.003.006q.002.002.006.003h.253a.05.05 0 0 0 .033-.014.05.05 0 0 0 .014-.032l.002-.248.276-.002a.02.02 0 0 0 .013-.005.02.02 0 0 0 .005-.014v-.25a.04.04 0 0 1 .005-.018.04.04 0 0 1 .012-.014.04.04 0 0 1 .016-.008.04.04 0 0 1 .019.002l.039.013.014.002h.694a.04.04 0 0 0 .02-.006q.045-.03.076.029a.1.1 0 0 1 .006.024l-.001.247-.287-.005-.006.003-.002.005v.282l.003.006q.002.003.006.003h.247q.008 0 .015-.003a.05.05 0 0 0 .023-.023l.003-.015-.002-.253h.276a.02.02 0 0 1 .014.006.02.02 0 0 1 .005.013v.861q0 .008.004.014a.02.02 0 0 0 .014.005h.258q.015 0 .024.01a.04.04 0 0 1 .011.025v.243l.001.006q0 .003.003.005l.005.004h.212a.074.074 0 0 1 .073.074v.777a.05.05 0 0 1-.015.037.05.05 0 0 1-.036.014h-.204a.04.04 0 0 1-.03-.012.04.04 0 0 1-.012-.03v-.225a.03.03 0 0 0-.008-.02.03.03 0 0 0-.02-.009h-.262a.02.02 0 0 1-.014-.005.02.02 0 0 1-.005-.012l.002-.294.3-.003.007-.003q.002-.003.002-.007v-.27q0-.005-.002-.007l-.007-.003h-.273l-.01.002-.01.006-.005.008-.003.011v.266l-.271-.001a.03.03 0 0 0-.018.007.03.03 0 0 0-.006.017v.25a.04.04 0 0 1-.04.04h-.224a.03.03 0 0 1-.031-.03v-.242a.04.04 0 0 0-.04-.04h-.254l-.006-.002-.006-.003-.003-.005v-.256a.03.03 0 0 0-.031-.03h-.223a.044.044 0 0 0-.042.043v.209a.04.04 0 0 1-.012.031.04.04 0 0 1-.032.013h-.233q-.008 0-.015-.003l-.01-.01a.03.03 0 0 1-.005-.028.5.5 0 0 0 .01-.207.05.05 0 0 0-.017-.033.05.05 0 0 0-.035-.014h-.226a.03.03 0 0 0-.021.009.03.03 0 0 0-.01.021v.257l-.001.006-.006.002h-.277l-.007-.003-.003-.006v-.268a.02.02 0 0 0-.005-.012.02.02 0 0 0-.012-.005h-.258a.02.02 0 0 1-.012-.006.02.02 0 0 1-.006-.013v-.275l.275-.003q.008 0 .012-.006a.02.02 0 0 0 .006-.012l.002-.292h.283a.01.01 0 0 0 .01-.01v-.274l-.003-.007-.008-.002h-.283v-.294l.285-.002q.003 0 .006-.002l.003-.007v-.296l-.001-.003-.002-.002-.003-.002-.003.001a.42.42 0 0 1-.268-.004.03.03 0 0 1-.012-.009.03.03 0 0 1-.005-.014v-.193a.08.08 0 0 0-.022-.052.08.08 0 0 0-.052-.022h-.171a.05.05 0 0 0-.036.014.05.05 0 0 0-.013.035v.22a.03.03 0 0 1-.006.015.03.03 0 0 1-.013.01.5.5 0 0 1-.275.002.03.03 0 0 1-.013-.009.03.03 0 0 1-.005-.014v-.243a.03.03 0 0 0-.009-.021.03.03 0 0 0-.021-.009h-.222a.04.04 0 0 0-.03.013.04.04 0 0 0-.013.031v.219q0 .008.004.014a.03.03 0 0 0 .011.01q.097.048.258.011h.007l.006.003q.003.002.004.006l.002.007.001.293h-.286l-.004.003-.002.002v.277l.003.009a.01.01 0 0 0 .01.003h.259a.02.02 0 0 0 .02-.021v-.273l.292-.003a.02.02 0 0 0 .021-.02v-.25q0-.009.004-.015l.01-.012.013-.007h.016a.32.32 0 0 0 .201-.003.04.04 0 0 1 .035.005.04.04 0 0 1 .012.014.04.04 0 0 1 .004.017v.274l-.284-.002-.007.002-.003.008v.277l.003.006.007.003h.284v.293h-.262a.03.03 0 0 0-.023.01.03.03 0 0 0-.01.023v.28l-.292-.001a.02.02 0 0 0-.013.006.02.02 0 0 0-.006.012v.256a.02.02 0 0 1-.006.014.02.02 0 0 1-.014.006h-.276l.002-.295.273-.002a.02.02 0 0 0 .015-.006.02.02 0 0 0 .006-.015v-.276l-.004-.008-.007-.004h-.272l-.008.003-.003.008v.3h-.284l-.008.003-.003.007v.276l.003.007.007.003.283-.001.001.25a.05.05 0 0 1-.012.032.05.05 0 0 1-.033.013h-.216a.033.033 0 0 1-.034-.033v-.243a.02.02 0 0 0-.005-.013.02.02 0 0 0-.013-.006h-.273a.02.02 0 0 0-.018.019v.258a.02.02 0 0 1-.005.012.02.02 0 0 1-.013.006h-.256a.02.02 0 0 0-.015.006.02.02 0 0 0-.006.013v.26l-.003.012-.007.01-.01.007-.013.003h-.238l-.01-.002-.01-.006a.03.03 0 0 1-.007-.02l.005-.284h.283l.007-.002.003-.007v-.275l-.003-.007-.006-.003h-.264l-.007.002q-.004 0-.007.004l-.004.007-.002.007v.274h-.294a.02.02 0 0 0-.019.018v.286l-.001.005-.007.003h-.278l-.007-.003-.003-.007.003-.302h.284l.007-.003.002-.007v-.278l-.002-.003-.004-.002-.004-.001h-.283v-.294l.274-.002a.02.02 0 0 0 .013-.006.02.02 0 0 0 .005-.013v-.289h.279a.033.033 0 0 1 .033.033v.278h-.291l-.008.002-.006.004-.003.007-.003.006v.265l.003.007.007.003h.292l.007-.003.003-.008v-.283l.228.003a.1.1 0 0 0 .026-.005.1.1 0 0 0 .022-.014.07.07 0 0 0 .02-.049v-.171q0-.031-.023-.055a.08.08 0 0 0-.053-.023h-.201a.02.02 0 0 1-.014-.004.02.02 0 0 1-.005-.014v-.268l-.003-.004-.004-.002h-.294l-.008.002-.003.008v.285h-.273a.02.02 0 0 0-.013.006.02.02 0 0 0-.006.013l-.001.291-.285-.001-.006.003-.003.007v.276l.003.007.006.003h.285v.293h-.277a.02.02 0 0 0-.012.006.02.02 0 0 0-.005.012v.256q0 .016-.011.028a.04.04 0 0 1-.027.01h-.237l-.014-.003-.012-.008-.009-.012-.003-.015v-.239q0-.015.01-.024a.04.04 0 0 1 .025-.011h.264a.01.01 0 0 0 .01-.004.01.01 0 0 0 .004-.01v-.266a.01.01 0 0 0-.004-.01.01.01 0 0 0-.01-.003h-.29l-.006-.003-.003-.006v-.277q0-.005.003-.006l.007-.003h.282q.008 0 .015-.006a.02.02 0 0 0 .006-.015v-.254q0-.016.01-.026a.04.04 0 0 1 .026-.01h.24q.008 0 .013-.005a.02.02 0 0 0 .005-.012v-.236a.04.04 0 0 1 .042-.041h.232a.02.02 0 0 0 .014-.005.02.02 0 0 0 .005-.014v-.259q0-.003.002-.007l.003-.006a.02.02 0 0 1 .012-.003h.274a.02.02 0 0 0 .015-.007.02.02 0 0 0 .006-.015V16.9l.003-.01.008-.01.01-.003q.007 0 .012.002.055.022.157.014l.018-.005q.051-.025.08.017a.04.04 0 0 1 .007.024l-.001.258-.284-.002a.01.01 0 0 0-.01.01v.278q0 .003.003.005l.005.003h.245a.04.04 0 0 0 .03-.013.04.04 0 0 0 .012-.03l-.001-.252.283-.001.008-.003.003-.008v-.29l-.001-.005-.003-.003-.004-.002h-.005a.47.47 0 0 1-.262.002.03.03 0 0 1-.02-.024v-.229q0-.016.013-.03a.04.04 0 0 1 .029-.012h.23a.02.02 0 0 0 .014-.006.02.02 0 0 0 .007-.015l.002-.273.255.002a.06.06 0 0 0 .04-.017.1.1 0 0 0 .014-.018.1.1 0 0 0 .003-.023v-.205q0-.006-.002-.012l-.007-.011-.011-.008-.013-.003h-.195q-.005 0-.008-.002-.04-.021-.065.004l-.007.01-.002.01-.002.273-.276-.002a.02.02 0 0 1-.013-.006.02.02 0 0 1-.006-.012v-.237a.03.03 0 0 0-.006-.017q-.041-.047-.085-.023l-.011.003h-.156a.04.04 0 0 1-.024-.01.04.04 0 0 1-.011-.025V15.7a.02.02 0 0 0-.02-.02h-.205l-.01.004q-.032.014-.057.002a.03.03 0 0 1-.014-.011.03.03 0 0 1-.005-.018l.002-.271h.3l.006-.002.003-.008v-.273q0-.004-.003-.007l-.008-.003h-.278a.02.02 0 0 0-.015.006.02.02 0 0 0-.005.014v.273l-.278-.001a.02.02 0 0 1-.014-.005.02.02 0 0 1-.005-.014v-.256a.02.02 0 0 0-.005-.012.02.02 0 0 0-.013-.005h-.235l-.016-.003a.04.04 0 0 1-.024-.037v-.25a.02.02 0 0 0-.007-.016.02.02 0 0 0-.015-.007h-.206l-.008.002q-.033.016-.057.004a.03.03 0 0 1-.013-.012.03.03 0 0 1-.005-.016v-.27l.29-.002q.008 0 .015-.006a.02.02 0 0 0 .006-.015v-.247a.03.03 0 0 0-.007-.018.03.03 0 0 0-.018-.007h-.267l-.007.002a.02.02 0 0 0-.01.01l-.002.007v.275l-.277-.002a.02.02 0 0 1-.013-.005.02.02 0 0 1-.006-.013v-.23a.045.045 0 0 0-.045-.045h-.218a.03.03 0 0 1-.021-.008.03.03 0 0 1-.009-.02v-.24a.03.03 0 0 1 .021-.028.36.36 0 0 1 .205-.004.1.1 0 0 0 .025.003.1.1 0 0 0 .023-.01.1.1 0 0 0 .016-.019.1.1 0 0 0 .006-.024v-.255h.285l.006-.006v-.278l-.003-.007-.007-.003-.283.002.001-.296.273-.002a.02.02 0 0 0 .012-.006.02.02 0 0 0 .006-.013l.001-.29.292-.003q.008 0 .014-.007a.02.02 0 0 0 .007-.015v-.257l-.001-.005-.003-.005-.004-.001-.005-.001h-.29l-.006.002-.003.007v.285l-.274.002a.02.02 0 0 0-.013.005.02.02 0 0 0-.005.013v.291h-.291l-.005.005v.276q0 .004.002.007l.008.003.284.005.001.292h-.277a.02.02 0 0 0-.013.006.02.02 0 0 0-.005.012v.25a.05.05 0 0 1-.015.038l-.012.006-.015.001q-.135-.038-.194-.006a.1.1 0 0 1-.026.005.05.05 0 0 1-.05-.05v-.245a.02.02 0 0 0-.004-.012.02.02 0 0 0-.012-.005h-.265a.01.01 0 0 1-.01-.004.01.01 0 0 1-.003-.01v-.262l-.002-.007-.003-.005-.006-.004-.007-.002h-.238a.04.04 0 0 1-.027-.01.04.04 0 0 1-.012-.03v-.254h.277a.03.03 0 0 0 .013-.006.02.02 0 0 0 .005-.013v-.292h.284l.007-.002.003-.007v-.276l-.003-.006-.007-.003h-.263a.02.02 0 0 0-.014.005.02.02 0 0 0-.006.015v.274h-.277a.02.02 0 0 0-.017.018l-.001.293h-.873a.03.03 0 0 1-.018-.008.03.03 0 0 1-.008-.017v-.287h.261a.03.03 0 0 0 .023-.008.03.03 0 0 0 .01-.024v-.253l-.002-.003-.002-.002-.001-.002-.004-.001h-.277a.01.01 0 0 0-.01.01l.002.284h-.293a.02.02 0 0 1-.013-.006.02.02 0 0 1-.006-.014v-.257a.02.02 0 0 0-.005-.012.02.02 0 0 0-.012-.005h-.228a.05.05 0 0 1-.036-.015.1.1 0 0 1-.011-.017.1.1 0 0 1-.004-.02l.002-.242.273-.002a.02.02 0 0 0 .015-.006.02.02 0 0 0 .006-.015v-.28l-.003-.007-.008-.003h-.274l-.007.003q-.004.003-.004.008l.002.302h-.274a.02.02 0 0 0-.02.021v.198a.077.077 0 0 1-.076.077h-.162a.1.1 0 0 1-.03-.006.08.08 0 0 1-.042-.042.1.1 0 0 1-.005-.03l.004-.218.279-.001q.006 0 .013-.002l.01-.007.007-.01.002-.014v-.239a.04.04 0 0 0-.012-.028.04.04 0 0 0-.028-.012h-.228q-.01 0-.017.003l-.015.01-.01.016-.002.017v.267l-.247-.002a.05.05 0 0 1-.034-.014.05.05 0 0 1-.014-.033v-.22a.04.04 0 0 0-.042-.042h-.236a.02.02 0 0 1-.01-.006.02.02 0 0 1-.005-.011v-.267l-.003-.008a.01.01 0 0 0-.01-.003h-.287q-.005 0-.008.003-.004.004-.004.008v.275q0 .004-.002.006-.002.003-.006.002h-.278q-.004 0-.006-.002l-.002-.006v-.268a.02.02 0 0 0-.006-.013.02.02 0 0 0-.012-.005h-.238a.04.04 0 0 1-.028-.012.04.04 0 0 1-.01-.028V11.2l.276-.002a.02.02 0 0 0 .012-.005.01.01 0 0 0 .006-.011v-.293h.284l.007-.002.003-.008v-.276l-.003-.007-.007-.003h-.284V10.3h.26a.036.036 0 0 0 .036-.036l-.001-.277.3.001.008-.003.003-.006v-.274l-.003-.007-.007-.003-.301.001.001-.286-.004-.007-.007-.003h-.281l-.002.002-.002.003v.247a.044.044 0 0 0 .043.043l.252.001v.291h-.257q-.016 0-.026.012a.04.04 0 0 0-.012.026v.275l-.284-.001h-.004l-.003.003-.002.003v.28a.01.01 0 0 0 .009.01l.284-.001v.295h-.276a.02.02 0 0 0-.012.006.02.02 0 0 0-.005.011v.294h-.294a.02.02 0 0 0-.012.005.02.02 0 0 0-.006.014v.224a.05.05 0 0 1-.015.037.05.05 0 0 1-.037.014h-.194a.05.05 0 0 1-.05-.048v-.208a.04.04 0 0 0-.039-.04h-.227a.03.03 0 0 1-.02-.007.03.03 0 0 1-.007-.018v-.284h.252a.04.04 0 0 0 .03-.012.05.05 0 0 0 .013-.031v-.21a.04.04 0 0 0-.042-.042h-.232a.02.02 0 0 0-.013.006.02.02 0 0 0-.006.013l-.001.276-.294-.001-.007-.002-.006-.004-.004-.006v-.237a.046.046 0 0 0-.046-.046h-.206a.047.047 0 0 0-.046.046v.235a.01.01 0 0 1-.003.01q-.005.005-.01.005h-.27l-.006-.003-.003-.006v-.244a.04.04 0 0 0-.011-.03.04.04 0 0 0-.03-.012h-.234a.04.04 0 0 1-.026-.011l-.008-.012-.003-.014.002-.257h.241a.07.07 0 0 0 .066-.042.1.1 0 0 0 .004-.027v-.243l.284.001.006-.003.003-.006v-.276l-.003-.007q-.002-.002-.005-.003h-.264a.02.02 0 0 0-.015.006.02.02 0 0 0-.006.015v.273h-.275l-.014.002-.012.008a.04.04 0 0 0-.011.026v.276l-.274-.001h-.007l-.007.006a.02.02 0 0 0-.006.014v.228a.05.05 0 0 1-.014.034.05.05 0 0 1-.035.015h-.195a.1.1 0 0 1-.02-.005l-.017-.01a.1.1 0 0 1-.011-.018.1.1 0 0 1-.004-.021l.002-.243h.275a.02.02 0 0 0 .013-.006.02.02 0 0 0 .006-.013v-.27a.02.02 0 0 0-.007-.016.02.02 0 0 0-.015-.006h-.26a.01.01 0 0 0-.01.004.02.02 0 0 0-.003.011l.001.296-.286-.005a.02.02 0 0 1-.014-.006.02.02 0 0 1-.005-.014l-.004-.287.298.001.008-.003.003-.007v-.273l-.003-.008-.008-.003h-.278a.02.02 0 0 0-.015.006.02.02 0 0 0-.006.015l.001.272h-.26q-.007 0-.013.002a.04.04 0 0 0-.023.035v.217q-.007.062-.103.06-.111 0-.146-.004-.009 0-.017.002l-.016.008-.01.014-.003.017v.228a.03.03 0 0 0 .03.03h.219a.04.04 0 0 1 .032.012q.012.014.013.033v.203a.045.045 0 0 1-.044.045h-.23a.02.02 0 0 0-.015.005.02.02 0 0 0-.004.013l-.001.293-.301-.002a.01.01 0 0 0-.01.01v.277q0 .004.002.006l.007.003h.236a.065.065 0 0 0 .066-.064v-.23l.255-.002a.04.04 0 0 1 .027.011l.009.013.003.014v.216q0 .017.012.03a.04.04 0 0 0 .03.012h.247q.002 0 .004.002l.002.005v.278q0 .004-.003.006l-.005.003h-.248l-.015.003a.04.04 0 0 0-.02.02l-.004.016v.273l-.284-.002-.007.004-.003.006v.277l.002.007.008.003h.284l-.003.277a.02.02 0 0 1-.017.017h-.262q-.002 0-.005-.002l-.004-.002-.002-.004-.001-.005v-.263a.02.02 0 0 0-.005-.014.02.02 0 0 0-.015-.005h-.254a.04.04 0 0 1-.027-.012L9 12.369l-.003-.014.003-.257h.302l.007-.003.002-.007V11.8a.01.01 0 0 0-.004-.01.01.01 0 0 0-.01-.004H9.02a.02.02 0 0 0-.02.02l-.001.292-.274-.002a.02.02 0 0 0-.02.02v.22q0 .024-.017.04a.06.06 0 0 1-.04.017h-.18a.07.07 0 0 1-.042-.018.1.1 0 0 1-.014-.02.1.1 0 0 1-.004-.024l.002-.234.277-.001a.02.02 0 0 0 .011-.005q.005-.005.006-.012l.001-.293h.284l.007-.003.003-.007v-.274l-.001-.004-.003-.004-.003-.002h-.004l-.284.001.002-.296.273-.002q.007 0 .012-.005a.02.02 0 0 0 .005-.012l.002-.291.3-.003.009-.004.004-.009v-.267L9.31 10.6l-.006-.006-.005-.001h-.276a.02.02 0 0 0-.016.007.03.03 0 0 0-.008.017l-.001.27-.273.002a.02.02 0 0 0-.013.005.02.02 0 0 0-.005.012l-.001.291h-.287l-.006.002-.003.006v.274l.003.007.007.003.284.004.001.293-.276.001-.007.001-.006.004-.003.006-.002.007v.292l-.283-.001a.03.03 0 0 1-.02-.008.03.03 0 0 1-.008-.02v-.265a.02.02 0 0 0-.005-.012.02.02 0 0 0-.012-.005h-.266l-.008-.004a.01.01 0 0 1-.004-.01v-.263a.02.02 0 0 0-.005-.012.02.02 0 0 0-.013-.005H7.55a.04.04 0 0 1-.028-.012.04.04 0 0 1-.011-.027v-.257l.277.001a.02.02 0 0 0 .012-.006.02.02 0 0 0 .006-.011v-.294h.284l.007-.003.003-.007v-.272a.013.013 0 0 0-.013-.013h-.26a.02.02 0 0 0-.014.007.02.02 0 0 0-.006.014v.274l-.277.002h-.007a.02.02 0 0 0-.01.01v.007l-.001.291-.286-.005a.02.02 0 0 1-.014-.005.02.02 0 0 1-.005-.014l-.005-.286.29-.001a.02.02 0 0 0 .014-.006.02.02 0 0 0 .006-.015v-.247a.03.03 0 0 0-.007-.017.02.02 0 0 0-.017-.007h-.266a.02.02 0 0 0-.015.006.02.02 0 0 0-.005.013v.274H6.92a.01.01 0 0 1-.01-.004.02.02 0 0 1-.005-.01v-.263a.02.02 0 0 0-.005-.012.02.02 0 0 0-.012-.005H6.63a.02.02 0 0 1-.013-.005.02.02 0 0 1-.006-.013v-.265q0-.005.004-.008l.007-.003h.264a.02.02 0 0 0 .013-.006.02.02 0 0 0 .006-.014l.002-.292h.283l.007-.003.003-.006v-.275l-.003-.007-.008-.003-.283.002V9.44a.04.04 0 0 0-.011-.029.04.04 0 0 0-.03-.012H6.62q-.003 0-.006.002l-.003.006v.277q0 .004.004.006.003.004.007.004l.284.001.001.292H6.63a.02.02 0 0 1-.014-.007.02.02 0 0 1-.006-.013v-.262L6.603 9.7 6.6 9.694h-.283a.02.02 0 0 1-.018-.019v-.266l.004-.007.007-.003h.282a.02.02 0 0 0 .013-.005.02.02 0 0 0 .006-.015l.001-.291h.261a.03.03 0 0 0 .023-.01.03.03 0 0 0 .01-.022v-.253l-.002-.004-.002-.002-.003-.002-.003-.001H6.62a.01.01 0 0 0-.01.01l.002.284-.294-.001a.02.02 0 0 1-.013-.005.02.02 0 0 1-.005-.014V8.81a.02.02 0 0 0-.005-.011.02.02 0 0 0-.012-.005H6.05a.05.05 0 0 1-.032-.014.05.05 0 0 1-.013-.031l.002-.25.285-.001q.003 0 .006-.002L6.3 8.49v-.295l-.003-.005-.005-.002h-.26a.02.02 0 0 0-.016.007.02.02 0 0 0-.007.016l-.003.289-.276.001a.02.02 0 0 0-.013.005.02.02 0 0 0-.005.013v.23a.047.047 0 0 1-.047.046h-.22q-.01 0-.018-.003l-.016-.01-.01-.016-.004-.018L5.4 8.5l.287-.001a.02.02 0 0 0 .017-.007.03.03 0 0 0 .008-.016v-.289l.283.002.007-.002.003-.007v-.277q0-.004-.002-.007l-.007-.001h-.264a.02.02 0 0 0-.013.005.02.02 0 0 0-.006.014l-.001.274h-.283a.03.03 0 0 0-.02.008.03.03 0 0 0-.009.02V8.5l-.274-.002-.008.001-.006.005a.02.02 0 0 0-.007.015v.227a.05.05 0 0 1-.048.049H4.86a.05.05 0 0 1-.037-.016l-.01-.017a.1.1 0 0 1-.004-.02l.002-.243.275-.001a.02.02 0 0 0 .018-.018v-.27a.02.02 0 0 0-.006-.015.02.02 0 0 0-.015-.007h-.26a.015.015 0 0 0-.013.015V8.5l-.286-.006a.02.02 0 0 1-.013-.006.02.02 0 0 1-.005-.013l-.004-.287h.303l.003-.002.002-.003v-.277l-.002-.008-.008-.002h-.285l-.007.005-.004.007-.002.008v.272h-.258q-.016 0-.026.01a.04.04 0 0 0-.012.028v.232q0 .01-.003.017l-.01.013-.013.01-.017.003H3.95a.04.04 0 0 1-.027-.01.04.04 0 0 1-.012-.03v-.257l-.004-.01a.02.02 0 0 0-.01-.005h-.29l-.004.002-.002.004v.273a.034.034 0 0 1-.034.033h-.242l-.007.001-.006.004-.004.006-.001.008v.227a.05.05 0 0 1-.015.034.05.05 0 0 1-.034.015h-.196l-.02-.004a.06.06 0 0 1-.028-.03l-.004-.019.003-.243.275-.001q.008 0 .013-.005a.02.02 0 0 0 .005-.012v-.293h.285l.007-.003.003-.007v-.275l-.003-.007-.008-.002-.284.002.002-.296.272-.002.007-.002.006-.004.004-.006V7.58l.004-.29.3-.003.007-.004.004-.008V7.01a.02.02 0 0 0-.005-.011l-.01-.004h-.271a.02.02 0 0 0-.016.006.02.02 0 0 0-.006.016l-.003.271-.275.003a.02.02 0 0 0-.013.005.02.02 0 0 0-.004.013l-.001.29H3.02l-.006.003-.002.005v.274q0 .004.002.007l.007.003.284.005v.292l-.276.001a.02.02 0 0 0-.011.005.02.02 0 0 0-.006.013v.292l-.294.001a.02.02 0 0 0-.013.005.02.02 0 0 0-.005.013v.23a.05.05 0 0 1-.014.033.05.05 0 0 1-.034.014h-.195l-.02-.004a.1.1 0 0 1-.018-.012l-.01-.017a.1.1 0 0 1-.005-.02l.003-.243.273-.002a.02.02 0 0 0 .014-.006.02.02 0 0 0 .006-.014v-.279l-.003-.008-.008-.002h-.273l-.008.002-.003.007.002.302H2.13a.02.02 0 0 0-.013.006.02.02 0 0 0-.006.013v.233q0 .008-.003.017l-.008.013-.015.01-.016.003h-.25a.02.02 0 0 0-.013.005.02.02 0 0 0-.006.014v.266q0 .004-.002.007-.003.003-.007.002h-.28l-.003-.002-.002-.003v-.271a.02.02 0 0 0-.005-.013.02.02 0 0 0-.013-.005h-.257a.02.02 0 0 0-.02.02v.229a.05.05 0 0 1-.012.032.05.05 0 0 1-.033.014h-.22a.05.05 0 0 1-.033-.013.05.05 0 0 1-.014-.032V8.81L.896 8.8l-.005-.004-.006-.001h-.28l.001-.296.274-.002a.02.02 0 0 0 .016-.007.02.02 0 0 0 .005-.014v-.252a.036.036 0 0 1 .036-.037h.255a.02.02 0 0 0 .015-.005.02.02 0 0 0 .006-.015v-.253a.02.02 0 0 1 .02-.02l.274.002v.292l-.277.001a.02.02 0 0 0-.011.005.02.02 0 0 0-.005.013l-.001.293H.92a.02.02 0 0 0-.014.007.02.02 0 0 0-.006.014v.264q0 .003.002.006l.007.003h.293l.007-.003.003-.007V8.5l.275-.002q.008 0 .013-.005a.02.02 0 0 0 .005-.012l.002-.293h.287l.003-.003.002-.003v-.279l-.002-.007-.007-.002-.284.002v-.277a.02.02 0 0 1 .006-.014.02.02 0 0 1 .014-.005h.25l.008-.002.007-.004a.02.02 0 0 0 .007-.015l.002-.29.29-.002a.02.02 0 0 0 .015-.006.02.02 0 0 0 .006-.014v-.258l-.007-.007a.02.02 0 0 0-.015-.007h-.268l-.008.001-.005.005-.004.006-.002.007-.002.274h-.285q-.005 0-.007-.002l-.003-.006v-.277a.01.01 0 0 1 .009-.007h.266a.02.02 0 0 0 .02-.02v-.26q0-.007.005-.01a.02.02 0 0 1 .011-.006h.262a.033.033 0 0 0 .033-.033v-.262a.02.02 0 0 1 .017-.016h.262a.02.02 0 0 0 .01-.005.02.02 0 0 0 .005-.011v-.237a.04.04 0 0 1 .041-.041h.24a.01.01 0 0 0 .01-.004l.004-.01v-.558q0-.014.01-.024a.04.04 0 0 1 .024-.01h.553q.008 0 .013-.006a.02.02 0 0 0 .005-.011v-.235q0-.016.012-.029a.04.04 0 0 1 .03-.013h.235a.02.02 0 0 0 .012-.005.02.02 0 0 0 .006-.012v-.27q0-.003.002-.005l.004-.002h.291q.006 0 .01.004a.01.01 0 0 1 .004.01v.26q0 .008.005.013a.02.02 0 0 0 .014.006l.275.002v.283q0 .005.002.007l.007.003h.275l.007-.003.003-.007v-.264a.02.02 0 0 0-.006-.014.02.02 0 0 0-.015-.006l-.273.001V4.92a.02.02 0 0 1 .006-.014.02.02 0 0 1 .014-.006h.245a.03.03 0 0 0 .02-.008.03.03 0 0 0 .009-.02v-.247a.035.035 0 0 1 .035-.036h.256a.02.02 0 0 0 .015-.006.02.02 0 0 0 .006-.015v-.254a.02.02 0 0 1 .02-.02h1.448a.02.02 0 0 0 .014-.004.02.02 0 0 0 .006-.014v-.27l.002-.002.003-.002L6.307 4h.296q.003 0 .005.003l.002.005v.245q0 .016.012.03a.05.05 0 0 0 .03.012h.199a.06.06 0 0 0 .039-.016.06.06 0 0 0 .015-.039v-.23q0-.004.002-.006.004-.005.006-.004h.277q.005 0 .007.002.003.003.002.007v.243a.044.044 0 0 0 .043.043h.227a.04.04 0 0 0 .029-.013.04.04 0 0 0 .013-.03V4.03a.03.03 0 0 1 .009-.021A.03.03 0 0 1 7.54 4zM2.666 18.673c.02 0 .035.016.035.035l.002.242c0 .02-.016.035-.035.035l-.225.002a.035.035 0 0 1-.035-.035l-.002-.242c0-.02.016-.035.035-.035zm20.148-.287a.02.02 0 0 0-.006.015 4 4 0 0 0 0 .258c0 .002.005.006.006.007l.006.005q.136.005.258 0a.02.02 0 0 0 .016-.006.03.03 0 0 0 .007-.017v-.208q0-.018-.022-.04-.02-.021-.04-.021h-.208a.03.03 0 0 0-.017.007m-3.01-.605a.02.02 0 0 0-.007.017l-.002.289h-.274a.02.02 0 0 0-.014.007.02.02 0 0 0-.006.014v.26q0 .005.003.008l.008.004h.273l.007-.003.003-.007v-.283h.268a.05.05 0 0 0 .033-.013l.01-.014.002-.018v-.224a.05.05 0 0 0-.012-.03.04.04 0 0 0-.032-.014h-.244a.02.02 0 0 0-.016.007m1.797-.003a.02.02 0 0 0-.006.014l-.001.295h-.273a.02.02 0 0 0-.014.007.02.02 0 0 0-.007.014v.265l.004.003.004.003h.276l.007-.002.003-.003v-.287h.252a.06.06 0 0 0 .044-.018.06.06 0 0 0 .017-.044v-.17a.08.08 0 0 0-.023-.058.08.08 0 0 0-.058-.024h-.213a.02.02 0 0 0-.012.005m1.21 0a.02.02 0 0 0-.005.014v.294h-.292a.02.02 0 0 0-.02.02v.264a.01.01 0 0 0 .01.01h.292l.007-.003.003-.008v-.283l.23.002a.1.1 0 0 0 .024-.005.07.07 0 0 0 .042-.06v-.18a.07.07 0 0 0-.02-.05.07.07 0 0 0-.052-.02h-.205a.02.02 0 0 0-.014.005m-.314-.296q-.002.003-.002.007v.284l-.24-.003-.02.005a.1.1 0 0 0-.02.012.1.1 0 0 0-.01.019l-.006.02v.247q0 .005.004.009l.008.003h.27a.01.01 0 0 0 .01-.004l.003-.009.001-.3h.291a.02.02 0 0 0 .014-.006.02.02 0 0 0 .006-.015v-.26a.01.01 0 0 0-.003-.009l-.007-.002h-.292zm-2.383-.002-.004.003-.003.004v.274l.001.005.003.005.004.002.005.001h.269q.002 0 .005-.002l.004-.002.002-.004.001-.005v-.274q-.002-.001-.003-.004l-.01-.003zm-.31-.893a.03.03 0 0 0-.008.021v.226a.055.055 0 0 0 .055.054h.216q.016 0 .026.01.01.012.01.026v.262l-.297-.002h-.004l-.004.002-.002.004-.001.004v.277l.003.006.007.003h.28l.009-.002.006-.003.005-.007v-.008l-.002-.274.291-.001.005-.002q.002-.003.002-.006v-.295q0-.002-.002-.003l-.004-.002h-.002a.8.8 0 0 1-.267.005.03.03 0 0 1-.015-.008.02.02 0 0 1-.005-.015v-.21a.07.07 0 0 0-.02-.05.07.07 0 0 0-.05-.02h-.21a.03.03 0 0 0-.021.008zm2.41.599h-.005l-.005.003-.003.005-.002.006.001.265.001.006.003.005.006.003.006.002.264-.002h.005l.005-.003.004-.005.001-.006V17.2l-.002-.006-.003-.005q-.002-.002-.005-.003l-.005-.001h-.265zm-19.532-.3c.01 0 .02.009.02.02v.26a.02.02 0 0 1-.02.02h-.255a.02.02 0 0 1-.02-.019v-.262a.02.02 0 0 1 .019-.02zm.02-.59-.002.274a.01.01 0 0 1-.01.01h-.274a.01.01 0 0 1-.01-.01v-.274a.01.01 0 0 1 .011-.01h.273q.01 0 .011.01zm18.308-.303q-.003.004-.003.009l-.001.285h-.291l-.008.001-.006.005q-.003.002-.005.006v.272l.001.006.007.003h.293l.007-.003.003-.007-.001-.283h.26a.035.035 0 0 0 .035-.036v-.234a.03.03 0 0 0-.008-.02.03.03 0 0 0-.019-.007h-.255zm-.599-.003-.005.001-.004.003-.003.004v.005l.003.271.001.005.003.004.004.003.005.001.27-.004h.005l.003-.004q.003 0 .003-.004l.001-.005-.004-.271v-.005l-.004-.004-.003-.003h-.005zm-18.356-.31a.06.06 0 0 1 .058.06v.194a.06.06 0 0 1-.061.06l-.194-.003a.06.06 0 0 1-.06-.06l.003-.194a.06.06 0 0 1 .06-.058h.194zm.6 0c.026 0 .047.022.047.049v.215a.05.05 0 0 1-.049.048h-.2a.05.05 0 0 1-.048-.049l.001-.216c0-.026.022-.047.048-.047zm.604 0c.026 0 .047.02.048.047v.217a.047.047 0 0 1-.047.047l-.201.001a.05.05 0 0 1-.048-.048v-.217c0-.025.02-.046.047-.046zm17.145-.291-.003.008v.285l-.284-.002q-.004 0-.007.004l-.003.006v.293q0 .004.002.006.003.002.006.002h.251a.03.03 0 0 0 .024-.009.03.03 0 0 0 .01-.023l.001-.277.206-.003q.01 0 .018.005.039.021.063-.008a.04.04 0 0 0 .007-.024v-.257l-.003-.007q-.002-.002-.006-.002h-.274zm-.29-.291a.02.02 0 0 0-.006.014v.274l-.303-.003a.01.01 0 0 0-.01.01v.282l.004.004.003.002h.28a.02.02 0 0 0 .016-.006.02.02 0 0 0 .007-.016l.002-.273h.284l.007-.002.002-.007v-.275q0-.004-.002-.007l-.006-.003h-.264a.02.02 0 0 0-.014.006m-.904.29-.003.006v.278l.003.007.006.002h.237a.05.05 0 0 0 .035-.016.05.05 0 0 0 .014-.036v-.191a.06.06 0 0 0-.014-.038.05.05 0 0 0-.035-.014h-.237q-.004 0-.006.002M1.478 15.09a.03.03 0 0 1 .029.03l-.003.238a.03.03 0 0 1-.03.03l-.234-.003a.03.03 0 0 1-.03-.03l.004-.239a.03.03 0 0 1 .03-.03zm1.8 0a.03.03 0 0 1 .029.03l-.003.24a.03.03 0 0 1-.03.028l-.235-.003a.03.03 0 0 1-.03-.03l.004-.239a.03.03 0 0 1 .03-.03zm-2.986.002a.02.02 0 0 1 .021.022v.25c0 .012-.01.023-.023.023l-.269-.002A.02.02 0 0 1 0 15.364l.001-.25c0-.013.01-.022.022-.022zm1.785 0c.02 0 .036.016.036.036v.223a.037.037 0 0 1-.037.036l-.24-.002a.036.036 0 0 1-.036-.036l.002-.223c0-.02.016-.036.036-.036l.24.002zm1.8 0c.02 0 .036.016.036.036v.223a.04.04 0 0 1-.038.036l-.24-.002a.036.036 0 0 1-.035-.036v-.223c0-.02.018-.036.038-.036zM.879 15.09c.012 0 .022.01.022.022l.001.251q-.002.021-.022.023H.63a.022.022 0 0 1-.023-.022v-.25c0-.013.01-.023.022-.023zm1.8-.001q.02.002.022.022l.001.252q-.002.021-.022.023h-.251a.023.023 0 0 1-.023-.022v-.252c0-.012.01-.022.022-.022zm1.805 0q.015.002.016.015l.001.267a.016.016 0 0 1-.016.016h-.264a.015.015 0 0 1-.016-.015v-.267q0-.014.015-.015zm14.13-.896-.007.004-.003.007-.002.008v.274l-.253-.004-.016.003-.014.01-.01.013-.002.016v.227a.04.04 0 0 0 .004.018q.003.008.01.013a.04.04 0 0 0 .017.008h.017a.34.34 0 0 1 .171-.002q.015.004.03-.002l.022-.01.008-.002.008.002.005.006.002.008v.287q0 .006.005.01a.02.02 0 0 0 .01.006h.265a.02.02 0 0 0 .01-.005.02.02 0 0 0 .005-.01v-.255a.043.043 0 0 0-.044-.043h-.229q-.005 0-.009-.002a.03.03 0 0 1-.012-.012v-.28l.284.001.007-.003.002-.007V14.2l-.002-.007-.007-.003h-.264zm1.809.592a.04.04 0 0 0-.02.02l-.003.014v.237q0 .007.002.013l.008.013.013.008.014.003h.221q.008 0 .014-.003a.04.04 0 0 0 .02-.02l.002-.014.001-.237-.003-.013-.007-.013a.04.04 0 0 0-.027-.01h-.22zm-.95-.009-.017.006-.01.002-.205-.005q-.007 0-.014.002a.04.04 0 0 0-.017.019l-.003.012v.253q0 .011.008.019a.03.03 0 0 0 .02.008h.21a.057.057 0 0 0 .056-.057v-.24l-.002-.01-.007-.007-.009-.004zm.335-.583-.006.004-.004.007-.002.007v.277l-.278-.002-.007.001-.005.003-.004.006-.001.006v.264l.001.005a.02.02 0 0 0 .015.01 3 3 0 0 1 .252.004q.012 0 .026-.014v.289q0 .013.01.023a.03.03 0 0 0 .023.009h.254q.005 0 .01-.002l.009-.005.005-.009.001-.01v-.214a.07.07 0 0 0-.065-.069l-.148-.005a.1.1 0 0 0-.02.004q-.04.02-.08-.01l.002-.284h.257a.055.055 0 0 0 .054-.054v-.193a.05.05 0 0 0-.05-.05h-.242zm-16.553.292a.05.05 0 0 1 .052.052v.202a.1.1 0 0 1-.006.025.06.06 0 0 1-.041.028q-.012 0-.025-.003-.063-.024-.213.008h-.003l-.004-.002-.002-.003-.001-.004v-.294l.003-.007.006-.002zm-.562.003q.008 0 .01.01l-.004.28a.01.01 0 0 1-.01.008l-.275-.003q-.008-.001-.009-.01l.003-.279a.01.01 0 0 1 .01-.01zm-.619-.003a.04.04 0 0 1 .038.04v.217a.04.04 0 0 1-.038.038H1.84a.04.04 0 0 1-.038-.038v-.218a.04.04 0 0 1 .038-.039h.235zm17.143-.293-.006.004-.003.006-.002.006v.268q0 .003.004.005l.005.004.007.001.26.001h.007l.006-.005.003-.005.002-.006.001-.261-.001-.007q-.001-.003-.004-.005l-.006-.004-.006-.002h-.267m1.191 0-.004.003-.003.004v.28l.003.003.004.003.005.001h.275l.003-.004.003-.003.001-.005v-.275l-.004-.004-.003-.003h-.28m-17.724-.9.01.007.006.01.002.011v.247q0 .005-.002.01l-.005.007-.007.005h-.247a.04.04 0 0 0-.024.01.04.04 0 0 0-.01.025v.228q0 .015.01.025t.024.01h.238q.009 0 .015.008.007.007.007.015v.247a.03.03 0 0 1-.01.023.03.03 0 0 1-.021.008h-.23a.035.035 0 0 1-.034-.035v-.243a.02.02 0 0 0-.008-.015.02.02 0 0 0-.015-.007h-.25a.02.02 0 0 1-.02-.02v-.26a.02.02 0 0 1 .006-.014.02.02 0 0 1 .014-.006h.25l.009-.001.007-.005a.02.02 0 0 0 .007-.016v-.243q0-.014.011-.024a.03.03 0 0 1 .024-.01h.23q.007 0 .013.003m15.312.299v.268q0 .011.005.02a.04.04 0 0 0 .033.022q.011.002.022-.003a.2.2 0 0 1 .16-.008.1.1 0 0 0 .032.004.07.07 0 0 0 .052-.037.1.1 0 0 0 .008-.03V13.6a.01.01 0 0 0-.004-.01l-.01-.003H18zm.905-.298-.003.002-.002.004v.286h-.287l-.005.003-.002.005v.3l.002.003q0 .003.002.003l.002.001a.4.4 0 0 1 .244-.007l.017.002a.03.03 0 0 0 .025-.019l.004-.015-.002-.276.29-.001a.02.02 0 0 0 .015-.006.02.02 0 0 0 .006-.014v-.261l-.003-.007q-.003-.003-.008-.004h-.29zm.309.295q-.003.002-.003.006v.3l.001.002.002.002.003.002h.004a.36.36 0 0 1 .215-.01.1.1 0 0 0 .024.002.054.054 0 0 0 .045-.053v-.212a.04.04 0 0 0-.012-.03.04.04 0 0 0-.028-.011h-.246q-.003 0-.005.002m.904-.29a.02.02 0 0 0-.006.014v.274l-.304-.001-.006.003-.002.006v.303l.002.001.003.001h.003q.151-.034.215-.01.015.007.03.005a.066.066 0 0 0 .06-.066l-.002-.242.284.002.007-.003.002-.008v-.275q0-.004-.002-.007l-.006-.003h-.264a.02.02 0 0 0-.014.006m-.894-.303a.02.02 0 0 0-.01.01l-.002.007-.005.26.002.007.003.006.006.004.007.002.208.004a.07.07 0 0 0 .052-.024.1.1 0 0 0 .022-.056l.003-.135a.08.08 0 0 0-.044-.076.1.1 0 0 0-.027-.006l-.208-.004zm.594.002a.03.03 0 0 0-.015.014l-.002.01-.003.244q0 .01.008.018a.03.03 0 0 0 .018.008l.258.003q.006 0 .01-.002l.009-.005.005-.009.003-.01.003-.243a.03.03 0 0 0-.007-.02.03.03 0 0 0-.019-.007l-.259-.003zm-2.99 0q-.006 0-.01.002a.02.02 0 0 0-.011.013l-.002.008v.25q0 .005.003.008l.005.008a.02.02 0 0 0 .015.007l.25-.001q.003 0 .008-.002l.008-.005.005-.008.002-.007-.001-.25-.002-.01-.005-.007a.03.03 0 0 0-.017-.007zm1.79.001-.007.005-.003.007-.002.008v.261l.005.007.007.005.008.001.253.001.008-.002.007-.005.005-.007v-.008l.002-.252-.002-.01-.004-.006-.007-.004-.009-.002h-.252zm-.608 0a.01.01 0 0 0-.01.009v.275l.001.004.002.003.004.003h.246a.1.1 0 0 0 .023-.004.06.06 0 0 0 .032-.03.1.1 0 0 0 .005-.022v-.184a.05.05 0 0 0-.019-.04.06.06 0 0 0-.042-.016zM2.68 12.686q.008 0 .014.005a.02.02 0 0 1 .006.015v.271q-.001.008-.008.014a.02.02 0 0 1-.013.007l-.225-.001a.1.1 0 0 1-.02-.005.05.05 0 0 1-.027-.032.1.1 0 0 1-.004-.023l.001-.194q0-.023.016-.042a.05.05 0 0 1 .036-.017zm7.216-.586.004.01v.264a.02.02 0 0 0 .019.018h.262a.023.023 0 0 1 .022.022v.262l-.003.008-.008.002H9.91q-.003 0-.006-.002l-.002-.004v-.264a.02.02 0 0 0-.006-.016.02.02 0 0 0-.015-.005l-.278-.002v-.295l.283-.003q.006 0 .01.005m6.31.293h-.004l-.004.004-.003.003v.004l.001.27.001.006.003.004.004.002h.004l.287-.002h.005l.006-.006v-.005l-.001-.27-.001-.005-.003-.003-.003-.003-.005-.001zm1.204.002-.004.01v.268q0 .004.004.009l.009.004h.268a.01.01 0 0 0 .01-.003l.003-.01.001-.268-.004-.008a.01.01 0 0 0-.01-.004l-.267-.001a.01.01 0 0 0-.01.003m1.19.28q0 .005.003.009l.006.002h.277l.007-.002.002-.007v-.265a.02.02 0 0 0-.006-.015.02.02 0 0 0-.014-.005H18.6zm.618-.284-.006.004-.004.005-.002.007-.002.259.002.007.004.006.006.004.007.002.257.002q.004 0 .007-.003l.007-.003.004-.006.001-.007.002-.258-.001-.008a.02.02 0 0 0-.01-.01h-.008l-.257-.002zm.587.002q-.003 0-.005.004l-.004.005-.001.006-.001.26v.007a.02.02 0 0 0 .01.01h.006l.279.002.006-.003.006-.003q.002-.002.003-.005l.001-.007v-.267l-.004-.005-.005-.003-.007-.002h-.283zM2.698 12.1l.003.007.001.238a.04.04 0 0 1-.004.018.06.06 0 0 1-.031.026l-.021.005h-.183a.06.06 0 0 1-.04-.015.05.05 0 0 1-.017-.033v-.238q0-.004.002-.007l.008-.003.275-.001zm13.525-.311a.05.05 0 0 0-.024.025l-.004.016v.27h-.272l-.008.001-.007.005-.005.007-.002.008v.26a.01.01 0 0 0 .004.008l.01.003h.274l.004-.002.002-.004V12.1l.241-.001a.07.07 0 0 0 .051-.02.07.07 0 0 0 .022-.053v-.2a.04.04 0 0 0-.012-.028.04.04 0 0 0-.03-.013h-.227zm1.191.002a.02.02 0 0 0-.006.014v.294h-.292l-.008.002-.006.003a.02.02 0 0 0-.006.014v.265l.003.007.006.002h.293l.006-.003.003-.007V12.1l.226-.001a.07.07 0 0 0 .049-.022.07.07 0 0 0 .02-.049v-.193a.05.05 0 0 0-.014-.035.05.05 0 0 0-.034-.014h-.226a.02.02 0 0 0-.014.006zm1.19-.003-.003.008v.302l-.284-.001h-.003l-.003.003-.003.002v.284l.003.004.003.002h.287v-.294l.274-.002.008-.001a.02.02 0 0 0 .012-.019v-.28l-.002-.008-.007-.003h-.276zm-.59 0-.01.006-.006.01-.002.01v.254l.001.011a.03.03 0 0 0 .017.016l.01.003h.254q.006 0 .011-.002l.01-.006.006-.01.003-.01v-.255q0-.005-.002-.01l-.006-.01-.01-.007-.01-.002h-.255l-.01.001zm1.215 0-.01.001-.007.005q-.004.003-.006.008v.01l.001.263q0 .004.002.009l.005.008.009.006h.008l.246-.001.01-.002.008-.005a.03.03 0 0 0 .007-.018l-.002-.263a.02.02 0 0 0-.008-.017l-.008-.006h-.008l-.247.001zm-3.608 0-.007.004-.005.007v.008l-.002.27.002.008.004.006a.02.02 0 0 0 .015.007h.253l.008-.001.007-.005.004-.007.001-.008.001-.27q0-.004-.002-.008l-.004-.007q-.002-.003-.006-.004l-.01-.002h-.251l-.008.001zm1.188-.002-.003.002-.002.003-.001.004-.001.29v.005l.003.003.003.002h.003l.275.002.004-.001.003-.002.003-.007v-.295l-.002-.003-.003-.002h-.004l-.274-.002zm-2.407-.583a.02.02 0 0 0-.006.015v.214a.06.06 0 0 0 .02.044.07.07 0 0 0 .05.018h.172a.08.08 0 0 0 .05-.018.06.06 0 0 0 .02-.042l.001-.215-.002-.008-.004-.007-.007-.004-.008-.002h-.272a.02.02 0 0 0-.014.005m2.407-.605a.02.02 0 0 0-.006.013v.276h-.277a.02.02 0 0 0-.012.006.02.02 0 0 0-.005.011l-.001.294h-.293a.02.02 0 0 0-.014.005.02.02 0 0 0-.005.014v.227a.05.05 0 0 0 .05.05h.192a.07.07 0 0 0 .07-.07v-.226h.276q.008-.001.012-.007a.02.02 0 0 0 .006-.011v-.293h.284l.008-.003.003-.007v-.276l-.003-.006-.007-.003h-.265a.02.02 0 0 0-.013.006m-8.392 0a.02.02 0 0 0-.005.014l-.002.275h-.292a.02.02 0 0 0-.013.007.02.02 0 0 0-.004.012l-.002.291-.282.002q-.005 0-.008.003l-.004.01v.268q0 .005.003.008l.008.004h.256a.03.03 0 0 0 .019-.008.03.03 0 0 0 .007-.018v-.269l.294-.002q.007 0 .012-.005a.02.02 0 0 0 .005-.012l.001-.291h.285l.007-.003.002-.006v-.274q0-.005-.003-.008t-.009-.003h-.26a.02.02 0 0 0-.015.006zm4.8.6-.005.001-.005.003-.003.005-.002.006.001.264.002.006q0 .003.003.005l.01.004h.265l.006-.002.005-.003q.002-.002.003-.005l.001-.006v-.264l-.002-.006-.003-.005-.005-.003-.006-.002-.264.001zm2.397-.6a.02.02 0 0 0-.006.013v.277h-.293l-.006.002-.006.004-.004.005-.001.007v.291l-.277.001a.02.02 0 0 0-.013.006.02.02 0 0 0-.006.013v.233q0 .017.013.03a.04.04 0 0 0 .03.012h.209a.043.043 0 0 0 .043-.043v-.252l.292-.002q.008 0 .013-.005a.02.02 0 0 0 .005-.012v-.29l.252-.001a.04.04 0 0 0 .032-.012.05.05 0 0 0 .012-.031v-.21a.04.04 0 0 0-.012-.03.04.04 0 0 0-.03-.012h-.233a.02.02 0 0 0-.014.006m1.205.6a.03.03 0 0 0-.017.025v.242q0 .005.002.01a.03.03 0 0 0 .025.017h.241a.03.03 0 0 0 .019-.008l.006-.008.002-.011v-.241l-.001-.01a.03.03 0 0 0-.015-.015l-.01-.002h-.242zm1.188.009a.04.04 0 0 0-.012.026l-.002.22q0 .007.003.014a.02.02 0 0 0 .009.012l.012.008q.007.003.015.003l.235.002a.04.04 0 0 0 .027-.01.04.04 0 0 0 .012-.028l.002-.218-.003-.014-.01-.013-.01-.009-.015-.003-.236-.002a.04.04 0 0 0-.027.012m.61-.009-.009.005a.03.03 0 0 0-.006.017l-.001.247q0 .005.002.01l.004.007.008.005.009.002.248.001a.03.03 0 0 0 .017-.007.03.03 0 0 0 .007-.017v-.247q0-.004-.002-.01l-.004-.007-.008-.006h-.009l-.248-.002-.009.002zm-4.208-.593a.05.05 0 0 0-.014.032v.25l-.272.002a.02.02 0 0 0-.013.005.02.02 0 0 0-.005.012l-.002.291-.276.001a.02.02 0 0 0-.014.006.02.02 0 0 0-.004.014v.248q0 .011.006.018a.03.03 0 0 0 .019.007h.218a.05.05 0 0 0 .033-.013.05.05 0 0 0 .015-.033l.004-.248.273-.002q.008 0 .013-.005a.02.02 0 0 0 .005-.012v-.291l.29-.001a.02.02 0 0 0 .016-.007.03.03 0 0 0 .007-.017v-.221a.05.05 0 0 0-.015-.035.05.05 0 0 0-.034-.014h-.219a.04.04 0 0 0-.03.013zm1.206.598a.02.02 0 0 0-.007.017v.248q0 .01.006.016.007.007.017.007h.215a.05.05 0 0 0 .04-.02.07.07 0 0 0 .017-.048v-.157a.08.08 0 0 0-.016-.05.05.05 0 0 0-.04-.02h-.215a.02.02 0 0 0-.017.007m1.803.005a.04.04 0 0 0-.012.03v.213a.04.04 0 0 0 .04.04h.214q.017 0 .03-.012a.04.04 0 0 0 .011-.028v-.214a.04.04 0 0 0-.012-.029.04.04 0 0 0-.029-.012h-.214a.04.04 0 0 0-.028.012m-4.8-.614a.02.02 0 0 0-.016.006.02.02 0 0 0-.005.014l.002.254q0 .004.002.008l.003.006.007.005h.008l.272-.001a.02.02 0 0 0 .02-.02l-.003-.254v-.008l-.006-.006-.006-.004-.008-.002zm3.631-.002a.055.055 0 0 0-.055.056l.002.224.001.007.004.005.01.004.282-.003.01-.004a.02.02 0 0 0 .006-.01l-.002-.226a.1.1 0 0 0-.005-.021.1.1 0 0 0-.012-.019l-.017-.011a.1.1 0 0 0-.022-.004zm1.77 0a.03.03 0 0 0-.017.008.03.03 0 0 0-.007.018l.001.245.001.009.006.008.008.006.009.002.262-.001.009-.002.008-.005.006-.008.002-.01-.001-.246-.002-.009-.005-.008a.03.03 0 0 0-.018-.007zm-4.207.003-.002.003-.001.003v.28s0 .002.002.003l.002.002h.284l.003-.001.002-.003v-.283l-.001-.002-.003-.002-.004-.001h-.28zm1.199-.002q-.003 0-.005.002l-.003.005-.001.004v.274l.004.005.004.002h.005l.27.002.004-.001q.003 0 .004-.003l.003-.004V10.6l-.003-.004q-.001-.002-.004-.003l-.005-.001zm2.402.006a.02.02 0 0 0-.006.016v.25q0 .008.006.015t.017.007h.248a.02.02 0 0 0 .016-.007.02.02 0 0 0 .007-.016v-.249a.02.02 0 0 0-.007-.016.02.02 0 0 0-.016-.007h-.248a.02.02 0 0 0-.017.007m1.194-.006-.002.002q-.002 0-.003.003v.003l-.001.275v.004l.003.004.003.002h.283l.004-.002.002-.003v-.004l.002-.274-.002-.004-.002-.004-.003-.002-.004-.001h-.279zm-11.09-.895a.02.02 0 0 0-.005.015v.273l-.295.002a.02.02 0 0 0-.012.006.02.02 0 0 0-.005.012v.294h-.274a.02.02 0 0 0-.021.02v.261q0 .005.003.008l.008.004h.273l.007-.003.003-.007V10.3h.24a.074.074 0 0 0 .073-.074v-.24l.283.001h.004l.003-.003.002-.003v-.279l-.002-.007-.007-.003h-.263a.02.02 0 0 0-.014.006zm1.49-.895A.03.03 0 0 0 9 8.826l-.001.263h-.273a.02.02 0 0 0-.013.007.02.02 0 0 0-.005.012l-.002.291h-.284l-.008.002-.003.007v.277l.003.006.007.003h.284l.002.293-.276.001a.02.02 0 0 0-.013.006.02.02 0 0 0-.005.012l-.002.294h-.292a.02.02 0 0 0-.014.006.02.02 0 0 0-.005.014v.264l.003.007.006.003H8.4l.007-.003.003-.007V10.3l.244-.002a.05.05 0 0 0 .037-.016.05.05 0 0 0 .015-.037v-.258h.282a.01.01 0 0 0 .01-.01v-.274l-.003-.008-.007-.003-.284.002.001-.295.274-.003q.007 0 .012-.004a.02.02 0 0 0 .005-.013l.002-.29.296-.003a.02.02 0 0 0 .012-.005q.004-.005.004-.012v-.261a.01.01 0 0 0-.004-.01.01.01 0 0 0-.01-.004H9.03a.03.03 0 0 0-.022.01zm3.007.6a.02.02 0 0 0-.005.01v.256q0 .008.007.015.006.005.014.006l.274.003v.293l-.276.002a.02.02 0 0 0-.012.005.02.02 0 0 0-.005.013l-.002.293h-.291a.02.02 0 0 0-.015.006.02.02 0 0 0-.006.014v.264l.003.007.007.003h.292l.007-.003.003-.007V10.3l.23-.001a.067.067 0 0 0 .066-.067v-.245h.283l.007-.003.003-.006v-.275l-.003-.007-.004-.003h-.004l-.283.001v-.257q0-.016-.011-.027a.04.04 0 0 0-.027-.01h-.242zm-3.001.584a.02.02 0 0 0-.012.013l-.002.008-.001.267a.02.02 0 0 0 .007.016l.007.005.009.002h.266l.009-.001.007-.005.005-.008.002-.008V10a.02.02 0 0 0-.013-.012l-.008-.002h-.267l-.008.001zm5.703-.289a.02.02 0 0 0-.006.015l-.001.273h-.268q-.009 0-.017.002l-.015.01-.009.015-.004.016v.232a.04.04 0 0 0 .038.038h.209a.1.1 0 0 0 .025-.006.1.1 0 0 0 .022-.015.07.07 0 0 0 .019-.047v-.245l.283.001.008-.002.003-.006v-.276L15 9.696l-.007-.003h-.264a.02.02 0 0 0-.013.006zm.896-.296a.02.02 0 0 0-.004.011v.256q0 .008.006.015.007.006.015.006l.273.003.001.293h-.276a.02.02 0 0 0-.014.006.02.02 0 0 0-.006.015v.244q0 .02.014.034a.05.05 0 0 0 .035.014h.18a.07.07 0 0 0 .047-.019.07.07 0 0 0 .02-.047v-.247h.283a.01.01 0 0 0 .01-.01v-.274l-.003-.008-.008-.003-.283.002v-.26a.04.04 0 0 0-.01-.025.03.03 0 0 0-.025-.01h-.244zm1.192-.002-.002.003-.001.003v.244a.04.04 0 0 0 .013.03q.013.013.03.013l.253.001v.291h-.257q-.008 0-.015.002l-.011.01-.01.01-.002.015v.234a.044.044 0 0 0 .043.043h.209a.043.043 0 0 0 .043-.043v-.27h.304l.003-.003.002-.003.001-.003v-.274l-.003-.007-.006-.003-.301.001V9.41l-.002-.007-.008-.003h-.28l-.003.002zm1.215.586-.012.008a.04.04 0 0 0-.01.025l-.002.244q0 .007.003.013l.007.011a.04.04 0 0 0 .024.01l.217.002a.06.06 0 0 0 .044-.018.06.06 0 0 0 .018-.045l.002-.187a.07.07 0 0 0-.019-.044.1.1 0 0 0-.02-.015.1.1 0 0 0-.023-.005h-.216zm-9.917-.29-.003.006-.001.284-.28.001-.005.001-.004.003-.002.004-.001.004v.29l.004.005.003.003h.262a.02.02 0 0 0 .015-.006.02.02 0 0 0 .007-.015v-.29l.294-.002a.02.02 0 0 0 .013-.006.02.02 0 0 0 .006-.013v-.262l-.003-.008-.008-.003h-.29l-.007.003zm3.308.296a.02.02 0 0 0-.006.014v.271l.002.008.004.007.007.004.008.002h.254l.006-.002.007-.004.005-.007.001-.008v-.271a.02.02 0 0 0-.02-.02h-.253a.02.02 0 0 0-.015.006m1.201-.005-.007.005L12.6 10l-.002.008v.277a.03.03 0 0 0 .012.01l.01.003h.267l.008-.002.007-.004.005-.008.001-.008.001-.267q0-.005-.002-.009l-.005-.007a.02.02 0 0 0-.015-.007h-.267zm1.204.004a.02.02 0 0 0-.006.014v.272q0 .005.002.008l.004.007.006.004.008.002h.214a.1.1 0 0 0 .023-.005.1.1 0 0 0 .02-.016.07.07 0 0 0 .018-.048v-.175a.1.1 0 0 0-.004-.027.07.07 0 0 0-.034-.037.1.1 0 0 0-.023-.005h-.214a.02.02 0 0 0-.014.006m1.195.001a.02.02 0 0 0-.007.017v.265q0 .01.007.017.006.007.016.007h.247a.02.02 0 0 0 .017-.007.02.02 0 0 0 .007-.017v-.265a.024.024 0 0 0-.024-.024h-.247a.02.02 0 0 0-.016.007m1.192 0a.02.02 0 0 0-.006.015v.27q0 .009.007.015.009.008.015.006h.23a.1.1 0 0 0 .023-.005.06.06 0 0 0 .034-.032.1.1 0 0 0 .004-.023v-.195a.06.06 0 0 0-.019-.041.06.06 0 0 0-.044-.017h-.23a.02.02 0 0 0-.014.006zm1.211 0a.02.02 0 0 0-.006.014l.001.271a.02.02 0 0 0 .006.015.02.02 0 0 0 .015.006h.214a.06.06 0 0 0 .043-.022.08.08 0 0 0 .017-.05v-.17a.1.1 0 0 0-.017-.05.1.1 0 0 0-.021-.016.1.1 0 0 0-.023-.005h-.214a.02.02 0 0 0-.015.006zm-3.597-.594-.006.002-.002.006.002.28q0 .003.002.005l.006.003.24-.002.018-.004a.05.05 0 0 0 .024-.026l.005-.018-.002-.2a.05.05 0 0 0-.014-.034.05.05 0 0 0-.033-.014zM7.83 8.797l-.014.009-.008.014-.004.016v.252H7.53a.02.02 0 0 0-.012.006.02.02 0 0 0-.005.012L7.51 9.4l-.291.001a.02.02 0 0 0-.014.006.02.02 0 0 0-.006.014v.265a.01.01 0 0 0 .009.01h.293l.007-.004.003-.007L7.51 9.4h.277a.02.02 0 0 0 .012-.005.02.02 0 0 0 .006-.013v-.293h.284l.007-.002.003-.007v-.275l-.003-.007-.003-.003-.004-.001h-.242zm2.395.603-.008.006q-.004.003-.006.007l-.001.01-.001.247q0 .004.002.009l.005.008.008.004.01.002.245.001q.006 0 .01-.002l.007-.005a.03.03 0 0 0 .007-.017v-.247l-.001-.009-.005-.008a.03.03 0 0 0-.018-.007h-.246zm7.185 0-.002.006v.279l.001.006q.003.003.007.002l.235.001a.05.05 0 0 0 .036-.018.07.07 0 0 0 .015-.041v-.178a.06.06 0 0 0-.015-.041.05.05 0 0 0-.035-.018h-.236q-.003 0-.006.002m-9.597 0-.004.003a.02.02 0 0 0-.004.011v.271l.005.004.01.004h.271l.005-.005.003-.004v-.277l-.004-.005L8.09 9.4h-.271zm1.2 0A.03.03 0 0 0 9 9.413l-.001.009v.247q0 .005.002.009a.03.03 0 0 0 .013.013l.008.002h.264q.004 0 .009-.002l.008-.004.005-.008.002-.01v-.246l-.001-.01-.006-.008-.007-.005-.01-.002h-.263l-.008.002zm.595.003-.004.01v.266q0 .006.004.01a.02.02 0 0 0 .011.004h.265l.01-.004.004-.01v-.266a.01.01 0 0 0-.003-.01.02.02 0 0 0-.011-.005h-.265a.02.02 0 0 0-.01.005zm1.204-.003a.02.02 0 0 0-.011.013l-.002.009-.001.248q0 .004.002.009l.005.008.008.004.008.002h.275l.006-.006.005-.007.002-.01.001-.248a.03.03 0 0 0-.006-.017l-.008-.005-.01-.002h-.264zm.595.002-.004.01v.267q0 .006.004.01l.01.004h.267l.01-.004.004-.01v-.267l-.004-.01-.01-.004h-.267zm1.2-.004-.006.003-.003.007v.276q0 .004.004.006l.006.003h.243l.022-.005a.06.06 0 0 0 .037-.05v-.187a.05.05 0 0 0-.017-.038.07.07 0 0 0-.043-.016zm1.805.002-.008.005-.005.008-.001.009v.257l.005.008.008.004.009.002h.275l.006-.006.006-.007.001-.01.001-.248q0-.005-.002-.009l-.005-.008-.008-.005-.009-.002h-.264zm.594.002-.004.01v.267q0 .006.004.01l.01.004h.267l.01-.004.004-.01v-.267l-.004-.01-.01-.004h-.266a.02.02 0 0 0-.011.004m1.201-.004-.008.003-.003.007.001.276.003.006.007.003h.242a.1.1 0 0 0 .023-.005.05.05 0 0 0 .037-.05v-.186a.05.05 0 0 0-.018-.039.06.06 0 0 0-.043-.016zm-1.78-.603-.012.003-.01.007-.007.01-.002.013.002.23a.03.03 0 0 0 .01.023.03.03 0 0 0 .023.009l.245-.002.012-.003.011-.007.007-.01.003-.013-.002-.23a.033.033 0 0 0-.033-.032zm-7.215 0-.007.004-.004.007v.007l-.003.255a.02.02 0 0 0 .006.014.02.02 0 0 0 .014.006h.28l.006-.004.005-.006V9.07l.002-.256-.001-.007-.004-.006a.02.02 0 0 0-.014-.006l-.273-.001zm1.206 0-.004.003-.003.004v.278q0 .003.003.004l.004.003h.005l.268.002.005-.001.004-.003.003-.004.001-.005.001-.268-.004-.01-.005-.003-.005-.001zm2.395 0-.008.005a.03.03 0 0 0-.007.016l-.001.248q0 .004.002.01l.005.007.008.005.008.002h.265l.009-.001a.02.02 0 0 0 .015-.021V8.81l-.005-.008-.008-.005-.01-.002-.265-.002q-.005 0-.008.002m.601 0q-.002 0-.005.004l-.004.005v.006l-.002.262.002.006.003.005.005.004h.006l.264.002.005-.002q.003 0 .005-.003.002-.002.003-.005l.002-.006v-.269l-.005-.005-.005-.003-.005-.002zm.61 0-.007.005a.03.03 0 0 0-.008.018v.255l.007.008a.03.03 0 0 0 .018.007h.244l.01-.001.007-.005.006-.009.002-.009v-.246a.03.03 0 0 0-.007-.017l-.008-.005-.009-.002-.245-.001q-.005 0-.01.002m.588 0-.008.006a.03.03 0 0 0-.006.016v.248q0 .004.002.01l.005.007.007.005.01.002.265-.001q.005 0 .008-.002a.02.02 0 0 0 .012-.013l.002-.009v-.247q0-.005-.002-.008l-.005-.008-.007-.005-.01-.002h-.264q-.005 0-.009.002zm2.397-.001-.003.002-.003.004-.001.004v.278l.006.005h.005l.273.002.004-.001.004-.002.002-.004V8.8l-.002-.003-.003-.002-.004-.001-.274-.001zm.602 0-.002.008-.002.277.003.006.006.003h.248q.008 0 .015-.003l.013-.012.007-.018.004-.02V8.85a.1.1 0 0 0-.01-.04q-.011-.015-.027-.016l-.248-.001q-.004 0-.007.002zm1.198 0-.004.002-.002.004-.001.004v.278l.003.003.003.002h.003l.275.002.007-.003.003-.004V8.8l-.002-.003-.004-.002-.004-.001-.273-.001zm-16.204 0 .001.256-.002.014-.008.013-.013.008-.015.003H.321q-.003 0-.006-.002l-.003-.007v-.276l.001-.004.002-.003.004-.003h.004l.282.002zm8.999.284.002.007.007.003h.277l.006-.002.002-.007v-.266a.02.02 0 0 0-.02-.02h-.274zm.609-.281-.003.007v.274l.003.007.006.003h.275l.007-.003.003-.007v-.274l-.003-.007-.007-.003h-.275zm2.997-.607-.003.007-.003.303-.285-.002-.004.001-.003.002-.002.004v.279q0 .005.002.008l.007.003.284-.001v.284l.002.007.007.003h.276q.004 0 .007-.002.003-.003.002-.007v-.266a.02.02 0 0 0-.006-.013.02.02 0 0 0-.014-.006h-.274l.001-.294.26-.001a.03.03 0 0 0 .024-.01.03.03 0 0 0 .01-.022v-.272q0-.003-.003-.005l-.005-.002h-.273zm.604.61a.02.02 0 0 0-.006.016v.25q0 .009.007.016.006.006.016.006h.248l.009-.001.008-.005.005-.008v-.266l-.005-.008-.008-.005-.009-.002h-.248a.02.02 0 0 0-.016.007zm2.439-.007a.07.07 0 0 0-.041.015.1.1 0 0 0-.013.017.1.1 0 0 0-.004.02v.222q0 .009.007.015.009.008.015.006h.27l.007-.002.008-.005.004-.007.002-.009-.001-.221a.05.05 0 0 0-.017-.037.06.06 0 0 0-.04-.015zm1.157.004-.003.006v.275l.003.007.006.003h.276l.007-.003q.002-.004.002-.007v-.275q0-.004-.002-.006l-.007-.003h-.276zM2.12 7.9a.02.02 0 0 0-.007.014v.274l-.294.002a.02.02 0 0 0-.011.005.02.02 0 0 0-.006.013L1.8 8.5l-.275.002a.02.02 0 0 0-.02.02v.261q0 .005.004.008l.008.003h.273l.007-.003.003-.007V8.5l.293-.002a.02.02 0 0 0 .011-.006.02.02 0 0 0 .006-.013l.001-.29h.284l.007-.002.003-.007v-.277l-.003-.007-.006-.001h-.263a.02.02 0 0 0-.015.005zm5.085.293a.02.02 0 0 0-.006.015v.293l-.273.001a.02.02 0 0 0-.022.02v.261q0 .005.004.008l.008.003h.272l.007-.003.003-.003v-.287l.246-.002a.07.07 0 0 0 .048-.02.07.07 0 0 0 .02-.048v-.194a.05.05 0 0 0-.015-.035.05.05 0 0 0-.036-.014H7.22a.02.02 0 0 0-.015.005m1.211 0a.02.02 0 0 0-.006.014v.294h-.292l-.007.001-.007.005a.02.02 0 0 0-.006.014v.264l.004.006.006.003H8.4l.007-.003.003-.007v-.283h.25a.05.05 0 0 0 .031-.014.05.05 0 0 0 .014-.031V8.23a.04.04 0 0 0-.013-.03.05.05 0 0 0-.03-.012H8.43a.02.02 0 0 0-.014.005m1.198.001a.02.02 0 0 0-.007.016l-.003.29-.284-.002-.007.003q-.002.003-.003.008v.275l.002.007.004.003h.288V8.5l.286-.002q.003 0 .006-.002l.002-.007v-.295q0-.002-.002-.005l-.005-.002H9.63a.02.02 0 0 0-.016.007m1.196.007a.04.04 0 0 0-.013.031v.269l-.273.001a.02.02 0 0 0-.014.006.02.02 0 0 0-.006.014v.261q0 .005.003.008l.009.003h.272l.003-.001.004-.002.002-.003v-.287h.242a.07.07 0 0 0 .05-.02.07.07 0 0 0 .021-.051v-.202a.04.04 0 0 0-.011-.029.04.04 0 0 0-.03-.011h-.227a.05.05 0 0 0-.032.013m1.213-.012-.008.006q-.005.004-.006.008l-.002.01.002.287-.291.001-.008.001-.007.005a.02.02 0 0 0-.006.014v.264l.003.006.007.003h.292l.008-.003.003-.007-.001-.284.261-.001q.054 0 .029-.283a.03.03 0 0 0-.032-.028h-.234zm4.196 0-.012.006q-.004.005-.007.012l-.003.014-.002.243a.04.04 0 0 0 .011.025.04.04 0 0 0 .024.01l.216.002a.06.06 0 0 0 .044-.019.07.07 0 0 0 .019-.044V8.25a.07.07 0 0 0-.017-.045.06.06 0 0 0-.044-.018l-.216-.002-.013.002zm-8.117-.293q-.003.004-.002.007v.285l-.251-.001a.04.04 0 0 0-.032.012l-.01.014-.002.017v.227a.043.043 0 0 0 .043.043h.23q.007 0 .014-.006a.02.02 0 0 0 .006-.015l.002-.291.29-.002a.02.02 0 0 0 .02-.021v-.26q0-.005-.003-.008l-.008-.002h-.29zm2.12.293-.006.005-.005.006-.001.008-.001.27.002.008.004.007.007.005.008.001.252.001.008-.002.007-.004.005-.007V8.48l.002-.27-.002-.008-.004-.007-.007-.004-.008-.002h-.253l-.007.001zm1.198 0-.008.005a.03.03 0 0 0-.008.018v.262l.001.01.006.007.008.006.01.002.244.001q.005 0 .01-.002l.007-.006.006-.008.002-.01.001-.261q0-.005-.002-.009l-.006-.009a.03.03 0 0 0-.018-.007h-.243zm1.196 0-.01.007-.005.01-.003.01-.001.254.003.011.005.01.01.006.011.003h.254q.006 0 .01-.002l.01-.006.007-.01.002-.011.001-.253-.002-.011a.03.03 0 0 0-.016-.017l-.011-.002h-.254l-.01.001zm1.199.004a.02.02 0 0 0-.006.016v.27a.02.02 0 0 0 .006.014.02.02 0 0 0 .015.007l.223-.001a.05.05 0 0 0 .037-.017.06.06 0 0 0 .014-.039v-.2a.06.06 0 0 0-.015-.04.05.05 0 0 0-.037-.015h-.222a.02.02 0 0 0-.015.005m.592.003a.04.04 0 0 0-.01.025v.244q0 .015.01.024a.03.03 0 0 0 .025.011h.216a.06.06 0 0 0 .044-.019.07.07 0 0 0 .018-.045V8.25a.06.06 0 0 0-.062-.063h-.216a.04.04 0 0 0-.025.01zm.618-.007a.04.04 0 0 0-.02.02l-.001.014-.002.24q0 .008.003.014a.04.04 0 0 0 .033.022l.223.001q.007 0 .013-.002a.04.04 0 0 0 .023-.033v-.24l-.001-.014-.008-.012a.04.04 0 0 0-.025-.01l-.223-.002zM.598 8.197a.03.03 0 0 1 .008.022v.28l-.283-.002-.007-.003-.003-.007v-.292l.002-.005.005-.002h.255q.013 0 .023.01zm6.022-.593-.007.002-.003.008v.272q0 .005.003.008l.008.002h.284l.001.292H6.63a.02.02 0 0 0-.014.005.02.02 0 0 0-.006.014v.278q.001.006.005.01a.01.01 0 0 0 .01.004h.271q.005 0 .007-.002.003-.003.002-.007l.001-.303h.283l.007-.002.003-.007v-.275l-.003-.007-.008-.002-.283.002q0-.133-.007-.267-.003-.048-.278-.025m2.697.296a.02.02 0 0 0-.005.014l-.001.274h-.287A.03.03 0 0 0 9 8.213v.272q0 .006.004.01l.009.003h.293l.003-.003.002-.003V8.19h.285l.007-.002.002-.007v-.276l-.002-.007-.007-.002H9.33a.02.02 0 0 0-.014.005zm6.298.292a.02.02 0 0 0-.007.016v.27q0 .008.007.015c.007.007.01.006.015.006h.213a.06.06 0 0 0 .043-.02.08.08 0 0 0 .018-.05v-.172a.08.08 0 0 0-.018-.05.06.06 0 0 0-.043-.02h-.213a.02.02 0 0 0-.015.005m-3.011-.588a.02.02 0 0 0-.006.015l-.001.218q0 .024.014.04a.05.05 0 0 0 .037.018h.21l.019-.003a.05.05 0 0 0 .027-.032l.004-.022.001-.217a.02.02 0 0 0-.006-.015.02.02 0 0 0-.014-.005l-.27-.002a.02.02 0 0 0-.015.005m1.8.001a.02.02 0 0 0-.008.015v.223q0 .02.014.036.016.015.036.016h.211a.05.05 0 0 0 .036-.014.05.05 0 0 0 .015-.036l.001-.223a.02.02 0 0 0-.006-.016.02.02 0 0 0-.015-.005l-.27-.002a.02.02 0 0 0-.015.006zm1.206-.003-.002.005v.279q0 .003.002.006l.006.003h.241a.04.04 0 0 0 .018-.003.05.05 0 0 0 .024-.028l.004-.021V7.65a.06.06 0 0 0-.013-.036.04.04 0 0 0-.033-.015l-.24-.001zM2.432 6.997a.04.04 0 0 0-.023.024l-.004.016.001.251-.275.001a.02.02 0 0 0-.013.006.02.02 0 0 0-.005.012V7.6H1.82a.02.02 0 0 0-.013.005.02.02 0 0 0-.006.015v.264a.01.01 0 0 0 .01.01h.292l.006-.003.003-.007V7.6l.277-.002a.02.02 0 0 0 .011-.005.02.02 0 0 0 .006-.013v-.293h.284a.01.01 0 0 0 .01-.01v-.274a.01.01 0 0 0-.01-.01h-.242q-.008 0-.016.003zM3.019 7a.02.02 0 0 0-.005.014l-.002.275-.292.001a.02.02 0 0 0-.018.019l-.002.29-.281.002h-.005l-.004.003-.003.004v.275q0 .005.002.008l.008.004h.257a.03.03 0 0 0 .018-.008.03.03 0 0 0 .008-.019V7.6l.293-.002q.008 0 .013-.005a.02.02 0 0 0 .005-.013v-.29h.287l.006-.004.002-.006v-.273q0-.005-.003-.009l-.009-.003h-.26q-.01 0-.015.005m1.484-.902-.003.006.001.284h-.257q-.016 0-.026.01a.04.04 0 0 0-.012.027V6.7h-.284l-.007.002-.003.007v.276l.003.007.007.003h.283l.001.293-.276.001q-.008 0-.012.006a.02.02 0 0 0-.006.012V7.6l-.302-.001-.006.003-.003.006v.282l.002.002.002.002h.27q.016 0 .026-.011a.04.04 0 0 0 .011-.027V7.6l.276-.001a.02.02 0 0 0 .012-.005.02.02 0 0 0 .005-.012l.001-.294h.284q.004 0 .007-.002l.003-.008v-.275l-.003-.007-.008-.003-.284.002.001-.295.259.001a.037.037 0 0 0 .036-.036v-.277l.29-.001q.008 0 .015-.006a.02.02 0 0 0 .006-.015v-.26l-.003-.008-.008-.003H4.51zM4.818 7a.02.02 0 0 0-.005.014l-.001.274-.293.002a.02.02 0 0 0-.012.006q-.005.005-.006.012V7.6l-.254-.003a.04.04 0 0 0-.03.012.04.04 0 0 0-.012.03v.213a.043.043 0 0 0 .043.043h.233a.02.02 0 0 0 .014-.005.02.02 0 0 0 .006-.014V7.6l.291-.002.007-.001.006-.004.004-.006.002-.007v-.292l.285.001H5.1l.003-.002.001-.004.001-.004v-.275l-.002-.007-.007-.003h-.264A.02.02 0 0 0 4.818 7m.59 0a.02.02 0 0 0-.007.014l-.002.275-.273.002a.02.02 0 0 0-.013.005.02.02 0 0 0-.005.013l-.002.29h-.285q-.003 0-.007.002l-.002.006v.283l.002.003h.002l.003.002h.244a.05.05 0 0 0 .03-.013.05.05 0 0 0 .013-.031V7.6l.274-.002a.02.02 0 0 0 .013-.006.02.02 0 0 0 .004-.013l.002-.29.269.001.017-.004.014-.009.009-.014.004-.017v-.21a.04.04 0 0 0-.012-.03.04.04 0 0 0-.03-.012h-.25A.02.02 0 0 0 5.408 7m.006.6a.02.02 0 0 0-.012.013l-.002.008v.25l.001.009.005.008.008.005h.008l.266.002.01-.002.007-.005.005-.007v-.009l.002-.25q0-.005-.002-.009l-.005-.007-.007-.004-.009-.002-.266-.001q-.005 0-.009.002zM6.617 7a.02.02 0 0 0-.006.014v.276l-.293.001a.02.02 0 0 0-.018.019v.29l-.285-.001a.01.01 0 0 0-.01.01v.277l.003.007.007.003h.25a.03.03 0 0 0 .024-.01.03.03 0 0 0 .01-.024V7.6l.293-.002q.008 0 .012-.005a.02.02 0 0 0 .005-.013l.001-.29h.253a.04.04 0 0 0 .042-.043v-.212a.04.04 0 0 0-.011-.03.04.04 0 0 0-.03-.01h-.233a.02.02 0 0 0-.014.004zm1.214-.002-.015.01a.05.05 0 0 0-.013.031l.002.251h-.276a.02.02 0 0 0-.012.006.02.02 0 0 0-.005.012L7.51 7.6l-.301-.001h-.004l-.004.003-.002.002v.281l.002.007.006.003h.267q.015 0 .025-.012a.04.04 0 0 0 .012-.027L7.51 7.6l.276-.001.007-.001.005-.004.004-.006.002-.007V7.29h.284l.008-.003.003-.007v-.277l-.003-.006-.006-.002h-.243l-.017.003zm-.015.604-.005.003-.004.005-.001.007-.001.26v.007l.005.006.005.004h.007l.259.002.007-.001a.02.02 0 0 0 .01-.01v-.007l.002-.26-.001-.007-.004-.006-.006-.003-.007-.001-.259-.001q-.003 0-.007.002m1.194-.593a.05.05 0 0 0-.013.031v.25l-.272.002a.02.02 0 0 0-.013.005.02.02 0 0 0-.005.013l-.001.29H8.42q-.004 0-.007.002l-.003.006v.28l.001.003.002.003h.002l.003.002h.243a.045.045 0 0 0 .045-.044V7.6l.273-.002q.007 0 .012-.006a.02.02 0 0 0 .005-.013l.001-.29.293-.002a.02.02 0 0 0 .014-.006.02.02 0 0 0 .006-.014v-.229a.05.05 0 0 0-.012-.031.05.05 0 0 0-.031-.013H9.04a.05.05 0 0 0-.031.014zm.003.593A.02.02 0 0 0 9 7.613l-.002.008v.25L9 7.88l.005.008.008.005h.008l.266.002.009-.002a.02.02 0 0 0 .013-.012l.002-.009v-.25l-.002-.009-.005-.007a.02.02 0 0 0-.016-.006l-.267-.001q-.004 0-.008.002zM10.216 7a.02.02 0 0 0-.006.013l-.001.276-.292.001a.02.02 0 0 0-.013.006.02.02 0 0 0-.005.013v.29l-.286-.001-.007.003-.002.006v.278l.003.007.007.003h.25a.04.04 0 0 0 .025-.011.04.04 0 0 0 .01-.025V7.6l.291-.001q.008 0 .013-.005a.02.02 0 0 0 .006-.013v-.29h.252a.04.04 0 0 0 .031-.013.05.05 0 0 0 .013-.03v-.21a.04.04 0 0 0-.013-.031.04.04 0 0 0-.03-.012h-.232a.02.02 0 0 0-.014.006zm.008.6-.008.005-.005.008-.002.008v.25l.001.009.005.008.008.005h.008l.25.002.007-.001.008-.005a.03.03 0 0 0 .007-.017v-.249a.03.03 0 0 0-.006-.017l-.007-.004-.009-.002zm1.206-.603-.014.01-.01.014-.003.017v.251h-.275l-.007.002-.006.004-.003.005-.002.007V7.6h-.3a.02.02 0 0 0-.013.019v.229a.05.05 0 0 0 .013.033.05.05 0 0 0 .034.014h.216a.05.05 0 0 0 .034-.013.05.05 0 0 0 .013-.033l.002-.25h.277q.007 0 .012-.005a.02.02 0 0 0 .005-.013V7.29h.285l.007-.003.003-.007v-.277l-.003-.006-.005-.002h-.244q-.008 0-.016.003zm1.18.01a.05.05 0 0 0-.013.033v.25l-.274.001a.02.02 0 0 0-.013.005.02.02 0 0 0-.004.013l-.001.29-.285-.001-.008.003-.003.007v.282l.003.003h.002l.003.002h.247a.04.04 0 0 0 .028-.012.04.04 0 0 0 .012-.029V7.6l.273-.002a.02.02 0 0 0 .013-.006.02.02 0 0 0 .006-.013v-.29l.29-.002a.03.03 0 0 0 .016-.007.02.02 0 0 0 .007-.016v-.22a.05.05 0 0 0-.05-.05h-.217a.05.05 0 0 0-.033.014zm1.2.595-.001.005v.279q0 .004.002.007l.006.002h.243a.04.04 0 0 0 .03-.016.06.06 0 0 0 .014-.037v-.19a.06.06 0 0 0-.013-.037.04.04 0 0 0-.03-.015h-.244q-.004 0-.007.002M11.42 7.6l-.008.005-.006.01-.002.009v.242a.03.03 0 0 0 .007.019l.009.006.01.002h.242l.01-.002.008-.006.006-.008.002-.01.001-.242-.002-.01-.006-.009-.008-.005-.01-.003h-.242q-.006 0-.01.002zm1.79.004a.02.02 0 0 0-.007.017v.247a.03.03 0 0 0 .006.018.03.03 0 0 0 .017.007h.248a.024.024 0 0 0 .023-.024l.001-.248a.02.02 0 0 0-.007-.017.02.02 0 0 0-.016-.006h-.248a.02.02 0 0 0-.017.006m1.808-.005a.03.03 0 0 0-.014.012l-.001.01-.001.247q0 .005.002.009l.005.008.008.006h.008l.248.002a.03.03 0 0 0 .017-.007l.005-.008.002-.009v-.247a.03.03 0 0 0-.006-.018.03.03 0 0 0-.018-.007h-.247q-.005 0-.008.002m-.59-.604a.03.03 0 0 0-.024.01.03.03 0 0 0-.008.023l.002.229q0 .014.01.023.01.01.023.01l.245-.003a.033.033 0 0 0 .033-.033l-.002-.229a.04.04 0 0 0-.01-.023.03.03 0 0 0-.024-.01zm-8.407 0h-.006L6.01 7l-.003.005-.002.006v.261l.002.007q0 .003.004.005l.006.004.005.001h.262l.006-.002.006-.004.003-.005V7.01a.02.02 0 0 0-.004-.011l-.006-.004h-.268m1.203 0a.03.03 0 0 0-.018.007.03.03 0 0 0-.008.018l.001.243a.025.025 0 0 0 .025.025h.261a.03.03 0 0 0 .019-.008.03.03 0 0 0 .007-.018L7.51 7.02A.03.03 0 0 0 7.503 7a.03.03 0 0 0-.019-.006zm1.195 0h-.004l-.003.001L8.41 7v.004l.001.276v.003l.002.003.007.003h.275l.003-.002.005-.005.001-.003v-.276l-.002-.004-.002-.003-.003-.002h-.003zm1.201 0h-.006L9.608 7l-.004.01v.262l.002.007.003.005.006.004.006.001h.262l.006-.002.006-.004.002-.005.002-.007V7.01l-.003-.006-.002-.005-.006-.004H9.62m1.202 0a.03.03 0 0 0-.017.007.03.03 0 0 0-.007.018v.243q0 .01.008.018a.03.03 0 0 0 .018.007h.261a.03.03 0 0 0 .017-.008.03.03 0 0 0 .007-.018V7.02a.03.03 0 0 0-.007-.02.03.03 0 0 0-.018-.006zm1.196 0h-.003l-.003.001L12.01 7l-.001.004v.276l.002.003.002.003.003.002.003.001h.275l.004-.002.003-.002.002-.003V7.28l-.001-.276V7l-.002-.003-.003-.002h-.004l-.275.001zm1.195 0-.007.002-.003.006v.275q0 .004.003.007l.007.003h.275l.007-.003.003-.007v-.275l-.004-.007q-.002-.002-.006-.003l-.275.001zm.602.005a.02.02 0 0 0-.007.016v.249a.02.02 0 0 0 .007.016.02.02 0 0 0 .016.007h.248q.005 0 .009-.002l.008-.005.005-.008v-.266L14.096 7l-.008-.005-.009-.002h-.248a.02.02 0 0 0-.016.007m1.2-.006a.01.01 0 0 0-.01.004l-.003.009v.268l.002.005q0 .003.003.004l.004.003.005.001h.268a.01.01 0 0 0 .01-.004.01.01 0 0 0 .004-.01l-.001-.267-.001-.005-.003-.005-.004-.003h-.273zm.607 0a.03.03 0 0 0-.013.014l-.002.009v.247l.002.008a.03.03 0 0 0 .013.014l.009.002h.246a.03.03 0 0 0 .018-.007l.004-.008.002-.008v-.247A.03.03 0 0 0 15.895 7l-.008-.005-.01-.002h-.245zM3.61 5.201a.02.02 0 0 0-.006.015l-.002.273-.275.002a.02.02 0 0 0-.013.005.02.02 0 0 0-.004.013l-.001.29h-.29l-.003.003-.002.003-.001.005v.276l.003.007.006.003h.285l.002.293-.277.002a.02.02 0 0 0-.012.005.02.02 0 0 0-.005.012l-.002.293H2.72a.02.02 0 0 0-.015.006.02.02 0 0 0-.006.014v.264l.003.007.003.002.004.001h.292l.007-.003.003-.008v-.283h.255a.04.04 0 0 0 .041-.04V6.39h.283l.007-.003.003-.007v-.275l-.003-.006-.008-.003h-.284l.002-.295.272-.002q.008 0 .013-.005a.02.02 0 0 0 .006-.013l.002-.29.298-.003q.006 0 .01-.003l.003-.008v-.268a.01.01 0 0 0-.004-.01l-.01-.004h-.274a.02.02 0 0 0-.015.007zm2.109.9a.02.02 0 0 0-.005.013l-.001.275-.276-.001a.04.04 0 0 0-.026.01.04.04 0 0 0-.01.026V6.7l-.274.002a.02.02 0 0 0-.015.006.02.02 0 0 0-.006.014v.26q0 .005.003.008l.008.004h.274l.006-.003.003-.007V6.7h.276q.016 0 .026-.01a.04.04 0 0 0 .01-.026v-.276h.284a.01.01 0 0 0 .01-.01v-.275l-.002-.006-.007-.003h-.265a.02.02 0 0 0-.013.006zm.895-.298-.003.007v.276l.003.007.007.003h.285l.001.293H6.63a.02.02 0 0 0-.02.02v.251q0 .015.012.028a.04.04 0 0 0 .03.013h.21a.04.04 0 0 0 .03-.013.04.04 0 0 0 .012-.03l.002-.27h.283a.01.01 0 0 0 .01-.01v-.277l-.003-.004-.004-.002-.004-.001-.283.002v-.254a.04.04 0 0 0-.011-.03.04.04 0 0 0-.03-.012H6.62zm1.489.295q-.003.002-.002.006v.284l-.256-.001a.04.04 0 0 0-.028.011.04.04 0 0 0-.011.028v.232a.043.043 0 0 0 .043.043h.209a.043.043 0 0 0 .043-.043v-.27l.29-.001a.02.02 0 0 0 .014-.006.02.02 0 0 0 .006-.015v-.26q0-.005-.003-.008L8.4 6.095h-.29zm1.526.293-.012.006a.04.04 0 0 0-.01.025l-.002.241a.04.04 0 0 0 .01.025l.012.01.014.001.222.002a.04.04 0 0 0 .034-.022l.002-.014.002-.24a.04.04 0 0 0-.022-.033l-.014-.003-.222-.001zm1.799-.001-.012.007a.04.04 0 0 0-.01.026l-.002.24q0 .016.01.025a.04.04 0 0 0 .025.011l.224.002a.04.04 0 0 0 .025-.01l.008-.012.003-.014.001-.24a.04.04 0 0 0-.01-.026.04.04 0 0 0-.025-.01l-.223-.001zm1.194-.001-.012.007-.007.011-.003.013-.003.244q0 .008.003.014l.007.01.011.008q.007.003.014.003l.217.002a.06.06 0 0 0 .043-.017.06.06 0 0 0 .018-.044l.002-.189a.1.1 0 0 0-.004-.023.07.07 0 0 0-.056-.04l-.217-.002zm.606.002-.012.006-.008.012-.003.014v.24l.001.014.008.011.012.01.013.001.223.002.015-.003a.04.04 0 0 0 .022-.033l.001-.24a.04.04 0 0 0-.022-.033l-.014-.003-.223-.001zm-10.804 0-.009.005-.006.01-.002.009v.258q0 .01.008.02a.03.03 0 0 0 .02.007h.24a.03.03 0 0 0 .02-.008.03.03 0 0 0 .007-.02v-.257a.03.03 0 0 0-.008-.019l-.008-.005-.011-.002h-.24zm1.191-.001-.007.005-.004.006-.002.01-.001.267q0 .003.002.008a.02.02 0 0 0 .012.013h.008l.268.001q.003 0 .007-.002a.02.02 0 0 0 .013-.012l.001-.008.001-.267q0-.005-.002-.009l-.005-.006a.02.02 0 0 0-.015-.007h-.276zm1.21 0-.008.004-.003.006-.001.007-.001.275q0 .003.002.006a.02.02 0 0 0 .01.01l.006.002h.265l.006-.005a.02.02 0 0 0 .005-.014V6.4L5.1 6.395l-.006-.004-.007-.002h-.264zm1.2 0-.01.006-.006.011-.003.012v.25a.03.03 0 0 0 .009.022.03.03 0 0 0 .021.01h.234l.011-.003.01-.007a.03.03 0 0 0 .01-.021v-.251a.03.03 0 0 0-.009-.022.03.03 0 0 0-.021-.008l-.234-.001zm1.19 0-.007.006a.03.03 0 0 0-.008.019v.259l.001.01.006.007.008.006.01.002.26.001a.03.03 0 0 0 .019-.008l.006-.007.002-.01v-.26a.03.03 0 0 0-.007-.019.03.03 0 0 0-.019-.008h-.26l-.01.002zm1.215 0-.01.006a.03.03 0 0 0-.009.02v.255q0 .006.002.01l.006.01.01.006.01.003h.237q.005 0 .01-.002l.01-.006.006-.01.003-.01v-.254q0-.006-.002-.012l-.006-.009-.01-.006-.01-.002-.237-.001q-.005 0-.01.002m.608-.001a.04.04 0 0 0-.028.01l-.008.014-.003.015v.233l.003.015.009.012.012.01.015.002h.234q.008 0 .015-.003l.013-.009.009-.012.003-.016-.001-.232-.003-.016-.01-.013-.012-.008-.014-.003h-.234zm1.19 0-.008.007-.007.01-.002.012-.001.252q0 .006.002.012l.007.01.01.005.011.003h.235q.005 0 .011-.002l.01-.007.006-.01.002-.01v-.253l-.001-.012-.007-.009-.01-.006-.011-.002-.235-.001q-.006 0-.012.002zm.61 0a.04.04 0 0 0-.028.01.04.04 0 0 0-.012.028v.234q0 .007.004.015l.009.012.012.01.015.002h.233l.015-.003a.04.04 0 0 0 .021-.021l.003-.016v-.232a.04.04 0 0 0-.012-.028l-.012-.01-.016-.002h-.232zm1.19 0-.01.007-.005.01-.003.011v.253q0 .006.002.012l.006.01.01.005.011.003h.235a.03.03 0 0 0 .02-.008l.007-.01.003-.011v-.253q0-.006-.002-.01l-.006-.01-.01-.007-.012-.002-.234-.001q-.006 0-.012.002zm1.8 0-.01.007-.007.01-.001.012-.001.252.002.012.006.01.01.005.012.003h.234q.006 0 .012-.002l.01-.007.006-.01.002-.01v-.253l-.001-.012-.007-.009-.01-.006-.01-.002-.236-.001-.01.002zm.591 0a.04.04 0 0 0-.019.018l-.001.013-.002.246q0 .007.002.013l.008.01.011.008.013.003h.21a.07.07 0 0 0 .069-.068l.001-.174a.07.07 0 0 0-.02-.05.1.1 0 0 0-.022-.014.1.1 0 0 0-.026-.006l-.211-.001zm1.209 0-.01.007-.007.01-.002.011v.253l.001.012.007.01.01.005.01.003h.235a.03.03 0 0 0 .022-.008l.006-.01.002-.011.001-.253-.002-.01-.006-.01-.01-.007-.011-.002-.235-.001zm-4.822-.583a.02.02 0 0 0-.007.015l-.001.222q0 .021.014.037.016.015.037.015l.21.002a.1.1 0 0 0 .02-.004l.016-.012.011-.017a.1.1 0 0 0 .004-.02l.001-.222a.02.02 0 0 0-.006-.015.02.02 0 0 0-.015-.006l-.27-.001a.02.02 0 0 0-.014.006m1.799 0a.02.02 0 0 0-.006.015l-.001.223q0 .021.014.036a.05.05 0 0 0 .035.015l.211.002a.1.1 0 0 0 .02-.004.05.05 0 0 0 .031-.048l.001-.223a.02.02 0 0 0-.006-.015.02.02 0 0 0-.015-.006L12.62 5.8a.02.02 0 0 0-.015.006m1.8 0a.02.02 0 0 0-.008.015v.222q0 .021.014.037a.05.05 0 0 0 .036.015l.211.002.02-.004a.05.05 0 0 0 .027-.029.1.1 0 0 0 .004-.02l.001-.222a.02.02 0 0 0-.006-.015.02.02 0 0 0-.015-.006l-.27-.001a.02.02 0 0 0-.015.006zm1.798 0a.02.02 0 0 0-.006.015v.222q0 .021.014.037a.05.05 0 0 0 .036.015l.21.002a.1.1 0 0 0 .02-.004l.016-.012a.1.1 0 0 0 .012-.017.1.1 0 0 0 .004-.02v-.222a.02.02 0 0 0-.006-.015.02.02 0 0 0-.015-.006l-.27-.001a.02.02 0 0 0-.015.006M8.42 5.8l-.006.003q-.003.001-.003.006l.001.278q0 .003.002.006l.007.003.24-.001a.05.05 0 0 0 .031-.016.06.06 0 0 0 .014-.037v-.19l-.003-.021-.01-.017-.016-.011a.04.04 0 0 0-.018-.004H8.42zm1.805.002-.007.005-.006.007-.002.01v.247l.001.01.006.007.007.005.01.002h.246l.01-.001.007-.005.005-.008.002-.009v-.248l-.001-.009-.005-.007a.03.03 0 0 0-.017-.007l-.247-.001q-.005 0-.01.002zm1.8 0-.008.005a.03.03 0 0 0-.007.016l-.001.247a.03.03 0 0 0 .007.018.03.03 0 0 0 .018.007h.245l.01-.001a.03.03 0 0 0 .014-.013v-.257l-.001-.009-.005-.007-.008-.005-.009-.002-.246-.001q-.005 0-.01.002zm1.8 0-.009.005-.005.007-.001.01-.001.247q0 .004.002.01l.005.007.007.005.01.002h.246l.009-.001.008-.005.005-.008.002-.009v-.248l-.001-.009-.005-.007-.008-.005-.009-.002-.247-.001q-.005 0-.009.002zm1.786 0q-.002.003-.003.007v.278l.003.006.006.003h.243l.017-.004a.05.05 0 0 0 .023-.029l.004-.02v-.19a.06.06 0 0 0-.012-.038.04.04 0 0 0-.032-.015h-.243l-.006.003zm-12.007 0q-.002.003-.002.007v.277l.003.007.005.002h.257a.1.1 0 0 0 .033-.01q.014-.01.014-.022V5.83q0-.006-.004-.012l-.01-.01a.05.05 0 0 0-.034-.01h-.257zm1.213-.606-.003.002-.001.003-.001.004v.285l-.292.001a.02.02 0 0 0-.012.005.02.02 0 0 0-.006.013v.29l-.276.003a.02.02 0 0 0-.014.005.02.02 0 0 0-.005.013v.248a.03.03 0 0 0 .026.027h.254a.01.01 0 0 0 .01-.004.01.01 0 0 0 .004-.01l.001-.281.291-.001a.02.02 0 0 0 .013-.006.02.02 0 0 0 .006-.013v-.29h.256a.04.04 0 0 0 .028-.011.04.04 0 0 0 .01-.027v-.249l-.001-.006-.006-.002H4.82zm-.002.606-.002.007v.277l.002.007.006.002h.24a.04.04 0 0 0 .033-.015.06.06 0 0 0 .013-.037v-.191a.06.06 0 0 0-.013-.038.04.04 0 0 0-.032-.014h-.24q-.004 0-.007.002m.6 0-.008.005-.005.006-.002.01v.248l.002.01.005.007.008.005.009.002h.264l.01-.002a.02.02 0 0 0 .013-.012v-.267l-.006-.007-.007-.005-.009-.002h-.265q-.004 0-.009.002m.596.002a.01.01 0 0 0-.005.01v.266q0 .006.005.01.003.004.01.005h.265q.006 0 .01-.005.005-.006.005-.01v-.267q0-.005-.005-.01a.01.01 0 0 0-.01-.003H6.02a.01.01 0 0 0-.01.004zm1.202-.002-.007.005a.02.02 0 0 0-.007.014l.001.253.001.008.005.007.007.005h.278a.02.02 0 0 0 .014-.006.02.02 0 0 0 .007-.015L7.51 5.82l-.001-.008-.005-.006-.007-.005L7.49 5.8h-.27zm.598.002a.02.02 0 0 0-.005.01v.266q0 .006.005.01a.02.02 0 0 0 .01.005h.265l.01-.004a.02.02 0 0 0 .005-.01v-.267a.02.02 0 0 0-.005-.01l-.01-.004H7.82zm1.197.005a.03.03 0 0 0-.009.02v.235q0 .013.009.022a.03.03 0 0 0 .021.009h.252l.012-.003.01-.006.006-.01.003-.012V5.83q0-.006-.003-.01l-.006-.01-.01-.007-.012-.002h-.252a.03.03 0 0 0-.021.009zm.611-.008-.007.005-.005.006-.002.01v.248l.001.01a.02.02 0 0 0 .012.013h.009l.249.002.009-.002.008-.005.004-.008.002-.009.001-.248q0-.005-.002-.01l-.004-.006-.008-.005-.009-.002-.248-.001q-.005 0-.01.002m3.6 0a.02.02 0 0 0-.013.012l-.002.01v.247l.001.01.005.007.008.005.009.002h.248l.008-.001.008-.005.005-.008.002-.009.001-.248q0-.005-.002-.01a.02.02 0 0 0-.013-.011l-.008-.002-.248-.001zm1.8 0a.03.03 0 0 0-.014.013l-.001.008-.001.248q0 .004.002.01l.005.007a.03.03 0 0 0 .016.007h.248a.03.03 0 0 0 .017-.006l.005-.008.002-.009v-.248l-.001-.009-.005-.007a.03.03 0 0 0-.018-.007l-.247-.001q-.005 0-.008.002m1.798 0-.007.005a.03.03 0 0 0-.007.016l-.001.248q0 .004.002.01l.005.007.007.005.01.002h.247l.01-.001.007-.005a.03.03 0 0 0 .007-.017v-.248l-.001-.009-.005-.007-.008-.005-.009-.002-.248-.001q-.005 0-.009.002m-5.398 0-.008.005-.005.007-.002.01v.247l.001.01.006.007.007.005.009.002h.249l.009-.001.007-.006.005-.007.002-.009v-.249q0-.004-.002-.009l-.005-.007-.007-.005-.01-.001-.247-.001q-.004 0-.009.002m-.589-.605-.013.003-.01.007-.007.01-.003.013.002.23q.001.013.01.022.01.01.023.01l.246-.002.013-.003.01-.007.007-.01.002-.013-.002-.23a.03.03 0 0 0-.01-.022.03.03 0 0 0-.023-.01zm3.599 0a.03.03 0 0 0-.024.01.03.03 0 0 0-.008.023l.002.229a.033.033 0 0 0 .033.033l.245-.002a.03.03 0 0 0 .023-.01.04.04 0 0 0 .01-.024l-.002-.227a.03.03 0 0 0-.01-.024.03.03 0 0 0-.024-.01zm-9.02.005a.02.02 0 0 0-.008.017l-.002.248q0 .009.007.015.007.007.017.007l.266.002a.02.02 0 0 0 .015-.007.02.02 0 0 0 .007-.015v-.25a.02.02 0 0 0-.005-.015.02.02 0 0 0-.017-.007l-.265-.002a.02.02 0 0 0-.016.007zm1.218-.005-.008.005a.03.03 0 0 0-.007.018v.245a.03.03 0 0 0 .014.023l.01.002.245.001q.005 0 .009-.002l.007-.006.006-.007.002-.01.001-.245q0-.005-.002-.01a.03.03 0 0 0-.013-.013l-.01-.002h-.244zm2.38.005A.02.02 0 0 0 9 5.218l-.001.248a.02.02 0 0 0 .006.015q.006.007.017.007l.265.002a.02.02 0 0 0 .016-.007.02.02 0 0 0 .007-.015l.002-.25a.02.02 0 0 0-.007-.015.02.02 0 0 0-.017-.007l-.266-.002a.02.02 0 0 0-.015.007m.613-.004-.008.005a.03.03 0 0 0-.007.018v.245l.001.009.005.008a.03.03 0 0 0 .018.007l.246.001q.005 0 .009-.002l.008-.005.005-.008.002-.01.001-.244q0-.006-.002-.01a.03.03 0 0 0-.013-.013l-.009-.002H9.63zm1.8 0a.03.03 0 0 0-.014.013l-.002.01v.245a.03.03 0 0 0 .007.017.03.03 0 0 0 .018.007l.245.001a.03.03 0 0 0 .017-.007q.004-.003.005-.008l.002-.01.001-.244q0-.006-.002-.01l-.005-.008a.03.03 0 0 0-.018-.007h-.244zm1.8 0-.009.005-.005.008-.002.01v.245l.001.009.005.008q.004.004.009.005l.009.002.246.001q.005 0 .008-.002.005 0 .01-.005l.004-.008.002-.01.001-.244q0-.006-.002-.01l-.005-.008-.009-.005-.008-.002h-.247zm1.799 0-.008.005-.005.008-.002.01-.001.245q0 .005.002.009l.005.008a.03.03 0 0 0 .018.007l.245.001q.004 0 .01-.002l.007-.005a.03.03 0 0 0 .008-.018v-.244l-.001-.01a.03.03 0 0 0-.014-.013l-.01-.002h-.245zm1.8 0a.03.03 0 0 0-.014.013l-.002.01-.001.245a.03.03 0 0 0 .008.017l.007.005.01.002.245.001a.03.03 0 0 0 .018-.007l.005-.008.002-.01v-.244l-.001-.01-.005-.008-.008-.005-.01-.002h-.246zm-10.802 0-.005.002-.004.006-.001.006-.001.263.002.005q0 .003.003.005l.005.004.006.001h.263l.01-.004.004-.005.002-.006V5.21l-.004-.01-.006-.005h-.274zm1.198 0-.008.005-.005.008-.002.009v.248l.002.009.005.006.008.006.009.001h.265q.004 0 .01-.002l.006-.005.006-.007v-.257l-.001-.009a.02.02 0 0 0-.013-.012l-.009-.002h-.264zm.59.282a.01.01 0 0 0 .01.01h.276l.007-.003q.002-.002.003-.006v-.265a.02.02 0 0 0-.006-.014.02.02 0 0 0-.015-.006h-.274zm2.412-.278a.02.02 0 0 0-.007.017v.248a.02.02 0 0 0 .007.016.02.02 0 0 0 .016.007h.248a.02.02 0 0 0 .016-.007.02.02 0 0 0 .007-.016v-.248a.02.02 0 0 0-.007-.017.03.03 0 0 0-.017-.007h-.247a.02.02 0 0 0-.016.007m1.807-.005-.007.005-.005.008-.002.009-.001.247q0 .005.002.01a.03.03 0 0 0 .013.012l.01.002h.255l.007-.007.006-.007.002-.01V5.22l-.004-.01a.03.03 0 0 0-.013-.014l-.009-.002h-.247l-.009.002zm.631-.002-.022.004a.05.05 0 0 0-.031.027.1.1 0 0 0-.005.021v.223q.001.008.008.014.008.008.014.006h.27q.003 0 .008-.002l.006-.005.005-.006.002-.01v-.222a.05.05 0 0 0-.017-.036.06.06 0 0 0-.041-.015zm1.16.007a.02.02 0 0 0-.006.017v.248a.02.02 0 0 0 .007.016.02.02 0 0 0 .016.007h.248a.02.02 0 0 0 .017-.007.02.02 0 0 0 .006-.016v-.248a.02.02 0 0 0-.006-.017.02.02 0 0 0-.017-.007h-.248a.02.02 0 0 0-.016.007zm1.8 0a.02.02 0 0 0-.007.017v.249q0 .009.007.015a.02.02 0 0 0 .016.007h.249a.02.02 0 0 0 .016-.007.02.02 0 0 0 .006-.015v-.25a.02.02 0 0 0-.006-.016.02.02 0 0 0-.016-.007h-.25a.02.02 0 0 0-.015.007m.638-.007a.06.06 0 0 0-.04.015.1.1 0 0 0-.013.017.1.1 0 0 0-.004.02v.223q0 .008.007.014.009.008.015.006h.27l.007-.002.008-.005q.003-.002.004-.006l.002-.01-.001-.222a.05.05 0 0 0-.017-.036.06.06 0 0 0-.04-.015zm1.162.007a.03.03 0 0 0-.007.018v.247q0 .01.007.016.007.007.017.007h.246a.03.03 0 0 0 .017-.007.03.03 0 0 0 .007-.016v-.247a.03.03 0 0 0-.007-.018.03.03 0 0 0-.017-.007h-.246a.02.02 0 0 0-.017.007m-8.998-.005-.005.005v.282l.002.003.003.002H8.7l.003-.002.002-.003v-.282l-.002-.003-.003-.002h-.283M5.408 4.6a.03.03 0 0 0-.01.023v.28l-.272.001a.02.02 0 0 0-.015.006.02.02 0 0 0-.006.015v.26q0 .005.003.008l.008.003h.278l.002-.003q.002 0 .002-.003l.001-.003v-.284l.284-.002a.03.03 0 0 0 .02-.008.03.03 0 0 0 .009-.02V4.62a.03.03 0 0 0-.01-.021.03.03 0 0 0-.022-.01h-.248a.03.03 0 0 0-.024.01zm1.229-.007-.015.01-.009.013-.004.016.001.27h-.29a.02.02 0 0 0-.015.006q-.005.007-.005.015v.264q0 .004.002.006l.007.003h.293l.006-.003q.003-.002.002-.006V4.9h.258q.016 0 .027-.01a.04.04 0 0 0 .01-.026v-.233a.044.044 0 0 0-.044-.043h-.209q-.007 0-.015.003zm1.18.009a.04.04 0 0 0-.012.028v.27H7.52l-.004.001-.003.002-.002.004-.001.004v.279l.003.003q0 .002.003.002l.004.001h.284v-.294l.25.001a.045.045 0 0 0 .045-.045V4.63a.04.04 0 0 0-.04-.04h-.216a.04.04 0 0 0-.028.012zm1.194 0a.05.05 0 0 0-.013.032v.27h-.273a.02.02 0 0 0-.015.006.02.02 0 0 0-.006.015v.26q0 .005.003.008.004.003.009.003h.272a.01.01 0 0 0 .01-.01v-.283h.28a.03.03 0 0 0 .023-.01.03.03 0 0 0 .01-.022v-.226a.06.06 0 0 0-.017-.04.06.06 0 0 0-.04-.015h-.212a.04.04 0 0 0-.031.013zM10.81 4.6a.04.04 0 0 0-.012.028l-.001.233q0 .016.01.029a.04.04 0 0 0 .029.01l.233.002q.016 0 .029-.011a.04.04 0 0 0 .01-.028l.002-.234a.04.04 0 0 0-.011-.027.04.04 0 0 0-.028-.012l-.234-.001q-.016 0-.027.01zm-5.987-.01-.006.005-.005.007v.006l-.001.273a.02.02 0 0 0 .012.018l.007.001.255.001.008-.002.007-.003.004-.007V4.88l.001-.272a.02.02 0 0 0-.005-.013l-.006-.005-.008-.001-.255-.001zm1.203 0-.01.008-.007.01-.003.013-.001.247.003.012a.03.03 0 0 0 .017.018l.013.002.229.001q.006 0 .012-.002l.011-.007.008-.011.002-.012V4.61a.04.04 0 0 0-.019-.018l-.011-.001-.23-.001q-.007 0-.013.002zm1.192 0-.01.007-.006.01-.003.011v.253a.03.03 0 0 0 .008.02l.01.007.01.002.254.001.011-.002.01-.006.007-.01.002-.01v-.254l-.001-.012-.007-.01a.03.03 0 0 0-.02-.007l-.254-.001q-.006 0-.011.002zm1.205.002-.007.005-.004.007-.002.007v.27a.02.02 0 0 0 .007.015l.007.004.008.001h.252q.004 0 .007-.002l.007-.003.005-.008.002-.008v-.27l-.003-.008q0-.004-.004-.007l-.007-.004-.008-.002H8.43zm1.205-.001a.04.04 0 0 0-.02.02l-.003.013-.001.24a.037.037 0 0 0 .036.036l.222.001a.037.037 0 0 0 .036-.036l.002-.24a.04.04 0 0 0-.01-.025.04.04 0 0 0-.026-.011l-.222-.001zm.6 0-.01.008-.006.01-.003.01v.252l.003.012.006.01.01.006.011.002h.235a.03.03 0 0 0 .021-.008.03.03 0 0 0 .009-.022V4.62a.03.03 0 0 0-.009-.02.03.03 0 0 0-.021-.01h-.235l-.012.003zm1.199 0a.04.04 0 0 0-.02.018l-.003.015v.24q-.001.014.01.026.01.01.024.01l.224.001q.008 0 .014-.003l.011-.006a.04.04 0 0 0 .011-.026l.001-.24a.04.04 0 0 0-.01-.025.04.04 0 0 0-.025-.011l-.223-.002zm.612-.001a.03.03 0 0 0-.021.009.03.03 0 0 0-.01.021v.252q0 .006.004.01l.006.01.01.007.011.002h.234a.03.03 0 0 0 .03-.03V4.62q0-.006-.002-.012l-.007-.01-.01-.005-.011-.003zm.571.012a.05.05 0 0 0-.013.032l-.001.22q0 .02.013.033.013.012.033.013l.22.001a.05.05 0 0 0 .033-.012.05.05 0 0 0 .013-.033l.001-.22a.05.05 0 0 0-.014-.032.05.05 0 0 0-.032-.014l-.22-.001a.05.05 0 0 0-.033.013m.617-.011a.04.04 0 0 0-.02.018l-.003.015-.002.24q0 .015.01.026.012.01.026.01l.223.001q.008 0 .014-.003l.011-.006a.04.04 0 0 0 .011-.026l.002-.24a.04.04 0 0 0-.01-.025.04.04 0 0 0-.026-.011l-.223-.002z"/></svg>