<svg viewBox="0 0 128 128" xmlns="http://www.w3.org/2000/svg"><path d="m127.828125 128h-127.65625l42.496094-93.65625 25.601562 19.441406 33.390625-53.785156zm-46.804687-20.230469h.273437c3.160156.007813 6.199219-1.253906 8.472656-3.519531 1.167969-1.09375 2.09375-2.429688 2.722657-3.921875.628906-1.492187.941406-3.105469.921874-4.734375.050782-1.566406-.238281-3.125-.84375-4.5625-.609374-1.4375-1.519531-2.71875-2.667968-3.742188-1.933594-2.007812-4.542969-3.167968-7.285156-3.242187h-.210938c-.359375-.003906-.714844.046875-1.058594.148437l6.738282-10.347656-5.367188-3.871094-2.542969 3.871094-6.492187 10.246094c-1.117188 1.699219-2.050782 3.195312-2.628906 4.234375-.597657 1.097656-1.113282 2.246094-1.542969 3.429687-.484375 1.253907-.738281 2.597657-.738281 3.949219-.015626 1.609375.296874 3.203125.917968 4.675781.621094 1.476563 1.53125 2.800782 2.679688 3.886719 2.246094 2.261719 5.261718 3.523438 8.398437 3.519531zm-28.542969-11.140625 7.441406 10.875h7.957031l-8.753906-12.613281 7.773438-11.152344-5.160157-3.6875-2.277343 3.105469-6.988282 10.179688v-20.46875l-6.964844-5.867188v40.496094h6.964844v-10.875zm28.550781 4.351563c-1.355469 0-2.660156-.554688-3.621094-1.550781-.960937-.992188-1.5-2.335938-1.5-3.742188 0-1.402344.539063-2.75 1.5-3.742188.960938-.992187 2.265625-1.546874 3.621094-1.546874h.046875c.675781 0 1.34375.140624 1.960937.414062.621094.273438 1.183594.675781 1.648438 1.179688.492188.464843.882812 1.03125 1.148438 1.664062.265624.632812.402343 1.316406.398437 2.003906-.019531 1.414063-.574219 2.761719-1.546875 3.757813-.972656.992187-2.28125 1.550781-3.652344 1.554687zm0 0" fill="#7d64ff"/></svg>