<svg xmlns="http://www.w3.org/2000/svg" width="42" height="32" fill="#fff" viewBox="0 0 42 32"><path d="M20.996 0C9.397 0 0 9.12 0 20.366v8.727C0 30.7 1.343 32 2.996 32 4.65 32 6 30.7 6 29.093v-8.727c0-1.608 1.337-2.911 2.998-2.911 1.655 0 2.998 1.303 2.998 2.911v8.727c0 1.607 1.344 2.907 2.999 2.907 1.659 0 3.002-1.3 3.002-2.907v-8.727c0-1.608 1.344-2.911 2.998-2.911 1.662 0 3.006 1.303 3.006 2.911v8.727c0 1.607 1.343 2.907 2.996 2.907s2.998-1.3 2.998-2.907v-8.727c0-1.608 1.343-2.911 3.005-2.911 1.655 0 2.998 1.303 2.998 2.911v8.727C36 30.7 37.343 32 39.002 32 40.657 32 42 30.7 42 29.093v-8.727C42 9.12 32.596 0 20.996 0"/></svg>