<svg fill="none" height="20" viewBox="0 0 18 20" width="18" xmlns="http://www.w3.org/2000/svg" xmlns:xlink="http://www.w3.org/1999/xlink"><linearGradient id="a"><stop offset="0" stop-color="#005ba1"/><stop offset=".07" stop-color="#0060a9"/><stop offset=".36" stop-color="#0071c8"/><stop offset=".52" stop-color="#0078d4"/><stop offset=".64" stop-color="#0074cd"/><stop offset=".82" stop-color="#006abb"/><stop offset="1" stop-color="#005ba1"/></linearGradient><linearGradient id="b" gradientUnits="userSpaceOnUse" x1="9.62" x2="14.797" xlink:href="#a" y1="3.54" y2="7.942"/><linearGradient id="c" gradientUnits="userSpaceOnUse" x1="6.105" x2="12.471" xlink:href="#a" y1="13.841" y2="13.841"/><linearGradient id="d" gradientUnits="userSpaceOnUse" x1="2.385" x2="10.81" xlink:href="#a" y1="5.776" y2="4.58"/><linearGradient id="e"><stop offset="0" stop-color="#0078d4"/><stop offset=".16" stop-color="#1380da"/><stop offset=".53" stop-color="#3c91e5"/><stop offset=".82" stop-color="#559cec"/><stop offset="1" stop-color="#5ea0ef"/></linearGradient><linearGradient id="f" gradientUnits="userSpaceOnUse" x1="9.828" x2="9.828" xlink:href="#e" y1="20.201" y2="15.293"/><linearGradient id="g" gradientUnits="userSpaceOnUse" x1="6.756" x2="6.756" xlink:href="#e" y1="16.89" y2="4.558"/><linearGradient id="h" gradientUnits="userSpaceOnUse" x1="7.009" x2="11.685" xlink:href="#e" y1="5.79" y2=".524"/><path d="m12.752 8 1.096-.09c.251-.021.47.166.49.416.02.251-.167.471-.418.492l-1.283.105a.46.46 0 0 1 -.332-.106l-1.386-1.179a.5.5 0 0 1 -.147-.455l.421-1.706-1.172-.997a.455.455 0 0 1 .591-.695l1.172.997 1.616-.69a.48.48 0 0 1 .473.071l1.386 1.179c.09.076.15.19.159.31l.102 1.284c.02.251-.167.471-.418.492a.454.454 0 0 1 -.49-.417l-.087-1.096-1.029-.875-1.406.601-.366 1.484z" fill="url(#b)"/><path d="m11.59 12.333-.01-.011c-.482-.43-2.175-1.74-2.83-1.74l-2.613 2.138 1.018 1.429c-.01.064-.01.129-.01.193v2.221c0 .301.235.538.535.538h4.287c.3 0 .536-.237.536-.538v-2.22a2.63 2.63 0 0 0 -.911-2.01" fill="url(#c)"/><path d="m10.22 5.154-3.01 3.194a.53.53 0 0 1 -.684.08l-1.6-1.053a1.08 1.08 0 0 0 -1.373.17.536.536 0 0 1 -.778-.74l4.701-5.009h.001a.536.536 0 0 1 .757-.021c.551.52-.363.873-.254 1.644.084.586.627.996 1.212.913l.563-.08a.538.538 0 0 1 .465.901" fill="url(#d)"/><path d="m13.036 16.026h-6.43a2.686 2.686 0 0 0 -2.679 2.687c0 .297.24.537.536.537h10.717c.296 0 .536-.24.536-.537a2.686 2.686 0 0 0 -2.68-2.687" fill="url(#f)"/><path d="m11.683 12.603a2.63 2.63 0 0 0 -1.76-.671c-1.329 0-2.57 1.012-2.697 2.568l-4.69-4.218c-1.046-.995-.936-2.582.076-3.399a2.15 2.15 0 0 1 2.784.056zm0 0 .017.015z" fill="url(#g)"/><path d="m9.206 5.916-1.293-1.149a2.31 2.31 0 0 1 -.189-3.26 2.307 2.307 0 0 1 3.26-.198l1.294 1.148c.238.212.26.577.047.816l-2.304 2.594a.577.577 0 0 1 -.815.049" fill="url(#h)"/></svg>