<svg viewBox="0 0 24 24" xmlns="http://www.w3.org/2000/svg" fill="#00AA13"><path d="m12.072.713a15.38 15.38 0 0 0 -.643.011c-6.112.274-11.085 5.111-11.412 11.094-.266 4.913 2.548 9.21 6.723 11.204 1.557.744 3.405-.19 3.706-1.861.203-1.126-.382-2.241-1.429-2.742-2.373-1.139-3.966-3.602-3.778-6.406.22-3.28 2.931-5.945 6.279-6.171 3.959-.267 7.257 2.797 7.257 6.619 0 2.623-1.553 4.888-3.809 5.965a2.511 2.511 0 0 0 -1.395 2.706l.011.056c.295 1.644 2.111 2.578 3.643 1.852 4.008-1.901 6.775-5.923 6.775-10.579-.004-6.466-5.336-11.712-11.928-11.75zm-.061 7.614c-2.331 0-4.225 1.856-4.225 4.139 0 2.282 1.894 4.137 4.225 4.137 2.33 0 4.225-1.855 4.225-4.137 0-2.283-1.895-4.139-4.225-4.139z"/></svg>