<svg height="64" viewBox="0 0 64 64" width="64" xmlns="http://www.w3.org/2000/svg"><g fill="none" fill-rule="evenodd"><path d="m0 0h64v64h-64z" fill="#c925d1"/><path d="m50.518 18-3.96-3.424-3.747 3.424zm-6.284-4h-8.197l4.386 3.485zm-3.684 13.325-6.579 2.675h12.26zm-10.697 17.675h19.852v-13h-19.852zm8.012-27-3.91-3.106-3.883 3.106zm-10.382-.483 4.397-3.517h-8.78zm-2.585.483-3.908-3.136-3.909 3.136zm-1.994 2h-5.636l5.636 4.835zm0 9.227-6.447 5.773 6.447 5.773zm0 16-6.948 6.222v.551h6.948zm-6.948-8v11.546l6.447-5.773zm0-4.454 6.428-5.757-6.428-5.515zm-.993-15.63 3.917-3.143h-3.917zm-2.978 2.857h.993v-8h-.993zm41.945-.629a.995.995 0 0 1 -.922.629h-12.238v5.274c.078.016.157.02.23.055l10.117 4.765-.002.006c.337.16.574.5.574.9v15c0 .552-.444 1-.992 1h-21.837a.996.996 0 0 1 -.993-1v-15c0-.42.257-.776.623-.925l-.001-.002 10.297-4.187v-5.886h-13.896v33c0 .552-.444 1-.992 1h-8.934a.996.996 0 0 1 -.992-1v-31h-2.978a.996.996 0 0 1 -.994-1v-10c0-.552.444-1 .993-1h2.978c.547 0 .992.448.992 1v1h31.764a1 1 0 0 1 .683.274l6.28 6c.295.282.39.716.24 1.097m-15.215 24.001 3.97-10-1.843-.744-3.97 10zm5.085-3.579 1.403 1.414 2.978-3a1.003 1.003 0 0 0 -.029-1.443l-3.234-3-1.345 1.472 2.473 2.294zm-11.175-1.586a1.007 1.007 0 0 1 .029-1.443l3.235-3 1.345 1.472-2.474 2.294 2.246 2.263-1.403 1.414z" fill="#fff"/></g></svg>