<svg height="48" viewBox="0 0 48 48" width="48" xmlns="http://www.w3.org/2000/svg"><path d="m10.149 26.404a2.13 2.13 0 0 1 -2.128-2.127 2.13 2.13 0 0 1 2.128-2.128 2.13 2.13 0 0 1 2.128 2.128 2.13 2.13 0 0 1 -2.128 2.127m0-6.255a4.133 4.133 0 0 0 -4.128 4.128 4.133 4.133 0 0 0 4.128 4.127 4.133 4.133 0 0 0 4.128-4.127 4.133 4.133 0 0 0 -4.128-4.128m31.711 6.255h-18.798a1 1 0 0 0 -.953.698 9.22 9.22 0 0 1 -8.832 6.451c-5.115 0-9.277-4.161-9.277-9.276s4.162-9.277 9.277-9.277a9.22 9.22 0 0 1 8.832 6.451 1 1 0 0 0 .953.698h3.172a1 1 0 0 0 .707-.293l1.974-1.973 1.974 1.973a1 1 0 0 0 .707.293h1.787c.266 0 .52-.105.707-.293l1.974-1.973 1.974 1.973a1 1 0 0 0 .707.293h2.304l2.548 2.229zm3.799-2.88-3.575-3.128a1 1 0 0 0 -.659-.247h-2.266l-2.388-2.388a1 1 0 0 0 -1.414 0l-2.388 2.388h-.959l-2.388-2.388a1 1 0 0 0 -1.414 0l-2.388 2.388h-2.051c-1.678-4.306-5.805-7.149-10.492-7.149-6.219 0-11.277 5.058-11.277 11.277s5.058 11.276 11.277 11.276c4.687 0 8.814-2.843 10.492-7.149h18.551a1 1 0 0 0 .759-.35l2.68-3.127a1 1 0 0 0 -.1-1.403" fill="#dd344c" fill-rule="evenodd"/></svg>