<svg height="18" viewBox="0 0 18 18" width="18" xmlns="http://www.w3.org/2000/svg" xmlns:xlink="http://www.w3.org/1999/xlink"><linearGradient id="a" gradientTransform="matrix(1 0 0 -1 564 1025.516)" gradientUnits="userSpaceOnUse" x1="-557.324" x2="-557.324" y1="1025.509" y2="1009.951"><stop offset="0" stop-color="#b3b2b3"/><stop offset=".375" stop-color="#afaeaf"/><stop offset=".763" stop-color="#a2a2a2"/><stop offset="1" stop-color="#979797"/></linearGradient><linearGradient id="b" gradientTransform="matrix(1 0 0 -1 564 1025.516)" gradientUnits="userSpaceOnUse" x1="-550.955" x2="-550.955" y1="1014.274" y2="1007.523"><stop offset="0" stop-color="#5ea0ef"/><stop offset="1" stop-color="#0078d4"/></linearGradient><linearGradient id="c" gradientTransform="matrix(1 0 0 -1 564 1025.516)" gradientUnits="userSpaceOnUse" x1="-550.944" x2="-550.944" y1="1016.451" y2="1014.274"><stop offset="0" stop-color="#3b3b3b"/><stop offset=".389" stop-color="#373737"/><stop offset=".791" stop-color="#2a2a2a"/><stop offset=".997" stop-color="#212121"/></linearGradient><linearGradient id="d" gradientUnits="userSpaceOnUse" x1="3.147" x2="3.147" y1="17.993" y2="11.698"><stop offset="0" stop-color="#5ea0ef"/><stop offset="1" stop-color="#83b9f9"/></linearGradient><path d="m11.725 15.036a.56.56 0 0 1 -.583.528h-8.933a.56.56 0 0 1 -.583-.528v-14.5a.56.56 0 0 1 .583-.528h8.933a.56.56 0 0 1 .583.528z" fill="url(#a)"/><path d="m3.111 6.658a1.157 1.157 0 0 1 1.098-1.205h5.026c.636.03 1.128.569 1.101 1.205a1.157 1.157 0 0 1 -1.098 1.21h-5.029a1.16 1.16 0 0 1 -1.098-1.21m0-3.593a1.156 1.156 0 0 1 1.098-1.209h5.026c.638.03 1.13.572 1.101 1.209a1.157 1.157 0 0 1 -1.098 1.21h-5.029a1.16 1.16 0 0 1 -1.098-1.21" fill="#003067"/><circle cx="4.523" cy="3.065" fill="#50e6ff" r=".812"/><circle cx="4.523" cy="6.658" fill="#50e6ff" r=".812"/><path d="m8.108 17.993v-6.114c0-.352.286-.637.639-.637h8.597a.64.64 0 0 1 .639.637v6.114z" fill="url(#b)"/><path d="m15.827 11.241h-.747v-1.077a.35.35 0 0 0 -.344-.353h-3.347a.35.35 0 0 0 -.352.343v1.086h-.751v-1.077a1.09 1.09 0 0 1 1.077-1.1h3.362a1.09 1.09 0 0 1 1.1 1.077v.023l.003 1.077z" fill="url(#c)"/><path d="m18 13.597h-9.892v.476h3.934v.668c0 .158.128.285.286.286h1.573a.287.287 0 0 0 .286-.286v-.668h3.812z" fill="#fff"/><path d="m3.147 11.698a3.147 3.147 0 1 0 0 6.294 3.147 3.147 0 0 0 0-6.294" fill="url(#d)"/><path d="m4.78 15.334-1.431 1.431a.286.286 0 0 1 -.405 0l-1.431-1.431a.286.286 0 1 1 .405-.405l.942.942v-2.743a.286.286 0 1 1 .572 0v2.743l.942-.942a.286.286 0 1 1 .405.405z" fill="#fff"/></svg>