<svg viewBox="0 0 24 24" xmlns="http://www.w3.org/2000/svg" fill="#1C449B"><path d="m3.904 11.571v1.501h1.556c-.075.845-.712 1.274-1.539 1.274-1.255 0-1.934-1.157-1.934-2.3 0-1.118.65-2.317 1.906-2.317.77 0 1.321.468 1.586 1.166l1.812-.76c-.631-1.37-1.802-2.049-3.312-2.049-2.365.001-3.979 1.568-3.979 3.951 0 2.309 1.604 3.876 3.913 3.876 1.227 0 2.308-.439 3.025-1.44.651-.916.731-1.831.75-2.904zm9.746-3.271-1.586 3.95-1.5-3.95h-1.894l-1.255 7.392h1.91l.619-4.257h.019l1.695 4.257h.765l1.775-4.257h.024l.538 4.257h1.92l-1.118-7.392zm7.708 3.473 2.086-3.475h-2.128l-1.11 1.767-1.194-1.765h-2.332l2.459 3.47-2.46 3.922h2.333l1.33-2.223 1.576 2.223h2.082l-2.642-3.92"/></svg>