<svg xmlns="http://www.w3.org/2000/svg" width="481.74" height="237.51" viewBox="0 0 481.74 237.51"><clipPath id="a"><path d="M27.303 816.072H79.69v-26.877H27.303z"/></clipPath><path fill="#00aeef" d="m79.77 44.344-1.638-3.276-1.63-2.73-2.184-2.175-2.73-2.177-2.73-1.645-5.444-2.169H60.14l-4.906.539-4.36 1.092-3.813 2.183-3.268 3.268-2.73 3.814-2.176 5.452-1.1 5.997-.538 7.628v5.46l1.084 5.459 1.646 4.89 2.176 4.906 3.275 3.829 4.353 3.268 4.905 2.176 6.544.546h2.183l5.445-2.176 5.459-3.276 2.183-2.176 2.17-2.73 1.644-3.275 18.36 9.273-3.097 5.46-3.813 4.352-3.814 4.173-4.906 3.275-4.913 2.73-5.444 2.176-5.46 1.092-5.997.546-10.896-1.085-9.273-2.73-8.181-4.905-7.082-6.357-5.46-7.089-3.813-8.727-2.184-9.273-1.084-9.812.546-9.811 2.73-9.266 3.267-8.72 5.452-7.089 6.543-6.543 7.628-4.906 9.273-2.73 10.358-1.084 6.543.546 6.536 1.092 5.46 2.176 4.898 2.73 4.905 3.26 4.368 4.367 3.813 4.906 3.096 5.46z"/><path fill="#00aeef" d="M105.21 12.718h46.343l7.628.554 6.544 1.084 5.99 2.73 4.905 3.267 3.83 4.36 3.26 5.46 1.458 5.982.538 7.643-.538 4.36-.905 4.36-1.645 3.813-2.169 3.814-2.73 3.276-3.275 2.176-3.814 2.191-4.367 1.63 21.635 38.528h-26.54l-18.524-34.175H128.1v34.175h-22.89zm22.899 43.075h21.807l4.905-.553 3.814-2.723 2.722-3.813 1.092-5.46-1.092-5.982-2.722-3.829-3.814-2.722-4.905-.539h-21.807z"/><path fill="#00aeef" d="M274.22 12.718h36.515l10.358.554 9.273 2.168 7.628 3.276 7.09 4.913 5.443 6.543 4.368 8.167 2.176 9.819 1.1 11.987-1.1 11.995-2.176 9.82-4.368 8.173-5.444 6.544-7.09 5.264-7.627 3.276-9.273 2.183-10.358.546h-36.523zm23.429 75.239h13.632l5.998-.553 4.906-1.63 4.36-2.723 3.268-3.275 2.73-4.36 1.637-4.36.546-5.459.546-5.452-.546-5.444-.546-5.459-1.638-4.36-2.73-4.352-3.267-3.276-4.36-2.73-4.906-1.637-5.998-.538H297.65z"/><path fill="#00aeef" d="M367.795 107.946h23.444V12.718h-23.444z"/><g clip-path="url(#a)" transform="matrix(9.34783 0 0 -9.34783 -245.22 7638.48)"><path fill="#00aeef" d="M68.962 815.779h7.737v-1.983h-2.605v-8.204h-2.508v8.204h-2.624z"/><path fill="#ed1c24" d="m29.226 796.183.35-.291.292-.234.35-.233.35-.175.35-.175.35-.117.408-.058h.758l.292.058.291.059.292.116.291.175.234.234.116.233.059.291-.059.35-.233.234-.35.175-.466.116-2.1.35-.642.097-.583.234-.525.291-.349.292-.35.408-.234.408-.116.467-.059.525.059.875.291.758.35.583.525.447.642.35.641.292.758.116.817.058.641-.058.584-.058.641-.175.583-.233.525-.292.525-.272.467-.408.466-.467-1.866-1.341-.292.291-.583.467-.35.175-.35.175-.408.116-.35.059h-.408l-.467-.059-.466-.233-.35-.35-.117-.408.059-.35.291-.292.408-.174.642-.175.933-.117.758-.117.7-.175.583-.233.583-.292.409-.349.35-.467.233-.564.058-.641-.117-1.05-.349-.816-.525-.642-.584-.467-.758-.349-.758-.234-1.516-.116h-.642l-.583.116-.583.175-.583.175-.525.292-.583.35-.525.466-.525.525z"/></g><g fill="#ed1c24"><path d="m183.164 191.538-1.084 9.273-2.73 7.628-3.814 5.998-5.444 4.906-6.005 3.813-7.082 2.177-6.544 1.637-7.089.539-7.082-.539-6.543-1.637-7.09-2.177-5.459-3.813-5.452-4.906-3.813-6.005-2.73-7.628-1.084-9.273v-61.24h22.898v62.878l.539 3.821 1.091 3.26 1.638 2.192 2.176 2.722 6.544 2.183 4.367.546 4.36-.546 3.268-1.091 2.73-1.092 2.176-2.722 1.637-2.191 1.092-3.261 1.085-3.821V130.29h23.444z"/><path d="M196.071 224.794h23.437v-94.503h-23.444z"/><path d="m241.143 195.898 3.268 2.722 2.722 2.184 3.275 2.176 3.268 1.645 3.276 1.63 3.814 1.092 3.814.546h6.543l2.543-.546 3.268-.553 2.73-1.084 2.721-1.63 2.184-2.192 1.084-2.176.554-2.722-.554-3.268-2.176-2.191-3.268-1.638-4.913-1.084-19.443-3.268-5.99-.905-5.452-2.191-4.906-2.722-3.268-2.73-3.275-3.814-2.184-3.814-1.084-4.36-.546-4.913.546-8.173 2.714-7.09 3.276-5.452 4.905-4.172 6.005-3.276 5.983-2.73 7.09-1.084 7.642-.538 5.81.538 5.452.546 5.998 1.63 5.452 2.184 4.905 2.73 4.914 2.542 4.352 3.814 4.367 4.36-17.446 12.541-2.73-2.722-5.444-4.367-3.276-1.638-3.268-1.63-3.275-1.085-3.635-.553h-3.814l-4.367.553-4.352 2.169-3.276 3.275-1.091 3.814.553 3.276 2.715 2.73 3.813 1.622 6.005 1.645 8.54 1.085 7.09 1.099 6.544 1.63 5.451 2.184 5.444 2.73 3.814 3.26 3.276 4.367 2.183 5.273.546 5.982-1.092 9.82-3.275 7.627-4.906 6.005-5.451 4.367-7.082 3.26-7.09 2.184-6.91.546-7.082.539h-6.005l-5.444-1.085-5.459-1.63-5.444-1.645-4.906-2.722-5.451-3.276-4.906-4.352-4.734-4.906z"/><path d="m326.545 195.898 3.268 2.722 2.73 2.184 3.275 2.176 2.722 1.645 3.268 1.63 3.275 1.092 3.814.546h7.09l2.722-.546 2.542-.553 2.73-1.084 2.73-1.63 2.175-2.192 1.1-2.176.538-2.722-.538-3.268-2.191-2.191-3.268-1.638-4.727-1.084-19.077-3.268-5.451-.905-5.46-2.191-4.905-2.722-3.814-2.73-3.268-3.814-2.184-3.814-1.092-4.36-.538-4.913 1.092-8.173 2.176-7.09 3.814-5.452 4.906-4.172 5.451-3.276 6.005-2.73 7.082-1.084 7.628-.538 5.46.538 5.817.546 5.444 1.63 5.452 2.184 5.452 2.73 4.905 2.542 4.368 3.814 4.352 4.36-17.985 12.541-2.184-2.722-2.722-2.191-3.268-2.169-2.73-1.645-3.275-1.63-3.627-1.085-3.268-.553h-3.829l-4.352.553-4.367 2.169-3.268 3.275-1.646 3.814 1.1 3.276 2.176 2.73 4.367 1.622 5.452 1.645 9.273 1.085 6.356 1.099 6.544 1.63 5.99 2.184 4.906 2.73 4.367 3.26 3.276 4.367 2.168 5.273.546 5.982-1.084 9.82-3.268 7.627-4.906 6.005-5.46 4.367-7.088 3.26-7.082 2.184-6.903.546-7.097.539h-5.99l-5.997-1.085-4.914-1.63-5.444-1.645-4.898-2.722-4.913-3.276-4.906-4.352-4.906-4.906z"/><path d="M401.596 224.794v-94.503h67.417v18.352H425.04v18.539h40.704v17.992H425.04v21.082h43.433v18.538z"/></g><path fill="#00aeef" d="M196.071 107.408V12.172h66.87v18.546h-43.433v19.07h40.712v18.546h-40.712v20.715h43.434V107.4z"/></svg>