<svg height="237.51" viewBox="0 0 481.74 237.51" width="481.74" xmlns="http://www.w3.org/2000/svg" xmlns:xlink="http://www.w3.org/1999/xlink"><clipPath id="a"><path d="m27.303 816.072h52.387v-26.877h-52.387z"/></clipPath><g transform="matrix(7.47826 0 0 7.47826 -348.346 184.434)"><path d="m57.248-18.733-.219-.438-.218-.365-.292-.291-.365-.291-.365-.22-.728-.29h-.438l-.656.072-.583.146-.51.292-.437.437-.365.51-.291.729-.147.802-.072 1.02v.73l.145.73.22.654.291.656.438.512.582.437.656.291.875.073h.292l.728-.291.73-.438.292-.291.29-.365.22-.438 2.455 1.24-.414.73-.51.582-.51.558-.656.438-.657.365-.728.291-.73.146-.802.073-1.457-.145-1.24-.365-1.094-.656-.947-.85-.73-.948-.51-1.167-.292-1.24-.145-1.312.073-1.312.365-1.239.437-1.166.729-.948.875-.875 1.02-.656 1.24-.365 1.385-.145.875.073.874.146.73.291.655.365.656.436.584.584.51.656.414.73z" fill="#00aeef"/><path d="m60.65-22.962h6.197l1.02.074.875.145.801.365.656.437.512.583.436.73.195.8.072 1.022-.072.583-.121.583-.22.51-.29.51-.365.438-.438.291-.51.293-.584.218 2.893 5.152h-3.549l-2.477-4.57h-1.97v4.57h-3.061zm3.062 5.76h2.916l.656-.074.51-.364.364-.51.146-.73-.146-.8-.364-.512-.51-.364-.656-.072h-2.916z" fill="#00aeef"/><path d="m83.25-22.962h4.883l1.385.074 1.24.29 1.02.438.948.657.728.875.584 1.092.291 1.313.147 1.603-.147 1.604-.291 1.313-.584 1.093-.728.875-.948.704-1.02.438-1.24.292-1.385.073h-4.884zm3.133 10.061h1.823l.802-.074.656-.218.583-.364.437-.438.365-.583.219-.583.073-.73.073-.729-.073-.728-.073-.73-.219-.583-.365-.582-.437-.438-.583-.365-.656-.219-.802-.072h-1.823z" fill="#00aeef"/><path d="m95.763-10.228h3.135v-12.734h-3.135z" fill="#00aeef"/><g clip-path="url(#a)" transform="matrix(1.25 0 0 -1.25 13.79 996.762)"><path d="m68.962 815.779h7.737v-1.983h-2.605v-8.204h-2.508v8.204h-2.624z" fill="#00aeef"/><path d="m29.226 796.183.35-.291.292-.234.35-.233.35-.175.35-.175.35-.117.408-.058h.758l.292.058.291.059.292.116.291.175.234.234.116.233.059.291-.059.35-.233.234-.35.175-.466.116-2.1.35-.642.097-.583.234-.525.291-.349.292-.35.408-.234.408-.116.467-.059.525.059.875.291.758.35.583.525.447.642.35.641.292.758.116.817.058.641-.058.584-.058.641-.175.583-.233.525-.292.525-.272.467-.408.466-.467-1.866-1.341-.292.291-.583.467-.35.175-.35.175-.408.116-.35.059h-.408l-.467-.059-.466-.233-.35-.35-.117-.408.059-.35.291-.292.408-.174.642-.175.933-.117.758-.117.7-.175.583-.233.583-.292.409-.349.35-.467.233-.564.058-.641-.117-1.05-.349-.816-.525-.642-.584-.467-.758-.349-.758-.234-1.516-.116h-.642l-.583.116-.583.175-.583.175-.525.292-.583.35-.525.466-.525.525z" fill="#ed1c24"/></g><g fill="#ed1c24"><path d="m71.074.95-.145 1.24-.365 1.02-.51.802-.728.656-.803.51-.947.291-.875.219-.948.072-.947-.072-.875-.219-.948-.291-.73-.51-.729-.656-.51-.803-.365-1.02-.145-1.24v-8.189h3.062v8.408l.072.511.146.436.219.293.291.364.875.292.584.073.583-.073.437-.146.365-.146.291-.364.219-.293.146-.436.145-.511v-8.408h3.135z"/><path d="m72.8 5.397h3.134v-12.637h-3.135z"/><path d="m78.827 1.533.437.364.364.292.438.291.437.22.438.218.51.146.51.073h.875l.34-.073.437-.074.365-.145.364-.218.292-.293.145-.291.074-.364-.074-.437-.291-.293-.437-.219-.657-.145-2.6-.437-.801-.121-.729-.293-.656-.364-.437-.365-.438-.51-.292-.51-.145-.583-.073-.657.073-1.093.363-.948.438-.729.656-.558.803-.438.8-.365.948-.145 1.022-.072.777.072.729.073.802.218.729.292.656.365.657.34.582.51.584.583-2.333 1.677-.365-.364-.728-.584-.438-.219-.437-.218-.438-.145-.486-.074h-.51l-.584.074-.582.29-.438.438-.146.51.074.438.363.365.51.217.803.22 1.142.145.948.147.875.218.729.292.728.365.51.436.438.584.292.705.073.8-.146 1.313-.438 1.02-.656.803-.729.584-.947.436-.948.292-.924.073-.947.072h-.803l-.728-.145-.73-.218-.728-.22-.656-.364-.729-.438-.656-.582-.633-.656z"/><path d="m90.247 1.533.437.364.365.292.438.291.364.22.437.218.438.146.51.073h.948l.364-.073.34-.074.365-.145.365-.218.291-.293.147-.291.072-.364-.072-.437-.293-.293-.437-.219-.632-.145-2.551-.437-.729-.121-.73-.293-.656-.364-.51-.365-.437-.51-.292-.51-.146-.583-.072-.657.146-1.093.291-.948.51-.729.656-.558.729-.438.803-.365.947-.145 1.02-.072.73.072.778.073.728.218.729.292.729.365.656.34.584.51.582.583-2.405 1.677-.292-.364-.364-.293-.437-.29-.365-.22-.438-.218-.485-.145-.437-.074h-.512l-.582.074-.584.29-.437.438-.22.51.147.438.291.365.584.217.729.22 1.24.145.85.147.875.218.801.292.656.365.584.436.438.584.29.705.073.8-.145 1.313-.437 1.02-.656.803-.73.584-.948.436-.947.292-.923.073-.949.072h-.801l-.802-.145-.657-.218-.728-.22-.655-.364-.657-.438-.656-.582-.656-.656z"/><path d="m100.283 5.397v-12.637h9.015v2.454h-5.88v2.479h5.443v2.406h-5.443v2.819h5.808v2.479z"/></g><path d="m72.8-10.3v-12.735h8.942v2.48h-5.808v2.55h5.444v2.48h-5.444v2.77h5.808v2.454z" fill="#00aeef"/></g></svg>