<svg xmlns="http://www.w3.org/2000/svg" width="512" height="512" fill="none" viewBox="0 0 512 512"><title>AskVerdict — 3D / Apple-style</title><defs><linearGradient id="g" x1="50%" x2="50%" y1="0%" y2="100%"><stop offset="0%" stop-color="#fad460"/><stop offset="45%" stop-color="#e8a317"/><stop offset="100%" stop-color="#b8751a"/></linearGradient><linearGradient id="bg" x1="50%" x2="50%" y1="0%" y2="100%"><stop offset="0%" stop-color="#1e1a0e"/><stop offset="100%" stop-color="#080808"/></linearGradient><linearGradient id="gloss" x1="0%" x2="0%" y1="0%" y2="100%"><stop offset="0%" stop-color="#fff" stop-opacity=".14"/><stop offset="100%" stop-color="#fff" stop-opacity="0"/></linearGradient></defs><rect width="512" height="512" fill="url(#bg)" rx="110"/><rect width="512" height="180" fill="url(#gloss)" rx="110"/><path fill="url(#g)" fill-opacity=".7" d="M256 73 96 170l160 96Z"/><path fill="url(#g)" d="m256 73 160 97-160 96Z"/><path fill="#0a0800" fill-opacity=".52" d="m256 140 53 51h-30l-23-26-25 26h-30Z"/><path fill="url(#g)" fill-opacity=".82" d="m96 296 160 63 160-63v37l-160 63-160-63Z"/><path fill="url(#g)" fill-opacity=".62" d="m113 359 143 58 143-58v33l-143 51-143-51Z"/></svg>