<svg fill="none" height="512" viewBox="0 0 512 512" width="512" xmlns="http://www.w3.org/2000/svg" xmlns:xlink="http://www.w3.org/1999/xlink"><linearGradient id="a" x1="50%" x2="50%" y1="0%" y2="100%"><stop offset="0" stop-color="#fad460"/><stop offset=".45" stop-color="#e8a317"/><stop offset="1" stop-color="#b8751a"/></linearGradient><linearGradient id="b" x1="50%" x2="50%" y1="0%" y2="100%"><stop offset="0" stop-color="#1e1a0e"/><stop offset="1" stop-color="#080808"/></linearGradient><linearGradient id="c" x1="0%" x2="0%" y1="0%" y2="100%"><stop offset="0" stop-color="#fff" stop-opacity=".14"/><stop offset="1" stop-color="#fff" stop-opacity="0"/></linearGradient><rect fill="url(#b)" height="512" rx="110" width="512"/><rect fill="url(#c)" height="180" rx="110" width="512"/><path d="m256 73-160 97 160 96z" fill="url(#a)" fill-opacity=".7"/><path d="m256 73 160 97-160 96z" fill="url(#a)"/><path d="m256 140 53 51h-30l-23-26-25 26h-30z" fill="#0a0800" fill-opacity=".52"/><g fill="url(#a)"><path d="m96 296 160 63 160-63v37l-160 63-160-63z" fill-opacity=".82"/><path d="m113 359 143 58 143-58v33l-143 51-143-51z" fill-opacity=".62"/></g></svg>