<svg xmlns="http://www.w3.org/2000/svg" width="512" height="512" fill="none" viewBox="0 0 512 512"><linearGradient id="c" x1="50%" x2="50%" y1="0%" y2="100%"><stop offset="0" stop-color="#fad460"/><stop offset=".45" stop-color="#e8a317"/><stop offset="1" stop-color="#b8751a"/></linearGradient><linearGradient id="a" x1="50%" x2="50%" y1="0%" y2="100%"><stop offset="0" stop-color="#1e1a0e"/><stop offset="1" stop-color="#080808"/></linearGradient><linearGradient id="b" x1="0%" x2="0%" y1="0%" y2="100%"><stop offset="0" stop-color="#fff" stop-opacity=".14"/><stop offset="1" stop-color="#fff" stop-opacity="0"/></linearGradient><rect width="512" height="512" fill="url(#a)" rx="110"/><rect width="512" height="180" fill="url(#b)" rx="110"/><path fill="url(#c)" fill-opacity=".7" d="M256 73 96 170l160 96z"/><path fill="url(#c)" d="m256 73 160 97-160 96z"/><path fill="#0a0800" fill-opacity=".52" d="m256 140 53 51h-30l-23-26-25 26h-30z"/><g fill="url(#c)"><path fill-opacity=".82" d="m96 296 160 63 160-63v37l-160 63-160-63z"/><path fill-opacity=".62" d="m113 359 143 58 143-58v33l-143 51-143-51z"/></g></svg>