<svg height="18" viewBox="0 0 18 18" width="18" xmlns="http://www.w3.org/2000/svg" xmlns:xlink="http://www.w3.org/1999/xlink"><linearGradient id="a" gradientUnits="userSpaceOnUse" x1="9.01" x2="9.01" y1="11.69" y2="2.48"><stop offset="0" stop-color="#0078d4"/><stop offset=".54" stop-color="#358ee3"/><stop offset="1" stop-color="#5ea0ef"/></linearGradient><ellipse cx="9.01" cy="11.12" fill="#76bc2d" rx="6.07" ry="2.49"/><ellipse cx="9.16" cy="11.1" fill="#5e9624" rx="2.02" ry=".55"/><ellipse cx="9.01" cy="5.59" fill="url(#a)" rx="6.07" ry="2.49"/><ellipse cx="9.16" cy="5.56" fill="#005ba1" rx="2.02" ry=".55"/><path d="m3.89.12h-3a.58.58 0 0 0 -.6.59v3a.29.29 0 0 0 .29.29h.33a.29.29 0 0 0 .3-.29v-2.71h2.68a.29.29 0 0 0 .3-.29v-.29a.29.29 0 0 0 -.3-.3m13.11 0h-3a.3.3 0 0 0 -.3.3v.32a.3.3 0 0 0 .3.26h2.69v2.7a.29.29 0 0 0 .31.3h.33a.29.29 0 0 0 .3-.29v-3a.59.59 0 0 0 -.63-.59m-13.11 17.09h-2.68v-2.7a.29.29 0 0 0 -.3-.29h-.33a.29.29 0 0 0 -.29.29v3a.58.58 0 0 0 .58.59h3a.29.29 0 0 0 .3-.29v-.32a.3.3 0 0 0 -.28-.28m13.4-2.99h-.29a.29.29 0 0 0 -.29.29v2.7h-2.71a.31.31 0 0 0 -.3.3v.32a.3.3 0 0 0 .3.29h3a.59.59 0 0 0 .59-.59v-3a.29.29 0 0 0 -.3-.31" fill="#949494"/><path d="m9 13.56c3.35 0 6.07-1.11 6.07-2.49v1.47c-.07 1.34-2.78 2.46-6.07 2.46s-6.07-1.12-6.07-2.49v-1.44c.01 1.38 2.73 2.49 6.07 2.49" fill="#5e9624"/><path d="m9 8c3.35 0 6.07-1.12 6.07-2.49v1.49c-.07 1.35-2.78 2.42-6.07 2.42s-6.06-1.12-6.06-2.5v-1.38c0 1.37 2.72 2.46 6.06 2.46" fill="#0078d4"/></svg>