<svg viewBox="0 0 1455.581 400.711" xmlns="http://www.w3.org/2000/svg"><path d="m233.955 176.346h-50.265l-30.16-54.882c-30.14-13.805-60.906-22.822-85.41-22.822-23.312 0-42.24 6.315-54.828 21.45-8.872 10.755-13.292 24.035-13.292 39.827 0 47.398 37.213 113.167 100.907 166.816 56.78 47.421 119.24 73.976 164.703 73.976 22.683 0 40.978-6.959 52.986-20.846 9.454-10.748 13.222-24.682 13.222-40.476 0-46.055-37.48-110.62-97.863-163.043" fill="#0099f8"/><g fill="#001e82"><path d="m1322.113 223.926c-18.658 0-32.047-16.663-32.047-39.421 0-28.854 15.414-52.02 40.163-52.02 20.288 0 33.674 16.664 33.674 39.421 0 30.48-17.453 52.02-41.79 52.02m61.257-157.276-4.466 22.758c-11.36-17.068-31.64-26.822-58.412-26.822-64.095 0-109.935 56.895-109.935 132.892 0 54.862 35.295 97.128 84.783 97.128 23.124 0 43.405-10.973 57.204-28.855l-4.066 24.385h68.158l38.946-221.486z"/><path d="m463.266 154.025h-66.121c6.49-19.912 18.658-29.667 36.51-29.667 25.554 0 29.61 19.102 29.61 25.604zm-23.529-92.657c-89.245 0-126.16 72.745-126.16 131.265 0 36.17 23.53 100.785 108.717 100.785 47.462 0 76.672-19.913 92.493-47.14l-56.387-34.138c-9.331 12.597-19.877 18.287-33.264 18.287-18.662 0-32.455-9.348-33.266-33.325h142.794c2.03-8.128 4.056-20.32 4.056-39.825 0-52.428-36.913-95.91-98.982-95.91"/><path d="m1194.805 63.398c-13.791 0-40.16 5.69-53.952 28.448l3.246-25.196h-66.935l-38.946 221.486h80.726l19.07-109.727c4.867-22.353 24.743-38.607 46.245-38.607 7.303 0 10.953.406 14.604 1.624l15.01-75.588c-4.461-1.627-12.981-2.44-19.068-2.44"/><path d="m978.452 130.453h48.679l11.36-63.803h-49.086l8.925-54.05h-79.108l-29.611 173.936c-11.764 68.275 34.48 102.819 87.217 102.819 12.171 0 19.471-1.22 23.122-2.031l11.766-67.056c-1.218.405-5.276 1.219-10.14 1.219-19.88 0-36.51-10.566-32.05-36.576z"/><path d="m598.484 0-50.708 288.136h80.322l50.706-288.136z"/><path d="m775.89 118.668c14.602 0 22.308 7.316 27.586 21.133l69.773-14.63c-6.084-38.202-38.134-63.805-90.057-63.805-64.097 0-99.388 38.201-99.388 80.467 0 28.854 17.849 48.36 55.573 56.896l32.454 7.314c14.2 3.251 16.634 8.941 16.634 15.037 0 8.534-6.898 15.036-19.878 15.036-15.417 0-27.586-7.315-31.237-23.977l-69.367 15.038c4.46 47.142 52.328 66.241 95.328 66.241 62.881 0 98.578-32.105 98.578-78.028 0-30.48-17.444-51.611-54.763-59.739l-32.047-6.91c-15.418-3.25-19.878-6.502-19.878-15.036 0-7.721 6.489-15.037 20.689-15.037"/><path d="m105.358 0c-11.37 0-20.819 7.644-23.337 19.644l-10.078 54.946h90.067l-38.664 213.593h71.625c9.558 0 20.326-4.432 23.52-20.814l32.753-192.78h64.784c11.414 0 20.84-7.59 23.367-19.578l10.11-55.011z"/></g></svg>