<svg height="18" viewBox="0 0 18 18" width="18" xmlns="http://www.w3.org/2000/svg" xmlns:xlink="http://www.w3.org/1999/xlink"><linearGradient id="a" gradientTransform="matrix(1 0 0 -1 0 791.516)" gradientUnits="userSpaceOnUse" x1="7.697" x2="14.082" y1="779.148" y2="786.61"><stop offset="0" stop-color="#225086"/><stop offset="1" stop-color="#0055c5"/></linearGradient><linearGradient id="b" gradientTransform="matrix(1 0 0 -1 0 791.516)" gradientUnits="userSpaceOnUse" x1="9.001" x2="9.001" y1="775.935" y2="794.824"><stop offset="0" stop-color="#44dbf9"/><stop offset="1" stop-color="#cbf8ff"/></linearGradient><linearGradient id="c" gradientTransform="matrix(1 0 0 -1 0 791.516)" gradientUnits="userSpaceOnUse" x1="6.364" x2="6.364" y1="778.143" y2="794.391"><stop offset="0" stop-color="#6df"/><stop offset="1" stop-color="#0294e4"/></linearGradient><linearGradient id="d" gradientTransform="matrix(1 0 0 -1 0 791.516)" gradientUnits="userSpaceOnUse" x1="13.5" x2="13.5" y1="774.7" y2="790.761"><stop offset="0" stop-color="#041642"/><stop offset="1" stop-color="#041642" stop-opacity=".25"/></linearGradient><g stroke-width="0"><g><path d="m17.647 9.926-7.5-8.46a1.55 1.55 0 0 0 -2.294 0l-7.5 8.46c-.579.654-.428 1.641.323 2.111l7.499 4.688c.5.313 1.148.313 1.648 0l7.499-4.688c.751-.469.902-1.457.323-2.111z" fill="url(#a)"/><path d="m4.636 10.158.052.032 4.313 2.696 4.364-2.728h.001-.001l-4.364-4.924z" fill="url(#b)"/><path d="m10.148 1.466a1.55 1.55 0 0 0 -2.294 0l-7.5 8.46c-.579.654-.428 1.641.323 2.111l3.126 1.954c.388.242 1.033.511 1.715.511.621 0 1.197-.18 1.676-.487l.002-.001 1.804-1.128-4.364-2.728 4.474-5.047a3.05 3.05 0 0 1 2.302-1.026c.472 0 .917.107 1.314.292l-2.579-2.909v-.002z" fill="url(#c)"/><path d="m9.001 16.96c.287 0 .574-.078.824-.234l7.499-4.688c.751-.469.902-1.457.323-2.111l-7.499-8.461a1.53 1.53 0 0 0 -1.147-.507z" fill="url(#d)" fill-opacity=".5" opacity=".5"/></g><g><path d="m17.556 15.66a.44.44 0 0 0 .44-.44 2.503 2.503 0 0 0 -2.452-2.502c-1.531 0-2.322.951-2.472 2.502a.45.45 0 0 0 .39.49h4.093z" fill="#773adc"/><path d="m15.544 13.038a1.35 1.35 0 0 1 -.751-.22l.741 1.932.731-1.922a1.4 1.4 0 0 1 -.721.21" fill="#fff" opacity=".8"/><circle cx="15.544" cy="11.657" fill="#773adc" r="1.381"/><path d="m14.784 17.041a.65.65 0 0 0 .661-.64v-.1c-.26-2.052-1.431-3.733-3.673-3.733s-3.453 1.421-3.673 3.743a.65.65 0 0 0 .573.72h6.123z" fill="#a67af4"/><path d="m11.801 13.058a2 2 0 0 1 -1.111-.33l1.101 2.932 1.101-2.872c-.33.192-.709.286-1.091.27" fill="#fff" opacity=".8"/><circle cx="11.791" cy="10.997" fill="#a67af4" r="2.062"/></g></g></svg>