<svg xmlns="http://www.w3.org/2000/svg" width="1000" height="260" viewBox="0 0 800 208"><path fill="currentColor" fill-rule="evenodd" d="M33.023 0c-6.37.021-13.086.695-19.486 2.357-3.115.808-3.065 3.194-3.769 6.337C-5.07 74.946-1.329 138.067 9.846 200.46c.57 3.168 2.628 5.322 5.809 5.81 9.305 1.435 18.297 3.041 35.597 0 3.169-.553 5.208-2.648 5.809-5.81 12.173-64.051 12.014-128.108 0-192.16-.595-3.161-.882-5.3-2.59-5.76C48.84 1.029 41.212-.025 33.023.003M29.098 2.57l-1.41 90.095c-.592 5.04-2.95 6.666-6.097 6.756l-18.91.758 2.433-1.23c3.328-1.206 3.506-2.06 3.66-2.931-.148-24.892 1.92-50.76 8.529-78.55.322-1.262.213-2.505 2.824-3.77l5.127-.523c.876.062 1.314-.401 1.332-1.362zm9.233 0 2.512 9.243c.022.961.457 1.424 1.332 1.362l5.155.523c2.609 1.261 2.477 2.504 2.8 3.77 6.605 27.79 8.698 53.655 8.55 78.55.157.87.307 1.722 3.639 2.93l2.458 1.231-18.939-.758c-3.143-.094-5.505-1.715-6.093-6.756zM2.681 107.192l18.91.758c3.147.094 5.505 1.716 6.096 6.757l1.411 90.07-2.512-9.243c-.018-.965-.456-1.4-1.332-1.337l-5.13-.523c-2.608-1.262-2.502-2.536-2.821-3.798-6.61-27.785-8.677-53.622-8.526-78.52-.157-.87-.335-1.753-3.663-2.958zm62.096 0-2.458 1.203c-3.332 1.208-3.482 2.088-3.638 2.959.147 24.891-1.946 50.731-8.552 78.525-.322 1.262-.187 2.533-2.799 3.795l-5.155.523q-1.307-.1-1.332 1.337l-2.512 9.242 1.414-90.07c.588-5.04 2.95-6.665 6.093-6.756z"/><path fill="currentColor" fill-rule="evenodd" d="M124.528 3.644h5.542v203.064h-5.542z"/><path fill="currentColor" d="M198.536 51.627h-13.352v-8.91h36.353v8.91h-13.352V86.64h-9.649z"/><path fill="currentColor" d="M230.02 42.718h9.651v17.38h17.801V42.713h9.654v43.924h-9.656V69.003h-17.802v17.634h-9.653z"/><path fill="currentColor" d="M280.04 42.718h33.095v8.596h-23.506v8.91h20.683v8.596H289.63v9.223h23.818v8.596H280.04z"/><path fill="currentColor" d="M339.737 42.718h9.654v35.137h21.874v8.784h-31.528z"/><path fill="currentColor" d="M380.068 42.718h9.654v43.921h-9.654z"/><path fill="currentColor" d="M402.856 42.718h8.903l20.556 27.041V42.718h9.529v43.921h-8.21l-21.252-27.923v27.923h-9.526z"/><path fill="currentColor" d="M474.638 87.39q-4.826 0-8.963-1.755a22.02 22.042 0 0 1-7.146-4.8 21.77 21.792 0 0 1-4.702-7.183 23.02 23.044 0 0 1-1.691-8.847v-.125q0-4.71 1.691-8.817a22.645 22.668 0 0 1 4.704-7.214 21.77 21.792 0 0 1 7.207-4.897q4.201-1.788 9.276-1.788 3.073 0 5.61.5a23.271 23.295 0 0 1 4.609 1.383q2.064.88 3.823 2.134 1.752 1.253 3.258 2.76l-6.143 7.09q-2.57-2.323-5.234-3.64-2.665-1.315-5.986-1.318-2.757 0-5.107 1.067a12.01 12.023 0 0 0-4.044 2.948 13.762 13.776 0 0 0-2.632 4.361 14.763 14.778 0 0 0-.94 5.306v.125q0 2.82.94 5.332.938 2.51 2.602 4.391 1.66 1.884 4.012 2.981a12.01 12.023 0 0 0 5.17 1.097q3.76 0 6.362-1.377 2.603-1.383 5.173-3.768l6.14 6.212q-1.689 1.819-3.508 3.264a20.769 20.79 0 0 1-3.979 2.48 20.769 20.79 0 0 1-4.734 1.565 28.526 28.555 0 0 1-5.768.534"/><path fill="currentColor" d="M521.791 78.481a13.262 13.275 0 0 0 5.33-1.067 12.261 12.274 0 0 0 4.169-2.948 13.762 13.776 0 0 0 2.694-4.358q.971-2.48.971-5.303v-.125q0-2.826-.97-5.335a13.262 13.275 0 0 0-2.758-4.391 13.262 13.275 0 0 0-4.231-2.981 12.762 12.774 0 0 0-5.33-1.1q-2.943 0-5.357 1.067a12.261 12.274 0 0 0-4.14 2.948 14.013 14.027 0 0 0-2.694 4.361 14.263 14.277 0 0 0-.971 5.306v.125q0 2.82.97 5.332a13.262 13.275 0 0 0 6.957 7.372q2.417 1.097 5.36 1.097m-.125 8.91q-5.077 0-9.339-1.789a23.271 23.295 0 0 1-7.364-4.829 21.52 21.541 0 0 1-4.827-7.154 22.52 22.543 0 0 1-1.724-8.817v-.125q0-4.704 1.757-8.814a22.77 22.794 0 0 1 4.854-7.214 22.52 22.543 0 0 1 7.4-4.897q4.293-1.788 9.368-1.788 5.08 0 9.34 1.788a23.271 23.295 0 0 1 7.368 4.832 21.52 21.541 0 0 1 4.824 7.154 22.52 22.543 0 0 1 1.726 8.817v.125a22.27 22.293 0 0 1-1.756 8.814 22.77 22.794 0 0 1-4.86 7.214 22.52 22.543 0 0 1-7.394 4.894q-4.294 1.789-9.37 1.789"/><path fill="currentColor" d="M555.239 42.718h9.65v35.137h21.878v8.784h-31.528z"/><path fill="currentColor" d="M594.997 42.718h8.9l20.557 27.041V42.718h9.528v43.921h-8.207l-21.252-27.923v27.923h-9.526z"/><path fill="currentColor" d="M190.725 122.921h10.402l11.535 18.573 11.536-18.573H234.6v43.922h-9.59v-28.675l-12.35 18.761h-.25l-12.224-18.573v28.487h-9.461z"/><path fill="currentColor" d="M268.433 158.685a13.262 13.275 0 0 0 5.33-1.065 12.261 12.274 0 0 0 4.168-2.95 13.762 13.776 0 0 0 2.695-4.359q.97-2.48.97-5.302v-.126q0-2.825-.97-5.335a13.262 13.275 0 0 0-2.757-4.39 13.262 13.275 0 0 0-4.232-2.981 12.762 12.774 0 0 0-5.33-1.1q-2.942 0-5.357 1.067a12.261 12.274 0 0 0-4.139 2.948 14.013 14.027 0 0 0-2.695 4.361 14.263 14.277 0 0 0-.97 5.305v.125q0 2.82.97 5.333a13.262 13.275 0 0 0 6.957 7.372q2.417 1.097 5.362 1.097m-.125 8.91q-5.077 0-9.338-1.789a23.271 23.295 0 0 1-7.365-4.83 21.52 21.541 0 0 1-4.826-7.153 22.52 22.543 0 0 1-1.725-8.817v-.125q0-4.704 1.757-8.814a22.77 22.794 0 0 1 4.857-7.214 22.52 22.543 0 0 1 7.397-4.897q4.293-1.789 9.37-1.789t9.339 1.789a23.271 23.295 0 0 1 7.367 4.832 21.52 21.541 0 0 1 4.824 7.153 22.52 22.543 0 0 1 1.727 8.817v.125a22.27 22.293 0 0 1-1.757 8.815 22.77 22.794 0 0 1-4.86 7.214 22.52 22.543 0 0 1-7.394 4.894q-4.296 1.788-9.37 1.788"/><path fill="currentColor" d="M310.47 131.83h-13.352v-8.909h36.358v8.91h-13.354v35.012h-9.652z"/><path fill="currentColor" d="M362.142 158.685a13.262 13.275 0 0 0 5.33-1.065 12.261 12.274 0 0 0 4.169-2.95 13.762 13.776 0 0 0 2.695-4.359q.97-2.48.97-5.302v-.126q0-2.825-.97-5.335a13.262 13.275 0 0 0-2.758-4.39 13.262 13.275 0 0 0-4.229-2.981 12.762 12.774 0 0 0-5.33-1.1q-2.945 0-5.36 1.067a12.261 12.274 0 0 0-4.136 2.948 14.013 14.027 0 0 0-2.695 4.361 14.263 14.277 0 0 0-.973 5.305v.125q0 2.82.973 5.333a13.262 13.275 0 0 0 6.957 7.372q2.414 1.097 5.36 1.097m-.123 8.91q-5.08 0-9.341-1.789a23.271 23.295 0 0 1-7.364-4.83 21.52 21.541 0 0 1-4.827-7.153 22.52 22.543 0 0 1-1.722-8.817v-.125q0-4.704 1.755-8.814a22.77 22.794 0 0 1 4.856-7.214 22.52 22.543 0 0 1 7.397-4.897q4.294-1.789 9.371-1.789t9.338 1.789a23.271 23.295 0 0 1 7.367 4.832 21.52 21.541 0 0 1 4.827 7.153 22.52 22.543 0 0 1 1.724 8.817v.125a22.27 22.293 0 0 1-1.757 8.815 22.77 22.794 0 0 1-4.856 7.214 22.52 22.543 0 0 1-7.397 4.894q-4.294 1.788-9.371 1.788"/><path fill="currentColor" d="M415.548 144.257q3.57 0 5.482-1.696 1.914-1.695 1.912-4.518v-.125q0-3.136-2.004-4.707-2.007-1.568-5.58-1.568h-9.59v12.612zm-19.433-21.336h20.058q8.333 0 12.787 4.456 3.76 3.765 3.76 10.04v.125q0 5.335-2.602 8.692t-6.798 4.921l10.717 15.688h-11.283l-9.4-14.054h-7.585v14.054h-9.654z"/><path fill="currentColor" d="M482.413 167.594q-4.824 0-8.963-1.755a22.02 22.042 0 0 1-7.144-4.8 21.77 21.792 0 0 1-4.702-7.183 23.02 23.044 0 0 1-1.691-8.847v-.126q0-4.709 1.691-8.816a22.645 22.668 0 0 1 4.702-7.214 21.77 21.792 0 0 1 7.206-4.897q4.204-1.789 9.279-1.789 3.073 0 5.61.501a23.271 23.295 0 0 1 4.607 1.383q2.069.88 3.825 2.134 1.752 1.253 3.258 2.76l-6.143 7.089q-2.57-2.322-5.234-3.64t-5.986-1.317q-2.76 0-5.11 1.067a12.01 12.023 0 0 0-4.04 2.948 13.762 13.776 0 0 0-2.635 4.361 14.763 14.778 0 0 0-.939 5.305v.125q0 2.82.939 5.333.938 2.51 2.602 4.391 1.661 1.884 4.011 2.98a12.01 12.023 0 0 0 5.172 1.098q3.764 0 6.361-1.378 2.602-1.382 5.172-3.767l6.143 6.212q-1.689 1.82-3.51 3.264a20.769 20.79 0 0 1-3.98 2.48 20.769 20.79 0 0 1-4.73 1.567 28.526 28.555 0 0 1-5.771.531"/><path fill="currentColor" d="M529.568 158.685a13.262 13.275 0 0 0 5.33-1.065 12.261 12.274 0 0 0 4.166-2.95 13.762 13.776 0 0 0 2.697-4.359q.969-2.48.971-5.302v-.126q0-2.825-.97-5.335a13.262 13.275 0 0 0-2.758-4.39 13.262 13.275 0 0 0-4.231-2.981 12.762 12.774 0 0 0-5.33-1.1q-2.943 0-5.357 1.067a12.261 12.274 0 0 0-4.14 2.948 14.013 14.027 0 0 0-2.694 4.361 14.263 14.277 0 0 0-.974 5.305v.125q0 2.82.974 5.333a13.262 13.275 0 0 0 6.956 7.372q2.412 1.097 5.36 1.097m-.125 8.91q-5.08 0-9.339-1.789a23.271 23.295 0 0 1-7.366-4.83 21.52 21.541 0 0 1-4.825-7.153 22.52 22.543 0 0 1-1.726-8.817v-.125q0-4.704 1.756-8.814a22.77 22.794 0 0 1 4.86-7.214 22.52 22.543 0 0 1 7.394-4.897q4.294-1.789 9.371-1.789t9.34 1.789a23.271 23.295 0 0 1 7.365 4.832 21.52 21.541 0 0 1 4.827 7.153 22.52 22.543 0 0 1 1.724 8.817v.125a22.27 22.293 0 0 1-1.757 8.815 22.77 22.794 0 0 1-4.854 7.214 22.52 22.543 0 0 1-7.4 4.894q-4.293 1.788-9.368 1.788"/><path fill="currentColor" d="M562.92 122.921h10.405l11.535 18.573 11.533-18.573h10.405v43.922h-9.589v-28.675l-12.351 18.761h-.25l-12.224-18.573v28.487h-9.463z"/><path fill="currentColor" d="M636.877 145.071q3.636 0 5.643-1.913t2.007-4.74v-.125q0-3.26-2.102-4.957-2.1-1.69-5.735-1.693h-7.457v13.428zm-17.298-22.15h17.926q3.949 0 7.054 1.097t5.265 3.106a13.512 13.526 0 0 1 3.32 4.802q1.159 2.79 1.159 6.18v.125q0 3.832-1.376 6.713a13.762 13.776 0 0 1-3.794 4.834 16.515 16.532 0 0 1-5.642 2.915 24.022 24.046 0 0 1-6.924.975h-7.334v13.175h-9.654z"/><path fill="currentColor" d="m684.152 148.458-5.83-14.242-5.83 14.242zm-10.154-25.85h8.9l18.805 44.235h-10.091l-4.012-9.851h-18.554l-4.01 9.851h-9.842z"/><path fill="currentColor" d="M710.333 122.921h8.901l20.559 27.042v-27.042h9.526v43.922h-8.208l-21.251-27.921v27.921h-9.527z"/><path fill="currentColor" d="m773.488 149.525-16.865-26.604h11.285l10.47 17.632 10.654-17.634h10.97l-16.863 26.418v17.506h-9.651z"/></svg>