<svg height="260" viewBox="0 0 800 208" width="1000" xmlns="http://www.w3.org/2000/svg"><g transform="matrix(3.12782 0 0 3.131 -12.086 -19.206)"><path d="m14.422 6.134c-2.037.007-4.184.222-6.23.753-.996.258-.98 1.02-1.205 2.024-4.744 21.16-3.548 41.32.025 61.247.182 1.012.84 1.7 1.857 1.856 2.975.458 5.85.971 11.381 0 1.013-.177 1.665-.846 1.857-1.856 3.892-20.457 3.841-40.916 0-61.373-.19-1.01-.282-1.693-.828-1.84-1.8-.482-4.239-.819-6.857-.81m-1.255.82-.451 28.775c-.189 1.61-.943 2.129-1.949 2.158l-6.046.242.778-.393c1.064-.385 1.121-.658 1.17-.936-.047-7.95.614-16.212 2.727-25.088.103-.403.068-.8.903-1.204l1.639-.167c.28.02.42-.128.426-.435zm2.952 0 .803 2.952c.007.307.146.455.426.435l1.648.167c.834.403.792.8.895 1.204 2.112 8.876 2.781 17.137 2.734 25.088.05.278.098.55 1.163.936l.786.393-6.055-.242c-1.005-.03-1.76-.548-1.948-2.158zm-11.398 33.415 6.046.242c1.006.03 1.76.548 1.949 2.158l.451 28.767-.803-2.952c-.006-.308-.146-.447-.426-.427l-1.64-.167c-.834-.403-.8-.81-.902-1.213-2.113-8.874-2.774-17.126-2.726-25.078-.05-.278-.107-.56-1.171-.945zm19.853 0-.786.384c-1.065.386-1.113.667-1.163.945.047 7.95-.622 16.203-2.734 25.08-.103.403-.06.809-.895 1.212l-1.648.167q-.418-.032-.426.427l-.803 2.952.452-28.767c.188-1.61.943-2.129 1.948-2.158z" fill-rule="evenodd"/><path d="m43.677 7.298h1.772v64.856h-1.772z" fill-rule="evenodd"/><g><g transform="matrix(.8 0 0 .8 62.388 15.192)"><path d="m6.188 9.289h-5.336v-3.557h14.528v3.557h-5.336v13.978h-3.856z"/><path d="m18.77 5.732h3.857v6.939h7.114v-6.941h3.858v17.536h-3.859v-7.04h-7.114v7.04h-3.858z"/><path d="m38.76 5.732h13.226v3.432h-9.394v3.557h8.266v3.432h-8.266v3.682h9.519v3.432h-13.351z"/></g><g transform="matrix(.8 0 0 .8 63.125 15.192)"><path d="m61.696 5.732h3.858v14.028h8.742v3.507h-12.6z"/><path d="m77.814 5.732h3.858v17.535h-3.858z"/><path d="m86.921 5.732h3.558l8.215 10.796v-10.796h3.808v17.535h-3.281l-8.493-11.148v11.148h-3.807z"/><path d="m115.608 23.567q-1.929 0-3.582-.701a8.8 8.8 0 0 1 -2.856-1.916 8.7 8.7 0 0 1 -1.879-2.868 9.2 9.2 0 0 1 -.676-3.532v-.05q0-1.88.676-3.52a9.05 9.05 0 0 1 1.88-2.88 8.7 8.7 0 0 1 2.88-1.955q1.679-.714 3.707-.714 1.228 0 2.242.2a9.3 9.3 0 0 1 1.842.552q.825.351 1.528.852.7.5 1.302 1.102l-2.455 2.83q-1.027-.927-2.092-1.453-1.065-.525-2.392-.526-1.102 0-2.041.426a4.8 4.8 0 0 0 -1.616 1.177 5.5 5.5 0 0 0 -1.052 1.741 5.9 5.9 0 0 0 -.376 2.118v.05q0 1.126.376 2.129.375 1.002 1.04 1.753.663.752 1.603 1.19a4.8 4.8 0 0 0 2.066.438q1.503 0 2.543-.55 1.04-.552 2.067-1.504l2.454 2.48q-.675.726-1.402 1.303a8.3 8.3 0 0 1 -1.59.99 8.3 8.3 0 0 1 -1.892.625 11.4 11.4 0 0 1 -2.305.213"/><path d="m134.452 20.01a5.3 5.3 0 0 0 2.13-.426 4.9 4.9 0 0 0 1.666-1.177 5.5 5.5 0 0 0 1.077-1.74q.388-.99.388-2.117v-.05q0-1.128-.388-2.13a5.3 5.3 0 0 0 -1.102-1.753 5.3 5.3 0 0 0 -1.691-1.19 5.1 5.1 0 0 0 -2.13-.439q-1.176 0-2.141.426a4.9 4.9 0 0 0 -1.654 1.177 5.6 5.6 0 0 0 -1.077 1.741 5.7 5.7 0 0 0 -.388 2.118v.05q0 1.126.388 2.129a5.3 5.3 0 0 0 2.78 2.943q.966.438 2.142.438m-.05 3.557q-2.029 0-3.732-.714a9.3 9.3 0 0 1 -2.943-1.928 8.6 8.6 0 0 1 -1.929-2.856 9 9 0 0 1 -.689-3.52v-.05q0-1.878.702-3.519a9.1 9.1 0 0 1 1.94-2.88 9 9 0 0 1 2.957-1.955q1.716-.714 3.744-.714 2.03 0 3.733.714a9.3 9.3 0 0 1 2.944 1.929 8.6 8.6 0 0 1 1.928 2.856 9 9 0 0 1 .69 3.52v.05a8.9 8.9 0 0 1 -.702 3.519 9.1 9.1 0 0 1 -1.942 2.88 9 9 0 0 1 -2.955 1.954q-1.716.714-3.745.714"/><path d="m147.819 5.732h3.857v14.028h8.743v3.507h-12.6z"/><path d="m163.708 5.732h3.557l8.215 10.796v-10.796h3.808v17.535h-3.28l-8.493-11.148v11.148h-3.807z"/></g><g transform="matrix(.8 0 0 .8 63.157 18.712)"><path d="m2.105 33.352h4.157l4.61 7.415 4.61-7.415h4.157v17.535h-3.832v-11.448l-4.936 7.49h-.1l-4.885-7.415v11.373h-3.781z"/><path d="m33.16 47.63a5.3 5.3 0 0 0 2.13-.425 4.9 4.9 0 0 0 1.666-1.178 5.5 5.5 0 0 0 1.077-1.74q.388-.99.388-2.117v-.05q0-1.128-.388-2.13a5.3 5.3 0 0 0 -1.102-1.753 5.3 5.3 0 0 0 -1.691-1.19 5.1 5.1 0 0 0 -2.13-.439q-1.176 0-2.141.426a4.9 4.9 0 0 0 -1.654 1.177 5.6 5.6 0 0 0 -1.077 1.741 5.7 5.7 0 0 0 -.388 2.118v.05q0 1.126.388 2.129a5.3 5.3 0 0 0 2.78 2.943q.966.438 2.143.438m-.05 3.557q-2.029 0-3.732-.714a9.3 9.3 0 0 1 -2.943-1.928 8.6 8.6 0 0 1 -1.929-2.856 9 9 0 0 1 -.689-3.52v-.05q0-1.878.702-3.519a9.1 9.1 0 0 1 1.941-2.88 9 9 0 0 1 2.956-1.955q1.716-.714 3.745-.714t3.732.714a9.3 9.3 0 0 1 2.944 1.929 8.6 8.6 0 0 1 1.928 2.856 9 9 0 0 1 .69 3.52v.05a8.9 8.9 0 0 1 -.702 3.519 9.1 9.1 0 0 1 -1.942 2.88 9 9 0 0 1 -2.955 1.954q-1.717.714-3.745.714"/><path d="m49.96 36.909h-5.336v-3.557h14.53v3.557h-5.337v13.978h-3.857z"/><path d="m70.61 47.63a5.3 5.3 0 0 0 2.13-.425 4.9 4.9 0 0 0 1.666-1.178 5.5 5.5 0 0 0 1.077-1.74q.388-.99.388-2.117v-.05q0-1.128-.388-2.13a5.3 5.3 0 0 0 -1.102-1.753 5.3 5.3 0 0 0 -1.69-1.19 5.1 5.1 0 0 0 -2.13-.439q-1.177 0-2.142.426a4.9 4.9 0 0 0 -1.653 1.177 5.6 5.6 0 0 0 -1.077 1.741 5.7 5.7 0 0 0 -.389 2.118v.05q0 1.126.389 2.129a5.3 5.3 0 0 0 2.78 2.943q.965.438 2.142.438m-.049 3.557q-2.03 0-3.733-.714a9.3 9.3 0 0 1 -2.943-1.928 8.6 8.6 0 0 1 -1.929-2.856 9 9 0 0 1 -.688-3.52v-.05q0-1.878.701-3.519a9.1 9.1 0 0 1 1.941-2.88 9 9 0 0 1 2.956-1.955q1.716-.714 3.745-.714t3.732.714a9.3 9.3 0 0 1 2.944 1.929 8.6 8.6 0 0 1 1.929 2.856 9 9 0 0 1 .689 3.52v.05a8.9 8.9 0 0 1 -.702 3.519 9.1 9.1 0 0 1 -1.941 2.88 9 9 0 0 1 -2.956 1.954q-1.716.714-3.745.714"/><path d="m91.953 41.87q1.427 0 2.191-.677.765-.677.764-1.804v-.05q0-1.252-.801-1.879-.802-.626-2.23-.626h-3.832v5.035zm-7.766-8.518h8.016q3.33 0 5.11 1.779 1.503 1.503 1.503 4.008v.05q0 2.13-1.04 3.47t-2.717 1.965l4.283 6.263h-4.509l-3.757-5.611h-3.031v5.611h-3.858z"/></g><g transform="matrix(.8 0 0 .8 64.8914 18.712)"><path d="m116.507 51.187q-1.928 0-3.582-.701a8.8 8.8 0 0 1 -2.855-1.916 8.7 8.7 0 0 1 -1.879-2.868 9.2 9.2 0 0 1 -.676-3.532v-.05q0-1.88.676-3.52a9.05 9.05 0 0 1 1.879-2.88 8.7 8.7 0 0 1 2.88-1.955q1.68-.714 3.708-.714 1.228 0 2.242.2a9.3 9.3 0 0 1 1.841.552q.827.351 1.529.852.7.5 1.302 1.102l-2.455 2.83q-1.027-.927-2.092-1.453t-2.392-.526q-1.103 0-2.042.426a4.8 4.8 0 0 0 -1.615 1.177 5.5 5.5 0 0 0 -1.053 1.741 5.9 5.9 0 0 0 -.375 2.118v.05q0 1.126.375 2.129.375 1.002 1.04 1.753.664.752 1.603 1.19a4.8 4.8 0 0 0 2.067.438q1.504 0 2.542-.55 1.04-.552 2.067-1.504l2.455 2.48q-.675.727-1.403 1.303a8.3 8.3 0 0 1 -1.59.99 8.3 8.3 0 0 1 -1.891.626 11.4 11.4 0 0 1 -2.306.212"/><path d="m135.352 47.63a5.3 5.3 0 0 0 2.13-.425 4.9 4.9 0 0 0 1.665-1.178 5.5 5.5 0 0 0 1.078-1.74q.387-.99.388-2.117v-.05q0-1.128-.388-2.13a5.3 5.3 0 0 0 -1.102-1.753 5.3 5.3 0 0 0 -1.691-1.19 5.1 5.1 0 0 0 -2.13-.439q-1.176 0-2.141.426a4.9 4.9 0 0 0 -1.654 1.177 5.6 5.6 0 0 0 -1.077 1.741 5.7 5.7 0 0 0 -.389 2.118v.05q0 1.126.389 2.129a5.3 5.3 0 0 0 2.78 2.943q.964.438 2.142.438m-.05 3.557q-2.03 0-3.732-.714a9.3 9.3 0 0 1 -2.944-1.928 8.6 8.6 0 0 1 -1.928-2.856 9 9 0 0 1 -.69-3.52v-.05q0-1.878.702-3.519a9.1 9.1 0 0 1 1.942-2.88 9 9 0 0 1 2.955-1.955q1.716-.714 3.745-.714t3.733.714a9.3 9.3 0 0 1 2.943 1.929 8.6 8.6 0 0 1 1.929 2.856 9 9 0 0 1 .689 3.52v.05a8.9 8.9 0 0 1 -.702 3.519 9.1 9.1 0 0 1 -1.94 2.88 9 9 0 0 1 -2.957 1.954q-1.716.714-3.744.714"/><path d="m148.681 33.352h4.158l4.61 7.415 4.609-7.415h4.158v17.535h-3.832v-11.448l-4.936 7.49h-.1l-4.885-7.415v11.373h-3.782z"/><path d="m178.237 42.195q1.453 0 2.255-.764t.802-1.892v-.05q0-1.302-.84-1.979-.839-.675-2.292-.676h-2.98v5.361zm-6.913-8.843h7.164q1.578 0 2.819.438t2.104 1.24a5.4 5.4 0 0 1 1.327 1.917q.463 1.114.463 2.467v.05q0 1.53-.55 2.68a5.5 5.5 0 0 1 -1.516 1.93 6.6 6.6 0 0 1 -2.255 1.164 9.6 9.6 0 0 1 -2.767.389h-2.931v5.26h-3.858z"/><path d="m197.13 43.547-2.33-5.686-2.33 5.686zm-4.058-10.32h3.557l7.515 17.66h-4.033l-1.603-3.933h-7.415l-1.603 3.933h-3.933z"/><path d="m207.593 33.352h3.557l8.216 10.796v-10.796h3.807v17.535h-3.28l-8.493-11.147v11.147h-3.807z"/><path d="m232.832 43.973-6.74-10.621h4.51l4.184 7.039 4.258-7.04h4.384l-6.739 10.547v6.989h-3.857z"/></g></g></g></svg>