<svg viewBox="0 0 24 24" xmlns="http://www.w3.org/2000/svg"><path d="m12 0c-6.667 0-12 5.333-12 12s5.333 12 12 12 12-5.333 12-12-5.333-12-12-12m-1.599 6.401h.531c1.6 0 3.067.8 3.867 2.133.401-.134.801-.134 1.201-.134.533 0 1.066 0 1.599.133.933.267 1.867.667 2.667 1.2a7.8 7.8 0 0 0 -2.532-.4c-1.6 0-2.933.533-3.867 1.867a6.9 6.9 0 0 0 -1.466 4.265c0 2-.534 3.868-1.734 5.602-.4.533-.668.933-1.068 1.333-4-.933-7.067-4-8-8l4.667-3.068v-.4c0-2.4 1.734-4.265 4.134-4.532m2.266 1.466a.667.667 0 0 0 -.667.667.667.667 0 0 0 .667.667.667.667 0 0 0 .666-.667.667.667 0 0 0 -.666-.667"/></svg>