<svg height="66.143" viewBox="0 0 18.035 17.5" width="68.165" xmlns="http://www.w3.org/2000/svg"><g transform="translate(-.993 -1.174)"><g transform="matrix(1.01489 0 0 1.01489 16.902 -2.699)"><path d="m-6.85 4.272a1.12 1.11 0 0 0 -.428.109l-5.852 2.796a1.12 1.11 0 0 0 -.606.753l-1.444 6.282a1.12 1.11 0 0 0 .152.85 1.12 1.11 0 0 0 .064.089l4.05 5.037a1.12 1.11 0 0 0 .876.417l6.496-.001a1.12 1.11 0 0 0 .875-.417l4.049-5.038a1.12 1.11 0 0 0 .216-.939l-1.446-6.28a1.12 1.11 0 0 0 -.605-.753l-5.854-2.797a1.12 1.11 0 0 0 -.542-.109" fill="#326ce5"/><path d="m-6.852 3.818a1.181 1.172 0 0 0 -.452.115l-6.18 2.951a1.181 1.172 0 0 0 -.638.795l-1.524 6.63a1.181 1.172 0 0 0 .16.9 1.181 1.172 0 0 0 .067.093l4.276 5.317a1.181 1.172 0 0 0 .924.44h6.858a1.181 1.172 0 0 0 .923-.44l4.275-5.319a1.181 1.172 0 0 0 .228-.99l-1.525-6.633a1.181 1.172 0 0 0 -.64-.795l-6.178-2.95a1.181 1.172 0 0 0 -.573-.115m.003.455a1.12 1.11 0 0 1 .542.108l5.853 2.795a1.12 1.11 0 0 1 .606.753l1.446 6.281a1.12 1.11 0 0 1 -.216.94l-4.05 5.037a1.12 1.11 0 0 1 -.875.417l-6.496.001a1.12 1.11 0 0 1 -.875-.417l-4.05-5.037a1.12 1.11 0 0 1 -.064-.088 1.12 1.11 0 0 1 -.152-.851l1.444-6.281a1.12 1.11 0 0 1 .605-.753l5.853-2.797a1.12 1.11 0 0 1 .429-.108" fill="#fff"/></g><path d="m9.992 5.01c-.138-.004-3.995 1.892-4.045 1.99-.122.233-1 4.28-.948 4.368.03.05.662.852 1.405 1.78l1.35 1.688 2.221.002h2.222l1.413-1.765 1.413-1.765-.494-2.17c-.272-1.192-.516-2.188-.54-2.212-.07-.066-3.922-1.913-3.997-1.916z" fill="#fff"/><path d="m14.177 10.529q-.06.005-.124.005c-.25 0-.493-.06-.712-.166q.109-.63.096-1.26a6.5 6.5 0 0 0 -.815-.965c.133-.25.329-.464.574-.616l.105-.065-.082-.092a4.3 4.3 0 0 0 -1.499-1.094l-.114-.05-.029.121c-.068.281-.21.535-.406.738a6.5 6.5 0 0 0 -1.174-.485 6.5 6.5 0 0 0 -1.173.483 1.6 1.6 0 0 1 -.405-.736l-.029-.12-.114.049a4.3 4.3 0 0 0 -1.498 1.092l-.083.093.106.065c.244.152.44.365.572.612q-.458.448-.813.962-.016.631.093 1.268a1.6 1.6 0 0 1 -.831.16l-.124-.01.012.124c.06.624.254 1.217.576 1.764l.063.107.094-.08a1.6 1.6 0 0 1 .764-.358 6.6 6.6 0 0 0 .654 1.065q.596.209 1.239.304a1.6 1.6 0 0 1 -.104.846l-.047.114.121.027c.31.068.623.103.929.103l.927-.103.122-.027-.048-.114a1.6 1.6 0 0 1 -.102-.846 6.6 6.6 0 0 0 1.234-.303 6.6 6.6 0 0 0 .654-1.066 1.6 1.6 0 0 1 .768.358l.094.08.063-.107a4.25 4.25 0 0 0 .575-1.764l.012-.123zm-2.852 1.508q-.662.18-1.328.18-.669 0-1.33-.18a5.2 5.2 0 0 1 -.568-1.198 5 5 0 0 1 -.24-1.315q.428-.527.963-.917a5.1 5.1 0 0 1 1.175-.639 5.2 5.2 0 0 1 1.172.638c.358.26.682.57.967.922a5 5 0 0 1 -.242 1.31 5.1 5.1 0 0 1 -.57 1.199m-.966-2.117a.56.56 0 1 0 1.122 0 .56.56 0 0 0 -1.122 0m-.725 0a.56.56 0 1 1 -1.121 0 .56.56 0 0 1 1.121 0" fill="#326ce5" stroke-width=".033593"/></g></svg>