<svg xmlns="http://www.w3.org/2000/svg" id="svg13826" width="68.165" height="66.143" viewBox="0 0 18.035 17.5"><g id="layer1" transform="translate(-.993 -1.174)"><g id="g70" transform="translate(16.902 -2.699)scale(1.01489)"><path id="path3055" d="M-6.85 4.272a1.12 1.11 0 0 0-.428.109l-5.852 2.796a1.12 1.11 0 0 0-.606.753l-1.444 6.282a1.12 1.11 0 0 0 .152.85 1.12 1.11 0 0 0 .064.089l4.05 5.037a1.12 1.11 0 0 0 .876.417l6.496-.001a1.12 1.11 0 0 0 .875-.417l4.049-5.038a1.12 1.11 0 0 0 .216-.939L.152 7.93a1.12 1.11 0 0 0-.605-.753L-6.307 4.38a1.12 1.11 0 0 0-.542-.109" fill="#326ce5" fill-opacity="1" stroke="none" stroke-width="0" stroke-miterlimit="4" stroke-dasharray="none" stroke-opacity="1"/><path id="path3054-2-9" d="M-6.852 3.818a1.181 1.172 0 0 0-.452.115l-6.18 2.951a1.181 1.172 0 0 0-.638.795l-1.524 6.63a1.181 1.172 0 0 0 .16.9 1.181 1.172 0 0 0 .067.093l4.276 5.317a1.181 1.172 0 0 0 .924.44h6.858a1.181 1.172 0 0 0 .923-.44L1.837 15.3a1.181 1.172 0 0 0 .228-.99L.54 7.677a1.181 1.172 0 0 0-.64-.795l-6.178-2.95a1.181 1.172 0 0 0-.573-.115m.003.455a1.12 1.11 0 0 1 .542.108l5.853 2.795a1.12 1.11 0 0 1 .606.753l1.446 6.281a1.12 1.11 0 0 1-.216.94l-4.05 5.037a1.12 1.11 0 0 1-.875.417l-6.496.001a1.12 1.11 0 0 1-.875-.417l-4.05-5.037a1.12 1.11 0 0 1-.064-.088 1.12 1.11 0 0 1-.152-.851l1.444-6.281a1.12 1.11 0 0 1 .605-.753l5.853-2.797a1.12 1.11 0 0 1 .429-.108" style="line-height:normal;-inkscape-font-specification:Sans;text-indent:0;text-align:start;text-decoration-line:none;text-transform:none;marker:none" color="#000" font-style="normal" font-variant="normal" font-weight="400" font-stretch="normal" font-size="medium" font-family="Sans" text-decoration="none" letter-spacing="normal" word-spacing="normal" writing-mode="lr-tb" direction="ltr" baseline-shift="baseline" text-anchor="start" display="inline" overflow="visible" visibility="visible" fill="#fff" fill-opacity="1" fill-rule="nonzero" stroke="none" stroke-width="0" stroke-miterlimit="4" stroke-dasharray="none"/></g><path id="path2078" d="M9.992 5.01C9.854 5.006 5.997 6.902 5.947 7c-.122.233-1 4.28-.948 4.368.03.05.662.852 1.405 1.78l1.35 1.688 2.221.002h2.222l1.413-1.765 1.413-1.765-.494-2.17c-.272-1.192-.516-2.188-.54-2.212-.07-.066-3.922-1.913-3.997-1.916z" opacity="1" fill="#fff" fill-opacity="1" stroke="#eee" stroke-width="0" stroke-miterlimit="10" stroke-dasharray="none" stroke-dashoffset="11.23642349" stroke-opacity="1"/><path id="path4590" d="M14.177 10.529q-.06.005-.124.005c-.25 0-.493-.06-.712-.166q.109-.63.096-1.26a6.5 6.5 0 0 0-.815-.965c.133-.25.329-.464.574-.616l.105-.065-.082-.092a4.3 4.3 0 0 0-1.499-1.094l-.114-.05-.029.121c-.068.281-.21.535-.406.738A6.5 6.5 0 0 0 9.997 6.6a6.5 6.5 0 0 0-1.173.483 1.6 1.6 0 0 1-.405-.736l-.029-.12-.114.049a4.3 4.3 0 0 0-1.498 1.092l-.083.093.106.065c.244.152.44.365.572.612q-.458.448-.813.962-.016.631.093 1.268a1.6 1.6 0 0 1-.831.16l-.124-.01.012.124c.06.624.254 1.217.576 1.764l.063.107.094-.08a1.6 1.6 0 0 1 .764-.358 6.6 6.6 0 0 0 .654 1.065q.596.209 1.239.304a1.6 1.6 0 0 1-.104.846l-.047.114.121.027c.31.068.623.103.929.103l.927-.103.122-.027L11 14.29a1.6 1.6 0 0 1-.102-.846 6.6 6.6 0 0 0 1.234-.303 6.6 6.6 0 0 0 .654-1.066 1.6 1.6 0 0 1 .768.358l.094.08.063-.107a4.25 4.25 0 0 0 .575-1.764l.012-.123zm-2.852 1.508q-.662.18-1.328.18-.669 0-1.33-.18a5.2 5.2 0 0 1-.568-1.198 5 5 0 0 1-.24-1.315q.428-.527.963-.917a5.1 5.1 0 0 1 1.175-.639 5.2 5.2 0 0 1 1.172.638c.358.26.682.57.967.922a5 5 0 0 1-.242 1.31 5.1 5.1 0 0 1-.57 1.199m-.966-2.117a.56.56 0 1 0 1.122 0 .56.56 0 0 0-1.122 0m-.725 0a.56.56 0 1 1-1.121 0 .56.56 0 0 1 1.121 0" fill="#326ce5" fill-opacity="1" stroke-width=".03359297"/></g></svg>