<svg xmlns="http://www.w3.org/2000/svg" width="89.541" height="102.59" viewBox="0 0 89.541 102.594"><path fill="currentColor" d="M2.39 2.411V12.85c13.645 7.756 26.627 18.182 36.991 27.545V29.266C29.461 18.224 18.833 9.121 10.434 2.411zm20.87 0c6.801 5.656 13.988 12.242 21.107 19.375h4.416c8.841 0 14.117 4.026 14.117 10.264 0 2.659-.963 4.914-2.75 6.629 4.91 5.623 9.603 11.38 13.9 17.12 4.29-2.783 7.66-6.474 9.871-10.862C70.014 25.883 51.662 12.086 34.731 2.41zm34.441 2.314c15.815 15.12 23.75 28.062 27.693 36.692.984-2.911 1.504-6.065 1.504-9.414q0-1.208-.088-2.382C71.842 11.125 57.701 4.725 57.701 4.725M16.848 32.143a677 677 0 0 1 23.275 29.454h8.248C31.953 45.015 16.848 32.143 16.848 32.143m33.094 10.141q-.57.025-1.158.026h-7.303C50.291 50.417 56.96 57.499 60.153 61q.472-.075.936-.163c-3.12-6.54-6.936-12.741-11.146-18.553zm-36.625.137v13.107c8.1 7.458 16.342 16.124 24.527 26.166 0 0-8.366-19.499-24.527-39.273m0 27.76v5.54c8.635 9.074 14.96 17.107 19.9 24.712h13.686c-11.897-12.538-23.85-22.729-33.587-30.252zM2.387 81.064v7.301a209 209 0 0 1 12.006 12.068h4.069C15.517 95.13 11.31 88.36 5.665 81.063z"/><path fill="currentColor" d="M10.435 2.411c8.399 6.71 19.027 15.813 28.947 26.855v-7.48h4.986c-7.12-7.133-14.305-13.72-21.105-19.375zm24.299 0c16.932 9.675 35.282 23.472 49.189 42.525a27 27 0 0 0 1.472-3.52c-3.945-8.628-11.879-21.57-27.694-36.691 0 0 14.141 6.399 29.11 24.895C85.584 13.48 71.892 2.41 52.677 2.41zM2.388 12.851v8.938h10.928V42.42c16.16 19.774 24.529 39.273 24.529 39.273-8.186-10.042-16.43-18.709-24.53-26.168V70.18c9.736 7.523 21.69 17.714 33.588 30.252h3.402v-19.37H39.38V61.598h.742a677 677 0 0 0-23.275-29.453S31.953 45.017 48.37 61.598h4.307c2.598 0 5.095-.206 7.474-.596-3.194-3.501-9.864-10.583-18.673-18.69h-2.1v-1.914c-10.362-9.363-23.346-19.79-36.992-27.545zm57.765 25.828c-2.217 2.127-5.705 3.418-10.211 3.606 4.21 5.811 8.024 12.012 11.145 18.553 4.898-.917 9.271-2.64 12.965-5.038-4.298-5.741-8.989-11.498-13.898-17.12zM13.317 75.72v5.344H5.664c5.646 7.297 9.852 14.066 12.797 19.369h14.756c-4.94-7.605-11.266-15.64-19.9-24.713M2.387 88.365v12.068h12.006A209 209 0 0 0 2.388 88.364z"/></svg>