<svg viewBox="0 0 24 24" xmlns="http://www.w3.org/2000/svg"><path d="m18.869 13.45c0-.428.45-.585 1.18-.663.606-.068 1.09-.169 1.404-.371v.539c0 .644-.542.957-1.265 1.028a47.006 47 0 0 0 -.925-.077c-.25-.095-.394-.256-.394-.457m-13.99.19h3.113l.256.755a33.004 33 0 0 0 -3.96.97zm1.551-4.583 1.09 3.202h-2.18zm6.921 1.606c.82 0 1.483.742 1.483 1.663 0 .651-.348 1.212-.852 1.473a47.006 47 0 0 0 -1.152.053c-.562-.227-.961-.812-.961-1.526 0-.944.663-1.663 1.483-1.663m9.484 3.657v-3.072c0-.461-.18-1.978-2.529-1.978-1.516 0-2.572.82-2.718 1.921h1.483c.134-.494.741-.73 1.27-.73.662 0 1.055.247 1.055.55 0 .472-.685.585-1.651.675-1.28.112-2.37.449-2.37 1.752q0 .194.035.367a51.006 51 0 0 0 -1.092-.028v-6.932h-1.484v3.123a2.43 2.43 0 0 0 -1.707-.674c-1.505 0-2.752 1.303-2.752 3.022a3.2 3.2 0 0 0 .474 1.702 38.005 38 0 0 0 -1.12.14l-2.354-6.751h-1.878l-2.992 8.587a22.003 22 0 0 0 -2.506 1.163c3.835-1.673 13.295-3.938 24-2.55-.051-.057-.466-.166-1.164-.286"/></svg>