<svg height="48" viewBox="0 0 48 48" width="48" xmlns="http://www.w3.org/2000/svg"><path d="m42.206 24.752-10.008-2.502 2.669-17.792 9.133 4.152zm-8.211 16.448-1.776-16.883 9.934 2.484 1.777 16.883zm-27.09-17.06 11.079 1.705-1.794 17.944-11.98-2.569zm-2.683-19.757 12.895 3.398.89 16.043-11.055-1.7zm25.97 17.75-10.18 1.697-.893-16.06 13.744-3.437zm-10.198 3.727 10.198-1.7 1.792 17.027-13.781 2.584zm26.074-17.75a1 1 0 0 0 -.58-1.02l-11-5a1 1 0 0 0 -.656-.06l-15.752 3.936-14.825-3.905a.997.997 0 0 0 -1.243 1.12l3.05 19.817-2.975 18.846a1 1 0 0 0 .777 1.134l14 3q.195.04.395.004l15.785-2.959 11.788 2.947a1 1 0 0 0 .898-.216 1 1 0 0 0 .338-.859l-1.988-18.893z" fill="#dd344c" fill-rule="evenodd"/></svg>