<svg viewBox="0 0 128 128" xmlns="http://www.w3.org/2000/svg"><path d="m64 0c-35.346 0-64 28.654-64 64s28.654 64 64 64 64-28.654 64-64-28.654-64-64-64zm0 6.508c31.752 0 57.492 25.74 57.492 57.492s-25.74 57.492-57.492 57.492-57.492-25.74-57.492-57.492 25.74-57.492 57.492-57.492zm.723 11.933a45.42 45.42 0 0 0 -17.366 3.426c4.392 3.225 7.243 8.425 7.243 14.291 0 9.785-7.934 17.719-17.72 17.719-5.865 0-11.066-2.851-14.29-7.242a45.417 45.417 0 0 0 -3.426 17.365c0 25.162 20.397 45.56 45.559 45.56s45.56-20.398 45.56-45.56-20.398-45.559-45.56-45.559z"/></svg>