<svg viewBox="0 0 128 128" xmlns="http://www.w3.org/2000/svg" xmlns:xlink="http://www.w3.org/1999/xlink"><linearGradient id="a" gradientUnits="userSpaceOnUse" x1="64.724" x2="64.724" y1="109.56" y2="18.44"><stop offset="0" stop-color="#7400e1"/><stop offset="1" stop-color="#4000bf"/></linearGradient><path d="m64 124.746c33.549 0 60.746-27.197 60.746-60.746s-27.197-60.746-60.746-60.746c-33.55 0-60.746 27.197-60.746 60.746 0 33.55 27.197 60.746 60.746 60.746z" fill="#fff"/><path d="m64 0c-35.346 0-64 28.654-64 64s28.654 64 64 64 64-28.654 64-64-28.654-64-64-64zm0 6.509c31.752 0 57.492 25.74 57.492 57.491 0 31.752-25.74 57.492-57.492 57.492s-57.492-25.74-57.492-57.492 25.74-57.491 57.492-57.491z" fill="#4000bf"/><path d="m64.723 18.44c25.162 0 45.56 20.398 45.56 45.56s-20.398 45.56-45.56 45.56c-25.161 0-45.559-20.398-45.559-45.56a45.41 45.41 0 0 1 3.427-17.366c3.224 4.391 8.425 7.242 14.29 7.242 9.786 0 17.718-7.932 17.718-17.718 0-5.866-2.85-11.066-7.242-14.29a45.426 45.426 0 0 1 17.366-3.427z" fill="url(#a)"/></svg>