<svg viewBox="0 0 24 24" xmlns="http://www.w3.org/2000/svg"><path d="m3.5 11.633-2.434 2.408v-5.354a.53.53 0 0 0 -.533-.527.53.53 0 0 0 -.533.527v6.624a.53.53 0 0 0 .532.526.53.53 0 0 0 .377-.153l2.974-2.939 2.974 2.94a.535.535 0 0 0 .754 0 .52.52 0 0 0 0-.746l-2.974-2.938 2.973-2.941a.52.52 0 0 0 0-.745.54.54 0 0 0 -.753 0l-3.344 3.307q-.004.001-.007.005zm8.826 4.206a.53.53 0 0 1 -.533-.526v-6.625a.53.53 0 0 1 .533-.528.53.53 0 0 1 .533.528v6.624a.53.53 0 0 1 -.533.526zm7.257-6.624v6.098c0 .29.238.526.532.526a.53.53 0 0 0 .533-.526v-6.098h2.818a.53.53 0 0 0 .534-.527.53.53 0 0 0 -.533-.527h-6.702a.53.53 0 0 0 -.533.527.53.53 0 0 0 .533.527h2.819z"/></svg>