<svg fill="#715cd7" viewBox="0 0 24 24" xmlns="http://www.w3.org/2000/svg"><path d="m4.2 24q-1.26 0-2.13-.87t-.87-2.13v-.6q0-.51.345-.855t.855-.345.855.345.345.855v.6q0 .24.18.42t.42.18.42-.18.18-.42v-13.8q0-3 2.1-5.1t5.1-2.1 5.1 2.1 2.1 5.1v13.8q0 .24.18.42t.42.18.42-.18.18-.42v-.6q0-.51.345-.855t.855-.345.855.345.345.855v.6q0 1.26-.87 2.13t-2.13.87-2.13-.87-.87-2.13v-5.4h-1.62v4.8q0 .51-.345.855t-.855.345-.855-.345-.345-.855v-4.8h-1.59v4.8q0 .51-.345.855t-.855.345-.855-.345-.345-.855v-4.8h-1.59v5.4q0 1.26-.87 2.13t-2.13.87m4.2-11.4q.54 0 .87-.45t.33-1.05-.33-1.05-.87-.45-.87.45-.33 1.05.33 1.05.87.45m7.2 0q.54 0 .87-.45t.33-1.05-.33-1.05-.87-.45-.87.45-.33 1.05.33 1.05.87.45"/></svg>