<svg viewBox="0 0 24 24" xmlns="http://www.w3.org/2000/svg"><path d="m22 22.6a1.4 1.4 0 0 1 -1.4 1.4h-1.2a1.4 1.4 0 0 1 -1.4-1.4v-21.2a1.4 1.4 0 0 1 1.4-1.4h1.2a1.4 1.4 0 0 1 1.4 1.4zm-8-14a1.4 1.4 0 0 1 -1.4 1.4h-1.2a1.4 1.4 0 0 1 -1.4-1.4v-5.2a1.4 1.4 0 0 1 1.4-1.4h1.2a1.4 1.4 0 0 1 1.4 1.4zm-8.001 8a1.4 1.4 0 0 1 -1.4 1.4h-1.199a1.4 1.4 0 0 1 -1.4-1.4v-9.2a1.4 1.4 0 0 1 1.4-1.4h1.2a1.4 1.4 0 0 1 1.4 1.4v9.2zm8.001 4a1.4 1.4 0 0 1 -1.4 1.4h-1.2a1.4 1.4 0 0 1 -1.4-1.4v-5.2a1.4 1.4 0 0 1 1.4-1.4h1.2a1.4 1.4 0 0 1 1.4 1.4z"/></svg>