<svg xmlns="http://www.w3.org/2000/svg" width="24" height="24"><path fill="currentColor" d="M9.65 3.87h8.29v1.87H9.65zm-5.1 7.48h8.29v1.87H4.55zm5.1 6.86h8.29v1.87H9.65z"/><g fill="currentColor" fill-rule="evenodd"><path d="m6.57 13.38 3.25 5.51-1.66.93-3.25-5.51zm.23-2.47 3.25-5.51-1.61-.91L5.19 10z"/><path d="M7.48 7.66 5.82 4.85 7.48 2h3.31l1.65 2.85-1.65 2.81zm5.73 7.48-1.65-2.8 1.65-2.86h3.31l1.66 2.86-1.66 2.8zm-9.56 0L2 12.34l1.65-2.86h3.31l1.65 2.86-1.65 2.8zm13.39-7.48-1.65-2.81L17.04 2h3.31L22 4.85l-1.65 2.81zm0 14.34-1.65-2.81 1.65-2.85h3.31L22 19.19 20.35 22zm-9.56 0-1.66-2.81 1.66-2.85h3.31l1.65 2.85L10.79 22z"/></g></svg>