<svg height="24" width="24" xmlns="http://www.w3.org/2000/svg"><path d="m9.65 3.87h8.29v1.87h-8.29z" fill="#4285f4"/><path d="m4.55 11.35h8.29v1.87h-8.29z" fill="#4285f4"/><path d="m9.65 18.21h8.29v1.87h-8.29z" fill="#4285f4"/><g fill-rule="evenodd"><path d="m6.57 13.38 3.25 5.51-1.66.93-3.25-5.51z" fill="#4285f4"/><path d="m6.8 10.91 3.25-5.51-1.61-.91-3.25 5.51z" fill="#4285f4"/><path d="m7.48 7.66-1.66-2.81 1.66-2.85h3.31l1.65 2.85-1.65 2.81z" fill="#aecbfa"/><path d="m13.21 15.14-1.65-2.8 1.65-2.86h3.31l1.66 2.86-1.66 2.8z" fill="#aecbfa"/><path d="m3.65 15.14-1.65-2.8 1.65-2.86h3.31l1.65 2.86-1.65 2.8z" fill="#aecbfa"/><path d="m17.04 7.66-1.65-2.81 1.65-2.85h3.31l1.65 2.85-1.65 2.81z" fill="#aecbfa"/><path d="m17.04 22-1.65-2.81 1.65-2.85h3.31l1.65 2.85-1.65 2.81z" fill="#aecbfa"/><path d="m7.48 22-1.66-2.81 1.66-2.85h3.31l1.65 2.85-1.65 2.81z" fill="#aecbfa"/></g></svg>