<svg viewBox="0 0 24 24" xmlns="http://www.w3.org/2000/svg"><path d="m11.1968 3.6956c-6.4478 0-11.1968 4.1062-11.1968 8.4941 0 2.2672 1.2753 4.1769 2.8798 5.5006l.122-.083c-1.273-1.0542-2.422-2.7073-2.422-4.9708.3365-4.8005 6.2457-7.5067 11.4965-7.5067 3.7177 0 10.3932.8607 10.3932 7.0862 0 3.2484-3.4645 7.4727-10.7367 7.4727-3.7243 0-6.618-1.9984-6.618-4.87 0-2.4873 1.943-4.2578 4.8414-4.2578.7985 0 1.5469.1868 2.1176.3423-1.2086-.218-3.085.093-4.0559.8572v4.2045h3.5612v-4.7796a4.3988 4.3988 0 0 1 1.5513.5977v4.182h.9277c-.7295.8196-2.0877 1.3186-3.2642 1.135v.176c3.3839.2666 4.8157-1.341 4.8157-3.1501 0-2.1283-1.9933-3.3782-4.0305-3.634v-3.1431h-3.5613v3.1805c-2.3045.465-4.5605 1.8371-4.5605 4.1097 0 3.4981 4.88 5.6654 9.1253 5.6654 6.4524 0 11.4174-3.1258 11.4174-7.511 0-5.3088-7.1681-9.0978-12.8032-9.0978m4.9079 10.5528c0-1.5458-1.0548-2.7842-2.9744-3.3821v-3.5175h3.5568v8.6161h-1.1121c.391-.552.5297-1.1783.5297-1.7165"/></svg>