<svg xmlns="http://www.w3.org/2000/svg" width="18" height="18" viewBox="0 0 18 18"><defs><mask id="a"><path fill="#fff" d="M0 0h18v18H0z"/><path d="M7.145 3.861a5.005 5.005 0 0 1 4.736 3.4l2.135-.347a7.142 7.142 0 0 0-9.589-4.658l.307 2.227a4.96 4.96 0 0 1 2.411-.622"/><path d="M11.853 7.2a5 5 0 0 1 .286 1.656A5 5 0 1 1 3.191 5.8s.349-.49.511-.672a.13.13 0 0 1 .126.012l.076.054 1.145.82a.13.13 0 0 0 .2-.127l-.561-3.411a.29.29 0 0 0-.335-.24L.946 2.8a.13.13 0 0 0-.054.234l1.145.82a7.139 7.139 0 1 0 11.848 2.655z"/><path d="M14.244 16.364a.84.84 0 0 0 .844-.838 1 1 0 0 0-.006-.1c-.331-2.644-1.839-4.8-4.717-4.8-2.928 0-4.438 1.823-4.732 4.8a.845.845 0 0 0 .754.928h.085z"/><circle cx="14.287" cy="9.247" r="2.086"/><circle cx="10.365" cy="8.603" r="2.653"/></mask></defs><path fill="currentColor" d="M17.336 15.35a.66.66 0 0 0 .664-.659v-.08c-.259-2.079-1.446-3.772-3.708-3.772-2.3 0-3.491 1.434-3.722 3.778a.665.665 0 0 0 .593.73h.067z" mask="url(#a)"/></svg>