<svg height="18" viewBox="0 0 18 18" width="18" xmlns="http://www.w3.org/2000/svg" xmlns:xlink="http://www.w3.org/1999/xlink"><linearGradient id="a" gradientUnits="userSpaceOnUse" x1="9.723" x2="8.608" y1="7.674" y2="1.35"><stop offset="0" stop-color="#0078d4"/><stop offset="1" stop-color="#005ba1"/></linearGradient><linearGradient id="b" gradientUnits="userSpaceOnUse" x1="12.891" x2="-.602" y1="13.178" y2="5.388"><stop offset=".301" stop-color="#0078d4"/><stop offset="1" stop-color="#5ea0ef"/></linearGradient><linearGradient id="c" gradientUnits="userSpaceOnUse" x1="14.287" x2="14.287" y1="6.971" y2="12.596"><stop offset=".225" stop-color="#32bedd"/><stop offset="1" stop-color="#198ab3"/></linearGradient><linearGradient id="d" gradientUnits="userSpaceOnUse" x1="10.365" x2="10.365" y1="5.709" y2="12.862"><stop offset=".225" stop-color="#50e6ff"/><stop offset="1" stop-color="#32bedd"/></linearGradient><path d="m7.145 3.861a5.005 5.005 0 0 1 4.736 3.4l2.135-.347a7.142 7.142 0 0 0 -9.589-4.658l.307 2.227a4.96 4.96 0 0 1 2.411-.622" fill="url(#a)"/><path d="m11.853 7.2a5 5 0 0 1 .286 1.656 5 5 0 1 1 -8.948-3.056s.349-.49.511-.672a.13.13 0 0 1 .126.012l.076.054 1.145.82a.13.13 0 0 0 .2-.127l-.561-3.411a.29.29 0 0 0 -.335-.24l-3.407.564a.13.13 0 0 0 -.054.234l1.145.82a7.139 7.139 0 1 0 11.848 2.655z" fill="url(#b)"/><path d="m17.336 15.35a.66.66 0 0 0 .664-.659 1 1 0 0 0 0-.08c-.259-2.079-1.446-3.772-3.708-3.772-2.3 0-3.491 1.434-3.722 3.778a.665.665 0 0 0 .593.73h.067z" fill="#32bedd"/><circle cx="14.287" cy="9.247" fill="url(#c)" r="2.086"/><path d="m14.244 16.364a.84.84 0 0 0 .844-.838 1 1 0 0 0 -.006-.1c-.331-2.644-1.839-4.8-4.717-4.8-2.928 0-4.438 1.823-4.732 4.8a.845.845 0 0 0 .754.928 1 1 0 0 0 .085 0z" fill="#50e6ff"/><circle cx="10.365" cy="8.603" fill="url(#d)" r="2.653"/></svg>