<svg xmlns="http://www.w3.org/2000/svg" id="e5cb9f87-7b25-4ce4-8df5-8cd66afecc6d" width="18" height="18" viewBox="0 0 18 18"><defs><linearGradient id="bd9b1662-9bee-4ea8-9cee-787e4ccd4f18" x1="9" x2="9" y1=".81" y2="21.28" gradientUnits="userSpaceOnUse"><stop offset="0" stop-color="#ffd70f"/><stop offset=".34" stop-color="#eeb309"/><stop offset=".77" stop-color="#dc8c03"/><stop offset="1" stop-color="#d57d01"/></linearGradient></defs><title>Icon-web-45</title><path fill="url(#bd9b1662-9bee-4ea8-9cee-787e4ccd4f18)" d="M17.5 2.5v10.83a.58.58 0 0 1-.59.58h-4.52a.14.14 0 0 0-.14.14v1.75a.28.28 0 0 1-.45.22l-2.72-2.08H1.09a.58.58 0 0 1-.59-.58V2.5a.58.58 0 0 1 .59-.58h15.82a.58.58 0 0 1 .59.58"/><path fill="#ffe452" d="m2.05 9 3 2.52a.29.29 0 0 0 .47-.22v-1.1h11.96V8.5H2.23a.29.29 0 0 0-.18.5"/><path fill="#fff" d="m16.24 6.46-3.11-2.52a.29.29 0 0 0-.47.22v1.1H.5V7h15.56a.29.29 0 0 0 .18-.54"/></svg>