<svg height="18" viewBox="0 0 18 18" width="18" xmlns="http://www.w3.org/2000/svg" xmlns:xlink="http://www.w3.org/1999/xlink"><linearGradient id="a" gradientUnits="userSpaceOnUse" x1="13.01" x2="12.78" y1="5.83" y2="19.82"><stop offset="0" stop-color="#9cebff"/><stop offset="1" stop-color="#50e6ff"/></linearGradient><path d="m13.1.26h-7a.45.45 0 0 0 -.45.45v10.2a9 9 0 0 1 1.13-.83h1.33l.74 1v1.54l-.93 1.24-1.28-.17-1-.39v.27a.45.45 0 0 0 .45.46h7a.45.45 0 0 0 .45-.46v-12.86a.45.45 0 0 0 -.44-.45" fill="#0078d4"/><path d="m6.7 2.07h1.3a.11.11 0 0 1 .12.11v1.7a.12.12 0 0 1 -.12.12h-1.3a.11.11 0 0 1 -.11-.12v-1.7a.11.11 0 0 1 .11-.11m2.3 0h1.29a.11.11 0 0 1 .11.11v1.7a.11.11 0 0 1 -.11.12h-1.29a.11.11 0 0 1 -.11-.12v-1.7a.11.11 0 0 1 .11-.11m2.27 0h1.28a.11.11 0 0 1 .11.11v1.7a.11.11 0 0 1 -.11.12h-1.32a.12.12 0 0 1 -.12-.12v-1.7a.11.11 0 0 1 .12-.11zm-4.57 3.09h1.3a.11.11 0 0 1 .12.11v1.73a.11.11 0 0 1 -.12.09h-1.3a.11.11 0 0 1 -.11-.09v-1.73a.11.11 0 0 1 .11-.11m2.3 0h1.29a.11.11 0 0 1 .11.11v1.73a.11.11 0 0 1 -.11.11h-1.29a.11.11 0 0 1 -.15-.11v-1.73a.11.11 0 0 1 .15-.11m2.27 0h1.28a.11.11 0 0 1 .11.11v1.73a.11.11 0 0 1 -.11.11h-1.32a.11.11 0 0 1 -.12-.11v-1.73a.11.11 0 0 1 .12-.11z" fill="#f2f2f2"/><path d="m7.12 11.05a1 1 0 0 0 -1 .76h-3.59a3 3 0 0 0 -.06.53v.05h3.65a1 1 0 1 0 1-1.34" fill="#50e6ff"/><path d="m9.88 10.6a2.64 2.64 0 0 0 -2.68-2.55 2.67 2.67 0 0 0 -2.56 1.78 2.57 2.57 0 0 0 -2 1.64h3.26a1.37 1.37 0 0 1 1.22-.76 1.41 1.41 0 1 1 -1.22 2h-3.37a2.55 2.55 0 0 0 2.53 2h4.54a2.05 2.05 0 0 0 .28-4.09z" fill="#32bedd"/><path d="m7.12 11.05a1 1 0 0 0 -1 .76h-3.59a2 2 0 0 1 -.37-.05 1.84 1.84 0 0 1 .2-3.63h.17l.06-.17a2 2 0 0 1 2-1.36 2.08 2.08 0 0 1 1.82 1 3 3 0 0 1 .59-.06 2.66 2.66 0 0 0 -2.45-1.54 2.63 2.63 0 0 0 -2.44 1.59 2.42 2.42 0 0 0 -.21 4.71 1.5 1.5 0 0 0 .59.1h3.63a1 1 0 1 0 1-1.34z" fill="#50e6ff"/><path d="m8 11.29 4.5-4.5a.54.54 0 0 1 .76 0l4.49 4.5a.24.24 0 0 1 -.17.41h-2.72a.24.24 0 0 0 -.24.24v5.61a.19.19 0 0 1 -.19.19h-3a.18.18 0 0 1 -.19-.19v-5.61a.24.24 0 0 0 -.24-.24h-2.79a.24.24 0 0 1 -.21-.41" fill="url(#a)"/></svg>