<svg xmlns="http://www.w3.org/2000/svg" width="18" height="18" viewBox="0 0 18 18"><path fill="currentColor" d="M12.362 4.809 9.386 7.785a.356.356 0 0 1-.5 0L5.909 4.809a.159.159 0 0 1 .112-.271h1.83a.16.16 0 0 0 .158-.158V.661a.127.127 0 0 1 .127-.127h2a.126.126 0 0 1 .126.127V4.38a.16.16 0 0 0 .159.158h1.83a.159.159 0 0 1 .111.271"/><rect width="17" height="4.793" x=".5" y="12.672" fill="currentColor" rx=".513"/><g fill="currentColor"><rect width="2.488" height="2.488" x="4.174" y="9.308" rx=".203"/><rect width="2.488" height="2.488" x="7.891" y="9.308" rx=".203"/><rect width="2.488" height="2.488" x="11.608" y="9.308" rx=".203"/></g><g fill="currentColor"><rect width="2.488" height="2.488" x="6.033" y="13.746" rx=".203"/><rect width="2.488" height="2.488" x="9.75" y="13.746" rx=".203"/></g></svg>