<svg xmlns="http://www.w3.org/2000/svg" width="18" height="18" viewBox="0 0 18 18"><defs><mask id="a"><path fill="#fff" d="M0 0h18v18H0z"/><path d="m6.195 16.778-.662.663a.3.3 0 0 1-.424 0L.216 12.564a.6.6 0 0 1 0-.848l.66-.664 5.318 5.302a.3.3 0 0 1 0 .425"/><path d="m5.435 6.886.664.662a.3.3 0 0 1 0 .424l-5.225 5.24-.664-.663a.6.6 0 0 1-.001-.848L5.01 6.886a.3.3 0 0 1 .425 0"/><path d="m17.122 11.052.661.664a.6.6 0 0 1 0 .848l-4.893 4.879a.3.3 0 0 1-.424-.001l-.662-.664a.3.3 0 0 1 0-.424z"/><path d="m17.788 12.547-.663.662-5.225-5.24a.3.3 0 0 1 0-.424l.664-.662a.3.3 0 0 1 .424 0L17.79 11.7a.6.6 0 0 1-.002.848"/><circle cx="9.084" cy="2.209" r="1.738"/><circle cx="9.065" cy="12.106" r="1.738"/></mask></defs><path fill="currentColor" d="M7.85 13.342a1.738 1.738 0 1 0 2.436-2.479 1.7 1.7 0 0 0-.626-.389V3.009H8.548v7.444a1.73 1.73 0 0 0-.7 2.891z" mask="url(#a)"/></svg>