<svg height="18" viewBox="0 0 18 18" width="18" xmlns="http://www.w3.org/2000/svg" xmlns:xlink="http://www.w3.org/1999/xlink"><linearGradient id="a" gradientTransform="matrix(1 0 0 -1 0 791.516)" gradientUnits="userSpaceOnUse" x1="9.084" x2="9.084" y1="790.967" y2="787.492"><stop offset="0" stop-color="#50e6ff"/><stop offset="1" stop-color="#32bedd"/></linearGradient><linearGradient id="b" gradientUnits="userSpaceOnUse" x1="9.065" x2="9.065" y1="13.843" y2="10.368"><stop offset="0" stop-color="#5e9624"/><stop offset=".183" stop-color="#629c25"/><stop offset=".435" stop-color="#6dae2a"/><stop offset=".726" stop-color="#7fcb30"/><stop offset=".822" stop-color="#86d633"/></linearGradient><path d="m7.85 13.342a1.738 1.738 0 1 0 2.436-2.479 1.7 1.7 0 0 0 -.626-.389v-7.465h-1.112v7.444a1.73 1.73 0 0 0 -.7 2.891z" fill="#b3b3b3"/><circle cx="9.084" cy="2.209" fill="url(#a)" r="1.738"/><path d="m6.195 16.778-.662.663a.3.3 0 0 1 -.424 0l-4.893-4.877a.6.6 0 0 1 0-.848l.66-.664 5.318 5.302a.3.3 0 0 1 0 .425" fill="#50e6ff"/><path d="m5.435 6.886.664.662a.3.3 0 0 1 0 .424l-5.225 5.24-.664-.663a.6.6 0 0 1 -.001-.848l4.801-4.815a.3.3 0 0 1 .425 0" fill="#1490df"/><path d="m17.122 11.052.661.664a.6.6 0 0 1 0 .848l-4.893 4.879a.3.3 0 0 1 -.424-.001l-.662-.664a.3.3 0 0 1 0-.424z" fill="#50e6ff"/><path d="m17.788 12.547-.663.662-5.225-5.24a.3.3 0 0 1 0-.424l.664-.662a.3.3 0 0 1 .424 0l4.802 4.817a.6.6 0 0 1 -.002.848" fill="#1490df"/><circle cx="9.065" cy="12.106" fill="url(#b)" r="1.738"/></svg>