<svg xmlns="http://www.w3.org/2000/svg" xmlns:xlink="http://www.w3.org/1999/xlink" viewBox="0 0 128 128"><linearGradient id="b" x1="64.162" x2="64.162" y1="41.463" y2="86.973" gradientUnits="userSpaceOnUse"><stop offset="0" stop-color="#81b4e0"/><stop offset="1" stop-color="#0c5a94"/></linearGradient><linearGradient id="c" x1="66.09" x2="66.09" y1="2.127" y2="52.59" gradientUnits="userSpaceOnUse"><stop offset="0" stop-color="#f06b59"/><stop offset="1" stop-color="#df2227"/></linearGradient><linearGradient id="d" x1="17.165" x2="42.673" y1="108.382" y2="66.238" gradientUnits="userSpaceOnUse"><stop offset="0" stop-color="#388b41"/><stop offset="1" stop-color="#4cb749"/></linearGradient><linearGradient id="f" x1="102.615" x2="75.443" y1="112.865" y2="47.43" gradientUnits="userSpaceOnUse"><stop offset="0" stop-color="#e4b022"/><stop offset=".3" stop-color="#fcd209"/></linearGradient><linearGradient id="a"><stop offset="0" stop-opacity=".15"/><stop offset=".3" stop-opacity=".06"/><stop offset="1" stop-opacity=".03"/></linearGradient><linearGradient xlink:href="#a" id="g" x1="25.609" x2="25.609" y1="70.89" y2="26.528" gradientUnits="userSpaceOnUse"/><linearGradient xlink:href="#a" id="h" x1="86.842" x2="56.343" y1="85.216" y2="116.27" gradientUnits="userSpaceOnUse"/><linearGradient xlink:href="#a" id="i" x1="86.4" x2="90.837" y1="94.154" y2="50.344" gradientUnits="userSpaceOnUse"/><circle cx="64.149" cy="64.236" r="60.999" fill="#fff"/><path fill-opacity=".1" d="M102.966 75.327c0-21.439-17.379-38.819-38.817-38.819s-38.818 17.38-38.818 38.819h11.09c0-15.314 12.415-27.727 27.727-27.727s27.727 12.413 27.727 27.727"/><circle cx="66.922" cy="71.999" r="21.072" fill-opacity=".1"/><circle cx="64.149" cy="64.235" r="22.736" fill="url(#b)"/><path fill="url(#c)" d="M119.602 36.508C104.336 5.792 67.06-6.732 36.343 8.534A62.1 62.1 0 0 0 12.578 29.3l24.955 43.253c-4.597-14.606 3.521-30.174 18.127-34.77a27.7 27.7 0 0 1 7.935-1.274"/><path fill="url(#d)" d="M12.578 29.3c-19.1 28.492-11.486 67.071 17.005 86.171a62.13 62.13 0 0 0 29.575 10.319l26.063-44.363c-9.745 11.811-27.22 13.486-39.032 3.74a27.7 27.7 0 0 1-8.657-12.613"/><path fill="url(#f)" d="M59.158 125.791c34.204 2.585 64.027-23.047 66.613-57.25a62.1 62.1 0 0 0-6.17-32.031H63.595c15.312.07 27.67 12.541 27.598 27.854a27.73 27.73 0 0 1-5.972 17.064"/><path fill="url(#g)" d="m12.578 29.3 24.955 43.253a27.73 27.73 0 0 1 1.107-18.854L13.686 27.636"/><path fill="url(#h)" d="m59.158 125.791 26.063-44.363a27.73 27.73 0 0 1-16.082 9.426l-11.091 34.937"/><path fill="url(#i)" d="M119.602 36.508H63.595a27.73 27.73 0 0 1 21.626 10.537l35.491-8.873"/></svg>