<svg viewBox="0 0 128 128" xmlns="http://www.w3.org/2000/svg"><path d="m55.54 5.486-42.874 17.97-7.18 75.665 40.131 23.393 8.094-9.543 33.11 9.324 35.693-12.117-10.192-38.633 9.412-19.15-20.662-17.184v65.861h-74.142v-74.142h68.754l-3.159-21.444-15.654 13.987zm-27.61 22.444v72.142h72.142v-72.142zm47.894 8.19a14.129 14.129 0 0 1 10.803 4.218l-3.828 4.426a10.155 10.155 0 0 0 -7.012-3.096c-4.62 0-7.947 3.838-7.947 8.531v.086c0 4.693 3.254 8.606 7.947 8.606 3.133 0 5.047-1.218 7.205-3.205l3.828 3.863a13.97 13.97 0 0 1 -11.226 4.877 13.836 13.836 0 0 1 -14.044-14.067v-.074a13.909 13.909 0 0 1 14.274-14.165zm-39.254.45h11.215c6.534 0 10.496 3.878 10.496 9.473v.072c0 6.34-4.936 9.631-11.08 9.631h-4.533v8.217h-6.096zm6.098 5.438v8.375h4.703c3.011 0 4.78-1.792 4.78-4.145v-.074c0-2.706-1.877-4.156-4.876-4.156zm-6.121 44.738h27.43v4.572h-27.43z"/></svg>