<svg xmlns="http://www.w3.org/2000/svg" viewBox="0 0 1007.922 821.827"><defs><mask id="a" width="170" height="205.208" x="317.137" y="651.827" maskUnits="userSpaceOnUse"><path fill="currentColor" d="m402.137 736.827 60.104 60.104-60.104 60.104-60.104-60.104z"/></mask><mask id="b" width="205.208" height="205.208" x="837.922" y="95.835" maskUnits="userSpaceOnUse"><path fill="currentColor" d="M983.025 276.147 862.816 155.94l60.104-60.104 120.209 120.208z"/></mask><mask id="c" width="205.208" height="205.208" x="-35.208" y="299.482" maskUnits="userSpaceOnUse"><path fill="currentColor" d="M-35.208 419.69 85 299.482l60.104 60.104L24.896 479.794z"/></mask></defs><path fill="currentColor" d="m952.974 246.096 30.052 30.052-520.784 520.784-30.052-30.052z"/><g mask="url(#a)"><circle cx="402.137" cy="736.827" r="85" fill="currentColor"/></g><g mask="url(#b)"><circle cx="922.922" cy="216.043" r="85" fill="currentColor"/></g><path fill="currentColor" d="m372.085 766.88-30.052 30.051L24.896 479.794l30.052-30.052z"/><g mask="url(#c)"><circle cx="85" cy="419.69" r="85" fill="currentColor"/></g><rect width="288" height="576" x="164.378" y="319.982" fill="currentColor" rx="42.5" transform="rotate(-45 163.692 559.456)"/><rect width="288" height="864" x="469.848" y="74.159" fill="currentColor" rx="42.5" transform="rotate(45 750.47 438.164)"/></svg>