<svg viewBox="0 0 24 24" xmlns="http://www.w3.org/2000/svg"><path d="m10.445 21.393 11.54-.775.451.775zm-2.885-10.28-5.092 10.28h-.904zm10.427 2.652-6.43-9.505.452-.775zm2.57 5.216.627.896-10.652.707zm-15.902 1.995-1.143.09 4.709-9.488zm6.173-14.667.476-.998 5.984 8.782zm8.272 11.055.847 1.015-8.685 1.413zm-12.34 3.168-1.32.224 3.11-8.162zm3.406-12.189.472-1.207 5.558 6.732zm7.403 7.54 1.13 1.016-6.378 1.98zm-8.759 4.08-1.46.448 1.46-6.44zm.8-9.539.363-1.48 4.868 4.477zm-.348 9.402v-7.851l.244-1.085 6.864 3.926.834.758-6.864 3.926zm2.748-18.132-12.01 20.612h24z"/></svg>