<svg height="48" viewBox="0 0 48 48" width="48" xmlns="http://www.w3.org/2000/svg"><path d="m20.523 4c-5.587 0-9.036 1.618-12.523 3.632v37.291h-2v-37.866c0-.356.188-.684.494-.864 3.773-2.21 7.684-4.193 14.029-4.193 5.895 0 10.211 2.225 13.68 4.013l.301.154c.333.172.542.515.542.89v8.548h-2v-7.939c-3.388-1.745-7.239-3.666-12.523-3.666m10.428 20.485c-6.407 0-9.712-1.772-9.712-2.528s3.305-2.527 9.712-2.527 9.712 1.771 9.712 2.527-3.305 2.528-9.712 2.528m9.712.932c0 .756-3.305 2.527-9.712 2.527s-9.712-1.771-9.712-2.527v-.777c2.251 1.256 6.071 1.845 9.712 1.845s7.461-.589 9.712-1.845zm0 12.31c0 .755-3.305 2.527-9.712 2.527s-9.712-1.772-9.712-2.527v-9.627c2.251 1.254 6.071 1.844 9.712 1.844s7.461-.59 9.712-1.844zm0 3.669c0 .755-3.305 2.527-9.712 2.527s-9.712-1.772-9.712-2.527v-.987c2.251 1.255 6.071 1.845 9.712 1.845s7.461-.59 9.712-1.845zm-9.712-23.966c-5.641 0-11.712 1.417-11.712 4.527v19.439c0 3.11 6.071 4.527 11.712 4.527 5.64 0 11.712-1.417 11.712-4.527v-19.439c0-3.11-6.072-4.527-11.712-4.527" fill="#7aa116" fill-rule="evenodd"/></svg>