<svg height="18" viewBox="0 0 18 18" width="18" xmlns="http://www.w3.org/2000/svg" xmlns:xlink="http://www.w3.org/1999/xlink"><linearGradient id="a" gradientUnits="userSpaceOnUse" x1="9.252" x2="8.842" y1=".485" y2="16.966"><stop offset="0" stop-color="#ffd400"/><stop offset="1" stop-color="#ffbd02"/></linearGradient><linearGradient id="b"><stop offset="0" stop-color="#ccc"/><stop offset=".123" stop-color="#d7d7d7"/><stop offset="1" stop-color="#fcfcfc"/></linearGradient><linearGradient id="c" gradientUnits="userSpaceOnUse" x1="6.874" x2="6.86" xlink:href="#b" y1="11.261" y2="9.431"/><linearGradient id="d" gradientUnits="userSpaceOnUse" x1="9.524" x2="9.524" xlink:href="#b" y1="13.091" y2="11.45"/><radialGradient id="e" cx="8.998" cy="10.1097" gradientUnits="userSpaceOnUse" r="3.9276"><stop offset=".183" stop-color="#5ea0ef"/><stop offset="1" stop-color="#0078d4"/></radialGradient><path d="m17.579 3.283h-7.852a.4.4 0 0 1 -.233-.07l-2.243-1.492a.4.4 0 0 0 -.233-.071h-6.597a.42.42 0 0 0 -.421.42v13.86a.42.42 0 0 0 .421.42h17.158a.42.42 0 0 0 .421-.42v-12.23a.42.42 0 0 0 -.421-.417" fill="#dfa500"/><rect fill="#fff" height=".818" rx=".172" width="4.091" x="1.636" y="2.455"/><path d="m17.579 3.263h-8.623a.42.42 0 0 0 -.3.123l-1.384 1.387a.42.42 0 0 1 -.3.123h-6.551a.42.42 0 0 0 -.421.42v10.594a.42.42 0 0 0 .421.419h17.158a.42.42 0 0 0 .421-.419v-12.227a.42.42 0 0 0 -.421-.42" fill="url(#a)"/><path d="m12.343 8.16v3.913l-3.382 1.966v-3.919z" fill="#f78d1e"/><path d="m12.343 8.16-3.381 1.966-3.382-1.967 3.382-1.966z" fill="#ffb34d"/><path d="m8.961 10.126v3.913l-3.381-1.966v-3.913z" fill="#faa21d"/><path d="m17.579 3.283h-7.852a.4.4 0 0 1 -.233-.07l-2.243-1.492a.4.4 0 0 0 -.233-.071h-6.597a.42.42 0 0 0 -.421.42v13.86a.42.42 0 0 0 .421.42h17.158a.42.42 0 0 0 .421-.42v-12.23a.42.42 0 0 0 -.421-.417" fill="#dfa500"/><rect fill="#fff" height=".818" rx=".172" width="4.091" x="1.636" y="2.455"/><path d="m17.579 3.263h-8.623a.42.42 0 0 0 -.3.123l-1.384 1.387a.42.42 0 0 1 -.3.123h-6.551a.42.42 0 0 0 -.421.42v10.594a.42.42 0 0 0 .421.419h17.158a.42.42 0 0 0 .421-.419v-12.227a.42.42 0 0 0 -.421-.42" fill="url(#a)"/><path d="m11.407 13.216a3.928 3.928 0 1 1 -4.814-6.207l.04-.03a3.927 3.927 0 0 1 4.774 6.237" fill="url(#e)"/><circle cx="6.864" cy="9.965" fill="url(#c)" r="1.262"/><circle cx="9.524" cy="12.271" fill="url(#d)" r=".82"/><circle cx="11.394" cy="10.236" fill="#fff" r=".871"/><path d="m5.6 12.085a4 4 0 0 0 .288.426 4 4 0 0 0 .256.3 8.2 8.2 0 0 1 .5-1.6 1.25 1.25 0 0 1 -.658-.334 9 9 0 0 0 -.386 1.208m.84-3.308a5.5 5.5 0 0 1 -.318-1.361 4 4 0 0 0 -.509.674 6 6 0 0 0 .263 1.091 1.26 1.26 0 0 1 .564-.404m1.345 2.049a1.25 1.25 0 0 1 -.689.379 5.4 5.4 0 0 0 .67.594 5.7 5.7 0 0 0 .946.577 1 1 0 0 1 -.012-.106.82.82 0 0 1 .248-.586 5.6 5.6 0 0 1 -1.163-.858m2.557 1.394v.05a.82.82 0 0 1 -.234.573 6.4 6.4 0 0 0 1.576.113 4 4 0 0 0 .532-.621 6 6 0 0 1 -.6.033 5.5 5.5 0 0 1 -1.274-.148m.474-2.598a12 12 0 0 1 -1.507-1.309 6.3 6.3 0 0 1 2.741-.672 4 4 0 0 0 -.687-.668 6.7 6.7 0 0 0 -2.169.512c-.15.064-.283.159-.427.235l-.013-.015a8 8 0 0 1 -.917-1.35 4 4 0 0 0 -.5.194 8.3 8.3 0 0 0 .957 1.434 5.6 5.6 0 0 0 -.981.8 1.26 1.26 0 0 1 .622.509 5.4 5.4 0 0 1 .9-.7 12.7 12.7 0 0 0 1.7 1.488.86.86 0 0 1 .281-.458m1.893 1.124-.014-.008-.137-.074-.026-.014-.123-.068-.03-.017-.146-.083a.82.82 0 0 1 -.294.427l.173.1.039.022.161.089.015.009q.195.106.4.21a4 4 0 0 0 .131-.514z" fill="#f2f2f2" opacity=".55"/><g fill="#fff"><circle cx="6.864" cy="9.965" r="1.262"/><circle cx="9.524" cy="12.271" r=".82"/></g></svg>