<svg viewBox="0 0 24 24" xmlns="http://www.w3.org/2000/svg"><path d="m23.305 11.95c-1.014-1.134-2.772-1.242-3.927-.248l-.67.577a2.48 2.48 0 0 1 1.274 2.309 2.493 2.493 0 0 1 -2.403 2.35 2.488 2.488 0 0 1 -2.564-2.484c.067-1.745 1.41-2.484 2.517-2.484l-2.745-6.504c-.59-1.396-2.215-2.054-3.631-1.477-.296.128-1.101.463-1.55 1.484l-2.149 4.994-2.107-4.981c-.585-1.396-2.216-2.054-3.632-1.477-1.423.577-2.094 2.175-1.504 3.565l4.632 10.96c.59 1.397 2.215 2.055 3.631 1.477.437-.194 1.108-.53 1.55-1.483l2.149-4.994 2.108 4.987a2.756 2.756 0 0 0 1.644 1.53 2.83 2.83 0 0 0 2.806-.51l4.33-3.738a2.7 2.7 0 0 0 .241-3.853z"/></svg>