<svg height="64" viewBox="0 0 64 64" width="64" xmlns="http://www.w3.org/2000/svg"><g fill="none" fill-rule="evenodd"><path d="m0 0h64v64h-64z" fill="#8c4fff"/><path d="m35 41c-2.757 0-5-2.243-5-5s2.243-5 5-5 5 2.243 5 5-2.243 5-5 5m0-12c-3.859 0-7 3.14-7 7s3.141 7 7 7 7-3.14 7-7-3.141-7-7-7m14.71 19.919a1.14 1.14 0 0 1 -1.604.085l-5.563-5.019a11 11 0 0 0 1.481-1.714l5.601 5.045a1.14 1.14 0 0 1 .085 1.603m-23.71-12.919c0-4.962 4.037-9 9-9s9 4.038 9 9-4.037 9-9 9-9-4.038-9-9m19.033 4.488c.616-1.372.967-2.888.967-4.488 0-6.065-4.935-11-11-11s-11 4.935-11 11 4.935 11 11 11c2.191 0 4.23-.651 5.947-1.76l5.822 5.251a3.13 3.13 0 0 0 2.094.801c.859 0 1.714-.349 2.333-1.033a3.145 3.145 0 0 0 -.231-4.427zm7.967-23.488v26h-2v-25h-5v8h-2v-9a1 1 0 0 1 1-1h7a1 1 0 0 1 1 1m-13 33h2v3a1 1 0 0 1 -1 1h-7a1 1 0 0 1 -1-1v-4h2v3h5zm-5-28h-2v-10a1 1 0 0 1 1-1h7a1 1 0 0 1 1 1v11h-2v-10h-5zm-6 26h2v5a1 1 0 0 1 -1 1h-7a1 1 0 0 1 -1-1v-10h2v9h5zm-5-20h-2v-9a1 1 0 0 1 1-1h7a1 1 0 0 1 1 1v4h-2v-3h-5zm-11 24h5v-26h-5zm6-28h-7a1 1 0 0 0 -1 1v28a1 1 0 0 0 1 1h7a1 1 0 0 0 1-1v-28a1 1 0 0 0 -1-1" fill="#fff"/></g></svg>