<svg xmlns="http://www.w3.org/2000/svg" width="64" height="64" viewBox="0 0 64 64"><title>Icon-Architecture/48/Arch_AWS-AppSync_48</title><g id="Icon-Architecture/48/Arch_AWS-AppSync_48" fill="none" fill-rule="evenodd" stroke="none" stroke-width="1"><g id="Icon-Architecture-BG/48/Application-Integration" fill="#e7157b"><path id="Rectangle" d="M0 0h64v64H0z"/></g><g id="Icon-Service/48/AWS-AppSync" fill="#fff" transform="translate(11 12)"><path id="AWS-AppSync-Icon_48_Squid" d="M42.362 10.968 38.937 9.84c4.082 7.557 3.292 17.17-2.245 23.379C32.757 37.63 27.008 40 21.205 40c-3.157 0-6.331-.702-9.239-2.16l.913-1.779c7.441 3.732 16.82 1.98 22.3-4.163 5.008-5.613 5.63-14.718 1.734-21.558l-1.344 3.987-1.914-.631 2.017-5.984a1.01 1.01 0 0 1 1.276-.63L43 9.075zM5.817 28.19l.567-3.371 1.99.328-1.008 5.984a1 1 0 0 1-.475.69 1.01 1.01 0 0 1-.84.092L0 29.918l.638-1.892 3.413 1.124C.053 21.813.864 12.953 6.377 6.773c6.066-6.8 16.435-8.744 24.657-4.623l-.913 1.78C22.711.213 13.36 1.964 7.891 8.093 2.95 13.63 2.227 21.584 5.816 28.19m6.988-3.208c0-.897.74-1.627 1.646-1.627.908 0 1.646.73 1.646 1.627a1.64 1.64 0 0 1-1.646 1.63 1.64 1.64 0 0 1-1.646-1.63m7.85-8.814c.272.065.552.108.844.108.263 0 .519-.03.765-.082l2.964 6.023a3.6 3.6 0 0 0-1.167 1.768h-6.105a3.6 3.6 0 0 0-1.108-1.72zm.844-5.142c.908 0 1.647.73 1.647 1.628s-.739 1.627-1.647 1.627c-.906 0-1.645-.73-1.645-1.627 0-.898.739-1.628 1.645-1.628m7.714 13.956a1.64 1.64 0 0 1-1.647 1.63 1.64 1.64 0 0 1-1.646-1.63c0-.897.74-1.627 1.646-1.627.908 0 1.647.73 1.647 1.627m-11.257.998h6.105a3.65 3.65 0 0 0 3.505 2.626c2.02 0 3.665-1.626 3.665-3.624 0-1.997-1.644-3.622-3.665-3.622-.168 0-.33.027-.49.049l-3.032-6.16a3.58 3.58 0 0 0 1.119-2.595c0-1.998-1.643-3.623-3.664-3.623s-3.662 1.625-3.662 3.623c0 .99.405 1.885 1.056 2.539l-3.885 6.223a4 4 0 0 0-.557-.056c-2.02 0-3.663 1.625-3.663 3.622 0 1.998 1.643 3.624 3.663 3.624a3.65 3.65 0 0 0 3.505-2.626"/></g></g></svg>