<svg viewBox="0 0 24 24" xmlns="http://www.w3.org/2000/svg"><path d="m20.275 0a3.18 3.168 0 0 0 -3.18 3.169 3.18 3.168 0 0 0 3.18 3.168 3.18 3.168 0 0 0 3.18-3.168 3.18 3.168 0 0 0 -3.18-3.169zm-19.73.353v23.645h7.085l.01-16.894h2.395c4.066 0 6.099 1.602 6.099 4.806 0 3.41-2.068 5.115-6.204 5.115h-1.136v6.97s1.683.005 2.114.005c3.67 0 6.67-1.125 9-3.376 2.33-2.25 3.495-5.155 3.495-8.714 0-2.072-.423-3.903-1.268-5.493a3.803 3.803 0 0 1 -1.86.495c-.982 0-1.96-.403-2.654-1.096a3.782 3.782 0 0 1 -1.1-2.647c0-.533.12-1.063.34-1.548-1.948-.845-4.304-1.268-7.071-1.268z"/></svg>