<svg fill="#263c5c" viewBox="0 0 24 24" xmlns="http://www.w3.org/2000/svg"><path d="m20.275 0a3.18 3.168 0 0 0 -3.18 3.169 3.18 3.168 0 0 0 3.18 3.168 3.18 3.168 0 0 0 3.18-3.168 3.18 3.168 0 0 0 -3.18-3.169m-19.73.353v23.645h7.085l.01-16.894h2.395q6.099 0 6.099 4.806 0 5.115-6.204 5.115h-1.136v6.97s1.683.005 2.114.005q5.505 0 9-3.376t3.495-8.714q0-3.108-1.268-5.493a3.8 3.8 0 0 1 -1.86.495c-.982 0-1.96-.403-2.654-1.096a3.78 3.78 0 0 1 -1.1-2.647c0-.533.12-1.063.34-1.548q-2.921-1.268-7.071-1.268z"/></svg>