<svg viewBox="0 0 24 24" xmlns="http://www.w3.org/2000/svg"><path d="m16.59 9.348v5.304h.796v-5.304zm-8.497-.09c-1.55 0-2.752 1.127-2.752 2.742 0 1.687 1.202 2.742 2.752 2.742s2.754-1.055 2.751-2.742a2.72 2.72 0 0 0 -2.751-2.742zm1.957 2.742c0 1.195-.876 1.987-1.957 1.987-1.082 0-1.958-.792-1.958-1.987 0-1.174.876-1.987 1.958-1.987 1.08 0 1.957.813 1.957 1.987zm-10.05-2.824v5.476h.812v-3.619l4.218 3.79v-1.135zm11.442 2.824 2.952 2.652h1.184l-2.956-2.652 2.956-2.652h-1.184zm12.558 2.652h-.875l-.64-1.175h-2.898l-.64 1.175h-.875l1.06-1.958h2.937l-1.465-2.72.432-.798z"/></svg>