<svg xmlns="http://www.w3.org/2000/svg" width="64" height="64" viewBox="0 0 64 64"><title>Icon-Architecture/48/Arch_AWS-CodeArtifact_48</title><g id="Icon-Architecture/48/Arch_AWS-CodeArtifact_48" fill="none" fill-rule="evenodd" stroke="none" stroke-width="1"><g id="Icon-Architecture-BG/48/Developer-Tools" fill="#c925d1"><path id="Rectangle" d="M0 0h64v64H0z"/></g><g id="Icon-Service/48/AWS-CodeArtifact_48" fill="#fff" transform="translate(10 10)"><path id="AWS-CodeArtifact_Icon_48_Squid" d="M19.063 26.891 23.714 16.5l1.827.818-4.652 10.39zm6.582-3.25 2.593-1.892-2.286-2.318 1.424-1.405 3.1 3.145a1 1 0 0 1-.122 1.51l-3.529 2.575zm-6.686-4.121-2.632 1.922 2.293 2.319-1.422 1.406-3.111-3.144a1 1 0 0 1 .122-1.511l3.571-2.607zM17.715 1.722 2 11.014v17.862H0V10.443a1 1 0 0 1 .491-.861L16.698 0zM44 14.876v19.017c0 .358-.192.688-.501.867l-16.194 9.324-.998-1.733L42 33.315V14.876zM34 28.809l-11.561 6.574L11 28.68V15.397l11.429-6.571L34 15.533zm2 .582V14.957a1 1 0 0 0-.499-.865L22.933 6.806a1 1 0 0 0-1-.002L9.501 13.952a1 1 0 0 0-.501.867v14.434c0 .355.188.683.494.863l12.431 7.285a1.01 1.01 0 0 0 1 .006l12.569-7.147c.312-.178.506-.51.506-.869"/></g></g></svg>