<svg xmlns="http://www.w3.org/2000/svg" width="64" height="64" viewBox="0 0 64 64"><g fill="none" fill-rule="evenodd"><path fill="#c925d1" d="M0 0h64v64H0z"/><path fill="#fff" d="M29.063 36.891 33.714 26.5l1.827.818-4.652 10.39zm6.582-3.25 2.593-1.892-2.286-2.318 1.424-1.405 3.1 3.145a1 1 0 0 1-.122 1.51l-3.529 2.575zm-6.686-4.121-2.632 1.922 2.293 2.319-1.422 1.406-3.111-3.144a1 1 0 0 1 .122-1.511l3.571-2.607zm-1.244-17.798L12 21.014v17.862h-2V20.443a1 1 0 0 1 .491-.861L26.698 10zM54 24.876v19.017c0 .358-.192.688-.501.867l-16.194 9.324-.998-1.733L52 43.315V24.876zM44 38.809l-11.561 6.574L21 38.68V25.397l11.429-6.571L44 25.533zm2 .582V24.957a1 1 0 0 0-.499-.865l-12.568-7.286a1 1 0 0 0-1-.002l-12.432 7.148a1 1 0 0 0-.501.867v14.434c0 .355.188.683.494.863l12.431 7.285a1.01 1.01 0 0 0 1 .006l12.569-7.147c.312-.178.506-.51.506-.869"/></g></svg>