<svg height="64" viewBox="0 0 64 64" width="64" xmlns="http://www.w3.org/2000/svg"><g fill="none" fill-rule="evenodd"><path d="m0 0h64v64h-64z" fill="#c925d1"/><path d="m19.063 26.891 4.651-10.391 1.827.818-4.652 10.39zm6.582-3.25 2.593-1.892-2.286-2.318 1.424-1.405 3.1 3.145a1 1 0 0 1 -.122 1.51l-3.529 2.575zm-6.686-4.121-2.632 1.922 2.293 2.319-1.422 1.406-3.111-3.144a1 1 0 0 1 .122-1.511l3.571-2.607zm-1.244-17.798-15.715 9.292v17.862h-2v-18.433a1 1 0 0 1 .491-.861l16.207-9.582zm26.285 13.154v19.017c0 .358-.192.688-.501.867l-16.194 9.324-.998-1.733 15.693-9.036v-18.439zm-10 13.933-11.561 6.574-11.439-6.703v-13.283l11.429-6.571 11.571 6.707zm2 .582v-14.434a1 1 0 0 0 -.499-.865l-12.568-7.286a1 1 0 0 0 -1-.002l-12.432 7.148a1 1 0 0 0 -.501.867v14.434c0 .355.188.683.494.863l12.431 7.285a1.01 1.01 0 0 0 1 .006l12.569-7.147c.312-.178.506-.51.506-.869" fill="#fff" transform="translate(10 10)"/></g></svg>