<svg xmlns="http://www.w3.org/2000/svg" width="18" height="18" viewBox="0 0 18 18"><defs><mask id="a"><path fill="#fff" d="M0 0h18v18H0z"/><path d="m9.74 5.21-.38-.38-.36.38-.49-.49.84-.87.87.87zM5.13 9.05l-.49-.49 1.08-1.08.28.25-.25-.25.46.52zm2.52-3.48.49.5-1.06 1.06-.49-.49zM3.8 11.15l-.87-.87.87-.84.49.49-.38.35.38.38zm1.4.42 1.16 1.17-.5.49-1.16-1.16zM7.64 15l-.87-.87.53-.49.34.35.36-.32.49.49zM10 11.73l.5.49-1.11 1.06-.49-.49zm1.35-.37-.52-.49 1.08-1.08.49.49-1 1.08-.24-.24zm1.93-1.92L12.75 9zm0 0L12.75 9l.35-.39-.35-.34.49-.53.87.87zm-2.12-3.79 1.16 1.16-.5.5-1.16-1.16z"/></mask></defs><g fill="currentColor" mask="url(#a)"><path d="M17.33 3.09 15 .81a.6.6 0 0 0-.42-.17L10.36.8A.53.53 0 0 0 10 1L.67 10.22a.55.55 0 0 0 0 .8l6.2 6.17a.57.57 0 0 0 .8 0L17 7.92a.53.53 0 0 0 .17-.35l.34-4a.58.58 0 0 0-.18-.48M14.56 4.6a1 1 0 1 1 1-1 1 1 0 0 1-1 1"/><path d="M14.56 1.72a1.85 1.85 0 1 0 1.86 1.85 1.85 1.85 0 0 0-1.86-1.85m1 2.05a1 1 0 0 1-2-.4 1 1 0 0 1 .81-.81 1 1 0 0 1 1.21 1.21z"/></g></svg>