<svg height="18" viewBox="0 0 18 18" width="18" xmlns="http://www.w3.org/2000/svg" xmlns:xlink="http://www.w3.org/1999/xlink"><linearGradient id="a" gradientUnits="userSpaceOnUse" x1="13.41" x2="7" y1="14.43" y2="3.72"><stop offset="0" stop-color="#0078d4"/><stop offset=".16" stop-color="#1380da"/><stop offset=".53" stop-color="#3c91e5"/><stop offset=".82" stop-color="#559cec"/><stop offset="1" stop-color="#5ea0ef"/></linearGradient><path d="m17.33 3.09-2.33-2.28a.6.6 0 0 0 -.42-.17l-4.22.16a.53.53 0 0 0 -.36.2l-9.33 9.22a.55.55 0 0 0 0 .8l6.2 6.17a.57.57 0 0 0 .8 0l9.33-9.27a.53.53 0 0 0 .17-.35l.34-4a.58.58 0 0 0 -.18-.48m-2.77 1.51a1 1 0 1 1 1-1 1 1 0 0 1 -1 1" fill="url(#a)"/><path d="m14.56 1.72a1.85 1.85 0 1 0 1.86 1.85 1.85 1.85 0 0 0 -1.86-1.85m1 2.05a1 1 0 0 1 -2-.4 1 1 0 0 1 .81-.81 1 1 0 0 1 1.21 1.21z" fill="#005ba1"/><path d="m9.74 5.21-.38-.38-.36.38-.49-.49.84-.87.87.87zm-4.61 3.84-.49-.49 1.08-1.08.28.25-.25-.25.46.52zm2.52-3.48.49.5-1.06 1.06-.49-.49zm-3.85 5.58-.87-.87.87-.84.49.49-.38.35.38.38zm1.4.42 1.16 1.17-.5.49-1.16-1.16zm2.44 3.43-.87-.87.53-.49.34.35.36-.32.49.49zm2.36-3.27.5.49-1.11 1.06-.49-.49zm1.35-.37-.52-.49 1.08-1.08.49.49-1 1.08-.24-.24zm1.93-1.92-.53-.44zm0 0-.53-.44.35-.39-.35-.34.49-.53.87.87zm-2.12-3.79 1.16 1.16-.5.5-1.16-1.16z" fill="#fff"/></svg>