<svg viewBox="0 0 24 24" xmlns="http://www.w3.org/2000/svg"><path d="m23.111 4.6a.91.91 0 0 0 -.861.161 13.44 13.44 0 0 1 -14.303 4.136l-.567-2.066a1.076 1.076 0 0 0 -1.211-.698l.27 2.18c-1.816-.827-2.313-.946-3.587-2.45-.178-.134-1.589-1.391-1.962-1.263a11.9 11.9 0 0 0 5.892 6.497l.738 5.97s.33 2.286 2.473 2.286h4.586c2.144 0 2.474-2.286 2.474-2.286l.518-4.28c-1.393-.11-2.268.857-2.546 1.814-.465 1.614-.465 1.716-.557 1.998-.188.575-.806.644-.806.644h-2.753s-.617-.07-.806-.644c-.12-.371-.727-2.54-1.335-4.74a11.877 11.877 0 0 0 14.342-7.26v.001z" fill="#06aeef"/></svg>