<svg xmlns="http://www.w3.org/2000/svg" width="18" height="18" viewBox="0 0 18 18">
  <defs>
    <mask id="wko">
      <rect width="18" height="18" fill="white"/>
      <path fill="black" d="M12.719 4.742a.44.44 0 0 0-.289-.31 6.6 6.6 0 0 0-2.093-.339A7.3 7.3 0 0 0 4.072 7.8a.44.44 0 0 0-.006.449.45.45 0 0 0 .232.194l-.016.019a.43.43 0 0 0-.043.452.44.44 0 0 0 .265.222c-.028.029-.057.054-.084.084a.451.451 0 0 0 .587.678 2.33 2.33 0 0 1 1.508-.433 3.7 3.7 0 0 1 1.576.393.48.48 0 0 0 .56-.108l.021-.024.591-.647a.45.45 0 0 0 .109-.383l-.006-.021a.42.42 0 0 0 .284-.135l.323-.354.708-.776a.42.42 0 0 0 .071-.468c.013 0 .026.006.039.006a.44.44 0 0 0 .325-.144l.639-.7.864-.949a.44.44 0 0 0 .1-.413M8.986 8.825l-.612.67a.1.1 0 0 1-.076.033.1.1 0 0 1-.048-.011 4.1 4.1 0 0 0-1.735-.429 3.2 3.2 0 0 0-1.855.605.1.1 0 0 1-.044.015.078.078 0 0 1-.053-.132A3.7 3.7 0 0 1 7.3 8.292a3.7 3.7 0 0 1 1.667.415.077.077 0 0 1 .019.118M10.4 7.157 9.373 8.288a.05.05 0 0 1-.037.016L9.314 8.3a5.8 5.8 0 0 0-2.194-.5 3.56 3.56 0 0 0-2.454.962.06.06 0 0 1-.038.015.058.058 0 0 1-.047-.092 4.8 4.8 0 0 1 3.85-2.036 4.9 4.9 0 0 1 1.952.419.055.055 0 0 1 .017.089M12.341 4.9l-1.5 1.652a.06.06 0 0 1-.048.021h-.022a7.4 7.4 0 0 0-2.3-.4 5.02 5.02 0 0 0-3.96 1.9.072.072 0 0 1-.117-.083 6.97 6.97 0 0 1 5.943-3.521 6.2 6.2 0 0 1 1.975.32.07.07 0 0 1 .029.111"/>
      <path fill="black" d="M2.1 13.239v-.634a1.44 1.44 0 0 0 .751.211.72.72 0 0 0 .469-.139.47.47 0 0 0 .169-.38q0-.5-.722-.5a5 5 0 0 0-.614.04l.13-1.88H4.1v.606H2.862l-.048.675q.184-.015.319-.015a1.2 1.2 0 0 1 .83.273.95.95 0 0 1 .3.733 1.07 1.07 0 0 1-.357.833 1.4 1.4 0 0 1-.969.323 2.1 2.1 0 0 1-.837-.146m5.393-.139a2.5 2.5 0 0 1-1.252.284 1.83 1.83 0 0 1-1.308-.45 1.62 1.62 0 0 1-.479-1.234 1.7 1.7 0 0 1 .523-1.3 1.93 1.93 0 0 1 1.391-.5 2.9 2.9 0 0 1 .964.148v.712a1.94 1.94 0 0 0-.974-.226 1.05 1.05 0 0 0-.785.307 1.1 1.1 0 0 0-.3.818 1.1 1.1 0 0 0 .273.8.97.97 0 0 0 .735.284 1.05 1.05 0 0 0 .441-.077v-.658H6.03v-.606h1.463z"/>
    </mask>
  </defs>
  <g fill="currentColor" mask="url(#wko)">
    <path fill="currentColor" d="M13.943 15.325A4.09 4.09 0 0 0 18 11.382 4.04 4.04 0 0 0 14.489 7.5 5.1 5.1 0 0 0 9.24 2.622a5.23 5.23 0 0 0-5 3.407A4.83 4.83 0 0 0 0 10.671a4.9 4.9 0 0 0 5.07 4.706"/>
    <path fill="currentColor" d="M9.473 15.38v-4.775a4.745 4.745 0 0 0-4.828-4.592A4.78 4.78 0 0 0 0 10.788a4.886 4.886 0 0 0 4.738 4.592z"/>
  </g>
</svg>