<svg xmlns="http://www.w3.org/2000/svg" width="24" height="24">
  <defs>
    <mask id="ko">
      <rect width="24" height="24" fill="white"/>
      <path fill="black" d="M11 2h2v4h-2zM7 2h2v4H7zm8 0h2v4h-2z"/>
      <path fill="black" d="M11 18h2v4h-2zm-4 0h2v4H7zm8 0h2v4h-2zm3-5v-2h4v2zm0 4v-2h4v2zm0-8V7h4v2z"/>
      <path fill="black" d="M2 13v-2h4v2zm0 4v-2h4v2zm0-8V7h4v2z"/>
      <path fill="black" d="M5 5v14h14V5zm12 12H7V7h10z"/>
      <path fill="black" d="M9 15h6l-3-3z"/>
      <path fill="black" d="m12 12 3 3V9z"/>
    </mask>
  </defs>
  <g>
    <path fill="currentColor" mask="url(#ko)" d="M9 9h6v6H9z"/>
  </g>
</svg>