<svg xmlns="http://www.w3.org/2000/svg" width="24" height="24"><g data-name="Product Icons"><path d="M9 9h6v6H9z" fill="#aecbfa"/><path d="M11 2h2v4h-2zM7 2h2v4H7zm8 0h2v4h-2z" fill="#669df6"/><path d="M11 18h2v4h-2zm-4 0h2v4H7zm8 0h2v4h-2zm3-5v-2h4v2zm0 4v-2h4v2zm0-8V7h4v2z" fill="#4285f4"/><path d="M2 13v-2h4v2zm0 4v-2h4v2zm0-8V7h4v2z" fill="#669df6"/><path d="M5 5v14h14V5Zm12 12H7V7h10Z" fill="#aecbfa"/><path d="M9 15h6l-3-3z" fill="#669df6"/><path d="m12 12 3 3V9z" fill="#4285f4"/></g></svg>