<svg xmlns="http://www.w3.org/2000/svg" width="18" height="18" viewBox="0 0 18 18"><defs><mask id="a"><path fill="#fff" d="M0 0h18v18H0z"/><path d="M15.38 8.48c0 4.2-5.07 7.57-6.17 8.25a.4.4 0 0 1-.42 0c-1.1-.68-6.17-4.05-6.17-8.25v-5A.41.41 0 0 1 3 3c3.94-.11 3-1.83 6-1.83S11.05 2.93 15 3a.41.41 0 0 1 .39.4z"/><path d="M10.94 12.72c-1.07-.14-1-.83-1-1.94h-2c0 1.11 0 1.8-1 1.94a.56.56 0 0 0-.51.49h5.1a.56.56 0 0 0-.59-.49"/><path d="m10.53 6.57.01 1.89-1.66.96.01-1.9z"/><path d="m10.53 6.56-1.64.96-1.65-.96 1.64-.95z"/><path d="m8.89 7.52-.01 1.9-1.65-.96v-1.9z"/><path d="m8.89 7.51-.01.01v1.9l1.65-.96z"/><path d="M8.87 7.54h.01v1.9l-1.65-.95z"/><path d="M4.3 4.31h9.18v6.5H4.3z"/><path d="M4.83 4.82h8.11v5.39H4.83z"/></mask></defs><path fill="currentColor" d="M16 8.44c0 4.57-5.53 8.25-6.73 9a.43.43 0 0 1-.46 0C7.57 16.69 2 13 2 8.44v-5.5a.44.44 0 0 1 .43-.44C6.77 2.39 5.78.5 9 .5s2.23 1.89 6.53 2a.44.44 0 0 1 .43.44z" mask="url(#a)"/></svg>