<svg height="18" viewBox="0 0 18 18" width="18" xmlns="http://www.w3.org/2000/svg" xmlns:xlink="http://www.w3.org/1999/xlink"><linearGradient id="a" gradientUnits="userSpaceOnUse" x1="9" x2="9" y1="16.21" y2=".62"><stop offset="0" stop-color="#1b93eb"/><stop offset=".21" stop-color="#2095eb"/><stop offset=".44" stop-color="#2e9ced"/><stop offset=".69" stop-color="#45a7ef"/><stop offset=".95" stop-color="#64b6f1"/><stop offset="1" stop-color="#6bb9f2"/></linearGradient><path d="m16 8.44c0 4.57-5.53 8.25-6.73 9a.43.43 0 0 1 -.46 0c-1.24-.75-6.81-4.44-6.81-9v-5.5a.44.44 0 0 1 .43-.44c4.34-.11 3.35-2 6.57-2s2.23 1.89 6.53 2a.44.44 0 0 1 .43.44z" fill="#1b93eb"/><path d="m15.38 8.48c0 4.2-5.07 7.57-6.17 8.25a.4.4 0 0 1 -.42 0c-1.1-.68-6.17-4.05-6.17-8.25v-5a.41.41 0 0 1 .38-.48c3.94-.11 3-1.83 6-1.83s2.05 1.76 6 1.83a.41.41 0 0 1 .39.4z" fill="url(#a)"/><path d="m10.94 12.72c-1.07-.14-1-.83-1-1.94h-2c0 1.11 0 1.8-1 1.94a.56.56 0 0 0 -.51.49h5.1a.56.56 0 0 0 -.59-.49" fill="#1f56a3"/><rect fill="#1490df" height="6.5" rx=".31" width="9.18" x="4.3" y="4.31"/><rect fill="#fff" height="5.39" rx=".16" width="8.11" x="4.83" y="4.82"/><path d="m10.53 6.57.01 1.89-1.66.96.01-1.9z" fill="#0078d4"/><path d="m10.53 6.56-1.64.96-1.65-.96 1.64-.95z" fill="#83b9f9"/><path d="m8.89 7.52-.01 1.9-1.65-.96v-1.9z" fill="#5ea0ef"/><path d="m8.89 7.51-.01.01v1.9l1.65-.96z" fill="#5ea0ef" opacity=".2"/><path d="m8.87 7.54h.01v1.9l-1.65-.95z" fill="#83b9f9" opacity=".2"/></svg>