<svg viewBox="0 0 24 24" xmlns="http://www.w3.org/2000/svg"><path d="m24 4.328v15.344a4.33 4.33 0 0 1 -4.328 4.328h-15.344a4.33 4.33 0 0 1 -4.328-4.328v-15.344a4.33 4.33 0 0 1 4.328-4.328h15.344a4.33 4.33 0 0 1 4.328 4.328m-9.552 5.355v-6.623a.328.328 0 0 0 -.595-.19l-6.907 9.705a.328.328 0 0 0 .267.518h5.305a.328.328 0 0 0 0-.656h-4.67l5.944-8.35v5.596a.328.328 0 0 0 .656 0m-4.852 4.678v6.623a.328.328 0 0 0 .595.19l6.907-9.705a.328.328 0 0 0 -.267-.518h-5.305a.328.328 0 0 0 0 .656h4.669l-5.944 8.35v-5.596a.328.328 0 0 0 -.655 0"/></svg>