<svg height="48" viewBox="0 0 48 48" width="48" xmlns="http://www.w3.org/2000/svg"><path d="m33.131 4.082a2.504 2.504 0 0 0 -3.049 1.788 2.5 2.5 0 1 0 3.049-1.788m-11 6a2.504 2.504 0 0 0 -3.049 1.788 2.5 2.5 0 0 0 1.787 3.049 2.5 2.5 0 0 0 3.049-1.788 2.5 2.5 0 0 0 -1.787-3.05m-6.131 10.419c0-1.378-1.121-2.5-2.5-2.5a2.503 2.503 0 0 0 -2.5 2.5c0 1.379 1.121 2.5 2.5 2.5s2.5-1.121 2.5-2.5m-4-4.5v.277a4.5 4.5 0 0 1 1.5-.277c.728 0 1.404.19 2.014.498.211-.217.418-.434.634-.65.452-.451.909-.875 1.365-1.307a4.47 4.47 0 0 1 -.366-3.175c.033-.13.091-.242.135-.366h-5.282zm-3 15.5c0-1.378-1.121-2.5-2.5-2.5a2.503 2.503 0 0 0 -2.5 2.5c0 1.379 1.121 2.5 2.5 2.5s2.5-1.121 2.5-2.5m37.107-23.466-1.985.245c-.134-1.08-.513-1.94-1.129-2.553-1.212-1.214-3.432-1.484-6.292-.808.318.842.396 1.783.153 2.717a4.51 4.51 0 0 1 -4.355 3.365q-.564.001-1.134-.146a4.47 4.47 0 0 1 -2.852-2.313c-.171.104-.341.205-.513.312v.147h-.242a51 51 0 0 0 -2.246 1.51c.466.94.626 2.034.342 3.125a4.51 4.51 0 0 1 -4.355 3.365 4.48 4.48 0 0 1 -2.71-.913c-.409.39-.821.77-1.227 1.177-.171.17-.335.342-.503.514.582.759.941 1.695.941 2.722 0 2.482-2.018 4.5-4.5 4.5a4.44 4.44 0 0 1 -2.129-.56 52 52 0 0 0 -2.302 3.375 4.49 4.49 0 0 1 1.931 3.685c0 2.482-2.018 4.5-4.5 4.5-.398 0-.778-.068-1.146-.166-.862 3.146-.636 5.555.67 6.86.695.696 1.701 1.089 2.988 1.168l-.123 1.996c-1.789-.11-3.229-.698-4.279-1.75-1.926-1.925-2.269-5.11-1.048-9.228-.949-.825-1.562-2.026-1.562-3.38 0-2.481 2.019-4.5 4.5-4.5.391 0 .764.066 1.125.16l-.368-.226a53 53 0 0 1 2.601-3.812c-.031-.042-.067-.08-.096-.122h-3.762v-2h3.051c-.019-.166-.051-.328-.051-.5 0-.924.281-1.784.762-2.5h-3.762v-2h4v-3h-4v-2h4v-1a1 1 0 0 1 1-1v-4h2v4h3v-4h2v4h.701a4.5 4.5 0 0 1 2.299-.96v-3.04h2v3.282a4.5 4.5 0 0 1 1.257.666 54 54 0 0 1 1.743-1.198v-2.75h2v1.513l.018-.011c0-.376.029-.755.129-1.136a4.505 4.505 0 0 1 5.488-3.22 4.4 4.4 0 0 1 1.852 1.018c3.968-1.11 7.053-.72 8.92 1.147.939.938 1.51 2.19 1.7 3.723m-6.107 1.966h-2v27h-26v-1h-2v2a1 1 0 0 0 1 1v4h2v-4h3v4h2v-4h3v4h2v-4h3v4h2v-4h3v4h2v-4h3v4h2v-4h1a1 1 0 0 0 1-1h3v-2h-3v-3h3v-2h-3v-3h3v-2h-3v-3h3v-2h-3v-3h3v-2h-3v-3h3v-2h-3zm-22 16v4h13v-13h-3v-2h4a1 1 0 0 1 1 1v15a1 1 0 0 1 -1 1h-15a1 1 0 0 1 -1-1v-5z" fill="#ed7100" fill-rule="evenodd"/></svg>