<svg height="24" width="24" xmlns="http://www.w3.org/2000/svg"><path d="m0 0h24v24h-24z" fill="none"/><g fill-rule="evenodd"><path d="m20.9 13.5 1.9 1.5c.2.2.3.5.1.7l-2.2 3.9c-.1.2-.4.3-.7.2l-2.2-.9c-.8.6-1.7 1.1-2.6 1.5l-.3 2.4c0 .3-.3.5-.6.5h-4.6c-.3 0-.5-.2-.6-.5l-.3-2.4c-.9-.3-1.8-.9-2.6-1.5l-2.2.9c-.3.1-.5 0-.7-.2l-2.2-3.9c-.1-.3-.1-.6.2-.7l1.9-1.5q-.3-1.5 0-3l-1.9-1.5c-.3-.1-.3-.4-.2-.7l2.2-3.9c.1-.2.4-.3.7-.2l2.2.9q1.2-1.05 2.7-1.5l.3-2.4c0-.3.3-.5.6-.5h4.5c.3 0 .5.2.6.5l.3 2.4c.9.3 1.8.9 2.6 1.5l2.2-.9c.3-.1.5 0 .7.2l2.2 3.9c.1.3.1.6-.2.7l-1.9 1.5c.2 1 .2 2 .1 3m-12.3.9.6-1.2h4.9c.5 0 .9-.3 1.2-.7l2.5-4.6-1.1-.6-.7 1.3-1.8 3.3h-4.7l-.1-.2-2-5h-2.1v1.3h1.3l1.6 4.3-.9 1.6c-.1.2-.2.4-.2.6 0 .7.6 1.3 1.3 1.3h7.9v-1.3h-7.5c-.1.1-.2 0-.2-.1m.8 2c-.7 0-1.2.6-1.2 1.2s.6 1.2 1.2 1.2c.7 0 1.2-.6 1.2-1.2s-.6-1.2-1.2-1.2m5.4 0c-.7 0-1.2.6-1.2 1.2s.6 1.2 1.2 1.2c.7 0 1.2-.6 1.2-1.2s-.6-1.2-1.2-1.2m-2.8-11.9v3.3h3.3zm0 0-3.3 3.3h3.3zm0 3.3h-3.3l3.3 3.3zm3.3 0h-3.3v3.3z" fill="#5c85de"/><path d="m12 11.1 3.3-3.3-3.3-3.3v-3.7h2.2c.3 0 .5.2.6.5l.3 2.4c.9.3 1.8.9 2.6 1.5l2.2-.9c.3-.1.5 0 .7.2l2.2 3.9c.2.2.2.5-.1.6l-1.9 1.5q.3 1.5 0 3l1.9 1.5c.2.2.3.5.1.7l-2.2 3.9c-.1.2-.4.3-.7.2l-2.2-.9c-.8.6-1.7 1.1-2.6 1.5l-.3 2.4c0 .3-.3.5-.6.5h-2.2v-7.4h4.4v-1.3h-4.4v-1.3h2.1c.5 0 .9-.3 1.2-.7l2.5-4.6-1.1-.6-.7 1.3-1.8 3.3h-2.2zm2.8 5.3c-.7 0-1.2.6-1.2 1.2s.6 1.2 1.2 1.2c.7 0 1.2-.6 1.2-1.2s-.6-1.2-1.2-1.2" fill="#3367d6"/></g></svg>