<svg height="64" viewBox="0 0 64 64" width="64" xmlns="http://www.w3.org/2000/svg"><g fill="none" fill-rule="evenodd"><path d="m0 0h64v64h-64z" fill="#c925d1"/><path d="m33 52.146v-6.206h-2v6.207l-17-9.815v-19.636l5.563 3.212 1-1.732-5.558-3.209 16.995-9.812 16.98 9.804-5.523 3.22 1.008 1.727 5.535-3.226v19.651zm18.499-32.042-18.999-10.97a1 1 0 0 0 -1 0l-19 10.97a1 1 0 0 0 -.5.866v21.938c0 .358.19.688.5.866l19 10.97a1 1 0 0 0 .5.134 1 1 0 0 0 .5-.134l18.999-10.97c.31-.178.5-.508.5-.866v-21.938a1 1 0 0 0 -.5-.866m-18.499 21.024v-8.595l7-3.893v8.222zm-9-12.488 7 3.894v8.594l-7-4.266zm8-5.557 6.941 3.856-6.941 3.862-6.941-3.862zm9.485 2.982-9-5a1 1 0 0 0 -.97 0l-9 5a1 1 0 0 0 -.515.874v10.485c0 .348.182.672.479.854l9 5.485a1.01 1.01 0 0 0 1.042 0l9-5.485c.297-.182.479-.506.479-.854v-10.484a1 1 0 0 0 -.515-.874" fill="#fff"/></g></svg>