<svg viewBox="0 0 24 24" xmlns="http://www.w3.org/2000/svg"><path d="m11.98 14.013-2.632 5.729 6.813 3.058c-1.55-2.754-2.82-5.852-4.18-8.787zm11.033 4.645-6.736-14.594a3.952 3.952 0 0 1 -.387 1.471l-3.6 7.82 3.871 8.361a3.76 3.76 0 0 0 3.445 2.245 3.734 3.734 0 0 0 3.755-3.755c0-.542-.155-1.045-.348-1.548zm-7.278-14.903a3.734 3.734 0 0 0 -3.753-3.755c-1.472 0-2.712.852-3.332 2.052-2.531 5.53-5.106 11.075-7.662 16.606-.232.464-.348 1.006-.348 1.587a3.734 3.734 0 0 0 3.754 3.755 3.76 3.76 0 0 0 3.445-2.245l7.587-16.413c.193-.503.31-1.045.31-1.587z"/></svg>