<svg height="64" viewBox="0 0 64 64" width="64" xmlns="http://www.w3.org/2000/svg"><g fill="none" fill-rule="evenodd"><path d="m0 0h64v64h-64z" fill="#ed7100"/><path d="m21 38.434v-4.826l4-2.437 4 2.437v4.826l-4 2.4zm22-4.826v4.826l-4 2.4-4-2.4v-4.826l4-2.437zm6 6.774-4-2v-5.336a1 1 0 0 0 -.479-.854l-5-3.046a1.01 1.01 0 0 0 -1.042 0l-5 3.046a1 1 0 0 0 -.479.854v5.954c0 .35.185.677.485.858l5 3c.317.19.713.19 1.03 0l4.529-2.717 3.895 1.947-14.939 9.129v-7.217h-2v7.217l-14.938-9.13 3.894-1.946 4.529 2.717a1 1 0 0 0 1.03 0l5-3c.3-.181.485-.507.485-.858v-5.954a1 1 0 0 0 -.479-.854l-5-3.046a1.01 1.01 0 0 0 -1.042 0l-5 3.046a1 1 0 0 0 -.479.854v5.336l-4 2v-17.577l6.47 4.044 1.06-1.697-6.488-4.054 14.958-7.48v2.816l-4.515 2.709c-.3.18-.485.506-.485.857v6c0 .35.185.677.485.858l5 3c.317.19.713.19 1.03 0l5-3c.3-.181.485-.507.485-.858v-6c0-.351-.185-.676-.485-.857l-4.515-2.71v-2.813l14.857 7.428-7.342 4.079.97 1.748 7.515-4.175zm-17-22.216 4 2.4v4.868l-4 2.4-4-2.4v-4.867zm18.447 1.94-18-9a1 1 0 0 0 -.894 0l-18 9a1 1 0 0 0 -.553.894v21c0 .349.182.672.479.854l18 11a.99.99 0 0 0 1.042 0l18-11c.297-.182.479-.505.479-.854v-21a1 1 0 0 0 -.553-.894" fill="#fff"/></g></svg>