<svg xmlns="http://www.w3.org/2000/svg" width="2525" height="237" fill="none" viewBox="0 0 2525 237"><path fill="#24a0f6" d="M2239.67.888c-.54.4-.94 22.4-.94 48.667 0 26.266-.26 47.733-.66 47.733s-3.2-2.4-6.27-5.467c-7.87-7.6-21.47-15.333-31.73-18-10.27-2.666-30.8-3.066-41.34-.8-14.4 3.2-30.8 13.6-40.13 25.467-12.13 15.333-17.2 31.6-17.2 55.467 0 27.2 6.13 44.133 21.33 59.466 10.67 10.8 21.6 16.4 38.67 19.867 15.87 3.333 17.2 3.333 33.73-.133 15.34-3.067 27.6-8.8 36.8-17.2 3.2-2.934 6-5.334 6.27-5.334s.53 4.667.8 10.267l.4 10.4h16l.4-114.533c.27-90.8 0-114.8-1.33-115.734-2.14-1.2-13.6-1.466-14.8-.133m-51.2 88.4c35.33 5.733 55.06 44.8 43.6 86.4-6.67 24.4-21.2 37.733-45.2 41.733-11.6 2-23.2.267-34.67-5.2-35.07-16.266-42-78.533-12.13-108.4 12.66-12.8 29.2-17.733 48.4-14.533"/><path fill="#000" d="M827.935 15.155c-22.8 6.666-35.867 19.866-41.334 41.466-2.266 9.2-.933 28 2.667 36.267 4.267 9.867 14.933 19.467 28.667 25.867 6.133 2.8 12.133 5.2 13.2 5.2 1.2 0 2.4.533 2.8 1.066.4.667 4.8 2.267 9.733 3.6 13.6 3.734 34.533 12.134 41.067 16.667 12.8 8.8 18 18.533 18 33.6 0 10.667-2.267 16.8-8.8 23.733-6.934 7.334-14.8 11.2-27.867 13.467-17.067 2.933-47.733-.533-64-7.333-8.267-3.467-9.6-2.934-11.867 5.066-1.866 6.134-1.866 11.467 0 11.467.267 0 6.667 1.867 14.134 4 18.666 5.467 43.2 7.733 60.266 5.6 43.6-5.467 68.4-34.8 60.267-71.333-4.4-19.334-16-32-39.067-42.267-6.666-2.933-12.666-5.333-13.466-5.333-2.8 0-34.4-11.067-40.267-14.134-14.133-7.333-20.667-14.933-22.933-27.066-3.067-16.534 4.933-31.734 21.2-39.6 6.266-3.2 9.6-3.734 21.866-4.267 16.667-.667 26.667.933 41.467 6.533 5.733 2.134 10.933 3.867 11.6 3.867s2.8-4 4.667-8.8c4.266-10.4 3.733-11.6-6.4-14.533-23.867-6.934-57.334-8.134-75.6-2.8"/><path fill="#24a0f6" d="M1690.07 13.29c-26.67 4.266-43.34 16.933-49.87 38.133-4 12.8-4.53 20.4-2.27 30.266 2.8 11.734 6 17.734 13.07 24.4 9.73 9.2 18.4 13.6 43.33 21.734 30.94 10.133 42.67 15.866 50.4 24.533 13.6 14.933 13.2 39.067-.93 52.533-10.8 10.4-33.07 15.334-55.47 12.534-12.4-1.6-34.26-6.934-39.06-9.6-4.14-2.134-6.27.133-7.87 7.733-1.87 8.667-2 8.533 10.53 12.4 8.54 2.667 25.74 5.6 42.8 7.333 9.6.934 31.74-1.866 41.2-5.333 9.2-3.2 20.4-10 26-15.867 2.8-3.066 7.34-10 10-15.466 4.54-9.334 4.8-10.8 4.8-22.667-.13-10.533-.66-14-3.46-20.267-9.74-22.4-21.87-30.266-68.4-44.933-31.2-9.867-42.67-19.6-45.47-39.067-2.13-14.266 7.73-30.8 22-36.933 17.47-7.467 45.87-5.867 68.53 3.733 3.2 1.467 6.27 2.134 7.07 1.733 1.47-1.066 5.73-13.066 5.73-16.4 0-2.666-11.06-7.066-23.33-9.2-11.33-2-39.87-2.8-49.33-1.333"/><path fill="#000" d="M5.802 15.956c-1.6.666-3.467 2.4-4.267 3.866-2.133 4-2 209.734.133 211.867 2.4 2.4 16.4 2 18.934-.533 1.866-1.867 2.133-12.667 2.133-98.267l.133-96.267 22.8 46c12.4 25.334 31.334 63.467 41.734 84.8 10.8 22 20 39.2 21.333 39.734 3.067 1.066 18.267.933 20.267-.267 1.466-.933 15.866-29.333 63.6-125.467l22.133-44.533v96.667c0 73.333.4 96.933 1.6 98.133 2.133 2.133 17.333 2.133 19.467 0 1.2-1.2 1.6-26.533 1.6-105.867 0-100.666-.134-104.4-2.534-107.333s-3.466-3.2-16-3.2c-11.6 0-13.733.4-16 2.667-1.466 1.466-13.866 25.2-27.466 52.666-51.334 103.334-55.734 112.134-56.667 111.067-.533-.533-19.467-37.733-41.867-82.667-37.866-75.6-41.2-81.6-45.066-82.933-4.934-1.733-21.867-1.867-26-.133"/><path fill="#24a0f6" d="M2311.4 16.222c-4.93 2.666-7.33 6.933-7.33 12.8 0 4.666.8 6.533 4 9.866 3.73 3.6 4.8 4 10.27 3.334 3.33-.4 7.2-1.734 8.53-3.2 10.8-10.8-2.27-30.134-15.47-22.8M1823 30.888c-1.07 1.067-1.6 7.6-1.6 22v20.267l-12.27.4-12.4.4-.4 6.533c-.8 12.534-.53 12.8 13.07 12.8h11.87l.4 56.267c.4 56.267.4 56.4 3.6 63.467 8.8 19.6 34.93 27.866 59.2 18.666 4.13-1.6 4.4-2.8 1.46-12.666-2-6.934-2.4-7.334-5.6-6.534-11.46 2.534-19.86 2.4-25.73-.133-10.67-4.667-10.53-4.133-10.53-65.6V93.288h17.73c12 0 18.27-.533 19.33-1.6 1.6-1.6 2.14-12.666.8-16.266-.66-1.867-3.73-2.134-19.33-2.134h-18.53l-.27-21.733-.4-21.6-9.33-.4c-6.14-.267-9.87.133-11.07 1.333"/><path fill="#000" d="M498.735 73.155c-10.267 3.333-15.467 6.133-22.267 12.533-8.533 7.867-11.6 15.2-11.733 27.6 0 12.267 4.4 22.534 12.667 29.2 6.933 5.6 21.866 12.667 35.333 16.667 13.6 4 29.733 10.8 33.733 14.133 3.867 3.2 8.267 12.8 8.267 18.534 0 5.866-4.933 15.6-9.6 18.933-12.267 8.8-34.8 10.267-59.733 4-8.4-2.133-15.734-3.467-16.134-3.067-1.066 1.334-3.866 11.467-3.866 14 0 4.267 28 10.267 47.6 10.267 23.6 0 39.733-5.733 51.066-18.267 7.867-8.666 9.867-14.666 9.867-29.066-.133-8.134-.8-12-2.933-16.134-6-11.866-23.2-22.533-46.8-29.2-30.534-8.8-41.867-18.666-39.6-34.533 2.133-14.133 11.2-19.867 32.933-20.533 12.133-.534 16.4 0 28.533 3.066 7.867 2 14.8 3.067 15.334 2.4.533-.533 1.6-4 2.4-7.466 1.066-5.067.933-6.8-.534-8.267-6.133-6.133-50.4-9.467-64.533-4.8M665.402 73.289c-12.134 3.333-15.067 4.533-23.734 10.533-13.866 9.334-21.2 19.467-27.866 38.134-3.467 10-3.734 12-3.734 31.333 0 19.067.267 21.467 3.734 31.467 7.733 22.666 21.866 37.066 44 45.2 19.333 6.933 47.466 7.733 69.6 2 13.866-3.734 14.533-4.267 12.533-13.067-.933-3.733-2.267-7.067-3.067-7.333-.8-.4-6 .533-11.466 2-12.267 3.2-39.467 3.866-51.334 1.2-17.866-3.867-30.266-13.067-37.333-27.467-3.067-6.267-4-10.267-4.4-18.933l-.667-11.067h58c65.467 0 60.8.8 63.867-10.933 1.467-5.334 1.333-8.134-1.067-20.4-1.6-7.734-4.4-17.334-6.266-21.067-7.2-14.933-21.334-26.667-38.134-31.6-11.466-3.467-30.4-3.467-42.666 0m40.533 17.867c3.733 1.866 8 4.4 9.467 5.733 8 7.2 14.666 21.2 16.133 33.867l.8 7.466-14.267.8c-8 .534-30.666.934-50.4.934h-36l.8-7.2c2-19.734 21.067-40.534 41.067-44.8 9.467-2 24.667-.4 32.4 3.2M1020.74 73.822c-14.8 3.866-25.872 10.266-36.272 21.2-28.8 29.866-28.8 85.6-.266 116.266 9.066 9.6 18.268 15.334 32.268 20 18.27 6.134 48.53 5.867 62.93-.533l5.74-2.533-1.6-7.2c-1.74-8.134-2-8.134-18.14-5.334-17.33 3.067-39.46 1.067-51.6-4.666-14.265-6.534-25.865-25.867-28.665-47.734-4.533-35.333 11.6-64.666 39.605-72 10.26-2.666 35.73-2.666 47.2 0 4.8 1.2 9.06 1.6 9.6 1.067 1.46-1.733 3.6-13.333 2.66-14.933-.53-.8-6-2.534-12.13-4.134-15.87-3.733-35.47-3.6-51.33.534M1175.4 71.288c-.67.266-5.47 1.733-10.67 3.333-18.26 5.6-34.53 19.467-42.93 36.267-6.8 13.6-8.93 23.6-8.93 42.4 0 21.466 2.66 33.466 10.4 46.8 9.2 15.733 20.13 24.4 39.6 31.466 8.8 3.2 11.73 3.6 27.2 3.6 15.46 0 18.4-.4 27.2-3.6 13.73-4.933 20.93-9.466 29.6-18.4 7.73-8 14.66-20.533 18.13-32.533.93-3.733 2.13-12.933 2.67-20.667 2.93-52.533-29.74-89.6-78.4-89.2-6.94 0-13.07.267-13.87.534m38.4 22.4c14.4 6.533 26 21.733 30.4 39.6 2.27 9.333 2.27 30.4 0 40-4.53 18.8-16.67 34.266-31.47 40-11.6 4.666-33.73 4.666-45.33 0-9.47-3.6-20-13.2-25.07-22.267-8.53-15.867-11.06-39.867-6.26-57.6 6.26-22.267 17.33-35.333 35.33-41.867 10.53-3.733 32.13-2.666 42.4 2.134M1367.27 73.154c-15.87 4.534-30 15.6-35.6 27.734l-2.94 6.4-.66-16.667-.67-16.667h-17.33l-.4 78.534c-.27 62 0 78.8 1.33 79.733 2.67 1.6 16.4 1.2 18.13-.533 1.2-1.2 1.6-13.2 1.6-45.734 0-48.133.94-56.4 7.6-70 4.67-9.6 14.54-19.333 24.14-23.733 6.8-3.2 9.2-3.6 23.6-3.733 17.6-.134 17.6-.134 20-10.134.8-3.066.26-3.866-3.2-5.6-5.47-2.933-24.94-2.666-35.6.4M1480.07 73.689c-20.27 6.133-34.27 17.2-44.13 34.933-7.2 13.067-9.87 25.6-9.74 46 .14 24.933 5.74 41.467 18.54 56.133 9.73 11.067 28.4 20.534 46.53 23.734 16.27 2.933 42 1.066 57.87-4 6.8-2.267 8.26-3.334 8.26-5.6 0-2.934-2.93-12.267-4.13-13.467-.4-.4-5.47.533-11.2 2.133-8.4 2.267-14.67 2.8-29.33 2.8-16.94 0-19.74-.266-29.34-3.6-15.6-5.333-23.73-12-29.46-24.4-3.34-6.933-5.87-18.533-5.87-26.8v-4.266h115.6l2.93-3.2c4-4.267 4.94-12.4 2.8-26.4-3.86-27.467-20.66-47.6-45.33-54.267-13.6-3.867-30.67-3.6-44 .267m40.27 16.267c3.33 1.2 8.4 4.133 11.33 6.666 8.93 7.6 16.4 25.067 16.4 38.4v4.267l-50.13.533-50.27.4 1.07-6.4c2.66-18.267 16.66-37.067 32-43.067 11.46-4.4 27.86-4.8 39.6-.8"/><path fill="#24a0f6" d="M2436.07 71.821c-22 3.067-40 14.267-51.73 32.534-10 15.2-14.67 35.6-13.2 56.8 2.13 28 12.53 48.533 31.06 60.8 10 6.666 17.6 9.466 33.07 12.133 11.87 2 13.73 2 25.47 0 27.06-4.667 43.2-15.333 55.06-36.8 6.4-11.733 8.8-23.467 8.8-43.333 0-26.667-5.73-43.467-20.53-59.334-16.27-17.733-42.13-26.266-68-22.8m31.73 19.734c15.07 4.8 28 19.466 33.87 38.4 3.47 11.2 4 32 1.2 43.333-4.4 17.733-15.07 32-28.67 38.667-27.33 13.466-59.73 4.4-74.13-20.667-7.73-13.6-10.67-34.533-7.47-52.667 4.67-26.133 20.94-44.533 43.74-49.333 7.46-1.6 22.66-.533 31.46 2.267"/><path fill="#000" d="M288.335 73.022c-1.333.933-1.6 13.333-1.333 61.066l.4 59.867 5.2 9.733c11.466 21.6 32.933 32.8 62.8 32.8 32.8 0 55.2-13.2 64.533-38 2.667-6.8 2.8-10 2.8-66 0-66.4 1.067-60.533-11.333-60.533-12 0-11.334-3.733-11.334 59.733 0 62.267.134 60.934-9.866 72-9.334 10.267-27.467 15.334-44.934 12.4-16.266-2.666-25.6-8.933-32.4-22l-3.466-6.533v-55.2c0-35.6-.534-56.133-1.334-57.867-1.2-2.133-2.933-2.533-9.733-2.533-4.533 0-9.067.533-10 1.067"/><path fill="#24a0f6" d="m1925.67 132.888.4 59.734 4.27 8.666c10.93 22.267 33.6 34.667 63.06 34.667 13.6 0 29.34-3.333 38.54-8 9.46-4.8 18.53-14.267 23.73-25.067l5.07-10.133v-118.8l-10.27-.4-10.4-.4v53.067c0 63.6-.67 67.6-12.93 79.333-16.4 15.733-49.47 16.133-68 .533-2.14-1.733-5.6-6.4-7.74-10.4l-4-7.066-.66-57.334-.67-57.333-10.4-.4-10.4-.4zM2307.4 76.222c-.4.933-.53 36.267-.4 78.4l.4 76.667 9.2.4c6.53.266 9.6-.134 10.27-1.334 1.33-2 1.6-150.4.4-153.6-1.07-2.666-18.94-3.066-19.87-.533"/></svg>