<svg xmlns="http://www.w3.org/2000/svg" viewBox="0 0 437.5 500"><defs><mask id="a"><path fill="#fff" d="M0 0h437.5v500H0z"/><path d="m44.2 394.63 40.97-114.31h30.53l40.02 114.31h-27.1l-7.89-22.88H78.8l-7.73 22.88H44.21zm40.5-43.92h29.89l-12.2-39.93c-.43-1.43-.82-2.74-1.2-3.91a74 74 0 0 1-1.12-4.22h-.64c-.32 1.33-.67 2.63-1.04 3.91-.37 1.27-.8 2.66-1.28 4.15l-12.43 40.01z"/></mask></defs><g fill="currentColor" mask="url(#a)"><path d="M437.5 312.5v125c0 34.52-83.96 62.5-187.5 62.5S62.5 472.02 62.5 437.5v-125z"/><path fill-opacity=".7" d="M437.5 312.5v125c0 34.52-83.96 62.5-187.5 62.5S62.5 472.02 62.5 437.5v-125z"/><path d="M437.5 187.5v125c0 34.52-83.96 62.5-187.5 62.5S62.5 347.02 62.5 312.5v-125z"/><path fill-opacity=".3" d="M437.5 187.5v125c0 34.52-83.96 62.5-187.5 62.5S62.5 347.02 62.5 312.5v-125z"/><path d="M437.5 62.5v125c0 34.52-83.96 62.5-187.5 62.5S62.5 222.02 62.5 187.5v-125z"/><path fill-opacity=".4" d="M437.5 62.5v125c0 34.52-83.96 62.5-187.5 62.5S62.5 222.02 62.5 187.5v-125z"/><path d="M250 125C146.45 125 62.5 97.02 62.5 62.5S146.45 0 250 0s187.5 27.98 187.5 62.5S353.55 125 250 125"/><rect width="200" height="200" y="237.5" rx="40.62"/><rect width="200" height="200" y="237.5" fill-opacity=".5" rx="40.62"/></g></svg>