<svg viewBox="0 0 24 24" xmlns="http://www.w3.org/2000/svg"><path d="m15.526 4.678c-.02 1.605-.817 2.897-2.211 3.854-1.218.838-2.47 1.627-3.632 2.54-1.897 1.496-3.139 3.434-3.178 5.928-.042 2.711 1.175 4.797 3.434 6.274.042.027.09.05.13.075.2.123.364.306.22.524-.07.103-.327.154-.473.115-1.216-.298-2.385-.731-3.455-1.395-3.462-2.15-5.484-5.263-5.952-9.319-.663-5.806 2.784-11.184 8.274-12.92 1.356-.431 2.723-.526 4.073.042 1.723.72 2.826 2.381 2.77 4.282m8.146 9.265c-.027 1.07-.328 2.27-1.444 3.112-1.3.98-2.976.916-3.998-.149a2.8 2.8 0 0 1 -.645-1.08 2.9 2.9 0 0 1 -.12-1.255 2.9 2.9 0 0 1 .434-1.186 2.84 2.84 0 0 1 .897-.878q.21-.131.422-.253c1.167-.658 1.692-1.689 1.731-3.005a2 2 0 0 1 .09-.38c.13.055.28.083.388.17 1.434 1.126 2.245 2.815 2.245 4.904"/></svg>