<svg height="18" viewBox="0 0 18 18" width="18" xmlns="http://www.w3.org/2000/svg" xmlns:xlink="http://www.w3.org/1999/xlink"><linearGradient id="a" gradientUnits="userSpaceOnUse" x1="9.889" x2="9.889" y1="15.825" y2="1.04"><stop offset="0" stop-color="#0078d4"/><stop offset="1" stop-color="#5ea0ef"/></linearGradient><linearGradient id="b"><stop offset="0" stop-color="#32bedd"/><stop offset="1" stop-color="#9cebff"/></linearGradient><linearGradient id="c" gradientUnits="userSpaceOnUse" x1="13.087" x2="10.274" xlink:href="#b" y1="10.331" y2="8.427"/><linearGradient id="d" gradientUnits="userSpaceOnUse" x1="8.277" x2="8.277" xlink:href="#b" y1="12.08" y2="6.437"/><path d="m8.147.87a7.626 7.626 0 0 0 -2.734 13.853l.262-.658a.144.144 0 0 1 .25-.036l1.883 2.431a.15.15 0 0 1 -.024.207.14.14 0 0 1 -.071.031l-3.025.431a.146.146 0 0 1 -.164-.127.15.15 0 0 1 .009-.074l.383-.974a8.87 8.87 0 0 1 -3.942-5.36 7.76 7.76 0 0 1 5.423-9.468 7.5 7.5 0 0 1 1.75-.256" fill="#86d633"/><path d="m9.89 1.04a7.386 7.386 0 0 0 -5.341 12.495 7 7 0 0 0 .688.6l.084-.21a.53.53 0 0 1 .501-.334.53.53 0 0 1 .403.204l1.255 1.62a7.39 7.39 0 1 0 2.41-14.375" fill="url(#a)"/><path d="m13.114 6.437v3.751l-3.225 1.892v-3.762z" fill="url(#c)"/><path d="m13.114 6.437-3.214 1.892-3.235-1.892 3.235-1.881z" fill="#c3f1ff"/><path d="m9.889 8.329v3.751l-3.224-1.892v-3.751z" fill="url(#d)"/><path d="m7.748 3.809h-2.285a.55.55 0 0 0 -.548.548v2.294a.274.274 0 0 0 .274.274h.183a.274.274 0 0 0 .274-.275v-2.118h2.102a.274.274 0 0 0 .266-.274v-.175a.274.274 0 0 0 -.266-.274m0 8.466h-2.11v-2.102a.274.274 0 0 0 -.274-.274h-.175a.274.274 0 0 0 -.274.274v2.326a.55.55 0 0 0 .54.557h2.293a.283.283 0 0 0 .269-.296l-.003-.028v-.183a.274.274 0 0 0 -.266-.274m6.526-8.44h-2.252a.274.274 0 0 0 -.274.274v.174a.274.274 0 0 0 .248.298l.026.001h2.102v2.086a.274.274 0 0 0 .274.274h.192a.274.274 0 0 0 .274-.274v-2.285a.55.55 0 0 0 -.547-.55zm.282 6.081h-.174a.274.274 0 0 0 -.274.274v2.11h-2.086a.274.274 0 0 0 -.274.274v.183a.274.274 0 0 0 .274.274h2.285a.557.557 0 0 0 .557-.548v-2.293a.274.274 0 0 0 -.308-.274z" fill="#fff"/></svg>