<svg xmlns="http://www.w3.org/2000/svg" width="18" height="18" viewBox="0 0 18 18"><defs><mask id="a"><path fill="#fff" d="M0 0h18v18H0z"/><path d="M1.57 5.2a.79.79 0 0 1 .79-.79H6a.79.79 0 0 1 .79.79A.79.79 0 0 1 6 6H2.36a.79.79 0 0 1-.79-.79zm0-2.34a.79.79 0 0 1 .79-.8H6a.79.79 0 0 1 .79.8.79.79 0 0 1-.79.79H2.36a.79.79 0 0 1-.79-.79"/><path d="M15.79 10.63a.39.39 0 0 1-.42.35H8.94a.39.39 0 0 1-.42-.35V1.16a.39.39 0 0 1 .42-.35h6.43a.39.39 0 0 1 .42.35z"/><path d="M9.59 5.16a.79.79 0 0 1 .79-.79H14a.79.79 0 0 1 .79.79A.79.79 0 0 1 14 6h-3.62a.79.79 0 0 1-.79-.79zm0-2.35a.79.79 0 0 1 .79-.81H14a.8.8 0 0 1 .79.79.79.79 0 0 1-.79.81h-3.62a.79.79 0 0 1-.79-.79"/><path d="M9 16.84a.39.39 0 0 1-.42.35H2.14a.39.39 0 0 1-.42-.35V7.37A.39.39 0 0 1 2.14 7h6.43a.39.39 0 0 1 .43.37z"/><path d="M2.79 11.37a.79.79 0 0 1 .79-.79H7.2a.79.79 0 0 1 .79.79H8a.8.8 0 0 1-.79.79H3.58a.79.79 0 0 1-.79-.79m0-2.37a.79.79 0 0 1 .79-.79H7.2A.79.79 0 0 1 8 9a.8.8 0 0 1-.79.79H3.58A.79.79 0 0 1 2.79 9"/><path d="M17.5 13a2.77 2.77 0 0 0-2.41-2.66A3.49 3.49 0 0 0 11.5 7a3.58 3.58 0 0 0-3.43 2.33 3.31 3.31 0 0 0-2.91 3.18 3.37 3.37 0 0 0 3.48 3.23h5.93a.4.4 0 0 0 .15 0A2.8 2.8 0 0 0 17.5 13"/><circle cx="2.39" cy="2.86" r=".53"/><circle cx="2.39" cy="5.2" r=".53"/><circle cx="10.41" cy="2.81" r=".53"/><circle cx="10.41" cy="5.16" r=".53"/><circle cx="3.61" cy="9.02" r=".53"/><circle cx="3.61" cy="11.37" r=".53"/></mask></defs><path fill="currentColor" d="M7.77 10.68a.39.39 0 0 1-.42.34H.92a.39.39 0 0 1-.42-.34V1.2A.39.39 0 0 1 .92.86h6.43a.39.39 0 0 1 .42.34z" mask="url(#a)"/></svg>