<svg height="18" viewBox="0 0 18 18" width="18" xmlns="http://www.w3.org/2000/svg" xmlns:xlink="http://www.w3.org/1999/xlink"><linearGradient id="a" gradientUnits="userSpaceOnUse" x1="5.35" x2="5.35" y1="7.02" y2="17.19"><stop offset="0" stop-color="#b3b2b3"/><stop offset=".38" stop-color="#afaeaf"/><stop offset=".76" stop-color="#a2a2a2"/><stop offset="1" stop-color="#979797"/></linearGradient><linearGradient id="b" gradientUnits="userSpaceOnUse" x1="11.33" x2="11.33" y1="15.74" y2="6.99"><stop offset="0" stop-color="#0078d4"/><stop offset=".16" stop-color="#1380da"/><stop offset=".53" stop-color="#3c91e5"/><stop offset=".82" stop-color="#559cec"/><stop offset="1" stop-color="#5ea0ef"/></linearGradient><path d="m7.77 10.68a.39.39 0 0 1 -.42.34h-6.43a.39.39 0 0 1 -.42-.34v-9.48a.39.39 0 0 1 .42-.34h6.43a.39.39 0 0 1 .42.34z" fill="#949494"/><path d="m1.57 5.2a.79.79 0 0 1 .79-.79h3.64a.79.79 0 0 1 .79.79.79.79 0 0 1 -.79.8h-3.64a.79.79 0 0 1 -.79-.79zm0-2.34a.79.79 0 0 1 .79-.8h3.64a.79.79 0 0 1 .79.8.79.79 0 0 1 -.79.79h-3.64a.79.79 0 0 1 -.79-.79" fill="#003067"/><circle cx="2.39" cy="2.86" fill="#50e6ff" r=".53"/><circle cx="2.39" cy="5.2" fill="#50e6ff" r=".53"/><path d="m15.79 10.63a.39.39 0 0 1 -.42.35h-6.43a.39.39 0 0 1 -.42-.35v-9.47a.39.39 0 0 1 .42-.35h6.43a.39.39 0 0 1 .42.35z" fill="#949494"/><path d="m9.59 5.16a.79.79 0 0 1 .79-.79h3.62a.79.79 0 0 1 .79.79.79.79 0 0 1 -.79.84h-3.62a.79.79 0 0 1 -.79-.79zm0-2.35a.79.79 0 0 1 .79-.81h3.62a.8.8 0 0 1 .79.79.79.79 0 0 1 -.79.81h-3.62a.79.79 0 0 1 -.79-.79" fill="#003067"/><circle cx="10.41" cy="2.81" fill="#50e6ff" r=".53"/><circle cx="10.41" cy="5.16" fill="#50e6ff" r=".53"/><path d="m9 16.84a.39.39 0 0 1 -.42.35h-6.44a.39.39 0 0 1 -.42-.35v-9.47a.39.39 0 0 1 .42-.37h6.43a.39.39 0 0 1 .43.37z" fill="url(#a)"/><path d="m2.79 11.37a.79.79 0 0 1 .79-.79h3.62a.79.79 0 0 1 .79.79h.01a.8.8 0 0 1 -.79.79h-3.63a.79.79 0 0 1 -.79-.79m0-2.37a.79.79 0 0 1 .79-.79h3.62a.79.79 0 0 1 .8.79.8.8 0 0 1 -.79.79h-3.63a.79.79 0 0 1 -.79-.79" fill="#003067"/><circle cx="3.61" cy="9.02" fill="#50e6ff" r=".53"/><circle cx="3.61" cy="11.37" fill="#50e6ff" r=".53"/><path d="m17.5 13a2.77 2.77 0 0 0 -2.41-2.66 3.49 3.49 0 0 0 -3.59-3.34 3.58 3.58 0 0 0 -3.43 2.33 3.31 3.31 0 0 0 -2.91 3.18 3.37 3.37 0 0 0 3.48 3.23h5.93a.4.4 0 0 0 .15 0 2.8 2.8 0 0 0 2.78-2.74" fill="url(#b)"/></svg>