<svg xmlns="http://www.w3.org/2000/svg" xml:space="preserve" id="Layer_1" x="0" y="0" viewBox="0 0 193.2 58.2"><path d="M33.4 4.2c-1.9-3.4-4.9-3.4-6.8 0L.8 52c-1.9 3.4-.2 6.2 3.7 6.2h51.1c3.9 0 5.6-2.8 3.7-6.2zM79.3 53.9c-1.9 3.4-4.9 3.4-6.8 0L46.7 6.2C44.9 2.8 46.5 0 50.4 0h51c3.9 0 5.6 2.8 3.7 6.2zM190 25.7c3.3 1.9 3.3 5.1 0 7l-41.3 23.7c-3.3 1.9-6.1.3-6.1-3.5V5.5c0-3.9 2.8-5.5 6.1-3.5zM132.7 51.4c0 3.8-3.1 6.9-6.9 6.9h-6.1c-3.8 0-6.9-3.1-6.9-6.9V6.9c0-3.8 3.1-6.9 6.9-6.9h6.1c3.8 0 6.9 3.1 6.9 6.9zM187 54.7c0-1.8 1.3-3.2 3.1-3.2s3.1 1.3 3.1 3.1-1.3 3.2-3.1 3.2-3.1-1.3-3.1-3.1m5.7 0c0-1.5-1.1-2.6-2.5-2.6-1.5 0-2.5 1.1-2.5 2.6s1.1 2.6 2.5 2.6 2.5-1 2.5-2.6m-2 1.4-.7-.9h-.4v.8q0 .3-.3.3h-.1c-.2 0-.3-.1-.3-.4v-2.5c0-.3.1-.4.4-.4h1c.8 0 1.3.3 1.3 1 0 .5-.3.9-.9 1l.8 1s-.2.3-.4.3c-.1 0-.3 0-.4-.2m-1.1-1.5h.7c.4 0 .6-.2.6-.5s-.2-.5-.6-.5h-.6v1z" fill="#7826e7"/></svg>