<svg viewBox="0 0 24 24" xmlns="http://www.w3.org/2000/svg"><path d="m18.264 6.24c-2.52 0-5.376 3.024-6.264 3.984-.72-.792-3.696-3.984-6.264-3.984-3.168 0-5.736 2.592-5.736 5.76s2.568 5.76 5.736 5.76c2.52 0 5.376-3.024 6.264-3.984.72.792 3.696 3.984 6.264 3.984 3.168 0 5.736-2.592 5.736-5.76s-2.568-5.76-5.736-5.76zm-12.528 9.144a3.38 3.38 0 0 1 -3.384-3.384 3.395 3.395 0 0 1 3.384-3.384c1.176 0 3.24 1.8 4.68 3.384-.408.456-3.144 3.384-4.68 3.384zm12.528 0c-1.176 0-3.24-1.8-4.68-3.384.408-.456 3.168-3.384 4.68-3.384a3.38 3.38 0 0 1 3.384 3.384c-.024 1.872-1.536 3.384-3.384 3.384z"/></svg>