<svg height="40" viewBox="0 0 40 40" width="40" xmlns="http://www.w3.org/2000/svg"><g fill="none" fill-rule="evenodd"><path d="m0 0h40v40h-40z" fill="#c925d1"/><path d="m17 6.996c5.304 0 9 1.576 9 2.99 0 1.413-3.696 2.988-9 2.988s-9-1.574-9-2.989 3.696-2.989 9-2.989m-.353 26.008c-5.095 0-8.647-1.61-8.647-3.054v-4.434c1.729 1.436 5.446 2.254 9.081 2.254.885 0 1.776-.05 2.651-.147l-.111-.99c-.838.093-1.692.14-2.54.14-5.114.001-9.081-1.64-9.081-3.053v-5.182c1.729 1.436 5.446 2.254 9.081 2.254.903 0 1.796-.051 2.653-.149l-.115-.99a22 22 0 0 1 -2.538.142c-5.114 0-9.081-1.642-9.081-3.054v-4.95c1.729 1.424 5.442 2.18 9 2.18s7.271-.756 9-2.18v2.18h1v-3.986c0-2.588-5.152-3.985-10-3.985s-10 1.397-10 3.985v19.965c0 2.308 4.147 4.05 9.647 4.05 3.654 0 6.932-.813 8.557-2.12l-.629-.775c-1.432 1.152-4.545 1.899-7.928 1.899m13.612-12.059c.274 0 .516.11.682.309.334.4.238 1.027.214 1.149.009.912.554 1.108.616 1.127a.51.51 0 0 1 .361.49.494.494 0 0 1 -.372.473c-.051.016-.596.211-.596 1.216.011.566-.263 1.195-.89 1.214h-.814v-.996h.678a1 1 0 0 0 .026-.208c0-.852.28-1.383.586-1.708-.306-.324-.586-.852-.586-1.7.022-.156.025-.29.015-.37h-.719v-.996zm-2.393 0h.594v.996h-.459a1 1 0 0 0 -.026.21c0 .851-.281 1.382-.586 1.706.305.324.586.852.586 1.7-.022.156-.025.29-.015.37h.5v.996h-.579a.87.87 0 0 1 -.683-.309c-.334-.4-.238-1.027-.215-1.148-.008-.913-.553-1.109-.616-1.127a.51.51 0 0 1 -.36-.492.494.494 0 0 1 .372-.472c.051-.016.596-.211.596-1.216-.011-.566.262-1.195.891-1.214m3.134-1.993v-1.992h.229l1.771 1.848v.144zm2 9.964h-8v-11.956h5v2.49a.5.5 0 0 0 .5.499h2.5zm-1.196-12.798a.5.5 0 0 0 -.362-.155h-6.942a.5.5 0 0 0 -.5.499v12.952a.5.5 0 0 0 .5.498h9a.5.5 0 0 0 .5-.498v-10.805a.5.5 0 0 0 -.139-.344z" fill="#fff"/></g></svg>