<svg xmlns="http://www.w3.org/2000/svg" width="18" height="18" fill="none" viewBox="0 0 18 18"><path fill="currentColor" d="M17.038 1.065H.963a.55.55 0 0 0-.548.548v10.35c0 .304.245.549.548.549h16.075a.55.55 0 0 0 .548-.548V1.613a.55.55 0 0 0-.548-.548"/><path fill="currentColor" d="M12.443 15.975c-1.7-.265-1.764-1.49-1.759-3.463H7.316c0 1.973-.062 3.2-1.76 3.463a1 1 0 0 0-.846.96h8.59a1 1 0 0 0-.857-.96"/><path fill="currentColor" d="m4.044 6.353.347-.346 2.731 2.74a.157.157 0 0 1 0 .221l-.347.346a.157.157 0 0 1-.222 0l-2.51-2.518a.314.314 0 0 1 0-.444z"/><path fill="currentColor" d="m4.386 7.144-.346-.347a.314.314 0 0 1 0-.444l2.562-2.554a.157.157 0 0 1 .222 0l.346.347a.157.157 0 0 1 0 .222z"/><path fill="currentColor" d="m11.42 9.317-.347-.346a.157.157 0 0 1 0-.222l2.735-2.743.347.346a.314.314 0 0 1 0 .444l-2.513 2.521a.157.157 0 0 1-.223 0z"/><path fill="currentColor" d="m11.02 4.148.346-.347a.157.157 0 0 1 .222 0l2.562 2.554a.314.314 0 0 1 0 .444l-.346.347-2.781-2.774a.157.157 0 0 1-.003-.224m-.432-1.209-.554-.178a.11.11 0 0 0-.141.073l-2.26 7.057a.11.11 0 0 0 .073.141l.554.177a.11.11 0 0 0 .141-.072l2.26-7.057a.11.11 0 0 0-.073-.141"/></svg>