<svg xmlns="http://www.w3.org/2000/svg" width="24" height="24"><g data-name="Product Icons"><path d="M16 2h6v6h-6z" fill="#aecbfa"/><path d="M19 2h3v6h-3z" fill="#669df6"/><path d="M16 16h6v6h-6z" fill="#aecbfa"/><path d="M19 16h3v6h-3z" fill="#669df6"/><path d="M2 2h6v6H2z" fill="#aecbfa"/><path d="M5 2h3v6H5z" fill="#669df6"/><path d="M2 16h6v6H2z" fill="#aecbfa"/><path d="M5 16h3v6H5zM8 4h8v2H8zm0 14h8v2H8zM18 8h2v8h-2zM4 8h2v8H4z" fill="#669df6"/><path d="M4 8h2v2H4zm14 0h2v2h-2zM8 4h2v2H8zm0 14h2v2H8z" fill="#4285f4"/></g></svg>