<svg height="48" viewBox="0 0 48 48" width="48" xmlns="http://www.w3.org/2000/svg"><path d="m42 40c0 1.103-.897 2-2 2s-2-.897-2-2 .897-2 2-2 2 .897 2 2m-32-32c0 1.103-.897 2-2 2s-2-.897-2-2 .897-2 2-2 2 .897 2 2m30 36c-2.206 0-4-1.794-4-4s1.794-4 4-4 4 1.794 4 4-1.794 4-4 4m-16-24c2.206 0 4 1.794 4 4s-1.794 4-4 4-4-1.794-4-4 1.794-4 4-4m-16-8c-2.206 0-4-1.794-4-4s1.794-4 4-4 4 1.794 4 4-1.794 4-4 4m32 22c-2.967 0-5.432 2.167-5.91 5h-20.09c-3.859 0-7-3.14-7-7s3.141-7 7-7h4.09c.478 2.833 2.943 5 5.91 5s5.432-2.167 5.91-5h4.09c4.963 0 9-4.038 9-9s-4.037-9-9-9h-20.09c-.478-2.833-2.943-5-5.91-5-3.309 0-6 2.691-6 6s2.691 6 6 6c2.967 0 5.432-2.167 5.91-5h20.09c3.859 0 7 3.14 7 7s-3.141 7-7 7h-4.09c-.478-2.833-2.943-5-5.91-5s-5.432 2.167-5.91 5h-4.09c-4.963 0-9 4.038-9 9s4.037 9 9 9h20.09c.478 2.833 2.943 5 5.91 5 3.309 0 6-2.691 6-6s-2.691-6-6-6" fill="#8c4fff" fill-rule="evenodd"/></svg>