<svg viewBox="0 0 24 24" xmlns="http://www.w3.org/2000/svg" fill="#FFE01A"><path d="m23.978 12c0 6.617-5.373 12-11.978 12s-11.978-5.383-11.978-12 5.373-12 11.978-12c1.826 0 3.557.41 5.107 1.146l-1.99 2.567a8.787 8.787 0 0 0 -3.117-.568c-4.657 0-8.484 3.627-8.815 8.21a9.595 9.595 0 0 0 -.023.645c0 4.883 3.964 8.855 8.838 8.855s8.838-3.972 8.838-8.855c0-.652-.07-1.29-.205-1.902l2.309-2.979a11.948 11.948 0 0 1 1.036 4.881m-2.442-7.253-2.018 2.603-7.082 9.14-5.778-5.175 2.092-2.345 3.27 2.928 5.36-6.918 1.924-2.484a12.08 12.08 0 0 1 2.231 2.25"/></svg>