<svg viewBox="0 0 24 24" xmlns="http://www.w3.org/2000/svg" fill="#1E3A8A"><path d="m8.571 1.286a1.72 1.72 0 0 0 -1.714 1.714v10.286c0 .634.353 1.183.868 1.48.251.144.538.234.846.234h13.715a1.72 1.72 0 0 0 1.714-1.714v-10.286a1.72 1.72 0 0 0 -1.714-1.714zm-6.857 12a1.72 1.72 0 0 0 -1.714 1.714v6a1.72 1.72 0 0 0 1.714 1.714h8.572a1.715 1.715 0 0 0 1.473-.857c.148-.253.241-.544.241-.857v-4.286h-3.429c-.296 0-.582-.042-.857-.114a3.439 3.439 0 0 1 -2.571-3.314zm18 3.428h-6v4.286h4.286a1.72 1.72 0 0 0 1.714-1.714z"/></svg>