<svg xmlns="http://www.w3.org/2000/svg" id="Layer_1" viewBox="0 0 200.82 36.44"><path d="m38.1 0-4.65 23.33L28.22 0h-9.07l-5.23 23.33L9.26 0H0l7.55 35.63h10.79l5.27-23.66 5.28 23.66h10.54L46.94 0zM59.7 6.56c-5.75 0-9.79 1.95-11.26 3.33v7.6c1.71-1.52 5.32-3.75 10.07-3.75 2.95 0 4.04.81 4.04 2.47 0 1.43-1.52 2-5.75 2.9-6.41 1.33-10.12 3.66-10.12 9.22 0 5.13 3.37 8.12 8.27 8.12 4.1 0 6.55-1.9 7.89-4.46v3.65h8.84V18.16c0-8.03-4.18-11.59-11.97-11.59Zm-1.24 24.13c-2.09 0-3.23-1.28-3.23-3.04 0-2.28 1.81-3.18 4.09-3.99 1.19-.45 2.38-.91 3.18-1.61v3.94c0 2.99-1.57 4.7-4.04 4.7M76.09 0h9.17v35.63h-9.17zM123.17 6.65c-4.46 0-7.33 2.68-8.83 6.25-.8-3.82-3.48-6.25-7.23-6.25-4.24 0-7.01 2.48-8.41 5.95V7.46h-9.03v28.17h9.17V20c0-3.85 1.28-6.03 4.04-6.03 2.23 0 2.99 1.52 2.99 3.9v17.77h9.17V20.01c0-3.85 1.28-6.03 4.04-6.03 2.23 0 2.99 1.52 2.99 3.9v17.77h9.17V16.6c0-5.94-2.8-9.93-8.08-9.93ZM147.31 6.56c-5.75 0-9.79 1.95-11.26 3.33v7.6c1.71-1.52 5.32-3.75 10.07-3.75 2.95 0 4.04.81 4.04 2.47 0 1.43-1.52 2-5.75 2.9-6.41 1.33-10.12 3.66-10.12 9.22 0 5.13 3.37 8.12 8.27 8.12 4.1 0 6.55-1.9 7.89-4.46v3.65h8.84V18.16c0-8.03-4.18-11.59-11.97-11.59Zm-1.24 24.13c-2.09 0-3.23-1.28-3.23-3.04 0-2.28 1.81-3.18 4.09-3.99 1.19-.45 2.38-.91 3.18-1.61v3.94c0 2.99-1.57 4.7-4.04 4.7M172.73 15.38V7.46h-9.03v28.17h9.22V23.66c0-5.51 3.61-6.98 6.89-6.98 1.09 0 2.14.14 2.61.29v-9.7c-5.36-.25-8.49 3.03-9.69 8.11M200.82 14.59V7.46h-5.8V2h-9.17v24.23c0 6.79 3.8 9.98 9.93 9.98 2.85 0 4.37-.57 5.04-1v-7.08c-.52.38-1.38.67-2.47.67-2 .05-3.33-.86-3.33-3.85V14.59z"/></svg>