<svg viewBox="0 0 24 24" xmlns="http://www.w3.org/2000/svg"><path d="m6.075 10.494c1.525-1.048 3.693-1.735 6.147-1.735 2.453 0 4.622.687 6.147 1.735.77.53 1.352 1.133 1.74 1.77-.109-2.264-.109-2.264.578-2.902a9 9 0 0 0 -1.008-.8c-1.958-1.347-4.598-2.143-7.457-2.143s-5.499.796-7.457 2.144c-1.955 1.345-3.325 3.322-3.325 5.647s1.37 4.303 3.322 5.646c1.959 1.349 4.6 2.144 7.458 2.144s5.5-.795 7.457-2.144c1.953-1.343 3.323-3.318 3.323-5.646 0-1.48-.554-2.817-1.46-3.94-.046 1.036-.41 2.03-1.012 2.937.099.325.149.663.15 1.003 0 1.33-.782 2.664-2.313 3.717-1.524 1.048-3.692 1.735-6.146 1.735s-4.623-.687-6.147-1.735c-1.528-1.053-2.312-2.387-2.312-3.717.003-1.33.785-2.663 2.315-3.716" fill="#3762ff"/><path d="m3.747 11.494c-.62 1.77-.473 3.365.332 4.51.806 1.144 2.254 1.813 4.117 1.813 1.86 0 4.029-.68 6.021-2.1 1.993-1.42 3.35-3.251 3.967-5.017.62-1.769.473-3.364-.332-4.51-.806-1.143-2.254-1.812-4.117-1.812-1.86 0-4.029.68-6.021 2.099-1.993 1.42-3.35 3.252-3.967 5.017m-2.228-.79c.8-2.28 2.487-4.498 4.83-6.167 2.342-1.671 4.981-2.537 7.385-2.537 2.4 0 4.678.874 6.045 2.817s1.431 4.394.633 6.674c-.8 2.282-2.487 4.499-4.83 6.168s-4.981 2.536-7.387 2.537c-2.4 0-4.678-.874-6.045-2.817-1.368-1.943-1.431-4.396-.633-6.674z" fill="#1041f3"/></svg>