<svg xmlns="http://www.w3.org/2000/svg" viewBox="0 0 128 128"><defs><mask id="a"><path fill="#fff" d="M0 0h128v128H0z"/><path d="M39.676 35.259a7.695 7.695 0 0 0-7.578 6.331 1.144 1.144 0 0 1-1.084.939 6.07 6.07 0 0 0-5.872 6.08c0 3.001 2.157 5.485 4.998 6.049l-.02-.004a48 48 0 0 1 4.473 1.038l.014.005c5.517 1.485 16.585 3.612 28.638 3.205a1.14 1.14 0 0 1 1.106.733 6.85 6.85 0 0 0 2.84 3.394l.01.01a4.28 4.28 0 0 1 2.025 3.638 3.123 3.123 0 0 0 3.14 3.142c.952 0 1.757-.294 2.293-.747.536-.454.85-1.043.85-1.917l-.004-.805a11.04 11.04 0 0 1 1.27-5.924l.003-.004a6.8 6.8 0 0 0 .78-2.548 1.14 1.14 0 0 1 .861-.994 57 57 0 0 0 6.272-1.945 11.8 11.8 0 0 1 2.585-.67h.005a6.08 6.08 0 0 0 5.255-6.036 6.073 6.073 0 0 0-6.09-6.09c-1.088 0-2.1.285-2.986.784a1.1 1.1 0 0 1-.274.111l-.801.21a1.144 1.144 0 0 1-1.381-.762 8.06 8.06 0 0 0-7.687-5.629 8.046 8.046 0 0 0-8.022 8.876 1.144 1.144 0 0 1-2.225.476 7.32 7.32 0 0 0-6.957-5.042 7.32 7.32 0 0 0-6.977 5.094l-.037.023v.005l-.003-.004a1.144 1.144 0 0 1-1.235.758l-.028-.004a1.144 1.144 0 0 1-.894-1.507 7.692 7.692 0 0 0-7.267-10.266zm45.592 21.897a45 45 0 0 1-2.658.896c-.519.16-1.043.296-1.565.441 0 6 0 47.153-.005 54.473a1.9 1.9 0 0 1-.873 1.6c-.284.172-.64.374-1.067.597-.428.223-.93.467-1.504.72a31 31 0 0 1-1.954.78 37 37 0 0 1-2.414.777 44 44 0 0 1-4.512 1.025 51 51 0 0 1-3.62.5q-.968.1-2 .171a63 63 0 0 1-4.379.146 75 75 0 0 1-4.364-.12 69 69 0 0 1-1.997-.142 66 66 0 0 1-3.635-.41 59 59 0 0 1-1.64-.26 53 53 0 0 1-2.925-.586 45 45 0 0 1-2.464-.642 38 38 0 0 1-2.007-.645 31 31 0 0 1-1.562-.599A24 24 0 0 1 37 115.38a1.91 1.91 0 0 1-.957-1.656v-55.31a74 74 0 0 1-2.046-.513l-.014-.004a46 46 0 0 0-2.123-.547l-.177-.038.137 63.761a.78.78 0 0 0 .349.634c.268.154.626.333 1.08.525.453.195 1.002.405 1.651.621.651.216 1.402.44 2.26.664.86.221 1.825.443 2.902.655 1.079.212 2.268.416 3.579.6q1.962.28 4.288.49a105 105 0 0 0 5.034.332 133 133 0 0 0 5.813.122 108 108 0 0 0 5.898-.16 90 90 0 0 0 2.632-.189 79 79 0 0 0 2.428-.247 70 70 0 0 0 2.232-.3 62 62 0 0 0 2.036-.343 54 54 0 0 0 2.285-.473 45 45 0 0 0 2.003-.51 38 38 0 0 0 1.732-.528 31 31 0 0 0 1.472-.53q.671-.261 1.22-.512.55-.25.985-.48a13 13 0 0 0 .756-.432 8 8 0 0 0 .537-.364.8.8 0 0 0 .196-.256.7.7 0 0 0 .07-.313v-.005c.01-1.818.01-6.053.01-8.553a3.05 3.05 0 0 1 1.93-2.836 3.1 3.1 0 0 1 1.186-.216c2.089.028 4.599.032 6.986.028h.01a7.5 7.5 0 0 0 1.464-.14 7.46 7.46 0 0 0 5.442-4.452 7.5 7.5 0 0 0 .571-2.858V70.093a7.45 7.45 0 0 0-1.686-4.721 7.46 7.46 0 0 0-5.765-2.73h-7.084a3 3 0 0 1-1.701-.525 3.1 3.1 0 0 1-.826-.826 3 3 0 0 1-.526-1.7zm3.53 10.846h6.082a3.5 3.5 0 0 1 1.35.269 3.5 3.5 0 0 1 1.147.764 3.5 3.5 0 0 1 .765 1.147 3.5 3.5 0 0 1 .269 1.35v27.782a3.5 3.5 0 0 1-.268 1.35 3.5 3.5 0 0 1-.764 1.146h-.002a3.5 3.5 0 0 1-1.144.764 3.5 3.5 0 0 1-1.351.27h-6.084a3.5 3.5 0 0 1-1.351-.268 3.5 3.5 0 0 1-1.145-.765 3.5 3.5 0 0 1-.765-1.147 3.5 3.5 0 0 1-.268-1.35V71.532a3.5 3.5 0 0 1 .267-1.351 3.5 3.5 0 0 1 .764-1.146h.002a3.5 3.5 0 0 1 1.146-.765 3.5 3.5 0 0 1 1.35-.269z"/></mask></defs><g fill="currentColor" mask="url(#a)"><path d="M43.171 2.793c-.701 4.438 1.344 8.719 4.289 12.222 2.567 3.053 5.799 5.387 7.988 6.538-.052-4.604-.87-8.3-2.734-11.272-1.92-3.058-5.01-5.47-9.543-7.486zm19.76 5.838a19.8 19.8 0 0 0-3.535 4.598c-1.408 2.552-2.392 5.73-1.797 9.303a1.144 1.144 0 0 1-1.343 1.311c-2.253-.431-4.1-1.262-5.836-1.828-1.735-.567-3.323-.892-5.28-.507-5.68 1.117-10.19 4.36-12.902 12.023-.449 1.27-.708 2.59-.84 3.916 1.78-2.693 4.817-4.474 8.28-4.474 5.051 0 9.2 3.79 9.863 8.663 1.728-1.66 3.998-2.76 6.577-2.76 2.913 0 5.467 1.363 7.231 3.42 1.171-4.431 5.18-7.729 9.973-7.729 4.222 0 7.84 2.552 9.448 6.19a9 9 0 0 1 2.172-.739c-.076-7.241-1.956-10.21-3.527-12.602-1.603-2.237-5.672-5.905-10.339-6.053-2.256-.069-3.51.475-4.968 1.147-1.46.673-3.131 1.504-5.634 1.593a1.144 1.144 0 0 1-1.18-1.04c-.63-6.982 3.307-11.44 5.076-13.084-.14-.172-.128-.182-.31-.387-.376-.42-.753-.675-1.129-.961"/><path d="M36.042 58.416v55.313a1.91 1.91 0 0 0 .955 1.656c2.417 1.151 9.427 3.9 21.716 3.9 12.372 0 19.173-3.34 21.451-4.718a1.9 1.9 0 0 0 .873-1.599c.005-7.316.005-48.47.005-54.473-.456.128-.91.267-1.369.386a11 11 0 0 1-.345 1.356q-.213.661-.536 1.265l-.003.004a8.76 8.76 0 0 0-1.002 4.75l.004.093.002.806a4.8 4.8 0 0 1-.45 2.07 4.7 4.7 0 0 1-.522.87 4.6 4.6 0 0 1-.688.724 5 5 0 0 1-.817.563 5.5 5.5 0 0 1-.918.402 6 6 0 0 1-.99.24q-.511.081-1.044.081a5.4 5.4 0 0 1-3.027-.93 5.5 5.5 0 0 1-1.972-2.39 5.4 5.4 0 0 1-.427-2.108c0-.126-.028-.275-.074-.431a2.6 2.6 0 0 0-.204-.483 2.6 2.6 0 0 0-.3-.45 1.6 1.6 0 0 0-.368-.33l.014.008a9 9 0 0 1-1.058-.754 9 9 0 0 1-.933-.899 9 9 0 0 1-.798-1.023 10 10 0 0 1-.653-1.132c-1.508.038-2.998.038-4.461.01a104 104 0 0 1-4.304-.18 109 109 0 0 1-4.099-.334 112 112 0 0 1-7.384-.991 104 104 0 0 1-3.19-.59 91 91 0 0 1-2.788-.604l-.296-.075zm6.615 3.51a2.6 2.6 0 0 1 1.007.202 2.6 2.6 0 0 1 .853.57 2.6 2.6 0 0 1 .57.852 2.6 2.6 0 0 1 .202 1.007v45.748a2.6 2.6 0 0 1-.033.412 2.6 2.6 0 0 1-.096.402 2.6 2.6 0 0 1-.156.382 2.6 2.6 0 0 1-.218.352 3 3 0 0 1-.267.314 2.6 2.6 0 0 1-.314.268 2.6 2.6 0 0 1-.353.217 2.6 2.6 0 0 1-.382.156 2.6 2.6 0 0 1-.402.098 3 3 0 0 1-.41.032 2.6 2.6 0 0 1-1.01-.2 2.6 2.6 0 0 1-.852-.57 2.6 2.6 0 0 1-.57-.854 2.6 2.6 0 0 1-.2-1.007V64.56a2.6 2.6 0 0 1 .2-1.008 2.6 2.6 0 0 1 .57-.853 2.6 2.6 0 0 1 .854-.57 2.6 2.6 0 0 1 1.007-.2z"/><path d="M42.66 61.924a2.63 2.63 0 0 0-2.632 2.63v45.749a2.63 2.63 0 0 0 2.632 2.632 2.63 2.63 0 0 0 2.632-2.632V64.555a2.63 2.63 0 0 0-2.632-2.631"/></g></svg>