<svg height="48" viewBox="0 0 48 48" width="48" xmlns="http://www.w3.org/2000/svg"><path d="m40 9a1.001 1.001 0 0 0 -2 0 1.001 1.001 0 0 0 2 0m2 0c0 1.654-1.346 3-3 3s-3-1.346-3-3 1.346-3 3-3 3 1.346 3 3m1.992-.167c.069-1.283-.333-2.422-1.159-3.293-.929-.979-2.325-1.54-3.833-1.54-1.419 0-2.785.58-3.749 1.592-.861.904-1.304 2.056-1.246 3.245.116 2.397 3.099 6.405 4.928 8.568.472-.636 1.141-1.53 1.921-2.544l.496-.661c.697-.953 1.274-1.851 1.707-2.661l.297-.589c.39-.824.608-1.544.638-2.117m1.998.105c-.045.847-.319 1.792-.839 2.89l-.314.622-.011.021c-.477.896-1.106 1.878-1.87 2.92l-.51.679c-1.533 1.996-2.633 3.513-2.636 3.517a1 1 0 0 1 -.752.412l-.058.001c-.279 0-.547-.117-.737-.324-.619-.676-6.061-6.718-6.256-10.742-.084-1.741.554-3.417 1.796-4.722a7.2 7.2 0 0 1 5.197-2.212c2.054 0 3.979.789 5.283 2.163 1.214 1.279 1.804 2.931 1.707 4.775m-27.99 6.062h2.854c.249.71.492 2.408.492 3a1 1 0 0 0 1 1h11.654v-2h-10.715c-.13-1.386-.53-3.748-1.761-3.982a1 1 0 0 0 -.187-.018h-3.337zm24.592 4.592c.266.364.408.919.408 1.607v22.801h-39v-22.801c0-.574.1-1.351.576-1.796.335-.313.84-.448 1.578-.403h2.731a1 1 0 0 0 1-1c0-.512.388-2.305.69-3h1.425v-2h-1.842c-1.379 0-1.949 2.542-2.161 4.001l-1.775.001c-1.235-.089-2.267.243-3.012.94-.552.516-1.21 1.5-1.21 3.257v23.801a1 1 0 0 0 1 1h41a1 1 0 0 0 1-1v-23.801c0-1.133-.269-2.072-.797-2.791zm-9.592 17.908c0 1.378 1.121 2.5 2.5 2.5s2.5-1.122 2.5-2.5-1.121-2.5-2.5-2.5a2.503 2.503 0 0 0 -2.5 2.5m2.5-4.5c2.481 0 4.5 2.019 4.5 4.5s-2.019 4.5-4.5 4.5a4.505 4.505 0 0 1 -4.5-4.5c0-2.481 2.019-4.5 4.5-4.5m-14.126 3h4.071l-1.993-3.645zm-2.586 1.502a1 1 0 0 1 -.005-.998l3.819-6.695a1 1 0 0 1 .869-.504h.008a1 1 0 0 1 .869.52l3.661 6.695a1 1 0 0 1 -.877 1.48h-7.48a1 1 0 0 1 -.864-.498m-8.788 2.498h4v-4h-4zm6-5v6a1 1 0 0 1 -1 1h-6a1 1 0 0 1 -1-1v-6a1 1 0 0 1 1-1h6a1 1 0 0 1 1 1m1.292-16.717-2.293 2.314-2.291-2.312-1.42 1.408 3.001 3.029a1 1 0 0 0 1.42-.001l3.003-3.031zm-2.291-11.84 2.291 2.311 1.42-1.408-3.001-3.028c-.375-.379-1.045-.379-1.42 0l-3.003 3.03 1.42 1.408zm-1.001 10.557h2v-7h-2z" fill="#7aa116" fill-rule="evenodd"/></svg>