<svg height="18" viewBox="0 0 18 18" width="18" xmlns="http://www.w3.org/2000/svg" xmlns:xlink="http://www.w3.org/1999/xlink"><linearGradient id="a" gradientUnits="userSpaceOnUse" x1="9" x2="9" y1="5.38"><stop offset=".199" stop-color="#005ba1"/><stop offset="1" stop-color="#0078d4"/></linearGradient><linearGradient id="b" gradientUnits="userSpaceOnUse" x1="9" x2="9" y1="12.713" y2="5.287"><stop offset="0" stop-color="#198ab3"/><stop offset=".172" stop-color="#32bedd"/><stop offset=".5" stop-color="#50e6ff"/><stop offset=".5" stop-color="#4fe4fd"/><stop offset=".5" stop-color="#4bddf8"/><stop offset=".5" stop-color="#44d2ee"/><stop offset=".5" stop-color="#3ac1e0"/><stop offset=".5" stop-color="#2dabce"/><stop offset=".5" stop-color="#1d90b8"/><stop offset=".5" stop-color="#198ab3"/><stop offset=".662" stop-color="#32bedd"/><stop offset=".975" stop-color="#50e6ff"/></linearGradient><path d="m9 0-7.85 4.49v8.97l7.85 4.54 7.85-4.49v-9zm6.4 12.57-6.4 3.7-6.4-3.661v-7.229l6.4-3.7 6.4 3.71z" fill="#0078d4"/><path d="m9 0-7.85 4.49 1.45.89 6.4-3.7 6.4 3.7 1.45-.89z" fill="url(#a)"/><path d="m12.74 10.475a.73.73 0 0 0 -.323-.286 5.84 5.84 0 0 0 -4.478-3.346l6.477-3.743-1.506-.864-7.376 4.264a.75.75 0 0 0 .376 1.4 1 1 0 0 0 .09-.023l.125.523a4.32 4.32 0 0 1 4.837 2.238l-7.349 4.247 1.5.866 7.353-4.251a.7.7 0 0 0 .242-.236l.075-.018c-.007-.029-.018-.055-.025-.084a.74.74 0 0 0 -.018-.687" fill="#50e6ff"/><path d="m12.091 9.013a1.85 1.85 0 1 0 1.85 1.85 1.85 1.85 0 0 0 -1.85-1.85m-6.182-3.746a1.85 1.85 0 1 0 1.85 1.85 1.85 1.85 0 0 0 -1.85-1.85" fill="url(#b)"/></svg>