<svg height="64" viewBox="0 0 64 64" width="64" xmlns="http://www.w3.org/2000/svg"><g fill="none" fill-rule="evenodd"><path d="m0 0h64v64h-64z" fill="#ed7100"/><path d="m29.355 7.319-3.408-1.969 1-1.732 3.408 1.969zm-18.937 0-1-1.732 3.409-1.968 1 1.732zm27.582 9.943a51 51 0 0 0 -2.625-6.29l2.625 1.664zm-17.303 9.107a1 1 0 0 0 -1.395 0c-.217.21-5.302 5.23-5.302 11.217v.262c0 .046.01.092.011.138a10.3 10.3 0 0 1 -1.011-4.5c0-7.61 5.033-15.298 7-18.012 1.966 2.714 7 10.402 7 18.012 0 1.624-.362 3.165-1.013 4.502.001-.046.013-.093.013-.14v-.262c0-5.986-5.086-11.007-5.303-11.217m-10.54-8.077 1.785 1.142 1.078-1.685-2.073-1.326c2.967-6.586 7.339-11.965 9.053-13.938 1.717 1.975 6.099 7.362 9.066 13.962l-2.066 1.34 1.089 1.679 1.766-1.146c1.275 3.259 2.145 6.748 2.145 10.23 0 3.47-1.387 6.735-3.705 9.075.453-1.292.705-2.69.705-4.14 0-10.132-7.891-19.891-8.227-20.301-.379-.464-1.168-.464-1.547 0-.336.41-8.226 10.169-8.226 20.302 0 1.45.252 2.848.705 4.14-2.319-2.34-3.705-5.606-3.705-9.076 0-3.491.874-6.99 2.157-10.258m-8.157-5.657 2.625-1.662a51 51 0 0 0 -2.625 6.289zm38-.55c0-.342-.176-.662-.465-.845l-6.294-3.986a.999.999 0 0 0 -1.403 1.342c3.979 6.939 6.054 13.519 6.162 19.564v4.477l-6.062 3.496a15 15 0 0 0 2.062-7.583c0-3.914-.984-7.788-2.413-11.355l1.957-1.271-1.089-1.678-1.669 1.084c-3.811-8.365-9.697-14.647-10.061-15.032-.379-.397-1.072-.397-1.451 0-.364.384-6.244 6.66-10.055 15.02l-1.68-1.075-1.079 1.684 1.958 1.253c-1.432 3.57-2.418 7.45-2.418 11.37 0 2.735.751 5.362 2.08 7.618l-6.08-3.528v-4.48c.107-6.045 2.182-12.625 6.161-19.564a1.001 1.001 0 0 0 -1.403-1.342l-6.294 3.986a1 1 0 0 0 -.464.846l.005 21.13c0 .356.19.686.498.864l16.995 9.87 1.042-1.707c-1.222-.783-2.54-2.686-2.54-4.395v-.262c0-3.904 2.691-7.504 4-9.023 1.308 1.519 4 5.119 4 9.023v.262c0 1.617-1.366 3.578-2.641 4.395l1.04 1.708 17.095-9.87c.309-.178.5-.508.5-.865z" fill="#fff" transform="translate(12 10)"/></g></svg>