<svg xmlns="http://www.w3.org/2000/svg" width="64" height="64" viewBox="0 0 64 64"><title>Icon-Architecture/48/Arch_AWS-Thinkbox-Stoke_48</title><g id="Icon-Architecture/48/Arch_AWS-Thinkbox-Stoke_48" fill="none" fill-rule="evenodd" stroke="none" stroke-width="1"><g id="Icon-Architecture-BG/48/Compute" fill="#ed7100"><path id="Rectangle" d="M0 0h64v64H0z"/></g><g id="Icon-Service/48/AWS-ThinkBox-Stoke_48" fill="#fff" transform="translate(12 10)"><path id="AWS-ThinkBox-Stoke_48_Squid" d="M29.355 7.319 25.947 5.35l1-1.732 3.408 1.969zm-18.937 0-1-1.732 3.409-1.968 1 1.732zM38 17.262a51 51 0 0 0-2.625-6.29L38 12.636zm-17.303 9.107a1 1 0 0 0-1.395 0c-.217.21-5.302 5.23-5.302 11.217v.262c0 .046.01.092.011.138a10.3 10.3 0 0 1-1.011-4.5c0-7.61 5.033-15.298 7-18.012 1.966 2.714 7 10.402 7 18.012 0 1.624-.362 3.165-1.013 4.502.001-.046.013-.093.013-.14v-.262c0-5.986-5.086-11.007-5.303-11.217m-10.54-8.077 1.785 1.142 1.078-1.685-2.073-1.326C13.914 9.837 18.286 4.458 20 2.485c1.717 1.975 6.099 7.362 9.066 13.962L27 17.787l1.089 1.679 1.766-1.146C31.13 21.579 32 25.068 32 28.55c0 3.47-1.387 6.735-3.705 9.075.453-1.292.705-2.69.705-4.14 0-10.132-7.891-19.891-8.227-20.301-.379-.464-1.168-.464-1.547 0C18.89 13.594 11 23.353 11 33.486c0 1.45.252 2.848.705 4.14C9.386 35.286 8 32.02 8 28.55c0-3.491.874-6.99 2.157-10.258M2 12.635l2.625-1.662A51 51 0 0 0 2 17.262zm38-.55c0-.342-.176-.662-.465-.845l-6.294-3.986a.999.999 0 0 0-1.403 1.342C35.817 15.535 37.892 22.115 38 28.16v4.477l-6.062 3.496A15 15 0 0 0 34 28.55c0-3.914-.984-7.788-2.413-11.355l1.957-1.271-1.089-1.678-1.669 1.084C26.975 6.965 21.089.683 20.725.298c-.379-.397-1.072-.397-1.451 0-.364.384-6.244 6.66-10.055 15.02l-1.68-1.075-1.079 1.684 1.958 1.253C6.986 20.75 6 24.63 6 28.55c0 2.735.751 5.362 2.08 7.618L2 32.64v-4.48c.107-6.045 2.182-12.625 6.161-19.564a1.001 1.001 0 0 0-1.403-1.342L.464 11.24a1 1 0 0 0-.464.846l.005 21.13c0 .356.19.686.498.864l16.995 9.87 1.042-1.707C17.318 41.46 16 39.557 16 37.848v-.262c0-3.904 2.691-7.504 4-9.023 1.308 1.519 4 5.119 4 9.023v.262c0 1.617-1.366 3.578-2.641 4.395l1.04 1.708 17.095-9.87c.309-.178.5-.508.5-.865z"/></g></g></svg>