<svg xmlns="http://www.w3.org/2000/svg" width="100" height="14" viewBox="0 0 26.458 3.704"><path fill="currentColor" d="M.056.014C-.087.76.441 2.168 1.394 2.783a1 1 0 0 0 .168.088c.014.006.005.016-.002.02L.33 3.68c-.004.002-.014.01-.01.017.003.006.015.003.019.002.987-.347 1.703-.633 2.14-.84.445-.211.594-.332.578-.392-.016-.056-.18-.032-.316-.044a2 2 0 0 1-.472-.1C1.557 2.07.924 1.75.056.014m6.919 1.737-.797 1.67c-.12.23-.251.234-.251.234l-.012.013h.546l-.014-.013s-.152-.03-.055-.233l.143-.295h.683l.139.295c.096.203-.056.233-.056.233l-.012.013h.751l-.013-.013s-.138-.001-.25-.233zm5.744 0-.797 1.67c-.119.23-.25.234-.25.234l-.013.013h.545l-.012-.013s-.152-.03-.056-.233l.143-.295h.684l.138.295c.097.203-.055.233-.055.233l-.013.013h.752l-.013-.013s-.139-.001-.25-.233zm-7.511.063c-.662 0-1.077.408-1.077.956 0 .442.342.928 1.05.928.267 0 .578-.106.578-.106l.143-.489-.016.01s-.232.382-.663.382c-.392 0-.663-.257-.663-.727s.263-.776.677-.776a.64.64 0 0 1 .585.334l.01.009V1.94s-.258-.126-.624-.126m2.585.008-.001.364.013-.01s.098-.157.312-.157h.306v1.403c0 .216-.121.234-.121.234l-.013.013h.652l-.012-.013s-.122-.018-.122-.234L8.81 2.02h.299a.4.4 0 0 1 .318.157l.012.01.001-.364s-.03.021-.245.021H8.038c-.215 0-.245-.02-.245-.02m3.15.02.012.012s.122.015.122.23v.525h-.897v-.524c0-.216.123-.23.123-.23l.012-.013h-.652l.013.013s.121.014.121.23v1.336c0 .216-.121.234-.121.234l-.013.013h.652l-.012-.013s-.123-.018-.123-.234V2.79h.898v.633c0 .216-.122.234-.122.234l-.013.013h.653l-.013-.013s-.122-.018-.122-.234V2.086c0-.216.121-.231.121-.231l.013-.012zm2.416 0 .012.013s.11.018.252.233c.06.09.364.517.529.766v.567c0 .216-.122.234-.122.234l-.012.013h.652l-.013-.013s-.122-.018-.122-.234v-.567c.164-.249.47-.674.53-.765.141-.215.303-.234.303-.234l.013-.013h-.572l.012.013s.161.045.04.234c-.06.092-.239.35-.403.598-.164-.249-.34-.507-.4-.6-.121-.189.04-.232.04-.232l.012-.013zm-6.468.536.257.593h-.539zm5.744 0 .257.593h-.538zm5.286.592.281-.593.258.593zm1.167.45-.802-1.671-.797 1.67c-.12.23-.25.234-.25.234l-.013.013h.545l-.012-.013s-.153-.03-.056-.233l.144-.295h.682l.14.295c.096.203-.057.233-.057.233l-.012.013h.751l-.012-.013s-.139-.001-.25-.233m5.327-1.568.012-.011h-.651l.012.011s.122.019.122.234v1.337c0 .215-.122.233-.122.233l-.012.013h.651l-.012-.013s-.122-.018-.122-.233V2.088c0-.215.122-.234.122-.234m-4.064 1.641c-.392 0-.663-.257-.663-.727s.263-.776.678-.776a.64.64 0 0 1 .584.334l.01.009V1.94s-.257-.126-.624-.126c-.662 0-1.077.408-1.077.956 0 .441.343.928 1.05.928.268 0 .578-.106.578-.106l.143-.49-.015.011s-.232.382-.664.382m1.906-1.652.012.012s.121.018.121.233v1.337c0 .215-.121.233-.121.233l-.012.013h.651l-.012-.013s-.122-.018-.122-.233v-.647h.385c.215 0 .233.094.233.094l.012.013v-.392l-.012.012s-.018.094-.233.094h-.385v-.584h.463c.215 0 .304.124.304.124l.013.01v-.327s-.031.02-.246.02zm-.351.011.012-.011h-.652l.012.011s.122.019.122.234v1.337c0 .215-.121.233-.121.233l-.013.013h.652l-.012-.013s-.122-.018-.122-.233V2.088c0-.215.122-.234.122-.234m4.462 1.259s-.231.382-.664.382c-.391 0-.663-.257-.663-.727s.263-.776.678-.776a.64.64 0 0 1 .584.334l.01.009V1.94s-.258-.127-.623-.127c-.662 0-1.078.41-1.078.957 0 .441.343.928 1.05.928.268 0 .578-.106.578-.106l.144-.49zm-9.832-1.025v-.07h.085c.105 0 .214 0 .28.02q.257.079.258.39c0 .169-.107.42-.404.42a.6.6 0 0 1-.22-.055zm.347.935c.402 0 .642-.305.642-.6 0-.162-.06-.452-.467-.555a1.3 1.3 0 0 0-.325-.025h-.715l.012.011s.122.019.122.234v1.337c0 .215-.122.233-.122.233l-.012.013h.651l-.012-.013s-.121-.018-.121-.233v-.466a.9.9 0 0 0 .347.064"/></svg>