<svg xmlns="http://www.w3.org/2000/svg" id="svg8" width="100" height="14" viewBox="0 0 26.458 3.704"><g id="layer1"><g id="Page-1" fill="none" fill-rule="evenodd" stroke="none" stroke-width="1" transform="translate(.013 .013)scale(.15557)"><g id="cathaypacific-en-green" fill="#005d63" fill-rule="nonzero"><path id="Fill-4" d="M19.465 19.63c-.922 4.785 2.469 13.847 8.598 17.796h.002c.7.439 1.08.568 1.08.568.09.037.027.103-.018.131l-7.906 5.06c-.026.017-.087.064-.063.114.02.038.1.015.121.008 6.345-2.23 10.95-4.064 13.764-5.4 2.854-1.356 3.813-2.13 3.709-2.516-.099-.363-1.157-.208-2.03-.287a12.4 12.4 0 0 1-3.035-.641c-4.575-1.617-8.645-3.676-14.222-14.832m44.47 11.163-5.123 10.738c-.766 1.47-1.613 1.5-1.613 1.5l-.078.082h3.51l-.086-.082s-.98-.193-.356-1.5l.918-1.894H65.5l.89 1.894c.62 1.307-.357 1.5-.357 1.5l-.078.082h4.83l-.082-.082s-.89-.006-1.61-1.5zm36.924 0-5.12 10.738c-.767 1.47-1.612 1.5-1.612 1.5l-.08.082h3.504l-.076-.082s-.982-.193-.362-1.5l.92-1.894h4.393l.89 1.894c.625 1.307-.355 1.5-.355 1.5l-.08.082h4.828l-.08-.082s-.891-.006-1.611-1.5zm-48.28.406c-4.256 0-6.925 2.623-6.925 6.147 0 2.835 2.203 5.965 6.75 5.965 1.716 0 3.717-.682 3.717-.682l.92-3.145-.102.065s-1.49 2.455-4.263 2.455c-2.522 0-4.262-1.654-4.262-4.674 0-3.017 1.692-4.99 4.354-4.99 2.762 0 3.755 2.15 3.755 2.15l.067.057v-2.54s-1.655-.808-4.012-.808m16.616.053-.006 2.336.082-.06s.63-1.012 2.008-1.012h1.969v9.021c0 1.385-.78 1.504-.78 1.504l-.081.078h4.191l-.078-.078s-.785-.119-.785-1.504l.01-9.021h1.922a2.53 2.53 0 0 1 2.046 1.011l.08.06.006-2.335s-.194.133-1.578.133h-7.427c-1.384 0-1.579-.133-1.579-.133m20.246.13.079.077s.785.1.785 1.484c0 1.382.006 3.373.006 3.373h-5.768v-3.373c0-1.384.787-1.478.787-1.478l.076-.08h-4.19l.083.08s.781.094.781 1.478v8.594c0 1.385-.781 1.504-.781 1.504l-.082.078h4.19l-.077-.078s-.787-.119-.787-1.504v-4.07h5.768v4.07c0 1.385-.784 1.504-.784 1.504l-.08.078h4.194l-.08-.078s-.786-.119-.786-1.504l-.003-8.594c0-1.384.78-1.484.78-1.484l.083-.076zm15.536.003.078.08s.699.116 1.615 1.498c.384.584 2.344 3.325 3.4 4.926v3.648c0 1.385-.783 1.504-.783 1.504l-.078.078h4.19l-.08-.078s-.782-.119-.782-1.504c0-.584-.006-2.05-.006-3.648 1.056-1.6 3.02-4.333 3.406-4.918.91-1.381 1.952-1.506 1.952-1.506l.082-.08h-3.678l.08.08s1.036.289.256 1.506c-.384.59-1.536 2.246-2.588 3.843-1.056-1.597-2.193-3.26-2.574-3.851-.78-1.219.26-1.498.26-1.498l.077-.08zm-41.579 3.447 1.65 3.809h-3.46zm36.926 0 1.65 3.809h-3.46z" transform="translate(-19.186 -19.622)"/><path id="Fill-6" d="m115.113 19.018 1.808-3.808 1.653 3.808zm7.5 2.892-5.154-10.738-5.122 10.738c-.768 1.47-1.611 1.5-1.611 1.5l-.081.082h3.503l-.074-.082s-.984-.193-.363-1.5l.924-1.895h4.388l.893 1.895c.622 1.307-.36 1.5-.36 1.5l-.077.082h4.828l-.081-.082s-.89-.006-1.612-1.5"/><path id="Fill-8" d="m156.864 11.837.078-.076h-4.19l.077.076s.784.118.784 1.5v8.595c0 1.382-.784 1.497-.784 1.497l-.077.082h4.19l-.078-.082s-.784-.115-.784-1.497v-8.595c0-1.382.784-1.5.784-1.5"/><path id="Fill-10" d="M130.74 22.382c-2.521 0-4.26-1.654-4.26-4.674 0-3.017 1.69-4.99 4.356-4.99 2.757 0 3.754 2.151 3.754 2.151l.065.057v-2.54s-1.655-.81-4.01-.81c-4.255 0-6.925 2.624-6.925 6.148 0 2.835 2.204 5.964 6.751 5.964 1.718 0 3.716-.681 3.716-.681l.918-3.145-.1.066s-1.492 2.454-4.266 2.454"/><path id="Fill-12" d="m142.99 11.761.075.081s.783.116.783 1.498v8.592c0 1.382-.783 1.497-.783 1.497l-.075.082h4.187l-.08-.082s-.781-.115-.781-1.497v-4.158h2.473c1.38 0 1.495.606 1.495.606l.082.082v-2.523l-.082.081s-.115.603-1.495.603h-2.473V12.87h2.973c1.383 0 1.957.794 1.957.794l.082.062v-2.097s-.2.133-1.583.133z"/><path id="Fill-14" d="m140.735 11.837.078-.076h-4.193l.08.076s.784.118.784 1.5v8.595c0 1.382-.783 1.497-.783 1.497l-.081.082h4.193l-.078-.082s-.787-.115-.787-1.497v-8.595c0-1.382.787-1.5.787-1.5"/><path id="Fill-16" d="M169.414 19.928s-1.486 2.454-4.266 2.454c-2.516 0-4.262-1.654-4.262-4.674 0-3.017 1.693-4.99 4.356-4.99 2.764 0 3.757 2.151 3.757 2.151l.069.057v-2.54s-1.662-.813-4.013-.813c-4.253 0-6.926 2.627-6.926 6.15 0 2.836 2.204 5.965 6.754 5.965 1.715 0 3.713-.68 3.713-.68l.921-3.146z"/><path id="Fill-18" d="M106.214 13.337v-.453h.55c.674 0 1.373 0 1.792.138 1.105.328 1.664 1.172 1.664 2.5 0 1.085-.69 2.699-2.595 2.699-.55 0-1.124-.22-1.411-.35zm2.23 6.01c2.585 0 4.127-1.961 4.127-3.853 0-1.047-.387-2.91-3-3.57-.585-.15-1.234-.158-2.086-.158l-4.6-.005.078.076s.784.118.784 1.5v8.595c0 1.382-.784 1.497-.784 1.497l-.078.082h4.187l-.078-.082s-.78-.115-.78-1.497v-2.995c.365.162 1.102.41 2.23.41"/></g></g></g></svg>