<svg height="24" width="24" xmlns="http://www.w3.org/2000/svg"><path d="m0 0h24v24h-24z" fill="none"/><g fill-rule="evenodd"><path d="m.8 5.9 2.9-5.1h5.8l2.9 5.1-2.9 5h-5.8z" fill="#85a4e6"/><path d="m11.4 7.7-2.9-5.1 1-1.9 2.9 5.2z" fill="#5c85de"/><path d="m2.7 9.3h5.8l2-3.4.9 1.8-1.9 3.2-5.8.1z" fill="#3367d6"/><path d="m11.2 11.9 3-5.1h5.8l2.9 5.1-2.9 5h-5.8z" fill="#85a4e6"/><path d="m21.9 13.7-2.9-5.1 1-1.9 2.9 5.2z" fill="#5c85de"/><path d="m13.2 15.3h5.8l2-3.4.9 1.8-1.9 3.2-5.8.1z" fill="#3367d6"/><path d="m.8 17.9 2.9-5.1h5.8l2.9 5.1-2.9 5h-5.8z" fill="#85a4e6"/><path d="m11.4 19.7-2.9-5.1 1-1.9 2.9 5.2z" fill="#5c85de"/><path d="m2.7 21.3h5.8l2-3.4.9 1.8-1.9 3.2-5.8.1z" fill="#3367d6"/></g></svg>