<svg xmlns="http://www.w3.org/2000/svg" width="18" height="18" viewBox="0 0 18 18"><path fill="currentColor" d="M17.5 2.5v10.83a.58.58 0 0 1-.58.58H12.4a.15.15 0 0 0-.15.14v1.75a.28.28 0 0 1-.45.23l-2.72-2.09h-8a.58.58 0 0 1-.58-.58V2.5a.58.58 0 0 1 .58-.59h15.84a.58.58 0 0 1 .58.59"/><g fill="currentColor"><path d="M9.54 9.63H8.38A.36.36 0 0 1 8 9.29l-.2-5.86a.35.35 0 0 1 .35-.36h1.7a.35.35 0 0 1 .35.37L9.89 9.3a.35.35 0 0 1-.35.33"/><rect width="1.69" height="1.69" x="8.13" y="10.62" rx=".61"/></g></svg>