<svg height="18" viewBox="0 0 18 18" width="18" xmlns="http://www.w3.org/2000/svg" xmlns:xlink="http://www.w3.org/1999/xlink"><linearGradient id="a" gradientUnits="userSpaceOnUse" x1="9" x2="9" y1="17.2" y2="-3.28"><stop offset="0" stop-color="#5e9624"/><stop offset=".18" stop-color="#629c25"/><stop offset=".44" stop-color="#6dae2a"/><stop offset=".73" stop-color="#7fcb30"/><stop offset=".82" stop-color="#86d633"/></linearGradient><path d="m17.5 2.5v10.83a.58.58 0 0 1 -.58.58h-4.52a.15.15 0 0 0 -.15.14v1.75a.28.28 0 0 1 -.45.23l-2.72-2.09h-8a.58.58 0 0 1 -.58-.58v-10.86a.58.58 0 0 1 .58-.59h15.84a.58.58 0 0 1 .58.59" fill="url(#a)"/><g fill="#fff"><path d="m9.54 9.63h-1.16a.36.36 0 0 1 -.38-.34l-.2-5.86a.35.35 0 0 1 .35-.36h1.7a.35.35 0 0 1 .35.37l-.31 5.86a.35.35 0 0 1 -.35.33"/><rect height="1.69" rx=".61" width="1.69" x="8.13" y="10.62"/></g></svg>