<svg xmlns="http://www.w3.org/2000/svg" width="18" height="18" viewBox="0 0 18 18"><defs><mask id="a"><path fill="#fff" d="M0 0h18v18H0z"/><path d="M18 10.637a4.044 4.044 0 0 0-3.51-3.887 5.1 5.1 0 0 0-5.25-4.875 5.23 5.23 0 0 0-5 3.408A4.826 4.826 0 0 0 0 9.927a4.9 4.9 0 0 0 5.068 4.706q.226 0 .447-.019h8.207a.8.8 0 0 0 .217-.033A4.09 4.09 0 0 0 18 10.637"/><path d="M6.026 15.463a.32.32 0 0 1-.239-.1.33.33 0 0 1-.092-.246c.185-3.752 2.768-6.166 5.747-6.166s5.569 2.414 5.749 6.166a.33.33 0 0 1-.092.246.32.32 0 0 1-.239.1z"/><path d="M14.55 11.02a4.65 4.65 0 0 0-2.777-1.185V12a2.6 2.6 0 0 1 1.291.551z"/><path d="m8.335 11.02 1.486 1.528A2.6 2.6 0 0 1 11.112 12V9.835a4.65 4.65 0 0 0-2.777 1.185"/><path d="M13.532 13.029a2.75 2.75 0 0 1 .535 1.327h2.1a4.93 4.93 0 0 0-1.149-2.856z"/><path d="M9.354 13.029 7.867 11.5a4.93 4.93 0 0 0-1.153 2.855h2.1a2.75 2.75 0 0 1 .54-1.326m5.956-.474a.33.33 0 0 0-.428-.188l-3.1 1.236.241.616 3.1-1.235a.33.33 0 0 0 .187-.429"/><circle cx="11.442" cy="14.049" r=".904"/></mask></defs><path fill="currentColor" d="M11.442 8.286c3.862 0 6.221 2.874 6.41 6.8a.994.994 0 0 1-.992 1.043H6.026a1 1 0 0 1-.992-1.044c.193-3.925 2.553-6.799 6.408-6.799" mask="url(#a)"/></svg>