<svg viewBox="0 0 24 24" xmlns="http://www.w3.org/2000/svg"><path d="m12 0c-5.3 0-9.6 4.3-9.6 9.6v11.146c0 1.772 1.45 3.267 3.222 3.254a3.18 3.18 0 0 0 1.955-.686 1.96 1.96 0 0 1 2.444 0 3.18 3.18 0 0 0 1.976.686c.75 0 1.436-.257 1.98-.686.715-.563 1.71-.587 2.419-.018.59.476 1.355.743 2.182.699 1.705-.094 3.022-1.537 3.022-3.244v-11.15c0-5.301-4.298-9.601-9.6-9.601m-5.931 6.562a1 1 0 0 1 .46.131l3.578 2.065v.002a.974.974 0 0 1 0 1.687l-3.577 2.065a.975.975 0 0 1 -.976-1.687l2.116-1.223-2.117-1.222a.975.975 0 0 1 .515-1.818m7.438 2.063h4.7a.975.975 0 1 1 0 1.95h-4.7a.975.975 0 0 1 0-1.95"/></svg>