<svg viewBox="0 0 24 24" xmlns="http://www.w3.org/2000/svg" fill="#FAD83B"><path d="m21.0092 4.6236-7.1548-4.119c-1.1652-.6728-2.5929-.6728-3.7416 0l-1.8708 1.0831v10.4205c0 1.3292.7057 2.5764 1.8708 3.2492.5744.3282 1.2308.5088 1.8708.5088s1.2964-.1641 1.8708-.5088c1.165-.6728 1.8707-1.9036 1.8707-3.2492 0-1.3292-.7056-2.5764-1.8707-3.2492-.5744-.3282-1.2308-.5087-1.8708-.5087v-2.3467c.64 0 1.2964.164 1.8708.5087l2.0348 1.1815c1.1652.6729 1.8708 1.9036 1.8708 3.2493v2.3466c0 1.3293-.7056 2.5765-1.8708 3.2493l-2.0348 1.1815c-.5744.3282-1.2308.5087-1.8708.5087s-1.2964-.164-1.8708-.5087l-2.0348-1.1815c-1.165-.6728-1.8707-1.9036-1.8707-3.2492v-10.437l-3.2329 1.8708c-1.1652.6728-1.8708 1.9036-1.8708 3.2492v8.2544c0 1.3292.7056 2.5764 1.8708 3.2492l7.1548 4.119c1.1652.6728 2.5928.6728 3.7416 0l7.1548-4.119c1.1652-.6728 1.8708-1.9036 1.8708-3.2492v-8.2544a3.8203 3.8203 0 0 0 -1.8872-3.2492zm-11.323 4.4308c-.2134.164-.3939.3446-.558.5415v-2.6256l.558-.3283zm1.4276-.6893c-.1969.0493-.3774.0985-.5579.1805v-2.363c.1805-.082.3774-.1313.558-.1805v2.363z"/></svg>