<svg height="18" viewBox="0 0 18 18" width="18" xmlns="http://www.w3.org/2000/svg" xmlns:xlink="http://www.w3.org/1999/xlink"><radialGradient id="a" cx="8.990738" cy="8.970034" gradientUnits="userSpaceOnUse" r="6.786604"><stop offset=".313" stop-color="#005ba1"/><stop offset=".379" stop-color="#0062ad"/><stop offset=".522" stop-color="#006ec2"/><stop offset=".662" stop-color="#0075cf"/><stop offset=".793" stop-color="#0078d4"/></radialGradient><path d="m10.341 7.401.73 1.264a.38.38 0 0 0 .329.19h1.46a.38.38 0 0 0 .329-.19l.73-1.264a.38.38 0 0 0 0-.38l-.73-1.264a.38.38 0 0 0 -.329-.19h-1.46a.38.38 0 0 0 -.329.19l-.73 1.264a.38.38 0 0 0 0 .38m2.847 1.97a.38.38 0 0 0 -.329-.19h-1.46a.38.38 0 0 0 -.329.19l-.73 1.264a.38.38 0 0 0 0 .38l.73 1.264a.38.38 0 0 0 .329.19h1.46a.38.38 0 0 0 .329-.19l.73-1.264a.38.38 0 0 0 0-.38zm-8.377-.705a.38.38 0 0 0 .329.19h1.46a.38.38 0 0 0 .329-.19l.73-1.264a.38.38 0 0 0 0-.38l-.73-1.264a.38.38 0 0 0 -.329-.19h-1.46a.38.38 0 0 0 -.329.19l-.73 1.264a.38.38 0 0 0 0 .38zm2.847 1.97-.73-1.264a.38.38 0 0 0 -.329-.19h-1.46a.38.38 0 0 0 -.329.19l-.73 1.264a.38.38 0 0 0 0 .38l.73 1.264a.38.38 0 0 0 .329.19h1.46a.38.38 0 0 0 .329-.19l.73-1.264a.38.38 0 0 0 0-.38m2.4.581a.38.38 0 0 0 -.329-.19h-1.46a.38.38 0 0 0 -.329.19l-.73 1.264a.38.38 0 0 0 0 .38l.73 1.264a.38.38 0 0 0 .329.19h1.46a.38.38 0 0 0 .329-.19l.73-1.264a.38.38 0 0 0 0-.38zm-2.117-4.416a.38.38 0 0 0 .329.19h1.46a.38.38 0 0 0 .329-.19l.73-1.264a.38.38 0 0 0 0-.38l-.73-1.264a.38.38 0 0 0 -.329-.19h-1.46a.38.38 0 0 0 -.329.19l-.73 1.264a.38.38 0 0 0 0 .38z" fill="url(#a)"/><path d="m4.556 8.815-.741-1.283a.39.39 0 0 0 -.334-.193h-1.482a.38.38 0 0 0 -.334.193l-.741 1.283a.38.38 0 0 0 0 .385l.741 1.283a.39.39 0 0 0 .334.193h1.482a.38.38 0 0 0 .334-.193l.741-1.283a.38.38 0 0 0 0-.385m3.369-5.67a.39.39 0 0 0 .334.193h1.482a.38.38 0 0 0 .334-.193l.741-1.283a.38.38 0 0 0 0-.385l-.741-1.283a.38.38 0 0 0 -.334-.194h-1.482a.38.38 0 0 0 -.334.193l-.741 1.283a.38.38 0 0 0 0 .385zm9.15 5.67-.741-1.283a.39.39 0 0 0 -.334-.193h-1.482a.38.38 0 0 0 -.334.193l-.741 1.283a.38.38 0 0 0 0 .385l.741 1.283a.39.39 0 0 0 .334.193h1.482a.38.38 0 0 0 .334-.193l.741-1.283a.38.38 0 0 0 0-.385m-9.389 5.478-.741-1.283a.39.39 0 0 0 -.334-.193h-1.482a.38.38 0 0 0 -.334.193l-.741 1.283a.38.38 0 0 0 0 .385l.741 1.283a.39.39 0 0 0 .334.193h1.482a.38.38 0 0 0 .334-.193l.741-1.283a.38.38 0 0 0 0-.385m6.259-10.937-.741-1.283a.39.39 0 0 0 -.334-.193h-1.482a.38.38 0 0 0 -.334.193l-.741 1.283a.38.38 0 0 0 0 .385l.741 1.283a.39.39 0 0 0 .334.193h1.482a.38.38 0 0 0 .334-.193l.741-1.283a.38.38 0 0 0 0-.385m-3.871 11.499a.39.39 0 0 0 -.334-.193h-1.482a.38.38 0 0 0 -.334.193l-.741 1.283a.38.38 0 0 0 0 .385l.741 1.283a.39.39 0 0 0 .334.193h1.482a.38.38 0 0 0 .334-.193l.741-1.283a.38.38 0 0 0 0-.385zm0-7.324a.39.39 0 0 0 -.334-.193h-1.482a.38.38 0 0 0 -.334.193l-.741 1.283a.38.38 0 0 0 0 .385l.741 1.283a.39.39 0 0 0 .334.193h1.482a.38.38 0 0 0 .334-.193l.741-1.283a.38.38 0 0 0 0-.385z" fill="#50e6ff"/><path d="m16.313 7.039a7.6 7.6 0 0 0 -1.955-3.394.8.8 0 0 1 -.089.283l-.276.478a6.8 6.8 0 0 1 1.493 2.559h.514c.11 0 .215.03.312.074zm-12.299 6.578a6.8 6.8 0 0 1 -1.5-2.567h-.514a.8.8 0 0 1 -.312-.074 7.57 7.57 0 0 0 1.957 3.396.8.8 0 0 1 .086-.265zm-2.014-6.652h.514a6.82 6.82 0 0 1 4.596-4.485l-.249-.432a.8.8 0 0 1 -.089-.286 7.59 7.59 0 0 0 -5.084 5.278.74.74 0 0 1 .312-.074zm14 4.085h-.514a6.83 6.83 0 0 1 -4.589 4.484l.242.418c.054.094.08.197.091.301a7.59 7.59 0 0 0 5.082-5.277.74.74 0 0 1 -.312.074" fill="#005ba1"/></svg>