<svg viewBox="0 0 24 24" xmlns="http://www.w3.org/2000/svg"><path d="m12 0c-5.822.001-10.556 3.559-10.556 7.93v16.07h1.06l.006-16.07c0-2.847 2.408-5.295 5.831-6.333a5.948 5.948 0 0 0 -.254.258 6.719 6.719 0 0 0 -.363.415c-.17.21-.201.251-.439.591-.185.27-.375.596-.49.813-.131.244-.25.493-.36.746-.237.541-.39 1.044-.418 1.134a12.425 12.425 0 0 0 -.534 3.634l.002 14.812h1.066v-14.812c0-.322.016-1.068.14-1.828.07-.457.186-.996.342-1.505.144-.487.42-1.209.762-1.82.158-.285.329-.553.51-.803a6.53 6.53 0 0 1 .874-.981 5 5 0 0 1 .83-.617 4.2 4.2 0 0 1 .565-.28c-.846 1.92-1.108 5.46-1.108 7.834v14.812h1.065v-14.812c0-4.959.94-7.865 1.463-8.112.39.205 1.283 2.392 1.429 6.954l1.048.014c-.03-.941-.166-4.671-1.05-6.687 2.05.844 3.653 3.45 3.965 6.687h1.116l-.012-.117h.002c-.255-2.648-1.271-4.88-2.721-6.295 3.36 1.059 5.719 3.486 5.719 6.299l-.007.113 1.073-.009c0-4.355-4.717-8.018-10.514-8.035zm1.5 20.024v3.976h1.061l.005-3.976zm3.987 0 .005 3.976h1.06v-3.976zm4.003 0v3.976h1.066v-3.976z"/></svg>