<svg height="18" viewBox="0 0 18 18" width="18" xmlns="http://www.w3.org/2000/svg" xmlns:xlink="http://www.w3.org/1999/xlink"><linearGradient id="a" gradientUnits="userSpaceOnUse" x1="8.18" x2="8.18" y1="6.52" y2="15.24"><stop offset="0" stop-color="#fff"/><stop offset=".48" stop-color="#f6f6f6"/><stop offset="1" stop-color="#e6e6e6"/></linearGradient><path d="m15.14 4.7h-1v12.81l1-1.93z" fill="#50e6ff"/><path d="m15.14 15.57-1 1.93 1-.8 1.23-1z" fill="#9cebff"/><path d="m8.57 2.79a1.57 1.57 0 0 1 1.63-1.51 1.57 1.57 0 0 1 1.62 1.51v1.91h.79v-1.91a2.41 2.41 0 0 0 -4.82 0v1.91h.78z" fill="#a3a3a3"/><path d="m6.18 2.79a1.57 1.57 0 0 1 1.62-1.51 1.57 1.57 0 0 1 1.63 1.51v1.91h.78v-1.91a2.36 2.36 0 0 0 -2.41-2.3 2.35 2.35 0 0 0 -2.4 2.3v1.91h.78z" fill="#767676"/><path d="m14.1 4.7v12.81l-12.47-.99.37-11.82zm1.04 0v10.88l1.23.18-.37-11.06z" fill="#32bedd"/><path d="m10.41 6.52h-4.41a.29.29 0 0 0 -.29.29v8a.29.29 0 0 0 .29.29l4.46.14a.28.28 0 0 0 .28-.29v-8.14a.28.28 0 0 0 -.33-.29m-3.19 5.73a.08.08 0 0 1 -.08.07h-.82a.08.08 0 0 1 -.07-.07v-1.06a.08.08 0 0 1 .07-.07h.82a.08.08 0 0 1 .08.07zm0-1.92a.08.08 0 0 1 -.08.07h-.82a.08.08 0 0 1 -.07-.07v-1.06a.08.08 0 0 1 .07-.07h.82a.08.08 0 0 1 .08.07zm0-1.93a.09.09 0 0 1 -.08.08h-.82a.09.09 0 0 1 -.07-.08v-1.06a.08.08 0 0 1 .07-.07h.82a.08.08 0 0 1 .08.07zm1.42 6.32a.07.07 0 0 1 -.07.07h-.8a.07.07 0 0 1 -.07-.07v-1.6a.07.07 0 0 1 .07-.07h.82a.07.07 0 0 1 .07.07zm0-2.47a.07.07 0 0 1 -.07.07h-.8a.07.07 0 0 1 -.07-.07v-1.06a.07.07 0 0 1 .07-.07h.82a.07.07 0 0 1 .07.07zm0-1.92a.07.07 0 0 1 -.07.07h-.8a.07.07 0 0 1 -.07-.07v-1.06a.07.07 0 0 1 .07-.07h.82a.07.07 0 0 1 .07.07zm0-1.93a.08.08 0 0 1 -.07.08h-.8a.08.08 0 0 1 -.07-.08v-1.06a.07.07 0 0 1 .07-.07h.82a.07.07 0 0 1 .07.07zm1.44 3.85a.07.07 0 0 1 -.07.07h-.8a.07.07 0 0 1 -.07-.07v-1.06a.07.07 0 0 1 .07-.07h.79a.07.07 0 0 1 .07.07zm0-1.92a.07.07 0 0 1 -.07.07h-.8a.07.07 0 0 1 -.07-.07v-1.06a.07.07 0 0 1 .07-.07h.79a.07.07 0 0 1 .07.07zm0-1.93a.08.08 0 0 1 -.07.08h-.8a.08.08 0 0 1 -.07-.08v-1.06a.07.07 0 0 1 .07-.07h.79a.07.07 0 0 1 .07.07z" fill="url(#a)"/></svg>