<svg xmlns="http://www.w3.org/2000/svg" width="2555pt" height="1080" viewBox="0 0 2555 810"><g fill="currentColor"><path fill="currentColor" d="M49.1 4.6c-15.2 4.1-29.6 15.3-38.3 30-9.2 15.3-8.3-14.2-8.6 281.7L2 578.1l2.4 2.4 2.5 2.5h28.7c32.1 0 35.8-.5 47.9-6.8 4.8-2.5 9.6-6.3 15.5-12.2 11.3-11.2 15.6-19.2 18.1-33.9 1.7-9.8 1.8-18 1.9-106.7 0-92.6.1-96.5 2-106 4.4-21.4 16.3-37.4 34-45.8 6.2-3 7-3.1 19.5-3.1 14.2 0 16.3.5 25.5 6.3 7.4 4.7 12.4 10.3 16.7 18.7C227.2 314 227 311.1 227 455c0 74.1.4 121.8 1 123.4 1.8 4.7 3.3 4.9 35 4.7 28.5-.2 29.8-.3 36.9-2.7 9.6-3.2 14.4-6.1 22.4-13.5 8.1-7.3 14.3-16.7 18.8-27.9l3.4-8.5v-217l-3.3-20c-5-30.5-13.2-55-24-71.9-22.1-34.5-52-50.6-94.3-50.6-15.9 0-28.8 2-40.9 6.2-18.6 6.6-33.5 15.9-46.1 28.9-8.9 9.2-12.9 11.4-15.6 8.7-1.3-1.4-1.5-14-1.3-104.2L119.1 8l-2.5-2.5-2.5-2.5-29.8.1c-22.6 0-31.1.4-35.2 1.5"/><path fill="currentColor" d="M584.5 45.5c-17.3 3.3-29.9 9.8-42.1 22-10.6 10.5-13.9 16-13.1 21.8.7 5.4 3.9 8.4 10.1 9.6 2.8.5 6.2.9 7.6.8 7.5-.4 33.4 4.1 44 7.7 2.5.8 7.7 2.4 11.5 3.4 8.5 2.4 26.5 9.7 40 16.2 30 14.5 63 38.6 87.1 63.6 11.1 11.6 14.4 13.5 15.2 9.1 1.2-6.3-20-50.5-36.5-76.1-13.2-20.4-33.4-42.9-49-54.4-16.1-11.8-33.9-19.9-51.5-23.3-11.3-2.2-13.7-2.2-23.3-.4"/><path fill="currentColor" d="M478.6 141.3c-24.9 3.1-39.8 7.9-55.6 17.8-12.3 7.8-21.5 18.9-27.8 33.4-5.8 13.3-6.6 18.1-6.6 39.6-.1 26 0 26.1 17.6 21.9 4.6-1 14.2-2.6 21.3-3.5 7.2-.9 17.5-2.3 23-3.1 16.3-2.5 32.1-3.3 66.8-3.4 34 0 41 .6 63.2 5.1 25.3 5.1 36.5 9.9 36.5 15.6 0 3.2-5.7 5.7-16.3 7.3-10.9 1.6-30.8 7.2-47.2 13.2-26 9.5-49.7 21.9-68.3 35.8-10.2 7.6-32.7 29.2-38.5 37-17.2 23.1-27.9 46-33.4 71.6-2.6 12.3-2.8 14.2-2.8 39.9 0 22 .4 28.8 1.9 36.9 3.4 18.5 12.9 41.9 22.9 56.6 6 8.8 25.8 27.9 35.7 34.5 19.4 13 47.4 23.4 70 26.1 13.7 1.6 39.3 1.8 54.5.4 21.2-2.1 54.3-11.6 77-22.4 32.6-15.4 63.6-40.6 85.1-69.3 10-13.3 22.1-35.4 28.4-51.6 3.9-10.2 9.5-31.8 11.5-44.9 1.9-11.9 3.6-59.6 2.4-67.9-1.4-10.3-1.1-13.8 1.6-16.4 3.1-3.1 5.4-3.1 16.8.1 11.9 3.4 25.1 9.3 34 15 9.1 5.9 11.1 6.6 14.2 5.2 4-1.8 4.8-6.9 4.2-27.3-.4-16-.8-19.1-3.4-28.2-3.7-12.6-7.7-19.4-17.1-28.8-16.7-16.6-46.7-27.5-75.9-27.5-3.5 0-7.8-.6-9.7-1.4-2-.8-8.8-7.4-17.2-16.5-7.6-8.4-17.2-18-21.3-21.4-4-3.4-9.6-8.1-12.5-10.5-21.4-18-60.8-40.3-90.5-51.3-22.3-8.3-46.8-14.4-70.6-17.6-17.3-2.3-55.4-2.3-73.9 0m208 202.1c1.2.8 4.6 5.7 7.7 10.8 15.4 25.8 20.4 49.7 16.2 77.5-8 53.3-46.5 96.7-93.5 105.4-3.6.7-12.8 1.1-20.5 1-22.3-.2-31.3-3.3-44-15.3-11.9-11.1-18.3-23.6-22-42.9-.8-4.5-1.5-10.5-1.5-13.4 0-11.4 5.3-33.1 10.7-44 14.1-28.1 42.3-52.8 75.3-65.8 27-10.6 65.3-17.7 71.6-13.3"/><path fill="currentColor" d="M1082.8 172.6c-20.4 3.7-41.9 13.3-58.3 26.3-11.2 8.8-13.2 9.8-16 7.7-1.8-1.3-2-2.7-2-12.5 0-16.5 1.7-15.6-29.8-15.7-32.6-.1-36.7.4-48.6 6.1-7.5 3.6-11 6.1-17.3 12.3-12.3 12-17.8 22.6-19.8 39-.6 4.7-1 72.3-1.1 175 0 151.2.1 167.6 1.6 169.8 1.9 2.9-1.5 2.6 33.9 2.4 21.5-.1 30.3-.5 34.4-1.6 19-5 37.5-23.2 44.6-43.9 2-5.9 2.1-8.2 2.7-109 .6-114.4.2-108.5 7.4-124.1 7.4-16.2 15.8-25.2 29.3-31.7l8.7-4.2h12.5c11.8 0 12.8.2 18.5 2.9 8.3 4.1 19.3 15.3 23.3 23.7 4.2 8.8 7.1 20 8.4 32.2.7 6.3 1.3 56.3 1.7 131.1l.6 120.9 2.7 2c2.6 1.9 4 2 31 1.8 15.6-.1 30.2-.6 32.6-1.2 7.4-1.6 20.4-8.6 27.1-14.6 7.8-7 14.9-17.6 18.7-28l2.9-7.8.3-108.5.3-108.5-2.6-19.5c-6.9-53.5-27-89.1-62-109.8-8.2-4.8-25.1-10.6-37.2-12.7-10.8-1.9-37.9-1.8-48.5.1"/><path fill="currentColor" d="M1466 173c-28.7 4-56.2 13.5-78 26.7-24 14.7-46.8 37.3-60.8 60.4-10.3 16.9-21.2 42.6-24.7 58.1-.9 4-2.5 11.1-3.6 15.8-2.9 13.2-3.9 25.9-3.9 51.2 0 38.1 2.2 53.5 12.3 84.3 16.6 51.1 50.4 87.9 98.3 107 13.4 5.4 36.9 10.9 53.1 12.5 6.5.6 15.1 1.5 19.1 1.9 4.4.4 11.8.2 19-.6 6.4-.7 15.1-1 19.3-.6 7.5.6 7.7.5 17.2-4.1 11.7-5.7 19-12.1 25.1-21.9 6.6-10.8 8.7-18.6 9.3-34.7.3-7.4 0-18.5-.6-24.5-1.6-16-4.4-18.7-14.7-14.7-11.1 4.4-23.3 6.2-42.1 6.2-15.8 0-18.9-.3-27-2.5-16-4.3-28.7-12-40.9-24.7-15.4-16.1-24-35.3-28.3-63-2.7-17.5-2.7-33-.1-49.6 4.5-28 12-45.3 27.6-63.9 9.5-11.2 25.2-20.9 40.9-25.4 12.2-3.5 38.1-3.9 53-.9 5.9 1.2 12.5 2.8 14.7 3.6 9.4 3.3 14.1.7 15.3-8.4 1.3-9.1 5.4-32 6.9-37.8.8-3.3 1.7-8.4 2.1-11.4.3-3 1.5-9.1 2.6-13.6 3.5-14.1.8-17-20.8-21.9-5.9-1.3-16.4-3.1-23.3-4-16.9-2.1-50.3-1.8-67 .5"/><path fill="currentColor" d="M1748.7 173c-41.5 7-68.2 20.6-96.3 49.2-16 16.3-24.1 27.7-33.4 47.3-16.2 33.9-23 68.1-23 114.8 0 66.8 18 118.9 54 156.1 24.2 25.1 50.3 39.1 89 47.7 13.5 3 50.9 3.8 66 1.5 41.1-6.5 70.5-21 97.6-48 32.8-32.8 50.1-73.2 55.9-131.1 2.2-21.7 1.2-59.6-2.1-79-3.2-19.3-3.7-21.4-8.5-37-8.9-29.1-22.8-52.9-42.8-73.8-22.9-23.7-44.4-36.2-77.4-44.7-20.1-5.2-57.4-6.6-79-3m42.6 86c15.3 4.7 29.1 20.1 37.8 42.3 3.7 9.3 8.9 31.7 10.4 44.6 1.9 16 1.9 48.5 0 66.1-6 56.8-27.9 91.2-59.3 92.8-12.1.7-20.3-2-31-10-20.7-15.4-32.5-47.1-36.3-97-.6-9.2-.9-20-.5-24 .3-4 1.1-13.3 1.6-20.6 1.7-22.2 6.6-42.1 14.6-59 13.9-29.3 37.9-42.8 62.7-35.2"/><path fill="currentColor" d="M2197 171.5c-.8.2-4.9.9-9 1.5-19.9 3.2-41.6 13.6-56.1 26.8-6.3 5.7-8.8 7.2-12.4 7.2s-4.8-3.6-4-12.9c1.4-15.9.3-16.4-35.4-15.7-30.8.6-34.3 1.3-47.7 9.5-13.6 8.4-22.8 20.3-28.5 37-1.8 5.1-1.9 12.6-1.9 179.1 0 95.5.2 174.4.6 175.4 1.3 3.5 4.1 3.8 32 3.7 30.5-.2 34.1-.7 45.5-6.7 13-6.9 25.9-21.2 30.6-34.1 5.2-14.5 5.3-15.9 5.3-121 0-109.4-.2-106 7.3-121.2 5.1-10.6 11.9-18.8 19.9-24.2 10-6.8 14.7-8.3 26.9-8.3 9.6 0 11 .2 16.5 2.9 7.4 3.6 15.9 12.1 20.1 20 1.8 3.3 4.7 11 6.5 17l3.3 11 .2 129c.2 71 .3 129.5.3 130.2s1 2.1 2.2 3.3c2.1 1.9 3.4 2 30.3 2 32 0 35.2-.5 47.4-7.2 13.5-7.5 22.3-17.4 29.4-33l4.2-9.3.6-106c.7-115.2.4-111 6.3-125.5 2.8-6.8 9.6-16.8 14.8-21.6 5.7-5.4 14.6-10.4 21.5-12.1 10-2.5 23.1-.9 30.4 3.7 3 1.8 6.5 4.3 7.8 5.4 4.4 3.8 11.9 16.5 14.6 24.6 6.1 18.2 5.8 12.1 6.4 150.2l.6 126.7 2.2 2.2c2.1 2.2 2.6 2.2 30.5 2 15.6-.1 30.3-.7 32.7-1.2 2.5-.5 7.9-2.8 12-4.9 13.8-7.2 22.6-16.1 29.5-29.8 6.9-13.8 6.6-7.2 6.6-125.2 0-59.5-.5-111.6-1-118.1-1.3-15.7-6.1-39.2-11.1-53.6-6.7-19.6-14-32.7-25.2-45.1-22-24.2-46.1-34.2-82.6-34.2-37.4 0-64.7 10.8-90.3 35.5-3.8 3.7-9.4 9.9-12.5 13.7-9 11.3-12.6 11.5-18 .7-7.3-14.4-19.9-27.4-35.2-36.3-16.3-9.4-34.3-13.7-57.6-13.5-8.2.1-15.7.3-16.5.4"/><path fill="currentColor" d="M603 696c-27.3 3.4-47.5 30.1-44.4 58.5 2.4 21.4 17.6 40 36.9 45.1 6.4 1.8 24.6 1.8 31 0 15.5-4.1 29.2-17.3 34.6-33.3 3.3-9.7 3.3-26 .1-35.5-8.3-24.3-31.5-38.2-58.2-34.8"/></g></svg>