<svg xmlns="http://www.w3.org/2000/svg" width="18" height="18" viewBox="0 0 18 18"><defs><mask id="a"><path fill="#fff" d="M0 0h18v18H0z"/><path d="M.02 5.5h15.549v8.669a.52.52 0 0 1-.519.52H.54a.52.52 0 0 1-.52-.52z"/><path d="M1.847 10.723V6.892c0-.1.06-.183.134-.183h5.338c.074 0 .134.082.134.183v3.831c0 .1-.06.182-.134.182H1.981c-.074 0-.134-.081-.134-.182"/><path d="M7.146 13.486H2.154c-.17 0-.307-.082-.307-.182v-1.273c0-.1.137-.182.307-.182h4.992c.17 0 .307.081.307.182V13.3c0 .1-.137.186-.307.186M14 8.226H8.827c-.176 0-.318-.081-.318-.182V6.787c0-.1.142-.182.318-.182H14c.176 0 .318.081.318.182v1.257c-.001.101-.143.182-.318.182"/><path d="m17.643 14.8-3.277-1.525a.38.38 0 0 1-.233-.389v-.526a.39.39 0 0 1 .233-.39l3.277-1.524c.175-.045.337.142.337.389v3.575c0 .248-.164.434-.337.39"/><path d="M10.79 12.623v-1.379a.382.382 0 0 1 .573-.331l1.2.69 1.194.689a.383.383 0 0 1 0 .662l-1.194.689-1.2.69A.382.382 0 0 1 10.79 14z"/><path d="M8.544 9.388h7.35v6.422h-7.35z"/></mask></defs><path fill="currentColor" d="M.542 2.19h14.505a.52.52 0 0 1 .519.52V5.5H.02V2.71a.52.52 0 0 1 .52-.52z" mask="url(#a)"/></svg>