<svg height="18" viewBox="0 0 18 18" width="18" xmlns="http://www.w3.org/2000/svg" xmlns:xlink="http://www.w3.org/1999/xlink"><linearGradient id="a" gradientTransform="matrix(1 0 0 -1 1524 1565.516)" gradientUnits="userSpaceOnUse" x1="-1516.205" x2="-1516.205" y1="1550.824" y2="1560.012"><stop offset=".001" stop-color="#773adc"/><stop offset=".229" stop-color="#7b3fde"/><stop offset=".507" stop-color="#864ee4"/><stop offset=".811" stop-color="#9867ed"/><stop offset="1" stop-color="#a67af4"/></linearGradient><linearGradient id="b" gradientTransform="matrix(1 0 0 -1 564 1025.516)" gradientUnits="userSpaceOnUse" x1="-551.781" x2="-551.781" y1="1016.108" y2="1009.663"><stop offset="0" stop-color="#50e6ff"/><stop offset="1" stop-color="#32bedd"/></linearGradient><path d="m.02 5.5h15.549v8.669a.52.52 0 0 1 -.519.52h-14.51a.52.52 0 0 1 -.52-.52z" fill="url(#a)"/><path d="m.542 2.19h14.505a.52.52 0 0 1 .519.52v2.79h-15.546v-2.79a.52.52 0 0 1 .52-.52z" fill="#773adc"/><path d="m1.847 10.723v-3.831c0-.1.06-.183.134-.183h5.338c.074 0 .134.082.134.183v3.831c0 .1-.06.182-.134.182h-5.338c-.074 0-.134-.081-.134-.182" fill="#f2f2f2"/><path d="m7.146 13.486h-4.992c-.17 0-.307-.082-.307-.182v-1.273c0-.1.137-.182.307-.182h4.992c.17 0 .307.081.307.182v1.269c0 .1-.137.186-.307.186m6.854-5.26h-5.173c-.176 0-.318-.081-.318-.182v-1.257c0-.1.142-.182.318-.182h5.173c.176 0 .318.081.318.182v1.257c-.001.101-.143.182-.318.182" fill="#b796f9"/><path d="m17.643 14.8-3.277-1.525a.38.38 0 0 1 -.233-.389v-.526a.39.39 0 0 1 .233-.39l3.277-1.524c.175-.045.337.142.337.389v3.575c0 .248-.164.434-.337.39" fill="#32bedd"/><rect fill="url(#b)" height="6.422" rx=".385" width="7.35" x="8.544" y="9.388"/><path d="m10.79 12.623v-1.379a.382.382 0 0 1 .573-.331l1.2.69 1.194.689a.383.383 0 0 1 0 .662l-1.194.689-1.2.69a.382.382 0 0 1 -.573-.333z" fill="#c3f1ff"/></svg>