<svg height="48" viewBox="0 0 48 48" width="48" xmlns="http://www.w3.org/2000/svg"><path d="m42.532 28.826 3.164-4.574h-1.631l-2.461 3.644-.705 1.013 3.335 4.956.044.066h1.715zm-5.287 5.105h1.649l2.238-3.389-.757-1.108zm3.97-6.741-1.941-2.872-.044-.066h-1.698l2.822 4.126zm-6.427.533-1.704-.677c-.549-.214-.973-.416-1.263-.601q-.411-.263-.586-.573-.173-.307-.173-.835c0-.626.191-1.092.581-1.423.818-.691 2.511-.674 4.562.076l.268.098v-1.256l-.117-.053a7.6 7.6 0 0 0 -1.495-.501 7 7 0 0 0 -1.517-.178c-1.075 0-1.958.303-2.624.901-.672.604-1.013 1.401-1.013 2.37 0 .716.208 1.329.619 1.82.403.481 1.034.897 1.877 1.237l1.848.743c.604.241 1.045.512 1.309.806.255.285.379.619.379 1.022 0 .68-.233 1.202-.715 1.595-1.018.832-2.905.764-4.983-.016l-.271-.101v1.253l.111.056c.946.474 2.037.715 3.241.715 1.18 0 2.147-.323 2.878-.958.736-.642 1.11-1.492 1.11-2.527 0-.715-.191-1.321-.568-1.799-.369-.471-.959-.873-1.754-1.194m-11.958 6.197h1.34v-5.315h4.44v-1.275h-4.44v-3.974h5.253v-1.275h-6.593zm7.17-13.92h2v-12.927a.9.9 0 0 0 -.489-.803l-.308-.158c-3.555-1.832-8.173-4.112-14.203-4.112-6.493 0-10.693 2.031-14.554 4.294a.9.9 0 0 0 -.446.779v38.927h2v-38.5c3.621-2.096 7.189-3.5 13-3.5 5.498 0 9.486 1.69 13 3.5zm7 16v9c0 .55-.45 1-1 1h-27.086a.9.9 0 0 1 -.903-.902l-.011-19.097c0-.55.449-1.001 1-1.001h8c.228 0 .497.169.596.375l.845 1.349a.49.49 0 0 0 .439.276h2.12v2h-3c-.347 0-.5 0-.797-.791l-.585-.921c-.071-.174-.43-.288-.618-.288h-6v17h25v-8z" fill="#7aa116" fill-rule="evenodd"/></svg>