<svg viewBox="0 0 128 128" xmlns="http://www.w3.org/2000/svg" xmlns:xlink="http://www.w3.org/1999/xlink"><linearGradient id="a" gradientTransform="matrix(.73244 0 0 .73242 -73.663 -75.173)" gradientUnits="userSpaceOnUse" x1="187.947" x2="187.947" y1="123.859" y2="258.865"><stop offset="0" stop-color="#bf0000"/><stop offset="1" stop-color="#8f0000"/></linearGradient><path d="m0 4.286v5.65a4.29 4.29 0 0 1 4.286 4.286 4.29 4.29 0 0 1 -4.286 4.286v5.65a4.29 4.29 0 0 1 4.286 4.285 4.29 4.29 0 0 1 -4.286 4.286v5.65a4.291 4.291 0 0 1 4.286 4.288 4.291 4.291 0 0 1 -4.286 4.288v5.65a4.29 4.29 0 0 1 4.286 4.285 4.29 4.29 0 0 1 -4.286 4.286v5.65a4.29 4.29 0 0 1 4.286 4.285 4.29 4.29 0 0 1 -4.286 4.287v5.65a4.29 4.29 0 0 1 4.286 4.285 4.29 4.29 0 0 1 -4.286 4.286v5.65a4.29 4.29 0 0 1 4.286 4.285 4.29 4.29 0 0 1 -4.286 4.286v5.65a4.29 4.29 0 0 1 4.286 4.285 4.29 4.29 0 0 1 -4.286 4.287v5.653a4.31 4.31 0 0 1 3.03 1.255 4.315 4.315 0 0 1 1.257 3.03h5.65a4.29 4.29 0 0 1 4.286-4.285 4.29 4.29 0 0 1 4.284 4.285h5.651a4.29 4.29 0 0 1 4.286-4.285 4.29 4.29 0 0 1 4.285 4.285h5.65a4.29 4.29 0 0 1 4.286-4.285 4.29 4.29 0 0 1 4.286 4.285h5.65a4.29 4.29 0 0 1 4.286-4.285 4.29 4.29 0 0 1 4.286 4.285h5.65a4.29 4.29 0 0 1 4.286-4.285 4.29 4.29 0 0 1 4.286 4.285h5.65a4.29 4.29 0 0 1 4.286-4.285 4.29 4.29 0 0 1 4.285 4.285h5.651a4.29 4.29 0 0 1 4.286-4.285 4.29 4.29 0 0 1 4.285 4.285h5.651a4.29 4.29 0 0 1 4.286-4.285 4.29 4.29 0 0 1 4.285 4.285h5.654a4.31 4.31 0 0 1 1.256-3.03 4.31 4.31 0 0 1 3.03-1.255v-5.65a4.29 4.29 0 0 1 -4.286-4.287 4.29 4.29 0 0 1 4.286-4.284v-5.65a4.29 4.29 0 0 1 -4.286-4.287 4.29 4.29 0 0 1 4.286-4.285v-5.65a4.29 4.29 0 0 1 -4.286-4.286 4.29 4.29 0 0 1 4.286-4.286v-5.65a4.29 4.29 0 0 1 -4.286-4.287 4.29 4.29 0 0 1 4.286-4.283v-5.65a4.29 4.29 0 0 1 -4.286-4.287 4.29 4.29 0 0 1 4.286-4.285v-5.65a4.291 4.291 0 0 1 -4.286-4.288 4.291 4.291 0 0 1 4.286-4.287v-5.651a4.29 4.29 0 0 1 -4.286-4.286 4.29 4.29 0 0 1 4.286-4.286v-5.65a4.29 4.29 0 0 1 -4.286-4.286 4.29 4.29 0 0 1 4.286-4.284v-5.654a4.315 4.315 0 0 1 -3.03-1.254 4.316 4.316 0 0 1 -1.256-3.032h-5.651a4.29 4.29 0 0 1 -4.286 4.286 4.29 4.29 0 0 1 -4.285-4.286h-5.65a4.29 4.29 0 0 1 -4.286 4.286 4.29 4.29 0 0 1 -4.286-4.286h-5.65a4.29 4.29 0 0 1 -4.286 4.286 4.29 4.29 0 0 1 -4.286-4.286h-5.65a4.29 4.29 0 0 1 -4.286 4.286 4.29 4.29 0 0 1 -4.286-4.286h-5.65a4.29 4.29 0 0 1 -4.286 4.286 4.29 4.29 0 0 1 -4.285-4.286h-5.651a4.29 4.29 0 0 1 -4.286 4.286 4.29 4.29 0 0 1 -4.285-4.286h-5.65a4.29 4.29 0 0 1 -4.286 4.286 4.29 4.29 0 0 1 -4.287-4.286h-5.65a4.29 4.29 0 0 1 -4.286 4.286 4.29 4.29 0 0 1 -4.285-4.286h-5.653a4.321 4.321 0 0 1 -1.256 3.032 4.32 4.32 0 0 1 -3.03 1.254z" fill="url(#a)"/><path d="m109.04 51.217h-63.873l3.334-15.596h38.93l3.569-16.785h-55.953l-17.62 83.096h16.906l7.737-36.31h40.549l-35.234 34.88 6.19 10.952c2.857-1.904 7.5-2.143 10.714-2.143 5.716 0 11.31 1.906 17.142 1.906 5.348 0 10.822-.357 19.752-4.643l3.12-14.643c-6.072 2.5-15.057 4.881-22.872 4.881-3.212 0-6.189-.714-9.284-1.19l34.154-33.214z" fill="#fff"/></svg>