<svg height="48" viewBox="0 0 48 48" width="48" xmlns="http://www.w3.org/2000/svg"><path d="m20.29 18.04 1.414 1.414-6.998 6.998a.997.997 0 0 1 -1.414 0l-3.5-3.499 1.414-1.414 2.793 2.792zm0-11.373 1.414 1.414-6.998 6.998a.997.997 0 0 1 -1.414 0l-3.5-3.499 1.414-1.414 2.793 2.792zm-.335 25.909-3.23 3.23 3.23 3.229-1.414 1.414-3.23-3.229-3.23 3.229-1.414-1.414 3.23-3.229-3.23-3.23 1.414-1.414 3.23 3.23 3.23-3.23zm19.288 10.61a.806.806 0 0 1 -.805.805h-29.632a.806.806 0 0 1 -.806-.805v-38.38c0-.445.36-.806.806-.806h29.632c.444 0 .805.361.805.806zm-.805-41.186h-29.632a2.81 2.81 0 0 0 -2.806 2.806v38.38a2.81 2.81 0 0 0 2.806 2.805h29.632a2.81 2.81 0 0 0 2.805-2.805v-38.38a2.81 2.81 0 0 0 -2.805-2.806" fill="#dd344c" fill-rule="evenodd"/></svg>