<svg viewBox="0 0 138 136.1" xmlns="http://www.w3.org/2000/svg"><path d="m138 113c0 12.8-10.3 23.1-23.1 23.1h-91.8c-12.8 0-23.1-10.4-23.1-23.1v-89.9c0-12.8 10.3-23.1 23.1-23.1h91.8c12.8 0 23.1 10.3 23.1 23.1z" fill="#167db7"/><path d="m57.9 89.3c-.1.7-.7 1.2-1.5 1.2h-11.1c-.7 0-1.3-.4-1.3-1.1l.1-.2 7.1-59.3c.1-.7.2-1 1-1.1h12c.6 0 .9.4.9 1v.2zm28.3 2c-1.6 12.9-9.7 15.9-19.4 15.9-5.7 0-6.5-.2-8-.4-.7-.1-1.5-.2-1.5-1.3v-.5l.6-4.8c.2-1.4.7-1.7 2-1.7 1.2-.1 2.7-.1 4.5-.2 4.3-.2 7.3-.6 8.1-6.7l7.5-61.6c.1-.7.7-1.1 1.4-1.2l11.3.2h.2c.7 0 1 .4 1 1z" fill="#fff"/></svg>