<svg xmlns="http://www.w3.org/2000/svg" width="64" height="64" viewBox="0 0 64 64"><title>Icon-Architecture/48/Arch_Amazon-GameLift_48</title><g id="Icon-Architecture/48/Arch_Amazon-GameLift_48" fill="none" fill-rule="evenodd" stroke="none" stroke-width="1"><g id="Icon-Architecture-BG/48/Game-Tech" fill="#8c4fff"><path id="Rectangle" d="M0 0h64v64H0z"/></g><g id="Icon-Service/48/Amazon-GameLift_48" fill="#fff" transform="translate(10 10)"><path id="Fill-5" d="M36.5 29.999a1.5 1.5 0 1 1 3.001.001A1.5 1.5 0 0 1 36.5 30m-15.501 1h-1v-2h1v-1h2v1h1v2h-1v1h-2zm20.403 10.559c-.292.296-.699.441-1.245.441-1.722 0-3.326-3.862-4.386-6.418l-.009-.019A5.968 5.968 0 0 0 42 34.458v5.354c.006.31-.09 1.228-.598 1.746m-21.56.441c-.546 0-.953-.144-1.244-.441-.508-.518-.604-1.436-.598-1.771v-5.328a5.97 5.97 0 0 0 3.999 1.54c.791 0 1.544-.158 2.236-.437l-.008.021c-1.06 2.555-2.663 6.416-4.385 6.416m2.157-16c2.206 0 4 1.794 4 4s-1.794 4-4 4-4-1.795-4-4 1.794-4 4-4m10.812 7h-5.624a5.955 5.955 0 0 0 0-6h5.624a5.96 5.96 0 0 0 0 6m5.188-7c2.206 0 4 1.794 4 4s-1.794 4-4 4-4-1.795-4-4 1.794-4 4-4M44 39.787l-.001-9.788c0-3.309-2.691-6-6-6-1.223 0-2.36.369-3.31 1h-9.38c-.95-.631-2.087-1-3.31-1-3.309 0-6 2.691-6 6L16 39.756c-.006.198-.025 1.97 1.155 3.188.669.69 1.599 1.055 2.687 1.055 3.057 0 4.818-4.241 6.232-7.65.199-.479.388-.935.57-1.35h6.71c.181.414.371.871.57 1.349 1.415 3.409 3.176 7.651 6.233 7.651 1.088 0 2.018-.365 2.687-1.055 1.18-1.218 1.162-2.99 1.156-3.157M6.606 30.598c1.157-.593 2.471-1.089 3.895-1.487.796 2.445 1.875 4.5 3.16 6.017a17 17 0 0 1-7.055-4.53m-1.299-1.566A16.87 16.87 0 0 1 2.051 20h6.975c.068 2.58.392 5.004.93 7.193-1.715.48-3.281 1.097-4.649 1.839M5.306 8.969c1.368.743 2.936 1.358 4.65 1.838-.538 2.189-.862 4.613-.93 7.193H2.051a16.87 16.87 0 0 1 3.255-9.031m8.355-6.098c-1.285 1.518-2.364 3.572-3.16 6.018-1.424-.398-2.741-.891-3.898-1.484a17 17 0 0 1 7.058-4.534M19 2c2.666 0 5.074 2.949 6.536 7.357A33 33 0 0 1 19 10c-2.288 0-4.493-.23-6.537-.641C13.926 4.949 16.333 2 19 2m12.394 5.401c-1.158.593-2.471 1.089-3.895 1.487-.796-2.445-1.875-4.499-3.16-6.017a17 17 0 0 1 7.055 4.53m1.299 1.567A16.87 16.87 0 0 1 35.949 18h-6.975c-.068-2.58-.392-5.005-.93-7.193 1.715-.48 3.281-1.097 4.649-1.839M11.025 18c.069-2.394.379-4.67.886-6.718 2.222.46 4.615.718 7.089.718 2.471 0 4.865-.258 7.089-.719.506 2.048.817 4.325.886 6.719zM14 32.14c-.583-1.013-1.102-2.189-1.536-3.498A31 31 0 0 1 14 28.373v-2.011c-.709.101-1.409.216-2.089.357-.506-2.048-.817-4.326-.886-6.719h15.95a34 34 0 0 1-.227 3h2.014c.107-.975.185-1.971.212-3h6.975a17 17 0 0 1-.247 2h2.038c.156-.98.26-1.977.26-3C38 8.523 29.477 0 19 0S0 8.523 0 19c0 8.744 5.945 16.107 14 18.31z"/></g></g></svg>