<svg height="64" viewBox="0 0 64 64" width="64" xmlns="http://www.w3.org/2000/svg"><g fill="none" fill-rule="evenodd"><path d="m0 0h64v64h-64z" fill="#8c4fff"/><path d="m36.5 29.999a1.5 1.5 0 1 1 3.001.001 1.5 1.5 0 0 1 -3.001 0m-15.501 1h-1v-2h1v-1h2v1h1v2h-1v1h-2zm20.403 10.559c-.292.296-.699.441-1.245.441-1.722 0-3.326-3.862-4.386-6.418l-.009-.019a5.968 5.968 0 0 0 6.238-1.105v5.354c.006.31-.09 1.228-.598 1.746m-21.56.441c-.546 0-.953-.144-1.244-.441-.508-.518-.604-1.436-.598-1.771v-5.328a5.97 5.97 0 0 0 3.999 1.54c.791 0 1.544-.158 2.236-.437l-.008.021c-1.06 2.555-2.663 6.416-4.385 6.416m2.157-16c2.206 0 4 1.794 4 4s-1.794 4-4 4-4-1.795-4-4 1.794-4 4-4m10.812 7h-5.624a5.955 5.955 0 0 0 0-6h5.624a5.96 5.96 0 0 0 0 6m5.188-7c2.206 0 4 1.794 4 4s-1.794 4-4 4-4-1.795-4-4 1.794-4 4-4m6.001 13.788-.001-9.788c0-3.309-2.691-6-6-6-1.223 0-2.36.369-3.31 1h-9.38c-.95-.631-2.087-1-3.31-1-3.309 0-6 2.691-6 6l.001 9.757c-.006.198-.025 1.97 1.155 3.188.669.69 1.599 1.055 2.687 1.055 3.057 0 4.818-4.241 6.232-7.65.199-.479.388-.935.57-1.35h6.71c.181.414.371.871.57 1.349 1.415 3.409 3.176 7.651 6.233 7.651 1.088 0 2.018-.365 2.687-1.055 1.18-1.218 1.162-2.99 1.156-3.157m-37.394-9.189c1.157-.593 2.471-1.089 3.895-1.487.796 2.445 1.875 4.5 3.16 6.017a17 17 0 0 1 -7.055-4.53m-1.299-1.566a16.87 16.87 0 0 1 -3.256-9.032h6.975c.068 2.58.392 5.004.93 7.193-1.715.48-3.281 1.097-4.649 1.839m-.001-20.063c1.368.743 2.936 1.358 4.65 1.838-.538 2.189-.862 4.613-.93 7.193h-6.975a16.87 16.87 0 0 1 3.255-9.031m8.355-6.098c-1.285 1.518-2.364 3.572-3.16 6.018-1.424-.398-2.741-.891-3.898-1.484a17 17 0 0 1 7.058-4.534m5.339-.871c2.666 0 5.074 2.949 6.536 7.357a33 33 0 0 1 -6.536.643c-2.288 0-4.493-.23-6.537-.641 1.463-4.41 3.87-7.359 6.537-7.359m12.394 5.401c-1.158.593-2.471 1.089-3.895 1.487-.796-2.445-1.875-4.499-3.16-6.017a17 17 0 0 1 7.055 4.53m1.299 1.567a16.87 16.87 0 0 1 3.256 9.032h-6.975c-.068-2.58-.392-5.005-.93-7.193 1.715-.48 3.281-1.097 4.649-1.839m-21.668 9.032c.069-2.394.379-4.67.886-6.718 2.222.46 4.615.718 7.089.718 2.471 0 4.865-.258 7.089-.719.506 2.048.817 4.325.886 6.719zm2.975 14.14c-.583-1.013-1.102-2.189-1.536-3.498a31 31 0 0 1 1.536-.269v-2.011c-.709.101-1.409.216-2.089.357-.506-2.048-.817-4.326-.886-6.719h15.95a34 34 0 0 1 -.227 3h2.014c.107-.975.185-1.971.212-3h6.975a17 17 0 0 1 -.247 2h2.038c.156-.98.26-1.977.26-3 0-10.477-8.523-19-19-19s-19 8.523-19 19c0 8.744 5.945 16.107 14 18.31z" fill="#fff" transform="translate(10 10)"/></g></svg>