<svg viewBox="0 0 24 24" xmlns="http://www.w3.org/2000/svg"><path d="m11.7473 23.8198-5.4987-5.4987v-5.5349l5.4987 5.4986zm-.1036-17.6412-.0001-.0001.1768-.1768-5.8218-5.8218-5.8218 5.8219.0001.0001 5.8217 5.8271zm-11.6437.3537v5.5347l5.7486 5.7539v-5.5347l-.1035-.1035.0001-.0001zm17.6478 5.6504-5.6505-5.6505-5.6452 5.6504 5.6452 5.6453zm.1036 5.8885v-5.2853l-5.5042 5.4991v5.5351l5.5042-5.4991zm6.2486-11.5389-5.6451 5.6503.0001.0001-.1036.1035v5.5346l5.7486-5.7538zm-.1769-.5304.0001-.0001-5.8218-5.8218-5.8273 5.822 5.8273 5.8272z"/></svg>