<svg viewBox="0 0 24 24" xmlns="http://www.w3.org/2000/svg"><path d="m12 0c5.523 0 10 4.477 10 10v9a3.125 3.125 0 0 1 -4.694 2.703 3.126 3.126 0 0 1 -5.306 1.297 3.126 3.126 0 0 1 -5.306-1.297 3.125 3.125 0 0 1 -4.694-2.703v-9c0-5.523 4.477-10 10-10m-1.25 10.625a.625.625 0 0 0 -.625.625 1.875 1.875 0 0 0 3.75 0 .625.625 0 0 0 -.625-.625zm-1.875-5c-.69 0-1.25.56-1.25 1.25v1.25a1.25 1.25 0 0 0 2.5 0v-1.25c0-.69-.56-1.25-1.25-1.25m6.25 0c-.69 0-1.25.56-1.25 1.25v1.25a1.25 1.25 0 0 0 2.5 0v-1.25c0-.69-.56-1.25-1.25-1.25"/></svg>