<svg height="18" viewBox="0 0 18 18" width="18" xmlns="http://www.w3.org/2000/svg" xmlns:xlink="http://www.w3.org/1999/xlink"><linearGradient id="a"><stop offset=".059" stop-color="#0086ec"/><stop offset="1" stop-color="#004dae"/></linearGradient><linearGradient id="b" gradientUnits="userSpaceOnUse" x1="-.258" x2="8.727" xlink:href="#a" y1="-.226" y2="8.72"/><linearGradient id="c" gradientUnits="userSpaceOnUse" x1="9.064" x2="17.493" y1="8.78" y2=".669"><stop offset="0" stop-color="#004dae"/><stop offset=".941" stop-color="#0086ec"/></linearGradient><linearGradient id="d" gradientUnits="userSpaceOnUse" x1="8.863" x2="17.77" xlink:href="#a" y1="8.499" y2="18.081"/><linearGradient id="e" gradientUnits="userSpaceOnUse" x1="8.643" x2=".493" xlink:href="#a" y1="9.163" y2="17.672"/><path d="m7.335 7.347h-5.405a.286.286 0 0 1 -.286-.286v-5.119a.286.286 0 0 1 .286-.286h5.119a.286.286 0 0 1 .286.286zm1.145 1.144v-7.691a.287.287 0 0 0 -.286-.289h-7.408a.287.287 0 0 0 -.286.289v7.405a.286.286 0 0 0 .286.286z" fill="url(#b)"/><path d="m10.665 7.347v-5.4a.286.286 0 0 1 .286-.286h5.119a.286.286 0 0 1 .286.286v5.114a.286.286 0 0 1 -.286.286zm-1.145 1.144h7.694a.286.286 0 0 0 .286-.286v-7.405a.287.287 0 0 0 -.286-.287h-7.408a.287.287 0 0 0 -.286.287z" fill="url(#c)"/><path d="m10.665 10.653h5.405a.286.286 0 0 1 .286.286v5.119a.286.286 0 0 1 -.286.286h-5.119a.286.286 0 0 1 -.286-.286v-5.4m-1.145-1.149v7.691a.287.287 0 0 0 .286.287h7.408a.287.287 0 0 0 .286-.287v-7.4a.286.286 0 0 0 -.286-.286z" fill="url(#d)"/><path d="m7.335 10.653v5.4a.286.286 0 0 1 -.286.286h-5.119a.286.286 0 0 1 -.286-.286v-5.114a.286.286 0 0 1 .286-.286zm1.145-1.144h-7.694a.286.286 0 0 0 -.286.291v7.4a.287.287 0 0 0 .286.287h7.408a.287.287 0 0 0 .286-.287z" fill="url(#e)"/><path d="m14.9 8.22a16 16 0 0 0 -1.033-4.881 5 5 0 0 1 -.563.985 5.8 5.8 0 0 0 -4.036-1.643 5.633 5.633 0 1 0 5.632 5.633z" fill="#5fb832"/><path d="m13.821 10.849c-1.408 1.83-4.365 1.22-6.242 1.314a5 5 0 0 0 -.658.047l.282-.094a22 22 0 0 0 2.769-.986 6.39 6.39 0 0 0 3.333-4.271 6.62 6.62 0 0 1 -3.943 3.755 22.6 22.6 0 0 1 -3.1.8l-.094-.047c-1.359-.659-1.406-3.616 1.032-4.555 1.08-.422 2.112-.188 3.286-.469a5.26 5.26 0 0 0 3.289-2.443c.704 2.02 1.455 5.071.046 6.949m-7.932 1.83a.469.469 0 1 0 -.47-.469.47.47 0 0 0 .47.469" fill="#fff"/></svg>