<svg fill="#f43f5e" viewBox="0 0 24 24" xmlns="http://www.w3.org/2000/svg"><ellipse cx="12" cy="13" rx="5.76" ry="5.28"/><ellipse cx="11.52" cy="11.76" fill="#fda4af" opacity=".15" rx="3.12" ry="2.16"/><rect fill="#be123c" height="2.4" rx=".96" width="1.92" x="9.36" y="17.52"/><rect fill="#be123c" height="2.4" rx=".96" width="1.92" x="12.72" y="17.52"/><ellipse cx="4.8" cy="12.96" fill="#be123c" rx="1.92" ry="1.44"/><path d="m3.6 11.76 1.2 1.2 1.2-1.2" fill="none" stroke="#4c0519" stroke-linecap="round" stroke-width=".43"/><ellipse cx="19.2" cy="12.96" fill="#be123c" rx="1.92" ry="1.44"/><path d="m18 11.76 1.2 1.2 1.2-1.2" fill="none" stroke="#4c0519" stroke-linecap="round" stroke-width=".43"/><path d="m9.36 8.16-1.92-3.36" stroke="#be123c" stroke-linecap="round" stroke-width=".53"/><circle cx="7.2" cy="4.32" fill="#fda4af" r=".84"/><circle cx="7.2" cy="4.32" fill="#fff" opacity=".35" r=".31"/><path d="m14.64 8.16 1.92-3.36" stroke="#be123c" stroke-linecap="round" stroke-width=".53"/><circle cx="16.8" cy="4.32" fill="#fda4af" r=".84"/><circle cx="16.8" cy="4.32" fill="#fff" opacity=".35" r=".31"/><circle cx="10.32" cy="12.24" fill="#fff" r="1.56"/><circle cx="13.68" cy="12.24" fill="#fff" r="1.56"/><circle cx="10.68" cy="12" fill="#4c0519" r=".84"/><circle cx="14.04" cy="12" fill="#4c0519" r=".84"/><g fill="#fff"><circle cx="11.04" cy="11.64" r=".34"/><circle cx="14.4" cy="11.64" r=".34"/><circle cx="10.32" cy="12.6" opacity=".3" r=".17"/><circle cx="13.68" cy="12.6" opacity=".3" r=".17"/></g><path d="m10.8 15.12q1.2 1.2 2.88-.24" fill="none" stroke="#9f1239" stroke-linecap="round" stroke-width=".48"/></svg>