<svg height="18" viewBox="0 0 18 18" width="18" xmlns="http://www.w3.org/2000/svg" xmlns:xlink="http://www.w3.org/1999/xlink"><linearGradient id="a" gradientTransform="matrix(1 0 0 -1 0 791.516)" gradientUnits="userSpaceOnUse" x1="9" x2="9" y1="778.831" y2="790.831"><stop offset="0" stop-color="#0078d4"/><stop offset=".8" stop-color="#5ea0ef"/></linearGradient><linearGradient id="b" gradientTransform="matrix(1 0 0 -1 0 791.516)" gradientUnits="userSpaceOnUse" x1="9" x2="9" y1="774.201" y2="778.831"><stop offset="0" stop-color="#ccc"/><stop offset="1" stop-color="#707070"/></linearGradient><rect fill="url(#a)" height="12" rx=".6" width="18" y=".685"/><path d="m12.61 16.315c-1.78-.28-1.85-1.56-1.85-3.63h-3.53c0 2.07-.06 3.35-1.84 3.63a1 1 0 0 0 -.89 1h9a1 1 0 0 0 -.89-1" fill="url(#b)"/><g fill="#fff"><path d="m10.109 2.179a.277.277 0 0 0 -.135.538 4.107 4.107 0 1 1 -4.486 1.837l.111.077.779.543a.048.048 0 0 0 .05-.056l-.183-2.124a.05.05 0 0 0 -.055-.039l-1.99.645a.048.048 0 0 0 -.034.067l.821.541.046.031a4.647 4.647 0 1 0 5.079-2.06z" opacity=".8"/><path d="m11.183 5.8-.334-.579.181-1.056-.849-.49-.824.685h-.668l-.824-.685-.849.49.184 1.06-.337.575-1.005.371v.981l1.005.371.334.578-.181 1.061.849.49.824-.685h.668l.824.685.849-.49-.181-1.057.334-.578 1.005-.371v-.981zm-2.16 2.346a1.481 1.481 0 1 1 1.477-1.481 1.48 1.48 0 0 1 -1.477 1.481"/></g>​</svg>