<svg height="74" viewBox="0 0 74 74" width="74" xmlns="http://www.w3.org/2000/svg"><g fill="none" fill-rule="evenodd"><path d="m5 5h64v64h-64z" fill="#dd344c"/><path d="m1 1h72v72h-72z" stroke="#879196" stroke-width="2"/><path d="m38.52 42h-33.04l-2.398-3h37.837zm-32.52-22.842c0-.638.52-1.158 1.159-1.158h2.84v19h-3.999zm8-5.158a1 1 0 0 0 1-1v-4h3v28h-6v-23zm6 23h4v-31h-4zm9-28v4a1 1 0 0 0 1 1h2v23h-6v-28zm7.842 9c.639 0 1.158.52 1.158 1.158v17.842h-4v-19zm7.06 19.567a1 1 0 0 0 -.902-.567h-3v-17.842a3.16 3.16 0 0 0 -3.158-3.158h-2.842v-3a1 1 0 0 0 -1-1h-2v-4a1 1 0 0 0 -1-1h-4v-2a1 1 0 0 0 -1-1h-2v-4h-2v4h-2a1 1 0 0 0 -1 1v2h-4a1 1 0 0 0 -1 1v4h-2a1 1 0 0 0 -1 1v3h-2.841a3.16 3.16 0 0 0 -3.16 3.158v17.842h-2.999a1 1 0 0 0 -.78 1.625l4 5c.19.237.478.375.78.375h34c.305 0 .592-.138.783-.375l4-5c.24-.3.286-.712.12-1.058" fill="#fff" transform="translate(15 15)"/></g></svg>