<svg height="18" viewBox="0 0 18 18" width="18" xmlns="http://www.w3.org/2000/svg" xmlns:xlink="http://www.w3.org/1999/xlink"><linearGradient id="a" gradientUnits="userSpaceOnUse" x1="9.252" x2="9.252" y1="16.005" y2="1.972"><stop offset="0" stop-color="#b3b4b4"/><stop offset=".33" stop-color="#b3b4b4"/><stop offset=".82" stop-color="#cccccb"/><stop offset="1" stop-color="#cccccb"/></linearGradient><linearGradient id="b" gradientUnits="userSpaceOnUse" x1="10.558" x2="10.439" y1="15.244" y2="17.218"><stop offset=".317" stop-color="#33bedd"/><stop offset="1" stop-color="#74cfeb"/></linearGradient><linearGradient id="c" gradientUnits="userSpaceOnUse" x1="9" x2="9" y1="14.113" y2="3.938"><stop offset="0" stop-color="#616261"/><stop offset="1" stop-color="#b6b8ba"/></linearGradient><path d="m11.167 17.718-10.079-4.535a1.52 1.52 0 0 1 -.806-2.016l4.535-10.079a1.52 1.52 0 0 1 2.016-.806l10.079 4.535a1.52 1.52 0 0 1 .806 2.016l-4.535 10.079a1.52 1.52 0 0 1 -2.016.806" fill="#74cfeb"/><path d="m15.9 5.12-2.717-2.72a1.3 1.3 0 0 0 -1.008-.4h-8.567a1.38 1.38 0 0 0 -1.408 1.406v11.188a1.38 1.38 0 0 0 1.411 1.411h11.289a1.38 1.38 0 0 0 1.411-1.411v-8.466a1.54 1.54 0 0 0 -.4-1.008z" fill="url(#a)"/><path d="m7.449 16.005 3.7 1.652c1.166.681 2.139-.777 2.43-1.652" fill="url(#b)"/><path d="m14.087 9.575v-1.16l-.162-.061-1.242-.407-.325-.794.63-1.343-.814-.81-.162.081-1.16.591-.794-.326-.509-1.4h-1.159l-.062.154-.407 1.242-.793.326-1.323-.631-.814.814.082.163.59 1.159-.326.794-1.424.509v1.16l.162.061 1.242.407.325.793-.63 1.343.814.814.162-.081 1.16-.59.794.325.509 1.4h1.159l.062-.163.407-1.242.793-.325 1.343.631.814-.814-.081-.163-.59-1.16.325-.794z" fill="url(#c)"/><path d="m9.652 6.292a.1.1 0 0 0 -.052-.013.14.14 0 0 0 -.094.053l-2.306 3.355a.13.13 0 0 0 -.013.121.14.14 0 0 0 .107.067h1.378l-.617 2.025a.1.1 0 0 0 .054.135.1.1 0 0 0 .053.013.13.13 0 0 0 .094-.048l2.376-3.4c.013-.027.026-.04.026-.067a.12.12 0 0 0 -.12-.121h-1.423l.591-1.986a.1.1 0 0 0 -.054-.134" fill="#fff"/></svg>