<svg xmlns="http://www.w3.org/2000/svg" viewBox="0 0 128 128"><defs><clipPath id="a"><path d="M18.8 1h90.5v126H18.8z"/></clipPath><mask id="b"><path fill="#fff" d="M0 0h128v128H0z"/><path fill-rule="evenodd" d="M65.2 22.2c2.4 14.2 25.6 10.4 22.3-3.9-3-12.8-23.1-9.2-22.3 3.9" clip-path="url(#a)" clip-rule="evenodd"/><path fill-rule="evenodd" d="M37.5 24.5c3.2 12.3 22.9 9.2 22.2-3.2-.9-14.8-25.3-12-22.2 3.2" clip-path="url(#a)" clip-rule="evenodd"/><path fill-rule="evenodd" d="M68 39.2c0 1.8.4 3.9.1 5.9-.5.9-1.4 1-2.2 1.3-1.1-.2-2-.9-2.5-1.9-.3-2.2.1-4.4.2-6.6z" clip-path="url(#a)" clip-rule="evenodd"/><path d="M45.2 23.3c0 .5-.4.9-.8.9s-.8-.4-.8-.9.4-.9.8-.9c.5 0 .8.4.8.9" clip-path="url(#a)"/><path d="M73.2 22.4c0 .5-.3.9-.8.9-.4 0-.8-.4-.8-.9s.3-.9.8-.9c.4 0 .8.4.8.9M58.4 39c-1.5 3.5.8 10.6 4.8 5.4-.3-2.2.1-4.4.2-6.6z" clip-path="url(#a)"/></mask></defs><g fill="currentColor" fill-rule="evenodd" clip-rule="evenodd" mask="url(#b)"><path d="M21.1 68.7c.2 3.5 3.7 1.9 5.3.8 1.5-1.1 2-.2 2.1-2.3.1-1.4.2-2.7.2-4.1-2.3-.2-4.8.3-6.7 1.7-.9.7-2.8 3-.9 3.9" clip-path="url(#a)"/><path d="M21.1 68.7c.5-.2 1.1-.3 1.4-.8" clip-path="url(#a)"/><path d="M29.3 26.4c-13.6-3.8-3.5-21.1 7.4-14z" clip-path="url(#a)"/><path d="M89.6 11.1c10.7-7.5 20.5 9.5 8 13.8z" clip-path="url(#a)"/><path d="M92 112.3c2.7 1.7 7.7 6.8 3.6 9.3-3.9 3.6-6.1-4-9.6-5 1.5-2 3.4-3.9 6-4.3" clip-path="url(#a)"/><path d="M43.2 118.1c-3.2.5-5 3.4-7.7 4.9-2.5 1.5-3.5-.5-3.7-.9-.4-.2-.4.2-1-.4-2.3-3.7 2.4-6.4 4.9-8.2 3.5-.8 5.7 2.2 7.5 4.6" clip-path="url(#a)"/><path d="M107.1 68.2c-.2 3.5-3.7 1.9-5.3.8-1.5-1.1-2-.2-2.1-2.3-.1-1.4-.2-2.7-.2-4.1 2.3-.2 4.8.3 6.7 1.7 1 .8 2.8 3 .9 3.9" clip-path="url(#a)"/><path d="M107.1 68.2c-.5-.2-1.1-.3-1.4-.8" clip-path="url(#a)"/><path d="M62.8 4c13.6 0 26.3 1.9 33 15 6 14.6 3.8 30.4 4.8 45.9.8 13.3 2.5 28.6-3.6 40.9-6.5 12.9-22.7 16.2-36 15.7-10.5-.4-23.1-3.8-29.1-13.4-6.9-11.2-3.7-27.9-3.2-40.4.6-14.8-4-29.7.9-44.1C34.5 8.5 48.1 5.1 62.8 4" clip-path="url(#a)"/></g><path fill="currentColor" fill-rule="evenodd" d="M58.9 32.2c-2.7.2-4.9 3.5-3.5 6 1.9 3.4 6-.3 8.6 0 3 .1 5.4 3.2 7.8.6 2.7-2.9-1.2-5.7-4.1-7z" clip-path="url(#a)" clip-rule="evenodd"/><path fill="currentColor" d="M69.7 40.2c-.9 0-1.8-.4-2.7-.8s-1.9-.8-3-.8h-.3c-.8 0-1.7.3-2.7.7-1.1.4-2.2.7-3.2.7-1.2 0-2.1-.5-2.7-1.6-.7-1.2-.6-2.6.1-3.9.8-1.5 2.2-2.4 3.7-2.6l8.9-.4h.1c2.2.9 4.7 2.6 5.2 4.6.2 1-.1 2-.9 2.9s-1.6 1.2-2.5 1.2M64.1 38c1.1 0 2.2.5 3.2.9.9.4 1.7.7 2.5.7.7 0 1.3-.3 1.9-.9.7-.7.9-1.5.8-2.3-.4-1.7-2.8-3.3-4.7-4.1l-8.7.4c-1.3.1-2.5 1-3.2 2.2-.6 1.1-.6 2.3-.1 3.3.5.9 1.1 1.3 2.1 1.3.9 0 1.9-.4 2.9-.7 1.1-.4 2-.7 3-.7 0-.2.1-.2.3-.1" clip-path="url(#a)"/></svg>