<svg xmlns="http://www.w3.org/2000/svg" width="64" height="64" viewBox="0 0 64 64"><title>Icon-Architecture/48/Arch_AWS-HealthLake_48</title><g id="Icon-Architecture/48/Arch_AWS-HealthLake_48" fill="none" fill-rule="evenodd" stroke="none" stroke-width="1"><g id="Icon-Architecture-BG/48/Machine-Learning" fill="#01a88d"><path id="Rectangle" d="M0 0h64v64H0z"/></g><g id="Icon-Service/48/AWS-HealthLake_48" fill="#fff" transform="translate(10 10)"><path id="Fill-5" d="M37 27h2v-4h-2zm5 8h-3a1 1 0 0 1-1-1v-3h-3v3a1 1 0 0 1-1 1h-3v3h3a1 1 0 0 1 1 1v3h3v-3a1 1 0 0 1 1-1h3zm2-1v5a1 1 0 0 1-1 1h-3v3a1 1 0 0 1-1 1h-5a1 1 0 0 1-1-1v-3h-3a1 1 0 0 1-1-1v-5a1 1 0 0 1 1-1h3v-3a1 1 0 0 1 1-1h5a1 1 0 0 1 1 1v3h3a1 1 0 0 1 1 1M17 6h10V2H17zm-2 1V1a1 1 0 0 1 1-1h12a1 1 0 0 1 1 1v6a1 1 0 0 1-1 1H16a1 1 0 0 1-1-1M7 4c0-.551.448-1 1-1h5V1H8C6.346 1 5 2.346 5 4v12h2zm30 0v12h2V4c0-1.654-1.346-3-3-3h-5v2h5c.552 0 1 .449 1 1M7 41V23H5v18c0 1.654 1.346 3 3 3h22v-2H8c-.552 0-1-.449-1-1m23.693-22-2.756-7.351a1 1 0 0 0-.884-.648 1.02 1.02 0 0 0-.948.552l-4.256 8.514-4.036-5.648a.98.98 0 0 0-.853-.418 1 1 0 0 0-.817.484L13.434 19H0v2h14a1 1 0 0 0 .857-.485l2.216-3.693 4.114 5.759a1 1 0 0 0 1.708-.134l3.974-7.948 2.194 5.852c.147.39.52.649.937.649h14v-2zM10 33h14v-2H10zm0 5h14v-2H10z"/></g></g></svg>