<svg height="64" viewBox="0 0 64 64" width="64" xmlns="http://www.w3.org/2000/svg"><g fill="none" fill-rule="evenodd"><path d="m0 0h64v64h-64z" fill="#01a88d"/><path d="m37 27h2v-4h-2zm5 8h-3a1 1 0 0 1 -1-1v-3h-3v3a1 1 0 0 1 -1 1h-3v3h3a1 1 0 0 1 1 1v3h3v-3a1 1 0 0 1 1-1h3zm2-1v5a1 1 0 0 1 -1 1h-3v3a1 1 0 0 1 -1 1h-5a1 1 0 0 1 -1-1v-3h-3a1 1 0 0 1 -1-1v-5a1 1 0 0 1 1-1h3v-3a1 1 0 0 1 1-1h5a1 1 0 0 1 1 1v3h3a1 1 0 0 1 1 1m-27-28h10v-4h-10zm-2 1v-6a1 1 0 0 1 1-1h12a1 1 0 0 1 1 1v6a1 1 0 0 1 -1 1h-12a1 1 0 0 1 -1-1m-8-3c0-.551.448-1 1-1h5v-2h-5c-1.654 0-3 1.346-3 3v12h2zm30 0v12h2v-12c0-1.654-1.346-3-3-3h-5v2h5c.552 0 1 .449 1 1m-30 37v-18h-2v18c0 1.654 1.346 3 3 3h22v-2h-22c-.552 0-1-.449-1-1m23.693-22-2.756-7.351a1 1 0 0 0 -.884-.648 1.02 1.02 0 0 0 -.948.552l-4.256 8.514-4.036-5.648a.98.98 0 0 0 -.853-.418 1 1 0 0 0 -.817.484l-2.709 4.515h-13.434v2h14a1 1 0 0 0 .857-.485l2.216-3.693 4.114 5.759a1 1 0 0 0 1.708-.134l3.974-7.948 2.194 5.852c.147.39.52.649.937.649h14v-2zm-20.693 14h14v-2h-14zm0 5h14v-2h-14z" fill="#fff" transform="translate(10 10)"/></g></svg>