<svg viewBox="0 0 24 24" xmlns="http://www.w3.org/2000/svg" fill="#F38020"><path d="m10.715 14.32h-5.273l-.64-1.203 8.871-13.117 1.397.579-1.752 9.112h5.24l.648 1.192-8.487 13.117-1.412-.54zm-6.624-8.872a.5787.5787 0 1 1 0-1.1574.5787.5787 0 0 1 0 1.1574zm1.543 0a.5787.5787 0 1 1 0-1.1574.5787.5787 0 0 1 0 1.1574zm1.544 0a.5787.5787 0 1 1 0-1.1574.5787.5787 0 0 1 0 1.1574zm8.657-2.7h5.424l.772.771v16.975l-.772.772h-7.392l.374-.579h6.779l.432-.432v-16.497l-.432-.432h-4.676l-.552 2.85h-.59l.529-2.877.108-.552zm-13.095 18.517-.772-.772v-16.975l.772-.771h7.677l-.386.579h-7.051l-.432.432v16.496l.432.432h5.586l-.092.579zm1.157-1.93h3.28l-.116.58h-3.55l-.192-.193v-3.473l.578 1.158zm13.117 0 .579.58h-2.893l.385-.58z"/></svg>