<svg xmlns="http://www.w3.org/2000/svg" width="26" height="26" fill="none" viewBox="0 0 26 26"><g clip-path="url(#clip0_1215_3872)"><g clip-path="url(#clip1_1215_3872)"><path fill="#fff" d="M0 0h26v26H0z"/><path fill="url(#paint0_linear_1215_3872)" d="M0 0h26v26H0z"/><path fill="url(#paint1_radial_1215_3872)" fill-opacity=".8" d="M0 0h26v26H0z"/><g style="mix-blend-mode:overlay"><path fill="url(#paint2_radial_1215_3872)" d="M0 0h26v26H0z"/><path fill="url(#paint3_radial_1215_3872)" d="M0 0h26v26H0z"/></g></g><path fill="url(#paint4_linear_1215_3872)" fill-rule="evenodd" d="M11.5 18.5v-3h-6v3a3 3 0 1 0 6 0m-5-2h4v2l-.005.15A2 2 0 0 1 8.5 20.5l-.15-.006A2 2 0 0 1 6.5 18.5z" clip-rule="evenodd"/><path fill="#4200ff" fill-rule="evenodd" d="M5.5 8.5v3h6v-3a3 3 0 1 0-6 0m5 2h-4v-2l.005-.15A2 2 0 0 1 8.5 6.5l.15.005A2 2 0 0 1 10.5 8.5z" clip-rule="evenodd"/><path fill="url(#paint5_linear_1215_3872)" fill-rule="evenodd" d="M11.5 16.5v-6h-6v6zm-5-5h4v4h-4z" clip-rule="evenodd"/><path fill="url(#paint6_linear_1215_3872)" fill-rule="evenodd" d="M18.5 5.5h-3v6h3a3 3 0 1 0 0-6m-1.999 5v-4H18.5l.15.005A2 2 0 0 1 20.5 8.5l-.006.15A2 2 0 0 1 18.5 10.5z" clip-rule="evenodd"/><path fill="url(#paint7_linear_1215_3872)" fill-rule="evenodd" d="M10.5 8.5v3h6v-6h-3a3 3 0 0 0-3 3m3-2h2v4h-4v-2l.005-.15A2 2 0 0 1 13.5 6.5" clip-rule="evenodd"/></g><defs><linearGradient id="paint0_linear_1215_3872" x1="13" x2="13" y1="0" y2="26" gradientUnits="userSpaceOnUse"><stop stop-color="#fff" stop-opacity="0"/><stop offset="1" stop-color="#fff"/></linearGradient><linearGradient id="paint4_linear_1215_3872" x1="6" x2="6" y1="16.499" y2="21.5" gradientUnits="userSpaceOnUse"><stop stop-color="#f0a"/><stop offset="1" stop-color="#fa0"/></linearGradient><linearGradient id="paint5_linear_1215_3872" x1="5.988" x2="5.988" y1="11.477" y2="16.5" gradientUnits="userSpaceOnUse"><stop stop-color="#4200ff"/><stop offset="1" stop-color="#f0a"/></linearGradient><linearGradient id="paint6_linear_1215_3872" x1="16.517" x2="21.5" y1="10.992" y2="10.992" gradientUnits="userSpaceOnUse"><stop stop-color="#0af"/><stop offset="1" stop-color="#0fa"/></linearGradient><linearGradient id="paint7_linear_1215_3872" x1="16.5" x2="11.497" y1="5.998" y2="5.998" gradientUnits="userSpaceOnUse"><stop stop-color="#0af"/><stop offset="1" stop-color="#4200ff"/></linearGradient><radialGradient id="paint1_radial_1215_3872" cx="0" cy="0" r="1" gradientTransform="rotate(256.135 24.205 7.206)scale(60.94 68.5315)" gradientUnits="userSpaceOnUse"><stop stop-color="#fff" stop-opacity="0"/><stop offset="1" stop-color="#c6c6c6"/><stop offset="1" stop-color="#c6c6c6"/></radialGradient><radialGradient id="paint2_radial_1215_3872" cx="0" cy="0" r="1" gradientTransform="rotate(-80.6 17.196 10.8)scale(17.6864 18.7096)" gradientUnits="userSpaceOnUse"><stop stop-color="#fa0"/><stop offset=".49" stop-color="#f0a"/><stop offset="1" stop-color="#4200ff"/></radialGradient><radialGradient id="paint3_radial_1215_3872" cx="0" cy="0" r="1" gradientTransform="rotate(179.35 12.991 1.605)scale(15.2894 48.4386)" gradientUnits="userSpaceOnUse"><stop offset=".26" stop-color="#0fa"/><stop offset=".49" stop-color="#0af"/><stop offset="1" stop-color="#4200ff" stop-opacity="0"/></radialGradient><clipPath id="clip0_1215_3872"><rect width="26" height="26" fill="#fff" rx="8"/></clipPath><clipPath id="clip1_1215_3872"><path fill="#fff" d="M0 0h26v26H0z"/></clipPath></defs></svg>