<svg xmlns="http://www.w3.org/2000/svg" width="26" height="26" fill="none" viewBox="0 0 26 26"><linearGradient id="c" x1="13" x2="13" y1="0" y2="26" gradientUnits="userSpaceOnUse"><stop offset="0" stop-color="#fff" stop-opacity="0"/><stop offset="1" stop-color="#fff"/></linearGradient><linearGradient id="g" x1="6" x2="6" y1="16.499" y2="21.5" gradientUnits="userSpaceOnUse"><stop offset="0" stop-color="#f0a"/><stop offset="1" stop-color="#fa0"/></linearGradient><linearGradient id="h" x1="5.988" x2="5.988" y1="11.477" y2="16.5" gradientUnits="userSpaceOnUse"><stop offset="0" stop-color="#4200ff"/><stop offset="1" stop-color="#f0a"/></linearGradient><linearGradient id="i" x1="16.517" x2="21.5" y1="10.992" y2="10.992" gradientUnits="userSpaceOnUse"><stop offset="0" stop-color="#0af"/><stop offset="1" stop-color="#0fa"/></linearGradient><linearGradient id="j" x1="16.5" x2="11.497" y1="5.998" y2="5.998" gradientUnits="userSpaceOnUse"><stop offset="0" stop-color="#0af"/><stop offset="1" stop-color="#4200ff"/></linearGradient><radialGradient id="d" cx="0" cy="0" r="1" gradientTransform="rotate(256.135 24.205 7.206)scale(60.94 68.5315)" gradientUnits="userSpaceOnUse"><stop offset="0" stop-color="#fff" stop-opacity="0"/><stop offset="1" stop-color="#c6c6c6"/></radialGradient><radialGradient id="e" cx="0" cy="0" r="1" gradientTransform="rotate(-80.6 17.196 10.8)scale(17.6864 18.7096)" gradientUnits="userSpaceOnUse"><stop offset="0" stop-color="#fa0"/><stop offset=".49" stop-color="#f0a"/><stop offset="1" stop-color="#4200ff"/></radialGradient><radialGradient id="f" cx="0" cy="0" r="1" gradientTransform="rotate(179.35 12.991 1.605)scale(15.2894 48.4386)" gradientUnits="userSpaceOnUse"><stop offset=".26" stop-color="#0fa"/><stop offset=".49" stop-color="#0af"/><stop offset="1" stop-color="#4200ff" stop-opacity="0"/></radialGradient><clipPath id="a"><rect width="26" height="26" rx="8"/></clipPath><clipPath id="b"><path d="M0 0h26v26H0z"/></clipPath><g clip-path="url(#a)"><g clip-path="url(#b)"><path fill="#fff" d="M0 0h26v26H0z"/><path fill="url(#c)" d="M0 0h26v26H0z"/><path fill="url(#d)" fill-opacity=".8" d="M0 0h26v26H0z"/><path fill="url(#e)" d="M0 0h26v26H0z"/><path fill="url(#f)" d="M0 0h26v26H0z"/></g><g fill-rule="evenodd" clip-rule="evenodd"><path fill="url(#g)" d="M11.5 18.5v-3h-6v3a3 3 0 1 0 6 0m-5-2h4v2l-.005.15A2 2 0 0 1 8.5 20.5l-.15-.006A2 2 0 0 1 6.5 18.5z"/><path fill="#4200ff" d="M5.5 8.5v3h6v-3a3 3 0 1 0-6 0m5 2h-4v-2l.005-.15A2 2 0 0 1 8.5 6.5l.15.005A2 2 0 0 1 10.5 8.5z"/><path fill="url(#h)" d="M11.5 16.5v-6h-6v6zm-5-5h4v4h-4z"/><path fill="url(#i)" d="M18.5 5.5h-3v6h3a3 3 0 1 0 0-6m-1.999 5v-4H18.5l.15.005A2 2 0 0 1 20.5 8.5l-.006.15A2 2 0 0 1 18.5 10.5z"/><path fill="url(#j)" d="M10.5 8.5v3h6v-6h-3a3 3 0 0 0-3 3m3-2h2v4h-4v-2l.005-.15A2 2 0 0 1 13.5 6.5"/></g></g></svg>