<svg fill="none" height="26" viewBox="0 0 26 26" width="26" xmlns="http://www.w3.org/2000/svg" xmlns:xlink="http://www.w3.org/1999/xlink"><linearGradient id="a" gradientUnits="userSpaceOnUse" x1="13" x2="13" y1="0" y2="26"><stop offset="0" stop-color="#fff" stop-opacity="0"/><stop offset="1" stop-color="#fff"/></linearGradient><linearGradient id="b" gradientUnits="userSpaceOnUse" x1="6" x2="6" y1="16.499" y2="21.5"><stop offset="0" stop-color="#f0a"/><stop offset="1" stop-color="#fa0"/></linearGradient><linearGradient id="c" gradientUnits="userSpaceOnUse" x1="5.988" x2="5.988" y1="11.477" y2="16.5"><stop offset="0" stop-color="#4200ff"/><stop offset="1" stop-color="#f0a"/></linearGradient><linearGradient id="d" gradientUnits="userSpaceOnUse" x1="16.517" x2="21.5" y1="10.992" y2="10.992"><stop offset="0" stop-color="#0af"/><stop offset="1" stop-color="#0fa"/></linearGradient><linearGradient id="e" gradientUnits="userSpaceOnUse" x1="16.5" x2="11.497" y1="5.998" y2="5.998"><stop offset="0" stop-color="#0af"/><stop offset="1" stop-color="#4200ff"/></linearGradient><radialGradient id="f" cx="0" cy="0" gradientTransform="matrix(-14.60335816 -59.16439411 66.53470093 -16.42254742 23.009327 32.43255)" gradientUnits="userSpaceOnUse" r="1"><stop offset="0" stop-color="#fff" stop-opacity="0"/><stop offset="1" stop-color="#c6c6c6"/></radialGradient><radialGradient id="g" cx="0" cy="0" gradientTransform="matrix(2.8886483 -17.44890988 18.45837051 3.05576342 3.732467 26.001174)" gradientUnits="userSpaceOnUse" r="1"><stop offset="0" stop-color="#fa0"/><stop offset=".49" stop-color="#f0a"/><stop offset="1" stop-color="#4200ff"/></radialGradient><radialGradient id="h" cx="0" cy="0" gradientTransform="matrix(-15.28841613 .17344902 -.5495067 -48.43548299 25.999372 3.062522)" gradientUnits="userSpaceOnUse" r="1"><stop offset=".26" stop-color="#0fa"/><stop offset=".49" stop-color="#0af"/><stop offset="1" stop-color="#4200ff" stop-opacity="0"/></radialGradient><clipPath id="i"><rect height="26" rx="8" width="26"/></clipPath><clipPath id="j"><path d="m0 0h26v26h-26z"/></clipPath><g clip-path="url(#i)"><g clip-path="url(#j)"><path d="m0 0h26v26h-26z" fill="#fff"/><path d="m0 0h26v26h-26z" fill="url(#a)"/><path d="m0 0h26v26h-26z" fill="url(#f)" fill-opacity=".8"/><path d="m0 0h26v26h-26z" fill="url(#g)"/><path d="m0 0h26v26h-26z" fill="url(#h)"/></g><g clip-rule="evenodd" fill-rule="evenodd"><path d="m11.5 18.5v-3h-6v3a3 3 0 1 0 6 0m-5-2h4v2l-.005.15a2 2 0 0 1 -1.995 1.85l-.15-.006a2 2 0 0 1 -1.85-1.994z" fill="url(#b)"/><path d="m5.5 8.5v3h6v-3a3 3 0 1 0 -6 0m5 2h-4v-2l.005-.15a2 2 0 0 1 1.995-1.85l.15.005a2 2 0 0 1 1.85 1.995z" fill="#4200ff"/><path d="m11.5 16.5v-6h-6v6zm-5-5h4v4h-4z" fill="url(#c)"/><path d="m18.5 5.5h-3v6h3a3 3 0 1 0 0-6m-1.999 5v-4h1.999l.15.005a2 2 0 0 1 1.85 1.995l-.006.15a2 2 0 0 1 -1.994 1.85z" fill="url(#d)"/><path d="m10.5 8.5v3h6v-6h-3a3 3 0 0 0 -3 3m3-2h2v4h-4v-2l.005-.15a2 2 0 0 1 1.995-1.85" fill="url(#e)"/></g></g></svg>