<svg xmlns="http://www.w3.org/2000/svg" viewBox="0 0 128 128">
  <defs>
    <clipPath id="b"><path d="M0 0h128v180H0z"/></clipPath>
    <clipPath id="f"><path d="M0 0h128v180H0z"/></clipPath>
    <clipPath id="i"><path d="M0 0h128v180H0z"/></clipPath>
    <clipPath id="k"><path d="M0 0h128v180H0z"/></clipPath>
    <clipPath id="p"><path d="M0 0h128v180H0z"/></clipPath>
    <clipPath id="r"><path d="M0 0h128v180H0z"/></clipPath>
    <mask id="wko">
      <rect width="128" height="128" fill="white"/>
      <path fill="black" d="M68.145 9.473s1.003 6.757-.137 9.71l-49.145 127.08.008.004c-3.508 9.332 1.192 19.754 10.563 23.34a18.5 18.5 0 0 0 4.941 1.136c-6.316-4.726-9.027-13.18-6.129-20.89l-.008-.004L76.406 25.293s-6.554-6.125-8.261-15.82m0 0"/>
      <path fill="black" d="M53.746 91.45c0 .78-.637 1.413-1.422 1.413a1.42 1.42 0 0 1-1.426-1.414 1.42 1.42 0 0 1 1.426-1.418c.785 0 1.422.633 1.422 1.418zm0 0"/>
      <path fill="black" d="M63.805 101.715c0 1.18-.961 2.137-2.149 2.137a2.14 2.14 0 0 1-2.144-2.137c0-1.18.96-2.133 2.144-2.133a2.14 2.14 0 0 1 2.149 2.133m0 0"/>
      <path fill="black" d="M51.434 113.926c0 2.21-1.801 4.004-4.024 4.004-2.226 0-4.027-1.793-4.027-4.004s1.8-4.004 4.027-4.004c2.223 0 4.024 1.793 4.024 4.004m0 0"/>
      <path fill="black" d="M43.035 121.332c0 1.18-.96 2.133-2.144 2.133a2.14 2.14 0 0 1-2.149-2.133c0-1.18.961-2.137 2.149-2.137 1.183 0 2.144.957 2.144 2.137m0 0"/>
    </mask>
  </defs>
  <g fill="currentColor" mask="url(#wko)">
    <path fill="currentColor" d="M66.874 5.565a1.6 1.6 0 0 0-.011.694s.739 4.874-.1 7.04l-35.625 92.12.006.003c-2.543 6.765.863 14.32 7.657 16.92 6.793 2.596 14.413-.74 17.083-7.456h.003l35.626-92.12c.693-1.802 4.666-5.293 4.666-5.293q.3-.227.462-.521l.017-.037c.017-.037.04-.074.056-.113.918-2.376-5.006-6.853-13.235-10.002-8.226-3.146-15.642-3.772-16.56-1.396q-.02.06-.037.125zm0 0"/>
    <path fill="currentColor" d="m78.048 47.24-25.69 66.434.018.006c-1.897 4.76-7.41 7.237-12.301 5.366-4.893-1.87-7.54-7.467-5.737-12.267L50.753 64.33s2.05-3.29 6.074-5.629c4.027-2.339 7.346-1.846 11.814-3.823 4.471-1.973 9.407-7.64 9.407-7.64zm0 0"/>
    <path fill="currentColor" d="M90.975 14.882c.515-1.334-3.206-4.001-8.311-5.955s-9.665-2.453-10.183-1.119c-.516 1.337 3.205 4.004 8.31 5.955 5.11 1.954 9.665 2.455 10.184 1.119m0 0"/>
  </g>
</svg>