<svg viewBox="0 0 128 128" xmlns="http://www.w3.org/2000/svg" xmlns:xlink="http://www.w3.org/1999/xlink"><clipPath id="a"><path d="m0 0h128v180h-128z"/></clipPath><clipPath id="b"><path d="m0 0h128v180h-128z"/></clipPath><clipPath id="c"><path d="m0 0h128v180h-128z"/></clipPath><clipPath id="d"><path d="m0 0h128v180h-128z"/></clipPath><clipPath id="e"><path d="m0 0h128v180h-128z"/></clipPath><clipPath id="f"><path d="m0 0h128v180h-128z"/></clipPath><mask id="g"><g filter="url(#o)"><path d="m0 0h128v180h-128z" fill-opacity=".102"/></g></mask><mask id="h"><g filter="url(#o)"><path d="m0 0h128v180h-128z" fill-opacity=".302"/></g></mask><mask id="i"><g filter="url(#o)"><path d="m0 0h128v180h-128z" fill-opacity=".502"/></g></mask><mask id="j"><g filter="url(#o)"><path d="m0 0h128v180h-128z" fill-opacity=".502"/></g></mask><mask id="k"><g filter="url(#o)"><path d="m0 0h128v180h-128z" fill-opacity=".502"/></g></mask><mask id="l"><g filter="url(#o)"><path d="m0 0h128v180h-128z" fill-opacity=".502"/></g></mask><linearGradient id="m" gradientTransform="matrix(.26902 -.11893 .11958 .26755 -35.038 25.835)" gradientUnits="userSpaceOnUse" x1="206.458" x2="283.129" y1="215.263" y2="291.934"><stop offset="0" stop-color="#919191"/><stop offset="1" stop-color="#fff"/></linearGradient><linearGradient id="n" gradientTransform="matrix(.26902 -.11893 .11958 .26755 -35.038 25.835)" gradientUnits="userSpaceOnUse" x1="177.629" x2="224.046" y1="273.752" y2="320.169"><stop offset="0" stop-color="#900"/><stop offset="1" stop-color="#e80000"/></linearGradient><filter id="o" height="1" width="1" x="0" y="0"><feColorMatrix in="SourceGraphic" values="0 0 0 0 1 0 0 0 0 1 0 0 0 0 1 0 0 0 1 0"/></filter><g clip-path="url(#a)" height="100%" mask="url(#g)" transform="matrix(.72491 0 0 .72491 17.464 -.608)" width="100%"><path d="m69.578 9.598a2.231 2.231 0 0 0 -.012.953s1.016 6.722-.14 9.715l-49.14 127.078h.003c-3.508 9.336 1.195 19.754 10.566 23.34 9.372 3.586 19.88-1.02 23.567-10.286l.004.004 49.14-127.078c.961-2.488 6.442-7.304 6.442-7.304.273-.207.488-.446.633-.715l.023-.051c.027-.055.059-.106.078-.16 1.27-3.278-6.906-9.453-18.254-13.793-11.351-4.341-21.578-5.203-22.843-1.926-.024.055-.036.113-.051.168zm0 0"/></g><path d="m66.874 5.565a1.585 1.585 0 0 0 -.011.694s.739 4.874-.1 7.04l-35.625 92.12.006.003c-2.543 6.765.863 14.32 7.657 16.92 6.793 2.596 14.413-.74 17.083-7.456h.003l35.626-92.12c.693-1.802 4.666-5.293 4.666-5.293.201-.15.354-.326.462-.521l.017-.037c.017-.037.04-.074.056-.113.918-2.376-5.006-6.853-13.235-10.002-8.226-3.146-15.642-3.772-16.56-1.396-.014.04-.025.082-.037.125zm0 0" fill="url(#m)"/><path d="m78.048 47.24-25.69 66.434.018.006c-1.897 4.76-7.41 7.237-12.301 5.366-4.893-1.87-7.54-7.467-5.737-12.267l16.415-42.449s2.05-3.29 6.074-5.629c4.027-2.339 7.346-1.846 11.814-3.823 4.471-1.973 9.407-7.64 9.407-7.64zm0 0" fill="url(#n)"/><path d="m90.975 14.882c.515-1.334-3.206-4.001-8.311-5.955-5.106-1.954-9.665-2.453-10.183-1.119-.516 1.337 3.205 4.004 8.31 5.955 5.11 1.954 9.665 2.455 10.184 1.119zm0 0" fill="#333"/><g clip-path="url(#b)" height="100%" mask="url(#h)" transform="matrix(.72491 0 0 .72491 17.464 -.608)" width="100%"><path d="m68.145 9.473s1.003 6.757-.137 9.71l-49.145 127.08.008.004c-3.508 9.332 1.192 19.754 10.563 23.34 1.628.62 3.285.988 4.941 1.136-6.316-4.726-9.027-13.18-6.129-20.89l-.008-.004 48.168-124.556s-6.554-6.125-8.261-15.82zm0 0" fill="#fff"/></g><g clip-path="url(#c)" height="100%" mask="url(#i)" transform="matrix(.72491 0 0 .72491 17.464 -.608)" width="100%"><path d="m53.746 91.45c0 .78-.637 1.413-1.422 1.413-.789 0-1.426-.633-1.426-1.414a1.42 1.42 0 0 1 1.426-1.418c.785 0 1.422.633 1.422 1.418zm0 0" fill="#fff"/></g><g clip-path="url(#d)" height="100%" mask="url(#j)" transform="matrix(.72491 0 0 .72491 17.464 -.608)" width="100%"><path d="m63.805 101.715c0 1.18-.961 2.137-2.149 2.137a2.141 2.141 0 0 1 -2.144-2.137c0-1.18.96-2.133 2.144-2.133 1.188 0 2.149.953 2.149 2.133zm0 0" fill="#fff"/></g><g clip-path="url(#e)" height="100%" mask="url(#k)" transform="matrix(.72491 0 0 .72491 17.464 -.608)" width="100%"><path d="m51.434 113.926c0 2.21-1.801 4.004-4.024 4.004-2.226 0-4.027-1.793-4.027-4.004s1.8-4.004 4.027-4.004c2.223 0 4.024 1.793 4.024 4.004zm0 0" fill="#fff"/></g><g clip-path="url(#f)" height="100%" mask="url(#l)" transform="matrix(.72491 0 0 .72491 17.464 -.608)" width="100%"><path d="m43.035 121.332c0 1.18-.96 2.133-2.144 2.133a2.139 2.139 0 0 1 -2.149-2.133c0-1.18.961-2.137 2.149-2.137 1.183 0 2.144.957 2.144 2.137zm0 0" fill="#fff"/></g></svg>