<svg viewBox="0 0 24 24" xmlns="http://www.w3.org/2000/svg"><path d="m12.06 0c-4.35 0-7.939 3.25-8.476 7.455h16.952c-.538-4.205-4.126-7.455-8.476-7.455zm-8.13 7.95a1.54 1.54 0 0 0 -1.537 1.537v.772c-.358.22-.598.613-.598 1.06v2.065c0 .448.24.842.598 1.061v.802a1.54 1.54 0 0 0 1.536 1.536h16.14a1.54 1.54 0 0 0 1.536-1.536v-.802c.358-.22.6-.612.6-1.06v-2.065c0-.448-.242-.842-.6-1.061v-.772a1.54 1.54 0 0 0 -1.535-1.537zm1.47 3.146h13.2c.622 0 1.132.51 1.132 1.134s-.51 1.133-1.133 1.133h-13.199c-.624 0-1.134-.51-1.134-1.133s.51-1.134 1.134-1.134zm-1.42 5.998v3.276a3.64 3.64 0 0 0 3.63 3.63h8.94a3.64 3.64 0 0 0 3.628-3.63v-3.276h-1.995v3.267c0 .898-.735 1.633-1.633 1.633h-.89v-.003a.62.62 0 0 1 -.48-.23h-.002l-1.063-1.358h-.002a.622.622 0 0 0 -.488-.245h-3.093a.62.62 0 0 0 -.463.214h-.002l-1.087 1.386h-.002a.62.62 0 0 1 -.481.23v.004h-.89a1.638 1.638 0 0 1 -1.633-1.633v-3.267zm4.996.795-.82.95.774.67.515-.596h5.046l.516.596.774-.67-.82-.95z"/></svg>