<svg viewBox="0 0 24 24" xmlns="http://www.w3.org/2000/svg"><path d="m19.064 0h-14.128a4.937 4.937 0 0 0 -4.93 4.93v14.13a4.94 4.94 0 0 0 4.929 4.94h14.128a4.926 4.926 0 0 0 4.93-4.941v-14.129a4.93 4.93 0 0 0 -4.928-4.93zm-10.514 10.63v2.329a.32.32 0 0 1 -.337.337h-2.329a.32.32 0 0 1 -.337-.337v-2.329c0-.2.137-.337.337-.337h2.34c.2 0 .336.137.336.337zm5.162 7.491a.32.32 0 0 1 -.337.337h-2.328a.32.32 0 0 1 -.337-.337v-2.328c0-.2.136-.337.337-.337h2.328c.19 0 .337.136.337.337zm0-5.162a.32.32 0 0 1 -.337.337h-2.328a.32.32 0 0 1 -.337-.337v-2.329c0-.2.136-.337.337-.337h2.328c.2 0 .337.137.337.337zm5.974 4.372a.654.654 0 0 1 -.22.516l-2.308 2.297c-.18.168-.432.052-.432-.2v-12.664h-12.664c-.253 0-.369-.264-.2-.432l2.307-2.298c.137-.147.274-.232.506-.232h11.473c.854 0 1.538.685 1.538 1.539v11.473z"/></svg>