<svg height="48" viewBox="0 0 48 48" width="48" xmlns="http://www.w3.org/2000/svg"><path d="m44.065 34.99c0 .513-.427.93-.951.93h-2.233a.94.94 0 0 1 -.951-.93v-1.575a1 1 0 0 0 -1-1h-4.382a1 1 0 0 0 -1 1v2.38a2.766 2.766 0 0 1 -2.77 2.754h-7.038c-1.542 0-2.797-1.236-2.797-2.754v-.628a1 1 0 0 0 -1-1h-11.038a.516.516 0 0 1 -.524-.506v-15.914c0-.514.428-.932.954-.932h5.897a1 1 0 0 0 1-1v-1.938c0-.274.23-.495.513-.495h9.281c.282 0 .512.221.512.495v1.938a1 1 0 0 0 1 1h5.084c.525 0 .953.418.953.932v1.721a1 1 0 0 0 1 1h4.323a1 1 0 0 0 1-1v-1.6c0-.513.427-.93.952-.93h2.264c.524 0 .951.417.951.93zm-.951-20.052h-2.264c-1.628 0-2.952 1.315-2.952 2.93v.6h-2.323v-.721c0-1.616-1.325-2.932-2.953-2.932h-4.084v-.938a2.506 2.506 0 0 0 -2.512-2.495h-3.623v-2.382h5.135v-2h-12.269v2h5.134v2.382h-3.658a2.507 2.507 0 0 0 -2.513 2.495v.938h-4.897c-1.628 0-2.954 1.316-2.954 2.932v6.78h-2.381v-8.64h-2v19.28h2v-8.64h2.381v7.134a2.52 2.52 0 0 0 2.524 2.506h10.053c.192 2.448 2.263 4.382 4.782 4.382h7.038c2.631 0 4.77-2.133 4.77-4.754v-1.38h2.382v.575c0 1.615 1.324 2.93 2.951 2.93h2.233c1.627 0 2.951-1.315 2.951-2.93v-17.122c0-1.615-1.324-2.93-2.951-2.93" fill="#8c4fff" fill-rule="evenodd"/></svg>