<svg viewBox="0 0 24 24" xmlns="http://www.w3.org/2000/svg"><path d="m15.158.002a8.807 8.807 0 0 0 -6.249 2.59l-.062.063h-.003l-6.189 6.189a.605.605 0 0 0 -.062.058 8.838 8.838 0 0 0 -.83 11.55l6.251-6.249.065-.063a8.778 8.778 0 0 1 -1.758-5.385 8.784 8.784 0 0 1 .283-2.151 8.993 8.993 0 0 1 2.151-.286 8.802 8.802 0 0 1 5.386 1.76 8.81 8.81 0 0 1 3.032 4.11 8.879 8.879 0 0 1 .225 5.21 8.784 8.784 0 0 0 -.341.082 8.846 8.846 0 0 1 -4.868-.303 8.679 8.679 0 0 1 -2.323-1.25l-.064.065-6.252 6.248a8.85 8.85 0 0 0 11.548-.83l.06-.062 6.19-6.187a8.801 8.801 0 0 1 -.367.337c.125-.11.247-.224.366-.341l.063-.058a8.817 8.817 0 0 0 2.59-6.255v-8.842zm-6.778 3.168a8.73 8.73 0 0 1 0 0z"/></svg>