<svg xmlns="http://www.w3.org/2000/svg" width="64" height="64" viewBox="0 0 64 64"><title>Icon-Architecture/48/Arch_Amazon-Comprehend-Medical_48</title><g id="Icon-Architecture/48/Arch_Amazon-Comprehend-Medical_48" fill="none" fill-rule="evenodd" stroke="none" stroke-width="1"><g id="Icon-Architecture-BG/48/Machine-Learning" fill="#01a88d"><path id="Rectangle" d="M0 0h64v64H0z"/></g><g id="Icon-Service/48/Amazon-Comprehend-Medical_48" fill="#fff" transform="translate(10 10)"><path id="Fill-3" d="M42 33h-4a1 1 0 0 1-1-1v-4h-4v4a1 1 0 0 1-1 1h-4v4h4a1 1 0 0 1 1 1v4h4v-4a1 1 0 0 1 1-1h4zm2-1v6a1 1 0 0 1-1 1h-4v4a1 1 0 0 1-1 1h-6a1 1 0 0 1-1-1v-4h-4a1 1 0 0 1-1-1v-6a1 1 0 0 1 1-1h4v-4a1 1 0 0 1 1-1h6a1 1 0 0 1 1 1v4h4a1 1 0 0 1 1 1M2.175 6.575 7 30.844V5.582zM31 2.427V7h5.178zM9 40h17v2H8a.985.985 0 0 1-.961-.809l-.02.004-7-35.205A1 1 0 0 1 .8 4.816l6.2-1.276V1a1 1 0 0 1 1-1h22.896c.244 0 .479.089.662.25l7.105 6.275a1 1 0 0 1 .338.749V24h-2V9h-7a1 1 0 0 1-1-1V2H9zm3-9h13v-2H12zm0-5h19v-2H12zm0-15h15V9H12zm0 10h21v-2H12zm7-5h14v-2H19zm-7 0h5v-2h-5z"/></g></g></svg>