<svg height="64" viewBox="0 0 64 64" width="64" xmlns="http://www.w3.org/2000/svg"><g fill="none" fill-rule="evenodd"><path d="m0 0h64v64h-64z" fill="#01a88d"/><path d="m42 33h-4a1 1 0 0 1 -1-1v-4h-4v4a1 1 0 0 1 -1 1h-4v4h4a1 1 0 0 1 1 1v4h4v-4a1 1 0 0 1 1-1h4zm2-1v6a1 1 0 0 1 -1 1h-4v4a1 1 0 0 1 -1 1h-6a1 1 0 0 1 -1-1v-4h-4a1 1 0 0 1 -1-1v-6a1 1 0 0 1 1-1h4v-4a1 1 0 0 1 1-1h6a1 1 0 0 1 1 1v4h4a1 1 0 0 1 1 1m-41.825-25.425 4.825 24.269v-25.262zm28.825-4.148v4.573h5.178zm-22 37.573h17v2h-18a.985.985 0 0 1 -.961-.809l-.02.004-7-35.205a1 1 0 0 1 .781-1.174l6.2-1.276v-2.54a1 1 0 0 1 1-1h22.896c.244 0 .479.089.662.25l7.105 6.275a1 1 0 0 1 .338.749v16.726h-2v-15h-7a1 1 0 0 1 -1-1v-6h-20.001zm3-9h13v-2h-13zm0-5h19v-2h-19zm0-15h15v-2h-15zm0 10h21v-2h-21zm7-5h14v-2h-14zm-7 0h5v-2h-5z" fill="#fff" transform="translate(10 10)"/></g></svg>