<svg viewBox="0 0 128 128" xmlns="http://www.w3.org/2000/svg"><path d="m50.782 42.96h26.436a7.536 7.536 0 0 1 7.553 7.552v26.976a7.536 7.536 0 0 1 -7.553 7.552h-26.436a7.536 7.536 0 0 1 -7.553-7.552v-26.976a7.536 7.536 0 0 1 7.553-7.553zm55.803 41.611v-50.094a13.566 13.566 0 0 0 -13.595-13.597h-57.98a13.566 13.566 0 0 0 -13.595 13.596v59.046a13.566 13.566 0 0 0 13.595 13.595l92.171.002c-.935 11.716-10.67 20.88-22.623 20.88h-81.116a22.61 22.61 0 0 1 -22.659-22.658v-82.681a22.61 22.61 0 0 1 22.66-22.66h81.115a22.61 22.61 0 0 1 22.659 22.66v61.91z" fill="#1a62b3"/></svg>