<svg height="48" viewBox="0 0 48 48" width="48" xmlns="http://www.w3.org/2000/svg"><path d="m7.972 2v5.206h-2.972v1.999h2.972v3.262h-2.972v2h2.972v3.313h-2.972v2h2.972v3.274h-2.972v1.999h2.972v3.193h-2.972v2h2.972v3.233h-2.972v2h2.972v3.314h-2.972v2h2.972v5.179h35.614v-43.972zm2 2h31.614v39.972h-31.614v-3.179h3.08v-2h-3.08v-3.314h3.08v-2h-3.08v-3.233h3.08v-2h-3.08v-3.193h3.08v-1.999h-3.08v-3.274h3.08v-2h-3.08v-3.313h3.08v-2h-3.08v-3.262h3.08v-1.999h-3.08zm6.89 5.205h19.698v-2h-19.698zm0 6.389h19.698v-2h-19.698zm0 6.333h19.698v-2.001h-19.698zm0 6.386h9.902v-2h-9.902z" fill="#01a88d" fill-rule="evenodd"/></svg>