<svg xmlns="http://www.w3.org/2000/svg" fill="currentColor" fill-rule="evenodd" viewBox="0 0 24 24"><path d="M13.517 12.106c.823 0 1.225.992.659 1.58l-5.377 5.403a.925.925 0 0 1-1.317 0L.274 11.812a.936.936 0 0 1 0-1.323l6.055-6.083a1.287 1.287 0 0 1 1.81 0 1.303 1.303 0 0 1 0 1.819l-4.243 4.282a.936.936 0 0 0 0 1.323L7.5 15.45a.925.925 0 0 0 1.317 0l.475-.477a.9.9 0 0 0 .274-.662v-.938c0-.129 0-.257.019-.386a.926.926 0 0 1 .933-.864h2.999v-.018z"/><path d="m23.74 12.878-6.07 6.102a1.287 1.287 0 0 1-1.81 0 1.303 1.303 0 0 1 0-1.82l4.26-4.282a.936.936 0 0 0 0-1.323l-3.62-3.62a.925.925 0 0 0-1.317 0l-.475.477a.95.95 0 0 0-.274.663v.937c0 .13 0 .257-.019.386a.926.926 0 0 1-.933.864h-2.999c-.823 0-1.226-.992-.659-1.58l4.078-4.1.53-.553.75-.754a.925.925 0 0 1 1.318 0l7.225 7.26a.977.977 0 0 1 .018 1.342l-.001.001z"/></svg>