<svg xmlns="http://www.w3.org/2000/svg" width="18" height="18" viewBox="0 0 18 18"><defs><mask id="a"><path fill="#fff" d="M0 0h18v18H0z"/><path d="M7.053 1h3.894a.25.25 0 0 1 .251.251v2.871H6.8V1.251A.25.25 0 0 1 7.053 1"/><path d="M12.488 1h3.894a.25.25 0 0 1 .251.251v2.871h-4.4V1.251A.25.25 0 0 1 12.488 1"/><path d="M1.367 3.753h4.396V17H1.367z"/><path d="M6.802 3.753h4.396V17H6.802z"/><path d="M12.238 3.753h4.396V17h-4.396z"/></mask></defs><path fill="currentColor" d="M1.617 1h3.895a.25.25 0 0 1 .251.251v2.871h-4.4V1.251A.25.25 0 0 1 1.617 1" mask="url(#a)"/></svg>