<svg xmlns="http://www.w3.org/2000/svg" width="18" height="18" viewBox="0 0 18 18">
  <defs>
    <mask id="ko">
      <rect width="18" height="18" fill="white"/>
      <path fill="black" d="M7.053 1h3.894a.25.25 0 0 1 .251.251v2.871H6.8V1.251A.25.25 0 0 1 7.053 1"/>
      <path fill="black" d="M12.488 1h3.894a.25.25 0 0 1 .251.251v2.871h-4.4V1.251A.25.25 0 0 1 12.488 1"/>
      <rect fill="black" x="1.367" y="3.753" width="4.396" height="13.247"/>
      <rect fill="black" x="6.802" y="3.753" width="4.396" height="13.247"/>
      <rect fill="black" x="12.238" y="3.753" width="4.396" height="13.247"/>
    </mask>
  </defs>
  <g>
    <path fill="currentColor" mask="url(#ko)" d="M1.617 1h3.895a.25.25 0 0 1 .251.251v2.871h-4.4V1.251A.25.25 0 0 1 1.617 1"/>
  </g>
</svg>