<svg height="18" viewBox="0 0 18 18" width="18" xmlns="http://www.w3.org/2000/svg" xmlns:xlink="http://www.w3.org/1999/xlink"><linearGradient id="a" gradientUnits="userSpaceOnUse" x1="3.565" x2="3.565" y1="17" y2="3.753"><stop offset="0" stop-color="#fea11b"/><stop offset=".127" stop-color="#feac19"/><stop offset=".562" stop-color="#ffcb12"/><stop offset=".804" stop-color="#ffd70f"/></linearGradient><linearGradient id="b" gradientUnits="userSpaceOnUse" x1="9" x2="9" y1="17" y2="3.753"><stop offset="0" stop-color="#5e9624"/><stop offset=".546" stop-color="#6dad2a"/><stop offset=".999" stop-color="#76bc2d"/></linearGradient><linearGradient id="c" gradientUnits="userSpaceOnUse" x1="14.435" x2="14.435" y1="17" y2="3.753"><stop offset="0" stop-color="#1b93eb"/><stop offset="1" stop-color="#6bb9f2"/></linearGradient><rect fill="url(#a)" height="13.247" rx=".517" width="4.396" x="1.367" y="3.753"/><rect fill="url(#b)" height="13.247" rx=".517" width="4.396" x="6.802" y="3.753"/><rect fill="url(#c)" height="13.247" rx=".517" width="4.396" x="12.238" y="3.753"/><path d="m1.617 1h3.895a.25.25 0 0 1 .251.251v2.871h-4.4v-2.871a.25.25 0 0 1 .254-.251" fill="#faa21d"/><path d="m7.053 1h3.894a.25.25 0 0 1 .251.251v2.871h-4.398v-2.871a.25.25 0 0 1 .253-.251" fill="#86d633"/><path d="m12.488 1h3.894a.25.25 0 0 1 .251.251v2.871h-4.4v-2.871a.25.25 0 0 1 .255-.251" fill="#5ea0ef"/></svg>