<svg height="18" viewBox="0 0 18 18" width="18" xmlns="http://www.w3.org/2000/svg" xmlns:xlink="http://www.w3.org/1999/xlink"><linearGradient id="a" gradientUnits="userSpaceOnUse" x1="9" x2="9" y1="17.5" y2=".5"><stop offset="0" stop-color="#32bedd"/><stop offset="1" stop-color="#32d4f5"/></linearGradient><path d="m17.5 9.9v-1.9l-.3-.1-2.1-.7-.5-1.3 1.1-2.2-1.4-1.4-.3.1-1.9 1-1.3-.5-.9-2.4h-1.9l-.1.3-.7 2-1.3.6-2.2-1.1-1.4 1.4.1.3 1 1.9-.5 1.3-2.4.9v1.9l.3.1 2.1.7.5 1.3-1.1 2.2 1.4 1.4.3-.1 1.9-1 1.3.5.9 2.3h1.9l.1-.3.7-2.1 1.3-.5 2.2 1.1 1.4-1.4-.1-.2-1-1.9.5-1.3z" fill="url(#a)"/><path d="m12.3 6.5-.8.7a2.91 2.91 0 0 1 -.3 4.2 2.906 2.906 0 0 1 -4.2-.3 2.91 2.91 0 0 1 0-3.9h.1l.6.5h.1v-.1l-.2-2c0-.1-.1-.1-.2-.1l-1.9.3a.1.1 0 0 0 -.1.1l.6.5v.1a3.976 3.976 0 1 0 6.1 5.1 3.63 3.63 0 0 0 .2-5.1" fill="#fff"/></svg>