<svg xmlns="http://www.w3.org/2000/svg" width="18" height="18" viewBox="0 0 18 18"><path fill="currentColor" d="M2.12.5h1.97v.57H2.12zm14.51.57h.32v.31h.55V.5h-.87zM1.41 16.89h-.28v-.32H.5v.93h.91zm15.54-.29v.29h-.32v.61h.87v-.9zM1.13 1.36v-.29h.28V.5H.5v.86z"/><rect width="8.79" height="5.88" x="3.37" y="3.55" fill="currentColor" rx=".29"/><path fill="currentColor" d="M9.23 5.64v1.71l-1.46.86V6.49z"/><path fill="currentColor" d="m9.23 5.64-1.46.86-1.47-.86 1.47-.86z"/><path fill="currentColor" d="M7.77 6.5v1.71L6.3 7.35V5.64z"/><rect width="8.79" height="5.88" x="5.91" y="6.83" fill="currentColor" rx=".29"/><path fill="currentColor" d="M11.77 8.91v1.71l-1.46.86V9.77z"/><path fill="currentColor" d="m11.77 8.91-1.46.86-1.47-.86 1.47-.86z"/><path fill="currentColor" d="M10.31 9.77v1.71l-1.47-.86V8.91z"/><path fill="currentColor" d="m8.84 10.62 1.47-.85v1.71z"/><path fill="currentColor" d="m11.77 10.62-1.46-.85v1.71z"/><path fill="currentColor" d="M12.07 14.48c-.87-.14-.9-.77-.9-1.78H9.44c0 1 0 1.64-.9 1.78a.51.51 0 0 0-.43.49h4.4a.51.51 0 0 0-.44-.49"/><path fill="currentColor" d="M5.07.5h1.97v.57H5.07zm2.94 0h1.97v.57H8.01zm2.95 0h1.97v.57h-1.97zm2.95 0h1.97v.57h-1.97zM2.14 16.89h1.97v.57H2.14zm2.94 0h1.97v.57H5.08zm2.95 0H10v.57H8.03zm2.95 0h1.97v.57h-1.97zm2.94 0h1.97v.57h-1.97zm3.01-14.84h.57v1.97h-.57zm0 2.94h.57v1.97h-.57zm0 2.95h.57v1.97h-.57zm0 2.94h.57v1.97h-.57zm0 2.95h.57v1.97h-.57zM.5 2.03h.57V4H.5zm0 2.95h.57v1.97H.5zm0 2.94h.57v1.97H.5zm0 2.95h.57v1.97H.5zm0 2.94h.57v1.97H.5z"/></svg>