<svg height="18" viewBox="0 0 18 18" width="18" xmlns="http://www.w3.org/2000/svg" xmlns:xlink="http://www.w3.org/1999/xlink"><linearGradient id="a" gradientUnits="userSpaceOnUse" x1="10.31" x2="10.31" y1="12.7" y2="6.83"><stop offset="0" stop-color="#0078d4"/><stop offset=".82" stop-color="#5ea0ef"/></linearGradient><linearGradient id="b" gradientUnits="userSpaceOnUse" x1="10.31" x2="10.31" y1="14.97" y2="12.7"><stop offset=".15" stop-color="#ccc"/><stop offset="1" stop-color="#707070"/></linearGradient><path d="m2.12.5h1.97v.57h-1.97zm14.51.57h.32v.31h.55v-.88h-.87zm-15.22 15.82h-.28v-.32h-.63v.93h.91zm15.54-.29v.29h-.32v.61h.87v-.9zm-15.82-15.24v-.29h.28v-.57h-.91v.86z" fill="#0078d4"/><rect fill="#0078d4" height="5.88" rx=".29" width="8.79" x="3.37" y="3.55"/><path d="m9.23 5.64v1.71l-1.46.86v-1.72z" fill="#50e6ff"/><path d="m9.23 5.64-1.46.86-1.47-.86 1.47-.86z" fill="#c3f1ff"/><path d="m7.77 6.5v1.71l-1.47-.86v-1.71z" fill="#9cebff"/><rect fill="url(#a)" height="5.88" rx=".29" width="8.79" x="5.91" y="6.83"/><path d="m11.77 8.91v1.71l-1.46.86v-1.71z" fill="#50e6ff"/><path d="m11.77 8.91-1.46.86-1.47-.86 1.47-.86z" fill="#c3f1ff"/><path d="m10.31 9.77v1.71l-1.47-.86v-1.71z" fill="#9cebff"/><path d="m8.84 10.62 1.47-.85v1.71z" fill="#c3f1ff"/><path d="m11.77 10.62-1.46-.85v1.71z" fill="#9cebff"/><path d="m12.07 14.48c-.87-.14-.9-.77-.9-1.78h-1.73c0 1 0 1.64-.9 1.78a.51.51 0 0 0 -.43.49h4.4a.51.51 0 0 0 -.44-.49" fill="url(#b)"/><path d="m5.07.5h1.97v.57h-1.97zm2.94 0h1.97v.57h-1.97zm2.95 0h1.97v.57h-1.97zm2.95 0h1.97v.57h-1.97zm-11.77 16.39h1.97v.57h-1.97zm2.94 0h1.97v.57h-1.97zm2.95 0h1.97v.57h-1.97zm2.95 0h1.97v.57h-1.97zm2.94 0h1.97v.57h-1.97zm3.01-14.84h.57v1.97h-.57zm0 2.94h.57v1.97h-.57zm0 2.95h.57v1.97h-.57zm0 2.94h.57v1.97h-.57zm0 2.95h.57v1.97h-.57zm-16.43-11.8h.57v1.97h-.57zm0 2.95h.57v1.97h-.57zm0 2.94h.57v1.97h-.57zm0 2.95h.57v1.97h-.57zm0 2.94h.57v1.97h-.57z" fill="#0078d4"/></svg>