<svg height="48" viewBox="0 0 48 48" width="48" xmlns="http://www.w3.org/2000/svg"><path d="m22 31h4v-2h-4zm-5 2.007v-6.007h14v6zm2-16.007h5v3.933a1 1 0 0 0 1 1h4v3.067h-10zm9.5 3h-2.5v-2.542zm3.493 5h-.993v-4.754a1 1 0 0 0 -.272-.685l-4-4.247a1 1 0 0 0 -.728-.314h-7.528c-.812 0-1.472.66-1.472 1.472v8.528h-1a1 1 0 0 0 -1 1v7.007c0 1.099.895 1.993 1.993 1.993h14.007a1.995 1.995 0 0 0 1.993-1.993v-7.007a1 1 0 0 0 -1-1m10.007-4c-1.103 0-2-.897-2-2s.897-2 2-2 2 .897 2 2-.897 2-2 2m-7.704 16.03c-.1-.008-.195-.03-.296-.03-1.859 0-3.411 1.28-3.858 3h-12.284c-.447-1.72-1.999-3-3.858-3-.101 0-.196.022-.296.03l-5.509-14.692a4 4 0 0 0 1.805-3.338c0-.489-.101-.953-.262-1.387l12.074-8.272a3.97 3.97 0 0 0 2.188.659 3.97 3.97 0 0 0 2.188-.659l12.074 8.272a4 4 0 0 0 -.262 1.387c0 1.395.72 2.622 1.805 3.338zm-.296 5.97c-1.103 0-2-.897-2-2s.897-2 2-2 2 .897 2 2-.897 2-2 2m-20 0c-1.103 0-2-.897-2-2s.897-2 2-2 2 .897 2 2-.897 2-2 2m-10-24c0-1.103.897-2 2-2s2 .897 2 2-.897 2-2 2-2-.897-2-2m20-15c1.103 0 2 .897 2 2s-.897 2-2 2-2-.897-2-2 .897-2 2-2m18 11a3.96 3.96 0 0 0 -2.588.976l-11.88-8.139a3.95 3.95 0 0 0 .468-1.837c0-2.206-1.794-4-4-4s-4 1.794-4 4c0 .666.179 1.284.468 1.837l-11.88 8.139a3.96 3.96 0 0 0 -2.588-.976c-2.206 0-4 1.794-4 4s1.794 4 4 4c.101 0 .196-.022.296-.03l5.509 14.692a4 4 0 0 0 -1.805 3.338c0 2.206 1.794 4 4 4 1.859 0 3.411-1.28 3.858-3h12.284c.447 1.72 1.999 3 3.858 3 2.206 0 4-1.794 4-4 0-1.395-.72-2.622-1.805-3.338l5.509-14.692c.1.008.195.03.296.03 2.206 0 4-1.794 4-4s-1.794-4-4-4" fill="#7aa116" fill-rule="evenodd"/></svg>