<svg xmlns="http://www.w3.org/2000/svg" width="18" height="18" viewBox="0 0 18 18"><path fill="currentColor" d="M8.893 12.704h1.129v2.994H8.893z"/><rect width="4.058" height="17" x="6.971" y="-5.452" fill="currentColor" rx=".567" transform="rotate(90 9 3.048)"/><rect width="4.058" height="17" x="6.971" y="-1.479" fill="currentColor" rx=".567" transform="rotate(90 9 7.021)"/><rect width="4.058" height="17" x="6.971" y="2.551" fill="currentColor" rx=".567" transform="rotate(90 9 11.051)"/><path fill="currentColor" d="M17.5 4.511V1.586a.567.567 0 0 0-.567-.567H1.067a.567.567 0 0 0-.567.567v2.925a.57.57 0 0 0 .352.524.57.57 0 0 0-.352.524v2.925a.566.566 0 0 0 .444.552.566.566 0 0 0-.444.553v2.924a.567.567 0 0 0 .567.567h15.866a.567.567 0 0 0 .567-.567V9.589a.566.566 0 0 0-.444-.553.566.566 0 0 0 .444-.552V5.559a.57.57 0 0 0-.352-.524.57.57 0 0 0 .352-.524"/><circle cx="3.215" cy="2.939" r=".933" fill="currentColor"/><circle cx="6.088" cy="2.939" r=".933" fill="currentColor"/><g fill="currentColor"><circle cx="3.215" cy="6.825" r=".933"/><circle cx="6.088" cy="6.825" r=".933"/><circle cx="3.215" cy="10.673" r=".933"/><circle cx="6.088" cy="10.673" r=".933"/></g><rect width="5.122" height="2.887" x="6.882" y="14.094" fill="currentColor" rx="1.443"/></svg>