<svg xmlns="http://www.w3.org/2000/svg" width="18" height="18" viewBox="0 0 18 18"><linearGradient id="a" x1="9" x2="9" y1="13.08" y2="1.019" gradientUnits="userSpaceOnUse"><stop offset="0" stop-color="#005ba1"/><stop offset=".16" stop-color="#005fa8" stop-opacity=".866"/><stop offset=".491" stop-color="#0069b9" stop-opacity=".52"/><stop offset=".939" stop-color="#0078d4" stop-opacity="0"/></linearGradient><linearGradient id="b" x1="9.443" x2="9.443" y1="16.981" y2="14.094" gradientUnits="userSpaceOnUse"><stop offset="0" stop-color="#005ba1"/><stop offset=".15" stop-color="#0063af"/><stop offset=".439" stop-color="#006fc3"/><stop offset=".724" stop-color="#0076d0"/><stop offset="1" stop-color="#0078d4"/></linearGradient><path fill="currentColor" d="M8.893 12.704h1.129v2.994H8.893z"/><rect width="4.058" height="17" x="6.971" y="-5.452" fill="currentColor" rx=".567" transform="rotate(90 9 3.048)"/><rect width="4.058" height="17" x="6.971" y="-1.479" fill="currentColor" rx=".567" transform="rotate(90 9 7.021)"/><rect width="4.058" height="17" x="6.971" y="2.551" fill="currentColor" rx=".567" transform="rotate(90 9 11.051)"/><path fill="currentColor" d="M17.5 4.511V1.586a.567.567 0 0 0-.567-.567H1.067a.567.567 0 0 0-.567.567v2.925a.57.57 0 0 0 .352.524.57.57 0 0 0-.352.524v2.925a.566.566 0 0 0 .444.552.566.566 0 0 0-.444.553v2.924a.567.567 0 0 0 .567.567h15.866a.567.567 0 0 0 .567-.567V9.589a.566.566 0 0 0-.444-.553.566.566 0 0 0 .444-.552V5.559a.57.57 0 0 0-.352-.524.57.57 0 0 0 .352-.524"/><circle cx="3.215" cy="2.939" r=".933" fill="currentColor"/><circle cx="6.088" cy="2.939" r=".933" fill="currentColor"/><g fill="currentColor"><circle fill="currentColor" cx="3.215" cy="6.825" r=".933"/><circle fill="currentColor" cx="6.088" cy="6.825" r=".933"/><circle fill="currentColor" cx="3.215" cy="10.673" r=".933"/><circle fill="currentColor" cx="6.088" cy="10.673" r=".933"/></g><rect width="5.122" height="2.887" x="6.882" y="14.094" fill="currentColor" rx="1.443"/></svg>