<svg height="18" viewBox="0 0 18 18" width="18" xmlns="http://www.w3.org/2000/svg" xmlns:xlink="http://www.w3.org/1999/xlink"><linearGradient id="a" gradientUnits="userSpaceOnUse" x1="9" x2="9" y1="13.08" y2="1.019"><stop offset="0" stop-color="#005ba1"/><stop offset=".16" stop-color="#005fa8" stop-opacity=".866"/><stop offset=".491" stop-color="#0069b9" stop-opacity=".52"/><stop offset=".939" stop-color="#0078d4" stop-opacity="0"/></linearGradient><linearGradient id="b" gradientUnits="userSpaceOnUse" x1="9.443" x2="9.443" y1="16.981" y2="14.094"><stop offset="0" stop-color="#005ba1"/><stop offset=".15" stop-color="#0063af"/><stop offset=".439" stop-color="#006fc3"/><stop offset=".724" stop-color="#0076d0"/><stop offset="1" stop-color="#0078d4"/></linearGradient><path d="m16.674 16.136h-14.79a.474.474 0 1 1 0-.948h14.79a.474.474 0 1 1 0 .948" fill="#76bc2d"/><path d="m8.893 12.704h1.129v2.994h-1.129z" fill="#76bc2d"/><rect fill="#5ea0ef" height="17" rx=".567" transform="matrix(0 1 -1 0 12.048 -5.952)" width="4.058" x="6.971" y="-5.452"/><rect fill="#0078d4" height="17" rx=".567" transform="matrix(0 1 -1 0 16.021 -1.979)" width="4.058" x="6.971" y="-1.479"/><rect fill="#005ba1" height="17" rx=".567" transform="matrix(0 1 -1 0 20.051 2.051)" width="4.058" x="6.971" y="2.551"/><path d="m17.5 4.511v-2.925a.567.567 0 0 0 -.567-.567h-15.866a.567.567 0 0 0 -.567.567v2.925a.57.57 0 0 0 .352.524.57.57 0 0 0 -.352.524v2.925a.566.566 0 0 0 .444.552.566.566 0 0 0 -.444.553v2.924a.567.567 0 0 0 .567.567h15.866a.567.567 0 0 0 .567-.567v-2.924a.566.566 0 0 0 -.444-.553.566.566 0 0 0 .444-.552v-2.925a.57.57 0 0 0 -.352-.524.57.57 0 0 0 .352-.524" fill="url(#a)"/><circle cx="3.215" cy="2.939" fill="#f2f2f2" r=".933"/><circle cx="6.088" cy="2.939" fill="#f2f2f2" r=".933"/><g fill="#83b9f9"><circle cx="3.215" cy="6.825" r=".933"/><circle cx="6.088" cy="6.825" r=".933"/><circle cx="3.215" cy="10.673" r=".933"/><circle cx="6.088" cy="10.673" r=".933"/></g><rect fill="url(#b)" height="2.887" rx="1.443" width="5.122" x="6.882" y="14.094"/></svg>