<svg height="48" viewBox="0 0 48 48" width="48" xmlns="http://www.w3.org/2000/svg"><path d="m30.143 37.727h8.456v-11.071h-8.456zm-20.914 0h8.457v-11.071h-8.457zm10.457 0h8.457v-11.071h-8.457zm19.913-13.071h-31.37a1 1 0 0 0 -1 1v13.071a1 1 0 0 0 1 1h31.37a1 1 0 0 0 1-1v-13.071a1 1 0 0 0 -1-1m-9.456-5.228h8.456v-8.457h-8.456zm-20.914 0h8.457v-8.457h-8.457zm10.457 0h8.457v-8.457h-8.457zm19.913-10.457h-31.37a1 1 0 0 0 -1 1v10.457a1 1 0 0 0 1 1h31.37a1 1 0 0 0 1-1v-10.457a1 1 0 0 0 -1-1m4.228 30.408a4.45 4.45 0 0 1 -4.447 4.448h-30.932a4.453 4.453 0 0 1 -4.448-4.448v-30.931a4.453 4.453 0 0 1 4.448-4.448h30.932a4.45 4.45 0 0 1 4.447 4.448zm-4.447-37.379h-30.932a6.455 6.455 0 0 0 -6.448 6.448v30.931a6.456 6.456 0 0 0 6.448 6.448h30.932a6.455 6.455 0 0 0 6.447-6.448v-30.931a6.454 6.454 0 0 0 -6.447-6.448" fill="#ed7100" fill-rule="evenodd"/></svg>