<svg xmlns="http://www.w3.org/2000/svg" viewBox="0 0 440 438"><defs><linearGradient id="a" x1="86" x2="289" y1="36" y2="420" gradientUnits="userSpaceOnUse"><stop offset="0" stop-color="#7fe6dd"/><stop offset=".52" stop-color="#67b7ff"/><stop offset="1" stop-color="#9a8bff"/></linearGradient></defs><path fill-rule="evenodd" stroke="url(#a)" stroke-linecap="round" stroke-linejoin="round" stroke-width="8" d="M344 35c-42-18-106-23-167-14-66 10-114 43-132 93-18 51-2 98 45 134 33 25 73 38 107 51 29 11 47 25 49 44 2 26-23 44-62 45-32 1-61-9-95-28l-22 45c44 23 92 33 147 29 86-6 153-47 171-117 16-61-9-111-59-146-35-24-77-36-102-49-15-7-18-20-7-29 26-19 78-12 119 8l23-55c-9-5-12-9-15-11m-17 48c-31-14-74-17-105-7-35 12-51 39-40 62 10 21 36 32 73 45 55 19 93 56 95 116 2 51-26 97-73 115-48 19-105 16-160-11l12-24c19 9 38 14 58 14 31 0 53-9 65-24 11-14 15-31 12-48-6-31-32-47-76-64-42-16-76-34-88-68-14-40-5-77 27-105 51-45 135-43 215-4Z"/></svg>