<svg height="48" viewBox="0 0 48 48" width="48" xmlns="http://www.w3.org/2000/svg"><path d="m21 16h14v-2h-14zm0-5h10v-2h-10zm17 17v7h-3v-14h-2v14h-3v-11h-2v11h-2v2h16v-2h-2v-7zm-18.34 5.03a4.26 4.26 0 0 0 -2.247-.641c-2.104 0-3.87 1.548-4.309 3.611h8.616c-.264-1.228-1.004-2.315-2.06-2.97m-4.326-4.84c0 1.146.933 2.08 2.079 2.08a2.08 2.08 0 0 0 0-4.159 2.08 2.08 0 0 0 -2.079 2.079m6.158 0c0 1.137-.47 2.165-1.223 2.906.149.076.301.145.444.234 1.921 1.19 3.113 3.362 3.113 5.67a1 1 0 0 1 -1 1h-10.826a1 1 0 0 1 -1-1c0-2.585 1.45-4.822 3.552-5.908a4.07 4.07 0 0 1 -1.218-2.902 4.084 4.084 0 0 1 4.079-4.079 4.084 4.084 0 0 1 4.079 4.079m-15.158-4.459c0 1.147.933 2.08 2.079 2.08a2.08 2.08 0 0 0 2.079-2.08 2.08 2.08 0 0 0 -2.079-2.079 2.08 2.08 0 0 0 -2.079 2.079m3.666 10.269h-7a1 1 0 0 1 -1-1c0-2.726 1.609-5.071 3.899-6.081-.946-.748-1.565-1.891-1.565-3.188a4.084 4.084 0 0 1 4.079-4.079 4.084 4.084 0 0 1 4.079 4.079c0 1.296-.619 2.44-1.564 3.187q.405.178.785.412l-1.053 1.7a4.26 4.26 0 0 0 -2.247-.641c-2.104 0-3.87 1.548-4.309 3.611h5.896zm28-24h4.586l-4.586-4.586zm8 1v29c0 1.122-.879 2-2 2h-26v-2h26v-28h-7a1 1 0 0 1 -1-1v-7h-17.963l-.037 18h-2v-18c0-1.103.914-2 2.037-2h18.963c.266 0 .52.105.707.293l8 8a1 1 0 0 1 .293.707m-34 29h-2v4c0 1.103.914 2 2.037 2h25.926v-2h-25.963zm0-22h-2v-11c0-1.103.914-2 2.037-2h1.963v2h-1.963z" fill="#8c4fff" fill-rule="evenodd"/></svg>