<svg height="64" viewBox="0 0 64 64" width="64" xmlns="http://www.w3.org/2000/svg"><g fill="none" fill-rule="evenodd"><path d="m0 0h64v64h-64z" fill="#01a88d"/><path d="m33 39a1.001 1.001 0 0 1 -2 0 1.001 1.001 0 0 1 2 0m-4 0c0 1.654 1.346 3 3 3 1.655 0 3-1.346 3-3s-1.345-3-3-3c-1.654 0-3 1.346-3 3m1 9h4v-2h-4zm-1 1h6v-4h-6zm-2-5v6a1 1 0 0 0 1 1h8a1 1 0 0 0 1-1v-6a1 1 0 0 0 -1-1h-8a1 1 0 0 0 -1 1m11 8h-12v-12.54l6-5.143 6 5.143zm-5.35-19.76a.996.996 0 0 0 -1.3 0l-7 6.001a1 1 0 0 0 -.35.759v14a1 1 0 0 0 1 1h14a1 1 0 0 0 1-1v-14a1 1 0 0 0 -.35-.759zm12.409 1.728a1 1 0 1 1 0-2 1 1 0 0 1 0 2m-3.059-12.968a1.001 1.001 0 0 1 0-2 1.001 1.001 0 0 1 0 2m-3 7a1.001 1.001 0 0 1 0 2 1.001 1.001 0 0 1 0-2m14.446-1.895-5.446-2.723v-6.382c0-.334-.167-.646-.445-.832l-9-6a1 1 0 0 0 -1.002-.063l-5.55 2.775-5.557-2.775a1 1 0 0 0 -.932.02l-9 5a1 1 0 0 0 -.514.875v7.382l-5.447 2.723c-.339.17-.553.516-.553.895v10a1 1 0 0 0 .485.857l4.515 2.709v6.434c0 .379.214.725.553.895l6 3 .894-1.79-5.447-2.723v-6.382a1 1 0 0 0 -.485-.857l-4.515-2.709v-3.868l4.515-2.71-1.03-1.713-3.485 2.09v-2.615l4.956-2.478 4.044 2.426v3.816l-3.447 1.723.894 1.79 3.556-1.778 3.554 1.76.886-1.792-3.443-1.705v-3.814l4.515-2.71a1 1 0 0 0 .485-.856v-5h-2v4.434l-4 2.4-4-2.4v-6.846l3-1.666v6.078h2v-7.19l3.024-1.68 4.976 2.485.001 9.385c0 .337.17.65.451.836l4.748 3.116a3 3 0 0 0 -.2 1.048c0 1.654 1.347 3 3 3 1.655 0 3-1.346 3-3s-1.345-3-3-3c-.547 0-1.054.158-1.496.416l-4.502-2.956-.002-8.842 4.928-2.464 8.072 5.38v1.466h-1.185a2.99 2.99 0 0 0 -2.815-2c-1.654 0-3 1.346-3 3s1.346 3 3 3a2.99 2.99 0 0 0 2.815-2h1.185v3c0 .379.214.725.553.895l5.447 2.723v7.749l-3.978-2.03c.014-.122.037-.242.037-.37 0-1.653-1.346-3-3-3-1.655 0-3 1.347-3 3 0 1.656 1.345 3.001 3 3.001.804 0 1.533-.322 2.073-.84l3.806 1.943-3.452 2.072a1 1 0 0 0 -.486.857v6.382l-5.447 2.723.894 1.79 6-3c.339-.17.553-.516.553-.895v-6.434l4.514-2.709a1 1 0 0 0 .486-.857v-10c0-.38-.214-.725-.553-.895" fill="#fff"/></g></svg>