<svg viewBox="0 0 24 24" xmlns="http://www.w3.org/2000/svg"><path d="m16.1796 11.4765c-2.0161 0-3.6576-1.6401-3.6576-3.6548 0-2.0148 1.6401-3.6562 3.6576-3.6562s3.6548 1.64 3.6548 3.6562c0 2.016-1.64 3.6548-3.6548 3.6548zm-.0014 8.3595c-2.0161 0-3.6562-1.64-3.6562-3.6562 0-2.0161 1.64-3.6562 3.6562-3.6562 2.016 0 3.6562 1.6401 3.6562 3.6562s-1.6401 3.6562-3.6562 3.6562zm0-6.5877c-1.6168 0-2.9315 1.3148-2.9315 2.9315 0 1.6168 1.3147 2.9315 2.9315 2.9315 1.6167 0 2.9315-1.3147 2.9315-2.9315 0-1.6167-1.3148-2.9315-2.9315-2.9315zm-8.3595 6.5877c-2.0162 0-3.6562-1.64-3.6562-3.6562 0-2.0161 1.64-3.6562 3.6562-3.6562 2.016 0 3.6561 1.6401 3.6561 3.6562s-1.64 3.6562-3.6561 3.6562zm0-6.5877c-1.6168 0-2.9316 1.3148-2.9316 2.9315 0 1.6168 1.3148 2.9315 2.9316 2.9315 1.6167 0 2.9315-1.3147 2.9315-2.9315 0-1.6167-1.3148-2.9315-2.9315-2.9315zm0-1.7718c-2.0162 0-3.6562-1.6401-3.6562-3.6562s1.64-3.6562 3.6562-3.6562c2.016 0 3.6561 1.64 3.6561 3.6562 0 2.0161-1.64 3.6562-3.6561 3.6562zm0-6.5877c-1.6168 0-2.9316 1.3148-2.9316 2.9315s1.3148 2.9315 2.9316 2.9315c1.6167 0 2.9315-1.3148 2.9315-2.9315s-1.3148-2.9315-2.9315-2.9315zm-4.8173-4.8888c-1.6552 0-3.0014 1.3465-3.0014 3.0003v17.9997c0 1.6537 1.3462 3 3.0014 3h17.994c1.6551 0 3.003-1.3463 3.003-3v-17.9998c0-1.6537-1.3465-3.0002-3.003-3.0002z"/></svg>