<svg height="24" width="24" xmlns="http://www.w3.org/2000/svg"><path d="m12 12.29-8.25-4.94 8.25-4.77 8.24 4.67zm-6.73-4.93 6.72 4 6.72-4.11-6.71-3.78z" fill="currentColor"/><path d="m12 21.44-8.28-5.55 8.28-4.59 8.15 4.64zm-6.8-5.5 6.8 4.56 6.7-4.5-6.7-3.82z" fill="currentColor"/><path d="m4.123 7.502.675-.37 7.477 13.6-.675.37z" fill="currentColor"/><path d="m11.704 20.826 7.3-13.559.679.365-7.301 13.56zm-7.478-5.139 7.38-12.783.667.385-7.38 12.783z" fill="currentColor"/><path d="m11.704 3.214.669-.381 7.405 12.987-.67.382z" fill="currentColor"/><path d="m11.64 2.96h.77v17.94h-.77zm-7.58 4.47h.77v8.66h-.77zm14.97-.09h.77v8.66h-.77z" fill="currentColor"/><g fill="currentColor"><circle fill="currentColor" cx="12.03" cy="3.07" r="1.07"/><circle fill="currentColor" cx="19.42" cy="7.34" r="1.07"/><circle fill="currentColor" cx="4.58" cy="7.34" r="1.07"/><circle fill="currentColor" cx="12.03" cy="11.93" r="1.68"/><circle fill="currentColor" cx="19.42" cy="15.94" r="1.07"/><circle fill="currentColor" cx="4.58" cy="15.94" r="1.07"/><circle fill="currentColor" cx="12.03" cy="20.93" r="1.07"/><path fill="currentColor" d="m12 12.29-8.25-4.94 8.25-4.77 8.24 4.67zm-6.73-4.93 6.72 4 6.72-4.11-6.71-3.78z"/><path fill="currentColor" d="m12 21.44-8.28-5.55 8.28-4.59 8.15 4.64zm-6.8-5.5 6.8 4.56 6.7-4.5-6.7-3.82z"/><path fill="currentColor" d="m4.123 7.502.675-.37 7.477 13.6-.675.37z"/><path fill="currentColor" d="m11.704 20.826 7.3-13.559.679.365-7.301 13.56zm-7.478-5.139 7.38-12.783.667.385-7.38 12.783z"/><path fill="currentColor" d="m11.704 3.214.669-.381 7.405 12.987-.67.382z"/><path fill="currentColor" d="m11.64 2.96h.77v17.94h-.77zm-7.58 4.47h.77v8.66h-.77zm14.97-.09h.77v8.66h-.77z"/></g><g fill="currentColor"><circle fill="currentColor" cx="12.03" cy="3.07" r="1.07"/><circle fill="currentColor" cx="19.42" cy="7.34" r="1.07"/><circle fill="currentColor" cx="4.58" cy="7.34" r="1.07"/><circle fill="currentColor" cx="12.03" cy="11.93" r="1.68"/><circle fill="currentColor" cx="19.42" cy="15.94" r="1.07"/><circle fill="currentColor" cx="4.58" cy="15.94" r="1.07"/><circle fill="currentColor" cx="12.03" cy="20.93" r="1.07"/></g></svg>