<svg height="24" width="24" xmlns="http://www.w3.org/2000/svg"><path d="m0 0h24v24h-24z" fill="none"/><g fill="#3367d6"><path clip-rule="evenodd" d="m13.2 0v5.5h-5.5z" fill-opacity=".6" fill-rule="evenodd"/><path clip-rule="evenodd" d="m13.2 5.5v5.5l-5.5-5.5z" fill-opacity=".8" fill-rule="evenodd"/><path d="m7.5 16.48v-.1l1-1.8h8.2c.8 0 1.6-.5 1.9-1.1l4.2-7.7-1.8-1.1-1.2 2.2-3 5.5h-7.8l-.1-.3-2.5-5.2-1-2.2-1-2.2h-3.6v2.2h2.2l4 8.3-1.5 2.7c-.2.3-.3.7-.3 1.1 0 1.2 1 2.2 2.2 2.2h13.2v-2.2h-12.8c-.1 0-.3-.1-.3-.3" fill-opacity=".6"/><path clip-rule="evenodd" d="m8.8 19.9c-1.1 0-2.1.9-2.1 2.1 0 1.1.9 2.1 2.1 2.1s2.1-.9 2.1-2.1-1-2.1-2.1-2.1m9 0c-1.1 0-2.1.9-2.1 2.1 0 1.1.9 2.1 2.1 2.1 1.1 0 2.1-.9 2.1-2.1s-1-2.1-2.1-2.1" fill-rule="evenodd"/><path clip-rule="evenodd" d="m13.2 0 5.5 5.5h-5.5z" fill-opacity=".8" fill-rule="evenodd"/><path clip-rule="evenodd" d="m18.7 5.5-5.5 5.5v-5.5z" fill-rule="evenodd"/></g></svg>