<svg viewBox="0 0 24 24" xmlns="http://www.w3.org/2000/svg"><path d="m0 0v24h16.998a7.002 7.002 0 0 0 7.002-7.002v-16.998zm18.707 15.129h.896v.895h-.896zm-.281-3.857h1.455v1.456h-1.455zm-.224-3.801h1.903v1.905h-1.903zm-3.073 11.234h.895v.896h-.896zm-.28-3.902h1.456v1.457h-1.456zm-.224-3.755h1.906v1.904h-1.904zm.224-1.897v-1.455h1.456v1.454zm-6.874 9.554h.896v.896h-.896zm-.28-3.856h1.456v1.454h-1.456zm.28-2.401v-.896h.896v.896zm-.28-4.752h1.456v1.454h-1.456zm-3.295 11.01h.897v.895h-.897zm0-3.577h.897v.895h-.897zm-.28-3.857h1.455v1.456h-1.455zm-.224-3.801h1.904v1.905h-1.905zm-.837-4.413h17.881v3.577h-7.153v14.307h-3.576v-14.307h-7.153z"/></svg>