<svg height="18" viewBox="0 0 18 18" width="18" xmlns="http://www.w3.org/2000/svg" xmlns:xlink="http://www.w3.org/1999/xlink"><radialGradient id="a" cx="6.58" cy="10.43" gradientUnits="userSpaceOnUse" r="6.46"><stop offset="0" stop-color="#f2f2f2"/><stop offset=".58" stop-color="#eee"/><stop offset="1" stop-color="#e6e6e6"/></radialGradient><linearGradient id="b" gradientUnits="userSpaceOnUse" x1=".4" x2="12.11" y1="10.06" y2="10.06"><stop offset="0" stop-color="#005ba1"/><stop offset=".07" stop-color="#0060a9"/><stop offset=".36" stop-color="#0071c8"/><stop offset=".52" stop-color="#0078d4"/><stop offset=".64" stop-color="#0074cd"/><stop offset=".82" stop-color="#006abb"/><stop offset="1" stop-color="#005ba1"/></linearGradient><path d="m6.26 5.48c-3.26 0-5.86-.95-5.86-2.12v11.28c0 1.16 2.6 2.11 5.78 2.12h.08c3.23 0 5.85-1 5.85-2.12v-11.28c0 1.17-2.62 2.12-5.85 2.12" fill="url(#b)"/><path d="m12.11 3.36c0 1.17-2.62 2.12-5.85 2.12s-5.86-.95-5.86-2.12 2.6-2.12 5.86-2.12 5.85 1 5.85 2.12" fill="#e8e8e8"/><path d="m10.75 3.19c0 .74-2 1.35-4.49 1.35s-4.49-.61-4.49-1.35 2-1.35 4.49-1.35 4.49.6 4.49 1.35" fill="#50e6ff"/><path d="m6.26 3.5a11 11 0 0 0 -3.56.5 10.5 10.5 0 0 0 3.56.53 10.4 10.4 0 0 0 3.55-.53 10.9 10.9 0 0 0 -3.55-.5" fill="#198ab3"/><path d="m9.82 11.19v-3.08h-.82v3.77h2.24v-.69zm-6.52-1.52a2.3 2.3 0 0 1 -.47-.28.44.44 0 0 1 -.11-.3.35.35 0 0 1 .14-.28.64.64 0 0 1 .39-.1 1.56 1.56 0 0 1 .87.29v-.81a2.5 2.5 0 0 0 -.92-.19 1.5 1.5 0 0 0 -1 .31 1 1 0 0 0 -.38.81 1.24 1.24 0 0 0 .87 1.11 2.6 2.6 0 0 1 .56.32.42.42 0 0 1 .14.3.32.32 0 0 1 -.15.28.66.66 0 0 1 -.4.11 1.48 1.48 0 0 1 -1-.39v.84a2 2 0 0 0 1 .22 1.72 1.72 0 0 0 1.07-.3 1 1 0 0 0 .39-.83.92.92 0 0 0 -.22-.64 2.2 2.2 0 0 0 -.78-.47m4.7 1.45a2.14 2.14 0 0 0 .34-1.12 2.1 2.1 0 0 0 -.23-1 1.66 1.66 0 0 0 -.63-.68 1.85 1.85 0 0 0 -.94-.32 1.9 1.9 0 0 0 -1 .25 1.65 1.65 0 0 0 -.66.75 2.38 2.38 0 0 0 0 2 1.7 1.7 0 0 0 .63.68 2 2 0 0 0 .89.32l.78.87h1.1l-1.09-1a1.6 1.6 0 0 0 .81-.75m-.85-.23a.85.85 0 0 1 -.7.32.83.83 0 0 1 -.69-.33 1.4 1.4 0 0 1 -.22-.88 1.37 1.37 0 0 1 .27-.89.83.83 0 0 1 .7-.34.81.81 0 0 1 .69.34 1.44 1.44 0 0 1 .25.9 1.36 1.36 0 0 1 -.26.88z" fill="url(#a)"/><path d="m14.58 1.34h-3.65a.29.29 0 0 0 -.29.29v7.87a.29.29 0 0 0 .29.29h6.33a.29.29 0 0 0 .29-.29v-5.21a.29.29 0 0 0 -.29-.29h-2.1a.29.29 0 0 1 -.29-.29v-2.08a.29.29 0 0 0 -.29-.29" fill="#fff"/><path d="m14.45 1.71v2a.72.72 0 0 0 .72.72h2v5h-6.17v-7.72h3.42m.14-.43h-3.7a.29.29 0 0 0 -.3.29v8a.29.29 0 0 0 .3.29h6.42a.29.29 0 0 0 .29-.29v-5.3a.29.29 0 0 0 -.26-.27h-2.14a.29.29 0 0 1 -.29-.29v-2.14a.29.29 0 0 0 -.29-.29z" fill="#50e6ff"/><g fill="#32bedd"><path d="m17.49 4-2.71-2.7v2.2a.5.5 0 0 0 .49.5z"/><rect height=".54" rx=".27" width="4.08" x="12.05" y="5.88"/><rect height=".54" rx=".27" width="4.08" x="12.05" y="6.79"/><rect height=".5" rx=".25" width="2.19" x="12.05" y="7.72"/></g></svg>