<svg xmlns="http://www.w3.org/2000/svg" viewBox="0 0 128 128">
  <defs>
    <mask id="wko">
      <rect width="128" height="128" fill="white"/>
      <path fill="black" d="M54.83 113.15c-.49-.1-.63-.49-.63-1.82 0-1-.14-1.82-.35-1.93-.63-.38-.35-1.78.52-2.62.7-.67.84-1.12.81-2.6a9.1 9.1 0 0 1 .49-3l.49-1.23.7 1a13.8 13.8 0 0 0 4.66 4.59l1.61.81-2.1.42c-3 .59-3.37.7-3.12 1.12.14.21 1.5.28 3.78.14 2.77-.18 3.36-.14 2.66.17-4.87 2.21-6.69 3.19-7.74 4.07a3.1 3.1 0 0 1-1.78.87zm24.51-2.45a24 24 0 0 0-4.13-1.65c-3.22-1-4.24-1.82-1.82-1.43a43 43 0 0 1 4.24 1c1.57.46 2.94.74 3 .56.63-1-1.75-2.31-4.83-2.66l-1.76-.21 1.58-.8a15 15 0 0 0 3.2-2.51 13 13 0 0 1 1.75-1.79 7.6 7.6 0 0 1 .91 1.86c.63 1.57.7 2.21.46 4.59-.21 2.2-.39 2.83-1 3.22s-.79.34-1.6-.18m-11.62-3.19c-.11-.17.45-.38 1.29-.45 1.61-.18 2.1-.07 1.82.45s-2.83.42-3.11 0M27.68 55c-5-.74-9.28-1.4-9.42-1.51a24 24 0 0 1 .21-4.13c.39-3.29.53-3.86 1-3.72.31.11 4.9 1.34 10.19 2.7s9.77 2.63 9.91 2.77 0 1.36-.45 2.77c-.67 2.1-.88 2.48-1.51 2.45-.4-.06-4.88-.65-9.93-1.33m-4.3-3.16A2.71 2.71 0 0 0 23 48.5c-1.06-.74-1.55-.7-2.39.14a2.26 2.26 0 0 0-.14 3.08c.66.98 2.38 1.05 2.91.1zM89.57 49a20 20 0 0 1-1.65-3.33c.07-.1 4.49-1.43 9.74-3l11.28-3.29 1.64-.49-.21 3a20.3 20.3 0 0 1-.49 3.54c-.21.38-17.37 6.69-18.24 6.69A19 19 0 0 1 89.57 49m19.93-5.71a2.22 2.22 0 0 0 .31-1.5c-.14-1.33-1.71-1.58-2.52-.39-.7 1-.7 1.16 0 1.82a1.48 1.48 0 0 0 2.21.02z"/>
    </mask>
  </defs>
  <g fill="currentColor" mask="url(#wko)">
    <path fill="currentColor" d="M54.69 113.15a3.2 3.2 0 0 1-.6-1.82 22 22 0 0 0-.42-2.52c-.21-.77 0-1.19.7-2.1a2.28 2.28 0 0 0 .74-2.18 6.55 6.55 0 0 1 .35-2.8l.59-1.75.74 1c2.06 2.69 3.22 3.78 4.8 4.59l1.75.84-1.16.24c-5.67 1.09-5.81 1.72-.35 1.44 3.43-.21 3.64-.18 2.52.28-3.46 1.36-6.62 3-7.67 4-1.22 1.19-1.4 1.26-2 .84zm24.37-2.59A39 39 0 0 0 75 109c-1.62-.52-2.91-1.15-2.91-1.36 0-.49 2.91.07 6.41 1.26 1.92.63 2 .63 2 0 0-1-.91-1.5-3.78-2.13l-2.7-.6 1.69-.8a12.7 12.7 0 0 0 3.29-2.66l1.61-1.85.77 1.92a8.4 8.4 0 0 1 .64 4.73 15.6 15.6 0 0 1-.32 3.12c-.36.59-1.48.56-2.64-.07m-11.31-2.94c-.59-.63-.14-.88 1.44-.77.91.07 1.64.28 1.64.45 0 .42-2.69.7-3.08.32m-5.32-2.98a7.75 7.75 0 0 1-3.72-3.57 31.2 31.2 0 0 0-7.18-7.46 12.75 12.75 0 0 1-4.34-4.49c-.21-.59-.66-.87-1.71-1.05-1.55-.24-2.11-.84-3.68-3.95-1.26-2.49-1.19-3.37.31-4.52a20.4 20.4 0 0 1 9-2.94c5.74 0 11.24-1.12 14.6-3l1.58-.88-1.72 1.58c-1 .84-1.68 1.61-1.57 1.72a6.4 6.4 0 0 0 1.89-.18 9.5 9.5 0 0 0 5.99-3.9L73 70.42l1.3 1.68c2.35 3.05 9.35 7.53 12.47 8 2 .28 2.63 1.12 2.1 2.74-.81 2.48.56 1.85 1.65-.74.59-1.47 1.5-2.1 1.5-1 0 1.86-2.41 5.11-3.78 5.11s-1.51.25-2.63 2.17a10.42 10.42 0 0 1-5 4.17c-.63.21-1.16.53-1.16.7 0 .56.88.7 1.86.35 1.26-.49 1.23-.07-.28 3-2.28 4.73-5.43 7.14-10.93 8.3-3.47.74-6 .67-7.63-.21zm.17-4.2c.35-1.23.63-1.54 2.21-2.28a6.2 6.2 0 0 1 5.11-.45c1.44.52 1.79.14.81-.85-.67-.63-1.19-.77-3.15-.77-2.67 0-5.5.91-6.06 2a6.1 6.1 0 0 0-.14 3.78c.38.6.84.07 1.22-1.43m5.4-5.57a13 13 0 0 1 3.36-.7c1.51 0 2-.53 1.3-1.26-.35-.39-.77-.42-1.68-.14a9.4 9.4 0 0 1-2.35.35 2.08 2.08 0 0 0-1.33.35c-.31.52-1.51.42-2.45-.21s-1-.56-4.31.14c-1.82.38-2.49.94-1.93 1.5.39.39 1.62.32 4.17-.21a2.93 2.93 0 0 1 2.1.32 11 11 0 0 1 1 .56l2.07-.7zm-.1-3.19c.45-.59 1.33-1.65 1.92-2.31s1.05-1.37 1-1.54c-.39-.63-1.23-.28-2.73 1.08-1.69 1.55-2 1.65-2.77.88-.39-.39-.49-1-.35-2.56a6.24 6.24 0 0 0-.56-3.71l-.74-1.68.88-1c.87-1 1.5-3.29 1-3.74-.11-.14-.84.45-1.54 1.29l-1.33 1.54-3.82-.42c-2.1-.21-4.52-.49-5.39-.59a2.91 2.91 0 0 0-2.88.91 6 6 0 0 0-1.33 1.33 7.2 7.2 0 0 0 2.7.14c2.84-.18 8.58.49 9.67 1 .87.46 1.64 2.38 1.64 4.17a3.55 3.55 0 0 1-.91 2.55c-.87 1-.91 1.09-.28 1.23a7.1 7.1 0 0 1 2 1.3c1.67 1.53 2.76 1.57 3.85.13zm-22.46-6.06a3.3 3.3 0 0 0-.7-1.36 7.4 7.4 0 0 1-1.12-2C43.2 81 42.18 81 42 82.19c-.07.56.35 1.26 1.4 2.31 1.6 1.65 2.04 1.89 2.04 1.12m13.31-1.12c.28 0 1.12-.21 1.86-.31 1-.18 1.26-.32 1-.67-.48-.52-9.61-.66-10.61-.14s-.7 1 .7 1a7 7 0 0 1 2.67.7c1.26.63 1.43.63 2.62.14a17 17 0 0 1 1.76-.72m23-.38c2.13-1.83 2-2.32-.32-1.12-2.07 1-5.6 1.29-6.79.52s-1.09-1.09.87-1c1.72.14 7-1.16 7-1.68a28.4 28.4 0 0 0-5.5-.42 28 28 0 0 1-6.34-.56 4.86 4.86 0 0 1-1.4-1.72c-.74-1.57-1.33-1.5-1.23.14a3.92 3.92 0 0 0 2.59 3.57 2.8 2.8 0 0 1 1.68 1.51c.25.7.77 1.05 2.39 1.61a15.5 15.5 0 0 0 3.57.74c1.42.05 1.81-.16 3.53-1.59zM27.68 55c-5.08-.74-9.28-1.4-9.42-1.51a24 24 0 0 1 .21-4.13c.39-3.29.53-3.86 1-3.72.31.11 4.9 1.3 10.19 2.7s9.77 2.63 9.91 2.77 0 1.36-.45 2.77c-.67 2.1-.88 2.48-1.51 2.45-.4-.06-4.88-.65-9.93-1.33m-4.3-3.16c.91-1.78-.28-4.16-1.86-3.71a2.22 2.22 0 0 0-1.09 3.61c.7.96 2.42 1.03 2.95.08zM89.57 49a14.2 14.2 0 0 1-1.65-3.33c.21-.24 22.45-6.79 22.56-6.65a27.6 27.6 0 0 1-.74 6.65c-.31.39-17.37 6.52-18.14 6.52A20.6 20.6 0 0 1 89.57 49m19.93-5.71a2.22 2.22 0 0 0 .31-1.5c-.14-1.3-1.68-1.58-2.48-.42-1.12 1.52.98 3.34 2.17 1.87zm-80.98 2.9a38 38 0 0 1-4-1.16c-.21-.25.28-2.24 1-4 .42-1 .35-1.33-.87-3.93a11 11 0 0 1-1.09-3.18c.42-.67 13.76-8.65 15.13-9.07a4 4 0 0 0 1.93-1.06 22.4 22.4 0 0 1 4.31-2.62C47.05 20.09 49 19 49.36 18.8a.75.75 0 0 1 1.12 0c.88.74.67 1.3-1.15 3.33A48.7 48.7 0 0 0 43 31.48a11.4 11.4 0 0 1-3.89 4.65c-1.22.91-2.45 1.82-2.66 2A2 2 0 0 0 36 39.5a2.12 2.12 0 0 1-.52 1.43 11.9 11.9 0 0 0-1.4 3.36c-.49 1.65-1.09 3-1.33 2.91s-2.14-.45-4.21-1zm63.99-7.75c-.73-2.06-1.22-2.94-1.78-3.15A3.2 3.2 0 0 1 89.4 34c-.53-1.05-1-1.29-4.66-2.1a18.3 18.3 0 0 1-4.63-2.45 14 14 0 0 0-6.37-2.87 32 32 0 0 1-3.36-.84c-.11-.07-.07-.35 0-.63.28-.7 1.54-.95 6.9-1.2 4.59-.21 4.77-.24 6.55-1.4 1-.66 1.79-1.36 1.65-1.54-.25-.42-2-.1-3.4.63s-2 .39-3.22-1.33a53 53 0 0 0-5.15-5C70 12 69 10.81 70 10.81c.59 0 2.17.91 5.88 3.29 5.08 3.3 7.32 4.49 7.6 4.07.14-.21 0-.81-.38-1.33C82.22 15.57 76.23 9 74 6.75c-2-1.86-2.24-2.49-1.4-2.8s1.57.24 7.84 5c3.16 2.35 5.89 4.31 6.06 4.31 1.79 0-4.48-5.78-9.84-9-2.47-1.47-3.17-2.56-1.73-2.56 1 0 6.8 3.12 10.23 5.5 2.94 2.07 4.06 3.4 3.39 4.07s-.42.94.81.94a2.5 2.5 0 0 1 1.61.53 1.54 1.54 0 0 0 1 .52c.88 0 .25-2.83-1.5-6.93a30 30 0 0 1-1.6-4.13c0-.74.84-.6 1.65.31a61 61 0 0 1 5.56 9.56c2.42 5.29 3.58 12.51 2.56 15.87-.35 1.15-.28 1.57.74 3.92 2.2 5.15 2.8 7 2.34 7.15-1.19.45-7.49 2.27-7.81 2.27S93 40 92.51 38.44M20.26 26c-4.38-13.91-4-15.38 1.29-5.36 1.2 2.2 2.39 4.34 2.67 4.73.84 1.12 1 .38.35-1.48L24 22.12l2.49-4c3.36-5.4 3.36-5.4 4.94-3.44.7.88 2.55 2.91 4.16 4.52a25 25 0 0 1 2.88 3.22c0 .18-.42.42-.91.53-1.2.31-2.77-.46-5-2.49-1-.87-2-1.5-2.14-1.4a5.1 5.1 0 0 0-.91 3.15c.28.77 1.19.63 1.33-.17.11-.63.32-.56 2.31.77a15 15 0 0 1 2.1 1.51c-.28.24-12.15 6.82-12.64 7s-.88-.76-2.35-5.32m17.79-6.12-1.51-1.78 1.23-1a4.7 4.7 0 0 1 1.61-1c.21 0 .74 1.06 1.19 2.35.74 2.24.74 2.35.11 2.8-.91.63-.98.59-2.63-1.37m-3.68-4.34c-.52-.74-.8-1.37-.63-1.54a25 25 0 0 1 2.77-1.23 44 44 0 0 0 4.94-2.34c4.1-2.25 3.82-.95-.67 2.76-2.48 2.1-4.66 3.58-5.29 3.58a6.4 6.4 0 0 1-1.12-1.23"/>
  </g>
</svg>