<svg viewBox="0 0 24 24" xmlns="http://www.w3.org/2000/svg" fill="#770C56"><path d="m1.065 6.534c-.71 1.712-1.065 3.534-1.065 5.465 0 1.932.355 3.754 1.065 5.466a13.768 13.768 0 0 0 3.068 4.549h2.685c-2.784-2.756-4.176-6.094-4.176-10.015 0-3.92 1.392-7.258 4.176-10.014h-2.685a13.768 13.768 0 0 0 -3.068 4.549zm21.869 10.931c.71-1.712 1.066-3.534 1.066-5.466 0-1.931-.356-3.753-1.066-5.465a13.768 13.768 0 0 0 -3.068-4.549h-2.685c2.784 2.756 4.176 6.094 4.176 10.014 0 3.921-1.392 7.259-4.176 10.015h2.685a13.768 13.768 0 0 0 3.068-4.549zm-11.304-14.166h-1.776v10.21h1.776v-.033l7.218-7.218-1.151-1.151-6.067 6.067z"/></svg>