<svg height="18" viewBox="0 0 18 18" width="18" xmlns="http://www.w3.org/2000/svg" xmlns:xlink="http://www.w3.org/1999/xlink"><linearGradient id="a" gradientUnits="userSpaceOnUse" x1="9" x2="9" y1="13.712" y2="4.288"><stop offset="0" stop-color="#005ba1"/><stop offset="1" stop-color="#0078d4"/></linearGradient><path d="m.609 13.712h8.663a.6.6 0 0 0 .432-.181l8.119-8.206a.609.609 0 0 0 -.433-1.037h-16.781a.61.61 0 0 0 -.609.612v8.2a.61.61 0 0 0 .609.612" fill="url(#a)"/><g fill="#fff"><path d="m8.329 7.767v2.247l-1.941 1.129v-2.25z" opacity=".6"/><path d="m8.329 7.767-1.941 1.129-1.945-1.132 1.945-1.129z" opacity=".9"/><path d="m6.388 8.896v2.247l-1.945-1.129v-2.25z" opacity=".75"/></g><path d="m6.665 5.117.246.135.1.055a.132.132 0 0 1 0 .228l-.1.059-.3.178a3.232 3.232 0 0 1 2.353 5.166.1.1 0 0 0 -.011.022l-.123.458a.131.131 0 0 0 .17.161l.365-.1a.07.07 0 0 0 .034-.023 3.888 3.888 0 0 0 -2.734-6.339" fill="#0ff" opacity=".75"/><path d="m8.832 11.829-.11.029a.131.131 0 0 1 -.161-.161l.03-.11.081-.3a3.223 3.223 0 0 1 -4.346.205 3.3 3.3 0 0 1 -.627-.694.1.1 0 0 0 -.024-.021l-.319-.164a.131.131 0 0 0 -.191.124l.023.459a.1.1 0 0 0 .012.036 4 4 0 0 0 .552.631 3.884 3.884 0 0 0 5.387-.112z" fill="#0ff" opacity=".5"/><path d="m2.956 10.516-.006-.116a.132.132 0 0 1 .191-.124l.1.052.263.134a3.23 3.23 0 0 1 1.859-4.532 3.3 3.3 0 0 1 .87-.163.06.06 0 0 0 .03-.009l.358-.216a.131.131 0 0 0 -.005-.227l-.356-.2a.06.06 0 0 0 -.035-.008 3.8 3.8 0 0 0 -.875.137 3.887 3.887 0 0 0 -2.376 5.617z" fill="#0ff"/></svg>