<svg viewBox="0 0 128 128" xmlns="http://www.w3.org/2000/svg"><path d="m95.671875 112.554688-17.429687-17.339844-.246094.042968v-.183593l-37.066406-36.65625 9.152343-8.820313-5.382812-30.839844-25.46875 31.597657c-4.324219 4.367187-5.15625 11.507812-2.023438 16.75l15.917969 26.421875c2.433594 4.050781 6.257812 6.65625 11.597656 6.464844 11.304688-.402344 16.273438-.402344 16.273438-.402344l34.667968 12.957031.007813.011719zm0 0" fill="#18b6f6"/><path d="m104.285156 63.960938c2.507813-5.175782 3.40625-9.703126.929688-14.253907l-3.523438-6.484375-1.828125-3.328125-.710937-1.296875-.066406.074219-9.585938-16.628906c-2.417969-4.207031-6.917969-6.777344-11.765625-6.722657l-8.40625.238282-25.09375.066406c-4.738281.03125-9.109375 2.550781-11.511719 6.632812l-15.246094 30.28125 27.285157-33.945312 35.792969 39.359375-6.40625 6.492187 3.824218 30.792969.054688-.070312v.089843h-.054688l.074219.074219 2.984375 2.90625 14.4375 14.101563c.605469.585937 1.589844-.117188 1.1875-.839844l-8.925781-17.5625" fill="#ac7ef4"/><path d="m80.640625 57.855469-35.886719-39.160157 5.097656 30.664063-9.132812 8.863281 37.1875 36.957032-3.351562-30.679688 6.085937-6.632812zm0 0" fill="#fff"/></svg>