<svg viewBox="0 0 128 128" xmlns="http://www.w3.org/2000/svg"><path d="m77.734375 15.320312-8.40625.238282-25.09375.066406c-4.738276.03125-9.109377 2.550786-11.511719 6.632812l-15.246094 30.28125.134766-.167968c-2.853184 4.342349-3.092955 10.235397-.404297 14.734375l15.917969 26.421875c2.433592 4.050777 6.257818 6.656246 11.597656 6.464844 11.304677-.402344 16.273438-.402344 16.273438-.402344l34.667968 12.957036-.898437-.89258.703125.68554c.605468.58594 1.589844-.11718 1.1875-.83984l-8.925781-17.5625 16.554691-29.976562c2.50781-5.175777 3.40624-9.70313.92968-14.253907l-3.52343-6.484375-1.828129-3.328125-.710937-1.296875-.066406.074219-9.585938-16.628906c-2.417967-4.207027-6.917974-6.777343-11.765625-6.722657zm17.929687 97.226568.007813.01171v-.0039zm-50.902343-93.95313 35.792969 39.359375-6.40625 6.492187 3.796874 30.580079-37.015624-36.607422 9.152343-8.820313-5.382812-30.839844-25.013672 31.033204zm33.265625 76.574219v.083984l-.03125.005859v-.048828z" fill="#18b6f6"/></svg>