<svg height="48" viewBox="0 0 48 48" width="48" xmlns="http://www.w3.org/2000/svg"><path d="m22 8h4v-4h-4zm-1 2h6a1 1 0 0 0 1-1v-6a1 1 0 0 0 -1-1h-6a1 1 0 0 0 -1 1v6a1 1 0 0 0 1 1m-7 15h4v-4h-4zm16 0h4v-4h-4zm-23 7h16v4h2v-4h16v4h2v-5a1 1 0 0 0 -1-1h-9v-3h2a1 1 0 0 0 1-1v-6a1 1 0 0 0 -1-1h-6a1 1 0 0 0 -1 1v6a1 1 0 0 0 1 1h2v3h-14v-3h2a1 1 0 0 0 1-1v-6a1 1 0 0 0 -1-1h-6a1 1 0 0 0 -1 1v6a1 1 0 0 0 1 1h2v3h-9a1 1 0 0 0 -1 1v5h2zm10-15h-2v-3a1 1 0 0 1 1-1h7v-2h2v2h7a1 1 0 0 1 1 1v3h-2v-2h-14zm23 27h4v-4h-4zm5-6h-6a1 1 0 0 0 -1 1v6a1 1 0 0 0 1 1h6a1 1 0 0 0 1-1v-6a1 1 0 0 0 -1-1m-23 6h4v-4h-4zm5-6h-6a1 1 0 0 0 -1 1v6a1 1 0 0 0 1 1h6a1 1 0 0 0 1-1v-6a1 1 0 0 0 -1-1m-23 6h4v-4h-4zm5-6h-6a1 1 0 0 0 -1 1v6a1 1 0 0 0 1 1h6a1 1 0 0 0 1-1v-6a1 1 0 0 0 -1-1" fill="#7aa116" fill-rule="evenodd"/></svg>