<svg xmlns="http://www.w3.org/2000/svg" viewBox="0 0 128 128"><defs><mask id="a"><path fill="#fff" d="M0 0h128v128H0z"/><path d="M100.147 126.796H27.722a5.863 5.863 0 0 1-5.862-5.862V71.762h84.15v49.172a5.86 5.86 0 0 1-5.863 5.862"/></mask></defs><g fill="currentColor" mask="url(#a)"><path d="M106.01 71.762H21.86v-4.745a5.773 5.773 0 0 1 5.773-5.773h72.602a5.773 5.773 0 0 1 5.774 5.773z"/></g><path fill="currentColor" d="m91.832 44.428 10.297-4.971v-4.971l-23.79-11.36 23.79-12.25V6.081l-9.942-4.615L64.02 15.49 35.377 1.466l-9.23 4.971v4.26l22.368 12.25-22.369 11.362v5.148l9.587 4.97L64.137 29.87z"/></svg>