<svg xmlns="http://www.w3.org/2000/svg" width="18" height="18" viewBox="0 0 18 18"><circle cx="9" cy="9" r="9" fill="currentColor"/><path fill="currentColor" d="M9 0c4.971 0 9 4.029 9 9s-4.029 9-9 9-9-4.029-9-9 4.029-9 9-9m2.645 13.049H6.356c.587 2.172 1.607 3.601 2.645 3.601s2.058-1.429 2.645-3.601zm-6.687 0h-2.45a7.68 7.68 0 0 0 3.684 3.069c-.47-.738-.858-1.661-1.143-2.714zm10.534 0h-2.45c-.291 1.2-.712 2.249-1.235 3.069a7.7 7.7 0 0 0 3.519-2.814l.167-.255zM4.585 7.2H1.563l-.004.016a7.7 7.7 0 0 0-.209 1.785c0 .95.173 1.86.49 2.7h2.855a18.8 18.8 0 0 1-.111-4.5zm7.472 0H5.943a17 17 0 0 0 .122 4.5h5.87a17 17 0 0 0 .122-4.5m4.38 0h-3.022a19 19 0 0 1-.111 4.5h2.855a7.7 7.7 0 0 0 .277-4.5zM6.193 1.881l-.021.008A7.68 7.68 0 0 0 2.025 5.85h2.743c.282-1.577.774-2.95 1.424-3.969zM9 1.349l-.104.005c-1.139.104-2.239 1.906-2.75 4.496h5.707c-.51-2.583-1.605-4.381-2.74-4.495zm2.808.532.096.157c.602 1.001 1.059 2.315 1.327 3.813h2.743a7.68 7.68 0 0 0-3.904-3.86z"/><path fill="currentColor" d="M9 0a27.85 27.85 0 0 1 0 18c4.937 0 9-4.063 9-9a9 9 0 0 0-9-9"/></svg>