<svg height="48" viewBox="0 0 48 48" width="48" xmlns="http://www.w3.org/2000/svg"><path d="m24.73 29.686a.759.759 0 1 1 -1.517-.002.759.759 0 0 1 1.518.002m-3.515 0c0 1.167.732 2.16 1.758 2.563v3.15h2v-3.15a2.76 2.76 0 0 0 1.758-2.563 2.76 2.76 0 0 0 -2.758-2.758 2.76 2.76 0 0 0 -2.758 2.758m-.637-10.547a3.4 3.4 0 0 1 3.395-3.395 3.4 3.4 0 0 1 3.395 3.395 3.4 3.4 0 0 1 -3.395 3.394 3.4 3.4 0 0 1 -3.395-3.394m-2 0a5.4 5.4 0 0 0 5.395 5.394 5.4 5.4 0 0 0 5.395-5.394 5.4 5.4 0 0 0 -5.395-5.395 5.4 5.4 0 0 0 -5.395 5.395m12.305 17.148a.75.75 0 0 1 -.748.748h-12.326a.75.75 0 0 1 -.747-.748v-23.751c0-.412.335-.747.747-.747h12.325c.412 0 .748.335.748.747zm-13.074-26.498a2.75 2.75 0 0 0 -2.747 2.747v23.75a2.75 2.75 0 0 0 2.747 2.749h12.325a2.75 2.75 0 0 0 2.748-2.748v-23.751a2.75 2.75 0 0 0 -2.748-2.747zm21.86 28.748c0 .626-.51 1.135-1.134 1.135h-29.126a1.136 1.136 0 0 1 -1.135-1.135v-29.114c0-.626.509-1.135 1.135-1.135h29.126c.625 0 1.134.509 1.134 1.135zm6.276-24.111v-2h-4.276v-3.003a3.14 3.14 0 0 0 -3.134-3.135h-3.016v-4.288h-2v4.288h-3.274v-4.288h-2v4.288h-3.273v-4.288h-2v4.288h-3.273v-4.288h-2v4.288h-3.274v-4.288h-2v4.288h-3.016a3.14 3.14 0 0 0 -3.135 3.135v3.003h-4.275v2h4.275v3.273h-4.275v2h4.275v3.274h-4.275v2h4.275v3.273h-4.275v2h4.275v3.274h-4.275v2h4.275v3.017a3.14 3.14 0 0 0 3.135 3.135h3.016v4.274h2v-4.274h3.274v4.274h2v-4.274h3.273v4.274h2v-4.274h3.273v4.274h2v-4.274h3.274v4.274h2v-4.274h3.016a3.14 3.14 0 0 0 3.134-3.135v-3.017h4.276v-2h-4.276v-3.274h4.276v-2h-4.276v-3.273h4.276v-2h-4.276v-3.274h4.276v-2h-4.276v-3.273z" fill="#7aa116" fill-rule="evenodd"/></svg>