<svg xmlns="http://www.w3.org/2000/svg" width="1000" height="327.084" viewBox="0 0 1000 327.084"><path fill="#fff" d="M773.387 0c-25.373.03-47.189 5.804-65.77 15.834-14.045-9.823-33.07-15.872-59.234-15.82-19.057-.015-36.635 3.59-51.863 11.195l.008-6.824-125.075.53.188 54.773c-9.49-3.679-20.165-5.421-31.729-5.448-15.52.082-30.111 3.971-42.01 11.25-1.735-8.512-5.063-17.9-10.798-26.967-15.535-24.996-47.22-37.525-85.077-37.517-25.372.03-47.187 5.804-65.638 15.851-14.046-9.822-33.073-15.871-59.237-15.82-19.057-.014-36.632 3.59-51.861 11.195l.006-6.826L0 5.643l.313 82.886s2.375-.064 7.236-.047c9.06.074 13.684 5.703 13.806 12.547.1 32.18.311 126.474.545 133.465.324 9.235-3.913 14.294-13.412 14.553-4.216.073-7.494.014-7.494.014l.33 77.724h416.637l-.162-52.547a124 124 0 0 0 24.06 1.889c12.795-.329 21.835-3.015 30.721-6.51l-.01 57.467 414.975-.299 1.54-79.162c-13.784.847-17.47-4.916-17.449-14.76-.04-.662-.054-2.502.09-5.502l35.371-.088-.045-3.552c7.185 3.227 19.168 5.018 30.819 4.4 17.743-.955 31.717-6.108 43.045-15.96 12.206-10.52 19.02-25.856 19.084-42.784-.13-15.51-4.918-28.645-14.143-39.113l8.285-.035-.289-73.627h-80.892l22.898-44.555a55 55 0 0 0-2.547-.133l-58 .236-13.586 31.334c-1.045-1.983-2.107-3.837-3.263-5.966C842.8 12.504 811.243-.008 773.387 0"/><path fill="#592411" d="M773.464 17.741c-24.598.138-47.509 7.204-68.04 19.984-10.347-12.856-30.559-19.857-55.14-19.848-25.373.03-47.041 5.693-68.252 18.64l-.03-14.314-92.025.118.187 47.028c13.982 11.259 21.646 27.419 21.724 46.204.11 20.496-11.78 31.585-11.78 31.585l62.713-.11.569 118.765-72.307.093.179 43.219 114.25-.19-.161-43.349c-11.564-.026-17.586-7.95-17.677-20.83l-.659-144.246c-.146-15.381 11.993-22.496 28.417-22.453 15.651-.064 28.533 6.71 28.515 22.33l1.022 208.368 93.35-.197-.16-43.349c-11.563-.026-17.586-7.95-17.677-20.83l-.563-143.97c-.059-16.026 12.508-22.425 28.417-22.454 15.65-.063 28.549 6.58 28.513 22.33.02 10.507 1.023 208.368 1.023 208.368l93.866-.126-.565-43.272c-13.387-.148-17.857-9.826-17.596-22.394l-.754-162.904c-.196-35.344-25.465-62.213-79.359-62.196m-471.376 1.135c-24.598.137-47.509 7.204-68.04 19.983-10.348-12.856-30.56-19.856-55.14-19.848-25.373.03-47.042 5.694-68.253 18.64l-.028-14.314-92.026.119.11 46.623c13.681-.074 20.94 8.415 21.002 19.583l.63 156.06c-.02 12.732-7.032 20.82-20.694 20.765l.16 43.348 114.25-.19-.161-43.349c-11.563-.026-17.586-7.95-17.677-20.83l-.417-144.082c-.147-15.381 11.992-22.496 28.417-22.452 15.78-.047 28.532 6.71 28.514 22.33l1.022 208.367 93.35-.197-.16-43.348c-11.564-.026-17.586-7.95-17.677-20.83l-.787-144.264c-.059-16.025 12.508-22.425 28.417-22.453 15.78-.046 28.55 6.58 28.515 22.33.02 10.506 1.02 208.367 1.02 208.367l93.868-.125-.124-40.717c-8.4-3.002-15.814-7.443-22.28-13.065-15.027-13.24-23.315-31.588-23.476-51.698-.205-31.406 22.71-48.188 23.004-48.41.44-.333 1.576-.963 1.723-1.074-.24-.165-11.126-10.995-11.29-33.993-.129-15.51 4.67-29.55 13.668-40.644-.573-5.462-.927-8.662-.892-8.92-4.725-30.063-30.178-51.708-78.548-51.712m612.164 7.912-26.294.033L871.37 65.75l20.365.063zm10.842 43.786c-27.022-.071-46.785 16.6-46.616 40.361.088 19.553 10.255 30.273 30.245 37.895 10.307 3.92 21.885 6.18 29.698 9.229 6.217 2.304 10.29 6.933 10.406 13.77.052 5.383-5.983 14.252-17.695 13.941-16.67-.342-30.425-8.674-33.024-23.198l-20.636.026.186 46.714 21.954-.106.03-6.946c8.78 5.544 20.444 10.045 34.037 9.96 32.657-.065 50.788-20.11 50.695-43.467-.041-17.973-9.451-36.194-34.89-43.128-25.036-7.01-35.244-9.736-35.231-19.439-.083-7.093 4.607-11.82 13.352-11.788 13.85-.049 25.829 7.905 28.836 17.502l21.825-.124-.18-40.024-23.272.186.024 6.56c-7.423-4.962-18.638-7.96-29.744-7.923m-484.922 1.04c-27.343.02-54.54 15.42-54.398 48.263.197 19.851 10.964 29.614 18.363 37.072 0 0-31.988 14.869-31.818 46.533.181 30.616 25.553 53.824 61.973 53.749 37.986.01 57.06-18.486 57.06-18.486l10.01 9.527 44.043-.069-.068-27.58-16.037.01s-9.729-8.7-10.193-9.157c8.555-8.793 12.278-18.78 12.278-18.78l13.68-.075-.086-27.452-39.052.105s-1.712 15.518-10.068 23.813l-32.297-31.257s30.738-14.385 30.56-42.112c-.186-28.647-23.587-44.099-53.95-44.104m.782 27.154c7.64-.123 18.281 4.765 18.29 16.319.063 14.057-18.162 22.43-18.162 22.43s-17.765-12.44-17.795-21.897c-.044-11.297 7.54-16.81 17.667-16.852m-14.589 79.379 40.67 38.325s-9.991 8.725-26.433 8.81-28.283-10.482-28.305-23.877c-.076-15.896 14.068-23.258 14.068-23.258"/></svg>