<svg fill="none" height="18" viewBox="0 0 18 18" width="18" xmlns="http://www.w3.org/2000/svg" xmlns:xlink="http://www.w3.org/1999/xlink"><linearGradient id="a" gradientUnits="userSpaceOnUse" x1="8.839" x2="8.839" y1="18" y2="11.657"><stop offset="0" stop-color="#c3f1ff"/><stop offset=".999" stop-color="#9cebff"/></linearGradient><clipPath id="b"><path d="m0 0h18v18h-18z"/></clipPath><g clip-path="url(#b)"><path d="m2.532 0h12.936c.207 0 .414.12.414.24v2.697c0 .12-.207.24-.414.24h-12.936c-.207 0-.414-.12-.414-.24v-2.697c0-.18.207-.24.414-.24" fill="#005ba1"/><path d="m.964 1.059h16.072c.535 0 .964.605.964 1.361v13.462h-18v-13.462c0-.756.429-1.36.964-1.36" fill="#5ea0ef"/><path d="m17.682 14.082h-17.682v1.589h17.682z" fill="#0078d4"/><path d="m2.753 11.33h12.176c.212 0 .424.211.424.423v.953a.456.456 0 0 1 -.424.424h-12.176a.455.455 0 0 1 -.424-.424v-.953c0-.212.212-.424.424-.424" fill="#83b9f9"/><path d="m14.718 8.365a.424.424 0 1 0 0-.847.424.424 0 0 0 0 .847" fill="#c3f1ff"/><path d="m3.176 11.647h11.33v5.93a.455.455 0 0 1 -.424.423h-10.482a.455.455 0 0 1 -.424-.424z" fill="url(#a)"/></g></svg>