<svg xmlns="http://www.w3.org/2000/svg" width="670" height="124" viewBox="0 0 670 124"><path d="M346.406 94.674h12.474v27.728h-12.474zM591.564 94.706h12.474V122.4h-12.474zM513.735 103.256v-6.971c-3.378-1.711-8.315-2.852-14.972-2.852-13.301 0-15.062 5.688-15.062 8.614 0 4.894 2.992 7.15 8.014 8.925 5.872 2.071 10.789 1.381 10.789 3.859 0 .716-.947 1.438-3.439 1.438-5.16 0-10.637-1.994-14.221-4.148v7.687c4.569 2.193 10.21 3.588 14.799 3.588 10.234 0 15.806-4.11 15.806-9.542 0-5.361-4.225-7.545-11.183-9.237-4.463-1.08-7.4-1.08-7.4-2.801 0-.948 1.253-1.67 3.683-1.67 4.228 0 9.073 1.268 13.186 3.11M668.282 103.256v-6.971c-3.371-1.711-8.312-2.852-14.971-2.852-13.301 0-15.064 5.688-15.064 8.614 0 4.894 2.994 7.15 8.008 8.925 5.875 2.071 10.802 1.381 10.802 3.859 0 .716-.952 1.438-3.443 1.438-5.158 0-10.641-1.994-14.229-4.148v7.687c4.578 2.193 10.212 3.588 14.81 3.588 10.236 0 15.802-4.11 15.802-9.542 0-5.361-4.221-7.545-11.183-9.237-4.457-1.08-7.392-1.08-7.392-2.801 0-.948 1.252-1.67 3.668-1.67 4.232 0 9.08 1.268 13.192 3.11M462.226 123.217c12.17 0 16.772-4.766 16.772-11.908V94.706h-12.044v17.312c0 2.167-2.479 3.987-4.729 3.987-2.248 0-4.725-1.82-4.725-3.987V94.706h-12.042v16.603c.001 7.142 4.599 11.908 16.768 11.908M633.604 122.401v-5.922h-12.352v-5.86h10.572v-5.715h-10.572v-4.315h12.352v-5.883h-24.205v27.695zM518.701 100.864h8.067v21.537h12.634v-21.537h8.072v-6.158h-28.773zM400.968 122.401V94.674h-12.676v12.824l-10.17-12.824h-13.905v27.727h12.675v-13.503l10.423 13.503zM311.066 105.201l-5.868-10.495h-11.585l11.204 17.932v9.763h12.639v-9.974l11.066-17.721h-11.583zM282.58 122.401l10.121-27.695h-11.716l-5.958 17.512-5.935-17.512h-11.713l10.141 27.695zM236.697 94.706l-10.144 27.697h11.838l.933-3.268h9.192l.938 3.268h11.837l-10.147-27.697zm4.158 19.059 3.056-10.682 3.067 10.682zM224.529 122.401v-5.922h-12.341v-5.86h10.565v-5.715h-10.565v-4.315h12.341v-5.878h-24.198v27.69zM423.284 122.403c12.278 0 18.236-5.784 18.236-13.888 0-9.087-7.532-13.842-17.617-13.842h-17.597v27.729h16.978zm-1.423-7.783h-2.881v-13.163h2.433c4.243 0 6.588 2.639 6.588 6.886 0 3.261-2.79 6.277-6.14 6.277M552.357 94.706v27.697h13.391v-8.947l8.304 8.953h14.863l-11.069-10.89c4.811-.188 8.659-3.388 8.659-8.175 0-5.595-4.319-8.639-9.493-8.639zm17.66 12.3h-4.269v-7.005h4.527c1.623 0 3.413 1.245 3.413 3.637 0 2.103-1.67 3.368-3.671 3.368M182.412 94.706v9.691h-8.886v-9.691h-12.585v27.695h12.585v-9.951h8.886v9.951h12.582V94.706zM237.316 41.202h21.705v45.376h-21.705zM203.813 41.202l-7.85 15.928-7.858-15.928h-20.896l-6.268 45.376h20.275l1.812-18.951 12.935 18.951 12.928-18.951 1.815 18.951h20.275l-6.27-45.376zM311.38 41.202h-46.077v12.392h12.599v32.994h20.883V53.594h12.595zM366.433 59.268V46.192c-7.508-3.635-16.429-5.926-24.923-5.926-15.963 0-24.664 5.377-24.664 14.3 0 7.696 4.83 10.645 13.005 13.732 9.46 3.575 15.481 1.788 15.481 4.699 0 1.132-.349 1.98-4.012 1.98-8.533 0-16.733-3.39-22.654-6.775V81.75c7.559 3.447 16.874 5.645 24.474 5.645 10.258 0 24.758-2.393 24.758-14.486 0-8.421-7.267-12.803-17.113-15.052-7.382-1.685-12.33-1.151-12.33-3.857 0-1.356 1.92-1.883 5.161-1.883 6.987 0 16.822 3.297 22.817 7.151M497.424 41.202h21.703v45.386h-21.703zM648.303 41.202H670v45.386h-21.697zM576.062 59.268V46.192c-7.511-3.635-16.435-5.926-24.929-5.926-15.96 0-24.653 5.377-24.653 14.3 0 7.696 4.826 10.645 12.999 13.732 9.459 3.575 15.486 1.788 15.486 4.699 0 1.132-.353 1.98-4.02 1.98-8.526 0-16.727-3.39-22.654-6.775V81.75c7.568 3.447 16.876 5.645 24.475 5.645 10.256 0 24.755-2.393 24.755-14.486 0-8.421-7.26-12.803-17.104-15.052-7.382-1.685-12.337-1.151-12.337-3.857 0-1.356 1.921-1.883 5.164-1.883 6.989 0 16.825 3.297 22.818 7.151M402.556 87.396c14.106 0 28.062-5.714 28.062-18.838V41.203h-21.184v27.846c0 3.697-2.979 6.774-6.878 6.774s-6.882-3.077-6.882-6.774V41.203h-21.189v27.354c-.001 13.125 13.961 18.839 28.071 18.839M473.901 86.588c12.54 0 16.733-5.834 16.733-12.051 0-5.909-3.383-9.774-8.225-11.644 3.622-1.79 5.641-5.394 5.641-9.382 0-7.331-6.589-12.31-13.594-12.31h-36.311v45.386h35.756zm-8.483-35.747c2.427 0 3.76 1.724 3.76 3.605 0 2.112-1.714 3.384-3.686 3.384h-5.361v-6.989zm.074 24.318h-5.361v-6.905h5.581c1.79 0 3.603 1.282 3.603 3.438-.001 1.898-1.533 3.467-3.823 3.467M618.735 41.202v15.995h-12.326V41.202h-21.583v45.386h21.583V70.392h12.326v16.196h21.583V41.202z"/><path fill="#e31f26" d="m70.328 81.804 23.436-40.595L70.32.605 46.884 41.203zM70.328 81.804l23.436 40.597h46.881l-23.446-40.597zM70.328 81.804H23.442L0 122.401h46.886z"/></svg>