<svg fill="#0cf" viewBox="0 0 24 24" xmlns="http://www.w3.org/2000/svg"><path d="m21.96.0655 1.369 2.082c-3.2662.9041-6.8623 1.5142-10.7875 1.8302v3.8061h10.1945c-.448 4.4272-1.616 7.9444-3.5041 10.5525 1.239 1.475 2.8271 2.788 4.7682 3.9381l-1.7 1.6601a25.133 25.133 0 0 1 -4.5823-3.7402 20.9459 20.9459 0 0 1 -4.9932 3.7402l-1.528-1.726c2.143-1.2121 3.8151-2.4762 5.0192-3.7932-1.599-2.5201-2.6441-5.2913-3.1352-8.3124h-.54c.07 5.5593-.892 10.1604-2.8851 13.8056l-2.002-1.396c1.73-3.0302 2.594-7.2944 2.594-12.7916v-7.8243c4.2872-.167 8.1904-.776 11.7125-1.8301zm-1.8972 10.0384h-4.6102c.35 2.3001 1.115 4.4132 2.2921 6.3353 1.184-1.861 1.9571-3.9732 2.3181-6.3353zm-10.6574-6.4812c-.123 1.984-.51 4.0441-1.159 6.1772l-2.1461-.618c.308-.887.584-1.9551.83-3.2002h-3.3473c-.623 1.5181-1.269 2.8482-1.937 3.9892l-1.646-1.7909c1.186-2.0983 2.138-4.7955 2.8581-8.0876l2.2401.646a63.5656 63.5656 0 0 1 -.764 2.8842zm-.961 15.7546c-1.6161 1.616-3.1532 2.9021-4.6102 3.8602l-1.3842-1.9101c.255-.22.382-.554.382-1.002v-11.8946h2.3451v10.8404c.623-.483 1.396-1.185 2.3181-2.107z"/></svg>