<svg xmlns="http://www.w3.org/2000/svg" width="18" height="18" viewBox="0 0 18 18"><circle cx="9" cy="9" r="8.5" fill="currentColor"/><circle cx="9" cy="9" r="7.321" fill="currentColor"/><path fill="currentColor" d="M9.1 9.937 6.266 7.125a.507.507 0 0 0-.709 0L5.2 7.48a.47.47 0 0 0-.143.337.48.48 0 0 0 .141.339l2.132 2.122-2.178 2.163a.473.473 0 0 0 0 .676l.361.355a.507.507 0 0 0 .709 0l2.878-2.86a.48.48 0 0 0 .141-.338.47.47 0 0 0-.141-.337m-.345-2.259a.48.48 0 0 0 .141.338l2.88 2.859a.507.507 0 0 0 .709 0l.361-.356a.47.47 0 0 0 .143-.337.48.48 0 0 0-.141-.338l-2.174-2.162 2.132-2.123a.48.48 0 0 0 .141-.338.47.47 0 0 0-.143-.337l-.361-.356a.507.507 0 0 0-.709 0L8.9 7.34a.47.47 0 0 0-.145.338"/></svg>