<svg height="18" viewBox="0 0 18 18" width="18" xmlns="http://www.w3.org/2000/svg" xmlns:xlink="http://www.w3.org/1999/xlink"><linearGradient id="a" gradientUnits="userSpaceOnUse" x1="8.957" x2="8.957" y1="3.171" y2="14.829"><stop offset="0" stop-color="#50e6ff"/><stop offset=".5" stop-color="#32bedd"/></linearGradient><path d="m10.604 9.561v-1.109a1.9 1.9 0 0 1 -.055-.555h-3.217q.014.282-.055.555v1.109q.07.273.055.555h3.217a1.9 1.9 0 0 1 .055-.555m.277-2.719q.095.24.111.498l1.444.004a4 4 0 0 0 -.388-.665l-.498-.555-.67-.443-.664-.335q.157.21.277.444l.222.498.166.555zm0 5.491.665-.443.498-.555a4 4 0 0 0 .392-.665h-1.444a1.6 1.6 0 0 1 -.111.498l-.166.554-.222.498q-.12.234-.277.446c.241-.066.467-.179.665-.332zm3.147-4.552.575-.578a5.95 5.95 0 0 0 -4.41-4.008v.727a5.25 5.25 0 0 1 3.835 3.859m-8.967 1.226c-.004.376.052.751.166 1.109h1.552a2 2 0 0 0 -.055-.555v-1.109q.069-.273.055-.555h-1.552c-.114.359-.17.733-.166 1.109zm1.94-2.161.166-.555.222-.498q.12-.235.278-.448a1.9 1.9 0 0 0 -.665.333l-.665.446-.498.555q-.226.314-.39.665h1.442a1.6 1.6 0 0 1 .111-.498zm-.665 5.044.665.443c.198.154.424.267.665.332a3 3 0 0 1 -.278-.443l-.222-.498-.166-.554a1.6 1.6 0 0 1 -.111-.498l-1.442-.002q.164.35.39.665l.498.555zm4.102-1.218h-2.994q.027.202.111.388l.166.498q.077.264.222.498l.277.388.333.333.388.111.388-.111.332-.333.277-.388q.145-.234.222-.498l.166-.498a1.4 1.4 0 0 0 .111-.388zm-6.56-.357-.567.57a5.95 5.95 0 0 0 4.497 3.945v-.72a5.25 5.25 0 0 1 -3.93-3.795m6.314 3.765v.727a5.95 5.95 0 0 0 4.41-4.008l-.575-.578a5.25 5.25 0 0 1 -3.835 3.859m-2.384-10.189v-.72a5.95 5.95 0 0 0 -4.497 3.945l.567.57a5.25 5.25 0 0 1 3.93-3.795m5.014 5.116a3.6 3.6 0 0 0 -.167-1.109h-1.552q-.014.282.055.555v1.109a1.9 1.9 0 0 0 -.055.555h1.552c.114-.359.17-.733.167-1.109zm-5.266-2.053a1.4 1.4 0 0 0 -.111.388h2.994a1.4 1.4 0 0 0 -.111-.388l-.166-.498a2 2 0 0 0 -.222-.498l-.277-.388-.332-.332-.388-.111-.388.111-.333.332-.277.388a2 2 0 0 0 -.222.498z" fill="url(#a)"/><path d="m6.88 2.321h1.24a.11.11 0 0 1 .11.11v2c0 .061.049.11.11.11h1.32a.11.11 0 0 0 .11-.11v-2a.11.11 0 0 1 .11-.11h1.24a.1.1 0 0 0 .121-.073.1.1 0 0 0 -.041-.107l-2.12-2.11a.12.12 0 0 0 -.16 0l-2.12 2.11a.1.1 0 0 0 .08.18m4.24 13.358h-1.24a.11.11 0 0 1 -.11-.11v-2a.11.11 0 0 0 -.11-.11h-1.32a.11.11 0 0 0 -.11.11v2a.11.11 0 0 1 -.11.11h-1.24a.1.1 0 0 0 -.08.18l2.12 2.11a.12.12 0 0 0 .16 0l2.12-2.11a.1.1 0 0 0 -.08-.18" fill="#0078d4"/><path d="m17.89 8.23h-2a.11.11 0 0 1 -.11-.11v-1.24a.1.1 0 0 0 -.073-.121.1.1 0 0 0 -.107.041l-2.11 2.12a.12.12 0 0 0 0 .16l2.11 2.12a.1.1 0 0 0 .18-.08v-1.24a.11.11 0 0 1 .11-.11h2a.11.11 0 0 0 .11-.11v-1.32a.11.11 0 0 0 -.11-.11m-15.49-1.43a.1.1 0 0 0 -.18.08v1.24a.11.11 0 0 1 -.11.11h-2a.11.11 0 0 0 -.11.11v1.32c0 .061.049.11.11.11h2a.11.11 0 0 1 .11.11v1.24a.1.1 0 0 0 .18.08l2.11-2.12a.12.12 0 0 0 0-.16z" fill="#86d633"/></svg>