<svg height="18" viewBox="0 0 18 18" width="18" xmlns="http://www.w3.org/2000/svg"><rect fill="#a67af4" height="6.053" rx=".401" width="6.053" x="5.974"/><path d="m11.392 5.523h-4.781a.107.107 0 0 1 -.107-.108v-4.777c0-.059.048-.107.107-.108h4.778c.059 0 .108.048.108.108v4.777a.11.11 0 0 1 -.105.108" fill="#773adc"/><path d="m7.202.983h1.257v4.087h-1.257zm2.339-.001h1.257v4.088h-1.257z" fill="#b796f9"/><path d="m8.045 10.794a2.63 2.63 0 0 1 1.797-.007l2.184.779v-4.341a.4.4 0 0 0 -.401-.401h-5.25a.4.4 0 0 0 -.401.401v4.327z" fill="#a67af4"/><path d="m8.045 10.794a2.63 2.63 0 0 1 1.797-.007l1.654.59v-3.914a.11.11 0 0 0 -.108-.108h-4.777a.107.107 0 0 0 -.107.108v3.896l1.541-.564z" fill="#773adc"/><path d="m9.842 10.786.956.341v-3.321h-1.257v2.894q.153.034.301.085zm-1.797.008q.203-.075.414-.113v-2.873h-1.257v3.295z" fill="#b796f9"/><path d="m5.264 2.406h-4.105a.37.37 0 0 0 -.37.37v4.847c0 .204.166.37.37.37h4.105z" fill="#a67af4"/><path d="m5.264 2.895h-3.888a.1.1 0 0 0 -.099.099v4.41c0 .055.044.099.099.099h3.887v-4.608z" fill="#773adc"/><path d="m1.922 3.313h1.161v3.773h-1.161zm2.181-.001h1.161v3.774h-1.161z" fill="#b796f9"/><path d="m2.807 11.517a2.13 2.13 0 0 1 1.457-.006l.999.356v-3.183h-4.104a.37.37 0 0 0 -.37.37v3.202z" fill="#a67af4"/><path d="m2.807 11.517a2.13 2.13 0 0 1 1.457-.006l.999.356v-2.694h-3.887a.1.1 0 0 0 -.099.099v2.804l1.53-.56z" fill="#773adc"/><path d="m4.287 11.511.977.349v-2.269h-1.161v1.864q.093.024.184.056m-1.48.006q.135-.049.276-.078v-1.847h-1.161v2.25l.885-.324z" fill="#b796f9"/><path d="m15.136 11.517a2.13 2.13 0 0 0 -1.457-.006l-.999.356v-3.183h4.105a.37.37 0 0 1 .37.37v3.202z" fill="#a67af4"/><path d="m15.136 11.517a2.13 2.13 0 0 0 -1.457-.006l-.999.356v-2.694h3.887a.1.1 0 0 1 .099.099v2.804l-1.53-.56z" fill="#773adc"/><path d="m13.656 11.511-.977.349v-2.269h1.161v1.864a2 2 0 0 0 -.184.056m1.48.006a2 2 0 0 0 -.276-.078v-1.847h1.161v2.25l-.885-.324z" fill="#b796f9"/><path d="m12.68 2.406h4.105a.37.37 0 0 1 .37.37v4.847a.37.37 0 0 1 -.37.37h-4.105z" fill="#a67af4"/><path d="m12.68 2.895h3.887a.1.1 0 0 1 .099.099v4.41a.1.1 0 0 1 -.099.099h-3.887z" fill="#773adc"/><path d="m14.86 3.313h1.161v3.773h-1.161zm-2.18-.001h1.161v3.774h-1.161z" fill="#b796f9"/><path d="m17.988 17.993h-17.988l.004-1.012q.119.01.254.011c.726-.001 1.09-.234 1.454-.467.365-.233.73-.467 1.459-.467h.003c.73 0 1.094.233 1.459.467.365.233.729.467 1.458.467s1.093-.234 1.458-.467.73-.467 1.459-.467h.003c.182 0 .34.015.482.04.432.077.708.252.983.428.365.233.729.465 1.456.466.728 0 1.092-.234 1.456-.467.365-.233.73-.467 1.459-.467h.014c.725.004 1.09.236 1.454.468.365.233.73.466 1.459.466q.112 0 .213-.007v1.008z" fill="#83b9f9"/><g fill="#0078d4"><path d="m.092 13.594.82 1.762.026.056.22.496.128.293.156-.096c.38-.243.853-.546 1.731-.546s1.349.303 1.729.546c.179.114.34.214.536.284l-.243-.504-.014-.029-.032-.068-1.011-2.172-.013-.027-.01-.029a4 4 0 0 1 -.108-.366c-.041-.176-.072-.383.013-.586a1 1 0 0 1 .448-.492l-.372-.133a1.64 1.64 0 0 0 -1.117.005l-2.221.813-.58.213a.3.3 0 0 0 -.173.166c-.012.03-.002.098.015.171.027.116.072.244.072.244z"/><path d="m4.698 13.354 1.011 2.172.032.068.413.893c.534-.014.801-.175 1.125-.383.38-.243.853-.546 1.731-.546.204 0 .391.016.57.048.531.094.868.309 1.165.499.296.189.55.336.994.372l.44-.873.01.003.04-.081.054-.109.045-.091.966-1.969s.154-.415.114-.512a.37.37 0 0 0 -.217-.208l-.818-.292-2.74-.978a2.02 2.02 0 0 0 -1.377.006l-2.738 1.003-.715.262a.37.37 0 0 0 -.213.204c-.015.036-.003.121.018.21.033.143.089.301.089.301z"/><path d="m13.967 12.607c.084.203.054.411.013.586a4 4 0 0 1 -.108.366l-.01.029-.013.027-1.011 2.172-.032.068-.014.029-.249.515c.213-.071.385-.174.575-.295.372-.238.833-.533 1.708-.544h.037c.872.003 1.342.304 1.721.545l.125.077.12-.274.22-.496.026-.055.82-1.762s.045-.128.072-.244c.017-.073.027-.141.015-.171a.3.3 0 0 0 -.173-.166l-.58-.212-2.221-.814a1.64 1.64 0 0 0 -1.117-.005l-.372.133c.2.107.36.28.448.492z"/></g></svg>