<svg viewBox="0 0 24 24" xmlns="http://www.w3.org/2000/svg"><path d="m7.988 4.822v.901h1.845v6.337q0 1.213.563 1.875.569.657 1.6.657h1.458v-.97h-1.344q-.555 0-.844-.393-.28-.394-.281-1.17v-7.236zm-4.529 2.596q-1.626 0-2.546.976-.913.975-.913 2.702 0 1.725.913 2.702.92.976 2.546.976a3.7 3.7 0 0 0 1-.137q.495-.132.958-.4v-1.197q-.406.388-.882.576a3 3 0 0 1 -1.076.18q-1.076.001-1.664-.7-.581-.706-.582-2.001 0-1.302.582-2.002t1.664-.7q.582 0 1.038.181a3.1 3.1 0 0 1 .92.588v-1.206a4.3 4.3 0 0 0 -.97-.406 3.7 3.7 0 0 0 -.988-.132m12.855 6.123v1.128h7.686v-1.129zm3.156 2.255-2.302 3.382h1.3l1.694-2.204 1.684 2.204h1.3l-2.301-3.382z"/></svg>