<svg height="48" viewBox="0 0 48 48" width="48" xmlns="http://www.w3.org/2000/svg"><path d="m41 39v-22.346c0-1.76-.891-3.654-2.846-3.654h-3.383c-.188-1.306-.645-3.478-1.63-3.914a1 1 0 0 0 -.406-.086h-7.478a1 1 0 0 0 -.531.153c-.873.547-1.198 2.595-1.316 3.847h-2.41v2h3.346a1 1 0 0 0 1-1c0-.693.229-2.29.465-3h6.423c.29.698.651 2.378.651 3a1 1 0 0 0 1 1h4.269c.796 0 .846 1.641.846 1.654v21.346h-35v-21.336c.008-.39.166-1.664 1.846-1.664h3.154v-2h-3.154c-2.822-0-3.846 2.185-3.846 3.654v22.346a1 1 0 0 0 1 1h37a1 1 0 0 0 1-1m-9-6c1.103 0 2-.897 2-2s-.897-2-2-2-2 .897-2 2 .897 2 2 2m0 2c-2.206 0-4-1.794-4-4s1.794-4 4-4 4 1.794 4 4-1.794 4-4 4m-12.326-8h3.652l-1.826-3.39zm-2.555.526 3.5-6.5c.35-.648 1.412-.648 1.762 0l3.5 6.5a1 1 0 0 1 -.881 1.474h-7a1 1 0 0 1 -.881-1.474m-8.119 3.474h3v-3h-3zm4-5a1 1 0 0 1 1 1v5a1 1 0 0 1 -1 1h-5a1 1 0 0 1 -1-1v-5a1 1 0 0 1 1-1zm2-7a1 1 0 0 0 .707-.293l3-3-1.414-1.414-2.293 2.293-2.293-2.293-1.414 1.414 3 3a1 1 0 0 0 .707.293m0-14.586 2.293 2.293 1.414-1.414-3-3a1 1 0 0 0 -1.414 0l-3 3 1.414 1.414zm-1 8.586h2v-5h-2zm32 9.074v21.926a1 1 0 0 1 -1 1h-37a1 1 0 0 1 -1-.999v-2h2v1h35v-20.928c0-.564-.458-1.045-1.021-1.073l.1-1.997a3.07 3.07 0 0 1 2.921 3.071" fill="#7aa116" fill-rule="evenodd"/></svg>