<svg height="18" viewBox="0 0 18 18" width="18" xmlns="http://www.w3.org/2000/svg"><path d="m12.1 2.05v3.8l-3.2 1.9v-3.8z" fill="#773adc"/><path d="m10.7 4.062c.439-.263.7-.088.7.439a1.78 1.78 0 0 1 -.7 1.228c-.351.263-.7.088-.7-.439a1.78 1.78 0 0 1 .7-1.228" fill="#552f99"/><path d="m12.1 2.05-3.2 1.9-3.3-1.9 3.3-1.9z" fill="#b796f9"/><path d="m8.9 3.95v3.8l-3.3-1.9v-3.8z" fill="#a67af4"/><path d="m7.116 4.05c-.4-.2-.8 0-.8.4a1.44 1.44 0 0 0 .8 1.3c.4.2.8 0 .8-.4a1.65 1.65 0 0 0 -.8-1.3" fill="#773adc"/><path d="m17.8 7.05v3.8l-3.2 1.9v-3.8z" fill="#5e9624"/><path d="m14.6 8.95v3.8l-3.2-1.9v-3.8z" fill="#76bc2d"/><path d="m13.1 9.25c-.4-.2-.8 0-.8.4a1.44 1.44 0 0 0 .8 1.3c.4.2.8 0 .8-.4a1.65 1.65 0 0 0 -.8-1.3" fill="#5e9624"/><path d="m13.137 6.073a5.15 5.15 0 0 0 -1.937-1.423.517.517 0 0 0 -.7.3.446.446 0 0 0 .3.6 4.3 4.3 0 0 1 1.459 1.017zm-.003 2.006c.018.059.051.111.066.171l.12-.06z" fill="#32bedd"/><path d="m6.7 7.25v3.7l-3.3 1.9v-3.7z" fill="#258277"/><path d="m3.4 9.15v3.7l-3.2-1.9v-3.7z" fill="#37c2b1"/><path d="m7.4 4.95a.67.67 0 0 0 -.8-.3 6.6 6.6 0 0 0 -1.858 1.473l1.058.606a4.7 4.7 0 0 1 1.3-.979.67.67 0 0 0 .3-.8" fill="#32bedd"/><path d="m12.4 12.15v3.8l-3.2 1.9v-3.8z" fill="#d15900"/><path d="m9.2 14.05v3.8l-3.2-1.9v-3.8z" fill="#f78d1e"/><path d="m13.2 10.05a.52.52 0 0 0 -.8.1 5.3 5.3 0 0 1 -1.339 1.205l.966.573a6 6 0 0 0 1.273-1.078.52.52 0 0 0 -.1-.8" fill="#32bedd"/><path d="m5.212 9.188c.456-.249.788-.041.788.456a1.81 1.81 0 0 1 -.788 1.368c-.455.249-.787.041-.787-.456a1.7 1.7 0 0 1 .787-1.368" fill="#207067"/><path d="m7.423 11.305a4.26 4.26 0 0 1 -1.623-1.255.53.53 0 0 0 -.8-.1.53.53 0 0 0 -.1.8 5.5 5.5 0 0 0 1.379 1.235z" fill="#32bedd"/><path d="m12.4 12.15-3.2 1.9-3.2-1.9 3.2-1.9z" fill="#ffb34d"/><path d="m6.7 7.25-3.3 1.9-3.2-1.9 3.2-1.9z" fill="#42e8ca"/><path d="m17.8 7.05-3.2 1.9-3.2-1.9 3.2-1.8z" fill="#b4ec36"/></svg>