<svg height="18" viewBox="0 0 18 18" width="18" xmlns="http://www.w3.org/2000/svg"><path d="m16.814 13.026a.7.7 0 0 1 -.7.709h-4.834a.7.7 0 0 1 -.709-.7v-7.954a.7.7 0 0 1 .7-.709h4.81a.7.7 0 0 1 .71.694v7.96z" fill="#59b4d9"/><path d="m11.706 5.79h1.7v1.987h-1.7zm2.27 0h1.7v1.987h-1.7zm-2.27 3.122h1.7v1.988h-1.7zm2.27 0h1.7v1.988h-1.7z" fill="#fff"/><path d="m7.429 13.026a.7.7 0 0 1 -.7.709h-4.829a.7.7 0 0 1 -.71-.694v-7.96a.7.7 0 0 1 .7-.709h4.801a.7.7 0 0 1 .71.694v.015" fill="#0072c6"/><path d="m2.321 5.79h1.7v1.987h-1.7zm2.27 0h1.7v1.987h-1.7zm-2.27 3.122h1.7v1.988h-1.7zm2.27 0h1.7v1.988h-1.7z" fill="#59b4d9"/><path d="m9.143 17.5a3.52 3.52 0 0 0 3.493-3.185h-1.047a2.456 2.456 0 0 1 -2.428 2.154 2.36 2.36 0 0 1 -1.895-.941l1.153-1.228h-2.919v3.11l1.054-1.122a3.37 3.37 0 0 0 2.589 1.212m-.154-15.969a2.36 2.36 0 0 1 1.893.943l-1.152 1.226h2.924v-3.111l-1.054 1.121a3.37 3.37 0 0 0 -2.594-1.21 3.517 3.517 0 0 0 -3.493 3.2h1.045a2.456 2.456 0 0 1 2.431-2.169" fill="#ff8c00"/></svg>