<svg xmlns="http://www.w3.org/2000/svg" width="18" height="18" viewBox="0 0 18 18"><clipPath id="a"><path fill="currentColor" d="M15.929 7.908a2.97 2.97 0 0 0-2.546-2.94c-.072-.018-.126-.018-.2-.036a31.2 31.2 0 0 0-8.373 0c-.072.018-.143.018-.2.036a2.96 2.96 0 0 0-2.54 2.94 10.34 10.34 0 0 0 5.038 9.054 3.56 3.56 0 0 0 3.765 0 10.21 10.21 0 0 0 5.056-9.054"/></clipPath><path fill="currentColor" d="M4.806 5.025c.068-.018.119-.018.187-.035.391-.054.782-.107 1.173-.143a2.97 2.97 0 0 1 2.856-2.369 2.97 2.97 0 0 1 2.855 2.369c.391.036.782.089 1.173.143.068.017.136.017.187.035a4 4 0 0 1 .612.161 4.82 4.82 0 0 0-9.637 0 3 3 0 0 1 .594-.161"/><path fill="currentColor" d="M15.929 7.908a2.97 2.97 0 0 0-2.546-2.94c-.072-.018-.126-.018-.2-.036a31.2 31.2 0 0 0-8.373 0c-.072.018-.143.018-.2.036a2.96 2.96 0 0 0-2.54 2.94 10.34 10.34 0 0 0 5.038 9.054 3.56 3.56 0 0 0 3.765 0 10.21 10.21 0 0 0 5.056-9.054"/><g fill="currentColor" clip-path="url(#a)"><ellipse cx="9.063" cy="7.999" opacity=".4" rx="2.331" ry="2.211"/><ellipse cx="9.062" cy="15.696" opacity=".4" rx="4.661" ry="4.554"/><circle cx="9.062" cy="8.415" r="2.331"/><circle cx="9.062" cy="16.124" r="4.661"/></g></svg>