<svg xmlns="http://www.w3.org/2000/svg" id="b273fbc2-574c-4c85-948a-7cff5aa385ed" width="18" height="18" viewBox="0 0 18 18"><defs><linearGradient id="f416a69e-8f32-459b-a6b1-89363ac12b5c" x1="-262" x2="-262" y1="843.65" y2="856.5" gradientTransform="translate(271 -839)" gradientUnits="userSpaceOnUse"><stop offset="0" stop-color="#0078d4"/><stop offset="1" stop-color="#1a508b"/></linearGradient><linearGradient id="a501dfd1-d888-48c3-812a-ec6169663ca8" x1="-261.938" x2="-261.938" y1="844.8" y2="849.987" gradientTransform="translate(271 -839)" gradientUnits="userSpaceOnUse"><stop offset=".297" stop-color="#40c4f5"/><stop offset="1" stop-color="#0095e6"/></linearGradient><linearGradient id="b537e8d3-c149-41a0-a052-ab5dd8bf6d09" x1="-261.938" x2="-261.938" y1="849.895" y2="859.786" gradientTransform="translate(271 -839)" gradientUnits="userSpaceOnUse"><stop offset=".193" stop-color="#40c4f5"/><stop offset="1" stop-color="#0095e6"/></linearGradient><clipPath id="a85a7884-1a77-4414-9146-cae121a6e1b9"><path fill="none" d="M15.929 7.908a2.97 2.97 0 0 0-2.546-2.94c-.072-.018-.126-.018-.2-.036a31.2 31.2 0 0 0-8.373 0c-.072.018-.143.018-.2.036a2.96 2.96 0 0 0-2.54 2.94 10.34 10.34 0 0 0 5.038 9.054 3.56 3.56 0 0 0 3.765 0 10.21 10.21 0 0 0 5.056-9.054"/></clipPath></defs><path fill="#215694" d="M4.806 5.025c.068-.018.119-.018.187-.035.391-.054.782-.107 1.173-.143a2.97 2.97 0 0 1 2.856-2.369 2.97 2.97 0 0 1 2.855 2.369c.391.036.782.089 1.173.143.068.017.136.017.187.035a4 4 0 0 1 .612.161 4.82 4.82 0 0 0-9.637 0 3.2 3.2 0 0 1 .594-.161"/><path fill="url(#f416a69e-8f32-459b-a6b1-89363ac12b5c)" d="M15.929 7.908a2.97 2.97 0 0 0-2.546-2.94c-.072-.018-.126-.018-.2-.036a31.2 31.2 0 0 0-8.373 0c-.072.018-.143.018-.2.036a2.96 2.96 0 0 0-2.54 2.94 10.34 10.34 0 0 0 5.038 9.054 3.56 3.56 0 0 0 3.765 0 10.21 10.21 0 0 0 5.056-9.054"/><g clip-path="url(#a85a7884-1a77-4414-9146-cae121a6e1b9)"><ellipse cx="9.063" cy="7.999" fill="#004795" opacity=".4" rx="2.331" ry="2.211"/><ellipse cx="9.062" cy="15.696" fill="#004795" opacity=".4" rx="4.661" ry="4.554"/><circle cx="9.062" cy="8.415" r="2.331" fill="url(#a501dfd1-d888-48c3-812a-ec6169663ca8)"/><circle cx="9.062" cy="16.124" r="4.661" fill="url(#b537e8d3-c149-41a0-a052-ab5dd8bf6d09)"/></g></svg>