<svg height="48" viewBox="0 0 48 48" width="48" xmlns="http://www.w3.org/2000/svg"><path d="m42 24c-1.103 0-2-.897-2-2s.897-2 2-2 2 .897 2 2-.897 2-2 2m-12 13c-1.103 0-2-.897-2-2s.897-2 2-2 2 .897 2 2-.897 2-2 2m-10-10c0-1.103.897-2 2-2s2 .897 2 2-.897 2-2 2-2-.897-2-2m-14 17c-1.103 0-2-.897-2-2s.897-2 2-2 2 .897 2 2-.897 2-2 2m17-38c0-1.103.897-2 2-2s2 .897 2 2-.897 2-2 2-2-.897-2-2m-17 2c-1.103 0-2-.897-2-2s.897-2 2-2 2 .897 2 2-.897 2-2 2m36 10a3.96 3.96 0 0 0 -2.609.993l-11.051-10.803c.415-.629.66-1.381.66-2.19 0-2.206-1.794-4-4-4-1.858 0-3.411 1.28-3.858 3h-11.284c-.447-1.72-2-3-3.858-3-2.206 0-4 1.794-4 4s1.794 4 4 4c1.858 0 3.411-1.28 3.858-3h11.284c.447 1.72 2 3 3.858 3 .67 0 1.291-.181 1.847-.473l11.398 11.142a4 4 0 0 0 -.245 1.331c0 .792.238 1.526.637 2.147l-6.792 7.325a3.96 3.96 0 0 0 -1.845-.472c-.85 0-1.634.27-2.282.723l-2.626-2.217a3.96 3.96 0 0 0 .908-2.506c0-2.206-1.794-4-4-4s-4 1.794-4 4c0 .661.177 1.275.461 1.825l-10.411 9.758a3.96 3.96 0 0 0 -2.05-.583c-2.206 0-4 1.794-4 4s1.794 4 4 4 4-1.794 4-4c0-.727-.21-1.4-.55-1.989l10.333-9.685a4 4 0 0 0 2.217.674c.507 0 .986-.104 1.433-.277l2.989 2.524a3.95 3.95 0 0 0 -.422 1.753c0 2.206 1.794 4 4 4s4-1.794 4-4c0-.811-.246-1.564-.663-2.196l6.771-7.302a3.94 3.94 0 0 0 1.892.498c2.206 0 4-1.794 4-4s-1.794-4-4-4" fill="#dd344c" fill-rule="evenodd"/></svg>