<svg viewBox="0 0 128 128" xmlns="http://www.w3.org/2000/svg"><path d="m36.242 20.629c-2.2415.55379-1.1358 2.7654-1.5005 3.9767-.92977 3.0853-5.7799 4.0661-8.2058 6.1614-2.3732 2.0483-3.788 4.4411-5.6206 6.6961-1.546 1.8975-3.4755 3.7583-3.7863 5.933-.35246 2.466-.22471 5.252.89666 7.6117 1.392 2.9229 3.0341 6.6344 5.3628 9.2391 1.7887 2.0004 2.0352 2.664 5.0424 3.7189.9533.43274 1.1912.64721 2.4878.91563l.2554-1.5918 1.1147-1.3125c-1.4993-1.8329-3.7718-2.0027-5.0835-3.3392-2.1894-2.2296-2.9032-4.5083-4.2052-7.0611-1.244-2.4463-2.8629-4.3152-2.9962-6.9129-.0568-1.1126-.54744-3.1114.0362-4.1146.38759-.66605 2.2376-1.5052 2.8651-2.1418 1.9442-1.9712 1.0641-4.4622 3.3141-6.2894 2.0013-1.6262 5.3886-2.8909 7.7606-4.3791 1.6441-1.0311 2.6599-1.4025 3.0139-2.8535.38946-1.5986-.86627-2.7819-.7515-4.2566zm55.514 0c.11477 1.4748-1.14 2.658-.75089 4.2566.35466 1.451 1.3698 1.8224 3.014 2.8535 2.3716 1.4883 5.7593 2.7529 7.76 4.3791 2.2484 1.8273 1.3677 4.3182 3.3122 6.2894.62748.63657 2.4775 1.4757 2.8657 2.1418.58295 1.0032.0926 3.002.0355 4.1146-.13296 2.5977-1.7522 4.4667-2.9956 6.9129-1.302 2.5529-2.0167 4.8316-4.2034 7.0611-1.312 1.3365-3.5839 1.5063-5.0835 3.3392l1.1153 1.3125.25418 1.5918c1.2964-.26842 1.5352-.48289 2.4884-.91563 3.0051-1.0549 3.2519-1.7186 5.04-3.7189 2.3293-2.6046 3.9704-6.3162 5.3671-9.2391 1.1207-2.3597 1.2488-5.1457.89665-7.6117-.31107-2.1747-2.2446-4.0355-3.7906-5.933-1.8323-2.255-3.2472-4.6478-5.6188-6.6961-2.4256-2.0954-7.2761-3.0761-8.2058-6.1614-.36407-1.2114.74126-3.423-1.5005-3.9767zm-27.765 23.029c-9.6342 0-17.443 2.9665-17.443 6.6257 0 3.1995 7.8088 2.3035 17.443 2.3035 9.6314 0 17.444.72761 17.444-2.3035 0-3.6589-7.8123-6.6257-17.444-6.6257zm-8.6934 9.71c-9.9547 0-18.639 4.0804-23.393 10.151-.33052 1.8815-.57321 3.8028-.71964 5.7615 1.2424-.01159 26.318-.21095 28.556 1.9954 0 0 3.9985 3.9437 4.2481 4.1899.70932-.69992 4.2475-4.1899 4.2475-4.1899 2.2374-2.2064 27.317-2.0067 28.557-1.9954-.14707-1.9749-.39299-3.9112-.72884-5.8074-4.7611-6.0456-13.425-10.105-23.358-10.105zm41.509 16.085-.0012.19599c-7.2707-.06773-26.532.13911-28.304 1.8864l-4.2928 4.2346 2.7959 6.7224-2.8278 34.898c17.515-.13078 31.791-18.406 32.728-41.408.03008-.79744-3.2479-1.6654-3.2479-2.3923l.000604.000604c0-.63062 3.2822-1.413 3.2583-2.1057-.02477-.68174-.06071-1.3589-.10963-2.0322zm-65.636.0012c-.04834.67232-.08486 1.3495-.10967 2.0309-.02388.69208 3.2589 1.4757 3.2589 2.1063 0 .7272-3.2793 1.5942-3.2485 2.3929.93856 23.001 15.219 41.277 32.729 41.408l-2.829-34.898.01721-.04101.000597-.000604 2.7788-6.6826-4.2916-4.2328c-1.7717-1.7476-21.033-1.9554-28.303-1.8876zm-10.102 4.7515c-4.2667.15304-3.4973 4.6626-1.955 8.664 1.7799 4.6178 2.5832 9.4796 4.4986 14.047.8796 2.0972 2.1693 4.1434 4.4833 4.7436.11669-2.6451-.28763-3.3397-1.917-5.3052-1.3782-1.6598-1.0425-3.9348-1.9036-5.8025-1.1229-2.4472-1.3159-4.9063-2.2827-7.3698-.42742-1.091-2.6125-4.3796-2.0236-5.601.99813-2.0706 2.8783-.02628 3.8193.65105 1.3227.95204 2.0281.69723 3.6632.9089.18595.02477 1.1155.67801 3.2902 1.6708l-.25417-2.3035c-2.9809-1.4359-3.2422-3.0646-6.5032-3.9094-1.1626-.30138-2.1252-.42216-2.9153-.39382zm85.858 0c-.79057-.02832-1.7539.09244-2.9172.39382-3.2581.84479-3.5189 2.4735-6.5001 3.9094l-.25418 2.3035c2.1741-.9928 3.1036-1.646 3.2902-1.6708 1.635-.21167 2.3377.04313 3.6601-.9089.94137-.67734 2.8215-2.7216 3.82-.65105.58859 1.2214-1.5962 4.5101-2.0236 5.601-.96615 2.4635-1.1594 4.9226-2.282 7.3698-.86142 1.8677-.52569 4.1427-1.9023 5.8025-1.6291 1.9656-2.0334 2.6601-1.917 5.3052 2.3142-.60021 3.6021-2.6463 4.4814-4.7436 1.9157-4.5673 2.7193-9.4291 4.4992-14.047 1.5452-4.0013 2.3147-8.5109-1.9544-8.664zm-42.936 2.0083c-.60709 1.4597-2.6078 6.2704-2.6367 6.339.0059.07464 2.0079 24.77 2.6367 32.524.62873-7.7546 2.6295-32.449 2.6355-32.524-.02821-.06868-2.0312-4.8853-2.6355-6.339zm-27.251 23.508c-2.0947 2.7997-2.1931 5.089-3.1536 7.3214-1.6548 3.8455-.04869 9.0471 3.0905 11.815 1.8978 1.6855 4.9879 3.0163 7.2504 4.1194 3.1468 1.534 6.3071 3.5386 9.8264 4.2003.7783.14613 2.759.40624 2.0989-1.1043-.30574-.70149-2.5373-1.4398-3.1818-1.7982-2.6065-1.4497-5.1351-3.3001-7.5701-5.0725-2.9784-2.1518-6.5365-3.5076-8.8783-6.486-.95768-1.2183-1.1115-1.5436-.88317-2.9447.21731-1.3368.42181-2.877.7031-4.2144.31734-1.5074.76235-2.9654 1.5667-4.3185zm54.521 0-.86908 1.5171c.80371 1.3531 1.249 2.8111 1.5667 4.3185.2816 1.3374.48547 2.8776.70373 4.2144.22734 1.4011.07421 1.7265-.88379 2.9447-2.3415 2.9784-5.8975 4.3342-8.8759 6.486-2.4344 1.7724-4.9685 3.6228-7.575 5.0725-.6441.35844-2.8757 1.0967-3.1818 1.7982-.6579 1.5105 1.3203 1.2504 2.0983 1.1043 3.5197-.66166 6.6848-2.6663 9.8313-4.2003 2.2622-1.1032 5.3504-2.434 7.2492-4.1194 3.1383-2.7674 4.7437-7.969 3.0899-11.815-.96145-2.2324-1.0592-4.5218-3.1536-7.3214z" fill="#f39914"/><path d="m64 .7079c-10.678 0-19.366 8.6872-19.366 19.365 0 10.678 8.6872 19.366 19.366 19.366s19.365-8.6872 19.365-19.366c0-10.678-8.6872-19.365-19.365-19.365zm0 .63494c10.328 0 18.731 8.4024 18.731 18.731 0 10.328-8.4027 18.731-18.731 18.731-10.328 0-18.731-8.4024-18.731-18.731 0-10.328 8.4024-18.731 18.731-18.731zm-8.7142 10.016v17.428h17.428v-17.428h-17.143zm.28522.28522h5.4292v5.4292h-5.4292zm5.7144 0h5.4292v5.4292h-5.4292zm5.7144 0h5.4292v5.4292h-5.4292zm-2.9998.7143a2 2 0 0 0 -2.0003 2.0003 2 2 0 0 0 2.0003 2.0003 2 2 0 0 0 2.0003-2.0003 2 2 0 0 0 -2.0003-2.0003zm-8.429 5.0001h5.4292v5.4292h-5.4292zm5.7144 0h5.4292v5.4292h-5.4292zm5.7144 0h5.4292v5.4292h-5.4292zm2.7146.7143a2 2 0 0 0 -2.0003 2.0003 2 2 0 0 0 2.0003 2.0003 2 2 0 0 0 2.0003-2.0003 2 2 0 0 0 -2.0003-2.0003zm-14.143 5.0001h5.4292v5.4292h-5.4292zm5.7144 0h5.4292v5.4292h-5.4292zm5.7144 0h5.4292v5.4292h-5.4292zm-8.7142.7143a2 2 0 0 0 -2.0003 2.0003 2 2 0 0 0 2.0003 2.0003 2 2 0 0 0 2.0003-2.0003 2 2 0 0 0 -2.0003-2.0003zm5.7144 0a2 2 0 0 0 -2.0003 2.0003 2 2 0 0 0 2.0003 2.0003 2 2 0 0 0 2.0003-2.0003 2 2 0 0 0 -2.0003-2.0003zm5.7144 0a2 2 0 0 0 -2.0003 2.0003 2 2 0 0 0 2.0003 2.0003 2 2 0 0 0 2.0003-2.0003 2 2 0 0 0 -2.0003-2.0003z" fill="#162284"/></svg>