<svg height="48" viewBox="0 0 48 48" width="48" xmlns="http://www.w3.org/2000/svg"><path d="m27.54 28h1.646l1.799 2.436a.998.998 0 0 0 1.769-.33l1.489-5.419 2.594 9.313h-11.876zm7.659-7.333a1 1 0 0 0 -.963-.732h-.002a1 1 0 0 0 -.962.735l-1.901 6.921-.875-1.185a1 1 0 0 0 -.805-.406h-2.809a1 1 0 0 0 -.919.605l-3.179 7.395h-1.761v2h20v-2h-2.111zm-24.176 15.333h2v-13h-2zm4 0h2v-15h-2zm-8 0h2v-8h-2zm7-22h2v-2h-2zm-4 0h2v-2h-2zm-4 0h2v-2h-2zm-2.023 25 .018-22h40.005v21.994zm40.023-29v5h-40.004l.004-5zm.123-2h-40.246a1.88 1.88 0 0 0 -1.877 1.875l-.023 29.253a1.877 1.877 0 0 0 1.87 1.872l40.276-.006a1.88 1.88 0 0 0 1.877-1.877v-29.24a1.88 1.88 0 0 0 -1.877-1.877" fill="#8c4fff" fill-rule="evenodd"/></svg>