<svg height="18" viewBox="0 0 18 18" width="18" xmlns="http://www.w3.org/2000/svg" xmlns:xlink="http://www.w3.org/1999/xlink"><linearGradient id="a"><stop offset="0" stop-color="#5e9624"/><stop offset="1" stop-color="#b4ec36"/></linearGradient><linearGradient id="b" gradientTransform="matrix(1 0 0 -1 617.126 -205.758)" gradientUnits="userSpaceOnUse" x1="-609.26" x2="-609.26" xlink:href="#a" y1="-224.13" y2="-211.218"/><linearGradient id="c" gradientTransform="matrix(1 0 0 -1 617.126 -205.758)" gradientUnits="userSpaceOnUse" x1="-609.223" x2="-609.223" xlink:href="#a" y1="-214.978" y2="-203.218"/><path d="m14.239 17.221a1.363 1.363 0 0 0 1.383-1.341v-.031a1 1 0 0 0 0-.168c-.545-4.346-3.016-7.881-7.75-7.881s-7.246 3-7.76 7.9a1.4 1.4 0 0 0 1.247 1.529z" fill="url(#b)"/><path d="m7.956 8.822a4.36 4.36 0 0 1 -2.367-.691l2.283 6.105 2.328-6.063a4.4 4.4 0 0 1 -2.244.649" fill="#fff" opacity=".8"/><circle cx="7.904" cy="4.466" fill="url(#c)" r="4.367"/><path d="m17.894 11.231v4.44l-3.812 2.23v-4.44z" fill="#ef7100"/><path d="m17.894 11.231-3.812 2.23-3.812-2.23 3.812-2.231z" fill="#f78d1e"/><path d="m14.082 13.461v4.44l-3.812-2.23v-4.44z" fill="#faa21d"/><path d="m10.27 15.671 3.812-2.21v4.44z" fill="#ffb34d"/><path d="m17.894 15.671-3.812-2.21v4.44z" fill="#f78d1e"/></svg>