<svg height="64" viewBox="0 0 64 64" width="64" xmlns="http://www.w3.org/2000/svg"><g fill="none" fill-rule="evenodd"><path d="m0 0h64v64h-64z" fill="#e7157b"/><path d="m51.098 34h-14.93l1.073-4h14.93zm2.375-6h-17a1 1 0 0 0 -.966.741l-1.607 6a.999.999 0 0 0 .966 1.259h17a1 1 0 0 0 .965-.741l1.608-6a1 1 0 0 0 -.966-1.259m-19.303 21.5c0 1.378-1.12 2.5-2.5 2.5a2.503 2.503 0 0 1 -2.5-2.5c0-1.378 1.121-2.5 2.5-2.5s2.5 1.122 2.5 2.5m-22.867-11.5.804-3h12.93l-.805 3zm0-9 .804-3h12.929l-.804 3zm17.867-14.5c0-1.378 1.121-2.5 2.5-2.5s2.5 1.122 2.5 2.5-1.12 2.5-2.5 2.5a2.503 2.503 0 0 1 -2.5-2.5m14.5 27.5h-24v-2h5.33a1 1 0 0 0 .966-.741l1.34-5a.999.999 0 0 0 -.966-1.259h-6.67v-2h5.33a1 1 0 0 0 .966-.741l1.34-5a.999.999 0 0 0 -.966-1.259h-6.67v-2h24v4h2v-5a1 1 0 0 0 -1-1h-12v-1.121c2-.457 3.5-2.242 3.5-4.379 0-2.481-2.018-4.5-4.5-4.5a4.505 4.505 0 0 0 -4.5 4.5c0 2.137 1.5 3.922 3.5 4.379v1.121h-12a1 1 0 0 0 -1 1v3h-6.33c-.452 0-.848.304-.966.741l-1.339 5a1 1 0 0 0 .965 1.259h7.67v2h-6.33c-.452 0-.848.304-.966.741l-1.339 5a1 1 0 0 0 .965 1.259h7.67v3a1 1 0 0 0 1 1h12v1.121c-2 .457-3.5 2.242-3.5 4.379 0 2.481 2.02 4.5 4.5 4.5 2.482 0 4.5-2.019 4.5-4.5 0-2.137-1.5-3.922-3.5-4.379v-1.121h12a1 1 0 0 0 1-1v-5h-2z" fill="#fff"/></g></svg>