<svg height="18" viewBox="0 0 18 18" width="18" xmlns="http://www.w3.org/2000/svg" xmlns:xlink="http://www.w3.org/1999/xlink"><linearGradient id="a" gradientUnits="userSpaceOnUse" x1="9" x2="9" y1="16.21" y2=".62"><stop offset="0" stop-color="#1b93eb"/><stop offset=".21" stop-color="#2095eb"/><stop offset=".44" stop-color="#2e9ced"/><stop offset=".69" stop-color="#45a7ef"/><stop offset=".95" stop-color="#64b6f1"/><stop offset="1" stop-color="#6bb9f2"/></linearGradient><path d="m16 8.44c0 4.57-5.53 8.25-6.73 9a.43.43 0 0 1 -.46 0c-1.24-.75-6.81-4.44-6.81-9v-5.5a.44.44 0 0 1 .43-.44c4.34-.11 3.35-2 6.57-2s2.23 1.89 6.53 2a.44.44 0 0 1 .43.44z" fill="#1b93eb"/><path d="m15.38 8.48c0 4.2-5.07 7.57-6.17 8.25a.4.4 0 0 1 -.42 0c-1.1-.68-6.17-4.05-6.17-8.25v-5a.41.41 0 0 1 .38-.48c3.94-.11 3-1.83 6-1.83s2.05 1.76 6 1.83a.41.41 0 0 1 .39.4z" fill="url(#a)"/><path d="m9 6.53a2.88 2.88 0 0 1 2.84 2.47.49.49 0 0 0 .49.4h1.4a.49.49 0 0 0 .5-.53 5.26 5.26 0 0 0 -10.46 0 .49.49 0 0 0 .5.53h1.4a.49.49 0 0 0 .49-.4 2.88 2.88 0 0 1 2.84-2.47" fill="#c3f1ff"/><circle cx="9" cy="9.4" fill="#fff" r="1.91"/></svg>