<svg viewBox="0 0 24 24" xmlns="http://www.w3.org/2000/svg" fill="#3645FF"><path d="m22.605 0-6.023 6.123 1.313 1.291 6.023-6.123zm-5.638.047-9.035 9.185 1.312 1.29 9.035-9.184zm-7.268 1.728c-2.337 2.377-3.477 3.528-4.617 4.68a1972.17 1972.17 0 0 0 -4.621 4.686l-.379.384 2.867 9.772 9.813 2.703 10.511-10.5-1.3-1.3-9.02 9.007-1.908-6.83 5.559-5.65-1.311-1.291-5.559 5.65-6.845-1.79c1.617-1.641 2.56-2.593 3.501-3.546 1.14-1.153 2.282-2.305 4.62-4.684l-1.31-1.29zm11.906 4.955-1.53 1.53-6.458 6.565 1.313 1.291 6.45-6.558 1.528-1.528zm-19.145 6.358 6.812 1.781 1.895 6.783-6.738-1.857z"/></svg>