<svg height="48" viewBox="0 0 48 48" width="48" xmlns="http://www.w3.org/2000/svg"><path d="m7.167 25.71h3.543v-3.543h-3.543zm3.769-5.543h-3.995c-.978 0-1.774.796-1.774 1.774v3.995c0 .978.796 1.774 1.774 1.774h3.995c.978 0 1.774-.796 1.774-1.774v-3.995c0-.978-.796-1.774-1.774-1.774m26.322 5.543h3.543v-3.543h-3.543zm-.226 2h3.994c.979 0 1.775-.796 1.775-1.774v-3.995c0-.978-.796-1.774-1.775-1.774h-3.994c-.978 0-1.774.796-1.774 1.774v3.995c0 .978.796 1.774 1.774 1.774m-14.819-2h3.543v-3.543h-3.543zm3.768-5.543h-3.995c-.977 0-1.773.796-1.773 1.774v3.995c0 .978.796 1.774 1.773 1.774h3.995c.979 0 1.775-.796 1.775-1.774v-3.995c0-.978-.796-1.774-1.775-1.774m17.987 8.71h-9.566a1 1 0 0 1 -.312-.105v-3.854h-5.167v3.959h-9.566a1 1 0 0 1 -.312-.105v-3.854h-5.167v3.854a1 1 0 0 1 -.307.105h-9.571v-9.877l9.637-.001c.04.004.105.029.16.058v3.902h5.329v-3.903a.5.5 0 0 1 .151-.056h9.646v3.959h5.249v-3.903a.5.5 0 0 1 .15-.056h9.646zm.181-11.877h-9.827c-.897 0-2.15.703-2.15 1.848v2.111h-1.249v-2.111c0-1.019-.816-1.848-1.819-1.848h-9.827c-.898 0-2.151.703-2.151 1.848v2.111h-1.329v-2.111c0-1.145-1.253-1.848-2.152-1.848h-9.826c-1.003 0-1.819.829-1.819 1.848v10.181c0 1.019.816 1.848 1.819 1.848h9.752c.805 0 2.307-.635 2.307-1.848v-2.111h1.167v2.111c0 1.213 1.502 1.848 2.306 1.848h9.753c1.003 0 1.819-.829 1.819-1.848v-2.111h1.167v2.111c0 1.213 1.502 1.848 2.306 1.848h9.753c1.003 0 1.819-.829 1.819-1.848v-10.181c0-1.019-.816-1.848-1.819-1.848" fill="#ed7100" fill-rule="evenodd"/></svg>