<svg fill="none" height="18" viewBox="0 0 18 18" width="18" xmlns="http://www.w3.org/2000/svg" xmlns:xlink="http://www.w3.org/1999/xlink"><linearGradient id="a"><stop offset="0" stop-color="#5ea0ef"/><stop offset="1" stop-color="#83b9f9"/></linearGradient><linearGradient id="b" gradientUnits="userSpaceOnUse" x1="0" x2="18" xlink:href="#a" y1="9" y2="9"/><linearGradient id="c" gradientUnits="userSpaceOnUse" x1="9.227" x2="9.227" xlink:href="#a" y1="2.261" y2="8.509"/><clipPath id="d"><path d="m0 0h18v18h-18z"/></clipPath><g clip-path="url(#d)"><path d="m17.097 0h-16.194c-.499 0-.903.37-.903.828v16.344c0 .457.404.828.903.828h16.194c.499 0 .903-.37.903-.828v-16.344c0-.457-.404-.828-.903-.828" fill="url(#b)"/><path d="m3.193 4.392v-.929a.26.26 0 0 1 .275-.249h10.922a.25.25 0 0 1 .261.249v1.438a.25.25 0 0 1 -.261.248.26.26 0 0 1 -.275-.248v-1.19h-10.373v.68a.26.26 0 0 1 -.274.25.275.275 0 0 1 -.275-.25" fill="#9cebff"/><path d="m1.858 4.523v-2.093a.26.26 0 0 1 .275-.249l13.513-.17a.26.26 0 0 1 .196.079.21.21 0 0 1 .079.17v3.728h-.536v-3.468l-12.977.157v1.845z" fill="#9cebff"/><path d="m12.11 8.244v-5.718c0-.146-.215-.265-.482-.265h-4.802c-.266 0-.482.119-.482.265v5.718c0 .146.216.265.482.265h4.802c.267 0 .482-.119.482-.265" fill="url(#c)"/><path d="m6.994 13.341v1.08c0 .035.13.064.288.064h.632c.159 0 .288-.03.288-.065v-1.079c0-.035-.129-.064-.288-.064h-.632c-.159 0-.288.029-.288.064m3.019 0v1.08c0 .035.13.064.288.064h.632c.159 0 .288-.03.288-.065v-1.079c0-.035-.13-.064-.288-.064h-.633c-.159 0-.288.029-.288.064m3.503-4.055v-7.956c0-.204-.325-.369-.727-.369h-7.24c-.402 0-.727.165-.727.369v7.957c0 .204.325.369.727.369h7.24c.402 0 .727-.165.727-.369m-11.592-4.528v9.067c0 .297.155.538.345.538h.758c.191 0 .346-.241.346-.538v-9.067c0-.297-.155-.538-.346-.538h-.758c-.19 0-.345.24-.345.538m12.679.686v8.42c0 .275.155.499.345.499h.758c.191 0 .346-.224.346-.5v-8.419c0-.276-.155-.5-.346-.5h-.758c-.19 0-.345.224-.345.5m-6.521 10.911a.906.906 0 1 0 1.811 0 .906.906 0 0 0 -1.81 0" fill="#2a4e77"/></g></svg>