<svg xmlns="http://www.w3.org/2000/svg" width="18" height="18" viewBox="0 0 18 18"><defs><mask id="a"><path fill="#fff" d="M0 0h18v18H0z"/><circle cx="11.899" cy="12.447" r="2.787" opacity=".2"/></mask></defs><g fill="currentColor" mask="url(#a)"><path d="M10.656 0H6.831q-.053.001-.106.005Q6.673.001 6.619 0H2.794A1.967 1.967 0 0 0 .828 1.967v11.367a1.967 1.967 0 0 0 1.967 1.967h7.862a1.966 1.966 0 0 0 1.967-1.967V1.967A1.97 1.97 0 0 0 10.656 0"/><path d="m17.011 17.785-.054.054a.55.55 0 0 1-.779 0l-2.608-2.608.833-.833 2.608 2.608a.55.55 0 0 1 0 .779"/><path d="M11.892 8.961a3.55 3.55 0 1 0 0 7.098 3.55 3.55 0 0 0 0-7.098m.007 6.273a2.787 2.787 0 1 1 0-5.575 2.787 2.787 0 0 1 0 5.575"/><path d="M13.56 10.209a2.73 2.73 0 0 0-3.289-.025c3.565-.866 4.328 2.952 4.328 2.952a2.72 2.72 0 0 0-1.039-2.927"/><circle cx="11.892" cy="12.51" r="3.549" opacity=".2"/></g></svg>