<svg height="18" viewBox="0 0 18 18" width="18" xmlns="http://www.w3.org/2000/svg" xmlns:xlink="http://www.w3.org/1999/xlink"><linearGradient id="a"><stop offset=".225" stop-color="#32d4f5"/><stop offset=".59" stop-color="#32d2f2"/><stop offset=".825" stop-color="#32caea"/><stop offset="1" stop-color="#32bedd"/></linearGradient><radialGradient id="b" cx="11.892" cy="12.51" gradientUnits="userSpaceOnUse" r="3.549" xlink:href="#a"/><radialGradient id="c" cx="-970.857" cy="463.006" gradientTransform="matrix(-1 0 0 -1 -958.965 475.516)" gradientUnits="userSpaceOnUse" r="3.549" xlink:href="#a"/><linearGradient id="d" gradientUnits="userSpaceOnUse" x1="6.725" x2="6.725" y1="15.3" y2="0"><stop offset="0" stop-color="#0078d4"/><stop offset=".878" stop-color="#5ea0ef"/></linearGradient><path d="m10.656 0h-3.825q-.053.001-.106.005-.052-.004-.106-.005h-3.825a1.967 1.967 0 0 0 -1.966 1.967v11.367a1.967 1.967 0 0 0 1.967 1.967h7.862a1.966 1.966 0 0 0 1.967-1.967v-11.367a1.97 1.97 0 0 0 -1.968-1.967" fill="url(#d)"/><g fill="#fff"><path d="m9.791 10.327h-6.564a.32.32 0 0 1 -.011-.639h6.574a.32.32 0 0 1 .011.639z" opacity=".8"/><path d="m8.453 11.653h-5.226a.32.32 0 0 1 -.011-.639h5.236a.32.32 0 0 1 0 .639z" opacity=".6"/><path d="m9.791 12.979h-6.564a.32.32 0 0 1 -.011-.639h6.574a.32.32 0 0 1 .011.639z" opacity=".4"/><path d="m3.56 8.207v.404a.32.32 0 0 1 -.639.011v-.414a.32.32 0 0 1 .639-.011z" opacity=".2"/><path d="m5.216 6.473v2.138a.32.32 0 0 1 -.639.011v-2.148a.32.32 0 0 1 .639 0z" opacity=".3"/><path d="m6.871 4.863v3.748a.32.32 0 0 1 -.639.011v-3.758a.32.32 0 0 1 .639-.011z" opacity=".5"/><path d="m8.527 3.458v5.153a.32.32 0 0 1 -.639.011v-5.164a.32.32 0 0 1 .639-.011v.01z" opacity=".6"/><path d="m10.182 2.312v6.299a.32.32 0 0 1 -.639.011v-6.31a.32.32 0 0 1 .639-.011v.01z" opacity=".8"/></g><path d="m17.011 17.785-.054.054a.55.55 0 0 1 -.779 0l-2.608-2.608.833-.833 2.608 2.608a.55.55 0 0 1 0 .779" fill="#198ab3"/><path d="m11.892 8.961a3.55 3.55 0 1 0 0 7.098 3.55 3.55 0 0 0 0-7.098m.007 6.273a2.787 2.787 0 1 1 0-5.575 2.787 2.787 0 0 1 0 5.575" fill="url(#b)"/><path d="m13.56 10.209a2.73 2.73 0 0 0 -3.289-.025c3.565-.866 4.328 2.952 4.328 2.952a2.72 2.72 0 0 0 -1.039-2.927" fill="#c3f1ff"/><circle cx="11.892" cy="12.51" fill="url(#c)" opacity=".2" r="3.549"/><circle cx="11.899" cy="12.447" fill="#fff" opacity=".2" r="2.787"/></svg>