<svg height="43" viewBox="-.835 -.509 300 43" width="300" xmlns="http://www.w3.org/2000/svg"><g clip-rule="evenodd" fill="#8a0051" fill-rule="evenodd" transform="matrix(1.94597 0 0 1.94597 1.65 -48.739)"><path d="m5.96 37.199 3.081-8.366 2.939 8.366zm9.014 8.431h2.825l-7.332-20.139h-2.794l-7.673 20.139h2.852l2.253-6.172h7.673z"/><path d="m23.941 38.675c-2.618-.566-5.322-1.184-5.322-4.342 0-2.773 2.345-4.521 5.887-4.521 2.291 0 4.479.853 5.571 2.938l-2.382.994c-.191-.557-1.424-1.959-3.481-1.959-2.016 0-3.025 1.193-3.025 2.226 0 1.45 1.917 2.054 3.552 2.383 3.385.681 6.328 1.547 6.328 4.738 0 2.48-2.203 4.81-6.411 4.81-3.098 0-5.299-1.036-6.358-3.201l2.717-.474c.682 1.186 1.915 1.7 3.752 1.7 2.278 0 3.61-.869 3.61-2.514.001-1.74-2.185-2.291-4.438-2.778"/><path d="m36.711 30.276h2.782v2.141h-2.782v8.712c0 1.807 0 2.582 1.099 2.582.485 0 1.166-.195 1.683-.355v2.12c-.453.064-1.522.258-2.493.258-2.975 0-2.975-1.446-2.943-3.442v-9.875h-2.427v-2.141h2.427v-3.658l2.654-1.104z"/><path d="m44.381 30.315v2.742c1.455-2.893 4.206-2.958 5.241-2.99v2.653c-2.523.017-3.76.534-4.593 1.891-.684 1.108-.648 2.665-.648 3.98v7.039h-2.569v-15.315z"/><path d="m64.827 25.494h14.5v2.512l-11.398 15.208h11.684v2.416h-14.795v-2.616l11.454-15.037h-11.445z"/><path d="m98.289 30.421v2.225c1.43-2.5 3.866-2.727 4.775-2.727 1.949 0 4.284.975 5.029 3.502.261.904.261 1.841.261 3.134v9.075h-2.562v-8.655c0-1.552 0-2.003-.163-2.521-.454-1.453-1.883-2.099-3.28-2.099-1.136 0-2.111.355-2.924 1.162-1.137 1.131-1.137 2.292-1.137 3.426v8.687h-2.57v-15.209z"/><path d="m137.907 42.919c-.959 1.506-2.701 3.022-5.837 3.022-5.412 0-7.456-4.171-7.456-7.918 0-4.329 2.355-8.252 7.23-8.252 1.912 0 4.59.576 6.072 3.045l-2.408 1.005c-.455-1.003-1.435-2.162-3.567-2.162-4.224 0-4.471 4.813-4.471 6.171 0 5.046 2.899 6.137 4.631 6.137 1.983 0 2.996-.951 3.531-1.999z"/><path d="m83.305 36.405h8.121c-.227-4.006-2.536-4.683-4.076-4.683-2.198.001-3.755 1.614-4.045 4.683m10.235 6.316c-.876 1.491-2.567 3.202-5.901 3.202-4.52 0-7.12-3.072-7.12-8.222 0-5.753 3.795-7.952 7.025-7.952 2.808 0 5.5 1.552 6.405 5.396.292 1.293.292 2.459.292 3.106h-11c-.064 2.558 1.008 5.795 4.625 5.732 1.476-.025 2.515-.695 3.178-1.745z"/><path d="m112.518 36.405h8.122c-.226-4.006-2.535-4.683-4.076-4.683-2.196.001-3.754 1.614-4.046 4.683m10.237 6.316c-.876 1.491-2.566 3.202-5.9 3.202-4.52 0-7.121-3.072-7.121-8.222 0-5.753 3.795-7.952 7.024-7.952 2.809 0 5.499 1.552 6.405 5.396.291 1.293.291 2.459.291 3.106h-11c-.065 2.558 1.011 5.795 4.625 5.732 1.476-.025 2.518-.695 3.179-1.745z"/><path d="m151.951 45.646-2.672.01s-.231-1.079-.306-2.257c-.776.806-2.216 2.473-5.126 2.473-2.976 0-5.184-1.765-5.184-4.351 0-.811.227-1.618.681-2.3.877-1.295 2.5-2.331 7.059-2.686l2.423-.194v-.389c0-1.586 0-4.239-3.416-4.239-2.149 0-2.881 1.042-3.129 1.983l-2.366-.988a5 5 0 0 1 .125-.251c.909-1.682 2.692-2.718 5.271-2.718 1.42 0 3.258.357 4.456 1.295 1.705 1.292 1.664 3.837 1.664 3.837l.103 7.854c0 .002.091 2.282.417 2.921m-3.513-4.222c.388-.841.421-1.197.421-3.433-1 .162-2.353.356-4.009.713-2.846.614-3.331 1.686-3.331 2.753 0 1.23.971 2.267 2.878 2.267 1.78 0 3.299-.712 4.041-2.3"/><path d="m63.004 45.646-2.672.01s-.232-1.079-.306-2.257c-.776.806-2.214 2.473-5.125 2.473-2.978 0-5.185-1.765-5.185-4.351 0-.811.227-1.618.682-2.3.877-1.295 2.499-2.331 7.056-2.686l2.426-.194v-.389c0-1.586 0-4.239-3.418-4.239-2.149 0-2.879 1.042-3.129 1.983l-2.366-.988q.058-.123.126-.251c.909-1.682 2.693-2.718 5.27-2.718 1.419 0 3.259.357 4.456 1.295 1.705 1.292 1.664 3.837 1.664 3.837l.103 7.854c0 .002.091 2.282.418 2.921m-3.513-4.222c.39-.841.42-1.197.42-3.433-.998.162-2.353.356-4.007.713-2.844.614-3.33 1.686-3.33 2.753 0 1.23.969 2.267 2.876 2.267 1.779 0 3.298-.712 4.041-2.3"/></g></svg>