<svg viewBox="0 0 24 24" xmlns="http://www.w3.org/2000/svg"><path d="m6.49 19.04h-.23l-1.13-1.14v-.23l1.73-1.71h1.2l.15.15v1.2l-1.71 1.73zm-1.36-12.73v-.21l1.13-1.13h.23l1.71 1.71v1.2l-.15.15h-1.2zm9.96 9.09h-1.65l-.14-.13v-3.83c0-.68-.27-1.2-1.1-1.23-.42 0-.9 0-1.43.02l-.07.08v4.96l-.14.14h-1.66l-.13-.14v-6.54l.13-.14h3.7a2.6 2.6 0 0 1 2.61 2.6v4.08l-.13.14zm-8.37-2.44h-6.58l-.14-.14v-1.64l.14-.14h6.58l.14.14v1.64zm17.14 0h-6.58l-.14-.14v-1.64l.14-.14h6.58l.14.14v1.64zm-12.81-6.41v-4.91l.14-.14h1.65l.14.14v4.9l-.14.14h-1.65zm0 15.81v-4.9l.14-.14h1.65l.14.13v4.91l-.14.14h-1.65z"/></svg>