<svg height="18" viewBox="0 0 18 18" width="18" xmlns="http://www.w3.org/2000/svg" xmlns:xlink="http://www.w3.org/1999/xlink"><linearGradient id="a" gradientUnits="userSpaceOnUse" x1="9" x2="9" y1="12.798" y2=".798"><stop offset="0" stop-color="#76bc2d"/><stop offset=".817" stop-color="#86d633"/></linearGradient><linearGradient id="b" gradientUnits="userSpaceOnUse" x1="9" x2="9" y1="17.434" y2="12.798"><stop offset=".149" stop-color="#ccc"/><stop offset="1" stop-color="#707070"/></linearGradient><rect fill="url(#a)" height="12" rx=".601" width="18" y=".798"/><g fill="#fff"><path d="m12 5.053-3 1.754-3-1.755 3-1.754z"/><path d="m6 5.052v3.492l2.996-1.74z" opacity=".8"/><path d="m5.998 8.543 3 1.754v-3.492l-.004-.002z"/><path d="m9 6.802 3 1.742v-3.491z" opacity=".6"/><path d="m9 10.298 3-1.754-3-1.742z" opacity=".8"/></g><path d="m12.607 16.428c-1.78-.278-1.85-1.562-1.844-3.63h-3.531c0 2.068-.065 3.352-1.844 3.63a1.05 1.05 0 0 0 -.888 1.006h9a1.05 1.05 0 0 0 -.893-1.006" fill="url(#b)"/></svg>