<svg xmlns="http://www.w3.org/2000/svg" width="18" height="18" viewBox="0 0 18 18"><path fill="currentColor" d="M17.66 2.86 15.27.49a.58.58 0 0 0-.43-.18l-4.43.17a.52.52 0 0 0-.41.17L.34 10.27a.59.59 0 0 0 0 .83l6.44 6.41a.6.6 0 0 0 .84 0l9.69-9.63a.58.58 0 0 0 .17-.37l.35-4.19a.57.57 0 0 0-.17-.46m-2.88 1.57a1.08 1.08 0 1 1 1.08-1.07 1.07 1.07 0 0 1-1.08 1.07"/><path fill="currentColor" d="M14.78 1.44a1.92 1.92 0 1 0 1.93 1.92 1.93 1.93 0 0 0-1.93-1.92m1.06 2.13a1.08 1.08 0 1 1-1.27-1.27 1.08 1.08 0 0 1 1.27 1.27"/></svg>