<svg height="18" viewBox="0 0 18 18" width="18" xmlns="http://www.w3.org/2000/svg" xmlns:xlink="http://www.w3.org/1999/xlink"><linearGradient id="a" gradientUnits="userSpaceOnUse" x1="9" x2="9" y1=".31" y2="17.69"><stop offset="0" stop-color="#c69aeb"/><stop offset=".09" stop-color="#bb90e4"/><stop offset=".49" stop-color="#926bc9"/><stop offset=".81" stop-color="#7854b8"/><stop offset="1" stop-color="#6f4bb2"/></linearGradient><path d="m17.66 2.86-2.39-2.37a.58.58 0 0 0 -.43-.18l-4.43.17a.52.52 0 0 0 -.41.17l-9.66 9.62a.59.59 0 0 0 0 .83l6.44 6.41a.6.6 0 0 0 .84 0l9.69-9.63a.58.58 0 0 0 .17-.37l.35-4.19a.57.57 0 0 0 -.17-.46m-2.88 1.57a1.08 1.08 0 1 1 1.08-1.07 1.07 1.07 0 0 1 -1.08 1.07" fill="url(#a)"/><path d="m14.78 1.44a1.92 1.92 0 1 0 1.93 1.92 1.93 1.93 0 0 0 -1.93-1.92m1.06 2.13a1.08 1.08 0 1 1 -1.27-1.27 1.08 1.08 0 0 1 1.27 1.27" fill="#552f99"/></svg>