<svg xmlns="http://www.w3.org/2000/svg" xml:space="preserve" id="svg102" width="290" height="85" viewBox="0 0 290 85"><g id="g110" transform="matrix(1.33333 0 0 -1.33333 -264.993 568.474)"><path id="path112" d="M200.654 402.21a1.993 1.993 0 0 1-.978-2.64l16.032-34.894a1.993 1.993 0 0 1 2.639-.979c28.236 12.951 58.35 19.52 89.505 19.52 30.974 0 60.93-6.492 89.03-19.303a1.987 1.987 0 0 1 2.632.979l16.101 34.864c.22.48.242 1.03.06 1.524a2 2 0 0 1-1.042 1.12c-33.694 15.396-69.62 23.204-106.782 23.204-37.316 0-73.384-7.869-107.197-23.394" fill="#231f20" fill-opacity="1" fill-rule="nonzero" stroke="none"/><path id="path114" d="M235.624 388.585c1.369-3.755-.595-7.364-4.28-8.679l-5.415-2.002c-1.096-.398-5.86-2.4-6.43-.838-.38 1.045-.708 2.106-1.052 3.132-.316.95-.482 1.893.584 2.282.992.36 1.267.58.931 1.58-.14.39-.429.699-.564 1.065-.446 1.225-.752 2.47-1.207 3.724-.136.365-.138.777-.271 1.142a4.8 4.8 0 0 1-.51.995c-.55-.111-1.04-.23-1.56-.42-.468-.17-.772.338-.906.704l-1.16 3.182c-.095.26-.232.477-.326.736-.286.782-.029 1.617.78 1.908l6.631 2.388c1.932.704 3.4 1.211 5.462.66 2.097-.564 3.566-1.595 4.326-3.681.609-1.666-.057-3.982-.073-4.014.058-.157.37-.129.505-.172.99-.287 2.066-.484 2.885-1.191.846-.697 1.27-1.458 1.64-2.475zm-9.864 4.942c-.38 1.043-2.148.784-2.955.489-.209-.077-.447-.399-.369-.609.246-.675.572-1.327.802-2.039.34.035.7.107 1.036.23.81.295 1.856.912 1.475 1.956zm2.827-6.944c-.41 1.12-2.055.933-2.907.596l-.469-.17c.143-.72.312-1.425.595-2.12l.282-.696a2.04 2.04 0 0 1 1.026.11c.755.274 1.812 1.426 1.498 2.287z" fill="#fff" fill-opacity="1" fill-rule="nonzero" stroke="none"/><path id="path116" d="M251.001 392.648c.235-.828.362-1.684.595-2.513.182-.637.47-1.251.644-1.865.423-1.495.118-1.841-1.351-2.258-.615-.171-1.267-.214-1.882-.387-.72-.203-1.403-.541-2.125-.746-2.189-.62-4.41-1.129-6.608-1.72-.373-.108-.718-.322-1.09-.425-.373-.109-.897.006-.99.437-.446 1.579-.9 3.18-1.266 4.78-.144.621.472.881.954 1.02.852.24-.062 2.463-.214 2.993-.441 1.664-.856 3.336-1.324 4.995l-.162.47c-.189.669-.843.023-1.392.128-.908.144-1.111 1.07-1.337 1.87-.107.372-.097.75-.144 1.114-.158.764-.473 1.481-.719 2.248-.265.933.8 1.35 1.528 1.526.776.222 1.595.279 2.395.507 2.538.717 5.037 1.567 7.573 2.284 1.605.455 1.994.708 2.507-1.11.423-1.495.907-3.002 1.357-4.49.326-1.149-.056-1.227-1.072-1.514-.64-.181-1.25-.582-1.89-.763-1.6-.456-1.509.035-1.943 1.466-.38-.078-.798-.136-1.205-.224-.427-.12-.384-.485-.286-.83l.615-2.278c.113-.4.474-.243.821-.14.373.105.69.31 1.063.415.749.21.902.08 1.098-.615.234-.829.388-1.68.63-2.533.317-1.118-.242-1.077-1.125-1.326-.186-.054-.71-.345-.65-.56l.669-2.464c.067-.242.524-.226.683-.182 1.337.376 1.017.49.727 1.618-.128.455-.105.984.404 1.123 1.013.29 2.062.557 3.08.844 1.12.316 1.131.176 1.441-.918z" fill="#fff" fill-opacity="1" fill-rule="nonzero" stroke="none"/><path id="path118" d="M272.007 391.547c.158-.79-.436-1.076-1.088-1.21-.572-.114-1.161-.146-1.731-.259-.628-.127-1.236-.334-1.891-.463-.298-.06-.816-.164-1.039.104-1.988 2.15-3.7 4.496-5.737 6.61-.244.233-1.272 1.698-1.518 1.65-.164-.034-.012-.938.015-1.077l.32-1.604c.23-1.284.994-.284 1.396-.738.538-.57.598-1.581.74-2.289.184-.923.635-1.767.818-2.666.27-1.36-1.253-1.1-2.18-1.285-.654-.13-1.254-.392-1.87-.547-.574-.112-1.174-.091-1.749-.177-.707-.143-1.388-.417-2.118-.592-1.034-.21-1.41 3.228-1.567 4.016-.121.6-.251 1.253-.284 1.837-.023.395 1.404.482 1.384 1.016 0 .423-.095.885-.18 1.322l-1.112 5.555c-.233 1.17-.423 1.415-1.594 1.18-.3-.06-.653.012-.718.336-.267 1.336-.48 2.68-.752 4.04-.093.465-.07.92-.167 1.409-.218 1.09 1.612 1.144 2.295 1.254.846.168 1.662.471 2.512.615l.544.107c1.202.213 3.129-2.77 3.944-3.597.845-.824 1.568-1.754 2.413-2.578.239-.204 1.176-1.63 1.34-1.6.134.03.086.273.07.355l-.5 2.504c-.131.654-.454.422-.969.317-.598-.12-1.028-.092-1.143.62-.065.327-.022.675-.089 1-.103.52-.37 1.003-.5 1.515-.142.707-.5 2.222.48 2.418 1.197.239 2.415.369 3.614.609 1.036.207 2.015.543 3.048.749 1.144.23 1.491.328 1.748-.95.287-1.444.47-2.907.756-4.352.135-.679-.597-.968-1.172-1.08-.134-.031-.29-.088-.29-.23.297-2.487.791-5.106 1.277-7.529.2-1.006.898-.67 1.605-.528.655.129.714-.451.817-.97.316-1.575.5-3.21.822-4.817" fill="#fff" fill-opacity="1" fill-rule="nonzero" stroke="none"/><path id="path120" d="M312.815 411.799c.007-.666.15-1.33.156-2.025.006-.499-.131-.888-.742-.894-.833-.003-1.22-.01-1.214-.98.018-2.22.48-4.438.498-6.712.042-4.915-1.734-8.482-7.367-8.499-4.834-.04-7.184 2.33-7.222 7.16-.02 2.58 1.739 4.592 4.377 4.586 1.86.016 3.17-.89 3.185-2.804.006-.693-.347-1.643-.871-2.092-.165-.139-.773-.225-.746-.42.002-.333.393-.44.642-.412 1.305.01 1.955 1.959 1.947 2.984-.004.557-.093 1.11-.067 1.667.021.555.128 1.11.125 1.64-.006.498-.079 2.803-.192 3.16-.085.165-1.03.215-1.252.213-.86-.009-3.853-.56-3.864.773l-.036 4.33c-.01 1.5.239 1.5 1.738 1.54 1.527.013 3.053-.14 4.58-.13l3.248.026c.582.006 1.162.147 1.775.13 1.107.008 1.42-.466 1.428-1.518.006-.583-.13-1.14-.126-1.723" fill="#fff" fill-opacity="1" fill-rule="nonzero" stroke="none"/><path id="path122" d="M328.375 398.184c-.052-.862-.216-1.711-.27-2.57-.039-.665.032-1.34-.008-1.975-.092-1.553-.498-1.778-2.02-1.686-.638.04-1.265.217-1.901.256-.75.046-1.508-.049-2.256 0-2.272.139-4.535.388-6.809.553-.389.021-.781-.067-1.17-.041-.387.024-.842.3-.789.742.1 1.635.2 3.299.383 4.928.066.636.738.677 1.238.65.888-.059.754 2.342.787 2.898.133 1.716.292 3.428.399 5.147l.002.503c.04.69-.788.297-1.274.577-.81.436-.693 1.375-.644 2.207.021.389.158.741.234 1.098.103.771.04 1.556.06 2.361.06.97 1.204 1.012 1.948.94.805-.051 1.6-.266 2.428-.317 2.633-.16 5.275-.183 7.904-.343 1.664-.1 2.115.01 2-1.874-.093-1.549-.133-3.133-.201-4.686-.073-1.19-.457-1.14-1.51-1.075-.666.037-1.37-.141-2.039-.102-1.658.104-1.41.531-1.35 2.031-.386.051-.796.131-1.212.186-.446.027-.52-.33-.54-.69l-.174-2.356c-.023-.414.367-.382.727-.403.389-.026.756.063 1.145.04.772-.047.873-.222.83-.94-.05-.856-.187-1.71-.241-2.6-.07-1.163-.586-.936-1.5-.882-.196.01-.784-.087-.796-.312l-.183-2.55c-.016-.249.423-.385.584-.397 1.388-.081 1.123.13 1.222 1.29.027.472.226.959.75.93 1.053-.064 2.133-.16 3.185-.222 1.166-.072 1.128-.209 1.059-1.345z" fill="#fff" fill-opacity="1" fill-rule="nonzero" stroke="none"/><path id="path124" d="m345.402 389.585-3.935.517a4 4 0 0 0-.814.188c-1.212.384-1.52 6.804-2.362 8.06-.118.156-.363.22-.559.244-.659.087-.696-.188-.772-.767-.083-.661-.294-1.416.56-1.53 1.044-.135.28-2.33.189-3.047-.072-.55-.035-1.113-.113-1.692-.095-.745-.405-.956-1.174-.854-.66.083-1.297.335-1.957.423-1.49.193-2.986.307-4.472.5-1.183.154-.622 1.455-.516 2.252.11.853.057 1.73.171 2.608.137 1.046.137 1.464 1.347 1.31.303-.042.523 1.863.56 2.11.261 2.035.39 4.064.681 6.095.131.991-.21.758-.982.83-.713.094-1.055.5-.96 1.217.138 1.045.442 2.098.581 3.14.086.69.04 1.4.157 2.082l.036.274c.094.495 3.63-.084 4.26-.164 3.223-.422 8.647-1.299 10.225-4.447.758-1.497 1.26-2.766 1.035-4.501-.303-2.31-1.028-3.365-2.934-4.682a.1.1 0 0 1-.039-.08c-.035-.246.742-1.607.89-1.962.163-.473.472-1.743.733-2.084.147-.186.791-.162 1.038-.219 1.46-.193.665-2.187.54-3.125-.076-.603-.04-1.197-.117-1.773-.12-.91-.42-1.037-1.297-.923m-6.431 16.965c-.165.022-.442.057-.545-.097-.104-.156-.382-2.076-.426-2.406-.062-.468-.065-.693.488-.767 1.044-.135 2.444.074 2.61 1.366.148 1.102-1.218 1.785-2.127 1.904" fill="#fff" fill-opacity="1" fill-rule="nonzero" stroke="none"/><path id="path126" d="m363.475 385.719-3.875.857a4 4 0 0 0-.795.258c-1.172.484-.924 6.911-1.655 8.236-.105.166-.345.246-.535.29-.65.14-.709-.129-.833-.7-.143-.652-.419-1.385.42-1.57 1.031-.225.081-2.349-.075-3.053-.12-.539-.129-1.107-.257-1.677-.159-.731-.483-.917-1.242-.749-.652.143-1.267.45-1.917.592-1.463.324-2.945.564-4.406.885-1.168.258-.498 1.503-.323 2.289.184.843.206 1.715.397 2.585.226 1.03.262 1.45 1.457 1.186.297-.069.683 1.811.734 2.055.445 2.004.744 4.014 1.211 6.01.215.98-.141.774-.908.914-.703.153-1.006.592-.85 1.297.225 1.027.623 2.052.848 3.08.15.677.164 1.386.34 2.057l.057.271c.138.48 3.612-.396 4.234-.533 3.172-.697 8.502-2.042 9.8-5.314.624-1.558 1.02-2.866.643-4.573-.504-2.28-1.319-3.264-3.334-4.412-.03-.021-.037-.049-.045-.076-.054-.246.6-1.666.72-2.034.118-.483.32-1.776.552-2.14.127-.198.773-.227 1.01-.31 1.437-.313.476-2.233.273-3.156-.133-.595-.148-1.188-.275-1.757-.196-.896-.504-1-1.371-.808m-4.938 17.457c-.16.037-.433.097-.547-.048-.12-.143-.564-2.037-.637-2.36-.103-.461-.123-.684.42-.805 1.032-.227 2.442-.138 2.725 1.137.236 1.082-1.066 1.881-1.96 2.076" fill="#fff" fill-opacity="1" fill-rule="nonzero" stroke="none"/><path id="path128" d="M384.158 401.312c-.328-1.117-1.03-3.978-1.597-4.825-.43-.567-1.245.193-1.894-.046-.67-.208-4.912-3.789-5.331-4.418-.459-.673-.701-1.502-.939-2.3-.518-1.756 1.783-.235 1.07-2.544-.233-.798-1.041-4.12-1.889-4.245-.601-.082-5.484 1.419-6.417 1.695-1.81.535-1.542 1.146-1.073 2.832.271.906.603 1.846.959 2.757.197.464.992.313 1.363.204a.4.4 0 0 1 .267.01c.242.336.243.736.346 1.085.25.851.608 1.67.85 2.497.254.851-.833 5.398-1.295 6.287-.13.24-.435.188-.677.256-.985.293-.253 2.276-.08 2.861.212.72.284 1.451.494 2.168.308 1.04.615 1.586 1.812 1.23 1.28-.374 2.55-.869 3.828-1.245.584-.175 1.193-.177 1.77-.377 1.011-.301.33-1.922.116-2.64-.232-.799-.595-1.532-.856-2.323-.386-1.305-1.223-.305-1.419-.97-.092-.32.522-2.844.76-2.916.266-.078 1.116 1.03 1.319 1.23.318.286.846.505.97.927.143.48-1.05.168-.778 1.1.23.773.67 1.484.917 2.219.217.63.324 1.293.49 1.938.385 1.308 1.89.34 2.772.08 1.252-.369 2.568-.614 3.816-.981.748-.221.493-.986.32-1.573z" fill="#fff" fill-opacity="1" fill-rule="nonzero" stroke="none"/><path id="path130" d="M386.137 397.347c-.387.132-.826.409-.674.866.17.478 1.275-.08 1.807 1.468.087.253.056.313-.196.401-1.344.459-1.862 1.834-1.418 3.13.502 1.462 2.146 2.093 3.55 1.588 1.751-.605 2.187-2.306 1.634-3.923-.517-1.504-2.927-4.14-4.703-3.53" fill="#fff" fill-opacity="1" fill-rule="nonzero" stroke="none"/><path id="path132" d="M397.615 380.771c-1.232-3.185-4.414-5.345-7.86-4.015-1.706.661-3.05 2.728-3.384 2.855-.027.014-.175.012-.203.02-.316-.115-.325-.53-.611-.655-.42-.165-1.05.288-1.452.471-.517.2-1.077.297-1.576.46-1.502.583-.81 1.683-.37 2.821.28.725.679 1.374.95 2.072.35.907.597 1.853.947 2.757.608 1.58.897 1.172 2.243.653.701-.273 1.334-.634 2.058-.917 1.63-.63-.574-3.17 1.524-3.98.726-.28 1.727-.074 2.02.675 1.048 2.721-5.516 5.675-3.358 11.326 1.178 3.057 4.385 4.497 7.437 3.317 1.11-.433 2.196-1.713 2.74-1.923.208-.08.322.377.6.392.242.025.555-.095.762-.174.465-.18 2.64-1.024 2.676-1.395.017-.332-.09-.678-.196-.963-.28-.724-.714-1.388-.994-2.115-.31-.803-.492-1.652-.837-2.47-.482-1.246-1.395-.385-2.33-.027-.47.183-.983.233-1.45.414a.66.66 0 0 0-.294.232c-.323 1.167.1 2.341-1.346 2.902-.493.19-1.174-.115-1.39-.594-.907-2.328 6.224-5.527 3.669-12.13z" fill="#fff" fill-opacity="1" fill-rule="nonzero" stroke="none"/><path id="path134" d="M294.432 403.482c.96 1.038 1.444 2.702 1.313 4.112l-.028-.002c-.198 2.097-1.574 3.67-3.814 3.459-1.489-.14-2.675-1.45-2.536-2.945.07-.44.218-.842.474-1.18.375-.438.885-.53 1.41-.762.058-.02.086-.018.09-.072.065-.692-2.446-1.262-2.917-1.307-1.849-.202-3.906-.256-5.243-1.75-.737-.766-1.152-1.392-1.047-2.523.11-1.133.854-2.235 2.153-2.112 0 0 .193.017.186.1-.022.249-.184.457-.21.733-.08.858.92 1.483 1.667 1.554.718.066 1.4-.344 1.47-1.09.14-1.517-1.567-2.601-2.895-2.727-2.047-.163-3.906 1.222-4.1 3.296-.105 1.383.595 3.124 2.144 3.267.247.026.533-.034.71.176.175.185.783 2.612.758 2.889-.108 1.133-2.284-.047-2.465 1.886-.065.69.288 1.397 1.033 1.467 1.715.161 1.435-1.902 2.788-1.772.858.078 1.691.102 2.518.178.392.011.63.145.59.56-.14 1.486-.124 2.99-.255 4.477-.004.034-.004.067-.008.096-.068.733-.327.932-.694.943-.355.008-.81-.164-1.299-.21-.384-.037-.782.011-1.169-.026-.194-.017-.442-.044-.536-.219a.4.4 0 0 1-.062-.228c.005-.067.024-.157.034-.252.014-.139 0-.276-.15-.287-.01 0-.136.076-.332.185-.505.275-1.502.755-2.398.672a10 10 0 0 1-1.415-.245c-.997-.255-1.892-.683-2.563-1.315-.857-.809-1.351-1.952-1.205-3.502a6.5 6.5 0 0 1 .328-1.417c.15-.38.298-.782.578-1.091.093-.1.27-.197.282-.334-.02-.088-1.922-1.8-2.142-2.127-1.149-1.724-1.56-3.27-1.363-5.342.228-2.709 1.292-4.535 3.528-6.078 2.264-1.544 4.715-1.539 7.341-1.288 3.787.356 7.527 2.967 8.22 6.88.082.592.221 1.191.166 1.77-.082.857-.784 1.824-.786 1.85-.051.249 1.546 1.317 1.851 1.653z" fill="#fff" fill-opacity="1" fill-rule="nonzero" stroke="none"/><path id="path136" d="M316.453 422.245c2.783.089 5.246-.75 7.894 0 .926.142 1.466-.583 2.33-.71 4.111.236 7.772-1.127 11.691-1.556 3.123-.635 5.968.384 8.962-.784 1.062-.123 2.264-.444 3.388-.634 1.058.54 1.8-.58 2.927-.439.199.026.465-.067.671-.079 2.434-.174 4.845-.262 7.256-.67 2.042-.348 3.785-1.657 5.889-1.889.178-.021.732.19.793.195.132.007 5.324-1.699 5.53-1.826.638-.398 1.331-.697 2.04-.94 1.483-.513 3.03-.797 4.541-1.205.758-.204 1.477-.532 2.225-.746.299-.085.579.042.879-.002.426-.067.81-.295 1.25-.314.18-.008.419.091.592.065.365-.053 3.814-.777 4.332-1.4.33-.395 1.446-.752 2.037-.975.678-.26 2.193-1.205 2.193-1.205s.307.152.607.101c.344-.051.666-.185.995-.289 1.399-.453 2.596-1.04 3.927-1.492.397-.062.603-.59 1.067-.39 2.07-1.307 4.397-2.15 6.726-2.86.137-.596.798-.257 1.198-.586.798-.392 1.537-1.114 2.462-.908.272-.53 1.269-.72.876-1.518-.718-1.468-1.098-3.195-2.014-4.73l.08-.266c-1.639-2.402-2.553-5.328-3.92-8.06q-.677-1.421-1.347-2.842c-.301-.635-.891-1.508-.928-2.229-.032-.591.04-.829-.33-1.422-.461-.745-.993-1.43-1.397-2.203-.2-.38-.635-.69-.798-1.046-.124-.268-.036-.674-.13-.973-.216-.682-.625-1.376-.918-2.035-.34-.776-.619-1.518-1.066-2.248a17 17 0 0 1-1.035-1.932c-.412-.919-.36-1.611-1.373-2.063-1.073.606-2.308.89-3.385 1.53-1.024.614-2.03 1.513-3.218 1.799-1.329.32-2.198 1.31-3.725 1.426-2.47 1.438-4.92 1.22-7.386 2.59-2.6 1.236-5.124 1.548-7.855 2.718-1.332.254-2.726.639-3.989 1.028-1.796.38-3.462 1.227-5.321 1.745l-3.791.762c-.397-.27-1.064-.01-1.396.12l-4.454 1.157c-.536.327-1.062-.011-1.596.319-2.332.838-5.045.217-7.11 1.395-2.46.246-4.391 1.223-6.912.933-3.054.309-5.912.947-8.898.921-1.186-.742-2.257.376-3.648.099-1.332.52-3.188.171-4.585.425-.991-.142-1.923-.083-2.657.243-2.388-.022-4.379.226-6.834.404-1.988-.284-4.645-.173-6.7-.457-1.592.185-3.05-.227-4.643.094-1.527-.148-2.987-.028-4.64-.44-1.734.649-3.514-.494-5.109-.31l-.064-.202c-2.516-.681-5.04-.175-7.492-.66-2.053-.482-4.174-.568-6.297-.718-2.184-.618-4.907-.442-7.42-1.193-.8.458-1.19-.54-2.053-.35-.396-.466-.93-.009-1.391-.409-1.923-.152-3.707-.96-5.697-1.113-.725-.604-1.792.12-2.58-.687-2.977-1.154-6.095-1.247-8.934-2.797-1.259-.278-2.715-.687-4.04-.897-.591-.67-1.788-.347-2.512-.885-1.46-.278-3.111-1.088-4.632-1.566-4.17-1.297-7.54-2.852-11.64-4.35-1.785-.745-3.561-2.419-5.754-2.04-1.27.85-.954 2.778-2.222 3.7-.005.595-.538.657-.742 1.186.186 1.528-1.544 2.11-1.224 3.638-1.675 1.778-1.502 4.566-3.305 6.141-.413 1.524-1.487 3.107-1.635 4.764-1.341 1.646-1.491 3.705-3.095 5.082.442 2.456-1.698 4.43-2.447 6.682.57 2.922 3.696 2.154 5.472 3.693 3.248.563 5.546 3.434 9.064 3.266 1.978 1.41 4.567 1.234 6.68 2.38.527.537 1.255.674 1.984.813 1.856.148 3.099 2.084 5.229 1.505 4.368 1.167 8.262 3.589 12.905 3.83 5.031 1.302 10.4 2.08 15.364 3.317 2.855-.173 5.23 1.309 8.017 1.266 2.981.423 5.63.91 8.68 1.4 1.187.808 2.323-.11 3.579.3 6.43.786 13.068.576 19.497 1.362 4.246-.16 8.22.471 12.34-.023 1.328.145 2.716.353 4.115.169m-9.875-2.214c-.656.062-1.302.213-1.976.24-1.356.053-2.715.02-4.072.081-1.864.082-3.669-.028-5.555-.165s-4.92-.952-4.92-.952-2.657.446-3.618.394c-.722-.04-2.093-.373-2.755-.643s-1.328.12-1.987-.347c-2.394.64-4.901-.975-7.295-.532-2.779-.82-6.231-.584-9.145-1.206-.668-.266-1.207.197-1.866-.145-.552-.287-1.024-.112-1.607-.182-.322-.039-.654-.192-.96-.3-1.552-.558-3.124-.901-4.698-1.377-.31-.094-.736-.319-1.061-.297-.43.03-.631.37-1.096.318-.75-.082-1.272-.703-1.971-.85-.65-.134-1.307.184-1.954.178-.628-.002-1.038-.049-1.587-.342-.458-.242-.844-.14-1.347-.228-1.44-.248-2.877-.662-4.291-1.026-2.848-.727-5.672-1.575-8.401-2.666-.99-.542-2.387-.222-2.906-1.552-1.66-.147-2.977-1.022-4.568-1.168-2.576-1.284-5.897-.982-8.337-2.726-3.773-.963-7.342-2.585-10.642-4.606-.726-.47-1.924-.216-2.378-1.214.408-1.192.817-2.45 1.557-3.57.76-3.442 2.576-6.413 4.261-9.32 1.892-3.896 2.925-8.201 5.081-11.9.41-1.453 1.617-2.768 2.356-4.024 1.072-1.119 1.92.679 3.045.89.596.136 1.125.54 1.719.743 3.574 1.093 7.143 2.584 10.715 3.809 1.785.811 3.973 1.032 5.557 2.04 4.037 1.098 7.81 2.126 11.915 3.222 6.872 2.98 14.567 3.38 22.118 4.902.926.209 1.991-.18 2.513.82 2.978 1.021 4.09.395 9.483.682 1.388.608 3.053.158 4.509.304 5.502.844 11.344.232 16.714.675 4.175.439 7.567-.332 11.749-.362 1.46-.252 3.446.295 4.98-.421.66.27 1.198-.254 1.86-.182.523.736 1.392-.32 2.122.017 2.393-.71 4.448-.425 6.709-1.002 2.325-.18 4.884.785 7.218-.388.794.206 1.397-.781 2.257-.376 2.463-1.04 5.05-.488 7.778-1.392.861-.063 1.66-.518 2.457-.444 2.066-1.11 4.608-1.237 6.803-1.879 2.132-.775 4.057-1.093 6.189-1.937 2.324-.113 4.328-1.62 6.52-2 1.529-.385 2.525-.574 3.988-1.026 2.737-1.633 5.653-1.675 8.39-3.113 1.393-.12 2.86-1.168 4.258-1.82 2.063-.379 3.535-1.828 5.399-2.408l.33.27c.033.034.04.395.07.478.063.158.158.297.246.44.33.532.33 1.18.678 1.74.37.6.844 1.124 1.21 1.726.39.642.659 1.38.936 2.074.266.654.627 1.272.915 1.918.098.22.206.422.32.639.08.16.058.26.093.398.198.76.696 1.422 1.065 2.107q.611 1.123 1.179 2.271c.385 1.332 1.504 2.404 1.495 3.728.58 1.863 1.525 3.785 2.799 5.323-.264 1.698 1.916 3.993 2.356 6.453-.401.527-1.356 1.196-2.088 1.456-2.128.381-3.597 1.895-5.794 2.337-.931.59-1.998.98-2.998 1.633-2.498.75-5.006 1.478-7.467 2.315-.598.2-1.23.358-1.802.618-.46.205-.881.488-1.34.689-.804.352-1.684.495-2.49.846-.176.078-.421.243-.616.252-.225.01-1.547-.232-1.755-.137-5.061 2.278-9.475 2.697-14.67 4.646-1.792.378-3.458 1.094-5.38 1.145-1.73.582-3.525.896-5.19 1.547-1.929.579-4.18.03-6.046.807-2.919-.024-7.471.091-7.011 1.011-1.337.652-3.547-.105-4.88.479-1.193.056-2.394.775-3.45.302-2.797 1.038-5.976.546-8.77 1.186-1.26.252-2.456.043-3.52.433-.56.204-1.901-.173-2.554-.147-.855.033-1.703.136-2.55.247-1.169.153-2.333.377-3.513.436-.49.025-.973.06-1.448-.067-.492-.13-.9-.474-1.425-.508-.797-.054-1.515.163-2.345.08-.963-.1-1.917-.3-2.882-.402a4.5 4.5 0 0 0-.935.004z" fill="#fab20b" fill-opacity="1" fill-rule="nonzero" stroke="none"/><path id="path138" d="M400.793 366.366c.349.767 1.187 1.081 1.928.745.732-.332 1.047-1.17.702-1.936-.353-.776-1.192-1.087-1.921-.757-.74.336-1.06 1.17-.709 1.948m.587-2.218c.88-.398 1.942-.054 2.364.88.423.932-.021 1.956-.902 2.355-.89.4-1.953.056-2.37-.87-.427-.937.016-1.962.908-2.365m.333 1.649.324-.147.127-1.032.315-.141-.158 1.056c.29-.086.566-.033.718.297.164.367.018.63-.424.827l-.707.322-.844-1.864.283-.126zm.107.238.26.578.389-.175c.194-.086.386-.226.281-.456-.133-.288-.352-.208-.593-.098z" fill="#231f20" fill-opacity="1" fill-rule="nonzero" stroke="none"/></g></svg>