<svg xmlns="http://www.w3.org/2000/svg" width="290" height="85" viewBox="0 0 290 85"><path fill="#231f20" d="M2.545 32.195a2.657 2.657 0 0 0-1.304 3.52l21.376 46.526a2.657 2.657 0 0 0 3.519 1.305c37.648-17.268 77.8-26.027 119.34-26.027 41.298 0 81.24 8.656 118.706 25.738a2.65 2.65 0 0 0 3.509-1.306l21.468-46.485a2.67 2.67 0 0 0 .08-2.032 2.67 2.67 0 0 0-1.39-1.493C242.925 11.413 195.024 1.002 145.475 1.002c-49.755 0-97.845 10.492-142.929 31.192"/><g fill="#fff"><path d="M49.172 50.362c1.825 5.007-.794 9.819-5.707 11.572l-7.22 2.67c-1.461.53-7.813 3.2-8.573 1.117-.507-1.394-.944-2.808-1.403-4.176-.421-1.267-.643-2.524.779-3.043 1.322-.48 1.689-.773 1.24-2.107-.186-.52-.571-.932-.751-1.42-.595-1.633-1.003-3.293-1.61-4.965-.18-.487-.183-1.036-.36-1.523a6.4 6.4 0 0 0-.68-1.326c-.734.148-1.387.306-2.08.56-.625.226-1.03-.451-1.209-.939l-1.546-4.243c-.127-.346-.31-.636-.435-.981-.381-1.043-.039-2.156 1.04-2.544l8.841-3.184c2.576-.939 4.534-1.615 7.283-.88 2.796.752 4.755 2.127 5.768 4.908.812 2.221-.076 5.31-.097 5.352.077.21.493.172.673.23 1.32.382 2.755.645 3.847 1.587 1.128.93 1.693 1.944 2.186 3.3zm-13.152-6.59c-.507-1.39-2.864-1.045-3.94-.651-.28.102-.596.532-.492.812.328.9.762 1.769 1.069 2.718a5.8 5.8 0 0 0 1.381-.306c1.08-.394 2.475-1.216 1.967-2.608zm3.769 9.26c-.547-1.494-2.74-1.245-3.876-.795l-.625.226c.19.96.416 1.9.793 2.827l.376.928a2.7 2.7 0 0 0 1.368-.147c1.007-.365 2.416-1.901 1.997-3.049z"/><path d="M69.674 44.945c.313 1.104.483 2.245.793 3.35.243.85.627 1.668.86 2.487.563 1.993.156 2.455-1.802 3.01-.82.229-1.69.286-2.51.517-.96.27-1.87.721-2.833.994-2.918.827-5.88 1.506-8.81 2.294-.498.144-.958.429-1.454.566-.497.146-1.196-.008-1.32-.582-.594-2.106-1.2-4.24-1.688-6.374-.192-.828.63-1.174 1.272-1.36 1.136-.32-.082-3.284-.285-3.99-.588-2.219-1.141-4.448-1.765-6.66l-.216-.627c-.252-.892-1.124-.03-1.856-.17-1.211-.193-1.482-1.427-1.783-2.494-.143-.496-.13-1-.192-1.485-.21-1.019-.63-1.975-.959-2.998-.353-1.244 1.067-1.8 2.038-2.034 1.034-.296 2.126-.372 3.193-.676 3.384-.956 6.716-2.09 10.097-3.046 2.14-.606 2.659-.944 3.343 1.48.564 1.994 1.21 4.003 1.81 5.987.434 1.532-.075 1.636-1.43 2.019-.853.241-1.667.776-2.52 1.017-2.133.608-2.012-.047-2.59-1.955-.507.104-1.065.182-1.607.299-.57.16-.512.647-.382 1.107l.82 3.037c.15.533.632.324 1.095.187.497-.14.92-.414 1.417-.554.999-.28 1.203-.106 1.464.82.312 1.106.518 2.24.84 3.378.423 1.49-.322 1.436-1.5 1.768-.248.072-.946.46-.866.746l.892 3.286c.089.322.698.301.91.242 1.783-.501 1.356-.653.97-2.157-.171-.607-.14-1.312.538-1.497 1.35-.387 2.75-.743 4.107-1.126 1.493-.421 1.508-.234 1.921 1.224z"/><path d="M97.682 46.413c.21 1.053-.581 1.434-1.45 1.613-.763.152-1.549.195-2.309.345-.837.17-1.648.446-2.52.618-.398.08-1.089.218-1.386-.139-2.65-2.867-4.934-5.995-7.65-8.813-.325-.311-1.696-2.264-2.024-2.2-.218.045-.016 1.25.02 1.436l.427 2.138c.307 1.712 1.325.379 1.861.984.718.76.798 2.108.987 3.052.245 1.231.847 2.356 1.09 3.555.36 1.813-1.67 1.467-2.906 1.713-.872.174-1.672.523-2.493.73-.766.149-1.566.121-2.332.236-.943.19-1.85.556-2.824.789-1.379.28-1.88-4.304-2.09-5.355-.16-.8-.334-1.67-.378-2.449-.03-.527 1.872-.643 1.845-1.355 0-.564-.127-1.18-.24-1.762l-1.483-7.407c-.31-1.56-.564-1.887-2.125-1.573-.4.08-.87-.016-.957-.448-.356-1.782-.64-3.574-1.003-5.387-.124-.62-.093-1.227-.222-1.879-.291-1.453 2.149-1.525 3.06-1.672 1.127-.224 2.215-.628 3.349-.82l.725-.142c1.603-.284 4.172 3.693 5.259 4.796 1.126 1.098 2.09 2.338 3.217 3.437.319.272 1.568 2.173 1.787 2.133.178-.04.114-.364.093-.473l-.667-3.339c-.174-.872-.605-.562-1.292-.422-.797.16-1.37.122-1.524-.827-.086-.436-.029-.9-.118-1.333-.138-.694-.494-1.338-.667-2.02-.19-.943-.667-2.963.64-3.224 1.596-.319 3.22-.492 4.819-.812 1.381-.276 2.686-.724 4.064-.999 1.525-.307 1.988-.437 2.33 1.267.383 1.925.627 3.876 1.008 5.802.18.906-.796 1.291-1.562 1.44-.179.042-.387.118-.387.307.396 3.316 1.055 6.808 1.703 10.039.266 1.341 1.197.893 2.14.704.873-.172.952.601 1.09 1.293.42 2.1.666 4.28 1.095 6.423"/><path d="M152.093 19.41c.009.888.2 1.773.208 2.7.008.665-.175 1.184-.99 1.192-1.11.004-1.626.013-1.618 1.307.024 2.96.64 5.917.664 8.949.056 6.553-2.312 11.31-9.823 11.332-6.445.053-9.579-3.107-9.63-9.547-.026-3.44 2.32-6.122 5.837-6.114 2.48-.022 4.226 1.186 4.246 3.738.008.924-.462 2.191-1.161 2.79-.22.185-1.03.3-.995.56.003.444.524.586.856.549 1.74-.013 2.607-2.612 2.596-3.979-.005-.742-.124-1.48-.089-2.222.028-.74.17-1.48.167-2.187-.008-.664-.106-3.737-.256-4.213-.114-.22-1.374-.287-1.67-.284-1.146.012-5.137.746-5.152-1.031l-.048-5.773c-.013-2 .319-2 2.318-2.054 2.036-.017 4.07.187 6.106.174l4.331-.035c.776-.008 1.55-.196 2.367-.173 1.476-.01 1.893.621 1.904 2.024.008.777-.174 1.52-.168 2.297"/><path d="M172.84 37.563c-.07 1.15-.289 2.282-.36 3.427-.053.887.042 1.787-.011 2.633-.123 2.071-.664 2.371-2.694 2.248-.85-.053-1.686-.289-2.534-.341-1-.061-2.011.065-3.008 0-3.03-.185-6.047-.517-9.08-.737-.518-.028-1.04.089-1.559.054-.516-.032-1.123-.4-1.052-.989.133-2.18.267-4.399.51-6.57.089-.849.985-.903 1.651-.867 1.184.078 1.006-3.123 1.05-3.864.177-2.288.389-4.571.532-6.863l.002-.67c.054-.92-1.05-.397-1.698-.77-1.08-.581-.924-1.833-.859-2.943.028-.518.21-.988.312-1.464.137-1.028.053-2.074.08-3.148.08-1.293 1.605-1.349 2.597-1.253 1.074.068 2.134.355 3.238.423 3.51.213 7.033.244 10.538.457 2.219.133 2.82-.013 2.667 2.499-.124 2.065-.177 4.177-.268 6.248-.097 1.586-.61 1.52-2.013 1.433-.888-.05-1.827.188-2.72.136-2.21-.139-1.88-.708-1.8-2.708-.514-.068-1.06-.175-1.615-.248-.595-.036-.693.44-.72.92l-.232 3.141c-.03.552.49.51.97.538.518.034 1.007-.084 1.526-.054 1.03.063 1.164.296 1.107 1.254-.067 1.141-.25 2.28-.322 3.466-.093 1.551-.781 1.248-2 1.176-.261-.013-1.045.116-1.061.416l-.244 3.4c-.021.332.564.514.779.53 1.85.108 1.497-.174 1.629-1.72.036-.63.301-1.279 1-1.24 1.404.085 2.844.213 4.247.296 1.554.096 1.504.278 1.412 1.793z"/><path d="m195.542 49.029-5.247-.69a5.3 5.3 0 0 1-1.085-.25c-1.616-.512-2.027-9.072-3.15-10.747-.157-.208-.483-.293-.745-.325-.878-.116-.928.25-1.03 1.022-.11.882-.391 1.888.748 2.04 1.392.18.373 3.107.252 4.063-.096.733-.047 1.484-.151 2.256-.127.993-.54 1.275-1.565 1.139-.88-.111-1.73-.447-2.61-.564-1.986-.258-3.981-.41-5.962-.667-1.578-.205-.83-1.94-.688-3.003.146-1.137.076-2.306.228-3.477.182-1.395.182-1.952 1.796-1.747.404.056.697-2.484.746-2.813.348-2.713.52-5.419.908-8.127.175-1.321-.28-1.01-1.31-1.106-.95-.126-1.406-.667-1.28-1.623.185-1.393.59-2.797.776-4.187.114-.92.053-1.866.209-2.776l.048-.365c.125-.66 4.84.112 5.68.219 4.297.562 11.53 1.732 13.633 5.929 1.01 1.996 1.68 3.688 1.38 6.001-.404 3.08-1.37 4.487-3.912 6.243a.13.13 0 0 0-.052.107c-.046.328.99 2.142 1.187 2.616.217.63.63 2.324.977 2.778.196.248 1.055.216 1.384.292 1.947.258.887 2.916.72 4.167-.101.804-.053 1.596-.156 2.364-.16 1.213-.56 1.383-1.73 1.23m-8.574-22.62c-.22-.029-.59-.075-.726.13-.14.208-.51 2.768-.568 3.208-.083.624-.087.924.65 1.023 1.392.18 3.259-.099 3.48-1.822.198-1.469-1.624-2.38-2.836-2.538"/><path d="m219.64 54.183-5.168-1.142a5.3 5.3 0 0 1-1.06-.344c-1.562-.646-1.232-9.215-2.206-10.982-.14-.221-.46-.328-.714-.386-.866-.187-.945.172-1.11.933-.19.87-.559 1.847.56 2.093 1.374.3.108 3.132-.1 4.071-.16.719-.172 1.476-.343 2.236-.212.975-.644 1.223-1.656.999-.87-.191-1.69-.6-2.556-.79-1.95-.432-3.926-.752-5.874-1.18-1.558-.344-.664-2.004-.431-3.052.245-1.124.275-2.286.53-3.446.3-1.374.349-1.934 1.942-1.582.396.092.91-2.414.978-2.74.594-2.672.992-5.352 1.615-8.013.287-1.307-.188-1.032-1.21-1.219-.938-.204-1.342-.789-1.134-1.729.3-1.37.83-2.736 1.13-4.107.2-.902.22-1.848.454-2.742l.076-.362c.184-.64 4.816.528 5.645.711 4.23.93 11.336 2.723 13.067 7.085.832 2.078 1.36 3.822.857 6.098-.672 3.04-1.758 4.352-4.445 5.882-.04.028-.05.066-.06.102-.072.328.8 2.221.96 2.712.157.644.427 2.368.736 2.853.17.264 1.03.303 1.347.413 1.916.418.634 2.978.364 4.208-.178.794-.198 1.584-.367 2.343-.261 1.195-.672 1.333-1.828 1.077m-6.584-23.276c-.213-.049-.577-.129-.73.064-.16.191-.751 2.716-.849 3.147-.137.615-.164.912.56 1.073 1.376.303 3.256.184 3.634-1.516.314-1.442-1.422-2.508-2.614-2.768"/><path d="M247.216 33.393c-.437 1.489-1.373 5.304-2.129 6.433-.573.756-1.66-.257-2.525.061-.894.278-6.55 5.052-7.108 5.891-.612.897-.935 2.003-1.252 3.067-.69 2.341 2.377.313 1.426 3.392-.31 1.064-1.388 5.493-2.518 5.66-.802.109-7.312-1.892-8.556-2.26-2.414-.714-2.056-1.528-1.43-3.776a48 48 0 0 1 1.278-3.676c.262-.619 1.322-.418 1.817-.272a.53.53 0 0 0 .356-.014c.323-.448.324-.981.461-1.446.334-1.135.811-2.227 1.134-3.33.338-1.134-1.11-7.197-1.727-8.382-.173-.32-.58-.251-.903-.342-1.313-.39-.337-3.034-.106-3.814.282-.96.378-1.935.658-2.891.411-1.387.82-2.115 2.416-1.64 1.707.499 3.4 1.159 5.104 1.66.78.233 1.591.236 2.36.503 1.348.401.44 2.562.155 3.52-.31 1.065-.793 2.042-1.141 3.097-.515 1.74-1.63.407-1.892 1.293-.123.427.696 3.792 1.013 3.888.355.104 1.488-1.373 1.759-1.64.424-.381 1.128-.673 1.293-1.236.19-.64-1.4-.224-1.037-1.466.306-1.031.893-1.979 1.222-2.959.29-.84.432-1.724.654-2.584.513-1.744 2.52-.453 3.696-.107 1.67.492 3.424.819 5.088 1.308.997.295.657 1.315.426 2.098z"/><path d="M249.855 38.68c-.516-.177-1.101-.546-.899-1.155.227-.638 1.7.106 2.41-1.958.116-.337.074-.417-.262-.534-1.792-.612-2.482-2.446-1.89-4.174.669-1.949 2.861-2.79 4.733-2.117 2.335.807 2.916 3.075 2.179 5.23-.69 2.006-3.903 5.52-6.271 4.707"/><path d="M265.159 60.78c-1.643 4.247-5.885 7.127-10.48 5.354-2.275-.881-4.067-3.637-4.512-3.807-.036-.018-.233-.016-.27-.026-.422.153-.434.706-.815.873-.56.22-1.4-.384-1.936-.628-.69-.267-1.436-.396-2.102-.613-2.002-.778-1.08-2.244-.493-3.762.373-.966.905-1.832 1.267-2.762.466-1.21.796-2.471 1.262-3.676.811-2.107 1.196-1.563 2.991-.871.935.364 1.779.845 2.744 1.223 2.173.84-.765 4.226 2.032 5.306.968.374 2.303.099 2.693-.9 1.398-3.628-7.354-7.566-4.477-15.101 1.57-4.076 5.847-5.996 9.916-4.423 1.48.578 2.928 2.284 3.653 2.564.278.107.43-.502.8-.522.323-.034.74.126 1.016.232.62.24 3.52 1.365 3.568 1.86.023.442-.12.904-.261 1.284-.373.965-.952 1.85-1.325 2.82-.414 1.07-.656 2.202-1.116 3.293-.643 1.661-1.86.513-3.107.036-.627-.244-1.31-.31-1.933-.552a.9.9 0 0 1-.392-.31c-.431-1.555.133-3.12-1.795-3.869-.657-.253-1.565.154-1.853.792-1.21 3.104 8.298 7.37 4.892 16.174z"/><path d="M127.582 30.5c1.28-1.385 1.925-3.603 1.75-5.483l-.037.002c-.264-2.796-2.098-4.893-5.085-4.612-1.985.187-3.567 1.934-3.381 3.927.093.587.29 1.123.632 1.573.5.584 1.18.707 1.88 1.016.077.027.114.024.12.096.086.923-3.262 1.683-3.89 1.743-2.465.27-5.208.341-6.99 2.333-.983 1.022-1.536 1.856-1.396 3.364.146 1.511 1.138 2.98 2.87 2.816 0 0 .258-.022.248-.133-.029-.332-.245-.61-.28-.977-.106-1.144 1.227-1.978 2.223-2.072.957-.088 1.867.458 1.96 1.453.187 2.023-2.09 3.468-3.86 3.636-2.73.217-5.208-1.63-5.467-4.395-.14-1.844.794-4.165 2.86-4.356.328-.034.71.046.946-.234.233-.247 1.044-3.483 1.01-3.852-.144-1.511-3.045.062-3.286-2.515-.087-.92.384-1.863 1.377-1.956 2.287-.215 1.913 2.536 3.717 2.363 1.144-.104 2.255-.136 3.358-.238.522-.014.84-.193.786-.746-.186-1.982-.165-3.987-.34-5.97-.005-.045-.005-.089-.01-.128-.091-.977-.436-1.242-.926-1.257-.473-.01-1.08.219-1.732.28-.512.05-1.042-.015-1.558.035-.259.022-.59.058-.715.292a.53.53 0 0 0-.083.304c.007.089.032.209.046.336.018.185 0 .368-.2.382-.014 0-.182-.101-.443-.246-.673-.367-2.003-1.007-3.197-.896a13 13 0 0 0-1.887.326c-1.33.34-2.523.911-3.417 1.754-1.143 1.078-1.802 2.602-1.607 4.669a8.7 8.7 0 0 0 .437 1.89c.2.506.398 1.042.771 1.454.124.133.36.263.376.445-.027.118-2.563 2.4-2.856 2.836-1.532 2.299-2.08 4.36-1.817 7.123.304 3.612 1.722 6.047 4.704 8.104 3.018 2.059 6.286 2.052 9.788 1.717 5.049-.474 10.036-3.956 10.96-9.173.109-.79.294-1.588.221-2.36-.11-1.143-1.045-2.432-1.048-2.467-.068-.332 2.061-1.756 2.468-2.204"/></g><path fill="#fab20b" d="M156.943 5.482c3.71-.119 6.995 1 10.526 0 1.234-.19 1.954.777 3.106.947 5.482-.315 10.363 1.502 15.588 2.074 4.164.847 7.958-.512 11.95 1.046 1.416.164 3.018.592 4.517.845 1.41-.72 2.4.773 3.902.585.266-.034.62.09.895.106 3.245.232 6.46.35 9.675.893 2.722.464 5.046 2.21 7.852 2.519.237.028.976-.254 1.057-.26.176-.01 7.099 2.265 7.373 2.434.851.531 1.775.93 2.72 1.254 1.978.684 4.04 1.062 6.055 1.606 1.01.272 1.97.71 2.967.995.398.113.772-.056 1.172.003.568.089 1.08.393 1.666.418.24.011.559-.121.79-.086.486.07 5.085 1.036 5.776 1.866.44.527 1.928 1.003 2.716 1.3.904.347 2.924 1.607 2.924 1.607s.409-.203.809-.135c.459.068.888.247 1.327.386 1.865.604 3.461 1.386 5.236 1.989.529.083.804.787 1.422.52 2.76 1.743 5.863 2.867 8.968 3.813.183.795 1.064.343 1.598.782 1.064.522 2.049 1.485 3.282 1.21.363.707 1.692.96 1.168 2.024-.957 1.958-1.464 4.26-2.685 6.307l.107.355c-2.186 3.202-3.404 7.104-5.227 10.746q-.903 1.895-1.796 3.79c-.401.846-1.188 2.01-1.237 2.972-.043.788.053 1.105-.44 1.896-.615.993-1.324 1.906-1.863 2.937-.267.507-.847.92-1.064 1.395-.165.357-.048.898-.173 1.297-.288.91-.834 1.835-1.224 2.713-.454 1.035-.826 2.024-1.422 2.998a23 23 0 0 0-1.38 2.576c-.549 1.225-.48 2.148-1.83 2.75-1.431-.808-3.078-1.186-4.514-2.04-1.365-.818-2.706-2.017-4.29-2.398-1.772-.427-2.931-1.747-4.967-1.902-3.293-1.917-6.56-1.626-9.848-3.453-3.467-1.648-6.832-2.064-10.473-3.624-1.776-.339-3.635-.852-5.319-1.37-2.395-.507-4.616-1.637-7.095-2.327l-5.054-1.016c-.53.36-1.419.013-1.862-.16l-5.938-1.543c-.715-.436-1.416.015-2.128-.425-3.11-1.118-6.727-.29-9.48-1.86-3.28-.328-5.855-1.631-9.216-1.244-4.072-.412-7.883-1.263-11.864-1.228-1.581.989-3.01-.502-4.864-.132-1.776-.694-4.25-.228-6.113-.567-1.322.19-2.564.11-3.543-.324-3.184.03-5.839-.301-9.112-.539-2.65.379-6.193.231-8.933.61-2.123-.247-4.067.302-6.191-.126-2.036.198-3.983.038-6.187.587-2.312-.865-4.685.659-6.812.413l-.085.27c-3.355.908-6.72.233-9.99.88-2.737.642-5.565.757-8.395.957-2.912.824-6.543.59-9.894 1.59-1.066-.61-1.586.72-2.737.467-.528.622-1.24.012-1.855.546-2.564.202-4.942 1.28-7.596 1.484-.966.805-2.389-.16-3.44.916-3.969 1.538-8.126 1.662-11.911 3.729-1.68.37-3.62.916-5.387 1.196-.788.893-2.384.463-3.35 1.18-1.946.37-4.147 1.45-6.175 2.088-5.56 1.73-10.054 3.803-15.52 5.8-2.38.993-4.748 3.225-7.672 2.72-1.694-1.133-1.272-3.704-2.963-4.933-.007-.794-.717-.876-.99-1.582.249-2.037-2.058-2.813-1.631-4.85-2.234-2.371-2.003-6.088-4.407-8.188-.55-2.032-1.983-4.143-2.18-6.352-1.788-2.195-1.988-4.94-4.127-6.776.59-3.275-2.264-5.907-3.262-8.91.76-3.896 4.928-2.872 7.296-4.924 4.33-.75 7.394-4.578 12.085-4.354 2.637-1.88 6.09-1.646 8.907-3.174.702-.716 1.673-.898 2.645-1.084 2.475-.197 4.132-2.778 6.972-2.006 5.824-1.556 11.016-4.786 17.207-5.107 6.708-1.736 13.866-2.773 20.485-4.423 3.806.231 6.973-1.745 10.69-1.688 3.974-.564 7.506-1.213 11.572-1.866 1.583-1.078 3.098.146 4.772-.4 8.574-1.048 17.424-.768 25.996-1.816 5.662.213 10.96-.628 16.454.03 1.77-.193 3.62-.47 5.486-.225m-13.166 2.952c-.875-.083-1.736-.284-2.635-.32-1.808-.07-3.62-.027-5.43-.108-2.485-.11-4.891.037-7.406.22s-6.56 1.27-6.56 1.27-3.543-.595-4.824-.526c-.963.053-2.79.497-3.673.857s-1.77-.16-2.65.463c-3.192-.853-6.534 1.3-9.726.71-3.706 1.093-8.308.778-12.194 1.607-.89.355-1.609-.262-2.488.194-.736.382-1.365.15-2.142.242-.43.052-.872.256-1.28.4-2.07.744-4.166 1.202-6.264 1.836-.414.126-.982.426-1.415.396-.573-.04-.841-.493-1.461-.424-1 .11-1.696.938-2.628 1.134-.867.178-1.743-.246-2.606-.238-.837.003-1.383.066-2.115.456-.611.323-1.126.187-1.796.304-1.92.331-3.836.883-5.722 1.368-3.797.97-7.562 2.1-11.201 3.555-1.32.723-3.183.296-3.875 2.07-2.213.195-3.97 1.362-6.09 1.557-3.435 1.712-7.863 1.309-11.116 3.634-5.031 1.284-9.79 3.447-14.19 6.142-.968.626-2.565.288-3.17 1.618.544 1.59 1.089 3.267 2.076 4.76 1.013 4.59 3.434 8.551 5.681 12.427 2.523 5.195 3.9 10.935 6.775 15.867.546 1.937 2.156 3.69 3.14 5.365 1.43 1.492 2.56-.905 4.06-1.187.796-.181 1.5-.72 2.293-.99 4.765-1.458 9.524-3.446 14.287-5.08 2.38-1.08 5.297-1.375 7.409-2.72 5.383-1.463 10.413-2.834 15.886-4.295 9.163-3.973 19.423-4.507 29.491-6.536 1.235-.279 2.655.24 3.35-1.093 3.971-1.362 5.454-.527 12.645-.91 1.85-.81 4.07-.21 6.012-.405 7.336-1.125 15.125-.31 22.285-.9 5.567-.585 10.09.443 15.665.483 1.947.336 4.595-.394 6.64.561.88-.36 1.598.339 2.48.243.698-.982 1.856.426 2.83-.023 3.19.947 5.93.567 8.945 1.336 3.1.24 6.512-1.047 9.624.517 1.059-.274 1.863 1.042 3.01.502 3.283 1.386 6.733.65 10.37 1.856 1.148.084 2.213.69 3.276.592 2.754 1.48 6.144 1.649 9.07 2.505 2.843 1.033 5.41 1.457 8.252 2.583 3.1.15 5.771 2.16 8.694 2.666 2.038.514 3.366.766 5.317 1.368 3.65 2.178 7.537 2.234 11.187 4.15 1.857.16 3.813 1.558 5.677 2.428 2.75.505 4.713 2.437 7.199 3.21l.44-.36c.044-.045.053-.526.093-.637.084-.21.21-.396.328-.587.44-.71.44-1.573.904-2.32.493-.8 1.125-1.498 1.613-2.301.52-.856.879-1.84 1.248-2.765.355-.872.836-1.696 1.22-2.558.131-.293.275-.562.427-.852.107-.213.077-.346.124-.53.264-1.014.928-1.896 1.42-2.81q.815-1.497 1.572-3.028c.513-1.776 2.005-3.205 1.993-4.97.774-2.484 2.034-5.047 3.732-7.098-.352-2.264 2.555-5.324 3.142-8.604-.535-.702-1.808-1.594-2.784-1.941-2.838-.508-4.796-2.527-7.726-3.116-1.241-.787-2.664-1.307-3.997-2.177-3.33-1-6.675-1.971-9.956-3.087-.797-.267-1.64-.477-2.403-.824-.613-.273-1.174-.65-1.786-.919-1.072-.469-2.246-.66-3.32-1.128-.235-.104-.562-.324-.822-.336-.3-.013-2.062.31-2.34.183-6.748-3.037-12.633-3.596-19.56-6.195-2.389-.504-4.61-1.458-7.173-1.526-2.307-.776-4.7-1.195-6.92-2.063-2.572-.772-5.573-.04-8.061-1.076-3.892.032-9.961-.121-9.348-1.348-1.783-.87-4.73.14-6.507-.639-1.59-.074-3.192-1.033-4.6-.402-3.73-1.384-7.968-.728-11.693-1.582-1.68-.336-3.275-.057-4.693-.577-.747-.272-2.535.23-3.406.196-1.14-.044-2.27-.181-3.4-.33-1.558-.203-3.11-.502-4.684-.58-.653-.034-1.297-.08-1.93.089-.656.173-1.2.632-1.9.677-1.063.072-2.02-.217-3.127-.107-1.284.134-2.556.4-3.843.536a6 6 0 0 1-1.246-.005"/><path fill="#231f20" d="M269.396 79.987c.466-1.022 1.583-1.441 2.571-.993.976.443 1.396 1.56.936 2.581-.47 1.035-1.59 1.45-2.561 1.01-.987-.448-1.414-1.56-.946-2.598m.783 2.958c1.173.53 2.59.072 3.152-1.174.564-1.242-.028-2.608-1.203-3.14-1.186-.533-2.604-.074-3.16 1.16-.569 1.25.022 2.616 1.211 3.154m.444-2.2.432.197.17 1.376.42.188-.211-1.408c.386.115.754.044.957-.396.219-.49.024-.84-.565-1.103l-.943-.43-1.125 2.486.377.168zm.143-.316.346-.771.519.233c.259.115.515.302.375.608-.178.384-.47.278-.791.13z"/></svg>