<svg viewBox="0 0 128 128" xmlns="http://www.w3.org/2000/svg"><g fill="#ff4b4b" stroke-width=".426657"><path d="m63.992579 72.521325-22.438847-11.861004-38.9503109-20.586263c-.035557-.03555-.1066637-.03555-.1422174-.03555-1.4221913-.675528-2.87993927.746641-2.3466152 2.168863l19.8466965 50.619383.0035.0109c.02134.04994.03912.09944.06046.149334.814189 1.887956 2.591938 3.054 4.526143 3.512657.163538.03587.280527.06782.476917.107073.195451.04351.46881.10282.703471.120745.03912.0033.07467.0033.113789.0065h.02846c.02841.0044.05687.0044.08533.0076h.03908c.02491.0033.05333.0033.07824.0033h.04621c.02846.0044.05687.0044.08533.0044 25.135232 2.740415 50.493562 2.740415 75.628755 0 .30207 0 .59732-.0145.88147-.04263.0926-.0109.18133-.02137.27051-.03195.0107-.0044.0247-.0044.0354-.0076.0606-.0076.12074-.01788.18133-.02857.0887-.0109.17791-.02813.26666-.04612.17791-.03925.25855-.06738.50004-.1506.24106-.08276.64169-.22784.89214-.348585.25087-.120746.42452-.236792.63444-.368201.2594-.163837.50644-.331086.75689-.518812.10794-.08276.18175-.135683.25983-.210351l-.0427-.02475z"/><path d="m125.44606 40.07457h-.0354l-38.964875 20.586264 21.660075 32.258942 19.79686-50.711921v-.07109c.49791-1.493346-1.0308-2.844391-2.45668-2.062205"/><path d="m66.069117 30.286053c-.995816-1.454191-3.164512-1.454191-4.124488 0l-20.390812 30.374519 22.438762 11.861189 42.523581 22.473697c.26709-.261532.48127-.516249.7074-.785468.31999-.394664.61865-.817481.8819-1.290639l-21.660081-32.258779z"/></g></svg>