<svg height="18" viewBox="0 0 18 18" width="18" xmlns="http://www.w3.org/2000/svg" xmlns:xlink="http://www.w3.org/1999/xlink"><linearGradient id="a" gradientUnits="userSpaceOnUse" x1="11.246" x2="11.246" y1="18" y2="3.281"><stop offset="0" stop-color="#0078d4"/><stop offset=".817" stop-color="#5ea0ef"/></linearGradient><path d="m1.078.334h10.11v11.685h-10.11z" fill="#5ea0ef"/><path d="m11.188 12.353h-10.11a.334.334 0 0 1 -.334-.334v-11.685a.333.333 0 0 1 .334-.334h10.11a.333.333 0 0 1 .333.334v11.685a.334.334 0 0 1 -.333.334m-9.777-.668h9.443v-11.017h-9.443z" fill="#0078d4"/><path d="m3.01 1.918h10.11v11.685h-10.11z" fill="#83b9f9"/><path d="m13.12 13.937h-10.11a.335.335 0 0 1 -.334-.334v-11.685a.335.335 0 0 1 .334-.334h10.11a.334.334 0 0 1 .334.334v11.682a.334.334 0 0 1 -.334.337m-9.776-.668h9.443v-11.017h-9.443z" fill="#0078d4"/><path d="m12.082 3.39h-6.264a.5.5 0 0 0 -.495.5v13.51a.5.5 0 0 0 .495.5h10.856a.5.5 0 0 0 .494-.5v-8.946a.5.5 0 0 0 -.494-.5h-3.6a.5.5 0 0 1 -.495-.495v-3.573a.5.5 0 0 0 -.497-.496" fill="#fff"/><path d="m11.853 4.023v3.393a1.246 1.246 0 0 0 1.247 1.245h3.418v8.6h-10.541v-13.238zm.24-.742h-6.356a.5.5 0 0 0 -.5.5v13.719a.5.5 0 0 0 .5.5h11.017a.5.5 0 0 0 .5-.5v-9.079a.5.5 0 0 0 -.5-.5h-3.654a.5.5 0 0 1 -.5-.5v-3.638a.5.5 0 0 0 -.5-.5z" fill="url(#a)"/><path d="m17.064 8.019-4.642-4.629v3.772a.85.85 0 0 0 .846.857z" fill="#0078d4"/><g fill="#5ea0ef"><rect height="1.097" rx=".493" width="8.177" x="7.157" y="9.982"/><rect height="1.097" rx=".493" width="8.177" x="7.157" y="11.948"/><rect height="1.097" rx=".493" width="5.154" x="7.157" y="13.913"/></g></svg>