<svg xmlns="http://www.w3.org/2000/svg" width="64" height="64" viewBox="0 0 64 64"><title>Icon-Architecture/48/Arch_AWS-Thinkbox-Krakatoa_48</title><g id="Icon-Architecture/48/Arch_AWS-Thinkbox-Krakatoa_48" fill="none" fill-rule="evenodd" stroke="none" stroke-width="1"><g id="Icon-Architecture-BG/48/Compute" fill="#ed7100"><path id="Rectangle" d="M0 0h64v64H0z"/></g><g id="Icon-Service/48/AWS-ThinkBox-Krakatoa_48" fill="#fff" transform="translate(13 10)"><path id="AWS-ThinkBox-Krakatoa_48_Squid" d="M18 2.783V6h2V2.783l2.48 1.515 1.041-1.707-4-2.445a1 1 0 0 0-1.042 0l-4 2.445 1.042 1.707zM16 44h6v-2h-6zm8.697-6L19 34.201l-5.697 3.8zM38 12v4h-2v-2.84c-8.926 1.551-15.58 8.084-16 15.884v3.421l2 1.333v-2.834c.224-5.14 3.835-8.547 8.84-8.332 4.123.18 7.332 3.681 7.153 7.806a6.2 6.2 0 0 1-6.453 5.915 5.16 5.16 0 0 1-4.924-5.37c.104-2.375 2.012-4.087 4.427-3.982L30.957 29c-1.267-.049-2.289.813-2.343 2.07a3.157 3.157 0 0 0 3.013 3.286 4.19 4.19 0 0 0 4.368-4.004 5.495 5.495 0 0 0-5.244-5.72 9 9 0 0 0-.356-.009c-3.674 0-6.227 2.526-6.396 6.385L24 35.131l4.555 3.037A1 1 0 0 1 28 40H10a1.001 1.001 0 0 1-.555-1.832L14 35.131v-4.167c-.173-3.939-2.883-6.507-6.75-6.334a5.495 5.495 0 0 0-5.245 5.721 4.173 4.173 0 0 0 4.37 4.004 3.157 3.157 0 0 0 3.011-3.286c-.055-1.257-1.022-2.117-2.343-2.07l-.086-1.998c2.427-.105 4.323 1.606 4.427 3.981a5.16 5.16 0 0 1-5.196 5.377 6.197 6.197 0 0 1-6.18-5.92c-.18-4.126 3.03-7.627 7.153-7.807 4.98-.222 8.615 3.191 8.838 8.288L16 33.798l2-1.333V29c-.414-7.753-7.07-14.289-16-15.84V16H0v-4a1 1 0 0 1 .338-.75c.045-.039.101-.055.152-.085l-.01-.019 4-2.444L5.52 10.41l-1.773 1.084C10.135 12.987 15.311 16.864 18 21.911v-1.91c0-5.737-2.772-10.837-6.948-12.878L8.498 8.59l-.996-1.734 3-1.722c.271-.156.601-.176.891-.053 3.548 1.515 6.24 4.702 7.607 8.726 1.366-4.025 4.06-7.21 7.607-8.726.29-.123.621-.103.891.053l3 1.722-.996 1.734-2.554-1.466C22.772 9.163 20 14.264 20 20v1.93c2.69-5.064 7.865-8.943 14.252-10.437L32.48 10.41l1.042-1.707 4 2.444-.01.02c.05.03.106.045.151.084A1 1 0 0 1 38 12m-2 10h2v-3h-2zM0 22h2v-3H0z"/></g></g></svg>