<svg height="18" viewBox="0 0 18 18" width="18" xmlns="http://www.w3.org/2000/svg" xmlns:xlink="http://www.w3.org/1999/xlink"><linearGradient id="a" gradientUnits="userSpaceOnUse" x1="3.423" x2="14.584" y1="8.438" y2="8.438"><stop offset="0" stop-color="#005ba1"/><stop offset=".52" stop-color="#0078d4"/><stop offset="1" stop-color="#005ba1"/></linearGradient><path d="m17.549 15.146c-.16.7-1.035 1.391-2.617 1.929a21.6 21.6 0 0 1 -12.125.017c-1.457-.514-2.243-1.17-2.366-1.842-.022-.118 0-1.966 0-1.966l17.136-.16s-.008 1.937-.028 2.022" fill="#5ea0ef"/><ellipse cx="9.001" cy="13.246" fill="#50e6ff" rx="8.576" ry="2.965" transform="matrix(.99994964 -.01003547 .01003547 .99994964 -.132998 .090999)"/><path d="m9 4.067c-3.082 0-5.581-.87-5.581-2.019v10.76c0 1.106 2.456 2 5.5 2.02h.081c3.082 0 5.58-.871 5.58-2.02v-10.76c.004 1.123-2.494 2.019-5.58 2.019" fill="url(#a)"/><path d="m14.584 2.048c0 1.123-2.5 2.019-5.58 2.019s-5.581-.867-5.581-2.019 2.499-2.02 5.577-2.02 5.58.87 5.58 2.02" fill="#e8e8e8"/><path d="m13.287 1.882c0 .714-1.924 1.289-4.283 1.289s-4.284-.577-4.284-1.289 1.924-1.282 4.28-1.282 4.283.574 4.283 1.283" fill="#50e6ff"/><path d="m9 2.2a10 10 0 0 0 -3.387.5 10 10 0 0 0 3.387.473 9.7 9.7 0 0 0 3.386-.5 10.3 10.3 0 0 0 -3.386-.473" fill="#198ab3"/>​</svg>