<svg xmlns="http://www.w3.org/2000/svg" viewBox="0 0 128 128"><linearGradient id="a" x1="91.112" x2="137.072" y1="122.964" y2="142.24" gradientUnits="userSpaceOnUse"><stop offset="0" stop-color="#249361"/><stop offset="1" stop-color="#3ecf8e"/></linearGradient><linearGradient id="b" x1="70.735" x2="91.695" y1="95.065" y2="134.523" gradientUnits="userSpaceOnUse"><stop offset="0"/><stop offset="1" stop-opacity="0"/></linearGradient><path fill="url(#a)" d="M102.24 186.21c-3.267 4.117-9.904 1.862-9.977-3.397l-1.156-76.906h51.715c9.365 0 14.587 10.817 8.763 18.149z" transform="translate(-27.722 -60.338)"/><path fill="url(#b)" fill-opacity=".2" d="M102.24 186.21c-3.267 4.117-9.904 1.862-9.977-3.397l-1.156-76.906h51.715c9.365 0 14.587 10.817 8.763 18.149z" transform="translate(-27.722 -60.338)"/><path fill="#3ecf8e" d="M53.484 2.128c3.267-4.117 9.905-1.862 9.977 3.396l.508 76.907H12.902c-9.365 0-14.587-10.817-8.764-18.149z"/></svg>