<svg viewBox="0 0 128 128" xmlns="http://www.w3.org/2000/svg" xmlns:xlink="http://www.w3.org/1999/xlink"><linearGradient id="a" gradientUnits="userSpaceOnUse" x1="91.111666" x2="137.071807" y1="122.964266" y2="142.239644"><stop offset="0" stop-color="#249361"/><stop offset="1" stop-color="#3ecf8e"/></linearGradient><linearGradient id="b" gradientUnits="userSpaceOnUse" x1="70.735002" x2="91.694902" y1="95.065001" y2="134.522632"><stop offset="0"/><stop offset="1" stop-opacity="0"/></linearGradient><path d="m102.24 186.21c-3.267 4.117-9.904 1.862-9.977-3.397l-1.156-76.906h51.715c9.365 0 14.587 10.817 8.763 18.149z" fill="url(#a)" transform="translate(-27.722 -60.338)"/><path d="m102.24 186.21c-3.267 4.117-9.904 1.862-9.977-3.397l-1.156-76.906h51.715c9.365 0 14.587 10.817 8.763 18.149z" fill="url(#b)" fill-opacity=".2" transform="translate(-27.722 -60.338)"/><path d="m53.484 2.128c3.267-4.117 9.905-1.862 9.977 3.396l.508 76.907h-51.067c-9.365 0-14.587-10.817-8.764-18.149z" fill="#3ecf8e"/></svg>