<svg xmlns="http://www.w3.org/2000/svg" width="18" height="18" viewBox="0 0 18 18"><path fill="currentColor" d="M10 10.24a1 1 0 0 1-.31.79 1.5 1.5 0 0 1-.89.37v.6h-.44v-.62a2.36 2.36 0 0 1-1.1-.28v-.81a1.8 1.8 0 0 0 .5.25 2.5 2.5 0 0 0 .6.14V9.64a2.4 2.4 0 0 1-.91-.53 1.15 1.15 0 0 1 .06-1.55 1.4 1.4 0 0 1 .85-.38v-.55h.43v.54a2.2 2.2 0 0 1 .92.2v.8a2.3 2.3 0 0 0-.92-.31V9a2.34 2.34 0 0 1 .92.54 1 1 0 0 1 .29.7M8.36 8.81v-.93A.4.4 0 0 0 8 8.3c0 .21.13.38.4.51zm.85 1.47c0-.19-.14-.34-.42-.47v.9c.28-.05.42-.19.42-.43"/><path fill="currentColor" d="M16.54 9.49h-3.6a4.43 4.43 0 0 1-1.48 3.3l2.39 2.69a8 8 0 0 0 2.69-6"/><path fill="currentColor" d="M8.52 13.93a4.43 4.43 0 0 1 0-8.86V1.49a8 8 0 0 0-8 8 8 8 0 0 0 8 8 8 8 0 0 0 5.34-2l-2.4-2.69a4.38 4.38 0 0 1-2.94 1.13"/><path fill="currentColor" d="M13.34 9.82a5.13 5.13 0 0 0-5.06-5.18h-.13l.33.62a4.5 4.5 0 0 1 4.23 4.25z"/></svg>