<svg height="64" viewBox="0 0 64 64" width="64" xmlns="http://www.w3.org/2000/svg"><g fill="none" fill-rule="evenodd"><path d="m0 0h64v64h-64z" fill="#7aa116"/><path d="m50 42.396-17.987 9.467-17.013-9.452v-20.821l17.013-9.452 17.987 9.466zm1.466-22.28-19-10a1 1 0 0 0 -.951.01l-18 10a1 1 0 0 0 -.515.874v22a1 1 0 0 0 .515.873l18 10a1 1 0 0 0 .951.01l19-10a1 1 0 0 0 .534-.883v-22a1 1 0 0 0 -.534-.884m-18.962-1.116c3.428 0 6.438 2.585 7.267 5.93a9.65 9.65 0 0 0 -4.328-.31 3.5 3.5 0 0 0 -2.943-1.62c-1.22 0-2.293.629-2.92 1.579a9.7 9.7 0 0 0 -4.37.434c.803-3.39 3.837-6.013 7.294-6.013m12.06 15.114c0 4.276-3.463 7.886-7.564 7.886-.744 0-1.566-.207-2.473-.592 1.371-1.23 2.61-2.985 3.254-4.659a3.5 3.5 0 0 0 2.219-3.249c0-.27-.037-.53-.096-.783a9.4 9.4 0 0 0 1.963-4.397c1.683 1.436 2.697 3.548 2.697 5.795m-23.564 0c0-2.255.778-4.2 2.166-5.567a9.4 9.4 0 0 0 1.932 4.161 3.5 3.5 0 0 0 -.098.791c0 1.48.926 2.74 2.226 3.251.639 1.584 1.994 3.377 3.473 4.652-.863.342-1.827.597-2.699.597-3.99 0-7-3.39-7-7.885m11.5-6.115a1.501 1.501 0 1 1 1.5-1.5c0 .827-.673 1.5-1.5 1.5m4 7a1.501 1.501 0 1 1 1.5-1.5c0 .827-.673 1.5-1.5 1.5m-8-3a1.501 1.501 0 0 1 0 3 1.501 1.501 0 0 1 0-3m2.338-2.44c.496.272 1.058.44 1.662.44.678 0 1.307-.203 1.844-.539.224.292.435.594.615.912a3.49 3.49 0 0 0 -1.959 3.127c0 .312.055.608.131.896a7.7 7.7 0 0 1 -1.258-.015c.075-.283.127-.575.127-.88a3.49 3.49 0 0 0 -1.754-3.016 8 8 0 0 1 .592-.925m1.789 10.821c-1.182-.842-2.406-2.236-3.145-3.539a3.5 3.5 0 0 0 1.202-.63c.63.136 1.283.213 1.95.213.593 0 1.169-.069 1.727-.175.35.272.748.476 1.185.601-.703 1.357-1.819 2.721-2.919 3.53m7.356-13.25a7.4 7.4 0 0 1 -1.2 3.737 3.47 3.47 0 0 0 -1.757-.815 9.7 9.7 0 0 0 -1.346-2.11c.194-.426.306-.894.314-1.387a7.63 7.63 0 0 1 3.989.575m-10.979-.597a3.44 3.44 0 0 0 .421 1.6 9.6 9.6 0 0 0 -1.176 1.891 3.46 3.46 0 0 0 -2.026.84 7.44 7.44 0 0 1 -1.202-3.617 7.63 7.63 0 0 1 3.983-.714m-5.969-.432c-2.529 1.697-4.035 4.638-4.035 8.013 0 5.543 3.953 9.885 9 9.885 1.868 0 3.695-.8 4.641-1.288 1.594.85 3.031 1.288 4.359 1.288 5.185 0 9.564-4.527 9.564-9.885 0-3.343-1.765-6.455-4.61-8.198-.434-4.977-4.534-8.917-9.45-8.917-4.976 0-9.113 4.03-9.469 9.1" fill="#fff"/></g></svg>