<svg xmlns="http://www.w3.org/2000/svg" width="64" height="64" fill="none" viewBox="0 0 64 64"><path fill="currentColor" d="m24.828 45.362.118-.086 3.76-13.62c.157-.495.445-.772.973-.828.975-.104 3.695-.117 4.653.002.48.06.8.347.943.8l3.823 13.79c1.38-4.619 2.265-9.366 3.237-14.085.168-.328.477-.47.83-.507.742-.08 2.76-.088 3.49.002 1.05.13.661 1.118.534 1.813-1.019 5.575-2.728 12.098-4.675 17.413-.265.725-.395 1.759-1.323 1.874-.823.102-2.995.084-3.838.002-.354-.035-.686-.135-.89-.448l-4.455-15.48-4.416 15.347c-.176.352-.43.52-.823.572-.607.08-3.677.095-4.197-.033a1.1 1.1 0 0 1-.345-.178c-.39-.308-1.143-2.786-1.352-3.414a124 124 0 0 1-3.933-14.958c-.148-.756-.782-2.365.358-2.512.68-.087 2.863-.083 3.547.002.338.042.658.214.808.529.932 4.697 1.9 9.387 3.174 14.003"/><path fill="currentColor" d="M31.268 12.015c6.561-.28 12.718 3.477 15.367 9.476.306.693 1.331 2.763.02 2.946-.44.062-3.519.058-3.85-.045-.14-.044-.303-.19-.388-.31-.292-.412-.578-1.31-.896-1.837-4.343-7.211-15.04-7.083-19.202.234-.368.646-.63 1.872-1.413 1.96s-2.572.087-3.373.042c-1.571-.088-.642-1.942-.289-2.775 2.376-5.6 7.926-9.432 14.024-9.691"/></svg>