<svg height="18" viewBox="0 0 18 18" width="18" xmlns="http://www.w3.org/2000/svg" xmlns:xlink="http://www.w3.org/1999/xlink"><linearGradient id="a" gradientUnits="userSpaceOnUse" x1="13.189" x2="13.8" y1="10.24" y2="17.842"><stop offset=".224" stop-color="#5ea0ef"/><stop offset="1" stop-color="#0078d4"/></linearGradient><path d="m10.483 11.909h-1.919v-.447c0-.778.633-1.411 1.411-1.411h4.869a7.589 7.589 0 1 0 -14.763-2.464 7.587 7.587 0 0 0 10.349 7.066l.052-2.743z" fill="#b0b0b0"/><path d="m10.483 11.909h-1.919v-.447c0-.778.633-1.411 1.411-1.411h3.62a6.444 6.444 0 1 0 -12.389-2.491 6.444 6.444 0 0 0 9.249 5.803z" fill="#fff"/><path d="m10.99 10.568h.366v1.134h-.366z" fill="#7a7a7a" transform="matrix(.70710678 -.70710678 .70710678 .70710678 -4.601138 11.16187)"/><path d="m10.701 4.238.259.259.802-.802-.259-.259zm1.412 3.161v.366h1.134v-.366zm-4.668 5.793h.366v-1.134h-.366zm-2.938-8.989-.802-.802-.259.259.802.802zm-1.009 7.241.259.259.802-.802-.259-.259zm-1.569-3.679h1.134v-.366h-1.134z" fill="#7a7a7a"/><path d="m7.686 1.116a6.48 6.48 0 0 1 5.986 8.936h1.173a7.577 7.577 0 0 0 -7.168-10.052.545.545 0 0 0 -.545.544v.009c0 .307.246.557.553.562zm2.767 12.335a6.48 6.48 0 0 1 -7.551-10.238l.455.66 1.267-2.82-3.053.357.669.893a7.578 7.578 0 0 0 8.189 12.336l.023-1.188z" fill="#0078d4"/><path d="m10.374 9.63-1.919-1.919a.46.46 0 0 0 -.312-.133.45.45 0 0 0 .06-.215v-4.882a.464.464 0 0 0 -.464-.464h-.089a.464.464 0 0 0 -.464.464v4.882c0 .256.208.464.464.464h.051a.46.46 0 0 0 .035.603l1.72 1.72c.16-.064.335-.1.518-.1h.526a.47.47 0 0 0 -.126-.422z" fill="#7a7a7a"/><circle cx="7.65" cy="7.587" fill="#666" r="1.071"/><path d="m9.01 11.462c0-.532.432-.964.964-.964a4.5 4.5 0 0 1 1.514.276c.182.175-.55.415-.55.687h-1.928z" fill="#0078d4"/><path d="m16.559 11.975c0-.815-.661-1.476-1.476-1.476h-5.108c.532 0 .964.432.964.964l-.106 5.567q0 .07.01.137c.07.474.484.838.963.834a.964.964 0 0 0 .955-.971l3.8.002v-5.057z" fill="url(#a)"/><path d="m12.52 11.364a.15.15 0 0 1 -.153.153.15.15 0 0 1 -.153-.153.153.153 0 1 1 .306 0m0 2.663a.154.154 0 0 1 -.307.001c0-.085.068-.153.153-.154.084 0 .152.068.153.153zm-.809-.429v-.432a.83.83 0 0 0 .533.197.7.7 0 0 0 .146-.015.4.4 0 0 0 .103-.041.2.2 0 0 0 .061-.062.2.2 0 0 0 .02-.078.17.17 0 0 0 -.032-.101.4.4 0 0 0 -.088-.082 1 1 0 0 0 -.133-.073l-.166-.073a.85.85 0 0 1 -.338-.231.5.5 0 0 1 -.111-.327.5.5 0 0 1 .061-.26.5.5 0 0 1 .166-.179.7.7 0 0 1 .243-.103q.143-.034.291-.033.135 0 .268.018.111.017.215.056v.403a.6.6 0 0 0 -.106-.059.938.938 0 0 0 -.353-.076.6.6 0 0 0 -.135.014.4.4 0 0 0 -.103.04.2.2 0 0 0 -.065.061.157.157 0 0 0 .002.167q.03.043.073.073a1 1 0 0 0 .115.068q.068.033.152.068.108.045.209.103a.8.8 0 0 1 .158.123.5.5 0 0 1 .101.158.63.63 0 0 1 -.026.478.5.5 0 0 1 -.167.178.7.7 0 0 1 -.245.098q-.146.03-.295.03-.153 0-.303-.027a1 1 0 0 1 -.25-.081zm2.909 2.176h-3.013a.184.184 0 0 1 -.187-.181.184.184 0 0 1 .181-.187h3.019a.184.184 0 0 1 .181.187.185.185 0 0 1 -.181.181m.771.765h-3.784a.184.184 0 0 1 -.187-.181.184.184 0 0 1 .181-.187h3.79c.102-.002.185.079.187.181s-.079.185-.181.187zm-.02-1.714a.184.184 0 0 0 -.184-.184h-3.595a.185.185 0 0 0 .016.368h3.58a.184.184 0 0 0 .184-.184z" fill="#fff"/><path d="m16.955 17.993a.965.965 0 0 0 .964-.964h-5.159c0 .532-.469.964-.889.964z" fill="#5ea0ef"/></svg>