<svg height="24" width="24" xmlns="http://www.w3.org/2000/svg"><path d="m0 0h24v24h-24z" fill="none"/><g fill-rule="evenodd"><path d="m22.5 20.2h-21c-.8 0-1.5-.7-1.5-1.5v-13.5c0-.8.7-1.5 1.5-1.5h21c.8 0 1.5.7 1.5 1.5v13.5c0 .9-.7 1.5-1.5 1.5" fill="#85a4e6"/><path d="m22.5 20.2h-10.5v-16.4h10.5c.8 0 1.5.7 1.5 1.5v13.5c0 .8-.7 1.4-1.5 1.4" fill="#5c85de"/><path d="m0 6h24v3h-24z" fill="#5c85de"/><path d="m12 6h12v3h-12z" fill="#3367d6"/><path d="m2.2 10.5h19.5v2.2h-19.5z" fill="#fff"/><path d="m2.2 15h4.5v3h-4.5z" fill="#5c85de"/><path d="m13.5 15.8h1.5v1.5h-1.5zm3 0h1.5v1.5h-1.5zm3 0h1.5v1.5h-1.5z" fill="#fff"/></g></svg>