<svg viewBox="0 0 24 24" xmlns="http://www.w3.org/2000/svg" fill="#FCEF40"><path d="m14.249 0v3h1.5v-1.5h1.505v1.5h-1.505v4.5h1.5v-3h3.002v-1.5h-1.505v-3zm6.002 4.498v1.5h1.5v-1.497zm1.5 1.5v10.503h1.5v-10.503zm0 10.503h-1.5v2.999h1.5zm-1.5 2.998h-1.505v1.5h1.5zm-1.5 1.5h-3.002v1.5h3.001zm-3.002 1.5h-8.999v1.501h9zm-8.999 0v-1.499h-3v1.5zm-3-1.5v-1.497h-1.502v1.5zm-1.501-1.497v-2.997h7.501v-1.5h-9.002v4.497zm7.502-4.497h2.997v-1.5h-2.997zm2.997-1.5h1.5v-1.501h-1.5zm1.5-1.501h1.501v-4.498h-1.5z"/></svg>