<svg xmlns="http://www.w3.org/2000/svg" width="18" height="18" viewBox="0 0 18 18"><defs><mask id="a"><path fill="#fff" d="M0 0h18v18H0z"/><path d="M.5 5.79h17v9.48a.57.57 0 0 1-.57.57H1.07a.57.57 0 0 1-.57-.57z"/><path d="M2.79 3.25h12.43v1.46H2.79z"/><circle cx="12.82" cy="10.19" r="1.38"/><circle cx="9.06" cy="10.19" r="1.38"/><circle cx="5.18" cy="10.19" r="1.38"/></mask></defs><path fill="currentColor" d="M1.07 2.17h15.86a.57.57 0 0 1 .57.57v3.05H.5V2.73a.57.57 0 0 1 .57-.56" mask="url(#a)"/></svg>