<svg height="24" width="24" xmlns="http://www.w3.org/2000/svg"><path d="m19.73 6.56a1.73 1.73 0 0 0 -1.68 1.68 1.83 1.83 0 0 0 .89 1.48v6.9l-5.16 3.06.8 1.28 5.55-3.25a.84.84 0 0 0 .4-.69v-7.3a1.64 1.64 0 0 0 .89-1.48 1.61 1.61 0 0 0 -1.69-1.68" fill="#aecbfa"/><path d="m18 5.48-5.61-3.16a1.18 1.18 0 0 0 -.79 0l-6.35 3.68a1.72 1.72 0 0 0 -2.68 1.35 1.73 1.73 0 0 0 1.69 1.65 1.73 1.73 0 0 0 1.68-1.65l6.06-3.45 5.15 3zm-6.8 13.02a1.57 1.57 0 0 0 -.89.29l-5.16-3v-5.87h-1.59v6.31a.84.84 0 0 0 .4.69l5.56 3.08v.09a1.69 1.69 0 0 0 3.37 0 1.65 1.65 0 0 0 -1.69-1.59" fill="#aecbfa"/><path d="m16.96 8.63-4.86-2.85-4.97 2.85 4.97 2.77z" fill="#669df6"/><path d="m12.1 12.38-5.26-3.06v2.47l5.26 2.96zm0 3.35-5.26-3.05v2.07l5.26 3.06z" fill="#669df6"/><path d="m12.09 12.38v2.37l5.26-3.06v-2.36zm4.32-.94a.38.38 0 1 1 0-.76.38.38 0 0 1 0 .76m-4.32 4.29v2.07l5.26-3.05v-2.07zm4.32-1.07a.38.38 0 1 1 0-.76.38.38 0 0 1 0 .76" fill="#4285f4"/></svg>