<svg height="18" viewBox="0 0 18 18" width="18" xmlns="http://www.w3.org/2000/svg" xmlns:xlink="http://www.w3.org/1999/xlink"><radialGradient id="a" cx="7.98" cy="6.94" gradientUnits="userSpaceOnUse" r="6.17"><stop offset=".22" stop-color="#0078d4"/><stop offset=".42" stop-color="#0075cf"/><stop offset=".67" stop-color="#006dc0"/><stop offset=".94" stop-color="#005ea7"/><stop offset="1" stop-color="#005ba1"/></radialGradient><path d="m8.42 14.07h-.7a.26.26 0 0 0 -.26.3c.15 1.56-.81 1.86-2.41 1.89a.26.26 0 0 0 -.26.26v.48a.27.27 0 0 0 .26.27h5.8a.27.27 0 0 0 .26-.27v-.47a.26.26 0 0 0 -.26-.26c-1.58 0-2.34-.33-2.17-1.89a.26.26 0 0 0 -.26-.31" fill="#ef7100"/><path d="m8.71 11a.85.85 0 0 1 .29-.21.7.7 0 0 1 .29-.06.8.8 0 0 1 .3.06 1 1 0 0 1 .21.21l-1.21-1.25a.75.75 0 0 1 0-1.08.73.73 0 0 1 .54-.23.76.76 0 0 1 .54.23l.33.33.25.22.59.6a.77.77 0 0 0 1.08 0 .76.76 0 0 0 0-1.09l-.59-.59-.33-.38-1.85-1.76a.75.75 0 0 1 0-1.08.73.73 0 0 1 .54-.23.76.76 0 0 1 .54.23l.79.79a.77.77 0 0 1 .54-1.31.8.8 0 0 1 .54.22l2 2.05a6.18 6.18 0 0 0 -5.5-5.9l.92.92a1 1 0 0 1 .28.68 1 1 0 0 1 -1 1 .94.94 0 0 1 -.68-.29l-.63-.62a1 1 0 0 0 -1.64.68.93.93 0 0 0 .28.68l1.26 1.18a.94.94 0 0 1 .29.68.92.92 0 0 1 -.29.68 1 1 0 0 1 -.68.29 1 1 0 0 1 -.71-.26l-1.33-1.39a.9.9 0 0 1 0 .65 1 1 0 0 1 -1 .71 1 1 0 0 1 -.6-.28l1 1a.93.93 0 0 1 .28.68 1 1 0 0 1 -.07.37 1 1 0 0 1 -.52.52 1 1 0 0 1 -.37.07.9.9 0 0 1 -.37-.07.85.85 0 0 1 -.31-.21l-.92-.92a6.18 6.18 0 0 0 7.78 5.38l-.86-.9a.77.77 0 0 1 0-1.08z" fill="url(#a)"/><path d="m14.14 6.63-2-2a.8.8 0 0 0 -.54-.22.76.76 0 0 0 -.54.22.76.76 0 0 0 0 1.09l-.79-.79a.76.76 0 0 0 -.54-.23.73.73 0 0 0 -.54.23.75.75 0 0 0 -.04 1.07l1.85 1.76.37.37.59.59a.76.76 0 0 1 0 1.09.77.77 0 0 1 -1.08 0l-.59-.59-.29-.22-.32-.32a.76.76 0 0 0 -.54-.23.73.73 0 0 0 -.54.23.75.75 0 0 0 0 1.08l1.19 1.24a.76.76 0 0 0 -.54-.23.8.8 0 0 0 -.54.23.77.77 0 0 0 0 1.08l.86.86a6.24 6.24 0 0 0 2.77-1.6 6.15 6.15 0 0 0 1.4-2.15 6 6 0 0 0 .4-2.56m-10.04 1.84a1.1 1.1 0 0 0 .21-.31 1 1 0 0 0 .07-.37.9.9 0 0 0 -.07-.37 1 1 0 0 0 -.21-.32l-1-1a1 1 0 0 0 .25.33 1.1 1.1 0 0 0 .37.2 1 1 0 0 0 .42 0 1 1 0 0 0 .39-.16.84.84 0 0 0 .28-.31.8.8 0 0 0 .19-.36 1 1 0 0 0 0-.41 1 1 0 0 0 -.33-.39l1.33 1.39a1 1 0 0 0 .68.29 1 1 0 0 0 .71-1.68l-1.23-1.21a1 1 0 0 1 -.29-.68 1 1 0 0 1 1.65-.68l.63.62a.94.94 0 0 0 .68.29.92.92 0 0 0 .68-.29.92.92 0 0 0 .29-.68.94.94 0 0 0 -.29-.68l-.91-.92a6.19 6.19 0 0 0 -6.78 6.78l.91.92a1 1 0 0 0 .32.21.9.9 0 0 0 .37.07 1 1 0 0 0 .37-.07 1.1 1.1 0 0 0 .31-.21" fill="#9cebff"/><path d="m8 15.16a8.14 8.14 0 0 1 -5.82-2.41.5.5 0 0 1 -.18-.19.5.5 0 0 1 0-.22.6.6 0 0 1 0-.22.46.46 0 0 1 .13-.18.46.46 0 0 1 .18-.13.6.6 0 0 1 .22 0 .5.5 0 0 1 .22 0 .5.5 0 0 1 .19.13 7.2 7.2 0 0 0 2.3 1.54 7 7 0 0 0 2.76.52 7 7 0 0 0 2.72-.53 7.2 7.2 0 0 0 2.28-1.53 7.09 7.09 0 0 0 0-10 .58.58 0 0 1 -.17-.41.54.54 0 0 1 .17-.43.56.56 0 0 1 .4-.17.57.57 0 0 1 .41.17 8.24 8.24 0 0 1 0 11.65 8.17 8.17 0 0 1 -5.81 2.41" fill="#faa21d"/></svg>