<svg xmlns="http://www.w3.org/2000/svg" width="18" height="18" viewBox="0 0 18 18"><defs><mask id="a"><path fill="#fff" d="M0 0h18v18H0z"/><path d="M16.847 13.406H7.366v.456h3.771v.64a.275.275 0 0 0 .274.274h1.508a.275.275 0 0 0 .274-.274v-.64h3.654z"/></mask></defs><g fill="currentColor" mask="url(#a)"><path d="M10.833 14.785a.535.535 0 0 1-.559.506H1.712a.535.535 0 0 1-.559-.506V.887a.535.535 0 0 1 .559-.506h8.562a.535.535 0 0 1 .559.506z"/><path d="M2.576 6.755A1.11 1.11 0 0 1 3.628 5.6h4.817A1.11 1.11 0 0 1 9.5 6.755a1.11 1.11 0 0 1-1.052 1.16h-4.82a1.11 1.11 0 0 1-1.052-1.16m0-3.444a1.11 1.11 0 0 1 1.052-1.159h4.817A1.11 1.11 0 0 1 9.5 3.311a1.11 1.11 0 0 1-1.052 1.16h-4.82a1.11 1.11 0 0 1-1.052-1.16"/><circle cx="3.93" cy="3.311" r=".778"/><circle cx="3.93" cy="6.755" r=".778"/><path d="M7.366 17.619v-5.86a.61.61 0 0 1 .612-.611h8.24a.61.61 0 0 1 .612.611v5.86z"/><path d="M14.764 11.148h-.716v-1.032a.334.334 0 0 0-.338-.338h-3.2a.333.333 0 0 0-.337.338v1.032h-.72v-1.032a1.043 1.043 0 0 1 1.054-1.054h3.2a1.043 1.043 0 0 1 1.054 1.054z"/></g></svg>