<svg height="18" viewBox="0 0 18 18" width="18" xmlns="http://www.w3.org/2000/svg" xmlns:xlink="http://www.w3.org/1999/xlink"><linearGradient id="a" gradientUnits="userSpaceOnUse" x1="5.993" x2="5.993" y1=".381" y2="15.291"><stop offset="0" stop-color="#b3b2b3"/><stop offset=".375" stop-color="#afaeaf"/><stop offset=".763" stop-color="#a2a2a2"/><stop offset="1" stop-color="#979797"/></linearGradient><linearGradient id="b" gradientUnits="userSpaceOnUse" x1="12.098" x2="12.098" y1="11.148" y2="17.619"><stop offset="0" stop-color="#5ea0ef"/><stop offset="1" stop-color="#0078d4"/></linearGradient><linearGradient id="c" gradientUnits="userSpaceOnUse" x1="12.109" x2="12.109" y1="9.062" y2="11.148"><stop offset="0" stop-color="#3b3b3b"/><stop offset=".389" stop-color="#373737"/><stop offset=".791" stop-color="#2a2a2a"/><stop offset=".997" stop-color="#212121"/></linearGradient><path d="m10.833 14.785a.535.535 0 0 1 -.559.506h-8.562a.535.535 0 0 1 -.559-.506v-13.898a.535.535 0 0 1 .559-.506h8.562a.535.535 0 0 1 .559.506z" fill="url(#a)"/><path d="m2.576 6.755a1.11 1.11 0 0 1 1.052-1.155h4.817a1.11 1.11 0 0 1 1.055 1.155 1.11 1.11 0 0 1 -1.052 1.16h-4.82a1.11 1.11 0 0 1 -1.052-1.16m0-3.444a1.11 1.11 0 0 1 1.052-1.159h4.817a1.11 1.11 0 0 1 1.055 1.159 1.11 1.11 0 0 1 -1.052 1.16h-4.82a1.11 1.11 0 0 1 -1.052-1.16" fill="#003067"/><circle cx="3.93" cy="3.311" fill="#50e6ff" r=".778"/><circle cx="3.93" cy="6.755" fill="#50e6ff" r=".778"/><path d="m7.366 17.619v-5.86a.61.61 0 0 1 .612-.611h8.24a.61.61 0 0 1 .612.611v5.86z" fill="url(#b)"/><path d="m14.764 11.148h-.716v-1.032a.334.334 0 0 0 -.338-.338h-3.2a.333.333 0 0 0 -.337.338v1.032h-.72v-1.032a1.043 1.043 0 0 1 1.054-1.054h3.2a1.043 1.043 0 0 1 1.054 1.054z" fill="url(#c)"/><path d="m16.847 13.406h-9.481v.456h3.771v.64a.275.275 0 0 0 .274.274h1.508a.275.275 0 0 0 .274-.274v-.64h3.654z" fill="#fff"/></svg>