<svg height="18" viewBox="0 0 18 18" width="18" xmlns="http://www.w3.org/2000/svg"><path d="m10.83 8.42a.26.26 0 0 1 -.24.27h-2.09a.26.26 0 0 1 -.27-.24v-1.56a.26.26 0 0 1 .24-.27h2.09a.26.26 0 0 1 .27.24zm3.71 1.58a.26.26 0 0 1 -.24.27h-2.09a.26.26 0 0 1 -.27-.24v-1.55a.26.26 0 0 1 .24-.27h2.09a.26.26 0 0 1 .27.24zm-3.71 1.6a.26.26 0 0 1 -.24.27h-2.09a.26.26 0 0 1 -.27-.24v-1.56a.26.26 0 0 1 .24-.27h2.09a.26.26 0 0 1 .27.24z" fill="#76bc2d"/><path d="m7.12 6.84a.25.25 0 0 1 -.23.26h-2.15a.26.26 0 0 1 -.27-.23v-1.62a.26.26 0 0 1 .24-.25h2.09c.22 0 .32.11.32.27z" fill="#86d633"/><path d="m7.12 10a.25.25 0 0 1 -.23.27h-2.15a.26.26 0 0 1 -.27-.27v-1.58a.26.26 0 0 1 .24-.26h2.09c.22 0 .32.11.32.26zm0 3.19a.25.25 0 0 1 -.23.27h-2.15a.26.26 0 0 1 -.27-.24v-1.62a.25.25 0 0 1 .24-.26h2.09c.22 0 .32.1.32.26z" fill="#76bc2d"/><g fill="#999"><path d="m1.07 1.51h1.29v3.6a.29.29 0 0 1 -.29.29h-1.28a.29.29 0 0 1 -.29-.29v-3a.57.57 0 0 1 .57-.6"/><path d="m1.07 1.51h1.29v3.6a.29.29 0 0 1 -.29.29h-1.28a.29.29 0 0 1 -.29-.29v-3a.57.57 0 0 1 .57-.6" opacity=".5"/></g><g fill="#999"><path d="m15.64 1.51h1.29a.57.57 0 0 1 .57.57v3a.29.29 0 0 1 -.29.29h-1.29a.29.29 0 0 1 -.29-.29v-3.57z"/><path d="m15.64 1.51h1.29a.57.57 0 0 1 .57.57v3a.29.29 0 0 1 -.29.29h-1.29a.29.29 0 0 1 -.29-.29v-3.57z" opacity=".5"/></g><path d="m17.5 2.08v1.25h-17v-1.25a.57.57 0 0 1 .57-.57h15.87a.57.57 0 0 1 .56.57" fill="#949494"/><g fill="#999"><path d="m.79 12.76h1.29a.29.29 0 0 1 .29.29v3.6h-1.3a.57.57 0 0 1 -.57-.57v-3.08a.29.29 0 0 1 .29-.24"/><path d="m.79 12.76h1.29a.29.29 0 0 1 .29.29v3.6h-1.3a.57.57 0 0 1 -.57-.57v-3.08a.29.29 0 0 1 .29-.24" opacity=".5"/></g><g fill="#999"><path d="m15.92 12.76h1.29a.29.29 0 0 1 .29.29v3a.57.57 0 0 1 -.57.57h-1.29v-3.62a.29.29 0 0 1 .28-.24"/><path d="m15.92 12.76h1.29a.29.29 0 0 1 .29.29v3a.57.57 0 0 1 -.57.57h-1.29v-3.62a.29.29 0 0 1 .28-.24" opacity=".5"/></g><path d="m.5 16.08v-1.25h17v1.25a.57.57 0 0 1 -.57.57h-15.86a.57.57 0 0 1 -.57-.57" fill="#949494"/></svg>