<svg xmlns="http://www.w3.org/2000/svg" fill="currentColor" fill-rule="evenodd" viewBox="0 0 24 24"><path d="M8.303.964q.058.023.076-.016l.048-.034L8.76.66a2.85 2.85 0 0 1 1.5-.575 1 1 0 0 1 .211 0q.18.015.21.016.015-.001.029.004a.4.4 0 0 0 .148.021q.024 0 .046.006a.3.3 0 0 0 .15.015q.51-.127.82-.144.286-.015.688.067.681.138 1.23.588.071.06.249.223.01.01.024.011a.15.15 0 0 0 .099-.015 1.06 1.06 0 0 1 .716-.12l.367.022q.353.034.632.18.144.073.383.238l.025.009c.047.003.091-.035.125-.03.033.004.068-.02.106-.024a3.5 3.5 0 0 1 .815 0q.203.022.386.097.46.19.83.507c.3.255.57.55.765.9q.199.358.263.65.032.15.073.372.003.014.009.028c.07.172.167.335.23.508q.06.17.087.286.036.162.069.394.01.077.034.17a.14.14 0 0 0 .046.073c.273.233.49.514.617.841q.056.142.068.337c.013.199.02.41-.042.598q-.07.215-.089.26a.1.1 0 0 0-.005.047 1.2 1.2 0 0 1 .02.225q-.019.228-.026.34a1.1 1.1 0 0 1-.121.43c-.247.5-.7.773-1.25.844a.2.2 0 0 0-.09.038q-.027.015-.007.07l.003.023a2.6 2.6 0 0 1-.068.463q-.102.45-.41.748a1.7 1.7 0 0 1-.742.41q-.054.015-.24.034a.03.03 0 0 0-.027.022c-.01.033 0 .097-.017.15-.023.069-.006.17-.026.239-.02.065-.015.134-.024.215l-.053.357a12.7 12.7 0 0 1-1.535 4.4c-.105.184-.23.366-.363.564a.07.07 0 0 0-.01.052c.089.486.185.956.32 1.416.08.272.182.523.383.715q.085.08.296.203c.63.367 1.277.656 1.985.963l.007.005.004.008v.009a2 2 0 0 1-.135.176c-.757.875-1.549 1.639-2.448 2.277a8 8 0 0 1-2.65 1.23.4.4 0 0 1-.087.017.04.04 0 0 0-.027.008c-.04.027-.092.01-.138.037a.1.1 0 0 1-.033.008.3.3 0 0 0-.12.02.1.1 0 0 1-.028.007c-.14.004-.259.029-.387.031-.327.007-.686.034-1.02.025a8 8 0 0 1-.646-.037 6 6 0 0 1-.613-.13 6.2 6.2 0 0 1-1.764-.73 4.4 4.4 0 0 1-1.199-1.098 1.3 1.3 0 0 1-.276-.625.7.7 0 0 0-.029-.163.7.7 0 0 0-.022-.192.2.2 0 0 1-.006-.045 1 1 0 0 0-.008-.127c-.025-.112-.02-.18-.037-.31a22 22 0 0 0-.173-1.086 1 1 0 0 1-.012-.104c-.002-.053-.027-.086-.026-.14a.3.3 0 0 0-.023-.129l-.005-.027a.4.4 0 0 0-.016-.134c-.023-.06-.008-.123-.036-.198a.1.1 0 0 1-.006-.036.3.3 0 0 0-.012-.115c-.026-.069-.008-.136-.04-.208l-.004-.027a.4.4 0 0 0-.015-.124c-.023-.064-.006-.12-.03-.18-.021-.052-.004-.119-.028-.17-.025-.055-.008-.125-.032-.187-.019-.047-.003-.093-.023-.148-.02-.06-.008-.13-.032-.184-.016-.036-.01-.079-.019-.125l-.05-.267a1 1 0 0 0-.061-.24.02.02 0 0 0-.02-.014.3.3 0 0 1-.07-.019 2.2 2.2 0 0 1-.69-.397 1.6 1.6 0 0 1-.48-.695 2.4 2.4 0 0 1-.104-.4c-.03-.17-.147-.303-.217-.43a1.5 1.5 0 0 1-.142-.384c-.01-.041-.004-.115-.028-.147a.017.017 0 0 1 .004-.024q.027-.02.016-.092-.01-.056-.053-.054l-.013-.002-.01-.008c-.26-.308-.456-.554-.545-.897a2.6 2.6 0 0 1-.086-.483 5 5 0 0 0-.021-.279.02.02 0 0 1-.005-.014.5.5 0 0 0 .046-.183.32.32 0 0 0-.056-.251.1.1 0 0 1-.023-.052l-.078-.394a.1.1 0 0 1-.002-.037q.025-.224.034-.264.067-.318.244-.583a.03.03 0 0 0 .004-.018.03.03 0 0 0-.01-.015 2.9 2.9 0 0 1-.927-1.357A2.7 2.7 0 0 1 3 8.36q.002-.222.02-.397a2.28 2.28 0 0 1 .656-1.395q.248-.252.572-.452.055-.033.05-.092a.4.4 0 0 0-.024-.103.1.1 0 0 1-.005-.028 20 20 0 0 1 .004-1.105q.009-.189.096-.462.262-.833.79-1.379.323-.333.7-.535c.162-.087.314-.142.396-.252q.26-.35.6-.65.468-.411 1.103-.519c.104-.017.229-.01.345-.027m.106.32-.24-.047a1.4 1.4 0 0 0-.59.115c-.674.296-1.225.917-1.414 1.616-.045.17-.053.305-.075.51a.1.1 0 0 1-.035.06c-.113.084-.26.186-.363.302a2.2 2.2 0 0 0-.355.53 1.5 1.5 0 0 0-.133.55.8.8 0 0 0-.009.282l.016.24a.016.016 0 0 1-.015.017.26.26 0 0 0-.131.046c-.305.204-.512.52-.631.862-.042.12-.118.326-.078.436a.04.04 0 0 0 .043.027.04.04 0 0 0 .018-.005.56.56 0 0 0 .194-.177c.237-.315.489-.593.86-.758a1.8 1.8 0 0 1 1.076-.127 7 7 0 0 1 .518.114.012.012 0 0 0 .007-.016 1.7 1.7 0 0 1-.134-.5 1 1 0 0 1 0-.142l.015-.128a1.9 1.9 0 0 0 .61 1.269c.254.231.557.338.898.375q.355.039.671.006a.3.3 0 0 1 .128-.009 1.74 1.74 0 0 0 1.225-.678v-.006l-.005-.006-.006-.002-.434-.048a5 5 0 0 0-.369-.141c-.138-.046-.271-.05-.41-.068-.453-.058-.831-.371-.914-.841-.028-.318.026-.623.244-.865q.098-.108.233-.227a.09.09 0 0 0 .03-.096l-.001-.026.067-.312.174-.325a.014.014 0 0 0-.014-.02 1.24 1.24 0 0 0-.877.605c-.186.309-.264.69-.152 1.03a.004.004 0 0 1-.002.005h-.003l-.002-.002c-.222-.418-.247-.911.03-1.309.253-.36.775-.712 1.247-.67a.03.03 0 0 0 .024-.01l.203-.214a2.3 2.3 0 0 1 .443-.352c.112-.068.259-.128.379-.194a.016.016 0 0 0 .001-.027.8.8 0 0 0-.267-.118 2.2 2.2 0 0 0-.79-.046c-.45.054-.943.304-1.302.596a.01.01 0 0 1-.013.002.01.01 0 0 1-.008-.01q0-.015.005-.024.24-.347.546-.562c.507-.357 1.193-.4 1.768-.204q.192.092.367.215a.2.2 0 0 0 .073.037.5.5 0 0 0 .287-.064.36.36 0 0 0 .187-.269.23.23 0 0 0-.004-.128l-.016-.023a.22.22 0 0 1-.085-.168c0-.12.075-.2.199-.177a.5.5 0 0 1 .168.076.6.6 0 0 1 .11.435l.004.004a.01.01 0 0 0 .011.002c.214-.088.363-.079.641-.091a.02.02 0 0 1 .014.005.02.02 0 0 1 .005.013v.21a.01.01 0 0 1-.01.011 2.6 2.6 0 0 0-.475.08q-.838.302-1.113 1.144a1.7 1.7 0 0 0 .06 1.113q.19.452.578.745c.442.332 1.015.404 1.552.291.111-.023.209-.07.3-.11l.002-.003v-.006l-.004-.001a1.24 1.24 0 0 1-.87-.314 1.7 1.7 0 0 1-.213-.235.8.8 0 0 0 .546.172c.226-.01.468-.102.6-.297a.02.02 0 0 0 .003-.02l-.005-.009-.008-.006c-.497-.249-.698-.726-.654-1.268a.13.13 0 0 1 .032-.054.014.014 0 0 1 .023.009l.003.038a.5.5 0 0 0 .053.19q.221.475.67.686c.47.221 1.122.188 1.551-.114a.7.7 0 0 0 .258-.32.42.42 0 0 0-.043-.41q-.184-.23-.44-.123c-.117.048-.187.133-.296.164-.55.159-1.123-.414-.907-.96a.5.5 0 0 1 .346-.266l.1.004a1 1 0 0 0-.146.241c-.103.23-.046.492.174.62q.18.087.342.004c.095-.05.145-.141.213-.22a.4.4 0 0 1 .273-.14c.486-.046.884.347 1.062.77q.092.301.084.591l-.037.278-.024.106q-.12.178-.177.406c-.07.28.045.482.245.662a.01.01 0 0 0 .01 0l.003-.008a1 1 0 0 1 .01-.526l.11-.242q.22-.297.563-.387a1.6 1.6 0 0 1 .412-.047l.004-.003.003-.005V3.87q-.073-.39.054-.669c.264-.578.864-.658 1.409-.47.262.091.474.247.699.383a.01.01 0 0 0 .012 0l.004-.005a.5.5 0 0 0-.048-.163 2.02 2.02 0 0 0-1.123-1.113 2 2 0 0 0-.558-.102.31.31 0 0 1 .276-.158l.006-.002.003-.006a.01.01 0 0 0-.007-.01 2 2 0 0 1-.19-.064 1.7 1.7 0 0 0-1.061-.062.033.033 0 0 0-.02.05l.087.152a.044.044 0 0 0 .048.021q.085-.018.235-.025a.7.7 0 0 1 .415.108 1.79 1.79 0 0 0-1.339.788.2.2 0 0 1-.02-.04c-.015-.034-.041-.05-.054-.08-.022-.052.029-.156.058-.2q.161-.24.412-.41a.02.02 0 0 0 .008-.027.7.7 0 0 0-.18-.248 1.4 1.4 0 0 0-.693-.434c-.512-.143-1.04-.067-1.457.256a9 9 0 0 0-.268.221q-.07.06-.14.04a.8.8 0 0 0-.52.017c-.307.12-.544.371-.593.71-.004.03-.002.07-.006.104a.03.03 0 0 1-.02.022 1.3 1.3 0 0 0-.347.153q-.462.261-.403.8.015.124.079.259l-.052.216c-.064-.083-.137-.169-.18-.255a1 1 0 0 1-.035-.814c.08-.214.284-.44.534-.39a.17.17 0 0 1 .119.08.03.03 0 0 0 .025.012.03.03 0 0 0 .02-.019 1 1 0 0 0 .026-.138c.074-.558.534-1.062 1.136-1.077a.2.2 0 0 0 .11-.034l.284-.182.005-.008v-.005a2.5 2.5 0 0 0-1.269-.735 2.64 2.64 0 0 0-1.47.116.13.13 0 0 1-.08.003A2.26 2.26 0 0 0 9.123.71a2 2 0 0 0-.24.165q-.236.206-.474.41zm.965 2.196a1.2 1.2 0 0 0-.388.183.5.5 0 0 0-.112.11l-.01.025c-.061.389-.04.825.21 1.152.455.6 1.252.715 1.936.475.121-.042.246-.124.356-.174l.005-.004.001-.007a.01.01 0 0 0-.008-.01 1.76 1.76 0 0 1-.896-.665 1.5 1.5 0 0 1-.25-.516q-.141-.66.164-1.317.125-.25.302-.47a.3.3 0 0 0 .033-.051v-.006a.01.01 0 0 0-.006-.01 1.4 1.4 0 0 0-.517.167c-.42.238-.757.638-.82 1.118m-4.8 2.044q.133-.18.285-.31a.13.13 0 0 0 .045-.087l.03-.347q.125-.683.613-1.152a1.5 1.5 0 0 1 .302-.211.03.03 0 0 0 .016-.03 1.8 1.8 0 0 1 .121-.713.02.02 0 0 0-.003-.016.02.02 0 0 0-.016-.003l-.076.037a2.6 2.6 0 0 0-.825.75 3.3 3.3 0 0 0-.53 1.224 3 3 0 0 0-.036.947.005.005 0 0 0 .009 0zm13.143-.942a1 1 0 0 1-.438.11c-.306.01-.548-.09-.7-.357a.02.02 0 0 0-.027-.005l-.085.071c-.322.25-.288.603-.04.893q.252.297.634.384c.448.101.9.014 1.242-.295q.35-.314.41-.782.016-.107.028-.26a.08.08 0 0 1 .063-.069.3.3 0 0 1 .11.012c.435.119.668.58.77.984q.005.024-.01.025-.182.008-.386.035a.02.02 0 0 0-.013.013l.001.01.007.006c.143.076.274.283.258.445q-.024.244-.053.5c-.015.139-.01.249-.009.422q0 .015.006.03c.04.114.082.196.217.19q.014 0 .027-.007c.166-.069.242-.24.286-.403q.12-.423-.035-.816a2 2 0 0 0-.112-.21 2 2 0 0 1-.108-.211 1.8 1.8 0 0 0-.02-.744c-.16-.667-.796-1.429-1.555-1.175a.81.81 0 0 0-.56.84c.013.111.06.243.092.364m-2.6.49a2.1 2.1 0 0 1-.429.433 2 2 0 0 1-.97.394c-.157.02-.335.01-.48.014a.6.6 0 0 0-.315.11c-.162.104-.35.23-.53.316q-.52.25-1.09.25a9 9 0 0 1-.405-.007.3.3 0 0 0-.252.105 39 39 0 0 1-.397.443l-.322.215-.319.16q-.335.17-.53.466c-.119.18-.17.362-.26.626a1.5 1.5 0 0 1-.374.58l-.337.198a.02.02 0 0 0-.007.02q.019.05.058.136.165.36.077.756a1 1 0 0 1-.217.414.85.85 0 0 1-.428.221c-.456.069-.788-.255-.978-.629l-.002-.002h-.003l-.002.002-.001.003.067.316c.028.131.095.297.17.435q.081.144.15.283-.02.181-.15.238c-.1.043-.238-.005-.338-.048a15 15 0 0 1-.44-.2.37.37 0 0 1-.205-.209c-.058-.165-.107-.359-.173-.494a1.05 1.05 0 0 0-.588-.533.4.4 0 0 0-.121-.024q-.013-.02-.004-.012l-.03-.485c-.024-.32.024-.64.37-.756.48-.057.528.515.79.722a.013.013 0 0 0 .015 0 .01.01 0 0 0 .006-.012c-.044-.306-.09-.588-.296-.818a.52.52 0 0 0-.465-.176c-.416.047-.58.386-.622.762a2.7 2.7 0 0 0-.009.535c.023.356.12.796.163 1.006q.07.35.188.665c.07.19.212.426.299.554q.196.291.51.504.548.369 1.186.153.087.646.266 1.29.039.139.093.253.279.777.876 1.384.383.389.78.664.01.019.077.05a.6.6 0 0 0 .106.094 9.3 9.3 0 0 0 1.56.852l.239.103q.296.13.485.191l.502.158q.585.17 1.2.175c.312.004.598-.049.869-.184.207-.105.424-.32.505-.553.162-.468-.062-.95-.47-1.214a1.54 1.54 0 0 0-.665-.287 2 2 0 0 0-.492-.029q.105-.165.135-.204c.133-.175.385-.209.584-.177q.25.042.426.077c.223.045.397-.064.352-.313a.36.36 0 0 0-.179-.272 2 2 0 0 0-.65-.223 1 1 0 0 0-.268-.02q-.33.043-.524.063a.52.52 0 0 0-.287.152.4.4 0 0 1-.145-.06.2.2 0 0 1-.063-.107q.074-.258.336-.275a.1.1 0 0 1 .07.026c.162.152.362.091.557.024a1 1 0 0 1 .715.01c.087.034.298.125.42.112q.213-.024.215-.251a.06.06 0 0 0-.03-.054l-.144-.1a.1.1 0 0 1-.033-.036 4 4 0 0 1-.135-.218c-.085-.147-.238-.192-.397-.23a.5.5 0 0 1-.246-.154q.15-.295.515-.349a.6.6 0 0 1 .32.037q.403.165.575.227c.312.11.649.115.818-.213a.6.6 0 0 0 .086-.284q.03-.762.092-2.517l.039-1.008c.01-.273.084-.515.323-.668.19-.11.433-.097.645-.112.428-.03.485-.436.408-.77-.064-.356-.321-.667-.634-.838a2.4 2.4 0 0 0-.531-.207 3 3 0 0 1-.357-.148 2 2 0 0 1-.355-.263v-.004l.004-.002h.004l.202.091q.206.084.428.06c.309-.032.485-.33.288-.6-.13-.18-.364-.324-.53-.439a2 2 0 0 1-.405-.376 1.6 1.6 0 0 1-.288-.516h-.005l-.001.002a1.5 1.5 0 0 1-.241.55m3.914.445c-.011.02-.018.064-.031.082-.183.239-.33.338-.595.532a.8.8 0 0 0-.257.319.01.01 0 0 0 .009.01q.157.012.322-.018c.501-.093.61-.479.567-.921l-.002-.005a.01.01 0 0 0-.009-.002zM3.266 7.891q-.072.443.018.893c.09.507.311 1.007.687 1.366q.072.07.175.13.021.021.042.011.16-.076.35-.223a.03.03 0 0 0 .012-.025v-.09a.07.07 0 0 0-.066-.07.83.83 0 0 1-.453-.177 1.05 1.05 0 0 1-.356-.521l-.07-.203.017-.145a.007.007 0 0 1 .015 0c.036.23.177.527.395.634a.29.29 0 0 0 .309-.025.8.8 0 0 0 .173-.35.08.08 0 0 0-.032-.081c-.355-.24-.385-.6-.078-.88.358-.325.868-.352 1.273-.125q.051.028.157.104.075.054.155.107.112.111.285.25c.2.163.408.24.67.25a1.2 1.2 0 0 0 1.01-.432c.127-.147.187-.294.292-.512a.92.92 0 0 1 .611-.511.01.01 0 0 0-.004-.01l-.318-.069a2 2 0 0 0-.358-.045 1 1 0 0 0-.534.081c-.196.09-.357.28-.555.334q-.4.11-.611-.233a.34.34 0 0 1-.034-.158l.009-.007c.213.276.51.121.558-.178a.66.66 0 0 0-.106-.473q-.32-.474-.916-.441c-.397.022-.773.248-1.022.548-.192.232-.402.547-.709.458-.226-.066-.235-.278-.19-.477a.01.01 0 0 0-.015-.01q-.135.084-.224.176a2.1 2.1 0 0 0-.562 1.129m3.221 1.627a1 1 0 0 0 .174.337q.082.102.181.193.12.236.293.321c.26.13.554.024.658-.251q.117-.356-.092-.62a.63.63 0 0 0-.435-.239 3 3 0 0 0-.527.017l-.35-.21a.01.01 0 0 0-.011 0 .01.01 0 0 0-.005.011q.024.24.114.44zM4.23 10.86a1 1 0 0 0-.08.132 1.05 1.05 0 0 0-.102.495c.01.26.196.672.528.6a.34.34 0 0 0 .249-.202.3.3 0 0 0 .042-.15 1.4 1.4 0 0 0-.093-.4 2.8 2.8 0 0 1-.16-.754.04.04 0 0 0-.008-.019l-.01-.006-.012.002a1.7 1.7 0 0 0-.354.302m.109 2.45a2 2 0 0 0 .337.464q.002.002.005.001a.01.01 0 0 0 .01-.004l.08-.096a1.2 1.2 0 0 1 .622-.114q.045.005.091.004l.15.082q.126.085.257.176a2 2 0 0 1 .272.259h.003l.002-.002v-.003a2 2 0 0 0-.133-.625 1.12 1.12 0 0 0-.635-.61l-.275-.285a.48.48 0 0 0-.413-.152.75.75 0 0 1-.516-.07.01.01 0 0 0-.008.004 1.8 1.8 0 0 0 .151.971m2.137 1.902q.009.037.006.037.034.46.106.887.068.665.14 1.1l.419 2.536c.092.552.126.872.185 1.457q.033.321.218.578.305.424.705.744.688.55 1.534.838.666.251 1.385.339.714.081 1.461-.004.593-.057 1.196-.245.179-.056.554-.2a1 1 0 0 0 .114-.06.6.6 0 0 0 .128-.046q.467-.225.905-.473a2.4 2.4 0 0 0 .276-.185v-.007l-.005-.005-.007-.002c-.716.065-1.372-.067-2.035-.383-.574-.273-1.088-.718-1.552-1.21a26 26 0 0 1-1.289-1.46l-2.286-2.761a10 10 0 0 1-.753-1.023 4.6 4.6 0 0 1-.577-1.342l-.147-.61a.02.02 0 0 0-.019-.014c-.45.038-.68.566-.688.958a3 3 0 0 0 .026.556m-1.47-1.214a.51.51 0 0 0-.027.551.64.64 0 0 0 .231.251.1.1 0 0 0 .088.011c.302-.095.58-.148.887-.034h.004l.004-.002.001-.008a2 2 0 0 0-.302-.475 1.2 1.2 0 0 0-.432-.357.5.5 0 0 0-.21-.065.28.28 0 0 0-.244.128m.96 2.255a.8.8 0 0 0 .244.08l.14.016a.03.03 0 0 0 .031-.018 2.3 2.3 0 0 0-.07-.799l-.007-.01a.02.02 0 0 0-.012-.004 3 3 0 0 0-.533.074q-.013-.015-.043-.018a1 1 0 0 1-.384-.434.012.012 0 0 0-.017.009c-.069.454.279.892.652 1.104z"/><path d="M7.126 3.698a2.1 2.1 0 0 0-.016 1.07l-.091-.023c-.31-.215-.696-.139-.966.09a.02.02 0 0 1-.018.005 1 1 0 0 0-.294-.023q.226-.346.604-.457.125-.037.31-.058a.02.02 0 0 0 .018-.015q.136-.36.453-.59zm7.061 4.312c.415.181.695.507.724.97a.04.04 0 0 1-.009.025l-.018.021c-.241.232-.463.462-.735.66-.23.165-.56.315-.849.297a.34.34 0 0 1-.24-.112 1 1 0 0 1-.038-.37.043.043 0 0 0-.038-.047.5.5 0 0 1-.148-.045q.09-.2.102-.352c.029-.327-.238-.5-.53-.538a1.5 1.5 0 0 0-.7.074q-.15.046-.279.126a.8.8 0 0 0-.164.14l-.144.164a.02.02 0 0 0-.004.012q0 .008.005.013.023.024.021.046l-.178.074-.172-.031a7 7 0 0 0-.755-.142 4 4 0 0 1-.465-.116q.323.016.565-.033a2.7 2.7 0 0 0 .502-.156c.564-.236.991-.43 1.538-.496a.04.04 0 0 0 .035-.032c.047-.211.19-.285.397-.327a2 2 0 0 1 .526-.02c.378.028.715.066 1.05.196z"/></svg>