<svg xmlns="http://www.w3.org/2000/svg" fill="none" viewBox="0 0 512 512"><path fill="currentColor" d="M512 169.521c0 18.854-5.022 37.43-14.523 53.719l-17.072 29.267c-24.818 42.546-32.603 92.457-21.918 140.538l.473 2.125c6.352 28.58-.512 58.065-18.829 80.9S394.518 512 365.244 512h-.394c-21.056 0-41.843-7.07-58.533-19.908l-50.145-38.573c-33.261-25.585-77.006-33.315-117.021-20.679l-1.3.411c-32.549 10.277-67.005 4.602-94.535-15.575C15.789 397.5 0 366.354 0 332.223c0-33.17 15.845-64.857 42.385-84.762l1.087-.815a76.87 76.87 0 0 0 29.984-72.389l-9.24-64.679a95.95 95.95 0 0 1 22.512-76.477A95.95 95.95 0 0 1 159.253 0c19.619 0 38.515 5.903 54.645 17.07l62.868 43.523.116.081c25.755 17.794 58.605 21.653 87.835 10.286l2.04-.794a106.55 106.55 0 0 1 98.829 11.368A106.55 106.55 0 0 1 512 169.521"/><path fill="currentColor" d="M316.289 152.988A75.6 75.6 0 0 0 256 182.821a75.6 75.6 0 0 0-60.289-29.833c-41.554 0-75.36 33.4-75.36 74.454s33.806 74.454 75.36 74.454A75.6 75.6 0 0 0 256 272.063a75.6 75.6 0 0 0 60.289 29.833c41.554 0 75.36-33.4 75.36-74.454s-33.806-74.454-75.36-74.454m-120.578 89.345c-8.323 0-15.072-6.667-15.072-14.891s6.749-14.891 15.072-14.891 15.073 6.667 15.073 14.891-6.749 14.891-15.073 14.891m120.578 0c-8.324 0-15.073-6.667-15.073-14.891s6.749-14.891 15.073-14.891c8.323 0 15.072 6.667 15.072 14.891s-6.749 14.891-15.072 14.891"/><path stroke="currentColor" stroke-linecap="round" stroke-width="12" d="M257.02 359.693c28.744 13.917 49.759 9.244 95.872-21.079"/></svg>