<svg viewBox="0 0 24 24" xmlns="http://www.w3.org/2000/svg"><path d="m2.363 7.904v.849a3.95 3.95 0 0 1 3.65 2.425c.198.476.3.987.299 1.502h.791c0-1.04.416-2.037 1.157-2.772a3.962 3.962 0 0 1 2.792-1.149v-.849a3.959 3.959 0 0 1 -3.65-2.425 3.893 3.893 0 0 1 -.299-1.502h-.791c0 1.04-.416 2.037-1.157 2.772a3.96 3.96 0 0 1 -2.792 1.149m10.742-5.394h-6.793v-2.51h6.793c4.772 0 8.532 3.735 8.532 8.314 0 4.58-3.76 8.314-8.532 8.314h-3.949v7.372h-2.844v-9.882h6.793c3.319 0 5.688-2.352 5.688-5.804 0-3.451-2.37-5.804-5.688-5.804"/></svg>