<svg xmlns="http://www.w3.org/2000/svg" width="18" height="18" viewBox="0 0 18 18"><path fill="currentColor" d="M13.5 4.62c-2.21 0-4-.57-4-1.28v6.79c0 .69 1.76 1.26 3.95 1.27h.05c2.21 0 4-.57 4-1.27V3.34c0 .71-1.79 1.28-4 1.28"/><path fill="currentColor" d="M17.5 3.34c0 .71-1.79 1.28-4 1.28s-4-.57-4-1.28 1.79-1.27 4-1.27 4 .57 4 1.27"/><path fill="currentColor" d="M16.57 3.24c0 .45-1.38.81-3.07.81s-3.07-.36-3.07-.81 1.38-.81 3.07-.81 3.07.36 3.07.81"/><path fill="currentColor" d="M13.5 3.43a8.7 8.7 0 0 0-2.43.3 7.8 7.8 0 0 0 2.43.32 7.8 7.8 0 0 0 2.43-.32 8.7 8.7 0 0 0-2.43-.3"/><path fill="currentColor" d="M4.5 4.62c-2.21 0-4-.57-4-1.28v6.79c0 .69 1.76 1.26 4 1.27 2.21 0 4-.57 4-1.27V3.34c0 .71-1.79 1.28-4 1.28"/><path fill="currentColor" d="M8.5 3.34c0 .71-1.79 1.28-4 1.28s-4-.57-4-1.28 1.79-1.27 4-1.27 4 .57 4 1.27"/><path fill="currentColor" d="M7.57 3.24c0 .45-1.38.81-3.07.81s-3.07-.36-3.07-.81 1.38-.81 3.07-.81 3.07.36 3.07.81"/><path fill="currentColor" d="M4.5 3.43a8.7 8.7 0 0 0-2.43.3 7.8 7.8 0 0 0 2.43.32 7.8 7.8 0 0 0 2.43-.32 8.7 8.7 0 0 0-2.43-.3"/><path fill="currentColor" d="M9 9.15c-2.21 0-4-.57-4-1.28v6.79c0 .7 1.76 1.26 3.95 1.27H9c2.21 0 4-.57 4-1.27V7.87c0 .71-1.79 1.28-4 1.28"/><path fill="currentColor" d="M12.07 7.77c0 .45-1.38.81-3.07.81s-3.07-.36-3.07-.81S7.31 7 9 7s3.07.36 3.07.81"/><path fill="currentColor" d="M9 8a8.7 8.7 0 0 0-2.43.3A7.8 7.8 0 0 0 9 8.58a7.8 7.8 0 0 0 2.43-.32A8.7 8.7 0 0 0 9 8"/></svg>