<svg height="18" viewBox="0 0 18 18" width="18" xmlns="http://www.w3.org/2000/svg" xmlns:xlink="http://www.w3.org/1999/xlink"><linearGradient id="a"><stop offset="0" stop-color="#005ba1"/><stop offset=".07" stop-color="#0060a9"/><stop offset=".36" stop-color="#0071c8"/><stop offset=".52" stop-color="#0078d4"/><stop offset="1" stop-color="#005ba1"/></linearGradient><linearGradient id="b" gradientUnits="userSpaceOnUse" x1="9.5" x2="17.5" xlink:href="#a" y1="7.37" y2="7.37"/><linearGradient id="c" gradientUnits="userSpaceOnUse" x1=".5" x2="8.5" xlink:href="#a" y1="7.37" y2="7.37"/><linearGradient id="d" gradientUnits="userSpaceOnUse" x1="5" x2="13" xlink:href="#a" y1="11.9" y2="11.9"/><path d="m13.5 4.62c-2.21 0-4-.57-4-1.28v6.79c0 .69 1.76 1.26 3.95 1.27h.05c2.21 0 4-.57 4-1.27v-6.79c0 .71-1.79 1.28-4 1.28" fill="url(#b)"/><path d="m17.5 3.34c0 .71-1.79 1.28-4 1.28s-4-.57-4-1.28 1.79-1.27 4-1.27 4 .57 4 1.27" fill="#e8e8e8"/><path d="m16.57 3.24c0 .45-1.38.81-3.07.81s-3.07-.36-3.07-.81 1.38-.81 3.07-.81 3.07.36 3.07.81" fill="#50e6ff"/><path d="m13.5 3.43a8.7 8.7 0 0 0 -2.43.3 7.8 7.8 0 0 0 2.43.32 7.8 7.8 0 0 0 2.43-.32 8.7 8.7 0 0 0 -2.43-.3" fill="#32bedd"/><path d="m4.5 4.62c-2.21 0-4-.57-4-1.28v6.79c0 .69 1.76 1.26 4 1.27 2.21 0 4-.57 4-1.27v-6.79c0 .71-1.79 1.28-4 1.28" fill="url(#c)"/><path d="m8.5 3.34c0 .71-1.79 1.28-4 1.28s-4-.57-4-1.28 1.79-1.27 4-1.27 4 .57 4 1.27" fill="#e8e8e8"/><path d="m7.57 3.24c0 .45-1.38.81-3.07.81s-3.07-.36-3.07-.81 1.38-.81 3.07-.81 3.07.36 3.07.81" fill="#50e6ff"/><path d="m4.5 3.43a8.7 8.7 0 0 0 -2.43.3 7.8 7.8 0 0 0 2.43.32 7.8 7.8 0 0 0 2.43-.32 8.7 8.7 0 0 0 -2.43-.3" fill="#32bedd"/><path d="m9 9.15c-2.21 0-4-.57-4-1.28v6.79c0 .7 1.76 1.26 3.95 1.27h.05c2.21 0 4-.57 4-1.27v-6.79c0 .71-1.79 1.28-4 1.28" fill="url(#d)"/><path d="m13 7.87c0 .71-1.79 1.28-4 1.28s-4-.57-4-1.28 1.79-1.27 4-1.27 4 .57 4 1.27" fill="#e8e8e8"/><path d="m12.07 7.77c0 .45-1.38.81-3.07.81s-3.07-.36-3.07-.81 1.38-.77 3.07-.77 3.07.36 3.07.81" fill="#50e6ff"/><path d="m9 8a8.7 8.7 0 0 0 -2.43.3 7.8 7.8 0 0 0 2.43.28 7.8 7.8 0 0 0 2.43-.32 8.7 8.7 0 0 0 -2.43-.26" fill="#32bedd"/></svg>