<svg xmlns="http://www.w3.org/2000/svg" width="18" height="18" viewBox="0 0 18 18">
  <defs>
    <mask id="wko">
      <rect width="18" height="18" fill="white"/>
      <path fill="black" d="M4.68 2.07H1.93a.66.66 0 0 0-.66.66v2.76a.33.33 0 0 0 .33.33h.22a.33.33 0 0 0 .33-.33V2.94h2.53A.33.33 0 0 0 5 2.61V2.4a.33.33 0 0 0-.32-.33m0 8.66H2.14V8.2a.33.33 0 0 0-.33-.33H1.6a.33.33 0 0 0-.33.33V11a.66.66 0 0 0 .66.67h2.75a.34.34 0 0 0 .32-.39v-.22a.33.33 0 0 0-.32-.33M15.71 2.1H13a.33.33 0 0 0-.33.33v.21A.33.33 0 0 0 13 3h2.53v2.51a.33.33 0 0 0 .33.33h.23a.33.33 0 0 0 .33-.33V2.76a.66.66 0 0 0-.71-.66m.34 5.79h-.21a.33.33 0 0 0-.33.33v2.54H13a.33.33 0 0 0-.33.33v.22a.33.33 0 0 0 .33.33h2.75a.67.67 0 0 0 .67-.66V8.22a.33.33 0 0 0-.37-.33"/>
    </mask>
  </defs>
  <g fill="currentColor" mask="url(#wko)">
    <rect width="18" height="12" x="-.2" y=".87" fill="currentColor" rx=".6"/>
    <path fill="currentColor" d="M11.8 5.12v3.49l-3 1.76v-3.5z"/>
    <path fill="currentColor" d="M11.8 5.12 8.81 6.88 5.8 5.12l3.01-1.75z"/>
    <path fill="currentColor" d="M8.8 6.88v3.49l-3-1.76V5.12z"/>
    <path fill="currentColor" d="m5.8 8.61 3-1.74v3.5z"/>
    <path fill="currentColor" d="m11.8 8.61-3-1.74v3.5z"/>
    <path fill="currentColor" d="M12.41 16.5c-1.78-.28-1.85-1.56-1.84-3.63H7c0 2.07 0 3.35-1.81 3.63a1 1 0 0 0-.88 1h9a1.06 1.06 0 0 0-.9-1"/>
  </g>
</svg>