<svg height="18" viewBox="0 0 18 18" width="18" xmlns="http://www.w3.org/2000/svg" xmlns:xlink="http://www.w3.org/1999/xlink"><linearGradient id="a" gradientTransform="matrix(1 0 0 -1 -145 -351)" gradientUnits="userSpaceOnUse" x1="149.824" x2="159.281" y1="-352.541" y2="-364.466"><stop offset="0" stop-color="#59b8ff"/><stop offset="1" stop-color="#508dfa"/></linearGradient><linearGradient id="b" gradientTransform="matrix(1 0 0 -1 -145 -351)" gradientUnits="userSpaceOnUse" x1="161.576" x2="148.34" y1="-367.038" y2="-351.351"><stop offset="0" stop-color="#648efa"/><stop offset="1" stop-color="#79cfff"/></linearGradient><path d="m15.926 8.436c0 4.572-5.5 8.253-6.7 9a.43.43 0 0 1 -.456 0c-1.2-.746-6.7-4.427-6.7-9v-5.5a.435.435 0 0 1 .43-.436c4.28-.114 3.294-2 6.5-2s2.221 1.889 6.5 2a.435.435 0 0 1 .425.436z" fill="url(#a)"/><path d="m15.352 8.487c0 4.192-5.046 7.568-6.143 8.253a.39.39 0 0 1 -.418 0c-1.1-.685-6.143-4.063-6.143-8.253v-5.045a.4.4 0 0 1 .39-.4c3.925-.106 3.021-1.836 5.962-1.836s2.037 1.73 5.962 1.836a.4.4 0 0 1 .276.121.4.4 0 0 1 .114.279z" fill="url(#b)"/><path d="m8.119 6.48v-1.761a.38.38 0 0 0 -.378-.378h-2.015a.38.38 0 0 0 -.378.378v1.908a.38.38 0 0 0 .378.378h1.867a.274.274 0 0 1 .274.273v2.549a.2.2 0 0 1 -.072.16.32.32 0 0 1 -.2.063h-1.869a.38.38 0 0 0 -.378.378v2.035a.38.38 0 0 0 .378.378h2.015a.38.38 0 0 0 .378-.378v-1.887a.273.273 0 0 1 .274-.273h2.707a.38.38 0 0 0 .378-.378v-2.647a.273.273 0 0 1 .274-.273h1.027a.38.38 0 0 0 .378-.378v-1.1a.38.38 0 0 0 -.378-.378h-1.179a.377.377 0 0 0 -.377.378v.953a.274.274 0 0 1 -.274.273h-2.556a.274.274 0 0 1 -.274-.273" fill="#fff"/><path d="m7.741 12.967h-2.015a.5.5 0 0 1 -.5-.5v-2.04a.5.5 0 0 1 .5-.5h1.867a.2.2 0 0 0 .123-.035.07.07 0 0 0 .025-.062v-2.552a.147.147 0 0 0 -.148-.147h-1.867a.5.5 0 0 1 -.5-.5v-1.913a.5.5 0 0 1 .5-.5h2.016a.5.5 0 0 1 .5.5v1.762a.147.147 0 0 0 .147.147h2.561a.15.15 0 0 0 .15-.147v-.958a.5.5 0 0 1 .5-.5h1.175a.5.5 0 0 1 .5.5v1.1a.505.505 0 0 1 -.5.5h-1.024a.147.147 0 0 0 -.148.147v2.656a.5.5 0 0 1 -.5.5h-2.711a.147.147 0 0 0 -.147.147v1.887a.5.5 0 0 1 -.504.508m-2.015-2.791a.25.25 0 0 0 -.252.251v2.036a.25.25 0 0 0 .252.252h2.015a.25.25 0 0 0 .252-.252v-1.887a.4.4 0 0 1 .4-.4h2.707a.25.25 0 0 0 .251-.252v-2.646a.4.4 0 0 1 .4-.4h1.027a.25.25 0 0 0 .251-.252v-1.1a.25.25 0 0 0 -.251-.251h-1.178a.25.25 0 0 0 -.252.251v.954a.4.4 0 0 1 -.4.4h-2.556a.4.4 0 0 1 -.4-.4v-1.761a.24.24 0 0 0 -.073-.178.25.25 0 0 0 -.178-.074h-2.015a.25.25 0 0 0 -.252.251v1.909a.25.25 0 0 0 .252.252h1.867a.4.4 0 0 1 .4.4v2.548a.33.33 0 0 1 -.116.256.45.45 0 0 1 -.284.093z" fill="#5191fb"/></svg>