<svg xmlns="http://www.w3.org/2000/svg" width="64" height="64" viewBox="0 0 64 64"><title>Icon-Architecture/48/Arch_Amazon-Managed-Grafana_48</title><g id="Icon-Architecture/48/Arch_Amazon-Managed-Grafana_48" fill="none" fill-rule="evenodd" stroke="none" stroke-width="1"><g id="Icon-Architecture-BG/48/Management-Governance" fill="#e7157b"><path id="Rectangle" d="M0 0h64v64H0z"/></g><g id="Icon-Service/48/Amazon-Managed-Grafana_48" fill="#fff" transform="translate(10 10)"><path id="Fill-4" d="M10 31h2v-8h-2zm18 0h2v-8h-2zm-6 0h2V12h-2zm-6 0h2V19h-2zm26 5.187L14.432 41.89 2.125 24.85l8.538-22.77 16.399 1.823.94 13.169a1.003 1.003 0 0 0 1.14.919L42 16.154zm1.656-21.941a1 1 0 0 0-.797-.235L29.92 15.859l-.924-12.93a1 1 0 0 0-.886-.922l-18-2A1 1 0 0 0 9.064.65l-9 24a1 1 0 0 0 .126.936l13 18a1 1 0 0 0 1.012.394l29-6A1 1 0 0 0 44 37V15c0-.29-.126-.564-.344-.754"/></g></g></svg>