<svg height="64" viewBox="0 0 64 64" width="64" xmlns="http://www.w3.org/2000/svg"><g fill="none" fill-rule="evenodd"><path d="m0 0h64v64h-64z" fill="#e7157b"/><path d="m10 31h2v-8h-2zm18 0h2v-8h-2zm-6 0h2v-19h-2zm-6 0h2v-12h-2zm26 5.187-27.568 5.703-12.307-17.04 8.538-22.77 16.399 1.823.94 13.169a1.003 1.003 0 0 0 1.14.919l12.858-1.837zm1.656-21.941a1 1 0 0 0 -.797-.235l-12.939 1.848-.924-12.93a1 1 0 0 0 -.886-.922l-18-2a1 1 0 0 0 -1.046.643l-9 24a1 1 0 0 0 .126.936l13 18a1 1 0 0 0 1.012.394l29-6a1 1 0 0 0 .798-.98v-22c0-.29-.126-.564-.344-.754" fill="#fff" transform="translate(10 10)"/></g></svg>