<svg xmlns="http://www.w3.org/2000/svg" width="479.591" height="522.94" viewBox="0 0 479.591 522.94">
  <defs>
    <mask id="wko">
      <rect width="479.591" height="522.94" fill="white"/>
      <path fill="black" d="m167.399 251.086-45.21 153.949L241.934 307.9l128.299 97.135-53.152-153.949 101.417-84.916H288.366L241.934 26.883 194.28 166.17H55.596z"/>
    </mask>
  </defs>
  <g fill="currentColor" mask="url(#wko)">
    <path fill="currentColor" d="M108.137 420.307c-8.794 0-17.592-1.755-25.718-5.115s-15.582-8.347-21.802-14.567a67.3 67.3 0 0 1-14.568-21.801 67.5 67.5 0 0 1-5.116-25.716V75.756a67.5 67.5 0 0 1 5.116-25.717c3.361-8.126 8.347-15.581 14.568-21.801s13.676-11.207 21.802-14.567a67.6 67.6 0 0 1 25.718-5.115H362.29a67.6 67.6 0 0 1 25.718 5.115c8.127 3.36 15.582 8.347 21.803 14.567s11.207 13.675 14.567 21.801a67.6 67.6 0 0 1 5.116 25.717v277.352c0 8.793-1.756 17.59-5.116 25.716s-8.347 15.581-14.567 21.801a67.3 67.3 0 0 1-21.803 14.567 67.6 67.6 0 0 1-25.718 5.115z"/>
  </g>
</svg>