<svg height="522.94" viewBox="0 0 479.591 522.94" width="479.591" xmlns="http://www.w3.org/2000/svg"><path d="m425.028 19.064c-.266-.805-.228-2.223-.32-3.348-.022-.389.012-.783-.146-1.223s-.432-.925-.717-1.242-.581-.466-.897-.503c.599-.206 1.122-.616 1.501-1.224.379-.607.611-1.412.6-2.275-.013-.864-.271-1.786-.731-2.468-.99-1.456-2.737-1.704-4.265-1.63h-6.438v14.848h2.498v-6.099h3.732c.409.002 1.088-.055 1.769.475.899 1.064.502 2.462.659 3.651.014.708.083 1.378.379 1.973h2.803c.109-.581-.286-.484-.427-.935m-3.284-7.765c-.31.219-.722.349-1.095.424-1.368.131-3.038.042-4.558.062v-4.52h3.587c.944.014 2.037-.025 2.671 1.23.324.981.337 2.037-.605 2.804"/><path d="m430.266 6.263a12.6 12.6 0 0 0 -4.586-4.584 12.6 12.6 0 0 0 -6.264-1.679 12.6 12.6 0 0 0 -6.265 1.678 12.6 12.6 0 0 0 -4.587 4.584 12.6 12.6 0 0 0 -1.679 6.263c0 2.186.586 4.371 1.679 6.263a12.6 12.6 0 0 0 4.587 4.585 12.6 12.6 0 0 0 6.265 1.678c2.186 0 4.371-.585 6.265-1.678s3.493-2.692 4.586-4.585 1.679-4.078 1.679-6.263a12.6 12.6 0 0 0 -1.68-6.262m-1.503 11.711a10.7 10.7 0 0 1 -3.898 3.89 10.73 10.73 0 0 1 -5.324 1.424c-1.858 0-3.716-.497-5.325-1.424a10.7 10.7 0 0 1 -3.898-3.89c-.929-1.606-1.427-3.46-1.427-5.315s.498-3.708 1.427-5.314a10.7 10.7 0 0 1 3.898-3.89 10.73 10.73 0 0 1 5.325-1.424c1.857 0 3.715.497 5.324 1.424a10.7 10.7 0 0 1 3.898 3.89c.929 1.606 1.427 3.46 1.427 5.314s-.498 3.709-1.427 5.315"/><path d="m108.137 420.307c-8.794 0-17.592-1.755-25.718-5.115s-15.582-8.347-21.802-14.567a67.3 67.3 0 0 1 -14.568-21.801 67.5 67.5 0 0 1 -5.116-25.716v-277.352a67.5 67.5 0 0 1 5.116-25.717c3.361-8.126 8.347-15.581 14.568-21.801s13.676-11.207 21.802-14.567a67.55 67.55 0 0 1 25.718-5.115h254.153a67.6 67.6 0 0 1 25.718 5.115c8.127 3.36 15.582 8.347 21.803 14.567s11.207 13.675 14.567 21.801a67.55 67.55 0 0 1 5.116 25.717v277.352c0 8.793-1.756 17.59-5.116 25.716s-8.347 15.581-14.567 21.801a67.3 67.3 0 0 1 -21.803 14.567 67.6 67.6 0 0 1 -25.718 5.115z" fill="#243389"/><path d="m167.399 251.086-45.21 153.949 119.745-97.135 128.299 97.135-53.152-153.949 101.417-84.916h-130.132l-46.432-139.287-47.654 139.287h-138.684z" fill="#fff"/><path d="m52.541 471.624h-30.547c-.53.087-.988-.088-1.693 1.131a1.9 1.9 0 0 0 -.139.701v27.491c-.068.593.558 1.53 1.131 1.693.222.092.461.14.701.14h30.547v20.159h-34.213a18.315 18.315 0 0 1 -16.93-11.305 18.4 18.4 0 0 1 -1.398-7.022v-35.432c0-2.403.481-4.807 1.398-7.022s2.276-4.244 3.97-5.938a18.33 18.33 0 0 1 12.96-5.368h34.213zm24.438 51.315a18.325 18.325 0 0 1 -16.929-11.305 18.4 18.4 0 0 1 -1.399-7.022v-35.432c0-2.403.482-4.807 1.399-7.022s2.276-4.244 3.969-5.938a18.34 18.34 0 0 1 12.96-5.368h20.161a18.325 18.325 0 0 1 18.328 18.328v35.432c0 2.403-.481 4.807-1.398 7.022s-2.276 4.244-3.97 5.938a18.33 18.33 0 0 1 -12.96 5.367zm18.328-49.483c.068-.592-.558-1.529-1.131-1.692a1.8 1.8 0 0 0 -.701-.14h-12.83c-.592-.068-1.53.558-1.693 1.131-.091.222-.14.462-.14.701v26.88c-.068.593.558 1.53 1.132 1.693.222.092.461.14.701.14h12.83c.592.068 1.53-.558 1.693-1.131a1.8 1.8 0 0 0 .14-.702v-26.88zm63.539 49.484v-49.483c.068-.593-.558-1.53-1.131-1.693a1.8 1.8 0 0 0 -.702-.14h-12.219c-.53.087-.988-.088-1.693 1.131-.092.222-.14.462-.14.701v49.483h-20.161v-71.476h36.656c2.403 0 4.806.481 7.022 1.398a18.3 18.3 0 0 1 5.938 3.97c1.693 1.693 3.052 3.722 3.969 5.938s1.398 4.619 1.398 7.021v53.149zm61.094-.001h-20.161l-21.994-71.476h20.161l13.136 42.688 13.135-42.688h20.16l-21.994 71.476zm77.59-45.817v18.938h-30.547c-.53.087-.988-.087-1.693 1.132-.092.222-.14.462-.14.701v2.443c-.068.593.558 1.53 1.132 1.693.222.092.461.14.701.14h30.547v20.771h-34.213c-2.402 0-4.807-.481-7.022-1.398s-4.244-2.275-5.938-3.969-3.053-3.722-3.97-5.938a18.5 18.5 0 0 1 -1.398-7.022v-35.433c0-2.402.482-4.806 1.398-7.021a18.325 18.325 0 0 1 16.93-11.306h34.213v20.771h-30.547c-.53.087-.988-.088-1.693 1.131-.248 1.047-.248 2.093 0 3.235.441.915 1.063 1.102 1.693 1.132zm45.21 45.818h20.772l-12.219-28.103c2.642-2.024 5.282-4.05 6.708-6.697s1.845-5.91 1.845-9.186v-9.164c0-2.397-.479-4.797-1.395-7.014a18.34 18.34 0 0 0 -9.919-9.918 18.4 18.4 0 0 0 -7.015-1.396h-36.656v71.476h20.161v-32.988h2.443zm-17.717-45.818v-4.276h12.219c1.215 0 2.688-.111 3.452.682.765.792.765 2.121 0 2.913s-2.237.682-3.452.682h-12.219m95.308-26.271v20.771h-31.158c-.53.087-.989-.088-1.693 1.131-.245.842-.249 1.688 0 2.625.44.915 1.063 1.101 1.693 1.131h18.326c1.579 0 3.159.185 4.604.519s2.755.822 3.866 1.396 2.023 1.231 2.765 1.968c.741.737 1.311 1.553 1.8 2.594s.899 2.306 1.188 4.015.44 3.861.44 6.006v9.162c0 2.74-.089 5.488-.327 7.542-.238 2.055-.581 3.414-.985 4.541s-.868 2.022-1.47 2.838-1.34 1.552-2.243 2.244a16 16 0 0 1 -3.173 1.881c-2.487 1.125-5.441 1.728-8.298 1.725h-39.711v-20.771h34.213c.53-.087.988.088 1.693-1.131.248-1.047.248-2.093 0-3.235-.44-.915-1.063-1.102-1.693-1.132h-15.274c-2.753 0-5.516-.157-7.635-.478s-3.595-.775-4.783-1.305c-1.188-.528-2.09-1.132-2.844-1.874-.754-.741-1.36-1.622-1.893-2.777s-.988-2.587-1.31-4.616c-.321-2.03-.475-4.659-.475-7.278v-12.219c-.002-2.434.535-5.048 1.681-7.565.545-1.194 1.21-2.311 1.912-3.261s1.44-1.735 2.165-2.328a8.1 8.1 0 0 1 2.288-1.328c.853-.332 1.845-.595 3.487-.717s3.934-.103 5.277-.092 1.737.02 2.133.02h35.434m59.26 26.268v18.938h-30.547c-.53.087-.988-.087-1.693 1.132-.092.222-.14.462-.14.701v2.443c-.068.593.559 1.53 1.132 1.693.222.092.462.14.701.14h30.547v20.771h-34.213c-2.402 0-4.806-.481-7.022-1.398s-4.244-2.275-5.938-3.969a18.33 18.33 0 0 1 -5.368-12.96v-35.433a18.325 18.325 0 0 1 11.306-16.928 18.4 18.4 0 0 1 7.022-1.399h34.213v20.771h-30.547c-.53.087-.988-.088-1.693 1.131-.248 1.047-.248 2.093 0 3.235.441.915 1.063 1.102 1.693 1.132z"/></svg>