<svg xmlns="http://www.w3.org/2000/svg" width="18" height="18" viewBox="0 0 18 18">
  <defs>
    <mask id="ko">
      <rect width="18" height="18" fill="white"/>
      <path fill="black" d="M1 4.229h13.7v7.637a.46.46 0 0 1-.458.458H1.458A.46.46 0 0 1 1 11.866z"/>
      <path fill="black" d="M3.3 8.6H17v7.637a.46.46 0 0 1-.458.458H3.76a.46.46 0 0 1-.458-.458V8.6z"/>
      <path fill="black" d="M3.763 5.677H16.54a.46.46 0 0 1 .46.457V8.6H3.3V6.134a.46.46 0 0 1 .463-.457"/>
    </mask>
  </defs>
  <g>
    <path fill="currentColor" mask="url(#ko)" d="M1.46 1.31h12.777a.46.46 0 0 1 .458.458v2.461H1V1.768a.46.46 0 0 1 .46-.458"/>
  </g>
</svg>