<svg xmlns="http://www.w3.org/2000/svg" width="18" height="18" viewBox="0 0 18 18"><defs><mask id="a"><path fill="#fff" d="M0 0h18v18H0z"/><path d="M1 4.229h13.7v7.637a.46.46 0 0 1-.458.458H1.458A.46.46 0 0 1 1 11.866z"/><path d="M3.3 8.6H17v7.637a.46.46 0 0 1-.458.458H3.76a.46.46 0 0 1-.458-.458V8.6z"/><path d="M3.763 5.677H16.54a.46.46 0 0 1 .46.457V8.6H3.3V6.134a.46.46 0 0 1 .463-.457"/></mask></defs><path fill="currentColor" d="M1.46 1.31h12.777a.46.46 0 0 1 .458.458v2.461H1V1.768a.46.46 0 0 1 .46-.458" mask="url(#a)"/></svg>