<svg height="18" viewBox="0 0 18 18" width="18" xmlns="http://www.w3.org/2000/svg" xmlns:xlink="http://www.w3.org/1999/xlink"><linearGradient id="a" gradientUnits="userSpaceOnUse" x1="7.849" x2="7.849" y1="12.323" y2="4.229"><stop offset="0" stop-color="#0078d4"/><stop offset=".502" stop-color="#4093e6"/><stop offset=".775" stop-color="#5ea0ef"/></linearGradient><linearGradient id="b" gradientUnits="userSpaceOnUse" x1="10.151" x2="10.151" y1="16.69" y2="8.595"><stop offset="0" stop-color="#32bedd"/><stop offset=".175" stop-color="#32caea"/><stop offset=".41" stop-color="#32d2f2"/><stop offset=".775" stop-color="#32d4f5"/></linearGradient><path d="m1 4.229h13.7v7.637a.46.46 0 0 1 -.458.458h-12.784a.46.46 0 0 1 -.458-.458z" fill="url(#a)"/><path d="m1.46 1.31h12.777a.46.46 0 0 1 .458.458v2.461h-13.695v-2.461a.46.46 0 0 1 .46-.458" fill="#0078d4"/><path d="m3.3 8.6h13.7v7.637a.46.46 0 0 1 -.458.458h-12.782a.46.46 0 0 1 -.458-.458v-7.637z" fill="url(#b)"/><path d="m3.763 5.677h12.777a.46.46 0 0 1 .46.457v2.466h-13.7v-2.466a.46.46 0 0 1 .463-.457" fill="#198ab3"/></svg>