<svg height="24" width="24" xmlns="http://www.w3.org/2000/svg"><path d="m21.63 6.57h-12.37a.32.32 0 0 0 -.32.33v2.16a.32.32 0 0 0 .32.32h12.37a.32.32 0 0 0 .37-.32v-2.16a.32.32 0 0 0 -.31-.33zm-11.14 2.14a.7.7 0 0 1 -.7-.7.7.7 0 1 1 1.4 0 .7.7 0 0 1 -.7.7m11.14 1.9h-12.37a.32.32 0 0 0 -.32.32v2.15a.32.32 0 0 0 .32.32h12.37a.32.32 0 0 0 .32-.32v-2.15a.32.32 0 0 0 -.32-.32m-11.14 2.14a.7.7 0 1 1 .7-.7.7.7 0 0 1 -.7.7m11.19 1.87h-12.36a.32.32 0 0 0 -.32.32v2.16a.32.32 0 0 0 .32.33h12.36a.32.32 0 0 0 .32-.33v-2.16a.32.32 0 0 0 -.32-.32m-11.14 2.13a.71.71 0 0 1 -.7-.71.71.71 0 0 1 1.41 0 .71.71 0 0 1 -.71.71" fill="#4285f4"/><path d="m6.74 9.86h-2.13a.81.81 0 0 1 -.21-1.61h2.34a.81.81 0 1 1 .26 1.61z" fill="#669df6"/><path d="m6.74 12.81h-3.82a.82.82 0 0 1 -.21-1.62h4a.82.82 0 0 1 .29 1.62z" fill="#aecbfa"/><path d="m6.74 15.75h-2.13a.81.81 0 0 1 -.21-1.61h2.34a.81.81 0 0 1 .26 1.61z" fill="#669df6"/></svg>