<svg xmlns="http://www.w3.org/2000/svg" width="18" height="18" viewBox="0 0 18 18">
  <defs>
    <mask id="ko">
      <rect width="18" height="18" fill="white"/>
      <path fill="black" d="M18 16.686H0l3.332-3.149a.58.58 0 0 1 .4-.16H14.68a.58.58 0 0 1 .438.2z"/>
      <path fill="black" d="M17.43 8.618a3.78 3.78 0 0 0-3.29-3.64A4.77 4.77 0 0 0 9.22.408a4.91 4.91 0 0 0-4.68 3.19 4.525 4.525 0 0 0-4 4.35A4.6 4.6 0 0 0 2 11.175a4.6 4.6 0 0 0 3.321 1.233h8.309a3.84 3.84 0 0 0 3.8-3.79"/>
      <path fill="black" d="M6.36 6.868 9 4.278a.295.295 0 0 1 .332-.067.3.3 0 0 1 .098.067L12 6.868a.14.14 0 0 1 .045.07.13.13 0 0 1-.063.145.13.13 0 0 1-.082.015h-1.62a.15.15 0 0 0-.14.14l-.021 5.072a.11.11 0 0 1-.11.11h-1.74a.11.11 0 0 1-.11-.11l.021-5.072a.14.14 0 0 0-.037-.096.14.14 0 0 0-.093-.044h-1.6a.13.13 0 0 1-.128-.082.13.13 0 0 1-.005-.08.14.14 0 0 1 .043-.068"/>
    </mask>
  </defs>
  <g>
    <path fill="currentColor" mask="url(#ko)" d="M0 16.686h18v.41a.584.584 0 0 1-.586.586H.586A.586.586 0 0 1 0 17.096z"/>
  </g>
</svg>