<svg height="18" viewBox="0 0 18 18" width="18" xmlns="http://www.w3.org/2000/svg" xmlns:xlink="http://www.w3.org/1999/xlink"><linearGradient id="a" gradientUnits="userSpaceOnUse" x1="9" x2="9" y1="16.686" y2="13.377"><stop offset=".001" stop-color="#37c2b1"/><stop offset="1" stop-color="#3cd4c2"/></linearGradient><linearGradient id="b" gradientTransform="matrix(1 0 0 -1 0 791.516)" gradientUnits="userSpaceOnUse" x1="8.985" x2="8.985" y1="779.158" y2="791.108"><stop offset="0" stop-color="#0078d4"/><stop offset=".156" stop-color="#1380da"/><stop offset=".528" stop-color="#3c91e5"/><stop offset=".822" stop-color="#559cec"/><stop offset="1" stop-color="#5ea0ef"/></linearGradient><path d="m18 16.686h-18l3.332-3.149a.58.58 0 0 1 .4-.16h10.948a.58.58 0 0 1 .438.2z" fill="url(#a)"/><path d="m0 16.686h18v.41a.584.584 0 0 1 -.586.586h-16.828a.586.586 0 0 1 -.586-.586z" fill="#3cd4c2"/><path d="m17.43 8.618a3.78 3.78 0 0 0 -3.29-3.64 4.772 4.772 0 0 0 -4.92-4.57 4.91 4.91 0 0 0 -4.68 3.19 4.525 4.525 0 0 0 -4 4.35 4.6 4.6 0 0 0 1.46 3.227 4.6 4.6 0 0 0 3.321 1.233h8.309a3.84 3.84 0 0 0 3.8-3.79" fill="url(#b)"/><path d="m6.36 6.868 2.64-2.59a.295.295 0 0 1 .332-.067.3.3 0 0 1 .098.067l2.57 2.59a.14.14 0 0 1 .045.07.13.13 0 0 1 -.063.145.13.13 0 0 1 -.082.015h-1.62a.153.153 0 0 0 -.14.14l-.021 5.072a.11.11 0 0 1 -.11.11h-1.74a.11.11 0 0 1 -.11-.11l.021-5.072a.14.14 0 0 0 -.037-.096.14.14 0 0 0 -.093-.044h-1.6a.13.13 0 0 1 -.128-.082.13.13 0 0 1 -.005-.08.14.14 0 0 1 .043-.068" fill="#f2f2f2"/></svg>