<svg xmlns="http://www.w3.org/2000/svg" xmlns:xlink="http://www.w3.org/1999/xlink" width="18" height="18" viewBox="0 0 18 18">
  <defs>
    <mask id="wko">
      <rect width="18" height="18" fill="white"/>
      <path fill="black" d="M6.926 9.141a3.8 3.8 0 0 1-2.073-.61l2.052 5.361 2.038-5.325a3.8 3.8 0 0 1-2.017.574" opacity=".8"/>
    </mask>
  </defs>
  <g fill="currentColor" mask="url(#wko)">
    <path fill="currentColor" d="M17.977 9.2V7.788l-.2-.074-1.511-.5-.4-.966.768-1.634-.991-.991-.2.1-1.412.718-.966-.4-.619-1.709h-1.405l-.074.2-.5 1.511-.966.4L7.9 3.676l-.991.991.1.2.718 1.412-.4.966-1.734.619v1.41l.2.074 1.511.5.4.966-.774 1.631.99.99.2-.1 1.412-.718.966.4.619 1.709h1.412l.075-.2.495-1.511.966-.4 1.635.768.991-.991-.1-.2-.718-1.412.4-.966zm-6.193 2.049A2.718 2.718 0 1 1 14.5 8.531a2.715 2.715 0 0 1-2.716 2.718"/>
    <path fill="currentColor" d="M12.459 16.516a1.215 1.215 0 0 0 1.218-1.21 1 1 0 0 0-.008-.146c-.478-3.816-2.655-6.923-6.808-6.923-4.226 0-6.406 2.631-6.831 6.933a1.22 1.22 0 0 0 1.089 1.339 1 1 0 0 0 .122.007z"/>
  </g>
  <circle cx="6.898" cy="5.313" r="3.829" fill="currentColor"/>
</svg>