<svg height="18" viewBox="0 0 18 18" width="18" xmlns="http://www.w3.org/2000/svg" xmlns:xlink="http://www.w3.org/1999/xlink"><linearGradient id="a" gradientUnits="userSpaceOnUse" x1="9" x2="9" y1="17.253" y2=".747"><stop offset="0" stop-color="#50e6ff"/><stop offset="1" stop-color="#9cebff"/></linearGradient><path d="m16.364 8.4c0 4.84-5.849 8.736-7.122 9.526a.46.46 0 0 1 -.484 0c-1.273-.79-7.122-4.686-7.122-9.526v-5.818a.463.463 0 0 1 .452-.462c4.55-.12 3.502-2.12 6.912-2.12s2.362 2 6.912 2.12a.463.463 0 0 1 .452.462z" fill="#50e6ff"/><path d="m15.754 8.454c0 4.438-5.365 8.011-6.532 8.736a.42.42 0 0 1 -.444 0c-1.167-.725-6.532-4.3-6.532-8.736v-5.34a.425.425 0 0 1 .415-.423c4.173-.113 3.212-1.944 6.339-1.944s2.166 1.831 6.339 1.944a.425.425 0 0 1 .415.423z" fill="url(#a)"/><g fill="#fff"><circle cx="9.854" cy="8.037" r="1.281"/><circle cx="8.014" cy="11.159" r=".865"/><circle cx="7.39" cy="4.571" r="1.073"/></g><path d="m12.234 11.646-2.165-3.791-.215.124.176-.13-2.452-3.486-.448.326 2.172 3.088-4.813.397.046.559 4.767-.396-1.581 2.627.475.286 1.626-2.705 1.931 3.375z" fill="#e6e6e6"/><path d="m9.854 6.769a1.3 1.3 0 1 1 -1.3 1.3v-.032a1.3 1.3 0 0 1 1.3-1.268m-3.511-2.2a1.08 1.08 0 1 0 1.085-1.069h-.028a1.07 1.07 0 0 0 -1.057 1.071zm-2.692 3.95a.865.865 0 1 0 .864-.865.865.865 0 0 0 -.864.865m3.5 2.633a.872.872 0 1 0 .878-.865h-.009a.866.866 0 0 0 -.871.859zm3.85.7a1.008 1.008 0 1 0 1.014-1h-.006a.994.994 0 0 0 -1.009.976z" fill="#fff"/>​</svg>