<svg height="48" viewBox="0 0 48 48" width="48" xmlns="http://www.w3.org/2000/svg"><path d="m10.09 26.916a.999.999 0 1 1 -1.414 1.414l-2.736-2.735a1 1 0 0 1 0-1.414l2.736-2.737a1 1 0 0 1 1.414 1.414l-1.029 1.03h4.882v2h-4.88zm31.92-1.321-2.737 2.735a1 1 0 0 1 -1.414-1.414l1.03-1.028h-1.236v-2h1.235l-1.029-1.03a.999.999 0 1 1 1.414-1.414l2.736 2.737a1 1 0 0 1 0 1.414m-8.004.293h2.735v-2h-2.735zm-3.797-11.748-1.934 1.934-1.414-1.414 1.934-1.934zm-4.498 5.275h2v-2.735h-2zm0 3.648h2v-2.736h-2zm0 3.648h2v-2.735h-2zm0 3.648h2v-2.736h-2zm0 3.647h2v-2.735h-2zm0 3.649h2v-2.736h-2zm5.472-25.447h-5.365v-2h7.365v7.384h-2zm-13 0 4.056 4.058v21.389h-2v-20.561l-3.454-3.454v3.952h-2v-7.384h7.367v2zm15.736 17.239h2v6.472h-6.472v-2h3.058l-1.94-1.941 1.413-1.414 1.941 1.941zm1.693-9.311-1.414-1.414 2.75-2.749 1.414 1.414zm-5.048 2.22 2.71-2.709 1.413 1.415-2.709 2.708zm-.293 4.355h2v-2.682h-2zm0 3.648h2v-2.655h-2zm-14.825 3.56h3.057v2h-6.472v-6.472h2v3.058l1.65-1.648v-7.379l-6.092-6.091 1.414-1.414 6.677 6.676v9.037zm8.53 10.031c-11.015 0-19.976-8.961-19.976-19.974.001-11.015 8.961-19.976 19.975-19.976s19.976 8.961 19.976 19.976c0 11.013-8.96 19.974-19.975 19.974m0-41.95c-12.119 0-21.977 9.858-21.977 21.976s9.859 21.974 21.976 21.974 21.976-9.857 21.976-21.974-9.859-21.976-21.976-21.976" fill="#8c4fff" fill-rule="evenodd"/></svg>