<svg xmlns="http://www.w3.org/2000/svg" width="24" height="24"><path fill="none" d="M2 2h20v20H2z"/><path fill="currentColor" d="M6.45 18.24a3 3 0 1 1 3-3 3 3 0 0 1-3 3m3.63-.4A4.43 4.43 0 1 0 2 15.32a5 5 0 0 0 0 .67 3 3 0 0 0 .09.44l.06.21a4.6 4.6 0 0 0 .34.79 4.2 4.2 0 0 0 .76 1l.15.15.33.27a4 4 0 0 0 .73.44A4.44 4.44 0 0 0 9 19l2.93 2.93a.33.33 0 0 0 .47 0l.66-.65a.33.33 0 0 0 0-.47z"/><g fill="currentColor" fill-rule="evenodd"><path d="M15.58 5.21V3.73h-4.44v1.48H9.65V2.87a.63.63 0 0 1 .63-.62h6.16a.62.62 0 0 1 .62.62v2.34z"/><path d="m15.58 5.21 1.48-.47v.47zm-5.94 0 1.49-.54v.54z"/></g></svg>