<svg xmlns="http://www.w3.org/2000/svg" viewBox="0 0 128 128">
  <defs>
    <mask id="wko">
      <rect width="128" height="128" fill="white"/>
      <path fill="black" d="m28.444 44.444 35.556 20v38.667L28.444 83.556z"/>
    </mask>
  </defs>
  <g fill="currentColor" mask="url(#wko)">
    <path fill="currentColor" d="M64 128 6.222 96.444V32l22.222 12.444v39.112L64 103.11"/>
    <path fill="currentColor" d="m6.222 32 22.222 12.444L64 24l35.556 20.444L121.778 32 64 0z"/>
    <path fill="currentColor" d="m64 24 35.556 20.444-35.556 20-35.556-20z"/>
  </g>
  <path fill="currentColor" d="m64 64.444 35.556-20v39.112L64 103.11z"/>
  <path fill="currentColor" d="m64 128 57.778-31.556V32L99.556 44.444v39.112L64 103.11"/>
  <path fill="currentColor" d="M64 128 6.222 96.444l22.222-12.888L64 103.11"/>
  <path fill="currentColor" d="m64 128 57.778-31.556-22.222-12.888L64 103.11"/>
</svg>