<svg viewBox="0 0 128 128" xmlns="http://www.w3.org/2000/svg"><g fill-rule="evenodd"><path d="m64 128-57.778-31.556v-64.444l22.222 12.444v39.112l35.556 19.554" fill="#a6043f"/><path d="m6.222 32 22.222 12.444 35.556-20.444 35.556 20.444 22.222-12.444-57.778-32z" fill="#95d921"/><path d="m64 24 35.556 20.444-35.556 20-35.556-20z" fill="#dcdfe7"/><path d="m28.444 44.444 35.556 20v38.667l-35.556-19.555z" fill="#fff"/><path d="m64 64.444 35.556-20v39.112l-35.556 19.554z" fill="#c9dae9"/><path d="m64 128 57.778-31.556v-64.444l-22.222 12.444v39.112l-35.556 19.554" fill="#1d6ac6"/><path d="m64 128-57.778-31.556 22.222-12.888 35.556 19.554" fill="#ea1f5e"/><path d="m64 128 57.778-31.556-22.222-12.888-35.556 19.554" fill="#2e90e9"/></g></svg>