<svg height="24" width="24" xmlns="http://www.w3.org/2000/svg"><path d="m6 2h-2v18.58a1.31 1.31 0 0 0 1.29 1.42h13.44a1.29 1.29 0 0 0 1.27-1.42v-18.58l-2 .14v17.86h-12z" fill="#669df6"/><path d="m12 22h6.73a1.29 1.29 0 0 0 1.27-1.42v-18.58h-2v18h-6z" fill="#4285f4"/><path d="m7 12h10v7h-10z" fill="#669df6"/><path d="m12 12h5v7h-5z" fill="#4285f4"/><path d="m7 3h1v3h-1z" fill="#669df6"/><path d="m7.5 3h.5v3h-.5z" fill="#4285f4"/><path d="m10 3h1v3h-1zm3 0h1v3h-1zm3 0h1v3h-1z" fill="#669df6"/><path d="m10.5 3h.5v3h-.5zm3 0h.5v3h-.5zm3 0h.5v3h-.5z" fill="#4285f4"/></svg>