<svg viewBox="0 0 128 128" xmlns="http://www.w3.org/2000/svg"><path d="m27.15 80.766c0 7.351-5.994 13.355-13.345 13.355-7.351-.001-13.355-6.004-13.355-13.355s6.004-13.355 13.355-13.355h13.345zm6.73 0c0-7.351 6.003-13.355 13.354-13.355s13.355 6.004 13.355 13.355v33.43c0 7.35-6.004 13.354-13.355 13.354s-13.355-6.004-13.355-13.355v-33.43zm13.354-53.616c-7.351 0-13.355-5.994-13.355-13.345.001-7.351 6.004-13.355 13.355-13.355s13.355 6.004 13.355 13.355v13.345zm0 6.73c7.351 0 13.355 6.003 13.355 13.354s-6.004 13.355-13.355 13.355h-33.43c-7.349 0-13.354-6.004-13.354-13.355s6.004-13.355 13.355-13.355h33.43zm53.616 13.354c0-7.351 5.994-13.355 13.345-13.355s13.355 6.004 13.355 13.355-6.004 13.355-13.355 13.355h-13.345zm-6.73 0c0 7.351-6.003 13.355-13.354 13.355s-13.355-6.004-13.355-13.355v-33.43c0-7.349 6.004-13.354 13.355-13.354s13.355 6.004 13.355 13.355zm-13.354 53.616c7.351 0 13.355 5.994 13.355 13.345s-6.004 13.355-13.355 13.355-13.355-6.004-13.355-13.355v-13.345zm0-6.73c-7.351 0-13.355-6.003-13.355-13.354s6.004-13.355 13.355-13.355h33.43c7.35 0 13.354 6.004 13.354 13.355s-6.004 13.355-13.355 13.355zm0 0"/></svg>