<svg height="18" viewBox="0 0 18 18" width="18" xmlns="http://www.w3.org/2000/svg" xmlns:xlink="http://www.w3.org/1999/xlink"><linearGradient id="a" gradientUnits="userSpaceOnUse" x1="9" x2="9" y1="0" y2="18"><stop offset="0" stop-color="#5ea0ef"/><stop offset="1" stop-color="#0078d4"/></linearGradient><path d="m8.881 9.269v2.795l-2.416 1.404v-2.799z" fill="#0078d4"/><path d="m8.881 9.269-2.416 1.403-2.416-1.404 2.416-1.405z" fill="#5ea0ef"/><path d="m6.465 10.672v2.796l-2.416-1.404v-2.796z" fill="#83b9f9"/><path d="m11.442 4.836v2.795l-2.416 1.404v-2.799z" fill="#0078d4"/><path d="m11.442 4.836-2.416 1.404-2.416-1.405 2.416-1.404z" fill="#5ea0ef"/><path d="m9.026 6.24v2.795l-2.416-1.404v-2.796z" fill="#83b9f9"/><path d="m13.967 9.262v2.795l-2.416 1.404v-2.799z" fill="#32bedd"/><path d="m13.967 9.262-2.416 1.404-2.416-1.405 2.416-1.404z" fill="#50e6ff"/><path d="m11.551 10.666v2.795l-2.416-1.404v-2.796z" fill="#9cebff"/><path d="m9.004.863c.138 0 .276.036.4.108l6.324 3.685a.79.79 0 0 1 .394.686v7.324c0 .283-.15.544-.395.686l-6.324 3.676a.79.79 0 0 1 -.798.001l-6.333-3.677a.79.79 0 0 1 -.395-.686v-7.332c0-.283.151-.544.395-.686l6.334-3.677a.8.8 0 0 1 .399-.107m0-.863c-.292 0-.58.077-.832.224l-6.333 3.676a1.66 1.66 0 0 0 -.825 1.433v7.332c0 .588.316 1.138.825 1.433l6.333 3.677a1.65 1.65 0 0 0 1.665-.001l6.324-3.676c.508-.296.824-.845.824-1.433v-7.324c0-.587-.315-1.136-.823-1.432l-6.325-3.685a1.66 1.66 0 0 0 -.834-.225z" fill="url(#a)"/></svg>