<svg xmlns="http://www.w3.org/2000/svg" fill="currentColor" fill-rule="evenodd" viewBox="0 0 24 24"><path d="M5.246 12q0 1.255-.257 2.151t-.837 1.373T2.618 16q-1.352 0-1.985-1.059T0 12q0-1.255.257-2.151.259-.896.832-1.373.574-.475 1.529-.476 1.34 0 1.985 1.053.643 1.053.643 2.947m-3.883 0q0 1.434.273 2.134.274.7.982.7.697.001.981-.694.285-.694.285-2.14 0-1.434-.285-2.134-.284-.7-.981-.7-.709 0-.982.7T1.363 12m8.52 3.771H8.517l.011-6.295-1.823.324V8.571l2.04-.457h1.136v7.657zm2.497-1.6h.543c.3 0 .543.256.543.572v.571a.56.56 0 0 1-.543.572h-.543a.56.56 0 0 1-.543-.572v-.571c0-.316.243-.572.543-.572m10.317-6.057H24v7.772h-1.303zm-3.692 0 2.606 7.772h-1.303l-.69-2.058h-3.073l-.69 2.058h-1.303l2.606-7.772zm.191 4.457-1.115-3.323-1.114 3.323z"/></svg>