<svg viewBox="0 0 24 24" xmlns="http://www.w3.org/2000/svg"><path d="m12 0c-6.51 0-11.743 5.362-11.743 12v12h11.743c6.51 0 11.743-5.362 11.743-12s-5.233-12-11.743-12zm0 3.51c.543 0 1.086.065 1.66.192.383.128.639.383.639.766l-.638 10.085c0 .255-.256.511-.512.511-.766.128-1.533.128-2.171 0-.383 0-.639-.256-.639-.51l-.638-10.087c0-.383.256-.638.638-.766a7.583 7.583 0 0 1 1.661-.191zm.065 12.99c.447 0 .892.031 1.339.095.255 0 .384.256.384.384.127.894.127 1.786 0 2.807 0 .256-.257.384-.384.384a9.427 9.427 0 0 1 -2.68 0c-.256 0-.384-.256-.384-.384-.128-.893-.128-1.786 0-2.807 0-.255.256-.384.383-.384a9.478 9.478 0 0 1 1.342-.095z"/></svg>