<svg viewBox="0 0 24 24" xmlns="http://www.w3.org/2000/svg"><path d="m0 1.637v19.09c0 .9.736 1.636 1.636 1.636h.131a10.4 10.4 0 0 1 -.13-1.636 10.3 10.3 0 0 1 1.667-5.64l4.202 7.276h1.128a3.77 3.77 0 0 1 3.366-5.405 3.77 3.77 0 0 1 3.366 5.406h1.048a4.7 4.7 0 0 0 -1.587-5.406h6.83a10.34 10.34 0 0 1 .577 5.406h.13c.9 0 1.636-.737 1.636-1.637v-19.09zm9.273 2.181h5.454a1.09 1.09 0 1 1 0 2.182h-5.454a1.09 1.09 0 1 1 0-2.182m2.727 6.546a10.36 10.36 0 0 1 9.233 5.652h-9.233a4.71 4.71 0 0 0 -4.677 4.149l-3.413-5.915a10.34 10.34 0 0 1 8.09-3.886"/></svg>