<svg xmlns="http://www.w3.org/2000/svg" width="225" height="93.383" viewBox="0 0 225 93.383"><defs><mask id="a"><path fill="#fff" d="M0 0h225v93.383H0z"/><path d="m55.717 71.353 14.507-43.445h16.029l-3.127 9.209-11.462 34.236z"/><path fill-rule="evenodd" d="M80.245 28.271c-4.232 0-7.547-2.531-7.547-5.762 0-3.177 3.386-5.762 7.547-5.762.548 0 1.075.082 1.54.155q.268.043.519.076l.06.007.058.015c3.212.803 5.371 3.017 5.371 5.509 0 2.581-2.168 4.797-5.396 5.515a9 9 0 0 1-2.152.247" clip-rule="evenodd"/><path fill-rule="evenodd" d="m41.489 87.275-5.673-26.606-9.251 26.606H8.083L36.079 6.033h18.786l-5.623 16.202L62.966 6.033h22.371l-2.402 2.771-31.822 37.052 8.329 41.419z" clip-rule="evenodd"/><path fill-rule="evenodd" d="M90.026 72.864q-.457 0-.907-.024c-2.612-.182-5.324-1.02-7.455-2.3-4.404-2.642-6.026-6.866-4.452-11.591l4.02-11.908 10.424-30.74h16.718l-.608 2.031-3.289 9.8h9.443l-4.158 12.566h-9.455l-6.541 19.336c-.076.236-.066.363-.058.408h.078c.308 0 .888-.281 1.131-1.035l2.844-8.21h13.256l-3.284 9.943-.076.15c-2.549 7.519-10.974 11.574-17.631 11.574" clip-rule="evenodd"/><path fill-rule="evenodd" d="m132.51 87.275-4.293-28.703-10.06 28.703H99.674l6.19-17.845 21.808-63.397h18.805l-6.841 18.969 16.418-18.969h22.57L164.86 22.118l-21.571 25.093 6.664 40.064z" clip-rule="evenodd"/><path fill-rule="evenodd" d="M155.668 73.296c-.436 0-.875-.031-1.307-.093-2.493-.282-4.474-1.452-5.858-3.474-2.796-4.082-2.443-10.649-1.291-15.033 1.446-5.651 5.364-11.352 11.166-12.883h-5.68l.492-1.344c2.644-7.215 5.968-11.622 10.463-13.87 3.601-1.882 7.563-2.04 11.311-2.04 3.479 0 7.109 1.763 9.475 4.601 2.736 3.286 3.409 7.64 1.893 12.262l-1.715 4.998-8.786 26.047h-14.843l.262-.76c-1.624.892-3.506 1.589-5.582 1.589m8.777-31.483c1.935.685 3.763 1.993 5.249 3.712l2.161-6.658c.391-1.117-.049-2.334-.427-2.469-.323.015-1.528.865-2.888 4.746l-.234.669z" clip-rule="evenodd"/><path fill-rule="evenodd" d="M193.79 74.346q-.527 0-1.075-.019c-2.386-.125-6.786-.687-9.678-3.052-3.235-2.83-3.726-6.992-1.482-12.394l1.171-3.367L196.2 16.3h15.941l-3.942 11.831h8.714l-4.401 12.938h-8.698l-6.471 19.552a1 1 0 0 0-.063.36c.005-.002.057 0 .082 0 .312 0 .895-.27 1.136-.991l2.845-8.05h13.272l-3.212 9.288c-2.092 6.477-5.826 13.118-17.613 13.118" clip-rule="evenodd"/></mask></defs><g fill="currentColor" mask="url(#a)"><path d="M0 0h225v93.383H0z"/><path stroke="#ed1d24" d="M56.881 57.182 63.875 36.2l-9.151 10.566z"/><path fill-rule="evenodd" stroke="#ed1d24" d="M110.975 44.087h-8.259l-1.265 3.721h8.259z" clip-rule="evenodd"/><path fill-rule="evenodd" d="M166.109 52.57c2.158.52.595 4.539-.074 6.62-.446 1.266-1.042 3.126-1.935 4.168-.595.67-1.265 1.042-2.008.894-1.937-.447-1.042-4.093-.373-6.028.521-1.488 1.265-3.646 2.381-4.91.522-.596 1.191-.967 2.009-.744" clip-rule="evenodd"/></g></svg>