<svg height="93.383" viewBox="0 0 225 93.383" width="225" xmlns="http://www.w3.org/2000/svg"><g clip-rule="evenodd" fill-rule="evenodd"><path d="m0 0h225v93.383h-225z" fill="#ed1d24"/><path d="m56.881 57.182 6.994-20.982-9.151 10.566z" fill="#ed1d24" stroke="#ed1d24"/><path d="m55.717 71.353 14.507-43.445h16.029l-3.127 9.209-11.462 34.236z" fill="#fff"/></g><path d="m84.858 28.908-2.678 7.887-11.236 33.558h-13.839l13.839-41.444h13.914m2.791-2.001h-18.146l-.456 1.367-13.839 41.444-.879 2.634h18.054l.457-1.365 11.236-33.558 2.675-7.878z"/><path clip-rule="evenodd" d="m80.245 28.271c-4.232 0-7.547-2.531-7.547-5.762 0-3.177 3.386-5.762 7.547-5.762.548 0 1.075.082 1.54.155q.268.043.519.076l.06.007.058.015c3.212.803 5.371 3.017 5.371 5.509 0 2.581-2.168 4.797-5.396 5.515a9 9 0 0 1 -2.152.247" fill="#fff" fill-rule="evenodd"/><path d="m80.245 17.748c.67 0 1.339.149 1.935.223 2.678.669 4.613 2.455 4.613 4.539 0 2.157-1.935 3.943-4.613 4.539a8 8 0 0 1 -1.935.223c-3.571 0-6.547-2.083-6.547-4.762-.001-2.605 2.975-4.762 6.547-4.762m0-2c-4.713 0-8.547 3.034-8.547 6.762 0 3.792 3.754 6.762 8.547 6.762.833 0 1.661-.096 2.395-.276 3.682-.828 6.154-3.432 6.154-6.485 0-2.959-2.463-5.563-6.128-6.479l-.117-.029-.121-.015q-.237-.031-.488-.071c-.502-.081-1.07-.169-1.695-.169"/><path clip-rule="evenodd" d="m41.489 87.275-5.673-26.606-9.251 26.606h-18.482l27.996-81.242h18.786l-5.623 16.202 13.724-16.202h22.371l-2.402 2.771-31.822 37.052 8.329 41.419z" fill="#fff" fill-rule="evenodd"/><path d="m83.147 7.033-.967 1.116-32.144 37.426 8.185 40.7h-15.923l-6.25-29.316-10.194 29.316h-16.369l27.307-79.242h16.667l-6.92 19.94 16.89-19.94zm4.381-2h-25.025l-.599.708-9.959 11.757 3.404-9.809.921-2.656h-20.904l-.464 1.349-27.308 79.242-.914 2.651h20.596l.467-1.343 7.842-22.553 4.757 22.313.337 1.583h19.984l-.481-2.395-7.992-39.743 31.507-36.685.961-1.109z"/><path clip-rule="evenodd" d="m90.026 72.864q-.457 0-.907-.024c-2.612-.182-5.324-1.02-7.455-2.3-4.404-2.642-6.026-6.866-4.452-11.591l4.02-11.908 10.424-30.74h16.718l-.608 2.031-3.289 9.8h9.443l-4.158 12.566h-9.455l-6.541 19.336c-.076.236-.066.363-.058.408h.078c.308 0 .888-.281 1.131-1.035l2.844-8.21h13.256l-3.284 9.943-.076.15c-2.549 7.519-10.974 11.574-17.631 11.574" fill="#fff" fill-rule="evenodd"/><path d="m107.031 17.301-.223.744-3.721 11.086h9.45l-3.497 10.566h-9.45l-6.77 20.016c-.372 1.152.205 1.729.967 1.729s1.711-.576 2.083-1.729l2.604-7.517h11.161l-2.827 8.559-.075.147c-2.283 6.85-10.039 10.962-16.708 10.962q-.43 0-.853-.022c-2.158-.15-4.762-.818-6.994-2.159-3.349-2.009-5.655-5.506-4.018-10.417l4.02-11.906 10.193-30.06h14.658m2.686-1.999h-18.778l-.46 1.358-10.193 30.06-4.019 11.908c-1.713 5.139.114 9.91 4.884 12.771 2.261 1.358 5.135 2.248 7.884 2.439.349.02.669.027.992.027 6.985 0 15.828-4.269 18.556-12.185l.011-.021.068-.135.047-.143 2.827-8.559.868-2.627h-14.254l2.875-8.499h9.46l.454-1.372 3.496-10.566.87-2.628h-9.438l2.836-8.45.011-.031.009-.032.223-.744z"/><path clip-rule="evenodd" d="m110.975 44.087h-8.259l-1.265 3.721h8.259z" fill="#ed1d24" fill-rule="evenodd" stroke="#ed1d24"/><path clip-rule="evenodd" d="m132.51 87.275-4.293-28.703-10.06 28.703h-18.483l6.19-17.845 21.808-63.397h18.805l-6.841 18.969 16.418-18.969h22.57l-13.764 16.085-21.571 25.093 6.664 40.064z" fill="#fff" fill-rule="evenodd"/><path d="m176.452 7.033-12.352 14.435-21.875 25.446 6.548 39.361h-15.402l-4.763-31.845-11.16 31.845h-16.369l5.729-16.518 21.577-62.725h16.667l-8.185 22.694 19.643-22.694h19.942m4.344-1.999h-25.2l-.598.691-12.597 14.553 4.532-12.565.966-2.679h-20.942l-.465 1.35-21.577 62.725-5.726 16.512-.921 2.655h20.598l.47-1.339 8.489-24.223 3.568 23.857.255 1.704h19.485l-.388-2.328-6.395-38.438 21.266-24.737 12.354-14.438z"/><path clip-rule="evenodd" d="m155.668 73.296c-.436 0-.875-.031-1.307-.093-2.493-.282-4.474-1.452-5.858-3.474-2.796-4.082-2.443-10.649-1.291-15.033 1.446-5.651 5.364-11.352 11.166-12.883h-5.68l.492-1.344c2.644-7.215 5.968-11.622 10.463-13.87 3.601-1.882 7.563-2.04 11.311-2.04 3.479 0 7.109 1.763 9.475 4.601 2.736 3.286 3.409 7.64 1.893 12.262l-1.715 4.998-8.786 26.047h-14.843l.262-.76c-1.624.892-3.506 1.589-5.582 1.589m8.777-31.483c1.935.685 3.763 1.993 5.249 3.712l2.161-6.658c.391-1.117-.049-2.334-.427-2.469-.323.015-1.528.865-2.888 4.746l-.234.669z" fill="#fff" fill-rule="evenodd"/><path d="m174.964 25.56c3.125 0 6.474 1.563 8.706 4.241s3.273 6.548 1.711 11.31l-1.711 4.985-8.558 25.372h-12.723l.743-2.157c-2.341 1.69-4.797 2.985-7.465 2.985q-.576.001-1.165-.083c-7.888-.894-7.888-11.311-6.324-17.263 1.499-5.856 6.153-12.536 13.303-12.536q.448 0 .908.036c.595 0 1.116.149 1.711.298 2.382.818 4.539 2.753 5.953 4.911l2.753-8.483c.521-1.488 0-3.348-1.042-3.72a1.1 1.1 0 0 0 -.31-.043c-1.028 0-2.442 1.359-3.857 5.4h-13.468c2.753-7.516 6.102-11.384 9.971-13.319 3.275-1.711 6.921-1.934 10.864-1.934m0-2c-3.872 0-7.973.167-11.79 2.162-4.705 2.353-8.187 6.935-10.922 14.403l-.984 2.688h2.611c-3.86 2.658-6.491 7.162-7.638 11.641-1.202 4.576-1.55 11.48 1.437 15.841 1.529 2.231 3.801 3.58 6.571 3.902.469.065.945.099 1.419.099 1.486 0 2.888-.334 4.161-.828h16.721l.459-1.36 8.558-25.373 1.707-4.975c1.637-4.986.899-9.679-2.065-13.239-2.553-3.06-6.478-4.961-10.245-4.961m-6.673 19.253h.726l.469-1.339c.592-1.69 1.119-2.7 1.511-3.294a1.6 1.6 0 0 1 -.077.335l-1.662 5.12q-.471-.436-.967-.822"/><path clip-rule="evenodd" d="m166.109 52.57c2.158.52.595 4.539-.074 6.62-.446 1.266-1.042 3.126-1.935 4.168-.595.67-1.265 1.042-2.008.894-1.937-.447-1.042-4.093-.373-6.028.521-1.488 1.265-3.646 2.381-4.91.522-.596 1.191-.967 2.009-.744" fill="#231f20" fill-rule="evenodd"/><path clip-rule="evenodd" d="m193.79 74.346q-.527 0-1.075-.019c-2.386-.125-6.786-.687-9.678-3.052-3.235-2.83-3.726-6.992-1.482-12.394l1.171-3.367 13.474-39.214h15.941l-3.942 11.831h8.714l-4.401 12.938h-8.698l-6.471 19.552a1 1 0 0 0 -.063.36c.005-.002.057 0 .082 0 .312 0 .895-.27 1.136-.991l2.845-8.05h13.272l-3.212 9.288c-2.092 6.477-5.826 13.118-17.613 13.118" fill="#fff" fill-rule="evenodd"/><path d="m210.753 17.301-3.942 11.831h8.705l-3.721 10.938h-8.705l-6.697 20.238c-.372 1.116.205 1.674.968 1.674.764 0 1.712-.558 2.084-1.674l2.604-7.366h11.161l-2.753 7.961c-2.234 6.921-6.076 12.443-16.666 12.443q-.511 0-1.043-.018c-2.827-.148-6.622-.818-9.077-2.827-2.382-2.084-3.571-5.506-1.191-11.235l1.191-3.422 13.243-38.543zm2.774-2h-18.042l-.464 1.35-13.243 38.543-1.17 3.359c-2.987 7.24-.702 11.312 1.744 13.452l.025.022.025.021c3.112 2.547 7.751 3.146 10.239 3.276.417.014.785.021 1.147.021 12.501 0 16.49-7.391 18.569-13.829l2.74-7.922.917-2.653h-14.418l2.936-8.872h8.694l.461-1.356 3.721-10.938.899-2.644h-8.724l3.065-9.198z"/><circle clip-rule="evenodd" cx="218.768" cy="38.273" fill="none" r="1.75" stroke="#000" stroke-width=".3"/><text font-family="'FranklinGothic-Medium'" font-size="2.918" transform="translate(217.83 39.174)">R</text></svg>