<svg xmlns="http://www.w3.org/2000/svg" fill="none" viewBox="0.467 0.473 46.061 47.05">
  <defs>
    <clipPath id="a"><path fill="#fff" d="M0 0h48v48H0z"/></clipPath>
    <mask id="wko">
      <rect width="46.061" height="47.05" fill="white"/>
      <path fill="black" d="M30.145 38.339a4.11 4.11 0 0 1-4.096 4.096H8.64v-8.192h17.408a4.11 4.11 0 0 1 4.096 4.096Zm12.288-26.624H24v8.192h18.432a4.11 4.11 0 0 0 4.096-4.096 4.11 4.11 0 0 0-4.096-4.096ZM34.24 22.979H16.833v8.192H34.24a4.11 4.11 0 0 0 4.096-4.096 4.11 4.11 0 0 0-4.096-4.096"/>
    </mask>
  </defs>
  <g fill="currentColor" mask="url(#wko)">
    <path fill="currentColor" d="M26.049 34.242H8.64v8.192h17.408a4.11 4.11 0 0 0 4.096-4.096 4.11 4.11 0 0 0-4.096-4.096Z"/>
    <path fill="currentColor" d="M42.432 11.715H24v8.192h18.432a4.11 4.11 0 0 0 4.096-4.096 4.11 4.11 0 0 0-4.096-4.096M34.24 22.977H16.832v8.192H34.24a4.11 4.11 0 0 0 4.096-4.096 4.11 4.11 0 0 0-4.096-4.096"/>
  </g>
  <path fill="currentColor" d="m2.65 45.2 17.87-20.403L33.78 8.055l-7.218-4.532-.896.538L3.52 34.397l-2.33 7.782a.73.73 0 0 0 .282.794z"/>
  <path fill="currentColor" d="M4.953 45.453c.256.154.563.154.794-.025l6.656-4.736 22.041-30.336-3.917-4.352-27.724 38.4 2.15 1.05Z"/>
  <path fill="currentColor" d="m34.445 10.33 2.432-3.354c.205-.281.102-.537-.154-.896C34.907 3.572 29.48.397 28.763.474c-.333.026-.41.026-.691.282L25.64 4.109zM4.415 42.18l-2.944.793-.999 3.328c-.05.282.256.691.487.87s.947.462 1.254.308l2.765-2.048c-.026.026-.563-3.251-.563-3.251"/>
</svg>