<svg height="18" viewBox="0 0 18 18" width="18" xmlns="http://www.w3.org/2000/svg" xmlns:xlink="http://www.w3.org/1999/xlink"><linearGradient id="a" gradientUnits="userSpaceOnUse" x1="9.19" x2="9.19" y1="17.5" y2=".5"><stop offset="0" stop-color="#0078d4"/><stop offset=".82" stop-color="#5ea0ef"/></linearGradient><path d="m13.35 2.88a2.31 2.31 0 0 1 2.3-2.32 1.86 1.86 0 0 1 1.59 1.88 1.86 1.86 0 0 1 -.41 1.18.71.71 0 0 1 -.55.26h-3z" fill="#0078d4"/><path d="m13.56.51h-9a2.29 2.29 0 0 0 -2.27 2.29v14.69h9a2.29 2.29 0 0 0 2.29-2.29v-9.91a26 26 0 0 1 0-3c.36-1.99 2.51-1.64 2.51-1.64a11 11 0 0 0 -2.53-.14" fill="url(#a)"/><path d="m8 11.64v-4.7a.53.53 0 0 0 .27-.46.54.54 0 0 0 -.54-.54.54.54 0 0 0 -.26 1v4.7a.55.55 0 0 0 -.27.47.54.54 0 1 0 1.07 0 .55.55 0 0 0 -.27-.47" fill="#f2f2f2"/><path d="m11.45 17.43a1.84 1.84 0 0 1 -.89-3.24.23.23 0 0 0 -.15-.41h-8.11a1.85 1.85 0 0 0 0 3.64 1.4 1.4 0 0 0 .29 0z" fill="#5ea0ef"/><g fill="#f2f2f2"><circle cx="9.44" cy="6.49" r=".55"/><circle cx="7.69" cy="6.49" r=".55"/><circle cx="5.95" cy="6.49" r=".55"/></g><path d="m6 9 .32-.32a.15.15 0 0 0 0-.2l-2.49-2.48-.32.32a.28.28 0 0 0 0 .4l2.32 2.28a.15.15 0 0 0 .17 0" fill="#b3b3b3"/><path d="m6.3 4.3-.3-.3a.15.15 0 0 0 -.2 0l-2.29 2.27a.28.28 0 0 0 0 .4l.31.33 2.48-2.5a.13.13 0 0 0 0-.2" fill="#f2f2f2"/><path d="m9.32 9-.32-.33a.13.13 0 0 1 0-.2l2.53-2.47.31.32a.28.28 0 0 1 0 .4l-2.32 2.28a.15.15 0 0 1 -.2 0" fill="#b3b3b3"/><path d="m9.05 4.3.32-.3a.15.15 0 0 1 .2 0l2.27 2.28a.28.28 0 0 1 0 .4l-.31.32-2.48-2.5a.15.15 0 0 1 0-.2" fill="#f2f2f2"/></svg>