<svg xmlns="http://www.w3.org/2000/svg" width="18" height="18" viewBox="0 0 18 18"><defs><mask id="a"><path fill="#fff" d="M0 0h18v18H0z"/><path d="M4.406 14.658v-1.671c0-1.374 2.649-2.093 5.265-2.093.852 0 1.707.077 2.474.227V5.204a.5.5 0 0 0-.205-.406H8.117a.86.86 0 0 1-.856-.869V.12A.5.5 0 0 0 6.935 0H.504A.505.505 0 0 0 0 .507v13.892c0 .28.227.505.505.505h3.901v-.245z"/><path d="m9.894 8.509-.089-.089a.16.16 0 0 0-.224 0l-.902.896-.369-.37a.16.16 0 0 0-.224 0l-.093.094a.16.16 0 0 0 0 .225l.574.576a.16.16 0 0 0 .223.002l.002-.002 1.103-1.106a.157.157 0 0 0 0-.223V8.51z"/><path d="m9.894 5.777-.089-.089a.16.16 0 0 0-.223-.002l-.002.002-.902.896-.369-.37a.16.16 0 0 0-.224 0l-.093.094a.16.16 0 0 0 0 .225l.574.576a.16.16 0 0 0 .223.002l.002-.002 1.103-1.106a.157.157 0 0 0 0-.223z"/><path d="M9.671 11.317c-2.675 0-4.844.748-4.844 1.671 0 .47.563.895 1.47 1.199.872.292 2.062.472 3.374.472q.762-.001 1.453-.077a9.3 9.3 0 0 0 1.921-.395c.906-.304 1.47-.728 1.47-1.199 0-.923-2.169-1.671-4.844-1.671m2.52 1.698a6 6 0 0 1-1.407.347 9 9 0 0 1-1.112.071c-.945 0-1.864-.152-2.52-.418a.155.155 0 0 1 .002-.288c.549-.218 1.411-.417 2.518-.417s1.969.199 2.518.417c.13.052.132.236.002.288z"/><path d="M13.045 14.186a9.3 9.3 0 0 1-1.921.395c-.459.05-.947.077-1.453.077h4.844v-1.671c0 .47-.563.895-1.47 1.199"/><path d="M17.778 14.658H9.671c-1.312 0-2.502-.18-3.374-.472-.906-.304-1.47-.728-1.47-1.199v3.342c0 .47.563.895 1.47 1.199.872.292 2.062.472 3.374.472h8.106c.123 0 .222-.1.222-.223v-2.896c0-.123-.1-.223-.222-.223z"/><path d="M10.922 17.993v-1.064a.167.167 0 0 0-.334 0V18h.333zm1.499 0v-2.055a.167.167 0 0 0-.334 0v2.061h.333v-.007zm2.83-2.221a.167.167 0 0 0-.167.167V18h.333v-2.061a.166.166 0 0 0-.166-.167m1.498.99a.167.167 0 0 0-.167.167V18h.333v-1.071a.166.166 0 0 0-.166-.167m-2.83 1.231v-1.064a.167.167 0 0 0-.334 0V18h.333zm-4.662-2.221a.167.167 0 0 0-.167.167v2.049q.165.007.333.01v-2.059a.166.166 0 0 0-.166-.167m-1.498.99a.167.167 0 0 0-.167.167v.909q.163.027.334.049v-.958a.167.167 0 0 0-.167-.167m-1.462.766.13.041v-1.631a.167.167 0 0 0-.334 0v1.517q.099.037.204.073"/><path d="M2.378 8.786h4.659v.772H2.378z"/><path d="M2.378 6.054h4.659v.772H2.378z"/></mask></defs><path fill="currentColor" d="M11.953 4.798H8.118a.86.86 0 0 1-.856-.869V.111z" mask="url(#a)"/></svg>