<svg viewBox="0 0 24 24" xmlns="http://www.w3.org/2000/svg"><path d="m23.186 9.07-1.776-1.051a2.78 2.78 0 0 1 -1.344-2.391v-2.105c0-.431-.19-.837-.516-1.108a11.965 11.965 0 0 0 -3.233-1.922 1.356 1.356 0 0 0 -1.193.091l-1.777 1.056a2.622 2.622 0 0 1 -2.688 0l-1.777-1.056a1.348 1.348 0 0 0 -1.194-.09 11.93 11.93 0 0 0 -3.231 1.918 1.44 1.44 0 0 0 -.516 1.108v2.104c0 .986-.51 1.897-1.344 2.392l-1.774 1.052c-.363.215-.61.588-.675 1.013a12.24 12.24 0 0 0 -.148 1.92c0 .651.048 1.292.145 1.916.065.425.312.801.675 1.016l1.774 1.052a2.78 2.78 0 0 1 1.344 2.392v2.104c0 .431.191.837.516 1.108.965.8 2.054 1.452 3.231 1.919.393.155.831.124 1.194-.091l1.777-1.055a2.622 2.622 0 0 1 2.688 0l1.777 1.055c.363.215.804.246 1.193.091a11.973 11.973 0 0 0 3.232-1.92 1.44 1.44 0 0 0 .516-1.107v-2.104a2.78 2.78 0 0 1 1.344-2.392l1.774-1.052c.363-.215.61-.588.675-1.016.094-.624.145-1.265.145-1.916 0-.652-.048-1.293-.145-1.917a1.41 1.41 0 0 0 -.67-1.013zm-11.183 10.34c-3.981 0-7.21-3.317-7.21-7.407s3.229-7.406 7.21-7.406c3.98 0 7.21 3.316 7.21 7.406s-3.23 7.407-7.21 7.407z"/></svg>