<svg height="18" viewBox="0 0 18 18" width="18" xmlns="http://www.w3.org/2000/svg" xmlns:xlink="http://www.w3.org/1999/xlink"><linearGradient id="a"><stop offset="0" stop-color="#005ba1"/><stop offset=".07" stop-color="#0060a9"/><stop offset=".36" stop-color="#0071c8"/><stop offset=".52" stop-color="#0078d4"/><stop offset=".64" stop-color="#0074cd"/><stop offset=".82" stop-color="#006abb"/><stop offset="1" stop-color="#005ba1"/></linearGradient><linearGradient id="b" gradientUnits="userSpaceOnUse" x1="1.757" x2="8.45" xlink:href="#a" y1="10.59" y2="10.59"/><linearGradient id="c" gradientUnits="userSpaceOnUse" x1="9.55" x2="16.243" xlink:href="#a"/><linearGradient id="d" gradientTransform="matrix(1 0 0 -1 11.16 791.516)" gradientUnits="userSpaceOnUse" x1="-5.506" x2="1.186" xlink:href="#a" y1="777.473" y2="777.473"/><linearGradient id="e" gradientUnits="userSpaceOnUse" x1="9" x2="9" y1=".125" y2="5.331"><stop offset=".481" stop-color="#32d4f5"/><stop offset="1" stop-color="#32bedd"/></linearGradient><path d="m8.45 6.759c0 .673-1.498 1.211-3.346 1.211s-3.346-.522-3.346-1.211 1.498-1.211 3.346-1.211 3.346.522 3.346 1.211" fill="#e8e8e8"/><path d="m7.672 6.659c0 .428-1.154.773-2.569.773s-2.569-.345-2.569-.773 1.154-.767 2.569-.767 2.569.345 2.569.767" fill="#50e6ff"/><path d="m5.104 6.852a6 6 0 0 0 -2.031.298 6 6 0 0 0 2.031.282c.69.02 1.377-.082 2.031-.303a6.2 6.2 0 0 0 -2.031-.277" fill="#198ab3"/><path d="m5.209 10.211c0-1.024 1.592-1.545 3.241-1.64v-1.813c0 .673-1.498 1.211-3.346 1.211s-3.346-.522-3.346-1.211v6.453c0 .663 1.472 1.201 3.299 1.211h.153z" fill="url(#b)"/><path d="m16.243 6.759c0 .673-1.498 1.211-3.346 1.211s-3.346-.522-3.346-1.211 1.498-1.211 3.346-1.211 3.346.522 3.346 1.211" fill="#e8e8e8"/><path d="m15.465 6.659c0 .428-1.154.773-2.569.773s-2.569-.345-2.569-.773 1.154-.767 2.569-.767 2.569.345 2.569.767" fill="#50e6ff"/><path d="m12.896 6.852a6 6 0 0 0 -2.031.298 6 6 0 0 0 2.031.282c.69.02 1.377-.082 2.031-.303a6.2 6.2 0 0 0 -2.031-.277" fill="#198ab3"/><path d="m12.896 7.97c-1.848 0-3.346-.522-3.346-1.211v1.813c1.649.094 3.241.616 3.241 1.64v4.21h.106c1.848 0 3.346-.522 3.346-1.211v-6.453c0 .673-1.498 1.211-3.346 1.211z" fill="url(#c)"/><path d="m9 11.422c-1.848 0-3.346-.522-3.346-1.211v6.453c0 .663 1.472 1.201 3.299 1.211h.047c1.848 0 3.346-.522 3.346-1.211v-6.453c0 .673-1.498 1.211-3.346 1.211" fill="url(#d)"/><path d="m12.346 10.211c0 .673-1.498 1.211-3.346 1.211s-3.346-.522-3.346-1.211 1.498-1.211 3.346-1.211 3.346.522 3.346 1.211" fill="#e8e8e8"/><path d="m11.569 10.112c0 .428-1.154.773-2.569.773s-2.569-.345-2.569-.773 1.154-.767 2.569-.767 2.569.345 2.569.767" fill="#50e6ff"/><path d="m9 10.305a6 6 0 0 0 -2.031.298 6 6 0 0 0 2.031.282c.69.02 1.377-.082 2.031-.303a6.2 6.2 0 0 0 -2.031-.277" fill="#198ab3"/><path d="m4.457 4.177v.948q.324-.022.647-.022c.691 0 1.401.074 2.018.228a1.994 1.994 0 1 1 3.758 0 8.5 8.5 0 0 1 2.017-.228q.324 0 .647.022v-1.002l-.145-.055-1.111-.363-.291-.707.563-1.199-.727-.727-.145.073-1.034.525-.707-.291-.456-1.254h-1.036l-.055.145-.363 1.111-.707.291-1.183-.565-.727.727.073.145.529 1.036-.291.707-1.274.456z" fill="url(#e)"/></svg>