<svg xmlns="http://www.w3.org/2000/svg" width="18" height="18" viewBox="0 0 18 18"><path fill="currentColor" d="M14.18 6.49H9.65A4 4 0 0 0 5.9 10h1.42a2.49 2.49 0 0 1 2.33-2h4.53a2.59 2.59 0 0 1 2.44 2.71 2.6 2.6 0 0 1-2.44 2.72H9.65a2.49 2.49 0 0 1-2.33-2H5.9A4 4 0 0 0 9.65 15h4.53A4.06 4.06 0 0 0 18 10.74a4.06 4.06 0 0 0-3.82-4.25"/><path fill="currentColor" d="M8.35 10H3.82a2.59 2.59 0 0 1-2.44-2.74 2.6 2.6 0 0 1 2.44-2.72h4.53a2.49 2.49 0 0 1 2.33 2h1.42A4 4 0 0 0 8.35 3H3.82A4.06 4.06 0 0 0 0 7.26a4.06 4.06 0 0 0 3.82 4.25h4.53A4 4 0 0 0 12.1 8h-1.42a2.49 2.49 0 0 1-2.33 2"/><path fill="currentColor" d="M8.35 10h-3v1.54h3A4 4 0 0 0 12.1 8h-1.42a2.49 2.49 0 0 1-2.33 2"/></svg>