<svg height="18" viewBox="0 0 18 18" width="18" xmlns="http://www.w3.org/2000/svg" xmlns:xlink="http://www.w3.org/1999/xlink"><linearGradient id="a" gradientUnits="userSpaceOnUse" x1="11.95" x2="11.95" y1="15" y2="6.49"><stop offset="0" stop-color="#5e9624"/><stop offset=".01" stop-color="#5e9724"/><stop offset=".35" stop-color="#6cab29"/><stop offset=".68" stop-color="#73b82c"/><stop offset="1" stop-color="#76bc2d"/></linearGradient><linearGradient id="b" gradientUnits="userSpaceOnUse" x1="6.05" x2="6.05" y1="11.51" y2="3"><stop offset="0" stop-color="#0078d4"/><stop offset=".82" stop-color="#5ea0ef"/></linearGradient><linearGradient id="c" gradientUnits="userSpaceOnUse" x1="10.51" x2="7.93" y1="6.82" y2="10.5"><stop offset="0" stop-color="#005ba1"/><stop offset=".14" stop-color="#035da3" stop-opacity=".97"/><stop offset=".3" stop-color="#0b63aa" stop-opacity=".88"/><stop offset=".47" stop-color="#196eb6" stop-opacity=".73"/><stop offset=".65" stop-color="#2d7cc6" stop-opacity=".52"/><stop offset=".84" stop-color="#468edb" stop-opacity=".26"/><stop offset="1" stop-color="#5ea0ef" stop-opacity="0"/></linearGradient><path d="m14.18 6.49h-4.53a4 4 0 0 0 -3.75 3.51h1.42a2.49 2.49 0 0 1 2.33-2h4.53a2.59 2.59 0 0 1 2.44 2.71 2.6 2.6 0 0 1 -2.44 2.72h-4.53a2.49 2.49 0 0 1 -2.33-2h-1.42a4 4 0 0 0 3.75 3.57h4.53a4.06 4.06 0 0 0 3.82-4.26 4.06 4.06 0 0 0 -3.82-4.25" fill="url(#a)"/><path d="m8.35 10h-4.53a2.59 2.59 0 0 1 -2.44-2.74 2.6 2.6 0 0 1 2.44-2.72h4.53a2.49 2.49 0 0 1 2.33 2h1.42a4 4 0 0 0 -3.75-3.54h-4.53a4.06 4.06 0 0 0 -3.82 4.26 4.06 4.06 0 0 0 3.82 4.25h4.53a4 4 0 0 0 3.75-3.51h-1.42a2.49 2.49 0 0 1 -2.33 2" fill="url(#b)"/><path d="m8.35 10h-3v1.54h3a4 4 0 0 0 3.75-3.54h-1.42a2.49 2.49 0 0 1 -2.33 2" fill="url(#c)"/></svg>