<svg viewBox="0 0 128 128" xmlns="http://www.w3.org/2000/svg"><path d="m119.427 32.001-17.35-10.015-16.687 9.634 17.346 10.016zm-94.164 9.636 55.428-32.002-16.691-9.635-55.427 32.001zm21.391 32.381 17.346 10.015 17.35-10.015-17.35-10.016z" fill="#e0684b"/><path d="m46.654 74.018 17.346-10.016 17.35 10.016v-20.036l-17.35-10.015-17.346 10.015z" fill="#bb464b"/><path d="m81.35 74.018-17.35 10.015v24.696l38.737-22.366v-44.726l-21.387 12.345z" fill="#e0ded8"/><path d="m46.654 74.018 17.346 10.015v24.696l-38.737-22.366v-44.726l21.391 12.345z" fill="#d5d2ca"/><path d="m81.35 53.982-17.35-10.015-17.346 10.015-21.39-12.345 55.426-32.002 21.385 12.35-16.685 9.636 17.346 10.016z" fill="#fff"/><path d="m25.263 86.363v-44.726l-16.69-9.637v64l55.427 32 55.427-32.001v-63.999l-16.69 9.636v44.726l-38.737 22.368z" fill="#bb464b"/></svg>