<svg xmlns="http://www.w3.org/2000/svg" viewBox="0 0 128 128">
  <defs>
    <mask id="wko">
      <rect width="128" height="128" fill="white"/>
      <path fill="black" d="M81.35 53.982 64 43.967 46.654 53.982l-21.39-12.345L80.69 9.635l21.385 12.35-16.685 9.636 17.346 10.016z"/>
    </mask>
  </defs>
  <g fill="currentColor" mask="url(#wko)">
    <path fill="currentColor" d="m119.427 32.001-17.35-10.015L85.39 31.62l17.346 10.016zm-94.164 9.636L80.691 9.635 64 0 8.573 32.001zm21.391 32.381L64 84.033l17.35-10.015L64 64.002z"/>
    <path fill="currentColor" d="M46.654 74.018 64 64.002l17.35 10.016V53.982L64 43.967 46.654 53.982z"/>
    <path fill="currentColor" d="M81.35 74.018 64 84.033v24.696l38.737-22.366V41.637L81.35 53.982z"/>
    <path fill="currentColor" d="M46.654 74.018 64 84.033v24.696L25.263 86.363V41.637l21.391 12.345z"/>
  </g>
  <path fill="currentColor" d="M25.263 86.363V41.637L8.573 32v64L64 128l55.427-32.001V32l-16.69 9.636v44.726L64 108.73z"/>
</svg>