<svg viewBox="0 0 24 24" xmlns="http://www.w3.org/2000/svg" fill="#670000"><path d="m5.89 2.227a.28.28 0 0 1 .266.076l5.063 5.062c.54.54.509 1.652-.031 2.192l8.771 8.77c1.356 1.355-.36 3.097-1.73 1.728l-8.772-8.77c-.54.54-1.651.571-2.191.031l-5.063-5.06c-.304-.304.304-.911.608-.608l3.714 3.713 1.065-1.064-3.715-3.715c-.304-.304.304-.911.607-.607l3.715 3.714 1.067-1.066-3.715-3.713c-.228-.228.057-.626.342-.683zm6.11-2.227c-6.626 0-12 5.375-12 12s5.374 12 12 12c6.625 0 12-5.375 12-12s-5.375-12-12-12z"/></svg>