<svg height="18" viewBox="0 0 18 18" width="18" xmlns="http://www.w3.org/2000/svg" xmlns:xlink="http://www.w3.org/1999/xlink"><linearGradient id="a" gradientUnits="userSpaceOnUse" x1=".628" x2="7.329" y1="2.382" y2="8.006"><stop offset=".466" stop-color="#ffcd0f"/><stop offset=".991" stop-color="#e67505"/></linearGradient><path d="m.25.25h17.5v17.5h-17.5z" fill="none"/><path d="m10.418 7.836a7.8 7.8 0 0 1 4.109-1.163 4.67 4.67 0 0 0 -4.807-4.476 4.85 4.85 0 0 0 -4.612 3.108c2.067 0 3.939.964 5.311 2.532z" fill="#58aafe"/><path d="m6.723 13.879h5.99c-.08-2.368-.943-4.498-2.295-6.043a7.82 7.82 0 0 0 -3.694 6.043z" fill="#2052cb"/><path d="m10.418 7.836c-1.371-1.567-3.244-2.532-5.311-2.532a4.4 4.4 0 0 0 -2.736 1.409 4.4 4.4 0 0 0 -1.148 2.854 4.483 4.483 0 0 0 4.651 4.312q.204.015.407 0h.441a7.82 7.82 0 0 1 3.694-6.043zm6.375.027a3.7 3.7 0 0 0 -2.267-1.189 7.8 7.8 0 0 0 -4.109 1.163c1.351 1.545 2.215 3.674 2.295 6.043h1.095q.097.015.194 0a3.75 3.75 0 0 0 3.748-3.641 3.7 3.7 0 0 0 -.957-2.374z" fill="#367af2"/><path d="m17.198 17.775h-8.35c-.268 0-.425-.425-.277-.649l2.875-4.193a.3.3 0 0 0 .061-.19v-2.772q-.004-.066-.051-.114c-.047-.048-.071-.048-.114-.051h-.156a.33.33 0 0 1 -.233-.096.33.33 0 0 1 -.096-.233v-.147c0-.087.035-.171.096-.233a.33.33 0 0 1 .233-.097h3.664a.33.33 0 0 1 .33.33v.147a.33.33 0 0 1 -.33.329h-.156a.163.163 0 0 0 -.165.165v2.781c0 .068.02.135.061.19l2.875 4.184c.147.217-.009.649-.268.649z" fill="#16bbda"/><path d="m9.81 16.649 2.183-3.188a.8.8 0 0 0 .173-.45v-1.282a.252.252 0 0 1 .251-.251h1.248a.252.252 0 0 1 .251.251v1.369c0 .109.033.214.096.304l2.235 3.248q.027.044.029.097c.002.053-.006.068-.022.099a.2.2 0 0 1 -.164.107h-6.063a.19.19 0 0 1 -.265-.186.2.2 0 0 1 .049-.117v-.002z" fill="#fff"/><path d="m16.245 16.649-1.216-1.767c.031.047.417.651-.367.651-.987 0-1.645-.822-2.444-.822-.686 0-1.275.281-1.675.866l-.734 1.073a.19.19 0 0 0 -.014.239.188.188 0 0 0 .23.064h6.063a.2.2 0 0 0 .164-.107.2.2 0 0 0 -.008-.195z" fill="#6fe8f5"/><path d="m8.923 3.414a.4.4 0 0 0 -.199-.151l-1.042-.338a2.151 2.151 0 0 1 -1.337-1.358l-.338-1.041a.4.4 0 0 0 -.151-.199.405.405 0 0 0 -.474 0h-.003a.43.43 0 0 0 -.151.2l-.338 1.041a2.14 2.14 0 0 1 -1.36 1.358l-1.042.338-.02.005a.42.42 0 0 0 -.275.388.419.419 0 0 0 .275.388l1.042.338a2.14 2.14 0 0 1 1.36 1.358l.338 1.041a.42.42 0 0 0 .389.275.4.4 0 0 0 .238-.076q.011-.008.02-.016a.4.4 0 0 0 .13-.184l.338-1.041q.027-.083.061-.163a2.15 2.15 0 0 1 1.298-1.201l1.042-.338a.42.42 0 0 0 .275-.388.4.4 0 0 0 -.076-.237zm-4.006 4.336-.744-.242a1.53 1.53 0 0 1 -.957-.97l-.242-.744a.29.29 0 0 0 -.277-.196.298.298 0 0 0 -.278.196l-.242.744a1.53 1.53 0 0 1 -.971.97l-.744.242-.016.004a.29.29 0 0 0 -.196.277q0 .093.054.17a.3.3 0 0 0 .142.107l.744.242a1.54 1.54 0 0 1 .971.97l.242.744q.03.088.108.142a.296.296 0 0 0 .448-.142l.242-.744a1.53 1.53 0 0 1 .971-.974l.744-.242a.29.29 0 0 0 .196-.277.29.29 0 0 0 -.196-.277z" fill="url(#a)"/></svg>