<svg xmlns="http://www.w3.org/2000/svg" width="24" height="24"><path fill="currentColor" d="M7.3 15.7A5.92 5.92 0 0 1 6 12H2a9.9 9.9 0 0 0 2.46 6.54zM12 2a10 10 0 0 0-6.55 2.45l2.84 2.84A6 6 0 0 1 18 12h4A10 10 0 0 0 12 2"/><circle cx="8" cy="19" r="2" fill="currentColor"/><circle cx="19" cy="16" r="2" fill="currentColor"/><circle cx="14" cy="20" r="2" fill="currentColor"/><path fill="currentColor" d="M6 12H2a10 10 0 0 0 .44 2.91l4-.79A6 6 0 0 1 6 12"/><circle cx="5" cy="8" r="2" fill="currentColor"/></svg>