<svg height="24" width="24" xmlns="http://www.w3.org/2000/svg"><path d="m7.3 15.7a5.92 5.92 0 0 1 -1.3-3.7h-4a9.9 9.9 0 0 0 2.46 6.54zm4.7-13.7a10 10 0 0 0 -6.55 2.45l2.84 2.84a6 6 0 0 1 9.71 4.71h4a10 10 0 0 0 -10-10" fill="#669df6"/><circle cx="8" cy="19" fill="#aecbfa" r="2"/><circle cx="19" cy="16" fill="#4285f4" r="2"/><circle cx="14" cy="20" fill="#669df6" r="2"/><path d="m6 12h-4a10 10 0 0 0 .44 2.91l4-.79a6 6 0 0 1 -.44-2.12" fill="#4285f4"/><circle cx="5" cy="8" fill="#aecbfa" r="2"/><path d="m17.61 9.88a6 6 0 0 1 .39 2.12h4a10 10 0 0 0 -.43-2.91z" fill="#4285f4"/></svg>