<svg xmlns="http://www.w3.org/2000/svg" width="24" height="24"><g data-name="Product Icons"><path d="M7.3 15.7A5.92 5.92 0 0 1 6 12H2a9.9 9.9 0 0 0 2.46 6.54ZM12 2a10 10 0 0 0-6.55 2.45l2.84 2.84A6 6 0 0 1 18 12h4A10 10 0 0 0 12 2" fill="#669df6"/><circle id="Oval-2" cx="8" cy="19" r="2" fill="#aecbfa"/><circle id="Oval-2-2" cx="19" cy="16" r="2" data-name="Oval-2" fill="#4285f4"/><circle id="Oval-2-3" cx="14" cy="20" r="2" data-name="Oval-2" fill="#669df6"/><path d="M6 12H2a10 10 0 0 0 .44 2.91l4-.79A6 6 0 0 1 6 12" fill="#4285f4"/><g data-name="colored-32/network-tiers"><circle id="Oval-2-4" cx="5" cy="8" r="2" data-name="Oval-2" fill="#aecbfa"/></g><path d="M17.61 9.88A6 6 0 0 1 18 12h4a10 10 0 0 0-.43-2.91Z" fill="#4285f4"/></g></svg>