<svg xmlns="http://www.w3.org/2000/svg" width="18" height="18" viewBox="0 0 18 18"><defs><mask id="a"><path fill="#fff" d="M0 0h18v18H0z"/><path d="M5.808 5.913a11.16 11.16 0 0 1 7.642-3.071A7.2 7.2 0 0 0 12.176 1.6a12.4 12.4 0 0 0-4.026.95 10.6 10.6 0 0 0-3.5 2.414 2.35 2.35 0 0 1 1.158.949M2.2 8.841a16 16 0 0 0-.717 2.25 8 8 0 0 0 .534.791 7 7 0 0 0 .475.555 15.3 15.3 0 0 1 .928-2.975 2.33 2.33 0 0 1-1.22-.621" opacity=".6"/><circle cx="13.151" cy="11.507" r="1.941"/><circle cx="4.131" cy="14.377" r="1.528"/></mask></defs><g fill="currentColor" mask="url(#a)"><path d="M12.257 13.19A7.289 7.289 0 1 1 3.323 1.67l.077-.056a7.289 7.289 0 0 1 8.857 11.576"/><path d="M3.039 4.952a10.2 10.2 0 0 1-.591-2.526 7.3 7.3 0 0 0-.948 1.25A11.4 11.4 0 0 0 1.991 5.7a2.33 2.33 0 0 1 1.048-.748" opacity=".55"/><circle cx="3.825" cy="7.157" r="2.343"/><path d="M7.241 11.435a1.52 1.52 0 0 1 .459-1.088 10.3 10.3 0 0 1-2.165-1.592 2.34 2.34 0 0 1-1.28.7 10 10 0 0 0 1.245 1.1 10.6 10.6 0 0 0 1.755 1.07 1.4 1.4 0 0 1-.014-.19m5.401.182a10.3 10.3 0 0 1-2.362-.275c0 .031.005.062.005.093a1.52 1.52 0 0 1-.433 1.065 12 12 0 0 0 2.925.209 7.2 7.2 0 0 0 .987-1.152 11 11 0 0 1-1.122.06" opacity=".55"/><circle cx="8.763" cy="11.435" r="1.522"/><circle cx="3.825" cy="7.157" r="2.343"/><circle cx="8.763" cy="11.435" r="1.522"/><path d="m17.5 10.571-.317-.958h-1.287l-.485-.566.154-1.281-.895-.45-.112.112-.8.8-.744-.052-.8-1.02-.958.317-.006.151V8.76l-.566.485-1.26-.157-.449.894.112.112.8.8-.051.743-1.037.81.317.957.151.006h1.136l.485.566-.154 1.281.895.449.112-.112.8-.8.744.052.8 1.02.958-.317.006-.151v-1.135l.566-.486 1.281.154.45-.894-.112-.113-.8-.8.052-.744zm-3.739 2.779a1.941 1.941 0 1 1 1.233-2.45 1.94 1.94 0 0 1-1.233 2.45"/><path d="M7.613 14.753v-.794l-.113-.041-.85-.279-.221-.539.432-.919-.561-.562-.112.056-.794.4-.543-.223-.344-.952h-.794l-.042.111-.278.85-.544.223-.905-.432-.557.557.055.112.4.794-.222.543L.649 14v.8l.111.042.85.279.223.543-.432.919.557.557.111-.056.794-.4.543.222.349.962h.794l.041-.112.279-.85.543-.222.92.431.557-.557-.056-.111-.4-.794.223-.543zm-3.482 1.153a1.529 1.529 0 1 1 1.528-1.529 1.53 1.53 0 0 1-1.528 1.529"/></g></svg>