<svg viewBox="0 0 24 24" xmlns="http://www.w3.org/2000/svg"><path d="m18.172.625a.7.7 0 0 0 -.131.025l-3.946 1.168a.654.654 0 0 0 -.441.818l5.113 17.354c.104.35.468.545.818.442l3.946-1.156a.654.654 0 0 0 .441-.818l-5.114-17.366a.65.65 0 0 0 -.686-.466m-17.51.427a.665.665 0 0 0 -.662.661v18.096c0 .363.299.661.662.661h4.114a.665.665 0 0 0 .662-.662v-18.095a.665.665 0 0 0 -.662-.662zm6.944 0a.665.665 0 0 0 -.662.662v18.095c0 .363.298.661.662.661h4.114a.673.673 0 0 0 .662-.662v-18.095a.665.665 0 0 0 -.662-.662zm-7.243 20.378a.363.363 0 0 0 -.363.363v1.22c0 .195.156.364.363.364h23.272a.363.363 0 0 0 .363-.363v-1.22a.363.363 0 0 0 -.363-.364z"/></svg>