<svg xmlns="http://www.w3.org/2000/svg" xmlns:xlink="http://www.w3.org/1999/xlink" width="16" height="16" viewBox="0 0 16 16">
  <defs>
    <mask id="wko">
      <rect width="16" height="16" fill="white"/>
      <path fill="black" d="M10.273 8.588v-.54l-.028-.027-.531-.186-.136-.371.263-.564.028-.063-.169-.176-.2-.208-.069.036-.519.277-.358-.105-.227-.6h-.512l-.026.027-.179.551-.363.142-.6-.3-.367.378.035.071.266.539-.149.371-.632.231v.54l.074.023.554.19.149.372-.277.624.367.386.069-.036.52-.276.357.154.228.651h.519l.022-.077.183-.575.353-.154.607.295.367-.381-.035-.073-.269-.534.1-.377zm-2.187.5a.757.757 0 1 1 .725-.761v.003a.745.745 0 0 1-.725.756z"/>
    </mask>
  </defs>
  <g fill="currentColor" mask="url(#wko)">
    <ellipse cx="7.961" cy="1.725" fill="currentColor" rx="1.4" ry="1.454"/>
    <path fill="currentColor" d="M9.694 1.826a1.9 1.9 0 0 1-.172.689 6.32 6.32 0 0 1 4.6 6.147 6.5 6.5 0 0 1-.892 3.287 1.7 1.7 0 0 1 .571.4 7.23 7.23 0 0 0 1.006-3.685 7.02 7.02 0 0 0-5.113-6.838"/>
    <ellipse cx="12.562" cy="13.62" fill="currentColor" rx="1.4" ry="1.454"/>
    <ellipse cx="3.116" cy="13.62" fill="currentColor" rx="1.4" ry="1.454"/>
    <path fill="currentColor" d="M10.931 14.238a5.89 5.89 0 0 1-6.131-.171 1.8 1.8 0 0 1-.3.645 6.56 6.56 0 0 0 6.793.135 1.8 1.8 0 0 1-.362-.609m-8.21-2.377a6.5 6.5 0 0 1-.841-3.2 6.324 6.324 0 0 1 4.53-6.128 1.8 1.8 0 0 1-.18-.687A7.02 7.02 0 0 0 1.2 8.662a7.2 7.2 0 0 0 .9 3.5 1.7 1.7 0 0 1 .621-.301"/>
    <path fill="currentColor" d="M10.84 12.012a2.455 2.455 0 0 0 2.36-2.406 2.406 2.406 0 0 0-2.027-2.366 3.037 3.037 0 0 0-5.916-.9 2.85 2.85 0 0 0 .478 5.672z"/>
  </g>
</svg>