<svg xmlns="http://www.w3.org/2000/svg" width="18" height="18" viewBox="0 0 18 18"><path fill="currentColor" d="M8.736 5.229H6.62a2.644 2.644 0 0 0-.41 5.253 2.8 2.8 0 0 1 .027-.982 1.67 1.67 0 0 1 .383-3.3h2.116a1.675 1.675 0 0 1 0 3.35h-.582a1.3 1.3 0 0 0-.124.529 1.2 1.2 0 0 0 .084.441h.622a2.645 2.645 0 0 0 0-5.289z"/><path fill="currentColor" d="M11.79 7.468a3 3 0 0 1 .031.405 2.7 2.7 0 0 1-.058.577 1.671 1.671 0 0 1-.383 3.3H9.264a1.675 1.675 0 0 1 0-3.35h.582a1.2 1.2 0 0 0 .04-.97h-.622a2.645 2.645 0 0 0 0 5.289h2.116a2.644 2.644 0 0 0 .41-5.253z"/><path fill="currentColor" d="m9-.025-7.85 4.49v8.97L9 17.975l7.85-4.49v-9zm6.4 12.57-6.4 3.7-6.4-3.661V5.355l6.4-3.7 6.4 3.71z"/><path fill="currentColor" d="M9 0 1.15 4.49l1.45.89L9 1.68l6.4 3.7 1.45-.89z"/></svg>