<svg height="18" viewBox="0 0 18 18" width="18" xmlns="http://www.w3.org/2000/svg" xmlns:xlink="http://www.w3.org/1999/xlink"><linearGradient id="a"><stop offset="0" stop-color="#ccc"/><stop offset=".123" stop-color="#d7d7d7"/><stop offset="1" stop-color="#fcfcfc"/></linearGradient><linearGradient id="b" gradientUnits="userSpaceOnUse" x1="7.243" x2="7.232" xlink:href="#a" y1="9.904" y2="8.458"/><linearGradient id="c" gradientUnits="userSpaceOnUse" x1="9.337" x2="9.337" xlink:href="#a" y1="11.349" y2="10.053"/><radialGradient id="d" cx="8.9215" cy="8.9941" gradientUnits="userSpaceOnUse" r="3.1026"><stop offset=".183" stop-color="#5ea0ef"/><stop offset="1" stop-color="#0078d4"/></radialGradient><path d="m3.236 9q-.23.349-.436.7a22 22 0 0 0 2.512 2.992 22 22 0 0 0 2.988 2.508q.348-.207.7-.438a20.5 20.5 0 0 1 -3.165-2.6 20.6 20.6 0 0 1 -2.599-3.162m-1.342-7.107a2.57 2.57 0 0 1 1.874-.648 6.9 6.9 0 0 1 2.319.469 13.3 13.3 0 0 1 2.231 1.08q.341-.234.682-.448a14.4 14.4 0 0 0 -2.66-1.327c-2.181-.796-3.946-.672-4.969.351-1.487 1.488-1.009 4.476.968 7.63q.219-.345.461-.7c-1.613-2.709-2.069-5.244-.906-6.407" fill="#b3b3b3"/><path d="m3.77 17.5a3.28 3.28 0 0 1 -2.4-.871c-2.07-2.069-.335-7.04 3.942-11.318a18.3 18.3 0 0 1 6.348-4.291c2.181-.8 3.946-.672 4.969.35 2.068 2.068.336 7.039-3.941 11.317-3.056 3.055-6.466 4.813-8.918 4.813m10.462-16.255a6.9 6.9 0 0 0 -2.319.469 17.6 17.6 0 0 0 -6.078 4.12c-3.852 3.852-5.657 8.555-3.941 10.271s6.419-.089 10.271-3.941 5.657-8.556 3.941-10.271a2.57 2.57 0 0 0 -1.874-.648" fill="#5ea0ef"/><path d="m2.8 8.303.692 1.072-.554.517-.842-1.293zm12.25-.196a22 22 0 0 0 -2.362-2.8 21.7 21.7 0 0 0 -3.006-2.513q-.341.204-.682.431a20.7 20.7 0 0 1 3.165 2.609 20.6 20.6 0 0 1 2.4 2.877l.635.989c1.613 2.712 2.069 5.247.906 6.41s-3.7.707-6.41-.905q-.348.242-.7.459a10.45 10.45 0 0 0 5.23 1.84 3.28 3.28 0 0 0 2.4-.871c1.439-1.44 1.024-4.287-.8-7.327l.009-.005-.116-.182c-.024-.039-.042-.076-.066-.115v.006z" fill="#b3b3b3"/><path d="m10.824 11.448a3.1 3.1 0 1 1 -3.8-4.9l.031-.024a3.1 3.1 0 0 1 3.771 4.927" fill="url(#d)"/><circle cx="7.235" cy="8.88" fill="url(#b)" r=".997"/><circle cx="9.337" cy="10.701" fill="url(#c)" r=".648"/><circle cx="10.814" cy="9.094" fill="#fff" r=".688"/><path d="m6.238 10.555a4 4 0 0 0 .227.336 3 3 0 0 0 .2.237 6.5 6.5 0 0 1 .395-1.266 1 1 0 0 1 -.52-.265 7 7 0 0 0 -.302.958m.662-2.613a4.4 4.4 0 0 1 -.252-1.075 3 3 0 0 0 -.4.532 5 5 0 0 0 .208.862 1 1 0 0 1 .444-.319m1.063 1.618a1 1 0 0 1 -.545.3 4.4 4.4 0 0 0 .53.469 4.6 4.6 0 0 0 .747.456 1 1 0 0 1 -.006-.084.65.65 0 0 1 .2-.463 4.4 4.4 0 0 1 -.926-.678m2.02 1.101v.04a.64.64 0 0 1 -.185.453 5 5 0 0 0 1.246.089 3 3 0 0 0 .42-.491 5 5 0 0 1 -.478.027 4.3 4.3 0 0 1 -1.003-.118m.375-2.052a9.6 9.6 0 0 1 -1.191-1.034 5 5 0 0 1 2.165-.531 3 3 0 0 0 -.542-.528 5.3 5.3 0 0 0 -1.714.405c-.119.05-.223.125-.337.186l-.01-.007a6 6 0 0 1 -.724-1.067 3 3 0 0 0 -.4.153 6.4 6.4 0 0 0 .756 1.133 4.6 4.6 0 0 0 -.775.634 1 1 0 0 1 .491.4 4.3 4.3 0 0 1 .713-.553 10 10 0 0 0 1.344 1.17.67.67 0 0 1 .224-.361m1.495.891-.012-.006-.108-.059-.02-.011-.1-.054-.024-.013-.115-.066a.66.66 0 0 1 -.232.338l.136.078.031.017.127.071.012.007c.1.055.208.111.315.166a3 3 0 0 0 .1-.407z" fill="#f2f2f2" opacity=".55"/><g fill="#fff"><circle cx="7.235" cy="8.88" r=".997"/><circle cx="9.337" cy="10.701" r=".648"/></g></svg>