<svg xmlns="http://www.w3.org/2000/svg" fill="none" viewBox="0 0 32 32"><radialGradient id="b" cx="13.01" cy="10.81" r="19.235" gradientUnits="userSpaceOnUse"><stop offset="0" stop-color="#28254a" stop-opacity=".883"/><stop offset=".983" stop-color="#03042b"/></radialGradient><clipPath id="a"><path d="M0 0h32v31.2H0z"/></clipPath><g clip-path="url(#a)"><path fill="currentColor" d="M30.76 1.253H1.253v28.694H30.76z"/><path fill="currentColor" fill-rule="evenodd" d="M0 5.747v19.76C0 28.653 2.427 31.2 5.587 31.2h20.706c3.16 0 5.72-2.56 5.72-5.707V5.707A5.736 5.736 0 0 0 26.28 0H5.587C2.427 0 0 2.56 0 5.707zm25.867-4.4c2.546 0 4.786 2.093 4.786 4.64V24.96c0 2.547-2.066 4.893-4.613 4.893H5.96c-2.547 0-4.613-2.16-4.613-4.706V6.253c0-2.533 2.066-4.906 4.6-4.906z" clip-rule="evenodd"/><path fill="currentColor" d="M18.093 7.387 8.72 16.76l-1.187 4.787 4.774-1.2 9.373-9.374z"/><path fill="currentColor" d="M18.76 23.947c-.093 0-.187 0-.293-.014-.534-.066-.92-.453-1.107-1.066-.013-.054-.027-.094-.04-.147-1.28.68-2.84 1.16-4.413 1.16h-4.84a.267.267 0 0 1-.267-.267c0-.146.12-.266.267-.266h4.84c1.6 0 3.133-.507 4.346-1.174-.066-1.2.4-2.666 1.134-3.293.453-.387.973-.453 1.493-.213.427.2.6.6.493 1.093-.186.813-1.16 1.853-2.546 2.693.013.094.04.187.066.267.134.427.347.653.667.693 1.187.147 2.24-.973 2.867-1.626.386-.414.56-.6.786-.56a.32.32 0 0 1 .24.173c.107.2 0 .427-.186.827-.147.32-.427.92-.307 1.106.04.067.16.094.333.094.36 0 1.454-.814 1.547-1.094.04-.146.187-.213.333-.173s.214.187.174.333c-.16.534-1.467 1.467-2.054 1.467-.373 0-.64-.12-.786-.347-.214-.346-.08-.813.106-1.253-.666.667-1.653 1.587-2.853 1.587m.507-4.907c-.187 0-.374.08-.547.227-.547.466-.933 1.6-.96 2.573 1.16-.747 1.933-1.613 2.067-2.213.066-.32-.067-.427-.2-.494a.9.9 0 0 0-.36-.093"/></g></svg>