<svg height="64" viewBox="0 0 64 64" width="64" xmlns="http://www.w3.org/2000/svg"><g fill="none" fill-rule="evenodd"><path d="m0 0h64v64h-64z" fill="#7aa116"/><path d="m35 32h6v-2h-6zm12 0h4v-2h-4zm-12-4h10v-2h-10zm-21 23c-1.102 0-2-.897-2-2s.898-2 2-2c1.103 0 2 .897 2 2s-.897 2-2 2m0-11c-1.102 0-2-.897-2-2a2 2 0 0 1 2-1.993c1.103 0 2 .894 2 1.993 0 1.103-.897 2-2 2m0-11c-1.102 0-2-.897-2-2s.898-2 2-2c1.103 0 2 .897 2 2s-.897 2-2 2m0-11c-1.047 0-2-.953-2-2s.953-2 2-2 2 .953 2 2-.953 2-2 2m28 21v-2h-17v-21a1 1 0 0 0 -1-1h-6.148c-.459-1.7-2.029-3-3.852-3-2.168 0-4 1.832-4 4s1.832 4 4 4c1.823 0 3.393-1.3 3.852-3h5.148v9h-5.142c-.447-1.72-1.999-3-3.858-3-2.206 0-4 1.794-4 4s1.794 4 4 4c1.859 0 3.411-1.28 3.858-3h5.142v9h-5.142c-.448-1.716-1.999-2.993-3.858-2.993a4 4 0 0 0 -4 3.993c0 2.206 1.794 4 4 4 1.859 0 3.411-1.28 3.858-3h5.142v9h-5.142c-.447-1.72-1.999-3-3.858-3-2.206 0-4 1.794-4 4s1.794 4 4 4c1.859 0 3.411-1.28 3.858-3h6.142a1 1 0 0 0 1-1v-10zm3 0h6v-2h-6zm2-11h4v-2h-4zm0-6v-3.586l3.586 3.586zm6.989.938a1 1 0 0 0 -.053-.259q-.014-.047-.032-.093a1 1 0 0 0 -.197-.293l-7-7a1 1 0 0 0 -.293-.195c-.03-.015-.062-.023-.094-.035a1 1 0 0 0 -.255-.058c-.023-.001-.042-.005-.065-.005h-14a1 1 0 0 0 -1 1v19h2v-18h12v6a1 1 0 0 0 1 1h6v24h-19v-7h-2v8a1 1 0 0 0 1 1h21a1 1 0 0 0 1-1v-26c0-.021-.01-.041-.011-.062" fill="#fff"/></g></svg>