<svg viewBox="0 0 24 24" xmlns="http://www.w3.org/2000/svg" fill="#F2CC38"><path d="m12.012 0c-4.165 0-7.553 3.388-7.553 7.553 0 1.576.494 3.106 1.412 4.4l.211.281 3.93 5.555s.47.775 1.529.775h.941c1.036 0 1.53-.775 1.53-.775l3.93-5.555.187-.28a7.43 7.43 0 0 0 1.412-4.401c.023-4.165-3.365-7.553-7.53-7.553zm0 3.693a3.837 3.837 0 0 1 3.836 3.836c0 .824-.26 1.578-.73 2.237l-.212.28-2.894 4.095-2.895-4.07-.21-.305a3.848 3.848 0 0 1 -.731-2.237 3.837 3.837 0 0 1 3.836-3.836zm-2.117 18.26c0 1.106.893 2.023 2.07 2.047 1.223 0 2.117-.917 2.117-2.059 0-1.14-.894-2.058-2.094-2.058s-2.093.917-2.093 2.07z"/></svg>