<svg viewBox="0 0 128 128" xmlns="http://www.w3.org/2000/svg"><path d="m118.766 95.82c.89-1.543 1.441-3.28 1.441-4.843v-54.197c0-1.558-.55-3.297-1.441-4.84l-55.32 31.94zm0 0" fill="#00599c"/><path d="m68.36 126.586 46.933-27.094c1.352-.781 2.582-2.129 3.473-3.672l-55.32-31.94-55.326 31.94c.89 1.543 2.121 2.89 3.473 3.672l46.933 27.094c2.703 1.562 7.13 1.562 9.832 0zm0 0" fill="#004482"/><path d="m118.766 31.941c-.891-1.546-2.121-2.894-3.473-3.671l-46.934-27.098c-2.703-1.563-7.129-1.563-9.832 0l-46.933 27.098c-2.704 1.558-4.914 5.39-4.914 8.51v54.196c0 1.562.55 3.3 1.441 4.843l55.324-31.939zm0 0" fill="#659ad2"/><path d="m63.445 26.035c-20.867 0-37.843 16.977-37.843 37.844s16.976 37.844 37.843 37.844c13.465 0 26.024-7.247 32.77-18.91l-16.375-9.478c-3.38 5.84-9.66 9.465-16.395 9.465-10.433 0-18.922-8.488-18.922-18.922s8.49-18.922 18.922-18.922c6.73 0 13.017 3.629 16.39 9.465l16.38-9.477c-6.75-11.664-19.305-18.91-32.77-18.91zm29.435 31.535v4.207h-4.207v4.203h4.207v4.207h4.203v-4.207h4.203v-4.203h-4.203v-4.207zm15.766 0v4.207h-4.204v4.203h4.204v4.207h4.207v-4.207h4.203v-4.203h-4.203v-4.207z" fill="#fff"/></svg>