<svg viewBox="0 0 128 128" xmlns="http://www.w3.org/2000/svg"><path d="m63.443-.5c-1.855 0-3.712.398-5.166 1.238l-46.933 27.098c-2.91 1.676-5.164 5.587-5.164 8.943v54.198c0 1.558.534 3.212 1.347 4.728l-.033.033.192.332c.926 1.607 2.204 3.015 3.658 3.856l46.931 27.094c2.857 1.65 7.252 1.66 10.163.066h.056l.113-.066 46.936-27.094c1.454-.84 2.729-2.25 3.656-3.856s1.508-3.413 1.508-5.093v-54.198c0-1.624-.563-3.366-1.441-4.935v-.04l-.067-.113v-.002c-.927-1.609-2.201-3.017-3.656-3.853l-46.934-27.098c-1.454-.84-3.309-1.238-5.166-1.238zm0 1c1.71 0 3.417.383 4.666 1.105l46.934 27.098c1.246.716 2.43 2 3.283 3.479l.006.007v.002c.854 1.48 1.375 3.149 1.375 4.588v54.198c0 1.445-.521 3.114-1.375 4.593-.854 1.48-2.04 2.767-3.289 3.489l-46.818 27.027h-.002l-.116.066c-2.497 1.444-6.833 1.444-9.332 0l-46.931-27.092c-1.245-.72-2.425-1.999-3.278-3.47l-.011-.02c-.855-1.482-1.375-3.15-1.375-4.594v-54.197c0-2.884 2.165-6.636 4.664-8.076l46.933-27.098c1.25-.722 2.957-1.105 4.666-1.105zm-.498 25.033v.053c-20.903.276-37.843 17.326-37.843 38.293 0 21.138 17.205 38.344 38.343 38.344 13.645 0 26.368-7.342 33.203-19.16l.25-.432-17.24-9.979-.25.432c-3.29 5.685-9.407 9.217-15.963 9.217-10.161 0-18.422-8.26-18.422-18.422 0-10.163 8.262-18.424 18.422-18.424 6.55 0 12.674 3.536 15.957 9.217l.25.432 17.246-9.977-.25-.434c-6.84-11.819-19.558-19.16-33.203-19.16h-.5zm.5 1.002h.03c13.106.01 25.315 6.999 32.029 18.244l-15.544 8.992c-3.52-5.734-9.776-9.316-16.516-9.316-10.703 0-19.422 8.719-19.422 19.424s8.719 19.421 19.423 19.421c6.744 0 12.994-3.58 16.52-9.317l15.537 8.995c-6.715 11.252-18.94 18.244-32.057 18.244-20.595 0-37.343-16.748-37.343-37.344s16.748-37.343 37.343-37.343zm28.936 30.535v4.207h-4.207v5.203h4.207v4.207h5.201v-4.207h4.203v-5.203h-4.203v-4.207zm15.765 0v4.207h-4.205v5.203h4.205v4.207h5.208v-4.207h4.203v-5.203h-4.203v-4.207zm-14.765 1h3.201v4.207h4.203v3.203h-4.203v4.207h-3.201v-4.207h-4.207v-3.203h4.207zm15.765 0h3.208v4.207h4.203v3.203h-4.203v4.207h-3.208v-4.207h-4.205v-3.203h4.205z" fill="#004482"/></svg>