<svg viewBox="0 0 24 24" xmlns="http://www.w3.org/2000/svg" fill="#009020"><path d="m6.928 16.738v7.233h1.414v-7.233zm10.912 0v7.233h1.414v-7.233zm2.179 0v7.233h1.414v-7.233zm-4.366 0v7.233h1.414v-7.233zm-13.089 0v7.233h1.415v-7.233zm2.183 0v7.233h1.414v-7.233zm19.253.033-.02 7.178-2.16-.008v-1.257h.827v-4.745h-.814v-1.179zm-24-.009.02 7.178 2.16-.008v-1.257h-.827v-4.744h.814v-1.18zm6.928-8.356v7.233h1.414v-7.233zm2.182 0v7.233h1.414v-7.233zm2.181 0v7.233h1.414v-7.233zm4.362 0v7.233h1.414v-7.233zm2.187 0v7.233h1.414v-7.233zm2.179 0v7.233h1.414v-7.233zm-17.455 0v7.233h1.415v-7.233zm2.183 0v7.233h1.414v-7.233zm8.726 0v7.233h1.415v-7.233zm10.527.027-.02 7.178-2.16-.008v-1.257h.827v-4.745h-.814v-1.179zm-24-.003.02 7.178 2.16-.008v-1.257h-.827v-4.744h.814v-1.18zm6.928-8.401v7.233h1.414v-7.233zm8.725 0v7.233h1.414v-7.233zm4.366 0v7.233h1.414v-7.233zm-2.179 0v7.233h1.414v-7.233zm-15.276 0v7.233h1.415v-7.233zm2.183 0v7.233h1.414v-7.233zm19.253.026-.02 7.178-2.16-.009v-1.257h.827v-4.744h-.814v-1.179zm-24-.003.02 7.178 2.16-.008v-1.257h-.827v-4.744h.814v-1.18z"/></svg>