<svg fill="#c00" viewBox="0 0 24 24" xmlns="http://www.w3.org/2000/svg"><path d="m5.94 1.897c-.375.189-.81.117-1.14-.213-.421-.42-.421-1.01 0-1.431a1.14 1.14 0 0 1 1.432 0c.33.33.401.764.213 1.139l3.323 3.324.032.033a3.25 3.25 0 0 1 2.242-.875 3.2 3.2 0 0 1 2.189.843v-.001l3.297-3.225c-.256-.395-.203-.879.156-1.238.421-.337 1.095-.337 1.432 0 .42.42.42 1.01 0 1.431-.297.297-.676.384-1.022.264l-3.273 3.272a.5.5 0 0 1 -.093.076c.327.482.539 1.06.598 1.692h-6.484c0-.635.185-1.217.505-1.701a.5.5 0 0 1 -.084-.067zm-1.057 22.103c-2.441 0-4.462-2.021-4.462-4.463v-7.242c0-2.442 2.021-4.463 4.463-4.463h14.232c2.442 0 4.463 2.02 4.463 4.463v7.242c0 2.442-2.021 4.463-4.463 4.463zm-1.851-10.863v5.642c0 1.347 1.094 2.526 2.526 2.526h12.968c1.348 0 2.527-1.094 2.527-2.526v-5.642c0-1.348-1.095-2.526-2.527-2.526h-12.968c-1.432 0-2.526 1.094-2.526 2.526"/></svg>