<svg xmlns="http://www.w3.org/2000/svg" width="64" height="64" viewBox="0 0 64 64"><title>Icon-Architecture/48/Arch_Amazon-Corretto_48</title><g id="Icon-Architecture/48/Arch_Amazon-Corretto_48" fill="none" fill-rule="evenodd" stroke="none" stroke-width="1"><g id="Icon-Architecture-BG/48/Developer-Tools" fill="#c925d1"><path id="Rectangle" d="M0 0h64v64H0z"/></g><g id="Icon-Service/48/Amazon-Corretto_48" fill="#fff" transform="translate(10 10)"><path id="Fill-3" d="M17.066 5h3V2h-3zm-2 1V1a1 1 0 0 1 1-1h5a1 1 0 0 1 1 1v5a1 1 0 0 1-1 1h-5a1 1 0 0 1-1-1m11 4h3V7h-3zm-2 1V6a1 1 0 0 1 1-1h5a1 1 0 0 1 1 1v5a1 1 0 0 1-1 1h-5a1 1 0 0 1-1-1m-9 2.994h4V10h-4zm-2 1V9a1 1 0 0 1 1-1h6a1 1 0 0 1 1 1v5.994a1 1 0 0 1-1 1h-6a1 1 0 0 1-1-1m7 12.006h15v-2h-15zM6.565 28h2.37a15.1 15.1 0 0 1-.869-5.029V18H6.565C4.296 18 2 19.639 2 22.77 2 25.654 4.047 28 6.565 28m0 2C2.945 30 0 26.757 0 22.77 0 18.911 2.822 16 6.565 16h1.501v-2a1 1 0 0 1 1-1h2.869v2h-1.869v7.971c0 .691.071 1.365.176 2.029h6.824v2h-6.362c1.856 5.777 7.589 10 14.362 10 7.981 0 14-6.031 14-14.029V22h-26v-2h26v-5h-17v-2h18a1 1 0 0 1 1 1v8.971c0 9.138-6.879 16.029-16 16.029-6.697 0-12.486-3.68-15.255-9zm37.416 7.083c0 4.493-9.896 6.917-19.208 6.917S5.565 41.576 5.565 37.083c0-1.241.782-3.042 4.51-4.581l.763 1.848c-2.049.846-3.273 1.868-3.273 2.733 0 2.053 6.547 4.917 17.208 4.917s17.208-2.864 17.208-4.917c0-.865-1.224-1.887-3.272-2.733l.763-1.848c3.727 1.539 4.509 3.34 4.509 4.581"/></g></g></svg>