<svg height="64" viewBox="0 0 64 64" width="64" xmlns="http://www.w3.org/2000/svg"><g fill="none" fill-rule="evenodd"><path d="m0 0h64v64h-64z" fill="#c925d1"/><path d="m17.066 5h3v-3h-3zm-2 1v-5a1 1 0 0 1 1-1h5a1 1 0 0 1 1 1v5a1 1 0 0 1 -1 1h-5a1 1 0 0 1 -1-1m11 4h3v-3h-3zm-2 1v-5a1 1 0 0 1 1-1h5a1 1 0 0 1 1 1v5a1 1 0 0 1 -1 1h-5a1 1 0 0 1 -1-1m-9 2.994h4v-3.994h-4zm-2 1v-5.994a1 1 0 0 1 1-1h6a1 1 0 0 1 1 1v5.994a1 1 0 0 1 -1 1h-6a1 1 0 0 1 -1-1m7 12.006h15v-2h-15zm-13.501 1h2.37a15.1 15.1 0 0 1 -.869-5.029v-4.971h-1.501c-2.269 0-4.565 1.639-4.565 4.77 0 2.884 2.047 5.23 4.565 5.23m0 2c-3.62 0-6.565-3.243-6.565-7.23 0-3.859 2.822-6.77 6.565-6.77h1.501v-2a1 1 0 0 1 1-1h2.869v2h-1.869v7.971c0 .691.071 1.365.176 2.029h6.824v2h-6.362c1.856 5.777 7.589 10 14.362 10 7.981 0 14-6.031 14-14.029v-.971h-26v-2h26v-5h-17v-2h18a1 1 0 0 1 1 1v8.971c0 9.138-6.879 16.029-16 16.029-6.697 0-12.486-3.68-15.255-9zm37.416 7.083c0 4.493-9.896 6.917-19.208 6.917s-19.208-2.424-19.208-6.917c0-1.241.782-3.042 4.51-4.581l.763 1.848c-2.049.846-3.273 1.868-3.273 2.733 0 2.053 6.547 4.917 17.208 4.917s17.208-2.864 17.208-4.917c0-.865-1.224-1.887-3.272-2.733l.763-1.848c3.727 1.539 4.509 3.34 4.509 4.581" fill="#fff" transform="translate(10 10)"/></g></svg>