<svg height="64" viewBox="0 0 64 64" width="64" xmlns="http://www.w3.org/2000/svg"><g fill="none" fill-rule="evenodd"><path d="m0 0h64v64h-64z" fill="#c925d1"/><path d="m21.515 23.063h-2.029v-5c0-.56.454-1.015 1.014-1.015h5v2.03h-2.55l3.268 3.268-1.435 1.434-3.268-3.267zm22.922 8.39-5 12-1.873-.78 5-12zm.8 7.942 2.916-3.332-2.916-3.332 1.527-1.336 3.5 4c.334.382.334.954 0 1.336l-3.5 4zm-7.973-6.664-2.916 3.332 2.916 3.332-1.527 1.336-3.5-4a1.016 1.016 0 0 1 0-1.336l3.5-4zm16.251-12.668v32c0 .56-.454 1.015-1.015 1.015h-23.01a1.016 1.016 0 0 1 -1.015-1.016l.011-9 2.029.002-.01 7.984h20.981v-29.97h-20.986v-2.03h22c.561 0 1.015.455 1.015 1.015m-26.519 7.5a2.506 2.506 0 0 1 2.504-2.504 2.506 2.506 0 0 1 2.504 2.504 2.506 2.506 0 0 1 -2.504 2.504 2.506 2.506 0 0 1 -2.504-2.504m-12.496 23.879a2.506 2.506 0 0 1 -2.504-2.504 2.506 2.506 0 0 1 2.504-2.504 2.506 2.506 0 0 1 2.504 2.504 2.506 2.506 0 0 1 -2.504 2.504m-2.504-17.504a2.506 2.506 0 0 1 2.504-2.504c1.405 0 2.504 1.1 2.504 2.504a2.506 2.506 0 0 1 -2.504 2.504 2.506 2.506 0 0 1 -2.504-2.504m.004-19.438c0-1.378 1.121-2.5 2.5-2.5s2.5 1.122 2.5 2.5-1.121 2.5-2.5 2.5a2.503 2.503 0 0 1 -2.5-2.5m18.515 22.959v-5.526c1.989-.463 3.481-2.241 3.481-4.37a4.5 4.5 0 0 0 -4.496-4.496 4.5 4.5 0 0 0 -4.496 4.496c0 2.129 1.492 3.907 3.482 4.37v5.526c0 .77-.511 1.47-1.301 1.784l-7.77 3.083c-1.296.514-2.253 1.523-2.679 2.735a4.4 4.4 0 0 0 -1.221-.493v-6.26c1.989-.463 3.481-2.241 3.481-4.37 0-2.17-1.466-3.926-3.481-4.376v-10.687c1.992-.463 3.485-2.244 3.485-4.375 0-2.481-2.018-4.5-4.5-4.5a4.505 4.505 0 0 0 -4.5 4.5c0 2.131 1.494 3.912 3.486 4.375v10.693c-1.99.463-3.482 2.241-3.482 4.37s1.492 3.907 3.482 4.37v6.26c-1.99.463-3.482 2.241-3.482 4.37a4.5 4.5 0 0 0 4.496 4.496 4.5 4.5 0 0 0 4.496-4.496c0-.715-.183-1.382-.481-1.983v-.472c0-.983.646-1.874 1.648-2.271l7.77-3.084c1.568-.623 2.582-2.063 2.582-3.669" fill="#fff"/></g></svg>