<svg height="64" viewBox="0 0 64 64" width="64" xmlns="http://www.w3.org/2000/svg"><g fill="none" fill-rule="evenodd"><path d="m0 0h64v64h-64z" fill="#e7157b"/><path d="m30.027 19h2.997v-2h-2.997zm-4.994 0h2.997v-2h-2.997zm-4.994 0h2.997v-2h-2.997zm29.965 21.722v-3.444c.594.347.998.985.998 1.722s-.404 1.375-.998 1.722m-35.958.027a2 2 0 0 1 -1.048-1.749c0-.757.427-1.409 1.048-1.749zm35.958-5.607v-1.142c0-2.757-2.142-5-4.773-5h-13.206v2h13.206c1.53 0 2.775 1.346 2.775 3v10c0 1.654-1.245 3-2.775 3h-26.413c-1.53 0-2.774-1.346-2.774-3v-10c0-1.654 1.245-3 2.774-3h3.773v-2h-3.773c-2.631 0-4.772 2.243-4.772 5v1.126c-1.744.43-3.046 1.998-3.046 3.874s1.302 3.444 3.046 3.874v1.126c0 2.757 2.14 5 4.772 5h9.212v5h1.997v-5h3.996v5h1.997v-5h9.211c2.631 0 4.773-2.243 4.773-5v-1.142c1.719-.447 2.996-2 2.996-3.858s-1.277-3.411-2.996-3.858m-24.97 3.858c0 1.103-.898 2-1.998 2a2 2 0 0 1 0-4c1.1 0 1.997.897 1.997 2m-5.994 0c0 2.206 1.792 4 3.996 4a4 4 0 0 0 3.995-4c0-2.206-1.792-4-3.995-4a4 4 0 0 0 -3.996 4m19.977 0a2 2 0 0 1 1.997-2c1.101 0 1.998.897 1.998 2s-.897 2-1.998 2a2 2 0 0 1 -1.997-2m5.993 0c0-2.206-1.792-4-3.996-4a4 4 0 0 0 -3.995 4c0 2.206 1.792 4 3.995 4a4 4 0 0 0 3.996-4m-27.966-26.611c0-.215.175-.389.387-.389h18.59v11.588a.42.42 0 0 1 -.411.412h-7.58a1 1 0 0 0 -.998 1v3.084l-2.868-3.697a1 1 0 0 0 -.789-.387h-5.944a.39.39 0 0 1 -.387-.389zm.387 13.611h5.455l4.356 5.616a.998.998 0 0 0 1.788-.613v-5.003h6.58a2.413 2.413 0 0 0 2.409-2.412v-12.194c0-.769-.624-1.394-1.393-1.394h-19.195a2.39 2.39 0 0 0 -2.385 2.389v11.222a2.39 2.39 0 0 0 2.385 2.389" fill="#fff"/></g></svg>