<svg fill="#03f" viewBox="0 0 24 24" xmlns="http://www.w3.org/2000/svg"><path d="m5.486 0c-1.92 0-2.881 0-3.615.373a3.428 3.428 0 0 0 -1.498 1.498c-.374.734-.373 1.695-.373 3.615v9.6c0 1.92 0 2.88.373 3.613.329.645.853 1.17 1.498 1.498.734.374 1.695.375 3.615.375h11.657v3.428l.793-.396c2.201-1.101 3.3-1.652 4.105-2.473a6.852 6.852 0 0 0 1.584-2.56c.375-1.088.375-2.32.375-4.781v-8.304c0-1.92 0-2.881-.373-3.615a3.428 3.428 0 0 0 -1.498-1.498c-.734-.374-1.695-.373-3.615-.373zm1.371 10.285h10.286a5.142 5.142 0 0 1 -10.286.024z"/></svg>