<svg viewBox="0 0 1280 1280" xmlns="http://www.w3.org/2000/svg"><path d="m0 101.12c0-34.64 0-51.95 6.53-65.28a63.98 63.98 0 0 1 29.32-29.32c13.32-6.52 30.63-6.52 65.27-6.52h1077.76c34.63 0 51.96 0 65.28 6.53a64.07 64.07 0 0 1 29.32 29.32c6.52 13.32 6.52 30.64 6.52 65.28v1077.76c0 34.63 0 51.96-6.52 65.28a64.16 64.16 0 0 1 -29.32 29.32c-13.32 6.52-30.65 6.52-65.28 6.52h-1077.76c-34.64 0-51.95 0-65.28-6.52a64.07 64.07 0 0 1 -29.32-29.32c-6.53-13.32-6.53-30.65-6.53-65.28v-1077.77z" fill="#fff"/></svg>