<svg height="64" viewBox="0 0 64 64" width="64" xmlns="http://www.w3.org/2000/svg"><g fill="none" fill-rule="evenodd"><path d="m0 0h64v64h-64z" fill="#e7157b"/><path d="m11 36h1.99v-2h-1.99zm27.805-13.316a.995.995 0 0 0 -.945-.684h-.01a.995.995 0 0 0 -.94.702l-4.238 13.633-3.87-7.782a1 1 0 0 0 -.828-.551.97.97 0 0 0 -.89.444l-3.684 5.554h-8.422v2h8.954a1 1 0 0 0 .828-.445l3.028-4.566 4.208 8.459a.995.995 0 0 0 1.839-.149l4.056-13.044 3.005 9.062a.99.99 0 0 0 .943.683h11.938v-2h-11.22zm-5.919 27.716-11.16-14.024-1.555 1.249 11.939 15a.997.997 0 0 0 1.554 0l11.939-15-1.555-1.249zm-17.076-17.846-2.661-4.023c-.927-1.707-1.374-3.393-1.374-5.09 0-6.094 5.18-11.441 11.085-11.441 4.568 0 8.32 2.272 10.027 5.703 1.708-3.431 5.46-5.703 10.027-5.703 5.906 0 11.086 5.347 11.086 11.441 0 1.663-.435 3.327-1.29 4.947-.253.481-.555.958-.926 1.455l-.69.822-2.028 2.043-1.407-1.415 1.973-1.982.597-.712c.268-.366.517-.757.724-1.148.702-1.33 1.057-2.678 1.057-4.01 0-5.029-4.25-9.441-9.096-9.441-5.233 0-9.033 3.365-9.033 8 0 .553-.444 1-.995 1a.997.997 0 0 1 -.994-1c0-4.635-3.799-8-9.033-8-4.845 0-9.095 4.412-9.095 9.441 0 1.359.365 2.724 1.086 4.058l2.616 3.948z" fill="#fff"/></g></svg>