<svg height="18" viewBox="0 0 18 18" width="18" xmlns="http://www.w3.org/2000/svg" xmlns:xlink="http://www.w3.org/1999/xlink"><linearGradient id="a" gradientUnits="userSpaceOnUse" x1="9" x2="9" y1="15.563" y2="-2.323"><stop offset="0" stop-color="#0078d4"/><stop offset="1" stop-color="#5ea0ef"/></linearGradient><path d="m18 9.5a4.094 4.094 0 0 0 -3.51-3.961 5.14 5.14 0 0 0 -5.25-4.97 5.27 5.27 0 0 0 -5.024 3.475 4.86 4.86 0 0 0 -4.216 4.729 4.937 4.937 0 0 0 5.068 4.8q.226 0 .447-.02h8.207a.8.8 0 0 0 .217-.033 4.13 4.13 0 0 0 4.061-4.02" fill="url(#a)"/><rect fill="#50e6ff" height="9" rx=".6" width="9" x="7.35" y="7.267"/><rect fill="#50e6ff" height="9.871" rx=".6" width="9.871" x="6.914" y="7.193"/><g fill="#fff"><rect height="1.696" rx=".3" width="7.266" x="8.393" y="8.538"/><rect height="1.696" opacity=".8" rx=".3" width="7.266" x="8.393" y="11.279"/><rect height="1.696" opacity=".6" rx=".3" width="7.266" x="8.393" y="14.02"/></g></svg>