<svg height="64" viewBox="0 0 64 64" width="64" xmlns="http://www.w3.org/2000/svg"><g fill="none" fill-rule="evenodd"><path d="m0 0h64v64h-64z" fill="#dd344c"/><path d="m22 36c0 1.654 1.346 3 3 3h14c1.654 0 3-1.346 3-3v-11c0-1.654-1.346-3-3-3h-14c-1.654 0-3 1.346-3 3zm5-16h10v-4c0-2.206-1.794-4-4-4h-2c-2.206 0-4 1.794-4 4zm-2 0v-4c0-3.309 2.691-6 6-6h2c3.309 0 6 2.691 6 6v4c2.757 0 5 2.243 5 5v11c0 2.757-2.243 5-5 5h-14c-2.757 0-5-2.243-5-5v-11c0-2.757 2.243-5 5-5m5.707 15.707 9-9-1.414-1.414-9 9zm3-9-1.414-1.414-9 9 1.414 1.414zm19.293-6.048v24.663c0 2.033-1.695 3.686-3.779 3.686l-19.221-.035v4.998a1.003 1.003 0 0 1 -1 1 1 1 0 0 1 -.65-.241l-6.72-5.76-6.824-.006c-2.098 0-3.806-1.652-3.806-3.683v-24.622c0-2.013 1.7-3.651 3.791-3.651h8.209v2h-8.209c-.987 0-1.791.741-1.791 1.651v24.622c0 .928.811 1.683 1.807 1.683l7.194.007c.238 0 .469.085.649.241l5.35 4.585v-3.826a.996.996 0 0 1 1-1l20.223.037c.979 0 1.777-.756 1.777-1.686v-24.663c0-.91-.804-1.651-1.791-1.651h-8.209v-2h8.209c2.091 0 3.791 1.638 3.791 3.651" fill="#fff"/></g></svg>