<svg height="18" viewBox="0 0 18 18" width="18" xmlns="http://www.w3.org/2000/svg" xmlns:xlink="http://www.w3.org/1999/xlink"><linearGradient id="a" gradientTransform="matrix(0 1 -1 0 -3629.83 -6034.61)" gradientUnits="userSpaceOnUse" x1="6050.2" x2="6038.28" y1="-3638.83" y2="-3638.83"><stop offset="0" stop-color="#198ab3"/><stop offset=".11" stop-color="#22a5cb"/><stop offset=".23" stop-color="#29bade"/><stop offset=".37" stop-color="#2ec9eb"/><stop offset=".53" stop-color="#31d1f3"/><stop offset=".78" stop-color="#32d4f5"/></linearGradient><path d="m15.16 13.51a2.08 2.08 0 0 1 2.28 2.24 1.89 1.89 0 0 1 -3.06 1.25.67.67 0 0 1 -.26-.54v-2.96z" fill="#198ab3"/><path d="m17.49 13.5v-9a2.29 2.29 0 0 0 -2.29-2.27h-14.69v9a2.29 2.29 0 0 0 2.29 2.29h9.92a26 26 0 0 1 3 0c2 .32 1.64 2.47 1.64 2.47a11 11 0 0 0 .13-2.49" fill="url(#a)"/><path d="m.5 11.42v-.07a1.84 1.84 0 0 1 3.24-.9.23.23 0 0 0 .4-.15v-7.82a1.4 1.4 0 0 0 0-.29 1.85 1.85 0 0 0 -3.64 0 1 1 0 0 0 0 .29z" fill="#198ab3"/><path d="m12.34 8.48a.28.28 0 0 0 -.28-.28h-1c-.06-.14-.11-.29-.17-.43-.22-.57-.46-1.14-.69-1.7l-.08-.19a1.38 1.38 0 1 0 -.7 0l-.09.2c-.25.56-.49 1.13-.73 1.7l-.18.44h-1a.28.28 0 0 0 -.28.28.27.27 0 0 0 .28.28h.8a51.935 51.935 0 0 0 -.91 2.47.23.23 0 0 0 .42.19c.31-.54.6-1.09.88-1.63.18-.34.35-.68.52-1h1.26l.48 1c.28.55.56 1.1.85 1.64a.23.23 0 0 0 .42-.18c-.18-.59-.38-1.17-.58-1.75l-.27-.73h.74a.27.27 0 0 0 .31-.31m-3.34-3.94a.81.81 0 0 1 1.62 0 .81.81 0 0 1 -1.62 0m.43 3.66v-.07l.33-.72.32.71v.08z" fill="#fff"/></svg>