<svg viewBox="0 0 24 24" xmlns="http://www.w3.org/2000/svg"><path d="m7.654 0-2.524 3.554v2.01l-2.196 1.044-.02-.009v13.109l8.563 4.045.523.247.523-.247 8.563-4.045v-13.108l-.017.008-2.196-1.045v-2.008l-.077-.108-2.447-3.446-2.524 3.554v.004l-1.836-2.586-1.823 2.566-.065-.091zm.447 2.065.976 1.374h-2.845l.964-1.358zm8.694 0 .976 1.374h-2.845l.965-1.358zm-4.36.971.976 1.375h-2.845l.965-1.359zm-6.473 1.096h1.35v4.544l-1.35-.638zm2.042 0h1.343v5.506l-1.343-.635zm6.652 0h1.35v4.868l-1.35.637zm2.042 0h1.343v3.905l-1.343.634zm-6.402.972h1.35v5.62l-1.35-.638zm2.042 0h1.343v4.993l-1.343.634zm6.534 1.493 1.188.486-1.188.561zm-13.742.003v1.047l-1.187-.561zm-1.17 1.651 7.517 3.55v10.795l-7.516-3.55zm16.08 0v10.794l-7.517 3.55v-10.793z"/></svg>