<svg xmlns="http://www.w3.org/2000/svg" width="48" height="48" fill="none" viewBox="0 0 48 48"><path fill="currentColor" d="M17.14 30.86a4.85 4.85 0 0 1-6.86 0L3.42 24a4.85 4.85 0 0 1 0-6.86l6.86-6.86a4.85 4.85 0 0 1 6.86 0L24 17.14A4.85 4.85 0 0 1 24 24z"/><path fill="currentColor" d="M17.14 30.86a4.85 4.85 0 0 1-6.86 0L3.42 24a4.85 4.85 0 0 1 0-6.86l6.86-6.86a4.85 4.85 0 0 1 6.86 0L24 17.14A4.85 4.85 0 0 1 24 24z"/><path fill="currentColor" d="M3.42 24a4.85 4.85 0 0 0 6.86 0L30.86 3.42a4.85 4.85 0 0 1 6.86 0l6.86 6.86a4.85 4.85 0 0 1 0 6.86L24 37.72a4.85 4.85 0 0 1-6.86 0z"/><path fill="currentColor" d="M3.42 24a4.85 4.85 0 0 0 6.86 0L30.86 3.42a4.85 4.85 0 0 1 6.86 0l6.86 6.86a4.85 4.85 0 0 1 0 6.86L24 37.72a4.85 4.85 0 0 1-6.86 0z"/><path fill="currentColor" d="M10.28 30.86a4.85 4.85 0 0 0 6.86 0l13.72-13.72a4.85 4.85 0 0 1 6.86 0L44.58 24a4.85 4.85 0 0 1 0 6.86L30.86 44.58a4.85 4.85 0 0 1-6.86 0z"/><path fill="currentColor" d="M10.28 30.86a4.85 4.85 0 0 0 6.86 0l13.72-13.72a4.85 4.85 0 0 1 6.86 0L44.58 24a4.85 4.85 0 0 1 0 6.86L30.86 44.58a4.85 4.85 0 0 1-6.86 0z"/></svg>