<svg fill="none" height="48" viewBox="0 0 48 48" width="48" xmlns="http://www.w3.org/2000/svg" xmlns:xlink="http://www.w3.org/1999/xlink"><linearGradient id="a" gradientUnits="userSpaceOnUse" x1="13.71" x2="5.956" y1="8.86" y2="25.425"><stop offset="0" stop-color="#8752e0"/><stop offset="1" stop-color="#541278"/></linearGradient><linearGradient id="b" gradientUnits="userSpaceOnUse" x1="17.364" x2="11.058" y1="22.295" y2="16.103"><stop offset=".122" stop-color="#3d0d59"/><stop offset="1" stop-color="#7034b0" stop-opacity="0"/></linearGradient><linearGradient id="c" gradientUnits="userSpaceOnUse" x1="35.679" x2="20.072" y1="2" y2="39.436"><stop offset="0" stop-color="#db45e0"/><stop offset="1" stop-color="#6c0f71"/></linearGradient><linearGradient id="d" gradientUnits="userSpaceOnUse" x1="35.679" x2="20.072" y1="2" y2="39.436"><stop offset="0" stop-color="#db45e0"/><stop offset=".677" stop-color="#a829ae"/><stop offset="1" stop-color="#8f28b3"/></linearGradient><linearGradient id="e" gradientUnits="userSpaceOnUse" x1="35.001" x2="27.668" y1="15.749" y2="45.999"><stop offset="0" stop-color="#3dcbff"/><stop offset="1" stop-color="#00479e"/></linearGradient><linearGradient id="f" gradientUnits="userSpaceOnUse" x1="35.397" x2="21.294" y1="16.532" y2="44.051"><stop offset="0" stop-color="#3dcbff"/><stop offset="1" stop-color="#4a40d4"/></linearGradient><path d="m17.14 30.86a4.85 4.85 0 0 1 -6.86 0l-6.86-6.86a4.85 4.85 0 0 1 0-6.86l6.86-6.86a4.85 4.85 0 0 1 6.86 0l6.86 6.86a4.85 4.85 0 0 1 0 6.86z" fill="url(#a)"/><path d="m17.14 30.86a4.85 4.85 0 0 1 -6.86 0l-6.86-6.86a4.85 4.85 0 0 1 0-6.86l6.86-6.86a4.85 4.85 0 0 1 6.86 0l6.86 6.86a4.85 4.85 0 0 1 0 6.86z" fill="url(#b)"/><path d="m3.42 24a4.85 4.85 0 0 0 6.86 0l20.58-20.58a4.85 4.85 0 0 1 6.86 0l6.86 6.86a4.85 4.85 0 0 1 0 6.86l-20.58 20.58a4.85 4.85 0 0 1 -6.86 0z" fill="url(#c)"/><path d="m3.42 24a4.85 4.85 0 0 0 6.86 0l20.58-20.58a4.85 4.85 0 0 1 6.86 0l6.86 6.86a4.85 4.85 0 0 1 0 6.86l-20.58 20.58a4.85 4.85 0 0 1 -6.86 0z" fill="url(#d)"/><path d="m10.28 30.86a4.85 4.85 0 0 0 6.86 0l13.72-13.72a4.85 4.85 0 0 1 6.86 0l6.86 6.86a4.85 4.85 0 0 1 0 6.86l-13.72 13.72a4.85 4.85 0 0 1 -6.86 0z" fill="url(#e)"/><path d="m10.28 30.86a4.85 4.85 0 0 0 6.86 0l13.72-13.72a4.85 4.85 0 0 1 6.86 0l6.86 6.86a4.85 4.85 0 0 1 0 6.86l-13.72 13.72a4.85 4.85 0 0 1 -6.86 0z" fill="url(#f)"/></svg>