<svg viewBox="0 0 24 24" xmlns="http://www.w3.org/2000/svg"><path d="m2.12 0c-.2688.004-.5138.2196-.5138.5206v4.9981c0 .1875.1009.3604.2641.4525l9.8769 5.5768c.3522.199.3522.7062 0 .9051l-9.8769 5.5769a.52.52 0 0 0 -.264.4526v4.997c0 .4016.436.6514.7824.4484l19.8183-11.6159a.3777.3777 0 0 0 -.0003-.652l-19.8184-11.5881a.516.516 0 0 0 -.2684-.072zm-.005 7.9458c-.2671.006-.5088.2216-.5088.5203v7.056c0 .3982.4296.6484.776.452l6.222-3.528c.3512-.199.3512-.705 0-.904l-6.222-3.528a.515.515 0 0 0 -.2674-.0683z"/></svg>