<svg xmlns="http://www.w3.org/2000/svg" width="24" height="24"><path fill="currentColor" d="M12 2h10v10H12zm4.46 6.76 2.84-2.83-.8-.8-2 2-1-1-.8.8z"/><path fill="currentColor" d="M2 14v8h8v-8zm6 6H4v-4h4zm4-8h10v-1.97L14 10z"/><path fill="currentColor" d="M20 4v6.02L22 12V2z"/><path fill="currentColor" d="m10 22-2-2v-4l2-2z"/><path fill="currentColor" d="m2 22 2-2h4l2 2z"/><path fill="currentColor" d="M2 4v8h8V4zm6 6H4V6h4z"/><path fill="currentColor" d="m10 12-2-2V6l2-2z"/><path fill="currentColor" d="m2 12 2-2h4l2 2z"/><path fill="currentColor" d="M12 14v8h8v-8zm6 6h-4v-4h4z"/><path fill="currentColor" d="m20 22-2-2v-4l2-2z"/><path fill="currentColor" d="m12 22 2-2h4l2 2z"/></svg>