<svg xmlns="http://www.w3.org/2000/svg" width="24" height="24"><g data-name="Product Icons"><g data-name="colored-32/recommendation"><path d="M12 2h10v10H12Zm4.46 6.76 2.84-2.83-.8-.8-2 2-1-1-.8.8Z" fill="#aecbfa"/><path d="M2 14v8h8v-8Zm6 6H4v-4h4Z" fill="#4285f4"/><path id="Shape-2" d="M12 12h10v-1.97L14 10z" data-name="Shape" fill="#4285f4"/><path id="Shape-3" d="M20 4v6.02L22 12V2z" data-name="Shape" fill="#669df6"/></g><path d="m10 22-2-2v-4l2-2z" fill="#aecbfa"/><path d="m2 22 2-2h4l2 2z" fill="#669df6"/><g data-name="Group"><path id="Shape-4" d="M2 4v8h8V4Zm6 6H4V6h4Z" data-name="Shape" fill="#4285f4"/></g><path d="m10 12-2-2V6l2-2z" fill="#aecbfa"/><path d="m2 12 2-2h4l2 2z" fill="#669df6"/><g data-name="Group"><path id="Shape-5" d="M12 14v8h8v-8Zm6 6h-4v-4h4Z" data-name="Shape" fill="#4285f4"/></g><path d="m20 22-2-2v-4l2-2z" fill="#aecbfa"/><path d="m12 22 2-2h4l2 2z" fill="#669df6"/></g></svg>