<svg viewBox="0 0 24 24" xmlns="http://www.w3.org/2000/svg"><path d="m1.281 7.027v-4.345c0-2.062 2.235-3.352 4.02-2.317l16.083 9.317c1.781 1.032 1.781 3.603 0 4.635l-7.194 4.168-1.396-7.976a4.21 4.21 0 0 0 -4.146-3.483h-7.367zm0 9.948v4.343c0 2.063 2.235 3.352 4.02 2.317l4.942-2.863-3.798-3.797zm6.402-7.355a1.247 1.247 0 1 1 -2.495 0 1.247 1.247 0 0 1 2.495 0m0 4.76a1.247 1.247 0 1 1 -2.495 0 1.247 1.247 0 0 1 2.495 0m-3.628-1.133a1.247 1.247 0 1 0 0-2.493 1.247 1.247 0 0 0 0 2.493m6.03-1.247a1.247 1.247 0 1 1 -2.493 0 1.247 1.247 0 0 1 2.494 0z"/></svg>