<svg xmlns="http://www.w3.org/2000/svg" fill="none" viewBox="0 0 70 70"><path fill="currentColor" d="M65.153 30.85c0 9.496-10.163 17.194-22.7 17.194S19.754 40.346 19.754 30.85s10.163-17.194 22.7-17.194 22.699 7.698 22.699 17.194"/><path fill="currentColor" d="M65.153 30.85c0 9.496-10.163 17.194-22.7 17.194S19.754 40.346 19.754 30.85s10.163-17.194 22.7-17.194 22.699 7.698 22.699 17.194"/><path fill="currentColor" d="M66 35c0 17.12-13.88 31-31 31S4 52.12 4 35 17.88 4 35 4c8.046 3.642 16.464 17.194 19.99 21.429 3.524 4.235 12.648 9.571 8.176-1.623C65.073 26.832 66 31.852 66 35"/><path fill="currentColor" d="M66 35c0 17.12-13.88 31-31 31S4 52.12 4 35 17.88 4 35 4c8.046 3.642 16.464 17.194 19.99 21.429 3.524 4.235 12.648 9.571 8.176-1.623C65.073 26.832 66 31.852 66 35"/><path fill="currentColor" d="M66 35c0 17.12-13.88 31-31 31S4 52.12 4 35 17.88 4 35 4c8.046 3.642 16.464 17.194 19.99 21.429 3.524 4.235 12.648 9.571 8.176-1.623C65.073 26.832 66 31.852 66 35"/><path fill="currentColor" d="M66 35c0 17.12-13.88 31-31 31S4 52.12 4 35 17.88 4 35 4c8.046 3.642 16.464 17.194 19.99 21.429 3.524 4.235 12.648 9.571 8.176-1.623C65.073 26.832 66 31.852 66 35"/><path fill="currentColor" d="M56.651 39.682c1.658 7.764-6.511 16.089-18.246 18.594s-22.59-1.757-24.248-9.52c-1.658-7.764 6.511-16.089 18.246-18.594s22.59 1.757 24.248 9.52"/><path fill="currentColor" d="M56.651 39.682c1.658 7.764-6.511 16.089-18.246 18.594s-22.59-1.757-24.248-9.52c-1.658-7.764 6.511-16.089 18.246-18.594s22.59 1.757 24.248 9.52"/><path fill="currentColor" fill-opacity=".19" fill-rule="evenodd" d="M51.462 49.883c3.074-3.133 4.386-6.66 3.698-9.882-.688-3.223-3.326-5.907-7.411-7.51-4.073-1.6-9.412-2.037-15.028-.838s-10.31 3.779-13.375 6.901c-3.074 3.133-4.386 6.66-3.698 9.883s3.326 5.906 7.412 7.51c4.072 1.6 9.41 2.037 15.027.838 5.616-1.2 10.31-3.779 13.375-6.902m-13.057 8.393c11.735-2.505 19.904-10.83 18.246-18.594-1.658-7.763-12.514-12.026-24.248-9.52-11.735 2.505-19.904 10.83-18.246 18.593 1.658 7.764 12.514 12.026 24.248 9.521" clip-rule="evenodd"/></svg>