<svg height="18" viewBox="0 0 18 18" width="18" xmlns="http://www.w3.org/2000/svg" xmlns:xlink="http://www.w3.org/1999/xlink"><linearGradient id="a" gradientUnits="userSpaceOnUse" x1="7.725" x2="7.725" y1="12.859" y2="2.896"><stop offset="0" stop-color="#0078d4"/><stop offset=".817" stop-color="#5ea0ef"/></linearGradient><path d="m8.574 12.334a.23.23 0 0 1 -.226-.236v-.381h-.386a.231.231 0 0 1 0-.462h.616a.23.23 0 0 1 .231.231v.622a.23.23 0 0 1 -.235.226m-.889 2.207a.231.231 0 0 1 -.1-.438 1.17 1.17 0 0 0 .629-.814.231.231 0 0 1 .445.124 1.64 1.64 0 0 1 -.869 1.105.23.23 0 0 1 -.105.023m-.759 1.025h-.616a.23.23 0 0 1 -.231-.231 1.06 1.06 0 0 1 .286-.717.231.231 0 0 1 .339.315.6.6 0 0 0 -.114.171h.336a.231.231 0 0 1 0 .462m4.992 0h-1.248a.231.231 0 0 1 0-.462h1.248a.231.231 0 0 1 0 .462m1.864 0h-.616a.231.231 0 0 1 0-.462h.334a.6.6 0 0 0 -.114-.17.231.231 0 0 1 .337-.315 1.05 1.05 0 0 1 .289.716.23.23 0 0 1 -.23.231m-1.377-1.024a.2.2 0 0 1 -.1-.023 1.64 1.64 0 0 1 -.872-1.1.231.231 0 1 1 .445-.125 1.18 1.18 0 0 0 .631.814.231.231 0 0 1 -.1.438zm-.892-2.208a.23.23 0 0 1 -.231-.226v-.622a.23.23 0 0 1 .231-.231h.616a.231.231 0 0 1 0 .462h-.389v.381a.23.23 0 0 1 -.226.236zm5.454-.617h-1.21a.231.231 0 0 1 0-.462h1.21a.231.231 0 1 1 0 .462m-2.421 0h-1.21a.231.231 0 0 1 0-.462h1.21a.231.231 0 0 1 0 .462m-7.8 0h-1.211a.231.231 0 0 1 0-.462h1.211a.231.231 0 0 1 0 .462m-2.421 0h-1.211a.231.231 0 0 1 0-.462h1.211a.231.231 0 0 1 0 .462m13.191-.876a.23.23 0 0 1 -.231-.231v-1.21a.231.231 0 0 1 .462 0v1.21a.23.23 0 0 1 -.231.231m-14.944 0a.23.23 0 0 1 -.231-.231v-1.216a.231.231 0 0 1 .462 0v1.211a.23.23 0 0 1 -.231.231zm14.944-2.421a.23.23 0 0 1 -.231-.231v-1.21a.231.231 0 0 1 .462 0v1.21a.23.23 0 0 1 -.231.231m-14.944-.005a.23.23 0 0 1 -.231-.231v-1.211a.231.231 0 0 1 .462 0v1.211a.23.23 0 0 1 -.231.231m14.944-2.415a.23.23 0 0 1 -.231-.231v-1.211a.231.231 0 0 1 .462 0v1.21a.23.23 0 0 1 -.231.232m-14.944-.007a.23.23 0 0 1 -.231-.231v-1.21a.231.231 0 0 1 .462 0v1.21a.23.23 0 0 1 -.231.231m14.944-2.415a.23.23 0 0 1 -.231-.231v-1.21a.231.231 0 1 1 .462 0v1.21a.23.23 0 0 1 -.231.231m-14.944-.006a.23.23 0 0 1 -.231-.231v-1.21a.231.231 0 1 1 .462 0v1.21a.23.23 0 0 1 -.231.231m14.128-1.817h-1.206a.231.231 0 0 1 0-.462h1.206a.231.231 0 1 1 0 .462m-2.422 0h-1.21a.231.231 0 0 1 0-.462h1.21a.231.231 0 1 1 0 .462m-2.421 0h-1.21a.231.231 0 0 1 0-.462h1.21a.231.231 0 1 1 0 .462m-2.421 0h-1.205a.231.231 0 0 1 0-.462h1.21a.231.231 0 1 1 0 .462zm-2.421 0h-1.205a.231.231 0 0 1 0-.462h1.21a.231.231 0 1 1 0 .462zm-2.421 0h-1.205a.231.231 0 0 1 0-.462h1.211a.231.231 0 0 1 0 .462z" fill="#37c2b1"/><rect fill="url(#a)" height="9.963" rx=".499" width="14.944" x=".253" y="2.896"/><path d="m10.722 15.872c-1.477-.231-1.535-1.3-1.531-3.013h-2.931c0 1.716-.054 2.782-1.532 3.013a.87.87 0 0 0 -.736.835h7.472a.875.875 0 0 0 -.742-.835" fill="#1f56a3"/><path d="m9.987 6.379v2.631l-2.262 1.327v-2.638z" fill="#50e6ff"/><path d="m9.987 6.379-2.254 1.327-2.269-1.327 2.269-1.319z" fill="#c3f1ff"/><path d="m7.725 7.706v2.631l-2.261-1.327v-2.631z" fill="#9cebff"/><path d="m5.464 9.01 2.261-1.311v2.638z" fill="#c3f1ff"/><path d="m9.987 9.01-2.262-1.311v2.638z" fill="#9cebff"/><path d="m4.619 4.08h-2.073a.5.5 0 0 0 -.5.5v2.08a.25.25 0 0 0 .249.249h.166a.25.25 0 0 0 .249-.249v-1.924h1.909a.25.25 0 0 0 .241-.249v-.158a.25.25 0 0 0 -.241-.249m0 6.529h-1.919v-1.909a.25.25 0 0 0 -.248-.248h-.152a.25.25 0 0 0 -.249.248v2.111a.5.5 0 0 0 .49.505h2.078a.255.255 0 0 0 .244-.268v-.191a.25.25 0 0 0 -.244-.248m8.316-6.509h-2.043a.25.25 0 0 0 -.249.248v.162a.247.247 0 0 0 .225.27h1.932v1.893a.25.25 0 0 0 .249.249h.173a.25.25 0 0 0 .249-.249v-2.073a.5.5 0 0 0 -.5-.5zm.256 4.368h-.158a.25.25 0 0 0 -.249.248v1.915h-1.892a.25.25 0 0 0 -.249.249v.166a.25.25 0 0 0 .249.249h2.073a.505.505 0 0 0 .505-.5v-2.079a.25.25 0 0 0 -.247-.25z" fill="#fff"/></svg>