<svg xmlns="http://www.w3.org/2000/svg" fill="#721412" viewBox="0 0 24 24"><path d="M1.961 13.532q-.454 0-.818-.157c-.364-.157-.448-.25-.616-.437s-.298-.408-.389-.664Q0 11.89 0 11.442c0-.448.046-.576.137-.832s.221-.477.389-.664q.253-.28.617-.438c.364-.158.516-.157.818-.157q.454 0 .818.157c.364.157.448.25.616.437s.298.408.389.664.137.533.137.832-.046.576-.137.832q-.138.384-.389.664c-.251.28-.374.333-.616.437a2 2 0 0 1-.818.158m0-.443q.353 0 .622-.126c.269-.126.331-.199.454-.345s.216-.319.277-.521q.092-.303.092-.656t-.092-.656-.277-.524c-.184-.221-.275-.263-.454-.347s-.386-.125-.622-.125q-.353 0-.622.126c-.269.126-.331.2-.454.347a1.5 1.5 0 0 0-.277.524q-.092.302-.092.656 0 .353.092.656.093.303.277.521c.184.218.275.261.454.345q.27.125.622.125m2.494-2.538h.454v.409h.011q.162-.224.387-.35.224-.126.544-.126.274 0 .504.104c.23.104.284.168.392.297s.193.289.255.479q.092.286.092.644 0 .348-.087.63t-.249.482c-.162.199-.241.234-.398.305s-.333.106-.527.106q-.297 0-.516-.095c-.219-.095-.278-.174-.398-.331h-.01v1.557h-.454zm1.345 2.6a.74.74 0 0 0 .625-.325q.103-.151.154-.359.05-.207.05-.454a2 2 0 0 0-.05-.451q-.05-.21-.154-.364c-.104-.154-.155-.183-.258-.241s-.223-.087-.361-.087q-.235 0-.412.09c-.177.09-.214.142-.289.247s-.131.226-.168.364-.056.286-.056.443.017.305.05.443q.05.207.16.361a.8.8 0 0 0 .283.244.9.9 0 0 0 .426.089m3.037.375q-.33 0-.591-.12c-.261-.12-.32-.19-.44-.328s-.211-.3-.275-.485-.095-.382-.095-.591.033-.406.098-.591.159-.346.28-.485a1.29 1.29 0 0 1 .994-.448q.325 0 .574.12c.249.12.305.192.417.336s.197.316.255.516.087.419.087.658h-2.24q.011.219.078.409t.185.331a.84.84 0 0 0 .673.297q.32 0 .521-.148c.201-.148.228-.247.28-.445h.443q-.1.471-.426.723-.326.25-.818.251m-.028-2.689q-.201 0-.359.07c-.158.07-.193.112-.266.196s-.133.183-.179.297a1.3 1.3 0 0 0-.092.367h1.743q-.022-.436-.238-.684-.218-.246-.609-.246m2.311.095h.011q.158-.207.378-.328.222-.12.541-.12.455 0 .714.238.261.238.261.692v2.034h-.454v-1.995q0-.286-.174-.437c-.174-.151-.276-.151-.482-.151q-.174 0-.319.059a.6.6 0 0 0-.252.163q-.106.104-.165.252c-.059.148-.059.208-.059.328v1.782h-.454v-2.897h.454zm4.289 2.598q-.823 0-1.271-.347c-.448-.347-.456-.561-.47-.989h.8q.045.366.259.521c.214.155.359.155.648.155q.158 0 .299-.028c.141-.028.177-.049.248-.09s.129-.095.172-.161.065-.146.065-.24a.4.4 0 0 0-.07-.242.56.56 0 0 0-.2-.161q-.13-.065-.313-.113c-.183-.048-.26-.065-.414-.099q-.27-.062-.521-.138a1.2 1.2 0 0 1-.44-.206q-.189-.13-.304-.332c-.115-.202-.116-.308-.116-.518q0-.299.116-.524t.321-.378.487-.228.62-.076q.681 0 1.096.321c.415.321.429.526.459.935h-.783q-.034-.305-.248-.456c-.214-.151-.319-.152-.53-.152q-.332 0-.53.13a.39.39 0 0 0-.197.344q0 .124.054.206c.054.082.09.102.163.144q.11.062.273.107c.163.045.238.062.389.096q.31.068.583.149.273.082.479.217c.206.135.245.205.324.344s.118.318.118.535q0 .304-.118.544c-.118.24-.188.293-.327.4s-.304.189-.496.245a2.2 2.2 0 0 1-.625.085m3.759 0q-.823 0-1.271-.347c-.448-.347-.456-.561-.47-.989h.8q.045.366.259.521c.214.155.359.155.648.155q.158 0 .299-.028c.141-.028.177-.049.248-.09s.129-.095.172-.161.065-.146.065-.24a.4.4 0 0 0-.07-.242.56.56 0 0 0-.2-.161q-.13-.065-.313-.113c-.183-.048-.26-.065-.414-.099q-.27-.062-.521-.138a1.2 1.2 0 0 1-.44-.206q-.189-.13-.304-.332c-.115-.202-.116-.308-.116-.518q0-.299.116-.524t.321-.378.487-.228.62-.076q.681 0 1.096.321c.415.321.429.526.459.935h-.783q-.034-.305-.248-.456c-.214-.151-.319-.152-.53-.152q-.332 0-.53.13a.39.39 0 0 0-.197.344q0 .124.054.206c.054.082.09.102.163.144q.11.062.273.107c.163.045.238.062.389.096q.31.068.583.149.273.082.479.217c.206.135.245.205.324.344s.118.318.118.535q0 .304-.118.544c-.118.24-.188.293-.327.4s-.304.189-.496.245q-.287.085-.625.085m2.122-4.12h.817v3.347H24v.682h-2.71z"/></svg>