<svg viewBox="0 0 24 24" xmlns="http://www.w3.org/2000/svg"><path d="m12 0c-5.316 0-9.708 5.38-9.708 12s4.36 12 9.708 12c5.347 0 9.708-5.38 9.708-12s-4.392-12-9.708-12zm-7.894 16.233c-.19-.604-.35-1.241-.414-1.878l8.308-6.175 8.371 6.175a12.334 12.334 0 0 1 -.413 1.878v.032h-.032l-7.926-5.92zm.923 2.101-.032-.032 7.003-5.188 7.003 5.188v.032c-1.655 2.897-4.202 4.616-6.987 4.616s-5.363-1.751-6.987-4.616zm6.971-12.987-8.53 6.335v-.032c.063-2.674.954-5.284 2.61-7.385 1.59-1.941 3.692-3.055 5.92-3.055s4.36 1.114 5.92 3.055c1.56 1.942 2.515 4.616 2.61 7.417v.032l-.031-.032z"/></svg>