<svg viewBox="0 0 24 24" xmlns="http://www.w3.org/2000/svg"><path d="m12 0c-6.627 0-12 5.373-12 12s5.373 12 12 12 12-5.373 12-12-5.373-12-12-12zm1.365 1.788 1.854.472v2.597l2.073-1.704 1.537 1.135-3.949 3.247-1.515-.008zm-9.067 15.54-1.853-1.578v-7.05l1.853-1.7zm3.631 2.22-1.853 1.612v-18.16l1.853 1.614zm9.363 1.555-2.073-1.705v2.597l-1.854.473v-5.74l1.515-.007 3.95 3.246zm2.733-2.473-4.604-3.674h-3.826v7.512h-1.853v-9.365h6.329l5.11 4.078zm2.62-8.329-2.059 1.7 2.059 1.698-1.181 1.431-3.794-3.13 3.793-3.13zm-6.574.6h-6.329v-9.367h1.853v7.512h3.826l4.604-3.674 1.156 1.449z"/></svg>