<svg xmlns="http://www.w3.org/2000/svg" fill="none" viewBox="4 4 36 38"><defs><mask id="a"><path fill="#fff" d="M0 0h36v38H0z"/><path fill="#000" d="M22 20h12a6 6 0 0 1 6 6v10a6 6 0 0 1-12 0V26a6 6 0 0 0-6-6"/><path fill="#000" d="M8 24a6 6 0 0 1 6-6h8a6 6 0 0 1 6 6v12a6 6 0 0 0 6 6H18c-5.523 0-10-4.477-10-10z"/><path fill="#000" d="M8 24a6 6 0 0 1 6-6h8a6 6 0 0 1 6 6v12a6 6 0 0 0 6 6H18c-5.523 0-10-4.477-10-10z"/><path fill="#000" d="M8 24a6 6 0 0 1 6-6h8a6 6 0 0 1 6 6v12a6 6 0 0 0 6 6H18c-5.523 0-10-4.477-10-10z"/><path fill="#000" d="M33 18a5 5 0 1 0 0-10 5 5 0 0 0 0 10"/><path fill="#000" d="M33 18a5 5 0 1 0 0-10 5 5 0 0 0 0 10"/><path fill="#000" d="M33 18a5 5 0 1 0 0-10 5 5 0 0 0 0 10"/><path fill="#000" d="M18 16a6 6 0 1 0 0-12 6 6 0 0 0 0 12"/><path fill="#000" d="M18 16a6 6 0 1 0 0-12 6 6 0 0 0 0 12"/><path fill="#000" d="M18 16a6 6 0 1 0 0-12 6 6 0 0 0 0 12"/><path fill="#000" d="M4 23h16v16H4z"/><path fill="#000" d="M4 23h16v16H4z"/></mask></defs><path fill="currentColor" d="M15.48 28.105h-2.448v7.466h-2.065v-7.466H8.52V26.43h6.96z" mask="url(#a)"/></svg>