<svg viewBox="0 0 24 24" xmlns="http://www.w3.org/2000/svg"><path d="m0 23.24 1.823-1.822c1.823-1.823 3.645-2.127 6.076-2.127h5.012c2.43 0 3.707-.152 5.681-1.519h.244l-3.342 3.342c-1.823 1.823-3.646 2.127-6.076 2.127h-9.418zm5.165-16.707 1.822 1.822c1.823 1.823 3.646 2.127 6.076 2.127h5.013c2.43 0 3.706.152 5.681 1.519-1.975 1.367-3.25 1.519-5.681 1.519h-5.013c-2.43 0-4.253.304-6.076 2.127l-1.822 1.822h9.417c2.43 0 4.254-.303 6.076-2.126l3.342-3.343-3.342-3.342c-1.822-1.823-3.645-2.126-6.076-2.126h-9.417zm-5.165-5.774 1.823 1.823c1.823 1.823 3.645 2.128 6.076 2.128h5.012c2.43 0 3.707.152 5.681 1.519h.244l-3.342-3.342c-1.824-1.824-3.646-2.127-6.076-2.127h-9.418z"/></svg>