<svg xmlns="http://www.w3.org/2000/svg" width="18" height="18" viewBox="0 0 18 18">
  <defs>
    <clipPath id="b"><path d="M10.58 8.34 13 10.92a.22.22 0 0 1 0 .3l-.47.49a.2.2 0 0 1-.3 0L9 8.34A.22.22 0 0 1 9 8l3.15-3.32a.2.2 0 0 1 .3 0l.47.49a.23.23 0 0 1 0 .31L10.58 8a.22.22 0 0 0 0 .34"/></clipPath>
    <clipPath id="c"><path d="m7.11 9.91-2.43 2.57a.23.23 0 0 0 0 .31l.47.49a.2.2 0 0 0 .3 0l3.2-3.37a.22.22 0 0 0 0-.3L5.5 6.29a.2.2 0 0 0-.3 0l-.47.49a.22.22 0 0 0 0 .3l2.38 2.53a.2.2 0 0 1 0 .3"/></clipPath>
    <mask id="wko">
      <rect width="18" height="18" fill="white"/>
      <circle cx="9" cy="9" r="7.4" fill="black"/>
    </mask>
  </defs>
  <g fill="currentColor" mask="url(#wko)">
    <circle cx="9" cy="9" r="8.5" fill="currentColor"/>
  </g>
  <path fill="currentColor" d="m10.43 8.19 2.73 2.88-.77.8-3.5-3.68 3.45-3.63.77.8z"/>
  <path fill="currentColor" d="m13.16 11.07-2.73-2.88-.76.8 2.72 2.88z"/>
  <path fill="currentColor" d="m7.26 9.76-2.72 2.88.76.8 3.5-3.68-3.45-3.63-.77.8z"/>
  <path fill="currentColor" d="m4.54 12.64 2.72-2.88.76.8-2.72 2.88z"/>
</svg>