<svg height="18" viewBox="0 0 18 18" width="18" xmlns="http://www.w3.org/2000/svg" xmlns:xlink="http://www.w3.org/1999/xlink"><clipPath id="a"><path d="m10.58 8.34 2.42 2.58a.22.22 0 0 1 0 .3l-.47.49a.2.2 0 0 1 -.3 0l-3.23-3.37a.22.22 0 0 1 0-.34l3.15-3.32a.2.2 0 0 1 .3 0l.47.49a.23.23 0 0 1 0 .31l-2.34 2.52a.22.22 0 0 0 0 .34"/></clipPath><clipPath id="b"><path d="m7.11 9.91-2.43 2.57a.23.23 0 0 0 0 .31l.47.49a.2.2 0 0 0 .3 0l3.2-3.37a.22.22 0 0 0 0-.3l-3.15-3.32a.2.2 0 0 0 -.3 0l-.47.49a.22.22 0 0 0 0 .3l2.38 2.53a.2.2 0 0 1 0 .3"/></clipPath><radialGradient id="c" cx="8.7948" cy="8.8074" gradientUnits="userSpaceOnUse" r="8.46"><stop offset=".18" stop-color="#5ea0ef"/><stop offset=".56" stop-color="#5c9fee"/><stop offset=".69" stop-color="#559ced"/><stop offset=".78" stop-color="#4a97e9"/><stop offset=".86" stop-color="#3990e4"/><stop offset=".93" stop-color="#2387de"/><stop offset=".99" stop-color="#087bd6"/><stop offset="1" stop-color="#0078d4"/></radialGradient><circle cx="9" cy="9" fill="url(#c)" r="8.5"/><circle cx="9" cy="9" fill="#fff" r="7.4"/><g clip-path="url(#a)"><path d="m10.43 8.19 2.73 2.88-.77.8-3.5-3.68 3.45-3.63.77.8z" fill="#5e9624"/><path d="m13.16 11.07-2.73-2.88-.76.8 2.72 2.88z" fill="#86d633"/></g><g clip-path="url(#b)"><path d="m7.26 9.76-2.72 2.88.76.8 3.5-3.68-3.45-3.63-.77.8z" fill="#5e9624"/><path d="m4.54 12.64 2.72-2.88.76.8-2.72 2.88z" fill="#86d633"/></g></svg>