<svg xmlns="http://www.w3.org/2000/svg" width="18" height="18" viewBox="0 0 18 18"><defs><mask id="a"><path fill="#fff" d="M0 0h18v18H0z"/><path d="m2.2 1.79.59-.68A.44.44 0 0 1 3.11 1h8.69a.42.42 0 0 1 .42.42v11.01a.44.44 0 0 1-.13.31l-.93.85"/></mask></defs><g fill="currentColor" mask="url(#a)"><path d="m1.42 1.79 1-1.13A.48.48 0 0 1 2.75.5h9.31a.66.66 0 0 1 .71.67v11.62a.48.48 0 0 1-.16.35l-1 .95z"/><path d="m1.42 1.79 1-1.13A.48.48 0 0 1 2.75.5h9.31a.66.66 0 0 1 .71.67v11.62a.48.48 0 0 1-.16.35l-1 .95z" opacity=".5"/></g><path fill="currentColor" d="M11.1 1.78H1.4v12a.31.31 0 0 0 .31.31h9.39a.31.31 0 0 0 .31-.31V2.09a.31.31 0 0 0-.31-.31"/><path fill="currentColor" d="M12.22 10.08c-2.41 0-4.37-.62-4.37-1.39v7.42c0 .76 1.92 1.38 4.31 1.39h.06c2.42 0 4.38-.62 4.38-1.39V8.69c0 .77-1.96 1.39-4.38 1.39"/><path fill="currentColor" d="M16.6 8.69c0 .77-2 1.39-4.38 1.39s-4.37-.62-4.37-1.39 2-1.4 4.37-1.4 4.38.63 4.38 1.4"/><path fill="currentColor" d="M15.58 8.58c0 .49-1.51.88-3.36.88s-3.35-.39-3.35-.88 1.5-.89 3.35-.89 3.36.4 3.36.89"/><path fill="currentColor" d="M12.22 8.78a8.9 8.9 0 0 0-2.65.34 8.8 8.8 0 0 0 2.65.34 8.9 8.9 0 0 0 2.66-.34 9 9 0 0 0-2.66-.34"/></svg>