<svg xmlns="http://www.w3.org/2000/svg" fill="currentColor" fill-rule="evenodd" viewBox="0 0 24 24"><path fill="currentColor" d="M11.86-.14c6.622 0 12 5.377 12 12 0 6.622-5.378 12-12 12-6.623 0-12-5.378-12-12 0-6.623 5.377-12 12-12M7.831 18.006l4.892.034.01-1.523-3.375-.025.018-6.023-1.523-.004zm7.533-12.229a3.794 3.794 0 0 0 0 7.585 3.794 3.794 0 0 0 0-7.585M2.533 10.446l.002 1.524 3.508-.004-.002-1.524zm12.832-3.221a2.35 2.35 0 0 1 2.346 2.346 2.35 2.35 0 0 1-2.346 2.346 2.35 2.35 0 0 1-2.346-2.346 2.35 2.35 0 0 1 2.346-2.346"/></svg>