<svg height="18" viewBox="0 0 18 18" width="18" xmlns="http://www.w3.org/2000/svg" xmlns:xlink="http://www.w3.org/1999/xlink"><linearGradient id="a" gradientUnits="userSpaceOnUse" x1="13.398" x2="13.398" y1="1.747" y2="7.447"><stop offset="0" stop-color="#5ea0ef"/><stop offset="1" stop-color="#0078d4"/></linearGradient><linearGradient id="b" gradientUnits="userSpaceOnUse" x1="2.85" x2="2.85" y1="5.341" y2="11.041"><stop offset="0" stop-color="#a67af4"/><stop offset="1" stop-color="#773adc"/></linearGradient><linearGradient id="c" gradientUnits="userSpaceOnUse" x1="11.829" x2="11.829" y1="12.149" y2="20.004"><stop offset="0" stop-color="#3cd4c2"/><stop offset="1" stop-color="#258277"/></linearGradient><path d="m14.428 6.615a.53.53 0 0 1 -.438-.235l-2.639-3.965a2.643 2.643 0 0 0 -4.443 0l-1.478 2.285a.525.525 0 0 1 -.882-.57l1.478-2.291a3.694 3.694 0 0 1 6.2 0l2.639 3.961a.526.526 0 0 1 -.437.817z" fill="#0078d4"/><path d="m14.3 15.538h-3.169a.526.526 0 0 1 0-1.051h3.169a2.644 2.644 0 0 0 2.22-4.078l-1.178-1.828a.525.525 0 0 1 .883-.569l1.175 1.828a3.694 3.694 0 0 1 -3.1 5.7z" fill="#37c2b1"/><path d="m7.269 15.538h-2.947a3.694 3.694 0 0 1 -3.1-5.7l1.944-2.975a.525.525 0 0 1 .879.575l-1.945 2.974a2.643 2.643 0 0 0 2.221 4.075h2.948a.526.526 0 0 1 0 1.051" fill="#a67af4"/><circle cx="13.398" cy="4.597" fill="url(#a)" r="2.85"/><path d="m2.849 5.382a2.85 2.85 0 1 0 2.851 2.849 2.85 2.85 0 0 0 -2.851-2.849" fill="url(#b)"/><path d="m11.828 12.149a2.85 2.85 0 1 0 2.851 2.851 2.85 2.85 0 0 0 -2.851-2.851" fill="url(#c)"/>​</svg>