<svg viewBox="0 0 24 24" xmlns="http://www.w3.org/2000/svg"><path d="m19.733 11.831c.324 0 .442.028.564.084a.732.732 0 0 1 .3.249c.077.11.126.22.186.538l.265 1.415.015.081h-18.126l.015-.08.265-1.416c.06-.318.109-.429.186-.538a.732.732 0 0 1 .3-.25c.122-.055.24-.083.564-.083zm1.149 3.052-1.227 1.743c-.174.246-.248.325-.343.401a.894.894 0 0 1 -.315.163c-.117.034-.224.05-.525.05h-12.944c-.301 0-.408-.016-.525-.05a.894.894 0 0 1 -.315-.163c-.095-.076-.169-.155-.343-.401l-1.227-1.743-.007-.01h17.778a1.073 1.073 0 0 1 -.007.01zm-18.65-14.883h19.536c.482 0 .657.05.834.144a.983.983 0 0 1 .408.41c.095.176.145.35.145.833v.945c0 .482-.05.657-.145.833a.983.983 0 0 1 -.408.409c-.177.094-.352.144-.834.144h-19.536c-.482 0-.657-.05-.834-.144a.983.983 0 0 1 -.408-.41c-.095-.175-.145-.35-.145-.832v-.945c0-.483.05-.657.145-.834a.983.983 0 0 1 .408-.409c.177-.094.352-.144.834-.144zm5.273 4.733 1.028 6.422h-3.896l-1.887-6.424zm8.651 0-1.088 6.422h-5.859l-1.088-6.423zm5.094.002-1.88 6.422h-3.63l1.025-6.423zm-13.144 13.519a17.992 17.992 0 0 1 1.567 5.45.338.338 0 0 0 .335.296h3.972c.17 0 .313-.127.334-.296a17.993 17.993 0 0 1 1.567-5.45z"/></svg>