<svg xmlns="http://www.w3.org/2000/svg" width="18" height="18" viewBox="0 0 18 18"><defs><mask id="a"><path fill="#fff" d="M0 0h18v18H0z"/><path d="M7.776 10.632h2.448v2.448H7.776zM4.92 7.368h2.448V4.92H5.262a.34.34 0 0 0-.342.342zm.342 5.712h2.106v-2.448H4.92v2.106a.34.34 0 0 0 .342.342m-.342-2.856h2.448V7.776H4.92zm5.712 2.856h2.106a.34.34 0 0 0 .342-.342v-2.106h-2.448zm-2.856-2.856h2.448V7.776H7.776zm2.856 0h2.448V7.776h-2.448zm0-5.3v2.444h2.448V5.262a.34.34 0 0 0-.342-.342zM7.776 7.368h2.448V4.92H7.776z"/></mask></defs><g fill="currentColor" mask="url(#a)"><circle cx="9" cy="9" r="8.5"/></g></svg>