<svg height="18" viewBox="0 0 18 18" width="18" xmlns="http://www.w3.org/2000/svg"><path d="m14.609 11.297-5.609 1.781-5.609-1.781c-.34-.108-.691.133-.691.474v3.869c0 .215.145.406.359.474l5.941 1.886 5.941-1.886a.5.5 0 0 0 .359-.474v-3.869c0-.341-.351-.582-.691-.474" fill="#76d263"/><path d="m15.3 9.641v-3.869c0-.341-.351-.582-.691-.474l-5.609 1.781-5.609-1.781c-.34-.108-.691.133-.691.474v3.869c0 .215.145.406.359.474l5.941 1.886 5.941-1.886a.5.5 0 0 0 .359-.474" fill="#399a91"/><path d="m2.7 3.64v-3.14c0-.276.235-.5.525-.5h11.55c.29 0 .525.224.525.5v3.14a.5.5 0 0 1 -.359.474l-5.941 1.886-5.941-1.886a.5.5 0 0 1 -.359-.474" fill="#225b62"/></svg>