<svg viewBox="0 0 128 128" xmlns="http://www.w3.org/2000/svg"><path d="m40.473 5.34-34.987 23.564 13.006 80.371 33.549 12.899 14.033-11.399 22.026 11.592 34.414-20.101-13.012-27.81 13.012-23.585-21.442-11.9v62.101h-74.142v-74.142h60.654l-8.078-19.75-12.877 12.677zm-12.543 22.59v72.142h72.142v-72.142zm8.64 8.545h12.557a10.971 10.971 0 0 1 8.01 2.79 8.631 8.631 0 0 1 2.365 6.292v.072a8.533 8.533 0 0 1 -5.9 8.533l6.728 9.826h-7.084l-5.887-8.802h-4.691v8.802h-6.096zm27.953 0h10.729c8.643 0 14.629 5.936 14.629 13.677v.084c0 7.741-5.973 13.752-14.629 13.752h-10.729zm10.777 5.449-4.682.012v16.578h4.682a7.838 7.838 0 0 0 8.29-8.215v-.074a7.912 7.912 0 0 0 -8.29-8.301zm-32.631.06v7.899l6.094.002c2.95 0 4.644-1.575 4.644-3.89v-.073c0-2.597-1.804-3.938-4.754-3.938zm-6.121 44.762h27.43v4.572h-27.43z" fill="#dd1265"/></svg>