<svg viewBox="0 0 24 24" xmlns="http://www.w3.org/2000/svg"><path d="m18.742 1.182-12.493.002c-2.094 3.6-4.17 7.209-6.249 10.818 2.071 3.612 4.162 7.214 6.252 10.816l12.49-.004 3.089-5.404h2.158v-.002h.011l-.004-10.818h-2.168zm-10.415 3.61h2.081l1.04 1.8-3.12 5.413 3.117 5.403-1.035 1.81h-2.083a2047.566 2047.566 0 0 0 -4.168-7.204c1.388-2.408 2.778-4.814 4.168-7.222zm6.241 0 2.086.003c1.393 2.405 2.78 4.813 4.166 7.222l-4.167 7.2h-2.08c-.382-.562-1.038-1.808-1.038-1.808l3.123-5.405-3.124-5.413z"/></svg>