<svg height="64" viewBox="0 0 64 64" width="64" xmlns="http://www.w3.org/2000/svg"><g fill="none" fill-rule="evenodd"><path d="m0 0h64v64h-64z" fill="#dd344c"/><path d="m26.483 2-2.402 5.606a1 1 0 0 0 -.06.598l.791 3.796h-5.592l.761-3.804a1 1 0 0 0 -.06-.59l-2.406-5.606zm-8.523 6.108-.94 4.696a1.001 1.001 0 0 0 .98 1.196h3v7h2v-7h3.042a1 1 0 0 0 .978-1.204l-.977-4.692 2.876-6.71a1.001 1.001 0 0 0 -.919-1.394h-12a1 1 0 0 0 -.919 1.394zm17.282 20.479-2.404 1.145-10.838 5.161-10.837-5.161-2.405-1.145-5.332-2.539 5.288-2.267 5.333 2.539 2.405 1.146 5.118 2.437a1 1 0 0 0 .86 0l5.117-2.437 2.405-1.146 5.333-2.539 5.288 2.267zm5.332 4.461-18.574 8.845-18.574-8.845 5.288-2.267 12.856 6.122a1 1 0 0 0 .86 0l12.855-6.122zm3.426-7.068a1 1 0 0 0 -.607-.899l-5.704-2.445 5.74-2.733c.355-.169.578-.53.571-.923a1 1 0 0 0 -.607-.899l-14.526-6.226.111.533a3 3 0 0 1 -.135 1.633l11.73 5.027-5.332 2.539-2.404 1.145-5.333 2.539-2.405 1.146-3.099 1.476-3.1-1.476-2.404-1.146-5.333-2.539-2.405-1.145-5.332-2.539 11.766-5.043a3 3 0 0 1 -.134-1.593l.115-.574-14.567 6.243a.999.999 0 0 0 -.036 1.822l5.74 2.733-5.704 2.445a.999.999 0 0 0 -.036 1.822l5.74 2.733-5.704 2.445a.999.999 0 0 0 -.036 1.822l21 10a1 1 0 0 0 .86 0l21-10a1.002 1.002 0 0 0 -.036-1.822l-5.705-2.445 5.74-2.733c.355-.169.578-.53.571-.923" fill="#fff" transform="translate(10 10)"/></g></svg>