<svg xmlns="http://www.w3.org/2000/svg" fill="currentColor" fill-rule="evenodd" viewBox="0 0 24 24"><path fill-opacity=".5" d="M19.04 4.818a10.17 10.17 0 0 1 4.21 8.25c0 5.623-4.55 10.182-10.163 10.182a10.14 10.14 0 0 1-8.129-4.07 10.1 10.1 0 0 0 5.956 1.934c5.613 0 10.163-4.56 10.163-10.182a10.15 10.15 0 0 0-2.037-6.114"/><path d="M10.887 5.2c1.156 0 2.097.944 2.097 2.1 0 .354-.09.7-.258 1.006a.59.59 0 0 0 .233.797.58.58 0 0 0 .647-.062 2.08 2.08 0 0 1 1.251-.305 2.1 2.1 0 0 1 1.931 2.248 2.097 2.097 0 0 1-2.244 1.939 2.08 2.08 0 0 1-1.246-.533q-.027-.036-.056-.07a.6.6 0 0 0-.111-.102 2 2 0 0 1-.137-.173.58.58 0 1 0-.947.675q.176.252.39.462c.22.291.36.637.405 1.005a2.08 2.08 0 0 1-.425 1.546 2.1 2.1 0 0 1-1.398.792 2.094 2.094 0 0 1-2.335-1.827 2.1 2.1 0 0 1 .263-1.304v.005a3.27 3.27 0 0 0 1.216-2.546c0-.92-.383-1.745-.993-2.34l-.03-.055A2.101 2.101 0 0 1 10.887 5.2"/><path d="M6.901 8.752a2.1 2.1 0 0 1 0 4.201 2.097 2.097 0 0 1-2.091-2.1c0-1.159.937-2.101 2.091-2.101"/><path d="M10.914.75c5.613 0 10.163 4.559 10.163 10.182s-4.55 10.182-10.163 10.182S.75 16.555.75 10.932 5.301.75 10.914.75m-.021 3.283A3.27 3.27 0 0 0 7.65 7.671a3.27 3.27 0 0 0-4.006 3.182c0 1.8 1.464 3.262 3.262 3.262q.316.002.618-.055-.045.386.005.78a3.25 3.25 0 0 0 1.23 2.178 3.23 3.23 0 0 0 2.407.665 3.24 3.24 0 0 0 2.173-1.234c.535-.689.77-1.545.663-2.41 0-.006-.005-.013-.005-.02q.229.05.466.066a3.23 3.23 0 0 0 2.365-.781 3.27 3.27 0 0 0-1.884-5.734 3.3 3.3 0 0 0-.81.04 3.266 3.266 0 0 0-3.241-3.577" clip-rule="evenodd"/></svg>