<svg height="48" viewBox="0 0 48 48" width="48" xmlns="http://www.w3.org/2000/svg"><path d="m37.449 22.261v3.96l-2.423-2.014zm.361 6.86a1 1 0 0 0 1.639-.769v-8.176a1 1 0 0 0 -1.626-.779l-5.004 4.017a1.002 1.002 0 0 0 -.013 1.549zm-27.283-6.814 2.424 2.015-2.424 1.945zm-1.432 6.946a1 1 0 0 0 1.058-.121l5.005-4.017a1.002 1.002 0 0 0 .013-1.549l-5.005-4.159a1.001 1.001 0 0 0 -1.639.769v8.176c0 .385.221.735.568.901m19.273 4.774h2v-19.28h-2zm-5.247 0h2v-19.28h-2zm-5.41 0h2v-19.28h-2zm-13.712 1.746h39.978v-22.772h-39.978zm40.978-24.773h-41.977a1 1 0 0 0 -1 1v24.773a1 1 0 0 0 1 1h41.977a1 1 0 0 0 1-1v-24.773a1 1 0 0 0 -1-1" fill="#e7157b" fill-rule="evenodd"/></svg>