<svg xmlns="http://www.w3.org/2000/svg" id="svg11" width="1000" height="1000" viewBox="0 0 633.333 633.333"><g id="g43"><g id="g975"><path id="path6" d="M632.5 296.667C622.5 131.667 485 0 316.667 0S10.833 131.667.833 296.667c0 6.666.834 13.333 1.667 20C9.167 371.667 30 422.5 61.667 465c57.5 78.333 150 129.167 255 129.167C170 594.167 50 480 40 336.667c-.833-6.667-.833-13.334-.833-20s0-13.334.833-20c10-143.334 130-257.5 276.667-257.5 105 0 197.5 50.833 255 129.166 31.666 42.5 52.5 93.334 59.166 148.334.834 6.666 1.667 13.333 1.667 19.166 0-6.666.833-13.333.833-20 0-5.833 0-12.5-.833-19.166" fill="#89d329" stroke-width="8.33333302"/><path id="path8" d="M.833 336.667c10 165 147.5 296.666 315.834 296.666C485 633.333 622.5 501.667 632.5 336.667c0-6.667-.833-13.334-1.667-20-6.666-55-27.5-105.834-59.166-148.334-57.5-78.333-150-129.166-255-129.166 146.666 0 266.666 114.166 276.666 257.5.834 6.666.834 13.333.834 20s0 13.333-.834 20c-10 144.166-130 257.5-276.666 257.5-105 0-197.5-50.834-255-129.167C30 422.5 9.167 371.667 2.5 316.667 1.667 310 .833 303.333.833 297.5c0 6.667-.833 13.333-.833 20 0 5.833 0 12.5.833 19.167" fill="#00bcff" stroke-width="8.33333302"/></g><g id="g28"><path id="path858" d="M438.158 96.053V234.21h96.053c23.684 0 42.105-18.421 42.105-42.106 0-11.842-5.263-22.368-13.158-30.263 5.263-6.58 9.21-15.79 10.526-25 0-22.369-18.421-40.79-40.79-40.79zM469.736 125h57.895a11.794 11.794 0 0 1 11.844 11.842 11.794 11.794 0 0 1-11.844 11.842h-57.895zm0 52.63h59.211c7.895 0 13.158 5.264 13.158 13.16 0 7.894-5.263 13.157-13.158 13.157h-59.21z" transform="scale(.63333)" fill="#10384f" stroke-width="13.15789413"/><path id="path852" d="m484.21 260.525-68.42 138.159h35.526L461.842 375h77.633L550 398.684h35.525L515.79 260.525ZM500 296.053l23.684 50h-47.368z" transform="scale(.63333)" fill="#10384f" stroke-width="13.15789413"/><path id="path848" d="M346.667 271.667h25L327.5 328.333v30.834h-20.833v-30.834L262.5 271.667h25l30 40z" fill="#10384f" stroke-width="8.33333302"/><path id="path844" d="M773.684 428.947v138.158h32.894v-52.63h25l39.475 52.63h39.472l-40.789-53.947C886.842 507.895 900 492.106 900 472.37c0-23.684-18.421-43.422-42.105-43.422zm34.21 28.948h47.37c6.579 0 13.158 6.579 13.158 13.158s-5.264 13.158-13.158 13.158h-47.37z" transform="scale(.63333)" fill="#10384f" fill-opacity="1" stroke-width="13.15789413"/><path id="path858-0" d="M64.167 271.666v87.5H125c15 0 26.667-11.666 26.667-26.666 0-7.5-3.334-14.167-8.334-19.167 3.334-4.167 5.833-10 6.666-15.833 0-14.167-11.666-25.834-25.833-25.834zm20 18.334h36.666a7.47 7.47 0 0 1 7.5 7.5 7.47 7.47 0 0 1-7.5 7.5H84.166Zm0 33.333h37.5c5 0 8.333 3.333 8.333 8.333S126.666 340 121.666 340h-37.5Z" fill="#10384f" stroke-width="8.33333302"/><path id="path852-8" d="m207.5 271.667-43.333 87.5h22.5l6.667-15H242.5l6.666 15h22.5l-44.167-87.5zm10 22.5 15 31.667h-30z" fill="#10384f" stroke-width="8.33333302"/><path id="path830-7" d="M462.5 271.667v18.808h-58.333v14.72h56.666v18.808h-56.666v16.355H462.5v18.809h-79.167v-87.5z" fill="#10384f" fill-opacity="1" stroke-width="8.25509262"/><path id="path844-7" d="M276.666 486.667v87.5H297.5v-33.332h15.833l25 33.332h25L337.5 540.001c10.833-3.334 19.167-13.333 19.167-25.833 0-15-11.667-27.5-26.667-27.5zM298.333 505h30c4.168 0 8.334 4.167 8.334 8.334s-3.333 8.334-8.333 8.334h-30Z" fill="#10384f" fill-opacity="1" stroke-width="8.33333302"/><path id="path830-7-6" d="M356.667 378.139v18.808h-58.334v14.72H355v18.808h-56.667v16.355h58.334v18.809H277.5v-87.5z" fill="#10384f" fill-opacity="1" stroke-width="8.25509262"/></g></g></svg>