<svg height="1000" viewBox="0 0 633.333 633.333" width="1000" xmlns="http://www.w3.org/2000/svg"><path d="m632.5 296.667c-10-165-147.5-296.667-315.833-296.667s-305.834 131.667-315.834 296.667c0 6.666.834 13.333 1.667 20 6.667 55 27.5 105.833 59.167 148.333 57.5 78.333 150 129.167 255 129.167-146.667 0-266.667-114.167-276.667-257.5-.833-6.667-.833-13.334-.833-20s0-13.334.833-20c10-143.334 130-257.5 276.667-257.5 105 0 197.5 50.833 255 129.166 31.666 42.5 52.5 93.334 59.166 148.334.834 6.666 1.667 13.333 1.667 19.166 0-6.666.833-13.333.833-20 0-5.833 0-12.5-.833-19.166" fill="#89d329" stroke-width="8.333333"/><path d="m.833 336.667c10 165 147.5 296.666 315.834 296.666 168.333 0 305.833-131.666 315.833-296.666 0-6.667-.833-13.334-1.667-20-6.666-55-27.5-105.834-59.166-148.334-57.5-78.333-150-129.166-255-129.166 146.666 0 266.666 114.166 276.666 257.5.834 6.666.834 13.333.834 20s0 13.333-.834 20c-10 144.166-130 257.5-276.666 257.5-105 0-197.5-50.834-255-129.167-31.667-42.5-52.5-93.333-59.167-148.333-.833-6.667-1.667-13.334-1.667-19.167 0 6.667-.833 13.333-.833 20 0 5.833 0 12.5.833 19.167" fill="#00bcff" stroke-width="8.333333"/><g fill="#10384f"><path d="m438.158 96.053v138.157h96.053c23.684 0 42.105-18.421 42.105-42.106 0-11.842-5.263-22.368-13.158-30.263 5.263-6.58 9.21-15.79 10.526-25 0-22.369-18.421-40.79-40.79-40.79zm31.578 28.947h57.895a11.794 11.794 0 0 1 11.844 11.842 11.794 11.794 0 0 1 -11.844 11.842h-57.895zm0 52.63h59.211c7.895 0 13.158 5.264 13.158 13.16 0 7.894-5.263 13.157-13.158 13.157h-59.21z" stroke-width="13.157894" transform="scale(.63333)"/><path d="m484.21 260.525-68.42 138.159h35.526l10.526-23.684h77.633l10.525 23.684h35.525l-69.735-138.159zm15.79 35.528 23.684 50h-47.368z" stroke-width="13.157894" transform="scale(.63333)"/><path d="m346.667 271.667h25l-44.167 56.666v30.834h-20.833v-30.834l-44.167-56.666h25l30 40z" stroke-width="8.333333"/><path d="m773.684 428.947v138.158h32.894v-52.63h25l39.475 52.63h39.472l-40.789-53.947c17.106-5.263 30.264-21.052 30.264-40.788 0-23.684-18.421-43.422-42.105-43.422zm34.21 28.948h47.37c6.579 0 13.158 6.579 13.158 13.158s-5.264 13.158-13.158 13.158h-47.37z" stroke-width="13.157894" transform="scale(.63333)"/><path d="m64.167 271.666v87.5h60.833c15 0 26.667-11.666 26.667-26.666 0-7.5-3.334-14.167-8.334-19.167 3.334-4.167 5.833-10 6.666-15.833 0-14.167-11.666-25.834-25.833-25.834zm20 18.334h36.666a7.47 7.47 0 0 1 7.5 7.5 7.47 7.47 0 0 1 -7.5 7.5h-36.667zm0 33.333h37.5c5 0 8.333 3.333 8.333 8.333s-3.334 8.334-8.334 8.334h-37.5z" stroke-width="8.333333"/><path d="m207.5 271.667-43.333 87.5h22.5l6.667-15h49.166l6.666 15h22.5l-44.167-87.5zm10 22.5 15 31.667h-30z" stroke-width="8.333333"/><path d="m462.5 271.667v18.808h-58.333v14.72h56.666v18.808h-56.666v16.355h58.333v18.809h-79.167v-87.5z" stroke-width="8.255093"/><path d="m276.666 486.667v87.5h20.834v-33.332h15.833l25 33.332h25l-25.833-34.166c10.833-3.334 19.167-13.333 19.167-25.833 0-15-11.667-27.5-26.667-27.5zm21.667 18.333h30c4.168 0 8.334 4.167 8.334 8.334s-3.333 8.334-8.333 8.334h-30z" stroke-width="8.333333"/><path d="m356.667 378.139v18.808h-58.334v14.72h56.667v18.808h-56.667v16.355h58.334v18.809h-79.167v-87.5z" stroke-width="8.255093"/></g></svg>