<svg height="18" viewBox="0 0 18 18" width="18" xmlns="http://www.w3.org/2000/svg" xmlns:xlink="http://www.w3.org/1999/xlink"><linearGradient id="a" gradientUnits="userSpaceOnUse" x1="9" x2="9" y1=".199" y2="15.707"><stop offset=".117" stop-color="#5ea0ef"/><stop offset=".271" stop-color="#4595e8"/><stop offset=".531" stop-color="#1f85dd"/><stop offset=".741" stop-color="#087cd6"/><stop offset=".873" stop-color="#0078d4"/></linearGradient><path d="m14.506 7.464a5.16 5.16 0 0 0 -5.294-4.871 5.31 5.31 0 0 0 -4.977 3.388 4.97 4.97 0 0 0 -4.235 4.659 4.884 4.884 0 0 0 5 4.768h8.98a4.024 4.024 0 0 0 4.02-4.027 4.08 4.08 0 0 0 -3.494-3.917" fill="url(#a)"/><path d="m13.786 10.198-4.487-1.667-.116.288.073-.264-3.984-.877-.191.668 3.362.729-4.314 1.783.332.592 4.454-1.85.797 3.51.689-.085-.812-3.623 3.933 1.438z" fill="#83b9f9"/><path d="m4.581 8.6a.881.881 0 1 0 .156-1.236l-.02.016a.875.875 0 0 0 -.136 1.22m-1 3.117a.886.886 0 1 0 .15-1.245.886.886 0 0 0 -.15 1.245m9.262-.77a.877.877 0 1 0 .157-1.227.867.867 0 0 0 -.162 1.214zm-3.482 2.706a.877.877 0 1 0 .156-1.23.867.867 0 0 0 -.167 1.217z" fill="#9cebff"/><path d="m11.736 9.038a.264.264 0 0 0 0-.458l-1.936-1.12-1.942-1.119a.264.264 0 0 0 -.4.229v4.478a.264.264 0 0 0 .4.229l1.942-1.119z" fill="#c3f1ff"/></svg>