<svg xmlns="http://www.w3.org/2000/svg" xmlns:xlink="http://www.w3.org/1999/xlink" viewBox="0 0 1024 1024"><linearGradient id="d" x1="260.967" x2="919.184" y1="871.181" y2="491.16" gradientUnits="userSpaceOnUse"><stop offset="0" stop-color="#669abd"/><stop offset="1" stop-color="#77dbdb"/></linearGradient><linearGradient id="a"><stop offset=".559" stop-opacity="0"/><stop offset="1"/></linearGradient><linearGradient xlink:href="#a" id="f" x1="553.505" x2="626.647" y1="617.828" y2="744.513" gradientUnits="userSpaceOnUse"/><linearGradient id="b"><stop offset="0" stop-color="#6a8fad"/><stop offset="1" stop-color="#669abd"/></linearGradient><linearGradient xlink:href="#b" id="g" x1="114.663" x2="334.091" y1="744.528" y2="871.214" gradientUnits="userSpaceOnUse"/><linearGradient xlink:href="#a" id="h" x1="260.948" x2="187.806" y1="744.528" y2="871.213" gradientUnits="userSpaceOnUse"/><linearGradient xlink:href="#b" id="i" x1="114.663" x2="553.503" y1="237.793" y2="491.157" gradientUnits="userSpaceOnUse"/><linearGradient xlink:href="#a" id="j" x1="370.656" x2="297.509" y1="301.128" y2="427.822" gradientUnits="userSpaceOnUse"/><linearGradient id="k" x1="78.091" x2="736.337" y1="554.498" y2="174.459" gradientUnits="userSpaceOnUse"><stop offset="0" stop-color="#ccecff"/><stop offset="1" stop-color="#9feced"/></linearGradient><path fill="url(#d)" d="m297.54 934.52 585.06-337.8.01-168.9-585.07 337.83z"/><path fill="url(#f)" d="m297.54 934.52 585.06-337.8.01-168.9-585.07 337.83z" opacity=".16"/><path fill="url(#g)" d="m151.23 681.18-.01 168.91 146.32 84.43V765.65z"/><path fill="url(#h)" d="m151.23 681.18-.01 168.91 146.32 84.43V765.65z" opacity=".16"/><path fill="url(#i)" d="m151.23 174.45-.02 168.91 292.58 168.91 146.29-84.46z"/><path fill="url(#j)" d="m151.23 174.45-.02 168.91 292.58 168.91 146.29-84.46z" opacity=".15"/><path fill="url(#k)" d="m297.51 765.64-146.28-84.46 438.85-253.37-438.85-253.36L297.5 90l585.11 337.82z"/></svg>