<svg viewBox="0 0 1024 1024" xmlns="http://www.w3.org/2000/svg" xmlns:xlink="http://www.w3.org/1999/xlink"><linearGradient id="a" gradientUnits="userSpaceOnUse" x1="260.967" x2="919.184" y1="871.181" y2="491.16"><stop offset="0" stop-color="#669abd"/><stop offset="1" stop-color="#77dbdb"/></linearGradient><linearGradient id="b"><stop offset=".559" stop-opacity="0"/><stop offset="1"/></linearGradient><linearGradient id="c" gradientUnits="userSpaceOnUse" x1="553.505" x2="626.647" xlink:href="#b" y1="617.828" y2="744.513"/><linearGradient id="d"><stop offset="0" stop-color="#6a8fad"/><stop offset="1" stop-color="#669abd"/></linearGradient><linearGradient id="e" gradientUnits="userSpaceOnUse" x1="114.663" x2="334.091" xlink:href="#d" y1="744.528" y2="871.214"/><linearGradient id="f" gradientUnits="userSpaceOnUse" x1="260.948" x2="187.806" xlink:href="#b" y1="744.528" y2="871.213"/><linearGradient id="g" gradientUnits="userSpaceOnUse" x1="114.663" x2="553.503" xlink:href="#d" y1="237.793" y2="491.157"/><linearGradient id="h" gradientUnits="userSpaceOnUse" x1="370.656" x2="297.509" xlink:href="#b" y1="301.128" y2="427.822"/><linearGradient id="i" gradientUnits="userSpaceOnUse" x1="78.091" x2="736.337" y1="554.498" y2="174.459"><stop offset="0" stop-color="#ccecff"/><stop offset="1" stop-color="#9feced"/></linearGradient><path d="m297.54 934.52 585.06-337.8.01-168.9-585.07 337.83z" fill="url(#a)"/><path d="m297.54 934.52 585.06-337.8.01-168.9-585.07 337.83z" fill="url(#c)" opacity=".16"/><path d="m151.23 681.18-.01 168.91 146.32 84.43v-168.87z" fill="url(#e)"/><path d="m151.23 681.18-.01 168.91 146.32 84.43v-168.87z" fill="url(#f)" opacity=".16"/><path d="m151.23 174.45-.02 168.91 292.58 168.91 146.29-84.46z" fill="url(#g)"/><path d="m151.23 174.45-.02 168.91 292.58 168.91 146.29-84.46z" fill="url(#h)" opacity=".15"/><path d="m297.51 765.64-146.28-84.46 438.85-253.37-438.85-253.36 146.27-84.45 585.11 337.82z" fill="url(#i)"/></svg>