<svg viewBox="0 0 24 24" xmlns="http://www.w3.org/2000/svg" fill="#DB6A26"><path d="m20.949 11.496c-.376-6.131-7.055-11.436-9.806-11.496-2.752-.059-7.896 6.435-8.103 13.033-.196 6.186 5.084 10.429 7.357 10.967.063-2.91.296-13.627.335-14.877.082-2.553.207-6.527.634-6.659.244-.076.578 2.158.537 3.478-.008.252-.011 1.068-.011 2.226.46-.469.94-.955 1.233-1.242.8-.787 1.155-.693.77.009-.236.432-1.253 1.868-2.001 2.909.004 2.099.013 4.74.023 7.202 1.057-1.237 2.35-2.72 3.03-3.378 1.425-1.382 1.576-1.207.903.243-.413.888-2.434 3.258-3.925 5.127.009 2.185.016 4.021.018 4.898 4-.88 9.373-6.42 9.006-12.44"/></svg>