<svg fill="none" height="64" viewBox="0 0 64 64" width="64" xmlns="http://www.w3.org/2000/svg"><path d="m0 0h64v64h-64z" fill="#8c4fff"/><path clip-rule="evenodd" d="m28 44h3v-2h-3zm5 0h3v-2h-3zm-5-22h3v-2h-3zm5 0h3v-2h-3zm-11-9.26-10 5.834v27.808l10 5zm2 7.26h2v2h-2v20h2v2h-2v9a1 1 0 0 1 -1.447.895l-12-6a1 1 0 0 1 -.553-.895v-29a1 1 0 0 1 .496-.864l12-7a1.002 1.002 0 0 1 1.504.864zm28-1.426-10-5.834v38.641l10-5zm2-.574v29c0 .379-.214.725-.553.895l-12 6a1 1 0 0 1 -.972-.044 1 1 0 0 1 -.475-.851v-9h-2v-2h2v-20h-2v-2h2v-9a.998.998 0 0 1 1.504-.864l12 7a1 1 0 0 1 .496.864m-19.061 9.342-1.878-.684-4 11 1.878.684zm4.768 5.365a1 1 0 0 0 0-1.414l-3-3-1.414 1.414 2.293 2.293-2.293 2.293 1.414 1.414zm-12.414 3-3-3a1 1 0 0 1 0-1.414l3-3 1.414 1.414-2.293 2.293 2.293 2.293z" fill="#fff" fill-rule="evenodd"/></svg>