<svg viewBox="0 0 24 24" xmlns="http://www.w3.org/2000/svg"><path d="m19.35.37h-1.86a4.628 4.628 0 0 0 -4.652 4.624v5.609h-8.186a4.628 4.628 0 0 0 -4.652 4.627v3.721c0 2.569 2.083 4.679 4.652 4.679h1.86c2.57 0 4.652-2.11 4.652-4.679v-3.72c0-.063 0-.158-.005-.158h-2.786v3.88c0 1.026-.835 1.886-1.861 1.886h-1.86c-1.027 0-1.861-.864-1.861-1.886v-3.723a1.839 1.839 0 0 1 1.86-1.833h14.697c2.57 0 4.652-2.11 4.652-4.679v-3.721a4.628 4.628 0 0 0 -4.65-4.627zm1.861 8.345c0 1.026-.835 1.886-1.861 1.886h-3.721v-5.604a1.839 1.839 0 0 1 1.86-1.833h1.86a1.839 1.839 0 0 1 1.862 1.833zm-8.373 9.706a.236.236 0 0 0 0 .03c0 .746.629 1.344 1.396 1.344s1.395-.594 1.395-1.34a.188.188 0 0 0 0-.034v-3.35h-2.791z"/></svg>