<svg xmlns="http://www.w3.org/2000/svg" viewBox="0 0 128 128"><defs><mask id="a"><path fill="#fff" d="M0 0h128v128H0z"/><path d="M36.547 86.746h27.43v4.574h-27.43zm23.918-26.683 3.57-4.278a12.63 12.63 0 0 0 8.219 3.34c2.437 0 3.973-.988 3.973-2.598v-.074c0-1.535-.95-2.328-5.547-3.496-5.547-1.414-9.118-2.953-9.118-8.414v-.086c0-4.984 4.012-8.289 9.63-8.289a15.85 15.85 0 0 1 10.214 3.5l-3.144 4.559a12.9 12.9 0 0 0-7.157-2.707c-2.316 0-3.535 1.062-3.535 2.437v.086c0 1.805 1.22 2.437 5.938 3.66 5.586 1.461 8.73 3.461 8.73 8.25v.086c0 5.461-4.172 8.535-10.105 8.535a17.48 17.48 0 0 1-11.668-4.402M36.57 36.57h11.215c6.535 0 10.496 3.88 10.496 9.473v.074c0 6.34-4.937 9.63-11.078 9.63h-4.535v8.218H36.57zm10.801 13.813c3.012 0 4.781-1.793 4.781-4.145v-.074c0-2.703-1.879-4.156-4.879-4.156h-4.605v8.375zm0 0"/></mask></defs><g fill="currentColor" mask="url(#a)"><path d="m70.082 27.281-3.898-11.8-40.73-8.778-19.97 22.59L27.43 40.52V27.28zm0 0"/><path d="M27.43 34.96 5.484 29.294l11.157 67 10.75-.086zm0 0"/><path d="M100.57 27.281H62.402l15.336-13.629 29.551 5.489 15.227 37.836-21.934 21.785zm0 0"/><path d="m100.598 56.477-.028 43.949H37.742l1.621 9.558 39.45 13.75 43.703-26.16zm0 0"/></g></svg>