<svg height="18" viewBox="0 0 18 18" width="18" xmlns="http://www.w3.org/2000/svg" xmlns:xlink="http://www.w3.org/1999/xlink"><radialGradient id="a" cx="7.4478" cy="8.6928" gradientUnits="userSpaceOnUse" r="10.5092"><stop offset=".27" stop-color="#ffd70f"/><stop offset=".49" stop-color="#ffcb12"/><stop offset=".88" stop-color="#feac19"/><stop offset="1" stop-color="#fea11b"/></radialGradient><path d="m13.56 7.19a2.07 2.07 0 0 0 0-2.93l-3.56-3.57a2.06 2.06 0 0 0 -2.92 0l-3.56 3.57a2.09 2.09 0 0 0 0 2.93l3 3a.6.6 0 0 1 .17.41v5.52a.7.7 0 0 0 .2.5l1.35 1.35a.45.45 0 0 0 .66 0l1.31-1.31.77-.77a.26.26 0 0 0 0-.38l-.55-.56a.29.29 0 0 1 0-.42l.55-.56a.26.26 0 0 0 0-.38l-.58-.59a.28.28 0 0 1 0-.41l.6-.59a.26.26 0 0 0 0-.38l-.77-.78v-.28zm-5-5.64a1.18 1.18 0 1 1 -1.19 1.18 1.17 1.17 0 0 1 1.17-1.18z" fill="url(#a)"/><g fill="#ff9300"><path d="m7.62 16.21a.25.25 0 0 0 .38-.21v-4.45a.27.27 0 0 0 -.11-.22.25.25 0 0 0 -.39.22v4.45a.27.27 0 0 0 .12.21" opacity=".75"/><rect height=".69" opacity=".75" rx=".32" width="5.86" x="5.69" y="5.45"/><rect height=".69" opacity=".75" rx=".32" width="5.86" x="5.69" y="6.57"/></g></svg>