<svg viewBox="0 0 24 24" xmlns="http://www.w3.org/2000/svg"><path d="m12.452 2.645 4.838 4.065 4.775 4.064 1.806 1.484h-5.355v5.097c1.936.452 3.807 1.161 5.484 2.129-3.742-1.097-7.871-1.484-12.13-1.097-4.256.453-8.256 1.613-11.74 3.42a21.4 21.4 0 0 1 5.29-3.29h-.13v-6.259h-5.29l1.742-1.484 4.839-4.064 4.774-4.065.58-.451zm4.451 14.387s-.064 0-.064-.064v-6.388h2.322l-2.967-2.58-4.258-3.548-4.258 3.548-3.033 2.58h2.387v7.291c1.484-.516 3.032-.839 4.645-1.032a23.3 23.3 0 0 1 5.226.193zm-6.451-6.129c0-.774.645-1.42 1.483-1.42.775 0 1.42.646 1.42 1.42 0 .58-.258 1.032-.71 1.29l.13.259.902 1.483h-3.484l.84-1.483.193-.258c-.452-.259-.774-.71-.774-1.29"/></svg>