<svg viewBox="0 0 24 24" xmlns="http://www.w3.org/2000/svg"><path d="m20.8315 3.36707-12.16289-3.25903c-1.67933-.44996-3.40549.54663-3.85547 2.22596l-3.8701 14.4433c-.44998 1.6795.54662 3.4056 2.22595 3.8555l12.16291 3.2592c1.6793.4499 3.4054-.5467 3.8555-2.226l3.87-14.44346c.4499-1.67933-.5466-3.40549-2.2259-3.85547zm-14.49801-.62569c.225-.83967 1.08807-1.33797 1.92774-1.11297l12.16287 3.25903c.8396.22498 1.3379 1.08806 1.1129 1.92772l-3.8701 14.44344c-.2248.8397-1.088 1.338-1.9276 1.1129l-12.16291-3.259c-.83968-.225-1.33797-1.088-1.11299-1.9276zm2.63341 2.33516c-.41985-.1125-.85138.13666-.96388.55648-.11248.41983.13666.85138.5565.96387l9.12218 2.44427c.4198.1125.8514-.13665.9638-.55648.1126-.41985-.1366-.85138-.5564-.96387zm-1.98232 4.35738c.1125-.41983.54404-.66899.96386-.55649l9.12216 2.44427c.4198.1125.6689.544.5565.9639-.1125.4198-.544.669-.9639.5565l-9.12213-2.4443c-.41983-.1125-.66899-.54405-.55649-.96388zm-.05458 3.24438c-.41983-.1125-.85138.1367-.96386.5565-.1125.4198.13666.8513.55649.9639l5.32127 1.4259c.4198.1124.8513-.1367.9638-.5567.1125-.4198-.1366-.8512-.5564-.9638z"/></svg>