<svg xmlns="http://www.w3.org/2000/svg" width="64" height="64" viewBox="0 0 64 64"><title>Icon-Architecture/48/Arch_AWS-Mainframe-Modernization_48</title><g id="Icon-Architecture/48/Arch_AWS-Mainframe-Modernization_48" fill="none" fill-rule="evenodd" stroke="none" stroke-width="1"><g id="Icon-Architecture-BG/48/Migration-Transfer" fill="#01a88d"><path id="Rectangle" d="M0 0h64v64H0z"/></g><g id="Icon-Service/48/AWS-Mainframe-Modernization_48" fill="#fff" transform="translate(10 9.6)"><path id="Fill-3" d="M43.897 19.921q-.001.392-.032.773c-.383 4.514-4.374 8.046-9.087 8.046v-2c3.682 0 6.798-2.728 7.094-6.211q.024-.298.025-.608c0-3.667-2.476-6.433-5.758-6.433a1 1 0 0 1-1-1c0-3.182-1.899-5.082-5.082-5.082h-.676a1 1 0 0 1-.875-.516C26.81 3.828 23.601 2 19.92 2c-5.41 0-9.811 4.401-9.811 9.812a1 1 0 0 1-1 1A7.117 7.117 0 0 0 2 19.921c0 1.142.33 6.84 6.842 6.84v2c-6.108 0-8.842-4.44-8.842-8.84 0-4.698 3.575-8.576 8.147-9.059C8.632 4.792 13.727 0 19.92 0c4.209 0 7.916 2.009 10.033 5.406h.104c3.98 0 6.656 2.378 7.035 6.14 3.941.479 6.805 3.919 6.805 8.375M32.424 35.856l3.512 2.743-7.433 5.807H15.507l-7.432-5.807 3.511-2.743 1.231 1.576-1.494 1.167 4.874 3.807h11.617l4.874-3.807-1.494-1.167zm0-7 3.512 2.743-7.433 5.807H15.507l-7.432-5.807 3.511-2.743 1.231 1.576-1.494 1.167 4.874 3.807h11.617l4.874-3.807-1.494-1.167zm-16.474-9.45h12.111l5.121 4-5.121 4H15.95l-5.121-4zm12.801 10 7.679-6-7.679-6H15.26l-7.679 6 7.679 6z"/></g></g></svg>