<svg height="48" viewBox="0 0 48 48" width="48" xmlns="http://www.w3.org/2000/svg"><path d="m17.715 11.11v5.891h.867v-2.661h2.942v2.661h.866v-5.891h-.866v2.533h-2.942v-2.533zm13.396 5.891v-5.178h1.878v-.713h-4.624v.713h1.878v5.178zm3.561-2.967h1.216q.535 0 .806-.285.273-.286.273-.828 0-1.124-1.079-1.124h-1.216zm0 .687v2.28h-.842v-5.891h2.134q.858 0 1.368.488t.51 1.323q0 .823-.51 1.312t-1.368.488zm-8.695 2.28v-5.178h1.879v-.713h-4.624v.713h1.878v5.178zm-21.977-9.001c0 2.206 1.794 4 4 4s4-1.794 4-4-1.794-4-4-4-4 1.794-4 4m-2 0c0-3.309 2.692-6 6-6 3.309 0 6 2.691 6 6 0 3.308-2.691 6-6 6-3.308 0-6-2.692-6-6m42 33.5h2v-2h-2zm1-6.5h-1.5v2h.5v.5h2v-1.5a1 1 0 0 0 -1-1m-25.5 2h3v-2h-3zm6 0h3v-2h-3zm-12 0h3v-2h-3zm18 0h3v-2h-3zm6 0h3v-2h-3zm-30 0h3v-2h-3zm-5.5-1v1.5h2v-.5h.5v-2h-1.5a1 1 0 0 0 -1 1m0 5.5h2v-2h-2zm2 2h-2v1.5a1 1 0 0 0 1 1h1.5v-2h-.5zm21.5 2.5h3v-2h-3zm-18 0h3v-2h-3zm24 0h3v-2h-3zm6 0h3v-2h-3zm-24 0h3v-2h-3zm6 0h3v-2h-3zm24.5-2h-.5v2h1.5a1 1 0 0 0 1-1v-1.5h-2zm0-15.5h2v-2h-2zm1-6.5h-1.5v2h.5v.5h2v-1.5a1 1 0 0 0 -1-1m-7.5 2h3v-2h-3zm-6 0h3v-2h-3zm-6 0h3v-2h-3zm-6 0h3v-2h-3zm-6 0h3v-2h-3zm-6 0h3v-2h-3zm-5.5-1v1.5h2v-.5h.5v-2h-1.5a1 1 0 0 0 -1 1m0 5.5h2v-2h-2zm2 2h-2v1.5a1 1 0 0 0 1 1h1.5v-2h-.5zm3.5 2.5h3v-2h-3zm24 0h3v-2h-3zm6 0h3v-2h-3zm-12 0h3v-2h-3zm-12 0h3v-2h-3zm6 0h3v-2h-3zm24.5-2h-.5v2h1.5a1 1 0 0 0 1-1v-1.5h-2zm2-22v10a1 1 0 0 1 -1 1h-42a1 1 0 0 1 -1-1v-4h2v3h40v-8h-28v-2h29a1 1 0 0 1 1 1" fill="#e7157b" fill-rule="evenodd"/></svg>