<svg height="48" viewBox="0 0 48 48" width="48" xmlns="http://www.w3.org/2000/svg"><path d="m15 24c0 4.962 4.037 9 9 9s9-4.038 9-9-4.037-9-9-9-9 4.038-9 9m1.966 8.448-13.259 13.259-1.414-1.414 13.259-13.259a10.95 10.95 0 0 1 -2.552-7.034c0-6.065 4.935-11 11-11s11 4.935 11 11-4.935 11-11 11c-2.673 0-5.125-.961-7.034-2.552m7.034-11.784 3.793 3.793 1.414-1.414-4.5-4.5a1 1 0 0 0 -1.414 0l-4.5 4.5 1.414 1.414zm0 5 3.793 3.793 1.414-1.414-4.5-4.5a1 1 0 0 0 -1.414 0l-4.5 4.5 1.414 1.414zm22-5.164v7a1.877 1.877 0 0 1 -1.875 1.875h-2.879a18 18 0 0 1 -1.253 3.017l2.038 2.038c.355.354.55.825.55 1.326 0 .5-.195.972-.55 1.326l-4.95 4.949c-.708.708-1.941.71-2.651 0l-2.038-2.038c-.97.51-1.98.93-3.017 1.253v2.879a1.877 1.877 0 0 1 -1.875 1.875h-7a1.877 1.877 0 0 1 -1.875-1.875v-2.879a18 18 0 0 1 -3.017-1.253l-2.038 2.038c-.709.71-1.942.708-2.651 0l-.329-.328 1.414-1.415.24.241 2.483-2.482a1 1 0 0 1 1.21-.157 16 16 0 0 0 3.944 1.637 1 1 0 0 1 .744.967v3.506h6.75v-3.506a1 1 0 0 1 .744-.967c1.373-.363 2.7-.914 3.944-1.637a1 1 0 0 1 1.21.157l2.483 2.482 4.773-4.773-2.482-2.483a1 1 0 0 1 -.157-1.21 16 16 0 0 0 1.637-3.944c.117-.438.513-.744.967-.744h3.506v-6.75h-3.506c-.454 0-.85-.306-.967-.744a16 16 0 0 0 -1.637-3.944 1 1 0 0 1 .157-1.21l2.482-2.482-4.773-4.774-2.483 2.482a1 1 0 0 1 -1.21.157 16 16 0 0 0 -3.944-1.637 1 1 0 0 1 -.744-.967v-3.506h-6.75v3.506a1 1 0 0 1 -.744.967c-1.373.363-2.7.914-3.944 1.637a1 1 0 0 1 -1.21-.157l-2.483-2.482-4.773 4.773 2.482 2.483c.321.32.386.817.157 1.21a16 16 0 0 0 -1.637 3.944 1 1 0 0 1 -.967.744h-3.506v6.75h3.506c.454 0 .85.306.967.744a16 16 0 0 0 1.637 3.944 1 1 0 0 1 -.157 1.21l-2.482 2.482.259.259-1.414 1.415-.347-.347a1.86 1.86 0 0 1 -.55-1.326c0-.501.195-.972.55-1.326l2.038-2.038a18 18 0 0 1 -1.253-3.017h-2.879a1.877 1.877 0 0 1 -1.875-1.875v-7c0-1.034.841-1.875 1.875-1.875h2.879a18 18 0 0 1 1.253-3.017l-2.038-2.038a1.86 1.86 0 0 1 -.55-1.326c0-.5.195-.972.55-1.326l4.95-4.949c.709-.709 1.942-.71 2.651 0l2.038 2.038c.97-.51 1.98-.93 3.017-1.253v-2.879c0-1.034.841-1.875 1.875-1.875h7c1.034 0 1.875.841 1.875 1.875v2.879c1.037.323 2.047.743 3.017 1.253l2.038-2.038c.71-.71 1.943-.709 2.651 0l4.95 4.949c.355.354.55.826.55 1.326s-.195.972-.55 1.326l-2.038 2.038c.51.968.93 1.978 1.253 3.017h2.879c1.034 0 1.875.841 1.875 1.875" fill="#01a88d" fill-rule="evenodd"/></svg>