<svg viewBox="0 0 24 24" xmlns="http://www.w3.org/2000/svg"><path d="m11.991 0a.883.883 0 0 0 -.871.817v3.02a.883.883 0 0 0 .88.884.883.883 0 0 0 .88-.88v-3.025a.883.883 0 0 0 -.889-.816m7.705 3.109a.88.88 0 0 0 -.521.174l-2.375 1.948a.88.88 0 0 0 .559 1.563.88.88 0 0 0 .56-.2l2.37-1.951a.88.88 0 0 0 -.594-1.534m-15.375.013a.883.883 0 0 0 -.611 1.52l2.37 1.951a.88.88 0 0 0 .56.2v-.002a.88.88 0 0 0 .56-1.56l-2.371-1.948a.9.9 0 0 0 -.508-.16zm7.66 3.228a5.046 5.046 0 0 0 -5.026 5.045v1.488h-1.167a.967.967 0 0 0 -.965.964v9.189a.967.967 0 0 0 .965.964h12.426a.967.967 0 0 0 .964-.964v-9.19a.967.967 0 0 0 -.964-.963h-1.168v-1.488a5.046 5.046 0 0 0 -5.065-5.045m.012 2.893a2.15 2.15 0 0 1 2.16 2.152v1.488h-4.305v-1.488a2.15 2.15 0 0 1 2.145-2.152m7.382.503a.883.883 0 1 0 .07 1.763h3.027a.883.883 0 0 0 0-1.76h-3.027zm-17.845.004a.883.883 0 0 0 0 1.76h2.999a.883.883 0 0 0 0-1.76zm10.46 6.774a1.28 1.28 0 0 1 .64 2.393v1.245a.63.63 0 0 1 -1.259 0v-1.245a1.28 1.28 0 0 1 .619-2.393"/></svg>