<svg xmlns="http://www.w3.org/2000/svg" xmlns:xlink="http://www.w3.org/1999/xlink" width="18" height="18" viewBox="0 0 18 18"><linearGradient id="a"><stop offset="0" stop-color="#ef7100"/><stop offset="1" stop-color="#faa21d"/></linearGradient><linearGradient xlink:href="#a" id="b" x1="2525.57" x2="2525.544" y1="-412.026" y2="-402.136" gradientTransform="rotate(180.11 -628.681 -95.33)scale(-.5 .5)" gradientUnits="userSpaceOnUse"/><linearGradient xlink:href="#a" id="c" x1="12.79" x2="12.79" y1="17.38" y2="12.44" gradientUnits="userSpaceOnUse"/><linearGradient xlink:href="#a" id="d" x1="15.3" x2="15.3" y1="9.98" y2="5.04" gradientUnits="userSpaceOnUse"/><linearGradient xlink:href="#a" id="e" x1="2.7" x2="2.7" y1="9.98" y2="5.04" gradientUnits="userSpaceOnUse"/><linearGradient xlink:href="#a" id="f" x1="9" x2="9" y1="5.56" y2=".62" gradientUnits="userSpaceOnUse"/><path fill="currentColor" d="m16 7.2-5.76-4.11L9 2.18l-1.22.9L2 7.2 4.25 14l.47 1.44h8.6l.45-1.44L16 7.25zM5.76 14l-2-6.22L9 4l5.28 3.79-2 6.22z"/><circle cx="5.07" cy="14.91" r="2.47" fill="currentColor"/><circle cx="12.79" cy="14.91" r="2.47" fill="currentColor"/><circle cx="15.3" cy="7.51" r="2.47" fill="currentColor"/><circle cx="2.7" cy="7.51" r="2.47" fill="currentColor"/><circle cx="9" cy="3.09" r="2.47" fill="currentColor"/></svg>