<svg height="18" viewBox="0 0 18 18" width="18" xmlns="http://www.w3.org/2000/svg" xmlns:xlink="http://www.w3.org/1999/xlink"><linearGradient id="a"><stop offset="0" stop-color="#ef7100"/><stop offset="1" stop-color="#faa21d"/></linearGradient><linearGradient id="b" gradientTransform="matrix(.49999908 .00095993 .00095993 -.49999908 -1257.177821 -191.866804)" gradientUnits="userSpaceOnUse" x1="2525.57" x2="2525.544" xlink:href="#a" y1="-412.026" y2="-402.136"/><linearGradient id="c" gradientUnits="userSpaceOnUse" x1="12.79" x2="12.79" xlink:href="#a" y1="17.38" y2="12.44"/><linearGradient id="d" gradientUnits="userSpaceOnUse" x1="15.3" x2="15.3" xlink:href="#a" y1="9.98" y2="5.04"/><linearGradient id="e" gradientUnits="userSpaceOnUse" x1="2.7" x2="2.7" xlink:href="#a" y1="9.98" y2="5.04"/><linearGradient id="f" gradientUnits="userSpaceOnUse" x1="9" x2="9" xlink:href="#a" y1="5.56" y2=".62"/><path d="m16 7.2-5.76-4.11-1.24-.91-1.22.9-5.78 4.12 2.25 6.8.47 1.44h8.6l.45-1.44 2.23-6.75zm-10.24 6.8-2-6.22 5.24-3.78 5.28 3.79-2 6.22z" fill="#e27908"/><circle cx="5.07" cy="14.91" fill="url(#b)" r="2.47"/><circle cx="12.79" cy="14.91" fill="url(#c)" r="2.47"/><circle cx="15.3" cy="7.51" fill="url(#d)" r="2.47"/><circle cx="2.7" cy="7.51" fill="url(#e)" r="2.47"/><circle cx="9" cy="3.09" fill="url(#f)" r="2.47"/></svg>