<svg height="48" viewBox="0 0 48 48" width="48" xmlns="http://www.w3.org/2000/svg"><path d="m18.854 23.258h3.404a1 1 0 0 0 1-1v-3.403h1.523v3.403a1 1 0 0 0 1 1h3.404v1.523h-3.404a1 1 0 0 0 -1 1v3.404h-1.523v-3.405a1 1 0 0 0 -1-1h-3.404zm2.404 3.523v3.404a1 1 0 0 0 1 1h3.523a1 1 0 0 0 1-1v-3.405h3.404a1 1 0 0 0 1-1v-3.523a1 1 0 0 0 -1-1h-3.404v-3.403a1 1 0 0 0 -1-1h-3.523a1 1 0 0 0 -1 1v3.403h-3.404a1 1 0 0 0 -1 1v3.523a1 1 0 0 0 1 1zm-5.927 5.927h17.377v-17.378h-17.377zm-1-19.377a1 1 0 0 0 -1 1v19.377a1 1 0 0 0 1 1h19.377a1 1 0 0 0 1-1v-19.378a1 1 0 0 0 -1-1zm25.421 25.288c0 .626-.508 1.135-1.134 1.135h-29.197a1.135 1.135 0 0 1 -1.134-1.135v-29.184c0-.626.508-1.135 1.134-1.135h29.197c.626 0 1.134.509 1.134 1.135zm6.287-24.17v-2h-4.287v-3.013a3.14 3.14 0 0 0 -3.134-3.136h-3.03v-4.3h-2v4.3h-3.284v-4.3h-2v4.3h-3.284v-4.3h-2v4.3h-3.284v-4.3h-2v4.3h-3.286v-4.3h-2v4.3h-3.029a3.14 3.14 0 0 0 -3.134 3.135v3.015h-4.287v2h4.287v3.285h-4.287v2h4.287v3.285h-4.287v2h4.287v3.284h-4.287v2h4.287v3.285h-4.287v2h4.287v3.03a3.14 3.14 0 0 0 3.134 3.135h3.03v4.285h2v-4.285h3.284v4.285h2v-4.285h3.284v4.285h2v-4.285h3.285v4.285h2v-4.285h3.284v4.285h2v-4.285h3.03a3.14 3.14 0 0 0 3.134-3.135v-3.03h4.287v-2h-4.287v-3.285h4.287v-2h-4.287v-3.284h4.287v-2h-4.287v-3.285h4.287v-2h-4.287v-3.285z" fill="#7aa116" fill-rule="evenodd"/></svg>