<svg xmlns="http://www.w3.org/2000/svg" width="192.575" height="27.224" viewBox="0 0 50.952 7.203"><clipPath id="a"><path fill="currentColor" d="M0 0h612v792H0z"/></clipPath><path fill="currentColor" d="M18.612 6.802h-1.294v-4.59h-1.674v-1.11h4.642v1.11h-1.674zm6.848 0h-1.302v-5.7h1.302zm22.976-1.125h2.252v1.125h-3.554v-5.7h1.302z"/><g clip-path="url(#a)" transform="matrix(.35278 0 0 -.35278 -35.676 179.855)"><path fill="currentColor" d="M185.586 506.702h5.979c4.411 0 8.8-2.336 8.8-8.035 0-5.372-4.302-8.123-8.582-8.123h-6.197zm3.581-12.991h2.289c3.079 0 5.131 1.921 5.131 4.978 0 2.904-2.074 4.868-5.044 4.868h-2.376z"/></g><g fill="currentColor"><path fill="currentColor" d="M42.234 6.802h1.431l-2.348-5.7h-1.344l-2.371 5.7h1.392l.42-1.125h2.404zm-2.47-2.137.858-2.23.85 2.23zM6.938 1.933 5.27 3.602 3.6 1.933 5.27.265z"/><path fill="currentColor" d="M6.938 5.27 5.27 6.939 3.6 5.27l1.67-1.669zM3.602 1.933 1.933 3.602.265 1.933 1.933.265zm6.673 0L8.607 3.602 6.938 1.933 8.607.265z"/></g></svg>