<svg height="27.224" viewBox="0 0 50.952 7.203" width="192.575" xmlns="http://www.w3.org/2000/svg" xmlns:xlink="http://www.w3.org/1999/xlink"><clipPath id="a"><path d="m0 0h612v792h-612z"/></clipPath><path d="m0 0h-3.669v13.013h-4.745v3.145h13.159v-3.145h-4.745z" fill="#100f0d" transform="matrix(.35278 0 0 -.35278 18.612 6.802)"/><path d="m98.258 184.54h-1.302v-5.7h1.302z" fill="#100f0d" transform="translate(-72.798 -177.738)"/><path d="m0 0h6.383v-3.189h-10.073v16.158h3.69z" fill="#100f0d" transform="matrix(.35278 0 0 -.35278 48.436 5.677)"/><g clip-path="url(#a)" transform="matrix(.35278 0 0 -.35278 -35.676 179.855)"><path d="m0 0h5.979c4.411 0 8.8-2.336 8.8-8.035 0-5.372-4.302-8.123-8.582-8.123h-6.197zm3.581-12.991h2.289c3.079 0 5.131 1.921 5.131 4.978 0 2.904-2.074 4.868-5.044 4.868h-2.376z" fill="#100f0d" transform="translate(185.586 506.702)"/></g><g fill="#100f0d"><path d="m0 0h4.057l-6.657 16.158h-3.81l-6.721-16.158h3.947l1.191 3.188h6.813zm-7.004 6.059 2.434 6.319 2.411-6.319z" transform="matrix(.35278 0 0 -.35278 42.234 6.802)"/><path d="m0 0-4.729-4.73-4.73 4.73 4.73 4.728z" transform="matrix(.35278 0 0 -.35278 6.938 1.933)"/><path d="m0 0-4.729-4.73-4.73 4.73 4.73 4.73z" transform="matrix(.35278 0 0 -.35278 6.938 5.27)"/><path d="m0 0-4.73-4.73-4.729 4.73 4.729 4.729z" transform="matrix(.35278 0 0 -.35278 3.602 1.933)"/><path d="m0 0-4.729-4.73-4.73 4.73 4.73 4.729z" transform="matrix(.35278 0 0 -.35278 10.275 1.933)"/></g></svg>