<svg xmlns="http://www.w3.org/2000/svg" viewBox="0 0 14.464 12.504"><path fill="#ef4056" fill-rule="evenodd" d="M13.119 0H1.396C.634 0 0 .566 0 1.305v4.209c0 3.815 3.248 6.99 7.257 6.99 3.984 0 7.207-3.175 7.207-6.99v-4.21c0-.738-.61-1.304-1.345-1.304" clip-rule="evenodd"/><path fill="#fff" d="m7.917 8.369 3.451-3.15c.355-.37.355-.985 0-1.38-.355-.344-.99-.393-1.345 0L7.257 6.376 4.542 3.84c-.38-.394-1.015-.345-1.395 0-.406.394-.356 1.01 0 1.378l3.4 3.15c.203.198.457.272.71.272.203 0 .482-.074.66-.271"/></svg>