<svg xmlns="http://www.w3.org/2000/svg" width="256" height="231" preserveAspectRatio="xMidYMid" viewBox="0 0 256 231">
  <defs>
    <mask id="wko">
      <rect width="256" height="231" fill="white"/>
      <path fill="black" d="m141.7 200.499 32.982 27.389a10.6 10.6 0 0 0 6.67 2.376h-78.834c2.42 0 4.764-.839 6.632-2.376zm-13.536-64.64.299.087c.097.047.178.116.265.175l.25.221a36 36 0 0 1 1.792 1.774q.61.65 1.182 1.341a19 19 0 0 1 1.347 1.83c.178.281.343.565.499.861q.202.385.362.789c.187.468.327.96.37 1.462l-.009.942a5.37 5.37 0 0 1-2.547 4.187 7.3 7.3 0 0 1-3.1 1.02l-1.162.034-.983-.087a7.5 7.5 0 0 1-1.35-.327 6.5 6.5 0 0 1-1.278-.599l-.767-.561a5.26 5.26 0 0 1-1.746-2.994 8 8 0 0 1-.09-.592l-.029-.898q.025-.364.106-.723a7.5 7.5 0 0 1 .57-1.516q.474-.91 1.073-1.743a27 27 0 0 1 2.155-2.56 32 32 0 0 1 1.534-1.521l.377-.34c.262-.175.265-.175.565-.262zm-1.93-125.195.121-.01v104.981l-.262-.483a294 294 0 0 1-9.644-19.544 209 209 0 0 1-6.545-16.385 129 129 0 0 1-3.944-13.492c-.83-3.626-1.465-7.305-1.727-11.022a54 54 0 0 1-.09-4.764q.036-2.077.168-4.147a78 78 0 0 1 .676-6.492 65 65 0 0 1 .951-5.048 53 53 0 0 1 1.067-3.935 47 47 0 0 1 2.104-5.482c.3-.642.62-1.281.958-1.908 2.026-3.754 4.776-7.212 8.378-9.525a17.5 17.5 0 0 1 7.789-2.744m13.613.265 7.062 2.014c3.271 1.207 6.42 2.781 9.314 4.746a37.4 37.4 0 0 1 10.015 9.99 37.7 37.7 0 0 1 3.879 7.477 43.9 43.9 0 0 1 2.7 12.107c.094 1.085.147 2.173.168 3.262.025 1.01.02 2.023-.062 3.033a34 34 0 0 1-1.269 6.673 53 53 0 0 1-1.83 5.25 76 76 0 0 1-2.906 6.277c-2.354 4.547-5.064 8.896-7.964 13.102a204 204 0 0 1-11.483 14.986 284 284 0 0 1-13.776 15.269 292 292 0 0 0 9.067-18.553 230 230 0 0 0 4.41-10.623 167 167 0 0 0 4.106-11.945 117 117 0 0 0 2.36-9.16 75 75 0 0 0 1.282-8.014c.23-2.245.314-4.502.258-6.754a96 96 0 0 0-.152-4.131c-.33-5.538-1.173-11.057-2.788-16.367a48 48 0 0 0-2.226-5.899c-2.067-4.502-4.952-8.712-8.855-11.783z"/>
    </mask>
  </defs>
  <g fill="currentColor" mask="url(#wko)">
    <path fill="currentColor" d="M179.016 31.598h29.478c26.22 0 47.506 21.287 47.506 47.507v103.652c0 26.22-21.287 47.507-47.506 47.507h-2.323c-13.495-2.111-19.348-6.158-23.869-9.579l-37.479-30.815a5.276 5.276 0 0 0-6.635 0l-12.176 10.012-34.292-28.197a5.26 5.26 0 0 0-6.632 0l-47.64 41.91c-9.588 7.798-15.93 6.357-20.043 5.905C6.782 210.782 0 197.556 0 182.757V79.105c0-26.22 21.287-47.507 47.51-47.507h29.412l-.053.119-.992 2.89-.308.992-1.335 5.92-.184 1.04-.586 5.93-.078 1.627-.012.57.056 2.72.134 1.593.33 2.494.421 2.245.5 2.068.648 2.238 1.683 4.74.555 1.422 2.931 6.192 1.036 1.902 3.389 5.818 1.297 2.099 4.73 6.965.683.923 6.155 8.01 1.99 2.467 7.027 8.216 1.444 1.58 5.793 6.234 2.295 2.376 3.792 3.766-.761.636-.474.428a46 46 0 0 0-3.654 3.816 33 33 0 0 0-1.572 2.008 26 26 0 0 0-2.03 3.318q-.454.9-.814 1.842a17 17 0 0 0-1.1 5.008l-.022 1.481c.054 2.088.48 4.15 1.256 6.09a17 17 0 0 0 3.387 5.31 17.2 17.2 0 0 0 3.57 2.906c1.12.686 2.313 1.25 3.554 1.68a19.9 19.9 0 0 0 8.394.954h.016a18.9 18.9 0 0 0 6.922-2.054 18 18 0 0 0 2.644-1.712 16.96 16.96 0 0 0 5.332-7.09c.873-2.18 1.3-4.51 1.262-6.854l-.068-1.225a17.3 17.3 0 0 0-1.148-4.718 20 20 0 0 0-.888-1.927 26.5 26.5 0 0 0-2.09-3.308q-.533-.72-1.103-1.413a45.5 45.5 0 0 0-4.078-4.271l-1.026-.873 1.736-1.715 7.465-7.795 2.582-2.835 4.013-4.515 2.61-3.052 3.722-4.534 2.52-3.168 3.7-4.948 1.869-2.56 2.65-3.963 2.207-3.377 4.16-7.243 2.379-4.752.069-.146 1.82-4.41q.037-.085.063-.174l1.961-6.118.206-.891.851-4.87.165-1.32.05-.807.06-3.05-.016-.567-.156-2.732-.193-2.12-.967-6.114a2 2 0 0 0-.056-.243l-1.241-4.522-.427-1.256-.558-1.39Zm14.012 129.258c-6.18.087-11.169 5.076-11.256 11.256.09 6.179 5.078 11.165 11.256 11.253 6.178-.09 11.166-5.075 11.26-11.253-.09-6.18-5.08-11.169-11.26-11.256"/>
  </g>
</svg>