<svg height="18" viewBox="0 0 18 18" width="18" xmlns="http://www.w3.org/2000/svg" xmlns:xlink="http://www.w3.org/1999/xlink"><linearGradient id="a" gradientUnits="userSpaceOnUse" x1="4.834" x2="4.834" y1="15.243" y2=".173"><stop offset="0" stop-color="#0078d4"/><stop offset="1" stop-color="#46a0de"/></linearGradient><linearGradient id="b" gradientTransform="matrix(.70710678 .70710678 -.70710678 .70710678 11.02679 -6.497027)" gradientUnits="userSpaceOnUse" x1="13.357" x2="13.357" y1="13.247" y2="6.877"><stop offset="0" stop-color="#46a0de"/><stop offset="1" stop-color="#8dc8e8"/></linearGradient><linearGradient id="c" gradientUnits="userSpaceOnUse" x1="6.836" x2="15.707" y1="16.259" y2="7.859"><stop offset="0" stop-color="#32bedd"/><stop offset="1" stop-color="#50e6ff"/></linearGradient><path d="m8.193 8.858v-.005a5.3 5.3 0 0 1 1.35-2.43v-4.554c0-.936-.759-1.695-1.695-1.695h-6.028a1.694 1.694 0 0 0 -1.695 1.695v12.809c0 .312.253.565.565.565h4.868l2.947-2.985a5.4 5.4 0 0 1 -.313-3.395v-.005zm-4.677.734a.753.753 0 1 1 0-1.506.753.753 0 0 1 0 1.506m0-2.637a.753.753 0 1 1 0-1.506.753.753 0 0 1 0 1.506m0-2.637a.753.753 0 1 1 0-1.506.753.753 0 0 1 0 1.506m2.637 5.274a.753.753 0 1 1 0-1.506.753.753 0 0 1 0 1.506m0-2.637a.753.753 0 1 1 0-1.506.753.753 0 0 1 0 1.506m0-2.637a.753.753 0 1 1 0-1.506.753.753 0 0 1 0 1.506" fill="url(#a)"/><ellipse cx="13.357" cy="10.062" fill="url(#b)" rx="3.192" ry="3.178" transform="matrix(.70710678 -.70710678 .70710678 .70710678 -3.202734 12.391917)"/><path d="m17.228 7.749a4.524 4.524 0 0 0 -8.266 1.252 4.65 4.65 0 0 0 .486 3.344l-3.448 3.492a1.163 1.163 0 0 0 -.004 1.646l.004.004c.218.219.516.342.825.339.31.006.609-.117.825-.339l3.433-3.477c.373.217.775.381 1.193.486a4.538 4.538 0 0 0 4.95-6.748zm-.796 3.094a3.18 3.18 0 0 1 -3.079 2.431 2.7 2.7 0 0 1 -.751-.103 2.75 2.75 0 0 1 -1.031-.471 3.1 3.1 0 0 1 -.825-.825 3.2 3.2 0 0 1 -.457-2.549 3.15 3.15 0 0 1 3.065-2.446q.388 0 .766.088a3.21 3.21 0 0 1 1.945 1.473c.44.719.573 1.584.368 2.402z" fill="url(#c)"/></svg>