<svg xmlns="http://www.w3.org/2000/svg" viewBox="0 0 486 500">
  <defs>
    <mask id="wko">
      <rect width="486" height="500" fill="white"/>
      <path fill="black" d="M187.26 283.73 159.92 410.7l-32.69.02-16.14-76.19-16.9 76.19h-33L34.91 283.75h26.95l16.21 83.79 16.11-83.79h33.04l16.87 83.79 15.82-83.79 27.34-.02z"/>
    </mask>
  </defs>
  <g fill="currentColor" mask="url(#wko)">
    <path fill="currentColor" d="m69.43 376.25 194.4-237.36L486 293.13v158.26c0 26.85-21.76 48.61-48.6 48.61H152.74c-46.01 0-83.31-37.31-83.31-83.33z"/>
    <path fill="currentColor" d="M69.43 208.87c0-34.52 27.98-62.5 62.49-62.5h283.11L486 111.11v173.61c0 26.85-21.76 48.61-48.6 48.61H152.74c-46.01 0-83.31 37.31-83.31 83.33v-207.8z"/>
    <path fill="currentColor" fill-opacity=".6" d="M69.43 208.87c0-34.52 27.98-62.5 62.49-62.5h283.11L486 111.11v173.61c0 26.85-21.76 48.61-48.6 48.61H152.74c-46.01 0-83.31 37.31-83.31 83.33v-207.8z"/>
    <path fill="currentColor" fill-opacity=".1" d="M69.43 208.87c0-34.52 27.98-62.5 62.49-62.5h283.11L486 111.11v173.61c0 26.85-21.76 48.61-48.6 48.61H152.74c-46.01 0-83.31 37.31-83.31 83.33v-207.8z"/>
    <path fill="currentColor" d="M69.43 83.33C69.43 37.31 106.73 0 152.74 0H437.4C464.24 0 486 21.76 486 48.61v69.44c0 26.85-21.76 48.61-48.6 48.61H152.74c-46.01 0-83.31 37.31-83.31 83.33z"/>
    <path fill="currentColor" fill-opacity=".8" d="M69.43 83.33C69.43 37.31 106.73 0 152.74 0H437.4C464.24 0 486 21.76 486 48.61v69.44c0 26.85-21.76 48.61-48.6 48.61H152.74c-46.01 0-83.31 37.31-83.31 83.33z"/>
    <rect width="222.17" height="222.22" y="236.11" fill="currentColor" rx="45.13"/>
    <rect width="222.17" height="222.22" y="236.11" fill="currentColor" fill-opacity=".65" rx="45.13"/>
  </g>
</svg>