<svg height="18" viewBox="0 0 18 18" width="18" xmlns="http://www.w3.org/2000/svg" xmlns:xlink="http://www.w3.org/1999/xlink"><linearGradient id="a" gradientTransform="matrix(1 0 0 -1 0 791.516)" gradientUnits="userSpaceOnUse" x1="8.924" x2="8.924" y1="785.145" y2="779.186"><stop offset="0" stop-color="#37c2b1"/><stop offset="1" stop-color="#258277"/></linearGradient><rect fill="url(#a)" height="4.788" rx="2.364" width="4.788" x="6.531" y="6.615"/><path d="m8 12.693a3.773 3.773 0 0 1 -.015-7.387.649.649 0 1 0 -.266-1.27 5.09 5.09 0 0 0 -3.989 4.323h-1.156a1.35 1.35 0 0 0 -1.187-.7h-.034a1.353 1.353 0 0 0 -1.353 1.348v.034a1.353 1.353 0 0 0 1.353 1.353h.034a1.35 1.35 0 0 0 1.2-.737h1.146a5.09 5.09 0 0 0 4.005 4.308.649.649 0 0 0 .262-1.272m8.647-5.039h-.034a1.35 1.35 0 0 0 -1.187.705h-1.156a5.09 5.09 0 0 0 -3.987-4.323.649.649 0 0 0 -.266 1.27 3.773 3.773 0 0 1 -.017 7.387.649.649 0 0 0 .26 1.272 5.09 5.09 0 0 0 4-4.308h1.15a1.35 1.35 0 0 0 1.2.737h.034a1.353 1.353 0 0 0 1.356-1.353v-.034a1.353 1.353 0 0 0 -1.353-1.353" fill="#3cd4c2"/>​</svg>