<svg xmlns="http://www.w3.org/2000/svg" id="bbea868e-8a71-493f-b725-c934b9a84f18" width="18" height="18" viewBox="0 0 18 18"><defs><radialGradient id="a81c9c09-6274-4ca3-a4e1-ccea67c24c15" cx="-3179.5" cy="28295.77" r="40.52" gradientTransform="matrix(.13 0 0 .13 435.73 -3785.18)" gradientUnits="userSpaceOnUse"><stop offset=".18" stop-color="#5ea0ef"/><stop offset=".56" stop-color="#5c9fee"/><stop offset=".69" stop-color="#559ced"/><stop offset=".78" stop-color="#4a97e9"/><stop offset=".86" stop-color="#3990e4"/><stop offset=".93" stop-color="#2387de"/><stop offset=".99" stop-color="#087bd6"/><stop offset="1" stop-color="#0078d4"/></radialGradient></defs><title>Icon-manage-308</title><circle cx="9.39" cy="9" r="5.43" fill="url(#a81c9c09-6274-4ca3-a4e1-ccea67c24c15)"/><circle cx="9.41" cy="9" r="4.73" fill="#fff"/><path id="b42eed36-9db4-477b-a93a-b71dd9eafb01" fill="#7a7a7a" d="M11.59 6.29h.81v.26h-.81z" transform="rotate(-45 11.99 6.423)"/><path id="ad8c6ead-147d-43b2-a109-456e78be7081" fill="#7a7a7a" d="M12.62 8.87h.81v.26h-.81z"/><path id="fe21f182-2c9c-417d-b5d9-d14559b34877" fill="#7a7a7a" d="M11.82 11.13h.26v.81h-.26z" transform="rotate(-45 11.95 11.54)"/><path id="ac180879-4dfd-4584-a8aa-5ef507fe43af" fill="#7a7a7a" d="M9.28 12.19h.26V13h-.26z"/><path id="b4e17954-3f15-4e0f-a45d-bd11f26be64c" fill="#7a7a7a" d="M6.68 5.99h.26v.81h-.26z" transform="rotate(-45 6.81 6.399)"/><path id="aa99a954-37ab-43d9-b437-1be309bf32b2" fill="#7a7a7a" d="M6.44 11.43h.81v.26h-.81z" transform="rotate(-45 6.85 11.563)"/><path id="a6cfd9f5-a8af-49cb-b4d2-8cb476152496" fill="#7a7a7a" d="M5.35 8.87h.81v.26h-.81z"/><path fill="#7a7a7a" d="M11.37 10.46 10 9.08A.3.3 0 0 0 9.75 9a.4.4 0 0 0 .06-.16V5.33A.33.33 0 0 0 9.48 5h-.07a.33.33 0 0 0-.33.33v3.5a.34.34 0 0 0 .33.34h.05a.32.32 0 0 0 0 .43l1.39 1.4a.33.33 0 0 0 .47 0 .33.33 0 0 0 .05-.54"/><circle cx="9.42" cy="9" r=".77" fill="#4f4f4f"/><path fill="#949494" d="M.5 15.08a.16.16 0 0 0 .08.14l1.16.65L3.7 17a.17.17 0 0 0 .23-.06l.66-1.12a.16.16 0 0 0-.06-.21l-2.3-1.3a.17.17 0 0 1-.08-.14V3.85a.16.16 0 0 1 .08-.14l2.3-1.3a.16.16 0 0 0 .06-.21l-.66-1.12A.17.17 0 0 0 3.7 1L1.78 2.11l-1.2.67a.16.16 0 0 0-.08.14z"/><path fill="#a3a3a3" d="m2.14 3.77.06-.06 2.3-1.3a.14.14 0 0 0 .06-.21L3.9 1.08A.15.15 0 0 0 3.68 1L1.75 2.11l-1.19.67s-.05 0-.06.06l.9.51ZM4.5 15.59l-2.3-1.3a.2.2 0 0 1-.07-.09l-1.62 1h.05l1.15.65 2 1.11a.15.15 0 0 0 .22-.06l.66-1.12a.14.14 0 0 0-.09-.19"/><path fill="#949494" d="M17.51 15.08a.16.16 0 0 1-.08.14l-1.16.65-2 1.11a.15.15 0 0 1-.22-.06l-.66-1.12a.15.15 0 0 1 .05-.21l2.3-1.3a.17.17 0 0 0 .08-.14V3.85a.16.16 0 0 0-.08-.14l-2.3-1.3a.15.15 0 0 1-.05-.21l.66-1.12a.15.15 0 0 1 .26-.08l1.92 1.09 1.2.67a.16.16 0 0 1 .08.14z"/><path fill="#a3a3a3" d="m15.87 3.77-.06-.06-2.3-1.3a.14.14 0 0 1-.06-.21l.66-1.12a.15.15 0 0 1 .22-.08l1.93 1.09 1.19.67s.05 0 .06.06l-.9.51ZM13.51 15.59l2.3-1.3a.16.16 0 0 0 .07-.09l1.62 1h-.05l-1.15.65-2 1.11a.15.15 0 0 1-.22-.06l-.66-1.12a.14.14 0 0 1 .09-.19"/><path fill="#76bc2d" d="M7.94 3.35a.49.49 0 0 0-.64-.3A6.56 6.56 0 0 0 3 9.24a6.13 6.13 0 0 0 2 4.35l-.34.46a.21.21 0 0 0 .16.34l1.88.13a.22.22 0 0 0 .23-.31l-.79-1.64a.23.23 0 0 0-.39 0l-.19.26A5.23 5.23 0 0 1 4 9.2a5.58 5.58 0 0 1 3.65-5.28.47.47 0 0 0 .29-.57"/></svg>