<svg height="18" viewBox="0 0 18 18" width="18" xmlns="http://www.w3.org/2000/svg" xmlns:xlink="http://www.w3.org/1999/xlink"><radialGradient id="a" cx="22.395" cy="-106.7299" gradientUnits="userSpaceOnUse" r="5.2676"><stop offset=".18" stop-color="#5ea0ef"/><stop offset=".56" stop-color="#5c9fee"/><stop offset=".69" stop-color="#559ced"/><stop offset=".78" stop-color="#4a97e9"/><stop offset=".86" stop-color="#3990e4"/><stop offset=".93" stop-color="#2387de"/><stop offset=".99" stop-color="#087bd6"/><stop offset="1" stop-color="#0078d4"/></radialGradient><circle cx="9.39" cy="9" fill="url(#a)" r="5.43"/><circle cx="9.41" cy="9" fill="#fff" r="4.73"/><g fill="#7a7a7a"><path d="m11.59 6.29h.81v.26h-.81z" transform="matrix(.70710678 -.70710678 .70710678 .70710678 -1.029957 10.359463)"/><path d="m12.62 8.87h.81v.26h-.81z"/><path d="m11.82 11.13h.26v.81h-.26z" transform="matrix(.70710678 -.70710678 .70710678 .70710678 -4.659938 11.829914)"/><path d="m9.28 12.19h.26v.81h-.26z"/><path d="m6.68 5.99h.26v.81h-.26z" transform="matrix(.70710678 -.70710678 .70710678 .70710678 -2.530173 6.689621)"/><path d="m6.44 11.43h.81v.26h-.81z" transform="matrix(.70710678 -.70710678 .70710678 .70710678 -6.169957 8.230406)"/><path d="m5.35 8.87h.81v.26h-.81z"/><path d="m11.37 10.46-1.37-1.38a.3.3 0 0 0 -.25-.08.4.4 0 0 0 .06-.16v-3.51a.33.33 0 0 0 -.33-.33h-.07a.33.33 0 0 0 -.33.33v3.5a.34.34 0 0 0 .33.34h.05a.32.32 0 0 0 0 .43l1.39 1.4a.33.33 0 0 0 .47 0 .33.33 0 0 0 .05-.54"/></g><circle cx="9.42" cy="9" fill="#4f4f4f" r=".77"/><path d="m.5 15.08a.16.16 0 0 0 .08.14l1.16.65 1.96 1.13a.17.17 0 0 0 .23-.06l.66-1.12a.16.16 0 0 0 -.06-.21l-2.3-1.3a.17.17 0 0 1 -.08-.14v-10.32a.16.16 0 0 1 .08-.14l2.3-1.3a.16.16 0 0 0 .06-.21l-.66-1.12a.17.17 0 0 0 -.23-.08l-1.92 1.11-1.2.67a.16.16 0 0 0 -.08.14z" fill="#949494"/><path d="m2.14 3.77.06-.06 2.3-1.3a.14.14 0 0 0 .06-.21l-.66-1.12a.15.15 0 0 0 -.22-.08l-1.93 1.11-1.19.67s-.05 0-.06.06l.9.51zm2.36 11.82-2.3-1.3a.2.2 0 0 1 -.07-.09l-1.62 1h.05l1.15.65 2 1.11a.15.15 0 0 0 .22-.06l.66-1.12a.14.14 0 0 0 -.09-.19" fill="#a3a3a3"/><path d="m17.51 15.08a.16.16 0 0 1 -.08.14l-1.16.65-2 1.11a.15.15 0 0 1 -.22-.06l-.66-1.12a.15.15 0 0 1 .05-.21l2.3-1.3a.17.17 0 0 0 .08-.14v-10.3a.16.16 0 0 0 -.08-.14l-2.3-1.3a.15.15 0 0 1 -.05-.21l.66-1.12a.15.15 0 0 1 .26-.08l1.92 1.09 1.2.67a.16.16 0 0 1 .08.14z" fill="#949494"/><path d="m15.87 3.77-.06-.06-2.3-1.3a.14.14 0 0 1 -.06-.21l.66-1.12a.15.15 0 0 1 .22-.08l1.93 1.09 1.19.67s.05 0 .06.06l-.9.51zm-2.36 11.82 2.3-1.3a.16.16 0 0 0 .07-.09l1.62 1h-.05l-1.15.65-2 1.11a.15.15 0 0 1 -.22-.06l-.66-1.12a.14.14 0 0 1 .09-.19" fill="#a3a3a3"/><path d="m7.94 3.35a.49.49 0 0 0 -.64-.3 6.56 6.56 0 0 0 -4.3 6.19 6.13 6.13 0 0 0 2 4.35l-.34.46a.21.21 0 0 0 .16.34l1.88.13a.22.22 0 0 0 .23-.31l-.79-1.64a.23.23 0 0 0 -.39 0l-.19.26a5.23 5.23 0 0 1 -1.56-3.63 5.58 5.58 0 0 1 3.65-5.28.47.47 0 0 0 .29-.57" fill="#76bc2d"/></svg>