<svg height="18" viewBox="0 0 18 18" width="18" xmlns="http://www.w3.org/2000/svg" xmlns:xlink="http://www.w3.org/1999/xlink"><linearGradient id="a" gradientUnits="userSpaceOnUse" x1="9" x2="9" y1=".5" y2="17.5"><stop offset="0" stop-color="#5ea0ef"/><stop offset=".18" stop-color="#559cec"/><stop offset=".47" stop-color="#3c91e5"/><stop offset=".84" stop-color="#1380da"/><stop offset="1" stop-color="#0078d4"/></linearGradient><path d="m14 1.07v15.86a.56.56 0 0 1 -.56.57h-8.87a.56.56 0 0 1 -.57-.57v-15.86a.56.56 0 0 1 .57-.57h8.86a.56.56 0 0 1 .57.57" fill="url(#a)"/><path d="m5.33 2.27h1.67a.14.14 0 0 1 .14.14v2.1a.14.14 0 0 1 -.14.14h-1.67a.15.15 0 0 1 -.15-.14v-2.1a.15.15 0 0 1 .15-.14m2.86 0h1.62a.14.14 0 0 1 .14.14v2.1a.14.14 0 0 1 -.14.14h-1.62a.14.14 0 0 1 -.14-.14v-2.1a.14.14 0 0 1 .14-.14m2.86 0h1.62a.15.15 0 0 1 .15.14v2.1a.15.15 0 0 1 -.15.14h-1.62a.14.14 0 0 1 -.14-.14v-2.1a.14.14 0 0 1 .14-.14m-5.72 3.81h1.67a.14.14 0 0 1 .14.14v2.1a.15.15 0 0 1 -.14.15h-1.67a.15.15 0 0 1 -.15-.15v-2.1a.15.15 0 0 1 .15-.14m2.86 0h1.62a.14.14 0 0 1 .14.14v2.1a.15.15 0 0 1 -.14.15h-1.62a.15.15 0 0 1 -.14-.15v-2.1a.14.14 0 0 1 .14-.14m2.86 0h1.62a.15.15 0 0 1 .15.14v2.1a.15.15 0 0 1 -.15.15h-1.62a.15.15 0 0 1 -.14-.15v-2.1a.14.14 0 0 1 .14-.14m-5.72 3.82h1.67a.14.14 0 0 1 .14.14v2.1a.14.14 0 0 1 -.14.14h-1.67a.15.15 0 0 1 -.15-.14v-2.14a.15.15 0 0 1 .15-.1m2.86 0h1.62a.14.14 0 0 1 .19.1v2.1a.14.14 0 0 1 -.14.14h-1.67a.14.14 0 0 1 -.14-.14v-2.1a.14.14 0 0 1 .14-.1m0 3.81h1.62a.14.14 0 0 1 .14.14v3.15a.14.14 0 0 1 -.14.14h-1.62a.14.14 0 0 1 -.14-.14v-3.15a.14.14 0 0 1 .14-.14m2.86-3.81h1.62a.15.15 0 0 1 .15.14v2.1a.15.15 0 0 1 -.15.14h-1.62a.14.14 0 0 1 -.14-.14v-2.14a.14.14 0 0 1 .14-.1" fill="#f2f2f2"/></svg>