<svg height="48" viewBox="0 0 48 48" width="48" xmlns="http://www.w3.org/2000/svg"><path d="m15 34h-2c-1.654 0-3-1.346-3-3h-2c0 2.757 2.243 5 5 5h2c2.757 0 5-2.243 5-5s-2.243-5-5-5v2c1.654 0 3 1.346 3 3s-1.346 3-3 3m-8-6h2c1.654 0 3 1.346 3 3h2c0-2.757-2.243-5-5-5h-2c-2.757 0-5 2.243-5 5s2.243 5 5 5v-2c-1.654 0-3-1.346-3-3s1.346-3 3-3m3-10h16l-3.6 2.7 1.2 1.6 6-4.5a1 1 0 0 0 0-1.6l-6-4.5-1.2 1.6 3.6 2.7h-17a1 1 0 0 0 -1 1v7h2zm26 26h-26v-5.91h-2v6.91a1 1 0 0 0 1 1h28a1 1 0 0 0 1-1v-11h-2zm10-41v28a1 1 0 0 1 -1 1h-16l3.6 2.7-1.2 1.6-6-4.5a1 1 0 0 1 0-1.6l6-4.5 1.2 1.6-3.6 2.7h15v-26h-26v10h-2v-11a1 1 0 0 1 1-1h28a1 1 0 0 1 1 1" fill="#7aa116" fill-rule="evenodd"/></svg>