<svg height="50.041" viewBox="0 0 188.086 50.041" width="188.086" xmlns="http://www.w3.org/2000/svg"><g fill="#43141a" fill-rule="evenodd" transform="matrix(1.09923 0 0 1.09923 -9.397 -8.272)"><path d="m149.422 48.237a3.855 3.855 0 1 1 7.71 0 3.855 3.855 0 0 1 -7.71 0m3.856 4.414a4.415 4.415 0 1 0 0-8.83 4.415 4.415 0 0 0 0 8.83"/><path d="m152.246 46.236h1.399c.632 0 1.298.102 1.298.853 0 .837-.7.888-1.366.888h-1.331zm3.311.887c0-.973-.7-1.314-1.759-1.314h-2.133v4.916h.58v-2.271h1.126l1.4 2.271h.717l-1.502-2.271c.871-.034 1.571-.393 1.571-1.331"/><path d="m158.783 8.599-2.356 9.746h-4.556l2.422-9.746z"/><path d="m139.017 52.09v-17.563l-5.7-25.928h7.22l3.209 18.537 3.515-18.537h4.489l-5.717 25.928v17.563z"/><path d="m171.925 38.999v4.762c0 3.056-1.314 2.834-2.406 2.834-1.349 0-2.458 0-2.458-2.783l-.051-6.793h-6.538v8.176c0 7.63 4.114 6.862 8.928 6.862 3.874 0 9.421.768 9.421-7.033v-8.448c0-2.39-1.246-4.147-3.208-6.11 0 0-2.186-1.861-5.906-5.582-2.509-2.475-3.056-4.301-3.056-5.991v-3.567c0-3.038 1.298-2.799 2.39-2.799 1.332 0 2.476 0 2.476 2.782l.034 5.462h6.554v-6.008c0-7.629-4.113-6.844-8.943-6.844-3.857 0-9.405-.785-9.405 6.998v6.401c0 2.373 1.707 4.933 5.77 8.773-.002-.003 6.398 4.179 6.398 8.908"/><path d="m84.125 38.999v4.762c0 3.056-1.297 2.834-2.39 2.834-1.331 0-2.475 0-2.475-2.783l-.018-6.793h-6.554v8.176c0 7.63 4.097 6.862 8.944 6.862 3.858 0 9.422.768 9.422-7.033v-8.448c0-2.39-1.263-4.147-3.208-6.11 0 0-2.185-1.861-5.923-5.582-2.526-2.475-3.039-4.301-3.039-5.991v-3.567c0-3.038 1.297-2.799 2.39-2.799 1.332 0 2.475 0 2.475 2.782l.034 5.462h6.554v-6.008c0-7.629-4.113-6.844-8.961-6.844-3.857 0-9.405-.785-9.405 6.998v6.401c0 2.373 1.707 4.933 5.786 8.773.002-.003 6.368 4.179 6.368 8.908"/><path d="m56.731 13.071h1.501c2.595 0 2.304 2.987 2.304 6.025 0 0 .291 5.94-2.304 5.94h-1.501zm-7.289 39.019h7.289v-21.234h1.297c2.338 0 2.492 1.11 2.492 3.603v9.404c0 2.901.188 6.811.973 8.228h7.22c-.802-1.417-.717-5.326-.717-8.228v-7.681c0-4.302.153-7.579-3.994-8.33 3.141-.478 4.301-1.877 4.301-8.722 0-9.166-1.553-10.531-9.336-10.531h-9.524z"/><path d="m130.876 24.951v5.905h-7.51v14.97h8.926v6.264h-15.941v-43.491h15.583v5.769h-8.568v10.583z"/><path d="m45.192 24.951v5.905h-7.51v14.97h8.91v6.264h-15.942v-43.491h15.618v5.769h-8.586v10.583z"/><path d="m112.391 8.599v43.491h-7.016v-21.234h-4.044v21.234h-7.033v-43.491h7.033v16.284h4.044v-16.284z"/><path d="m27.543 8.599v43.491h-7.015v-21.234h-4.045v21.234h-6.998v-43.491h6.998v16.284h4.045v-16.284z"/></g></svg>