<svg xmlns="http://www.w3.org/2000/svg" viewBox="0 0 24 24"><path d="M10 .002a3.38 3.38 0 0 0-2.372.86c-.202.13-.392.598-.595.22-.226-.153.133.309-.011.403-.474.337-1.051.509-1.6.706-.131.055-.474.125-.464.156.904.166 1.148.079 1.148.079.389-.039.237.449.279.674.221.003.364-.399.538-.559.45-.576.866-1.184 1.401-1.695.529-.394 3.769-.125 4.45.49-.013-.017-.331-.285-.493-.365-.828-.475-1.832-.653-2.79-.561-.825.089-1.536.582-2.031 1.191-.373.418-.785.598-1.348.725-.248.19-.352-.247-.68-.136-.449.102-.775.455-1.214.583-.192.028-.151.383-.297.165-.405-.163-.382.388-.283.609.112.319.35.586.565.849.104.189.252.12.351-.017 0 0 .134-.663-.144-.69l-.735-.062c.224.317.627.459.96.651.098.049 1.629.531 2.372.546a4.4 4.4 0 0 0 1.889-.425 7.2 7.2 0 0 0-1.868.162c-.257.046-1.146-.652-.909-.349.015.067.116.958.34.905.326-.052.235.01-.226-.003.431.015.86-.044 1.286-.096-.387.013-2.256-.786-2.869-.922.731.971-.24-.38-.459-.613-.071-.151-.435-.414-.3-.063.145.285.168.559.212.851.25.379.722.549 1.139.709.017.042.541.112.225.199-.457.349-.537.943-.761 1.421a1.3 1.3 0 0 1-.543.582c.236-.032.324-.099.424-.159-.033.176-.242.445-.266.488.494-.209.59-.757.745-1.201.141-.419.318-.898.767-1.103.229.018.348.345.611.397.731.316 1.629.084 2.302.547.409.315.362.872.227 1.302-.215.638-.533 1.241-.813 1.855-.686 1.431-1.435 2.835-2.117 4.268-.656.01-1.379.318-1.602.943-.135.215-.02.566-.12.719-.697.135-1.292.671-1.421 1.339-.094.379-.094.788.056 1.154-.779.448-1.141 1.34-1.177 2.171-.055.253.12.588.028.778a4.3 4.3 0 0 0-1.699 1.38c-.115.122-.183.213.034.117.776-.233 1.574-.441 2.393-.455.741.648 1.806.794 2.778.756.323-.083.417.319.663.449 1.022.849 2.44 1.101 3.763 1.071 1.299-.047 2.615-.326 3.744-.951 1.96.637 4.117.509 6.079-.05 1.166-.34 2.359-.767 3.236-1.602.867-.791 1.378-1.976 1.146-3.115-.162-.903-.847-1.709-1.766-2.014a3.3 3.3 0 0 0-1.127-.167c.069-.752-.439-1.487-1.167-1.777-.428-.187-.903-.256-1.371-.252-.098-.812-.86-1.399-1.65-1.614-.946-.271-1.951-.042-2.843.292-.767.293-1.514.667-2.346.767-.167.007-.525.137-.348-.127.685-1.979 1.584-3.886 2.235-5.874.315-1.056.583-2.132.67-3.228.077-.958-.113-1.97-.742-2.748C12.925.772 12.011.3 11.059.115A6 6 0 0 0 10 .002M5.216 4.97s-.201-.069 0 0m-.246-.09c-.139-.061-.231-.104-.039-.016zm1.259.234c.018-.164.007-.105 0 0M4.016 3.21l.003.02zm0-.007c-.008-.136-.01-.202 0 0m5.647-1.654c.711-.025 1.347.606 1.286 1.277.019.111.538.082.196.152q-.517.138-1.033.281c.059-.181.083-.409-.126-.577-.213.119-.419-.03-.409-.206-.69-.009-.898.744-.574 1.045.084.059-.331.219-.368.061-.444-.539-.33-1.407.272-1.799.218-.149.486-.235.756-.234m-4.114.606c-.539.097-1.136.055-1.616.342-.198.091-.35.529-.318.554.259-.158.587.054.873.067.289.082.523-.158.601-.398.097-.216.172-.519.46-.565m2.705.676c-.028.287.34.768.402.796a1.26 1.26 0 0 1-.402-.796m-4.234.4c.015.085.012.069 0 0m-.394.044c.024.159.03.2 0 0m1.333 1.179s.209.097 0 0m3.695.14c-.144.077-.187.099 0 0m-2.401.36c.037.206.1.002 0 0m9.711 7.762c.139-.002-1.832.395-2.755.771a6.1 6.1 0 0 1-2.073.461c-.131.398-.146.919.094.188.923-.03 1.81-.35 2.637-.723m2.873-.59c.586.154.583.155 0 0M5.858 13.974c-.375.042-.631.099-.18.03q.09-.018.18-.03m12.73.477c1.285.268 1.076.002-.1.001-8.384 1.089-6.329 7.232-.262.537.181-.125.164-.53.362-.538M4.499 15.594c.055.2.928.223.98.224-.312-.04-.858-.316-1.166-.185-.541.136-.968.587-1.039 1.114-.042.125-.029.5-.027.47-.055-.581.672-1.298 1.261-1.551.143-.067.413.034.571.009m16.14.806c-.279-.11-.327.187-.197-.002.066-.011.132.013.197.002m.158.013c.151.014.192.018 0 0m.296.039.064.013zM2.236 19.449q.19-.808 0 0m-.05.721q-3.324-30.252 0 0m17.922 2.226c-.236.166-.565.176-.836.285-.488.131 2.418-.382.851-.259M2 21.015q-3.045-31.52 0 0m18.415 1.305c-.117.046-.425.147-.145.052m-7.279.498q-19.486-34.305 0 0"/></svg>