<svg fill="#0046d7" viewBox="0 0 24 24" xmlns="http://www.w3.org/2000/svg"><path d="m11.329 11.097c-.864-3.24-3.604-5.597-6.84-5.597h-3.735c-.557 0-.754.162-.754.826 0 1.546.43 2.981 1.15 4.182a5.65 5.65 0 0 0 -1.15 3.412c0 3.16 2.603 5.728 5.818 5.728 2.86 0 5.236-2.031 5.725-4.706.24-1.325.13-2.564-.214-3.845m-9.015 2.826c0-.575.144-1.112.395-1.58 1.167.988 2.637 1.58 4.238 1.58h2.351c0 1.904-1.56 3.446-3.49 3.446s-3.494-1.546-3.494-3.446m11.776-6.052a7.56 7.56 0 0 1 3.859-1.222.24.24 0 0 0 .234-.234v-1.83c0-.128-.107-.252-.252-.235a9.86 9.86 0 0 0 -5.136 1.597c-.196.128-.378.269-.574.396-.107.09-.128.234-.038.34l1.167 1.402c.09.107.234.107.34.034-.058.094.182-.138.4-.248m4.093.324c-3.215 0-5.818 2.568-5.818 5.728s2.603 5.728 5.818 5.728 5.817-2.568 5.817-5.728-2.602-5.728-5.817-5.728m0 9.174c-1.921 0-3.484-1.546-3.484-3.446s1.56-3.446 3.484-3.446 3.483 1.546 3.483 3.446-1.56 3.446-3.483 3.446"/></svg>