<svg height="64" viewBox="0 0 64 64" width="64" xmlns="http://www.w3.org/2000/svg"><g fill="none" fill-rule="evenodd"><path d="m0 0h64v64h-64z" fill="#8c4fff"/><path d="m16 48h2c0-5.566 2.779-11 36-11v-2c-15.551 0-25.879 1.219-31.573 3.728-5.663 2.495-6.427 6.087-6.427 9.272m5 5.876v.124h2v-.124c-.001-3.12-.001-6.067 3.556-8.456 4.428-2.974 13.405-4.42 27.444-4.42v-2c-14.448 0-23.79 1.557-28.56 4.76-4.442 2.983-4.441 6.938-4.44 10.116m-8-30.876h-2c0 3.614 2.747 7.285 19.012 9-16.265 1.715-19.012 5.386-19.012 9h2c0-5.383 13.411-8 41-8v-2c-27.589 0-41-2.617-41-8m5-7h-2c0 8.233 6.218 13 38 13v-2c-33.221 0-36-5.434-36-11m36 7v2c-14.448 0-23.79-1.557-28.56-4.76-4.442-2.983-4.441-6.938-4.44-10.116v-.124h2v.124c-.001 3.12-.001 6.067 3.556 8.456 4.428 2.974 13.405 4.42 27.444 4.42" fill="#fff"/></g></svg>