<svg xmlns="http://www.w3.org/2000/svg" width="48" height="48" fill="none" viewBox="0 0 48 48"><path fill="currentColor" d="M24 4C12.954 4 4 12.954 4 24v20h20c11.046 0 20-8.954 20-20S35.046 4 24 4m0 13a7 7 0 1 1 0 14h-7v-7a7 7 0 0 1 7-7"/><path fill="currentColor" d="M44 24c0 11.046-8.954 20-20 20H4c0-7.18 5.82-13 13-13h7a7 7 0 0 0 7-7z"/><path fill="currentColor" fill-opacity=".56" d="M44 24c0 11.046-8.954 20-20 20H4c0-7.18 5.82-13 13-13h7a7 7 0 0 0 7-7z"/><path fill="currentColor" fill-opacity=".1" d="M44 24c0 11.046-8.954 20-20 20H4c0-7.18 5.82-13 13-13h7a7 7 0 0 0 7-7z"/><path fill="currentColor" d="M24 4C12.954 4 4 12.954 4 24v20h.005c7.163-.003 12.972-5.799 12.995-12.957l.043-.043H17v-7a7 7 0 0 1 11.988-4.91l9.206-9.18A19.94 19.94 0 0 0 24 4"/><path fill="currentColor" d="M24 4C12.954 4 4 12.954 4 24v20h.005c7.163-.003 12.972-5.799 12.995-12.957l.043-.043H17v-7a7 7 0 0 1 11.988-4.91l9.206-9.18A19.94 19.94 0 0 0 24 4"/></svg>