<svg fill="none" height="48" viewBox="0 0 48 48" width="48" xmlns="http://www.w3.org/2000/svg" xmlns:xlink="http://www.w3.org/1999/xlink"><radialGradient id="a" cx="0" cy="0" gradientTransform="matrix(8 5.5 -9.6664 14.06022 11 35.5)" gradientUnits="userSpaceOnUse" r="1"><stop offset="0"/><stop offset=".7" stop-opacity="0"/></radialGradient><radialGradient id="b" cx="0" cy="0" gradientTransform="matrix(14.79998 9.2 -16.1692 26.01131 8.6 34)" gradientUnits="userSpaceOnUse" r="1"><stop offset=".328"/><stop offset=".604" stop-opacity="0"/></radialGradient><radialGradient id="c" cx="0" cy="0" gradientTransform="matrix(26.79999 -4.6 12.09404 70.46091 .6 16.4)" gradientUnits="userSpaceOnUse" r="1"><stop offset="0" stop-color="#6d05e8"/><stop offset="1" stop-color="#6d05e8" stop-opacity="0"/></radialGradient><linearGradient id="d" gradientUnits="userSpaceOnUse" x1="28.4" x2="21.8" y1="18.2" y2="45.2"><stop offset="0" stop-color="#9237e3"/><stop offset="1" stop-color="#48e6f3"/></linearGradient><linearGradient id="e" gradientUnits="userSpaceOnUse" x1="17" x2="34.6" y1="41" y2="37"><stop offset="0" stop-color="#51e6ff"/><stop offset="1" stop-color="#71d4ff" stop-opacity="0"/></linearGradient><linearGradient id="f" gradientUnits="userSpaceOnUse" x1="12.2" x2="22.4" y1="25.4" y2="11"><stop offset="0" stop-color="#6d05e8"/><stop offset="1" stop-color="#ab5add" stop-opacity="0"/></linearGradient><path d="m24 4c-11.046 0-20 8.954-20 20v20h20c11.046 0 20-8.954 20-20s-8.954-20-20-20m0 13a7 7 0 1 1 0 14h-7v-7a7 7 0 0 1 7-7" fill="url(#d)"/><path d="m44 24c0 11.046-8.954 20-20 20h-20c0-7.18 5.82-13 13-13h7a7 7 0 0 0 7-7z" fill="url(#e)"/><path d="m44 24c0 11.046-8.954 20-20 20h-20c0-7.18 5.82-13 13-13h7a7 7 0 0 0 7-7z" fill="url(#a)" fill-opacity=".56"/><path d="m44 24c0 11.046-8.954 20-20 20h-20c0-7.18 5.82-13 13-13h7a7 7 0 0 0 7-7z" fill="url(#b)" fill-opacity=".1"/><path d="m24 4c-11.046 0-20 8.954-20 20v20h.005c7.163-.003 12.972-5.799 12.995-12.957l.043-.043h-.043v-7a7 7 0 0 1 11.988-4.91l9.206-9.18a19.94 19.94 0 0 0 -14.194-5.91" fill="url(#f)"/><path d="m24 4c-11.046 0-20 8.954-20 20v20h.005c7.163-.003 12.972-5.799 12.995-12.957l.043-.043h-.043v-7a7 7 0 0 1 11.988-4.91l9.206-9.18a19.94 19.94 0 0 0 -14.194-5.91" fill="url(#c)"/></svg>