<svg height="48" viewBox="0 0 48 48" width="48" xmlns="http://www.w3.org/2000/svg"><path d="m28.194 17v-5.891h-.943l-1.896 3.613-1.904-3.613h-.969v5.891h.799v-4.641l1.666 3.136h.791l1.657-3.128v4.633zm2.439-2.219h1.981l-.994-2.889zm-.22.655-.528 1.564h-.892l2.176-5.891h.935l2.176 5.891h-.901l-.544-1.564zm-9.035-3.629v-.698h-3.664v5.891h3.664v-.697h-2.797v-1.989h2.345v-.697h-2.345v-1.81zm13.735 5.193h.867v-5.891h-.867zm2.329-5.891v5.891h3.647v-.714h-2.78v-5.177zm-33.442-3.109c0 2.206 1.794 4 4 4s4-1.794 4-4-1.794-4-4-4-4 1.794-4 4m-2 0c0-3.309 2.691-6 6-6 3.308 0 6 2.691 6 6s-2.692 6-6 6c-3.309 0-6-2.691-6-6m42 33.5h2v-2h-2zm1-6.5h-1.5v2h.5v.5h2v-1.5a1 1 0 0 0 -1-1m-13.5 2h3v-2h-3zm-6 0h3v-2h-3zm12 0h3v-2h-3zm-24 0h3v-2h-3zm6 0h3v-2h-3zm-12 0h3v-2h-3zm-5.5-1v1.5h2v-.5h.5v-2h-1.5a1 1 0 0 0 -1 1m0 5.5h2v-2h-2zm2 2h-2v1.5a1 1 0 0 0 1 1h1.5v-2h-.5zm33.5 2.5h3v-2h-3zm-12 0h3v-2h-3zm-12 0h3v-2h-3zm-6 0h3v-2h-3zm24 0h3v-2h-3zm-12 0h3v-2h-3zm24.5-2h-.5v2h1.5a1 1 0 0 0 1-1v-1.5h-2zm0-15.5h2v-2h-2zm1-6.5h-1.5v2h.5v.5h2v-1.5a1 1 0 0 0 -1-1m-13.5 2h3v-2h-3zm-12 0h3v-2h-3zm-12 0h3v-2h-3zm18 0h3v-2h-3zm-12 0h3v-2h-3zm24 0h3v-2h-3zm-35.5-1v1.5h2v-.5h.5v-2h-1.5a1 1 0 0 0 -1 1m0 5.5h2v-2h-2zm2 2h-2v1.5a1 1 0 0 0 1 1h1.5v-2h-.5zm3.5 2.5h3v-2h-3zm12 0h3v-2h-3zm-6 0h3v-2h-3zm24 0h3v-2h-3zm-6 0h3v-2h-3zm-6 0h3v-2h-3zm18.5-2h-.5v2h1.5a1 1 0 0 0 1-1v-1.5h-2zm2-22v10a1 1 0 0 1 -1 1h-42a1 1 0 0 1 -1-1v-4h2v3h40v-8h-28v-2h29a1 1 0 0 1 1 1" fill="#e7157b" fill-rule="evenodd"/></svg>