<svg viewBox="0 0 24 24" xmlns="http://www.w3.org/2000/svg"><path d="m12 0c-6.623 0-12 5.377-12 12s5.377 12 12 12c1.26 0 2.474-.194 3.615-.555-.272-.827-.485-1.57-.72-1.496-6.288 1.976-13.227-3.703-13.227-9.949-.001-5.71 6.122-12.043 13.032-10.221.18.047 1.364-.405 2.19-.738a11.95 11.95 0 0 0 -4.89-1.041m6.37 1.83c-1.866.712-6.182 2.136-7.332 3.731-2.676.004-3.675.532-4.069.814-.316.226-.407 2.034-.407 2.034h-.814l-.406-1.627s-3.967 4.496 1.22 4.475c.202 1.339.15 3.974.407 5.696.27 1.806 4.18 3.74 5.29 3.662.58-.04.362-1.65.406-2.441 2.345.802 3.653 1.981 4.285 4.76 4.156-1.888 7.05-6.076 7.05-10.934 0-4.284-2.25-8.046-5.63-10.17m-2.81 4.124c.667-.062 6.563 2.538 4.428 4.454-.572.21-1.268.195-1.782.21-2.198.065-3.007-.61-3.421-1.376-.229-.422-.62-1.084-.492-1.24.67.001 1.497-.031 2.034 0-.191-.29-1.398-1.596-.814-2.034a.1.1 0 0 1 .048-.014m-3.465 6.166a1.124 1.124 0 1 1 0 2.248 1.124 1.124 0 0 1 0-2.248"/></svg>