<svg xmlns="http://www.w3.org/2000/svg" width="18" height="18" viewBox="0 0 18 18"><defs><mask id="a"><path fill="#fff" d="M0 0h18v18H0z"/><path d="M13.335 1.1a.57.57 0 0 1 .807 0l.026.028a8.32 8.32 0 0 1-11.736 11.73.57.57 0 0 1-.049-.8l.025-.026A.57.57 0 0 1 3.19 12 7.178 7.178 0 0 0 13.312 1.882a.573.573 0 0 1 .023-.782m-1.389 16.4h-5.9a.476.476 0 0 1-.476-.476.476.476 0 0 1 .476-.476h5.9a.476.476 0 0 1 .475.476.476.476 0 0 1-.475.476"/><path d="m7.25 8.596-.557.557a.243.243 0 0 1-.343 0L4.137 6.941a.243.243 0 0 1 0-.344l.385-.385a.243.243 0 0 1 .344 0z"/><path d="M6.361 9.157 5.804 8.6l5.091-5.092a.243.243 0 0 1 .344 0l.385.386a.243.243 0 0 1 0 .343l-4.92 4.92a.243.243 0 0 1-.344 0z"/><circle cx="7.871" cy="6.563" r="6.063"/></mask></defs><path fill="currentColor" d="M9.3 14.752c0-.154-.613-.154-.613 0a1.656 1.656 0 0 1-1.636 1.8h3.882a1.655 1.655 0 0 1-1.633-1.8" mask="url(#a)"/></svg>