<svg height="18" viewBox="0 0 18 18" width="18" xmlns="http://www.w3.org/2000/svg" xmlns:xlink="http://www.w3.org/1999/xlink"><linearGradient id="a" gradientTransform="matrix(.70710678 .70710678 .70710678 -.70710678 -379.792176 725.589422)" gradientUnits="userSpaceOnUse" x1="-234.309" x2="-234.309" y1="776.485" y2="788.611"><stop offset="0" stop-color="#5e9624"/><stop offset=".82" stop-color="#76bc2d"/></linearGradient><path d="m9.3 14.752c0-.154-.613-.154-.613 0a1.656 1.656 0 0 1 -1.636 1.8h3.882a1.655 1.655 0 0 1 -1.633-1.8" fill="#999"/><path d="m13.335 1.1a.57.57 0 0 1 .807 0l.026.028a8.32 8.32 0 0 1 -11.736 11.73.57.57 0 0 1 -.049-.8l.025-.026a.57.57 0 0 1 .782-.032 7.178 7.178 0 0 0 10.122-10.118.573.573 0 0 1 .023-.782m-1.389 16.4h-5.9a.476.476 0 0 1 -.476-.476.476.476 0 0 1 .476-.476h5.9a.476.476 0 0 1 .475.476.476.476 0 0 1 -.475.476" fill="#a3a3a3"/><circle cx="7.871" cy="6.563" fill="url(#a)" r="6.063"/><path d="m7.25 8.596-.557.557a.243.243 0 0 1 -.343 0l-2.213-2.212a.243.243 0 0 1 0-.344l.385-.385a.243.243 0 0 1 .344 0z" fill="#fff"/><path d="m6.361 9.157-.557-.557 5.091-5.092a.243.243 0 0 1 .344 0l.385.386a.243.243 0 0 1 0 .343l-4.92 4.92a.243.243 0 0 1 -.344 0z" fill="#f2f2f2"/></svg>