<svg height="48" viewBox="0 0 48 48" width="48" xmlns="http://www.w3.org/2000/svg"><path d="m21 32h6v-2h-6zm-5 2h16v-6h-16zm17-8h-18a1 1 0 0 0 -1 1v8a1 1 0 0 0 1 1h18a1 1 0 0 0 1-1v-8a1 1 0 0 0 -1-1m-22-14h6v-2h-6zm14-2h6v-2h-6zm-21 34h40v-28h-40zm18-40h12v5a1 1 0 0 0 1 1h5v4h-18zm14 1.261 2.645 2.739h-2.645zm9 8.739h-3v-5c0-.259-.101-.508-.28-.695l-5.793-6a1 1 0 0 0 -.72-.305h-14.207a1 1 0 0 0 -1 1v11h-12v-7h10v-2h-11a1 1 0 0 0 -1 1v8h-3a1 1 0 0 0 -1 1v30a1 1 0 0 0 1 1h42a1 1 0 0 0 1-1v-30a1 1 0 0 0 -1-1" fill="#8c4fff" fill-rule="evenodd"/></svg>