<svg xmlns="http://www.w3.org/2000/svg" width="404" height="404" cursor="move" transform="scale(1.11388)" viewBox="0 0 4040 4040"><linearGradient id="a" x1="75%" x2="25%" y1="45%" y2="90%" gradientUnits="userSpaceOnUse"><stop offset="0" stop-color="#8d8e8d"/><stop offset=".01" stop-color="#8b8c8b"/><stop offset=".02" stop-color="#8a8c8a"/><stop offset=".03" stop-color="#8a8b8a"/><stop offset=".04" stop-color="#828382"/><stop offset=".05" stop-color="#878987"/><stop offset=".12" stop-color="#848584"/><stop offset=".13" stop-color="#838583"/><stop offset=".14" stop-color="#838483"/><stop offset=".24" stop-color="#7d7e7d"/><stop offset=".25" stop-color="#7c7e7c"/><stop offset=".26" stop-color="#7c7d7c"/><stop offset=".28" stop-color="#7b7c7b"/><stop offset=".29" stop-color="#7a7c7a"/><stop offset=".3" stop-color="#7a7b7a"/><stop offset=".31" stop-color="#797b79"/><stop offset=".37" stop-color="#777877"/><stop offset=".38" stop-color="#767876"/><stop offset=".92" stop-color="#616261"/><stop offset=".93" stop-color="#5f605e"/><stop offset=".94" stop-color="#5f5f5e"/><stop offset=".98" stop-color="#5d5e5c"/><stop offset="1" stop-color="#5d5d5d"/></linearGradient><g fill="url(#a)"><path d="M2911 3730c85-125 134-292 110-378-16-59-67-107-130-122-101-24-216 12-581 184-207 98-372 157-505 182-103 19-368 16-465-6-232-51-457-150-545-240-50-51-50-51-50-248 0-155 4-213 18-274 18-78 18-78 53-78 26 0 34 4 34 18 1 14 5 12 23-9 142-169 182-215 187-219 3-3 42-48 85-100 77-93 78-95 52-98-23-3-27-8-27-38 0-24 5-34 15-34 8 0 15-4 15-9 0-11 98-54 181-79 82-25 249-45 306-36 40 6 43 8 42 38 0 26-8 36-46 61-26 17-58 46-72 65-29 39-23 36 60-32 73-59 257-179 343-223 78-40 78-40 73-145-3-58-13-130-22-160s-19-72-22-92c-5-38-5-38 30-38 22 0 37 6 41 15q6 15-15 15c-16 0-19 4-14 18 18 48 35 148 41 245 4 59 8 107 9 107s52-18 114-40c182-65 359-86 507-59 78 14 254 71 254 82 0 6-25 7-58 3-116-13-94 5 75 62 166 57 166 57 215 130 150 222 215 497 189 800-6 68-9 127-6 132 3 4-3 18-13 31s-31 56-46 94c-68 172-199 348-336 450-33 25-143 85-155 85-3 0 13-27 36-60m434-1211c-21-82-125-297-147-307-5-2-8-9-8-15 0-7-10-18-22-26-36-23-298-111-352-119-51-7-51-7-51-49s0-42-64-49c-91-10-223 1-311 26-93 26-231 80-226 89 8 12 208 105 275 128 25 8 96 37 156 65 141 63 143 64 320 138 83 34 168 70 190 80s76 32 120 50c44 17 91 37 105 44s26 12 28 10c2-1-4-30-13-65"/><path d="M766 3321c-37-41-48-272-21-439 69-426 448-742 891-742 94 0 94 0 94 35 0 24-7 41-22 53-59 48-98 85-98 95 0 6 7 1 16-11 8-12 21-22 27-22 7 0 18-9 25-20s16-20 22-20c5 0 21-11 36-25s33-25 40-25c8 0 14-4 14-9 0-16 295-191 322-191 4 0 8 7 8 15 0 20 7 19 86-13 156-64 224-77 409-77 169 1 171 1 275 37 105 36 105 36 2 37-106 1-130 14-45 24 27 3 116 29 198 59 150 53 150 53 188 108 63 92 125 229 152 339 14 57 24 111 22 120-4 13-5 13-6-2 0-10-6-15-12-12-5 4-33-4-62-18s-88-40-132-57-98-40-120-50-107-46-190-80c-177-74-179-75-320-138-60-28-131-57-156-65-44-15-115-47-243-109-32-15-65-28-73-28-9 0-13-6-10-14 4-10 1-13-8-9-8 3-12 10-8 16q4.5 9-6 3c-24-15-271 147-450 297-45 37-83 67-86 67-6 0 4-54 16-97 15-49 65-111 115-142 44-29 44-29 15-33-84-12-337 41-327 69 3 7 2 13-3 13-4 0-28 28-52 62-39 56-183 235-199 248-3 3-32 37-65 75-189 226-223 259-226 218-1-10-7 11-15 47-17 82-17 263 0 358 7 39 9 72 6 72-4 0-14-8-24-19"/></g></svg>