<svg xmlns="http://www.w3.org/2000/svg" width="18" height="18" viewBox="0 0 18 18"><linearGradient id="a" x1="8.995" x2="8.995" y1="10.299" y2="13.199" gradientUnits="userSpaceOnUse"><stop offset="0" stop-color="#005ba1"/><stop offset=".258" stop-color="#00589d"/><stop offset=".525" stop-color="#004f90"/><stop offset=".796" stop-color="#003f7c"/><stop offset="1" stop-color="#003067"/></linearGradient><path fill="currentColor" d="m13.387 7.4-.005-.004v-.012h-.019L8.997 4.405 4.631 7.384h-.019v.012l-.006.004h.006v5.801h8.77V7.4z"/><path fill="currentColor" d="m4.606 7.4.008 5.8 4.381-2.9z"/><path fill="currentColor" d="m13.384 7.4-4.389 2.9 4.381 2.9z"/><path fill="currentColor" d="m8.995 10.299-4.381 2.895v.005h8.762v-.005z"/><g fill="currentColor"><path fill="currentColor" d="M1.072 1.43h1.29v3.6a.286.286 0 0 1-.286.286H.786A.286.286 0 0 1 .5 5.035V2a.57.57 0 0 1 .572-.57"/><path fill="currentColor" d="M1.072 1.43h1.29v3.6a.286.286 0 0 1-.286.286H.786A.286.286 0 0 1 .5 5.035V2a.57.57 0 0 1 .572-.57" opacity=".5"/></g><g fill="currentColor"><path fill="currentColor" d="M15.638 1.43h1.29A.57.57 0 0 1 17.5 2v3.035a.286.286 0 0 1-.286.286h-1.29a.286.286 0 0 1-.286-.286z"/><path fill="currentColor" d="M15.638 1.43h1.29A.57.57 0 0 1 17.5 2v3.035a.286.286 0 0 1-.286.286h-1.29a.286.286 0 0 1-.286-.286z" opacity=".5"/></g><g fill="currentColor"><path fill="currentColor" d="M.786 12.679h1.29a.286.286 0 0 1 .286.286v3.6h-1.29A.57.57 0 0 1 .5 16v-3.035a.286.286 0 0 1 .286-.286"/><path fill="currentColor" d="M.786 12.679h1.29a.286.286 0 0 1 .286.286v3.6h-1.29A.57.57 0 0 1 .5 16v-3.035a.286.286 0 0 1 .286-.286" opacity=".5"/></g><g fill="currentColor"><path fill="currentColor" d="M15.924 12.679h1.29a.286.286 0 0 1 .286.286V16a.57.57 0 0 1-.572.572h-1.29v-3.6a.286.286 0 0 1 .286-.293"/><path fill="currentColor" d="M15.924 12.679h1.29a.286.286 0 0 1 .286.286V16a.57.57 0 0 1-.572.572h-1.29v-3.6a.286.286 0 0 1 .286-.293" opacity=".5"/></g><path fill="currentColor" d="M.5 16.003v-1.247h17v1.247a.567.567 0 0 1-.567.567H1.067a.567.567 0 0 1-.567-.567"/></svg>