<svg height="298" viewBox="-1.136 -1.136 138.039 40.145" width="1024" xmlns="http://www.w3.org/2000/svg"><g fill="#e51e25"><path d="m108.758 8.828c1.28.23 2.543.486 3.773.754v23.505c1.131-.264 3.234-.813 4.635-1.228v-21.167c1.344.348 2.613.698 3.772 1.031v-4.533c-3.659-1.278-7.588-2.318-12.18-3.278zm-108.758 10.047c0 3.476 3.373 6.732 9.26 9.524v-18.972c-5.887 2.77-9.26 6.003-9.26 9.448m135.766 0c0 3.482-3.378 6.733-9.266 9.529v-18.984c5.888 2.777 9.266 6.01 9.266 9.453m-108.823 7.757c0 1.455-.873 1.94-1.919 1.94-.813 0-2.07-.296-3.093-.576v-18.14c1.024-.272 2.28-.568 3.093-.568 1.046 0 1.919.486 1.919 1.94zm-1.235-22.086c-1.644 0-4.014.485-8.305 1.81v25.148c3.773 1.143 6.661 1.811 8.305 1.811 3.79 0 5.924-2.317 5.924-6.036v-16.697c0-3.719-2.134-6.036-5.924-6.036m37.992 13.01c0 1.584-.554 2.388-2.657 2.394l-1.816.005v-14.536c.808-.043 1.24-.053 1.725-.053 2.274 0 2.748.86 2.748 2.478zm-2.446-17.333c-.9 0-4.183.113-7.202.29v36.84c1.024.054 3.72.194 5.175.231v-12.509l2.027-.005c5.42-.016 7.674-2.447 7.674-7.125v-10.855c0-4.581-2.533-6.867-7.674-6.867m40.524 20.314-5.74-18.73c-1.562-.203-3.449-.414-4.904-.549v35.351a223 223 0 0 0 4.98-.565l-.41-20.832 6.074 20.017c1.294-.204 3.18-.533 4.42-.77v-31.061a153 153 0 0 0 -4.776-.826zm-56.941 9.045c0 1.455-.502 2.377-2.318 2.156-1.784-.216-2.264-.97-2.264-2.695v-27.37c-1.185.13-3.826.496-4.958.659v27.68c0 4.42 2.145 6.14 7.222 6.721 4.646.533 7.49-1.816 7.49-6.721v-29.244c-.968.054-4.148.324-5.172.432zm37.35.84c0 1.455-.485 2.21-2.317 2.265-1.887.053-2.4-.755-2.4-2.264v-22.967c0-1.509.513-2.344 2.4-2.29 1.832.053 2.317.836 2.317 2.29zm-2.317-30.402c-4.798-.232-7.654 1.885-7.654 6.736v24.096c0 5.122 2.587 7.228 7.654 7.007 4.958-.215 7.545-2.101 7.545-7.545v-23.003c0-5.19-2.339-7.039-7.545-7.292"/><path d="m133.013 30.298h.56l.825 1.296.826-1.296h.54v2.735h-.504v-1.944l-.844 1.305h-.054l-.842-1.305v1.944h-.507zm-1.953.479h-.844v-.479h2.21v.479h-.842v2.256h-.524z"/></g></svg>