<svg height="48" viewBox="0 0 48 48" width="48" xmlns="http://www.w3.org/2000/svg"><path d="m44 19c0-1.103-.897-2-2-2s-2 .897-2 2 .897 2 2 2 2-.897 2-2m-4.08 3.4a3.99 3.99 0 0 1 -1.92-3.4c0-.513.106-1 .282-1.451l-11.745-8.483a3.96 3.96 0 0 1 -2.537.934 3.96 3.96 0 0 1 -2.537-.934l-11.745 8.483c.176.451.282.938.282 1.451a3.99 3.99 0 0 1 -1.92 3.4l4.754 15.617c.056-.003.109-.017.166-.017 1.859 0 3.411 1.28 3.858 3h14.284c.447-1.72 1.999-3 3.858-3 .057 0 .11.014.166.017zm-2.92 19.6c0-1.103-.897-2-2-2s-2 .897-2 2 .897 2 2 2 2-.897 2-2m-22 0c0-1.103-.897-2-2-2s-2 .897-2 2 .897 2 2 2 2-.897 2-2m-9-21c1.103 0 2-.897 2-2s-.897-2-2-2-2 .897-2 2 .897 2 2 2m16-15c0 1.103.897 2 2 2s2-.897 2-2-.897-2-2-2-2 .897-2 2m24 13c0 2.206-1.794 4-4 4-.057 0-.11-.014-.167-.017l-4.753 15.617a3.99 3.99 0 0 1 1.92 3.4c0 2.206-1.794 4-4 4-1.859 0-3.411-1.28-3.858-3h-14.284c-.447 1.72-1.999 3-3.858 3-2.206 0-4-1.794-4-4 0-1.441.773-2.696 1.92-3.4l-4.754-15.617c-.056.003-.109.017-.166.017-2.206 0-4-1.794-4-4s1.794-4 4-4a3.96 3.96 0 0 1 2.538.934l11.744-8.483a4 4 0 0 1 -.282-1.451c0-2.206 1.794-4 4-4s4 1.794 4 4c0 .513-.106 1-.282 1.451l11.744 8.483a3.96 3.96 0 0 1 2.538-.934c2.206 0 4 1.794 4 4m-11 7c0 6.065-4.935 11-11 11s-11-4.935-11-11h3.963l1.806-2.731a1 1 0 0 1 1.719.087l2.23 4.251 2.374-5.976a1 1 0 0 1 1.825-.075l2.203 4.444h1.88v2h-2.5a1 1 0 0 1 -.896-.556l-1.482-2.989-2.349 5.914a1 1 0 0 1 -.877.63l-.052.001c-.37 0-.712-.205-.886-.536l-2.455-4.68-1.169 1.768a1 1 0 0 1 -.834.448h-2.268c.913 4.002 4.493 7 8.768 7 4.963 0 9-4.038 9-9s-4.037-9-9-9c-2.574 0-4.991 1.125-6.681 3h1.681v2h-4a1 1 0 0 1 -1-1v-4h2v1.477c2.056-2.18 4.939-3.477 8-3.477 6.065 0 11 4.935 11 11" fill="#7aa116" fill-rule="evenodd"/></svg>