<svg fill="#036" viewBox="0 0 24 24" xmlns="http://www.w3.org/2000/svg"><path d="m12.054 0c-6.63 0-12.026 5.37-12.054 11.973 0 6.63 5.424 12.027 12.054 12.027 6.603 0 11.946-5.397 11.946-12.027 0-6.575-5.343-11.973-11.946-11.973zm0 .877c2.603 0 5.068.96 6.986 2.52l-11.862 11.726a21.416 21.416 0 0 1 -.75-.101c-.55-.082-.988-.147-1.552-.089-.904.082-2.135.876-2.902 1.725a11.18 11.18 0 0 1 -1.015-4.711c0-6.083 4.958-11.07 11.095-11.07zm7.37 2.876c2.247 2.054 3.672 4.987 3.672 8.22 0 2.137-.549 4.055-1.59 5.753l-10.218-1.862zm-14.548 12.985c.795.028 1.644.084 2.521.33l9.534 4.712-5.15-4.219 9.479.547c-2 3.014-5.398 4.96-9.179 4.96-4.328 0-8.082-2.465-9.945-6.054.96-.164 1.809-.303 2.74-.276z"/></svg>