<svg height="48" viewBox="0 0 48 48" width="48" xmlns="http://www.w3.org/2000/svg"><path d="m26.112 31.613h2.749v-1.875h-2.749zm-8.995-7.623h13.741v-7.619h-13.741zm.876 7.872h11.991v-2.372h-11.991zm-1.876-5.87h6.872v1.497h-5.997a1 1 0 0 0 -1 1v4.373a1 1 0 0 0 1 1h13.992a1 1 0 0 0 1-1v-4.372a1 1 0 0 0 -1-1h-5.995v-1.498h6.87a1 1 0 0 0 1-1v-9.62a1 1 0 0 0 -1-1h-15.742a1 1 0 0 0 -1 1v9.62a1 1 0 0 0 1 1m23.486 7.744h2v-19.238h-2zm-5.246 0h2v-19.238h-2zm-22.737 0h2v-19.238h-2zm-5.247 0h2v-19.238h-2zm-2.373 2.498h39.976v-24.234h-39.976zm40.976-26.234h-41.976a1 1 0 0 0 -1 1v26.235a1 1 0 0 0 1 1h41.976a1 1 0 0 0 1-1v-26.235a1 1 0 0 0 -1-1" fill="#ed7100" fill-rule="evenodd"/></svg>