<svg fill="none" height="18" viewBox="0 0 18 18" width="18" xmlns="http://www.w3.org/2000/svg" xmlns:xlink="http://www.w3.org/1999/xlink"><linearGradient id="a" gradientUnits="userSpaceOnUse" x1="9" x2="9" y1="18" y2="0"><stop offset="0" stop-color="#0078d4"/><stop offset=".156" stop-color="#1380da"/><stop offset=".528" stop-color="#3c91e5"/><stop offset=".822" stop-color="#559cec"/><stop offset="1" stop-color="#5ea0ef"/></linearGradient><linearGradient id="b" gradientUnits="userSpaceOnUse" x1="4.613" x2="7.359" y1="10.181" y2="10.181"><stop offset="0" stop-color="#5ea0ef"/><stop offset=".372" stop-color="#9fc6f5"/><stop offset=".8" stop-color="#e4effc"/><stop offset="1" stop-color="#fff"/></linearGradient><linearGradient id="c" gradientUnits="userSpaceOnUse" x1="10.644" x2="13.389" y1="10.181" y2="10.181"><stop offset="0" stop-color="#fff"/><stop offset=".2" stop-color="#e4effc"/><stop offset=".628" stop-color="#9fc6f5"/><stop offset="1" stop-color="#5ea0ef"/></linearGradient><clipPath id="d"><path d="m0 0h18v18h-18z"/></clipPath><g clip-path="url(#d)"><path clip-rule="evenodd" d="m12.6 2.768v-2.093l-.006-.092a.675.675 0 0 0 -.669-.583l-.092.006-.088.018a.675.675 0 0 0 -.495.651v2.024h-1.576l.001-2.024-.006-.092a.675.675 0 0 0 -.669-.583l-.092.006a.675.675 0 0 0 -.583.669v2.024h-1.575v-2.024l-.006-.092a.675.675 0 0 0 -1.344.092v2.092a3.38 3.38 0 0 0 -2.632 2.633h-2.093l-.092.006a.675.675 0 0 0 -.583.669l.006.092c.045.33.327.583.669.583h2.025v1.574l-2.025.001-.092.006a.675.675 0 0 0 -.583.669l.006.092c.045.329.327.583.669.583h2.025v1.574l-2.025.001-.092.006a.675.675 0 0 0 .092 1.344h2.093a3.38 3.38 0 0 0 2.632 2.633v2.092l.006.092c.045.329.327.583.669.583l.092-.006a.675.675 0 0 0 .583-.669v-2.026h1.574l.001 2.026.006.092c.045.329.327.583.669.583l.092-.006a.675.675 0 0 0 .583-.669v-2.026h1.575v2.026l.006.092a.675.675 0 0 0 1.344-.092v-2.093a3.38 3.38 0 0 0 2.632-2.628h2.093l.092-.006a.675.675 0 0 0 .583-.668l-.006-.091a.675.675 0 0 0 -.669-.584h-2.025v-1.576h2.025l.092-.006a.675.675 0 0 0 .583-.669l-.006-.091a.675.675 0 0 0 -.669-.584h-2.025v-1.575h2.025l.092-.006a.675.675 0 0 0 -.092-1.344h-2.092a3.38 3.38 0 0 0 -2.633-2.636m1.806 3.085-.055-.271a2.48 2.48 0 0 0 -1.93-1.932l-.271-.056v.006h-6.3v-.004l-.27.054a2.48 2.48 0 0 0 -1.93 1.93l-.055.27h.005v6.3h-.006l.056.272a2.48 2.48 0 0 0 1.93 1.93l.27.054v-.006h6.3v.007l.271-.056a2.48 2.48 0 0 0 1.929-1.926l.055-.27h-.005v-6.3z" fill="url(#a)" fill-rule="evenodd"/><path d="m14.351 5.582.055.271h-.006v6.3h.005l-.055.271a2.48 2.48 0 0 1 -1.929 1.926l-.271.056v-.007h-6.3v.007l-.27-.055a2.48 2.48 0 0 1 -1.93-1.93l-.056-.272h.006v-6.3h-.005l.055-.27a2.48 2.48 0 0 1 1.93-1.93l.27-.054v.004h6.3v-.005l.271.056a2.48 2.48 0 0 1 1.93 1.932" fill="url(#a)"/><path d="m4.693 9.045.295-.295 2.328 2.335a.134.134 0 0 1 0 .19l-.296.294a.133.133 0 0 1 -.189 0l-2.14-2.146a.27.27 0 0 1 .001-.378" fill="url(#b)"/><path d="m4.984 9.72-.295-.296a.27.27 0 0 1 0-.379l2.184-2.177a.134.134 0 0 1 .189 0l.295.296a.134.134 0 0 1 0 .19z" fill="#f2f2f2"/><path d="m10.98 11.571-.296-.294a.134.134 0 0 1 0-.19l2.33-2.337.297.295a.27.27 0 0 1 0 .378l-2.143 2.149a.134.134 0 0 1 -.189 0" fill="url(#c)"/><path d="m10.639 7.166.295-.296a.134.134 0 0 1 .19 0l2.182 2.177a.27.27 0 0 1 0 .378l-.294.296-2.371-2.364a.133.133 0 0 1 -.002-.191m-.369-1.031-.472-.151a.095.095 0 0 0 -.12.062l-1.926 6.014a.095.095 0 0 0 .062.12l.473.151a.095.095 0 0 0 .12-.061l1.925-6.016a.095.095 0 0 0 -.062-.12" fill="#f2f2f2"/></g></svg>