<svg xmlns="http://www.w3.org/2000/svg" width="24" height="24"><path fill="currentColor" d="m10.214 11.898 1.817-1.817 1.818 1.817-1.817 1.817z"/><g fill="currentColor" fill-rule="evenodd"><path d="m17.87 11.89-.07.06-3.77 3.78-1.06-1.05 2.8-2.79-5.71-5.71v-2.1l.07.07z"/><path d="m10.06 6.18-5.7 5.71 6.75 6.76-1.05 1.05-.06-.07-7.75-7.74 7.81-7.81z"/><path d="M13.94 17.6v2.1l-.06-.07-7.75-7.73 3.84-3.85 1.06 1.06-2.8 2.79z"/></g><path fill="currentColor" d="m13.94 17.6 5.7-5.7-6.75-6.76 1.05-1.06.06.07 7.75 7.75-.07.06-7.74 7.74z"/></svg>