<svg height="64" viewBox="0 0 64 64" width="64" xmlns="http://www.w3.org/2000/svg"><g fill="none" fill-rule="evenodd"><path d="m0 0h64v64h-64z" fill="#e7157b"/><path d="m37 34h15v-4h-15zm16-6h-17a1 1 0 0 0 -1 1v6a1 1 0 0 0 1 1h17a1 1 0 0 0 1-1v-6a1 1 0 0 0 -1-1m-18.5 21.5c0 1.378-1.121 2.5-2.5 2.5a2.503 2.503 0 0 1 -2.5-2.5c0-1.378 1.121-2.5 2.5-2.5s2.5 1.122 2.5 2.5m-22.5-11.5v-3h13v3zm0-9v-3h13v3zm17.5-14.5c0-1.378 1.121-2.5 2.5-2.5s2.5 1.122 2.5 2.5-1.121 2.5-2.5 2.5a2.503 2.503 0 0 1 -2.5-2.5m14.5 27.5h-24v-2h6a1 1 0 0 0 1-1v-5a1 1 0 0 0 -1-1h-6v-2h6a1 1 0 0 0 1-1v-5a1 1 0 0 0 -1-1h-6v-2h24v4h2v-5a1 1 0 0 0 -1-1h-12v-1.121c2-.457 3.5-2.242 3.5-4.379 0-2.481-2.019-4.5-4.5-4.5a4.505 4.505 0 0 0 -4.5 4.5c0 2.137 1.5 3.922 3.5 4.379v1.121h-12a1 1 0 0 0 -1 1v3h-7a1 1 0 0 0 -1 1v5a1 1 0 0 0 1 1h7v2h-7a1 1 0 0 0 -1 1v5a1 1 0 0 0 1 1h7v3a1 1 0 0 0 1 1h12v1.121c-2 .457-3.5 2.242-3.5 4.379 0 2.481 2.019 4.5 4.5 4.5s4.5-2.019 4.5-4.5c0-2.137-1.5-3.922-3.5-4.379v-1.121h12a1 1 0 0 0 1-1v-5h-2z" fill="#fff"/></g></svg>