<svg height="64" viewBox="0 0 64 64" width="64" xmlns="http://www.w3.org/2000/svg"><g fill="none" fill-rule="evenodd"><path d="m0 0h64v64h-64z" fill="#ed7100"/><path d="m48.487 27.566-3.997-2.4-3.996 2.4v4.867l3.996 2.401 3.997-2.401zm-11.99-8.041-3.993-2.361-4 2.402v4.867l3.992 2.398 4-2.439zm-11.99 8.041-3.997-2.4-3.997 2.4v4.579l4.024 2.672 3.97-2.384zm25.977-.566v6c0 .351-.184.676-.484.857l-4.996 3a1 1 0 0 1 -1.03 0l-4.995-3a1 1 0 0 1 -.485-.857v-5.58l-1.199-1.173-4.275 2.607a1 1 0 0 1 -1.036.003l-4.326-2.598-1.154 1.155v5.586c0 .351-.185.676-.485.857l-4.996 3a1 1 0 0 1 -1.067-.024l-4.996-3.319a1 1 0 0 1 -.446-.833v-5.681c0-.351.184-.677.484-.858l4.996-3a1 1 0 0 1 1.03 0l4.326 2.598 1.154-1.154v-5.586c0-.351.185-.677.484-.858l4.996-3a1 1 0 0 1 1.024-.003l4.996 2.954c.303.18.49.508.49.861v5.67l1.146 1.121 4.335-2.603a1 1 0 0 1 1.029 0l4.996 3c.3.181.484.507.484.858m-21.381 16.2-1.2 1.599 3.997 3a.995.995 0 0 0 1.2 0l3.996-3-1.199-1.599-2.397 1.8v-11.001l2.398 1.8 1.2-1.599-3.997-3.001a1 1 0 0 0 -1.2 0l-3.997 3.001 1.199 1.599 2.398-1.8v11.001zm20.83-1.095-9.992-5-.893 1.789 8.346 4.177-14.894 8.768-14.973-8.815 7.464-4.15-.97-1.748-8.992 5a1 1 0 0 0 -.022 1.735l16.986 10a.99.99 0 0 0 1.014 0l16.986-10a.999.999 0 0 0 -.06-1.756m-34.904-19.248-1.029-1.715 4.996-3c.294-.176.655-.189.961-.037l2.551 1.276v-3.381c0-.364.197-.698.515-.874l8.992-5c.3-.168.67-.168.97 0l8.992 5c.318.176.515.51.515.874v3.381l2.55-1.276a1 1 0 0 1 .962.037l4.996 3-1.03 1.715-4.524-2.717-3.507 1.754a1.002 1.002 0 0 1 -1.445-.894v-4.412l-7.994-4.444-7.994 4.444v4.412a1 1 0 0 1 -1.445.894l-3.507-1.754z" fill="#fff"/></g></svg>