<svg xmlns="http://www.w3.org/2000/svg" fill="currentColor" fill-rule="evenodd" viewBox="0 0 24 24"><path fill="currentColor" d="M17.693 10.613a4.307 4.307 0 1 1 0-8.613 4.307 4.307 0 0 1 0 8.613m4.304 6.928a4.39 4.39 0 0 0-2.724-4.064c-.535-.222-1.104-.3-1.722-.333-.878-.047-1.865-.195-2.684-.444-.84-.254-1.557-.805-2.176-1.423s-1.144-1.343-1.428-2.17c-.285-.83-.382-1.843-.443-2.711-.06-.86-.26-1.72-.746-2.444a4.417 4.417 0 0 0-6.786-.66 4.394 4.394 0 0 0 .677 6.77c.7.464 1.582.682 2.452.737.913.058 1.86.18 2.72.438.839.254 1.555.806 2.175 1.424s1.143 1.343 1.428 2.17c.282.819.416 1.838.439 2.711.017.663.1 1.161.319 1.701a4.42 4.42 0 0 0 5.793 2.416 4.4 4.4 0 0 0 1.438-.969 4.38 4.38 0 0 0 1.27-3.148zM2 17.693a4.307 4.307 0 1 0 8.613 0 4.307 4.307 0 0 0-8.613 0" clip-rule="evenodd"/></svg>