<svg height="18" viewBox="0 0 18 18" width="18" xmlns="http://www.w3.org/2000/svg" xmlns:xlink="http://www.w3.org/1999/xlink"><linearGradient id="a" gradientUnits="userSpaceOnUse" x1="9" x2="9" y1="13.14" y2=".39"><stop offset="0" stop-color="#0078d4"/><stop offset=".82" stop-color="#5ea0ef"/></linearGradient><path d="m18 9.15a4.05 4.05 0 0 0 -3.51-3.89 5.1 5.1 0 0 0 -5.25-4.87 5.23 5.23 0 0 0 -5 3.4 4.84 4.84 0 0 0 -4.24 4.65 4.89 4.89 0 0 0 5.07 4.7 3 3 0 0 0 .44 0h8.21a.8.8 0 0 0 .22 0 4.09 4.09 0 0 0 4.06-3.99" fill="url(#a)"/><path d="m9.47 8.32a4.74 4.74 0 1 0 -4.73 4.82h4.73z" fill="#50e6ff"/><path d="m11.8 15.34-2.25 2.24a.1.1 0 0 1 -.16 0l-2.24-2.24a.12.12 0 0 1 .08-.2h1.32a.11.11 0 0 0 .11-.14v-2.9a.11.11 0 0 1 .12-.1h1.39a.11.11 0 0 1 .11.11v2.89a.11.11 0 0 0 .12.11h1.32a.12.12 0 0 1 .08.23" fill="#0078d4"/><path d="m7.15 9.82 2.32-2.32 2.33 2.32a.11.11 0 0 1 -.08.19h-1.32a.12.12 0 0 0 -.12.12v3h-1.62v-3a.12.12 0 0 0 -.11-.13h-1.32a.11.11 0 0 1 -.08-.18" fill="#fff"/></svg>