<svg xmlns="http://www.w3.org/2000/svg" width="18" height="18" viewBox="0 0 18 18"><defs><mask id="a"><path fill="#fff" d="M0 0h18v18H0z"/><path d="M11.359 6.235a2.31 2.31 0 0 0-2.366 1.55 2.32 2.32 0 0 0-2.381-1.534c-2.138.175-2.244 2.291-2.206 3.1.018.578.137 2.4 4.565 5.56l.038.027.038-.027c4.428-3.187 4.536-5.044 4.55-5.645.027-.787-.097-2.866-2.238-3.031"/><path d="M13.483 8.07a3.45 3.45 0 0 1-.323 1.883 5.38 5.38 0 0 1-3.167 2.412.73.73 0 0 0-.529-.264.742.742 0 1 0 .691.8A7.4 7.4 0 0 0 13 11.075a3.33 3.33 0 0 0 .592-1.8 4.1 4.1 0 0 0-.109-1.205m-6.376 4.402.188.216a.286.286 0 0 0 .4.023l.428-.382a.287.287 0 0 0 .023-.4.28.28 0 0 0-.393-.063l-.027.023-.223.2C6.1 10.543 5.7 9.355 6.346 8.785s1.775-.034 3.167 1.515l-.223.2a.28.28 0 0 0-.025.4.276.276 0 0 0 .388.033l.012-.009.422-.377a.287.287 0 0 0 .023-.4l-.189-.207c-.943-1.062-2.576-2.375-3.7-1.717a1.76 1.76 0 0 1-.477-1.112 1.24 1.24 0 0 1 .2-.726 1.9 1.9 0 0 0-.738.437A1.92 1.92 0 0 0 5.814 8.6c-.763 1.044.35 2.81 1.293 3.872"/><path d="M0 4.298h18v12.57H0z"/></mask></defs><path fill="currentColor" d="M13.378 4.4h-.9V2.035H5.632V4.4h-.9V1.99a.9.9 0 0 1 .927-.858h6.792a.9.9 0 0 1 .927.858z" mask="url(#a)"/></svg>