<svg height="18" viewBox="0 0 18 18" width="18" xmlns="http://www.w3.org/2000/svg" xmlns:xlink="http://www.w3.org/1999/xlink"><linearGradient id="a" gradientTransform="matrix(1 0 0 -1 287 869.516)" gradientUnits="userSpaceOnUse" x1="-278" x2="-278" y1="852.647" y2="865.218"><stop offset="0" stop-color="#0078d4"/><stop offset=".156" stop-color="#1380da"/><stop offset=".528" stop-color="#3c91e5"/><stop offset=".822" stop-color="#559cec"/><stop offset="1" stop-color="#5ea0ef"/></linearGradient><linearGradient id="b" gradientTransform="matrix(1 0 0 -1 -298 403.516)" gradientUnits="userSpaceOnUse" x1="307" x2="307" y1="388.577" y2="397.288"><stop offset="0" stop-color="#ef7100"/><stop offset="1" stop-color="#faa21d"/></linearGradient><path d="m13.378 4.4h-.9v-2.365h-6.846v2.365h-.9v-2.41a.9.9 0 0 1 .927-.858h6.792a.9.9 0 0 1 .927.858z" fill="#a3a3a3"/><rect fill="url(#a)" height="12.57" rx=".6" width="18" y="4.298"/><path d="m11.359 6.235a2.31 2.31 0 0 0 -2.366 1.55 2.32 2.32 0 0 0 -2.381-1.534c-2.138.175-2.244 2.291-2.206 3.1.018.578.137 2.4 4.565 5.56l.038.027.038-.027c4.428-3.187 4.536-5.044 4.55-5.645.027-.787-.097-2.866-2.238-3.031" fill="url(#b)"/><path d="m13.483 8.07a3.45 3.45 0 0 1 -.323 1.883 5.38 5.38 0 0 1 -3.167 2.412.73.73 0 0 0 -.529-.264.742.742 0 1 0 .691.8 7.4 7.4 0 0 0 2.845-1.826 3.33 3.33 0 0 0 .592-1.8 4.1 4.1 0 0 0 -.109-1.205m-6.376 4.402.188.216a.286.286 0 0 0 .4.023l.428-.382a.287.287 0 0 0 .023-.4.28.28 0 0 0 -.393-.063l-.027.023-.223.2c-1.403-1.546-1.803-2.734-1.157-3.304s1.775-.034 3.167 1.515l-.223.2a.28.28 0 0 0 -.025.4.276.276 0 0 0 .388.033l.012-.009.422-.377a.287.287 0 0 0 .023-.4l-.189-.207c-.943-1.062-2.576-2.375-3.7-1.717a1.76 1.76 0 0 1 -.477-1.112 1.24 1.24 0 0 1 .2-.726 1.9 1.9 0 0 0 -.738.437 1.92 1.92 0 0 0 .608 1.778c-.763 1.044.35 2.81 1.293 3.872" fill="#fff" opacity=".9"/></svg>