<svg xmlns="http://www.w3.org/2000/svg" width="18" height="18" viewBox="0 0 18 18">
  <defs>
    <mask id="ko">
      <rect width="18" height="18" fill="white"/>
      <path fill="black" d="M.613.993h1.363v3.782a.306.306 0 0 1-.306.306H.307A.306.306 0 0 1 0 4.775V1.606A.6.6 0 0 1 .592.993z"/>
      <path fill="black" d="M.613.993h1.363v3.782a.306.306 0 0 1-.306.306H.307A.306.306 0 0 1 0 4.775V1.606A.6.6 0 0 1 .592.993z"/>
      <path fill="black" d="M16.025.993h1.362a.6.6 0 0 1 .6.6v3.18a.306.306 0 0 1-.306.306h-1.35a.306.306 0 0 1-.306-.306z"/>
      <path fill="black" d="M16.025.993h1.362a.6.6 0 0 1 .6.6v3.18a.306.306 0 0 1-.306.306h-1.35a.306.306 0 0 1-.306-.306z"/>
      <path fill="black" d="M.307 12.9H1.67a.306.306 0 0 1 .306.306v3.813H.613A.6.6 0 0 1 0 16.426v-3.201a.306.306 0 0 1 .285-.325z"/>
      <path fill="black" d="M.307 12.9H1.67a.306.306 0 0 1 .306.306v3.813H.613A.6.6 0 0 1 0 16.426v-3.201a.306.306 0 0 1 .285-.325z"/>
      <path fill="black" d="M16.331 12.9h1.363a.306.306 0 0 1 .306.3v3.169a.6.6 0 0 1-.6.6h-1.375v-3.75a.306.306 0 0 1 .284-.327z"/>
      <path fill="black" d="M16.331 12.9h1.363a.306.306 0 0 1 .306.3v3.169a.6.6 0 0 1-.6.6h-1.375v-3.75a.306.306 0 0 1 .284-.327z"/>
      <path fill="black" d="M0 16.415V15.1h17.958v1.32a.6.6 0 0 1-.6.6H.6a.6.6 0 0 1-.6-.605"/>
      <path fill="black" d="M13.672 9.409v-.795H8.709V5.263h4.14v-.795h-4.14a.8.8 0 0 0-.795.8v3.346H4.383v.8h3.54v3.328a.8.8 0 0 0 .8.794h4.131v-.795H8.718V9.409z"/>
      <circle fill="black" cx="14.042" cy="8.97" r="1.213"/>
      <circle fill="black" cx="3.907" cy="9.008" r="1.72"/>
      <circle fill="black" cx="12.947" cy="13.171" r="1.213"/>
      <circle fill="black" cx="12.947" cy="4.829" r="1.213"/>
    </mask>
  </defs>
  <g>
    <path fill="currentColor" mask="url(#ko)" d="M17.989 1.585v1.32H.032v-1.32a.6.6 0 0 1 .6-.6h16.755a.6.6 0 0 1 .602.6"/>
  </g>
</svg>