<svg xmlns="http://www.w3.org/2000/svg" width="18" height="18" viewBox="0 0 18 18">
  <defs>
    <mask id="wko">
      <rect width="18" height="18" fill="white"/>
      <path fill="black" d="M17.996 11.229h-1.998a.17.17 0 0 0-.14.08l-.629 1.069a.08.08 0 0 1-.109.031.1.1 0 0 1-.031-.031l-.949-1.718a.16.16 0 0 0-.299 0l-.839 2.598a.08.08 0 0 1-.15 0l-.759-1.748a.16.16 0 0 0-.289 0l-.999 1.818a.16.16 0 0 1-.15.09h-.959q.221.338.48.649h.829a.17.17 0 0 0 .14-.09l.709-1.319.999 2.188a.16.16 0 0 0 .299 0l.999-2.927.849 1.659a.16.16 0 0 0 .279 0l.999-1.619a.17.17 0 0 1 .14-.08h1.579"/>
    </mask>
  </defs>
  <g fill="currentColor" mask="url(#wko)">
    <path fill="currentColor" d="m17.647 9.933-7.5-8.46a1.55 1.55 0 0 0-2.294 0l-7.5 8.46c-.579.654-.428 1.641.323 2.111l7.499 4.688c.5.313 1.148.313 1.648 0l7.499-4.688c.751-.469.902-1.457.323-2.111z"/>
    <path fill="currentColor" d="m4.636 10.165.052.032 4.313 2.696 4.364-2.728h.001-.001L9.001 5.241z"/>
    <path fill="currentColor" d="M10.148 1.473a1.55 1.55 0 0 0-2.294 0l-7.5 8.46c-.579.654-.428 1.641.323 2.111l3.126 1.954c.388.242 1.033.511 1.715.511.621 0 1.197-.18 1.676-.487l.002-.001L9 12.893l-4.364-2.728L9.11 5.118a3.05 3.05 0 0 1 2.302-1.026c.472 0 .917.107 1.314.292l-2.579-2.909v-.002z"/>
    <path fill="currentColor" fill-opacity=".5" d="M9.001 16.967c.287 0 .574-.078.824-.234l7.499-4.688c.751-.469.902-1.457.323-2.111l-7.499-8.461A1.53 1.53 0 0 0 9.001.966z" opacity=".5"/>
    <path fill="currentColor" d="M13.52 17.034c4.376-3.137 4.476-4.926 4.476-5.485 0-.799-.08-2.877-2.168-2.997a2.27 2.27 0 0 0-2.328 1.519 2.26 2.26 0 0 0-2.298-1.559c-2.088.15-2.198 2.238-2.198 3.037 0 .56.13 2.348 4.466 5.455"/>
  </g>
</svg>