<svg xmlns="http://www.w3.org/2000/svg" width="18" height="18" viewBox="0 0 18 18"><defs><mask id="a"><path fill="#fff" d="M0 0h18v18H0z"/><path d="M12.61 16.315c-1.78-.28-1.85-1.56-1.84-3.63H7.2c0 2.07 0 3.35-1.81 3.63a1 1 0 0 0-.88 1h9a1.06 1.06 0 0 0-.9-1"/><path d="M10.938 7.187v1.737a.2.2 0 0 1-.2.2H6.772a.2.2 0 0 1-.2-.2V5.18a.2.2 0 0 1 .2-.2h1.989a.11.11 0 0 0 .108-.109v-.416a.11.11 0 0 0-.108-.109H6.137a.2.2 0 0 0-.2.2V9.56a.2.2 0 0 0 .2.2h5.237a.2.2 0 0 0 .2-.2V7.187a.11.11 0 0 0-.109-.109h-.418a.11.11 0 0 0-.109.108z"/><path d="M0 .685h18v12H0z"/><path d="M7.304 5.7h2.793v2.793H7.304z"/></mask></defs><path fill="currentColor" d="M11.864 3.73H9.225a.11.11 0 0 0-.109.108v.48a.11.11 0 0 0 .109.109h1.941a.22.22 0 0 1 .219.218v1.974a.11.11 0 0 0 .108.108h.481a.11.11 0 0 0 .109-.108v-2.67a.22.22 0 0 0-.219-.219" mask="url(#a)"/></svg>