<svg height="18" viewBox="0 0 18 18" width="18" xmlns="http://www.w3.org/2000/svg" xmlns:xlink="http://www.w3.org/1999/xlink"><linearGradient id="a" gradientTransform="matrix(1 0 0 -1 564 1025.516)" gradientUnits="userSpaceOnUse" x1="-555" x2="-555" y1="1012.831" y2="1024.831"><stop offset="0" stop-color="#0078d4"/><stop offset=".82" stop-color="#5ea0ef"/></linearGradient><linearGradient id="b" gradientTransform="matrix(1 0 0 -1 564 1025.516)" gradientUnits="userSpaceOnUse" x1="-554.99" x2="-554.99" y1="1008.201" y2="1012.831"><stop offset="0" stop-color="#1490df"/><stop offset=".98" stop-color="#1f56a3"/></linearGradient><rect fill="url(#a)" height="12" rx=".6" width="18" y=".685"/><path d="m12.61 16.315c-1.78-.28-1.85-1.56-1.84-3.63h-3.57c0 2.07 0 3.35-1.81 3.63a1 1 0 0 0 -.88 1h9a1.06 1.06 0 0 0 -.9-1" fill="url(#b)"/><rect fill="#9cebff" height="2.793" rx=".11" width="2.793" x="7.304" y="5.7"/><path d="m11.864 3.73h-2.639a.11.11 0 0 0 -.109.108v.48a.11.11 0 0 0 .109.109h1.941a.22.22 0 0 1 .219.218v1.974a.11.11 0 0 0 .108.108h.481a.11.11 0 0 0 .109-.108v-2.67a.22.22 0 0 0 -.219-.219" fill="#773adc"/><path d="m10.938 7.187v1.737a.2.2 0 0 1 -.2.2h-3.966a.2.2 0 0 1 -.2-.2v-3.744a.2.2 0 0 1 .2-.2h1.989a.11.11 0 0 0 .108-.109v-.416a.11.11 0 0 0 -.108-.109h-2.624a.2.2 0 0 0 -.2.2v5.014a.2.2 0 0 0 .2.2h5.237a.2.2 0 0 0 .2-.2v-2.373a.11.11 0 0 0 -.109-.109h-.418a.11.11 0 0 0 -.109.108z" fill="#fff"/></svg>