<svg viewBox="0 0 24 24" xmlns="http://www.w3.org/2000/svg"><path d="m7.7405 2.4142s.7829.635 2.232 1.785c.1015.084.1285.124.1085.158-.03.052-.1689-.01-.1689-.01-1.12-.426-2.385-.668-3.2403-.612-.2848.018-.3753.064-.4156.145-.019.038-.022.14.074.267.3743.495 1.276 1.465 2.7764 2.386 1.5414.946 4.2644 2.287 6.6714 3.359 1.079.4788 1.855 1.1198 1.609 1.8588-.277.823-1.343.936-2.194.595-.693-.277-1.339-1.144-2.389-2.308-1.82-2.0158-2.683-2.8198-5.703-2.2058-1.5135.308-2.9425 1.547-4.0856 2.8548-.7618.961-1.1281 1.761-1.2378 2.726 0 0-.2093-.382 0-1.36.3612-1.71-.4257-2.4438-.4257-2.4438-3.983 5.6488 1.6826 10.7558 6.05 5.8648 0 0-1.429 3.173-1.3092 4.162-.6098.2-.8805.76.031 1.437.9962.739 3.4456.675 5.3773-.155 3.604-1.55 5.852-4.437 6.966-6.271.26-.429.536-.637.726-.706.289-.104 2.278.02 3.209-.513a.97613.97 0 0 0 .511.08c.674-.05 1.087-.858 1.087-.858s-.852-1.625-2.892-2.8368c-1.922-1.142-2.482-.745-4.207-2.12-2.694-2.148-5.955-4.59-9.1574-5.28m1.8164 6.77c1.399-.064 2.491.387 2.671 1.2578.285 1.39-2.684 4.89-2.4888 4.946.018 0 .06-.02.1228-.06.975-1.276 2.821-3.234 3.512-3.159 1.241.136 1.67 1.78 1.67 1.78l-4.136 3.731a8.0505 8 0 0 0 2.723.244c-1.848 1.316-3.8506 1.683-5.0893 1.138 1.9593-1.42 5.5643-4.973 5.5643-4.973s-.6-1.511-1.682-.586c-1.046.895-2.013 2.013-2.395 2.37-.2375.22-.638.637-.8755.457-.2901-.214.5683-2.145 1.2255-3.745.895-2.182-.135-2.8638-1.3415-2.8028-1.0808.054-2.556.7088-3.6137 1.3558-.2999.183-.5031.296-.5796.226-.066-.06 0-.178.2002-.344 1.4048-1.1898 3.1115-1.7698 4.5103-1.8348"/></svg>