<svg height="48" viewBox="0 0 48 48" width="48" xmlns="http://www.w3.org/2000/svg"><path d="m29.035 38.38 1.098 1.023-6.135 6.597-6.133-6.597 1.099-1.023 4.036 4.343v-15.62l-15.039-7.716 2.02 5.57-1.412.512-3.068-8.47 8.669-2.445.409 1.444-5.708 1.609 15.129 7.762 15.126-7.761-5.704-1.608.408-1.445 8.671 2.447-3.07 8.468-1.412-.51 2.022-5.575-15.041 7.718v15.617zm12.465-.38a2.5 2.5 0 0 1 -2.5-2.5c0-1.378 1.121-2.5 2.5-2.5s2.5 1.122 2.5 2.5c0 1.379-1.121 2.5-2.5 2.5m0-7c-.516 0-1.004.105-1.465.266l-4.562-7.296-1.695 1.06 4.552 7.28a4.5 4.5 0 0 0 -1.208 2.185h-10.122v2h10.119a4.5 4.5 0 0 0 4.381 3.505c2.481 0 4.5-2.018 4.5-4.5 0-2.481-2.019-4.5-4.5-4.5m-35 7a2.5 2.5 0 0 1 -2.5-2.5c0-1.378 1.121-2.5 2.5-2.5s2.5 1.122 2.5 2.5c0 1.379-1.121 2.5-2.5 2.5m14.5-1.505v-2h-10.122a4.5 4.5 0 0 0 -1.208-2.185l4.552-7.281-1.696-1.06-4.561 7.296a4.4 4.4 0 0 0 -1.465-.265 4.505 4.505 0 0 0 -4.5 4.5c0 2.482 2.018 4.5 4.5 4.5a4.5 4.5 0 0 0 4.381-3.505zm3-31.495c1.379 0 2.5 1.122 2.5 2.5 0 1.379-1.121 2.5-2.5 2.5a2.5 2.5 0 0 1 -2.5-2.5c0-1.378 1.121-2.5 2.5-2.5m-6.547 14.863 5.083-8.128c.461.16.948.265 1.464.265.515 0 1.003-.105 1.465-.266l5.082 8.129 1.695-1.061-5.072-8.112a4.5 4.5 0 0 0 1.33-3.19c0-2.481-2.019-4.5-4.5-4.5a4.505 4.505 0 0 0 -4.5 4.5c0 1.246.51 2.374 1.331 3.19l-5.073 8.112z" fill="#8c4fff" fill-rule="evenodd"/></svg>