<svg height="24" width="24" xmlns="http://www.w3.org/2000/svg" xmlns:xlink="http://www.w3.org/1999/xlink"><mask id="a" height="16.67" maskUnits="userSpaceOnUse" width="5.33" x="9.33" y="5.33"><path d="m12 22-.83-.77v-14.56h1.66v14.56z" fill="#fff" fill-rule="evenodd"/></mask><path d="m12 22-.83-.77v-14.56h1.66v14.56z" fill="#aecbfa" fill-rule="evenodd"/><g fill="#4285f4"><path d="m12 8a2.67 2.67 0 0 0 2.67-2.67h-5.34a2.67 2.67 0 0 0 2.67 2.67" mask="url(#a)"/><path d="m12.83 18.87h-1.66v-1.54h1.66z"/><path d="m12.83 10.87h-1.66v-1.54h1.66z"/></g><circle cx="12" cy="4.67" fill="#aecbfa" r="2.67"/><path d="m16.67 10.17h-9.84a1.17 1.17 0 0 0 0 2.33h3.17v1.67h-3.17a2.84 2.84 0 0 1 0-5.67h9.84v-1.17l3.33 2-3.33 2zm-4.67-2.84a2.67 2.67 0 0 0 2.67-2.66h-5.34a2.67 2.67 0 0 0 2.67 2.66" fill="#669df6"/><path d="m13.36 16.5h.64a1.17 1.17 0 0 0 0-2.33h-1.17v-1.67h1.17a2.84 2.84 0 0 1 0 5.67h-4v1.16l-3.33-2 3.33-2v1.17z" fill="#669df6"/></svg>