<svg xmlns="http://www.w3.org/2000/svg" width="24" height="24"><path fill="currentColor" d="M2 15.56 5 18V6L2 8.43z"/><path fill="currentColor" d="m2 10 3-2V6zm3 8v-2l-3-2z"/><path fill="currentColor" d="m8 20-6-6v4l4 4zM5.99 2.01 2 6l.01 4 5.98-5.99z"/><path fill="currentColor" d="m22 8.45-3-2.44v12l3-2.42z"/><path fill="currentColor" d="m22 14.01-3 2v2zm-3-8v2l3 2z"/><g fill="currentColor"><path fill="currentColor" d="m16 4.01 6 6v-4l-4-4zM18.01 22 22 18.01l-.01-4L16.01 20z"/><circle fill="currentColor" cx="8" cy="12" r="1"/><circle fill="currentColor" cx="12" cy="12" r="1"/><circle fill="currentColor" cx="15.99" cy="12" r="1"/></g></svg>