<svg height="24" width="24" xmlns="http://www.w3.org/2000/svg"><path d="m2 15.56 3 2.44v-12l-3 2.43z" fill="#669df6"/><path d="m2 10 3-2v-2zm3 8v-2l-3-2z" fill="#4285f4"/><path d="m8 20-6-6v4l4 4z" fill="#aecbfa"/><path d="m5.99 2.01-3.99 3.99.01 4 5.98-5.99z" fill="#aecbfa"/><path d="m22 8.45-3-2.44v12l3-2.42z" fill="#669df6"/><path d="m22 14.01-3 2v2zm-3-8v2l3 2z" fill="#4285f4"/><g fill="#aecbfa"><path d="m16 4.01 6 6v-4l-4-4z"/><path d="m18.01 22 3.99-3.99-.01-4-5.98 5.99z"/><circle cx="8" cy="12" r="1"/><circle cx="12" cy="12" r="1"/><circle cx="15.99" cy="12" r="1"/></g></svg>