<svg xmlns="http://www.w3.org/2000/svg" width="18" height="18" viewBox="0 0 18 18"><path fill="currentColor" d="M13.25 10.48V6.57a.14.14 0 0 0-.24-.1l-4 4-4.16 4.16v2.87h12.08a.56.56 0 0 0 .57-.57V6.57a.14.14 0 0 0-.24-.1z"/><path fill="currentColor" d="M4.75 3.58C2.4 3.58.5 2.89.5 2v14.93a.56.56 0 0 0 .57.57H9V2c0 .89-1.9 1.58-4.25 1.58"/><g fill="currentColor"><rect width="2.27" height="2.27" x="12.91" y="12.97" rx=".28"/><rect width="2.27" height="2.27" x="8.97" y="12.97" rx=".28"/><rect width="2.27" height="2.27" x="5.03" y="12.97" rx=".28"/></g><path fill="currentColor" d="M9 2c0 .85-1.9 1.54-4.25 1.54S.5 2.89.5 2 2.4.5 4.75.5 9 1.19 9 2"/><path fill="currentColor" d="M4.75 2.14a8 8 0 0 0-2.58.37 7.6 7.6 0 0 0 2.58.38 7.6 7.6 0 0 0 2.58-.38 8 8 0 0 0-2.58-.37"/></svg>