<svg height="18" viewBox="0 0 18 18" width="18" xmlns="http://www.w3.org/2000/svg" xmlns:xlink="http://www.w3.org/1999/xlink"><linearGradient id="a" gradientUnits="userSpaceOnUse" x1=".5" x2="9" y1="9.77" y2="9.77"><stop offset="0" stop-color="#005ba1"/><stop offset=".07" stop-color="#0060a9"/><stop offset=".36" stop-color="#0071c8"/><stop offset=".52" stop-color="#0078d4"/><stop offset=".64" stop-color="#0074cd"/><stop offset=".81" stop-color="#006abb"/><stop offset=".99" stop-color="#005ba1"/></linearGradient><path d="m13.25 10.48v-3.91a.14.14 0 0 0 -.24-.1l-4 4-4.16 4.16v2.87h12.08a.56.56 0 0 0 .57-.57v-10.36a.14.14 0 0 0 -.24-.1z" fill="#005ba1"/><path d="m4.75 3.58c-2.35 0-4.25-.69-4.25-1.58v14.93a.56.56 0 0 0 .57.57h7.93v-15.5c0 .89-1.9 1.58-4.25 1.58" fill="url(#a)"/><g fill="#fff"><rect height="2.27" rx=".28" width="2.27" x="12.91" y="12.97"/><rect height="2.27" rx=".28" width="2.27" x="8.97" y="12.97"/><rect height="2.27" rx=".28" width="2.27" x="5.03" y="12.97"/></g><path d="m9 2c0 .85-1.9 1.54-4.25 1.54s-4.25-.65-4.25-1.54 1.9-1.5 4.25-1.5 4.25.69 4.25 1.5" fill="#eaeaea"/><path d="m8 1.91c0 .55-1.46 1-3.26 1s-3.26-.43-3.26-1 1.52-.97 3.27-.97 3.25.43 3.25.97" fill="#50e6ff"/><path d="m4.75 2.14a8 8 0 0 0 -2.58.37 7.6 7.6 0 0 0 2.58.38 7.6 7.6 0 0 0 2.58-.38 8 8 0 0 0 -2.58-.37" fill="#198ab3"/></svg>