<svg xmlns="http://www.w3.org/2000/svg" width="18" height="18" viewBox="0 0 18 18"><defs><mask id="a"><path fill="#fff" d="M0 0h18v18H0z"/><path d="M18 8.412a.6.6 0 0 0-.08-.303L13.722.836a.61.61 0 0 0-.525-.303H4.803a.61.61 0 0 0-.525.306L.08 8.103a.61.61 0 0 0 0 .606l4.197 7.27a.61.61 0 0 0 .525.306h8.395a.61.61 0 0 0 .525-.306l4.197-7.264a.6.6 0 0 0 .08-.303"/><path d="M15.367 13.821 9.609 8.063v-.061h-.061l-.111-.11-.11.11h-.585l-.159-.157-5.896 5.979.839.827 4.905-4.974v6.368h1.178V9.729l4.925 4.925z"/><circle cx="9.02" cy="16.045" r="1.421"/><circle cx="9.02" cy="8.288" r="1.421"/><circle cx="3.106" cy="14.238" r="1.421"/><circle cx="14.951" cy="14.238" r="1.421"/></mask></defs><path fill="currentColor" d="M6.581 8.279a2.449 2.449 0 1 0 3.106-2.343v-1.75a1.5 1.5 0 1 0-1.378 0V5.98a2.43 2.43 0 0 0-1.728 2.299" mask="url(#a)"/></svg>