<svg height="18" viewBox="0 0 18 18" width="18" xmlns="http://www.w3.org/2000/svg" xmlns:xlink="http://www.w3.org/1999/xlink"><linearGradient id="a" gradientUnits="userSpaceOnUse" x1="9" x2="9" y1="16.285" y2=".534"><stop offset="0" stop-color="#005ba1"/><stop offset="1" stop-color="#0078d4"/></linearGradient><linearGradient id="b"><stop offset="0" stop-color="#5ea0ef"/><stop offset="1" stop-color="#83b9f9"/></linearGradient><linearGradient id="c" gradientTransform="matrix(-.70710678 -.70710678 .70710678 -.70710678 -575.744354 600.46888)" gradientUnits="userSpaceOnUse" x1="-1.246" x2=".764" xlink:href="#b" y1="825.736" y2="827.746"/><linearGradient id="d" gradientTransform="matrix(-1 0 0 -1 -95.412 585.404)" gradientUnits="userSpaceOnUse" x1="-104.431" x2="-104.431" xlink:href="#b" y1="575.695" y2="578.537"/><linearGradient id="e" gradientTransform="matrix(0 -1 1 0 -811.84 173.116)" gradientUnits="userSpaceOnUse" x1="157.457" x2="160.3" xlink:href="#b" y1="814.945" y2="814.945"/><linearGradient id="f" gradientTransform="matrix(0 -1 -1 0 455.975 173.116)" gradientUnits="userSpaceOnUse" x1="157.457" x2="160.3" xlink:href="#b" y1="441.025" y2="441.025"/><radialGradient id="g" cx="9.009" cy="8.4" gradientUnits="userSpaceOnUse" r="8.123"><stop offset="0" stop-color="#808080"/><stop offset=".191" stop-color="#a1a1a1"/><stop offset=".402" stop-color="#c0c0c0"/><stop offset=".521" stop-color="#ccc"/><stop offset=".631" stop-color="#c9c9c9"/><stop offset=".713" stop-color="#bfbfbf"/><stop offset=".785" stop-color="#afafaf"/><stop offset=".852" stop-color="#999"/><stop offset=".908" stop-color="#808080"/></radialGradient><path d="m18 8.412a.6.6 0 0 0 -.08-.303l-4.198-7.273a.61.61 0 0 0 -.525-.303h-8.394a.61.61 0 0 0 -.525.306l-4.198 7.264a.61.61 0 0 0 0 .606l4.197 7.27a.61.61 0 0 0 .525.306h8.395a.61.61 0 0 0 .525-.306l4.197-7.264a.6.6 0 0 0 .08-.303" fill="url(#a)"/><path d="m15.367 13.821-5.758-5.758v-.061h-.061l-.111-.11-.11.11h-.585l-.159-.157-5.896 5.979.839.827 4.905-4.974v6.368h1.178v-6.316l4.925 4.925z" fill="url(#g)"/><circle cx="9.02" cy="16.045" fill="url(#c)" r="1.421"/><path d="m6.581 8.279a2.449 2.449 0 1 0 3.106-2.343v-1.75a1.5 1.5 0 1 0 -1.378 0v1.794a2.43 2.43 0 0 0 -1.728 2.299" fill="#fff"/><circle cx="9.02" cy="8.288" fill="url(#d)" r="1.421"/><circle cx="3.106" cy="14.238" fill="url(#e)" r="1.421"/><circle cx="14.951" cy="14.238" fill="url(#f)" r="1.421"/></svg>