<svg xmlns="http://www.w3.org/2000/svg" id="uuid-24d92c73-6a3d-4c1c-b1da-a9beb58bb18c" width="18" height="18" viewBox="0 0 18 18"><defs><linearGradient id="uuid-54f13b64-68e0-4ea4-bf47-4d51a4793923" x1="9" x2="9" y1="16.285" y2=".534" gradientUnits="userSpaceOnUse"><stop offset="0" stop-color="#005ba1"/><stop offset="1" stop-color="#0078d4"/></linearGradient><linearGradient id="uuid-e953bdec-f87c-46e6-884f-7f1d5e0e1574" x1="-1.246" x2=".764" y1="825.736" y2="827.746" gradientTransform="rotate(225 -163.511 419.475)" gradientUnits="userSpaceOnUse"><stop offset="0" stop-color="#5ea0ef"/><stop offset="1" stop-color="#83b9f9"/></linearGradient><linearGradient id="uuid-bbd024e1-143c-414b-8005-ff7b49979daf" x1="-104.431" x2="-104.431" y1="575.695" y2="578.537" gradientTransform="matrix(-1 0 0 -1 -95.412 585.404)" gradientUnits="userSpaceOnUse"><stop offset="0" stop-color="#5ea0ef"/><stop offset="1" stop-color="#83b9f9"/></linearGradient><linearGradient id="uuid-00b94b3b-f85a-4309-9d86-8d9bb8d020d5" x1="157.457" x2="160.3" y1="814.945" y2="814.945" gradientTransform="rotate(-90 -319.362 492.478)" gradientUnits="userSpaceOnUse"><stop offset="0" stop-color="#5ea0ef"/><stop offset="1" stop-color="#83b9f9"/></linearGradient><linearGradient id="uuid-9437fa93-ec8b-4e25-b38a-e7990decc41e" x1="157.457" x2="160.3" y1="441.025" y2="441.025" gradientTransform="matrix(0 -1 -1 0 455.975 173.116)" gradientUnits="userSpaceOnUse"><stop offset="0" stop-color="#5ea0ef"/><stop offset="1" stop-color="#83b9f9"/></linearGradient><radialGradient id="uuid-703e6057-0126-49db-bdae-ae63f79950c4" cx="9.009" cy="8.4" r="8.123" gradientUnits="userSpaceOnUse"><stop offset="0" stop-color="gray"/><stop offset=".191" stop-color="#a1a1a1"/><stop offset=".402" stop-color="silver"/><stop offset=".521" stop-color="#ccc"/><stop offset=".631" stop-color="#c9c9c9"/><stop offset=".713" stop-color="#bfbfbf"/><stop offset=".785" stop-color="#afafaf"/><stop offset=".852" stop-color="#999"/><stop offset=".908" stop-color="gray"/></radialGradient></defs><path fill="url(#uuid-54f13b64-68e0-4ea4-bf47-4d51a4793923)" d="M18 8.412a.6.6 0 0 0-.08-.303L13.722.836a.61.61 0 0 0-.525-.303H4.803a.61.61 0 0 0-.525.306L.08 8.103a.61.61 0 0 0 0 .606l4.197 7.27a.61.61 0 0 0 .525.306h8.395a.61.61 0 0 0 .525-.306l4.197-7.264a.6.6 0 0 0 .08-.303"/><path fill="url(#uuid-703e6057-0126-49db-bdae-ae63f79950c4)" d="M15.367 13.821 9.609 8.063v-.061h-.061l-.111-.11-.11.11h-.585l-.159-.157-5.896 5.979.839.827 4.905-4.974v6.368h1.178V9.729l4.925 4.925z"/><circle id="uuid-ece1a08e-bbe9-4a7a-9146-1fc8c65913f8" cx="9.02" cy="16.045" r="1.421" fill="url(#uuid-e953bdec-f87c-46e6-884f-7f1d5e0e1574)"/><path fill="#fff" d="M6.581 8.279a2.449 2.449 0 1 0 3.106-2.343v-1.75a1.5 1.5 0 1 0-1.378 0V5.98a2.43 2.43 0 0 0-1.728 2.299"/><circle id="uuid-8e562190-eca9-4949-bb17-df9e268bb00b" cx="9.02" cy="8.288" r="1.421" fill="url(#uuid-bbd024e1-143c-414b-8005-ff7b49979daf)"/><circle id="uuid-fde97792-49bb-484d-abc1-e7c1b7c4a266" cx="3.106" cy="14.238" r="1.421" fill="url(#uuid-00b94b3b-f85a-4309-9d86-8d9bb8d020d5)"/><circle id="uuid-e202974c-be82-433a-a8e4-940953f82785" cx="14.951" cy="14.238" r="1.421" fill="url(#uuid-9437fa93-ec8b-4e25-b38a-e7990decc41e)"/></svg>