<svg viewBox="0 0 24 24" xmlns="http://www.w3.org/2000/svg"><path d="m12 .002c-6.628 0-12 5.371-12 12 0 6.628 5.372 11.996 12 11.996s12-5.371 12-12c0-6.628-5.376-11.996-12-11.996zm0 1.719c5.679 0 10.281 4.602 10.281 10.281s-4.601 10.281-10.281 10.281-10.281-4.602-10.281-10.281 4.601-10.281 10.281-10.281zm-2.898 4.222c-.123 0-.227.1-.227.227v1.139c0 .122.1.226.227.226h1.56a.225.225 0 0 0 .227-.226v-1.14c0-.121-.1-.226-.227-.226zm3.685 0c-.122 0-.226.1-.226.227v1.139c0 .122.1.226.226.226h1.559a.228.228 0 0 0 .226-.226v-1.14c0-.121-.1-.226-.226-.226zm3.219 1.407v1.19h-8.654c-1.895.026-1.975 2.042-1.975 2.042v1.461h2.053l.008-1.447h1.398v7.574c-.005.457.451.285.451.285l1.461-.516c.23-.099.186-.308.186-.308v-7.022h1.591v7.641c.014.357.366.213.366.213l1.591-.565c.14-.076.118-.195.118-.195l-.022-7.062 1.527-.04c1.909-.027 1.963-2.103 1.963-2.103v-1.148z"/></svg>