<svg height="18" viewBox="0 0 18 18" width="18" xmlns="http://www.w3.org/2000/svg" xmlns:xlink="http://www.w3.org/1999/xlink"><linearGradient id="a" gradientUnits="userSpaceOnUse" x1="9" x2="9" y1="11.06" y2="7.53"><stop offset="0" stop-color="#e26708"/><stop offset="1" stop-color="#f78d1e"/></linearGradient><linearGradient id="b" gradientUnits="userSpaceOnUse" x1="9" x2="9" y1="17.7" y2=".3"><stop offset="0" stop-color="#e26708"/><stop offset=".005" stop-color="#e26808"/><stop offset=".117" stop-color="#ec7912"/><stop offset=".257" stop-color="#f28419"/><stop offset=".454" stop-color="#f68b1d"/><stop offset="1" stop-color="#f78d1e"/></linearGradient><path d="m9 9.7-2.5 2.5c0-.2-.2-.4-.3-.6s-.2-.2-.3-.2l2.4-2.4-2.6-2.6a1.21 1.21 0 0 0 .7-.7l2.6 2.6 2.6-2.6c.1.2.1.3.3.4a1.4 1.4 0 0 1 .4.3l-2.6 2.6 2.5 2.5a.87.87 0 0 0 -.6.8z" fill="#e27908"/><path d="m5.5 13.6 2.2 2.2v-.1a1.6 1.6 0 0 1 .5-1.1l-1.8-1.8a1.06 1.06 0 0 1 -.9.8m-3.3-3.4 2.1 2.2a1 1 0 0 1 .7-.9l-1.7-1.8a1.6 1.6 0 0 1 -1.1.5m2.1-4.6-1.8 1.8a1.45 1.45 0 0 1 1 .7l1.7-1.7-.6-.3c-.1-.2-.2-.3-.3-.5m3.4-3.4-2.1 2.1a1.09 1.09 0 0 1 .8.8l1.8-1.8a1.43 1.43 0 0 1 -.5-1.1m4.8 2.1-2-2a1.33 1.33 0 0 1 -.6 1l1.8 1.8a1.09 1.09 0 0 1 .8-.8m3.2 3.2-1.9-1.9a1.09 1.09 0 0 1 -.8.8l1.8 1.8a1.11 1.11 0 0 1 .9-.7m-.9 2.3-1.7 1.7c.2.1.3.1.4.3a.9.9 0 0 1 .3.7l2.1-2.1a2 2 0 0 1 -1.1-.6m-3.1 3.1-1.7 1.7.1.1a1.28 1.28 0 0 1 .4 1l2.1-2.1a.9.9 0 0 1 -.7-.3.76.76 0 0 1 -.2-.4" fill="#e27908"/><g fill="#f78d1e"><circle cx="5.4" cy="5.4" r="1.5"/><circle cx="12.6" cy="5.4" r="1.5"/><circle cx="5.4" cy="12.6" r="1.5"/><circle cx="12.6" cy="12.6" r="1.5"/></g><path d="m2.2 7.1a1.9 1.9 0 1 1 -1.9 1.9 1.9 1.9 0 0 1 1.9-1.9m13.6 0a1.9 1.9 0 1 1 -1.9 1.9 1.9 1.9 0 0 1 1.9-1.9" fill="url(#a)"/><path d="m9 .3a1.9 1.9 0 1 1 -1.9 1.9 1.9 1.9 0 0 1 1.9-1.9m0 13.6a1.9 1.9 0 1 1 -1.9 1.9 1.9 1.9 0 0 1 1.9-1.9" fill="url(#b)"/></svg>