<svg xmlns="http://www.w3.org/2000/svg" width="74" height="74" viewBox="0 0 74 74"><title>Icon-Architecture-Category/48/Storage_48</title><g id="Icon-Architecture-Category/48/Storage_48" fill="none" fill-rule="evenodd" stroke="none" stroke-width="1"><path id="Rectangle" fill="#7aa116" d="M5 5h64v64H5z"/><path id="#879196-Border-Copy-24" stroke="#879196" stroke-width="2" d="M1 1h72v72H1z"/><g id="Icon-Category/48/Storage_48" fill="#fff" transform="translate(17 15)"><path id="Storage_Category-Icon_48_Squid" d="M14 30h12l.001 3H14zm0 5h12c1.103 0 2-.897 2-2v-3c0-1.103-.897-2-2-2H14c-1.103 0-2 .897-2 2v3c0 1.103.897 2 2 2m-2-16h16v-2H12zm0-10h6V7h-6zm0 5h7v-2h-7zm26 26.746c0 .692-.563 1.254-1.254 1.254H3.254A1.255 1.255 0 0 1 2 40.746V25h36zM9 2h14v7a1 1 0 0 0 1 1h7v13H9zm16 1.414L29.586 8H25zM39 23h-6V9h-.009a1 1 0 0 0-.284-.707l-8-8A1 1 0 0 0 24 .009V0H8a1 1 0 0 0-1 1v22H1a1 1 0 0 0-1 1v16.746A3.257 3.257 0 0 0 3.254 44h33.492A3.257 3.257 0 0 0 40 40.746V24a1 1 0 0 0-1-1"/></g></g></svg>