<svg height="18" viewBox="0 0 18 18" width="18" xmlns="http://www.w3.org/2000/svg" xmlns:xlink="http://www.w3.org/1999/xlink"><linearGradient id="a" gradientUnits="userSpaceOnUse" x1="7.863" x2="7.863" y2="12.81"><stop offset="0" stop-color="#b77af4"/><stop offset=".621" stop-color="#8c4fe4"/><stop offset=".997" stop-color="#773adc"/></linearGradient><circle cx="7.83" cy="12.908" fill="#32bedd" r="2.228"/><path d="m7.83 16.491a3.584 3.584 0 1 1 3.583-3.583 3.587 3.587 0 0 1 -3.583 3.583m0-6.558a2.975 2.975 0 1 0 2.97 2.975 2.98 2.98 0 0 0 -2.97-2.975" fill="#50e6ff"/><path d="m7.83 18a5.093 5.093 0 1 1 5.092-5.092 5.1 5.1 0 0 1 -5.092 5.092m0-9.576a4.484 4.484 0 1 0 4.483 4.484 4.49 4.49 0 0 0 -4.483-4.484" fill="#9cebff"/><path d="m7.863 0a3.894 3.894 0 0 0 -3.771 4.063c0 1.772 2.249 5.922 3.274 8.413a.535.535 0 0 0 .992 0c1.023-2.507 3.277-6.7 3.277-8.412a3.94 3.94 0 0 0 -3.772-4.064m0 5.5a1.677 1.677 0 1 1 1.677-1.674 1.676 1.676 0 0 1 -1.677 1.674" fill="url(#a)"/></svg>