<svg viewBox="0 0 128 128" xmlns="http://www.w3.org/2000/svg" xmlns:xlink="http://www.w3.org/1999/xlink"><linearGradient id="a"><stop offset="0" stop-color="#3871c1"/><stop offset=".515" stop-color="#2c3792"/><stop offset=".865" stop-color="#24265d"/><stop offset="1" stop-color="#252761"/></linearGradient><linearGradient id="b" gradientTransform="matrix(-3070 -1630 -1630 3070 3221.19 2903.28)" gradientUnits="userSpaceOnUse" x2="1" xlink:href="#a"/><linearGradient id="c" gradientTransform="matrix(-1791.57910205 -467.3726698 -467.3726698 1791.57910205 1735.79179 2037.430722)" gradientUnits="userSpaceOnUse" x2="1" xlink:href="#a"/><clipPath id="d"><path d="m180.895 285.039s1139.805-565.621 2011.855 106.641c-227.41 610.38-626.72 2371.23-862.53 3148.89-50.27 165.81-58.48 182.34-79.05 227.87-115.09 254.71-236.16-494.3-433.061-1248.28-70.507-270.25-637.214-2235.121-637.214-2235.121z"/></clipPath><clipPath id="e"><path d="m410.777 410.078s975.133-572.168 1781.973-18.398c-21.6 96.371-76.64 251.09-114.02 395.218-198.64 765.722-558.14 2058.592-733.32 2700.432-189.87 694.95-251.29-117.65-472.781-982.33-67.293-262.93-461.852-2094.922-461.852-2094.922z"/></clipPath><g clip-path="url(#d)" transform="matrix(.03194 0 0 -.03194 26.222 125.997)"><path d="m180.895 285.039s1139.805-565.621 2011.855 106.641c-227.41 610.38-626.72 2371.23-862.53 3148.89-50.27 165.81-58.48 182.34-79.05 227.87-115.09 254.71-236.16-494.3-433.061-1248.28-70.507-270.25-637.214-2235.121-637.214-2235.121" fill="url(#b)"/></g><g clip-path="url(#e)" transform="matrix(.03194 0 0 -.03194 26.222 125.997)"><path d="m410.777 410.078s975.133-572.168 1781.973-18.398c-21.6 96.371-76.64 251.09-114.02 395.218-198.64 765.722-558.14 2058.592-733.32 2700.432-189.87 694.95-251.29-117.65-472.781-982.33-67.293-262.93-461.852-2094.922-461.852-2094.922" fill="url(#c)"/></g><path d="m47.785 97.062 3.237-5.586 3.025 5.884-3.461 7.59zm26.436-21.14 3.238-5.586 3.025 5.885-3.463 7.589zm-18.1-22.307 3.238-5.585 3.024 5.885-3.462 7.587z" fill="#f9a72b"/><path d="m47.785 97.062 3.242-6.541 3.02 6.84-3.456 5.595zm26.436-21.14 3.244-6.541 3.019 6.84-3.456 5.595-2.806-5.894m-18.1-22.307 3.242-6.54 3.019 6.84-3.457 5.594z" fill="#fff200"/><path d="m51.012 112.36s23.19 3.868 38.455-5.904c-1.914 5.904-19.03 12.631-38.455 5.904" fill="#24265d"/></svg>