<svg xmlns="http://www.w3.org/2000/svg" viewBox="0 0 24 24"><defs><mask id="a"><path fill="#fff" d="M0 0h24v24H0z"/><path d="M11.24 8.393q.142-.966.624-2.48L12 5.496l.136.417q.483 1.514.624 2.48.106.708 0 1.8-.108 1.097 0 1.814.159 1.05.96 1.744a2.8 2.8 0 0 0 1.89.708 2.78 2.78 0 0 0 2.034-.84q.84-.839.848-2.024.005-1.05.216-2.316.104-.633.21-1.06l.095-.384.168.356a7.9 7.9 0 0 1 .76 3.244v.16a7.8 7.8 0 0 1-.624 3.089 7.95 7.95 0 0 1-4.228 4.228 7.8 7.8 0 0 1-3.089.623 7.8 7.8 0 0 1-3.089-.623 7.95 7.95 0 0 1-4.228-4.228 7.8 7.8 0 0 1-.623-3.09v-.159a7.9 7.9 0 0 1 .759-3.244l.169-.356.093.385q.108.426.211 1.059.212 1.266.216 2.316.01 1.185.848 2.024a2.78 2.78 0 0 0 2.035.84q1.073 0 1.889-.708a2.8 2.8 0 0 0 .96-1.744q.11-.717 0-1.814-.106-1.092 0-1.8m.76 9.694q1.645 0 3.085-.778a6.4 6.4 0 0 0 1.77-1.399c.063-.07-.01-.178-.101-.153q-.554.15-1.144.15a4.24 4.24 0 0 1-2.18-.59 4.25 4.25 0 0 1-1.35-1.233.1.1 0 0 0-.16 0 4.25 4.25 0 0 1-1.35 1.232 4.24 4.24 0 0 1-2.18.591 4.4 4.4 0 0 1-1.143-.15c-.091-.025-.165.083-.102.153a6.4 6.4 0 0 0 1.77 1.399q1.44.777 3.085.778"/></mask></defs><path fill="currentColor" d="M12 24c6.627 0 12-5.373 12-12S18.627 0 12 0 0 5.373 0 12s5.373 12 12 12" mask="url(#a)"/></svg>