<svg viewBox="0 0 24 24" xmlns="http://www.w3.org/2000/svg"><path d="m11.154.397v.711l.292 4.637-3.87-2.571-.615-.356-.846 1.466.615.355 4.162 2.065-4.162 2.066-.615.355.846 1.466.615-.356 3.87-2.571-.292 4.637v.711h1.692v-.711l-.292-4.637 3.87 2.571.615.356.846-1.466-.615-.355-4.162-2.066 4.162-2.065.615-.355-.846-1.466-.615.356-3.87 2.571.292-4.637v-.711zm-6.114 10.591v.711l.292 4.637-3.871-2.571-.615-.356-.846 1.466.616.355 4.161 2.065-4.161 2.066-.616.355.846 1.466.615-.356 3.871-2.571-.292 4.637v.711h1.692v-.711l-.292-4.637 3.869 2.571.616.356.846-1.466-.616-.355-4.161-2.065 4.161-2.066.616-.355-.846-1.466-.616.356-3.869 2.571.292-4.637v-.711zm12.228 0v.711l.292 4.637-3.869-2.571-.616-.356-.846 1.466.616.355 4.161 2.065-4.161 2.066-.616.355.846 1.466.616-.356 3.869-2.571-.292 4.637v.711h1.692v-.711l-.292-4.637 3.87 2.571.616.356.846-1.466-.616-.355-4.161-2.065 4.161-2.066.616-.355-.846-1.466-.616.356-3.87 2.571.292-4.637v-.711z"/></svg>