<svg xmlns="http://www.w3.org/2000/svg" xmlns:xlink="http://www.w3.org/1999/xlink" viewBox="0 0 128 128">
  <defs>
    <mask id="wko">
      <rect width="128" height="128" fill="white"/>
      <path fill="black" d="m4.981 65.131 6.987 19.821 30.365-6.812L77 45.922l9.783-31.075L71.38 3.969l-26.19 9.802c-8.252 7.675-24.263 22.86-24.84 23.146-.573.291-10.575 19.195-15.369 28.214"/>
    </mask>
  </defs>
  <g fill="currentColor" mask="url(#wko)">
    <path fill="currentColor" d="M97.078 83.214 28.34 124.031l89.003-6.04 6.855-89.745z"/>
    <path fill="currentColor" d="m117.488 117.93-7.649-52.799-20.837 27.514z"/>
    <path fill="currentColor" d="m117.592 117.93-56.044-4.399-32.91 10.385z"/>
    <path fill="currentColor" d="m28.717 123.928 14.001-45.867-30.81 6.588z"/>
    <path fill="currentColor" d="m88.996 92.797-12.882-50.46-36.866 34.558z"/>
    <path fill="currentColor" d="M121.275 43.047 86.426 14.585l-9.704 31.373z"/>
    <path fill="currentColor" d="M104.978 4.437 84.481 15.764 71.551 4.285z"/>
    <path fill="currentColor" d="m3.802 100.034 8.586-15.659L5.442 65.72z"/>
  </g>
  <path fill="currentColor" d="M29.519 29.521c17.882-17.73 40.937-28.207 49.785-19.28 8.843 8.926-.534 30.62-18.418 48.345S20.233 87.365 11.393 78.438c-8.849-8.92.242-31.191 18.126-48.917"/>
  <path fill="currentColor" d="m28.717 123.909 13.89-46.012 46.135 14.82c-16.68 15.642-35.233 28.865-60.025 31.192"/>
  <path fill="currentColor" d="m77.062 45.831 11.844 46.911c13.934-14.65 26.439-30.401 32.563-49.883z"/>
  <path fill="currentColor" d="M121.348 43.097c4.74-14.305 5.833-34.825-16.517-38.635l-18.339 10.13z"/>
  <path fill="currentColor" d="M3.802 99.828c.656 23.608 17.689 23.959 24.945 24.167l-16.759-39.14z"/>
  <path fill="currentColor" d="M77.128 45.904c10.708 6.581 32.286 19.798 32.723 20.041.68.383 9.304-14.542 11.261-22.976z"/>
  <path fill="currentColor" d="m42.589 77.897 18.57 35.828c10.98-5.955 19.579-13.211 27.454-20.983z"/>
  <path fill="currentColor" d="m11.914 84.904-2.631 31.331c4.964 6.781 11.794 7.371 18.96 6.842-5.184-12.9-15.538-38.696-16.329-38.173"/>
  <path fill="currentColor" d="m86.384 14.67 36.891 5.177c-1.969-8.343-8.015-13.727-18.32-15.41z"/>
</svg>