<svg viewBox="0 0 24 24" xmlns="http://www.w3.org/2000/svg"><path d="m4.21 0a4.201 4.201 0 0 0 -4.21 4.21v15.58a4.201 4.201 0 0 0 4.21 4.21h15.58a4.201 4.201 0 0 0 4.21-4.21v-1.093c-.137.013-.278.02-.422.02-2.577 0-4.027-2.146-4.09-4.832a7.592 7.592 0 0 1 .022-.708c.093-1.186.475-2.241 1.105-3.022a3.885 3.885 0 0 1 1.395-1.1c.468-.237 1.127-.367 1.664-.367h.023c.101 0 .202.004.303.01v-4.487a4.201 4.201 0 0 0 -4.21-4.211zm.198 5.583h4.165l3.588 8.435 3.59-8.435h3.864v.146l-.019.004c-.705.16-1.063.397-1.063 1.254h-.003l.003 10.274c.06.676.424.885 1.063 1.03l.02.004v.145h-4.923v-.145l.019-.005c.639-.144.994-.353 1.054-1.03v-9.993l-4.745 11.15h-.261l-4.61-10.848v9.445c0 .857.358 1.094 1.063 1.253l.02.004v.147h-2.828v-.147l.019-.004c.705-.16 1.065-.397 1.065-1.253v-10.027c0-.857-.358-1.094-1.064-1.254l-.018-.004zm19.25 3.668c-1.086.023-1.733 1.323-1.813 3.124h2.155v-3.077a1.378 1.378 0 0 0 -.342-.047zm-1.862 3.632c-.1 1.756.86 3.239 2.204 3.634v-3.634z"/></svg>