<svg height="18" viewBox="0 0 18 18" width="18" xmlns="http://www.w3.org/2000/svg" xmlns:xlink="http://www.w3.org/1999/xlink"><linearGradient id="a" gradientUnits="userSpaceOnUse" x1="9.033" x2="9.033" y1="10.305" y2="7.695"><stop offset="0" stop-color="#5e9624"/><stop offset=".241" stop-color="#6fb02a"/><stop offset=".501" stop-color="#7cc52f"/><stop offset=".756" stop-color="#83d232"/><stop offset="1" stop-color="#86d633"/></linearGradient><path d="m9.031 7.7a1.305 1.305 0 1 0 1.307 1.3 1.305 1.305 0 0 0 -1.307-1.3" fill="url(#a)"/><path d="m6.34 13.375-.626.629a.284.284 0 0 1 -.402 0l-4.639-4.624a.57.57 0 0 1 0-.804l.626-.629 5.04 5.027a.284.284 0 0 1 .002.402" fill="#50e6ff"/><path d="m5.62 3.996.627.626a.284.284 0 0 1 0 .402l-4.952 4.966-.626-.624a.57.57 0 0 1 0-.803l4.551-4.564a.284.284 0 0 1 .401 0z" fill="#1490df"/><path d="m16.702 7.947.627.629a.57.57 0 0 1 -.001.803l-4.639 4.626a.284.284 0 0 1 -.402 0l-.627-.63a.284.284 0 0 1 .001-.401z" fill="#50e6ff"/><path d="m17.333 9.364-.629.627-4.953-4.967a.284.284 0 0 1 0-.402l.628-.626a.284.284 0 0 1 .402 0l4.552 4.566a.57.57 0 0 1 0 .803z" fill="#1490df"/></svg>