<svg viewBox="0 0 24 24" xmlns="http://www.w3.org/2000/svg"><path d="m10.898 16.705h-1.784v-.29c-.265.196-.656.416-1.32.416-2.158 0-2.996-1.167-2.996-3.43v-3.592h1.783v3.592c-.006.616 0 1.778 1.284 1.778 1.241 0 1.248-1.1 1.248-1.765v-3.605h1.783v6.896zm-6.797-9.498c-1.961-.216-2.407.233-2.763.7-.316.413-.357.988-.357 1.401v.501h-.981v1.652h.999v5.244h1.783v-5.244h1.346v-1.652h-1.31v-.465c0-.474.38-.533.571-.521l.392.018zm19.899 6.05c0-1.984-1.594-3.592-3.561-3.592-.835 0-1.603.29-2.21.775.384.44.677.965.85 1.543a1.707 1.707 0 0 1 1.337-.666c.975 0 1.765.86 1.765 1.922 0 1.061-.79 1.922-1.765 1.922-.969 0-1.757-.851-1.765-1.904 0-.913-.332-1.747-.878-2.381a3.447 3.447 0 0 0 -2.617-1.211c-.651 0-1.261.183-1.783.502v-2.908l-1.783.35v9.097h1.783v-.288c.522.319 1.132.432 1.783.432a3.42 3.42 0 0 0 2.176-.781 4.215 4.215 0 0 1 -.876-1.537c-.321.429-.8.702-1.336.702-.965 0-1.747-.884-1.747-1.975s.782-1.975 1.747-1.975 1.748.885 1.748 1.976c0 1.984 1.6 3.591 3.566 3.591 1.966-.002 3.566-1.61 3.566-3.594"/></svg>