<svg height="48" viewBox="0 0 48 48" width="48" xmlns="http://www.w3.org/2000/svg"><path d="m32.625 35.376h2v-22.751h-2zm-19.25 0h2v-22.751h-2zm26.25-9.89-1.782-1.485 1.782-1.486zm1.424-6.011a1 1 0 0 0 -1.065.136l-4.344 3.621a1.003 1.003 0 0 0 0 1.538l4.345 3.62a1 1 0 0 0 1.064.136 1 1 0 0 0 .576-.905v-7.241a1 1 0 0 0 -.576-.905m-32.674 6.011v-2.971l1.782 1.486zm-.359-5.875a1.003 1.003 0 0 0 -1.641.769v7.241a1 1 0 0 0 1.64.769l4.345-3.62a1.003 1.003 0 0 0 0-1.538zm15.984 24.39c-11.028 0-20-8.972-20-20s8.972-20.001 20-20.001 20 8.973 20 20.001-8.972 20-20 20m0-42.001c-12.131 0-22 9.869-22 22.001 0 12.131 9.869 22 22 22s22-9.869 22-22-9.869-22.001-22-22.001m4.246 27.126-8.496-.005.002-6.745 8.498.004zm-5.867-10.075c.002-.552.187-1.064.523-1.443.304-.34.696-.529 1.105-.529h.005c.889.003 1.61.898 1.607 1.997l-.001 1.303-3.245-.002zm6.871 1.329-1.632-.001.001-1.3c.007-2.199-1.609-3.993-3.601-4h-.011c-.989 0-1.912.427-2.601 1.202a4.17 4.17 0 0 0 -1.027 2.762l-.006 1.334-1.621-.001a.997.997 0 0 0 -1 1l-.002 8.745a1 1 0 0 0 1 1l10.496.005a.997.997 0 0 0 1-1l.004-8.746a.997.997 0 0 0 -1-1" fill="#8c4fff" fill-rule="evenodd"/></svg>