<svg viewBox="0 0 24 24" xmlns="http://www.w3.org/2000/svg" fill="#D52B1E"><path d="m18.994 3.2c-1.16 0-2.772.494-3.94 2.104-.223.314-.39.664-.494 1.034a4.27 4.27 0 0 0 .678 3.692c.6.812 1.368 1.42 2.044 1.96.332.26 1.034.926 1.26 1.208.34.422.596.674.902 1.606.186.564.212 1.308.12 1.73 2.12-2.15 4.436-4.94 4.436-7.974 0-3.486-2.498-5.36-5.006-5.36m-3.944 11.786c-.886-1.204-1.908-1.936-2.754-2.706-.368-.336-.772-.584-1.07-.88-1.434-1.424-2.102-3.18-1.764-5.34.268-1.692 1.108-2.806 2.124-3.622a7.098 7.098 0 0 0 -4.278-1.372c-4.034-0-7.408 3.244-7.306 7.24.184 7.22 9.224 13.37 12.948 14.628 1.992-1.02 3.05-2.928 3.05-4.884 0-1.426-.612-2.6-.95-3.064"/></svg>