<svg xmlns="http://www.w3.org/2000/svg" width="18" height="18" viewBox="0 0 18 18">
  <defs>
    <mask id="ko">
      <rect width="18" height="18" fill="white"/>
      <path fill="black" d="M9 8c4.15 0 7.5-1.38 7.5-3.08v1.82c-.14 1.65-3.44 3-7.5 3S1.5 8.36 1.5 6.66V4.92C1.46 6.62 4.82 8 9 8"/>
      <circle fill="black" cx="8.96" cy="11.82" r="0"/>
      <circle fill="black" cx="9.15" cy="11.79" r="0"/>
      <circle fill="black" cx="8.96" cy="4.99" r="0"/>
      <circle fill="black" cx="9.15" cy="4.95" r="0"/>
    </mask>
  </defs>
  <g>
    <path fill="currentColor" mask="url(#ko)" d="M9 14.84c4.15 0 7.5-1.38 7.5-3.08v1.82c-.14 1.65-3.44 3-7.5 3S1.5 15.2 1.5 13.5v-1.74c-.04 1.7 3.32 3.08 7.5 3.08"/>
  </g>
</svg>