<svg height="64" viewBox="0 0 64 64" width="64" xmlns="http://www.w3.org/2000/svg"><g fill="none" fill-rule="evenodd"><path d="m0 0h64v64h-64z" fill="#e7157b"/><path d="m37.219 0h-13.843l-12.127 20.387-.605-2.259-1.932.518 1.585 5.913 5.913-1.584-.517-1.932-2.982.799 11.802-19.842h11.552l5.774 10-5.774 10h-5.921v2h7.075l6.929-12zm-4.965 13.671-11.467 20.329h-13.859l-6.928-12 6.928-12h6.216v2h-5.062l-5.773 10 5.773 10h11.537l11.199-19.853-3.023.81-.517-1.932 5.914-1.584 1.584 5.913-1.932.518z" fill="#fff" transform="translate(10 15)"/></g></svg>