<svg xmlns="http://www.w3.org/2000/svg" width="64" height="64" viewBox="0 0 64 64"><title>Icon-Architecture/48/Arch_Amazon-AppFlow_48</title><g id="Icon-Architecture/48/Arch_Amazon-AppFlow_48" fill="none" fill-rule="evenodd" stroke="none" stroke-width="1"><g id="Icon-Architecture-BG/48/Application-Integration" fill="#e7157b"><path id="Rectangle" d="M0 0h64v64H0z"/></g><g id="Icon-Service/48/Amazon-AppFlow_48" fill="#fff" transform="translate(10 15)"><path id="Amazon-AppFlow_48" d="M37.219 0H23.376L11.249 20.387l-.605-2.259-1.932.518 1.585 5.913 5.913-1.584-.517-1.932-2.982.799L24.513 2h11.552l5.774 10-5.774 10h-5.921v2h7.075l6.929-12zm-4.965 13.671L20.787 34H6.928L0 22l6.928-12h6.216v2H8.082L2.309 22l5.773 10h11.537l11.199-19.853-3.023.81-.517-1.932 5.914-1.584 1.584 5.913-1.932.518z"/></g></g></svg>