<svg viewBox="0 0 24 24" xmlns="http://www.w3.org/2000/svg"><path d="m13.96 9.01h-.84v-1.518h-1.234v3.663h-6.164c.34.517.538.982.538 1.152 0 .46-1.445 3.059-3.197 3.059-2.263.061-3.808-2.566-2.691-4.511a3.062 3.062 0 0 1 2.691-1.606c1.04 0 1.971.915 2.557 1.755v-4.427a3.773 3.773 0 0 1 3.77-3.769h10.84c2.08 0 3.77 1.692 3.77 3.769v10.845a3.773 3.773 0 0 1 -3.77 3.769h-1.6v-3.691h-7.64v3.692h-1.6a3.773 3.773 0 0 1 -3.77-3.769v-3.41h12.114v-6.52h-1.59v.893h-.84v-.893h-1.344v1.516zm-9.956 1.845c-.662-.703-1.578-.544-2.209 0-2.105 2.054 1.338 5.553 3.302 1.447a5.395 5.395 0 0 0 -1.093-1.447z"/></svg>