<svg height="48" viewBox="0 0 48 48" width="48" xmlns="http://www.w3.org/2000/svg"><path d="m39 44v-32h-7a1 1 0 0 1 -1-1v-7h-22v40zm-6-34h4.586l-4.586-4.586zm8 1v34a1 1 0 0 1 -1 1h-32a1 1 0 0 1 -1-1v-42a1 1 0 0 1 1-1h24v.01a1 1 0 0 1 .707.283l8 8a1 1 0 0 1 .284.707zm-6.421 25.424-1.665 1.665-1.665-1.665-1.414 1.414 1.665 1.665-1.665 1.665 1.414 1.415 1.665-1.666 1.665 1.666 1.414-1.415-1.665-1.665 1.665-1.665zm-19.079-24.424c.827 0 1.5-.673 1.5-1.5s-.673-1.5-1.5-1.5-1.5.673-1.5 1.5.673 1.5 1.5 1.5m0 2c-1.93 0-3.5-1.57-3.5-3.5s1.57-3.5 3.5-3.5 3.5 1.57 3.5 3.5-1.57 3.5-3.5 3.5m10.027 22.876q-.802.117-1.598.116a10.82 10.82 0 0 1 -6.499-2.165 10.84 10.84 0 0 1 -4.393-8.684l2-.014a8.85 8.85 0 0 0 3.588 7.094 8.86 8.86 0 0 0 6.614 1.674 8.86 8.86 0 0 0 5.861-3.494c2.937-3.941 2.121-9.537-1.82-12.475-3.676-2.741-8.793-2.211-11.848 1.072h1.568v2h-4a1 1 0 0 1 -1-1v-4h2v1.606c3.743-3.992 9.986-4.628 14.476-1.282 4.825 3.597 5.824 10.449 2.227 15.274a10.84 10.84 0 0 1 -7.176 4.278" fill="#7aa116" fill-rule="evenodd"/></svg>