<svg xmlns="http://www.w3.org/2000/svg" viewBox="0 0 128 128"><defs><mask id="a"><path fill="#fff" d="M0 0h128v128H0z"/><path d="M38.4 61.902a3.4 3.4 0 0 0 1.844-.531c.547-.35.974-.847 1.227-1.43a3.1 3.1 0 0 0 .195-1.847 3.16 3.16 0 0 0-.902-1.639 3.35 3.35 0 0 0-1.696-.878 3.43 3.43 0 0 0-1.916.179 3.3 3.3 0 0 0-1.489 1.176 3.1 3.1 0 0 0-.559 1.776c0 .844.347 1.654.964 2.253a3.37 3.37 0 0 0 2.332.94zm39.632 0a3.4 3.4 0 0 0 1.844-.531c.547-.35.974-.847 1.227-1.43a3.1 3.1 0 0 0 .195-1.847 3.16 3.16 0 0 0-.902-1.639 3.35 3.35 0 0 0-1.696-.878 3.43 3.43 0 0 0-1.916.179 3.3 3.3 0 0 0-1.489 1.176 3.1 3.1 0 0 0-.559 1.776c0 .84.342 1.644.953 2.242.61.598 1.44.94 2.311.952z"/></mask></defs><g fill="currentColor" mask="url(#a)"><path d="M116.8 65.08c0 23.467-25.072 42.49-56 42.49s-56-19.023-56-42.49c0-14.55 9.6-27.401 24.352-35.023S53.088 14.628 60.8 14.628 75.104 21 92.448 30.058C107.2 37.677 116.8 50.53 116.8 65.08"/><path d="M116.8 65.08a32.3 32.3 0 0 0-1.28-8.918c-4.368 51.377-69.36 53.846-94.912 38.48 11.486 8.584 25.66 13.144 40.192 12.928 30.88 0 56-19.054 56-42.49"/><path d="M39.248 27.234c7.152-4.135 16.656-11.896 26-11.911a15.4 15.4 0 0 0-4.448-.695c-3.872 0-8 1.93-13.2 4.83-1.808 1.018-3.68 2.144-5.664 3.317-3.728 2.222-8 4.736-12.8 7.251C13.904 37.972 4.8 51.071 4.8 65.08v1.836c9.696-33.033 27.312-35.547 34.448-39.682"/><path d="M56.192 18.532A24.55 24.55 0 0 1 53.867 29.1a25.4 25.4 0 0 1-6.683 8.671c-.448.386-.096 1.127.48.91 5.392-2.02 12.672-8.068 9.6-20.272-.128-.695-1.072-.51-1.072.123m3.632 0a24.5 24.5 0 0 1 3.646 10.12c.445 3.587.08 7.224-1.07 10.662-.192.54.496 1.003.88.556 3.504-4.32 6.56-12.899-2.592-22.156-.464-.4-1.184.216-.864.756zm4.416-.262a25.7 25.7 0 0 1 7.521 7.925A24.7 24.7 0 0 1 75.2 36.414c-.016.13.02.26.101.365a.543.543 0 0 0 .718.117.5.5 0 0 0 .221-.313c1.472-5.384.64-14.564-11.472-19.332-.64-.246-1.056.587-.528.957zM34.704 34.315a27.4 27.4 0 0 0 9.91-5.222 26.3 26.3 0 0 0 6.842-8.663c.288-.556 1.2-.34 1.056.277-2.768 12.343-12.032 14.92-17.792 14.58-.608.016-.592-.802-.016-.972"/><path d="M72.08 76.343c-.719 2.839-2.355 5.383-4.672 7.267a11.07 11.07 0 0 1-6.4 2.9 11.13 11.13 0 0 1-6.608-2.9c-2.293-1.892-3.906-4.436-4.608-7.267a1.1 1.1 0 0 1 .05-.5 1.1 1.1 0 0 1 .272-.428 1.19 1.19 0 0 1 .958-.322h19.744a1.19 1.19 0 0 1 .947.33 1.07 1.07 0 0 1 .317.92"/><path d="M54.4 83.733a11.24 11.24 0 0 0 6.592 2.932 11.24 11.24 0 0 0 6.576-2.932 17 17 0 0 0 1.6-1.65 10.9 10.9 0 0 0-3.538-2.564 11.3 11.3 0 0 0-4.302-1 10.1 10.1 0 0 0-4.549 1.192 9.7 9.7 0 0 0-3.451 3.097c.368.323.688.632 1.072.925"/><path d="M85.152 77.3c5.17 0 9.36-2.377 9.36-5.308s-4.19-5.307-9.36-5.307-9.36 2.376-9.36 5.307 4.19 5.307 9.36 5.307zm-48.432 0c5.17 0 9.36-2.377 9.36-5.308s-4.19-5.307-9.36-5.307-9.36 2.376-9.36 5.307 4.19 5.307 9.36 5.307z"/></g></svg>